  0
SECTION
  2
HEADER
  9
$ACADVER
  1
AC1032
  9
$ACADMAINTVER
 90
       55
  9
$DWGCODEPAGE
  3
UNDEFINED
  9
$LASTSAVEDBY
  1
Administrator
  9
$REQUIREDVERSIONS
160
                 0
  9
$INSBASE
 10
0.0
 20
0.0
 30
0.0
  9
$EXTMIN
 10
-13.2582
 20
-8.3381
 30
0.0
  9
$EXTMAX
 10
16.9418
 20
20.3926
 30
0.0
  9
$LIMMIN
 10
0.0
 20
0.0
  9
$LIMMAX
 10
12.0
 20
9.0
  9
$ORTHOMODE
 70
     0
  9
$REGENMODE
 70
     1
  9
$FILLMODE
 70
     1
  9
$QTEXTMODE
 70
     0
  9
$MIRRTEXT
 70
     1
  9
$LTSCALE
 40
1.0
  9
$ATTMODE
 70
     1
  9
$TEXTSIZE
 40
0.2
  9
$TRACEWID
 40
0.05
  9
$TEXTSTYLE
  7
Standard
  9
$CLAYER
  8
0
  9
$CELTYPE
  6
ByLayer
  9
$CECOLOR
 62
   256
  9
$CELTSCALE
 40
1.0
  9
$DISPSILH
 70
     0
  9
$DIMSCALE
 40
1.0
  9
$DIMASZ
 40
0.18
  9
$DIMEXO
 40
0.0625
  9
$DIMDLI
 40
0.38
  9
$DIMRND
 40
0.0
  9
$DIMDLE
 40
0.0
  9
$DIMEXE
 40
0.18
  9
$DIMTP
 40
0.0
  9
$DIMTM
 40
0.0
  9
$DIMTXT
 40
0.18
  9
$DIMCEN
 40
0.09
  9
$DIMTSZ
 40
0.0
  9
$DIMTOL
 70
     0
  9
$DIMLIM
 70
     0
  9
$DIMTIH
 70
     1
  9
$DIMTOH
 70
     1
  9
$DIMSE1
 70
     0
  9
$DIMSE2
 70
     0
  9
$DIMTAD
 70
     0
  9
$DIMZIN
 70
     0
  9
$DIMBLK
  1

  9
$DIMASO
 70
     1
  9
$DIMSHO
 70
     1
  9
$DIMPOST
  1

  9
$DIMAPOST
  1

  9
$DIMALT
 70
     0
  9
$DIMALTD
 70
     2
  9
$DIMALTF
 40
25.4
  9
$DIMLFAC
 40
1.0
  9
$DIMTOFL
 70
     0
  9
$DIMTVP
 40
0.0
  9
$DIMTIX
 70
     0
  9
$DIMSOXD
 70
     0
  9
$DIMSAH
 70
     0
  9
$DIMBLK1
  1

  9
$DIMBLK2
  1

  9
$DIMSTYLE
  2
Standard
  9
$DIMCLRD
 70
     0
  9
$DIMCLRE
 70
     0
  9
$DIMCLRT
 70
     0
  9
$DIMTFAC
 40
1.0
  9
$DIMGAP
 40
0.09
  9
$DIMJUST
 70
     0
  9
$DIMSD1
 70
     0
  9
$DIMSD2
 70
     0
  9
$DIMTOLJ
 70
     1
  9
$DIMTZIN
 70
     0
  9
$DIMALTZ
 70
     0
  9
$DIMALTTZ
 70
     0
  9
$DIMUPT
 70
     0
  9
$DIMDEC
 70
     4
  9
$DIMTDEC
 70
     4
  9
$DIMALTU
 70
     2
  9
$DIMALTTD
 70
     2
  9
$DIMTXSTY
  7
Standard
  9
$DIMAUNIT
 70
     0
  9
$DIMADEC
 70
     0
  9
$DIMALTRND
 40
0.0
  9
$DIMAZIN
 70
     0
  9
$DIMDSEP
 70
    46
  9
$DIMATFIT
 70
     3
  9
$DIMFRAC
 70
     0
  9
$DIMLDRBLK
  1

  9
$DIMLUNIT
 70
     2
  9
$DIMLWD
 70
    -2
  9
$DIMLWE
 70
    -2
  9
$DIMTMOVE
 70
     0
  9
$DIMFXL
 40
1.0
  9
$DIMFXLON
 70
     0
  9
$DIMJOGANG
 40
0.7853981633974483
  9
$DIMTFILL
 70
     0
  9
$DIMTFILLCLR
 70
     0
  9
$DIMARCSYM
 70
     0
  9
$DIMLTYPE
  6

  9
$DIMLTEX1
  6

  9
$DIMLTEX2
  6

  9
$DIMTXTDIRECTION
 70
     0
  9
$LUNITS
 70
     2
  9
$LUPREC
 70
     4
  9
$SKETCHINC
 40
0.1
  9
$FILLETRAD
 40
0.0
  9
$AUNITS
 70
     0
  9
$AUPREC
 70
     0
  9
$MENU
  1
.
  9
$ELEVATION
 40
0.0
  9
$PELEVATION
 40
0.0
  9
$THICKNESS
 40
0.0
  9
$LIMCHECK
 70
     0
  9
$CHAMFERA
 40
0.0
  9
$CHAMFERB
 40
0.0
  9
$CHAMFERC
 40
0.0
  9
$CHAMFERD
 40
0.0
  9
$SKPOLY
 70
     0
  9
$TDCREATE
 40
2460361.493843576
  9
$TDUCREATE
 40
2460361.348010243
  9
$TDUPDATE
 40
2460361.493843796
  9
$TDUUPDATE
 40
2460361.348010463
  9
$TDINDWG
 40
0.0000000116
  9
$TDUSRTIMER
 40
0.0000000116
  9
$USRTIMER
 70
     1
  9
$ANGBASE
 50
0.0
  9
$ANGDIR
 70
     0
  9
$PDMODE
 70
     0
  9
$PDSIZE
 40
0.0
  9
$PLINEWID
 40
0.0
  9
$SPLFRAME
 70
     0
  9
$SPLINETYPE
 70
     6
  9
$SPLINESEGS
 70
     8
  9
$HANDSEED
  5
78
  9
$SURFTAB1
 70
     6
  9
$SURFTAB2
 70
     6
  9
$SURFTYPE
 70
     6
  9
$SURFU
 70
     6
  9
$SURFV
 70
     6
  9
$UCSBASE
  2

  9
$UCSNAME
  2

  9
$UCSORG
 10
0.0
 20
0.0
 30
0.0
  9
$UCSXDIR
 10
1.0
 20
0.0
 30
0.0
  9
$UCSYDIR
 10
0.0
 20
1.0
 30
0.0
  9
$UCSORTHOREF
  2

  9
$UCSORTHOVIEW
 70
     0
  9
$UCSORGTOP
 10
0.0
 20
0.0
 30
0.0
  9
$UCSORGBOTTOM
 10
0.0
 20
0.0
 30
0.0
  9
$UCSORGLEFT
 10
0.0
 20
0.0
 30
0.0
  9
$UCSORGRIGHT
 10
0.0
 20
0.0
 30
0.0
  9
$UCSORGFRONT
 10
0.0
 20
0.0
 30
0.0
  9
$UCSORGBACK
 10
0.0
 20
0.0
 30
0.0
  9
$PUCSBASE
  2

  9
$PUCSNAME
  2

  9
$PUCSORG
 10
0.0
 20
0.0
 30
0.0
  9
$PUCSXDIR
 10
1.0
 20
0.0
 30
0.0
  9
$PUCSYDIR
 10
0.0
 20
1.0
 30
0.0
  9
$PUCSORTHOREF
  2

  9
$PUCSORTHOVIEW
 70
     0
  9
$PUCSORGTOP
 10
0.0
 20
0.0
 30
0.0
  9
$PUCSORGBOTTOM
 10
0.0
 20
0.0
 30
0.0
  9
$PUCSORGLEFT
 10
0.0
 20
0.0
 30
0.0
  9
$PUCSORGRIGHT
 10
0.0
 20
0.0
 30
0.0
  9
$PUCSORGFRONT
 10
0.0
 20
0.0
 30
0.0
  9
$PUCSORGBACK
 10
0.0
 20
0.0
 30
0.0
  9
$USERI1
 70
     0
  9
$USERI2
 70
     0
  9
$USERI3
 70
     0
  9
$USERI4
 70
     0
  9
$USERI5
 70
     0
  9
$USERR1
 40
0.0
  9
$USERR2
 40
0.0
  9
$USERR3
 40
0.0
  9
$USERR4
 40
0.0
  9
$USERR5
 40
0.0
  9
$WORLDVIEW
 70
     1
  9
$SHADEDGE
 70
     3
  9
$SHADEDIF
 70
    70
  9
$TILEMODE
 70
     1
  9
$MAXACTVP
 70
    64
  9
$PINSBASE
 10
0.0
 20
0.0
 30
0.0
  9
$PLIMCHECK
 70
     0
  9
$PEXTMIN
 10
1.000000000000000E+20
 20
1.000000000000000E+20
 30
1.000000000000000E+20
  9
$PEXTMAX
 10
-1.000000000000000E+20
 20
-1.000000000000000E+20
 30
-1.000000000000000E+20
  9
$PLIMMIN
 10
0.0
 20
0.0
  9
$PLIMMAX
 10
12.0
 20
9.0
  9
$UNITMODE
 70
     0
  9
$VISRETAIN
 70
     1
  9
$PLINEGEN
 70
     0
  9
$PSLTSCALE
 70
     1
  9
$TREEDEPTH
 70
  3020
  9
$CMLSTYLE
  2
Standard
  9
$CMLJUST
 70
     0
  9
$CMLSCALE
 40
1.0
  9
$PROXYGRAPHICS
 70
     1
  9
$MEASUREMENT
 70
     0
  9
$CELWEIGHT
370
    -1
  9
$ENDCAPS
280
     0
  9
$JOINSTYLE
280
     0
  9
$LWDISPLAY
290
     0
  9
$INSUNITS
 70
     4
  9
$HYPERLINKBASE
  1

  9
$STYLESHEET
  1

  9
$XEDIT
290
     1
  9
$CEPSNTYPE
380
     0
  9
$PSTYLEMODE
290
     1
  9
$FINGERPRINTGUID
  2
{03ef41e3-33f2-4eae-91fd-c699bc7f23bf}
  9
$VERSIONGUID
  2
{FAEB1C32-E019-11D5-929B-00C0DF256EC4}
  9
$EXTNAMES
290
     1
  9
$PSVPSCALE
 40
0.0
  9
$OLESTARTUP
290
     0
  9
$SORTENTS
280
   127
  9
$INDEXCTL
280
     0
  9
$HIDETEXT
280
     1
  9
$XCLIPFRAME
280
     2
  9
$HALOGAP
280
     0
  9
$OBSCOLOR
 70
   257
  9
$OBSLTYPE
280
     0
  9
$INTERSECTIONDISPLAY
280
     0
  9
$INTERSECTIONCOLOR
 70
   257
  9
$DIMASSOC
280
     2
  9
$PROJECTNAME
  1

  9
$CAMERADISPLAY
290
     0
  9
$LENSLENGTH
 40
50.0
  9
$CAMERAHEIGHT
 40
0.0
  9
$STEPSPERSEC
 40
2.0
  9
$STEPSIZE
 40
6.0
  9
$3DDWFPREC
 40
2.0
  9
$PSOLWIDTH
 40
0.25
  9
$PSOLHEIGHT
 40
4.0
  9
$LOFTANG1
 40
1.570796326794897
  9
$LOFTANG2
 40
1.570796326794897
  9
$LOFTMAG1
 40
0.0
  9
$LOFTMAG2
 40
0.0
  9
$LOFTPARAM
 70
     7
  9
$LOFTNORMALS
280
     1
  9
$LATITUDE
 40
37.795
  9
$LONGITUDE
 40
-122.394
  9
$NORTHDIRECTION
 40
0.0
  9
$TIMEZONE
 70
 -8000
  9
$LIGHTGLYPHDISPLAY
280
     1
  9
$TILEMODELIGHTSYNCH
280
     1
  9
$CMATERIAL
347
44
  9
$SOLIDHIST
280
     0
  9
$SHOWHIST
280
     1
  9
$DWFFRAME
280
     2
  9
$DGNFRAME
280
     2
  9
$REALWORLDSCALE
290
     1
  9
$INTERFERECOLOR
 62
   256
  9
$CSHADOW
280
     0
  9
$SHADOWPLANELOCATION
 40
0.0
  0
ENDSEC
  0
SECTION
  2
CLASSES
  0
CLASS
  1
ACDBDICTIONARYWDFLT
  2
AcDbDictionaryWithDefault
  3
ObjectDBX Classes
 90
        0
 91
        3
280
     0
281
     0
  0
CLASS
  1
VISUALSTYLE
  2
AcDbVisualStyle
  3
ObjectDBX Classes
 90
     4095
 91
        3
280
     0
281
     0
  0
CLASS
  1
MATERIAL
  2
AcDbMaterial
  3
ObjectDBX Classes
 90
     1153
 91
        3
280
     0
281
     0
  0
CLASS
  1
SCALE
  2
AcDbScale
  3
ObjectDBX Classes
 90
     1153
 91
        3
280
     0
281
     0
  0
CLASS
  1
TABLESTYLE
  2
AcDbTableStyle
  3
ObjectDBX Classes
 90
     4095
 91
        3
280
     0
281
     0
  0
CLASS
  1
MLEADERSTYLE
  2
AcDbMLeaderStyle
  3
ACDB_MLEADERSTYLE_CLASS
 90
     4095
 91
        3
280
     0
281
     0
  0
CLASS
  1
SUN
  2
AcDbSun
  3
SCENEOE
 90
     1153
 91
        3
280
     0
281
     0
  0
CLASS
  1
DICTIONARYVAR
  2
AcDbDictionaryVar
  3
ObjectDBX Classes
 90
        0
 91
        3
280
     0
281
     0
  0
CLASS
  1
CELLSTYLEMAP
  2
AcDbCellStyleMap
  3
ObjectDBX Classes
 90
     1152
 91
        3
280
     0
281
     0
  0
ENDSEC
  0
SECTION
  2
TABLES
  0
TABLE
  2
VPORT
  5
8
330
0
100
AcDbSymbolTable
 70
     1
  0
VPORT
  5
29
330
8
100
AcDbSymbolTableRecord
100
AcDbViewportTableRecord
  2
*Active
 70
     0
 10
0.0
 20
0.0
 11
1.0
 21
1.0
 12
10.42990654205607
 22
4.5
 13
0.0
 23
0.0
 14
0.5
 24
0.5
 15
0.5
 25
0.5
 16
0.0
 26
0.0
 36
1.0
 17
0.0
 27
0.0
 37
0.0
 40
9.0
 41
1.972972972850329
 42
50.0
 43
0.0
 44
0.0
 50
0.0
 51
0.0
 71
     0
 72
   100
 73
     1
 74
     3
 75
     0
 76
     0
 77
     0
 78
     0
281
     0
 65
     1
110
0.0
120
0.0
130
0.0
111
1.0
121
0.0
131
0.0
112
0.0
122
1.0
132
0.0
 79
     0
146
0.0
348
2F
 60
     3
 61
     5
292
     1
282
     1
141
0.0
142
0.0
 63
   250
361
5D
  0
ENDTAB
  0
TABLE
  2
LTYPE
  5
5
330
0
100
AcDbSymbolTable
 70
     1
  0
LTYPE
  5
14
330
5
100
AcDbSymbolTableRecord
100
AcDbLinetypeTableRecord
  2
ByBlock
 70
     0
  3

 72
    65
 73
     0
 40
0.0
  0
LTYPE
  5
15
330
5
100
AcDbSymbolTableRecord
100
AcDbLinetypeTableRecord
  2
ByLayer
 70
     0
  3

 72
    65
 73
     0
 40
0.0
  0
LTYPE
  5
16
330
5
100
AcDbSymbolTableRecord
100
AcDbLinetypeTableRecord
  2
Continuous
 70
     0
  3
Solid line
 72
    65
 73
     0
 40
0.0
  0
ENDTAB
  0
TABLE
  2
LAYER
  5
2
330
0
100
AcDbSymbolTable
 70
     2
  0
LAYER
  5
10
330
2
100
AcDbSymbolTableRecord
100
AcDbLayerTableRecord
  2
0
 70
     0
 62
     7
  6
Continuous
370
    -3
390
F
347
46
348
0
  0
LAYER
  5
5F
330
2
100
AcDbSymbolTableRecord
100
AcDbLayerTableRecord
  2
Layer 1
 70
     0
 62
     7
  6
Continuous
370
    -3
390
F
347
46
348
0
  0
ENDTAB
  0
TABLE
  2
STYLE
  5
3
330
0
100
AcDbSymbolTable
 70
     1
  0
STYLE
  5
11
330
3
100
AcDbSymbolTableRecord
100
AcDbTextStyleTableRecord
  2
Standard
 70
     0
 40
0.0
 41
1.0
 50
0.0
 71
     0
 42
0.2
  3
txt
  4

  0
ENDTAB
  0
TABLE
  2
VIEW
  5
6
330
0
100
AcDbSymbolTable
 70
     0
  0
ENDTAB
  0
TABLE
  2
UCS
  5
7
330
0
100
AcDbSymbolTable
 70
     0
  0
ENDTAB
  0
TABLE
  2
APPID
  5
9
330
0
100
AcDbSymbolTable
 70
     2
  0
APPID
  5
12
330
9
100
AcDbSymbolTableRecord
100
AcDbRegAppTableRecord
  2
ACAD
 70
     0
  0
APPID
  5
5E
330
9
100
AcDbSymbolTableRecord
100
AcDbRegAppTableRecord
  2
ODA
 70
     0
  0
ENDTAB
  0
TABLE
  2
DIMSTYLE
  5
A
330
0
100
AcDbSymbolTable
 70
     1
100
AcDbDimStyleTable
  0
DIMSTYLE
105
27
330
A
100
AcDbSymbolTableRecord
100
AcDbDimStyleTableRecord
  2
Standard
 70
     0
178
     0
340
11
  0
ENDTAB
  0
TABLE
  2
BLOCK_RECORD
  5
1
330
0
100
AcDbSymbolTable
 70
     1
  0
BLOCK_RECORD
  5
1F
330
1
100
AcDbSymbolTableRecord
100
AcDbBlockTableRecord
  2
*Model_Space
340
22
 70
     0
280
     1
281
     0
  0
BLOCK_RECORD
  5
1B
330
1
100
AcDbSymbolTableRecord
100
AcDbBlockTableRecord
  2
*Paper_Space
340
1E
 70
     0
280
     1
281
     0
  0
BLOCK_RECORD
  5
23
330
1
100
AcDbSymbolTableRecord
100
AcDbBlockTableRecord
  2
*Paper_Space0
340
26
 70
     0
280
     1
281
     0
  0
ENDTAB
  0
ENDSEC
  0
SECTION
  2
BLOCKS
  0
BLOCK
  5
20
330
1F
100
AcDbEntity
  8
0
100
AcDbBlockBegin
  2
*Model_Space
 70
     0
 10
0.0
 20
0.0
 30
0.0
  3
*Model_Space
  1

  0
ENDBLK
  5
21
330
1F
100
AcDbEntity
  8
0
100
AcDbBlockEnd
  0
BLOCK
  5
1C
330
1B
100
AcDbEntity
 67
     1
  8
0
100
AcDbBlockBegin
  2
*Paper_Space
 70
     0
 10
0.0
 20
0.0
 30
0.0
  3
*Paper_Space
  1

  0
ENDBLK
  5
1D
330
1B
100
AcDbEntity
 67
     1
  8
0
100
AcDbBlockEnd
  0
BLOCK
  5
24
330
23
100
AcDbEntity
  8
0
100
AcDbBlockBegin
  2
*Paper_Space0
 70
     0
 10
0.0
 20
0.0
 30
0.0
  3
*Paper_Space0
  1

  0
ENDBLK
  5
25
330
23
100
AcDbEntity
  8
0
100
AcDbBlockEnd
  0
ENDSEC
  0
SECTION
  2
ENTITIES
  0
SPLINE
  5
60
330
1F
100
AcDbEntity
  8
Layer 1
 62
   250
100
AcDbSpline
210
0.0
220
0.0
230
1.0
 70
    11
 71
     3
 72
    41
 73
    37
 74
     0
 42
0.0000000001
 43
0.0000000001
 40
0.0
 40
0.0
 40
0.0
 40
0.0
 40
0.0833333333333333
 40
0.0833333333333333
 40
0.0833333333333333
 40
0.1666666666666667
 40
0.1666666666666667
 40
0.1666666666666667
 40
0.25
 40
0.25
 40
0.25
 40
0.3333333333333333
 40
0.3333333333333333
 40
0.3333333333333333
 40
0.4166666666666666
 40
0.4166666666666666
 40
0.4166666666666666
 40
0.5
 40
0.5
 40
0.5
 40
0.5833333333333333
 40
0.5833333333333333
 40
0.5833333333333333
 40
0.6666666666666666
 40
0.6666666666666666
 40
0.6666666666666666
 40
0.75
 40
0.75
 40
0.75
 40
0.8333333333333333
 40
0.8333333333333333
 40
0.8333333333333333
 40
0.9166666666666666
 40
0.9166666666666666
 40
0.9166666666666666
 40
1.0
 40
1.0
 40
1.0
 40
1.0
 10
-9.2315
 20
-0.4099
 30
0.0
 10
-9.2315
 20
-0.4099
 30
0.0
 10
-6.4149
 20
-1.6283
 30
0.0
 10
-6.4149
 20
-1.6283
 30
0.0
 10
-6.4149
 20
-1.6283
 30
0.0
 10
-6.4069
 20
-1.6057
 30
0.0
 10
-6.4069
 20
-1.6057
 30
0.0
 10
-6.3857
 20
-1.5373
 30
0.0
 10
-6.3866
 20
-1.4558
 30
0.0
 10
-6.4099
 20
-1.3616
 30
0.0
 10
-6.435
 20
-1.2601
 30
0.0
 10
-6.4862
 20
-1.1441
 30
0.0
 10
-6.5632
 20
-1.0142
 30
0.0
 10
-6.6624
 20
-0.8447
 30
0.0
 10
-6.7724
 20
-0.6889
 30
0.0
 10
-6.8927
 20
-0.5471
 30
0.0
 10
-7.0117
 20
-0.4067
 30
0.0
 10
-7.1411
 20
-0.2802
 30
0.0
 10
-7.2801
 20
-0.1683
 30
0.0
 10
-7.4198
 20
-0.0559
 30
0.0
 10
-7.5634
 20
0.0366
 30
0.0
 10
-7.71
 20
0.1089
 30
0.0
 10
-7.8557
 20
0.1807
 30
0.0
 10
-8.005
 20
0.2328
 30
0.0
 10
-8.157
 20
0.2647
 30
0.0
 10
-8.4693
 20
0.3303
 30
0.0
 10
-8.715
 20
0.3231
 30
0.0
 10
-8.8931
 20
0.2444
 30
0.0
 10
-9.0624
 20
0.1695
 30
0.0
 10
-9.1736
 20
0.0249
 30
0.0
 10
-9.2257
 20
-0.1882
 30
0.0
 10
-9.2398
 20
-0.2459
 30
0.0
 10
-9.2459
 20
-0.2968
 30
0.0
 10
-9.244
 20
-0.3403
 30
0.0
 10
-9.2429
 20
-0.3665
 30
0.0
 10
-9.2387
 20
-0.3898
 30
0.0
 10
-9.2315
 20
-0.4099
 30
0.0
  0
SPLINE
  5
61
330
1F
100
AcDbEntity
  8
Layer 1
 62
   250
100
AcDbSpline
210
0.0
220
0.0
230
1.0
 70
    11
 71
     3
 72
    35
 73
    31
 74
     0
 42
0.0000000001
 43
0.0000000001
 40
0.0
 40
0.0
 40
0.0
 40
0.0
 40
0.1
 40
0.1
 40
0.1
 40
0.2
 40
0.2
 40
0.2
 40
0.3
 40
0.3
 40
0.3
 40
0.4
 40
0.4
 40
0.4
 40
0.5
 40
0.5
 40
0.5
 40
0.6000000000000001
 40
0.6000000000000001
 40
0.6000000000000001
 40
0.7000000000000001
 40
0.7000000000000001
 40
0.7000000000000001
 40
0.8
 40
0.8
 40
0.8
 40
0.9
 40
0.9
 40
0.9
 40
1.0
 40
1.0
 40
1.0
 40
1.0
 10
16.452
 20
17.0985
 30
0.0
 10
16.452
 20
17.0985
 30
0.0
 10
2.2118
 20
20.1927
 30
0.0
 10
2.2118
 20
20.1927
 30
0.0
 10
2.2118
 20
20.1927
 30
0.0
 10
-5.5344
 20
18.531
 30
0.0
 10
-5.5344
 20
18.531
 30
0.0
 10
-4.7347
 20
18.1059
 30
0.0
 10
-3.7301
 20
17.2306
 30
0.0
 10
-3.4792
 20
17.0074
 30
0.0
 10
-3.2647
 20
17.1668
 30
0.0
 10
-2.9694
 20
17.0716
 30
0.0
 10
-2.8691
 20
17.0318
 30
0.0
 10
-0.8209
 20
17.8522
 30
0.0
 10
1.2656
 20
18.3909
 30
0.0
 10
1.2716
 20
18.3924
 30
0.0
 10
2.613
 20
18.7772
 30
0.0
 10
3.0505
 20
17.0474
 30
0.0
 10
3.0573
 20
17.0197
 30
0.0
 10
3.544
 20
15.6122
 30
0.0
 10
3.1492
 20
15.5521
 30
0.0
 10
3.0379
 20
15.5603
 30
0.0
 10
2.1078
 20
15.2761
 30
0.0
 10
0.6987
 20
15.2814
 30
0.0
 10
0.1038
 20
15.2985
 30
0.0
 10
1.1326
 20
14.496
 30
0.0
 10
1.8823
 20
13.5625
 30
0.0
 10
2.4204
 20
12.6981
 30
0.0
 10
7.1026
 20
14.1405
 30
0.0
 10
11.7767
 20
15.6331
 30
0.0
 10
16.452
 20
17.0985
 30
0.0
  0
SPLINE
  5
62
330
1F
100
AcDbEntity
  8
Layer 1
 62
   250
100
AcDbSpline
210
0.0
220
0.0
230
1.0
 70
    11
 71
     3
 72
    23
 73
    19
 74
     0
 42
0.0000000001
 43
0.0000000001
 40
0.0
 40
0.0
 40
0.0
 40
0.0
 40
0.1666666666666667
 40
0.1666666666666667
 40
0.1666666666666667
 40
0.3333333333333333
 40
0.3333333333333333
 40
0.3333333333333333
 40
0.5
 40
0.5
 40
0.5
 40
0.6666666666666666
 40
0.6666666666666666
 40
0.6666666666666666
 40
0.8333333333333333
 40
0.8333333333333333
 40
0.8333333333333333
 40
1.0
 40
1.0
 40
1.0
 40
1.0
 10
-7.5265
 20
18.1036
 30
0.0
 10
-7.5265
 20
18.1036
 30
0.0
 10
-12.755
 20
16.982
 30
0.0
 10
-12.755
 20
16.982
 30
0.0
 10
-12.755
 20
16.982
 30
0.0
 10
-7.1644
 20
15.3218
 30
0.0
 10
-7.1644
 20
15.3218
 30
0.0
 10
-6.8384
 20
15.5184
 30
0.0
 10
-6.5727
 20
15.6557
 30
0.0
 10
-6.3979
 20
15.7401
 30
0.0
 10
-6.3979
 20
15.7401
 30
0.0
 10
-7.5191
 20
16.0244
 30
0.0
 10
-7.5191
 20
16.0244
 30
0.0
 10
-9.5391
 20
16.2046
 30
0.0
 10
-7.7636
 20
17.8469
 30
0.0
 10
-7.6563
 20
17.9444
 30
0.0
 10
-7.6133
 20
18.0013
 30
0.0
 10
-7.5699
 20
18.0542
 30
0.0
 10
-7.5265
 20
18.1036
 30
0.0
  0
SPLINE
  5
63
330
1F
100
AcDbEntity
  8
Layer 1
 62
   250
100
AcDbSpline
210
0.0
220
0.0
230
1.0
 70
    11
 71
     3
 72
    32
 73
    28
 74
     0
 42
0.0000000001
 43
0.0000000001
 40
0.0
 40
0.0
 40
0.0
 40
0.0
 40
0.1111111111111111
 40
0.1111111111111111
 40
0.1111111111111111
 40
0.2222222222222222
 40
0.2222222222222222
 40
0.2222222222222222
 40
0.3333333333333333
 40
0.3333333333333333
 40
0.3333333333333333
 40
0.4444444444444444
 40
0.4444444444444444
 40
0.4444444444444444
 40
0.5555555555555556
 40
0.5555555555555556
 40
0.5555555555555556
 40
0.6666666666666666
 40
0.6666666666666666
 40
0.6666666666666666
 40
0.7777777777777777
 40
0.7777777777777777
 40
0.7777777777777777
 40
0.8888888888888888
 40
0.8888888888888888
 40
0.8888888888888888
 40
1.0
 40
1.0
 40
1.0
 40
1.0
 10
-5.0835
 20
14.7039
 30
0.0
 10
-5.0835
 20
14.7039
 30
0.0
 10
-1.0415
 20
13.5036
 30
0.0
 10
-1.0415
 20
13.5036
 30
0.0
 10
-1.5639
 20
14.3637
 30
0.0
 10
-2.0534
 20
15.0378
 30
0.0
 10
-2.3469
 20
15.4148
 30
0.0
 10
-2.4106
 20
15.4969
 30
0.0
 10
-2.4949
 20
15.5597
 30
0.0
 10
-2.5884
 20
15.5964
 30
0.0
 10
-2.6779
 20
15.6315
 30
0.0
 10
-2.7765
 20
15.6425
 30
0.0
 10
-2.8737
 20
15.623
 30
0.0
 10
-2.9923
 20
15.5993
 30
0.0
 10
-3.0945
 20
15.5912
 30
0.0
 10
-3.182
 20
15.5943
 30
0.0
 10
-3.2869
 20
15.598
 30
0.0
 10
-3.3708
 20
15.6181
 30
0.0
 10
-3.4376
 20
15.6468
 30
0.0
 10
-3.5323
 20
15.6872
 30
0.0
 10
-3.6358
 20
15.696
 30
0.0
 10
-3.7366
 20
15.6794
 30
0.0
 10
-3.8455
 20
15.6615
 30
0.0
 10
-3.9518
 20
15.6136
 30
0.0
 10
-4.0413
 20
15.544
 30
0.0
 10
-4.4099
 20
15.2575
 30
0.0
 10
-4.7564
 20
14.9775
 30
0.0
 10
-5.0835
 20
14.7039
 30
0.0
  0
SPLINE
  5
64
330
1F
100
AcDbEntity
  8
Layer 1
 62
   250
100
AcDbSpline
210
0.0
220
0.0
230
1.0
 70
    11
 71
     3
 72
    50
 73
    46
 74
     0
 42
0.0000000001
 43
0.0000000001
 40
0.0
 40
0.0
 40
0.0
 40
0.0
 40
0.0666666666666667
 40
0.0666666666666667
 40
0.0666666666666667
 40
0.1333333333333333
 40
0.1333333333333333
 40
0.1333333333333333
 40
0.2
 40
0.2
 40
0.2
 40
0.2666666666666667
 40
0.2666666666666667
 40
0.2666666666666667
 40
0.3333333333333333
 40
0.3333333333333333
 40
0.3333333333333333
 40
0.4
 40
0.4
 40
0.4
 40
0.4666666666666667
 40
0.4666666666666667
 40
0.4666666666666667
 40
0.5333333333333333
 40
0.5333333333333333
 40
0.5333333333333333
 40
0.6
 40
0.6
 40
0.6
 40
0.6666666666666666
 40
0.6666666666666666
 40
0.6666666666666666
 40
0.7333333333333333
 40
0.7333333333333333
 40
0.7333333333333333
 40
0.8
 40
0.8
 40
0.8
 40
0.8666666666666667
 40
0.8666666666666667
 40
0.8666666666666667
 40
0.9333333333333333
 40
0.9333333333333333
 40
0.9333333333333333
 40
1.0
 40
1.0
 40
1.0
 40
1.0
 10
-13.1789
 20
17.0954
 30
0.0
 10
-13.1789
 20
17.0954
 30
0.0
 10
-7.257
 20
18.3658
 30
0.0
 10
-7.257
 20
18.3658
 30
0.0
 10
-6.5943
 20
18.9085
 30
0.0
 10
-5.977
 20
18.7218
 30
0.0
 10
-5.975
 20
18.7212
 30
0.0
 10
-5.9294
 20
18.7075
 30
0.0
 10
-5.882
 20
18.6906
 30
0.0
 10
-5.8331
 20
18.6712
 30
0.0
 10
-5.8331
 20
18.6712
 30
0.0
 10
2.1914
 20
20.3926
 30
0.0
 10
2.1914
 20
20.3926
 30
0.0
 10
2.1914
 20
20.3926
 30
0.0
 10
2.2332
 20
20.3926
 30
0.0
 10
2.2332
 20
20.3926
 30
0.0
 10
2.2332
 20
20.3926
 30
0.0
 10
16.8629
 20
17.2138
 30
0.0
 10
16.8629
 20
17.2138
 30
0.0
 10
16.8629
 20
17.2138
 30
0.0
 10
16.9418
 20
17.1161
 30
0.0
 10
16.9418
 20
17.1161
 30
0.0
 10
16.9418
 20
17.1161
 30
0.0
 10
16.9418
 20
-2.5284
 30
0.0
 10
16.9418
 20
-2.5284
 30
0.0
 10
16.9418
 20
-2.5284
 30
0.0
 10
16.8773
 20
-2.6218
 30
0.0
 10
16.8773
 20
-2.6218
 30
0.0
 10
16.8773
 20
-2.6218
 30
0.0
 10
1.9087
 20
-8.3381
 30
0.0
 10
1.9087
 20
-8.3381
 30
0.0
 10
1.9087
 20
-8.3381
 30
0.0
 10
1.838
 20
-8.3381
 30
0.0
 10
1.838
 20
-8.3381
 30
0.0
 10
1.838
 20
-8.3381
 30
0.0
 10
-13.1934
 20
-2.638
 30
0.0
 10
-13.1934
 20
-2.638
 30
0.0
 10
-13.1934
 20
-2.638
 30
0.0
 10
-13.2582
 20
-2.5446
 30
0.0
 10
-13.2582
 20
-2.5446
 30
0.0
 10
-13.2582
 20
-2.5446
 30
0.0
 10
-13.2582
 20
16.9977
 30
0.0
 10
-13.2582
 20
16.9977
 30
0.0
 10
-13.2582
 20
16.9977
 30
0.0
 10
-13.1789
 20
17.0954
 30
0.0
 10
-13.1789
 20
17.0954
 30
0.0
  0
SPLINE
  5
65
330
1F
100
AcDbEntity
  8
Layer 1
 62
   250
100
AcDbSpline
210
0.0
220
0.0
230
1.0
 70
    11
 71
     3
 72
    47
 73
    43
 74
     0
 42
0.0000000001
 43
0.0000000001
 40
0.0
 40
0.0
 40
0.0
 40
0.0
 40
0.0714285714285714
 40
0.0714285714285714
 40
0.0714285714285714
 40
0.1428571428571428
 40
0.1428571428571428
 40
0.1428571428571428
 40
0.2142857142857143
 40
0.2142857142857143
 40
0.2142857142857143
 40
0.2857142857142857
 40
0.2857142857142857
 40
0.2857142857142857
 40
0.3571428571428571
 40
0.3571428571428571
 40
0.3571428571428571
 40
0.4285714285714285
 40
0.4285714285714285
 40
0.4285714285714285
 40
0.5
 40
0.5
 40
0.5
 40
0.5714285714285714
 40
0.5714285714285714
 40
0.5714285714285714
 40
0.6428571428571428
 40
0.6428571428571428
 40
0.6428571428571428
 40
0.7142857142857142
 40
0.7142857142857142
 40
0.7142857142857142
 40
0.7857142857142857
 40
0.7857142857142857
 40
0.7857142857142857
 40
0.8571428571428571
 40
0.8571428571428571
 40
0.8571428571428571
 40
0.9285714285714285
 40
0.9285714285714285
 40
0.9285714285714285
 40
1.0
 40
1.0
 40
1.0
 40
1.0
 10
-0.8901
 20
13.2505
 30
0.0
 10
-0.8901
 20
13.2505
 30
0.0
 10
-5.2662
 20
14.55
 30
0.0
 10
-5.2662
 20
14.55
 30
0.0
 10
-9.4312
 20
11.0168
 30
0.0
 10
-10.2048
 20
8.6415
 30
0.0
 10
-10.2073
 20
8.6341
 30
0.0
 10
-10.2073
 20
8.6341
 30
0.0
 10
-10.3706
 20
8.6248
 30
0.0
 10
-10.3706
 20
8.6248
 30
0.0
 10
-10.663
 20
9.2524
 30
0.0
 10
-10.8041
 20
11.8982
 30
0.0
 10
-10.8044
 20
11.9057
 30
0.0
 10
-10.8044
 20
11.9057
 30
0.0
 10
-10.7882
 20
11.9612
 30
0.0
 10
-10.7882
 20
11.9612
 30
0.0
 10
-9.6544
 20
13.5533
 30
0.0
 10
-8.3309
 20
14.5844
 30
0.0
 10
-7.3916
 20
15.1812
 30
0.0
 10
-7.3916
 20
15.1812
 30
0.0
 10
-13.0582
 20
16.864
 30
0.0
 10
-13.0582
 20
16.864
 30
0.0
 10
-13.0582
 20
16.864
 30
0.0
 10
-13.0582
 20
-2.4758
 30
0.0
 10
-13.0582
 20
-2.4758
 30
0.0
 10
-13.0582
 20
-2.4758
 30
0.0
 10
1.7748
 20
-8.1007
 30
0.0
 10
1.7748
 20
-8.1007
 30
0.0
 10
1.7748
 20
-8.1007
 30
0.0
 10
1.9088
 20
7.3354
 30
0.0
 10
1.9088
 20
7.3354
 30
0.0
 10
1.5698
 20
6.8644
 30
0.0
 10
1.3329
 20
6.5391
 30
0.0
 10
1.3312
 20
6.5368
 30
0.0
 10
1.3312
 20
6.5368
 30
0.0
 10
1.1723
 20
6.594
 30
0.0
 10
1.1723
 20
6.594
 30
0.0
 10
1.2547
 20
7.9557
 30
0.0
 10
0.8974
 20
9.3881
 30
0.0
 10
0.3731
 20
10.7043
 30
0.0
 10
0.0034
 20
11.6323
 30
0.0
 10
-0.4494
 20
12.5026
 30
0.0
 10
-0.8901
 20
13.2505
 30
0.0
  0
SPLINE
  5
66
330
1F
100
AcDbEntity
  8
Layer 1
 62
   250
100
AcDbSpline
210
0.0
220
0.0
230
1.0
 70
    11
 71
     3
 72
    29
 73
    25
 74
     0
 42
0.0000000001
 43
0.0000000001
 40
0.0
 40
0.0
 40
0.0
 40
0.0
 40
0.125
 40
0.125
 40
0.125
 40
0.25
 40
0.25
 40
0.25
 40
0.375
 40
0.375
 40
0.375
 40
0.5
 40
0.5
 40
0.5
 40
0.625
 40
0.625
 40
0.625
 40
0.75
 40
0.75
 40
0.75
 40
0.875
 40
0.875
 40
0.875
 40
1.0
 40
1.0
 40
1.0
 40
1.0
 10
16.7418
 20
16.9801
 30
0.0
 10
16.7418
 20
16.9801
 30
0.0
 10
2.5263
 20
12.5243
 30
0.0
 10
2.5263
 20
12.5243
 30
0.0
 10
3.3875
 20
11.0816
 30
0.0
 10
3.6574
 20
9.8747
 30
0.0
 10
3.6587
 20
9.8688
 30
0.0
 10
3.6587
 20
9.8688
 30
0.0
 10
3.667
 20
9.8318
 30
0.0
 10
3.667
 20
9.8318
 30
0.0
 10
3.667
 20
9.8318
 30
0.0
 10
3.6456
 20
9.8002
 30
0.0
 10
3.6456
 20
9.8002
 30
0.0
 10
3.1958
 20
9.1377
 30
0.0
 10
2.5895
 20
8.2841
 30
0.0
 10
2.1105
 20
7.6161
 30
0.0
 10
2.1105
 20
7.6161
 30
0.0
 10
1.9741
 20
-8.0992
 30
0.0
 10
1.9741
 20
-8.0992
 30
0.0
 10
1.9741
 20
-8.0992
 30
0.0
 10
16.7418
 20
-2.4596
 30
0.0
 10
16.7418
 20
-2.4596
 30
0.0
 10
16.7418
 20
-2.4596
 30
0.0
 10
16.7418
 20
16.9801
 30
0.0
 10
16.7418
 20
16.9801
 30
0.0
  0
SPLINE
  5
67
330
1F
100
AcDbEntity
  8
Layer 1
 62
   250
100
AcDbSpline
210
0.0
220
0.0
230
1.0
 70
    11
 71
     3
 72
    20
 73
    16
 74
     0
 42
0.0000000001
 43
0.0000000001
 40
0.0
 40
0.0
 40
0.0
 40
0.0
 40
0.2
 40
0.2
 40
0.2
 40
0.4
 40
0.4
 40
0.4
 40
0.6000000000000001
 40
0.6000000000000001
 40
0.6000000000000001
 40
0.8
 40
0.8
 40
0.8
 40
1.0
 40
1.0
 40
1.0
 40
1.0
 10
4.2657
 20
7.5966
 30
0.0
 10
4.2657
 20
7.5966
 30
0.0
 10
3.9136
 20
10.3571
 30
0.0
 10
7.904
 20
11.9231
 30
0.0
 10
7.904
 20
11.9231
 30
0.0
 10
11.4267
 20
13.7159
 30
0.0
 10
13.3187
 20
12.2046
 30
0.0
 10
13.3187
 20
12.2046
 30
0.0
 10
16.1017
 20
9.3682
 30
0.0
 10
11.581
 20
6.7863
 30
0.0
 10
11.581
 20
6.7863
 30
0.0
 10
8.2957
 20
5.1998
 30
0.0
 10
5.9906
 20
5.8821
 30
0.0
 10
5.9906
 20
5.8821
 30
0.0
 10
4.4286
 20
6.1054
 30
0.0
 10
4.2657
 20
7.5966
 30
0.0
  0
SPLINE
  5
68
330
1F
100
AcDbEntity
  8
Layer 1
 62
   250
100
AcDbSpline
210
0.0
220
0.0
230
1.0
 70
    11
 71
     3
 72
    17
 73
    13
 74
     0
 42
0.0000000001
 43
0.0000000001
 40
0.0
 40
0.0
 40
0.0
 40
0.0
 40
0.25
 40
0.25
 40
0.25
 40
0.5
 40
0.5
 40
0.5
 40
0.75
 40
0.75
 40
0.75
 40
1.0
 40
1.0
 40
1.0
 40
1.0
 10
7.5337
 20
7.3059
 30
0.0
 10
7.5337
 20
7.3059
 30
0.0
 10
9.5063
 20
7.2181
 30
0.0
 10
11.7501
 20
9.0377
 30
0.0
 10
11.7501
 20
9.0377
 30
0.0
 10
13.4416
 20
10.495
 30
0.0
 10
12.2255
 20
11.3406
 30
0.0
 10
12.2255
 20
11.3406
 30
0.0
 10
9.6683
 20
11.9943
 30
0.0
 10
7.113
 20
9.2201
 30
0.0
 10
7.113
 20
9.2201
 30
0.0
 10
5.7767
 20
7.3507
 30
0.0
 10
7.5337
 20
7.3059
 30
0.0
  0
SPLINE
  5
69
330
1F
100
AcDbEntity
  8
Layer 1
 62
   250
100
AcDbSpline
210
0.0
220
0.0
230
1.0
 70
    11
 71
     3
 72
    20
 73
    16
 74
     0
 42
0.0000000001
 43
0.0000000001
 40
0.0
 40
0.0
 40
0.0
 40
0.0
 40
0.2
 40
0.2
 40
0.2
 40
0.4
 40
0.4
 40
0.4
 40
0.6000000000000001
 40
0.6000000000000001
 40
0.6000000000000001
 40
0.8
 40
0.8
 40
0.8
 40
1.0
 40
1.0
 40
1.0
 40
1.0
 10
-9.9289
 20
8.1936
 30
0.0
 10
-9.9289
 20
8.1936
 30
0.0
 10
-8.5296
 20
10.5991
 30
0.0
 10
-4.4097
 20
9.4159
 30
0.0
 10
-4.4097
 20
9.4159
 30
0.0
 10
-0.5228
 20
8.697
 30
0.0
 10
0.0602
 20
6.3464
 30
0.0
 10
0.0602
 20
6.3464
 30
0.0
 10
0.5443
 20
2.4022
 30
0.0
 10
-4.6145
 20
3.1019
 30
0.0
 10
-4.6145
 20
3.1019
 30
0.0
 10
-8.187
 20
3.8403
 30
0.0
 10
-9.6022
 20
5.7837
 30
0.0
 10
-9.6022
 20
5.7837
 30
0.0
 10
-10.7063
 20
6.9109
 30
0.0
 10
-9.9289
 20
8.1936
 30
0.0
  0
SPLINE
  5
6A
330
1F
100
AcDbEntity
  8
Layer 1
 62
   250
100
AcDbSpline
210
0.0
220
0.0
230
1.0
 70
    11
 71
     3
 72
    17
 73
    13
 74
     0
 42
0.0000000001
 43
0.0000000001
 40
0.0
 40
0.0
 40
0.0
 40
0.0
 40
0.25
 40
0.25
 40
0.25
 40
0.5
 40
0.5
 40
0.5
 40
0.75
 40
0.75
 40
0.75
 40
1.0
 40
1.0
 40
1.0
 40
1.0
 10
-7.5208
 20
6.0589
 30
0.0
 10
-7.5208
 20
6.0589
 30
0.0
 10
-6.0453
 20
4.7466
 30
0.0
 10
-3.1561
 20
4.7438
 30
0.0
 10
-3.1561
 20
4.7438
 30
0.0
 10
-0.9244
 20
4.8079
 30
0.0
 10
-1.3352
 20
6.2314
 30
0.0
 10
-1.3352
 20
6.2314
 30
0.0
 10
-2.9077
 20
8.3512
 30
0.0
 10
-6.6401
 20
7.8097
 30
0.0
 10
-6.6401
 20
7.8097
 30
0.0
 10
-8.8561
 20
7.2015
 30
0.0
 10
-7.5208
 20
6.0589
 30
0.0
  0
SPLINE
  5
6B
330
1F
100
AcDbEntity
  8
Layer 1
 62
   250
100
AcDbSpline
210
0.0
220
0.0
230
1.0
 70
    11
 71
     3
 72
    86
 73
    82
 74
     0
 42
0.0000000001
 43
0.0000000001
 40
0.0
 40
0.0
 40
0.0
 40
0.0
 40
0.037037037037037
 40
0.037037037037037
 40
0.037037037037037
 40
0.0740740740740741
 40
0.0740740740740741
 40
0.0740740740740741
 40
0.1111111111111111
 40
0.1111111111111111
 40
0.1111111111111111
 40
0.1481481481481481
 40
0.1481481481481481
 40
0.1481481481481481
 40
0.1851851851851852
 40
0.1851851851851852
 40
0.1851851851851852
 40
0.2222222222222222
 40
0.2222222222222222
 40
0.2222222222222222
 40
0.2592592592592592
 40
0.2592592592592592
 40
0.2592592592592592
 40
0.2962962962962963
 40
0.2962962962962963
 40
0.2962962962962963
 40
0.3333333333333333
 40
0.3333333333333333
 40
0.3333333333333333
 40
0.3703703703703703
 40
0.3703703703703703
 40
0.3703703703703703
 40
0.4074074074074074
 40
0.4074074074074074
 40
0.4074074074074074
 40
0.4444444444444444
 40
0.4444444444444444
 40
0.4444444444444444
 40
0.4814814814814815
 40
0.4814814814814815
 40
0.4814814814814815
 40
0.5185185185185185
 40
0.5185185185185185
 40
0.5185185185185185
 40
0.5555555555555556
 40
0.5555555555555556
 40
0.5555555555555556
 40
0.5925925925925926
 40
0.5925925925925926
 40
0.5925925925925926
 40
0.6296296296296295
 40
0.6296296296296295
 40
0.6296296296296295
 40
0.6666666666666666
 40
0.6666666666666666
 40
0.6666666666666666
 40
0.7037037037037037
 40
0.7037037037037037
 40
0.7037037037037037
 40
0.7407407407407407
 40
0.7407407407407407
 40
0.7407407407407407
 40
0.7777777777777777
 40
0.7777777777777777
 40
0.7777777777777777
 40
0.8148148148148148
 40
0.8148148148148148
 40
0.8148148148148148
 40
0.8518518518518519
 40
0.8518518518518519
 40
0.8518518518518519
 40
0.8888888888888888
 40
0.8888888888888888
 40
0.8888888888888888
 40
0.9259259259259258
 40
0.9259259259259258
 40
0.9259259259259258
 40
0.9629629629629629
 40
0.9629629629629629
 40
0.9629629629629629
 40
1.0
 40
1.0
 40
1.0
 40
1.0
 10
14.9437
 20
-0.5135
 30
0.0
 10
15.0327
 20
-0.5825
 30
0.0
 10
15.0907
 20
-0.6636
 30
0.0
 10
15.1167
 20
-0.7566
 30
0.0
 10
15.1424
 20
-0.8488
 30
0.0
 10
15.1366
 20
-0.9517
 30
0.0
 10
15.099
 20
-1.0649
 30
0.0
 10
15.099
 20
-1.0649
 30
0.0
 10
15.0986
 20
-1.0662
 30
0.0
 10
15.0986
 20
-1.0662
 30
0.0
 10
15.0565
 20
-1.1786
 30
0.0
 10
14.9981
 20
-1.2862
 30
0.0
 10
14.924
 20
-1.3884
 30
0.0
 10
14.8501
 20
-1.4903
 30
0.0
 10
14.7598
 20
-1.5877
 30
0.0
 10
14.6542
 20
-1.6798
 30
0.0
 10
14.4837
 20
-1.8279
 30
0.0
 10
14.189
 20
-1.9489
 30
0.0
 10
13.8368
 20
-2.0932
 30
0.0
 10
13.8368
 20
-2.0932
 30
0.0
 10
13.5667
 20
-2.2052
 30
0.0
 10
13.5667
 20
-2.2052
 30
0.0
 10
12.6265
 20
-2.638
 30
0.0
 10
11.6159
 20
-2.9773
 30
0.0
 10
10.2774
 20
-3.4266
 30
0.0
 10
10.2774
 20
-3.4266
 30
0.0
 10
10.0991
 20
-3.4864
 30
0.0
 10
10.0991
 20
-3.4864
 30
0.0
 10
9.7266
 20
-3.6012
 30
0.0
 10
9.3718
 20
-3.7182
 30
0.0
 10
9.0412
 20
-3.827
 30
0.0
 10
8.1614
 20
-4.1168
 30
0.0
 10
7.4529
 20
-4.3501
 30
0.0
 10
6.8723
 20
-4.3877
 30
0.0
 10
6.707
 20
-4.4009
 30
0.0
 10
6.5574
 20
-4.3918
 30
0.0
 10
6.4244
 20
-4.3602
 30
0.0
 10
6.29
 20
-4.3283
 30
0.0
 10
6.1718
 20
-4.2734
 30
0.0
 10
6.0702
 20
-4.1958
 30
0.0
 10
5.9596
 20
-4.1114
 30
0.0
 10
5.8981
 20
-4.0137
 30
0.0
 10
5.8862
 20
-3.9032
 30
0.0
 10
5.8746
 20
-3.7946
 30
0.0
 10
5.9114
 20
-3.6755
 30
0.0
 10
5.9968
 20
-3.5463
 30
0.0
 10
6.0795
 20
-3.4212
 30
0.0
 10
6.2004
 20
-3.2966
 30
0.0
 10
6.3592
 20
-3.1731
 30
0.0
 10
6.5163
 20
-3.0509
 30
0.0
 10
6.7124
 20
-2.9282
 30
0.0
 10
6.9469
 20
-2.8055
 30
0.0
 10
7.2927
 20
-2.6249
 30
0.0
 10
7.6851
 20
-2.4404
 30
0.0
 10
8.1242
 20
-2.2523
 30
0.0
 10
8.5637
 20
-2.0641
 30
0.0
 10
9.0515
 20
-1.8714
 30
0.0
 10
9.5876
 20
-1.6744
 30
0.0
 10
10.1284
 20
-1.4757
 30
0.0
 10
10.6958
 20
-1.2805
 30
0.0
 10
11.2902
 20
-1.089
 30
0.0
 10
11.8845
 20
-0.8976
 30
0.0
 10
12.5057
 20
-0.7097
 30
0.0
 10
13.1543
 20
-0.5255
 30
0.0
 10
13.4172
 20
-0.4496
 30
0.0
 10
13.6531
 20
-0.3951
 30
0.0
 10
13.8612
 20
-0.3624
 30
0.0
 10
14.0706
 20
-0.3295
 30
0.0
 10
14.252
 20
-0.3186
 30
0.0
 10
14.4047
 20
-0.3296
 30
0.0
 10
14.4047
 20
-0.3296
 30
0.0
 10
14.4059
 20
-0.3298
 30
0.0
 10
14.4059
 20
-0.3298
 30
0.0
 10
14.5065
 20
-0.3402
 30
0.0
 10
14.6006
 20
-0.3599
 30
0.0
 10
14.6878
 20
-0.3888
 30
0.0
 10
14.7753
 20
-0.4178
 30
0.0
 10
14.8561
 20
-0.4564
 30
0.0
 10
14.9292
 20
-0.5039
 30
0.0
 10
14.9292
 20
-0.5039
 30
0.0
 10
14.9437
 20
-0.5135
 30
0.0
 10
14.9437
 20
-0.5135
 30
0.0
  0
SPLINE
  5
6C
330
1F
100
AcDbEntity
  8
Layer 1
 62
   250
100
AcDbSpline
210
0.0
220
0.0
230
1.0
 70
    11
 71
     3
 72
   278
 73
   274
 74
     0
 42
0.0000000001
 43
0.0000000001
 40
0.0
 40
0.0
 40
0.0
 40
0.0
 40
0.010989010989011
 40
0.010989010989011
 40
0.010989010989011
 40
0.021978021978022
 40
0.021978021978022
 40
0.021978021978022
 40
0.032967032967033
 40
0.032967032967033
 40
0.032967032967033
 40
0.043956043956044
 40
0.043956043956044
 40
0.043956043956044
 40
0.054945054945055
 40
0.054945054945055
 40
0.054945054945055
 40
0.0659340659340659
 40
0.0659340659340659
 40
0.0659340659340659
 40
0.0769230769230769
 40
0.0769230769230769
 40
0.0769230769230769
 40
0.0879120879120879
 40
0.0879120879120879
 40
0.0879120879120879
 40
0.0989010989010989
 40
0.0989010989010989
 40
0.0989010989010989
 40
0.1098901098901099
 40
0.1098901098901099
 40
0.1098901098901099
 40
0.1208791208791209
 40
0.1208791208791209
 40
0.1208791208791209
 40
0.1318681318681319
 40
0.1318681318681319
 40
0.1318681318681319
 40
0.1428571428571429
 40
0.1428571428571429
 40
0.1428571428571429
 40
0.1538461538461539
 40
0.1538461538461539
 40
0.1538461538461539
 40
0.1648351648351649
 40
0.1648351648351649
 40
0.1648351648351649
 40
0.1758241758241758
 40
0.1758241758241758
 40
0.1758241758241758
 40
0.1868131868131868
 40
0.1868131868131868
 40
0.1868131868131868
 40
0.1978021978021978
 40
0.1978021978021978
 40
0.1978021978021978
 40
0.2087912087912088
 40
0.2087912087912088
 40
0.2087912087912088
 40
0.2197802197802198
 40
0.2197802197802198
 40
0.2197802197802198
 40
0.2307692307692308
 40
0.2307692307692308
 40
0.2307692307692308
 40
0.2417582417582418
 40
0.2417582417582418
 40
0.2417582417582418
 40
0.2527472527472528
 40
0.2527472527472528
 40
0.2527472527472528
 40
0.2637362637362637
 40
0.2637362637362637
 40
0.2637362637362637
 40
0.2747252747252747
 40
0.2747252747252747
 40
0.2747252747252747
 40
0.2857142857142858
 40
0.2857142857142858
 40
0.2857142857142858
 40
0.2967032967032967
 40
0.2967032967032967
 40
0.2967032967032967
 40
0.3076923076923077
 40
0.3076923076923077
 40
0.3076923076923077
 40
0.3186813186813187
 40
0.3186813186813187
 40
0.3186813186813187
 40
0.3296703296703297
 40
0.3296703296703297
 40
0.3296703296703297
 40
0.3406593406593407
 40
0.3406593406593407
 40
0.3406593406593407
 40
0.3516483516483517
 40
0.3516483516483517
 40
0.3516483516483517
 40
0.3626373626373627
 40
0.3626373626373627
 40
0.3626373626373627
 40
0.3736263736263736
 40
0.3736263736263736
 40
0.3736263736263736
 40
0.3846153846153846
 40
0.3846153846153846
 40
0.3846153846153846
 40
0.3956043956043956
 40
0.3956043956043956
 40
0.3956043956043956
 40
0.4065934065934066
 40
0.4065934065934066
 40
0.4065934065934066
 40
0.4175824175824176
 40
0.4175824175824176
 40
0.4175824175824176
 40
0.4285714285714286
 40
0.4285714285714286
 40
0.4285714285714286
 40
0.4395604395604396
 40
0.4395604395604396
 40
0.4395604395604396
 40
0.4505494505494506
 40
0.4505494505494506
 40
0.4505494505494506
 40
0.4615384615384616
 40
0.4615384615384616
 40
0.4615384615384616
 40
0.4725274725274726
 40
0.4725274725274726
 40
0.4725274725274726
 40
0.4835164835164836
 40
0.4835164835164836
 40
0.4835164835164836
 40
0.4945054945054945
 40
0.4945054945054945
 40
0.4945054945054945
 40
0.5054945054945056
 40
0.5054945054945056
 40
0.5054945054945056
 40
0.5164835164835165
 40
0.5164835164835165
 40
0.5164835164835165
 40
0.5274725274725275
 40
0.5274725274725275
 40
0.5274725274725275
 40
0.5384615384615385
 40
0.5384615384615385
 40
0.5384615384615385
 40
0.5494505494505495
 40
0.5494505494505495
 40
0.5494505494505495
 40
0.5604395604395604
 40
0.5604395604395604
 40
0.5604395604395604
 40
0.5714285714285715
 40
0.5714285714285715
 40
0.5714285714285715
 40
0.5824175824175825
 40
0.5824175824175825
 40
0.5824175824175825
 40
0.5934065934065934
 40
0.5934065934065934
 40
0.5934065934065934
 40
0.6043956043956045
 40
0.6043956043956045
 40
0.6043956043956045
 40
0.6153846153846154
 40
0.6153846153846154
 40
0.6153846153846154
 40
0.6263736263736264
 40
0.6263736263736264
 40
0.6263736263736264
 40
0.6373626373626374
 40
0.6373626373626374
 40
0.6373626373626374
 40
0.6483516483516484
 40
0.6483516483516484
 40
0.6483516483516484
 40
0.6593406593406594
 40
0.6593406593406594
 40
0.6593406593406594
 40
0.6703296703296704
 40
0.6703296703296704
 40
0.6703296703296704
 40
0.6813186813186813
 40
0.6813186813186813
 40
0.6813186813186813
 40
0.6923076923076924
 40
0.6923076923076924
 40
0.6923076923076924
 40
0.7032967032967034
 40
0.7032967032967034
 40
0.7032967032967034
 40
0.7142857142857143
 40
0.7142857142857143
 40
0.7142857142857143
 40
0.7252747252747254
 40
0.7252747252747254
 40
0.7252747252747254
 40
0.7362637362637363
 40
0.7362637362637363
 40
0.7362637362637363
 40
0.7472527472527473
 40
0.7472527472527473
 40
0.7472527472527473
 40
0.7582417582417583
 40
0.7582417582417583
 40
0.7582417582417583
 40
0.7692307692307693
 40
0.7692307692307693
 40
0.7692307692307693
 40
0.7802197802197803
 40
0.7802197802197803
 40
0.7802197802197803
 40
0.7912087912087913
 40
0.7912087912087913
 40
0.7912087912087913
 40
0.8021978021978022
 40
0.8021978021978022
 40
0.8021978021978022
 40
0.8131868131868133
 40
0.8131868131868133
 40
0.8131868131868133
 40
0.8241758241758242
 40
0.8241758241758242
 40
0.8241758241758242
 40
0.8351648351648352
 40
0.8351648351648352
 40
0.8351648351648352
 40
0.8461538461538463
 40
0.8461538461538463
 40
0.8461538461538463
 40
0.8571428571428572
 40
0.8571428571428572
 40
0.8571428571428572
 40
0.8681318681318682
 40
0.8681318681318682
 40
0.8681318681318682
 40
0.8791208791208792
 40
0.8791208791208792
 40
0.8791208791208792
 40
0.8901098901098902
 40
0.8901098901098902
 40
0.8901098901098902
 40
0.9010989010989011
 40
0.9010989010989011
 40
0.9010989010989011
 40
0.9120879120879122
 40
0.9120879120879122
 40
0.9120879120879122
 40
0.9230769230769231
 40
0.9230769230769231
 40
0.9230769230769231
 40
0.9340659340659342
 40
0.9340659340659342
 40
0.9340659340659342
 40
0.9450549450549451
 40
0.9450549450549451
 40
0.9450549450549451
 40
0.9560439560439561
 40
0.9560439560439561
 40
0.9560439560439561
 40
0.9670329670329672
 40
0.9670329670329672
 40
0.9670329670329672
 40
0.9780219780219781
 40
0.9780219780219781
 40
0.9780219780219781
 40
0.989010989010989
 40
0.989010989010989
 40
0.989010989010989
 40
1.0
 40
1.0
 40
1.0
 40
1.0
 10
11.8432
 20
0.5899
 30
0.0
 10
11.8432
 20
0.5899
 30
0.0
 10
10.5228
 20
0.1379
 30
0.0
 10
10.5228
 20
0.1379
 30
0.0
 10
10.5228
 20
0.1379
 30
0.0
 10
8.8481
 20
-0.4029
 30
0.0
 10
8.8481
 20
-0.4029
 30
0.0
 10
8.5503
 20
-0.5032
 30
0.0
 10
8.2838
 20
-0.589
 30
0.0
 10
8.0488
 20
-0.6601
 30
0.0
 10
7.812
 20
-0.7318
 30
0.0
 10
7.6019
 20
-0.7903
 30
0.0
 10
7.4188
 20
-0.8353
 30
0.0
 10
7.2921
 20
-0.8663
 30
0.0
 10
7.1873
 20
-0.896
 30
0.0
 10
7.1045
 20
-0.9241
 30
0.0
 10
7.024
 20
-0.9515
 30
0.0
 10
6.9654
 20
-0.9774
 30
0.0
 10
6.9294
 20
-1.0011
 30
0.0
 10
6.8844
 20
-1.0308
 30
0.0
 10
6.8486
 20
-1.0743
 30
0.0
 10
6.8227
 20
-1.1314
 30
0.0
 10
6.7955
 20
-1.1909
 30
0.0
 10
6.7786
 20
-1.2655
 30
0.0
 10
6.7722
 20
-1.355
 30
0.0
 10
6.7701
 20
-1.4191
 30
0.0
 10
6.7609
 20
-1.473
 30
0.0
 10
6.7445
 20
-1.516
 30
0.0
 10
6.7266
 20
-1.5632
 30
0.0
 10
6.6998
 20
-1.5985
 30
0.0
 10
6.6645
 20
-1.6217
 30
0.0
 10
6.6209
 20
-1.6503
 30
0.0
 10
6.5577
 20
-1.6584
 30
0.0
 10
6.4753
 20
-1.6462
 30
0.0
 10
6.4001
 20
-1.635
 30
0.0
 10
6.3059
 20
-1.6062
 30
0.0
 10
6.1932
 20
-1.5603
 30
0.0
 10
6.094
 20
-1.5243
 30
0.0
 10
5.9933
 20
-1.4825
 30
0.0
 10
5.8915
 20
-1.4349
 30
0.0
 10
5.7906
 20
-1.3879
 30
0.0
 10
5.6871
 20
-1.3344
 30
0.0
 10
5.5817
 20
-1.2748
 30
0.0
 10
5.5014
 20
-1.2297
 30
0.0
 10
5.3939
 20
-1.1449
 30
0.0
 10
5.2865
 20
-1.0521
 30
0.0
 10
5.1112
 20
-0.9007
 30
0.0
 10
4.9341
 20
-0.7255
 30
0.0
 10
4.8769
 20
-0.6662
 30
0.0
 10
4.8
 20
-0.5864
 30
0.0
 10
4.8902
 20
-0.4472
 30
0.0
 10
5.0549
 20
-0.2884
 30
0.0
 10
5.2441
 20
-0.1061
 30
0.0
 10
5.5332
 20
0.1107
 30
0.0
 10
5.7629
 20
0.2829
 30
0.0
 10
5.9255
 20
0.4047
 30
0.0
 10
6.0582
 20
0.5042
 30
0.0
 10
6.1003
 20
0.5498
 30
0.0
 10
6.1639
 20
0.6159
 30
0.0
 10
6.4134
 20
0.7932
 30
0.0
 10
6.7467
 20
1.0298
 30
0.0
 10
7.405
 20
1.4973
 30
0.0
 10
8.3932
 20
2.1993
 30
0.0
 10
8.8939
 20
2.7103
 30
0.0
 10
9.023
 20
2.8426
 30
0.0
 10
9.1603
 20
2.9669
 30
0.0
 10
9.2955
 20
3.0892
 30
0.0
 10
9.479
 20
3.2553
 30
0.0
 10
9.6594
 20
3.4186
 30
0.0
 10
9.8144
 20
3.599
 30
0.0
 10
9.9571
 20
3.7648
 30
0.0
 10
10.091
 20
3.8799
 30
0.0
 10
10.2006
 20
3.9741
 30
0.0
 10
10.2976
 20
4.0575
 30
0.0
 10
10.3753
 20
4.1244
 30
0.0
 10
10.4196
 20
4.193
 30
0.0
 10
10.4196
 20
4.193
 30
0.0
 10
10.4215
 20
4.1957
 30
0.0
 10
10.4215
 20
4.1957
 30
0.0
 10
10.4408
 20
4.2206
 30
0.0
 10
10.4667
 20
4.2605
 30
0.0
 10
10.499
 20
4.3147
 30
0.0
 10
10.499
 20
4.3147
 30
0.0
 10
10.5658
 20
4.4308
 30
0.0
 10
10.5658
 20
4.4308
 30
0.0
 10
10.3711
 20
4.3508
 30
0.0
 10
10.1544
 20
4.2594
 30
0.0
 10
9.9161
 20
4.1571
 30
0.0
 10
9.6304
 20
4.0346
 30
0.0
 10
9.3202
 20
3.8988
 30
0.0
 10
8.9862
 20
3.7506
 30
0.0
 10
8.5774
 20
3.5633
 30
0.0
 10
8.1635
 20
3.355
 30
0.0
 10
7.7864
 20
3.1653
 30
0.0
 10
7.1958
 20
2.8682
 30
0.0
 10
6.6937
 20
2.6155
 30
0.0
 10
6.4304
 20
2.5542
 30
0.0
 10
6.3615
 20
2.5376
 30
0.0
 10
6.295
 20
2.5242
 30
0.0
 10
6.2317
 20
2.5146
 30
0.0
 10
6.1673
 20
2.5048
 30
0.0
 10
6.1038
 20
2.4981
 30
0.0
 10
6.0417
 20
2.4949
 30
0.0
 10
6.0417
 20
2.4949
 30
0.0
 10
6.0398
 20
2.4949
 30
0.0
 10
6.0398
 20
2.4949
 30
0.0
 10
5.9343
 20
2.4945
 30
0.0
 10
5.8344
 20
2.5008
 30
0.0
 10
5.7411
 20
2.514
 30
0.0
 10
5.6466
 20
2.5273
 30
0.0
 10
5.5579
 20
2.5476
 30
0.0
 10
5.4757
 20
2.5746
 30
0.0
 10
5.394
 20
2.6015
 30
0.0
 10
5.3199
 20
2.6347
 30
0.0
 10
5.254
 20
2.6738
 30
0.0
 10
5.1875
 20
2.7132
 30
0.0
 10
5.1292
 20
2.7589
 30
0.0
 10
5.0795
 20
2.8104
 30
0.0
 10
5.0442
 20
2.847
 30
0.0
 10
4.9732
 20
2.9355
 30
0.0
 10
4.9285
 20
3.0126
 30
0.0
 10
4.8938
 20
3.0724
 30
0.0
 10
4.8739
 20
3.1301
 30
0.0
 10
4.8913
 20
3.1658
 30
0.0
 10
4.9068
 20
3.1979
 30
0.0
 10
4.9355
 20
3.2336
 30
0.0
 10
4.9772
 20
3.2723
 30
0.0
 10
5.0168
 20
3.3093
 30
0.0
 10
5.0692
 20
3.3504
 30
0.0
 10
5.1335
 20
3.3949
 30
0.0
 10
5.181
 20
3.4276
 30
0.0
 10
5.2239
 20
3.4553
 30
0.0
 10
5.2618
 20
3.478
 30
0.0
 10
5.2996
 20
3.5006
 30
0.0
 10
5.3326
 20
3.5183
 30
0.0
 10
5.3602
 20
3.5304
 30
0.0
 10
5.51
 20
3.6073
 30
0.0
 10
5.9862
 20
3.8074
 30
0.0
 10
6.3405
 20
3.9562
 30
0.0
 10
6.3405
 20
3.9562
 30
0.0
 10
6.6018
 20
4.0662
 30
0.0
 10
6.6018
 20
4.0662
 30
0.0
 10
6.7661
 20
4.1358
 30
0.0
 10
6.9548
 20
4.2136
 30
0.0
 10
7.1674
 20
4.2992
 30
0.0
 10
7.3742
 20
4.3825
 30
0.0
 10
7.6091
 20
4.4754
 30
0.0
 10
7.8715
 20
4.5776
 30
0.0
 10
8.1469
 20
4.6849
 30
0.0
 10
8.4418
 20
4.7988
 30
0.0
 10
8.7554
 20
4.9187
 30
0.0
 10
8.7554
 20
4.9187
 30
0.0
 10
9.8228
 20
5.3239
 30
0.0
 10
9.8228
 20
5.3239
 30
0.0
 10
9.8228
 20
5.3239
 30
0.0
 10
10.063
 20
5.4089
 30
0.0
 10
10.063
 20
5.4089
 30
0.0
 10
10.063
 20
5.4089
 30
0.0
 10
10.199
 20
5.4625
 30
0.0
 10
10.199
 20
5.4625
 30
0.0
 10
10.199
 20
5.4625
 30
0.0
 10
10.3101
 20
5.5038
 30
0.0
 10
10.3101
 20
5.5038
 30
0.0
 10
11.0398
 20
5.7843
 30
0.0
 10
11.6509
 20
6.0095
 30
0.0
 10
12.1405
 20
6.178
 30
0.0
 10
12.6331
 20
6.3475
 30
0.0
 10
13.0087
 20
6.4623
 30
0.0
 10
13.2642
 20
6.5206
 30
0.0
 10
13.3185
 20
6.5331
 30
0.0
 10
13.373
 20
6.5436
 30
0.0
 10
13.4272
 20
6.5516
 30
0.0
 10
13.4815
 20
6.5596
 30
0.0
 10
13.5363
 20
6.5656
 30
0.0
 10
13.5912
 20
6.569
 30
0.0
 10
13.6874
 20
6.5754
 30
0.0
 10
13.7699
 20
6.5724
 30
0.0
 10
13.8381
 20
6.5597
 30
0.0
 10
13.9097
 20
6.5464
 30
0.0
 10
13.9666
 20
6.5222
 30
0.0
 10
14.0081
 20
6.4875
 30
0.0
 10
14.0081
 20
6.4875
 30
0.0
 10
14.0439
 20
6.4579
 30
0.0
 10
14.0439
 20
6.4579
 30
0.0
 10
14.2356
 20
6.3016
 30
0.0
 10
14.4231
 20
6.1486
 30
0.0
 10
14.053
 20
5.5726
 30
0.0
 10
13.6504
 20
4.9377
 30
0.0
 10
12.543
 20
4.0824
 30
0.0
 10
11.5233
 20
3.2949
 30
0.0
 10
10.8363
 20
2.7645
 30
0.0
 10
10.1888
 20
2.2643
 30
0.0
 10
9.8278
 20
1.8867
 30
0.0
 10
9.7222
 20
1.771
 30
0.0
 10
9.1087
 20
1.2874
 30
0.0
 10
8.6306
 20
0.9107
 30
0.0
 10
8.6306
 20
0.9107
 30
0.0
 10
8.2541
 20
0.6131
 30
0.0
 10
8.2541
 20
0.6131
 30
0.0
 10
9.0536
 20
0.933
 30
0.0
 10
9.7346
 20
1.1968
 30
0.0
 10
10.5434
 20
1.4711
 30
0.0
 10
10.5434
 20
1.4711
 30
0.0
 10
10.6183
 20
1.5025
 30
0.0
 10
10.6183
 20
1.5025
 30
0.0
 10
10.6183
 20
1.5025
 30
0.0
 10
10.8193
 20
1.5741
 30
0.0
 10
10.8193
 20
1.5741
 30
0.0
 10
10.9617
 20
1.6293
 30
0.0
 10
11.1019
 20
1.6747
 30
0.0
 10
11.248
 20
1.7197
 30
0.0
 10
11.4751
 20
1.8052
 30
0.0
 10
11.6753
 20
1.8787
 30
0.0
 10
11.8477
 20
1.9401
 30
0.0
 10
12.0234
 20
2.0026
 30
0.0
 10
12.1736
 20
2.0539
 30
0.0
 10
12.2977
 20
2.0936
 30
0.0
 10
12.4214
 20
2.1329
 30
0.0
 10
12.5362
 20
2.1668
 30
0.0
 10
12.6418
 20
2.1949
 30
0.0
 10
12.7485
 20
2.2233
 30
0.0
 10
12.8475
 20
2.2464
 30
0.0
 10
12.938
 20
2.2639
 30
0.0
 10
13.0216
 20
2.2825
 30
0.0
 10
13.1129
 20
2.298
 30
0.0
 10
13.2117
 20
2.3101
 30
0.0
 10
13.3109
 20
2.3221
 30
0.0
 10
13.4187
 20
2.3311
 30
0.0
 10
13.5344
 20
2.3368
 30
0.0
 10
13.5344
 20
2.3368
 30
0.0
 10
13.5359
 20
2.3368
 30
0.0
 10
13.5359
 20
2.3368
 30
0.0
 10
13.6955
 20
2.3382
 30
0.0
 10
13.8497
 20
2.3302
 30
0.0
 10
13.9977
 20
2.3127
 30
0.0
 10
14.1464
 20
2.2951
 30
0.0
 10
14.2897
 20
2.2679
 30
0.0
 10
14.4271
 20
2.2311
 30
0.0
 10
14.5657
 20
2.1941
 30
0.0
 10
14.6917
 20
2.1482
 30
0.0
 10
14.8045
 20
2.0938
 30
0.0
 10
14.9178
 20
2.0392
 30
0.0
 10
15.0179
 20
1.9757
 30
0.0
 10
15.1042
 20
1.9038
 30
0.0
 10
15.1385
 20
1.8753
 30
0.0
 10
15.1651
 20
1.8464
 30
0.0
 10
15.1836
 20
1.8176
 30
0.0
 10
15.2082
 20
1.7795
 30
0.0
 10
15.2192
 20
1.7411
 30
0.0
 10
15.2166
 20
1.7028
 30
0.0
 10
15.214
 20
1.6646
 30
0.0
 10
15.1977
 20
1.6276
 30
0.0
 10
15.1683
 20
1.5923
 30
0.0
 10
15.1448
 20
1.5641
 30
0.0
 10
15.112
 20
1.5364
 30
0.0
 10
15.0706
 20
1.5097
 30
0.0
 10
15.0071
 20
1.4688
 30
0.0
 10
14.9057
 20
1.4269
 30
0.0
 10
14.7668
 20
1.3846
 30
0.0
 10
14.6302
 20
1.3429
 30
0.0
 10
14.4564
 20
1.2999
 30
0.0
 10
14.246
 20
1.2564
 30
0.0
 10
14.0092
 20
1.2081
 30
0.0
 10
13.7368
 20
1.1431
 30
0.0
 10
13.4297
 20
1.0621
 30
0.0
 10
13.1236
 20
0.9814
 30
0.0
 10
12.7825
 20
0.8842
 30
0.0
 10
12.4072
 20
0.7711
 30
0.0
 10
12.334
 20
0.745
 30
0.0
 10
12.2492
 20
0.7164
 30
0.0
 10
12.1534
 20
0.6857
 30
0.0
 10
12.0569
 20
0.6548
 30
0.0
 10
11.9533
 20
0.6228
 30
0.0
 10
11.8432
 20
0.5899
 30
0.0
  0
SPLINE
  5
6D
330
1F
100
AcDbEntity
  8
Layer 1
 62
   250
100
AcDbSpline
210
0.0
220
0.0
230
1.0
 70
    11
 71
     3
 72
    95
 73
    91
 74
     0
 42
0.0000000001
 43
0.0000000001
 40
0.0
 40
0.0
 40
0.0
 40
0.0
 40
0.0333333333333333
 40
0.0333333333333333
 40
0.0333333333333333
 40
0.0666666666666667
 40
0.0666666666666667
 40
0.0666666666666667
 40
0.1
 40
0.1
 40
0.1
 40
0.1333333333333333
 40
0.1333333333333333
 40
0.1333333333333333
 40
0.1666666666666667
 40
0.1666666666666667
 40
0.1666666666666667
 40
0.2
 40
0.2
 40
0.2
 40
0.2333333333333333
 40
0.2333333333333333
 40
0.2333333333333333
 40
0.2666666666666667
 40
0.2666666666666667
 40
0.2666666666666667
 40
0.3
 40
0.3
 40
0.3
 40
0.3333333333333333
 40
0.3333333333333333
 40
0.3333333333333333
 40
0.3666666666666666
 40
0.3666666666666666
 40
0.3666666666666666
 40
0.4
 40
0.4
 40
0.4
 40
0.4333333333333333
 40
0.4333333333333333
 40
0.4333333333333333
 40
0.4666666666666667
 40
0.4666666666666667
 40
0.4666666666666667
 40
0.5
 40
0.5
 40
0.5
 40
0.5333333333333333
 40
0.5333333333333333
 40
0.5333333333333333
 40
0.5666666666666667
 40
0.5666666666666667
 40
0.5666666666666667
 40
0.6
 40
0.6
 40
0.6
 40
0.6333333333333333
 40
0.6333333333333333
 40
0.6333333333333333
 40
0.6666666666666666
 40
0.6666666666666666
 40
0.6666666666666666
 40
0.7
 40
0.7
 40
0.7
 40
0.7333333333333333
 40
0.7333333333333333
 40
0.7333333333333333
 40
0.7666666666666666
 40
0.7666666666666666
 40
0.7666666666666666
 40
0.8
 40
0.8
 40
0.8
 40
0.8333333333333334
 40
0.8333333333333334
 40
0.8333333333333334
 40
0.8666666666666667
 40
0.8666666666666667
 40
0.8666666666666667
 40
0.9
 40
0.9
 40
0.9
 40
0.9333333333333333
 40
0.9333333333333333
 40
0.9333333333333333
 40
0.9666666666666667
 40
0.9666666666666667
 40
0.9666666666666667
 40
1.0
 40
1.0
 40
1.0
 40
1.0
 10
-5.6377
 20
-1.9619
 30
0.0
 10
-5.6377
 20
-1.9619
 30
0.0
 10
-5.4485
 20
-2.0409
 30
0.0
 10
-5.4485
 20
-2.0409
 30
0.0
 10
-5.1039
 20
-2.1916
 30
0.0
 10
-4.7929
 20
-2.3323
 30
0.0
 10
-4.5157
 20
-2.4626
 30
0.0
 10
-4.237
 20
-2.5937
 30
0.0
 10
-3.9932
 20
-2.714
 30
0.0
 10
-3.7847
 20
-2.8232
 30
0.0
 10
-3.5763
 20
-2.9323
 30
0.0
 10
-3.3867
 20
-3.0391
 30
0.0
 10
-3.2167
 20
-3.1431
 30
0.0
 10
-3.0438
 20
-3.2488
 30
0.0
 10
-2.8899
 20
-3.3519
 30
0.0
 10
-2.7557
 20
-3.4522
 30
0.0
 10
-2.6718
 20
-3.5117
 30
0.0
 10
-2.5881
 20
-3.5802
 30
0.0
 10
-2.5054
 20
-3.6573
 30
0.0
 10
-2.4445
 20
-3.714
 30
0.0
 10
-2.3837
 20
-3.7757
 30
0.0
 10
-2.3234
 20
-3.8421
 30
0.0
 10
-2.1936
 20
-3.7105
 30
0.0
 10
-2.0813
 20
-3.5943
 30
0.0
 10
-1.9874
 20
-3.494
 30
0.0
 10
-1.881
 20
-3.3807
 30
0.0
 10
-1.7983
 20
-3.2874
 30
0.0
 10
-1.74
 20
-3.2151
 30
0.0
 10
-1.6834
 20
-3.1454
 30
0.0
 10
-1.6331
 20
-3.0744
 30
0.0
 10
-1.589
 20
-3.002
 30
0.0
 10
-1.5454
 20
-2.9305
 30
0.0
 10
-1.5075
 20
-2.8571
 30
0.0
 10
-1.4756
 20
-2.7823
 30
0.0
 10
-1.4393
 20
-2.6973
 30
0.0
 10
-1.4145
 20
-2.6153
 30
0.0
 10
-1.4018
 20
-2.537
 30
0.0
 10
-1.3894
 20
-2.4603
 30
0.0
 10
-1.3881
 20
-2.3858
 30
0.0
 10
-1.3981
 20
-2.3142
 30
0.0
 10
-1.4079
 20
-2.2424
 30
0.0
 10
-1.4304
 20
-2.1693
 30
0.0
 10
-1.4652
 20
-2.0953
 30
0.0
 10
-1.5009
 20
-2.0195
 30
0.0
 10
-1.5501
 20
-1.9422
 30
0.0
 10
-1.6122
 20
-1.8642
 30
0.0
 10
-1.7089
 20
-1.7437
 30
0.0
 10
-1.8223
 20
-1.6289
 30
0.0
 10
-1.9518
 20
-1.5201
 30
0.0
 10
-2.0827
 20
-1.4105
 30
0.0
 10
-2.2304
 20
-1.3062
 30
0.0
 10
-2.3944
 20
-1.2081
 30
0.0
 10
-2.5602
 20
-1.1087
 30
0.0
 10
-2.7291
 20
-1.0248
 30
0.0
 10
-2.9001
 20
-0.9568
 30
0.0
 10
-3.0708
 20
-0.8889
 30
0.0
 10
-3.2449
 20
-0.8362
 30
0.0
 10
-3.4215
 20
-0.7993
 30
0.0
 10
-3.6116
 20
-0.7594
 30
0.0
 10
-3.7957
 20
-0.7451
 30
0.0
 10
-3.9726
 20
-0.7566
 30
0.0
 10
-4.1488
 20
-0.7679
 30
0.0
 10
-4.3182
 20
-0.8048
 30
0.0
 10
-4.4797
 20
-0.8669
 30
0.0
 10
-4.558
 20
-0.8969
 30
0.0
 10
-4.63
 20
-0.9312
 30
0.0
 10
-4.695
 20
-0.9692
 30
0.0
 10
-4.7582
 20
-1.0062
 30
0.0
 10
-4.8158
 20
-1.0477
 30
0.0
 10
-4.867
 20
-1.0932
 30
0.0
 10
-4.9174
 20
-1.1374
 30
0.0
 10
-4.9692
 20
-1.1936
 30
0.0
 10
-5.0221
 20
-1.2611
 30
0.0
 10
-5.076
 20
-1.3298
 30
0.0
 10
-5.1305
 20
-1.4093
 30
0.0
 10
-5.1848
 20
-1.4986
 30
0.0
 10
-5.1848
 20
-1.4986
 30
0.0
 10
-5.1865
 20
-1.5014
 30
0.0
 10
-5.1865
 20
-1.5014
 30
0.0
 10
-5.2438
 20
-1.5875
 30
0.0
 10
-5.296
 20
-1.66
 30
0.0
 10
-5.3427
 20
-1.7185
 30
0.0
 10
-5.3917
 20
-1.7794
 30
0.0
 10
-5.4359
 20
-1.8267
 30
0.0
 10
-5.4754
 20
-1.8603
 30
0.0
 10
-5.5167
 20
-1.8954
 30
0.0
 10
-5.5688
 20
-1.9285
 30
0.0
 10
-5.631
 20
-1.9587
 30
0.0
 10
-5.631
 20
-1.9587
 30
0.0
 10
-5.6377
 20
-1.9619
 30
0.0
 10
-5.6377
 20
-1.9619
 30
0.0
  0
SPLINE
  5
6E
330
1F
100
AcDbEntity
  8
Layer 1
 62
   250
100
AcDbSpline
210
0.0
220
0.0
230
1.0
 70
    11
 71
     3
 72
   194
 73
   190
 74
     0
 42
0.0000000001
 43
0.0000000001
 40
0.0
 40
0.0
 40
0.0
 40
0.0
 40
0.0158730158730159
 40
0.0158730158730159
 40
0.0158730158730159
 40
0.0317460317460317
 40
0.0317460317460317
 40
0.0317460317460317
 40
0.0476190476190476
 40
0.0476190476190476
 40
0.0476190476190476
 40
0.0634920634920635
 40
0.0634920634920635
 40
0.0634920634920635
 40
0.0793650793650794
 40
0.0793650793650794
 40
0.0793650793650794
 40
0.0952380952380952
 40
0.0952380952380952
 40
0.0952380952380952
 40
0.1111111111111111
 40
0.1111111111111111
 40
0.1111111111111111
 40
0.126984126984127
 40
0.126984126984127
 40
0.126984126984127
 40
0.1428571428571428
 40
0.1428571428571428
 40
0.1428571428571428
 40
0.1587301587301587
 40
0.1587301587301587
 40
0.1587301587301587
 40
0.1746031746031746
 40
0.1746031746031746
 40
0.1746031746031746
 40
0.1904761904761905
 40
0.1904761904761905
 40
0.1904761904761905
 40
0.2063492063492063
 40
0.2063492063492063
 40
0.2063492063492063
 40
0.2222222222222222
 40
0.2222222222222222
 40
0.2222222222222222
 40
0.2380952380952381
 40
0.2380952380952381
 40
0.2380952380952381
 40
0.253968253968254
 40
0.253968253968254
 40
0.253968253968254
 40
0.2698412698412698
 40
0.2698412698412698
 40
0.2698412698412698
 40
0.2857142857142857
 40
0.2857142857142857
 40
0.2857142857142857
 40
0.3015873015873016
 40
0.3015873015873016
 40
0.3015873015873016
 40
0.3174603174603174
 40
0.3174603174603174
 40
0.3174603174603174
 40
0.3333333333333333
 40
0.3333333333333333
 40
0.3333333333333333
 40
0.3492063492063492
 40
0.3492063492063492
 40
0.3492063492063492
 40
0.3650793650793651
 40
0.3650793650793651
 40
0.3650793650793651
 40
0.3809523809523809
 40
0.3809523809523809
 40
0.3809523809523809
 40
0.3968253968253968
 40
0.3968253968253968
 40
0.3968253968253968
 40
0.4126984126984127
 40
0.4126984126984127
 40
0.4126984126984127
 40
0.4285714285714285
 40
0.4285714285714285
 40
0.4285714285714285
 40
0.4444444444444444
 40
0.4444444444444444
 40
0.4444444444444444
 40
0.4603174603174603
 40
0.4603174603174603
 40
0.4603174603174603
 40
0.4761904761904762
 40
0.4761904761904762
 40
0.4761904761904762
 40
0.492063492063492
 40
0.492063492063492
 40
0.492063492063492
 40
0.5079365079365079
 40
0.5079365079365079
 40
0.5079365079365079
 40
0.5238095238095237
 40
0.5238095238095237
 40
0.5238095238095237
 40
0.5396825396825397
 40
0.5396825396825397
 40
0.5396825396825397
 40
0.5555555555555556
 40
0.5555555555555556
 40
0.5555555555555556
 40
0.5714285714285714
 40
0.5714285714285714
 40
0.5714285714285714
 40
0.5873015873015872
 40
0.5873015873015872
 40
0.5873015873015872
 40
0.6031746031746031
 40
0.6031746031746031
 40
0.6031746031746031
 40
0.6190476190476191
 40
0.6190476190476191
 40
0.6190476190476191
 40
0.6349206349206349
 40
0.6349206349206349
 40
0.6349206349206349
 40
0.6507936507936507
 40
0.6507936507936507
 40
0.6507936507936507
 40
0.6666666666666666
 40
0.6666666666666666
 40
0.6666666666666666
 40
0.6825396825396826
 40
0.6825396825396826
 40
0.6825396825396826
 40
0.6984126984126984
 40
0.6984126984126984
 40
0.6984126984126984
 40
0.7142857142857142
 40
0.7142857142857142
 40
0.7142857142857142
 40
0.7301587301587301
 40
0.7301587301587301
 40
0.7301587301587301
 40
0.746031746031746
 40
0.746031746031746
 40
0.746031746031746
 40
0.7619047619047619
 40
0.7619047619047619
 40
0.7619047619047619
 40
0.7777777777777777
 40
0.7777777777777777
 40
0.7777777777777777
 40
0.7936507936507936
 40
0.7936507936507936
 40
0.7936507936507936
 40
0.8095238095238095
 40
0.8095238095238095
 40
0.8095238095238095
 40
0.8253968253968254
 40
0.8253968253968254
 40
0.8253968253968254
 40
0.8412698412698412
 40
0.8412698412698412
 40
0.8412698412698412
 40
0.8571428571428571
 40
0.8571428571428571
 40
0.8571428571428571
 40
0.873015873015873
 40
0.873015873015873
 40
0.873015873015873
 40
0.8888888888888888
 40
0.8888888888888888
 40
0.8888888888888888
 40
0.9047619047619047
 40
0.9047619047619047
 40
0.9047619047619047
 40
0.9206349206349206
 40
0.9206349206349206
 40
0.9206349206349206
 40
0.9365079365079365
 40
0.9365079365079365
 40
0.9365079365079365
 40
0.9523809523809523
 40
0.9523809523809523
 40
0.9523809523809523
 40
0.9682539682539681
 40
0.9682539682539681
 40
0.9682539682539681
 40
0.9841269841269841
 40
0.9841269841269841
 40
0.9841269841269841
 40
1.0
 40
1.0
 40
1.0
 40
1.0
 10
-5.6668
 20
-4.1917
 30
0.0
 10
-5.6668
 20
-4.1917
 30
0.0
 10
-7.9409
 20
-3.1657
 30
0.0
 10
-7.9409
 20
-3.1657
 30
0.0
 10
-8.1469
 20
-3.0687
 30
0.0
 10
-8.3498
 20
-2.9662
 30
0.0
 10
-8.549
 20
-2.859
 30
0.0
 10
-8.6767
 20
-2.7901
 30
0.0
 10
-8.8032
 20
-2.7191
 30
0.0
 10
-8.9283
 20
-2.646
 30
0.0
 10
-8.9075
 20
-2.7218
 30
0.0
 10
-8.8926
 20
-2.7891
 30
0.0
 10
-8.8835
 20
-2.8477
 30
0.0
 10
-8.8692
 20
-2.9398
 30
0.0
 10
-8.8694
 20
-3.0134
 30
0.0
 10
-8.8839
 20
-3.0678
 30
0.0
 10
-8.9067
 20
-3.1531
 30
0.0
 10
-8.9509
 20
-3.2132
 30
0.0
 10
-9.0165
 20
-3.2479
 30
0.0
 10
-9.0781
 20
-3.2803
 30
0.0
 10
-9.1543
 20
-3.2872
 30
0.0
 10
-9.2441
 20
-3.2682
 30
0.0
 10
-9.3245
 20
-3.2514
 30
0.0
 10
-9.4184
 20
-3.2183
 30
0.0
 10
-9.5253
 20
-3.1694
 30
0.0
 10
-9.6297
 20
-3.1217
 30
0.0
 10
-9.747
 20
-3.0588
 30
0.0
 10
-9.8768
 20
-2.9808
 30
0.0
 10
-10.0086
 20
-2.9018
 30
0.0
 10
-10.1223
 20
-2.8267
 30
0.0
 10
-10.2174
 20
-2.7556
 30
0.0
 10
-10.3138
 20
-2.6836
 30
0.0
 10
-10.3942
 20
-2.6134
 30
0.0
 10
-10.4574
 20
-2.5459
 30
0.0
 10
-10.4574
 20
-2.5459
 30
0.0
 10
-10.4591
 20
-2.5446
 30
0.0
 10
-10.4591
 20
-2.5446
 30
0.0
 10
-10.592
 20
-2.3955
 30
0.0
 10
-10.7021
 20
-2.218
 30
0.0
 10
-10.7888
 20
-2.0122
 30
0.0
 10
-10.8746
 20
-1.8085
 30
0.0
 10
-10.9376
 20
-1.5774
 30
0.0
 10
-10.9772
 20
-1.319
 30
0.0
 10
-11.0173
 20
-1.0575
 30
0.0
 10
-11.0311
 20
-0.7827
 30
0.0
 10
-11.0184
 20
-0.4947
 30
0.0
 10
-11.0057
 20
-0.2081
 30
0.0
 10
-10.9664
 20
0.0914
 30
0.0
 10
-10.9002
 20
0.4034
 30
0.0
 10
-10.859
 20
0.5971
 30
0.0
 10
-10.8076
 20
0.7807
 30
0.0
 10
-10.7462
 20
0.9536
 30
0.0
 10
-10.6847
 20
1.1266
 30
0.0
 10
-10.6129
 20
1.2894
 30
0.0
 10
-10.531
 20
1.4411
 30
0.0
 10
-10.4472
 20
1.5957
 30
0.0
 10
-10.3534
 20
1.7372
 30
0.0
 10
-10.2499
 20
1.8647
 30
0.0
 10
-10.1465
 20
1.9921
 30
0.0
 10
-10.0332
 20
2.1058
 30
0.0
 10
-9.9104
 20
2.2051
 30
0.0
 10
-9.7862
 20
2.3053
 30
0.0
 10
-9.6539
 20
2.3899
 30
0.0
 10
-9.5141
 20
2.4582
 30
0.0
 10
-9.3745
 20
2.5265
 30
0.0
 10
-9.2278
 20
2.5784
 30
0.0
 10
-9.0747
 20
2.6135
 30
0.0
 10
-8.9201
 20
2.6486
 30
0.0
 10
-8.7612
 20
2.6662
 30
0.0
 10
-8.5986
 20
2.6659
 30
0.0
 10
-8.4368
 20
2.6657
 30
0.0
 10
-8.2709
 20
2.6479
 30
0.0
 10
-8.1018
 20
2.6125
 30
0.0
 10
-7.8677
 20
2.5635
 30
0.0
 10
-7.6509
 20
2.499
 30
0.0
 10
-7.4519
 20
2.4197
 30
0.0
 10
-7.2518
 20
2.3399
 30
0.0
 10
-7.0693
 20
2.2446
 30
0.0
 10
-6.905
 20
2.1343
 30
0.0
 10
-6.741
 20
2.0243
 30
0.0
 10
-6.5892
 20
1.8953
 30
0.0
 10
-6.4504
 20
1.7485
 30
0.0
 10
-6.3114
 20
1.6015
 30
0.0
 10
-6.1848
 20
1.4361
 30
0.0
 10
-6.071
 20
1.2528
 30
0.0
 10
-5.9485
 20
1.0525
 30
0.0
 10
-5.854
 20
0.8633
 30
0.0
 10
-5.7872
 20
0.6852
 30
0.0
 10
-5.7317
 20
0.5369
 30
0.0
 10
-5.6953
 20
0.3962
 30
0.0
 10
-5.678
 20
0.2633
 30
0.0
 10
-5.3858
 20
0.7477
 30
0.0
 10
-5.0286
 20
1.0971
 30
0.0
 10
-4.6087
 20
1.3073
 30
0.0
 10
-4.1278
 20
1.548
 30
0.0
 10
-3.5681
 20
1.6045
 30
0.0
 10
-2.9327
 20
1.4715
 30
0.0
 10
-2.8053
 20
1.445
 30
0.0
 10
-2.6786
 20
1.4102
 30
0.0
 10
-2.5533
 20
1.3677
 30
0.0
 10
-2.4281
 20
1.3252
 30
0.0
 10
-2.3019
 20
1.274
 30
0.0
 10
-2.1753
 20
1.2145
 30
0.0
 10
-2.0492
 20
1.1553
 30
0.0
 10
-1.9281
 20
1.0899
 30
0.0
 10
-1.812
 20
1.0186
 30
0.0
 10
-1.6964
 20
0.9475
 30
0.0
 10
-1.5834
 20
0.8689
 30
0.0
 10
-1.4736
 20
0.7833
 30
0.0
 10
-1.3642
 20
0.698
 30
0.0
 10
-1.2637
 20
0.609
 30
0.0
 10
-1.1727
 20
0.517
 30
0.0
 10
-1.0808
 20
0.4237
 30
0.0
 10
-0.9966
 20
0.3259
 30
0.0
 10
-0.9209
 20
0.2241
 30
0.0
 10
-0.7559
 20
0.0087
 30
0.0
 10
-0.6064
 20
-0.2185
 30
0.0
 10
-0.473
 20
-0.4568
 30
0.0
 10
-0.3389
 20
-0.6962
 30
0.0
 10
-0.2201
 20
-0.9479
 30
0.0
 10
-0.1171
 20
-1.2109
 30
0.0
 10
-0.0168
 20
-1.4673
 30
0.0
 10
0.0641
 20
-1.7191
 30
0.0
 10
0.1254
 20
-1.9657
 30
0.0
 10
0.187
 20
-2.2133
 30
0.0
 10
0.229
 20
-2.456
 30
0.0
 10
0.2514
 20
-2.6934
 30
0.0
 10
0.2736
 20
-2.9287
 30
0.0
 10
0.273
 20
-3.1412
 30
0.0
 10
0.25
 20
-3.3307
 30
0.0
 10
0.2265
 20
-3.5244
 30
0.0
 10
0.1798
 20
-3.696
 30
0.0
 10
0.1102
 20
-3.8452
 30
0.0
 10
0.0533
 20
-3.9665
 30
0.0
 10
-0.0126
 20
-4.0826
 30
0.0
 10
-0.0877
 20
-4.1933
 30
0.0
 10
-0.1628
 20
-4.3043
 30
0.0
 10
-0.2471
 20
-4.4098
 30
0.0
 10
-0.3398
 20
-4.5094
 30
0.0
 10
-0.4321
 20
-4.6087
 30
0.0
 10
-0.5264
 20
-4.6956
 30
0.0
 10
-0.6223
 20
-4.7699
 30
0.0
 10
-0.7185
 20
-4.845
 30
0.0
 10
-0.8169
 20
-4.9074
 30
0.0
 10
-0.9166
 20
-4.957
 30
0.0
 10
-1.0177
 20
-5.0073
 30
0.0
 10
-1.1155
 20
-5.041
 30
0.0
 10
-1.2095
 20
-5.058
 30
0.0
 10
-1.3061
 20
-5.0753
 30
0.0
 10
-1.3983
 20
-5.0749
 30
0.0
 10
-1.4856
 20
-5.0564
 30
0.0
 10
-1.561
 20
-5.0406
 30
0.0
 10
-1.6315
 20
-5.0184
 30
0.0
 10
-1.6967
 20
-4.9899
 30
0.0
 10
-1.7633
 20
-4.9609
 30
0.0
 10
-1.8244
 20
-4.9254
 30
0.0
 10
-1.8793
 20
-4.884
 30
0.0
 10
-1.9337
 20
-4.843
 30
0.0
 10
-1.991
 20
-4.7891
 30
0.0
 10
-2.0508
 20
-4.7228
 30
0.0
 10
-2.0508
 20
-4.7228
 30
0.0
 10
-2.1163
 20
-4.6462
 30
0.0
 10
-2.1163
 20
-4.6462
 30
0.0
 10
-2.123
 20
-4.6746
 30
0.0
 10
-2.1322
 20
-4.7024
 30
0.0
 10
-2.1437
 20
-4.7292
 30
0.0
 10
-2.1818
 20
-4.819
 30
0.0
 10
-2.2373
 20
-4.8961
 30
0.0
 10
-2.3098
 20
-4.9602
 30
0.0
 10
-2.3808
 20
-5.023
 30
0.0
 10
-2.4677
 20
-5.0726
 30
0.0
 10
-2.5698
 20
-5.1088
 30
0.0
 10
-2.6693
 20
-5.1444
 30
0.0
 10
-2.7774
 20
-5.164
 30
0.0
 10
-2.8935
 20
-5.1677
 30
0.0
 10
-3.0075
 20
-5.1712
 30
0.0
 10
-3.129
 20
-5.1594
 30
0.0
 10
-3.2579
 20
-5.1322
 30
0.0
 10
-3.3303
 20
-5.1169
 30
0.0
 10
-3.4452
 20
-5.0817
 30
0.0
 10
-3.6026
 20
-5.0267
 30
0.0
 10
-3.7573
 20
-4.9726
 30
0.0
 10
-3.9537
 20
-4.8992
 30
0.0
 10
-4.1915
 20
-4.8065
 30
0.0
 10
-4.4357
 20
-4.7114
 30
0.0
 10
-4.68
 20
-4.6128
 30
0.0
 10
-4.9239
 20
-4.5112
 30
0.0
 10
-5.1687
 20
-4.4091
 30
0.0
 10
-5.4165
 20
-4.3026
 30
0.0
 10
-5.6668
 20
-4.1917
 30
0.0
  0
ENDSEC
  0
SECTION
  2
OBJECTS
  0
DICTIONARY
  5
C
330
0
100
AcDbDictionary
281
     1
  3
ACAD_DETAILVIEWSTYLE
350
76
  3
ACAD_GROUP
350
D
  3
ACAD_LAYOUT
350
1A
  3
ACAD_MATERIAL
350
43
  3
ACAD_MLEADERSTYLE
350
5B
  3
ACAD_MLINESTYLE
350
17
  3
ACAD_PLOTSETTINGS
350
19
  3
ACAD_PLOTSTYLENAME
350
E
  3
ACAD_SCALELIST
350
47
  3
ACAD_SECTIONVIEWSTYLE
350
77
  3
ACAD_TABLESTYLE
350
59
  3
ACAD_VISUALSTYLE
350
2A
  3
ACDB_RECOMPOSE_DATA
350
73
  3
AcDbVariableDictionary
350
6F
  0
SUN
  5
5D
330
29
100
AcDbSun
 90
        1
290
     0
 63
     7
421
 16777215
 40
1.0
291
     1
 91
  2455826
 92
 54000000
292
     0
 70
     2
 71
   256
280
     1
  0
DICTIONARY
  5
76
102
{ACAD_REACTORS
330
C
102
}
330
C
100
AcDbDictionary
281
     1
  0
DICTIONARY
  5
D
102
{ACAD_REACTORS
330
C
102
}
330
C
100
AcDbDictionary
281
     1
  0
DICTIONARY
  5
1A
102
{ACAD_REACTORS
330
C
102
}
330
C
100
AcDbDictionary
281
     1
  3
Layout1
350
1E
  3
Layout2
350
26
  3
Model
350
22
  0
DICTIONARY
  5
43
102
{ACAD_REACTORS
330
C
102
}
330
C
100
AcDbDictionary
281
     1
  3
ByBlock
350
45
  3
ByLayer
350
44
  3
Global
350
46
  0
DICTIONARY
  5
5B
102
{ACAD_REACTORS
330
C
102
}
330
C
100
AcDbDictionary
281
     1
  3
Standard
350
5C
  0
DICTIONARY
  5
17
102
{ACAD_REACTORS
330
C
102
}
330
C
100
AcDbDictionary
281
     1
  3
Standard
350
18
  0
DICTIONARY
  5
19
102
{ACAD_REACTORS
330
C
102
}
330
C
100
AcDbDictionary
281
     1
  0
ACDBDICTIONARYWDFLT
  5
E
102
{ACAD_REACTORS
330
C
102
}
330
C
100
AcDbDictionary
281
     1
  3
Normal
350
F
100
AcDbDictionaryWithDefault
340
F
  0
DICTIONARY
  5
47
102
{ACAD_REACTORS
330
C
102
}
330
C
100
AcDbDictionary
281
     1
  3
A0
350
48
  3
A1
350
49
  3
A2
350
4A
  3
A3
350
4B
  3
A4
350
4C
  3
A5
350
4D
  3
A6
350
4E
  3
A7
350
4F
  3
A8
350
50
  3
A9
350
51
  3
B1
350
52
  3
B2
350
53
  3
B3
350
54
  3
B4
350
55
  3
B5
350
56
  3
B6
350
57
  3
B7
350
58
  0
DICTIONARY
  5
77
102
{ACAD_REACTORS
330
C
102
}
330
C
100
AcDbDictionary
281
     1
  0
DICTIONARY
  5
59
102
{ACAD_REACTORS
330
C
102
}
330
C
100
AcDbDictionary
281
     1
  3
Standard
350
5A
  0
DICTIONARY
  5
2A
102
{ACAD_REACTORS
330
C
102
}
330
C
100
AcDbDictionary
281
     1
  3
2dWireframe
350
2F
  3
Basic
350
32
  3
Brighten
350
36
  3
ColorChange
350
3A
  3
Conceptual
350
34
  3
Dim
350
35
  3
EdgeColorOff
350
3D
  3
Facepattern
350
39
  3
Flat
350
2B
  3
FlatWithEdges
350
2C
  3
Gouraud
350
2D
  3
GouraudWithEdges
350
2E
  3
Hidden
350
31
  3
JitterOff
350
3B
  3
Linepattern
350
38
  3
OverhangOff
350
3C
  3
Realistic
350
33
  3
Shaded
350
42
  3
Shaded with edges
350
41
  3
Shades of Gray
350
3E
  3
Sketchy
350
3F
  3
Thicken
350
37
  3
Wireframe
350
30
  3
X-Ray
350
40
  0
XRECORD
  5
73
102
{ACAD_REACTORS
330
C
102
}
330
C
100
AcDbXrecord
280
     1
 90
        1
330
5A
  0
DICTIONARY
  5
6F
102
{ACAD_REACTORS
330
C
102
}
330
C
100
AcDbDictionary
281
     1
  3
CANNOSCALE
350
70
  3
CMLEADERSTYLE
350
75
  3
CTABLESTYLE
350
74
  0
LAYOUT
  5
1E
102
{ACAD_REACTORS
330
1A
102
}
330
1A
100
AcDbPlotSettings
  1

  2
none_device
  4

  6

 40
0.0
 41
0.0
 42
0.0
 43
0.0
 44
0.0
 45
0.0
 46
0.0
 47
0.0
 48
0.0
 49
0.0
140
0.0
141
0.0
142
1.0
143
1.0
 70
   688
 72
     0
 73
     0
 74
     5
  7

 75
    16
 76
     0
 77
     2
 78
   300
147
1.0
148
0.0
149
0.0
100
AcDbLayout
  1
Layout1
 70
     1
 71
     1
 10
0.0
 20
0.0
 11
12.0
 21
9.0
 12
0.0
 22
0.0
 32
0.0
 14
1.000000000000000E+20
 24
1.000000000000000E+20
 34
1.000000000000000E+20
 15
-1.000000000000000E+20
 25
-1.000000000000000E+20
 35
-1.000000000000000E+20
146
0.0
 13
0.0
 23
0.0
 33
0.0
 16
1.0
 26
0.0
 36
0.0
 17
0.0
 27
1.0
 37
0.0
 76
     0
330
1B
  0
LAYOUT
  5
26
102
{ACAD_REACTORS
330
1A
102
}
330
1A
100
AcDbPlotSettings
  1

  2
none_device
  4

  6

 40
0.0
 41
0.0
 42
0.0
 43
0.0
 44
0.0
 45
0.0
 46
0.0
 47
0.0
 48
0.0
 49
0.0
140
0.0
141
0.0
142
1.0
143
1.0
 70
   688
 72
     0
 73
     0
 74
     5
  7

 75
    16
 76
     0
 77
     2
 78
   300
147
1.0
148
0.0
149
0.0
100
AcDbLayout
  1
Layout2
 70
     1
 71
     2
 10
0.0
 20
0.0
 11
0.0
 21
0.0
 12
0.0
 22
0.0
 32
0.0
 14
0.0
 24
0.0
 34
0.0
 15
0.0
 25
0.0
 35
0.0
146
0.0
 13
0.0
 23
0.0
 33
0.0
 16
1.0
 26
0.0
 36
0.0
 17
0.0
 27
1.0
 37
0.0
 76
     0
330
23
  0
LAYOUT
  5
22
102
{ACAD_REACTORS
330
1A
102
}
330
1A
100
AcDbPlotSettings
  1

  2
none_device
  4
Letter_(8.50_x_11.00_Inches)
  6

 40
6.35
 41
6.35
 42
6.35000508
 43
6.35000508
 44
215.9
 45
279.4
 46
0.0
 47
0.0
 48
0.0
 49
0.0
140
0.0
141
0.0
142
1.0
143
1.0
 70
  1712
 72
     0
 73
     0
 74
     0
  7

 75
     0
 76
     0
 77
     2
 78
   300
147
1.0
148
0.0
149
0.0
100
AcDbLayout
  1
Model
 70
     1
 71
     0
 10
0.0
 20
0.0
 11
12.0
 21
9.0
 12
0.0
 22
0.0
 32
0.0
 14
-13.2582
 24
-8.3381
 34
0.0
 15
16.9418
 25
20.3926
 35
0.0
146
0.0
 13
0.0
 23
0.0
 33
0.0
 16
1.0
 26
0.0
 36
0.0
 17
0.0
 27
1.0
 37
0.0
 76
     0
330
1F
331
29
  0
MATERIAL
  5
45
102
{ACAD_REACTORS
330
43
102
}
330
43
100
AcDbMaterial
  1
ByBlock
 72
     1
 94
      127
  0
MATERIAL
  5
44
102
{ACAD_REACTORS
330
43
102
}
330
43
100
AcDbMaterial
  1
ByLayer
 72
     1
 94
      127
  0
MATERIAL
  5
46
102
{ACAD_REACTORS
330
43
102
}
330
43
100
AcDbMaterial
  1
Global
 72
     1
 94
      127
  0
MLEADERSTYLE
  5
5C
102
{ACAD_REACTORS
330
5B
102
}
330
5B
100
AcDbMLeaderStyle
179
     2
170
     2
171
     1
172
     0
 90
        2
 40
0.0
 41
0.0
173
     1
 91
-1056964608
340
14
 92
       -2
290
     1
 42
0.09
291
     1
 43
0.36
  3
Standard
341
0
 44
0.18
300

342
11
174
     1
178
     6
175
     1
176
     0
 93
-1056964608
 45
0.18
292
     0
297
     0
 46
0.18
343
0
 94
-1056964608
 47
1.0
 49
1.0
140
1.0
293
     1
141
0.0
294
     1
177
     0
142
1.0
295
     0
296
     0
143
0.125
271
     0
272
     9
273
     9
298
     0
  0
MLINESTYLE
  5
18
102
{ACAD_REACTORS
330
17
102
}
330
17
100
AcDbMlineStyle
  2
Standard
 70
     0
  3

 62
   256
 51
90.0
 52
90.0
 71
     2
 49
0.5
 62
   256
  6
BYLAYER
 49
-0.5
 62
   256
  6
BYLAYER
  0
ACDBPLACEHOLDER
  5
F
102
{ACAD_REACTORS
330
E
102
}
330
E
  0
SCALE
  5
48
102
{ACAD_REACTORS
330
47
102
}
330
47
100
AcDbScale
 70
     0
300
1:1
140
1.0
141
1.0
290
     1
  0
SCALE
  5
49
102
{ACAD_REACTORS
330
47
102
}
330
47
100
AcDbScale
 70
     0
300
1/128" = 1'-0"
140
0.0078125
141
12.0
290
     0
  0
SCALE
  5
4A
102
{ACAD_REACTORS
330
47
102
}
330
47
100
AcDbScale
 70
     0
300
1/64" = 1'-0"
140
0.015625
141
12.0
290
     0
  0
SCALE
  5
4B
102
{ACAD_REACTORS
330
47
102
}
330
47
100
AcDbScale
 70
     0
300
1/32" = 1'-0"
140
0.03125
141
12.0
290
     0
  0
SCALE
  5
4C
102
{ACAD_REACTORS
330
47
102
}
330
47
100
AcDbScale
 70
     0
300
1/16" = 1'-0"
140
0.0625
141
12.0
290
     0
  0
SCALE
  5
4D
102
{ACAD_REACTORS
330
47
102
}
330
47
100
AcDbScale
 70
     0
300
3/32" = 1'-0"
140
0.09375
141
12.0
290
     0
  0
SCALE
  5
4E
102
{ACAD_REACTORS
330
47
102
}
330
47
100
AcDbScale
 70
     0
300
1/8" = 1'-0"
140
0.125
141
12.0
290
     0
  0
SCALE
  5
4F
102
{ACAD_REACTORS
330
47
102
}
330
47
100
AcDbScale
 70
     0
300
3/16" = 1'-0"
140
0.1875
141
12.0
290
     0
  0
SCALE
  5
50
102
{ACAD_REACTORS
330
47
102
}
330
47
100
AcDbScale
 70
     0
300
1/4" = 1'-0"
140
0.25
141
12.0
290
     0
  0
SCALE
  5
51
102
{ACAD_REACTORS
330
47
102
}
330
47
100
AcDbScale
 70
     0
300
3/8" = 1'-0"
140
0.375
141
12.0
290
     0
  0
SCALE
  5
52
102
{ACAD_REACTORS
330
47
102
}
330
47
100
AcDbScale
 70
     0
300
1/2" = 1'-0"
140
0.5
141
12.0
290
     0
  0
SCALE
  5
53
102
{ACAD_REACTORS
330
47
102
}
330
47
100
AcDbScale
 70
     0
300
3/4" = 1'-0"
140
0.75
141
12.0
290
     0
  0
SCALE
  5
54
102
{ACAD_REACTORS
330
47
102
}
330
47
100
AcDbScale
 70
     0
300
1" = 1'-0"
140
1.0
141
12.0
290
     0
  0
SCALE
  5
55
102
{ACAD_REACTORS
330
47
102
}
330
47
100
AcDbScale
 70
     0
300
1-1/2" = 1'-0"
140
1.5
141
12.0
290
     0
  0
SCALE
  5
56
102
{ACAD_REACTORS
330
47
102
}
330
47
100
AcDbScale
 70
     0
300
3" = 1'-0"
140
3.0
141
12.0
290
     0
  0
SCALE
  5
57
102
{ACAD_REACTORS
330
47
102
}
330
47
100
AcDbScale
 70
     0
300
6" = 1'-0"
140
6.0
141
12.0
290
     0
  0
SCALE
  5
58
102
{ACAD_REACTORS
330
47
102
}
330
47
100
AcDbScale
 70
     0
300
1'-0" = 1'-0"
140
12.0
141
12.0
290
     0
  0
TABLESTYLE
  5
5A
102
{ACAD_REACTORS
330
59
102
}
102
{ACAD_XDICTIONARY
360
71
102
}
330
59
100
AcDbTableStyle
  3
Standard
 70
     0
 71
     0
 40
0.06
 41
0.06
280
     0
281
     0
  7
Standard
140
0.18
170
     2
 62
     0
 63
   257
283
     0
 90
        4
 91
        0
  1

274
    -2
284
     1
 64
     0
275
    -2
285
     1
 65
     0
276
    -2
286
     1
 66
     0
277
    -2
287
     1
 67
     0
278
    -2
288
     1
 68
     0
279
    -2
289
     1
 69
     0
  7
Standard
140
0.25
170
     5
 62
     0
 63
   257
283
     0
 90
        4
 91
        0
  1

274
    -2
284
     1
 64
     0
275
    -2
285
     1
 65
     0
276
    -2
286
     1
 66
     0
277
    -2
287
     1
 67
     0
278
    -2
288
     1
 68
     0
279
    -2
289
     1
 69
     0
  7
Standard
140
0.18
170
     5
 62
     0
 63
   257
283
     0
 90
        4
 91
        0
  1

274
    -2
284
     1
 64
     0
275
    -2
285
     1
 65
     0
276
    -2
286
     1
 66
     0
277
    -2
287
     1
 67
     0
278
    -2
288
     1
 68
     0
279
    -2
289
     1
 69
     0
  0
VISUALSTYLE
  5
2F
102
{ACAD_REACTORS
330
2A
102
}
330
2A
100
AcDbVisualStyle
  2
2dWireframe
 70
     4
177
     3
291
     0
 70
    58
 90
        0
176
     1
 90
        2
176
     1
 90
        0
176
     1
 90
        0
176
     1
 40
0.6
176
     1
 40
30.0
176
     1
 62
     7
420
 16777215
176
     1
 90
        1
176
     1
 90
        4
176
     1
 62
     7
176
     1
 62
   257
176
     1
 90
        1
176
     1
 90
        1
176
     1
 40
1.0
176
     1
 90
        0
176
     1
 62
   257
176
     1
 40
1.0
176
     1
 90
        1
176
     1
 90
        6
176
     1
 90
        2
176
     1
 62
     7
176
     1
 90
        5
176
     1
 90
        0
176
     1
 90
        0
176
     1
290
     0
176
     1
 90
        1
176
     1
 40
0.0
176
     1
 90
        0
176
     1
290
     1
176
     1
290
     1
176
     1
290
     0
176
     1
290
     0
176
     1
290
     0
176
     1
290
     0
176
     1
290
     0
176
     1
290
     0
176
     1
290
     0
176
     1
 90
       50
176
     1
 40
0.0
176
     1
 40
1.0
176
     1
 90
        0
176
     1
 62
    18
420
        0
176
     1
 90
       50
176
     1
 90
        3
176
     1
 62
     5
420
      255
176
     1
290
     0
176
     1
 90
       50
176
     1
 90
       50
176
     1
 90
       50
176
     1
290
     0
176
     1
 90
       50
176
     1
 62
   256
176
     0
 40
1.0
176
     0
 90
        2
176
     1
  1
strokes_ogs.tif
176
     1
290
     0
176
     1
 40
1.0
176
     1
 40
1.0
176
     1
  0
VISUALSTYLE
  5
32
102
{ACAD_REACTORS
330
2A
102
}
330
2A
100
AcDbVisualStyle
  2
Basic
 70
     7
177
     3
291
     1
 70
    58
 90
        1
176
     1
 90
        0
176
     1
 90
        1
176
     1
 90
        0
176
     1
 40
0.6
176
     1
 40
30.0
176
     1
 62
     7
420
 16777215
176
     1
 90
        0
176
     1
 90
        4
176
     1
 62
     7
176
     1
 62
   257
176
     1
 90
        1
176
     1
 90
        1
176
     1
 40
1.0
176
     1
 90
        8
176
     1
 62
     7
176
     1
 40
1.0
176
     1
 90
        1
176
     1
 90
        6
176
     1
 90
        2
176
     1
 62
     7
176
     1
 90
        5
176
     1
 90
        0
176
     1
 90
        0
176
     1
290
     0
176
     1
 90
        1
176
     1
 40
0.0
176
     1
 90
        0
176
     1
290
     0
176
     1
290
     1
176
     1
290
     1
176
     1
290
     0
176
     1
290
     0
176
     1
290
     0
176
     1
290
     0
176
     1
290
     0
176
     1
290
     0
176
     1
 90
       50
176
     1
 40
0.0
176
     1
 40
1.0
176
     1
 90
        0
176
     1
 62
    18
420
        0
176
     1
 90
       50
176
     1
 90
        3
176
     1
 62
     5
420
      255
176
     1
290
     0
176
     1
 90
       50
176
     1
 90
       50
176
     1
 90
       50
176
     1
290
     0
176
     1
 90
       50
176
     1
 62
   256
176
     0
 40
1.0
176
     0
 90
        2
176
     1
  1
strokes_ogs.tif
176
     1
290
     0
176
     1
 40
1.0
176
     1
 40
1.0
176
     1
  0
VISUALSTYLE
  5
36
102
{ACAD_REACTORS
330
2A
102
}
330
2A
100
AcDbVisualStyle
  2
Brighten
 70
    12
177
     3
291
     1
 70
    58
 90
        2
176
     1
 90
        2
176
     1
 90
        0
176
     1
 90
        0
176
     1
 40
0.6
176
     1
 40
30.0
176
     1
 62
     7
420
 16777215
176
     1
 90
        1
176
     1
 90
        4
176
     1
 62
     7
176
     1
 62
   257
176
     1
 90
        1
176
     1
 90
        1
176
     1
 40
1.0
176
     1
 90
        8
176
     1
 62
     7
176
     1
 40
1.0
176
     1
 90
        1
176
     1
 90
        6
176
     1
 90
        2
176
     1
 62
     7
176
     1
 90
        5
176
     1
 90
        0
176
     1
 90
        0
176
     1
290
     0
176
     1
 90
        1
176
     1
 40
50.0
176
     1
 90
        0
176
     1
290
     0
176
     1
290
     1
176
     1
290
     1
176
     1
290
     0
176
     1
290
     0
176
     1
290
     0
176
     1
290
     0
176
     1
290
     0
176
     1
290
     0
176
     1
 90
       50
176
     1
 40
0.0
176
     1
 40
1.0
176
     1
 90
        0
176
     1
 62
    18
420
        0
176
     1
 90
       50
176
     1
 90
        3
176
     1
 62
     5
420
      255
176
     1
290
     0
176
     1
 90
       50
176
     1
 90
       50
176
     1
 90
       50
176
     1
290
     0
176
     1
 90
       50
176
     1
 62
   256
176
     0
 40
1.0
176
     0
 90
        2
176
     1
  1
strokes_ogs.tif
176
     1
290
     0
176
     1
 40
1.0
176
     1
 40
1.0
176
     1
  0
VISUALSTYLE
  5
3A
102
{ACAD_REACTORS
330
2A
102
}
330
2A
100
AcDbVisualStyle
  2
ColorChange
 70
    16
177
     3
291
     1
 70
    58
 90
        2
176
     1
 90
        2
176
     1
 90
        3
176
     1
 90
        0
176
     1
 40
0.6
176
     1
 40
30.0
176
     1
 62
     8
420
  8421504
176
     1
 90
        1
176
     1
 90
        4
176
     1
 62
     7
176
     1
 62
   257
176
     1
 90
        1
176
     1
 90
        1
176
     1
 40
1.0
176
     1
 90
        8
176
     1
 62
     8
420
  8421504
176
     1
 40
1.0
176
     1
 90
        1
176
     1
 90
        6
176
     1
 90
        2
176
     1
 62
     7
176
     1
 90
        5
176
     1
 90
        0
176
     1
 90
        0
176
     1
290
     0
176
     1
 90
        1
176
     1
 40
0.0
176
     1
 90
        0
176
     1
290
     0
176
     1
290
     1
176
     1
290
     1
176
     1
290
     0
176
     1
290
     0
176
     1
290
     0
176
     1
290
     0
176
     1
290
     0
176
     1
290
     0
176
     1
 90
       50
176
     1
 40
0.0
176
     1
 40
1.0
176
     1
 90
        0
176
     1
 62
    18
420
        0
176
     1
 90
       50
176
     1
 90
        3
176
     1
 62
     5
420
      255
176
     1
290
     0
176
     1
 90
       50
176
     1
 90
       50
176
     1
 90
       50
176
     1
290
     0
176
     1
 90
       50
176
     1
 62
   256
176
     0
 40
1.0
176
     0
 90
        2
176
     1
  1
strokes_ogs.tif
176
     1
290
     0
176
     1
 40
1.0
176
     1
 40
1.0
176
     1
  0
VISUALSTYLE
  5
34
102
{ACAD_REACTORS
330
2A
102
}
330
2A
100
AcDbVisualStyle
  2
Conceptual
 70
     9
177
     3
291
     0
 70
    58
 90
        3
176
     1
 90
        2
176
     1
 90
        0
176
     1
 90
        0
176
     1
 40
0.6
176
     1
 40
30.0
176
     1
 62
     7
420
 16777215
176
     1
 90
        2
176
     1
 90
        2
176
     1
 62
     7
176
     1
 62
   257
176
     1
 90
        1
176
     1
 90
        1
176
     1
 40
179.0
176
     1
 90
        8
176
     1
 62
     7
176
     1
 40
1.0
176
     1
 90
        1
176
     1
 90
        6
176
     1
 90
        2
176
     1
 62
     7
176
     1
 90
        3
176
     1
 90
        0
176
     1
 90
        0
176
     1
290
     0
176
     1
 90
        1
176
     1
 40
0.0
176
     1
 90
        0
176
     1
290
     0
176
     1
290
     1
176
     1
290
     1
176
     1
290
     0
176
     1
290
     0
176
     1
290
     0
176
     1
290
     0
176
     1
290
     0
176
     1
290
     0
176
     1
 90
       50
176
     1
 40
0.0
176
     1
 40
1.0
176
     1
 90
        0
176
     1
 62
    18
420
        0
176
     1
 90
       50
176
     1
 90
        3
176
     1
 62
     5
420
      255
176
     1
290
     0
176
     1
 90
       50
176
     1
 90
       50
176
     1
 90
       50
176
     1
290
     0
176
     1
 90
       50
176
     1
 62
   256
176
     0
 40
1.0
176
     0
 90
        2
176
     1
  1
strokes_ogs.tif
176
     1
290
     0
176
     1
 40
1.0
176
     1
 40
1.0
176
     1
  0
VISUALSTYLE
  5
35
102
{ACAD_REACTORS
330
2A
102
}
330
2A
100
AcDbVisualStyle
  2
Dim
 70
    11
177
     3
291
     1
 70
    58
 90
        2
176
     1
 90
        2
176
     1
 90
        0
176
     1
 90
        0
176
     1
 40
0.6
176
     1
 40
30.0
176
     1
 62
     7
420
 16777215
176
     1
 90
        1
176
     1
 90
        4
176
     1
 62
     7
176
     1
 62
   257
176
     1
 90
        1
176
     1
 90
        1
176
     1
 40
1.0
176
     1
 90
        8
176
     1
 62
     7
176
     1
 40
1.0
176
     1
 90
        1
176
     1
 90
        6
176
     1
 90
        2
176
     1
 62
     7
176
     1
 90
        5
176
     1
 90
        0
176
     1
 90
        0
176
     1
290
     0
176
     1
 90
        1
176
     1
 40
-50.0
176
     1
 90
        0
176
     1
290
     0
176
     1
290
     1
176
     1
290
     1
176
     1
290
     0
176
     1
290
     0
176
     1
290
     0
176
     1
290
     0
176
     1
290
     0
176
     1
290
     0
176
     1
 90
       50
176
     1
 40
0.0
176
     1
 40
1.0
176
     1
 90
        0
176
     1
 62
    18
420
        0
176
     1
 90
       50
176
     1
 90
        3
176
     1
 62
     5
420
      255
176
     1
290
     0
176
     1
 90
       50
176
     1
 90
       50
176
     1
 90
       50
176
     1
290
     0
176
     1
 90
       50
176
     1
 62
   256
176
     0
 40
1.0
176
     0
 90
        2
176
     1
  1
strokes_ogs.tif
176
     1
290
     0
176
     1
 40
1.0
176
     1
 40
1.0
176
     1
  0
VISUALSTYLE
  5
3D
102
{ACAD_REACTORS
330
2A
102
}
330
2A
100
AcDbVisualStyle
  2
EdgeColorOff
 70
    22
177
     3
291
     1
 70
    58
 90
        2
176
     0
 90
        2
176
     0
 90
        0
176
     0
 90
        0
176
     0
 40
0.6
176
     0
 40
30.0
176
     0
 62
     7
420
 16777215
176
     0
 90
        1
176
     0
 90
        4
176
     0
 62
     7
176
     0
 62
   257
176
     0
 90
        1
176
     0
 90
        1
176
     0
 40
1.0
176
     0
 90
        8
176
     2
 62
     7
176
     0
 40
1.0
176
     0
 90
        1
176
     0
 90
        6
176
     0
 90
        2
176
     0
 62
     7
176
     0
 90
        5
176
     0
 90
        0
176
     0
 90
        0
176
     0
290
     0
176
     0
 90
        1
176
     0
 40
0.0
176
     0
 90
        0
176
     0
290
     0
176
     0
290
     1
176
     0
290
     1
176
     0
290
     0
176
     0
290
     0
176
     0
290
     0
176
     0
290
     0
176
     0
290
     0
176
     0
290
     0
176
     0
 90
       50
176
     0
 40
0.0
176
     0
 40
1.0
176
     0
 90
        0
176
     0
 62
    18
420
        0
176
     0
 90
       50
176
     0
 90
        3
176
     0
 62
     5
420
      255
176
     0
290
     0
176
     0
 90
       50
176
     0
 90
       50
176
     0
 90
       50
176
     0
290
     0
176
     0
 90
       50
176
     0
 62
   256
176
     0
 40
1.0
176
     0
 90
        2
176
     0
  1
strokes_ogs.tif
176
     0
290
     0
176
     0
 40
1.0
176
     0
 40
1.0
176
     0
  0
VISUALSTYLE
  5
39
102
{ACAD_REACTORS
330
2A
102
}
330
2A
100
AcDbVisualStyle
  2
Facepattern
 70
    15
177
     3
291
     1
 70
    58
 90
        2
176
     1
 90
        2
176
     1
 90
        0
176
     1
 90
        0
176
     1
 40
0.6
176
     1
 40
30.0
176
     1
 62
     7
420
 16777215
176
     1
 90
        1
176
     1
 90
        4
176
     1
 62
     7
176
     1
 62
   257
176
     1
 90
        1
176
     1
 90
        1
176
     1
 40
1.0
176
     1
 90
        8
176
     1
 62
     7
176
     1
 40
1.0
176
     1
 90
        1
176
     1
 90
        6
176
     1
 90
        2
176
     1
 62
     7
176
     1
 90
        5
176
     1
 90
        0
176
     1
 90
        0
176
     1
290
     0
176
     1
 90
        1
176
     1
 40
0.0
176
     1
 90
        0
176
     1
290
     0
176
     1
290
     1
176
     1
290
     1
176
     1
290
     0
176
     1
290
     0
176
     1
290
     0
176
     1
290
     0
176
     1
290
     0
176
     1
290
     0
176
     1
 90
       50
176
     1
 40
0.0
176
     1
 40
1.0
176
     1
 90
        0
176
     1
 62
    18
420
        0
176
     1
 90
       50
176
     1
 90
        3
176
     1
 62
     5
420
      255
176
     1
290
     0
176
     1
 90
       50
176
     1
 90
       50
176
     1
 90
       50
176
     1
290
     0
176
     1
 90
       50
176
     1
 62
   256
176
     0
 40
1.0
176
     0
 90
        2
176
     1
  1
strokes_ogs.tif
176
     1
290
     0
176
     1
 40
1.0
176
     1
 40
1.0
176
     1
  0
VISUALSTYLE
  5
2B
102
{ACAD_REACTORS
330
2A
102
}
330
2A
100
AcDbVisualStyle
  2
Flat
 70
     0
177
     3
291
     1
 70
    58
 90
        2
176
     1
 90
        1
176
     1
 90
        1
176
     1
 90
        2
176
     1
 40
0.6
176
     1
 40
30.0
176
     1
 62
     7
420
 16777215
176
     1
 90
        0
176
     1
 90
        0
176
     1
 62
     7
176
     1
 62
   257
176
     1
 90
        1
176
     1
 90
        1
176
     1
 40
1.0
176
     1
 90
        8
176
     1
 62
     7
176
     1
 40
1.0
176
     1
 90
        1
176
     1
 90
        6
176
     1
 90
        2
176
     1
 62
     7
176
     1
 90
        5
176
     1
 90
        0
176
     1
 90
        0
176
     1
290
     0
176
     1
 90
       13
176
     1
 40
0.0
176
     1
 90
        0
176
     1
290
     0
176
     1
290
     1
176
     1
290
     1
176
     1
290
     0
176
     1
290
     0
176
     1
290
     0
176
     1
290
     0
176
     1
290
     0
176
     1
290
     0
176
     1
 90
       50
176
     1
 40
0.0
176
     1
 40
1.0
176
     1
 90
        0
176
     1
 62
    18
420
        0
176
     1
 90
       50
176
     1
 90
        3
176
     1
 62
     5
420
      255
176
     1
290
     0
176
     1
 90
       50
176
     1
 90
       50
176
     1
 90
       50
176
     1
290
     0
176
     1
 90
       50
176
     1
 62
   256
176
     0
 40
1.0
176
     0
 90
        2
176
     1
  1
strokes_ogs.tif
176
     1
290
     0
176
     1
 40
1.0
176
     1
 40
1.0
176
     1
  0
VISUALSTYLE
  5
2C
102
{ACAD_REACTORS
330
2A
102
}
330
2A
100
AcDbVisualStyle
  2
FlatWithEdges
 70
     1
177
     3
291
     1
 70
    58
 90
        2
176
     1
 90
        1
176
     1
 90
        1
176
     1
 90
        2
176
     1
 40
0.6
176
     1
 40
30.0
176
     1
 62
     7
420
 16777215
176
     1
 90
        1
176
     1
 90
        0
176
     1
 62
     7
176
     1
 62
   257
176
     1
 90
        1
176
     1
 90
        1
176
     1
 40
1.0
176
     1
 90
        0
176
     1
 62
   257
176
     1
 40
1.0
176
     1
 90
        1
176
     1
 90
        6
176
     1
 90
        2
176
     1
 62
     7
176
     1
 90
        5
176
     1
 90
        0
176
     1
 90
        0
176
     1
290
     0
176
     1
 90
       13
176
     1
 40
0.0
176
     1
 90
        0
176
     1
290
     0
176
     1
290
     1
176
     1
290
     1
176
     1
290
     0
176
     1
290
     0
176
     1
290
     0
176
     1
290
     0
176
     1
290
     0
176
     1
290
     0
176
     1
 90
       50
176
     1
 40
0.0
176
     1
 40
1.0
176
     1
 90
        0
176
     1
 62
    18
420
        0
176
     1
 90
       50
176
     1
 90
        3
176
     1
 62
     5
420
      255
176
     1
290
     0
176
     1
 90
       50
176
     1
 90
       50
176
     1
 90
       50
176
     1
290
     0
176
     1
 90
       50
176
     1
 62
   256
176
     0
 40
1.0
176
     0
 90
        2
176
     1
  1
strokes_ogs.tif
176
     1
290
     0
176
     1
 40
1.0
176
     1
 40
1.0
176
     1
  0
VISUALSTYLE
  5
2D
102
{ACAD_REACTORS
330
2A
102
}
330
2A
100
AcDbVisualStyle
  2
Gouraud
 70
     2
177
     3
291
     1
 70
    58
 90
        2
176
     1
 90
        2
176
     1
 90
        1
176
     1
 90
        2
176
     1
 40
0.6
176
     1
 40
30.0
176
     1
 62
     7
420
 16777215
176
     1
 90
        0
176
     1
 90
        0
176
     1
 62
     7
176
     1
 62
   257
176
     1
 90
        1
176
     1
 90
        1
176
     1
 40
1.0
176
     1
 90
        0
176
     1
 62
     7
176
     1
 40
1.0
176
     1
 90
        1
176
     1
 90
        6
176
     1
 90
        2
176
     1
 62
     7
176
     1
 90
        5
176
     1
 90
        0
176
     1
 90
        0
176
     1
290
     0
176
     1
 90
       13
176
     1
 40
0.0
176
     1
 90
        0
176
     1
290
     0
176
     1
290
     1
176
     1
290
     1
176
     1
290
     0
176
     1
290
     0
176
     1
290
     0
176
     1
290
     0
176
     1
290
     0
176
     1
290
     0
176
     1
 90
       50
176
     1
 40
0.0
176
     1
 40
1.0
176
     1
 90
        0
176
     1
 62
    18
420
        0
176
     1
 90
       50
176
     1
 90
        3
176
     1
 62
     5
420
      255
176
     1
290
     0
176
     1
 90
       50
176
     1
 90
       50
176
     1
 90
       50
176
     1
290
     0
176
     1
 90
       50
176
     1
 62
   256
176
     0
 40
1.0
176
     0
 90
        2
176
     1
  1
strokes_ogs.tif
176
     1
290
     0
176
     1
 40
1.0
176
     1
 40
1.0
176
     1
  0
VISUALSTYLE
  5
2E
102
{ACAD_REACTORS
330
2A
102
}
330
2A
100
AcDbVisualStyle
  2
GouraudWithEdges
 70
     3
177
     3
291
     1
 70
    58
 90
        2
176
     1
 90
        2
176
     1
 90
        1
176
     1
 90
        2
176
     1
 40
0.6
176
     1
 40
30.0
176
     1
 62
     7
420
 16777215
176
     1
 90
        1
176
     1
 90
        0
176
     1
 62
     7
176
     1
 62
   257
176
     1
 90
        1
176
     1
 90
        1
176
     1
 40
1.0
176
     1
 90
        0
176
     1
 62
   257
176
     1
 40
1.0
176
     1
 90
        1
176
     1
 90
        6
176
     1
 90
        2
176
     1
 62
     7
176
     1
 90
        5
176
     1
 90
        0
176
     1
 90
        0
176
     1
290
     0
176
     1
 90
       13
176
     1
 40
0.0
176
     1
 90
        0
176
     1
290
     0
176
     1
290
     1
176
     1
290
     1
176
     1
290
     0
176
     1
290
     0
176
     1
290
     0
176
     1
290
     0
176
     1
290
     0
176
     1
290
     0
176
     1
 90
       50
176
     1
 40
0.0
176
     1
 40
1.0
176
     1
 90
        0
176
     1
 62
    18
420
        0
176
     1
 90
       50
176
     1
 90
        3
176
     1
 62
     5
420
      255
176
     1
290
     0
176
     1
 90
       50
176
     1
 90
       50
176
     1
 90
       50
176
     1
290
     0
176
     1
 90
       50
176
     1
 62
   256
176
     0
 40
1.0
176
     0
 90
        2
176
     1
  1
strokes_ogs.tif
176
     1
290
     0
176
     1
 40
1.0
176
     1
 40
1.0
176
     1
  0
VISUALSTYLE
  5
31
102
{ACAD_REACTORS
330
2A
102
}
330
2A
100
AcDbVisualStyle
  2
Hidden
 70
     6
177
     3
291
     0
 70
    58
 90
        1
176
     1
 90
        2
176
     1
 90
        2
176
     1
 90
        0
176
     1
 40
0.6
176
     1
 40
30.0
176
     1
 62
     7
420
 16777215
176
     1
 90
        2
176
     1
 90
        2
176
     1
 62
     7
176
     1
 62
   257
176
     1
 90
        2
176
     1
 90
        1
176
     1
 40
40.0
176
     1
 90
        0
176
     1
 62
   257
176
     1
 40
1.0
176
     1
 90
        1
176
     1
 90
        6
176
     1
 90
        2
176
     1
 62
     7
176
     1
 90
        3
176
     1
 90
        0
176
     1
 90
        0
176
     1
290
     0
176
     1
 90
        1
176
     1
 40
0.0
176
     1
 90
        0
176
     1
290
     0
176
     1
290
     1
176
     1
290
     1
176
     1
290
     0
176
     1
290
     0
176
     1
290
     0
176
     1
290
     0
176
     1
290
     0
176
     1
290
     0
176
     1
 90
       50
176
     1
 40
0.0
176
     1
 40
1.0
176
     1
 90
        0
176
     1
 62
    18
420
        0
176
     1
 90
       50
176
     1
 90
        3
176
     1
 62
     5
420
      255
176
     1
290
     0
176
     1
 90
       50
176
     1
 90
       50
176
     1
 90
       50
176
     1
290
     0
176
     1
 90
       50
176
     1
 62
   256
176
     0
 40
1.0
176
     0
 90
        2
176
     1
  1
strokes_ogs.tif
176
     1
290
     0
176
     1
 40
1.0
176
     1
 40
1.0
176
     1
  0
VISUALSTYLE
  5
3B
102
{ACAD_REACTORS
330
2A
102
}
330
2A
100
AcDbVisualStyle
  2
JitterOff
 70
    20
177
     3
291
     1
 70
    58
 90
        2
176
     0
 90
        2
176
     0
 90
        0
176
     0
 90
        0
176
     0
 40
0.6
176
     0
 40
30.0
176
     0
 62
     7
420
 16777215
176
     0
 90
        1
176
     0
 90
        4
176
     0
 62
     7
176
     0
 62
   257
176
     0
 90
        1
176
     0
 90
        1
176
     0
 40
1.0
176
     0
 90
       10
176
     2
 62
     7
176
     0
 40
1.0
176
     0
 90
        1
176
     0
 90
        6
176
     0
 90
        2
176
     0
 62
     7
176
     0
 90
        5
176
     0
 90
        0
176
     0
 90
        0
176
     0
290
     0
176
     0
 90
        1
176
     0
 40
0.0
176
     0
 90
        0
176
     0
290
     0
176
     0
290
     1
176
     0
290
     1
176
     0
290
     0
176
     0
290
     0
176
     0
290
     0
176
     0
290
     0
176
     0
290
     0
176
     0
290
     0
176
     0
 90
       50
176
     0
 40
0.0
176
     0
 40
1.0
176
     0
 90
        0
176
     0
 62
    18
420
        0
176
     0
 90
       50
176
     0
 90
        3
176
     0
 62
     5
420
      255
176
     0
290
     0
176
     0
 90
       50
176
     0
 90
       50
176
     0
 90
       50
176
     0
290
     0
176
     0
 90
       50
176
     0
 62
   256
176
     0
 40
1.0
176
     0
 90
        2
176
     0
  1
strokes_ogs.tif
176
     0
290
     0
176
     0
 40
1.0
176
     0
 40
1.0
176
     0
  0
VISUALSTYLE
  5
38
102
{ACAD_REACTORS
330
2A
102
}
330
2A
100
AcDbVisualStyle
  2
Linepattern
 70
    14
177
     3
291
     1
 70
    58
 90
        2
176
     1
 90
        2
176
     1
 90
        0
176
     1
 90
        0
176
     1
 40
0.6
176
     1
 40
30.0
176
     1
 62
     7
420
 16777215
176
     1
 90
        1
176
     1
 90
        4
176
     1
 62
     7
176
     1
 62
   257
176
     1
 90
        7
176
     1
 90
        7
176
     1
 40
1.0
176
     1
 90
        8
176
     1
 62
     7
176
     1
 40
1.0
176
     1
 90
        1
176
     1
 90
        6
176
     1
 90
        2
176
     1
 62
     7
176
     1
 90
        5
176
     1
 90
        0
176
     1
 90
        0
176
     1
290
     0
176
     1
 90
        1
176
     1
 40
0.0
176
     1
 90
        0
176
     1
290
     0
176
     1
290
     1
176
     1
290
     1
176
     1
290
     0
176
     1
290
     0
176
     1
290
     0
176
     1
290
     0
176
     1
290
     0
176
     1
290
     0
176
     1
 90
       50
176
     1
 40
0.0
176
     1
 40
1.0
176
     1
 90
        0
176
     1
 62
    18
420
        0
176
     1
 90
       50
176
     1
 90
        3
176
     1
 62
     5
420
      255
176
     1
290
     0
176
     1
 90
       50
176
     1
 90
       50
176
     1
 90
       50
176
     1
290
     0
176
     1
 90
       50
176
     1
 62
   256
176
     0
 40
1.0
176
     0
 90
        2
176
     1
  1
strokes_ogs.tif
176
     1
290
     0
176
     1
 40
1.0
176
     1
 40
1.0
176
     1
  0
VISUALSTYLE
  5
3C
102
{ACAD_REACTORS
330
2A
102
}
330
2A
100
AcDbVisualStyle
  2
OverhangOff
 70
    21
177
     3
291
     1
 70
    58
 90
        2
176
     0
 90
        2
176
     0
 90
        0
176
     0
 90
        0
176
     0
 40
0.6
176
     0
 40
30.0
176
     0
 62
     7
420
 16777215
176
     0
 90
        1
176
     0
 90
        4
176
     0
 62
     7
176
     0
 62
   257
176
     0
 90
        1
176
     0
 90
        1
176
     0
 40
1.0
176
     0
 90
        9
176
     2
 62
     7
176
     0
 40
1.0
176
     0
 90
        1
176
     0
 90
        6
176
     0
 90
        2
176
     0
 62
     7
176
     0
 90
        5
176
     0
 90
        0
176
     0
 90
        0
176
     0
290
     0
176
     0
 90
        1
176
     0
 40
0.0
176
     0
 90
        0
176
     0
290
     0
176
     0
290
     1
176
     0
290
     1
176
     0
290
     0
176
     0
290
     0
176
     0
290
     0
176
     0
290
     0
176
     0
290
     0
176
     0
290
     0
176
     0
 90
       50
176
     0
 40
0.0
176
     0
 40
1.0
176
     0
 90
        0
176
     0
 62
    18
420
        0
176
     0
 90
       50
176
     0
 90
        3
176
     0
 62
     5
420
      255
176
     0
290
     0
176
     0
 90
       50
176
     0
 90
       50
176
     0
 90
       50
176
     0
290
     0
176
     0
 90
       50
176
     0
 62
   256
176
     0
 40
1.0
176
     0
 90
        2
176
     0
  1
strokes_ogs.tif
176
     0
290
     0
176
     0
 40
1.0
176
     0
 40
1.0
176
     0
  0
VISUALSTYLE
  5
33
102
{ACAD_REACTORS
330
2A
102
}
330
2A
100
AcDbVisualStyle
  2
Realistic
 70
     8
177
     3
291
     0
 70
    58
 90
        2
176
     1
 90
        3
176
     1
 90
        0
176
     1
 90
        2
176
     1
 40
0.6
176
     1
 40
30.0
176
     1
 62
     7
420
 16777215
176
     1
 90
        0
176
     1
 90
        0
176
     1
 62
     7
176
     1
 62
   257
176
     1
 90
        1
176
     1
 90
        1
176
     1
 40
1.0
176
     1
 90
        8
176
     1
 62
   257
176
     1
 40
1.0
176
     1
 90
        1
176
     1
 90
        6
176
     1
 90
        2
176
     1
 62
     7
176
     1
 90
        3
176
     1
 90
        0
176
     1
 90
        0
176
     1
290
     0
176
     1
 90
       13
176
     1
 40
0.0
176
     1
 90
        0
176
     1
290
     0
176
     1
290
     1
176
     1
290
     1
176
     1
290
     0
176
     1
290
     0
176
     1
290
     0
176
     1
290
     0
176
     1
290
     0
176
     1
290
     0
176
     1
 90
       50
176
     1
 40
0.0
176
     1
 40
1.0
176
     1
 90
        0
176
     1
 62
    18
420
        0
176
     1
 90
       50
176
     1
 90
        3
176
     1
 62
     5
420
      255
176
     1
290
     0
176
     1
 90
       50
176
     1
 90
       50
176
     1
 90
       50
176
     1
290
     0
176
     1
 90
       50
176
     1
 62
   256
176
     0
 40
1.0
176
     0
 90
        2
176
     1
  1
strokes_ogs.tif
176
     1
290
     0
176
     1
 40
1.0
176
     1
 40
1.0
176
     1
  0
VISUALSTYLE
  5
42
102
{ACAD_REACTORS
330
2A
102
}
330
2A
100
AcDbVisualStyle
  2
Shaded
 70
    27
177
     3
291
     0
 70
    58
 90
        2
176
     1
 90
        2
176
     1
 90
        1
176
     1
 90
        2
176
     1
 40
0.6
176
     1
 40
30.0
176
     1
 62
     7
420
 16777215
176
     1
 90
        0
176
     1
 90
        4
176
     1
 62
     7
176
     1
 62
   257
176
     1
 90
        1
176
     1
 90
        1
176
     1
 40
1.0
176
     1
 90
        8
176
     1
 62
   257
176
     1
 40
1.0
176
     1
 90
        1
176
     1
 90
        6
176
     1
 90
        2
176
     1
 62
     8
420
  7895160
176
     1
 90
        3
176
     1
 90
        0
176
     1
 90
        0
176
     1
290
     0
176
     1
 90
        5
176
     1
 40
0.0
176
     1
 90
        0
176
     1
290
     0
176
     1
290
     1
176
     1
290
     1
176
     1
290
     0
176
     1
290
     0
176
     1
290
     0
176
     1
290
     0
176
     1
290
     0
176
     1
290
     0
176
     1
 90
       50
176
     1
 40
0.0
176
     1
 40
1.0
176
     1
 90
        0
176
     1
 62
    18
420
        0
176
     1
 90
       50
176
     1
 90
        3
176
     1
 62
     5
420
      255
176
     1
290
     0
176
     1
 90
       50
176
     1
 90
       50
176
     1
 90
       50
176
     1
290
     0
176
     1
 90
       50
176
     1
 62
   256
176
     0
 40
1.0
176
     0
 90
        2
176
     1
  1
strokes_ogs.tif
176
     1
290
     0
176
     1
 40
1.0
176
     1
 40
1.0
176
     1
  0
VISUALSTYLE
  5
41
102
{ACAD_REACTORS
330
2A
102
}
330
2A
100
AcDbVisualStyle
  2
Shaded with edges
 70
    26
177
     3
291
     0
 70
    58
 90
        2
176
     1
 90
        2
176
     1
 90
        1
176
     1
 90
        2
176
     1
 40
0.6
176
     1
 40
30.0
176
     1
 62
     7
420
 16777215
176
     1
 90
        1
176
     1
 90
       10
176
     1
 62
     7
176
     1
 62
   257
176
     1
 90
        2
176
     1
 90
        1
176
     1
 40
1.0
176
     1
 90
        8
176
     1
 62
   257
176
     1
 40
1.0
176
     1
 90
        1
176
     1
 90
        6
176
     1
 90
        2
176
     1
 62
     7
176
     1
 90
        3
176
     1
 90
        0
176
     1
 90
        0
176
     1
290
     0
176
     1
 90
        5
176
     1
 40
0.0
176
     1
 90
        0
176
     1
290
     0
176
     1
290
     1
176
     1
290
     1
176
     1
290
     0
176
     1
290
     0
176
     1
290
     0
176
     1
290
     0
176
     1
290
     0
176
     1
290
     0
176
     1
 90
       50
176
     1
 40
0.0
176
     1
 40
1.0
176
     1
 90
        0
176
     1
 62
    18
420
        0
176
     1
 90
       50
176
     1
 90
        3
176
     1
 62
     5
420
      255
176
     1
290
     0
176
     1
 90
       50
176
     1
 90
       50
176
     1
 90
       50
176
     1
290
     0
176
     1
 90
       50
176
     1
 62
   256
176
     0
 40
1.0
176
     0
 90
        2
176
     1
  1
strokes_ogs.tif
176
     1
290
     0
176
     1
 40
1.0
176
     1
 40
1.0
176
     1
  0
VISUALSTYLE
  5
3E
102
{ACAD_REACTORS
330
2A
102
}
330
2A
100
AcDbVisualStyle
  2
Shades of Gray
 70
    23
177
     3
291
     0
 70
    58
 90
        2
176
     1
 90
        2
176
     1
 90
        3
176
     1
 90
        0
176
     1
 40
0.6
176
     1
 40
30.0
176
     1
 62
     7
420
 16777215
176
     1
 90
        2
176
     1
 90
        2
176
     1
 62
     7
176
     1
 62
     7
176
     1
 90
        1
176
     1
 90
        1
176
     1
 40
40.0
176
     1
 90
        8
176
     1
 62
     7
176
     1
 40
1.0
176
     1
 90
        1
176
     1
 90
        6
176
     1
 90
        2
176
     1
 62
     7
176
     1
 90
        3
176
     1
 90
        0
176
     1
 90
        0
176
     1
290
     0
176
     1
 90
        1
176
     1
 40
0.0
176
     1
 90
        0
176
     1
290
     0
176
     1
290
     1
176
     1
290
     1
176
     1
290
     0
176
     1
290
     0
176
     1
290
     0
176
     1
290
     0
176
     1
290
     0
176
     1
290
     0
176
     1
 90
       50
176
     1
 40
0.0
176
     1
 40
1.0
176
     1
 90
        0
176
     1
 62
    18
420
        0
176
     1
 90
       50
176
     1
 90
        3
176
     1
 62
     5
420
      255
176
     1
290
     0
176
     1
 90
       50
176
     1
 90
       50
176
     1
 90
       50
176
     1
290
     0
176
     1
 90
       50
176
     1
 62
   256
176
     0
 40
1.0
176
     0
 90
        2
176
     1
  1
strokes_ogs.tif
176
     1
290
     0
176
     1
 40
1.0
176
     1
 40
1.0
176
     1
  0
VISUALSTYLE
  5
3F
102
{ACAD_REACTORS
330
2A
102
}
330
2A
100
AcDbVisualStyle
  2
Sketchy
 70
    24
177
     3
291
     0
 70
    58
 90
        1
176
     1
 90
        2
176
     1
 90
        2
176
     1
 90
        0
176
     1
 40
0.6
176
     1
 40
30.0
176
     1
 62
     7
420
 16777215
176
     1
 90
        2
176
     1
 90
        2
176
     1
 62
     7
176
     1
 62
     7
176
     1
 90
        1
176
     1
 90
        1
176
     1
 40
40.0
176
     1
 90
       11
176
     1
 62
     7
176
     1
 40
1.0
176
     1
 90
        1
176
     1
 90
        6
176
     1
 90
        2
176
     1
 62
     7
176
     1
 90
        6
176
     1
 90
        0
176
     1
 90
        0
176
     1
290
     0
176
     1
 90
        1
176
     1
 40
0.0
176
     1
 90
        0
176
     1
290
     0
176
     1
290
     1
176
     1
290
     1
176
     1
290
     0
176
     1
290
     0
176
     1
290
     0
176
     1
290
     0
176
     1
290
     0
176
     1
290
     0
176
     1
 90
       50
176
     1
 40
0.0
176
     1
 40
1.0
176
     1
 90
        0
176
     1
 62
    18
420
        0
176
     1
 90
       50
176
     1
 90
        3
176
     1
 62
     5
420
      255
176
     1
290
     0
176
     1
 90
       50
176
     1
 90
       50
176
     1
 90
       50
176
     1
290
     0
176
     1
 90
       50
176
     1
 62
   256
176
     0
 40
1.0
176
     0
 90
        2
176
     1
  1
strokes_ogs.tif
176
     1
290
     0
176
     1
 40
1.0
176
     1
 40
1.0
176
     1
  0
VISUALSTYLE
  5
37
102
{ACAD_REACTORS
330
2A
102
}
330
2A
100
AcDbVisualStyle
  2
Thicken
 70
    13
177
     3
291
     1
 70
    58
 90
        2
176
     1
 90
        2
176
     1
 90
        0
176
     1
 90
        0
176
     1
 40
0.6
176
     1
 40
30.0
176
     1
 62
     7
420
 16777215
176
     1
 90
        1
176
     1
 90
        4
176
     1
 62
     7
176
     1
 62
   257
176
     1
 90
        1
176
     1
 90
        1
176
     1
 40
1.0
176
     1
 90
       12
176
     1
 62
     7
176
     1
 40
1.0
176
     1
 90
        1
176
     1
 90
        6
176
     1
 90
        2
176
     1
 62
     7
176
     1
 90
        5
176
     1
 90
        0
176
     1
 90
        0
176
     1
290
     0
176
     1
 90
        1
176
     1
 40
0.0
176
     1
 90
        0
176
     1
290
     0
176
     1
290
     1
176
     1
290
     1
176
     1
290
     0
176
     1
290
     0
176
     1
290
     0
176
     1
290
     0
176
     1
290
     0
176
     1
290
     0
176
     1
 90
       50
176
     1
 40
0.0
176
     1
 40
1.0
176
     1
 90
        0
176
     1
 62
    18
420
        0
176
     1
 90
       50
176
     1
 90
        3
176
     1
 62
     5
420
      255
176
     1
290
     0
176
     1
 90
       50
176
     1
 90
       50
176
     1
 90
       50
176
     1
290
     0
176
     1
 90
       50
176
     1
 62
   256
176
     0
 40
1.0
176
     0
 90
        2
176
     1
  1
strokes_ogs.tif
176
     1
290
     0
176
     1
 40
1.0
176
     1
 40
1.0
176
     1
  0
VISUALSTYLE
  5
30
102
{ACAD_REACTORS
330
2A
102
}
330
2A
100
AcDbVisualStyle
  2
Wireframe
 70
     5
177
     3
291
     0
 70
    58
 90
        0
176
     1
 90
        2
176
     1
 90
        0
176
     1
 90
        0
176
     1
 40
0.6
176
     1
 40
30.0
176
     1
 62
     7
420
 16777215
176
     1
 90
        1
176
     1
 90
        4
176
     1
 62
     7
176
     1
 62
   257
176
     1
 90
        1
176
     1
 90
        1
176
     1
 40
1.0
176
     1
 90
        0
176
     1
 62
   257
176
     1
 40
1.0
176
     1
 90
        1
176
     1
 90
        6
176
     1
 90
        2
176
     1
 62
     7
176
     1
 90
        3
176
     1
 90
        0
176
     1
 90
        0
176
     1
290
     0
176
     1
 90
        1
176
     1
 40
0.0
176
     1
 90
        0
176
     1
290
     0
176
     1
290
     1
176
     1
290
     1
176
     1
290
     0
176
     1
290
     0
176
     1
290
     0
176
     1
290
     0
176
     1
290
     0
176
     1
290
     0
176
     1
 90
       50
176
     1
 40
0.0
176
     1
 40
1.0
176
     1
 90
        0
176
     1
 62
    18
420
        0
176
     1
 90
       50
176
     1
 90
        3
176
     1
 62
     5
420
      255
176
     1
290
     0
176
     1
 90
       50
176
     1
 90
       50
176
     1
 90
       50
176
     1
290
     0
176
     1
 90
       50
176
     1
 62
   256
176
     0
 40
1.0
176
     0
 90
        2
176
     1
  1
strokes_ogs.tif
176
     1
290
     0
176
     1
 40
1.0
176
     1
 40
1.0
176
     1
  0
VISUALSTYLE
  5
40
102
{ACAD_REACTORS
330
2A
102
}
330
2A
100
AcDbVisualStyle
  2
X-Ray
 70
    25
177
     3
291
     0
 70
    58
 90
        2
176
     1
 90
        2
176
     1
 90
        1
176
     1
 90
        1
176
     1
 40
0.5
176
     1
 40
30.0
176
     1
 62
     7
420
 16777215
176
     1
 90
        1
176
     1
 90
        0
176
     1
 62
     7
176
     1
 62
   257
176
     1
 90
        1
176
     1
 90
        1
176
     1
 40
1.0
176
     1
 90
        8
176
     1
 62
     7
176
     1
 40
1.0
176
     1
 90
        1
176
     1
 90
        6
176
     1
 90
        2
176
     1
 62
     7
176
     1
 90
        3
176
     1
 90
        0
176
     1
 90
        0
176
     1
290
     0
176
     1
 90
       13
176
     1
 40
0.0
176
     1
 90
        0
176
     1
290
     0
176
     1
290
     1
176
     1
290
     1
176
     1
290
     0
176
     1
290
     0
176
     1
290
     0
176
     1
290
     0
176
     1
290
     0
176
     1
290
     0
176
     1
 90
       50
176
     1
 40
0.0
176
     1
 40
1.0
176
     1
 90
        0
176
     1
 62
    18
420
        0
176
     1
 90
       50
176
     1
 90
        3
176
     1
 62
     5
420
      255
176
     1
290
     0
176
     1
 90
       50
176
     1
 90
       50
176
     1
 90
       50
176
     1
290
     0
176
     1
 90
       50
176
     1
 62
   256
176
     0
 40
1.0
176
     0
 90
        2
176
     1
  1
strokes_ogs.tif
176
     1
290
     0
176
     1
 40
1.0
176
     1
 40
1.0
176
     1
  0
DICTIONARYVAR
  5
70
102
{ACAD_REACTORS
330
6F
102
}
330
6F
100
DictionaryVariables
280
     0
  1
1:1
  0
DICTIONARYVAR
  5
75
102
{ACAD_REACTORS
330
6F
102
}
330
6F
100
DictionaryVariables
280
     0
  1
Standard
  0
DICTIONARYVAR
  5
74
102
{ACAD_REACTORS
330
6F
102
}
330
6F
100
DictionaryVariables
280
     0
  1
Standard
  0
DICTIONARY
  5
71
330
5A
100
AcDbDictionary
280
     1
281
     1
  3
ACAD_ROUNDTRIP_2008_TABLESTYLE_CELLSTYLEMAP
360
72
  0
CELLSTYLEMAP
  5
72
102
{ACAD_REACTORS
330
71
102
}
330
71
100
AcDbCellStyleMap
 90
        3
300
CELLSTYLE
  1
TABLEFORMAT_BEGIN
 90
        5
170
     1
 91
        0
 92
    32768
 62
   257
 93
        1
300
CONTENTFORMAT
  1
CONTENTFORMAT_BEGIN
 90
        0
 91
        0
 92
        4
 93
        0
300

 40
0.0
140
1.0
 94
        5
 62
     0
340
11
144
0.25
309
CONTENTFORMAT_END
171
     1
301
MARGIN
  1
CELLMARGIN_BEGIN
 40
0.06
 40
0.06
 40
0.06
 40
0.06
 40
0.06
 40
0.06
309
CELLMARGIN_END
 94
        6
 95
        1
302
GRIDFORMAT
  1
GRIDFORMAT_BEGIN
 90
        0
 91
        1
 62
     0
 92
       -2
340
14
 93
        0
 40
0.045
309
GRIDFORMAT_END
 95
        2
302
GRIDFORMAT
  1
GRIDFORMAT_BEGIN
 90
        0
 91
        1
 62
     0
 92
       -2
340
14
 93
        0
 40
0.045
309
GRIDFORMAT_END
 95
        4
302
GRIDFORMAT
  1
GRIDFORMAT_BEGIN
 90
        0
 91
        1
 62
     0
 92
       -2
340
14
 93
        0
 40
0.045
309
GRIDFORMAT_END
 95
        8
302
GRIDFORMAT
  1
GRIDFORMAT_BEGIN
 90
        0
 91
        1
 62
     0
 92
       -2
340
14
 93
        0
 40
0.045
309
GRIDFORMAT_END
 95
       16
302
GRIDFORMAT
  1
GRIDFORMAT_BEGIN
 90
        0
 91
        1
 62
     0
 92
       -2
340
14
 93
        0
 40
0.045
309
GRIDFORMAT_END
 95
       32
302
GRIDFORMAT
  1
GRIDFORMAT_BEGIN
 90
        0
 91
        1
 62
     0
 92
       -2
340
14
 93
        0
 40
0.045
309
GRIDFORMAT_END
309
TABLEFORMAT_END
  1
CELLSTYLE_BEGIN
 90
        1
 91
        1
300
_TITLE
309
CELLSTYLE_END
300
CELLSTYLE
  1
TABLEFORMAT_BEGIN
 90
        5
170
     1
 91
        0
 92
        0
 62
   257
 93
        1
300
CONTENTFORMAT
  1
CONTENTFORMAT_BEGIN
 90
        0
 91
        0
 92
        4
 93
        0
300

 40
0.0
140
1.0
 94
        5
 62
     0
340
11
144
0.18
309
CONTENTFORMAT_END
171
     1
301
MARGIN
  1
CELLMARGIN_BEGIN
 40
0.06
 40
0.06
 40
0.06
 40
0.06
 40
0.06
 40
0.06
309
CELLMARGIN_END
 94
        6
 95
        1
302
GRIDFORMAT
  1
GRIDFORMAT_BEGIN
 90
        0
 91
        1
 62
     0
 92
       -2
340
14
 93
        0
 40
0.045
309
GRIDFORMAT_END
 95
        2
302
GRIDFORMAT
  1
GRIDFORMAT_BEGIN
 90
        0
 91
        1
 62
     0
 92
       -2
340
14
 93
        0
 40
0.045
309
GRIDFORMAT_END
 95
        4
302
GRIDFORMAT
  1
GRIDFORMAT_BEGIN
 90
        0
 91
        1
 62
     0
 92
       -2
340
14
 93
        0
 40
0.045
309
GRIDFORMAT_END
 95
        8
302
GRIDFORMAT
  1
GRIDFORMAT_BEGIN
 90
        0
 91
        1
 62
     0
 92
       -2
340
14
 93
        0
 40
0.045
309
GRIDFORMAT_END
 95
       16
302
GRIDFORMAT
  1
GRIDFORMAT_BEGIN
 90
        0
 91
        1
 62
     0
 92
       -2
340
14
 93
        0
 40
0.045
309
GRIDFORMAT_END
 95
       32
302
GRIDFORMAT
  1
GRIDFORMAT_BEGIN
 90
        0
 91
        1
 62
     0
 92
       -2
340
14
 93
        0
 40
0.045
309
GRIDFORMAT_END
309
TABLEFORMAT_END
  1
CELLSTYLE_BEGIN
 90
        2
 91
        1
300
_HEADER
309
CELLSTYLE_END
300
CELLSTYLE
  1
TABLEFORMAT_BEGIN
 90
        5
170
     1
 91
        0
 92
        0
 62
   257
 93
        1
300
CONTENTFORMAT
  1
CONTENTFORMAT_BEGIN
 90
        0
 91
        0
 92
        4
 93
        0
300

 40
0.0
140
1.0
 94
        2
 62
     0
340
11
144
0.18
309
CONTENTFORMAT_END
171
     1
301
MARGIN
  1
CELLMARGIN_BEGIN
 40
0.06
 40
0.06
 40
0.06
 40
0.06
 40
0.06
 40
0.06
309
CELLMARGIN_END
 94
        6
 95
        1
302
GRIDFORMAT
  1
GRIDFORMAT_BEGIN
 90
        0
 91
        1
 62
     0
 92
       -2
340
14
 93
        0
 40
0.045
309
GRIDFORMAT_END
 95
        2
302
GRIDFORMAT
  1
GRIDFORMAT_BEGIN
 90
        0
 91
        1
 62
     0
 92
       -2
340
14
 93
        0
 40
0.045
309
GRIDFORMAT_END
 95
        4
302
GRIDFORMAT
  1
GRIDFORMAT_BEGIN
 90
        0
 91
        1
 62
     0
 92
       -2
340
14
 93
        0
 40
0.045
309
GRIDFORMAT_END
 95
        8
302
GRIDFORMAT
  1
GRIDFORMAT_BEGIN
 90
        0
 91
        1
 62
     0
 92
       -2
340
14
 93
        0
 40
0.045
309
GRIDFORMAT_END
 95
       16
302
GRIDFORMAT
  1
GRIDFORMAT_BEGIN
 90
        0
 91
        1
 62
     0
 92
       -2
340
14
 93
        0
 40
0.045
309
GRIDFORMAT_END
 95
       32
302
GRIDFORMAT
  1
GRIDFORMAT_BEGIN
 90
        0
 91
        1
 62
     0
 92
       -2
340
14
 93
        0
 40
0.045
309
GRIDFORMAT_END
309
TABLEFORMAT_END
  1
CELLSTYLE_BEGIN
 90
        3
 91
        2
300
_DATA
309
CELLSTYLE_END
  0
ENDSEC
  0
EOF
