  0
SECTION
  2
HEADER
  9
$ACADVER
  1
AC1032
  9
$ACADMAINTVER
 90
       55
  9
$DWGCODEPAGE
  3
UNDEFINED
  9
$LASTSAVEDBY
  1
Administrator
  9
$REQUIREDVERSIONS
160
                 0
  9
$INSBASE
 10
0.0
 20
0.0
 30
0.0
  9
$EXTMIN
 10
-19.1251
 20
-33.8663
 30
0.0
  9
$EXTMAX
 10
23.2641
 20
26.1337
 30
0.0
  9
$LIMMIN
 10
0.0
 20
0.0
  9
$LIMMAX
 10
12.0
 20
9.0
  9
$ORTHOMODE
 70
     0
  9
$REGENMODE
 70
     1
  9
$FILLMODE
 70
     1
  9
$QTEXTMODE
 70
     0
  9
$MIRRTEXT
 70
     1
  9
$LTSCALE
 40
1.0
  9
$ATTMODE
 70
     1
  9
$TEXTSIZE
 40
0.2
  9
$TRACEWID
 40
0.05
  9
$TEXTSTYLE
  7
Standard
  9
$CLAYER
  8
0
  9
$CELTYPE
  6
ByLayer
  9
$CECOLOR
 62
   256
  9
$CELTSCALE
 40
1.0
  9
$DISPSILH
 70
     0
  9
$DIMSCALE
 40
1.0
  9
$DIMASZ
 40
0.18
  9
$DIMEXO
 40
0.0625
  9
$DIMDLI
 40
0.38
  9
$DIMRND
 40
0.0
  9
$DIMDLE
 40
0.0
  9
$DIMEXE
 40
0.18
  9
$DIMTP
 40
0.0
  9
$DIMTM
 40
0.0
  9
$DIMTXT
 40
0.18
  9
$DIMCEN
 40
0.09
  9
$DIMTSZ
 40
0.0
  9
$DIMTOL
 70
     0
  9
$DIMLIM
 70
     0
  9
$DIMTIH
 70
     1
  9
$DIMTOH
 70
     1
  9
$DIMSE1
 70
     0
  9
$DIMSE2
 70
     0
  9
$DIMTAD
 70
     0
  9
$DIMZIN
 70
     0
  9
$DIMBLK
  1

  9
$DIMASO
 70
     1
  9
$DIMSHO
 70
     1
  9
$DIMPOST
  1

  9
$DIMAPOST
  1

  9
$DIMALT
 70
     0
  9
$DIMALTD
 70
     2
  9
$DIMALTF
 40
25.4
  9
$DIMLFAC
 40
1.0
  9
$DIMTOFL
 70
     0
  9
$DIMTVP
 40
0.0
  9
$DIMTIX
 70
     0
  9
$DIMSOXD
 70
     0
  9
$DIMSAH
 70
     0
  9
$DIMBLK1
  1

  9
$DIMBLK2
  1

  9
$DIMSTYLE
  2
Standard
  9
$DIMCLRD
 70
     0
  9
$DIMCLRE
 70
     0
  9
$DIMCLRT
 70
     0
  9
$DIMTFAC
 40
1.0
  9
$DIMGAP
 40
0.09
  9
$DIMJUST
 70
     0
  9
$DIMSD1
 70
     0
  9
$DIMSD2
 70
     0
  9
$DIMTOLJ
 70
     1
  9
$DIMTZIN
 70
     0
  9
$DIMALTZ
 70
     0
  9
$DIMALTTZ
 70
     0
  9
$DIMUPT
 70
     0
  9
$DIMDEC
 70
     4
  9
$DIMTDEC
 70
     4
  9
$DIMALTU
 70
     2
  9
$DIMALTTD
 70
     2
  9
$DIMTXSTY
  7
Standard
  9
$DIMAUNIT
 70
     0
  9
$DIMADEC
 70
     0
  9
$DIMALTRND
 40
0.0
  9
$DIMAZIN
 70
     0
  9
$DIMDSEP
 70
    46
  9
$DIMATFIT
 70
     3
  9
$DIMFRAC
 70
     0
  9
$DIMLDRBLK
  1

  9
$DIMLUNIT
 70
     2
  9
$DIMLWD
 70
    -2
  9
$DIMLWE
 70
    -2
  9
$DIMTMOVE
 70
     0
  9
$DIMFXL
 40
1.0
  9
$DIMFXLON
 70
     0
  9
$DIMJOGANG
 40
0.7853981633974483
  9
$DIMTFILL
 70
     0
  9
$DIMTFILLCLR
 70
     0
  9
$DIMARCSYM
 70
     0
  9
$DIMLTYPE
  6

  9
$DIMLTEX1
  6

  9
$DIMLTEX2
  6

  9
$DIMTXTDIRECTION
 70
     0
  9
$LUNITS
 70
     2
  9
$LUPREC
 70
     4
  9
$SKETCHINC
 40
0.1
  9
$FILLETRAD
 40
0.0
  9
$AUNITS
 70
     0
  9
$AUPREC
 70
     0
  9
$MENU
  1
.
  9
$ELEVATION
 40
0.0
  9
$PELEVATION
 40
0.0
  9
$THICKNESS
 40
0.0
  9
$LIMCHECK
 70
     0
  9
$CHAMFERA
 40
0.0
  9
$CHAMFERB
 40
0.0
  9
$CHAMFERC
 40
0.0
  9
$CHAMFERD
 40
0.0
  9
$SKPOLY
 70
     0
  9
$TDCREATE
 40
2460361.521840475
  9
$TDUCREATE
 40
2460361.376007141
  9
$TDUPDATE
 40
2460361.521840694
  9
$TDUUPDATE
 40
2460361.376007361
  9
$TDINDWG
 40
0.0000000116
  9
$TDUSRTIMER
 40
0.0000000116
  9
$USRTIMER
 70
     1
  9
$ANGBASE
 50
0.0
  9
$ANGDIR
 70
     0
  9
$PDMODE
 70
     0
  9
$PDSIZE
 40
0.0
  9
$PLINEWID
 40
0.0
  9
$SPLFRAME
 70
     0
  9
$SPLINETYPE
 70
     6
  9
$SPLINESEGS
 70
     8
  9
$HANDSEED
  5
A5
  9
$SURFTAB1
 70
     6
  9
$SURFTAB2
 70
     6
  9
$SURFTYPE
 70
     6
  9
$SURFU
 70
     6
  9
$SURFV
 70
     6
  9
$UCSBASE
  2

  9
$UCSNAME
  2

  9
$UCSORG
 10
0.0
 20
0.0
 30
0.0
  9
$UCSXDIR
 10
1.0
 20
0.0
 30
0.0
  9
$UCSYDIR
 10
0.0
 20
1.0
 30
0.0
  9
$UCSORTHOREF
  2

  9
$UCSORTHOVIEW
 70
     0
  9
$UCSORGTOP
 10
0.0
 20
0.0
 30
0.0
  9
$UCSORGBOTTOM
 10
0.0
 20
0.0
 30
0.0
  9
$UCSORGLEFT
 10
0.0
 20
0.0
 30
0.0
  9
$UCSORGRIGHT
 10
0.0
 20
0.0
 30
0.0
  9
$UCSORGFRONT
 10
0.0
 20
0.0
 30
0.0
  9
$UCSORGBACK
 10
0.0
 20
0.0
 30
0.0
  9
$PUCSBASE
  2

  9
$PUCSNAME
  2

  9
$PUCSORG
 10
0.0
 20
0.0
 30
0.0
  9
$PUCSXDIR
 10
1.0
 20
0.0
 30
0.0
  9
$PUCSYDIR
 10
0.0
 20
1.0
 30
0.0
  9
$PUCSORTHOREF
  2

  9
$PUCSORTHOVIEW
 70
     0
  9
$PUCSORGTOP
 10
0.0
 20
0.0
 30
0.0
  9
$PUCSORGBOTTOM
 10
0.0
 20
0.0
 30
0.0
  9
$PUCSORGLEFT
 10
0.0
 20
0.0
 30
0.0
  9
$PUCSORGRIGHT
 10
0.0
 20
0.0
 30
0.0
  9
$PUCSORGFRONT
 10
0.0
 20
0.0
 30
0.0
  9
$PUCSORGBACK
 10
0.0
 20
0.0
 30
0.0
  9
$USERI1
 70
     0
  9
$USERI2
 70
     0
  9
$USERI3
 70
     0
  9
$USERI4
 70
     0
  9
$USERI5
 70
     0
  9
$USERR1
 40
0.0
  9
$USERR2
 40
0.0
  9
$USERR3
 40
0.0
  9
$USERR4
 40
0.0
  9
$USERR5
 40
0.0
  9
$WORLDVIEW
 70
     1
  9
$SHADEDGE
 70
     3
  9
$SHADEDIF
 70
    70
  9
$TILEMODE
 70
     1
  9
$MAXACTVP
 70
    64
  9
$PINSBASE
 10
0.0
 20
0.0
 30
0.0
  9
$PLIMCHECK
 70
     0
  9
$PEXTMIN
 10
1.000000000000000E+20
 20
1.000000000000000E+20
 30
1.000000000000000E+20
  9
$PEXTMAX
 10
-1.000000000000000E+20
 20
-1.000000000000000E+20
 30
-1.000000000000000E+20
  9
$PLIMMIN
 10
0.0
 20
0.0
  9
$PLIMMAX
 10
12.0
 20
9.0
  9
$UNITMODE
 70
     0
  9
$VISRETAIN
 70
     1
  9
$PLINEGEN
 70
     0
  9
$PSLTSCALE
 70
     1
  9
$TREEDEPTH
 70
  3020
  9
$CMLSTYLE
  2
Standard
  9
$CMLJUST
 70
     0
  9
$CMLSCALE
 40
1.0
  9
$PROXYGRAPHICS
 70
     1
  9
$MEASUREMENT
 70
     0
  9
$CELWEIGHT
370
    -1
  9
$ENDCAPS
280
     0
  9
$JOINSTYLE
280
     0
  9
$LWDISPLAY
290
     0
  9
$INSUNITS
 70
     4
  9
$HYPERLINKBASE
  1

  9
$STYLESHEET
  1

  9
$XEDIT
290
     1
  9
$CEPSNTYPE
380
     0
  9
$PSTYLEMODE
290
     1
  9
$FINGERPRINTGUID
  2
{720bdbc4-0517-4825-86b5-fa759c57dd69}
  9
$VERSIONGUID
  2
{FAEB1C32-E019-11D5-929B-00C0DF256EC4}
  9
$EXTNAMES
290
     1
  9
$PSVPSCALE
 40
0.0
  9
$OLESTARTUP
290
     0
  9
$SORTENTS
280
   127
  9
$INDEXCTL
280
     0
  9
$HIDETEXT
280
     1
  9
$XCLIPFRAME
280
     2
  9
$HALOGAP
280
     0
  9
$OBSCOLOR
 70
   257
  9
$OBSLTYPE
280
     0
  9
$INTERSECTIONDISPLAY
280
     0
  9
$INTERSECTIONCOLOR
 70
   257
  9
$DIMASSOC
280
     2
  9
$PROJECTNAME
  1

  9
$CAMERADISPLAY
290
     0
  9
$LENSLENGTH
 40
50.0
  9
$CAMERAHEIGHT
 40
0.0
  9
$STEPSPERSEC
 40
2.0
  9
$STEPSIZE
 40
6.0
  9
$3DDWFPREC
 40
2.0
  9
$PSOLWIDTH
 40
0.25
  9
$PSOLHEIGHT
 40
4.0
  9
$LOFTANG1
 40
1.570796326794897
  9
$LOFTANG2
 40
1.570796326794897
  9
$LOFTMAG1
 40
0.0
  9
$LOFTMAG2
 40
0.0
  9
$LOFTPARAM
 70
     7
  9
$LOFTNORMALS
280
     1
  9
$LATITUDE
 40
37.795
  9
$LONGITUDE
 40
-122.394
  9
$NORTHDIRECTION
 40
0.0
  9
$TIMEZONE
 70
 -8000
  9
$LIGHTGLYPHDISPLAY
280
     1
  9
$TILEMODELIGHTSYNCH
280
     1
  9
$CMATERIAL
347
44
  9
$SOLIDHIST
280
     0
  9
$SHOWHIST
280
     1
  9
$DWFFRAME
280
     2
  9
$DGNFRAME
280
     2
  9
$REALWORLDSCALE
290
     1
  9
$INTERFERECOLOR
 62
   256
  9
$CSHADOW
280
     0
  9
$SHADOWPLANELOCATION
 40
0.0
  0
ENDSEC
  0
SECTION
  2
CLASSES
  0
CLASS
  1
ACDBDICTIONARYWDFLT
  2
AcDbDictionaryWithDefault
  3
ObjectDBX Classes
 90
        0
 91
        3
280
     0
281
     0
  0
CLASS
  1
VISUALSTYLE
  2
AcDbVisualStyle
  3
ObjectDBX Classes
 90
     4095
 91
        3
280
     0
281
     0
  0
CLASS
  1
MATERIAL
  2
AcDbMaterial
  3
ObjectDBX Classes
 90
     1153
 91
        3
280
     0
281
     0
  0
CLASS
  1
SCALE
  2
AcDbScale
  3
ObjectDBX Classes
 90
     1153
 91
        3
280
     0
281
     0
  0
CLASS
  1
TABLESTYLE
  2
AcDbTableStyle
  3
ObjectDBX Classes
 90
     4095
 91
        3
280
     0
281
     0
  0
CLASS
  1
MLEADERSTYLE
  2
AcDbMLeaderStyle
  3
ACDB_MLEADERSTYLE_CLASS
 90
     4095
 91
        3
280
     0
281
     0
  0
CLASS
  1
SUN
  2
AcDbSun
  3
SCENEOE
 90
     1153
 91
        3
280
     0
281
     0
  0
CLASS
  1
DICTIONARYVAR
  2
AcDbDictionaryVar
  3
ObjectDBX Classes
 90
        0
 91
        3
280
     0
281
     0
  0
CLASS
  1
CELLSTYLEMAP
  2
AcDbCellStyleMap
  3
ObjectDBX Classes
 90
     1152
 91
        3
280
     0
281
     0
  0
ENDSEC
  0
SECTION
  2
TABLES
  0
TABLE
  2
VPORT
  5
8
330
0
100
AcDbSymbolTable
 70
     1
  0
VPORT
  5
29
330
8
100
AcDbSymbolTableRecord
100
AcDbViewportTableRecord
  2
*Active
 70
     0
 10
0.0
 20
0.0
 11
1.0
 21
1.0
 12
10.42990654205607
 22
4.5
 13
0.0
 23
0.0
 14
0.5
 24
0.5
 15
0.5
 25
0.5
 16
0.0
 26
0.0
 36
1.0
 17
0.0
 27
0.0
 37
0.0
 40
9.0
 41
1.972972972850329
 42
50.0
 43
0.0
 44
0.0
 50
0.0
 51
0.0
 71
     0
 72
   100
 73
     1
 74
     3
 75
     0
 76
     0
 77
     0
 78
     0
281
     0
 65
     1
110
0.0
120
0.0
130
0.0
111
1.0
121
0.0
131
0.0
112
0.0
122
1.0
132
0.0
 79
     0
146
0.0
348
2F
 60
     3
 61
     5
292
     1
282
     1
141
0.0
142
0.0
 63
   250
361
5D
  0
ENDTAB
  0
TABLE
  2
LTYPE
  5
5
330
0
100
AcDbSymbolTable
 70
     1
  0
LTYPE
  5
14
330
5
100
AcDbSymbolTableRecord
100
AcDbLinetypeTableRecord
  2
ByBlock
 70
     0
  3

 72
    65
 73
     0
 40
0.0
  0
LTYPE
  5
15
330
5
100
AcDbSymbolTableRecord
100
AcDbLinetypeTableRecord
  2
ByLayer
 70
     0
  3

 72
    65
 73
     0
 40
0.0
  0
LTYPE
  5
16
330
5
100
AcDbSymbolTableRecord
100
AcDbLinetypeTableRecord
  2
Continuous
 70
     0
  3
Solid line
 72
    65
 73
     0
 40
0.0
  0
ENDTAB
  0
TABLE
  2
LAYER
  5
2
330
0
100
AcDbSymbolTable
 70
     2
  0
LAYER
  5
10
330
2
100
AcDbSymbolTableRecord
100
AcDbLayerTableRecord
  2
0
 70
     0
 62
     7
  6
Continuous
370
    -3
390
F
347
46
348
0
  0
LAYER
  5
5F
330
2
100
AcDbSymbolTableRecord
100
AcDbLayerTableRecord
  2
Layer 1
 70
     0
 62
     7
  6
Continuous
370
    -3
390
F
347
46
348
0
  0
ENDTAB
  0
TABLE
  2
STYLE
  5
3
330
0
100
AcDbSymbolTable
 70
     1
  0
STYLE
  5
11
330
3
100
AcDbSymbolTableRecord
100
AcDbTextStyleTableRecord
  2
Standard
 70
     0
 40
0.0
 41
1.0
 50
0.0
 71
     0
 42
0.2
  3
txt
  4

  0
ENDTAB
  0
TABLE
  2
VIEW
  5
6
330
0
100
AcDbSymbolTable
 70
     0
  0
ENDTAB
  0
TABLE
  2
UCS
  5
7
330
0
100
AcDbSymbolTable
 70
     0
  0
ENDTAB
  0
TABLE
  2
APPID
  5
9
330
0
100
AcDbSymbolTable
 70
     2
  0
APPID
  5
12
330
9
100
AcDbSymbolTableRecord
100
AcDbRegAppTableRecord
  2
ACAD
 70
     0
  0
APPID
  5
5E
330
9
100
AcDbSymbolTableRecord
100
AcDbRegAppTableRecord
  2
ODA
 70
     0
  0
ENDTAB
  0
TABLE
  2
DIMSTYLE
  5
A
330
0
100
AcDbSymbolTable
 70
     1
100
AcDbDimStyleTable
  0
DIMSTYLE
105
27
330
A
100
AcDbSymbolTableRecord
100
AcDbDimStyleTableRecord
  2
Standard
 70
     0
178
     0
340
11
  0
ENDTAB
  0
TABLE
  2
BLOCK_RECORD
  5
1
330
0
100
AcDbSymbolTable
 70
     1
  0
BLOCK_RECORD
  5
1F
330
1
100
AcDbSymbolTableRecord
100
AcDbBlockTableRecord
  2
*Model_Space
340
22
 70
     0
280
     1
281
     0
  0
BLOCK_RECORD
  5
1B
330
1
100
AcDbSymbolTableRecord
100
AcDbBlockTableRecord
  2
*Paper_Space
340
1E
 70
     0
280
     1
281
     0
  0
BLOCK_RECORD
  5
23
330
1
100
AcDbSymbolTableRecord
100
AcDbBlockTableRecord
  2
*Paper_Space0
340
26
 70
     0
280
     1
281
     0
  0
ENDTAB
  0
ENDSEC
  0
SECTION
  2
BLOCKS
  0
BLOCK
  5
20
330
1F
100
AcDbEntity
  8
0
100
AcDbBlockBegin
  2
*Model_Space
 70
     0
 10
0.0
 20
0.0
 30
0.0
  3
*Model_Space
  1

  0
ENDBLK
  5
21
330
1F
100
AcDbEntity
  8
0
100
AcDbBlockEnd
  0
BLOCK
  5
1C
330
1B
100
AcDbEntity
 67
     1
  8
0
100
AcDbBlockBegin
  2
*Paper_Space
 70
     0
 10
0.0
 20
0.0
 30
0.0
  3
*Paper_Space
  1

  0
ENDBLK
  5
1D
330
1B
100
AcDbEntity
 67
     1
  8
0
100
AcDbBlockEnd
  0
BLOCK
  5
24
330
23
100
AcDbEntity
  8
0
100
AcDbBlockBegin
  2
*Paper_Space0
 70
     0
 10
0.0
 20
0.0
 30
0.0
  3
*Paper_Space0
  1

  0
ENDBLK
  5
25
330
23
100
AcDbEntity
  8
0
100
AcDbBlockEnd
  0
ENDSEC
  0
SECTION
  2
ENTITIES
  0
SPLINE
  5
60
330
1F
100
AcDbEntity
  8
Layer 1
 62
   250
100
AcDbSpline
210
0.0
220
0.0
230
1.0
 70
    11
 71
     3
 72
    41
 73
    37
 74
     0
 42
0.0000000001
 43
0.0000000001
 40
0.0
 40
0.0
 40
0.0
 40
0.0
 40
0.0833333333333333
 40
0.0833333333333333
 40
0.0833333333333333
 40
0.1666666666666667
 40
0.1666666666666667
 40
0.1666666666666667
 40
0.25
 40
0.25
 40
0.25
 40
0.3333333333333333
 40
0.3333333333333333
 40
0.3333333333333333
 40
0.4166666666666666
 40
0.4166666666666666
 40
0.4166666666666666
 40
0.5
 40
0.5
 40
0.5
 40
0.5833333333333333
 40
0.5833333333333333
 40
0.5833333333333333
 40
0.6666666666666666
 40
0.6666666666666666
 40
0.6666666666666666
 40
0.75
 40
0.75
 40
0.75
 40
0.8333333333333333
 40
0.8333333333333333
 40
0.8333333333333333
 40
0.9166666666666666
 40
0.9166666666666666
 40
0.9166666666666666
 40
1.0
 40
1.0
 40
1.0
 40
1.0
 10
-12.0315
 20
0.1492
 30
0.0
 10
-12.0315
 20
0.1492
 30
0.0
 10
-8.5133
 20
-1.3727
 30
0.0
 10
-8.5133
 20
-1.3727
 30
0.0
 10
-8.5133
 20
-1.3727
 30
0.0
 10
-8.5033
 20
-1.3445
 30
0.0
 10
-8.5033
 20
-1.3445
 30
0.0
 10
-8.4768
 20
-1.2591
 30
0.0
 10
-8.4779
 20
-1.1573
 30
0.0
 10
-8.507
 20
-1.0396
 30
0.0
 10
-8.5384
 20
-0.9128
 30
0.0
 10
-8.6023
 20
-0.7679
 30
0.0
 10
-8.6985
 20
-0.6057
 30
0.0
 10
-8.8224
 20
-0.3939
 30
0.0
 10
-8.9598
 20
-0.1993
 30
0.0
 10
-9.1101
 20
-0.0222
 30
0.0
 10
-9.2587
 20
0.1532
 30
0.0
 10
-9.4204
 20
0.3112
 30
0.0
 10
-9.594
 20
0.451
 30
0.0
 10
-9.7685
 20
0.5914
 30
0.0
 10
-9.9479
 20
0.7069
 30
0.0
 10
-10.131
 20
0.7972
 30
0.0
 10
-10.313
 20
0.8869
 30
0.0
 10
-10.4995
 20
0.952
 30
0.0
 10
-10.6893
 20
0.9918
 30
0.0
 10
-11.0794
 20
1.0738
 30
0.0
 10
-11.3863
 20
1.0648
 30
0.0
 10
-11.6088
 20
0.9665
 30
0.0
 10
-11.8203
 20
0.8729
 30
0.0
 10
-11.9592
 20
0.6923
 30
0.0
 10
-12.0243
 20
0.4261
 30
0.0
 10
-12.0419
 20
0.354
 30
0.0
 10
-12.0495
 20
0.2904
 30
0.0
 10
-12.0471
 20
0.2361
 30
0.0
 10
-12.0458
 20
0.2034
 30
0.0
 10
-12.0405
 20
0.1743
 30
0.0
 10
-12.0315
 20
0.1492
 30
0.0
  0
SPLINE
  5
61
330
1F
100
AcDbEntity
  8
Layer 1
 62
   250
100
AcDbSpline
210
0.0
220
0.0
230
1.0
 70
    11
 71
     3
 72
    35
 73
    31
 74
     0
 42
0.0000000001
 43
0.0000000001
 40
0.0
 40
0.0
 40
0.0
 40
0.0
 40
0.1
 40
0.1
 40
0.1
 40
0.2
 40
0.2
 40
0.2
 40
0.3
 40
0.3
 40
0.3
 40
0.4
 40
0.4
 40
0.4
 40
0.5
 40
0.5
 40
0.5
 40
0.6000000000000001
 40
0.6000000000000001
 40
0.6000000000000001
 40
0.7000000000000001
 40
0.7000000000000001
 40
0.7000000000000001
 40
0.8
 40
0.8
 40
0.8
 40
0.9
 40
0.9
 40
0.9
 40
1.0
 40
1.0
 40
1.0
 40
1.0
 10
20.0499
 20
22.019
 30
0.0
 10
20.0499
 20
22.019
 30
0.0
 10
2.2624
 20
25.884
 30
0.0
 10
2.2624
 20
25.884
 30
0.0
 10
2.2624
 20
25.884
 30
0.0
 10
-7.4134
 20
23.8084
 30
0.0
 10
-7.4134
 20
23.8084
 30
0.0
 10
-6.4145
 20
23.2774
 30
0.0
 10
-5.1597
 20
22.184
 30
0.0
 10
-4.8463
 20
21.9052
 30
0.0
 10
-4.5783
 20
22.1043
 30
0.0
 10
-4.2095
 20
21.9854
 30
0.0
 10
-4.0842
 20
21.9357
 30
0.0
 10
-1.5258
 20
22.9605
 30
0.0
 10
1.0805
 20
23.6334
 30
0.0
 10
1.088
 20
23.6352
 30
0.0
 10
2.7635
 20
24.1159
 30
0.0
 10
3.31
 20
21.9552
 30
0.0
 10
3.3185
 20
21.9206
 30
0.0
 10
3.9264
 20
20.1625
 30
0.0
 10
3.4333
 20
20.0874
 30
0.0
 10
3.2943
 20
20.0976
 30
0.0
 10
2.1325
 20
19.7426
 30
0.0
 10
0.3724
 20
19.7493
 30
0.0
 10
-0.3707
 20
19.7706
 30
0.0
 10
0.9143
 20
18.7682
 30
0.0
 10
1.8508
 20
17.6022
 30
0.0
 10
2.5229
 20
16.5224
 30
0.0
 10
8.3715
 20
18.3242
 30
0.0
 10
14.21
 20
20.1886
 30
0.0
 10
20.0499
 20
22.019
 30
0.0
  0
SPLINE
  5
62
330
1F
100
AcDbEntity
  8
Layer 1
 62
   250
100
AcDbSpline
210
0.0
220
0.0
230
1.0
 70
    11
 71
     3
 72
    23
 73
    19
 74
     0
 42
0.0000000001
 43
0.0000000001
 40
0.0
 40
0.0
 40
0.0
 40
0.0
 40
0.1666666666666667
 40
0.1666666666666667
 40
0.1666666666666667
 40
0.3333333333333333
 40
0.3333333333333333
 40
0.3333333333333333
 40
0.5
 40
0.5
 40
0.5
 40
0.6666666666666666
 40
0.6666666666666666
 40
0.6666666666666666
 40
0.8333333333333333
 40
0.8333333333333333
 40
0.8333333333333333
 40
1.0
 40
1.0
 40
1.0
 40
1.0
 10
-9.9018
 20
23.2745
 30
0.0
 10
-9.9018
 20
23.2745
 30
0.0
 10
-16.4327
 20
21.8735
 30
0.0
 10
-16.4327
 20
21.8735
 30
0.0
 10
-16.4327
 20
21.8735
 30
0.0
 10
-9.4495
 20
19.7997
 30
0.0
 10
-9.4495
 20
19.7997
 30
0.0
 10
-9.0423
 20
20.0453
 30
0.0
 10
-8.7104
 20
20.2168
 30
0.0
 10
-8.492
 20
20.3222
 30
0.0
 10
-8.492
 20
20.3222
 30
0.0
 10
-9.8925
 20
20.6773
 30
0.0
 10
-9.8925
 20
20.6773
 30
0.0
 10
-12.4157
 20
20.9024
 30
0.0
 10
-10.1979
 20
22.9538
 30
0.0
 10
-10.0639
 20
23.0756
 30
0.0
 10
-10.0102
 20
23.1467
 30
0.0
 10
-9.956
 20
23.2128
 30
0.0
 10
-9.9018
 20
23.2745
 30
0.0
  0
SPLINE
  5
63
330
1F
100
AcDbEntity
  8
Layer 1
 62
   250
100
AcDbSpline
210
0.0
220
0.0
230
1.0
 70
    11
 71
     3
 72
    32
 73
    28
 74
     0
 42
0.0000000001
 43
0.0000000001
 40
0.0
 40
0.0
 40
0.0
 40
0.0
 40
0.1111111111111111
 40
0.1111111111111111
 40
0.1111111111111111
 40
0.2222222222222222
 40
0.2222222222222222
 40
0.2222222222222222
 40
0.3333333333333333
 40
0.3333333333333333
 40
0.3333333333333333
 40
0.4444444444444444
 40
0.4444444444444444
 40
0.4444444444444444
 40
0.5555555555555556
 40
0.5555555555555556
 40
0.5555555555555556
 40
0.6666666666666666
 40
0.6666666666666666
 40
0.6666666666666666
 40
0.7777777777777777
 40
0.7777777777777777
 40
0.7777777777777777
 40
0.8888888888888888
 40
0.8888888888888888
 40
0.8888888888888888
 40
1.0
 40
1.0
 40
1.0
 40
1.0
 10
-6.8502
 20
19.0279
 30
0.0
 10
-6.8502
 20
19.0279
 30
0.0
 10
-1.8013
 20
17.5286
 30
0.0
 10
-1.8013
 20
17.5286
 30
0.0
 10
-2.4539
 20
18.603
 30
0.0
 10
-3.0653
 20
19.445
 30
0.0
 10
-3.4319
 20
19.9159
 30
0.0
 10
-3.5115
 20
20.0184
 30
0.0
 10
-3.6168
 20
20.0969
 30
0.0
 10
-3.7336
 20
20.1427
 30
0.0
 10
-3.8454
 20
20.1866
 30
0.0
 10
-3.9685
 20
20.2003
 30
0.0
 10
-4.0899
 20
20.176
 30
0.0
 10
-4.2381
 20
20.1463
 30
0.0
 10
-4.3657
 20
20.1362
 30
0.0
 10
-4.475
 20
20.1401
 30
0.0
 10
-4.6061
 20
20.1447
 30
0.0
 10
-4.7109
 20
20.1698
 30
0.0
 10
-4.7943
 20
20.2057
 30
0.0
 10
-4.9126
 20
20.2561
 30
0.0
 10
-5.0419
 20
20.2671
 30
0.0
 10
-5.1678
 20
20.2464
 30
0.0
 10
-5.3038
 20
20.224
 30
0.0
 10
-5.4366
 20
20.1642
 30
0.0
 10
-5.5484
 20
20.0773
 30
0.0
 10
-6.0088
 20
19.7194
 30
0.0
 10
-6.4416
 20
19.3697
 30
0.0
 10
-6.8502
 20
19.0279
 30
0.0
  0
SPLINE
  5
64
330
1F
100
AcDbEntity
  8
Layer 1
 62
   250
100
AcDbSpline
210
0.0
220
0.0
230
1.0
 70
    11
 71
     3
 72
    50
 73
    46
 74
     0
 42
0.0000000001
 43
0.0000000001
 40
0.0
 40
0.0
 40
0.0
 40
0.0
 40
0.0666666666666667
 40
0.0666666666666667
 40
0.0666666666666667
 40
0.1333333333333333
 40
0.1333333333333333
 40
0.1333333333333333
 40
0.2
 40
0.2
 40
0.2
 40
0.2666666666666667
 40
0.2666666666666667
 40
0.2666666666666667
 40
0.3333333333333333
 40
0.3333333333333333
 40
0.3333333333333333
 40
0.4
 40
0.4
 40
0.4
 40
0.4666666666666667
 40
0.4666666666666667
 40
0.4666666666666667
 40
0.5333333333333333
 40
0.5333333333333333
 40
0.5333333333333333
 40
0.6
 40
0.6
 40
0.6
 40
0.6666666666666666
 40
0.6666666666666666
 40
0.6666666666666666
 40
0.7333333333333333
 40
0.7333333333333333
 40
0.7333333333333333
 40
0.8
 40
0.8
 40
0.8
 40
0.8666666666666667
 40
0.8666666666666667
 40
0.8666666666666667
 40
0.9333333333333333
 40
0.9333333333333333
 40
0.9333333333333333
 40
1.0
 40
1.0
 40
1.0
 40
1.0
 10
-16.9622
 20
22.0151
 30
0.0
 10
-16.9622
 20
22.0151
 30
0.0
 10
-9.5652
 20
23.602
 30
0.0
 10
-9.5652
 20
23.602
 30
0.0
 10
-8.7374
 20
24.2799
 30
0.0
 10
-7.9663
 20
24.0467
 30
0.0
 10
-7.9638
 20
24.0459
 30
0.0
 10
-7.9068
 20
24.0288
 30
0.0
 10
-7.8476
 20
24.0077
 30
0.0
 10
-7.7866
 20
23.9835
 30
0.0
 10
-7.7866
 20
23.9835
 30
0.0
 10
2.2369
 20
26.1337
 30
0.0
 10
2.2369
 20
26.1337
 30
0.0
 10
2.2369
 20
26.1337
 30
0.0
 10
2.2891
 20
26.1337
 30
0.0
 10
2.2891
 20
26.1337
 30
0.0
 10
2.2891
 20
26.1337
 30
0.0
 10
20.5632
 20
22.163
 30
0.0
 10
20.5632
 20
22.163
 30
0.0
 10
20.5632
 20
22.163
 30
0.0
 10
20.6617
 20
22.041
 30
0.0
 10
20.6617
 20
22.041
 30
0.0
 10
20.6617
 20
22.041
 30
0.0
 10
20.6617
 20
-2.4971
 30
0.0
 10
20.6617
 20
-2.4971
 30
0.0
 10
20.6617
 20
-2.4971
 30
0.0
 10
20.5811
 20
-2.6137
 30
0.0
 10
20.5811
 20
-2.6137
 30
0.0
 10
20.5811
 20
-2.6137
 30
0.0
 10
1.8838
 20
-9.754
 30
0.0
 10
1.8838
 20
-9.754
 30
0.0
 10
1.8838
 20
-9.754
 30
0.0
 10
1.7955
 20
-9.754
 30
0.0
 10
1.7955
 20
-9.754
 30
0.0
 10
1.7955
 20
-9.754
 30
0.0
 10
-16.9803
 20
-2.634
 30
0.0
 10
-16.9803
 20
-2.634
 30
0.0
 10
-16.9803
 20
-2.634
 30
0.0
 10
-17.0613
 20
-2.5173
 30
0.0
 10
-17.0613
 20
-2.5173
 30
0.0
 10
-17.0613
 20
-2.5173
 30
0.0
 10
-17.0613
 20
21.8931
 30
0.0
 10
-17.0613
 20
21.8931
 30
0.0
 10
-17.0613
 20
21.8931
 30
0.0
 10
-16.9622
 20
22.0151
 30
0.0
 10
-16.9622
 20
22.0151
 30
0.0
  0
SPLINE
  5
65
330
1F
100
AcDbEntity
  8
Layer 1
 62
   250
100
AcDbSpline
210
0.0
220
0.0
230
1.0
 70
    11
 71
     3
 72
    47
 73
    43
 74
     0
 42
0.0000000001
 43
0.0000000001
 40
0.0
 40
0.0
 40
0.0
 40
0.0
 40
0.0714285714285714
 40
0.0714285714285714
 40
0.0714285714285714
 40
0.1428571428571428
 40
0.1428571428571428
 40
0.1428571428571428
 40
0.2142857142857143
 40
0.2142857142857143
 40
0.2142857142857143
 40
0.2857142857142857
 40
0.2857142857142857
 40
0.2857142857142857
 40
0.3571428571428571
 40
0.3571428571428571
 40
0.3571428571428571
 40
0.4285714285714285
 40
0.4285714285714285
 40
0.4285714285714285
 40
0.5
 40
0.5
 40
0.5
 40
0.5714285714285714
 40
0.5714285714285714
 40
0.5714285714285714
 40
0.6428571428571428
 40
0.6428571428571428
 40
0.6428571428571428
 40
0.7142857142857142
 40
0.7142857142857142
 40
0.7142857142857142
 40
0.7857142857142857
 40
0.7857142857142857
 40
0.7857142857142857
 40
0.8571428571428571
 40
0.8571428571428571
 40
0.8571428571428571
 40
0.9285714285714285
 40
0.9285714285714285
 40
0.9285714285714285
 40
1.0
 40
1.0
 40
1.0
 40
1.0
 10
-1.6122
 20
17.2125
 30
0.0
 10
-1.6122
 20
17.2125
 30
0.0
 10
-7.0784
 20
18.8357
 30
0.0
 10
-7.0784
 20
18.8357
 30
0.0
 10
-12.281
 20
14.4223
 30
0.0
 10
-13.2473
 20
11.4553
 30
0.0
 10
-13.2504
 20
11.4461
 30
0.0
 10
-13.2504
 20
11.4461
 30
0.0
 10
-13.4544
 20
11.4345
 30
0.0
 10
-13.4544
 20
11.4345
 30
0.0
 10
-13.8196
 20
12.2184
 30
0.0
 10
-13.9959
 20
15.5233
 30
0.0
 10
-13.9962
 20
15.5327
 30
0.0
 10
-13.9962
 20
15.5327
 30
0.0
 10
-13.976
 20
15.602
 30
0.0
 10
-13.976
 20
15.602
 30
0.0
 10
-12.5598
 20
17.5907
 30
0.0
 10
-10.9066
 20
18.8786
 30
0.0
 10
-9.7333
 20
19.6241
 30
0.0
 10
-9.7333
 20
19.6241
 30
0.0
 10
-16.8115
 20
21.7261
 30
0.0
 10
-16.8115
 20
21.7261
 30
0.0
 10
-16.8115
 20
21.7261
 30
0.0
 10
-16.8115
 20
-2.4314
 30
0.0
 10
-16.8115
 20
-2.4314
 30
0.0
 10
-16.8115
 20
-2.4314
 30
0.0
 10
1.7165
 20
-9.4574
 30
0.0
 10
1.7165
 20
-9.4574
 30
0.0
 10
1.7165
 20
-9.4574
 30
0.0
 10
1.8839
 20
9.8239
 30
0.0
 10
1.8839
 20
9.8239
 30
0.0
 10
1.4605
 20
9.2355
 30
0.0
 10
1.1645
 20
8.8292
 30
0.0
 10
1.1624
 20
8.8263
 30
0.0
 10
1.1624
 20
8.8263
 30
0.0
 10
0.9639
 20
8.8978
 30
0.0
 10
0.9639
 20
8.8978
 30
0.0
 10
1.0669
 20
10.5987
 30
0.0
 10
0.6206
 20
12.3879
 30
0.0
 10
-0.0343
 20
14.032
 30
0.0
 10
-0.4961
 20
15.1911
 30
0.0
 10
-1.0617
 20
16.2782
 30
0.0
 10
-1.6122
 20
17.2125
 30
0.0
  0
SPLINE
  5
66
330
1F
100
AcDbEntity
  8
Layer 1
 62
   250
100
AcDbSpline
210
0.0
220
0.0
230
1.0
 70
    11
 71
     3
 72
    29
 73
    25
 74
     0
 42
0.0000000001
 43
0.0000000001
 40
0.0
 40
0.0
 40
0.0
 40
0.0
 40
0.125
 40
0.125
 40
0.125
 40
0.25
 40
0.25
 40
0.25
 40
0.375
 40
0.375
 40
0.375
 40
0.5
 40
0.5
 40
0.5
 40
0.625
 40
0.625
 40
0.625
 40
0.75
 40
0.75
 40
0.75
 40
0.875
 40
0.875
 40
0.875
 40
1.0
 40
1.0
 40
1.0
 40
1.0
 10
20.4119
 20
21.8711
 30
0.0
 10
20.4119
 20
21.8711
 30
0.0
 10
2.6552
 20
16.3054
 30
0.0
 10
2.6552
 20
16.3054
 30
0.0
 10
3.731
 20
14.5033
 30
0.0
 10
4.0681
 20
12.9957
 30
0.0
 10
4.0697
 20
12.9884
 30
0.0
 10
4.0697
 20
12.9884
 30
0.0
 10
4.0801
 20
12.9421
 30
0.0
 10
4.0801
 20
12.9421
 30
0.0
 10
4.0801
 20
12.9421
 30
0.0
 10
4.0533
 20
12.9027
 30
0.0
 10
4.0533
 20
12.9027
 30
0.0
 10
3.4915
 20
12.0751
 30
0.0
 10
2.7342
 20
11.0089
 30
0.0
 10
2.1358
 20
10.1745
 30
0.0
 10
2.1358
 20
10.1745
 30
0.0
 10
1.9655
 20
-9.4556
 30
0.0
 10
1.9655
 20
-9.4556
 30
0.0
 10
1.9655
 20
-9.4556
 30
0.0
 10
20.4119
 20
-2.4111
 30
0.0
 10
20.4119
 20
-2.4111
 30
0.0
 10
20.4119
 20
-2.4111
 30
0.0
 10
20.4119
 20
21.8711
 30
0.0
 10
20.4119
 20
21.8711
 30
0.0
  0
SPLINE
  5
67
330
1F
100
AcDbEntity
  8
Layer 1
 62
   250
100
AcDbSpline
210
0.0
220
0.0
230
1.0
 70
    11
 71
     3
 72
    20
 73
    16
 74
     0
 42
0.0000000001
 43
0.0000000001
 40
0.0
 40
0.0
 40
0.0
 40
0.0
 40
0.2
 40
0.2
 40
0.2
 40
0.4
 40
0.4
 40
0.4
 40
0.6000000000000001
 40
0.6000000000000001
 40
0.6000000000000001
 40
0.8
 40
0.8
 40
0.8
 40
1.0
 40
1.0
 40
1.0
 40
1.0
 10
4.8279
 20
10.1501
 30
0.0
 10
4.8279
 20
10.1501
 30
0.0
 10
4.3881
 20
13.5983
 30
0.0
 10
9.3725
 20
15.5544
 30
0.0
 10
9.3725
 20
15.5544
 30
0.0
 10
13.7728
 20
17.7938
 30
0.0
 10
16.1361
 20
15.906
 30
0.0
 10
16.1361
 20
15.906
 30
0.0
 10
19.6123
 20
12.3631
 30
0.0
 10
13.9655
 20
9.138
 30
0.0
 10
13.9655
 20
9.138
 30
0.0
 10
9.8618
 20
7.1563
 30
0.0
 10
6.9825
 20
8.0085
 30
0.0
 10
6.9825
 20
8.0085
 30
0.0
 10
5.0314
 20
8.2875
 30
0.0
 10
4.8279
 20
10.1501
 30
0.0
  0
SPLINE
  5
68
330
1F
100
AcDbEntity
  8
Layer 1
 62
   250
100
AcDbSpline
210
0.0
220
0.0
230
1.0
 70
    11
 71
     3
 72
    17
 73
    13
 74
     0
 42
0.0000000001
 43
0.0000000001
 40
0.0
 40
0.0
 40
0.0
 40
0.0
 40
0.25
 40
0.25
 40
0.25
 40
0.5
 40
0.5
 40
0.5
 40
0.75
 40
0.75
 40
0.75
 40
1.0
 40
1.0
 40
1.0
 40
1.0
 10
8.91
 20
9.787
 30
0.0
 10
8.91
 20
9.787
 30
0.0
 10
11.374
 20
9.6773
 30
0.0
 10
14.1767
 20
11.9502
 30
0.0
 10
14.1767
 20
11.9502
 30
0.0
 10
16.2896
 20
13.7705
 30
0.0
 10
14.7706
 20
14.8268
 30
0.0
 10
14.7706
 20
14.8268
 30
0.0
 10
11.5763
 20
15.6433
 30
0.0
 10
8.3845
 20
12.1781
 30
0.0
 10
8.3845
 20
12.1781
 30
0.0
 10
6.7153
 20
9.843
 30
0.0
 10
8.91
 20
9.787
 30
0.0
  0
SPLINE
  5
69
330
1F
100
AcDbEntity
  8
Layer 1
 62
   250
100
AcDbSpline
210
0.0
220
0.0
230
1.0
 70
    11
 71
     3
 72
    20
 73
    16
 74
     0
 42
0.0000000001
 43
0.0000000001
 40
0.0
 40
0.0
 40
0.0
 40
0.0
 40
0.2
 40
0.2
 40
0.2
 40
0.4
 40
0.4
 40
0.4
 40
0.6000000000000001
 40
0.6000000000000001
 40
0.6000000000000001
 40
0.8
 40
0.8
 40
0.8
 40
1.0
 40
1.0
 40
1.0
 40
1.0
 10
-12.9026
 20
10.8959
 30
0.0
 10
-12.9026
 20
10.8959
 30
0.0
 10
-11.1548
 20
13.9006
 30
0.0
 10
-6.0086
 20
12.4226
 30
0.0
 10
-6.0086
 20
12.4226
 30
0.0
 10
-1.1534
 20
11.5247
 30
0.0
 10
-0.4252
 20
8.5885
 30
0.0
 10
-0.4252
 20
8.5885
 30
0.0
 10
0.1795
 20
3.6618
 30
0.0
 10
-6.2644
 20
4.5358
 30
0.0
 10
-6.2644
 20
4.5358
 30
0.0
 10
-10.7268
 20
5.4581
 30
0.0
 10
-12.4946
 20
7.8856
 30
0.0
 10
-12.4946
 20
7.8856
 30
0.0
 10
-13.8737
 20
9.2936
 30
0.0
 10
-12.9026
 20
10.8959
 30
0.0
  0
SPLINE
  5
6A
330
1F
100
AcDbEntity
  8
Layer 1
 62
   250
100
AcDbSpline
210
0.0
220
0.0
230
1.0
 70
    11
 71
     3
 72
    17
 73
    13
 74
     0
 42
0.0000000001
 43
0.0000000001
 40
0.0
 40
0.0
 40
0.0
 40
0.0
 40
0.25
 40
0.25
 40
0.25
 40
0.5
 40
0.5
 40
0.5
 40
0.75
 40
0.75
 40
0.75
 40
1.0
 40
1.0
 40
1.0
 40
1.0
 10
-9.8947
 20
8.2294
 30
0.0
 10
-9.8947
 20
8.2294
 30
0.0
 10
-8.0516
 20
6.5902
 30
0.0
 10
-4.4427
 20
6.5867
 30
0.0
 10
-4.4427
 20
6.5867
 30
0.0
 10
-1.6551
 20
6.6668
 30
0.0
 10
-2.1682
 20
8.4449
 30
0.0
 10
-2.1682
 20
8.4449
 30
0.0
 10
-4.1324
 20
11.0927
 30
0.0
 10
-8.7946
 20
10.4163
 30
0.0
 10
-8.7946
 20
10.4163
 30
0.0
 10
-11.5626
 20
9.6566
 30
0.0
 10
-9.8947
 20
8.2294
 30
0.0
  0
SPLINE
  5
6B
330
1F
100
AcDbEntity
  8
Layer 1
 62
   250
100
AcDbSpline
210
0.0
220
0.0
230
1.0
 70
    11
 71
     3
 72
    86
 73
    82
 74
     0
 42
0.0000000001
 43
0.0000000001
 40
0.0
 40
0.0
 40
0.0
 40
0.0
 40
0.037037037037037
 40
0.037037037037037
 40
0.037037037037037
 40
0.0740740740740741
 40
0.0740740740740741
 40
0.0740740740740741
 40
0.1111111111111111
 40
0.1111111111111111
 40
0.1111111111111111
 40
0.1481481481481481
 40
0.1481481481481481
 40
0.1481481481481481
 40
0.1851851851851852
 40
0.1851851851851852
 40
0.1851851851851852
 40
0.2222222222222222
 40
0.2222222222222222
 40
0.2222222222222222
 40
0.2592592592592592
 40
0.2592592592592592
 40
0.2592592592592592
 40
0.2962962962962963
 40
0.2962962962962963
 40
0.2962962962962963
 40
0.3333333333333333
 40
0.3333333333333333
 40
0.3333333333333333
 40
0.3703703703703703
 40
0.3703703703703703
 40
0.3703703703703703
 40
0.4074074074074074
 40
0.4074074074074074
 40
0.4074074074074074
 40
0.4444444444444444
 40
0.4444444444444444
 40
0.4444444444444444
 40
0.4814814814814815
 40
0.4814814814814815
 40
0.4814814814814815
 40
0.5185185185185185
 40
0.5185185185185185
 40
0.5185185185185185
 40
0.5555555555555556
 40
0.5555555555555556
 40
0.5555555555555556
 40
0.5925925925925926
 40
0.5925925925925926
 40
0.5925925925925926
 40
0.6296296296296295
 40
0.6296296296296295
 40
0.6296296296296295
 40
0.6666666666666666
 40
0.6666666666666666
 40
0.6666666666666666
 40
0.7037037037037037
 40
0.7037037037037037
 40
0.7037037037037037
 40
0.7407407407407407
 40
0.7407407407407407
 40
0.7407407407407407
 40
0.7777777777777777
 40
0.7777777777777777
 40
0.7777777777777777
 40
0.8148148148148148
 40
0.8148148148148148
 40
0.8148148148148148
 40
0.8518518518518519
 40
0.8518518518518519
 40
0.8518518518518519
 40
0.8888888888888888
 40
0.8888888888888888
 40
0.8888888888888888
 40
0.9259259259259258
 40
0.9259259259259258
 40
0.9259259259259258
 40
0.9629629629629629
 40
0.9629629629629629
 40
0.9629629629629629
 40
1.0
 40
1.0
 40
1.0
 40
1.0
 10
18.1659
 20
0.0198
 30
0.0
 10
18.277
 20
-0.0664
 30
0.0
 10
18.3495
 20
-0.1677
 30
0.0
 10
18.382
 20
-0.2839
 30
0.0
 10
18.4141
 20
-0.3991
 30
0.0
 10
18.4068
 20
-0.5276
 30
0.0
 10
18.3599
 20
-0.669
 30
0.0
 10
18.3599
 20
-0.669
 30
0.0
 10
18.3594
 20
-0.6706
 30
0.0
 10
18.3594
 20
-0.6706
 30
0.0
 10
18.3068
 20
-0.811
 30
0.0
 10
18.2338
 20
-0.9454
 30
0.0
 10
18.1413
 20
-1.0731
 30
0.0
 10
18.049
 20
-1.2004
 30
0.0
 10
17.9362
 20
-1.322
 30
0.0
 10
17.8043
 20
-1.4371
 30
0.0
 10
17.5913
 20
-1.6221
 30
0.0
 10
17.2232
 20
-1.7732
 30
0.0
 10
16.7832
 20
-1.9534
 30
0.0
 10
16.7832
 20
-1.9534
 30
0.0
 10
16.4459
 20
-2.0933
 30
0.0
 10
16.4459
 20
-2.0933
 30
0.0
 10
15.2714
 20
-2.634
 30
0.0
 10
14.0091
 20
-3.0578
 30
0.0
 10
12.3372
 20
-3.619
 30
0.0
 10
12.3372
 20
-3.619
 30
0.0
 10
12.1145
 20
-3.6937
 30
0.0
 10
12.1145
 20
-3.6937
 30
0.0
 10
11.6492
 20
-3.8371
 30
0.0
 10
11.206
 20
-3.9832
 30
0.0
 10
10.793
 20
-4.1191
 30
0.0
 10
9.6941
 20
-4.4811
 30
0.0
 10
8.8091
 20
-4.7725
 30
0.0
 10
8.0838
 20
-4.8195
 30
0.0
 10
7.8774
 20
-4.836
 30
0.0
 10
7.6905
 20
-4.8246
 30
0.0
 10
7.5244
 20
-4.7852
 30
0.0
 10
7.3565
 20
-4.7453
 30
0.0
 10
7.2088
 20
-4.6767
 30
0.0
 10
7.0819
 20
-4.5798
 30
0.0
 10
6.9438
 20
-4.4744
 30
0.0
 10
6.867
 20
-4.3523
 30
0.0
 10
6.8521
 20
-4.2143
 30
0.0
 10
6.8376
 20
-4.0787
 30
0.0
 10
6.8836
 20
-3.9299
 30
0.0
 10
6.9902
 20
-3.7685
 30
0.0
 10
7.0935
 20
-3.6123
 30
0.0
 10
7.2446
 20
-3.4566
 30
0.0
 10
7.4429
 20
-3.3024
 30
0.0
 10
7.6392
 20
-3.1497
 30
0.0
 10
7.8841
 20
-2.9964
 30
0.0
 10
8.177
 20
-2.8432
 30
0.0
 10
8.609
 20
-2.6176
 30
0.0
 10
9.0991
 20
-2.3871
 30
0.0
 10
9.6476
 20
-2.1522
 30
0.0
 10
10.1966
 20
-1.9171
 30
0.0
 10
10.8059
 20
-1.6764
 30
0.0
 10
11.4755
 20
-1.4303
 30
0.0
 10
12.1511
 20
-1.1821
 30
0.0
 10
12.8598
 20
-0.9383
 30
0.0
 10
13.6023
 20
-0.6991
 30
0.0
 10
14.3446
 20
-0.46
 30
0.0
 10
15.1206
 20
-0.2253
 30
0.0
 10
15.9307
 20
0.0048
 30
0.0
 10
16.2591
 20
0.0996
 30
0.0
 10
16.5538
 20
0.1677
 30
0.0
 10
16.8137
 20
0.2085
 30
0.0
 10
17.0753
 20
0.2496
 30
0.0
 10
17.3019
 20
0.2632
 30
0.0
 10
17.4926
 20
0.2495
 30
0.0
 10
17.4926
 20
0.2495
 30
0.0
 10
17.4941
 20
0.2492
 30
0.0
 10
17.4941
 20
0.2492
 30
0.0
 10
17.6198
 20
0.2362
 30
0.0
 10
17.7373
 20
0.2116
 30
0.0
 10
17.8462
 20
0.1755
 30
0.0
 10
17.9555
 20
0.1393
 30
0.0
 10
18.0565
 20
0.0911
 30
0.0
 10
18.1478
 20
0.0318
 30
0.0
 10
18.1478
 20
0.0318
 30
0.0
 10
18.1659
 20
0.0198
 30
0.0
 10
18.1659
 20
0.0198
 30
0.0
  0
SPLINE
  5
6C
330
1F
100
AcDbEntity
  8
Layer 1
 62
   250
100
AcDbSpline
210
0.0
220
0.0
230
1.0
 70
    11
 71
     3
 72
   278
 73
   274
 74
     0
 42
0.0000000001
 43
0.0000000001
 40
0.0
 40
0.0
 40
0.0
 40
0.0
 40
0.010989010989011
 40
0.010989010989011
 40
0.010989010989011
 40
0.021978021978022
 40
0.021978021978022
 40
0.021978021978022
 40
0.032967032967033
 40
0.032967032967033
 40
0.032967032967033
 40
0.043956043956044
 40
0.043956043956044
 40
0.043956043956044
 40
0.054945054945055
 40
0.054945054945055
 40
0.054945054945055
 40
0.0659340659340659
 40
0.0659340659340659
 40
0.0659340659340659
 40
0.0769230769230769
 40
0.0769230769230769
 40
0.0769230769230769
 40
0.0879120879120879
 40
0.0879120879120879
 40
0.0879120879120879
 40
0.0989010989010989
 40
0.0989010989010989
 40
0.0989010989010989
 40
0.1098901098901099
 40
0.1098901098901099
 40
0.1098901098901099
 40
0.1208791208791209
 40
0.1208791208791209
 40
0.1208791208791209
 40
0.1318681318681319
 40
0.1318681318681319
 40
0.1318681318681319
 40
0.1428571428571429
 40
0.1428571428571429
 40
0.1428571428571429
 40
0.1538461538461539
 40
0.1538461538461539
 40
0.1538461538461539
 40
0.1648351648351649
 40
0.1648351648351649
 40
0.1648351648351649
 40
0.1758241758241758
 40
0.1758241758241758
 40
0.1758241758241758
 40
0.1868131868131868
 40
0.1868131868131868
 40
0.1868131868131868
 40
0.1978021978021978
 40
0.1978021978021978
 40
0.1978021978021978
 40
0.2087912087912088
 40
0.2087912087912088
 40
0.2087912087912088
 40
0.2197802197802198
 40
0.2197802197802198
 40
0.2197802197802198
 40
0.2307692307692308
 40
0.2307692307692308
 40
0.2307692307692308
 40
0.2417582417582418
 40
0.2417582417582418
 40
0.2417582417582418
 40
0.2527472527472528
 40
0.2527472527472528
 40
0.2527472527472528
 40
0.2637362637362637
 40
0.2637362637362637
 40
0.2637362637362637
 40
0.2747252747252747
 40
0.2747252747252747
 40
0.2747252747252747
 40
0.2857142857142858
 40
0.2857142857142858
 40
0.2857142857142858
 40
0.2967032967032967
 40
0.2967032967032967
 40
0.2967032967032967
 40
0.3076923076923077
 40
0.3076923076923077
 40
0.3076923076923077
 40
0.3186813186813187
 40
0.3186813186813187
 40
0.3186813186813187
 40
0.3296703296703297
 40
0.3296703296703297
 40
0.3296703296703297
 40
0.3406593406593407
 40
0.3406593406593407
 40
0.3406593406593407
 40
0.3516483516483517
 40
0.3516483516483517
 40
0.3516483516483517
 40
0.3626373626373627
 40
0.3626373626373627
 40
0.3626373626373627
 40
0.3736263736263736
 40
0.3736263736263736
 40
0.3736263736263736
 40
0.3846153846153846
 40
0.3846153846153846
 40
0.3846153846153846
 40
0.3956043956043956
 40
0.3956043956043956
 40
0.3956043956043956
 40
0.4065934065934066
 40
0.4065934065934066
 40
0.4065934065934066
 40
0.4175824175824176
 40
0.4175824175824176
 40
0.4175824175824176
 40
0.4285714285714286
 40
0.4285714285714286
 40
0.4285714285714286
 40
0.4395604395604396
 40
0.4395604395604396
 40
0.4395604395604396
 40
0.4505494505494506
 40
0.4505494505494506
 40
0.4505494505494506
 40
0.4615384615384616
 40
0.4615384615384616
 40
0.4615384615384616
 40
0.4725274725274726
 40
0.4725274725274726
 40
0.4725274725274726
 40
0.4835164835164836
 40
0.4835164835164836
 40
0.4835164835164836
 40
0.4945054945054945
 40
0.4945054945054945
 40
0.4945054945054945
 40
0.5054945054945056
 40
0.5054945054945056
 40
0.5054945054945056
 40
0.5164835164835165
 40
0.5164835164835165
 40
0.5164835164835165
 40
0.5274725274725275
 40
0.5274725274725275
 40
0.5274725274725275
 40
0.5384615384615385
 40
0.5384615384615385
 40
0.5384615384615385
 40
0.5494505494505495
 40
0.5494505494505495
 40
0.5494505494505495
 40
0.5604395604395604
 40
0.5604395604395604
 40
0.5604395604395604
 40
0.5714285714285715
 40
0.5714285714285715
 40
0.5714285714285715
 40
0.5824175824175825
 40
0.5824175824175825
 40
0.5824175824175825
 40
0.5934065934065934
 40
0.5934065934065934
 40
0.5934065934065934
 40
0.6043956043956045
 40
0.6043956043956045
 40
0.6043956043956045
 40
0.6153846153846154
 40
0.6153846153846154
 40
0.6153846153846154
 40
0.6263736263736264
 40
0.6263736263736264
 40
0.6263736263736264
 40
0.6373626373626374
 40
0.6373626373626374
 40
0.6373626373626374
 40
0.6483516483516484
 40
0.6483516483516484
 40
0.6483516483516484
 40
0.6593406593406594
 40
0.6593406593406594
 40
0.6593406593406594
 40
0.6703296703296704
 40
0.6703296703296704
 40
0.6703296703296704
 40
0.6813186813186813
 40
0.6813186813186813
 40
0.6813186813186813
 40
0.6923076923076924
 40
0.6923076923076924
 40
0.6923076923076924
 40
0.7032967032967034
 40
0.7032967032967034
 40
0.7032967032967034
 40
0.7142857142857143
 40
0.7142857142857143
 40
0.7142857142857143
 40
0.7252747252747254
 40
0.7252747252747254
 40
0.7252747252747254
 40
0.7362637362637363
 40
0.7362637362637363
 40
0.7362637362637363
 40
0.7472527472527473
 40
0.7472527472527473
 40
0.7472527472527473
 40
0.7582417582417583
 40
0.7582417582417583
 40
0.7582417582417583
 40
0.7692307692307693
 40
0.7692307692307693
 40
0.7692307692307693
 40
0.7802197802197803
 40
0.7802197802197803
 40
0.7802197802197803
 40
0.7912087912087913
 40
0.7912087912087913
 40
0.7912087912087913
 40
0.8021978021978022
 40
0.8021978021978022
 40
0.8021978021978022
 40
0.8131868131868133
 40
0.8131868131868133
 40
0.8131868131868133
 40
0.8241758241758242
 40
0.8241758241758242
 40
0.8241758241758242
 40
0.8351648351648352
 40
0.8351648351648352
 40
0.8351648351648352
 40
0.8461538461538463
 40
0.8461538461538463
 40
0.8461538461538463
 40
0.8571428571428572
 40
0.8571428571428572
 40
0.8571428571428572
 40
0.8681318681318682
 40
0.8681318681318682
 40
0.8681318681318682
 40
0.8791208791208792
 40
0.8791208791208792
 40
0.8791208791208792
 40
0.8901098901098902
 40
0.8901098901098902
 40
0.8901098901098902
 40
0.9010989010989011
 40
0.9010989010989011
 40
0.9010989010989011
 40
0.9120879120879122
 40
0.9120879120879122
 40
0.9120879120879122
 40
0.9230769230769231
 40
0.9230769230769231
 40
0.9230769230769231
 40
0.9340659340659342
 40
0.9340659340659342
 40
0.9340659340659342
 40
0.9450549450549451
 40
0.9450549450549451
 40
0.9450549450549451
 40
0.9560439560439561
 40
0.9560439560439561
 40
0.9560439560439561
 40
0.9670329670329672
 40
0.9670329670329672
 40
0.9670329670329672
 40
0.9780219780219781
 40
0.9780219780219781
 40
0.9780219780219781
 40
0.989010989010989
 40
0.989010989010989
 40
0.989010989010989
 40
1.0
 40
1.0
 40
1.0
 40
1.0
 10
14.293
 20
1.398
 30
0.0
 10
14.293
 20
1.398
 30
0.0
 10
12.6437
 20
0.8334
 30
0.0
 10
12.6437
 20
0.8334
 30
0.0
 10
12.6437
 20
0.8334
 30
0.0
 10
10.5518
 20
0.1579
 30
0.0
 10
10.5518
 20
0.1579
 30
0.0
 10
10.1798
 20
0.0326
 30
0.0
 10
9.847
 20
-0.0745
 30
0.0
 10
9.5534
 20
-0.1634
 30
0.0
 10
9.2576
 20
-0.2529
 30
0.0
 10
8.9952
 20
-0.326
 30
0.0
 10
8.7665
 20
-0.3822
 30
0.0
 10
8.6082
 20
-0.4209
 30
0.0
 10
8.4773
 20
-0.458
 30
0.0
 10
8.3739
 20
-0.4931
 30
0.0
 10
8.2733
 20
-0.5273
 30
0.0
 10
8.2001
 20
-0.5597
 30
0.0
 10
8.1552
 20
-0.5893
 30
0.0
 10
8.099
 20
-0.6264
 30
0.0
 10
8.0542
 20
-0.6807
 30
0.0
 10
8.0219
 20
-0.7521
 30
0.0
 10
7.9879
 20
-0.8264
 30
0.0
 10
7.9668
 20
-0.9196
 30
0.0
 10
7.9588
 20
-1.0314
 30
0.0
 10
7.9562
 20
-1.1114
 30
0.0
 10
7.9447
 20
-1.1787
 30
0.0
 10
7.9242
 20
-1.2325
 30
0.0
 10
7.9018
 20
-1.2914
 30
0.0
 10
7.8684
 20
-1.3355
 30
0.0
 10
7.8243
 20
-1.3645
 30
0.0
 10
7.7698
 20
-1.4002
 30
0.0
 10
7.6909
 20
-1.4103
 30
0.0
 10
7.5879
 20
-1.3951
 30
0.0
 10
7.494
 20
-1.3811
 30
0.0
 10
7.3763
 20
-1.3451
 30
0.0
 10
7.2356
 20
-1.2878
 30
0.0
 10
7.1117
 20
-1.2428
 30
0.0
 10
6.9859
 20
-1.1906
 30
0.0
 10
6.8587
 20
-1.1312
 30
0.0
 10
6.7327
 20
-1.0724
 30
0.0
 10
6.6034
 20
-1.0056
 30
0.0
 10
6.4717
 20
-0.9312
 30
0.0
 10
6.3714
 20
-0.8748
 30
0.0
 10
6.2372
 20
-0.7689
 30
0.0
 10
6.103
 20
-0.653
 30
0.0
 10
5.884
 20
-0.4639
 30
0.0
 10
5.6628
 20
-0.245
 30
0.0
 10
5.5914
 20
-0.171
 30
0.0
 10
5.4953
 20
-0.0713
 30
0.0
 10
5.608
 20
0.1026
 30
0.0
 10
5.8137
 20
0.3009
 30
0.0
 10
6.05
 20
0.5287
 30
0.0
 10
6.4112
 20
0.7995
 30
0.0
 10
6.6981
 20
1.0146
 30
0.0
 10
6.9012
 20
1.1667
 30
0.0
 10
7.0669
 20
1.291
 30
0.0
 10
7.1195
 20
1.3479
 30
0.0
 10
7.199
 20
1.4305
 30
0.0
 10
7.5106
 20
1.652
 30
0.0
 10
7.927
 20
1.9475
 30
0.0
 10
8.7492
 20
2.5315
 30
0.0
 10
9.9836
 20
3.4083
 30
0.0
 10
10.609
 20
4.0466
 30
0.0
 10
10.7703
 20
4.2119
 30
0.0
 10
10.9418
 20
4.3672
 30
0.0
 10
11.1107
 20
4.5199
 30
0.0
 10
11.3399
 20
4.7274
 30
0.0
 10
11.5652
 20
4.9314
 30
0.0
 10
11.7588
 20
5.1567
 30
0.0
 10
11.9371
 20
5.3638
 30
0.0
 10
12.1043
 20
5.5076
 30
0.0
 10
12.2412
 20
5.6253
 30
0.0
 10
12.3624
 20
5.7294
 30
0.0
 10
12.4595
 20
5.813
 30
0.0
 10
12.5148
 20
5.8987
 30
0.0
 10
12.5148
 20
5.8987
 30
0.0
 10
12.5172
 20
5.9021
 30
0.0
 10
12.5172
 20
5.9021
 30
0.0
 10
12.5413
 20
5.9332
 30
0.0
 10
12.5736
 20
5.983
 30
0.0
 10
12.614
 20
6.0507
 30
0.0
 10
12.614
 20
6.0507
 30
0.0
 10
12.6974
 20
6.1957
 30
0.0
 10
12.6974
 20
6.1957
 30
0.0
 10
12.4542
 20
6.0958
 30
0.0
 10
12.1835
 20
5.9816
 30
0.0
 10
11.8859
 20
5.8538
 30
0.0
 10
11.529
 20
5.7008
 30
0.0
 10
11.1415
 20
5.5312
 30
0.0
 10
10.7243
 20
5.3461
 30
0.0
 10
10.2137
 20
5.1121
 30
0.0
 10
9.6967
 20
4.8519
 30
0.0
 10
9.2256
 20
4.615
 30
0.0
 10
8.4879
 20
4.2439
 30
0.0
 10
7.8607
 20
3.9282
 30
0.0
 10
7.5319
 20
3.8516
 30
0.0
 10
7.4458
 20
3.8309
 30
0.0
 10
7.3627
 20
3.8142
 30
0.0
 10
7.2837
 20
3.8022
 30
0.0
 10
7.2032
 20
3.7899
 30
0.0
 10
7.1239
 20
3.7816
 30
0.0
 10
7.0463
 20
3.7776
 30
0.0
 10
7.0463
 20
3.7776
 30
0.0
 10
7.044
 20
3.7776
 30
0.0
 10
7.044
 20
3.7776
 30
0.0
 10
6.9122
 20
3.7771
 30
0.0
 10
6.7874
 20
3.7849
 30
0.0
 10
6.6709
 20
3.8014
 30
0.0
 10
6.5528
 20
3.818
 30
0.0
 10
6.442
 20
3.8434
 30
0.0
 10
6.3393
 20
3.8771
 30
0.0
 10
6.2373
 20
3.9107
 30
0.0
 10
6.1447
 20
3.9522
 30
0.0
 10
6.0624
 20
4.001
 30
0.0
 10
5.9793
 20
4.0503
 30
0.0
 10
5.9065
 20
4.1073
 30
0.0
 10
5.8444
 20
4.1717
 30
0.0
 10
5.8003
 20
4.2174
 30
0.0
 10
5.7117
 20
4.3279
 30
0.0
 10
5.6558
 20
4.4242
 30
0.0
 10
5.6125
 20
4.4989
 30
0.0
 10
5.5876
 20
4.571
 30
0.0
 10
5.6094
 20
4.6156
 30
0.0
 10
5.6287
 20
4.6557
 30
0.0
 10
5.6646
 20
4.7003
 30
0.0
 10
5.7167
 20
4.7486
 30
0.0
 10
5.7661
 20
4.7948
 30
0.0
 10
5.8316
 20
4.8462
 30
0.0
 10
5.9119
 20
4.9018
 30
0.0
 10
5.9712
 20
4.9426
 30
0.0
 10
6.0248
 20
4.9772
 30
0.0
 10
6.0722
 20
5.0056
 30
0.0
 10
6.1194
 20
5.0338
 30
0.0
 10
6.1606
 20
5.0559
 30
0.0
 10
6.1951
 20
5.071
 30
0.0
 10
6.3822
 20
5.1671
 30
0.0
 10
6.977
 20
5.417
 30
0.0
 10
7.4196
 20
5.6029
 30
0.0
 10
7.4196
 20
5.6029
 30
0.0
 10
7.746
 20
5.7403
 30
0.0
 10
7.746
 20
5.7403
 30
0.0
 10
7.9512
 20
5.8272
 30
0.0
 10
8.1869
 20
5.9244
 30
0.0
 10
8.4525
 20
6.0313
 30
0.0
 10
8.7108
 20
6.1354
 30
0.0
 10
9.0042
 20
6.2514
 30
0.0
 10
9.3319
 20
6.3791
 30
0.0
 10
9.6759
 20
6.5131
 30
0.0
 10
10.0443
 20
6.6554
 30
0.0
 10
10.436
 20
6.8052
 30
0.0
 10
10.436
 20
6.8052
 30
0.0
 10
11.7693
 20
7.3113
 30
0.0
 10
11.7693
 20
7.3113
 30
0.0
 10
11.7693
 20
7.3113
 30
0.0
 10
12.0694
 20
7.4175
 30
0.0
 10
12.0694
 20
7.4175
 30
0.0
 10
12.0694
 20
7.4175
 30
0.0
 10
12.2392
 20
7.4844
 30
0.0
 10
12.2392
 20
7.4844
 30
0.0
 10
12.2392
 20
7.4844
 30
0.0
 10
12.378
 20
7.536
 30
0.0
 10
12.378
 20
7.536
 30
0.0
 10
13.2895
 20
7.8864
 30
0.0
 10
14.0528
 20
8.1677
 30
0.0
 10
14.6644
 20
8.3782
 30
0.0
 10
15.2797
 20
8.5899
 30
0.0
 10
15.7489
 20
8.7333
 30
0.0
 10
16.068
 20
8.8061
 30
0.0
 10
16.1358
 20
8.8217
 30
0.0
 10
16.2039
 20
8.8348
 30
0.0
 10
16.2716
 20
8.8448
 30
0.0
 10
16.3394
 20
8.8548
 30
0.0
 10
16.4079
 20
8.8623
 30
0.0
 10
16.4765
 20
8.8666
 30
0.0
 10
16.5966
 20
8.8745
 30
0.0
 10
16.6997
 20
8.8708
 30
0.0
 10
16.7849
 20
8.8549
 30
0.0
 10
16.8743
 20
8.8383
 30
0.0
 10
16.9454
 20
8.8081
 30
0.0
 10
16.9972
 20
8.7648
 30
0.0
 10
16.9972
 20
8.7648
 30
0.0
 10
17.0419
 20
8.7278
 30
0.0
 10
17.0419
 20
8.7278
 30
0.0
 10
17.2814
 20
8.5325
 30
0.0
 10
17.5156
 20
8.3414
 30
0.0
 10
17.0533
 20
7.6219
 30
0.0
 10
16.5504
 20
6.8289
 30
0.0
 10
15.1671
 20
5.7605
 30
0.0
 10
13.8934
 20
4.7769
 30
0.0
 10
13.0353
 20
4.1143
 30
0.0
 10
12.2265
 20
3.4895
 30
0.0
 10
11.7756
 20
3.0179
 30
0.0
 10
11.6437
 20
2.8733
 30
0.0
 10
10.8773
 20
2.2693
 30
0.0
 10
10.2801
 20
1.7987
 30
0.0
 10
10.2801
 20
1.7987
 30
0.0
 10
9.8099
 20
1.427
 30
0.0
 10
9.8099
 20
1.427
 30
0.0
 10
10.8085
 20
1.8266
 30
0.0
 10
11.6592
 20
2.1561
 30
0.0
 10
12.6694
 20
2.4987
 30
0.0
 10
12.6694
 20
2.4987
 30
0.0
 10
12.763
 20
2.538
 30
0.0
 10
12.763
 20
2.538
 30
0.0
 10
12.763
 20
2.538
 30
0.0
 10
13.0141
 20
2.6274
 30
0.0
 10
13.0141
 20
2.6274
 30
0.0
 10
13.1919
 20
2.6964
 30
0.0
 10
13.3671
 20
2.7531
 30
0.0
 10
13.5496
 20
2.8093
 30
0.0
 10
13.8332
 20
2.9161
 30
0.0
 10
14.0833
 20
3.0079
 30
0.0
 10
14.2986
 20
3.0846
 30
0.0
 10
14.5181
 20
3.1626
 30
0.0
 10
14.7057
 20
3.2267
 30
0.0
 10
14.8607
 20
3.2763
 30
0.0
 10
15.0153
 20
3.3254
 30
0.0
 10
15.1586
 20
3.3677
 30
0.0
 10
15.2906
 20
3.4028
 30
0.0
 10
15.4238
 20
3.4383
 30
0.0
 10
15.5475
 20
3.4672
 30
0.0
 10
15.6605
 20
3.489
 30
0.0
 10
15.765
 20
3.5123
 30
0.0
 10
15.879
 20
3.5316
 30
0.0
 10
16.0024
 20
3.5467
 30
0.0
 10
16.1263
 20
3.5617
 30
0.0
 10
16.261
 20
3.573
 30
0.0
 10
16.4055
 20
3.5801
 30
0.0
 10
16.4055
 20
3.5801
 30
0.0
 10
16.4074
 20
3.5801
 30
0.0
 10
16.4074
 20
3.5801
 30
0.0
 10
16.6067
 20
3.5818
 30
0.0
 10
16.7994
 20
3.5718
 30
0.0
 10
16.9842
 20
3.55
 30
0.0
 10
17.17
 20
3.528
 30
0.0
 10
17.349
 20
3.494
 30
0.0
 10
17.5206
 20
3.4481
 30
0.0
 10
17.6937
 20
3.4018
 30
0.0
 10
17.8511
 20
3.3445
 30
0.0
 10
17.992
 20
3.2766
 30
0.0
 10
18.1335
 20
3.2084
 30
0.0
 10
18.2586
 20
3.129
 30
0.0
 10
18.3664
 20
3.0392
 30
0.0
 10
18.4092
 20
3.0036
 30
0.0
 10
18.4424
 20
2.9675
 30
0.0
 10
18.4655
 20
2.9316
 30
0.0
 10
18.4963
 20
2.884
 30
0.0
 10
18.51
 20
2.836
 30
0.0
 10
18.5068
 20
2.7882
 30
0.0
 10
18.5035
 20
2.7404
 30
0.0
 10
18.4831
 20
2.6942
 30
0.0
 10
18.4464
 20
2.6501
 30
0.0
 10
18.4171
 20
2.6149
 30
0.0
 10
18.3761
 20
2.5803
 30
0.0
 10
18.3244
 20
2.547
 30
0.0
 10
18.2451
 20
2.4959
 30
0.0
 10
18.1184
 20
2.4435
 30
0.0
 10
17.9449
 20
2.3907
 30
0.0
 10
17.7743
 20
2.3386
 30
0.0
 10
17.5572
 20
2.2849
 30
0.0
 10
17.2944
 20
2.2306
 30
0.0
 10
16.9986
 20
2.1702
 30
0.0
 10
16.6583
 20
2.089
 30
0.0
 10
16.2747
 20
1.9879
 30
0.0
 10
15.8924
 20
1.8871
 30
0.0
 10
15.4663
 20
1.7656
 30
0.0
 10
14.9975
 20
1.6244
 30
0.0
 10
14.9061
 20
1.5918
 30
0.0
 10
14.8002
 20
1.556
 30
0.0
 10
14.6805
 20
1.5177
 30
0.0
 10
14.56
 20
1.4791
 30
0.0
 10
14.4305
 20
1.4391
 30
0.0
 10
14.293
 20
1.398
 30
0.0
  0
SPLINE
  5
6D
330
1F
100
AcDbEntity
  8
Layer 1
 62
   250
100
AcDbSpline
210
0.0
220
0.0
230
1.0
 70
    11
 71
     3
 72
    95
 73
    91
 74
     0
 42
0.0000000001
 43
0.0000000001
 40
0.0
 40
0.0
 40
0.0
 40
0.0
 40
0.0333333333333333
 40
0.0333333333333333
 40
0.0333333333333333
 40
0.0666666666666667
 40
0.0666666666666667
 40
0.0666666666666667
 40
0.1
 40
0.1
 40
0.1
 40
0.1333333333333333
 40
0.1333333333333333
 40
0.1333333333333333
 40
0.1666666666666667
 40
0.1666666666666667
 40
0.1666666666666667
 40
0.2
 40
0.2
 40
0.2
 40
0.2333333333333333
 40
0.2333333333333333
 40
0.2333333333333333
 40
0.2666666666666667
 40
0.2666666666666667
 40
0.2666666666666667
 40
0.3
 40
0.3
 40
0.3
 40
0.3333333333333333
 40
0.3333333333333333
 40
0.3333333333333333
 40
0.3666666666666666
 40
0.3666666666666666
 40
0.3666666666666666
 40
0.4
 40
0.4
 40
0.4
 40
0.4333333333333333
 40
0.4333333333333333
 40
0.4333333333333333
 40
0.4666666666666667
 40
0.4666666666666667
 40
0.4666666666666667
 40
0.5
 40
0.5
 40
0.5
 40
0.5333333333333333
 40
0.5333333333333333
 40
0.5333333333333333
 40
0.5666666666666667
 40
0.5666666666666667
 40
0.5666666666666667
 40
0.6
 40
0.6
 40
0.6
 40
0.6333333333333333
 40
0.6333333333333333
 40
0.6333333333333333
 40
0.6666666666666666
 40
0.6666666666666666
 40
0.6666666666666666
 40
0.7
 40
0.7
 40
0.7
 40
0.7333333333333333
 40
0.7333333333333333
 40
0.7333333333333333
 40
0.7666666666666666
 40
0.7666666666666666
 40
0.7666666666666666
 40
0.8
 40
0.8
 40
0.8
 40
0.8333333333333334
 40
0.8333333333333334
 40
0.8333333333333334
 40
0.8666666666666667
 40
0.8666666666666667
 40
0.8666666666666667
 40
0.9
 40
0.9
 40
0.9
 40
0.9333333333333333
 40
0.9333333333333333
 40
0.9333333333333333
 40
0.9666666666666667
 40
0.9666666666666667
 40
0.9666666666666667
 40
1.0
 40
1.0
 40
1.0
 40
1.0
 10
-7.5425
 20
-1.7894
 30
0.0
 10
-7.5425
 20
-1.7894
 30
0.0
 10
-7.3061
 20
-1.8881
 30
0.0
 10
-7.3061
 20
-1.8881
 30
0.0
 10
-6.8757
 20
-2.0764
 30
0.0
 10
-6.4872
 20
-2.2521
 30
0.0
 10
-6.141
 20
-2.4149
 30
0.0
 10
-5.7929
 20
-2.5786
 30
0.0
 10
-5.4883
 20
-2.7289
 30
0.0
 10
-5.2279
 20
-2.8653
 30
0.0
 10
-4.9676
 20
-3.0016
 30
0.0
 10
-4.7307
 20
-3.135
 30
0.0
 10
-4.5184
 20
-3.2649
 30
0.0
 10
-4.3024
 20
-3.3969
 30
0.0
 10
-4.1102
 20
-3.5257
 30
0.0
 10
-3.9426
 20
-3.651
 30
0.0
 10
-3.8378
 20
-3.7253
 30
0.0
 10
-3.7332
 20
-3.8109
 30
0.0
 10
-3.6299
 20
-3.9072
 30
0.0
 10
-3.5538
 20
-3.978
 30
0.0
 10
-3.4779
 20
-4.0551
 30
0.0
 10
-3.4026
 20
-4.138
 30
0.0
 10
-3.2404
 20
-3.9736
 30
0.0
 10
-3.1002
 20
-3.8285
 30
0.0
 10
-2.9829
 20
-3.7032
 30
0.0
 10
-2.85
 20
-3.5617
 30
0.0
 10
-2.7467
 20
-3.4451
 30
0.0
 10
-2.6738
 20
-3.3548
 30
0.0
 10
-2.6031
 20
-3.2678
 30
0.0
 10
-2.5403
 20
-3.1791
 30
0.0
 10
-2.4852
 20
-3.0886
 30
0.0
 10
-2.4308
 20
-2.9993
 30
0.0
 10
-2.3834
 20
-2.9076
 30
0.0
 10
-2.3436
 20
-2.8142
 30
0.0
 10
-2.2982
 20
-2.708
 30
0.0
 10
-2.2673
 20
-2.6056
 30
0.0
 10
-2.2514
 20
-2.5078
 30
0.0
 10
-2.2359
 20
-2.412
 30
0.0
 10
-2.2343
 20
-2.3189
 30
0.0
 10
-2.2468
 20
-2.2295
 30
0.0
 10
-2.259
 20
-2.1398
 30
0.0
 10
-2.2871
 20
-2.0485
 30
0.0
 10
-2.3306
 20
-1.9561
 30
0.0
 10
-2.3752
 20
-1.8614
 30
0.0
 10
-2.4366
 20
-1.7648
 30
0.0
 10
-2.5142
 20
-1.6674
 30
0.0
 10
-2.635
 20
-1.5169
 30
0.0
 10
-2.7766
 20
-1.3735
 30
0.0
 10
-2.9384
 20
-1.2376
 30
0.0
 10
-3.1019
 20
-1.1007
 30
0.0
 10
-3.2864
 20
-0.9704
 30
0.0
 10
-3.4913
 20
-0.8479
 30
0.0
 10
-3.6984
 20
-0.7237
 30
0.0
 10
-3.9093
 20
-0.6189
 30
0.0
 10
-4.1229
 20
-0.534
 30
0.0
 10
-4.3361
 20
-0.4491
 30
0.0
 10
-4.5536
 20
-0.3833
 30
0.0
 10
-4.7742
 20
-0.3372
 30
0.0
 10
-5.0117
 20
-0.2874
 30
0.0
 10
-5.2416
 20
-0.2695
 30
0.0
 10
-5.4626
 20
-0.2839
 30
0.0
 10
-5.6827
 20
-0.298
 30
0.0
 10
-5.8943
 20
-0.3441
 30
0.0
 10
-6.096
 20
-0.4217
 30
0.0
 10
-6.1938
 20
-0.4591
 30
0.0
 10
-6.2838
 20
-0.502
 30
0.0
 10
-6.3649
 20
-0.5494
 30
0.0
 10
-6.4439
 20
-0.5957
 30
0.0
 10
-6.5158
 20
-0.6475
 30
0.0
 10
-6.5798
 20
-0.7043
 30
0.0
 10
-6.6427
 20
-0.7595
 30
0.0
 10
-6.7074
 20
-0.8297
 30
0.0
 10
-6.7735
 20
-0.9141
 30
0.0
 10
-6.8409
 20
-0.9999
 30
0.0
 10
-6.9089
 20
-1.0992
 30
0.0
 10
-6.9768
 20
-1.2107
 30
0.0
 10
-6.9768
 20
-1.2107
 30
0.0
 10
-6.9789
 20
-1.2142
 30
0.0
 10
-6.9789
 20
-1.2142
 30
0.0
 10
-7.0505
 20
-1.3218
 30
0.0
 10
-7.1157
 20
-1.4123
 30
0.0
 10
-7.174
 20
-1.4854
 30
0.0
 10
-7.2352
 20
-1.5615
 30
0.0
 10
-7.2904
 20
-1.6206
 30
0.0
 10
-7.3397
 20
-1.6625
 30
0.0
 10
-7.3913
 20
-1.7064
 30
0.0
 10
-7.4564
 20
-1.7477
 30
0.0
 10
-7.5341
 20
-1.7854
 30
0.0
 10
-7.5341
 20
-1.7854
 30
0.0
 10
-7.5425
 20
-1.7894
 30
0.0
 10
-7.5425
 20
-1.7894
 30
0.0
  0
SPLINE
  5
6E
330
1F
100
AcDbEntity
  8
Layer 1
 62
   250
100
AcDbSpline
210
0.0
220
0.0
230
1.0
 70
    11
 71
     3
 72
   194
 73
   190
 74
     0
 42
0.0000000001
 43
0.0000000001
 40
0.0
 40
0.0
 40
0.0
 40
0.0
 40
0.0158730158730159
 40
0.0158730158730159
 40
0.0158730158730159
 40
0.0317460317460317
 40
0.0317460317460317
 40
0.0317460317460317
 40
0.0476190476190476
 40
0.0476190476190476
 40
0.0476190476190476
 40
0.0634920634920635
 40
0.0634920634920635
 40
0.0634920634920635
 40
0.0793650793650794
 40
0.0793650793650794
 40
0.0793650793650794
 40
0.0952380952380952
 40
0.0952380952380952
 40
0.0952380952380952
 40
0.1111111111111111
 40
0.1111111111111111
 40
0.1111111111111111
 40
0.126984126984127
 40
0.126984126984127
 40
0.126984126984127
 40
0.1428571428571428
 40
0.1428571428571428
 40
0.1428571428571428
 40
0.1587301587301587
 40
0.1587301587301587
 40
0.1587301587301587
 40
0.1746031746031746
 40
0.1746031746031746
 40
0.1746031746031746
 40
0.1904761904761905
 40
0.1904761904761905
 40
0.1904761904761905
 40
0.2063492063492063
 40
0.2063492063492063
 40
0.2063492063492063
 40
0.2222222222222222
 40
0.2222222222222222
 40
0.2222222222222222
 40
0.2380952380952381
 40
0.2380952380952381
 40
0.2380952380952381
 40
0.253968253968254
 40
0.253968253968254
 40
0.253968253968254
 40
0.2698412698412698
 40
0.2698412698412698
 40
0.2698412698412698
 40
0.2857142857142857
 40
0.2857142857142857
 40
0.2857142857142857
 40
0.3015873015873016
 40
0.3015873015873016
 40
0.3015873015873016
 40
0.3174603174603174
 40
0.3174603174603174
 40
0.3174603174603174
 40
0.3333333333333333
 40
0.3333333333333333
 40
0.3333333333333333
 40
0.3492063492063492
 40
0.3492063492063492
 40
0.3492063492063492
 40
0.3650793650793651
 40
0.3650793650793651
 40
0.3650793650793651
 40
0.3809523809523809
 40
0.3809523809523809
 40
0.3809523809523809
 40
0.3968253968253968
 40
0.3968253968253968
 40
0.3968253968253968
 40
0.4126984126984127
 40
0.4126984126984127
 40
0.4126984126984127
 40
0.4285714285714285
 40
0.4285714285714285
 40
0.4285714285714285
 40
0.4444444444444444
 40
0.4444444444444444
 40
0.4444444444444444
 40
0.4603174603174603
 40
0.4603174603174603
 40
0.4603174603174603
 40
0.4761904761904762
 40
0.4761904761904762
 40
0.4761904761904762
 40
0.492063492063492
 40
0.492063492063492
 40
0.492063492063492
 40
0.5079365079365079
 40
0.5079365079365079
 40
0.5079365079365079
 40
0.5238095238095237
 40
0.5238095238095237
 40
0.5238095238095237
 40
0.5396825396825397
 40
0.5396825396825397
 40
0.5396825396825397
 40
0.5555555555555556
 40
0.5555555555555556
 40
0.5555555555555556
 40
0.5714285714285714
 40
0.5714285714285714
 40
0.5714285714285714
 40
0.5873015873015872
 40
0.5873015873015872
 40
0.5873015873015872
 40
0.6031746031746031
 40
0.6031746031746031
 40
0.6031746031746031
 40
0.6190476190476191
 40
0.6190476190476191
 40
0.6190476190476191
 40
0.6349206349206349
 40
0.6349206349206349
 40
0.6349206349206349
 40
0.6507936507936507
 40
0.6507936507936507
 40
0.6507936507936507
 40
0.6666666666666666
 40
0.6666666666666666
 40
0.6666666666666666
 40
0.6825396825396826
 40
0.6825396825396826
 40
0.6825396825396826
 40
0.6984126984126984
 40
0.6984126984126984
 40
0.6984126984126984
 40
0.7142857142857142
 40
0.7142857142857142
 40
0.7142857142857142
 40
0.7301587301587301
 40
0.7301587301587301
 40
0.7301587301587301
 40
0.746031746031746
 40
0.746031746031746
 40
0.746031746031746
 40
0.7619047619047619
 40
0.7619047619047619
 40
0.7619047619047619
 40
0.7777777777777777
 40
0.7777777777777777
 40
0.7777777777777777
 40
0.7936507936507936
 40
0.7936507936507936
 40
0.7936507936507936
 40
0.8095238095238095
 40
0.8095238095238095
 40
0.8095238095238095
 40
0.8253968253968254
 40
0.8253968253968254
 40
0.8253968253968254
 40
0.8412698412698412
 40
0.8412698412698412
 40
0.8412698412698412
 40
0.8571428571428571
 40
0.8571428571428571
 40
0.8571428571428571
 40
0.873015873015873
 40
0.873015873015873
 40
0.873015873015873
 40
0.8888888888888888
 40
0.8888888888888888
 40
0.8888888888888888
 40
0.9047619047619047
 40
0.9047619047619047
 40
0.9047619047619047
 40
0.9206349206349206
 40
0.9206349206349206
 40
0.9206349206349206
 40
0.9365079365079365
 40
0.9365079365079365
 40
0.9365079365079365
 40
0.9523809523809523
 40
0.9523809523809523
 40
0.9523809523809523
 40
0.9682539682539681
 40
0.9682539682539681
 40
0.9682539682539681
 40
0.9841269841269841
 40
0.9841269841269841
 40
0.9841269841269841
 40
1.0
 40
1.0
 40
1.0
 40
1.0
 10
-7.5788
 20
-4.5747
 30
0.0
 10
-7.5788
 20
-4.5747
 30
0.0
 10
-10.4194
 20
-3.2931
 30
0.0
 10
-10.4194
 20
-3.2931
 30
0.0
 10
-10.6767
 20
-3.1719
 30
0.0
 10
-10.9302
 20
-3.0439
 30
0.0
 10
-11.179
 20
-2.91
 30
0.0
 10
-11.3385
 20
-2.8239
 30
0.0
 10
-11.4965
 20
-2.7353
 30
0.0
 10
-11.6528
 20
-2.6439
 30
0.0
 10
-11.6268
 20
-2.7386
 30
0.0
 10
-11.6082
 20
-2.8227
 30
0.0
 10
-11.5968
 20
-2.8959
 30
0.0
 10
-11.579
 20
-3.0109
 30
0.0
 10
-11.5792
 20
-3.1029
 30
0.0
 10
-11.5973
 20
-3.1708
 30
0.0
 10
-11.6258
 20
-3.2774
 30
0.0
 10
-11.681
 20
-3.3524
 30
0.0
 10
-11.763
 20
-3.3958
 30
0.0
 10
-11.8399
 20
-3.4363
 30
0.0
 10
-11.9351
 20
-3.4449
 30
0.0
 10
-12.0473
 20
-3.4211
 30
0.0
 10
-12.1477
 20
-3.4002
 30
0.0
 10
-12.265
 20
-3.3588
 30
0.0
 10
-12.3985
 20
-3.2977
 30
0.0
 10
-12.5289
 20
-3.2381
 30
0.0
 10
-12.6754
 20
-3.1596
 30
0.0
 10
-12.8376
 20
-3.0621
 30
0.0
 10
-13.0022
 20
-2.9635
 30
0.0
 10
-13.1442
 20
-2.8697
 30
0.0
 10
-13.263
 20
-2.7809
 30
0.0
 10
-13.3834
 20
-2.6909
 30
0.0
 10
-13.4838
 20
-2.6032
 30
0.0
 10
-13.5628
 20
-2.5189
 30
0.0
 10
-13.5628
 20
-2.5189
 30
0.0
 10
-13.5649
 20
-2.5173
 30
0.0
 10
-13.5649
 20
-2.5173
 30
0.0
 10
-13.7309
 20
-2.331
 30
0.0
 10
-13.8684
 20
-2.1093
 30
0.0
 10
-13.9767
 20
-1.8523
 30
0.0
 10
-14.0839
 20
-1.5978
 30
0.0
 10
-14.1626
 20
-1.3092
 30
0.0
 10
-14.2121
 20
-0.9864
 30
0.0
 10
-14.2622
 20
-0.6597
 30
0.0
 10
-14.2794
 20
-0.3165
 30
0.0
 10
-14.2635
 20
0.0433
 30
0.0
 10
-14.2477
 20
0.4012
 30
0.0
 10
-14.1986
 20
0.7754
 30
0.0
 10
-14.1159
 20
1.1651
 30
0.0
 10
-14.0644
 20
1.407
 30
0.0
 10
-14.0002
 20
1.6364
 30
0.0
 10
-13.9235
 20
1.8523
 30
0.0
 10
-13.8467
 20
2.0684
 30
0.0
 10
-13.757
 20
2.2718
 30
0.0
 10
-13.6547
 20
2.4613
 30
0.0
 10
-13.5501
 20
2.6544
 30
0.0
 10
-13.4329
 20
2.8311
 30
0.0
 10
-13.3036
 20
2.9904
 30
0.0
 10
-13.1744
 20
3.1495
 30
0.0
 10
-13.0329
 20
3.2915
 30
0.0
 10
-12.8795
 20
3.4156
 30
0.0
 10
-12.7244
 20
3.5407
 30
0.0
 10
-12.5591
 20
3.6464
 30
0.0
 10
-12.3845
 20
3.7317
 30
0.0
 10
-12.2101
 20
3.817
 30
0.0
 10
-12.0269
 20
3.8819
 30
0.0
 10
-11.8357
 20
3.9257
 30
0.0
 10
-11.6425
 20
3.9696
 30
0.0
 10
-11.4441
 20
3.9915
 30
0.0
 10
-11.241
 20
3.9912
 30
0.0
 10
-11.0388
 20
3.9909
 30
0.0
 10
-10.8316
 20
3.9687
 30
0.0
 10
-10.6204
 20
3.9245
 30
0.0
 10
-10.328
 20
3.8633
 30
0.0
 10
-10.0572
 20
3.7827
 30
0.0
 10
-9.8086
 20
3.6836
 30
0.0
 10
-9.5587
 20
3.584
 30
0.0
 10
-9.3307
 20
3.4649
 30
0.0
 10
-9.1255
 20
3.3271
 30
0.0
 10
-8.9206
 20
3.1897
 30
0.0
 10
-8.731
 20
3.0286
 30
0.0
 10
-8.5576
 20
2.8452
 30
0.0
 10
-8.384
 20
2.6616
 30
0.0
 10
-8.2259
 20
2.455
 30
0.0
 10
-8.0837
 20
2.2261
 30
0.0
 10
-7.9307
 20
1.9759
 30
0.0
 10
-7.8127
 20
1.7395
 30
0.0
 10
-7.7292
 20
1.5171
 30
0.0
 10
-7.6599
 20
1.3318
 30
0.0
 10
-7.6144
 20
1.1561
 30
0.0
 10
-7.5928
 20
0.9901
 30
0.0
 10
-7.2278
 20
1.5951
 30
0.0
 10
-6.7816
 20
2.0316
 30
0.0
 10
-6.2571
 20
2.2941
 30
0.0
 10
-5.6565
 20
2.5948
 30
0.0
 10
-4.9573
 20
2.6654
 30
0.0
 10
-4.1636
 20
2.4992
 30
0.0
 10
-4.0045
 20
2.4661
 30
0.0
 10
-3.8462
 20
2.4227
 30
0.0
 10
-3.6897
 20
2.3696
 30
0.0
 10
-3.5333
 20
2.3165
 30
0.0
 10
-3.3757
 20
2.2525
 30
0.0
 10
-3.2176
 20
2.1782
 30
0.0
 10
-3.0601
 20
2.1043
 30
0.0
 10
-2.9088
 20
2.0226
 30
0.0
 10
-2.7638
 20
1.9335
 30
0.0
 10
-2.6194
 20
1.8447
 30
0.0
 10
-2.4782
 20
1.7465
 30
0.0
 10
-2.3411
 20
1.6396
 30
0.0
 10
-2.2044
 20
1.5331
 30
0.0
 10
-2.0789
 20
1.4219
 30
0.0
 10
-1.9652
 20
1.307
 30
0.0
 10
-1.8504
 20
1.1904
 30
0.0
 10
-1.7453
 20
1.0683
 30
0.0
 10
-1.6507
 20
0.9411
 30
0.0
 10
-1.4446
 20
0.6721
 30
0.0
 10
-1.2578
 20
0.3883
 30
0.0
 10
-1.0912
 20
0.0906
 30
0.0
 10
-0.9237
 20
-0.2084
 30
0.0
 10
-0.7753
 20
-0.5228
 30
0.0
 10
-0.6467
 20
-0.8514
 30
0.0
 10
-0.5214
 20
-1.1716
 30
0.0
 10
-0.4203
 20
-1.4862
 30
0.0
 10
-0.3438
 20
-1.7942
 30
0.0
 10
-0.2668
 20
-2.1035
 30
0.0
 10
-0.2143
 20
-2.4066
 30
0.0
 10
-0.1864
 20
-2.7032
 30
0.0
 10
-0.1586
 20
-2.9971
 30
0.0
 10
-0.1594
 20
-3.2625
 30
0.0
 10
-0.1881
 20
-3.4992
 30
0.0
 10
-0.2175
 20
-3.7412
 30
0.0
 10
-0.2758
 20
-3.9555
 30
0.0
 10
-0.3627
 20
-4.1419
 30
0.0
 10
-0.4338
 20
-4.2934
 30
0.0
 10
-0.5161
 20
-4.4384
 30
0.0
 10
-0.6099
 20
-4.5767
 30
0.0
 10
-0.7037
 20
-4.7153
 30
0.0
 10
-0.809
 20
-4.8471
 30
0.0
 10
-0.9248
 20
-4.9715
 30
0.0
 10
-1.0401
 20
-5.0956
 30
0.0
 10
-1.1579
 20
-5.2041
 30
0.0
 10
-1.2777
 20
-5.2969
 30
0.0
 10
-1.3979
 20
-5.3907
 30
0.0
 10
-1.5208
 20
-5.4687
 30
0.0
 10
-1.6453
 20
-5.5306
 30
0.0
 10
-1.7716
 20
-5.5935
 30
0.0
 10
-1.8938
 20
-5.6356
 30
0.0
 10
-2.0112
 20
-5.6568
 30
0.0
 10
-2.1318
 20
-5.6784
 30
0.0
 10
-2.247
 20
-5.6779
 30
0.0
 10
-2.3561
 20
-5.6548
 30
0.0
 10
-2.4502
 20
-5.6351
 30
0.0
 10
-2.5383
 20
-5.6073
 30
0.0
 10
-2.6197
 20
-5.5717
 30
0.0
 10
-2.7029
 20
-5.5355
 30
0.0
 10
-2.7793
 20
-5.4912
 30
0.0
 10
-2.8478
 20
-5.4394
 30
0.0
 10
-2.9158
 20
-5.3882
 30
0.0
 10
-2.9874
 20
-5.3209
 30
0.0
 10
-3.0621
 20
-5.2381
 30
0.0
 10
-3.0621
 20
-5.2381
 30
0.0
 10
-3.1439
 20
-5.1424
 30
0.0
 10
-3.1439
 20
-5.1424
 30
0.0
 10
-3.1522
 20
-5.1779
 30
0.0
 10
-3.1637
 20
-5.2126
 30
0.0
 10
-3.1781
 20
-5.2461
 30
0.0
 10
-3.2257
 20
-5.3583
 30
0.0
 10
-3.295
 20
-5.4546
 30
0.0
 10
-3.3856
 20
-5.5346
 30
0.0
 10
-3.4743
 20
-5.6131
 30
0.0
 10
-3.5828
 20
-5.675
 30
0.0
 10
-3.7103
 20
-5.7202
 30
0.0
 10
-3.8346
 20
-5.7647
 30
0.0
 10
-3.9697
 20
-5.7892
 30
0.0
 10
-4.1147
 20
-5.7938
 30
0.0
 10
-4.2571
 20
-5.7982
 30
0.0
 10
-4.4088
 20
-5.7834
 30
0.0
 10
-4.5699
 20
-5.7495
 30
0.0
 10
-4.6603
 20
-5.7304
 30
0.0
 10
-4.8038
 20
-5.6864
 30
0.0
 10
-5.0004
 20
-5.6177
 30
0.0
 10
-5.1937
 20
-5.5501
 30
0.0
 10
-5.439
 20
-5.4584
 30
0.0
 10
-5.736
 20
-5.3426
 30
0.0
 10
-6.0411
 20
-5.2239
 30
0.0
 10
-6.3462
 20
-5.1007
 30
0.0
 10
-6.6509
 20
-4.9738
 30
0.0
 10
-6.9566
 20
-4.8462
 30
0.0
 10
-7.2662
 20
-4.7132
 30
0.0
 10
-7.5788
 20
-4.5747
 30
0.0
  0
SPLINE
  5
6F
330
1F
100
AcDbEntity
  8
Layer 1
 62
   250
100
AcDbSpline
210
0.0
220
0.0
230
1.0
 70
    11
 71
     3
 72
    20
 73
    16
 74
     0
 42
0.0000000001
 43
0.0000000001
 40
0.0
 40
0.0
 40
0.0
 40
0.0
 40
0.2
 40
0.2
 40
0.2
 40
0.4
 40
0.4
 40
0.4
 40
0.6000000000000001
 40
0.6000000000000001
 40
0.6000000000000001
 40
0.8
 40
0.8
 40
0.8
 40
1.0
 40
1.0
 40
1.0
 40
1.0
 10
-8.1835
 20
-20.3479
 30
0.0
 10
-8.1835
 20
-19.7333
 30
0.0
 10
-8.3738
 20
-19.4258
 30
0.0
 10
-8.7785
 20
-19.4258
 30
0.0
 10
-8.9872
 20
-19.4258
 30
0.0
 10
-9.1691
 20
-19.5192
 30
0.0
 10
-9.3673
 20
-19.7325
 30
0.0
 10
-9.3673
 20
-19.7325
 30
0.0
 10
-9.3673
 20
-21.139
 30
0.0
 10
-9.3673
 20
-21.139
 30
0.0
 10
-9.1858
 20
-21.3
 30
0.0
 10
-8.9921
 20
-21.356
 30
0.0
 10
-8.8211
 20
-21.356
 30
0.0
 10
-8.4669
 20
-21.356
 30
0.0
 10
-8.1835
 20
-21.0572
 30
0.0
 10
-8.1835
 20
-20.3479
 30
0.0
  0
SPLINE
  5
70
330
1F
100
AcDbEntity
  8
Layer 1
 62
   250
100
AcDbSpline
210
0.0
220
0.0
230
1.0
 70
    11
 71
     3
 72
    38
 73
    34
 74
     0
 42
0.0000000001
 43
0.0000000001
 40
0.0
 40
0.0
 40
0.0
 40
0.0
 40
0.0909090909090909
 40
0.0909090909090909
 40
0.0909090909090909
 40
0.1818181818181818
 40
0.1818181818181818
 40
0.1818181818181818
 40
0.2727272727272727
 40
0.2727272727272727
 40
0.2727272727272727
 40
0.3636363636363636
 40
0.3636363636363636
 40
0.3636363636363636
 40
0.4545454545454546
 40
0.4545454545454546
 40
0.4545454545454546
 40
0.5454545454545454
 40
0.5454545454545454
 40
0.5454545454545454
 40
0.6363636363636364
 40
0.6363636363636364
 40
0.6363636363636364
 40
0.7272727272727273
 40
0.7272727272727273
 40
0.7272727272727273
 40
0.8181818181818182
 40
0.8181818181818182
 40
0.8181818181818182
 40
0.9090909090909092
 40
0.9090909090909092
 40
0.9090909090909092
 40
1.0
 40
1.0
 40
1.0
 40
1.0
 10
-9.4787
 20
-21.7381
 30
0.0
 10
-9.4787
 20
-21.7381
 30
0.0
 10
-9.5042
 20
-21.7381
 30
0.0
 10
-9.5042
 20
-21.7381
 30
0.0
 10
-9.5042
 20
-21.7381
 30
0.0
 10
-9.5884
 20
-22.1041
 30
0.0
 10
-9.5884
 20
-22.1041
 30
0.0
 10
-9.5884
 20
-22.1041
 30
0.0
 10
-10.3824
 20
-22.1041
 30
0.0
 10
-10.3824
 20
-22.1041
 30
0.0
 10
-10.3824
 20
-22.1041
 30
0.0
 10
-10.3824
 20
-17.2658
 30
0.0
 10
-10.3824
 20
-17.2658
 30
0.0
 10
-10.3824
 20
-17.2658
 30
0.0
 10
-9.3673
 20
-17.2658
 30
0.0
 10
-9.3673
 20
-17.2658
 30
0.0
 10
-9.3673
 20
-17.2658
 30
0.0
 10
-9.3673
 20
-18.4478
 30
0.0
 10
-9.3673
 20
-18.4478
 30
0.0
 10
-9.3673
 20
-18.4478
 30
0.0
 10
-9.3927
 20
-18.9743
 30
0.0
 10
-9.3927
 20
-18.9743
 30
0.0
 10
-9.1328
 20
-18.7411
 30
0.0
 10
-8.8094
 20
-18.5955
 30
0.0
 10
-8.4861
 20
-18.5955
 30
0.0
 10
-7.6566
 20
-18.5955
 30
0.0
 10
-7.1434
 20
-19.2807
 30
0.0
 10
-7.1434
 20
-20.3313
 30
0.0
 10
-7.1434
 20
-21.5125
 30
0.0
 10
-7.8427
 20
-22.1867
 30
0.0
 10
-8.5841
 20
-22.1867
 30
0.0
 10
-8.8903
 20
-22.1867
 30
0.0
 10
-9.2066
 20
-22.0323
 30
0.0
 10
-9.4787
 20
-21.7381
 30
0.0
  0
SPLINE
  5
71
330
1F
100
AcDbEntity
  8
Layer 1
 62
   250
100
AcDbSpline
210
0.0
220
0.0
230
1.0
 70
    11
 71
     3
 72
    17
 73
    13
 74
     0
 42
0.0000000001
 43
0.0000000001
 40
0.0
 40
0.0
 40
0.0
 40
0.0
 40
0.25
 40
0.25
 40
0.25
 40
0.5
 40
0.5
 40
0.5
 40
0.75
 40
0.75
 40
0.75
 40
1.0
 40
1.0
 40
1.0
 40
1.0
 10
-3.8961
 20
-21.1087
 30
0.0
 10
-3.8961
 20
-21.1087
 30
0.0
 10
-3.8961
 20
-20.5099
 30
0.0
 10
-3.8961
 20
-20.5099
 30
0.0
 10
-4.618
 20
-20.6076
 30
0.0
 10
-4.8532
 20
-20.8141
 30
0.0
 10
-4.8532
 20
-21.0727
 30
0.0
 10
-4.8532
 20
-21.2935
 30
0.0
 10
-4.7018
 20
-21.4015
 30
0.0
 10
-4.4602
 20
-21.4015
 30
0.0
 10
-4.2303
 20
-21.4015
 30
0.0
 10
-4.0764
 20
-21.2881
 30
0.0
 10
-3.8961
 20
-21.1087
 30
0.0
  0
SPLINE
  5
72
330
1F
100
AcDbEntity
  8
Layer 1
 62
   250
100
AcDbSpline
210
0.0
220
0.0
230
1.0
 70
    11
 71
     3
 72
    41
 73
    37
 74
     0
 42
0.0000000001
 43
0.0000000001
 40
0.0
 40
0.0
 40
0.0
 40
0.0
 40
0.0833333333333333
 40
0.0833333333333333
 40
0.0833333333333333
 40
0.1666666666666667
 40
0.1666666666666667
 40
0.1666666666666667
 40
0.25
 40
0.25
 40
0.25
 40
0.3333333333333333
 40
0.3333333333333333
 40
0.3333333333333333
 40
0.4166666666666666
 40
0.4166666666666666
 40
0.4166666666666666
 40
0.5
 40
0.5
 40
0.5
 40
0.5833333333333333
 40
0.5833333333333333
 40
0.5833333333333333
 40
0.6666666666666666
 40
0.6666666666666666
 40
0.6666666666666666
 40
0.75
 40
0.75
 40
0.75
 40
0.8333333333333333
 40
0.8333333333333333
 40
0.8333333333333333
 40
0.9166666666666666
 40
0.9166666666666666
 40
0.9166666666666666
 40
1.0
 40
1.0
 40
1.0
 40
1.0
 10
-5.8254
 20
-21.1533
 30
0.0
 10
-5.8254
 20
-20.4319
 30
0.0
 10
-5.2513
 20
-20.0414
 30
0.0
 10
-3.8961
 20
-19.8983
 30
0.0
 10
-3.9161
 20
-19.5982
 30
0.0
 10
-4.0659
 20
-19.403
 30
0.0
 10
-4.4377
 20
-19.403
 30
0.0
 10
-4.7251
 20
-19.403
 30
0.0
 10
-5.0118
 20
-19.5239
 30
0.0
 10
-5.3443
 20
-19.7126
 30
0.0
 10
-5.3443
 20
-19.7126
 30
0.0
 10
-5.7052
 20
-19.0462
 30
0.0
 10
-5.7052
 20
-19.0462
 30
0.0
 10
-5.2701
 20
-18.7805
 30
0.0
 10
-4.7806
 20
-18.5956
 30
0.0
 10
-4.242
 20
-18.5956
 30
0.0
 10
-3.3658
 20
-18.5956
 30
0.0
 10
-2.8809
 20
-19.0954
 30
0.0
 10
-2.8809
 20
-20.1449
 30
0.0
 10
-2.8809
 20
-20.1449
 30
0.0
 10
-2.8809
 20
-22.1042
 30
0.0
 10
-2.8809
 20
-22.1042
 30
0.0
 10
-2.8809
 20
-22.1042
 30
0.0
 10
-3.7092
 20
-22.1042
 30
0.0
 10
-3.7092
 20
-22.1042
 30
0.0
 10
-3.7092
 20
-22.1042
 30
0.0
 10
-3.7826
 20
-21.7533
 30
0.0
 10
-3.7826
 20
-21.7533
 30
0.0
 10
-3.7826
 20
-21.7533
 30
0.0
 10
-3.8077
 20
-21.7533
 30
0.0
 10
-3.8077
 20
-21.7533
 30
0.0
 10
-4.0959
 20
-22.0066
 30
0.0
 10
-4.4189
 20
-22.1868
 30
0.0
 10
-4.804
 20
-22.1868
 30
0.0
 10
-5.4291
 20
-22.1868
 30
0.0
 10
-5.8254
 20
-21.7308
 30
0.0
 10
-5.8254
 20
-21.1533
 30
0.0
  0
SPLINE
  5
73
330
1F
100
AcDbEntity
  8
Layer 1
 62
   250
100
AcDbSpline
210
0.0
220
0.0
230
1.0
 70
    11
 71
     3
 72
    59
 73
    55
 74
     0
 42
0.0000000001
 43
0.0000000001
 40
0.0
 40
0.0
 40
0.0
 40
0.0
 40
0.0555555555555556
 40
0.0555555555555556
 40
0.0555555555555556
 40
0.1111111111111111
 40
0.1111111111111111
 40
0.1111111111111111
 40
0.1666666666666667
 40
0.1666666666666667
 40
0.1666666666666667
 40
0.2222222222222222
 40
0.2222222222222222
 40
0.2222222222222222
 40
0.2777777777777778
 40
0.2777777777777778
 40
0.2777777777777778
 40
0.3333333333333333
 40
0.3333333333333333
 40
0.3333333333333333
 40
0.3888888888888888
 40
0.3888888888888888
 40
0.3888888888888888
 40
0.4444444444444444
 40
0.4444444444444444
 40
0.4444444444444444
 40
0.5
 40
0.5
 40
0.5
 40
0.5555555555555556
 40
0.5555555555555556
 40
0.5555555555555556
 40
0.611111111111111
 40
0.611111111111111
 40
0.611111111111111
 40
0.6666666666666666
 40
0.6666666666666666
 40
0.6666666666666666
 40
0.7222222222222222
 40
0.7222222222222222
 40
0.7222222222222222
 40
0.7777777777777777
 40
0.7777777777777777
 40
0.7777777777777777
 40
0.8333333333333333
 40
0.8333333333333333
 40
0.8333333333333333
 40
0.8888888888888888
 40
0.8888888888888888
 40
0.8888888888888888
 40
0.9444444444444444
 40
0.9444444444444444
 40
0.9444444444444444
 40
1.0
 40
1.0
 40
1.0
 40
1.0
 10
-0.4921
 20
-20.3206
 30
0.0
 10
-0.4921
 20
-20.3206
 30
0.0
 10
-1.4827
 20
-18.6779
 30
0.0
 10
-1.4827
 20
-18.6779
 30
0.0
 10
-1.4827
 20
-18.6779
 30
0.0
 10
-0.3945
 20
-18.6779
 30
0.0
 10
-0.3945
 20
-18.6779
 30
0.0
 10
-0.3945
 20
-18.6779
 30
0.0
 10
-0.0895
 20
-19.232
 30
0.0
 10
-0.0895
 20
-19.232
 30
0.0
 10
0.0035
 20
-19.4232
 30
0.0
 10
0.1054
 20
-19.6247
 30
0.0
 10
0.2013
 20
-19.8157
 30
0.0
 10
0.2013
 20
-19.8157
 30
0.0
 10
0.2288
 20
-19.8157
 30
0.0
 10
0.2288
 20
-19.8157
 30
0.0
 10
0.3018
 20
-19.6247
 30
0.0
 10
0.3899
 20
-19.4232
 30
0.0
 10
0.4626
 20
-19.232
 30
0.0
 10
0.4626
 20
-19.232
 30
0.0
 10
0.6966
 20
-18.6779
 30
0.0
 10
0.6966
 20
-18.6779
 30
0.0
 10
0.6966
 20
-18.6779
 30
0.0
 10
1.7481
 20
-18.6779
 30
0.0
 10
1.7481
 20
-18.6779
 30
0.0
 10
1.7481
 20
-18.6779
 30
0.0
 10
0.7579
 20
-20.4367
 30
0.0
 10
0.7579
 20
-20.4367
 30
0.0
 10
0.7579
 20
-20.4367
 30
0.0
 10
1.811
 20
-22.1039
 30
0.0
 10
1.811
 20
-22.1039
 30
0.0
 10
1.811
 20
-22.1039
 30
0.0
 10
0.7224
 20
-22.1039
 30
0.0
 10
0.7224
 20
-22.1039
 30
0.0
 10
0.7224
 20
-22.1039
 30
0.0
 10
0.3853
 20
-21.5377
 30
0.0
 10
0.3853
 20
-21.5377
 30
0.0
 10
0.278
 20
-21.342
 30
0.0
 10
0.1742
 20
-21.1347
 30
0.0
 10
0.0644
 20
-20.9414
 30
0.0
 10
0.0644
 20
-20.9414
 30
0.0
 10
0.0374
 20
-20.9414
 30
0.0
 10
0.0374
 20
-20.9414
 30
0.0
 10
-0.0503
 20
-21.1347
 30
0.0
 10
-0.1399
 20
-21.3366
 30
0.0
 10
-0.2267
 20
-21.5377
 30
0.0
 10
-0.2267
 20
-21.5377
 30
0.0
 10
-0.493
 20
-22.1039
 30
0.0
 10
-0.493
 20
-22.1039
 30
0.0
 10
-0.493
 20
-22.1039
 30
0.0
 10
-1.5448
 20
-22.1039
 30
0.0
 10
-1.5448
 20
-22.1039
 30
0.0
 10
-1.5448
 20
-22.1039
 30
0.0
 10
-0.4921
 20
-20.3206
 30
0.0
 10
-0.4921
 20
-20.3206
 30
0.0
  0
SPLINE
  5
74
330
1F
100
AcDbEntity
  8
Layer 1
 62
   250
100
AcDbSpline
210
0.0
220
0.0
230
1.0
 70
    11
 71
     3
 72
    17
 73
    13
 74
     0
 42
0.0000000001
 43
0.0000000001
 40
0.0
 40
0.0
 40
0.0
 40
0.0
 40
0.25
 40
0.25
 40
0.25
 40
0.5
 40
0.5
 40
0.5
 40
0.75
 40
0.75
 40
0.75
 40
1.0
 40
1.0
 40
1.0
 40
1.0
 10
3.1887
 20
-18.6781
 30
0.0
 10
3.1887
 20
-18.6781
 30
0.0
 10
4.2039
 20
-18.6781
 30
0.0
 10
4.2039
 20
-18.6781
 30
0.0
 10
4.2039
 20
-18.6781
 30
0.0
 10
4.2039
 20
-22.1041
 30
0.0
 10
4.2039
 20
-22.1041
 30
0.0
 10
4.2039
 20
-22.1041
 30
0.0
 10
3.1887
 20
-22.1041
 30
0.0
 10
3.1887
 20
-22.1041
 30
0.0
 10
3.1887
 20
-22.1041
 30
0.0
 10
3.1887
 20
-18.6781
 30
0.0
 10
3.1887
 20
-18.6781
 30
0.0
  0
SPLINE
  5
75
330
1F
100
AcDbEntity
  8
Layer 1
 62
   250
100
AcDbSpline
210
0.0
220
0.0
230
1.0
 70
    11
 71
     3
 72
    17
 73
    13
 74
     0
 42
0.0000000001
 43
0.0000000001
 40
0.0
 40
0.0
 40
0.0
 40
0.0
 40
0.25
 40
0.25
 40
0.25
 40
0.5
 40
0.5
 40
0.5
 40
0.75
 40
0.75
 40
0.75
 40
1.0
 40
1.0
 40
1.0
 40
1.0
 10
3.1095
 20
-17.6462
 30
0.0
 10
3.1095
 20
-17.3346
 30
0.0
 10
3.3564
 20
-17.1159
 30
0.0
 10
3.6969
 20
-17.1159
 30
0.0
 10
4.0373
 20
-17.1159
 30
0.0
 10
4.2844
 20
-17.3346
 30
0.0
 10
4.2844
 20
-17.6462
 30
0.0
 10
4.2844
 20
-17.9551
 30
0.0
 10
4.0373
 20
-18.1769
 30
0.0
 10
3.6969
 20
-18.1769
 30
0.0
 10
3.3564
 20
-18.1769
 30
0.0
 10
3.1095
 20
-17.9551
 30
0.0
 10
3.1095
 20
-17.6462
 30
0.0
  0
SPLINE
  5
76
330
1F
100
AcDbEntity
  8
Layer 1
 62
   250
100
AcDbSpline
210
0.0
220
0.0
230
1.0
 70
    11
 71
     3
 72
    44
 73
    40
 74
     0
 42
0.0000000001
 43
0.0000000001
 40
0.0
 40
0.0
 40
0.0
 40
0.0
 40
0.0769230769230769
 40
0.0769230769230769
 40
0.0769230769230769
 40
0.1538461538461539
 40
0.1538461538461539
 40
0.1538461538461539
 40
0.2307692307692308
 40
0.2307692307692308
 40
0.2307692307692308
 40
0.3076923076923077
 40
0.3076923076923077
 40
0.3076923076923077
 40
0.3846153846153846
 40
0.3846153846153846
 40
0.3846153846153846
 40
0.4615384615384616
 40
0.4615384615384616
 40
0.4615384615384616
 40
0.5384615384615385
 40
0.5384615384615385
 40
0.5384615384615385
 40
0.6153846153846154
 40
0.6153846153846154
 40
0.6153846153846154
 40
0.6923076923076923
 40
0.6923076923076923
 40
0.6923076923076923
 40
0.7692307692307693
 40
0.7692307692307693
 40
0.7692307692307693
 40
0.8461538461538463
 40
0.8461538461538463
 40
0.8461538461538463
 40
0.9230769230769231
 40
0.9230769230769231
 40
0.9230769230769231
 40
1.0
 40
1.0
 40
1.0
 40
1.0
 10
5.9287
 20
-18.6782
 30
0.0
 10
5.9287
 20
-18.6782
 30
0.0
 10
6.757
 20
-18.6782
 30
0.0
 10
6.757
 20
-18.6782
 30
0.0
 10
6.757
 20
-18.6782
 30
0.0
 10
6.8296
 20
-19.1116
 30
0.0
 10
6.8296
 20
-19.1116
 30
0.0
 10
6.8296
 20
-19.1116
 30
0.0
 10
6.8555
 20
-19.1116
 30
0.0
 10
6.8555
 20
-19.1116
 30
0.0
 10
7.1434
 20
-18.8347
 30
0.0
 10
7.4884
 20
-18.5955
 30
0.0
 10
7.9562
 20
-18.5955
 30
0.0
 10
8.7009
 20
-18.5955
 30
0.0
 10
9.0185
 20
-19.1209
 30
0.0
 10
9.0185
 20
-19.977
 30
0.0
 10
9.0185
 20
-19.977
 30
0.0
 10
9.0185
 20
-22.1041
 30
0.0
 10
9.0185
 20
-22.1041
 30
0.0
 10
9.0185
 20
-22.1041
 30
0.0
 10
8.0037
 20
-22.1041
 30
0.0
 10
8.0037
 20
-22.1041
 30
0.0
 10
8.0037
 20
-22.1041
 30
0.0
 10
8.0037
 20
-20.1071
 30
0.0
 10
8.0037
 20
-20.1071
 30
0.0
 10
8.0037
 20
-19.6136
 30
0.0
 10
7.871
 20
-19.4596
 30
0.0
 10
7.5782
 20
-19.4596
 30
0.0
 10
7.3232
 20
-19.4596
 30
0.0
 10
7.1672
 20
-19.5781
 30
0.0
 10
6.9444
 20
-19.793
 30
0.0
 10
6.9444
 20
-19.793
 30
0.0
 10
6.9444
 20
-22.1041
 30
0.0
 10
6.9444
 20
-22.1041
 30
0.0
 10
6.9444
 20
-22.1041
 30
0.0
 10
5.9287
 20
-22.1041
 30
0.0
 10
5.9287
 20
-22.1041
 30
0.0
 10
5.9287
 20
-22.1041
 30
0.0
 10
5.9287
 20
-18.6782
 30
0.0
 10
5.9287
 20
-18.6782
 30
0.0
  0
SPLINE
  5
77
330
1F
100
AcDbEntity
  8
Layer 1
 62
   250
100
AcDbSpline
210
0.0
220
0.0
230
1.0
 70
    11
 71
     3
 72
    17
 73
    13
 74
     0
 42
0.0000000001
 43
0.0000000001
 40
0.0
 40
0.0
 40
0.0
 40
0.0
 40
0.25
 40
0.25
 40
0.25
 40
0.5
 40
0.5
 40
0.5
 40
0.75
 40
0.75
 40
0.75
 40
1.0
 40
1.0
 40
1.0
 40
1.0
 10
12.8104
 20
-20.3919
 30
0.0
 10
12.8104
 20
-19.7994
 30
0.0
 10
12.6022
 20
-19.4143
 30
0.0
 10
12.182
 20
-19.4143
 30
0.0
 10
11.7618
 20
-19.4143
 30
0.0
 10
11.5533
 20
-19.7994
 30
0.0
 10
11.5533
 20
-20.3919
 30
0.0
 10
11.5533
 20
-20.9852
 30
0.0
 10
11.7618
 20
-21.3678
 30
0.0
 10
12.182
 20
-21.3678
 30
0.0
 10
12.6022
 20
-21.3678
 30
0.0
 10
12.8104
 20
-20.9852
 30
0.0
 10
12.8104
 20
-20.3919
 30
0.0
  0
SPLINE
  5
78
330
1F
100
AcDbEntity
  8
Layer 1
 62
   250
100
AcDbSpline
210
0.0
220
0.0
230
1.0
 70
    11
 71
     3
 72
    17
 73
    13
 74
     0
 42
0.0000000001
 43
0.0000000001
 40
0.0
 40
0.0
 40
0.0
 40
0.0
 40
0.25
 40
0.25
 40
0.25
 40
0.5
 40
0.5
 40
0.5
 40
0.75
 40
0.75
 40
0.75
 40
1.0
 40
1.0
 40
1.0
 40
1.0
 10
10.5135
 20
-20.3919
 30
0.0
 10
10.5135
 20
-19.2533
 30
0.0
 10
11.315
 20
-18.5953
 30
0.0
 10
12.182
 20
-18.5953
 30
0.0
 10
13.0486
 20
-18.5953
 30
0.0
 10
13.851
 20
-19.2533
 30
0.0
 10
13.851
 20
-20.3919
 30
0.0
 10
13.851
 20
-21.5289
 30
0.0
 10
13.0486
 20
-22.1868
 30
0.0
 10
12.182
 20
-22.1868
 30
0.0
 10
11.315
 20
-22.1868
 30
0.0
 10
10.5135
 20
-21.5289
 30
0.0
 10
10.5135
 20
-20.3919
 30
0.0
  0
SPLINE
  5
79
330
1F
100
AcDbEntity
  8
Layer 1
 62
   250
100
AcDbSpline
210
0.0
220
0.0
230
1.0
 70
    11
 71
     3
 72
    17
 73
    13
 74
     0
 42
0.0000000001
 43
0.0000000001
 40
0.0
 40
0.0
 40
0.0
 40
0.0
 40
0.25
 40
0.25
 40
0.25
 40
0.5
 40
0.5
 40
0.5
 40
0.75
 40
0.75
 40
0.75
 40
1.0
 40
1.0
 40
1.0
 40
1.0
 10
15.2865
 20
-21.5488
 30
0.0
 10
15.2865
 20
-21.187
 30
0.0
 10
15.5473
 20
-20.9082
 30
0.0
 10
15.8998
 20
-20.9082
 30
0.0
 10
16.2516
 20
-20.9082
 30
0.0
 10
16.5124
 20
-21.187
 30
0.0
 10
16.5124
 20
-21.5488
 30
0.0
 10
16.5124
 20
-21.9075
 30
0.0
 10
16.2516
 20
-22.1867
 30
0.0
 10
15.8998
 20
-22.1867
 30
0.0
 10
15.5473
 20
-22.1867
 30
0.0
 10
15.2865
 20
-21.9075
 30
0.0
 10
15.2865
 20
-21.5488
 30
0.0
  0
SPLINE
  5
7A
330
1F
100
AcDbEntity
  8
Layer 1
 62
   250
100
AcDbSpline
210
0.0
220
0.0
230
1.0
 70
    11
 71
     3
 72
    17
 73
    13
 74
     0
 42
0.0000000001
 43
0.0000000001
 40
0.0
 40
0.0
 40
0.0
 40
0.0
 40
0.25
 40
0.25
 40
0.25
 40
0.5
 40
0.5
 40
0.5
 40
0.75
 40
0.75
 40
0.75
 40
1.0
 40
1.0
 40
1.0
 40
1.0
 10
18.2156
 20
-18.6781
 30
0.0
 10
18.2156
 20
-18.6781
 30
0.0
 10
19.2307
 20
-18.6781
 30
0.0
 10
19.2307
 20
-18.6781
 30
0.0
 10
19.2307
 20
-18.6781
 30
0.0
 10
19.2307
 20
-22.1041
 30
0.0
 10
19.2307
 20
-22.1041
 30
0.0
 10
19.2307
 20
-22.1041
 30
0.0
 10
18.2156
 20
-22.1041
 30
0.0
 10
18.2156
 20
-22.1041
 30
0.0
 10
18.2156
 20
-22.1041
 30
0.0
 10
18.2156
 20
-18.6781
 30
0.0
 10
18.2156
 20
-18.6781
 30
0.0
  0
SPLINE
  5
7B
330
1F
100
AcDbEntity
  8
Layer 1
 62
   250
100
AcDbSpline
210
0.0
220
0.0
230
1.0
 70
    11
 71
     3
 72
    17
 73
    13
 74
     0
 42
0.0000000001
 43
0.0000000001
 40
0.0
 40
0.0
 40
0.0
 40
0.0
 40
0.25
 40
0.25
 40
0.25
 40
0.5
 40
0.5
 40
0.5
 40
0.75
 40
0.75
 40
0.75
 40
1.0
 40
1.0
 40
1.0
 40
1.0
 10
18.1367
 20
-17.6462
 30
0.0
 10
18.1367
 20
-17.3346
 30
0.0
 10
18.3837
 20
-17.1159
 30
0.0
 10
18.7238
 20
-17.1159
 30
0.0
 10
19.0647
 20
-17.1159
 30
0.0
 10
19.3113
 20
-17.3346
 30
0.0
 10
19.3113
 20
-17.6462
 30
0.0
 10
19.3113
 20
-17.9551
 30
0.0
 10
19.0647
 20
-18.1769
 30
0.0
 10
18.7238
 20
-18.1769
 30
0.0
 10
18.3837
 20
-18.1769
 30
0.0
 10
18.1367
 20
-17.9551
 30
0.0
 10
18.1367
 20
-17.6462
 30
0.0
  0
SPLINE
  5
7C
330
1F
100
AcDbEntity
  8
Layer 1
 62
   250
100
AcDbSpline
210
0.0
220
0.0
230
1.0
 70
    11
 71
     3
 72
    38
 73
    34
 74
     0
 42
0.0000000001
 43
0.0000000001
 40
0.0
 40
0.0
 40
0.0
 40
0.0
 40
0.0909090909090909
 40
0.0909090909090909
 40
0.0909090909090909
 40
0.1818181818181818
 40
0.1818181818181818
 40
0.1818181818181818
 40
0.2727272727272727
 40
0.2727272727272727
 40
0.2727272727272727
 40
0.3636363636363636
 40
0.3636363636363636
 40
0.3636363636363636
 40
0.4545454545454546
 40
0.4545454545454546
 40
0.4545454545454546
 40
0.5454545454545454
 40
0.5454545454545454
 40
0.5454545454545454
 40
0.6363636363636364
 40
0.6363636363636364
 40
0.6363636363636364
 40
0.7272727272727273
 40
0.7272727272727273
 40
0.7272727272727273
 40
0.8181818181818182
 40
0.8181818181818182
 40
0.8181818181818182
 40
0.9090909090909092
 40
0.9090909090909092
 40
0.9090909090909092
 40
1.0
 40
1.0
 40
1.0
 40
1.0
 10
20.9559
 20
-18.6782
 30
0.0
 10
20.9559
 20
-18.6782
 30
0.0
 10
21.7838
 20
-18.6782
 30
0.0
 10
21.7838
 20
-18.6782
 30
0.0
 10
21.7838
 20
-18.6782
 30
0.0
 10
21.8567
 20
-19.2769
 30
0.0
 10
21.8567
 20
-19.2769
 30
0.0
 10
21.8567
 20
-19.2769
 30
0.0
 10
21.8826
 20
-19.2769
 30
0.0
 10
21.8826
 20
-19.2769
 30
0.0
 10
22.1317
 20
-18.8192
 30
0.0
 10
22.5064
 20
-18.5955
 30
0.0
 10
22.8555
 20
-18.5955
 30
0.0
 10
23.0513
 20
-18.5955
 30
0.0
 10
23.1652
 20
-18.6201
 30
0.0
 10
23.2641
 20
-18.6643
 30
0.0
 10
23.2641
 20
-18.6643
 30
0.0
 10
23.0955
 20
-19.5398
 30
0.0
 10
23.0955
 20
-19.5398
 30
0.0
 10
22.9732
 20
-19.5101
 30
0.0
 10
22.8727
 20
-19.4855
 30
0.0
 10
22.725
 20
-19.4855
 30
0.0
 10
22.4676
 20
-19.4855
 30
0.0
 10
22.1538
 20
-19.6516
 30
0.0
 10
21.9715
 20
-20.1185
 30
0.0
 10
21.9715
 20
-20.1185
 30
0.0
 10
21.9715
 20
-22.1041
 30
0.0
 10
21.9715
 20
-22.1041
 30
0.0
 10
21.9715
 20
-22.1041
 30
0.0
 10
20.9559
 20
-22.1041
 30
0.0
 10
20.9559
 20
-22.1041
 30
0.0
 10
20.9559
 20
-22.1041
 30
0.0
 10
20.9559
 20
-18.6782
 30
0.0
 10
20.9559
 20
-18.6782
 30
0.0
  0
SPLINE
  5
7D
330
1F
100
AcDbEntity
  8
Layer 1
 62
   250
100
AcDbSpline
210
0.0
220
0.0
230
1.0
 70
    11
 71
     3
 72
    23
 73
    19
 74
     0
 42
0.0000000001
 43
0.0000000001
 40
0.0
 40
0.0
 40
0.0
 40
0.0
 40
0.1666666666666667
 40
0.1666666666666667
 40
0.1666666666666667
 40
0.3333333333333333
 40
0.3333333333333333
 40
0.3333333333333333
 40
0.5
 40
0.5
 40
0.5
 40
0.6666666666666666
 40
0.6666666666666666
 40
0.6666666666666666
 40
0.8333333333333333
 40
0.8333333333333333
 40
0.8333333333333333
 40
1.0
 40
1.0
 40
1.0
 40
1.0
 10
-9.7807
 20
-31.0254
 30
0.0
 10
-9.7807
 20
-31.8799
 30
0.0
 10
-9.6329
 20
-32.3067
 30
0.0
 10
-9.3375
 20
-32.3067
 30
0.0
 10
-9.1781
 20
-32.3067
 30
0.0
 10
-9.0625
 20
-32.2128
 30
0.0
 10
-8.9917
 20
-32.0243
 30
0.0
 10
-8.9207
 20
-31.8353
 30
0.0
 10
-8.8852
 20
-31.5352
 30
0.0
 10
-8.8852
 20
-31.1242
 30
0.0
 10
-8.8852
 20
-30.6711
 30
0.0
 10
-8.9207
 20
-30.3411
 30
0.0
 10
-8.9917
 20
-30.1346
 30
0.0
 10
-9.0625
 20
-29.928
 30
0.0
 10
-9.1798
 20
-29.825
 30
0.0
 10
-9.3433
 20
-29.825
 30
0.0
 10
-9.635
 20
-29.825
 30
0.0
 10
-9.7807
 20
-30.2251
 30
0.0
 10
-9.7807
 20
-31.0254
 30
0.0
  0
SPLINE
  5
7E
330
1F
100
AcDbEntity
  8
Layer 1
 62
   250
100
AcDbSpline
210
0.0
220
0.0
230
1.0
 70
    11
 71
     3
 72
    32
 73
    28
 74
     0
 42
0.0000000001
 43
0.0000000001
 40
0.0
 40
0.0
 40
0.0
 40
0.0
 40
0.1111111111111111
 40
0.1111111111111111
 40
0.1111111111111111
 40
0.2222222222222222
 40
0.2222222222222222
 40
0.2222222222222222
 40
0.3333333333333333
 40
0.3333333333333333
 40
0.3333333333333333
 40
0.4444444444444444
 40
0.4444444444444444
 40
0.4444444444444444
 40
0.5555555555555556
 40
0.5555555555555556
 40
0.5555555555555556
 40
0.6666666666666666
 40
0.6666666666666666
 40
0.6666666666666666
 40
0.7777777777777777
 40
0.7777777777777777
 40
0.7777777777777777
 40
0.8888888888888888
 40
0.8888888888888888
 40
0.8888888888888888
 40
1.0
 40
1.0
 40
1.0
 40
1.0
 10
-9.3317
 20
-28.9596
 30
0.0
 10
-8.8981
 20
-28.9596
 30
0.0
 10
-8.5693
 20
-29.1382
 30
0.0
 10
-8.3448
 20
-29.4954
 30
0.0
 10
-8.1205
 20
-29.8526
 30
0.0
 10
-8.0078
 20
-30.3786
 30
0.0
 10
-8.0078
 20
-31.0734
 30
0.0
 10
-8.0078
 20
-31.7501
 30
0.0
 10
-8.1221
 20
-32.2684
 30
0.0
 10
-8.3508
 20
-32.6276
 30
0.0
 10
-8.5794
 20
-32.9868
 30
0.0
 10
-8.906
 20
-33.1667
 30
0.0
 10
-9.3317
 20
-33.1667
 30
0.0
 10
-9.7347
 20
-33.1667
 30
0.0
 10
-10.056
 20
-32.9985
 30
0.0
 10
-10.2942
 20
-32.6622
 30
0.0
 10
-10.5325
 20
-32.3255
 30
0.0
 10
-10.6522
 20
-31.7818
 30
0.0
 10
-10.6522
 20
-31.0316
 30
0.0
 10
-10.6522
 20
-30.3728
 30
0.0
 10
-10.537
 20
-29.863
 30
0.0
 10
-10.3076
 20
-29.5012
 30
0.0
 10
-10.0781
 20
-29.1399
 30
0.0
 10
-9.7568
 20
-28.9596
 30
0.0
 10
-9.3433
 20
-28.9596
 30
0.0
 10
-9.3433
 20
-28.9596
 30
0.0
 10
-9.3317
 20
-28.9596
 30
0.0
 10
-9.3317
 20
-28.9596
 30
0.0
  0
SPLINE
  5
7F
330
1F
100
AcDbEntity
  8
Layer 1
 62
   250
100
AcDbSpline
210
0.0
220
0.0
230
1.0
 70
    11
 71
     3
 72
    29
 73
    25
 74
     0
 42
0.0000000001
 43
0.0000000001
 40
0.0
 40
0.0
 40
0.0
 40
0.0
 40
0.125
 40
0.125
 40
0.125
 40
0.25
 40
0.25
 40
0.25
 40
0.375
 40
0.375
 40
0.375
 40
0.5
 40
0.5
 40
0.5
 40
0.625
 40
0.625
 40
0.625
 40
0.75
 40
0.75
 40
0.75
 40
0.875
 40
0.875
 40
0.875
 40
1.0
 40
1.0
 40
1.0
 40
1.0
 10
-5.891
 20
-30.3066
 30
0.0
 10
-5.891
 20
-30.1331
 30
0.0
 10
-5.9272
 20
-29.9941
 30
0.0
 10
-6.0003
 20
-29.8895
 30
0.0
 10
-6.0733
 20
-29.7847
 30
0.0
 10
-6.1693
 20
-29.7322
 30
0.0
 10
-6.2895
 20
-29.7322
 30
0.0
 10
-6.4109
 20
-29.7322
 30
0.0
 10
-6.5127
 20
-29.7851
 30
0.0
 10
-6.5944
 20
-29.8906
 30
0.0
 10
-6.6766
 20
-29.9966
 30
0.0
 10
-6.7175
 20
-30.129
 30
0.0
 10
-6.7175
 20
-30.2888
 30
0.0
 10
-6.7175
 20
-30.4765
 30
0.0
 10
-6.6792
 20
-30.6258
 30
0.0
 10
-6.602
 20
-30.7369
 30
0.0
 10
-6.5252
 20
-30.8474
 30
0.0
 10
-6.4229
 20
-30.9029
 30
0.0
 10
-6.2953
 20
-30.9029
 30
0.0
 10
-6.1855
 20
-30.9029
 30
0.0
 10
-6.0905
 20
-30.8449
 30
0.0
 10
-6.0107
 20
-30.7293
 30
0.0
 10
-5.931
 20
-30.6133
 30
0.0
 10
-5.891
 20
-30.4723
 30
0.0
 10
-5.891
 20
-30.3066
 30
0.0
  0
SPLINE
  5
80
330
1F
100
AcDbEntity
  8
Layer 1
 62
   250
100
AcDbSpline
210
0.0
220
0.0
230
1.0
 70
    11
 71
     3
 72
    44
 73
    40
 74
     0
 42
0.0000000001
 43
0.0000000001
 40
0.0
 40
0.0
 40
0.0
 40
0.0
 40
0.0769230769230769
 40
0.0769230769230769
 40
0.0769230769230769
 40
0.1538461538461539
 40
0.1538461538461539
 40
0.1538461538461539
 40
0.2307692307692308
 40
0.2307692307692308
 40
0.2307692307692308
 40
0.3076923076923077
 40
0.3076923076923077
 40
0.3076923076923077
 40
0.3846153846153846
 40
0.3846153846153846
 40
0.3846153846153846
 40
0.4615384615384616
 40
0.4615384615384616
 40
0.4615384615384616
 40
0.5384615384615385
 40
0.5384615384615385
 40
0.5384615384615385
 40
0.6153846153846154
 40
0.6153846153846154
 40
0.6153846153846154
 40
0.6923076923076923
 40
0.6923076923076923
 40
0.6923076923076923
 40
0.7692307692307693
 40
0.7692307692307693
 40
0.7692307692307693
 40
0.8461538461538463
 40
0.8461538461538463
 40
0.8461538461538463
 40
0.9230769230769231
 40
0.9230769230769231
 40
0.9230769230769231
 40
1.0
 40
1.0
 40
1.0
 40
1.0
 10
-6.4927
 20
-32.1421
 30
0.0
 10
-6.4927
 20
-32.1421
 30
0.0
 10
-6.2356
 20
-31.5404
 30
0.0
 10
-6.2356
 20
-31.5404
 30
0.0
 10
-6.3729
 20
-31.5825
 30
0.0
 10
-6.4927
 20
-31.603
 30
0.0
 10
-6.5944
 20
-31.603
 30
0.0
 10
-6.8882
 20
-31.603
 30
0.0
 10
-7.1252
 20
-31.4879
 30
0.0
 10
-7.3058
 20
-31.2575
 30
0.0
 10
-7.4865
 20
-31.0272
 30
0.0
 10
-7.5767
 20
-30.723
 30
0.0
 10
-7.5767
 20
-30.3459
 30
0.0
 10
-7.5767
 20
-29.9286
 30
0.0
 10
-7.4593
 20
-29.5919
 30
0.0
 10
-7.2249
 20
-29.3365
 30
0.0
 10
-6.9904
 20
-29.0808
 30
0.0
 10
-6.6825
 20
-28.9536
 30
0.0
 10
-6.3011
 20
-28.9536
 30
0.0
 10
-5.9119
 20
-28.9536
 30
0.0
 10
-5.601
 20
-29.0775
 30
0.0
 10
-5.3686
 20
-29.3245
 30
0.0
 10
-5.1358
 20
-29.5719
 30
0.0
 10
-5.0199
 20
-29.9048
 30
0.0
 10
-5.0199
 20
-30.3216
 30
0.0
 10
-5.0199
 20
-30.4773
 30
0.0
 10
-5.0461
 20
-30.6714
 30
0.0
 10
-5.0991
 20
-30.9029
 30
0.0
 10
-5.1521
 20
-31.134
 30
0.0
 10
-5.2188
 20
-31.3544
 30
0.0
 10
-5.2998
 20
-31.563
 30
0.0
 10
-5.3803
 20
-31.772
 30
0.0
 10
-5.6085
 20
-32.271
 30
0.0
 10
-5.9837
 20
-33.0617
 30
0.0
 10
-5.9837
 20
-33.0617
 30
0.0
 10
-6.9333
 20
-33.0617
 30
0.0
 10
-6.9333
 20
-33.0617
 30
0.0
 10
-6.9333
 20
-33.0617
 30
0.0
 10
-6.4927
 20
-32.1421
 30
0.0
 10
-6.4927
 20
-32.1421
 30
0.0
  0
SPLINE
  5
81
330
1F
100
AcDbEntity
  8
Layer 1
 62
   250
100
AcDbSpline
210
0.0
220
0.0
230
1.0
 70
    11
 71
     3
 72
    23
 73
    19
 74
     0
 42
0.0000000001
 43
0.0000000001
 40
0.0
 40
0.0
 40
0.0
 40
0.0
 40
0.1666666666666667
 40
0.1666666666666667
 40
0.1666666666666667
 40
0.3333333333333333
 40
0.3333333333333333
 40
0.3333333333333333
 40
0.5
 40
0.5
 40
0.5
 40
0.6666666666666666
 40
0.6666666666666666
 40
0.6666666666666666
 40
0.8333333333333333
 40
0.8333333333333333
 40
0.8333333333333333
 40
1.0
 40
1.0
 40
1.0
 40
1.0
 10
-4.1722
 20
-29.0643
 30
0.0
 10
-4.1722
 20
-29.0643
 30
0.0
 10
-2.7977
 20
-29.0643
 30
0.0
 10
-2.7977
 20
-29.0643
 30
0.0
 10
-2.7977
 20
-29.0643
 30
0.0
 10
-2.7977
 20
-33.0614
 30
0.0
 10
-2.7977
 20
-33.0614
 30
0.0
 10
-2.7977
 20
-33.0614
 30
0.0
 10
-3.6631
 20
-33.0614
 30
0.0
 10
-3.6631
 20
-33.0614
 30
0.0
 10
-3.6631
 20
-33.0614
 30
0.0
 10
-3.6631
 20
-29.9029
 30
0.0
 10
-3.6631
 20
-29.9029
 30
0.0
 10
-3.6631
 20
-29.9029
 30
0.0
 10
-4.1722
 20
-29.9029
 30
0.0
 10
-4.1722
 20
-29.9029
 30
0.0
 10
-4.1722
 20
-29.9029
 30
0.0
 10
-4.1722
 20
-29.0643
 30
0.0
 10
-4.1722
 20
-29.0643
 30
0.0
  0
SPLINE
  5
82
330
1F
100
AcDbEntity
  8
Layer 1
 62
   250
100
AcDbSpline
210
0.0
220
0.0
230
1.0
 70
    11
 71
     3
 72
    23
 73
    19
 74
     0
 42
0.0000000001
 43
0.0000000001
 40
0.0
 40
0.0
 40
0.0
 40
0.0
 40
0.1666666666666667
 40
0.1666666666666667
 40
0.1666666666666667
 40
0.3333333333333333
 40
0.3333333333333333
 40
0.3333333333333333
 40
0.5
 40
0.5
 40
0.5
 40
0.6666666666666666
 40
0.6666666666666666
 40
0.6666666666666666
 40
0.8333333333333333
 40
0.8333333333333333
 40
0.8333333333333333
 40
1.0
 40
1.0
 40
1.0
 40
1.0
 10
-1.2466
 20
-29.0643
 30
0.0
 10
-1.2466
 20
-29.0643
 30
0.0
 10
1.1042
 20
-29.0643
 30
0.0
 10
1.1042
 20
-29.0643
 30
0.0
 10
1.1042
 20
-29.0643
 30
0.0
 10
-0.4055
 20
-33.0614
 30
0.0
 10
-0.4055
 20
-33.0614
 30
0.0
 10
-0.4055
 20
-33.0614
 30
0.0
 10
-1.3245
 20
-33.0614
 30
0.0
 10
-1.3245
 20
-33.0614
 30
0.0
 10
-1.3245
 20
-33.0614
 30
0.0
 10
-0.1417
 20
-29.885
 30
0.0
 10
-0.1417
 20
-29.885
 30
0.0
 10
-0.1417
 20
-29.885
 30
0.0
 10
-1.2466
 20
-29.885
 30
0.0
 10
-1.2466
 20
-29.885
 30
0.0
 10
-1.2466
 20
-29.885
 30
0.0
 10
-1.2466
 20
-29.0643
 30
0.0
 10
-1.2466
 20
-29.0643
 30
0.0
  0
SPLINE
  5
83
330
1F
100
AcDbEntity
  8
Layer 1
 62
   250
100
AcDbSpline
210
0.0
220
0.0
230
1.0
 70
    11
 71
     3
 72
    23
 73
    19
 74
     0
 42
0.0000000001
 43
0.0000000001
 40
0.0
 40
0.0
 40
0.0
 40
0.0
 40
0.1666666666666667
 40
0.1666666666666667
 40
0.1666666666666667
 40
0.3333333333333333
 40
0.3333333333333333
 40
0.3333333333333333
 40
0.5
 40
0.5
 40
0.5
 40
0.6666666666666666
 40
0.6666666666666666
 40
0.6666666666666666
 40
0.8333333333333333
 40
0.8333333333333333
 40
0.8333333333333333
 40
1.0
 40
1.0
 40
1.0
 40
1.0
 10
1.8408
 20
-29.0643
 30
0.0
 10
1.8408
 20
-29.0643
 30
0.0
 10
3.2151
 20
-29.0643
 30
0.0
 10
3.2151
 20
-29.0643
 30
0.0
 10
3.2151
 20
-29.0643
 30
0.0
 10
3.2151
 20
-33.0614
 30
0.0
 10
3.2151
 20
-33.0614
 30
0.0
 10
3.2151
 20
-33.0614
 30
0.0
 10
2.3498
 20
-33.0614
 30
0.0
 10
2.3498
 20
-33.0614
 30
0.0
 10
2.3498
 20
-33.0614
 30
0.0
 10
2.3498
 20
-29.9029
 30
0.0
 10
2.3498
 20
-29.9029
 30
0.0
 10
2.3498
 20
-29.9029
 30
0.0
 10
1.8408
 20
-29.9029
 30
0.0
 10
1.8408
 20
-29.9029
 30
0.0
 10
1.8408
 20
-29.9029
 30
0.0
 10
1.8408
 20
-29.0643
 30
0.0
 10
1.8408
 20
-29.0643
 30
0.0
  0
SPLINE
  5
84
330
1F
100
AcDbEntity
  8
Layer 1
 62
   250
100
AcDbSpline
210
0.0
220
0.0
230
1.0
 70
    11
 71
     3
 72
    20
 73
    16
 74
     0
 42
0.0000000001
 43
0.0000000001
 40
0.0
 40
0.0
 40
0.0
 40
0.0
 40
0.2
 40
0.2
 40
0.2
 40
0.4
 40
0.4
 40
0.4
 40
0.6000000000000001
 40
0.6000000000000001
 40
0.6000000000000001
 40
0.8
 40
0.8
 40
0.8
 40
1.0
 40
1.0
 40
1.0
 40
1.0
 10
5.9341
 20
-30.1241
 30
0.0
 10
5.9341
 20
-29.8349
 30
0.0
 10
5.8581
 20
-29.6898
 30
0.0
 10
5.7063
 20
-29.6898
 30
0.0
 10
5.5503
 20
-29.6898
 30
0.0
 10
5.4727
 20
-29.8191
 30
0.0
 10
5.4727
 20
-30.0766
 30
0.0
 10
5.4727
 20
-30.2322
 30
0.0
 10
5.491
 20
-30.3419
 30
0.0
 10
5.5277
 20
-30.407
 30
0.0
 10
5.5648
 20
-30.4717
 30
0.0
 10
5.6262
 20
-30.5042
 30
0.0
 10
5.7125
 20
-30.5042
 30
0.0
 10
5.8598
 20
-30.5042
 30
0.0
 10
5.9341
 20
-30.3773
 30
0.0
 10
5.9341
 20
-30.1241
 30
0.0
  0
SPLINE
  5
85
330
1F
100
AcDbEntity
  8
Layer 1
 62
   250
100
AcDbSpline
210
0.0
220
0.0
230
1.0
 70
    11
 71
     3
 72
    17
 73
    13
 74
     0
 42
0.0000000001
 43
0.0000000001
 40
0.0
 40
0.0
 40
0.0
 40
0.0
 40
0.25
 40
0.25
 40
0.25
 40
0.5
 40
0.5
 40
0.5
 40
0.75
 40
0.75
 40
0.75
 40
1.0
 40
1.0
 40
1.0
 40
1.0
 10
6.0296
 20
-31.9266
 30
0.0
 10
6.0296
 20
-31.5352
 30
0.0
 10
5.922
 20
-31.34
 30
0.0
 10
5.7063
 20
-31.34
 30
0.0
 10
5.4806
 20
-31.34
 30
0.0
 10
5.3679
 20
-31.5194
 30
0.0
 10
5.3679
 20
-31.879
 30
0.0
 10
5.3679
 20
-32.262
 30
0.0
 10
5.4826
 20
-32.4536
 30
0.0
 10
5.7125
 20
-32.4536
 30
0.0
 10
5.9241
 20
-32.4536
 30
0.0
 10
6.0296
 20
-32.2779
 30
0.0
 10
6.0296
 20
-31.9266
 30
0.0
  0
SPLINE
  5
86
330
1F
100
AcDbEntity
  8
Layer 1
 62
   250
100
AcDbSpline
210
0.0
220
0.0
230
1.0
 70
    11
 71
     3
 72
    80
 73
    76
 74
     0
 42
0.0000000001
 43
0.0000000001
 40
0.0
 40
0.0
 40
0.0
 40
0.0
 40
0.04
 40
0.04
 40
0.04
 40
0.08
 40
0.08
 40
0.08
 40
0.12
 40
0.12
 40
0.12
 40
0.16
 40
0.16
 40
0.16
 40
0.2
 40
0.2
 40
0.2
 40
0.24
 40
0.24
 40
0.24
 40
0.28
 40
0.28
 40
0.28
 40
0.32
 40
0.32
 40
0.32
 40
0.36
 40
0.36
 40
0.36
 40
0.4
 40
0.4
 40
0.4
 40
0.44
 40
0.44
 40
0.44
 40
0.48
 40
0.48
 40
0.48
 40
0.52
 40
0.52
 40
0.52
 40
0.56
 40
0.56
 40
0.56
 40
0.6
 40
0.6
 40
0.6
 40
0.64
 40
0.64
 40
0.64
 40
0.68
 40
0.68
 40
0.68
 40
0.72
 40
0.72
 40
0.72
 40
0.76
 40
0.76
 40
0.76
 40
0.8
 40
0.8
 40
0.8
 40
0.84
 40
0.84
 40
0.84
 40
0.88
 40
0.88
 40
0.88
 40
0.92
 40
0.92
 40
0.92
 40
0.96
 40
0.96
 40
0.96
 40
1.0
 40
1.0
 40
1.0
 40
1.0
 10
6.1973
 20
-30.8789
 30
0.0
 10
6.4248
 20
-30.9765
 30
0.0
 10
6.6009
 20
-31.1251
 30
0.0
 10
6.726
 20
-31.3249
 30
0.0
 10
6.8508
 20
-31.5243
 30
0.0
 10
6.9134
 20
-31.7501
 30
0.0
 10
6.9134
 20
-32.0017
 30
0.0
 10
6.9134
 20
-32.3551
 30
0.0
 10
6.8044
 20
-32.6375
 30
0.0
 10
6.5862
 20
-32.8491
 30
0.0
 10
6.3688
 20
-33.0606
 30
0.0
 10
6.0777
 20
-33.1667
 30
0.0
 10
5.7125
 20
-33.1667
 30
0.0
 10
5.3387
 20
-33.1667
 30
0.0
 10
5.0442
 20
-33.0615
 30
0.0
 10
4.8276
 20
-32.8521
 30
0.0
 10
4.6106
 20
-32.6426
 30
0.0
 10
4.5021
 20
-32.3589
 30
0.0
 10
4.5021
 20
-32.0017
 30
0.0
 10
4.5021
 20
-31.9119
 30
0.0
 10
4.5084
 20
-31.8277
 30
0.0
 10
4.5201
 20
-31.7488
 30
0.0
 10
4.5325
 20
-31.6699
 30
0.0
 10
4.551
 20
-31.5957
 30
0.0
 10
4.5756
 20
-31.5268
 30
0.0
 10
4.6005
 20
-31.458
 30
0.0
 10
4.6324
 20
-31.3933
 30
0.0
 10
4.6703
 20
-31.3324
 30
0.0
 10
4.7083
 20
-31.2715
 30
0.0
 10
4.7529
 20
-31.2152
 30
0.0
 10
4.8039
 20
-31.163
 30
0.0
 10
4.8547
 20
-31.1113
 30
0.0
 10
4.9143
 20
-31.0628
 30
0.0
 10
4.9832
 20
-31.0183
 30
0.0
 10
5.0521
 20
-30.9732
 30
0.0
 10
5.1234
 20
-30.929
 30
0.0
 10
5.1972
 20
-30.8847
 30
0.0
 10
5.1972
 20
-30.8847
 30
0.0
 10
5.1972
 20
-30.8789
 30
0.0
 10
5.1972
 20
-30.8789
 30
0.0
 10
5.1972
 20
-30.8789
 30
0.0
 10
5.1914
 20
-30.8789
 30
0.0
 10
5.1914
 20
-30.8789
 30
0.0
 10
5.1914
 20
-30.8751
 30
0.0
 10
5.1893
 20
-30.873
 30
0.0
 10
5.1852
 20
-30.873
 30
0.0
 10
5.1852
 20
-30.8689
 30
0.0
 10
5.183
 20
-30.8667
 30
0.0
 10
5.1789
 20
-30.8667
 30
0.0
 10
5.0596
 20
-30.8109
 30
0.0
 10
4.9602
 20
-30.7492
 30
0.0
 10
4.8818
 20
-30.6815
 30
0.0
 10
4.8026
 20
-30.6135
 30
0.0
 10
4.7349
 20
-30.5168
 30
0.0
 10
4.6791
 20
-30.3924
 30
0.0
 10
4.6231
 20
-30.2677
 30
0.0
 10
4.5952
 20
-30.1233
 30
0.0
 10
4.5952
 20
-29.9592
 30
0.0
 10
4.5952
 20
-29.6739
 30
0.0
 10
4.7007
 20
-29.4361
 30
0.0
 10
4.9131
 20
-29.2454
 30
0.0
 10
5.1246
 20
-29.0547
 30
0.0
 10
5.3887
 20
-28.9596
 30
0.0
 10
5.7063
 20
-28.9596
 30
0.0
 10
6.0296
 20
-28.9596
 30
0.0
 10
6.2942
 20
-29.056
 30
0.0
 10
6.4994
 20
-29.2496
 30
0.0
 10
6.7056
 20
-29.4432
 30
0.0
 10
6.8086
 20
-29.6923
 30
0.0
 10
6.8086
 20
-29.9952
 30
0.0
 10
6.8086
 20
-30.1951
 30
0.0
 10
6.759
 20
-30.3644
 30
0.0
 10
6.6601
 20
-30.5042
 30
0.0
 10
6.5608
 20
-30.6444
 30
0.0
 10
6.4068
 20
-30.7692
 30
0.0
 10
6.1973
 20
-30.8789
 30
0.0
  0
SPLINE
  5
87
330
1F
100
AcDbEntity
  8
Layer 1
 62
   250
100
AcDbSpline
210
0.0
220
0.0
230
1.0
 70
    11
 71
     3
 72
    89
 73
    85
 74
     0
 42
0.0000000001
 43
0.0000000001
 40
0.0
 40
0.0
 40
0.0
 40
0.0
 40
0.0357142857142857
 40
0.0357142857142857
 40
0.0357142857142857
 40
0.0714285714285714
 40
0.0714285714285714
 40
0.0714285714285714
 40
0.1071428571428571
 40
0.1071428571428571
 40
0.1071428571428571
 40
0.1428571428571428
 40
0.1428571428571428
 40
0.1428571428571428
 40
0.1785714285714285
 40
0.1785714285714285
 40
0.1785714285714285
 40
0.2142857142857143
 40
0.2142857142857143
 40
0.2142857142857143
 40
0.25
 40
0.25
 40
0.25
 40
0.2857142857142857
 40
0.2857142857142857
 40
0.2857142857142857
 40
0.3214285714285714
 40
0.3214285714285714
 40
0.3214285714285714
 40
0.3571428571428571
 40
0.3571428571428571
 40
0.3571428571428571
 40
0.3928571428571428
 40
0.3928571428571428
 40
0.3928571428571428
 40
0.4285714285714285
 40
0.4285714285714285
 40
0.4285714285714285
 40
0.4642857142857142
 40
0.4642857142857142
 40
0.4642857142857142
 40
0.5
 40
0.5
 40
0.5
 40
0.5357142857142857
 40
0.5357142857142857
 40
0.5357142857142857
 40
0.5714285714285714
 40
0.5714285714285714
 40
0.5714285714285714
 40
0.6071428571428571
 40
0.6071428571428571
 40
0.6071428571428571
 40
0.6428571428571428
 40
0.6428571428571428
 40
0.6428571428571428
 40
0.6785714285714285
 40
0.6785714285714285
 40
0.6785714285714285
 40
0.7142857142857142
 40
0.7142857142857142
 40
0.7142857142857142
 40
0.75
 40
0.75
 40
0.75
 40
0.7857142857142857
 40
0.7857142857142857
 40
0.7857142857142857
 40
0.8214285714285714
 40
0.8214285714285714
 40
0.8214285714285714
 40
0.8571428571428571
 40
0.8571428571428571
 40
0.8571428571428571
 40
0.8928571428571428
 40
0.8928571428571428
 40
0.8928571428571428
 40
0.9285714285714285
 40
0.9285714285714285
 40
0.9285714285714285
 40
0.9642857142857142
 40
0.9642857142857142
 40
0.9642857142857142
 40
1.0
 40
1.0
 40
1.0
 40
1.0
 10
8.5385
 20
-30.283
 30
0.0
 10
8.5385
 20
-30.283
 30
0.0
 10
7.664
 20
-30.283
 30
0.0
 10
7.664
 20
-30.283
 30
0.0
 10
7.6682
 20
-30.0532
 30
0.0
 10
7.6886
 20
-29.8746
 30
0.0
 10
7.7263
 20
-29.7473
 30
0.0
 10
7.7634
 20
-29.6187
 30
0.0
 10
7.8268
 20
-29.494
 30
0.0
 10
7.9177
 20
-29.3721
 30
0.0
 10
8.0083
 20
-29.2508
 30
0.0
 10
8.128
 20
-29.1527
 30
0.0
 10
8.2753
 20
-29.0776
 30
0.0
 10
8.423
 20
-29.0029
 30
0.0
 10
8.5824
 20
-28.9654
 30
0.0
 10
8.7548
 20
-28.9654
 30
0.0
 10
9.0623
 20
-28.9654
 30
0.0
 10
9.3151
 20
-29.0755
 30
0.0
 10
9.5149
 20
-29.2962
 30
0.0
 10
9.7148
 20
-29.5166
 30
0.0
 10
9.8149
 20
-29.7969
 30
0.0
 10
9.8149
 20
-30.1362
 30
0.0
 10
9.8149
 20
-30.5312
 30
0.0
 10
9.6618
 20
-30.8421
 30
0.0
 10
9.3564
 20
-31.0675
 30
0.0
 10
9.7156
 20
-31.253
 30
0.0
 10
9.8955
 20
-31.584
 30
0.0
 10
9.8955
 20
-32.0617
 30
0.0
 10
9.8955
 20
-32.2511
 30
0.0
 10
9.8513
 20
-32.4401
 30
0.0
 10
9.7623
 20
-32.6291
 30
0.0
 10
9.6735
 20
-32.8178
 30
0.0
 10
9.5437
 20
-32.9541
 30
0.0
 10
9.3743
 20
-33.0388
 30
0.0
 10
9.2049
 20
-33.1245
 30
0.0
 10
9.0058
 20
-33.1666
 30
0.0
 10
8.7785
 20
-33.1666
 30
0.0
 10
8.4372
 20
-33.1666
 30
0.0
 10
8.1576
 20
-33.066
 30
0.0
 10
7.9399
 20
-32.8653
 30
0.0
 10
7.7229
 20
-32.665
 30
0.0
 10
7.6056
 20
-32.3888
 30
0.0
 10
7.5898
 20
-32.0375
 30
0.0
 10
7.5898
 20
-32.0375
 30
0.0
 10
8.4489
 20
-32.0375
 30
0.0
 10
8.4489
 20
-32.0375
 30
0.0
 10
8.453
 20
-32.2833
 30
0.0
 10
8.5507
 20
-32.4059
 30
0.0
 10
8.7426
 20
-32.4059
 30
0.0
 10
8.9299
 20
-32.4059
 30
0.0
 10
9.0243
 20
-32.2382
 30
0.0
 10
9.0243
 20
-31.9032
 30
0.0
 10
9.0243
 20
-31.7475
 30
0.0
 10
8.9967
 20
-31.6391
 30
0.0
 10
8.9421
 20
-31.5782
 30
0.0
 10
8.887
 20
-31.5168
 30
0.0
 10
8.7898
 20
-31.4863
 30
0.0
 10
8.65
 20
-31.4863
 30
0.0
 10
8.65
 20
-31.4863
 30
0.0
 10
8.3738
 20
-31.4863
 30
0.0
 10
8.3738
 20
-31.4863
 30
0.0
 10
8.3738
 20
-31.4863
 30
0.0
 10
8.3738
 20
-30.6568
 30
0.0
 10
8.3738
 20
-30.6568
 30
0.0
 10
8.3738
 20
-30.6568
 30
0.0
 10
8.6737
 20
-30.6568
 30
0.0
 10
8.6737
 20
-30.6568
 30
0.0
 10
8.8018
 20
-30.6568
 30
0.0
 10
8.8932
 20
-30.6239
 30
0.0
 10
8.9475
 20
-30.5568
 30
0.0
 10
9.0025
 20
-30.4899
 30
0.0
 10
9.0301
 20
-30.3802
 30
0.0
 10
9.0301
 20
-30.2288
 30
0.0
 10
9.0301
 20
-29.9016
 30
0.0
 10
8.9383
 20
-29.7381
 30
0.0
 10
8.7548
 20
-29.7381
 30
0.0
 10
8.6688
 20
-29.7381
 30
0.0
 10
8.6112
 20
-29.7719
 30
0.0
 10
8.582
 20
-29.8399
 30
0.0
 10
8.5532
 20
-29.9079
 30
0.0
 10
8.5385
 20
-30.0276
 30
0.0
 10
8.5385
 20
-30.1991
 30
0.0
 10
8.5385
 20
-30.1991
 30
0.0
 10
8.5385
 20
-30.283
 30
0.0
 10
8.5385
 20
-30.283
 30
0.0
  0
SPLINE
  5
88
330
1F
100
AcDbEntity
  8
Layer 1
 62
   250
100
AcDbSpline
210
0.0
220
0.0
230
1.0
 70
    11
 71
     3
 72
    29
 73
    25
 74
     0
 42
0.0000000001
 43
0.0000000001
 40
0.0
 40
0.0
 40
0.0
 40
0.0
 40
0.125
 40
0.125
 40
0.125
 40
0.25
 40
0.25
 40
0.25
 40
0.375
 40
0.375
 40
0.375
 40
0.5
 40
0.5
 40
0.5
 40
0.625
 40
0.625
 40
0.625
 40
0.75
 40
0.75
 40
0.75
 40
0.875
 40
0.875
 40
0.875
 40
1.0
 40
1.0
 40
1.0
 40
1.0
 10
12.147
 20
-30.3066
 30
0.0
 10
12.147
 20
-30.1331
 30
0.0
 10
12.1107
 20
-29.9941
 30
0.0
 10
12.0378
 20
-29.8895
 30
0.0
 10
11.9647
 20
-29.7847
 30
0.0
 10
11.8687
 20
-29.7322
 30
0.0
 10
11.7489
 20
-29.7322
 30
0.0
 10
11.6268
 20
-29.7322
 30
0.0
 10
11.5254
 20
-29.7851
 30
0.0
 10
11.4432
 20
-29.8906
 30
0.0
 10
11.3614
 20
-29.9966
 30
0.0
 10
11.3209
 20
-30.129
 30
0.0
 10
11.3209
 20
-30.2888
 30
0.0
 10
11.3209
 20
-30.4765
 30
0.0
 10
11.3589
 20
-30.6258
 30
0.0
 10
11.4356
 20
-30.7369
 30
0.0
 10
11.5124
 20
-30.8474
 30
0.0
 10
11.6151
 20
-30.9029
 30
0.0
 10
11.7431
 20
-30.9029
 30
0.0
 10
11.8529
 20
-30.9029
 30
0.0
 10
11.9472
 20
-30.8449
 30
0.0
 10
12.0273
 20
-30.7293
 30
0.0
 10
12.1069
 20
-30.6133
 30
0.0
 10
12.147
 20
-30.4723
 30
0.0
 10
12.147
 20
-30.3066
 30
0.0
  0
SPLINE
  5
89
330
1F
100
AcDbEntity
  8
Layer 1
 62
   250
100
AcDbSpline
210
0.0
220
0.0
230
1.0
 70
    11
 71
     3
 72
    44
 73
    40
 74
     0
 42
0.0000000001
 43
0.0000000001
 40
0.0
 40
0.0
 40
0.0
 40
0.0
 40
0.0769230769230769
 40
0.0769230769230769
 40
0.0769230769230769
 40
0.1538461538461539
 40
0.1538461538461539
 40
0.1538461538461539
 40
0.2307692307692308
 40
0.2307692307692308
 40
0.2307692307692308
 40
0.3076923076923077
 40
0.3076923076923077
 40
0.3076923076923077
 40
0.3846153846153846
 40
0.3846153846153846
 40
0.3846153846153846
 40
0.4615384615384616
 40
0.4615384615384616
 40
0.4615384615384616
 40
0.5384615384615385
 40
0.5384615384615385
 40
0.5384615384615385
 40
0.6153846153846154
 40
0.6153846153846154
 40
0.6153846153846154
 40
0.6923076923076923
 40
0.6923076923076923
 40
0.6923076923076923
 40
0.7692307692307693
 40
0.7692307692307693
 40
0.7692307692307693
 40
0.8461538461538463
 40
0.8461538461538463
 40
0.8461538461538463
 40
0.9230769230769231
 40
0.9230769230769231
 40
0.9230769230769231
 40
1.0
 40
1.0
 40
1.0
 40
1.0
 10
11.5454
 20
-32.1421
 30
0.0
 10
11.5454
 20
-32.1421
 30
0.0
 10
11.8029
 20
-31.5404
 30
0.0
 10
11.8029
 20
-31.5404
 30
0.0
 10
11.6656
 20
-31.5825
 30
0.0
 10
11.5454
 20
-31.603
 30
0.0
 10
11.4432
 20
-31.603
 30
0.0
 10
11.1499
 20
-31.603
 30
0.0
 10
10.9132
 20
-31.4879
 30
0.0
 10
10.7321
 20
-31.2575
 30
0.0
 10
10.5515
 20
-31.0272
 30
0.0
 10
10.4609
 20
-30.723
 30
0.0
 10
10.4609
 20
-30.3459
 30
0.0
 10
10.4609
 20
-29.9286
 30
0.0
 10
10.5783
 20
-29.5919
 30
0.0
 10
10.8135
 20
-29.3365
 30
0.0
 10
11.0476
 20
-29.0808
 30
0.0
 10
11.3556
 20
-28.9536
 30
0.0
 10
11.7373
 20
-28.9536
 30
0.0
 10
12.1262
 20
-28.9536
 30
0.0
 10
12.4366
 20
-29.0775
 30
0.0
 10
12.6698
 20
-29.3245
 30
0.0
 10
12.9027
 20
-29.5719
 30
0.0
 10
13.0187
 20
-29.9048
 30
0.0
 10
13.0187
 20
-30.3216
 30
0.0
 10
13.0187
 20
-30.4773
 30
0.0
 10
12.992
 20
-30.6714
 30
0.0
 10
12.939
 20
-30.9029
 30
0.0
 10
12.886
 20
-31.134
 30
0.0
 10
12.8192
 20
-31.3544
 30
0.0
 10
12.7386
 20
-31.563
 30
0.0
 10
12.6582
 20
-31.772
 30
0.0
 10
12.4295
 20
-32.271
 30
0.0
 10
12.054
 20
-33.0617
 30
0.0
 10
12.054
 20
-33.0617
 30
0.0
 10
11.1052
 20
-33.0617
 30
0.0
 10
11.1052
 20
-33.0617
 30
0.0
 10
11.1052
 20
-33.0617
 30
0.0
 10
11.5454
 20
-32.1421
 30
0.0
 10
11.5454
 20
-32.1421
 30
0.0
  0
SPLINE
  5
8A
330
1F
100
AcDbEntity
  8
Layer 1
 62
   250
100
AcDbSpline
210
0.0
220
0.0
230
1.0
 70
    11
 71
     3
 72
    23
 73
    19
 74
     0
 42
0.0000000001
 43
0.0000000001
 40
0.0
 40
0.0
 40
0.0
 40
0.0
 40
0.1666666666666667
 40
0.1666666666666667
 40
0.1666666666666667
 40
0.3333333333333333
 40
0.3333333333333333
 40
0.3333333333333333
 40
0.5
 40
0.5
 40
0.5
 40
0.6666666666666666
 40
0.6666666666666666
 40
0.6666666666666666
 40
0.8333333333333333
 40
0.8333333333333333
 40
0.8333333333333333
 40
1.0
 40
1.0
 40
1.0
 40
1.0
 10
14.2707
 20
-31.0254
 30
0.0
 10
14.2707
 20
-31.8799
 30
0.0
 10
14.4185
 20
-32.3067
 30
0.0
 10
14.7139
 20
-32.3067
 30
0.0
 10
14.8737
 20
-32.3067
 30
0.0
 10
14.9888
 20
-32.2128
 30
0.0
 10
15.0597
 20
-32.0243
 30
0.0
 10
15.1307
 20
-31.8353
 30
0.0
 10
15.1662
 20
-31.5352
 30
0.0
 10
15.1662
 20
-31.1242
 30
0.0
 10
15.1662
 20
-30.6711
 30
0.0
 10
15.1307
 20
-30.3411
 30
0.0
 10
15.0597
 20
-30.1346
 30
0.0
 10
14.9888
 20
-29.928
 30
0.0
 10
14.8716
 20
-29.825
 30
0.0
 10
14.708
 20
-29.825
 30
0.0
 10
14.4163
 20
-29.825
 30
0.0
 10
14.2707
 20
-30.2251
 30
0.0
 10
14.2707
 20
-31.0254
 30
0.0
  0
SPLINE
  5
8B
330
1F
100
AcDbEntity
  8
Layer 1
 62
   250
100
AcDbSpline
210
0.0
220
0.0
230
1.0
 70
    11
 71
     3
 72
    32
 73
    28
 74
     0
 42
0.0000000001
 43
0.0000000001
 40
0.0
 40
0.0
 40
0.0
 40
0.0
 40
0.1111111111111111
 40
0.1111111111111111
 40
0.1111111111111111
 40
0.2222222222222222
 40
0.2222222222222222
 40
0.2222222222222222
 40
0.3333333333333333
 40
0.3333333333333333
 40
0.3333333333333333
 40
0.4444444444444444
 40
0.4444444444444444
 40
0.4444444444444444
 40
0.5555555555555556
 40
0.5555555555555556
 40
0.5555555555555556
 40
0.6666666666666666
 40
0.6666666666666666
 40
0.6666666666666666
 40
0.7777777777777777
 40
0.7777777777777777
 40
0.7777777777777777
 40
0.8888888888888888
 40
0.8888888888888888
 40
0.8888888888888888
 40
1.0
 40
1.0
 40
1.0
 40
1.0
 10
14.7201
 20
-28.9596
 30
0.0
 10
15.1528
 20
-28.9596
 30
0.0
 10
15.4816
 20
-29.1382
 30
0.0
 10
15.7064
 20
-29.4954
 30
0.0
 10
15.9309
 20
-29.8526
 30
0.0
 10
16.0432
 20
-30.3786
 30
0.0
 10
16.0432
 20
-31.0734
 30
0.0
 10
16.0432
 20
-31.7501
 30
0.0
 10
15.9293
 20
-32.2684
 30
0.0
 10
15.7007
 20
-32.6276
 30
0.0
 10
15.4716
 20
-32.9868
 30
0.0
 10
15.1452
 20
-33.1667
 30
0.0
 10
14.7201
 20
-33.1667
 30
0.0
 10
14.3163
 20
-33.1667
 30
0.0
 10
13.9958
 20
-32.9985
 30
0.0
 10
13.7576
 20
-32.6622
 30
0.0
 10
13.5181
 20
-32.3255
 30
0.0
 10
13.3991
 20
-31.7818
 30
0.0
 10
13.3991
 20
-31.0316
 30
0.0
 10
13.3991
 20
-30.3728
 30
0.0
 10
13.5139
 20
-29.863
 30
0.0
 10
13.7437
 20
-29.5012
 30
0.0
 10
13.9733
 20
-29.1399
 30
0.0
 10
14.2945
 20
-28.9596
 30
0.0
 10
14.708
 20
-28.9596
 30
0.0
 10
14.708
 20
-28.9596
 30
0.0
 10
14.7201
 20
-28.9596
 30
0.0
 10
14.7201
 20
-28.9596
 30
0.0
  0
SPLINE
  5
8C
330
1F
100
AcDbEntity
  8
Layer 1
 62
   250
100
AcDbSpline
210
0.0
220
0.0
230
1.0
 70
    11
 71
     3
 72
    23
 73
    19
 74
     0
 42
0.0000000001
 43
0.0000000001
 40
0.0
 40
0.0
 40
0.0
 40
0.0
 40
0.1666666666666667
 40
0.1666666666666667
 40
0.1666666666666667
 40
0.3333333333333333
 40
0.3333333333333333
 40
0.3333333333333333
 40
0.5
 40
0.5
 40
0.5
 40
0.6666666666666666
 40
0.6666666666666666
 40
0.6666666666666666
 40
0.8333333333333333
 40
0.8333333333333333
 40
0.8333333333333333
 40
1.0
 40
1.0
 40
1.0
 40
1.0
 10
16.7921
 20
-29.0643
 30
0.0
 10
16.7921
 20
-29.0643
 30
0.0
 10
19.1424
 20
-29.0643
 30
0.0
 10
19.1424
 20
-29.0643
 30
0.0
 10
19.1424
 20
-29.0643
 30
0.0
 10
17.6332
 20
-33.0614
 30
0.0
 10
17.6332
 20
-33.0614
 30
0.0
 10
17.6332
 20
-33.0614
 30
0.0
 10
16.714
 20
-33.0614
 30
0.0
 10
16.714
 20
-33.0614
 30
0.0
 10
16.714
 20
-33.0614
 30
0.0
 10
17.8965
 20
-29.885
 30
0.0
 10
17.8965
 20
-29.885
 30
0.0
 10
17.8965
 20
-29.885
 30
0.0
 10
16.7921
 20
-29.885
 30
0.0
 10
16.7921
 20
-29.885
 30
0.0
 10
16.7921
 20
-29.885
 30
0.0
 10
16.7921
 20
-29.0643
 30
0.0
 10
16.7921
 20
-29.0643
 30
0.0
  0
SPLINE
  5
8D
330
1F
100
AcDbEntity
  8
Layer 1
 62
   250
100
AcDbSpline
210
0.0
220
0.0
230
1.0
 70
    11
 71
     3
 72
    32
 73
    28
 74
     0
 42
0.0000000001
 43
0.0000000001
 40
0.0
 40
0.0
 40
0.0
 40
0.0
 40
0.1111111111111111
 40
0.1111111111111111
 40
0.1111111111111111
 40
0.2222222222222222
 40
0.2222222222222222
 40
0.2222222222222222
 40
0.3333333333333333
 40
0.3333333333333333
 40
0.3333333333333333
 40
0.4444444444444444
 40
0.4444444444444444
 40
0.4444444444444444
 40
0.5555555555555556
 40
0.5555555555555556
 40
0.5555555555555556
 40
0.6666666666666666
 40
0.6666666666666666
 40
0.6666666666666666
 40
0.7777777777777777
 40
0.7777777777777777
 40
0.7777777777777777
 40
0.8888888888888888
 40
0.8888888888888888
 40
0.8888888888888888
 40
1.0
 40
1.0
 40
1.0
 40
1.0
 10
20.7505
 20
-32.3818
 30
0.0
 10
20.8745
 20
-32.3818
 30
0.0
 10
20.9747
 20
-32.3285
 30
0.0
 10
21.0514
 20
-32.2216
 30
0.0
 10
21.1282
 20
-32.1148
 30
0.0
 10
21.1665
 20
-31.9754
 30
0.0
 10
21.1665
 20
-31.8039
 30
0.0
 10
21.1665
 20
-31.6387
 30
0.0
 10
21.1265
 20
-31.4989
 30
0.0
 10
21.0468
 20
-31.3858
 30
0.0
 10
20.9671
 20
-31.2736
 30
0.0
 10
20.8703
 20
-31.217
 30
0.0
 10
20.7568
 20
-31.217
 30
0.0
 10
20.6366
 20
-31.217
 30
0.0
 10
20.5378
 20
-31.2733
 30
0.0
 10
20.4614
 20
-31.3847
 30
0.0
 10
20.3842
 20
-31.4964
 30
0.0
 10
20.3458
 20
-31.6408
 30
0.0
 10
20.3458
 20
-31.8165
 30
0.0
 10
20.3458
 20
-31.9858
 30
0.0
 10
20.3821
 20
-32.1223
 30
0.0
 10
20.4551
 20
-32.2262
 30
0.0
 10
20.5282
 20
-32.3301
 30
0.0
 10
20.6241
 20
-32.3818
 30
0.0
 10
20.7443
 20
-32.3818
 30
0.0
 10
20.7443
 20
-32.3818
 30
0.0
 10
20.7505
 20
-32.3818
 30
0.0
 10
20.7505
 20
-32.3818
 30
0.0
  0
SPLINE
  5
8E
330
1F
100
AcDbEntity
  8
Layer 1
 62
   250
100
AcDbSpline
210
0.0
220
0.0
230
1.0
 70
    11
 71
     3
 72
    41
 73
    37
 74
     0
 42
0.0000000001
 43
0.0000000001
 40
0.0
 40
0.0
 40
0.0
 40
0.0
 40
0.0833333333333333
 40
0.0833333333333333
 40
0.0833333333333333
 40
0.1666666666666667
 40
0.1666666666666667
 40
0.1666666666666667
 40
0.25
 40
0.25
 40
0.25
 40
0.3333333333333333
 40
0.3333333333333333
 40
0.3333333333333333
 40
0.4166666666666666
 40
0.4166666666666666
 40
0.4166666666666666
 40
0.5
 40
0.5
 40
0.5
 40
0.5833333333333333
 40
0.5833333333333333
 40
0.5833333333333333
 40
0.6666666666666666
 40
0.6666666666666666
 40
0.6666666666666666
 40
0.75
 40
0.75
 40
0.75
 40
0.8333333333333333
 40
0.8333333333333333
 40
0.8333333333333333
 40
0.9166666666666666
 40
0.9166666666666666
 40
0.9166666666666666
 40
1.0
 40
1.0
 40
1.0
 40
1.0
 10
20.4356
 20
-29.0581
 30
0.0
 10
20.4356
 20
-29.0581
 30
0.0
 10
21.3877
 20
-29.0581
 30
0.0
 10
21.3877
 20
-29.0581
 30
0.0
 10
21.0468
 20
-29.7653
 30
0.0
 10
20.8152
 20
-30.2669
 30
0.0
 10
20.6934
 20
-30.5643
 30
0.0
 10
20.7193
 20
-30.5622
 30
0.0
 10
20.7622
 20
-30.5539
 30
0.0
 10
20.8223
 20
-30.5402
 30
0.0
 10
20.8903
 20
-30.5285
 30
0.0
 10
20.9483
 20
-30.5222
 30
0.0
 10
20.9958
 20
-30.5222
 30
0.0
 10
21.3188
 20
-30.5222
 30
0.0
 10
21.5717
 20
-30.6315
 30
0.0
 10
21.7536
 20
-30.8489
 30
0.0
 10
21.935
 20
-31.0667
 30
0.0
 10
22.0261
 20
-31.3705
 30
0.0
 10
22.0261
 20
-31.7622
 30
0.0
 10
22.0261
 20
-32.1912
 30
0.0
 10
21.9079
 20
-32.5329
 30
0.0
 10
21.6727
 20
-32.7865
 30
0.0
 10
21.4369
 20
-33.0398
 30
0.0
 10
21.1219
 20
-33.1667
 30
0.0
 10
20.7264
 20
-33.1667
 30
0.0
 10
20.355
 20
-33.1667
 30
0.0
 10
20.0538
 20
-33.0402
 30
0.0
 10
19.8222
 20
-32.7879
 30
0.0
 10
19.5902
 20
-32.535
 30
0.0
 10
19.4743
 20
-32.2054
 30
0.0
 10
19.4743
 20
-31.7985
 30
0.0
 10
19.4743
 20
-31.2966
 30
0.0
 10
19.7029
 20
-30.5731
 30
0.0
 10
20.1606
 20
-29.6268
 30
0.0
 10
20.1606
 20
-29.6268
 30
0.0
 10
20.4356
 20
-29.0581
 30
0.0
 10
20.4356
 20
-29.0581
 30
0.0
  0
SPLINE
  5
8F
330
1F
100
AcDbEntity
  8
Layer 1
 62
   250
100
AcDbSpline
210
0.0
220
0.0
230
1.0
 70
    11
 71
     3
 72
    29
 73
    25
 74
     0
 42
0.0000000001
 43
0.0000000001
 40
0.0
 40
0.0
 40
0.0
 40
0.0
 40
0.125
 40
0.125
 40
0.125
 40
0.25
 40
0.25
 40
0.25
 40
0.375
 40
0.375
 40
0.375
 40
0.5
 40
0.5
 40
0.5
 40
0.625
 40
0.625
 40
0.625
 40
0.75
 40
0.75
 40
0.75
 40
0.875
 40
0.875
 40
0.875
 40
1.0
 40
1.0
 40
1.0
 40
1.0
 10
-15.6041
 20
-22.9324
 30
0.0
 10
-15.6041
 20
-22.9324
 30
0.0
 10
-17.7528
 20
-22.9324
 30
0.0
 10
-17.7528
 20
-22.9324
 30
0.0
 10
-18.1221
 20
-22.9324
 30
0.0
 10
-18.4212
 20
-22.6333
 30
0.0
 10
-18.4212
 20
-22.2641
 30
0.0
 10
-18.4212
 20
-22.2641
 30
0.0
 10
-18.4212
 20
-17.4133
 30
0.0
 10
-18.4212
 20
-17.4133
 30
0.0
 10
-18.4212
 20
-17.0444
 30
0.0
 10
-18.1221
 20
-16.7452
 30
0.0
 10
-17.7528
 20
-16.7452
 30
0.0
 10
-17.7528
 20
-16.7452
 30
0.0
 10
-15.6041
 20
-16.7452
 30
0.0
 10
-15.6041
 20
-16.7452
 30
0.0
 10
-15.2348
 20
-16.7452
 30
0.0
 10
-14.9356
 20
-17.0444
 30
0.0
 10
-14.9356
 20
-17.4133
 30
0.0
 10
-14.9356
 20
-17.4133
 30
0.0
 10
-14.9356
 20
-22.2641
 30
0.0
 10
-14.9356
 20
-22.2641
 30
0.0
 10
-14.9356
 20
-22.6333
 30
0.0
 10
-15.2348
 20
-22.9324
 30
0.0
 10
-15.6041
 20
-22.9324
 30
0.0
  0
SPLINE
  5
90
330
1F
100
AcDbEntity
  8
Layer 1
 62
   250
100
AcDbSpline
210
0.0
220
0.0
230
1.0
 70
    11
 71
     3
 72
    17
 73
    13
 74
     0
 42
0.0000000001
 43
0.0000000001
 40
0.0
 40
0.0
 40
0.0
 40
0.0
 40
0.25
 40
0.25
 40
0.25
 40
0.5
 40
0.5
 40
0.5
 40
0.75
 40
0.75
 40
0.75
 40
1.0
 40
1.0
 40
1.0
 40
1.0
 10
-16.478
 20
-22.6297
 30
0.0
 10
-16.478
 20
-22.7328
 30
0.0
 10
-16.5593
 20
-22.8166
 30
0.0
 10
-16.6599
 20
-22.8166
 30
0.0
 10
-16.76
 20
-22.8166
 30
0.0
 10
-16.8419
 20
-22.7328
 30
0.0
 10
-16.8419
 20
-22.6297
 30
0.0
 10
-16.8419
 20
-22.5262
 30
0.0
 10
-16.76
 20
-22.4428
 30
0.0
 10
-16.6599
 20
-22.4428
 30
0.0
 10
-16.5593
 20
-22.4428
 30
0.0
 10
-16.478
 20
-22.5262
 30
0.0
 10
-16.478
 20
-22.6297
 30
0.0
  0
SPLINE
  5
91
330
1F
100
AcDbEntity
  8
Layer 1
 62
   250
100
AcDbSpline
210
0.0
220
0.0
230
1.0
 70
    11
 71
     3
 72
    17
 73
    13
 74
     0
 42
0.0000000001
 43
0.0000000001
 40
0.0
 40
0.0
 40
0.0
 40
0.0
 40
0.25
 40
0.25
 40
0.25
 40
0.5
 40
0.5
 40
0.5
 40
0.75
 40
0.75
 40
0.75
 40
1.0
 40
1.0
 40
1.0
 40
1.0
 10
-16.0589
 20
-17.2532
 30
0.0
 10
-16.0589
 20
-17.2532
 30
0.0
 10
-17.2985
 20
-17.2532
 30
0.0
 10
-17.2985
 20
-17.2532
 30
0.0
 10
-17.2985
 20
-17.2532
 30
0.0
 10
-17.2985
 20
-17.0813
 30
0.0
 10
-17.2985
 20
-17.0813
 30
0.0
 10
-17.2985
 20
-17.0813
 30
0.0
 10
-16.0589
 20
-17.0813
 30
0.0
 10
-16.0589
 20
-17.0813
 30
0.0
 10
-16.0589
 20
-17.0813
 30
0.0
 10
-16.0589
 20
-17.2532
 30
0.0
 10
-16.0589
 20
-17.2532
 30
0.0
  0
SPLINE
  5
92
330
1F
100
AcDbEntity
  8
Layer 1
 62
   250
100
AcDbSpline
210
0.0
220
0.0
230
1.0
 70
    11
 71
     3
 72
    17
 73
    13
 74
     0
 42
0.0000000001
 43
0.0000000001
 40
0.0
 40
0.0
 40
0.0
 40
0.0
 40
0.25
 40
0.25
 40
0.25
 40
0.5
 40
0.5
 40
0.5
 40
0.75
 40
0.75
 40
0.75
 40
1.0
 40
1.0
 40
1.0
 40
1.0
 10
-15.1465
 20
-22.3101
 30
0.0
 10
-15.1465
 20
-22.3101
 30
0.0
 10
-18.1735
 20
-22.3101
 30
0.0
 10
-18.1735
 20
-22.3101
 30
0.0
 10
-18.1735
 20
-22.3101
 30
0.0
 10
-18.1735
 20
-17.587
 30
0.0
 10
-18.1735
 20
-17.587
 30
0.0
 10
-18.1735
 20
-17.587
 30
0.0
 10
-15.1465
 20
-17.587
 30
0.0
 10
-15.1465
 20
-17.587
 30
0.0
 10
-15.1465
 20
-17.587
 30
0.0
 10
-15.1465
 20
-22.3101
 30
0.0
 10
-15.1465
 20
-22.3101
 30
0.0
  0
SPLINE
  5
93
330
1F
100
AcDbEntity
  8
Layer 1
 62
     7
100
AcDbSpline
210
0.0
220
0.0
230
1.0
 70
    11
 71
     3
 72
    17
 73
    13
 74
     0
 42
0.0000000001
 43
0.0000000001
 40
0.0
 40
0.0
 40
0.0
 40
0.0
 40
0.25
 40
0.25
 40
0.25
 40
0.5
 40
0.5
 40
0.5
 40
0.75
 40
0.75
 40
0.75
 40
1.0
 40
1.0
 40
1.0
 40
1.0
 10
-15.1465
 20
-22.3101
 30
0.0
 10
-15.1465
 20
-22.3101
 30
0.0
 10
-18.1735
 20
-22.3101
 30
0.0
 10
-18.1735
 20
-22.3101
 30
0.0
 10
-18.1735
 20
-22.3101
 30
0.0
 10
-18.1735
 20
-17.587
 30
0.0
 10
-18.1735
 20
-17.587
 30
0.0
 10
-18.1735
 20
-17.587
 30
0.0
 10
-15.1465
 20
-17.587
 30
0.0
 10
-15.1465
 20
-17.587
 30
0.0
 10
-15.1465
 20
-17.587
 30
0.0
 10
-15.1465
 20
-22.3101
 30
0.0
 10
-15.1465
 20
-22.3101
 30
0.0
  0
SPLINE
  5
94
330
1F
100
AcDbEntity
  8
Layer 1
 62
     7
100
AcDbSpline
210
0.0
220
0.0
230
1.0
 70
    11
 71
     3
 72
    17
 73
    13
 74
     0
 42
0.0000000001
 43
0.0000000001
 40
0.0
 40
0.0
 40
0.0
 40
0.0
 40
0.25
 40
0.25
 40
0.25
 40
0.5
 40
0.5
 40
0.5
 40
0.75
 40
0.75
 40
0.75
 40
1.0
 40
1.0
 40
1.0
 40
1.0
 10
-16.0589
 20
-17.2532
 30
0.0
 10
-16.0589
 20
-17.2532
 30
0.0
 10
-17.2985
 20
-17.2532
 30
0.0
 10
-17.2985
 20
-17.2532
 30
0.0
 10
-17.2985
 20
-17.2532
 30
0.0
 10
-17.2985
 20
-17.0813
 30
0.0
 10
-17.2985
 20
-17.0813
 30
0.0
 10
-17.2985
 20
-17.0813
 30
0.0
 10
-16.0589
 20
-17.0813
 30
0.0
 10
-16.0589
 20
-17.0813
 30
0.0
 10
-16.0589
 20
-17.0813
 30
0.0
 10
-16.0589
 20
-17.2532
 30
0.0
 10
-16.0589
 20
-17.2532
 30
0.0
  0
SPLINE
  5
95
330
1F
100
AcDbEntity
  8
Layer 1
 62
     7
100
AcDbSpline
210
0.0
220
0.0
230
1.0
 70
    11
 71
     3
 72
    17
 73
    13
 74
     0
 42
0.0000000001
 43
0.0000000001
 40
0.0
 40
0.0
 40
0.0
 40
0.0
 40
0.25
 40
0.25
 40
0.25
 40
0.5
 40
0.5
 40
0.5
 40
0.75
 40
0.75
 40
0.75
 40
1.0
 40
1.0
 40
1.0
 40
1.0
 10
-16.478
 20
-22.6297
 30
0.0
 10
-16.478
 20
-22.7328
 30
0.0
 10
-16.5593
 20
-22.8166
 30
0.0
 10
-16.6599
 20
-22.8166
 30
0.0
 10
-16.76
 20
-22.8166
 30
0.0
 10
-16.8419
 20
-22.7328
 30
0.0
 10
-16.8419
 20
-22.6297
 30
0.0
 10
-16.8419
 20
-22.5262
 30
0.0
 10
-16.76
 20
-22.4428
 30
0.0
 10
-16.6599
 20
-22.4428
 30
0.0
 10
-16.5593
 20
-22.4428
 30
0.0
 10
-16.478
 20
-22.5262
 30
0.0
 10
-16.478
 20
-22.6297
 30
0.0
  0
SPLINE
  5
96
330
1F
100
AcDbEntity
  8
Layer 1
 62
   250
100
AcDbSpline
210
0.0
220
0.0
230
1.0
 70
    11
 71
     3
 72
    41
 73
    37
 74
     0
 42
0.0000000001
 43
0.0000000001
 40
0.0
 40
0.0
 40
0.0
 40
0.0
 40
0.0833333333333333
 40
0.0833333333333333
 40
0.0833333333333333
 40
0.1666666666666667
 40
0.1666666666666667
 40
0.1666666666666667
 40
0.25
 40
0.25
 40
0.25
 40
0.3333333333333333
 40
0.3333333333333333
 40
0.3333333333333333
 40
0.4166666666666666
 40
0.4166666666666666
 40
0.4166666666666666
 40
0.5
 40
0.5
 40
0.5
 40
0.5833333333333333
 40
0.5833333333333333
 40
0.5833333333333333
 40
0.6666666666666666
 40
0.6666666666666666
 40
0.6666666666666666
 40
0.75
 40
0.75
 40
0.75
 40
0.8333333333333333
 40
0.8333333333333333
 40
0.8333333333333333
 40
0.9166666666666666
 40
0.9166666666666666
 40
0.9166666666666666
 40
1.0
 40
1.0
 40
1.0
 40
1.0
 10
-15.3771
 20
-33.8663
 30
0.0
 10
-15.3771
 20
-33.8663
 30
0.0
 10
-17.8718
 20
-33.8663
 30
0.0
 10
-17.8718
 20
-33.8663
 30
0.0
 10
-18.2172
 20
-33.8663
 30
0.0
 10
-18.5306
 20
-33.7256
 30
0.0
 10
-18.7576
 20
-33.4985
 30
0.0
 10
-18.9848
 20
-33.2721
 30
0.0
 10
-19.1251
 20
-32.9584
 30
0.0
 10
-19.1251
 20
-32.6125
 30
0.0
 10
-19.1251
 20
-32.6125
 30
0.0
 10
-19.1251
 20
-30.0672
 30
0.0
 10
-19.1251
 20
-30.0672
 30
0.0
 10
-19.1251
 20
-29.7212
 30
0.0
 10
-18.9848
 20
-29.4076
 30
0.0
 10
-18.7581
 20
-29.181
 30
0.0
 10
-18.5313
 20
-28.9542
 30
0.0
 10
-18.2178
 20
-28.8139
 30
0.0
 10
-17.8718
 20
-28.8139
 30
0.0
 10
-17.8718
 20
-28.8139
 30
0.0
 10
-15.3771
 20
-28.8139
 30
0.0
 10
-15.3771
 20
-28.8139
 30
0.0
 10
-15.0315
 20
-28.8139
 30
0.0
 10
-14.7181
 20
-28.9543
 30
0.0
 10
-14.4911
 20
-29.1814
 30
0.0
 10
-14.264
 20
-29.4077
 30
0.0
 10
-14.1236
 20
-29.7212
 30
0.0
 10
-14.1236
 20
-30.0672
 30
0.0
 10
-14.1236
 20
-30.0672
 30
0.0
 10
-14.1236
 20
-32.6125
 30
0.0
 10
-14.1236
 20
-32.6125
 30
0.0
 10
-14.1236
 20
-32.9584
 30
0.0
 10
-14.264
 20
-33.2721
 30
0.0
 10
-14.4909
 20
-33.4989
 30
0.0
 10
-14.7177
 20
-33.7258
 30
0.0
 10
-15.0311
 20
-33.8663
 30
0.0
 10
-15.3771
 20
-33.8663
 30
0.0
  0
SPLINE
  5
97
330
1F
100
AcDbEntity
  8
Layer 1
 62
   250
100
AcDbSpline
210
0.0
220
0.0
230
1.0
 70
    11
 71
     3
 72
    41
 73
    37
 74
     0
 42
0.0000000001
 43
0.0000000001
 40
0.0
 40
0.0
 40
0.0
 40
0.0
 40
0.0833333333333333
 40
0.0833333333333333
 40
0.0833333333333333
 40
0.1666666666666667
 40
0.1666666666666667
 40
0.1666666666666667
 40
0.25
 40
0.25
 40
0.25
 40
0.3333333333333333
 40
0.3333333333333333
 40
0.3333333333333333
 40
0.4166666666666666
 40
0.4166666666666666
 40
0.4166666666666666
 40
0.5
 40
0.5
 40
0.5
 40
0.5833333333333333
 40
0.5833333333333333
 40
0.5833333333333333
 40
0.6666666666666666
 40
0.6666666666666666
 40
0.6666666666666666
 40
0.75
 40
0.75
 40
0.75
 40
0.8333333333333333
 40
0.8333333333333333
 40
0.8333333333333333
 40
0.9166666666666666
 40
0.9166666666666666
 40
0.9166666666666666
 40
1.0
 40
1.0
 40
1.0
 40
1.0
 10
-17.8718
 20
-33.5533
 30
0.0
 10
-17.8718
 20
-33.5533
 30
0.0
 10
-15.3771
 20
-33.5533
 30
0.0
 10
-15.3771
 20
-33.5533
 30
0.0
 10
-15.1174
 20
-33.5533
 30
0.0
 10
-14.8821
 20
-33.4478
 30
0.0
 10
-14.712
 20
-33.2777
 30
0.0
 10
-14.542
 20
-33.1077
 30
0.0
 10
-14.4366
 20
-32.8722
 30
0.0
 10
-14.4366
 20
-32.6125
 30
0.0
 10
-14.4366
 20
-32.6125
 30
0.0
 10
-14.4366
 20
-30.0672
 30
0.0
 10
-14.4366
 20
-30.0672
 30
0.0
 10
-14.4366
 20
-29.8074
 30
0.0
 10
-14.5418
 20
-29.5723
 30
0.0
 10
-14.7119
 20
-29.4022
 30
0.0
 10
-14.8815
 20
-29.2319
 30
0.0
 10
-15.1169
 20
-29.1268
 30
0.0
 10
-15.3771
 20
-29.1268
 30
0.0
 10
-15.3771
 20
-29.1268
 30
0.0
 10
-17.8718
 20
-29.1268
 30
0.0
 10
-17.8718
 20
-29.1268
 30
0.0
 10
-18.1315
 20
-29.1268
 30
0.0
 10
-18.3669
 20
-29.2321
 30
0.0
 10
-18.537
 20
-29.4022
 30
0.0
 10
-18.7068
 20
-29.572
 30
0.0
 10
-18.8122
 20
-29.8074
 30
0.0
 10
-18.8122
 20
-30.0672
 30
0.0
 10
-18.8122
 20
-30.0672
 30
0.0
 10
-18.8122
 20
-32.6125
 30
0.0
 10
-18.8122
 20
-32.6125
 30
0.0
 10
-18.8122
 20
-32.8722
 30
0.0
 10
-18.7068
 20
-33.1077
 30
0.0
 10
-18.5367
 20
-33.2777
 30
0.0
 10
-18.3671
 20
-33.448
 30
0.0
 10
-18.1319
 20
-33.5533
 30
0.0
 10
-17.8718
 20
-33.5533
 30
0.0
  0
SPLINE
  5
98
330
1F
100
AcDbEntity
  8
Layer 1
 62
   250
100
AcDbSpline
210
0.0
220
0.0
230
1.0
 70
    11
 71
     3
 72
    29
 73
    25
 74
     0
 42
0.0000000001
 43
0.0000000001
 40
0.0
 40
0.0
 40
0.0
 40
0.0
 40
0.125
 40
0.125
 40
0.125
 40
0.25
 40
0.25
 40
0.25
 40
0.375
 40
0.375
 40
0.375
 40
0.5
 40
0.5
 40
0.5
 40
0.625
 40
0.625
 40
0.625
 40
0.75
 40
0.75
 40
0.75
 40
0.875
 40
0.875
 40
0.875
 40
1.0
 40
1.0
 40
1.0
 40
1.0
 10
-15.4705
 20
-31.4304
 30
0.0
 10
-15.4705
 20
-31.751
 30
0.0
 10
-15.5994
 20
-32.0414
 30
0.0
 10
-15.8074
 20
-32.2517
 30
0.0
 10
-16.0167
 20
-32.4631
 30
0.0
 10
-16.3049
 20
-32.5936
 30
0.0
 10
-16.623
 20
-32.5936
 30
0.0
 10
-16.9411
 20
-32.5936
 30
0.0
 10
-17.2292
 20
-32.4632
 30
0.0
 10
-17.4379
 20
-32.2524
 30
0.0
 10
-17.6466
 20
-32.0421
 30
0.0
 10
-17.7754
 20
-31.7513
 30
0.0
 10
-17.7754
 20
-31.4304
 30
0.0
 10
-17.7754
 20
-31.1104
 30
0.0
 10
-17.6465
 20
-30.8197
 30
0.0
 10
-17.4381
 20
-30.6088
 30
0.0
 10
-17.2301
 20
-30.3977
 30
0.0
 10
-16.9416
 20
-30.2671
 30
0.0
 10
-16.623
 20
-30.2671
 30
0.0
 10
-16.3048
 20
-30.2671
 30
0.0
 10
-16.0161
 20
-30.3977
 30
0.0
 10
-15.8075
 20
-30.6086
 30
0.0
 10
-15.5994
 20
-30.8188
 30
0.0
 10
-15.4705
 20
-31.1097
 30
0.0
 10
-15.4705
 20
-31.4304
 30
0.0
  0
SPLINE
  5
99
330
1F
100
AcDbEntity
  8
Layer 1
 62
   250
100
AcDbSpline
210
0.0
220
0.0
230
1.0
 70
    11
 71
     3
 72
    29
 73
    25
 74
     0
 42
0.0000000001
 43
0.0000000001
 40
0.0
 40
0.0
 40
0.0
 40
0.0
 40
0.125
 40
0.125
 40
0.125
 40
0.25
 40
0.25
 40
0.25
 40
0.375
 40
0.375
 40
0.375
 40
0.5
 40
0.5
 40
0.5
 40
0.625
 40
0.625
 40
0.625
 40
0.75
 40
0.75
 40
0.75
 40
0.875
 40
0.875
 40
0.875
 40
1.0
 40
1.0
 40
1.0
 40
1.0
 10
-16.03
 20
-32.0329
 30
0.0
 10
-15.8779
 20
-31.879
 30
0.0
 10
-15.7835
 20
-31.6659
 30
0.0
 10
-15.7835
 20
-31.4304
 30
0.0
 10
-15.7835
 20
-31.1954
 30
0.0
 10
-15.8779
 20
-30.9824
 30
0.0
 10
-16.0301
 20
-30.8285
 30
0.0
 10
-16.1818
 20
-30.6751
 30
0.0
 10
-16.3916
 20
-30.5801
 30
0.0
 10
-16.623
 20
-30.5801
 30
0.0
 10
-16.8543
 20
-30.5801
 30
0.0
 10
-17.0642
 20
-30.6751
 30
0.0
 10
-17.2159
 20
-30.8284
 30
0.0
 10
-17.3686
 20
-30.9819
 30
0.0
 10
-17.4625
 20
-31.195
 30
0.0
 10
-17.4625
 20
-31.4304
 30
0.0
 10
-17.4625
 20
-31.6656
 30
0.0
 10
-17.3682
 20
-31.8786
 30
0.0
 10
-17.216
 20
-32.0324
 30
0.0
 10
-17.0646
 20
-32.1858
 30
0.0
 10
-16.8547
 20
-32.2807
 30
0.0
 10
-16.623
 20
-32.2807
 30
0.0
 10
-16.3915
 20
-32.2807
 30
0.0
 10
-16.1817
 20
-32.1858
 30
0.0
 10
-16.03
 20
-32.0329
 30
0.0
  0
SPLINE
  5
9A
330
1F
100
AcDbEntity
  8
Layer 1
 62
   250
100
AcDbSpline
210
0.0
220
0.0
230
1.0
 70
    11
 71
     3
 72
    29
 73
    25
 74
     0
 42
0.0000000001
 43
0.0000000001
 40
0.0
 40
0.0
 40
0.0
 40
0.0
 40
0.125
 40
0.125
 40
0.125
 40
0.25
 40
0.25
 40
0.25
 40
0.375
 40
0.375
 40
0.375
 40
0.5
 40
0.5
 40
0.5
 40
0.625
 40
0.625
 40
0.625
 40
0.75
 40
0.75
 40
0.75
 40
0.875
 40
0.875
 40
0.875
 40
1.0
 40
1.0
 40
1.0
 40
1.0
 10
-15.091
 20
-30.14
 30
0.0
 10
-15.091
 20
-30.2354
 30
0.0
 10
-15.1299
 20
-30.3222
 30
0.0
 10
-15.1925
 20
-30.3854
 30
0.0
 10
-15.2553
 20
-30.4488
 30
0.0
 10
-15.342
 20
-30.488
 30
0.0
 10
-15.4373
 20
-30.488
 30
0.0
 10
-15.5326
 20
-30.488
 30
0.0
 10
-15.6194
 20
-30.4488
 30
0.0
 10
-15.6822
 20
-30.3854
 30
0.0
 10
-15.7448
 20
-30.3222
 30
0.0
 10
-15.7837
 20
-30.2354
 30
0.0
 10
-15.7837
 20
-30.14
 30
0.0
 10
-15.7837
 20
-30.0445
 30
0.0
 10
-15.745
 20
-29.9578
 30
0.0
 10
-15.6829
 20
-29.8949
 30
0.0
 10
-15.6194
 20
-29.8312
 30
0.0
 10
-15.5325
 20
-29.7917
 30
0.0
 10
-15.4373
 20
-29.7917
 30
0.0
 10
-15.3421
 20
-29.7917
 30
0.0
 10
-15.2554
 20
-29.831
 30
0.0
 10
-15.1925
 20
-29.8943
 30
0.0
 10
-15.1297
 20
-29.9578
 30
0.0
 10
-15.091
 20
-30.0445
 30
0.0
 10
-15.091
 20
-30.14
 30
0.0
  0
SPLINE
  5
9B
330
1F
100
AcDbEntity
  8
Layer 1
 62
   250
100
AcDbSpline
210
0.0
220
0.0
230
1.0
 70
    11
 71
     3
 72
    29
 73
    25
 74
     0
 42
0.0000000001
 43
0.0000000001
 40
0.0
 40
0.0
 40
0.0
 40
0.0
 40
0.125
 40
0.125
 40
0.125
 40
0.25
 40
0.25
 40
0.25
 40
0.375
 40
0.375
 40
0.375
 40
0.5
 40
0.5
 40
0.5
 40
0.625
 40
0.625
 40
0.625
 40
0.75
 40
0.75
 40
0.75
 40
0.875
 40
0.875
 40
0.875
 40
1.0
 40
1.0
 40
1.0
 40
1.0
 10
-15.4136
 20
-30.1654
 30
0.0
 10
-15.4078
 20
-30.1595
 30
0.0
 10
-15.4039
 20
-30.1504
 30
0.0
 10
-15.4039
 20
-30.14
 30
0.0
 10
-15.4039
 20
-30.1296
 30
0.0
 10
-15.408
 20
-30.1201
 30
0.0
 10
-15.4143
 20
-30.1137
 30
0.0
 10
-15.4201
 20
-30.1082
 30
0.0
 10
-15.4283
 20
-30.1046
 30
0.0
 10
-15.4373
 20
-30.1046
 30
0.0
 10
-15.4463
 20
-30.1046
 30
0.0
 10
-15.4546
 20
-30.1082
 30
0.0
 10
-15.4604
 20
-30.1137
 30
0.0
 10
-15.4667
 20
-30.1201
 30
0.0
 10
-15.4708
 20
-30.1296
 30
0.0
 10
-15.4708
 20
-30.14
 30
0.0
 10
-15.4708
 20
-30.1504
 30
0.0
 10
-15.4669
 20
-30.1595
 30
0.0
 10
-15.4611
 20
-30.1654
 30
0.0
 10
-15.4553
 20
-30.1713
 30
0.0
 10
-15.4466
 20
-30.1751
 30
0.0
 10
-15.4373
 20
-30.1751
 30
0.0
 10
-15.4279
 20
-30.1751
 30
0.0
 10
-15.4194
 20
-30.1713
 30
0.0
 10
-15.4136
 20
-30.1654
 30
0.0
  0
ENDSEC
  0
SECTION
  2
OBJECTS
  0
DICTIONARY
  5
C
330
0
100
AcDbDictionary
281
     1
  3
ACAD_DETAILVIEWSTYLE
350
A3
  3
ACAD_GROUP
350
D
  3
ACAD_LAYOUT
350
1A
  3
ACAD_MATERIAL
350
43
  3
ACAD_MLEADERSTYLE
350
5B
  3
ACAD_MLINESTYLE
350
17
  3
ACAD_PLOTSETTINGS
350
19
  3
ACAD_PLOTSTYLENAME
350
E
  3
ACAD_SCALELIST
350
47
  3
ACAD_SECTIONVIEWSTYLE
350
A4
  3
ACAD_TABLESTYLE
350
59
  3
ACAD_VISUALSTYLE
350
2A
  3
ACDB_RECOMPOSE_DATA
350
A0
  3
AcDbVariableDictionary
350
9C
  0
SUN
  5
5D
330
29
100
AcDbSun
 90
        1
290
     0
 63
     7
421
 16777215
 40
1.0
291
     1
 91
  2455826
 92
 54000000
292
     0
 70
     2
 71
   256
280
     1
  0
DICTIONARY
  5
A3
102
{ACAD_REACTORS
330
C
102
}
330
C
100
AcDbDictionary
281
     1
  0
DICTIONARY
  5
D
102
{ACAD_REACTORS
330
C
102
}
330
C
100
AcDbDictionary
281
     1
  0
DICTIONARY
  5
1A
102
{ACAD_REACTORS
330
C
102
}
330
C
100
AcDbDictionary
281
     1
  3
Layout1
350
1E
  3
Layout2
350
26
  3
Model
350
22
  0
DICTIONARY
  5
43
102
{ACAD_REACTORS
330
C
102
}
330
C
100
AcDbDictionary
281
     1
  3
ByBlock
350
45
  3
ByLayer
350
44
  3
Global
350
46
  0
DICTIONARY
  5
5B
102
{ACAD_REACTORS
330
C
102
}
330
C
100
AcDbDictionary
281
     1
  3
Standard
350
5C
  0
DICTIONARY
  5
17
102
{ACAD_REACTORS
330
C
102
}
330
C
100
AcDbDictionary
281
     1
  3
Standard
350
18
  0
DICTIONARY
  5
19
102
{ACAD_REACTORS
330
C
102
}
330
C
100
AcDbDictionary
281
     1
  0
ACDBDICTIONARYWDFLT
  5
E
102
{ACAD_REACTORS
330
C
102
}
330
C
100
AcDbDictionary
281
     1
  3
Normal
350
F
100
AcDbDictionaryWithDefault
340
F
  0
DICTIONARY
  5
47
102
{ACAD_REACTORS
330
C
102
}
330
C
100
AcDbDictionary
281
     1
  3
A0
350
48
  3
A1
350
49
  3
A2
350
4A
  3
A3
350
4B
  3
A4
350
4C
  3
A5
350
4D
  3
A6
350
4E
  3
A7
350
4F
  3
A8
350
50
  3
A9
350
51
  3
B1
350
52
  3
B2
350
53
  3
B3
350
54
  3
B4
350
55
  3
B5
350
56
  3
B6
350
57
  3
B7
350
58
  0
DICTIONARY
  5
A4
102
{ACAD_REACTORS
330
C
102
}
330
C
100
AcDbDictionary
281
     1
  0
DICTIONARY
  5
59
102
{ACAD_REACTORS
330
C
102
}
330
C
100
AcDbDictionary
281
     1
  3
Standard
350
5A
  0
DICTIONARY
  5
2A
102
{ACAD_REACTORS
330
C
102
}
330
C
100
AcDbDictionary
281
     1
  3
2dWireframe
350
2F
  3
Basic
350
32
  3
Brighten
350
36
  3
ColorChange
350
3A
  3
Conceptual
350
34
  3
Dim
350
35
  3
EdgeColorOff
350
3D
  3
Facepattern
350
39
  3
Flat
350
2B
  3
FlatWithEdges
350
2C
  3
Gouraud
350
2D
  3
GouraudWithEdges
350
2E
  3
Hidden
350
31
  3
JitterOff
350
3B
  3
Linepattern
350
38
  3
OverhangOff
350
3C
  3
Realistic
350
33
  3
Shaded
350
42
  3
Shaded with edges
350
41
  3
Shades of Gray
350
3E
  3
Sketchy
350
3F
  3
Thicken
350
37
  3
Wireframe
350
30
  3
X-Ray
350
40
  0
XRECORD
  5
A0
102
{ACAD_REACTORS
330
C
102
}
330
C
100
AcDbXrecord
280
     1
 90
        1
330
5A
  0
DICTIONARY
  5
9C
102
{ACAD_REACTORS
330
C
102
}
330
C
100
AcDbDictionary
281
     1
  3
CANNOSCALE
350
9D
  3
CMLEADERSTYLE
350
A2
  3
CTABLESTYLE
350
A1
  0
LAYOUT
  5
1E
102
{ACAD_REACTORS
330
1A
102
}
330
1A
100
AcDbPlotSettings
  1

  2
none_device
  4

  6

 40
0.0
 41
0.0
 42
0.0
 43
0.0
 44
0.0
 45
0.0
 46
0.0
 47
0.0
 48
0.0
 49
0.0
140
0.0
141
0.0
142
1.0
143
1.0
 70
   688
 72
     0
 73
     0
 74
     5
  7

 75
    16
 76
     0
 77
     2
 78
   300
147
1.0
148
0.0
149
0.0
100
AcDbLayout
  1
Layout1
 70
     1
 71
     1
 10
0.0
 20
0.0
 11
12.0
 21
9.0
 12
0.0
 22
0.0
 32
0.0
 14
1.000000000000000E+20
 24
1.000000000000000E+20
 34
1.000000000000000E+20
 15
-1.000000000000000E+20
 25
-1.000000000000000E+20
 35
-1.000000000000000E+20
146
0.0
 13
0.0
 23
0.0
 33
0.0
 16
1.0
 26
0.0
 36
0.0
 17
0.0
 27
1.0
 37
0.0
 76
     0
330
1B
  0
LAYOUT
  5
26
102
{ACAD_REACTORS
330
1A
102
}
330
1A
100
AcDbPlotSettings
  1

  2
none_device
  4

  6

 40
0.0
 41
0.0
 42
0.0
 43
0.0
 44
0.0
 45
0.0
 46
0.0
 47
0.0
 48
0.0
 49
0.0
140
0.0
141
0.0
142
1.0
143
1.0
 70
   688
 72
     0
 73
     0
 74
     5
  7

 75
    16
 76
     0
 77
     2
 78
   300
147
1.0
148
0.0
149
0.0
100
AcDbLayout
  1
Layout2
 70
     1
 71
     2
 10
0.0
 20
0.0
 11
0.0
 21
0.0
 12
0.0
 22
0.0
 32
0.0
 14
0.0
 24
0.0
 34
0.0
 15
0.0
 25
0.0
 35
0.0
146
0.0
 13
0.0
 23
0.0
 33
0.0
 16
1.0
 26
0.0
 36
0.0
 17
0.0
 27
1.0
 37
0.0
 76
     0
330
23
  0
LAYOUT
  5
22
102
{ACAD_REACTORS
330
1A
102
}
330
1A
100
AcDbPlotSettings
  1

  2
none_device
  4
Letter_(8.50_x_11.00_Inches)
  6

 40
6.35
 41
6.35
 42
6.35000508
 43
6.35000508
 44
215.9
 45
279.4
 46
0.0
 47
0.0
 48
0.0
 49
0.0
140
0.0
141
0.0
142
1.0
143
1.0
 70
  1712
 72
     0
 73
     0
 74
     0
  7

 75
     0
 76
     0
 77
     2
 78
   300
147
1.0
148
0.0
149
0.0
100
AcDbLayout
  1
Model
 70
     1
 71
     0
 10
0.0
 20
0.0
 11
12.0
 21
9.0
 12
0.0
 22
0.0
 32
0.0
 14
-19.1251
 24
-33.8663
 34
0.0
 15
23.2641
 25
26.1337
 35
0.0
146
0.0
 13
0.0
 23
0.0
 33
0.0
 16
1.0
 26
0.0
 36
0.0
 17
0.0
 27
1.0
 37
0.0
 76
     0
330
1F
331
29
  0
MATERIAL
  5
45
102
{ACAD_REACTORS
330
43
102
}
330
43
100
AcDbMaterial
  1
ByBlock
 72
     1
 94
      127
  0
MATERIAL
  5
44
102
{ACAD_REACTORS
330
43
102
}
330
43
100
AcDbMaterial
  1
ByLayer
 72
     1
 94
      127
  0
MATERIAL
  5
46
102
{ACAD_REACTORS
330
43
102
}
330
43
100
AcDbMaterial
  1
Global
 72
     1
 94
      127
  0
MLEADERSTYLE
  5
5C
102
{ACAD_REACTORS
330
5B
102
}
330
5B
100
AcDbMLeaderStyle
179
     2
170
     2
171
     1
172
     0
 90
        2
 40
0.0
 41
0.0
173
     1
 91
-1056964608
340
14
 92
       -2
290
     1
 42
0.09
291
     1
 43
0.36
  3
Standard
341
0
 44
0.18
300

342
11
174
     1
178
     6
175
     1
176
     0
 93
-1056964608
 45
0.18
292
     0
297
     0
 46
0.18
343
0
 94
-1056964608
 47
1.0
 49
1.0
140
1.0
293
     1
141
0.0
294
     1
177
     0
142
1.0
295
     0
296
     0
143
0.125
271
     0
272
     9
273
     9
298
     0
  0
MLINESTYLE
  5
18
102
{ACAD_REACTORS
330
17
102
}
330
17
100
AcDbMlineStyle
  2
Standard
 70
     0
  3

 62
   256
 51
90.0
 52
90.0
 71
     2
 49
0.5
 62
   256
  6
BYLAYER
 49
-0.5
 62
   256
  6
BYLAYER
  0
ACDBPLACEHOLDER
  5
F
102
{ACAD_REACTORS
330
E
102
}
330
E
  0
SCALE
  5
48
102
{ACAD_REACTORS
330
47
102
}
330
47
100
AcDbScale
 70
     0
300
1:1
140
1.0
141
1.0
290
     1
  0
SCALE
  5
49
102
{ACAD_REACTORS
330
47
102
}
330
47
100
AcDbScale
 70
     0
300
1/128" = 1'-0"
140
0.0078125
141
12.0
290
     0
  0
SCALE
  5
4A
102
{ACAD_REACTORS
330
47
102
}
330
47
100
AcDbScale
 70
     0
300
1/64" = 1'-0"
140
0.015625
141
12.0
290
     0
  0
SCALE
  5
4B
102
{ACAD_REACTORS
330
47
102
}
330
47
100
AcDbScale
 70
     0
300
1/32" = 1'-0"
140
0.03125
141
12.0
290
     0
  0
SCALE
  5
4C
102
{ACAD_REACTORS
330
47
102
}
330
47
100
AcDbScale
 70
     0
300
1/16" = 1'-0"
140
0.0625
141
12.0
290
     0
  0
SCALE
  5
4D
102
{ACAD_REACTORS
330
47
102
}
330
47
100
AcDbScale
 70
     0
300
3/32" = 1'-0"
140
0.09375
141
12.0
290
     0
  0
SCALE
  5
4E
102
{ACAD_REACTORS
330
47
102
}
330
47
100
AcDbScale
 70
     0
300
1/8" = 1'-0"
140
0.125
141
12.0
290
     0
  0
SCALE
  5
4F
102
{ACAD_REACTORS
330
47
102
}
330
47
100
AcDbScale
 70
     0
300
3/16" = 1'-0"
140
0.1875
141
12.0
290
     0
  0
SCALE
  5
50
102
{ACAD_REACTORS
330
47
102
}
330
47
100
AcDbScale
 70
     0
300
1/4" = 1'-0"
140
0.25
141
12.0
290
     0
  0
SCALE
  5
51
102
{ACAD_REACTORS
330
47
102
}
330
47
100
AcDbScale
 70
     0
300
3/8" = 1'-0"
140
0.375
141
12.0
290
     0
  0
SCALE
  5
52
102
{ACAD_REACTORS
330
47
102
}
330
47
100
AcDbScale
 70
     0
300
1/2" = 1'-0"
140
0.5
141
12.0
290
     0
  0
SCALE
  5
53
102
{ACAD_REACTORS
330
47
102
}
330
47
100
AcDbScale
 70
     0
300
3/4" = 1'-0"
140
0.75
141
12.0
290
     0
  0
SCALE
  5
54
102
{ACAD_REACTORS
330
47
102
}
330
47
100
AcDbScale
 70
     0
300
1" = 1'-0"
140
1.0
141
12.0
290
     0
  0
SCALE
  5
55
102
{ACAD_REACTORS
330
47
102
}
330
47
100
AcDbScale
 70
     0
300
1-1/2" = 1'-0"
140
1.5
141
12.0
290
     0
  0
SCALE
  5
56
102
{ACAD_REACTORS
330
47
102
}
330
47
100
AcDbScale
 70
     0
300
3" = 1'-0"
140
3.0
141
12.0
290
     0
  0
SCALE
  5
57
102
{ACAD_REACTORS
330
47
102
}
330
47
100
AcDbScale
 70
     0
300
6" = 1'-0"
140
6.0
141
12.0
290
     0
  0
SCALE
  5
58
102
{ACAD_REACTORS
330
47
102
}
330
47
100
AcDbScale
 70
     0
300
1'-0" = 1'-0"
140
12.0
141
12.0
290
     0
  0
TABLESTYLE
  5
5A
102
{ACAD_REACTORS
330
59
102
}
102
{ACAD_XDICTIONARY
360
9E
102
}
330
59
100
AcDbTableStyle
  3
Standard
 70
     0
 71
     0
 40
0.06
 41
0.06
280
     0
281
     0
  7
Standard
140
0.18
170
     2
 62
     0
 63
   257
283
     0
 90
        4
 91
        0
  1

274
    -2
284
     1
 64
     0
275
    -2
285
     1
 65
     0
276
    -2
286
     1
 66
     0
277
    -2
287
     1
 67
     0
278
    -2
288
     1
 68
     0
279
    -2
289
     1
 69
     0
  7
Standard
140
0.25
170
     5
 62
     0
 63
   257
283
     0
 90
        4
 91
        0
  1

274
    -2
284
     1
 64
     0
275
    -2
285
     1
 65
     0
276
    -2
286
     1
 66
     0
277
    -2
287
     1
 67
     0
278
    -2
288
     1
 68
     0
279
    -2
289
     1
 69
     0
  7
Standard
140
0.18
170
     5
 62
     0
 63
   257
283
     0
 90
        4
 91
        0
  1

274
    -2
284
     1
 64
     0
275
    -2
285
     1
 65
     0
276
    -2
286
     1
 66
     0
277
    -2
287
     1
 67
     0
278
    -2
288
     1
 68
     0
279
    -2
289
     1
 69
     0
  0
VISUALSTYLE
  5
2F
102
{ACAD_REACTORS
330
2A
102
}
330
2A
100
AcDbVisualStyle
  2
2dWireframe
 70
     4
177
     3
291
     0
 70
    58
 90
        0
176
     1
 90
        2
176
     1
 90
        0
176
     1
 90
        0
176
     1
 40
0.6
176
     1
 40
30.0
176
     1
 62
     7
420
 16777215
176
     1
 90
        1
176
     1
 90
        4
176
     1
 62
     7
176
     1
 62
   257
176
     1
 90
        1
176
     1
 90
        1
176
     1
 40
1.0
176
     1
 90
        0
176
     1
 62
   257
176
     1
 40
1.0
176
     1
 90
        1
176
     1
 90
        6
176
     1
 90
        2
176
     1
 62
     7
176
     1
 90
        5
176
     1
 90
        0
176
     1
 90
        0
176
     1
290
     0
176
     1
 90
        1
176
     1
 40
0.0
176
     1
 90
        0
176
     1
290
     1
176
     1
290
     1
176
     1
290
     0
176
     1
290
     0
176
     1
290
     0
176
     1
290
     0
176
     1
290
     0
176
     1
290
     0
176
     1
290
     0
176
     1
 90
       50
176
     1
 40
0.0
176
     1
 40
1.0
176
     1
 90
        0
176
     1
 62
    18
420
        0
176
     1
 90
       50
176
     1
 90
        3
176
     1
 62
     5
420
      255
176
     1
290
     0
176
     1
 90
       50
176
     1
 90
       50
176
     1
 90
       50
176
     1
290
     0
176
     1
 90
       50
176
     1
 62
   256
176
     0
 40
1.0
176
     0
 90
        2
176
     1
  1
strokes_ogs.tif
176
     1
290
     0
176
     1
 40
1.0
176
     1
 40
1.0
176
     1
  0
VISUALSTYLE
  5
32
102
{ACAD_REACTORS
330
2A
102
}
330
2A
100
AcDbVisualStyle
  2
Basic
 70
     7
177
     3
291
     1
 70
    58
 90
        1
176
     1
 90
        0
176
     1
 90
        1
176
     1
 90
        0
176
     1
 40
0.6
176
     1
 40
30.0
176
     1
 62
     7
420
 16777215
176
     1
 90
        0
176
     1
 90
        4
176
     1
 62
     7
176
     1
 62
   257
176
     1
 90
        1
176
     1
 90
        1
176
     1
 40
1.0
176
     1
 90
        8
176
     1
 62
     7
176
     1
 40
1.0
176
     1
 90
        1
176
     1
 90
        6
176
     1
 90
        2
176
     1
 62
     7
176
     1
 90
        5
176
     1
 90
        0
176
     1
 90
        0
176
     1
290
     0
176
     1
 90
        1
176
     1
 40
0.0
176
     1
 90
        0
176
     1
290
     0
176
     1
290
     1
176
     1
290
     1
176
     1
290
     0
176
     1
290
     0
176
     1
290
     0
176
     1
290
     0
176
     1
290
     0
176
     1
290
     0
176
     1
 90
       50
176
     1
 40
0.0
176
     1
 40
1.0
176
     1
 90
        0
176
     1
 62
    18
420
        0
176
     1
 90
       50
176
     1
 90
        3
176
     1
 62
     5
420
      255
176
     1
290
     0
176
     1
 90
       50
176
     1
 90
       50
176
     1
 90
       50
176
     1
290
     0
176
     1
 90
       50
176
     1
 62
   256
176
     0
 40
1.0
176
     0
 90
        2
176
     1
  1
strokes_ogs.tif
176
     1
290
     0
176
     1
 40
1.0
176
     1
 40
1.0
176
     1
  0
VISUALSTYLE
  5
36
102
{ACAD_REACTORS
330
2A
102
}
330
2A
100
AcDbVisualStyle
  2
Brighten
 70
    12
177
     3
291
     1
 70
    58
 90
        2
176
     1
 90
        2
176
     1
 90
        0
176
     1
 90
        0
176
     1
 40
0.6
176
     1
 40
30.0
176
     1
 62
     7
420
 16777215
176
     1
 90
        1
176
     1
 90
        4
176
     1
 62
     7
176
     1
 62
   257
176
     1
 90
        1
176
     1
 90
        1
176
     1
 40
1.0
176
     1
 90
        8
176
     1
 62
     7
176
     1
 40
1.0
176
     1
 90
        1
176
     1
 90
        6
176
     1
 90
        2
176
     1
 62
     7
176
     1
 90
        5
176
     1
 90
        0
176
     1
 90
        0
176
     1
290
     0
176
     1
 90
        1
176
     1
 40
50.0
176
     1
 90
        0
176
     1
290
     0
176
     1
290
     1
176
     1
290
     1
176
     1
290
     0
176
     1
290
     0
176
     1
290
     0
176
     1
290
     0
176
     1
290
     0
176
     1
290
     0
176
     1
 90
       50
176
     1
 40
0.0
176
     1
 40
1.0
176
     1
 90
        0
176
     1
 62
    18
420
        0
176
     1
 90
       50
176
     1
 90
        3
176
     1
 62
     5
420
      255
176
     1
290
     0
176
     1
 90
       50
176
     1
 90
       50
176
     1
 90
       50
176
     1
290
     0
176
     1
 90
       50
176
     1
 62
   256
176
     0
 40
1.0
176
     0
 90
        2
176
     1
  1
strokes_ogs.tif
176
     1
290
     0
176
     1
 40
1.0
176
     1
 40
1.0
176
     1
  0
VISUALSTYLE
  5
3A
102
{ACAD_REACTORS
330
2A
102
}
330
2A
100
AcDbVisualStyle
  2
ColorChange
 70
    16
177
     3
291
     1
 70
    58
 90
        2
176
     1
 90
        2
176
     1
 90
        3
176
     1
 90
        0
176
     1
 40
0.6
176
     1
 40
30.0
176
     1
 62
     8
420
  8421504
176
     1
 90
        1
176
     1
 90
        4
176
     1
 62
     7
176
     1
 62
   257
176
     1
 90
        1
176
     1
 90
        1
176
     1
 40
1.0
176
     1
 90
        8
176
     1
 62
     8
420
  8421504
176
     1
 40
1.0
176
     1
 90
        1
176
     1
 90
        6
176
     1
 90
        2
176
     1
 62
     7
176
     1
 90
        5
176
     1
 90
        0
176
     1
 90
        0
176
     1
290
     0
176
     1
 90
        1
176
     1
 40
0.0
176
     1
 90
        0
176
     1
290
     0
176
     1
290
     1
176
     1
290
     1
176
     1
290
     0
176
     1
290
     0
176
     1
290
     0
176
     1
290
     0
176
     1
290
     0
176
     1
290
     0
176
     1
 90
       50
176
     1
 40
0.0
176
     1
 40
1.0
176
     1
 90
        0
176
     1
 62
    18
420
        0
176
     1
 90
       50
176
     1
 90
        3
176
     1
 62
     5
420
      255
176
     1
290
     0
176
     1
 90
       50
176
     1
 90
       50
176
     1
 90
       50
176
     1
290
     0
176
     1
 90
       50
176
     1
 62
   256
176
     0
 40
1.0
176
     0
 90
        2
176
     1
  1
strokes_ogs.tif
176
     1
290
     0
176
     1
 40
1.0
176
     1
 40
1.0
176
     1
  0
VISUALSTYLE
  5
34
102
{ACAD_REACTORS
330
2A
102
}
330
2A
100
AcDbVisualStyle
  2
Conceptual
 70
     9
177
     3
291
     0
 70
    58
 90
        3
176
     1
 90
        2
176
     1
 90
        0
176
     1
 90
        0
176
     1
 40
0.6
176
     1
 40
30.0
176
     1
 62
     7
420
 16777215
176
     1
 90
        2
176
     1
 90
        2
176
     1
 62
     7
176
     1
 62
   257
176
     1
 90
        1
176
     1
 90
        1
176
     1
 40
179.0
176
     1
 90
        8
176
     1
 62
     7
176
     1
 40
1.0
176
     1
 90
        1
176
     1
 90
        6
176
     1
 90
        2
176
     1
 62
     7
176
     1
 90
        3
176
     1
 90
        0
176
     1
 90
        0
176
     1
290
     0
176
     1
 90
        1
176
     1
 40
0.0
176
     1
 90
        0
176
     1
290
     0
176
     1
290
     1
176
     1
290
     1
176
     1
290
     0
176
     1
290
     0
176
     1
290
     0
176
     1
290
     0
176
     1
290
     0
176
     1
290
     0
176
     1
 90
       50
176
     1
 40
0.0
176
     1
 40
1.0
176
     1
 90
        0
176
     1
 62
    18
420
        0
176
     1
 90
       50
176
     1
 90
        3
176
     1
 62
     5
420
      255
176
     1
290
     0
176
     1
 90
       50
176
     1
 90
       50
176
     1
 90
       50
176
     1
290
     0
176
     1
 90
       50
176
     1
 62
   256
176
     0
 40
1.0
176
     0
 90
        2
176
     1
  1
strokes_ogs.tif
176
     1
290
     0
176
     1
 40
1.0
176
     1
 40
1.0
176
     1
  0
VISUALSTYLE
  5
35
102
{ACAD_REACTORS
330
2A
102
}
330
2A
100
AcDbVisualStyle
  2
Dim
 70
    11
177
     3
291
     1
 70
    58
 90
        2
176
     1
 90
        2
176
     1
 90
        0
176
     1
 90
        0
176
     1
 40
0.6
176
     1
 40
30.0
176
     1
 62
     7
420
 16777215
176
     1
 90
        1
176
     1
 90
        4
176
     1
 62
     7
176
     1
 62
   257
176
     1
 90
        1
176
     1
 90
        1
176
     1
 40
1.0
176
     1
 90
        8
176
     1
 62
     7
176
     1
 40
1.0
176
     1
 90
        1
176
     1
 90
        6
176
     1
 90
        2
176
     1
 62
     7
176
     1
 90
        5
176
     1
 90
        0
176
     1
 90
        0
176
     1
290
     0
176
     1
 90
        1
176
     1
 40
-50.0
176
     1
 90
        0
176
     1
290
     0
176
     1
290
     1
176
     1
290
     1
176
     1
290
     0
176
     1
290
     0
176
     1
290
     0
176
     1
290
     0
176
     1
290
     0
176
     1
290
     0
176
     1
 90
       50
176
     1
 40
0.0
176
     1
 40
1.0
176
     1
 90
        0
176
     1
 62
    18
420
        0
176
     1
 90
       50
176
     1
 90
        3
176
     1
 62
     5
420
      255
176
     1
290
     0
176
     1
 90
       50
176
     1
 90
       50
176
     1
 90
       50
176
     1
290
     0
176
     1
 90
       50
176
     1
 62
   256
176
     0
 40
1.0
176
     0
 90
        2
176
     1
  1
strokes_ogs.tif
176
     1
290
     0
176
     1
 40
1.0
176
     1
 40
1.0
176
     1
  0
VISUALSTYLE
  5
3D
102
{ACAD_REACTORS
330
2A
102
}
330
2A
100
AcDbVisualStyle
  2
EdgeColorOff
 70
    22
177
     3
291
     1
 70
    58
 90
        2
176
     0
 90
        2
176
     0
 90
        0
176
     0
 90
        0
176
     0
 40
0.6
176
     0
 40
30.0
176
     0
 62
     7
420
 16777215
176
     0
 90
        1
176
     0
 90
        4
176
     0
 62
     7
176
     0
 62
   257
176
     0
 90
        1
176
     0
 90
        1
176
     0
 40
1.0
176
     0
 90
        8
176
     2
 62
     7
176
     0
 40
1.0
176
     0
 90
        1
176
     0
 90
        6
176
     0
 90
        2
176
     0
 62
     7
176
     0
 90
        5
176
     0
 90
        0
176
     0
 90
        0
176
     0
290
     0
176
     0
 90
        1
176
     0
 40
0.0
176
     0
 90
        0
176
     0
290
     0
176
     0
290
     1
176
     0
290
     1
176
     0
290
     0
176
     0
290
     0
176
     0
290
     0
176
     0
290
     0
176
     0
290
     0
176
     0
290
     0
176
     0
 90
       50
176
     0
 40
0.0
176
     0
 40
1.0
176
     0
 90
        0
176
     0
 62
    18
420
        0
176
     0
 90
       50
176
     0
 90
        3
176
     0
 62
     5
420
      255
176
     0
290
     0
176
     0
 90
       50
176
     0
 90
       50
176
     0
 90
       50
176
     0
290
     0
176
     0
 90
       50
176
     0
 62
   256
176
     0
 40
1.0
176
     0
 90
        2
176
     0
  1
strokes_ogs.tif
176
     0
290
     0
176
     0
 40
1.0
176
     0
 40
1.0
176
     0
  0
VISUALSTYLE
  5
39
102
{ACAD_REACTORS
330
2A
102
}
330
2A
100
AcDbVisualStyle
  2
Facepattern
 70
    15
177
     3
291
     1
 70
    58
 90
        2
176
     1
 90
        2
176
     1
 90
        0
176
     1
 90
        0
176
     1
 40
0.6
176
     1
 40
30.0
176
     1
 62
     7
420
 16777215
176
     1
 90
        1
176
     1
 90
        4
176
     1
 62
     7
176
     1
 62
   257
176
     1
 90
        1
176
     1
 90
        1
176
     1
 40
1.0
176
     1
 90
        8
176
     1
 62
     7
176
     1
 40
1.0
176
     1
 90
        1
176
     1
 90
        6
176
     1
 90
        2
176
     1
 62
     7
176
     1
 90
        5
176
     1
 90
        0
176
     1
 90
        0
176
     1
290
     0
176
     1
 90
        1
176
     1
 40
0.0
176
     1
 90
        0
176
     1
290
     0
176
     1
290
     1
176
     1
290
     1
176
     1
290
     0
176
     1
290
     0
176
     1
290
     0
176
     1
290
     0
176
     1
290
     0
176
     1
290
     0
176
     1
 90
       50
176
     1
 40
0.0
176
     1
 40
1.0
176
     1
 90
        0
176
     1
 62
    18
420
        0
176
     1
 90
       50
176
     1
 90
        3
176
     1
 62
     5
420
      255
176
     1
290
     0
176
     1
 90
       50
176
     1
 90
       50
176
     1
 90
       50
176
     1
290
     0
176
     1
 90
       50
176
     1
 62
   256
176
     0
 40
1.0
176
     0
 90
        2
176
     1
  1
strokes_ogs.tif
176
     1
290
     0
176
     1
 40
1.0
176
     1
 40
1.0
176
     1
  0
VISUALSTYLE
  5
2B
102
{ACAD_REACTORS
330
2A
102
}
330
2A
100
AcDbVisualStyle
  2
Flat
 70
     0
177
     3
291
     1
 70
    58
 90
        2
176
     1
 90
        1
176
     1
 90
        1
176
     1
 90
        2
176
     1
 40
0.6
176
     1
 40
30.0
176
     1
 62
     7
420
 16777215
176
     1
 90
        0
176
     1
 90
        0
176
     1
 62
     7
176
     1
 62
   257
176
     1
 90
        1
176
     1
 90
        1
176
     1
 40
1.0
176
     1
 90
        8
176
     1
 62
     7
176
     1
 40
1.0
176
     1
 90
        1
176
     1
 90
        6
176
     1
 90
        2
176
     1
 62
     7
176
     1
 90
        5
176
     1
 90
        0
176
     1
 90
        0
176
     1
290
     0
176
     1
 90
       13
176
     1
 40
0.0
176
     1
 90
        0
176
     1
290
     0
176
     1
290
     1
176
     1
290
     1
176
     1
290
     0
176
     1
290
     0
176
     1
290
     0
176
     1
290
     0
176
     1
290
     0
176
     1
290
     0
176
     1
 90
       50
176
     1
 40
0.0
176
     1
 40
1.0
176
     1
 90
        0
176
     1
 62
    18
420
        0
176
     1
 90
       50
176
     1
 90
        3
176
     1
 62
     5
420
      255
176
     1
290
     0
176
     1
 90
       50
176
     1
 90
       50
176
     1
 90
       50
176
     1
290
     0
176
     1
 90
       50
176
     1
 62
   256
176
     0
 40
1.0
176
     0
 90
        2
176
     1
  1
strokes_ogs.tif
176
     1
290
     0
176
     1
 40
1.0
176
     1
 40
1.0
176
     1
  0
VISUALSTYLE
  5
2C
102
{ACAD_REACTORS
330
2A
102
}
330
2A
100
AcDbVisualStyle
  2
FlatWithEdges
 70
     1
177
     3
291
     1
 70
    58
 90
        2
176
     1
 90
        1
176
     1
 90
        1
176
     1
 90
        2
176
     1
 40
0.6
176
     1
 40
30.0
176
     1
 62
     7
420
 16777215
176
     1
 90
        1
176
     1
 90
        0
176
     1
 62
     7
176
     1
 62
   257
176
     1
 90
        1
176
     1
 90
        1
176
     1
 40
1.0
176
     1
 90
        0
176
     1
 62
   257
176
     1
 40
1.0
176
     1
 90
        1
176
     1
 90
        6
176
     1
 90
        2
176
     1
 62
     7
176
     1
 90
        5
176
     1
 90
        0
176
     1
 90
        0
176
     1
290
     0
176
     1
 90
       13
176
     1
 40
0.0
176
     1
 90
        0
176
     1
290
     0
176
     1
290
     1
176
     1
290
     1
176
     1
290
     0
176
     1
290
     0
176
     1
290
     0
176
     1
290
     0
176
     1
290
     0
176
     1
290
     0
176
     1
 90
       50
176
     1
 40
0.0
176
     1
 40
1.0
176
     1
 90
        0
176
     1
 62
    18
420
        0
176
     1
 90
       50
176
     1
 90
        3
176
     1
 62
     5
420
      255
176
     1
290
     0
176
     1
 90
       50
176
     1
 90
       50
176
     1
 90
       50
176
     1
290
     0
176
     1
 90
       50
176
     1
 62
   256
176
     0
 40
1.0
176
     0
 90
        2
176
     1
  1
strokes_ogs.tif
176
     1
290
     0
176
     1
 40
1.0
176
     1
 40
1.0
176
     1
  0
VISUALSTYLE
  5
2D
102
{ACAD_REACTORS
330
2A
102
}
330
2A
100
AcDbVisualStyle
  2
Gouraud
 70
     2
177
     3
291
     1
 70
    58
 90
        2
176
     1
 90
        2
176
     1
 90
        1
176
     1
 90
        2
176
     1
 40
0.6
176
     1
 40
30.0
176
     1
 62
     7
420
 16777215
176
     1
 90
        0
176
     1
 90
        0
176
     1
 62
     7
176
     1
 62
   257
176
     1
 90
        1
176
     1
 90
        1
176
     1
 40
1.0
176
     1
 90
        0
176
     1
 62
     7
176
     1
 40
1.0
176
     1
 90
        1
176
     1
 90
        6
176
     1
 90
        2
176
     1
 62
     7
176
     1
 90
        5
176
     1
 90
        0
176
     1
 90
        0
176
     1
290
     0
176
     1
 90
       13
176
     1
 40
0.0
176
     1
 90
        0
176
     1
290
     0
176
     1
290
     1
176
     1
290
     1
176
     1
290
     0
176
     1
290
     0
176
     1
290
     0
176
     1
290
     0
176
     1
290
     0
176
     1
290
     0
176
     1
 90
       50
176
     1
 40
0.0
176
     1
 40
1.0
176
     1
 90
        0
176
     1
 62
    18
420
        0
176
     1
 90
       50
176
     1
 90
        3
176
     1
 62
     5
420
      255
176
     1
290
     0
176
     1
 90
       50
176
     1
 90
       50
176
     1
 90
       50
176
     1
290
     0
176
     1
 90
       50
176
     1
 62
   256
176
     0
 40
1.0
176
     0
 90
        2
176
     1
  1
strokes_ogs.tif
176
     1
290
     0
176
     1
 40
1.0
176
     1
 40
1.0
176
     1
  0
VISUALSTYLE
  5
2E
102
{ACAD_REACTORS
330
2A
102
}
330
2A
100
AcDbVisualStyle
  2
GouraudWithEdges
 70
     3
177
     3
291
     1
 70
    58
 90
        2
176
     1
 90
        2
176
     1
 90
        1
176
     1
 90
        2
176
     1
 40
0.6
176
     1
 40
30.0
176
     1
 62
     7
420
 16777215
176
     1
 90
        1
176
     1
 90
        0
176
     1
 62
     7
176
     1
 62
   257
176
     1
 90
        1
176
     1
 90
        1
176
     1
 40
1.0
176
     1
 90
        0
176
     1
 62
   257
176
     1
 40
1.0
176
     1
 90
        1
176
     1
 90
        6
176
     1
 90
        2
176
     1
 62
     7
176
     1
 90
        5
176
     1
 90
        0
176
     1
 90
        0
176
     1
290
     0
176
     1
 90
       13
176
     1
 40
0.0
176
     1
 90
        0
176
     1
290
     0
176
     1
290
     1
176
     1
290
     1
176
     1
290
     0
176
     1
290
     0
176
     1
290
     0
176
     1
290
     0
176
     1
290
     0
176
     1
290
     0
176
     1
 90
       50
176
     1
 40
0.0
176
     1
 40
1.0
176
     1
 90
        0
176
     1
 62
    18
420
        0
176
     1
 90
       50
176
     1
 90
        3
176
     1
 62
     5
420
      255
176
     1
290
     0
176
     1
 90
       50
176
     1
 90
       50
176
     1
 90
       50
176
     1
290
     0
176
     1
 90
       50
176
     1
 62
   256
176
     0
 40
1.0
176
     0
 90
        2
176
     1
  1
strokes_ogs.tif
176
     1
290
     0
176
     1
 40
1.0
176
     1
 40
1.0
176
     1
  0
VISUALSTYLE
  5
31
102
{ACAD_REACTORS
330
2A
102
}
330
2A
100
AcDbVisualStyle
  2
Hidden
 70
     6
177
     3
291
     0
 70
    58
 90
        1
176
     1
 90
        2
176
     1
 90
        2
176
     1
 90
        0
176
     1
 40
0.6
176
     1
 40
30.0
176
     1
 62
     7
420
 16777215
176
     1
 90
        2
176
     1
 90
        2
176
     1
 62
     7
176
     1
 62
   257
176
     1
 90
        2
176
     1
 90
        1
176
     1
 40
40.0
176
     1
 90
        0
176
     1
 62
   257
176
     1
 40
1.0
176
     1
 90
        1
176
     1
 90
        6
176
     1
 90
        2
176
     1
 62
     7
176
     1
 90
        3
176
     1
 90
        0
176
     1
 90
        0
176
     1
290
     0
176
     1
 90
        1
176
     1
 40
0.0
176
     1
 90
        0
176
     1
290
     0
176
     1
290
     1
176
     1
290
     1
176
     1
290
     0
176
     1
290
     0
176
     1
290
     0
176
     1
290
     0
176
     1
290
     0
176
     1
290
     0
176
     1
 90
       50
176
     1
 40
0.0
176
     1
 40
1.0
176
     1
 90
        0
176
     1
 62
    18
420
        0
176
     1
 90
       50
176
     1
 90
        3
176
     1
 62
     5
420
      255
176
     1
290
     0
176
     1
 90
       50
176
     1
 90
       50
176
     1
 90
       50
176
     1
290
     0
176
     1
 90
       50
176
     1
 62
   256
176
     0
 40
1.0
176
     0
 90
        2
176
     1
  1
strokes_ogs.tif
176
     1
290
     0
176
     1
 40
1.0
176
     1
 40
1.0
176
     1
  0
VISUALSTYLE
  5
3B
102
{ACAD_REACTORS
330
2A
102
}
330
2A
100
AcDbVisualStyle
  2
JitterOff
 70
    20
177
     3
291
     1
 70
    58
 90
        2
176
     0
 90
        2
176
     0
 90
        0
176
     0
 90
        0
176
     0
 40
0.6
176
     0
 40
30.0
176
     0
 62
     7
420
 16777215
176
     0
 90
        1
176
     0
 90
        4
176
     0
 62
     7
176
     0
 62
   257
176
     0
 90
        1
176
     0
 90
        1
176
     0
 40
1.0
176
     0
 90
       10
176
     2
 62
     7
176
     0
 40
1.0
176
     0
 90
        1
176
     0
 90
        6
176
     0
 90
        2
176
     0
 62
     7
176
     0
 90
        5
176
     0
 90
        0
176
     0
 90
        0
176
     0
290
     0
176
     0
 90
        1
176
     0
 40
0.0
176
     0
 90
        0
176
     0
290
     0
176
     0
290
     1
176
     0
290
     1
176
     0
290
     0
176
     0
290
     0
176
     0
290
     0
176
     0
290
     0
176
     0
290
     0
176
     0
290
     0
176
     0
 90
       50
176
     0
 40
0.0
176
     0
 40
1.0
176
     0
 90
        0
176
     0
 62
    18
420
        0
176
     0
 90
       50
176
     0
 90
        3
176
     0
 62
     5
420
      255
176
     0
290
     0
176
     0
 90
       50
176
     0
 90
       50
176
     0
 90
       50
176
     0
290
     0
176
     0
 90
       50
176
     0
 62
   256
176
     0
 40
1.0
176
     0
 90
        2
176
     0
  1
strokes_ogs.tif
176
     0
290
     0
176
     0
 40
1.0
176
     0
 40
1.0
176
     0
  0
VISUALSTYLE
  5
38
102
{ACAD_REACTORS
330
2A
102
}
330
2A
100
AcDbVisualStyle
  2
Linepattern
 70
    14
177
     3
291
     1
 70
    58
 90
        2
176
     1
 90
        2
176
     1
 90
        0
176
     1
 90
        0
176
     1
 40
0.6
176
     1
 40
30.0
176
     1
 62
     7
420
 16777215
176
     1
 90
        1
176
     1
 90
        4
176
     1
 62
     7
176
     1
 62
   257
176
     1
 90
        7
176
     1
 90
        7
176
     1
 40
1.0
176
     1
 90
        8
176
     1
 62
     7
176
     1
 40
1.0
176
     1
 90
        1
176
     1
 90
        6
176
     1
 90
        2
176
     1
 62
     7
176
     1
 90
        5
176
     1
 90
        0
176
     1
 90
        0
176
     1
290
     0
176
     1
 90
        1
176
     1
 40
0.0
176
     1
 90
        0
176
     1
290
     0
176
     1
290
     1
176
     1
290
     1
176
     1
290
     0
176
     1
290
     0
176
     1
290
     0
176
     1
290
     0
176
     1
290
     0
176
     1
290
     0
176
     1
 90
       50
176
     1
 40
0.0
176
     1
 40
1.0
176
     1
 90
        0
176
     1
 62
    18
420
        0
176
     1
 90
       50
176
     1
 90
        3
176
     1
 62
     5
420
      255
176
     1
290
     0
176
     1
 90
       50
176
     1
 90
       50
176
     1
 90
       50
176
     1
290
     0
176
     1
 90
       50
176
     1
 62
   256
176
     0
 40
1.0
176
     0
 90
        2
176
     1
  1
strokes_ogs.tif
176
     1
290
     0
176
     1
 40
1.0
176
     1
 40
1.0
176
     1
  0
VISUALSTYLE
  5
3C
102
{ACAD_REACTORS
330
2A
102
}
330
2A
100
AcDbVisualStyle
  2
OverhangOff
 70
    21
177
     3
291
     1
 70
    58
 90
        2
176
     0
 90
        2
176
     0
 90
        0
176
     0
 90
        0
176
     0
 40
0.6
176
     0
 40
30.0
176
     0
 62
     7
420
 16777215
176
     0
 90
        1
176
     0
 90
        4
176
     0
 62
     7
176
     0
 62
   257
176
     0
 90
        1
176
     0
 90
        1
176
     0
 40
1.0
176
     0
 90
        9
176
     2
 62
     7
176
     0
 40
1.0
176
     0
 90
        1
176
     0
 90
        6
176
     0
 90
        2
176
     0
 62
     7
176
     0
 90
        5
176
     0
 90
        0
176
     0
 90
        0
176
     0
290
     0
176
     0
 90
        1
176
     0
 40
0.0
176
     0
 90
        0
176
     0
290
     0
176
     0
290
     1
176
     0
290
     1
176
     0
290
     0
176
     0
290
     0
176
     0
290
     0
176
     0
290
     0
176
     0
290
     0
176
     0
290
     0
176
     0
 90
       50
176
     0
 40
0.0
176
     0
 40
1.0
176
     0
 90
        0
176
     0
 62
    18
420
        0
176
     0
 90
       50
176
     0
 90
        3
176
     0
 62
     5
420
      255
176
     0
290
     0
176
     0
 90
       50
176
     0
 90
       50
176
     0
 90
       50
176
     0
290
     0
176
     0
 90
       50
176
     0
 62
   256
176
     0
 40
1.0
176
     0
 90
        2
176
     0
  1
strokes_ogs.tif
176
     0
290
     0
176
     0
 40
1.0
176
     0
 40
1.0
176
     0
  0
VISUALSTYLE
  5
33
102
{ACAD_REACTORS
330
2A
102
}
330
2A
100
AcDbVisualStyle
  2
Realistic
 70
     8
177
     3
291
     0
 70
    58
 90
        2
176
     1
 90
        3
176
     1
 90
        0
176
     1
 90
        2
176
     1
 40
0.6
176
     1
 40
30.0
176
     1
 62
     7
420
 16777215
176
     1
 90
        0
176
     1
 90
        0
176
     1
 62
     7
176
     1
 62
   257
176
     1
 90
        1
176
     1
 90
        1
176
     1
 40
1.0
176
     1
 90
        8
176
     1
 62
   257
176
     1
 40
1.0
176
     1
 90
        1
176
     1
 90
        6
176
     1
 90
        2
176
     1
 62
     7
176
     1
 90
        3
176
     1
 90
        0
176
     1
 90
        0
176
     1
290
     0
176
     1
 90
       13
176
     1
 40
0.0
176
     1
 90
        0
176
     1
290
     0
176
     1
290
     1
176
     1
290
     1
176
     1
290
     0
176
     1
290
     0
176
     1
290
     0
176
     1
290
     0
176
     1
290
     0
176
     1
290
     0
176
     1
 90
       50
176
     1
 40
0.0
176
     1
 40
1.0
176
     1
 90
        0
176
     1
 62
    18
420
        0
176
     1
 90
       50
176
     1
 90
        3
176
     1
 62
     5
420
      255
176
     1
290
     0
176
     1
 90
       50
176
     1
 90
       50
176
     1
 90
       50
176
     1
290
     0
176
     1
 90
       50
176
     1
 62
   256
176
     0
 40
1.0
176
     0
 90
        2
176
     1
  1
strokes_ogs.tif
176
     1
290
     0
176
     1
 40
1.0
176
     1
 40
1.0
176
     1
  0
VISUALSTYLE
  5
42
102
{ACAD_REACTORS
330
2A
102
}
330
2A
100
AcDbVisualStyle
  2
Shaded
 70
    27
177
     3
291
     0
 70
    58
 90
        2
176
     1
 90
        2
176
     1
 90
        1
176
     1
 90
        2
176
     1
 40
0.6
176
     1
 40
30.0
176
     1
 62
     7
420
 16777215
176
     1
 90
        0
176
     1
 90
        4
176
     1
 62
     7
176
     1
 62
   257
176
     1
 90
        1
176
     1
 90
        1
176
     1
 40
1.0
176
     1
 90
        8
176
     1
 62
   257
176
     1
 40
1.0
176
     1
 90
        1
176
     1
 90
        6
176
     1
 90
        2
176
     1
 62
     8
420
  7895160
176
     1
 90
        3
176
     1
 90
        0
176
     1
 90
        0
176
     1
290
     0
176
     1
 90
        5
176
     1
 40
0.0
176
     1
 90
        0
176
     1
290
     0
176
     1
290
     1
176
     1
290
     1
176
     1
290
     0
176
     1
290
     0
176
     1
290
     0
176
     1
290
     0
176
     1
290
     0
176
     1
290
     0
176
     1
 90
       50
176
     1
 40
0.0
176
     1
 40
1.0
176
     1
 90
        0
176
     1
 62
    18
420
        0
176
     1
 90
       50
176
     1
 90
        3
176
     1
 62
     5
420
      255
176
     1
290
     0
176
     1
 90
       50
176
     1
 90
       50
176
     1
 90
       50
176
     1
290
     0
176
     1
 90
       50
176
     1
 62
   256
176
     0
 40
1.0
176
     0
 90
        2
176
     1
  1
strokes_ogs.tif
176
     1
290
     0
176
     1
 40
1.0
176
     1
 40
1.0
176
     1
  0
VISUALSTYLE
  5
41
102
{ACAD_REACTORS
330
2A
102
}
330
2A
100
AcDbVisualStyle
  2
Shaded with edges
 70
    26
177
     3
291
     0
 70
    58
 90
        2
176
     1
 90
        2
176
     1
 90
        1
176
     1
 90
        2
176
     1
 40
0.6
176
     1
 40
30.0
176
     1
 62
     7
420
 16777215
176
     1
 90
        1
176
     1
 90
       10
176
     1
 62
     7
176
     1
 62
   257
176
     1
 90
        2
176
     1
 90
        1
176
     1
 40
1.0
176
     1
 90
        8
176
     1
 62
   257
176
     1
 40
1.0
176
     1
 90
        1
176
     1
 90
        6
176
     1
 90
        2
176
     1
 62
     7
176
     1
 90
        3
176
     1
 90
        0
176
     1
 90
        0
176
     1
290
     0
176
     1
 90
        5
176
     1
 40
0.0
176
     1
 90
        0
176
     1
290
     0
176
     1
290
     1
176
     1
290
     1
176
     1
290
     0
176
     1
290
     0
176
     1
290
     0
176
     1
290
     0
176
     1
290
     0
176
     1
290
     0
176
     1
 90
       50
176
     1
 40
0.0
176
     1
 40
1.0
176
     1
 90
        0
176
     1
 62
    18
420
        0
176
     1
 90
       50
176
     1
 90
        3
176
     1
 62
     5
420
      255
176
     1
290
     0
176
     1
 90
       50
176
     1
 90
       50
176
     1
 90
       50
176
     1
290
     0
176
     1
 90
       50
176
     1
 62
   256
176
     0
 40
1.0
176
     0
 90
        2
176
     1
  1
strokes_ogs.tif
176
     1
290
     0
176
     1
 40
1.0
176
     1
 40
1.0
176
     1
  0
VISUALSTYLE
  5
3E
102
{ACAD_REACTORS
330
2A
102
}
330
2A
100
AcDbVisualStyle
  2
Shades of Gray
 70
    23
177
     3
291
     0
 70
    58
 90
        2
176
     1
 90
        2
176
     1
 90
        3
176
     1
 90
        0
176
     1
 40
0.6
176
     1
 40
30.0
176
     1
 62
     7
420
 16777215
176
     1
 90
        2
176
     1
 90
        2
176
     1
 62
     7
176
     1
 62
     7
176
     1
 90
        1
176
     1
 90
        1
176
     1
 40
40.0
176
     1
 90
        8
176
     1
 62
     7
176
     1
 40
1.0
176
     1
 90
        1
176
     1
 90
        6
176
     1
 90
        2
176
     1
 62
     7
176
     1
 90
        3
176
     1
 90
        0
176
     1
 90
        0
176
     1
290
     0
176
     1
 90
        1
176
     1
 40
0.0
176
     1
 90
        0
176
     1
290
     0
176
     1
290
     1
176
     1
290
     1
176
     1
290
     0
176
     1
290
     0
176
     1
290
     0
176
     1
290
     0
176
     1
290
     0
176
     1
290
     0
176
     1
 90
       50
176
     1
 40
0.0
176
     1
 40
1.0
176
     1
 90
        0
176
     1
 62
    18
420
        0
176
     1
 90
       50
176
     1
 90
        3
176
     1
 62
     5
420
      255
176
     1
290
     0
176
     1
 90
       50
176
     1
 90
       50
176
     1
 90
       50
176
     1
290
     0
176
     1
 90
       50
176
     1
 62
   256
176
     0
 40
1.0
176
     0
 90
        2
176
     1
  1
strokes_ogs.tif
176
     1
290
     0
176
     1
 40
1.0
176
     1
 40
1.0
176
     1
  0
VISUALSTYLE
  5
3F
102
{ACAD_REACTORS
330
2A
102
}
330
2A
100
AcDbVisualStyle
  2
Sketchy
 70
    24
177
     3
291
     0
 70
    58
 90
        1
176
     1
 90
        2
176
     1
 90
        2
176
     1
 90
        0
176
     1
 40
0.6
176
     1
 40
30.0
176
     1
 62
     7
420
 16777215
176
     1
 90
        2
176
     1
 90
        2
176
     1
 62
     7
176
     1
 62
     7
176
     1
 90
        1
176
     1
 90
        1
176
     1
 40
40.0
176
     1
 90
       11
176
     1
 62
     7
176
     1
 40
1.0
176
     1
 90
        1
176
     1
 90
        6
176
     1
 90
        2
176
     1
 62
     7
176
     1
 90
        6
176
     1
 90
        0
176
     1
 90
        0
176
     1
290
     0
176
     1
 90
        1
176
     1
 40
0.0
176
     1
 90
        0
176
     1
290
     0
176
     1
290
     1
176
     1
290
     1
176
     1
290
     0
176
     1
290
     0
176
     1
290
     0
176
     1
290
     0
176
     1
290
     0
176
     1
290
     0
176
     1
 90
       50
176
     1
 40
0.0
176
     1
 40
1.0
176
     1
 90
        0
176
     1
 62
    18
420
        0
176
     1
 90
       50
176
     1
 90
        3
176
     1
 62
     5
420
      255
176
     1
290
     0
176
     1
 90
       50
176
     1
 90
       50
176
     1
 90
       50
176
     1
290
     0
176
     1
 90
       50
176
     1
 62
   256
176
     0
 40
1.0
176
     0
 90
        2
176
     1
  1
strokes_ogs.tif
176
     1
290
     0
176
     1
 40
1.0
176
     1
 40
1.0
176
     1
  0
VISUALSTYLE
  5
37
102
{ACAD_REACTORS
330
2A
102
}
330
2A
100
AcDbVisualStyle
  2
Thicken
 70
    13
177
     3
291
     1
 70
    58
 90
        2
176
     1
 90
        2
176
     1
 90
        0
176
     1
 90
        0
176
     1
 40
0.6
176
     1
 40
30.0
176
     1
 62
     7
420
 16777215
176
     1
 90
        1
176
     1
 90
        4
176
     1
 62
     7
176
     1
 62
   257
176
     1
 90
        1
176
     1
 90
        1
176
     1
 40
1.0
176
     1
 90
       12
176
     1
 62
     7
176
     1
 40
1.0
176
     1
 90
        1
176
     1
 90
        6
176
     1
 90
        2
176
     1
 62
     7
176
     1
 90
        5
176
     1
 90
        0
176
     1
 90
        0
176
     1
290
     0
176
     1
 90
        1
176
     1
 40
0.0
176
     1
 90
        0
176
     1
290
     0
176
     1
290
     1
176
     1
290
     1
176
     1
290
     0
176
     1
290
     0
176
     1
290
     0
176
     1
290
     0
176
     1
290
     0
176
     1
290
     0
176
     1
 90
       50
176
     1
 40
0.0
176
     1
 40
1.0
176
     1
 90
        0
176
     1
 62
    18
420
        0
176
     1
 90
       50
176
     1
 90
        3
176
     1
 62
     5
420
      255
176
     1
290
     0
176
     1
 90
       50
176
     1
 90
       50
176
     1
 90
       50
176
     1
290
     0
176
     1
 90
       50
176
     1
 62
   256
176
     0
 40
1.0
176
     0
 90
        2
176
     1
  1
strokes_ogs.tif
176
     1
290
     0
176
     1
 40
1.0
176
     1
 40
1.0
176
     1
  0
VISUALSTYLE
  5
30
102
{ACAD_REACTORS
330
2A
102
}
330
2A
100
AcDbVisualStyle
  2
Wireframe
 70
     5
177
     3
291
     0
 70
    58
 90
        0
176
     1
 90
        2
176
     1
 90
        0
176
     1
 90
        0
176
     1
 40
0.6
176
     1
 40
30.0
176
     1
 62
     7
420
 16777215
176
     1
 90
        1
176
     1
 90
        4
176
     1
 62
     7
176
     1
 62
   257
176
     1
 90
        1
176
     1
 90
        1
176
     1
 40
1.0
176
     1
 90
        0
176
     1
 62
   257
176
     1
 40
1.0
176
     1
 90
        1
176
     1
 90
        6
176
     1
 90
        2
176
     1
 62
     7
176
     1
 90
        3
176
     1
 90
        0
176
     1
 90
        0
176
     1
290
     0
176
     1
 90
        1
176
     1
 40
0.0
176
     1
 90
        0
176
     1
290
     0
176
     1
290
     1
176
     1
290
     1
176
     1
290
     0
176
     1
290
     0
176
     1
290
     0
176
     1
290
     0
176
     1
290
     0
176
     1
290
     0
176
     1
 90
       50
176
     1
 40
0.0
176
     1
 40
1.0
176
     1
 90
        0
176
     1
 62
    18
420
        0
176
     1
 90
       50
176
     1
 90
        3
176
     1
 62
     5
420
      255
176
     1
290
     0
176
     1
 90
       50
176
     1
 90
       50
176
     1
 90
       50
176
     1
290
     0
176
     1
 90
       50
176
     1
 62
   256
176
     0
 40
1.0
176
     0
 90
        2
176
     1
  1
strokes_ogs.tif
176
     1
290
     0
176
     1
 40
1.0
176
     1
 40
1.0
176
     1
  0
VISUALSTYLE
  5
40
102
{ACAD_REACTORS
330
2A
102
}
330
2A
100
AcDbVisualStyle
  2
X-Ray
 70
    25
177
     3
291
     0
 70
    58
 90
        2
176
     1
 90
        2
176
     1
 90
        1
176
     1
 90
        1
176
     1
 40
0.5
176
     1
 40
30.0
176
     1
 62
     7
420
 16777215
176
     1
 90
        1
176
     1
 90
        0
176
     1
 62
     7
176
     1
 62
   257
176
     1
 90
        1
176
     1
 90
        1
176
     1
 40
1.0
176
     1
 90
        8
176
     1
 62
     7
176
     1
 40
1.0
176
     1
 90
        1
176
     1
 90
        6
176
     1
 90
        2
176
     1
 62
     7
176
     1
 90
        3
176
     1
 90
        0
176
     1
 90
        0
176
     1
290
     0
176
     1
 90
       13
176
     1
 40
0.0
176
     1
 90
        0
176
     1
290
     0
176
     1
290
     1
176
     1
290
     1
176
     1
290
     0
176
     1
290
     0
176
     1
290
     0
176
     1
290
     0
176
     1
290
     0
176
     1
290
     0
176
     1
 90
       50
176
     1
 40
0.0
176
     1
 40
1.0
176
     1
 90
        0
176
     1
 62
    18
420
        0
176
     1
 90
       50
176
     1
 90
        3
176
     1
 62
     5
420
      255
176
     1
290
     0
176
     1
 90
       50
176
     1
 90
       50
176
     1
 90
       50
176
     1
290
     0
176
     1
 90
       50
176
     1
 62
   256
176
     0
 40
1.0
176
     0
 90
        2
176
     1
  1
strokes_ogs.tif
176
     1
290
     0
176
     1
 40
1.0
176
     1
 40
1.0
176
     1
  0
DICTIONARYVAR
  5
9D
102
{ACAD_REACTORS
330
9C
102
}
330
9C
100
DictionaryVariables
280
     0
  1
1:1
  0
DICTIONARYVAR
  5
A2
102
{ACAD_REACTORS
330
9C
102
}
330
9C
100
DictionaryVariables
280
     0
  1
Standard
  0
DICTIONARYVAR
  5
A1
102
{ACAD_REACTORS
330
9C
102
}
330
9C
100
DictionaryVariables
280
     0
  1
Standard
  0
DICTIONARY
  5
9E
330
5A
100
AcDbDictionary
280
     1
281
     1
  3
ACAD_ROUNDTRIP_2008_TABLESTYLE_CELLSTYLEMAP
360
9F
  0
CELLSTYLEMAP
  5
9F
102
{ACAD_REACTORS
330
9E
102
}
330
9E
100
AcDbCellStyleMap
 90
        3
300
CELLSTYLE
  1
TABLEFORMAT_BEGIN
 90
        5
170
     1
 91
        0
 92
    32768
 62
   257
 93
        1
300
CONTENTFORMAT
  1
CONTENTFORMAT_BEGIN
 90
        0
 91
        0
 92
        4
 93
        0
300

 40
0.0
140
1.0
 94
        5
 62
     0
340
11
144
0.25
309
CONTENTFORMAT_END
171
     1
301
MARGIN
  1
CELLMARGIN_BEGIN
 40
0.06
 40
0.06
 40
0.06
 40
0.06
 40
0.06
 40
0.06
309
CELLMARGIN_END
 94
        6
 95
        1
302
GRIDFORMAT
  1
GRIDFORMAT_BEGIN
 90
        0
 91
        1
 62
     0
 92
       -2
340
14
 93
        0
 40
0.045
309
GRIDFORMAT_END
 95
        2
302
GRIDFORMAT
  1
GRIDFORMAT_BEGIN
 90
        0
 91
        1
 62
     0
 92
       -2
340
14
 93
        0
 40
0.045
309
GRIDFORMAT_END
 95
        4
302
GRIDFORMAT
  1
GRIDFORMAT_BEGIN
 90
        0
 91
        1
 62
     0
 92
       -2
340
14
 93
        0
 40
0.045
309
GRIDFORMAT_END
 95
        8
302
GRIDFORMAT
  1
GRIDFORMAT_BEGIN
 90
        0
 91
        1
 62
     0
 92
       -2
340
14
 93
        0
 40
0.045
309
GRIDFORMAT_END
 95
       16
302
GRIDFORMAT
  1
GRIDFORMAT_BEGIN
 90
        0
 91
        1
 62
     0
 92
       -2
340
14
 93
        0
 40
0.045
309
GRIDFORMAT_END
 95
       32
302
GRIDFORMAT
  1
GRIDFORMAT_BEGIN
 90
        0
 91
        1
 62
     0
 92
       -2
340
14
 93
        0
 40
0.045
309
GRIDFORMAT_END
309
TABLEFORMAT_END
  1
CELLSTYLE_BEGIN
 90
        1
 91
        1
300
_TITLE
309
CELLSTYLE_END
300
CELLSTYLE
  1
TABLEFORMAT_BEGIN
 90
        5
170
     1
 91
        0
 92
        0
 62
   257
 93
        1
300
CONTENTFORMAT
  1
CONTENTFORMAT_BEGIN
 90
        0
 91
        0
 92
        4
 93
        0
300

 40
0.0
140
1.0
 94
        5
 62
     0
340
11
144
0.18
309
CONTENTFORMAT_END
171
     1
301
MARGIN
  1
CELLMARGIN_BEGIN
 40
0.06
 40
0.06
 40
0.06
 40
0.06
 40
0.06
 40
0.06
309
CELLMARGIN_END
 94
        6
 95
        1
302
GRIDFORMAT
  1
GRIDFORMAT_BEGIN
 90
        0
 91
        1
 62
     0
 92
       -2
340
14
 93
        0
 40
0.045
309
GRIDFORMAT_END
 95
        2
302
GRIDFORMAT
  1
GRIDFORMAT_BEGIN
 90
        0
 91
        1
 62
     0
 92
       -2
340
14
 93
        0
 40
0.045
309
GRIDFORMAT_END
 95
        4
302
GRIDFORMAT
  1
GRIDFORMAT_BEGIN
 90
        0
 91
        1
 62
     0
 92
       -2
340
14
 93
        0
 40
0.045
309
GRIDFORMAT_END
 95
        8
302
GRIDFORMAT
  1
GRIDFORMAT_BEGIN
 90
        0
 91
        1
 62
     0
 92
       -2
340
14
 93
        0
 40
0.045
309
GRIDFORMAT_END
 95
       16
302
GRIDFORMAT
  1
GRIDFORMAT_BEGIN
 90
        0
 91
        1
 62
     0
 92
       -2
340
14
 93
        0
 40
0.045
309
GRIDFORMAT_END
 95
       32
302
GRIDFORMAT
  1
GRIDFORMAT_BEGIN
 90
        0
 91
        1
 62
     0
 92
       -2
340
14
 93
        0
 40
0.045
309
GRIDFORMAT_END
309
TABLEFORMAT_END
  1
CELLSTYLE_BEGIN
 90
        2
 91
        1
300
_HEADER
309
CELLSTYLE_END
300
CELLSTYLE
  1
TABLEFORMAT_BEGIN
 90
        5
170
     1
 91
        0
 92
        0
 62
   257
 93
        1
300
CONTENTFORMAT
  1
CONTENTFORMAT_BEGIN
 90
        0
 91
        0
 92
        4
 93
        0
300

 40
0.0
140
1.0
 94
        2
 62
     0
340
11
144
0.18
309
CONTENTFORMAT_END
171
     1
301
MARGIN
  1
CELLMARGIN_BEGIN
 40
0.06
 40
0.06
 40
0.06
 40
0.06
 40
0.06
 40
0.06
309
CELLMARGIN_END
 94
        6
 95
        1
302
GRIDFORMAT
  1
GRIDFORMAT_BEGIN
 90
        0
 91
        1
 62
     0
 92
       -2
340
14
 93
        0
 40
0.045
309
GRIDFORMAT_END
 95
        2
302
GRIDFORMAT
  1
GRIDFORMAT_BEGIN
 90
        0
 91
        1
 62
     0
 92
       -2
340
14
 93
        0
 40
0.045
309
GRIDFORMAT_END
 95
        4
302
GRIDFORMAT
  1
GRIDFORMAT_BEGIN
 90
        0
 91
        1
 62
     0
 92
       -2
340
14
 93
        0
 40
0.045
309
GRIDFORMAT_END
 95
        8
302
GRIDFORMAT
  1
GRIDFORMAT_BEGIN
 90
        0
 91
        1
 62
     0
 92
       -2
340
14
 93
        0
 40
0.045
309
GRIDFORMAT_END
 95
       16
302
GRIDFORMAT
  1
GRIDFORMAT_BEGIN
 90
        0
 91
        1
 62
     0
 92
       -2
340
14
 93
        0
 40
0.045
309
GRIDFORMAT_END
 95
       32
302
GRIDFORMAT
  1
GRIDFORMAT_BEGIN
 90
        0
 91
        1
 62
     0
 92
       -2
340
14
 93
        0
 40
0.045
309
GRIDFORMAT_END
309
TABLEFORMAT_END
  1
CELLSTYLE_BEGIN
 90
        3
 91
        2
300
_DATA
309
CELLSTYLE_END
  0
ENDSEC
  0
EOF
