  0
SECTION
  2
HEADER
  9
$ACADVER
  1
AC1032
  9
$ACADMAINTVER
 90
       55
  9
$DWGCODEPAGE
  3
UNDEFINED
  9
$LASTSAVEDBY
  1
Administrator
  9
$REQUIREDVERSIONS
160
                 0
  9
$INSBASE
 10
0.0
 20
0.0
 30
0.0
  9
$EXTMIN
 10
-65.09
 20
-75.09
 30
0.0
  9
$EXTMAX
 10
65.09
 20
75.09
 30
0.0
  9
$LIMMIN
 10
0.0
 20
0.0
  9
$LIMMAX
 10
12.0
 20
9.0
  9
$ORTHOMODE
 70
     0
  9
$REGENMODE
 70
     1
  9
$FILLMODE
 70
     1
  9
$QTEXTMODE
 70
     0
  9
$MIRRTEXT
 70
     1
  9
$LTSCALE
 40
1.0
  9
$ATTMODE
 70
     1
  9
$TEXTSIZE
 40
0.2
  9
$TRACEWID
 40
0.05
  9
$TEXTSTYLE
  7
Standard
  9
$CLAYER
  8
0
  9
$CELTYPE
  6
ByLayer
  9
$CECOLOR
 62
   256
  9
$CELTSCALE
 40
1.0
  9
$DISPSILH
 70
     0
  9
$DIMSCALE
 40
1.0
  9
$DIMASZ
 40
0.18
  9
$DIMEXO
 40
0.0625
  9
$DIMDLI
 40
0.38
  9
$DIMRND
 40
0.0
  9
$DIMDLE
 40
0.0
  9
$DIMEXE
 40
0.18
  9
$DIMTP
 40
0.0
  9
$DIMTM
 40
0.0
  9
$DIMTXT
 40
0.18
  9
$DIMCEN
 40
0.09
  9
$DIMTSZ
 40
0.0
  9
$DIMTOL
 70
     0
  9
$DIMLIM
 70
     0
  9
$DIMTIH
 70
     1
  9
$DIMTOH
 70
     1
  9
$DIMSE1
 70
     0
  9
$DIMSE2
 70
     0
  9
$DIMTAD
 70
     0
  9
$DIMZIN
 70
     0
  9
$DIMBLK
  1

  9
$DIMASO
 70
     1
  9
$DIMSHO
 70
     1
  9
$DIMPOST
  1

  9
$DIMAPOST
  1

  9
$DIMALT
 70
     0
  9
$DIMALTD
 70
     2
  9
$DIMALTF
 40
25.4
  9
$DIMLFAC
 40
1.0
  9
$DIMTOFL
 70
     0
  9
$DIMTVP
 40
0.0
  9
$DIMTIX
 70
     0
  9
$DIMSOXD
 70
     0
  9
$DIMSAH
 70
     0
  9
$DIMBLK1
  1

  9
$DIMBLK2
  1

  9
$DIMSTYLE
  2
Standard
  9
$DIMCLRD
 70
     0
  9
$DIMCLRE
 70
     0
  9
$DIMCLRT
 70
     0
  9
$DIMTFAC
 40
1.0
  9
$DIMGAP
 40
0.09
  9
$DIMJUST
 70
     0
  9
$DIMSD1
 70
     0
  9
$DIMSD2
 70
     0
  9
$DIMTOLJ
 70
     1
  9
$DIMTZIN
 70
     0
  9
$DIMALTZ
 70
     0
  9
$DIMALTTZ
 70
     0
  9
$DIMUPT
 70
     0
  9
$DIMDEC
 70
     4
  9
$DIMTDEC
 70
     4
  9
$DIMALTU
 70
     2
  9
$DIMALTTD
 70
     2
  9
$DIMTXSTY
  7
Standard
  9
$DIMAUNIT
 70
     0
  9
$DIMADEC
 70
     0
  9
$DIMALTRND
 40
0.0
  9
$DIMAZIN
 70
     0
  9
$DIMDSEP
 70
    46
  9
$DIMATFIT
 70
     3
  9
$DIMFRAC
 70
     0
  9
$DIMLDRBLK
  1

  9
$DIMLUNIT
 70
     2
  9
$DIMLWD
 70
    -2
  9
$DIMLWE
 70
    -2
  9
$DIMTMOVE
 70
     0
  9
$DIMFXL
 40
1.0
  9
$DIMFXLON
 70
     0
  9
$DIMJOGANG
 40
0.7853981633974483
  9
$DIMTFILL
 70
     0
  9
$DIMTFILLCLR
 70
     0
  9
$DIMARCSYM
 70
     0
  9
$DIMLTYPE
  6

  9
$DIMLTEX1
  6

  9
$DIMLTEX2
  6

  9
$DIMTXTDIRECTION
 70
     0
  9
$LUNITS
 70
     2
  9
$LUPREC
 70
     4
  9
$SKETCHINC
 40
0.1
  9
$FILLETRAD
 40
0.0
  9
$AUNITS
 70
     0
  9
$AUPREC
 70
     0
  9
$MENU
  1
.
  9
$ELEVATION
 40
0.0
  9
$PELEVATION
 40
0.0
  9
$THICKNESS
 40
0.0
  9
$LIMCHECK
 70
     0
  9
$CHAMFERA
 40
0.0
  9
$CHAMFERB
 40
0.0
  9
$CHAMFERC
 40
0.0
  9
$CHAMFERD
 40
0.0
  9
$SKPOLY
 70
     0
  9
$TDCREATE
 40
2460370.911020834
  9
$TDUCREATE
 40
2460370.7651875
  9
$TDUPDATE
 40
2460370.911021065
  9
$TDUUPDATE
 40
2460370.765187731
  9
$TDINDWG
 40
0.0000000116
  9
$TDUSRTIMER
 40
0.0000000116
  9
$USRTIMER
 70
     1
  9
$ANGBASE
 50
0.0
  9
$ANGDIR
 70
     0
  9
$PDMODE
 70
     0
  9
$PDSIZE
 40
0.0
  9
$PLINEWID
 40
0.0
  9
$SPLFRAME
 70
     0
  9
$SPLINETYPE
 70
     6
  9
$SPLINESEGS
 70
     8
  9
$HANDSEED
  5
A0
  9
$SURFTAB1
 70
     6
  9
$SURFTAB2
 70
     6
  9
$SURFTYPE
 70
     6
  9
$SURFU
 70
     6
  9
$SURFV
 70
     6
  9
$UCSBASE
  2

  9
$UCSNAME
  2

  9
$UCSORG
 10
0.0
 20
0.0
 30
0.0
  9
$UCSXDIR
 10
1.0
 20
0.0
 30
0.0
  9
$UCSYDIR
 10
0.0
 20
1.0
 30
0.0
  9
$UCSORTHOREF
  2

  9
$UCSORTHOVIEW
 70
     0
  9
$UCSORGTOP
 10
0.0
 20
0.0
 30
0.0
  9
$UCSORGBOTTOM
 10
0.0
 20
0.0
 30
0.0
  9
$UCSORGLEFT
 10
0.0
 20
0.0
 30
0.0
  9
$UCSORGRIGHT
 10
0.0
 20
0.0
 30
0.0
  9
$UCSORGFRONT
 10
0.0
 20
0.0
 30
0.0
  9
$UCSORGBACK
 10
0.0
 20
0.0
 30
0.0
  9
$PUCSBASE
  2

  9
$PUCSNAME
  2

  9
$PUCSORG
 10
0.0
 20
0.0
 30
0.0
  9
$PUCSXDIR
 10
1.0
 20
0.0
 30
0.0
  9
$PUCSYDIR
 10
0.0
 20
1.0
 30
0.0
  9
$PUCSORTHOREF
  2

  9
$PUCSORTHOVIEW
 70
     0
  9
$PUCSORGTOP
 10
0.0
 20
0.0
 30
0.0
  9
$PUCSORGBOTTOM
 10
0.0
 20
0.0
 30
0.0
  9
$PUCSORGLEFT
 10
0.0
 20
0.0
 30
0.0
  9
$PUCSORGRIGHT
 10
0.0
 20
0.0
 30
0.0
  9
$PUCSORGFRONT
 10
0.0
 20
0.0
 30
0.0
  9
$PUCSORGBACK
 10
0.0
 20
0.0
 30
0.0
  9
$USERI1
 70
     0
  9
$USERI2
 70
     0
  9
$USERI3
 70
     0
  9
$USERI4
 70
     0
  9
$USERI5
 70
     0
  9
$USERR1
 40
0.0
  9
$USERR2
 40
0.0
  9
$USERR3
 40
0.0
  9
$USERR4
 40
0.0
  9
$USERR5
 40
0.0
  9
$WORLDVIEW
 70
     1
  9
$SHADEDGE
 70
     3
  9
$SHADEDIF
 70
    70
  9
$TILEMODE
 70
     1
  9
$MAXACTVP
 70
    64
  9
$PINSBASE
 10
0.0
 20
0.0
 30
0.0
  9
$PLIMCHECK
 70
     0
  9
$PEXTMIN
 10
1.000000000000000E+20
 20
1.000000000000000E+20
 30
1.000000000000000E+20
  9
$PEXTMAX
 10
-1.000000000000000E+20
 20
-1.000000000000000E+20
 30
-1.000000000000000E+20
  9
$PLIMMIN
 10
0.0
 20
0.0
  9
$PLIMMAX
 10
12.0
 20
9.0
  9
$UNITMODE
 70
     0
  9
$VISRETAIN
 70
     1
  9
$PLINEGEN
 70
     0
  9
$PSLTSCALE
 70
     1
  9
$TREEDEPTH
 70
  3020
  9
$CMLSTYLE
  2
Standard
  9
$CMLJUST
 70
     0
  9
$CMLSCALE
 40
1.0
  9
$PROXYGRAPHICS
 70
     1
  9
$MEASUREMENT
 70
     0
  9
$CELWEIGHT
370
    -1
  9
$ENDCAPS
280
     0
  9
$JOINSTYLE
280
     0
  9
$LWDISPLAY
290
     0
  9
$INSUNITS
 70
     4
  9
$HYPERLINKBASE
  1

  9
$STYLESHEET
  1

  9
$XEDIT
290
     1
  9
$CEPSNTYPE
380
     0
  9
$PSTYLEMODE
290
     1
  9
$FINGERPRINTGUID
  2
{cc5770f3-6cd5-43b9-9213-cc17363e1f22}
  9
$VERSIONGUID
  2
{FAEB1C32-E019-11D5-929B-00C0DF256EC4}
  9
$EXTNAMES
290
     1
  9
$PSVPSCALE
 40
0.0
  9
$OLESTARTUP
290
     0
  9
$SORTENTS
280
   127
  9
$INDEXCTL
280
     0
  9
$HIDETEXT
280
     1
  9
$XCLIPFRAME
280
     2
  9
$HALOGAP
280
     0
  9
$OBSCOLOR
 70
   257
  9
$OBSLTYPE
280
     0
  9
$INTERSECTIONDISPLAY
280
     0
  9
$INTERSECTIONCOLOR
 70
   257
  9
$DIMASSOC
280
     2
  9
$PROJECTNAME
  1

  9
$CAMERADISPLAY
290
     0
  9
$LENSLENGTH
 40
50.0
  9
$CAMERAHEIGHT
 40
0.0
  9
$STEPSPERSEC
 40
2.0
  9
$STEPSIZE
 40
6.0
  9
$3DDWFPREC
 40
2.0
  9
$PSOLWIDTH
 40
0.25
  9
$PSOLHEIGHT
 40
4.0
  9
$LOFTANG1
 40
1.570796326794897
  9
$LOFTANG2
 40
1.570796326794897
  9
$LOFTMAG1
 40
0.0
  9
$LOFTMAG2
 40
0.0
  9
$LOFTPARAM
 70
     7
  9
$LOFTNORMALS
280
     1
  9
$LATITUDE
 40
37.795
  9
$LONGITUDE
 40
-122.394
  9
$NORTHDIRECTION
 40
0.0
  9
$TIMEZONE
 70
 -8000
  9
$LIGHTGLYPHDISPLAY
280
     1
  9
$TILEMODELIGHTSYNCH
280
     1
  9
$CMATERIAL
347
44
  9
$SOLIDHIST
280
     0
  9
$SHOWHIST
280
     1
  9
$DWFFRAME
280
     2
  9
$DGNFRAME
280
     2
  9
$REALWORLDSCALE
290
     1
  9
$INTERFERECOLOR
 62
   256
  9
$CSHADOW
280
     0
  9
$SHADOWPLANELOCATION
 40
0.0
  0
ENDSEC
  0
SECTION
  2
CLASSES
  0
CLASS
  1
ACDBDICTIONARYWDFLT
  2
AcDbDictionaryWithDefault
  3
ObjectDBX Classes
 90
        0
 91
        3
280
     0
281
     0
  0
CLASS
  1
VISUALSTYLE
  2
AcDbVisualStyle
  3
ObjectDBX Classes
 90
     4095
 91
        3
280
     0
281
     0
  0
CLASS
  1
MATERIAL
  2
AcDbMaterial
  3
ObjectDBX Classes
 90
     1153
 91
        3
280
     0
281
     0
  0
CLASS
  1
SCALE
  2
AcDbScale
  3
ObjectDBX Classes
 90
     1153
 91
        3
280
     0
281
     0
  0
CLASS
  1
TABLESTYLE
  2
AcDbTableStyle
  3
ObjectDBX Classes
 90
     4095
 91
        3
280
     0
281
     0
  0
CLASS
  1
MLEADERSTYLE
  2
AcDbMLeaderStyle
  3
ACDB_MLEADERSTYLE_CLASS
 90
     4095
 91
        3
280
     0
281
     0
  0
CLASS
  1
SUN
  2
AcDbSun
  3
SCENEOE
 90
     1153
 91
        3
280
     0
281
     0
  0
CLASS
  1
DICTIONARYVAR
  2
AcDbDictionaryVar
  3
ObjectDBX Classes
 90
        0
 91
        3
280
     0
281
     0
  0
CLASS
  1
CELLSTYLEMAP
  2
AcDbCellStyleMap
  3
ObjectDBX Classes
 90
     1152
 91
        3
280
     0
281
     0
  0
ENDSEC
  0
SECTION
  2
TABLES
  0
TABLE
  2
VPORT
  5
8
330
0
100
AcDbSymbolTable
 70
     1
  0
VPORT
  5
29
330
8
100
AcDbSymbolTableRecord
100
AcDbViewportTableRecord
  2
*Active
 70
     0
 10
0.0
 20
0.0
 11
1.0
 21
1.0
 12
10.42990654205607
 22
4.5
 13
0.0
 23
0.0
 14
0.5
 24
0.5
 15
0.5
 25
0.5
 16
0.0
 26
0.0
 36
1.0
 17
0.0
 27
0.0
 37
0.0
 40
9.0
 41
1.972972972850329
 42
50.0
 43
0.0
 44
0.0
 50
0.0
 51
0.0
 71
     0
 72
   100
 73
     1
 74
     3
 75
     0
 76
     0
 77
     0
 78
     0
281
     0
 65
     1
110
0.0
120
0.0
130
0.0
111
1.0
121
0.0
131
0.0
112
0.0
122
1.0
132
0.0
 79
     0
146
0.0
348
2F
 60
     3
 61
     5
292
     1
282
     1
141
0.0
142
0.0
 63
   250
361
5D
  0
ENDTAB
  0
TABLE
  2
LTYPE
  5
5
330
0
100
AcDbSymbolTable
 70
     1
  0
LTYPE
  5
14
330
5
100
AcDbSymbolTableRecord
100
AcDbLinetypeTableRecord
  2
ByBlock
 70
     0
  3

 72
    65
 73
     0
 40
0.0
  0
LTYPE
  5
15
330
5
100
AcDbSymbolTableRecord
100
AcDbLinetypeTableRecord
  2
ByLayer
 70
     0
  3

 72
    65
 73
     0
 40
0.0
  0
LTYPE
  5
16
330
5
100
AcDbSymbolTableRecord
100
AcDbLinetypeTableRecord
  2
Continuous
 70
     0
  3
Solid line
 72
    65
 73
     0
 40
0.0
  0
ENDTAB
  0
TABLE
  2
LAYER
  5
2
330
0
100
AcDbSymbolTable
 70
     2
  0
LAYER
  5
10
330
2
100
AcDbSymbolTableRecord
100
AcDbLayerTableRecord
  2
0
 70
     0
 62
     7
  6
Continuous
370
    -3
390
F
347
46
348
0
  0
LAYER
  5
5F
330
2
100
AcDbSymbolTableRecord
100
AcDbLayerTableRecord
  2
Layer 1
 70
     0
 62
     7
  6
Continuous
370
    -3
390
F
347
46
348
0
  0
ENDTAB
  0
TABLE
  2
STYLE
  5
3
330
0
100
AcDbSymbolTable
 70
     1
  0
STYLE
  5
11
330
3
100
AcDbSymbolTableRecord
100
AcDbTextStyleTableRecord
  2
Standard
 70
     0
 40
0.0
 41
1.0
 50
0.0
 71
     0
 42
0.2
  3
txt
  4

  0
ENDTAB
  0
TABLE
  2
VIEW
  5
6
330
0
100
AcDbSymbolTable
 70
     0
  0
ENDTAB
  0
TABLE
  2
UCS
  5
7
330
0
100
AcDbSymbolTable
 70
     0
  0
ENDTAB
  0
TABLE
  2
APPID
  5
9
330
0
100
AcDbSymbolTable
 70
     2
  0
APPID
  5
12
330
9
100
AcDbSymbolTableRecord
100
AcDbRegAppTableRecord
  2
ACAD
 70
     0
  0
APPID
  5
5E
330
9
100
AcDbSymbolTableRecord
100
AcDbRegAppTableRecord
  2
ODA
 70
     0
  0
ENDTAB
  0
TABLE
  2
DIMSTYLE
  5
A
330
0
100
AcDbSymbolTable
 70
     1
100
AcDbDimStyleTable
  0
DIMSTYLE
105
27
330
A
100
AcDbSymbolTableRecord
100
AcDbDimStyleTableRecord
  2
Standard
 70
     0
178
     0
340
11
  0
ENDTAB
  0
TABLE
  2
BLOCK_RECORD
  5
1
330
0
100
AcDbSymbolTable
 70
     1
  0
BLOCK_RECORD
  5
1F
330
1
100
AcDbSymbolTableRecord
100
AcDbBlockTableRecord
  2
*Model_Space
340
22
 70
     0
280
     1
281
     0
  0
BLOCK_RECORD
  5
1B
330
1
100
AcDbSymbolTableRecord
100
AcDbBlockTableRecord
  2
*Paper_Space
340
1E
 70
     0
280
     1
281
     0
  0
BLOCK_RECORD
  5
23
330
1
100
AcDbSymbolTableRecord
100
AcDbBlockTableRecord
  2
*Paper_Space0
340
26
 70
     0
280
     1
281
     0
  0
ENDTAB
  0
ENDSEC
  0
SECTION
  2
BLOCKS
  0
BLOCK
  5
20
330
1F
100
AcDbEntity
  8
0
100
AcDbBlockBegin
  2
*Model_Space
 70
     0
 10
0.0
 20
0.0
 30
0.0
  3
*Model_Space
  1

  0
ENDBLK
  5
21
330
1F
100
AcDbEntity
  8
0
100
AcDbBlockEnd
  0
BLOCK
  5
1C
330
1B
100
AcDbEntity
 67
     1
  8
0
100
AcDbBlockBegin
  2
*Paper_Space
 70
     0
 10
0.0
 20
0.0
 30
0.0
  3
*Paper_Space
  1

  0
ENDBLK
  5
1D
330
1B
100
AcDbEntity
 67
     1
  8
0
100
AcDbBlockEnd
  0
BLOCK
  5
24
330
23
100
AcDbEntity
  8
0
100
AcDbBlockBegin
  2
*Paper_Space0
 70
     0
 10
0.0
 20
0.0
 30
0.0
  3
*Paper_Space0
  1

  0
ENDBLK
  5
25
330
23
100
AcDbEntity
  8
0
100
AcDbBlockEnd
  0
ENDSEC
  0
SECTION
  2
ENTITIES
  0
SPLINE
  5
60
330
1F
100
AcDbEntity
  8
Layer 1
 62
   250
370
    18
100
AcDbSpline
210
0.0
220
0.0
230
1.0
 70
    11
 71
     3
 72
    23
 73
    19
 74
     0
 42
0.0000000001
 43
0.0000000001
 40
0.0
 40
0.0
 40
0.0
 40
0.0
 40
0.1666666666666667
 40
0.1666666666666667
 40
0.1666666666666667
 40
0.3333333333333333
 40
0.3333333333333333
 40
0.3333333333333333
 40
0.5
 40
0.5
 40
0.5
 40
0.6666666666666666
 40
0.6666666666666666
 40
0.6666666666666666
 40
0.8333333333333333
 40
0.8333333333333333
 40
0.8333333333333333
 40
1.0
 40
1.0
 40
1.0
 40
1.0
 10
-26.6793
 20
-36.7093
 30
0.0
 10
-26.6793
 20
-38.6713
 30
0.0
 10
-26.3409
 20
-39.6522
 30
0.0
 10
-25.6623
 20
-39.6522
 30
0.0
 10
-25.296
 20
-39.6522
 30
0.0
 10
-25.0304
 20
-39.436
 30
0.0
 10
-24.8677
 20
-39.0029
 30
0.0
 10
-24.7051
 20
-38.5697
 30
0.0
 10
-24.6241
 20
-37.88
 30
0.0
 10
-24.6241
 20
-36.9374
 30
0.0
 10
-24.6241
 20
-35.897
 30
0.0
 10
-24.7051
 20
-35.1391
 30
0.0
 10
-24.8677
 20
-34.665
 30
0.0
 10
-25.0304
 20
-34.1908
 30
0.0
 10
-25.3
 20
-33.9532
 30
0.0
 10
-25.6756
 20
-33.9532
 30
0.0
 10
-26.3455
 20
-33.9532
 30
0.0
 10
-26.6793
 20
-34.8719
 30
0.0
 10
-26.6793
 20
-36.7093
 30
0.0
  0
SPLINE
  5
61
330
1F
100
AcDbEntity
  8
Layer 1
 62
   250
370
    18
100
AcDbSpline
210
0.0
220
0.0
230
1.0
 70
    11
 71
     3
 72
    32
 73
    28
 74
     0
 42
0.0000000001
 43
0.0000000001
 40
0.0
 40
0.0
 40
0.0
 40
0.0
 40
0.1111111111111111
 40
0.1111111111111111
 40
0.1111111111111111
 40
0.2222222222222222
 40
0.2222222222222222
 40
0.2222222222222222
 40
0.3333333333333333
 40
0.3333333333333333
 40
0.3333333333333333
 40
0.4444444444444444
 40
0.4444444444444444
 40
0.4444444444444444
 40
0.5555555555555556
 40
0.5555555555555556
 40
0.5555555555555556
 40
0.6666666666666666
 40
0.6666666666666666
 40
0.6666666666666666
 40
0.7777777777777777
 40
0.7777777777777777
 40
0.7777777777777777
 40
0.8888888888888888
 40
0.8888888888888888
 40
0.8888888888888888
 40
1.0
 40
1.0
 40
1.0
 40
1.0
 10
-25.6485
 20
-31.9662
 30
0.0
 10
-24.6537
 20
-31.9662
 30
0.0
 10
-23.8985
 20
-32.3763
 30
0.0
 10
-23.3831
 20
-33.1961
 30
0.0
 10
-22.8671
 20
-34.0173
 30
0.0
 10
-22.6094
 20
-35.2252
 30
0.0
 10
-22.6094
 20
-36.8206
 30
0.0
 10
-22.6094
 20
-38.3742
 30
0.0
 10
-22.8718
 20
-39.5631
 30
0.0
 10
-23.3967
 20
-40.3881
 30
0.0
 10
-23.9213
 20
-41.2139
 30
0.0
 10
-24.6717
 20
-41.6258
 30
0.0
 10
-25.6485
 20
-41.6258
 30
0.0
 10
-26.5742
 20
-41.6258
 30
0.0
 10
-27.3115
 20
-41.2397
 30
0.0
 10
-27.8589
 20
-40.4676
 30
0.0
 10
-28.4061
 20
-39.6953
 30
0.0
 10
-28.6807
 20
-38.4472
 30
0.0
 10
-28.6807
 20
-36.7237
 30
0.0
 10
-28.6807
 20
-35.2111
 30
0.0
 10
-28.4164
 20
-34.0404
 30
0.0
 10
-27.8896
 20
-33.2097
 30
0.0
 10
-27.3631
 20
-32.3812
 30
0.0
 10
-26.6247
 20
-31.9662
 30
0.0
 10
-25.6756
 20
-31.9662
 30
0.0
 10
-25.6756
 20
-31.9662
 30
0.0
 10
-25.6485
 20
-31.9662
 30
0.0
 10
-25.6485
 20
-31.9662
 30
0.0
  0
SPLINE
  5
62
330
1F
100
AcDbEntity
  8
Layer 1
 62
   250
370
    18
100
AcDbSpline
210
0.0
220
0.0
230
1.0
 70
    11
 71
     3
 72
    29
 73
    25
 74
     0
 42
0.0000000001
 43
0.0000000001
 40
0.0
 40
0.0
 40
0.0
 40
0.0
 40
0.125
 40
0.125
 40
0.125
 40
0.25
 40
0.25
 40
0.25
 40
0.375
 40
0.375
 40
0.375
 40
0.5
 40
0.5
 40
0.5
 40
0.625
 40
0.625
 40
0.625
 40
0.75
 40
0.75
 40
0.75
 40
0.875
 40
0.875
 40
0.875
 40
1.0
 40
1.0
 40
1.0
 40
1.0
 10
-17.7485
 20
-35.0598
 30
0.0
 10
-17.7485
 20
-34.6612
 30
0.0
 10
-17.8324
 20
-34.3421
 30
0.0
 10
-17.9997
 20
-34.1018
 30
0.0
 10
-18.167
 20
-33.8612
 30
0.0
 10
-18.3881
 20
-33.7406
 30
0.0
 10
-18.6631
 20
-33.7406
 30
0.0
 10
-18.9423
 20
-33.7406
 30
0.0
 10
-19.1767
 20
-33.8623
 30
0.0
 10
-19.364
 20
-34.1045
 30
0.0
 10
-19.5528
 20
-34.3481
 30
0.0
 10
-19.6467
 20
-34.6517
 30
0.0
 10
-19.6467
 20
-35.0185
 30
0.0
 10
-19.6467
 20
-35.4498
 30
0.0
 10
-19.5579
 20
-35.7914
 30
0.0
 10
-19.3814
 20
-36.0475
 30
0.0
 10
-19.2052
 20
-36.3011
 30
0.0
 10
-18.97
 20
-36.4277
 30
0.0
 10
-18.677
 20
-36.4277
 30
0.0
 10
-18.4253
 20
-36.4277
 30
0.0
 10
-18.2067
 20
-36.2954
 30
0.0
 10
-18.0239
 20
-36.029
 30
0.0
 10
-17.8403
 20
-35.7637
 30
0.0
 10
-17.7485
 20
-35.44
 30
0.0
 10
-17.7485
 20
-35.0598
 30
0.0
  0
SPLINE
  5
63
330
1F
100
AcDbEntity
  8
Layer 1
 62
   250
370
    18
100
AcDbSpline
210
0.0
220
0.0
230
1.0
 70
    11
 71
     3
 72
    44
 73
    40
 74
     0
 42
0.0000000001
 43
0.0000000001
 40
0.0
 40
0.0
 40
0.0
 40
0.0
 40
0.0769230769230769
 40
0.0769230769230769
 40
0.0769230769230769
 40
0.1538461538461539
 40
0.1538461538461539
 40
0.1538461538461539
 40
0.2307692307692308
 40
0.2307692307692308
 40
0.2307692307692308
 40
0.3076923076923077
 40
0.3076923076923077
 40
0.3076923076923077
 40
0.3846153846153846
 40
0.3846153846153846
 40
0.3846153846153846
 40
0.4615384615384616
 40
0.4615384615384616
 40
0.4615384615384616
 40
0.5384615384615385
 40
0.5384615384615385
 40
0.5384615384615385
 40
0.6153846153846154
 40
0.6153846153846154
 40
0.6153846153846154
 40
0.6923076923076923
 40
0.6923076923076923
 40
0.6923076923076923
 40
0.7692307692307693
 40
0.7692307692307693
 40
0.7692307692307693
 40
0.8461538461538463
 40
0.8461538461538463
 40
0.8461538461538463
 40
0.9230769230769231
 40
0.9230769230769231
 40
0.9230769230769231
 40
1.0
 40
1.0
 40
1.0
 40
1.0
 10
-19.1305
 20
-39.2739
 30
0.0
 10
-19.1305
 20
-39.2739
 30
0.0
 10
-18.5396
 20
-37.8927
 30
0.0
 10
-18.5396
 20
-37.8927
 30
0.0
 10
-18.8554
 20
-37.9886
 30
0.0
 10
-19.1305
 20
-38.0364
 30
0.0
 10
-19.364
 20
-38.0364
 30
0.0
 10
-20.038
 20
-38.0364
 30
0.0
 10
-20.5828
 20
-37.7719
 30
0.0
 10
-20.9977
 20
-37.2432
 30
0.0
 10
-21.4119
 20
-36.7131
 30
0.0
 10
-21.6191
 20
-36.016
 30
0.0
 10
-21.6191
 20
-35.1489
 30
0.0
 10
-21.6191
 20
-34.1908
 30
0.0
 10
-21.3499
 20
-33.4185
 30
0.0
 10
-20.8114
 20
-32.8325
 30
0.0
 10
-20.2727
 20
-32.2451
 30
0.0
 10
-19.5666
 20
-31.9532
 30
0.0
 10
-18.6908
 20
-31.9532
 30
0.0
 10
-17.7969
 20
-31.9532
 30
0.0
 10
-17.0824
 20
-32.2364
 30
0.0
 10
-16.5488
 20
-32.8043
 30
0.0
 10
-16.0152
 20
-33.3724
 30
0.0
 10
-15.748
 20
-34.1371
 30
0.0
 10
-15.748
 20
-35.0943
 30
0.0
 10
-15.748
 20
-35.4517
 30
0.0
 10
-15.8085
 20
-35.897
 30
0.0
 10
-15.9299
 20
-36.4277
 30
0.0
 10
-16.0518
 20
-36.9594
 30
0.0
 10
-16.2058
 20
-37.4642
 30
0.0
 10
-16.391
 20
-37.9432
 30
0.0
 10
-16.5765
 20
-38.4233
 30
0.0
 10
-17.1001
 20
-39.5699
 30
0.0
 10
-17.9614
 20
-41.3844
 30
0.0
 10
-17.9614
 20
-41.3844
 30
0.0
 10
-20.1412
 20
-41.3844
 30
0.0
 10
-20.1412
 20
-41.3844
 30
0.0
 10
-20.1412
 20
-41.3844
 30
0.0
 10
-19.1305
 20
-39.2739
 30
0.0
 10
-19.1305
 20
-39.2739
 30
0.0
  0
SPLINE
  5
64
330
1F
100
AcDbEntity
  8
Layer 1
 62
   250
370
    18
100
AcDbSpline
210
0.0
220
0.0
230
1.0
 70
    11
 71
     3
 72
    23
 73
    19
 74
     0
 42
0.0000000001
 43
0.0000000001
 40
0.0
 40
0.0
 40
0.0
 40
0.0
 40
0.1666666666666667
 40
0.1666666666666667
 40
0.1666666666666667
 40
0.3333333333333333
 40
0.3333333333333333
 40
0.3333333333333333
 40
0.5
 40
0.5
 40
0.5
 40
0.6666666666666666
 40
0.6666666666666666
 40
0.6666666666666666
 40
0.8333333333333333
 40
0.8333333333333333
 40
0.8333333333333333
 40
1.0
 40
1.0
 40
1.0
 40
1.0
 10
-13.802
 20
-32.2068
 30
0.0
 10
-13.802
 20
-32.2068
 30
0.0
 10
-10.6465
 20
-32.2068
 30
0.0
 10
-10.6465
 20
-32.2068
 30
0.0
 10
-10.6465
 20
-32.2068
 30
0.0
 10
-10.6465
 20
-41.3844
 30
0.0
 10
-10.6465
 20
-41.3844
 30
0.0
 10
-10.6465
 20
-41.3844
 30
0.0
 10
-12.6329
 20
-41.3844
 30
0.0
 10
-12.6329
 20
-41.3844
 30
0.0
 10
-12.6329
 20
-41.3844
 30
0.0
 10
-12.6329
 20
-34.1325
 30
0.0
 10
-12.6329
 20
-34.1325
 30
0.0
 10
-12.6329
 20
-34.1325
 30
0.0
 10
-13.802
 20
-34.1325
 30
0.0
 10
-13.802
 20
-34.1325
 30
0.0
 10
-13.802
 20
-34.1325
 30
0.0
 10
-13.802
 20
-32.2068
 30
0.0
 10
-13.802
 20
-32.2068
 30
0.0
  0
SPLINE
  5
65
330
1F
100
AcDbEntity
  8
Layer 1
 62
   250
370
    18
100
AcDbSpline
210
0.0
220
0.0
230
1.0
 70
    11
 71
     3
 72
    23
 73
    19
 74
     0
 42
0.0000000001
 43
0.0000000001
 40
0.0
 40
0.0
 40
0.0
 40
0.0
 40
0.1666666666666667
 40
0.1666666666666667
 40
0.1666666666666667
 40
0.3333333333333333
 40
0.3333333333333333
 40
0.3333333333333333
 40
0.5
 40
0.5
 40
0.5
 40
0.6666666666666666
 40
0.6666666666666666
 40
0.6666666666666666
 40
0.8333333333333333
 40
0.8333333333333333
 40
0.8333333333333333
 40
1.0
 40
1.0
 40
1.0
 40
1.0
 10
-7.085
 20
-32.2068
 30
0.0
 10
-7.085
 20
-32.2068
 30
0.0
 10
-1.688
 20
-32.2068
 30
0.0
 10
-1.688
 20
-32.2068
 30
0.0
 10
-1.688
 20
-32.2068
 30
0.0
 10
-5.1536
 20
-41.3844
 30
0.0
 10
-5.1536
 20
-41.3844
 30
0.0
 10
-5.1536
 20
-41.3844
 30
0.0
 10
-7.2637
 20
-41.3844
 30
0.0
 10
-7.2637
 20
-41.3844
 30
0.0
 10
-7.2637
 20
-41.3844
 30
0.0
 10
-4.5478
 20
-34.0909
 30
0.0
 10
-4.5478
 20
-34.0909
 30
0.0
 10
-4.5478
 20
-34.0909
 30
0.0
 10
-7.085
 20
-34.0909
 30
0.0
 10
-7.085
 20
-34.0909
 30
0.0
 10
-7.085
 20
-34.0909
 30
0.0
 10
-7.085
 20
-32.2068
 30
0.0
 10
-7.085
 20
-32.2068
 30
0.0
  0
SPLINE
  5
66
330
1F
100
AcDbEntity
  8
Layer 1
 62
   250
370
    18
100
AcDbSpline
210
0.0
220
0.0
230
1.0
 70
    11
 71
     3
 72
    23
 73
    19
 74
     0
 42
0.0000000001
 43
0.0000000001
 40
0.0
 40
0.0
 40
0.0
 40
0.0
 40
0.1666666666666667
 40
0.1666666666666667
 40
0.1666666666666667
 40
0.3333333333333333
 40
0.3333333333333333
 40
0.3333333333333333
 40
0.5
 40
0.5
 40
0.5
 40
0.6666666666666666
 40
0.6666666666666666
 40
0.6666666666666666
 40
0.8333333333333333
 40
0.8333333333333333
 40
0.8333333333333333
 40
1.0
 40
1.0
 40
1.0
 40
1.0
 10
0.0035
 20
-32.2068
 30
0.0
 10
0.0035
 20
-32.2068
 30
0.0
 10
3.1593
 20
-32.2068
 30
0.0
 10
3.1593
 20
-32.2068
 30
0.0
 10
3.1593
 20
-32.2068
 30
0.0
 10
3.1593
 20
-41.3844
 30
0.0
 10
3.1593
 20
-41.3844
 30
0.0
 10
3.1593
 20
-41.3844
 30
0.0
 10
1.1723
 20
-41.3844
 30
0.0
 10
1.1723
 20
-41.3844
 30
0.0
 10
1.1723
 20
-41.3844
 30
0.0
 10
1.1723
 20
-34.1325
 30
0.0
 10
1.1723
 20
-34.1325
 30
0.0
 10
1.1723
 20
-34.1325
 30
0.0
 10
0.0035
 20
-34.1325
 30
0.0
 10
0.0035
 20
-34.1325
 30
0.0
 10
0.0035
 20
-34.1325
 30
0.0
 10
0.0035
 20
-32.2068
 30
0.0
 10
0.0035
 20
-32.2068
 30
0.0
  0
SPLINE
  5
67
330
1F
100
AcDbEntity
  8
Layer 1
 62
   250
370
    18
100
AcDbSpline
210
0.0
220
0.0
230
1.0
 70
    11
 71
     3
 72
    20
 73
    16
 74
     0
 42
0.0000000001
 43
0.0000000001
 40
0.0
 40
0.0
 40
0.0
 40
0.0
 40
0.2
 40
0.2
 40
0.2
 40
0.4
 40
0.4
 40
0.4
 40
0.6000000000000001
 40
0.6000000000000001
 40
0.6000000000000001
 40
0.8
 40
0.8
 40
0.8
 40
1.0
 40
1.0
 40
1.0
 40
1.0
 10
9.4022
 20
-34.64
 30
0.0
 10
9.4022
 20
-33.976
 30
0.0
 10
9.2281
 20
-33.6426
 30
0.0
 10
8.8794
 20
-33.6426
 30
0.0
 10
8.5207
 20
-33.6426
 30
0.0
 10
8.3423
 20
-33.9399
 30
0.0
 10
8.3423
 20
-34.5311
 30
0.0
 10
8.3423
 20
-34.8879
 30
0.0
 10
8.3852
 20
-35.141
 30
0.0
 10
8.4694
 20
-35.2896
 30
0.0
 10
8.5544
 20
-35.4381
 30
0.0
 10
8.6948
 20
-35.5125
 30
0.0
 10
8.893
 20
-35.5125
 30
0.0
 10
9.2316
 20
-35.5125
 30
0.0
 10
9.4022
 20
-35.2225
 30
0.0
 10
9.4022
 20
-34.64
 30
0.0
  0
SPLINE
  5
68
330
1F
100
AcDbEntity
  8
Layer 1
 62
   250
370
    18
100
AcDbSpline
210
0.0
220
0.0
230
1.0
 70
    11
 71
     3
 72
    17
 73
    13
 74
     0
 42
0.0000000001
 43
0.0000000001
 40
0.0
 40
0.0
 40
0.0
 40
0.0
 40
0.25
 40
0.25
 40
0.25
 40
0.5
 40
0.5
 40
0.5
 40
0.75
 40
0.75
 40
0.75
 40
1.0
 40
1.0
 40
1.0
 40
1.0
 10
9.6221
 20
-38.7796
 30
0.0
 10
9.6221
 20
-37.88
 30
0.0
 10
9.3739
 20
-37.4316
 30
0.0
 10
8.8794
 20
-37.4316
 30
0.0
 10
8.361
 20
-37.4316
 30
0.0
 10
8.1017
 20
-37.8436
 30
0.0
 10
8.1017
 20
-38.6697
 30
0.0
 10
8.1017
 20
-39.549
 30
0.0
 10
8.3654
 20
-39.9886
 30
0.0
 10
8.893
 20
-39.9886
 30
0.0
 10
9.3788
 20
-39.9886
 30
0.0
 10
9.6221
 20
-39.5853
 30
0.0
 10
9.6221
 20
-38.7796
 30
0.0
  0
SPLINE
  5
69
330
1F
100
AcDbEntity
  8
Layer 1
 62
   250
370
    18
100
AcDbSpline
210
0.0
220
0.0
230
1.0
 70
    11
 71
     3
 72
    80
 73
    76
 74
     0
 42
0.0000000001
 43
0.0000000001
 40
0.0
 40
0.0
 40
0.0
 40
0.0
 40
0.04
 40
0.04
 40
0.04
 40
0.08
 40
0.08
 40
0.08
 40
0.12
 40
0.12
 40
0.12
 40
0.16
 40
0.16
 40
0.16
 40
0.2
 40
0.2
 40
0.2
 40
0.24
 40
0.24
 40
0.24
 40
0.28
 40
0.28
 40
0.28
 40
0.32
 40
0.32
 40
0.32
 40
0.36
 40
0.36
 40
0.36
 40
0.4
 40
0.4
 40
0.4
 40
0.44
 40
0.44
 40
0.44
 40
0.48
 40
0.48
 40
0.48
 40
0.52
 40
0.52
 40
0.52
 40
0.56
 40
0.56
 40
0.56
 40
0.6
 40
0.6
 40
0.6
 40
0.64
 40
0.64
 40
0.64
 40
0.68
 40
0.68
 40
0.68
 40
0.72
 40
0.72
 40
0.72
 40
0.76
 40
0.76
 40
0.76
 40
0.8
 40
0.8
 40
0.8
 40
0.84
 40
0.84
 40
0.84
 40
0.88
 40
0.88
 40
0.88
 40
0.92
 40
0.92
 40
0.92
 40
0.96
 40
0.96
 40
0.96
 40
1.0
 40
1.0
 40
1.0
 40
1.0
 10
10.0064
 20
-36.3731
 30
0.0
 10
10.5283
 20
-36.5971
 30
0.0
 10
10.9327
 20
-36.9393
 30
0.0
 10
11.2208
 20
-37.3971
 30
0.0
 10
11.507
 20
-37.8561
 30
0.0
 10
11.6504
 20
-38.3742
 30
0.0
 10
11.6504
 20
-38.951
 30
0.0
 10
11.6504
 20
-39.7627
 30
0.0
 10
11.4003
 20
-40.412
 30
0.0
 10
10.9001
 20
-40.897
 30
0.0
 10
10.4004
 20
-41.3825
 30
0.0
 10
9.7313
 20
-41.6258
 30
0.0
 10
8.893
 20
-41.6258
 30
0.0
 10
8.0354
 20
-41.6258
 30
0.0
 10
7.359
 20
-41.3844
 30
0.0
 10
6.8612
 20
-40.9035
 30
0.0
 10
6.3634
 20
-40.4223
 30
0.0
 10
6.1144
 20
-39.7719
 30
0.0
 10
6.1144
 20
-38.951
 30
0.0
 10
6.1144
 20
-38.7451
 30
0.0
 10
6.1288
 20
-38.5515
 30
0.0
 10
6.1557
 20
-38.3707
 30
0.0
 10
6.1837
 20
-38.1895
 30
0.0
 10
6.226
 20
-38.0198
 30
0.0
 10
6.2831
 20
-37.862
 30
0.0
 10
6.3401
 20
-37.7037
 30
0.0
 10
6.4131
 20
-37.5544
 30
0.0
 10
6.5
 20
-37.4145
 30
0.0
 10
6.5872
 20
-37.2744
 30
0.0
 10
6.6901
 20
-37.1454
 30
0.0
 10
6.8069
 20
-37.0256
 30
0.0
 10
6.9239
 20
-36.9067
 30
0.0
 10
7.0605
 20
-36.7954
 30
0.0
 10
7.2186
 20
-36.693
 30
0.0
 10
7.3769
 20
-36.5895
 30
0.0
 10
7.5404
 20
-36.4882
 30
0.0
 10
7.7106
 20
-36.3864
 30
0.0
 10
7.7106
 20
-36.3864
 30
0.0
 10
7.7106
 20
-36.3731
 30
0.0
 10
7.7106
 20
-36.3731
 30
0.0
 10
7.7106
 20
-36.3731
 30
0.0
 10
7.6968
 20
-36.3731
 30
0.0
 10
7.6968
 20
-36.3731
 30
0.0
 10
7.6968
 20
-36.3644
 30
0.0
 10
7.6919
 20
-36.3598
 30
0.0
 10
7.6824
 20
-36.3598
 30
0.0
 10
7.6824
 20
-36.3503
 30
0.0
 10
7.6781
 20
-36.3465
 30
0.0
 10
7.6685
 20
-36.3465
 30
0.0
 10
7.3943
 20
-36.218
 30
0.0
 10
7.1662
 20
-36.0752
 30
0.0
 10
6.9859
 20
-35.9201
 30
0.0
 10
6.8042
 20
-35.7637
 30
0.0
 10
6.6488
 20
-35.5427
 30
0.0
 10
6.5207
 20
-35.2559
 30
0.0
 10
6.3925
 20
-34.9697
 30
0.0
 10
6.3279
 20
-34.6381
 30
0.0
 10
6.3279
 20
-34.2628
 30
0.0
 10
6.3279
 20
-33.6064
 30
0.0
 10
6.5704
 20
-33.0603
 30
0.0
 10
7.0575
 20
-32.6226
 30
0.0
 10
7.5434
 20
-32.1859
 30
0.0
 10
8.1503
 20
-31.9662
 30
0.0
 10
8.8794
 20
-31.9662
 30
0.0
 10
9.6221
 20
-31.9662
 30
0.0
 10
10.2291
 20
-32.1884
 30
0.0
 10
10.7005
 20
-32.6329
 30
0.0
 10
11.1733
 20
-33.0764
 30
0.0
 10
11.4098
 20
-33.6485
 30
0.0
 10
11.4098
 20
-34.3451
 30
0.0
 10
11.4098
 20
-34.8032
 30
0.0
 10
11.2955
 20
-35.1918
 30
0.0
 10
11.0693
 20
-35.5125
 30
0.0
 10
10.8409
 20
-35.8349
 30
0.0
 10
10.4873
 20
-36.1211
 30
0.0
 10
10.0064
 20
-36.3731
 30
0.0
  0
SPLINE
  5
6A
330
1F
100
AcDbEntity
  8
Layer 1
 62
   250
370
    18
100
AcDbSpline
210
0.0
220
0.0
230
1.0
 70
    11
 71
     3
 72
    89
 73
    85
 74
     0
 42
0.0000000001
 43
0.0000000001
 40
0.0
 40
0.0
 40
0.0
 40
0.0
 40
0.0357142857142857
 40
0.0357142857142857
 40
0.0357142857142857
 40
0.0714285714285714
 40
0.0714285714285714
 40
0.0714285714285714
 40
0.1071428571428571
 40
0.1071428571428571
 40
0.1071428571428571
 40
0.1428571428571428
 40
0.1428571428571428
 40
0.1428571428571428
 40
0.1785714285714285
 40
0.1785714285714285
 40
0.1785714285714285
 40
0.2142857142857143
 40
0.2142857142857143
 40
0.2142857142857143
 40
0.25
 40
0.25
 40
0.25
 40
0.2857142857142857
 40
0.2857142857142857
 40
0.2857142857142857
 40
0.3214285714285714
 40
0.3214285714285714
 40
0.3214285714285714
 40
0.3571428571428571
 40
0.3571428571428571
 40
0.3571428571428571
 40
0.3928571428571428
 40
0.3928571428571428
 40
0.3928571428571428
 40
0.4285714285714285
 40
0.4285714285714285
 40
0.4285714285714285
 40
0.4642857142857142
 40
0.4642857142857142
 40
0.4642857142857142
 40
0.5
 40
0.5
 40
0.5
 40
0.5357142857142857
 40
0.5357142857142857
 40
0.5357142857142857
 40
0.5714285714285714
 40
0.5714285714285714
 40
0.5714285714285714
 40
0.6071428571428571
 40
0.6071428571428571
 40
0.6071428571428571
 40
0.6428571428571428
 40
0.6428571428571428
 40
0.6428571428571428
 40
0.6785714285714285
 40
0.6785714285714285
 40
0.6785714285714285
 40
0.7142857142857142
 40
0.7142857142857142
 40
0.7142857142857142
 40
0.75
 40
0.75
 40
0.75
 40
0.7857142857142857
 40
0.7857142857142857
 40
0.7857142857142857
 40
0.8214285714285714
 40
0.8214285714285714
 40
0.8214285714285714
 40
0.8571428571428571
 40
0.8571428571428571
 40
0.8571428571428571
 40
0.8928571428571428
 40
0.8928571428571428
 40
0.8928571428571428
 40
0.9285714285714285
 40
0.9285714285714285
 40
0.9285714285714285
 40
0.9642857142857142
 40
0.9642857142857142
 40
0.9642857142857142
 40
1.0
 40
1.0
 40
1.0
 40
1.0
 10
15.3822
 20
-35.0052
 30
0.0
 10
15.3822
 20
-35.0052
 30
0.0
 10
13.3745
 20
-35.0052
 30
0.0
 10
13.3745
 20
-35.0052
 30
0.0
 10
13.3838
 20
-34.4771
 30
0.0
 10
13.4305
 20
-34.0681
 30
0.0
 10
13.5166
 20
-33.7751
 30
0.0
 10
13.6018
 20
-33.4799
 30
0.0
 10
13.7479
 20
-33.1937
 30
0.0
 10
13.9562
 20
-32.9137
 30
0.0
 10
14.165
 20
-32.6348
 30
0.0
 10
14.4391
 20
-32.41
 30
0.0
 10
14.7777
 20
-32.2375
 30
0.0
 10
15.1163
 20
-32.0662
 30
0.0
 10
15.4832
 20
-31.9795
 30
0.0
 10
15.8778
 20
-31.9795
 30
0.0
 10
16.5844
 20
-31.9795
 30
0.0
 10
17.1652
 20
-32.2337
 30
0.0
 10
17.6236
 20
-32.7394
 30
0.0
 10
18.0831
 20
-33.2453
 30
0.0
 10
18.312
 20
-33.8889
 30
0.0
 10
18.312
 20
-34.6688
 30
0.0
 10
18.312
 20
-35.5752
 30
0.0
 10
17.9614
 20
-36.2886
 30
0.0
 10
17.26
 20
-36.8062
 30
0.0
 10
18.085
 20
-37.2326
 30
0.0
 10
18.4975
 20
-37.9921
 30
0.0
 10
18.4975
 20
-39.0889
 30
0.0
 10
18.4975
 20
-39.524
 30
0.0
 10
18.3957
 20
-39.9579
 30
0.0
 10
18.1917
 20
-40.3921
 30
0.0
 10
17.9878
 20
-40.825
 30
0.0
 10
17.6902
 20
-41.1381
 30
0.0
 10
17.301
 20
-41.3336
 30
0.0
 10
16.9119
 20
-41.5289
 30
0.0
 10
16.4554
 20
-41.6258
 30
0.0
 10
15.9332
 20
-41.6258
 30
0.0
 10
15.1492
 20
-41.6258
 30
0.0
 10
14.5075
 20
-41.395
 30
0.0
 10
14.0078
 20
-40.935
 30
0.0
 10
13.5092
 20
-40.4744
 30
0.0
 10
13.2396
 20
-39.8401
 30
0.0
 10
13.2032
 20
-39.0335
 30
0.0
 10
13.2032
 20
-39.0335
 30
0.0
 10
15.1763
 20
-39.0335
 30
0.0
 10
15.1763
 20
-39.0335
 30
0.0
 10
15.1856
 20
-39.5976
 30
0.0
 10
15.4101
 20
-39.8794
 30
0.0
 10
15.8509
 20
-39.8794
 30
0.0
 10
16.2813
 20
-39.8794
 30
0.0
 10
16.4972
 20
-39.4944
 30
0.0
 10
16.4972
 20
-38.7251
 30
0.0
 10
16.4972
 20
-38.3674
 30
0.0
 10
16.4337
 20
-38.1187
 30
0.0
 10
16.3082
 20
-37.9788
 30
0.0
 10
16.1822
 20
-37.8381
 30
0.0
 10
15.9584
 20
-37.7681
 30
0.0
 10
15.6377
 20
-37.7681
 30
0.0
 10
15.6377
 20
-37.7681
 30
0.0
 10
15.0042
 20
-37.7681
 30
0.0
 10
15.0042
 20
-37.7681
 30
0.0
 10
15.0042
 20
-37.7681
 30
0.0
 10
15.0042
 20
-35.8645
 30
0.0
 10
15.0042
 20
-35.8645
 30
0.0
 10
15.0042
 20
-35.8645
 30
0.0
 10
15.6926
 20
-35.8645
 30
0.0
 10
15.6926
 20
-35.8645
 30
0.0
 10
15.9864
 20
-35.8645
 30
0.0
 10
16.196
 20
-35.7876
 30
0.0
 10
16.3212
 20
-35.6336
 30
0.0
 10
16.4478
 20
-35.4802
 30
0.0
 10
16.5102
 20
-35.2293
 30
0.0
 10
16.5102
 20
-34.8806
 30
0.0
 10
16.5102
 20
-34.1295
 30
0.0
 10
16.3
 20
-33.7539
 30
0.0
 10
15.8778
 20
-33.7539
 30
0.0
 10
15.6806
 20
-33.7539
 30
0.0
 10
15.5486
 20
-33.8316
 30
0.0
 10
15.4824
 20
-33.9877
 30
0.0
 10
15.4158
 20
-34.1439
 30
0.0
 10
15.3822
 20
-34.4187
 30
0.0
 10
15.3822
 20
-34.8124
 30
0.0
 10
15.3822
 20
-34.8124
 30
0.0
 10
15.3822
 20
-35.0052
 30
0.0
 10
15.3822
 20
-35.0052
 30
0.0
  0
SPLINE
  5
6B
330
1F
100
AcDbEntity
  8
Layer 1
 62
   250
370
    18
100
AcDbSpline
210
0.0
220
0.0
230
1.0
 70
    11
 71
     3
 72
    29
 73
    25
 74
     0
 42
0.0000000001
 43
0.0000000001
 40
0.0
 40
0.0
 40
0.0
 40
0.0
 40
0.125
 40
0.125
 40
0.125
 40
0.25
 40
0.25
 40
0.25
 40
0.375
 40
0.375
 40
0.375
 40
0.5
 40
0.5
 40
0.5
 40
0.625
 40
0.625
 40
0.625
 40
0.75
 40
0.75
 40
0.75
 40
0.875
 40
0.875
 40
0.875
 40
1.0
 40
1.0
 40
1.0
 40
1.0
 10
23.6672
 20
-35.0598
 30
0.0
 10
23.6672
 20
-34.6612
 30
0.0
 10
23.5841
 20
-34.3421
 30
0.0
 10
23.4165
 20
-34.1018
 30
0.0
 10
23.2492
 20
-33.8612
 30
0.0
 10
23.0285
 20
-33.7406
 30
0.0
 10
22.7534
 20
-33.7406
 30
0.0
 10
22.4728
 20
-33.7406
 30
0.0
 10
22.2396
 20
-33.8623
 30
0.0
 10
22.0517
 20
-34.1045
 30
0.0
 10
21.8635
 20
-34.3481
 30
0.0
 10
21.7701
 20
-34.6517
 30
0.0
 10
21.7701
 20
-35.0185
 30
0.0
 10
21.7701
 20
-35.4498
 30
0.0
 10
21.8578
 20
-35.7914
 30
0.0
 10
22.0337
 20
-36.0475
 30
0.0
 10
22.2108
 20
-36.3011
 30
0.0
 10
22.4454
 20
-36.4277
 30
0.0
 10
22.7403
 20
-36.4277
 30
0.0
 10
22.9918
 20
-36.4277
 30
0.0
 10
23.2088
 20
-36.2954
 30
0.0
 10
23.3923
 20
-36.029
 30
0.0
 10
23.5756
 20
-35.7637
 30
0.0
 10
23.6672
 20
-35.44
 30
0.0
 10
23.6672
 20
-35.0598
 30
0.0
  0
SPLINE
  5
6C
330
1F
100
AcDbEntity
  8
Layer 1
 62
   250
370
    18
100
AcDbSpline
210
0.0
220
0.0
230
1.0
 70
    11
 71
     3
 72
    44
 73
    40
 74
     0
 42
0.0000000001
 43
0.0000000001
 40
0.0
 40
0.0
 40
0.0
 40
0.0
 40
0.0769230769230769
 40
0.0769230769230769
 40
0.0769230769230769
 40
0.1538461538461539
 40
0.1538461538461539
 40
0.1538461538461539
 40
0.2307692307692308
 40
0.2307692307692308
 40
0.2307692307692308
 40
0.3076923076923077
 40
0.3076923076923077
 40
0.3076923076923077
 40
0.3846153846153846
 40
0.3846153846153846
 40
0.3846153846153846
 40
0.4615384615384616
 40
0.4615384615384616
 40
0.4615384615384616
 40
0.5384615384615385
 40
0.5384615384615385
 40
0.5384615384615385
 40
0.6153846153846154
 40
0.6153846153846154
 40
0.6153846153846154
 40
0.6923076923076923
 40
0.6923076923076923
 40
0.6923076923076923
 40
0.7692307692307693
 40
0.7692307692307693
 40
0.7692307692307693
 40
0.8461538461538463
 40
0.8461538461538463
 40
0.8461538461538463
 40
0.9230769230769231
 40
0.9230769230769231
 40
0.9230769230769231
 40
1.0
 40
1.0
 40
1.0
 40
1.0
 10
22.2857
 20
-39.2739
 30
0.0
 10
22.2857
 20
-39.2739
 30
0.0
 10
22.8769
 20
-37.8927
 30
0.0
 10
22.8769
 20
-37.8927
 30
0.0
 10
22.5614
 20
-37.9886
 30
0.0
 10
22.2857
 20
-38.0364
 30
0.0
 10
22.0517
 20
-38.0364
 30
0.0
 10
21.3782
 20
-38.0364
 30
0.0
 10
20.8345
 20
-37.7719
 30
0.0
 10
20.419
 20
-37.2432
 30
0.0
 10
20.0036
 20
-36.7131
 30
0.0
 10
19.7961
 20
-36.016
 30
0.0
 10
19.7961
 20
-35.1489
 30
0.0
 10
19.7961
 20
-34.1908
 30
0.0
 10
20.0655
 20
-33.4185
 30
0.0
 10
20.6053
 20
-32.8325
 30
0.0
 10
21.143
 20
-32.2451
 30
0.0
 10
21.8496
 20
-31.9532
 30
0.0
 10
22.7262
 20
-31.9532
 30
0.0
 10
23.6196
 20
-31.9532
 30
0.0
 10
24.3325
 20
-32.2364
 30
0.0
 10
24.8677
 20
-32.8043
 30
0.0
 10
25.4016
 20
-33.3724
 30
0.0
 10
25.6685
 20
-34.1371
 30
0.0
 10
25.6685
 20
-35.0943
 30
0.0
 10
25.6685
 20
-35.4517
 30
0.0
 10
25.6077
 20
-35.897
 30
0.0
 10
25.4858
 20
-36.4277
 30
0.0
 10
25.3644
 20
-36.9594
 30
0.0
 10
25.211
 20
-37.4642
 30
0.0
 10
25.0258
 20
-37.9432
 30
0.0
 10
24.8403
 20
-38.4233
 30
0.0
 10
24.3156
 20
-39.5699
 30
0.0
 10
23.454
 20
-41.3844
 30
0.0
 10
23.454
 20
-41.3844
 30
0.0
 10
21.2753
 20
-41.3844
 30
0.0
 10
21.2753
 20
-41.3844
 30
0.0
 10
21.2753
 20
-41.3844
 30
0.0
 10
22.2857
 20
-39.2739
 30
0.0
 10
22.2857
 20
-39.2739
 30
0.0
  0
SPLINE
  5
6D
330
1F
100
AcDbEntity
  8
Layer 1
 62
   250
370
    18
100
AcDbSpline
210
0.0
220
0.0
230
1.0
 70
    11
 71
     3
 72
    23
 73
    19
 74
     0
 42
0.0000000001
 43
0.0000000001
 40
0.0
 40
0.0
 40
0.0
 40
0.0
 40
0.1666666666666667
 40
0.1666666666666667
 40
0.1666666666666667
 40
0.3333333333333333
 40
0.3333333333333333
 40
0.3333333333333333
 40
0.5
 40
0.5
 40
0.5
 40
0.6666666666666666
 40
0.6666666666666666
 40
0.6666666666666666
 40
0.8333333333333333
 40
0.8333333333333333
 40
0.8333333333333333
 40
1.0
 40
1.0
 40
1.0
 40
1.0
 10
28.5433
 20
-36.7093
 30
0.0
 10
28.5433
 20
-38.6713
 30
0.0
 10
28.8819
 20
-39.6522
 30
0.0
 10
29.5611
 20
-39.6522
 30
0.0
 10
29.9279
 20
-39.6522
 30
0.0
 10
30.1916
 20
-39.436
 30
0.0
 10
30.3546
 20
-39.0029
 30
0.0
 10
30.5172
 20
-38.5697
 30
0.0
 10
30.599
 20
-37.88
 30
0.0
 10
30.599
 20
-36.9374
 30
0.0
 10
30.599
 20
-35.897
 30
0.0
 10
30.5172
 20
-35.1391
 30
0.0
 10
30.3546
 20
-34.665
 30
0.0
 10
30.1916
 20
-34.1908
 30
0.0
 10
29.9236
 20
-33.9532
 30
0.0
 10
29.5475
 20
-33.9532
 30
0.0
 10
28.8776
 20
-33.9532
 30
0.0
 10
28.5433
 20
-34.8719
 30
0.0
 10
28.5433
 20
-36.7093
 30
0.0
  0
SPLINE
  5
6E
330
1F
100
AcDbEntity
  8
Layer 1
 62
   250
370
    18
100
AcDbSpline
210
0.0
220
0.0
230
1.0
 70
    11
 71
     3
 72
    32
 73
    28
 74
     0
 42
0.0000000001
 43
0.0000000001
 40
0.0
 40
0.0
 40
0.0
 40
0.0
 40
0.1111111111111111
 40
0.1111111111111111
 40
0.1111111111111111
 40
0.2222222222222222
 40
0.2222222222222222
 40
0.2222222222222222
 40
0.3333333333333333
 40
0.3333333333333333
 40
0.3333333333333333
 40
0.4444444444444444
 40
0.4444444444444444
 40
0.4444444444444444
 40
0.5555555555555556
 40
0.5555555555555556
 40
0.5555555555555556
 40
0.6666666666666666
 40
0.6666666666666666
 40
0.6666666666666666
 40
0.7777777777777777
 40
0.7777777777777777
 40
0.7777777777777777
 40
0.8888888888888888
 40
0.8888888888888888
 40
0.8888888888888888
 40
1.0
 40
1.0
 40
1.0
 40
1.0
 10
29.5755
 20
-31.9662
 30
0.0
 10
30.5691
 20
-31.9662
 30
0.0
 10
31.3238
 20
-32.3763
 30
0.0
 10
31.8403
 20
-33.1961
 30
0.0
 10
32.356
 20
-34.0173
 30
0.0
 10
32.6129
 20
-35.2252
 30
0.0
 10
32.6129
 20
-36.8206
 30
0.0
 10
32.6129
 20
-38.3742
 30
0.0
 10
32.3511
 20
-39.5631
 30
0.0
 10
31.8264
 20
-40.3881
 30
0.0
 10
31.3007
 20
-41.2139
 30
0.0
 10
30.5509
 20
-41.6258
 30
0.0
 10
29.5755
 20
-41.6258
 30
0.0
 10
28.6481
 20
-41.6258
 30
0.0
 10
27.9122
 20
-41.2397
 30
0.0
 10
27.3644
 20
-40.4676
 30
0.0
 10
26.8156
 20
-39.6953
 30
0.0
 10
26.5424
 20
-38.4472
 30
0.0
 10
26.5424
 20
-36.7237
 30
0.0
 10
26.5424
 20
-35.2111
 30
0.0
 10
26.805
 20
-34.0404
 30
0.0
 10
27.3337
 20
-33.2097
 30
0.0
 10
27.8603
 20
-32.3812
 30
0.0
 10
28.5976
 20
-31.9662
 30
0.0
 10
29.5475
 20
-31.9662
 30
0.0
 10
29.5475
 20
-31.9662
 30
0.0
 10
29.5755
 20
-31.9662
 30
0.0
 10
29.5755
 20
-31.9662
 30
0.0
  0
SPLINE
  5
6F
330
1F
100
AcDbEntity
  8
Layer 1
 62
   250
370
    18
100
AcDbSpline
210
0.0
220
0.0
230
1.0
 70
    11
 71
     3
 72
    23
 73
    19
 74
     0
 42
0.0000000001
 43
0.0000000001
 40
0.0
 40
0.0
 40
0.0
 40
0.0
 40
0.1666666666666667
 40
0.1666666666666667
 40
0.1666666666666667
 40
0.3333333333333333
 40
0.3333333333333333
 40
0.3333333333333333
 40
0.5
 40
0.5
 40
0.5
 40
0.6666666666666666
 40
0.6666666666666666
 40
0.6666666666666666
 40
0.8333333333333333
 40
0.8333333333333333
 40
0.8333333333333333
 40
1.0
 40
1.0
 40
1.0
 40
1.0
 10
34.3324
 20
-32.2068
 30
0.0
 10
34.3324
 20
-32.2068
 30
0.0
 10
39.7288
 20
-32.2068
 30
0.0
 10
39.7288
 20
-32.2068
 30
0.0
 10
39.7288
 20
-32.2068
 30
0.0
 10
36.2634
 20
-41.3844
 30
0.0
 10
36.2634
 20
-41.3844
 30
0.0
 10
36.2634
 20
-41.3844
 30
0.0
 10
34.1539
 20
-41.3844
 30
0.0
 10
34.1539
 20
-41.3844
 30
0.0
 10
34.1539
 20
-41.3844
 30
0.0
 10
36.869
 20
-34.0909
 30
0.0
 10
36.869
 20
-34.0909
 30
0.0
 10
36.869
 20
-34.0909
 30
0.0
 10
34.3324
 20
-34.0909
 30
0.0
 10
34.3324
 20
-34.0909
 30
0.0
 10
34.3324
 20
-34.0909
 30
0.0
 10
34.3324
 20
-32.2068
 30
0.0
 10
34.3324
 20
-32.2068
 30
0.0
  0
SPLINE
  5
70
330
1F
100
AcDbEntity
  8
Layer 1
 62
   250
370
    18
100
AcDbSpline
210
0.0
220
0.0
230
1.0
 70
    11
 71
     3
 72
    32
 73
    28
 74
     0
 42
0.0000000001
 43
0.0000000001
 40
0.0
 40
0.0
 40
0.0
 40
0.0
 40
0.1111111111111111
 40
0.1111111111111111
 40
0.1111111111111111
 40
0.2222222222222222
 40
0.2222222222222222
 40
0.2222222222222222
 40
0.3333333333333333
 40
0.3333333333333333
 40
0.3333333333333333
 40
0.4444444444444444
 40
0.4444444444444444
 40
0.4444444444444444
 40
0.5555555555555556
 40
0.5555555555555556
 40
0.5555555555555556
 40
0.6666666666666666
 40
0.6666666666666666
 40
0.6666666666666666
 40
0.7777777777777777
 40
0.7777777777777777
 40
0.7777777777777777
 40
0.8888888888888888
 40
0.8888888888888888
 40
0.8888888888888888
 40
1.0
 40
1.0
 40
1.0
 40
1.0
 10
43.4214
 20
-39.8235
 30
0.0
 10
43.706
 20
-39.8235
 30
0.0
 10
43.936
 20
-39.7013
 30
0.0
 10
44.112
 20
-39.4569
 30
0.0
 10
44.2885
 20
-39.2117
 30
0.0
 10
44.3765
 20
-38.8918
 30
0.0
 10
44.3765
 20
-38.4978
 30
0.0
 10
44.3765
 20
-38.1176
 30
0.0
 10
44.2847
 20
-37.7969
 30
0.0
 10
44.1014
 20
-37.5378
 30
0.0
 10
43.9181
 20
-37.2793
 30
0.0
 10
43.6965
 20
-37.1492
 30
0.0
 10
43.4353
 20
-37.1492
 30
0.0
 10
43.1596
 20
-37.1492
 30
0.0
 10
42.9332
 20
-37.2785
 30
0.0
 10
42.7572
 20
-37.5354
 30
0.0
 10
42.5801
 20
-37.7909
 30
0.0
 10
42.4924
 20
-38.1225
 30
0.0
 10
42.4924
 20
-38.5257
 30
0.0
 10
42.4924
 20
-38.9146
 30
0.0
 10
42.5758
 20
-39.228
 30
0.0
 10
42.7431
 20
-39.4667
 30
0.0
 10
42.9106
 20
-39.7051
 30
0.0
 10
43.1314
 20
-39.8235
 30
0.0
 10
43.4073
 20
-39.8235
 30
0.0
 10
43.4073
 20
-39.8235
 30
0.0
 10
43.4214
 20
-39.8235
 30
0.0
 10
43.4214
 20
-39.8235
 30
0.0
  0
SPLINE
  5
71
330
1F
100
AcDbEntity
  8
Layer 1
 62
   250
370
    18
100
AcDbSpline
210
0.0
220
0.0
230
1.0
 70
    11
 71
     3
 72
    41
 73
    37
 74
     0
 42
0.0000000001
 43
0.0000000001
 40
0.0
 40
0.0
 40
0.0
 40
0.0
 40
0.0833333333333333
 40
0.0833333333333333
 40
0.0833333333333333
 40
0.1666666666666667
 40
0.1666666666666667
 40
0.1666666666666667
 40
0.25
 40
0.25
 40
0.25
 40
0.3333333333333333
 40
0.3333333333333333
 40
0.3333333333333333
 40
0.4166666666666666
 40
0.4166666666666666
 40
0.4166666666666666
 40
0.5
 40
0.5
 40
0.5
 40
0.5833333333333333
 40
0.5833333333333333
 40
0.5833333333333333
 40
0.6666666666666666
 40
0.6666666666666666
 40
0.6666666666666666
 40
0.75
 40
0.75
 40
0.75
 40
0.8333333333333333
 40
0.8333333333333333
 40
0.8333333333333333
 40
0.9166666666666666
 40
0.9166666666666666
 40
0.9166666666666666
 40
1.0
 40
1.0
 40
1.0
 40
1.0
 10
42.698
 20
-32.1933
 30
0.0
 10
42.698
 20
-32.1933
 30
0.0
 10
44.8846
 20
-32.1933
 30
0.0
 10
44.8846
 20
-32.1933
 30
0.0
 10
44.1014
 20
-33.8164
 30
0.0
 10
43.57
 20
-34.9678
 30
0.0
 10
43.2905
 20
-35.6507
 30
0.0
 10
43.3492
 20
-35.6458
 30
0.0
 10
43.4483
 20
-35.6279
 30
0.0
 10
43.5863
 20
-35.5953
 30
0.0
 10
43.7421
 20
-35.5685
 30
0.0
 10
43.8749
 20
-35.5541
 30
0.0
 10
43.9846
 20
-35.5541
 30
0.0
 10
44.7263
 20
-35.5541
 30
0.0
 10
45.3063
 20
-35.805
 30
0.0
 10
45.7248
 20
-36.3052
 30
0.0
 10
46.1408
 20
-36.804
 30
0.0
 10
46.3497
 20
-37.5028
 30
0.0
 10
46.3497
 20
-38.4014
 30
0.0
 10
46.3497
 20
-39.3863
 30
0.0
 10
46.0792
 20
-40.1716
 30
0.0
 10
45.5385
 20
-40.7531
 30
0.0
 10
44.997
 20
-41.3355
 30
0.0
 10
44.2736
 20
-41.6258
 30
0.0
 10
43.366
 20
-41.6258
 30
0.0
 10
42.5128
 20
-41.6258
 30
0.0
 10
41.8217
 20
-41.3366
 30
0.0
 10
41.2902
 20
-40.7558
 30
0.0
 10
40.7572
 20
-40.1765
 30
0.0
 10
40.4913
 20
-39.4194
 30
0.0
 10
40.4913
 20
-38.4847
 30
0.0
 10
40.4913
 20
-37.3333
 30
0.0
 10
41.016
 20
-35.6708
 30
0.0
 10
42.0669
 20
-33.4989
 30
0.0
 10
42.0669
 20
-33.4989
 30
0.0
 10
42.698
 20
-32.1933
 30
0.0
 10
42.698
 20
-32.1933
 30
0.0
  0
SPLINE
  5
72
330
1F
100
AcDbEntity
  8
Layer 1
 62
   250
370
    18
100
AcDbSpline
210
0.0
220
0.0
230
1.0
 70
    11
 71
     3
 72
    47
 73
    43
 74
     0
 42
0.0000000001
 43
0.0000000001
 40
0.0
 40
0.0
 40
0.0
 40
0.0
 40
0.0714285714285714
 40
0.0714285714285714
 40
0.0714285714285714
 40
0.1428571428571428
 40
0.1428571428571428
 40
0.1428571428571428
 40
0.2142857142857143
 40
0.2142857142857143
 40
0.2142857142857143
 40
0.2857142857142857
 40
0.2857142857142857
 40
0.2857142857142857
 40
0.3571428571428571
 40
0.3571428571428571
 40
0.3571428571428571
 40
0.4285714285714285
 40
0.4285714285714285
 40
0.4285714285714285
 40
0.5
 40
0.5
 40
0.5
 40
0.5714285714285714
 40
0.5714285714285714
 40
0.5714285714285714
 40
0.6428571428571428
 40
0.6428571428571428
 40
0.6428571428571428
 40
0.7142857142857142
 40
0.7142857142857142
 40
0.7142857142857142
 40
0.7857142857142857
 40
0.7857142857142857
 40
0.7857142857142857
 40
0.8571428571428571
 40
0.8571428571428571
 40
0.8571428571428571
 40
0.9285714285714285
 40
0.9285714285714285
 40
0.9285714285714285
 40
1.0
 40
1.0
 40
1.0
 40
1.0
 10
-18.487
 20
-59.662
 30
0.0
 10
-18.487
 20
-59.662
 30
0.0
 10
-16.554
 20
-59.662
 30
0.0
 10
-16.554
 20
-59.662
 30
0.0
 10
-16.2235
 20
-59.662
 30
0.0
 10
-15.9389
 20
-59.6313
 30
0.0
 10
-15.7016
 20
-59.5694
 30
0.0
 10
-15.4702
 20
-59.5094
 30
0.0
 10
-15.2823
 20
-59.4193
 30
0.0
 10
-15.1405
 20
-59.3
 30
0.0
 10
-14.998
 20
-59.1816
 30
0.0
 10
-14.891
 20
-59.0393
 30
0.0
 10
-14.8204
 20
-58.874
 30
0.0
 10
-14.7487
 20
-58.7064
 30
0.0
 10
-14.7128
 20
-58.5122
 30
0.0
 10
-14.7128
 20
-58.2923
 30
0.0
 10
-14.7128
 20
-58.2923
 30
0.0
 10
-14.7128
 20
-58.2722
 30
0.0
 10
-14.7128
 20
-58.2722
 30
0.0
 10
-14.7128
 20
-58.1185
 30
0.0
 10
-14.7261
 20
-57.9756
 30
0.0
 10
-14.7522
 20
-57.8442
 30
0.0
 10
-14.7783
 20
-57.7131
 30
0.0
 10
-14.8174
 20
-57.5928
 30
0.0
 10
-14.8682
 20
-57.4847
 30
0.0
 10
-14.9187
 20
-57.3807
 30
0.0
 10
-14.9847
 20
-57.2872
 30
0.0
 10
-15.0645
 20
-57.2063
 30
0.0
 10
-15.1443
 20
-57.1254
 30
0.0
 10
-15.2397
 20
-57.0559
 30
0.0
 10
-15.3488
 20
-56.9986
 30
0.0
 10
-15.4613
 20
-56.9416
 30
0.0
 10
-15.59
 20
-56.8978
 30
0.0
 10
-15.7342
 20
-56.8685
 30
0.0
 10
-15.8795
 20
-56.8392
 30
0.0
 10
-16.0437
 20
-56.8242
 30
0.0
 10
-16.2254
 20
-56.8242
 30
0.0
 10
-16.2254
 20
-56.8242
 30
0.0
 10
-18.487
 20
-56.8242
 30
0.0
 10
-18.487
 20
-56.8242
 30
0.0
 10
-18.487
 20
-56.8242
 30
0.0
 10
-18.487
 20
-59.662
 30
0.0
 10
-18.487
 20
-59.662
 30
0.0
  0
SPLINE
  5
73
330
1F
100
AcDbEntity
  8
Layer 1
 62
   250
370
    18
100
AcDbSpline
210
0.0
220
0.0
230
1.0
 70
    11
 71
     3
 72
    38
 73
    34
 74
     0
 42
0.0000000001
 43
0.0000000001
 40
0.0
 40
0.0
 40
0.0
 40
0.0
 40
0.0909090909090909
 40
0.0909090909090909
 40
0.0909090909090909
 40
0.1818181818181818
 40
0.1818181818181818
 40
0.1818181818181818
 40
0.2727272727272727
 40
0.2727272727272727
 40
0.2727272727272727
 40
0.3636363636363636
 40
0.3636363636363636
 40
0.3636363636363636
 40
0.4545454545454546
 40
0.4545454545454546
 40
0.4545454545454546
 40
0.5454545454545454
 40
0.5454545454545454
 40
0.5454545454545454
 40
0.6363636363636364
 40
0.6363636363636364
 40
0.6363636363636364
 40
0.7272727272727273
 40
0.7272727272727273
 40
0.7272727272727273
 40
0.8181818181818182
 40
0.8181818181818182
 40
0.8181818181818182
 40
0.9090909090909092
 40
0.9090909090909092
 40
0.9090909090909092
 40
1.0
 40
1.0
 40
1.0
 40
1.0
 10
-18.487
 20
-55.4127
 30
0.0
 10
-18.487
 20
-55.4127
 30
0.0
 10
-16.2254
 20
-55.4127
 30
0.0
 10
-16.2254
 20
-55.4127
 30
0.0
 10
-15.9897
 20
-55.4127
 30
0.0
 10
-15.7833
 20
-55.385
 30
0.0
 10
-15.6082
 20
-55.3307
 30
0.0
 10
-15.4371
 20
-55.2777
 30
0.0
 10
-15.2934
 20
-55.1981
 30
0.0
 10
-15.1799
 20
-55.0936
 30
0.0
 10
-15.0661
 20
-54.9888
 30
0.0
 10
-14.9803
 20
-54.8582
 30
0.0
 10
-14.9236
 20
-54.7028
 30
0.0
 10
-14.8652
 20
-54.5437
 30
0.0
 10
-14.8359
 20
-54.3563
 30
0.0
 10
-14.8359
 20
-54.1412
 30
0.0
 10
-14.8359
 20
-53.9161
 30
0.0
 10
-14.869
 20
-53.7201
 30
0.0
 10
-14.9339
 20
-53.5549
 30
0.0
 10
-14.9972
 20
-53.3939
 30
0.0
 10
-15.0927
 20
-53.2592
 30
0.0
 10
-15.2188
 20
-53.1522
 30
0.0
 10
-15.3472
 20
-53.0444
 30
0.0
 10
-15.509
 20
-52.9624
 30
0.0
 10
-15.7038
 20
-52.9076
 30
0.0
 10
-15.9031
 20
-52.8516
 30
0.0
 10
-16.1383
 20
-52.8231
 30
0.0
 10
-16.4087
 20
-52.8231
 30
0.0
 10
-16.4087
 20
-52.8231
 30
0.0
 10
-18.487
 20
-52.8231
 30
0.0
 10
-18.487
 20
-52.8231
 30
0.0
 10
-18.487
 20
-52.8231
 30
0.0
 10
-18.487
 20
-55.4127
 30
0.0
 10
-18.487
 20
-55.4127
 30
0.0
  0
SPLINE
  5
74
330
1F
100
AcDbEntity
  8
Layer 1
 62
   250
370
    18
100
AcDbSpline
210
0.0
220
0.0
230
1.0
 70
    11
 71
     3
 72
    89
 73
    85
 74
     0
 42
0.0000000001
 43
0.0000000001
 40
0.0
 40
0.0
 40
0.0
 40
0.0
 40
0.0357142857142857
 40
0.0357142857142857
 40
0.0357142857142857
 40
0.0714285714285714
 40
0.0714285714285714
 40
0.0714285714285714
 40
0.1071428571428571
 40
0.1071428571428571
 40
0.1071428571428571
 40
0.1428571428571428
 40
0.1428571428571428
 40
0.1428571428571428
 40
0.1785714285714285
 40
0.1785714285714285
 40
0.1785714285714285
 40
0.2142857142857143
 40
0.2142857142857143
 40
0.2142857142857143
 40
0.25
 40
0.25
 40
0.25
 40
0.2857142857142857
 40
0.2857142857142857
 40
0.2857142857142857
 40
0.3214285714285714
 40
0.3214285714285714
 40
0.3214285714285714
 40
0.3571428571428571
 40
0.3571428571428571
 40
0.3571428571428571
 40
0.3928571428571428
 40
0.3928571428571428
 40
0.3928571428571428
 40
0.4285714285714285
 40
0.4285714285714285
 40
0.4285714285714285
 40
0.4642857142857142
 40
0.4642857142857142
 40
0.4642857142857142
 40
0.5
 40
0.5
 40
0.5
 40
0.5357142857142857
 40
0.5357142857142857
 40
0.5357142857142857
 40
0.5714285714285714
 40
0.5714285714285714
 40
0.5714285714285714
 40
0.6071428571428571
 40
0.6071428571428571
 40
0.6071428571428571
 40
0.6428571428571428
 40
0.6428571428571428
 40
0.6428571428571428
 40
0.6785714285714285
 40
0.6785714285714285
 40
0.6785714285714285
 40
0.7142857142857142
 40
0.7142857142857142
 40
0.7142857142857142
 40
0.75
 40
0.75
 40
0.75
 40
0.7857142857142857
 40
0.7857142857142857
 40
0.7857142857142857
 40
0.8214285714285714
 40
0.8214285714285714
 40
0.8214285714285714
 40
0.8571428571428571
 40
0.8571428571428571
 40
0.8571428571428571
 40
0.8928571428571428
 40
0.8928571428571428
 40
0.8928571428571428
 40
0.9285714285714285
 40
0.9285714285714285
 40
0.9285714285714285
 40
0.9642857142857142
 40
0.9642857142857142
 40
0.9642857142857142
 40
1.0
 40
1.0
 40
1.0
 40
1.0
 10
-19.2373
 20
-51.3779
 30
0.0
 10
-19.2373
 20
-51.3779
 30
0.0
 10
-16.1673
 20
-51.3779
 30
0.0
 10
-16.1673
 20
-51.3779
 30
0.0
 10
-15.8545
 20
-51.3779
 30
0.0
 10
-15.5639
 20
-51.4053
 30
0.0
 10
-15.2986
 20
-51.4591
 30
0.0
 10
-15.0325
 20
-51.5134
 30
0.0
 10
-14.791
 20
-51.5954
 30
0.0
 10
-14.5762
 20
-51.7043
 30
0.0
 10
-14.3595
 20
-51.814
 30
0.0
 10
-14.1689
 20
-51.9465
 30
0.0
 10
-14.0071
 20
-52.1013
 30
0.0
 10
-13.8447
 20
-52.2564
 30
0.0
 10
-13.7089
 20
-52.4359
 30
0.0
 10
-13.6019
 20
-52.6376
 30
0.0
 10
-13.4949
 20
-52.838
 30
0.0
 10
-13.4142
 20
-53.0575
 30
0.0
 10
-13.3607
 20
-53.2959
 30
0.0
 10
-13.3078
 20
-53.5335
 30
0.0
 10
-13.2809
 20
-53.7896
 30
0.0
 10
-13.2809
 20
-54.063
 30
0.0
 10
-13.2809
 20
-54.2319
 30
0.0
 10
-13.2977
 20
-54.3976
 30
0.0
 10
-13.3306
 20
-54.5581
 30
0.0
 10
-13.3637
 20
-54.7188
 30
0.0
 10
-13.414
 20
-54.8745
 30
0.0
 10
-13.4802
 20
-55.0238
 30
0.0
 10
-13.5468
 20
-55.1753
 30
0.0
 10
-13.6315
 20
-55.3157
 30
0.0
 10
-13.7328
 20
-55.4436
 30
0.0
 10
-13.8349
 20
-55.5721
 30
0.0
 10
-13.9544
 20
-55.6899
 30
0.0
 10
-14.0896
 20
-55.7961
 30
0.0
 10
-14.2259
 20
-55.9031
 30
0.0
 10
-14.3794
 20
-55.9925
 30
0.0
 10
-14.5488
 20
-56.0644
 30
0.0
 10
-14.5488
 20
-56.0644
 30
0.0
 10
-14.6914
 20
-56.1195
 30
0.0
 10
-14.6914
 20
-56.1195
 30
0.0
 10
-14.6914
 20
-56.1195
 30
0.0
 10
-14.5431
 20
-56.1747
 30
0.0
 10
-14.5431
 20
-56.1747
 30
0.0
 10
-14.3688
 20
-56.2464
 30
0.0
 10
-14.208
 20
-56.339
 30
0.0
 10
-14.0616
 20
-56.4511
 30
0.0
 10
-13.9145
 20
-56.5652
 30
0.0
 10
-13.7847
 20
-56.6933
 30
0.0
 10
-13.673
 20
-56.834
 30
0.0
 10
-13.5617
 20
-56.9744
 30
0.0
 10
-13.4667
 20
-57.13
 30
0.0
 10
-13.389
 20
-57.2992
 30
0.0
 10
-13.3111
 20
-57.4684
 30
0.0
 10
-13.2524
 20
-57.6443
 30
0.0
 10
-13.2138
 20
-57.8257
 30
0.0
 10
-13.1753
 20
-58.0077
 30
0.0
 10
-13.1557
 20
-58.1964
 30
0.0
 10
-13.1557
 20
-58.3906
 30
0.0
 10
-13.1557
 20
-58.3906
 30
0.0
 10
-13.1557
 20
-58.4107
 30
0.0
 10
-13.1557
 20
-58.4107
 30
0.0
 10
-13.1557
 20
-58.9432
 30
0.0
 10
-13.2747
 20
-59.4146
 30
0.0
 10
-13.512
 20
-59.8239
 30
0.0
 10
-13.6296
 20
-60.0289
 30
0.0
 10
-13.7746
 20
-60.2117
 30
0.0
 10
-13.9441
 20
-60.37
 30
0.0
 10
-14.1132
 20
-60.5283
 30
0.0
 10
-14.3093
 20
-60.6635
 30
0.0
 10
-14.5293
 20
-60.7741
 30
0.0
 10
-14.7484
 20
-60.8854
 30
0.0
 10
-14.9863
 20
-60.969
 30
0.0
 10
-15.241
 20
-61.0244
 30
0.0
 10
-15.4949
 20
-61.0793
 30
0.0
 10
-15.7668
 20
-61.1073
 30
0.0
 10
-16.0557
 20
-61.1073
 30
0.0
 10
-16.0557
 20
-61.1073
 30
0.0
 10
-20.024
 20
-61.1073
 30
0.0
 10
-20.024
 20
-61.1073
 30
0.0
 10
-20.024
 20
-61.1073
 30
0.0
 10
-20.024
 20
-51.3779
 30
0.0
 10
-20.024
 20
-51.3779
 30
0.0
 10
-20.024
 20
-51.3779
 30
0.0
 10
-19.2373
 20
-51.3779
 30
0.0
 10
-19.2373
 20
-51.3779
 30
0.0
  0
SPLINE
  5
75
330
1F
100
AcDbEntity
  8
Layer 1
 62
   250
370
    18
100
AcDbSpline
210
0.0
220
0.0
230
1.0
 70
    11
 71
     3
 72
    77
 73
    73
 74
     0
 42
0.0000000001
 43
0.0000000001
 40
0.0
 40
0.0
 40
0.0
 40
0.0
 40
0.0416666666666667
 40
0.0416666666666667
 40
0.0416666666666667
 40
0.0833333333333333
 40
0.0833333333333333
 40
0.0833333333333333
 40
0.125
 40
0.125
 40
0.125
 40
0.1666666666666667
 40
0.1666666666666667
 40
0.1666666666666667
 40
0.2083333333333333
 40
0.2083333333333333
 40
0.2083333333333333
 40
0.25
 40
0.25
 40
0.25
 40
0.2916666666666666
 40
0.2916666666666666
 40
0.2916666666666666
 40
0.3333333333333333
 40
0.3333333333333333
 40
0.3333333333333333
 40
0.375
 40
0.375
 40
0.375
 40
0.4166666666666666
 40
0.4166666666666666
 40
0.4166666666666666
 40
0.4583333333333333
 40
0.4583333333333333
 40
0.4583333333333333
 40
0.5
 40
0.5
 40
0.5
 40
0.5416666666666666
 40
0.5416666666666666
 40
0.5416666666666666
 40
0.5833333333333333
 40
0.5833333333333333
 40
0.5833333333333333
 40
0.625
 40
0.625
 40
0.625
 40
0.6666666666666666
 40
0.6666666666666666
 40
0.6666666666666666
 40
0.7083333333333333
 40
0.7083333333333333
 40
0.7083333333333333
 40
0.75
 40
0.75
 40
0.75
 40
0.7916666666666666
 40
0.7916666666666666
 40
0.7916666666666666
 40
0.8333333333333333
 40
0.8333333333333333
 40
0.8333333333333333
 40
0.875
 40
0.875
 40
0.875
 40
0.9166666666666666
 40
0.9166666666666666
 40
0.9166666666666666
 40
0.9583333333333333
 40
0.9583333333333333
 40
0.9583333333333333
 40
1.0
 40
1.0
 40
1.0
 40
1.0
 10
-8.3081
 20
-61.2056
 30
0.0
 10
-8.9897
 20
-61.2056
 30
0.0
 10
-9.5931
 20
-61.0554
 30
0.0
 10
-10.1164
 20
-60.7559
 30
0.0
 10
-10.3774
 20
-60.6057
 30
0.0
 10
-10.6099
 20
-60.4243
 30
0.0
 10
-10.8122
 20
-60.2122
 30
0.0
 10
-11.0139
 20
-60.0009
 30
0.0
 10
-11.188
 20
-59.7571
 30
0.0
 10
-11.3319
 20
-59.4823
 30
0.0
 10
-11.4748
 20
-59.2093
 30
0.0
 10
-11.5823
 20
-58.9142
 30
0.0
 10
-11.6532
 20
-58.5994
 30
0.0
 10
-11.7241
 20
-58.2844
 30
0.0
 10
-11.7599
 20
-57.9485
 30
0.0
 10
-11.7599
 20
-57.5928
 30
0.0
 10
-11.7599
 20
-57.5928
 30
0.0
 10
-11.7599
 20
-54.8945
 30
0.0
 10
-11.7599
 20
-54.8945
 30
0.0
 10
-11.7599
 20
-54.538
 30
0.0
 10
-11.7241
 20
-54.2013
 30
0.0
 10
-11.6532
 20
-53.8862
 30
0.0
 10
-11.5823
 20
-53.571
 30
0.0
 10
-11.4748
 20
-53.2755
 30
0.0
 10
-11.3319
 20
-53.0026
 30
0.0
 10
-11.188
 20
-52.7294
 30
0.0
 10
-11.0145
 20
-52.4858
 30
0.0
 10
-10.8122
 20
-52.2737
 30
0.0
 10
-10.6099
 20
-52.0616
 30
0.0
 10
-10.3777
 20
-51.8797
 30
0.0
 10
-10.1164
 20
-51.7295
 30
0.0
 10
-9.8547
 20
-51.5794
 30
0.0
 10
-9.5722
 20
-51.4667
 30
0.0
 10
-9.27
 20
-51.3917
 30
0.0
 10
-8.9683
 20
-51.317
 30
0.0
 10
-8.6476
 20
-51.2796
 30
0.0
 10
-8.3081
 20
-51.2796
 30
0.0
 10
-7.6287
 20
-51.2796
 30
0.0
 10
-7.0253
 20
-51.4297
 30
0.0
 10
-6.502
 20
-51.7293
 30
0.0
 10
-6.2405
 20
-51.88
 30
0.0
 10
-6.0075
 20
-52.0619
 30
0.0
 10
-5.8046
 20
-52.2743
 30
0.0
 10
-5.6029
 20
-52.4861
 30
0.0
 10
-5.4291
 20
-52.7291
 30
0.0
 10
-5.2862
 20
-53.0026
 30
0.0
 10
-5.1434
 20
-53.2755
 30
0.0
 10
-5.0358
 20
-53.571
 30
0.0
 10
-4.965
 20
-53.8862
 30
0.0
 10
-4.8941
 20
-54.2013
 30
0.0
 10
-4.8582
 20
-54.538
 30
0.0
 10
-4.8582
 20
-54.8945
 30
0.0
 10
-4.8582
 20
-54.8945
 30
0.0
 10
-4.8582
 20
-57.5928
 30
0.0
 10
-4.8582
 20
-57.5928
 30
0.0
 10
-4.8582
 20
-57.9485
 30
0.0
 10
-4.8941
 20
-58.2844
 30
0.0
 10
-4.965
 20
-58.5994
 30
0.0
 10
-5.0358
 20
-58.9142
 30
0.0
 10
-5.1434
 20
-59.2093
 30
0.0
 10
-5.2862
 20
-59.4823
 30
0.0
 10
-5.4293
 20
-59.7568
 30
0.0
 10
-5.6029
 20
-60.0007
 30
0.0
 10
-5.8052
 20
-60.2122
 30
0.0
 10
-6.008
 20
-60.4243
 30
0.0
 10
-6.241
 20
-60.6057
 30
0.0
 10
-6.502
 20
-60.7556
 30
0.0
 10
-6.7638
 20
-60.9058
 30
0.0
 10
-7.0459
 20
-61.0185
 30
0.0
 10
-7.3479
 20
-61.0934
 30
0.0
 10
-7.6488
 20
-61.1678
 30
0.0
 10
-7.9695
 20
-61.2056
 30
0.0
 10
-8.3081
 20
-61.2056
 30
0.0
  0
SPLINE
  5
76
330
1F
100
AcDbEntity
  8
Layer 1
 62
   250
370
    18
100
AcDbSpline
210
0.0
220
0.0
230
1.0
 70
    11
 71
     3
 72
    83
 73
    79
 74
     0
 42
0.0000000001
 43
0.0000000001
 40
0.0
 40
0.0
 40
0.0
 40
0.0
 40
0.0384615384615385
 40
0.0384615384615385
 40
0.0384615384615385
 40
0.0769230769230769
 40
0.0769230769230769
 40
0.0769230769230769
 40
0.1153846153846154
 40
0.1153846153846154
 40
0.1153846153846154
 40
0.1538461538461539
 40
0.1538461538461539
 40
0.1538461538461539
 40
0.1923076923076923
 40
0.1923076923076923
 40
0.1923076923076923
 40
0.2307692307692308
 40
0.2307692307692308
 40
0.2307692307692308
 40
0.2692307692307693
 40
0.2692307692307693
 40
0.2692307692307693
 40
0.3076923076923077
 40
0.3076923076923077
 40
0.3076923076923077
 40
0.3461538461538461
 40
0.3461538461538461
 40
0.3461538461538461
 40
0.3846153846153846
 40
0.3846153846153846
 40
0.3846153846153846
 40
0.4230769230769231
 40
0.4230769230769231
 40
0.4230769230769231
 40
0.4615384615384616
 40
0.4615384615384616
 40
0.4615384615384616
 40
0.5
 40
0.5
 40
0.5
 40
0.5384615384615385
 40
0.5384615384615385
 40
0.5384615384615385
 40
0.576923076923077
 40
0.576923076923077
 40
0.576923076923077
 40
0.6153846153846154
 40
0.6153846153846154
 40
0.6153846153846154
 40
0.6538461538461539
 40
0.6538461538461539
 40
0.6538461538461539
 40
0.6923076923076923
 40
0.6923076923076923
 40
0.6923076923076923
 40
0.7307692307692308
 40
0.7307692307692308
 40
0.7307692307692308
 40
0.7692307692307693
 40
0.7692307692307693
 40
0.7692307692307693
 40
0.8076923076923077
 40
0.8076923076923077
 40
0.8076923076923077
 40
0.8461538461538463
 40
0.8461538461538463
 40
0.8461538461538463
 40
0.8846153846153847
 40
0.8846153846153847
 40
0.8846153846153847
 40
0.9230769230769231
 40
0.9230769230769231
 40
0.9230769230769231
 40
0.9615384615384616
 40
0.9615384615384616
 40
0.9615384615384616
 40
1.0
 40
1.0
 40
1.0
 40
1.0
 10
-8.3081
 20
-59.6821
 30
0.0
 10
-8.1213
 20
-59.6821
 30
0.0
 10
-7.9445
 20
-59.6612
 30
0.0
 10
-7.7805
 20
-59.6194
 30
0.0
 10
-7.617
 20
-59.5778
 30
0.0
 10
-7.4644
 20
-59.5148
 30
0.0
 10
-7.3237
 20
-59.4309
 30
0.0
 10
-7.1828
 20
-59.3478
 30
0.0
 10
-7.0576
 20
-59.2471
 30
0.0
 10
-6.9492
 20
-59.1295
 30
0.0
 10
-6.8403
 20
-59.0114
 30
0.0
 10
-6.7469
 20
-58.8751
 30
0.0
 10
-6.6698
 20
-58.7219
 30
0.0
 10
-6.5916
 20
-58.5674
 30
0.0
 10
-6.5327
 20
-58.3998
 30
0.0
 10
-6.4938
 20
-58.2198
 30
0.0
 10
-6.455
 20
-58.0395
 30
0.0
 10
-6.4355
 20
-57.845
 30
0.0
 10
-6.4355
 20
-57.6373
 30
0.0
 10
-6.4355
 20
-57.6373
 30
0.0
 10
-6.4355
 20
-54.8476
 30
0.0
 10
-6.4355
 20
-54.8476
 30
0.0
 10
-6.4355
 20
-54.6401
 30
0.0
 10
-6.455
 20
-54.4451
 30
0.0
 10
-6.4944
 20
-54.2637
 30
0.0
 10
-6.5332
 20
-54.0853
 30
0.0
 10
-6.5919
 20
-53.9188
 30
0.0
 10
-6.6698
 20
-53.7659
 30
0.0
 10
-6.7467
 20
-53.6114
 30
0.0
 10
-6.8401
 20
-53.4746
 30
0.0
 10
-6.9492
 20
-53.3559
 30
0.0
 10
-7.0576
 20
-53.238
 30
0.0
 10
-7.1828
 20
-53.1373
 30
0.0
 10
-7.3232
 20
-53.0545
 30
0.0
 10
-7.4644
 20
-52.9711
 30
0.0
 10
-7.6178
 20
-52.9078
 30
0.0
 10
-7.781
 20
-52.866
 30
0.0
 10
-7.9453
 20
-52.8245
 30
0.0
 10
-8.1213
 20
-52.803
 30
0.0
 10
-8.3081
 20
-52.803
 30
0.0
 10
-8.4958
 20
-52.803
 30
0.0
 10
-8.6723
 20
-52.8245
 30
0.0
 10
-8.8366
 20
-52.8663
 30
0.0
 10
-9.0003
 20
-52.9078
 30
0.0
 10
-9.1538
 20
-52.9711
 30
0.0
 10
-9.295
 20
-53.0545
 30
0.0
 10
-9.4356
 20
-53.137
 30
0.0
 10
-9.5603
 20
-53.238
 30
0.0
 10
-9.6689
 20
-53.3559
 30
0.0
 10
-9.7773
 20
-53.4738
 30
0.0
 10
-9.8707
 20
-53.6106
 30
0.0
 10
-9.9478
 20
-53.7651
 30
0.0
 10
-10.0263
 20
-53.9188
 30
0.0
 10
-10.0849
 20
-54.0853
 30
0.0
 10
-10.1238
 20
-54.2637
 30
0.0
 10
-10.1631
 20
-54.4451
 30
0.0
 10
-10.1827
 20
-54.6401
 30
0.0
 10
-10.1827
 20
-54.8476
 30
0.0
 10
-10.1827
 20
-54.8476
 30
0.0
 10
-10.1827
 20
-57.6373
 30
0.0
 10
-10.1827
 20
-57.6373
 30
0.0
 10
-10.1827
 20
-57.845
 30
0.0
 10
-10.1631
 20
-58.0395
 30
0.0
 10
-10.1243
 20
-58.2198
 30
0.0
 10
-10.0857
 20
-58.399
 30
0.0
 10
-10.0268
 20
-58.5668
 30
0.0
 10
-9.9483
 20
-58.7213
 30
0.0
 10
-9.8718
 20
-58.8748
 30
0.0
 10
-9.7781
 20
-59.0111
 30
0.0
 10
-9.6689
 20
-59.1295
 30
0.0
 10
-9.5606
 20
-59.2471
 30
0.0
 10
-9.4356
 20
-59.3481
 30
0.0
 10
-9.2952
 20
-59.4307
 30
0.0
 10
-9.1543
 20
-59.5148
 30
0.0
 10
-9.0014
 20
-59.5778
 30
0.0
 10
-8.8374
 20
-59.6194
 30
0.0
 10
-8.6731
 20
-59.6612
 30
0.0
 10
-8.496
 20
-59.6821
 30
0.0
 10
-8.3081
 20
-59.6821
 30
0.0
  0
SPLINE
  5
77
330
1F
100
AcDbEntity
  8
Layer 1
 62
   250
370
    18
100
AcDbSpline
210
0.0
220
0.0
230
1.0
 70
    11
 71
     3
 72
    41
 73
    37
 74
     0
 42
0.0000000001
 43
0.0000000001
 40
0.0
 40
0.0
 40
0.0
 40
0.0
 40
0.0833333333333333
 40
0.0833333333333333
 40
0.0833333333333333
 40
0.1666666666666667
 40
0.1666666666666667
 40
0.1666666666666667
 40
0.25
 40
0.25
 40
0.25
 40
0.3333333333333333
 40
0.3333333333333333
 40
0.3333333333333333
 40
0.4166666666666666
 40
0.4166666666666666
 40
0.4166666666666666
 40
0.5
 40
0.5
 40
0.5
 40
0.5833333333333333
 40
0.5833333333333333
 40
0.5833333333333333
 40
0.6666666666666666
 40
0.6666666666666666
 40
0.6666666666666666
 40
0.75
 40
0.75
 40
0.75
 40
0.8333333333333333
 40
0.8333333333333333
 40
0.8333333333333333
 40
0.9166666666666666
 40
0.9166666666666666
 40
0.9166666666666666
 40
1.0
 40
1.0
 40
1.0
 40
1.0
 10
-1.2093
 20
-56.1459
 30
0.0
 10
-1.2093
 20
-56.1459
 30
0.0
 10
-4.1516
 20
-51.3779
 30
0.0
 10
-4.1516
 20
-51.3779
 30
0.0
 10
-4.1516
 20
-51.3779
 30
0.0
 10
-2.4085
 20
-51.3779
 30
0.0
 10
-2.4085
 20
-51.3779
 30
0.0
 10
-2.4085
 20
-51.3779
 30
0.0
 10
-0.3935
 20
-54.7786
 30
0.0
 10
-0.3935
 20
-54.7786
 30
0.0
 10
-0.3935
 20
-54.7786
 30
0.0
 10
1.5983
 20
-51.3779
 30
0.0
 10
1.5983
 20
-51.3779
 30
0.0
 10
1.5983
 20
-51.3779
 30
0.0
 10
3.3412
 20
-51.3779
 30
0.0
 10
3.3412
 20
-51.3779
 30
0.0
 10
3.3412
 20
-51.3779
 30
0.0
 10
0.4315
 20
-56.1396
 30
0.0
 10
0.4315
 20
-56.1396
 30
0.0
 10
0.4315
 20
-56.1396
 30
0.0
 10
3.4873
 20
-61.1073
 30
0.0
 10
3.4873
 20
-61.1073
 30
0.0
 10
3.4873
 20
-61.1073
 30
0.0
 10
1.7439
 20
-61.1073
 30
0.0
 10
1.7439
 20
-61.1073
 30
0.0
 10
1.7439
 20
-61.1073
 30
0.0
 10
-0.3851
 20
-57.5107
 30
0.0
 10
-0.3851
 20
-57.5107
 30
0.0
 10
-0.3851
 20
-57.5107
 30
0.0
 10
-2.4886
 20
-61.1073
 30
0.0
 10
-2.4886
 20
-61.1073
 30
0.0
 10
-2.4886
 20
-61.1073
 30
0.0
 10
-4.2288
 20
-61.1073
 30
0.0
 10
-4.2288
 20
-61.1073
 30
0.0
 10
-4.2288
 20
-61.1073
 30
0.0
 10
-1.2093
 20
-56.1459
 30
0.0
 10
-1.2093
 20
-56.1459
 30
0.0
  0
SPLINE
  5
78
330
1F
100
AcDbEntity
  8
Layer 1
 62
   250
370
    18
100
AcDbSpline
210
0.0
220
0.0
230
1.0
 70
    11
 71
     3
 72
    20
 73
    16
 74
     0
 42
0.0000000001
 43
0.0000000001
 40
0.0
 40
0.0
 40
0.0
 40
0.0
 40
0.2
 40
0.2
 40
0.2
 40
0.4
 40
0.4
 40
0.4
 40
0.6000000000000001
 40
0.6000000000000001
 40
0.6000000000000001
 40
0.8
 40
0.8
 40
0.8
 40
1.0
 40
1.0
 40
1.0
 40
1.0
 10
6.0785
 20
-61.1073
 30
0.0
 10
6.0785
 20
-61.1073
 30
0.0
 10
4.6384
 20
-61.1073
 30
0.0
 10
4.6384
 20
-61.1073
 30
0.0
 10
4.6384
 20
-61.1073
 30
0.0
 10
4.6384
 20
-51.3779
 30
0.0
 10
4.6384
 20
-51.3779
 30
0.0
 10
4.6384
 20
-51.3779
 30
0.0
 10
6.182
 20
-51.3779
 30
0.0
 10
6.182
 20
-51.3779
 30
0.0
 10
6.182
 20
-51.3779
 30
0.0
 10
6.182
 20
-61.1073
 30
0.0
 10
6.182
 20
-61.1073
 30
0.0
 10
6.182
 20
-61.1073
 30
0.0
 10
6.0785
 20
-61.1073
 30
0.0
 10
6.0785
 20
-61.1073
 30
0.0
  0
SPLINE
  5
79
330
1F
100
AcDbEntity
  8
Layer 1
 62
   250
370
    18
100
AcDbSpline
210
0.0
220
0.0
230
1.0
 70
    11
 71
     3
 72
    38
 73
    34
 74
     0
 42
0.0000000001
 43
0.0000000001
 40
0.0
 40
0.0
 40
0.0
 40
0.0
 40
0.0909090909090909
 40
0.0909090909090909
 40
0.0909090909090909
 40
0.1818181818181818
 40
0.1818181818181818
 40
0.1818181818181818
 40
0.2727272727272727
 40
0.2727272727272727
 40
0.2727272727272727
 40
0.3636363636363636
 40
0.3636363636363636
 40
0.3636363636363636
 40
0.4545454545454546
 40
0.4545454545454546
 40
0.4545454545454546
 40
0.5454545454545454
 40
0.5454545454545454
 40
0.5454545454545454
 40
0.6363636363636364
 40
0.6363636363636364
 40
0.6363636363636364
 40
0.7272727272727273
 40
0.7272727272727273
 40
0.7272727272727273
 40
0.8181818181818182
 40
0.8181818181818182
 40
0.8181818181818182
 40
0.9090909090909092
 40
0.9090909090909092
 40
0.9090909090909092
 40
1.0
 40
1.0
 40
1.0
 40
1.0
 10
8.4346
 20
-51.3779
 30
0.0
 10
8.4346
 20
-51.3779
 30
0.0
 10
9.7022
 20
-51.3779
 30
0.0
 10
9.7022
 20
-51.3779
 30
0.0
 10
9.7022
 20
-51.3779
 30
0.0
 10
14.0422
 20
-58.2382
 30
0.0
 10
14.0422
 20
-58.2382
 30
0.0
 10
14.0422
 20
-58.2382
 30
0.0
 10
14.0422
 20
-51.3779
 30
0.0
 10
14.0422
 20
-51.3779
 30
0.0
 10
14.0422
 20
-51.3779
 30
0.0
 10
15.5728
 20
-51.3779
 30
0.0
 10
15.5728
 20
-51.3779
 30
0.0
 10
15.5728
 20
-51.3779
 30
0.0
 10
15.5728
 20
-61.1005
 30
0.0
 10
15.5728
 20
-61.1005
 30
0.0
 10
15.5728
 20
-61.1005
 30
0.0
 10
14.1878
 20
-61.1005
 30
0.0
 10
14.1878
 20
-61.1005
 30
0.0
 10
14.1878
 20
-61.1005
 30
0.0
 10
9.8613
 20
-54.3452
 30
0.0
 10
9.8613
 20
-54.3452
 30
0.0
 10
9.8613
 20
-54.3452
 30
0.0
 10
9.8613
 20
-61.1005
 30
0.0
 10
9.8613
 20
-61.1005
 30
0.0
 10
9.8613
 20
-61.1005
 30
0.0
 10
8.3311
 20
-61.1005
 30
0.0
 10
8.3311
 20
-61.1005
 30
0.0
 10
8.3311
 20
-61.1005
 30
0.0
 10
8.3311
 20
-51.3779
 30
0.0
 10
8.3311
 20
-51.3779
 30
0.0
 10
8.3311
 20
-51.3779
 30
0.0
 10
8.4346
 20
-51.3779
 30
0.0
 10
8.4346
 20
-51.3779
 30
0.0
  0
SPLINE
  5
7A
330
1F
100
AcDbEntity
  8
Layer 1
 62
   250
370
    18
100
AcDbSpline
210
0.0
220
0.0
230
1.0
 70
    11
 71
     3
 72
    77
 73
    73
 74
     0
 42
0.0000000001
 43
0.0000000001
 40
0.0
 40
0.0
 40
0.0
 40
0.0
 40
0.0416666666666667
 40
0.0416666666666667
 40
0.0416666666666667
 40
0.0833333333333333
 40
0.0833333333333333
 40
0.0833333333333333
 40
0.125
 40
0.125
 40
0.125
 40
0.1666666666666667
 40
0.1666666666666667
 40
0.1666666666666667
 40
0.2083333333333333
 40
0.2083333333333333
 40
0.2083333333333333
 40
0.25
 40
0.25
 40
0.25
 40
0.2916666666666666
 40
0.2916666666666666
 40
0.2916666666666666
 40
0.3333333333333333
 40
0.3333333333333333
 40
0.3333333333333333
 40
0.375
 40
0.375
 40
0.375
 40
0.4166666666666666
 40
0.4166666666666666
 40
0.4166666666666666
 40
0.4583333333333333
 40
0.4583333333333333
 40
0.4583333333333333
 40
0.5
 40
0.5
 40
0.5
 40
0.5416666666666666
 40
0.5416666666666666
 40
0.5416666666666666
 40
0.5833333333333333
 40
0.5833333333333333
 40
0.5833333333333333
 40
0.625
 40
0.625
 40
0.625
 40
0.6666666666666666
 40
0.6666666666666666
 40
0.6666666666666666
 40
0.7083333333333333
 40
0.7083333333333333
 40
0.7083333333333333
 40
0.75
 40
0.75
 40
0.75
 40
0.7916666666666666
 40
0.7916666666666666
 40
0.7916666666666666
 40
0.8333333333333333
 40
0.8333333333333333
 40
0.8333333333333333
 40
0.875
 40
0.875
 40
0.875
 40
0.9166666666666666
 40
0.9166666666666666
 40
0.9166666666666666
 40
0.9583333333333333
 40
0.9583333333333333
 40
0.9583333333333333
 40
1.0
 40
1.0
 40
1.0
 40
1.0
 10
20.977
 20
-61.2056
 30
0.0
 10
20.2954
 20
-61.2056
 30
0.0
 10
19.6923
 20
-61.0554
 30
0.0
 10
19.1687
 20
-60.7559
 30
0.0
 10
18.9078
 20
-60.6057
 30
0.0
 10
18.6753
 20
-60.4243
 30
0.0
 10
18.473
 20
-60.2122
 30
0.0
 10
18.2707
 20
-60.0004
 30
0.0
 10
18.0974
 20
-59.7568
 30
0.0
 10
17.9532
 20
-59.4825
 30
0.0
 10
17.8104
 20
-59.2093
 30
0.0
 10
17.7029
 20
-58.9142
 30
0.0
 10
17.632
 20
-58.5994
 30
0.0
 10
17.5611
 20
-58.2844
 30
0.0
 10
17.5253
 20
-57.9485
 30
0.0
 10
17.5253
 20
-57.5928
 30
0.0
 10
17.5253
 20
-57.5928
 30
0.0
 10
17.5253
 20
-54.8945
 30
0.0
 10
17.5253
 20
-54.8945
 30
0.0
 10
17.5253
 20
-54.538
 30
0.0
 10
17.5611
 20
-54.2013
 30
0.0
 10
17.632
 20
-53.8862
 30
0.0
 10
17.7029
 20
-53.571
 30
0.0
 10
17.8104
 20
-53.2755
 30
0.0
 10
17.9532
 20
-53.0026
 30
0.0
 10
18.0974
 20
-52.7294
 30
0.0
 10
18.271
 20
-52.4855
 30
0.0
 10
18.473
 20
-52.2737
 30
0.0
 10
18.6753
 20
-52.0616
 30
0.0
 10
18.9075
 20
-51.8797
 30
0.0
 10
19.1687
 20
-51.7295
 30
0.0
 10
19.4305
 20
-51.5794
 30
0.0
 10
19.7129
 20
-51.4667
 30
0.0
 10
20.0152
 20
-51.3917
 30
0.0
 10
20.3169
 20
-51.317
 30
0.0
 10
20.6376
 20
-51.2796
 30
0.0
 10
20.977
 20
-51.2796
 30
0.0
 10
21.6562
 20
-51.2796
 30
0.0
 10
22.2599
 20
-51.4297
 30
0.0
 10
22.7832
 20
-51.7293
 30
0.0
 10
23.0447
 20
-51.88
 30
0.0
 10
23.2777
 20
-52.0619
 30
0.0
 10
23.4805
 20
-52.2743
 30
0.0
 10
23.6823
 20
-52.4861
 30
0.0
 10
23.8561
 20
-52.7291
 30
0.0
 10
23.9989
 20
-53.0026
 30
0.0
 10
24.1418
 20
-53.2755
 30
0.0
 10
24.2493
 20
-53.571
 30
0.0
 10
24.3202
 20
-53.8862
 30
0.0
 10
24.3911
 20
-54.2013
 30
0.0
 10
24.4269
 20
-54.538
 30
0.0
 10
24.4269
 20
-54.8945
 30
0.0
 10
24.4269
 20
-54.8945
 30
0.0
 10
24.4269
 20
-57.5928
 30
0.0
 10
24.4269
 20
-57.5928
 30
0.0
 10
24.4269
 20
-57.9485
 30
0.0
 10
24.3911
 20
-58.2844
 30
0.0
 10
24.3202
 20
-58.5994
 30
0.0
 10
24.2493
 20
-58.9142
 30
0.0
 10
24.1418
 20
-59.2091
 30
0.0
 10
23.9989
 20
-59.482
 30
0.0
 10
23.8572
 20
-59.756
 30
0.0
 10
23.6831
 20
-59.9998
 30
0.0
 10
23.48
 20
-60.2122
 30
0.0
 10
23.2771
 20
-60.4243
 30
0.0
 10
23.0441
 20
-60.6057
 30
0.0
 10
22.7832
 20
-60.7556
 30
0.0
 10
22.5214
 20
-60.9058
 30
0.0
 10
22.2392
 20
-61.0185
 30
0.0
 10
21.9373
 20
-61.0934
 30
0.0
 10
21.6364
 20
-61.1678
 30
0.0
 10
21.3157
 20
-61.2056
 30
0.0
 10
20.977
 20
-61.2056
 30
0.0
  0
SPLINE
  5
7B
330
1F
100
AcDbEntity
  8
Layer 1
 62
   250
370
    18
100
AcDbSpline
210
0.0
220
0.0
230
1.0
 70
    11
 71
     3
 72
    83
 73
    79
 74
     0
 42
0.0000000001
 43
0.0000000001
 40
0.0
 40
0.0
 40
0.0
 40
0.0
 40
0.0384615384615385
 40
0.0384615384615385
 40
0.0384615384615385
 40
0.0769230769230769
 40
0.0769230769230769
 40
0.0769230769230769
 40
0.1153846153846154
 40
0.1153846153846154
 40
0.1153846153846154
 40
0.1538461538461539
 40
0.1538461538461539
 40
0.1538461538461539
 40
0.1923076923076923
 40
0.1923076923076923
 40
0.1923076923076923
 40
0.2307692307692308
 40
0.2307692307692308
 40
0.2307692307692308
 40
0.2692307692307693
 40
0.2692307692307693
 40
0.2692307692307693
 40
0.3076923076923077
 40
0.3076923076923077
 40
0.3076923076923077
 40
0.3461538461538461
 40
0.3461538461538461
 40
0.3461538461538461
 40
0.3846153846153846
 40
0.3846153846153846
 40
0.3846153846153846
 40
0.4230769230769231
 40
0.4230769230769231
 40
0.4230769230769231
 40
0.4615384615384616
 40
0.4615384615384616
 40
0.4615384615384616
 40
0.5
 40
0.5
 40
0.5
 40
0.5384615384615385
 40
0.5384615384615385
 40
0.5384615384615385
 40
0.576923076923077
 40
0.576923076923077
 40
0.576923076923077
 40
0.6153846153846154
 40
0.6153846153846154
 40
0.6153846153846154
 40
0.6538461538461539
 40
0.6538461538461539
 40
0.6538461538461539
 40
0.6923076923076923
 40
0.6923076923076923
 40
0.6923076923076923
 40
0.7307692307692308
 40
0.7307692307692308
 40
0.7307692307692308
 40
0.7692307692307693
 40
0.7692307692307693
 40
0.7692307692307693
 40
0.8076923076923077
 40
0.8076923076923077
 40
0.8076923076923077
 40
0.8461538461538463
 40
0.8461538461538463
 40
0.8461538461538463
 40
0.8846153846153847
 40
0.8846153846153847
 40
0.8846153846153847
 40
0.9230769230769231
 40
0.9230769230769231
 40
0.9230769230769231
 40
0.9615384615384616
 40
0.9615384615384616
 40
0.9615384615384616
 40
1.0
 40
1.0
 40
1.0
 40
1.0
 10
20.977
 20
-59.6821
 30
0.0
 10
21.1641
 20
-59.6821
 30
0.0
 10
21.3407
 20
-59.6612
 30
0.0
 10
21.5047
 20
-59.6194
 30
0.0
 10
21.6682
 20
-59.5778
 30
0.0
 10
21.821
 20
-59.5148
 30
0.0
 10
21.9614
 20
-59.4309
 30
0.0
 10
22.1027
 20
-59.3481
 30
0.0
 10
22.2276
 20
-59.2471
 30
0.0
 10
22.3359
 20
-59.1295
 30
0.0
 10
22.4451
 20
-59.0111
 30
0.0
 10
22.5388
 20
-58.8748
 30
0.0
 10
22.6154
 20
-58.7222
 30
0.0
 10
22.6938
 20
-58.5668
 30
0.0
 10
22.7528
 20
-58.399
 30
0.0
 10
22.7913
 20
-58.2198
 30
0.0
 10
22.8302
 20
-58.0395
 30
0.0
 10
22.8497
 20
-57.845
 30
0.0
 10
22.8497
 20
-57.6373
 30
0.0
 10
22.8497
 20
-57.6373
 30
0.0
 10
22.8497
 20
-54.8476
 30
0.0
 10
22.8497
 20
-54.8476
 30
0.0
 10
22.8497
 20
-54.6401
 30
0.0
 10
22.8302
 20
-54.4451
 30
0.0
 10
22.7908
 20
-54.2637
 30
0.0
 10
22.752
 20
-54.0853
 30
0.0
 10
22.6933
 20
-53.9188
 30
0.0
 10
22.6154
 20
-53.7659
 30
0.0
 10
22.5377
 20
-53.6106
 30
0.0
 10
22.4443
 20
-53.4738
 30
0.0
 10
22.3359
 20
-53.3559
 30
0.0
 10
22.2273
 20
-53.238
 30
0.0
 10
22.1027
 20
-53.137
 30
0.0
 10
21.9623
 20
-53.0545
 30
0.0
 10
21.8208
 20
-52.9711
 30
0.0
 10
21.6673
 20
-52.9078
 30
0.0
 10
21.5041
 20
-52.866
 30
0.0
 10
21.3398
 20
-52.8245
 30
0.0
 10
21.1639
 20
-52.803
 30
0.0
 10
20.977
 20
-52.803
 30
0.0
 10
20.7894
 20
-52.803
 30
0.0
 10
20.6129
 20
-52.8245
 30
0.0
 10
20.4486
 20
-52.8663
 30
0.0
 10
20.2848
 20
-52.9078
 30
0.0
 10
20.1314
 20
-52.9711
 30
0.0
 10
19.9902
 20
-53.0545
 30
0.0
 10
19.8498
 20
-53.1373
 30
0.0
 10
19.7246
 20
-53.238
 30
0.0
 10
19.6163
 20
-53.3559
 30
0.0
 10
19.5071
 20
-53.4746
 30
0.0
 10
19.4137
 20
-53.6114
 30
0.0
 10
19.3368
 20
-53.7651
 30
0.0
 10
19.2589
 20
-53.9188
 30
0.0
 10
19.2002
 20
-54.0853
 30
0.0
 10
19.1614
 20
-54.2637
 30
0.0
 10
19.122
 20
-54.4451
 30
0.0
 10
19.1025
 20
-54.6401
 30
0.0
 10
19.1025
 20
-54.8476
 30
0.0
 10
19.1025
 20
-54.8476
 30
0.0
 10
19.1025
 20
-57.6373
 30
0.0
 10
19.1025
 20
-57.6373
 30
0.0
 10
19.1025
 20
-57.845
 30
0.0
 10
19.122
 20
-58.0395
 30
0.0
 10
19.1609
 20
-58.2198
 30
0.0
 10
19.1997
 20
-58.3998
 30
0.0
 10
19.2586
 20
-58.5674
 30
0.0
 10
19.3368
 20
-58.7219
 30
0.0
 10
19.414
 20
-58.8751
 30
0.0
 10
19.5074
 20
-59.0114
 30
0.0
 10
19.6163
 20
-59.1295
 30
0.0
 10
19.7246
 20
-59.2471
 30
0.0
 10
19.8498
 20
-59.3478
 30
0.0
 10
19.9902
 20
-59.4307
 30
0.0
 10
20.1314
 20
-59.5148
 30
0.0
 10
20.284
 20
-59.5778
 30
0.0
 10
20.4478
 20
-59.6194
 30
0.0
 10
20.6121
 20
-59.6612
 30
0.0
 10
20.7891
 20
-59.6821
 30
0.0
 10
20.977
 20
-59.6821
 30
0.0
  0
SPLINE
  5
7C
330
1F
100
AcDbEntity
  8
Layer 1
 62
   250
370
    18
100
AcDbSpline
210
0.0
220
0.0
230
1.0
 70
    11
 71
     3
 72
    20
 73
    16
 74
     0
 42
0.0000000001
 43
0.0000000001
 40
0.0
 40
0.0
 40
0.0
 40
0.0
 40
0.2
 40
0.2
 40
0.2
 40
0.4
 40
0.4
 40
0.4
 40
0.6000000000000001
 40
0.6000000000000001
 40
0.6000000000000001
 40
0.8
 40
0.8
 40
0.8
 40
1.0
 40
1.0
 40
1.0
 40
1.0
 10
25.7296
 20
-59.4988
 30
0.0
 10
25.7296
 20
-59.4988
 30
0.0
 10
27.2346
 20
-59.4988
 30
0.0
 10
27.2346
 20
-59.4988
 30
0.0
 10
27.2346
 20
-59.4988
 30
0.0
 10
27.2346
 20
-61.1073
 30
0.0
 10
27.2346
 20
-61.1073
 30
0.0
 10
27.2346
 20
-61.1073
 30
0.0
 10
25.6261
 20
-61.1073
 30
0.0
 10
25.6261
 20
-61.1073
 30
0.0
 10
25.6261
 20
-61.1073
 30
0.0
 10
25.6261
 20
-59.4988
 30
0.0
 10
25.6261
 20
-59.4988
 30
0.0
 10
25.6261
 20
-59.4988
 30
0.0
 10
25.7296
 20
-59.4988
 30
0.0
 10
25.7296
 20
-59.4988
 30
0.0
  0
SPLINE
  5
7D
330
1F
100
AcDbEntity
  8
Layer 1
 62
   250
370
    18
100
AcDbSpline
210
0.0
220
0.0
230
1.0
 70
    11
 71
     3
 72
    20
 73
    16
 74
     0
 42
0.0000000001
 43
0.0000000001
 40
0.0
 40
0.0
 40
0.0
 40
0.0
 40
0.2
 40
0.2
 40
0.2
 40
0.4
 40
0.4
 40
0.4
 40
0.6000000000000001
 40
0.6000000000000001
 40
0.6000000000000001
 40
0.8
 40
0.8
 40
0.8
 40
1.0
 40
1.0
 40
1.0
 40
1.0
 10
30.4639
 20
-61.1073
 30
0.0
 10
30.4639
 20
-61.1073
 30
0.0
 10
29.0239
 20
-61.1073
 30
0.0
 10
29.0239
 20
-61.1073
 30
0.0
 10
29.0239
 20
-61.1073
 30
0.0
 10
29.0239
 20
-51.3779
 30
0.0
 10
29.0239
 20
-51.3779
 30
0.0
 10
29.0239
 20
-51.3779
 30
0.0
 10
30.5674
 20
-51.3779
 30
0.0
 10
30.5674
 20
-51.3779
 30
0.0
 10
30.5674
 20
-51.3779
 30
0.0
 10
30.5674
 20
-61.1073
 30
0.0
 10
30.5674
 20
-61.1073
 30
0.0
 10
30.5674
 20
-61.1073
 30
0.0
 10
30.4639
 20
-61.1073
 30
0.0
 10
30.4639
 20
-61.1073
 30
0.0
  0
SPLINE
  5
7E
330
1F
100
AcDbEntity
  8
Layer 1
 62
   250
370
    18
100
AcDbSpline
210
0.0
220
0.0
230
1.0
 70
    11
 71
     3
 72
    50
 73
    46
 74
     0
 42
0.0000000001
 43
0.0000000001
 40
0.0
 40
0.0
 40
0.0
 40
0.0
 40
0.0666666666666667
 40
0.0666666666666667
 40
0.0666666666666667
 40
0.1333333333333333
 40
0.1333333333333333
 40
0.1333333333333333
 40
0.2
 40
0.2
 40
0.2
 40
0.2666666666666667
 40
0.2666666666666667
 40
0.2666666666666667
 40
0.3333333333333333
 40
0.3333333333333333
 40
0.3333333333333333
 40
0.4
 40
0.4
 40
0.4
 40
0.4666666666666667
 40
0.4666666666666667
 40
0.4666666666666667
 40
0.5333333333333333
 40
0.5333333333333333
 40
0.5333333333333333
 40
0.6
 40
0.6
 40
0.6
 40
0.6666666666666666
 40
0.6666666666666666
 40
0.6666666666666666
 40
0.7333333333333333
 40
0.7333333333333333
 40
0.7333333333333333
 40
0.8
 40
0.8
 40
0.8
 40
0.8666666666666667
 40
0.8666666666666667
 40
0.8666666666666667
 40
0.9333333333333333
 40
0.9333333333333333
 40
0.9333333333333333
 40
1.0
 40
1.0
 40
1.0
 40
1.0
 10
34.2601
 20
-55.6025
 30
0.0
 10
34.2601
 20
-55.6025
 30
0.0
 10
36.6514
 20
-55.6025
 30
0.0
 10
36.6514
 20
-55.6025
 30
0.0
 10
36.7687
 20
-55.6025
 30
0.0
 10
36.8798
 20
-55.5884
 30
0.0
 10
36.9838
 20
-55.5601
 30
0.0
 10
37.0875
 20
-55.5322
 30
0.0
 10
37.1842
 20
-55.4903
 30
0.0
 10
37.2719
 20
-55.4355
 30
0.0
 10
37.3615
 20
-55.379
 30
0.0
 10
37.4416
 20
-55.3117
 30
0.0
 10
37.5104
 20
-55.2332
 30
0.0
 10
37.5796
 20
-55.1542
 30
0.0
 10
37.6399
 20
-55.0621
 30
0.0
 10
37.689
 20
-54.9578
 30
0.0
 10
37.7382
 20
-54.8527
 30
0.0
 10
37.7757
 20
-54.7392
 30
0.0
 10
37.8001
 20
-54.6186
 30
0.0
 10
37.8248
 20
-54.4975
 30
0.0
 10
37.8376
 20
-54.3664
 30
0.0
 10
37.8376
 20
-54.2262
 30
0.0
 10
37.8376
 20
-54.0861
 30
0.0
 10
37.8248
 20
-53.9547
 30
0.0
 10
37.8004
 20
-53.8338
 30
0.0
 10
37.7757
 20
-53.713
 30
0.0
 10
37.7382
 20
-53.5992
 30
0.0
 10
37.689
 20
-53.4947
 30
0.0
 10
37.6399
 20
-53.3904
 30
0.0
 10
37.5796
 20
-53.2981
 30
0.0
 10
37.5106
 20
-53.2188
 30
0.0
 10
37.4416
 20
-53.1395
 30
0.0
 10
37.3624
 20
-53.0718
 30
0.0
 10
37.2746
 20
-53.0175
 30
0.0
 10
37.1875
 20
-52.9619
 30
0.0
 10
37.0919
 20
-52.92
 30
0.0
 10
36.9895
 20
-52.8923
 30
0.0
 10
36.8847
 20
-52.8641
 30
0.0
 10
36.7712
 20
-52.85
 30
0.0
 10
36.6514
 20
-52.85
 30
0.0
 10
36.6514
 20
-52.85
 30
0.0
 10
34.2601
 20
-52.85
 30
0.0
 10
34.2601
 20
-52.85
 30
0.0
 10
34.2601
 20
-52.85
 30
0.0
 10
34.2601
 20
-55.6025
 30
0.0
 10
34.2601
 20
-55.6025
 30
0.0
  0
SPLINE
  5
7F
330
1F
100
AcDbEntity
  8
Layer 1
 62
   250
370
    18
100
AcDbSpline
210
0.0
220
0.0
230
1.0
 70
    11
 71
     3
 72
    62
 73
    58
 74
     0
 42
0.0000000001
 43
0.0000000001
 40
0.0
 40
0.0
 40
0.0
 40
0.0
 40
0.0526315789473684
 40
0.0526315789473684
 40
0.0526315789473684
 40
0.1052631578947368
 40
0.1052631578947368
 40
0.1052631578947368
 40
0.1578947368421053
 40
0.1578947368421053
 40
0.1578947368421053
 40
0.2105263157894737
 40
0.2105263157894737
 40
0.2105263157894737
 40
0.2631578947368421
 40
0.2631578947368421
 40
0.2631578947368421
 40
0.3157894736842105
 40
0.3157894736842105
 40
0.3157894736842105
 40
0.3684210526315789
 40
0.3684210526315789
 40
0.3684210526315789
 40
0.4210526315789473
 40
0.4210526315789473
 40
0.4210526315789473
 40
0.4736842105263158
 40
0.4736842105263158
 40
0.4736842105263158
 40
0.5263157894736842
 40
0.5263157894736842
 40
0.5263157894736842
 40
0.5789473684210527
 40
0.5789473684210527
 40
0.5789473684210527
 40
0.631578947368421
 40
0.631578947368421
 40
0.631578947368421
 40
0.6842105263157894
 40
0.6842105263157894
 40
0.6842105263157894
 40
0.7368421052631579
 40
0.7368421052631579
 40
0.7368421052631579
 40
0.7894736842105263
 40
0.7894736842105263
 40
0.7894736842105263
 40
0.8421052631578947
 40
0.8421052631578947
 40
0.8421052631578947
 40
0.894736842105263
 40
0.894736842105263
 40
0.894736842105263
 40
0.9473684210526315
 40
0.9473684210526315
 40
0.9473684210526315
 40
1.0
 40
1.0
 40
1.0
 40
1.0
 10
33.2998
 20
-51.3711
 30
0.0
 10
33.2998
 20
-51.3711
 30
0.0
 10
36.5998
 20
-51.3711
 30
0.0
 10
36.5998
 20
-51.3711
 30
0.0
 10
37.1666
 20
-51.3711
 30
0.0
 10
37.666
 20
-51.4897
 30
0.0
 10
38.0999
 20
-51.7263
 30
0.0
 10
38.3161
 20
-51.8428
 30
0.0
 10
38.5094
 20
-51.9862
 30
0.0
 10
38.6789
 20
-52.1553
 30
0.0
 10
38.8464
 20
-52.3223
 30
0.0
 10
38.9903
 20
-52.5151
 30
0.0
 10
39.1087
 20
-52.7321
 30
0.0
 10
39.2285
 20
-52.9483
 30
0.0
 10
39.3184
 20
-53.1818
 30
0.0
 10
39.3776
 20
-53.4303
 30
0.0
 10
39.4368
 20
-53.679
 30
0.0
 10
39.4664
 20
-53.9449
 30
0.0
 10
39.4664
 20
-54.2262
 30
0.0
 10
39.4664
 20
-54.5062
 30
0.0
 10
39.436
 20
-54.771
 30
0.0
 10
39.3762
 20
-55.02
 30
0.0
 10
39.3162
 20
-55.2698
 30
0.0
 10
39.2258
 20
-55.5037
 30
0.0
 10
39.1068
 20
-55.7201
 30
0.0
 10
38.986
 20
-55.9365
 30
0.0
 10
38.8407
 20
-56.1288
 30
0.0
 10
38.6718
 20
-56.2966
 30
0.0
 10
38.5029
 20
-56.4644
 30
0.0
 10
38.3096
 20
-56.6081
 30
0.0
 10
38.0937
 20
-56.7265
 30
0.0
 10
37.972
 20
-56.7925
 30
0.0
 10
37.8457
 20
-56.849
 30
0.0
 10
37.7146
 20
-56.8962
 30
0.0
 10
37.7146
 20
-56.8962
 30
0.0
 10
39.934
 20
-61.1073
 30
0.0
 10
39.934
 20
-61.1073
 30
0.0
 10
39.934
 20
-61.1073
 30
0.0
 10
38.1146
 20
-61.1073
 30
0.0
 10
38.1146
 20
-61.1073
 30
0.0
 10
38.1146
 20
-61.1073
 30
0.0
 10
36.0822
 20
-57.0792
 30
0.0
 10
36.0822
 20
-57.0792
 30
0.0
 10
36.0822
 20
-57.0792
 30
0.0
 10
34.2601
 20
-57.0792
 30
0.0
 10
34.2601
 20
-57.0792
 30
0.0
 10
34.2601
 20
-57.0792
 30
0.0
 10
34.2601
 20
-61.1073
 30
0.0
 10
34.2601
 20
-61.1073
 30
0.0
 10
34.2601
 20
-61.1073
 30
0.0
 10
32.7165
 20
-61.1073
 30
0.0
 10
32.7165
 20
-61.1073
 30
0.0
 10
32.7165
 20
-61.1073
 30
0.0
 10
32.7165
 20
-51.3711
 30
0.0
 10
32.7165
 20
-51.3711
 30
0.0
 10
32.7165
 20
-51.3711
 30
0.0
 10
33.2998
 20
-51.3711
 30
0.0
 10
33.2998
 20
-51.3711
 30
0.0
  0
SPLINE
  5
80
330
1F
100
AcDbEntity
  8
Layer 1
 62
   250
370
    18
100
AcDbSpline
210
0.0
220
0.0
230
1.0
 70
    11
 71
     3
 72
   278
 73
   274
 74
     0
 42
0.0000000001
 43
0.0000000001
 40
0.0
 40
0.0
 40
0.0
 40
0.0
 40
0.010989010989011
 40
0.010989010989011
 40
0.010989010989011
 40
0.021978021978022
 40
0.021978021978022
 40
0.021978021978022
 40
0.032967032967033
 40
0.032967032967033
 40
0.032967032967033
 40
0.043956043956044
 40
0.043956043956044
 40
0.043956043956044
 40
0.054945054945055
 40
0.054945054945055
 40
0.054945054945055
 40
0.0659340659340659
 40
0.0659340659340659
 40
0.0659340659340659
 40
0.0769230769230769
 40
0.0769230769230769
 40
0.0769230769230769
 40
0.0879120879120879
 40
0.0879120879120879
 40
0.0879120879120879
 40
0.0989010989010989
 40
0.0989010989010989
 40
0.0989010989010989
 40
0.1098901098901099
 40
0.1098901098901099
 40
0.1098901098901099
 40
0.1208791208791209
 40
0.1208791208791209
 40
0.1208791208791209
 40
0.1318681318681319
 40
0.1318681318681319
 40
0.1318681318681319
 40
0.1428571428571429
 40
0.1428571428571429
 40
0.1428571428571429
 40
0.1538461538461539
 40
0.1538461538461539
 40
0.1538461538461539
 40
0.1648351648351649
 40
0.1648351648351649
 40
0.1648351648351649
 40
0.1758241758241758
 40
0.1758241758241758
 40
0.1758241758241758
 40
0.1868131868131868
 40
0.1868131868131868
 40
0.1868131868131868
 40
0.1978021978021978
 40
0.1978021978021978
 40
0.1978021978021978
 40
0.2087912087912088
 40
0.2087912087912088
 40
0.2087912087912088
 40
0.2197802197802198
 40
0.2197802197802198
 40
0.2197802197802198
 40
0.2307692307692308
 40
0.2307692307692308
 40
0.2307692307692308
 40
0.2417582417582418
 40
0.2417582417582418
 40
0.2417582417582418
 40
0.2527472527472528
 40
0.2527472527472528
 40
0.2527472527472528
 40
0.2637362637362637
 40
0.2637362637362637
 40
0.2637362637362637
 40
0.2747252747252747
 40
0.2747252747252747
 40
0.2747252747252747
 40
0.2857142857142858
 40
0.2857142857142858
 40
0.2857142857142858
 40
0.2967032967032967
 40
0.2967032967032967
 40
0.2967032967032967
 40
0.3076923076923077
 40
0.3076923076923077
 40
0.3076923076923077
 40
0.3186813186813187
 40
0.3186813186813187
 40
0.3186813186813187
 40
0.3296703296703297
 40
0.3296703296703297
 40
0.3296703296703297
 40
0.3406593406593407
 40
0.3406593406593407
 40
0.3406593406593407
 40
0.3516483516483517
 40
0.3516483516483517
 40
0.3516483516483517
 40
0.3626373626373627
 40
0.3626373626373627
 40
0.3626373626373627
 40
0.3736263736263736
 40
0.3736263736263736
 40
0.3736263736263736
 40
0.3846153846153846
 40
0.3846153846153846
 40
0.3846153846153846
 40
0.3956043956043956
 40
0.3956043956043956
 40
0.3956043956043956
 40
0.4065934065934066
 40
0.4065934065934066
 40
0.4065934065934066
 40
0.4175824175824176
 40
0.4175824175824176
 40
0.4175824175824176
 40
0.4285714285714286
 40
0.4285714285714286
 40
0.4285714285714286
 40
0.4395604395604396
 40
0.4395604395604396
 40
0.4395604395604396
 40
0.4505494505494506
 40
0.4505494505494506
 40
0.4505494505494506
 40
0.4615384615384616
 40
0.4615384615384616
 40
0.4615384615384616
 40
0.4725274725274726
 40
0.4725274725274726
 40
0.4725274725274726
 40
0.4835164835164836
 40
0.4835164835164836
 40
0.4835164835164836
 40
0.4945054945054945
 40
0.4945054945054945
 40
0.4945054945054945
 40
0.5054945054945056
 40
0.5054945054945056
 40
0.5054945054945056
 40
0.5164835164835165
 40
0.5164835164835165
 40
0.5164835164835165
 40
0.5274725274725275
 40
0.5274725274725275
 40
0.5274725274725275
 40
0.5384615384615385
 40
0.5384615384615385
 40
0.5384615384615385
 40
0.5494505494505495
 40
0.5494505494505495
 40
0.5494505494505495
 40
0.5604395604395604
 40
0.5604395604395604
 40
0.5604395604395604
 40
0.5714285714285715
 40
0.5714285714285715
 40
0.5714285714285715
 40
0.5824175824175825
 40
0.5824175824175825
 40
0.5824175824175825
 40
0.5934065934065934
 40
0.5934065934065934
 40
0.5934065934065934
 40
0.6043956043956045
 40
0.6043956043956045
 40
0.6043956043956045
 40
0.6153846153846154
 40
0.6153846153846154
 40
0.6153846153846154
 40
0.6263736263736264
 40
0.6263736263736264
 40
0.6263736263736264
 40
0.6373626373626374
 40
0.6373626373626374
 40
0.6373626373626374
 40
0.6483516483516484
 40
0.6483516483516484
 40
0.6483516483516484
 40
0.6593406593406594
 40
0.6593406593406594
 40
0.6593406593406594
 40
0.6703296703296704
 40
0.6703296703296704
 40
0.6703296703296704
 40
0.6813186813186813
 40
0.6813186813186813
 40
0.6813186813186813
 40
0.6923076923076924
 40
0.6923076923076924
 40
0.6923076923076924
 40
0.7032967032967034
 40
0.7032967032967034
 40
0.7032967032967034
 40
0.7142857142857143
 40
0.7142857142857143
 40
0.7142857142857143
 40
0.7252747252747254
 40
0.7252747252747254
 40
0.7252747252747254
 40
0.7362637362637363
 40
0.7362637362637363
 40
0.7362637362637363
 40
0.7472527472527473
 40
0.7472527472527473
 40
0.7472527472527473
 40
0.7582417582417583
 40
0.7582417582417583
 40
0.7582417582417583
 40
0.7692307692307693
 40
0.7692307692307693
 40
0.7692307692307693
 40
0.7802197802197803
 40
0.7802197802197803
 40
0.7802197802197803
 40
0.7912087912087913
 40
0.7912087912087913
 40
0.7912087912087913
 40
0.8021978021978022
 40
0.8021978021978022
 40
0.8021978021978022
 40
0.8131868131868133
 40
0.8131868131868133
 40
0.8131868131868133
 40
0.8241758241758242
 40
0.8241758241758242
 40
0.8241758241758242
 40
0.8351648351648352
 40
0.8351648351648352
 40
0.8351648351648352
 40
0.8461538461538463
 40
0.8461538461538463
 40
0.8461538461538463
 40
0.8571428571428572
 40
0.8571428571428572
 40
0.8571428571428572
 40
0.8681318681318682
 40
0.8681318681318682
 40
0.8681318681318682
 40
0.8791208791208792
 40
0.8791208791208792
 40
0.8791208791208792
 40
0.8901098901098902
 40
0.8901098901098902
 40
0.8901098901098902
 40
0.9010989010989011
 40
0.9010989010989011
 40
0.9010989010989011
 40
0.9120879120879122
 40
0.9120879120879122
 40
0.9120879120879122
 40
0.9230769230769231
 40
0.9230769230769231
 40
0.9230769230769231
 40
0.9340659340659342
 40
0.9340659340659342
 40
0.9340659340659342
 40
0.9450549450549451
 40
0.9450549450549451
 40
0.9450549450549451
 40
0.9560439560439561
 40
0.9560439560439561
 40
0.9560439560439561
 40
0.9670329670329672
 40
0.9670329670329672
 40
0.9670329670329672
 40
0.9780219780219781
 40
0.9780219780219781
 40
0.9780219780219781
 40
0.989010989010989
 40
0.989010989010989
 40
0.989010989010989
 40
1.0
 40
1.0
 40
1.0
 40
1.0
 10
-40.126
 20
-34.0639
 30
0.0
 10
-40.126
 20
-34.0639
 30
0.0
 10
-40.0352
 20
-33.9619
 30
0.0
 10
-40.0352
 20
-33.9619
 30
0.0
 10
-39.998
 20
-33.9202
 30
0.0
 10
-39.9641
 20
-33.8736
 30
0.0
 10
-39.9342
 20
-33.824
 30
0.0
 10
-39.9033
 20
-33.7729
 30
0.0
 10
-39.8773
 20
-33.7196
 30
0.0
 10
-39.8564
 20
-33.6655
 30
0.0
 10
-39.8345
 20
-33.6089
 30
0.0
 10
-39.8172
 20
-33.55
 30
0.0
 10
-39.8051
 20
-33.4904
 30
0.0
 10
-39.7928
 20
-33.4304
 30
0.0
 10
-39.7853
 20
-33.3687
 30
0.0
 10
-39.7829
 20
-33.3067
 30
0.0
 10
-39.7806
 20
-33.2457
 30
0.0
 10
-39.7832
 20
-33.1832
 30
0.0
 10
-39.7909
 20
-33.1209
 30
0.0
 10
-39.7984
 20
-33.0594
 30
0.0
 10
-39.811
 20
-32.9989
 30
0.0
 10
-39.8282
 20
-32.9407
 30
0.0
 10
-39.845
 20
-32.8839
 30
0.0
 10
-39.8668
 20
-32.828
 30
0.0
 10
-39.8932
 20
-32.7745
 30
0.0
 10
-39.9189
 20
-32.7226
 30
0.0
 10
-39.9494
 20
-32.6723
 30
0.0
 10
-39.9843
 20
-32.6249
 30
0.0
 10
-40.2846
 20
-32.2164
 30
0.0
 10
-40.6613
 20
-31.6019
 30
0.0
 10
-41.0045
 20
-31.2557
 30
0.0
 10
-41.0384
 20
-31.2222
 30
0.0
 10
-41.0736
 20
-31.1925
 30
0.0
 10
-41.1095
 20
-31.1672
 30
0.0
 10
-41.1465
 20
-31.1411
 30
0.0
 10
-41.185
 20
-31.1185
 30
0.0
 10
-41.2245
 20
-31.0999
 30
0.0
 10
-41.2637
 20
-31.0814
 30
0.0
 10
-41.3044
 20
-31.0664
 30
0.0
 10
-41.3456
 20
-31.0553
 30
0.0
 10
-41.3866
 20
-31.0443
 30
0.0
 10
-41.4288
 20
-31.0369
 30
0.0
 10
-41.4711
 20
-31.0336
 30
0.0
 10
-41.5143
 20
-31.0302
 30
0.0
 10
-41.5571
 20
-31.0306
 30
0.0
 10
-41.5986
 20
-31.0347
 30
0.0
 10
-41.6408
 20
-31.039
 30
0.0
 10
-41.6828
 20
-31.0472
 30
0.0
 10
-41.7235
 20
-31.059
 30
0.0
 10
-41.7631
 20
-31.0705
 30
0.0
 10
-41.8035
 20
-31.0865
 30
0.0
 10
-41.8437
 20
-31.1065
 30
0.0
 10
-41.8815
 20
-31.1251
 30
0.0
 10
-41.9191
 20
-31.1481
 30
0.0
 10
-41.9557
 20
-31.1749
 30
0.0
 10
-41.9557
 20
-31.1749
 30
0.0
 10
-42.0089
 20
-31.2172
 30
0.0
 10
-42.0089
 20
-31.2172
 30
0.0
 10
-42.2939
 20
-31.4735
 30
0.0
 10
-42.5817
 20
-31.7925
 30
0.0
 10
-42.8545
 20
-32.0682
 30
0.0
 10
-42.8818
 20
-32.0958
 30
0.0
 10
-42.9076
 20
-32.1257
 30
0.0
 10
-42.9313
 20
-32.1567
 30
0.0
 10
-42.9544
 20
-32.1868
 30
0.0
 10
-42.9766
 20
-32.2204
 30
0.0
 10
-42.9977
 20
-32.2564
 30
0.0
 10
-43.018
 20
-32.2912
 30
0.0
 10
-43.0366
 20
-32.328
 30
0.0
 10
-43.0529
 20
-32.3658
 30
0.0
 10
-43.0694
 20
-32.4041
 30
0.0
 10
-43.0838
 20
-32.4435
 30
0.0
 10
-43.0955
 20
-32.4828
 30
0.0
 10
-43.1075
 20
-32.523
 30
0.0
 10
-43.1174
 20
-32.5646
 30
0.0
 10
-43.1249
 20
-32.6069
 30
0.0
 10
-43.1323
 20
-32.649
 30
0.0
 10
-43.1376
 20
-32.6919
 30
0.0
 10
-43.1402
 20
-32.7345
 30
0.0
 10
-43.1429
 20
-32.778
 30
0.0
 10
-43.1432
 20
-32.8217
 30
0.0
 10
-43.1411
 20
-32.8649
 30
0.0
 10
-43.139
 20
-32.908
 30
0.0
 10
-43.1345
 20
-32.9513
 30
0.0
 10
-43.1276
 20
-32.9937
 30
0.0
 10
-43.0503
 20
-33.4693
 30
0.0
 10
-42.9141
 20
-34.1634
 30
0.0
 10
-42.686
 20
-34.9597
 30
0.0
 10
-42.5224
 20
-35.5304
 30
0.0
 10
-42.3117
 20
-36.1527
 30
0.0
 10
-42.0419
 20
-36.7822
 30
0.0
 10
-41.8171
 20
-37.3067
 30
0.0
 10
-41.5511
 20
-37.8366
 30
0.0
 10
-41.2373
 20
-38.3458
 30
0.0
 10
-40.9593
 20
-38.7971
 30
0.0
 10
-40.6428
 20
-39.2335
 30
0.0
 10
-40.2834
 20
-39.6371
 30
0.0
 10
-39.9614
 20
-39.9985
 30
0.0
 10
-39.6046
 20
-40.3335
 30
0.0
 10
-39.21
 20
-40.6286
 30
0.0
 10
-38.8444
 20
-40.9024
 30
0.0
 10
-38.4451
 20
-41.1424
 30
0.0
 10
-38.0097
 20
-41.3383
 30
0.0
 10
-37.6012
 20
-41.5222
 30
0.0
 10
-37.1604
 20
-41.6672
 30
0.0
 10
-36.6858
 20
-41.7646
 30
0.0
 10
-36.2397
 20
-41.8562
 30
0.0
 10
-35.7618
 20
-41.9059
 30
0.0
 10
-35.2504
 20
-41.9067
 30
0.0
 10
-35.2504
 20
-41.9067
 30
0.0
 10
-35.2506
 20
-41.9063
 30
0.0
 10
-35.2506
 20
-41.9063
 30
0.0
 10
-35.2506
 20
-41.9063
 30
0.0
 10
-35.2507
 20
-41.9063
 30
0.0
 10
-35.2507
 20
-41.9063
 30
0.0
 10
-35.2507
 20
-41.9063
 30
0.0
 10
-35.2506
 20
-41.9063
 30
0.0
 10
-35.2506
 20
-41.9063
 30
0.0
 10
-35.2506
 20
-41.9063
 30
0.0
 10
-35.2509
 20
-41.9058
 30
0.0
 10
-35.2509
 20
-41.9058
 30
0.0
 10
-35.2509
 20
-41.9058
 30
0.0
 10
-35.2022
 20
-41.8756
 30
0.0
 10
-35.2022
 20
-41.8756
 30
0.0
 10
-35.1747
 20
-41.8571
 30
0.0
 10
-35.1455
 20
-41.8359
 30
0.0
 10
-35.1161
 20
-41.8128
 30
0.0
 10
-35.1161
 20
-41.8128
 30
0.0
 10
-35.0127
 20
-41.7277
 30
0.0
 10
-35.0127
 20
-41.7277
 30
0.0
 10
-35.0127
 20
-41.7277
 30
0.0
 10
-34.891
 20
-41.6196
 30
0.0
 10
-34.891
 20
-41.6196
 30
0.0
 10
-34.891
 20
-41.6196
 30
0.0
 10
-34.7601
 20
-41.4964
 30
0.0
 10
-34.7601
 20
-41.4964
 30
0.0
 10
-34.7601
 20
-41.4964
 30
0.0
 10
-34.6272
 20
-41.3665
 30
0.0
 10
-34.6272
 20
-41.3665
 30
0.0
 10
-34.6272
 20
-41.3665
 30
0.0
 10
-34.4855
 20
-41.2237
 30
0.0
 10
-34.4855
 20
-41.2237
 30
0.0
 10
-34.4422
 20
-41.1794
 30
0.0
 10
-34.4039
 20
-41.1313
 30
0.0
 10
-34.3708
 20
-41.0805
 30
0.0
 10
-34.3361
 20
-41.0271
 30
0.0
 10
-34.3066
 20
-40.971
 30
0.0
 10
-34.2829
 20
-40.9136
 30
0.0
 10
-34.2582
 20
-40.8539
 30
0.0
 10
-34.2388
 20
-40.7909
 30
0.0
 10
-34.225
 20
-40.7264
 30
0.0
 10
-34.2111
 20
-40.6612
 30
0.0
 10
-34.2026
 20
-40.5947
 30
0.0
 10
-34.2003
 20
-40.5286
 30
0.0
 10
-34.1979
 20
-40.4624
 30
0.0
 10
-34.2013
 20
-40.3951
 30
0.0
 10
-34.2105
 20
-40.3288
 30
0.0
 10
-34.2196
 20
-40.2634
 30
0.0
 10
-34.2344
 20
-40.1987
 30
0.0
 10
-34.2548
 20
-40.1362
 30
0.0
 10
-34.2746
 20
-40.0756
 30
0.0
 10
-34.2998
 20
-40.0168
 30
0.0
 10
-34.3302
 20
-39.9613
 30
0.0
 10
-34.36
 20
-39.9074
 30
0.0
 10
-34.395
 20
-39.8556
 30
0.0
 10
-34.4351
 20
-39.8072
 30
0.0
 10
-34.4351
 20
-39.8072
 30
0.0
 10
-35.5894
 20
-38.4165
 30
0.0
 10
-35.5894
 20
-38.4165
 30
0.0
 10
-35.5894
 20
-38.4165
 30
0.0
 10
-35.6427
 20
-38.3574
 30
0.0
 10
-35.6427
 20
-38.3574
 30
0.0
 10
-35.6427
 20
-38.3574
 30
0.0
 10
-35.6933
 20
-38.3097
 30
0.0
 10
-35.6933
 20
-38.3097
 30
0.0
 10
-35.7272
 20
-38.2801
 30
0.0
 10
-35.7629
 20
-38.2539
 30
0.0
 10
-35.7996
 20
-38.2315
 30
0.0
 10
-35.8371
 20
-38.2085
 30
0.0
 10
-35.8762
 20
-38.189
 30
0.0
 10
-35.9159
 20
-38.1735
 30
0.0
 10
-35.9555
 20
-38.158
 30
0.0
 10
-35.9965
 20
-38.146
 30
0.0
 10
-36.0377
 20
-38.1378
 30
0.0
 10
-36.0796
 20
-38.1296
 30
0.0
 10
-36.1213
 20
-38.1251
 30
0.0
 10
-36.1613
 20
-38.1247
 30
0.0
 10
-36.2026
 20
-38.1242
 30
0.0
 10
-36.2447
 20
-38.1277
 30
0.0
 10
-36.2867
 20
-38.1349
 30
0.0
 10
-36.3282
 20
-38.142
 30
0.0
 10
-36.3695
 20
-38.1529
 30
0.0
 10
-36.4096
 20
-38.1675
 30
0.0
 10
-36.4493
 20
-38.182
 30
0.0
 10
-36.4887
 20
-38.2005
 30
0.0
 10
-36.5269
 20
-38.2226
 30
0.0
 10
-36.564
 20
-38.244
 30
0.0
 10
-36.601
 20
-38.2699
 30
0.0
 10
-36.637
 20
-38.2997
 30
0.0
 10
-36.6766
 20
-38.3333
 30
0.0
 10
-36.7068
 20
-38.3632
 30
0.0
 10
-36.7416
 20
-38.4017
 30
0.0
 10
-36.7947
 20
-38.4623
 30
0.0
 10
-36.8518
 20
-38.5167
 30
0.0
 10
-36.9114
 20
-38.5642
 30
0.0
 10
-36.9728
 20
-38.613
 30
0.0
 10
-37.0382
 20
-38.6555
 30
0.0
 10
-37.106
 20
-38.691
 30
0.0
 10
-37.1751
 20
-38.7272
 30
0.0
 10
-37.2469
 20
-38.7561
 30
0.0
 10
-37.32
 20
-38.7774
 30
0.0
 10
-37.3945
 20
-38.7991
 30
0.0
 10
-37.47
 20
-38.8131
 30
0.0
 10
-37.5446
 20
-38.8191
 30
0.0
 10
-37.6193
 20
-38.825
 30
0.0
 10
-37.696
 20
-38.8232
 30
0.0
 10
-37.7726
 20
-38.8135
 30
0.0
 10
-37.8482
 20
-38.8039
 30
0.0
 10
-37.9231
 20
-38.7867
 30
0.0
 10
-37.9955
 20
-38.7619
 30
0.0
 10
-38.0668
 20
-38.7376
 30
0.0
 10
-38.1371
 20
-38.7054
 30
0.0
 10
-38.2051
 20
-38.6659
 30
0.0
 10
-38.2711
 20
-38.6275
 30
0.0
 10
-38.3351
 20
-38.5819
 30
0.0
 10
-38.3955
 20
-38.5292
 30
0.0
 10
-38.4741
 20
-38.4611
 30
0.0
 10
-38.5584
 20
-38.382
 30
0.0
 10
-38.6479
 20
-38.2911
 30
0.0
 10
-38.7285
 20
-38.2093
 30
0.0
 10
-38.8131
 20
-38.1178
 30
0.0
 10
-38.9008
 20
-38.0163
 30
0.0
 10
-38.9821
 20
-37.9222
 30
0.0
 10
-39.0657
 20
-37.8198
 30
0.0
 10
-39.1508
 20
-37.709
 30
0.0
 10
-39.2315
 20
-37.604
 30
0.0
 10
-39.3136
 20
-37.4915
 30
0.0
 10
-39.3963
 20
-37.3717
 30
0.0
 10
-39.473
 20
-37.2607
 30
0.0
 10
-39.5534
 20
-37.1383
 30
0.0
 10
-39.6371
 20
-37.0046
 30
0.0
 10
-39.7144
 20
-36.8815
 30
0.0
 10
-39.7938
 20
-36.7488
 30
0.0
 10
-39.8751
 20
-36.6063
 30
0.0
 10
-39.951
 20
-36.4731
 30
0.0
 10
-40.0288
 20
-36.3309
 30
0.0
 10
-40.1076
 20
-36.1801
 30
0.0
 10
-40.1833
 20
-36.0354
 30
0.0
 10
-40.2595
 20
-35.8836
 30
0.0
 10
-40.3357
 20
-35.7254
 30
0.0
 10
-40.3679
 20
-35.6578
 30
0.0
 10
-40.395
 20
-35.5888
 30
0.0
 10
-40.4165
 20
-35.5194
 30
0.0
 10
-40.4383
 20
-35.449
 30
0.0
 10
-40.4553
 20
-35.3764
 30
0.0
 10
-40.4668
 20
-35.3034
 30
0.0
 10
-40.4785
 20
-35.2292
 30
0.0
 10
-40.4852
 20
-35.1541
 30
0.0
 10
-40.4865
 20
-35.0798
 30
0.0
 10
-40.4877
 20
-35.0041
 30
0.0
 10
-40.4839
 20
-34.9294
 30
0.0
 10
-40.475
 20
-34.8574
 30
0.0
 10
-40.4661
 20
-34.7848
 30
0.0
 10
-40.4515
 20
-34.7115
 30
0.0
 10
-40.4316
 20
-34.6388
 30
0.0
 10
-40.4121
 20
-34.5674
 30
0.0
 10
-40.3873
 20
-34.4973
 30
0.0
 10
-40.3579
 20
-34.43
 30
0.0
 10
-40.3284
 20
-34.3625
 30
0.0
 10
-40.2941
 20
-34.2975
 30
0.0
 10
-40.2555
 20
-34.2367
 30
0.0
 10
-40.2171
 20
-34.176
 30
0.0
 10
-40.1738
 20
-34.1181
 30
0.0
 10
-40.126
 20
-34.0639
 30
0.0
  0
SPLINE
  5
81
330
1F
100
AcDbEntity
  8
Layer 1
 62
   250
370
    18
100
AcDbSpline
210
0.0
220
0.0
230
1.0
 70
    11
 71
     3
 72
    29
 73
    25
 74
     0
 42
0.0000000001
 43
0.0000000001
 40
0.0
 40
0.0
 40
0.0
 40
0.0
 40
0.125
 40
0.125
 40
0.125
 40
0.25
 40
0.25
 40
0.25
 40
0.375
 40
0.375
 40
0.375
 40
0.5
 40
0.5
 40
0.5
 40
0.625
 40
0.625
 40
0.625
 40
0.75
 40
0.75
 40
0.75
 40
0.875
 40
0.875
 40
0.875
 40
1.0
 40
1.0
 40
1.0
 40
1.0
 10
-55.0
 20
75.0
 30
0.0
 10
-55.0
 20
75.0
 30
0.0
 10
55.0
 20
75.0
 30
0.0
 10
55.0
 20
75.0
 30
0.0
 10
60.5078
 20
75.0
 30
0.0
 10
65.0
 20
70.5078
 30
0.0
 10
65.0
 20
65.0
 30
0.0
 10
65.0
 20
65.0
 30
0.0
 10
65.0
 20
-65.0
 30
0.0
 10
65.0
 20
-65.0
 30
0.0
 10
65.0
 20
-70.5078
 30
0.0
 10
60.5078
 20
-75.0
 30
0.0
 10
55.0
 20
-75.0
 30
0.0
 10
55.0
 20
-75.0
 30
0.0
 10
-55.0
 20
-75.0
 30
0.0
 10
-55.0
 20
-75.0
 30
0.0
 10
-60.5078
 20
-75.0
 30
0.0
 10
-65.0
 20
-70.5078
 30
0.0
 10
-65.0
 20
-65.0
 30
0.0
 10
-65.0
 20
-65.0
 30
0.0
 10
-65.0
 20
65.0
 30
0.0
 10
-65.0
 20
65.0
 30
0.0
 10
-65.0
 20
70.5078
 30
0.0
 10
-60.5078
 20
75.0
 30
0.0
 10
-55.0
 20
75.0
 30
0.0
  0
SPLINE
  5
82
330
1F
100
AcDbEntity
  8
Layer 1
 62
   250
370
    18
100
AcDbSpline
210
0.0
220
0.0
230
1.0
 70
    11
 71
     3
 72
    41
 73
    37
 74
     0
 42
0.0000000001
 43
0.0000000001
 40
0.0
 40
0.0
 40
0.0
 40
0.0
 40
0.0833333333333333
 40
0.0833333333333333
 40
0.0833333333333333
 40
0.1666666666666667
 40
0.1666666666666667
 40
0.1666666666666667
 40
0.25
 40
0.25
 40
0.25
 40
0.3333333333333333
 40
0.3333333333333333
 40
0.3333333333333333
 40
0.4166666666666666
 40
0.4166666666666666
 40
0.4166666666666666
 40
0.5
 40
0.5
 40
0.5
 40
0.5833333333333333
 40
0.5833333333333333
 40
0.5833333333333333
 40
0.6666666666666666
 40
0.6666666666666666
 40
0.6666666666666666
 40
0.75
 40
0.75
 40
0.75
 40
0.8333333333333333
 40
0.8333333333333333
 40
0.8333333333333333
 40
0.9166666666666666
 40
0.9166666666666666
 40
0.9166666666666666
 40
1.0
 40
1.0
 40
1.0
 40
1.0
 10
-37.1764
 20
-61.8981
 30
0.0
 10
-37.1764
 20
-61.8981
 30
0.0
 10
-29.9257
 20
-61.8981
 30
0.0
 10
-29.9257
 20
-61.8981
 30
0.0
 10
-29.5291
 20
-61.8981
 30
0.0
 10
-29.1705
 20
-61.7367
 30
0.0
 10
-28.9114
 20
-61.4767
 30
0.0
 10
-28.6531
 20
-61.216
 30
0.0
 10
-28.4924
 20
-60.8547
 30
0.0
 10
-28.4924
 20
-60.4569
 30
0.0
 10
-28.4924
 20
-60.4569
 30
0.0
 10
-28.4924
 20
-53.1131
 30
0.0
 10
-28.4924
 20
-53.1131
 30
0.0
 10
-28.4924
 20
-52.7153
 30
0.0
 10
-28.6531
 20
-52.3549
 30
0.0
 10
-28.912
 20
-52.0942
 30
0.0
 10
-29.1705
 20
-51.8336
 30
0.0
 10
-29.5291
 20
-51.6727
 30
0.0
 10
-29.9257
 20
-51.6727
 30
0.0
 10
-29.9257
 20
-51.6727
 30
0.0
 10
-37.1764
 20
-51.6727
 30
0.0
 10
-37.1764
 20
-51.6727
 30
0.0
 10
-37.5722
 20
-51.6727
 30
0.0
 10
-37.9305
 20
-51.8339
 30
0.0
 10
-38.1893
 20
-52.0942
 30
0.0
 10
-38.4482
 20
-52.3549
 30
0.0
 10
-38.6089
 20
-52.7153
 30
0.0
 10
-38.6089
 20
-53.1131
 30
0.0
 10
-38.6089
 20
-53.1131
 30
0.0
 10
-38.6089
 20
-60.4569
 30
0.0
 10
-38.6089
 20
-60.4569
 30
0.0
 10
-38.6089
 20
-60.8553
 30
0.0
 10
-38.4487
 20
-61.216
 30
0.0
 10
-38.1902
 20
-61.4767
 30
0.0
 10
-37.9311
 20
-61.7367
 30
0.0
 10
-37.5725
 20
-61.8981
 30
0.0
 10
-37.1764
 20
-61.8981
 30
0.0
  0
SPLINE
  5
83
330
1F
100
AcDbEntity
  8
Layer 1
 62
   250
370
    18
100
AcDbSpline
210
0.0
220
0.0
230
1.0
 70
    11
 71
     3
 72
    41
 73
    37
 74
     0
 42
0.0000000001
 43
0.0000000001
 40
0.0
 40
0.0
 40
0.0
 40
0.0
 40
0.0833333333333333
 40
0.0833333333333333
 40
0.0833333333333333
 40
0.1666666666666667
 40
0.1666666666666667
 40
0.1666666666666667
 40
0.25
 40
0.25
 40
0.25
 40
0.3333333333333333
 40
0.3333333333333333
 40
0.3333333333333333
 40
0.4166666666666666
 40
0.4166666666666666
 40
0.4166666666666666
 40
0.5
 40
0.5
 40
0.5
 40
0.5833333333333333
 40
0.5833333333333333
 40
0.5833333333333333
 40
0.6666666666666666
 40
0.6666666666666666
 40
0.6666666666666666
 40
0.75
 40
0.75
 40
0.75
 40
0.8333333333333333
 40
0.8333333333333333
 40
0.8333333333333333
 40
0.9166666666666666
 40
0.9166666666666666
 40
0.9166666666666666
 40
1.0
 40
1.0
 40
1.0
 40
1.0
 10
-29.9257
 20
-62.5921
 30
0.0
 10
-29.9257
 20
-62.5921
 30
0.0
 10
-37.1764
 20
-62.5921
 30
0.0
 10
-37.1764
 20
-62.5921
 30
0.0
 10
-37.7617
 20
-62.5921
 30
0.0
 10
-38.292
 20
-62.3532
 30
0.0
 10
-38.6762
 20
-61.9667
 30
0.0
 10
-39.0613
 20
-61.5791
 30
0.0
 10
-39.2991
 20
-61.0453
 30
0.0
 10
-39.2991
 20
-60.4569
 30
0.0
 10
-39.2991
 20
-60.4569
 30
0.0
 10
-39.2991
 20
-53.1131
 30
0.0
 10
-39.2991
 20
-53.1131
 30
0.0
 10
-39.2991
 20
-52.5244
 30
0.0
 10
-39.0613
 20
-51.9901
 30
0.0
 10
-38.6771
 20
-51.6036
 30
0.0
 10
-38.2932
 20
-51.2177
 30
0.0
 10
-37.7623
 20
-50.9781
 30
0.0
 10
-37.1764
 20
-50.9781
 30
0.0
 10
-37.1764
 20
-50.9781
 30
0.0
 10
-29.9257
 20
-50.9781
 30
0.0
 10
-29.9257
 20
-50.9781
 30
0.0
 10
-29.3402
 20
-50.9781
 30
0.0
 10
-28.8096
 20
-51.2177
 30
0.0
 10
-28.4254
 20
-51.6036
 30
0.0
 10
-28.04
 20
-51.9901
 30
0.0
 10
-27.8021
 20
-52.5244
 30
0.0
 10
-27.8021
 20
-53.1131
 30
0.0
 10
-27.8021
 20
-53.1131
 30
0.0
 10
-27.8021
 20
-60.4569
 30
0.0
 10
-27.8021
 20
-60.4569
 30
0.0
 10
-27.8021
 20
-61.0462
 30
0.0
 10
-28.04
 20
-61.5802
 30
0.0
 10
-28.4242
 20
-61.9667
 30
0.0
 10
-28.8096
 20
-62.3532
 30
0.0
 10
-29.3402
 20
-62.5921
 30
0.0
 10
-29.9257
 20
-62.5921
 30
0.0
  0
SPLINE
  5
84
330
1F
100
AcDbEntity
  8
Layer 1
 62
   250
370
    18
100
AcDbSpline
210
0.0
220
0.0
230
1.0
 70
    11
 71
     3
 72
    29
 73
    25
 74
     0
 42
0.0000000001
 43
0.0000000001
 40
0.0
 40
0.0
 40
0.0
 40
0.0
 40
0.125
 40
0.125
 40
0.125
 40
0.25
 40
0.25
 40
0.25
 40
0.375
 40
0.375
 40
0.375
 40
0.5
 40
0.5
 40
0.5
 40
0.625
 40
0.625
 40
0.625
 40
0.75
 40
0.75
 40
0.75
 40
0.875
 40
0.875
 40
0.875
 40
1.0
 40
1.0
 40
1.0
 40
1.0
 10
-31.9823
 20
-58.6749
 30
0.0
 10
-31.586
 20
-58.2899
 30
0.0
 10
-31.3401
 20
-57.757
 30
0.0
 10
-31.3401
 20
-57.1686
 30
0.0
 10
-31.3401
 20
-56.5805
 30
0.0
 10
-31.586
 20
-56.0479
 30
0.0
 10
-31.9823
 20
-55.6629
 30
0.0
 10
-32.3826
 20
-55.2735
 30
0.0
 10
-32.9374
 20
-55.0331
 30
0.0
 10
-33.5508
 20
-55.0331
 30
0.0
 10
-34.1642
 20
-55.0331
 30
0.0
 10
-34.7193
 20
-55.2738
 30
0.0
 10
-35.1193
 20
-55.6629
 30
0.0
 10
-35.5156
 20
-56.0479
 30
0.0
 10
-35.7615
 20
-56.5805
 30
0.0
 10
-35.7615
 20
-57.1686
 30
0.0
 10
-35.7615
 20
-57.757
 30
0.0
 10
-35.5159
 20
-58.2896
 30
0.0
 10
-35.1193
 20
-58.6749
 30
0.0
 10
-34.7193
 20
-59.064
 30
0.0
 10
-34.1642
 20
-59.3047
 30
0.0
 10
-33.5508
 20
-59.3047
 30
0.0
 10
-32.9374
 20
-59.3047
 30
0.0
 10
-32.3823
 20
-59.064
 30
0.0
 10
-31.9823
 20
-58.6749
 30
0.0
  0
SPLINE
  5
85
330
1F
100
AcDbEntity
  8
Layer 1
 62
   250
370
    18
100
AcDbSpline
210
0.0
220
0.0
230
1.0
 70
    11
 71
     3
 72
    29
 73
    25
 74
     0
 42
0.0000000001
 43
0.0000000001
 40
0.0
 40
0.0
 40
0.0
 40
0.0
 40
0.125
 40
0.125
 40
0.125
 40
0.25
 40
0.25
 40
0.25
 40
0.375
 40
0.375
 40
0.375
 40
0.5
 40
0.5
 40
0.5
 40
0.625
 40
0.625
 40
0.625
 40
0.75
 40
0.75
 40
0.75
 40
0.875
 40
0.875
 40
0.875
 40
1.0
 40
1.0
 40
1.0
 40
1.0
 10
-30.6499
 20
-57.1686
 30
0.0
 10
-30.6499
 20
-57.9517
 30
0.0
 10
-30.9769
 20
-58.6616
 30
0.0
 10
-31.5049
 20
-59.1745
 30
0.0
 10
-32.0289
 20
-59.6837
 30
0.0
 10
-32.7527
 20
-59.999
 30
0.0
 10
-33.5508
 20
-59.999
 30
0.0
 10
-34.3489
 20
-59.999
 30
0.0
 10
-35.0727
 20
-59.6837
 30
0.0
 10
-35.5967
 20
-59.1745
 30
0.0
 10
-36.1247
 20
-58.661
 30
0.0
 10
-36.4517
 20
-57.9517
 30
0.0
 10
-36.4517
 20
-57.1686
 30
0.0
 10
-36.4517
 20
-56.3858
 30
0.0
 10
-36.1247
 20
-55.6762
 30
0.0
 10
-35.5967
 20
-55.1633
 30
0.0
 10
-35.0727
 20
-54.6541
 30
0.0
 10
-34.3489
 20
-54.3388
 30
0.0
 10
-33.5508
 20
-54.3388
 30
0.0
 10
-32.753
 20
-54.3388
 30
0.0
 10
-32.0291
 20
-54.6538
 30
0.0
 10
-31.5049
 20
-55.1633
 30
0.0
 10
-30.9769
 20
-55.6762
 30
0.0
 10
-30.6499
 20
-56.3858
 30
0.0
 10
-30.6499
 20
-57.1686
 30
0.0
  0
SPLINE
  5
86
330
1F
100
AcDbEntity
  8
Layer 1
 62
   250
370
    18
100
AcDbSpline
210
0.0
220
0.0
230
1.0
 70
    11
 71
     3
 72
    17
 73
    13
 74
     0
 42
0.0000000001
 43
0.0000000001
 40
0.0
 40
0.0
 40
0.0
 40
0.0
 40
0.25
 40
0.25
 40
0.25
 40
0.5
 40
0.5
 40
0.5
 40
0.75
 40
0.75
 40
0.75
 40
1.0
 40
1.0
 40
1.0
 40
1.0
 10
-29.4083
 20
-53.4706
 30
0.0
 10
-29.4083
 20
-53.7319
 30
0.0
 10
-29.6263
 20
-53.9436
 30
0.0
 10
-29.8952
 20
-53.9436
 30
0.0
 10
-30.1638
 20
-53.9436
 30
0.0
 10
-30.3821
 20
-53.7319
 30
0.0
 10
-30.3821
 20
-53.4706
 30
0.0
 10
-30.3821
 20
-53.2088
 30
0.0
 10
-30.1638
 20
-52.9971
 30
0.0
 10
-29.8952
 20
-52.9971
 30
0.0
 10
-29.6263
 20
-52.9971
 30
0.0
 10
-29.4083
 20
-53.2088
 30
0.0
 10
-29.4083
 20
-53.4706
 30
0.0
  0
SPLINE
  5
87
330
1F
100
AcDbEntity
  8
Layer 1
 62
   250
370
    18
100
AcDbSpline
210
0.0
220
0.0
230
1.0
 70
    11
 71
     3
 72
    29
 73
    25
 74
     0
 42
0.0000000001
 43
0.0000000001
 40
0.0
 40
0.0
 40
0.0
 40
0.0
 40
0.125
 40
0.125
 40
0.125
 40
0.25
 40
0.25
 40
0.25
 40
0.375
 40
0.375
 40
0.375
 40
0.5
 40
0.5
 40
0.5
 40
0.625
 40
0.625
 40
0.625
 40
0.75
 40
0.75
 40
0.75
 40
0.875
 40
0.875
 40
0.875
 40
1.0
 40
1.0
 40
1.0
 40
1.0
 10
-29.0632
 20
-53.4706
 30
0.0
 10
-29.0632
 20
-53.6986
 30
0.0
 10
-29.1587
 20
-53.9054
 30
0.0
 10
-29.3123
 20
-54.055
 30
0.0
 10
-29.4621
 20
-54.2005
 30
0.0
 10
-29.6689
 20
-54.2908
 30
0.0
 10
-29.8952
 20
-54.2908
 30
0.0
 10
-30.1216
 20
-54.2908
 30
0.0
 10
-30.328
 20
-54.2005
 30
0.0
 10
-30.4782
 20
-54.055
 30
0.0
 10
-30.632
 20
-53.9046
 30
0.0
 10
-30.7272
 20
-53.6983
 30
0.0
 10
-30.7272
 20
-53.4706
 30
0.0
 10
-30.7272
 20
-53.2424
 30
0.0
 10
-30.6317
 20
-53.0356
 30
0.0
 10
-30.4782
 20
-52.886
 30
0.0
 10
-30.3263
 20
-52.7402
 30
0.0
 10
-30.1207
 20
-52.6496
 30
0.0
 10
-29.8952
 20
-52.6496
 30
0.0
 10
-29.6689
 20
-52.6496
 30
0.0
 10
-29.4621
 20
-52.7399
 30
0.0
 10
-29.3123
 20
-52.8857
 30
0.0
 10
-29.1584
 20
-53.0364
 30
0.0
 10
-29.0632
 20
-53.2427
 30
0.0
 10
-29.0632
 20
-53.4706
 30
0.0
  0
SPLINE
  5
88
330
1F
100
AcDbEntity
  8
Layer 1
 62
   250
370
    18
100
AcDbSpline
210
0.0
220
0.0
230
1.0
 70
    11
 71
     3
 72
    26
 73
    22
 74
     0
 42
0.0000000001
 43
0.0000000001
 40
0.0
 40
0.0
 40
0.0
 40
0.0
 40
0.1428571428571428
 40
0.1428571428571428
 40
0.1428571428571428
 40
0.2857142857142857
 40
0.2857142857142857
 40
0.2857142857142857
 40
0.4285714285714285
 40
0.4285714285714285
 40
0.4285714285714285
 40
0.5714285714285714
 40
0.5714285714285714
 40
0.5714285714285714
 40
0.7142857142857142
 40
0.7142857142857142
 40
0.7142857142857142
 40
0.8571428571428571
 40
0.8571428571428571
 40
0.8571428571428571
 40
1.0
 40
1.0
 40
1.0
 40
1.0
 10
-32.4946
 20
2.7599
 30
0.0
 10
-32.4946
 20
2.7599
 30
0.0
 10
-24.031
 20
-0.9013
 30
0.0
 10
-24.031
 20
-0.9013
 30
0.0
 10
-23.9698
 20
-0.7974
 30
0.0
 10
-23.9224
 20
-0.6912
 30
0.0
 10
-23.8876
 20
-0.5818
 30
0.0
 10
-23.7351
 20
-0.0965
 30
0.0
 10
-23.8927
 20
0.5415
 30
0.0
 10
-24.3633
 20
1.3352
 30
0.0
 10
-24.954
 20
2.3413
 30
0.0
 10
-25.6658
 20
3.1823
 30
0.0
 10
-26.4978
 20
3.8522
 30
0.0
 10
-27.3353
 20
4.5258
 30
0.0
 10
-28.2186
 20
4.9616
 30
0.0
 10
-29.1429
 20
5.1557
 30
0.0
 10
-31.0602
 20
5.5582
 30
0.0
 10
-32.1931
 20
5.0512
 30
0.0
 10
-32.5344
 20
3.6559
 30
0.0
 10
-32.628
 20
3.273
 30
0.0
 10
-32.6147
 20
2.9749
 30
0.0
 10
-32.4946
 20
2.7599
 30
0.0
  0
SPLINE
  5
89
330
1F
100
AcDbEntity
  8
Layer 1
 62
   250
370
    18
100
AcDbSpline
210
0.0
220
0.0
230
1.0
 70
    11
 71
     3
 72
    53
 73
    49
 74
     0
 42
0.0000000001
 43
0.0000000001
 40
0.0
 40
0.0
 40
0.0
 40
0.0
 40
0.0625
 40
0.0625
 40
0.0625
 40
0.125
 40
0.125
 40
0.125
 40
0.1875
 40
0.1875
 40
0.1875
 40
0.25
 40
0.25
 40
0.25
 40
0.3125
 40
0.3125
 40
0.3125
 40
0.375
 40
0.375
 40
0.375
 40
0.4375
 40
0.4375
 40
0.4375
 40
0.5
 40
0.5
 40
0.5
 40
0.5625
 40
0.5625
 40
0.5625
 40
0.625
 40
0.625
 40
0.625
 40
0.6875
 40
0.6875
 40
0.6875
 40
0.75
 40
0.75
 40
0.75
 40
0.8125
 40
0.8125
 40
0.8125
 40
0.875
 40
0.875
 40
0.875
 40
0.9375
 40
0.9375
 40
0.9375
 40
1.0
 40
1.0
 40
1.0
 40
1.0
 10
-22.5819
 20
-1.5285
 30
0.0
 10
-22.4175
 20
-1.6017
 30
0.0
 10
-22.2329
 20
-1.6798
 30
0.0
 10
-22.0293
 20
-1.7614
 30
0.0
 10
-21.8249
 20
-1.8436
 30
0.0
 10
-21.6341
 20
-1.9223
 30
0.0
 10
-21.4575
 20
-1.9985
 30
0.0
 10
-19.4577
 20
-2.8742
 30
0.0
 10
-17.8603
 20
-3.6259
 30
0.0
 10
-16.6599
 20
-4.2547
 30
0.0
 10
-15.4658
 20
-4.8799
 30
0.0
 10
-14.4852
 20
-5.4801
 30
0.0
 10
-13.717
 20
-6.0539
 30
0.0
 10
-13.2456
 20
-6.387
 30
0.0
 10
-12.781
 20
-6.819
 30
0.0
 10
-12.3243
 20
-7.3506
 30
0.0
 10
-11.4002
 20
-6.42
 30
0.0
 10
-10.7649
 20
-5.7419
 30
0.0
 10
-10.4269
 20
-5.3228
 30
0.0
 10
-10.0861
 20
-4.902
 30
0.0
 10
-9.8193
 20
-4.4648
 30
0.0
 10
-9.6258
 20
-4.0108
 30
0.0
 10
-9.3999
 20
-3.482
 30
0.0
 10
-9.3185
 20
-2.9855
 30
0.0
 10
-9.3836
 20
-2.5214
 30
0.0
 10
-9.4475
 20
-2.0546
 30
0.0
 10
-9.6715
 20
-1.5788
 30
0.0
 10
-10.0561
 20
-1.0954
 30
0.0
 10
-10.6343
 20
-0.376
 30
0.0
 10
-11.4111
 20
0.2781
 30
0.0
 10
-12.3885
 20
0.863
 30
0.0
 10
-13.3703
 20
1.4512
 30
0.0
 10
-14.3888
 20
1.8568
 30
0.0
 10
-15.4394
 20
2.0767
 30
0.0
 10
-16.5881
 20
2.3181
 30
0.0
 10
-17.6586
 20
2.2479
 30
0.0
 10
-18.6442
 20
1.8693
 30
0.0
 10
-19.1251
 20
1.6845
 30
0.0
 10
-19.5258
 20
1.4501
 30
0.0
 10
-19.8437
 20
1.1676
 30
0.0
 10
-20.1608
 20
0.8867
 30
0.0
 10
-20.4833
 20
0.4749
 30
0.0
 10
-20.811
 20
-0.0635
 30
0.0
 10
-21.1341
 20
-0.5491
 30
0.0
 10
-21.3962
 20
-0.8771
 30
0.0
 10
-21.599
 20
-1.0494
 30
0.0
 10
-21.801
 20
-1.2214
 30
0.0
 10
-22.1292
 20
-1.3815
 30
0.0
 10
-22.5819
 20
-1.5285
 30
0.0
  0
SPLINE
  5
8A
330
1F
100
AcDbEntity
  8
Layer 1
 62
   250
370
    18
100
AcDbSpline
210
0.0
220
0.0
230
1.0
 70
    11
 71
     3
 72
   113
 73
   109
 74
     0
 42
0.0000000001
 43
0.0000000001
 40
0.0
 40
0.0
 40
0.0
 40
0.0
 40
0.0277777777777778
 40
0.0277777777777778
 40
0.0277777777777778
 40
0.0555555555555556
 40
0.0555555555555556
 40
0.0555555555555556
 40
0.0833333333333333
 40
0.0833333333333333
 40
0.0833333333333333
 40
0.1111111111111111
 40
0.1111111111111111
 40
0.1111111111111111
 40
0.1388888888888889
 40
0.1388888888888889
 40
0.1388888888888889
 40
0.1666666666666667
 40
0.1666666666666667
 40
0.1666666666666667
 40
0.1944444444444444
 40
0.1944444444444444
 40
0.1944444444444444
 40
0.2222222222222222
 40
0.2222222222222222
 40
0.2222222222222222
 40
0.25
 40
0.25
 40
0.25
 40
0.2777777777777778
 40
0.2777777777777778
 40
0.2777777777777778
 40
0.3055555555555555
 40
0.3055555555555555
 40
0.3055555555555555
 40
0.3333333333333333
 40
0.3333333333333333
 40
0.3333333333333333
 40
0.3611111111111111
 40
0.3611111111111111
 40
0.3611111111111111
 40
0.3888888888888888
 40
0.3888888888888888
 40
0.3888888888888888
 40
0.4166666666666666
 40
0.4166666666666666
 40
0.4166666666666666
 40
0.4444444444444444
 40
0.4444444444444444
 40
0.4444444444444444
 40
0.4722222222222222
 40
0.4722222222222222
 40
0.4722222222222222
 40
0.5
 40
0.5
 40
0.5
 40
0.5277777777777778
 40
0.5277777777777778
 40
0.5277777777777778
 40
0.5555555555555556
 40
0.5555555555555556
 40
0.5555555555555556
 40
0.5833333333333333
 40
0.5833333333333333
 40
0.5833333333333333
 40
0.611111111111111
 40
0.611111111111111
 40
0.611111111111111
 40
0.6388888888888888
 40
0.6388888888888888
 40
0.6388888888888888
 40
0.6666666666666666
 40
0.6666666666666666
 40
0.6666666666666666
 40
0.6944444444444444
 40
0.6944444444444444
 40
0.6944444444444444
 40
0.7222222222222222
 40
0.7222222222222222
 40
0.7222222222222222
 40
0.75
 40
0.75
 40
0.75
 40
0.7777777777777777
 40
0.7777777777777777
 40
0.7777777777777777
 40
0.8055555555555555
 40
0.8055555555555555
 40
0.8055555555555555
 40
0.8333333333333333
 40
0.8333333333333333
 40
0.8333333333333333
 40
0.861111111111111
 40
0.861111111111111
 40
0.861111111111111
 40
0.8888888888888888
 40
0.8888888888888888
 40
0.8888888888888888
 40
0.9166666666666666
 40
0.9166666666666666
 40
0.9166666666666666
 40
0.9444444444444444
 40
0.9444444444444444
 40
0.9444444444444444
 40
0.9722222222222222
 40
0.9722222222222222
 40
0.9722222222222222
 40
1.0
 40
1.0
 40
1.0
 40
1.0
 10
-21.8848
 20
-7.7567
 30
0.0
 10
-21.8848
 20
-7.7567
 30
0.0
 10
-28.4606
 20
-4.7901
 30
0.0
 10
-28.4606
 20
-4.7901
 30
0.0
 10
-29.65
 20
-4.2299
 30
0.0
 10
-30.7954
 20
-3.6121
 30
0.0
 10
-31.8975
 20
-2.9378
 30
0.0
 10
-31.8958
 20
-2.9847
 30
0.0
 10
-31.8498
 20
-3.1001
 30
0.0
 10
-31.7595
 20
-3.2852
 30
0.0
 10
-31.5493
 20
-3.9621
 30
0.0
 10
-31.478
 20
-4.4226
 30
0.0
 10
-31.5444
 20
-4.6714
 30
0.0
 10
-31.6378
 20
-5.0217
 30
0.0
 10
-31.8858
 20
-5.1529
 30
0.0
 10
-32.2889
 20
-5.0677
 30
0.0
 10
-32.7184
 20
-4.9774
 30
0.0
 10
-33.3017
 20
-4.7112
 30
0.0
 10
-34.0409
 20
-4.2669
 30
0.0
 10
-34.7829
 20
-3.8219
 30
0.0
 10
-35.3254
 20
-3.4172
 30
0.0
 10
-35.6661
 20
-3.0535
 30
0.0
 10
-36.4
 20
-2.2296
 30
0.0
 10
-36.8796
 20
-1.0965
 30
0.0
 10
-37.1033
 20
0.3616
 30
0.0
 10
-37.3311
 20
1.8472
 30
0.0
 10
-37.2614
 20
3.4749
 30
0.0
 10
-36.8836
 20
5.255
 30
0.0
 10
-36.6504
 20
6.353
 30
0.0
 10
-36.3028
 20
7.3332
 30
0.0
 10
-35.8403
 20
8.19
 30
0.0
 10
-35.3706
 20
9.057
 30
0.0
 10
-34.7941
 20
9.7693
 30
0.0
 10
-34.1092
 20
10.3232
 30
0.0
 10
-33.4176
 20
10.8814
 30
0.0
 10
-32.6449
 20
11.2598
 30
0.0
 10
-31.7935
 20
11.4552
 30
0.0
 10
-30.9366
 20
11.6504
 30
0.0
 10
-30.0343
 20
11.6498
 30
0.0
 10
-29.0869
 20
11.4514
 30
0.0
 10
-27.7597
 20
11.1735
 30
0.0
 10
-26.6342
 20
10.7241
 30
0.0
 10
-25.7131
 20
10.1054
 30
0.0
 10
-24.7958
 20
9.49
 30
0.0
 10
-24.0158
 20
8.6631
 30
0.0
 10
-23.3748
 20
7.6312
 30
0.0
 10
-22.6826
 20
6.5006
 30
0.0
 10
-22.31
 20
5.503
 30
0.0
 10
-22.2506
 20
4.6342
 30
0.0
 10
-22.2359
 20
4.5367
 30
0.0
 10
-22.2419
 20
4.375
 30
0.0
 10
-22.2672
 20
4.1502
 30
0.0
 10
-22.2672
 20
4.1502
 30
0.0
 10
-22.1624
 20
4.1282
 30
0.0
 10
-22.1624
 20
4.1282
 30
0.0
 10
-20.4019
 20
7.5156
 30
0.0
 10
-17.7024
 20
8.898
 30
0.0
 10
-14.1286
 20
8.1495
 30
0.0
 10
-13.4133
 20
8.0003
 30
0.0
 10
-12.7007
 20
7.7575
 30
0.0
 10
-11.9927
 20
7.4246
 30
0.0
 10
-11.2853
 20
7.0918
 30
0.0
 10
-10.6245
 20
6.6851
 30
0.0
 10
-10.011
 20
6.2066
 30
0.0
 10
-9.3999
 20
5.7303
 30
0.0
 10
-8.8819
 20
5.2055
 30
0.0
 10
-8.4573
 20
4.6344
 30
0.0
 10
-7.5158
 20
3.4061
 30
0.0
 10
-6.7526
 20
2.0397
 30
0.0
 10
-6.1663
 20
0.5437
 30
0.0
 10
-5.5907
 20
-0.9264
 30
0.0
 10
-5.2428
 20
-2.333
 30
0.0
 10
-5.116
 20
-3.6777
 30
0.0
 10
-4.9916
 20
-4.9994
 30
0.0
 10
-5.1225
 20
-6.0634
 30
0.0
 10
-5.5025
 20
-6.8791
 30
0.0
 10
-5.8187
 20
-7.5572
 30
0.0
 10
-6.2385
 20
-8.1753
 30
0.0
 10
-6.76
 20
-8.7355
 30
0.0
 10
-7.2768
 20
-9.2913
 30
0.0
 10
-7.8092
 20
-9.7031
 30
0.0
 10
-8.3563
 20
-9.9758
 30
0.0
 10
-8.9018
 20
-10.2469
 30
0.0
 10
-9.3939
 20
-10.3359
 30
0.0
 10
-9.8362
 20
-10.2426
 30
0.0
 10
-10.2399
 20
-10.1582
 30
0.0
 10
-10.5858
 20
-10.0069
 30
0.0
 10
-10.8749
 20
-9.7894
 30
0.0
 10
-11.1642
 20
-9.5711
 30
0.0
 10
-11.4876
 20
-9.2126
 30
0.0
 10
-11.8444
 20
-8.7129
 30
0.0
 10
-11.8444
 20
-8.7129
 30
0.0
 10
-11.944
 20
-8.7466
 30
0.0
 10
-11.944
 20
-8.7466
 30
0.0
 10
-11.9084
 20
-8.9981
 30
0.0
 10
-11.9361
 20
-9.2311
 30
0.0
 10
-12.0279
 20
-9.4451
 30
0.0
 10
-12.2195
 20
-9.8963
 30
0.0
 10
-12.5807
 20
-10.2151
 30
0.0
 10
-13.1122
 20
-10.4034
 30
0.0
 10
-13.64
 20
-10.5921
 30
0.0
 10
-14.2579
 20
-10.6108
 30
0.0
 10
-14.9661
 20
-10.462
 30
0.0
 10
-15.3657
 20
-10.377
 30
0.0
 10
-16.2516
 20
-10.0676
 30
0.0
 10
-17.6278
 20
-9.5313
 30
0.0
 10
-19.0073
 20
-8.9935
 30
0.0
 10
-20.4264
 20
-8.4028
 30
0.0
 10
-21.8848
 20
-7.7567
 30
0.0
  0
SPLINE
  5
8B
330
1F
100
AcDbEntity
  8
Layer 1
 62
   250
370
    18
100
AcDbSpline
210
0.0
220
0.0
230
1.0
 70
    11
 71
     3
 72
   149
 73
   145
 74
     0
 42
0.0000000001
 43
0.0000000001
 40
0.0
 40
0.0
 40
0.0
 40
0.0
 40
0.0208333333333333
 40
0.0208333333333333
 40
0.0208333333333333
 40
0.0416666666666667
 40
0.0416666666666667
 40
0.0416666666666667
 40
0.0625
 40
0.0625
 40
0.0625
 40
0.0833333333333333
 40
0.0833333333333333
 40
0.0833333333333333
 40
0.1041666666666667
 40
0.1041666666666667
 40
0.1041666666666667
 40
0.125
 40
0.125
 40
0.125
 40
0.1458333333333333
 40
0.1458333333333333
 40
0.1458333333333333
 40
0.1666666666666667
 40
0.1666666666666667
 40
0.1666666666666667
 40
0.1875
 40
0.1875
 40
0.1875
 40
0.2083333333333333
 40
0.2083333333333333
 40
0.2083333333333333
 40
0.2291666666666667
 40
0.2291666666666667
 40
0.2291666666666667
 40
0.25
 40
0.25
 40
0.25
 40
0.2708333333333333
 40
0.2708333333333333
 40
0.2708333333333333
 40
0.2916666666666666
 40
0.2916666666666666
 40
0.2916666666666666
 40
0.3125
 40
0.3125
 40
0.3125
 40
0.3333333333333333
 40
0.3333333333333333
 40
0.3333333333333333
 40
0.3541666666666666
 40
0.3541666666666666
 40
0.3541666666666666
 40
0.375
 40
0.375
 40
0.375
 40
0.3958333333333333
 40
0.3958333333333333
 40
0.3958333333333333
 40
0.4166666666666666
 40
0.4166666666666666
 40
0.4166666666666666
 40
0.4375
 40
0.4375
 40
0.4375
 40
0.4583333333333333
 40
0.4583333333333333
 40
0.4583333333333333
 40
0.4791666666666666
 40
0.4791666666666666
 40
0.4791666666666666
 40
0.5
 40
0.5
 40
0.5
 40
0.5208333333333333
 40
0.5208333333333333
 40
0.5208333333333333
 40
0.5416666666666666
 40
0.5416666666666666
 40
0.5416666666666666
 40
0.5625
 40
0.5625
 40
0.5625
 40
0.5833333333333333
 40
0.5833333333333333
 40
0.5833333333333333
 40
0.6041666666666666
 40
0.6041666666666666
 40
0.6041666666666666
 40
0.625
 40
0.625
 40
0.625
 40
0.6458333333333333
 40
0.6458333333333333
 40
0.6458333333333333
 40
0.6666666666666666
 40
0.6666666666666666
 40
0.6666666666666666
 40
0.6875
 40
0.6875
 40
0.6875
 40
0.7083333333333333
 40
0.7083333333333333
 40
0.7083333333333333
 40
0.7291666666666666
 40
0.7291666666666666
 40
0.7291666666666666
 40
0.75
 40
0.75
 40
0.75
 40
0.7708333333333333
 40
0.7708333333333333
 40
0.7708333333333333
 40
0.7916666666666666
 40
0.7916666666666666
 40
0.7916666666666666
 40
0.8125
 40
0.8125
 40
0.8125
 40
0.8333333333333333
 40
0.8333333333333333
 40
0.8333333333333333
 40
0.8541666666666666
 40
0.8541666666666666
 40
0.8541666666666666
 40
0.875
 40
0.875
 40
0.875
 40
0.8958333333333333
 40
0.8958333333333333
 40
0.8958333333333333
 40
0.9166666666666666
 40
0.9166666666666666
 40
0.9166666666666666
 40
0.9375
 40
0.9375
 40
0.9375
 40
0.9583333333333333
 40
0.9583333333333333
 40
0.9583333333333333
 40
0.9791666666666666
 40
0.9791666666666666
 40
0.9791666666666666
 40
1.0
 40
1.0
 40
1.0
 40
1.0
 10
28.6492
 20
5.9532
 30
0.0
 10
28.6492
 20
5.9532
 30
0.0
 10
24.8244
 20
4.6437
 30
0.0
 10
24.8244
 20
4.6437
 30
0.0
 10
24.8244
 20
4.6437
 30
0.0
 10
19.9803
 20
3.0794
 30
0.0
 10
19.9803
 20
3.0794
 30
0.0
 10
18.2737
 20
2.5043
 30
0.0
 10
16.8989
 20
2.0884
 30
0.0
 10
15.8515
 20
1.8301
 30
0.0
 10
15.1098
 20
1.6488
 30
0.0
 10
14.6267
 20
1.4841
 30
0.0
 10
14.401
 20
1.3352
 30
0.0
 10
14.1035
 20
1.1393
 30
0.0
 10
13.9359
 20
0.7707
 30
0.0
 10
13.8964
 20
0.2272
 30
0.0
 10
13.8861
 20
-0.1231
 30
0.0
 10
13.799
 20
-0.3523
 30
0.0
 10
13.6346
 20
-0.4607
 30
0.0
 10
13.4293
 20
-0.5948
 30
0.0
 10
13.0063
 20
-0.532
 30
0.0
 10
12.3681
 20
-0.2712
 30
0.0
 10
11.8006
 20
-0.0652
 30
0.0
 10
11.2165
 20
0.2073
 30
0.0
 10
10.6152
 20
0.5473
 30
0.0
 10
10.0169
 20
0.884
 30
0.0
 10
8.8656
 20
2.0146
 30
0.0
 10
8.601
 20
2.2887
 30
0.0
 10
8.076
 20
2.8336
 30
0.0
 10
11.6909
 20
5.1682
 30
0.0
 10
12.143
 20
5.6571
 30
0.0
 10
12.6661
 20
6.2006
 30
0.0
 10
18.0355
 20
9.6724
 30
0.0
 10
20.225
 20
11.907
 30
0.0
 10
21.1148
 20
12.8189
 30
0.0
 10
22.1145
 20
13.5769
 30
0.0
 10
22.8935
 20
14.4839
 30
0.0
 10
23.6739
 20
15.3908
 30
0.0
 10
24.3669
 20
15.7705
 30
0.0
 10
24.6537
 20
16.215
 30
0.0
 10
24.7702
 20
16.3658
 30
0.0
 10
24.9621
 20
16.6883
 30
0.0
 10
25.2305
 20
17.1823
 30
0.0
 10
23.9608
 20
16.6652
 30
0.0
 10
22.3366
 20
15.9678
 30
0.0
 10
20.3674
 20
15.0938
 30
0.0
 10
17.3303
 20
13.7027
 30
0.0
 10
14.2247
 20
11.9261
 30
0.0
 10
12.9925
 20
11.6392
 30
0.0
 10
12.6043
 20
11.5448
 30
0.0
 10
12.2355
 20
11.4884
 30
0.0
 10
11.8868
 20
11.4702
 30
0.0
 10
11.2859
 20
11.4677
 30
0.0
 10
10.7532
 20
11.5431
 30
0.0
 10
10.2888
 20
11.6958
 30
0.0
 10
9.8275
 20
11.8477
 30
0.0
 10
9.4611
 20
12.066
 30
0.0
 10
9.1873
 20
12.3494
 30
0.0
 10
9.0232
 20
12.5192
 30
0.0
 10
8.5833
 20
13.0924
 30
0.0
 10
8.6623
 20
13.2536
 30
0.0
 10
8.7398
 20
13.415
 30
0.0
 10
8.9622
 20
13.6216
 30
0.0
 10
9.3269
 20
13.8742
 30
0.0
 10
9.5999
 20
14.062
 30
0.0
 10
9.8136
 20
14.1899
 30
0.0
 10
9.9674
 20
14.2577
 30
0.0
 10
10.5131
 20
14.5386
 30
0.0
 10
12.6288
 20
15.4126
 30
0.0
 10
13.5559
 20
15.8061
 30
0.0
 10
14.4873
 20
16.2008
 30
0.0
 10
15.7089
 20
16.6935
 30
0.0
 10
17.2271
 20
17.2847
 30
0.0
 10
18.7566
 20
17.881
 30
0.0
 10
20.6355
 20
18.5993
 30
0.0
 10
22.8728
 20
19.4439
 30
0.0
 10
22.8728
 20
19.4439
 30
0.0
 10
23.5661
 20
19.6889
 30
0.0
 10
23.5661
 20
19.6889
 30
0.0
 10
23.8557
 20
19.8051
 30
0.0
 10
24.0939
 20
19.8971
 30
0.0
 10
24.2814
 20
19.9636
 30
0.0
 10
28.4799
 20
21.5787
 30
0.0
 10
31.3444
 20
22.5657
 30
0.0
 10
32.8174
 20
22.9026
 30
0.0
 10
33.1253
 20
22.9737
 30
0.0
 10
33.4345
 20
23.02
 30
0.0
 10
33.7467
 20
23.0401
 30
0.0
 10
34.2867
 20
23.0766
 30
0.0
 10
34.6629
 20
23.0064
 30
0.0
 10
34.8749
 20
22.8297
 30
0.0
 10
35.4206
 20
22.3727
 30
0.0
 10
36.0703
 20
22.0183
 30
0.0
 10
34.9824
 20
20.3256
 30
0.0
 10
33.0452
 20
17.2708
 30
0.0
 10
25.3704
 20
12.3989
 30
0.0
 10
22.7672
 20
9.6743
 30
0.0
 10
22.2933
 20
9.1547
 30
0.0
 10
18.13
 20
5.9589
 30
0.0
 10
17.6686
 20
5.5457
 30
0.0
 10
17.6686
 20
5.5457
 30
0.0
 10
22.2016
 20
7.3596
 30
0.0
 10
22.2016
 20
7.3596
 30
0.0
 10
22.2016
 20
7.3596
 30
0.0
 10
24.9597
 20
8.2951
 30
0.0
 10
24.9597
 20
8.2951
 30
0.0
 10
25.0813
 20
8.352
 30
0.0
 10
25.2455
 20
8.4157
 30
0.0
 10
25.4534
 20
8.4862
 30
0.0
 10
25.6627
 20
8.5564
 30
0.0
 10
25.856
 20
8.6277
 30
0.0
 10
26.0343
 20
8.7004
 30
0.0
 10
26.1804
 20
8.7524
 30
0.0
 10
26.3462
 20
8.8076
 30
0.0
 10
26.5299
 20
8.8675
 30
0.0
 10
26.715
 20
8.9271
 30
0.0
 10
26.8707
 20
8.9758
 30
0.0
 10
26.9962
 20
9.0137
 30
0.0
 10
28.3127
 20
9.5088
 30
0.0
 10
29.3264
 20
9.8692
 30
0.0
 10
30.0294
 20
10.0943
 30
0.0
 10
30.7366
 20
10.3194
 30
0.0
 10
31.3498
 20
10.483
 30
0.0
 10
31.8694
 20
10.5837
 30
0.0
 10
32.3457
 20
10.6906
 30
0.0
 10
32.9157
 20
10.7598
 30
0.0
 10
33.5798
 20
10.7927
 30
0.0
 10
34.493
 20
10.8009
 30
0.0
 10
35.3436
 20
10.701
 30
0.0
 10
36.1297
 20
10.4903
 30
0.0
 10
36.9209
 20
10.2791
 30
0.0
 10
37.5605
 20
9.9704
 30
0.0
 10
38.0469
 20
9.5651
 30
0.0
 10
38.4558
 20
9.2241
 30
0.0
 10
38.4269
 20
8.9026
 30
0.0
 10
37.9607
 20
8.6019
 30
0.0
 10
37.6093
 20
8.3754
 30
0.0
 10
36.8243
 20
8.1353
 30
0.0
 10
35.612
 20
7.8838
 30
0.0
 10
34.2298
 20
7.6016
 30
0.0
 10
32.4489
 20
7.1312
 30
0.0
 10
30.2771
 20
6.4763
 30
0.0
 10
29.8438
 20
6.3212
 30
0.0
 10
29.3
 20
6.1473
 30
0.0
 10
28.6492
 20
5.9532
 30
0.0
  0
SPLINE
  5
8C
330
1F
100
AcDbEntity
  8
Layer 1
 62
   250
370
    18
100
AcDbSpline
210
0.0
220
0.0
230
1.0
 70
    11
 71
     3
 72
    44
 73
    40
 74
     0
 42
0.0000000001
 43
0.0000000001
 40
0.0
 40
0.0
 40
0.0
 40
0.0
 40
0.0769230769230769
 40
0.0769230769230769
 40
0.0769230769230769
 40
0.1538461538461539
 40
0.1538461538461539
 40
0.1538461538461539
 40
0.2307692307692308
 40
0.2307692307692308
 40
0.2307692307692308
 40
0.3076923076923077
 40
0.3076923076923077
 40
0.3076923076923077
 40
0.3846153846153846
 40
0.3846153846153846
 40
0.3846153846153846
 40
0.4615384615384616
 40
0.4615384615384616
 40
0.4615384615384616
 40
0.5384615384615385
 40
0.5384615384615385
 40
0.5384615384615385
 40
0.6153846153846154
 40
0.6153846153846154
 40
0.6153846153846154
 40
0.6923076923076923
 40
0.6923076923076923
 40
0.6923076923076923
 40
0.7692307692307693
 40
0.7692307692307693
 40
0.7692307692307693
 40
0.8461538461538463
 40
0.8461538461538463
 40
0.8461538461538463
 40
0.9230769230769231
 40
0.9230769230769231
 40
0.9230769230769231
 40
1.0
 40
1.0
 40
1.0
 40
1.0
 10
37.5856
 20
2.5674
 30
0.0
 10
38.063
 20
2.1981
 30
0.0
 10
38.2018
 20
1.7068
 30
0.0
 10
37.9982
 20
1.0933
 30
0.0
 10
37.7611
 20
0.4618
 30
0.0
 10
37.3417
 20
-0.1161
 30
0.0
 10
36.7426
 20
-0.6376
 30
0.0
 10
36.1427
 20
-1.1591
 30
0.0
 10
34.9731
 20
-1.5698
 30
0.0
 10
33.622
 20
-2.1412
 30
0.0
 10
30.7872
 20
-3.446
 30
0.0
 10
27.7278
 20
-4.4575
 30
0.0
 10
23.5988
 20
-5.8443
 30
0.0
 10
19.5788
 20
-7.0836
 30
0.0
 10
16.5763
 20
-8.2991
 30
0.0
 10
14.2873
 20
-8.4467
 30
0.0
 10
13.3526
 20
-8.5215
 30
0.0
 10
12.6043
 20
-8.3435
 30
0.0
 10
12.0417
 20
-7.914
 30
0.0
 10
11.4508
 20
-7.4627
 30
0.0
 10
11.389
 20
-6.8862
 30
0.0
 10
11.8542
 20
-6.1826
 30
0.0
 10
12.318
 20
-5.4795
 30
0.0
 10
13.2203
 20
-4.7778
 30
0.0
 10
14.563
 20
-4.0753
 30
0.0
 10
16.5546
 20
-3.0345
 30
0.0
 10
19.0922
 20
-1.9468
 30
0.0
 10
22.1913
 20
-0.8082
 30
0.0
 10
25.3198
 20
0.3418
 30
0.0
 10
28.7523
 20
1.4482
 30
0.0
 10
32.5044
 20
2.5138
 30
0.0
 10
34.0197
 20
2.9518
 30
0.0
 10
35.2143
 20
3.1399
 30
0.0
 10
36.0853
 20
3.0767
 30
0.0
 10
36.6536
 20
3.0179
 30
0.0
 10
37.1422
 20
2.8562
 30
0.0
 10
37.551
 20
2.5903
 30
0.0
 10
37.551
 20
2.5903
 30
0.0
 10
37.5856
 20
2.5674
 30
0.0
 10
37.5856
 20
2.5674
 30
0.0
  0
SPLINE
  5
8D
330
1F
100
AcDbEntity
  8
Layer 1
 62
   250
370
    18
100
AcDbSpline
210
0.0
220
0.0
230
1.0
 70
    11
 71
     3
 72
    20
 73
    16
 74
     0
 42
0.0000000001
 43
0.0000000001
 40
0.0
 40
0.0
 40
0.0
 40
0.0
 40
0.2
 40
0.2
 40
0.2
 40
0.4
 40
0.4
 40
0.4
 40
0.6000000000000001
 40
0.6000000000000001
 40
0.6000000000000001
 40
0.8
 40
0.8
 40
0.8
 40
1.0
 40
1.0
 40
1.0
 40
1.0
 10
-23.3398
 20
49.7581
 30
0.0
 10
-23.3398
 20
49.7581
 30
0.0
 10
-24.0551
 20
49.5242
 30
0.0
 10
-25.6569
 20
48.5752
 30
0.0
 10
-25.6569
 20
48.5752
 30
0.0
 10
-41.2938
 20
53.314
 30
0.0
 10
-41.2938
 20
53.314
 30
0.0
 10
-41.2938
 20
53.314
 30
0.0
 10
-27.5472
 20
55.9901
 30
0.0
 10
-27.5472
 20
55.9901
 30
0.0
 10
-29.2696
 20
54.2128
 30
0.0
 10
-32.1257
 20
51.1847
 30
0.0
 10
-27.308
 20
50.7644
 30
0.0
 10
-27.308
 20
50.7644
 30
0.0
 10
-23.3398
 20
49.7581
 30
0.0
 10
-23.3398
 20
49.7581
 30
0.0
  0
SPLINE
  5
8E
330
1F
100
AcDbEntity
  8
Layer 1
 62
   250
370
    18
100
AcDbSpline
210
0.0
220
0.0
230
1.0
 70
    11
 71
     3
 72
    35
 73
    31
 74
     0
 42
0.0000000001
 43
0.0000000001
 40
0.0
 40
0.0
 40
0.0
 40
0.0
 40
0.1
 40
0.1
 40
0.1
 40
0.2
 40
0.2
 40
0.2
 40
0.3
 40
0.3
 40
0.3
 40
0.4
 40
0.4
 40
0.4
 40
0.5
 40
0.5
 40
0.5
 40
0.6000000000000001
 40
0.6000000000000001
 40
0.6000000000000001
 40
0.7000000000000001
 40
0.7000000000000001
 40
0.7000000000000001
 40
0.8
 40
0.8
 40
0.8
 40
0.9
 40
0.9
 40
0.9
 40
1.0
 40
1.0
 40
1.0
 40
1.0
 10
-27.4655
 20
47.4515
 30
0.0
 10
-30.1712
 20
45.7562
 30
0.0
 10
-33.2725
 20
43.2814
 30
0.0
 10
-36.6018
 20
38.6063
 30
0.0
 10
-36.6018
 20
38.6063
 30
0.0
 10
-36.1954
 20
30.9793
 30
0.0
 10
-35.3696
 20
29.2065
 30
0.0
 10
-35.3696
 20
29.2065
 30
0.0
 10
-34.0625
 20
35.2979
 30
0.0
 10
-22.0709
 20
45.5123
 30
0.0
 10
-22.0709
 20
45.5123
 30
0.0
 10
-7.3657
 20
41.6063
 30
0.0
 10
-7.3657
 20
41.6063
 30
0.0
 10
-4.3053
 20
36.3579
 30
0.0
 10
-1.5397
 20
29.8833
 30
0.0
 10
-1.9438
 20
23.2072
 30
0.0
 10
-1.9438
 20
23.2072
 30
0.0
 10
-1.5614
 20
23.7255
 30
0.0
 10
-0.4719
 20
25.2412
 30
0.0
 10
-0.4719
 20
25.2412
 30
0.0
 10
-0.8265
 20
-19.151
 30
0.0
 10
-0.8265
 20
-19.151
 30
0.0
 10
-0.8265
 20
-19.151
 30
0.0
 10
-43.3694
 20
-3.0181
 30
0.0
 10
-43.3694
 20
-3.0181
 30
0.0
 10
-43.3694
 20
-3.0181
 30
0.0
 10
-43.2433
 20
52.6021
 30
0.0
 10
-43.2433
 20
52.6021
 30
0.0
 10
-43.2433
 20
52.6021
 30
0.0
 10
-27.4655
 20
47.4515
 30
0.0
 10
-27.4655
 20
47.4515
 30
0.0
  0
SPLINE
  5
8F
330
1F
100
AcDbEntity
  8
Layer 1
 62
   250
370
    18
100
AcDbSpline
210
0.0
220
0.0
230
1.0
 70
    11
 71
     3
 72
    23
 73
    19
 74
     0
 42
0.0000000001
 43
0.0000000001
 40
0.0
 40
0.0
 40
0.0
 40
0.0
 40
0.1666666666666667
 40
0.1666666666666667
 40
0.1666666666666667
 40
0.3333333333333333
 40
0.3333333333333333
 40
0.3333333333333333
 40
0.5
 40
0.5
 40
0.5
 40
0.6666666666666666
 40
0.6666666666666666
 40
0.6666666666666666
 40
0.8333333333333333
 40
0.8333333333333333
 40
0.8333333333333333
 40
1.0
 40
1.0
 40
1.0
 40
1.0
 10
-20.424
 20
46.9201
 30
0.0
 10
-19.4403
 20
47.7462
 30
0.0
 10
-18.5564
 20
48.457
 30
0.0
 10
-17.4418
 20
49.3232
 30
0.0
 10
-16.8751
 20
49.7638
 30
0.0
 10
-16.0985
 20
49.9359
 30
0.0
 10
-15.4385
 20
49.6536
 30
0.0
 10
-15.1252
 20
49.5192
 30
0.0
 10
-14.6565
 20
49.4606
 30
0.0
 10
-13.9562
 20
49.6008
 30
0.0
 10
-13.2858
 20
49.7353
 30
0.0
 10
-12.6009
 20
49.4443
 30
0.0
 10
-12.1807
 20
48.9045
 30
0.0
 10
-11.3019
 20
47.7756
 30
0.0
 10
-10.1538
 20
46.2841
 30
0.0
 10
-8.5837
 20
43.6743
 30
0.0
 10
-8.5837
 20
43.6743
 30
0.0
 10
-20.424
 20
46.9201
 30
0.0
 10
-20.424
 20
46.9201
 30
0.0
  0
SPLINE
  5
90
330
1F
100
AcDbEntity
  8
Layer 1
 62
   250
370
    18
100
AcDbSpline
210
0.0
220
0.0
230
1.0
 70
    11
 71
     3
 72
    23
 73
    19
 74
     0
 42
0.0000000001
 43
0.0000000001
 40
0.0
 40
0.0
 40
0.0
 40
0.0
 40
0.1666666666666667
 40
0.1666666666666667
 40
0.1666666666666667
 40
0.3333333333333333
 40
0.3333333333333333
 40
0.3333333333333333
 40
0.5
 40
0.5
 40
0.5
 40
0.6666666666666666
 40
0.6666666666666666
 40
0.6666666666666666
 40
0.8333333333333333
 40
0.8333333333333333
 40
0.8333333333333333
 40
1.0
 40
1.0
 40
1.0
 40
1.0
 10
0.9815
 20
27.2672
 30
0.0
 10
2.3306
 20
29.1509
 30
0.0
 10
3.5187
 20
30.8327
 30
0.0
 10
4.7482
 20
32.6432
 30
0.0
 10
4.7482
 20
32.6432
 30
0.0
 10
4.1363
 20
35.8488
 30
0.0
 10
1.6426
 20
40.0124
 30
0.0
 10
1.6426
 20
40.0124
 30
0.0
 10
42.8474
 20
52.8623
 30
0.0
 10
42.8474
 20
52.8623
 30
0.0
 10
42.8474
 20
52.8623
 30
0.0
 10
42.8474
 20
-2.9714
 30
0.0
 10
42.8474
 20
-2.9714
 30
0.0
 10
42.8474
 20
-2.9714
 30
0.0
 10
0.4988
 20
-19.1437
 30
0.0
 10
0.4988
 20
-19.1437
 30
0.0
 10
0.4988
 20
-19.1437
 30
0.0
 10
0.9815
 20
27.2672
 30
0.0
 10
0.9815
 20
27.2672
 30
0.0
  0
SPLINE
  5
91
330
1F
100
AcDbEntity
  8
Layer 1
 62
   250
370
    18
100
AcDbSpline
210
0.0
220
0.0
230
1.0
 70
    11
 71
     3
 72
    35
 73
    31
 74
     0
 42
0.0000000001
 43
0.0000000001
 40
0.0
 40
0.0
 40
0.0
 40
0.0
 40
0.1
 40
0.1
 40
0.1
 40
0.2
 40
0.2
 40
0.2
 40
0.3
 40
0.3
 40
0.3
 40
0.4
 40
0.4
 40
0.4
 40
0.5
 40
0.5
 40
0.5
 40
0.6000000000000001
 40
0.6000000000000001
 40
0.6000000000000001
 40
0.7000000000000001
 40
0.7000000000000001
 40
0.7000000000000001
 40
0.8
 40
0.8
 40
0.8
 40
0.9
 40
0.9
 40
0.9
 40
1.0
 40
1.0
 40
1.0
 40
1.0
 10
0.9844
 20
41.066
 30
0.0
 10
-0.667
 20
43.7043
 30
0.0
 10
-2.8355
 20
46.315
 30
0.0
 10
-6.09
 20
48.6982
 30
0.0
 10
-6.09
 20
48.6982
 30
0.0
 10
-0.2535
 20
48.3583
 30
0.0
 10
3.1785
 20
49.4288
 30
0.0
 10
3.1785
 20
49.4288
 30
0.0
 10
4.4864
 20
49.0706
 30
0.0
 10
3.0098
 20
53.3284
 30
0.0
 10
3.0098
 20
53.3284
 30
0.0
 10
1.8113
 20
58.1737
 30
0.0
 10
-1.8469
 20
57.1184
 30
0.0
 10
-1.8469
 20
57.1184
 30
0.0
 10
-7.9515
 20
55.5427
 30
0.0
 10
-13.8968
 20
53.1515
 30
0.0
 10
-13.8968
 20
53.1515
 30
0.0
 10
-15.0414
 20
53.7027
 30
0.0
 10
-15.6581
 20
53.0143
 30
0.0
 10
-15.6581
 20
53.0143
 30
0.0
 10
-18.5826
 20
55.9695
 30
0.0
 10
-21.2297
 20
57.2817
 30
0.0
 10
-21.2297
 20
57.2817
 30
0.0
 10
1.0259
 20
62.5618
 30
0.0
 10
1.0259
 20
62.5618
 30
0.0
 10
1.0259
 20
62.5618
 30
0.0
 10
41.6704
 20
53.7302
 30
0.0
 10
41.6704
 20
53.7302
 30
0.0
 10
41.6704
 20
53.7302
 30
0.0
 10
0.9844
 20
41.066
 30
0.0
 10
0.9844
 20
41.066
 30
0.0
  0
SPLINE
  5
92
330
1F
100
AcDbEntity
  8
Layer 1
 62
   250
370
    18
100
AcDbSpline
210
0.0
220
0.0
230
1.0
 70
    11
 71
     3
 72
    29
 73
    25
 74
     0
 42
0.0000000001
 43
0.0000000001
 40
0.0
 40
0.0
 40
0.0
 40
0.0
 40
0.125
 40
0.125
 40
0.125
 40
0.25
 40
0.25
 40
0.25
 40
0.375
 40
0.375
 40
0.375
 40
0.5
 40
0.5
 40
0.5
 40
0.625
 40
0.625
 40
0.625
 40
0.75
 40
0.75
 40
0.75
 40
0.875
 40
0.875
 40
0.875
 40
1.0
 40
1.0
 40
1.0
 40
1.0
 10
-23.1734
 20
58.2363
 30
0.0
 10
-23.3441
 20
58.2813
 30
0.0
 10
-24.3327
 20
58.6802
 30
0.0
 10
-25.8433
 20
57.6964
 30
0.0
 10
-31.8458
 20
56.4081
 30
0.0
 10
-38.5664
 20
55.2443
 30
0.0
 10
-44.5684
 20
53.9545
 30
0.0
 10
-44.5684
 20
53.9545
 30
0.0
 10
-44.7015
 20
-3.7442
 30
0.0
 10
-44.7015
 20
-3.7442
 30
0.0
 10
-44.7015
 20
-3.7442
 30
0.0
 10
-0.1341
 20
-20.5127
 30
0.0
 10
-0.1341
 20
-20.5127
 30
0.0
 10
14.5044
 20
-14.9238
 30
0.0
 10
29.4304
 20
-9.2976
 30
0.0
 10
44.0675
 20
-3.7049
 30
0.0
 10
44.0768
 20
15.3924
 30
0.0
 10
43.947
 20
35.0751
 30
0.0
 10
43.947
 20
54.1724
 30
0.0
 10
29.7379
 20
57.2655
 30
0.0
 10
14.8724
 20
60.8659
 30
0.0
 10
0.6588
 20
63.9379
 30
0.0
 10
-7.269
 20
62.2409
 30
0.0
 10
-15.2463
 20
59.9373
 30
0.0
 10
-23.1734
 20
58.2363
 30
0.0
  0
SPLINE
  5
93
330
1F
100
AcDbEntity
  8
Layer 1
 62
   250
370
    18
100
AcDbSpline
210
0.0
220
0.0
230
1.0
 70
    11
 71
     3
 72
    17
 73
    13
 74
     0
 42
0.0000000001
 43
0.0000000001
 40
0.0
 40
0.0
 40
0.0
 40
0.0
 40
0.25
 40
0.25
 40
0.25
 40
0.5
 40
0.5
 40
0.5
 40
0.75
 40
0.75
 40
0.75
 40
1.0
 40
1.0
 40
1.0
 40
1.0
 10
-26.931
 20
21.7303
 30
0.0
 10
-26.931
 20
21.7303
 30
0.0
 10
-22.9149
 20
18.1584
 30
0.0
 10
-15.0509
 20
18.1508
 30
0.0
 10
-15.0509
 20
18.1508
 30
0.0
 10
-8.9765
 20
18.3253
 30
0.0
 10
-10.0946
 20
22.1999
 30
0.0
 10
-10.0946
 20
22.1999
 30
0.0
 10
-14.3748
 20
27.9697
 30
0.0
 10
-24.5339
 20
26.4958
 30
0.0
 10
-24.5339
 20
26.4958
 30
0.0
 10
-30.5655
 20
24.8404
 30
0.0
 10
-26.931
 20
21.7303
 30
0.0
  0
SPLINE
  5
94
330
1F
100
AcDbEntity
  8
Layer 1
 62
   250
370
    18
100
AcDbSpline
210
0.0
220
0.0
230
1.0
 70
    11
 71
     3
 72
    20
 73
    16
 74
     0
 42
0.0000000001
 43
0.0000000001
 40
0.0
 40
0.0
 40
0.0
 40
0.0
 40
0.2
 40
0.2
 40
0.2
 40
0.4
 40
0.4
 40
0.4
 40
0.6000000000000001
 40
0.6000000000000001
 40
0.6000000000000001
 40
0.8
 40
0.8
 40
0.8
 40
1.0
 40
1.0
 40
1.0
 40
1.0
 10
-33.4855
 20
27.5407
 30
0.0
 10
-33.4855
 20
27.5407
 30
0.0
 10
-29.6768
 20
34.0882
 30
0.0
 10
-18.463
 20
30.8677
 30
0.0
 10
-18.463
 20
30.8677
 30
0.0
 10
-7.8834
 20
28.9109
 30
0.0
 10
-6.2966
 20
22.5129
 30
0.0
 10
-6.2966
 20
22.5129
 30
0.0
 10
-4.9789
 20
11.7772
 30
0.0
 10
-19.0205
 20
13.6817
 30
0.0
 10
-19.0205
 20
13.6817
 30
0.0
 10
-28.7443
 20
15.6916
 30
0.0
 10
-32.5963
 20
20.9813
 30
0.0
 10
-32.5963
 20
20.9813
 30
0.0
 10
-35.6015
 20
24.0494
 30
0.0
 10
-33.4855
 20
27.5407
 30
0.0
  0
SPLINE
  5
95
330
1F
100
AcDbEntity
  8
Layer 1
 62
   250
370
    18
100
AcDbSpline
210
0.0
220
0.0
230
1.0
 70
    11
 71
     3
 72
    20
 73
    16
 74
     0
 42
0.0000000001
 43
0.0000000001
 40
0.0
 40
0.0
 40
0.0
 40
0.0
 40
0.2
 40
0.2
 40
0.2
 40
0.4
 40
0.4
 40
0.4
 40
0.6000000000000001
 40
0.6000000000000001
 40
0.6000000000000001
 40
0.8
 40
0.8
 40
0.8
 40
1.0
 40
1.0
 40
1.0
 40
1.0
 10
7.6026
 20
26.4095
 30
0.0
 10
7.6026
 20
26.4095
 30
0.0
 10
6.6443
 20
33.9233
 30
0.0
 10
17.5056
 20
38.1858
 30
0.0
 10
17.5056
 20
38.1858
 30
0.0
 10
27.0939
 20
43.0656
 30
0.0
 10
32.2437
 20
38.952
 30
0.0
 10
32.2437
 20
38.952
 30
0.0
 10
39.8186
 20
31.2316
 30
0.0
 10
27.5139
 20
24.204
 30
0.0
 10
27.5139
 20
24.204
 30
0.0
 10
18.5717
 20
19.8857
 30
0.0
 10
12.2976
 20
21.7429
 30
0.0
 10
12.2976
 20
21.7429
 30
0.0
 10
8.046
 20
22.3506
 30
0.0
 10
7.6026
 20
26.4095
 30
0.0
  0
SPLINE
  5
96
330
1F
100
AcDbEntity
  8
Layer 1
 62
   250
370
    18
100
AcDbSpline
210
0.0
220
0.0
230
1.0
 70
    11
 71
     3
 72
    17
 73
    13
 74
     0
 42
0.0000000001
 43
0.0000000001
 40
0.0
 40
0.0
 40
0.0
 40
0.0
 40
0.25
 40
0.25
 40
0.25
 40
0.5
 40
0.5
 40
0.5
 40
0.75
 40
0.75
 40
0.75
 40
1.0
 40
1.0
 40
1.0
 40
1.0
 10
16.4977
 20
25.6183
 30
0.0
 10
16.4977
 20
25.6183
 30
0.0
 10
21.8668
 20
25.3793
 30
0.0
 10
27.9741
 20
30.332
 30
0.0
 10
27.9741
 20
30.332
 30
0.0
 10
32.5782
 20
34.2986
 30
0.0
 10
29.2681
 20
36.6003
 30
0.0
 10
29.2681
 20
36.6003
 30
0.0
 10
22.3078
 20
38.3796
 30
0.0
 10
15.3526
 20
30.8285
 30
0.0
 10
15.3526
 20
30.8285
 30
0.0
 10
11.7154
 20
25.7402
 30
0.0
 10
16.4977
 20
25.6183
 30
0.0
  0
ENDSEC
  0
SECTION
  2
OBJECTS
  0
DICTIONARY
  5
C
330
0
100
AcDbDictionary
281
     1
  3
ACAD_DETAILVIEWSTYLE
350
9E
  3
ACAD_GROUP
350
D
  3
ACAD_LAYOUT
350
1A
  3
ACAD_MATERIAL
350
43
  3
ACAD_MLEADERSTYLE
350
5B
  3
ACAD_MLINESTYLE
350
17
  3
ACAD_PLOTSETTINGS
350
19
  3
ACAD_PLOTSTYLENAME
350
E
  3
ACAD_SCALELIST
350
47
  3
ACAD_SECTIONVIEWSTYLE
350
9F
  3
ACAD_TABLESTYLE
350
59
  3
ACAD_VISUALSTYLE
350
2A
  3
ACDB_RECOMPOSE_DATA
350
9B
  3
AcDbVariableDictionary
350
97
  0
SUN
  5
5D
330
29
100
AcDbSun
 90
        1
290
     0
 63
     7
421
 16777215
 40
1.0
291
     1
 91
  2455826
 92
 54000000
292
     0
 70
     2
 71
   256
280
     1
  0
DICTIONARY
  5
9E
102
{ACAD_REACTORS
330
C
102
}
330
C
100
AcDbDictionary
281
     1
  0
DICTIONARY
  5
D
102
{ACAD_REACTORS
330
C
102
}
330
C
100
AcDbDictionary
281
     1
  0
DICTIONARY
  5
1A
102
{ACAD_REACTORS
330
C
102
}
330
C
100
AcDbDictionary
281
     1
  3
Layout1
350
1E
  3
Layout2
350
26
  3
Model
350
22
  0
DICTIONARY
  5
43
102
{ACAD_REACTORS
330
C
102
}
330
C
100
AcDbDictionary
281
     1
  3
ByBlock
350
45
  3
ByLayer
350
44
  3
Global
350
46
  0
DICTIONARY
  5
5B
102
{ACAD_REACTORS
330
C
102
}
330
C
100
AcDbDictionary
281
     1
  3
Standard
350
5C
  0
DICTIONARY
  5
17
102
{ACAD_REACTORS
330
C
102
}
330
C
100
AcDbDictionary
281
     1
  3
Standard
350
18
  0
DICTIONARY
  5
19
102
{ACAD_REACTORS
330
C
102
}
330
C
100
AcDbDictionary
281
     1
  0
ACDBDICTIONARYWDFLT
  5
E
102
{ACAD_REACTORS
330
C
102
}
330
C
100
AcDbDictionary
281
     1
  3
Normal
350
F
100
AcDbDictionaryWithDefault
340
F
  0
DICTIONARY
  5
47
102
{ACAD_REACTORS
330
C
102
}
330
C
100
AcDbDictionary
281
     1
  3
A0
350
48
  3
A1
350
49
  3
A2
350
4A
  3
A3
350
4B
  3
A4
350
4C
  3
A5
350
4D
  3
A6
350
4E
  3
A7
350
4F
  3
A8
350
50
  3
A9
350
51
  3
B1
350
52
  3
B2
350
53
  3
B3
350
54
  3
B4
350
55
  3
B5
350
56
  3
B6
350
57
  3
B7
350
58
  0
DICTIONARY
  5
9F
102
{ACAD_REACTORS
330
C
102
}
330
C
100
AcDbDictionary
281
     1
  0
DICTIONARY
  5
59
102
{ACAD_REACTORS
330
C
102
}
330
C
100
AcDbDictionary
281
     1
  3
Standard
350
5A
  0
DICTIONARY
  5
2A
102
{ACAD_REACTORS
330
C
102
}
330
C
100
AcDbDictionary
281
     1
  3
2dWireframe
350
2F
  3
Basic
350
32
  3
Brighten
350
36
  3
ColorChange
350
3A
  3
Conceptual
350
34
  3
Dim
350
35
  3
EdgeColorOff
350
3D
  3
Facepattern
350
39
  3
Flat
350
2B
  3
FlatWithEdges
350
2C
  3
Gouraud
350
2D
  3
GouraudWithEdges
350
2E
  3
Hidden
350
31
  3
JitterOff
350
3B
  3
Linepattern
350
38
  3
OverhangOff
350
3C
  3
Realistic
350
33
  3
Shaded
350
42
  3
Shaded with edges
350
41
  3
Shades of Gray
350
3E
  3
Sketchy
350
3F
  3
Thicken
350
37
  3
Wireframe
350
30
  3
X-Ray
350
40
  0
XRECORD
  5
9B
102
{ACAD_REACTORS
330
C
102
}
330
C
100
AcDbXrecord
280
     1
 90
        1
330
5A
  0
DICTIONARY
  5
97
102
{ACAD_REACTORS
330
C
102
}
330
C
100
AcDbDictionary
281
     1
  3
CANNOSCALE
350
98
  3
CMLEADERSTYLE
350
9D
  3
CTABLESTYLE
350
9C
  0
LAYOUT
  5
1E
102
{ACAD_REACTORS
330
1A
102
}
330
1A
100
AcDbPlotSettings
  1

  2
none_device
  4

  6

 40
0.0
 41
0.0
 42
0.0
 43
0.0
 44
0.0
 45
0.0
 46
0.0
 47
0.0
 48
0.0
 49
0.0
140
0.0
141
0.0
142
1.0
143
1.0
 70
   688
 72
     0
 73
     0
 74
     5
  7

 75
    16
 76
     0
 77
     2
 78
   300
147
1.0
148
0.0
149
0.0
100
AcDbLayout
  1
Layout1
 70
     1
 71
     1
 10
0.0
 20
0.0
 11
12.0
 21
9.0
 12
0.0
 22
0.0
 32
0.0
 14
1.000000000000000E+20
 24
1.000000000000000E+20
 34
1.000000000000000E+20
 15
-1.000000000000000E+20
 25
-1.000000000000000E+20
 35
-1.000000000000000E+20
146
0.0
 13
0.0
 23
0.0
 33
0.0
 16
1.0
 26
0.0
 36
0.0
 17
0.0
 27
1.0
 37
0.0
 76
     0
330
1B
  0
LAYOUT
  5
26
102
{ACAD_REACTORS
330
1A
102
}
330
1A
100
AcDbPlotSettings
  1

  2
none_device
  4

  6

 40
0.0
 41
0.0
 42
0.0
 43
0.0
 44
0.0
 45
0.0
 46
0.0
 47
0.0
 48
0.0
 49
0.0
140
0.0
141
0.0
142
1.0
143
1.0
 70
   688
 72
     0
 73
     0
 74
     5
  7

 75
    16
 76
     0
 77
     2
 78
   300
147
1.0
148
0.0
149
0.0
100
AcDbLayout
  1
Layout2
 70
     1
 71
     2
 10
0.0
 20
0.0
 11
0.0
 21
0.0
 12
0.0
 22
0.0
 32
0.0
 14
0.0
 24
0.0
 34
0.0
 15
0.0
 25
0.0
 35
0.0
146
0.0
 13
0.0
 23
0.0
 33
0.0
 16
1.0
 26
0.0
 36
0.0
 17
0.0
 27
1.0
 37
0.0
 76
     0
330
23
  0
LAYOUT
  5
22
102
{ACAD_REACTORS
330
1A
102
}
330
1A
100
AcDbPlotSettings
  1

  2
none_device
  4
Letter_(8.50_x_11.00_Inches)
  6

 40
6.35
 41
6.35
 42
6.35000508
 43
6.35000508
 44
215.9
 45
279.4
 46
0.0
 47
0.0
 48
0.0
 49
0.0
140
0.0
141
0.0
142
1.0
143
1.0
 70
  1712
 72
     0
 73
     0
 74
     0
  7

 75
     0
 76
     0
 77
     2
 78
   300
147
1.0
148
0.0
149
0.0
100
AcDbLayout
  1
Model
 70
     1
 71
     0
 10
0.0
 20
0.0
 11
12.0
 21
9.0
 12
0.0
 22
0.0
 32
0.0
 14
-65.09
 24
-75.09
 34
0.0
 15
65.09
 25
75.09
 35
0.0
146
0.0
 13
0.0
 23
0.0
 33
0.0
 16
1.0
 26
0.0
 36
0.0
 17
0.0
 27
1.0
 37
0.0
 76
     0
330
1F
331
29
  0
MATERIAL
  5
45
102
{ACAD_REACTORS
330
43
102
}
330
43
100
AcDbMaterial
  1
ByBlock
 72
     1
 94
      127
  0
MATERIAL
  5
44
102
{ACAD_REACTORS
330
43
102
}
330
43
100
AcDbMaterial
  1
ByLayer
 72
     1
 94
      127
  0
MATERIAL
  5
46
102
{ACAD_REACTORS
330
43
102
}
330
43
100
AcDbMaterial
  1
Global
 72
     1
 94
      127
  0
MLEADERSTYLE
  5
5C
102
{ACAD_REACTORS
330
5B
102
}
330
5B
100
AcDbMLeaderStyle
179
     2
170
     2
171
     1
172
     0
 90
        2
 40
0.0
 41
0.0
173
     1
 91
-1056964608
340
14
 92
       -2
290
     1
 42
0.09
291
     1
 43
0.36
  3
Standard
341
0
 44
0.18
300

342
11
174
     1
178
     6
175
     1
176
     0
 93
-1056964608
 45
0.18
292
     0
297
     0
 46
0.18
343
0
 94
-1056964608
 47
1.0
 49
1.0
140
1.0
293
     1
141
0.0
294
     1
177
     0
142
1.0
295
     0
296
     0
143
0.125
271
     0
272
     9
273
     9
298
     0
  0
MLINESTYLE
  5
18
102
{ACAD_REACTORS
330
17
102
}
330
17
100
AcDbMlineStyle
  2
Standard
 70
     0
  3

 62
   256
 51
90.0
 52
90.0
 71
     2
 49
0.5
 62
   256
  6
BYLAYER
 49
-0.5
 62
   256
  6
BYLAYER
  0
ACDBPLACEHOLDER
  5
F
102
{ACAD_REACTORS
330
E
102
}
330
E
  0
SCALE
  5
48
102
{ACAD_REACTORS
330
47
102
}
330
47
100
AcDbScale
 70
     0
300
1:1
140
1.0
141
1.0
290
     1
  0
SCALE
  5
49
102
{ACAD_REACTORS
330
47
102
}
330
47
100
AcDbScale
 70
     0
300
1/128" = 1'-0"
140
0.0078125
141
12.0
290
     0
  0
SCALE
  5
4A
102
{ACAD_REACTORS
330
47
102
}
330
47
100
AcDbScale
 70
     0
300
1/64" = 1'-0"
140
0.015625
141
12.0
290
     0
  0
SCALE
  5
4B
102
{ACAD_REACTORS
330
47
102
}
330
47
100
AcDbScale
 70
     0
300
1/32" = 1'-0"
140
0.03125
141
12.0
290
     0
  0
SCALE
  5
4C
102
{ACAD_REACTORS
330
47
102
}
330
47
100
AcDbScale
 70
     0
300
1/16" = 1'-0"
140
0.0625
141
12.0
290
     0
  0
SCALE
  5
4D
102
{ACAD_REACTORS
330
47
102
}
330
47
100
AcDbScale
 70
     0
300
3/32" = 1'-0"
140
0.09375
141
12.0
290
     0
  0
SCALE
  5
4E
102
{ACAD_REACTORS
330
47
102
}
330
47
100
AcDbScale
 70
     0
300
1/8" = 1'-0"
140
0.125
141
12.0
290
     0
  0
SCALE
  5
4F
102
{ACAD_REACTORS
330
47
102
}
330
47
100
AcDbScale
 70
     0
300
3/16" = 1'-0"
140
0.1875
141
12.0
290
     0
  0
SCALE
  5
50
102
{ACAD_REACTORS
330
47
102
}
330
47
100
AcDbScale
 70
     0
300
1/4" = 1'-0"
140
0.25
141
12.0
290
     0
  0
SCALE
  5
51
102
{ACAD_REACTORS
330
47
102
}
330
47
100
AcDbScale
 70
     0
300
3/8" = 1'-0"
140
0.375
141
12.0
290
     0
  0
SCALE
  5
52
102
{ACAD_REACTORS
330
47
102
}
330
47
100
AcDbScale
 70
     0
300
1/2" = 1'-0"
140
0.5
141
12.0
290
     0
  0
SCALE
  5
53
102
{ACAD_REACTORS
330
47
102
}
330
47
100
AcDbScale
 70
     0
300
3/4" = 1'-0"
140
0.75
141
12.0
290
     0
  0
SCALE
  5
54
102
{ACAD_REACTORS
330
47
102
}
330
47
100
AcDbScale
 70
     0
300
1" = 1'-0"
140
1.0
141
12.0
290
     0
  0
SCALE
  5
55
102
{ACAD_REACTORS
330
47
102
}
330
47
100
AcDbScale
 70
     0
300
1-1/2" = 1'-0"
140
1.5
141
12.0
290
     0
  0
SCALE
  5
56
102
{ACAD_REACTORS
330
47
102
}
330
47
100
AcDbScale
 70
     0
300
3" = 1'-0"
140
3.0
141
12.0
290
     0
  0
SCALE
  5
57
102
{ACAD_REACTORS
330
47
102
}
330
47
100
AcDbScale
 70
     0
300
6" = 1'-0"
140
6.0
141
12.0
290
     0
  0
SCALE
  5
58
102
{ACAD_REACTORS
330
47
102
}
330
47
100
AcDbScale
 70
     0
300
1'-0" = 1'-0"
140
12.0
141
12.0
290
     0
  0
TABLESTYLE
  5
5A
102
{ACAD_REACTORS
330
59
102
}
102
{ACAD_XDICTIONARY
360
99
102
}
330
59
100
AcDbTableStyle
  3
Standard
 70
     0
 71
     0
 40
0.06
 41
0.06
280
     0
281
     0
  7
Standard
140
0.18
170
     2
 62
     0
 63
   257
283
     0
 90
        4
 91
        0
  1

274
    -2
284
     1
 64
     0
275
    -2
285
     1
 65
     0
276
    -2
286
     1
 66
     0
277
    -2
287
     1
 67
     0
278
    -2
288
     1
 68
     0
279
    -2
289
     1
 69
     0
  7
Standard
140
0.25
170
     5
 62
     0
 63
   257
283
     0
 90
        4
 91
        0
  1

274
    -2
284
     1
 64
     0
275
    -2
285
     1
 65
     0
276
    -2
286
     1
 66
     0
277
    -2
287
     1
 67
     0
278
    -2
288
     1
 68
     0
279
    -2
289
     1
 69
     0
  7
Standard
140
0.18
170
     5
 62
     0
 63
   257
283
     0
 90
        4
 91
        0
  1

274
    -2
284
     1
 64
     0
275
    -2
285
     1
 65
     0
276
    -2
286
     1
 66
     0
277
    -2
287
     1
 67
     0
278
    -2
288
     1
 68
     0
279
    -2
289
     1
 69
     0
  0
VISUALSTYLE
  5
2F
102
{ACAD_REACTORS
330
2A
102
}
330
2A
100
AcDbVisualStyle
  2
2dWireframe
 70
     4
177
     3
291
     0
 70
    58
 90
        0
176
     1
 90
        2
176
     1
 90
        0
176
     1
 90
        0
176
     1
 40
0.6
176
     1
 40
30.0
176
     1
 62
     7
420
 16777215
176
     1
 90
        1
176
     1
 90
        4
176
     1
 62
     7
176
     1
 62
   257
176
     1
 90
        1
176
     1
 90
        1
176
     1
 40
1.0
176
     1
 90
        0
176
     1
 62
   257
176
     1
 40
1.0
176
     1
 90
        1
176
     1
 90
        6
176
     1
 90
        2
176
     1
 62
     7
176
     1
 90
        5
176
     1
 90
        0
176
     1
 90
        0
176
     1
290
     0
176
     1
 90
        1
176
     1
 40
0.0
176
     1
 90
        0
176
     1
290
     1
176
     1
290
     1
176
     1
290
     0
176
     1
290
     0
176
     1
290
     0
176
     1
290
     0
176
     1
290
     0
176
     1
290
     0
176
     1
290
     0
176
     1
 90
       50
176
     1
 40
0.0
176
     1
 40
1.0
176
     1
 90
        0
176
     1
 62
    18
420
        0
176
     1
 90
       50
176
     1
 90
        3
176
     1
 62
     5
420
      255
176
     1
290
     0
176
     1
 90
       50
176
     1
 90
       50
176
     1
 90
       50
176
     1
290
     0
176
     1
 90
       50
176
     1
 62
   256
176
     0
 40
1.0
176
     0
 90
        2
176
     1
  1
strokes_ogs.tif
176
     1
290
     0
176
     1
 40
1.0
176
     1
 40
1.0
176
     1
  0
VISUALSTYLE
  5
32
102
{ACAD_REACTORS
330
2A
102
}
330
2A
100
AcDbVisualStyle
  2
Basic
 70
     7
177
     3
291
     1
 70
    58
 90
        1
176
     1
 90
        0
176
     1
 90
        1
176
     1
 90
        0
176
     1
 40
0.6
176
     1
 40
30.0
176
     1
 62
     7
420
 16777215
176
     1
 90
        0
176
     1
 90
        4
176
     1
 62
     7
176
     1
 62
   257
176
     1
 90
        1
176
     1
 90
        1
176
     1
 40
1.0
176
     1
 90
        8
176
     1
 62
     7
176
     1
 40
1.0
176
     1
 90
        1
176
     1
 90
        6
176
     1
 90
        2
176
     1
 62
     7
176
     1
 90
        5
176
     1
 90
        0
176
     1
 90
        0
176
     1
290
     0
176
     1
 90
        1
176
     1
 40
0.0
176
     1
 90
        0
176
     1
290
     0
176
     1
290
     1
176
     1
290
     1
176
     1
290
     0
176
     1
290
     0
176
     1
290
     0
176
     1
290
     0
176
     1
290
     0
176
     1
290
     0
176
     1
 90
       50
176
     1
 40
0.0
176
     1
 40
1.0
176
     1
 90
        0
176
     1
 62
    18
420
        0
176
     1
 90
       50
176
     1
 90
        3
176
     1
 62
     5
420
      255
176
     1
290
     0
176
     1
 90
       50
176
     1
 90
       50
176
     1
 90
       50
176
     1
290
     0
176
     1
 90
       50
176
     1
 62
   256
176
     0
 40
1.0
176
     0
 90
        2
176
     1
  1
strokes_ogs.tif
176
     1
290
     0
176
     1
 40
1.0
176
     1
 40
1.0
176
     1
  0
VISUALSTYLE
  5
36
102
{ACAD_REACTORS
330
2A
102
}
330
2A
100
AcDbVisualStyle
  2
Brighten
 70
    12
177
     3
291
     1
 70
    58
 90
        2
176
     1
 90
        2
176
     1
 90
        0
176
     1
 90
        0
176
     1
 40
0.6
176
     1
 40
30.0
176
     1
 62
     7
420
 16777215
176
     1
 90
        1
176
     1
 90
        4
176
     1
 62
     7
176
     1
 62
   257
176
     1
 90
        1
176
     1
 90
        1
176
     1
 40
1.0
176
     1
 90
        8
176
     1
 62
     7
176
     1
 40
1.0
176
     1
 90
        1
176
     1
 90
        6
176
     1
 90
        2
176
     1
 62
     7
176
     1
 90
        5
176
     1
 90
        0
176
     1
 90
        0
176
     1
290
     0
176
     1
 90
        1
176
     1
 40
50.0
176
     1
 90
        0
176
     1
290
     0
176
     1
290
     1
176
     1
290
     1
176
     1
290
     0
176
     1
290
     0
176
     1
290
     0
176
     1
290
     0
176
     1
290
     0
176
     1
290
     0
176
     1
 90
       50
176
     1
 40
0.0
176
     1
 40
1.0
176
     1
 90
        0
176
     1
 62
    18
420
        0
176
     1
 90
       50
176
     1
 90
        3
176
     1
 62
     5
420
      255
176
     1
290
     0
176
     1
 90
       50
176
     1
 90
       50
176
     1
 90
       50
176
     1
290
     0
176
     1
 90
       50
176
     1
 62
   256
176
     0
 40
1.0
176
     0
 90
        2
176
     1
  1
strokes_ogs.tif
176
     1
290
     0
176
     1
 40
1.0
176
     1
 40
1.0
176
     1
  0
VISUALSTYLE
  5
3A
102
{ACAD_REACTORS
330
2A
102
}
330
2A
100
AcDbVisualStyle
  2
ColorChange
 70
    16
177
     3
291
     1
 70
    58
 90
        2
176
     1
 90
        2
176
     1
 90
        3
176
     1
 90
        0
176
     1
 40
0.6
176
     1
 40
30.0
176
     1
 62
     8
420
  8421504
176
     1
 90
        1
176
     1
 90
        4
176
     1
 62
     7
176
     1
 62
   257
176
     1
 90
        1
176
     1
 90
        1
176
     1
 40
1.0
176
     1
 90
        8
176
     1
 62
     8
420
  8421504
176
     1
 40
1.0
176
     1
 90
        1
176
     1
 90
        6
176
     1
 90
        2
176
     1
 62
     7
176
     1
 90
        5
176
     1
 90
        0
176
     1
 90
        0
176
     1
290
     0
176
     1
 90
        1
176
     1
 40
0.0
176
     1
 90
        0
176
     1
290
     0
176
     1
290
     1
176
     1
290
     1
176
     1
290
     0
176
     1
290
     0
176
     1
290
     0
176
     1
290
     0
176
     1
290
     0
176
     1
290
     0
176
     1
 90
       50
176
     1
 40
0.0
176
     1
 40
1.0
176
     1
 90
        0
176
     1
 62
    18
420
        0
176
     1
 90
       50
176
     1
 90
        3
176
     1
 62
     5
420
      255
176
     1
290
     0
176
     1
 90
       50
176
     1
 90
       50
176
     1
 90
       50
176
     1
290
     0
176
     1
 90
       50
176
     1
 62
   256
176
     0
 40
1.0
176
     0
 90
        2
176
     1
  1
strokes_ogs.tif
176
     1
290
     0
176
     1
 40
1.0
176
     1
 40
1.0
176
     1
  0
VISUALSTYLE
  5
34
102
{ACAD_REACTORS
330
2A
102
}
330
2A
100
AcDbVisualStyle
  2
Conceptual
 70
     9
177
     3
291
     0
 70
    58
 90
        3
176
     1
 90
        2
176
     1
 90
        0
176
     1
 90
        0
176
     1
 40
0.6
176
     1
 40
30.0
176
     1
 62
     7
420
 16777215
176
     1
 90
        2
176
     1
 90
        2
176
     1
 62
     7
176
     1
 62
   257
176
     1
 90
        1
176
     1
 90
        1
176
     1
 40
179.0
176
     1
 90
        8
176
     1
 62
     7
176
     1
 40
1.0
176
     1
 90
        1
176
     1
 90
        6
176
     1
 90
        2
176
     1
 62
     7
176
     1
 90
        3
176
     1
 90
        0
176
     1
 90
        0
176
     1
290
     0
176
     1
 90
        1
176
     1
 40
0.0
176
     1
 90
        0
176
     1
290
     0
176
     1
290
     1
176
     1
290
     1
176
     1
290
     0
176
     1
290
     0
176
     1
290
     0
176
     1
290
     0
176
     1
290
     0
176
     1
290
     0
176
     1
 90
       50
176
     1
 40
0.0
176
     1
 40
1.0
176
     1
 90
        0
176
     1
 62
    18
420
        0
176
     1
 90
       50
176
     1
 90
        3
176
     1
 62
     5
420
      255
176
     1
290
     0
176
     1
 90
       50
176
     1
 90
       50
176
     1
 90
       50
176
     1
290
     0
176
     1
 90
       50
176
     1
 62
   256
176
     0
 40
1.0
176
     0
 90
        2
176
     1
  1
strokes_ogs.tif
176
     1
290
     0
176
     1
 40
1.0
176
     1
 40
1.0
176
     1
  0
VISUALSTYLE
  5
35
102
{ACAD_REACTORS
330
2A
102
}
330
2A
100
AcDbVisualStyle
  2
Dim
 70
    11
177
     3
291
     1
 70
    58
 90
        2
176
     1
 90
        2
176
     1
 90
        0
176
     1
 90
        0
176
     1
 40
0.6
176
     1
 40
30.0
176
     1
 62
     7
420
 16777215
176
     1
 90
        1
176
     1
 90
        4
176
     1
 62
     7
176
     1
 62
   257
176
     1
 90
        1
176
     1
 90
        1
176
     1
 40
1.0
176
     1
 90
        8
176
     1
 62
     7
176
     1
 40
1.0
176
     1
 90
        1
176
     1
 90
        6
176
     1
 90
        2
176
     1
 62
     7
176
     1
 90
        5
176
     1
 90
        0
176
     1
 90
        0
176
     1
290
     0
176
     1
 90
        1
176
     1
 40
-50.0
176
     1
 90
        0
176
     1
290
     0
176
     1
290
     1
176
     1
290
     1
176
     1
290
     0
176
     1
290
     0
176
     1
290
     0
176
     1
290
     0
176
     1
290
     0
176
     1
290
     0
176
     1
 90
       50
176
     1
 40
0.0
176
     1
 40
1.0
176
     1
 90
        0
176
     1
 62
    18
420
        0
176
     1
 90
       50
176
     1
 90
        3
176
     1
 62
     5
420
      255
176
     1
290
     0
176
     1
 90
       50
176
     1
 90
       50
176
     1
 90
       50
176
     1
290
     0
176
     1
 90
       50
176
     1
 62
   256
176
     0
 40
1.0
176
     0
 90
        2
176
     1
  1
strokes_ogs.tif
176
     1
290
     0
176
     1
 40
1.0
176
     1
 40
1.0
176
     1
  0
VISUALSTYLE
  5
3D
102
{ACAD_REACTORS
330
2A
102
}
330
2A
100
AcDbVisualStyle
  2
EdgeColorOff
 70
    22
177
     3
291
     1
 70
    58
 90
        2
176
     0
 90
        2
176
     0
 90
        0
176
     0
 90
        0
176
     0
 40
0.6
176
     0
 40
30.0
176
     0
 62
     7
420
 16777215
176
     0
 90
        1
176
     0
 90
        4
176
     0
 62
     7
176
     0
 62
   257
176
     0
 90
        1
176
     0
 90
        1
176
     0
 40
1.0
176
     0
 90
        8
176
     2
 62
     7
176
     0
 40
1.0
176
     0
 90
        1
176
     0
 90
        6
176
     0
 90
        2
176
     0
 62
     7
176
     0
 90
        5
176
     0
 90
        0
176
     0
 90
        0
176
     0
290
     0
176
     0
 90
        1
176
     0
 40
0.0
176
     0
 90
        0
176
     0
290
     0
176
     0
290
     1
176
     0
290
     1
176
     0
290
     0
176
     0
290
     0
176
     0
290
     0
176
     0
290
     0
176
     0
290
     0
176
     0
290
     0
176
     0
 90
       50
176
     0
 40
0.0
176
     0
 40
1.0
176
     0
 90
        0
176
     0
 62
    18
420
        0
176
     0
 90
       50
176
     0
 90
        3
176
     0
 62
     5
420
      255
176
     0
290
     0
176
     0
 90
       50
176
     0
 90
       50
176
     0
 90
       50
176
     0
290
     0
176
     0
 90
       50
176
     0
 62
   256
176
     0
 40
1.0
176
     0
 90
        2
176
     0
  1
strokes_ogs.tif
176
     0
290
     0
176
     0
 40
1.0
176
     0
 40
1.0
176
     0
  0
VISUALSTYLE
  5
39
102
{ACAD_REACTORS
330
2A
102
}
330
2A
100
AcDbVisualStyle
  2
Facepattern
 70
    15
177
     3
291
     1
 70
    58
 90
        2
176
     1
 90
        2
176
     1
 90
        0
176
     1
 90
        0
176
     1
 40
0.6
176
     1
 40
30.0
176
     1
 62
     7
420
 16777215
176
     1
 90
        1
176
     1
 90
        4
176
     1
 62
     7
176
     1
 62
   257
176
     1
 90
        1
176
     1
 90
        1
176
     1
 40
1.0
176
     1
 90
        8
176
     1
 62
     7
176
     1
 40
1.0
176
     1
 90
        1
176
     1
 90
        6
176
     1
 90
        2
176
     1
 62
     7
176
     1
 90
        5
176
     1
 90
        0
176
     1
 90
        0
176
     1
290
     0
176
     1
 90
        1
176
     1
 40
0.0
176
     1
 90
        0
176
     1
290
     0
176
     1
290
     1
176
     1
290
     1
176
     1
290
     0
176
     1
290
     0
176
     1
290
     0
176
     1
290
     0
176
     1
290
     0
176
     1
290
     0
176
     1
 90
       50
176
     1
 40
0.0
176
     1
 40
1.0
176
     1
 90
        0
176
     1
 62
    18
420
        0
176
     1
 90
       50
176
     1
 90
        3
176
     1
 62
     5
420
      255
176
     1
290
     0
176
     1
 90
       50
176
     1
 90
       50
176
     1
 90
       50
176
     1
290
     0
176
     1
 90
       50
176
     1
 62
   256
176
     0
 40
1.0
176
     0
 90
        2
176
     1
  1
strokes_ogs.tif
176
     1
290
     0
176
     1
 40
1.0
176
     1
 40
1.0
176
     1
  0
VISUALSTYLE
  5
2B
102
{ACAD_REACTORS
330
2A
102
}
330
2A
100
AcDbVisualStyle
  2
Flat
 70
     0
177
     3
291
     1
 70
    58
 90
        2
176
     1
 90
        1
176
     1
 90
        1
176
     1
 90
        2
176
     1
 40
0.6
176
     1
 40
30.0
176
     1
 62
     7
420
 16777215
176
     1
 90
        0
176
     1
 90
        0
176
     1
 62
     7
176
     1
 62
   257
176
     1
 90
        1
176
     1
 90
        1
176
     1
 40
1.0
176
     1
 90
        8
176
     1
 62
     7
176
     1
 40
1.0
176
     1
 90
        1
176
     1
 90
        6
176
     1
 90
        2
176
     1
 62
     7
176
     1
 90
        5
176
     1
 90
        0
176
     1
 90
        0
176
     1
290
     0
176
     1
 90
       13
176
     1
 40
0.0
176
     1
 90
        0
176
     1
290
     0
176
     1
290
     1
176
     1
290
     1
176
     1
290
     0
176
     1
290
     0
176
     1
290
     0
176
     1
290
     0
176
     1
290
     0
176
     1
290
     0
176
     1
 90
       50
176
     1
 40
0.0
176
     1
 40
1.0
176
     1
 90
        0
176
     1
 62
    18
420
        0
176
     1
 90
       50
176
     1
 90
        3
176
     1
 62
     5
420
      255
176
     1
290
     0
176
     1
 90
       50
176
     1
 90
       50
176
     1
 90
       50
176
     1
290
     0
176
     1
 90
       50
176
     1
 62
   256
176
     0
 40
1.0
176
     0
 90
        2
176
     1
  1
strokes_ogs.tif
176
     1
290
     0
176
     1
 40
1.0
176
     1
 40
1.0
176
     1
  0
VISUALSTYLE
  5
2C
102
{ACAD_REACTORS
330
2A
102
}
330
2A
100
AcDbVisualStyle
  2
FlatWithEdges
 70
     1
177
     3
291
     1
 70
    58
 90
        2
176
     1
 90
        1
176
     1
 90
        1
176
     1
 90
        2
176
     1
 40
0.6
176
     1
 40
30.0
176
     1
 62
     7
420
 16777215
176
     1
 90
        1
176
     1
 90
        0
176
     1
 62
     7
176
     1
 62
   257
176
     1
 90
        1
176
     1
 90
        1
176
     1
 40
1.0
176
     1
 90
        0
176
     1
 62
   257
176
     1
 40
1.0
176
     1
 90
        1
176
     1
 90
        6
176
     1
 90
        2
176
     1
 62
     7
176
     1
 90
        5
176
     1
 90
        0
176
     1
 90
        0
176
     1
290
     0
176
     1
 90
       13
176
     1
 40
0.0
176
     1
 90
        0
176
     1
290
     0
176
     1
290
     1
176
     1
290
     1
176
     1
290
     0
176
     1
290
     0
176
     1
290
     0
176
     1
290
     0
176
     1
290
     0
176
     1
290
     0
176
     1
 90
       50
176
     1
 40
0.0
176
     1
 40
1.0
176
     1
 90
        0
176
     1
 62
    18
420
        0
176
     1
 90
       50
176
     1
 90
        3
176
     1
 62
     5
420
      255
176
     1
290
     0
176
     1
 90
       50
176
     1
 90
       50
176
     1
 90
       50
176
     1
290
     0
176
     1
 90
       50
176
     1
 62
   256
176
     0
 40
1.0
176
     0
 90
        2
176
     1
  1
strokes_ogs.tif
176
     1
290
     0
176
     1
 40
1.0
176
     1
 40
1.0
176
     1
  0
VISUALSTYLE
  5
2D
102
{ACAD_REACTORS
330
2A
102
}
330
2A
100
AcDbVisualStyle
  2
Gouraud
 70
     2
177
     3
291
     1
 70
    58
 90
        2
176
     1
 90
        2
176
     1
 90
        1
176
     1
 90
        2
176
     1
 40
0.6
176
     1
 40
30.0
176
     1
 62
     7
420
 16777215
176
     1
 90
        0
176
     1
 90
        0
176
     1
 62
     7
176
     1
 62
   257
176
     1
 90
        1
176
     1
 90
        1
176
     1
 40
1.0
176
     1
 90
        0
176
     1
 62
     7
176
     1
 40
1.0
176
     1
 90
        1
176
     1
 90
        6
176
     1
 90
        2
176
     1
 62
     7
176
     1
 90
        5
176
     1
 90
        0
176
     1
 90
        0
176
     1
290
     0
176
     1
 90
       13
176
     1
 40
0.0
176
     1
 90
        0
176
     1
290
     0
176
     1
290
     1
176
     1
290
     1
176
     1
290
     0
176
     1
290
     0
176
     1
290
     0
176
     1
290
     0
176
     1
290
     0
176
     1
290
     0
176
     1
 90
       50
176
     1
 40
0.0
176
     1
 40
1.0
176
     1
 90
        0
176
     1
 62
    18
420
        0
176
     1
 90
       50
176
     1
 90
        3
176
     1
 62
     5
420
      255
176
     1
290
     0
176
     1
 90
       50
176
     1
 90
       50
176
     1
 90
       50
176
     1
290
     0
176
     1
 90
       50
176
     1
 62
   256
176
     0
 40
1.0
176
     0
 90
        2
176
     1
  1
strokes_ogs.tif
176
     1
290
     0
176
     1
 40
1.0
176
     1
 40
1.0
176
     1
  0
VISUALSTYLE
  5
2E
102
{ACAD_REACTORS
330
2A
102
}
330
2A
100
AcDbVisualStyle
  2
GouraudWithEdges
 70
     3
177
     3
291
     1
 70
    58
 90
        2
176
     1
 90
        2
176
     1
 90
        1
176
     1
 90
        2
176
     1
 40
0.6
176
     1
 40
30.0
176
     1
 62
     7
420
 16777215
176
     1
 90
        1
176
     1
 90
        0
176
     1
 62
     7
176
     1
 62
   257
176
     1
 90
        1
176
     1
 90
        1
176
     1
 40
1.0
176
     1
 90
        0
176
     1
 62
   257
176
     1
 40
1.0
176
     1
 90
        1
176
     1
 90
        6
176
     1
 90
        2
176
     1
 62
     7
176
     1
 90
        5
176
     1
 90
        0
176
     1
 90
        0
176
     1
290
     0
176
     1
 90
       13
176
     1
 40
0.0
176
     1
 90
        0
176
     1
290
     0
176
     1
290
     1
176
     1
290
     1
176
     1
290
     0
176
     1
290
     0
176
     1
290
     0
176
     1
290
     0
176
     1
290
     0
176
     1
290
     0
176
     1
 90
       50
176
     1
 40
0.0
176
     1
 40
1.0
176
     1
 90
        0
176
     1
 62
    18
420
        0
176
     1
 90
       50
176
     1
 90
        3
176
     1
 62
     5
420
      255
176
     1
290
     0
176
     1
 90
       50
176
     1
 90
       50
176
     1
 90
       50
176
     1
290
     0
176
     1
 90
       50
176
     1
 62
   256
176
     0
 40
1.0
176
     0
 90
        2
176
     1
  1
strokes_ogs.tif
176
     1
290
     0
176
     1
 40
1.0
176
     1
 40
1.0
176
     1
  0
VISUALSTYLE
  5
31
102
{ACAD_REACTORS
330
2A
102
}
330
2A
100
AcDbVisualStyle
  2
Hidden
 70
     6
177
     3
291
     0
 70
    58
 90
        1
176
     1
 90
        2
176
     1
 90
        2
176
     1
 90
        0
176
     1
 40
0.6
176
     1
 40
30.0
176
     1
 62
     7
420
 16777215
176
     1
 90
        2
176
     1
 90
        2
176
     1
 62
     7
176
     1
 62
   257
176
     1
 90
        2
176
     1
 90
        1
176
     1
 40
40.0
176
     1
 90
        0
176
     1
 62
   257
176
     1
 40
1.0
176
     1
 90
        1
176
     1
 90
        6
176
     1
 90
        2
176
     1
 62
     7
176
     1
 90
        3
176
     1
 90
        0
176
     1
 90
        0
176
     1
290
     0
176
     1
 90
        1
176
     1
 40
0.0
176
     1
 90
        0
176
     1
290
     0
176
     1
290
     1
176
     1
290
     1
176
     1
290
     0
176
     1
290
     0
176
     1
290
     0
176
     1
290
     0
176
     1
290
     0
176
     1
290
     0
176
     1
 90
       50
176
     1
 40
0.0
176
     1
 40
1.0
176
     1
 90
        0
176
     1
 62
    18
420
        0
176
     1
 90
       50
176
     1
 90
        3
176
     1
 62
     5
420
      255
176
     1
290
     0
176
     1
 90
       50
176
     1
 90
       50
176
     1
 90
       50
176
     1
290
     0
176
     1
 90
       50
176
     1
 62
   256
176
     0
 40
1.0
176
     0
 90
        2
176
     1
  1
strokes_ogs.tif
176
     1
290
     0
176
     1
 40
1.0
176
     1
 40
1.0
176
     1
  0
VISUALSTYLE
  5
3B
102
{ACAD_REACTORS
330
2A
102
}
330
2A
100
AcDbVisualStyle
  2
JitterOff
 70
    20
177
     3
291
     1
 70
    58
 90
        2
176
     0
 90
        2
176
     0
 90
        0
176
     0
 90
        0
176
     0
 40
0.6
176
     0
 40
30.0
176
     0
 62
     7
420
 16777215
176
     0
 90
        1
176
     0
 90
        4
176
     0
 62
     7
176
     0
 62
   257
176
     0
 90
        1
176
     0
 90
        1
176
     0
 40
1.0
176
     0
 90
       10
176
     2
 62
     7
176
     0
 40
1.0
176
     0
 90
        1
176
     0
 90
        6
176
     0
 90
        2
176
     0
 62
     7
176
     0
 90
        5
176
     0
 90
        0
176
     0
 90
        0
176
     0
290
     0
176
     0
 90
        1
176
     0
 40
0.0
176
     0
 90
        0
176
     0
290
     0
176
     0
290
     1
176
     0
290
     1
176
     0
290
     0
176
     0
290
     0
176
     0
290
     0
176
     0
290
     0
176
     0
290
     0
176
     0
290
     0
176
     0
 90
       50
176
     0
 40
0.0
176
     0
 40
1.0
176
     0
 90
        0
176
     0
 62
    18
420
        0
176
     0
 90
       50
176
     0
 90
        3
176
     0
 62
     5
420
      255
176
     0
290
     0
176
     0
 90
       50
176
     0
 90
       50
176
     0
 90
       50
176
     0
290
     0
176
     0
 90
       50
176
     0
 62
   256
176
     0
 40
1.0
176
     0
 90
        2
176
     0
  1
strokes_ogs.tif
176
     0
290
     0
176
     0
 40
1.0
176
     0
 40
1.0
176
     0
  0
VISUALSTYLE
  5
38
102
{ACAD_REACTORS
330
2A
102
}
330
2A
100
AcDbVisualStyle
  2
Linepattern
 70
    14
177
     3
291
     1
 70
    58
 90
        2
176
     1
 90
        2
176
     1
 90
        0
176
     1
 90
        0
176
     1
 40
0.6
176
     1
 40
30.0
176
     1
 62
     7
420
 16777215
176
     1
 90
        1
176
     1
 90
        4
176
     1
 62
     7
176
     1
 62
   257
176
     1
 90
        7
176
     1
 90
        7
176
     1
 40
1.0
176
     1
 90
        8
176
     1
 62
     7
176
     1
 40
1.0
176
     1
 90
        1
176
     1
 90
        6
176
     1
 90
        2
176
     1
 62
     7
176
     1
 90
        5
176
     1
 90
        0
176
     1
 90
        0
176
     1
290
     0
176
     1
 90
        1
176
     1
 40
0.0
176
     1
 90
        0
176
     1
290
     0
176
     1
290
     1
176
     1
290
     1
176
     1
290
     0
176
     1
290
     0
176
     1
290
     0
176
     1
290
     0
176
     1
290
     0
176
     1
290
     0
176
     1
 90
       50
176
     1
 40
0.0
176
     1
 40
1.0
176
     1
 90
        0
176
     1
 62
    18
420
        0
176
     1
 90
       50
176
     1
 90
        3
176
     1
 62
     5
420
      255
176
     1
290
     0
176
     1
 90
       50
176
     1
 90
       50
176
     1
 90
       50
176
     1
290
     0
176
     1
 90
       50
176
     1
 62
   256
176
     0
 40
1.0
176
     0
 90
        2
176
     1
  1
strokes_ogs.tif
176
     1
290
     0
176
     1
 40
1.0
176
     1
 40
1.0
176
     1
  0
VISUALSTYLE
  5
3C
102
{ACAD_REACTORS
330
2A
102
}
330
2A
100
AcDbVisualStyle
  2
OverhangOff
 70
    21
177
     3
291
     1
 70
    58
 90
        2
176
     0
 90
        2
176
     0
 90
        0
176
     0
 90
        0
176
     0
 40
0.6
176
     0
 40
30.0
176
     0
 62
     7
420
 16777215
176
     0
 90
        1
176
     0
 90
        4
176
     0
 62
     7
176
     0
 62
   257
176
     0
 90
        1
176
     0
 90
        1
176
     0
 40
1.0
176
     0
 90
        9
176
     2
 62
     7
176
     0
 40
1.0
176
     0
 90
        1
176
     0
 90
        6
176
     0
 90
        2
176
     0
 62
     7
176
     0
 90
        5
176
     0
 90
        0
176
     0
 90
        0
176
     0
290
     0
176
     0
 90
        1
176
     0
 40
0.0
176
     0
 90
        0
176
     0
290
     0
176
     0
290
     1
176
     0
290
     1
176
     0
290
     0
176
     0
290
     0
176
     0
290
     0
176
     0
290
     0
176
     0
290
     0
176
     0
290
     0
176
     0
 90
       50
176
     0
 40
0.0
176
     0
 40
1.0
176
     0
 90
        0
176
     0
 62
    18
420
        0
176
     0
 90
       50
176
     0
 90
        3
176
     0
 62
     5
420
      255
176
     0
290
     0
176
     0
 90
       50
176
     0
 90
       50
176
     0
 90
       50
176
     0
290
     0
176
     0
 90
       50
176
     0
 62
   256
176
     0
 40
1.0
176
     0
 90
        2
176
     0
  1
strokes_ogs.tif
176
     0
290
     0
176
     0
 40
1.0
176
     0
 40
1.0
176
     0
  0
VISUALSTYLE
  5
33
102
{ACAD_REACTORS
330
2A
102
}
330
2A
100
AcDbVisualStyle
  2
Realistic
 70
     8
177
     3
291
     0
 70
    58
 90
        2
176
     1
 90
        3
176
     1
 90
        0
176
     1
 90
        2
176
     1
 40
0.6
176
     1
 40
30.0
176
     1
 62
     7
420
 16777215
176
     1
 90
        0
176
     1
 90
        0
176
     1
 62
     7
176
     1
 62
   257
176
     1
 90
        1
176
     1
 90
        1
176
     1
 40
1.0
176
     1
 90
        8
176
     1
 62
   257
176
     1
 40
1.0
176
     1
 90
        1
176
     1
 90
        6
176
     1
 90
        2
176
     1
 62
     7
176
     1
 90
        3
176
     1
 90
        0
176
     1
 90
        0
176
     1
290
     0
176
     1
 90
       13
176
     1
 40
0.0
176
     1
 90
        0
176
     1
290
     0
176
     1
290
     1
176
     1
290
     1
176
     1
290
     0
176
     1
290
     0
176
     1
290
     0
176
     1
290
     0
176
     1
290
     0
176
     1
290
     0
176
     1
 90
       50
176
     1
 40
0.0
176
     1
 40
1.0
176
     1
 90
        0
176
     1
 62
    18
420
        0
176
     1
 90
       50
176
     1
 90
        3
176
     1
 62
     5
420
      255
176
     1
290
     0
176
     1
 90
       50
176
     1
 90
       50
176
     1
 90
       50
176
     1
290
     0
176
     1
 90
       50
176
     1
 62
   256
176
     0
 40
1.0
176
     0
 90
        2
176
     1
  1
strokes_ogs.tif
176
     1
290
     0
176
     1
 40
1.0
176
     1
 40
1.0
176
     1
  0
VISUALSTYLE
  5
42
102
{ACAD_REACTORS
330
2A
102
}
330
2A
100
AcDbVisualStyle
  2
Shaded
 70
    27
177
     3
291
     0
 70
    58
 90
        2
176
     1
 90
        2
176
     1
 90
        1
176
     1
 90
        2
176
     1
 40
0.6
176
     1
 40
30.0
176
     1
 62
     7
420
 16777215
176
     1
 90
        0
176
     1
 90
        4
176
     1
 62
     7
176
     1
 62
   257
176
     1
 90
        1
176
     1
 90
        1
176
     1
 40
1.0
176
     1
 90
        8
176
     1
 62
   257
176
     1
 40
1.0
176
     1
 90
        1
176
     1
 90
        6
176
     1
 90
        2
176
     1
 62
     8
420
  7895160
176
     1
 90
        3
176
     1
 90
        0
176
     1
 90
        0
176
     1
290
     0
176
     1
 90
        5
176
     1
 40
0.0
176
     1
 90
        0
176
     1
290
     0
176
     1
290
     1
176
     1
290
     1
176
     1
290
     0
176
     1
290
     0
176
     1
290
     0
176
     1
290
     0
176
     1
290
     0
176
     1
290
     0
176
     1
 90
       50
176
     1
 40
0.0
176
     1
 40
1.0
176
     1
 90
        0
176
     1
 62
    18
420
        0
176
     1
 90
       50
176
     1
 90
        3
176
     1
 62
     5
420
      255
176
     1
290
     0
176
     1
 90
       50
176
     1
 90
       50
176
     1
 90
       50
176
     1
290
     0
176
     1
 90
       50
176
     1
 62
   256
176
     0
 40
1.0
176
     0
 90
        2
176
     1
  1
strokes_ogs.tif
176
     1
290
     0
176
     1
 40
1.0
176
     1
 40
1.0
176
     1
  0
VISUALSTYLE
  5
41
102
{ACAD_REACTORS
330
2A
102
}
330
2A
100
AcDbVisualStyle
  2
Shaded with edges
 70
    26
177
     3
291
     0
 70
    58
 90
        2
176
     1
 90
        2
176
     1
 90
        1
176
     1
 90
        2
176
     1
 40
0.6
176
     1
 40
30.0
176
     1
 62
     7
420
 16777215
176
     1
 90
        1
176
     1
 90
       10
176
     1
 62
     7
176
     1
 62
   257
176
     1
 90
        2
176
     1
 90
        1
176
     1
 40
1.0
176
     1
 90
        8
176
     1
 62
   257
176
     1
 40
1.0
176
     1
 90
        1
176
     1
 90
        6
176
     1
 90
        2
176
     1
 62
     7
176
     1
 90
        3
176
     1
 90
        0
176
     1
 90
        0
176
     1
290
     0
176
     1
 90
        5
176
     1
 40
0.0
176
     1
 90
        0
176
     1
290
     0
176
     1
290
     1
176
     1
290
     1
176
     1
290
     0
176
     1
290
     0
176
     1
290
     0
176
     1
290
     0
176
     1
290
     0
176
     1
290
     0
176
     1
 90
       50
176
     1
 40
0.0
176
     1
 40
1.0
176
     1
 90
        0
176
     1
 62
    18
420
        0
176
     1
 90
       50
176
     1
 90
        3
176
     1
 62
     5
420
      255
176
     1
290
     0
176
     1
 90
       50
176
     1
 90
       50
176
     1
 90
       50
176
     1
290
     0
176
     1
 90
       50
176
     1
 62
   256
176
     0
 40
1.0
176
     0
 90
        2
176
     1
  1
strokes_ogs.tif
176
     1
290
     0
176
     1
 40
1.0
176
     1
 40
1.0
176
     1
  0
VISUALSTYLE
  5
3E
102
{ACAD_REACTORS
330
2A
102
}
330
2A
100
AcDbVisualStyle
  2
Shades of Gray
 70
    23
177
     3
291
     0
 70
    58
 90
        2
176
     1
 90
        2
176
     1
 90
        3
176
     1
 90
        0
176
     1
 40
0.6
176
     1
 40
30.0
176
     1
 62
     7
420
 16777215
176
     1
 90
        2
176
     1
 90
        2
176
     1
 62
     7
176
     1
 62
     7
176
     1
 90
        1
176
     1
 90
        1
176
     1
 40
40.0
176
     1
 90
        8
176
     1
 62
     7
176
     1
 40
1.0
176
     1
 90
        1
176
     1
 90
        6
176
     1
 90
        2
176
     1
 62
     7
176
     1
 90
        3
176
     1
 90
        0
176
     1
 90
        0
176
     1
290
     0
176
     1
 90
        1
176
     1
 40
0.0
176
     1
 90
        0
176
     1
290
     0
176
     1
290
     1
176
     1
290
     1
176
     1
290
     0
176
     1
290
     0
176
     1
290
     0
176
     1
290
     0
176
     1
290
     0
176
     1
290
     0
176
     1
 90
       50
176
     1
 40
0.0
176
     1
 40
1.0
176
     1
 90
        0
176
     1
 62
    18
420
        0
176
     1
 90
       50
176
     1
 90
        3
176
     1
 62
     5
420
      255
176
     1
290
     0
176
     1
 90
       50
176
     1
 90
       50
176
     1
 90
       50
176
     1
290
     0
176
     1
 90
       50
176
     1
 62
   256
176
     0
 40
1.0
176
     0
 90
        2
176
     1
  1
strokes_ogs.tif
176
     1
290
     0
176
     1
 40
1.0
176
     1
 40
1.0
176
     1
  0
VISUALSTYLE
  5
3F
102
{ACAD_REACTORS
330
2A
102
}
330
2A
100
AcDbVisualStyle
  2
Sketchy
 70
    24
177
     3
291
     0
 70
    58
 90
        1
176
     1
 90
        2
176
     1
 90
        2
176
     1
 90
        0
176
     1
 40
0.6
176
     1
 40
30.0
176
     1
 62
     7
420
 16777215
176
     1
 90
        2
176
     1
 90
        2
176
     1
 62
     7
176
     1
 62
     7
176
     1
 90
        1
176
     1
 90
        1
176
     1
 40
40.0
176
     1
 90
       11
176
     1
 62
     7
176
     1
 40
1.0
176
     1
 90
        1
176
     1
 90
        6
176
     1
 90
        2
176
     1
 62
     7
176
     1
 90
        6
176
     1
 90
        0
176
     1
 90
        0
176
     1
290
     0
176
     1
 90
        1
176
     1
 40
0.0
176
     1
 90
        0
176
     1
290
     0
176
     1
290
     1
176
     1
290
     1
176
     1
290
     0
176
     1
290
     0
176
     1
290
     0
176
     1
290
     0
176
     1
290
     0
176
     1
290
     0
176
     1
 90
       50
176
     1
 40
0.0
176
     1
 40
1.0
176
     1
 90
        0
176
     1
 62
    18
420
        0
176
     1
 90
       50
176
     1
 90
        3
176
     1
 62
     5
420
      255
176
     1
290
     0
176
     1
 90
       50
176
     1
 90
       50
176
     1
 90
       50
176
     1
290
     0
176
     1
 90
       50
176
     1
 62
   256
176
     0
 40
1.0
176
     0
 90
        2
176
     1
  1
strokes_ogs.tif
176
     1
290
     0
176
     1
 40
1.0
176
     1
 40
1.0
176
     1
  0
VISUALSTYLE
  5
37
102
{ACAD_REACTORS
330
2A
102
}
330
2A
100
AcDbVisualStyle
  2
Thicken
 70
    13
177
     3
291
     1
 70
    58
 90
        2
176
     1
 90
        2
176
     1
 90
        0
176
     1
 90
        0
176
     1
 40
0.6
176
     1
 40
30.0
176
     1
 62
     7
420
 16777215
176
     1
 90
        1
176
     1
 90
        4
176
     1
 62
     7
176
     1
 62
   257
176
     1
 90
        1
176
     1
 90
        1
176
     1
 40
1.0
176
     1
 90
       12
176
     1
 62
     7
176
     1
 40
1.0
176
     1
 90
        1
176
     1
 90
        6
176
     1
 90
        2
176
     1
 62
     7
176
     1
 90
        5
176
     1
 90
        0
176
     1
 90
        0
176
     1
290
     0
176
     1
 90
        1
176
     1
 40
0.0
176
     1
 90
        0
176
     1
290
     0
176
     1
290
     1
176
     1
290
     1
176
     1
290
     0
176
     1
290
     0
176
     1
290
     0
176
     1
290
     0
176
     1
290
     0
176
     1
290
     0
176
     1
 90
       50
176
     1
 40
0.0
176
     1
 40
1.0
176
     1
 90
        0
176
     1
 62
    18
420
        0
176
     1
 90
       50
176
     1
 90
        3
176
     1
 62
     5
420
      255
176
     1
290
     0
176
     1
 90
       50
176
     1
 90
       50
176
     1
 90
       50
176
     1
290
     0
176
     1
 90
       50
176
     1
 62
   256
176
     0
 40
1.0
176
     0
 90
        2
176
     1
  1
strokes_ogs.tif
176
     1
290
     0
176
     1
 40
1.0
176
     1
 40
1.0
176
     1
  0
VISUALSTYLE
  5
30
102
{ACAD_REACTORS
330
2A
102
}
330
2A
100
AcDbVisualStyle
  2
Wireframe
 70
     5
177
     3
291
     0
 70
    58
 90
        0
176
     1
 90
        2
176
     1
 90
        0
176
     1
 90
        0
176
     1
 40
0.6
176
     1
 40
30.0
176
     1
 62
     7
420
 16777215
176
     1
 90
        1
176
     1
 90
        4
176
     1
 62
     7
176
     1
 62
   257
176
     1
 90
        1
176
     1
 90
        1
176
     1
 40
1.0
176
     1
 90
        0
176
     1
 62
   257
176
     1
 40
1.0
176
     1
 90
        1
176
     1
 90
        6
176
     1
 90
        2
176
     1
 62
     7
176
     1
 90
        3
176
     1
 90
        0
176
     1
 90
        0
176
     1
290
     0
176
     1
 90
        1
176
     1
 40
0.0
176
     1
 90
        0
176
     1
290
     0
176
     1
290
     1
176
     1
290
     1
176
     1
290
     0
176
     1
290
     0
176
     1
290
     0
176
     1
290
     0
176
     1
290
     0
176
     1
290
     0
176
     1
 90
       50
176
     1
 40
0.0
176
     1
 40
1.0
176
     1
 90
        0
176
     1
 62
    18
420
        0
176
     1
 90
       50
176
     1
 90
        3
176
     1
 62
     5
420
      255
176
     1
290
     0
176
     1
 90
       50
176
     1
 90
       50
176
     1
 90
       50
176
     1
290
     0
176
     1
 90
       50
176
     1
 62
   256
176
     0
 40
1.0
176
     0
 90
        2
176
     1
  1
strokes_ogs.tif
176
     1
290
     0
176
     1
 40
1.0
176
     1
 40
1.0
176
     1
  0
VISUALSTYLE
  5
40
102
{ACAD_REACTORS
330
2A
102
}
330
2A
100
AcDbVisualStyle
  2
X-Ray
 70
    25
177
     3
291
     0
 70
    58
 90
        2
176
     1
 90
        2
176
     1
 90
        1
176
     1
 90
        1
176
     1
 40
0.5
176
     1
 40
30.0
176
     1
 62
     7
420
 16777215
176
     1
 90
        1
176
     1
 90
        0
176
     1
 62
     7
176
     1
 62
   257
176
     1
 90
        1
176
     1
 90
        1
176
     1
 40
1.0
176
     1
 90
        8
176
     1
 62
     7
176
     1
 40
1.0
176
     1
 90
        1
176
     1
 90
        6
176
     1
 90
        2
176
     1
 62
     7
176
     1
 90
        3
176
     1
 90
        0
176
     1
 90
        0
176
     1
290
     0
176
     1
 90
       13
176
     1
 40
0.0
176
     1
 90
        0
176
     1
290
     0
176
     1
290
     1
176
     1
290
     1
176
     1
290
     0
176
     1
290
     0
176
     1
290
     0
176
     1
290
     0
176
     1
290
     0
176
     1
290
     0
176
     1
 90
       50
176
     1
 40
0.0
176
     1
 40
1.0
176
     1
 90
        0
176
     1
 62
    18
420
        0
176
     1
 90
       50
176
     1
 90
        3
176
     1
 62
     5
420
      255
176
     1
290
     0
176
     1
 90
       50
176
     1
 90
       50
176
     1
 90
       50
176
     1
290
     0
176
     1
 90
       50
176
     1
 62
   256
176
     0
 40
1.0
176
     0
 90
        2
176
     1
  1
strokes_ogs.tif
176
     1
290
     0
176
     1
 40
1.0
176
     1
 40
1.0
176
     1
  0
DICTIONARYVAR
  5
98
102
{ACAD_REACTORS
330
97
102
}
330
97
100
DictionaryVariables
280
     0
  1
1:1
  0
DICTIONARYVAR
  5
9D
102
{ACAD_REACTORS
330
97
102
}
330
97
100
DictionaryVariables
280
     0
  1
Standard
  0
DICTIONARYVAR
  5
9C
102
{ACAD_REACTORS
330
97
102
}
330
97
100
DictionaryVariables
280
     0
  1
Standard
  0
DICTIONARY
  5
99
330
5A
100
AcDbDictionary
280
     1
281
     1
  3
ACAD_ROUNDTRIP_2008_TABLESTYLE_CELLSTYLEMAP
360
9A
  0
CELLSTYLEMAP
  5
9A
102
{ACAD_REACTORS
330
99
102
}
330
99
100
AcDbCellStyleMap
 90
        3
300
CELLSTYLE
  1
TABLEFORMAT_BEGIN
 90
        5
170
     1
 91
        0
 92
    32768
 62
   257
 93
        1
300
CONTENTFORMAT
  1
CONTENTFORMAT_BEGIN
 90
        0
 91
        0
 92
        4
 93
        0
300

 40
0.0
140
1.0
 94
        5
 62
     0
340
11
144
0.25
309
CONTENTFORMAT_END
171
     1
301
MARGIN
  1
CELLMARGIN_BEGIN
 40
0.06
 40
0.06
 40
0.06
 40
0.06
 40
0.06
 40
0.06
309
CELLMARGIN_END
 94
        6
 95
        1
302
GRIDFORMAT
  1
GRIDFORMAT_BEGIN
 90
        0
 91
        1
 62
     0
 92
       -2
340
14
 93
        0
 40
0.045
309
GRIDFORMAT_END
 95
        2
302
GRIDFORMAT
  1
GRIDFORMAT_BEGIN
 90
        0
 91
        1
 62
     0
 92
       -2
340
14
 93
        0
 40
0.045
309
GRIDFORMAT_END
 95
        4
302
GRIDFORMAT
  1
GRIDFORMAT_BEGIN
 90
        0
 91
        1
 62
     0
 92
       -2
340
14
 93
        0
 40
0.045
309
GRIDFORMAT_END
 95
        8
302
GRIDFORMAT
  1
GRIDFORMAT_BEGIN
 90
        0
 91
        1
 62
     0
 92
       -2
340
14
 93
        0
 40
0.045
309
GRIDFORMAT_END
 95
       16
302
GRIDFORMAT
  1
GRIDFORMAT_BEGIN
 90
        0
 91
        1
 62
     0
 92
       -2
340
14
 93
        0
 40
0.045
309
GRIDFORMAT_END
 95
       32
302
GRIDFORMAT
  1
GRIDFORMAT_BEGIN
 90
        0
 91
        1
 62
     0
 92
       -2
340
14
 93
        0
 40
0.045
309
GRIDFORMAT_END
309
TABLEFORMAT_END
  1
CELLSTYLE_BEGIN
 90
        1
 91
        1
300
_TITLE
309
CELLSTYLE_END
300
CELLSTYLE
  1
TABLEFORMAT_BEGIN
 90
        5
170
     1
 91
        0
 92
        0
 62
   257
 93
        1
300
CONTENTFORMAT
  1
CONTENTFORMAT_BEGIN
 90
        0
 91
        0
 92
        4
 93
        0
300

 40
0.0
140
1.0
 94
        5
 62
     0
340
11
144
0.18
309
CONTENTFORMAT_END
171
     1
301
MARGIN
  1
CELLMARGIN_BEGIN
 40
0.06
 40
0.06
 40
0.06
 40
0.06
 40
0.06
 40
0.06
309
CELLMARGIN_END
 94
        6
 95
        1
302
GRIDFORMAT
  1
GRIDFORMAT_BEGIN
 90
        0
 91
        1
 62
     0
 92
       -2
340
14
 93
        0
 40
0.045
309
GRIDFORMAT_END
 95
        2
302
GRIDFORMAT
  1
GRIDFORMAT_BEGIN
 90
        0
 91
        1
 62
     0
 92
       -2
340
14
 93
        0
 40
0.045
309
GRIDFORMAT_END
 95
        4
302
GRIDFORMAT
  1
GRIDFORMAT_BEGIN
 90
        0
 91
        1
 62
     0
 92
       -2
340
14
 93
        0
 40
0.045
309
GRIDFORMAT_END
 95
        8
302
GRIDFORMAT
  1
GRIDFORMAT_BEGIN
 90
        0
 91
        1
 62
     0
 92
       -2
340
14
 93
        0
 40
0.045
309
GRIDFORMAT_END
 95
       16
302
GRIDFORMAT
  1
GRIDFORMAT_BEGIN
 90
        0
 91
        1
 62
     0
 92
       -2
340
14
 93
        0
 40
0.045
309
GRIDFORMAT_END
 95
       32
302
GRIDFORMAT
  1
GRIDFORMAT_BEGIN
 90
        0
 91
        1
 62
     0
 92
       -2
340
14
 93
        0
 40
0.045
309
GRIDFORMAT_END
309
TABLEFORMAT_END
  1
CELLSTYLE_BEGIN
 90
        2
 91
        1
300
_HEADER
309
CELLSTYLE_END
300
CELLSTYLE
  1
TABLEFORMAT_BEGIN
 90
        5
170
     1
 91
        0
 92
        0
 62
   257
 93
        1
300
CONTENTFORMAT
  1
CONTENTFORMAT_BEGIN
 90
        0
 91
        0
 92
        4
 93
        0
300

 40
0.0
140
1.0
 94
        2
 62
     0
340
11
144
0.18
309
CONTENTFORMAT_END
171
     1
301
MARGIN
  1
CELLMARGIN_BEGIN
 40
0.06
 40
0.06
 40
0.06
 40
0.06
 40
0.06
 40
0.06
309
CELLMARGIN_END
 94
        6
 95
        1
302
GRIDFORMAT
  1
GRIDFORMAT_BEGIN
 90
        0
 91
        1
 62
     0
 92
       -2
340
14
 93
        0
 40
0.045
309
GRIDFORMAT_END
 95
        2
302
GRIDFORMAT
  1
GRIDFORMAT_BEGIN
 90
        0
 91
        1
 62
     0
 92
       -2
340
14
 93
        0
 40
0.045
309
GRIDFORMAT_END
 95
        4
302
GRIDFORMAT
  1
GRIDFORMAT_BEGIN
 90
        0
 91
        1
 62
     0
 92
       -2
340
14
 93
        0
 40
0.045
309
GRIDFORMAT_END
 95
        8
302
GRIDFORMAT
  1
GRIDFORMAT_BEGIN
 90
        0
 91
        1
 62
     0
 92
       -2
340
14
 93
        0
 40
0.045
309
GRIDFORMAT_END
 95
       16
302
GRIDFORMAT
  1
GRIDFORMAT_BEGIN
 90
        0
 91
        1
 62
     0
 92
       -2
340
14
 93
        0
 40
0.045
309
GRIDFORMAT_END
 95
       32
302
GRIDFORMAT
  1
GRIDFORMAT_BEGIN
 90
        0
 91
        1
 62
     0
 92
       -2
340
14
 93
        0
 40
0.045
309
GRIDFORMAT_END
309
TABLEFORMAT_END
  1
CELLSTYLE_BEGIN
 90
        3
 91
        2
300
_DATA
309
CELLSTYLE_END
  0
ENDSEC
  0
EOF
