  0
SECTION
  2
HEADER
  9
$ACADVER
  1
AC1032
  9
$ACADMAINTVER
 90
       55
  9
$DWGCODEPAGE
  3
ANSI_1252
  9
$LASTSAVEDBY
  1
Abolfazl
  9
$REQUIREDVERSIONS
160
                 0
  9
$INSBASE
 10
0.0
 20
0.0
 30
0.0
  9
$EXTMIN
 10
-15.8464
 20
-25.9996
 30
0.0
  9
$EXTMAX
 10
15.9205
 20
23.5412
 30
0.0
  9
$LIMMIN
 10
0.0
 20
0.0
  9
$LIMMAX
 10
12.0
 20
9.0
  9
$ORTHOMODE
 70
     0
  9
$REGENMODE
 70
     1
  9
$FILLMODE
 70
     1
  9
$QTEXTMODE
 70
     0
  9
$MIRRTEXT
 70
     1
  9
$LTSCALE
 40
1.0
  9
$ATTMODE
 70
     1
  9
$TEXTSIZE
 40
0.2
  9
$TRACEWID
 40
0.05
  9
$TEXTSTYLE
  7
Standard
  9
$CLAYER
  8
0
  9
$CELTYPE
  6
ByLayer
  9
$CECOLOR
 62
   256
  9
$CELTSCALE
 40
1.0
  9
$DISPSILH
 70
     0
  9
$DIMSCALE
 40
1.0
  9
$DIMASZ
 40
0.18
  9
$DIMEXO
 40
0.0625
  9
$DIMDLI
 40
0.38
  9
$DIMRND
 40
0.0
  9
$DIMDLE
 40
0.0
  9
$DIMEXE
 40
0.18
  9
$DIMTP
 40
0.0
  9
$DIMTM
 40
0.0
  9
$DIMTXT
 40
0.18
  9
$DIMCEN
 40
0.09
  9
$DIMTSZ
 40
0.0
  9
$DIMTOL
 70
     0
  9
$DIMLIM
 70
     0
  9
$DIMTIH
 70
     1
  9
$DIMTOH
 70
     1
  9
$DIMSE1
 70
     0
  9
$DIMSE2
 70
     0
  9
$DIMTAD
 70
     0
  9
$DIMZIN
 70
     0
  9
$DIMBLK
  1

  9
$DIMASO
 70
     1
  9
$DIMSHO
 70
     1
  9
$DIMPOST
  1

  9
$DIMAPOST
  1

  9
$DIMALT
 70
     0
  9
$DIMALTD
 70
     2
  9
$DIMALTF
 40
25.4
  9
$DIMLFAC
 40
1.0
  9
$DIMTOFL
 70
     0
  9
$DIMTVP
 40
0.0
  9
$DIMTIX
 70
     0
  9
$DIMSOXD
 70
     0
  9
$DIMSAH
 70
     0
  9
$DIMBLK1
  1

  9
$DIMBLK2
  1

  9
$DIMSTYLE
  2
Standard
  9
$DIMCLRD
 70
     0
  9
$DIMCLRE
 70
     0
  9
$DIMCLRT
 70
     0
  9
$DIMTFAC
 40
1.0
  9
$DIMGAP
 40
0.09
  9
$DIMJUST
 70
     0
  9
$DIMSD1
 70
     0
  9
$DIMSD2
 70
     0
  9
$DIMTOLJ
 70
     1
  9
$DIMTZIN
 70
     0
  9
$DIMALTZ
 70
     0
  9
$DIMALTTZ
 70
     0
  9
$DIMUPT
 70
     0
  9
$DIMDEC
 70
     4
  9
$DIMTDEC
 70
     4
  9
$DIMALTU
 70
     2
  9
$DIMALTTD
 70
     2
  9
$DIMTXSTY
  7
Standard
  9
$DIMAUNIT
 70
     0
  9
$DIMADEC
 70
     0
  9
$DIMALTRND
 40
0.0
  9
$DIMAZIN
 70
     0
  9
$DIMDSEP
 70
    46
  9
$DIMATFIT
 70
     3
  9
$DIMFRAC
 70
     0
  9
$DIMLDRBLK
  1

  9
$DIMLUNIT
 70
     2
  9
$DIMLWD
 70
    -2
  9
$DIMLWE
 70
    -2
  9
$DIMTMOVE
 70
     0
  9
$DIMFXL
 40
1.0
  9
$DIMFXLON
 70
     0
  9
$DIMJOGANG
 40
0.7853981633974483
  9
$DIMTFILL
 70
     0
  9
$DIMTFILLCLR
 70
     0
  9
$DIMARCSYM
 70
     0
  9
$DIMLTYPE
  6

  9
$DIMLTEX1
  6

  9
$DIMLTEX2
  6

  9
$DIMTXTDIRECTION
 70
     0
  9
$LUNITS
 70
     2
  9
$LUPREC
 70
     4
  9
$SKETCHINC
 40
0.1
  9
$FILLETRAD
 40
0.0
  9
$AUNITS
 70
     0
  9
$AUPREC
 70
     0
  9
$MENU
  1
.
  9
$ELEVATION
 40
0.0
  9
$PELEVATION
 40
0.0
  9
$THICKNESS
 40
0.0
  9
$LIMCHECK
 70
     0
  9
$CHAMFERA
 40
0.0
  9
$CHAMFERB
 40
0.0
  9
$CHAMFERC
 40
0.0
  9
$CHAMFERD
 40
0.0
  9
$SKPOLY
 70
     0
  9
$TDCREATE
 40
2460444.580959757
  9
$TDUCREATE
 40
2460444.435126424
  9
$TDUPDATE
 40
2460444.580959792
  9
$TDUUPDATE
 40
2460444.435126458
  9
$TDINDWG
 40
0.0000000116
  9
$TDUSRTIMER
 40
0.0000000116
  9
$USRTIMER
 70
     1
  9
$ANGBASE
 50
0.0
  9
$ANGDIR
 70
     0
  9
$PDMODE
 70
     0
  9
$PDSIZE
 40
0.0
  9
$PLINEWID
 40
0.0
  9
$SPLFRAME
 70
     0
  9
$SPLINETYPE
 70
     6
  9
$SPLINESEGS
 70
     8
  9
$HANDSEED
  5
86
  9
$SURFTAB1
 70
     6
  9
$SURFTAB2
 70
     6
  9
$SURFTYPE
 70
     6
  9
$SURFU
 70
     6
  9
$SURFV
 70
     6
  9
$UCSBASE
  2

  9
$UCSNAME
  2

  9
$UCSORG
 10
0.0
 20
0.0
 30
0.0
  9
$UCSXDIR
 10
1.0
 20
0.0
 30
0.0
  9
$UCSYDIR
 10
0.0
 20
1.0
 30
0.0
  9
$UCSORTHOREF
  2

  9
$UCSORTHOVIEW
 70
     0
  9
$UCSORGTOP
 10
0.0
 20
0.0
 30
0.0
  9
$UCSORGBOTTOM
 10
0.0
 20
0.0
 30
0.0
  9
$UCSORGLEFT
 10
0.0
 20
0.0
 30
0.0
  9
$UCSORGRIGHT
 10
0.0
 20
0.0
 30
0.0
  9
$UCSORGFRONT
 10
0.0
 20
0.0
 30
0.0
  9
$UCSORGBACK
 10
0.0
 20
0.0
 30
0.0
  9
$PUCSBASE
  2

  9
$PUCSNAME
  2

  9
$PUCSORG
 10
0.0
 20
0.0
 30
0.0
  9
$PUCSXDIR
 10
1.0
 20
0.0
 30
0.0
  9
$PUCSYDIR
 10
0.0
 20
1.0
 30
0.0
  9
$PUCSORTHOREF
  2

  9
$PUCSORTHOVIEW
 70
     0
  9
$PUCSORGTOP
 10
0.0
 20
0.0
 30
0.0
  9
$PUCSORGBOTTOM
 10
0.0
 20
0.0
 30
0.0
  9
$PUCSORGLEFT
 10
0.0
 20
0.0
 30
0.0
  9
$PUCSORGRIGHT
 10
0.0
 20
0.0
 30
0.0
  9
$PUCSORGFRONT
 10
0.0
 20
0.0
 30
0.0
  9
$PUCSORGBACK
 10
0.0
 20
0.0
 30
0.0
  9
$USERI1
 70
     0
  9
$USERI2
 70
     0
  9
$USERI3
 70
     0
  9
$USERI4
 70
     0
  9
$USERI5
 70
     0
  9
$USERR1
 40
0.0
  9
$USERR2
 40
0.0
  9
$USERR3
 40
0.0
  9
$USERR4
 40
0.0
  9
$USERR5
 40
0.0
  9
$WORLDVIEW
 70
     1
  9
$SHADEDGE
 70
     3
  9
$SHADEDIF
 70
    70
  9
$TILEMODE
 70
     1
  9
$MAXACTVP
 70
    64
  9
$PINSBASE
 10
0.0
 20
0.0
 30
0.0
  9
$PLIMCHECK
 70
     0
  9
$PEXTMIN
 10
1.000000000000000E+20
 20
1.000000000000000E+20
 30
1.000000000000000E+20
  9
$PEXTMAX
 10
-1.000000000000000E+20
 20
-1.000000000000000E+20
 30
-1.000000000000000E+20
  9
$PLIMMIN
 10
0.0
 20
0.0
  9
$PLIMMAX
 10
12.0
 20
9.0
  9
$UNITMODE
 70
     0
  9
$VISRETAIN
 70
     1
  9
$PLINEGEN
 70
     0
  9
$PSLTSCALE
 70
     1
  9
$TREEDEPTH
 70
  3020
  9
$CMLSTYLE
  2
Standard
  9
$CMLJUST
 70
     0
  9
$CMLSCALE
 40
1.0
  9
$PROXYGRAPHICS
 70
     1
  9
$MEASUREMENT
 70
     0
  9
$CELWEIGHT
370
    -1
  9
$ENDCAPS
280
     0
  9
$JOINSTYLE
280
     0
  9
$LWDISPLAY
290
     0
  9
$INSUNITS
 70
     4
  9
$HYPERLINKBASE
  1

  9
$STYLESHEET
  1

  9
$XEDIT
290
     1
  9
$CEPSNTYPE
380
     0
  9
$PSTYLEMODE
290
     1
  9
$FINGERPRINTGUID
  2
{0c2b7e57-9e54-4452-8ac2-806b9811bfdf}
  9
$VERSIONGUID
  2
{FAEB1C32-E019-11D5-929B-00C0DF256EC4}
  9
$EXTNAMES
290
     1
  9
$PSVPSCALE
 40
0.0
  9
$OLESTARTUP
290
     0
  9
$SORTENTS
280
   127
  9
$INDEXCTL
280
     0
  9
$HIDETEXT
280
     1
  9
$XCLIPFRAME
280
     2
  9
$HALOGAP
280
     0
  9
$OBSCOLOR
 70
   257
  9
$OBSLTYPE
280
     0
  9
$INTERSECTIONDISPLAY
280
     0
  9
$INTERSECTIONCOLOR
 70
   257
  9
$DIMASSOC
280
     2
  9
$PROJECTNAME
  1

  9
$CAMERADISPLAY
290
     0
  9
$LENSLENGTH
 40
50.0
  9
$CAMERAHEIGHT
 40
0.0
  9
$STEPSPERSEC
 40
2.0
  9
$STEPSIZE
 40
6.0
  9
$3DDWFPREC
 40
2.0
  9
$PSOLWIDTH
 40
0.25
  9
$PSOLHEIGHT
 40
4.0
  9
$LOFTANG1
 40
1.570796326794897
  9
$LOFTANG2
 40
1.570796326794897
  9
$LOFTMAG1
 40
0.0
  9
$LOFTMAG2
 40
0.0
  9
$LOFTPARAM
 70
     7
  9
$LOFTNORMALS
280
     1
  9
$LATITUDE
 40
37.795
  9
$LONGITUDE
 40
-122.394
  9
$NORTHDIRECTION
 40
0.0
  9
$TIMEZONE
 70
 -8000
  9
$LIGHTGLYPHDISPLAY
280
     1
  9
$TILEMODELIGHTSYNCH
280
     1
  9
$CMATERIAL
347
44
  9
$SOLIDHIST
280
     0
  9
$SHOWHIST
280
     1
  9
$DWFFRAME
280
     2
  9
$DGNFRAME
280
     2
  9
$REALWORLDSCALE
290
     1
  9
$INTERFERECOLOR
 62
   256
  9
$CSHADOW
280
     0
  9
$SHADOWPLANELOCATION
 40
0.0
  0
ENDSEC
  0
SECTION
  2
CLASSES
  0
CLASS
  1
ACDBDICTIONARYWDFLT
  2
AcDbDictionaryWithDefault
  3
ObjectDBX Classes
 90
        0
 91
        3
280
     0
281
     0
  0
CLASS
  1
VISUALSTYLE
  2
AcDbVisualStyle
  3
ObjectDBX Classes
 90
     4095
 91
        3
280
     0
281
     0
  0
CLASS
  1
MATERIAL
  2
AcDbMaterial
  3
ObjectDBX Classes
 90
     1153
 91
        3
280
     0
281
     0
  0
CLASS
  1
SCALE
  2
AcDbScale
  3
ObjectDBX Classes
 90
     1153
 91
        3
280
     0
281
     0
  0
CLASS
  1
TABLESTYLE
  2
AcDbTableStyle
  3
ObjectDBX Classes
 90
     4095
 91
        3
280
     0
281
     0
  0
CLASS
  1
MLEADERSTYLE
  2
AcDbMLeaderStyle
  3
ACDB_MLEADERSTYLE_CLASS
 90
     4095
 91
        3
280
     0
281
     0
  0
CLASS
  1
SUN
  2
AcDbSun
  3
SCENEOE
 90
     1153
 91
        3
280
     0
281
     0
  0
CLASS
  1
DICTIONARYVAR
  2
AcDbDictionaryVar
  3
ObjectDBX Classes
 90
        0
 91
        3
280
     0
281
     0
  0
CLASS
  1
CELLSTYLEMAP
  2
AcDbCellStyleMap
  3
ObjectDBX Classes
 90
     1152
 91
        3
280
     0
281
     0
  0
ENDSEC
  0
SECTION
  2
TABLES
  0
TABLE
  2
VPORT
  5
8
330
0
100
AcDbSymbolTable
 70
     1
  0
VPORT
  5
29
330
8
100
AcDbSymbolTableRecord
100
AcDbViewportTableRecord
  2
*Active
 70
     0
 10
0.0
 20
0.0
 11
1.0
 21
1.0
 12
10.42990654205607
 22
4.5
 13
0.0
 23
0.0
 14
0.5
 24
0.5
 15
0.5
 25
0.5
 16
0.0
 26
0.0
 36
1.0
 17
0.0
 27
0.0
 37
0.0
 40
9.0
 41
1.972972972850329
 42
50.0
 43
0.0
 44
0.0
 50
0.0
 51
0.0
 71
     0
 72
   100
 73
     1
 74
     3
 75
     0
 76
     0
 77
     0
 78
     0
281
     0
 65
     1
110
0.0
120
0.0
130
0.0
111
1.0
121
0.0
131
0.0
112
0.0
122
1.0
132
0.0
 79
     0
146
0.0
348
2F
 60
     3
 61
     5
292
     1
282
     1
141
0.0
142
0.0
 63
   250
361
5D
  0
ENDTAB
  0
TABLE
  2
LTYPE
  5
5
330
0
100
AcDbSymbolTable
 70
     1
  0
LTYPE
  5
14
330
5
100
AcDbSymbolTableRecord
100
AcDbLinetypeTableRecord
  2
ByBlock
 70
     0
  3

 72
    65
 73
     0
 40
0.0
  0
LTYPE
  5
15
330
5
100
AcDbSymbolTableRecord
100
AcDbLinetypeTableRecord
  2
ByLayer
 70
     0
  3

 72
    65
 73
     0
 40
0.0
  0
LTYPE
  5
16
330
5
100
AcDbSymbolTableRecord
100
AcDbLinetypeTableRecord
  2
Continuous
 70
     0
  3
Solid line
 72
    65
 73
     0
 40
0.0
  0
ENDTAB
  0
TABLE
  2
LAYER
  5
2
330
0
100
AcDbSymbolTable
 70
     2
  0
LAYER
  5
10
330
2
100
AcDbSymbolTableRecord
100
AcDbLayerTableRecord
  2
0
 70
     0
 62
     7
  6
Continuous
370
    -3
390
F
347
46
348
0
  0
LAYER
  5
5F
330
2
100
AcDbSymbolTableRecord
100
AcDbLayerTableRecord
  2
Layer 1
 70
     0
 62
     7
  6
Continuous
370
    -3
390
F
347
46
348
0
  0
ENDTAB
  0
TABLE
  2
STYLE
  5
3
330
0
100
AcDbSymbolTable
 70
     1
  0
STYLE
  5
11
330
3
100
AcDbSymbolTableRecord
100
AcDbTextStyleTableRecord
  2
Standard
 70
     0
 40
0.0
 41
1.0
 50
0.0
 71
     0
 42
0.2
  3
txt
  4

  0
ENDTAB
  0
TABLE
  2
VIEW
  5
6
330
0
100
AcDbSymbolTable
 70
     0
  0
ENDTAB
  0
TABLE
  2
UCS
  5
7
330
0
100
AcDbSymbolTable
 70
     0
  0
ENDTAB
  0
TABLE
  2
APPID
  5
9
330
0
100
AcDbSymbolTable
 70
     2
  0
APPID
  5
12
330
9
100
AcDbSymbolTableRecord
100
AcDbRegAppTableRecord
  2
ACAD
 70
     0
  0
APPID
  5
5E
330
9
100
AcDbSymbolTableRecord
100
AcDbRegAppTableRecord
  2
ODA
 70
     0
  0
ENDTAB
  0
TABLE
  2
DIMSTYLE
  5
A
330
0
100
AcDbSymbolTable
 70
     1
100
AcDbDimStyleTable
  0
DIMSTYLE
105
27
330
A
100
AcDbSymbolTableRecord
100
AcDbDimStyleTableRecord
  2
Standard
 70
     0
178
     0
340
11
  0
ENDTAB
  0
TABLE
  2
BLOCK_RECORD
  5
1
330
0
100
AcDbSymbolTable
 70
     1
  0
BLOCK_RECORD
  5
1F
330
1
100
AcDbSymbolTableRecord
100
AcDbBlockTableRecord
  2
*Model_Space
340
22
 70
     0
280
     1
281
     0
  0
BLOCK_RECORD
  5
1B
330
1
100
AcDbSymbolTableRecord
100
AcDbBlockTableRecord
  2
*Paper_Space
340
1E
 70
     0
280
     1
281
     0
  0
BLOCK_RECORD
  5
23
330
1
100
AcDbSymbolTableRecord
100
AcDbBlockTableRecord
  2
*Paper_Space0
340
26
 70
     0
280
     1
281
     0
  0
ENDTAB
  0
ENDSEC
  0
SECTION
  2
BLOCKS
  0
BLOCK
  5
20
330
1F
100
AcDbEntity
  8
0
100
AcDbBlockBegin
  2
*Model_Space
 70
     0
 10
0.0
 20
0.0
 30
0.0
  3
*Model_Space
  1

  0
ENDBLK
  5
21
330
1F
100
AcDbEntity
  8
0
100
AcDbBlockEnd
  0
BLOCK
  5
1C
330
1B
100
AcDbEntity
 67
     1
  8
0
100
AcDbBlockBegin
  2
*Paper_Space
 70
     0
 10
0.0
 20
0.0
 30
0.0
  3
*Paper_Space
  1

  0
ENDBLK
  5
1D
330
1B
100
AcDbEntity
 67
     1
  8
0
100
AcDbBlockEnd
  0
BLOCK
  5
24
330
23
100
AcDbEntity
  8
0
100
AcDbBlockBegin
  2
*Paper_Space0
 70
     0
 10
0.0
 20
0.0
 30
0.0
  3
*Paper_Space0
  1

  0
ENDBLK
  5
25
330
23
100
AcDbEntity
  8
0
100
AcDbBlockEnd
  0
ENDSEC
  0
SECTION
  2
ENTITIES
  0
SPLINE
  5
60
330
1F
100
AcDbEntity
  8
Layer 1
 62
   140
100
AcDbSpline
210
0.0
220
0.0
230
1.0
 70
    11
 71
     3
 72
   113
 73
   109
 74
     0
 42
0.0000000001
 43
0.0000000001
 40
0.0
 40
0.0
 40
0.0
 40
0.0
 40
0.0277777777777778
 40
0.0277777777777778
 40
0.0277777777777778
 40
0.0555555555555556
 40
0.0555555555555556
 40
0.0555555555555556
 40
0.0833333333333333
 40
0.0833333333333333
 40
0.0833333333333333
 40
0.1111111111111111
 40
0.1111111111111111
 40
0.1111111111111111
 40
0.1388888888888889
 40
0.1388888888888889
 40
0.1388888888888889
 40
0.1666666666666667
 40
0.1666666666666667
 40
0.1666666666666667
 40
0.1944444444444444
 40
0.1944444444444444
 40
0.1944444444444444
 40
0.2222222222222222
 40
0.2222222222222222
 40
0.2222222222222222
 40
0.25
 40
0.25
 40
0.25
 40
0.2777777777777778
 40
0.2777777777777778
 40
0.2777777777777778
 40
0.3055555555555555
 40
0.3055555555555555
 40
0.3055555555555555
 40
0.3333333333333333
 40
0.3333333333333333
 40
0.3333333333333333
 40
0.3611111111111111
 40
0.3611111111111111
 40
0.3611111111111111
 40
0.3888888888888888
 40
0.3888888888888888
 40
0.3888888888888888
 40
0.4166666666666666
 40
0.4166666666666666
 40
0.4166666666666666
 40
0.4444444444444444
 40
0.4444444444444444
 40
0.4444444444444444
 40
0.4722222222222222
 40
0.4722222222222222
 40
0.4722222222222222
 40
0.5
 40
0.5
 40
0.5
 40
0.5277777777777778
 40
0.5277777777777778
 40
0.5277777777777778
 40
0.5555555555555556
 40
0.5555555555555556
 40
0.5555555555555556
 40
0.5833333333333333
 40
0.5833333333333333
 40
0.5833333333333333
 40
0.611111111111111
 40
0.611111111111111
 40
0.611111111111111
 40
0.6388888888888888
 40
0.6388888888888888
 40
0.6388888888888888
 40
0.6666666666666666
 40
0.6666666666666666
 40
0.6666666666666666
 40
0.6944444444444444
 40
0.6944444444444444
 40
0.6944444444444444
 40
0.7222222222222222
 40
0.7222222222222222
 40
0.7222222222222222
 40
0.75
 40
0.75
 40
0.75
 40
0.7777777777777777
 40
0.7777777777777777
 40
0.7777777777777777
 40
0.8055555555555555
 40
0.8055555555555555
 40
0.8055555555555555
 40
0.8333333333333333
 40
0.8333333333333333
 40
0.8333333333333333
 40
0.861111111111111
 40
0.861111111111111
 40
0.861111111111111
 40
0.8888888888888888
 40
0.8888888888888888
 40
0.8888888888888888
 40
0.9166666666666666
 40
0.9166666666666666
 40
0.9166666666666666
 40
0.9444444444444444
 40
0.9444444444444444
 40
0.9444444444444444
 40
0.9722222222222222
 40
0.9722222222222222
 40
0.9722222222222222
 40
1.0
 40
1.0
 40
1.0
 40
1.0
 10
0.3436
 20
17.3189
 30
0.0
 10
0.7791
 20
17.3189
 30
0.0
 10
1.1957
 20
17.3243
 30
0.0
 10
1.6012
 20
17.337
 30
0.0
 10
2.011
 20
17.3499
 30
0.0
 10
2.4252
 20
17.3711
 30
0.0
 10
2.8549
 20
17.4023
 30
0.0
 10
3.547
 20
17.4532
 30
0.0
 10
4.1731
 20
17.3312
 30
0.0
 10
4.7602
 20
17.1042
 30
0.0
 10
5.3413
 20
16.8795
 30
0.0
 10
5.8821
 20
16.5524
 30
0.0
 10
6.4109
 20
16.1885
 30
0.0
 10
6.7906
 20
15.9274
 30
0.0
 10
7.1678
 20
15.6615
 30
0.0
 10
7.5431
 20
15.3939
 30
0.0
 10
7.9316
 20
15.1165
 30
0.0
 10
8.3008
 20
14.8498
 30
0.0
 10
8.665
 20
14.5859
 30
0.0
 10
8.8517
 20
14.4506
 30
0.0
 10
9.0407
 20
14.3115
 30
0.0
 10
9.2342
 20
14.1627
 30
0.0
 10
9.4229
 20
14.0176
 30
0.0
 10
9.6084
 20
13.8678
 30
0.0
 10
9.787
 20
13.7121
 30
0.0
 10
9.8513
 20
13.6558
 30
0.0
 10
9.8901
 20
13.543
 30
0.0
 10
9.8983
 20
13.4331
 30
0.0
 10
9.9063
 20
13.3266
 30
0.0
 10
9.8871
 20
13.2102
 30
0.0
 10
9.8363
 20
13.1412
 30
0.0
 10
9.6371
 20
12.8692
 30
0.0
 10
9.4341
 20
12.6042
 30
0.0
 10
9.2296
 20
12.344
 30
0.0
 10
9.0314
 20
12.0915
 30
0.0
 10
8.8194
 20
11.8279
 30
0.0
 10
8.6061
 20
11.5636
 30
0.0
 10
8.2029
 20
11.0643
 30
0.0
 10
7.8243
 20
10.601
 30
0.0
 10
7.4476
 20
10.1406
 30
0.0
 10
7.4476
 20
10.1406
 30
0.0
 10
6.4672
 20
8.9397
 30
0.0
 10
6.4672
 20
8.9397
 30
0.0
 10
5.782
 20
8.0991
 30
0.0
 10
5.0969
 20
7.2581
 30
0.0
 10
4.4035
 20
6.3964
 30
0.0
 10
4.1204
 20
6.0449
 30
0.0
 10
3.8258
 20
5.6707
 30
0.0
 10
3.5316
 20
5.2967
 30
0.0
 10
3.2995
 20
5.0021
 30
0.0
 10
3.0683
 20
4.7085
 30
0.0
 10
2.8193
 20
4.3967
 30
0.0
 10
2.8193
 20
4.3967
 30
0.0
 10
2.6517
 20
4.1877
 30
0.0
 10
2.6517
 20
4.1877
 30
0.0
 10
1.9694
 20
3.3339
 30
0.0
 10
1.2869
 20
2.4797
 30
0.0
 10
0.583
 20
1.6421
 30
0.0
 10
0.583
 20
1.6421
 30
0.0
 10
0.5612
 20
1.6198
 30
0.0
 10
0.5612
 20
1.6198
 30
0.0
 10
0.4972
 20
1.5638
 30
0.0
 10
0.371
 20
1.5383
 30
0.0
 10
0.2512
 20
1.5417
 30
0.0
 10
0.1349
 20
1.5452
 30
0.0
 10
0.01
 20
1.5759
 30
0.0
 10
-0.0566
 20
1.6321
 30
0.0
 10
-0.0566
 20
1.6321
 30
0.0
 10
-0.0815
 20
1.6562
 30
0.0
 10
-0.0815
 20
1.6562
 30
0.0
 10
-0.9684
 20
2.6711
 30
0.0
 10
-1.809
 20
3.647
 30
0.0
 10
-2.6488
 20
4.6226
 30
0.0
 10
-3.5173
 20
5.6313
 30
0.0
 10
-4.3858
 20
6.6401
 30
0.0
 10
-5.2221
 20
7.5968
 30
0.0
 10
-6.2488
 20
8.7709
 30
0.0
 10
-7.3083
 20
9.9488
 30
0.0
 10
-8.3674
 20
11.1262
 30
0.0
 10
-8.3674
 20
11.1262
 30
0.0
 10
-9.3925
 20
12.2675
 30
0.0
 10
-9.3925
 20
12.2675
 30
0.0
 10
-9.658
 20
12.5637
 30
0.0
 10
-9.7891
 20
12.7103
 30
0.0
 10
-9.7774
 20
12.8851
 30
0.0
 10
-9.7656
 20
13.0608
 30
0.0
 10
-9.6219
 20
13.1742
 30
0.0
 10
-9.3388
 20
13.3972
 30
0.0
 10
-9.3388
 20
13.3972
 30
0.0
 10
-9.3025
 20
13.4257
 30
0.0
 10
-9.3025
 20
13.4257
 30
0.0
 10
-8.9121
 20
13.7331
 30
0.0
 10
-8.5184
 20
14.0571
 30
0.0
 10
-8.1251
 20
14.3807
 30
0.0
 10
-7.4718
 20
14.9185
 30
0.0
 10
-6.818
 20
15.4568
 30
0.0
 10
-6.1382
 20
15.9533
 30
0.0
 10
-5.6485
 20
16.3116
 30
0.0
 10
-5.145
 20
16.6303
 30
0.0
 10
-4.5984
 20
16.8594
 30
0.0
 10
-4.0466
 20
17.0905
 30
0.0
 10
-3.4514
 20
17.2308
 30
0.0
 10
-2.7828
 20
17.23
 30
0.0
 10
-2.2447
 20
17.2295
 30
0.0
 10
-1.7105
 20
17.2524
 30
0.0
 10
-1.1825
 20
17.2749
 30
0.0
 10
-0.666
 20
17.297
 30
0.0
 10
-0.1547
 20
17.3189
 30
0.0
 10
0.3436
 20
17.3189
 30
0.0
  0
SPLINE
  5
61
330
1F
100
AcDbEntity
  8
Layer 1
 62
   140
100
AcDbSpline
210
0.0
220
0.0
230
1.0
 70
    11
 71
     3
 72
   110
 73
   106
 74
     0
 42
0.0000000001
 43
0.0000000001
 40
0.0
 40
0.0
 40
0.0
 40
0.0
 40
0.0285714285714286
 40
0.0285714285714286
 40
0.0285714285714286
 40
0.0571428571428571
 40
0.0571428571428571
 40
0.0571428571428571
 40
0.0857142857142857
 40
0.0857142857142857
 40
0.0857142857142857
 40
0.1142857142857143
 40
0.1142857142857143
 40
0.1142857142857143
 40
0.1428571428571428
 40
0.1428571428571428
 40
0.1428571428571428
 40
0.1714285714285714
 40
0.1714285714285714
 40
0.1714285714285714
 40
0.2
 40
0.2
 40
0.2
 40
0.2285714285714286
 40
0.2285714285714286
 40
0.2285714285714286
 40
0.2571428571428571
 40
0.2571428571428571
 40
0.2571428571428571
 40
0.2857142857142857
 40
0.2857142857142857
 40
0.2857142857142857
 40
0.3142857142857143
 40
0.3142857142857143
 40
0.3142857142857143
 40
0.3428571428571429
 40
0.3428571428571429
 40
0.3428571428571429
 40
0.3714285714285714
 40
0.3714285714285714
 40
0.3714285714285714
 40
0.4
 40
0.4
 40
0.4
 40
0.4285714285714285
 40
0.4285714285714285
 40
0.4285714285714285
 40
0.4571428571428571
 40
0.4571428571428571
 40
0.4571428571428571
 40
0.4857142857142857
 40
0.4857142857142857
 40
0.4857142857142857
 40
0.5142857142857142
 40
0.5142857142857142
 40
0.5142857142857142
 40
0.5428571428571428
 40
0.5428571428571428
 40
0.5428571428571428
 40
0.5714285714285714
 40
0.5714285714285714
 40
0.5714285714285714
 40
0.6
 40
0.6
 40
0.6
 40
0.6285714285714286
 40
0.6285714285714286
 40
0.6285714285714286
 40
0.6571428571428571
 40
0.6571428571428571
 40
0.6571428571428571
 40
0.6857142857142857
 40
0.6857142857142857
 40
0.6857142857142857
 40
0.7142857142857143
 40
0.7142857142857143
 40
0.7142857142857143
 40
0.7428571428571429
 40
0.7428571428571429
 40
0.7428571428571429
 40
0.7714285714285714
 40
0.7714285714285714
 40
0.7714285714285714
 40
0.7999999999999999
 40
0.7999999999999999
 40
0.7999999999999999
 40
0.8285714285714285
 40
0.8285714285714285
 40
0.8285714285714285
 40
0.8571428571428571
 40
0.8571428571428571
 40
0.8571428571428571
 40
0.8857142857142857
 40
0.8857142857142857
 40
0.8857142857142857
 40
0.9142857142857143
 40
0.9142857142857143
 40
0.9142857142857143
 40
0.9428571428571428
 40
0.9428571428571428
 40
0.9428571428571428
 40
0.9714285714285714
 40
0.9714285714285714
 40
0.9714285714285714
 40
1.0
 40
1.0
 40
1.0
 40
1.0
 10
1.61
 20
17.0599
 30
0.0
 10
1.1832
 20
17.0464
 30
0.0
 10
0.7658
 20
17.0409
 30
0.0
 10
0.3436
 20
17.0409
 30
0.0
 10
-0.1659
 20
17.0409
 30
0.0
 10
-0.6663
 20
17.0194
 30
0.0
 10
-1.1718
 20
16.9978
 30
0.0
 10
-1.7
 20
16.9753
 30
0.0
 10
-2.2344
 20
16.9523
 30
0.0
 10
-2.7828
 20
16.9529
 30
0.0
 10
-3.4104
 20
16.9535
 30
0.0
 10
-3.9708
 20
16.8211
 30
0.0
 10
-4.4909
 20
16.6033
 30
0.0
 10
-5.0156
 20
16.3831
 30
0.0
 10
-5.5011
 20
16.0756
 30
0.0
 10
-5.9743
 20
15.7295
 30
0.0
 10
-6.6533
 20
15.2336
 30
0.0
 10
-7.3013
 20
14.7001
 30
0.0
 10
-7.9492
 20
14.1667
 30
0.0
 10
-8.3378
 20
13.8469
 30
0.0
 10
-8.7269
 20
13.5266
 30
0.0
 10
-9.131
 20
13.2079
 30
0.0
 10
-9.131
 20
13.2079
 30
0.0
 10
-9.1673
 20
13.1787
 30
0.0
 10
-9.1673
 20
13.1787
 30
0.0
 10
-9.3858
 20
13.0066
 30
0.0
 10
-9.4969
 20
12.919
 30
0.0
 10
-9.5003
 20
12.8665
 30
0.0
 10
-9.5043
 20
12.8075
 30
0.0
 10
-9.399
 20
12.6899
 30
0.0
 10
-9.1861
 20
12.4523
 30
0.0
 10
-9.1861
 20
12.4523
 30
0.0
 10
-8.1609
 20
11.3119
 30
0.0
 10
-8.1609
 20
11.3119
 30
0.0
 10
-7.1116
 20
10.1455
 30
0.0
 10
-6.0621
 20
8.9785
 30
0.0
 10
-5.0134
 20
7.7793
 30
0.0
 10
-4.1241
 20
6.7619
 30
0.0
 10
-3.2807
 20
5.7825
 30
0.0
 10
-2.4382
 20
4.8038
 30
0.0
 10
-1.5735
 20
3.7993
 30
0.0
 10
-0.7087
 20
2.7953
 30
0.0
 10
0.1235
 20
1.8429
 30
0.0
 10
0.1235
 20
1.8429
 30
0.0
 10
0.1251
 20
1.8412
 30
0.0
 10
0.1251
 20
1.8412
 30
0.0
 10
0.1459
 20
1.8283
 30
0.0
 10
0.2005
 20
1.8204
 30
0.0
 10
0.2588
 20
1.8188
 30
0.0
 10
0.3131
 20
1.8173
 30
0.0
 10
0.3612
 20
1.8196
 30
0.0
 10
0.3757
 20
1.8266
 30
0.0
 10
0.3757
 20
1.8266
 30
0.0
 10
0.3787
 20
1.8295
 30
0.0
 10
0.3787
 20
1.8295
 30
0.0
 10
1.0774
 20
2.6608
 30
0.0
 10
1.7566
 20
3.5109
 30
0.0
 10
2.4355
 20
4.3604
 30
0.0
 10
2.4355
 20
4.3604
 30
0.0
 10
3.3131
 20
5.4682
 30
0.0
 10
3.3131
 20
5.4682
 30
0.0
 10
3.5979
 20
5.8301
 30
0.0
 10
3.8832
 20
6.1924
 30
0.0
 10
4.1873
 20
6.5701
 30
0.0
 10
4.8627
 20
7.4096
 30
0.0
 10
5.5574
 20
8.2621
 30
0.0
 10
6.2522
 20
9.1147
 30
0.0
 10
6.2522
 20
9.1147
 30
0.0
 10
7.2326
 20
10.3165
 30
0.0
 10
7.2326
 20
10.3165
 30
0.0
 10
7.6298
 20
10.8022
 30
0.0
 10
8.0253
 20
11.2859
 30
0.0
 10
8.3898
 20
11.7373
 30
0.0
 10
8.5936
 20
11.99
 30
0.0
 10
8.799
 20
12.2453
 30
0.0
 10
9.0112
 20
12.5155
 30
0.0
 10
9.2173
 20
12.7779
 30
0.0
 10
9.4193
 20
13.0413
 30
0.0
 10
9.6127
 20
13.305
 30
0.0
 10
9.6229
 20
13.3185
 30
0.0
 10
9.6248
 20
13.3633
 30
0.0
 10
9.6212
 20
13.4126
 30
0.0
 10
9.6179
 20
13.4587
 30
0.0
 10
9.6115
 20
13.4973
 30
0.0
 10
9.6045
 20
13.5034
 30
0.0
 10
9.4297
 20
13.656
 30
0.0
 10
9.2486
 20
13.8019
 30
0.0
 10
9.0649
 20
13.9433
 30
0.0
 10
8.8862
 20
14.0808
 30
0.0
 10
8.6953
 20
14.2211
 30
0.0
 10
8.5021
 20
14.3612
 30
0.0
 10
8.1211
 20
14.6372
 30
0.0
 10
7.743
 20
14.9103
 30
0.0
 10
7.3823
 20
15.1679
 30
0.0
 10
7.0078
 20
15.435
 30
0.0
 10
6.6318
 20
15.7002
 30
0.0
 10
6.2533
 20
15.9602
 30
0.0
 10
5.7398
 20
16.3136
 30
0.0
 10
5.2167
 20
16.6306
 30
0.0
 10
4.6603
 20
16.8457
 30
0.0
 10
4.1099
 20
17.0585
 30
0.0
 10
3.5229
 20
17.1728
 30
0.0
 10
2.8745
 20
17.1252
 30
0.0
 10
2.4505
 20
17.0944
 30
0.0
 10
2.0323
 20
17.0733
 30
0.0
 10
1.61
 20
17.0599
 30
0.0
  0
SPLINE
  5
62
330
1F
100
AcDbEntity
  8
Layer 1
 62
   140
370
    18
100
AcDbSpline
210
0.0
220
0.0
230
1.0
 70
    11
 71
     3
 72
    50
 73
    46
 74
     0
 42
0.0000000001
 43
0.0000000001
 40
0.0
 40
0.0
 40
0.0
 40
0.0
 40
0.0666666666666667
 40
0.0666666666666667
 40
0.0666666666666667
 40
0.1333333333333333
 40
0.1333333333333333
 40
0.1333333333333333
 40
0.2
 40
0.2
 40
0.2
 40
0.2666666666666667
 40
0.2666666666666667
 40
0.2666666666666667
 40
0.3333333333333333
 40
0.3333333333333333
 40
0.3333333333333333
 40
0.4
 40
0.4
 40
0.4
 40
0.4666666666666667
 40
0.4666666666666667
 40
0.4666666666666667
 40
0.5333333333333333
 40
0.5333333333333333
 40
0.5333333333333333
 40
0.6
 40
0.6
 40
0.6
 40
0.6666666666666666
 40
0.6666666666666666
 40
0.6666666666666666
 40
0.7333333333333333
 40
0.7333333333333333
 40
0.7333333333333333
 40
0.8
 40
0.8
 40
0.8
 40
0.8666666666666667
 40
0.8666666666666667
 40
0.8666666666666667
 40
0.9333333333333333
 40
0.9333333333333333
 40
0.9333333333333333
 40
1.0
 40
1.0
 40
1.0
 40
1.0
 10
4.9749
 20
15.8463
 30
0.0
 10
4.9202
 20
15.8762
 30
0.0
 10
4.869
 20
15.9065
 30
0.0
 10
4.8188
 20
15.9437
 30
0.0
 10
4.4858
 20
16.1896
 30
0.0
 10
4.1174
 20
16.3166
 30
0.0
 10
3.7374
 20
16.3807
 30
0.0
 10
3.3484
 20
16.4465
 30
0.0
 10
2.9441
 20
16.4469
 30
0.0
 10
2.5516
 20
16.4402
 30
0.0
 10
1.6129
 20
16.4244
 30
0.0
 10
0.6703
 20
16.3924
 30
0.0
 10
-0.2743
 20
16.3442
 30
0.0
 10
-1.199
 20
16.2971
 30
0.0
 10
-2.1296
 20
16.2332
 30
0.0
 10
-3.064
 20
16.1527
 30
0.0
 10
-3.5167
 20
16.1136
 30
0.0
 10
-3.9694
 20
15.9172
 30
0.0
 10
-4.4153
 20
15.724
 30
0.0
 10
-4.5527
 20
15.6644
 30
0.0
 10
-4.69
 20
15.6048
 30
0.0
 10
-4.8098
 20
15.5564
 30
0.0
 10
-4.873
 20
15.531
 30
0.0
 10
-4.9061
 20
15.5288
 30
0.0
 10
-4.9058
 20
15.5246
 30
0.0
 10
-4.9047
 20
15.5101
 30
0.0
 10
-4.8556
 20
15.4754
 30
0.0
 10
-4.7584
 20
15.4209
 30
0.0
 10
-4.048
 20
15.0237
 30
0.0
 10
-3.3091
 20
14.8525
 30
0.0
 10
-2.5558
 20
14.7957
 30
0.0
 10
-1.795
 20
14.7387
 30
0.0
 10
-1.0142
 20
14.7981
 30
0.0
 10
-0.2316
 20
14.86
 30
0.0
 10
0.0465
 20
14.8823
 30
0.0
 10
0.33
 20
14.8717
 30
0.0
 10
0.6103
 20
14.8615
 30
0.0
 10
0.6103
 20
14.8615
 30
0.0
 10
0.6482
 20
14.86
 30
0.0
 10
0.6482
 20
14.86
 30
0.0
 10
1.4341
 20
14.8309
 30
0.0
 10
2.2095
 20
14.8411
 30
0.0
 10
2.963
 20
14.994
 30
0.0
 10
3.6488
 20
15.1329
 30
0.0
 10
4.3212
 20
15.3911
 30
0.0
 10
4.9749
 20
15.8463
 30
0.0
  0
SPLINE
  5
63
330
1F
100
AcDbEntity
  8
Layer 1
 62
   140
370
    18
100
AcDbSpline
210
0.0
220
0.0
230
1.0
 70
    11
 71
     3
 72
    35
 73
    31
 74
     0
 42
0.0000000001
 43
0.0000000001
 40
0.0
 40
0.0
 40
0.0
 40
0.0
 40
0.1
 40
0.1
 40
0.1
 40
0.2
 40
0.2
 40
0.2
 40
0.3
 40
0.3
 40
0.3
 40
0.4
 40
0.4
 40
0.4
 40
0.5
 40
0.5
 40
0.5
 40
0.6000000000000001
 40
0.6000000000000001
 40
0.6000000000000001
 40
0.7000000000000001
 40
0.7000000000000001
 40
0.7000000000000001
 40
0.8
 40
0.8
 40
0.8
 40
0.9
 40
0.9
 40
0.9
 40
1.0
 40
1.0
 40
1.0
 40
1.0
 10
-3.8491
 20
9.9179
 30
0.0
 10
-3.8491
 20
9.9179
 30
0.0
 10
-0.1137
 20
3.2806
 30
0.0
 10
-0.1137
 20
3.2806
 30
0.0
 10
-0.1112
 20
3.3041
 30
0.0
 10
-0.1108
 20
3.3274
 30
0.0
 10
-0.1119
 20
3.3507
 30
0.0
 10
-0.1119
 20
3.3507
 30
0.0
 10
-0.1414
 20
4.0085
 30
0.0
 10
-0.1414
 20
4.0085
 30
0.0
 10
-0.1908
 20
5.1146
 30
0.0
 10
-0.2404
 20
6.2214
 30
0.0
 10
-0.3027
 20
7.3369
 30
0.0
 10
-0.3244
 20
7.7292
 30
0.0
 10
-0.352
 20
8.1289
 30
0.0
 10
-0.3837
 20
8.5337
 30
0.0
 10
-0.4163
 20
8.9512
 30
0.0
 10
-0.4515
 20
9.348
 30
0.0
 10
-0.4877
 20
9.7297
 30
0.0
 10
-0.4907
 20
9.7622
 30
0.0
 10
-0.5166
 20
9.814
 30
0.0
 10
-0.5482
 20
9.859
 30
0.0
 10
-0.5664
 20
9.8848
 30
0.0
 10
-0.5517
 20
9.9045
 30
0.0
 10
-0.5632
 20
9.9045
 30
0.0
 10
-1.4717
 20
9.92
 30
0.0
 10
-2.3795
 20
9.919
 30
0.0
 10
-3.3539
 20
9.9182
 30
0.0
 10
-3.3539
 20
9.9182
 30
0.0
 10
-3.8491
 20
9.9179
 30
0.0
 10
-3.8491
 20
9.9179
 30
0.0
  0
SPLINE
  5
64
330
1F
100
AcDbEntity
  8
Layer 1
 62
   140
370
    18
100
AcDbSpline
210
0.0
220
0.0
230
1.0
 70
    11
 71
     3
 72
    35
 73
    31
 74
     0
 42
0.0000000001
 43
0.0000000001
 40
0.0
 40
0.0
 40
0.0
 40
0.0
 40
0.1
 40
0.1
 40
0.1
 40
0.2
 40
0.2
 40
0.2
 40
0.3
 40
0.3
 40
0.3
 40
0.4
 40
0.4
 40
0.4
 40
0.5
 40
0.5
 40
0.5
 40
0.6000000000000001
 40
0.6000000000000001
 40
0.6000000000000001
 40
0.7000000000000001
 40
0.7000000000000001
 40
0.7000000000000001
 40
0.8
 40
0.8
 40
0.8
 40
0.9
 40
0.9
 40
0.9
 40
1.0
 40
1.0
 40
1.0
 40
1.0
 10
0.5545
 20
3.4289
 30
0.0
 10
0.5545
 20
3.4289
 30
0.0
 10
3.9915
 20
10.0919
 30
0.0
 10
3.9915
 20
10.0919
 30
0.0
 10
3.6767
 20
10.0855
 30
0.0
 10
3.3645
 20
10.0959
 30
0.0
 10
3.0543
 20
10.1061
 30
0.0
 10
2.2887
 20
10.1315
 30
0.0
 10
1.5342
 20
10.1565
 30
0.0
 10
0.798
 20
9.92
 30
0.0
 10
0.7942
 20
9.919
 30
0.0
 10
0.784
 20
9.908
 30
0.0
 10
0.7723
 20
9.893
 30
0.0
 10
0.7581
 20
9.8749
 30
0.0
 10
0.7477
 20
9.8568
 30
0.0
 10
0.7463
 20
9.846
 30
0.0
 10
0.7463
 20
9.846
 30
0.0
 10
0.7067
 20
9.5604
 30
0.0
 10
0.7067
 20
9.5604
 30
0.0
 10
0.655
 20
9.194
 30
0.0
 10
0.6029
 20
8.8256
 30
0.0
 10
0.5961
 20
8.465
 30
0.0
 10
0.5742
 20
7.3851
 30
0.0
 10
0.5682
 20
6.3069
 30
0.0
 10
0.5623
 20
5.2292
 30
0.0
 10
0.5623
 20
5.2292
 30
0.0
 10
0.5556
 20
4.1029
 30
0.0
 10
0.5556
 20
4.1029
 30
0.0
 10
0.5556
 20
4.1029
 30
0.0
 10
0.5545
 20
3.4289
 30
0.0
 10
0.5545
 20
3.4289
 30
0.0
  0
SPLINE
  5
65
330
1F
100
AcDbEntity
  8
Layer 1
 62
   140
370
    18
100
AcDbSpline
210
0.0
220
0.0
230
1.0
 70
    11
 71
     3
 72
    29
 73
    25
 74
     0
 42
0.0000000001
 43
0.0000000001
 40
0.0
 40
0.0
 40
0.0
 40
0.0
 40
0.125
 40
0.125
 40
0.125
 40
0.25
 40
0.25
 40
0.25
 40
0.375
 40
0.375
 40
0.375
 40
0.5
 40
0.5
 40
0.5
 40
0.625
 40
0.625
 40
0.625
 40
0.75
 40
0.75
 40
0.75
 40
0.875
 40
0.875
 40
0.875
 40
1.0
 40
1.0
 40
1.0
 40
1.0
 10
3.2494
 20
10.8661
 30
0.0
 10
3.2494
 20
10.8661
 30
0.0
 10
3.1331
 20
10.9448
 30
0.0
 10
3.1331
 20
10.9448
 30
0.0
 10
3.1331
 20
10.9448
 30
0.0
 10
2.9471
 20
11.071
 30
0.0
 10
2.9471
 20
11.071
 30
0.0
 10
1.4869
 20
12.0856
 30
0.0
 10
0.5959
 20
12.9172
 30
0.0
 10
0.5652
 20
12.9461
 30
0.0
 10
0.3809
 20
13.1042
 30
0.0
 10
0.2369
 20
13.1921
 30
0.0
 10
0.1048
 20
13.1943
 30
0.0
 10
-0.0267
 20
13.1965
 30
0.0
 10
-0.1704
 20
13.1139
 30
0.0
 10
-0.3599
 20
12.9313
 30
0.0
 10
-0.938
 20
12.3738
 30
0.0
 10
-1.5527
 20
11.865
 30
0.0
 10
-2.1996
 20
11.3297
 30
0.0
 10
-2.1996
 20
11.3297
 30
0.0
 10
-2.7573
 20
10.8665
 30
0.0
 10
-2.7573
 20
10.8665
 30
0.0
 10
-2.7573
 20
10.8665
 30
0.0
 10
3.2494
 20
10.8661
 30
0.0
 10
3.2494
 20
10.8661
 30
0.0
  0
SPLINE
  5
66
330
1F
100
AcDbEntity
  8
Layer 1
 62
   140
370
    18
100
AcDbSpline
210
0.0
220
0.0
230
1.0
 70
    11
 71
     3
 72
    23
 73
    19
 74
     0
 42
0.0000000001
 43
0.0000000001
 40
0.0
 40
0.0
 40
0.0
 40
0.0
 40
0.1666666666666667
 40
0.1666666666666667
 40
0.1666666666666667
 40
0.3333333333333333
 40
0.3333333333333333
 40
0.3333333333333333
 40
0.5
 40
0.5
 40
0.5
 40
0.6666666666666666
 40
0.6666666666666666
 40
0.6666666666666666
 40
0.8333333333333333
 40
0.8333333333333333
 40
0.8333333333333333
 40
1.0
 40
1.0
 40
1.0
 40
1.0
 10
8.6638
 20
13.4328
 30
0.0
 10
8.6638
 20
13.4328
 30
0.0
 10
7.1174
 20
14.4403
 30
0.0
 10
7.1174
 20
14.4403
 30
0.0
 10
7.1174
 20
14.4403
 30
0.0
 10
6.5074
 20
14.8307
 30
0.0
 10
6.5074
 20
14.8307
 30
0.0
 10
6.5074
 20
14.8307
 30
0.0
 10
6.2737
 20
14.188
 30
0.0
 10
6.2737
 20
14.188
 30
0.0
 10
6.2737
 20
14.188
 30
0.0
 10
5.4676
 20
11.7249
 30
0.0
 10
5.4676
 20
11.7249
 30
0.0
 10
5.4676
 20
11.7249
 30
0.0
 10
5.3913
 20
11.4802
 30
0.0
 10
5.3913
 20
11.4802
 30
0.0
 10
5.3913
 20
11.4802
 30
0.0
 10
8.6638
 20
13.4328
 30
0.0
 10
8.6638
 20
13.4328
 30
0.0
  0
SPLINE
  5
67
330
1F
100
AcDbEntity
  8
Layer 1
 62
   140
370
    18
100
AcDbSpline
210
0.0
220
0.0
230
1.0
 70
    11
 71
     3
 72
    29
 73
    25
 74
     0
 42
0.0000000001
 43
0.0000000001
 40
0.0
 40
0.0
 40
0.0
 40
0.0
 40
0.125
 40
0.125
 40
0.125
 40
0.25
 40
0.25
 40
0.25
 40
0.375
 40
0.375
 40
0.375
 40
0.5
 40
0.5
 40
0.5
 40
0.625
 40
0.625
 40
0.625
 40
0.75
 40
0.75
 40
0.75
 40
0.875
 40
0.875
 40
0.875
 40
1.0
 40
1.0
 40
1.0
 40
1.0
 10
-2.3582
 20
5.5019
 30
0.0
 10
-2.3582
 20
5.5019
 30
0.0
 10
-3.1138
 20
6.8257
 30
0.0
 10
-3.1138
 20
6.8257
 30
0.0
 10
-3.3554
 20
7.2463
 30
0.0
 10
-3.6185
 20
7.7007
 30
0.0
 10
-3.912
 20
8.2036
 30
0.0
 10
-4.0061
 20
8.3649
 30
0.0
 10
-4.0981
 20
8.5444
 30
0.0
 10
-4.19
 20
8.7235
 30
0.0
 10
-4.4056
 20
9.1443
 30
0.0
 10
-4.6224
 20
9.5672
 30
0.0
 10
-4.942
 20
9.8575
 30
0.0
 10
-5.3635
 20
10.2402
 30
0.0
 10
-5.8887
 20
10.5208
 30
0.0
 10
-6.4121
 20
10.8003
 30
0.0
 10
-6.6085
 20
10.9052
 30
0.0
 10
-6.8051
 20
11.0104
 30
0.0
 10
-6.9978
 20
11.1213
 30
0.0
 10
-7.0658
 20
11.1604
 30
0.0
 10
-7.1441
 20
11.1907
 30
0.0
 10
-7.2259
 20
11.2179
 30
0.0
 10
-7.2259
 20
11.2179
 30
0.0
 10
-2.3582
 20
5.5019
 30
0.0
 10
-2.3582
 20
5.5019
 30
0.0
  0
SPLINE
  5
68
330
1F
100
AcDbEntity
  8
Layer 1
 62
   140
370
    18
100
AcDbSpline
210
0.0
220
0.0
230
1.0
 70
    11
 71
     3
 72
    14
 73
    10
 74
     0
 42
0.0000000001
 43
0.0000000001
 40
0.0
 40
0.0
 40
0.0
 40
0.0
 40
0.3333333333333333
 40
0.3333333333333333
 40
0.3333333333333333
 40
0.6666666666666666
 40
0.6666666666666666
 40
0.6666666666666666
 40
1.0
 40
1.0
 40
1.0
 40
1.0
 10
-5.3148
 20
11.1826
 30
0.0
 10
-5.3148
 20
11.1826
 30
0.0
 10
-6.3606
 20
14.5415
 30
0.0
 10
-6.3606
 20
14.5415
 30
0.0
 10
-6.3606
 20
14.5415
 30
0.0
 10
-8.4566
 20
12.9043
 30
0.0
 10
-8.4566
 20
12.9043
 30
0.0
 10
-8.4566
 20
12.9043
 30
0.0
 10
-5.3148
 20
11.1826
 30
0.0
 10
-5.3148
 20
11.1826
 30
0.0
  0
SPLINE
  5
69
330
1F
100
AcDbEntity
  8
Layer 1
 62
   140
370
    18
100
AcDbSpline
210
0.0
220
0.0
230
1.0
 70
    11
 71
     3
 72
    35
 73
    31
 74
     0
 42
0.0000000001
 43
0.0000000001
 40
0.0
 40
0.0
 40
0.0
 40
0.0
 40
0.1
 40
0.1
 40
0.1
 40
0.2
 40
0.2
 40
0.2
 40
0.3
 40
0.3
 40
0.3
 40
0.4
 40
0.4
 40
0.4
 40
0.5
 40
0.5
 40
0.5
 40
0.6000000000000001
 40
0.6000000000000001
 40
0.6000000000000001
 40
0.7000000000000001
 40
0.7000000000000001
 40
0.7000000000000001
 40
0.8
 40
0.8
 40
0.8
 40
0.9
 40
0.9
 40
0.9
 40
1.0
 40
1.0
 40
1.0
 40
1.0
 10
7.3016
 20
11.6
 30
0.0
 10
7.3016
 20
11.6
 30
0.0
 10
7.2425
 20
11.5723
 30
0.0
 10
7.2425
 20
11.5723
 30
0.0
 10
7.2425
 20
11.5723
 30
0.0
 10
7.0775
 20
11.4875
 30
0.0
 10
7.0775
 20
11.4875
 30
0.0
 10
6.8513
 20
11.3721
 30
0.0
 10
6.624
 20
11.2558
 30
0.0
 10
6.4144
 20
11.1201
 30
0.0
 10
6.4144
 20
11.1201
 30
0.0
 10
6.2174
 20
10.9932
 30
0.0
 10
6.2174
 20
10.9932
 30
0.0
 10
5.5741
 20
10.5813
 30
0.0
 10
4.9304
 20
10.169
 30
0.0
 10
4.5999
 20
9.4387
 30
0.0
 10
4.3695
 20
8.9279
 30
0.0
 10
4.1168
 20
8.4194
 30
0.0
 10
3.8648
 20
7.9116
 30
0.0
 10
3.8648
 20
7.9116
 30
0.0
 10
3.7286
 20
7.6369
 30
0.0
 10
3.7286
 20
7.6369
 30
0.0
 10
3.4799
 20
7.1342
 30
0.0
 10
3.2127
 20
6.601
 30
0.0
 10
2.9444
 20
6.0663
 30
0.0
 10
2.9444
 20
6.0663
 30
0.0
 10
2.839
 20
5.8559
 30
0.0
 10
2.839
 20
5.8559
 30
0.0
 10
2.839
 20
5.8559
 30
0.0
 10
7.3016
 20
11.6
 30
0.0
 10
7.3016
 20
11.6
 30
0.0
  0
SPLINE
  5
6A
330
1F
100
AcDbEntity
  8
Layer 1
 62
   140
370
    18
100
AcDbSpline
210
0.0
220
0.0
230
1.0
 70
    11
 71
     3
 72
    32
 73
    28
 74
     0
 42
0.0000000001
 43
0.0000000001
 40
0.0
 40
0.0
 40
0.0
 40
0.0
 40
0.1111111111111111
 40
0.1111111111111111
 40
0.1111111111111111
 40
0.2222222222222222
 40
0.2222222222222222
 40
0.2222222222222222
 40
0.3333333333333333
 40
0.3333333333333333
 40
0.3333333333333333
 40
0.4444444444444444
 40
0.4444444444444444
 40
0.4444444444444444
 40
0.5555555555555556
 40
0.5555555555555556
 40
0.5555555555555556
 40
0.6666666666666666
 40
0.6666666666666666
 40
0.6666666666666666
 40
0.7777777777777777
 40
0.7777777777777777
 40
0.7777777777777777
 40
0.8888888888888888
 40
0.8888888888888888
 40
0.8888888888888888
 40
1.0
 40
1.0
 40
1.0
 40
1.0
 10
4.1368
 20
11.0001
 30
0.0
 10
4.1368
 20
11.0001
 30
0.0
 10
4.1698
 20
11.0257
 30
0.0
 10
4.1698
 20
11.0257
 30
0.0
 10
4.1698
 20
11.0257
 30
0.0
 10
3.9113
 20
11.6741
 30
0.0
 10
3.9113
 20
11.6741
 30
0.0
 10
3.6742
 20
12.2637
 30
0.0
 10
3.4372
 20
12.8534
 30
0.0
 10
3.2404
 20
13.4582
 30
0.0
 10
3.1623
 20
13.6979
 30
0.0
 10
3.0581
 20
13.842
 30
0.0
 10
2.9217
 20
13.9169
 30
0.0
 10
2.7818
 20
13.9938
 30
0.0
 10
2.5959
 20
14.0065
 30
0.0
 10
2.3617
 20
13.9815
 30
0.0
 10
2.0479
 20
13.9482
 30
0.0
 10
1.733
 20
13.9567
 30
0.0
 10
1.4185
 20
13.9649
 30
0.0
 10
1.2822
 20
13.9686
 30
0.0
 10
1.1458
 20
13.9725
 30
0.0
 10
1.0142
 20
13.9725
 30
0.0
 10
1.0142
 20
13.9725
 30
0.0
 10
0.5179
 20
13.972
 30
0.0
 10
0.5179
 20
13.972
 30
0.0
 10
0.5179
 20
13.972
 30
0.0
 10
4.1368
 20
11.0001
 30
0.0
 10
4.1368
 20
11.0001
 30
0.0
  0
SPLINE
  5
6B
330
1F
100
AcDbEntity
  8
Layer 1
 62
   140
370
    18
100
AcDbSpline
210
0.0
220
0.0
230
1.0
 70
    11
 71
     3
 72
    41
 73
    37
 74
     0
 42
0.0000000001
 43
0.0000000001
 40
0.0
 40
0.0
 40
0.0
 40
0.0
 40
0.0833333333333333
 40
0.0833333333333333
 40
0.0833333333333333
 40
0.1666666666666667
 40
0.1666666666666667
 40
0.1666666666666667
 40
0.25
 40
0.25
 40
0.25
 40
0.3333333333333333
 40
0.3333333333333333
 40
0.3333333333333333
 40
0.4166666666666666
 40
0.4166666666666666
 40
0.4166666666666666
 40
0.5
 40
0.5
 40
0.5
 40
0.5833333333333333
 40
0.5833333333333333
 40
0.5833333333333333
 40
0.6666666666666666
 40
0.6666666666666666
 40
0.6666666666666666
 40
0.75
 40
0.75
 40
0.75
 40
0.8333333333333333
 40
0.8333333333333333
 40
0.8333333333333333
 40
0.9166666666666666
 40
0.9166666666666666
 40
0.9166666666666666
 40
1.0
 40
1.0
 40
1.0
 40
1.0
 10
-0.5359
 20
13.8538
 30
0.0
 10
-0.5359
 20
13.8538
 30
0.0
 10
-0.9595
 20
13.8544
 30
0.0
 10
-0.9595
 20
13.8544
 30
0.0
 10
-1.5278
 20
13.8559
 30
0.0
 10
-2.0972
 20
13.8573
 30
0.0
 10
-2.6668
 20
13.8462
 30
0.0
 10
-2.7243
 20
13.8451
 30
0.0
 10
-2.8031
 20
13.8283
 30
0.0
 10
-2.8676
 20
13.8012
 30
0.0
 10
-2.902
 20
13.7868
 30
0.0
 10
-2.9273
 20
13.7748
 30
0.0
 10
-2.9284
 20
13.7718
 30
0.0
 10
-3.0966
 20
13.3351
 30
0.0
 10
-3.2642
 20
12.8772
 30
0.0
 10
-3.4311
 20
12.4099
 30
0.0
 10
-3.6122
 20
11.9025
 30
0.0
 10
-3.7637
 20
11.4675
 30
0.0
 10
-3.9126
 20
11.0384
 30
0.0
 10
-3.9175
 20
11.0222
 30
0.0
 10
-3.9159
 20
10.9954
 30
0.0
 10
-3.912
 20
10.9648
 30
0.0
 10
-3.8748
 20
10.973
 30
0.0
 10
-3.8423
 20
10.9822
 30
0.0
 10
-3.8273
 20
10.9946
 30
0.0
 10
-3.4246
 20
11.3251
 30
0.0
 10
-3.024
 20
11.6544
 30
0.0
 10
-2.6384
 20
11.975
 30
0.0
 10
-2.2491
 20
12.2987
 30
0.0
 10
-1.8574
 20
12.6286
 30
0.0
 10
-1.4629
 20
12.968
 30
0.0
 10
-1.2098
 20
13.1864
 30
0.0
 10
-0.9684
 20
13.4257
 30
0.0
 10
-0.7275
 20
13.6645
 30
0.0
 10
-0.7275
 20
13.6645
 30
0.0
 10
-0.5359
 20
13.8538
 30
0.0
 10
-0.5359
 20
13.8538
 30
0.0
  0
SPLINE
  5
6C
330
1F
100
AcDbEntity
  8
Layer 1
 62
   140
370
    18
100
AcDbSpline
210
0.0
220
0.0
230
1.0
 70
    11
 71
     3
 72
    29
 73
    25
 74
     0
 42
0.0000000001
 43
0.0000000001
 40
0.0
 40
0.0
 40
0.0
 40
0.0
 40
0.125
 40
0.125
 40
0.125
 40
0.25
 40
0.25
 40
0.25
 40
0.375
 40
0.375
 40
0.375
 40
0.5
 40
0.5
 40
0.5
 40
0.625
 40
0.625
 40
0.625
 40
0.75
 40
0.75
 40
0.75
 40
0.875
 40
0.875
 40
0.875
 40
1.0
 40
1.0
 40
1.0
 40
1.0
 10
5.5174
 20
14.9516
 30
0.0
 10
5.5174
 20
14.9516
 30
0.0
 10
5.3268
 20
14.8657
 30
0.0
 10
5.3268
 20
14.8657
 30
0.0
 10
4.8296
 20
14.6419
 30
0.0
 10
4.3933
 20
14.4455
 30
0.0
 10
3.9753
 20
14.2431
 30
0.0
 10
3.9652
 20
14.2379
 30
0.0
 10
3.9898
 20
14.2403
 30
0.0
 10
3.9857
 20
14.2253
 30
0.0
 10
3.9754
 20
14.1889
 30
0.0
 10
3.9712
 20
14.1493
 30
0.0
 10
3.9757
 20
14.1249
 30
0.0
 10
4.0577
 20
13.6951
 30
0.0
 10
4.1557
 20
13.2703
 30
0.0
 10
4.3075
 20
12.8449
 30
0.0
 10
4.4309
 20
12.4992
 30
0.0
 10
4.5901
 20
12.1528
 30
0.0
 10
4.8059
 20
11.8021
 30
0.0
 10
5.0379
 20
12.5074
 30
0.0
 10
5.1711
 20
13.2022
 30
0.0
 10
5.3068
 20
13.9113
 30
0.0
 10
5.3719
 20
14.2508
 30
0.0
 10
5.4378
 20
14.594
 30
0.0
 10
5.5174
 20
14.9516
 30
0.0
  0
SPLINE
  5
6D
330
1F
100
AcDbEntity
  8
Layer 1
 62
   140
370
    18
100
AcDbSpline
210
0.0
220
0.0
230
1.0
 70
    11
 71
     3
 72
    26
 73
    22
 74
     0
 42
0.0000000001
 43
0.0000000001
 40
0.0
 40
0.0
 40
0.0
 40
0.0
 40
0.1428571428571428
 40
0.1428571428571428
 40
0.1428571428571428
 40
0.2857142857142857
 40
0.2857142857142857
 40
0.2857142857142857
 40
0.4285714285714285
 40
0.4285714285714285
 40
0.4285714285714285
 40
0.5714285714285714
 40
0.5714285714285714
 40
0.5714285714285714
 40
0.7142857142857142
 40
0.7142857142857142
 40
0.7142857142857142
 40
0.8571428571428571
 40
0.8571428571428571
 40
0.8571428571428571
 40
1.0
 40
1.0
 40
1.0
 40
1.0
 10
-4.6358
 20
11.6534
 30
0.0
 10
-4.6358
 20
11.6534
 30
0.0
 10
-4.5106
 20
12.048
 30
0.0
 10
-4.5106
 20
12.048
 30
0.0
 10
-4.3199
 20
12.646
 30
0.0
 10
-4.1295
 20
13.2449
 30
0.0
 10
-3.9385
 20
13.8838
 30
0.0
 10
-3.9317
 20
13.9068
 30
0.0
 10
-3.9351
 20
13.9509
 30
0.0
 10
-3.9449
 20
13.9925
 30
0.0
 10
-3.9498
 20
14.0139
 30
0.0
 10
-3.92
 20
14.015
 30
0.0
 10
-3.9336
 20
14.0212
 30
0.0
 10
-4.4307
 20
14.2486
 30
0.0
 10
-4.9538
 20
14.4628
 30
0.0
 10
-5.4768
 20
14.6755
 30
0.0
 10
-5.3966
 20
14.37
 30
0.0
 10
-5.3274
 20
14.0667
 30
0.0
 10
-5.2582
 20
13.7643
 30
0.0
 10
-5.094
 20
13.0436
 30
0.0
 10
-4.93
 20
12.3252
 30
0.0
 10
-4.6358
 20
11.6534
 30
0.0
  0
SPLINE
  5
6E
330
1F
100
AcDbEntity
  8
Layer 1
 62
   250
370
    18
100
AcDbSpline
210
0.0
220
0.0
230
1.0
 70
    11
 71
     3
 72
   134
 73
   130
 74
     0
 42
0.0000000001
 43
0.0000000001
 40
0.0
 40
0.0
 40
0.0
 40
0.0
 40
0.0232558139534884
 40
0.0232558139534884
 40
0.0232558139534884
 40
0.0465116279069767
 40
0.0465116279069767
 40
0.0465116279069767
 40
0.0697674418604651
 40
0.0697674418604651
 40
0.0697674418604651
 40
0.0930232558139535
 40
0.0930232558139535
 40
0.0930232558139535
 40
0.1162790697674419
 40
0.1162790697674419
 40
0.1162790697674419
 40
0.1395348837209302
 40
0.1395348837209302
 40
0.1395348837209302
 40
0.1627906976744186
 40
0.1627906976744186
 40
0.1627906976744186
 40
0.186046511627907
 40
0.186046511627907
 40
0.186046511627907
 40
0.2093023255813953
 40
0.2093023255813953
 40
0.2093023255813953
 40
0.2325581395348837
 40
0.2325581395348837
 40
0.2325581395348837
 40
0.2558139534883721
 40
0.2558139534883721
 40
0.2558139534883721
 40
0.2790697674418605
 40
0.2790697674418605
 40
0.2790697674418605
 40
0.3023255813953488
 40
0.3023255813953488
 40
0.3023255813953488
 40
0.3255813953488372
 40
0.3255813953488372
 40
0.3255813953488372
 40
0.3488372093023256
 40
0.3488372093023256
 40
0.3488372093023256
 40
0.3720930232558139
 40
0.3720930232558139
 40
0.3720930232558139
 40
0.3953488372093023
 40
0.3953488372093023
 40
0.3953488372093023
 40
0.4186046511627907
 40
0.4186046511627907
 40
0.4186046511627907
 40
0.4418604651162791
 40
0.4418604651162791
 40
0.4418604651162791
 40
0.4651162790697674
 40
0.4651162790697674
 40
0.4651162790697674
 40
0.4883720930232558
 40
0.4883720930232558
 40
0.4883720930232558
 40
0.5116279069767442
 40
0.5116279069767442
 40
0.5116279069767442
 40
0.5348837209302325
 40
0.5348837209302325
 40
0.5348837209302325
 40
0.5581395348837209
 40
0.5581395348837209
 40
0.5581395348837209
 40
0.5813953488372093
 40
0.5813953488372093
 40
0.5813953488372093
 40
0.6046511627906976
 40
0.6046511627906976
 40
0.6046511627906976
 40
0.627906976744186
 40
0.627906976744186
 40
0.627906976744186
 40
0.6511627906976745
 40
0.6511627906976745
 40
0.6511627906976745
 40
0.6744186046511628
 40
0.6744186046511628
 40
0.6744186046511628
 40
0.6976744186046512
 40
0.6976744186046512
 40
0.6976744186046512
 40
0.7209302325581395
 40
0.7209302325581395
 40
0.7209302325581395
 40
0.7441860465116279
 40
0.7441860465116279
 40
0.7441860465116279
 40
0.7674418604651163
 40
0.7674418604651163
 40
0.7674418604651163
 40
0.7906976744186046
 40
0.7906976744186046
 40
0.7906976744186046
 40
0.813953488372093
 40
0.813953488372093
 40
0.813953488372093
 40
0.8372093023255813
 40
0.8372093023255813
 40
0.8372093023255813
 40
0.8604651162790697
 40
0.8604651162790697
 40
0.8604651162790697
 40
0.8837209302325582
 40
0.8837209302325582
 40
0.8837209302325582
 40
0.9069767441860465
 40
0.9069767441860465
 40
0.9069767441860465
 40
0.9302325581395349
 40
0.9302325581395349
 40
0.9302325581395349
 40
0.9534883720930233
 40
0.9534883720930233
 40
0.9534883720930233
 40
0.9767441860465116
 40
0.9767441860465116
 40
0.9767441860465116
 40
1.0
 40
1.0
 40
1.0
 40
1.0
 10
-8.026
 20
-20.0602
 30
0.0
 10
-8.4353
 20
-19.5675
 30
0.0
 10
-8.795
 20
-19.1093
 30
0.0
 10
-9.1949
 20
-18.6896
 30
0.0
 10
-9.2415
 20
-18.6405
 30
0.0
 10
-9.6408
 20
-18.7813
 30
0.0
 10
-9.6575
 20
-18.8735
 30
0.0
 10
-9.6575
 20
-18.8735
 30
0.0
 10
-10.7233
 20
-19.9633
 30
0.0
 10
-10.7233
 20
-19.9633
 30
0.0
 10
-10.7233
 20
-19.9633
 30
0.0
 10
-10.7233
 20
-19.9634
 30
0.0
 10
-10.7233
 20
-19.9634
 30
0.0
 10
-10.8693
 20
-20.1127
 30
0.0
 10
-10.9298
 20
-20.4297
 30
0.0
 10
-10.8247
 20
-20.7563
 30
0.0
 10
-10.4215
 20
-22.0019
 30
0.0
 10
-9.9855
 20
-23.2402
 30
0.0
 10
-9.658
 20
-24.5052
 30
0.0
 10
-9.5563
 20
-24.8977
 30
0.0
 10
-9.7519
 20
-25.3709
 30
0.0
 10
-9.8309
 20
-25.8031
 30
0.0
 10
-9.8403
 20
-25.853
 30
0.0
 10
-9.9839
 20
-25.9254
 30
0.0
 10
-10.0429
 20
-25.9091
 30
0.0
 10
-10.143
 20
-25.8803
 30
0.0
 10
-10.2763
 20
-25.8079
 30
0.0
 10
-10.308
 20
-25.7224
 30
0.0
 10
-10.595
 20
-24.9344
 30
0.0
 10
-10.8601
 20
-24.1381
 30
0.0
 10
-11.1382
 20
-23.3469
 30
0.0
 10
-11.3089
 20
-22.8605
 30
0.0
 10
-11.5759
 20
-22.39
 30
0.0
 10
-11.6481
 20
-21.8906
 30
0.0
 10
-11.7537
 20
-21.1634
 30
0.0
 10
-11.7699
 20
-20.4138
 30
0.0
 10
-11.7266
 20
-19.6793
 30
0.0
 10
-11.7087
 20
-19.3823
 30
0.0
 10
-11.4752
 20
-19.0653
 30
0.0
 10
-11.2673
 20
-18.8196
 30
0.0
 10
-10.725
 20
-18.1786
 30
0.0
 10
-10.1601
 20
-17.553
 30
0.0
 10
-9.559
 20
-16.9681
 30
0.0
 10
-9.4512
 20
-16.8629
 30
0.0
 10
-9.0341
 20
-16.8885
 30
0.0
 10
-8.9184
 20
-17.0075
 30
0.0
 10
-8.229
 20
-17.7171
 30
0.0
 10
-7.5845
 20
-18.471
 30
0.0
 10
-6.9272
 20
-19.2127
 30
0.0
 10
-6.5853
 20
-19.5987
 30
0.0
 10
-6.1549
 20
-19.5642
 30
0.0
 10
-5.7118
 20
-19.4797
 30
0.0
 10
-5.2798
 20
-19.3974
 30
0.0
 10
-4.8933
 20
-19.2973
 30
0.0
 10
-4.8282
 20
-18.7351
 30
0.0
 10
-4.8021
 20
-18.5094
 30
0.0
 10
-4.6219
 20
-18.273
 30
0.0
 10
-4.4512
 20
-18.1034
 30
0.0
 10
-4.3628
 20
-18.0156
 30
0.0
 10
-4.1304
 20
-18.0279
 30
0.0
 10
-3.9831
 20
-18.0673
 30
0.0
 10
-3.9257
 20
-18.0823
 30
0.0
 10
-3.8924
 20
-18.3014
 30
0.0
 10
-3.9002
 20
-18.4243
 30
0.0
 10
-3.9541
 20
-19.2706
 30
0.0
 10
-3.6905
 20
-19.5398
 30
0.0
 10
-2.8071
 20
-19.518
 30
0.0
 10
-2.1509
 20
-19.5019
 30
0.0
 10
-1.8401
 20
-19.2501
 30
0.0
 10
-1.6137
 20
-18.6445
 30
0.0
 10
-1.5304
 20
-18.4215
 30
0.0
 10
-1.3634
 20
-18.2041
 30
0.0
 10
-1.1784
 20
-18.0545
 30
0.0
 10
-1.0605
 20
-17.96
 30
0.0
 10
-0.8326
 20
-17.9611
 30
0.0
 10
-0.6669
 20
-17.9905
 30
0.0
 10
-0.6185
 20
-17.9995
 30
0.0
 10
-0.5864
 20
-18.2536
 30
0.0
 10
-0.5924
 20
-18.3931
 30
0.0
 10
-0.6308
 20
-19.2367
 30
0.0
 10
-0.5429
 20
-19.3757
 30
0.0
 10
0.28
 20
-19.4274
 30
0.0
 10
0.9312
 20
-19.4692
 30
0.0
 10
1.5867
 20
-19.4424
 30
0.0
 10
2.24
 20
-19.4329
 30
0.0
 10
4.1239
 20
-19.4074
 30
0.0
 10
6.0067
 20
-19.3539
 30
0.0
 10
7.89
 20
-19.3634
 30
0.0
 10
8.2693
 20
-19.3651
 30
0.0
 10
8.7158
 20
-19.5013
 30
0.0
 10
8.7246
 20
-20.0697
 30
0.0
 10
8.7312
 20
-20.4795
 30
0.0
 10
8.8014
 20
-20.8893
 30
0.0
 10
8.7913
 20
-21.2985
 30
0.0
 10
8.7886
 20
-21.4186
 30
0.0
 10
8.6296
 20
-21.5849
 30
0.0
 10
8.5044
 20
-21.6348
 30
0.0
 10
8.4299
 20
-21.6649
 30
0.0
 10
8.2838
 20
-21.5031
 30
0.0
 10
8.1652
 20
-21.4358
 30
0.0
 10
7.9589
 20
-21.3196
 30
0.0
 10
7.7532
 20
-21.1223
 30
0.0
 10
7.5403
 20
-21.1122
 30
0.0
 10
6.7295
 20
-21.0739
 30
0.0
 10
5.916
 20
-21.0966
 30
0.0
 10
5.1037
 20
-21.0972
 30
0.0
 10
3.4461
 20
-21.0977
 30
0.0
 10
1.788
 20
-21.0855
 30
0.0
 10
0.1309
 20
-21.1078
 30
0.0
 10
-0.4734
 20
-21.1155
 30
0.0
 10
-0.9659
 20
-20.9421
 30
0.0
 10
-1.3458
 20
-20.4694
 30
0.0
 10
-2.0574
 20
-21.3513
 30
0.0
 10
-3.6355
 20
-21.4386
 30
0.0
 10
-4.5519
 20
-20.628
 30
0.0
 10
-5.3988
 20
-21.4252
 30
0.0
 10
-6.3718
 20
-21.2774
 30
0.0
 10
-7.3883
 20
-21.0222
 30
0.0
 10
-7.7741
 20
-22.1315
 30
0.0
 10
-9.1386
 20
-22.097
 30
0.0
 10
-9.8137
 20
-21.2617
 30
0.0
 10
-10.0484
 20
-20.9713
 30
0.0
 10
-10.2308
 20
-20.6384
 30
0.0
 10
-10.4163
 20
-20.305
 30
0.0
 10
-10.4163
 20
-20.305
 30
0.0
 10
-9.5432
 20
-19.4236
 30
0.0
 10
-9.5432
 20
-19.4236
 30
0.0
 10
-9.2754
 20
-19.882
 30
0.0
 10
-8.6218
 20
-20.2227
 30
0.0
 10
-8.026
 20
-20.0602
 30
0.0
  0
SPLINE
  5
6F
330
1F
100
AcDbEntity
  8
Layer 1
 62
   250
370
    18
100
AcDbSpline
210
0.0
220
0.0
230
1.0
 70
    11
 71
     3
 72
   104
 73
   100
 74
     0
 42
0.0000000001
 43
0.0000000001
 40
0.0
 40
0.0
 40
0.0
 40
0.0
 40
0.0303030303030303
 40
0.0303030303030303
 40
0.0303030303030303
 40
0.0606060606060606
 40
0.0606060606060606
 40
0.0606060606060606
 40
0.0909090909090909
 40
0.0909090909090909
 40
0.0909090909090909
 40
0.1212121212121212
 40
0.1212121212121212
 40
0.1212121212121212
 40
0.1515151515151515
 40
0.1515151515151515
 40
0.1515151515151515
 40
0.1818181818181818
 40
0.1818181818181818
 40
0.1818181818181818
 40
0.2121212121212121
 40
0.2121212121212121
 40
0.2121212121212121
 40
0.2424242424242424
 40
0.2424242424242424
 40
0.2424242424242424
 40
0.2727272727272727
 40
0.2727272727272727
 40
0.2727272727272727
 40
0.303030303030303
 40
0.303030303030303
 40
0.303030303030303
 40
0.3333333333333334
 40
0.3333333333333334
 40
0.3333333333333334
 40
0.3636363636363636
 40
0.3636363636363636
 40
0.3636363636363636
 40
0.3939393939393939
 40
0.3939393939393939
 40
0.3939393939393939
 40
0.4242424242424243
 40
0.4242424242424243
 40
0.4242424242424243
 40
0.4545454545454546
 40
0.4545454545454546
 40
0.4545454545454546
 40
0.4848484848484849
 40
0.4848484848484849
 40
0.4848484848484849
 40
0.5151515151515151
 40
0.5151515151515151
 40
0.5151515151515151
 40
0.5454545454545454
 40
0.5454545454545454
 40
0.5454545454545454
 40
0.5757575757575758
 40
0.5757575757575758
 40
0.5757575757575758
 40
0.6060606060606061
 40
0.6060606060606061
 40
0.6060606060606061
 40
0.6363636363636364
 40
0.6363636363636364
 40
0.6363636363636364
 40
0.6666666666666667
 40
0.6666666666666667
 40
0.6666666666666667
 40
0.696969696969697
 40
0.696969696969697
 40
0.696969696969697
 40
0.7272727272727273
 40
0.7272727272727273
 40
0.7272727272727273
 40
0.7575757575757576
 40
0.7575757575757576
 40
0.7575757575757576
 40
0.7878787878787878
 40
0.7878787878787878
 40
0.7878787878787878
 40
0.8181818181818182
 40
0.8181818181818182
 40
0.8181818181818182
 40
0.8484848484848485
 40
0.8484848484848485
 40
0.8484848484848485
 40
0.8787878787878788
 40
0.8787878787878788
 40
0.8787878787878788
 40
0.9090909090909092
 40
0.9090909090909092
 40
0.9090909090909092
 40
0.9393939393939394
 40
0.9393939393939394
 40
0.9393939393939394
 40
0.9696969696969697
 40
0.9696969696969697
 40
0.9696969696969697
 40
1.0
 40
1.0
 40
1.0
 40
1.0
 10
8.9095
 20
-6.9719
 30
0.0
 10
8.7067
 20
-6.7167
 30
0.0
 10
8.492
 20
-6.4692
 30
0.0
 10
8.3035
 20
-6.2041
 30
0.0
 10
8.0566
 20
-5.857
 30
0.0
 10
7.7085
 20
-5.8165
 30
0.0
 10
7.3688
 20
-5.9444
 30
0.0
 10
7.1902
 20
-6.0123
 30
0.0
 10
6.9913
 20
-6.2347
 30
0.0
 10
6.9601
 20
-6.4149
 30
0.0
 10
6.9394
 20
-6.5332
 30
0.0
 10
7.1785
 20
-6.7868
 30
0.0
 10
7.3415
 20
-6.8302
 30
0.0
 10
7.6128
 20
-6.9033
 30
0.0
 10
7.8897
 20
-6.9542
 30
0.0
 10
8.1679
 20
-6.9999
 30
0.0
 10
8.1679
 20
-6.9999
 30
0.0
 10
7.9792
 20
-8.4166
 30
0.0
 10
7.9792
 20
-8.4166
 30
0.0
 10
7.3184
 20
-8.3922
 30
0.0
 10
6.7785
 20
-8.1066
 30
0.0
 10
6.4046
 20
-7.4923
 30
0.0
 10
5.8307
 20
-6.551
 30
0.0
 10
6.7199
 20
-4.7439
 30
0.0
 10
7.8136
 20
-4.716
 30
0.0
 10
8.1689
 20
-4.7072
 30
0.0
 10
8.6594
 20
-4.9402
 30
0.0
 10
8.8657
 20
-5.2244
 30
0.0
 10
9.2148
 20
-5.7059
 30
0.0
 10
9.3873
 20
-6.3159
 30
0.0
 10
9.6759
 20
-6.9659
 30
0.0
 10
10.9986
 20
-7.0508
 30
0.0
 10
12.376
 20
-6.729
 30
0.0
 10
13.6921
 20
-6.1179
 30
0.0
 10
13.6921
 20
-6.1179
 30
0.0
 10
13.7032
 20
-5.9232
 30
0.0
 10
13.7032
 20
-5.9232
 30
0.0
 10
13.0643
 20
-5.8203
 30
0.0
 10
12.4277
 20
-5.6742
 30
0.0
 10
11.785
 20
-5.643
 30
0.0
 10
11.6136
 20
-5.6346
 30
0.0
 10
11.4229
 20
-5.9756
 30
0.0
 10
11.2461
 20
-6.1601
 30
0.0
 10
11.1365
 20
-6.2736
 30
0.0
 10
11.0359
 20
-6.3953
 30
0.0
 10
10.9308
 20
-6.5138
 30
0.0
 10
10.8334
 20
-6.4065
 30
0.0
 10
10.7379
 20
-6.2985
 30
0.0
 10
10.6389
 20
-6.1929
 30
0.0
 10
10.2568
 20
-5.7864
 30
0.0
 10
10.2491
 20
-5.3555
 30
0.0
 10
10.5899
 20
-4.9329
 30
0.0
 10
10.977
 20
-4.4544
 30
0.0
 10
11.4718
 20
-4.1775
 30
0.0
 10
12.1079
 20
-4.2965
 30
0.0
 10
12.5243
 20
-4.3748
 30
0.0
 10
12.9319
 20
-4.5017
 30
0.0
 10
13.3451
 20
-4.5967
 30
0.0
 10
14.028
 20
-4.7528
 30
0.0
 10
14.7174
 20
-4.8841
 30
0.0
 10
15.393
 20
-5.0664
 30
0.0
 10
15.556
 20
-5.1098
 30
0.0
 10
15.7678
 20
-5.2939
 30
0.0
 10
15.7956
 20
-5.4435
 30
0.0
 10
15.8451
 20
-5.7048
 30
0.0
 10
15.9097
 20
-5.9783
 30
0.0
 10
15.5043
 20
-6.1724
 30
0.0
 10
14.7841
 20
-6.516
 30
0.0
 10
14.0752
 20
-6.9259
 30
0.0
 10
13.4535
 20
-7.4224
 30
0.0
 10
12.5538
 20
-8.1408
 30
0.0
 10
11.5518
 20
-8.4221
 30
0.0
 10
10.4398
 20
-8.3927
 30
0.0
 10
9.9539
 20
-8.3793
 30
0.0
 10
9.6497
 20
-8.4155
 30
0.0
 10
9.43
 20
-8.9943
 30
0.0
 10
9.197
 20
-9.6071
 30
0.0
 10
8.7144
 20
-10.147
 30
0.0
 10
8.2634
 20
-10.6491
 30
0.0
 10
7.7892
 20
-11.1784
 30
0.0
 10
7.1253
 20
-11.0805
 30
0.0
 10
6.5214
 20
-10.9142
 30
0.0
 10
6.1222
 20
-10.8042
 30
0.0
 10
5.7489
 20
-10.5884
 30
0.0
 10
5.3781
 20
-10.3927
 30
0.0
 10
5.2863
 20
-10.3449
 30
0.0
 10
5.2502
 20
-10.1909
 30
0.0
 10
5.1891
 20
-10.0858
 30
0.0
 10
5.3092
 20
-10.0402
 30
0.0
 10
5.4471
 20
-9.929
 30
0.0
 10
5.5466
 20
-9.9569
 30
0.0
 10
6.8989
 20
-10.3333
 30
0.0
 10
7.7892
 20
-9.5882
 30
0.0
 10
8.6222
 20
-8.7052
 30
0.0
 10
8.6732
 20
-8.6511
 30
0.0
 10
8.6843
 20
-8.5498
 30
0.0
 10
8.6961
 20
-8.4666
 30
0.0
 10
8.6961
 20
-8.4666
 30
0.0
 10
8.9095
 20
-6.9719
 30
0.0
 10
8.9095
 20
-6.9719
 30
0.0
  0
SPLINE
  5
70
330
1F
100
AcDbEntity
  8
Layer 1
 62
   250
370
    18
100
AcDbSpline
210
0.0
220
0.0
230
1.0
 70
    11
 71
     3
 72
   122
 73
   118
 74
     0
 42
0.0000000001
 43
0.0000000001
 40
0.0
 40
0.0
 40
0.0
 40
0.0
 40
0.0256410256410256
 40
0.0256410256410256
 40
0.0256410256410256
 40
0.0512820512820513
 40
0.0512820512820513
 40
0.0512820512820513
 40
0.0769230769230769
 40
0.0769230769230769
 40
0.0769230769230769
 40
0.1025641025641026
 40
0.1025641025641026
 40
0.1025641025641026
 40
0.1282051282051282
 40
0.1282051282051282
 40
0.1282051282051282
 40
0.1538461538461539
 40
0.1538461538461539
 40
0.1538461538461539
 40
0.1794871794871795
 40
0.1794871794871795
 40
0.1794871794871795
 40
0.2051282051282051
 40
0.2051282051282051
 40
0.2051282051282051
 40
0.2307692307692308
 40
0.2307692307692308
 40
0.2307692307692308
 40
0.2564102564102564
 40
0.2564102564102564
 40
0.2564102564102564
 40
0.282051282051282
 40
0.282051282051282
 40
0.282051282051282
 40
0.3076923076923077
 40
0.3076923076923077
 40
0.3076923076923077
 40
0.3333333333333333
 40
0.3333333333333333
 40
0.3333333333333333
 40
0.358974358974359
 40
0.358974358974359
 40
0.358974358974359
 40
0.3846153846153846
 40
0.3846153846153846
 40
0.3846153846153846
 40
0.4102564102564102
 40
0.4102564102564102
 40
0.4102564102564102
 40
0.4358974358974359
 40
0.4358974358974359
 40
0.4358974358974359
 40
0.4615384615384615
 40
0.4615384615384615
 40
0.4615384615384615
 40
0.4871794871794872
 40
0.4871794871794872
 40
0.4871794871794872
 40
0.5128205128205128
 40
0.5128205128205128
 40
0.5128205128205128
 40
0.5384615384615384
 40
0.5384615384615384
 40
0.5384615384615384
 40
0.5641025641025641
 40
0.5641025641025641
 40
0.5641025641025641
 40
0.5897435897435898
 40
0.5897435897435898
 40
0.5897435897435898
 40
0.6153846153846154
 40
0.6153846153846154
 40
0.6153846153846154
 40
0.641025641025641
 40
0.641025641025641
 40
0.641025641025641
 40
0.6666666666666666
 40
0.6666666666666666
 40
0.6666666666666666
 40
0.6923076923076923
 40
0.6923076923076923
 40
0.6923076923076923
 40
0.717948717948718
 40
0.717948717948718
 40
0.717948717948718
 40
0.7435897435897436
 40
0.7435897435897436
 40
0.7435897435897436
 40
0.7692307692307692
 40
0.7692307692307692
 40
0.7692307692307692
 40
0.7948717948717948
 40
0.7948717948717948
 40
0.7948717948717948
 40
0.8205128205128205
 40
0.8205128205128205
 40
0.8205128205128205
 40
0.8461538461538461
 40
0.8461538461538461
 40
0.8461538461538461
 40
0.8717948717948718
 40
0.8717948717948718
 40
0.8717948717948718
 40
0.8974358974358974
 40
0.8974358974358974
 40
0.8974358974358974
 40
0.923076923076923
 40
0.923076923076923
 40
0.923076923076923
 40
0.9487179487179487
 40
0.9487179487179487
 40
0.9487179487179487
 40
0.9743589743589743
 40
0.9743589743589743
 40
0.9743589743589743
 40
1.0
 40
1.0
 40
1.0
 40
1.0
 10
0.9911
 20
-6.0708
 30
0.0
 10
0.8677
 20
-6.4612
 30
0.0
 10
0.7531
 20
-6.8231
 30
0.0
 10
0.6241
 20
-7.2302
 30
0.0
 10
0.6241
 20
-7.2302
 30
0.0
 10
0.0403
 20
-8.3347
 30
0.0
 10
0.0403
 20
-8.3347
 30
0.0
 10
-0.1003
 20
-8.3176
 30
0.0
 10
-0.2409
 20
-8.3023
 30
0.0
 10
-0.3818
 20
-8.2905
 30
0.0
 10
-0.6581
 20
-8.2678
 30
0.0
 10
-0.9439
 20
-8.399
 30
0.0
 10
-1.229
 20
-8.428
 30
0.0
 10
-1.903
 20
-8.4964
 30
0.0
 10
-2.5796
 20
-8.5358
 30
0.0
 10
-3.2525
 20
-8.6119
 30
0.0
 10
-3.3515
 20
-8.6231
 30
0.0
 10
-3.52
 20
-8.7782
 30
0.0
 10
-3.5134
 20
-8.8521
 30
0.0
 10
-3.3988
 20
-10.0349
 30
0.0
 10
-4.6049
 20
-11.7914
 30
0.0
 10
-6.2373
 20
-11.083
 30
0.0
 10
-6.5426
 20
-10.9506
 30
0.0
 10
-6.859
 20
-10.8378
 30
0.0
 10
-7.1482
 20
-10.6754
 30
0.0
 10
-7.2538
 20
-10.6154
 30
0.0
 10
-7.2943
 20
-10.4403
 30
0.0
 10
-7.3649
 20
-10.318
 30
0.0
 10
-7.2589
 20
-10.279
 30
0.0
 10
-7.1399
 20
-10.186
 30
0.0
 10
-7.0481
 20
-10.2084
 30
0.0
 10
-5.866
 20
-10.4947
 30
0.0
 10
-5.1348
 20
-9.7758
 30
0.0
 10
-4.5002
 20
-8.9878
 30
0.0
 10
-4.3212
 20
-8.7654
 30
0.0
 10
-4.4469
 20
-8.2872
 30
0.0
 10
-4.4619
 20
-7.9269
 30
0.0
 10
-4.4659
 20
-7.8407
 30
0.0
 10
-4.5809
 20
-7.754
 30
0.0
 10
-4.6537
 20
-7.6756
 30
0.0
 10
-5.137
 20
-7.1634
 30
0.0
 10
-5.0464
 20
-6.6152
 30
0.0
 10
-4.7415
 20
-6.0659
 30
0.0
 10
-4.6938
 20
-5.979
 30
0.0
 10
-4.5464
 20
-5.8741
 30
0.0
 10
-4.4736
 20
-5.8917
 30
0.0
 10
-4.3446
 20
-5.9234
 30
0.0
 10
-4.181
 20
-6.018
 30
0.0
 10
-4.1293
 20
-6.1308
 30
0.0
 10
-3.6688
 20
-7.1308
 30
0.0
 10
-3.0793
 20
-7.2718
 30
0.0
 10
-2.1268
 20
-7.1377
 30
0.0
 10
-2.1268
 20
-7.1377
 30
0.0
 10
-2.1266
 20
-7.1377
 30
0.0
 10
-2.1266
 20
-7.1377
 30
0.0
 10
-2.0488
 20
-7.1267
 30
0.0
 10
-1.9685
 20
-7.1139
 30
0.0
 10
-1.8858
 20
-7.0996
 30
0.0
 10
-1.8858
 20
-7.0996
 30
0.0
 10
-1.9017
 20
-7.0687
 30
0.0
 10
-1.9017
 20
-7.0687
 30
0.0
 10
-1.9017
 20
-7.0687
 30
0.0
 10
-0.7966
 20
-6.7296
 30
0.0
 10
-0.7966
 20
-6.7296
 30
0.0
 10
-0.7054
 20
-6.7715
 30
0.0
 10
-0.6125
 20
-6.7979
 30
0.0
 10
-0.5281
 20
-6.8004
 30
0.0
 10
-0.1282
 20
-6.8125
 30
0.0
 10
0.2905
 20
-6.4867
 30
0.0
 10
0.2865
 20
-6.1649
 30
0.0
 10
0.2832
 20
-5.8723
 30
0.0
 10
-0.2194
 20
-5.2863
 30
0.0
 10
-0.4669
 20
-5.2863
 30
0.0
 10
-0.8178
 20
-5.2857
 30
0.0
 10
-1.302
 20
-5.7927
 30
0.0
 10
-1.3086
 20
-6.1682
 30
0.0
 10
-1.3097
 20
-6.2248
 30
0.0
 10
-1.2875
 20
-6.2873
 30
0.0
 10
-1.2489
 20
-6.3504
 30
0.0
 10
-1.2489
 20
-6.3504
 30
0.0
 10
-2.0453
 20
-6.595
 30
0.0
 10
-2.0453
 20
-6.595
 30
0.0
 10
-2.1537
 20
-5.8611
 30
0.0
 10
-1.8574
 20
-4.9367
 30
0.0
 10
-1.3275
 20
-4.4163
 30
0.0
 10
-1.1357
 20
-4.2277
 30
0.0
 10
-0.9738
 20
-3.968
 30
0.0
 10
-0.8966
 20
-3.7117
 30
0.0
 10
-0.7899
 20
-3.3564
 30
0.0
 10
-0.6203
 20
-3.2775
 30
0.0
 10
-0.3418
 20
-3.482
 30
0.0
 10
0.5463
 20
-4.136
 30
0.0
 10
1.4748
 20
-4.7474
 30
0.0
 10
2.2916
 20
-5.4814
 30
0.0
 10
3.2981
 20
-6.3866
 30
0.0
 10
3.2113
 20
-7.2491
 30
0.0
 10
2.4873
 20
-8.2644
 30
0.0
 10
2.3635
 20
-8.439
 30
0.0
 10
2.0313
 20
-8.5675
 30
0.0
 10
1.8074
 20
-8.5518
 30
0.0
 10
1.363
 20
-8.5217
 30
0.0
 10
0.9214
 20
-8.4548
 30
0.0
 10
0.4798
 20
-8.393
 30
0.0
 10
0.4798
 20
-8.393
 30
0.0
 10
0.9881
 20
-7.2703
 30
0.0
 10
0.9881
 20
-7.2703
 30
0.0
 10
1.2596
 20
-7.301
 30
0.0
 10
1.5189
 20
-7.3297
 30
0.0
 10
1.779
 20
-7.3398
 30
0.0
 10
1.8919
 20
-7.3435
 30
0.0
 10
2.0709
 20
-7.263
 30
0.0
 10
2.1059
 20
-7.1757
 30
0.0
 10
2.1387
 20
-7.0928
 30
0.0
 10
2.0548
 20
-6.915
 30
0.0
 10
1.9691
 20
-6.8398
 30
0.0
 10
1.6644
 20
-6.5763
 30
0.0
 10
1.3364
 20
-6.3389
 30
0.0
 10
0.9911
 20
-6.0708
 30
0.0
  0
SPLINE
  5
71
330
1F
100
AcDbEntity
  8
Layer 1
 62
   250
370
    18
100
AcDbSpline
210
0.0
220
0.0
230
1.0
 70
    11
 71
     3
 72
    65
 73
    61
 74
     0
 42
0.0000000001
 43
0.0000000001
 40
0.0
 40
0.0
 40
0.0
 40
0.0
 40
0.05
 40
0.05
 40
0.05
 40
0.1
 40
0.1
 40
0.1
 40
0.15
 40
0.15
 40
0.15
 40
0.2
 40
0.2
 40
0.2
 40
0.25
 40
0.25
 40
0.25
 40
0.3
 40
0.3
 40
0.3
 40
0.35
 40
0.35
 40
0.35
 40
0.4
 40
0.4
 40
0.4
 40
0.45
 40
0.45
 40
0.45
 40
0.5
 40
0.5
 40
0.5
 40
0.55
 40
0.55
 40
0.55
 40
0.6000000000000001
 40
0.6000000000000001
 40
0.6000000000000001
 40
0.65
 40
0.65
 40
0.65
 40
0.7000000000000001
 40
0.7000000000000001
 40
0.7000000000000001
 40
0.75
 40
0.75
 40
0.75
 40
0.8
 40
0.8
 40
0.8
 40
0.8500000000000001
 40
0.8500000000000001
 40
0.8500000000000001
 40
0.9
 40
0.9
 40
0.9
 40
0.9500000000000001
 40
0.9500000000000001
 40
0.9500000000000001
 40
1.0
 40
1.0
 40
1.0
 40
1.0
 10
-11.9474
 20
-6.1497
 30
0.0
 10
-12.8209
 20
-6.7447
 30
0.0
 10
-13.6522
 20
-7.3107
 30
0.0
 10
-14.5563
 20
-7.9268
 30
0.0
 10
-14.3273
 20
-8.0247
 30
0.0
 10
-14.057
 20
-8.237
 30
0.0
 10
-13.7851
 20
-8.2387
 30
0.0
 10
-12.0748
 20
-8.2498
 30
0.0
 10
-10.3632
 20
-8.222
 30
0.0
 10
-8.6529
 20
-8.1886
 30
0.0
 10
-7.8427
 20
-8.1725
 30
0.0
 10
-7.033
 20
-8.1197
 30
0.0
 10
-6.2235
 20
-8.0769
 30
0.0
 10
-5.9332
 20
-8.0619
 30
0.0
 10
-5.6441
 20
-8.0113
 30
0.0
 10
-5.3544
 20
-8.0096
 30
0.0
 10
-5.2554
 20
-8.0091
 30
0.0
 10
-5.1265
 20
-8.0885
 30
0.0
 10
-5.0691
 20
-8.1708
 30
0.0
 10
-5.0392
 20
-8.2143
 30
0.0
 10
-5.112
 20
-8.3644
 30
0.0
 10
-5.1749
 20
-8.4317
 30
0.0
 10
-5.4967
 20
-8.7786
 30
0.0
 10
-5.8221
 20
-9.1228
 30
0.0
 10
-6.1663
 20
-9.447
 30
0.0
 10
-6.2541
 20
-9.5298
 30
0.0
 10
-6.4136
 20
-9.566
 30
0.0
 10
-6.5432
 20
-9.572
 30
0.0
 10
-8.8797
 20
-9.6772
 30
0.0
 10
-11.2167
 20
-9.7917
 30
0.0
 10
-13.555
 20
-9.8595
 30
0.0
 10
-14.0119
 20
-9.8729
 30
0.0
 10
-14.4912
 20
-9.7489
 30
0.0
 10
-14.9305
 20
-9.601
 30
0.0
 10
-15.8253
 20
-9.299
 30
0.0
 10
-15.9987
 20
-8.5551
 30
0.0
 10
-15.4316
 20
-7.6382
 30
0.0
 10
-14.9411
 20
-6.8448
 30
0.0
 10
-14.2416
 20
-6.3098
 30
0.0
 10
-13.3926
 20
-5.9394
 30
0.0
 10
-13.0044
 20
-5.7698
 30
0.0
 10
-12.6625
 20
-5.5474
 30
0.0
 10
-12.4483
 20
-5.1232
 30
0.0
 10
-12.2516
 20
-4.7328
 30
0.0
 10
-11.8779
 20
-4.4403
 30
0.0
 10
-11.3953
 20
-4.5949
 30
0.0
 10
-10.9659
 20
-4.7317
 30
0.0
 10
-10.813
 20
-5.0953
 30
0.0
 10
-10.8715
 20
-5.5425
 30
0.0
 10
-10.9292
 20
-5.9889
 30
0.0
 10
-10.9666
 20
-6.4387
 30
0.0
 10
-11.0438
 20
-6.8813
 30
0.0
 10
-11.0622
 20
-6.9871
 30
0.0
 10
-11.2046
 20
-7.1483
 30
0.0
 10
-11.2868
 20
-7.1466
 30
0.0
 10
-11.3891
 20
-7.1444
 30
0.0
 10
-11.5215
 20
-7.0181
 30
0.0
 10
-11.5816
 20
-6.9119
 30
0.0
 10
-11.7299
 20
-6.6501
 30
0.0
 10
-11.8445
 20
-6.3687
 30
0.0
 10
-11.9474
 20
-6.1497
 30
0.0
  0
SPLINE
  5
72
330
1F
100
AcDbEntity
  8
Layer 1
 62
   250
370
    18
100
AcDbSpline
210
0.0
220
0.0
230
1.0
 70
    11
 71
     3
 72
    38
 73
    34
 74
     0
 42
0.0000000001
 43
0.0000000001
 40
0.0
 40
0.0
 40
0.0
 40
0.0
 40
0.0909090909090909
 40
0.0909090909090909
 40
0.0909090909090909
 40
0.1818181818181818
 40
0.1818181818181818
 40
0.1818181818181818
 40
0.2727272727272727
 40
0.2727272727272727
 40
0.2727272727272727
 40
0.3636363636363636
 40
0.3636363636363636
 40
0.3636363636363636
 40
0.4545454545454546
 40
0.4545454545454546
 40
0.4545454545454546
 40
0.5454545454545454
 40
0.5454545454545454
 40
0.5454545454545454
 40
0.6363636363636364
 40
0.6363636363636364
 40
0.6363636363636364
 40
0.7272727272727273
 40
0.7272727272727273
 40
0.7272727272727273
 40
0.8181818181818182
 40
0.8181818181818182
 40
0.8181818181818182
 40
0.9090909090909092
 40
0.9090909090909092
 40
0.9090909090909092
 40
1.0
 40
1.0
 40
1.0
 40
1.0
 10
5.0474
 20
-5.8217
 30
0.0
 10
4.9273
 20
-6.4906
 30
0.0
 10
5.0608
 20
-7.2167
 30
0.0
 10
4.8128
 20
-7.8346
 30
0.0
 10
4.6137
 20
-8.3294
 30
0.0
 10
4.1467
 20
-8.7192
 30
0.0
 10
3.7841
 20
-9.1435
 30
0.0
 10
3.7324
 20
-9.2041
 30
0.0
 10
3.5996
 20
-9.1936
 30
0.0
 10
3.5039
 20
-9.2158
 30
0.0
 10
3.5122
 20
-9.1252
 30
0.0
 10
3.4916
 20
-9.0167
 30
0.0
 10
3.534
 20
-8.9455
 30
0.0
 10
4.0827
 20
-8.0152
 30
0.0
 10
4.0888
 20
-7.0033
 30
0.0
 10
4.0155
 20
-5.9723
 30
0.0
 10
3.9238
 20
-4.6912
 30
0.0
 10
3.7837
 20
-3.4074
 30
0.0
 10
3.8097
 20
-2.1279
 30
0.0
 10
3.8187
 20
-1.6925
 30
0.0
 10
4.2245
 20
-1.2299
 30
0.0
 10
4.5371
 20
-0.8529
 30
0.0
 10
4.6693
 20
-0.6932
 30
0.0
 10
4.9262
 20
-0.8417
 30
0.0
 10
4.9357
 20
-1.1459
 30
0.0
 10
4.9658
 20
-2.138
 30
0.0
 10
5.0164
 20
-3.1294
 30
0.0
 10
5.0448
 20
-4.1213
 30
0.0
 10
5.0602
 20
-4.6879
 30
0.0
 10
5.0474
 20
-5.255
 30
0.0
 10
5.0474
 20
-5.8217
 30
0.0
 10
5.0998
 20
-5.8284
 30
0.0
 10
4.9953
 20
-5.8155
 30
0.0
 10
5.0474
 20
-5.8217
 30
0.0
  0
SPLINE
  5
73
330
1F
100
AcDbEntity
  8
Layer 1
 62
   250
370
    18
100
AcDbSpline
210
0.0
220
0.0
230
1.0
 70
    11
 71
     3
 72
    23
 73
    19
 74
     0
 42
0.0000000001
 43
0.0000000001
 40
0.0
 40
0.0
 40
0.0
 40
0.0
 40
0.1666666666666667
 40
0.1666666666666667
 40
0.1666666666666667
 40
0.3333333333333333
 40
0.3333333333333333
 40
0.3333333333333333
 40
0.5
 40
0.5
 40
0.5
 40
0.6666666666666666
 40
0.6666666666666666
 40
0.6666666666666666
 40
0.8333333333333333
 40
0.8333333333333333
 40
0.8333333333333333
 40
1.0
 40
1.0
 40
1.0
 40
1.0
 10
5.5584
 20
19.1125
 30
0.0
 10
5.5023
 20
19.2994
 30
0.0
 10
5.3944
 20
19.4595
 30
0.0
 10
5.4339
 20
19.5618
 30
0.0
 10
5.7463
 20
20.3698
 30
0.0
 10
6.036
 20
21.1927
 30
0.0
 10
6.4348
 20
21.9584
 30
0.0
 10
6.7923
 20
22.645
 30
0.0
 10
6.9764
 20
22.6267
 30
0.0
 10
7.5723
 20
22.0706
 30
0.0
 10
8.0879
 20
21.5908
 30
0.0
 10
8.1033
 20
21.5759
 30
0.0
 10
7.6135
 20
21.0592
 30
0.0
 10
7.0613
 20
20.4782
 30
0.0
 10
6.4781
 20
19.9261
 30
0.0
 10
5.9049
 20
19.365
 30
0.0
 10
5.8303
 20
19.2921
 30
0.0
 10
5.7353
 20
19.2398
 30
0.0
 10
5.5584
 20
19.1125
 30
0.0
  0
SPLINE
  5
74
330
1F
100
AcDbEntity
  8
Layer 1
 62
   250
370
    18
100
AcDbSpline
210
0.0
220
0.0
230
1.0
 70
    11
 71
     3
 72
    44
 73
    40
 74
     0
 42
0.0000000001
 43
0.0000000001
 40
0.0
 40
0.0
 40
0.0
 40
0.0
 40
0.0769230769230769
 40
0.0769230769230769
 40
0.0769230769230769
 40
0.1538461538461539
 40
0.1538461538461539
 40
0.1538461538461539
 40
0.2307692307692308
 40
0.2307692307692308
 40
0.2307692307692308
 40
0.3076923076923077
 40
0.3076923076923077
 40
0.3076923076923077
 40
0.3846153846153846
 40
0.3846153846153846
 40
0.3846153846153846
 40
0.4615384615384616
 40
0.4615384615384616
 40
0.4615384615384616
 40
0.5384615384615385
 40
0.5384615384615385
 40
0.5384615384615385
 40
0.6153846153846154
 40
0.6153846153846154
 40
0.6153846153846154
 40
0.6923076923076923
 40
0.6923076923076923
 40
0.6923076923076923
 40
0.7692307692307693
 40
0.7692307692307693
 40
0.7692307692307693
 40
0.8461538461538463
 40
0.8461538461538463
 40
0.8461538461538463
 40
0.9230769230769231
 40
0.9230769230769231
 40
0.9230769230769231
 40
1.0
 40
1.0
 40
1.0
 40
1.0
 10
4.9502
 20
-17.4027
 30
0.0
 10
4.8429
 20
-17.6745
 30
0.0
 10
4.7973
 20
-17.8481
 30
0.0
 10
4.7095
 20
-17.9959
 30
0.0
 10
4.5509
 20
-18.2645
 30
0.0
 10
4.3453
 20
-18.2801
 30
0.0
 10
4.1095
 20
-18.0716
 30
0.0
 10
3.8831
 20
-17.8709
 30
0.0
 10
3.6435
 20
-17.6846
 30
0.0
 10
3.4117
 20
-17.4895
 30
0.0
 10
3.366
 20
-17.451
 30
0.0
 10
3.2848
 20
-17.3789
 30
0.0
 10
3.2943
 20
-17.3604
 30
0.0
 10
3.4423
 20
-17.0724
 30
0.0
 10
3.5824
 20
-16.7761
 30
0.0
 10
3.7742
 20
-16.5186
 30
0.0
 10
3.8231
 20
-16.453
 30
0.0
 10
4.05
 20
-16.497
 30
0.0
 10
4.1867
 20
-16.5291
 30
0.0
 10
4.2846
 20
-16.552
 30
0.0
 10
4.3864
 20
-16.622
 30
0.0
 10
4.4537
 20
-16.6987
 30
0.0
 10
4.8035
 20
-17.0986
 30
0.0
 10
5.0736
 20
-17.1235
 30
0.0
 10
5.3184
 20
-16.587
 30
0.0
 10
5.3595
 20
-16.4964
 30
0.0
 10
5.6319
 20
-16.4585
 30
0.0
 10
5.7815
 20
-16.4853
 30
0.0
 10
5.9361
 20
-16.5124
 30
0.0
 10
6.0817
 20
-16.6354
 30
0.0
 10
6.213
 20
-16.7394
 30
0.0
 10
6.6618
 20
-17.0951
 30
0.0
 10
6.5839
 20
-17.8087
 30
0.0
 10
6.0512
 20
-18.0188
 30
0.0
 10
5.9288
 20
-18.0678
 30
0.0
 10
5.7148
 20
-17.9515
 30
0.0
 10
5.5703
 20
-17.8653
 30
0.0
 10
5.3561
 20
-17.7374
 30
0.0
 10
5.1676
 20
-17.5678
 30
0.0
 10
4.9502
 20
-17.4027
 30
0.0
  0
SPLINE
  5
75
330
1F
100
AcDbEntity
  8
Layer 1
 62
   250
370
    18
100
AcDbSpline
210
0.0
220
0.0
230
1.0
 70
    11
 71
     3
 72
    29
 73
    25
 74
     0
 42
0.0000000001
 43
0.0000000001
 40
0.0
 40
0.0
 40
0.0
 40
0.0
 40
0.125
 40
0.125
 40
0.125
 40
0.25
 40
0.25
 40
0.25
 40
0.375
 40
0.375
 40
0.375
 40
0.5
 40
0.5
 40
0.5
 40
0.625
 40
0.625
 40
0.625
 40
0.75
 40
0.75
 40
0.75
 40
0.875
 40
0.875
 40
0.875
 40
1.0
 40
1.0
 40
1.0
 40
1.0
 10
-5.5738
 20
18.8532
 30
0.0
 10
-5.9709
 20
19.1657
 30
0.0
 10
-6.3846
 20
19.4605
 30
0.0
 10
-6.7604
 20
19.7964
 30
0.0
 10
-7.1297
 20
20.1255
 30
0.0
 10
-7.4599
 20
20.4981
 30
0.0
 10
-7.8103
 20
20.8483
 30
0.0
 10
-8.1321
 20
21.1703
 30
0.0
 10
-8.1127
 20
21.3855
 30
0.0
 10
-7.7223
 20
21.6406
 30
0.0
 10
-7.569
 20
21.7407
 30
0.0
 10
-7.4121
 20
21.8419
 30
0.0
 10
-7.2436
 20
21.9103
 30
0.0
 10
-6.944
 20
22.0315
 30
0.0
 10
-6.7038
 20
22.0183
 30
0.0
 10
-6.5547
 20
21.6474
 30
0.0
 10
-6.245
 20
20.8773
 30
0.0
 10
-5.8958
 20
20.1226
 30
0.0
 10
-5.571
 20
19.3582
 30
0.0
 10
-5.5155
 20
19.2269
 30
0.0
 10
-5.4999
 20
19.079
 30
0.0
 10
-5.466
 20
18.9389
 30
0.0
 10
-5.5021
 20
18.9105
 30
0.0
 10
-5.5382
 20
18.8815
 30
0.0
 10
-5.5738
 20
18.8532
 30
0.0
  0
SPLINE
  5
76
330
1F
100
AcDbEntity
  8
Layer 1
 62
   250
370
    18
100
AcDbSpline
210
0.0
220
0.0
230
1.0
 70
    11
 71
     3
 72
    23
 73
    19
 74
     0
 42
0.0000000001
 43
0.0000000001
 40
0.0
 40
0.0
 40
0.0
 40
0.0
 40
0.1666666666666667
 40
0.1666666666666667
 40
0.1666666666666667
 40
0.3333333333333333
 40
0.3333333333333333
 40
0.3333333333333333
 40
0.5
 40
0.5
 40
0.5
 40
0.6666666666666666
 40
0.6666666666666666
 40
0.6666666666666666
 40
0.8333333333333333
 40
0.8333333333333333
 40
0.8333333333333333
 40
1.0
 40
1.0
 40
1.0
 40
1.0
 10
-0.1737
 20
23.4468
 30
0.0
 10
0.5492
 20
23.4813
 30
0.0
 10
0.6822
 20
23.3878
 30
0.0
 10
0.6077
 20
22.7651
 30
0.0
 10
0.5175
 20
22.0161
 30
0.0
 10
0.3797
 20
21.2721
 30
0.0
 10
0.2434
 20
20.5298
 30
0.0
 10
0.2212
 20
20.4096
 30
0.0
 10
0.096
 20
20.308
 30
0.0
 10
0.0188
 20
20.1984
 30
0.0
 10
-0.0941
 20
20.3085
 30
0.0
 10
-0.2742
 20
20.4015
 30
0.0
 10
-0.3087
 20
20.5326
 30
0.0
 10
-0.4944
 20
21.2394
 30
0.0
 10
-0.6607
 20
21.9521
 30
0.0
 10
-0.8013
 20
22.6701
 30
0.0
 10
-0.946
 20
23.4074
 30
0.0
 10
-0.9293
 20
23.4107
 30
0.0
 10
-0.1737
 20
23.4468
 30
0.0
  0
SPLINE
  5
77
330
1F
100
AcDbEntity
  8
Layer 1
 62
   250
370
    18
100
AcDbSpline
210
0.0
220
0.0
230
1.0
 70
    11
 71
     3
 72
    26
 73
    22
 74
     0
 42
0.0000000001
 43
0.0000000001
 40
0.0
 40
0.0
 40
0.0
 40
0.0
 40
0.1428571428571428
 40
0.1428571428571428
 40
0.1428571428571428
 40
0.2857142857142857
 40
0.2857142857142857
 40
0.2857142857142857
 40
0.4285714285714285
 40
0.4285714285714285
 40
0.4285714285714285
 40
0.5714285714285714
 40
0.5714285714285714
 40
0.5714285714285714
 40
0.7142857142857142
 40
0.7142857142857142
 40
0.7142857142857142
 40
0.8571428571428571
 40
0.8571428571428571
 40
0.8571428571428571
 40
1.0
 40
1.0
 40
1.0
 40
1.0
 10
13.9571
 20
16.9775
 30
0.0
 10
13.8465
 20
16.8513
 30
0.0
 10
13.7915
 20
16.7316
 30
0.0
 10
13.7035
 20
16.6966
 30
0.0
 10
12.8733
 20
16.3658
 30
0.0
 10
12.0388
 20
16.0449
 30
0.0
 10
11.2009
 20
15.7352
 30
0.0
 10
11.1047
 20
15.6997
 30
0.0
 10
10.9789
 20
15.747
 30
0.0
 10
10.8661
 20
15.7558
 30
0.0
 10
10.9034
 20
15.8632
 30
0.0
 10
10.9101
 20
16.0
 30
0.0
 10
10.9811
 20
16.0733
 30
0.0
 10
11.5784
 20
16.6843
 30
0.0
 10
12.1762
 20
17.2961
 30
0.0
 10
12.804
 20
17.8748
 30
0.0
 10
12.9074
 20
17.97
 30
0.0
 10
13.2455
 20
17.9839
 30
0.0
 10
13.3271
 20
17.8966
 30
0.0
 10
13.5695
 20
17.6381
 30
0.0
 10
13.738
 20
17.311
 30
0.0
 10
13.9571
 20
16.9775
 30
0.0
  0
SPLINE
  5
78
330
1F
100
AcDbEntity
  8
Layer 1
 62
   250
370
    18
100
AcDbSpline
210
0.0
220
0.0
230
1.0
 70
    11
 71
     3
 72
    23
 73
    19
 74
     0
 42
0.0000000001
 43
0.0000000001
 40
0.0
 40
0.0
 40
0.0
 40
0.0
 40
0.1666666666666667
 40
0.1666666666666667
 40
0.1666666666666667
 40
0.3333333333333333
 40
0.3333333333333333
 40
0.3333333333333333
 40
0.5
 40
0.5
 40
0.5
 40
0.6666666666666666
 40
0.6666666666666666
 40
0.6666666666666666
 40
0.8333333333333333
 40
0.8333333333333333
 40
0.8333333333333333
 40
1.0
 40
1.0
 40
1.0
 40
1.0
 10
-10.4802
 20
14.9163
 30
0.0
 10
-10.9689
 20
15.091
 30
0.0
 10
-11.3442
 20
15.2339
 30
0.0
 10
-11.7257
 20
15.3596
 30
0.0
 10
-12.2578
 20
15.5358
 30
0.0
 10
-12.7916
 20
15.7099
 30
0.0
 10
-13.3299
 20
15.8655
 30
0.0
 10
-13.6931
 20
15.9706
 30
0.0
 10
-13.7358
 20
16.182
 30
0.0
 10
-13.589
 20
16.4861
 30
0.0
 10
-13.2309
 20
17.2273
 30
0.0
 10
-13.0925
 20
17.2857
 30
0.0
 10
-12.4397
 20
16.7892
 30
0.0
 10
-11.8264
 20
16.3226
 30
0.0
 10
-11.2586
 20
15.7949
 30
0.0
 10
-10.6775
 20
15.2867
 30
0.0
 10
-10.6092
 20
15.2261
 30
0.0
 10
-10.5842
 20
15.116
 30
0.0
 10
-10.4802
 20
14.9163
 30
0.0
  0
SPLINE
  5
79
330
1F
100
AcDbEntity
  8
Layer 1
 62
   250
370
    18
100
AcDbSpline
210
0.0
220
0.0
230
1.0
 70
    11
 71
     3
 72
    20
 73
    16
 74
     0
 42
0.0000000001
 43
0.0000000001
 40
0.0
 40
0.0
 40
0.0
 40
0.0
 40
0.2
 40
0.2
 40
0.2
 40
0.4
 40
0.4
 40
0.4
 40
0.6000000000000001
 40
0.6000000000000001
 40
0.6000000000000001
 40
0.8
 40
0.8
 40
0.8
 40
1.0
 40
1.0
 40
1.0
 40
1.0
 10
3.6161
 20
-15.7302
 30
0.0
 10
3.6656
 20
-15.6179
 30
0.0
 10
3.6738
 20
-15.5878
 30
0.0
 10
3.6905
 20
-15.5629
 30
0.0
 10
4.3088
 20
-14.6316
 30
0.0
 10
4.6375
 20
-14.6048
 30
0.0
 10
5.4109
 20
-15.4506
 30
0.0
 10
5.4943
 20
-15.5418
 30
0.0
 10
5.5266
 20
-15.753
 30
0.0
 10
5.4844
 20
-15.8749
 30
0.0
 10
5.287
 20
-16.4486
 30
0.0
 10
4.8383
 20
-16.5843
 30
0.0
 10
4.3616
 20
-16.2451
 30
0.0
 10
4.1177
 20
-16.0705
 30
0.0
 10
3.868
 20
-15.9037
 30
0.0
 10
3.6161
 20
-15.7302
 30
0.0
  0
SPLINE
  5
7A
330
1F
100
AcDbEntity
  8
Layer 1
 62
   250
370
    18
100
AcDbSpline
210
0.0
220
0.0
230
1.0
 70
    11
 71
     3
 72
    23
 73
    19
 74
     0
 42
0.0000000001
 43
0.0000000001
 40
0.0
 40
0.0
 40
0.0
 40
0.0
 40
0.1666666666666667
 40
0.1666666666666667
 40
0.1666666666666667
 40
0.3333333333333333
 40
0.3333333333333333
 40
0.3333333333333333
 40
0.5
 40
0.5
 40
0.5
 40
0.6666666666666666
 40
0.6666666666666666
 40
0.6666666666666666
 40
0.8333333333333333
 40
0.8333333333333333
 40
0.8333333333333333
 40
1.0
 40
1.0
 40
1.0
 40
1.0
 10
-1.0918
 20
-23.2438
 30
0.0
 10
-1.411
 20
-22.9882
 30
0.0
 10
-1.8287
 20
-22.7551
 30
0.0
 10
-2.0722
 20
-22.402
 30
0.0
 10
-2.1573
 20
-22.2797
 30
0.0
 10
-1.8313
 20
-21.8454
 30
0.0
 10
-1.6463
 20
-21.5874
 30
0.0
 10
-1.6107
 20
-21.5379
 30
0.0
 10
-1.3487
 20
-21.6224
 30
0.0
 10
-1.2075
 20
-21.6831
 30
0.0
 10
-1.0557
 20
-21.7487
 30
0.0
 10
-0.9211
 20
-21.8549
 30
0.0
 10
-0.7832
 20
-21.9499
 30
0.0
 10
-0.2678
 20
-22.303
 30
0.0
 10
-0.3179
 20
-22.8908
 30
0.0
 10
-0.8883
 20
-23.1833
 30
0.0
 10
-0.9272
 20
-23.2027
 30
0.0
 10
-0.9728
 20
-23.2095
 30
0.0
 10
-1.0918
 20
-23.2438
 30
0.0
  0
SPLINE
  5
7B
330
1F
100
AcDbEntity
  8
Layer 1
 62
   250
370
    18
100
AcDbSpline
210
0.0
220
0.0
230
1.0
 70
    11
 71
     3
 72
    23
 73
    19
 74
     0
 42
0.0000000001
 43
0.0000000001
 40
0.0
 40
0.0
 40
0.0
 40
0.0
 40
0.1666666666666667
 40
0.1666666666666667
 40
0.1666666666666667
 40
0.3333333333333333
 40
0.3333333333333333
 40
0.3333333333333333
 40
0.5
 40
0.5
 40
0.5
 40
0.6666666666666666
 40
0.6666666666666666
 40
0.6666666666666666
 40
0.8333333333333333
 40
0.8333333333333333
 40
0.8333333333333333
 40
1.0
 40
1.0
 40
1.0
 40
1.0
 10
14.7277
 20
-8.96
 30
0.0
 10
14.508
 20
-9.2569
 30
0.0
 10
14.398
 20
-9.4927
 30
0.0
 10
14.2133
 20
-9.6228
 30
0.0
 10
14.1094
 20
-9.6967
 30
0.0
 10
13.8819
 20
-9.6028
 30
0.0
 10
13.7117
 20
-9.5722
 30
0.0
 10
13.6556
 20
-9.5616
 30
0.0
 10
13.6061
 20
-9.5128
 30
0.0
 10
13.5555
 20
-9.4798
 30
0.0
 10
12.891
 20
-9.0495
 30
0.0
 10
12.9016
 20
-9.0557
 30
0.0
 10
13.3219
 20
-8.3923
 30
0.0
 10
13.5138
 20
-8.0898
 30
0.0
 10
13.7018
 20
-8.0948
 30
0.0
 10
13.947
 20
-8.306
 30
0.0
 10
14.1961
 20
-8.5207
 30
0.0
 10
14.4508
 20
-8.7286
 30
0.0
 10
14.7277
 20
-8.96
 30
0.0
  0
SPLINE
  5
7C
330
1F
100
AcDbEntity
  8
Layer 1
 62
   250
370
    18
100
AcDbSpline
210
0.0
220
0.0
230
1.0
 70
    11
 71
     3
 72
    26
 73
    22
 74
     0
 42
0.0000000001
 43
0.0000000001
 40
0.0
 40
0.0
 40
0.0
 40
0.0
 40
0.1428571428571428
 40
0.1428571428571428
 40
0.1428571428571428
 40
0.2857142857142857
 40
0.2857142857142857
 40
0.2857142857142857
 40
0.4285714285714285
 40
0.4285714285714285
 40
0.4285714285714285
 40
0.5714285714285714
 40
0.5714285714285714
 40
0.5714285714285714
 40
0.7142857142857142
 40
0.7142857142857142
 40
0.7142857142857142
 40
0.8571428571428571
 40
0.8571428571428571
 40
0.8571428571428571
 40
1.0
 40
1.0
 40
1.0
 40
1.0
 10
-3.4754
 20
-16.6942
 30
0.0
 10
-3.7573
 20
-17.0305
 30
0.0
 10
-3.9207
 20
-17.2868
 30
0.0
 10
-4.1482
 20
-17.4592
 30
0.0
 10
-4.2093
 20
-17.5054
 30
0.0
 10
-4.4645
 20
-17.2941
 30
0.0
 10
-4.6303
 20
-17.2012
 30
0.0
 10
-4.6436
 20
-17.1933
 30
0.0
 10
-4.6541
 20
-17.1823
 30
0.0
 10
-4.6664
 20
-17.1733
 30
0.0
 10
-4.8805
 20
-17.02
 30
0.0
 10
-5.0945
 20
-16.866
 30
0.0
 10
-5.3087
 20
-16.7118
 30
0.0
 10
-5.1501
 20
-16.4984
 30
0.0
 10
-4.9939
 20
-16.2837
 30
0.0
 10
-4.831
 20
-16.0741
 30
0.0
 10
-4.7876
 20
-16.0173
 30
0.0
 10
-4.6915
 20
-15.9273
 30
0.0
 10
-4.6708
 20
-15.9401
 30
0.0
 10
-4.2973
 20
-16.1647
 30
0.0
 10
-3.9308
 20
-16.4027
 30
0.0
 10
-3.4754
 20
-16.6942
 30
0.0
  0
ENDSEC
  0
SECTION
  2
OBJECTS
  0
DICTIONARY
  5
C
330
0
100
AcDbDictionary
281
     1
  3
ACAD_DETAILVIEWSTYLE
350
84
  3
ACAD_GROUP
350
D
  3
ACAD_LAYOUT
350
1A
  3
ACAD_MATERIAL
350
43
  3
ACAD_MLEADERSTYLE
350
5B
  3
ACAD_MLINESTYLE
350
17
  3
ACAD_PLOTSETTINGS
350
19
  3
ACAD_PLOTSTYLENAME
350
E
  3
ACAD_SCALELIST
350
47
  3
ACAD_SECTIONVIEWSTYLE
350
85
  3
ACAD_TABLESTYLE
350
59
  3
ACAD_VISUALSTYLE
350
2A
  3
ACDB_RECOMPOSE_DATA
350
81
  3
AcDbVariableDictionary
350
7D
  0
SUN
  5
5D
330
29
100
AcDbSun
 90
        1
290
     0
 63
     7
421
 16777215
 40
1.0
291
     1
 91
  2455826
 92
 54000000
292
     0
 70
     2
 71
   256
280
     1
  0
DICTIONARY
  5
84
102
{ACAD_REACTORS
330
C
102
}
330
C
100
AcDbDictionary
281
     1
  0
DICTIONARY
  5
D
102
{ACAD_REACTORS
330
C
102
}
330
C
100
AcDbDictionary
281
     1
  0
DICTIONARY
  5
1A
102
{ACAD_REACTORS
330
C
102
}
330
C
100
AcDbDictionary
281
     1
  3
Layout1
350
1E
  3
Layout2
350
26
  3
Model
350
22
  0
DICTIONARY
  5
43
102
{ACAD_REACTORS
330
C
102
}
330
C
100
AcDbDictionary
281
     1
  3
ByBlock
350
45
  3
ByLayer
350
44
  3
Global
350
46
  0
DICTIONARY
  5
5B
102
{ACAD_REACTORS
330
C
102
}
330
C
100
AcDbDictionary
281
     1
  3
Standard
350
5C
  0
DICTIONARY
  5
17
102
{ACAD_REACTORS
330
C
102
}
330
C
100
AcDbDictionary
281
     1
  3
Standard
350
18
  0
DICTIONARY
  5
19
102
{ACAD_REACTORS
330
C
102
}
330
C
100
AcDbDictionary
281
     1
  0
ACDBDICTIONARYWDFLT
  5
E
102
{ACAD_REACTORS
330
C
102
}
330
C
100
AcDbDictionary
281
     1
  3
Normal
350
F
100
AcDbDictionaryWithDefault
340
F
  0
DICTIONARY
  5
47
102
{ACAD_REACTORS
330
C
102
}
330
C
100
AcDbDictionary
281
     1
  3
A0
350
48
  3
A1
350
49
  3
A2
350
4A
  3
A3
350
4B
  3
A4
350
4C
  3
A5
350
4D
  3
A6
350
4E
  3
A7
350
4F
  3
A8
350
50
  3
A9
350
51
  3
B1
350
52
  3
B2
350
53
  3
B3
350
54
  3
B4
350
55
  3
B5
350
56
  3
B6
350
57
  3
B7
350
58
  0
DICTIONARY
  5
85
102
{ACAD_REACTORS
330
C
102
}
330
C
100
AcDbDictionary
281
     1
  0
DICTIONARY
  5
59
102
{ACAD_REACTORS
330
C
102
}
330
C
100
AcDbDictionary
281
     1
  3
Standard
350
5A
  0
DICTIONARY
  5
2A
102
{ACAD_REACTORS
330
C
102
}
330
C
100
AcDbDictionary
281
     1
  3
2dWireframe
350
2F
  3
Basic
350
32
  3
Brighten
350
36
  3
ColorChange
350
3A
  3
Conceptual
350
34
  3
Dim
350
35
  3
EdgeColorOff
350
3D
  3
Facepattern
350
39
  3
Flat
350
2B
  3
FlatWithEdges
350
2C
  3
Gouraud
350
2D
  3
GouraudWithEdges
350
2E
  3
Hidden
350
31
  3
JitterOff
350
3B
  3
Linepattern
350
38
  3
OverhangOff
350
3C
  3
Realistic
350
33
  3
Shaded
350
42
  3
Shaded with edges
350
41
  3
Shades of Gray
350
3E
  3
Sketchy
350
3F
  3
Thicken
350
37
  3
Wireframe
350
30
  3
X-Ray
350
40
  0
XRECORD
  5
81
102
{ACAD_REACTORS
330
C
102
}
330
C
100
AcDbXrecord
280
     1
 90
        1
330
5A
  0
DICTIONARY
  5
7D
102
{ACAD_REACTORS
330
C
102
}
330
C
100
AcDbDictionary
281
     1
  3
CANNOSCALE
350
7E
  3
CMLEADERSTYLE
350
83
  3
CTABLESTYLE
350
82
  0
LAYOUT
  5
1E
102
{ACAD_REACTORS
330
1A
102
}
330
1A
100
AcDbPlotSettings
  1

  2
none_device
  4

  6

 40
0.0
 41
0.0
 42
0.0
 43
0.0
 44
0.0
 45
0.0
 46
0.0
 47
0.0
 48
0.0
 49
0.0
140
0.0
141
0.0
142
1.0
143
1.0
 70
   688
 72
     0
 73
     0
 74
     5
  7

 75
    16
 76
     0
 77
     2
 78
   300
147
1.0
148
0.0
149
0.0
100
AcDbLayout
  1
Layout1
 70
     1
 71
     1
 10
0.0
 20
0.0
 11
12.0
 21
9.0
 12
0.0
 22
0.0
 32
0.0
 14
1.000000000000000E+20
 24
1.000000000000000E+20
 34
1.000000000000000E+20
 15
-1.000000000000000E+20
 25
-1.000000000000000E+20
 35
-1.000000000000000E+20
146
0.0
 13
0.0
 23
0.0
 33
0.0
 16
1.0
 26
0.0
 36
0.0
 17
0.0
 27
1.0
 37
0.0
 76
     0
330
1B
  0
LAYOUT
  5
26
102
{ACAD_REACTORS
330
1A
102
}
330
1A
100
AcDbPlotSettings
  1

  2
none_device
  4

  6

 40
0.0
 41
0.0
 42
0.0
 43
0.0
 44
0.0
 45
0.0
 46
0.0
 47
0.0
 48
0.0
 49
0.0
140
0.0
141
0.0
142
1.0
143
1.0
 70
   688
 72
     0
 73
     0
 74
     5
  7

 75
    16
 76
     0
 77
     2
 78
   300
147
1.0
148
0.0
149
0.0
100
AcDbLayout
  1
Layout2
 70
     1
 71
     2
 10
0.0
 20
0.0
 11
0.0
 21
0.0
 12
0.0
 22
0.0
 32
0.0
 14
0.0
 24
0.0
 34
0.0
 15
0.0
 25
0.0
 35
0.0
146
0.0
 13
0.0
 23
0.0
 33
0.0
 16
1.0
 26
0.0
 36
0.0
 17
0.0
 27
1.0
 37
0.0
 76
     0
330
23
  0
LAYOUT
  5
22
102
{ACAD_REACTORS
330
1A
102
}
330
1A
100
AcDbPlotSettings
  1

  2
none_device
  4
Letter_(8.50_x_11.00_Inches)
  6

 40
6.35
 41
6.35
 42
6.35000508
 43
6.35000508
 44
215.9
 45
279.4
 46
0.0
 47
0.0
 48
0.0
 49
0.0
140
0.0
141
0.0
142
1.0
143
1.0
 70
  1712
 72
     0
 73
     0
 74
     0
  7

 75
     0
 76
     0
 77
     2
 78
   300
147
1.0
148
0.0
149
0.0
100
AcDbLayout
  1
Model
 70
     1
 71
     0
 10
0.0
 20
0.0
 11
12.0
 21
9.0
 12
0.0
 22
0.0
 32
0.0
 14
-15.8464
 24
-25.9996
 34
0.0
 15
15.9205
 25
23.5412
 35
0.0
146
0.0
 13
0.0
 23
0.0
 33
0.0
 16
1.0
 26
0.0
 36
0.0
 17
0.0
 27
1.0
 37
0.0
 76
     0
330
1F
331
29
  0
MATERIAL
  5
45
102
{ACAD_REACTORS
330
43
102
}
330
43
100
AcDbMaterial
  1
ByBlock
 72
     1
 94
      127
  0
MATERIAL
  5
44
102
{ACAD_REACTORS
330
43
102
}
330
43
100
AcDbMaterial
  1
ByLayer
 72
     1
 94
      127
  0
MATERIAL
  5
46
102
{ACAD_REACTORS
330
43
102
}
330
43
100
AcDbMaterial
  1
Global
 72
     1
 94
      127
  0
MLEADERSTYLE
  5
5C
102
{ACAD_REACTORS
330
5B
102
}
330
5B
100
AcDbMLeaderStyle
179
     2
170
     2
171
     1
172
     0
 90
        2
 40
0.0
 41
0.0
173
     1
 91
-1056964608
340
14
 92
       -2
290
     1
 42
0.09
291
     1
 43
0.36
  3
Standard
341
0
 44
0.18
300

342
11
174
     1
178
     6
175
     1
176
     0
 93
-1056964608
 45
0.18
292
     0
297
     0
 46
0.18
343
0
 94
-1056964608
 47
1.0
 49
1.0
140
1.0
293
     1
141
0.0
294
     1
177
     0
142
1.0
295
     0
296
     0
143
0.125
271
     0
272
     9
273
     9
298
     0
  0
MLINESTYLE
  5
18
102
{ACAD_REACTORS
330
17
102
}
330
17
100
AcDbMlineStyle
  2
Standard
 70
     0
  3

 62
   256
 51
90.0
 52
90.0
 71
     2
 49
0.5
 62
   256
  6
BYLAYER
 49
-0.5
 62
   256
  6
BYLAYER
  0
ACDBPLACEHOLDER
  5
F
102
{ACAD_REACTORS
330
E
102
}
330
E
  0
SCALE
  5
48
102
{ACAD_REACTORS
330
47
102
}
330
47
100
AcDbScale
 70
     0
300
1:1
140
1.0
141
1.0
290
     1
  0
SCALE
  5
49
102
{ACAD_REACTORS
330
47
102
}
330
47
100
AcDbScale
 70
     0
300
1/128" = 1'-0"
140
0.0078125
141
12.0
290
     0
  0
SCALE
  5
4A
102
{ACAD_REACTORS
330
47
102
}
330
47
100
AcDbScale
 70
     0
300
1/64" = 1'-0"
140
0.015625
141
12.0
290
     0
  0
SCALE
  5
4B
102
{ACAD_REACTORS
330
47
102
}
330
47
100
AcDbScale
 70
     0
300
1/32" = 1'-0"
140
0.03125
141
12.0
290
     0
  0
SCALE
  5
4C
102
{ACAD_REACTORS
330
47
102
}
330
47
100
AcDbScale
 70
     0
300
1/16" = 1'-0"
140
0.0625
141
12.0
290
     0
  0
SCALE
  5
4D
102
{ACAD_REACTORS
330
47
102
}
330
47
100
AcDbScale
 70
     0
300
3/32" = 1'-0"
140
0.09375
141
12.0
290
     0
  0
SCALE
  5
4E
102
{ACAD_REACTORS
330
47
102
}
330
47
100
AcDbScale
 70
     0
300
1/8" = 1'-0"
140
0.125
141
12.0
290
     0
  0
SCALE
  5
4F
102
{ACAD_REACTORS
330
47
102
}
330
47
100
AcDbScale
 70
     0
300
3/16" = 1'-0"
140
0.1875
141
12.0
290
     0
  0
SCALE
  5
50
102
{ACAD_REACTORS
330
47
102
}
330
47
100
AcDbScale
 70
     0
300
1/4" = 1'-0"
140
0.25
141
12.0
290
     0
  0
SCALE
  5
51
102
{ACAD_REACTORS
330
47
102
}
330
47
100
AcDbScale
 70
     0
300
3/8" = 1'-0"
140
0.375
141
12.0
290
     0
  0
SCALE
  5
52
102
{ACAD_REACTORS
330
47
102
}
330
47
100
AcDbScale
 70
     0
300
1/2" = 1'-0"
140
0.5
141
12.0
290
     0
  0
SCALE
  5
53
102
{ACAD_REACTORS
330
47
102
}
330
47
100
AcDbScale
 70
     0
300
3/4" = 1'-0"
140
0.75
141
12.0
290
     0
  0
SCALE
  5
54
102
{ACAD_REACTORS
330
47
102
}
330
47
100
AcDbScale
 70
     0
300
1" = 1'-0"
140
1.0
141
12.0
290
     0
  0
SCALE
  5
55
102
{ACAD_REACTORS
330
47
102
}
330
47
100
AcDbScale
 70
     0
300
1-1/2" = 1'-0"
140
1.5
141
12.0
290
     0
  0
SCALE
  5
56
102
{ACAD_REACTORS
330
47
102
}
330
47
100
AcDbScale
 70
     0
300
3" = 1'-0"
140
3.0
141
12.0
290
     0
  0
SCALE
  5
57
102
{ACAD_REACTORS
330
47
102
}
330
47
100
AcDbScale
 70
     0
300
6" = 1'-0"
140
6.0
141
12.0
290
     0
  0
SCALE
  5
58
102
{ACAD_REACTORS
330
47
102
}
330
47
100
AcDbScale
 70
     0
300
1'-0" = 1'-0"
140
12.0
141
12.0
290
     0
  0
TABLESTYLE
  5
5A
102
{ACAD_REACTORS
330
59
102
}
102
{ACAD_XDICTIONARY
360
7F
102
}
330
59
100
AcDbTableStyle
  3
Standard
 70
     0
 71
     0
 40
0.06
 41
0.06
280
     0
281
     0
  7
Standard
140
0.18
170
     2
 62
     0
 63
   257
283
     0
 90
        4
 91
        0
  1

274
    -2
284
     1
 64
     0
275
    -2
285
     1
 65
     0
276
    -2
286
     1
 66
     0
277
    -2
287
     1
 67
     0
278
    -2
288
     1
 68
     0
279
    -2
289
     1
 69
     0
  7
Standard
140
0.25
170
     5
 62
     0
 63
   257
283
     0
 90
        4
 91
        0
  1

274
    -2
284
     1
 64
     0
275
    -2
285
     1
 65
     0
276
    -2
286
     1
 66
     0
277
    -2
287
     1
 67
     0
278
    -2
288
     1
 68
     0
279
    -2
289
     1
 69
     0
  7
Standard
140
0.18
170
     5
 62
     0
 63
   257
283
     0
 90
        4
 91
        0
  1

274
    -2
284
     1
 64
     0
275
    -2
285
     1
 65
     0
276
    -2
286
     1
 66
     0
277
    -2
287
     1
 67
     0
278
    -2
288
     1
 68
     0
279
    -2
289
     1
 69
     0
  0
VISUALSTYLE
  5
2F
102
{ACAD_REACTORS
330
2A
102
}
330
2A
100
AcDbVisualStyle
  2
2dWireframe
 70
     4
177
     3
291
     0
 70
    58
 90
        0
176
     1
 90
        2
176
     1
 90
        0
176
     1
 90
        0
176
     1
 40
0.6
176
     1
 40
30.0
176
     1
 62
     7
420
 16777215
176
     1
 90
        1
176
     1
 90
        4
176
     1
 62
     7
176
     1
 62
   257
176
     1
 90
        1
176
     1
 90
        1
176
     1
 40
1.0
176
     1
 90
        0
176
     1
 62
   257
176
     1
 40
1.0
176
     1
 90
        1
176
     1
 90
        6
176
     1
 90
        2
176
     1
 62
     7
176
     1
 90
        5
176
     1
 90
        0
176
     1
 90
        0
176
     1
290
     0
176
     1
 90
        1
176
     1
 40
0.0
176
     1
 90
        0
176
     1
290
     1
176
     1
290
     1
176
     1
290
     0
176
     1
290
     0
176
     1
290
     0
176
     1
290
     0
176
     1
290
     0
176
     1
290
     0
176
     1
290
     0
176
     1
 90
       50
176
     1
 40
0.0
176
     1
 40
1.0
176
     1
 90
        0
176
     1
 62
    18
420
        0
176
     1
 90
       50
176
     1
 90
        3
176
     1
 62
     5
420
      255
176
     1
290
     0
176
     1
 90
       50
176
     1
 90
       50
176
     1
 90
       50
176
     1
290
     0
176
     1
 90
       50
176
     1
 62
   256
176
     0
 40
1.0
176
     0
 90
        2
176
     1
  1
strokes_ogs.tif
176
     1
290
     0
176
     1
 40
1.0
176
     1
 40
1.0
176
     1
  0
VISUALSTYLE
  5
32
102
{ACAD_REACTORS
330
2A
102
}
330
2A
100
AcDbVisualStyle
  2
Basic
 70
     7
177
     3
291
     1
 70
    58
 90
        1
176
     1
 90
        0
176
     1
 90
        1
176
     1
 90
        0
176
     1
 40
0.6
176
     1
 40
30.0
176
     1
 62
     7
420
 16777215
176
     1
 90
        0
176
     1
 90
        4
176
     1
 62
     7
176
     1
 62
   257
176
     1
 90
        1
176
     1
 90
        1
176
     1
 40
1.0
176
     1
 90
        8
176
     1
 62
     7
176
     1
 40
1.0
176
     1
 90
        1
176
     1
 90
        6
176
     1
 90
        2
176
     1
 62
     7
176
     1
 90
        5
176
     1
 90
        0
176
     1
 90
        0
176
     1
290
     0
176
     1
 90
        1
176
     1
 40
0.0
176
     1
 90
        0
176
     1
290
     0
176
     1
290
     1
176
     1
290
     1
176
     1
290
     0
176
     1
290
     0
176
     1
290
     0
176
     1
290
     0
176
     1
290
     0
176
     1
290
     0
176
     1
 90
       50
176
     1
 40
0.0
176
     1
 40
1.0
176
     1
 90
        0
176
     1
 62
    18
420
        0
176
     1
 90
       50
176
     1
 90
        3
176
     1
 62
     5
420
      255
176
     1
290
     0
176
     1
 90
       50
176
     1
 90
       50
176
     1
 90
       50
176
     1
290
     0
176
     1
 90
       50
176
     1
 62
   256
176
     0
 40
1.0
176
     0
 90
        2
176
     1
  1
strokes_ogs.tif
176
     1
290
     0
176
     1
 40
1.0
176
     1
 40
1.0
176
     1
  0
VISUALSTYLE
  5
36
102
{ACAD_REACTORS
330
2A
102
}
330
2A
100
AcDbVisualStyle
  2
Brighten
 70
    12
177
     3
291
     1
 70
    58
 90
        2
176
     1
 90
        2
176
     1
 90
        0
176
     1
 90
        0
176
     1
 40
0.6
176
     1
 40
30.0
176
     1
 62
     7
420
 16777215
176
     1
 90
        1
176
     1
 90
        4
176
     1
 62
     7
176
     1
 62
   257
176
     1
 90
        1
176
     1
 90
        1
176
     1
 40
1.0
176
     1
 90
        8
176
     1
 62
     7
176
     1
 40
1.0
176
     1
 90
        1
176
     1
 90
        6
176
     1
 90
        2
176
     1
 62
     7
176
     1
 90
        5
176
     1
 90
        0
176
     1
 90
        0
176
     1
290
     0
176
     1
 90
        1
176
     1
 40
50.0
176
     1
 90
        0
176
     1
290
     0
176
     1
290
     1
176
     1
290
     1
176
     1
290
     0
176
     1
290
     0
176
     1
290
     0
176
     1
290
     0
176
     1
290
     0
176
     1
290
     0
176
     1
 90
       50
176
     1
 40
0.0
176
     1
 40
1.0
176
     1
 90
        0
176
     1
 62
    18
420
        0
176
     1
 90
       50
176
     1
 90
        3
176
     1
 62
     5
420
      255
176
     1
290
     0
176
     1
 90
       50
176
     1
 90
       50
176
     1
 90
       50
176
     1
290
     0
176
     1
 90
       50
176
     1
 62
   256
176
     0
 40
1.0
176
     0
 90
        2
176
     1
  1
strokes_ogs.tif
176
     1
290
     0
176
     1
 40
1.0
176
     1
 40
1.0
176
     1
  0
VISUALSTYLE
  5
3A
102
{ACAD_REACTORS
330
2A
102
}
330
2A
100
AcDbVisualStyle
  2
ColorChange
 70
    16
177
     3
291
     1
 70
    58
 90
        2
176
     1
 90
        2
176
     1
 90
        3
176
     1
 90
        0
176
     1
 40
0.6
176
     1
 40
30.0
176
     1
 62
     8
420
  8421504
176
     1
 90
        1
176
     1
 90
        4
176
     1
 62
     7
176
     1
 62
   257
176
     1
 90
        1
176
     1
 90
        1
176
     1
 40
1.0
176
     1
 90
        8
176
     1
 62
     8
420
  8421504
176
     1
 40
1.0
176
     1
 90
        1
176
     1
 90
        6
176
     1
 90
        2
176
     1
 62
     7
176
     1
 90
        5
176
     1
 90
        0
176
     1
 90
        0
176
     1
290
     0
176
     1
 90
        1
176
     1
 40
0.0
176
     1
 90
        0
176
     1
290
     0
176
     1
290
     1
176
     1
290
     1
176
     1
290
     0
176
     1
290
     0
176
     1
290
     0
176
     1
290
     0
176
     1
290
     0
176
     1
290
     0
176
     1
 90
       50
176
     1
 40
0.0
176
     1
 40
1.0
176
     1
 90
        0
176
     1
 62
    18
420
        0
176
     1
 90
       50
176
     1
 90
        3
176
     1
 62
     5
420
      255
176
     1
290
     0
176
     1
 90
       50
176
     1
 90
       50
176
     1
 90
       50
176
     1
290
     0
176
     1
 90
       50
176
     1
 62
   256
176
     0
 40
1.0
176
     0
 90
        2
176
     1
  1
strokes_ogs.tif
176
     1
290
     0
176
     1
 40
1.0
176
     1
 40
1.0
176
     1
  0
VISUALSTYLE
  5
34
102
{ACAD_REACTORS
330
2A
102
}
330
2A
100
AcDbVisualStyle
  2
Conceptual
 70
     9
177
     3
291
     0
 70
    58
 90
        3
176
     1
 90
        2
176
     1
 90
        0
176
     1
 90
        0
176
     1
 40
0.6
176
     1
 40
30.0
176
     1
 62
     7
420
 16777215
176
     1
 90
        2
176
     1
 90
        2
176
     1
 62
     7
176
     1
 62
   257
176
     1
 90
        1
176
     1
 90
        1
176
     1
 40
179.0
176
     1
 90
        8
176
     1
 62
     7
176
     1
 40
1.0
176
     1
 90
        1
176
     1
 90
        6
176
     1
 90
        2
176
     1
 62
     7
176
     1
 90
        3
176
     1
 90
        0
176
     1
 90
        0
176
     1
290
     0
176
     1
 90
        1
176
     1
 40
0.0
176
     1
 90
        0
176
     1
290
     0
176
     1
290
     1
176
     1
290
     1
176
     1
290
     0
176
     1
290
     0
176
     1
290
     0
176
     1
290
     0
176
     1
290
     0
176
     1
290
     0
176
     1
 90
       50
176
     1
 40
0.0
176
     1
 40
1.0
176
     1
 90
        0
176
     1
 62
    18
420
        0
176
     1
 90
       50
176
     1
 90
        3
176
     1
 62
     5
420
      255
176
     1
290
     0
176
     1
 90
       50
176
     1
 90
       50
176
     1
 90
       50
176
     1
290
     0
176
     1
 90
       50
176
     1
 62
   256
176
     0
 40
1.0
176
     0
 90
        2
176
     1
  1
strokes_ogs.tif
176
     1
290
     0
176
     1
 40
1.0
176
     1
 40
1.0
176
     1
  0
VISUALSTYLE
  5
35
102
{ACAD_REACTORS
330
2A
102
}
330
2A
100
AcDbVisualStyle
  2
Dim
 70
    11
177
     3
291
     1
 70
    58
 90
        2
176
     1
 90
        2
176
     1
 90
        0
176
     1
 90
        0
176
     1
 40
0.6
176
     1
 40
30.0
176
     1
 62
     7
420
 16777215
176
     1
 90
        1
176
     1
 90
        4
176
     1
 62
     7
176
     1
 62
   257
176
     1
 90
        1
176
     1
 90
        1
176
     1
 40
1.0
176
     1
 90
        8
176
     1
 62
     7
176
     1
 40
1.0
176
     1
 90
        1
176
     1
 90
        6
176
     1
 90
        2
176
     1
 62
     7
176
     1
 90
        5
176
     1
 90
        0
176
     1
 90
        0
176
     1
290
     0
176
     1
 90
        1
176
     1
 40
-50.0
176
     1
 90
        0
176
     1
290
     0
176
     1
290
     1
176
     1
290
     1
176
     1
290
     0
176
     1
290
     0
176
     1
290
     0
176
     1
290
     0
176
     1
290
     0
176
     1
290
     0
176
     1
 90
       50
176
     1
 40
0.0
176
     1
 40
1.0
176
     1
 90
        0
176
     1
 62
    18
420
        0
176
     1
 90
       50
176
     1
 90
        3
176
     1
 62
     5
420
      255
176
     1
290
     0
176
     1
 90
       50
176
     1
 90
       50
176
     1
 90
       50
176
     1
290
     0
176
     1
 90
       50
176
     1
 62
   256
176
     0
 40
1.0
176
     0
 90
        2
176
     1
  1
strokes_ogs.tif
176
     1
290
     0
176
     1
 40
1.0
176
     1
 40
1.0
176
     1
  0
VISUALSTYLE
  5
3D
102
{ACAD_REACTORS
330
2A
102
}
330
2A
100
AcDbVisualStyle
  2
EdgeColorOff
 70
    22
177
     3
291
     1
 70
    58
 90
        2
176
     0
 90
        2
176
     0
 90
        0
176
     0
 90
        0
176
     0
 40
0.6
176
     0
 40
30.0
176
     0
 62
     7
420
 16777215
176
     0
 90
        1
176
     0
 90
        4
176
     0
 62
     7
176
     0
 62
   257
176
     0
 90
        1
176
     0
 90
        1
176
     0
 40
1.0
176
     0
 90
        8
176
     2
 62
     7
176
     0
 40
1.0
176
     0
 90
        1
176
     0
 90
        6
176
     0
 90
        2
176
     0
 62
     7
176
     0
 90
        5
176
     0
 90
        0
176
     0
 90
        0
176
     0
290
     0
176
     0
 90
        1
176
     0
 40
0.0
176
     0
 90
        0
176
     0
290
     0
176
     0
290
     1
176
     0
290
     1
176
     0
290
     0
176
     0
290
     0
176
     0
290
     0
176
     0
290
     0
176
     0
290
     0
176
     0
290
     0
176
     0
 90
       50
176
     0
 40
0.0
176
     0
 40
1.0
176
     0
 90
        0
176
     0
 62
    18
420
        0
176
     0
 90
       50
176
     0
 90
        3
176
     0
 62
     5
420
      255
176
     0
290
     0
176
     0
 90
       50
176
     0
 90
       50
176
     0
 90
       50
176
     0
290
     0
176
     0
 90
       50
176
     0
 62
   256
176
     0
 40
1.0
176
     0
 90
        2
176
     0
  1
strokes_ogs.tif
176
     0
290
     0
176
     0
 40
1.0
176
     0
 40
1.0
176
     0
  0
VISUALSTYLE
  5
39
102
{ACAD_REACTORS
330
2A
102
}
330
2A
100
AcDbVisualStyle
  2
Facepattern
 70
    15
177
     3
291
     1
 70
    58
 90
        2
176
     1
 90
        2
176
     1
 90
        0
176
     1
 90
        0
176
     1
 40
0.6
176
     1
 40
30.0
176
     1
 62
     7
420
 16777215
176
     1
 90
        1
176
     1
 90
        4
176
     1
 62
     7
176
     1
 62
   257
176
     1
 90
        1
176
     1
 90
        1
176
     1
 40
1.0
176
     1
 90
        8
176
     1
 62
     7
176
     1
 40
1.0
176
     1
 90
        1
176
     1
 90
        6
176
     1
 90
        2
176
     1
 62
     7
176
     1
 90
        5
176
     1
 90
        0
176
     1
 90
        0
176
     1
290
     0
176
     1
 90
        1
176
     1
 40
0.0
176
     1
 90
        0
176
     1
290
     0
176
     1
290
     1
176
     1
290
     1
176
     1
290
     0
176
     1
290
     0
176
     1
290
     0
176
     1
290
     0
176
     1
290
     0
176
     1
290
     0
176
     1
 90
       50
176
     1
 40
0.0
176
     1
 40
1.0
176
     1
 90
        0
176
     1
 62
    18
420
        0
176
     1
 90
       50
176
     1
 90
        3
176
     1
 62
     5
420
      255
176
     1
290
     0
176
     1
 90
       50
176
     1
 90
       50
176
     1
 90
       50
176
     1
290
     0
176
     1
 90
       50
176
     1
 62
   256
176
     0
 40
1.0
176
     0
 90
        2
176
     1
  1
strokes_ogs.tif
176
     1
290
     0
176
     1
 40
1.0
176
     1
 40
1.0
176
     1
  0
VISUALSTYLE
  5
2B
102
{ACAD_REACTORS
330
2A
102
}
330
2A
100
AcDbVisualStyle
  2
Flat
 70
     0
177
     3
291
     1
 70
    58
 90
        2
176
     1
 90
        1
176
     1
 90
        1
176
     1
 90
        2
176
     1
 40
0.6
176
     1
 40
30.0
176
     1
 62
     7
420
 16777215
176
     1
 90
        0
176
     1
 90
        0
176
     1
 62
     7
176
     1
 62
   257
176
     1
 90
        1
176
     1
 90
        1
176
     1
 40
1.0
176
     1
 90
        8
176
     1
 62
     7
176
     1
 40
1.0
176
     1
 90
        1
176
     1
 90
        6
176
     1
 90
        2
176
     1
 62
     7
176
     1
 90
        5
176
     1
 90
        0
176
     1
 90
        0
176
     1
290
     0
176
     1
 90
       13
176
     1
 40
0.0
176
     1
 90
        0
176
     1
290
     0
176
     1
290
     1
176
     1
290
     1
176
     1
290
     0
176
     1
290
     0
176
     1
290
     0
176
     1
290
     0
176
     1
290
     0
176
     1
290
     0
176
     1
 90
       50
176
     1
 40
0.0
176
     1
 40
1.0
176
     1
 90
        0
176
     1
 62
    18
420
        0
176
     1
 90
       50
176
     1
 90
        3
176
     1
 62
     5
420
      255
176
     1
290
     0
176
     1
 90
       50
176
     1
 90
       50
176
     1
 90
       50
176
     1
290
     0
176
     1
 90
       50
176
     1
 62
   256
176
     0
 40
1.0
176
     0
 90
        2
176
     1
  1
strokes_ogs.tif
176
     1
290
     0
176
     1
 40
1.0
176
     1
 40
1.0
176
     1
  0
VISUALSTYLE
  5
2C
102
{ACAD_REACTORS
330
2A
102
}
330
2A
100
AcDbVisualStyle
  2
FlatWithEdges
 70
     1
177
     3
291
     1
 70
    58
 90
        2
176
     1
 90
        1
176
     1
 90
        1
176
     1
 90
        2
176
     1
 40
0.6
176
     1
 40
30.0
176
     1
 62
     7
420
 16777215
176
     1
 90
        1
176
     1
 90
        0
176
     1
 62
     7
176
     1
 62
   257
176
     1
 90
        1
176
     1
 90
        1
176
     1
 40
1.0
176
     1
 90
        0
176
     1
 62
   257
176
     1
 40
1.0
176
     1
 90
        1
176
     1
 90
        6
176
     1
 90
        2
176
     1
 62
     7
176
     1
 90
        5
176
     1
 90
        0
176
     1
 90
        0
176
     1
290
     0
176
     1
 90
       13
176
     1
 40
0.0
176
     1
 90
        0
176
     1
290
     0
176
     1
290
     1
176
     1
290
     1
176
     1
290
     0
176
     1
290
     0
176
     1
290
     0
176
     1
290
     0
176
     1
290
     0
176
     1
290
     0
176
     1
 90
       50
176
     1
 40
0.0
176
     1
 40
1.0
176
     1
 90
        0
176
     1
 62
    18
420
        0
176
     1
 90
       50
176
     1
 90
        3
176
     1
 62
     5
420
      255
176
     1
290
     0
176
     1
 90
       50
176
     1
 90
       50
176
     1
 90
       50
176
     1
290
     0
176
     1
 90
       50
176
     1
 62
   256
176
     0
 40
1.0
176
     0
 90
        2
176
     1
  1
strokes_ogs.tif
176
     1
290
     0
176
     1
 40
1.0
176
     1
 40
1.0
176
     1
  0
VISUALSTYLE
  5
2D
102
{ACAD_REACTORS
330
2A
102
}
330
2A
100
AcDbVisualStyle
  2
Gouraud
 70
     2
177
     3
291
     1
 70
    58
 90
        2
176
     1
 90
        2
176
     1
 90
        1
176
     1
 90
        2
176
     1
 40
0.6
176
     1
 40
30.0
176
     1
 62
     7
420
 16777215
176
     1
 90
        0
176
     1
 90
        0
176
     1
 62
     7
176
     1
 62
   257
176
     1
 90
        1
176
     1
 90
        1
176
     1
 40
1.0
176
     1
 90
        0
176
     1
 62
     7
176
     1
 40
1.0
176
     1
 90
        1
176
     1
 90
        6
176
     1
 90
        2
176
     1
 62
     7
176
     1
 90
        5
176
     1
 90
        0
176
     1
 90
        0
176
     1
290
     0
176
     1
 90
       13
176
     1
 40
0.0
176
     1
 90
        0
176
     1
290
     0
176
     1
290
     1
176
     1
290
     1
176
     1
290
     0
176
     1
290
     0
176
     1
290
     0
176
     1
290
     0
176
     1
290
     0
176
     1
290
     0
176
     1
 90
       50
176
     1
 40
0.0
176
     1
 40
1.0
176
     1
 90
        0
176
     1
 62
    18
420
        0
176
     1
 90
       50
176
     1
 90
        3
176
     1
 62
     5
420
      255
176
     1
290
     0
176
     1
 90
       50
176
     1
 90
       50
176
     1
 90
       50
176
     1
290
     0
176
     1
 90
       50
176
     1
 62
   256
176
     0
 40
1.0
176
     0
 90
        2
176
     1
  1
strokes_ogs.tif
176
     1
290
     0
176
     1
 40
1.0
176
     1
 40
1.0
176
     1
  0
VISUALSTYLE
  5
2E
102
{ACAD_REACTORS
330
2A
102
}
330
2A
100
AcDbVisualStyle
  2
GouraudWithEdges
 70
     3
177
     3
291
     1
 70
    58
 90
        2
176
     1
 90
        2
176
     1
 90
        1
176
     1
 90
        2
176
     1
 40
0.6
176
     1
 40
30.0
176
     1
 62
     7
420
 16777215
176
     1
 90
        1
176
     1
 90
        0
176
     1
 62
     7
176
     1
 62
   257
176
     1
 90
        1
176
     1
 90
        1
176
     1
 40
1.0
176
     1
 90
        0
176
     1
 62
   257
176
     1
 40
1.0
176
     1
 90
        1
176
     1
 90
        6
176
     1
 90
        2
176
     1
 62
     7
176
     1
 90
        5
176
     1
 90
        0
176
     1
 90
        0
176
     1
290
     0
176
     1
 90
       13
176
     1
 40
0.0
176
     1
 90
        0
176
     1
290
     0
176
     1
290
     1
176
     1
290
     1
176
     1
290
     0
176
     1
290
     0
176
     1
290
     0
176
     1
290
     0
176
     1
290
     0
176
     1
290
     0
176
     1
 90
       50
176
     1
 40
0.0
176
     1
 40
1.0
176
     1
 90
        0
176
     1
 62
    18
420
        0
176
     1
 90
       50
176
     1
 90
        3
176
     1
 62
     5
420
      255
176
     1
290
     0
176
     1
 90
       50
176
     1
 90
       50
176
     1
 90
       50
176
     1
290
     0
176
     1
 90
       50
176
     1
 62
   256
176
     0
 40
1.0
176
     0
 90
        2
176
     1
  1
strokes_ogs.tif
176
     1
290
     0
176
     1
 40
1.0
176
     1
 40
1.0
176
     1
  0
VISUALSTYLE
  5
31
102
{ACAD_REACTORS
330
2A
102
}
330
2A
100
AcDbVisualStyle
  2
Hidden
 70
     6
177
     3
291
     0
 70
    58
 90
        1
176
     1
 90
        2
176
     1
 90
        2
176
     1
 90
        0
176
     1
 40
0.6
176
     1
 40
30.0
176
     1
 62
     7
420
 16777215
176
     1
 90
        2
176
     1
 90
        2
176
     1
 62
     7
176
     1
 62
   257
176
     1
 90
        2
176
     1
 90
        1
176
     1
 40
40.0
176
     1
 90
        0
176
     1
 62
   257
176
     1
 40
1.0
176
     1
 90
        1
176
     1
 90
        6
176
     1
 90
        2
176
     1
 62
     7
176
     1
 90
        3
176
     1
 90
        0
176
     1
 90
        0
176
     1
290
     0
176
     1
 90
        1
176
     1
 40
0.0
176
     1
 90
        0
176
     1
290
     0
176
     1
290
     1
176
     1
290
     1
176
     1
290
     0
176
     1
290
     0
176
     1
290
     0
176
     1
290
     0
176
     1
290
     0
176
     1
290
     0
176
     1
 90
       50
176
     1
 40
0.0
176
     1
 40
1.0
176
     1
 90
        0
176
     1
 62
    18
420
        0
176
     1
 90
       50
176
     1
 90
        3
176
     1
 62
     5
420
      255
176
     1
290
     0
176
     1
 90
       50
176
     1
 90
       50
176
     1
 90
       50
176
     1
290
     0
176
     1
 90
       50
176
     1
 62
   256
176
     0
 40
1.0
176
     0
 90
        2
176
     1
  1
strokes_ogs.tif
176
     1
290
     0
176
     1
 40
1.0
176
     1
 40
1.0
176
     1
  0
VISUALSTYLE
  5
3B
102
{ACAD_REACTORS
330
2A
102
}
330
2A
100
AcDbVisualStyle
  2
JitterOff
 70
    20
177
     3
291
     1
 70
    58
 90
        2
176
     0
 90
        2
176
     0
 90
        0
176
     0
 90
        0
176
     0
 40
0.6
176
     0
 40
30.0
176
     0
 62
     7
420
 16777215
176
     0
 90
        1
176
     0
 90
        4
176
     0
 62
     7
176
     0
 62
   257
176
     0
 90
        1
176
     0
 90
        1
176
     0
 40
1.0
176
     0
 90
       10
176
     2
 62
     7
176
     0
 40
1.0
176
     0
 90
        1
176
     0
 90
        6
176
     0
 90
        2
176
     0
 62
     7
176
     0
 90
        5
176
     0
 90
        0
176
     0
 90
        0
176
     0
290
     0
176
     0
 90
        1
176
     0
 40
0.0
176
     0
 90
        0
176
     0
290
     0
176
     0
290
     1
176
     0
290
     1
176
     0
290
     0
176
     0
290
     0
176
     0
290
     0
176
     0
290
     0
176
     0
290
     0
176
     0
290
     0
176
     0
 90
       50
176
     0
 40
0.0
176
     0
 40
1.0
176
     0
 90
        0
176
     0
 62
    18
420
        0
176
     0
 90
       50
176
     0
 90
        3
176
     0
 62
     5
420
      255
176
     0
290
     0
176
     0
 90
       50
176
     0
 90
       50
176
     0
 90
       50
176
     0
290
     0
176
     0
 90
       50
176
     0
 62
   256
176
     0
 40
1.0
176
     0
 90
        2
176
     0
  1
strokes_ogs.tif
176
     0
290
     0
176
     0
 40
1.0
176
     0
 40
1.0
176
     0
  0
VISUALSTYLE
  5
38
102
{ACAD_REACTORS
330
2A
102
}
330
2A
100
AcDbVisualStyle
  2
Linepattern
 70
    14
177
     3
291
     1
 70
    58
 90
        2
176
     1
 90
        2
176
     1
 90
        0
176
     1
 90
        0
176
     1
 40
0.6
176
     1
 40
30.0
176
     1
 62
     7
420
 16777215
176
     1
 90
        1
176
     1
 90
        4
176
     1
 62
     7
176
     1
 62
   257
176
     1
 90
        7
176
     1
 90
        7
176
     1
 40
1.0
176
     1
 90
        8
176
     1
 62
     7
176
     1
 40
1.0
176
     1
 90
        1
176
     1
 90
        6
176
     1
 90
        2
176
     1
 62
     7
176
     1
 90
        5
176
     1
 90
        0
176
     1
 90
        0
176
     1
290
     0
176
     1
 90
        1
176
     1
 40
0.0
176
     1
 90
        0
176
     1
290
     0
176
     1
290
     1
176
     1
290
     1
176
     1
290
     0
176
     1
290
     0
176
     1
290
     0
176
     1
290
     0
176
     1
290
     0
176
     1
290
     0
176
     1
 90
       50
176
     1
 40
0.0
176
     1
 40
1.0
176
     1
 90
        0
176
     1
 62
    18
420
        0
176
     1
 90
       50
176
     1
 90
        3
176
     1
 62
     5
420
      255
176
     1
290
     0
176
     1
 90
       50
176
     1
 90
       50
176
     1
 90
       50
176
     1
290
     0
176
     1
 90
       50
176
     1
 62
   256
176
     0
 40
1.0
176
     0
 90
        2
176
     1
  1
strokes_ogs.tif
176
     1
290
     0
176
     1
 40
1.0
176
     1
 40
1.0
176
     1
  0
VISUALSTYLE
  5
3C
102
{ACAD_REACTORS
330
2A
102
}
330
2A
100
AcDbVisualStyle
  2
OverhangOff
 70
    21
177
     3
291
     1
 70
    58
 90
        2
176
     0
 90
        2
176
     0
 90
        0
176
     0
 90
        0
176
     0
 40
0.6
176
     0
 40
30.0
176
     0
 62
     7
420
 16777215
176
     0
 90
        1
176
     0
 90
        4
176
     0
 62
     7
176
     0
 62
   257
176
     0
 90
        1
176
     0
 90
        1
176
     0
 40
1.0
176
     0
 90
        9
176
     2
 62
     7
176
     0
 40
1.0
176
     0
 90
        1
176
     0
 90
        6
176
     0
 90
        2
176
     0
 62
     7
176
     0
 90
        5
176
     0
 90
        0
176
     0
 90
        0
176
     0
290
     0
176
     0
 90
        1
176
     0
 40
0.0
176
     0
 90
        0
176
     0
290
     0
176
     0
290
     1
176
     0
290
     1
176
     0
290
     0
176
     0
290
     0
176
     0
290
     0
176
     0
290
     0
176
     0
290
     0
176
     0
290
     0
176
     0
 90
       50
176
     0
 40
0.0
176
     0
 40
1.0
176
     0
 90
        0
176
     0
 62
    18
420
        0
176
     0
 90
       50
176
     0
 90
        3
176
     0
 62
     5
420
      255
176
     0
290
     0
176
     0
 90
       50
176
     0
 90
       50
176
     0
 90
       50
176
     0
290
     0
176
     0
 90
       50
176
     0
 62
   256
176
     0
 40
1.0
176
     0
 90
        2
176
     0
  1
strokes_ogs.tif
176
     0
290
     0
176
     0
 40
1.0
176
     0
 40
1.0
176
     0
  0
VISUALSTYLE
  5
33
102
{ACAD_REACTORS
330
2A
102
}
330
2A
100
AcDbVisualStyle
  2
Realistic
 70
     8
177
     3
291
     0
 70
    58
 90
        2
176
     1
 90
        3
176
     1
 90
        0
176
     1
 90
        2
176
     1
 40
0.6
176
     1
 40
30.0
176
     1
 62
     7
420
 16777215
176
     1
 90
        0
176
     1
 90
        0
176
     1
 62
     7
176
     1
 62
   257
176
     1
 90
        1
176
     1
 90
        1
176
     1
 40
1.0
176
     1
 90
        8
176
     1
 62
   257
176
     1
 40
1.0
176
     1
 90
        1
176
     1
 90
        6
176
     1
 90
        2
176
     1
 62
     7
176
     1
 90
        3
176
     1
 90
        0
176
     1
 90
        0
176
     1
290
     0
176
     1
 90
       13
176
     1
 40
0.0
176
     1
 90
        0
176
     1
290
     0
176
     1
290
     1
176
     1
290
     1
176
     1
290
     0
176
     1
290
     0
176
     1
290
     0
176
     1
290
     0
176
     1
290
     0
176
     1
290
     0
176
     1
 90
       50
176
     1
 40
0.0
176
     1
 40
1.0
176
     1
 90
        0
176
     1
 62
    18
420
        0
176
     1
 90
       50
176
     1
 90
        3
176
     1
 62
     5
420
      255
176
     1
290
     0
176
     1
 90
       50
176
     1
 90
       50
176
     1
 90
       50
176
     1
290
     0
176
     1
 90
       50
176
     1
 62
   256
176
     0
 40
1.0
176
     0
 90
        2
176
     1
  1
strokes_ogs.tif
176
     1
290
     0
176
     1
 40
1.0
176
     1
 40
1.0
176
     1
  0
VISUALSTYLE
  5
42
102
{ACAD_REACTORS
330
2A
102
}
330
2A
100
AcDbVisualStyle
  2
Shaded
 70
    27
177
     3
291
     0
 70
    58
 90
        2
176
     1
 90
        2
176
     1
 90
        1
176
     1
 90
        2
176
     1
 40
0.6
176
     1
 40
30.0
176
     1
 62
     7
420
 16777215
176
     1
 90
        0
176
     1
 90
        4
176
     1
 62
     7
176
     1
 62
   257
176
     1
 90
        1
176
     1
 90
        1
176
     1
 40
1.0
176
     1
 90
        8
176
     1
 62
   257
176
     1
 40
1.0
176
     1
 90
        1
176
     1
 90
        6
176
     1
 90
        2
176
     1
 62
     8
420
  7895160
176
     1
 90
        3
176
     1
 90
        0
176
     1
 90
        0
176
     1
290
     0
176
     1
 90
        5
176
     1
 40
0.0
176
     1
 90
        0
176
     1
290
     0
176
     1
290
     1
176
     1
290
     1
176
     1
290
     0
176
     1
290
     0
176
     1
290
     0
176
     1
290
     0
176
     1
290
     0
176
     1
290
     0
176
     1
 90
       50
176
     1
 40
0.0
176
     1
 40
1.0
176
     1
 90
        0
176
     1
 62
    18
420
        0
176
     1
 90
       50
176
     1
 90
        3
176
     1
 62
     5
420
      255
176
     1
290
     0
176
     1
 90
       50
176
     1
 90
       50
176
     1
 90
       50
176
     1
290
     0
176
     1
 90
       50
176
     1
 62
   256
176
     0
 40
1.0
176
     0
 90
        2
176
     1
  1
strokes_ogs.tif
176
     1
290
     0
176
     1
 40
1.0
176
     1
 40
1.0
176
     1
  0
VISUALSTYLE
  5
41
102
{ACAD_REACTORS
330
2A
102
}
330
2A
100
AcDbVisualStyle
  2
Shaded with edges
 70
    26
177
     3
291
     0
 70
    58
 90
        2
176
     1
 90
        2
176
     1
 90
        1
176
     1
 90
        2
176
     1
 40
0.6
176
     1
 40
30.0
176
     1
 62
     7
420
 16777215
176
     1
 90
        1
176
     1
 90
       10
176
     1
 62
     7
176
     1
 62
   257
176
     1
 90
        2
176
     1
 90
        1
176
     1
 40
1.0
176
     1
 90
        8
176
     1
 62
   257
176
     1
 40
1.0
176
     1
 90
        1
176
     1
 90
        6
176
     1
 90
        2
176
     1
 62
     7
176
     1
 90
        3
176
     1
 90
        0
176
     1
 90
        0
176
     1
290
     0
176
     1
 90
        5
176
     1
 40
0.0
176
     1
 90
        0
176
     1
290
     0
176
     1
290
     1
176
     1
290
     1
176
     1
290
     0
176
     1
290
     0
176
     1
290
     0
176
     1
290
     0
176
     1
290
     0
176
     1
290
     0
176
     1
 90
       50
176
     1
 40
0.0
176
     1
 40
1.0
176
     1
 90
        0
176
     1
 62
    18
420
        0
176
     1
 90
       50
176
     1
 90
        3
176
     1
 62
     5
420
      255
176
     1
290
     0
176
     1
 90
       50
176
     1
 90
       50
176
     1
 90
       50
176
     1
290
     0
176
     1
 90
       50
176
     1
 62
   256
176
     0
 40
1.0
176
     0
 90
        2
176
     1
  1
strokes_ogs.tif
176
     1
290
     0
176
     1
 40
1.0
176
     1
 40
1.0
176
     1
  0
VISUALSTYLE
  5
3E
102
{ACAD_REACTORS
330
2A
102
}
330
2A
100
AcDbVisualStyle
  2
Shades of Gray
 70
    23
177
     3
291
     0
 70
    58
 90
        2
176
     1
 90
        2
176
     1
 90
        3
176
     1
 90
        0
176
     1
 40
0.6
176
     1
 40
30.0
176
     1
 62
     7
420
 16777215
176
     1
 90
        2
176
     1
 90
        2
176
     1
 62
     7
176
     1
 62
     7
176
     1
 90
        1
176
     1
 90
        1
176
     1
 40
40.0
176
     1
 90
        8
176
     1
 62
     7
176
     1
 40
1.0
176
     1
 90
        1
176
     1
 90
        6
176
     1
 90
        2
176
     1
 62
     7
176
     1
 90
        3
176
     1
 90
        0
176
     1
 90
        0
176
     1
290
     0
176
     1
 90
        1
176
     1
 40
0.0
176
     1
 90
        0
176
     1
290
     0
176
     1
290
     1
176
     1
290
     1
176
     1
290
     0
176
     1
290
     0
176
     1
290
     0
176
     1
290
     0
176
     1
290
     0
176
     1
290
     0
176
     1
 90
       50
176
     1
 40
0.0
176
     1
 40
1.0
176
     1
 90
        0
176
     1
 62
    18
420
        0
176
     1
 90
       50
176
     1
 90
        3
176
     1
 62
     5
420
      255
176
     1
290
     0
176
     1
 90
       50
176
     1
 90
       50
176
     1
 90
       50
176
     1
290
     0
176
     1
 90
       50
176
     1
 62
   256
176
     0
 40
1.0
176
     0
 90
        2
176
     1
  1
strokes_ogs.tif
176
     1
290
     0
176
     1
 40
1.0
176
     1
 40
1.0
176
     1
  0
VISUALSTYLE
  5
3F
102
{ACAD_REACTORS
330
2A
102
}
330
2A
100
AcDbVisualStyle
  2
Sketchy
 70
    24
177
     3
291
     0
 70
    58
 90
        1
176
     1
 90
        2
176
     1
 90
        2
176
     1
 90
        0
176
     1
 40
0.6
176
     1
 40
30.0
176
     1
 62
     7
420
 16777215
176
     1
 90
        2
176
     1
 90
        2
176
     1
 62
     7
176
     1
 62
     7
176
     1
 90
        1
176
     1
 90
        1
176
     1
 40
40.0
176
     1
 90
       11
176
     1
 62
     7
176
     1
 40
1.0
176
     1
 90
        1
176
     1
 90
        6
176
     1
 90
        2
176
     1
 62
     7
176
     1
 90
        6
176
     1
 90
        0
176
     1
 90
        0
176
     1
290
     0
176
     1
 90
        1
176
     1
 40
0.0
176
     1
 90
        0
176
     1
290
     0
176
     1
290
     1
176
     1
290
     1
176
     1
290
     0
176
     1
290
     0
176
     1
290
     0
176
     1
290
     0
176
     1
290
     0
176
     1
290
     0
176
     1
 90
       50
176
     1
 40
0.0
176
     1
 40
1.0
176
     1
 90
        0
176
     1
 62
    18
420
        0
176
     1
 90
       50
176
     1
 90
        3
176
     1
 62
     5
420
      255
176
     1
290
     0
176
     1
 90
       50
176
     1
 90
       50
176
     1
 90
       50
176
     1
290
     0
176
     1
 90
       50
176
     1
 62
   256
176
     0
 40
1.0
176
     0
 90
        2
176
     1
  1
strokes_ogs.tif
176
     1
290
     0
176
     1
 40
1.0
176
     1
 40
1.0
176
     1
  0
VISUALSTYLE
  5
37
102
{ACAD_REACTORS
330
2A
102
}
330
2A
100
AcDbVisualStyle
  2
Thicken
 70
    13
177
     3
291
     1
 70
    58
 90
        2
176
     1
 90
        2
176
     1
 90
        0
176
     1
 90
        0
176
     1
 40
0.6
176
     1
 40
30.0
176
     1
 62
     7
420
 16777215
176
     1
 90
        1
176
     1
 90
        4
176
     1
 62
     7
176
     1
 62
   257
176
     1
 90
        1
176
     1
 90
        1
176
     1
 40
1.0
176
     1
 90
       12
176
     1
 62
     7
176
     1
 40
1.0
176
     1
 90
        1
176
     1
 90
        6
176
     1
 90
        2
176
     1
 62
     7
176
     1
 90
        5
176
     1
 90
        0
176
     1
 90
        0
176
     1
290
     0
176
     1
 90
        1
176
     1
 40
0.0
176
     1
 90
        0
176
     1
290
     0
176
     1
290
     1
176
     1
290
     1
176
     1
290
     0
176
     1
290
     0
176
     1
290
     0
176
     1
290
     0
176
     1
290
     0
176
     1
290
     0
176
     1
 90
       50
176
     1
 40
0.0
176
     1
 40
1.0
176
     1
 90
        0
176
     1
 62
    18
420
        0
176
     1
 90
       50
176
     1
 90
        3
176
     1
 62
     5
420
      255
176
     1
290
     0
176
     1
 90
       50
176
     1
 90
       50
176
     1
 90
       50
176
     1
290
     0
176
     1
 90
       50
176
     1
 62
   256
176
     0
 40
1.0
176
     0
 90
        2
176
     1
  1
strokes_ogs.tif
176
     1
290
     0
176
     1
 40
1.0
176
     1
 40
1.0
176
     1
  0
VISUALSTYLE
  5
30
102
{ACAD_REACTORS
330
2A
102
}
330
2A
100
AcDbVisualStyle
  2
Wireframe
 70
     5
177
     3
291
     0
 70
    58
 90
        0
176
     1
 90
        2
176
     1
 90
        0
176
     1
 90
        0
176
     1
 40
0.6
176
     1
 40
30.0
176
     1
 62
     7
420
 16777215
176
     1
 90
        1
176
     1
 90
        4
176
     1
 62
     7
176
     1
 62
   257
176
     1
 90
        1
176
     1
 90
        1
176
     1
 40
1.0
176
     1
 90
        0
176
     1
 62
   257
176
     1
 40
1.0
176
     1
 90
        1
176
     1
 90
        6
176
     1
 90
        2
176
     1
 62
     7
176
     1
 90
        3
176
     1
 90
        0
176
     1
 90
        0
176
     1
290
     0
176
     1
 90
        1
176
     1
 40
0.0
176
     1
 90
        0
176
     1
290
     0
176
     1
290
     1
176
     1
290
     1
176
     1
290
     0
176
     1
290
     0
176
     1
290
     0
176
     1
290
     0
176
     1
290
     0
176
     1
290
     0
176
     1
 90
       50
176
     1
 40
0.0
176
     1
 40
1.0
176
     1
 90
        0
176
     1
 62
    18
420
        0
176
     1
 90
       50
176
     1
 90
        3
176
     1
 62
     5
420
      255
176
     1
290
     0
176
     1
 90
       50
176
     1
 90
       50
176
     1
 90
       50
176
     1
290
     0
176
     1
 90
       50
176
     1
 62
   256
176
     0
 40
1.0
176
     0
 90
        2
176
     1
  1
strokes_ogs.tif
176
     1
290
     0
176
     1
 40
1.0
176
     1
 40
1.0
176
     1
  0
VISUALSTYLE
  5
40
102
{ACAD_REACTORS
330
2A
102
}
330
2A
100
AcDbVisualStyle
  2
X-Ray
 70
    25
177
     3
291
     0
 70
    58
 90
        2
176
     1
 90
        2
176
     1
 90
        1
176
     1
 90
        1
176
     1
 40
0.5
176
     1
 40
30.0
176
     1
 62
     7
420
 16777215
176
     1
 90
        1
176
     1
 90
        0
176
     1
 62
     7
176
     1
 62
   257
176
     1
 90
        1
176
     1
 90
        1
176
     1
 40
1.0
176
     1
 90
        8
176
     1
 62
     7
176
     1
 40
1.0
176
     1
 90
        1
176
     1
 90
        6
176
     1
 90
        2
176
     1
 62
     7
176
     1
 90
        3
176
     1
 90
        0
176
     1
 90
        0
176
     1
290
     0
176
     1
 90
       13
176
     1
 40
0.0
176
     1
 90
        0
176
     1
290
     0
176
     1
290
     1
176
     1
290
     1
176
     1
290
     0
176
     1
290
     0
176
     1
290
     0
176
     1
290
     0
176
     1
290
     0
176
     1
290
     0
176
     1
 90
       50
176
     1
 40
0.0
176
     1
 40
1.0
176
     1
 90
        0
176
     1
 62
    18
420
        0
176
     1
 90
       50
176
     1
 90
        3
176
     1
 62
     5
420
      255
176
     1
290
     0
176
     1
 90
       50
176
     1
 90
       50
176
     1
 90
       50
176
     1
290
     0
176
     1
 90
       50
176
     1
 62
   256
176
     0
 40
1.0
176
     0
 90
        2
176
     1
  1
strokes_ogs.tif
176
     1
290
     0
176
     1
 40
1.0
176
     1
 40
1.0
176
     1
  0
DICTIONARYVAR
  5
7E
102
{ACAD_REACTORS
330
7D
102
}
330
7D
100
DictionaryVariables
280
     0
  1
1:1
  0
DICTIONARYVAR
  5
83
102
{ACAD_REACTORS
330
7D
102
}
330
7D
100
DictionaryVariables
280
     0
  1
Standard
  0
DICTIONARYVAR
  5
82
102
{ACAD_REACTORS
330
7D
102
}
330
7D
100
DictionaryVariables
280
     0
  1
Standard
  0
DICTIONARY
  5
7F
330
5A
100
AcDbDictionary
280
     1
281
     1
  3
ACAD_ROUNDTRIP_2008_TABLESTYLE_CELLSTYLEMAP
360
80
  0
CELLSTYLEMAP
  5
80
102
{ACAD_REACTORS
330
7F
102
}
330
7F
100
AcDbCellStyleMap
 90
        3
300
CELLSTYLE
  1
TABLEFORMAT_BEGIN
 90
        5
170
     1
 91
        0
 92
    32768
 62
   257
 93
        1
300
CONTENTFORMAT
  1
CONTENTFORMAT_BEGIN
 90
        0
 91
        0
 92
        4
 93
        0
300

 40
0.0
140
1.0
 94
        5
 62
     0
340
11
144
0.25
309
CONTENTFORMAT_END
171
     1
301
MARGIN
  1
CELLMARGIN_BEGIN
 40
0.06
 40
0.06
 40
0.06
 40
0.06
 40
0.06
 40
0.06
309
CELLMARGIN_END
 94
        6
 95
        1
302
GRIDFORMAT
  1
GRIDFORMAT_BEGIN
 90
        0
 91
        1
 62
     0
 92
       -2
340
14
 93
        0
 40
0.045
309
GRIDFORMAT_END
 95
        2
302
GRIDFORMAT
  1
GRIDFORMAT_BEGIN
 90
        0
 91
        1
 62
     0
 92
       -2
340
14
 93
        0
 40
0.045
309
GRIDFORMAT_END
 95
        4
302
GRIDFORMAT
  1
GRIDFORMAT_BEGIN
 90
        0
 91
        1
 62
     0
 92
       -2
340
14
 93
        0
 40
0.045
309
GRIDFORMAT_END
 95
        8
302
GRIDFORMAT
  1
GRIDFORMAT_BEGIN
 90
        0
 91
        1
 62
     0
 92
       -2
340
14
 93
        0
 40
0.045
309
GRIDFORMAT_END
 95
       16
302
GRIDFORMAT
  1
GRIDFORMAT_BEGIN
 90
        0
 91
        1
 62
     0
 92
       -2
340
14
 93
        0
 40
0.045
309
GRIDFORMAT_END
 95
       32
302
GRIDFORMAT
  1
GRIDFORMAT_BEGIN
 90
        0
 91
        1
 62
     0
 92
       -2
340
14
 93
        0
 40
0.045
309
GRIDFORMAT_END
309
TABLEFORMAT_END
  1
CELLSTYLE_BEGIN
 90
        1
 91
        1
300
_TITLE
309
CELLSTYLE_END
300
CELLSTYLE
  1
TABLEFORMAT_BEGIN
 90
        5
170
     1
 91
        0
 92
        0
 62
   257
 93
        1
300
CONTENTFORMAT
  1
CONTENTFORMAT_BEGIN
 90
        0
 91
        0
 92
        4
 93
        0
300

 40
0.0
140
1.0
 94
        5
 62
     0
340
11
144
0.18
309
CONTENTFORMAT_END
171
     1
301
MARGIN
  1
CELLMARGIN_BEGIN
 40
0.06
 40
0.06
 40
0.06
 40
0.06
 40
0.06
 40
0.06
309
CELLMARGIN_END
 94
        6
 95
        1
302
GRIDFORMAT
  1
GRIDFORMAT_BEGIN
 90
        0
 91
        1
 62
     0
 92
       -2
340
14
 93
        0
 40
0.045
309
GRIDFORMAT_END
 95
        2
302
GRIDFORMAT
  1
GRIDFORMAT_BEGIN
 90
        0
 91
        1
 62
     0
 92
       -2
340
14
 93
        0
 40
0.045
309
GRIDFORMAT_END
 95
        4
302
GRIDFORMAT
  1
GRIDFORMAT_BEGIN
 90
        0
 91
        1
 62
     0
 92
       -2
340
14
 93
        0
 40
0.045
309
GRIDFORMAT_END
 95
        8
302
GRIDFORMAT
  1
GRIDFORMAT_BEGIN
 90
        0
 91
        1
 62
     0
 92
       -2
340
14
 93
        0
 40
0.045
309
GRIDFORMAT_END
 95
       16
302
GRIDFORMAT
  1
GRIDFORMAT_BEGIN
 90
        0
 91
        1
 62
     0
 92
       -2
340
14
 93
        0
 40
0.045
309
GRIDFORMAT_END
 95
       32
302
GRIDFORMAT
  1
GRIDFORMAT_BEGIN
 90
        0
 91
        1
 62
     0
 92
       -2
340
14
 93
        0
 40
0.045
309
GRIDFORMAT_END
309
TABLEFORMAT_END
  1
CELLSTYLE_BEGIN
 90
        2
 91
        1
300
_HEADER
309
CELLSTYLE_END
300
CELLSTYLE
  1
TABLEFORMAT_BEGIN
 90
        5
170
     1
 91
        0
 92
        0
 62
   257
 93
        1
300
CONTENTFORMAT
  1
CONTENTFORMAT_BEGIN
 90
        0
 91
        0
 92
        4
 93
        0
300

 40
0.0
140
1.0
 94
        2
 62
     0
340
11
144
0.18
309
CONTENTFORMAT_END
171
     1
301
MARGIN
  1
CELLMARGIN_BEGIN
 40
0.06
 40
0.06
 40
0.06
 40
0.06
 40
0.06
 40
0.06
309
CELLMARGIN_END
 94
        6
 95
        1
302
GRIDFORMAT
  1
GRIDFORMAT_BEGIN
 90
        0
 91
        1
 62
     0
 92
       -2
340
14
 93
        0
 40
0.045
309
GRIDFORMAT_END
 95
        2
302
GRIDFORMAT
  1
GRIDFORMAT_BEGIN
 90
        0
 91
        1
 62
     0
 92
       -2
340
14
 93
        0
 40
0.045
309
GRIDFORMAT_END
 95
        4
302
GRIDFORMAT
  1
GRIDFORMAT_BEGIN
 90
        0
 91
        1
 62
     0
 92
       -2
340
14
 93
        0
 40
0.045
309
GRIDFORMAT_END
 95
        8
302
GRIDFORMAT
  1
GRIDFORMAT_BEGIN
 90
        0
 91
        1
 62
     0
 92
       -2
340
14
 93
        0
 40
0.045
309
GRIDFORMAT_END
 95
       16
302
GRIDFORMAT
  1
GRIDFORMAT_BEGIN
 90
        0
 91
        1
 62
     0
 92
       -2
340
14
 93
        0
 40
0.045
309
GRIDFORMAT_END
 95
       32
302
GRIDFORMAT
  1
GRIDFORMAT_BEGIN
 90
        0
 91
        1
 62
     0
 92
       -2
340
14
 93
        0
 40
0.045
309
GRIDFORMAT_END
309
TABLEFORMAT_END
  1
CELLSTYLE_BEGIN
 90
        3
 91
        2
300
_DATA
309
CELLSTYLE_END
  0
ENDSEC
  0
EOF
