  0
SECTION
  2
HEADER
  9
$ACADVER
  1
AC1032
  9
$ACADMAINTVER
 90
       55
  9
$DWGCODEPAGE
  3
ANSI_1252
  9
$LASTSAVEDBY
  1
Administrator
  9
$REQUIREDVERSIONS
160
                 0
  9
$INSBASE
 10
0.0
 20
0.0
 30
0.0
  9
$EXTMIN
 10
-20.1902
 20
-20.253
 30
0.0
  9
$EXTMAX
 10
19.7862
 20
19.7234
 30
0.0
  9
$LIMMIN
 10
0.0
 20
0.0
  9
$LIMMAX
 10
12.0
 20
9.0
  9
$ORTHOMODE
 70
     0
  9
$REGENMODE
 70
     1
  9
$FILLMODE
 70
     1
  9
$QTEXTMODE
 70
     0
  9
$MIRRTEXT
 70
     1
  9
$LTSCALE
 40
1.0
  9
$ATTMODE
 70
     1
  9
$TEXTSIZE
 40
0.2
  9
$TRACEWID
 40
0.05
  9
$TEXTSTYLE
  7
Standard
  9
$CLAYER
  8
0
  9
$CELTYPE
  6
ByLayer
  9
$CECOLOR
 62
   256
  9
$CELTSCALE
 40
1.0
  9
$DISPSILH
 70
     0
  9
$DIMSCALE
 40
1.0
  9
$DIMASZ
 40
0.18
  9
$DIMEXO
 40
0.0625
  9
$DIMDLI
 40
0.38
  9
$DIMRND
 40
0.0
  9
$DIMDLE
 40
0.0
  9
$DIMEXE
 40
0.18
  9
$DIMTP
 40
0.0
  9
$DIMTM
 40
0.0
  9
$DIMTXT
 40
0.18
  9
$DIMCEN
 40
0.09
  9
$DIMTSZ
 40
0.0
  9
$DIMTOL
 70
     0
  9
$DIMLIM
 70
     0
  9
$DIMTIH
 70
     1
  9
$DIMTOH
 70
     1
  9
$DIMSE1
 70
     0
  9
$DIMSE2
 70
     0
  9
$DIMTAD
 70
     0
  9
$DIMZIN
 70
     0
  9
$DIMBLK
  1

  9
$DIMASO
 70
     1
  9
$DIMSHO
 70
     1
  9
$DIMPOST
  1

  9
$DIMAPOST
  1

  9
$DIMALT
 70
     0
  9
$DIMALTD
 70
     2
  9
$DIMALTF
 40
25.4
  9
$DIMLFAC
 40
1.0
  9
$DIMTOFL
 70
     0
  9
$DIMTVP
 40
0.0
  9
$DIMTIX
 70
     0
  9
$DIMSOXD
 70
     0
  9
$DIMSAH
 70
     0
  9
$DIMBLK1
  1

  9
$DIMBLK2
  1

  9
$DIMSTYLE
  2
Standard
  9
$DIMCLRD
 70
     0
  9
$DIMCLRE
 70
     0
  9
$DIMCLRT
 70
     0
  9
$DIMTFAC
 40
1.0
  9
$DIMGAP
 40
0.09
  9
$DIMJUST
 70
     0
  9
$DIMSD1
 70
     0
  9
$DIMSD2
 70
     0
  9
$DIMTOLJ
 70
     1
  9
$DIMTZIN
 70
     0
  9
$DIMALTZ
 70
     0
  9
$DIMALTTZ
 70
     0
  9
$DIMUPT
 70
     0
  9
$DIMDEC
 70
     4
  9
$DIMTDEC
 70
     4
  9
$DIMALTU
 70
     2
  9
$DIMALTTD
 70
     2
  9
$DIMTXSTY
  7
Standard
  9
$DIMAUNIT
 70
     0
  9
$DIMADEC
 70
     0
  9
$DIMALTRND
 40
0.0
  9
$DIMAZIN
 70
     0
  9
$DIMDSEP
 70
    46
  9
$DIMATFIT
 70
     3
  9
$DIMFRAC
 70
     0
  9
$DIMLDRBLK
  1

  9
$DIMLUNIT
 70
     2
  9
$DIMLWD
 70
    -2
  9
$DIMLWE
 70
    -2
  9
$DIMTMOVE
 70
     0
  9
$DIMFXL
 40
1.0
  9
$DIMFXLON
 70
     0
  9
$DIMJOGANG
 40
0.7853981633974483
  9
$DIMTFILL
 70
     0
  9
$DIMTFILLCLR
 70
     0
  9
$DIMARCSYM
 70
     0
  9
$DIMLTYPE
  6

  9
$DIMLTEX1
  6

  9
$DIMLTEX2
  6

  9
$DIMTXTDIRECTION
 70
     0
  9
$LUNITS
 70
     2
  9
$LUPREC
 70
     4
  9
$SKETCHINC
 40
0.1
  9
$FILLETRAD
 40
0.0
  9
$AUNITS
 70
     0
  9
$AUPREC
 70
     0
  9
$MENU
  1
.
  9
$ELEVATION
 40
0.0
  9
$PELEVATION
 40
0.0
  9
$THICKNESS
 40
0.0
  9
$LIMCHECK
 70
     0
  9
$CHAMFERA
 40
0.0
  9
$CHAMFERB
 40
0.0
  9
$CHAMFERC
 40
0.0
  9
$CHAMFERD
 40
0.0
  9
$SKPOLY
 70
     0
  9
$TDCREATE
 40
2460534.528845093
  9
$TDUCREATE
 40
2460534.383011759
  9
$TDUPDATE
 40
2460534.528845301
  9
$TDUUPDATE
 40
2460534.383011967
  9
$TDINDWG
 40
0.0000000116
  9
$TDUSRTIMER
 40
0.0000000116
  9
$USRTIMER
 70
     1
  9
$ANGBASE
 50
0.0
  9
$ANGDIR
 70
     0
  9
$PDMODE
 70
     0
  9
$PDSIZE
 40
0.0
  9
$PLINEWID
 40
0.0
  9
$SPLFRAME
 70
     0
  9
$SPLINETYPE
 70
     6
  9
$SPLINESEGS
 70
     8
  9
$HANDSEED
  5
A9
  9
$SURFTAB1
 70
     6
  9
$SURFTAB2
 70
     6
  9
$SURFTYPE
 70
     6
  9
$SURFU
 70
     6
  9
$SURFV
 70
     6
  9
$UCSBASE
  2

  9
$UCSNAME
  2

  9
$UCSORG
 10
0.0
 20
0.0
 30
0.0
  9
$UCSXDIR
 10
1.0
 20
0.0
 30
0.0
  9
$UCSYDIR
 10
0.0
 20
1.0
 30
0.0
  9
$UCSORTHOREF
  2

  9
$UCSORTHOVIEW
 70
     0
  9
$UCSORGTOP
 10
0.0
 20
0.0
 30
0.0
  9
$UCSORGBOTTOM
 10
0.0
 20
0.0
 30
0.0
  9
$UCSORGLEFT
 10
0.0
 20
0.0
 30
0.0
  9
$UCSORGRIGHT
 10
0.0
 20
0.0
 30
0.0
  9
$UCSORGFRONT
 10
0.0
 20
0.0
 30
0.0
  9
$UCSORGBACK
 10
0.0
 20
0.0
 30
0.0
  9
$PUCSBASE
  2

  9
$PUCSNAME
  2

  9
$PUCSORG
 10
0.0
 20
0.0
 30
0.0
  9
$PUCSXDIR
 10
1.0
 20
0.0
 30
0.0
  9
$PUCSYDIR
 10
0.0
 20
1.0
 30
0.0
  9
$PUCSORTHOREF
  2

  9
$PUCSORTHOVIEW
 70
     0
  9
$PUCSORGTOP
 10
0.0
 20
0.0
 30
0.0
  9
$PUCSORGBOTTOM
 10
0.0
 20
0.0
 30
0.0
  9
$PUCSORGLEFT
 10
0.0
 20
0.0
 30
0.0
  9
$PUCSORGRIGHT
 10
0.0
 20
0.0
 30
0.0
  9
$PUCSORGFRONT
 10
0.0
 20
0.0
 30
0.0
  9
$PUCSORGBACK
 10
0.0
 20
0.0
 30
0.0
  9
$USERI1
 70
     0
  9
$USERI2
 70
     0
  9
$USERI3
 70
     0
  9
$USERI4
 70
     0
  9
$USERI5
 70
     0
  9
$USERR1
 40
0.0
  9
$USERR2
 40
0.0
  9
$USERR3
 40
0.0
  9
$USERR4
 40
0.0
  9
$USERR5
 40
0.0
  9
$WORLDVIEW
 70
     1
  9
$SHADEDGE
 70
     3
  9
$SHADEDIF
 70
    70
  9
$TILEMODE
 70
     1
  9
$MAXACTVP
 70
    64
  9
$PINSBASE
 10
0.0
 20
0.0
 30
0.0
  9
$PLIMCHECK
 70
     0
  9
$PEXTMIN
 10
1.000000000000000E+20
 20
1.000000000000000E+20
 30
1.000000000000000E+20
  9
$PEXTMAX
 10
-1.000000000000000E+20
 20
-1.000000000000000E+20
 30
-1.000000000000000E+20
  9
$PLIMMIN
 10
0.0
 20
0.0
  9
$PLIMMAX
 10
12.0
 20
9.0
  9
$UNITMODE
 70
     0
  9
$VISRETAIN
 70
     1
  9
$PLINEGEN
 70
     0
  9
$PSLTSCALE
 70
     1
  9
$TREEDEPTH
 70
  3020
  9
$CMLSTYLE
  2
Standard
  9
$CMLJUST
 70
     0
  9
$CMLSCALE
 40
1.0
  9
$PROXYGRAPHICS
 70
     1
  9
$MEASUREMENT
 70
     0
  9
$CELWEIGHT
370
    -1
  9
$ENDCAPS
280
     0
  9
$JOINSTYLE
280
     0
  9
$LWDISPLAY
290
     0
  9
$INSUNITS
 70
     4
  9
$HYPERLINKBASE
  1

  9
$STYLESHEET
  1

  9
$XEDIT
290
     1
  9
$CEPSNTYPE
380
     0
  9
$PSTYLEMODE
290
     1
  9
$FINGERPRINTGUID
  2
{fb93b9a1-1a61-47ca-b2c2-b1fa63de47d6}
  9
$VERSIONGUID
  2
{FAEB1C32-E019-11D5-929B-00C0DF256EC4}
  9
$EXTNAMES
290
     1
  9
$PSVPSCALE
 40
0.0
  9
$OLESTARTUP
290
     0
  9
$SORTENTS
280
   127
  9
$INDEXCTL
280
     0
  9
$HIDETEXT
280
     1
  9
$XCLIPFRAME
280
     2
  9
$HALOGAP
280
     0
  9
$OBSCOLOR
 70
   257
  9
$OBSLTYPE
280
     0
  9
$INTERSECTIONDISPLAY
280
     0
  9
$INTERSECTIONCOLOR
 70
   257
  9
$DIMASSOC
280
     2
  9
$PROJECTNAME
  1

  9
$CAMERADISPLAY
290
     0
  9
$LENSLENGTH
 40
50.0
  9
$CAMERAHEIGHT
 40
0.0
  9
$STEPSPERSEC
 40
2.0
  9
$STEPSIZE
 40
6.0
  9
$3DDWFPREC
 40
2.0
  9
$PSOLWIDTH
 40
0.25
  9
$PSOLHEIGHT
 40
4.0
  9
$LOFTANG1
 40
1.570796326794897
  9
$LOFTANG2
 40
1.570796326794897
  9
$LOFTMAG1
 40
0.0
  9
$LOFTMAG2
 40
0.0
  9
$LOFTPARAM
 70
     7
  9
$LOFTNORMALS
280
     1
  9
$LATITUDE
 40
37.795
  9
$LONGITUDE
 40
-122.394
  9
$NORTHDIRECTION
 40
0.0
  9
$TIMEZONE
 70
 -8000
  9
$LIGHTGLYPHDISPLAY
280
     1
  9
$TILEMODELIGHTSYNCH
280
     1
  9
$CMATERIAL
347
44
  9
$SOLIDHIST
280
     0
  9
$SHOWHIST
280
     1
  9
$DWFFRAME
280
     2
  9
$DGNFRAME
280
     2
  9
$REALWORLDSCALE
290
     1
  9
$INTERFERECOLOR
 62
   256
  9
$CSHADOW
280
     0
  9
$SHADOWPLANELOCATION
 40
0.0
  0
ENDSEC
  0
SECTION
  2
CLASSES
  0
CLASS
  1
ACDBDICTIONARYWDFLT
  2
AcDbDictionaryWithDefault
  3
ObjectDBX Classes
 90
        0
 91
        3
280
     0
281
     0
  0
CLASS
  1
VISUALSTYLE
  2
AcDbVisualStyle
  3
ObjectDBX Classes
 90
     4095
 91
        3
280
     0
281
     0
  0
CLASS
  1
MATERIAL
  2
AcDbMaterial
  3
ObjectDBX Classes
 90
     1153
 91
        3
280
     0
281
     0
  0
CLASS
  1
SCALE
  2
AcDbScale
  3
ObjectDBX Classes
 90
     1153
 91
        3
280
     0
281
     0
  0
CLASS
  1
TABLESTYLE
  2
AcDbTableStyle
  3
ObjectDBX Classes
 90
     4095
 91
        3
280
     0
281
     0
  0
CLASS
  1
MLEADERSTYLE
  2
AcDbMLeaderStyle
  3
ACDB_MLEADERSTYLE_CLASS
 90
     4095
 91
        3
280
     0
281
     0
  0
CLASS
  1
SUN
  2
AcDbSun
  3
SCENEOE
 90
     1153
 91
        3
280
     0
281
     0
  0
CLASS
  1
DICTIONARYVAR
  2
AcDbDictionaryVar
  3
ObjectDBX Classes
 90
        0
 91
        3
280
     0
281
     0
  0
CLASS
  1
CELLSTYLEMAP
  2
AcDbCellStyleMap
  3
ObjectDBX Classes
 90
     1152
 91
        3
280
     0
281
     0
  0
ENDSEC
  0
SECTION
  2
TABLES
  0
TABLE
  2
VPORT
  5
8
330
0
100
AcDbSymbolTable
 70
     1
  0
VPORT
  5
29
330
8
100
AcDbSymbolTableRecord
100
AcDbViewportTableRecord
  2
*Active
 70
     0
 10
0.0
 20
0.0
 11
1.0
 21
1.0
 12
10.42990654205607
 22
4.5
 13
0.0
 23
0.0
 14
0.5
 24
0.5
 15
0.5
 25
0.5
 16
0.0
 26
0.0
 36
1.0
 17
0.0
 27
0.0
 37
0.0
 40
9.0
 41
1.972972972850329
 42
50.0
 43
0.0
 44
0.0
 50
0.0
 51
0.0
 71
     0
 72
   100
 73
     1
 74
     3
 75
     0
 76
     0
 77
     0
 78
     0
281
     0
 65
     1
110
0.0
120
0.0
130
0.0
111
1.0
121
0.0
131
0.0
112
0.0
122
1.0
132
0.0
 79
     0
146
0.0
348
2F
 60
     3
 61
     5
292
     1
282
     1
141
0.0
142
0.0
 63
   250
361
5D
  0
ENDTAB
  0
TABLE
  2
LTYPE
  5
5
330
0
100
AcDbSymbolTable
 70
     1
  0
LTYPE
  5
14
330
5
100
AcDbSymbolTableRecord
100
AcDbLinetypeTableRecord
  2
ByBlock
 70
     0
  3

 72
    65
 73
     0
 40
0.0
  0
LTYPE
  5
15
330
5
100
AcDbSymbolTableRecord
100
AcDbLinetypeTableRecord
  2
ByLayer
 70
     0
  3

 72
    65
 73
     0
 40
0.0
  0
LTYPE
  5
16
330
5
100
AcDbSymbolTableRecord
100
AcDbLinetypeTableRecord
  2
Continuous
 70
     0
  3
Solid line
 72
    65
 73
     0
 40
0.0
  0
ENDTAB
  0
TABLE
  2
LAYER
  5
2
330
0
100
AcDbSymbolTable
 70
     2
  0
LAYER
  5
10
330
2
100
AcDbSymbolTableRecord
100
AcDbLayerTableRecord
  2
0
 70
     0
 62
     7
  6
Continuous
370
    -3
390
F
347
46
348
0
  0
LAYER
  5
5F
330
2
100
AcDbSymbolTableRecord
100
AcDbLayerTableRecord
  2
Layer 1
 70
     0
 62
     7
  6
Continuous
370
    -3
390
F
347
46
348
0
  0
ENDTAB
  0
TABLE
  2
STYLE
  5
3
330
0
100
AcDbSymbolTable
 70
     1
  0
STYLE
  5
11
330
3
100
AcDbSymbolTableRecord
100
AcDbTextStyleTableRecord
  2
Standard
 70
     0
 40
0.0
 41
1.0
 50
0.0
 71
     0
 42
0.2
  3
txt
  4

  0
ENDTAB
  0
TABLE
  2
VIEW
  5
6
330
0
100
AcDbSymbolTable
 70
     0
  0
ENDTAB
  0
TABLE
  2
UCS
  5
7
330
0
100
AcDbSymbolTable
 70
     0
  0
ENDTAB
  0
TABLE
  2
APPID
  5
9
330
0
100
AcDbSymbolTable
 70
     2
  0
APPID
  5
12
330
9
100
AcDbSymbolTableRecord
100
AcDbRegAppTableRecord
  2
ACAD
 70
     0
  0
APPID
  5
5E
330
9
100
AcDbSymbolTableRecord
100
AcDbRegAppTableRecord
  2
ODA
 70
     0
  0
ENDTAB
  0
TABLE
  2
DIMSTYLE
  5
A
330
0
100
AcDbSymbolTable
 70
     1
100
AcDbDimStyleTable
  0
DIMSTYLE
105
27
330
A
100
AcDbSymbolTableRecord
100
AcDbDimStyleTableRecord
  2
Standard
 70
     0
178
     0
340
11
  0
ENDTAB
  0
TABLE
  2
BLOCK_RECORD
  5
1
330
0
100
AcDbSymbolTable
 70
     1
  0
BLOCK_RECORD
  5
1F
330
1
100
AcDbSymbolTableRecord
100
AcDbBlockTableRecord
  2
*Model_Space
340
22
 70
     0
280
     1
281
     0
  0
BLOCK_RECORD
  5
1B
330
1
100
AcDbSymbolTableRecord
100
AcDbBlockTableRecord
  2
*Paper_Space
340
1E
 70
     0
280
     1
281
     0
  0
BLOCK_RECORD
  5
23
330
1
100
AcDbSymbolTableRecord
100
AcDbBlockTableRecord
  2
*Paper_Space0
340
26
 70
     0
280
     1
281
     0
  0
ENDTAB
  0
ENDSEC
  0
SECTION
  2
BLOCKS
  0
BLOCK
  5
20
330
1F
100
AcDbEntity
  8
0
100
AcDbBlockBegin
  2
*Model_Space
 70
     0
 10
0.0
 20
0.0
 30
0.0
  3
*Model_Space
  1

  0
ENDBLK
  5
21
330
1F
100
AcDbEntity
  8
0
100
AcDbBlockEnd
  0
BLOCK
  5
1C
330
1B
100
AcDbEntity
 67
     1
  8
0
100
AcDbBlockBegin
  2
*Paper_Space
 70
     0
 10
0.0
 20
0.0
 30
0.0
  3
*Paper_Space
  1

  0
ENDBLK
  5
1D
330
1B
100
AcDbEntity
 67
     1
  8
0
100
AcDbBlockEnd
  0
BLOCK
  5
24
330
23
100
AcDbEntity
  8
0
100
AcDbBlockBegin
  2
*Paper_Space0
 70
     0
 10
0.0
 20
0.0
 30
0.0
  3
*Paper_Space0
  1

  0
ENDBLK
  5
25
330
23
100
AcDbEntity
  8
0
100
AcDbBlockEnd
  0
ENDSEC
  0
SECTION
  2
ENTITIES
  0
SPLINE
  5
60
330
1F
100
AcDbEntity
  8
Layer 1
 62
   240
100
AcDbSpline
210
0.0
220
0.0
230
1.0
 70
    11
 71
     3
 72
    23
 73
    19
 74
     0
 42
0.0000000001
 43
0.0000000001
 40
0.0
 40
0.0
 40
0.0
 40
0.0
 40
0.1666666666666667
 40
0.1666666666666667
 40
0.1666666666666667
 40
0.3333333333333333
 40
0.3333333333333333
 40
0.3333333333333333
 40
0.5
 40
0.5
 40
0.5
 40
0.6666666666666666
 40
0.6666666666666666
 40
0.6666666666666666
 40
0.8333333333333333
 40
0.8333333333333333
 40
0.8333333333333333
 40
1.0
 40
1.0
 40
1.0
 40
1.0
 10
-3.6642
 20
16.7555
 30
0.0
 10
-3.6642
 20
16.7555
 30
0.0
 10
3.5771
 20
16.7555
 30
0.0
 10
3.5771
 20
16.7555
 30
0.0
 10
3.5771
 20
16.7555
 30
0.0
 10
7.1547
 20
12.6329
 30
0.0
 10
7.1547
 20
12.6329
 30
0.0
 10
7.1547
 20
12.6329
 30
0.0
 10
-0.1303
 20
3.3536
 30
0.0
 10
-0.1303
 20
3.3536
 30
0.0
 10
-0.1303
 20
3.3536
 30
0.0
 10
-7.5718
 20
12.6361
 30
0.0
 10
-7.5718
 20
12.6361
 30
0.0
 10
-7.5718
 20
12.6361
 30
0.0
 10
-3.7632
 20
16.7555
 30
0.0
 10
-3.7632
 20
16.7555
 30
0.0
 10
-3.7632
 20
16.7555
 30
0.0
 10
-3.6642
 20
16.7555
 30
0.0
 10
-3.6642
 20
16.7555
 30
0.0
  0
SPLINE
  5
61
330
1F
100
AcDbEntity
  8
Layer 1
 62
   240
100
AcDbSpline
210
0.0
220
0.0
230
1.0
 70
    11
 71
     3
 72
    14
 73
    10
 74
     0
 42
0.0000000001
 43
0.0000000001
 40
0.0
 40
0.0
 40
0.0
 40
0.0
 40
0.3333333333333333
 40
0.3333333333333333
 40
0.3333333333333333
 40
0.6666666666666666
 40
0.6666666666666666
 40
0.6666666666666666
 40
1.0
 40
1.0
 40
1.0
 40
1.0
 10
2.4435
 20
16.2957
 30
0.0
 10
2.4435
 20
16.2957
 30
0.0
 10
-3.4938
 20
16.2957
 30
0.0
 10
-3.4938
 20
16.2957
 30
0.0
 10
-3.4938
 20
16.2957
 30
0.0
 10
-4.4731
 20
13.0517
 30
0.0
 10
-4.4731
 20
13.0517
 30
0.0
 10
-4.4731
 20
13.0517
 30
0.0
 10
2.4435
 20
16.2957
 30
0.0
 10
2.4435
 20
16.2957
 30
0.0
  0
SPLINE
  5
62
330
1F
100
AcDbEntity
  8
Layer 1
 62
   240
100
AcDbSpline
210
0.0
220
0.0
230
1.0
 70
    11
 71
     3
 72
    17
 73
    13
 74
     0
 42
0.0000000001
 43
0.0000000001
 40
0.0
 40
0.0
 40
0.0
 40
0.0
 40
0.25
 40
0.25
 40
0.25
 40
0.5
 40
0.5
 40
0.5
 40
0.75
 40
0.75
 40
0.75
 40
1.0
 40
1.0
 40
1.0
 40
1.0
 10
6.56
 20
12.619
 30
0.0
 10
6.56
 20
12.619
 30
0.0
 10
3.4134
 20
16.2447
 30
0.0
 10
3.4134
 20
16.2447
 30
0.0
 10
3.4134
 20
16.2447
 30
0.0
 10
-4.5263
 20
12.5208
 30
0.0
 10
-4.5263
 20
12.5208
 30
0.0
 10
-4.5263
 20
12.5208
 30
0.0
 10
-0.0948
 20
4.1424
 30
0.0
 10
-0.0948
 20
4.1424
 30
0.0
 10
-0.0948
 20
4.1424
 30
0.0
 10
6.56
 20
12.619
 30
0.0
 10
6.56
 20
12.619
 30
0.0
  0
SPLINE
  5
63
330
1F
100
AcDbEntity
  8
Layer 1
 62
   240
100
AcDbSpline
210
0.0
220
0.0
230
1.0
 70
    11
 71
     3
 72
    14
 73
    10
 74
     0
 42
0.0000000001
 43
0.0000000001
 40
0.0
 40
0.0
 40
0.0
 40
0.0
 40
0.3333333333333333
 40
0.3333333333333333
 40
0.3333333333333333
 40
0.6666666666666666
 40
0.6666666666666666
 40
0.6666666666666666
 40
1.0
 40
1.0
 40
1.0
 40
1.0
 10
-6.7916
 20
12.3962
 30
0.0
 10
-6.7916
 20
12.3962
 30
0.0
 10
-1.4652
 20
5.7521
 30
0.0
 10
-1.4652
 20
5.7521
 30
0.0
 10
-1.4652
 20
5.7521
 30
0.0
 10
-4.9794
 20
12.3962
 30
0.0
 10
-4.9794
 20
12.3962
 30
0.0
 10
-4.9794
 20
12.3962
 30
0.0
 10
-6.7916
 20
12.3962
 30
0.0
 10
-6.7916
 20
12.3962
 30
0.0
  0
SPLINE
  5
64
330
1F
100
AcDbEntity
  8
Layer 1
 62
   240
100
AcDbSpline
210
0.0
220
0.0
230
1.0
 70
    11
 71
     3
 72
    14
 73
    10
 74
     0
 42
0.0000000001
 43
0.0000000001
 40
0.0
 40
0.0
 40
0.0
 40
0.0
 40
0.3333333333333333
 40
0.3333333333333333
 40
0.3333333333333333
 40
0.6666666666666666
 40
0.6666666666666666
 40
0.6666666666666666
 40
1.0
 40
1.0
 40
1.0
 40
1.0
 10
-4.1713
 20
15.6402
 30
0.0
 10
-4.1713
 20
15.6402
 30
0.0
 10
-6.7454
 20
12.856
 30
0.0
 10
-6.7454
 20
12.856
 30
0.0
 10
-6.7454
 20
12.856
 30
0.0
 10
-5.0118
 20
12.856
 30
0.0
 10
-5.0118
 20
12.856
 30
0.0
 10
-5.0118
 20
12.856
 30
0.0
 10
-4.1713
 20
15.6402
 30
0.0
 10
-4.1713
 20
15.6402
 30
0.0
  0
SPLINE
  5
65
330
1F
100
AcDbEntity
  8
Layer 1
 62
   240
100
AcDbSpline
210
0.0
220
0.0
230
1.0
 70
    11
 71
     3
 72
    53
 73
    49
 74
     0
 42
0.0000000001
 43
0.0000000001
 40
0.0
 40
0.0
 40
0.0
 40
0.0
 40
0.0625
 40
0.0625
 40
0.0625
 40
0.125
 40
0.125
 40
0.125
 40
0.1875
 40
0.1875
 40
0.1875
 40
0.25
 40
0.25
 40
0.25
 40
0.3125
 40
0.3125
 40
0.3125
 40
0.375
 40
0.375
 40
0.375
 40
0.4375
 40
0.4375
 40
0.4375
 40
0.5
 40
0.5
 40
0.5
 40
0.5625
 40
0.5625
 40
0.5625
 40
0.625
 40
0.625
 40
0.625
 40
0.6875
 40
0.6875
 40
0.6875
 40
0.75
 40
0.75
 40
0.75
 40
0.8125
 40
0.8125
 40
0.8125
 40
0.875
 40
0.875
 40
0.875
 40
0.9375
 40
0.9375
 40
0.9375
 40
1.0
 40
1.0
 40
1.0
 40
1.0
 10
-2.1895
 20
10.6478
 30
0.0
 10
-2.1895
 20
10.6478
 30
0.0
 10
-2.0637
 20
10.9191
 30
0.0
 10
-2.0637
 20
10.9191
 30
0.0
 10
-2.0637
 20
10.9191
 30
0.0
 10
-1.2808
 20
12.7551
 30
0.0
 10
-1.2808
 20
12.7551
 30
0.0
 10
-1.2808
 20
12.7551
 30
0.0
 10
-1.1972
 20
12.9608
 30
0.0
 10
-1.1972
 20
12.9608
 30
0.0
 10
-1.1726
 20
13.0209
 30
0.0
 10
-1.1383
 20
13.1073
 30
0.0
 10
-1.0952
 20
13.2201
 30
0.0
 10
-0.9175
 20
13.2178
 30
0.0
 10
-0.7882
 20
13.2168
 30
0.0
 10
-0.7064
 20
13.2168
 30
0.0
 10
-0.5639
 20
13.2168
 30
0.0
 10
-0.4319
 20
13.2178
 30
0.0
 10
-0.3105
 20
13.2201
 30
0.0
 10
-0.3105
 20
13.2201
 30
0.0
 10
-0.0897
 20
12.4345
 30
0.0
 10
-0.0897
 20
12.4345
 30
0.0
 10
-0.0897
 20
12.4345
 30
0.0
 10
0.3607
 20
10.9224
 30
0.0
 10
0.3607
 20
10.9224
 30
0.0
 10
0.3607
 20
10.9224
 30
0.0
 10
0.4487
 20
10.6478
 30
0.0
 10
0.4487
 20
10.6478
 30
0.0
 10
0.2736
 20
10.65
 30
0.0
 10
0.168
 20
10.6511
 30
0.0
 10
0.1302
 20
10.6511
 30
0.0
 10
0.0449
 20
10.6511
 30
0.0
 10
-0.0792
 20
10.65
 30
0.0
 10
-0.2436
 20
10.6478
 30
0.0
 10
-0.2886
 20
10.8546
 30
0.0
 10
-0.3528
 20
11.0986
 30
0.0
 10
-0.4364
 20
11.3787
 30
0.0
 10
-0.4364
 20
11.3787
 30
0.0
 10
-1.1999
 20
11.3787
 30
0.0
 10
-1.1999
 20
11.3787
 30
0.0
 10
-1.2878
 20
11.1577
 30
0.0
 10
-1.3785
 20
10.9136
 30
0.0
 10
-1.4725
 20
10.6478
 30
0.0
 10
-1.6608
 20
10.65
 30
0.0
 10
-1.7761
 20
10.6511
 30
0.0
 10
-1.8183
 20
10.6511
 30
0.0
 10
-1.8948
 20
10.6511
 30
0.0
 10
-2.0189
 20
10.65
 30
0.0
 10
-2.1895
 20
10.6478
 30
0.0
  0
SPLINE
  5
66
330
1F
100
AcDbEntity
  8
Layer 1
 62
   240
100
AcDbSpline
210
0.0
220
0.0
230
1.0
 70
    11
 71
     3
 72
    17
 73
    13
 74
     0
 42
0.0000000001
 43
0.0000000001
 40
0.0
 40
0.0
 40
0.0
 40
0.0
 40
0.25
 40
0.25
 40
0.25
 40
0.5
 40
0.5
 40
0.5
 40
0.75
 40
0.75
 40
0.75
 40
1.0
 40
1.0
 40
1.0
 40
1.0
 10
-1.017
 20
11.9279
 30
0.0
 10
-1.017
 20
11.9279
 30
0.0
 10
-0.5454
 20
11.9279
 30
0.0
 10
-0.5454
 20
11.9279
 30
0.0
 10
-0.6624
 20
12.3711
 30
0.0
 10
-0.7266
 20
12.6162
 30
0.0
 10
-0.738
 20
12.661
 30
0.0
 10
-0.8049
 20
12.4761
 30
0.0
 10
-0.8612
 20
12.324
 30
0.0
 10
-0.9078
 20
12.207
 30
0.0
 10
-0.9078
 20
12.207
 30
0.0
 10
-1.017
 20
11.9279
 30
0.0
 10
-1.017
 20
11.9279
 30
0.0
  0
SPLINE
  5
67
330
1F
100
AcDbEntity
  8
Layer 1
 62
   240
100
AcDbSpline
210
0.0
220
0.0
230
1.0
 70
    11
 71
     3
 72
   104
 73
   100
 74
     0
 42
0.0000000001
 43
0.0000000001
 40
0.0
 40
0.0
 40
0.0
 40
0.0
 40
0.0303030303030303
 40
0.0303030303030303
 40
0.0303030303030303
 40
0.0606060606060606
 40
0.0606060606060606
 40
0.0606060606060606
 40
0.0909090909090909
 40
0.0909090909090909
 40
0.0909090909090909
 40
0.1212121212121212
 40
0.1212121212121212
 40
0.1212121212121212
 40
0.1515151515151515
 40
0.1515151515151515
 40
0.1515151515151515
 40
0.1818181818181818
 40
0.1818181818181818
 40
0.1818181818181818
 40
0.2121212121212121
 40
0.2121212121212121
 40
0.2121212121212121
 40
0.2424242424242424
 40
0.2424242424242424
 40
0.2424242424242424
 40
0.2727272727272727
 40
0.2727272727272727
 40
0.2727272727272727
 40
0.303030303030303
 40
0.303030303030303
 40
0.303030303030303
 40
0.3333333333333334
 40
0.3333333333333334
 40
0.3333333333333334
 40
0.3636363636363636
 40
0.3636363636363636
 40
0.3636363636363636
 40
0.3939393939393939
 40
0.3939393939393939
 40
0.3939393939393939
 40
0.4242424242424243
 40
0.4242424242424243
 40
0.4242424242424243
 40
0.4545454545454546
 40
0.4545454545454546
 40
0.4545454545454546
 40
0.4848484848484849
 40
0.4848484848484849
 40
0.4848484848484849
 40
0.5151515151515151
 40
0.5151515151515151
 40
0.5151515151515151
 40
0.5454545454545454
 40
0.5454545454545454
 40
0.5454545454545454
 40
0.5757575757575758
 40
0.5757575757575758
 40
0.5757575757575758
 40
0.6060606060606061
 40
0.6060606060606061
 40
0.6060606060606061
 40
0.6363636363636364
 40
0.6363636363636364
 40
0.6363636363636364
 40
0.6666666666666667
 40
0.6666666666666667
 40
0.6666666666666667
 40
0.696969696969697
 40
0.696969696969697
 40
0.696969696969697
 40
0.7272727272727273
 40
0.7272727272727273
 40
0.7272727272727273
 40
0.7575757575757576
 40
0.7575757575757576
 40
0.7575757575757576
 40
0.7878787878787878
 40
0.7878787878787878
 40
0.7878787878787878
 40
0.8181818181818182
 40
0.8181818181818182
 40
0.8181818181818182
 40
0.8484848484848485
 40
0.8484848484848485
 40
0.8484848484848485
 40
0.8787878787878788
 40
0.8787878787878788
 40
0.8787878787878788
 40
0.9090909090909092
 40
0.9090909090909092
 40
0.9090909090909092
 40
0.9393939393939394
 40
0.9393939393939394
 40
0.9393939393939394
 40
0.9696969696969697
 40
0.9696969696969697
 40
0.9696969696969697
 40
1.0
 40
1.0
 40
1.0
 40
1.0
 10
0.9705
 20
7.8688
 30
0.0
 10
0.9705
 20
7.8688
 30
0.0
 10
1.0013
 20
8.3513
 30
0.0
 10
1.0013
 20
8.3513
 30
0.0
 10
1.0013
 20
8.3513
 30
0.0
 10
1.0401
 20
9.2934
 30
0.0
 10
1.0401
 20
9.2934
 30
0.0
 10
1.0401
 20
9.2934
 30
0.0
 10
1.0568
 20
9.9607
 30
0.0
 10
1.0568
 20
9.9607
 30
0.0
 10
1.0577
 20
10.0319
 30
0.0
 10
1.0586
 20
10.1041
 30
0.0
 10
1.0586
 20
10.1751
 30
0.0
 10
1.0586
 20
10.2288
 30
0.0
 10
1.0577
 20
10.3174
 30
0.0
 10
1.0568
 20
10.4411
 30
0.0
 10
1.1905
 20
10.4378
 30
0.0
 10
1.2978
 20
10.4356
 30
0.0
 10
1.3787
 20
10.4356
 30
0.0
 10
1.4561
 20
10.4356
 30
0.0
 10
1.5626
 20
10.4389
 30
0.0
 10
1.6981
 20
10.4444
 30
0.0
 10
1.8335
 20
10.4498
 30
0.0
 10
1.9479
 20
10.453
 30
0.0
 10
2.0421
 20
10.453
 30
0.0
 10
2.1775
 20
10.453
 30
0.0
 10
2.2778
 20
10.4421
 30
0.0
 10
2.3429
 20
10.4203
 30
0.0
 10
2.408
 20
10.3994
 30
0.0
 10
2.4669
 20
10.3656
 30
0.0
 10
2.5189
 20
10.3196
 30
0.0
 10
2.5716
 20
10.2737
 30
0.0
 10
2.6147
 20
10.2201
 30
0.0
 10
2.649
 20
10.1577
 30
0.0
 10
2.6833
 20
10.0964
 30
0.0
 10
2.7097
 20
10.0264
 30
0.0
 10
2.7264
 20
9.9476
 30
0.0
 10
2.744
 20
9.8699
 30
0.0
 10
2.7528
 20
9.79
 30
0.0
 10
2.7528
 20
9.708
 30
0.0
 10
2.7528
 20
9.5395
 30
0.0
 10
2.7203
 20
9.3853
 30
0.0
 10
2.6542
 20
9.2463
 30
0.0
 10
2.5883
 20
9.1074
 30
0.0
 10
2.496
 20
9.0023
 30
0.0
 10
2.3763
 20
8.9333
 30
0.0
 10
2.2576
 20
8.8645
 30
0.0
 10
2.1238
 20
8.8294
 30
0.0
 10
1.9751
 20
8.8294
 30
0.0
 10
1.9206
 20
8.8294
 30
0.0
 10
1.8573
 20
8.8371
 30
0.0
 10
1.786
 20
8.8524
 30
0.0
 10
1.7781
 20
8.9104
 30
0.0
 10
1.7623
 20
8.9957
 30
0.0
 10
1.7403
 20
9.1107
 30
0.0
 10
1.7183
 20
9.2255
 30
0.0
 10
1.6998
 20
9.3098
 30
0.0
 10
1.6858
 20
9.3655
 30
0.0
 10
1.7306
 20
9.3535
 30
0.0
 10
1.7773
 20
9.348
 30
0.0
 10
1.8256
 20
9.348
 30
0.0
 10
1.9277
 20
9.348
 30
0.0
 10
2.0033
 20
9.3787
 30
0.0
 10
2.0535
 20
9.4389
 30
0.0
 10
2.1037
 20
9.5001
 30
0.0
 10
2.1283
 20
9.5745
 30
0.0
 10
2.1283
 20
9.6632
 30
0.0
 10
2.1283
 20
9.7058
 30
0.0
 10
2.1229
 20
9.743
 30
0.0
 10
2.1115
 20
9.7769
 30
0.0
 10
2.1001
 20
9.8109
 30
0.0
 10
2.0824
 20
9.8382
 30
0.0
 10
2.0587
 20
9.859
 30
0.0
 10
2.035
 20
9.8798
 30
0.0
 10
2.0077
 20
9.894
 30
0.0
 10
1.9787
 20
9.9005
 30
0.0
 10
1.9497
 20
9.9071
 30
0.0
 10
1.9163
 20
9.9104
 30
0.0
 10
1.8784
 20
9.9104
 30
0.0
 10
1.8424
 20
9.9104
 30
0.0
 10
1.8045
 20
9.9093
 30
0.0
 10
1.765
 20
9.906
 30
0.0
 10
1.765
 20
9.906
 30
0.0
 10
1.6373
 20
9.895
 30
0.0
 10
1.6373
 20
9.895
 30
0.0
 10
1.6242
 20
9.6522
 30
0.0
 10
1.6145
 20
9.383
 30
0.0
 10
1.6075
 20
9.0865
 30
0.0
 10
1.5942
 20
8.5461
 30
0.0
 10
1.5873
 20
8.2222
 30
0.0
 10
1.5873
 20
8.1138
 30
0.0
 10
1.5873
 20
8.1138
 30
0.0
 10
1.5873
 20
7.8688
 30
0.0
 10
1.5873
 20
7.8688
 30
0.0
 10
1.5873
 20
7.8688
 30
0.0
 10
1.2855
 20
7.8721
 30
0.0
 10
1.2855
 20
7.8721
 30
0.0
 10
1.2432
 20
7.8721
 30
0.0
 10
1.1386
 20
7.8711
 30
0.0
 10
0.9705
 20
7.8688
 30
0.0
  0
SPLINE
  5
68
330
1F
100
AcDbEntity
  8
Layer 1
 62
   240
100
AcDbSpline
210
0.0
220
0.0
230
1.0
 70
    11
 71
     3
 72
    17
 73
    13
 74
     0
 42
0.0000000001
 43
0.0000000001
 40
0.0
 40
0.0
 40
0.0
 40
0.0
 40
0.25
 40
0.25
 40
0.25
 40
0.5
 40
0.5
 40
0.5
 40
0.75
 40
0.75
 40
0.75
 40
1.0
 40
1.0
 40
1.0
 40
1.0
 10
6.5022
 20
-0.2516
 30
0.0
 10
6.4961
 20
-0.4524
 30
0.0
 10
6.5926
 20
-0.5638
 30
0.0
 10
6.7761
 20
-0.5622
 30
0.0
 10
6.9664
 20
-0.561
 30
0.0
 10
7.0971
 20
-0.4878
 30
0.0
 10
7.1056
 20
-0.2745
 30
0.0
 10
7.1129
 20
-0.1028
 30
0.0
 10
6.9744
 20
0.0581
 30
0.0
 10
6.8124
 20
0.0642
 30
0.0
 10
6.6373
 20
0.071
 30
0.0
 10
6.5082
 20
-0.0605
 30
0.0
 10
6.5022
 20
-0.2516
 30
0.0
  0
SPLINE
  5
69
330
1F
100
AcDbEntity
  8
Layer 1
 62
   240
100
AcDbSpline
210
0.0
220
0.0
230
1.0
 70
    11
 71
     3
 72
    23
 73
    19
 74
     0
 42
0.0000000001
 43
0.0000000001
 40
0.0
 40
0.0
 40
0.0
 40
0.0
 40
0.1666666666666667
 40
0.1666666666666667
 40
0.1666666666666667
 40
0.3333333333333333
 40
0.3333333333333333
 40
0.3333333333333333
 40
0.5
 40
0.5
 40
0.5
 40
0.6666666666666666
 40
0.6666666666666666
 40
0.6666666666666666
 40
0.8333333333333333
 40
0.8333333333333333
 40
0.8333333333333333
 40
1.0
 40
1.0
 40
1.0
 40
1.0
 10
7.7586
 20
-0.2097
 30
0.0
 10
7.6677
 20
-0.4456
 30
0.0
 10
7.5988
 20
-0.6229
 30
0.0
 10
7.5316
 20
-0.8008
 30
0.0
 10
7.524
 20
-0.8204
 30
0.0
 10
7.516
 20
-0.8551
 30
0.0
 10
7.5244
 20
-0.8623
 30
0.0
 10
7.6117
 20
-0.9339
 30
0.0
 10
7.6959
 20
-1.0418
 30
0.0
 10
7.7944
 20
-1.0586
 30
0.0
 10
7.8873
 20
-1.0743
 30
0.0
 10
8.0213
 20
-1.0173
 30
0.0
 10
8.0912
 20
-0.9468
 30
0.0
 10
8.1428
 20
-0.8949
 30
0.0
 10
8.1605
 20
-0.7461
 30
0.0
 10
8.1227
 20
-0.6808
 30
0.0
 10
8.0282
 20
-0.5183
 30
0.0
 10
7.8937
 20
-0.3787
 30
0.0
 10
7.7586
 20
-0.2097
 30
0.0
  0
SPLINE
  5
6A
330
1F
100
AcDbEntity
  8
Layer 1
 62
   240
100
AcDbSpline
210
0.0
220
0.0
230
1.0
 70
    11
 71
     3
 72
    80
 73
    76
 74
     0
 42
0.0000000001
 43
0.0000000001
 40
0.0
 40
0.0
 40
0.0
 40
0.0
 40
0.04
 40
0.04
 40
0.04
 40
0.08
 40
0.08
 40
0.08
 40
0.12
 40
0.12
 40
0.12
 40
0.16
 40
0.16
 40
0.16
 40
0.2
 40
0.2
 40
0.2
 40
0.24
 40
0.24
 40
0.24
 40
0.28
 40
0.28
 40
0.28
 40
0.32
 40
0.32
 40
0.32
 40
0.36
 40
0.36
 40
0.36
 40
0.4
 40
0.4
 40
0.4
 40
0.44
 40
0.44
 40
0.44
 40
0.48
 40
0.48
 40
0.48
 40
0.52
 40
0.52
 40
0.52
 40
0.56
 40
0.56
 40
0.56
 40
0.6
 40
0.6
 40
0.6
 40
0.64
 40
0.64
 40
0.64
 40
0.68
 40
0.68
 40
0.68
 40
0.72
 40
0.72
 40
0.72
 40
0.76
 40
0.76
 40
0.76
 40
0.8
 40
0.8
 40
0.8
 40
0.84
 40
0.84
 40
0.84
 40
0.88
 40
0.88
 40
0.88
 40
0.92
 40
0.92
 40
0.92
 40
0.96
 40
0.96
 40
0.96
 40
1.0
 40
1.0
 40
1.0
 40
1.0
 10
0.4739
 20
-2.5709
 30
0.0
 10
0.7193
 20
-2.3581
 30
0.0
 10
0.8557
 20
-2.0266
 30
0.0
 10
1.2238
 20
-1.9461
 30
0.0
 10
1.4749
 20
-1.891
 30
0.0
 10
1.594
 20
-1.7362
 30
0.0
 10
1.5977
 20
-1.4602
 30
0.0
 10
1.6016
 20
-1.1129
 30
0.0
 10
1.5848
 20
-0.7642
 30
0.0
 10
1.6053
 20
-0.4182
 30
0.0
 10
1.6129
 20
-0.2979
 30
0.0
 10
1.6828
 20
-0.1651
 30
0.0
 10
1.7618
 20
-0.0681
 30
0.0
 10
1.8856
 20
0.0847
 30
0.0
 10
2.0409
 20
0.2127
 30
0.0
 10
2.1834
 20
0.3515
 30
0.0
 10
2.2059
 20
0.3446
 30
0.0
 10
2.2289
 20
0.3378
 30
0.0
 10
2.2518
 20
0.3309
 30
0.0
 10
2.2518
 20
0.2147
 30
0.0
 10
2.251
 20
0.0984
 30
0.0
 10
2.2518
 20
-0.0179
 30
0.0
 10
2.2526
 20
-0.1483
 30
0.0
 10
2.2457
 20
-0.279
 30
0.0
 10
2.2574
 20
-0.4085
 30
0.0
 10
2.2879
 20
-0.748
 30
0.0
 10
2.4119
 20
-0.8675
 30
0.0
 10
2.7535
 20
-0.8707
 30
0.0
 10
3.8168
 20
-0.8801
 30
0.0
 10
4.8804
 20
-0.8828
 30
0.0
 10
5.9437
 20
-0.8877
 30
0.0
 10
5.9792
 20
-0.8877
 30
0.0
 10
6.0141
 20
-0.8791
 30
0.0
 10
6.0854
 20
-0.8699
 30
0.0
 10
5.8798
 20
-0.5075
 30
0.0
 10
5.8046
 20
-0.1269
 30
0.0
 10
6.0246
 20
0.2216
 30
0.0
 10
6.2391
 20
0.5603
 30
0.0
 10
6.573
 20
0.7304
 30
0.0
 10
7.0139
 20
0.6451
 30
0.0
 10
7.0621
 20
0.8467
 30
0.0
 10
7.1076
 20
1.0382
 30
0.0
 10
7.168
 20
1.2924
 30
0.0
 10
7.3933
 20
1.0688
 30
0.0
 10
7.5811
 20
0.8869
 30
0.0
 10
7.7638
 20
0.6995
 30
0.0
 10
8.0361
 20
0.4199
 30
0.0
 10
8.3049
 20
0.1371
 30
0.0
 10
8.5749
 20
-0.1446
 30
0.0
 10
8.8778
 20
-0.4601
 30
0.0
 10
8.8665
 20
-1.1145
 30
0.0
 10
8.5531
 20
-1.4408
 30
0.0
 10
8.1923
 20
-1.8166
 30
0.0
 10
7.5892
 20
-1.8371
 30
0.0
 10
7.2006
 20
-1.4678
 30
0.0
 10
7.0815
 20
-1.3547
 30
0.0
 10
7.0171
 20
-1.3552
 30
0.0
 10
6.8754
 20
-1.4348
 30
0.0
 10
6.7315
 20
-1.5153
 30
0.0
 10
6.5444
 20
-1.5495
 30
0.0
 10
6.3766
 20
-1.5503
 30
0.0
 10
5.0731
 20
-1.5567
 30
0.0
 10
3.7705
 20
-1.5514
 30
0.0
 10
2.4678
 20
-1.5442
 30
0.0
 10
2.3342
 20
-1.5438
 30
0.0
 10
2.2634
 20
-1.5551
 30
0.0
 10
2.2389
 20
-1.7172
 30
0.0
 10
2.152
 20
-2.3013
 30
0.0
 10
1.7283
 20
-2.6445
 30
0.0
 10
1.141
 20
-2.6357
 30
0.0
 10
0.9278
 20
-2.6325
 30
0.0
 10
0.7142
 20
-2.6353
 30
0.0
 10
0.5013
 20
-2.6353
 30
0.0
 10
0.492
 20
-2.6139
 30
0.0
 10
0.4828
 20
-2.5923
 30
0.0
 10
0.4739
 20
-2.5709
 30
0.0
  0
SPLINE
  5
6B
330
1F
100
AcDbEntity
  8
Layer 1
 62
   240
100
AcDbSpline
210
0.0
220
0.0
230
1.0
 70
    11
 71
     3
 72
    23
 73
    19
 74
     0
 42
0.0000000001
 43
0.0000000001
 40
0.0
 40
0.0
 40
0.0
 40
0.0
 40
0.1666666666666667
 40
0.1666666666666667
 40
0.1666666666666667
 40
0.3333333333333333
 40
0.3333333333333333
 40
0.3333333333333333
 40
0.5
 40
0.5
 40
0.5
 40
0.6666666666666666
 40
0.6666666666666666
 40
0.6666666666666666
 40
0.8333333333333333
 40
0.8333333333333333
 40
0.8333333333333333
 40
1.0
 40
1.0
 40
1.0
 40
1.0
 10
11.72
 20
-0.8562
 30
0.0
 10
11.72
 20
-0.6937
 30
0.0
 10
11.7289
 20
-0.5489
 30
0.0
 10
11.7147
 20
-0.4065
 30
0.0
 10
11.7108
 20
-0.3594
 30
0.0
 10
11.6487
 20
-0.2821
 30
0.0
 10
11.6097
 20
-0.2801
 30
0.0
 10
11.4593
 20
-0.2717
 30
0.0
 10
11.2907
 20
-0.2508
 30
0.0
 10
11.1612
 20
-0.3075
 30
0.0
 10
11.063
 20
-0.3509
 30
0.0
 10
10.9672
 20
-0.5018
 30
0.0
 10
10.958
 20
-0.6121
 30
0.0
 10
10.9524
 20
-0.6872
 30
0.0
 10
11.0867
 20
-0.8236
 30
0.0
 10
11.1785
 20
-0.8454
 30
0.0
 10
11.3418
 20
-0.8839
 30
0.0
 10
11.5204
 20
-0.8562
 30
0.0
 10
11.72
 20
-0.8562
 30
0.0
  0
SPLINE
  5
6C
330
1F
100
AcDbEntity
  8
Layer 1
 62
   240
100
AcDbSpline
210
0.0
220
0.0
230
1.0
 70
    11
 71
     3
 72
    86
 73
    82
 74
     0
 42
0.0000000001
 43
0.0000000001
 40
0.0
 40
0.0
 40
0.0
 40
0.0
 40
0.037037037037037
 40
0.037037037037037
 40
0.037037037037037
 40
0.0740740740740741
 40
0.0740740740740741
 40
0.0740740740740741
 40
0.1111111111111111
 40
0.1111111111111111
 40
0.1111111111111111
 40
0.1481481481481481
 40
0.1481481481481481
 40
0.1481481481481481
 40
0.1851851851851852
 40
0.1851851851851852
 40
0.1851851851851852
 40
0.2222222222222222
 40
0.2222222222222222
 40
0.2222222222222222
 40
0.2592592592592592
 40
0.2592592592592592
 40
0.2592592592592592
 40
0.2962962962962963
 40
0.2962962962962963
 40
0.2962962962962963
 40
0.3333333333333333
 40
0.3333333333333333
 40
0.3333333333333333
 40
0.3703703703703703
 40
0.3703703703703703
 40
0.3703703703703703
 40
0.4074074074074074
 40
0.4074074074074074
 40
0.4074074074074074
 40
0.4444444444444444
 40
0.4444444444444444
 40
0.4444444444444444
 40
0.4814814814814815
 40
0.4814814814814815
 40
0.4814814814814815
 40
0.5185185185185185
 40
0.5185185185185185
 40
0.5185185185185185
 40
0.5555555555555556
 40
0.5555555555555556
 40
0.5555555555555556
 40
0.5925925925925926
 40
0.5925925925925926
 40
0.5925925925925926
 40
0.6296296296296295
 40
0.6296296296296295
 40
0.6296296296296295
 40
0.6666666666666666
 40
0.6666666666666666
 40
0.6666666666666666
 40
0.7037037037037037
 40
0.7037037037037037
 40
0.7037037037037037
 40
0.7407407407407407
 40
0.7407407407407407
 40
0.7407407407407407
 40
0.7777777777777777
 40
0.7777777777777777
 40
0.7777777777777777
 40
0.8148148148148148
 40
0.8148148148148148
 40
0.8148148148148148
 40
0.8518518518518519
 40
0.8518518518518519
 40
0.8518518518518519
 40
0.8888888888888888
 40
0.8888888888888888
 40
0.8888888888888888
 40
0.9259259259259258
 40
0.9259259259259258
 40
0.9259259259259258
 40
0.9629629629629629
 40
0.9629629629629629
 40
0.9629629629629629
 40
1.0
 40
1.0
 40
1.0
 40
1.0
 10
15.6304
 20
-0.8804
 30
0.0
 10
15.3488
 20
-0.5903
 30
0.0
 10
15.1002
 20
-0.314
 30
0.0
 10
14.825
 20
-0.0678
 30
0.0
 10
14.7659
 20
-0.0146
 30
0.0
 10
14.6058
 20
-0.0541
 30
0.0
 10
14.4995
 20
-0.0818
 30
0.0
 10
14.4287
 20
-0.0999
 30
0.0
 10
14.3688
 20
-0.1687
 30
0.0
 10
14.3093
 20
-0.2206
 30
0.0
 10
14.0155
 20
-0.4773
 30
0.0
 10
14.0212
 20
-0.4728
 30
0.0
 10
13.7343
 20
-0.2
 30
0.0
 10
13.612
 20
-0.0834
 30
0.0
 10
13.577
 20
0.0209
 30
0.0
 10
13.7053
 20
0.1439
 30
0.0
 10
13.9978
 20
0.4251
 30
0.0
 10
14.2791
 20
0.716
 30
0.0
 10
14.7457
 20
0.6753
 30
0.0
 10
15.0627
 20
0.6476
 30
0.0
 10
15.282
 20
0.4689
 30
0.0
 10
15.488
 20
0.2662
 30
0.0
 10
15.7508
 20
0.0075
 30
0.0
 10
15.9997
 20
-0.2645
 30
0.0
 10
16.2508
 20
-0.5344
 30
0.0
 10
16.3293
 20
-0.6185
 30
0.0
 10
16.3949
 20
-0.715
 30
0.0
 10
16.4673
 20
-0.8056
 30
0.0
 10
16.5996
 20
-0.9705
 30
0.0
 10
16.6563
 20
-1.1535
 30
0.0
 10
16.5509
 20
-1.3479
 30
0.0
 10
16.4531
 20
-1.5285
 30
0.0
 10
16.2729
 20
-1.5591
 30
0.0
 10
16.0826
 20
-1.5578
 30
0.0
 10
15.5754
 20
-1.5551
 30
0.0
 10
15.068
 20
-1.5567
 30
0.0
 10
14.5611
 20
-1.557
 30
0.0
 10
13.9022
 20
-1.557
 30
0.0
 10
13.2428
 20
-1.5603
 30
0.0
 10
12.5837
 20
-1.5546
 30
0.0
 10
12.4413
 20
-1.5535
 30
0.0
 10
12.3883
 20
-1.5957
 30
0.0
 10
12.3649
 20
-1.7441
 30
0.0
 10
12.2828
 20
-2.2534
 30
0.0
 10
11.8535
 20
-2.6163
 30
0.0
 10
11.3369
 20
-2.63
 30
0.0
 10
11.1017
 20
-2.6361
 30
0.0
 10
10.8658
 20
-2.6308
 30
0.0
 10
10.6164
 20
-2.5966
 30
0.0
 10
10.8402
 20
-2.3399
 30
0.0
 10
10.9701
 20
-1.9996
 30
0.0
 10
11.3591
 20
-1.9396
 30
0.0
 10
11.522
 20
-1.9147
 30
0.0
 10
11.6403
 20
-1.7844
 30
0.0
 10
11.6942
 20
-1.5767
 30
0.0
 10
11.5209
 20
-1.5656
 30
0.0
 10
11.3527
 20
-1.5554
 30
0.0
 10
11.1849
 20
-1.5442
 30
0.0
 10
10.7267
 20
-1.5124
 30
0.0
 10
10.4044
 20
-1.2111
 30
0.0
 10
10.3078
 20
-0.7246
 30
0.0
 10
10.2306
 20
-0.3372
 30
0.0
 10
10.4568
 20
0.1689
 30
0.0
 10
10.8547
 20
0.2743
 30
0.0
 10
11.205
 20
0.3667
 30
0.0
 10
11.6005
 20
0.3685
 30
0.0
 10
11.9614
 20
0.3129
 30
0.0
 10
12.2156
 20
0.2738
 30
0.0
 10
12.3283
 20
-0.0098
 30
0.0
 10
12.3773
 20
-0.2701
 30
0.0
 10
12.3862
 20
-0.3196
 30
0.0
 10
12.3802
 20
-0.3714
 30
0.0
 10
12.3814
 20
-0.4222
 30
0.0
 10
12.3942
 20
-0.8723
 30
0.0
 10
12.3942
 20
-0.8807
 30
0.0
 10
12.8355
 20
-0.8849
 30
0.0
 10
13.7195
 20
-0.8933
 30
0.0
 10
14.6029
 20
-0.892
 30
0.0
 10
15.486
 20
-0.8941
 30
0.0
 10
15.5214
 20
-0.8944
 30
0.0
 10
15.5572
 20
-0.8876
 30
0.0
 10
15.6304
 20
-0.8804
 30
0.0
  0
SPLINE
  5
6D
330
1F
100
AcDbEntity
  8
Layer 1
 62
   240
100
AcDbSpline
210
0.0
220
0.0
230
1.0
 70
    11
 71
     3
 72
    83
 73
    79
 74
     0
 42
0.0000000001
 43
0.0000000001
 40
0.0
 40
0.0
 40
0.0
 40
0.0
 40
0.0384615384615385
 40
0.0384615384615385
 40
0.0384615384615385
 40
0.0769230769230769
 40
0.0769230769230769
 40
0.0769230769230769
 40
0.1153846153846154
 40
0.1153846153846154
 40
0.1153846153846154
 40
0.1538461538461539
 40
0.1538461538461539
 40
0.1538461538461539
 40
0.1923076923076923
 40
0.1923076923076923
 40
0.1923076923076923
 40
0.2307692307692308
 40
0.2307692307692308
 40
0.2307692307692308
 40
0.2692307692307693
 40
0.2692307692307693
 40
0.2692307692307693
 40
0.3076923076923077
 40
0.3076923076923077
 40
0.3076923076923077
 40
0.3461538461538461
 40
0.3461538461538461
 40
0.3461538461538461
 40
0.3846153846153846
 40
0.3846153846153846
 40
0.3846153846153846
 40
0.4230769230769231
 40
0.4230769230769231
 40
0.4230769230769231
 40
0.4615384615384616
 40
0.4615384615384616
 40
0.4615384615384616
 40
0.5
 40
0.5
 40
0.5
 40
0.5384615384615385
 40
0.5384615384615385
 40
0.5384615384615385
 40
0.576923076923077
 40
0.576923076923077
 40
0.576923076923077
 40
0.6153846153846154
 40
0.6153846153846154
 40
0.6153846153846154
 40
0.6538461538461539
 40
0.6538461538461539
 40
0.6538461538461539
 40
0.6923076923076923
 40
0.6923076923076923
 40
0.6923076923076923
 40
0.7307692307692308
 40
0.7307692307692308
 40
0.7307692307692308
 40
0.7692307692307693
 40
0.7692307692307693
 40
0.7692307692307693
 40
0.8076923076923077
 40
0.8076923076923077
 40
0.8076923076923077
 40
0.8461538461538463
 40
0.8461538461538463
 40
0.8461538461538463
 40
0.8846153846153847
 40
0.8846153846153847
 40
0.8846153846153847
 40
0.9230769230769231
 40
0.9230769230769231
 40
0.9230769230769231
 40
0.9615384615384616
 40
0.9615384615384616
 40
0.9615384615384616
 40
1.0
 40
1.0
 40
1.0
 40
1.0
 10
-14.0089
 20
0.2837
 30
0.0
 10
-14.0089
 20
0.0693
 30
0.0
 10
-14.0125
 20
-0.1447
 30
0.0
 10
-14.0081
 20
-0.3591
 30
0.0
 10
-14.0012
 20
-0.7161
 30
0.0
 10
-13.8609
 20
-0.8576
 30
0.0
 10
-13.5109
 20
-0.8709
 30
0.0
 10
-13.3524
 20
-0.8765
 30
0.0
 10
-13.1938
 20
-0.8842
 30
0.0
 10
-13.035
 20
-0.891
 30
0.0
 10
-12.8185
 20
-0.9007
 30
0.0
 10
-12.6837
 20
-0.7869
 30
0.0
 10
-12.7107
 20
-0.5808
 30
0.0
 10
-12.7759
 20
-0.0868
 30
0.0
 10
-12.3506
 20
0.0568
 30
0.0
 10
-12.1305
 20
0.3464
 30
0.0
 10
-12.1105
 20
0.3417
 30
0.0
 10
-12.0899
 20
0.3364
 30
0.0
 10
-12.0699
 20
0.3316
 30
0.0
 10
-12.0634
 20
0.274
 30
0.0
 10
-12.0509
 20
0.2161
 30
0.0
 10
-12.0509
 20
0.1582
 30
0.0
 10
-12.0501
 20
-0.0659
 30
0.0
 10
-12.0589
 20
-0.29
 30
0.0
 10
-12.0533
 20
-0.5141
 30
0.0
 10
-12.0392
 20
-1.0793
 30
0.0
 10
-12.4536
 20
-1.5327
 30
0.0
 10
-13.0208
 20
-1.5516
 30
0.0
 10
-13.3379
 20
-1.5621
 30
0.0
 10
-13.6549
 20
-1.5536
 30
0.0
 10
-13.9989
 20
-1.5536
 30
0.0
 10
-14.0488
 20
-1.9161
 30
0.0
 10
-14.2347
 20
-2.2327
 30
0.0
 10
-14.5831
 20
-2.4283
 30
0.0
 10
-14.7246
 20
-2.5071
 30
0.0
 10
-14.8868
 20
-2.5839
 30
0.0
 10
-15.044
 20
-2.5936
 30
0.0
 10
-15.4174
 20
-2.6161
 30
0.0
 10
-15.7976
 20
-2.6326
 30
0.0
 10
-16.1677
 20
-2.5887
 30
0.0
 10
-16.644
 20
-2.532
 30
0.0
 10
-16.9752
 20
-2.1249
 30
0.0
 10
-16.9997
 20
-1.6457
 30
0.0
 10
-17.0069
 20
-1.509
 30
0.0
 10
-16.9808
 20
-1.3674
 30
0.0
 10
-17.005
 20
-1.2342
 30
0.0
 10
-17.0979
 20
-0.7245
 30
0.0
 10
-16.6679
 20
-0.5584
 30
0.0
 10
-16.4276
 20
-0.2679
 30
0.0
 10
-16.4023
 20
-0.2731
 30
0.0
 10
-16.3769
 20
-0.2783
 30
0.0
 10
-16.3512
 20
-0.284
 30
0.0
 10
-16.3512
 20
-0.5611
 30
0.0
 10
-16.3508
 20
-0.8383
 30
0.0
 10
-16.3516
 20
-1.1156
 30
0.0
 10
-16.3516
 20
-1.2817
 30
0.0
 10
-16.3572
 20
-1.4482
 30
0.0
 10
-16.3536
 20
-1.6144
 30
0.0
 10
-16.3483
 20
-1.8364
 30
0.0
 10
-16.235
 20
-1.9459
 30
0.0
 10
-16.0165
 20
-1.9463
 30
0.0
 10
-15.7413
 20
-1.9471
 30
0.0
 10
-15.4666
 20
-1.9475
 30
0.0
 10
-15.1914
 20
-1.9463
 30
0.0
 10
-14.8244
 20
-1.9446
 30
0.0
 10
-14.6751
 20
-1.7979
 30
0.0
 10
-14.6727
 20
-1.4353
 30
0.0
 10
-14.6711
 20
-1.1461
 30
0.0
 10
-14.6647
 20
-0.856
 30
0.0
 10
-14.6768
 20
-0.5668
 30
0.0
 10
-14.6853
 20
-0.3652
 30
0.0
 10
-14.6353
 20
-0.2108
 30
0.0
 10
-14.476
 20
-0.0712
 30
0.0
 10
-14.338
 20
0.0491
 30
0.0
 10
-14.2379
 20
0.2129
 30
0.0
 10
-14.1212
 20
0.3573
 30
0.0
 10
-14.0838
 20
0.3328
 30
0.0
 10
-14.0464
 20
0.3082
 30
0.0
 10
-14.0089
 20
0.2837
 30
0.0
  0
SPLINE
  5
6E
330
1F
100
AcDbEntity
  8
Layer 1
 62
   240
100
AcDbSpline
210
0.0
220
0.0
230
1.0
 70
    11
 71
     3
 72
    62
 73
    58
 74
     0
 42
0.0000000001
 43
0.0000000001
 40
0.0
 40
0.0
 40
0.0
 40
0.0
 40
0.0526315789473684
 40
0.0526315789473684
 40
0.0526315789473684
 40
0.1052631578947368
 40
0.1052631578947368
 40
0.1052631578947368
 40
0.1578947368421053
 40
0.1578947368421053
 40
0.1578947368421053
 40
0.2105263157894737
 40
0.2105263157894737
 40
0.2105263157894737
 40
0.2631578947368421
 40
0.2631578947368421
 40
0.2631578947368421
 40
0.3157894736842105
 40
0.3157894736842105
 40
0.3157894736842105
 40
0.3684210526315789
 40
0.3684210526315789
 40
0.3684210526315789
 40
0.4210526315789473
 40
0.4210526315789473
 40
0.4210526315789473
 40
0.4736842105263158
 40
0.4736842105263158
 40
0.4736842105263158
 40
0.5263157894736842
 40
0.5263157894736842
 40
0.5263157894736842
 40
0.5789473684210527
 40
0.5789473684210527
 40
0.5789473684210527
 40
0.631578947368421
 40
0.631578947368421
 40
0.631578947368421
 40
0.6842105263157894
 40
0.6842105263157894
 40
0.6842105263157894
 40
0.7368421052631579
 40
0.7368421052631579
 40
0.7368421052631579
 40
0.7894736842105263
 40
0.7894736842105263
 40
0.7894736842105263
 40
0.8421052631578947
 40
0.8421052631578947
 40
0.8421052631578947
 40
0.894736842105263
 40
0.894736842105263
 40
0.894736842105263
 40
0.9473684210526315
 40
0.9473684210526315
 40
0.9473684210526315
 40
1.0
 40
1.0
 40
1.0
 40
1.0
 10
-7.6291
 20
0.3307
 30
0.0
 10
-7.6291
 20
0.1178
 30
0.0
 10
-7.6299
 20
-0.095
 30
0.0
 10
-7.6291
 20
-0.3078
 30
0.0
 10
-7.6275
 20
-0.7555
 30
0.0
 10
-7.539
 20
-0.859
 30
0.0
 10
-7.0933
 20
-0.8671
 30
0.0
 10
-6.1897
 20
-0.8831
 30
0.0
 10
-5.2853
 20
-0.8876
 30
0.0
 10
-4.3814
 20
-0.8935
 30
0.0
 10
-4.2051
 20
-0.8948
 30
0.0
 10
-4.0269
 20
-0.8263
 30
0.0
 10
-4.0546
 20
-0.6317
 30
0.0
 10
-4.1263
 20
-0.1267
 30
0.0
 10
-3.7271
 20
0.0555
 30
0.0
 10
-3.4258
 20
0.3898
 30
0.0
 10
-3.4089
 20
0.276
 30
0.0
 10
-3.3937
 20
0.2196
 30
0.0
 10
-3.3932
 20
0.163
 30
0.0
 10
-3.3913
 20
-0.054
 30
0.0
 10
-3.4161
 20
-0.2733
 30
0.0
 10
-3.3913
 20
-0.4872
 30
0.0
 10
-3.326
 20
-1.0488
 30
0.0
 10
-3.8692
 20
-1.575
 30
0.0
 10
-4.4175
 20
-1.5615
 30
0.0
 10
-5.4446
 20
-1.5357
 30
0.0
 10
-6.4725
 20
-1.5437
 30
0.0
 10
-7.5
 20
-1.5473
 30
0.0
 10
-7.5523
 20
-1.5473
 30
0.0
 10
-7.6477
 20
-1.6355
 30
0.0
 10
-7.6501
 20
-1.6858
 30
0.0
 10
-7.675
 20
-2.2473
 30
0.0
 10
-8.2527
 20
-2.6996
 30
0.0
 10
-8.7645
 20
-2.6391
 30
0.0
 10
-8.9636
 20
-2.6159
 30
0.0
 10
-9.168
 20
-2.6356
 30
0.0
 10
-9.3989
 20
-2.6356
 30
0.0
 10
-9.3731
 20
-2.5744
 30
0.0
 10
-9.3663
 20
-2.5233
 30
0.0
 10
-9.3373
 20
-2.4935
 30
0.0
 10
-9.1209
 20
-2.2694
 30
0.0
 10
-8.9584
 20
-1.9883
 30
0.0
 10
-8.6055
 20
-1.9223
 30
0.0
 10
-8.4024
 20
-1.8844
 30
0.0
 10
-8.3034
 20
-1.7131
 30
0.0
 10
-8.3042
 20
-1.4983
 30
0.0
 10
-8.3054
 20
-1.1362
 30
0.0
 10
-8.3058
 20
-0.7745
 30
0.0
 10
-8.3027
 20
-0.4128
 30
0.0
 10
-8.3019
 20
-0.3424
 30
0.0
 10
-8.3082
 20
-0.2499
 30
0.0
 10
-8.2684
 20
-0.206
 30
0.0
 10
-8.0914
 20
-0.0113
 30
0.0
 10
-7.8991
 20
0.1697
 30
0.0
 10
-7.712
 20
0.356
 30
0.0
 10
-7.6847
 20
0.3476
 30
0.0
 10
-7.657
 20
0.3391
 30
0.0
 10
-7.6291
 20
0.3307
 30
0.0
  0
SPLINE
  5
6F
330
1F
100
AcDbEntity
  8
Layer 1
 62
   240
100
AcDbSpline
210
0.0
220
0.0
230
1.0
 70
    11
 71
     3
 72
    77
 73
    73
 74
     0
 42
0.0000000001
 43
0.0000000001
 40
0.0
 40
0.0
 40
0.0
 40
0.0
 40
0.0416666666666667
 40
0.0416666666666667
 40
0.0416666666666667
 40
0.0833333333333333
 40
0.0833333333333333
 40
0.0833333333333333
 40
0.125
 40
0.125
 40
0.125
 40
0.1666666666666667
 40
0.1666666666666667
 40
0.1666666666666667
 40
0.2083333333333333
 40
0.2083333333333333
 40
0.2083333333333333
 40
0.25
 40
0.25
 40
0.25
 40
0.2916666666666666
 40
0.2916666666666666
 40
0.2916666666666666
 40
0.3333333333333333
 40
0.3333333333333333
 40
0.3333333333333333
 40
0.375
 40
0.375
 40
0.375
 40
0.4166666666666666
 40
0.4166666666666666
 40
0.4166666666666666
 40
0.4583333333333333
 40
0.4583333333333333
 40
0.4583333333333333
 40
0.5
 40
0.5
 40
0.5
 40
0.5416666666666666
 40
0.5416666666666666
 40
0.5416666666666666
 40
0.5833333333333333
 40
0.5833333333333333
 40
0.5833333333333333
 40
0.625
 40
0.625
 40
0.625
 40
0.6666666666666666
 40
0.6666666666666666
 40
0.6666666666666666
 40
0.7083333333333333
 40
0.7083333333333333
 40
0.7083333333333333
 40
0.75
 40
0.75
 40
0.75
 40
0.7916666666666666
 40
0.7916666666666666
 40
0.7916666666666666
 40
0.8333333333333333
 40
0.8333333333333333
 40
0.8333333333333333
 40
0.875
 40
0.875
 40
0.875
 40
0.9166666666666666
 40
0.9166666666666666
 40
0.9166666666666666
 40
0.9583333333333333
 40
0.9583333333333333
 40
0.9583333333333333
 40
1.0
 40
1.0
 40
1.0
 40
1.0
 10
0.8486
 20
0.325
 30
0.0
 10
0.5211
 20
0.0594
 30
0.0
 10
0.3912
 20
-0.3706
 30
0.0
 10
-0.0976
 20
-0.2906
 30
0.0
 10
-0.1889
 20
-0.2756
 30
0.0
 10
-0.2887
 20
-0.2766
 30
0.0
 10
-0.3784
 20
-0.2966
 30
0.0
 10
-0.4428
 20
-0.3115
 30
0.0
 10
-0.4972
 20
-0.3711
 30
0.0
 10
-0.5559
 20
-0.4112
 30
0.0
 10
-0.4954
 20
-0.4575
 30
0.0
 10
-0.4416
 20
-0.5223
 30
0.0
 10
-0.3736
 20
-0.5452
 30
0.0
 10
-0.3012
 20
-0.5698
 30
0.0
 10
-0.2159
 20
-0.5529
 30
0.0
 10
-0.1362
 20
-0.5561
 30
0.0
 10
0.3373
 20
-0.5763
 30
0.0
 10
0.6857
 20
-0.8639
 30
0.0
 10
0.7931
 20
-1.3213
 30
0.0
 10
0.8816
 20
-1.6975
 30
0.0
 10
0.6909
 20
-2.1042
 30
0.0
 10
0.2817
 20
-2.2982
 30
0.0
 10
0.0549
 20
-2.4056
 30
0.0
 10
-0.2058
 20
-2.451
 30
0.0
 10
-0.4569
 20
-2.4933
 30
0.0
 10
-0.6326
 20
-2.523
 30
0.0
 10
-0.8177
 20
-2.4984
 30
0.0
 10
-0.9988
 20
-2.5001
 30
0.0
 10
-1.6308
 20
-2.506
 30
0.0
 10
-2.0882
 20
-2.0294
 30
0.0
 10
-2.0604
 20
-1.3934
 30
0.0
 10
-2.0585
 20
-1.3426
 30
0.0
 10
-2.0435
 20
-1.2887
 30
0.0
 10
-2.0556
 20
-1.242
 30
0.0
 10
-2.1856
 20
-0.7251
 30
0.0
 10
-1.811
 20
-0.4688
 30
0.0
 10
-1.5081
 20
-0.176
 30
0.0
 10
-1.4965
 20
-0.1642
 30
0.0
 10
-1.4679
 20
-0.1695
 30
0.0
 10
-1.4015
 20
-0.1615
 30
0.0
 10
-1.4015
 20
-0.4833
 30
0.0
 10
-1.402
 20
-0.7962
 30
0.0
 10
-1.4015
 20
-1.1093
 30
0.0
 10
-1.4015
 20
-1.2541
 30
0.0
 10
-1.4035
 20
-1.3989
 30
0.0
 10
-1.3994
 20
-1.5438
 30
0.0
 10
-1.3942
 20
-1.7337
 30
0.0
 10
-1.2977
 20
-1.8423
 30
0.0
 10
-1.1034
 20
-1.8439
 30
0.0
 10
-0.8137
 20
-1.8463
 30
0.0
 10
-0.5241
 20
-1.8447
 30
0.0
 10
-0.2344
 20
-1.8407
 30
0.0
 10
-0.1776
 20
-1.8398
 30
0.0
 10
-0.1197
 20
-1.8245
 30
0.0
 10
-0.0643
 20
-1.8097
 30
0.0
 10
0.0871
 20
-1.7695
 30
0.0
 10
0.2009
 20
-1.6677
 30
0.0
 10
0.1574
 20
-1.5156
 30
0.0
 10
0.1277
 20
-1.4114
 30
0.0
 10
0.021
 20
-1.3012
 30
0.0
 10
-0.0799
 20
-1.2521
 30
0.0
 10
-0.1905
 20
-1.1978
 30
0.0
 10
-0.3342
 20
-1.2127
 30
0.0
 10
-0.4633
 20
-1.1941
 30
0.0
 10
-0.868
 20
-1.1359
 30
0.0
 10
-1.1524
 20
-0.8241
 30
0.0
 10
-1.1754
 20
-0.4157
 30
0.0
 10
-1.1963
 20
-0.0468
 30
0.0
 10
-0.9762
 20
0.2634
 30
0.0
 10
-0.5542
 20
0.3133
 30
0.0
 10
-0.1169
 20
0.3651
 30
0.0
 10
0.3312
 20
0.325
 30
0.0
 10
0.8486
 20
0.325
 30
0.0
  0
SPLINE
  5
70
330
1F
100
AcDbEntity
  8
Layer 1
 62
   240
100
AcDbSpline
210
0.0
220
0.0
230
1.0
 70
    11
 71
     3
 72
    20
 73
    16
 74
     0
 42
0.0000000001
 43
0.0000000001
 40
0.0
 40
0.0
 40
0.0
 40
0.0
 40
0.2
 40
0.2
 40
0.2
 40
0.4
 40
0.4
 40
0.4
 40
0.6000000000000001
 40
0.6000000000000001
 40
0.6000000000000001
 40
0.8
 40
0.8
 40
0.8
 40
1.0
 40
1.0
 40
1.0
 40
1.0
 10
-9.9703
 20
-0.6238
 30
0.0
 10
-9.9776
 20
-0.2517
 30
0.0
 10
-9.9776
 20
-0.2514
 30
0.0
 10
-10.3215
 20
-0.2722
 30
0.0
 10
-10.3859
 20
-0.2762
 30
0.0
 10
-10.4511
 20
-0.2803
 30
0.0
 10
-10.5147
 20
-0.2928
 30
0.0
 10
-10.6728
 20
-0.3238
 30
0.0
 10
-10.7468
 20
-0.4215
 30
0.0
 10
-10.7388
 20
-0.584
 30
0.0
 10
-10.7275
 20
-0.8102
 30
0.0
 10
-10.6285
 20
-0.8604
 30
0.0
 10
-10.2588
 20
-0.8777
 30
0.0
 10
-10.0375
 20
-0.8882
 30
0.0
 10
-9.8939
 20
-0.8589
 30
0.0
 10
-9.9703
 20
-0.6238
 30
0.0
  0
SPLINE
  5
71
330
1F
100
AcDbEntity
  8
Layer 1
 62
   240
100
AcDbSpline
210
0.0
220
0.0
230
1.0
 70
    11
 71
     3
 72
    41
 73
    37
 74
     0
 42
0.0000000001
 43
0.0000000001
 40
0.0
 40
0.0
 40
0.0
 40
0.0
 40
0.0833333333333333
 40
0.0833333333333333
 40
0.0833333333333333
 40
0.1666666666666667
 40
0.1666666666666667
 40
0.1666666666666667
 40
0.25
 40
0.25
 40
0.25
 40
0.3333333333333333
 40
0.3333333333333333
 40
0.3333333333333333
 40
0.4166666666666666
 40
0.4166666666666666
 40
0.4166666666666666
 40
0.5
 40
0.5
 40
0.5
 40
0.5833333333333333
 40
0.5833333333333333
 40
0.5833333333333333
 40
0.6666666666666666
 40
0.6666666666666666
 40
0.6666666666666666
 40
0.75
 40
0.75
 40
0.75
 40
0.8333333333333333
 40
0.8333333333333333
 40
0.8333333333333333
 40
0.9166666666666666
 40
0.9166666666666666
 40
0.9166666666666666
 40
1.0
 40
1.0
 40
1.0
 40
1.0
 10
-11.077
 20
-2.5408
 30
0.0
 10
-10.8204
 20
-2.3188
 30
0.0
 10
-10.6808
 20
-1.9656
 30
0.0
 10
-10.2717
 20
-1.9093
 30
0.0
 10
-10.1611
 20
-1.894
 30
0.0
 10
-10.0681
 20
-1.7479
 30
0.0
 10
-9.9667
 20
-1.6623
 30
0.0
 10
-9.98
 20
-1.6316
 30
0.0
 10
-9.9933
 20
-1.601
 30
0.0
 10
-10.0065
 20
-1.5705
 30
0.0
 10
-10.1453
 20
-1.5633
 30
0.0
 10
-10.2841
 20
-1.5564
 30
0.0
 10
-10.4229
 20
-1.5496
 30
0.0
 10
-10.9169
 20
-1.5243
 30
0.0
 10
-11.2678
 20
-1.2474
 30
0.0
 10
-11.3675
 20
-0.8049
 30
0.0
 10
-11.4693
 20
-0.3519
 30
0.0
 10
-11.2939
 20
0.0669
 30
0.0
 10
-10.847
 20
0.2749
 30
0.0
 10
-10.484
 20
0.4438
 30
0.0
 10
-10.0758
 20
0.423
 30
0.0
 10
-9.7024
 20
0.3031
 30
0.0
 10
-9.4469
 20
0.221
 30
0.0
 10
-9.3242
 20
-0.0345
 30
0.0
 10
-9.3137
 20
-0.3004
 30
0.0
 10
-9.2969
 20
-0.7196
 30
0.0
 10
-9.2997
 20
-1.1404
 30
0.0
 10
-9.3118
 20
-1.5601
 30
0.0
 10
-9.3295
 20
-2.2053
 30
0.0
 10
-9.784
 20
-2.6346
 30
0.0
 10
-10.4294
 20
-2.6334
 30
0.0
 10
-10.6406
 20
-2.633
 30
0.0
 10
-10.8513
 20
-2.6334
 30
0.0
 10
-11.0625
 20
-2.6334
 30
0.0
 10
-11.0625
 20
-2.6334
 30
0.0
 10
-11.077
 20
-2.5408
 30
0.0
 10
-11.077
 20
-2.5408
 30
0.0
  0
SPLINE
  5
72
330
1F
100
AcDbEntity
  8
Layer 1
 62
   240
100
AcDbSpline
210
0.0
220
0.0
230
1.0
 70
    11
 71
     3
 72
    32
 73
    28
 74
     0
 42
0.0000000001
 43
0.0000000001
 40
0.0
 40
0.0
 40
0.0
 40
0.0
 40
0.1111111111111111
 40
0.1111111111111111
 40
0.1111111111111111
 40
0.2222222222222222
 40
0.2222222222222222
 40
0.2222222222222222
 40
0.3333333333333333
 40
0.3333333333333333
 40
0.3333333333333333
 40
0.4444444444444444
 40
0.4444444444444444
 40
0.4444444444444444
 40
0.5555555555555556
 40
0.5555555555555556
 40
0.5555555555555556
 40
0.6666666666666666
 40
0.6666666666666666
 40
0.6666666666666666
 40
0.7777777777777777
 40
0.7777777777777777
 40
0.7777777777777777
 40
0.8888888888888888
 40
0.8888888888888888
 40
0.8888888888888888
 40
1.0
 40
1.0
 40
1.0
 40
1.0
 10
9.8098
 20
2.1079
 30
0.0
 10
9.8098
 20
2.1079
 30
0.0
 10
9.8098
 20
1.535
 30
0.0
 10
9.8098
 20
1.535
 30
0.0
 10
9.8094
 20
0.5598
 30
0.0
 10
9.8114
 20
-0.415
 30
0.0
 10
9.8022
 20
-1.3898
 30
0.0
 10
9.8014
 20
-1.4454
 30
0.0
 10
9.7116
 20
-1.5009
 30
0.0
 10
9.661
 20
-1.5539
 30
0.0
 10
9.6537
 20
-1.5616
 30
0.0
 10
9.6332
 20
-1.556
 30
0.0
 10
9.6183
 20
-1.5568
 30
0.0
 10
9.1645
 20
-1.5781
 30
0.0
 10
9.1625
 20
-1.5781
 30
0.0
 10
9.1613
 20
-1.1279
 30
0.0
 10
9.1589
 20
-0.2815
 30
0.0
 10
9.1585
 20
0.5654
 30
0.0
 10
9.1597
 20
1.4119
 30
0.0
 10
9.1597
 20
1.4673
 30
0.0
 10
9.1597
 20
1.5414
 30
0.0
 10
9.1923
 20
1.576
 30
0.0
 10
9.3689
 20
1.7619
 30
0.0
 10
9.5564
 20
1.9384
 30
0.0
 10
9.7398
 20
2.1179
 30
0.0
 10
9.7635
 20
2.1148
 30
0.0
 10
9.7864
 20
2.1114
 30
0.0
 10
9.8098
 20
2.1079
 30
0.0
  0
SPLINE
  5
73
330
1F
100
AcDbEntity
  8
Layer 1
 62
   240
100
AcDbSpline
210
0.0
220
0.0
230
1.0
 70
    11
 71
     3
 72
    35
 73
    31
 74
     0
 42
0.0000000001
 43
0.0000000001
 40
0.0
 40
0.0
 40
0.0
 40
0.0
 40
0.1
 40
0.1
 40
0.1
 40
0.2
 40
0.2
 40
0.2
 40
0.3
 40
0.3
 40
0.3
 40
0.4
 40
0.4
 40
0.4
 40
0.5
 40
0.5
 40
0.5
 40
0.6000000000000001
 40
0.6000000000000001
 40
0.6000000000000001
 40
0.7000000000000001
 40
0.7000000000000001
 40
0.7000000000000001
 40
0.8
 40
0.8
 40
0.8
 40
0.9
 40
0.9
 40
0.9
 40
1.0
 40
1.0
 40
1.0
 40
1.0
 10
-3.4925
 20
-2.2468
 30
0.0
 10
-3.6003
 20
-2.3124
 30
0.0
 10
-3.7219
 20
-2.3535
 30
0.0
 10
-3.7943
 20
-2.4375
 30
0.0
 10
-3.9476
 20
-2.6146
 30
0.0
 10
-4.0719
 20
-2.6323
 30
0.0
 10
-4.217
 20
-2.4359
 30
0.0
 10
-4.3221
 20
-2.2943
 30
0.0
 10
-4.4215
 20
-2.3297
 30
0.0
 10
-4.5353
 20
-2.4464
 30
0.0
 10
-4.7289
 20
-2.6444
 30
0.0
 10
-4.7281
 20
-2.6302
 30
0.0
 10
-5.0394
 20
-2.3374
 30
0.0
 10
-5.206
 20
-2.1801
 30
0.0
 10
-5.0978
 20
-2.0888
 30
0.0
 10
-4.9964
 20
-1.9825
 30
0.0
 10
-4.9614
 20
-1.9455
 30
0.0
 10
-4.9159
 20
-1.9182
 30
0.0
 10
-4.8866
 20
-1.8779
 30
0.0
 10
-4.7663
 20
-1.7126
 30
0.0
 10
-4.6544
 20
-1.742
 30
0.0
 10
-4.5482
 20
-1.8887
 30
0.0
 10
-4.4376
 20
-2.0417
 30
0.0
 10
-4.3326
 20
-2.0554
 30
0.0
 10
-4.2107
 20
-1.8976
 30
0.0
 10
-4.0614
 20
-1.7038
 30
0.0
 10
-3.9197
 20
-1.7396
 30
0.0
 10
-3.7846
 20
-1.9226
 30
0.0
 10
-3.7211
 20
-2.0083
 30
0.0
 10
-3.6422
 20
-2.0819
 30
0.0
 10
-3.4925
 20
-2.2468
 30
0.0
  0
SPLINE
  5
74
330
1F
100
AcDbEntity
  8
Layer 1
 62
   240
100
AcDbSpline
210
0.0
220
0.0
230
1.0
 70
    11
 71
     3
 72
    38
 73
    34
 74
     0
 42
0.0000000001
 43
0.0000000001
 40
0.0
 40
0.0
 40
0.0
 40
0.0
 40
0.0909090909090909
 40
0.0909090909090909
 40
0.0909090909090909
 40
0.1818181818181818
 40
0.1818181818181818
 40
0.1818181818181818
 40
0.2727272727272727
 40
0.2727272727272727
 40
0.2727272727272727
 40
0.3636363636363636
 40
0.3636363636363636
 40
0.3636363636363636
 40
0.4545454545454546
 40
0.4545454545454546
 40
0.4545454545454546
 40
0.5454545454545454
 40
0.5454545454545454
 40
0.5454545454545454
 40
0.6363636363636364
 40
0.6363636363636364
 40
0.6363636363636364
 40
0.7272727272727273
 40
0.7272727272727273
 40
0.7272727272727273
 40
0.8181818181818182
 40
0.8181818181818182
 40
0.8181818181818182
 40
0.9090909090909092
 40
0.9090909090909092
 40
0.9090909090909092
 40
1.0
 40
1.0
 40
1.0
 40
1.0
 10
-13.1524
 20
-2.3175
 30
0.0
 10
-13.2731
 20
-2.4177
 30
0.0
 10
-13.3882
 20
-2.513
 30
0.0
 10
-13.5129
 20
-2.6169
 30
0.0
 10
-13.5737
 20
-2.5642
 30
0.0
 10
-13.6288
 20
-2.5195
 30
0.0
 10
-13.6803
 20
-2.4713
 30
0.0
 10
-13.9872
 20
-2.1856
 30
0.0
 10
-13.9808
 20
-2.19
 30
0.0
 10
-13.6891
 20
-1.8878
 30
0.0
 10
-13.558
 20
-1.7514
 30
0.0
 10
-13.4526
 20
-1.7346
 30
0.0
 10
-13.3367
 20
-1.8843
 30
0.0
 10
-13.21
 20
-2.0484
 30
0.0
 10
-13.0929
 20
-2.0516
 30
0.0
 10
-12.9666
 20
-1.8838
 30
0.0
 10
-12.8467
 20
-1.7242
 30
0.0
 10
-12.7272
 20
-1.725
 30
0.0
 10
-12.6086
 20
-1.8919
 30
0.0
 10
-12.5631
 20
-1.9559
 30
0.0
 10
-12.5052
 20
-2.0121
 30
0.0
 10
-12.4468
 20
-2.0653
 30
0.0
 10
-12.3482
 20
-2.155
 30
0.0
 10
-12.3599
 20
-2.2367
 30
0.0
 10
-12.4525
 20
-2.3196
 30
0.0
 10
-12.4633
 20
-2.3292
 30
0.0
 10
-12.4714
 20
-2.3417
 30
0.0
 10
-12.4814
 20
-2.3518
 30
0.0
 10
-12.757
 20
-2.6333
 30
0.0
 10
-12.757
 20
-2.633
 30
0.0
 10
-13.06
 20
-2.3791
 30
0.0
 10
-13.0861
 20
-2.357
 30
0.0
 10
-13.1174
 20
-2.3405
 30
0.0
 10
-13.1524
 20
-2.3175
 30
0.0
  0
SPLINE
  5
75
330
1F
100
AcDbEntity
  8
Layer 1
 62
   240
100
AcDbSpline
210
0.0
220
0.0
230
1.0
 70
    11
 71
     3
 72
    26
 73
    22
 74
     0
 42
0.0000000001
 43
0.0000000001
 40
0.0
 40
0.0
 40
0.0
 40
0.0
 40
0.1428571428571428
 40
0.1428571428571428
 40
0.1428571428571428
 40
0.2857142857142857
 40
0.2857142857142857
 40
0.2857142857142857
 40
0.4285714285714285
 40
0.4285714285714285
 40
0.4285714285714285
 40
0.5714285714285714
 40
0.5714285714285714
 40
0.5714285714285714
 40
0.7142857142857142
 40
0.7142857142857142
 40
0.7142857142857142
 40
0.8571428571428571
 40
0.8571428571428571
 40
0.8571428571428571
 40
1.0
 40
1.0
 40
1.0
 40
1.0
 10
-15.502
 20
-0.9557
 30
0.0
 10
-15.6573
 20
-0.7883
 30
0.0
 10
-15.7985
 20
-0.6692
 30
0.0
 10
-15.8891
 20
-0.5196
 30
0.0
 10
-15.9193
 20
-0.4704
 30
0.0
 10
-15.8279
 20
-0.3365
 30
0.0
 10
-15.7748
 20
-0.2524
 30
0.0
 10
-15.7379
 20
-0.1933
 30
0.0
 10
-15.6795
 20
-0.1338
 30
0.0
 10
-15.6171
 20
-0.108
 30
0.0
 10
-15.5515
 20
-0.081
 30
0.0
 10
-15.4469
 20
-0.0633
 30
0.0
 10
-15.399
 20
-0.0971
 30
0.0
 10
-15.2949
 20
-0.1707
 30
0.0
 10
-15.2149
 20
-0.279
 30
0.0
 10
-15.1275
 20
-0.3755
 30
0.0
 10
-15.1098
 20
-0.3953
 30
0.0
 10
-15.0873
 20
-0.4399
 30
0.0
 10
-15.0957
 20
-0.4507
 30
0.0
 10
-15.2189
 20
-0.6097
 30
0.0
 10
-15.3472
 20
-0.7645
 30
0.0
 10
-15.502
 20
-0.9557
 30
0.0
  0
SPLINE
  5
76
330
1F
100
AcDbEntity
  8
Layer 1
 62
   240
100
AcDbSpline
210
0.0
220
0.0
230
1.0
 70
    11
 71
     3
 72
    17
 73
    13
 74
     0
 42
0.0000000001
 43
0.0000000001
 40
0.0
 40
0.0
 40
0.0
 40
0.0
 40
0.25
 40
0.25
 40
0.25
 40
0.5
 40
0.5
 40
0.5
 40
0.75
 40
0.75
 40
0.75
 40
1.0
 40
1.0
 40
1.0
 40
1.0
 10
14.9129
 20
-2.6606
 30
0.0
 10
14.7564
 20
-2.4839
 30
0.0
 10
14.5227
 20
-2.3346
 30
0.0
 10
14.525
 20
-2.189
 30
0.0
 10
14.5274
 20
-2.0418
 30
0.0
 10
14.7636
 20
-1.8982
 30
0.0
 10
14.8973
 20
-1.7534
 30
0.0
 10
15.0409
 20
-1.8941
 30
0.0
 10
15.2842
 20
-2.0249
 30
0.0
 10
15.2995
 20
-2.1786
 30
0.0
 10
15.3128
 20
-2.3141
 30
0.0
 10
15.0722
 20
-2.475
 30
0.0
 10
14.9129
 20
-2.6606
 30
0.0
  0
SPLINE
  5
77
330
1F
100
AcDbEntity
  8
Layer 1
 62
   240
100
AcDbSpline
210
0.0
220
0.0
230
1.0
 70
    11
 71
     3
 72
    17
 73
    13
 74
     0
 42
0.0000000001
 43
0.0000000001
 40
0.0
 40
0.0
 40
0.0
 40
0.0
 40
0.25
 40
0.25
 40
0.25
 40
0.5
 40
0.5
 40
0.5
 40
0.75
 40
0.75
 40
0.75
 40
1.0
 40
1.0
 40
1.0
 40
1.0
 10
-3.9049
 20
-2.9725
 30
0.0
 10
-4.0911
 20
-3.1273
 30
0.0
 10
-4.2505
 20
-3.3583
 30
0.0
 10
-4.3897
 20
-3.3471
 30
0.0
 10
-4.5328
 20
-3.335
 30
0.0
 10
-4.7626
 20
-3.0835
 30
0.0
 10
-4.7586
 20
-2.9427
 30
0.0
 10
-4.7545
 20
-2.8023
 30
0.0
 10
-4.5067
 20
-2.5625
 30
0.0
 10
-4.3659
 20
-2.5625
 30
0.0
 10
-4.2239
 20
-2.563
 30
0.0
 10
-4.0819
 20
-2.8039
 30
0.0
 10
-3.9049
 20
-2.9725
 30
0.0
  0
SPLINE
  5
78
330
1F
100
AcDbEntity
  8
Layer 1
 62
   240
100
AcDbSpline
210
0.0
220
0.0
230
1.0
 70
    11
 71
     3
 72
    20
 73
    16
 74
     0
 42
0.0000000001
 43
0.0000000001
 40
0.0
 40
0.0
 40
0.0
 40
0.0
 40
0.2
 40
0.2
 40
0.2
 40
0.4
 40
0.4
 40
0.4
 40
0.6000000000000001
 40
0.6000000000000001
 40
0.6000000000000001
 40
0.8
 40
0.8
 40
0.8
 40
1.0
 40
1.0
 40
1.0
 40
1.0
 10
-10.3976
 20
-16.2386
 30
0.0
 10
-10.5277
 20
-16.3316
 30
0.0
 10
-10.6241
 20
-16.411
 30
0.0
 10
-10.6867
 20
-16.4776
 30
0.0
 10
-10.7717
 20
-16.5679
 30
0.0
 10
-10.8353
 20
-16.671
 30
0.0
 10
-10.8794
 20
-16.7869
 30
0.0
 10
-11.0588
 20
-16.5834
 30
0.0
 10
-11.2659
 20
-16.4393
 30
0.0
 10
-11.5027
 20
-16.3544
 30
0.0
 10
-11.2772
 20
-16.1957
 30
0.0
 10
-11.1122
 20
-16.0169
 30
0.0
 10
-11.0065
 20
-15.8189
 30
0.0
 10
-10.864
 20
-15.9858
 30
0.0
 10
-10.661
 20
-16.1254
 30
0.0
 10
-10.3976
 20
-16.2386
 30
0.0
  0
SPLINE
  5
79
330
1F
100
AcDbEntity
  8
Layer 1
 62
   240
100
AcDbSpline
210
0.0
220
0.0
230
1.0
 70
    11
 71
     3
 72
    41
 73
    37
 74
     0
 42
0.0000000001
 43
0.0000000001
 40
0.0
 40
0.0
 40
0.0
 40
0.0
 40
0.0833333333333333
 40
0.0833333333333333
 40
0.0833333333333333
 40
0.1666666666666667
 40
0.1666666666666667
 40
0.1666666666666667
 40
0.25
 40
0.25
 40
0.25
 40
0.3333333333333333
 40
0.3333333333333333
 40
0.3333333333333333
 40
0.4166666666666666
 40
0.4166666666666666
 40
0.4166666666666666
 40
0.5
 40
0.5
 40
0.5
 40
0.5833333333333333
 40
0.5833333333333333
 40
0.5833333333333333
 40
0.6666666666666666
 40
0.6666666666666666
 40
0.6666666666666666
 40
0.75
 40
0.75
 40
0.75
 40
0.8333333333333333
 40
0.8333333333333333
 40
0.8333333333333333
 40
0.9166666666666666
 40
0.9166666666666666
 40
0.9166666666666666
 40
1.0
 40
1.0
 40
1.0
 40
1.0
 10
-7.7015
 20
-16.7212
 30
0.0
 10
-7.7015
 20
-16.7212
 30
0.0
 10
-7.843
 20
-17.2649
 30
0.0
 10
-7.843
 20
-17.2649
 30
0.0
 10
-8.0562
 20
-17.2074
 30
0.0
 10
-8.2008
 20
-17.0989
 30
0.0
 10
-8.2777
 20
-16.941
 30
0.0
 10
-8.3372
 20
-16.8161
 30
0.0
 10
-8.3915
 20
-16.5314
 30
0.0
 10
-8.4397
 20
-16.0862
 30
0.0
 10
-8.5392
 20
-16.1419
 30
0.0
 10
-8.6591
 20
-16.1692
 30
0.0
 10
-8.7995
 20
-16.1692
 30
0.0
 10
-8.9
 20
-16.1692
 30
0.0
 10
-9.0056
 20
-16.1355
 30
0.0
 10
-9.1174
 20
-16.068
 30
0.0
 10
-9.2281
 20
-16.0004
 30
0.0
 10
-9.2988
 20
-15.9247
 30
0.0
 10
-9.3296
 20
-15.8408
 30
0.0
 10
-9.306
 20
-15.6766
 30
0.0
 10
-9.264
 20
-15.5242
 30
0.0
 10
-9.2024
 20
-15.3837
 30
0.0
 10
-9.0927
 20
-15.1319
 30
0.0
 10
-8.9472
 20
-15.006
 30
0.0
 10
-8.7646
 20
-15.006
 30
0.0
 10
-8.5464
 20
-15.006
 30
0.0
 10
-8.3997
 20
-15.0735
 30
0.0
 10
-8.3269
 20
-15.2076
 30
0.0
 10
-8.2828
 20
-15.287
 30
0.0
 10
-8.2419
 20
-15.4786
 30
0.0
 10
-8.2029
 20
-15.7815
 30
0.0
 10
-8.1587
 20
-16.1282
 30
0.0
 10
-8.1075
 20
-16.3544
 30
0.0
 10
-8.049
 20
-16.4603
 30
0.0
 10
-7.9947
 20
-16.5597
 30
0.0
 10
-7.8789
 20
-16.6464
 30
0.0
 10
-7.7015
 20
-16.7212
 30
0.0
  0
SPLINE
  5
7A
330
1F
100
AcDbEntity
  8
Layer 1
 62
   240
100
AcDbSpline
210
0.0
220
0.0
230
1.0
 70
    11
 71
     3
 72
    20
 73
    16
 74
     0
 42
0.0000000001
 43
0.0000000001
 40
0.0
 40
0.0
 40
0.0
 40
0.0
 40
0.2
 40
0.2
 40
0.2
 40
0.4
 40
0.4
 40
0.4
 40
0.6000000000000001
 40
0.6000000000000001
 40
0.6000000000000001
 40
0.8
 40
0.8
 40
0.8
 40
1.0
 40
1.0
 40
1.0
 40
1.0
 10
-8.5063
 20
-15.6966
 30
0.0
 10
-8.5258
 20
-15.6136
 30
0.0
 10
-8.5698
 20
-15.5443
 30
0.0
 10
-8.6396
 20
-15.4886
 30
0.0
 10
-8.7083
 20
-15.4321
 30
0.0
 10
-8.7893
 20
-15.4038
 30
0.0
 10
-8.8825
 20
-15.4038
 30
0.0
 10
-8.9544
 20
-15.4038
 30
0.0
 10
-9.0179
 20
-15.4622
 30
0.0
 10
-9.0722
 20
-15.5799
 30
0.0
 10
-8.9933
 20
-15.6903
 30
0.0
 10
-8.8815
 20
-15.745
 30
0.0
 10
-8.7381
 20
-15.745
 30
0.0
 10
-8.6325
 20
-15.745
 30
0.0
 10
-8.5546
 20
-15.7286
 30
0.0
 10
-8.5063
 20
-15.6966
 30
0.0
  0
SPLINE
  5
7B
330
1F
100
AcDbEntity
  8
Layer 1
 62
   240
100
AcDbSpline
210
0.0
220
0.0
230
1.0
 70
    11
 71
     3
 72
    23
 73
    19
 74
     0
 42
0.0000000001
 43
0.0000000001
 40
0.0
 40
0.0
 40
0.0
 40
0.0
 40
0.1666666666666667
 40
0.1666666666666667
 40
0.1666666666666667
 40
0.3333333333333333
 40
0.3333333333333333
 40
0.3333333333333333
 40
0.5
 40
0.5
 40
0.5
 40
0.6666666666666666
 40
0.6666666666666666
 40
0.6666666666666666
 40
0.8333333333333333
 40
0.8333333333333333
 40
0.8333333333333333
 40
1.0
 40
1.0
 40
1.0
 40
1.0
 10
-5.7098
 20
-16.4995
 30
0.0
 10
-5.7098
 20
-16.6345
 30
0.0
 10
-5.7242
 20
-16.8097
 30
0.0
 10
-5.7529
 20
-17.0259
 30
0.0
 10
-5.7529
 20
-17.0259
 30
0.0
 10
-6.0338
 20
-17.285
 30
0.0
 10
-6.0338
 20
-17.285
 30
0.0
 10
-6.0338
 20
-17.285
 30
0.0
 10
-6.0338
 20
-16.8407
 30
0.0
 10
-6.0338
 20
-16.8407
 30
0.0
 10
-6.0338
 20
-16.3581
 30
0.0
 10
-6.2389
 20
-15.9001
 30
0.0
 10
-6.65
 20
-15.4667
 30
0.0
 10
-6.65
 20
-15.4667
 30
0.0
 10
-6.2953
 20
-15.0288
 30
0.0
 10
-6.2953
 20
-15.0288
 30
0.0
 10
-5.9046
 20
-15.4768
 30
0.0
 10
-5.7098
 20
-15.9676
 30
0.0
 10
-5.7098
 20
-16.4995
 30
0.0
  0
SPLINE
  5
7C
330
1F
100
AcDbEntity
  8
Layer 1
 62
   240
100
AcDbSpline
210
0.0
220
0.0
230
1.0
 70
    11
 71
     3
 72
    38
 73
    34
 74
     0
 42
0.0000000001
 43
0.0000000001
 40
0.0
 40
0.0
 40
0.0
 40
0.0
 40
0.0909090909090909
 40
0.0909090909090909
 40
0.0909090909090909
 40
0.1818181818181818
 40
0.1818181818181818
 40
0.1818181818181818
 40
0.2727272727272727
 40
0.2727272727272727
 40
0.2727272727272727
 40
0.3636363636363636
 40
0.3636363636363636
 40
0.3636363636363636
 40
0.4545454545454546
 40
0.4545454545454546
 40
0.4545454545454546
 40
0.5454545454545454
 40
0.5454545454545454
 40
0.5454545454545454
 40
0.6363636363636364
 40
0.6363636363636364
 40
0.6363636363636364
 40
0.7272727272727273
 40
0.7272727272727273
 40
0.7272727272727273
 40
0.8181818181818182
 40
0.8181818181818182
 40
0.8181818181818182
 40
0.9090909090909092
 40
0.9090909090909092
 40
0.9090909090909092
 40
1.0
 40
1.0
 40
1.0
 40
1.0
 10
-2.8027
 20
-15.6647
 30
0.0
 10
-3.0149
 20
-15.8225
 30
0.0
 10
-3.1974
 20
-16.0862
 30
0.0
 10
-3.3511
 20
-16.4557
 30
0.0
 10
-3.4752
 20
-16.7504
 30
0.0
 10
-3.551
 20
-17.0204
 30
0.0
 10
-3.5798
 20
-17.2649
 30
0.0
 10
-3.5798
 20
-17.2649
 30
0.0
 10
-3.7756
 20
-17.2649
 30
0.0
 10
-3.7756
 20
-17.2649
 30
0.0
 10
-3.7971
 20
-17.046
 30
0.0
 10
-3.873
 20
-16.7741
 30
0.0
 10
-4.0032
 20
-16.4502
 30
0.0
 10
-4.1396
 20
-16.1117
 30
0.0
 10
-4.3395
 20
-15.8289
 30
0.0
 10
-4.6019
 20
-15.6018
 30
0.0
 10
-4.6019
 20
-15.6018
 30
0.0
 10
-4.3426
 20
-15.017
 30
0.0
 10
-4.3426
 20
-15.017
 30
0.0
 10
-4.1754
 20
-15.1857
 30
0.0
 10
-4.0278
 20
-15.4266
 30
0.0
 10
-3.9007
 20
-15.7386
 30
0.0
 10
-3.7971
 20
-15.9913
 30
0.0
 10
-3.7223
 20
-16.2468
 30
0.0
 10
-3.6751
 20
-16.5068
 30
0.0
 10
-3.627
 20
-16.2285
 30
0.0
 10
-3.5521
 20
-15.9685
 30
0.0
 10
-3.4526
 20
-15.7277
 30
0.0
 10
-3.3205
 20
-15.4102
 30
0.0
 10
-3.1594
 20
-15.1766
 30
0.0
 10
-2.9698
 20
-15.027
 30
0.0
 10
-2.9698
 20
-15.027
 30
0.0
 10
-2.8027
 20
-15.6647
 30
0.0
 10
-2.8027
 20
-15.6647
 30
0.0
  0
SPLINE
  5
7D
330
1F
100
AcDbEntity
  8
Layer 1
 62
   240
100
AcDbSpline
210
0.0
220
0.0
230
1.0
 70
    11
 71
     3
 72
    20
 73
    16
 74
     0
 42
0.0000000001
 43
0.0000000001
 40
0.0
 40
0.0
 40
0.0
 40
0.0
 40
0.2
 40
0.2
 40
0.2
 40
0.4
 40
0.4
 40
0.4
 40
0.6000000000000001
 40
0.6000000000000001
 40
0.6000000000000001
 40
0.8
 40
0.8
 40
0.8
 40
1.0
 40
1.0
 40
1.0
 40
1.0
 10
0.5122
 20
-16.2386
 30
0.0
 10
0.382
 20
-16.3316
 30
0.0
 10
0.2856
 20
-16.411
 30
0.0
 10
0.2231
 20
-16.4776
 30
0.0
 10
0.1381
 20
-16.5679
 30
0.0
 10
0.0744
 20
-16.671
 30
0.0
 10
0.0304
 20
-16.7869
 30
0.0
 10
-0.1491
 20
-16.5834
 30
0.0
 10
-0.3562
 20
-16.4393
 30
0.0
 10
-0.5929
 20
-16.3544
 30
0.0
 10
-0.3674
 20
-16.1957
 30
0.0
 10
-0.2024
 20
-16.0169
 30
0.0
 10
-0.0968
 20
-15.8189
 30
0.0
 10
0.0458
 20
-15.9858
 30
0.0
 10
0.2488
 20
-16.1254
 30
0.0
 10
0.5122
 20
-16.2386
 30
0.0
  0
SPLINE
  5
7E
330
1F
100
AcDbEntity
  8
Layer 1
 62
   240
100
AcDbSpline
210
0.0
220
0.0
230
1.0
 70
    11
 71
     3
 72
    20
 73
    16
 74
     0
 42
0.0000000001
 43
0.0000000001
 40
0.0
 40
0.0
 40
0.0
 40
0.0
 40
0.2
 40
0.2
 40
0.2
 40
0.4
 40
0.4
 40
0.4
 40
0.6000000000000001
 40
0.6000000000000001
 40
0.6000000000000001
 40
0.8
 40
0.8
 40
0.8
 40
1.0
 40
1.0
 40
1.0
 40
1.0
 10
2.915
 20
-16.2386
 30
0.0
 10
2.7848
 20
-16.3316
 30
0.0
 10
2.6885
 20
-16.411
 30
0.0
 10
2.6258
 20
-16.4776
 30
0.0
 10
2.5408
 20
-16.5679
 30
0.0
 10
2.4772
 20
-16.671
 30
0.0
 10
2.4331
 20
-16.7869
 30
0.0
 10
2.2537
 20
-16.5834
 30
0.0
 10
2.0466
 20
-16.4393
 30
0.0
 10
1.8098
 20
-16.3544
 30
0.0
 10
2.0353
 20
-16.1957
 30
0.0
 10
2.2005
 20
-16.0169
 30
0.0
 10
2.3061
 20
-15.8189
 30
0.0
 10
2.4485
 20
-15.9858
 30
0.0
 10
2.6515
 20
-16.1254
 30
0.0
 10
2.915
 20
-16.2386
 30
0.0
  0
SPLINE
  5
7F
330
1F
100
AcDbEntity
  8
Layer 1
 62
   240
100
AcDbSpline
210
0.0
220
0.0
230
1.0
 70
    11
 71
     3
 72
    23
 73
    19
 74
     0
 42
0.0000000001
 43
0.0000000001
 40
0.0
 40
0.0
 40
0.0
 40
0.0
 40
0.1666666666666667
 40
0.1666666666666667
 40
0.1666666666666667
 40
0.3333333333333333
 40
0.3333333333333333
 40
0.3333333333333333
 40
0.5
 40
0.5
 40
0.5
 40
0.6666666666666666
 40
0.6666666666666666
 40
0.6666666666666666
 40
0.8333333333333333
 40
0.8333333333333333
 40
0.8333333333333333
 40
1.0
 40
1.0
 40
1.0
 40
1.0
 10
5.1998
 20
-16.4995
 30
0.0
 10
5.1998
 20
-16.6345
 30
0.0
 10
5.1855
 20
-16.8097
 30
0.0
 10
5.1569
 20
-17.0259
 30
0.0
 10
5.1569
 20
-17.0259
 30
0.0
 10
4.8759
 20
-17.285
 30
0.0
 10
4.8759
 20
-17.285
 30
0.0
 10
4.8759
 20
-17.285
 30
0.0
 10
4.8759
 20
-16.8407
 30
0.0
 10
4.8759
 20
-16.8407
 30
0.0
 10
4.8759
 20
-16.3581
 30
0.0
 10
4.6708
 20
-15.9001
 30
0.0
 10
4.2597
 20
-15.4667
 30
0.0
 10
4.2597
 20
-15.4667
 30
0.0
 10
4.6145
 20
-15.0288
 30
0.0
 10
4.6145
 20
-15.0288
 30
0.0
 10
5.0051
 20
-15.4768
 30
0.0
 10
5.1998
 20
-15.9676
 30
0.0
 10
5.1998
 20
-16.4995
 30
0.0
  0
SPLINE
  5
80
330
1F
100
AcDbEntity
  8
Layer 1
 62
   240
100
AcDbSpline
210
0.0
220
0.0
230
1.0
 70
    11
 71
     3
 72
    23
 73
    19
 74
     0
 42
0.0000000001
 43
0.0000000001
 40
0.0
 40
0.0
 40
0.0
 40
0.0
 40
0.1666666666666667
 40
0.1666666666666667
 40
0.1666666666666667
 40
0.3333333333333333
 40
0.3333333333333333
 40
0.3333333333333333
 40
0.5
 40
0.5
 40
0.5
 40
0.6666666666666666
 40
0.6666666666666666
 40
0.6666666666666666
 40
0.8333333333333333
 40
0.8333333333333333
 40
0.8333333333333333
 40
1.0
 40
1.0
 40
1.0
 40
1.0
 10
8.9013
 20
-16.4995
 30
0.0
 10
8.9013
 20
-16.6345
 30
0.0
 10
8.8869
 20
-16.8097
 30
0.0
 10
8.8583
 20
-17.0259
 30
0.0
 10
8.8583
 20
-17.0259
 30
0.0
 10
8.5773
 20
-17.285
 30
0.0
 10
8.5773
 20
-17.285
 30
0.0
 10
8.5773
 20
-17.285
 30
0.0
 10
8.5773
 20
-16.8407
 30
0.0
 10
8.5773
 20
-16.8407
 30
0.0
 10
8.5773
 20
-16.3581
 30
0.0
 10
8.3722
 20
-15.9001
 30
0.0
 10
7.9611
 20
-15.4667
 30
0.0
 10
7.9611
 20
-15.4667
 30
0.0
 10
8.3159
 20
-15.0288
 30
0.0
 10
8.3159
 20
-15.0288
 30
0.0
 10
8.7065
 20
-15.4768
 30
0.0
 10
8.9013
 20
-15.9676
 30
0.0
 10
8.9013
 20
-16.4995
 30
0.0
  0
SPLINE
  5
81
330
1F
100
AcDbEntity
  8
Layer 1
 62
   240
100
AcDbSpline
210
0.0
220
0.0
230
1.0
 70
    11
 71
     3
 72
    38
 73
    34
 74
     0
 42
0.0000000001
 43
0.0000000001
 40
0.0
 40
0.0
 40
0.0
 40
0.0
 40
0.0909090909090909
 40
0.0909090909090909
 40
0.0909090909090909
 40
0.1818181818181818
 40
0.1818181818181818
 40
0.1818181818181818
 40
0.2727272727272727
 40
0.2727272727272727
 40
0.2727272727272727
 40
0.3636363636363636
 40
0.3636363636363636
 40
0.3636363636363636
 40
0.4545454545454546
 40
0.4545454545454546
 40
0.4545454545454546
 40
0.5454545454545454
 40
0.5454545454545454
 40
0.5454545454545454
 40
0.6363636363636364
 40
0.6363636363636364
 40
0.6363636363636364
 40
0.7272727272727273
 40
0.7272727272727273
 40
0.7272727272727273
 40
0.8181818181818182
 40
0.8181818181818182
 40
0.8181818181818182
 40
0.9090909090909092
 40
0.9090909090909092
 40
0.9090909090909092
 40
1.0
 40
1.0
 40
1.0
 40
1.0
 10
11.8085
 20
-15.6647
 30
0.0
 10
11.5963
 20
-15.8225
 30
0.0
 10
11.4138
 20
-16.0862
 30
0.0
 10
11.26
 20
-16.4557
 30
0.0
 10
11.1359
 20
-16.7504
 30
0.0
 10
11.06
 20
-17.0204
 30
0.0
 10
11.0313
 20
-17.2649
 30
0.0
 10
11.0313
 20
-17.2649
 30
0.0
 10
10.8355
 20
-17.2649
 30
0.0
 10
10.8355
 20
-17.2649
 30
0.0
 10
10.8141
 20
-17.046
 30
0.0
 10
10.7381
 20
-16.7741
 30
0.0
 10
10.608
 20
-16.4502
 30
0.0
 10
10.4716
 20
-16.1117
 30
0.0
 10
10.2717
 20
-15.8289
 30
0.0
 10
10.0092
 20
-15.6018
 30
0.0
 10
10.0092
 20
-15.6018
 30
0.0
 10
10.2686
 20
-15.017
 30
0.0
 10
10.2686
 20
-15.017
 30
0.0
 10
10.4357
 20
-15.1857
 30
0.0
 10
10.5834
 20
-15.4266
 30
0.0
 10
10.7105
 20
-15.7386
 30
0.0
 10
10.8141
 20
-15.9913
 30
0.0
 10
10.8889
 20
-16.2468
 30
0.0
 10
10.936
 20
-16.5068
 30
0.0
 10
10.9842
 20
-16.2285
 30
0.0
 10
11.059
 20
-15.9685
 30
0.0
 10
11.1585
 20
-15.7277
 30
0.0
 10
11.2907
 20
-15.4102
 30
0.0
 10
11.4517
 20
-15.1766
 30
0.0
 10
11.6413
 20
-15.027
 30
0.0
 10
11.6413
 20
-15.027
 30
0.0
 10
11.8085
 20
-15.6647
 30
0.0
 10
11.8085
 20
-15.6647
 30
0.0
  0
SPLINE
  5
82
330
1F
100
AcDbEntity
  8
Layer 1
 62
   240
100
AcDbSpline
210
0.0
220
0.0
230
1.0
 70
    11
 71
     3
 72
    23
 73
    19
 74
     0
 42
0.0000000001
 43
0.0000000001
 40
0.0
 40
0.0
 40
0.0
 40
0.0
 40
0.1666666666666667
 40
0.1666666666666667
 40
0.1666666666666667
 40
0.3333333333333333
 40
0.3333333333333333
 40
0.3333333333333333
 40
0.5
 40
0.5
 40
0.5
 40
0.6666666666666666
 40
0.6666666666666666
 40
0.6666666666666666
 40
0.8333333333333333
 40
0.8333333333333333
 40
0.8333333333333333
 40
1.0
 40
1.0
 40
1.0
 40
1.0
 10
13.7068
 20
-16.4995
 30
0.0
 10
13.7068
 20
-16.6345
 30
0.0
 10
13.6924
 20
-16.8097
 30
0.0
 10
13.6638
 20
-17.0259
 30
0.0
 10
13.6638
 20
-17.0259
 30
0.0
 10
13.3828
 20
-17.285
 30
0.0
 10
13.3828
 20
-17.285
 30
0.0
 10
13.3828
 20
-17.285
 30
0.0
 10
13.3828
 20
-16.8407
 30
0.0
 10
13.3828
 20
-16.8407
 30
0.0
 10
13.3828
 20
-16.3581
 30
0.0
 10
13.1778
 20
-15.9001
 30
0.0
 10
12.7667
 20
-15.4667
 30
0.0
 10
12.7667
 20
-15.4667
 30
0.0
 10
13.1214
 20
-15.0288
 30
0.0
 10
13.1214
 20
-15.0288
 30
0.0
 10
13.512
 20
-15.4768
 30
0.0
 10
13.7068
 20
-15.9676
 30
0.0
 10
13.7068
 20
-16.4995
 30
0.0
  0
SPLINE
  5
83
330
1F
100
AcDbEntity
  8
Layer 1
 62
   240
100
AcDbSpline
210
0.0
220
0.0
230
1.0
 70
    11
 71
     3
 72
    38
 73
    34
 74
     0
 42
0.0000000001
 43
0.0000000001
 40
0.0
 40
0.0
 40
0.0
 40
0.0
 40
0.0909090909090909
 40
0.0909090909090909
 40
0.0909090909090909
 40
0.1818181818181818
 40
0.1818181818181818
 40
0.1818181818181818
 40
0.2727272727272727
 40
0.2727272727272727
 40
0.2727272727272727
 40
0.3636363636363636
 40
0.3636363636363636
 40
0.3636363636363636
 40
0.4545454545454546
 40
0.4545454545454546
 40
0.4545454545454546
 40
0.5454545454545454
 40
0.5454545454545454
 40
0.5454545454545454
 40
0.6363636363636364
 40
0.6363636363636364
 40
0.6363636363636364
 40
0.7272727272727273
 40
0.7272727272727273
 40
0.7272727272727273
 40
0.8181818181818182
 40
0.8181818181818182
 40
0.8181818181818182
 40
0.9090909090909092
 40
0.9090909090909092
 40
0.9090909090909092
 40
1.0
 40
1.0
 40
1.0
 40
1.0
 10
16.614
 20
-15.6647
 30
0.0
 10
16.4018
 20
-15.8225
 30
0.0
 10
16.2193
 20
-16.0862
 30
0.0
 10
16.0655
 20
-16.4557
 30
0.0
 10
15.9415
 20
-16.7504
 30
0.0
 10
15.8656
 20
-17.0204
 30
0.0
 10
15.837
 20
-17.2649
 30
0.0
 10
15.837
 20
-17.2649
 30
0.0
 10
15.641
 20
-17.2649
 30
0.0
 10
15.641
 20
-17.2649
 30
0.0
 10
15.6196
 20
-17.046
 30
0.0
 10
15.5437
 20
-16.7741
 30
0.0
 10
15.4135
 20
-16.4502
 30
0.0
 10
15.2771
 20
-16.1117
 30
0.0
 10
15.0772
 20
-15.8289
 30
0.0
 10
14.8148
 20
-15.6018
 30
0.0
 10
14.8148
 20
-15.6018
 30
0.0
 10
15.0742
 20
-15.017
 30
0.0
 10
15.0742
 20
-15.017
 30
0.0
 10
15.2412
 20
-15.1857
 30
0.0
 10
15.3889
 20
-15.4266
 30
0.0
 10
15.5161
 20
-15.7386
 30
0.0
 10
15.6196
 20
-15.9913
 30
0.0
 10
15.6944
 20
-16.2468
 30
0.0
 10
15.7415
 20
-16.5068
 30
0.0
 10
15.7898
 20
-16.2285
 30
0.0
 10
15.8646
 20
-15.9685
 30
0.0
 10
15.964
 20
-15.7277
 30
0.0
 10
16.0963
 20
-15.4102
 30
0.0
 10
16.2572
 20
-15.1766
 30
0.0
 10
16.447
 20
-15.027
 30
0.0
 10
16.447
 20
-15.027
 30
0.0
 10
16.614
 20
-15.6647
 30
0.0
 10
16.614
 20
-15.6647
 30
0.0
  0
SPLINE
  5
84
330
1F
100
AcDbEntity
  8
Layer 1
 62
   240
100
AcDbSpline
210
0.0
220
0.0
230
1.0
 70
    11
 71
     3
 72
    29
 73
    25
 74
     0
 42
0.0000000001
 43
0.0000000001
 40
0.0
 40
0.0
 40
0.0
 40
0.0
 40
0.125
 40
0.125
 40
0.125
 40
0.25
 40
0.25
 40
0.25
 40
0.375
 40
0.375
 40
0.375
 40
0.5
 40
0.5
 40
0.5
 40
0.625
 40
0.625
 40
0.625
 40
0.75
 40
0.75
 40
0.75
 40
0.875
 40
0.875
 40
0.875
 40
1.0
 40
1.0
 40
1.0
 40
1.0
 10
-14.1717
 20
-9.3989
 30
0.0
 10
-14.1717
 20
-9.6559
 30
0.0
 10
-14.2773
 20
-9.8887
 30
0.0
 10
-14.4477
 20
-10.0572
 30
0.0
 10
-14.618
 20
-10.2257
 30
0.0
 10
-14.8529
 20
-10.3299
 30
0.0
 10
-15.1121
 20
-10.3299
 30
0.0
 10
-15.3706
 20
-10.3299
 30
0.0
 10
-15.6055
 20
-10.2258
 30
0.0
 10
-15.7756
 20
-10.0576
 30
0.0
 10
-15.9464
 20
-9.889
 30
0.0
 10
-16.052
 20
-9.6558
 30
0.0
 10
-16.052
 20
-9.3989
 30
0.0
 10
-16.052
 20
-9.1421
 30
0.0
 10
-15.9464
 20
-8.9091
 30
0.0
 10
-15.7762
 20
-8.7406
 30
0.0
 10
-15.6058
 20
-8.5721
 30
0.0
 10
-15.3709
 20
-8.4677
 30
0.0
 10
-15.1121
 20
-8.4677
 30
0.0
 10
-14.853
 20
-8.4677
 30
0.0
 10
-14.6182
 20
-8.5719
 30
0.0
 10
-14.4482
 20
-8.7399
 30
0.0
 10
-14.2773
 20
-8.9091
 30
0.0
 10
-14.1717
 20
-9.1421
 30
0.0
 10
-14.1717
 20
-9.3989
 30
0.0
  0
SPLINE
  5
85
330
1F
100
AcDbEntity
  8
Layer 1
 62
   240
100
AcDbSpline
210
0.0
220
0.0
230
1.0
 70
    11
 71
     3
 72
    29
 73
    25
 74
     0
 42
0.0000000001
 43
0.0000000001
 40
0.0
 40
0.0
 40
0.0
 40
0.0
 40
0.125
 40
0.125
 40
0.125
 40
0.25
 40
0.25
 40
0.25
 40
0.375
 40
0.375
 40
0.375
 40
0.5
 40
0.5
 40
0.5
 40
0.625
 40
0.625
 40
0.625
 40
0.75
 40
0.75
 40
0.75
 40
0.875
 40
0.875
 40
0.875
 40
1.0
 40
1.0
 40
1.0
 40
1.0
 10
-14.6195
 20
-9.8835
 30
0.0
 10
-14.4942
 20
-9.7596
 30
0.0
 10
-14.4167
 20
-9.5882
 30
0.0
 10
-14.4167
 20
-9.3989
 30
0.0
 10
-14.4167
 20
-9.2097
 30
0.0
 10
-14.4942
 20
-9.0382
 30
0.0
 10
-14.6195
 20
-8.9141
 30
0.0
 10
-14.7452
 20
-8.7898
 30
0.0
 10
-14.9196
 20
-8.7127
 30
0.0
 10
-15.1121
 20
-8.7127
 30
0.0
 10
-15.3045
 20
-8.7127
 30
0.0
 10
-15.4784
 20
-8.7896
 30
0.0
 10
-15.604
 20
-8.9137
 30
0.0
 10
-15.7293
 20
-9.0377
 30
0.0
 10
-15.8071
 20
-9.2095
 30
0.0
 10
-15.8071
 20
-9.3989
 30
0.0
 10
-15.8071
 20
-9.5882
 30
0.0
 10
-15.7296
 20
-9.7597
 30
0.0
 10
-15.6044
 20
-9.8834
 30
0.0
 10
-15.4786
 20
-10.008
 30
0.0
 10
-15.3045
 20
-10.0849
 30
0.0
 10
-15.1121
 20
-10.0849
 30
0.0
 10
-14.9195
 20
-10.0849
 30
0.0
 10
-14.7452
 20
-10.0078
 30
0.0
 10
-14.6195
 20
-9.8835
 30
0.0
  0
SPLINE
  5
86
330
1F
100
AcDbEntity
  8
Layer 1
 62
   240
100
AcDbSpline
210
0.0
220
0.0
230
1.0
 70
    11
 71
     3
 72
    29
 73
    25
 74
     0
 42
0.0000000001
 43
0.0000000001
 40
0.0
 40
0.0
 40
0.0
 40
0.0
 40
0.125
 40
0.125
 40
0.125
 40
0.25
 40
0.25
 40
0.25
 40
0.375
 40
0.375
 40
0.375
 40
0.5
 40
0.5
 40
0.5
 40
0.625
 40
0.625
 40
0.625
 40
0.75
 40
0.75
 40
0.75
 40
0.875
 40
0.875
 40
0.875
 40
1.0
 40
1.0
 40
1.0
 40
1.0
 10
-13.7739
 20
-8.2811
 30
0.0
 10
-13.7739
 20
-8.3573
 30
0.0
 10
-13.8053
 20
-8.4265
 30
0.0
 10
-13.8558
 20
-8.4766
 30
0.0
 10
-13.9066
 20
-8.5268
 30
0.0
 10
-13.9758
 20
-8.5576
 30
0.0
 10
-14.0521
 20
-8.5576
 30
0.0
 10
-14.1284
 20
-8.5576
 30
0.0
 10
-14.1977
 20
-8.5268
 30
0.0
 10
-14.2479
 20
-8.4772
 30
0.0
 10
-14.2988
 20
-8.427
 30
0.0
 10
-14.3303
 20
-8.3575
 30
0.0
 10
-14.3303
 20
-8.2811
 30
0.0
 10
-14.3303
 20
-8.2051
 30
0.0
 10
-14.2988
 20
-8.1358
 30
0.0
 10
-14.2483
 20
-8.0856
 30
0.0
 10
-14.1977
 20
-8.0355
 30
0.0
 10
-14.1284
 20
-8.0045
 30
0.0
 10
-14.0521
 20
-8.0045
 30
0.0
 10
-13.9762
 20
-8.0045
 30
0.0
 10
-13.9069
 20
-8.0353
 30
0.0
 10
-13.8565
 20
-8.0851
 30
0.0
 10
-13.8054
 20
-8.1354
 30
0.0
 10
-13.7739
 20
-8.2049
 30
0.0
 10
-13.7739
 20
-8.2811
 30
0.0
  0
SPLINE
  5
87
330
1F
100
AcDbEntity
  8
Layer 1
 62
   240
100
AcDbSpline
210
0.0
220
0.0
230
1.0
 70
    11
 71
     3
 72
    41
 73
    37
 74
     0
 42
0.0000000001
 43
0.0000000001
 40
0.0
 40
0.0
 40
0.0
 40
0.0
 40
0.0833333333333333
 40
0.0833333333333333
 40
0.0833333333333333
 40
0.1666666666666667
 40
0.1666666666666667
 40
0.1666666666666667
 40
0.25
 40
0.25
 40
0.25
 40
0.3333333333333333
 40
0.3333333333333333
 40
0.3333333333333333
 40
0.4166666666666666
 40
0.4166666666666666
 40
0.4166666666666666
 40
0.5
 40
0.5
 40
0.5
 40
0.5833333333333333
 40
0.5833333333333333
 40
0.5833333333333333
 40
0.6666666666666666
 40
0.6666666666666666
 40
0.6666666666666666
 40
0.75
 40
0.75
 40
0.75
 40
0.8333333333333333
 40
0.8333333333333333
 40
0.8333333333333333
 40
0.9166666666666666
 40
0.9166666666666666
 40
0.9166666666666666
 40
1.0
 40
1.0
 40
1.0
 40
1.0
 10
-13.7669
 20
-11.1162
 30
0.0
 10
-13.7669
 20
-11.1162
 30
0.0
 10
-16.4571
 20
-11.1162
 30
0.0
 10
-16.4571
 20
-11.1162
 30
0.0
 10
-16.5747
 20
-11.1162
 30
0.0
 10
-16.6812
 20
-11.0684
 30
0.0
 10
-16.7582
 20
-10.9914
 30
0.0
 10
-16.8352
 20
-10.9145
 30
0.0
 10
-16.8829
 20
-10.8077
 30
0.0
 10
-16.8829
 20
-10.6904
 30
0.0
 10
-16.8829
 20
-10.6904
 30
0.0
 10
-16.8829
 20
-8.1261
 30
0.0
 10
-16.8829
 20
-8.1261
 30
0.0
 10
-16.8829
 20
-7.9749
 30
0.0
 10
-16.8209
 20
-7.837
 30
0.0
 10
-16.7209
 20
-7.7369
 30
0.0
 10
-16.6203
 20
-7.6364
 30
0.0
 10
-16.4824
 20
-7.5743
 30
0.0
 10
-16.3312
 20
-7.5743
 30
0.0
 10
-16.3312
 20
-7.5743
 30
0.0
 10
-13.7669
 20
-7.5743
 30
0.0
 10
-13.7669
 20
-7.5743
 30
0.0
 10
-13.6498
 20
-7.5743
 30
0.0
 10
-13.5433
 20
-7.622
 30
0.0
 10
-13.4662
 20
-7.699
 30
0.0
 10
-13.3887
 20
-7.7765
 30
0.0
 10
-13.3411
 20
-7.883
 30
0.0
 10
-13.3411
 20
-8.0002
 30
0.0
 10
-13.3411
 20
-8.0002
 30
0.0
 10
-13.3411
 20
-10.6904
 30
0.0
 10
-13.3411
 20
-10.6904
 30
0.0
 10
-13.3411
 20
-10.8077
 30
0.0
 10
-13.3889
 20
-10.9145
 30
0.0
 10
-13.4658
 20
-10.9914
 30
0.0
 10
-13.5428
 20
-11.0684
 30
0.0
 10
-13.6493
 20
-11.1162
 30
0.0
 10
-13.7669
 20
-11.1162
 30
0.0
  0
SPLINE
  5
88
330
1F
100
AcDbEntity
  8
Layer 1
 62
   240
100
AcDbSpline
210
0.0
220
0.0
230
1.0
 70
    11
 71
     3
 72
    41
 73
    37
 74
     0
 42
0.0000000001
 43
0.0000000001
 40
0.0
 40
0.0
 40
0.0
 40
0.0
 40
0.0833333333333333
 40
0.0833333333333333
 40
0.0833333333333333
 40
0.1666666666666667
 40
0.1666666666666667
 40
0.1666666666666667
 40
0.25
 40
0.25
 40
0.25
 40
0.3333333333333333
 40
0.3333333333333333
 40
0.3333333333333333
 40
0.4166666666666666
 40
0.4166666666666666
 40
0.4166666666666666
 40
0.5
 40
0.5
 40
0.5
 40
0.5833333333333333
 40
0.5833333333333333
 40
0.5833333333333333
 40
0.6666666666666666
 40
0.6666666666666666
 40
0.6666666666666666
 40
0.75
 40
0.75
 40
0.75
 40
0.8333333333333333
 40
0.8333333333333333
 40
0.8333333333333333
 40
0.9166666666666666
 40
0.9166666666666666
 40
0.9166666666666666
 40
1.0
 40
1.0
 40
1.0
 40
1.0
 10
-16.4571
 20
-10.8849
 30
0.0
 10
-16.4571
 20
-10.8849
 30
0.0
 10
-13.7669
 20
-10.8849
 30
0.0
 10
-13.7669
 20
-10.8849
 30
0.0
 10
-13.7134
 20
-10.8849
 30
0.0
 10
-13.6645
 20
-10.863
 30
0.0
 10
-13.6294
 20
-10.8279
 30
0.0
 10
-13.5942
 20
-10.7928
 30
0.0
 10
-13.5723
 20
-10.744
 30
0.0
 10
-13.5723
 20
-10.6904
 30
0.0
 10
-13.5723
 20
-10.6904
 30
0.0
 10
-13.5723
 20
-8.0002
 30
0.0
 10
-13.5723
 20
-8.0002
 30
0.0
 10
-13.5723
 20
-7.9463
 30
0.0
 10
-13.5941
 20
-7.8974
 30
0.0
 10
-13.629
 20
-7.8623
 30
0.0
 10
-13.6641
 20
-7.8274
 30
0.0
 10
-13.7131
 20
-7.8056
 30
0.0
 10
-13.7669
 20
-7.8056
 30
0.0
 10
-13.7669
 20
-7.8056
 30
0.0
 10
-16.3312
 20
-7.8056
 30
0.0
 10
-16.3312
 20
-7.8056
 30
0.0
 10
-16.4194
 20
-7.8056
 30
0.0
 10
-16.4996
 20
-7.8417
 30
0.0
 10
-16.5574
 20
-7.8995
 30
0.0
 10
-16.6156
 20
-7.9576
 30
0.0
 10
-16.6517
 20
-8.0379
 30
0.0
 10
-16.6517
 20
-8.1261
 30
0.0
 10
-16.6517
 20
-8.1261
 30
0.0
 10
-16.6517
 20
-10.6904
 30
0.0
 10
-16.6517
 20
-10.6904
 30
0.0
 10
-16.6517
 20
-10.744
 30
0.0
 10
-16.6298
 20
-10.7928
 30
0.0
 10
-16.5946
 20
-10.8279
 30
0.0
 10
-16.5595
 20
-10.863
 30
0.0
 10
-16.5106
 20
-10.8849
 30
0.0
 10
-16.4571
 20
-10.8849
 30
0.0
  0
SPLINE
  5
89
330
1F
100
AcDbEntity
  8
Layer 1
 62
   240
100
AcDbSpline
210
0.0
220
0.0
230
1.0
 70
    11
 71
     3
 72
    47
 73
    43
 74
     0
 42
0.0000000001
 43
0.0000000001
 40
0.0
 40
0.0
 40
0.0
 40
0.0
 40
0.0714285714285714
 40
0.0714285714285714
 40
0.0714285714285714
 40
0.1428571428571428
 40
0.1428571428571428
 40
0.1428571428571428
 40
0.2142857142857143
 40
0.2142857142857143
 40
0.2142857142857143
 40
0.2857142857142857
 40
0.2857142857142857
 40
0.2857142857142857
 40
0.3571428571428571
 40
0.3571428571428571
 40
0.3571428571428571
 40
0.4285714285714285
 40
0.4285714285714285
 40
0.4285714285714285
 40
0.5
 40
0.5
 40
0.5
 40
0.5714285714285714
 40
0.5714285714285714
 40
0.5714285714285714
 40
0.6428571428571428
 40
0.6428571428571428
 40
0.6428571428571428
 40
0.7142857142857142
 40
0.7142857142857142
 40
0.7142857142857142
 40
0.7857142857142857
 40
0.7857142857142857
 40
0.7857142857142857
 40
0.8571428571428571
 40
0.8571428571428571
 40
0.8571428571428571
 40
0.9285714285714285
 40
0.9285714285714285
 40
0.9285714285714285
 40
1.0
 40
1.0
 40
1.0
 40
1.0
 10
-15.3377
 20
-14.1758
 30
0.0
 10
-15.3377
 20
-14.1758
 30
0.0
 10
-15.2982
 20
-14.1372
 30
0.0
 10
-15.2982
 20
-14.1372
 30
0.0
 10
-15.1308
 20
-13.9722
 30
0.0
 10
-15.1188
 20
-13.7063
 30
0.0
 10
-15.2701
 20
-13.5266
 30
0.0
 10
-15.2701
 20
-13.5266
 30
0.0
 10
-15.6748
 20
-13.0469
 30
0.0
 10
-15.6748
 20
-13.0469
 30
0.0
 10
-15.8373
 20
-12.8543
 30
0.0
 10
-16.1266
 20
-12.833
 30
0.0
 10
-16.316
 20
-12.9995
 30
0.0
 10
-16.316
 20
-12.9995
 30
0.0
 10
-16.6636
 20
-13.3057
 30
0.0
 10
-16.6636
 20
-13.3057
 30
0.0
 10
-16.7835
 20
-13.4115
 30
0.0
 10
-16.8379
 20
-13.5712
 30
0.0
 10
-16.8085
 20
-13.7281
 30
0.0
 10
-16.6508
 20
-14.5713
 30
0.0
 10
-15.9479
 20
-17.1855
 30
0.0
 10
-13.2758
 20
-17.1855
 30
0.0
 10
-13.2155
 20
-17.1855
 30
0.0
 10
-13.0433
 20
-17.0463
 30
0.0
 10
-12.8811
 20
-16.9011
 30
0.0
 10
-12.6905
 20
-16.7317
 30
0.0
 10
-12.6776
 20
-16.4385
 30
0.0
 10
-12.8534
 20
-16.2537
 30
0.0
 10
-12.8534
 20
-16.2537
 30
0.0
 10
-13.357
 20
-15.7251
 30
0.0
 10
-13.357
 20
-15.7251
 30
0.0
 10
-13.5313
 20
-15.5421
 30
0.0
 10
-13.8221
 20
-15.5385
 30
0.0
 10
-14.0008
 20
-15.717
 30
0.0
 10
-14.1605
 20
-15.8768
 30
0.0
 10
-14.4119
 20
-15.8945
 30
0.0
 10
-14.5914
 20
-15.7586
 30
0.0
 10
-14.8079
 20
-15.5935
 30
0.0
 10
-15.1007
 20
-15.2875
 30
0.0
 10
-15.4144
 20
-14.7185
 30
0.0
 10
-15.5123
 20
-14.5412
 30
0.0
 10
-15.4817
 20
-14.3182
 30
0.0
 10
-15.3377
 20
-14.1758
 30
0.0
  0
SPLINE
  5
8A
330
1F
100
AcDbEntity
  8
Layer 1
 62
   240
100
AcDbSpline
210
0.0
220
0.0
230
1.0
 70
    11
 71
     3
 72
    35
 73
    31
 74
     0
 42
0.0000000001
 43
0.0000000001
 40
0.0
 40
0.0
 40
0.0
 40
0.0
 40
0.1
 40
0.1
 40
0.1
 40
0.2
 40
0.2
 40
0.2
 40
0.3
 40
0.3
 40
0.3
 40
0.4
 40
0.4
 40
0.4
 40
0.5
 40
0.5
 40
0.5
 40
0.6000000000000001
 40
0.6000000000000001
 40
0.6000000000000001
 40
0.7000000000000001
 40
0.7000000000000001
 40
0.7000000000000001
 40
0.8
 40
0.8
 40
0.8
 40
0.9
 40
0.9
 40
0.9
 40
1.0
 40
1.0
 40
1.0
 40
1.0
 10
-5.7639
 20
-9.8723
 30
0.0
 10
-5.7639
 20
-9.9327
 30
0.0
 10
-5.7515
 20
-9.9793
 30
0.0
 10
-5.7255
 20
-10.0108
 30
0.0
 10
-5.6993
 20
-10.0424
 30
0.0
 10
-5.6624
 20
-10.0588
 30
0.0
 10
-5.6143
 20
-10.0588
 30
0.0
 10
-5.6143
 20
-10.0588
 30
0.0
 10
-5.3879
 20
-10.0588
 30
0.0
 10
-5.3879
 20
-10.0588
 30
0.0
 10
-5.3879
 20
-10.0588
 30
0.0
 10
-5.3879
 20
-10.5185
 30
0.0
 10
-5.3879
 20
-10.5185
 30
0.0
 10
-5.3879
 20
-10.5185
 30
0.0
 10
-5.672
 20
-10.5185
 30
0.0
 10
-5.672
 20
-10.5185
 30
0.0
 10
-5.8544
 20
-10.5185
 30
0.0
 10
-5.9957
 20
-10.4622
 30
0.0
 10
-6.0959
 20
-10.3484
 30
0.0
 10
-6.196
 20
-10.2344
 30
0.0
 10
-6.2454
 20
-10.0754
 30
0.0
 10
-6.2454
 20
-9.8681
 30
0.0
 10
-6.2454
 20
-9.8681
 30
0.0
 10
-6.2454
 20
-7.0694
 30
0.0
 10
-6.2454
 20
-7.0694
 30
0.0
 10
-6.2454
 20
-7.0694
 30
0.0
 10
-5.7639
 20
-7.0694
 30
0.0
 10
-5.7639
 20
-7.0694
 30
0.0
 10
-5.7639
 20
-7.0694
 30
0.0
 10
-5.7639
 20
-9.8723
 30
0.0
 10
-5.7639
 20
-9.8723
 30
0.0
  0
SPLINE
  5
8B
330
1F
100
AcDbEntity
  8
Layer 1
 62
   240
100
AcDbSpline
210
0.0
220
0.0
230
1.0
 70
    11
 71
     3
 72
    29
 73
    25
 74
     0
 42
0.0000000001
 43
0.0000000001
 40
0.0
 40
0.0
 40
0.0
 40
0.0
 40
0.125
 40
0.125
 40
0.125
 40
0.25
 40
0.25
 40
0.25
 40
0.375
 40
0.375
 40
0.375
 40
0.5
 40
0.5
 40
0.5
 40
0.625
 40
0.625
 40
0.625
 40
0.75
 40
0.75
 40
0.75
 40
0.875
 40
0.875
 40
0.875
 40
1.0
 40
1.0
 40
1.0
 40
1.0
 10
-7.4377
 20
-9.9052
 30
0.0
 10
-7.4377
 20
-9.9052
 30
0.0
 10
-7.4377
 20
-9.4429
 30
0.0
 10
-7.4377
 20
-9.4429
 30
0.0
 10
-7.4377
 20
-9.4429
 30
0.0
 10
-8.1113
 20
-9.4429
 30
0.0
 10
-8.1113
 20
-9.4429
 30
0.0
 10
-8.2374
 20
-9.4429
 30
0.0
 10
-8.3322
 20
-9.4703
 30
0.0
 10
-8.3939
 20
-9.5266
 30
0.0
 10
-8.4556
 20
-9.5828
 30
0.0
 10
-8.4872
 20
-9.6679
 30
0.0
 10
-8.4872
 20
-9.7831
 30
0.0
 10
-8.4872
 20
-9.9079
 30
0.0
 10
-8.446
 20
-9.9999
 30
0.0
 10
-8.3637
 20
-10.0602
 30
0.0
 10
-8.28
 20
-10.1193
 30
0.0
 10
-8.1552
 20
-10.1494
 30
0.0
 10
-7.9864
 20
-10.1494
 30
0.0
 10
-7.8012
 20
-10.1494
 30
0.0
 10
-7.664
 20
-10.1302
 30
0.0
 10
-7.5735
 20
-10.0904
 30
0.0
 10
-7.4829
 20
-10.0506
 30
0.0
 10
-7.4377
 20
-9.9889
 30
0.0
 10
-7.4377
 20
-9.9052
 30
0.0
  0
SPLINE
  5
8C
330
1F
100
AcDbEntity
  8
Layer 1
 62
   240
100
AcDbSpline
210
0.0
220
0.0
230
1.0
 70
    11
 71
     3
 72
    71
 73
    67
 74
     0
 42
0.0000000001
 43
0.0000000001
 40
0.0
 40
0.0
 40
0.0
 40
0.0
 40
0.0454545454545455
 40
0.0454545454545455
 40
0.0454545454545455
 40
0.0909090909090909
 40
0.0909090909090909
 40
0.0909090909090909
 40
0.1363636363636364
 40
0.1363636363636364
 40
0.1363636363636364
 40
0.1818181818181818
 40
0.1818181818181818
 40
0.1818181818181818
 40
0.2272727272727273
 40
0.2272727272727273
 40
0.2272727272727273
 40
0.2727272727272727
 40
0.2727272727272727
 40
0.2727272727272727
 40
0.3181818181818182
 40
0.3181818181818182
 40
0.3181818181818182
 40
0.3636363636363636
 40
0.3636363636363636
 40
0.3636363636363636
 40
0.4090909090909091
 40
0.4090909090909091
 40
0.4090909090909091
 40
0.4545454545454546
 40
0.4545454545454546
 40
0.4545454545454546
 40
0.5
 40
0.5
 40
0.5
 40
0.5454545454545454
 40
0.5454545454545454
 40
0.5454545454545454
 40
0.5909090909090909
 40
0.5909090909090909
 40
0.5909090909090909
 40
0.6363636363636364
 40
0.6363636363636364
 40
0.6363636363636364
 40
0.6818181818181819
 40
0.6818181818181819
 40
0.6818181818181819
 40
0.7272727272727273
 40
0.7272727272727273
 40
0.7272727272727273
 40
0.7727272727272727
 40
0.7727272727272727
 40
0.7727272727272727
 40
0.8181818181818182
 40
0.8181818181818182
 40
0.8181818181818182
 40
0.8636363636363636
 40
0.8636363636363636
 40
0.8636363636363636
 40
0.9090909090909092
 40
0.9090909090909092
 40
0.9090909090909092
 40
0.9545454545454546
 40
0.9545454545454546
 40
0.9545454545454546
 40
1.0
 40
1.0
 40
1.0
 40
1.0
 10
-7.4377
 20
-10.3174
 30
0.0
 10
-7.4694
 20
-10.3544
 30
0.0
 10
-7.5051
 20
-10.3869
 30
0.0
 10
-7.5446
 20
-10.4142
 30
0.0
 10
-7.6063
 20
-10.4567
 30
0.0
 10
-7.6791
 20
-10.4883
 30
0.0
 10
-7.7614
 20
-10.5088
 30
0.0
 10
-7.8438
 20
-10.5308
 30
0.0
 10
-7.9357
 20
-10.5418
 30
0.0
 10
-8.0385
 20
-10.5418
 30
0.0
 10
-8.3404
 20
-10.5418
 30
0.0
 10
-8.5668
 20
-10.4787
 30
0.0
 10
-8.7163
 20
-10.3538
 30
0.0
 10
-8.8658
 20
-10.229
 30
0.0
 10
-8.9413
 20
-10.0383
 30
0.0
 10
-8.9413
 20
-9.7831
 30
0.0
 10
-8.9413
 20
-9.5403
 30
0.0
 10
-8.8726
 20
-9.3592
 30
0.0
 10
-8.7354
 20
-9.2371
 30
0.0
 10
-8.5982
 20
-9.1149
 30
0.0
 10
-8.3911
 20
-9.0546
 30
0.0
 10
-8.114
 20
-9.0546
 30
0.0
 10
-8.114
 20
-9.0546
 30
0.0
 10
-7.4377
 20
-9.0546
 30
0.0
 10
-7.4377
 20
-9.0546
 30
0.0
 10
-7.4377
 20
-9.0546
 30
0.0
 10
-7.4377
 20
-8.9517
 30
0.0
 10
-7.4377
 20
-8.9517
 30
0.0
 10
-7.4377
 20
-8.7912
 30
0.0
 10
-7.4802
 20
-8.6663
 30
0.0
 10
-7.5666
 20
-8.5771
 30
0.0
 10
-7.6531
 20
-8.4879
 30
0.0
 10
-7.7737
 20
-8.4426
 30
0.0
 10
-7.9316
 20
-8.4426
 30
0.0
 10
-8.029
 20
-8.4426
 30
0.0
 10
-8.125
 20
-8.4578
 30
0.0
 10
-8.2196
 20
-8.4879
 30
0.0
 10
-8.3129
 20
-8.5181
 30
0.0
 10
-8.3953
 20
-8.5593
 30
0.0
 10
-8.468
 20
-8.6128
 30
0.0
 10
-8.468
 20
-8.6128
 30
0.0
 10
-8.8205
 20
-8.3727
 30
0.0
 10
-8.8205
 20
-8.3727
 30
0.0
 10
-8.7272
 20
-8.2602
 30
0.0
 10
-8.6052
 20
-8.1724
 30
0.0
 10
-8.4528
 20
-8.1107
 30
0.0
 10
-8.3006
 20
-8.049
 30
0.0
 10
-8.1318
 20
-8.0174
 30
0.0
 10
-7.9452
 20
-8.0174
 30
0.0
 10
-7.7421
 20
-8.0174
 30
0.0
 10
-7.568
 20
-8.0531
 30
0.0
 10
-7.4239
 20
-8.1257
 30
0.0
 10
-7.2785
 20
-8.1971
 30
0.0
 10
-7.1687
 20
-8.3013
 30
0.0
 10
-7.0933
 20
-8.4372
 30
0.0
 10
-7.0178
 20
-8.573
 30
0.0
 10
-6.9794
 20
-8.7377
 30
0.0
 10
-6.9794
 20
-8.9297
 30
0.0
 10
-6.9794
 20
-8.9297
 30
0.0
 10
-6.9794
 20
-10.5061
 30
0.0
 10
-6.9794
 20
-10.5061
 30
0.0
 10
-6.9794
 20
-10.5061
 30
0.0
 10
-7.4377
 20
-10.5061
 30
0.0
 10
-7.4377
 20
-10.5061
 30
0.0
 10
-7.4377
 20
-10.5061
 30
0.0
 10
-7.4377
 20
-10.3174
 30
0.0
 10
-7.4377
 20
-10.3174
 30
0.0
  0
SPLINE
  5
8D
330
1F
100
AcDbEntity
  8
Layer 1
 62
   240
100
AcDbSpline
210
0.0
220
0.0
230
1.0
 70
    11
 71
     3
 72
    41
 73
    37
 74
     0
 42
0.0000000001
 43
0.0000000001
 40
0.0
 40
0.0
 40
0.0
 40
0.0
 40
0.0833333333333333
 40
0.0833333333333333
 40
0.0833333333333333
 40
0.1666666666666667
 40
0.1666666666666667
 40
0.1666666666666667
 40
0.25
 40
0.25
 40
0.25
 40
0.3333333333333333
 40
0.3333333333333333
 40
0.3333333333333333
 40
0.4166666666666666
 40
0.4166666666666666
 40
0.4166666666666666
 40
0.5
 40
0.5
 40
0.5
 40
0.5833333333333333
 40
0.5833333333333333
 40
0.5833333333333333
 40
0.6666666666666666
 40
0.6666666666666666
 40
0.6666666666666666
 40
0.75
 40
0.75
 40
0.75
 40
0.8333333333333333
 40
0.8333333333333333
 40
0.8333333333333333
 40
0.9166666666666666
 40
0.9166666666666666
 40
0.9166666666666666
 40
1.0
 40
1.0
 40
1.0
 40
1.0
 10
-10.0374
 20
-8.9435
 30
0.0
 10
-10.0374
 20
-8.8405
 30
0.0
 10
-10.0567
 20
-8.7514
 30
0.0
 10
-10.095
 20
-8.6773
 30
0.0
 10
-10.1321
 20
-8.6032
 30
0.0
 10
-10.1869
 20
-8.547
 30
0.0
 10
-10.2597
 20
-8.5086
 30
0.0
 10
-10.3311
 20
-8.4688
 30
0.0
 10
-10.4175
 20
-8.4496
 30
0.0
 10
-10.519
 20
-8.4496
 30
0.0
 10
-10.6781
 20
-8.4496
 30
0.0
 10
-10.8016
 20
-8.499
 30
0.0
 10
-10.8894
 20
-8.5991
 30
0.0
 10
-10.9772
 20
-8.6979
 30
0.0
 10
-11.0211
 20
-8.8378
 30
0.0
 10
-11.0211
 20
-9.0175
 30
0.0
 10
-11.0211
 20
-9.0175
 30
0.0
 10
-11.0211
 20
-9.5512
 30
0.0
 10
-11.0211
 20
-9.5512
 30
0.0
 10
-11.0211
 20
-9.7296
 30
0.0
 10
-10.9772
 20
-9.8668
 30
0.0
 10
-10.8894
 20
-9.9642
 30
0.0
 10
-10.8016
 20
-10.0616
 30
0.0
 10
-10.6781
 20
-10.1096
 30
0.0
 10
-10.519
 20
-10.1096
 30
0.0
 10
-10.4175
 20
-10.1096
 30
0.0
 10
-10.3311
 20
-10.089
 30
0.0
 10
-10.2597
 20
-10.0492
 30
0.0
 10
-10.1869
 20
-10.0094
 30
0.0
 10
-10.1321
 20
-9.9505
 30
0.0
 10
-10.095
 20
-9.875
 30
0.0
 10
-10.0567
 20
-9.7996
 30
0.0
 10
-10.0374
 20
-9.7091
 30
0.0
 10
-10.0374
 20
-9.6033
 30
0.0
 10
-10.0374
 20
-9.6033
 30
0.0
 10
-10.0374
 20
-8.9435
 30
0.0
 10
-10.0374
 20
-8.9435
 30
0.0
  0
SPLINE
  5
8E
330
1F
100
AcDbEntity
  8
Layer 1
 62
   240
100
AcDbSpline
210
0.0
220
0.0
230
1.0
 70
    11
 71
     3
 72
    80
 73
    76
 74
     0
 42
0.0000000001
 43
0.0000000001
 40
0.0
 40
0.0
 40
0.0
 40
0.0
 40
0.04
 40
0.04
 40
0.04
 40
0.08
 40
0.08
 40
0.08
 40
0.12
 40
0.12
 40
0.12
 40
0.16
 40
0.16
 40
0.16
 40
0.2
 40
0.2
 40
0.2
 40
0.24
 40
0.24
 40
0.24
 40
0.28
 40
0.28
 40
0.28
 40
0.32
 40
0.32
 40
0.32
 40
0.36
 40
0.36
 40
0.36
 40
0.4
 40
0.4
 40
0.4
 40
0.44
 40
0.44
 40
0.44
 40
0.48
 40
0.48
 40
0.48
 40
0.52
 40
0.52
 40
0.52
 40
0.56
 40
0.56
 40
0.56
 40
0.6
 40
0.6
 40
0.6
 40
0.64
 40
0.64
 40
0.64
 40
0.68
 40
0.68
 40
0.68
 40
0.72
 40
0.72
 40
0.72
 40
0.76
 40
0.76
 40
0.76
 40
0.8
 40
0.8
 40
0.8
 40
0.84
 40
0.84
 40
0.84
 40
0.88
 40
0.88
 40
0.88
 40
0.92
 40
0.92
 40
0.92
 40
0.96
 40
0.96
 40
0.96
 40
1.0
 40
1.0
 40
1.0
 40
1.0
 10
-10.0374
 20
-8.361
 30
0.0
 10
-10.0374
 20
-8.361
 30
0.0
 10
-10.0374
 20
-8.0531
 30
0.0
 10
-10.0374
 20
-8.0531
 30
0.0
 10
-10.0374
 20
-8.0531
 30
0.0
 10
-9.556
 20
-8.0531
 30
0.0
 10
-9.556
 20
-8.0531
 30
0.0
 10
-9.556
 20
-8.0531
 30
0.0
 10
-9.556
 20
-10.4334
 30
0.0
 10
-9.556
 20
-10.4334
 30
0.0
 10
-9.556
 20
-10.6584
 30
0.0
 10
-9.597
 20
-10.8505
 30
0.0
 10
-9.6807
 20
-11.0109
 30
0.0
 10
-9.7631
 20
-11.1715
 30
0.0
 10
-9.8825
 20
-11.2937
 30
0.0
 10
-10.0402
 20
-11.3774
 30
0.0
 10
-10.198
 20
-11.461
 30
0.0
 10
-10.3873
 20
-11.5035
 30
0.0
 10
-10.6096
 20
-11.5035
 30
0.0
 10
-10.7934
 20
-11.5035
 30
0.0
 10
-10.9581
 20
-11.4693
 30
0.0
 10
-11.1049
 20
-11.4006
 30
0.0
 10
-11.2503
 20
-11.3321
 30
0.0
 10
-11.3627
 20
-11.2359
 30
0.0
 10
-11.4437
 20
-11.1112
 30
0.0
 10
-11.4437
 20
-11.1112
 30
0.0
 10
-11.1172
 20
-10.8162
 30
0.0
 10
-11.1172
 20
-10.8162
 30
0.0
 10
-11.0541
 20
-10.9026
 30
0.0
 10
-10.9786
 20
-10.9685
 30
0.0
 10
-10.8922
 20
-11.0165
 30
0.0
 10
-10.8044
 20
-11.0645
 30
0.0
 10
-10.7124
 20
-11.0878
 30
0.0
 10
-10.6164
 20
-11.0878
 30
0.0
 10
-10.4326
 20
-11.0878
 30
0.0
 10
-10.2899
 20
-11.0371
 30
0.0
 10
-10.1898
 20
-10.9356
 30
0.0
 10
-10.0882
 20
-10.8341
 30
0.0
 10
-10.0374
 20
-10.6899
 30
0.0
 10
-10.0374
 20
-10.5034
 30
0.0
 10
-10.0374
 20
-10.5034
 30
0.0
 10
-10.0374
 20
-10.1917
 30
0.0
 10
-10.0374
 20
-10.1917
 30
0.0
 10
-10.0864
 20
-10.2826
 30
0.0
 10
-10.1558
 20
-10.3608
 30
0.0
 10
-10.2446
 20
-10.4265
 30
0.0
 10
-10.3557
 20
-10.5075
 30
0.0
 10
-10.4915
 20
-10.5486
 30
0.0
 10
-10.6548
 20
-10.5486
 30
0.0
 10
-10.8346
 20
-10.5486
 30
0.0
 10
-10.9868
 20
-10.5102
 30
0.0
 10
-11.1144
 20
-10.4321
 30
0.0
 10
-11.2407
 20
-10.3538
 30
0.0
 10
-11.3367
 20
-10.2399
 30
0.0
 10
-11.4039
 20
-10.0904
 30
0.0
 10
-11.4698
 20
-9.9409
 30
0.0
 10
-11.5027
 20
-9.7612
 30
0.0
 10
-11.5027
 20
-9.5512
 30
0.0
 10
-11.5027
 20
-9.5512
 30
0.0
 10
-11.5027
 20
-9.0107
 30
0.0
 10
-11.5027
 20
-9.0107
 30
0.0
 10
-11.5027
 20
-8.7994
 30
0.0
 10
-11.4711
 20
-8.6196
 30
0.0
 10
-11.4066
 20
-8.4701
 30
0.0
 10
-11.3422
 20
-8.3206
 30
0.0
 10
-11.2475
 20
-8.2067
 30
0.0
 10
-11.124
 20
-8.1285
 30
0.0
 10
-10.9991
 20
-8.0503
 30
0.0
 10
-10.851
 20
-8.0105
 30
0.0
 10
-10.6781
 20
-8.0105
 30
0.0
 10
-10.5327
 20
-8.0105
 30
0.0
 10
-10.3996
 20
-8.049
 30
0.0
 10
-10.2803
 20
-8.1244
 30
0.0
 10
-10.1848
 20
-8.1841
 30
0.0
 10
-10.1037
 20
-8.2627
 30
0.0
 10
-10.0374
 20
-8.361
 30
0.0
  0
SPLINE
  5
8F
330
1F
100
AcDbEntity
  8
Layer 1
 62
   240
100
AcDbSpline
210
0.0
220
0.0
230
1.0
 70
    27
 71
     3
 72
    11
 73
     7
 74
     0
 42
0.0000000001
 43
0.0000000001
 40
0.0
 40
0.0
 40
0.0
 40
0.0
 40
0.5
 40
0.5
 40
0.5
 40
1.0
 40
1.0
 40
1.0
 40
1.0
 10
-10.0374
 20
-9.6033
 30
0.0
 10
-10.0374
 20
-9.6033
 30
0.0
 10
-10.0374
 20
-8.9435
 30
0.0
 10
-10.0374
 20
-8.9435
 30
0.0
 10
-10.0374
 20
-8.9435
 30
0.0
 10
-10.0374
 20
-9.6033
 30
0.0
 10
-10.0374
 20
-9.6033
 30
0.0
  0
SPLINE
  5
90
330
1F
100
AcDbEntity
  8
Layer 1
 62
   240
100
AcDbSpline
210
0.0
220
0.0
230
1.0
 70
    11
 71
     3
 72
    62
 73
    58
 74
     0
 42
0.0000000001
 43
0.0000000001
 40
0.0
 40
0.0
 40
0.0
 40
0.0
 40
0.0526315789473684
 40
0.0526315789473684
 40
0.0526315789473684
 40
0.1052631578947368
 40
0.1052631578947368
 40
0.1052631578947368
 40
0.1578947368421053
 40
0.1578947368421053
 40
0.1578947368421053
 40
0.2105263157894737
 40
0.2105263157894737
 40
0.2105263157894737
 40
0.2631578947368421
 40
0.2631578947368421
 40
0.2631578947368421
 40
0.3157894736842105
 40
0.3157894736842105
 40
0.3157894736842105
 40
0.3684210526315789
 40
0.3684210526315789
 40
0.3684210526315789
 40
0.4210526315789473
 40
0.4210526315789473
 40
0.4210526315789473
 40
0.4736842105263158
 40
0.4736842105263158
 40
0.4736842105263158
 40
0.5263157894736842
 40
0.5263157894736842
 40
0.5263157894736842
 40
0.5789473684210527
 40
0.5789473684210527
 40
0.5789473684210527
 40
0.631578947368421
 40
0.631578947368421
 40
0.631578947368421
 40
0.6842105263157894
 40
0.6842105263157894
 40
0.6842105263157894
 40
0.7368421052631579
 40
0.7368421052631579
 40
0.7368421052631579
 40
0.7894736842105263
 40
0.7894736842105263
 40
0.7894736842105263
 40
0.8421052631578947
 40
0.8421052631578947
 40
0.8421052631578947
 40
0.894736842105263
 40
0.894736842105263
 40
0.894736842105263
 40
0.9473684210526315
 40
0.9473684210526315
 40
0.9473684210526315
 40
1.0
 40
1.0
 40
1.0
 40
1.0
 10
-2.8769
 20
-9.473
 30
0.0
 10
-2.8736
 20
-9.6661
 30
0.0
 10
-2.82
 20
-9.8156
 30
0.0
 10
-2.7167
 20
-9.9203
 30
0.0
 10
-2.6096
 20
-10.0287
 30
0.0
 10
-2.4574
 20
-10.0836
 30
0.0
 10
-2.2598
 20
-10.0836
 30
0.0
 10
-2.1624
 20
-10.0836
 30
0.0
 10
-2.0664
 20
-10.0643
 30
0.0
 10
-1.9703
 20
-10.0246
 30
0.0
 10
-1.8729
 20
-9.9848
 30
0.0
 10
-1.7879
 20
-9.9298
 30
0.0
 10
-1.7124
 20
-9.8586
 30
0.0
 10
-1.7124
 20
-9.8586
 30
0.0
 10
-1.3955
 20
-10.1755
 30
0.0
 10
-1.3955
 20
-10.1755
 30
0.0
 10
-1.5162
 20
-10.292
 30
0.0
 10
-1.652
 20
-10.3812
 30
0.0
 10
-1.8043
 20
-10.4458
 30
0.0
 10
-1.9553
 20
-10.5102
 30
0.0
 10
-2.1075
 20
-10.5418
 30
0.0
 10
-2.2598
 20
-10.5418
 30
0.0
 10
-2.4861
 20
-10.5418
 30
0.0
 10
-2.681
 20
-10.4992
 30
0.0
 10
-2.8415
 20
-10.4142
 30
0.0
 10
-3.0021
 20
-10.3291
 30
0.0
 10
-3.1256
 20
-10.2043
 30
0.0
 10
-3.2091
 20
-10.0397
 30
0.0
 10
-3.2929
 20
-9.875
 30
0.0
 10
-3.3354
 20
-9.6761
 30
0.0
 10
-3.3354
 20
-9.4429
 30
0.0
 10
-3.3354
 20
-9.4429
 30
0.0
 10
-3.3354
 20
-9.1657
 30
0.0
 10
-3.3354
 20
-9.1657
 30
0.0
 10
-3.3354
 20
-8.9229
 30
0.0
 10
-3.2956
 20
-8.7171
 30
0.0
 10
-3.2147
 20
-8.5456
 30
0.0
 10
-3.1338
 20
-8.3741
 30
0.0
 10
-3.0157
 20
-8.2424
 30
0.0
 10
-2.8608
 20
-8.1532
 30
0.0
 10
-2.7057
 20
-8.0627
 30
0.0
 10
-2.5205
 20
-8.0174
 30
0.0
 10
-2.3023
 20
-8.0174
 30
0.0
 10
-2.0979
 20
-8.0174
 30
0.0
 10
-1.9223
 20
-8.0681
 30
0.0
 10
-1.7783
 20
-8.171
 30
0.0
 10
-1.6329
 20
-8.274
 30
0.0
 10
-1.5217
 20
-8.4221
 30
0.0
 10
-1.4462
 20
-8.6155
 30
0.0
 10
-1.3694
 20
-8.8091
 30
0.0
 10
-1.331
 20
-9.0423
 30
0.0
 10
-1.331
 20
-9.3125
 30
0.0
 10
-1.331
 20
-9.3125
 30
0.0
 10
-1.331
 20
-9.473
 30
0.0
 10
-1.331
 20
-9.473
 30
0.0
 10
-1.331
 20
-9.473
 30
0.0
 10
-2.8769
 20
-9.473
 30
0.0
 10
-2.8769
 20
-9.473
 30
0.0
  0
SPLINE
  5
91
330
1F
100
AcDbEntity
  8
Layer 1
 62
   240
100
AcDbSpline
210
0.0
220
0.0
230
1.0
 70
    11
 71
     3
 72
    20
 73
    16
 74
     0
 42
0.0000000001
 43
0.0000000001
 40
0.0
 40
0.0
 40
0.0
 40
0.0
 40
0.2
 40
0.2
 40
0.2
 40
0.4
 40
0.4
 40
0.4
 40
0.6000000000000001
 40
0.6000000000000001
 40
0.6000000000000001
 40
0.8
 40
0.8
 40
0.8
 40
1.0
 40
1.0
 40
1.0
 40
1.0
 10
-2.8762
 20
-9.0862
 30
0.0
 10
-2.8762
 20
-9.0862
 30
0.0
 10
-1.7906
 20
-9.0862
 30
0.0
 10
-1.7906
 20
-9.0862
 30
0.0
 10
-1.8043
 20
-8.8858
 30
0.0
 10
-1.8565
 20
-8.7308
 30
0.0
 10
-1.9457
 20
-8.6196
 30
0.0
 10
-2.0348
 20
-8.5086
 30
0.0
 10
-2.1528
 20
-8.4523
 30
0.0
 10
-2.3023
 20
-8.4523
 30
0.0
 10
-2.4848
 20
-8.4523
 30
0.0
 10
-2.6275
 20
-8.5127
 30
0.0
 10
-2.7277
 20
-8.6321
 30
0.0
 10
-2.8195
 20
-8.7414
 30
0.0
 10
-2.8686
 20
-8.8937
 30
0.0
 10
-2.8762
 20
-9.0862
 30
0.0
  0
SPLINE
  5
92
330
1F
100
AcDbEntity
  8
Layer 1
 62
   240
100
AcDbSpline
210
0.0
220
0.0
230
1.0
 70
    11
 71
     3
 72
    47
 73
    43
 74
     0
 42
0.0000000001
 43
0.0000000001
 40
0.0
 40
0.0
 40
0.0
 40
0.0
 40
0.0714285714285714
 40
0.0714285714285714
 40
0.0714285714285714
 40
0.1428571428571428
 40
0.1428571428571428
 40
0.1428571428571428
 40
0.2142857142857143
 40
0.2142857142857143
 40
0.2142857142857143
 40
0.2857142857142857
 40
0.2857142857142857
 40
0.2857142857142857
 40
0.3571428571428571
 40
0.3571428571428571
 40
0.3571428571428571
 40
0.4285714285714285
 40
0.4285714285714285
 40
0.4285714285714285
 40
0.5
 40
0.5
 40
0.5
 40
0.5714285714285714
 40
0.5714285714285714
 40
0.5714285714285714
 40
0.6428571428571428
 40
0.6428571428571428
 40
0.6428571428571428
 40
0.7142857142857142
 40
0.7142857142857142
 40
0.7142857142857142
 40
0.7857142857142857
 40
0.7857142857142857
 40
0.7857142857142857
 40
0.8571428571428571
 40
0.8571428571428571
 40
0.8571428571428571
 40
0.9285714285714285
 40
0.9285714285714285
 40
0.9285714285714285
 40
1.0
 40
1.0
 40
1.0
 40
1.0
 10
-0.1882
 20
-8.9531
 30
0.0
 10
-0.1882
 20
-8.9531
 30
0.0
 10
-0.1882
 20
-10.5061
 30
0.0
 10
-0.1882
 20
-10.5061
 30
0.0
 10
-0.1882
 20
-10.5061
 30
0.0
 10
-0.6697
 20
-10.5061
 30
0.0
 10
-0.6697
 20
-10.5061
 30
0.0
 10
-0.6697
 20
-10.5061
 30
0.0
 10
-0.6697
 20
-8.0531
 30
0.0
 10
-0.6697
 20
-8.0531
 30
0.0
 10
-0.6697
 20
-8.0531
 30
0.0
 10
-0.1882
 20
-8.0531
 30
0.0
 10
-0.1882
 20
-8.0531
 30
0.0
 10
-0.1882
 20
-8.0531
 30
0.0
 10
-0.1882
 20
-8.3946
 30
0.0
 10
-0.1882
 20
-8.3946
 30
0.0
 10
-0.1212
 20
-8.2889
 30
0.0
 10
-0.0402
 20
-8.2038
 30
0.0
 10
0.0547
 20
-8.1395
 30
0.0
 10
0.174
 20
-8.0586
 30
0.0
 10
0.3071
 20
-8.0174
 30
0.0
 10
0.4525
 20
-8.0174
 30
0.0
 10
0.5636
 20
-8.0174
 30
0.0
 10
0.6651
 20
-8.0338
 30
0.0
 10
0.7557
 20
-8.0668
 30
0.0
 10
0.8462
 20
-8.0984
 30
0.0
 10
0.9258
 20
-8.1464
 30
0.0
 10
0.993
 20
-8.2094
 30
0.0
 10
0.993
 20
-8.2094
 30
0.0
 10
0.6788
 20
-8.6348
 30
0.0
 10
0.6788
 20
-8.6348
 30
0.0
 10
0.6364
 20
-8.5827
 30
0.0
 10
0.5828
 20
-8.5429
 30
0.0
 10
0.5184
 20
-8.5168
 30
0.0
 10
0.4538
 20
-8.4893
 30
0.0
 10
0.3784
 20
-8.4756
 30
0.0
 10
0.2934
 20
-8.4756
 30
0.0
 10
0.1411
 20
-8.4756
 30
0.0
 10
0.0217
 20
-8.5181
 30
0.0
 10
-0.062
 20
-8.6032
 30
0.0
 10
-0.1457
 20
-8.6869
 30
0.0
 10
-0.1882
 20
-8.8035
 30
0.0
 10
-0.1882
 20
-8.9531
 30
0.0
  0
SPLINE
  5
93
330
1F
100
AcDbEntity
  8
Layer 1
 62
   240
100
AcDbSpline
210
0.0
220
0.0
230
1.0
 70
    11
 71
     3
 72
    50
 73
    46
 74
     0
 42
0.0000000001
 43
0.0000000001
 40
0.0
 40
0.0
 40
0.0
 40
0.0
 40
0.0666666666666667
 40
0.0666666666666667
 40
0.0666666666666667
 40
0.1333333333333333
 40
0.1333333333333333
 40
0.1333333333333333
 40
0.2
 40
0.2
 40
0.2
 40
0.2666666666666667
 40
0.2666666666666667
 40
0.2666666666666667
 40
0.3333333333333333
 40
0.3333333333333333
 40
0.3333333333333333
 40
0.4
 40
0.4
 40
0.4
 40
0.4666666666666667
 40
0.4666666666666667
 40
0.4666666666666667
 40
0.5333333333333333
 40
0.5333333333333333
 40
0.5333333333333333
 40
0.6
 40
0.6
 40
0.6
 40
0.6666666666666666
 40
0.6666666666666666
 40
0.6666666666666666
 40
0.7333333333333333
 40
0.7333333333333333
 40
0.7333333333333333
 40
0.8
 40
0.8
 40
0.8
 40
0.8666666666666667
 40
0.8666666666666667
 40
0.8666666666666667
 40
0.9333333333333333
 40
0.9333333333333333
 40
0.9333333333333333
 40
1.0
 40
1.0
 40
1.0
 40
1.0
 10
2.0256
 20
-10.4671
 30
0.0
 10
2.0256
 20
-10.4671
 30
0.0
 10
1.1358
 20
-8.0531
 30
0.0
 10
1.1358
 20
-8.0531
 30
0.0
 10
1.1358
 20
-8.0531
 30
0.0
 10
1.6268
 20
-8.0531
 30
0.0
 10
1.6268
 20
-8.0531
 30
0.0
 10
1.6268
 20
-8.0531
 30
0.0
 10
2.2446
 20
-9.7986
 30
0.0
 10
2.2446
 20
-9.7986
 30
0.0
 10
2.2446
 20
-9.7986
 30
0.0
 10
2.8164
 20
-8.0531
 30
0.0
 10
2.8164
 20
-8.0531
 30
0.0
 10
2.8164
 20
-8.0531
 30
0.0
 10
3.3076
 20
-8.0531
 30
0.0
 10
3.3076
 20
-8.0531
 30
0.0
 10
3.3076
 20
-8.0531
 30
0.0
 10
2.2634
 20
-11.081
 30
0.0
 10
2.2634
 20
-11.081
 30
0.0
 10
2.2251
 20
-11.192
 30
0.0
 10
2.1757
 20
-11.2812
 30
0.0
 10
2.1139
 20
-11.3458
 30
0.0
 10
2.0522
 20
-11.4116
 30
0.0
 10
1.9767
 20
-11.4582
 30
0.0
 10
1.8875
 20
-11.4871
 30
0.0
 10
1.7984
 20
-11.5159
 30
0.0
 10
1.6873
 20
-11.5296
 30
0.0
 10
1.5569
 20
-11.5296
 30
0.0
 10
1.5569
 20
-11.5296
 30
0.0
 10
1.4596
 20
-11.5296
 30
0.0
 10
1.4596
 20
-11.5296
 30
0.0
 10
1.4596
 20
-11.5296
 30
0.0
 10
1.4596
 20
-11.0659
 30
0.0
 10
1.4596
 20
-11.0659
 30
0.0
 10
1.4596
 20
-11.0659
 30
0.0
 10
1.5569
 20
-11.0659
 30
0.0
 10
1.5569
 20
-11.0659
 30
0.0
 10
1.6461
 20
-11.0659
 30
0.0
 10
1.7174
 20
-11.048
 30
0.0
 10
1.7696
 20
-11.0109
 30
0.0
 10
1.8231
 20
-10.9754
 30
0.0
 10
1.8684
 20
-10.9136
 30
0.0
 10
1.9082
 20
-10.8257
 30
0.0
 10
1.9082
 20
-10.8257
 30
0.0
 10
2.0256
 20
-10.4671
 30
0.0
 10
2.0256
 20
-10.4671
 30
0.0
  0
SPLINE
  5
94
330
1F
100
AcDbEntity
  8
Layer 1
 62
   240
100
AcDbSpline
210
0.0
220
0.0
230
1.0
 70
    27
 71
     3
 72
    11
 73
     7
 74
     0
 42
0.0000000001
 43
0.0000000001
 40
0.0
 40
0.0
 40
0.0
 40
0.0
 40
0.5
 40
0.5
 40
0.5
 40
1.0
 40
1.0
 40
1.0
 40
1.0
 10
4.2158
 20
-8.9393
 30
0.0
 10
4.2158
 20
-8.9393
 30
0.0
 10
4.2158
 20
-9.6075
 30
0.0
 10
4.2158
 20
-9.6075
 30
0.0
 10
4.2158
 20
-9.6075
 30
0.0
 10
4.2158
 20
-8.9393
 30
0.0
 10
4.2158
 20
-8.9393
 30
0.0
  0
SPLINE
  5
95
330
1F
100
AcDbEntity
  8
Layer 1
 62
   240
100
AcDbSpline
210
0.0
220
0.0
230
1.0
 70
    11
 71
     3
 72
    53
 73
    49
 74
     0
 42
0.0000000001
 43
0.0000000001
 40
0.0
 40
0.0
 40
0.0
 40
0.0
 40
0.0625
 40
0.0625
 40
0.0625
 40
0.125
 40
0.125
 40
0.125
 40
0.1875
 40
0.1875
 40
0.1875
 40
0.25
 40
0.25
 40
0.25
 40
0.3125
 40
0.3125
 40
0.3125
 40
0.375
 40
0.375
 40
0.375
 40
0.4375
 40
0.4375
 40
0.4375
 40
0.5
 40
0.5
 40
0.5
 40
0.5625
 40
0.5625
 40
0.5625
 40
0.625
 40
0.625
 40
0.625
 40
0.6875
 40
0.6875
 40
0.6875
 40
0.75
 40
0.75
 40
0.75
 40
0.8125
 40
0.8125
 40
0.8125
 40
0.875
 40
0.875
 40
0.875
 40
0.9375
 40
0.9375
 40
0.9375
 40
1.0
 40
1.0
 40
1.0
 40
1.0
 10
4.2158
 20
-8.3809
 30
0.0
 10
4.2819
 20
-8.2789
 30
0.0
 10
4.3628
 20
-8.1972
 30
0.0
 10
4.4572
 20
-8.1354
 30
0.0
 10
4.5766
 20
-8.0572
 30
0.0
 10
4.7097
 20
-8.0174
 30
0.0
 10
4.8565
 20
-8.0174
 30
0.0
 10
5.0294
 20
-8.0174
 30
0.0
 10
5.1775
 20
-8.0572
 30
0.0
 10
5.301
 20
-8.1354
 30
0.0
 10
5.4258
 20
-8.2135
 30
0.0
 10
5.519
 20
-8.3275
 30
0.0
 10
5.5836
 20
-8.477
 30
0.0
 10
5.648
 20
-8.6266
 30
0.0
 10
5.681
 20
-8.8063
 30
0.0
 10
5.681
 20
-9.0175
 30
0.0
 10
5.681
 20
-9.0175
 30
0.0
 10
5.681
 20
-9.5512
 30
0.0
 10
5.681
 20
-9.5512
 30
0.0
 10
5.681
 20
-9.7584
 30
0.0
 10
5.648
 20
-9.9368
 30
0.0
 10
5.5809
 20
-10.0849
 30
0.0
 10
5.5149
 20
-10.2331
 30
0.0
 10
5.4176
 20
-10.347
 30
0.0
 10
5.2899
 20
-10.4251
 30
0.0
 10
5.1624
 20
-10.5034
 30
0.0
 10
5.0101
 20
-10.5418
 30
0.0
 10
4.8331
 20
-10.5418
 30
0.0
 10
4.6809
 20
-10.5418
 30
0.0
 10
4.5464
 20
-10.5047
 30
0.0
 10
4.4325
 20
-10.4321
 30
0.0
 10
4.3399
 20
-10.3729
 30
0.0
 10
4.268
 20
-10.2928
 30
0.0
 10
4.2158
 20
-10.1927
 30
0.0
 10
4.2158
 20
-10.1927
 30
0.0
 10
4.2158
 20
-11.5035
 30
0.0
 10
4.2158
 20
-11.5035
 30
0.0
 10
4.2158
 20
-11.5035
 30
0.0
 10
3.7342
 20
-11.5035
 30
0.0
 10
3.7342
 20
-11.5035
 30
0.0
 10
3.7342
 20
-11.5035
 30
0.0
 10
3.7342
 20
-8.0531
 30
0.0
 10
3.7342
 20
-8.0531
 30
0.0
 10
3.7342
 20
-8.0531
 30
0.0
 10
4.2158
 20
-8.0531
 30
0.0
 10
4.2158
 20
-8.0531
 30
0.0
 10
4.2158
 20
-8.0531
 30
0.0
 10
4.2158
 20
-8.3809
 30
0.0
 10
4.2158
 20
-8.3809
 30
0.0
  0
SPLINE
  5
96
330
1F
100
AcDbEntity
  8
Layer 1
 62
   240
100
AcDbSpline
210
0.0
220
0.0
230
1.0
 70
    11
 71
     3
 72
    41
 73
    37
 74
     0
 42
0.0000000001
 43
0.0000000001
 40
0.0
 40
0.0
 40
0.0
 40
0.0
 40
0.0833333333333333
 40
0.0833333333333333
 40
0.0833333333333333
 40
0.1666666666666667
 40
0.1666666666666667
 40
0.1666666666666667
 40
0.25
 40
0.25
 40
0.25
 40
0.3333333333333333
 40
0.3333333333333333
 40
0.3333333333333333
 40
0.4166666666666666
 40
0.4166666666666666
 40
0.4166666666666666
 40
0.5
 40
0.5
 40
0.5
 40
0.5833333333333333
 40
0.5833333333333333
 40
0.5833333333333333
 40
0.6666666666666666
 40
0.6666666666666666
 40
0.6666666666666666
 40
0.75
 40
0.75
 40
0.75
 40
0.8333333333333333
 40
0.8333333333333333
 40
0.8333333333333333
 40
0.9166666666666666
 40
0.9166666666666666
 40
0.9166666666666666
 40
1.0
 40
1.0
 40
1.0
 40
1.0
 10
4.2158
 20
-9.6075
 30
0.0
 10
4.2158
 20
-9.7132
 30
0.0
 10
4.235
 20
-9.8037
 30
0.0
 10
4.272
 20
-9.8777
 30
0.0
 10
4.3104
 20
-9.9519
 30
0.0
 10
4.3653
 20
-10.0081
 30
0.0
 10
4.4366
 20
-10.0479
 30
0.0
 10
4.508
 20
-10.0877
 30
0.0
 10
4.5944
 20
-10.1068
 30
0.0
 10
4.6973
 20
-10.1068
 30
0.0
 10
4.8565
 20
-10.1068
 30
0.0
 10
4.9799
 20
-10.0588
 30
0.0
 10
5.0677
 20
-9.9614
 30
0.0
 10
5.1555
 20
-9.864
 30
0.0
 10
5.1994
 20
-9.7282
 30
0.0
 10
5.1994
 20
-9.5512
 30
0.0
 10
5.1994
 20
-9.5512
 30
0.0
 10
5.1994
 20
-9.0203
 30
0.0
 10
5.1994
 20
-9.0203
 30
0.0
 10
5.1994
 20
-8.8405
 30
0.0
 10
5.1555
 20
-8.7006
 30
0.0
 10
5.0677
 20
-8.6018
 30
0.0
 10
4.9799
 20
-8.5017
 30
0.0
 10
4.8565
 20
-8.4523
 30
0.0
 10
4.6973
 20
-8.4523
 30
0.0
 10
4.5944
 20
-8.4523
 30
0.0
 10
4.508
 20
-8.4715
 30
0.0
 10
4.4366
 20
-8.5099
 30
0.0
 10
4.3653
 20
-8.547
 30
0.0
 10
4.3104
 20
-8.6032
 30
0.0
 10
4.272
 20
-8.676
 30
0.0
 10
4.235
 20
-8.7486
 30
0.0
 10
4.2158
 20
-8.8364
 30
0.0
 10
4.2158
 20
-8.9393
 30
0.0
 10
4.2158
 20
-8.9393
 30
0.0
 10
4.2158
 20
-9.6075
 30
0.0
 10
4.2158
 20
-9.6075
 30
0.0
  0
SPLINE
  5
97
330
1F
100
AcDbEntity
  8
Layer 1
 62
   240
100
AcDbSpline
210
0.0
220
0.0
230
1.0
 70
    11
 71
     3
 72
    29
 73
    25
 74
     0
 42
0.0000000001
 43
0.0000000001
 40
0.0
 40
0.0
 40
0.0
 40
0.0
 40
0.125
 40
0.125
 40
0.125
 40
0.25
 40
0.25
 40
0.25
 40
0.375
 40
0.375
 40
0.375
 40
0.5
 40
0.5
 40
0.5
 40
0.625
 40
0.625
 40
0.625
 40
0.75
 40
0.75
 40
0.75
 40
0.875
 40
0.875
 40
0.875
 40
1.0
 40
1.0
 40
1.0
 40
1.0
 10
7.7513
 20
-9.9052
 30
0.0
 10
7.7513
 20
-9.9052
 30
0.0
 10
7.7513
 20
-9.4429
 30
0.0
 10
7.7513
 20
-9.4429
 30
0.0
 10
7.7513
 20
-9.4429
 30
0.0
 10
7.0776
 20
-9.4429
 30
0.0
 10
7.0776
 20
-9.4429
 30
0.0
 10
6.9514
 20
-9.4429
 30
0.0
 10
6.8567
 20
-9.4703
 30
0.0
 10
6.795
 20
-9.5266
 30
0.0
 10
6.7332
 20
-9.5828
 30
0.0
 10
6.7018
 20
-9.6679
 30
0.0
 10
6.7018
 20
-9.7831
 30
0.0
 10
6.7018
 20
-9.9079
 30
0.0
 10
6.7428
 20
-9.9999
 30
0.0
 10
6.8252
 20
-10.0602
 30
0.0
 10
6.9089
 20
-10.1193
 30
0.0
 10
7.0337
 20
-10.1494
 30
0.0
 10
7.2025
 20
-10.1494
 30
0.0
 10
7.3877
 20
-10.1494
 30
0.0
 10
7.5249
 20
-10.1302
 30
0.0
 10
7.6155
 20
-10.0904
 30
0.0
 10
7.706
 20
-10.0506
 30
0.0
 10
7.7513
 20
-9.9889
 30
0.0
 10
7.7513
 20
-9.9052
 30
0.0
  0
SPLINE
  5
98
330
1F
100
AcDbEntity
  8
Layer 1
 62
   240
100
AcDbSpline
210
0.0
220
0.0
230
1.0
 70
    11
 71
     3
 72
    71
 73
    67
 74
     0
 42
0.0000000001
 43
0.0000000001
 40
0.0
 40
0.0
 40
0.0
 40
0.0
 40
0.0454545454545455
 40
0.0454545454545455
 40
0.0454545454545455
 40
0.0909090909090909
 40
0.0909090909090909
 40
0.0909090909090909
 40
0.1363636363636364
 40
0.1363636363636364
 40
0.1363636363636364
 40
0.1818181818181818
 40
0.1818181818181818
 40
0.1818181818181818
 40
0.2272727272727273
 40
0.2272727272727273
 40
0.2272727272727273
 40
0.2727272727272727
 40
0.2727272727272727
 40
0.2727272727272727
 40
0.3181818181818182
 40
0.3181818181818182
 40
0.3181818181818182
 40
0.3636363636363636
 40
0.3636363636363636
 40
0.3636363636363636
 40
0.4090909090909091
 40
0.4090909090909091
 40
0.4090909090909091
 40
0.4545454545454546
 40
0.4545454545454546
 40
0.4545454545454546
 40
0.5
 40
0.5
 40
0.5
 40
0.5454545454545454
 40
0.5454545454545454
 40
0.5454545454545454
 40
0.5909090909090909
 40
0.5909090909090909
 40
0.5909090909090909
 40
0.6363636363636364
 40
0.6363636363636364
 40
0.6363636363636364
 40
0.6818181818181819
 40
0.6818181818181819
 40
0.6818181818181819
 40
0.7272727272727273
 40
0.7272727272727273
 40
0.7272727272727273
 40
0.7727272727272727
 40
0.7727272727272727
 40
0.7727272727272727
 40
0.8181818181818182
 40
0.8181818181818182
 40
0.8181818181818182
 40
0.8636363636363636
 40
0.8636363636363636
 40
0.8636363636363636
 40
0.9090909090909092
 40
0.9090909090909092
 40
0.9090909090909092
 40
0.9545454545454546
 40
0.9545454545454546
 40
0.9545454545454546
 40
1.0
 40
1.0
 40
1.0
 40
1.0
 10
7.7513
 20
-10.3174
 30
0.0
 10
7.7196
 20
-10.3544
 30
0.0
 10
7.6839
 20
-10.3869
 30
0.0
 10
7.6442
 20
-10.4142
 30
0.0
 10
7.5825
 20
-10.4567
 30
0.0
 10
7.5097
 20
-10.4883
 30
0.0
 10
7.4275
 20
-10.5088
 30
0.0
 10
7.3452
 20
-10.5308
 30
0.0
 10
7.2533
 20
-10.5418
 30
0.0
 10
7.1503
 20
-10.5418
 30
0.0
 10
6.8485
 20
-10.5418
 30
0.0
 10
6.6222
 20
-10.4787
 30
0.0
 10
6.4725
 20
-10.3538
 30
0.0
 10
6.323
 20
-10.229
 30
0.0
 10
6.2475
 20
-10.0383
 30
0.0
 10
6.2475
 20
-9.7831
 30
0.0
 10
6.2475
 20
-9.5403
 30
0.0
 10
6.3162
 20
-9.3592
 30
0.0
 10
6.4534
 20
-9.2371
 30
0.0
 10
6.5906
 20
-9.1149
 30
0.0
 10
6.7978
 20
-9.0546
 30
0.0
 10
7.0749
 20
-9.0546
 30
0.0
 10
7.0749
 20
-9.0546
 30
0.0
 10
7.7513
 20
-9.0546
 30
0.0
 10
7.7513
 20
-9.0546
 30
0.0
 10
7.7513
 20
-9.0546
 30
0.0
 10
7.7513
 20
-8.9517
 30
0.0
 10
7.7513
 20
-8.9517
 30
0.0
 10
7.7513
 20
-8.7912
 30
0.0
 10
7.7087
 20
-8.6663
 30
0.0
 10
7.6223
 20
-8.5771
 30
0.0
 10
7.5359
 20
-8.4879
 30
0.0
 10
7.4151
 20
-8.4426
 30
0.0
 10
7.2574
 20
-8.4426
 30
0.0
 10
7.16
 20
-8.4426
 30
0.0
 10
7.064
 20
-8.4578
 30
0.0
 10
6.9692
 20
-8.4879
 30
0.0
 10
6.8759
 20
-8.5181
 30
0.0
 10
6.7937
 20
-8.5593
 30
0.0
 10
6.7209
 20
-8.6128
 30
0.0
 10
6.7209
 20
-8.6128
 30
0.0
 10
6.3683
 20
-8.3727
 30
0.0
 10
6.3683
 20
-8.3727
 30
0.0
 10
6.4616
 20
-8.2602
 30
0.0
 10
6.5837
 20
-8.1724
 30
0.0
 10
6.736
 20
-8.1107
 30
0.0
 10
6.8883
 20
-8.049
 30
0.0
 10
7.057
 20
-8.0174
 30
0.0
 10
7.2436
 20
-8.0174
 30
0.0
 10
7.4467
 20
-8.0174
 30
0.0
 10
7.6209
 20
-8.0531
 30
0.0
 10
7.765
 20
-8.1257
 30
0.0
 10
7.9104
 20
-8.1971
 30
0.0
 10
8.0202
 20
-8.3013
 30
0.0
 10
8.0956
 20
-8.4372
 30
0.0
 10
8.1711
 20
-8.573
 30
0.0
 10
8.2095
 20
-8.7377
 30
0.0
 10
8.2095
 20
-8.9297
 30
0.0
 10
8.2095
 20
-8.9297
 30
0.0
 10
8.2095
 20
-10.5061
 30
0.0
 10
8.2095
 20
-10.5061
 30
0.0
 10
8.2095
 20
-10.5061
 30
0.0
 10
7.7513
 20
-10.5061
 30
0.0
 10
7.7513
 20
-10.5061
 30
0.0
 10
7.7513
 20
-10.5061
 30
0.0
 10
7.7513
 20
-10.3174
 30
0.0
 10
7.7513
 20
-10.3174
 30
0.0
  0
SPLINE
  5
99
330
1F
100
AcDbEntity
  8
Layer 1
 62
   240
100
AcDbSpline
210
0.0
220
0.0
230
1.0
 70
    11
 71
     3
 72
    47
 73
    43
 74
     0
 42
0.0000000001
 43
0.0000000001
 40
0.0
 40
0.0
 40
0.0
 40
0.0
 40
0.0714285714285714
 40
0.0714285714285714
 40
0.0714285714285714
 40
0.1428571428571428
 40
0.1428571428571428
 40
0.1428571428571428
 40
0.2142857142857143
 40
0.2142857142857143
 40
0.2142857142857143
 40
0.2857142857142857
 40
0.2857142857142857
 40
0.2857142857142857
 40
0.3571428571428571
 40
0.3571428571428571
 40
0.3571428571428571
 40
0.4285714285714285
 40
0.4285714285714285
 40
0.4285714285714285
 40
0.5
 40
0.5
 40
0.5
 40
0.5714285714285714
 40
0.5714285714285714
 40
0.5714285714285714
 40
0.6428571428571428
 40
0.6428571428571428
 40
0.6428571428571428
 40
0.7142857142857142
 40
0.7142857142857142
 40
0.7142857142857142
 40
0.7857142857142857
 40
0.7857142857142857
 40
0.7857142857142857
 40
0.8571428571428571
 40
0.8571428571428571
 40
0.8571428571428571
 40
0.9285714285714285
 40
0.9285714285714285
 40
0.9285714285714285
 40
1.0
 40
1.0
 40
1.0
 40
1.0
 10
9.425
 20
-8.9531
 30
0.0
 10
9.425
 20
-8.9531
 30
0.0
 10
9.425
 20
-10.5061
 30
0.0
 10
9.425
 20
-10.5061
 30
0.0
 10
9.425
 20
-10.5061
 30
0.0
 10
8.9435
 20
-10.5061
 30
0.0
 10
8.9435
 20
-10.5061
 30
0.0
 10
8.9435
 20
-10.5061
 30
0.0
 10
8.9435
 20
-8.0531
 30
0.0
 10
8.9435
 20
-8.0531
 30
0.0
 10
8.9435
 20
-8.0531
 30
0.0
 10
9.425
 20
-8.0531
 30
0.0
 10
9.425
 20
-8.0531
 30
0.0
 10
9.425
 20
-8.0531
 30
0.0
 10
9.425
 20
-8.3946
 30
0.0
 10
9.425
 20
-8.3946
 30
0.0
 10
9.4921
 20
-8.2889
 30
0.0
 10
9.5731
 20
-8.2038
 30
0.0
 10
9.6678
 20
-8.1395
 30
0.0
 10
9.7872
 20
-8.0586
 30
0.0
 10
9.9203
 20
-8.0174
 30
0.0
 10
10.0657
 20
-8.0174
 30
0.0
 10
10.1768
 20
-8.0174
 30
0.0
 10
10.2784
 20
-8.0338
 30
0.0
 10
10.369
 20
-8.0668
 30
0.0
 10
10.4595
 20
-8.0984
 30
0.0
 10
10.539
 20
-8.1464
 30
0.0
 10
10.6063
 20
-8.2094
 30
0.0
 10
10.6063
 20
-8.2094
 30
0.0
 10
10.2921
 20
-8.6348
 30
0.0
 10
10.2921
 20
-8.6348
 30
0.0
 10
10.2496
 20
-8.5827
 30
0.0
 10
10.1961
 20
-8.5429
 30
0.0
 10
10.1315
 20
-8.5168
 30
0.0
 10
10.0671
 20
-8.4893
 30
0.0
 10
9.9916
 20
-8.4756
 30
0.0
 10
9.9065
 20
-8.4756
 30
0.0
 10
9.7543
 20
-8.4756
 30
0.0
 10
9.6349
 20
-8.5181
 30
0.0
 10
9.5512
 20
-8.6032
 30
0.0
 10
9.4676
 20
-8.6869
 30
0.0
 10
9.425
 20
-8.8035
 30
0.0
 10
9.425
 20
-8.9531
 30
0.0
  0
SPLINE
  5
9A
330
1F
100
AcDbEntity
  8
Layer 1
 62
   240
100
AcDbSpline
210
0.0
220
0.0
230
1.0
 70
    11
 71
     3
 72
    26
 73
    22
 74
     0
 42
0.0000000001
 43
0.0000000001
 40
0.0
 40
0.0
 40
0.0
 40
0.0
 40
0.1428571428571428
 40
0.1428571428571428
 40
0.1428571428571428
 40
0.2857142857142857
 40
0.2857142857142857
 40
0.2857142857142857
 40
0.4285714285714285
 40
0.4285714285714285
 40
0.4285714285714285
 40
0.5714285714285714
 40
0.5714285714285714
 40
0.5714285714285714
 40
0.7142857142857142
 40
0.7142857142857142
 40
0.7142857142857142
 40
0.8571428571428571
 40
0.8571428571428571
 40
0.8571428571428571
 40
1.0
 40
1.0
 40
1.0
 40
1.0
 10
12.4529
 20
-8.0531
 30
0.0
 10
12.4529
 20
-8.0531
 30
0.0
 10
12.9564
 20
-8.0531
 30
0.0
 10
12.9564
 20
-8.0531
 30
0.0
 10
12.9564
 20
-8.0531
 30
0.0
 10
12.0344
 20
-10.5061
 30
0.0
 10
12.0344
 20
-10.5061
 30
0.0
 10
12.0344
 20
-10.5061
 30
0.0
 10
11.6708
 20
-10.5061
 30
0.0
 10
11.6708
 20
-10.5061
 30
0.0
 10
11.6708
 20
-10.5061
 30
0.0
 10
10.7489
 20
-8.0531
 30
0.0
 10
10.7489
 20
-8.0531
 30
0.0
 10
10.7489
 20
-8.0531
 30
0.0
 10
11.2524
 20
-8.0531
 30
0.0
 10
11.2524
 20
-8.0531
 30
0.0
 10
11.2524
 20
-8.0531
 30
0.0
 10
11.8533
 20
-9.8037
 30
0.0
 10
11.8533
 20
-9.8037
 30
0.0
 10
11.8533
 20
-9.8037
 30
0.0
 10
12.4529
 20
-8.0531
 30
0.0
 10
12.4529
 20
-8.0531
 30
0.0
  0
SPLINE
  5
9B
330
1F
100
AcDbEntity
  8
Layer 1
 62
   240
100
AcDbSpline
210
0.0
220
0.0
230
1.0
 70
    11
 71
     3
 72
    17
 73
    13
 74
     0
 42
0.0000000001
 43
0.0000000001
 40
0.0
 40
0.0
 40
0.0
 40
0.0
 40
0.25
 40
0.25
 40
0.25
 40
0.5
 40
0.5
 40
0.5
 40
0.75
 40
0.75
 40
0.75
 40
1.0
 40
1.0
 40
1.0
 40
1.0
 10
13.4297
 20
-7.0694
 30
0.0
 10
13.4297
 20
-7.0694
 30
0.0
 10
13.9113
 20
-7.0694
 30
0.0
 10
13.9113
 20
-7.0694
 30
0.0
 10
13.9113
 20
-7.0694
 30
0.0
 10
13.9113
 20
-7.5523
 30
0.0
 10
13.9113
 20
-7.5523
 30
0.0
 10
13.9113
 20
-7.5523
 30
0.0
 10
13.4297
 20
-7.5523
 30
0.0
 10
13.4297
 20
-7.5523
 30
0.0
 10
13.4297
 20
-7.5523
 30
0.0
 10
13.4297
 20
-7.0694
 30
0.0
 10
13.4297
 20
-7.0694
 30
0.0
  0
SPLINE
  5
9C
330
1F
100
AcDbEntity
  8
Layer 1
 62
   240
100
AcDbSpline
210
0.0
220
0.0
230
1.0
 70
    11
 71
     3
 72
    17
 73
    13
 74
     0
 42
0.0000000001
 43
0.0000000001
 40
0.0
 40
0.0
 40
0.0
 40
0.0
 40
0.25
 40
0.25
 40
0.25
 40
0.5
 40
0.5
 40
0.5
 40
0.75
 40
0.75
 40
0.75
 40
1.0
 40
1.0
 40
1.0
 40
1.0
 10
13.4297
 20
-8.0531
 30
0.0
 10
13.4297
 20
-8.0531
 30
0.0
 10
13.9113
 20
-8.0531
 30
0.0
 10
13.9113
 20
-8.0531
 30
0.0
 10
13.9113
 20
-8.0531
 30
0.0
 10
13.9113
 20
-10.5061
 30
0.0
 10
13.9113
 20
-10.5061
 30
0.0
 10
13.9113
 20
-10.5061
 30
0.0
 10
13.4297
 20
-10.5061
 30
0.0
 10
13.4297
 20
-10.5061
 30
0.0
 10
13.4297
 20
-10.5061
 30
0.0
 10
13.4297
 20
-8.0531
 30
0.0
 10
13.4297
 20
-8.0531
 30
0.0
  0
SPLINE
  5
9D
330
1F
100
AcDbEntity
  8
Layer 1
 62
   240
100
AcDbSpline
210
0.0
220
0.0
230
1.0
 70
    11
 71
     3
 72
    53
 73
    49
 74
     0
 42
0.0000000001
 43
0.0000000001
 40
0.0
 40
0.0
 40
0.0
 40
0.0
 40
0.0625
 40
0.0625
 40
0.0625
 40
0.125
 40
0.125
 40
0.125
 40
0.1875
 40
0.1875
 40
0.1875
 40
0.25
 40
0.25
 40
0.25
 40
0.3125
 40
0.3125
 40
0.3125
 40
0.375
 40
0.375
 40
0.375
 40
0.4375
 40
0.4375
 40
0.4375
 40
0.5
 40
0.5
 40
0.5
 40
0.5625
 40
0.5625
 40
0.5625
 40
0.625
 40
0.625
 40
0.625
 40
0.6875
 40
0.6875
 40
0.6875
 40
0.75
 40
0.75
 40
0.75
 40
0.8125
 40
0.8125
 40
0.8125
 40
0.875
 40
0.875
 40
0.875
 40
0.9375
 40
0.9375
 40
0.9375
 40
1.0
 40
1.0
 40
1.0
 40
1.0
 10
15.1255
 20
-8.9531
 30
0.0
 10
15.1255
 20
-8.9531
 30
0.0
 10
15.1255
 20
-10.5061
 30
0.0
 10
15.1255
 20
-10.5061
 30
0.0
 10
15.1255
 20
-10.5061
 30
0.0
 10
14.6439
 20
-10.5061
 30
0.0
 10
14.6439
 20
-10.5061
 30
0.0
 10
14.6439
 20
-10.5061
 30
0.0
 10
14.6439
 20
-8.0531
 30
0.0
 10
14.6439
 20
-8.0531
 30
0.0
 10
14.6439
 20
-8.0531
 30
0.0
 10
15.1255
 20
-8.0531
 30
0.0
 10
15.1255
 20
-8.0531
 30
0.0
 10
15.1255
 20
-8.0531
 30
0.0
 10
15.1255
 20
-8.3941
 30
0.0
 10
15.1255
 20
-8.3941
 30
0.0
 10
15.193
 20
-8.2876
 30
0.0
 10
15.2753
 20
-8.2024
 30
0.0
 10
15.3724
 20
-8.1382
 30
0.0
 10
15.4945
 20
-8.0572
 30
0.0
 10
15.6303
 20
-8.0174
 30
0.0
 10
15.7771
 20
-8.0174
 30
0.0
 10
16.0446
 20
-8.0174
 30
0.0
 10
16.2504
 20
-8.1052
 30
0.0
 10
16.3959
 20
-8.2795
 30
0.0
 10
16.5413
 20
-8.4537
 30
0.0
 10
16.6139
 20
-8.6992
 30
0.0
 10
16.6139
 20
-9.0175
 30
0.0
 10
16.6139
 20
-9.0175
 30
0.0
 10
16.6139
 20
-10.5061
 30
0.0
 10
16.6139
 20
-10.5061
 30
0.0
 10
16.6139
 20
-10.5061
 30
0.0
 10
16.1324
 20
-10.5061
 30
0.0
 10
16.1324
 20
-10.5061
 30
0.0
 10
16.1324
 20
-10.5061
 30
0.0
 10
16.1324
 20
-9.0203
 30
0.0
 10
16.1324
 20
-9.0203
 30
0.0
 10
16.1324
 20
-8.846
 30
0.0
 10
16.0872
 20
-8.7129
 30
0.0
 10
15.9966
 20
-8.6183
 30
0.0
 10
15.9074
 20
-8.5236
 30
0.0
 10
15.7812
 20
-8.4756
 30
0.0
 10
15.6193
 20
-8.4756
 30
0.0
 10
15.4615
 20
-8.4756
 30
0.0
 10
15.3408
 20
-8.5181
 30
0.0
 10
15.2543
 20
-8.6018
 30
0.0
 10
15.168
 20
-8.6856
 30
0.0
 10
15.1255
 20
-8.8021
 30
0.0
 10
15.1255
 20
-8.9531
 30
0.0
  0
SPLINE
  5
9E
330
1F
100
AcDbEntity
  8
Layer 1
 62
   240
100
AcDbSpline
210
0.0
220
0.0
230
1.0
 70
    11
 71
     3
 72
    35
 73
    31
 74
     0
 42
0.0000000001
 43
0.0000000001
 40
0.0
 40
0.0
 40
0.0
 40
0.0
 40
0.1
 40
0.1
 40
0.1
 40
0.2
 40
0.2
 40
0.2
 40
0.3
 40
0.3
 40
0.3
 40
0.4
 40
0.4
 40
0.4
 40
0.5
 40
0.5
 40
0.5
 40
0.6000000000000001
 40
0.6000000000000001
 40
0.6000000000000001
 40
0.7000000000000001
 40
0.7000000000000001
 40
0.7000000000000001
 40
0.8
 40
0.8
 40
0.8
 40
0.9
 40
0.9
 40
0.9
 40
1.0
 40
1.0
 40
1.0
 40
1.0
 10
-4.2864
 20
-9.8723
 30
0.0
 10
-4.2864
 20
-9.9327
 30
0.0
 10
-4.2741
 20
-9.9793
 30
0.0
 10
-4.2479
 20
-10.0108
 30
0.0
 10
-4.2219
 20
-10.0424
 30
0.0
 10
-4.1849
 20
-10.0588
 30
0.0
 10
-4.1369
 20
-10.0588
 30
0.0
 10
-4.1369
 20
-10.0588
 30
0.0
 10
-3.9105
 20
-10.0588
 30
0.0
 10
-3.9105
 20
-10.0588
 30
0.0
 10
-3.9105
 20
-10.0588
 30
0.0
 10
-3.9105
 20
-10.5185
 30
0.0
 10
-3.9105
 20
-10.5185
 30
0.0
 10
-3.9105
 20
-10.5185
 30
0.0
 10
-4.1945
 20
-10.5185
 30
0.0
 10
-4.1945
 20
-10.5185
 30
0.0
 10
-4.3769
 20
-10.5185
 30
0.0
 10
-4.5182
 20
-10.4622
 30
0.0
 10
-4.6183
 20
-10.3484
 30
0.0
 10
-4.7186
 20
-10.2344
 30
0.0
 10
-4.768
 20
-10.0754
 30
0.0
 10
-4.768
 20
-9.8681
 30
0.0
 10
-4.768
 20
-9.8681
 30
0.0
 10
-4.768
 20
-7.0694
 30
0.0
 10
-4.768
 20
-7.0694
 30
0.0
 10
-4.768
 20
-7.0694
 30
0.0
 10
-4.2864
 20
-7.0694
 30
0.0
 10
-4.2864
 20
-7.0694
 30
0.0
 10
-4.2864
 20
-7.0694
 30
0.0
 10
-4.2864
 20
-9.8723
 30
0.0
 10
-4.2864
 20
-9.8723
 30
0.0
  0
SPLINE
  5
9F
330
1F
100
AcDbEntity
  8
Layer 1
 62
   250
370
    18
100
AcDbSpline
210
0.0
220
0.0
230
1.0
 70
    11
 71
     3
 72
    29
 73
    25
 74
     0
 42
0.0000000001
 43
0.0000000001
 40
0.0
 40
0.0
 40
0.0
 40
0.0
 40
0.125
 40
0.125
 40
0.125
 40
0.25
 40
0.25
 40
0.25
 40
0.375
 40
0.375
 40
0.375
 40
0.5
 40
0.5
 40
0.5
 40
0.625
 40
0.625
 40
0.625
 40
0.75
 40
0.75
 40
0.75
 40
0.875
 40
0.875
 40
0.875
 40
1.0
 40
1.0
 40
1.0
 40
1.0
 10
-17.102
 20
19.6352
 30
0.0
 10
-17.102
 20
19.6352
 30
0.0
 10
16.698
 20
19.6352
 30
0.0
 10
16.698
 20
19.6352
 30
0.0
 10
18.3503
 20
19.6352
 30
0.0
 10
19.698
 20
18.2875
 30
0.0
 10
19.698
 20
16.6352
 30
0.0
 10
19.698
 20
16.6352
 30
0.0
 10
19.698
 20
-17.1648
 30
0.0
 10
19.698
 20
-17.1648
 30
0.0
 10
19.698
 20
-18.8171
 30
0.0
 10
18.3503
 20
-20.1648
 30
0.0
 10
16.698
 20
-20.1648
 30
0.0
 10
16.698
 20
-20.1648
 30
0.0
 10
-17.102
 20
-20.1648
 30
0.0
 10
-17.102
 20
-20.1648
 30
0.0
 10
-18.7543
 20
-20.1648
 30
0.0
 10
-20.102
 20
-18.8171
 30
0.0
 10
-20.102
 20
-17.1648
 30
0.0
 10
-20.102
 20
-17.1648
 30
0.0
 10
-20.102
 20
16.6352
 30
0.0
 10
-20.102
 20
16.6352
 30
0.0
 10
-20.102
 20
18.2875
 30
0.0
 10
-18.7543
 20
19.6352
 30
0.0
 10
-17.102
 20
19.6352
 30
0.0
  0
ENDSEC
  0
SECTION
  2
OBJECTS
  0
DICTIONARY
  5
C
330
0
100
AcDbDictionary
281
     1
  3
ACAD_DETAILVIEWSTYLE
350
A7
  3
ACAD_GROUP
350
D
  3
ACAD_LAYOUT
350
1A
  3
ACAD_MATERIAL
350
43
  3
ACAD_MLEADERSTYLE
350
5B
  3
ACAD_MLINESTYLE
350
17
  3
ACAD_PLOTSETTINGS
350
19
  3
ACAD_PLOTSTYLENAME
350
E
  3
ACAD_SCALELIST
350
47
  3
ACAD_SECTIONVIEWSTYLE
350
A8
  3
ACAD_TABLESTYLE
350
59
  3
ACAD_VISUALSTYLE
350
2A
  3
ACDB_RECOMPOSE_DATA
350
A4
  3
AcDbVariableDictionary
350
A0
  0
SUN
  5
5D
330
29
100
AcDbSun
 90
        1
290
     0
 63
     7
421
 16777215
 40
1.0
291
     1
 91
  2455826
 92
 54000000
292
     0
 70
     2
 71
   256
280
     1
  0
DICTIONARY
  5
A7
102
{ACAD_REACTORS
330
C
102
}
330
C
100
AcDbDictionary
281
     1
  0
DICTIONARY
  5
D
102
{ACAD_REACTORS
330
C
102
}
330
C
100
AcDbDictionary
281
     1
  0
DICTIONARY
  5
1A
102
{ACAD_REACTORS
330
C
102
}
330
C
100
AcDbDictionary
281
     1
  3
Layout1
350
1E
  3
Layout2
350
26
  3
Model
350
22
  0
DICTIONARY
  5
43
102
{ACAD_REACTORS
330
C
102
}
330
C
100
AcDbDictionary
281
     1
  3
ByBlock
350
45
  3
ByLayer
350
44
  3
Global
350
46
  0
DICTIONARY
  5
5B
102
{ACAD_REACTORS
330
C
102
}
330
C
100
AcDbDictionary
281
     1
  3
Standard
350
5C
  0
DICTIONARY
  5
17
102
{ACAD_REACTORS
330
C
102
}
330
C
100
AcDbDictionary
281
     1
  3
Standard
350
18
  0
DICTIONARY
  5
19
102
{ACAD_REACTORS
330
C
102
}
330
C
100
AcDbDictionary
281
     1
  0
ACDBDICTIONARYWDFLT
  5
E
102
{ACAD_REACTORS
330
C
102
}
330
C
100
AcDbDictionary
281
     1
  3
Normal
350
F
100
AcDbDictionaryWithDefault
340
F
  0
DICTIONARY
  5
47
102
{ACAD_REACTORS
330
C
102
}
330
C
100
AcDbDictionary
281
     1
  3
A0
350
48
  3
A1
350
49
  3
A2
350
4A
  3
A3
350
4B
  3
A4
350
4C
  3
A5
350
4D
  3
A6
350
4E
  3
A7
350
4F
  3
A8
350
50
  3
A9
350
51
  3
B1
350
52
  3
B2
350
53
  3
B3
350
54
  3
B4
350
55
  3
B5
350
56
  3
B6
350
57
  3
B7
350
58
  0
DICTIONARY
  5
A8
102
{ACAD_REACTORS
330
C
102
}
330
C
100
AcDbDictionary
281
     1
  0
DICTIONARY
  5
59
102
{ACAD_REACTORS
330
C
102
}
330
C
100
AcDbDictionary
281
     1
  3
Standard
350
5A
  0
DICTIONARY
  5
2A
102
{ACAD_REACTORS
330
C
102
}
330
C
100
AcDbDictionary
281
     1
  3
2dWireframe
350
2F
  3
Basic
350
32
  3
Brighten
350
36
  3
ColorChange
350
3A
  3
Conceptual
350
34
  3
Dim
350
35
  3
EdgeColorOff
350
3D
  3
Facepattern
350
39
  3
Flat
350
2B
  3
FlatWithEdges
350
2C
  3
Gouraud
350
2D
  3
GouraudWithEdges
350
2E
  3
Hidden
350
31
  3
JitterOff
350
3B
  3
Linepattern
350
38
  3
OverhangOff
350
3C
  3
Realistic
350
33
  3
Shaded
350
42
  3
Shaded with edges
350
41
  3
Shades of Gray
350
3E
  3
Sketchy
350
3F
  3
Thicken
350
37
  3
Wireframe
350
30
  3
X-Ray
350
40
  0
XRECORD
  5
A4
102
{ACAD_REACTORS
330
C
102
}
330
C
100
AcDbXrecord
280
     1
 90
        1
330
5A
  0
DICTIONARY
  5
A0
102
{ACAD_REACTORS
330
C
102
}
330
C
100
AcDbDictionary
281
     1
  3
CANNOSCALE
350
A1
  3
CMLEADERSTYLE
350
A6
  3
CTABLESTYLE
350
A5
  0
LAYOUT
  5
1E
102
{ACAD_REACTORS
330
1A
102
}
330
1A
100
AcDbPlotSettings
  1

  2
none_device
  4

  6

 40
0.0
 41
0.0
 42
0.0
 43
0.0
 44
0.0
 45
0.0
 46
0.0
 47
0.0
 48
0.0
 49
0.0
140
0.0
141
0.0
142
1.0
143
1.0
 70
   688
 72
     0
 73
     0
 74
     5
  7

 75
    16
 76
     0
 77
     2
 78
   300
147
1.0
148
0.0
149
0.0
100
AcDbLayout
  1
Layout1
 70
     1
 71
     1
 10
0.0
 20
0.0
 11
12.0
 21
9.0
 12
0.0
 22
0.0
 32
0.0
 14
1.000000000000000E+20
 24
1.000000000000000E+20
 34
1.000000000000000E+20
 15
-1.000000000000000E+20
 25
-1.000000000000000E+20
 35
-1.000000000000000E+20
146
0.0
 13
0.0
 23
0.0
 33
0.0
 16
1.0
 26
0.0
 36
0.0
 17
0.0
 27
1.0
 37
0.0
 76
     0
330
1B
  0
LAYOUT
  5
26
102
{ACAD_REACTORS
330
1A
102
}
330
1A
100
AcDbPlotSettings
  1

  2
none_device
  4

  6

 40
0.0
 41
0.0
 42
0.0
 43
0.0
 44
0.0
 45
0.0
 46
0.0
 47
0.0
 48
0.0
 49
0.0
140
0.0
141
0.0
142
1.0
143
1.0
 70
   688
 72
     0
 73
     0
 74
     5
  7

 75
    16
 76
     0
 77
     2
 78
   300
147
1.0
148
0.0
149
0.0
100
AcDbLayout
  1
Layout2
 70
     1
 71
     2
 10
0.0
 20
0.0
 11
0.0
 21
0.0
 12
0.0
 22
0.0
 32
0.0
 14
0.0
 24
0.0
 34
0.0
 15
0.0
 25
0.0
 35
0.0
146
0.0
 13
0.0
 23
0.0
 33
0.0
 16
1.0
 26
0.0
 36
0.0
 17
0.0
 27
1.0
 37
0.0
 76
     0
330
23
  0
LAYOUT
  5
22
102
{ACAD_REACTORS
330
1A
102
}
330
1A
100
AcDbPlotSettings
  1

  2
none_device
  4
Letter_(8.50_x_11.00_Inches)
  6

 40
6.35
 41
6.35
 42
6.35000508
 43
6.35000508
 44
215.9
 45
279.4
 46
0.0
 47
0.0
 48
0.0
 49
0.0
140
0.0
141
0.0
142
1.0
143
1.0
 70
  1712
 72
     0
 73
     0
 74
     0
  7

 75
     0
 76
     0
 77
     2
 78
   300
147
1.0
148
0.0
149
0.0
100
AcDbLayout
  1
Model
 70
     1
 71
     0
 10
0.0
 20
0.0
 11
12.0
 21
9.0
 12
0.0
 22
0.0
 32
0.0
 14
-20.1902
 24
-20.253
 34
0.0
 15
19.7862
 25
19.7234
 35
0.0
146
0.0
 13
0.0
 23
0.0
 33
0.0
 16
1.0
 26
0.0
 36
0.0
 17
0.0
 27
1.0
 37
0.0
 76
     0
330
1F
331
29
  0
MATERIAL
  5
45
102
{ACAD_REACTORS
330
43
102
}
330
43
100
AcDbMaterial
  1
ByBlock
 72
     1
 94
      127
  0
MATERIAL
  5
44
102
{ACAD_REACTORS
330
43
102
}
330
43
100
AcDbMaterial
  1
ByLayer
 72
     1
 94
      127
  0
MATERIAL
  5
46
102
{ACAD_REACTORS
330
43
102
}
330
43
100
AcDbMaterial
  1
Global
 72
     1
 94
      127
  0
MLEADERSTYLE
  5
5C
102
{ACAD_REACTORS
330
5B
102
}
330
5B
100
AcDbMLeaderStyle
179
     2
170
     2
171
     1
172
     0
 90
        2
 40
0.0
 41
0.0
173
     1
 91
-1056964608
340
14
 92
       -2
290
     1
 42
0.09
291
     1
 43
0.36
  3
Standard
341
0
 44
0.18
300

342
11
174
     1
178
     6
175
     1
176
     0
 93
-1056964608
 45
0.18
292
     0
297
     0
 46
0.18
343
0
 94
-1056964608
 47
1.0
 49
1.0
140
1.0
293
     1
141
0.0
294
     1
177
     0
142
1.0
295
     0
296
     0
143
0.125
271
     0
272
     9
273
     9
298
     0
  0
MLINESTYLE
  5
18
102
{ACAD_REACTORS
330
17
102
}
330
17
100
AcDbMlineStyle
  2
Standard
 70
     0
  3

 62
   256
 51
90.0
 52
90.0
 71
     2
 49
0.5
 62
   256
  6
BYLAYER
 49
-0.5
 62
   256
  6
BYLAYER
  0
ACDBPLACEHOLDER
  5
F
102
{ACAD_REACTORS
330
E
102
}
330
E
  0
SCALE
  5
48
102
{ACAD_REACTORS
330
47
102
}
330
47
100
AcDbScale
 70
     0
300
1:1
140
1.0
141
1.0
290
     1
  0
SCALE
  5
49
102
{ACAD_REACTORS
330
47
102
}
330
47
100
AcDbScale
 70
     0
300
1/128" = 1'-0"
140
0.0078125
141
12.0
290
     0
  0
SCALE
  5
4A
102
{ACAD_REACTORS
330
47
102
}
330
47
100
AcDbScale
 70
     0
300
1/64" = 1'-0"
140
0.015625
141
12.0
290
     0
  0
SCALE
  5
4B
102
{ACAD_REACTORS
330
47
102
}
330
47
100
AcDbScale
 70
     0
300
1/32" = 1'-0"
140
0.03125
141
12.0
290
     0
  0
SCALE
  5
4C
102
{ACAD_REACTORS
330
47
102
}
330
47
100
AcDbScale
 70
     0
300
1/16" = 1'-0"
140
0.0625
141
12.0
290
     0
  0
SCALE
  5
4D
102
{ACAD_REACTORS
330
47
102
}
330
47
100
AcDbScale
 70
     0
300
3/32" = 1'-0"
140
0.09375
141
12.0
290
     0
  0
SCALE
  5
4E
102
{ACAD_REACTORS
330
47
102
}
330
47
100
AcDbScale
 70
     0
300
1/8" = 1'-0"
140
0.125
141
12.0
290
     0
  0
SCALE
  5
4F
102
{ACAD_REACTORS
330
47
102
}
330
47
100
AcDbScale
 70
     0
300
3/16" = 1'-0"
140
0.1875
141
12.0
290
     0
  0
SCALE
  5
50
102
{ACAD_REACTORS
330
47
102
}
330
47
100
AcDbScale
 70
     0
300
1/4" = 1'-0"
140
0.25
141
12.0
290
     0
  0
SCALE
  5
51
102
{ACAD_REACTORS
330
47
102
}
330
47
100
AcDbScale
 70
     0
300
3/8" = 1'-0"
140
0.375
141
12.0
290
     0
  0
SCALE
  5
52
102
{ACAD_REACTORS
330
47
102
}
330
47
100
AcDbScale
 70
     0
300
1/2" = 1'-0"
140
0.5
141
12.0
290
     0
  0
SCALE
  5
53
102
{ACAD_REACTORS
330
47
102
}
330
47
100
AcDbScale
 70
     0
300
3/4" = 1'-0"
140
0.75
141
12.0
290
     0
  0
SCALE
  5
54
102
{ACAD_REACTORS
330
47
102
}
330
47
100
AcDbScale
 70
     0
300
1" = 1'-0"
140
1.0
141
12.0
290
     0
  0
SCALE
  5
55
102
{ACAD_REACTORS
330
47
102
}
330
47
100
AcDbScale
 70
     0
300
1-1/2" = 1'-0"
140
1.5
141
12.0
290
     0
  0
SCALE
  5
56
102
{ACAD_REACTORS
330
47
102
}
330
47
100
AcDbScale
 70
     0
300
3" = 1'-0"
140
3.0
141
12.0
290
     0
  0
SCALE
  5
57
102
{ACAD_REACTORS
330
47
102
}
330
47
100
AcDbScale
 70
     0
300
6" = 1'-0"
140
6.0
141
12.0
290
     0
  0
SCALE
  5
58
102
{ACAD_REACTORS
330
47
102
}
330
47
100
AcDbScale
 70
     0
300
1'-0" = 1'-0"
140
12.0
141
12.0
290
     0
  0
TABLESTYLE
  5
5A
102
{ACAD_REACTORS
330
59
102
}
102
{ACAD_XDICTIONARY
360
A2
102
}
330
59
100
AcDbTableStyle
  3
Standard
 70
     0
 71
     0
 40
0.06
 41
0.06
280
     0
281
     0
  7
Standard
140
0.18
170
     2
 62
     0
 63
   257
283
     0
 90
        4
 91
        0
  1

274
    -2
284
     1
 64
     0
275
    -2
285
     1
 65
     0
276
    -2
286
     1
 66
     0
277
    -2
287
     1
 67
     0
278
    -2
288
     1
 68
     0
279
    -2
289
     1
 69
     0
  7
Standard
140
0.25
170
     5
 62
     0
 63
   257
283
     0
 90
        4
 91
        0
  1

274
    -2
284
     1
 64
     0
275
    -2
285
     1
 65
     0
276
    -2
286
     1
 66
     0
277
    -2
287
     1
 67
     0
278
    -2
288
     1
 68
     0
279
    -2
289
     1
 69
     0
  7
Standard
140
0.18
170
     5
 62
     0
 63
   257
283
     0
 90
        4
 91
        0
  1

274
    -2
284
     1
 64
     0
275
    -2
285
     1
 65
     0
276
    -2
286
     1
 66
     0
277
    -2
287
     1
 67
     0
278
    -2
288
     1
 68
     0
279
    -2
289
     1
 69
     0
  0
VISUALSTYLE
  5
2F
102
{ACAD_REACTORS
330
2A
102
}
330
2A
100
AcDbVisualStyle
  2
2dWireframe
 70
     4
177
     3
291
     0
 70
    58
 90
        0
176
     1
 90
        2
176
     1
 90
        0
176
     1
 90
        0
176
     1
 40
0.6
176
     1
 40
30.0
176
     1
 62
     7
420
 16777215
176
     1
 90
        1
176
     1
 90
        4
176
     1
 62
     7
176
     1
 62
   257
176
     1
 90
        1
176
     1
 90
        1
176
     1
 40
1.0
176
     1
 90
        0
176
     1
 62
   257
176
     1
 40
1.0
176
     1
 90
        1
176
     1
 90
        6
176
     1
 90
        2
176
     1
 62
     7
176
     1
 90
        5
176
     1
 90
        0
176
     1
 90
        0
176
     1
290
     0
176
     1
 90
        1
176
     1
 40
0.0
176
     1
 90
        0
176
     1
290
     1
176
     1
290
     1
176
     1
290
     0
176
     1
290
     0
176
     1
290
     0
176
     1
290
     0
176
     1
290
     0
176
     1
290
     0
176
     1
290
     0
176
     1
 90
       50
176
     1
 40
0.0
176
     1
 40
1.0
176
     1
 90
        0
176
     1
 62
    18
420
        0
176
     1
 90
       50
176
     1
 90
        3
176
     1
 62
     5
420
      255
176
     1
290
     0
176
     1
 90
       50
176
     1
 90
       50
176
     1
 90
       50
176
     1
290
     0
176
     1
 90
       50
176
     1
 62
   256
176
     0
 40
1.0
176
     0
 90
        2
176
     1
  1
strokes_ogs.tif
176
     1
290
     0
176
     1
 40
1.0
176
     1
 40
1.0
176
     1
  0
VISUALSTYLE
  5
32
102
{ACAD_REACTORS
330
2A
102
}
330
2A
100
AcDbVisualStyle
  2
Basic
 70
     7
177
     3
291
     1
 70
    58
 90
        1
176
     1
 90
        0
176
     1
 90
        1
176
     1
 90
        0
176
     1
 40
0.6
176
     1
 40
30.0
176
     1
 62
     7
420
 16777215
176
     1
 90
        0
176
     1
 90
        4
176
     1
 62
     7
176
     1
 62
   257
176
     1
 90
        1
176
     1
 90
        1
176
     1
 40
1.0
176
     1
 90
        8
176
     1
 62
     7
176
     1
 40
1.0
176
     1
 90
        1
176
     1
 90
        6
176
     1
 90
        2
176
     1
 62
     7
176
     1
 90
        5
176
     1
 90
        0
176
     1
 90
        0
176
     1
290
     0
176
     1
 90
        1
176
     1
 40
0.0
176
     1
 90
        0
176
     1
290
     0
176
     1
290
     1
176
     1
290
     1
176
     1
290
     0
176
     1
290
     0
176
     1
290
     0
176
     1
290
     0
176
     1
290
     0
176
     1
290
     0
176
     1
 90
       50
176
     1
 40
0.0
176
     1
 40
1.0
176
     1
 90
        0
176
     1
 62
    18
420
        0
176
     1
 90
       50
176
     1
 90
        3
176
     1
 62
     5
420
      255
176
     1
290
     0
176
     1
 90
       50
176
     1
 90
       50
176
     1
 90
       50
176
     1
290
     0
176
     1
 90
       50
176
     1
 62
   256
176
     0
 40
1.0
176
     0
 90
        2
176
     1
  1
strokes_ogs.tif
176
     1
290
     0
176
     1
 40
1.0
176
     1
 40
1.0
176
     1
  0
VISUALSTYLE
  5
36
102
{ACAD_REACTORS
330
2A
102
}
330
2A
100
AcDbVisualStyle
  2
Brighten
 70
    12
177
     3
291
     1
 70
    58
 90
        2
176
     1
 90
        2
176
     1
 90
        0
176
     1
 90
        0
176
     1
 40
0.6
176
     1
 40
30.0
176
     1
 62
     7
420
 16777215
176
     1
 90
        1
176
     1
 90
        4
176
     1
 62
     7
176
     1
 62
   257
176
     1
 90
        1
176
     1
 90
        1
176
     1
 40
1.0
176
     1
 90
        8
176
     1
 62
     7
176
     1
 40
1.0
176
     1
 90
        1
176
     1
 90
        6
176
     1
 90
        2
176
     1
 62
     7
176
     1
 90
        5
176
     1
 90
        0
176
     1
 90
        0
176
     1
290
     0
176
     1
 90
        1
176
     1
 40
50.0
176
     1
 90
        0
176
     1
290
     0
176
     1
290
     1
176
     1
290
     1
176
     1
290
     0
176
     1
290
     0
176
     1
290
     0
176
     1
290
     0
176
     1
290
     0
176
     1
290
     0
176
     1
 90
       50
176
     1
 40
0.0
176
     1
 40
1.0
176
     1
 90
        0
176
     1
 62
    18
420
        0
176
     1
 90
       50
176
     1
 90
        3
176
     1
 62
     5
420
      255
176
     1
290
     0
176
     1
 90
       50
176
     1
 90
       50
176
     1
 90
       50
176
     1
290
     0
176
     1
 90
       50
176
     1
 62
   256
176
     0
 40
1.0
176
     0
 90
        2
176
     1
  1
strokes_ogs.tif
176
     1
290
     0
176
     1
 40
1.0
176
     1
 40
1.0
176
     1
  0
VISUALSTYLE
  5
3A
102
{ACAD_REACTORS
330
2A
102
}
330
2A
100
AcDbVisualStyle
  2
ColorChange
 70
    16
177
     3
291
     1
 70
    58
 90
        2
176
     1
 90
        2
176
     1
 90
        3
176
     1
 90
        0
176
     1
 40
0.6
176
     1
 40
30.0
176
     1
 62
     8
420
  8421504
176
     1
 90
        1
176
     1
 90
        4
176
     1
 62
     7
176
     1
 62
   257
176
     1
 90
        1
176
     1
 90
        1
176
     1
 40
1.0
176
     1
 90
        8
176
     1
 62
     8
420
  8421504
176
     1
 40
1.0
176
     1
 90
        1
176
     1
 90
        6
176
     1
 90
        2
176
     1
 62
     7
176
     1
 90
        5
176
     1
 90
        0
176
     1
 90
        0
176
     1
290
     0
176
     1
 90
        1
176
     1
 40
0.0
176
     1
 90
        0
176
     1
290
     0
176
     1
290
     1
176
     1
290
     1
176
     1
290
     0
176
     1
290
     0
176
     1
290
     0
176
     1
290
     0
176
     1
290
     0
176
     1
290
     0
176
     1
 90
       50
176
     1
 40
0.0
176
     1
 40
1.0
176
     1
 90
        0
176
     1
 62
    18
420
        0
176
     1
 90
       50
176
     1
 90
        3
176
     1
 62
     5
420
      255
176
     1
290
     0
176
     1
 90
       50
176
     1
 90
       50
176
     1
 90
       50
176
     1
290
     0
176
     1
 90
       50
176
     1
 62
   256
176
     0
 40
1.0
176
     0
 90
        2
176
     1
  1
strokes_ogs.tif
176
     1
290
     0
176
     1
 40
1.0
176
     1
 40
1.0
176
     1
  0
VISUALSTYLE
  5
34
102
{ACAD_REACTORS
330
2A
102
}
330
2A
100
AcDbVisualStyle
  2
Conceptual
 70
     9
177
     3
291
     0
 70
    58
 90
        3
176
     1
 90
        2
176
     1
 90
        0
176
     1
 90
        0
176
     1
 40
0.6
176
     1
 40
30.0
176
     1
 62
     7
420
 16777215
176
     1
 90
        2
176
     1
 90
        2
176
     1
 62
     7
176
     1
 62
   257
176
     1
 90
        1
176
     1
 90
        1
176
     1
 40
179.0
176
     1
 90
        8
176
     1
 62
     7
176
     1
 40
1.0
176
     1
 90
        1
176
     1
 90
        6
176
     1
 90
        2
176
     1
 62
     7
176
     1
 90
        3
176
     1
 90
        0
176
     1
 90
        0
176
     1
290
     0
176
     1
 90
        1
176
     1
 40
0.0
176
     1
 90
        0
176
     1
290
     0
176
     1
290
     1
176
     1
290
     1
176
     1
290
     0
176
     1
290
     0
176
     1
290
     0
176
     1
290
     0
176
     1
290
     0
176
     1
290
     0
176
     1
 90
       50
176
     1
 40
0.0
176
     1
 40
1.0
176
     1
 90
        0
176
     1
 62
    18
420
        0
176
     1
 90
       50
176
     1
 90
        3
176
     1
 62
     5
420
      255
176
     1
290
     0
176
     1
 90
       50
176
     1
 90
       50
176
     1
 90
       50
176
     1
290
     0
176
     1
 90
       50
176
     1
 62
   256
176
     0
 40
1.0
176
     0
 90
        2
176
     1
  1
strokes_ogs.tif
176
     1
290
     0
176
     1
 40
1.0
176
     1
 40
1.0
176
     1
  0
VISUALSTYLE
  5
35
102
{ACAD_REACTORS
330
2A
102
}
330
2A
100
AcDbVisualStyle
  2
Dim
 70
    11
177
     3
291
     1
 70
    58
 90
        2
176
     1
 90
        2
176
     1
 90
        0
176
     1
 90
        0
176
     1
 40
0.6
176
     1
 40
30.0
176
     1
 62
     7
420
 16777215
176
     1
 90
        1
176
     1
 90
        4
176
     1
 62
     7
176
     1
 62
   257
176
     1
 90
        1
176
     1
 90
        1
176
     1
 40
1.0
176
     1
 90
        8
176
     1
 62
     7
176
     1
 40
1.0
176
     1
 90
        1
176
     1
 90
        6
176
     1
 90
        2
176
     1
 62
     7
176
     1
 90
        5
176
     1
 90
        0
176
     1
 90
        0
176
     1
290
     0
176
     1
 90
        1
176
     1
 40
-50.0
176
     1
 90
        0
176
     1
290
     0
176
     1
290
     1
176
     1
290
     1
176
     1
290
     0
176
     1
290
     0
176
     1
290
     0
176
     1
290
     0
176
     1
290
     0
176
     1
290
     0
176
     1
 90
       50
176
     1
 40
0.0
176
     1
 40
1.0
176
     1
 90
        0
176
     1
 62
    18
420
        0
176
     1
 90
       50
176
     1
 90
        3
176
     1
 62
     5
420
      255
176
     1
290
     0
176
     1
 90
       50
176
     1
 90
       50
176
     1
 90
       50
176
     1
290
     0
176
     1
 90
       50
176
     1
 62
   256
176
     0
 40
1.0
176
     0
 90
        2
176
     1
  1
strokes_ogs.tif
176
     1
290
     0
176
     1
 40
1.0
176
     1
 40
1.0
176
     1
  0
VISUALSTYLE
  5
3D
102
{ACAD_REACTORS
330
2A
102
}
330
2A
100
AcDbVisualStyle
  2
EdgeColorOff
 70
    22
177
     3
291
     1
 70
    58
 90
        2
176
     0
 90
        2
176
     0
 90
        0
176
     0
 90
        0
176
     0
 40
0.6
176
     0
 40
30.0
176
     0
 62
     7
420
 16777215
176
     0
 90
        1
176
     0
 90
        4
176
     0
 62
     7
176
     0
 62
   257
176
     0
 90
        1
176
     0
 90
        1
176
     0
 40
1.0
176
     0
 90
        8
176
     2
 62
     7
176
     0
 40
1.0
176
     0
 90
        1
176
     0
 90
        6
176
     0
 90
        2
176
     0
 62
     7
176
     0
 90
        5
176
     0
 90
        0
176
     0
 90
        0
176
     0
290
     0
176
     0
 90
        1
176
     0
 40
0.0
176
     0
 90
        0
176
     0
290
     0
176
     0
290
     1
176
     0
290
     1
176
     0
290
     0
176
     0
290
     0
176
     0
290
     0
176
     0
290
     0
176
     0
290
     0
176
     0
290
     0
176
     0
 90
       50
176
     0
 40
0.0
176
     0
 40
1.0
176
     0
 90
        0
176
     0
 62
    18
420
        0
176
     0
 90
       50
176
     0
 90
        3
176
     0
 62
     5
420
      255
176
     0
290
     0
176
     0
 90
       50
176
     0
 90
       50
176
     0
 90
       50
176
     0
290
     0
176
     0
 90
       50
176
     0
 62
   256
176
     0
 40
1.0
176
     0
 90
        2
176
     0
  1
strokes_ogs.tif
176
     0
290
     0
176
     0
 40
1.0
176
     0
 40
1.0
176
     0
  0
VISUALSTYLE
  5
39
102
{ACAD_REACTORS
330
2A
102
}
330
2A
100
AcDbVisualStyle
  2
Facepattern
 70
    15
177
     3
291
     1
 70
    58
 90
        2
176
     1
 90
        2
176
     1
 90
        0
176
     1
 90
        0
176
     1
 40
0.6
176
     1
 40
30.0
176
     1
 62
     7
420
 16777215
176
     1
 90
        1
176
     1
 90
        4
176
     1
 62
     7
176
     1
 62
   257
176
     1
 90
        1
176
     1
 90
        1
176
     1
 40
1.0
176
     1
 90
        8
176
     1
 62
     7
176
     1
 40
1.0
176
     1
 90
        1
176
     1
 90
        6
176
     1
 90
        2
176
     1
 62
     7
176
     1
 90
        5
176
     1
 90
        0
176
     1
 90
        0
176
     1
290
     0
176
     1
 90
        1
176
     1
 40
0.0
176
     1
 90
        0
176
     1
290
     0
176
     1
290
     1
176
     1
290
     1
176
     1
290
     0
176
     1
290
     0
176
     1
290
     0
176
     1
290
     0
176
     1
290
     0
176
     1
290
     0
176
     1
 90
       50
176
     1
 40
0.0
176
     1
 40
1.0
176
     1
 90
        0
176
     1
 62
    18
420
        0
176
     1
 90
       50
176
     1
 90
        3
176
     1
 62
     5
420
      255
176
     1
290
     0
176
     1
 90
       50
176
     1
 90
       50
176
     1
 90
       50
176
     1
290
     0
176
     1
 90
       50
176
     1
 62
   256
176
     0
 40
1.0
176
     0
 90
        2
176
     1
  1
strokes_ogs.tif
176
     1
290
     0
176
     1
 40
1.0
176
     1
 40
1.0
176
     1
  0
VISUALSTYLE
  5
2B
102
{ACAD_REACTORS
330
2A
102
}
330
2A
100
AcDbVisualStyle
  2
Flat
 70
     0
177
     3
291
     1
 70
    58
 90
        2
176
     1
 90
        1
176
     1
 90
        1
176
     1
 90
        2
176
     1
 40
0.6
176
     1
 40
30.0
176
     1
 62
     7
420
 16777215
176
     1
 90
        0
176
     1
 90
        0
176
     1
 62
     7
176
     1
 62
   257
176
     1
 90
        1
176
     1
 90
        1
176
     1
 40
1.0
176
     1
 90
        8
176
     1
 62
     7
176
     1
 40
1.0
176
     1
 90
        1
176
     1
 90
        6
176
     1
 90
        2
176
     1
 62
     7
176
     1
 90
        5
176
     1
 90
        0
176
     1
 90
        0
176
     1
290
     0
176
     1
 90
       13
176
     1
 40
0.0
176
     1
 90
        0
176
     1
290
     0
176
     1
290
     1
176
     1
290
     1
176
     1
290
     0
176
     1
290
     0
176
     1
290
     0
176
     1
290
     0
176
     1
290
     0
176
     1
290
     0
176
     1
 90
       50
176
     1
 40
0.0
176
     1
 40
1.0
176
     1
 90
        0
176
     1
 62
    18
420
        0
176
     1
 90
       50
176
     1
 90
        3
176
     1
 62
     5
420
      255
176
     1
290
     0
176
     1
 90
       50
176
     1
 90
       50
176
     1
 90
       50
176
     1
290
     0
176
     1
 90
       50
176
     1
 62
   256
176
     0
 40
1.0
176
     0
 90
        2
176
     1
  1
strokes_ogs.tif
176
     1
290
     0
176
     1
 40
1.0
176
     1
 40
1.0
176
     1
  0
VISUALSTYLE
  5
2C
102
{ACAD_REACTORS
330
2A
102
}
330
2A
100
AcDbVisualStyle
  2
FlatWithEdges
 70
     1
177
     3
291
     1
 70
    58
 90
        2
176
     1
 90
        1
176
     1
 90
        1
176
     1
 90
        2
176
     1
 40
0.6
176
     1
 40
30.0
176
     1
 62
     7
420
 16777215
176
     1
 90
        1
176
     1
 90
        0
176
     1
 62
     7
176
     1
 62
   257
176
     1
 90
        1
176
     1
 90
        1
176
     1
 40
1.0
176
     1
 90
        0
176
     1
 62
   257
176
     1
 40
1.0
176
     1
 90
        1
176
     1
 90
        6
176
     1
 90
        2
176
     1
 62
     7
176
     1
 90
        5
176
     1
 90
        0
176
     1
 90
        0
176
     1
290
     0
176
     1
 90
       13
176
     1
 40
0.0
176
     1
 90
        0
176
     1
290
     0
176
     1
290
     1
176
     1
290
     1
176
     1
290
     0
176
     1
290
     0
176
     1
290
     0
176
     1
290
     0
176
     1
290
     0
176
     1
290
     0
176
     1
 90
       50
176
     1
 40
0.0
176
     1
 40
1.0
176
     1
 90
        0
176
     1
 62
    18
420
        0
176
     1
 90
       50
176
     1
 90
        3
176
     1
 62
     5
420
      255
176
     1
290
     0
176
     1
 90
       50
176
     1
 90
       50
176
     1
 90
       50
176
     1
290
     0
176
     1
 90
       50
176
     1
 62
   256
176
     0
 40
1.0
176
     0
 90
        2
176
     1
  1
strokes_ogs.tif
176
     1
290
     0
176
     1
 40
1.0
176
     1
 40
1.0
176
     1
  0
VISUALSTYLE
  5
2D
102
{ACAD_REACTORS
330
2A
102
}
330
2A
100
AcDbVisualStyle
  2
Gouraud
 70
     2
177
     3
291
     1
 70
    58
 90
        2
176
     1
 90
        2
176
     1
 90
        1
176
     1
 90
        2
176
     1
 40
0.6
176
     1
 40
30.0
176
     1
 62
     7
420
 16777215
176
     1
 90
        0
176
     1
 90
        0
176
     1
 62
     7
176
     1
 62
   257
176
     1
 90
        1
176
     1
 90
        1
176
     1
 40
1.0
176
     1
 90
        0
176
     1
 62
     7
176
     1
 40
1.0
176
     1
 90
        1
176
     1
 90
        6
176
     1
 90
        2
176
     1
 62
     7
176
     1
 90
        5
176
     1
 90
        0
176
     1
 90
        0
176
     1
290
     0
176
     1
 90
       13
176
     1
 40
0.0
176
     1
 90
        0
176
     1
290
     0
176
     1
290
     1
176
     1
290
     1
176
     1
290
     0
176
     1
290
     0
176
     1
290
     0
176
     1
290
     0
176
     1
290
     0
176
     1
290
     0
176
     1
 90
       50
176
     1
 40
0.0
176
     1
 40
1.0
176
     1
 90
        0
176
     1
 62
    18
420
        0
176
     1
 90
       50
176
     1
 90
        3
176
     1
 62
     5
420
      255
176
     1
290
     0
176
     1
 90
       50
176
     1
 90
       50
176
     1
 90
       50
176
     1
290
     0
176
     1
 90
       50
176
     1
 62
   256
176
     0
 40
1.0
176
     0
 90
        2
176
     1
  1
strokes_ogs.tif
176
     1
290
     0
176
     1
 40
1.0
176
     1
 40
1.0
176
     1
  0
VISUALSTYLE
  5
2E
102
{ACAD_REACTORS
330
2A
102
}
330
2A
100
AcDbVisualStyle
  2
GouraudWithEdges
 70
     3
177
     3
291
     1
 70
    58
 90
        2
176
     1
 90
        2
176
     1
 90
        1
176
     1
 90
        2
176
     1
 40
0.6
176
     1
 40
30.0
176
     1
 62
     7
420
 16777215
176
     1
 90
        1
176
     1
 90
        0
176
     1
 62
     7
176
     1
 62
   257
176
     1
 90
        1
176
     1
 90
        1
176
     1
 40
1.0
176
     1
 90
        0
176
     1
 62
   257
176
     1
 40
1.0
176
     1
 90
        1
176
     1
 90
        6
176
     1
 90
        2
176
     1
 62
     7
176
     1
 90
        5
176
     1
 90
        0
176
     1
 90
        0
176
     1
290
     0
176
     1
 90
       13
176
     1
 40
0.0
176
     1
 90
        0
176
     1
290
     0
176
     1
290
     1
176
     1
290
     1
176
     1
290
     0
176
     1
290
     0
176
     1
290
     0
176
     1
290
     0
176
     1
290
     0
176
     1
290
     0
176
     1
 90
       50
176
     1
 40
0.0
176
     1
 40
1.0
176
     1
 90
        0
176
     1
 62
    18
420
        0
176
     1
 90
       50
176
     1
 90
        3
176
     1
 62
     5
420
      255
176
     1
290
     0
176
     1
 90
       50
176
     1
 90
       50
176
     1
 90
       50
176
     1
290
     0
176
     1
 90
       50
176
     1
 62
   256
176
     0
 40
1.0
176
     0
 90
        2
176
     1
  1
strokes_ogs.tif
176
     1
290
     0
176
     1
 40
1.0
176
     1
 40
1.0
176
     1
  0
VISUALSTYLE
  5
31
102
{ACAD_REACTORS
330
2A
102
}
330
2A
100
AcDbVisualStyle
  2
Hidden
 70
     6
177
     3
291
     0
 70
    58
 90
        1
176
     1
 90
        2
176
     1
 90
        2
176
     1
 90
        0
176
     1
 40
0.6
176
     1
 40
30.0
176
     1
 62
     7
420
 16777215
176
     1
 90
        2
176
     1
 90
        2
176
     1
 62
     7
176
     1
 62
   257
176
     1
 90
        2
176
     1
 90
        1
176
     1
 40
40.0
176
     1
 90
        0
176
     1
 62
   257
176
     1
 40
1.0
176
     1
 90
        1
176
     1
 90
        6
176
     1
 90
        2
176
     1
 62
     7
176
     1
 90
        3
176
     1
 90
        0
176
     1
 90
        0
176
     1
290
     0
176
     1
 90
        1
176
     1
 40
0.0
176
     1
 90
        0
176
     1
290
     0
176
     1
290
     1
176
     1
290
     1
176
     1
290
     0
176
     1
290
     0
176
     1
290
     0
176
     1
290
     0
176
     1
290
     0
176
     1
290
     0
176
     1
 90
       50
176
     1
 40
0.0
176
     1
 40
1.0
176
     1
 90
        0
176
     1
 62
    18
420
        0
176
     1
 90
       50
176
     1
 90
        3
176
     1
 62
     5
420
      255
176
     1
290
     0
176
     1
 90
       50
176
     1
 90
       50
176
     1
 90
       50
176
     1
290
     0
176
     1
 90
       50
176
     1
 62
   256
176
     0
 40
1.0
176
     0
 90
        2
176
     1
  1
strokes_ogs.tif
176
     1
290
     0
176
     1
 40
1.0
176
     1
 40
1.0
176
     1
  0
VISUALSTYLE
  5
3B
102
{ACAD_REACTORS
330
2A
102
}
330
2A
100
AcDbVisualStyle
  2
JitterOff
 70
    20
177
     3
291
     1
 70
    58
 90
        2
176
     0
 90
        2
176
     0
 90
        0
176
     0
 90
        0
176
     0
 40
0.6
176
     0
 40
30.0
176
     0
 62
     7
420
 16777215
176
     0
 90
        1
176
     0
 90
        4
176
     0
 62
     7
176
     0
 62
   257
176
     0
 90
        1
176
     0
 90
        1
176
     0
 40
1.0
176
     0
 90
       10
176
     2
 62
     7
176
     0
 40
1.0
176
     0
 90
        1
176
     0
 90
        6
176
     0
 90
        2
176
     0
 62
     7
176
     0
 90
        5
176
     0
 90
        0
176
     0
 90
        0
176
     0
290
     0
176
     0
 90
        1
176
     0
 40
0.0
176
     0
 90
        0
176
     0
290
     0
176
     0
290
     1
176
     0
290
     1
176
     0
290
     0
176
     0
290
     0
176
     0
290
     0
176
     0
290
     0
176
     0
290
     0
176
     0
290
     0
176
     0
 90
       50
176
     0
 40
0.0
176
     0
 40
1.0
176
     0
 90
        0
176
     0
 62
    18
420
        0
176
     0
 90
       50
176
     0
 90
        3
176
     0
 62
     5
420
      255
176
     0
290
     0
176
     0
 90
       50
176
     0
 90
       50
176
     0
 90
       50
176
     0
290
     0
176
     0
 90
       50
176
     0
 62
   256
176
     0
 40
1.0
176
     0
 90
        2
176
     0
  1
strokes_ogs.tif
176
     0
290
     0
176
     0
 40
1.0
176
     0
 40
1.0
176
     0
  0
VISUALSTYLE
  5
38
102
{ACAD_REACTORS
330
2A
102
}
330
2A
100
AcDbVisualStyle
  2
Linepattern
 70
    14
177
     3
291
     1
 70
    58
 90
        2
176
     1
 90
        2
176
     1
 90
        0
176
     1
 90
        0
176
     1
 40
0.6
176
     1
 40
30.0
176
     1
 62
     7
420
 16777215
176
     1
 90
        1
176
     1
 90
        4
176
     1
 62
     7
176
     1
 62
   257
176
     1
 90
        7
176
     1
 90
        7
176
     1
 40
1.0
176
     1
 90
        8
176
     1
 62
     7
176
     1
 40
1.0
176
     1
 90
        1
176
     1
 90
        6
176
     1
 90
        2
176
     1
 62
     7
176
     1
 90
        5
176
     1
 90
        0
176
     1
 90
        0
176
     1
290
     0
176
     1
 90
        1
176
     1
 40
0.0
176
     1
 90
        0
176
     1
290
     0
176
     1
290
     1
176
     1
290
     1
176
     1
290
     0
176
     1
290
     0
176
     1
290
     0
176
     1
290
     0
176
     1
290
     0
176
     1
290
     0
176
     1
 90
       50
176
     1
 40
0.0
176
     1
 40
1.0
176
     1
 90
        0
176
     1
 62
    18
420
        0
176
     1
 90
       50
176
     1
 90
        3
176
     1
 62
     5
420
      255
176
     1
290
     0
176
     1
 90
       50
176
     1
 90
       50
176
     1
 90
       50
176
     1
290
     0
176
     1
 90
       50
176
     1
 62
   256
176
     0
 40
1.0
176
     0
 90
        2
176
     1
  1
strokes_ogs.tif
176
     1
290
     0
176
     1
 40
1.0
176
     1
 40
1.0
176
     1
  0
VISUALSTYLE
  5
3C
102
{ACAD_REACTORS
330
2A
102
}
330
2A
100
AcDbVisualStyle
  2
OverhangOff
 70
    21
177
     3
291
     1
 70
    58
 90
        2
176
     0
 90
        2
176
     0
 90
        0
176
     0
 90
        0
176
     0
 40
0.6
176
     0
 40
30.0
176
     0
 62
     7
420
 16777215
176
     0
 90
        1
176
     0
 90
        4
176
     0
 62
     7
176
     0
 62
   257
176
     0
 90
        1
176
     0
 90
        1
176
     0
 40
1.0
176
     0
 90
        9
176
     2
 62
     7
176
     0
 40
1.0
176
     0
 90
        1
176
     0
 90
        6
176
     0
 90
        2
176
     0
 62
     7
176
     0
 90
        5
176
     0
 90
        0
176
     0
 90
        0
176
     0
290
     0
176
     0
 90
        1
176
     0
 40
0.0
176
     0
 90
        0
176
     0
290
     0
176
     0
290
     1
176
     0
290
     1
176
     0
290
     0
176
     0
290
     0
176
     0
290
     0
176
     0
290
     0
176
     0
290
     0
176
     0
290
     0
176
     0
 90
       50
176
     0
 40
0.0
176
     0
 40
1.0
176
     0
 90
        0
176
     0
 62
    18
420
        0
176
     0
 90
       50
176
     0
 90
        3
176
     0
 62
     5
420
      255
176
     0
290
     0
176
     0
 90
       50
176
     0
 90
       50
176
     0
 90
       50
176
     0
290
     0
176
     0
 90
       50
176
     0
 62
   256
176
     0
 40
1.0
176
     0
 90
        2
176
     0
  1
strokes_ogs.tif
176
     0
290
     0
176
     0
 40
1.0
176
     0
 40
1.0
176
     0
  0
VISUALSTYLE
  5
33
102
{ACAD_REACTORS
330
2A
102
}
330
2A
100
AcDbVisualStyle
  2
Realistic
 70
     8
177
     3
291
     0
 70
    58
 90
        2
176
     1
 90
        3
176
     1
 90
        0
176
     1
 90
        2
176
     1
 40
0.6
176
     1
 40
30.0
176
     1
 62
     7
420
 16777215
176
     1
 90
        0
176
     1
 90
        0
176
     1
 62
     7
176
     1
 62
   257
176
     1
 90
        1
176
     1
 90
        1
176
     1
 40
1.0
176
     1
 90
        8
176
     1
 62
   257
176
     1
 40
1.0
176
     1
 90
        1
176
     1
 90
        6
176
     1
 90
        2
176
     1
 62
     7
176
     1
 90
        3
176
     1
 90
        0
176
     1
 90
        0
176
     1
290
     0
176
     1
 90
       13
176
     1
 40
0.0
176
     1
 90
        0
176
     1
290
     0
176
     1
290
     1
176
     1
290
     1
176
     1
290
     0
176
     1
290
     0
176
     1
290
     0
176
     1
290
     0
176
     1
290
     0
176
     1
290
     0
176
     1
 90
       50
176
     1
 40
0.0
176
     1
 40
1.0
176
     1
 90
        0
176
     1
 62
    18
420
        0
176
     1
 90
       50
176
     1
 90
        3
176
     1
 62
     5
420
      255
176
     1
290
     0
176
     1
 90
       50
176
     1
 90
       50
176
     1
 90
       50
176
     1
290
     0
176
     1
 90
       50
176
     1
 62
   256
176
     0
 40
1.0
176
     0
 90
        2
176
     1
  1
strokes_ogs.tif
176
     1
290
     0
176
     1
 40
1.0
176
     1
 40
1.0
176
     1
  0
VISUALSTYLE
  5
42
102
{ACAD_REACTORS
330
2A
102
}
330
2A
100
AcDbVisualStyle
  2
Shaded
 70
    27
177
     3
291
     0
 70
    58
 90
        2
176
     1
 90
        2
176
     1
 90
        1
176
     1
 90
        2
176
     1
 40
0.6
176
     1
 40
30.0
176
     1
 62
     7
420
 16777215
176
     1
 90
        0
176
     1
 90
        4
176
     1
 62
     7
176
     1
 62
   257
176
     1
 90
        1
176
     1
 90
        1
176
     1
 40
1.0
176
     1
 90
        8
176
     1
 62
   257
176
     1
 40
1.0
176
     1
 90
        1
176
     1
 90
        6
176
     1
 90
        2
176
     1
 62
     8
420
  7895160
176
     1
 90
        3
176
     1
 90
        0
176
     1
 90
        0
176
     1
290
     0
176
     1
 90
        5
176
     1
 40
0.0
176
     1
 90
        0
176
     1
290
     0
176
     1
290
     1
176
     1
290
     1
176
     1
290
     0
176
     1
290
     0
176
     1
290
     0
176
     1
290
     0
176
     1
290
     0
176
     1
290
     0
176
     1
 90
       50
176
     1
 40
0.0
176
     1
 40
1.0
176
     1
 90
        0
176
     1
 62
    18
420
        0
176
     1
 90
       50
176
     1
 90
        3
176
     1
 62
     5
420
      255
176
     1
290
     0
176
     1
 90
       50
176
     1
 90
       50
176
     1
 90
       50
176
     1
290
     0
176
     1
 90
       50
176
     1
 62
   256
176
     0
 40
1.0
176
     0
 90
        2
176
     1
  1
strokes_ogs.tif
176
     1
290
     0
176
     1
 40
1.0
176
     1
 40
1.0
176
     1
  0
VISUALSTYLE
  5
41
102
{ACAD_REACTORS
330
2A
102
}
330
2A
100
AcDbVisualStyle
  2
Shaded with edges
 70
    26
177
     3
291
     0
 70
    58
 90
        2
176
     1
 90
        2
176
     1
 90
        1
176
     1
 90
        2
176
     1
 40
0.6
176
     1
 40
30.0
176
     1
 62
     7
420
 16777215
176
     1
 90
        1
176
     1
 90
       10
176
     1
 62
     7
176
     1
 62
   257
176
     1
 90
        2
176
     1
 90
        1
176
     1
 40
1.0
176
     1
 90
        8
176
     1
 62
   257
176
     1
 40
1.0
176
     1
 90
        1
176
     1
 90
        6
176
     1
 90
        2
176
     1
 62
     7
176
     1
 90
        3
176
     1
 90
        0
176
     1
 90
        0
176
     1
290
     0
176
     1
 90
        5
176
     1
 40
0.0
176
     1
 90
        0
176
     1
290
     0
176
     1
290
     1
176
     1
290
     1
176
     1
290
     0
176
     1
290
     0
176
     1
290
     0
176
     1
290
     0
176
     1
290
     0
176
     1
290
     0
176
     1
 90
       50
176
     1
 40
0.0
176
     1
 40
1.0
176
     1
 90
        0
176
     1
 62
    18
420
        0
176
     1
 90
       50
176
     1
 90
        3
176
     1
 62
     5
420
      255
176
     1
290
     0
176
     1
 90
       50
176
     1
 90
       50
176
     1
 90
       50
176
     1
290
     0
176
     1
 90
       50
176
     1
 62
   256
176
     0
 40
1.0
176
     0
 90
        2
176
     1
  1
strokes_ogs.tif
176
     1
290
     0
176
     1
 40
1.0
176
     1
 40
1.0
176
     1
  0
VISUALSTYLE
  5
3E
102
{ACAD_REACTORS
330
2A
102
}
330
2A
100
AcDbVisualStyle
  2
Shades of Gray
 70
    23
177
     3
291
     0
 70
    58
 90
        2
176
     1
 90
        2
176
     1
 90
        3
176
     1
 90
        0
176
     1
 40
0.6
176
     1
 40
30.0
176
     1
 62
     7
420
 16777215
176
     1
 90
        2
176
     1
 90
        2
176
     1
 62
     7
176
     1
 62
     7
176
     1
 90
        1
176
     1
 90
        1
176
     1
 40
40.0
176
     1
 90
        8
176
     1
 62
     7
176
     1
 40
1.0
176
     1
 90
        1
176
     1
 90
        6
176
     1
 90
        2
176
     1
 62
     7
176
     1
 90
        3
176
     1
 90
        0
176
     1
 90
        0
176
     1
290
     0
176
     1
 90
        1
176
     1
 40
0.0
176
     1
 90
        0
176
     1
290
     0
176
     1
290
     1
176
     1
290
     1
176
     1
290
     0
176
     1
290
     0
176
     1
290
     0
176
     1
290
     0
176
     1
290
     0
176
     1
290
     0
176
     1
 90
       50
176
     1
 40
0.0
176
     1
 40
1.0
176
     1
 90
        0
176
     1
 62
    18
420
        0
176
     1
 90
       50
176
     1
 90
        3
176
     1
 62
     5
420
      255
176
     1
290
     0
176
     1
 90
       50
176
     1
 90
       50
176
     1
 90
       50
176
     1
290
     0
176
     1
 90
       50
176
     1
 62
   256
176
     0
 40
1.0
176
     0
 90
        2
176
     1
  1
strokes_ogs.tif
176
     1
290
     0
176
     1
 40
1.0
176
     1
 40
1.0
176
     1
  0
VISUALSTYLE
  5
3F
102
{ACAD_REACTORS
330
2A
102
}
330
2A
100
AcDbVisualStyle
  2
Sketchy
 70
    24
177
     3
291
     0
 70
    58
 90
        1
176
     1
 90
        2
176
     1
 90
        2
176
     1
 90
        0
176
     1
 40
0.6
176
     1
 40
30.0
176
     1
 62
     7
420
 16777215
176
     1
 90
        2
176
     1
 90
        2
176
     1
 62
     7
176
     1
 62
     7
176
     1
 90
        1
176
     1
 90
        1
176
     1
 40
40.0
176
     1
 90
       11
176
     1
 62
     7
176
     1
 40
1.0
176
     1
 90
        1
176
     1
 90
        6
176
     1
 90
        2
176
     1
 62
     7
176
     1
 90
        6
176
     1
 90
        0
176
     1
 90
        0
176
     1
290
     0
176
     1
 90
        1
176
     1
 40
0.0
176
     1
 90
        0
176
     1
290
     0
176
     1
290
     1
176
     1
290
     1
176
     1
290
     0
176
     1
290
     0
176
     1
290
     0
176
     1
290
     0
176
     1
290
     0
176
     1
290
     0
176
     1
 90
       50
176
     1
 40
0.0
176
     1
 40
1.0
176
     1
 90
        0
176
     1
 62
    18
420
        0
176
     1
 90
       50
176
     1
 90
        3
176
     1
 62
     5
420
      255
176
     1
290
     0
176
     1
 90
       50
176
     1
 90
       50
176
     1
 90
       50
176
     1
290
     0
176
     1
 90
       50
176
     1
 62
   256
176
     0
 40
1.0
176
     0
 90
        2
176
     1
  1
strokes_ogs.tif
176
     1
290
     0
176
     1
 40
1.0
176
     1
 40
1.0
176
     1
  0
VISUALSTYLE
  5
37
102
{ACAD_REACTORS
330
2A
102
}
330
2A
100
AcDbVisualStyle
  2
Thicken
 70
    13
177
     3
291
     1
 70
    58
 90
        2
176
     1
 90
        2
176
     1
 90
        0
176
     1
 90
        0
176
     1
 40
0.6
176
     1
 40
30.0
176
     1
 62
     7
420
 16777215
176
     1
 90
        1
176
     1
 90
        4
176
     1
 62
     7
176
     1
 62
   257
176
     1
 90
        1
176
     1
 90
        1
176
     1
 40
1.0
176
     1
 90
       12
176
     1
 62
     7
176
     1
 40
1.0
176
     1
 90
        1
176
     1
 90
        6
176
     1
 90
        2
176
     1
 62
     7
176
     1
 90
        5
176
     1
 90
        0
176
     1
 90
        0
176
     1
290
     0
176
     1
 90
        1
176
     1
 40
0.0
176
     1
 90
        0
176
     1
290
     0
176
     1
290
     1
176
     1
290
     1
176
     1
290
     0
176
     1
290
     0
176
     1
290
     0
176
     1
290
     0
176
     1
290
     0
176
     1
290
     0
176
     1
 90
       50
176
     1
 40
0.0
176
     1
 40
1.0
176
     1
 90
        0
176
     1
 62
    18
420
        0
176
     1
 90
       50
176
     1
 90
        3
176
     1
 62
     5
420
      255
176
     1
290
     0
176
     1
 90
       50
176
     1
 90
       50
176
     1
 90
       50
176
     1
290
     0
176
     1
 90
       50
176
     1
 62
   256
176
     0
 40
1.0
176
     0
 90
        2
176
     1
  1
strokes_ogs.tif
176
     1
290
     0
176
     1
 40
1.0
176
     1
 40
1.0
176
     1
  0
VISUALSTYLE
  5
30
102
{ACAD_REACTORS
330
2A
102
}
330
2A
100
AcDbVisualStyle
  2
Wireframe
 70
     5
177
     3
291
     0
 70
    58
 90
        0
176
     1
 90
        2
176
     1
 90
        0
176
     1
 90
        0
176
     1
 40
0.6
176
     1
 40
30.0
176
     1
 62
     7
420
 16777215
176
     1
 90
        1
176
     1
 90
        4
176
     1
 62
     7
176
     1
 62
   257
176
     1
 90
        1
176
     1
 90
        1
176
     1
 40
1.0
176
     1
 90
        0
176
     1
 62
   257
176
     1
 40
1.0
176
     1
 90
        1
176
     1
 90
        6
176
     1
 90
        2
176
     1
 62
     7
176
     1
 90
        3
176
     1
 90
        0
176
     1
 90
        0
176
     1
290
     0
176
     1
 90
        1
176
     1
 40
0.0
176
     1
 90
        0
176
     1
290
     0
176
     1
290
     1
176
     1
290
     1
176
     1
290
     0
176
     1
290
     0
176
     1
290
     0
176
     1
290
     0
176
     1
290
     0
176
     1
290
     0
176
     1
 90
       50
176
     1
 40
0.0
176
     1
 40
1.0
176
     1
 90
        0
176
     1
 62
    18
420
        0
176
     1
 90
       50
176
     1
 90
        3
176
     1
 62
     5
420
      255
176
     1
290
     0
176
     1
 90
       50
176
     1
 90
       50
176
     1
 90
       50
176
     1
290
     0
176
     1
 90
       50
176
     1
 62
   256
176
     0
 40
1.0
176
     0
 90
        2
176
     1
  1
strokes_ogs.tif
176
     1
290
     0
176
     1
 40
1.0
176
     1
 40
1.0
176
     1
  0
VISUALSTYLE
  5
40
102
{ACAD_REACTORS
330
2A
102
}
330
2A
100
AcDbVisualStyle
  2
X-Ray
 70
    25
177
     3
291
     0
 70
    58
 90
        2
176
     1
 90
        2
176
     1
 90
        1
176
     1
 90
        1
176
     1
 40
0.5
176
     1
 40
30.0
176
     1
 62
     7
420
 16777215
176
     1
 90
        1
176
     1
 90
        0
176
     1
 62
     7
176
     1
 62
   257
176
     1
 90
        1
176
     1
 90
        1
176
     1
 40
1.0
176
     1
 90
        8
176
     1
 62
     7
176
     1
 40
1.0
176
     1
 90
        1
176
     1
 90
        6
176
     1
 90
        2
176
     1
 62
     7
176
     1
 90
        3
176
     1
 90
        0
176
     1
 90
        0
176
     1
290
     0
176
     1
 90
       13
176
     1
 40
0.0
176
     1
 90
        0
176
     1
290
     0
176
     1
290
     1
176
     1
290
     1
176
     1
290
     0
176
     1
290
     0
176
     1
290
     0
176
     1
290
     0
176
     1
290
     0
176
     1
290
     0
176
     1
 90
       50
176
     1
 40
0.0
176
     1
 40
1.0
176
     1
 90
        0
176
     1
 62
    18
420
        0
176
     1
 90
       50
176
     1
 90
        3
176
     1
 62
     5
420
      255
176
     1
290
     0
176
     1
 90
       50
176
     1
 90
       50
176
     1
 90
       50
176
     1
290
     0
176
     1
 90
       50
176
     1
 62
   256
176
     0
 40
1.0
176
     0
 90
        2
176
     1
  1
strokes_ogs.tif
176
     1
290
     0
176
     1
 40
1.0
176
     1
 40
1.0
176
     1
  0
DICTIONARYVAR
  5
A1
102
{ACAD_REACTORS
330
A0
102
}
330
A0
100
DictionaryVariables
280
     0
  1
1:1
  0
DICTIONARYVAR
  5
A6
102
{ACAD_REACTORS
330
A0
102
}
330
A0
100
DictionaryVariables
280
     0
  1
Standard
  0
DICTIONARYVAR
  5
A5
102
{ACAD_REACTORS
330
A0
102
}
330
A0
100
DictionaryVariables
280
     0
  1
Standard
  0
DICTIONARY
  5
A2
330
5A
100
AcDbDictionary
280
     1
281
     1
  3
ACAD_ROUNDTRIP_2008_TABLESTYLE_CELLSTYLEMAP
360
A3
  0
CELLSTYLEMAP
  5
A3
102
{ACAD_REACTORS
330
A2
102
}
330
A2
100
AcDbCellStyleMap
 90
        3
300
CELLSTYLE
  1
TABLEFORMAT_BEGIN
 90
        5
170
     1
 91
        0
 92
    32768
 62
   257
 93
        1
300
CONTENTFORMAT
  1
CONTENTFORMAT_BEGIN
 90
        0
 91
        0
 92
        4
 93
        0
300

 40
0.0
140
1.0
 94
        5
 62
     0
340
11
144
0.25
309
CONTENTFORMAT_END
171
     1
301
MARGIN
  1
CELLMARGIN_BEGIN
 40
0.06
 40
0.06
 40
0.06
 40
0.06
 40
0.06
 40
0.06
309
CELLMARGIN_END
 94
        6
 95
        1
302
GRIDFORMAT
  1
GRIDFORMAT_BEGIN
 90
        0
 91
        1
 62
     0
 92
       -2
340
14
 93
        0
 40
0.045
309
GRIDFORMAT_END
 95
        2
302
GRIDFORMAT
  1
GRIDFORMAT_BEGIN
 90
        0
 91
        1
 62
     0
 92
       -2
340
14
 93
        0
 40
0.045
309
GRIDFORMAT_END
 95
        4
302
GRIDFORMAT
  1
GRIDFORMAT_BEGIN
 90
        0
 91
        1
 62
     0
 92
       -2
340
14
 93
        0
 40
0.045
309
GRIDFORMAT_END
 95
        8
302
GRIDFORMAT
  1
GRIDFORMAT_BEGIN
 90
        0
 91
        1
 62
     0
 92
       -2
340
14
 93
        0
 40
0.045
309
GRIDFORMAT_END
 95
       16
302
GRIDFORMAT
  1
GRIDFORMAT_BEGIN
 90
        0
 91
        1
 62
     0
 92
       -2
340
14
 93
        0
 40
0.045
309
GRIDFORMAT_END
 95
       32
302
GRIDFORMAT
  1
GRIDFORMAT_BEGIN
 90
        0
 91
        1
 62
     0
 92
       -2
340
14
 93
        0
 40
0.045
309
GRIDFORMAT_END
309
TABLEFORMAT_END
  1
CELLSTYLE_BEGIN
 90
        1
 91
        1
300
_TITLE
309
CELLSTYLE_END
300
CELLSTYLE
  1
TABLEFORMAT_BEGIN
 90
        5
170
     1
 91
        0
 92
        0
 62
   257
 93
        1
300
CONTENTFORMAT
  1
CONTENTFORMAT_BEGIN
 90
        0
 91
        0
 92
        4
 93
        0
300

 40
0.0
140
1.0
 94
        5
 62
     0
340
11
144
0.18
309
CONTENTFORMAT_END
171
     1
301
MARGIN
  1
CELLMARGIN_BEGIN
 40
0.06
 40
0.06
 40
0.06
 40
0.06
 40
0.06
 40
0.06
309
CELLMARGIN_END
 94
        6
 95
        1
302
GRIDFORMAT
  1
GRIDFORMAT_BEGIN
 90
        0
 91
        1
 62
     0
 92
       -2
340
14
 93
        0
 40
0.045
309
GRIDFORMAT_END
 95
        2
302
GRIDFORMAT
  1
GRIDFORMAT_BEGIN
 90
        0
 91
        1
 62
     0
 92
       -2
340
14
 93
        0
 40
0.045
309
GRIDFORMAT_END
 95
        4
302
GRIDFORMAT
  1
GRIDFORMAT_BEGIN
 90
        0
 91
        1
 62
     0
 92
       -2
340
14
 93
        0
 40
0.045
309
GRIDFORMAT_END
 95
        8
302
GRIDFORMAT
  1
GRIDFORMAT_BEGIN
 90
        0
 91
        1
 62
     0
 92
       -2
340
14
 93
        0
 40
0.045
309
GRIDFORMAT_END
 95
       16
302
GRIDFORMAT
  1
GRIDFORMAT_BEGIN
 90
        0
 91
        1
 62
     0
 92
       -2
340
14
 93
        0
 40
0.045
309
GRIDFORMAT_END
 95
       32
302
GRIDFORMAT
  1
GRIDFORMAT_BEGIN
 90
        0
 91
        1
 62
     0
 92
       -2
340
14
 93
        0
 40
0.045
309
GRIDFORMAT_END
309
TABLEFORMAT_END
  1
CELLSTYLE_BEGIN
 90
        2
 91
        1
300
_HEADER
309
CELLSTYLE_END
300
CELLSTYLE
  1
TABLEFORMAT_BEGIN
 90
        5
170
     1
 91
        0
 92
        0
 62
   257
 93
        1
300
CONTENTFORMAT
  1
CONTENTFORMAT_BEGIN
 90
        0
 91
        0
 92
        4
 93
        0
300

 40
0.0
140
1.0
 94
        2
 62
     0
340
11
144
0.18
309
CONTENTFORMAT_END
171
     1
301
MARGIN
  1
CELLMARGIN_BEGIN
 40
0.06
 40
0.06
 40
0.06
 40
0.06
 40
0.06
 40
0.06
309
CELLMARGIN_END
 94
        6
 95
        1
302
GRIDFORMAT
  1
GRIDFORMAT_BEGIN
 90
        0
 91
        1
 62
     0
 92
       -2
340
14
 93
        0
 40
0.045
309
GRIDFORMAT_END
 95
        2
302
GRIDFORMAT
  1
GRIDFORMAT_BEGIN
 90
        0
 91
        1
 62
     0
 92
       -2
340
14
 93
        0
 40
0.045
309
GRIDFORMAT_END
 95
        4
302
GRIDFORMAT
  1
GRIDFORMAT_BEGIN
 90
        0
 91
        1
 62
     0
 92
       -2
340
14
 93
        0
 40
0.045
309
GRIDFORMAT_END
 95
        8
302
GRIDFORMAT
  1
GRIDFORMAT_BEGIN
 90
        0
 91
        1
 62
     0
 92
       -2
340
14
 93
        0
 40
0.045
309
GRIDFORMAT_END
 95
       16
302
GRIDFORMAT
  1
GRIDFORMAT_BEGIN
 90
        0
 91
        1
 62
     0
 92
       -2
340
14
 93
        0
 40
0.045
309
GRIDFORMAT_END
 95
       32
302
GRIDFORMAT
  1
GRIDFORMAT_BEGIN
 90
        0
 91
        1
 62
     0
 92
       -2
340
14
 93
        0
 40
0.045
309
GRIDFORMAT_END
309
TABLEFORMAT_END
  1
CELLSTYLE_BEGIN
 90
        3
 91
        2
300
_DATA
309
CELLSTYLE_END
  0
ENDSEC
  0
EOF
