  0
SECTION
  2
HEADER
  9
$ACADVER
  1
AC1032
  9
$ACADMAINTVER
 90
       55
  9
$DWGCODEPAGE
  3
UNDEFINED
  9
$LASTSAVEDBY
  1
Administrator
  9
$REQUIREDVERSIONS
160
                 0
  9
$INSBASE
 10
0.0
 20
0.0
 30
0.0
  9
$EXTMIN
 10
-17.1097
 20
-15.4927
 30
0.0
  9
$EXTMAX
 10
16.5398
 20
14.7798
 30
0.0
  9
$LIMMIN
 10
0.0
 20
0.0
  9
$LIMMAX
 10
12.0
 20
9.0
  9
$ORTHOMODE
 70
     0
  9
$REGENMODE
 70
     1
  9
$FILLMODE
 70
     1
  9
$QTEXTMODE
 70
     0
  9
$MIRRTEXT
 70
     1
  9
$LTSCALE
 40
1.0
  9
$ATTMODE
 70
     1
  9
$TEXTSIZE
 40
0.2
  9
$TRACEWID
 40
0.05
  9
$TEXTSTYLE
  7
Standard
  9
$CLAYER
  8
0
  9
$CELTYPE
  6
ByLayer
  9
$CECOLOR
 62
   256
  9
$CELTSCALE
 40
1.0
  9
$DISPSILH
 70
     0
  9
$DIMSCALE
 40
1.0
  9
$DIMASZ
 40
0.18
  9
$DIMEXO
 40
0.0625
  9
$DIMDLI
 40
0.38
  9
$DIMRND
 40
0.0
  9
$DIMDLE
 40
0.0
  9
$DIMEXE
 40
0.18
  9
$DIMTP
 40
0.0
  9
$DIMTM
 40
0.0
  9
$DIMTXT
 40
0.18
  9
$DIMCEN
 40
0.09
  9
$DIMTSZ
 40
0.0
  9
$DIMTOL
 70
     0
  9
$DIMLIM
 70
     0
  9
$DIMTIH
 70
     1
  9
$DIMTOH
 70
     1
  9
$DIMSE1
 70
     0
  9
$DIMSE2
 70
     0
  9
$DIMTAD
 70
     0
  9
$DIMZIN
 70
     0
  9
$DIMBLK
  1

  9
$DIMASO
 70
     1
  9
$DIMSHO
 70
     1
  9
$DIMPOST
  1

  9
$DIMAPOST
  1

  9
$DIMALT
 70
     0
  9
$DIMALTD
 70
     2
  9
$DIMALTF
 40
25.4
  9
$DIMLFAC
 40
1.0
  9
$DIMTOFL
 70
     0
  9
$DIMTVP
 40
0.0
  9
$DIMTIX
 70
     0
  9
$DIMSOXD
 70
     0
  9
$DIMSAH
 70
     0
  9
$DIMBLK1
  1

  9
$DIMBLK2
  1

  9
$DIMSTYLE
  2
Standard
  9
$DIMCLRD
 70
     0
  9
$DIMCLRE
 70
     0
  9
$DIMCLRT
 70
     0
  9
$DIMTFAC
 40
1.0
  9
$DIMGAP
 40
0.09
  9
$DIMJUST
 70
     0
  9
$DIMSD1
 70
     0
  9
$DIMSD2
 70
     0
  9
$DIMTOLJ
 70
     1
  9
$DIMTZIN
 70
     0
  9
$DIMALTZ
 70
     0
  9
$DIMALTTZ
 70
     0
  9
$DIMUPT
 70
     0
  9
$DIMDEC
 70
     4
  9
$DIMTDEC
 70
     4
  9
$DIMALTU
 70
     2
  9
$DIMALTTD
 70
     2
  9
$DIMTXSTY
  7
Standard
  9
$DIMAUNIT
 70
     0
  9
$DIMADEC
 70
     0
  9
$DIMALTRND
 40
0.0
  9
$DIMAZIN
 70
     0
  9
$DIMDSEP
 70
    46
  9
$DIMATFIT
 70
     3
  9
$DIMFRAC
 70
     0
  9
$DIMLDRBLK
  1

  9
$DIMLUNIT
 70
     2
  9
$DIMLWD
 70
    -2
  9
$DIMLWE
 70
    -2
  9
$DIMTMOVE
 70
     0
  9
$DIMFXL
 40
1.0
  9
$DIMFXLON
 70
     0
  9
$DIMJOGANG
 40
0.7853981633974483
  9
$DIMTFILL
 70
     0
  9
$DIMTFILLCLR
 70
     0
  9
$DIMARCSYM
 70
     0
  9
$DIMLTYPE
  6

  9
$DIMLTEX1
  6

  9
$DIMLTEX2
  6

  9
$DIMTXTDIRECTION
 70
     0
  9
$LUNITS
 70
     2
  9
$LUPREC
 70
     4
  9
$SKETCHINC
 40
0.1
  9
$FILLETRAD
 40
0.0
  9
$AUNITS
 70
     0
  9
$AUPREC
 70
     0
  9
$MENU
  1
.
  9
$ELEVATION
 40
0.0
  9
$PELEVATION
 40
0.0
  9
$THICKNESS
 40
0.0
  9
$LIMCHECK
 70
     0
  9
$CHAMFERA
 40
0.0
  9
$CHAMFERB
 40
0.0
  9
$CHAMFERC
 40
0.0
  9
$CHAMFERD
 40
0.0
  9
$SKPOLY
 70
     0
  9
$TDCREATE
 40
2460353.684459988
  9
$TDUCREATE
 40
2460353.538626655
  9
$TDUPDATE
 40
2460353.684460255
  9
$TDUUPDATE
 40
2460353.538626921
  9
$TDINDWG
 40
0.0000000116
  9
$TDUSRTIMER
 40
0.0000000116
  9
$USRTIMER
 70
     1
  9
$ANGBASE
 50
0.0
  9
$ANGDIR
 70
     0
  9
$PDMODE
 70
     0
  9
$PDSIZE
 40
0.0
  9
$PLINEWID
 40
0.0
  9
$SPLFRAME
 70
     0
  9
$SPLINETYPE
 70
     6
  9
$SPLINESEGS
 70
     8
  9
$HANDSEED
  5
AB
  9
$SURFTAB1
 70
     6
  9
$SURFTAB2
 70
     6
  9
$SURFTYPE
 70
     6
  9
$SURFU
 70
     6
  9
$SURFV
 70
     6
  9
$UCSBASE
  2

  9
$UCSNAME
  2

  9
$UCSORG
 10
0.0
 20
0.0
 30
0.0
  9
$UCSXDIR
 10
1.0
 20
0.0
 30
0.0
  9
$UCSYDIR
 10
0.0
 20
1.0
 30
0.0
  9
$UCSORTHOREF
  2

  9
$UCSORTHOVIEW
 70
     0
  9
$UCSORGTOP
 10
0.0
 20
0.0
 30
0.0
  9
$UCSORGBOTTOM
 10
0.0
 20
0.0
 30
0.0
  9
$UCSORGLEFT
 10
0.0
 20
0.0
 30
0.0
  9
$UCSORGRIGHT
 10
0.0
 20
0.0
 30
0.0
  9
$UCSORGFRONT
 10
0.0
 20
0.0
 30
0.0
  9
$UCSORGBACK
 10
0.0
 20
0.0
 30
0.0
  9
$PUCSBASE
  2

  9
$PUCSNAME
  2

  9
$PUCSORG
 10
0.0
 20
0.0
 30
0.0
  9
$PUCSXDIR
 10
1.0
 20
0.0
 30
0.0
  9
$PUCSYDIR
 10
0.0
 20
1.0
 30
0.0
  9
$PUCSORTHOREF
  2

  9
$PUCSORTHOVIEW
 70
     0
  9
$PUCSORGTOP
 10
0.0
 20
0.0
 30
0.0
  9
$PUCSORGBOTTOM
 10
0.0
 20
0.0
 30
0.0
  9
$PUCSORGLEFT
 10
0.0
 20
0.0
 30
0.0
  9
$PUCSORGRIGHT
 10
0.0
 20
0.0
 30
0.0
  9
$PUCSORGFRONT
 10
0.0
 20
0.0
 30
0.0
  9
$PUCSORGBACK
 10
0.0
 20
0.0
 30
0.0
  9
$USERI1
 70
     0
  9
$USERI2
 70
     0
  9
$USERI3
 70
     0
  9
$USERI4
 70
     0
  9
$USERI5
 70
     0
  9
$USERR1
 40
0.0
  9
$USERR2
 40
0.0
  9
$USERR3
 40
0.0
  9
$USERR4
 40
0.0
  9
$USERR5
 40
0.0
  9
$WORLDVIEW
 70
     1
  9
$SHADEDGE
 70
     3
  9
$SHADEDIF
 70
    70
  9
$TILEMODE
 70
     1
  9
$MAXACTVP
 70
    64
  9
$PINSBASE
 10
0.0
 20
0.0
 30
0.0
  9
$PLIMCHECK
 70
     0
  9
$PEXTMIN
 10
1.000000000000000E+20
 20
1.000000000000000E+20
 30
1.000000000000000E+20
  9
$PEXTMAX
 10
-1.000000000000000E+20
 20
-1.000000000000000E+20
 30
-1.000000000000000E+20
  9
$PLIMMIN
 10
0.0
 20
0.0
  9
$PLIMMAX
 10
12.0
 20
9.0
  9
$UNITMODE
 70
     0
  9
$VISRETAIN
 70
     1
  9
$PLINEGEN
 70
     0
  9
$PSLTSCALE
 70
     1
  9
$TREEDEPTH
 70
  3020
  9
$CMLSTYLE
  2
Standard
  9
$CMLJUST
 70
     0
  9
$CMLSCALE
 40
1.0
  9
$PROXYGRAPHICS
 70
     1
  9
$MEASUREMENT
 70
     0
  9
$CELWEIGHT
370
    -1
  9
$ENDCAPS
280
     0
  9
$JOINSTYLE
280
     0
  9
$LWDISPLAY
290
     0
  9
$INSUNITS
 70
     4
  9
$HYPERLINKBASE
  1

  9
$STYLESHEET
  1

  9
$XEDIT
290
     1
  9
$CEPSNTYPE
380
     0
  9
$PSTYLEMODE
290
     1
  9
$FINGERPRINTGUID
  2
{c8505d4a-e077-47ca-9462-5bdc7774b57b}
  9
$VERSIONGUID
  2
{FAEB1C32-E019-11D5-929B-00C0DF256EC4}
  9
$EXTNAMES
290
     1
  9
$PSVPSCALE
 40
0.0
  9
$OLESTARTUP
290
     0
  9
$SORTENTS
280
   127
  9
$INDEXCTL
280
     0
  9
$HIDETEXT
280
     1
  9
$XCLIPFRAME
280
     2
  9
$HALOGAP
280
     0
  9
$OBSCOLOR
 70
   257
  9
$OBSLTYPE
280
     0
  9
$INTERSECTIONDISPLAY
280
     0
  9
$INTERSECTIONCOLOR
 70
   257
  9
$DIMASSOC
280
     2
  9
$PROJECTNAME
  1

  9
$CAMERADISPLAY
290
     0
  9
$LENSLENGTH
 40
50.0
  9
$CAMERAHEIGHT
 40
0.0
  9
$STEPSPERSEC
 40
2.0
  9
$STEPSIZE
 40
6.0
  9
$3DDWFPREC
 40
2.0
  9
$PSOLWIDTH
 40
0.25
  9
$PSOLHEIGHT
 40
4.0
  9
$LOFTANG1
 40
1.570796326794897
  9
$LOFTANG2
 40
1.570796326794897
  9
$LOFTMAG1
 40
0.0
  9
$LOFTMAG2
 40
0.0
  9
$LOFTPARAM
 70
     7
  9
$LOFTNORMALS
280
     1
  9
$LATITUDE
 40
37.795
  9
$LONGITUDE
 40
-122.394
  9
$NORTHDIRECTION
 40
0.0
  9
$TIMEZONE
 70
 -8000
  9
$LIGHTGLYPHDISPLAY
280
     1
  9
$TILEMODELIGHTSYNCH
280
     1
  9
$CMATERIAL
347
44
  9
$SOLIDHIST
280
     0
  9
$SHOWHIST
280
     1
  9
$DWFFRAME
280
     2
  9
$DGNFRAME
280
     2
  9
$REALWORLDSCALE
290
     1
  9
$INTERFERECOLOR
 62
   256
  9
$CSHADOW
280
     0
  9
$SHADOWPLANELOCATION
 40
0.0
  0
ENDSEC
  0
SECTION
  2
CLASSES
  0
CLASS
  1
ACDBDICTIONARYWDFLT
  2
AcDbDictionaryWithDefault
  3
ObjectDBX Classes
 90
        0
 91
        3
280
     0
281
     0
  0
CLASS
  1
VISUALSTYLE
  2
AcDbVisualStyle
  3
ObjectDBX Classes
 90
     4095
 91
        3
280
     0
281
     0
  0
CLASS
  1
MATERIAL
  2
AcDbMaterial
  3
ObjectDBX Classes
 90
     1153
 91
        3
280
     0
281
     0
  0
CLASS
  1
SCALE
  2
AcDbScale
  3
ObjectDBX Classes
 90
     1153
 91
        3
280
     0
281
     0
  0
CLASS
  1
TABLESTYLE
  2
AcDbTableStyle
  3
ObjectDBX Classes
 90
     4095
 91
        3
280
     0
281
     0
  0
CLASS
  1
MLEADERSTYLE
  2
AcDbMLeaderStyle
  3
ACDB_MLEADERSTYLE_CLASS
 90
     4095
 91
        3
280
     0
281
     0
  0
CLASS
  1
SUN
  2
AcDbSun
  3
SCENEOE
 90
     1153
 91
        3
280
     0
281
     0
  0
CLASS
  1
DICTIONARYVAR
  2
AcDbDictionaryVar
  3
ObjectDBX Classes
 90
        0
 91
        3
280
     0
281
     0
  0
CLASS
  1
CELLSTYLEMAP
  2
AcDbCellStyleMap
  3
ObjectDBX Classes
 90
     1152
 91
        3
280
     0
281
     0
  0
ENDSEC
  0
SECTION
  2
TABLES
  0
TABLE
  2
VPORT
  5
8
330
0
100
AcDbSymbolTable
 70
     1
  0
VPORT
  5
29
330
8
100
AcDbSymbolTableRecord
100
AcDbViewportTableRecord
  2
*Active
 70
     0
 10
0.0
 20
0.0
 11
1.0
 21
1.0
 12
10.42990654205607
 22
4.5
 13
0.0
 23
0.0
 14
0.5
 24
0.5
 15
0.5
 25
0.5
 16
0.0
 26
0.0
 36
1.0
 17
0.0
 27
0.0
 37
0.0
 40
9.0
 41
1.972972972850329
 42
50.0
 43
0.0
 44
0.0
 50
0.0
 51
0.0
 71
     0
 72
   100
 73
     1
 74
     3
 75
     0
 76
     0
 77
     0
 78
     0
281
     0
 65
     1
110
0.0
120
0.0
130
0.0
111
1.0
121
0.0
131
0.0
112
0.0
122
1.0
132
0.0
 79
     0
146
0.0
348
2F
 60
     3
 61
     5
292
     1
282
     1
141
0.0
142
0.0
 63
   250
361
5D
  0
ENDTAB
  0
TABLE
  2
LTYPE
  5
5
330
0
100
AcDbSymbolTable
 70
     1
  0
LTYPE
  5
14
330
5
100
AcDbSymbolTableRecord
100
AcDbLinetypeTableRecord
  2
ByBlock
 70
     0
  3

 72
    65
 73
     0
 40
0.0
  0
LTYPE
  5
15
330
5
100
AcDbSymbolTableRecord
100
AcDbLinetypeTableRecord
  2
ByLayer
 70
     0
  3

 72
    65
 73
     0
 40
0.0
  0
LTYPE
  5
16
330
5
100
AcDbSymbolTableRecord
100
AcDbLinetypeTableRecord
  2
Continuous
 70
     0
  3
Solid line
 72
    65
 73
     0
 40
0.0
  0
ENDTAB
  0
TABLE
  2
LAYER
  5
2
330
0
100
AcDbSymbolTable
 70
     2
  0
LAYER
  5
10
330
2
100
AcDbSymbolTableRecord
100
AcDbLayerTableRecord
  2
0
 70
     0
 62
     7
  6
Continuous
370
    -3
390
F
347
46
348
0
  0
LAYER
  5
5F
330
2
100
AcDbSymbolTableRecord
100
AcDbLayerTableRecord
  2
Layer 1
 70
     0
 62
     7
  6
Continuous
370
    -3
390
F
347
46
348
0
  0
ENDTAB
  0
TABLE
  2
STYLE
  5
3
330
0
100
AcDbSymbolTable
 70
     1
  0
STYLE
  5
11
330
3
100
AcDbSymbolTableRecord
100
AcDbTextStyleTableRecord
  2
Standard
 70
     0
 40
0.0
 41
1.0
 50
0.0
 71
     0
 42
0.2
  3
txt
  4

  0
ENDTAB
  0
TABLE
  2
VIEW
  5
6
330
0
100
AcDbSymbolTable
 70
     0
  0
ENDTAB
  0
TABLE
  2
UCS
  5
7
330
0
100
AcDbSymbolTable
 70
     0
  0
ENDTAB
  0
TABLE
  2
APPID
  5
9
330
0
100
AcDbSymbolTable
 70
     2
  0
APPID
  5
12
330
9
100
AcDbSymbolTableRecord
100
AcDbRegAppTableRecord
  2
ACAD
 70
     0
  0
APPID
  5
5E
330
9
100
AcDbSymbolTableRecord
100
AcDbRegAppTableRecord
  2
ODA
 70
     0
  0
ENDTAB
  0
TABLE
  2
DIMSTYLE
  5
A
330
0
100
AcDbSymbolTable
 70
     1
100
AcDbDimStyleTable
  0
DIMSTYLE
105
27
330
A
100
AcDbSymbolTableRecord
100
AcDbDimStyleTableRecord
  2
Standard
 70
     0
178
     0
340
11
  0
ENDTAB
  0
TABLE
  2
BLOCK_RECORD
  5
1
330
0
100
AcDbSymbolTable
 70
     1
  0
BLOCK_RECORD
  5
1F
330
1
100
AcDbSymbolTableRecord
100
AcDbBlockTableRecord
  2
*Model_Space
340
22
 70
     0
280
     1
281
     0
  0
BLOCK_RECORD
  5
1B
330
1
100
AcDbSymbolTableRecord
100
AcDbBlockTableRecord
  2
*Paper_Space
340
1E
 70
     0
280
     1
281
     0
  0
BLOCK_RECORD
  5
23
330
1
100
AcDbSymbolTableRecord
100
AcDbBlockTableRecord
  2
*Paper_Space0
340
26
 70
     0
280
     1
281
     0
  0
ENDTAB
  0
ENDSEC
  0
SECTION
  2
BLOCKS
  0
BLOCK
  5
20
330
1F
100
AcDbEntity
  8
0
100
AcDbBlockBegin
  2
*Model_Space
 70
     0
 10
0.0
 20
0.0
 30
0.0
  3
*Model_Space
  1

  0
ENDBLK
  5
21
330
1F
100
AcDbEntity
  8
0
100
AcDbBlockEnd
  0
BLOCK
  5
1C
330
1B
100
AcDbEntity
 67
     1
  8
0
100
AcDbBlockBegin
  2
*Paper_Space
 70
     0
 10
0.0
 20
0.0
 30
0.0
  3
*Paper_Space
  1

  0
ENDBLK
  5
1D
330
1B
100
AcDbEntity
 67
     1
  8
0
100
AcDbBlockEnd
  0
BLOCK
  5
24
330
23
100
AcDbEntity
  8
0
100
AcDbBlockBegin
  2
*Paper_Space0
 70
     0
 10
0.0
 20
0.0
 30
0.0
  3
*Paper_Space0
  1

  0
ENDBLK
  5
25
330
23
100
AcDbEntity
  8
0
100
AcDbBlockEnd
  0
ENDSEC
  0
SECTION
  2
ENTITIES
  0
SPLINE
  5
60
330
1F
100
AcDbEntity
  8
Layer 1
 62
   250
100
AcDbSpline
210
0.0
220
0.0
230
1.0
 70
    11
 71
     3
 72
    26
 73
    22
 74
     0
 42
0.0000000001
 43
0.0000000001
 40
0.0
 40
0.0
 40
0.0
 40
0.0
 40
0.1428571428571428
 40
0.1428571428571428
 40
0.1428571428571428
 40
0.2857142857142857
 40
0.2857142857142857
 40
0.2857142857142857
 40
0.4285714285714285
 40
0.4285714285714285
 40
0.4285714285714285
 40
0.5714285714285714
 40
0.5714285714285714
 40
0.5714285714285714
 40
0.7142857142857142
 40
0.7142857142857142
 40
0.7142857142857142
 40
0.8571428571428571
 40
0.8571428571428571
 40
0.8571428571428571
 40
1.0
 40
1.0
 40
1.0
 40
1.0
 10
-12.9946
 20
-3.2279
 30
0.0
 10
-12.9946
 20
-3.2279
 30
0.0
 10
-11.08
 20
3.4419
 30
0.0
 10
-3.1186
 20
5.708
 30
0.0
 10
-0.2757
 20
6.5172
 30
0.0
 10
2.7535
 20
6.399
 30
0.0
 10
5.4645
 20
5.2215
 30
0.0
 10
8.1954
 20
4.0357
 30
0.0
 10
11.4279
 20
1.6344
 30
0.0
 10
13.241
 20
-3.2279
 30
0.0
 10
13.241
 20
-3.2279
 30
0.0
 10
15.6627
 20
-3.2279
 30
0.0
 10
15.6627
 20
-3.2279
 30
0.0
 10
15.6627
 20
-3.2279
 30
0.0
 10
12.1917
 20
7.9929
 30
0.0
 10
0.6882
 20
8.3965
 30
0.0
 10
0.6882
 20
8.3965
 30
0.0
 10
-10.4921
 20
9.446
 30
0.0
 10
-15.7391
 20
-3.2279
 30
0.0
 10
-15.7391
 20
-3.2279
 30
0.0
 10
-12.9946
 20
-3.2279
 30
0.0
 10
-12.9946
 20
-3.2279
 30
0.0
  0
SPLINE
  5
61
330
1F
100
AcDbEntity
  8
Layer 1
 62
   250
100
AcDbSpline
210
0.0
220
0.0
230
1.0
 70
    11
 71
     3
 72
    32
 73
    28
 74
     0
 42
0.0000000001
 43
0.0000000001
 40
0.0
 40
0.0
 40
0.0
 40
0.0
 40
0.1111111111111111
 40
0.1111111111111111
 40
0.1111111111111111
 40
0.2222222222222222
 40
0.2222222222222222
 40
0.2222222222222222
 40
0.3333333333333333
 40
0.3333333333333333
 40
0.3333333333333333
 40
0.4444444444444444
 40
0.4444444444444444
 40
0.4444444444444444
 40
0.5555555555555556
 40
0.5555555555555556
 40
0.5555555555555556
 40
0.6666666666666666
 40
0.6666666666666666
 40
0.6666666666666666
 40
0.7777777777777777
 40
0.7777777777777777
 40
0.7777777777777777
 40
0.8888888888888888
 40
0.8888888888888888
 40
0.8888888888888888
 40
1.0
 40
1.0
 40
1.0
 40
1.0
 10
-13.7531
 20
12.1395
 30
0.0
 10
-13.7531
 20
12.1395
 30
0.0
 10
-8.9671
 20
14.7798
 30
0.0
 10
-8.9671
 20
14.7798
 30
0.0
 10
-7.289
 20
14.6588
 30
0.0
 10
-5.611
 20
14.536
 30
0.0
 10
-3.933
 20
14.4138
 30
0.0
 10
-3.933
 20
14.4138
 30
0.0
 10
-6.2154
 20
5.1994
 30
0.0
 10
-6.2154
 20
5.1994
 30
0.0
 10
-6.2154
 20
5.1994
 30
0.0
 10
-6.2079
 20
4.5845
 30
0.0
 10
-6.2079
 20
4.5845
 30
0.0
 10
-6.2079
 20
4.5845
 30
0.0
 10
-6.7645
 20
4.8721
 30
0.0
 10
-6.7645
 20
4.8721
 30
0.0
 10
-6.7645
 20
4.8721
 30
0.0
 10
-16.2417
 20
7.3042
 30
0.0
 10
-16.2417
 20
7.3042
 30
0.0
 10
-16.2417
 20
7.3042
 30
0.0
 10
-15.29
 20
10.5399
 30
0.0
 10
-15.29
 20
10.5399
 30
0.0
 10
-15.29
 20
10.5399
 30
0.0
 10
-13.8081
 20
12.1091
 30
0.0
 10
-13.8081
 20
12.1091
 30
0.0
 10
-13.8081
 20
12.1091
 30
0.0
 10
-13.7531
 20
12.1395
 30
0.0
 10
-13.7531
 20
12.1395
 30
0.0
  0
SPLINE
  5
62
330
1F
100
AcDbEntity
  8
Layer 1
 62
   250
100
AcDbSpline
210
0.0
220
0.0
230
1.0
 70
    11
 71
     3
 72
    23
 73
    19
 74
     0
 42
0.0000000001
 43
0.0000000001
 40
0.0
 40
0.0
 40
0.0
 40
0.0
 40
0.1666666666666667
 40
0.1666666666666667
 40
0.1666666666666667
 40
0.3333333333333333
 40
0.3333333333333333
 40
0.3333333333333333
 40
0.5
 40
0.5
 40
0.5
 40
0.6666666666666666
 40
0.6666666666666666
 40
0.6666666666666666
 40
0.8333333333333333
 40
0.8333333333333333
 40
0.8333333333333333
 40
1.0
 40
1.0
 40
1.0
 40
1.0
 10
-8.7878
 20
13.9603
 30
0.0
 10
-8.7878
 20
13.9603
 30
0.0
 10
-13.311
 20
11.4649
 30
0.0
 10
-13.311
 20
11.4649
 30
0.0
 10
-13.311
 20
11.4649
 30
0.0
 10
-13.9987
 20
10.7367
 30
0.0
 10
-13.9987
 20
10.7367
 30
0.0
 10
-13.9987
 20
10.7367
 30
0.0
 10
-12.9377
 20
10.7367
 30
0.0
 10
-12.9377
 20
10.7367
 30
0.0
 10
-12.9377
 20
10.7367
 30
0.0
 10
-8.6506
 20
13.1532
 30
0.0
 10
-8.6506
 20
13.1532
 30
0.0
 10
-8.6506
 20
13.1532
 30
0.0
 10
-8.018
 20
13.9043
 30
0.0
 10
-8.018
 20
13.9043
 30
0.0
 10
-8.018
 20
13.9043
 30
0.0
 10
-8.7878
 20
13.9603
 30
0.0
 10
-8.7878
 20
13.9603
 30
0.0
  0
SPLINE
  5
63
330
1F
100
AcDbEntity
  8
Layer 1
 62
   250
100
AcDbSpline
210
0.0
220
0.0
230
1.0
 70
    11
 71
     3
 72
    17
 73
    13
 74
     0
 42
0.0000000001
 43
0.0000000001
 40
0.0
 40
0.0
 40
0.0
 40
0.0
 40
0.25
 40
0.25
 40
0.25
 40
0.5
 40
0.5
 40
0.5
 40
0.75
 40
0.75
 40
0.75
 40
1.0
 40
1.0
 40
1.0
 40
1.0
 10
-5.3648
 20
13.7114
 30
0.0
 10
-5.3648
 20
13.7114
 30
0.0
 10
-7.0303
 20
13.8325
 30
0.0
 10
-7.0303
 20
13.8325
 30
0.0
 10
-7.0303
 20
13.8325
 30
0.0
 10
-7.7759
 20
12.9472
 30
0.0
 10
-7.7759
 20
12.9472
 30
0.0
 10
-7.7759
 20
12.9472
 30
0.0
 10
-6.7595
 20
12.3665
 30
0.0
 10
-6.7595
 20
12.3665
 30
0.0
 10
-6.7595
 20
12.3665
 30
0.0
 10
-5.3648
 20
13.7114
 30
0.0
 10
-5.3648
 20
13.7114
 30
0.0
  0
SPLINE
  5
64
330
1F
100
AcDbEntity
  8
Layer 1
 62
   250
100
AcDbSpline
210
0.0
220
0.0
230
1.0
 70
    11
 71
     3
 72
    14
 73
    10
 74
     0
 42
0.0000000001
 43
0.0000000001
 40
0.0
 40
0.0
 40
0.0
 40
0.0
 40
0.3333333333333333
 40
0.3333333333333333
 40
0.3333333333333333
 40
0.6666666666666666
 40
0.6666666666666666
 40
0.6666666666666666
 40
1.0
 40
1.0
 40
1.0
 40
1.0
 10
-6.2542
 20
8.3853
 30
0.0
 10
-6.2542
 20
8.3853
 30
0.0
 10
-5.1633
 20
12.7896
 30
0.0
 10
-5.1633
 20
12.7896
 30
0.0
 10
-5.1633
 20
12.7896
 30
0.0
 10
-6.2946
 20
11.6987
 30
0.0
 10
-6.2946
 20
11.6987
 30
0.0
 10
-6.2946
 20
11.6987
 30
0.0
 10
-6.2542
 20
8.3853
 30
0.0
 10
-6.2542
 20
8.3853
 30
0.0
  0
SPLINE
  5
65
330
1F
100
AcDbEntity
  8
Layer 1
 62
   250
100
AcDbSpline
210
0.0
220
0.0
230
1.0
 70
    11
 71
     3
 72
    14
 73
    10
 74
     0
 42
0.0000000001
 43
0.0000000001
 40
0.0
 40
0.0
 40
0.0
 40
0.0
 40
0.3333333333333333
 40
0.3333333333333333
 40
0.3333333333333333
 40
0.6666666666666666
 40
0.6666666666666666
 40
0.6666666666666666
 40
1.0
 40
1.0
 40
1.0
 40
1.0
 10
-14.1832
 20
7.604
 30
0.0
 10
-14.1832
 20
7.604
 30
0.0
 10
-9.9499
 20
6.5176
 30
0.0
 10
-9.9499
 20
6.5176
 30
0.0
 10
-9.9499
 20
6.5176
 30
0.0
 10
-12.7971
 20
7.9884
 30
0.0
 10
-12.7971
 20
7.9884
 30
0.0
 10
-12.7971
 20
7.9884
 30
0.0
 10
-14.1832
 20
7.604
 30
0.0
 10
-14.1832
 20
7.604
 30
0.0
  0
SPLINE
  5
66
330
1F
100
AcDbEntity
  8
Layer 1
 62
   250
100
AcDbSpline
210
0.0
220
0.0
230
1.0
 70
    11
 71
     3
 72
    17
 73
    13
 74
     0
 42
0.0000000001
 43
0.0000000001
 40
0.0
 40
0.0
 40
0.0
 40
0.0
 40
0.25
 40
0.25
 40
0.25
 40
0.5
 40
0.5
 40
0.5
 40
0.75
 40
0.75
 40
0.75
 40
1.0
 40
1.0
 40
1.0
 40
1.0
 10
-14.6315
 20
9.9311
 30
0.0
 10
-14.6315
 20
9.9311
 30
0.0
 10
-15.1496
 20
8.1696
 30
0.0
 10
-15.1496
 20
8.1696
 30
0.0
 10
-15.1496
 20
8.1696
 30
0.0
 10
-13.1669
 20
8.7194
 30
0.0
 10
-13.1669
 20
8.7194
 30
0.0
 10
-13.1669
 20
8.7194
 30
0.0
 10
-13.218
 20
9.9311
 30
0.0
 10
-13.218
 20
9.9311
 30
0.0
 10
-13.218
 20
9.9311
 30
0.0
 10
-14.6315
 20
9.9311
 30
0.0
 10
-14.6315
 20
9.9311
 30
0.0
  0
SPLINE
  5
67
330
1F
100
AcDbEntity
  8
Layer 1
 62
   250
100
AcDbSpline
210
0.0
220
0.0
230
1.0
 70
    11
 71
     3
 72
    17
 73
    13
 74
     0
 42
0.0000000001
 43
0.0000000001
 40
0.0
 40
0.0
 40
0.0
 40
0.0
 40
0.25
 40
0.25
 40
0.25
 40
0.5
 40
0.5
 40
0.5
 40
0.75
 40
0.75
 40
0.75
 40
1.0
 40
1.0
 40
1.0
 40
1.0
 10
-8.3948
 20
12.3739
 30
0.0
 10
-8.3948
 20
12.3739
 30
0.0
 10
-10.242
 20
11.3327
 30
0.0
 10
-10.242
 20
11.3327
 30
0.0
 10
-10.242
 20
11.3327
 30
0.0
 10
-9.7434
 20
10.5946
 30
0.0
 10
-9.7434
 20
10.5946
 30
0.0
 10
-9.7434
 20
10.5946
 30
0.0
 10
-7.5091
 20
11.8678
 30
0.0
 10
-7.5091
 20
11.8678
 30
0.0
 10
-7.5091
 20
11.8678
 30
0.0
 10
-8.3948
 20
12.3739
 30
0.0
 10
-8.3948
 20
12.3739
 30
0.0
  0
SPLINE
  5
68
330
1F
100
AcDbEntity
  8
Layer 1
 62
   250
100
AcDbSpline
210
0.0
220
0.0
230
1.0
 70
    11
 71
     3
 72
    17
 73
    13
 74
     0
 42
0.0000000001
 43
0.0000000001
 40
0.0
 40
0.0
 40
0.0
 40
0.0
 40
0.25
 40
0.25
 40
0.25
 40
0.5
 40
0.5
 40
0.5
 40
0.75
 40
0.75
 40
0.75
 40
1.0
 40
1.0
 40
1.0
 40
1.0
 10
-10.9454
 20
10.9362
 30
0.0
 10
-10.9454
 20
10.9362
 30
0.0
 10
-12.4215
 20
10.1041
 30
0.0
 10
-12.4215
 20
10.1041
 30
0.0
 10
-12.4215
 20
10.1041
 30
0.0
 10
-12.3789
 20
9.0927
 30
0.0
 10
-12.3789
 20
9.0927
 30
0.0
 10
-12.3789
 20
9.0927
 30
0.0
 10
-10.4446
 20
10.195
 30
0.0
 10
-10.4446
 20
10.195
 30
0.0
 10
-10.4446
 20
10.195
 30
0.0
 10
-10.9454
 20
10.9362
 30
0.0
 10
-10.9454
 20
10.9362
 30
0.0
  0
SPLINE
  5
69
330
1F
100
AcDbEntity
  8
Layer 1
 62
   250
100
AcDbSpline
210
0.0
220
0.0
230
1.0
 70
    11
 71
     3
 72
    14
 73
    10
 74
     0
 42
0.0000000001
 43
0.0000000001
 40
0.0
 40
0.0
 40
0.0
 40
0.0
 40
0.3333333333333333
 40
0.3333333333333333
 40
0.3333333333333333
 40
0.6666666666666666
 40
0.6666666666666666
 40
0.6666666666666666
 40
1.0
 40
1.0
 40
1.0
 40
1.0
 10
-7.0908
 20
11.1816
 30
0.0
 10
-7.0908
 20
11.1816
 30
0.0
 10
-9.2924
 20
9.927
 30
0.0
 10
-9.2924
 20
9.927
 30
0.0
 10
-9.2924
 20
9.927
 30
0.0
 10
-7.0348
 20
6.5852
 30
0.0
 10
-7.0348
 20
6.5852
 30
0.0
 10
-7.0348
 20
6.5852
 30
0.0
 10
-7.0908
 20
11.1816
 30
0.0
 10
-7.0908
 20
11.1816
 30
0.0
  0
SPLINE
  5
6A
330
1F
100
AcDbEntity
  8
Layer 1
 62
   250
100
AcDbSpline
210
0.0
220
0.0
230
1.0
 70
    11
 71
     3
 72
    14
 73
    10
 74
     0
 42
0.0000000001
 43
0.0000000001
 40
0.0
 40
0.0
 40
0.0
 40
0.0
 40
0.3333333333333333
 40
0.3333333333333333
 40
0.3333333333333333
 40
0.6666666666666666
 40
0.6666666666666666
 40
0.6666666666666666
 40
1.0
 40
1.0
 40
1.0
 40
1.0
 10
-9.9936
 20
9.5274
 30
0.0
 10
-9.9936
 20
9.5274
 30
0.0
 10
-11.9105
 20
8.435
 30
0.0
 10
-11.9105
 20
8.435
 30
0.0
 10
-11.9105
 20
8.435
 30
0.0
 10
-7.8326
 20
6.3284
 30
0.0
 10
-7.8326
 20
6.3284
 30
0.0
 10
-7.8326
 20
6.3284
 30
0.0
 10
-9.9936
 20
9.5274
 30
0.0
 10
-9.9936
 20
9.5274
 30
0.0
  0
SPLINE
  5
6B
330
1F
100
AcDbEntity
  8
Layer 1
 62
   250
100
AcDbSpline
210
0.0
220
0.0
230
1.0
 70
    11
 71
     3
 72
    80
 73
    76
 74
     0
 42
0.0000000001
 43
0.0000000001
 40
0.0
 40
0.0
 40
0.0
 40
0.0
 40
0.04
 40
0.04
 40
0.04
 40
0.08
 40
0.08
 40
0.08
 40
0.12
 40
0.12
 40
0.12
 40
0.16
 40
0.16
 40
0.16
 40
0.2
 40
0.2
 40
0.2
 40
0.24
 40
0.24
 40
0.24
 40
0.28
 40
0.28
 40
0.28
 40
0.32
 40
0.32
 40
0.32
 40
0.36
 40
0.36
 40
0.36
 40
0.4
 40
0.4
 40
0.4
 40
0.44
 40
0.44
 40
0.44
 40
0.48
 40
0.48
 40
0.48
 40
0.52
 40
0.52
 40
0.52
 40
0.56
 40
0.56
 40
0.56
 40
0.6
 40
0.6
 40
0.6
 40
0.64
 40
0.64
 40
0.64
 40
0.68
 40
0.68
 40
0.68
 40
0.72
 40
0.72
 40
0.72
 40
0.76
 40
0.76
 40
0.76
 40
0.8
 40
0.8
 40
0.8
 40
0.84
 40
0.84
 40
0.84
 40
0.88
 40
0.88
 40
0.88
 40
0.92
 40
0.92
 40
0.92
 40
0.96
 40
0.96
 40
0.96
 40
1.0
 40
1.0
 40
1.0
 40
1.0
 10
-6.1503
 20
-2.9925
 30
0.0
 10
-6.1503
 20
-2.9925
 30
0.0
 10
-6.1503
 20
-2.8166
 30
0.0
 10
-6.1503
 20
-2.8166
 30
0.0
 10
-5.6639
 20
-2.7665
 30
0.0
 10
-5.6459
 20
-2.7287
 30
0.0
 10
-5.652
 20
-2.0566
 30
0.0
 10
-5.652
 20
-2.0566
 30
0.0
 10
-5.6459
 20
0.5064
 30
0.0
 10
-5.6459
 20
0.5064
 30
0.0
 10
-6.1324
 20
-0.6432
 30
0.0
 10
-6.9155
 20
-2.4397
 30
0.0
 10
-7.1231
 20
-2.9925
 30
0.0
 10
-7.1231
 20
-2.9925
 30
0.0
 10
-7.2774
 20
-2.9925
 30
0.0
 10
-7.2774
 20
-2.9925
 30
0.0
 10
-7.4791
 20
-2.4211
 30
0.0
 10
-8.1494
 20
-0.6933
 30
0.0
 10
-8.6002
 20
0.4436
 30
0.0
 10
-8.7011
 20
-1.7551
 30
0.0
 10
-8.707
 20
-2.2511
 30
0.0
 10
-8.707
 20
-2.3708
 30
0.0
 10
-8.7011
 20
-2.7224
 30
0.0
 10
-8.5528
 20
-2.7728
 30
0.0
 10
-8.1494
 20
-2.8166
 30
0.0
 10
-8.1494
 20
-2.8166
 30
0.0
 10
-8.1494
 20
-2.9925
 30
0.0
 10
-8.1494
 20
-2.9925
 30
0.0
 10
-8.1494
 20
-2.9925
 30
0.0
 10
-9.5553
 20
-2.9925
 30
0.0
 10
-9.5553
 20
-2.9925
 30
0.0
 10
-9.5553
 20
-2.9925
 30
0.0
 10
-9.5553
 20
-2.8166
 30
0.0
 10
-9.5553
 20
-2.8166
 30
0.0
 10
-9.2112
 20
-2.7789
 30
0.0
 10
-9.0688
 20
-2.7036
 30
0.0
 10
-9.0213
 20
-2.3646
 30
0.0
 10
-8.9859
 20
-2.0879
 30
0.0
 10
-8.9798
 20
-1.8618
 30
0.0
 10
-8.8256
 20
0.4311
 30
0.0
 10
-8.8019
 20
0.7578
 30
0.0
 10
-8.8613
 20
0.8646
 30
0.0
 10
-9.3832
 20
0.9149
 30
0.0
 10
-9.3832
 20
0.9149
 30
0.0
 10
-9.3832
 20
1.0907
 30
0.0
 10
-9.3832
 20
1.0907
 30
0.0
 10
-9.3832
 20
1.0907
 30
0.0
 10
-8.351
 20
1.0907
 30
0.0
 10
-8.351
 20
1.0907
 30
0.0
 10
-8.351
 20
1.0907
 30
0.0
 10
-7.0401
 20
-2.094
 30
0.0
 10
-7.0401
 20
-2.094
 30
0.0
 10
-7.0401
 20
-2.094
 30
0.0
 10
-5.6342
 20
1.0907
 30
0.0
 10
-5.6342
 20
1.0907
 30
0.0
 10
-5.6342
 20
1.0907
 30
0.0
 10
-4.5961
 20
1.0907
 30
0.0
 10
-4.5961
 20
1.0907
 30
0.0
 10
-4.5961
 20
1.0907
 30
0.0
 10
-4.5961
 20
0.9149
 30
0.0
 10
-4.5961
 20
0.9149
 30
0.0
 10
-5.1063
 20
0.8519
 30
0.0
 10
-5.1715
 20
0.7956
 30
0.0
 10
-5.1598
 20
0.3557
 30
0.0
 10
-5.1598
 20
0.3557
 30
0.0
 10
-5.1359
 20
-2.0566
 30
0.0
 10
-5.1359
 20
-2.0566
 30
0.0
 10
-5.1122
 20
-2.7287
 30
0.0
 10
-5.0944
 20
-2.7601
 30
0.0
 10
-4.5723
 20
-2.8166
 30
0.0
 10
-4.5723
 20
-2.8166
 30
0.0
 10
-4.5723
 20
-2.9925
 30
0.0
 10
-4.5723
 20
-2.9925
 30
0.0
 10
-4.5723
 20
-2.9925
 30
0.0
 10
-6.1503
 20
-2.9925
 30
0.0
 10
-6.1503
 20
-2.9925
 30
0.0
  0
SPLINE
  5
6C
330
1F
100
AcDbEntity
  8
Layer 1
 62
   250
100
AcDbSpline
210
0.0
220
0.0
230
1.0
 70
    11
 71
     3
 72
    92
 73
    88
 74
     0
 42
0.0000000001
 43
0.0000000001
 40
0.0
 40
0.0
 40
0.0
 40
0.0
 40
0.0344827586206897
 40
0.0344827586206897
 40
0.0344827586206897
 40
0.0689655172413793
 40
0.0689655172413793
 40
0.0689655172413793
 40
0.103448275862069
 40
0.103448275862069
 40
0.103448275862069
 40
0.1379310344827586
 40
0.1379310344827586
 40
0.1379310344827586
 40
0.1724137931034483
 40
0.1724137931034483
 40
0.1724137931034483
 40
0.2068965517241379
 40
0.2068965517241379
 40
0.2068965517241379
 40
0.2413793103448276
 40
0.2413793103448276
 40
0.2413793103448276
 40
0.2758620689655172
 40
0.2758620689655172
 40
0.2758620689655172
 40
0.3103448275862069
 40
0.3103448275862069
 40
0.3103448275862069
 40
0.3448275862068966
 40
0.3448275862068966
 40
0.3448275862068966
 40
0.3793103448275862
 40
0.3793103448275862
 40
0.3793103448275862
 40
0.4137931034482759
 40
0.4137931034482759
 40
0.4137931034482759
 40
0.4482758620689655
 40
0.4482758620689655
 40
0.4482758620689655
 40
0.4827586206896551
 40
0.4827586206896551
 40
0.4827586206896551
 40
0.5172413793103449
 40
0.5172413793103449
 40
0.5172413793103449
 40
0.5517241379310345
 40
0.5517241379310345
 40
0.5517241379310345
 40
0.5862068965517241
 40
0.5862068965517241
 40
0.5862068965517241
 40
0.6206896551724138
 40
0.6206896551724138
 40
0.6206896551724138
 40
0.6551724137931034
 40
0.6551724137931034
 40
0.6551724137931034
 40
0.6896551724137931
 40
0.6896551724137931
 40
0.6896551724137931
 40
0.7241379310344828
 40
0.7241379310344828
 40
0.7241379310344828
 40
0.7586206896551724
 40
0.7586206896551724
 40
0.7586206896551724
 40
0.7931034482758621
 40
0.7931034482758621
 40
0.7931034482758621
 40
0.8275862068965517
 40
0.8275862068965517
 40
0.8275862068965517
 40
0.8620689655172413
 40
0.8620689655172413
 40
0.8620689655172413
 40
0.896551724137931
 40
0.896551724137931
 40
0.896551724137931
 40
0.9310344827586207
 40
0.9310344827586207
 40
0.9310344827586207
 40
0.9655172413793103
 40
0.9655172413793103
 40
0.9655172413793103
 40
1.0
 40
1.0
 40
1.0
 40
1.0
 10
-0.9583
 20
-1.9939
 30
0.0
 10
-0.994
 20
-2.1572
 30
0.0
 10
-1.1541
 20
-2.8041
 30
0.0
 10
-1.2134
 20
-2.9925
 30
0.0
 10
-1.2134
 20
-2.9925
 30
0.0
 10
-4.0963
 20
-2.9925
 30
0.0
 10
-4.0963
 20
-2.9925
 30
0.0
 10
-4.0963
 20
-2.9925
 30
0.0
 10
-4.0963
 20
-2.8166
 30
0.0
 10
-4.0963
 20
-2.8166
 30
0.0
 10
-3.5447
 20
-2.7728
 30
0.0
 10
-3.5031
 20
-2.7162
 30
0.0
 10
-3.5031
 20
-2.2009
 30
0.0
 10
-3.5031
 20
-2.2009
 30
0.0
 10
-3.5031
 20
0.2803
 30
0.0
 10
-3.5031
 20
0.2803
 30
0.0
 10
-3.5031
 20
0.8394
 30
0.0
 10
-3.5684
 20
0.8708
 30
0.0
 10
-4.0134
 20
0.9149
 30
0.0
 10
-4.0134
 20
0.9149
 30
0.0
 10
-4.0134
 20
1.0907
 30
0.0
 10
-4.0134
 20
1.0907
 30
0.0
 10
-4.0134
 20
1.0907
 30
0.0
 10
-2.1981
 20
1.0907
 30
0.0
 10
-2.1981
 20
1.0907
 30
0.0
 10
-1.6405
 20
1.0907
 30
0.0
 10
-1.4091
 20
1.0969
 30
0.0
 10
-1.3379
 20
1.1033
 30
0.0
 10
-1.332
 20
0.9462
 30
0.0
 10
-1.3083
 20
0.4752
 30
0.0
 10
-1.2844
 20
0.1421
 30
0.0
 10
-1.2844
 20
0.1421
 30
0.0
 10
-1.4623
 20
0.1108
 30
0.0
 10
-1.4623
 20
0.1108
 30
0.0
 10
-1.5158
 20
0.3244
 30
0.0
 10
-1.5752
 20
0.4562
 30
0.0
 10
-1.6405
 20
0.5882
 30
0.0
 10
-1.7355
 20
0.7956
 30
0.0
 10
-1.8719
 20
0.8394
 30
0.0
 10
-2.2277
 20
0.8394
 30
0.0
 10
-2.2277
 20
0.8394
 30
0.0
 10
-2.7912
 20
0.8394
 30
0.0
 10
-2.7912
 20
0.8394
 30
0.0
 10
-2.9752
 20
0.8394
 30
0.0
 10
-2.987
 20
0.8206
 30
0.0
 10
-2.987
 20
0.6385
 30
0.0
 10
-2.987
 20
0.6385
 30
0.0
 10
-2.987
 20
-0.7498
 30
0.0
 10
-2.987
 20
-0.7498
 30
0.0
 10
-2.987
 20
-0.7498
 30
0.0
 10
-2.3286
 20
-0.7498
 30
0.0
 10
-2.3286
 20
-0.7498
 30
0.0
 10
-1.8836
 20
-0.7498
 30
0.0
 10
-1.854
 20
-0.6558
 30
0.0
 10
-1.7829
 20
-0.2286
 30
0.0
 10
-1.7829
 20
-0.2286
 30
0.0
 10
-1.599
 20
-0.2286
 30
0.0
 10
-1.599
 20
-0.2286
 30
0.0
 10
-1.599
 20
-0.2286
 30
0.0
 10
-1.599
 20
-1.5226
 30
0.0
 10
-1.599
 20
-1.5226
 30
0.0
 10
-1.599
 20
-1.5226
 30
0.0
 10
-1.7829
 20
-1.5226
 30
0.0
 10
-1.7829
 20
-1.5226
 30
0.0
 10
-1.8601
 20
-1.0702
 30
0.0
 10
-1.9073
 20
-1.0075
 30
0.0
 10
-2.3345
 20
-1.0075
 30
0.0
 10
-2.3345
 20
-1.0075
 30
0.0
 10
-2.987
 20
-1.0075
 30
0.0
 10
-2.987
 20
-1.0075
 30
0.0
 10
-2.987
 20
-1.0075
 30
0.0
 10
-2.987
 20
-2.2578
 30
0.0
 10
-2.987
 20
-2.2578
 30
0.0
 10
-2.987
 20
-2.6974
 30
0.0
 10
-2.8565
 20
-2.7348
 30
0.0
 10
-2.5598
 20
-2.7415
 30
0.0
 10
-2.5598
 20
-2.7415
 30
0.0
 10
-2.0083
 20
-2.7415
 30
0.0
 10
-2.0083
 20
-2.7415
 30
0.0
 10
-1.6465
 20
-2.7415
 30
0.0
 10
-1.5872
 20
-2.6849
 30
0.0
 10
-1.4566
 20
-2.5213
 30
0.0
 10
-1.344
 20
-2.3894
 30
0.0
 10
-1.2194
 20
-2.132
 30
0.0
 10
-1.1362
 20
-1.9436
 30
0.0
 10
-1.1362
 20
-1.9436
 30
0.0
 10
-0.9583
 20
-1.9939
 30
0.0
 10
-0.9583
 20
-1.9939
 30
0.0
  0
SPLINE
  5
6D
330
1F
100
AcDbEntity
  8
Layer 1
 62
   250
100
AcDbSpline
210
0.0
220
0.0
230
1.0
 70
    11
 71
     3
 72
    89
 73
    85
 74
     0
 42
0.0000000001
 43
0.0000000001
 40
0.0
 40
0.0
 40
0.0
 40
0.0
 40
0.0357142857142857
 40
0.0357142857142857
 40
0.0357142857142857
 40
0.0714285714285714
 40
0.0714285714285714
 40
0.0714285714285714
 40
0.1071428571428571
 40
0.1071428571428571
 40
0.1071428571428571
 40
0.1428571428571428
 40
0.1428571428571428
 40
0.1428571428571428
 40
0.1785714285714285
 40
0.1785714285714285
 40
0.1785714285714285
 40
0.2142857142857143
 40
0.2142857142857143
 40
0.2142857142857143
 40
0.25
 40
0.25
 40
0.25
 40
0.2857142857142857
 40
0.2857142857142857
 40
0.2857142857142857
 40
0.3214285714285714
 40
0.3214285714285714
 40
0.3214285714285714
 40
0.3571428571428571
 40
0.3571428571428571
 40
0.3571428571428571
 40
0.3928571428571428
 40
0.3928571428571428
 40
0.3928571428571428
 40
0.4285714285714285
 40
0.4285714285714285
 40
0.4285714285714285
 40
0.4642857142857142
 40
0.4642857142857142
 40
0.4642857142857142
 40
0.5
 40
0.5
 40
0.5
 40
0.5357142857142857
 40
0.5357142857142857
 40
0.5357142857142857
 40
0.5714285714285714
 40
0.5714285714285714
 40
0.5714285714285714
 40
0.6071428571428571
 40
0.6071428571428571
 40
0.6071428571428571
 40
0.6428571428571428
 40
0.6428571428571428
 40
0.6428571428571428
 40
0.6785714285714285
 40
0.6785714285714285
 40
0.6785714285714285
 40
0.7142857142857142
 40
0.7142857142857142
 40
0.7142857142857142
 40
0.75
 40
0.75
 40
0.75
 40
0.7857142857142857
 40
0.7857142857142857
 40
0.7857142857142857
 40
0.8214285714285714
 40
0.8214285714285714
 40
0.8214285714285714
 40
0.8571428571428571
 40
0.8571428571428571
 40
0.8571428571428571
 40
0.8928571428571428
 40
0.8928571428571428
 40
0.8928571428571428
 40
0.9285714285714285
 40
0.9285714285714285
 40
0.9285714285714285
 40
0.9642857142857142
 40
0.9642857142857142
 40
0.9642857142857142
 40
1.0
 40
1.0
 40
1.0
 40
1.0
 10
3.5865
 20
0.9149
 30
0.0
 10
3.0943
 20
0.8646
 30
0.0
 10
3.0467
 20
0.833
 30
0.0
 10
3.0467
 20
0.3054
 30
0.0
 10
3.0467
 20
0.3054
 30
0.0
 10
3.0467
 20
-2.2137
 30
0.0
 10
3.0467
 20
-2.2137
 30
0.0
 10
3.0467
 20
-2.7415
 30
0.0
 10
3.1001
 20
-2.7601
 30
0.0
 10
3.5865
 20
-2.8166
 30
0.0
 10
3.5865
 20
-2.8166
 30
0.0
 10
3.5865
 20
-2.9925
 30
0.0
 10
3.5865
 20
-2.9925
 30
0.0
 10
3.5865
 20
-2.9925
 30
0.0
 10
1.9967
 20
-2.9925
 30
0.0
 10
1.9967
 20
-2.9925
 30
0.0
 10
1.9967
 20
-2.9925
 30
0.0
 10
1.9967
 20
-2.8166
 30
0.0
 10
1.9967
 20
-2.8166
 30
0.0
 10
2.4893
 20
-2.7538
 30
0.0
 10
2.5364
 20
-2.7415
 30
0.0
 10
2.5364
 20
-2.2137
 30
0.0
 10
2.5364
 20
-2.2137
 30
0.0
 10
2.5364
 20
-0.9572
 30
0.0
 10
2.5364
 20
-0.9572
 30
0.0
 10
2.5364
 20
-0.9572
 30
0.0
 10
0.508
 20
-0.9572
 30
0.0
 10
0.508
 20
-0.9572
 30
0.0
 10
0.508
 20
-0.9572
 30
0.0
 10
0.508
 20
-2.2137
 30
0.0
 10
0.508
 20
-2.2137
 30
0.0
 10
0.508
 20
-2.7348
 30
0.0
 10
0.5552
 20
-2.7538
 30
0.0
 10
1.0417
 20
-2.8166
 30
0.0
 10
1.0417
 20
-2.8166
 30
0.0
 10
1.0417
 20
-2.9925
 30
0.0
 10
1.0417
 20
-2.9925
 30
0.0
 10
1.0417
 20
-2.9925
 30
0.0
 10
-0.5421
 20
-2.9925
 30
0.0
 10
-0.5421
 20
-2.9925
 30
0.0
 10
-0.5421
 20
-2.9925
 30
0.0
 10
-0.5421
 20
-2.8166
 30
0.0
 10
-0.5421
 20
-2.8166
 30
0.0
 10
-0.0616
 20
-2.7601
 30
0.0
 10
-0.0082
 20
-2.7415
 30
0.0
 10
-0.0082
 20
-2.2137
 30
0.0
 10
-0.0082
 20
-2.2137
 30
0.0
 10
-0.0082
 20
0.3054
 30
0.0
 10
-0.0082
 20
0.3054
 30
0.0
 10
-0.0082
 20
0.833
 30
0.0
 10
-0.0616
 20
0.8646
 30
0.0
 10
-0.5421
 20
0.9149
 30
0.0
 10
-0.5421
 20
0.9149
 30
0.0
 10
-0.5421
 20
1.0907
 30
0.0
 10
-0.5421
 20
1.0907
 30
0.0
 10
-0.5421
 20
1.0907
 30
0.0
 10
1.0417
 20
1.0907
 30
0.0
 10
1.0417
 20
1.0907
 30
0.0
 10
1.0417
 20
1.0907
 30
0.0
 10
1.0417
 20
0.9149
 30
0.0
 10
1.0417
 20
0.9149
 30
0.0
 10
0.5672
 20
0.8708
 30
0.0
 10
0.508
 20
0.8269
 30
0.0
 10
0.508
 20
0.3054
 30
0.0
 10
0.508
 20
0.3054
 30
0.0
 10
0.508
 20
-0.6933
 30
0.0
 10
0.508
 20
-0.6933
 30
0.0
 10
0.508
 20
-0.6933
 30
0.0
 10
2.5364
 20
-0.6933
 30
0.0
 10
2.5364
 20
-0.6933
 30
0.0
 10
2.5364
 20
-0.6933
 30
0.0
 10
2.5364
 20
0.3054
 30
0.0
 10
2.5364
 20
0.3054
 30
0.0
 10
2.5364
 20
0.8269
 30
0.0
 10
2.4714
 20
0.8708
 30
0.0
 10
1.9967
 20
0.9149
 30
0.0
 10
1.9967
 20
0.9149
 30
0.0
 10
1.9967
 20
1.0907
 30
0.0
 10
1.9967
 20
1.0907
 30
0.0
 10
1.9967
 20
1.0907
 30
0.0
 10
3.5865
 20
1.0907
 30
0.0
 10
3.5865
 20
1.0907
 30
0.0
 10
3.5865
 20
1.0907
 30
0.0
 10
3.5865
 20
0.9149
 30
0.0
 10
3.5865
 20
0.9149
 30
0.0
  0
SPLINE
  5
6E
330
1F
100
AcDbEntity
  8
Layer 1
 62
   250
100
AcDbSpline
210
0.0
220
0.0
230
1.0
 70
    11
 71
     3
 72
    26
 73
    22
 74
     0
 42
0.0000000001
 43
0.0000000001
 40
0.0
 40
0.0
 40
0.0
 40
0.0
 40
0.1428571428571428
 40
0.1428571428571428
 40
0.1428571428571428
 40
0.2857142857142857
 40
0.2857142857142857
 40
0.2857142857142857
 40
0.4285714285714285
 40
0.4285714285714285
 40
0.4285714285714285
 40
0.5714285714285714
 40
0.5714285714285714
 40
0.5714285714285714
 40
0.7142857142857142
 40
0.7142857142857142
 40
0.7142857142857142
 40
0.8571428571428571
 40
0.8571428571428571
 40
0.8571428571428571
 40
1.0
 40
1.0
 40
1.0
 40
1.0
 10
5.2371
 20
-2.1572
 30
0.0
 10
5.2371
 20
-2.628
 30
0.0
 10
5.4269
 20
-2.7601
 30
0.0
 10
5.8717
 20
-2.7601
 30
0.0
 10
6.9393
 20
-2.7601
 30
0.0
 10
7.485
 20
-1.9877
 30
0.0
 10
7.485
 20
-0.888
 30
0.0
 10
7.485
 20
-0.2034
 30
0.0
 10
7.2656
 20
0.3181
 30
0.0
 10
6.7971
 20
0.6196
 30
0.0
 10
6.5242
 20
0.8016
 30
0.0
 10
6.18
 20
0.8708
 30
0.0
 10
5.7828
 20
0.8708
 30
0.0
 10
5.5158
 20
0.8708
 30
0.0
 10
5.3735
 20
0.833
 30
0.0
 10
5.3139
 20
0.7829
 30
0.0
 10
5.2605
 20
0.7453
 30
0.0
 10
5.2371
 20
0.6761
 30
0.0
 10
5.2371
 20
0.4311
 30
0.0
 10
5.2371
 20
0.4311
 30
0.0
 10
5.2371
 20
-2.1572
 30
0.0
 10
5.2371
 20
-2.1572
 30
0.0
  0
SPLINE
  5
6F
330
1F
100
AcDbEntity
  8
Layer 1
 62
   250
100
AcDbSpline
210
0.0
220
0.0
230
1.0
 70
    11
 71
     3
 72
    38
 73
    34
 74
     0
 42
0.0000000001
 43
0.0000000001
 40
0.0
 40
0.0
 40
0.0
 40
0.0
 40
0.0909090909090909
 40
0.0909090909090909
 40
0.0909090909090909
 40
0.1818181818181818
 40
0.1818181818181818
 40
0.1818181818181818
 40
0.2727272727272727
 40
0.2727272727272727
 40
0.2727272727272727
 40
0.3636363636363636
 40
0.3636363636363636
 40
0.3636363636363636
 40
0.4545454545454546
 40
0.4545454545454546
 40
0.4545454545454546
 40
0.5454545454545454
 40
0.5454545454545454
 40
0.5454545454545454
 40
0.6363636363636364
 40
0.6363636363636364
 40
0.6363636363636364
 40
0.7272727272727273
 40
0.7272727272727273
 40
0.7272727272727273
 40
0.8181818181818182
 40
0.8181818181818182
 40
0.8181818181818182
 40
0.9090909090909092
 40
0.9090909090909092
 40
0.9090909090909092
 40
1.0
 40
1.0
 40
1.0
 40
1.0
 10
5.8362
 20
1.0907
 30
0.0
 10
6.6726
 20
1.0907
 30
0.0
 10
7.2004
 20
0.9149
 30
0.0
 10
7.5683
 20
0.5442
 30
0.0
 10
7.8589
 20
0.2425
 30
0.0
 10
8.0724
 20
-0.1971
 30
0.0
 10
8.0724
 20
-0.8001
 30
0.0
 10
8.0724
 20
-1.5353
 30
0.0
 10
7.7879
 20
-2.132
 30
0.0
 10
7.3311
 20
-2.4962
 30
0.0
 10
6.88
 20
-2.8545
 30
0.0
 10
6.3047
 20
-2.9925
 30
0.0
 10
5.575
 20
-2.9925
 30
0.0
 10
5.575
 20
-2.9925
 30
0.0
 10
4.1871
 20
-2.9925
 30
0.0
 10
4.1871
 20
-2.9925
 30
0.0
 10
4.1871
 20
-2.9925
 30
0.0
 10
4.1871
 20
-2.8166
 30
0.0
 10
4.1871
 20
-2.8166
 30
0.0
 10
4.6972
 20
-2.7665
 30
0.0
 10
4.721
 20
-2.7224
 30
0.0
 10
4.721
 20
-2.2075
 30
0.0
 10
4.721
 20
-2.2075
 30
0.0
 10
4.721
 20
0.2992
 30
0.0
 10
4.721
 20
0.2992
 30
0.0
 10
4.721
 20
0.8394
 30
0.0
 10
4.6497
 20
0.8646
 30
0.0
 10
4.1871
 20
0.9149
 30
0.0
 10
4.1871
 20
0.9149
 30
0.0
 10
4.1871
 20
1.0907
 30
0.0
 10
4.1871
 20
1.0907
 30
0.0
 10
4.1871
 20
1.0907
 30
0.0
 10
5.8362
 20
1.0907
 30
0.0
 10
5.8362
 20
1.0907
 30
0.0
  0
SPLINE
  5
70
330
1F
100
AcDbEntity
  8
Layer 1
 62
   250
100
AcDbSpline
210
0.0
220
0.0
230
1.0
 70
    11
 71
     3
 72
    41
 73
    37
 74
     0
 42
0.0000000001
 43
0.0000000001
 40
0.0
 40
0.0
 40
0.0
 40
0.0
 40
0.0833333333333333
 40
0.0833333333333333
 40
0.0833333333333333
 40
0.1666666666666667
 40
0.1666666666666667
 40
0.1666666666666667
 40
0.25
 40
0.25
 40
0.25
 40
0.3333333333333333
 40
0.3333333333333333
 40
0.3333333333333333
 40
0.4166666666666666
 40
0.4166666666666666
 40
0.4166666666666666
 40
0.5
 40
0.5
 40
0.5
 40
0.5833333333333333
 40
0.5833333333333333
 40
0.5833333333333333
 40
0.6666666666666666
 40
0.6666666666666666
 40
0.6666666666666666
 40
0.75
 40
0.75
 40
0.75
 40
0.8333333333333333
 40
0.8333333333333333
 40
0.8333333333333333
 40
0.9166666666666666
 40
0.9166666666666666
 40
0.9166666666666666
 40
1.0
 40
1.0
 40
1.0
 40
1.0
 10
8.6491
 20
-2.9925
 30
0.0
 10
8.6491
 20
-2.9925
 30
0.0
 10
8.6491
 20
-2.8166
 30
0.0
 10
8.6491
 20
-2.8166
 30
0.0
 10
9.1356
 20
-2.7601
 30
0.0
 10
9.1831
 20
-2.7348
 30
0.0
 10
9.1831
 20
-2.2009
 30
0.0
 10
9.1831
 20
-2.2009
 30
0.0
 10
9.1831
 20
0.2929
 30
0.0
 10
9.1831
 20
0.2929
 30
0.0
 10
9.1831
 20
0.833
 30
0.0
 10
9.1356
 20
0.8581
 30
0.0
 10
8.6491
 20
0.9149
 30
0.0
 10
8.6491
 20
0.9149
 30
0.0
 10
8.6491
 20
1.0907
 30
0.0
 10
8.6491
 20
1.0907
 30
0.0
 10
8.6491
 20
1.0907
 30
0.0
 10
10.2387
 20
1.0907
 30
0.0
 10
10.2387
 20
1.0907
 30
0.0
 10
10.2387
 20
1.0907
 30
0.0
 10
10.2387
 20
0.9149
 30
0.0
 10
10.2387
 20
0.9149
 30
0.0
 10
9.7463
 20
0.8581
 30
0.0
 10
9.6992
 20
0.833
 30
0.0
 10
9.6992
 20
0.2929
 30
0.0
 10
9.6992
 20
0.2929
 30
0.0
 10
9.6992
 20
-2.2009
 30
0.0
 10
9.6992
 20
-2.2009
 30
0.0
 10
9.6992
 20
-2.7415
 30
0.0
 10
9.7463
 20
-2.7601
 30
0.0
 10
10.2387
 20
-2.8166
 30
0.0
 10
10.2387
 20
-2.8166
 30
0.0
 10
10.2387
 20
-2.9925
 30
0.0
 10
10.2387
 20
-2.9925
 30
0.0
 10
10.2387
 20
-2.9925
 30
0.0
 10
8.6491
 20
-2.9925
 30
0.0
 10
8.6491
 20
-2.9925
 30
0.0
  0
SPLINE
  5
71
330
1F
100
AcDbEntity
  8
Layer 1
 62
   250
100
AcDbSpline
210
0.0
220
0.0
230
1.0
 70
    11
 71
     3
 72
    95
 73
    91
 74
     0
 42
0.0000000001
 43
0.0000000001
 40
0.0
 40
0.0
 40
0.0
 40
0.0
 40
0.0333333333333333
 40
0.0333333333333333
 40
0.0333333333333333
 40
0.0666666666666667
 40
0.0666666666666667
 40
0.0666666666666667
 40
0.1
 40
0.1
 40
0.1
 40
0.1333333333333333
 40
0.1333333333333333
 40
0.1333333333333333
 40
0.1666666666666667
 40
0.1666666666666667
 40
0.1666666666666667
 40
0.2
 40
0.2
 40
0.2
 40
0.2333333333333333
 40
0.2333333333333333
 40
0.2333333333333333
 40
0.2666666666666667
 40
0.2666666666666667
 40
0.2666666666666667
 40
0.3
 40
0.3
 40
0.3
 40
0.3333333333333333
 40
0.3333333333333333
 40
0.3333333333333333
 40
0.3666666666666666
 40
0.3666666666666666
 40
0.3666666666666666
 40
0.4
 40
0.4
 40
0.4
 40
0.4333333333333333
 40
0.4333333333333333
 40
0.4333333333333333
 40
0.4666666666666667
 40
0.4666666666666667
 40
0.4666666666666667
 40
0.5
 40
0.5
 40
0.5
 40
0.5333333333333333
 40
0.5333333333333333
 40
0.5333333333333333
 40
0.5666666666666667
 40
0.5666666666666667
 40
0.5666666666666667
 40
0.6
 40
0.6
 40
0.6
 40
0.6333333333333333
 40
0.6333333333333333
 40
0.6333333333333333
 40
0.6666666666666666
 40
0.6666666666666666
 40
0.6666666666666666
 40
0.7
 40
0.7
 40
0.7
 40
0.7333333333333333
 40
0.7333333333333333
 40
0.7333333333333333
 40
0.7666666666666666
 40
0.7666666666666666
 40
0.7666666666666666
 40
0.8
 40
0.8
 40
0.8
 40
0.8333333333333334
 40
0.8333333333333334
 40
0.8333333333333334
 40
0.8666666666666667
 40
0.8666666666666667
 40
0.8666666666666667
 40
0.9
 40
0.9
 40
0.9
 40
0.9333333333333333
 40
0.9333333333333333
 40
0.9333333333333333
 40
0.9666666666666667
 40
0.9666666666666667
 40
0.9666666666666667
 40
1.0
 40
1.0
 40
1.0
 40
1.0
 10
-15.6494
 20
-5.0541
 30
0.0
 10
-15.6494
 20
-5.0541
 30
0.0
 10
-13.7638
 20
-5.0541
 30
0.0
 10
-13.7638
 20
-5.0541
 30
0.0
 10
-13.7638
 20
-5.0541
 30
0.0
 10
-13.7638
 20
-5.2606
 30
0.0
 10
-13.7638
 20
-5.2606
 30
0.0
 10
-13.7638
 20
-5.2606
 30
0.0
 10
-14.032
 20
-5.2606
 30
0.0
 10
-14.032
 20
-5.2606
 30
0.0
 10
-14.1377
 20
-5.2606
 30
0.0
 10
-14.2132
 20
-5.2786
 30
0.0
 10
-14.2584
 20
-5.3156
 30
0.0
 10
-14.3035
 20
-5.3523
 30
0.0
 10
-14.3261
 20
-5.4056
 30
0.0
 10
-14.3261
 20
-5.4751
 30
0.0
 10
-14.3261
 20
-5.4751
 30
0.0
 10
-14.3261
 20
-8.116
 30
0.0
 10
-14.3261
 20
-8.116
 30
0.0
 10
-14.3261
 20
-8.3199
 30
0.0
 10
-14.3779
 20
-8.5037
 30
0.0
 10
-14.4818
 20
-8.6681
 30
0.0
 10
-14.5855
 20
-8.8325
 30
0.0
 10
-14.7374
 20
-8.9626
 30
0.0
 10
-14.9372
 20
-9.0589
 30
0.0
 10
-15.1372
 20
-9.1557
 30
0.0
 10
-15.363
 20
-9.2036
 30
0.0
 10
-15.6147
 20
-9.2036
 30
0.0
 10
-15.957
 20
-9.2036
 30
0.0
 10
-16.2366
 20
-9.1076
 30
0.0
 10
-16.4538
 20
-8.916
 30
0.0
 10
-16.6709
 20
-8.7242
 30
0.0
 10
-16.7795
 20
-8.4895
 30
0.0
 10
-16.7795
 20
-8.2123
 30
0.0
 10
-16.7795
 20
-8.007
 30
0.0
 10
-16.7247
 20
-7.8426
 30
0.0
 10
-16.6151
 20
-7.7195
 30
0.0
 10
-16.5056
 20
-7.5967
 30
0.0
 10
-16.3711
 20
-7.535
 30
0.0
 10
-16.2116
 20
-7.535
 30
0.0
 10
-16.0809
 20
-7.535
 30
0.0
 10
-15.9734
 20
-7.5748
 30
0.0
 10
-15.8886
 20
-7.6548
 30
0.0
 10
-15.8041
 20
-7.7346
 30
0.0
 10
-15.7618
 20
-7.8359
 30
0.0
 10
-15.7618
 20
-7.959
 30
0.0
 10
-15.7618
 20
-8.0655
 30
0.0
 10
-15.7964
 20
-8.1551
 30
0.0
 10
-15.8655
 20
-8.2274
 30
0.0
 10
-15.9348
 20
-8.3002
 30
0.0
 10
-16.0146
 20
-8.3362
 30
0.0
 10
-16.105
 20
-8.3362
 30
0.0
 10
-16.1396
 20
-8.3362
 30
0.0
 10
-16.1877
 20
-8.3269
 30
0.0
 10
-16.2491
 20
-8.3086
 30
0.0
 10
-16.3009
 20
-8.2941
 30
0.0
 10
-16.3357
 20
-8.2867
 30
0.0
 10
-16.3529
 20
-8.2867
 30
0.0
 10
-16.3855
 20
-8.2867
 30
0.0
 10
-16.4116
 20
-8.2998
 30
0.0
 10
-16.4307
 20
-8.3251
 30
0.0
 10
-16.4518
 20
-8.3509
 30
0.0
 10
-16.4624
 20
-8.3898
 30
0.0
 10
-16.4624
 20
-8.4409
 30
0.0
 10
-16.4624
 20
-8.5784
 30
0.0
 10
-16.3898
 20
-8.7037
 30
0.0
 10
-16.2447
 20
-8.817
 30
0.0
 10
-16.0996
 20
-8.9298
 30
0.0
 10
-15.9213
 20
-8.9859
 30
0.0
 10
-15.71
 20
-8.9859
 30
0.0
 10
-15.4697
 20
-8.9859
 30
0.0
 10
-15.2804
 20
-8.9069
 30
0.0
 10
-15.1419
 20
-8.7478
 30
0.0
 10
-15.0035
 20
-8.589
 30
0.0
 10
-14.9343
 20
-8.3676
 30
0.0
 10
-14.9343
 20
-8.0832
 30
0.0
 10
-14.9343
 20
-8.0832
 30
0.0
 10
-14.9343
 20
-5.4751
 30
0.0
 10
-14.9343
 20
-5.4751
 30
0.0
 10
-14.9343
 20
-5.4038
 30
0.0
 10
-14.9598
 20
-5.3502
 30
0.0
 10
-15.0108
 20
-5.3143
 30
0.0
 10
-15.0618
 20
-5.2783
 30
0.0
 10
-15.1488
 20
-5.2606
 30
0.0
 10
-15.2718
 20
-5.2606
 30
0.0
 10
-15.2718
 20
-5.2606
 30
0.0
 10
-15.6494
 20
-5.2606
 30
0.0
 10
-15.6494
 20
-5.2606
 30
0.0
 10
-15.6494
 20
-5.2606
 30
0.0
 10
-15.6494
 20
-5.0541
 30
0.0
 10
-15.6494
 20
-5.0541
 30
0.0
  0
SPLINE
  5
72
330
1F
100
AcDbEntity
  8
Layer 1
 62
   250
100
AcDbSpline
210
0.0
220
0.0
230
1.0
 70
    11
 71
     3
 72
   110
 73
   106
 74
     0
 42
0.0000000001
 43
0.0000000001
 40
0.0
 40
0.0
 40
0.0
 40
0.0
 40
0.0285714285714286
 40
0.0285714285714286
 40
0.0285714285714286
 40
0.0571428571428571
 40
0.0571428571428571
 40
0.0571428571428571
 40
0.0857142857142857
 40
0.0857142857142857
 40
0.0857142857142857
 40
0.1142857142857143
 40
0.1142857142857143
 40
0.1142857142857143
 40
0.1428571428571428
 40
0.1428571428571428
 40
0.1428571428571428
 40
0.1714285714285714
 40
0.1714285714285714
 40
0.1714285714285714
 40
0.2
 40
0.2
 40
0.2
 40
0.2285714285714286
 40
0.2285714285714286
 40
0.2285714285714286
 40
0.2571428571428571
 40
0.2571428571428571
 40
0.2571428571428571
 40
0.2857142857142857
 40
0.2857142857142857
 40
0.2857142857142857
 40
0.3142857142857143
 40
0.3142857142857143
 40
0.3142857142857143
 40
0.3428571428571429
 40
0.3428571428571429
 40
0.3428571428571429
 40
0.3714285714285714
 40
0.3714285714285714
 40
0.3714285714285714
 40
0.4
 40
0.4
 40
0.4
 40
0.4285714285714285
 40
0.4285714285714285
 40
0.4285714285714285
 40
0.4571428571428571
 40
0.4571428571428571
 40
0.4571428571428571
 40
0.4857142857142857
 40
0.4857142857142857
 40
0.4857142857142857
 40
0.5142857142857142
 40
0.5142857142857142
 40
0.5142857142857142
 40
0.5428571428571428
 40
0.5428571428571428
 40
0.5428571428571428
 40
0.5714285714285714
 40
0.5714285714285714
 40
0.5714285714285714
 40
0.6
 40
0.6
 40
0.6
 40
0.6285714285714286
 40
0.6285714285714286
 40
0.6285714285714286
 40
0.6571428571428571
 40
0.6571428571428571
 40
0.6571428571428571
 40
0.6857142857142857
 40
0.6857142857142857
 40
0.6857142857142857
 40
0.7142857142857143
 40
0.7142857142857143
 40
0.7142857142857143
 40
0.7428571428571429
 40
0.7428571428571429
 40
0.7428571428571429
 40
0.7714285714285714
 40
0.7714285714285714
 40
0.7714285714285714
 40
0.7999999999999999
 40
0.7999999999999999
 40
0.7999999999999999
 40
0.8285714285714285
 40
0.8285714285714285
 40
0.8285714285714285
 40
0.8571428571428571
 40
0.8571428571428571
 40
0.8571428571428571
 40
0.8857142857142857
 40
0.8857142857142857
 40
0.8857142857142857
 40
0.9142857142857143
 40
0.9142857142857143
 40
0.9142857142857143
 40
0.9428571428571428
 40
0.9428571428571428
 40
0.9428571428571428
 40
0.9714285714285714
 40
0.9714285714285714
 40
0.9714285714285714
 40
1.0
 40
1.0
 40
1.0
 40
1.0
 10
-12.7087
 20
-5.0541
 30
0.0
 10
-12.7087
 20
-5.0541
 30
0.0
 10
-9.3297
 20
-5.0541
 30
0.0
 10
-9.3297
 20
-5.0541
 30
0.0
 10
-9.3297
 20
-5.0541
 30
0.0
 10
-9.2491
 20
-6.428
 30
0.0
 10
-9.2491
 20
-6.428
 30
0.0
 10
-9.2491
 20
-6.428
 30
0.0
 10
-9.4421
 20
-6.428
 30
0.0
 10
-9.4421
 20
-6.428
 30
0.0
 10
-9.5189
 20
-5.9947
 30
0.0
 10
-9.6404
 20
-5.6917
 30
0.0
 10
-9.8062
 20
-5.5192
 30
0.0
 10
-9.9723
 20
-5.347
 30
0.0
 10
-10.1886
 20
-5.2606
 30
0.0
 10
-10.4556
 20
-5.2606
 30
0.0
 10
-10.4556
 20
-5.2606
 30
0.0
 10
-11.2904
 20
-5.2606
 30
0.0
 10
-11.2904
 20
-5.2606
 30
0.0
 10
-11.3576
 20
-5.2606
 30
0.0
 10
-11.4086
 20
-5.2779
 30
0.0
 10
-11.4431
 20
-5.3129
 30
0.0
 10
-11.4777
 20
-5.3477
 30
0.0
 10
-11.4949
 20
-5.4011
 30
0.0
 10
-11.4949
 20
-5.4723
 30
0.0
 10
-11.4949
 20
-5.4723
 30
0.0
 10
-11.4949
 20
-6.9237
 30
0.0
 10
-11.4949
 20
-6.9237
 30
0.0
 10
-11.4949
 20
-6.9237
 30
0.0
 10
-11.1297
 20
-6.9237
 30
0.0
 10
-11.1297
 20
-6.9237
 30
0.0
 10
-10.9341
 20
-6.9237
 30
0.0
 10
-10.7757
 20
-6.8565
 30
0.0
 10
-10.654
 20
-6.7225
 30
0.0
 10
-10.5322
 20
-6.5885
 30
0.0
 10
-10.4666
 20
-6.3828
 30
0.0
 10
-10.4571
 20
-6.1058
 30
0.0
 10
-10.4571
 20
-6.1058
 30
0.0
 10
-10.2581
 20
-6.1058
 30
0.0
 10
-10.2581
 20
-6.1058
 30
0.0
 10
-10.2581
 20
-6.1058
 30
0.0
 10
-10.2581
 20
-7.9922
 30
0.0
 10
-10.2581
 20
-7.9922
 30
0.0
 10
-10.2581
 20
-7.9922
 30
0.0
 10
-10.4571
 20
-7.9922
 30
0.0
 10
-10.4571
 20
-7.9922
 30
0.0
 10
-10.4666
 20
-7.6799
 30
0.0
 10
-10.5331
 20
-7.4563
 30
0.0
 10
-10.6569
 20
-7.3215
 30
0.0
 10
-10.7804
 20
-7.1867
 30
0.0
 10
-10.9486
 20
-7.1191
 30
0.0
 10
-11.1614
 20
-7.1191
 30
0.0
 10
-11.1614
 20
-7.1191
 30
0.0
 10
-11.4949
 20
-7.1191
 30
0.0
 10
-11.4949
 20
-7.1191
 30
0.0
 10
-11.4949
 20
-7.1191
 30
0.0
 10
-11.4949
 20
-8.7383
 30
0.0
 10
-11.4949
 20
-8.7383
 30
0.0
 10
-11.4949
 20
-8.7972
 30
0.0
 10
-11.4742
 20
-8.842
 30
0.0
 10
-11.433
 20
-8.8734
 30
0.0
 10
-11.3917
 20
-8.9045
 30
0.0
 10
-11.3232
 20
-8.9203
 30
0.0
 10
-11.227
 20
-8.9203
 30
0.0
 10
-11.227
 20
-8.9203
 30
0.0
 10
-10.5679
 20
-8.9203
 30
0.0
 10
-10.5679
 20
-8.9203
 30
0.0
 10
-9.8517
 20
-8.9203
 30
0.0
 10
-9.4393
 20
-8.4829
 30
0.0
 10
-9.3297
 20
-7.6094
 30
0.0
 10
-9.3297
 20
-7.6094
 30
0.0
 10
-9.122
 20
-7.6094
 30
0.0
 10
-9.122
 20
-7.6094
 30
0.0
 10
-9.122
 20
-7.6094
 30
0.0
 10
-9.1942
 20
-9.1267
 30
0.0
 10
-9.1942
 20
-9.1267
 30
0.0
 10
-9.1942
 20
-9.1267
 30
0.0
 10
-12.7087
 20
-9.1267
 30
0.0
 10
-12.7087
 20
-9.1267
 30
0.0
 10
-12.7087
 20
-9.1267
 30
0.0
 10
-12.7087
 20
-8.9203
 30
0.0
 10
-12.7087
 20
-8.9203
 30
0.0
 10
-12.7087
 20
-8.9203
 30
0.0
 10
-12.4175
 20
-8.9203
 30
0.0
 10
-12.4175
 20
-8.9203
 30
0.0
 10
-12.3042
 20
-8.9203
 30
0.0
 10
-12.2243
 20
-8.9013
 30
0.0
 10
-12.1783
 20
-8.864
 30
0.0
 10
-12.1321
 20
-8.8262
 30
0.0
 10
-12.1089
 20
-8.7715
 30
0.0
 10
-12.1089
 20
-8.6998
 30
0.0
 10
-12.1089
 20
-8.6998
 30
0.0
 10
-12.1089
 20
-5.4723
 30
0.0
 10
-12.1089
 20
-5.4723
 30
0.0
 10
-12.1089
 20
-5.4011
 30
0.0
 10
-12.1292
 20
-5.3477
 30
0.0
 10
-12.1694
 20
-5.3129
 30
0.0
 10
-12.2099
 20
-5.2779
 30
0.0
 10
-12.2733
 20
-5.2606
 30
0.0
 10
-12.3597
 20
-5.2606
 30
0.0
 10
-12.3597
 20
-5.2606
 30
0.0
 10
-12.7087
 20
-5.2606
 30
0.0
 10
-12.7087
 20
-5.2606
 30
0.0
 10
-12.7087
 20
-5.2606
 30
0.0
 10
-12.7087
 20
-5.0541
 30
0.0
 10
-12.7087
 20
-5.0541
 30
0.0
  0
SPLINE
  5
73
330
1F
100
AcDbEntity
  8
Layer 1
 62
   250
100
AcDbSpline
210
0.0
220
0.0
230
1.0
 70
    11
 71
     3
 72
   125
 73
   121
 74
     0
 42
0.0000000001
 43
0.0000000001
 40
0.0
 40
0.0
 40
0.0
 40
0.0
 40
0.025
 40
0.025
 40
0.025
 40
0.05
 40
0.05
 40
0.05
 40
0.075
 40
0.075
 40
0.075
 40
0.1
 40
0.1
 40
0.1
 40
0.125
 40
0.125
 40
0.125
 40
0.15
 40
0.15
 40
0.15
 40
0.175
 40
0.175
 40
0.175
 40
0.2
 40
0.2
 40
0.2
 40
0.225
 40
0.225
 40
0.225
 40
0.25
 40
0.25
 40
0.25
 40
0.275
 40
0.275
 40
0.275
 40
0.3
 40
0.3
 40
0.3
 40
0.325
 40
0.325
 40
0.325
 40
0.35
 40
0.35
 40
0.35
 40
0.375
 40
0.375
 40
0.375
 40
0.4
 40
0.4
 40
0.4
 40
0.425
 40
0.425
 40
0.425
 40
0.45
 40
0.45
 40
0.45
 40
0.475
 40
0.475
 40
0.475
 40
0.5
 40
0.5
 40
0.5
 40
0.525
 40
0.525
 40
0.525
 40
0.55
 40
0.55
 40
0.55
 40
0.5750000000000001
 40
0.5750000000000001
 40
0.5750000000000001
 40
0.6000000000000001
 40
0.6000000000000001
 40
0.6000000000000001
 40
0.625
 40
0.625
 40
0.625
 40
0.65
 40
0.65
 40
0.65
 40
0.675
 40
0.675
 40
0.675
 40
0.7000000000000001
 40
0.7000000000000001
 40
0.7000000000000001
 40
0.7250000000000001
 40
0.7250000000000001
 40
0.7250000000000001
 40
0.75
 40
0.75
 40
0.75
 40
0.775
 40
0.775
 40
0.775
 40
0.8
 40
0.8
 40
0.8
 40
0.8250000000000001
 40
0.8250000000000001
 40
0.8250000000000001
 40
0.8500000000000001
 40
0.8500000000000001
 40
0.8500000000000001
 40
0.875
 40
0.875
 40
0.875
 40
0.9
 40
0.9
 40
0.9
 40
0.925
 40
0.925
 40
0.925
 40
0.9500000000000001
 40
0.9500000000000001
 40
0.9500000000000001
 40
0.9750000000000001
 40
0.9750000000000001
 40
0.9750000000000001
 40
1.0
 40
1.0
 40
1.0
 40
1.0
 10
-8.2399
 20
-5.0541
 30
0.0
 10
-8.2399
 20
-5.0541
 30
0.0
 10
-6.8158
 20
-5.0541
 30
0.0
 10
-6.8158
 20
-5.0541
 30
0.0
 10
-6.8158
 20
-5.0541
 30
0.0
 10
-6.8158
 20
-5.2606
 30
0.0
 10
-6.8158
 20
-5.2606
 30
0.0
 10
-6.8158
 20
-5.2606
 30
0.0
 10
-6.9164
 20
-5.2606
 30
0.0
 10
-6.9164
 20
-5.2606
 30
0.0
 10
-7.0657
 20
-5.2606
 30
0.0
 10
-7.1609
 20
-5.2715
 30
0.0
 10
-7.2023
 20
-5.2935
 30
0.0
 10
-7.2435
 20
-5.3156
 30
0.0
 10
-7.2642
 20
-5.3505
 30
0.0
 10
-7.2642
 20
-5.3982
 30
0.0
 10
-7.2642
 20
-5.4314
 30
0.0
 10
-7.2497
 20
-5.4832
 30
0.0
 10
-7.2209
 20
-5.5551
 30
0.0
 10
-7.2209
 20
-5.5551
 30
0.0
 10
-7.2035
 20
-5.6074
 30
0.0
 10
-7.2035
 20
-5.6074
 30
0.0
 10
-7.2035
 20
-5.6074
 30
0.0
 10
-6.3357
 20
-8.1928
 30
0.0
 10
-6.3357
 20
-8.1928
 30
0.0
 10
-6.3357
 20
-8.1928
 30
0.0
 10
-5.574
 20
-5.805
 30
0.0
 10
-5.574
 20
-5.805
 30
0.0
 10
-5.6629
 20
-5.5336
 30
0.0
 10
-5.7307
 20
-5.3749
 30
0.0
 10
-5.7778
 20
-5.329
 30
0.0
 10
-5.8248
 20
-5.2835
 30
0.0
 10
-5.9181
 20
-5.2606
 30
0.0
 10
-6.0582
 20
-5.2606
 30
0.0
 10
-6.0582
 20
-5.2606
 30
0.0
 10
-6.317
 20
-5.2606
 30
0.0
 10
-6.317
 20
-5.2606
 30
0.0
 10
-6.317
 20
-5.2606
 30
0.0
 10
-6.317
 20
-5.0541
 30
0.0
 10
-6.317
 20
-5.0541
 30
0.0
 10
-6.317
 20
-5.0541
 30
0.0
 10
-4.5383
 20
-5.0541
 30
0.0
 10
-4.5383
 20
-5.0541
 30
0.0
 10
-4.5383
 20
-5.0541
 30
0.0
 10
-4.5383
 20
-5.2606
 30
0.0
 10
-4.5383
 20
-5.2606
 30
0.0
 10
-4.5383
 20
-5.2606
 30
0.0
 10
-4.7225
 20
-5.2606
 30
0.0
 10
-4.7225
 20
-5.2606
 30
0.0
 10
-4.8837
 20
-5.2606
 30
0.0
 10
-4.9885
 20
-5.2729
 30
0.0
 10
-5.0366
 20
-5.2976
 30
0.0
 10
-5.0844
 20
-5.3224
 30
0.0
 10
-5.1085
 20
-5.3597
 30
0.0
 10
-5.1085
 20
-5.4095
 30
0.0
 10
-5.1085
 20
-5.4479
 30
0.0
 10
-5.1027
 20
-5.4832
 30
0.0
 10
-5.0911
 20
-5.5164
 30
0.0
 10
-5.0911
 20
-5.5164
 30
0.0
 10
-4.2079
 20
-8.1928
 30
0.0
 10
-4.2079
 20
-8.1928
 30
0.0
 10
-4.2079
 20
-8.1928
 30
0.0
 10
-3.4809
 20
-5.8773
 30
0.0
 10
-3.4809
 20
-5.8773
 30
0.0
 10
-3.4521
 20
-5.7873
 30
0.0
 10
-3.4376
 20
-5.7012
 30
0.0
 10
-3.4376
 20
-5.6184
 30
0.0
 10
-3.4376
 20
-5.4956
 30
0.0
 10
-3.467
 20
-5.4052
 30
0.0
 10
-3.5255
 20
-5.3473
 30
0.0
 10
-3.5841
 20
-5.2896
 30
0.0
 10
-3.6718
 20
-5.2606
 30
0.0
 10
-3.7887
 20
-5.2606
 30
0.0
 10
-3.7887
 20
-5.2606
 30
0.0
 10
-3.9212
 20
-5.2606
 30
0.0
 10
-3.9212
 20
-5.2606
 30
0.0
 10
-3.9212
 20
-5.2606
 30
0.0
 10
-3.9212
 20
-5.0541
 30
0.0
 10
-3.9212
 20
-5.0541
 30
0.0
 10
-3.9212
 20
-5.0541
 30
0.0
 10
-2.5835
 20
-5.0541
 30
0.0
 10
-2.5835
 20
-5.0541
 30
0.0
 10
-2.5835
 20
-5.0541
 30
0.0
 10
-2.5835
 20
-5.2606
 30
0.0
 10
-2.5835
 20
-5.2606
 30
0.0
 10
-2.7008
 20
-5.2754
 30
0.0
 10
-2.7941
 20
-5.3023
 30
0.0
 10
-2.8634
 20
-5.3417
 30
0.0
 10
-2.9326
 20
-5.3809
 30
0.0
 10
-2.9927
 20
-5.4377
 30
0.0
 10
-3.0438
 20
-5.511
 30
0.0
 10
-3.0948
 20
-5.5848
 30
0.0
 10
-3.146
 20
-5.7066
 30
0.0
 10
-3.1981
 20
-5.8773
 30
0.0
 10
-3.1981
 20
-5.8773
 30
0.0
 10
-4.2486
 20
-9.223
 30
0.0
 10
-4.2486
 20
-9.223
 30
0.0
 10
-4.2486
 20
-9.223
 30
0.0
 10
-4.4538
 20
-9.223
 30
0.0
 10
-4.4538
 20
-9.223
 30
0.0
 10
-4.4538
 20
-9.223
 30
0.0
 10
-5.4347
 20
-6.2301
 30
0.0
 10
-5.4347
 20
-6.2301
 30
0.0
 10
-5.4347
 20
-6.2301
 30
0.0
 10
-6.3704
 20
-9.223
 30
0.0
 10
-6.3704
 20
-9.223
 30
0.0
 10
-6.3704
 20
-9.223
 30
0.0
 10
-6.5863
 20
-9.223
 30
0.0
 10
-6.5863
 20
-9.223
 30
0.0
 10
-6.5863
 20
-9.223
 30
0.0
 10
-7.787
 20
-5.6074
 30
0.0
 10
-7.787
 20
-5.6074
 30
0.0
 10
-7.8352
 20
-5.4662
 30
0.0
 10
-7.8894
 20
-5.3728
 30
0.0
 10
-7.95
 20
-5.328
 30
0.0
 10
-8.0106
 20
-5.2828
 30
0.0
 10
-8.1074
 20
-5.2606
 30
0.0
 10
-8.2399
 20
-5.2606
 30
0.0
 10
-8.2399
 20
-5.2606
 30
0.0
 10
-8.2399
 20
-5.0541
 30
0.0
 10
-8.2399
 20
-5.0541
 30
0.0
  0
SPLINE
  5
74
330
1F
100
AcDbEntity
  8
Layer 1
 62
   250
100
AcDbSpline
210
0.0
220
0.0
230
1.0
 70
    11
 71
     3
 72
   110
 73
   106
 74
     0
 42
0.0000000001
 43
0.0000000001
 40
0.0
 40
0.0
 40
0.0
 40
0.0
 40
0.0285714285714286
 40
0.0285714285714286
 40
0.0285714285714286
 40
0.0571428571428571
 40
0.0571428571428571
 40
0.0571428571428571
 40
0.0857142857142857
 40
0.0857142857142857
 40
0.0857142857142857
 40
0.1142857142857143
 40
0.1142857142857143
 40
0.1142857142857143
 40
0.1428571428571428
 40
0.1428571428571428
 40
0.1428571428571428
 40
0.1714285714285714
 40
0.1714285714285714
 40
0.1714285714285714
 40
0.2
 40
0.2
 40
0.2
 40
0.2285714285714286
 40
0.2285714285714286
 40
0.2285714285714286
 40
0.2571428571428571
 40
0.2571428571428571
 40
0.2571428571428571
 40
0.2857142857142857
 40
0.2857142857142857
 40
0.2857142857142857
 40
0.3142857142857143
 40
0.3142857142857143
 40
0.3142857142857143
 40
0.3428571428571429
 40
0.3428571428571429
 40
0.3428571428571429
 40
0.3714285714285714
 40
0.3714285714285714
 40
0.3714285714285714
 40
0.4
 40
0.4
 40
0.4
 40
0.4285714285714285
 40
0.4285714285714285
 40
0.4285714285714285
 40
0.4571428571428571
 40
0.4571428571428571
 40
0.4571428571428571
 40
0.4857142857142857
 40
0.4857142857142857
 40
0.4857142857142857
 40
0.5142857142857142
 40
0.5142857142857142
 40
0.5142857142857142
 40
0.5428571428571428
 40
0.5428571428571428
 40
0.5428571428571428
 40
0.5714285714285714
 40
0.5714285714285714
 40
0.5714285714285714
 40
0.6
 40
0.6
 40
0.6
 40
0.6285714285714286
 40
0.6285714285714286
 40
0.6285714285714286
 40
0.6571428571428571
 40
0.6571428571428571
 40
0.6571428571428571
 40
0.6857142857142857
 40
0.6857142857142857
 40
0.6857142857142857
 40
0.7142857142857143
 40
0.7142857142857143
 40
0.7142857142857143
 40
0.7428571428571429
 40
0.7428571428571429
 40
0.7428571428571429
 40
0.7714285714285714
 40
0.7714285714285714
 40
0.7714285714285714
 40
0.7999999999999999
 40
0.7999999999999999
 40
0.7999999999999999
 40
0.8285714285714285
 40
0.8285714285714285
 40
0.8285714285714285
 40
0.8571428571428571
 40
0.8571428571428571
 40
0.8571428571428571
 40
0.8857142857142857
 40
0.8857142857142857
 40
0.8857142857142857
 40
0.9142857142857143
 40
0.9142857142857143
 40
0.9142857142857143
 40
0.9428571428571428
 40
0.9428571428571428
 40
0.9428571428571428
 40
0.9714285714285714
 40
0.9714285714285714
 40
0.9714285714285714
 40
1.0
 40
1.0
 40
1.0
 40
1.0
 10
-1.6724
 20
-5.0541
 30
0.0
 10
-1.6724
 20
-5.0541
 30
0.0
 10
1.7062
 20
-5.0541
 30
0.0
 10
1.7062
 20
-5.0541
 30
0.0
 10
1.7062
 20
-5.0541
 30
0.0
 10
1.7875
 20
-6.428
 30
0.0
 10
1.7875
 20
-6.428
 30
0.0
 10
1.7875
 20
-6.428
 30
0.0
 10
1.5939
 20
-6.428
 30
0.0
 10
1.5939
 20
-6.428
 30
0.0
 10
1.5174
 20
-5.9947
 30
0.0
 10
1.3961
 20
-5.6917
 30
0.0
 10
1.2301
 20
-5.5192
 30
0.0
 10
1.064
 20
-5.347
 30
0.0
 10
0.8476
 20
-5.2606
 30
0.0
 10
0.5803
 20
-5.2606
 30
0.0
 10
0.5803
 20
-5.2606
 30
0.0
 10
-0.2542
 20
-5.2606
 30
0.0
 10
-0.2542
 20
-5.2606
 30
0.0
 10
-0.3215
 20
-5.2606
 30
0.0
 10
-0.3725
 20
-5.2779
 30
0.0
 10
-0.4069
 20
-5.3129
 30
0.0
 10
-0.4415
 20
-5.3477
 30
0.0
 10
-0.4587
 20
-5.4011
 30
0.0
 10
-0.4587
 20
-5.4723
 30
0.0
 10
-0.4587
 20
-5.4723
 30
0.0
 10
-0.4587
 20
-6.9237
 30
0.0
 10
-0.4587
 20
-6.9237
 30
0.0
 10
-0.4587
 20
-6.9237
 30
0.0
 10
-0.0935
 20
-6.9237
 30
0.0
 10
-0.0935
 20
-6.9237
 30
0.0
 10
0.102
 20
-6.9237
 30
0.0
 10
0.2606
 20
-6.8565
 30
0.0
 10
0.3823
 20
-6.7225
 30
0.0
 10
0.5038
 20
-6.5885
 30
0.0
 10
0.5693
 20
-6.3828
 30
0.0
 10
0.5789
 20
-6.1058
 30
0.0
 10
0.5789
 20
-6.1058
 30
0.0
 10
0.7781
 20
-6.1058
 30
0.0
 10
0.7781
 20
-6.1058
 30
0.0
 10
0.7781
 20
-6.1058
 30
0.0
 10
0.7781
 20
-7.9922
 30
0.0
 10
0.7781
 20
-7.9922
 30
0.0
 10
0.7781
 20
-7.9922
 30
0.0
 10
0.5789
 20
-7.9922
 30
0.0
 10
0.5789
 20
-7.9922
 30
0.0
 10
0.5693
 20
-7.6799
 30
0.0
 10
0.5032
 20
-7.4563
 30
0.0
 10
0.3791
 20
-7.3215
 30
0.0
 10
0.2558
 20
-7.1867
 30
0.0
 10
0.0875
 20
-7.1191
 30
0.0
 10
-0.1252
 20
-7.1191
 30
0.0
 10
-0.1252
 20
-7.1191
 30
0.0
 10
-0.4587
 20
-7.1191
 30
0.0
 10
-0.4587
 20
-7.1191
 30
0.0
 10
-0.4587
 20
-7.1191
 30
0.0
 10
-0.4587
 20
-8.7383
 30
0.0
 10
-0.4587
 20
-8.7383
 30
0.0
 10
-0.4587
 20
-8.7972
 30
0.0
 10
-0.4381
 20
-8.842
 30
0.0
 10
-0.3969
 20
-8.8734
 30
0.0
 10
-0.3555
 20
-8.9045
 30
0.0
 10
-0.287
 20
-8.9203
 30
0.0
 10
-0.1908
 20
-8.9203
 30
0.0
 10
-0.1908
 20
-8.9203
 30
0.0
 10
0.4687
 20
-8.9203
 30
0.0
 10
0.4687
 20
-8.9203
 30
0.0
 10
1.1846
 20
-8.9203
 30
0.0
 10
1.5973
 20
-8.4829
 30
0.0
 10
1.7062
 20
-7.6094
 30
0.0
 10
1.7062
 20
-7.6094
 30
0.0
 10
1.9143
 20
-7.6094
 30
0.0
 10
1.9143
 20
-7.6094
 30
0.0
 10
1.9143
 20
-7.6094
 30
0.0
 10
1.8419
 20
-9.1267
 30
0.0
 10
1.8419
 20
-9.1267
 30
0.0
 10
1.8419
 20
-9.1267
 30
0.0
 10
-1.6724
 20
-9.1267
 30
0.0
 10
-1.6724
 20
-9.1267
 30
0.0
 10
-1.6724
 20
-9.1267
 30
0.0
 10
-1.6724
 20
-8.9203
 30
0.0
 10
-1.6724
 20
-8.9203
 30
0.0
 10
-1.6724
 20
-8.9203
 30
0.0
 10
-1.3813
 20
-8.9203
 30
0.0
 10
-1.3813
 20
-8.9203
 30
0.0
 10
-1.2679
 20
-8.9203
 30
0.0
 10
-1.188
 20
-8.9013
 30
0.0
 10
-1.142
 20
-8.864
 30
0.0
 10
-1.0959
 20
-8.8262
 30
0.0
 10
-1.0728
 20
-8.7715
 30
0.0
 10
-1.0728
 20
-8.6998
 30
0.0
 10
-1.0728
 20
-8.6998
 30
0.0
 10
-1.0728
 20
-5.4723
 30
0.0
 10
-1.0728
 20
-5.4723
 30
0.0
 10
-1.0728
 20
-5.4011
 30
0.0
 10
-1.0929
 20
-5.3477
 30
0.0
 10
-1.1333
 20
-5.3129
 30
0.0
 10
-1.1738
 20
-5.2779
 30
0.0
 10
-1.2372
 20
-5.2606
 30
0.0
 10
-1.3236
 20
-5.2606
 30
0.0
 10
-1.3236
 20
-5.2606
 30
0.0
 10
-1.6724
 20
-5.2606
 30
0.0
 10
-1.6724
 20
-5.2606
 30
0.0
 10
-1.6724
 20
-5.2606
 30
0.0
 10
-1.6724
 20
-5.0541
 30
0.0
 10
-1.6724
 20
-5.0541
 30
0.0
  0
SPLINE
  5
75
330
1F
100
AcDbEntity
  8
Layer 1
 62
   250
100
AcDbSpline
210
0.0
220
0.0
230
1.0
 70
    11
 71
     3
 72
    74
 73
    70
 74
     0
 42
0.0000000001
 43
0.0000000001
 40
0.0
 40
0.0
 40
0.0
 40
0.0
 40
0.0434782608695652
 40
0.0434782608695652
 40
0.0434782608695652
 40
0.0869565217391304
 40
0.0869565217391304
 40
0.0869565217391304
 40
0.1304347826086956
 40
0.1304347826086956
 40
0.1304347826086956
 40
0.1739130434782609
 40
0.1739130434782609
 40
0.1739130434782609
 40
0.2173913043478261
 40
0.2173913043478261
 40
0.2173913043478261
 40
0.2608695652173913
 40
0.2608695652173913
 40
0.2608695652173913
 40
0.3043478260869565
 40
0.3043478260869565
 40
0.3043478260869565
 40
0.3478260869565217
 40
0.3478260869565217
 40
0.3478260869565217
 40
0.3913043478260869
 40
0.3913043478260869
 40
0.3913043478260869
 40
0.4347826086956522
 40
0.4347826086956522
 40
0.4347826086956522
 40
0.4782608695652174
 40
0.4782608695652174
 40
0.4782608695652174
 40
0.5217391304347826
 40
0.5217391304347826
 40
0.5217391304347826
 40
0.5652173913043478
 40
0.5652173913043478
 40
0.5652173913043478
 40
0.6086956521739131
 40
0.6086956521739131
 40
0.6086956521739131
 40
0.6521739130434783
 40
0.6521739130434783
 40
0.6521739130434783
 40
0.6956521739130435
 40
0.6956521739130435
 40
0.6956521739130435
 40
0.7391304347826086
 40
0.7391304347826086
 40
0.7391304347826086
 40
0.7826086956521738
 40
0.7826086956521738
 40
0.7826086956521738
 40
0.8260869565217391
 40
0.8260869565217391
 40
0.8260869565217391
 40
0.8695652173913043
 40
0.8695652173913043
 40
0.8695652173913043
 40
0.9130434782608695
 40
0.9130434782608695
 40
0.9130434782608695
 40
0.9565217391304348
 40
0.9565217391304348
 40
0.9565217391304348
 40
1.0
 40
1.0
 40
1.0
 40
1.0
 10
2.88
 20
-5.0541
 30
0.0
 10
2.88
 20
-5.0541
 30
0.0
 10
4.8575
 20
-5.0541
 30
0.0
 10
4.8575
 20
-5.0541
 30
0.0
 10
4.8575
 20
-5.0541
 30
0.0
 10
4.8575
 20
-5.2606
 30
0.0
 10
4.8575
 20
-5.2606
 30
0.0
 10
4.8575
 20
-5.2606
 30
0.0
 10
4.3848
 20
-5.2606
 30
0.0
 10
4.3848
 20
-5.2606
 30
0.0
 10
4.3097
 20
-5.2606
 30
0.0
 10
4.2546
 20
-5.2792
 30
0.0
 10
4.219
 20
-5.317
 30
0.0
 10
4.1832
 20
-5.3545
 30
0.0
 10
4.1657
 20
-5.4138
 30
0.0
 10
4.1657
 20
-5.4945
 30
0.0
 10
4.1657
 20
-5.4945
 30
0.0
 10
4.1657
 20
-8.708
 30
0.0
 10
4.1657
 20
-8.708
 30
0.0
 10
4.1657
 20
-8.7852
 30
0.0
 10
4.188
 20
-8.8395
 30
0.0
 10
4.2332
 20
-8.8719
 30
0.0
 10
4.2783
 20
-8.904
 30
0.0
 10
4.369
 20
-8.9203
 30
0.0
 10
4.5054
 20
-8.9203
 30
0.0
 10
4.5054
 20
-8.9203
 30
0.0
 10
5.1042
 20
-8.9203
 30
0.0
 10
5.1042
 20
-8.9203
 30
0.0
 10
5.4227
 20
-8.9203
 30
0.0
 10
5.6836
 20
-8.8187
 30
0.0
 10
5.8858
 20
-8.6155
 30
0.0
 10
6.0883
 20
-8.413
 30
0.0
 10
6.2358
 20
-8.061
 30
0.0
 10
6.3278
 20
-7.5596
 30
0.0
 10
6.3278
 20
-7.5596
 30
0.0
 10
6.5297
 20
-7.5596
 30
0.0
 10
6.5297
 20
-7.5596
 30
0.0
 10
6.5297
 20
-7.5596
 30
0.0
 10
6.4319
 20
-9.1267
 30
0.0
 10
6.4319
 20
-9.1267
 30
0.0
 10
6.4319
 20
-9.1267
 30
0.0
 10
2.88
 20
-9.1267
 30
0.0
 10
2.88
 20
-9.1267
 30
0.0
 10
2.88
 20
-9.1267
 30
0.0
 10
2.88
 20
-8.9203
 30
0.0
 10
2.88
 20
-8.9203
 30
0.0
 10
2.88
 20
-8.9203
 30
0.0
 10
3.2286
 20
-8.9203
 30
0.0
 10
3.2286
 20
-8.9203
 30
0.0
 10
3.3478
 20
-8.9203
 30
0.0
 10
3.4315
 20
-8.8984
 30
0.0
 10
3.4794
 20
-8.8554
 30
0.0
 10
3.5277
 20
-8.8124
 30
0.0
 10
3.5514
 20
-8.7428
 30
0.0
 10
3.5514
 20
-8.6473
 30
0.0
 10
3.5514
 20
-8.6473
 30
0.0
 10
3.5514
 20
-5.467
 30
0.0
 10
3.5514
 20
-5.467
 30
0.0
 10
3.5514
 20
-5.3989
 30
0.0
 10
3.5314
 20
-5.3477
 30
0.0
 10
3.4911
 20
-5.3129
 30
0.0
 10
3.4508
 20
-5.2779
 30
0.0
 10
3.3912
 20
-5.2606
 30
0.0
 10
3.3123
 20
-5.2606
 30
0.0
 10
3.3123
 20
-5.2606
 30
0.0
 10
2.88
 20
-5.2606
 30
0.0
 10
2.88
 20
-5.2606
 30
0.0
 10
2.88
 20
-5.2606
 30
0.0
 10
2.88
 20
-5.0541
 30
0.0
 10
2.88
 20
-5.0541
 30
0.0
  0
SPLINE
  5
76
330
1F
100
AcDbEntity
  8
Layer 1
 62
   250
100
AcDbSpline
210
0.0
220
0.0
230
1.0
 70
    11
 71
     3
 72
   110
 73
   106
 74
     0
 42
0.0000000001
 43
0.0000000001
 40
0.0
 40
0.0
 40
0.0
 40
0.0
 40
0.0285714285714286
 40
0.0285714285714286
 40
0.0285714285714286
 40
0.0571428571428571
 40
0.0571428571428571
 40
0.0571428571428571
 40
0.0857142857142857
 40
0.0857142857142857
 40
0.0857142857142857
 40
0.1142857142857143
 40
0.1142857142857143
 40
0.1142857142857143
 40
0.1428571428571428
 40
0.1428571428571428
 40
0.1428571428571428
 40
0.1714285714285714
 40
0.1714285714285714
 40
0.1714285714285714
 40
0.2
 40
0.2
 40
0.2
 40
0.2285714285714286
 40
0.2285714285714286
 40
0.2285714285714286
 40
0.2571428571428571
 40
0.2571428571428571
 40
0.2571428571428571
 40
0.2857142857142857
 40
0.2857142857142857
 40
0.2857142857142857
 40
0.3142857142857143
 40
0.3142857142857143
 40
0.3142857142857143
 40
0.3428571428571429
 40
0.3428571428571429
 40
0.3428571428571429
 40
0.3714285714285714
 40
0.3714285714285714
 40
0.3714285714285714
 40
0.4
 40
0.4
 40
0.4
 40
0.4285714285714285
 40
0.4285714285714285
 40
0.4285714285714285
 40
0.4571428571428571
 40
0.4571428571428571
 40
0.4571428571428571
 40
0.4857142857142857
 40
0.4857142857142857
 40
0.4857142857142857
 40
0.5142857142857142
 40
0.5142857142857142
 40
0.5142857142857142
 40
0.5428571428571428
 40
0.5428571428571428
 40
0.5428571428571428
 40
0.5714285714285714
 40
0.5714285714285714
 40
0.5714285714285714
 40
0.6
 40
0.6
 40
0.6
 40
0.6285714285714286
 40
0.6285714285714286
 40
0.6285714285714286
 40
0.6571428571428571
 40
0.6571428571428571
 40
0.6571428571428571
 40
0.6857142857142857
 40
0.6857142857142857
 40
0.6857142857142857
 40
0.7142857142857143
 40
0.7142857142857143
 40
0.7142857142857143
 40
0.7428571428571429
 40
0.7428571428571429
 40
0.7428571428571429
 40
0.7714285714285714
 40
0.7714285714285714
 40
0.7714285714285714
 40
0.7999999999999999
 40
0.7999999999999999
 40
0.7999999999999999
 40
0.8285714285714285
 40
0.8285714285714285
 40
0.8285714285714285
 40
0.8571428571428571
 40
0.8571428571428571
 40
0.8571428571428571
 40
0.8857142857142857
 40
0.8857142857142857
 40
0.8857142857142857
 40
0.9142857142857143
 40
0.9142857142857143
 40
0.9142857142857143
 40
0.9428571428571428
 40
0.9428571428571428
 40
0.9428571428571428
 40
0.9714285714285714
 40
0.9714285714285714
 40
0.9714285714285714
 40
1.0
 40
1.0
 40
1.0
 40
1.0
 10
7.5098
 20
-5.0541
 30
0.0
 10
7.5098
 20
-5.0541
 30
0.0
 10
10.8887
 20
-5.0541
 30
0.0
 10
10.8887
 20
-5.0541
 30
0.0
 10
10.8887
 20
-5.0541
 30
0.0
 10
10.9698
 20
-6.428
 30
0.0
 10
10.9698
 20
-6.428
 30
0.0
 10
10.9698
 20
-6.428
 30
0.0
 10
10.7764
 20
-6.428
 30
0.0
 10
10.7764
 20
-6.428
 30
0.0
 10
10.6997
 20
-5.9947
 30
0.0
 10
10.5784
 20
-5.6917
 30
0.0
 10
10.4123
 20
-5.5192
 30
0.0
 10
10.2463
 20
-5.347
 30
0.0
 10
10.03
 20
-5.2606
 30
0.0
 10
9.7629
 20
-5.2606
 30
0.0
 10
9.7629
 20
-5.2606
 30
0.0
 10
8.9282
 20
-5.2606
 30
0.0
 10
8.9282
 20
-5.2606
 30
0.0
 10
8.861
 20
-5.2606
 30
0.0
 10
8.8099
 20
-5.2779
 30
0.0
 10
8.7755
 20
-5.3129
 30
0.0
 10
8.741
 20
-5.3477
 30
0.0
 10
8.7238
 20
-5.4011
 30
0.0
 10
8.7238
 20
-5.4723
 30
0.0
 10
8.7238
 20
-5.4723
 30
0.0
 10
8.7238
 20
-6.9237
 30
0.0
 10
8.7238
 20
-6.9237
 30
0.0
 10
8.7238
 20
-6.9237
 30
0.0
 10
9.0887
 20
-6.9237
 30
0.0
 10
9.0887
 20
-6.9237
 30
0.0
 10
9.2844
 20
-6.9237
 30
0.0
 10
9.4429
 20
-6.8565
 30
0.0
 10
9.5649
 20
-6.7225
 30
0.0
 10
9.6864
 20
-6.5885
 30
0.0
 10
9.7519
 20
-6.3828
 30
0.0
 10
9.7615
 20
-6.1058
 30
0.0
 10
9.7615
 20
-6.1058
 30
0.0
 10
9.9606
 20
-6.1058
 30
0.0
 10
9.9606
 20
-6.1058
 30
0.0
 10
9.9606
 20
-6.1058
 30
0.0
 10
9.9606
 20
-7.9922
 30
0.0
 10
9.9606
 20
-7.9922
 30
0.0
 10
9.9606
 20
-7.9922
 30
0.0
 10
9.7615
 20
-7.9922
 30
0.0
 10
9.7615
 20
-7.9922
 30
0.0
 10
9.7519
 20
-7.6799
 30
0.0
 10
9.6854
 20
-7.4563
 30
0.0
 10
9.5617
 20
-7.3215
 30
0.0
 10
9.4381
 20
-7.1867
 30
0.0
 10
9.27
 20
-7.1191
 30
0.0
 10
9.0573
 20
-7.1191
 30
0.0
 10
9.0573
 20
-7.1191
 30
0.0
 10
8.7238
 20
-7.1191
 30
0.0
 10
8.7238
 20
-7.1191
 30
0.0
 10
8.7238
 20
-7.1191
 30
0.0
 10
8.7238
 20
-8.7383
 30
0.0
 10
8.7238
 20
-8.7383
 30
0.0
 10
8.7238
 20
-8.7972
 30
0.0
 10
8.7442
 20
-8.842
 30
0.0
 10
8.7856
 20
-8.8734
 30
0.0
 10
8.8269
 20
-8.9045
 30
0.0
 10
8.8954
 20
-8.9203
 30
0.0
 10
8.9916
 20
-8.9203
 30
0.0
 10
8.9916
 20
-8.9203
 30
0.0
 10
9.651
 20
-8.9203
 30
0.0
 10
9.651
 20
-8.9203
 30
0.0
 10
10.3669
 20
-8.9203
 30
0.0
 10
10.7796
 20
-8.4829
 30
0.0
 10
10.8887
 20
-7.6094
 30
0.0
 10
10.8887
 20
-7.6094
 30
0.0
 10
11.0965
 20
-7.6094
 30
0.0
 10
11.0965
 20
-7.6094
 30
0.0
 10
11.0965
 20
-7.6094
 30
0.0
 10
11.0245
 20
-9.1267
 30
0.0
 10
11.0245
 20
-9.1267
 30
0.0
 10
11.0245
 20
-9.1267
 30
0.0
 10
7.5098
 20
-9.1267
 30
0.0
 10
7.5098
 20
-9.1267
 30
0.0
 10
7.5098
 20
-9.1267
 30
0.0
 10
7.5098
 20
-8.9203
 30
0.0
 10
7.5098
 20
-8.9203
 30
0.0
 10
7.5098
 20
-8.9203
 30
0.0
 10
7.8012
 20
-8.9203
 30
0.0
 10
7.8012
 20
-8.9203
 30
0.0
 10
7.9147
 20
-8.9203
 30
0.0
 10
7.9941
 20
-8.9013
 30
0.0
 10
8.0403
 20
-8.864
 30
0.0
 10
8.0865
 20
-8.8262
 30
0.0
 10
8.1096
 20
-8.7715
 30
0.0
 10
8.1096
 20
-8.6998
 30
0.0
 10
8.1096
 20
-8.6998
 30
0.0
 10
8.1096
 20
-5.4723
 30
0.0
 10
8.1096
 20
-5.4723
 30
0.0
 10
8.1096
 20
-5.4011
 30
0.0
 10
8.0893
 20
-5.3477
 30
0.0
 10
8.049
 20
-5.3129
 30
0.0
 10
8.0086
 20
-5.2779
 30
0.0
 10
7.9452
 20
-5.2606
 30
0.0
 10
7.8589
 20
-5.2606
 30
0.0
 10
7.8589
 20
-5.2606
 30
0.0
 10
7.5098
 20
-5.2606
 30
0.0
 10
7.5098
 20
-5.2606
 30
0.0
 10
7.5098
 20
-5.2606
 30
0.0
 10
7.5098
 20
-5.0541
 30
0.0
 10
7.5098
 20
-5.0541
 30
0.0
  0
SPLINE
  5
77
330
1F
100
AcDbEntity
  8
Layer 1
 62
   250
100
AcDbSpline
210
0.0
220
0.0
230
1.0
 70
    11
 71
     3
 72
    32
 73
    28
 74
     0
 42
0.0000000001
 43
0.0000000001
 40
0.0
 40
0.0
 40
0.0
 40
0.0
 40
0.1111111111111111
 40
0.1111111111111111
 40
0.1111111111111111
 40
0.2222222222222222
 40
0.2222222222222222
 40
0.2222222222222222
 40
0.3333333333333333
 40
0.3333333333333333
 40
0.3333333333333333
 40
0.4444444444444444
 40
0.4444444444444444
 40
0.4444444444444444
 40
0.5555555555555556
 40
0.5555555555555556
 40
0.5555555555555556
 40
0.6666666666666666
 40
0.6666666666666666
 40
0.6666666666666666
 40
0.7777777777777777
 40
0.7777777777777777
 40
0.7777777777777777
 40
0.8888888888888888
 40
0.8888888888888888
 40
0.8888888888888888
 40
1.0
 40
1.0
 40
1.0
 40
1.0
 10
13.3276
 20
-6.9264
 30
0.0
 10
13.3276
 20
-6.9264
 30
0.0
 10
13.8322
 20
-6.9264
 30
0.0
 10
13.8322
 20
-6.9264
 30
0.0
 10
14.1705
 20
-6.9264
 30
0.0
 10
14.4351
 20
-6.8654
 30
0.0
 10
14.6264
 20
-6.7437
 30
0.0
 10
14.8175
 20
-6.6216
 30
0.0
 10
14.9133
 20
-6.405
 30
0.0
 10
14.9133
 20
-6.0935
 30
0.0
 10
14.9133
 20
-5.879
 30
0.0
 10
14.8772
 20
-5.7093
 30
0.0
 10
14.8051
 20
-5.5852
 30
0.0
 10
14.7332
 20
-5.4603
 30
0.0
 10
14.6384
 20
-5.3753
 30
0.0
 10
14.5212
 20
-5.3294
 30
0.0
 10
14.4041
 20
-5.2835
 30
0.0
 10
14.1733
 20
-5.2606
 30
0.0
 10
13.8295
 20
-5.2606
 30
0.0
 10
13.6025
 20
-5.2606
 30
0.0
 10
13.4622
 20
-5.2758
 30
0.0
 10
13.4085
 20
-5.3061
 30
0.0
 10
13.3545
 20
-5.3362
 30
0.0
 10
13.3276
 20
-5.388
 30
0.0
 10
13.3276
 20
-5.461
 30
0.0
 10
13.3276
 20
-5.461
 30
0.0
 10
13.3276
 20
-6.9264
 30
0.0
 10
13.3276
 20
-6.9264
 30
0.0
  0
SPLINE
  5
78
330
1F
100
AcDbEntity
  8
Layer 1
 62
   250
100
AcDbSpline
210
0.0
220
0.0
230
1.0
 70
    11
 71
     3
 72
   116
 73
   112
 74
     0
 42
0.0000000001
 43
0.0000000001
 40
0.0
 40
0.0
 40
0.0
 40
0.0
 40
0.027027027027027
 40
0.027027027027027
 40
0.027027027027027
 40
0.0540540540540541
 40
0.0540540540540541
 40
0.0540540540540541
 40
0.0810810810810811
 40
0.0810810810810811
 40
0.0810810810810811
 40
0.1081081081081081
 40
0.1081081081081081
 40
0.1081081081081081
 40
0.1351351351351351
 40
0.1351351351351351
 40
0.1351351351351351
 40
0.1621621621621622
 40
0.1621621621621622
 40
0.1621621621621622
 40
0.1891891891891892
 40
0.1891891891891892
 40
0.1891891891891892
 40
0.2162162162162162
 40
0.2162162162162162
 40
0.2162162162162162
 40
0.2432432432432433
 40
0.2432432432432433
 40
0.2432432432432433
 40
0.2702702702702703
 40
0.2702702702702703
 40
0.2702702702702703
 40
0.2972972972972973
 40
0.2972972972972973
 40
0.2972972972972973
 40
0.3243243243243243
 40
0.3243243243243243
 40
0.3243243243243243
 40
0.3513513513513514
 40
0.3513513513513514
 40
0.3513513513513514
 40
0.3783783783783784
 40
0.3783783783783784
 40
0.3783783783783784
 40
0.4054054054054054
 40
0.4054054054054054
 40
0.4054054054054054
 40
0.4324324324324325
 40
0.4324324324324325
 40
0.4324324324324325
 40
0.4594594594594595
 40
0.4594594594594595
 40
0.4594594594594595
 40
0.4864864864864865
 40
0.4864864864864865
 40
0.4864864864864865
 40
0.5135135135135136
 40
0.5135135135135136
 40
0.5135135135135136
 40
0.5405405405405406
 40
0.5405405405405406
 40
0.5405405405405406
 40
0.5675675675675675
 40
0.5675675675675675
 40
0.5675675675675675
 40
0.5945945945945946
 40
0.5945945945945946
 40
0.5945945945945946
 40
0.6216216216216217
 40
0.6216216216216217
 40
0.6216216216216217
 40
0.6486486486486487
 40
0.6486486486486487
 40
0.6486486486486487
 40
0.6756756756756757
 40
0.6756756756756757
 40
0.6756756756756757
 40
0.7027027027027027
 40
0.7027027027027027
 40
0.7027027027027027
 40
0.7297297297297298
 40
0.7297297297297298
 40
0.7297297297297298
 40
0.7567567567567568
 40
0.7567567567567568
 40
0.7567567567567568
 40
0.7837837837837838
 40
0.7837837837837838
 40
0.7837837837837838
 40
0.8108108108108109
 40
0.8108108108108109
 40
0.8108108108108109
 40
0.8378378378378379
 40
0.8378378378378379
 40
0.8378378378378379
 40
0.8648648648648649
 40
0.8648648648648649
 40
0.8648648648648649
 40
0.8918918918918919
 40
0.8918918918918919
 40
0.8918918918918919
 40
0.918918918918919
 40
0.918918918918919
 40
0.918918918918919
 40
0.945945945945946
 40
0.945945945945946
 40
0.945945945945946
 40
0.972972972972973
 40
0.972972972972973
 40
0.972972972972973
 40
1.0
 40
1.0
 40
1.0
 40
1.0
 10
12.0274
 20
-5.0541
 30
0.0
 10
12.0274
 20
-5.0541
 30
0.0
 10
14.2302
 20
-5.0541
 30
0.0
 10
14.2302
 20
-5.0541
 30
0.0
 10
14.6567
 20
-5.0541
 30
0.0
 10
14.9877
 20
-5.1468
 30
0.0
 10
15.2233
 20
-5.3322
 30
0.0
 10
15.4587
 20
-5.5174
 30
0.0
 10
15.5765
 20
-5.7609
 30
0.0
 10
15.5765
 20
-6.0617
 30
0.0
 10
15.5765
 20
-6.2417
 30
0.0
 10
15.53
 20
-6.4018
 30
0.0
 10
15.4367
 20
-6.5422
 30
0.0
 10
15.3432
 20
-6.6827
 30
0.0
 10
15.2089
 20
-6.7946
 30
0.0
 10
15.0329
 20
-6.8784
 30
0.0
 10
14.8572
 20
-6.9617
 30
0.0
 10
14.5809
 20
-7.0221
 30
0.0
 10
14.204
 20
-7.0583
 30
0.0
 10
14.4782
 20
-7.1299
 30
0.0
 10
14.667
 20
-7.2005
 30
0.0
 10
14.7707
 20
-7.2693
 30
0.0
 10
14.874
 20
-7.3382
 30
0.0
 10
14.9571
 20
-7.4271
 30
0.0
 10
15.0194
 20
-7.5363
 30
0.0
 10
15.0818
 20
-7.6454
 30
0.0
 10
15.1538
 20
-7.868
 30
0.0
 10
15.2355
 20
-8.2039
 30
0.0
 10
15.2936
 20
-8.4447
 30
0.0
 10
15.3554
 20
-8.6089
 30
0.0
 10
15.4208
 20
-8.6971
 30
0.0
 10
15.4707
 20
-8.7647
 30
0.0
 10
15.5245
 20
-8.7989
 30
0.0
 10
15.5823
 20
-8.7989
 30
0.0
 10
15.6416
 20
-8.7989
 30
0.0
 10
15.6971
 20
-8.7573
 30
0.0
 10
15.7481
 20
-8.6733
 30
0.0
 10
15.7991
 20
-8.5901
 30
0.0
 10
15.8301
 20
-8.4427
 30
0.0
 10
15.8418
 20
-8.2317
 30
0.0
 10
15.8418
 20
-8.2317
 30
0.0
 10
16.0378
 20
-8.2317
 30
0.0
 10
16.0378
 20
-8.2317
 30
0.0
 10
16.0012
 20
-8.8558
 30
0.0
 10
15.7601
 20
-9.1679
 30
0.0
 10
15.314
 20
-9.1679
 30
0.0
 10
15.1737
 20
-9.1679
 30
0.0
 10
15.0522
 20
-9.1338
 30
0.0
 10
14.9495
 20
-9.066
 30
0.0
 10
14.8465
 20
-8.9979
 30
0.0
 10
14.7693
 20
-8.8981
 30
0.0
 10
14.7173
 20
-8.7658
 30
0.0
 10
14.677
 20
-8.6666
 30
0.0
 10
14.6319
 20
-8.407
 30
0.0
 10
14.5819
 20
-7.9866
 30
0.0
 10
14.5529
 20
-7.7424
 30
0.0
 10
14.5072
 20
-7.5692
 30
0.0
 10
14.4448
 20
-7.4662
 30
0.0
 10
14.3825
 20
-7.3635
 30
0.0
 10
14.2849
 20
-7.2806
 30
0.0
 10
14.1523
 20
-7.2181
 30
0.0
 10
14.0196
 20
-7.1562
 30
0.0
 10
13.8612
 20
-7.1247
 30
0.0
 10
13.6765
 20
-7.1247
 30
0.0
 10
13.6765
 20
-7.1247
 30
0.0
 10
13.3276
 20
-7.1247
 30
0.0
 10
13.3276
 20
-7.1247
 30
0.0
 10
13.3276
 20
-7.1247
 30
0.0
 10
13.3276
 20
-8.7245
 30
0.0
 10
13.3276
 20
-8.7245
 30
0.0
 10
13.3276
 20
-8.7923
 30
0.0
 10
13.3458
 20
-8.8402
 30
0.0
 10
13.3823
 20
-8.8678
 30
0.0
 10
13.4284
 20
-8.9027
 30
0.0
 10
13.5005
 20
-8.9203
 30
0.0
 10
13.5987
 20
-8.9203
 30
0.0
 10
13.5987
 20
-8.9203
 30
0.0
 10
14.0079
 20
-8.9203
 30
0.0
 10
14.0079
 20
-8.9203
 30
0.0
 10
14.0079
 20
-8.9203
 30
0.0
 10
14.0079
 20
-9.1267
 30
0.0
 10
14.0079
 20
-9.1267
 30
0.0
 10
14.0079
 20
-9.1267
 30
0.0
 10
12.0274
 20
-9.1267
 30
0.0
 10
12.0274
 20
-9.1267
 30
0.0
 10
12.0274
 20
-9.1267
 30
0.0
 10
12.0274
 20
-8.9203
 30
0.0
 10
12.0274
 20
-8.9203
 30
0.0
 10
12.0274
 20
-8.9203
 30
0.0
 10
12.4456
 20
-8.9203
 30
0.0
 10
12.4456
 20
-8.9203
 30
0.0
 10
12.5376
 20
-8.9203
 30
0.0
 10
12.6055
 20
-8.9027
 30
0.0
 10
12.6489
 20
-8.8678
 30
0.0
 10
12.6919
 20
-8.8332
 30
0.0
 10
12.7137
 20
-8.7852
 30
0.0
 10
12.7137
 20
-8.7245
 30
0.0
 10
12.7137
 20
-8.7245
 30
0.0
 10
12.7137
 20
-5.4694
 30
0.0
 10
12.7137
 20
-5.4694
 30
0.0
 10
12.7137
 20
-5.4
 30
0.0
 10
12.6916
 20
-5.3477
 30
0.0
 10
12.6471
 20
-5.3129
 30
0.0
 10
12.603
 20
-5.2779
 30
0.0
 10
12.5359
 20
-5.2606
 30
0.0
 10
12.4456
 20
-5.2606
 30
0.0
 10
12.4456
 20
-5.2606
 30
0.0
 10
12.0274
 20
-5.2606
 30
0.0
 10
12.0274
 20
-5.2606
 30
0.0
 10
12.0274
 20
-5.2606
 30
0.0
 10
12.0274
 20
-5.0541
 30
0.0
 10
12.0274
 20
-5.0541
 30
0.0
  0
SPLINE
  5
79
330
1F
100
AcDbEntity
  8
Layer 1
 62
   250
370
    25
100
AcDbSpline
210
0.0
220
0.0
230
1.0
 70
    11
 71
     3
 72
    29
 73
    25
 74
     0
 42
0.0000000001
 43
0.0000000001
 40
0.0
 40
0.0
 40
0.0
 40
0.0
 40
0.125
 40
0.125
 40
0.125
 40
0.25
 40
0.25
 40
0.25
 40
0.375
 40
0.375
 40
0.375
 40
0.5
 40
0.5
 40
0.5
 40
0.625
 40
0.625
 40
0.625
 40
0.75
 40
0.75
 40
0.75
 40
0.875
 40
0.875
 40
0.875
 40
1.0
 40
1.0
 40
1.0
 40
1.0
 10
-13.8504
 20
-15.3727
 30
0.0
 10
-13.8504
 20
-15.3727
 30
0.0
 10
-16.3716
 20
-15.3727
 30
0.0
 10
-16.3716
 20
-15.3727
 30
0.0
 10
-16.713
 20
-15.3727
 30
0.0
 10
-16.9897
 20
-15.096
 30
0.0
 10
-16.9897
 20
-14.7545
 30
0.0
 10
-16.9897
 20
-14.7545
 30
0.0
 10
-16.9897
 20
-12.216
 30
0.0
 10
-16.9897
 20
-12.216
 30
0.0
 10
-16.9897
 20
-11.8748
 30
0.0
 10
-16.713
 20
-11.598
 30
0.0
 10
-16.3716
 20
-11.598
 30
0.0
 10
-16.3716
 20
-11.598
 30
0.0
 10
-13.8504
 20
-11.598
 30
0.0
 10
-13.8504
 20
-11.598
 30
0.0
 10
-13.5088
 20
-11.598
 30
0.0
 10
-13.232
 20
-11.8748
 30
0.0
 10
-13.232
 20
-12.216
 30
0.0
 10
-13.232
 20
-12.216
 30
0.0
 10
-13.232
 20
-14.7545
 30
0.0
 10
-13.232
 20
-14.7545
 30
0.0
 10
-13.232
 20
-15.096
 30
0.0
 10
-13.5088
 20
-15.3727
 30
0.0
 10
-13.8504
 20
-15.3727
 30
0.0
  0
SPLINE
  5
7A
330
1F
100
AcDbEntity
  8
Layer 1
 62
   250
370
    25
100
AcDbSpline
210
0.0
220
0.0
230
1.0
 70
    11
 71
     3
 72
    17
 73
    13
 74
     0
 42
0.0000000001
 43
0.0000000001
 40
0.0
 40
0.0
 40
0.0
 40
0.0
 40
0.25
 40
0.25
 40
0.25
 40
0.5
 40
0.5
 40
0.5
 40
0.75
 40
0.75
 40
0.75
 40
1.0
 40
1.0
 40
1.0
 40
1.0
 10
-14.2222
 20
-13.6179
 30
0.0
 10
-14.2222
 20
-14.0921
 30
0.0
 10
-14.6201
 20
-14.4763
 30
0.0
 10
-15.1109
 20
-14.4763
 30
0.0
 10
-15.6016
 20
-14.4763
 30
0.0
 10
-15.9996
 20
-14.0921
 30
0.0
 10
-15.9996
 20
-13.6179
 30
0.0
 10
-15.9996
 20
-13.1437
 30
0.0
 10
-15.6016
 20
-12.7596
 30
0.0
 10
-15.1109
 20
-12.7596
 30
0.0
 10
-14.6201
 20
-12.7596
 30
0.0
 10
-14.2222
 20
-13.1437
 30
0.0
 10
-14.2222
 20
-13.6179
 30
0.0
  0
SPLINE
  5
7B
330
1F
100
AcDbEntity
  8
Layer 1
 62
   250
100
AcDbSpline
210
0.0
220
0.0
230
1.0
 70
    11
 71
     3
 72
    17
 73
    13
 74
     0
 42
0.0000000001
 43
0.0000000001
 40
0.0
 40
0.0
 40
0.0
 40
0.0
 40
0.25
 40
0.25
 40
0.25
 40
0.5
 40
0.5
 40
0.5
 40
0.75
 40
0.75
 40
0.75
 40
1.0
 40
1.0
 40
1.0
 40
1.0
 10
-13.6705
 20
-12.3395
 30
0.0
 10
-13.6705
 20
-12.4298
 30
0.0
 10
-13.7463
 20
-12.5031
 30
0.0
 10
-13.8398
 20
-12.5031
 30
0.0
 10
-13.9332
 20
-12.5031
 30
0.0
 10
-14.0091
 20
-12.4298
 30
0.0
 10
-14.0091
 20
-12.3395
 30
0.0
 10
-14.0091
 20
-12.2491
 30
0.0
 10
-13.9332
 20
-12.1758
 30
0.0
 10
-13.8398
 20
-12.1758
 30
0.0
 10
-13.7463
 20
-12.1758
 30
0.0
 10
-13.6705
 20
-12.2491
 30
0.0
 10
-13.6705
 20
-12.3395
 30
0.0
  0
SPLINE
  5
7C
330
1F
100
AcDbEntity
  8
Layer 1
 62
   250
370
    25
100
AcDbSpline
210
0.0
220
0.0
230
1.0
 70
    11
 71
     3
 72
    17
 73
    13
 74
     0
 42
0.0000000001
 43
0.0000000001
 40
0.0
 40
0.0
 40
0.0
 40
0.0
 40
0.25
 40
0.25
 40
0.25
 40
0.5
 40
0.5
 40
0.5
 40
0.75
 40
0.75
 40
0.75
 40
1.0
 40
1.0
 40
1.0
 40
1.0
 10
-13.6705
 20
-12.3395
 30
0.0
 10
-13.6705
 20
-12.4298
 30
0.0
 10
-13.7463
 20
-12.5031
 30
0.0
 10
-13.8398
 20
-12.5031
 30
0.0
 10
-13.9332
 20
-12.5031
 30
0.0
 10
-14.0091
 20
-12.4298
 30
0.0
 10
-14.0091
 20
-12.3395
 30
0.0
 10
-14.0091
 20
-12.2491
 30
0.0
 10
-13.9332
 20
-12.1758
 30
0.0
 10
-13.8398
 20
-12.1758
 30
0.0
 10
-13.7463
 20
-12.1758
 30
0.0
 10
-13.6705
 20
-12.2491
 30
0.0
 10
-13.6705
 20
-12.3395
 30
0.0
  0
SPLINE
  5
7D
330
1F
100
AcDbEntity
  8
Layer 1
 62
   250
100
AcDbSpline
210
0.0
220
0.0
230
1.0
 70
    11
 71
     3
 72
    23
 73
    19
 74
     0
 42
0.0000000001
 43
0.0000000001
 40
0.0
 40
0.0
 40
0.0
 40
0.0
 40
0.1666666666666667
 40
0.1666666666666667
 40
0.1666666666666667
 40
0.3333333333333333
 40
0.3333333333333333
 40
0.3333333333333333
 40
0.5
 40
0.5
 40
0.5
 40
0.6666666666666666
 40
0.6666666666666666
 40
0.6666666666666666
 40
0.8333333333333333
 40
0.8333333333333333
 40
0.8333333333333333
 40
1.0
 40
1.0
 40
1.0
 40
1.0
 10
-12.2367
 20
-11.9908
 30
0.0
 10
-12.2367
 20
-11.9908
 30
0.0
 10
-11.0689
 20
-11.9908
 30
0.0
 10
-11.0689
 20
-11.9908
 30
0.0
 10
-11.0689
 20
-11.9908
 30
0.0
 10
-11.0689
 20
-12.1521
 30
0.0
 10
-11.0689
 20
-12.1521
 30
0.0
 10
-11.0689
 20
-12.1521
 30
0.0
 10
-11.5924
 20
-12.2124
 30
0.0
 10
-11.5924
 20
-12.2124
 30
0.0
 10
-11.5924
 20
-12.2124
 30
0.0
 10
-11.6728
 20
-12.2124
 30
0.0
 10
-11.6728
 20
-12.2124
 30
0.0
 10
-11.6728
 20
-12.2124
 30
0.0
 10
-12.2367
 20
-12.1521
 30
0.0
 10
-12.2367
 20
-12.1521
 30
0.0
 10
-12.2367
 20
-12.1521
 30
0.0
 10
-12.2367
 20
-11.9908
 30
0.0
 10
-12.2367
 20
-11.9908
 30
0.0
  0
SPLINE
  5
7E
330
1F
100
AcDbEntity
  8
Layer 1
 62
   250
100
AcDbSpline
210
0.0
220
0.0
230
1.0
 70
    11
 71
     3
 72
    47
 73
    43
 74
     0
 42
0.0000000001
 43
0.0000000001
 40
0.0
 40
0.0
 40
0.0
 40
0.0
 40
0.0714285714285714
 40
0.0714285714285714
 40
0.0714285714285714
 40
0.1428571428571428
 40
0.1428571428571428
 40
0.1428571428571428
 40
0.2142857142857143
 40
0.2142857142857143
 40
0.2142857142857143
 40
0.2857142857142857
 40
0.2857142857142857
 40
0.2857142857142857
 40
0.3571428571428571
 40
0.3571428571428571
 40
0.3571428571428571
 40
0.4285714285714285
 40
0.4285714285714285
 40
0.4285714285714285
 40
0.5
 40
0.5
 40
0.5
 40
0.5714285714285714
 40
0.5714285714285714
 40
0.5714285714285714
 40
0.6428571428571428
 40
0.6428571428571428
 40
0.6428571428571428
 40
0.7142857142857142
 40
0.7142857142857142
 40
0.7142857142857142
 40
0.7857142857142857
 40
0.7857142857142857
 40
0.7857142857142857
 40
0.8571428571428571
 40
0.8571428571428571
 40
0.8571428571428571
 40
0.9285714285714285
 40
0.9285714285714285
 40
0.9285714285714285
 40
1.0
 40
1.0
 40
1.0
 40
1.0
 10
-11.4395
 20
-11.9908
 30
0.0
 10
-11.4515
 20
-12.3977
 30
0.0
 10
-11.4515
 20
-12.8164
 30
0.0
 10
-11.4515
 20
-13.2394
 30
0.0
 10
-11.4515
 20
-13.2394
 30
0.0
 10
-11.4515
 20
-13.8793
 30
0.0
 10
-11.4515
 20
-13.8793
 30
0.0
 10
-11.4515
 20
-14.3305
 30
0.0
 10
-11.4596
 20
-14.5358
 30
0.0
 10
-11.4997
 20
-14.7411
 30
0.0
 10
-11.5763
 20
-15.1437
 30
0.0
 10
-11.9145
 20
-15.3408
 30
0.0
 10
-12.2487
 20
-15.3408
 30
0.0
 10
-12.3976
 20
-15.3408
 30
0.0
 10
-12.5547
 20
-15.301
 30
0.0
 10
-12.591
 20
-15.1475
 30
0.0
 10
-12.5669
 20
-15.003
 30
0.0
 10
-12.4741
 20
-14.9542
 30
0.0
 10
-12.3494
 20
-14.9542
 30
0.0
 10
-12.2487
 20
-14.9542
 30
0.0
 10
-12.1641
 20
-14.9867
 30
0.0
 10
-12.0515
 20
-15.071
 30
0.0
 10
-12.0515
 20
-15.071
 30
0.0
 10
-11.9185
 20
-15.1719
 30
0.0
 10
-11.9185
 20
-15.1719
 30
0.0
 10
-11.9185
 20
-15.1719
 30
0.0
 10
-11.9507
 20
-15.216
 30
0.0
 10
-11.9507
 20
-15.216
 30
0.0
 10
-11.9507
 20
-15.216
 30
0.0
 10
-11.9829
 20
-15.2203
 30
0.0
 10
-11.9829
 20
-15.2203
 30
0.0
 10
-11.9829
 20
-15.2203
 30
0.0
 10
-11.991
 20
-15.1878
 30
0.0
 10
-11.991
 20
-15.1878
 30
0.0
 10
-11.838
 20
-15.071
 30
0.0
 10
-11.7856
 20
-14.9221
 30
0.0
 10
-11.7856
 20
-14.6688
 30
0.0
 10
-11.7856
 20
-14.4268
 30
0.0
 10
-11.8058
 20
-14.0084
 30
0.0
 10
-11.826
 20
-11.9908
 30
0.0
 10
-11.826
 20
-11.9908
 30
0.0
 10
-11.4395
 20
-11.9908
 30
0.0
 10
-11.4395
 20
-11.9908
 30
0.0
  0
SPLINE
  5
7F
330
1F
100
AcDbEntity
  8
Layer 1
 62
   250
100
AcDbSpline
210
0.0
220
0.0
230
1.0
 70
    11
 71
     3
 72
    47
 73
    43
 74
     0
 42
0.0000000001
 43
0.0000000001
 40
0.0
 40
0.0
 40
0.0
 40
0.0
 40
0.0714285714285714
 40
0.0714285714285714
 40
0.0714285714285714
 40
0.1428571428571428
 40
0.1428571428571428
 40
0.1428571428571428
 40
0.2142857142857143
 40
0.2142857142857143
 40
0.2142857142857143
 40
0.2857142857142857
 40
0.2857142857142857
 40
0.2857142857142857
 40
0.3571428571428571
 40
0.3571428571428571
 40
0.3571428571428571
 40
0.4285714285714285
 40
0.4285714285714285
 40
0.4285714285714285
 40
0.5
 40
0.5
 40
0.5
 40
0.5714285714285714
 40
0.5714285714285714
 40
0.5714285714285714
 40
0.6428571428571428
 40
0.6428571428571428
 40
0.6428571428571428
 40
0.7142857142857142
 40
0.7142857142857142
 40
0.7142857142857142
 40
0.7857142857142857
 40
0.7857142857142857
 40
0.7857142857142857
 40
0.8571428571428571
 40
0.8571428571428571
 40
0.8571428571428571
 40
0.9285714285714285
 40
0.9285714285714285
 40
0.9285714285714285
 40
1.0
 40
1.0
 40
1.0
 40
1.0
 10
-9.1598
 20
-13.4969
 30
0.0
 10
-9.1598
 20
-13.5894
 30
0.0
 10
-9.1719
 20
-13.6701
 30
0.0
 10
-9.1879
 20
-13.7223
 30
0.0
 10
-9.1879
 20
-13.7223
 30
0.0
 10
-10.6737
 20
-13.7223
 30
0.0
 10
-10.6737
 20
-13.7223
 30
0.0
 10
-10.6737
 20
-13.7223
 30
0.0
 10
-10.6737
 20
-13.553
 30
0.0
 10
-10.6737
 20
-13.553
 30
0.0
 10
-10.6737
 20
-13.553
 30
0.0
 10
-9.7155
 20
-13.553
 30
0.0
 10
-9.7155
 20
-13.553
 30
0.0
 10
-9.5222
 20
-13.553
 30
0.0
 10
-9.478
 20
-13.4605
 30
0.0
 10
-9.478
 20
-13.3477
 30
0.0
 10
-9.478
 20
-13.1183
 30
0.0
 10
-9.6712
 20
-12.9088
 30
0.0
 10
-9.9247
 20
-12.9088
 30
0.0
 10
-10.1824
 20
-12.9088
 30
0.0
 10
-10.4805
 20
-13.1265
 30
0.0
 10
-10.4805
 20
-13.7022
 30
0.0
 10
-10.4805
 20
-14.2138
 30
0.0
 10
-10.2228
 20
-14.4874
 30
0.0
 10
-9.82
 20
-14.4874
 30
0.0
 10
-9.5623
 20
-14.4874
 30
0.0
 10
-9.4014
 20
-14.3707
 30
0.0
 10
-9.2564
 20
-14.2014
 30
0.0
 10
-9.2564
 20
-14.2014
 30
0.0
 10
-9.1638
 20
-14.2737
 30
0.0
 10
-9.1638
 20
-14.2737
 30
0.0
 10
-9.3088
 20
-14.5598
 30
0.0
 10
-9.5665
 20
-14.7411
 30
0.0
 10
-9.9329
 20
-14.7411
 30
0.0
 10
-10.4724
 20
-14.7411
 30
0.0
 10
-10.8228
 20
-14.3664
 30
0.0
 10
-10.8228
 20
-13.7547
 30
0.0
 10
-10.8228
 20
-13.1385
 30
0.0
 10
-10.404
 20
-12.7278
 30
0.0
 10
-9.9046
 20
-12.7278
 30
0.0
 10
-9.49
 20
-12.7278
 30
0.0
 10
-9.1598
 20
-13.0094
 30
0.0
 10
-9.1598
 20
-13.4969
 30
0.0
  0
SPLINE
  5
80
330
1F
100
AcDbEntity
  8
Layer 1
 62
   250
100
AcDbSpline
210
0.0
220
0.0
230
1.0
 70
    11
 71
     3
 72
    23
 73
    19
 74
     0
 42
0.0000000001
 43
0.0000000001
 40
0.0
 40
0.0
 40
0.0
 40
0.0
 40
0.1666666666666667
 40
0.1666666666666667
 40
0.1666666666666667
 40
0.3333333333333333
 40
0.3333333333333333
 40
0.3333333333333333
 40
0.5
 40
0.5
 40
0.5
 40
0.6666666666666666
 40
0.6666666666666666
 40
0.6666666666666666
 40
0.8333333333333333
 40
0.8333333333333333
 40
0.8333333333333333
 40
1.0
 40
1.0
 40
1.0
 40
1.0
 10
-6.3325
 20
-13.0016
 30
0.0
 10
-6.3325
 20
-13.0016
 30
0.0
 10
-6.7069
 20
-12.9331
 30
0.0
 10
-6.7069
 20
-12.9331
 30
0.0
 10
-6.7069
 20
-12.9331
 30
0.0
 10
-6.7069
 20
-12.7801
 30
0.0
 10
-6.7069
 20
-12.7801
 30
0.0
 10
-6.7069
 20
-12.7801
 30
0.0
 10
-5.97
 20
-12.7801
 30
0.0
 10
-5.97
 20
-12.7801
 30
0.0
 10
-5.97
 20
-12.7801
 30
0.0
 10
-5.97
 20
-12.9331
 30
0.0
 10
-5.97
 20
-12.9331
 30
0.0
 10
-5.97
 20
-12.9331
 30
0.0
 10
-6.2519
 20
-13.0016
 30
0.0
 10
-6.2519
 20
-13.0016
 30
0.0
 10
-6.2519
 20
-13.0016
 30
0.0
 10
-6.3325
 20
-13.0016
 30
0.0
 10
-6.3325
 20
-13.0016
 30
0.0
  0
SPLINE
  5
81
330
1F
100
AcDbEntity
  8
Layer 1
 62
   250
100
AcDbSpline
210
0.0
220
0.0
230
1.0
 70
    11
 71
     3
 72
    23
 73
    19
 74
     0
 42
0.0000000001
 43
0.0000000001
 40
0.0
 40
0.0
 40
0.0
 40
0.0
 40
0.1666666666666667
 40
0.1666666666666667
 40
0.1666666666666667
 40
0.3333333333333333
 40
0.3333333333333333
 40
0.3333333333333333
 40
0.5
 40
0.5
 40
0.5
 40
0.6666666666666666
 40
0.6666666666666666
 40
0.6666666666666666
 40
0.8333333333333333
 40
0.8333333333333333
 40
0.8333333333333333
 40
1.0
 40
1.0
 40
1.0
 40
1.0
 10
-7.8301
 20
-12.9331
 30
0.0
 10
-7.8301
 20
-12.9331
 30
0.0
 10
-7.8301
 20
-12.7801
 30
0.0
 10
-7.8301
 20
-12.7801
 30
0.0
 10
-7.8301
 20
-12.7801
 30
0.0
 10
-6.9445
 20
-12.7801
 30
0.0
 10
-6.9445
 20
-12.7801
 30
0.0
 10
-6.9445
 20
-12.7801
 30
0.0
 10
-6.9445
 20
-12.9331
 30
0.0
 10
-6.9445
 20
-12.9331
 30
0.0
 10
-6.9445
 20
-12.9331
 30
0.0
 10
-7.3269
 20
-13.0016
 30
0.0
 10
-7.3269
 20
-13.0016
 30
0.0
 10
-7.3269
 20
-13.0016
 30
0.0
 10
-7.4075
 20
-13.0016
 30
0.0
 10
-7.4075
 20
-13.0016
 30
0.0
 10
-7.4075
 20
-13.0016
 30
0.0
 10
-7.8301
 20
-12.9331
 30
0.0
 10
-7.8301
 20
-12.9331
 30
0.0
  0
SPLINE
  5
82
330
1F
100
AcDbEntity
  8
Layer 1
 62
   250
100
AcDbSpline
210
0.0
220
0.0
230
1.0
 70
    11
 71
     3
 72
    53
 73
    49
 74
     0
 42
0.0000000001
 43
0.0000000001
 40
0.0
 40
0.0
 40
0.0
 40
0.0
 40
0.0625
 40
0.0625
 40
0.0625
 40
0.125
 40
0.125
 40
0.125
 40
0.1875
 40
0.1875
 40
0.1875
 40
0.25
 40
0.25
 40
0.25
 40
0.3125
 40
0.3125
 40
0.3125
 40
0.375
 40
0.375
 40
0.375
 40
0.4375
 40
0.4375
 40
0.4375
 40
0.5
 40
0.5
 40
0.5
 40
0.5625
 40
0.5625
 40
0.5625
 40
0.625
 40
0.625
 40
0.625
 40
0.6875
 40
0.6875
 40
0.6875
 40
0.75
 40
0.75
 40
0.75
 40
0.8125
 40
0.8125
 40
0.8125
 40
0.875
 40
0.875
 40
0.875
 40
0.9375
 40
0.9375
 40
0.9375
 40
1.0
 40
1.0
 40
1.0
 40
1.0
 10
-7.331
 20
-12.7801
 30
0.0
 10
-7.331
 20
-12.7801
 30
0.0
 10
-6.735
 20
-14.3544
 30
0.0
 10
-6.735
 20
-14.3544
 30
0.0
 10
-6.735
 20
-14.3544
 30
0.0
 10
-6.8235
 20
-14.3544
 30
0.0
 10
-6.8235
 20
-14.3544
 30
0.0
 10
-6.8235
 20
-14.3544
 30
0.0
 10
-6.3405
 20
-12.7801
 30
0.0
 10
-6.3405
 20
-12.7801
 30
0.0
 10
-6.3405
 20
-12.7801
 30
0.0
 10
-6.1149
 20
-12.7801
 30
0.0
 10
-6.1149
 20
-12.7801
 30
0.0
 10
-6.1149
 20
-12.7801
 30
0.0
 10
-6.7714
 20
-14.7129
 30
0.0
 10
-6.7714
 20
-14.7129
 30
0.0
 10
-6.7714
 20
-14.7129
 30
0.0
 10
-6.9122
 20
-14.7129
 30
0.0
 10
-6.9122
 20
-14.7129
 30
0.0
 10
-7.3028
 20
-13.7146
 30
0.0
 10
-7.4075
 20
-13.3883
 30
0.0
 10
-7.5081
 20
-13.07
 30
0.0
 10
-7.5081
 20
-13.07
 30
0.0
 10
-7.3633
 20
-13.07
 30
0.0
 10
-7.3633
 20
-13.07
 30
0.0
 10
-7.3633
 20
-13.07
 30
0.0
 10
-7.9752
 20
-14.7129
 30
0.0
 10
-7.9752
 20
-14.7129
 30
0.0
 10
-7.9752
 20
-14.7129
 30
0.0
 10
-8.1161
 20
-14.7129
 30
0.0
 10
-8.1161
 20
-14.7129
 30
0.0
 10
-8.1161
 20
-14.7129
 30
0.0
 10
-8.8368
 20
-12.7801
 30
0.0
 10
-8.8368
 20
-12.7801
 30
0.0
 10
-8.8368
 20
-12.7801
 30
0.0
 10
-8.4744
 20
-12.7801
 30
0.0
 10
-8.4744
 20
-12.7801
 30
0.0
 10
-8.4744
 20
-12.7801
 30
0.0
 10
-7.9389
 20
-14.3544
 30
0.0
 10
-7.9389
 20
-14.3544
 30
0.0
 10
-7.9389
 20
-14.3544
 30
0.0
 10
-8.0276
 20
-14.3544
 30
0.0
 10
-8.0276
 20
-14.3544
 30
0.0
 10
-8.0276
 20
-14.3544
 30
0.0
 10
-7.4517
 20
-12.7801
 30
0.0
 10
-7.4517
 20
-12.7801
 30
0.0
 10
-7.4517
 20
-12.7801
 30
0.0
 10
-7.331
 20
-12.7801
 30
0.0
 10
-7.331
 20
-12.7801
 30
0.0
  0
SPLINE
  5
83
330
1F
100
AcDbEntity
  8
Layer 1
 62
   250
100
AcDbSpline
210
0.0
220
0.0
230
1.0
 70
    11
 71
     3
 72
    23
 73
    19
 74
     0
 42
0.0000000001
 43
0.0000000001
 40
0.0
 40
0.0
 40
0.0
 40
0.0
 40
0.1666666666666667
 40
0.1666666666666667
 40
0.1666666666666667
 40
0.3333333333333333
 40
0.3333333333333333
 40
0.3333333333333333
 40
0.5
 40
0.5
 40
0.5
 40
0.6666666666666666
 40
0.6666666666666666
 40
0.6666666666666666
 40
0.8333333333333333
 40
0.8333333333333333
 40
0.8333333333333333
 40
1.0
 40
1.0
 40
1.0
 40
1.0
 10
-8.6032
 20
-13.0016
 30
0.0
 10
-8.6032
 20
-13.0016
 30
0.0
 10
-8.9979
 20
-12.9331
 30
0.0
 10
-8.9979
 20
-12.9331
 30
0.0
 10
-8.9979
 20
-12.9331
 30
0.0
 10
-8.9979
 20
-12.7801
 30
0.0
 10
-8.9979
 20
-12.7801
 30
0.0
 10
-8.9979
 20
-12.7801
 30
0.0
 10
-8.0878
 20
-12.7801
 30
0.0
 10
-8.0878
 20
-12.7801
 30
0.0
 10
-8.0878
 20
-12.7801
 30
0.0
 10
-8.0878
 20
-12.9331
 30
0.0
 10
-8.0878
 20
-12.9331
 30
0.0
 10
-8.0878
 20
-12.9331
 30
0.0
 10
-8.5229
 20
-13.0016
 30
0.0
 10
-8.5229
 20
-13.0016
 30
0.0
 10
-8.5229
 20
-13.0016
 30
0.0
 10
-8.6032
 20
-13.0016
 30
0.0
 10
-8.6032
 20
-13.0016
 30
0.0
  0
SPLINE
  5
84
330
1F
100
AcDbEntity
  8
Layer 1
 62
   250
100
AcDbSpline
210
0.0
220
0.0
230
1.0
 70
    11
 71
     3
 72
    47
 73
    43
 74
     0
 42
0.0000000001
 43
0.0000000001
 40
0.0
 40
0.0
 40
0.0
 40
0.0
 40
0.0714285714285714
 40
0.0714285714285714
 40
0.0714285714285714
 40
0.1428571428571428
 40
0.1428571428571428
 40
0.1428571428571428
 40
0.2142857142857143
 40
0.2142857142857143
 40
0.2142857142857143
 40
0.2857142857142857
 40
0.2857142857142857
 40
0.2857142857142857
 40
0.3571428571428571
 40
0.3571428571428571
 40
0.3571428571428571
 40
0.4285714285714285
 40
0.4285714285714285
 40
0.4285714285714285
 40
0.5
 40
0.5
 40
0.5
 40
0.5714285714285714
 40
0.5714285714285714
 40
0.5714285714285714
 40
0.6428571428571428
 40
0.6428571428571428
 40
0.6428571428571428
 40
0.7142857142857142
 40
0.7142857142857142
 40
0.7142857142857142
 40
0.7857142857142857
 40
0.7857142857142857
 40
0.7857142857142857
 40
0.8571428571428571
 40
0.8571428571428571
 40
0.8571428571428571
 40
0.9285714285714285
 40
0.9285714285714285
 40
0.9285714285714285
 40
1.0
 40
1.0
 40
1.0
 40
1.0
 10
-4.161
 20
-13.4969
 30
0.0
 10
-4.161
 20
-13.5894
 30
0.0
 10
-4.173
 20
-13.6701
 30
0.0
 10
-4.1891
 20
-13.7223
 30
0.0
 10
-4.1891
 20
-13.7223
 30
0.0
 10
-5.6749
 20
-13.7223
 30
0.0
 10
-5.6749
 20
-13.7223
 30
0.0
 10
-5.6749
 20
-13.7223
 30
0.0
 10
-5.6749
 20
-13.553
 30
0.0
 10
-5.6749
 20
-13.553
 30
0.0
 10
-5.6749
 20
-13.553
 30
0.0
 10
-4.7167
 20
-13.553
 30
0.0
 10
-4.7167
 20
-13.553
 30
0.0
 10
-4.5234
 20
-13.553
 30
0.0
 10
-4.4792
 20
-13.4605
 30
0.0
 10
-4.4792
 20
-13.3477
 30
0.0
 10
-4.4792
 20
-13.1183
 30
0.0
 10
-4.6723
 20
-12.9088
 30
0.0
 10
-4.9259
 20
-12.9088
 30
0.0
 10
-5.1836
 20
-12.9088
 30
0.0
 10
-5.4817
 20
-13.1265
 30
0.0
 10
-5.4817
 20
-13.7022
 30
0.0
 10
-5.4817
 20
-14.2138
 30
0.0
 10
-5.224
 20
-14.4874
 30
0.0
 10
-4.8212
 20
-14.4874
 30
0.0
 10
-4.5635
 20
-14.4874
 30
0.0
 10
-4.4025
 20
-14.3707
 30
0.0
 10
-4.2575
 20
-14.2014
 30
0.0
 10
-4.2575
 20
-14.2014
 30
0.0
 10
-4.1649
 20
-14.2737
 30
0.0
 10
-4.1649
 20
-14.2737
 30
0.0
 10
-4.3099
 20
-14.5598
 30
0.0
 10
-4.5676
 20
-14.7411
 30
0.0
 10
-4.934
 20
-14.7411
 30
0.0
 10
-5.4735
 20
-14.7411
 30
0.0
 10
-5.824
 20
-14.3664
 30
0.0
 10
-5.824
 20
-13.7547
 30
0.0
 10
-5.824
 20
-13.1385
 30
0.0
 10
-5.4052
 20
-12.7278
 30
0.0
 10
-4.9058
 20
-12.7278
 30
0.0
 10
-4.4912
 20
-12.7278
 30
0.0
 10
-4.161
 20
-13.0094
 30
0.0
 10
-4.161
 20
-13.4969
 30
0.0
  0
SPLINE
  5
85
330
1F
100
AcDbEntity
  8
Layer 1
 62
   250
100
AcDbSpline
210
0.0
220
0.0
230
1.0
 70
    11
 71
     3
 72
    23
 73
    19
 74
     0
 42
0.0000000001
 43
0.0000000001
 40
0.0
 40
0.0
 40
0.0
 40
0.0
 40
0.1666666666666667
 40
0.1666666666666667
 40
0.1666666666666667
 40
0.3333333333333333
 40
0.3333333333333333
 40
0.3333333333333333
 40
0.5
 40
0.5
 40
0.5
 40
0.6666666666666666
 40
0.6666666666666666
 40
0.6666666666666666
 40
0.8333333333333333
 40
0.8333333333333333
 40
0.8333333333333333
 40
1.0
 40
1.0
 40
1.0
 40
1.0
 10
-2.9078
 20
-14.5478
 30
0.0
 10
-2.9078
 20
-14.5478
 30
0.0
 10
-2.9078
 20
-14.6886
 30
0.0
 10
-2.9078
 20
-14.6886
 30
0.0
 10
-2.9078
 20
-14.6886
 30
0.0
 10
-3.8985
 20
-14.6886
 30
0.0
 10
-3.8985
 20
-14.6886
 30
0.0
 10
-3.8985
 20
-14.6886
 30
0.0
 10
-3.8985
 20
-14.5478
 30
0.0
 10
-3.8985
 20
-14.5478
 30
0.0
 10
-3.8985
 20
-14.5478
 30
0.0
 10
-3.4434
 20
-14.4671
 30
0.0
 10
-3.4434
 20
-14.4671
 30
0.0
 10
-3.4434
 20
-14.4671
 30
0.0
 10
-3.3629
 20
-14.4671
 30
0.0
 10
-3.3629
 20
-14.4671
 30
0.0
 10
-3.3629
 20
-14.4671
 30
0.0
 10
-2.9078
 20
-14.5478
 30
0.0
 10
-2.9078
 20
-14.5478
 30
0.0
  0
SPLINE
  5
86
330
1F
100
AcDbEntity
  8
Layer 1
 62
   250
100
AcDbSpline
210
0.0
220
0.0
230
1.0
 70
    11
 71
     3
 72
    35
 73
    31
 74
     0
 42
0.0000000001
 43
0.0000000001
 40
0.0
 40
0.0
 40
0.0
 40
0.0
 40
0.1
 40
0.1
 40
0.1
 40
0.2
 40
0.2
 40
0.2
 40
0.3
 40
0.3
 40
0.3
 40
0.4
 40
0.4
 40
0.4
 40
0.5
 40
0.5
 40
0.5
 40
0.6000000000000001
 40
0.6000000000000001
 40
0.6000000000000001
 40
0.7000000000000001
 40
0.7000000000000001
 40
0.7000000000000001
 40
0.8
 40
0.8
 40
0.8
 40
0.9
 40
0.9
 40
0.9
 40
1.0
 40
1.0
 40
1.0
 40
1.0
 10
-3.2823
 20
-11.709
 30
0.0
 10
-3.2823
 20
-11.709
 30
0.0
 10
-3.226
 20
-11.7414
 30
0.0
 10
-3.226
 20
-11.7414
 30
0.0
 10
-3.226
 20
-11.7414
 30
0.0
 10
-3.2419
 20
-12.313
 30
0.0
 10
-3.2419
 20
-12.313
 30
0.0
 10
-3.2419
 20
-12.313
 30
0.0
 10
-3.2419
 20
-13.8433
 30
0.0
 10
-3.2419
 20
-13.8433
 30
0.0
 10
-3.2419
 20
-14.1251
 30
0.0
 10
-3.2381
 20
-14.4067
 30
0.0
 10
-3.23
 20
-14.6886
 30
0.0
 10
-3.23
 20
-14.6886
 30
0.0
 10
-3.5764
 20
-14.6886
 30
0.0
 10
-3.5764
 20
-14.6886
 30
0.0
 10
-3.5683
 20
-14.4067
 30
0.0
 10
-3.5641
 20
-14.1251
 30
0.0
 10
-3.5641
 20
-13.8433
 30
0.0
 10
-3.5641
 20
-13.8433
 30
0.0
 10
-3.5641
 20
-12.0713
 30
0.0
 10
-3.5641
 20
-12.0713
 30
0.0
 10
-3.5641
 20
-12.0713
 30
0.0
 10
-3.8985
 20
-12.0311
 30
0.0
 10
-3.8985
 20
-12.0311
 30
0.0
 10
-3.8985
 20
-12.0311
 30
0.0
 10
-3.8985
 20
-11.8904
 30
0.0
 10
-3.8985
 20
-11.8904
 30
0.0
 10
-3.8985
 20
-11.8904
 30
0.0
 10
-3.2823
 20
-11.709
 30
0.0
 10
-3.2823
 20
-11.709
 30
0.0
  0
SPLINE
  5
87
330
1F
100
AcDbEntity
  8
Layer 1
 62
   250
100
AcDbSpline
210
0.0
220
0.0
230
1.0
 70
    11
 71
     3
 72
    47
 73
    43
 74
     0
 42
0.0000000001
 43
0.0000000001
 40
0.0
 40
0.0
 40
0.0
 40
0.0
 40
0.0714285714285714
 40
0.0714285714285714
 40
0.0714285714285714
 40
0.1428571428571428
 40
0.1428571428571428
 40
0.1428571428571428
 40
0.2142857142857143
 40
0.2142857142857143
 40
0.2142857142857143
 40
0.2857142857142857
 40
0.2857142857142857
 40
0.2857142857142857
 40
0.3571428571428571
 40
0.3571428571428571
 40
0.3571428571428571
 40
0.4285714285714285
 40
0.4285714285714285
 40
0.4285714285714285
 40
0.5
 40
0.5
 40
0.5
 40
0.5714285714285714
 40
0.5714285714285714
 40
0.5714285714285714
 40
0.6428571428571428
 40
0.6428571428571428
 40
0.6428571428571428
 40
0.7142857142857142
 40
0.7142857142857142
 40
0.7142857142857142
 40
0.7857142857142857
 40
0.7857142857142857
 40
0.7857142857142857
 40
0.8571428571428571
 40
0.8571428571428571
 40
0.8571428571428571
 40
0.9285714285714285
 40
0.9285714285714285
 40
0.9285714285714285
 40
1.0
 40
1.0
 40
1.0
 40
1.0
 10
-0.9585
 20
-13.4969
 30
0.0
 10
-0.9585
 20
-13.5894
 30
0.0
 10
-0.9707
 20
-13.6701
 30
0.0
 10
-0.9868
 20
-13.7223
 30
0.0
 10
-0.9868
 20
-13.7223
 30
0.0
 10
-2.4726
 20
-13.7223
 30
0.0
 10
-2.4726
 20
-13.7223
 30
0.0
 10
-2.4726
 20
-13.7223
 30
0.0
 10
-2.4726
 20
-13.553
 30
0.0
 10
-2.4726
 20
-13.553
 30
0.0
 10
-2.4726
 20
-13.553
 30
0.0
 10
-1.5143
 20
-13.553
 30
0.0
 10
-1.5143
 20
-13.553
 30
0.0
 10
-1.321
 20
-13.553
 30
0.0
 10
-1.2766
 20
-13.4605
 30
0.0
 10
-1.2766
 20
-13.3477
 30
0.0
 10
-1.2766
 20
-13.1183
 30
0.0
 10
-1.4698
 20
-12.9088
 30
0.0
 10
-1.7236
 20
-12.9088
 30
0.0
 10
-1.9813
 20
-12.9088
 30
0.0
 10
-2.2792
 20
-13.1265
 30
0.0
 10
-2.2792
 20
-13.7022
 30
0.0
 10
-2.2792
 20
-14.2138
 30
0.0
 10
-2.0216
 20
-14.4874
 30
0.0
 10
-1.6189
 20
-14.4874
 30
0.0
 10
-1.3611
 20
-14.4874
 30
0.0
 10
-1.2001
 20
-14.3707
 30
0.0
 10
-1.0553
 20
-14.2014
 30
0.0
 10
-1.0553
 20
-14.2014
 30
0.0
 10
-0.9625
 20
-14.2737
 30
0.0
 10
-0.9625
 20
-14.2737
 30
0.0
 10
-1.1076
 20
-14.5598
 30
0.0
 10
-1.3653
 20
-14.7411
 30
0.0
 10
-1.7316
 20
-14.7411
 30
0.0
 10
-2.2711
 20
-14.7411
 30
0.0
 10
-2.6215
 20
-14.3664
 30
0.0
 10
-2.6215
 20
-13.7547
 30
0.0
 10
-2.6215
 20
-13.1385
 30
0.0
 10
-2.2028
 20
-12.7278
 30
0.0
 10
-1.7034
 20
-12.7278
 30
0.0
 10
-1.2889
 20
-12.7278
 30
0.0
 10
-0.9585
 20
-13.0094
 30
0.0
 10
-0.9585
 20
-13.4969
 30
0.0
  0
SPLINE
  5
88
330
1F
100
AcDbEntity
  8
Layer 1
 62
   250
100
AcDbSpline
210
0.0
220
0.0
230
1.0
 70
    11
 71
     3
 72
    26
 73
    22
 74
     0
 42
0.0000000001
 43
0.0000000001
 40
0.0
 40
0.0
 40
0.0
 40
0.0
 40
0.1428571428571428
 40
0.1428571428571428
 40
0.1428571428571428
 40
0.2857142857142857
 40
0.2857142857142857
 40
0.2857142857142857
 40
0.4285714285714285
 40
0.4285714285714285
 40
0.4285714285714285
 40
0.5714285714285714
 40
0.5714285714285714
 40
0.5714285714285714
 40
0.7142857142857142
 40
0.7142857142857142
 40
0.7142857142857142
 40
0.8571428571428571
 40
0.8571428571428571
 40
0.8571428571428571
 40
1.0
 40
1.0
 40
1.0
 40
1.0
 10
0.0385
 20
-13.2483
 30
0.0
 10
0.1732
 20
-12.9217
 30
0.0
 10
0.4004
 20
-12.7278
 30
0.0
 10
0.6207
 20
-12.7278
 30
0.0
 10
0.7374
 20
-12.7278
 30
0.0
 10
0.858
 20
-12.7843
 30
0.0
 10
0.9062
 20
-12.8647
 30
0.0
 10
0.9062
 20
-13.0539
 30
0.0
 10
0.8339
 20
-13.1586
 30
0.0
 10
0.6731
 20
-13.1586
 30
0.0
 10
0.5803
 20
-13.1586
 30
0.0
 10
0.5038
 20
-13.1226
 30
0.0
 10
0.4312
 20
-13.062
 30
0.0
 10
0.4312
 20
-13.062
 30
0.0
 10
0.3794
 20
-13.0177
 30
0.0
 10
0.3794
 20
-13.0177
 30
0.0
 10
0.2194
 20
-13.1402
 30
0.0
 10
0.1142
 20
-13.3098
 30
0.0
 10
0.0407
 20
-13.5426
 30
0.0
 10
0.0407
 20
-13.5426
 30
0.0
 10
0.0385
 20
-13.2483
 30
0.0
 10
0.0385
 20
-13.2483
 30
0.0
  0
SPLINE
  5
89
330
1F
100
AcDbEntity
  8
Layer 1
 62
   250
100
AcDbSpline
210
0.0
220
0.0
230
1.0
 70
    11
 71
     3
 72
    23
 73
    19
 74
     0
 42
0.0000000001
 43
0.0000000001
 40
0.0
 40
0.0
 40
0.0
 40
0.0
 40
0.1666666666666667
 40
0.1666666666666667
 40
0.1666666666666667
 40
0.3333333333333333
 40
0.3333333333333333
 40
0.3333333333333333
 40
0.5
 40
0.5
 40
0.5
 40
0.6666666666666666
 40
0.6666666666666666
 40
0.6666666666666666
 40
0.8333333333333333
 40
0.8333333333333333
 40
0.8333333333333333
 40
1.0
 40
1.0
 40
1.0
 40
1.0
 10
-0.5834
 20
-14.5478
 30
0.0
 10
-0.5834
 20
-14.5478
 30
0.0
 10
-0.1405
 20
-14.4671
 30
0.0
 10
-0.1405
 20
-14.4671
 30
0.0
 10
-0.1405
 20
-14.4671
 30
0.0
 10
-0.0599
 20
-14.4671
 30
0.0
 10
-0.0599
 20
-14.4671
 30
0.0
 10
-0.0599
 20
-14.4671
 30
0.0
 10
0.383
 20
-14.5478
 30
0.0
 10
0.383
 20
-14.5478
 30
0.0
 10
0.383
 20
-14.5478
 30
0.0
 10
0.383
 20
-14.6886
 30
0.0
 10
0.383
 20
-14.6886
 30
0.0
 10
0.383
 20
-14.6886
 30
0.0
 10
-0.5834
 20
-14.6886
 30
0.0
 10
-0.5834
 20
-14.6886
 30
0.0
 10
-0.5834
 20
-14.6886
 30
0.0
 10
-0.5834
 20
-14.5478
 30
0.0
 10
-0.5834
 20
-14.5478
 30
0.0
  0
SPLINE
  5
8A
330
1F
100
AcDbEntity
  8
Layer 1
 62
   250
100
AcDbSpline
210
0.0
220
0.0
230
1.0
 70
    11
 71
     3
 72
    41
 73
    37
 74
     0
 42
0.0000000001
 43
0.0000000001
 40
0.0
 40
0.0
 40
0.0
 40
0.0
 40
0.0833333333333333
 40
0.0833333333333333
 40
0.0833333333333333
 40
0.1666666666666667
 40
0.1666666666666667
 40
0.1666666666666667
 40
0.25
 40
0.25
 40
0.25
 40
0.3333333333333333
 40
0.3333333333333333
 40
0.3333333333333333
 40
0.4166666666666666
 40
0.4166666666666666
 40
0.4166666666666666
 40
0.5
 40
0.5
 40
0.5
 40
0.5833333333333333
 40
0.5833333333333333
 40
0.5833333333333333
 40
0.6666666666666666
 40
0.6666666666666666
 40
0.6666666666666666
 40
0.75
 40
0.75
 40
0.75
 40
0.8333333333333333
 40
0.8333333333333333
 40
0.8333333333333333
 40
0.9166666666666666
 40
0.9166666666666666
 40
0.9166666666666666
 40
1.0
 40
1.0
 40
1.0
 40
1.0
 10
0.0407
 20
-13.5426
 30
0.0
 10
0.0407
 20
-13.5426
 30
0.0
 10
0.0407
 20
-13.8433
 30
0.0
 10
0.0407
 20
-13.8433
 30
0.0
 10
0.0407
 20
-14.0928
 30
0.0
 10
0.0448
 20
-14.5076
 30
0.0
 10
0.0527
 20
-14.6886
 30
0.0
 10
0.0527
 20
-14.6886
 30
0.0
 10
-0.2935
 20
-14.6886
 30
0.0
 10
-0.2935
 20
-14.6886
 30
0.0
 10
-0.2854
 20
-14.5076
 30
0.0
 10
-0.2815
 20
-14.0928
 30
0.0
 10
-0.2815
 20
-13.8433
 30
0.0
 10
-0.2815
 20
-13.8433
 30
0.0
 10
-0.2815
 20
-13.6539
 30
0.0
 10
-0.2815
 20
-13.6539
 30
0.0
 10
-0.2815
 20
-13.4324
 30
0.0
 10
-0.2854
 20
-13.3074
 30
0.0
 10
-0.2935
 20
-13.1466
 30
0.0
 10
-0.2935
 20
-13.1466
 30
0.0
 10
-0.6157
 20
-13.1107
 30
0.0
 10
-0.6157
 20
-13.1107
 30
0.0
 10
-0.6157
 20
-13.1107
 30
0.0
 10
-0.6157
 20
-12.9691
 30
0.0
 10
-0.6157
 20
-12.9691
 30
0.0
 10
-0.6157
 20
-12.9691
 30
0.0
 10
-0.0681
 20
-12.7278
 30
0.0
 10
-0.0681
 20
-12.7278
 30
0.0
 10
-0.0681
 20
-12.7278
 30
0.0
 10
-0.0076
 20
-12.7681
 30
0.0
 10
-0.0076
 20
-12.7681
 30
0.0
 10
-0.0076
 20
-12.7681
 30
0.0
 10
0.0385
 20
-13.2483
 30
0.0
 10
0.0385
 20
-13.2483
 30
0.0
 10
0.0385
 20
-13.2483
 30
0.0
 10
0.0407
 20
-13.5426
 30
0.0
 10
0.0407
 20
-13.5426
 30
0.0
  0
SPLINE
  5
8B
330
1F
100
AcDbEntity
  8
Layer 1
 62
   250
100
AcDbSpline
210
0.0
220
0.0
230
1.0
 70
    11
 71
     3
 72
    17
 73
    13
 74
     0
 42
0.0000000001
 43
0.0000000001
 40
0.0
 40
0.0
 40
0.0
 40
0.0
 40
0.25
 40
0.25
 40
0.25
 40
0.5
 40
0.5
 40
0.5
 40
0.75
 40
0.75
 40
0.75
 40
1.0
 40
1.0
 40
1.0
 40
1.0
 10
0.8546
 20
-14.6886
 30
0.0
 10
0.8546
 20
-14.6886
 30
0.0
 10
2.5861
 20
-14.6886
 30
0.0
 10
2.5861
 20
-14.6886
 30
0.0
 10
2.5861
 20
-14.6886
 30
0.0
 10
2.5861
 20
-14.9465
 30
0.0
 10
2.5861
 20
-14.9465
 30
0.0
 10
2.5861
 20
-14.9465
 30
0.0
 10
0.8546
 20
-14.9465
 30
0.0
 10
0.8546
 20
-14.9465
 30
0.0
 10
0.8546
 20
-14.9465
 30
0.0
 10
0.8546
 20
-14.6886
 30
0.0
 10
0.8546
 20
-14.6886
 30
0.0
  0
SPLINE
  5
8C
330
1F
100
AcDbEntity
  8
Layer 1
 62
   250
100
AcDbSpline
210
0.0
220
0.0
230
1.0
 70
    11
 71
     3
 72
    23
 73
    19
 74
     0
 42
0.0000000001
 43
0.0000000001
 40
0.0
 40
0.0
 40
0.0
 40
0.0
 40
0.1666666666666667
 40
0.1666666666666667
 40
0.1666666666666667
 40
0.3333333333333333
 40
0.3333333333333333
 40
0.3333333333333333
 40
0.5
 40
0.5
 40
0.5
 40
0.6666666666666666
 40
0.6666666666666666
 40
0.6666666666666666
 40
0.8333333333333333
 40
0.8333333333333333
 40
0.8333333333333333
 40
1.0
 40
1.0
 40
1.0
 40
1.0
 10
5.8524
 20
-14.4671
 30
0.0
 10
5.8524
 20
-14.4671
 30
0.0
 10
6.2551
 20
-14.5478
 30
0.0
 10
6.2551
 20
-14.5478
 30
0.0
 10
6.2551
 20
-14.5478
 30
0.0
 10
6.2551
 20
-14.6886
 30
0.0
 10
6.2551
 20
-14.6886
 30
0.0
 10
6.2551
 20
-14.6886
 30
0.0
 10
5.329
 20
-14.6886
 30
0.0
 10
5.329
 20
-14.6886
 30
0.0
 10
5.329
 20
-14.6886
 30
0.0
 10
5.329
 20
-14.5478
 30
0.0
 10
5.329
 20
-14.5478
 30
0.0
 10
5.329
 20
-14.5478
 30
0.0
 10
5.7718
 20
-14.4671
 30
0.0
 10
5.7718
 20
-14.4671
 30
0.0
 10
5.7718
 20
-14.4671
 30
0.0
 10
5.8524
 20
-14.4671
 30
0.0
 10
5.8524
 20
-14.4671
 30
0.0
  0
SPLINE
  5
8D
330
1F
100
AcDbEntity
  8
Layer 1
 62
   250
100
AcDbSpline
210
0.0
220
0.0
230
1.0
 70
    11
 71
     3
 72
    44
 73
    40
 74
     0
 42
0.0000000001
 43
0.0000000001
 40
0.0
 40
0.0
 40
0.0
 40
0.0
 40
0.0769230769230769
 40
0.0769230769230769
 40
0.0769230769230769
 40
0.1538461538461539
 40
0.1538461538461539
 40
0.1538461538461539
 40
0.2307692307692308
 40
0.2307692307692308
 40
0.2307692307692308
 40
0.3076923076923077
 40
0.3076923076923077
 40
0.3076923076923077
 40
0.3846153846153846
 40
0.3846153846153846
 40
0.3846153846153846
 40
0.4615384615384616
 40
0.4615384615384616
 40
0.4615384615384616
 40
0.5384615384615385
 40
0.5384615384615385
 40
0.5384615384615385
 40
0.6153846153846154
 40
0.6153846153846154
 40
0.6153846153846154
 40
0.6923076923076923
 40
0.6923076923076923
 40
0.6923076923076923
 40
0.7692307692307693
 40
0.7692307692307693
 40
0.7692307692307693
 40
0.8461538461538463
 40
0.8461538461538463
 40
0.8461538461538463
 40
0.9230769230769231
 40
0.9230769230769231
 40
0.9230769230769231
 40
1.0
 40
1.0
 40
1.0
 40
1.0
 10
5.9613
 20
-13.4284
 30
0.0
 10
5.9613
 20
-13.4284
 30
0.0
 10
5.9613
 20
-13.8433
 30
0.0
 10
5.9613
 20
-13.8433
 30
0.0
 10
5.9613
 20
-14.1009
 30
0.0
 10
5.965
 20
-14.5076
 30
0.0
 10
5.9733
 20
-14.6886
 30
0.0
 10
5.9733
 20
-14.6886
 30
0.0
 10
5.6271
 20
-14.6886
 30
0.0
 10
5.6271
 20
-14.6886
 30
0.0
 10
5.6349
 20
-14.5076
 30
0.0
 10
5.6391
 20
-14.1009
 30
0.0
 10
5.6391
 20
-13.8433
 30
0.0
 10
5.6391
 20
-13.8433
 30
0.0
 10
5.6391
 20
-13.4969
 30
0.0
 10
5.6391
 20
-13.4969
 30
0.0
 10
5.6391
 20
-13.1183
 30
0.0
 10
5.5344
 20
-13.0094
 30
0.0
 10
5.2967
 20
-13.0094
 30
0.0
 10
5.1154
 20
-13.0094
 30
0.0
 10
4.9464
 20
-13.0824
 30
0.0
 10
4.721
 20
-13.2877
 30
0.0
 10
4.721
 20
-13.2877
 30
0.0
 10
4.6242
 20
-13.2877
 30
0.0
 10
4.6242
 20
-13.2877
 30
0.0
 10
4.6242
 20
-13.2877
 30
0.0
 10
4.6242
 20
-13.1466
 30
0.0
 10
4.6242
 20
-13.1466
 30
0.0
 10
4.6242
 20
-13.1466
 30
0.0
 10
4.8419
 20
-13.1466
 30
0.0
 10
4.8419
 20
-13.1466
 30
0.0
 10
4.8419
 20
-13.1466
 30
0.0
 10
4.6565
 20
-13.1787
 30
0.0
 10
4.6565
 20
-13.1787
 30
0.0
 10
4.866
 20
-12.8806
 30
0.0
 10
5.1637
 20
-12.7278
 30
0.0
 10
5.4496
 20
-12.7278
 30
0.0
 10
5.7718
 20
-12.7278
 30
0.0
 10
5.9613
 20
-12.9293
 30
0.0
 10
5.9613
 20
-13.4284
 30
0.0
  0
SPLINE
  5
8E
330
1F
100
AcDbEntity
  8
Layer 1
 62
   250
100
AcDbSpline
210
0.0
220
0.0
230
1.0
 70
    11
 71
     3
 72
    23
 73
    19
 74
     0
 42
0.0000000001
 43
0.0000000001
 40
0.0
 40
0.0
 40
0.0
 40
0.0
 40
0.1666666666666667
 40
0.1666666666666667
 40
0.1666666666666667
 40
0.3333333333333333
 40
0.3333333333333333
 40
0.3333333333333333
 40
0.5
 40
0.5
 40
0.5
 40
0.6666666666666666
 40
0.6666666666666666
 40
0.6666666666666666
 40
0.8333333333333333
 40
0.8333333333333333
 40
0.8333333333333333
 40
1.0
 40
1.0
 40
1.0
 40
1.0
 10
4.6446
 20
-14.4671
 30
0.0
 10
4.6446
 20
-14.4671
 30
0.0
 10
5.0472
 20
-14.5478
 30
0.0
 10
5.0472
 20
-14.5478
 30
0.0
 10
5.0472
 20
-14.5478
 30
0.0
 10
5.0472
 20
-14.6886
 30
0.0
 10
5.0472
 20
-14.6886
 30
0.0
 10
5.0472
 20
-14.6886
 30
0.0
 10
4.1209
 20
-14.6886
 30
0.0
 10
4.1209
 20
-14.6886
 30
0.0
 10
4.1209
 20
-14.6886
 30
0.0
 10
4.1209
 20
-14.5478
 30
0.0
 10
4.1209
 20
-14.5478
 30
0.0
 10
4.1209
 20
-14.5478
 30
0.0
 10
4.5639
 20
-14.4671
 30
0.0
 10
4.5639
 20
-14.4671
 30
0.0
 10
4.5639
 20
-14.4671
 30
0.0
 10
4.6446
 20
-14.4671
 30
0.0
 10
4.6446
 20
-14.4671
 30
0.0
  0
SPLINE
  5
8F
330
1F
100
AcDbEntity
  8
Layer 1
 62
   250
100
AcDbSpline
210
0.0
220
0.0
230
1.0
 70
    11
 71
     3
 72
    44
 73
    40
 74
     0
 42
0.0000000001
 43
0.0000000001
 40
0.0
 40
0.0
 40
0.0
 40
0.0
 40
0.0769230769230769
 40
0.0769230769230769
 40
0.0769230769230769
 40
0.1538461538461539
 40
0.1538461538461539
 40
0.1538461538461539
 40
0.2307692307692308
 40
0.2307692307692308
 40
0.2307692307692308
 40
0.3076923076923077
 40
0.3076923076923077
 40
0.3076923076923077
 40
0.3846153846153846
 40
0.3846153846153846
 40
0.3846153846153846
 40
0.4615384615384616
 40
0.4615384615384616
 40
0.4615384615384616
 40
0.5384615384615385
 40
0.5384615384615385
 40
0.5384615384615385
 40
0.6153846153846154
 40
0.6153846153846154
 40
0.6153846153846154
 40
0.6923076923076923
 40
0.6923076923076923
 40
0.6923076923076923
 40
0.7692307692307693
 40
0.7692307692307693
 40
0.7692307692307693
 40
0.8461538461538463
 40
0.8461538461538463
 40
0.8461538461538463
 40
0.9230769230769231
 40
0.9230769230769231
 40
0.9230769230769231
 40
1.0
 40
1.0
 40
1.0
 40
1.0
 10
4.753
 20
-13.4725
 30
0.0
 10
4.753
 20
-13.4725
 30
0.0
 10
4.753
 20
-13.8433
 30
0.0
 10
4.753
 20
-13.8433
 30
0.0
 10
4.753
 20
-14.1009
 30
0.0
 10
4.7572
 20
-14.5076
 30
0.0
 10
4.7651
 20
-14.6886
 30
0.0
 10
4.7651
 20
-14.6886
 30
0.0
 10
4.4188
 20
-14.6886
 30
0.0
 10
4.4188
 20
-14.6886
 30
0.0
 10
4.4271
 20
-14.5076
 30
0.0
 10
4.431
 20
-14.1009
 30
0.0
 10
4.431
 20
-13.8433
 30
0.0
 10
4.431
 20
-13.8433
 30
0.0
 10
4.431
 20
-13.505
 30
0.0
 10
4.431
 20
-13.505
 30
0.0
 10
4.431
 20
-13.1303
 30
0.0
 10
4.3345
 20
-13.0094
 30
0.0
 10
4.093
 20
-13.0094
 30
0.0
 10
3.8956
 20
-13.0094
 30
0.0
 10
3.7385
 20
-13.0901
 30
0.0
 10
3.5132
 20
-13.2877
 30
0.0
 10
3.5132
 20
-13.2877
 30
0.0
 10
3.4285
 20
-13.2877
 30
0.0
 10
3.4285
 20
-13.2877
 30
0.0
 10
3.4285
 20
-13.2877
 30
0.0
 10
3.4285
 20
-13.1064
 30
0.0
 10
3.4285
 20
-13.1064
 30
0.0
 10
3.4285
 20
-13.1064
 30
0.0
 10
3.6338
 20
-13.1064
 30
0.0
 10
3.6338
 20
-13.1064
 30
0.0
 10
3.6338
 20
-13.1064
 30
0.0
 10
3.4608
 20
-13.1787
 30
0.0
 10
3.4608
 20
-13.1787
 30
0.0
 10
3.6499
 20
-12.925
 30
0.0
 10
3.96
 20
-12.7278
 30
0.0
 10
4.2418
 20
-12.7278
 30
0.0
 10
4.5881
 20
-12.7278
 30
0.0
 10
4.753
 20
-12.9413
 30
0.0
 10
4.753
 20
-13.4725
 30
0.0
  0
SPLINE
  5
90
330
1F
100
AcDbEntity
  8
Layer 1
 62
   250
100
AcDbSpline
210
0.0
220
0.0
230
1.0
 70
    11
 71
     3
 72
    23
 73
    19
 74
     0
 42
0.0000000001
 43
0.0000000001
 40
0.0
 40
0.0
 40
0.0
 40
0.0
 40
0.1666666666666667
 40
0.1666666666666667
 40
0.1666666666666667
 40
0.3333333333333333
 40
0.3333333333333333
 40
0.3333333333333333
 40
0.5
 40
0.5
 40
0.5
 40
0.6666666666666666
 40
0.6666666666666666
 40
0.6666666666666666
 40
0.8333333333333333
 40
0.8333333333333333
 40
0.8333333333333333
 40
1.0
 40
1.0
 40
1.0
 40
1.0
 10
3.8391
 20
-14.5478
 30
0.0
 10
3.8391
 20
-14.5478
 30
0.0
 10
3.8391
 20
-14.6886
 30
0.0
 10
3.8391
 20
-14.6886
 30
0.0
 10
3.8391
 20
-14.6886
 30
0.0
 10
2.913
 20
-14.6886
 30
0.0
 10
2.913
 20
-14.6886
 30
0.0
 10
2.913
 20
-14.6886
 30
0.0
 10
2.913
 20
-14.5478
 30
0.0
 10
2.913
 20
-14.5478
 30
0.0
 10
2.913
 20
-14.5478
 30
0.0
 10
3.3561
 20
-14.4671
 30
0.0
 10
3.3561
 20
-14.4671
 30
0.0
 10
3.3561
 20
-14.4671
 30
0.0
 10
3.4367
 20
-14.4671
 30
0.0
 10
3.4367
 20
-14.4671
 30
0.0
 10
3.4367
 20
-14.4671
 30
0.0
 10
3.8391
 20
-14.5478
 30
0.0
 10
3.8391
 20
-14.5478
 30
0.0
  0
SPLINE
  5
91
330
1F
100
AcDbEntity
  8
Layer 1
 62
   250
100
AcDbSpline
210
0.0
220
0.0
230
1.0
 70
    11
 71
     3
 72
    38
 73
    34
 74
     0
 42
0.0000000001
 43
0.0000000001
 40
0.0
 40
0.0
 40
0.0
 40
0.0
 40
0.0909090909090909
 40
0.0909090909090909
 40
0.0909090909090909
 40
0.1818181818181818
 40
0.1818181818181818
 40
0.1818181818181818
 40
0.2727272727272727
 40
0.2727272727272727
 40
0.2727272727272727
 40
0.3636363636363636
 40
0.3636363636363636
 40
0.3636363636363636
 40
0.4545454545454546
 40
0.4545454545454546
 40
0.4545454545454546
 40
0.5454545454545454
 40
0.5454545454545454
 40
0.5454545454545454
 40
0.6363636363636364
 40
0.6363636363636364
 40
0.6363636363636364
 40
0.7272727272727273
 40
0.7272727272727273
 40
0.7272727272727273
 40
0.8181818181818182
 40
0.8181818181818182
 40
0.8181818181818182
 40
0.9090909090909092
 40
0.9090909090909092
 40
0.9090909090909092
 40
1.0
 40
1.0
 40
1.0
 40
1.0
 10
3.211
 20
-14.6886
 30
0.0
 10
3.219
 20
-14.5076
 30
0.0
 10
3.2231
 20
-14.0928
 30
0.0
 10
3.2231
 20
-13.8433
 30
0.0
 10
3.2231
 20
-13.8433
 30
0.0
 10
3.2231
 20
-13.6539
 30
0.0
 10
3.2231
 20
-13.6539
 30
0.0
 10
3.2231
 20
-13.4324
 30
0.0
 10
3.219
 20
-13.3074
 30
0.0
 10
3.211
 20
-13.1466
 30
0.0
 10
3.211
 20
-13.1466
 30
0.0
 10
2.889
 20
-13.1107
 30
0.0
 10
2.889
 20
-13.1107
 30
0.0
 10
2.889
 20
-13.1107
 30
0.0
 10
2.889
 20
-12.9691
 30
0.0
 10
2.889
 20
-12.9691
 30
0.0
 10
2.889
 20
-12.9691
 30
0.0
 10
3.4367
 20
-12.7278
 30
0.0
 10
3.4367
 20
-12.7278
 30
0.0
 10
3.4367
 20
-12.7278
 30
0.0
 10
3.4969
 20
-12.7681
 30
0.0
 10
3.4969
 20
-12.7681
 30
0.0
 10
3.4969
 20
-12.7681
 30
0.0
 10
3.5452
 20
-13.2351
 30
0.0
 10
3.5452
 20
-13.2351
 30
0.0
 10
3.5452
 20
-13.2351
 30
0.0
 10
3.5452
 20
-13.8433
 30
0.0
 10
3.5452
 20
-13.8433
 30
0.0
 10
3.5452
 20
-14.0928
 30
0.0
 10
3.5493
 20
-14.5076
 30
0.0
 10
3.5573
 20
-14.6886
 30
0.0
 10
3.5573
 20
-14.6886
 30
0.0
 10
3.211
 20
-14.6886
 30
0.0
 10
3.211
 20
-14.6886
 30
0.0
  0
SPLINE
  5
92
330
1F
100
AcDbEntity
  8
Layer 1
 62
   250
100
AcDbSpline
210
0.0
220
0.0
230
1.0
 70
    11
 71
     3
 72
    47
 73
    43
 74
     0
 42
0.0000000001
 43
0.0000000001
 40
0.0
 40
0.0
 40
0.0
 40
0.0
 40
0.0714285714285714
 40
0.0714285714285714
 40
0.0714285714285714
 40
0.1428571428571428
 40
0.1428571428571428
 40
0.1428571428571428
 40
0.2142857142857143
 40
0.2142857142857143
 40
0.2142857142857143
 40
0.2857142857142857
 40
0.2857142857142857
 40
0.2857142857142857
 40
0.3571428571428571
 40
0.3571428571428571
 40
0.3571428571428571
 40
0.4285714285714285
 40
0.4285714285714285
 40
0.4285714285714285
 40
0.5
 40
0.5
 40
0.5
 40
0.5714285714285714
 40
0.5714285714285714
 40
0.5714285714285714
 40
0.6428571428571428
 40
0.6428571428571428
 40
0.6428571428571428
 40
0.7142857142857142
 40
0.7142857142857142
 40
0.7142857142857142
 40
0.7857142857142857
 40
0.7857142857142857
 40
0.7857142857142857
 40
0.8571428571428571
 40
0.8571428571428571
 40
0.8571428571428571
 40
0.9285714285714285
 40
0.9285714285714285
 40
0.9285714285714285
 40
1.0
 40
1.0
 40
1.0
 40
1.0
 10
8.2257
 20
-13.4969
 30
0.0
 10
8.2257
 20
-13.5894
 30
0.0
 10
8.2133
 20
-13.6701
 30
0.0
 10
8.1974
 20
-13.7223
 30
0.0
 10
8.1974
 20
-13.7223
 30
0.0
 10
6.7116
 20
-13.7223
 30
0.0
 10
6.7116
 20
-13.7223
 30
0.0
 10
6.7116
 20
-13.7223
 30
0.0
 10
6.7116
 20
-13.553
 30
0.0
 10
6.7116
 20
-13.553
 30
0.0
 10
6.7116
 20
-13.553
 30
0.0
 10
7.67
 20
-13.553
 30
0.0
 10
7.67
 20
-13.553
 30
0.0
 10
7.8633
 20
-13.553
 30
0.0
 10
7.9074
 20
-13.4605
 30
0.0
 10
7.9074
 20
-13.3477
 30
0.0
 10
7.9074
 20
-13.1183
 30
0.0
 10
7.7141
 20
-12.9088
 30
0.0
 10
7.4606
 20
-12.9088
 30
0.0
 10
7.2029
 20
-12.9088
 30
0.0
 10
6.9048
 20
-13.1265
 30
0.0
 10
6.9048
 20
-13.7022
 30
0.0
 10
6.9048
 20
-14.2138
 30
0.0
 10
7.1625
 20
-14.4874
 30
0.0
 10
7.5653
 20
-14.4874
 30
0.0
 10
7.823
 20
-14.4874
 30
0.0
 10
7.9838
 20
-14.3707
 30
0.0
 10
8.1289
 20
-14.2014
 30
0.0
 10
8.1289
 20
-14.2014
 30
0.0
 10
8.2215
 20
-14.2737
 30
0.0
 10
8.2215
 20
-14.2737
 30
0.0
 10
8.0766
 20
-14.5598
 30
0.0
 10
7.8189
 20
-14.7411
 30
0.0
 10
7.4526
 20
-14.7411
 30
0.0
 10
6.9128
 20
-14.7411
 30
0.0
 10
6.5628
 20
-14.3664
 30
0.0
 10
6.5628
 20
-13.7547
 30
0.0
 10
6.5628
 20
-13.1385
 30
0.0
 10
6.9813
 20
-12.7278
 30
0.0
 10
7.4806
 20
-12.7278
 30
0.0
 10
7.8954
 20
-12.7278
 30
0.0
 10
8.2257
 20
-13.0094
 30
0.0
 10
8.2257
 20
-13.4969
 30
0.0
  0
SPLINE
  5
93
330
1F
100
AcDbEntity
  8
Layer 1
 62
   250
100
AcDbSpline
210
0.0
220
0.0
230
1.0
 70
    11
 71
     3
 72
    23
 73
    19
 74
     0
 42
0.0000000001
 43
0.0000000001
 40
0.0
 40
0.0
 40
0.0
 40
0.0
 40
0.1666666666666667
 40
0.1666666666666667
 40
0.1666666666666667
 40
0.3333333333333333
 40
0.3333333333333333
 40
0.3333333333333333
 40
0.5
 40
0.5
 40
0.5
 40
0.6666666666666666
 40
0.6666666666666666
 40
0.6666666666666666
 40
0.8333333333333333
 40
0.8333333333333333
 40
0.8333333333333333
 40
1.0
 40
1.0
 40
1.0
 40
1.0
 10
10.2755
 20
-14.4671
 30
0.0
 10
10.2755
 20
-14.4671
 30
0.0
 10
10.6783
 20
-14.5478
 30
0.0
 10
10.6783
 20
-14.5478
 30
0.0
 10
10.6783
 20
-14.5478
 30
0.0
 10
10.6783
 20
-14.6886
 30
0.0
 10
10.6783
 20
-14.6886
 30
0.0
 10
10.6783
 20
-14.6886
 30
0.0
 10
9.7522
 20
-14.6886
 30
0.0
 10
9.7522
 20
-14.6886
 30
0.0
 10
9.7522
 20
-14.6886
 30
0.0
 10
9.7522
 20
-14.5478
 30
0.0
 10
9.7522
 20
-14.5478
 30
0.0
 10
9.7522
 20
-14.5478
 30
0.0
 10
10.1953
 20
-14.4671
 30
0.0
 10
10.1953
 20
-14.4671
 30
0.0
 10
10.1953
 20
-14.4671
 30
0.0
 10
10.2755
 20
-14.4671
 30
0.0
 10
10.2755
 20
-14.4671
 30
0.0
  0
SPLINE
  5
94
330
1F
100
AcDbEntity
  8
Layer 1
 62
   250
100
AcDbSpline
210
0.0
220
0.0
230
1.0
 70
    11
 71
     3
 72
    44
 73
    40
 74
     0
 42
0.0000000001
 43
0.0000000001
 40
0.0
 40
0.0
 40
0.0
 40
0.0
 40
0.0769230769230769
 40
0.0769230769230769
 40
0.0769230769230769
 40
0.1538461538461539
 40
0.1538461538461539
 40
0.1538461538461539
 40
0.2307692307692308
 40
0.2307692307692308
 40
0.2307692307692308
 40
0.3076923076923077
 40
0.3076923076923077
 40
0.3076923076923077
 40
0.3846153846153846
 40
0.3846153846153846
 40
0.3846153846153846
 40
0.4615384615384616
 40
0.4615384615384616
 40
0.4615384615384616
 40
0.5384615384615385
 40
0.5384615384615385
 40
0.5384615384615385
 40
0.6153846153846154
 40
0.6153846153846154
 40
0.6153846153846154
 40
0.6923076923076923
 40
0.6923076923076923
 40
0.6923076923076923
 40
0.7692307692307693
 40
0.7692307692307693
 40
0.7692307692307693
 40
0.8461538461538463
 40
0.8461538461538463
 40
0.8461538461538463
 40
0.9230769230769231
 40
0.9230769230769231
 40
0.9230769230769231
 40
1.0
 40
1.0
 40
1.0
 40
1.0
 10
10.3844
 20
-13.4725
 30
0.0
 10
10.3844
 20
-13.4725
 30
0.0
 10
10.3844
 20
-13.8433
 30
0.0
 10
10.3844
 20
-13.8433
 30
0.0
 10
10.3844
 20
-14.1009
 30
0.0
 10
10.3885
 20
-14.5076
 30
0.0
 10
10.3965
 20
-14.6886
 30
0.0
 10
10.3965
 20
-14.6886
 30
0.0
 10
10.0502
 20
-14.6886
 30
0.0
 10
10.0502
 20
-14.6886
 30
0.0
 10
10.0582
 20
-14.5076
 30
0.0
 10
10.0623
 20
-14.1009
 30
0.0
 10
10.0623
 20
-13.8433
 30
0.0
 10
10.0623
 20
-13.8433
 30
0.0
 10
10.0623
 20
-13.505
 30
0.0
 10
10.0623
 20
-13.505
 30
0.0
 10
10.0623
 20
-13.1303
 30
0.0
 10
9.9654
 20
-13.0094
 30
0.0
 10
9.724
 20
-13.0094
 30
0.0
 10
9.5228
 20
-13.0094
 30
0.0
 10
9.3577
 20
-13.0824
 30
0.0
 10
9.1283
 20
-13.2877
 30
0.0
 10
9.1283
 20
-13.2877
 30
0.0
 10
9.0436
 20
-13.2877
 30
0.0
 10
9.0436
 20
-13.2877
 30
0.0
 10
9.0436
 20
-13.2877
 30
0.0
 10
9.0436
 20
-13.1064
 30
0.0
 10
9.0436
 20
-13.1064
 30
0.0
 10
9.0436
 20
-13.1064
 30
0.0
 10
9.2489
 20
-13.1064
 30
0.0
 10
9.2489
 20
-13.1064
 30
0.0
 10
9.2489
 20
-13.1064
 30
0.0
 10
9.0676
 20
-13.1787
 30
0.0
 10
9.0676
 20
-13.1787
 30
0.0
 10
9.2571
 20
-12.925
 30
0.0
 10
9.5872
 20
-12.7278
 30
0.0
 10
9.8731
 20
-12.7278
 30
0.0
 10
10.2194
 20
-12.7278
 30
0.0
 10
10.3844
 20
-12.9413
 30
0.0
 10
10.3844
 20
-13.4725
 30
0.0
  0
SPLINE
  5
95
330
1F
100
AcDbEntity
  8
Layer 1
 62
   250
100
AcDbSpline
210
0.0
220
0.0
230
1.0
 70
    11
 71
     3
 72
    23
 73
    19
 74
     0
 42
0.0000000001
 43
0.0000000001
 40
0.0
 40
0.0
 40
0.0
 40
0.0
 40
0.1666666666666667
 40
0.1666666666666667
 40
0.1666666666666667
 40
0.3333333333333333
 40
0.3333333333333333
 40
0.3333333333333333
 40
0.5
 40
0.5
 40
0.5
 40
0.6666666666666666
 40
0.6666666666666666
 40
0.6666666666666666
 40
0.8333333333333333
 40
0.8333333333333333
 40
0.8333333333333333
 40
1.0
 40
1.0
 40
1.0
 40
1.0
 10
9.4342
 20
-14.5478
 30
0.0
 10
9.4342
 20
-14.5478
 30
0.0
 10
9.4342
 20
-14.6886
 30
0.0
 10
9.4342
 20
-14.6886
 30
0.0
 10
9.4342
 20
-14.6886
 30
0.0
 10
8.5082
 20
-14.6886
 30
0.0
 10
8.5082
 20
-14.6886
 30
0.0
 10
8.5082
 20
-14.6886
 30
0.0
 10
8.5082
 20
-14.5478
 30
0.0
 10
8.5082
 20
-14.5478
 30
0.0
 10
8.5082
 20
-14.5478
 30
0.0
 10
8.9509
 20
-14.4671
 30
0.0
 10
8.9509
 20
-14.4671
 30
0.0
 10
8.9509
 20
-14.4671
 30
0.0
 10
9.0316
 20
-14.4671
 30
0.0
 10
9.0316
 20
-14.4671
 30
0.0
 10
9.0316
 20
-14.4671
 30
0.0
 10
9.4342
 20
-14.5478
 30
0.0
 10
9.4342
 20
-14.5478
 30
0.0
  0
SPLINE
  5
96
330
1F
100
AcDbEntity
  8
Layer 1
 62
   250
100
AcDbSpline
210
0.0
220
0.0
230
1.0
 70
    11
 71
     3
 72
    41
 73
    37
 74
     0
 42
0.0000000001
 43
0.0000000001
 40
0.0
 40
0.0
 40
0.0
 40
0.0
 40
0.0833333333333333
 40
0.0833333333333333
 40
0.0833333333333333
 40
0.1666666666666667
 40
0.1666666666666667
 40
0.1666666666666667
 40
0.25
 40
0.25
 40
0.25
 40
0.3333333333333333
 40
0.3333333333333333
 40
0.3333333333333333
 40
0.4166666666666666
 40
0.4166666666666666
 40
0.4166666666666666
 40
0.5
 40
0.5
 40
0.5
 40
0.5833333333333333
 40
0.5833333333333333
 40
0.5833333333333333
 40
0.6666666666666666
 40
0.6666666666666666
 40
0.6666666666666666
 40
0.75
 40
0.75
 40
0.75
 40
0.8333333333333333
 40
0.8333333333333333
 40
0.8333333333333333
 40
0.9166666666666666
 40
0.9166666666666666
 40
0.9166666666666666
 40
1.0
 40
1.0
 40
1.0
 40
1.0
 10
8.8221
 20
-12.0713
 30
0.0
 10
8.8221
 20
-12.0713
 30
0.0
 10
8.4879
 20
-12.0311
 30
0.0
 10
8.4879
 20
-12.0311
 30
0.0
 10
8.4879
 20
-12.0311
 30
0.0
 10
8.4879
 20
-11.8904
 30
0.0
 10
8.4879
 20
-11.8904
 30
0.0
 10
8.4879
 20
-11.8904
 30
0.0
 10
9.0918
 20
-11.709
 30
0.0
 10
9.0918
 20
-11.709
 30
0.0
 10
9.0918
 20
-11.709
 30
0.0
 10
9.1483
 20
-11.7414
 30
0.0
 10
9.1483
 20
-11.7414
 30
0.0
 10
9.1483
 20
-11.7414
 30
0.0
 10
9.1321
 20
-12.313
 30
0.0
 10
9.1321
 20
-12.313
 30
0.0
 10
9.1321
 20
-12.313
 30
0.0
 10
9.1321
 20
-13.1667
 30
0.0
 10
9.1321
 20
-13.1667
 30
0.0
 10
9.1321
 20
-13.1667
 30
0.0
 10
9.1441
 20
-13.219
 30
0.0
 10
9.1441
 20
-13.219
 30
0.0
 10
9.1441
 20
-13.219
 30
0.0
 10
9.1441
 20
-13.8433
 30
0.0
 10
9.1441
 20
-13.8433
 30
0.0
 10
9.1441
 20
-14.0928
 30
0.0
 10
9.1483
 20
-14.5076
 30
0.0
 10
9.1563
 20
-14.6886
 30
0.0
 10
9.1563
 20
-14.6886
 30
0.0
 10
8.8099
 20
-14.6886
 30
0.0
 10
8.8099
 20
-14.6886
 30
0.0
 10
8.8182
 20
-14.5076
 30
0.0
 10
8.8221
 20
-14.0928
 30
0.0
 10
8.8221
 20
-13.8433
 30
0.0
 10
8.8221
 20
-13.8433
 30
0.0
 10
8.8221
 20
-12.0713
 30
0.0
 10
8.8221
 20
-12.0713
 30
0.0
  0
SPLINE
  5
97
330
1F
100
AcDbEntity
  8
Layer 1
 62
   250
100
AcDbSpline
210
0.0
220
0.0
230
1.0
 70
    11
 71
     3
 72
    47
 73
    43
 74
     0
 42
0.0000000001
 43
0.0000000001
 40
0.0
 40
0.0
 40
0.0
 40
0.0
 40
0.0714285714285714
 40
0.0714285714285714
 40
0.0714285714285714
 40
0.1428571428571428
 40
0.1428571428571428
 40
0.1428571428571428
 40
0.2142857142857143
 40
0.2142857142857143
 40
0.2142857142857143
 40
0.2857142857142857
 40
0.2857142857142857
 40
0.2857142857142857
 40
0.3571428571428571
 40
0.3571428571428571
 40
0.3571428571428571
 40
0.4285714285714285
 40
0.4285714285714285
 40
0.4285714285714285
 40
0.5
 40
0.5
 40
0.5
 40
0.5714285714285714
 40
0.5714285714285714
 40
0.5714285714285714
 40
0.6428571428571428
 40
0.6428571428571428
 40
0.6428571428571428
 40
0.7142857142857142
 40
0.7142857142857142
 40
0.7142857142857142
 40
0.7857142857142857
 40
0.7857142857142857
 40
0.7857142857142857
 40
0.8571428571428571
 40
0.8571428571428571
 40
0.8571428571428571
 40
0.9285714285714285
 40
0.9285714285714285
 40
0.9285714285714285
 40
1.0
 40
1.0
 40
1.0
 40
1.0
 10
13.0189
 20
-14.5478
 30
0.0
 10
13.0189
 20
-14.5478
 30
0.0
 10
13.0189
 20
-14.6886
 30
0.0
 10
13.0189
 20
-14.6886
 30
0.0
 10
13.0189
 20
-14.6886
 30
0.0
 10
12.4029
 20
-14.7289
 30
0.0
 10
12.4029
 20
-14.7289
 30
0.0
 10
12.4029
 20
-14.7289
 30
0.0
 10
12.3626
 20
-14.3182
 30
0.0
 10
12.3626
 20
-14.3182
 30
0.0
 10
12.3626
 20
-14.3182
 30
0.0
 10
12.3626
 20
-13.1385
 30
0.0
 10
12.3626
 20
-13.1385
 30
0.0
 10
12.3626
 20
-13.1385
 30
0.0
 10
12.3747
 20
-13.086
 30
0.0
 10
12.3747
 20
-13.086
 30
0.0
 10
12.3747
 20
-13.086
 30
0.0
 10
12.3747
 20
-12.0713
 30
0.0
 10
12.3747
 20
-12.0713
 30
0.0
 10
12.3747
 20
-12.0713
 30
0.0
 10
12.0284
 20
-12.0311
 30
0.0
 10
12.0284
 20
-12.0311
 30
0.0
 10
12.0284
 20
-12.0311
 30
0.0
 10
12.0284
 20
-11.8904
 30
0.0
 10
12.0284
 20
-11.8904
 30
0.0
 10
12.0284
 20
-11.8904
 30
0.0
 10
12.6444
 20
-11.709
 30
0.0
 10
12.6444
 20
-11.709
 30
0.0
 10
12.6444
 20
-11.709
 30
0.0
 10
12.7008
 20
-11.7414
 30
0.0
 10
12.7008
 20
-11.7414
 30
0.0
 10
12.7008
 20
-11.7414
 30
0.0
 10
12.6847
 20
-12.313
 30
0.0
 10
12.6847
 20
-12.313
 30
0.0
 10
12.6847
 20
-12.313
 30
0.0
 10
12.6847
 20
-14.6886
 30
0.0
 10
12.6847
 20
-14.6886
 30
0.0
 10
12.6847
 20
-14.6886
 30
0.0
 10
12.6202
 20
-14.4833
 30
0.0
 10
12.6202
 20
-14.4833
 30
0.0
 10
12.6202
 20
-14.4833
 30
0.0
 10
13.0189
 20
-14.5478
 30
0.0
 10
13.0189
 20
-14.5478
 30
0.0
  0
SPLINE
  5
98
330
1F
100
AcDbEntity
  8
Layer 1
 62
   250
100
AcDbSpline
210
0.0
220
0.0
230
1.0
 70
    11
 71
     3
 72
    35
 73
    31
 74
     0
 42
0.0000000001
 43
0.0000000001
 40
0.0
 40
0.0
 40
0.0
 40
0.0
 40
0.1
 40
0.1
 40
0.1
 40
0.2
 40
0.2
 40
0.2
 40
0.3
 40
0.3
 40
0.3
 40
0.4
 40
0.4
 40
0.4
 40
0.5
 40
0.5
 40
0.5
 40
0.6000000000000001
 40
0.6000000000000001
 40
0.6000000000000001
 40
0.7000000000000001
 40
0.7000000000000001
 40
0.7000000000000001
 40
0.8
 40
0.8
 40
0.8
 40
0.9
 40
0.9
 40
0.9
 40
1.0
 40
1.0
 40
1.0
 40
1.0
 10
11.8995
 20
-14.5195
 30
0.0
 10
12.1049
 20
-14.5195
 30
0.0
 10
12.2458
 20
-14.4311
 30
0.0
 10
12.4312
 20
-14.1932
 30
0.0
 10
12.4312
 20
-14.1932
 30
0.0
 10
12.4673
 20
-14.3022
 30
0.0
 10
12.4673
 20
-14.3022
 30
0.0
 10
12.3143
 20
-14.5761
 30
0.0
 10
12.1248
 20
-14.7411
 30
0.0
 10
11.8111
 20
-14.7411
 30
0.0
 10
11.3198
 20
-14.7411
 30
0.0
 10
10.9898
 20
-14.3341
 30
0.0
 10
10.9898
 20
-13.7506
 30
0.0
 10
10.9898
 20
-13.1385
 30
0.0
 10
11.3517
 20
-12.7278
 30
0.0
 10
11.8471
 20
-12.7278
 30
0.0
 10
12.0766
 20
-12.7278
 30
0.0
 10
12.2741
 20
-12.8203
 30
0.0
 10
12.4835
 20
-13.1346
 30
0.0
 10
12.4835
 20
-13.1346
 30
0.0
 10
12.4432
 20
-13.2394
 30
0.0
 10
12.4432
 20
-13.2394
 30
0.0
 10
12.2096
 20
-13.0136
 30
0.0
 10
12.0483
 20
-12.9494
 30
0.0
 10
11.8954
 20
-12.9494
 30
0.0
 10
11.5936
 20
-12.9494
 30
0.0
 10
11.3318
 20
-13.1907
 30
0.0
 10
11.3318
 20
-13.7425
 30
0.0
 10
11.3318
 20
-14.278
 30
0.0
 10
11.5734
 20
-14.5195
 30
0.0
 10
11.8995
 20
-14.5195
 30
0.0
  0
SPLINE
  5
99
330
1F
100
AcDbEntity
  8
Layer 1
 62
   250
100
AcDbSpline
210
0.0
220
0.0
230
1.0
 70
    11
 71
     3
 72
    17
 73
    13
 74
     0
 42
0.0000000001
 43
0.0000000001
 40
0.0
 40
0.0
 40
0.0
 40
0.0
 40
0.25
 40
0.25
 40
0.25
 40
0.5
 40
0.5
 40
0.5
 40
0.75
 40
0.75
 40
0.75
 40
1.0
 40
1.0
 40
1.0
 40
1.0
 10
13.4264
 20
-12.0191
 30
0.0
 10
13.4264
 20
-11.866
 30
0.0
 10
13.5432
 20
-11.7656
 30
0.0
 10
13.6924
 20
-11.7656
 30
0.0
 10
13.8412
 20
-11.7656
 30
0.0
 10
13.958
 20
-11.866
 30
0.0
 10
13.958
 20
-12.0191
 30
0.0
 10
13.958
 20
-12.1684
 30
0.0
 10
13.8412
 20
-12.2728
 30
0.0
 10
13.6924
 20
-12.2728
 30
0.0
 10
13.5432
 20
-12.2728
 30
0.0
 10
13.4264
 20
-12.1684
 30
0.0
 10
13.4264
 20
-12.0191
 30
0.0
  0
SPLINE
  5
9A
330
1F
100
AcDbEntity
  8
Layer 1
 62
   250
100
AcDbSpline
210
0.0
220
0.0
230
1.0
 70
    11
 71
     3
 72
    23
 73
    19
 74
     0
 42
0.0000000001
 43
0.0000000001
 40
0.0
 40
0.0
 40
0.0
 40
0.0
 40
0.1666666666666667
 40
0.1666666666666667
 40
0.1666666666666667
 40
0.3333333333333333
 40
0.3333333333333333
 40
0.3333333333333333
 40
0.5
 40
0.5
 40
0.5
 40
0.6666666666666666
 40
0.6666666666666666
 40
0.6666666666666666
 40
0.8333333333333333
 40
0.8333333333333333
 40
0.8333333333333333
 40
1.0
 40
1.0
 40
1.0
 40
1.0
 10
14.1471
 20
-14.5478
 30
0.0
 10
14.1471
 20
-14.5478
 30
0.0
 10
14.1471
 20
-14.6886
 30
0.0
 10
14.1471
 20
-14.6886
 30
0.0
 10
14.1471
 20
-14.6886
 30
0.0
 10
13.2211
 20
-14.6886
 30
0.0
 10
13.2211
 20
-14.6886
 30
0.0
 10
13.2211
 20
-14.6886
 30
0.0
 10
13.2211
 20
-14.5478
 30
0.0
 10
13.2211
 20
-14.5478
 30
0.0
 10
13.2211
 20
-14.5478
 30
0.0
 10
13.6641
 20
-14.4671
 30
0.0
 10
13.6641
 20
-14.4671
 30
0.0
 10
13.6641
 20
-14.4671
 30
0.0
 10
13.7444
 20
-14.4671
 30
0.0
 10
13.7444
 20
-14.4671
 30
0.0
 10
13.7444
 20
-14.4671
 30
0.0
 10
14.1471
 20
-14.5478
 30
0.0
 10
14.1471
 20
-14.5478
 30
0.0
  0
SPLINE
  5
9B
330
1F
100
AcDbEntity
  8
Layer 1
 62
   250
100
AcDbSpline
210
0.0
220
0.0
230
1.0
 70
    11
 71
     3
 72
    38
 73
    34
 74
     0
 42
0.0000000001
 43
0.0000000001
 40
0.0
 40
0.0
 40
0.0
 40
0.0
 40
0.0909090909090909
 40
0.0909090909090909
 40
0.0909090909090909
 40
0.1818181818181818
 40
0.1818181818181818
 40
0.1818181818181818
 40
0.2727272727272727
 40
0.2727272727272727
 40
0.2727272727272727
 40
0.3636363636363636
 40
0.3636363636363636
 40
0.3636363636363636
 40
0.4545454545454546
 40
0.4545454545454546
 40
0.4545454545454546
 40
0.5454545454545454
 40
0.5454545454545454
 40
0.5454545454545454
 40
0.6363636363636364
 40
0.6363636363636364
 40
0.6363636363636364
 40
0.7272727272727273
 40
0.7272727272727273
 40
0.7272727272727273
 40
0.8181818181818182
 40
0.8181818181818182
 40
0.8181818181818182
 40
0.9090909090909092
 40
0.9090909090909092
 40
0.9090909090909092
 40
1.0
 40
1.0
 40
1.0
 40
1.0
 10
13.527
 20
-14.6886
 30
0.0
 10
13.5353
 20
-14.5076
 30
0.0
 10
13.5391
 20
-14.0928
 30
0.0
 10
13.5391
 20
-13.8433
 30
0.0
 10
13.5391
 20
-13.8433
 30
0.0
 10
13.5391
 20
-13.6539
 30
0.0
 10
13.5391
 20
-13.6539
 30
0.0
 10
13.5391
 20
-13.4324
 30
0.0
 10
13.5353
 20
-13.3074
 30
0.0
 10
13.527
 20
-13.1466
 30
0.0
 10
13.527
 20
-13.1466
 30
0.0
 10
13.1969
 20
-13.1107
 30
0.0
 10
13.1969
 20
-13.1107
 30
0.0
 10
13.1969
 20
-13.1107
 30
0.0
 10
13.1969
 20
-12.9691
 30
0.0
 10
13.1969
 20
-12.9691
 30
0.0
 10
13.1969
 20
-12.9691
 30
0.0
 10
13.8051
 20
-12.7278
 30
0.0
 10
13.8051
 20
-12.7278
 30
0.0
 10
13.8051
 20
-12.7278
 30
0.0
 10
13.8653
 20
-12.7681
 30
0.0
 10
13.8653
 20
-12.7681
 30
0.0
 10
13.8653
 20
-12.7681
 30
0.0
 10
13.8533
 20
-13.3117
 30
0.0
 10
13.8533
 20
-13.3117
 30
0.0
 10
13.8533
 20
-13.3117
 30
0.0
 10
13.8533
 20
-13.8433
 30
0.0
 10
13.8533
 20
-13.8433
 30
0.0
 10
13.8533
 20
-14.0928
 30
0.0
 10
13.8575
 20
-14.5076
 30
0.0
 10
13.8653
 20
-14.6886
 30
0.0
 10
13.8653
 20
-14.6886
 30
0.0
 10
13.527
 20
-14.6886
 30
0.0
 10
13.527
 20
-14.6886
 30
0.0
  0
SPLINE
  5
9C
330
1F
100
AcDbEntity
  8
Layer 1
 62
   250
100
AcDbSpline
210
0.0
220
0.0
230
1.0
 70
    11
 71
     3
 72
    17
 73
    13
 74
     0
 42
0.0000000001
 43
0.0000000001
 40
0.0
 40
0.0
 40
0.0
 40
0.0
 40
0.25
 40
0.25
 40
0.25
 40
0.5
 40
0.5
 40
0.5
 40
0.75
 40
0.75
 40
0.75
 40
1.0
 40
1.0
 40
1.0
 40
1.0
 10
14.6225
 20
-12.0191
 30
0.0
 10
14.6225
 20
-11.866
 30
0.0
 10
14.7394
 20
-11.7656
 30
0.0
 10
14.8885
 20
-11.7656
 30
0.0
 10
15.0373
 20
-11.7656
 30
0.0
 10
15.1542
 20
-11.866
 30
0.0
 10
15.1542
 20
-12.0191
 30
0.0
 10
15.1542
 20
-12.1684
 30
0.0
 10
15.0373
 20
-12.2728
 30
0.0
 10
14.8885
 20
-12.2728
 30
0.0
 10
14.7394
 20
-12.2728
 30
0.0
 10
14.6225
 20
-12.1684
 30
0.0
 10
14.6225
 20
-12.0191
 30
0.0
  0
SPLINE
  5
9D
330
1F
100
AcDbEntity
  8
Layer 1
 62
   250
100
AcDbSpline
210
0.0
220
0.0
230
1.0
 70
    11
 71
     3
 72
    23
 73
    19
 74
     0
 42
0.0000000001
 43
0.0000000001
 40
0.0
 40
0.0
 40
0.0
 40
0.0
 40
0.1666666666666667
 40
0.1666666666666667
 40
0.1666666666666667
 40
0.3333333333333333
 40
0.3333333333333333
 40
0.3333333333333333
 40
0.5
 40
0.5
 40
0.5
 40
0.6666666666666666
 40
0.6666666666666666
 40
0.6666666666666666
 40
0.8333333333333333
 40
0.8333333333333333
 40
0.8333333333333333
 40
1.0
 40
1.0
 40
1.0
 40
1.0
 10
15.3432
 20
-14.5478
 30
0.0
 10
15.3432
 20
-14.5478
 30
0.0
 10
15.3432
 20
-14.6886
 30
0.0
 10
15.3432
 20
-14.6886
 30
0.0
 10
15.3432
 20
-14.6886
 30
0.0
 10
14.4172
 20
-14.6886
 30
0.0
 10
14.4172
 20
-14.6886
 30
0.0
 10
14.4172
 20
-14.6886
 30
0.0
 10
14.4172
 20
-14.5478
 30
0.0
 10
14.4172
 20
-14.5478
 30
0.0
 10
14.4172
 20
-14.5478
 30
0.0
 10
14.8602
 20
-14.4671
 30
0.0
 10
14.8602
 20
-14.4671
 30
0.0
 10
14.8602
 20
-14.4671
 30
0.0
 10
14.9406
 20
-14.4671
 30
0.0
 10
14.9406
 20
-14.4671
 30
0.0
 10
14.9406
 20
-14.4671
 30
0.0
 10
15.3432
 20
-14.5478
 30
0.0
 10
15.3432
 20
-14.5478
 30
0.0
  0
SPLINE
  5
9E
330
1F
100
AcDbEntity
  8
Layer 1
 62
   250
100
AcDbSpline
210
0.0
220
0.0
230
1.0
 70
    11
 71
     3
 72
    38
 73
    34
 74
     0
 42
0.0000000001
 43
0.0000000001
 40
0.0
 40
0.0
 40
0.0
 40
0.0
 40
0.0909090909090909
 40
0.0909090909090909
 40
0.0909090909090909
 40
0.1818181818181818
 40
0.1818181818181818
 40
0.1818181818181818
 40
0.2727272727272727
 40
0.2727272727272727
 40
0.2727272727272727
 40
0.3636363636363636
 40
0.3636363636363636
 40
0.3636363636363636
 40
0.4545454545454546
 40
0.4545454545454546
 40
0.4545454545454546
 40
0.5454545454545454
 40
0.5454545454545454
 40
0.5454545454545454
 40
0.6363636363636364
 40
0.6363636363636364
 40
0.6363636363636364
 40
0.7272727272727273
 40
0.7272727272727273
 40
0.7272727272727273
 40
0.8181818181818182
 40
0.8181818181818182
 40
0.8181818181818182
 40
0.9090909090909092
 40
0.9090909090909092
 40
0.9090909090909092
 40
1.0
 40
1.0
 40
1.0
 40
1.0
 10
14.7231
 20
-14.6886
 30
0.0
 10
14.7314
 20
-14.5076
 30
0.0
 10
14.7352
 20
-14.0928
 30
0.0
 10
14.7352
 20
-13.8433
 30
0.0
 10
14.7352
 20
-13.8433
 30
0.0
 10
14.7352
 20
-13.6539
 30
0.0
 10
14.7352
 20
-13.6539
 30
0.0
 10
14.7352
 20
-13.4324
 30
0.0
 10
14.7314
 20
-13.3074
 30
0.0
 10
14.7231
 20
-13.1466
 30
0.0
 10
14.7231
 20
-13.1466
 30
0.0
 10
14.3931
 20
-13.1107
 30
0.0
 10
14.3931
 20
-13.1107
 30
0.0
 10
14.3931
 20
-13.1107
 30
0.0
 10
14.3931
 20
-12.9691
 30
0.0
 10
14.3931
 20
-12.9691
 30
0.0
 10
14.3931
 20
-12.9691
 30
0.0
 10
15.0012
 20
-12.7278
 30
0.0
 10
15.0012
 20
-12.7278
 30
0.0
 10
15.0012
 20
-12.7278
 30
0.0
 10
15.0614
 20
-12.7681
 30
0.0
 10
15.0614
 20
-12.7681
 30
0.0
 10
15.0614
 20
-12.7681
 30
0.0
 10
15.0495
 20
-13.3117
 30
0.0
 10
15.0495
 20
-13.3117
 30
0.0
 10
15.0495
 20
-13.3117
 30
0.0
 10
15.0495
 20
-13.8433
 30
0.0
 10
15.0495
 20
-13.8433
 30
0.0
 10
15.0495
 20
-14.0928
 30
0.0
 10
15.0536
 20
-14.5076
 30
0.0
 10
15.0614
 20
-14.6886
 30
0.0
 10
15.0614
 20
-14.6886
 30
0.0
 10
14.7231
 20
-14.6886
 30
0.0
 10
14.7231
 20
-14.6886
 30
0.0
  0
SPLINE
  5
9F
330
1F
100
AcDbEntity
  8
Layer 1
 62
   250
100
AcDbSpline
210
0.0
220
0.0
230
1.0
 70
    11
 71
     3
 72
    17
 73
    13
 74
     0
 42
0.0000000001
 43
0.0000000001
 40
0.0
 40
0.0
 40
0.0
 40
0.0
 40
0.25
 40
0.25
 40
0.25
 40
0.5
 40
0.5
 40
0.5
 40
0.75
 40
0.75
 40
0.75
 40
1.0
 40
1.0
 40
1.0
 40
1.0
 10
15.8191
 20
-12.0191
 30
0.0
 10
15.8191
 20
-11.866
 30
0.0
 10
15.9358
 20
-11.7656
 30
0.0
 10
16.0846
 20
-11.7656
 30
0.0
 10
16.2339
 20
-11.7656
 30
0.0
 10
16.3506
 20
-11.866
 30
0.0
 10
16.3506
 20
-12.0191
 30
0.0
 10
16.3506
 20
-12.1684
 30
0.0
 10
16.2339
 20
-12.2728
 30
0.0
 10
16.0846
 20
-12.2728
 30
0.0
 10
15.9358
 20
-12.2728
 30
0.0
 10
15.8191
 20
-12.1684
 30
0.0
 10
15.8191
 20
-12.0191
 30
0.0
  0
SPLINE
  5
A0
330
1F
100
AcDbEntity
  8
Layer 1
 62
   250
100
AcDbSpline
210
0.0
220
0.0
230
1.0
 70
    11
 71
     3
 72
    23
 73
    19
 74
     0
 42
0.0000000001
 43
0.0000000001
 40
0.0
 40
0.0
 40
0.0
 40
0.0
 40
0.1666666666666667
 40
0.1666666666666667
 40
0.1666666666666667
 40
0.3333333333333333
 40
0.3333333333333333
 40
0.3333333333333333
 40
0.5
 40
0.5
 40
0.5
 40
0.6666666666666666
 40
0.6666666666666666
 40
0.6666666666666666
 40
0.8333333333333333
 40
0.8333333333333333
 40
0.8333333333333333
 40
1.0
 40
1.0
 40
1.0
 40
1.0
 10
16.5398
 20
-14.5478
 30
0.0
 10
16.5398
 20
-14.5478
 30
0.0
 10
16.5398
 20
-14.6886
 30
0.0
 10
16.5398
 20
-14.6886
 30
0.0
 10
16.5398
 20
-14.6886
 30
0.0
 10
15.6138
 20
-14.6886
 30
0.0
 10
15.6138
 20
-14.6886
 30
0.0
 10
15.6138
 20
-14.6886
 30
0.0
 10
15.6138
 20
-14.5478
 30
0.0
 10
15.6138
 20
-14.5478
 30
0.0
 10
15.6138
 20
-14.5478
 30
0.0
 10
16.0568
 20
-14.4671
 30
0.0
 10
16.0568
 20
-14.4671
 30
0.0
 10
16.0568
 20
-14.4671
 30
0.0
 10
16.137
 20
-14.4671
 30
0.0
 10
16.137
 20
-14.4671
 30
0.0
 10
16.137
 20
-14.4671
 30
0.0
 10
16.5398
 20
-14.5478
 30
0.0
 10
16.5398
 20
-14.5478
 30
0.0
  0
SPLINE
  5
A1
330
1F
100
AcDbEntity
  8
Layer 1
 62
   250
100
AcDbSpline
210
0.0
220
0.0
230
1.0
 70
    11
 71
     3
 72
    38
 73
    34
 74
     0
 42
0.0000000001
 43
0.0000000001
 40
0.0
 40
0.0
 40
0.0
 40
0.0
 40
0.0909090909090909
 40
0.0909090909090909
 40
0.0909090909090909
 40
0.1818181818181818
 40
0.1818181818181818
 40
0.1818181818181818
 40
0.2727272727272727
 40
0.2727272727272727
 40
0.2727272727272727
 40
0.3636363636363636
 40
0.3636363636363636
 40
0.3636363636363636
 40
0.4545454545454546
 40
0.4545454545454546
 40
0.4545454545454546
 40
0.5454545454545454
 40
0.5454545454545454
 40
0.5454545454545454
 40
0.6363636363636364
 40
0.6363636363636364
 40
0.6363636363636364
 40
0.7272727272727273
 40
0.7272727272727273
 40
0.7272727272727273
 40
0.8181818181818182
 40
0.8181818181818182
 40
0.8181818181818182
 40
0.9090909090909092
 40
0.9090909090909092
 40
0.9090909090909092
 40
1.0
 40
1.0
 40
1.0
 40
1.0
 10
15.9197
 20
-14.6886
 30
0.0
 10
15.9279
 20
-14.5076
 30
0.0
 10
15.9316
 20
-14.0928
 30
0.0
 10
15.9316
 20
-13.8433
 30
0.0
 10
15.9316
 20
-13.8433
 30
0.0
 10
15.9316
 20
-13.6539
 30
0.0
 10
15.9316
 20
-13.6539
 30
0.0
 10
15.9316
 20
-13.4324
 30
0.0
 10
15.9279
 20
-13.3074
 30
0.0
 10
15.9197
 20
-13.1466
 30
0.0
 10
15.9197
 20
-13.1466
 30
0.0
 10
15.5896
 20
-13.1107
 30
0.0
 10
15.5896
 20
-13.1107
 30
0.0
 10
15.5896
 20
-13.1107
 30
0.0
 10
15.5896
 20
-12.9691
 30
0.0
 10
15.5896
 20
-12.9691
 30
0.0
 10
15.5896
 20
-12.9691
 30
0.0
 10
16.1976
 20
-12.7278
 30
0.0
 10
16.1976
 20
-12.7278
 30
0.0
 10
16.1976
 20
-12.7278
 30
0.0
 10
16.258
 20
-12.7681
 30
0.0
 10
16.258
 20
-12.7681
 30
0.0
 10
16.258
 20
-12.7681
 30
0.0
 10
16.2459
 20
-13.3117
 30
0.0
 10
16.2459
 20
-13.3117
 30
0.0
 10
16.2459
 20
-13.3117
 30
0.0
 10
16.2459
 20
-13.8433
 30
0.0
 10
16.2459
 20
-13.8433
 30
0.0
 10
16.2459
 20
-14.0928
 30
0.0
 10
16.25
 20
-14.5076
 30
0.0
 10
16.258
 20
-14.6886
 30
0.0
 10
16.258
 20
-14.6886
 30
0.0
 10
15.9197
 20
-14.6886
 30
0.0
 10
15.9197
 20
-14.6886
 30
0.0
  0
ENDSEC
  0
SECTION
  2
OBJECTS
  0
DICTIONARY
  5
C
330
0
100
AcDbDictionary
281
     1
  3
ACAD_DETAILVIEWSTYLE
350
A9
  3
ACAD_GROUP
350
D
  3
ACAD_LAYOUT
350
1A
  3
ACAD_MATERIAL
350
43
  3
ACAD_MLEADERSTYLE
350
5B
  3
ACAD_MLINESTYLE
350
17
  3
ACAD_PLOTSETTINGS
350
19
  3
ACAD_PLOTSTYLENAME
350
E
  3
ACAD_SCALELIST
350
47
  3
ACAD_SECTIONVIEWSTYLE
350
AA
  3
ACAD_TABLESTYLE
350
59
  3
ACAD_VISUALSTYLE
350
2A
  3
ACDB_RECOMPOSE_DATA
350
A6
  3
AcDbVariableDictionary
350
A2
  0
SUN
  5
5D
330
29
100
AcDbSun
 90
        1
290
     0
 63
     7
421
 16777215
 40
1.0
291
     1
 91
  2455826
 92
 54000000
292
     0
 70
     2
 71
   256
280
     1
  0
DICTIONARY
  5
A9
102
{ACAD_REACTORS
330
C
102
}
330
C
100
AcDbDictionary
281
     1
  0
DICTIONARY
  5
D
102
{ACAD_REACTORS
330
C
102
}
330
C
100
AcDbDictionary
281
     1
  0
DICTIONARY
  5
1A
102
{ACAD_REACTORS
330
C
102
}
330
C
100
AcDbDictionary
281
     1
  3
Layout1
350
1E
  3
Layout2
350
26
  3
Model
350
22
  0
DICTIONARY
  5
43
102
{ACAD_REACTORS
330
C
102
}
330
C
100
AcDbDictionary
281
     1
  3
ByBlock
350
45
  3
ByLayer
350
44
  3
Global
350
46
  0
DICTIONARY
  5
5B
102
{ACAD_REACTORS
330
C
102
}
330
C
100
AcDbDictionary
281
     1
  3
Standard
350
5C
  0
DICTIONARY
  5
17
102
{ACAD_REACTORS
330
C
102
}
330
C
100
AcDbDictionary
281
     1
  3
Standard
350
18
  0
DICTIONARY
  5
19
102
{ACAD_REACTORS
330
C
102
}
330
C
100
AcDbDictionary
281
     1
  0
ACDBDICTIONARYWDFLT
  5
E
102
{ACAD_REACTORS
330
C
102
}
330
C
100
AcDbDictionary
281
     1
  3
Normal
350
F
100
AcDbDictionaryWithDefault
340
F
  0
DICTIONARY
  5
47
102
{ACAD_REACTORS
330
C
102
}
330
C
100
AcDbDictionary
281
     1
  3
A0
350
48
  3
A1
350
49
  3
A2
350
4A
  3
A3
350
4B
  3
A4
350
4C
  3
A5
350
4D
  3
A6
350
4E
  3
A7
350
4F
  3
A8
350
50
  3
A9
350
51
  3
B1
350
52
  3
B2
350
53
  3
B3
350
54
  3
B4
350
55
  3
B5
350
56
  3
B6
350
57
  3
B7
350
58
  0
DICTIONARY
  5
AA
102
{ACAD_REACTORS
330
C
102
}
330
C
100
AcDbDictionary
281
     1
  0
DICTIONARY
  5
59
102
{ACAD_REACTORS
330
C
102
}
330
C
100
AcDbDictionary
281
     1
  3
Standard
350
5A
  0
DICTIONARY
  5
2A
102
{ACAD_REACTORS
330
C
102
}
330
C
100
AcDbDictionary
281
     1
  3
2dWireframe
350
2F
  3
Basic
350
32
  3
Brighten
350
36
  3
ColorChange
350
3A
  3
Conceptual
350
34
  3
Dim
350
35
  3
EdgeColorOff
350
3D
  3
Facepattern
350
39
  3
Flat
350
2B
  3
FlatWithEdges
350
2C
  3
Gouraud
350
2D
  3
GouraudWithEdges
350
2E
  3
Hidden
350
31
  3
JitterOff
350
3B
  3
Linepattern
350
38
  3
OverhangOff
350
3C
  3
Realistic
350
33
  3
Shaded
350
42
  3
Shaded with edges
350
41
  3
Shades of Gray
350
3E
  3
Sketchy
350
3F
  3
Thicken
350
37
  3
Wireframe
350
30
  3
X-Ray
350
40
  0
XRECORD
  5
A6
102
{ACAD_REACTORS
330
C
102
}
330
C
100
AcDbXrecord
280
     1
 90
        1
330
5A
  0
DICTIONARY
  5
A2
102
{ACAD_REACTORS
330
C
102
}
330
C
100
AcDbDictionary
281
     1
  3
CANNOSCALE
350
A3
  3
CMLEADERSTYLE
350
A8
  3
CTABLESTYLE
350
A7
  0
LAYOUT
  5
1E
102
{ACAD_REACTORS
330
1A
102
}
330
1A
100
AcDbPlotSettings
  1

  2
none_device
  4

  6

 40
0.0
 41
0.0
 42
0.0
 43
0.0
 44
0.0
 45
0.0
 46
0.0
 47
0.0
 48
0.0
 49
0.0
140
0.0
141
0.0
142
1.0
143
1.0
 70
   688
 72
     0
 73
     0
 74
     5
  7

 75
    16
 76
     0
 77
     2
 78
   300
147
1.0
148
0.0
149
0.0
100
AcDbLayout
  1
Layout1
 70
     1
 71
     1
 10
0.0
 20
0.0
 11
12.0
 21
9.0
 12
0.0
 22
0.0
 32
0.0
 14
1.000000000000000E+20
 24
1.000000000000000E+20
 34
1.000000000000000E+20
 15
-1.000000000000000E+20
 25
-1.000000000000000E+20
 35
-1.000000000000000E+20
146
0.0
 13
0.0
 23
0.0
 33
0.0
 16
1.0
 26
0.0
 36
0.0
 17
0.0
 27
1.0
 37
0.0
 76
     0
330
1B
  0
LAYOUT
  5
26
102
{ACAD_REACTORS
330
1A
102
}
330
1A
100
AcDbPlotSettings
  1

  2
none_device
  4

  6

 40
0.0
 41
0.0
 42
0.0
 43
0.0
 44
0.0
 45
0.0
 46
0.0
 47
0.0
 48
0.0
 49
0.0
140
0.0
141
0.0
142
1.0
143
1.0
 70
   688
 72
     0
 73
     0
 74
     5
  7

 75
    16
 76
     0
 77
     2
 78
   300
147
1.0
148
0.0
149
0.0
100
AcDbLayout
  1
Layout2
 70
     1
 71
     2
 10
0.0
 20
0.0
 11
0.0
 21
0.0
 12
0.0
 22
0.0
 32
0.0
 14
0.0
 24
0.0
 34
0.0
 15
0.0
 25
0.0
 35
0.0
146
0.0
 13
0.0
 23
0.0
 33
0.0
 16
1.0
 26
0.0
 36
0.0
 17
0.0
 27
1.0
 37
0.0
 76
     0
330
23
  0
LAYOUT
  5
22
102
{ACAD_REACTORS
330
1A
102
}
330
1A
100
AcDbPlotSettings
  1

  2
none_device
  4
Letter_(8.50_x_11.00_Inches)
  6

 40
6.35
 41
6.35
 42
6.35000508
 43
6.35000508
 44
215.9
 45
279.4
 46
0.0
 47
0.0
 48
0.0
 49
0.0
140
0.0
141
0.0
142
1.0
143
1.0
 70
  1712
 72
     0
 73
     0
 74
     0
  7

 75
     0
 76
     0
 77
     2
 78
   300
147
1.0
148
0.0
149
0.0
100
AcDbLayout
  1
Model
 70
     1
 71
     0
 10
0.0
 20
0.0
 11
12.0
 21
9.0
 12
0.0
 22
0.0
 32
0.0
 14
-17.1097
 24
-15.4927
 34
0.0
 15
16.5398
 25
14.7798
 35
0.0
146
0.0
 13
0.0
 23
0.0
 33
0.0
 16
1.0
 26
0.0
 36
0.0
 17
0.0
 27
1.0
 37
0.0
 76
     0
330
1F
331
29
  0
MATERIAL
  5
45
102
{ACAD_REACTORS
330
43
102
}
330
43
100
AcDbMaterial
  1
ByBlock
 72
     1
 94
      127
  0
MATERIAL
  5
44
102
{ACAD_REACTORS
330
43
102
}
330
43
100
AcDbMaterial
  1
ByLayer
 72
     1
 94
      127
  0
MATERIAL
  5
46
102
{ACAD_REACTORS
330
43
102
}
330
43
100
AcDbMaterial
  1
Global
 72
     1
 94
      127
  0
MLEADERSTYLE
  5
5C
102
{ACAD_REACTORS
330
5B
102
}
330
5B
100
AcDbMLeaderStyle
179
     2
170
     2
171
     1
172
     0
 90
        2
 40
0.0
 41
0.0
173
     1
 91
-1056964608
340
14
 92
       -2
290
     1
 42
0.09
291
     1
 43
0.36
  3
Standard
341
0
 44
0.18
300

342
11
174
     1
178
     6
175
     1
176
     0
 93
-1056964608
 45
0.18
292
     0
297
     0
 46
0.18
343
0
 94
-1056964608
 47
1.0
 49
1.0
140
1.0
293
     1
141
0.0
294
     1
177
     0
142
1.0
295
     0
296
     0
143
0.125
271
     0
272
     9
273
     9
298
     0
  0
MLINESTYLE
  5
18
102
{ACAD_REACTORS
330
17
102
}
330
17
100
AcDbMlineStyle
  2
Standard
 70
     0
  3

 62
   256
 51
90.0
 52
90.0
 71
     2
 49
0.5
 62
   256
  6
BYLAYER
 49
-0.5
 62
   256
  6
BYLAYER
  0
ACDBPLACEHOLDER
  5
F
102
{ACAD_REACTORS
330
E
102
}
330
E
  0
SCALE
  5
48
102
{ACAD_REACTORS
330
47
102
}
330
47
100
AcDbScale
 70
     0
300
1:1
140
1.0
141
1.0
290
     1
  0
SCALE
  5
49
102
{ACAD_REACTORS
330
47
102
}
330
47
100
AcDbScale
 70
     0
300
1/128" = 1'-0"
140
0.0078125
141
12.0
290
     0
  0
SCALE
  5
4A
102
{ACAD_REACTORS
330
47
102
}
330
47
100
AcDbScale
 70
     0
300
1/64" = 1'-0"
140
0.015625
141
12.0
290
     0
  0
SCALE
  5
4B
102
{ACAD_REACTORS
330
47
102
}
330
47
100
AcDbScale
 70
     0
300
1/32" = 1'-0"
140
0.03125
141
12.0
290
     0
  0
SCALE
  5
4C
102
{ACAD_REACTORS
330
47
102
}
330
47
100
AcDbScale
 70
     0
300
1/16" = 1'-0"
140
0.0625
141
12.0
290
     0
  0
SCALE
  5
4D
102
{ACAD_REACTORS
330
47
102
}
330
47
100
AcDbScale
 70
     0
300
3/32" = 1'-0"
140
0.09375
141
12.0
290
     0
  0
SCALE
  5
4E
102
{ACAD_REACTORS
330
47
102
}
330
47
100
AcDbScale
 70
     0
300
1/8" = 1'-0"
140
0.125
141
12.0
290
     0
  0
SCALE
  5
4F
102
{ACAD_REACTORS
330
47
102
}
330
47
100
AcDbScale
 70
     0
300
3/16" = 1'-0"
140
0.1875
141
12.0
290
     0
  0
SCALE
  5
50
102
{ACAD_REACTORS
330
47
102
}
330
47
100
AcDbScale
 70
     0
300
1/4" = 1'-0"
140
0.25
141
12.0
290
     0
  0
SCALE
  5
51
102
{ACAD_REACTORS
330
47
102
}
330
47
100
AcDbScale
 70
     0
300
3/8" = 1'-0"
140
0.375
141
12.0
290
     0
  0
SCALE
  5
52
102
{ACAD_REACTORS
330
47
102
}
330
47
100
AcDbScale
 70
     0
300
1/2" = 1'-0"
140
0.5
141
12.0
290
     0
  0
SCALE
  5
53
102
{ACAD_REACTORS
330
47
102
}
330
47
100
AcDbScale
 70
     0
300
3/4" = 1'-0"
140
0.75
141
12.0
290
     0
  0
SCALE
  5
54
102
{ACAD_REACTORS
330
47
102
}
330
47
100
AcDbScale
 70
     0
300
1" = 1'-0"
140
1.0
141
12.0
290
     0
  0
SCALE
  5
55
102
{ACAD_REACTORS
330
47
102
}
330
47
100
AcDbScale
 70
     0
300
1-1/2" = 1'-0"
140
1.5
141
12.0
290
     0
  0
SCALE
  5
56
102
{ACAD_REACTORS
330
47
102
}
330
47
100
AcDbScale
 70
     0
300
3" = 1'-0"
140
3.0
141
12.0
290
     0
  0
SCALE
  5
57
102
{ACAD_REACTORS
330
47
102
}
330
47
100
AcDbScale
 70
     0
300
6" = 1'-0"
140
6.0
141
12.0
290
     0
  0
SCALE
  5
58
102
{ACAD_REACTORS
330
47
102
}
330
47
100
AcDbScale
 70
     0
300
1'-0" = 1'-0"
140
12.0
141
12.0
290
     0
  0
TABLESTYLE
  5
5A
102
{ACAD_REACTORS
330
59
102
}
102
{ACAD_XDICTIONARY
360
A4
102
}
330
59
100
AcDbTableStyle
  3
Standard
 70
     0
 71
     0
 40
0.06
 41
0.06
280
     0
281
     0
  7
Standard
140
0.18
170
     2
 62
     0
 63
   257
283
     0
 90
        4
 91
        0
  1

274
    -2
284
     1
 64
     0
275
    -2
285
     1
 65
     0
276
    -2
286
     1
 66
     0
277
    -2
287
     1
 67
     0
278
    -2
288
     1
 68
     0
279
    -2
289
     1
 69
     0
  7
Standard
140
0.25
170
     5
 62
     0
 63
   257
283
     0
 90
        4
 91
        0
  1

274
    -2
284
     1
 64
     0
275
    -2
285
     1
 65
     0
276
    -2
286
     1
 66
     0
277
    -2
287
     1
 67
     0
278
    -2
288
     1
 68
     0
279
    -2
289
     1
 69
     0
  7
Standard
140
0.18
170
     5
 62
     0
 63
   257
283
     0
 90
        4
 91
        0
  1

274
    -2
284
     1
 64
     0
275
    -2
285
     1
 65
     0
276
    -2
286
     1
 66
     0
277
    -2
287
     1
 67
     0
278
    -2
288
     1
 68
     0
279
    -2
289
     1
 69
     0
  0
VISUALSTYLE
  5
2F
102
{ACAD_REACTORS
330
2A
102
}
330
2A
100
AcDbVisualStyle
  2
2dWireframe
 70
     4
177
     3
291
     0
 70
    58
 90
        0
176
     1
 90
        2
176
     1
 90
        0
176
     1
 90
        0
176
     1
 40
0.6
176
     1
 40
30.0
176
     1
 62
     7
420
 16777215
176
     1
 90
        1
176
     1
 90
        4
176
     1
 62
     7
176
     1
 62
   257
176
     1
 90
        1
176
     1
 90
        1
176
     1
 40
1.0
176
     1
 90
        0
176
     1
 62
   257
176
     1
 40
1.0
176
     1
 90
        1
176
     1
 90
        6
176
     1
 90
        2
176
     1
 62
     7
176
     1
 90
        5
176
     1
 90
        0
176
     1
 90
        0
176
     1
290
     0
176
     1
 90
        1
176
     1
 40
0.0
176
     1
 90
        0
176
     1
290
     1
176
     1
290
     1
176
     1
290
     0
176
     1
290
     0
176
     1
290
     0
176
     1
290
     0
176
     1
290
     0
176
     1
290
     0
176
     1
290
     0
176
     1
 90
       50
176
     1
 40
0.0
176
     1
 40
1.0
176
     1
 90
        0
176
     1
 62
    18
420
        0
176
     1
 90
       50
176
     1
 90
        3
176
     1
 62
     5
420
      255
176
     1
290
     0
176
     1
 90
       50
176
     1
 90
       50
176
     1
 90
       50
176
     1
290
     0
176
     1
 90
       50
176
     1
 62
   256
176
     0
 40
1.0
176
     0
 90
        2
176
     1
  1
strokes_ogs.tif
176
     1
290
     0
176
     1
 40
1.0
176
     1
 40
1.0
176
     1
  0
VISUALSTYLE
  5
32
102
{ACAD_REACTORS
330
2A
102
}
330
2A
100
AcDbVisualStyle
  2
Basic
 70
     7
177
     3
291
     1
 70
    58
 90
        1
176
     1
 90
        0
176
     1
 90
        1
176
     1
 90
        0
176
     1
 40
0.6
176
     1
 40
30.0
176
     1
 62
     7
420
 16777215
176
     1
 90
        0
176
     1
 90
        4
176
     1
 62
     7
176
     1
 62
   257
176
     1
 90
        1
176
     1
 90
        1
176
     1
 40
1.0
176
     1
 90
        8
176
     1
 62
     7
176
     1
 40
1.0
176
     1
 90
        1
176
     1
 90
        6
176
     1
 90
        2
176
     1
 62
     7
176
     1
 90
        5
176
     1
 90
        0
176
     1
 90
        0
176
     1
290
     0
176
     1
 90
        1
176
     1
 40
0.0
176
     1
 90
        0
176
     1
290
     0
176
     1
290
     1
176
     1
290
     1
176
     1
290
     0
176
     1
290
     0
176
     1
290
     0
176
     1
290
     0
176
     1
290
     0
176
     1
290
     0
176
     1
 90
       50
176
     1
 40
0.0
176
     1
 40
1.0
176
     1
 90
        0
176
     1
 62
    18
420
        0
176
     1
 90
       50
176
     1
 90
        3
176
     1
 62
     5
420
      255
176
     1
290
     0
176
     1
 90
       50
176
     1
 90
       50
176
     1
 90
       50
176
     1
290
     0
176
     1
 90
       50
176
     1
 62
   256
176
     0
 40
1.0
176
     0
 90
        2
176
     1
  1
strokes_ogs.tif
176
     1
290
     0
176
     1
 40
1.0
176
     1
 40
1.0
176
     1
  0
VISUALSTYLE
  5
36
102
{ACAD_REACTORS
330
2A
102
}
330
2A
100
AcDbVisualStyle
  2
Brighten
 70
    12
177
     3
291
     1
 70
    58
 90
        2
176
     1
 90
        2
176
     1
 90
        0
176
     1
 90
        0
176
     1
 40
0.6
176
     1
 40
30.0
176
     1
 62
     7
420
 16777215
176
     1
 90
        1
176
     1
 90
        4
176
     1
 62
     7
176
     1
 62
   257
176
     1
 90
        1
176
     1
 90
        1
176
     1
 40
1.0
176
     1
 90
        8
176
     1
 62
     7
176
     1
 40
1.0
176
     1
 90
        1
176
     1
 90
        6
176
     1
 90
        2
176
     1
 62
     7
176
     1
 90
        5
176
     1
 90
        0
176
     1
 90
        0
176
     1
290
     0
176
     1
 90
        1
176
     1
 40
50.0
176
     1
 90
        0
176
     1
290
     0
176
     1
290
     1
176
     1
290
     1
176
     1
290
     0
176
     1
290
     0
176
     1
290
     0
176
     1
290
     0
176
     1
290
     0
176
     1
290
     0
176
     1
 90
       50
176
     1
 40
0.0
176
     1
 40
1.0
176
     1
 90
        0
176
     1
 62
    18
420
        0
176
     1
 90
       50
176
     1
 90
        3
176
     1
 62
     5
420
      255
176
     1
290
     0
176
     1
 90
       50
176
     1
 90
       50
176
     1
 90
       50
176
     1
290
     0
176
     1
 90
       50
176
     1
 62
   256
176
     0
 40
1.0
176
     0
 90
        2
176
     1
  1
strokes_ogs.tif
176
     1
290
     0
176
     1
 40
1.0
176
     1
 40
1.0
176
     1
  0
VISUALSTYLE
  5
3A
102
{ACAD_REACTORS
330
2A
102
}
330
2A
100
AcDbVisualStyle
  2
ColorChange
 70
    16
177
     3
291
     1
 70
    58
 90
        2
176
     1
 90
        2
176
     1
 90
        3
176
     1
 90
        0
176
     1
 40
0.6
176
     1
 40
30.0
176
     1
 62
     8
420
  8421504
176
     1
 90
        1
176
     1
 90
        4
176
     1
 62
     7
176
     1
 62
   257
176
     1
 90
        1
176
     1
 90
        1
176
     1
 40
1.0
176
     1
 90
        8
176
     1
 62
     8
420
  8421504
176
     1
 40
1.0
176
     1
 90
        1
176
     1
 90
        6
176
     1
 90
        2
176
     1
 62
     7
176
     1
 90
        5
176
     1
 90
        0
176
     1
 90
        0
176
     1
290
     0
176
     1
 90
        1
176
     1
 40
0.0
176
     1
 90
        0
176
     1
290
     0
176
     1
290
     1
176
     1
290
     1
176
     1
290
     0
176
     1
290
     0
176
     1
290
     0
176
     1
290
     0
176
     1
290
     0
176
     1
290
     0
176
     1
 90
       50
176
     1
 40
0.0
176
     1
 40
1.0
176
     1
 90
        0
176
     1
 62
    18
420
        0
176
     1
 90
       50
176
     1
 90
        3
176
     1
 62
     5
420
      255
176
     1
290
     0
176
     1
 90
       50
176
     1
 90
       50
176
     1
 90
       50
176
     1
290
     0
176
     1
 90
       50
176
     1
 62
   256
176
     0
 40
1.0
176
     0
 90
        2
176
     1
  1
strokes_ogs.tif
176
     1
290
     0
176
     1
 40
1.0
176
     1
 40
1.0
176
     1
  0
VISUALSTYLE
  5
34
102
{ACAD_REACTORS
330
2A
102
}
330
2A
100
AcDbVisualStyle
  2
Conceptual
 70
     9
177
     3
291
     0
 70
    58
 90
        3
176
     1
 90
        2
176
     1
 90
        0
176
     1
 90
        0
176
     1
 40
0.6
176
     1
 40
30.0
176
     1
 62
     7
420
 16777215
176
     1
 90
        2
176
     1
 90
        2
176
     1
 62
     7
176
     1
 62
   257
176
     1
 90
        1
176
     1
 90
        1
176
     1
 40
179.0
176
     1
 90
        8
176
     1
 62
     7
176
     1
 40
1.0
176
     1
 90
        1
176
     1
 90
        6
176
     1
 90
        2
176
     1
 62
     7
176
     1
 90
        3
176
     1
 90
        0
176
     1
 90
        0
176
     1
290
     0
176
     1
 90
        1
176
     1
 40
0.0
176
     1
 90
        0
176
     1
290
     0
176
     1
290
     1
176
     1
290
     1
176
     1
290
     0
176
     1
290
     0
176
     1
290
     0
176
     1
290
     0
176
     1
290
     0
176
     1
290
     0
176
     1
 90
       50
176
     1
 40
0.0
176
     1
 40
1.0
176
     1
 90
        0
176
     1
 62
    18
420
        0
176
     1
 90
       50
176
     1
 90
        3
176
     1
 62
     5
420
      255
176
     1
290
     0
176
     1
 90
       50
176
     1
 90
       50
176
     1
 90
       50
176
     1
290
     0
176
     1
 90
       50
176
     1
 62
   256
176
     0
 40
1.0
176
     0
 90
        2
176
     1
  1
strokes_ogs.tif
176
     1
290
     0
176
     1
 40
1.0
176
     1
 40
1.0
176
     1
  0
VISUALSTYLE
  5
35
102
{ACAD_REACTORS
330
2A
102
}
330
2A
100
AcDbVisualStyle
  2
Dim
 70
    11
177
     3
291
     1
 70
    58
 90
        2
176
     1
 90
        2
176
     1
 90
        0
176
     1
 90
        0
176
     1
 40
0.6
176
     1
 40
30.0
176
     1
 62
     7
420
 16777215
176
     1
 90
        1
176
     1
 90
        4
176
     1
 62
     7
176
     1
 62
   257
176
     1
 90
        1
176
     1
 90
        1
176
     1
 40
1.0
176
     1
 90
        8
176
     1
 62
     7
176
     1
 40
1.0
176
     1
 90
        1
176
     1
 90
        6
176
     1
 90
        2
176
     1
 62
     7
176
     1
 90
        5
176
     1
 90
        0
176
     1
 90
        0
176
     1
290
     0
176
     1
 90
        1
176
     1
 40
-50.0
176
     1
 90
        0
176
     1
290
     0
176
     1
290
     1
176
     1
290
     1
176
     1
290
     0
176
     1
290
     0
176
     1
290
     0
176
     1
290
     0
176
     1
290
     0
176
     1
290
     0
176
     1
 90
       50
176
     1
 40
0.0
176
     1
 40
1.0
176
     1
 90
        0
176
     1
 62
    18
420
        0
176
     1
 90
       50
176
     1
 90
        3
176
     1
 62
     5
420
      255
176
     1
290
     0
176
     1
 90
       50
176
     1
 90
       50
176
     1
 90
       50
176
     1
290
     0
176
     1
 90
       50
176
     1
 62
   256
176
     0
 40
1.0
176
     0
 90
        2
176
     1
  1
strokes_ogs.tif
176
     1
290
     0
176
     1
 40
1.0
176
     1
 40
1.0
176
     1
  0
VISUALSTYLE
  5
3D
102
{ACAD_REACTORS
330
2A
102
}
330
2A
100
AcDbVisualStyle
  2
EdgeColorOff
 70
    22
177
     3
291
     1
 70
    58
 90
        2
176
     0
 90
        2
176
     0
 90
        0
176
     0
 90
        0
176
     0
 40
0.6
176
     0
 40
30.0
176
     0
 62
     7
420
 16777215
176
     0
 90
        1
176
     0
 90
        4
176
     0
 62
     7
176
     0
 62
   257
176
     0
 90
        1
176
     0
 90
        1
176
     0
 40
1.0
176
     0
 90
        8
176
     2
 62
     7
176
     0
 40
1.0
176
     0
 90
        1
176
     0
 90
        6
176
     0
 90
        2
176
     0
 62
     7
176
     0
 90
        5
176
     0
 90
        0
176
     0
 90
        0
176
     0
290
     0
176
     0
 90
        1
176
     0
 40
0.0
176
     0
 90
        0
176
     0
290
     0
176
     0
290
     1
176
     0
290
     1
176
     0
290
     0
176
     0
290
     0
176
     0
290
     0
176
     0
290
     0
176
     0
290
     0
176
     0
290
     0
176
     0
 90
       50
176
     0
 40
0.0
176
     0
 40
1.0
176
     0
 90
        0
176
     0
 62
    18
420
        0
176
     0
 90
       50
176
     0
 90
        3
176
     0
 62
     5
420
      255
176
     0
290
     0
176
     0
 90
       50
176
     0
 90
       50
176
     0
 90
       50
176
     0
290
     0
176
     0
 90
       50
176
     0
 62
   256
176
     0
 40
1.0
176
     0
 90
        2
176
     0
  1
strokes_ogs.tif
176
     0
290
     0
176
     0
 40
1.0
176
     0
 40
1.0
176
     0
  0
VISUALSTYLE
  5
39
102
{ACAD_REACTORS
330
2A
102
}
330
2A
100
AcDbVisualStyle
  2
Facepattern
 70
    15
177
     3
291
     1
 70
    58
 90
        2
176
     1
 90
        2
176
     1
 90
        0
176
     1
 90
        0
176
     1
 40
0.6
176
     1
 40
30.0
176
     1
 62
     7
420
 16777215
176
     1
 90
        1
176
     1
 90
        4
176
     1
 62
     7
176
     1
 62
   257
176
     1
 90
        1
176
     1
 90
        1
176
     1
 40
1.0
176
     1
 90
        8
176
     1
 62
     7
176
     1
 40
1.0
176
     1
 90
        1
176
     1
 90
        6
176
     1
 90
        2
176
     1
 62
     7
176
     1
 90
        5
176
     1
 90
        0
176
     1
 90
        0
176
     1
290
     0
176
     1
 90
        1
176
     1
 40
0.0
176
     1
 90
        0
176
     1
290
     0
176
     1
290
     1
176
     1
290
     1
176
     1
290
     0
176
     1
290
     0
176
     1
290
     0
176
     1
290
     0
176
     1
290
     0
176
     1
290
     0
176
     1
 90
       50
176
     1
 40
0.0
176
     1
 40
1.0
176
     1
 90
        0
176
     1
 62
    18
420
        0
176
     1
 90
       50
176
     1
 90
        3
176
     1
 62
     5
420
      255
176
     1
290
     0
176
     1
 90
       50
176
     1
 90
       50
176
     1
 90
       50
176
     1
290
     0
176
     1
 90
       50
176
     1
 62
   256
176
     0
 40
1.0
176
     0
 90
        2
176
     1
  1
strokes_ogs.tif
176
     1
290
     0
176
     1
 40
1.0
176
     1
 40
1.0
176
     1
  0
VISUALSTYLE
  5
2B
102
{ACAD_REACTORS
330
2A
102
}
330
2A
100
AcDbVisualStyle
  2
Flat
 70
     0
177
     3
291
     1
 70
    58
 90
        2
176
     1
 90
        1
176
     1
 90
        1
176
     1
 90
        2
176
     1
 40
0.6
176
     1
 40
30.0
176
     1
 62
     7
420
 16777215
176
     1
 90
        0
176
     1
 90
        0
176
     1
 62
     7
176
     1
 62
   257
176
     1
 90
        1
176
     1
 90
        1
176
     1
 40
1.0
176
     1
 90
        8
176
     1
 62
     7
176
     1
 40
1.0
176
     1
 90
        1
176
     1
 90
        6
176
     1
 90
        2
176
     1
 62
     7
176
     1
 90
        5
176
     1
 90
        0
176
     1
 90
        0
176
     1
290
     0
176
     1
 90
       13
176
     1
 40
0.0
176
     1
 90
        0
176
     1
290
     0
176
     1
290
     1
176
     1
290
     1
176
     1
290
     0
176
     1
290
     0
176
     1
290
     0
176
     1
290
     0
176
     1
290
     0
176
     1
290
     0
176
     1
 90
       50
176
     1
 40
0.0
176
     1
 40
1.0
176
     1
 90
        0
176
     1
 62
    18
420
        0
176
     1
 90
       50
176
     1
 90
        3
176
     1
 62
     5
420
      255
176
     1
290
     0
176
     1
 90
       50
176
     1
 90
       50
176
     1
 90
       50
176
     1
290
     0
176
     1
 90
       50
176
     1
 62
   256
176
     0
 40
1.0
176
     0
 90
        2
176
     1
  1
strokes_ogs.tif
176
     1
290
     0
176
     1
 40
1.0
176
     1
 40
1.0
176
     1
  0
VISUALSTYLE
  5
2C
102
{ACAD_REACTORS
330
2A
102
}
330
2A
100
AcDbVisualStyle
  2
FlatWithEdges
 70
     1
177
     3
291
     1
 70
    58
 90
        2
176
     1
 90
        1
176
     1
 90
        1
176
     1
 90
        2
176
     1
 40
0.6
176
     1
 40
30.0
176
     1
 62
     7
420
 16777215
176
     1
 90
        1
176
     1
 90
        0
176
     1
 62
     7
176
     1
 62
   257
176
     1
 90
        1
176
     1
 90
        1
176
     1
 40
1.0
176
     1
 90
        0
176
     1
 62
   257
176
     1
 40
1.0
176
     1
 90
        1
176
     1
 90
        6
176
     1
 90
        2
176
     1
 62
     7
176
     1
 90
        5
176
     1
 90
        0
176
     1
 90
        0
176
     1
290
     0
176
     1
 90
       13
176
     1
 40
0.0
176
     1
 90
        0
176
     1
290
     0
176
     1
290
     1
176
     1
290
     1
176
     1
290
     0
176
     1
290
     0
176
     1
290
     0
176
     1
290
     0
176
     1
290
     0
176
     1
290
     0
176
     1
 90
       50
176
     1
 40
0.0
176
     1
 40
1.0
176
     1
 90
        0
176
     1
 62
    18
420
        0
176
     1
 90
       50
176
     1
 90
        3
176
     1
 62
     5
420
      255
176
     1
290
     0
176
     1
 90
       50
176
     1
 90
       50
176
     1
 90
       50
176
     1
290
     0
176
     1
 90
       50
176
     1
 62
   256
176
     0
 40
1.0
176
     0
 90
        2
176
     1
  1
strokes_ogs.tif
176
     1
290
     0
176
     1
 40
1.0
176
     1
 40
1.0
176
     1
  0
VISUALSTYLE
  5
2D
102
{ACAD_REACTORS
330
2A
102
}
330
2A
100
AcDbVisualStyle
  2
Gouraud
 70
     2
177
     3
291
     1
 70
    58
 90
        2
176
     1
 90
        2
176
     1
 90
        1
176
     1
 90
        2
176
     1
 40
0.6
176
     1
 40
30.0
176
     1
 62
     7
420
 16777215
176
     1
 90
        0
176
     1
 90
        0
176
     1
 62
     7
176
     1
 62
   257
176
     1
 90
        1
176
     1
 90
        1
176
     1
 40
1.0
176
     1
 90
        0
176
     1
 62
     7
176
     1
 40
1.0
176
     1
 90
        1
176
     1
 90
        6
176
     1
 90
        2
176
     1
 62
     7
176
     1
 90
        5
176
     1
 90
        0
176
     1
 90
        0
176
     1
290
     0
176
     1
 90
       13
176
     1
 40
0.0
176
     1
 90
        0
176
     1
290
     0
176
     1
290
     1
176
     1
290
     1
176
     1
290
     0
176
     1
290
     0
176
     1
290
     0
176
     1
290
     0
176
     1
290
     0
176
     1
290
     0
176
     1
 90
       50
176
     1
 40
0.0
176
     1
 40
1.0
176
     1
 90
        0
176
     1
 62
    18
420
        0
176
     1
 90
       50
176
     1
 90
        3
176
     1
 62
     5
420
      255
176
     1
290
     0
176
     1
 90
       50
176
     1
 90
       50
176
     1
 90
       50
176
     1
290
     0
176
     1
 90
       50
176
     1
 62
   256
176
     0
 40
1.0
176
     0
 90
        2
176
     1
  1
strokes_ogs.tif
176
     1
290
     0
176
     1
 40
1.0
176
     1
 40
1.0
176
     1
  0
VISUALSTYLE
  5
2E
102
{ACAD_REACTORS
330
2A
102
}
330
2A
100
AcDbVisualStyle
  2
GouraudWithEdges
 70
     3
177
     3
291
     1
 70
    58
 90
        2
176
     1
 90
        2
176
     1
 90
        1
176
     1
 90
        2
176
     1
 40
0.6
176
     1
 40
30.0
176
     1
 62
     7
420
 16777215
176
     1
 90
        1
176
     1
 90
        0
176
     1
 62
     7
176
     1
 62
   257
176
     1
 90
        1
176
     1
 90
        1
176
     1
 40
1.0
176
     1
 90
        0
176
     1
 62
   257
176
     1
 40
1.0
176
     1
 90
        1
176
     1
 90
        6
176
     1
 90
        2
176
     1
 62
     7
176
     1
 90
        5
176
     1
 90
        0
176
     1
 90
        0
176
     1
290
     0
176
     1
 90
       13
176
     1
 40
0.0
176
     1
 90
        0
176
     1
290
     0
176
     1
290
     1
176
     1
290
     1
176
     1
290
     0
176
     1
290
     0
176
     1
290
     0
176
     1
290
     0
176
     1
290
     0
176
     1
290
     0
176
     1
 90
       50
176
     1
 40
0.0
176
     1
 40
1.0
176
     1
 90
        0
176
     1
 62
    18
420
        0
176
     1
 90
       50
176
     1
 90
        3
176
     1
 62
     5
420
      255
176
     1
290
     0
176
     1
 90
       50
176
     1
 90
       50
176
     1
 90
       50
176
     1
290
     0
176
     1
 90
       50
176
     1
 62
   256
176
     0
 40
1.0
176
     0
 90
        2
176
     1
  1
strokes_ogs.tif
176
     1
290
     0
176
     1
 40
1.0
176
     1
 40
1.0
176
     1
  0
VISUALSTYLE
  5
31
102
{ACAD_REACTORS
330
2A
102
}
330
2A
100
AcDbVisualStyle
  2
Hidden
 70
     6
177
     3
291
     0
 70
    58
 90
        1
176
     1
 90
        2
176
     1
 90
        2
176
     1
 90
        0
176
     1
 40
0.6
176
     1
 40
30.0
176
     1
 62
     7
420
 16777215
176
     1
 90
        2
176
     1
 90
        2
176
     1
 62
     7
176
     1
 62
   257
176
     1
 90
        2
176
     1
 90
        1
176
     1
 40
40.0
176
     1
 90
        0
176
     1
 62
   257
176
     1
 40
1.0
176
     1
 90
        1
176
     1
 90
        6
176
     1
 90
        2
176
     1
 62
     7
176
     1
 90
        3
176
     1
 90
        0
176
     1
 90
        0
176
     1
290
     0
176
     1
 90
        1
176
     1
 40
0.0
176
     1
 90
        0
176
     1
290
     0
176
     1
290
     1
176
     1
290
     1
176
     1
290
     0
176
     1
290
     0
176
     1
290
     0
176
     1
290
     0
176
     1
290
     0
176
     1
290
     0
176
     1
 90
       50
176
     1
 40
0.0
176
     1
 40
1.0
176
     1
 90
        0
176
     1
 62
    18
420
        0
176
     1
 90
       50
176
     1
 90
        3
176
     1
 62
     5
420
      255
176
     1
290
     0
176
     1
 90
       50
176
     1
 90
       50
176
     1
 90
       50
176
     1
290
     0
176
     1
 90
       50
176
     1
 62
   256
176
     0
 40
1.0
176
     0
 90
        2
176
     1
  1
strokes_ogs.tif
176
     1
290
     0
176
     1
 40
1.0
176
     1
 40
1.0
176
     1
  0
VISUALSTYLE
  5
3B
102
{ACAD_REACTORS
330
2A
102
}
330
2A
100
AcDbVisualStyle
  2
JitterOff
 70
    20
177
     3
291
     1
 70
    58
 90
        2
176
     0
 90
        2
176
     0
 90
        0
176
     0
 90
        0
176
     0
 40
0.6
176
     0
 40
30.0
176
     0
 62
     7
420
 16777215
176
     0
 90
        1
176
     0
 90
        4
176
     0
 62
     7
176
     0
 62
   257
176
     0
 90
        1
176
     0
 90
        1
176
     0
 40
1.0
176
     0
 90
       10
176
     2
 62
     7
176
     0
 40
1.0
176
     0
 90
        1
176
     0
 90
        6
176
     0
 90
        2
176
     0
 62
     7
176
     0
 90
        5
176
     0
 90
        0
176
     0
 90
        0
176
     0
290
     0
176
     0
 90
        1
176
     0
 40
0.0
176
     0
 90
        0
176
     0
290
     0
176
     0
290
     1
176
     0
290
     1
176
     0
290
     0
176
     0
290
     0
176
     0
290
     0
176
     0
290
     0
176
     0
290
     0
176
     0
290
     0
176
     0
 90
       50
176
     0
 40
0.0
176
     0
 40
1.0
176
     0
 90
        0
176
     0
 62
    18
420
        0
176
     0
 90
       50
176
     0
 90
        3
176
     0
 62
     5
420
      255
176
     0
290
     0
176
     0
 90
       50
176
     0
 90
       50
176
     0
 90
       50
176
     0
290
     0
176
     0
 90
       50
176
     0
 62
   256
176
     0
 40
1.0
176
     0
 90
        2
176
     0
  1
strokes_ogs.tif
176
     0
290
     0
176
     0
 40
1.0
176
     0
 40
1.0
176
     0
  0
VISUALSTYLE
  5
38
102
{ACAD_REACTORS
330
2A
102
}
330
2A
100
AcDbVisualStyle
  2
Linepattern
 70
    14
177
     3
291
     1
 70
    58
 90
        2
176
     1
 90
        2
176
     1
 90
        0
176
     1
 90
        0
176
     1
 40
0.6
176
     1
 40
30.0
176
     1
 62
     7
420
 16777215
176
     1
 90
        1
176
     1
 90
        4
176
     1
 62
     7
176
     1
 62
   257
176
     1
 90
        7
176
     1
 90
        7
176
     1
 40
1.0
176
     1
 90
        8
176
     1
 62
     7
176
     1
 40
1.0
176
     1
 90
        1
176
     1
 90
        6
176
     1
 90
        2
176
     1
 62
     7
176
     1
 90
        5
176
     1
 90
        0
176
     1
 90
        0
176
     1
290
     0
176
     1
 90
        1
176
     1
 40
0.0
176
     1
 90
        0
176
     1
290
     0
176
     1
290
     1
176
     1
290
     1
176
     1
290
     0
176
     1
290
     0
176
     1
290
     0
176
     1
290
     0
176
     1
290
     0
176
     1
290
     0
176
     1
 90
       50
176
     1
 40
0.0
176
     1
 40
1.0
176
     1
 90
        0
176
     1
 62
    18
420
        0
176
     1
 90
       50
176
     1
 90
        3
176
     1
 62
     5
420
      255
176
     1
290
     0
176
     1
 90
       50
176
     1
 90
       50
176
     1
 90
       50
176
     1
290
     0
176
     1
 90
       50
176
     1
 62
   256
176
     0
 40
1.0
176
     0
 90
        2
176
     1
  1
strokes_ogs.tif
176
     1
290
     0
176
     1
 40
1.0
176
     1
 40
1.0
176
     1
  0
VISUALSTYLE
  5
3C
102
{ACAD_REACTORS
330
2A
102
}
330
2A
100
AcDbVisualStyle
  2
OverhangOff
 70
    21
177
     3
291
     1
 70
    58
 90
        2
176
     0
 90
        2
176
     0
 90
        0
176
     0
 90
        0
176
     0
 40
0.6
176
     0
 40
30.0
176
     0
 62
     7
420
 16777215
176
     0
 90
        1
176
     0
 90
        4
176
     0
 62
     7
176
     0
 62
   257
176
     0
 90
        1
176
     0
 90
        1
176
     0
 40
1.0
176
     0
 90
        9
176
     2
 62
     7
176
     0
 40
1.0
176
     0
 90
        1
176
     0
 90
        6
176
     0
 90
        2
176
     0
 62
     7
176
     0
 90
        5
176
     0
 90
        0
176
     0
 90
        0
176
     0
290
     0
176
     0
 90
        1
176
     0
 40
0.0
176
     0
 90
        0
176
     0
290
     0
176
     0
290
     1
176
     0
290
     1
176
     0
290
     0
176
     0
290
     0
176
     0
290
     0
176
     0
290
     0
176
     0
290
     0
176
     0
290
     0
176
     0
 90
       50
176
     0
 40
0.0
176
     0
 40
1.0
176
     0
 90
        0
176
     0
 62
    18
420
        0
176
     0
 90
       50
176
     0
 90
        3
176
     0
 62
     5
420
      255
176
     0
290
     0
176
     0
 90
       50
176
     0
 90
       50
176
     0
 90
       50
176
     0
290
     0
176
     0
 90
       50
176
     0
 62
   256
176
     0
 40
1.0
176
     0
 90
        2
176
     0
  1
strokes_ogs.tif
176
     0
290
     0
176
     0
 40
1.0
176
     0
 40
1.0
176
     0
  0
VISUALSTYLE
  5
33
102
{ACAD_REACTORS
330
2A
102
}
330
2A
100
AcDbVisualStyle
  2
Realistic
 70
     8
177
     3
291
     0
 70
    58
 90
        2
176
     1
 90
        3
176
     1
 90
        0
176
     1
 90
        2
176
     1
 40
0.6
176
     1
 40
30.0
176
     1
 62
     7
420
 16777215
176
     1
 90
        0
176
     1
 90
        0
176
     1
 62
     7
176
     1
 62
   257
176
     1
 90
        1
176
     1
 90
        1
176
     1
 40
1.0
176
     1
 90
        8
176
     1
 62
   257
176
     1
 40
1.0
176
     1
 90
        1
176
     1
 90
        6
176
     1
 90
        2
176
     1
 62
     7
176
     1
 90
        3
176
     1
 90
        0
176
     1
 90
        0
176
     1
290
     0
176
     1
 90
       13
176
     1
 40
0.0
176
     1
 90
        0
176
     1
290
     0
176
     1
290
     1
176
     1
290
     1
176
     1
290
     0
176
     1
290
     0
176
     1
290
     0
176
     1
290
     0
176
     1
290
     0
176
     1
290
     0
176
     1
 90
       50
176
     1
 40
0.0
176
     1
 40
1.0
176
     1
 90
        0
176
     1
 62
    18
420
        0
176
     1
 90
       50
176
     1
 90
        3
176
     1
 62
     5
420
      255
176
     1
290
     0
176
     1
 90
       50
176
     1
 90
       50
176
     1
 90
       50
176
     1
290
     0
176
     1
 90
       50
176
     1
 62
   256
176
     0
 40
1.0
176
     0
 90
        2
176
     1
  1
strokes_ogs.tif
176
     1
290
     0
176
     1
 40
1.0
176
     1
 40
1.0
176
     1
  0
VISUALSTYLE
  5
42
102
{ACAD_REACTORS
330
2A
102
}
330
2A
100
AcDbVisualStyle
  2
Shaded
 70
    27
177
     3
291
     0
 70
    58
 90
        2
176
     1
 90
        2
176
     1
 90
        1
176
     1
 90
        2
176
     1
 40
0.6
176
     1
 40
30.0
176
     1
 62
     7
420
 16777215
176
     1
 90
        0
176
     1
 90
        4
176
     1
 62
     7
176
     1
 62
   257
176
     1
 90
        1
176
     1
 90
        1
176
     1
 40
1.0
176
     1
 90
        8
176
     1
 62
   257
176
     1
 40
1.0
176
     1
 90
        1
176
     1
 90
        6
176
     1
 90
        2
176
     1
 62
     8
420
  7895160
176
     1
 90
        3
176
     1
 90
        0
176
     1
 90
        0
176
     1
290
     0
176
     1
 90
        5
176
     1
 40
0.0
176
     1
 90
        0
176
     1
290
     0
176
     1
290
     1
176
     1
290
     1
176
     1
290
     0
176
     1
290
     0
176
     1
290
     0
176
     1
290
     0
176
     1
290
     0
176
     1
290
     0
176
     1
 90
       50
176
     1
 40
0.0
176
     1
 40
1.0
176
     1
 90
        0
176
     1
 62
    18
420
        0
176
     1
 90
       50
176
     1
 90
        3
176
     1
 62
     5
420
      255
176
     1
290
     0
176
     1
 90
       50
176
     1
 90
       50
176
     1
 90
       50
176
     1
290
     0
176
     1
 90
       50
176
     1
 62
   256
176
     0
 40
1.0
176
     0
 90
        2
176
     1
  1
strokes_ogs.tif
176
     1
290
     0
176
     1
 40
1.0
176
     1
 40
1.0
176
     1
  0
VISUALSTYLE
  5
41
102
{ACAD_REACTORS
330
2A
102
}
330
2A
100
AcDbVisualStyle
  2
Shaded with edges
 70
    26
177
     3
291
     0
 70
    58
 90
        2
176
     1
 90
        2
176
     1
 90
        1
176
     1
 90
        2
176
     1
 40
0.6
176
     1
 40
30.0
176
     1
 62
     7
420
 16777215
176
     1
 90
        1
176
     1
 90
       10
176
     1
 62
     7
176
     1
 62
   257
176
     1
 90
        2
176
     1
 90
        1
176
     1
 40
1.0
176
     1
 90
        8
176
     1
 62
   257
176
     1
 40
1.0
176
     1
 90
        1
176
     1
 90
        6
176
     1
 90
        2
176
     1
 62
     7
176
     1
 90
        3
176
     1
 90
        0
176
     1
 90
        0
176
     1
290
     0
176
     1
 90
        5
176
     1
 40
0.0
176
     1
 90
        0
176
     1
290
     0
176
     1
290
     1
176
     1
290
     1
176
     1
290
     0
176
     1
290
     0
176
     1
290
     0
176
     1
290
     0
176
     1
290
     0
176
     1
290
     0
176
     1
 90
       50
176
     1
 40
0.0
176
     1
 40
1.0
176
     1
 90
        0
176
     1
 62
    18
420
        0
176
     1
 90
       50
176
     1
 90
        3
176
     1
 62
     5
420
      255
176
     1
290
     0
176
     1
 90
       50
176
     1
 90
       50
176
     1
 90
       50
176
     1
290
     0
176
     1
 90
       50
176
     1
 62
   256
176
     0
 40
1.0
176
     0
 90
        2
176
     1
  1
strokes_ogs.tif
176
     1
290
     0
176
     1
 40
1.0
176
     1
 40
1.0
176
     1
  0
VISUALSTYLE
  5
3E
102
{ACAD_REACTORS
330
2A
102
}
330
2A
100
AcDbVisualStyle
  2
Shades of Gray
 70
    23
177
     3
291
     0
 70
    58
 90
        2
176
     1
 90
        2
176
     1
 90
        3
176
     1
 90
        0
176
     1
 40
0.6
176
     1
 40
30.0
176
     1
 62
     7
420
 16777215
176
     1
 90
        2
176
     1
 90
        2
176
     1
 62
     7
176
     1
 62
     7
176
     1
 90
        1
176
     1
 90
        1
176
     1
 40
40.0
176
     1
 90
        8
176
     1
 62
     7
176
     1
 40
1.0
176
     1
 90
        1
176
     1
 90
        6
176
     1
 90
        2
176
     1
 62
     7
176
     1
 90
        3
176
     1
 90
        0
176
     1
 90
        0
176
     1
290
     0
176
     1
 90
        1
176
     1
 40
0.0
176
     1
 90
        0
176
     1
290
     0
176
     1
290
     1
176
     1
290
     1
176
     1
290
     0
176
     1
290
     0
176
     1
290
     0
176
     1
290
     0
176
     1
290
     0
176
     1
290
     0
176
     1
 90
       50
176
     1
 40
0.0
176
     1
 40
1.0
176
     1
 90
        0
176
     1
 62
    18
420
        0
176
     1
 90
       50
176
     1
 90
        3
176
     1
 62
     5
420
      255
176
     1
290
     0
176
     1
 90
       50
176
     1
 90
       50
176
     1
 90
       50
176
     1
290
     0
176
     1
 90
       50
176
     1
 62
   256
176
     0
 40
1.0
176
     0
 90
        2
176
     1
  1
strokes_ogs.tif
176
     1
290
     0
176
     1
 40
1.0
176
     1
 40
1.0
176
     1
  0
VISUALSTYLE
  5
3F
102
{ACAD_REACTORS
330
2A
102
}
330
2A
100
AcDbVisualStyle
  2
Sketchy
 70
    24
177
     3
291
     0
 70
    58
 90
        1
176
     1
 90
        2
176
     1
 90
        2
176
     1
 90
        0
176
     1
 40
0.6
176
     1
 40
30.0
176
     1
 62
     7
420
 16777215
176
     1
 90
        2
176
     1
 90
        2
176
     1
 62
     7
176
     1
 62
     7
176
     1
 90
        1
176
     1
 90
        1
176
     1
 40
40.0
176
     1
 90
       11
176
     1
 62
     7
176
     1
 40
1.0
176
     1
 90
        1
176
     1
 90
        6
176
     1
 90
        2
176
     1
 62
     7
176
     1
 90
        6
176
     1
 90
        0
176
     1
 90
        0
176
     1
290
     0
176
     1
 90
        1
176
     1
 40
0.0
176
     1
 90
        0
176
     1
290
     0
176
     1
290
     1
176
     1
290
     1
176
     1
290
     0
176
     1
290
     0
176
     1
290
     0
176
     1
290
     0
176
     1
290
     0
176
     1
290
     0
176
     1
 90
       50
176
     1
 40
0.0
176
     1
 40
1.0
176
     1
 90
        0
176
     1
 62
    18
420
        0
176
     1
 90
       50
176
     1
 90
        3
176
     1
 62
     5
420
      255
176
     1
290
     0
176
     1
 90
       50
176
     1
 90
       50
176
     1
 90
       50
176
     1
290
     0
176
     1
 90
       50
176
     1
 62
   256
176
     0
 40
1.0
176
     0
 90
        2
176
     1
  1
strokes_ogs.tif
176
     1
290
     0
176
     1
 40
1.0
176
     1
 40
1.0
176
     1
  0
VISUALSTYLE
  5
37
102
{ACAD_REACTORS
330
2A
102
}
330
2A
100
AcDbVisualStyle
  2
Thicken
 70
    13
177
     3
291
     1
 70
    58
 90
        2
176
     1
 90
        2
176
     1
 90
        0
176
     1
 90
        0
176
     1
 40
0.6
176
     1
 40
30.0
176
     1
 62
     7
420
 16777215
176
     1
 90
        1
176
     1
 90
        4
176
     1
 62
     7
176
     1
 62
   257
176
     1
 90
        1
176
     1
 90
        1
176
     1
 40
1.0
176
     1
 90
       12
176
     1
 62
     7
176
     1
 40
1.0
176
     1
 90
        1
176
     1
 90
        6
176
     1
 90
        2
176
     1
 62
     7
176
     1
 90
        5
176
     1
 90
        0
176
     1
 90
        0
176
     1
290
     0
176
     1
 90
        1
176
     1
 40
0.0
176
     1
 90
        0
176
     1
290
     0
176
     1
290
     1
176
     1
290
     1
176
     1
290
     0
176
     1
290
     0
176
     1
290
     0
176
     1
290
     0
176
     1
290
     0
176
     1
290
     0
176
     1
 90
       50
176
     1
 40
0.0
176
     1
 40
1.0
176
     1
 90
        0
176
     1
 62
    18
420
        0
176
     1
 90
       50
176
     1
 90
        3
176
     1
 62
     5
420
      255
176
     1
290
     0
176
     1
 90
       50
176
     1
 90
       50
176
     1
 90
       50
176
     1
290
     0
176
     1
 90
       50
176
     1
 62
   256
176
     0
 40
1.0
176
     0
 90
        2
176
     1
  1
strokes_ogs.tif
176
     1
290
     0
176
     1
 40
1.0
176
     1
 40
1.0
176
     1
  0
VISUALSTYLE
  5
30
102
{ACAD_REACTORS
330
2A
102
}
330
2A
100
AcDbVisualStyle
  2
Wireframe
 70
     5
177
     3
291
     0
 70
    58
 90
        0
176
     1
 90
        2
176
     1
 90
        0
176
     1
 90
        0
176
     1
 40
0.6
176
     1
 40
30.0
176
     1
 62
     7
420
 16777215
176
     1
 90
        1
176
     1
 90
        4
176
     1
 62
     7
176
     1
 62
   257
176
     1
 90
        1
176
     1
 90
        1
176
     1
 40
1.0
176
     1
 90
        0
176
     1
 62
   257
176
     1
 40
1.0
176
     1
 90
        1
176
     1
 90
        6
176
     1
 90
        2
176
     1
 62
     7
176
     1
 90
        3
176
     1
 90
        0
176
     1
 90
        0
176
     1
290
     0
176
     1
 90
        1
176
     1
 40
0.0
176
     1
 90
        0
176
     1
290
     0
176
     1
290
     1
176
     1
290
     1
176
     1
290
     0
176
     1
290
     0
176
     1
290
     0
176
     1
290
     0
176
     1
290
     0
176
     1
290
     0
176
     1
 90
       50
176
     1
 40
0.0
176
     1
 40
1.0
176
     1
 90
        0
176
     1
 62
    18
420
        0
176
     1
 90
       50
176
     1
 90
        3
176
     1
 62
     5
420
      255
176
     1
290
     0
176
     1
 90
       50
176
     1
 90
       50
176
     1
 90
       50
176
     1
290
     0
176
     1
 90
       50
176
     1
 62
   256
176
     0
 40
1.0
176
     0
 90
        2
176
     1
  1
strokes_ogs.tif
176
     1
290
     0
176
     1
 40
1.0
176
     1
 40
1.0
176
     1
  0
VISUALSTYLE
  5
40
102
{ACAD_REACTORS
330
2A
102
}
330
2A
100
AcDbVisualStyle
  2
X-Ray
 70
    25
177
     3
291
     0
 70
    58
 90
        2
176
     1
 90
        2
176
     1
 90
        1
176
     1
 90
        1
176
     1
 40
0.5
176
     1
 40
30.0
176
     1
 62
     7
420
 16777215
176
     1
 90
        1
176
     1
 90
        0
176
     1
 62
     7
176
     1
 62
   257
176
     1
 90
        1
176
     1
 90
        1
176
     1
 40
1.0
176
     1
 90
        8
176
     1
 62
     7
176
     1
 40
1.0
176
     1
 90
        1
176
     1
 90
        6
176
     1
 90
        2
176
     1
 62
     7
176
     1
 90
        3
176
     1
 90
        0
176
     1
 90
        0
176
     1
290
     0
176
     1
 90
       13
176
     1
 40
0.0
176
     1
 90
        0
176
     1
290
     0
176
     1
290
     1
176
     1
290
     1
176
     1
290
     0
176
     1
290
     0
176
     1
290
     0
176
     1
290
     0
176
     1
290
     0
176
     1
290
     0
176
     1
 90
       50
176
     1
 40
0.0
176
     1
 40
1.0
176
     1
 90
        0
176
     1
 62
    18
420
        0
176
     1
 90
       50
176
     1
 90
        3
176
     1
 62
     5
420
      255
176
     1
290
     0
176
     1
 90
       50
176
     1
 90
       50
176
     1
 90
       50
176
     1
290
     0
176
     1
 90
       50
176
     1
 62
   256
176
     0
 40
1.0
176
     0
 90
        2
176
     1
  1
strokes_ogs.tif
176
     1
290
     0
176
     1
 40
1.0
176
     1
 40
1.0
176
     1
  0
DICTIONARYVAR
  5
A3
102
{ACAD_REACTORS
330
A2
102
}
330
A2
100
DictionaryVariables
280
     0
  1
1:1
  0
DICTIONARYVAR
  5
A8
102
{ACAD_REACTORS
330
A2
102
}
330
A2
100
DictionaryVariables
280
     0
  1
Standard
  0
DICTIONARYVAR
  5
A7
102
{ACAD_REACTORS
330
A2
102
}
330
A2
100
DictionaryVariables
280
     0
  1
Standard
  0
DICTIONARY
  5
A4
330
5A
100
AcDbDictionary
280
     1
281
     1
  3
ACAD_ROUNDTRIP_2008_TABLESTYLE_CELLSTYLEMAP
360
A5
  0
CELLSTYLEMAP
  5
A5
102
{ACAD_REACTORS
330
A4
102
}
330
A4
100
AcDbCellStyleMap
 90
        3
300
CELLSTYLE
  1
TABLEFORMAT_BEGIN
 90
        5
170
     1
 91
        0
 92
    32768
 62
   257
 93
        1
300
CONTENTFORMAT
  1
CONTENTFORMAT_BEGIN
 90
        0
 91
        0
 92
        4
 93
        0
300

 40
0.0
140
1.0
 94
        5
 62
     0
340
11
144
0.25
309
CONTENTFORMAT_END
171
     1
301
MARGIN
  1
CELLMARGIN_BEGIN
 40
0.06
 40
0.06
 40
0.06
 40
0.06
 40
0.06
 40
0.06
309
CELLMARGIN_END
 94
        6
 95
        1
302
GRIDFORMAT
  1
GRIDFORMAT_BEGIN
 90
        0
 91
        1
 62
     0
 92
       -2
340
14
 93
        0
 40
0.045
309
GRIDFORMAT_END
 95
        2
302
GRIDFORMAT
  1
GRIDFORMAT_BEGIN
 90
        0
 91
        1
 62
     0
 92
       -2
340
14
 93
        0
 40
0.045
309
GRIDFORMAT_END
 95
        4
302
GRIDFORMAT
  1
GRIDFORMAT_BEGIN
 90
        0
 91
        1
 62
     0
 92
       -2
340
14
 93
        0
 40
0.045
309
GRIDFORMAT_END
 95
        8
302
GRIDFORMAT
  1
GRIDFORMAT_BEGIN
 90
        0
 91
        1
 62
     0
 92
       -2
340
14
 93
        0
 40
0.045
309
GRIDFORMAT_END
 95
       16
302
GRIDFORMAT
  1
GRIDFORMAT_BEGIN
 90
        0
 91
        1
 62
     0
 92
       -2
340
14
 93
        0
 40
0.045
309
GRIDFORMAT_END
 95
       32
302
GRIDFORMAT
  1
GRIDFORMAT_BEGIN
 90
        0
 91
        1
 62
     0
 92
       -2
340
14
 93
        0
 40
0.045
309
GRIDFORMAT_END
309
TABLEFORMAT_END
  1
CELLSTYLE_BEGIN
 90
        1
 91
        1
300
_TITLE
309
CELLSTYLE_END
300
CELLSTYLE
  1
TABLEFORMAT_BEGIN
 90
        5
170
     1
 91
        0
 92
        0
 62
   257
 93
        1
300
CONTENTFORMAT
  1
CONTENTFORMAT_BEGIN
 90
        0
 91
        0
 92
        4
 93
        0
300

 40
0.0
140
1.0
 94
        5
 62
     0
340
11
144
0.18
309
CONTENTFORMAT_END
171
     1
301
MARGIN
  1
CELLMARGIN_BEGIN
 40
0.06
 40
0.06
 40
0.06
 40
0.06
 40
0.06
 40
0.06
309
CELLMARGIN_END
 94
        6
 95
        1
302
GRIDFORMAT
  1
GRIDFORMAT_BEGIN
 90
        0
 91
        1
 62
     0
 92
       -2
340
14
 93
        0
 40
0.045
309
GRIDFORMAT_END
 95
        2
302
GRIDFORMAT
  1
GRIDFORMAT_BEGIN
 90
        0
 91
        1
 62
     0
 92
       -2
340
14
 93
        0
 40
0.045
309
GRIDFORMAT_END
 95
        4
302
GRIDFORMAT
  1
GRIDFORMAT_BEGIN
 90
        0
 91
        1
 62
     0
 92
       -2
340
14
 93
        0
 40
0.045
309
GRIDFORMAT_END
 95
        8
302
GRIDFORMAT
  1
GRIDFORMAT_BEGIN
 90
        0
 91
        1
 62
     0
 92
       -2
340
14
 93
        0
 40
0.045
309
GRIDFORMAT_END
 95
       16
302
GRIDFORMAT
  1
GRIDFORMAT_BEGIN
 90
        0
 91
        1
 62
     0
 92
       -2
340
14
 93
        0
 40
0.045
309
GRIDFORMAT_END
 95
       32
302
GRIDFORMAT
  1
GRIDFORMAT_BEGIN
 90
        0
 91
        1
 62
     0
 92
       -2
340
14
 93
        0
 40
0.045
309
GRIDFORMAT_END
309
TABLEFORMAT_END
  1
CELLSTYLE_BEGIN
 90
        2
 91
        1
300
_HEADER
309
CELLSTYLE_END
300
CELLSTYLE
  1
TABLEFORMAT_BEGIN
 90
        5
170
     1
 91
        0
 92
        0
 62
   257
 93
        1
300
CONTENTFORMAT
  1
CONTENTFORMAT_BEGIN
 90
        0
 91
        0
 92
        4
 93
        0
300

 40
0.0
140
1.0
 94
        2
 62
     0
340
11
144
0.18
309
CONTENTFORMAT_END
171
     1
301
MARGIN
  1
CELLMARGIN_BEGIN
 40
0.06
 40
0.06
 40
0.06
 40
0.06
 40
0.06
 40
0.06
309
CELLMARGIN_END
 94
        6
 95
        1
302
GRIDFORMAT
  1
GRIDFORMAT_BEGIN
 90
        0
 91
        1
 62
     0
 92
       -2
340
14
 93
        0
 40
0.045
309
GRIDFORMAT_END
 95
        2
302
GRIDFORMAT
  1
GRIDFORMAT_BEGIN
 90
        0
 91
        1
 62
     0
 92
       -2
340
14
 93
        0
 40
0.045
309
GRIDFORMAT_END
 95
        4
302
GRIDFORMAT
  1
GRIDFORMAT_BEGIN
 90
        0
 91
        1
 62
     0
 92
       -2
340
14
 93
        0
 40
0.045
309
GRIDFORMAT_END
 95
        8
302
GRIDFORMAT
  1
GRIDFORMAT_BEGIN
 90
        0
 91
        1
 62
     0
 92
       -2
340
14
 93
        0
 40
0.045
309
GRIDFORMAT_END
 95
       16
302
GRIDFORMAT
  1
GRIDFORMAT_BEGIN
 90
        0
 91
        1
 62
     0
 92
       -2
340
14
 93
        0
 40
0.045
309
GRIDFORMAT_END
 95
       32
302
GRIDFORMAT
  1
GRIDFORMAT_BEGIN
 90
        0
 91
        1
 62
     0
 92
       -2
340
14
 93
        0
 40
0.045
309
GRIDFORMAT_END
309
TABLEFORMAT_END
  1
CELLSTYLE_BEGIN
 90
        3
 91
        2
300
_DATA
309
CELLSTYLE_END
  0
ENDSEC
  0
EOF
