  0
SECTION
  2
HEADER
  9
$ACADVER
  1
AC1032
  9
$ACADMAINTVER
 90
       55
  9
$DWGCODEPAGE
  3
UNDEFINED
  9
$LASTSAVEDBY
  1
Administrator
  9
$REQUIREDVERSIONS
160
                 0
  9
$INSBASE
 10
0.0
 20
0.0
 30
0.0
  9
$EXTMIN
 10
-44.9832
 20
38.0747
 30
0.0
  9
$EXTMAX
 10
-1.1876
 20
77.8191
 30
0.0
  9
$LIMMIN
 10
0.0
 20
0.0
  9
$LIMMAX
 10
12.0
 20
9.0
  9
$ORTHOMODE
 70
     0
  9
$REGENMODE
 70
     1
  9
$FILLMODE
 70
     1
  9
$QTEXTMODE
 70
     0
  9
$MIRRTEXT
 70
     1
  9
$LTSCALE
 40
1.0
  9
$ATTMODE
 70
     1
  9
$TEXTSIZE
 40
0.2
  9
$TRACEWID
 40
0.05
  9
$TEXTSTYLE
  7
Standard
  9
$CLAYER
  8
0
  9
$CELTYPE
  6
ByLayer
  9
$CECOLOR
 62
   256
  9
$CELTSCALE
 40
1.0
  9
$DISPSILH
 70
     0
  9
$DIMSCALE
 40
1.0
  9
$DIMASZ
 40
0.18
  9
$DIMEXO
 40
0.0625
  9
$DIMDLI
 40
0.38
  9
$DIMRND
 40
0.0
  9
$DIMDLE
 40
0.0
  9
$DIMEXE
 40
0.18
  9
$DIMTP
 40
0.0
  9
$DIMTM
 40
0.0
  9
$DIMTXT
 40
0.18
  9
$DIMCEN
 40
0.09
  9
$DIMTSZ
 40
0.0
  9
$DIMTOL
 70
     0
  9
$DIMLIM
 70
     0
  9
$DIMTIH
 70
     1
  9
$DIMTOH
 70
     1
  9
$DIMSE1
 70
     0
  9
$DIMSE2
 70
     0
  9
$DIMTAD
 70
     0
  9
$DIMZIN
 70
     0
  9
$DIMBLK
  1

  9
$DIMASO
 70
     1
  9
$DIMSHO
 70
     1
  9
$DIMPOST
  1

  9
$DIMAPOST
  1

  9
$DIMALT
 70
     0
  9
$DIMALTD
 70
     2
  9
$DIMALTF
 40
25.4
  9
$DIMLFAC
 40
1.0
  9
$DIMTOFL
 70
     0
  9
$DIMTVP
 40
0.0
  9
$DIMTIX
 70
     0
  9
$DIMSOXD
 70
     0
  9
$DIMSAH
 70
     0
  9
$DIMBLK1
  1

  9
$DIMBLK2
  1

  9
$DIMSTYLE
  2
Standard
  9
$DIMCLRD
 70
     0
  9
$DIMCLRE
 70
     0
  9
$DIMCLRT
 70
     0
  9
$DIMTFAC
 40
1.0
  9
$DIMGAP
 40
0.09
  9
$DIMJUST
 70
     0
  9
$DIMSD1
 70
     0
  9
$DIMSD2
 70
     0
  9
$DIMTOLJ
 70
     1
  9
$DIMTZIN
 70
     0
  9
$DIMALTZ
 70
     0
  9
$DIMALTTZ
 70
     0
  9
$DIMUPT
 70
     0
  9
$DIMDEC
 70
     4
  9
$DIMTDEC
 70
     4
  9
$DIMALTU
 70
     2
  9
$DIMALTTD
 70
     2
  9
$DIMTXSTY
  7
Standard
  9
$DIMAUNIT
 70
     0
  9
$DIMADEC
 70
     0
  9
$DIMALTRND
 40
0.0
  9
$DIMAZIN
 70
     0
  9
$DIMDSEP
 70
    46
  9
$DIMATFIT
 70
     3
  9
$DIMFRAC
 70
     0
  9
$DIMLDRBLK
  1

  9
$DIMLUNIT
 70
     2
  9
$DIMLWD
 70
    -2
  9
$DIMLWE
 70
    -2
  9
$DIMTMOVE
 70
     0
  9
$DIMFXL
 40
1.0
  9
$DIMFXLON
 70
     0
  9
$DIMJOGANG
 40
0.7853981633974483
  9
$DIMTFILL
 70
     0
  9
$DIMTFILLCLR
 70
     0
  9
$DIMARCSYM
 70
     0
  9
$DIMLTYPE
  6

  9
$DIMLTEX1
  6

  9
$DIMLTEX2
  6

  9
$DIMTXTDIRECTION
 70
     0
  9
$LUNITS
 70
     2
  9
$LUPREC
 70
     4
  9
$SKETCHINC
 40
0.1
  9
$FILLETRAD
 40
0.0
  9
$AUNITS
 70
     0
  9
$AUPREC
 70
     0
  9
$MENU
  1
.
  9
$ELEVATION
 40
0.0
  9
$PELEVATION
 40
0.0
  9
$THICKNESS
 40
0.0
  9
$LIMCHECK
 70
     0
  9
$CHAMFERA
 40
0.0
  9
$CHAMFERB
 40
0.0
  9
$CHAMFERC
 40
0.0
  9
$CHAMFERD
 40
0.0
  9
$SKPOLY
 70
     0
  9
$TDCREATE
 40
2460355.395991053
  9
$TDUCREATE
 40
2460355.25015772
  9
$TDUPDATE
 40
2460355.395991297
  9
$TDUUPDATE
 40
2460355.250157963
  9
$TDINDWG
 40
0.0000000116
  9
$TDUSRTIMER
 40
0.0000000116
  9
$USRTIMER
 70
     1
  9
$ANGBASE
 50
0.0
  9
$ANGDIR
 70
     0
  9
$PDMODE
 70
     0
  9
$PDSIZE
 40
0.0
  9
$PLINEWID
 40
0.0
  9
$SPLFRAME
 70
     0
  9
$SPLINETYPE
 70
     6
  9
$SPLINESEGS
 70
     8
  9
$HANDSEED
  5
9F
  9
$SURFTAB1
 70
     6
  9
$SURFTAB2
 70
     6
  9
$SURFTYPE
 70
     6
  9
$SURFU
 70
     6
  9
$SURFV
 70
     6
  9
$UCSBASE
  2

  9
$UCSNAME
  2

  9
$UCSORG
 10
0.0
 20
0.0
 30
0.0
  9
$UCSXDIR
 10
1.0
 20
0.0
 30
0.0
  9
$UCSYDIR
 10
0.0
 20
1.0
 30
0.0
  9
$UCSORTHOREF
  2

  9
$UCSORTHOVIEW
 70
     0
  9
$UCSORGTOP
 10
0.0
 20
0.0
 30
0.0
  9
$UCSORGBOTTOM
 10
0.0
 20
0.0
 30
0.0
  9
$UCSORGLEFT
 10
0.0
 20
0.0
 30
0.0
  9
$UCSORGRIGHT
 10
0.0
 20
0.0
 30
0.0
  9
$UCSORGFRONT
 10
0.0
 20
0.0
 30
0.0
  9
$UCSORGBACK
 10
0.0
 20
0.0
 30
0.0
  9
$PUCSBASE
  2

  9
$PUCSNAME
  2

  9
$PUCSORG
 10
0.0
 20
0.0
 30
0.0
  9
$PUCSXDIR
 10
1.0
 20
0.0
 30
0.0
  9
$PUCSYDIR
 10
0.0
 20
1.0
 30
0.0
  9
$PUCSORTHOREF
  2

  9
$PUCSORTHOVIEW
 70
     0
  9
$PUCSORGTOP
 10
0.0
 20
0.0
 30
0.0
  9
$PUCSORGBOTTOM
 10
0.0
 20
0.0
 30
0.0
  9
$PUCSORGLEFT
 10
0.0
 20
0.0
 30
0.0
  9
$PUCSORGRIGHT
 10
0.0
 20
0.0
 30
0.0
  9
$PUCSORGFRONT
 10
0.0
 20
0.0
 30
0.0
  9
$PUCSORGBACK
 10
0.0
 20
0.0
 30
0.0
  9
$USERI1
 70
     0
  9
$USERI2
 70
     0
  9
$USERI3
 70
     0
  9
$USERI4
 70
     0
  9
$USERI5
 70
     0
  9
$USERR1
 40
0.0
  9
$USERR2
 40
0.0
  9
$USERR3
 40
0.0
  9
$USERR4
 40
0.0
  9
$USERR5
 40
0.0
  9
$WORLDVIEW
 70
     1
  9
$SHADEDGE
 70
     3
  9
$SHADEDIF
 70
    70
  9
$TILEMODE
 70
     1
  9
$MAXACTVP
 70
    64
  9
$PINSBASE
 10
0.0
 20
0.0
 30
0.0
  9
$PLIMCHECK
 70
     0
  9
$PEXTMIN
 10
1.000000000000000E+20
 20
1.000000000000000E+20
 30
1.000000000000000E+20
  9
$PEXTMAX
 10
-1.000000000000000E+20
 20
-1.000000000000000E+20
 30
-1.000000000000000E+20
  9
$PLIMMIN
 10
0.0
 20
0.0
  9
$PLIMMAX
 10
12.0
 20
9.0
  9
$UNITMODE
 70
     0
  9
$VISRETAIN
 70
     1
  9
$PLINEGEN
 70
     0
  9
$PSLTSCALE
 70
     1
  9
$TREEDEPTH
 70
  3020
  9
$CMLSTYLE
  2
Standard
  9
$CMLJUST
 70
     0
  9
$CMLSCALE
 40
1.0
  9
$PROXYGRAPHICS
 70
     1
  9
$MEASUREMENT
 70
     0
  9
$CELWEIGHT
370
    -1
  9
$ENDCAPS
280
     0
  9
$JOINSTYLE
280
     0
  9
$LWDISPLAY
290
     0
  9
$INSUNITS
 70
     4
  9
$HYPERLINKBASE
  1

  9
$STYLESHEET
  1

  9
$XEDIT
290
     1
  9
$CEPSNTYPE
380
     0
  9
$PSTYLEMODE
290
     1
  9
$FINGERPRINTGUID
  2
{0e4fbb0b-26bd-4752-b4fa-72c3d6c8906d}
  9
$VERSIONGUID
  2
{FAEB1C32-E019-11D5-929B-00C0DF256EC4}
  9
$EXTNAMES
290
     1
  9
$PSVPSCALE
 40
0.0
  9
$OLESTARTUP
290
     0
  9
$SORTENTS
280
   127
  9
$INDEXCTL
280
     0
  9
$HIDETEXT
280
     1
  9
$XCLIPFRAME
280
     2
  9
$HALOGAP
280
     0
  9
$OBSCOLOR
 70
   257
  9
$OBSLTYPE
280
     0
  9
$INTERSECTIONDISPLAY
280
     0
  9
$INTERSECTIONCOLOR
 70
   257
  9
$DIMASSOC
280
     2
  9
$PROJECTNAME
  1

  9
$CAMERADISPLAY
290
     0
  9
$LENSLENGTH
 40
50.0
  9
$CAMERAHEIGHT
 40
0.0
  9
$STEPSPERSEC
 40
2.0
  9
$STEPSIZE
 40
6.0
  9
$3DDWFPREC
 40
2.0
  9
$PSOLWIDTH
 40
0.25
  9
$PSOLHEIGHT
 40
4.0
  9
$LOFTANG1
 40
1.570796326794897
  9
$LOFTANG2
 40
1.570796326794897
  9
$LOFTMAG1
 40
0.0
  9
$LOFTMAG2
 40
0.0
  9
$LOFTPARAM
 70
     7
  9
$LOFTNORMALS
280
     1
  9
$LATITUDE
 40
37.795
  9
$LONGITUDE
 40
-122.394
  9
$NORTHDIRECTION
 40
0.0
  9
$TIMEZONE
 70
 -8000
  9
$LIGHTGLYPHDISPLAY
280
     1
  9
$TILEMODELIGHTSYNCH
280
     1
  9
$CMATERIAL
347
44
  9
$SOLIDHIST
280
     0
  9
$SHOWHIST
280
     1
  9
$DWFFRAME
280
     2
  9
$DGNFRAME
280
     2
  9
$REALWORLDSCALE
290
     1
  9
$INTERFERECOLOR
 62
   256
  9
$CSHADOW
280
     0
  9
$SHADOWPLANELOCATION
 40
0.0
  0
ENDSEC
  0
SECTION
  2
CLASSES
  0
CLASS
  1
ACDBDICTIONARYWDFLT
  2
AcDbDictionaryWithDefault
  3
ObjectDBX Classes
 90
        0
 91
        3
280
     0
281
     0
  0
CLASS
  1
VISUALSTYLE
  2
AcDbVisualStyle
  3
ObjectDBX Classes
 90
     4095
 91
        3
280
     0
281
     0
  0
CLASS
  1
MATERIAL
  2
AcDbMaterial
  3
ObjectDBX Classes
 90
     1153
 91
        3
280
     0
281
     0
  0
CLASS
  1
SCALE
  2
AcDbScale
  3
ObjectDBX Classes
 90
     1153
 91
        3
280
     0
281
     0
  0
CLASS
  1
TABLESTYLE
  2
AcDbTableStyle
  3
ObjectDBX Classes
 90
     4095
 91
        3
280
     0
281
     0
  0
CLASS
  1
MLEADERSTYLE
  2
AcDbMLeaderStyle
  3
ACDB_MLEADERSTYLE_CLASS
 90
     4095
 91
        3
280
     0
281
     0
  0
CLASS
  1
SUN
  2
AcDbSun
  3
SCENEOE
 90
     1153
 91
        3
280
     0
281
     0
  0
CLASS
  1
DICTIONARYVAR
  2
AcDbDictionaryVar
  3
ObjectDBX Classes
 90
        0
 91
        3
280
     0
281
     0
  0
CLASS
  1
CELLSTYLEMAP
  2
AcDbCellStyleMap
  3
ObjectDBX Classes
 90
     1152
 91
        3
280
     0
281
     0
  0
ENDSEC
  0
SECTION
  2
TABLES
  0
TABLE
  2
VPORT
  5
8
330
0
100
AcDbSymbolTable
 70
     1
  0
VPORT
  5
29
330
8
100
AcDbSymbolTableRecord
100
AcDbViewportTableRecord
  2
*Active
 70
     0
 10
0.0
 20
0.0
 11
1.0
 21
1.0
 12
10.42990654205607
 22
4.5
 13
0.0
 23
0.0
 14
0.5
 24
0.5
 15
0.5
 25
0.5
 16
0.0
 26
0.0
 36
1.0
 17
0.0
 27
0.0
 37
0.0
 40
9.0
 41
1.972972972850329
 42
50.0
 43
0.0
 44
0.0
 50
0.0
 51
0.0
 71
     0
 72
   100
 73
     1
 74
     3
 75
     0
 76
     0
 77
     0
 78
     0
281
     0
 65
     1
110
0.0
120
0.0
130
0.0
111
1.0
121
0.0
131
0.0
112
0.0
122
1.0
132
0.0
 79
     0
146
0.0
348
2F
 60
     3
 61
     5
292
     1
282
     1
141
0.0
142
0.0
 63
   250
361
5D
  0
ENDTAB
  0
TABLE
  2
LTYPE
  5
5
330
0
100
AcDbSymbolTable
 70
     1
  0
LTYPE
  5
14
330
5
100
AcDbSymbolTableRecord
100
AcDbLinetypeTableRecord
  2
ByBlock
 70
     0
  3

 72
    65
 73
     0
 40
0.0
  0
LTYPE
  5
15
330
5
100
AcDbSymbolTableRecord
100
AcDbLinetypeTableRecord
  2
ByLayer
 70
     0
  3

 72
    65
 73
     0
 40
0.0
  0
LTYPE
  5
16
330
5
100
AcDbSymbolTableRecord
100
AcDbLinetypeTableRecord
  2
Continuous
 70
     0
  3
Solid line
 72
    65
 73
     0
 40
0.0
  0
ENDTAB
  0
TABLE
  2
LAYER
  5
2
330
0
100
AcDbSymbolTable
 70
     2
  0
LAYER
  5
10
330
2
100
AcDbSymbolTableRecord
100
AcDbLayerTableRecord
  2
0
 70
     0
 62
     7
  6
Continuous
370
    -3
390
F
347
46
348
0
  0
LAYER
  5
5F
330
2
100
AcDbSymbolTableRecord
100
AcDbLayerTableRecord
  2
Layer 1
 70
     0
 62
     7
  6
Continuous
370
    -3
390
F
347
46
348
0
  0
ENDTAB
  0
TABLE
  2
STYLE
  5
3
330
0
100
AcDbSymbolTable
 70
     1
  0
STYLE
  5
11
330
3
100
AcDbSymbolTableRecord
100
AcDbTextStyleTableRecord
  2
Standard
 70
     0
 40
0.0
 41
1.0
 50
0.0
 71
     0
 42
0.2
  3
txt
  4

  0
ENDTAB
  0
TABLE
  2
VIEW
  5
6
330
0
100
AcDbSymbolTable
 70
     0
  0
ENDTAB
  0
TABLE
  2
UCS
  5
7
330
0
100
AcDbSymbolTable
 70
     0
  0
ENDTAB
  0
TABLE
  2
APPID
  5
9
330
0
100
AcDbSymbolTable
 70
     2
  0
APPID
  5
12
330
9
100
AcDbSymbolTableRecord
100
AcDbRegAppTableRecord
  2
ACAD
 70
     0
  0
APPID
  5
5E
330
9
100
AcDbSymbolTableRecord
100
AcDbRegAppTableRecord
  2
ODA
 70
     0
  0
ENDTAB
  0
TABLE
  2
DIMSTYLE
  5
A
330
0
100
AcDbSymbolTable
 70
     1
100
AcDbDimStyleTable
  0
DIMSTYLE
105
27
330
A
100
AcDbSymbolTableRecord
100
AcDbDimStyleTableRecord
  2
Standard
 70
     0
178
     0
340
11
  0
ENDTAB
  0
TABLE
  2
BLOCK_RECORD
  5
1
330
0
100
AcDbSymbolTable
 70
     1
  0
BLOCK_RECORD
  5
1F
330
1
100
AcDbSymbolTableRecord
100
AcDbBlockTableRecord
  2
*Model_Space
340
22
 70
     0
280
     1
281
     0
  0
BLOCK_RECORD
  5
1B
330
1
100
AcDbSymbolTableRecord
100
AcDbBlockTableRecord
  2
*Paper_Space
340
1E
 70
     0
280
     1
281
     0
  0
BLOCK_RECORD
  5
23
330
1
100
AcDbSymbolTableRecord
100
AcDbBlockTableRecord
  2
*Paper_Space0
340
26
 70
     0
280
     1
281
     0
  0
ENDTAB
  0
ENDSEC
  0
SECTION
  2
BLOCKS
  0
BLOCK
  5
20
330
1F
100
AcDbEntity
  8
0
100
AcDbBlockBegin
  2
*Model_Space
 70
     0
 10
0.0
 20
0.0
 30
0.0
  3
*Model_Space
  1

  0
ENDBLK
  5
21
330
1F
100
AcDbEntity
  8
0
100
AcDbBlockEnd
  0
BLOCK
  5
1C
330
1B
100
AcDbEntity
 67
     1
  8
0
100
AcDbBlockBegin
  2
*Paper_Space
 70
     0
 10
0.0
 20
0.0
 30
0.0
  3
*Paper_Space
  1

  0
ENDBLK
  5
1D
330
1B
100
AcDbEntity
 67
     1
  8
0
100
AcDbBlockEnd
  0
BLOCK
  5
24
330
23
100
AcDbEntity
  8
0
100
AcDbBlockBegin
  2
*Paper_Space0
 70
     0
 10
0.0
 20
0.0
 30
0.0
  3
*Paper_Space0
  1

  0
ENDBLK
  5
25
330
23
100
AcDbEntity
  8
0
100
AcDbBlockEnd
  0
ENDSEC
  0
SECTION
  2
ENTITIES
  0
SPLINE
  5
60
330
1F
100
AcDbEntity
  8
Layer 1
 62
   250
370
    18
100
AcDbSpline
210
0.0
220
0.0
230
1.0
 70
    11
 71
     3
 72
    50
 73
    46
 74
     0
 42
0.0000000001
 43
0.0000000001
 40
0.0
 40
0.0
 40
0.0
 40
0.0
 40
0.0666666666666667
 40
0.0666666666666667
 40
0.0666666666666667
 40
0.1333333333333333
 40
0.1333333333333333
 40
0.1333333333333333
 40
0.2
 40
0.2
 40
0.2
 40
0.2666666666666667
 40
0.2666666666666667
 40
0.2666666666666667
 40
0.3333333333333333
 40
0.3333333333333333
 40
0.3333333333333333
 40
0.4
 40
0.4
 40
0.4
 40
0.4666666666666667
 40
0.4666666666666667
 40
0.4666666666666667
 40
0.5333333333333333
 40
0.5333333333333333
 40
0.5333333333333333
 40
0.6
 40
0.6
 40
0.6
 40
0.6666666666666666
 40
0.6666666666666666
 40
0.6666666666666666
 40
0.7333333333333333
 40
0.7333333333333333
 40
0.7333333333333333
 40
0.8
 40
0.8
 40
0.8
 40
0.8666666666666667
 40
0.8666666666666667
 40
0.8666666666666667
 40
0.9333333333333333
 40
0.9333333333333333
 40
0.9333333333333333
 40
1.0
 40
1.0
 40
1.0
 40
1.0
 10
-39.6274
 20
54.0376
 30
0.0
 10
-39.6274
 20
54.0376
 30
0.0
 10
-37.1357
 20
62.7188
 30
0.0
 10
-26.7736
 20
65.668
 30
0.0
 10
-23.0736
 20
66.7214
 30
0.0
 10
-19.131
 20
66.5676
 30
0.0
 10
-15.6022
 20
65.0348
 30
0.0
 10
-12.0483
 20
63.4914
 30
0.0
 10
-7.8407
 20
60.3658
 30
0.0
 10
-5.4813
 20
54.0376
 30
0.0
 10
-5.4813
 20
54.0376
 30
0.0
 10
-2.3292
 20
54.0376
 30
0.0
 10
-2.3292
 20
54.0376
 30
0.0
 10
-2.3292
 20
54.0376
 30
0.0
 10
-6.8469
 20
68.6419
 30
0.0
 10
-21.8188
 20
69.1672
 30
0.0
 10
-21.8188
 20
69.1672
 30
0.0
 10
-25.5951
 20
69.5201
 30
0.0
 10
-30.2025
 20
67.6877
 30
0.0
 10
-30.2025
 20
67.6877
 30
0.0
 10
-27.8333
 20
77.2529
 30
0.0
 10
-27.8333
 20
77.2529
 30
0.0
 10
-27.8333
 20
77.2529
 30
0.0
 10
-34.3854
 20
77.7292
 30
0.0
 10
-34.3854
 20
77.7292
 30
0.0
 10
-34.3854
 20
77.7292
 30
0.0
 10
-40.6146
 20
74.2926
 30
0.0
 10
-40.6146
 20
74.2926
 30
0.0
 10
-40.6146
 20
74.2926
 30
0.0
 10
-40.6861
 20
74.2531
 30
0.0
 10
-40.6861
 20
74.2531
 30
0.0
 10
-40.6861
 20
74.2531
 30
0.0
 10
-42.615
 20
72.2107
 30
0.0
 10
-42.615
 20
72.2107
 30
0.0
 10
-43.0293
 20
70.8073
 30
0.0
 10
-43.4411
 20
69.4032
 30
0.0
 10
-43.854
 20
67.9994
 30
0.0
 10
-43.854
 20
67.9994
 30
0.0
 10
-34.2635
 20
65.5381
 30
0.0
 10
-34.2635
 20
65.5381
 30
0.0
 10
-37.5514
 20
63.3111
 30
0.0
 10
-40.8375
 20
59.743
 30
0.0
 10
-43.1996
 20
54.0376
 30
0.0
 10
-43.1996
 20
54.0376
 30
0.0
 10
-39.6274
 20
54.0376
 30
0.0
 10
-39.6274
 20
54.0376
 30
0.0
  0
SPLINE
  5
61
330
1F
100
AcDbEntity
  8
Layer 1
 62
   250
370
    18
100
AcDbSpline
210
0.0
220
0.0
230
1.0
 70
    11
 71
     3
 72
    17
 73
    13
 74
     0
 42
0.0000000001
 43
0.0000000001
 40
0.0
 40
0.0
 40
0.0
 40
0.0
 40
0.25
 40
0.25
 40
0.25
 40
0.5
 40
0.5
 40
0.5
 40
0.75
 40
0.75
 40
0.75
 40
1.0
 40
1.0
 40
1.0
 40
1.0
 10
-32.835
 20
75.3437
 30
0.0
 10
-32.835
 20
75.3437
 30
0.0
 10
-31.5126
 20
74.588
 30
0.0
 10
-31.5126
 20
74.588
 30
0.0
 10
-31.5126
 20
74.588
 30
0.0
 10
-29.6971
 20
76.3387
 30
0.0
 10
-29.6971
 20
76.3387
 30
0.0
 10
-29.6971
 20
76.3387
 30
0.0
 10
-31.8647
 20
76.4962
 30
0.0
 10
-31.8647
 20
76.4962
 30
0.0
 10
-31.8647
 20
76.4962
 30
0.0
 10
-32.835
 20
75.3437
 30
0.0
 10
-32.835
 20
75.3437
 30
0.0
  0
SPLINE
  5
62
330
1F
100
AcDbEntity
  8
Layer 1
 62
   250
370
    18
100
AcDbSpline
210
0.0
220
0.0
230
1.0
 70
    11
 71
     3
 72
    14
 73
    10
 74
     0
 42
0.0000000001
 43
0.0000000001
 40
0.0
 40
0.0
 40
0.0
 40
0.0
 40
0.3333333333333333
 40
0.3333333333333333
 40
0.3333333333333333
 40
0.6666666666666666
 40
0.6666666666666666
 40
0.6666666666666666
 40
1.0
 40
1.0
 40
1.0
 40
1.0
 10
-30.9074
 20
73.7189
 30
0.0
 10
-30.9074
 20
73.7189
 30
0.0
 10
-30.8547
 20
69.4057
 30
0.0
 10
-30.8547
 20
69.4057
 30
0.0
 10
-30.8547
 20
69.4057
 30
0.0
 10
-29.4346
 20
75.139
 30
0.0
 10
-29.4346
 20
75.139
 30
0.0
 10
-29.4346
 20
75.139
 30
0.0
 10
-30.9074
 20
73.7189
 30
0.0
 10
-30.9074
 20
73.7189
 30
0.0
  0
SPLINE
  5
63
330
1F
100
AcDbEntity
  8
Layer 1
 62
   250
370
    18
100
AcDbSpline
210
0.0
220
0.0
230
1.0
 70
    11
 71
     3
 72
    14
 73
    10
 74
     0
 42
0.0000000001
 43
0.0000000001
 40
0.0
 40
0.0
 40
0.0
 40
0.0
 40
0.3333333333333333
 40
0.3333333333333333
 40
0.3333333333333333
 40
0.6666666666666666
 40
0.6666666666666666
 40
0.6666666666666666
 40
1.0
 40
1.0
 40
1.0
 40
1.0
 10
-35.6644
 20
66.9755
 30
0.0
 10
-35.6644
 20
66.9755
 30
0.0
 10
-39.3702
 20
68.8899
 30
0.0
 10
-39.3702
 20
68.8899
 30
0.0
 10
-39.3702
 20
68.8899
 30
0.0
 10
-41.1745
 20
68.3896
 30
0.0
 10
-41.1745
 20
68.3896
 30
0.0
 10
-41.1745
 20
68.3896
 30
0.0
 10
-35.6644
 20
66.9755
 30
0.0
 10
-35.6644
 20
66.9755
 30
0.0
  0
SPLINE
  5
64
330
1F
100
AcDbEntity
  8
Layer 1
 62
   250
370
    18
100
AcDbSpline
210
0.0
220
0.0
230
1.0
 70
    11
 71
     3
 72
    17
 73
    13
 74
     0
 42
0.0000000001
 43
0.0000000001
 40
0.0
 40
0.0
 40
0.0
 40
0.0
 40
0.25
 40
0.25
 40
0.25
 40
0.5
 40
0.5
 40
0.5
 40
0.75
 40
0.75
 40
0.75
 40
1.0
 40
1.0
 40
1.0
 40
1.0
 10
-39.8518
 20
69.8413
 30
0.0
 10
-39.8518
 20
69.8413
 30
0.0
 10
-39.9181
 20
71.4184
 30
0.0
 10
-39.9181
 20
71.4184
 30
0.0
 10
-39.9181
 20
71.4184
 30
0.0
 10
-41.7581
 20
71.4184
 30
0.0
 10
-41.7581
 20
71.4184
 30
0.0
 10
-41.7581
 20
71.4184
 30
0.0
 10
-42.4326
 20
69.1256
 30
0.0
 10
-42.4326
 20
69.1256
 30
0.0
 10
-42.4326
 20
69.1256
 30
0.0
 10
-39.8518
 20
69.8413
 30
0.0
 10
-39.8518
 20
69.8413
 30
0.0
  0
SPLINE
  5
65
330
1F
100
AcDbEntity
  8
Layer 1
 62
   250
370
    18
100
AcDbSpline
210
0.0
220
0.0
230
1.0
 70
    11
 71
     3
 72
    17
 73
    13
 74
     0
 42
0.0000000001
 43
0.0000000001
 40
0.0
 40
0.0
 40
0.0
 40
0.0
 40
0.25
 40
0.25
 40
0.25
 40
0.5
 40
0.5
 40
0.5
 40
0.75
 40
0.75
 40
0.75
 40
1.0
 40
1.0
 40
1.0
 40
1.0
 10
-38.8815
 20
71.6437
 30
0.0
 10
-38.8815
 20
71.6437
 30
0.0
 10
-38.8261
 20
70.3271
 30
0.0
 10
-38.8261
 20
70.3271
 30
0.0
 10
-38.8261
 20
70.3271
 30
0.0
 10
-36.3085
 20
71.7618
 30
0.0
 10
-36.3085
 20
71.7618
 30
0.0
 10
-36.3085
 20
71.7618
 30
0.0
 10
-36.9602
 20
72.7265
 30
0.0
 10
-36.9602
 20
72.7265
 30
0.0
 10
-36.9602
 20
72.7265
 30
0.0
 10
-38.8815
 20
71.6437
 30
0.0
 10
-38.8815
 20
71.6437
 30
0.0
  0
SPLINE
  5
66
330
1F
100
AcDbEntity
  8
Layer 1
 62
   250
370
    18
100
AcDbSpline
210
0.0
220
0.0
230
1.0
 70
    11
 71
     3
 72
    14
 73
    10
 74
     0
 42
0.0000000001
 43
0.0000000001
 40
0.0
 40
0.0
 40
0.0
 40
0.0
 40
0.3333333333333333
 40
0.3333333333333333
 40
0.3333333333333333
 40
0.6666666666666666
 40
0.6666666666666666
 40
0.6666666666666666
 40
1.0
 40
1.0
 40
1.0
 40
1.0
 10
-38.2179
 20
69.472
 30
0.0
 10
-38.2179
 20
69.472
 30
0.0
 10
-32.9089
 20
66.7294
 30
0.0
 10
-32.9089
 20
66.7294
 30
0.0
 10
-32.9089
 20
66.7294
 30
0.0
 10
-35.7236
 20
70.896
 30
0.0
 10
-35.7236
 20
70.896
 30
0.0
 10
-36.5553
 20
70.4217
 30
0.0
 10
-37.3867
 20
69.947
 30
0.0
 10
-38.2179
 20
69.472
 30
0.0
  0
SPLINE
  5
67
330
1F
100
AcDbEntity
  8
Layer 1
 62
   250
370
    18
100
AcDbSpline
210
0.0
220
0.0
230
1.0
 70
    11
 71
     3
 72
    14
 73
    10
 74
     0
 42
0.0000000001
 43
0.0000000001
 40
0.0
 40
0.0
 40
0.0
 40
0.0
 40
0.3333333333333333
 40
0.3333333333333333
 40
0.3333333333333333
 40
0.6666666666666666
 40
0.6666666666666666
 40
0.6666666666666666
 40
1.0
 40
1.0
 40
1.0
 40
1.0
 10
-31.8707
 20
67.0634
 30
0.0
 10
-31.8707
 20
67.0634
 30
0.0
 10
-31.9438
 20
73.0475
 30
0.0
 10
-31.9438
 20
73.0475
 30
0.0
 10
-32.8998
 20
72.5043
 30
0.0
 10
-33.8555
 20
71.9604
 30
0.0
 10
-34.8111
 20
71.416
 30
0.0
 10
-34.8111
 20
71.416
 30
0.0
 10
-31.8707
 20
67.0634
 30
0.0
 10
-31.8707
 20
67.0634
 30
0.0
  0
SPLINE
  5
68
330
1F
100
AcDbEntity
  8
Layer 1
 62
   250
370
    18
100
AcDbSpline
210
0.0
220
0.0
230
1.0
 70
    11
 71
     3
 72
    17
 73
    13
 74
     0
 42
0.0000000001
 43
0.0000000001
 40
0.0
 40
0.0
 40
0.0
 40
0.0
 40
0.25
 40
0.25
 40
0.25
 40
0.5
 40
0.5
 40
0.5
 40
0.75
 40
0.75
 40
0.75
 40
1.0
 40
1.0
 40
1.0
 40
1.0
 10
-32.4882
 20
73.939
 30
0.0
 10
-32.4882
 20
73.939
 30
0.0
 10
-33.6404
 20
74.5975
 30
0.0
 10
-33.6404
 20
74.5975
 30
0.0
 10
-33.6404
 20
74.5975
 30
0.0
 10
-36.0449
 20
73.2423
 30
0.0
 10
-36.0449
 20
73.2423
 30
0.0
 10
-36.0449
 20
73.2423
 30
0.0
 10
-35.3961
 20
72.2818
 30
0.0
 10
-35.3961
 20
72.2818
 30
0.0
 10
-35.3961
 20
72.2818
 30
0.0
 10
-32.4882
 20
73.939
 30
0.0
 10
-32.4882
 20
73.939
 30
0.0
  0
SPLINE
  5
69
330
1F
100
AcDbEntity
  8
Layer 1
 62
   250
370
    18
100
AcDbSpline
210
0.0
220
0.0
230
1.0
 70
    11
 71
     3
 72
    23
 73
    19
 74
     0
 42
0.0000000001
 43
0.0000000001
 40
0.0
 40
0.0
 40
0.0
 40
0.0
 40
0.1666666666666667
 40
0.1666666666666667
 40
0.1666666666666667
 40
0.3333333333333333
 40
0.3333333333333333
 40
0.3333333333333333
 40
0.5
 40
0.5
 40
0.5
 40
0.6666666666666666
 40
0.6666666666666666
 40
0.6666666666666666
 40
0.8333333333333333
 40
0.8333333333333333
 40
0.8333333333333333
 40
1.0
 40
1.0
 40
1.0
 40
1.0
 10
-40.9343
 20
72.467
 30
0.0
 10
-40.9343
 20
72.467
 30
0.0
 10
-39.5534
 20
72.467
 30
0.0
 10
-39.5534
 20
72.467
 30
0.0
 10
-39.5534
 20
72.467
 30
0.0
 10
-33.9734
 20
75.6118
 30
0.0
 10
-33.9734
 20
75.6118
 30
0.0
 10
-33.9734
 20
75.6118
 30
0.0
 10
-33.1501
 20
76.5896
 30
0.0
 10
-33.1501
 20
76.5896
 30
0.0
 10
-33.1501
 20
76.5896
 30
0.0
 10
-34.1523
 20
76.6625
 30
0.0
 10
-34.1523
 20
76.6625
 30
0.0
 10
-34.1523
 20
76.6625
 30
0.0
 10
-40.0392
 20
73.4147
 30
0.0
 10
-40.0392
 20
73.4147
 30
0.0
 10
-40.0392
 20
73.4147
 30
0.0
 10
-40.9343
 20
72.467
 30
0.0
 10
-40.9343
 20
72.467
 30
0.0
  0
SPLINE
  5
6A
330
1F
100
AcDbEntity
  8
Layer 1
 62
   250
370
    18
100
AcDbSpline
210
0.0
220
0.0
230
1.0
 70
    11
 71
     3
 72
    80
 73
    76
 74
     0
 42
0.0000000001
 43
0.0000000001
 40
0.0
 40
0.0
 40
0.0
 40
0.0
 40
0.04
 40
0.04
 40
0.04
 40
0.08
 40
0.08
 40
0.08
 40
0.12
 40
0.12
 40
0.12
 40
0.16
 40
0.16
 40
0.16
 40
0.2
 40
0.2
 40
0.2
 40
0.24
 40
0.24
 40
0.24
 40
0.28
 40
0.28
 40
0.28
 40
0.32
 40
0.32
 40
0.32
 40
0.36
 40
0.36
 40
0.36
 40
0.4
 40
0.4
 40
0.4
 40
0.44
 40
0.44
 40
0.44
 40
0.48
 40
0.48
 40
0.48
 40
0.52
 40
0.52
 40
0.52
 40
0.56
 40
0.56
 40
0.56
 40
0.6
 40
0.6
 40
0.6
 40
0.64
 40
0.64
 40
0.64
 40
0.68
 40
0.68
 40
0.68
 40
0.72
 40
0.72
 40
0.72
 40
0.76
 40
0.76
 40
0.76
 40
0.8
 40
0.8
 40
0.8
 40
0.84
 40
0.84
 40
0.84
 40
0.88
 40
0.88
 40
0.88
 40
0.92
 40
0.92
 40
0.92
 40
0.96
 40
0.96
 40
0.96
 40
1.0
 40
1.0
 40
1.0
 40
1.0
 10
-30.7194
 20
54.3439
 30
0.0
 10
-30.7194
 20
54.3439
 30
0.0
 10
-30.7194
 20
54.5728
 30
0.0
 10
-30.7194
 20
54.5728
 30
0.0
 10
-30.0865
 20
54.6381
 30
0.0
 10
-30.0629
 20
54.6875
 30
0.0
 10
-30.071
 20
55.562
 30
0.0
 10
-30.071
 20
55.562
 30
0.0
 10
-30.0629
 20
58.8979
 30
0.0
 10
-30.0629
 20
58.8979
 30
0.0
 10
-30.6961
 20
57.4018
 30
0.0
 10
-31.7153
 20
55.0636
 30
0.0
 10
-31.9855
 20
54.3439
 30
0.0
 10
-31.9855
 20
54.3439
 30
0.0
 10
-32.1863
 20
54.3439
 30
0.0
 10
-32.1863
 20
54.3439
 30
0.0
 10
-32.4487
 20
55.0875
 30
0.0
 10
-33.3212
 20
57.3362
 30
0.0
 10
-33.9078
 20
58.8161
 30
0.0
 10
-34.0394
 20
55.9543
 30
0.0
 10
-34.0468
 20
55.3087
 30
0.0
 10
-34.0468
 20
55.1532
 30
0.0
 10
-34.0394
 20
54.6953
 30
0.0
 10
-33.8464
 20
54.63
 30
0.0
 10
-33.3212
 20
54.5728
 30
0.0
 10
-33.3212
 20
54.5728
 30
0.0
 10
-33.3212
 20
54.3439
 30
0.0
 10
-33.3212
 20
54.3439
 30
0.0
 10
-33.3212
 20
54.3439
 30
0.0
 10
-35.151
 20
54.3439
 30
0.0
 10
-35.151
 20
54.3439
 30
0.0
 10
-35.151
 20
54.3439
 30
0.0
 10
-35.151
 20
54.5728
 30
0.0
 10
-35.151
 20
54.5728
 30
0.0
 10
-34.703
 20
54.6219
 30
0.0
 10
-34.5181
 20
54.72
 30
0.0
 10
-34.456
 20
55.1613
 30
0.0
 10
-34.4098
 20
55.5215
 30
0.0
 10
-34.4021
 20
55.8157
 30
0.0
 10
-34.2013
 20
58.7998
 30
0.0
 10
-34.1706
 20
59.2249
 30
0.0
 10
-34.2479
 20
59.3639
 30
0.0
 10
-34.927
 20
59.4295
 30
0.0
 10
-34.927
 20
59.4295
 30
0.0
 10
-34.927
 20
59.6585
 30
0.0
 10
-34.927
 20
59.6585
 30
0.0
 10
-34.927
 20
59.6585
 30
0.0
 10
-33.5836
 20
59.6585
 30
0.0
 10
-33.5836
 20
59.6585
 30
0.0
 10
-33.5836
 20
59.6585
 30
0.0
 10
-31.8776
 20
55.513
 30
0.0
 10
-31.8776
 20
55.513
 30
0.0
 10
-31.8776
 20
55.513
 30
0.0
 10
-30.0477
 20
59.6585
 30
0.0
 10
-30.0477
 20
59.6585
 30
0.0
 10
-30.0477
 20
59.6585
 30
0.0
 10
-28.6966
 20
59.6585
 30
0.0
 10
-28.6966
 20
59.6585
 30
0.0
 10
-28.6966
 20
59.6585
 30
0.0
 10
-28.6966
 20
59.4295
 30
0.0
 10
-28.6966
 20
59.4295
 30
0.0
 10
-29.3605
 20
59.3477
 30
0.0
 10
-29.4455
 20
59.2743
 30
0.0
 10
-29.43
 20
58.7018
 30
0.0
 10
-29.43
 20
58.7018
 30
0.0
 10
-29.399
 20
55.562
 30
0.0
 10
-29.399
 20
55.562
 30
0.0
 10
-29.3683
 20
54.6875
 30
0.0
 10
-29.345
 20
54.6466
 30
0.0
 10
-28.6656
 20
54.5728
 30
0.0
 10
-28.6656
 20
54.5728
 30
0.0
 10
-28.6656
 20
54.3439
 30
0.0
 10
-28.6656
 20
54.3439
 30
0.0
 10
-28.6656
 20
54.3439
 30
0.0
 10
-30.7194
 20
54.3439
 30
0.0
 10
-30.7194
 20
54.3439
 30
0.0
  0
SPLINE
  5
6B
330
1F
100
AcDbEntity
  8
Layer 1
 62
   250
370
    18
100
AcDbSpline
210
0.0
220
0.0
230
1.0
 70
    11
 71
     3
 72
    92
 73
    88
 74
     0
 42
0.0000000001
 43
0.0000000001
 40
0.0
 40
0.0
 40
0.0
 40
0.0
 40
0.0344827586206897
 40
0.0344827586206897
 40
0.0344827586206897
 40
0.0689655172413793
 40
0.0689655172413793
 40
0.0689655172413793
 40
0.103448275862069
 40
0.103448275862069
 40
0.103448275862069
 40
0.1379310344827586
 40
0.1379310344827586
 40
0.1379310344827586
 40
0.1724137931034483
 40
0.1724137931034483
 40
0.1724137931034483
 40
0.2068965517241379
 40
0.2068965517241379
 40
0.2068965517241379
 40
0.2413793103448276
 40
0.2413793103448276
 40
0.2413793103448276
 40
0.2758620689655172
 40
0.2758620689655172
 40
0.2758620689655172
 40
0.3103448275862069
 40
0.3103448275862069
 40
0.3103448275862069
 40
0.3448275862068966
 40
0.3448275862068966
 40
0.3448275862068966
 40
0.3793103448275862
 40
0.3793103448275862
 40
0.3793103448275862
 40
0.4137931034482759
 40
0.4137931034482759
 40
0.4137931034482759
 40
0.4482758620689655
 40
0.4482758620689655
 40
0.4482758620689655
 40
0.4827586206896551
 40
0.4827586206896551
 40
0.4827586206896551
 40
0.5172413793103449
 40
0.5172413793103449
 40
0.5172413793103449
 40
0.5517241379310345
 40
0.5517241379310345
 40
0.5517241379310345
 40
0.5862068965517241
 40
0.5862068965517241
 40
0.5862068965517241
 40
0.6206896551724138
 40
0.6206896551724138
 40
0.6206896551724138
 40
0.6551724137931034
 40
0.6551724137931034
 40
0.6551724137931034
 40
0.6896551724137931
 40
0.6896551724137931
 40
0.6896551724137931
 40
0.7241379310344828
 40
0.7241379310344828
 40
0.7241379310344828
 40
0.7586206896551724
 40
0.7586206896551724
 40
0.7586206896551724
 40
0.7931034482758621
 40
0.7931034482758621
 40
0.7931034482758621
 40
0.8275862068965517
 40
0.8275862068965517
 40
0.8275862068965517
 40
0.8620689655172413
 40
0.8620689655172413
 40
0.8620689655172413
 40
0.896551724137931
 40
0.896551724137931
 40
0.896551724137931
 40
0.9310344827586207
 40
0.9310344827586207
 40
0.9310344827586207
 40
0.9655172413793103
 40
0.9655172413793103
 40
0.9655172413793103
 40
1.0
 40
1.0
 40
1.0
 40
1.0
 10
-23.9617
 20
55.6437
 30
0.0
 10
-24.0083
 20
55.431
 30
0.0
 10
-24.2167
 20
54.5893
 30
0.0
 10
-24.2936
 20
54.3438
 30
0.0
 10
-24.2936
 20
54.3438
 30
0.0
 10
-28.0461
 20
54.3438
 30
0.0
 10
-28.0461
 20
54.3438
 30
0.0
 10
-28.0461
 20
54.3438
 30
0.0
 10
-28.0461
 20
54.5731
 30
0.0
 10
-28.0461
 20
54.5731
 30
0.0
 10
-27.3279
 20
54.6299
 30
0.0
 10
-27.2739
 20
54.7036
 30
0.0
 10
-27.2739
 20
55.3742
 30
0.0
 10
-27.2739
 20
55.3742
 30
0.0
 10
-27.2739
 20
58.6035
 30
0.0
 10
-27.2739
 20
58.6035
 30
0.0
 10
-27.2739
 20
59.3313
 30
0.0
 10
-27.3589
 20
59.3722
 30
0.0
 10
-27.9378
 20
59.4294
 30
0.0
 10
-27.9378
 20
59.4294
 30
0.0
 10
-27.9378
 20
59.6583
 30
0.0
 10
-27.9378
 20
59.6583
 30
0.0
 10
-27.9378
 20
59.6583
 30
0.0
 10
-25.5756
 20
59.6583
 30
0.0
 10
-25.5756
 20
59.6583
 30
0.0
 10
-24.85
 20
59.6583
 30
0.0
 10
-24.5487
 20
59.6665
 30
0.0
 10
-24.4559
 20
59.6749
 30
0.0
 10
-24.4482
 20
59.4703
 30
0.0
 10
-24.4175
 20
58.8572
 30
0.0
 10
-24.3864
 20
58.4236
 30
0.0
 10
-24.3864
 20
58.4236
 30
0.0
 10
-24.6179
 20
58.3831
 30
0.0
 10
-24.6179
 20
58.3831
 30
0.0
 10
-24.6873
 20
58.661
 30
0.0
 10
-24.7646
 20
58.8325
 30
0.0
 10
-24.85
 20
59.0043
 30
0.0
 10
-24.9735
 20
59.2742
 30
0.0
 10
-25.1509
 20
59.3313
 30
0.0
 10
-25.6141
 20
59.3313
 30
0.0
 10
-25.6141
 20
59.3313
 30
0.0
 10
-26.3475
 20
59.3313
 30
0.0
 10
-26.3475
 20
59.3313
 30
0.0
 10
-26.5867
 20
59.3313
 30
0.0
 10
-26.6022
 20
59.307
 30
0.0
 10
-26.6022
 20
59.0696
 30
0.0
 10
-26.6022
 20
59.0696
 30
0.0
 10
-26.6022
 20
57.263
 30
0.0
 10
-26.6022
 20
57.263
 30
0.0
 10
-26.6022
 20
57.263
 30
0.0
 10
-25.7453
 20
57.263
 30
0.0
 10
-25.7453
 20
57.263
 30
0.0
 10
-25.1661
 20
57.263
 30
0.0
 10
-25.1276
 20
57.3854
 30
0.0
 10
-25.0348
 20
57.9414
 30
0.0
 10
-25.0348
 20
57.9414
 30
0.0
 10
-24.7957
 20
57.9414
 30
0.0
 10
-24.7957
 20
57.9414
 30
0.0
 10
-24.7957
 20
57.9414
 30
0.0
 10
-24.7957
 20
56.2572
 30
0.0
 10
-24.7957
 20
56.2572
 30
0.0
 10
-24.7957
 20
56.2572
 30
0.0
 10
-25.0348
 20
56.2572
 30
0.0
 10
-25.0348
 20
56.2572
 30
0.0
 10
-25.1354
 20
56.846
 30
0.0
 10
-25.1971
 20
56.9275
 30
0.0
 10
-25.7531
 20
56.9275
 30
0.0
 10
-25.7531
 20
56.9275
 30
0.0
 10
-26.6022
 20
56.9275
 30
0.0
 10
-26.6022
 20
56.9275
 30
0.0
 10
-26.6022
 20
56.9275
 30
0.0
 10
-26.6022
 20
55.3001
 30
0.0
 10
-26.6022
 20
55.3001
 30
0.0
 10
-26.6022
 20
54.7279
 30
0.0
 10
-26.4322
 20
54.6796
 30
0.0
 10
-26.0462
 20
54.6708
 30
0.0
 10
-26.0462
 20
54.6708
 30
0.0
 10
-25.3287
 20
54.6708
 30
0.0
 10
-25.3287
 20
54.6708
 30
0.0
 10
-24.8574
 20
54.6708
 30
0.0
 10
-24.7801
 20
54.7442
 30
0.0
 10
-24.6104
 20
54.9576
 30
0.0
 10
-24.4637
 20
55.129
 30
0.0
 10
-24.3018
 20
55.4638
 30
0.0
 10
-24.1935
 20
55.7094
 30
0.0
 10
-24.1935
 20
55.7094
 30
0.0
 10
-23.9617
 20
55.6437
 30
0.0
 10
-23.9617
 20
55.6437
 30
0.0
  0
SPLINE
  5
6C
330
1F
100
AcDbEntity
  8
Layer 1
 62
   250
370
    18
100
AcDbSpline
210
0.0
220
0.0
230
1.0
 70
    11
 71
     3
 72
    89
 73
    85
 74
     0
 42
0.0000000001
 43
0.0000000001
 40
0.0
 40
0.0
 40
0.0
 40
0.0
 40
0.0357142857142857
 40
0.0357142857142857
 40
0.0357142857142857
 40
0.0714285714285714
 40
0.0714285714285714
 40
0.0714285714285714
 40
0.1071428571428571
 40
0.1071428571428571
 40
0.1071428571428571
 40
0.1428571428571428
 40
0.1428571428571428
 40
0.1428571428571428
 40
0.1785714285714285
 40
0.1785714285714285
 40
0.1785714285714285
 40
0.2142857142857143
 40
0.2142857142857143
 40
0.2142857142857143
 40
0.25
 40
0.25
 40
0.25
 40
0.2857142857142857
 40
0.2857142857142857
 40
0.2857142857142857
 40
0.3214285714285714
 40
0.3214285714285714
 40
0.3214285714285714
 40
0.3571428571428571
 40
0.3571428571428571
 40
0.3571428571428571
 40
0.3928571428571428
 40
0.3928571428571428
 40
0.3928571428571428
 40
0.4285714285714285
 40
0.4285714285714285
 40
0.4285714285714285
 40
0.4642857142857142
 40
0.4642857142857142
 40
0.4642857142857142
 40
0.5
 40
0.5
 40
0.5
 40
0.5357142857142857
 40
0.5357142857142857
 40
0.5357142857142857
 40
0.5714285714285714
 40
0.5714285714285714
 40
0.5714285714285714
 40
0.6071428571428571
 40
0.6071428571428571
 40
0.6071428571428571
 40
0.6428571428571428
 40
0.6428571428571428
 40
0.6428571428571428
 40
0.6785714285714285
 40
0.6785714285714285
 40
0.6785714285714285
 40
0.7142857142857142
 40
0.7142857142857142
 40
0.7142857142857142
 40
0.75
 40
0.75
 40
0.75
 40
0.7857142857142857
 40
0.7857142857142857
 40
0.7857142857142857
 40
0.8214285714285714
 40
0.8214285714285714
 40
0.8214285714285714
 40
0.8571428571428571
 40
0.8571428571428571
 40
0.8571428571428571
 40
0.8928571428571428
 40
0.8928571428571428
 40
0.8928571428571428
 40
0.9285714285714285
 40
0.9285714285714285
 40
0.9285714285714285
 40
0.9642857142857142
 40
0.9642857142857142
 40
0.9642857142857142
 40
1.0
 40
1.0
 40
1.0
 40
1.0
 10
-18.0464
 20
59.4295
 30
0.0
 10
-18.6871
 20
59.3639
 30
0.0
 10
-18.7492
 20
59.323
 30
0.0
 10
-18.7492
 20
58.6361
 30
0.0
 10
-18.7492
 20
58.6361
 30
0.0
 10
-18.7492
 20
55.3578
 30
0.0
 10
-18.7492
 20
55.3578
 30
0.0
 10
-18.7492
 20
54.6709
 30
0.0
 10
-18.6797
 20
54.6466
 30
0.0
 10
-18.0464
 20
54.5728
 30
0.0
 10
-18.0464
 20
54.5728
 30
0.0
 10
-18.0464
 20
54.3439
 30
0.0
 10
-18.0464
 20
54.3439
 30
0.0
 10
-18.0464
 20
54.3439
 30
0.0
 10
-20.1158
 20
54.3439
 30
0.0
 10
-20.1158
 20
54.3439
 30
0.0
 10
-20.1158
 20
54.3439
 30
0.0
 10
-20.1158
 20
54.5728
 30
0.0
 10
-20.1158
 20
54.5728
 30
0.0
 10
-19.4748
 20
54.6547
 30
0.0
 10
-19.4131
 20
54.6709
 30
0.0
 10
-19.4131
 20
55.3578
 30
0.0
 10
-19.4131
 20
55.3578
 30
0.0
 10
-19.4131
 20
56.9929
 30
0.0
 10
-19.4131
 20
56.9929
 30
0.0
 10
-19.4131
 20
56.9929
 30
0.0
 10
-22.0533
 20
56.9929
 30
0.0
 10
-22.0533
 20
56.9929
 30
0.0
 10
-22.0533
 20
56.9929
 30
0.0
 10
-22.0533
 20
55.3578
 30
0.0
 10
-22.0533
 20
55.3578
 30
0.0
 10
-22.0533
 20
54.6794
 30
0.0
 10
-21.9923
 20
54.6547
 30
0.0
 10
-21.359
 20
54.5728
 30
0.0
 10
-21.359
 20
54.5728
 30
0.0
 10
-21.359
 20
54.3439
 30
0.0
 10
-21.359
 20
54.3439
 30
0.0
 10
-21.359
 20
54.3439
 30
0.0
 10
-23.42
 20
54.3439
 30
0.0
 10
-23.42
 20
54.3439
 30
0.0
 10
-23.42
 20
54.3439
 30
0.0
 10
-23.42
 20
54.5728
 30
0.0
 10
-23.42
 20
54.5728
 30
0.0
 10
-22.7948
 20
54.6466
 30
0.0
 10
-22.7253
 20
54.6709
 30
0.0
 10
-22.7253
 20
55.3578
 30
0.0
 10
-22.7253
 20
55.3578
 30
0.0
 10
-22.7253
 20
58.6361
 30
0.0
 10
-22.7253
 20
58.6361
 30
0.0
 10
-22.7253
 20
59.323
 30
0.0
 10
-22.7948
 20
59.3639
 30
0.0
 10
-23.42
 20
59.4295
 30
0.0
 10
-23.42
 20
59.4295
 30
0.0
 10
-23.42
 20
59.6585
 30
0.0
 10
-23.42
 20
59.6585
 30
0.0
 10
-23.42
 20
59.6585
 30
0.0
 10
-21.359
 20
59.6585
 30
0.0
 10
-21.359
 20
59.6585
 30
0.0
 10
-21.359
 20
59.6585
 30
0.0
 10
-21.359
 20
59.4295
 30
0.0
 10
-21.359
 20
59.4295
 30
0.0
 10
-21.9764
 20
59.372
 30
0.0
 10
-22.0533
 20
59.3149
 30
0.0
 10
-22.0533
 20
58.6361
 30
0.0
 10
-22.0533
 20
58.6361
 30
0.0
 10
-22.0533
 20
57.3362
 30
0.0
 10
-22.0533
 20
57.3362
 30
0.0
 10
-22.0533
 20
57.3362
 30
0.0
 10
-19.4131
 20
57.3362
 30
0.0
 10
-19.4131
 20
57.3362
 30
0.0
 10
-19.4131
 20
57.3362
 30
0.0
 10
-19.4131
 20
58.6361
 30
0.0
 10
-19.4131
 20
58.6361
 30
0.0
 10
-19.4131
 20
59.3149
 30
0.0
 10
-19.4978
 20
59.372
 30
0.0
 10
-20.1158
 20
59.4295
 30
0.0
 10
-20.1158
 20
59.4295
 30
0.0
 10
-20.1158
 20
59.6585
 30
0.0
 10
-20.1158
 20
59.6585
 30
0.0
 10
-20.1158
 20
59.6585
 30
0.0
 10
-18.0464
 20
59.6585
 30
0.0
 10
-18.0464
 20
59.6585
 30
0.0
 10
-18.0464
 20
59.6585
 30
0.0
 10
-18.0464
 20
59.4295
 30
0.0
 10
-18.0464
 20
59.4295
 30
0.0
  0
SPLINE
  5
6D
330
1F
100
AcDbEntity
  8
Layer 1
 62
   250
370
    18
100
AcDbSpline
210
0.0
220
0.0
230
1.0
 70
    11
 71
     3
 72
    26
 73
    22
 74
     0
 42
0.0000000001
 43
0.0000000001
 40
0.0
 40
0.0
 40
0.0
 40
0.0
 40
0.1428571428571428
 40
0.1428571428571428
 40
0.1428571428571428
 40
0.2857142857142857
 40
0.2857142857142857
 40
0.2857142857142857
 40
0.4285714285714285
 40
0.4285714285714285
 40
0.4285714285714285
 40
0.5714285714285714
 40
0.5714285714285714
 40
0.5714285714285714
 40
0.7142857142857142
 40
0.7142857142857142
 40
0.7142857142857142
 40
0.8571428571428571
 40
0.8571428571428571
 40
0.8571428571428571
 40
1.0
 40
1.0
 40
1.0
 40
1.0
 10
-15.8984
 20
55.4312
 30
0.0
 10
-15.8984
 20
54.8184
 30
0.0
 10
-15.6515
 20
54.6466
 30
0.0
 10
-15.0722
 20
54.6466
 30
0.0
 10
-13.683
 20
54.6466
 30
0.0
 10
-12.9725
 20
55.652
 30
0.0
 10
-12.9725
 20
57.0832
 30
0.0
 10
-12.9725
 20
57.974
 30
0.0
 10
-13.2582
 20
58.6528
 30
0.0
 10
-13.8678
 20
59.0454
 30
0.0
 10
-14.2231
 20
59.2825
 30
0.0
 10
-14.6711
 20
59.3721
 30
0.0
 10
-15.1879
 20
59.3721
 30
0.0
 10
-15.5358
 20
59.3721
 30
0.0
 10
-15.7206
 20
59.323
 30
0.0
 10
-15.7986
 20
59.2578
 30
0.0
 10
-15.8677
 20
59.2087
 30
0.0
 10
-15.8984
 20
59.1188
 30
0.0
 10
-15.8984
 20
58.7999
 30
0.0
 10
-15.8984
 20
58.7999
 30
0.0
 10
-15.8984
 20
55.4312
 30
0.0
 10
-15.8984
 20
55.4312
 30
0.0
  0
SPLINE
  5
6E
330
1F
100
AcDbEntity
  8
Layer 1
 62
   250
370
    18
100
AcDbSpline
210
0.0
220
0.0
230
1.0
 70
    11
 71
     3
 72
    38
 73
    34
 74
     0
 42
0.0000000001
 43
0.0000000001
 40
0.0
 40
0.0
 40
0.0
 40
0.0
 40
0.0909090909090909
 40
0.0909090909090909
 40
0.0909090909090909
 40
0.1818181818181818
 40
0.1818181818181818
 40
0.1818181818181818
 40
0.2727272727272727
 40
0.2727272727272727
 40
0.2727272727272727
 40
0.3636363636363636
 40
0.3636363636363636
 40
0.3636363636363636
 40
0.4545454545454546
 40
0.4545454545454546
 40
0.4545454545454546
 40
0.5454545454545454
 40
0.5454545454545454
 40
0.5454545454545454
 40
0.6363636363636364
 40
0.6363636363636364
 40
0.6363636363636364
 40
0.7272727272727273
 40
0.7272727272727273
 40
0.7272727272727273
 40
0.8181818181818182
 40
0.8181818181818182
 40
0.8181818181818182
 40
0.9090909090909092
 40
0.9090909090909092
 40
0.9090909090909092
 40
1.0
 40
1.0
 40
1.0
 40
1.0
 10
-15.1184
 20
59.6585
 30
0.0
 10
-14.0298
 20
59.6585
 30
0.0
 10
-13.3429
 20
59.4296
 30
0.0
 10
-12.8638
 20
58.947
 30
0.0
 10
-12.486
 20
58.5547
 30
0.0
 10
-12.208
 20
57.9825
 30
0.0
 10
-12.208
 20
57.1975
 30
0.0
 10
-12.208
 20
56.2408
 30
0.0
 10
-12.5784
 20
55.464
 30
0.0
 10
-13.1729
 20
54.9902
 30
0.0
 10
-13.7599
 20
54.5238
 30
0.0
 10
-14.5088
 20
54.3439
 30
0.0
 10
-15.4585
 20
54.3439
 30
0.0
 10
-15.4585
 20
54.3439
 30
0.0
 10
-17.2651
 20
54.3439
 30
0.0
 10
-17.2651
 20
54.3439
 30
0.0
 10
-17.2651
 20
54.3439
 30
0.0
 10
-17.2651
 20
54.5729
 30
0.0
 10
-17.2651
 20
54.5729
 30
0.0
 10
-16.6008
 20
54.6381
 30
0.0
 10
-16.5698
 20
54.6953
 30
0.0
 10
-16.5698
 20
55.3656
 30
0.0
 10
-16.5698
 20
55.3656
 30
0.0
 10
-16.5698
 20
58.6284
 30
0.0
 10
-16.5698
 20
58.6284
 30
0.0
 10
-16.5698
 20
59.3315
 30
0.0
 10
-16.6629
 20
59.364
 30
0.0
 10
-17.2651
 20
59.4296
 30
0.0
 10
-17.2651
 20
59.4296
 30
0.0
 10
-17.2651
 20
59.6585
 30
0.0
 10
-17.2651
 20
59.6585
 30
0.0
 10
-17.2651
 20
59.6585
 30
0.0
 10
-15.1184
 20
59.6585
 30
0.0
 10
-15.1184
 20
59.6585
 30
0.0
  0
SPLINE
  5
6F
330
1F
100
AcDbEntity
  8
Layer 1
 62
   250
370
    18
100
AcDbSpline
210
0.0
220
0.0
230
1.0
 70
    11
 71
     3
 72
    41
 73
    37
 74
     0
 42
0.0000000001
 43
0.0000000001
 40
0.0
 40
0.0
 40
0.0
 40
0.0
 40
0.0833333333333333
 40
0.0833333333333333
 40
0.0833333333333333
 40
0.1666666666666667
 40
0.1666666666666667
 40
0.1666666666666667
 40
0.25
 40
0.25
 40
0.25
 40
0.3333333333333333
 40
0.3333333333333333
 40
0.3333333333333333
 40
0.4166666666666666
 40
0.4166666666666666
 40
0.4166666666666666
 40
0.5
 40
0.5
 40
0.5
 40
0.5833333333333333
 40
0.5833333333333333
 40
0.5833333333333333
 40
0.6666666666666666
 40
0.6666666666666666
 40
0.6666666666666666
 40
0.75
 40
0.75
 40
0.75
 40
0.8333333333333333
 40
0.8333333333333333
 40
0.8333333333333333
 40
0.9166666666666666
 40
0.9166666666666666
 40
0.9166666666666666
 40
1.0
 40
1.0
 40
1.0
 40
1.0
 10
-11.4574
 20
54.3439
 30
0.0
 10
-11.4574
 20
54.3439
 30
0.0
 10
-11.4574
 20
54.5728
 30
0.0
 10
-11.4574
 20
54.5728
 30
0.0
 10
-10.8245
 20
54.6466
 30
0.0
 10
-10.7624
 20
54.6794
 30
0.0
 10
-10.7624
 20
55.3744
 30
0.0
 10
-10.7624
 20
55.3744
 30
0.0
 10
-10.7624
 20
58.6199
 30
0.0
 10
-10.7624
 20
58.6199
 30
0.0
 10
-10.7624
 20
59.323
 30
0.0
 10
-10.8245
 20
59.3558
 30
0.0
 10
-11.4574
 20
59.4295
 30
0.0
 10
-11.4574
 20
59.4295
 30
0.0
 10
-11.4574
 20
59.6585
 30
0.0
 10
-11.4574
 20
59.6585
 30
0.0
 10
-11.4574
 20
59.6585
 30
0.0
 10
-9.3887
 20
59.6585
 30
0.0
 10
-9.3887
 20
59.6585
 30
0.0
 10
-9.3887
 20
59.6585
 30
0.0
 10
-9.3887
 20
59.4295
 30
0.0
 10
-9.3887
 20
59.4295
 30
0.0
 10
-10.0293
 20
59.3558
 30
0.0
 10
-10.0907
 20
59.323
 30
0.0
 10
-10.0907
 20
58.6199
 30
0.0
 10
-10.0907
 20
58.6199
 30
0.0
 10
-10.0907
 20
55.3744
 30
0.0
 10
-10.0907
 20
55.3744
 30
0.0
 10
-10.0907
 20
54.6709
 30
0.0
 10
-10.0293
 20
54.6466
 30
0.0
 10
-9.3887
 20
54.5728
 30
0.0
 10
-9.3887
 20
54.5728
 30
0.0
 10
-9.3887
 20
54.3439
 30
0.0
 10
-9.3887
 20
54.3439
 30
0.0
 10
-9.3887
 20
54.3439
 30
0.0
 10
-11.4574
 20
54.3439
 30
0.0
 10
-11.4574
 20
54.3439
 30
0.0
  0
SPLINE
  5
70
330
1F
100
AcDbEntity
  8
Layer 1
 62
   250
100
AcDbSpline
210
0.0
220
0.0
230
1.0
 70
    11
 71
     3
 72
    95
 73
    91
 74
     0
 42
0.0000000001
 43
0.0000000001
 40
0.0
 40
0.0
 40
0.0
 40
0.0
 40
0.0333333333333333
 40
0.0333333333333333
 40
0.0333333333333333
 40
0.0666666666666667
 40
0.0666666666666667
 40
0.0666666666666667
 40
0.1
 40
0.1
 40
0.1
 40
0.1333333333333333
 40
0.1333333333333333
 40
0.1333333333333333
 40
0.1666666666666667
 40
0.1666666666666667
 40
0.1666666666666667
 40
0.2
 40
0.2
 40
0.2
 40
0.2333333333333333
 40
0.2333333333333333
 40
0.2333333333333333
 40
0.2666666666666667
 40
0.2666666666666667
 40
0.2666666666666667
 40
0.3
 40
0.3
 40
0.3
 40
0.3333333333333333
 40
0.3333333333333333
 40
0.3333333333333333
 40
0.3666666666666666
 40
0.3666666666666666
 40
0.3666666666666666
 40
0.4
 40
0.4
 40
0.4
 40
0.4333333333333333
 40
0.4333333333333333
 40
0.4333333333333333
 40
0.4666666666666667
 40
0.4666666666666667
 40
0.4666666666666667
 40
0.5
 40
0.5
 40
0.5
 40
0.5333333333333333
 40
0.5333333333333333
 40
0.5333333333333333
 40
0.5666666666666667
 40
0.5666666666666667
 40
0.5666666666666667
 40
0.6
 40
0.6
 40
0.6
 40
0.6333333333333333
 40
0.6333333333333333
 40
0.6333333333333333
 40
0.6666666666666666
 40
0.6666666666666666
 40
0.6666666666666666
 40
0.7
 40
0.7
 40
0.7
 40
0.7333333333333333
 40
0.7333333333333333
 40
0.7333333333333333
 40
0.7666666666666666
 40
0.7666666666666666
 40
0.7666666666666666
 40
0.8
 40
0.8
 40
0.8
 40
0.8333333333333334
 40
0.8333333333333334
 40
0.8333333333333334
 40
0.8666666666666667
 40
0.8666666666666667
 40
0.8666666666666667
 40
0.9
 40
0.9
 40
0.9
 40
0.9333333333333333
 40
0.9333333333333333
 40
0.9333333333333333
 40
0.9666666666666667
 40
0.9666666666666667
 40
0.9666666666666667
 40
1.0
 40
1.0
 40
1.0
 40
1.0
 10
-43.0827
 20
51.6609
 30
0.0
 10
-43.0827
 20
51.6609
 30
0.0
 10
-40.6284
 20
51.6609
 30
0.0
 10
-40.6284
 20
51.6609
 30
0.0
 10
-40.6284
 20
51.6609
 30
0.0
 10
-40.6284
 20
51.3921
 30
0.0
 10
-40.6284
 20
51.3921
 30
0.0
 10
-40.6284
 20
51.3921
 30
0.0
 10
-40.9776
 20
51.3921
 30
0.0
 10
-40.9776
 20
51.3921
 30
0.0
 10
-41.1152
 20
51.3921
 30
0.0
 10
-41.2136
 20
51.3684
 30
0.0
 10
-41.2722
 20
51.3204
 30
0.0
 10
-41.3311
 20
51.2725
 30
0.0
 10
-41.3604
 20
51.2033
 30
0.0
 10
-41.3604
 20
51.1127
 30
0.0
 10
-41.3604
 20
51.1127
 30
0.0
 10
-41.3604
 20
47.6755
 30
0.0
 10
-41.3604
 20
47.6755
 30
0.0
 10
-41.3604
 20
47.4103
 30
0.0
 10
-41.4278
 20
47.1707
 30
0.0
 10
-41.5629
 20
46.9573
 30
0.0
 10
-41.698
 20
46.7435
 30
0.0
 10
-41.8959
 20
46.5738
 30
0.0
 10
-42.1559
 20
46.4482
 30
0.0
 10
-42.4163
 20
46.3226
 30
0.0
 10
-42.7101
 20
46.2598
 30
0.0
 10
-43.0375
 20
46.2598
 30
0.0
 10
-43.4831
 20
46.2598
 30
0.0
 10
-43.8471
 20
46.3851
 30
0.0
 10
-44.1297
 20
46.6345
 30
0.0
 10
-44.4123
 20
46.8839
 30
0.0
 10
-44.5534
 20
47.1894
 30
0.0
 10
-44.5534
 20
47.5507
 30
0.0
 10
-44.5534
 20
47.8174
 30
0.0
 10
-44.4821
 20
48.0315
 30
0.0
 10
-44.3396
 20
48.1917
 30
0.0
 10
-44.1971
 20
48.3515
 30
0.0
 10
-44.0221
 20
48.4319
 30
0.0
 10
-43.8143
 20
48.4319
 30
0.0
 10
-43.6443
 20
48.4319
 30
0.0
 10
-43.5042
 20
48.3797
 30
0.0
 10
-43.3942
 20
48.2756
 30
0.0
 10
-43.2841
 20
48.1716
 30
0.0
 10
-43.2291
 20
48.04
 30
0.0
 10
-43.2291
 20
47.8798
 30
0.0
 10
-43.2291
 20
47.7415
 30
0.0
 10
-43.2739
 20
47.6251
 30
0.0
 10
-43.3638
 20
47.5306
 30
0.0
 10
-43.4541
 20
47.436
 30
0.0
 10
-43.5579
 20
47.3891
 30
0.0
 10
-43.6757
 20
47.3891
 30
0.0
 10
-43.7208
 20
47.3891
 30
0.0
 10
-43.7833
 20
47.4011
 30
0.0
 10
-43.8634
 20
47.4247
 30
0.0
 10
-43.9307
 20
47.4438
 30
0.0
 10
-43.9759
 20
47.4533
 30
0.0
 10
-43.9981
 20
47.4533
 30
0.0
 10
-44.0408
 20
47.4533
 30
0.0
 10
-44.0747
 20
47.4364
 30
0.0
 10
-44.0997
 20
47.4036
 30
0.0
 10
-44.1272
 20
47.3697
 30
0.0
 10
-44.141
 20
47.3192
 30
0.0
 10
-44.141
 20
47.2526
 30
0.0
 10
-44.141
 20
47.0737
 30
0.0
 10
-44.0465
 20
46.9104
 30
0.0
 10
-43.8574
 20
46.7633
 30
0.0
 10
-43.6686
 20
46.6162
 30
0.0
 10
-43.4365
 20
46.5431
 30
0.0
 10
-43.1617
 20
46.5431
 30
0.0
 10
-42.8488
 20
46.5431
 30
0.0
 10
-42.6025
 20
46.6465
 30
0.0
 10
-42.4223
 20
46.8532
 30
0.0
 10
-42.2423
 20
47.0599
 30
0.0
 10
-42.152
 20
47.3482
 30
0.0
 10
-42.152
 20
47.7186
 30
0.0
 10
-42.152
 20
47.7186
 30
0.0
 10
-42.152
 20
51.1127
 30
0.0
 10
-42.152
 20
51.1127
 30
0.0
 10
-42.152
 20
51.2058
 30
0.0
 10
-42.1852
 20
51.2756
 30
0.0
 10
-42.2515
 20
51.3222
 30
0.0
 10
-42.3178
 20
51.3688
 30
0.0
 10
-42.4311
 20
51.3921
 30
0.0
 10
-42.5912
 20
51.3921
 30
0.0
 10
-42.5912
 20
51.3921
 30
0.0
 10
-43.0827
 20
51.3921
 30
0.0
 10
-43.0827
 20
51.3921
 30
0.0
 10
-43.0827
 20
51.3921
 30
0.0
 10
-43.0827
 20
51.6609
 30
0.0
 10
-43.0827
 20
51.6609
 30
0.0
  0
SPLINE
  5
71
330
1F
100
AcDbEntity
  8
Layer 1
 62
   250
100
AcDbSpline
210
0.0
220
0.0
230
1.0
 70
    11
 71
     3
 72
   110
 73
   106
 74
     0
 42
0.0000000001
 43
0.0000000001
 40
0.0
 40
0.0
 40
0.0
 40
0.0
 40
0.0285714285714286
 40
0.0285714285714286
 40
0.0285714285714286
 40
0.0571428571428571
 40
0.0571428571428571
 40
0.0571428571428571
 40
0.0857142857142857
 40
0.0857142857142857
 40
0.0857142857142857
 40
0.1142857142857143
 40
0.1142857142857143
 40
0.1142857142857143
 40
0.1428571428571428
 40
0.1428571428571428
 40
0.1428571428571428
 40
0.1714285714285714
 40
0.1714285714285714
 40
0.1714285714285714
 40
0.2
 40
0.2
 40
0.2
 40
0.2285714285714286
 40
0.2285714285714286
 40
0.2285714285714286
 40
0.2571428571428571
 40
0.2571428571428571
 40
0.2571428571428571
 40
0.2857142857142857
 40
0.2857142857142857
 40
0.2857142857142857
 40
0.3142857142857143
 40
0.3142857142857143
 40
0.3142857142857143
 40
0.3428571428571429
 40
0.3428571428571429
 40
0.3428571428571429
 40
0.3714285714285714
 40
0.3714285714285714
 40
0.3714285714285714
 40
0.4
 40
0.4
 40
0.4
 40
0.4285714285714285
 40
0.4285714285714285
 40
0.4285714285714285
 40
0.4571428571428571
 40
0.4571428571428571
 40
0.4571428571428571
 40
0.4857142857142857
 40
0.4857142857142857
 40
0.4857142857142857
 40
0.5142857142857142
 40
0.5142857142857142
 40
0.5142857142857142
 40
0.5428571428571428
 40
0.5428571428571428
 40
0.5428571428571428
 40
0.5714285714285714
 40
0.5714285714285714
 40
0.5714285714285714
 40
0.6
 40
0.6
 40
0.6
 40
0.6285714285714286
 40
0.6285714285714286
 40
0.6285714285714286
 40
0.6571428571428571
 40
0.6571428571428571
 40
0.6571428571428571
 40
0.6857142857142857
 40
0.6857142857142857
 40
0.6857142857142857
 40
0.7142857142857143
 40
0.7142857142857143
 40
0.7142857142857143
 40
0.7428571428571429
 40
0.7428571428571429
 40
0.7428571428571429
 40
0.7714285714285714
 40
0.7714285714285714
 40
0.7714285714285714
 40
0.7999999999999999
 40
0.7999999999999999
 40
0.7999999999999999
 40
0.8285714285714285
 40
0.8285714285714285
 40
0.8285714285714285
 40
0.8571428571428571
 40
0.8571428571428571
 40
0.8571428571428571
 40
0.8857142857142857
 40
0.8857142857142857
 40
0.8857142857142857
 40
0.9142857142857143
 40
0.9142857142857143
 40
0.9142857142857143
 40
0.9428571428571428
 40
0.9428571428571428
 40
0.9428571428571428
 40
0.9714285714285714
 40
0.9714285714285714
 40
0.9714285714285714
 40
1.0
 40
1.0
 40
1.0
 40
1.0
 10
-39.2552
 20
51.6609
 30
0.0
 10
-39.2552
 20
51.6609
 30
0.0
 10
-34.8574
 20
51.6609
 30
0.0
 10
-34.8574
 20
51.6609
 30
0.0
 10
-34.8574
 20
51.6609
 30
0.0
 10
-34.7523
 20
49.8726
 30
0.0
 10
-34.7523
 20
49.8726
 30
0.0
 10
-34.7523
 20
49.8726
 30
0.0
 10
-35.0038
 20
49.8726
 30
0.0
 10
-35.0038
 20
49.8726
 30
0.0
 10
-35.1037
 20
50.4367
 30
0.0
 10
-35.2617
 20
50.8308
 30
0.0
 10
-35.4776
 20
51.0555
 30
0.0
 10
-35.6939
 20
51.2795
 30
0.0
 10
-35.9754
 20
51.3921
 30
0.0
 10
-36.3225
 20
51.3921
 30
0.0
 10
-36.3225
 20
51.3921
 30
0.0
 10
-37.4094
 20
51.3921
 30
0.0
 10
-37.4094
 20
51.3921
 30
0.0
 10
-37.4969
 20
51.3921
 30
0.0
 10
-37.5632
 20
51.3695
 30
0.0
 10
-37.608
 20
51.324
 30
0.0
 10
-37.6532
 20
51.2788
 30
0.0
 10
-37.6754
 20
51.2093
 30
0.0
 10
-37.6754
 20
51.1165
 30
0.0
 10
-37.6754
 20
51.1165
 30
0.0
 10
-37.6754
 20
49.2274
 30
0.0
 10
-37.6754
 20
49.2274
 30
0.0
 10
-37.6754
 20
49.2274
 30
0.0
 10
-37.2002
 20
49.2274
 30
0.0
 10
-37.2002
 20
49.2274
 30
0.0
 10
-36.9459
 20
49.2274
 30
0.0
 10
-36.7395
 20
49.3149
 30
0.0
 10
-36.5811
 20
49.4892
 30
0.0
 10
-36.4224
 20
49.6638
 30
0.0
 10
-36.3373
 20
49.9316
 30
0.0
 10
-36.3246
 20
50.2917
 30
0.0
 10
-36.3246
 20
50.2917
 30
0.0
 10
-36.0657
 20
50.2917
 30
0.0
 10
-36.0657
 20
50.2917
 30
0.0
 10
-36.0657
 20
50.2917
 30
0.0
 10
-36.0657
 20
47.8368
 30
0.0
 10
-36.0657
 20
47.8368
 30
0.0
 10
-36.0657
 20
47.8368
 30
0.0
 10
-36.3246
 20
47.8368
 30
0.0
 10
-36.3246
 20
47.8368
 30
0.0
 10
-36.3373
 20
48.2432
 30
0.0
 10
-36.4238
 20
48.5342
 30
0.0
 10
-36.585
 20
48.7095
 30
0.0
 10
-36.7455
 20
48.8852
 30
0.0
 10
-36.9646
 20
48.9731
 30
0.0
 10
-37.2415
 20
48.9731
 30
0.0
 10
-37.2415
 20
48.9731
 30
0.0
 10
-37.6754
 20
48.9731
 30
0.0
 10
-37.6754
 20
48.9731
 30
0.0
 10
-37.6754
 20
48.9731
 30
0.0
 10
-37.6754
 20
46.8656
 30
0.0
 10
-37.6754
 20
46.8656
 30
0.0
 10
-37.6754
 20
46.789
 30
0.0
 10
-37.6486
 20
46.7305
 30
0.0
 10
-37.595
 20
46.6899
 30
0.0
 10
-37.5414
 20
46.6497
 30
0.0
 10
-37.4521
 20
46.6289
 30
0.0
 10
-37.3269
 20
46.6289
 30
0.0
 10
-37.3269
 20
46.6289
 30
0.0
 10
-36.4689
 20
46.6289
 30
0.0
 10
-36.4689
 20
46.6289
 30
0.0
 10
-35.5369
 20
46.6289
 30
0.0
 10
-35.0
 20
47.1982
 30
0.0
 10
-34.8574
 20
48.3349
 30
0.0
 10
-34.8574
 20
48.3349
 30
0.0
 10
-34.5872
 20
48.3349
 30
0.0
 10
-34.5872
 20
48.3349
 30
0.0
 10
-34.5872
 20
48.3349
 30
0.0
 10
-34.681
 20
46.3604
 30
0.0
 10
-34.681
 20
46.3604
 30
0.0
 10
-34.681
 20
46.3604
 30
0.0
 10
-39.2552
 20
46.3604
 30
0.0
 10
-39.2552
 20
46.3604
 30
0.0
 10
-39.2552
 20
46.3604
 30
0.0
 10
-39.2552
 20
46.6289
 30
0.0
 10
-39.2552
 20
46.6289
 30
0.0
 10
-39.2552
 20
46.6289
 30
0.0
 10
-38.8763
 20
46.6289
 30
0.0
 10
-38.8763
 20
46.6289
 30
0.0
 10
-38.7288
 20
46.6289
 30
0.0
 10
-38.6248
 20
46.6535
 30
0.0
 10
-38.5648
 20
46.7022
 30
0.0
 10
-38.5048
 20
46.7513
 30
0.0
 10
-38.4748
 20
46.8225
 30
0.0
 10
-38.4748
 20
46.916
 30
0.0
 10
-38.4748
 20
46.916
 30
0.0
 10
-38.4748
 20
51.1165
 30
0.0
 10
-38.4748
 20
51.1165
 30
0.0
 10
-38.4748
 20
51.2093
 30
0.0
 10
-38.5009
 20
51.2788
 30
0.0
 10
-38.5535
 20
51.324
 30
0.0
 10
-38.6061
 20
51.3695
 30
0.0
 10
-38.6886
 20
51.3921
 30
0.0
 10
-38.8011
 20
51.3921
 30
0.0
 10
-38.8011
 20
51.3921
 30
0.0
 10
-39.2552
 20
51.3921
 30
0.0
 10
-39.2552
 20
51.3921
 30
0.0
 10
-39.2552
 20
51.3921
 30
0.0
 10
-39.2552
 20
51.6609
 30
0.0
 10
-39.2552
 20
51.6609
 30
0.0
  0
SPLINE
  5
72
330
1F
100
AcDbEntity
  8
Layer 1
 62
   250
100
AcDbSpline
210
0.0
220
0.0
230
1.0
 70
    11
 71
     3
 72
   125
 73
   121
 74
     0
 42
0.0000000001
 43
0.0000000001
 40
0.0
 40
0.0
 40
0.0
 40
0.0
 40
0.025
 40
0.025
 40
0.025
 40
0.05
 40
0.05
 40
0.05
 40
0.075
 40
0.075
 40
0.075
 40
0.1
 40
0.1
 40
0.1
 40
0.125
 40
0.125
 40
0.125
 40
0.15
 40
0.15
 40
0.15
 40
0.175
 40
0.175
 40
0.175
 40
0.2
 40
0.2
 40
0.2
 40
0.225
 40
0.225
 40
0.225
 40
0.25
 40
0.25
 40
0.25
 40
0.275
 40
0.275
 40
0.275
 40
0.3
 40
0.3
 40
0.3
 40
0.325
 40
0.325
 40
0.325
 40
0.35
 40
0.35
 40
0.35
 40
0.375
 40
0.375
 40
0.375
 40
0.4
 40
0.4
 40
0.4
 40
0.425
 40
0.425
 40
0.425
 40
0.45
 40
0.45
 40
0.45
 40
0.475
 40
0.475
 40
0.475
 40
0.5
 40
0.5
 40
0.5
 40
0.525
 40
0.525
 40
0.525
 40
0.55
 40
0.55
 40
0.55
 40
0.5750000000000001
 40
0.5750000000000001
 40
0.5750000000000001
 40
0.6000000000000001
 40
0.6000000000000001
 40
0.6000000000000001
 40
0.625
 40
0.625
 40
0.625
 40
0.65
 40
0.65
 40
0.65
 40
0.675
 40
0.675
 40
0.675
 40
0.7000000000000001
 40
0.7000000000000001
 40
0.7000000000000001
 40
0.7250000000000001
 40
0.7250000000000001
 40
0.7250000000000001
 40
0.75
 40
0.75
 40
0.75
 40
0.775
 40
0.775
 40
0.775
 40
0.8
 40
0.8
 40
0.8
 40
0.8250000000000001
 40
0.8250000000000001
 40
0.8250000000000001
 40
0.8500000000000001
 40
0.8500000000000001
 40
0.8500000000000001
 40
0.875
 40
0.875
 40
0.875
 40
0.9
 40
0.9
 40
0.9
 40
0.925
 40
0.925
 40
0.925
 40
0.9500000000000001
 40
0.9500000000000001
 40
0.9500000000000001
 40
0.9750000000000001
 40
0.9750000000000001
 40
0.9750000000000001
 40
1.0
 40
1.0
 40
1.0
 40
1.0
 10
-33.4391
 20
51.6609
 30
0.0
 10
-33.4391
 20
51.6609
 30
0.0
 10
-31.5856
 20
51.6609
 30
0.0
 10
-31.5856
 20
51.6609
 30
0.0
 10
-31.5856
 20
51.6609
 30
0.0
 10
-31.5856
 20
51.3921
 30
0.0
 10
-31.5856
 20
51.3921
 30
0.0
 10
-31.5856
 20
51.3921
 30
0.0
 10
-31.7165
 20
51.3921
 30
0.0
 10
-31.7165
 20
51.3921
 30
0.0
 10
-31.9105
 20
51.3921
 30
0.0
 10
-32.0347
 20
51.3776
 30
0.0
 10
-32.0887
 20
51.349
 30
0.0
 10
-32.1423
 20
51.3204
 30
0.0
 10
-32.1691
 20
51.2749
 30
0.0
 10
-32.1691
 20
51.2125
 30
0.0
 10
-32.1691
 20
51.1698
 30
0.0
 10
-32.1501
 20
51.1021
 30
0.0
 10
-32.1127
 20
51.0086
 30
0.0
 10
-32.1127
 20
51.0086
 30
0.0
 10
-32.0901
 20
50.9405
 30
0.0
 10
-32.0901
 20
50.9405
 30
0.0
 10
-32.0901
 20
50.9405
 30
0.0
 10
-30.9609
 20
47.5754
 30
0.0
 10
-30.9609
 20
47.5754
 30
0.0
 10
-30.9609
 20
47.5754
 30
0.0
 10
-29.9692
 20
50.6837
 30
0.0
 10
-29.9692
 20
50.6837
 30
0.0
 10
-30.0849
 20
51.0365
 30
0.0
 10
-30.1735
 20
51.2432
 30
0.0
 10
-30.2345
 20
51.3028
 30
0.0
 10
-30.2955
 20
51.3621
 30
0.0
 10
-30.4172
 20
51.3921
 30
0.0
 10
-30.5996
 20
51.3921
 30
0.0
 10
-30.5996
 20
51.3921
 30
0.0
 10
-30.9365
 20
51.3921
 30
0.0
 10
-30.9365
 20
51.3921
 30
0.0
 10
-30.9365
 20
51.3921
 30
0.0
 10
-30.9365
 20
51.6609
 30
0.0
 10
-30.9365
 20
51.6609
 30
0.0
 10
-30.9365
 20
51.6609
 30
0.0
 10
-28.6212
 20
51.6609
 30
0.0
 10
-28.6212
 20
51.6609
 30
0.0
 10
-28.6212
 20
51.6609
 30
0.0
 10
-28.6212
 20
51.3921
 30
0.0
 10
-28.6212
 20
51.3921
 30
0.0
 10
-28.6212
 20
51.3921
 30
0.0
 10
-28.8611
 20
51.3921
 30
0.0
 10
-28.8611
 20
51.3921
 30
0.0
 10
-29.071
 20
51.3921
 30
0.0
 10
-29.2072
 20
51.3758
 30
0.0
 10
-29.2696
 20
51.3441
 30
0.0
 10
-29.3321
 20
51.3116
 30
0.0
 10
-29.3635
 20
51.2629
 30
0.0
 10
-29.3635
 20
51.1984
 30
0.0
 10
-29.3635
 20
51.1483
 30
0.0
 10
-29.3557
 20
51.1021
 30
0.0
 10
-29.3409
 20
51.059
 30
0.0
 10
-29.3409
 20
51.059
 30
0.0
 10
-28.1916
 20
47.5754
 30
0.0
 10
-28.1916
 20
47.5754
 30
0.0
 10
-28.1916
 20
47.5754
 30
0.0
 10
-27.2451
 20
50.5895
 30
0.0
 10
-27.2451
 20
50.5895
 30
0.0
 10
-27.2077
 20
50.7066
 30
0.0
 10
-27.189
 20
50.8184
 30
0.0
 10
-27.189
 20
50.9264
 30
0.0
 10
-27.189
 20
51.0862
 30
0.0
 10
-27.2271
 20
51.2037
 30
0.0
 10
-27.3029
 20
51.2792
 30
0.0
 10
-27.3795
 20
51.3547
 30
0.0
 10
-27.4934
 20
51.3921
 30
0.0
 10
-27.6458
 20
51.3921
 30
0.0
 10
-27.6458
 20
51.3921
 30
0.0
 10
-27.818
 20
51.3921
 30
0.0
 10
-27.818
 20
51.3921
 30
0.0
 10
-27.818
 20
51.3921
 30
0.0
 10
-27.818
 20
51.6609
 30
0.0
 10
-27.818
 20
51.6609
 30
0.0
 10
-27.818
 20
51.6609
 30
0.0
 10
-26.077
 20
51.6609
 30
0.0
 10
-26.077
 20
51.6609
 30
0.0
 10
-26.077
 20
51.6609
 30
0.0
 10
-26.077
 20
51.3921
 30
0.0
 10
-26.077
 20
51.3921
 30
0.0
 10
-26.2298
 20
51.373
 30
0.0
 10
-26.3511
 20
51.3381
 30
0.0
 10
-26.4414
 20
51.2862
 30
0.0
 10
-26.5314
 20
51.2354
 30
0.0
 10
-26.6097
 20
51.1617
 30
0.0
 10
-26.676
 20
51.0661
 30
0.0
 10
-26.7423
 20
50.9701
 30
0.0
 10
-26.8094
 20
50.8117
 30
0.0
 10
-26.8768
 20
50.5895
 30
0.0
 10
-26.8768
 20
50.5895
 30
0.0
 10
-28.2441
 20
46.2348
 30
0.0
 10
-28.2441
 20
46.2348
 30
0.0
 10
-28.2441
 20
46.2348
 30
0.0
 10
-28.5112
 20
46.2348
 30
0.0
 10
-28.5112
 20
46.2348
 30
0.0
 10
-28.5112
 20
46.2348
 30
0.0
 10
-29.7879
 20
50.1305
 30
0.0
 10
-29.7879
 20
50.1305
 30
0.0
 10
-29.7879
 20
50.1305
 30
0.0
 10
-31.0057
 20
46.2348
 30
0.0
 10
-31.0057
 20
46.2348
 30
0.0
 10
-31.0057
 20
46.2348
 30
0.0
 10
-31.2868
 20
46.2348
 30
0.0
 10
-31.2868
 20
46.2348
 30
0.0
 10
-31.2868
 20
46.2348
 30
0.0
 10
-32.8496
 20
50.9405
 30
0.0
 10
-32.8496
 20
50.9405
 30
0.0
 10
-32.9121
 20
51.1243
 30
0.0
 10
-32.983
 20
51.246
 30
0.0
 10
-33.0617
 20
51.3042
 30
0.0
 10
-33.1407
 20
51.3628
 30
0.0
 10
-33.2666
 20
51.3921
 30
0.0
 10
-33.4391
 20
51.3921
 30
0.0
 10
-33.4391
 20
51.3921
 30
0.0
 10
-33.4391
 20
51.6609
 30
0.0
 10
-33.4391
 20
51.6609
 30
0.0
  0
SPLINE
  5
73
330
1F
100
AcDbEntity
  8
Layer 1
 62
   250
100
AcDbSpline
210
0.0
220
0.0
230
1.0
 70
    11
 71
     3
 72
   110
 73
   106
 74
     0
 42
0.0000000001
 43
0.0000000001
 40
0.0
 40
0.0
 40
0.0
 40
0.0
 40
0.0285714285714286
 40
0.0285714285714286
 40
0.0285714285714286
 40
0.0571428571428571
 40
0.0571428571428571
 40
0.0571428571428571
 40
0.0857142857142857
 40
0.0857142857142857
 40
0.0857142857142857
 40
0.1142857142857143
 40
0.1142857142857143
 40
0.1142857142857143
 40
0.1428571428571428
 40
0.1428571428571428
 40
0.1428571428571428
 40
0.1714285714285714
 40
0.1714285714285714
 40
0.1714285714285714
 40
0.2
 40
0.2
 40
0.2
 40
0.2285714285714286
 40
0.2285714285714286
 40
0.2285714285714286
 40
0.2571428571428571
 40
0.2571428571428571
 40
0.2571428571428571
 40
0.2857142857142857
 40
0.2857142857142857
 40
0.2857142857142857
 40
0.3142857142857143
 40
0.3142857142857143
 40
0.3142857142857143
 40
0.3428571428571429
 40
0.3428571428571429
 40
0.3428571428571429
 40
0.3714285714285714
 40
0.3714285714285714
 40
0.3714285714285714
 40
0.4
 40
0.4
 40
0.4
 40
0.4285714285714285
 40
0.4285714285714285
 40
0.4285714285714285
 40
0.4571428571428571
 40
0.4571428571428571
 40
0.4571428571428571
 40
0.4857142857142857
 40
0.4857142857142857
 40
0.4857142857142857
 40
0.5142857142857142
 40
0.5142857142857142
 40
0.5142857142857142
 40
0.5428571428571428
 40
0.5428571428571428
 40
0.5428571428571428
 40
0.5714285714285714
 40
0.5714285714285714
 40
0.5714285714285714
 40
0.6
 40
0.6
 40
0.6
 40
0.6285714285714286
 40
0.6285714285714286
 40
0.6285714285714286
 40
0.6571428571428571
 40
0.6571428571428571
 40
0.6571428571428571
 40
0.6857142857142857
 40
0.6857142857142857
 40
0.6857142857142857
 40
0.7142857142857143
 40
0.7142857142857143
 40
0.7142857142857143
 40
0.7428571428571429
 40
0.7428571428571429
 40
0.7428571428571429
 40
0.7714285714285714
 40
0.7714285714285714
 40
0.7714285714285714
 40
0.7999999999999999
 40
0.7999999999999999
 40
0.7999999999999999
 40
0.8285714285714285
 40
0.8285714285714285
 40
0.8285714285714285
 40
0.8571428571428571
 40
0.8571428571428571
 40
0.8571428571428571
 40
0.8857142857142857
 40
0.8857142857142857
 40
0.8857142857142857
 40
0.9142857142857143
 40
0.9142857142857143
 40
0.9142857142857143
 40
0.9428571428571428
 40
0.9428571428571428
 40
0.9428571428571428
 40
0.9714285714285714
 40
0.9714285714285714
 40
0.9714285714285714
 40
1.0
 40
1.0
 40
1.0
 40
1.0
 10
-24.8913
 20
51.6609
 30
0.0
 10
-24.8913
 20
51.6609
 30
0.0
 10
-20.4939
 20
51.6609
 30
0.0
 10
-20.4939
 20
51.6609
 30
0.0
 10
-20.4939
 20
51.6609
 30
0.0
 10
-20.3881
 20
49.8726
 30
0.0
 10
-20.3881
 20
49.8726
 30
0.0
 10
-20.3881
 20
49.8726
 30
0.0
 10
-20.64
 20
49.8726
 30
0.0
 10
-20.64
 20
49.8726
 30
0.0
 10
-20.7395
 20
50.4367
 30
0.0
 10
-20.8975
 20
50.8308
 30
0.0
 10
-21.1138
 20
51.0555
 30
0.0
 10
-21.3297
 20
51.2795
 30
0.0
 10
-21.6115
 20
51.3921
 30
0.0
 10
-21.9594
 20
51.3921
 30
0.0
 10
-21.9594
 20
51.3921
 30
0.0
 10
-23.0456
 20
51.3921
 30
0.0
 10
-23.0456
 20
51.3921
 30
0.0
 10
-23.1331
 20
51.3921
 30
0.0
 10
-23.1994
 20
51.3695
 30
0.0
 10
-23.2442
 20
51.324
 30
0.0
 10
-23.289
 20
51.2788
 30
0.0
 10
-23.3116
 20
51.2093
 30
0.0
 10
-23.3116
 20
51.1165
 30
0.0
 10
-23.3116
 20
51.1165
 30
0.0
 10
-23.3116
 20
49.2274
 30
0.0
 10
-23.3116
 20
49.2274
 30
0.0
 10
-23.3116
 20
49.2274
 30
0.0
 10
-22.8364
 20
49.2274
 30
0.0
 10
-22.8364
 20
49.2274
 30
0.0
 10
-22.582
 20
49.2274
 30
0.0
 10
-22.3753
 20
49.3149
 30
0.0
 10
-22.2169
 20
49.4892
 30
0.0
 10
-22.0585
 20
49.6638
 30
0.0
 10
-21.9735
 20
49.9316
 30
0.0
 10
-21.9612
 20
50.2917
 30
0.0
 10
-21.9612
 20
50.2917
 30
0.0
 10
-21.7015
 20
50.2917
 30
0.0
 10
-21.7015
 20
50.2917
 30
0.0
 10
-21.7015
 20
50.2917
 30
0.0
 10
-21.7015
 20
47.8368
 30
0.0
 10
-21.7015
 20
47.8368
 30
0.0
 10
-21.7015
 20
47.8368
 30
0.0
 10
-21.9612
 20
47.8368
 30
0.0
 10
-21.9612
 20
47.8368
 30
0.0
 10
-21.9735
 20
48.2432
 30
0.0
 10
-22.0596
 20
48.5342
 30
0.0
 10
-22.2211
 20
48.7095
 30
0.0
 10
-22.3817
 20
48.8852
 30
0.0
 10
-22.6004
 20
48.9731
 30
0.0
 10
-22.8777
 20
48.9731
 30
0.0
 10
-22.8777
 20
48.9731
 30
0.0
 10
-23.3116
 20
48.9731
 30
0.0
 10
-23.3116
 20
48.9731
 30
0.0
 10
-23.3116
 20
48.9731
 30
0.0
 10
-23.3116
 20
46.8656
 30
0.0
 10
-23.3116
 20
46.8656
 30
0.0
 10
-23.3116
 20
46.789
 30
0.0
 10
-23.2848
 20
46.7305
 30
0.0
 10
-23.2312
 20
46.6899
 30
0.0
 10
-23.1772
 20
46.6497
 30
0.0
 10
-23.0879
 20
46.6289
 30
0.0
 10
-22.963
 20
46.6289
 30
0.0
 10
-22.963
 20
46.6289
 30
0.0
 10
-22.1044
 20
46.6289
 30
0.0
 10
-22.1044
 20
46.6289
 30
0.0
 10
-21.1727
 20
46.6289
 30
0.0
 10
-20.6354
 20
47.1982
 30
0.0
 10
-20.4939
 20
48.3349
 30
0.0
 10
-20.4939
 20
48.3349
 30
0.0
 10
-20.223
 20
48.3349
 30
0.0
 10
-20.223
 20
48.3349
 30
0.0
 10
-20.223
 20
48.3349
 30
0.0
 10
-20.3172
 20
46.3604
 30
0.0
 10
-20.3172
 20
46.3604
 30
0.0
 10
-20.3172
 20
46.3604
 30
0.0
 10
-24.8913
 20
46.3604
 30
0.0
 10
-24.8913
 20
46.3604
 30
0.0
 10
-24.8913
 20
46.3604
 30
0.0
 10
-24.8913
 20
46.6289
 30
0.0
 10
-24.8913
 20
46.6289
 30
0.0
 10
-24.8913
 20
46.6289
 30
0.0
 10
-24.5124
 20
46.6289
 30
0.0
 10
-24.5124
 20
46.6289
 30
0.0
 10
-24.365
 20
46.6289
 30
0.0
 10
-24.2609
 20
46.6535
 30
0.0
 10
-24.2009
 20
46.7022
 30
0.0
 10
-24.141
 20
46.7513
 30
0.0
 10
-24.111
 20
46.8225
 30
0.0
 10
-24.111
 20
46.916
 30
0.0
 10
-24.111
 20
46.916
 30
0.0
 10
-24.111
 20
51.1165
 30
0.0
 10
-24.111
 20
51.1165
 30
0.0
 10
-24.111
 20
51.2093
 30
0.0
 10
-24.1371
 20
51.2788
 30
0.0
 10
-24.1896
 20
51.324
 30
0.0
 10
-24.2422
 20
51.3695
 30
0.0
 10
-24.3248
 20
51.3921
 30
0.0
 10
-24.4373
 20
51.3921
 30
0.0
 10
-24.4373
 20
51.3921
 30
0.0
 10
-24.8913
 20
51.3921
 30
0.0
 10
-24.8913
 20
51.3921
 30
0.0
 10
-24.8913
 20
51.3921
 30
0.0
 10
-24.8913
 20
51.6609
 30
0.0
 10
-24.8913
 20
51.6609
 30
0.0
  0
SPLINE
  5
74
330
1F
100
AcDbEntity
  8
Layer 1
 62
   250
100
AcDbSpline
210
0.0
220
0.0
230
1.0
 70
    11
 71
     3
 72
    74
 73
    70
 74
     0
 42
0.0000000001
 43
0.0000000001
 40
0.0
 40
0.0
 40
0.0
 40
0.0
 40
0.0434782608695652
 40
0.0434782608695652
 40
0.0434782608695652
 40
0.0869565217391304
 40
0.0869565217391304
 40
0.0869565217391304
 40
0.1304347826086956
 40
0.1304347826086956
 40
0.1304347826086956
 40
0.1739130434782609
 40
0.1739130434782609
 40
0.1739130434782609
 40
0.2173913043478261
 40
0.2173913043478261
 40
0.2173913043478261
 40
0.2608695652173913
 40
0.2608695652173913
 40
0.2608695652173913
 40
0.3043478260869565
 40
0.3043478260869565
 40
0.3043478260869565
 40
0.3478260869565217
 40
0.3478260869565217
 40
0.3478260869565217
 40
0.3913043478260869
 40
0.3913043478260869
 40
0.3913043478260869
 40
0.4347826086956522
 40
0.4347826086956522
 40
0.4347826086956522
 40
0.4782608695652174
 40
0.4782608695652174
 40
0.4782608695652174
 40
0.5217391304347826
 40
0.5217391304347826
 40
0.5217391304347826
 40
0.5652173913043478
 40
0.5652173913043478
 40
0.5652173913043478
 40
0.6086956521739131
 40
0.6086956521739131
 40
0.6086956521739131
 40
0.6521739130434783
 40
0.6521739130434783
 40
0.6521739130434783
 40
0.6956521739130435
 40
0.6956521739130435
 40
0.6956521739130435
 40
0.7391304347826086
 40
0.7391304347826086
 40
0.7391304347826086
 40
0.7826086956521738
 40
0.7826086956521738
 40
0.7826086956521738
 40
0.8260869565217391
 40
0.8260869565217391
 40
0.8260869565217391
 40
0.8695652173913043
 40
0.8695652173913043
 40
0.8695652173913043
 40
0.9130434782608695
 40
0.9130434782608695
 40
0.9130434782608695
 40
0.9565217391304348
 40
0.9565217391304348
 40
0.9565217391304348
 40
1.0
 40
1.0
 40
1.0
 40
1.0
 10
-18.9663
 20
51.6609
 30
0.0
 10
-18.9663
 20
51.6609
 30
0.0
 10
-16.3924
 20
51.6609
 30
0.0
 10
-16.3924
 20
51.6609
 30
0.0
 10
-16.3924
 20
51.6609
 30
0.0
 10
-16.3924
 20
51.3921
 30
0.0
 10
-16.3924
 20
51.3921
 30
0.0
 10
-16.3924
 20
51.3921
 30
0.0
 10
-17.0077
 20
51.3921
 30
0.0
 10
-17.0077
 20
51.3921
 30
0.0
 10
-17.1054
 20
51.3921
 30
0.0
 10
-17.1773
 20
51.3674
 30
0.0
 10
-17.2236
 20
51.3187
 30
0.0
 10
-17.2698
 20
51.27
 30
0.0
 10
-17.2931
 20
51.1927
 30
0.0
 10
-17.2931
 20
51.0876
 30
0.0
 10
-17.2931
 20
51.0876
 30
0.0
 10
-17.2931
 20
46.9054
 30
0.0
 10
-17.2931
 20
46.9054
 30
0.0
 10
-17.2931
 20
46.8045
 30
0.0
 10
-17.2638
 20
46.7336
 30
0.0
 10
-17.2049
 20
46.6916
 30
0.0
 10
-17.1463
 20
46.65
 30
0.0
 10
-17.0285
 20
46.6289
 30
0.0
 10
-16.8507
 20
46.6289
 30
0.0
 10
-16.8507
 20
46.6289
 30
0.0
 10
-16.0714
 20
46.6289
 30
0.0
 10
-16.0714
 20
46.6289
 30
0.0
 10
-15.6565
 20
46.6289
 30
0.0
 10
-15.3171
 20
46.7611
 30
0.0
 10
-15.054
 20
47.025
 30
0.0
 10
-14.7904
 20
47.2889
 30
0.0
 10
-14.5985
 20
47.7472
 30
0.0
 10
-14.4786
 20
48.3998
 30
0.0
 10
-14.4786
 20
48.3998
 30
0.0
 10
-14.2158
 20
48.3998
 30
0.0
 10
-14.2158
 20
48.3998
 30
0.0
 10
-14.2158
 20
48.3998
 30
0.0
 10
-14.3435
 20
46.3604
 30
0.0
 10
-14.3435
 20
46.3604
 30
0.0
 10
-14.3435
 20
46.3604
 30
0.0
 10
-18.9663
 20
46.3604
 30
0.0
 10
-18.9663
 20
46.3604
 30
0.0
 10
-18.9663
 20
46.3604
 30
0.0
 10
-18.9663
 20
46.6289
 30
0.0
 10
-18.9663
 20
46.6289
 30
0.0
 10
-18.9663
 20
46.6289
 30
0.0
 10
-18.5126
 20
46.6289
 30
0.0
 10
-18.5126
 20
46.6289
 30
0.0
 10
-18.357
 20
46.6289
 30
0.0
 10
-18.2484
 20
46.6571
 30
0.0
 10
-18.1859
 20
46.7135
 30
0.0
 10
-18.1231
 20
46.7693
 30
0.0
 10
-18.0921
 20
46.8599
 30
0.0
 10
-18.0921
 20
46.9841
 30
0.0
 10
-18.0921
 20
46.9841
 30
0.0
 10
-18.0921
 20
51.1236
 30
0.0
 10
-18.0921
 20
51.1236
 30
0.0
 10
-18.0921
 20
51.2121
 30
0.0
 10
-18.1186
 20
51.2788
 30
0.0
 10
-18.1708
 20
51.324
 30
0.0
 10
-18.2233
 20
51.3695
 30
0.0
 10
-18.3006
 20
51.3921
 30
0.0
 10
-18.4032
 20
51.3921
 30
0.0
 10
-18.4032
 20
51.3921
 30
0.0
 10
-18.9663
 20
51.3921
 30
0.0
 10
-18.9663
 20
51.3921
 30
0.0
 10
-18.9663
 20
51.3921
 30
0.0
 10
-18.9663
 20
51.6609
 30
0.0
 10
-18.9663
 20
51.6609
 30
0.0
  0
SPLINE
  5
75
330
1F
100
AcDbEntity
  8
Layer 1
 62
   250
100
AcDbSpline
210
0.0
220
0.0
230
1.0
 70
    11
 71
     3
 72
   110
 73
   106
 74
     0
 42
0.0000000001
 43
0.0000000001
 40
0.0
 40
0.0
 40
0.0
 40
0.0
 40
0.0285714285714286
 40
0.0285714285714286
 40
0.0285714285714286
 40
0.0571428571428571
 40
0.0571428571428571
 40
0.0571428571428571
 40
0.0857142857142857
 40
0.0857142857142857
 40
0.0857142857142857
 40
0.1142857142857143
 40
0.1142857142857143
 40
0.1142857142857143
 40
0.1428571428571428
 40
0.1428571428571428
 40
0.1428571428571428
 40
0.1714285714285714
 40
0.1714285714285714
 40
0.1714285714285714
 40
0.2
 40
0.2
 40
0.2
 40
0.2285714285714286
 40
0.2285714285714286
 40
0.2285714285714286
 40
0.2571428571428571
 40
0.2571428571428571
 40
0.2571428571428571
 40
0.2857142857142857
 40
0.2857142857142857
 40
0.2857142857142857
 40
0.3142857142857143
 40
0.3142857142857143
 40
0.3142857142857143
 40
0.3428571428571429
 40
0.3428571428571429
 40
0.3428571428571429
 40
0.3714285714285714
 40
0.3714285714285714
 40
0.3714285714285714
 40
0.4
 40
0.4
 40
0.4
 40
0.4285714285714285
 40
0.4285714285714285
 40
0.4285714285714285
 40
0.4571428571428571
 40
0.4571428571428571
 40
0.4571428571428571
 40
0.4857142857142857
 40
0.4857142857142857
 40
0.4857142857142857
 40
0.5142857142857142
 40
0.5142857142857142
 40
0.5142857142857142
 40
0.5428571428571428
 40
0.5428571428571428
 40
0.5428571428571428
 40
0.5714285714285714
 40
0.5714285714285714
 40
0.5714285714285714
 40
0.6
 40
0.6
 40
0.6
 40
0.6285714285714286
 40
0.6285714285714286
 40
0.6285714285714286
 40
0.6571428571428571
 40
0.6571428571428571
 40
0.6571428571428571
 40
0.6857142857142857
 40
0.6857142857142857
 40
0.6857142857142857
 40
0.7142857142857143
 40
0.7142857142857143
 40
0.7142857142857143
 40
0.7428571428571429
 40
0.7428571428571429
 40
0.7428571428571429
 40
0.7714285714285714
 40
0.7714285714285714
 40
0.7714285714285714
 40
0.7999999999999999
 40
0.7999999999999999
 40
0.7999999999999999
 40
0.8285714285714285
 40
0.8285714285714285
 40
0.8285714285714285
 40
0.8571428571428571
 40
0.8571428571428571
 40
0.8571428571428571
 40
0.8857142857142857
 40
0.8857142857142857
 40
0.8857142857142857
 40
0.9142857142857143
 40
0.9142857142857143
 40
0.9142857142857143
 40
0.9428571428571428
 40
0.9428571428571428
 40
0.9428571428571428
 40
0.9714285714285714
 40
0.9714285714285714
 40
0.9714285714285714
 40
1.0
 40
1.0
 40
1.0
 40
1.0
 10
-12.9405
 20
51.6609
 30
0.0
 10
-12.9405
 20
51.6609
 30
0.0
 10
-8.5424
 20
51.6609
 30
0.0
 10
-8.5424
 20
51.6609
 30
0.0
 10
-8.5424
 20
51.6609
 30
0.0
 10
-8.4369
 20
49.8726
 30
0.0
 10
-8.4369
 20
49.8726
 30
0.0
 10
-8.4369
 20
49.8726
 30
0.0
 10
-8.6885
 20
49.8726
 30
0.0
 10
-8.6885
 20
49.8726
 30
0.0
 10
-8.7886
 20
50.4367
 30
0.0
 10
-8.9467
 20
50.8308
 30
0.0
 10
-9.1626
 20
51.0555
 30
0.0
 10
-9.3788
 20
51.2795
 30
0.0
 10
-9.6604
 20
51.3921
 30
0.0
 10
-10.0078
 20
51.3921
 30
0.0
 10
-10.0078
 20
51.3921
 30
0.0
 10
-11.0944
 20
51.3921
 30
0.0
 10
-11.0944
 20
51.3921
 30
0.0
 10
-11.1819
 20
51.3921
 30
0.0
 10
-11.2482
 20
51.3695
 30
0.0
 10
-11.293
 20
51.324
 30
0.0
 10
-11.3378
 20
51.2788
 30
0.0
 10
-11.3604
 20
51.2093
 30
0.0
 10
-11.3604
 20
51.1165
 30
0.0
 10
-11.3604
 20
51.1165
 30
0.0
 10
-11.3604
 20
49.2274
 30
0.0
 10
-11.3604
 20
49.2274
 30
0.0
 10
-11.3604
 20
49.2274
 30
0.0
 10
-10.8856
 20
49.2274
 30
0.0
 10
-10.8856
 20
49.2274
 30
0.0
 10
-10.6305
 20
49.2274
 30
0.0
 10
-10.4245
 20
49.3149
 30
0.0
 10
-10.2657
 20
49.4892
 30
0.0
 10
-10.1077
 20
49.6638
 30
0.0
 10
-10.0223
 20
49.9316
 30
0.0
 10
-10.0096
 20
50.2917
 30
0.0
 10
-10.0096
 20
50.2917
 30
0.0
 10
-9.7503
 20
50.2917
 30
0.0
 10
-9.7503
 20
50.2917
 30
0.0
 10
-9.7503
 20
50.2917
 30
0.0
 10
-9.7503
 20
47.8368
 30
0.0
 10
-9.7503
 20
47.8368
 30
0.0
 10
-9.7503
 20
47.8368
 30
0.0
 10
-10.0096
 20
47.8368
 30
0.0
 10
-10.0096
 20
47.8368
 30
0.0
 10
-10.0223
 20
48.2432
 30
0.0
 10
-10.1087
 20
48.5342
 30
0.0
 10
-10.27
 20
48.7095
 30
0.0
 10
-10.4308
 20
48.8852
 30
0.0
 10
-10.6495
 20
48.9731
 30
0.0
 10
-10.9261
 20
48.9731
 30
0.0
 10
-10.9261
 20
48.9731
 30
0.0
 10
-11.3604
 20
48.9731
 30
0.0
 10
-11.3604
 20
48.9731
 30
0.0
 10
-11.3604
 20
48.9731
 30
0.0
 10
-11.3604
 20
46.8656
 30
0.0
 10
-11.3604
 20
46.8656
 30
0.0
 10
-11.3604
 20
46.789
 30
0.0
 10
-11.3336
 20
46.7305
 30
0.0
 10
-11.28
 20
46.6899
 30
0.0
 10
-11.2263
 20
46.6497
 30
0.0
 10
-11.1371
 20
46.6289
 30
0.0
 10
-11.0118
 20
46.6289
 30
0.0
 10
-11.0118
 20
46.6289
 30
0.0
 10
-10.1539
 20
46.6289
 30
0.0
 10
-10.1539
 20
46.6289
 30
0.0
 10
-9.2219
 20
46.6289
 30
0.0
 10
-8.6849
 20
47.1982
 30
0.0
 10
-8.5424
 20
48.3349
 30
0.0
 10
-8.5424
 20
48.3349
 30
0.0
 10
-8.2722
 20
48.3349
 30
0.0
 10
-8.2722
 20
48.3349
 30
0.0
 10
-8.2722
 20
48.3349
 30
0.0
 10
-8.3657
 20
46.3604
 30
0.0
 10
-8.3657
 20
46.3604
 30
0.0
 10
-8.3657
 20
46.3604
 30
0.0
 10
-12.9405
 20
46.3604
 30
0.0
 10
-12.9405
 20
46.3604
 30
0.0
 10
-12.9405
 20
46.3604
 30
0.0
 10
-12.9405
 20
46.6289
 30
0.0
 10
-12.9405
 20
46.6289
 30
0.0
 10
-12.9405
 20
46.6289
 30
0.0
 10
-12.5609
 20
46.6289
 30
0.0
 10
-12.5609
 20
46.6289
 30
0.0
 10
-12.4134
 20
46.6289
 30
0.0
 10
-12.3101
 20
46.6535
 30
0.0
 10
-12.2497
 20
46.7022
 30
0.0
 10
-12.1898
 20
46.7513
 30
0.0
 10
-12.1598
 20
46.8225
 30
0.0
 10
-12.1598
 20
46.916
 30
0.0
 10
-12.1598
 20
46.916
 30
0.0
 10
-12.1598
 20
51.1165
 30
0.0
 10
-12.1598
 20
51.1165
 30
0.0
 10
-12.1598
 20
51.2093
 30
0.0
 10
-12.1859
 20
51.2788
 30
0.0
 10
-12.2388
 20
51.324
 30
0.0
 10
-12.291
 20
51.3695
 30
0.0
 10
-12.3736
 20
51.3921
 30
0.0
 10
-12.4861
 20
51.3921
 30
0.0
 10
-12.4861
 20
51.3921
 30
0.0
 10
-12.9405
 20
51.3921
 30
0.0
 10
-12.9405
 20
51.3921
 30
0.0
 10
-12.9405
 20
51.3921
 30
0.0
 10
-12.9405
 20
51.6609
 30
0.0
 10
-12.9405
 20
51.6609
 30
0.0
  0
SPLINE
  5
76
330
1F
100
AcDbEntity
  8
Layer 1
 62
   250
100
AcDbSpline
210
0.0
220
0.0
230
1.0
 70
    11
 71
     3
 72
    32
 73
    28
 74
     0
 42
0.0000000001
 43
0.0000000001
 40
0.0
 40
0.0
 40
0.0
 40
0.0
 40
0.1111111111111111
 40
0.1111111111111111
 40
0.1111111111111111
 40
0.2222222222222222
 40
0.2222222222222222
 40
0.2222222222222222
 40
0.3333333333333333
 40
0.3333333333333333
 40
0.3333333333333333
 40
0.4444444444444444
 40
0.4444444444444444
 40
0.4444444444444444
 40
0.5555555555555556
 40
0.5555555555555556
 40
0.5555555555555556
 40
0.6666666666666666
 40
0.6666666666666666
 40
0.6666666666666666
 40
0.7777777777777777
 40
0.7777777777777777
 40
0.7777777777777777
 40
0.8888888888888888
 40
0.8888888888888888
 40
0.8888888888888888
 40
1.0
 40
1.0
 40
1.0
 40
1.0
 10
-5.3685
 20
49.2238
 30
0.0
 10
-5.3685
 20
49.2238
 30
0.0
 10
-4.7116
 20
49.2238
 30
0.0
 10
-4.7116
 20
49.2238
 30
0.0
 10
-4.2714
 20
49.2238
 30
0.0
 10
-3.9267
 20
49.3032
 30
0.0
 10
-3.678
 20
49.4619
 30
0.0
 10
-3.4293
 20
49.6207
 30
0.0
 10
-3.3044
 20
49.9025
 30
0.0
 10
-3.3044
 20
50.3079
 30
0.0
 10
-3.3044
 20
50.5873
 30
0.0
 10
-3.3513
 20
50.8078
 30
0.0
 10
-3.4452
 20
50.9697
 30
0.0
 10
-3.5386
 20
51.132
 30
0.0
 10
-3.6621
 20
51.2431
 30
0.0
 10
-3.8149
 20
51.3027
 30
0.0
 10
-3.9669
 20
51.3623
 30
0.0
 10
-4.2675
 20
51.392
 30
0.0
 10
-4.7148
 20
51.392
 30
0.0
 10
-5.0104
 20
51.392
 30
0.0
 10
-5.1932
 20
51.3726
 30
0.0
 10
-5.263
 20
51.333
 30
0.0
 10
-5.3332
 20
51.2935
 30
0.0
 10
-5.3685
 20
51.2261
 30
0.0
 10
-5.3685
 20
51.1313
 30
0.0
 10
-5.3685
 20
51.1313
 30
0.0
 10
-5.3685
 20
49.2238
 30
0.0
 10
-5.3685
 20
49.2238
 30
0.0
  0
SPLINE
  5
77
330
1F
100
AcDbEntity
  8
Layer 1
 62
   250
100
AcDbSpline
210
0.0
220
0.0
230
1.0
 70
    11
 71
     3
 72
   116
 73
   112
 74
     0
 42
0.0000000001
 43
0.0000000001
 40
0.0
 40
0.0
 40
0.0
 40
0.0
 40
0.027027027027027
 40
0.027027027027027
 40
0.027027027027027
 40
0.0540540540540541
 40
0.0540540540540541
 40
0.0540540540540541
 40
0.0810810810810811
 40
0.0810810810810811
 40
0.0810810810810811
 40
0.1081081081081081
 40
0.1081081081081081
 40
0.1081081081081081
 40
0.1351351351351351
 40
0.1351351351351351
 40
0.1351351351351351
 40
0.1621621621621622
 40
0.1621621621621622
 40
0.1621621621621622
 40
0.1891891891891892
 40
0.1891891891891892
 40
0.1891891891891892
 40
0.2162162162162162
 40
0.2162162162162162
 40
0.2162162162162162
 40
0.2432432432432433
 40
0.2432432432432433
 40
0.2432432432432433
 40
0.2702702702702703
 40
0.2702702702702703
 40
0.2702702702702703
 40
0.2972972972972973
 40
0.2972972972972973
 40
0.2972972972972973
 40
0.3243243243243243
 40
0.3243243243243243
 40
0.3243243243243243
 40
0.3513513513513514
 40
0.3513513513513514
 40
0.3513513513513514
 40
0.3783783783783784
 40
0.3783783783783784
 40
0.3783783783783784
 40
0.4054054054054054
 40
0.4054054054054054
 40
0.4054054054054054
 40
0.4324324324324325
 40
0.4324324324324325
 40
0.4324324324324325
 40
0.4594594594594595
 40
0.4594594594594595
 40
0.4594594594594595
 40
0.4864864864864865
 40
0.4864864864864865
 40
0.4864864864864865
 40
0.5135135135135136
 40
0.5135135135135136
 40
0.5135135135135136
 40
0.5405405405405406
 40
0.5405405405405406
 40
0.5405405405405406
 40
0.5675675675675675
 40
0.5675675675675675
 40
0.5675675675675675
 40
0.5945945945945946
 40
0.5945945945945946
 40
0.5945945945945946
 40
0.6216216216216217
 40
0.6216216216216217
 40
0.6216216216216217
 40
0.6486486486486487
 40
0.6486486486486487
 40
0.6486486486486487
 40
0.6756756756756757
 40
0.6756756756756757
 40
0.6756756756756757
 40
0.7027027027027027
 40
0.7027027027027027
 40
0.7027027027027027
 40
0.7297297297297298
 40
0.7297297297297298
 40
0.7297297297297298
 40
0.7567567567567568
 40
0.7567567567567568
 40
0.7567567567567568
 40
0.7837837837837838
 40
0.7837837837837838
 40
0.7837837837837838
 40
0.8108108108108109
 40
0.8108108108108109
 40
0.8108108108108109
 40
0.8378378378378379
 40
0.8378378378378379
 40
0.8378378378378379
 40
0.8648648648648649
 40
0.8648648648648649
 40
0.8648648648648649
 40
0.8918918918918919
 40
0.8918918918918919
 40
0.8918918918918919
 40
0.918918918918919
 40
0.918918918918919
 40
0.918918918918919
 40
0.945945945945946
 40
0.945945945945946
 40
0.945945945945946
 40
0.972972972972973
 40
0.972972972972973
 40
0.972972972972973
 40
1.0
 40
1.0
 40
1.0
 40
1.0
 10
-7.0608
 20
51.6608
 30
0.0
 10
-7.0608
 20
51.6608
 30
0.0
 10
-4.1937
 20
51.6608
 30
0.0
 10
-4.1937
 20
51.6608
 30
0.0
 10
-3.6385
 20
51.6608
 30
0.0
 10
-3.2077
 20
51.5401
 30
0.0
 10
-2.9008
 20
51.2988
 30
0.0
 10
-2.5946
 20
51.0575
 30
0.0
 10
-2.4411
 20
50.7411
 30
0.0
 10
-2.4411
 20
50.3491
 30
0.0
 10
-2.4411
 20
50.1149
 30
0.0
 10
-2.5018
 20
49.9068
 30
0.0
 10
-2.6235
 20
49.7237
 30
0.0
 10
-2.7449
 20
49.5409
 30
0.0
 10
-2.9199
 20
49.3952
 30
0.0
 10
-3.1488
 20
49.2866
 30
0.0
 10
-3.3774
 20
49.1779
 30
0.0
 10
-3.7373
 20
49.0993
 30
0.0
 10
-4.228
 20
49.052
 30
0.0
 10
-3.871
 20
48.9588
 30
0.0
 10
-3.6251
 20
48.8671
 30
0.0
 10
-3.4903
 20
48.7775
 30
0.0
 10
-3.3555
 20
48.6879
 30
0.0
 10
-3.2472
 20
48.5722
 30
0.0
 10
-3.1665
 20
48.43
 30
0.0
 10
-3.085
 20
48.2882
 30
0.0
 10
-2.9915
 20
47.9982
 30
0.0
 10
-2.8853
 20
47.5611
 30
0.0
 10
-2.8094
 20
47.2475
 30
0.0
 10
-2.7294
 20
47.0341
 30
0.0
 10
-2.644
 20
46.9194
 30
0.0
 10
-2.5791
 20
46.8312
 30
0.0
 10
-2.5092
 20
46.7868
 30
0.0
 10
-2.4337
 20
46.7868
 30
0.0
 10
-2.3565
 20
46.7868
 30
0.0
 10
-2.2845
 20
46.8411
 30
0.0
 10
-2.2178
 20
46.9501
 30
0.0
 10
-2.1515
 20
47.0584
 30
0.0
 10
-2.1113
 20
47.2503
 30
0.0
 10
-2.0961
 20
47.5255
 30
0.0
 10
-2.0961
 20
47.5255
 30
0.0
 10
-1.8411
 20
47.5255
 30
0.0
 10
-1.8411
 20
47.5255
 30
0.0
 10
-1.8883
 20
46.7127
 30
0.0
 10
-2.2023
 20
46.3063
 30
0.0
 10
-2.783
 20
46.3063
 30
0.0
 10
-2.9654
 20
46.3063
 30
0.0
 10
-3.1238
 20
46.3508
 30
0.0
 10
-3.2575
 20
46.439
 30
0.0
 10
-3.3915
 20
46.5275
 30
0.0
 10
-3.4921
 20
46.6577
 30
0.0
 10
-3.5595
 20
46.8298
 30
0.0
 10
-3.612
 20
46.9589
 30
0.0
 10
-3.6709
 20
47.2969
 30
0.0
 10
-3.7358
 20
47.8441
 30
0.0
 10
-3.7736
 20
48.1619
 30
0.0
 10
-3.8329
 20
48.3877
 30
0.0
 10
-3.9143
 20
48.5218
 30
0.0
 10
-3.9951
 20
48.6555
 30
0.0
 10
-4.1225
 20
48.7627
 30
0.0
 10
-4.295
 20
48.8438
 30
0.0
 10
-4.4675
 20
48.925
 30
0.0
 10
-4.6739
 20
48.9659
 30
0.0
 10
-4.9141
 20
48.9659
 30
0.0
 10
-4.9141
 20
48.9659
 30
0.0
 10
-5.3685
 20
48.9659
 30
0.0
 10
-5.3685
 20
48.9659
 30
0.0
 10
-5.3685
 20
48.9659
 30
0.0
 10
-5.3685
 20
46.8835
 30
0.0
 10
-5.3685
 20
46.8835
 30
0.0
 10
-5.3685
 20
46.7953
 30
0.0
 10
-5.3449
 20
46.7328
 30
0.0
 10
-5.2972
 20
46.6972
 30
0.0
 10
-5.2369
 20
46.6517
 30
0.0
 10
-5.1431
 20
46.6291
 30
0.0
 10
-5.0154
 20
46.6291
 30
0.0
 10
-5.0154
 20
46.6291
 30
0.0
 10
-4.4827
 20
46.6291
 30
0.0
 10
-4.4827
 20
46.6291
 30
0.0
 10
-4.4827
 20
46.6291
 30
0.0
 10
-4.4827
 20
46.3603
 30
0.0
 10
-4.4827
 20
46.3603
 30
0.0
 10
-4.4827
 20
46.3603
 30
0.0
 10
-7.0608
 20
46.3603
 30
0.0
 10
-7.0608
 20
46.3603
 30
0.0
 10
-7.0608
 20
46.3603
 30
0.0
 10
-7.0608
 20
46.6291
 30
0.0
 10
-7.0608
 20
46.6291
 30
0.0
 10
-7.0608
 20
46.6291
 30
0.0
 10
-6.5164
 20
46.6291
 30
0.0
 10
-6.5164
 20
46.6291
 30
0.0
 10
-6.3965
 20
46.6291
 30
0.0
 10
-6.3083
 20
46.6517
 30
0.0
 10
-6.2519
 20
46.6972
 30
0.0
 10
-6.1958
 20
46.7423
 30
0.0
 10
-6.1675
 20
46.8048
 30
0.0
 10
-6.1675
 20
46.8835
 30
0.0
 10
-6.1675
 20
46.8835
 30
0.0
 10
-6.1675
 20
51.12
 30
0.0
 10
-6.1675
 20
51.12
 30
0.0
 10
-6.1675
 20
51.2106
 30
0.0
 10
-6.1961
 20
51.2787
 30
0.0
 10
-6.254
 20
51.3239
 30
0.0
 10
-6.3115
 20
51.3694
 30
0.0
 10
-6.399
 20
51.392
 30
0.0
 10
-6.5164
 20
51.392
 30
0.0
 10
-6.5164
 20
51.392
 30
0.0
 10
-7.0608
 20
51.392
 30
0.0
 10
-7.0608
 20
51.392
 30
0.0
 10
-7.0608
 20
51.392
 30
0.0
 10
-7.0608
 20
51.6608
 30
0.0
 10
-7.0608
 20
51.6608
 30
0.0
  0
SPLINE
  5
78
330
1F
100
AcDbEntity
  8
Layer 1
 62
   250
100
AcDbSpline
210
0.0
220
0.0
230
1.0
 70
    11
 71
     3
 72
    41
 73
    37
 74
     0
 42
0.0000000001
 43
0.0000000001
 40
0.0
 40
0.0
 40
0.0
 40
0.0
 40
0.0833333333333333
 40
0.0833333333333333
 40
0.0833333333333333
 40
0.1666666666666667
 40
0.1666666666666667
 40
0.1666666666666667
 40
0.25
 40
0.25
 40
0.25
 40
0.3333333333333333
 40
0.3333333333333333
 40
0.3333333333333333
 40
0.4166666666666666
 40
0.4166666666666666
 40
0.4166666666666666
 40
0.5
 40
0.5
 40
0.5
 40
0.5833333333333333
 40
0.5833333333333333
 40
0.5833333333333333
 40
0.6666666666666666
 40
0.6666666666666666
 40
0.6666666666666666
 40
0.75
 40
0.75
 40
0.75
 40
0.8333333333333333
 40
0.8333333333333333
 40
0.8333333333333333
 40
0.9166666666666666
 40
0.9166666666666666
 40
0.9166666666666666
 40
1.0
 40
1.0
 40
1.0
 40
1.0
 10
-40.5546
 20
38.0747
 30
0.0
 10
-40.5546
 20
38.0747
 30
0.0
 10
-44.209
 20
38.0747
 30
0.0
 10
-44.209
 20
38.0747
 30
0.0
 10
-44.4229
 20
38.0747
 30
0.0
 10
-44.6166
 20
38.1615
 30
0.0
 10
-44.7566
 20
38.3015
 30
0.0
 10
-44.8966
 20
38.4422
 30
0.0
 10
-44.9832
 20
38.6358
 30
0.0
 10
-44.9832
 20
38.8493
 30
0.0
 10
-44.9832
 20
38.8493
 30
0.0
 10
-44.9832
 20
42.5256
 30
0.0
 10
-44.9832
 20
42.5256
 30
0.0
 10
-44.9832
 20
42.7394
 30
0.0
 10
-44.8964
 20
42.9333
 30
0.0
 10
-44.7564
 20
43.0733
 30
0.0
 10
-44.6159
 20
43.2132
 30
0.0
 10
-44.4223
 20
43.3001
 30
0.0
 10
-44.209
 20
43.3001
 30
0.0
 10
-44.209
 20
43.3001
 30
0.0
 10
-40.5546
 20
43.3001
 30
0.0
 10
-40.5546
 20
43.3001
 30
0.0
 10
-40.3412
 20
43.3001
 30
0.0
 10
-40.1474
 20
43.2131
 30
0.0
 10
-40.0072
 20
43.0727
 30
0.0
 10
-39.8672
 20
42.9326
 30
0.0
 10
-39.7805
 20
42.7389
 30
0.0
 10
-39.7805
 20
42.5256
 30
0.0
 10
-39.7805
 20
42.5256
 30
0.0
 10
-39.7805
 20
38.8493
 30
0.0
 10
-39.7805
 20
38.8493
 30
0.0
 10
-39.7805
 20
38.6358
 30
0.0
 10
-39.8671
 20
38.4422
 30
0.0
 10
-40.0071
 20
38.3021
 30
0.0
 10
-40.1473
 20
38.1617
 30
0.0
 10
-40.341
 20
38.0747
 30
0.0
 10
-40.5546
 20
38.0747
 30
0.0
  0
SPLINE
  5
79
330
1F
100
AcDbEntity
  8
Layer 1
 62
   250
100
AcDbSpline
210
0.0
220
0.0
230
1.0
 70
    11
 71
     3
 72
    41
 73
    37
 74
     0
 42
0.0000000001
 43
0.0000000001
 40
0.0
 40
0.0
 40
0.0
 40
0.0
 40
0.0833333333333333
 40
0.0833333333333333
 40
0.0833333333333333
 40
0.1666666666666667
 40
0.1666666666666667
 40
0.1666666666666667
 40
0.25
 40
0.25
 40
0.25
 40
0.3333333333333333
 40
0.3333333333333333
 40
0.3333333333333333
 40
0.4166666666666666
 40
0.4166666666666666
 40
0.4166666666666666
 40
0.5
 40
0.5
 40
0.5
 40
0.5833333333333333
 40
0.5833333333333333
 40
0.5833333333333333
 40
0.6666666666666666
 40
0.6666666666666666
 40
0.6666666666666666
 40
0.75
 40
0.75
 40
0.75
 40
0.8333333333333333
 40
0.8333333333333333
 40
0.8333333333333333
 40
0.9166666666666666
 40
0.9166666666666666
 40
0.9166666666666666
 40
1.0
 40
1.0
 40
1.0
 40
1.0
 10
-44.209
 20
38.3869
 30
0.0
 10
-44.209
 20
38.3869
 30
0.0
 10
-40.5546
 20
38.3869
 30
0.0
 10
-40.5546
 20
38.3869
 30
0.0
 10
-40.4266
 20
38.3869
 30
0.0
 10
-40.311
 20
38.4385
 30
0.0
 10
-40.2279
 20
38.5217
 30
0.0
 10
-40.1444
 20
38.6053
 30
0.0
 10
-40.0927
 20
38.7212
 30
0.0
 10
-40.0927
 20
38.8493
 30
0.0
 10
-40.0927
 20
38.8493
 30
0.0
 10
-40.0927
 20
42.5256
 30
0.0
 10
-40.0927
 20
42.5256
 30
0.0
 10
-40.0927
 20
42.6535
 30
0.0
 10
-40.1445
 20
42.7695
 30
0.0
 10
-40.228
 20
42.8531
 30
0.0
 10
-40.3111
 20
42.9363
 30
0.0
 10
-40.4267
 20
42.9879
 30
0.0
 10
-40.5546
 20
42.9879
 30
0.0
 10
-40.5546
 20
42.9879
 30
0.0
 10
-44.209
 20
42.9879
 30
0.0
 10
-44.209
 20
42.9879
 30
0.0
 10
-44.3369
 20
42.9879
 30
0.0
 10
-44.4525
 20
42.9363
 30
0.0
 10
-44.5356
 20
42.8531
 30
0.0
 10
-44.6192
 20
42.7689
 30
0.0
 10
-44.671
 20
42.6531
 30
0.0
 10
-44.671
 20
42.5256
 30
0.0
 10
-44.671
 20
42.5256
 30
0.0
 10
-44.671
 20
38.8493
 30
0.0
 10
-44.671
 20
38.8493
 30
0.0
 10
-44.671
 20
38.7214
 30
0.0
 10
-44.6194
 20
38.6056
 30
0.0
 10
-44.5361
 20
38.522
 30
0.0
 10
-44.4522
 20
38.4387
 30
0.0
 10
-44.3366
 20
38.3869
 30
0.0
 10
-44.209
 20
38.3869
 30
0.0
  0
SPLINE
  5
7A
330
1F
100
AcDbEntity
  8
Layer 1
 62
   250
100
AcDbSpline
210
0.0
220
0.0
230
1.0
 70
    11
 71
     3
 72
    29
 73
    25
 74
     0
 42
0.0000000001
 43
0.0000000001
 40
0.0
 40
0.0
 40
0.0
 40
0.0
 40
0.125
 40
0.125
 40
0.125
 40
0.25
 40
0.25
 40
0.25
 40
0.375
 40
0.375
 40
0.375
 40
0.5
 40
0.5
 40
0.5
 40
0.625
 40
0.625
 40
0.625
 40
0.75
 40
0.75
 40
0.75
 40
0.875
 40
0.875
 40
0.875
 40
1.0
 40
1.0
 40
1.0
 40
1.0
 10
-41.0691
 20
40.5146
 30
0.0
 10
-41.0691
 20
40.1626
 30
0.0
 10
-41.2171
 20
39.8435
 30
0.0
 10
-41.4561
 20
39.6127
 30
0.0
 10
-41.6933
 20
39.3835
 30
0.0
 10
-42.0208
 20
39.2416
 30
0.0
 10
-42.3816
 20
39.2416
 30
0.0
 10
-42.7426
 20
39.2416
 30
0.0
 10
-43.0701
 20
39.3834
 30
0.0
 10
-43.3074
 20
39.6126
 30
0.0
 10
-43.5465
 20
39.8434
 30
0.0
 10
-43.6945
 20
40.1624
 30
0.0
 10
-43.6945
 20
40.5146
 30
0.0
 10
-43.6945
 20
40.8668
 30
0.0
 10
-43.5465
 20
41.1858
 30
0.0
 10
-43.3075
 20
41.4166
 30
0.0
 10
-43.0702
 20
41.6458
 30
0.0
 10
-42.7426
 20
41.7876
 30
0.0
 10
-42.3816
 20
41.7876
 30
0.0
 10
-42.0208
 20
41.7876
 30
0.0
 10
-41.6933
 20
41.6457
 30
0.0
 10
-41.456
 20
41.4165
 30
0.0
 10
-41.2169
 20
41.1858
 30
0.0
 10
-41.0691
 20
40.8668
 30
0.0
 10
-41.0691
 20
40.5146
 30
0.0
  0
SPLINE
  5
7B
330
1F
100
AcDbEntity
  8
Layer 1
 62
   250
100
AcDbSpline
210
0.0
220
0.0
230
1.0
 70
    11
 71
     3
 72
    29
 73
    25
 74
     0
 42
0.0000000001
 43
0.0000000001
 40
0.0
 40
0.0
 40
0.0
 40
0.0
 40
0.125
 40
0.125
 40
0.125
 40
0.25
 40
0.25
 40
0.25
 40
0.375
 40
0.375
 40
0.375
 40
0.5
 40
0.5
 40
0.5
 40
0.625
 40
0.625
 40
0.625
 40
0.75
 40
0.75
 40
0.75
 40
0.875
 40
0.875
 40
0.875
 40
1.0
 40
1.0
 40
1.0
 40
1.0
 10
-41.6719
 20
39.8371
 30
0.0
 10
-41.4925
 20
40.0104
 30
0.0
 10
-41.3813
 20
40.2501
 30
0.0
 10
-41.3813
 20
40.5146
 30
0.0
 10
-41.3813
 20
40.7793
 30
0.0
 10
-41.4924
 20
41.019
 30
0.0
 10
-41.6718
 20
41.1921
 30
0.0
 10
-41.8529
 20
41.3671
 30
0.0
 10
-42.104
 20
41.4754
 30
0.0
 10
-42.3816
 20
41.4754
 30
0.0
 10
-42.6594
 20
41.4754
 30
0.0
 10
-42.9106
 20
41.3671
 30
0.0
 10
-43.0917
 20
41.1922
 30
0.0
 10
-43.2711
 20
41.0189
 30
0.0
 10
-43.3823
 20
40.7792
 30
0.0
 10
-43.3823
 20
40.5146
 30
0.0
 10
-43.3823
 20
40.25
 30
0.0
 10
-43.2712
 20
40.0104
 30
0.0
 10
-43.0916
 20
39.837
 30
0.0
 10
-42.9105
 20
39.6621
 30
0.0
 10
-42.6594
 20
39.5538
 30
0.0
 10
-42.3816
 20
39.5538
 30
0.0
 10
-42.104
 20
39.5538
 30
0.0
 10
-41.8529
 20
39.6622
 30
0.0
 10
-41.6719
 20
39.8371
 30
0.0
  0
SPLINE
  5
7C
330
1F
100
AcDbEntity
  8
Layer 1
 62
   250
100
AcDbSpline
210
0.0
220
0.0
230
1.0
 70
    11
 71
     3
 72
    17
 73
    13
 74
     0
 42
0.0000000001
 43
0.0000000001
 40
0.0
 40
0.0
 40
0.0
 40
0.0
 40
0.25
 40
0.25
 40
0.25
 40
0.5
 40
0.5
 40
0.5
 40
0.75
 40
0.75
 40
0.75
 40
1.0
 40
1.0
 40
1.0
 40
1.0
 10
-40.5071
 20
42.1786
 30
0.0
 10
-40.5071
 20
42.0611
 30
0.0
 10
-40.6055
 20
41.9655
 30
0.0
 10
-40.7276
 20
41.9655
 30
0.0
 10
-40.8489
 20
41.9655
 30
0.0
 10
-40.9477
 20
42.0611
 30
0.0
 10
-40.9477
 20
42.1786
 30
0.0
 10
-40.9477
 20
42.296
 30
0.0
 10
-40.8489
 20
42.3916
 30
0.0
 10
-40.7276
 20
42.3916
 30
0.0
 10
-40.6055
 20
42.3916
 30
0.0
 10
-40.5071
 20
42.296
 30
0.0
 10
-40.5071
 20
42.1786
 30
0.0
  0
SPLINE
  5
7D
330
1F
100
AcDbEntity
  8
Layer 1
 62
   250
100
AcDbSpline
210
0.0
220
0.0
230
1.0
 70
    11
 71
     3
 72
    29
 73
    25
 74
     0
 42
0.0000000001
 43
0.0000000001
 40
0.0
 40
0.0
 40
0.0
 40
0.0
 40
0.125
 40
0.125
 40
0.125
 40
0.25
 40
0.25
 40
0.25
 40
0.375
 40
0.375
 40
0.375
 40
0.5
 40
0.5
 40
0.5
 40
0.625
 40
0.625
 40
0.625
 40
0.75
 40
0.75
 40
0.75
 40
0.875
 40
0.875
 40
0.875
 40
1.0
 40
1.0
 40
1.0
 40
1.0
 10
-40.351
 20
42.1786
 30
0.0
 10
-40.351
 20
42.0768
 30
0.0
 10
-40.3941
 20
41.9839
 30
0.0
 10
-40.4635
 20
41.9166
 30
0.0
 10
-40.5313
 20
41.8502
 30
0.0
 10
-40.625
 20
41.8094
 30
0.0
 10
-40.7276
 20
41.8094
 30
0.0
 10
-40.8296
 20
41.8094
 30
0.0
 10
-40.9229
 20
41.8504
 30
0.0
 10
-40.9911
 20
41.9164
 30
0.0
 10
-41.0608
 20
41.9834
 30
0.0
 10
-41.1038
 20
42.0764
 30
0.0
 10
-41.1038
 20
42.1786
 30
0.0
 10
-41.1038
 20
42.2803
 30
0.0
 10
-41.0607
 20
42.3731
 30
0.0
 10
-40.9913
 20
42.4404
 30
0.0
 10
-40.9235
 20
42.5067
 30
0.0
 10
-40.83
 20
42.5477
 30
0.0
 10
-40.7276
 20
42.5477
 30
0.0
 10
-40.625
 20
42.5477
 30
0.0
 10
-40.5318
 20
42.5071
 30
0.0
 10
-40.4638
 20
42.4415
 30
0.0
 10
-40.3942
 20
42.3736
 30
0.0
 10
-40.351
 20
42.2806
 30
0.0
 10
-40.351
 20
42.1786
 30
0.0
  0
SPLINE
  5
7E
330
1F
100
AcDbEntity
  8
Layer 1
 62
   250
100
AcDbSpline
210
0.0
220
0.0
230
1.0
 70
    11
 71
     3
 72
    29
 73
    25
 74
     0
 42
0.0000000001
 43
0.0000000001
 40
0.0
 40
0.0
 40
0.0
 40
0.0
 40
0.125
 40
0.125
 40
0.125
 40
0.25
 40
0.25
 40
0.25
 40
0.375
 40
0.375
 40
0.375
 40
0.5
 40
0.5
 40
0.5
 40
0.625
 40
0.625
 40
0.625
 40
0.75
 40
0.75
 40
0.75
 40
0.875
 40
0.875
 40
0.875
 40
1.0
 40
1.0
 40
1.0
 40
1.0
 10
-40.6799
 20
42.1395
 30
0.0
 10
-40.6696
 20
42.1492
 30
0.0
 10
-40.6632
 20
42.1631
 30
0.0
 10
-40.6632
 20
42.1786
 30
0.0
 10
-40.6632
 20
42.1938
 30
0.0
 10
-40.6694
 20
42.2076
 30
0.0
 10
-40.6793
 20
42.2174
 30
0.0
 10
-40.6913
 20
42.2284
 30
0.0
 10
-40.7083
 20
42.2355
 30
0.0
 10
-40.7276
 20
42.2355
 30
0.0
 10
-40.7465
 20
42.2355
 30
0.0
 10
-40.7632
 20
42.2285
 30
0.0
 10
-40.7746
 20
42.2175
 30
0.0
 10
-40.7853
 20
42.2077
 30
0.0
 10
-40.7916
 20
42.1939
 30
0.0
 10
-40.7916
 20
42.1786
 30
0.0
 10
-40.7916
 20
42.1635
 30
0.0
 10
-40.785
 20
42.1496
 30
0.0
 10
-40.7747
 20
42.1396
 30
0.0
 10
-40.7636
 20
42.1284
 30
0.0
 10
-40.7467
 20
42.1216
 30
0.0
 10
-40.7276
 20
42.1216
 30
0.0
 10
-40.7083
 20
42.1216
 30
0.0
 10
-40.6915
 20
42.1286
 30
0.0
 10
-40.6799
 20
42.1395
 30
0.0
  0
SPLINE
  5
7F
330
1F
100
AcDbEntity
  8
Layer 1
 62
   250
100
AcDbSpline
210
0.0
220
0.0
230
1.0
 70
    11
 71
     3
 72
    56
 73
    52
 74
     0
 42
0.0000000001
 43
0.0000000001
 40
0.0
 40
0.0
 40
0.0
 40
0.0
 40
0.0588235294117647
 40
0.0588235294117647
 40
0.0588235294117647
 40
0.1176470588235294
 40
0.1176470588235294
 40
0.1176470588235294
 40
0.1764705882352941
 40
0.1764705882352941
 40
0.1764705882352941
 40
0.2352941176470588
 40
0.2352941176470588
 40
0.2352941176470588
 40
0.2941176470588235
 40
0.2941176470588235
 40
0.2941176470588235
 40
0.3529411764705882
 40
0.3529411764705882
 40
0.3529411764705882
 40
0.4117647058823529
 40
0.4117647058823529
 40
0.4117647058823529
 40
0.4705882352941176
 40
0.4705882352941176
 40
0.4705882352941176
 40
0.5294117647058824
 40
0.5294117647058824
 40
0.5294117647058824
 40
0.5882352941176471
 40
0.5882352941176471
 40
0.5882352941176471
 40
0.6470588235294118
 40
0.6470588235294118
 40
0.6470588235294118
 40
0.7058823529411764
 40
0.7058823529411764
 40
0.7058823529411764
 40
0.7647058823529411
 40
0.7647058823529411
 40
0.7647058823529411
 40
0.8235294117647058
 40
0.8235294117647058
 40
0.8235294117647058
 40
0.8823529411764706
 40
0.8823529411764706
 40
0.8823529411764706
 40
0.9411764705882353
 40
0.9411764705882353
 40
0.9411764705882353
 40
1.0
 40
1.0
 40
1.0
 40
1.0
 10
-38.6409
 20
42.6323
 30
0.0
 10
-38.6409
 20
42.6323
 30
0.0
 10
-38.1064
 20
42.6323
 30
0.0
 10
-38.1064
 20
42.6323
 30
0.0
 10
-38.1064
 20
42.6323
 30
0.0
 10
-37.6034
 20
42.6323
 30
0.0
 10
-37.6034
 20
42.6323
 30
0.0
 10
-37.6034
 20
42.6323
 30
0.0
 10
-37.1211
 20
42.6323
 30
0.0
 10
-37.1211
 20
42.6323
 30
0.0
 10
-37.1211
 20
42.6323
 30
0.0
 10
-37.1211
 20
42.4224
 30
0.0
 10
-37.1211
 20
42.4224
 30
0.0
 10
-37.1211
 20
42.4224
 30
0.0
 10
-37.61
 20
42.3662
 30
0.0
 10
-37.61
 20
42.3662
 30
0.0
 10
-37.6191
 20
41.921
 30
0.0
 10
-37.6192
 20
41.4663
 30
0.0
 10
-37.6192
 20
41.0078
 30
0.0
 10
-37.6192
 20
41.0078
 30
0.0
 10
-37.6192
 20
40.1742
 30
0.0
 10
-37.6192
 20
40.1742
 30
0.0
 10
-37.6192
 20
39.5875
 30
0.0
 10
-37.6295
 20
39.3201
 30
0.0
 10
-37.6817
 20
39.053
 30
0.0
 10
-37.7815
 20
38.5288
 30
0.0
 10
-38.2218
 20
38.2723
 30
0.0
 10
-38.6564
 20
38.2723
 30
0.0
 10
-38.8504
 20
38.2723
 30
0.0
 10
-39.055
 20
38.3242
 30
0.0
 10
-39.102
 20
38.5239
 30
0.0
 10
-39.0706
 20
38.7122
 30
0.0
 10
-38.9499
 20
38.7754
 30
0.0
 10
-38.788
 20
38.7754
 30
0.0
 10
-38.6564
 20
38.7754
 30
0.0
 10
-38.5463
 20
38.7331
 30
0.0
 10
-38.3999
 20
38.6233
 30
0.0
 10
-38.3999
 20
38.6233
 30
0.0
 10
-38.2635
 20
38.52
 30
0.0
 10
-38.2635
 20
38.52
 30
0.0
 10
-38.1085
 20
38.665
 30
0.0
 10
-38.0539
 20
38.8516
 30
0.0
 10
-38.0539
 20
39.1472
 30
0.0
 10
-38.0539
 20
39.4509
 30
0.0
 10
-38.0785
 20
39.9694
 30
0.0
 10
-38.1037
 20
42.3651
 30
0.0
 10
-38.1037
 20
42.3651
 30
0.0
 10
-38.6409
 20
42.4224
 30
0.0
 10
-38.6409
 20
42.4224
 30
0.0
 10
-38.6409
 20
42.4224
 30
0.0
 10
-38.6409
 20
42.6323
 30
0.0
 10
-38.6409
 20
42.6323
 30
0.0
  0
SPLINE
  5
80
330
1F
100
AcDbEntity
  8
Layer 1
 62
   250
100
AcDbSpline
210
0.0
220
0.0
230
1.0
 70
    11
 71
     3
 72
    32
 73
    28
 74
     0
 42
0.0000000001
 43
0.0000000001
 40
0.0
 40
0.0
 40
0.0
 40
0.0
 40
0.1111111111111111
 40
0.1111111111111111
 40
0.1111111111111111
 40
0.2222222222222222
 40
0.2222222222222222
 40
0.2222222222222222
 40
0.3333333333333333
 40
0.3333333333333333
 40
0.3333333333333333
 40
0.4444444444444444
 40
0.4444444444444444
 40
0.4444444444444444
 40
0.5555555555555556
 40
0.5555555555555556
 40
0.5555555555555556
 40
0.6666666666666666
 40
0.6666666666666666
 40
0.6666666666666666
 40
0.7777777777777777
 40
0.7777777777777777
 40
0.7777777777777777
 40
0.8888888888888888
 40
0.8888888888888888
 40
0.8888888888888888
 40
1.0
 40
1.0
 40
1.0
 40
1.0
 10
-34.6363
 20
40.672
 30
0.0
 10
-34.6363
 20
40.5517
 30
0.0
 10
-34.6518
 20
40.447
 30
0.0
 10
-34.673
 20
40.3789
 30
0.0
 10
-34.673
 20
40.3789
 30
0.0
 10
-36.3552
 20
40.3789
 30
0.0
 10
-36.3552
 20
40.3789
 30
0.0
 10
-36.3467
 20
39.7301
 30
0.0
 10
-36.0131
 20
39.383
 30
0.0
 10
-35.4957
 20
39.383
 30
0.0
 10
-35.1602
 20
39.383
 30
0.0
 10
-34.9506
 20
39.5347
 30
0.0
 10
-34.7619
 20
39.7548
 30
0.0
 10
-34.7619
 20
39.7548
 30
0.0
 10
-34.6416
 20
39.661
 30
0.0
 10
-34.6416
 20
39.661
 30
0.0
 10
-34.8303
 20
39.2888
 30
0.0
 10
-35.1655
 20
39.0528
 30
0.0
 10
-35.6424
 20
39.0528
 30
0.0
 10
-36.3448
 20
39.0528
 30
0.0
 10
-36.8006
 20
39.5403
 30
0.0
 10
-36.8006
 20
40.3369
 30
0.0
 10
-36.8006
 20
41.1388
 30
0.0
 10
-36.2556
 20
41.6732
 30
0.0
 10
-35.6057
 20
41.6732
 30
0.0
 10
-35.066
 20
41.6732
 30
0.0
 10
-34.6363
 20
41.3067
 30
0.0
 10
-34.6363
 20
40.672
 30
0.0
  0
SPLINE
  5
81
330
1F
100
AcDbEntity
  8
Layer 1
 62
   250
100
AcDbSpline
210
0.0
220
0.0
230
1.0
 70
    11
 71
     3
 72
    17
 73
    13
 74
     0
 42
0.0000000001
 43
0.0000000001
 40
0.0
 40
0.0
 40
0.0
 40
0.0
 40
0.25
 40
0.25
 40
0.25
 40
0.5
 40
0.5
 40
0.5
 40
0.75
 40
0.75
 40
0.75
 40
1.0
 40
1.0
 40
1.0
 40
1.0
 10
-36.3459
 20
40.599
 30
0.0
 10
-36.3459
 20
40.599
 30
0.0
 10
-35.3595
 20
40.599
 30
0.0
 10
-35.3595
 20
40.599
 30
0.0
 10
-35.108
 20
40.599
 30
0.0
 10
-35.0505
 20
40.7197
 30
0.0
 10
-35.0505
 20
40.8664
 30
0.0
 10
-35.0505
 20
41.1645
 30
0.0
 10
-35.302
 20
41.4376
 30
0.0
 10
-35.6319
 20
41.4376
 30
0.0
 10
-35.9366
 20
41.4376
 30
0.0
 10
-36.2847
 20
41.2041
 30
0.0
 10
-36.3459
 20
40.599
 30
0.0
  0
SPLINE
  5
82
330
1F
100
AcDbEntity
  8
Layer 1
 62
   250
100
AcDbSpline
210
0.0
220
0.0
230
1.0
 70
    11
 71
     3
 72
    98
 73
    94
 74
     0
 42
0.0000000001
 43
0.0000000001
 40
0.0
 40
0.0
 40
0.0
 40
0.0
 40
0.032258064516129
 40
0.032258064516129
 40
0.032258064516129
 40
0.0645161290322581
 40
0.0645161290322581
 40
0.0645161290322581
 40
0.0967741935483871
 40
0.0967741935483871
 40
0.0967741935483871
 40
0.1290322580645161
 40
0.1290322580645161
 40
0.1290322580645161
 40
0.1612903225806452
 40
0.1612903225806452
 40
0.1612903225806452
 40
0.1935483870967742
 40
0.1935483870967742
 40
0.1935483870967742
 40
0.2258064516129032
 40
0.2258064516129032
 40
0.2258064516129032
 40
0.2580645161290323
 40
0.2580645161290323
 40
0.2580645161290323
 40
0.2903225806451613
 40
0.2903225806451613
 40
0.2903225806451613
 40
0.3225806451612903
 40
0.3225806451612903
 40
0.3225806451612903
 40
0.3548387096774194
 40
0.3548387096774194
 40
0.3548387096774194
 40
0.3870967741935484
 40
0.3870967741935484
 40
0.3870967741935484
 40
0.4193548387096774
 40
0.4193548387096774
 40
0.4193548387096774
 40
0.4516129032258064
 40
0.4516129032258064
 40
0.4516129032258064
 40
0.4838709677419355
 40
0.4838709677419355
 40
0.4838709677419355
 40
0.5161290322580645
 40
0.5161290322580645
 40
0.5161290322580645
 40
0.5483870967741935
 40
0.5483870967741935
 40
0.5483870967741935
 40
0.5806451612903225
 40
0.5806451612903225
 40
0.5806451612903225
 40
0.6129032258064516
 40
0.6129032258064516
 40
0.6129032258064516
 40
0.6451612903225806
 40
0.6451612903225806
 40
0.6451612903225806
 40
0.6774193548387096
 40
0.6774193548387096
 40
0.6774193548387096
 40
0.7096774193548387
 40
0.7096774193548387
 40
0.7096774193548387
 40
0.7419354838709677
 40
0.7419354838709677
 40
0.7419354838709677
 40
0.7741935483870968
 40
0.7741935483870968
 40
0.7741935483870968
 40
0.8064516129032258
 40
0.8064516129032258
 40
0.8064516129032258
 40
0.8387096774193548
 40
0.8387096774193548
 40
0.8387096774193548
 40
0.8709677419354839
 40
0.8709677419354839
 40
0.8709677419354839
 40
0.9032258064516129
 40
0.9032258064516129
 40
0.9032258064516129
 40
0.9354838709677419
 40
0.9354838709677419
 40
0.9354838709677419
 40
0.967741935483871
 40
0.967741935483871
 40
0.967741935483871
 40
1.0
 40
1.0
 40
1.0
 40
1.0
 10
-31.0502
 20
41.3342
 30
0.0
 10
-31.0502
 20
41.3342
 30
0.0
 10
-31.4436
 20
41.4062
 30
0.0
 10
-31.4436
 20
41.4062
 30
0.0
 10
-31.4436
 20
41.4062
 30
0.0
 10
-31.4436
 20
41.6052
 30
0.0
 10
-31.4436
 20
41.6052
 30
0.0
 10
-31.4436
 20
41.6052
 30
0.0
 10
-30.967
 20
41.6052
 30
0.0
 10
-30.967
 20
41.6052
 30
0.0
 10
-30.967
 20
41.6052
 30
0.0
 10
-30.6731
 20
41.6052
 30
0.0
 10
-30.6731
 20
41.6052
 30
0.0
 10
-30.6731
 20
41.6052
 30
0.0
 10
-30.4848
 20
41.6052
 30
0.0
 10
-30.4848
 20
41.6052
 30
0.0
 10
-30.4848
 20
41.6052
 30
0.0
 10
-30.4848
 20
41.4062
 30
0.0
 10
-30.4848
 20
41.4062
 30
0.0
 10
-30.4848
 20
41.4062
 30
0.0
 10
-30.7637
 20
41.3384
 30
0.0
 10
-30.7637
 20
41.3384
 30
0.0
 10
-30.7637
 20
41.3384
 30
0.0
 10
-31.5276
 20
39.0899
 30
0.0
 10
-31.5276
 20
39.0899
 30
0.0
 10
-31.5276
 20
39.0899
 30
0.0
 10
-31.711
 20
39.0899
 30
0.0
 10
-31.711
 20
39.0899
 30
0.0
 10
-32.1121
 20
40.1149
 30
0.0
 10
-32.2814
 20
40.5953
 30
0.0
 10
-32.3993
 20
40.9558
 30
0.0
 10
-32.3993
 20
40.9558
 30
0.0
 10
-33.0946
 20
39.0899
 30
0.0
 10
-33.0946
 20
39.0899
 30
0.0
 10
-33.0946
 20
39.0899
 30
0.0
 10
-33.2781
 20
39.0899
 30
0.0
 10
-33.2781
 20
39.0899
 30
0.0
 10
-33.2781
 20
39.0899
 30
0.0
 10
-34.1222
 20
41.3535
 30
0.0
 10
-34.1222
 20
41.3535
 30
0.0
 10
-34.1222
 20
41.3535
 30
0.0
 10
-34.4256
 20
41.4062
 30
0.0
 10
-34.4256
 20
41.4062
 30
0.0
 10
-34.4256
 20
41.4062
 30
0.0
 10
-34.4256
 20
41.6052
 30
0.0
 10
-34.4256
 20
41.6052
 30
0.0
 10
-34.4256
 20
41.6052
 30
0.0
 10
-34.2161
 20
41.6052
 30
0.0
 10
-34.2161
 20
41.6052
 30
0.0
 10
-34.2161
 20
41.6052
 30
0.0
 10
-33.7441
 20
41.6052
 30
0.0
 10
-33.7441
 20
41.6052
 30
0.0
 10
-33.7441
 20
41.6052
 30
0.0
 10
-33.2414
 20
41.6052
 30
0.0
 10
-33.2414
 20
41.6052
 30
0.0
 10
-33.2414
 20
41.6052
 30
0.0
 10
-33.2414
 20
41.4062
 30
0.0
 10
-33.2414
 20
41.4062
 30
0.0
 10
-33.2414
 20
41.4062
 30
0.0
 10
-33.6543
 20
41.3411
 30
0.0
 10
-33.6543
 20
41.3411
 30
0.0
 10
-33.6543
 20
41.3411
 30
0.0
 10
-33.1029
 20
39.7198
 30
0.0
 10
-33.1029
 20
39.7198
 30
0.0
 10
-33.1029
 20
39.7198
 30
0.0
 10
-32.5093
 20
41.3419
 30
0.0
 10
-32.5093
 20
41.3419
 30
0.0
 10
-32.5093
 20
41.3419
 30
0.0
 10
-32.9059
 20
41.4062
 30
0.0
 10
-32.9059
 20
41.4062
 30
0.0
 10
-32.9059
 20
41.4062
 30
0.0
 10
-32.9059
 20
41.6052
 30
0.0
 10
-32.9059
 20
41.6052
 30
0.0
 10
-32.9059
 20
41.6052
 30
0.0
 10
-32.413
 20
41.6052
 30
0.0
 10
-32.413
 20
41.6052
 30
0.0
 10
-32.413
 20
41.6052
 30
0.0
 10
-32.2561
 20
41.6052
 30
0.0
 10
-32.2561
 20
41.6052
 30
0.0
 10
-32.2561
 20
41.6052
 30
0.0
 10
-31.753
 20
41.6052
 30
0.0
 10
-31.753
 20
41.6052
 30
0.0
 10
-31.753
 20
41.6052
 30
0.0
 10
-31.753
 20
41.4062
 30
0.0
 10
-31.753
 20
41.4062
 30
0.0
 10
-31.753
 20
41.4062
 30
0.0
 10
-32.1536
 20
41.3344
 30
0.0
 10
-32.1536
 20
41.3344
 30
0.0
 10
-32.1536
 20
41.3344
 30
0.0
 10
-31.544
 20
39.7246
 30
0.0
 10
-31.544
 20
39.7246
 30
0.0
 10
-31.544
 20
39.7246
 30
0.0
 10
-31.0502
 20
41.3342
 30
0.0
 10
-31.0502
 20
41.3342
 30
0.0
  0
SPLINE
  5
83
330
1F
100
AcDbEntity
  8
Layer 1
 62
   250
100
AcDbSpline
210
0.0
220
0.0
230
1.0
 70
    11
 71
     3
 72
    32
 73
    28
 74
     0
 42
0.0000000001
 43
0.0000000001
 40
0.0
 40
0.0
 40
0.0
 40
0.0
 40
0.1111111111111111
 40
0.1111111111111111
 40
0.1111111111111111
 40
0.2222222222222222
 40
0.2222222222222222
 40
0.2222222222222222
 40
0.3333333333333333
 40
0.3333333333333333
 40
0.3333333333333333
 40
0.4444444444444444
 40
0.4444444444444444
 40
0.4444444444444444
 40
0.5555555555555556
 40
0.5555555555555556
 40
0.5555555555555556
 40
0.6666666666666666
 40
0.6666666666666666
 40
0.6666666666666666
 40
0.7777777777777777
 40
0.7777777777777777
 40
0.7777777777777777
 40
0.8888888888888888
 40
0.8888888888888888
 40
0.8888888888888888
 40
1.0
 40
1.0
 40
1.0
 40
1.0
 10
-28.1302
 20
40.672
 30
0.0
 10
-28.1302
 20
40.5517
 30
0.0
 10
-28.1458
 20
40.447
 30
0.0
 10
-28.1669
 20
40.3789
 30
0.0
 10
-28.1669
 20
40.3789
 30
0.0
 10
-29.8491
 20
40.3789
 30
0.0
 10
-29.8491
 20
40.3789
 30
0.0
 10
-29.8406
 20
39.7301
 30
0.0
 10
-29.5067
 20
39.383
 30
0.0
 10
-28.9896
 20
39.383
 30
0.0
 10
-28.6541
 20
39.383
 30
0.0
 10
-28.4446
 20
39.5347
 30
0.0
 10
-28.2558
 20
39.7548
 30
0.0
 10
-28.2558
 20
39.7548
 30
0.0
 10
-28.1355
 20
39.661
 30
0.0
 10
-28.1355
 20
39.661
 30
0.0
 10
-28.3243
 20
39.2888
 30
0.0
 10
-28.6594
 20
39.0528
 30
0.0
 10
-29.1364
 20
39.0528
 30
0.0
 10
-29.8384
 20
39.0528
 30
0.0
 10
-30.2945
 20
39.5403
 30
0.0
 10
-30.2945
 20
40.3369
 30
0.0
 10
-30.2945
 20
41.1388
 30
0.0
 10
-29.7495
 20
41.6732
 30
0.0
 10
-29.0997
 20
41.6732
 30
0.0
 10
-28.5599
 20
41.6732
 30
0.0
 10
-28.1302
 20
41.3067
 30
0.0
 10
-28.1302
 20
40.672
 30
0.0
  0
SPLINE
  5
84
330
1F
100
AcDbEntity
  8
Layer 1
 62
   250
100
AcDbSpline
210
0.0
220
0.0
230
1.0
 70
    11
 71
     3
 72
    17
 73
    13
 74
     0
 42
0.0000000001
 43
0.0000000001
 40
0.0
 40
0.0
 40
0.0
 40
0.0
 40
0.25
 40
0.25
 40
0.25
 40
0.5
 40
0.5
 40
0.5
 40
0.75
 40
0.75
 40
0.75
 40
1.0
 40
1.0
 40
1.0
 40
1.0
 10
-29.8398
 20
40.599
 30
0.0
 10
-29.8398
 20
40.599
 30
0.0
 10
-28.8534
 20
40.599
 30
0.0
 10
-28.8534
 20
40.599
 30
0.0
 10
-28.6019
 20
40.599
 30
0.0
 10
-28.5444
 20
40.7197
 30
0.0
 10
-28.5444
 20
40.8664
 30
0.0
 10
-28.5444
 20
41.1645
 30
0.0
 10
-28.7959
 20
41.4376
 30
0.0
 10
-29.1258
 20
41.4376
 30
0.0
 10
-29.4306
 20
41.4376
 30
0.0
 10
-29.7786
 20
41.2041
 30
0.0
 10
-29.8398
 20
40.599
 30
0.0
  0
SPLINE
  5
85
330
1F
100
AcDbEntity
  8
Layer 1
 62
   250
100
AcDbSpline
210
0.0
220
0.0
230
1.0
 70
    11
 71
     3
 72
    53
 73
    49
 74
     0
 42
0.0000000001
 43
0.0000000001
 40
0.0
 40
0.0
 40
0.0
 40
0.0
 40
0.0625
 40
0.0625
 40
0.0625
 40
0.125
 40
0.125
 40
0.125
 40
0.1875
 40
0.1875
 40
0.1875
 40
0.25
 40
0.25
 40
0.25
 40
0.3125
 40
0.3125
 40
0.3125
 40
0.375
 40
0.375
 40
0.375
 40
0.4375
 40
0.4375
 40
0.4375
 40
0.5
 40
0.5
 40
0.5
 40
0.5625
 40
0.5625
 40
0.5625
 40
0.625
 40
0.625
 40
0.625
 40
0.6875
 40
0.6875
 40
0.6875
 40
0.75
 40
0.75
 40
0.75
 40
0.8125
 40
0.8125
 40
0.8125
 40
0.875
 40
0.875
 40
0.875
 40
0.9375
 40
0.9375
 40
0.9375
 40
1.0
 40
1.0
 40
1.0
 40
1.0
 10
-26.4992
 20
39.3043
 30
0.0
 10
-26.4992
 20
39.3043
 30
0.0
 10
-26.4992
 20
39.1209
 30
0.0
 10
-26.4992
 20
39.1209
 30
0.0
 10
-26.4992
 20
39.1209
 30
0.0
 10
-26.9183
 20
39.1209
 30
0.0
 10
-26.9183
 20
39.1209
 30
0.0
 10
-26.9183
 20
39.1209
 30
0.0
 10
-27.3691
 20
39.1209
 30
0.0
 10
-27.3691
 20
39.1209
 30
0.0
 10
-27.3691
 20
39.1209
 30
0.0
 10
-27.7886
 20
39.1209
 30
0.0
 10
-27.7886
 20
39.1209
 30
0.0
 10
-27.7886
 20
39.1209
 30
0.0
 10
-27.7886
 20
39.3043
 30
0.0
 10
-27.7886
 20
39.3043
 30
0.0
 10
-27.7886
 20
39.3043
 30
0.0
 10
-27.3627
 20
39.3799
 30
0.0
 10
-27.3627
 20
39.3799
 30
0.0
 10
-27.3566
 20
39.6606
 30
0.0
 10
-27.3533
 20
39.941
 30
0.0
 10
-27.3533
 20
40.2216
 30
0.0
 10
-27.3533
 20
40.2216
 30
0.0
 10
-27.3533
 20
42.5277
 30
0.0
 10
-27.3533
 20
42.5277
 30
0.0
 10
-27.3533
 20
42.5277
 30
0.0
 10
-27.7886
 20
42.5799
 30
0.0
 10
-27.7886
 20
42.5799
 30
0.0
 10
-27.7886
 20
42.5799
 30
0.0
 10
-27.7886
 20
42.7633
 30
0.0
 10
-27.7886
 20
42.7633
 30
0.0
 10
-27.7886
 20
42.7633
 30
0.0
 10
-26.9867
 20
42.9993
 30
0.0
 10
-26.9867
 20
42.9993
 30
0.0
 10
-26.9867
 20
42.9993
 30
0.0
 10
-26.9133
 20
42.957
 30
0.0
 10
-26.9133
 20
42.957
 30
0.0
 10
-26.9133
 20
42.957
 30
0.0
 10
-26.9342
 20
42.213
 30
0.0
 10
-26.9342
 20
42.213
 30
0.0
 10
-26.9342
 20
42.213
 30
0.0
 10
-26.9342
 20
40.2216
 30
0.0
 10
-26.9342
 20
40.2216
 30
0.0
 10
-26.9342
 20
39.941
 30
0.0
 10
-26.9311
 20
39.6606
 30
0.0
 10
-26.9249
 20
39.3799
 30
0.0
 10
-26.9249
 20
39.3799
 30
0.0
 10
-26.4992
 20
39.3043
 30
0.0
 10
-26.4992
 20
39.3043
 30
0.0
  0
SPLINE
  5
86
330
1F
100
AcDbEntity
  8
Layer 1
 62
   250
100
AcDbSpline
210
0.0
220
0.0
230
1.0
 70
    11
 71
     3
 72
    32
 73
    28
 74
     0
 42
0.0000000001
 43
0.0000000001
 40
0.0
 40
0.0
 40
0.0
 40
0.0
 40
0.1111111111111111
 40
0.1111111111111111
 40
0.1111111111111111
 40
0.2222222222222222
 40
0.2222222222222222
 40
0.2222222222222222
 40
0.3333333333333333
 40
0.3333333333333333
 40
0.3333333333333333
 40
0.4444444444444444
 40
0.4444444444444444
 40
0.4444444444444444
 40
0.5555555555555556
 40
0.5555555555555556
 40
0.5555555555555556
 40
0.6666666666666666
 40
0.6666666666666666
 40
0.6666666666666666
 40
0.7777777777777777
 40
0.7777777777777777
 40
0.7777777777777777
 40
0.8888888888888888
 40
0.8888888888888888
 40
0.8888888888888888
 40
1.0
 40
1.0
 40
1.0
 40
1.0
 10
-23.9622
 20
40.672
 30
0.0
 10
-23.9622
 20
40.5517
 30
0.0
 10
-23.9777
 20
40.447
 30
0.0
 10
-23.9989
 20
40.3789
 30
0.0
 10
-23.9989
 20
40.3789
 30
0.0
 10
-25.6811
 20
40.3789
 30
0.0
 10
-25.6811
 20
40.3789
 30
0.0
 10
-25.6726
 20
39.7301
 30
0.0
 10
-25.339
 20
39.383
 30
0.0
 10
-24.8216
 20
39.383
 30
0.0
 10
-24.4861
 20
39.383
 30
0.0
 10
-24.2765
 20
39.5347
 30
0.0
 10
-24.0878
 20
39.7548
 30
0.0
 10
-24.0878
 20
39.7548
 30
0.0
 10
-23.9675
 20
39.661
 30
0.0
 10
-23.9675
 20
39.661
 30
0.0
 10
-24.1562
 20
39.2888
 30
0.0
 10
-24.4914
 20
39.0528
 30
0.0
 10
-24.9683
 20
39.0528
 30
0.0
 10
-25.6707
 20
39.0528
 30
0.0
 10
-26.1265
 20
39.5403
 30
0.0
 10
-26.1265
 20
40.3369
 30
0.0
 10
-26.1265
 20
41.1388
 30
0.0
 10
-25.5815
 20
41.6732
 30
0.0
 10
-24.9316
 20
41.6732
 30
0.0
 10
-24.3919
 20
41.6732
 30
0.0
 10
-23.9622
 20
41.3067
 30
0.0
 10
-23.9622
 20
40.672
 30
0.0
  0
SPLINE
  5
87
330
1F
100
AcDbEntity
  8
Layer 1
 62
   250
100
AcDbSpline
210
0.0
220
0.0
230
1.0
 70
    11
 71
     3
 72
    17
 73
    13
 74
     0
 42
0.0000000001
 43
0.0000000001
 40
0.0
 40
0.0
 40
0.0
 40
0.0
 40
0.25
 40
0.25
 40
0.25
 40
0.5
 40
0.5
 40
0.5
 40
0.75
 40
0.75
 40
0.75
 40
1.0
 40
1.0
 40
1.0
 40
1.0
 10
-25.6718
 20
40.599
 30
0.0
 10
-25.6718
 20
40.599
 30
0.0
 10
-24.6854
 20
40.599
 30
0.0
 10
-24.6854
 20
40.599
 30
0.0
 10
-24.4339
 20
40.599
 30
0.0
 10
-24.376
 20
40.7197
 30
0.0
 10
-24.376
 20
40.8664
 30
0.0
 10
-24.376
 20
41.1645
 30
0.0
 10
-24.6276
 20
41.4376
 30
0.0
 10
-24.9578
 20
41.4376
 30
0.0
 10
-25.2625
 20
41.4376
 30
0.0
 10
-25.6106
 20
41.2041
 30
0.0
 10
-25.6718
 20
40.599
 30
0.0
  0
SPLINE
  5
88
330
1F
100
AcDbEntity
  8
Layer 1
 62
   250
100
AcDbSpline
210
0.0
220
0.0
230
1.0
 70
    11
 71
     3
 72
    74
 73
    70
 74
     0
 42
0.0000000001
 43
0.0000000001
 40
0.0
 40
0.0
 40
0.0
 40
0.0
 40
0.0434782608695652
 40
0.0434782608695652
 40
0.0434782608695652
 40
0.0869565217391304
 40
0.0869565217391304
 40
0.0869565217391304
 40
0.1304347826086956
 40
0.1304347826086956
 40
0.1304347826086956
 40
0.1739130434782609
 40
0.1739130434782609
 40
0.1739130434782609
 40
0.2173913043478261
 40
0.2173913043478261
 40
0.2173913043478261
 40
0.2608695652173913
 40
0.2608695652173913
 40
0.2608695652173913
 40
0.3043478260869565
 40
0.3043478260869565
 40
0.3043478260869565
 40
0.3478260869565217
 40
0.3478260869565217
 40
0.3478260869565217
 40
0.3913043478260869
 40
0.3913043478260869
 40
0.3913043478260869
 40
0.4347826086956522
 40
0.4347826086956522
 40
0.4347826086956522
 40
0.4782608695652174
 40
0.4782608695652174
 40
0.4782608695652174
 40
0.5217391304347826
 40
0.5217391304347826
 40
0.5217391304347826
 40
0.5652173913043478
 40
0.5652173913043478
 40
0.5652173913043478
 40
0.6086956521739131
 40
0.6086956521739131
 40
0.6086956521739131
 40
0.6521739130434783
 40
0.6521739130434783
 40
0.6521739130434783
 40
0.6956521739130435
 40
0.6956521739130435
 40
0.6956521739130435
 40
0.7391304347826086
 40
0.7391304347826086
 40
0.7391304347826086
 40
0.7826086956521738
 40
0.7826086956521738
 40
0.7826086956521738
 40
0.8260869565217391
 40
0.8260869565217391
 40
0.8260869565217391
 40
0.8695652173913043
 40
0.8695652173913043
 40
0.8695652173913043
 40
0.9130434782608695
 40
0.9130434782608695
 40
0.9130434782608695
 40
0.9565217391304348
 40
0.9565217391304348
 40
0.9565217391304348
 40
1.0
 40
1.0
 40
1.0
 40
1.0
 10
-22.6646
 20
40.9952
 30
0.0
 10
-22.4896
 20
41.4207
 30
0.0
 10
-22.1937
 20
41.6731
 30
0.0
 10
-21.9068
 20
41.6731
 30
0.0
 10
-21.7548
 20
41.6731
 30
0.0
 10
-21.5981
 20
41.5997
 30
0.0
 10
-21.535
 20
41.4949
 30
0.0
 10
-21.535
 20
41.2487
 30
0.0
 10
-21.6292
 20
41.1125
 30
0.0
 10
-21.8384
 20
41.1125
 30
0.0
 10
-21.9594
 20
41.1125
 30
0.0
 10
-22.0585
 20
41.1594
 30
0.0
 10
-22.1534
 20
41.2384
 30
0.0
 10
-22.1534
 20
41.2384
 30
0.0
 10
-22.2209
 20
41.2961
 30
0.0
 10
-22.2209
 20
41.2961
 30
0.0
 10
-22.4295
 20
41.1365
 30
0.0
 10
-22.5661
 20
40.9156
 30
0.0
 10
-22.6618
 20
40.6125
 30
0.0
 10
-22.6618
 20
40.6125
 30
0.0
 10
-22.6618
 20
40.2214
 30
0.0
 10
-22.6618
 20
40.2214
 30
0.0
 10
-22.6618
 20
39.989
 30
0.0
 10
-22.6591
 20
39.6465
 30
0.0
 10
-22.6537
 20
39.384
 30
0.0
 10
-22.6537
 20
39.384
 30
0.0
 10
-22.2162
 20
39.3045
 30
0.0
 10
-22.2162
 20
39.3045
 30
0.0
 10
-22.2162
 20
39.3045
 30
0.0
 10
-22.2162
 20
39.1211
 30
0.0
 10
-22.2162
 20
39.1211
 30
0.0
 10
-22.2162
 20
39.1211
 30
0.0
 10
-22.6459
 20
39.1211
 30
0.0
 10
-22.6459
 20
39.1211
 30
0.0
 10
-22.6459
 20
39.1211
 30
0.0
 10
-23.0967
 20
39.1211
 30
0.0
 10
-23.0967
 20
39.1211
 30
0.0
 10
-23.0967
 20
39.1211
 30
0.0
 10
-23.4739
 20
39.1211
 30
0.0
 10
-23.4739
 20
39.1211
 30
0.0
 10
-23.4739
 20
39.1211
 30
0.0
 10
-23.4739
 20
39.3045
 30
0.0
 10
-23.4739
 20
39.3045
 30
0.0
 10
-23.4739
 20
39.3045
 30
0.0
 10
-23.0892
 20
39.3744
 30
0.0
 10
-23.0892
 20
39.3744
 30
0.0
 10
-23.0837
 20
39.6381
 30
0.0
 10
-23.0809
 20
39.9862
 30
0.0
 10
-23.0809
 20
40.2214
 30
0.0
 10
-23.0809
 20
40.2214
 30
0.0
 10
-23.0809
 20
40.468
 30
0.0
 10
-23.0809
 20
40.468
 30
0.0
 10
-23.0809
 20
40.7566
 30
0.0
 10
-23.0862
 20
40.9188
 30
0.0
 10
-23.0967
 20
41.128
 30
0.0
 10
-23.0967
 20
41.128
 30
0.0
 10
-23.5158
 20
41.1749
 30
0.0
 10
-23.5158
 20
41.1749
 30
0.0
 10
-23.5158
 20
41.1749
 30
0.0
 10
-23.5158
 20
41.3591
 30
0.0
 10
-23.5158
 20
41.3591
 30
0.0
 10
-23.5158
 20
41.3591
 30
0.0
 10
-22.8032
 20
41.6731
 30
0.0
 10
-22.8032
 20
41.6731
 30
0.0
 10
-22.8032
 20
41.6731
 30
0.0
 10
-22.7242
 20
41.6209
 30
0.0
 10
-22.7242
 20
41.6209
 30
0.0
 10
-22.7242
 20
41.6209
 30
0.0
 10
-22.6646
 20
40.9952
 30
0.0
 10
-22.6646
 20
40.9952
 30
0.0
  0
SPLINE
  5
89
330
1F
100
AcDbEntity
  8
Layer 1
 62
   250
100
AcDbSpline
210
0.0
220
0.0
230
1.0
 70
    11
 71
     3
 72
    17
 73
    13
 74
     0
 42
0.0000000001
 43
0.0000000001
 40
0.0
 40
0.0
 40
0.0
 40
0.0
 40
0.25
 40
0.25
 40
0.25
 40
0.5
 40
0.5
 40
0.5
 40
0.75
 40
0.75
 40
0.75
 40
1.0
 40
1.0
 40
1.0
 40
1.0
 10
-21.6023
 20
39.121
 30
0.0
 10
-21.6023
 20
39.121
 30
0.0
 10
-19.3484
 20
39.121
 30
0.0
 10
-19.3484
 20
39.121
 30
0.0
 10
-19.3484
 20
39.121
 30
0.0
 10
-19.3484
 20
38.7859
 30
0.0
 10
-19.3484
 20
38.7859
 30
0.0
 10
-19.3484
 20
38.7859
 30
0.0
 10
-21.6023
 20
38.7859
 30
0.0
 10
-21.6023
 20
38.7859
 30
0.0
 10
-21.6023
 20
38.7859
 30
0.0
 10
-21.6023
 20
39.121
 30
0.0
 10
-21.6023
 20
39.121
 30
0.0
  0
SPLINE
  5
8A
330
1F
100
AcDbEntity
  8
Layer 1
 62
   250
100
AcDbSpline
210
0.0
220
0.0
230
1.0
 70
    11
 71
     3
 72
   149
 73
   145
 74
     0
 42
0.0000000001
 43
0.0000000001
 40
0.0
 40
0.0
 40
0.0
 40
0.0
 40
0.0208333333333333
 40
0.0208333333333333
 40
0.0208333333333333
 40
0.0416666666666667
 40
0.0416666666666667
 40
0.0416666666666667
 40
0.0625
 40
0.0625
 40
0.0625
 40
0.0833333333333333
 40
0.0833333333333333
 40
0.0833333333333333
 40
0.1041666666666667
 40
0.1041666666666667
 40
0.1041666666666667
 40
0.125
 40
0.125
 40
0.125
 40
0.1458333333333333
 40
0.1458333333333333
 40
0.1458333333333333
 40
0.1666666666666667
 40
0.1666666666666667
 40
0.1666666666666667
 40
0.1875
 40
0.1875
 40
0.1875
 40
0.2083333333333333
 40
0.2083333333333333
 40
0.2083333333333333
 40
0.2291666666666667
 40
0.2291666666666667
 40
0.2291666666666667
 40
0.25
 40
0.25
 40
0.25
 40
0.2708333333333333
 40
0.2708333333333333
 40
0.2708333333333333
 40
0.2916666666666666
 40
0.2916666666666666
 40
0.2916666666666666
 40
0.3125
 40
0.3125
 40
0.3125
 40
0.3333333333333333
 40
0.3333333333333333
 40
0.3333333333333333
 40
0.3541666666666666
 40
0.3541666666666666
 40
0.3541666666666666
 40
0.375
 40
0.375
 40
0.375
 40
0.3958333333333333
 40
0.3958333333333333
 40
0.3958333333333333
 40
0.4166666666666666
 40
0.4166666666666666
 40
0.4166666666666666
 40
0.4375
 40
0.4375
 40
0.4375
 40
0.4583333333333333
 40
0.4583333333333333
 40
0.4583333333333333
 40
0.4791666666666666
 40
0.4791666666666666
 40
0.4791666666666666
 40
0.5
 40
0.5
 40
0.5
 40
0.5208333333333333
 40
0.5208333333333333
 40
0.5208333333333333
 40
0.5416666666666666
 40
0.5416666666666666
 40
0.5416666666666666
 40
0.5625
 40
0.5625
 40
0.5625
 40
0.5833333333333333
 40
0.5833333333333333
 40
0.5833333333333333
 40
0.6041666666666666
 40
0.6041666666666666
 40
0.6041666666666666
 40
0.625
 40
0.625
 40
0.625
 40
0.6458333333333333
 40
0.6458333333333333
 40
0.6458333333333333
 40
0.6666666666666666
 40
0.6666666666666666
 40
0.6666666666666666
 40
0.6875
 40
0.6875
 40
0.6875
 40
0.7083333333333333
 40
0.7083333333333333
 40
0.7083333333333333
 40
0.7291666666666666
 40
0.7291666666666666
 40
0.7291666666666666
 40
0.75
 40
0.75
 40
0.75
 40
0.7708333333333333
 40
0.7708333333333333
 40
0.7708333333333333
 40
0.7916666666666666
 40
0.7916666666666666
 40
0.7916666666666666
 40
0.8125
 40
0.8125
 40
0.8125
 40
0.8333333333333333
 40
0.8333333333333333
 40
0.8333333333333333
 40
0.8541666666666666
 40
0.8541666666666666
 40
0.8541666666666666
 40
0.875
 40
0.875
 40
0.875
 40
0.8958333333333333
 40
0.8958333333333333
 40
0.8958333333333333
 40
0.9166666666666666
 40
0.9166666666666666
 40
0.9166666666666666
 40
0.9375
 40
0.9375
 40
0.9375
 40
0.9583333333333333
 40
0.9583333333333333
 40
0.9583333333333333
 40
0.9791666666666666
 40
0.9791666666666666
 40
0.9791666666666666
 40
1.0
 40
1.0
 40
1.0
 40
1.0
 10
-14.9479
 20
39.3794
 30
0.0
 10
-14.9479
 20
39.3794
 30
0.0
 10
-14.5736
 20
39.3043
 30
0.0
 10
-14.5736
 20
39.3043
 30
0.0
 10
-14.5736
 20
39.3043
 30
0.0
 10
-14.5736
 20
39.1212
 30
0.0
 10
-14.5736
 20
39.1212
 30
0.0
 10
-14.5736
 20
39.1212
 30
0.0
 10
-14.9401
 20
39.1212
 30
0.0
 10
-14.9401
 20
39.1212
 30
0.0
 10
-14.9401
 20
39.1212
 30
0.0
 10
-15.3906
 20
39.1212
 30
0.0
 10
-15.3906
 20
39.1212
 30
0.0
 10
-15.3906
 20
39.1212
 30
0.0
 10
-15.7787
 20
39.1212
 30
0.0
 10
-15.7787
 20
39.1212
 30
0.0
 10
-15.7787
 20
39.1212
 30
0.0
 10
-15.7787
 20
39.3043
 30
0.0
 10
-15.7787
 20
39.3043
 30
0.0
 10
-15.7787
 20
39.3043
 30
0.0
 10
-15.3833
 20
39.3764
 30
0.0
 10
-15.3833
 20
39.3764
 30
0.0
 10
-15.3779
 20
39.6372
 30
0.0
 10
-15.3751
 20
39.9798
 30
0.0
 10
-15.3751
 20
40.2215
 30
0.0
 10
-15.3751
 20
40.2215
 30
0.0
 10
-15.3751
 20
40.672
 30
0.0
 10
-15.3751
 20
40.672
 30
0.0
 10
-15.3751
 20
41.1648
 30
0.0
 10
-15.5116
 20
41.3066
 30
0.0
 10
-15.821
 20
41.3066
 30
0.0
 10
-16.0488
 20
41.3066
 30
0.0
 10
-16.2622
 20
41.2179
 30
0.0
 10
-16.541
 20
40.9706
 30
0.0
 10
-16.5325
 20
40.8895
 30
0.0
 10
-16.5283
 20
40.8007
 30
0.0
 10
-16.5283
 20
40.7037
 30
0.0
 10
-16.5283
 20
40.7037
 30
0.0
 10
-16.5283
 20
40.2215
 30
0.0
 10
-16.5283
 20
40.2215
 30
0.0
 10
-16.5283
 20
39.9808
 30
0.0
 10
-16.5256
 20
39.6399
 30
0.0
 10
-16.5202
 20
39.3795
 30
0.0
 10
-16.5202
 20
39.3795
 30
0.0
 10
-16.1455
 20
39.3043
 30
0.0
 10
-16.1455
 20
39.3043
 30
0.0
 10
-16.1455
 20
39.3043
 30
0.0
 10
-16.1455
 20
39.1212
 30
0.0
 10
-16.1455
 20
39.1212
 30
0.0
 10
-16.1455
 20
39.1212
 30
0.0
 10
-16.5128
 20
39.1212
 30
0.0
 10
-16.5128
 20
39.1212
 30
0.0
 10
-16.5128
 20
39.1212
 30
0.0
 10
-16.9633
 20
39.1212
 30
0.0
 10
-16.9633
 20
39.1212
 30
0.0
 10
-16.9633
 20
39.1212
 30
0.0
 10
-17.3513
 20
39.1212
 30
0.0
 10
-17.3513
 20
39.1212
 30
0.0
 10
-17.3513
 20
39.1212
 30
0.0
 10
-17.3513
 20
39.3043
 30
0.0
 10
-17.3513
 20
39.3043
 30
0.0
 10
-17.3513
 20
39.3043
 30
0.0
 10
-16.9557
 20
39.3764
 30
0.0
 10
-16.9557
 20
39.3764
 30
0.0
 10
-16.9502
 20
39.6372
 30
0.0
 10
-16.9474
 20
39.9798
 30
0.0
 10
-16.9474
 20
40.2215
 30
0.0
 10
-16.9474
 20
40.2215
 30
0.0
 10
-16.9474
 20
40.6618
 30
0.0
 10
-16.9474
 20
40.6618
 30
0.0
 10
-16.9474
 20
41.1493
 30
0.0
 10
-17.0733
 20
41.3066
 30
0.0
 10
-17.3873
 20
41.3066
 30
0.0
 10
-17.6321
 20
41.3066
 30
0.0
 10
-17.829
 20
41.2113
 30
0.0
 10
-18.1006
 20
40.9806
 30
0.0
 10
-18.1006
 20
40.9806
 30
0.0
 10
-18.1006
 20
40.2215
 30
0.0
 10
-18.1006
 20
40.2215
 30
0.0
 10
-18.1006
 20
39.9878
 30
0.0
 10
-18.0977
 20
39.6425
 30
0.0
 10
-18.0923
 20
39.3794
 30
0.0
 10
-18.0923
 20
39.3794
 30
0.0
 10
-17.7179
 20
39.3043
 30
0.0
 10
-17.7179
 20
39.3043
 30
0.0
 10
-17.7179
 20
39.3043
 30
0.0
 10
-17.7179
 20
39.1212
 30
0.0
 10
-17.7179
 20
39.1212
 30
0.0
 10
-17.7179
 20
39.1212
 30
0.0
 10
-18.0848
 20
39.1212
 30
0.0
 10
-18.0848
 20
39.1212
 30
0.0
 10
-18.0848
 20
39.1212
 30
0.0
 10
-18.5353
 20
39.1212
 30
0.0
 10
-18.5353
 20
39.1212
 30
0.0
 10
-18.5353
 20
39.1212
 30
0.0
 10
-18.9233
 20
39.1212
 30
0.0
 10
-18.9233
 20
39.1212
 30
0.0
 10
-18.9233
 20
39.1212
 30
0.0
 10
-18.9233
 20
39.3043
 30
0.0
 10
-18.9233
 20
39.3043
 30
0.0
 10
-18.9233
 20
39.3043
 30
0.0
 10
-18.5279
 20
39.3763
 30
0.0
 10
-18.5279
 20
39.3763
 30
0.0
 10
-18.5225
 20
39.6398
 30
0.0
 10
-18.5197
 20
39.9868
 30
0.0
 10
-18.5197
 20
40.2215
 30
0.0
 10
-18.5197
 20
40.2215
 30
0.0
 10
-18.5197
 20
40.4681
 30
0.0
 10
-18.5197
 20
40.4681
 30
0.0
 10
-18.5197
 20
40.7563
 30
0.0
 10
-18.525
 20
40.9186
 30
0.0
 10
-18.5353
 20
41.1281
 30
0.0
 10
-18.5353
 20
41.1281
 30
0.0
 10
-18.9547
 20
41.1751
 30
0.0
 10
-18.9547
 20
41.1751
 30
0.0
 10
-18.9547
 20
41.1751
 30
0.0
 10
-18.9547
 20
41.3588
 30
0.0
 10
-18.9547
 20
41.3588
 30
0.0
 10
-18.9547
 20
41.3588
 30
0.0
 10
-18.2417
 20
41.6732
 30
0.0
 10
-18.2417
 20
41.6732
 30
0.0
 10
-18.2417
 20
41.6732
 30
0.0
 10
-18.1631
 20
41.621
 30
0.0
 10
-18.1631
 20
41.621
 30
0.0
 10
-18.1631
 20
41.621
 30
0.0
 10
-18.1195
 20
41.1968
 30
0.0
 10
-18.1195
 20
41.1968
 30
0.0
 10
-17.8721
 20
41.4719
 30
0.0
 10
-17.5184
 20
41.6732
 30
0.0
 10
-17.1936
 20
41.6732
 30
0.0
 10
-16.8679
 20
41.6732
 30
0.0
 10
-16.6654
 20
41.5277
 30
0.0
 10
-16.5782
 20
41.186
 30
0.0
 10
-16.3123
 20
41.5084
 30
0.0
 10
-15.9605
 20
41.6732
 30
0.0
 10
-15.6217
 20
41.6732
 30
0.0
 10
-15.2026
 20
41.6732
 30
0.0
 10
-14.956
 20
41.4111
 30
0.0
 10
-14.956
 20
40.7612
 30
0.0
 10
-14.956
 20
40.7612
 30
0.0
 10
-14.956
 20
40.2215
 30
0.0
 10
-14.956
 20
40.2215
 30
0.0
 10
-14.956
 20
39.9807
 30
0.0
 10
-14.9534
 20
39.6398
 30
0.0
 10
-14.9479
 20
39.3794
 30
0.0
  0
SPLINE
  5
8B
330
1F
100
AcDbEntity
  8
Layer 1
 62
   250
100
AcDbSpline
210
0.0
220
0.0
230
1.0
 70
    11
 71
     3
 72
    32
 73
    28
 74
     0
 42
0.0000000001
 43
0.0000000001
 40
0.0
 40
0.0
 40
0.0
 40
0.0
 40
0.1111111111111111
 40
0.1111111111111111
 40
0.1111111111111111
 40
0.2222222222222222
 40
0.2222222222222222
 40
0.2222222222222222
 40
0.3333333333333333
 40
0.3333333333333333
 40
0.3333333333333333
 40
0.4444444444444444
 40
0.4444444444444444
 40
0.4444444444444444
 40
0.5555555555555556
 40
0.5555555555555556
 40
0.5555555555555556
 40
0.6666666666666666
 40
0.6666666666666666
 40
0.6666666666666666
 40
0.7777777777777777
 40
0.7777777777777777
 40
0.7777777777777777
 40
0.8888888888888888
 40
0.8888888888888888
 40
0.8888888888888888
 40
1.0
 40
1.0
 40
1.0
 40
1.0
 10
-12.0086
 20
40.672
 30
0.0
 10
-12.0086
 20
40.5517
 30
0.0
 10
-12.0248
 20
40.447
 30
0.0
 10
-12.0453
 20
40.3789
 30
0.0
 10
-12.0453
 20
40.3789
 30
0.0
 10
-13.7275
 20
40.3789
 30
0.0
 10
-13.7275
 20
40.3789
 30
0.0
 10
-13.719
 20
39.7301
 30
0.0
 10
-13.3857
 20
39.383
 30
0.0
 10
-12.8683
 20
39.383
 30
0.0
 10
-12.5325
 20
39.383
 30
0.0
 10
-12.3236
 20
39.5347
 30
0.0
 10
-12.1345
 20
39.7548
 30
0.0
 10
-12.1345
 20
39.7548
 30
0.0
 10
-12.0142
 20
39.661
 30
0.0
 10
-12.0142
 20
39.661
 30
0.0
 10
-12.203
 20
39.2888
 30
0.0
 10
-12.5381
 20
39.0528
 30
0.0
 10
-13.0151
 20
39.0528
 30
0.0
 10
-13.7174
 20
39.0528
 30
0.0
 10
-14.1729
 20
39.5403
 30
0.0
 10
-14.1729
 20
40.3369
 30
0.0
 10
-14.1729
 20
41.1388
 30
0.0
 10
-13.6282
 20
41.6732
 30
0.0
 10
-12.9784
 20
41.6732
 30
0.0
 10
-12.4386
 20
41.6732
 30
0.0
 10
-12.0086
 20
41.3067
 30
0.0
 10
-12.0086
 20
40.672
 30
0.0
  0
SPLINE
  5
8C
330
1F
100
AcDbEntity
  8
Layer 1
 62
   250
100
AcDbSpline
210
0.0
220
0.0
230
1.0
 70
    11
 71
     3
 72
    17
 73
    13
 74
     0
 42
0.0000000001
 43
0.0000000001
 40
0.0
 40
0.0
 40
0.0
 40
0.0
 40
0.25
 40
0.25
 40
0.25
 40
0.5
 40
0.5
 40
0.5
 40
0.75
 40
0.75
 40
0.75
 40
1.0
 40
1.0
 40
1.0
 40
1.0
 10
-13.7182
 20
40.599
 30
0.0
 10
-13.7182
 20
40.599
 30
0.0
 10
-12.7318
 20
40.599
 30
0.0
 10
-12.7318
 20
40.599
 30
0.0
 10
-12.4802
 20
40.599
 30
0.0
 10
-12.4231
 20
40.7197
 30
0.0
 10
-12.4231
 20
40.8664
 30
0.0
 10
-12.4231
 20
41.1645
 30
0.0
 10
-12.6746
 20
41.4376
 30
0.0
 10
-13.0045
 20
41.4376
 30
0.0
 10
-13.3089
 20
41.4376
 30
0.0
 10
-13.657
 20
41.2041
 30
0.0
 10
-13.7182
 20
40.599
 30
0.0
  0
SPLINE
  5
8D
330
1F
100
AcDbEntity
  8
Layer 1
 62
   250
100
AcDbSpline
210
0.0
220
0.0
230
1.0
 70
    11
 71
     3
 72
   101
 73
    97
 74
     0
 42
0.0000000001
 43
0.0000000001
 40
0.0
 40
0.0
 40
0.0
 40
0.0
 40
0.03125
 40
0.03125
 40
0.03125
 40
0.0625
 40
0.0625
 40
0.0625
 40
0.09375
 40
0.09375
 40
0.09375
 40
0.125
 40
0.125
 40
0.125
 40
0.15625
 40
0.15625
 40
0.15625
 40
0.1875
 40
0.1875
 40
0.1875
 40
0.21875
 40
0.21875
 40
0.21875
 40
0.25
 40
0.25
 40
0.25
 40
0.28125
 40
0.28125
 40
0.28125
 40
0.3125
 40
0.3125
 40
0.3125
 40
0.34375
 40
0.34375
 40
0.34375
 40
0.375
 40
0.375
 40
0.375
 40
0.40625
 40
0.40625
 40
0.40625
 40
0.4375
 40
0.4375
 40
0.4375
 40
0.46875
 40
0.46875
 40
0.46875
 40
0.5
 40
0.5
 40
0.5
 40
0.53125
 40
0.53125
 40
0.53125
 40
0.5625
 40
0.5625
 40
0.5625
 40
0.59375
 40
0.59375
 40
0.59375
 40
0.625
 40
0.625
 40
0.625
 40
0.65625
 40
0.65625
 40
0.65625
 40
0.6875
 40
0.6875
 40
0.6875
 40
0.71875
 40
0.71875
 40
0.71875
 40
0.75
 40
0.75
 40
0.75
 40
0.78125
 40
0.78125
 40
0.78125
 40
0.8125
 40
0.8125
 40
0.8125
 40
0.84375
 40
0.84375
 40
0.84375
 40
0.875
 40
0.875
 40
0.875
 40
0.90625
 40
0.90625
 40
0.90625
 40
0.9375
 40
0.9375
 40
0.9375
 40
0.96875
 40
0.96875
 40
0.96875
 40
1.0
 40
1.0
 40
1.0
 40
1.0
 10
-9.1909
 20
39.3794
 30
0.0
 10
-9.1909
 20
39.3794
 30
0.0
 10
-8.8165
 20
39.3043
 30
0.0
 10
-8.8165
 20
39.3043
 30
0.0
 10
-8.8165
 20
39.3043
 30
0.0
 10
-8.8165
 20
39.1212
 30
0.0
 10
-8.8165
 20
39.1212
 30
0.0
 10
-8.8165
 20
39.1212
 30
0.0
 10
-9.1834
 20
39.1212
 30
0.0
 10
-9.1834
 20
39.1212
 30
0.0
 10
-9.1834
 20
39.1212
 30
0.0
 10
-9.6339
 20
39.1212
 30
0.0
 10
-9.6339
 20
39.1212
 30
0.0
 10
-9.6339
 20
39.1212
 30
0.0
 10
-10.0219
 20
39.1212
 30
0.0
 10
-10.0219
 20
39.1212
 30
0.0
 10
-10.0219
 20
39.1212
 30
0.0
 10
-10.0219
 20
39.3043
 30
0.0
 10
-10.0219
 20
39.3043
 30
0.0
 10
-10.0219
 20
39.3043
 30
0.0
 10
-9.6265
 20
39.3764
 30
0.0
 10
-9.6265
 20
39.3764
 30
0.0
 10
-9.6211
 20
39.6372
 30
0.0
 10
-9.6183
 20
39.9798
 30
0.0
 10
-9.6183
 20
40.2215
 30
0.0
 10
-9.6183
 20
40.2215
 30
0.0
 10
-9.6183
 20
40.6618
 30
0.0
 10
-9.6183
 20
40.6618
 30
0.0
 10
-9.6183
 20
41.1493
 30
0.0
 10
-9.7443
 20
41.3066
 30
0.0
 10
-10.0586
 20
41.3066
 30
0.0
 10
-10.3144
 20
41.3066
 30
0.0
 10
-10.5254
 20
41.216
 30
0.0
 10
-10.8132
 20
40.9629
 30
0.0
 10
-10.8132
 20
40.9629
 30
0.0
 10
-10.8132
 20
40.2215
 30
0.0
 10
-10.8132
 20
40.2215
 30
0.0
 10
-10.8132
 20
39.9874
 30
0.0
 10
-10.8104
 20
39.6415
 30
0.0
 10
-10.8051
 20
39.3783
 30
0.0
 10
-10.8051
 20
39.3783
 30
0.0
 10
-10.4357
 20
39.3043
 30
0.0
 10
-10.4357
 20
39.3043
 30
0.0
 10
-10.4357
 20
39.3043
 30
0.0
 10
-10.4357
 20
39.1212
 30
0.0
 10
-10.4357
 20
39.1212
 30
0.0
 10
-10.4357
 20
39.1212
 30
0.0
 10
-10.7977
 20
39.1212
 30
0.0
 10
-10.7977
 20
39.1212
 30
0.0
 10
-10.7977
 20
39.1212
 30
0.0
 10
-11.2482
 20
39.1212
 30
0.0
 10
-11.2482
 20
39.1212
 30
0.0
 10
-11.2482
 20
39.1212
 30
0.0
 10
-11.6412
 20
39.1212
 30
0.0
 10
-11.6412
 20
39.1212
 30
0.0
 10
-11.6412
 20
39.1212
 30
0.0
 10
-11.6412
 20
39.3043
 30
0.0
 10
-11.6412
 20
39.3043
 30
0.0
 10
-11.6412
 20
39.3043
 30
0.0
 10
-11.2404
 20
39.3774
 30
0.0
 10
-11.2404
 20
39.3774
 30
0.0
 10
-11.2349
 20
39.6408
 30
0.0
 10
-11.2323
 20
39.9871
 30
0.0
 10
-11.2323
 20
40.2215
 30
0.0
 10
-11.2323
 20
40.2215
 30
0.0
 10
-11.2323
 20
42.5276
 30
0.0
 10
-11.2323
 20
42.5276
 30
0.0
 10
-11.2323
 20
42.5276
 30
0.0
 10
-11.6676
 20
42.5798
 30
0.0
 10
-11.6676
 20
42.5798
 30
0.0
 10
-11.6676
 20
42.5798
 30
0.0
 10
-11.6676
 20
42.7633
 30
0.0
 10
-11.6676
 20
42.7633
 30
0.0
 10
-11.6676
 20
42.7633
 30
0.0
 10
-10.8813
 20
42.9993
 30
0.0
 10
-10.8813
 20
42.9993
 30
0.0
 10
-10.8813
 20
42.9993
 30
0.0
 10
-10.8079
 20
42.9573
 30
0.0
 10
-10.8079
 20
42.9573
 30
0.0
 10
-10.8079
 20
42.9573
 30
0.0
 10
-10.8291
 20
42.2129
 30
0.0
 10
-10.8291
 20
42.2129
 30
0.0
 10
-10.8291
 20
42.2129
 30
0.0
 10
-10.8291
 20
41.1879
 30
0.0
 10
-10.8291
 20
41.1879
 30
0.0
 10
-10.5763
 20
41.4675
 30
0.0
 10
-10.1973
 20
41.6732
 30
0.0
 10
-9.8642
 20
41.6732
 30
0.0
 10
-9.4137
 20
41.6732
 30
0.0
 10
-9.1992
 20
41.3952
 30
0.0
 10
-9.1992
 20
40.7037
 30
0.0
 10
-9.1992
 20
40.7037
 30
0.0
 10
-9.1992
 20
40.2215
 30
0.0
 10
-9.1992
 20
40.2215
 30
0.0
 10
-9.1992
 20
39.9807
 30
0.0
 10
-9.1963
 20
39.6399
 30
0.0
 10
-9.1909
 20
39.3794
 30
0.0
  0
SPLINE
  5
8E
330
1F
100
AcDbEntity
  8
Layer 1
 62
   250
100
AcDbSpline
210
0.0
220
0.0
230
1.0
 70
    11
 71
     3
 72
    50
 73
    46
 74
     0
 42
0.0000000001
 43
0.0000000001
 40
0.0
 40
0.0
 40
0.0
 40
0.0
 40
0.0666666666666667
 40
0.0666666666666667
 40
0.0666666666666667
 40
0.1333333333333333
 40
0.1333333333333333
 40
0.1333333333333333
 40
0.2
 40
0.2
 40
0.2
 40
0.2666666666666667
 40
0.2666666666666667
 40
0.2666666666666667
 40
0.3333333333333333
 40
0.3333333333333333
 40
0.3333333333333333
 40
0.4
 40
0.4
 40
0.4
 40
0.4666666666666667
 40
0.4666666666666667
 40
0.4666666666666667
 40
0.5333333333333333
 40
0.5333333333333333
 40
0.5333333333333333
 40
0.6
 40
0.6
 40
0.6
 40
0.6666666666666666
 40
0.6666666666666666
 40
0.6666666666666666
 40
0.7333333333333333
 40
0.7333333333333333
 40
0.7333333333333333
 40
0.8
 40
0.8
 40
0.8
 40
0.8666666666666667
 40
0.8666666666666667
 40
0.8666666666666667
 40
0.9333333333333333
 40
0.9333333333333333
 40
0.9333333333333333
 40
1.0
 40
1.0
 40
1.0
 40
1.0
 10
-5.7702
 20
39.3043
 30
0.0
 10
-5.7702
 20
39.3043
 30
0.0
 10
-5.7702
 20
39.1209
 30
0.0
 10
-5.7702
 20
39.1209
 30
0.0
 10
-5.7702
 20
39.1209
 30
0.0
 10
-6.5717
 20
39.0687
 30
0.0
 10
-6.5717
 20
39.0687
 30
0.0
 10
-6.5717
 20
39.0687
 30
0.0
 10
-6.6079
 20
39.4362
 30
0.0
 10
-6.6079
 20
39.4362
 30
0.0
 10
-6.787
 20
39.1936
 30
0.0
 10
-7.0116
 20
39.0528
 30
0.0
 10
-7.3422
 20
39.0528
 30
0.0
 10
-7.9818
 20
39.0528
 30
0.0
 10
-8.4111
 20
39.5823
 30
0.0
 10
-8.4111
 20
40.3419
 30
0.0
 10
-8.4111
 20
41.1388
 30
0.0
 10
-7.9398
 20
41.6732
 30
0.0
 10
-7.2949
 20
41.6732
 30
0.0
 10
-7.0487
 20
41.6732
 30
0.0
 10
-6.8307
 20
41.5911
 30
0.0
 10
-6.6088
 20
41.3326
 30
0.0
 10
-6.6088
 20
41.3326
 30
0.0
 10
-6.6088
 20
42.5277
 30
0.0
 10
-6.6088
 20
42.5277
 30
0.0
 10
-6.6088
 20
42.5277
 30
0.0
 10
-7.0593
 20
42.5799
 30
0.0
 10
-7.0593
 20
42.5799
 30
0.0
 10
-7.0593
 20
42.5799
 30
0.0
 10
-7.0593
 20
42.7633
 30
0.0
 10
-7.0593
 20
42.7633
 30
0.0
 10
-7.0593
 20
42.7633
 30
0.0
 10
-6.2577
 20
42.9993
 30
0.0
 10
-6.2577
 20
42.9993
 30
0.0
 10
-6.2577
 20
42.9993
 30
0.0
 10
-6.184
 20
42.957
 30
0.0
 10
-6.184
 20
42.957
 30
0.0
 10
-6.184
 20
42.957
 30
0.0
 10
-6.2048
 20
42.213
 30
0.0
 10
-6.2048
 20
42.213
 30
0.0
 10
-6.2048
 20
42.213
 30
0.0
 10
-6.2048
 20
39.3747
 30
0.0
 10
-6.2048
 20
39.3747
 30
0.0
 10
-6.2048
 20
39.3747
 30
0.0
 10
-5.7702
 20
39.3043
 30
0.0
 10
-5.7702
 20
39.3043
 30
0.0
  0
SPLINE
  5
8F
330
1F
100
AcDbEntity
  8
Layer 1
 62
   250
100
AcDbSpline
210
0.0
220
0.0
230
1.0
 70
    11
 71
     3
 72
    20
 73
    16
 74
     0
 42
0.0000000001
 43
0.0000000001
 40
0.0
 40
0.0
 40
0.0
 40
0.0
 40
0.2
 40
0.2
 40
0.2
 40
0.4
 40
0.4
 40
0.4
 40
0.6000000000000001
 40
0.6000000000000001
 40
0.6000000000000001
 40
0.8
 40
0.8
 40
0.8
 40
1.0
 40
1.0
 40
1.0
 40
1.0
 10
-6.6243
 20
39.6576
 30
0.0
 10
-6.6243
 20
39.6576
 30
0.0
 10
-6.6243
 20
41.1038
 30
0.0
 10
-6.6243
 20
41.1038
 30
0.0
 10
-6.8731
 20
41.3198
 30
0.0
 10
-7.0569
 20
41.385
 30
0.0
 10
-7.2325
 20
41.385
 30
0.0
 10
-7.6251
 20
41.385
 30
0.0
 10
-7.9659
 20
41.0707
 30
0.0
 10
-7.9659
 20
40.3528
 30
0.0
 10
-7.9659
 20
39.6557
 30
0.0
 10
-7.6516
 20
39.341
 30
0.0
 10
-7.2268
 20
39.341
 30
0.0
 10
-6.9936
 20
39.341
 30
0.0
 10
-6.8242
 20
39.4292
 30
0.0
 10
-6.6243
 20
39.6576
 30
0.0
  0
SPLINE
  5
90
330
1F
100
AcDbEntity
  8
Layer 1
 62
   250
100
AcDbSpline
210
0.0
220
0.0
230
1.0
 70
    11
 71
     3
 72
    17
 73
    13
 74
     0
 42
0.0000000001
 43
0.0000000001
 40
0.0
 40
0.0
 40
0.0
 40
0.0
 40
0.25
 40
0.25
 40
0.25
 40
0.5
 40
0.5
 40
0.5
 40
0.75
 40
0.75
 40
0.75
 40
1.0
 40
1.0
 40
1.0
 40
1.0
 10
-5.2397
 20
42.5958
 30
0.0
 10
-5.2397
 20
42.7948
 30
0.0
 10
-5.0876
 20
42.926
 30
0.0
 10
-4.8936
 20
42.926
 30
0.0
 10
-4.6999
 20
42.926
 30
0.0
 10
-4.5479
 20
42.7948
 30
0.0
 10
-4.5479
 20
42.5958
 30
0.0
 10
-4.5479
 20
42.4014
 30
0.0
 10
-4.6999
 20
42.2656
 30
0.0
 10
-4.8936
 20
42.2656
 30
0.0
 10
-5.0876
 20
42.2656
 30
0.0
 10
-5.2397
 20
42.4014
 30
0.0
 10
-5.2397
 20
42.5958
 30
0.0
  0
SPLINE
  5
91
330
1F
100
AcDbEntity
  8
Layer 1
 62
   250
100
AcDbSpline
210
0.0
220
0.0
230
1.0
 70
    11
 71
     3
 72
    56
 73
    52
 74
     0
 42
0.0000000001
 43
0.0000000001
 40
0.0
 40
0.0
 40
0.0
 40
0.0
 40
0.0588235294117647
 40
0.0588235294117647
 40
0.0588235294117647
 40
0.1176470588235294
 40
0.1176470588235294
 40
0.1176470588235294
 40
0.1764705882352941
 40
0.1764705882352941
 40
0.1764705882352941
 40
0.2352941176470588
 40
0.2352941176470588
 40
0.2352941176470588
 40
0.2941176470588235
 40
0.2941176470588235
 40
0.2941176470588235
 40
0.3529411764705882
 40
0.3529411764705882
 40
0.3529411764705882
 40
0.4117647058823529
 40
0.4117647058823529
 40
0.4117647058823529
 40
0.4705882352941176
 40
0.4705882352941176
 40
0.4705882352941176
 40
0.5294117647058824
 40
0.5294117647058824
 40
0.5294117647058824
 40
0.5882352941176471
 40
0.5882352941176471
 40
0.5882352941176471
 40
0.6470588235294118
 40
0.6470588235294118
 40
0.6470588235294118
 40
0.7058823529411764
 40
0.7058823529411764
 40
0.7058823529411764
 40
0.7647058823529411
 40
0.7647058823529411
 40
0.7647058823529411
 40
0.8235294117647058
 40
0.8235294117647058
 40
0.8235294117647058
 40
0.8823529411764706
 40
0.8823529411764706
 40
0.8823529411764706
 40
0.9411764705882353
 40
0.9411764705882353
 40
0.9411764705882353
 40
1.0
 40
1.0
 40
1.0
 40
1.0
 10
-4.3016
 20
39.3044
 30
0.0
 10
-4.3016
 20
39.3044
 30
0.0
 10
-4.3016
 20
39.1209
 30
0.0
 10
-4.3016
 20
39.1209
 30
0.0
 10
-4.3016
 20
39.1209
 30
0.0
 10
-4.6685
 20
39.1209
 30
0.0
 10
-4.6685
 20
39.1209
 30
0.0
 10
-4.6685
 20
39.1209
 30
0.0
 10
-5.1088
 20
39.1209
 30
0.0
 10
-5.1088
 20
39.1209
 30
0.0
 10
-5.1088
 20
39.1209
 30
0.0
 10
-5.5071
 20
39.1209
 30
0.0
 10
-5.5071
 20
39.1209
 30
0.0
 10
-5.5071
 20
39.1209
 30
0.0
 10
-5.5071
 20
39.3044
 30
0.0
 10
-5.5071
 20
39.3044
 30
0.0
 10
-5.5071
 20
39.3044
 30
0.0
 10
-5.1012
 20
39.3784
 30
0.0
 10
-5.1012
 20
39.3784
 30
0.0
 10
-5.0957
 20
39.6417
 30
0.0
 10
-5.0929
 20
39.9876
 30
0.0
 10
-5.0929
 20
40.2216
 30
0.0
 10
-5.0929
 20
40.2216
 30
0.0
 10
-5.0929
 20
40.4682
 30
0.0
 10
-5.0929
 20
40.4682
 30
0.0
 10
-5.0929
 20
40.7564
 30
0.0
 10
-5.0982
 20
40.9187
 30
0.0
 10
-5.1088
 20
41.1282
 30
0.0
 10
-5.1088
 20
41.1282
 30
0.0
 10
-5.5385
 20
41.1752
 30
0.0
 10
-5.5385
 20
41.1752
 30
0.0
 10
-5.5385
 20
41.1752
 30
0.0
 10
-5.5385
 20
41.359
 30
0.0
 10
-5.5385
 20
41.359
 30
0.0
 10
-5.5385
 20
41.359
 30
0.0
 10
-4.7472
 20
41.6733
 30
0.0
 10
-4.7472
 20
41.6733
 30
0.0
 10
-4.7472
 20
41.6733
 30
0.0
 10
-4.6685
 20
41.6207
 30
0.0
 10
-4.6685
 20
41.6207
 30
0.0
 10
-4.6685
 20
41.6207
 30
0.0
 10
-4.6844
 20
40.913
 30
0.0
 10
-4.6844
 20
40.913
 30
0.0
 10
-4.6844
 20
40.913
 30
0.0
 10
-4.6844
 20
40.2216
 30
0.0
 10
-4.6844
 20
40.2216
 30
0.0
 10
-4.6844
 20
39.9879
 30
0.0
 10
-4.6814
 20
39.6425
 30
0.0
 10
-4.676
 20
39.3794
 30
0.0
 10
-4.676
 20
39.3794
 30
0.0
 10
-4.3016
 20
39.3044
 30
0.0
 10
-4.3016
 20
39.3044
 30
0.0
  0
SPLINE
  5
92
330
1F
100
AcDbEntity
  8
Layer 1
 62
   250
100
AcDbSpline
210
0.0
220
0.0
230
1.0
 70
    11
 71
     3
 72
    17
 73
    13
 74
     0
 42
0.0000000001
 43
0.0000000001
 40
0.0
 40
0.0
 40
0.0
 40
0.0
 40
0.25
 40
0.25
 40
0.25
 40
0.5
 40
0.5
 40
0.5
 40
0.75
 40
0.75
 40
0.75
 40
1.0
 40
1.0
 40
1.0
 40
1.0
 10
-3.6828
 20
42.5958
 30
0.0
 10
-3.6828
 20
42.7948
 30
0.0
 10
-3.5308
 20
42.926
 30
0.0
 10
-3.3367
 20
42.926
 30
0.0
 10
-3.1431
 20
42.926
 30
0.0
 10
-2.991
 20
42.7948
 30
0.0
 10
-2.991
 20
42.5958
 30
0.0
 10
-2.991
 20
42.4014
 30
0.0
 10
-3.1431
 20
42.2656
 30
0.0
 10
-3.3367
 20
42.2656
 30
0.0
 10
-3.5308
 20
42.2656
 30
0.0
 10
-3.6828
 20
42.4014
 30
0.0
 10
-3.6828
 20
42.5958
 30
0.0
  0
SPLINE
  5
93
330
1F
100
AcDbEntity
  8
Layer 1
 62
   250
100
AcDbSpline
210
0.0
220
0.0
230
1.0
 70
    11
 71
     3
 72
    56
 73
    52
 74
     0
 42
0.0000000001
 43
0.0000000001
 40
0.0
 40
0.0
 40
0.0
 40
0.0
 40
0.0588235294117647
 40
0.0588235294117647
 40
0.0588235294117647
 40
0.1176470588235294
 40
0.1176470588235294
 40
0.1176470588235294
 40
0.1764705882352941
 40
0.1764705882352941
 40
0.1764705882352941
 40
0.2352941176470588
 40
0.2352941176470588
 40
0.2352941176470588
 40
0.2941176470588235
 40
0.2941176470588235
 40
0.2941176470588235
 40
0.3529411764705882
 40
0.3529411764705882
 40
0.3529411764705882
 40
0.4117647058823529
 40
0.4117647058823529
 40
0.4117647058823529
 40
0.4705882352941176
 40
0.4705882352941176
 40
0.4705882352941176
 40
0.5294117647058824
 40
0.5294117647058824
 40
0.5294117647058824
 40
0.5882352941176471
 40
0.5882352941176471
 40
0.5882352941176471
 40
0.6470588235294118
 40
0.6470588235294118
 40
0.6470588235294118
 40
0.7058823529411764
 40
0.7058823529411764
 40
0.7058823529411764
 40
0.7647058823529411
 40
0.7647058823529411
 40
0.7647058823529411
 40
0.8235294117647058
 40
0.8235294117647058
 40
0.8235294117647058
 40
0.8823529411764706
 40
0.8823529411764706
 40
0.8823529411764706
 40
0.9411764705882353
 40
0.9411764705882353
 40
0.9411764705882353
 40
1.0
 40
1.0
 40
1.0
 40
1.0
 10
-2.7448
 20
39.3044
 30
0.0
 10
-2.7448
 20
39.3044
 30
0.0
 10
-2.7448
 20
39.1209
 30
0.0
 10
-2.7448
 20
39.1209
 30
0.0
 10
-2.7448
 20
39.1209
 30
0.0
 10
-3.1117
 20
39.1209
 30
0.0
 10
-3.1117
 20
39.1209
 30
0.0
 10
-3.1117
 20
39.1209
 30
0.0
 10
-3.5519
 20
39.1209
 30
0.0
 10
-3.5519
 20
39.1209
 30
0.0
 10
-3.5519
 20
39.1209
 30
0.0
 10
-3.9502
 20
39.1209
 30
0.0
 10
-3.9502
 20
39.1209
 30
0.0
 10
-3.9502
 20
39.1209
 30
0.0
 10
-3.9502
 20
39.3044
 30
0.0
 10
-3.9502
 20
39.3044
 30
0.0
 10
-3.9502
 20
39.3044
 30
0.0
 10
-3.5444
 20
39.3784
 30
0.0
 10
-3.5444
 20
39.3784
 30
0.0
 10
-3.539
 20
39.6417
 30
0.0
 10
-3.5364
 20
39.9876
 30
0.0
 10
-3.5364
 20
40.2216
 30
0.0
 10
-3.5364
 20
40.2216
 30
0.0
 10
-3.5364
 20
40.4682
 30
0.0
 10
-3.5364
 20
40.4682
 30
0.0
 10
-3.5364
 20
40.7564
 30
0.0
 10
-3.5414
 20
40.9187
 30
0.0
 10
-3.5519
 20
41.1282
 30
0.0
 10
-3.5519
 20
41.1282
 30
0.0
 10
-3.9816
 20
41.1752
 30
0.0
 10
-3.9816
 20
41.1752
 30
0.0
 10
-3.9816
 20
41.1752
 30
0.0
 10
-3.9816
 20
41.359
 30
0.0
 10
-3.9816
 20
41.359
 30
0.0
 10
-3.9816
 20
41.359
 30
0.0
 10
-3.1903
 20
41.6733
 30
0.0
 10
-3.1903
 20
41.6733
 30
0.0
 10
-3.1903
 20
41.6733
 30
0.0
 10
-3.1117
 20
41.6207
 30
0.0
 10
-3.1117
 20
41.6207
 30
0.0
 10
-3.1117
 20
41.6207
 30
0.0
 10
-3.1275
 20
40.913
 30
0.0
 10
-3.1275
 20
40.913
 30
0.0
 10
-3.1275
 20
40.913
 30
0.0
 10
-3.1275
 20
40.2216
 30
0.0
 10
-3.1275
 20
40.2216
 30
0.0
 10
-3.1275
 20
39.988
 30
0.0
 10
-3.1246
 20
39.6427
 30
0.0
 10
-3.1192
 20
39.3795
 30
0.0
 10
-3.1192
 20
39.3795
 30
0.0
 10
-2.7448
 20
39.3044
 30
0.0
 10
-2.7448
 20
39.3044
 30
0.0
  0
SPLINE
  5
94
330
1F
100
AcDbEntity
  8
Layer 1
 62
   250
100
AcDbSpline
210
0.0
220
0.0
230
1.0
 70
    11
 71
     3
 72
    17
 73
    13
 74
     0
 42
0.0000000001
 43
0.0000000001
 40
0.0
 40
0.0
 40
0.0
 40
0.0
 40
0.25
 40
0.25
 40
0.25
 40
0.5
 40
0.5
 40
0.5
 40
0.75
 40
0.75
 40
0.75
 40
1.0
 40
1.0
 40
1.0
 40
1.0
 10
-2.1256
 20
42.5958
 30
0.0
 10
-2.1256
 20
42.7948
 30
0.0
 10
-1.9736
 20
42.926
 30
0.0
 10
-1.7799
 20
42.926
 30
0.0
 10
-1.5859
 20
42.926
 30
0.0
 10
-1.4338
 20
42.7948
 30
0.0
 10
-1.4338
 20
42.5958
 30
0.0
 10
-1.4338
 20
42.4014
 30
0.0
 10
-1.5859
 20
42.2656
 30
0.0
 10
-1.7799
 20
42.2656
 30
0.0
 10
-1.9736
 20
42.2656
 30
0.0
 10
-2.1256
 20
42.4014
 30
0.0
 10
-2.1256
 20
42.5958
 30
0.0
  0
SPLINE
  5
95
330
1F
100
AcDbEntity
  8
Layer 1
 62
   250
100
AcDbSpline
210
0.0
220
0.0
230
1.0
 70
    11
 71
     3
 72
    56
 73
    52
 74
     0
 42
0.0000000001
 43
0.0000000001
 40
0.0
 40
0.0
 40
0.0
 40
0.0
 40
0.0588235294117647
 40
0.0588235294117647
 40
0.0588235294117647
 40
0.1176470588235294
 40
0.1176470588235294
 40
0.1176470588235294
 40
0.1764705882352941
 40
0.1764705882352941
 40
0.1764705882352941
 40
0.2352941176470588
 40
0.2352941176470588
 40
0.2352941176470588
 40
0.2941176470588235
 40
0.2941176470588235
 40
0.2941176470588235
 40
0.3529411764705882
 40
0.3529411764705882
 40
0.3529411764705882
 40
0.4117647058823529
 40
0.4117647058823529
 40
0.4117647058823529
 40
0.4705882352941176
 40
0.4705882352941176
 40
0.4705882352941176
 40
0.5294117647058824
 40
0.5294117647058824
 40
0.5294117647058824
 40
0.5882352941176471
 40
0.5882352941176471
 40
0.5882352941176471
 40
0.6470588235294118
 40
0.6470588235294118
 40
0.6470588235294118
 40
0.7058823529411764
 40
0.7058823529411764
 40
0.7058823529411764
 40
0.7647058823529411
 40
0.7647058823529411
 40
0.7647058823529411
 40
0.8235294117647058
 40
0.8235294117647058
 40
0.8235294117647058
 40
0.8823529411764706
 40
0.8823529411764706
 40
0.8823529411764706
 40
0.9411764705882353
 40
0.9411764705882353
 40
0.9411764705882353
 40
1.0
 40
1.0
 40
1.0
 40
1.0
 10
-1.1876
 20
39.3044
 30
0.0
 10
-1.1876
 20
39.3044
 30
0.0
 10
-1.1876
 20
39.1209
 30
0.0
 10
-1.1876
 20
39.1209
 30
0.0
 10
-1.1876
 20
39.1209
 30
0.0
 10
-1.5545
 20
39.1209
 30
0.0
 10
-1.5545
 20
39.1209
 30
0.0
 10
-1.5545
 20
39.1209
 30
0.0
 10
-1.9947
 20
39.1209
 30
0.0
 10
-1.9947
 20
39.1209
 30
0.0
 10
-1.9947
 20
39.1209
 30
0.0
 10
-2.393
 20
39.1209
 30
0.0
 10
-2.393
 20
39.1209
 30
0.0
 10
-2.393
 20
39.1209
 30
0.0
 10
-2.393
 20
39.3044
 30
0.0
 10
-2.393
 20
39.3044
 30
0.0
 10
-2.393
 20
39.3044
 30
0.0
 10
-1.9871
 20
39.3784
 30
0.0
 10
-1.9871
 20
39.3784
 30
0.0
 10
-1.9817
 20
39.6417
 30
0.0
 10
-1.9789
 20
39.9876
 30
0.0
 10
-1.9789
 20
40.2216
 30
0.0
 10
-1.9789
 20
40.2216
 30
0.0
 10
-1.9789
 20
40.4682
 30
0.0
 10
-1.9789
 20
40.4682
 30
0.0
 10
-1.9789
 20
40.7564
 30
0.0
 10
-1.9842
 20
40.9187
 30
0.0
 10
-1.9947
 20
41.1282
 30
0.0
 10
-1.9947
 20
41.1282
 30
0.0
 10
-2.4244
 20
41.1752
 30
0.0
 10
-2.4244
 20
41.1752
 30
0.0
 10
-2.4244
 20
41.1752
 30
0.0
 10
-2.4244
 20
41.359
 30
0.0
 10
-2.4244
 20
41.359
 30
0.0
 10
-2.4244
 20
41.359
 30
0.0
 10
-1.6331
 20
41.6733
 30
0.0
 10
-1.6331
 20
41.6733
 30
0.0
 10
-1.6331
 20
41.6733
 30
0.0
 10
-1.5545
 20
41.6207
 30
0.0
 10
-1.5545
 20
41.6207
 30
0.0
 10
-1.5545
 20
41.6207
 30
0.0
 10
-1.57
 20
40.913
 30
0.0
 10
-1.57
 20
40.913
 30
0.0
 10
-1.57
 20
40.913
 30
0.0
 10
-1.57
 20
40.2216
 30
0.0
 10
-1.57
 20
40.2216
 30
0.0
 10
-1.57
 20
39.9879
 30
0.0
 10
-1.5673
 20
39.6425
 30
0.0
 10
-1.5619
 20
39.3794
 30
0.0
 10
-1.5619
 20
39.3794
 30
0.0
 10
-1.1876
 20
39.3044
 30
0.0
 10
-1.1876
 20
39.3044
 30
0.0
  0
ENDSEC
  0
SECTION
  2
OBJECTS
  0
DICTIONARY
  5
C
330
0
100
AcDbDictionary
281
     1
  3
ACAD_DETAILVIEWSTYLE
350
9D
  3
ACAD_GROUP
350
D
  3
ACAD_LAYOUT
350
1A
  3
ACAD_MATERIAL
350
43
  3
ACAD_MLEADERSTYLE
350
5B
  3
ACAD_MLINESTYLE
350
17
  3
ACAD_PLOTSETTINGS
350
19
  3
ACAD_PLOTSTYLENAME
350
E
  3
ACAD_SCALELIST
350
47
  3
ACAD_SECTIONVIEWSTYLE
350
9E
  3
ACAD_TABLESTYLE
350
59
  3
ACAD_VISUALSTYLE
350
2A
  3
ACDB_RECOMPOSE_DATA
350
9A
  3
AcDbVariableDictionary
350
96
  0
SUN
  5
5D
330
29
100
AcDbSun
 90
        1
290
     0
 63
     7
421
 16777215
 40
1.0
291
     1
 91
  2455826
 92
 54000000
292
     0
 70
     2
 71
   256
280
     1
  0
DICTIONARY
  5
9D
102
{ACAD_REACTORS
330
C
102
}
330
C
100
AcDbDictionary
281
     1
  0
DICTIONARY
  5
D
102
{ACAD_REACTORS
330
C
102
}
330
C
100
AcDbDictionary
281
     1
  0
DICTIONARY
  5
1A
102
{ACAD_REACTORS
330
C
102
}
330
C
100
AcDbDictionary
281
     1
  3
Layout1
350
1E
  3
Layout2
350
26
  3
Model
350
22
  0
DICTIONARY
  5
43
102
{ACAD_REACTORS
330
C
102
}
330
C
100
AcDbDictionary
281
     1
  3
ByBlock
350
45
  3
ByLayer
350
44
  3
Global
350
46
  0
DICTIONARY
  5
5B
102
{ACAD_REACTORS
330
C
102
}
330
C
100
AcDbDictionary
281
     1
  3
Standard
350
5C
  0
DICTIONARY
  5
17
102
{ACAD_REACTORS
330
C
102
}
330
C
100
AcDbDictionary
281
     1
  3
Standard
350
18
  0
DICTIONARY
  5
19
102
{ACAD_REACTORS
330
C
102
}
330
C
100
AcDbDictionary
281
     1
  0
ACDBDICTIONARYWDFLT
  5
E
102
{ACAD_REACTORS
330
C
102
}
330
C
100
AcDbDictionary
281
     1
  3
Normal
350
F
100
AcDbDictionaryWithDefault
340
F
  0
DICTIONARY
  5
47
102
{ACAD_REACTORS
330
C
102
}
330
C
100
AcDbDictionary
281
     1
  3
A0
350
48
  3
A1
350
49
  3
A2
350
4A
  3
A3
350
4B
  3
A4
350
4C
  3
A5
350
4D
  3
A6
350
4E
  3
A7
350
4F
  3
A8
350
50
  3
A9
350
51
  3
B1
350
52
  3
B2
350
53
  3
B3
350
54
  3
B4
350
55
  3
B5
350
56
  3
B6
350
57
  3
B7
350
58
  0
DICTIONARY
  5
9E
102
{ACAD_REACTORS
330
C
102
}
330
C
100
AcDbDictionary
281
     1
  0
DICTIONARY
  5
59
102
{ACAD_REACTORS
330
C
102
}
330
C
100
AcDbDictionary
281
     1
  3
Standard
350
5A
  0
DICTIONARY
  5
2A
102
{ACAD_REACTORS
330
C
102
}
330
C
100
AcDbDictionary
281
     1
  3
2dWireframe
350
2F
  3
Basic
350
32
  3
Brighten
350
36
  3
ColorChange
350
3A
  3
Conceptual
350
34
  3
Dim
350
35
  3
EdgeColorOff
350
3D
  3
Facepattern
350
39
  3
Flat
350
2B
  3
FlatWithEdges
350
2C
  3
Gouraud
350
2D
  3
GouraudWithEdges
350
2E
  3
Hidden
350
31
  3
JitterOff
350
3B
  3
Linepattern
350
38
  3
OverhangOff
350
3C
  3
Realistic
350
33
  3
Shaded
350
42
  3
Shaded with edges
350
41
  3
Shades of Gray
350
3E
  3
Sketchy
350
3F
  3
Thicken
350
37
  3
Wireframe
350
30
  3
X-Ray
350
40
  0
XRECORD
  5
9A
102
{ACAD_REACTORS
330
C
102
}
330
C
100
AcDbXrecord
280
     1
 90
        1
330
5A
  0
DICTIONARY
  5
96
102
{ACAD_REACTORS
330
C
102
}
330
C
100
AcDbDictionary
281
     1
  3
CANNOSCALE
350
97
  3
CMLEADERSTYLE
350
9C
  3
CTABLESTYLE
350
9B
  0
LAYOUT
  5
1E
102
{ACAD_REACTORS
330
1A
102
}
330
1A
100
AcDbPlotSettings
  1

  2
none_device
  4

  6

 40
0.0
 41
0.0
 42
0.0
 43
0.0
 44
0.0
 45
0.0
 46
0.0
 47
0.0
 48
0.0
 49
0.0
140
0.0
141
0.0
142
1.0
143
1.0
 70
   688
 72
     0
 73
     0
 74
     5
  7

 75
    16
 76
     0
 77
     2
 78
   300
147
1.0
148
0.0
149
0.0
100
AcDbLayout
  1
Layout1
 70
     1
 71
     1
 10
0.0
 20
0.0
 11
12.0
 21
9.0
 12
0.0
 22
0.0
 32
0.0
 14
1.000000000000000E+20
 24
1.000000000000000E+20
 34
1.000000000000000E+20
 15
-1.000000000000000E+20
 25
-1.000000000000000E+20
 35
-1.000000000000000E+20
146
0.0
 13
0.0
 23
0.0
 33
0.0
 16
1.0
 26
0.0
 36
0.0
 17
0.0
 27
1.0
 37
0.0
 76
     0
330
1B
  0
LAYOUT
  5
26
102
{ACAD_REACTORS
330
1A
102
}
330
1A
100
AcDbPlotSettings
  1

  2
none_device
  4

  6

 40
0.0
 41
0.0
 42
0.0
 43
0.0
 44
0.0
 45
0.0
 46
0.0
 47
0.0
 48
0.0
 49
0.0
140
0.0
141
0.0
142
1.0
143
1.0
 70
   688
 72
     0
 73
     0
 74
     5
  7

 75
    16
 76
     0
 77
     2
 78
   300
147
1.0
148
0.0
149
0.0
100
AcDbLayout
  1
Layout2
 70
     1
 71
     2
 10
0.0
 20
0.0
 11
0.0
 21
0.0
 12
0.0
 22
0.0
 32
0.0
 14
0.0
 24
0.0
 34
0.0
 15
0.0
 25
0.0
 35
0.0
146
0.0
 13
0.0
 23
0.0
 33
0.0
 16
1.0
 26
0.0
 36
0.0
 17
0.0
 27
1.0
 37
0.0
 76
     0
330
23
  0
LAYOUT
  5
22
102
{ACAD_REACTORS
330
1A
102
}
330
1A
100
AcDbPlotSettings
  1

  2
none_device
  4
Letter_(8.50_x_11.00_Inches)
  6

 40
6.35
 41
6.35
 42
6.35000508
 43
6.35000508
 44
215.9
 45
279.4
 46
0.0
 47
0.0
 48
0.0
 49
0.0
140
0.0
141
0.0
142
1.0
143
1.0
 70
  1712
 72
     0
 73
     0
 74
     0
  7

 75
     0
 76
     0
 77
     2
 78
   300
147
1.0
148
0.0
149
0.0
100
AcDbLayout
  1
Model
 70
     1
 71
     0
 10
0.0
 20
0.0
 11
12.0
 21
9.0
 12
0.0
 22
0.0
 32
0.0
 14
-44.9832
 24
38.0747
 34
0.0
 15
-1.1876
 25
77.8191
 35
0.0
146
0.0
 13
0.0
 23
0.0
 33
0.0
 16
1.0
 26
0.0
 36
0.0
 17
0.0
 27
1.0
 37
0.0
 76
     0
330
1F
331
29
  0
MATERIAL
  5
45
102
{ACAD_REACTORS
330
43
102
}
330
43
100
AcDbMaterial
  1
ByBlock
 72
     1
 94
      127
  0
MATERIAL
  5
44
102
{ACAD_REACTORS
330
43
102
}
330
43
100
AcDbMaterial
  1
ByLayer
 72
     1
 94
      127
  0
MATERIAL
  5
46
102
{ACAD_REACTORS
330
43
102
}
330
43
100
AcDbMaterial
  1
Global
 72
     1
 94
      127
  0
MLEADERSTYLE
  5
5C
102
{ACAD_REACTORS
330
5B
102
}
330
5B
100
AcDbMLeaderStyle
179
     2
170
     2
171
     1
172
     0
 90
        2
 40
0.0
 41
0.0
173
     1
 91
-1056964608
340
14
 92
       -2
290
     1
 42
0.09
291
     1
 43
0.36
  3
Standard
341
0
 44
0.18
300

342
11
174
     1
178
     6
175
     1
176
     0
 93
-1056964608
 45
0.18
292
     0
297
     0
 46
0.18
343
0
 94
-1056964608
 47
1.0
 49
1.0
140
1.0
293
     1
141
0.0
294
     1
177
     0
142
1.0
295
     0
296
     0
143
0.125
271
     0
272
     9
273
     9
298
     0
  0
MLINESTYLE
  5
18
102
{ACAD_REACTORS
330
17
102
}
330
17
100
AcDbMlineStyle
  2
Standard
 70
     0
  3

 62
   256
 51
90.0
 52
90.0
 71
     2
 49
0.5
 62
   256
  6
BYLAYER
 49
-0.5
 62
   256
  6
BYLAYER
  0
ACDBPLACEHOLDER
  5
F
102
{ACAD_REACTORS
330
E
102
}
330
E
  0
SCALE
  5
48
102
{ACAD_REACTORS
330
47
102
}
330
47
100
AcDbScale
 70
     0
300
1:1
140
1.0
141
1.0
290
     1
  0
SCALE
  5
49
102
{ACAD_REACTORS
330
47
102
}
330
47
100
AcDbScale
 70
     0
300
1/128" = 1'-0"
140
0.0078125
141
12.0
290
     0
  0
SCALE
  5
4A
102
{ACAD_REACTORS
330
47
102
}
330
47
100
AcDbScale
 70
     0
300
1/64" = 1'-0"
140
0.015625
141
12.0
290
     0
  0
SCALE
  5
4B
102
{ACAD_REACTORS
330
47
102
}
330
47
100
AcDbScale
 70
     0
300
1/32" = 1'-0"
140
0.03125
141
12.0
290
     0
  0
SCALE
  5
4C
102
{ACAD_REACTORS
330
47
102
}
330
47
100
AcDbScale
 70
     0
300
1/16" = 1'-0"
140
0.0625
141
12.0
290
     0
  0
SCALE
  5
4D
102
{ACAD_REACTORS
330
47
102
}
330
47
100
AcDbScale
 70
     0
300
3/32" = 1'-0"
140
0.09375
141
12.0
290
     0
  0
SCALE
  5
4E
102
{ACAD_REACTORS
330
47
102
}
330
47
100
AcDbScale
 70
     0
300
1/8" = 1'-0"
140
0.125
141
12.0
290
     0
  0
SCALE
  5
4F
102
{ACAD_REACTORS
330
47
102
}
330
47
100
AcDbScale
 70
     0
300
3/16" = 1'-0"
140
0.1875
141
12.0
290
     0
  0
SCALE
  5
50
102
{ACAD_REACTORS
330
47
102
}
330
47
100
AcDbScale
 70
     0
300
1/4" = 1'-0"
140
0.25
141
12.0
290
     0
  0
SCALE
  5
51
102
{ACAD_REACTORS
330
47
102
}
330
47
100
AcDbScale
 70
     0
300
3/8" = 1'-0"
140
0.375
141
12.0
290
     0
  0
SCALE
  5
52
102
{ACAD_REACTORS
330
47
102
}
330
47
100
AcDbScale
 70
     0
300
1/2" = 1'-0"
140
0.5
141
12.0
290
     0
  0
SCALE
  5
53
102
{ACAD_REACTORS
330
47
102
}
330
47
100
AcDbScale
 70
     0
300
3/4" = 1'-0"
140
0.75
141
12.0
290
     0
  0
SCALE
  5
54
102
{ACAD_REACTORS
330
47
102
}
330
47
100
AcDbScale
 70
     0
300
1" = 1'-0"
140
1.0
141
12.0
290
     0
  0
SCALE
  5
55
102
{ACAD_REACTORS
330
47
102
}
330
47
100
AcDbScale
 70
     0
300
1-1/2" = 1'-0"
140
1.5
141
12.0
290
     0
  0
SCALE
  5
56
102
{ACAD_REACTORS
330
47
102
}
330
47
100
AcDbScale
 70
     0
300
3" = 1'-0"
140
3.0
141
12.0
290
     0
  0
SCALE
  5
57
102
{ACAD_REACTORS
330
47
102
}
330
47
100
AcDbScale
 70
     0
300
6" = 1'-0"
140
6.0
141
12.0
290
     0
  0
SCALE
  5
58
102
{ACAD_REACTORS
330
47
102
}
330
47
100
AcDbScale
 70
     0
300
1'-0" = 1'-0"
140
12.0
141
12.0
290
     0
  0
TABLESTYLE
  5
5A
102
{ACAD_REACTORS
330
59
102
}
102
{ACAD_XDICTIONARY
360
98
102
}
330
59
100
AcDbTableStyle
  3
Standard
 70
     0
 71
     0
 40
0.06
 41
0.06
280
     0
281
     0
  7
Standard
140
0.18
170
     2
 62
     0
 63
   257
283
     0
 90
        4
 91
        0
  1

274
    -2
284
     1
 64
     0
275
    -2
285
     1
 65
     0
276
    -2
286
     1
 66
     0
277
    -2
287
     1
 67
     0
278
    -2
288
     1
 68
     0
279
    -2
289
     1
 69
     0
  7
Standard
140
0.25
170
     5
 62
     0
 63
   257
283
     0
 90
        4
 91
        0
  1

274
    -2
284
     1
 64
     0
275
    -2
285
     1
 65
     0
276
    -2
286
     1
 66
     0
277
    -2
287
     1
 67
     0
278
    -2
288
     1
 68
     0
279
    -2
289
     1
 69
     0
  7
Standard
140
0.18
170
     5
 62
     0
 63
   257
283
     0
 90
        4
 91
        0
  1

274
    -2
284
     1
 64
     0
275
    -2
285
     1
 65
     0
276
    -2
286
     1
 66
     0
277
    -2
287
     1
 67
     0
278
    -2
288
     1
 68
     0
279
    -2
289
     1
 69
     0
  0
VISUALSTYLE
  5
2F
102
{ACAD_REACTORS
330
2A
102
}
330
2A
100
AcDbVisualStyle
  2
2dWireframe
 70
     4
177
     3
291
     0
 70
    58
 90
        0
176
     1
 90
        2
176
     1
 90
        0
176
     1
 90
        0
176
     1
 40
0.6
176
     1
 40
30.0
176
     1
 62
     7
420
 16777215
176
     1
 90
        1
176
     1
 90
        4
176
     1
 62
     7
176
     1
 62
   257
176
     1
 90
        1
176
     1
 90
        1
176
     1
 40
1.0
176
     1
 90
        0
176
     1
 62
   257
176
     1
 40
1.0
176
     1
 90
        1
176
     1
 90
        6
176
     1
 90
        2
176
     1
 62
     7
176
     1
 90
        5
176
     1
 90
        0
176
     1
 90
        0
176
     1
290
     0
176
     1
 90
        1
176
     1
 40
0.0
176
     1
 90
        0
176
     1
290
     1
176
     1
290
     1
176
     1
290
     0
176
     1
290
     0
176
     1
290
     0
176
     1
290
     0
176
     1
290
     0
176
     1
290
     0
176
     1
290
     0
176
     1
 90
       50
176
     1
 40
0.0
176
     1
 40
1.0
176
     1
 90
        0
176
     1
 62
    18
420
        0
176
     1
 90
       50
176
     1
 90
        3
176
     1
 62
     5
420
      255
176
     1
290
     0
176
     1
 90
       50
176
     1
 90
       50
176
     1
 90
       50
176
     1
290
     0
176
     1
 90
       50
176
     1
 62
   256
176
     0
 40
1.0
176
     0
 90
        2
176
     1
  1
strokes_ogs.tif
176
     1
290
     0
176
     1
 40
1.0
176
     1
 40
1.0
176
     1
  0
VISUALSTYLE
  5
32
102
{ACAD_REACTORS
330
2A
102
}
330
2A
100
AcDbVisualStyle
  2
Basic
 70
     7
177
     3
291
     1
 70
    58
 90
        1
176
     1
 90
        0
176
     1
 90
        1
176
     1
 90
        0
176
     1
 40
0.6
176
     1
 40
30.0
176
     1
 62
     7
420
 16777215
176
     1
 90
        0
176
     1
 90
        4
176
     1
 62
     7
176
     1
 62
   257
176
     1
 90
        1
176
     1
 90
        1
176
     1
 40
1.0
176
     1
 90
        8
176
     1
 62
     7
176
     1
 40
1.0
176
     1
 90
        1
176
     1
 90
        6
176
     1
 90
        2
176
     1
 62
     7
176
     1
 90
        5
176
     1
 90
        0
176
     1
 90
        0
176
     1
290
     0
176
     1
 90
        1
176
     1
 40
0.0
176
     1
 90
        0
176
     1
290
     0
176
     1
290
     1
176
     1
290
     1
176
     1
290
     0
176
     1
290
     0
176
     1
290
     0
176
     1
290
     0
176
     1
290
     0
176
     1
290
     0
176
     1
 90
       50
176
     1
 40
0.0
176
     1
 40
1.0
176
     1
 90
        0
176
     1
 62
    18
420
        0
176
     1
 90
       50
176
     1
 90
        3
176
     1
 62
     5
420
      255
176
     1
290
     0
176
     1
 90
       50
176
     1
 90
       50
176
     1
 90
       50
176
     1
290
     0
176
     1
 90
       50
176
     1
 62
   256
176
     0
 40
1.0
176
     0
 90
        2
176
     1
  1
strokes_ogs.tif
176
     1
290
     0
176
     1
 40
1.0
176
     1
 40
1.0
176
     1
  0
VISUALSTYLE
  5
36
102
{ACAD_REACTORS
330
2A
102
}
330
2A
100
AcDbVisualStyle
  2
Brighten
 70
    12
177
     3
291
     1
 70
    58
 90
        2
176
     1
 90
        2
176
     1
 90
        0
176
     1
 90
        0
176
     1
 40
0.6
176
     1
 40
30.0
176
     1
 62
     7
420
 16777215
176
     1
 90
        1
176
     1
 90
        4
176
     1
 62
     7
176
     1
 62
   257
176
     1
 90
        1
176
     1
 90
        1
176
     1
 40
1.0
176
     1
 90
        8
176
     1
 62
     7
176
     1
 40
1.0
176
     1
 90
        1
176
     1
 90
        6
176
     1
 90
        2
176
     1
 62
     7
176
     1
 90
        5
176
     1
 90
        0
176
     1
 90
        0
176
     1
290
     0
176
     1
 90
        1
176
     1
 40
50.0
176
     1
 90
        0
176
     1
290
     0
176
     1
290
     1
176
     1
290
     1
176
     1
290
     0
176
     1
290
     0
176
     1
290
     0
176
     1
290
     0
176
     1
290
     0
176
     1
290
     0
176
     1
 90
       50
176
     1
 40
0.0
176
     1
 40
1.0
176
     1
 90
        0
176
     1
 62
    18
420
        0
176
     1
 90
       50
176
     1
 90
        3
176
     1
 62
     5
420
      255
176
     1
290
     0
176
     1
 90
       50
176
     1
 90
       50
176
     1
 90
       50
176
     1
290
     0
176
     1
 90
       50
176
     1
 62
   256
176
     0
 40
1.0
176
     0
 90
        2
176
     1
  1
strokes_ogs.tif
176
     1
290
     0
176
     1
 40
1.0
176
     1
 40
1.0
176
     1
  0
VISUALSTYLE
  5
3A
102
{ACAD_REACTORS
330
2A
102
}
330
2A
100
AcDbVisualStyle
  2
ColorChange
 70
    16
177
     3
291
     1
 70
    58
 90
        2
176
     1
 90
        2
176
     1
 90
        3
176
     1
 90
        0
176
     1
 40
0.6
176
     1
 40
30.0
176
     1
 62
     8
420
  8421504
176
     1
 90
        1
176
     1
 90
        4
176
     1
 62
     7
176
     1
 62
   257
176
     1
 90
        1
176
     1
 90
        1
176
     1
 40
1.0
176
     1
 90
        8
176
     1
 62
     8
420
  8421504
176
     1
 40
1.0
176
     1
 90
        1
176
     1
 90
        6
176
     1
 90
        2
176
     1
 62
     7
176
     1
 90
        5
176
     1
 90
        0
176
     1
 90
        0
176
     1
290
     0
176
     1
 90
        1
176
     1
 40
0.0
176
     1
 90
        0
176
     1
290
     0
176
     1
290
     1
176
     1
290
     1
176
     1
290
     0
176
     1
290
     0
176
     1
290
     0
176
     1
290
     0
176
     1
290
     0
176
     1
290
     0
176
     1
 90
       50
176
     1
 40
0.0
176
     1
 40
1.0
176
     1
 90
        0
176
     1
 62
    18
420
        0
176
     1
 90
       50
176
     1
 90
        3
176
     1
 62
     5
420
      255
176
     1
290
     0
176
     1
 90
       50
176
     1
 90
       50
176
     1
 90
       50
176
     1
290
     0
176
     1
 90
       50
176
     1
 62
   256
176
     0
 40
1.0
176
     0
 90
        2
176
     1
  1
strokes_ogs.tif
176
     1
290
     0
176
     1
 40
1.0
176
     1
 40
1.0
176
     1
  0
VISUALSTYLE
  5
34
102
{ACAD_REACTORS
330
2A
102
}
330
2A
100
AcDbVisualStyle
  2
Conceptual
 70
     9
177
     3
291
     0
 70
    58
 90
        3
176
     1
 90
        2
176
     1
 90
        0
176
     1
 90
        0
176
     1
 40
0.6
176
     1
 40
30.0
176
     1
 62
     7
420
 16777215
176
     1
 90
        2
176
     1
 90
        2
176
     1
 62
     7
176
     1
 62
   257
176
     1
 90
        1
176
     1
 90
        1
176
     1
 40
179.0
176
     1
 90
        8
176
     1
 62
     7
176
     1
 40
1.0
176
     1
 90
        1
176
     1
 90
        6
176
     1
 90
        2
176
     1
 62
     7
176
     1
 90
        3
176
     1
 90
        0
176
     1
 90
        0
176
     1
290
     0
176
     1
 90
        1
176
     1
 40
0.0
176
     1
 90
        0
176
     1
290
     0
176
     1
290
     1
176
     1
290
     1
176
     1
290
     0
176
     1
290
     0
176
     1
290
     0
176
     1
290
     0
176
     1
290
     0
176
     1
290
     0
176
     1
 90
       50
176
     1
 40
0.0
176
     1
 40
1.0
176
     1
 90
        0
176
     1
 62
    18
420
        0
176
     1
 90
       50
176
     1
 90
        3
176
     1
 62
     5
420
      255
176
     1
290
     0
176
     1
 90
       50
176
     1
 90
       50
176
     1
 90
       50
176
     1
290
     0
176
     1
 90
       50
176
     1
 62
   256
176
     0
 40
1.0
176
     0
 90
        2
176
     1
  1
strokes_ogs.tif
176
     1
290
     0
176
     1
 40
1.0
176
     1
 40
1.0
176
     1
  0
VISUALSTYLE
  5
35
102
{ACAD_REACTORS
330
2A
102
}
330
2A
100
AcDbVisualStyle
  2
Dim
 70
    11
177
     3
291
     1
 70
    58
 90
        2
176
     1
 90
        2
176
     1
 90
        0
176
     1
 90
        0
176
     1
 40
0.6
176
     1
 40
30.0
176
     1
 62
     7
420
 16777215
176
     1
 90
        1
176
     1
 90
        4
176
     1
 62
     7
176
     1
 62
   257
176
     1
 90
        1
176
     1
 90
        1
176
     1
 40
1.0
176
     1
 90
        8
176
     1
 62
     7
176
     1
 40
1.0
176
     1
 90
        1
176
     1
 90
        6
176
     1
 90
        2
176
     1
 62
     7
176
     1
 90
        5
176
     1
 90
        0
176
     1
 90
        0
176
     1
290
     0
176
     1
 90
        1
176
     1
 40
-50.0
176
     1
 90
        0
176
     1
290
     0
176
     1
290
     1
176
     1
290
     1
176
     1
290
     0
176
     1
290
     0
176
     1
290
     0
176
     1
290
     0
176
     1
290
     0
176
     1
290
     0
176
     1
 90
       50
176
     1
 40
0.0
176
     1
 40
1.0
176
     1
 90
        0
176
     1
 62
    18
420
        0
176
     1
 90
       50
176
     1
 90
        3
176
     1
 62
     5
420
      255
176
     1
290
     0
176
     1
 90
       50
176
     1
 90
       50
176
     1
 90
       50
176
     1
290
     0
176
     1
 90
       50
176
     1
 62
   256
176
     0
 40
1.0
176
     0
 90
        2
176
     1
  1
strokes_ogs.tif
176
     1
290
     0
176
     1
 40
1.0
176
     1
 40
1.0
176
     1
  0
VISUALSTYLE
  5
3D
102
{ACAD_REACTORS
330
2A
102
}
330
2A
100
AcDbVisualStyle
  2
EdgeColorOff
 70
    22
177
     3
291
     1
 70
    58
 90
        2
176
     0
 90
        2
176
     0
 90
        0
176
     0
 90
        0
176
     0
 40
0.6
176
     0
 40
30.0
176
     0
 62
     7
420
 16777215
176
     0
 90
        1
176
     0
 90
        4
176
     0
 62
     7
176
     0
 62
   257
176
     0
 90
        1
176
     0
 90
        1
176
     0
 40
1.0
176
     0
 90
        8
176
     2
 62
     7
176
     0
 40
1.0
176
     0
 90
        1
176
     0
 90
        6
176
     0
 90
        2
176
     0
 62
     7
176
     0
 90
        5
176
     0
 90
        0
176
     0
 90
        0
176
     0
290
     0
176
     0
 90
        1
176
     0
 40
0.0
176
     0
 90
        0
176
     0
290
     0
176
     0
290
     1
176
     0
290
     1
176
     0
290
     0
176
     0
290
     0
176
     0
290
     0
176
     0
290
     0
176
     0
290
     0
176
     0
290
     0
176
     0
 90
       50
176
     0
 40
0.0
176
     0
 40
1.0
176
     0
 90
        0
176
     0
 62
    18
420
        0
176
     0
 90
       50
176
     0
 90
        3
176
     0
 62
     5
420
      255
176
     0
290
     0
176
     0
 90
       50
176
     0
 90
       50
176
     0
 90
       50
176
     0
290
     0
176
     0
 90
       50
176
     0
 62
   256
176
     0
 40
1.0
176
     0
 90
        2
176
     0
  1
strokes_ogs.tif
176
     0
290
     0
176
     0
 40
1.0
176
     0
 40
1.0
176
     0
  0
VISUALSTYLE
  5
39
102
{ACAD_REACTORS
330
2A
102
}
330
2A
100
AcDbVisualStyle
  2
Facepattern
 70
    15
177
     3
291
     1
 70
    58
 90
        2
176
     1
 90
        2
176
     1
 90
        0
176
     1
 90
        0
176
     1
 40
0.6
176
     1
 40
30.0
176
     1
 62
     7
420
 16777215
176
     1
 90
        1
176
     1
 90
        4
176
     1
 62
     7
176
     1
 62
   257
176
     1
 90
        1
176
     1
 90
        1
176
     1
 40
1.0
176
     1
 90
        8
176
     1
 62
     7
176
     1
 40
1.0
176
     1
 90
        1
176
     1
 90
        6
176
     1
 90
        2
176
     1
 62
     7
176
     1
 90
        5
176
     1
 90
        0
176
     1
 90
        0
176
     1
290
     0
176
     1
 90
        1
176
     1
 40
0.0
176
     1
 90
        0
176
     1
290
     0
176
     1
290
     1
176
     1
290
     1
176
     1
290
     0
176
     1
290
     0
176
     1
290
     0
176
     1
290
     0
176
     1
290
     0
176
     1
290
     0
176
     1
 90
       50
176
     1
 40
0.0
176
     1
 40
1.0
176
     1
 90
        0
176
     1
 62
    18
420
        0
176
     1
 90
       50
176
     1
 90
        3
176
     1
 62
     5
420
      255
176
     1
290
     0
176
     1
 90
       50
176
     1
 90
       50
176
     1
 90
       50
176
     1
290
     0
176
     1
 90
       50
176
     1
 62
   256
176
     0
 40
1.0
176
     0
 90
        2
176
     1
  1
strokes_ogs.tif
176
     1
290
     0
176
     1
 40
1.0
176
     1
 40
1.0
176
     1
  0
VISUALSTYLE
  5
2B
102
{ACAD_REACTORS
330
2A
102
}
330
2A
100
AcDbVisualStyle
  2
Flat
 70
     0
177
     3
291
     1
 70
    58
 90
        2
176
     1
 90
        1
176
     1
 90
        1
176
     1
 90
        2
176
     1
 40
0.6
176
     1
 40
30.0
176
     1
 62
     7
420
 16777215
176
     1
 90
        0
176
     1
 90
        0
176
     1
 62
     7
176
     1
 62
   257
176
     1
 90
        1
176
     1
 90
        1
176
     1
 40
1.0
176
     1
 90
        8
176
     1
 62
     7
176
     1
 40
1.0
176
     1
 90
        1
176
     1
 90
        6
176
     1
 90
        2
176
     1
 62
     7
176
     1
 90
        5
176
     1
 90
        0
176
     1
 90
        0
176
     1
290
     0
176
     1
 90
       13
176
     1
 40
0.0
176
     1
 90
        0
176
     1
290
     0
176
     1
290
     1
176
     1
290
     1
176
     1
290
     0
176
     1
290
     0
176
     1
290
     0
176
     1
290
     0
176
     1
290
     0
176
     1
290
     0
176
     1
 90
       50
176
     1
 40
0.0
176
     1
 40
1.0
176
     1
 90
        0
176
     1
 62
    18
420
        0
176
     1
 90
       50
176
     1
 90
        3
176
     1
 62
     5
420
      255
176
     1
290
     0
176
     1
 90
       50
176
     1
 90
       50
176
     1
 90
       50
176
     1
290
     0
176
     1
 90
       50
176
     1
 62
   256
176
     0
 40
1.0
176
     0
 90
        2
176
     1
  1
strokes_ogs.tif
176
     1
290
     0
176
     1
 40
1.0
176
     1
 40
1.0
176
     1
  0
VISUALSTYLE
  5
2C
102
{ACAD_REACTORS
330
2A
102
}
330
2A
100
AcDbVisualStyle
  2
FlatWithEdges
 70
     1
177
     3
291
     1
 70
    58
 90
        2
176
     1
 90
        1
176
     1
 90
        1
176
     1
 90
        2
176
     1
 40
0.6
176
     1
 40
30.0
176
     1
 62
     7
420
 16777215
176
     1
 90
        1
176
     1
 90
        0
176
     1
 62
     7
176
     1
 62
   257
176
     1
 90
        1
176
     1
 90
        1
176
     1
 40
1.0
176
     1
 90
        0
176
     1
 62
   257
176
     1
 40
1.0
176
     1
 90
        1
176
     1
 90
        6
176
     1
 90
        2
176
     1
 62
     7
176
     1
 90
        5
176
     1
 90
        0
176
     1
 90
        0
176
     1
290
     0
176
     1
 90
       13
176
     1
 40
0.0
176
     1
 90
        0
176
     1
290
     0
176
     1
290
     1
176
     1
290
     1
176
     1
290
     0
176
     1
290
     0
176
     1
290
     0
176
     1
290
     0
176
     1
290
     0
176
     1
290
     0
176
     1
 90
       50
176
     1
 40
0.0
176
     1
 40
1.0
176
     1
 90
        0
176
     1
 62
    18
420
        0
176
     1
 90
       50
176
     1
 90
        3
176
     1
 62
     5
420
      255
176
     1
290
     0
176
     1
 90
       50
176
     1
 90
       50
176
     1
 90
       50
176
     1
290
     0
176
     1
 90
       50
176
     1
 62
   256
176
     0
 40
1.0
176
     0
 90
        2
176
     1
  1
strokes_ogs.tif
176
     1
290
     0
176
     1
 40
1.0
176
     1
 40
1.0
176
     1
  0
VISUALSTYLE
  5
2D
102
{ACAD_REACTORS
330
2A
102
}
330
2A
100
AcDbVisualStyle
  2
Gouraud
 70
     2
177
     3
291
     1
 70
    58
 90
        2
176
     1
 90
        2
176
     1
 90
        1
176
     1
 90
        2
176
     1
 40
0.6
176
     1
 40
30.0
176
     1
 62
     7
420
 16777215
176
     1
 90
        0
176
     1
 90
        0
176
     1
 62
     7
176
     1
 62
   257
176
     1
 90
        1
176
     1
 90
        1
176
     1
 40
1.0
176
     1
 90
        0
176
     1
 62
     7
176
     1
 40
1.0
176
     1
 90
        1
176
     1
 90
        6
176
     1
 90
        2
176
     1
 62
     7
176
     1
 90
        5
176
     1
 90
        0
176
     1
 90
        0
176
     1
290
     0
176
     1
 90
       13
176
     1
 40
0.0
176
     1
 90
        0
176
     1
290
     0
176
     1
290
     1
176
     1
290
     1
176
     1
290
     0
176
     1
290
     0
176
     1
290
     0
176
     1
290
     0
176
     1
290
     0
176
     1
290
     0
176
     1
 90
       50
176
     1
 40
0.0
176
     1
 40
1.0
176
     1
 90
        0
176
     1
 62
    18
420
        0
176
     1
 90
       50
176
     1
 90
        3
176
     1
 62
     5
420
      255
176
     1
290
     0
176
     1
 90
       50
176
     1
 90
       50
176
     1
 90
       50
176
     1
290
     0
176
     1
 90
       50
176
     1
 62
   256
176
     0
 40
1.0
176
     0
 90
        2
176
     1
  1
strokes_ogs.tif
176
     1
290
     0
176
     1
 40
1.0
176
     1
 40
1.0
176
     1
  0
VISUALSTYLE
  5
2E
102
{ACAD_REACTORS
330
2A
102
}
330
2A
100
AcDbVisualStyle
  2
GouraudWithEdges
 70
     3
177
     3
291
     1
 70
    58
 90
        2
176
     1
 90
        2
176
     1
 90
        1
176
     1
 90
        2
176
     1
 40
0.6
176
     1
 40
30.0
176
     1
 62
     7
420
 16777215
176
     1
 90
        1
176
     1
 90
        0
176
     1
 62
     7
176
     1
 62
   257
176
     1
 90
        1
176
     1
 90
        1
176
     1
 40
1.0
176
     1
 90
        0
176
     1
 62
   257
176
     1
 40
1.0
176
     1
 90
        1
176
     1
 90
        6
176
     1
 90
        2
176
     1
 62
     7
176
     1
 90
        5
176
     1
 90
        0
176
     1
 90
        0
176
     1
290
     0
176
     1
 90
       13
176
     1
 40
0.0
176
     1
 90
        0
176
     1
290
     0
176
     1
290
     1
176
     1
290
     1
176
     1
290
     0
176
     1
290
     0
176
     1
290
     0
176
     1
290
     0
176
     1
290
     0
176
     1
290
     0
176
     1
 90
       50
176
     1
 40
0.0
176
     1
 40
1.0
176
     1
 90
        0
176
     1
 62
    18
420
        0
176
     1
 90
       50
176
     1
 90
        3
176
     1
 62
     5
420
      255
176
     1
290
     0
176
     1
 90
       50
176
     1
 90
       50
176
     1
 90
       50
176
     1
290
     0
176
     1
 90
       50
176
     1
 62
   256
176
     0
 40
1.0
176
     0
 90
        2
176
     1
  1
strokes_ogs.tif
176
     1
290
     0
176
     1
 40
1.0
176
     1
 40
1.0
176
     1
  0
VISUALSTYLE
  5
31
102
{ACAD_REACTORS
330
2A
102
}
330
2A
100
AcDbVisualStyle
  2
Hidden
 70
     6
177
     3
291
     0
 70
    58
 90
        1
176
     1
 90
        2
176
     1
 90
        2
176
     1
 90
        0
176
     1
 40
0.6
176
     1
 40
30.0
176
     1
 62
     7
420
 16777215
176
     1
 90
        2
176
     1
 90
        2
176
     1
 62
     7
176
     1
 62
   257
176
     1
 90
        2
176
     1
 90
        1
176
     1
 40
40.0
176
     1
 90
        0
176
     1
 62
   257
176
     1
 40
1.0
176
     1
 90
        1
176
     1
 90
        6
176
     1
 90
        2
176
     1
 62
     7
176
     1
 90
        3
176
     1
 90
        0
176
     1
 90
        0
176
     1
290
     0
176
     1
 90
        1
176
     1
 40
0.0
176
     1
 90
        0
176
     1
290
     0
176
     1
290
     1
176
     1
290
     1
176
     1
290
     0
176
     1
290
     0
176
     1
290
     0
176
     1
290
     0
176
     1
290
     0
176
     1
290
     0
176
     1
 90
       50
176
     1
 40
0.0
176
     1
 40
1.0
176
     1
 90
        0
176
     1
 62
    18
420
        0
176
     1
 90
       50
176
     1
 90
        3
176
     1
 62
     5
420
      255
176
     1
290
     0
176
     1
 90
       50
176
     1
 90
       50
176
     1
 90
       50
176
     1
290
     0
176
     1
 90
       50
176
     1
 62
   256
176
     0
 40
1.0
176
     0
 90
        2
176
     1
  1
strokes_ogs.tif
176
     1
290
     0
176
     1
 40
1.0
176
     1
 40
1.0
176
     1
  0
VISUALSTYLE
  5
3B
102
{ACAD_REACTORS
330
2A
102
}
330
2A
100
AcDbVisualStyle
  2
JitterOff
 70
    20
177
     3
291
     1
 70
    58
 90
        2
176
     0
 90
        2
176
     0
 90
        0
176
     0
 90
        0
176
     0
 40
0.6
176
     0
 40
30.0
176
     0
 62
     7
420
 16777215
176
     0
 90
        1
176
     0
 90
        4
176
     0
 62
     7
176
     0
 62
   257
176
     0
 90
        1
176
     0
 90
        1
176
     0
 40
1.0
176
     0
 90
       10
176
     2
 62
     7
176
     0
 40
1.0
176
     0
 90
        1
176
     0
 90
        6
176
     0
 90
        2
176
     0
 62
     7
176
     0
 90
        5
176
     0
 90
        0
176
     0
 90
        0
176
     0
290
     0
176
     0
 90
        1
176
     0
 40
0.0
176
     0
 90
        0
176
     0
290
     0
176
     0
290
     1
176
     0
290
     1
176
     0
290
     0
176
     0
290
     0
176
     0
290
     0
176
     0
290
     0
176
     0
290
     0
176
     0
290
     0
176
     0
 90
       50
176
     0
 40
0.0
176
     0
 40
1.0
176
     0
 90
        0
176
     0
 62
    18
420
        0
176
     0
 90
       50
176
     0
 90
        3
176
     0
 62
     5
420
      255
176
     0
290
     0
176
     0
 90
       50
176
     0
 90
       50
176
     0
 90
       50
176
     0
290
     0
176
     0
 90
       50
176
     0
 62
   256
176
     0
 40
1.0
176
     0
 90
        2
176
     0
  1
strokes_ogs.tif
176
     0
290
     0
176
     0
 40
1.0
176
     0
 40
1.0
176
     0
  0
VISUALSTYLE
  5
38
102
{ACAD_REACTORS
330
2A
102
}
330
2A
100
AcDbVisualStyle
  2
Linepattern
 70
    14
177
     3
291
     1
 70
    58
 90
        2
176
     1
 90
        2
176
     1
 90
        0
176
     1
 90
        0
176
     1
 40
0.6
176
     1
 40
30.0
176
     1
 62
     7
420
 16777215
176
     1
 90
        1
176
     1
 90
        4
176
     1
 62
     7
176
     1
 62
   257
176
     1
 90
        7
176
     1
 90
        7
176
     1
 40
1.0
176
     1
 90
        8
176
     1
 62
     7
176
     1
 40
1.0
176
     1
 90
        1
176
     1
 90
        6
176
     1
 90
        2
176
     1
 62
     7
176
     1
 90
        5
176
     1
 90
        0
176
     1
 90
        0
176
     1
290
     0
176
     1
 90
        1
176
     1
 40
0.0
176
     1
 90
        0
176
     1
290
     0
176
     1
290
     1
176
     1
290
     1
176
     1
290
     0
176
     1
290
     0
176
     1
290
     0
176
     1
290
     0
176
     1
290
     0
176
     1
290
     0
176
     1
 90
       50
176
     1
 40
0.0
176
     1
 40
1.0
176
     1
 90
        0
176
     1
 62
    18
420
        0
176
     1
 90
       50
176
     1
 90
        3
176
     1
 62
     5
420
      255
176
     1
290
     0
176
     1
 90
       50
176
     1
 90
       50
176
     1
 90
       50
176
     1
290
     0
176
     1
 90
       50
176
     1
 62
   256
176
     0
 40
1.0
176
     0
 90
        2
176
     1
  1
strokes_ogs.tif
176
     1
290
     0
176
     1
 40
1.0
176
     1
 40
1.0
176
     1
  0
VISUALSTYLE
  5
3C
102
{ACAD_REACTORS
330
2A
102
}
330
2A
100
AcDbVisualStyle
  2
OverhangOff
 70
    21
177
     3
291
     1
 70
    58
 90
        2
176
     0
 90
        2
176
     0
 90
        0
176
     0
 90
        0
176
     0
 40
0.6
176
     0
 40
30.0
176
     0
 62
     7
420
 16777215
176
     0
 90
        1
176
     0
 90
        4
176
     0
 62
     7
176
     0
 62
   257
176
     0
 90
        1
176
     0
 90
        1
176
     0
 40
1.0
176
     0
 90
        9
176
     2
 62
     7
176
     0
 40
1.0
176
     0
 90
        1
176
     0
 90
        6
176
     0
 90
        2
176
     0
 62
     7
176
     0
 90
        5
176
     0
 90
        0
176
     0
 90
        0
176
     0
290
     0
176
     0
 90
        1
176
     0
 40
0.0
176
     0
 90
        0
176
     0
290
     0
176
     0
290
     1
176
     0
290
     1
176
     0
290
     0
176
     0
290
     0
176
     0
290
     0
176
     0
290
     0
176
     0
290
     0
176
     0
290
     0
176
     0
 90
       50
176
     0
 40
0.0
176
     0
 40
1.0
176
     0
 90
        0
176
     0
 62
    18
420
        0
176
     0
 90
       50
176
     0
 90
        3
176
     0
 62
     5
420
      255
176
     0
290
     0
176
     0
 90
       50
176
     0
 90
       50
176
     0
 90
       50
176
     0
290
     0
176
     0
 90
       50
176
     0
 62
   256
176
     0
 40
1.0
176
     0
 90
        2
176
     0
  1
strokes_ogs.tif
176
     0
290
     0
176
     0
 40
1.0
176
     0
 40
1.0
176
     0
  0
VISUALSTYLE
  5
33
102
{ACAD_REACTORS
330
2A
102
}
330
2A
100
AcDbVisualStyle
  2
Realistic
 70
     8
177
     3
291
     0
 70
    58
 90
        2
176
     1
 90
        3
176
     1
 90
        0
176
     1
 90
        2
176
     1
 40
0.6
176
     1
 40
30.0
176
     1
 62
     7
420
 16777215
176
     1
 90
        0
176
     1
 90
        0
176
     1
 62
     7
176
     1
 62
   257
176
     1
 90
        1
176
     1
 90
        1
176
     1
 40
1.0
176
     1
 90
        8
176
     1
 62
   257
176
     1
 40
1.0
176
     1
 90
        1
176
     1
 90
        6
176
     1
 90
        2
176
     1
 62
     7
176
     1
 90
        3
176
     1
 90
        0
176
     1
 90
        0
176
     1
290
     0
176
     1
 90
       13
176
     1
 40
0.0
176
     1
 90
        0
176
     1
290
     0
176
     1
290
     1
176
     1
290
     1
176
     1
290
     0
176
     1
290
     0
176
     1
290
     0
176
     1
290
     0
176
     1
290
     0
176
     1
290
     0
176
     1
 90
       50
176
     1
 40
0.0
176
     1
 40
1.0
176
     1
 90
        0
176
     1
 62
    18
420
        0
176
     1
 90
       50
176
     1
 90
        3
176
     1
 62
     5
420
      255
176
     1
290
     0
176
     1
 90
       50
176
     1
 90
       50
176
     1
 90
       50
176
     1
290
     0
176
     1
 90
       50
176
     1
 62
   256
176
     0
 40
1.0
176
     0
 90
        2
176
     1
  1
strokes_ogs.tif
176
     1
290
     0
176
     1
 40
1.0
176
     1
 40
1.0
176
     1
  0
VISUALSTYLE
  5
42
102
{ACAD_REACTORS
330
2A
102
}
330
2A
100
AcDbVisualStyle
  2
Shaded
 70
    27
177
     3
291
     0
 70
    58
 90
        2
176
     1
 90
        2
176
     1
 90
        1
176
     1
 90
        2
176
     1
 40
0.6
176
     1
 40
30.0
176
     1
 62
     7
420
 16777215
176
     1
 90
        0
176
     1
 90
        4
176
     1
 62
     7
176
     1
 62
   257
176
     1
 90
        1
176
     1
 90
        1
176
     1
 40
1.0
176
     1
 90
        8
176
     1
 62
   257
176
     1
 40
1.0
176
     1
 90
        1
176
     1
 90
        6
176
     1
 90
        2
176
     1
 62
     8
420
  7895160
176
     1
 90
        3
176
     1
 90
        0
176
     1
 90
        0
176
     1
290
     0
176
     1
 90
        5
176
     1
 40
0.0
176
     1
 90
        0
176
     1
290
     0
176
     1
290
     1
176
     1
290
     1
176
     1
290
     0
176
     1
290
     0
176
     1
290
     0
176
     1
290
     0
176
     1
290
     0
176
     1
290
     0
176
     1
 90
       50
176
     1
 40
0.0
176
     1
 40
1.0
176
     1
 90
        0
176
     1
 62
    18
420
        0
176
     1
 90
       50
176
     1
 90
        3
176
     1
 62
     5
420
      255
176
     1
290
     0
176
     1
 90
       50
176
     1
 90
       50
176
     1
 90
       50
176
     1
290
     0
176
     1
 90
       50
176
     1
 62
   256
176
     0
 40
1.0
176
     0
 90
        2
176
     1
  1
strokes_ogs.tif
176
     1
290
     0
176
     1
 40
1.0
176
     1
 40
1.0
176
     1
  0
VISUALSTYLE
  5
41
102
{ACAD_REACTORS
330
2A
102
}
330
2A
100
AcDbVisualStyle
  2
Shaded with edges
 70
    26
177
     3
291
     0
 70
    58
 90
        2
176
     1
 90
        2
176
     1
 90
        1
176
     1
 90
        2
176
     1
 40
0.6
176
     1
 40
30.0
176
     1
 62
     7
420
 16777215
176
     1
 90
        1
176
     1
 90
       10
176
     1
 62
     7
176
     1
 62
   257
176
     1
 90
        2
176
     1
 90
        1
176
     1
 40
1.0
176
     1
 90
        8
176
     1
 62
   257
176
     1
 40
1.0
176
     1
 90
        1
176
     1
 90
        6
176
     1
 90
        2
176
     1
 62
     7
176
     1
 90
        3
176
     1
 90
        0
176
     1
 90
        0
176
     1
290
     0
176
     1
 90
        5
176
     1
 40
0.0
176
     1
 90
        0
176
     1
290
     0
176
     1
290
     1
176
     1
290
     1
176
     1
290
     0
176
     1
290
     0
176
     1
290
     0
176
     1
290
     0
176
     1
290
     0
176
     1
290
     0
176
     1
 90
       50
176
     1
 40
0.0
176
     1
 40
1.0
176
     1
 90
        0
176
     1
 62
    18
420
        0
176
     1
 90
       50
176
     1
 90
        3
176
     1
 62
     5
420
      255
176
     1
290
     0
176
     1
 90
       50
176
     1
 90
       50
176
     1
 90
       50
176
     1
290
     0
176
     1
 90
       50
176
     1
 62
   256
176
     0
 40
1.0
176
     0
 90
        2
176
     1
  1
strokes_ogs.tif
176
     1
290
     0
176
     1
 40
1.0
176
     1
 40
1.0
176
     1
  0
VISUALSTYLE
  5
3E
102
{ACAD_REACTORS
330
2A
102
}
330
2A
100
AcDbVisualStyle
  2
Shades of Gray
 70
    23
177
     3
291
     0
 70
    58
 90
        2
176
     1
 90
        2
176
     1
 90
        3
176
     1
 90
        0
176
     1
 40
0.6
176
     1
 40
30.0
176
     1
 62
     7
420
 16777215
176
     1
 90
        2
176
     1
 90
        2
176
     1
 62
     7
176
     1
 62
     7
176
     1
 90
        1
176
     1
 90
        1
176
     1
 40
40.0
176
     1
 90
        8
176
     1
 62
     7
176
     1
 40
1.0
176
     1
 90
        1
176
     1
 90
        6
176
     1
 90
        2
176
     1
 62
     7
176
     1
 90
        3
176
     1
 90
        0
176
     1
 90
        0
176
     1
290
     0
176
     1
 90
        1
176
     1
 40
0.0
176
     1
 90
        0
176
     1
290
     0
176
     1
290
     1
176
     1
290
     1
176
     1
290
     0
176
     1
290
     0
176
     1
290
     0
176
     1
290
     0
176
     1
290
     0
176
     1
290
     0
176
     1
 90
       50
176
     1
 40
0.0
176
     1
 40
1.0
176
     1
 90
        0
176
     1
 62
    18
420
        0
176
     1
 90
       50
176
     1
 90
        3
176
     1
 62
     5
420
      255
176
     1
290
     0
176
     1
 90
       50
176
     1
 90
       50
176
     1
 90
       50
176
     1
290
     0
176
     1
 90
       50
176
     1
 62
   256
176
     0
 40
1.0
176
     0
 90
        2
176
     1
  1
strokes_ogs.tif
176
     1
290
     0
176
     1
 40
1.0
176
     1
 40
1.0
176
     1
  0
VISUALSTYLE
  5
3F
102
{ACAD_REACTORS
330
2A
102
}
330
2A
100
AcDbVisualStyle
  2
Sketchy
 70
    24
177
     3
291
     0
 70
    58
 90
        1
176
     1
 90
        2
176
     1
 90
        2
176
     1
 90
        0
176
     1
 40
0.6
176
     1
 40
30.0
176
     1
 62
     7
420
 16777215
176
     1
 90
        2
176
     1
 90
        2
176
     1
 62
     7
176
     1
 62
     7
176
     1
 90
        1
176
     1
 90
        1
176
     1
 40
40.0
176
     1
 90
       11
176
     1
 62
     7
176
     1
 40
1.0
176
     1
 90
        1
176
     1
 90
        6
176
     1
 90
        2
176
     1
 62
     7
176
     1
 90
        6
176
     1
 90
        0
176
     1
 90
        0
176
     1
290
     0
176
     1
 90
        1
176
     1
 40
0.0
176
     1
 90
        0
176
     1
290
     0
176
     1
290
     1
176
     1
290
     1
176
     1
290
     0
176
     1
290
     0
176
     1
290
     0
176
     1
290
     0
176
     1
290
     0
176
     1
290
     0
176
     1
 90
       50
176
     1
 40
0.0
176
     1
 40
1.0
176
     1
 90
        0
176
     1
 62
    18
420
        0
176
     1
 90
       50
176
     1
 90
        3
176
     1
 62
     5
420
      255
176
     1
290
     0
176
     1
 90
       50
176
     1
 90
       50
176
     1
 90
       50
176
     1
290
     0
176
     1
 90
       50
176
     1
 62
   256
176
     0
 40
1.0
176
     0
 90
        2
176
     1
  1
strokes_ogs.tif
176
     1
290
     0
176
     1
 40
1.0
176
     1
 40
1.0
176
     1
  0
VISUALSTYLE
  5
37
102
{ACAD_REACTORS
330
2A
102
}
330
2A
100
AcDbVisualStyle
  2
Thicken
 70
    13
177
     3
291
     1
 70
    58
 90
        2
176
     1
 90
        2
176
     1
 90
        0
176
     1
 90
        0
176
     1
 40
0.6
176
     1
 40
30.0
176
     1
 62
     7
420
 16777215
176
     1
 90
        1
176
     1
 90
        4
176
     1
 62
     7
176
     1
 62
   257
176
     1
 90
        1
176
     1
 90
        1
176
     1
 40
1.0
176
     1
 90
       12
176
     1
 62
     7
176
     1
 40
1.0
176
     1
 90
        1
176
     1
 90
        6
176
     1
 90
        2
176
     1
 62
     7
176
     1
 90
        5
176
     1
 90
        0
176
     1
 90
        0
176
     1
290
     0
176
     1
 90
        1
176
     1
 40
0.0
176
     1
 90
        0
176
     1
290
     0
176
     1
290
     1
176
     1
290
     1
176
     1
290
     0
176
     1
290
     0
176
     1
290
     0
176
     1
290
     0
176
     1
290
     0
176
     1
290
     0
176
     1
 90
       50
176
     1
 40
0.0
176
     1
 40
1.0
176
     1
 90
        0
176
     1
 62
    18
420
        0
176
     1
 90
       50
176
     1
 90
        3
176
     1
 62
     5
420
      255
176
     1
290
     0
176
     1
 90
       50
176
     1
 90
       50
176
     1
 90
       50
176
     1
290
     0
176
     1
 90
       50
176
     1
 62
   256
176
     0
 40
1.0
176
     0
 90
        2
176
     1
  1
strokes_ogs.tif
176
     1
290
     0
176
     1
 40
1.0
176
     1
 40
1.0
176
     1
  0
VISUALSTYLE
  5
30
102
{ACAD_REACTORS
330
2A
102
}
330
2A
100
AcDbVisualStyle
  2
Wireframe
 70
     5
177
     3
291
     0
 70
    58
 90
        0
176
     1
 90
        2
176
     1
 90
        0
176
     1
 90
        0
176
     1
 40
0.6
176
     1
 40
30.0
176
     1
 62
     7
420
 16777215
176
     1
 90
        1
176
     1
 90
        4
176
     1
 62
     7
176
     1
 62
   257
176
     1
 90
        1
176
     1
 90
        1
176
     1
 40
1.0
176
     1
 90
        0
176
     1
 62
   257
176
     1
 40
1.0
176
     1
 90
        1
176
     1
 90
        6
176
     1
 90
        2
176
     1
 62
     7
176
     1
 90
        3
176
     1
 90
        0
176
     1
 90
        0
176
     1
290
     0
176
     1
 90
        1
176
     1
 40
0.0
176
     1
 90
        0
176
     1
290
     0
176
     1
290
     1
176
     1
290
     1
176
     1
290
     0
176
     1
290
     0
176
     1
290
     0
176
     1
290
     0
176
     1
290
     0
176
     1
290
     0
176
     1
 90
       50
176
     1
 40
0.0
176
     1
 40
1.0
176
     1
 90
        0
176
     1
 62
    18
420
        0
176
     1
 90
       50
176
     1
 90
        3
176
     1
 62
     5
420
      255
176
     1
290
     0
176
     1
 90
       50
176
     1
 90
       50
176
     1
 90
       50
176
     1
290
     0
176
     1
 90
       50
176
     1
 62
   256
176
     0
 40
1.0
176
     0
 90
        2
176
     1
  1
strokes_ogs.tif
176
     1
290
     0
176
     1
 40
1.0
176
     1
 40
1.0
176
     1
  0
VISUALSTYLE
  5
40
102
{ACAD_REACTORS
330
2A
102
}
330
2A
100
AcDbVisualStyle
  2
X-Ray
 70
    25
177
     3
291
     0
 70
    58
 90
        2
176
     1
 90
        2
176
     1
 90
        1
176
     1
 90
        1
176
     1
 40
0.5
176
     1
 40
30.0
176
     1
 62
     7
420
 16777215
176
     1
 90
        1
176
     1
 90
        0
176
     1
 62
     7
176
     1
 62
   257
176
     1
 90
        1
176
     1
 90
        1
176
     1
 40
1.0
176
     1
 90
        8
176
     1
 62
     7
176
     1
 40
1.0
176
     1
 90
        1
176
     1
 90
        6
176
     1
 90
        2
176
     1
 62
     7
176
     1
 90
        3
176
     1
 90
        0
176
     1
 90
        0
176
     1
290
     0
176
     1
 90
       13
176
     1
 40
0.0
176
     1
 90
        0
176
     1
290
     0
176
     1
290
     1
176
     1
290
     1
176
     1
290
     0
176
     1
290
     0
176
     1
290
     0
176
     1
290
     0
176
     1
290
     0
176
     1
290
     0
176
     1
 90
       50
176
     1
 40
0.0
176
     1
 40
1.0
176
     1
 90
        0
176
     1
 62
    18
420
        0
176
     1
 90
       50
176
     1
 90
        3
176
     1
 62
     5
420
      255
176
     1
290
     0
176
     1
 90
       50
176
     1
 90
       50
176
     1
 90
       50
176
     1
290
     0
176
     1
 90
       50
176
     1
 62
   256
176
     0
 40
1.0
176
     0
 90
        2
176
     1
  1
strokes_ogs.tif
176
     1
290
     0
176
     1
 40
1.0
176
     1
 40
1.0
176
     1
  0
DICTIONARYVAR
  5
97
102
{ACAD_REACTORS
330
96
102
}
330
96
100
DictionaryVariables
280
     0
  1
1:1
  0
DICTIONARYVAR
  5
9C
102
{ACAD_REACTORS
330
96
102
}
330
96
100
DictionaryVariables
280
     0
  1
Standard
  0
DICTIONARYVAR
  5
9B
102
{ACAD_REACTORS
330
96
102
}
330
96
100
DictionaryVariables
280
     0
  1
Standard
  0
DICTIONARY
  5
98
330
5A
100
AcDbDictionary
280
     1
281
     1
  3
ACAD_ROUNDTRIP_2008_TABLESTYLE_CELLSTYLEMAP
360
99
  0
CELLSTYLEMAP
  5
99
102
{ACAD_REACTORS
330
98
102
}
330
98
100
AcDbCellStyleMap
 90
        3
300
CELLSTYLE
  1
TABLEFORMAT_BEGIN
 90
        5
170
     1
 91
        0
 92
    32768
 62
   257
 93
        1
300
CONTENTFORMAT
  1
CONTENTFORMAT_BEGIN
 90
        0
 91
        0
 92
        4
 93
        0
300

 40
0.0
140
1.0
 94
        5
 62
     0
340
11
144
0.25
309
CONTENTFORMAT_END
171
     1
301
MARGIN
  1
CELLMARGIN_BEGIN
 40
0.06
 40
0.06
 40
0.06
 40
0.06
 40
0.06
 40
0.06
309
CELLMARGIN_END
 94
        6
 95
        1
302
GRIDFORMAT
  1
GRIDFORMAT_BEGIN
 90
        0
 91
        1
 62
     0
 92
       -2
340
14
 93
        0
 40
0.045
309
GRIDFORMAT_END
 95
        2
302
GRIDFORMAT
  1
GRIDFORMAT_BEGIN
 90
        0
 91
        1
 62
     0
 92
       -2
340
14
 93
        0
 40
0.045
309
GRIDFORMAT_END
 95
        4
302
GRIDFORMAT
  1
GRIDFORMAT_BEGIN
 90
        0
 91
        1
 62
     0
 92
       -2
340
14
 93
        0
 40
0.045
309
GRIDFORMAT_END
 95
        8
302
GRIDFORMAT
  1
GRIDFORMAT_BEGIN
 90
        0
 91
        1
 62
     0
 92
       -2
340
14
 93
        0
 40
0.045
309
GRIDFORMAT_END
 95
       16
302
GRIDFORMAT
  1
GRIDFORMAT_BEGIN
 90
        0
 91
        1
 62
     0
 92
       -2
340
14
 93
        0
 40
0.045
309
GRIDFORMAT_END
 95
       32
302
GRIDFORMAT
  1
GRIDFORMAT_BEGIN
 90
        0
 91
        1
 62
     0
 92
       -2
340
14
 93
        0
 40
0.045
309
GRIDFORMAT_END
309
TABLEFORMAT_END
  1
CELLSTYLE_BEGIN
 90
        1
 91
        1
300
_TITLE
309
CELLSTYLE_END
300
CELLSTYLE
  1
TABLEFORMAT_BEGIN
 90
        5
170
     1
 91
        0
 92
        0
 62
   257
 93
        1
300
CONTENTFORMAT
  1
CONTENTFORMAT_BEGIN
 90
        0
 91
        0
 92
        4
 93
        0
300

 40
0.0
140
1.0
 94
        5
 62
     0
340
11
144
0.18
309
CONTENTFORMAT_END
171
     1
301
MARGIN
  1
CELLMARGIN_BEGIN
 40
0.06
 40
0.06
 40
0.06
 40
0.06
 40
0.06
 40
0.06
309
CELLMARGIN_END
 94
        6
 95
        1
302
GRIDFORMAT
  1
GRIDFORMAT_BEGIN
 90
        0
 91
        1
 62
     0
 92
       -2
340
14
 93
        0
 40
0.045
309
GRIDFORMAT_END
 95
        2
302
GRIDFORMAT
  1
GRIDFORMAT_BEGIN
 90
        0
 91
        1
 62
     0
 92
       -2
340
14
 93
        0
 40
0.045
309
GRIDFORMAT_END
 95
        4
302
GRIDFORMAT
  1
GRIDFORMAT_BEGIN
 90
        0
 91
        1
 62
     0
 92
       -2
340
14
 93
        0
 40
0.045
309
GRIDFORMAT_END
 95
        8
302
GRIDFORMAT
  1
GRIDFORMAT_BEGIN
 90
        0
 91
        1
 62
     0
 92
       -2
340
14
 93
        0
 40
0.045
309
GRIDFORMAT_END
 95
       16
302
GRIDFORMAT
  1
GRIDFORMAT_BEGIN
 90
        0
 91
        1
 62
     0
 92
       -2
340
14
 93
        0
 40
0.045
309
GRIDFORMAT_END
 95
       32
302
GRIDFORMAT
  1
GRIDFORMAT_BEGIN
 90
        0
 91
        1
 62
     0
 92
       -2
340
14
 93
        0
 40
0.045
309
GRIDFORMAT_END
309
TABLEFORMAT_END
  1
CELLSTYLE_BEGIN
 90
        2
 91
        1
300
_HEADER
309
CELLSTYLE_END
300
CELLSTYLE
  1
TABLEFORMAT_BEGIN
 90
        5
170
     1
 91
        0
 92
        0
 62
   257
 93
        1
300
CONTENTFORMAT
  1
CONTENTFORMAT_BEGIN
 90
        0
 91
        0
 92
        4
 93
        0
300

 40
0.0
140
1.0
 94
        2
 62
     0
340
11
144
0.18
309
CONTENTFORMAT_END
171
     1
301
MARGIN
  1
CELLMARGIN_BEGIN
 40
0.06
 40
0.06
 40
0.06
 40
0.06
 40
0.06
 40
0.06
309
CELLMARGIN_END
 94
        6
 95
        1
302
GRIDFORMAT
  1
GRIDFORMAT_BEGIN
 90
        0
 91
        1
 62
     0
 92
       -2
340
14
 93
        0
 40
0.045
309
GRIDFORMAT_END
 95
        2
302
GRIDFORMAT
  1
GRIDFORMAT_BEGIN
 90
        0
 91
        1
 62
     0
 92
       -2
340
14
 93
        0
 40
0.045
309
GRIDFORMAT_END
 95
        4
302
GRIDFORMAT
  1
GRIDFORMAT_BEGIN
 90
        0
 91
        1
 62
     0
 92
       -2
340
14
 93
        0
 40
0.045
309
GRIDFORMAT_END
 95
        8
302
GRIDFORMAT
  1
GRIDFORMAT_BEGIN
 90
        0
 91
        1
 62
     0
 92
       -2
340
14
 93
        0
 40
0.045
309
GRIDFORMAT_END
 95
       16
302
GRIDFORMAT
  1
GRIDFORMAT_BEGIN
 90
        0
 91
        1
 62
     0
 92
       -2
340
14
 93
        0
 40
0.045
309
GRIDFORMAT_END
 95
       32
302
GRIDFORMAT
  1
GRIDFORMAT_BEGIN
 90
        0
 91
        1
 62
     0
 92
       -2
340
14
 93
        0
 40
0.045
309
GRIDFORMAT_END
309
TABLEFORMAT_END
  1
CELLSTYLE_BEGIN
 90
        3
 91
        2
300
_DATA
309
CELLSTYLE_END
  0
ENDSEC
  0
EOF
