  0
SECTION
  2
HEADER
  9
$ACADVER
  1
AC1032
  9
$ACADMAINTVER
 90
       55
  9
$DWGCODEPAGE
  3
UNDEFINED
  9
$LASTSAVEDBY
  1
Administrator
  9
$REQUIREDVERSIONS
160
                 0
  9
$INSBASE
 10
0.0
 20
0.0
 30
0.0
  9
$EXTMIN
 10
-21.8301
 20
-19.6303
 30
0.0
  9
$EXTMAX
 10
21.9655
 20
19.8972
 30
0.0
  9
$LIMMIN
 10
0.0
 20
0.0
  9
$LIMMAX
 10
12.0
 20
9.0
  9
$ORTHOMODE
 70
     0
  9
$REGENMODE
 70
     1
  9
$FILLMODE
 70
     1
  9
$QTEXTMODE
 70
     0
  9
$MIRRTEXT
 70
     1
  9
$LTSCALE
 40
1.0
  9
$ATTMODE
 70
     1
  9
$TEXTSIZE
 40
0.2
  9
$TRACEWID
 40
0.05
  9
$TEXTSTYLE
  7
Standard
  9
$CLAYER
  8
0
  9
$CELTYPE
  6
ByLayer
  9
$CECOLOR
 62
   256
  9
$CELTSCALE
 40
1.0
  9
$DISPSILH
 70
     0
  9
$DIMSCALE
 40
1.0
  9
$DIMASZ
 40
0.18
  9
$DIMEXO
 40
0.0625
  9
$DIMDLI
 40
0.38
  9
$DIMRND
 40
0.0
  9
$DIMDLE
 40
0.0
  9
$DIMEXE
 40
0.18
  9
$DIMTP
 40
0.0
  9
$DIMTM
 40
0.0
  9
$DIMTXT
 40
0.18
  9
$DIMCEN
 40
0.09
  9
$DIMTSZ
 40
0.0
  9
$DIMTOL
 70
     0
  9
$DIMLIM
 70
     0
  9
$DIMTIH
 70
     1
  9
$DIMTOH
 70
     1
  9
$DIMSE1
 70
     0
  9
$DIMSE2
 70
     0
  9
$DIMTAD
 70
     0
  9
$DIMZIN
 70
     0
  9
$DIMBLK
  1

  9
$DIMASO
 70
     1
  9
$DIMSHO
 70
     1
  9
$DIMPOST
  1

  9
$DIMAPOST
  1

  9
$DIMALT
 70
     0
  9
$DIMALTD
 70
     2
  9
$DIMALTF
 40
25.4
  9
$DIMLFAC
 40
1.0
  9
$DIMTOFL
 70
     0
  9
$DIMTVP
 40
0.0
  9
$DIMTIX
 70
     0
  9
$DIMSOXD
 70
     0
  9
$DIMSAH
 70
     0
  9
$DIMBLK1
  1

  9
$DIMBLK2
  1

  9
$DIMSTYLE
  2
Standard
  9
$DIMCLRD
 70
     0
  9
$DIMCLRE
 70
     0
  9
$DIMCLRT
 70
     0
  9
$DIMTFAC
 40
1.0
  9
$DIMGAP
 40
0.09
  9
$DIMJUST
 70
     0
  9
$DIMSD1
 70
     0
  9
$DIMSD2
 70
     0
  9
$DIMTOLJ
 70
     1
  9
$DIMTZIN
 70
     0
  9
$DIMALTZ
 70
     0
  9
$DIMALTTZ
 70
     0
  9
$DIMUPT
 70
     0
  9
$DIMDEC
 70
     4
  9
$DIMTDEC
 70
     4
  9
$DIMALTU
 70
     2
  9
$DIMALTTD
 70
     2
  9
$DIMTXSTY
  7
Standard
  9
$DIMAUNIT
 70
     0
  9
$DIMADEC
 70
     0
  9
$DIMALTRND
 40
0.0
  9
$DIMAZIN
 70
     0
  9
$DIMDSEP
 70
    46
  9
$DIMATFIT
 70
     3
  9
$DIMFRAC
 70
     0
  9
$DIMLDRBLK
  1

  9
$DIMLUNIT
 70
     2
  9
$DIMLWD
 70
    -2
  9
$DIMLWE
 70
    -2
  9
$DIMTMOVE
 70
     0
  9
$DIMFXL
 40
1.0
  9
$DIMFXLON
 70
     0
  9
$DIMJOGANG
 40
0.7853981633974483
  9
$DIMTFILL
 70
     0
  9
$DIMTFILLCLR
 70
     0
  9
$DIMARCSYM
 70
     0
  9
$DIMLTYPE
  6

  9
$DIMLTEX1
  6

  9
$DIMLTEX2
  6

  9
$DIMTXTDIRECTION
 70
     0
  9
$LUNITS
 70
     2
  9
$LUPREC
 70
     4
  9
$SKETCHINC
 40
0.1
  9
$FILLETRAD
 40
0.0
  9
$AUNITS
 70
     0
  9
$AUPREC
 70
     0
  9
$MENU
  1
.
  9
$ELEVATION
 40
0.0
  9
$PELEVATION
 40
0.0
  9
$THICKNESS
 40
0.0
  9
$LIMCHECK
 70
     0
  9
$CHAMFERA
 40
0.0
  9
$CHAMFERB
 40
0.0
  9
$CHAMFERC
 40
0.0
  9
$CHAMFERD
 40
0.0
  9
$SKPOLY
 70
     0
  9
$TDCREATE
 40
2460355.805484421
  9
$TDUCREATE
 40
2460355.659651088
  9
$TDUPDATE
 40
2460355.805484653
  9
$TDUUPDATE
 40
2460355.659651319
  9
$TDINDWG
 40
0.0000000116
  9
$TDUSRTIMER
 40
0.0000000116
  9
$USRTIMER
 70
     1
  9
$ANGBASE
 50
0.0
  9
$ANGDIR
 70
     0
  9
$PDMODE
 70
     0
  9
$PDSIZE
 40
0.0
  9
$PLINEWID
 40
0.0
  9
$SPLFRAME
 70
     0
  9
$SPLINETYPE
 70
     6
  9
$SPLINESEGS
 70
     8
  9
$HANDSEED
  5
9F
  9
$SURFTAB1
 70
     6
  9
$SURFTAB2
 70
     6
  9
$SURFTYPE
 70
     6
  9
$SURFU
 70
     6
  9
$SURFV
 70
     6
  9
$UCSBASE
  2

  9
$UCSNAME
  2

  9
$UCSORG
 10
0.0
 20
0.0
 30
0.0
  9
$UCSXDIR
 10
1.0
 20
0.0
 30
0.0
  9
$UCSYDIR
 10
0.0
 20
1.0
 30
0.0
  9
$UCSORTHOREF
  2

  9
$UCSORTHOVIEW
 70
     0
  9
$UCSORGTOP
 10
0.0
 20
0.0
 30
0.0
  9
$UCSORGBOTTOM
 10
0.0
 20
0.0
 30
0.0
  9
$UCSORGLEFT
 10
0.0
 20
0.0
 30
0.0
  9
$UCSORGRIGHT
 10
0.0
 20
0.0
 30
0.0
  9
$UCSORGFRONT
 10
0.0
 20
0.0
 30
0.0
  9
$UCSORGBACK
 10
0.0
 20
0.0
 30
0.0
  9
$PUCSBASE
  2

  9
$PUCSNAME
  2

  9
$PUCSORG
 10
0.0
 20
0.0
 30
0.0
  9
$PUCSXDIR
 10
1.0
 20
0.0
 30
0.0
  9
$PUCSYDIR
 10
0.0
 20
1.0
 30
0.0
  9
$PUCSORTHOREF
  2

  9
$PUCSORTHOVIEW
 70
     0
  9
$PUCSORGTOP
 10
0.0
 20
0.0
 30
0.0
  9
$PUCSORGBOTTOM
 10
0.0
 20
0.0
 30
0.0
  9
$PUCSORGLEFT
 10
0.0
 20
0.0
 30
0.0
  9
$PUCSORGRIGHT
 10
0.0
 20
0.0
 30
0.0
  9
$PUCSORGFRONT
 10
0.0
 20
0.0
 30
0.0
  9
$PUCSORGBACK
 10
0.0
 20
0.0
 30
0.0
  9
$USERI1
 70
     0
  9
$USERI2
 70
     0
  9
$USERI3
 70
     0
  9
$USERI4
 70
     0
  9
$USERI5
 70
     0
  9
$USERR1
 40
0.0
  9
$USERR2
 40
0.0
  9
$USERR3
 40
0.0
  9
$USERR4
 40
0.0
  9
$USERR5
 40
0.0
  9
$WORLDVIEW
 70
     1
  9
$SHADEDGE
 70
     3
  9
$SHADEDIF
 70
    70
  9
$TILEMODE
 70
     1
  9
$MAXACTVP
 70
    64
  9
$PINSBASE
 10
0.0
 20
0.0
 30
0.0
  9
$PLIMCHECK
 70
     0
  9
$PEXTMIN
 10
1.000000000000000E+20
 20
1.000000000000000E+20
 30
1.000000000000000E+20
  9
$PEXTMAX
 10
-1.000000000000000E+20
 20
-1.000000000000000E+20
 30
-1.000000000000000E+20
  9
$PLIMMIN
 10
0.0
 20
0.0
  9
$PLIMMAX
 10
12.0
 20
9.0
  9
$UNITMODE
 70
     0
  9
$VISRETAIN
 70
     1
  9
$PLINEGEN
 70
     0
  9
$PSLTSCALE
 70
     1
  9
$TREEDEPTH
 70
  3020
  9
$CMLSTYLE
  2
Standard
  9
$CMLJUST
 70
     0
  9
$CMLSCALE
 40
1.0
  9
$PROXYGRAPHICS
 70
     1
  9
$MEASUREMENT
 70
     0
  9
$CELWEIGHT
370
    -1
  9
$ENDCAPS
280
     0
  9
$JOINSTYLE
280
     0
  9
$LWDISPLAY
290
     0
  9
$INSUNITS
 70
     4
  9
$HYPERLINKBASE
  1

  9
$STYLESHEET
  1

  9
$XEDIT
290
     1
  9
$CEPSNTYPE
380
     0
  9
$PSTYLEMODE
290
     1
  9
$FINGERPRINTGUID
  2
{16dab0c6-0a4d-4084-b2ce-601dfe79a4f6}
  9
$VERSIONGUID
  2
{FAEB1C32-E019-11D5-929B-00C0DF256EC4}
  9
$EXTNAMES
290
     1
  9
$PSVPSCALE
 40
0.0
  9
$OLESTARTUP
290
     0
  9
$SORTENTS
280
   127
  9
$INDEXCTL
280
     0
  9
$HIDETEXT
280
     1
  9
$XCLIPFRAME
280
     2
  9
$HALOGAP
280
     0
  9
$OBSCOLOR
 70
   257
  9
$OBSLTYPE
280
     0
  9
$INTERSECTIONDISPLAY
280
     0
  9
$INTERSECTIONCOLOR
 70
   257
  9
$DIMASSOC
280
     2
  9
$PROJECTNAME
  1

  9
$CAMERADISPLAY
290
     0
  9
$LENSLENGTH
 40
50.0
  9
$CAMERAHEIGHT
 40
0.0
  9
$STEPSPERSEC
 40
2.0
  9
$STEPSIZE
 40
6.0
  9
$3DDWFPREC
 40
2.0
  9
$PSOLWIDTH
 40
0.25
  9
$PSOLHEIGHT
 40
4.0
  9
$LOFTANG1
 40
1.570796326794897
  9
$LOFTANG2
 40
1.570796326794897
  9
$LOFTMAG1
 40
0.0
  9
$LOFTMAG2
 40
0.0
  9
$LOFTPARAM
 70
     7
  9
$LOFTNORMALS
280
     1
  9
$LATITUDE
 40
37.795
  9
$LONGITUDE
 40
-122.394
  9
$NORTHDIRECTION
 40
0.0
  9
$TIMEZONE
 70
 -8000
  9
$LIGHTGLYPHDISPLAY
280
     1
  9
$TILEMODELIGHTSYNCH
280
     1
  9
$CMATERIAL
347
44
  9
$SOLIDHIST
280
     0
  9
$SHOWHIST
280
     1
  9
$DWFFRAME
280
     2
  9
$DGNFRAME
280
     2
  9
$REALWORLDSCALE
290
     1
  9
$INTERFERECOLOR
 62
   256
  9
$CSHADOW
280
     0
  9
$SHADOWPLANELOCATION
 40
0.0
  0
ENDSEC
  0
SECTION
  2
CLASSES
  0
CLASS
  1
ACDBDICTIONARYWDFLT
  2
AcDbDictionaryWithDefault
  3
ObjectDBX Classes
 90
        0
 91
        3
280
     0
281
     0
  0
CLASS
  1
VISUALSTYLE
  2
AcDbVisualStyle
  3
ObjectDBX Classes
 90
     4095
 91
        3
280
     0
281
     0
  0
CLASS
  1
MATERIAL
  2
AcDbMaterial
  3
ObjectDBX Classes
 90
     1153
 91
        3
280
     0
281
     0
  0
CLASS
  1
SCALE
  2
AcDbScale
  3
ObjectDBX Classes
 90
     1153
 91
        3
280
     0
281
     0
  0
CLASS
  1
TABLESTYLE
  2
AcDbTableStyle
  3
ObjectDBX Classes
 90
     4095
 91
        3
280
     0
281
     0
  0
CLASS
  1
MLEADERSTYLE
  2
AcDbMLeaderStyle
  3
ACDB_MLEADERSTYLE_CLASS
 90
     4095
 91
        3
280
     0
281
     0
  0
CLASS
  1
SUN
  2
AcDbSun
  3
SCENEOE
 90
     1153
 91
        3
280
     0
281
     0
  0
CLASS
  1
DICTIONARYVAR
  2
AcDbDictionaryVar
  3
ObjectDBX Classes
 90
        0
 91
        3
280
     0
281
     0
  0
CLASS
  1
CELLSTYLEMAP
  2
AcDbCellStyleMap
  3
ObjectDBX Classes
 90
     1152
 91
        3
280
     0
281
     0
  0
ENDSEC
  0
SECTION
  2
TABLES
  0
TABLE
  2
VPORT
  5
8
330
0
100
AcDbSymbolTable
 70
     1
  0
VPORT
  5
29
330
8
100
AcDbSymbolTableRecord
100
AcDbViewportTableRecord
  2
*Active
 70
     0
 10
0.0
 20
0.0
 11
1.0
 21
1.0
 12
10.42990654205607
 22
4.5
 13
0.0
 23
0.0
 14
0.5
 24
0.5
 15
0.5
 25
0.5
 16
0.0
 26
0.0
 36
1.0
 17
0.0
 27
0.0
 37
0.0
 40
9.0
 41
1.972972972850329
 42
50.0
 43
0.0
 44
0.0
 50
0.0
 51
0.0
 71
     0
 72
   100
 73
     1
 74
     3
 75
     0
 76
     0
 77
     0
 78
     0
281
     0
 65
     1
110
0.0
120
0.0
130
0.0
111
1.0
121
0.0
131
0.0
112
0.0
122
1.0
132
0.0
 79
     0
146
0.0
348
2F
 60
     3
 61
     5
292
     1
282
     1
141
0.0
142
0.0
 63
   250
361
5D
  0
ENDTAB
  0
TABLE
  2
LTYPE
  5
5
330
0
100
AcDbSymbolTable
 70
     1
  0
LTYPE
  5
14
330
5
100
AcDbSymbolTableRecord
100
AcDbLinetypeTableRecord
  2
ByBlock
 70
     0
  3

 72
    65
 73
     0
 40
0.0
  0
LTYPE
  5
15
330
5
100
AcDbSymbolTableRecord
100
AcDbLinetypeTableRecord
  2
ByLayer
 70
     0
  3

 72
    65
 73
     0
 40
0.0
  0
LTYPE
  5
16
330
5
100
AcDbSymbolTableRecord
100
AcDbLinetypeTableRecord
  2
Continuous
 70
     0
  3
Solid line
 72
    65
 73
     0
 40
0.0
  0
ENDTAB
  0
TABLE
  2
LAYER
  5
2
330
0
100
AcDbSymbolTable
 70
     2
  0
LAYER
  5
10
330
2
100
AcDbSymbolTableRecord
100
AcDbLayerTableRecord
  2
0
 70
     0
 62
     7
  6
Continuous
370
    -3
390
F
347
46
348
0
  0
LAYER
  5
5F
330
2
100
AcDbSymbolTableRecord
100
AcDbLayerTableRecord
  2
Layer 1
 70
     0
 62
     7
  6
Continuous
370
    -3
390
F
347
46
348
0
  0
ENDTAB
  0
TABLE
  2
STYLE
  5
3
330
0
100
AcDbSymbolTable
 70
     1
  0
STYLE
  5
11
330
3
100
AcDbSymbolTableRecord
100
AcDbTextStyleTableRecord
  2
Standard
 70
     0
 40
0.0
 41
1.0
 50
0.0
 71
     0
 42
0.2
  3
txt
  4

  0
ENDTAB
  0
TABLE
  2
VIEW
  5
6
330
0
100
AcDbSymbolTable
 70
     0
  0
ENDTAB
  0
TABLE
  2
UCS
  5
7
330
0
100
AcDbSymbolTable
 70
     0
  0
ENDTAB
  0
TABLE
  2
APPID
  5
9
330
0
100
AcDbSymbolTable
 70
     2
  0
APPID
  5
12
330
9
100
AcDbSymbolTableRecord
100
AcDbRegAppTableRecord
  2
ACAD
 70
     0
  0
APPID
  5
5E
330
9
100
AcDbSymbolTableRecord
100
AcDbRegAppTableRecord
  2
ODA
 70
     0
  0
ENDTAB
  0
TABLE
  2
DIMSTYLE
  5
A
330
0
100
AcDbSymbolTable
 70
     1
100
AcDbDimStyleTable
  0
DIMSTYLE
105
27
330
A
100
AcDbSymbolTableRecord
100
AcDbDimStyleTableRecord
  2
Standard
 70
     0
178
     0
340
11
  0
ENDTAB
  0
TABLE
  2
BLOCK_RECORD
  5
1
330
0
100
AcDbSymbolTable
 70
     1
  0
BLOCK_RECORD
  5
1F
330
1
100
AcDbSymbolTableRecord
100
AcDbBlockTableRecord
  2
*Model_Space
340
22
 70
     0
280
     1
281
     0
  0
BLOCK_RECORD
  5
1B
330
1
100
AcDbSymbolTableRecord
100
AcDbBlockTableRecord
  2
*Paper_Space
340
1E
 70
     0
280
     1
281
     0
  0
BLOCK_RECORD
  5
23
330
1
100
AcDbSymbolTableRecord
100
AcDbBlockTableRecord
  2
*Paper_Space0
340
26
 70
     0
280
     1
281
     0
  0
ENDTAB
  0
ENDSEC
  0
SECTION
  2
BLOCKS
  0
BLOCK
  5
20
330
1F
100
AcDbEntity
  8
0
100
AcDbBlockBegin
  2
*Model_Space
 70
     0
 10
0.0
 20
0.0
 30
0.0
  3
*Model_Space
  1

  0
ENDBLK
  5
21
330
1F
100
AcDbEntity
  8
0
100
AcDbBlockEnd
  0
BLOCK
  5
1C
330
1B
100
AcDbEntity
 67
     1
  8
0
100
AcDbBlockBegin
  2
*Paper_Space
 70
     0
 10
0.0
 20
0.0
 30
0.0
  3
*Paper_Space
  1

  0
ENDBLK
  5
1D
330
1B
100
AcDbEntity
 67
     1
  8
0
100
AcDbBlockEnd
  0
BLOCK
  5
24
330
23
100
AcDbEntity
  8
0
100
AcDbBlockBegin
  2
*Paper_Space0
 70
     0
 10
0.0
 20
0.0
 30
0.0
  3
*Paper_Space0
  1

  0
ENDBLK
  5
25
330
23
100
AcDbEntity
  8
0
100
AcDbBlockEnd
  0
ENDSEC
  0
SECTION
  2
ENTITIES
  0
SPLINE
  5
60
330
1F
100
AcDbEntity
  8
Layer 1
 62
   250
100
AcDbSpline
210
0.0
220
0.0
230
1.0
 70
    11
 71
     3
 72
    50
 73
    46
 74
     0
 42
0.0000000001
 43
0.0000000001
 40
0.0
 40
0.0
 40
0.0
 40
0.0
 40
0.0666666666666667
 40
0.0666666666666667
 40
0.0666666666666667
 40
0.1333333333333333
 40
0.1333333333333333
 40
0.1333333333333333
 40
0.2
 40
0.2
 40
0.2
 40
0.2666666666666667
 40
0.2666666666666667
 40
0.2666666666666667
 40
0.3333333333333333
 40
0.3333333333333333
 40
0.3333333333333333
 40
0.4
 40
0.4
 40
0.4
 40
0.4666666666666667
 40
0.4666666666666667
 40
0.4666666666666667
 40
0.5333333333333333
 40
0.5333333333333333
 40
0.5333333333333333
 40
0.6
 40
0.6
 40
0.6
 40
0.6666666666666666
 40
0.6666666666666666
 40
0.6666666666666666
 40
0.7333333333333333
 40
0.7333333333333333
 40
0.7333333333333333
 40
0.8
 40
0.8
 40
0.8
 40
0.8666666666666667
 40
0.8666666666666667
 40
0.8666666666666667
 40
0.9333333333333333
 40
0.9333333333333333
 40
0.9333333333333333
 40
1.0
 40
1.0
 40
1.0
 40
1.0
 10
-17.5885
 20
16.4606
 30
0.0
 10
-17.5885
 20
16.4606
 30
0.0
 10
-11.3593
 20
19.8972
 30
0.0
 10
-11.3593
 20
19.8972
 30
0.0
 10
-11.3593
 20
19.8972
 30
0.0
 10
-4.8072
 20
19.4209
 30
0.0
 10
-4.8072
 20
19.4209
 30
0.0
 10
-4.8072
 20
19.4209
 30
0.0
 10
-7.1554
 20
9.9408
 30
0.0
 10
-7.1554
 20
9.9408
 30
0.0
 10
-2.4999
 20
11.8213
 30
0.0
 10
1.3343
 20
11.4622
 30
0.0
 10
1.3343
 20
11.4622
 30
0.0
 10
16.3062
 20
10.9369
 30
0.0
 10
20.8239
 20
-3.6674
 30
0.0
 10
20.8239
 20
-3.6674
 30
0.0
 10
20.8239
 20
-3.6674
 30
0.0
 10
17.6718
 20
-3.6674
 30
0.0
 10
17.6718
 20
-3.6674
 30
0.0
 10
15.3124
 20
2.6608
 30
0.0
 10
11.1048
 20
5.7864
 30
0.0
 10
7.5509
 20
7.3298
 30
0.0
 10
4.0221
 20
8.8626
 30
0.0
 10
0.0795
 20
9.0164
 30
0.0
 10
-3.6205
 20
7.963
 30
0.0
 10
-13.9826
 20
5.0138
 30
0.0
 10
-16.4743
 20
-3.6674
 30
0.0
 10
-16.4743
 20
-3.6674
 30
0.0
 10
-16.4743
 20
-3.6674
 30
0.0
 10
-20.0465
 20
-3.6674
 30
0.0
 10
-20.0465
 20
-3.6674
 30
0.0
 10
-17.7249
 20
1.9403
 30
0.0
 10
-14.5107
 20
5.4825
 30
0.0
 10
-11.2794
 20
7.7169
 30
0.0
 10
-11.2794
 20
7.7169
 30
0.0
 10
-20.8279
 20
10.1674
 30
0.0
 10
-20.8279
 20
10.1674
 30
0.0
 10
-20.415
 20
11.5712
 30
0.0
 10
-20.0032
 20
12.9753
 30
0.0
 10
-19.5889
 20
14.3787
 30
0.0
 10
-19.5889
 20
14.3787
 30
0.0
 10
-17.66
 20
16.4211
 30
0.0
 10
-17.66
 20
16.4211
 30
0.0
 10
-17.66
 20
16.4211
 30
0.0
 10
-17.5885
 20
16.4606
 30
0.0
 10
-17.5885
 20
16.4606
 30
0.0
  0
SPLINE
  5
61
330
1F
100
AcDbEntity
  8
Layer 1
 62
   250
100
AcDbSpline
210
0.0
220
0.0
230
1.0
 70
    11
 71
     3
 72
    41
 73
    37
 74
     0
 42
0.0000000001
 43
0.0000000001
 40
0.0
 40
0.0
 40
0.0
 40
0.0
 40
0.0833333333333333
 40
0.0833333333333333
 40
0.0833333333333333
 40
0.1666666666666667
 40
0.1666666666666667
 40
0.1666666666666667
 40
0.25
 40
0.25
 40
0.25
 40
0.3333333333333333
 40
0.3333333333333333
 40
0.3333333333333333
 40
0.4166666666666666
 40
0.4166666666666666
 40
0.4166666666666666
 40
0.5
 40
0.5
 40
0.5
 40
0.5833333333333333
 40
0.5833333333333333
 40
0.5833333333333333
 40
0.6666666666666666
 40
0.6666666666666666
 40
0.6666666666666666
 40
0.75
 40
0.75
 40
0.75
 40
0.8333333333333333
 40
0.8333333333333333
 40
0.8333333333333333
 40
0.9166666666666666
 40
0.9166666666666666
 40
0.9166666666666666
 40
1.0
 40
1.0
 40
1.0
 40
1.0
 10
11.6957
 20
-3.3611
 30
0.0
 10
11.6957
 20
-3.3611
 30
0.0
 10
11.6957
 20
-3.1322
 30
0.0
 10
11.6957
 20
-3.1322
 30
0.0
 10
12.3286
 20
-3.0584
 30
0.0
 10
12.3907
 20
-3.0256
 30
0.0
 10
12.3907
 20
-2.3306
 30
0.0
 10
12.3907
 20
-2.3306
 30
0.0
 10
12.3907
 20
0.9149
 30
0.0
 10
12.3907
 20
0.9149
 30
0.0
 10
12.3907
 20
1.618
 30
0.0
 10
12.3286
 20
1.6508
 30
0.0
 10
11.6957
 20
1.7245
 30
0.0
 10
11.6957
 20
1.7245
 30
0.0
 10
11.6957
 20
1.9535
 30
0.0
 10
11.6957
 20
1.9535
 30
0.0
 10
11.6957
 20
1.9535
 30
0.0
 10
13.7644
 20
1.9535
 30
0.0
 10
13.7644
 20
1.9535
 30
0.0
 10
13.7644
 20
1.9535
 30
0.0
 10
13.7644
 20
1.7245
 30
0.0
 10
13.7644
 20
1.7245
 30
0.0
 10
13.1238
 20
1.6508
 30
0.0
 10
13.0624
 20
1.618
 30
0.0
 10
13.0624
 20
0.9149
 30
0.0
 10
13.0624
 20
0.9149
 30
0.0
 10
13.0624
 20
-2.3306
 30
0.0
 10
13.0624
 20
-2.3306
 30
0.0
 10
13.0624
 20
-3.0341
 30
0.0
 10
13.1238
 20
-3.0584
 30
0.0
 10
13.7644
 20
-3.1322
 30
0.0
 10
13.7644
 20
-3.1322
 30
0.0
 10
13.7644
 20
-3.3611
 30
0.0
 10
13.7644
 20
-3.3611
 30
0.0
 10
13.7644
 20
-3.3611
 30
0.0
 10
11.6957
 20
-3.3611
 30
0.0
 10
11.6957
 20
-3.3611
 30
0.0
  0
SPLINE
  5
62
330
1F
100
AcDbEntity
  8
Layer 1
 62
   250
100
AcDbSpline
210
0.0
220
0.0
230
1.0
 70
    11
 71
     3
 72
    26
 73
    22
 74
     0
 42
0.0000000001
 43
0.0000000001
 40
0.0
 40
0.0
 40
0.0
 40
0.0
 40
0.1428571428571428
 40
0.1428571428571428
 40
0.1428571428571428
 40
0.2857142857142857
 40
0.2857142857142857
 40
0.2857142857142857
 40
0.4285714285714285
 40
0.4285714285714285
 40
0.4285714285714285
 40
0.5714285714285714
 40
0.5714285714285714
 40
0.5714285714285714
 40
0.7142857142857142
 40
0.7142857142857142
 40
0.7142857142857142
 40
0.8571428571428571
 40
0.8571428571428571
 40
0.8571428571428571
 40
1.0
 40
1.0
 40
1.0
 40
1.0
 10
7.2547
 20
-2.2738
 30
0.0
 10
7.2547
 20
-2.8866
 30
0.0
 10
7.5016
 20
-3.0584
 30
0.0
 10
8.0809
 20
-3.0584
 30
0.0
 10
9.4701
 20
-3.0584
 30
0.0
 10
10.1806
 20
-2.053
 30
0.0
 10
10.1806
 20
-0.6218
 30
0.0
 10
10.1806
 20
0.269
 30
0.0
 10
9.8949
 20
0.9478
 30
0.0
 10
9.2853
 20
1.3404
 30
0.0
 10
8.93
 20
1.5775
 30
0.0
 10
8.482
 20
1.6671
 30
0.0
 10
7.9652
 20
1.6671
 30
0.0
 10
7.6173
 20
1.6671
 30
0.0
 10
7.4325
 20
1.618
 30
0.0
 10
7.3545
 20
1.5528
 30
0.0
 10
7.2854
 20
1.5037
 30
0.0
 10
7.2547
 20
1.4138
 30
0.0
 10
7.2547
 20
1.0949
 30
0.0
 10
7.2547
 20
1.0949
 30
0.0
 10
7.2547
 20
-2.2738
 30
0.0
 10
7.2547
 20
-2.2738
 30
0.0
  0
SPLINE
  5
63
330
1F
100
AcDbEntity
  8
Layer 1
 62
   250
100
AcDbSpline
210
0.0
220
0.0
230
1.0
 70
    11
 71
     3
 72
    38
 73
    34
 74
     0
 42
0.0000000001
 43
0.0000000001
 40
0.0
 40
0.0
 40
0.0
 40
0.0
 40
0.0909090909090909
 40
0.0909090909090909
 40
0.0909090909090909
 40
0.1818181818181818
 40
0.1818181818181818
 40
0.1818181818181818
 40
0.2727272727272727
 40
0.2727272727272727
 40
0.2727272727272727
 40
0.3636363636363636
 40
0.3636363636363636
 40
0.3636363636363636
 40
0.4545454545454546
 40
0.4545454545454546
 40
0.4545454545454546
 40
0.5454545454545454
 40
0.5454545454545454
 40
0.5454545454545454
 40
0.6363636363636364
 40
0.6363636363636364
 40
0.6363636363636364
 40
0.7272727272727273
 40
0.7272727272727273
 40
0.7272727272727273
 40
0.8181818181818182
 40
0.8181818181818182
 40
0.8181818181818182
 40
0.9090909090909092
 40
0.9090909090909092
 40
0.9090909090909092
 40
1.0
 40
1.0
 40
1.0
 40
1.0
 10
8.0347
 20
1.9535
 30
0.0
 10
9.1233
 20
1.9535
 30
0.0
 10
9.8102
 20
1.7246
 30
0.0
 10
10.2893
 20
1.242
 30
0.0
 10
10.6671
 20
0.8497
 30
0.0
 10
10.9451
 20
0.2775
 30
0.0
 10
10.9451
 20
-0.5075
 30
0.0
 10
10.9451
 20
-1.4642
 30
0.0
 10
10.5747
 20
-2.241
 30
0.0
 10
9.9802
 20
-2.7148
 30
0.0
 10
9.3932
 20
-3.1812
 30
0.0
 10
8.6443
 20
-3.3611
 30
0.0
 10
7.6946
 20
-3.3611
 30
0.0
 10
7.6946
 20
-3.3611
 30
0.0
 10
5.888
 20
-3.3611
 30
0.0
 10
5.888
 20
-3.3611
 30
0.0
 10
5.888
 20
-3.3611
 30
0.0
 10
5.888
 20
-3.1321
 30
0.0
 10
5.888
 20
-3.1321
 30
0.0
 10
6.5523
 20
-3.0669
 30
0.0
 10
6.5833
 20
-3.0097
 30
0.0
 10
6.5833
 20
-2.3394
 30
0.0
 10
6.5833
 20
-2.3394
 30
0.0
 10
6.5833
 20
0.9234
 30
0.0
 10
6.5833
 20
0.9234
 30
0.0
 10
6.5833
 20
1.6265
 30
0.0
 10
6.4902
 20
1.659
 30
0.0
 10
5.888
 20
1.7246
 30
0.0
 10
5.888
 20
1.7246
 30
0.0
 10
5.888
 20
1.9535
 30
0.0
 10
5.888
 20
1.9535
 30
0.0
 10
5.888
 20
1.9535
 30
0.0
 10
8.0347
 20
1.9535
 30
0.0
 10
8.0347
 20
1.9535
 30
0.0
  0
SPLINE
  5
64
330
1F
100
AcDbEntity
  8
Layer 1
 62
   250
100
AcDbSpline
210
0.0
220
0.0
230
1.0
 70
    11
 71
     3
 72
    89
 73
    85
 74
     0
 42
0.0000000001
 43
0.0000000001
 40
0.0
 40
0.0
 40
0.0
 40
0.0
 40
0.0357142857142857
 40
0.0357142857142857
 40
0.0357142857142857
 40
0.0714285714285714
 40
0.0714285714285714
 40
0.0714285714285714
 40
0.1071428571428571
 40
0.1071428571428571
 40
0.1071428571428571
 40
0.1428571428571428
 40
0.1428571428571428
 40
0.1428571428571428
 40
0.1785714285714285
 40
0.1785714285714285
 40
0.1785714285714285
 40
0.2142857142857143
 40
0.2142857142857143
 40
0.2142857142857143
 40
0.25
 40
0.25
 40
0.25
 40
0.2857142857142857
 40
0.2857142857142857
 40
0.2857142857142857
 40
0.3214285714285714
 40
0.3214285714285714
 40
0.3214285714285714
 40
0.3571428571428571
 40
0.3571428571428571
 40
0.3571428571428571
 40
0.3928571428571428
 40
0.3928571428571428
 40
0.3928571428571428
 40
0.4285714285714285
 40
0.4285714285714285
 40
0.4285714285714285
 40
0.4642857142857142
 40
0.4642857142857142
 40
0.4642857142857142
 40
0.5
 40
0.5
 40
0.5
 40
0.5357142857142857
 40
0.5357142857142857
 40
0.5357142857142857
 40
0.5714285714285714
 40
0.5714285714285714
 40
0.5714285714285714
 40
0.6071428571428571
 40
0.6071428571428571
 40
0.6071428571428571
 40
0.6428571428571428
 40
0.6428571428571428
 40
0.6428571428571428
 40
0.6785714285714285
 40
0.6785714285714285
 40
0.6785714285714285
 40
0.7142857142857142
 40
0.7142857142857142
 40
0.7142857142857142
 40
0.75
 40
0.75
 40
0.75
 40
0.7857142857142857
 40
0.7857142857142857
 40
0.7857142857142857
 40
0.8214285714285714
 40
0.8214285714285714
 40
0.8214285714285714
 40
0.8571428571428571
 40
0.8571428571428571
 40
0.8571428571428571
 40
0.8928571428571428
 40
0.8928571428571428
 40
0.8928571428571428
 40
0.9285714285714285
 40
0.9285714285714285
 40
0.9285714285714285
 40
0.9642857142857142
 40
0.9642857142857142
 40
0.9642857142857142
 40
1.0
 40
1.0
 40
1.0
 40
1.0
 10
5.1067
 20
1.7245
 30
0.0
 10
4.466
 20
1.6589
 30
0.0
 10
4.4039
 20
1.618
 30
0.0
 10
4.4039
 20
0.9311
 30
0.0
 10
4.4039
 20
0.9311
 30
0.0
 10
4.4039
 20
-2.3472
 30
0.0
 10
4.4039
 20
-2.3472
 30
0.0
 10
4.4039
 20
-3.0341
 30
0.0
 10
4.4734
 20
-3.0584
 30
0.0
 10
5.1067
 20
-3.1322
 30
0.0
 10
5.1067
 20
-3.1322
 30
0.0
 10
5.1067
 20
-3.3611
 30
0.0
 10
5.1067
 20
-3.3611
 30
0.0
 10
5.1067
 20
-3.3611
 30
0.0
 10
3.0373
 20
-3.3611
 30
0.0
 10
3.0373
 20
-3.3611
 30
0.0
 10
3.0373
 20
-3.3611
 30
0.0
 10
3.0373
 20
-3.1322
 30
0.0
 10
3.0373
 20
-3.1322
 30
0.0
 10
3.6783
 20
-3.0503
 30
0.0
 10
3.74
 20
-3.0341
 30
0.0
 10
3.74
 20
-2.3472
 30
0.0
 10
3.74
 20
-2.3472
 30
0.0
 10
3.74
 20
-0.7121
 30
0.0
 10
3.74
 20
-0.7121
 30
0.0
 10
3.74
 20
-0.7121
 30
0.0
 10
1.0998
 20
-0.7121
 30
0.0
 10
1.0998
 20
-0.7121
 30
0.0
 10
1.0998
 20
-0.7121
 30
0.0
 10
1.0998
 20
-2.3472
 30
0.0
 10
1.0998
 20
-2.3472
 30
0.0
 10
1.0998
 20
-3.0256
 30
0.0
 10
1.1608
 20
-3.0503
 30
0.0
 10
1.7941
 20
-3.1322
 30
0.0
 10
1.7941
 20
-3.1322
 30
0.0
 10
1.7941
 20
-3.3611
 30
0.0
 10
1.7941
 20
-3.3611
 30
0.0
 10
1.7941
 20
-3.3611
 30
0.0
 10
-0.2669
 20
-3.3611
 30
0.0
 10
-0.2669
 20
-3.3611
 30
0.0
 10
-0.2669
 20
-3.3611
 30
0.0
 10
-0.2669
 20
-3.1322
 30
0.0
 10
-0.2669
 20
-3.1322
 30
0.0
 10
0.3583
 20
-3.0584
 30
0.0
 10
0.4278
 20
-3.0341
 30
0.0
 10
0.4278
 20
-2.3472
 30
0.0
 10
0.4278
 20
-2.3472
 30
0.0
 10
0.4278
 20
0.9311
 30
0.0
 10
0.4278
 20
0.9311
 30
0.0
 10
0.4278
 20
1.618
 30
0.0
 10
0.3583
 20
1.6589
 30
0.0
 10
-0.2669
 20
1.7245
 30
0.0
 10
-0.2669
 20
1.7245
 30
0.0
 10
-0.2669
 20
1.9535
 30
0.0
 10
-0.2669
 20
1.9535
 30
0.0
 10
-0.2669
 20
1.9535
 30
0.0
 10
1.7941
 20
1.9535
 30
0.0
 10
1.7941
 20
1.9535
 30
0.0
 10
1.7941
 20
1.9535
 30
0.0
 10
1.7941
 20
1.7245
 30
0.0
 10
1.7941
 20
1.7245
 30
0.0
 10
1.1767
 20
1.667
 30
0.0
 10
1.0998
 20
1.6099
 30
0.0
 10
1.0998
 20
0.9311
 30
0.0
 10
1.0998
 20
0.9311
 30
0.0
 10
1.0998
 20
-0.3688
 30
0.0
 10
1.0998
 20
-0.3688
 30
0.0
 10
1.0998
 20
-0.3688
 30
0.0
 10
3.74
 20
-0.3688
 30
0.0
 10
3.74
 20
-0.3688
 30
0.0
 10
3.74
 20
-0.3688
 30
0.0
 10
3.74
 20
0.9311
 30
0.0
 10
3.74
 20
0.9311
 30
0.0
 10
3.74
 20
1.6099
 30
0.0
 10
3.6553
 20
1.667
 30
0.0
 10
3.0373
 20
1.7245
 30
0.0
 10
3.0373
 20
1.7245
 30
0.0
 10
3.0373
 20
1.9535
 30
0.0
 10
3.0373
 20
1.9535
 30
0.0
 10
3.0373
 20
1.9535
 30
0.0
 10
5.1067
 20
1.9535
 30
0.0
 10
5.1067
 20
1.9535
 30
0.0
 10
5.1067
 20
1.9535
 30
0.0
 10
5.1067
 20
1.7245
 30
0.0
 10
5.1067
 20
1.7245
 30
0.0
  0
SPLINE
  5
65
330
1F
100
AcDbEntity
  8
Layer 1
 62
   250
100
AcDbSpline
210
0.0
220
0.0
230
1.0
 70
    11
 71
     3
 72
    92
 73
    88
 74
     0
 42
0.0000000001
 43
0.0000000001
 40
0.0
 40
0.0
 40
0.0
 40
0.0
 40
0.0344827586206897
 40
0.0344827586206897
 40
0.0344827586206897
 40
0.0689655172413793
 40
0.0689655172413793
 40
0.0689655172413793
 40
0.103448275862069
 40
0.103448275862069
 40
0.103448275862069
 40
0.1379310344827586
 40
0.1379310344827586
 40
0.1379310344827586
 40
0.1724137931034483
 40
0.1724137931034483
 40
0.1724137931034483
 40
0.2068965517241379
 40
0.2068965517241379
 40
0.2068965517241379
 40
0.2413793103448276
 40
0.2413793103448276
 40
0.2413793103448276
 40
0.2758620689655172
 40
0.2758620689655172
 40
0.2758620689655172
 40
0.3103448275862069
 40
0.3103448275862069
 40
0.3103448275862069
 40
0.3448275862068966
 40
0.3448275862068966
 40
0.3448275862068966
 40
0.3793103448275862
 40
0.3793103448275862
 40
0.3793103448275862
 40
0.4137931034482759
 40
0.4137931034482759
 40
0.4137931034482759
 40
0.4482758620689655
 40
0.4482758620689655
 40
0.4482758620689655
 40
0.4827586206896551
 40
0.4827586206896551
 40
0.4827586206896551
 40
0.5172413793103449
 40
0.5172413793103449
 40
0.5172413793103449
 40
0.5517241379310345
 40
0.5517241379310345
 40
0.5517241379310345
 40
0.5862068965517241
 40
0.5862068965517241
 40
0.5862068965517241
 40
0.6206896551724138
 40
0.6206896551724138
 40
0.6206896551724138
 40
0.6551724137931034
 40
0.6551724137931034
 40
0.6551724137931034
 40
0.6896551724137931
 40
0.6896551724137931
 40
0.6896551724137931
 40
0.7241379310344828
 40
0.7241379310344828
 40
0.7241379310344828
 40
0.7586206896551724
 40
0.7586206896551724
 40
0.7586206896551724
 40
0.7931034482758621
 40
0.7931034482758621
 40
0.7931034482758621
 40
0.8275862068965517
 40
0.8275862068965517
 40
0.8275862068965517
 40
0.8620689655172413
 40
0.8620689655172413
 40
0.8620689655172413
 40
0.896551724137931
 40
0.896551724137931
 40
0.896551724137931
 40
0.9310344827586207
 40
0.9310344827586207
 40
0.9310344827586207
 40
0.9655172413793103
 40
0.9655172413793103
 40
0.9655172413793103
 40
1.0
 40
1.0
 40
1.0
 40
1.0
 10
-0.8086
 20
-2.0613
 30
0.0
 10
-0.8552
 20
-2.274
 30
0.0
 10
-1.0636
 20
-3.1157
 30
0.0
 10
-1.1405
 20
-3.3612
 30
0.0
 10
-1.1405
 20
-3.3612
 30
0.0
 10
-4.893
 20
-3.3612
 30
0.0
 10
-4.893
 20
-3.3612
 30
0.0
 10
-4.893
 20
-3.3612
 30
0.0
 10
-4.893
 20
-3.1319
 30
0.0
 10
-4.893
 20
-3.1319
 30
0.0
 10
-4.1748
 20
-3.0751
 30
0.0
 10
-4.1208
 20
-3.0014
 30
0.0
 10
-4.1208
 20
-2.3308
 30
0.0
 10
-4.1208
 20
-2.3308
 30
0.0
 10
-4.1208
 20
0.8985
 30
0.0
 10
-4.1208
 20
0.8985
 30
0.0
 10
-4.1208
 20
1.6263
 30
0.0
 10
-4.2058
 20
1.6672
 30
0.0
 10
-4.7847
 20
1.7244
 30
0.0
 10
-4.7847
 20
1.7244
 30
0.0
 10
-4.7847
 20
1.9533
 30
0.0
 10
-4.7847
 20
1.9533
 30
0.0
 10
-4.7847
 20
1.9533
 30
0.0
 10
-2.4225
 20
1.9533
 30
0.0
 10
-2.4225
 20
1.9533
 30
0.0
 10
-1.6969
 20
1.9533
 30
0.0
 10
-1.3956
 20
1.9615
 30
0.0
 10
-1.3028
 20
1.9699
 30
0.0
 10
-1.2951
 20
1.7653
 30
0.0
 10
-1.2644
 20
1.1522
 30
0.0
 10
-1.2333
 20
0.7186
 30
0.0
 10
-1.2333
 20
0.7186
 30
0.0
 10
-1.4648
 20
0.6781
 30
0.0
 10
-1.4648
 20
0.6781
 30
0.0
 10
-1.5342
 20
0.956
 30
0.0
 10
-1.6115
 20
1.1275
 30
0.0
 10
-1.6969
 20
1.2993
 30
0.0
 10
-1.8204
 20
1.5692
 30
0.0
 10
-1.9978
 20
1.6263
 30
0.0
 10
-2.461
 20
1.6263
 30
0.0
 10
-2.461
 20
1.6263
 30
0.0
 10
-3.1944
 20
1.6263
 30
0.0
 10
-3.1944
 20
1.6263
 30
0.0
 10
-3.4336
 20
1.6263
 30
0.0
 10
-3.4491
 20
1.602
 30
0.0
 10
-3.4491
 20
1.3646
 30
0.0
 10
-3.4491
 20
1.3646
 30
0.0
 10
-3.4491
 20
-0.442
 30
0.0
 10
-3.4491
 20
-0.442
 30
0.0
 10
-3.4491
 20
-0.442
 30
0.0
 10
-2.5922
 20
-0.442
 30
0.0
 10
-2.5922
 20
-0.442
 30
0.0
 10
-2.013
 20
-0.442
 30
0.0
 10
-1.9745
 20
-0.3196
 30
0.0
 10
-1.8817
 20
0.2364
 30
0.0
 10
-1.8817
 20
0.2364
 30
0.0
 10
-1.6426
 20
0.2364
 30
0.0
 10
-1.6426
 20
0.2364
 30
0.0
 10
-1.6426
 20
0.2364
 30
0.0
 10
-1.6426
 20
-1.4478
 30
0.0
 10
-1.6426
 20
-1.4478
 30
0.0
 10
-1.6426
 20
-1.4478
 30
0.0
 10
-1.8817
 20
-1.4478
 30
0.0
 10
-1.8817
 20
-1.4478
 30
0.0
 10
-1.9823
 20
-0.859
 30
0.0
 10
-2.044
 20
-0.7775
 30
0.0
 10
-2.6
 20
-0.7775
 30
0.0
 10
-2.6
 20
-0.7775
 30
0.0
 10
-3.4491
 20
-0.7775
 30
0.0
 10
-3.4491
 20
-0.7775
 30
0.0
 10
-3.4491
 20
-0.7775
 30
0.0
 10
-3.4491
 20
-2.4049
 30
0.0
 10
-3.4491
 20
-2.4049
 30
0.0
 10
-3.4491
 20
-2.9771
 30
0.0
 10
-3.2791
 20
-3.0254
 30
0.0
 10
-2.8931
 20
-3.0342
 30
0.0
 10
-2.8931
 20
-3.0342
 30
0.0
 10
-2.1756
 20
-3.0342
 30
0.0
 10
-2.1756
 20
-3.0342
 30
0.0
 10
-1.7043
 20
-3.0342
 30
0.0
 10
-1.627
 20
-2.9608
 30
0.0
 10
-1.4573
 20
-2.7474
 30
0.0
 10
-1.3106
 20
-2.576
 30
0.0
 10
-1.1487
 20
-2.2412
 30
0.0
 10
-1.0404
 20
-1.9956
 30
0.0
 10
-1.0404
 20
-1.9956
 30
0.0
 10
-0.8086
 20
-2.0613
 30
0.0
 10
-0.8086
 20
-2.0613
 30
0.0
  0
SPLINE
  5
66
330
1F
100
AcDbEntity
  8
Layer 1
 62
   250
100
AcDbSpline
210
0.0
220
0.0
230
1.0
 70
    11
 71
     3
 72
    80
 73
    76
 74
     0
 42
0.0000000001
 43
0.0000000001
 40
0.0
 40
0.0
 40
0.0
 40
0.0
 40
0.04
 40
0.04
 40
0.04
 40
0.08
 40
0.08
 40
0.08
 40
0.12
 40
0.12
 40
0.12
 40
0.16
 40
0.16
 40
0.16
 40
0.2
 40
0.2
 40
0.2
 40
0.24
 40
0.24
 40
0.24
 40
0.28
 40
0.28
 40
0.28
 40
0.32
 40
0.32
 40
0.32
 40
0.36
 40
0.36
 40
0.36
 40
0.4
 40
0.4
 40
0.4
 40
0.44
 40
0.44
 40
0.44
 40
0.48
 40
0.48
 40
0.48
 40
0.52
 40
0.52
 40
0.52
 40
0.56
 40
0.56
 40
0.56
 40
0.6
 40
0.6
 40
0.6
 40
0.64
 40
0.64
 40
0.64
 40
0.68
 40
0.68
 40
0.68
 40
0.72
 40
0.72
 40
0.72
 40
0.76
 40
0.76
 40
0.76
 40
0.8
 40
0.8
 40
0.8
 40
0.84
 40
0.84
 40
0.84
 40
0.88
 40
0.88
 40
0.88
 40
0.92
 40
0.92
 40
0.92
 40
0.96
 40
0.96
 40
0.96
 40
1.0
 40
1.0
 40
1.0
 40
1.0
 10
-7.5663
 20
-3.3611
 30
0.0
 10
-7.5663
 20
-3.3611
 30
0.0
 10
-7.5663
 20
-3.1322
 30
0.0
 10
-7.5663
 20
-3.1322
 30
0.0
 10
-6.9334
 20
-3.0669
 30
0.0
 10
-6.9098
 20
-3.0175
 30
0.0
 10
-6.9179
 20
-2.143
 30
0.0
 10
-6.9179
 20
-2.143
 30
0.0
 10
-6.9098
 20
1.1929
 30
0.0
 10
-6.9098
 20
1.1929
 30
0.0
 10
-7.543
 20
-0.3032
 30
0.0
 10
-8.5622
 20
-2.6414
 30
0.0
 10
-8.8324
 20
-3.3611
 30
0.0
 10
-8.8324
 20
-3.3611
 30
0.0
 10
-9.0332
 20
-3.3611
 30
0.0
 10
-9.0332
 20
-3.3611
 30
0.0
 10
-9.2956
 20
-2.6175
 30
0.0
 10
-10.1681
 20
-0.3688
 30
0.0
 10
-10.7547
 20
1.1111
 30
0.0
 10
-10.8863
 20
-1.7507
 30
0.0
 10
-10.8937
 20
-2.3963
 30
0.0
 10
-10.8937
 20
-2.5518
 30
0.0
 10
-10.8863
 20
-3.0097
 30
0.0
 10
-10.6933
 20
-3.075
 30
0.0
 10
-10.1681
 20
-3.1322
 30
0.0
 10
-10.1681
 20
-3.1322
 30
0.0
 10
-10.1681
 20
-3.3611
 30
0.0
 10
-10.1681
 20
-3.3611
 30
0.0
 10
-10.1681
 20
-3.3611
 30
0.0
 10
-11.9979
 20
-3.3611
 30
0.0
 10
-11.9979
 20
-3.3611
 30
0.0
 10
-11.9979
 20
-3.3611
 30
0.0
 10
-11.9979
 20
-3.1322
 30
0.0
 10
-11.9979
 20
-3.1322
 30
0.0
 10
-11.5499
 20
-3.0831
 30
0.0
 10
-11.365
 20
-2.985
 30
0.0
 10
-11.3029
 20
-2.5437
 30
0.0
 10
-11.2567
 20
-2.1835
 30
0.0
 10
-11.249
 20
-1.8893
 30
0.0
 10
-11.0482
 20
1.0948
 30
0.0
 10
-11.0175
 20
1.5199
 30
0.0
 10
-11.0948
 20
1.6589
 30
0.0
 10
-11.7739
 20
1.7245
 30
0.0
 10
-11.7739
 20
1.7245
 30
0.0
 10
-11.7739
 20
1.9535
 30
0.0
 10
-11.7739
 20
1.9535
 30
0.0
 10
-11.7739
 20
1.9535
 30
0.0
 10
-10.4305
 20
1.9535
 30
0.0
 10
-10.4305
 20
1.9535
 30
0.0
 10
-10.4305
 20
1.9535
 30
0.0
 10
-8.7245
 20
-2.192
 30
0.0
 10
-8.7245
 20
-2.192
 30
0.0
 10
-8.7245
 20
-2.192
 30
0.0
 10
-6.8946
 20
1.9535
 30
0.0
 10
-6.8946
 20
1.9535
 30
0.0
 10
-6.8946
 20
1.9535
 30
0.0
 10
-5.5435
 20
1.9535
 30
0.0
 10
-5.5435
 20
1.9535
 30
0.0
 10
-5.5435
 20
1.9535
 30
0.0
 10
-5.5435
 20
1.7245
 30
0.0
 10
-5.5435
 20
1.7245
 30
0.0
 10
-6.2074
 20
1.6427
 30
0.0
 10
-6.2924
 20
1.5693
 30
0.0
 10
-6.2769
 20
0.9968
 30
0.0
 10
-6.2769
 20
0.9968
 30
0.0
 10
-6.2459
 20
-2.143
 30
0.0
 10
-6.2459
 20
-2.143
 30
0.0
 10
-6.2152
 20
-3.0175
 30
0.0
 10
-6.1919
 20
-3.0584
 30
0.0
 10
-5.5125
 20
-3.1322
 30
0.0
 10
-5.5125
 20
-3.1322
 30
0.0
 10
-5.5125
 20
-3.3611
 30
0.0
 10
-5.5125
 20
-3.3611
 30
0.0
 10
-5.5125
 20
-3.3611
 30
0.0
 10
-7.5663
 20
-3.3611
 30
0.0
 10
-7.5663
 20
-3.3611
 30
0.0
  0
SPLINE
  5
67
330
1F
100
AcDbEntity
  8
Layer 1
 62
   250
100
AcDbSpline
210
0.0
220
0.0
230
1.0
 70
    11
 71
     3
 72
    17
 73
    13
 74
     0
 42
0.0000000001
 43
0.0000000001
 40
0.0
 40
0.0
 40
0.0
 40
0.0
 40
0.25
 40
0.25
 40
0.25
 40
0.5
 40
0.5
 40
0.5
 40
0.75
 40
0.75
 40
0.75
 40
1.0
 40
1.0
 40
1.0
 40
1.0
 10
-9.8089
 20
17.5117
 30
0.0
 10
-9.8089
 20
17.5117
 30
0.0
 10
-8.4865
 20
16.756
 30
0.0
 10
-8.4865
 20
16.756
 30
0.0
 10
-8.4865
 20
16.756
 30
0.0
 10
-6.671
 20
18.5067
 30
0.0
 10
-6.671
 20
18.5067
 30
0.0
 10
-6.671
 20
18.5067
 30
0.0
 10
-8.8386
 20
18.6642
 30
0.0
 10
-8.8386
 20
18.6642
 30
0.0
 10
-8.8386
 20
18.6642
 30
0.0
 10
-9.8089
 20
17.5117
 30
0.0
 10
-9.8089
 20
17.5117
 30
0.0
  0
SPLINE
  5
68
330
1F
100
AcDbEntity
  8
Layer 1
 62
   250
100
AcDbSpline
210
0.0
220
0.0
230
1.0
 70
    11
 71
     3
 72
    14
 73
    10
 74
     0
 42
0.0000000001
 43
0.0000000001
 40
0.0
 40
0.0
 40
0.0
 40
0.0
 40
0.3333333333333333
 40
0.3333333333333333
 40
0.3333333333333333
 40
0.6666666666666666
 40
0.6666666666666666
 40
0.6666666666666666
 40
1.0
 40
1.0
 40
1.0
 40
1.0
 10
-7.8813
 20
15.8869
 30
0.0
 10
-7.8813
 20
15.8869
 30
0.0
 10
-7.8286
 20
11.5737
 30
0.0
 10
-7.8286
 20
11.5737
 30
0.0
 10
-7.8286
 20
11.5737
 30
0.0
 10
-6.4085
 20
17.307
 30
0.0
 10
-6.4085
 20
17.307
 30
0.0
 10
-6.4085
 20
17.307
 30
0.0
 10
-7.8813
 20
15.8869
 30
0.0
 10
-7.8813
 20
15.8869
 30
0.0
  0
SPLINE
  5
69
330
1F
100
AcDbEntity
  8
Layer 1
 62
   250
100
AcDbSpline
210
0.0
220
0.0
230
1.0
 70
    11
 71
     3
 72
    14
 73
    10
 74
     0
 42
0.0000000001
 43
0.0000000001
 40
0.0
 40
0.0
 40
0.0
 40
0.0
 40
0.3333333333333333
 40
0.3333333333333333
 40
0.3333333333333333
 40
0.6666666666666666
 40
0.6666666666666666
 40
0.6666666666666666
 40
1.0
 40
1.0
 40
1.0
 40
1.0
 10
-12.6383
 20
9.1435
 30
0.0
 10
-12.6383
 20
9.1435
 30
0.0
 10
-16.3441
 20
11.0579
 30
0.0
 10
-16.3441
 20
11.0579
 30
0.0
 10
-16.3441
 20
11.0579
 30
0.0
 10
-18.1484
 20
10.5576
 30
0.0
 10
-18.1484
 20
10.5576
 30
0.0
 10
-18.1484
 20
10.5576
 30
0.0
 10
-12.6383
 20
9.1435
 30
0.0
 10
-12.6383
 20
9.1435
 30
0.0
  0
SPLINE
  5
6A
330
1F
100
AcDbEntity
  8
Layer 1
 62
   250
100
AcDbSpline
210
0.0
220
0.0
230
1.0
 70
    11
 71
     3
 72
    17
 73
    13
 74
     0
 42
0.0000000001
 43
0.0000000001
 40
0.0
 40
0.0
 40
0.0
 40
0.0
 40
0.25
 40
0.25
 40
0.25
 40
0.5
 40
0.5
 40
0.5
 40
0.75
 40
0.75
 40
0.75
 40
1.0
 40
1.0
 40
1.0
 40
1.0
 10
-16.8257
 20
12.0093
 30
0.0
 10
-16.8257
 20
12.0093
 30
0.0
 10
-16.892
 20
13.5864
 30
0.0
 10
-16.892
 20
13.5864
 30
0.0
 10
-16.892
 20
13.5864
 30
0.0
 10
-18.732
 20
13.5864
 30
0.0
 10
-18.732
 20
13.5864
 30
0.0
 10
-18.732
 20
13.5864
 30
0.0
 10
-19.4065
 20
11.2936
 30
0.0
 10
-19.4065
 20
11.2936
 30
0.0
 10
-19.4065
 20
11.2936
 30
0.0
 10
-16.8257
 20
12.0093
 30
0.0
 10
-16.8257
 20
12.0093
 30
0.0
  0
SPLINE
  5
6B
330
1F
100
AcDbEntity
  8
Layer 1
 62
   250
100
AcDbSpline
210
0.0
220
0.0
230
1.0
 70
    11
 71
     3
 72
    17
 73
    13
 74
     0
 42
0.0000000001
 43
0.0000000001
 40
0.0
 40
0.0
 40
0.0
 40
0.0
 40
0.25
 40
0.25
 40
0.25
 40
0.5
 40
0.5
 40
0.5
 40
0.75
 40
0.75
 40
0.75
 40
1.0
 40
1.0
 40
1.0
 40
1.0
 10
-15.8554
 20
13.8117
 30
0.0
 10
-15.8554
 20
13.8117
 30
0.0
 10
-15.8
 20
12.4951
 30
0.0
 10
-15.8
 20
12.4951
 30
0.0
 10
-15.8
 20
12.4951
 30
0.0
 10
-13.2824
 20
13.9298
 30
0.0
 10
-13.2824
 20
13.9298
 30
0.0
 10
-13.2824
 20
13.9298
 30
0.0
 10
-13.9341
 20
14.8945
 30
0.0
 10
-13.9341
 20
14.8945
 30
0.0
 10
-13.9341
 20
14.8945
 30
0.0
 10
-15.8554
 20
13.8117
 30
0.0
 10
-15.8554
 20
13.8117
 30
0.0
  0
SPLINE
  5
6C
330
1F
100
AcDbEntity
  8
Layer 1
 62
   250
100
AcDbSpline
210
0.0
220
0.0
230
1.0
 70
    11
 71
     3
 72
    14
 73
    10
 74
     0
 42
0.0000000001
 43
0.0000000001
 40
0.0
 40
0.0
 40
0.0
 40
0.0
 40
0.3333333333333333
 40
0.3333333333333333
 40
0.3333333333333333
 40
0.6666666666666666
 40
0.6666666666666666
 40
0.6666666666666666
 40
1.0
 40
1.0
 40
1.0
 40
1.0
 10
-15.1918
 20
11.64
 30
0.0
 10
-15.1918
 20
11.64
 30
0.0
 10
-9.8828
 20
8.8974
 30
0.0
 10
-9.8828
 20
8.8974
 30
0.0
 10
-9.8828
 20
8.8974
 30
0.0
 10
-12.6975
 20
13.064
 30
0.0
 10
-12.6975
 20
13.064
 30
0.0
 10
-13.5292
 20
12.5897
 30
0.0
 10
-14.3606
 20
12.115
 30
0.0
 10
-15.1918
 20
11.64
 30
0.0
  0
SPLINE
  5
6D
330
1F
100
AcDbEntity
  8
Layer 1
 62
   250
100
AcDbSpline
210
0.0
220
0.0
230
1.0
 70
    11
 71
     3
 72
    14
 73
    10
 74
     0
 42
0.0000000001
 43
0.0000000001
 40
0.0
 40
0.0
 40
0.0
 40
0.0
 40
0.3333333333333333
 40
0.3333333333333333
 40
0.3333333333333333
 40
0.6666666666666666
 40
0.6666666666666666
 40
0.6666666666666666
 40
1.0
 40
1.0
 40
1.0
 40
1.0
 10
-8.8446
 20
9.2314
 30
0.0
 10
-8.8446
 20
9.2314
 30
0.0
 10
-8.9177
 20
15.2155
 30
0.0
 10
-8.9177
 20
15.2155
 30
0.0
 10
-9.8737
 20
14.6723
 30
0.0
 10
-10.8294
 20
14.1284
 30
0.0
 10
-11.785
 20
13.584
 30
0.0
 10
-11.785
 20
13.584
 30
0.0
 10
-8.8446
 20
9.2314
 30
0.0
 10
-8.8446
 20
9.2314
 30
0.0
  0
SPLINE
  5
6E
330
1F
100
AcDbEntity
  8
Layer 1
 62
   250
100
AcDbSpline
210
0.0
220
0.0
230
1.0
 70
    11
 71
     3
 72
    17
 73
    13
 74
     0
 42
0.0000000001
 43
0.0000000001
 40
0.0
 40
0.0
 40
0.0
 40
0.0
 40
0.25
 40
0.25
 40
0.25
 40
0.5
 40
0.5
 40
0.5
 40
0.75
 40
0.75
 40
0.75
 40
1.0
 40
1.0
 40
1.0
 40
1.0
 10
-9.4621
 20
16.107
 30
0.0
 10
-9.4621
 20
16.107
 30
0.0
 10
-10.6143
 20
16.7655
 30
0.0
 10
-10.6143
 20
16.7655
 30
0.0
 10
-10.6143
 20
16.7655
 30
0.0
 10
-13.0188
 20
15.4103
 30
0.0
 10
-13.0188
 20
15.4103
 30
0.0
 10
-13.0188
 20
15.4103
 30
0.0
 10
-12.37
 20
14.4498
 30
0.0
 10
-12.37
 20
14.4498
 30
0.0
 10
-12.37
 20
14.4498
 30
0.0
 10
-9.4621
 20
16.107
 30
0.0
 10
-9.4621
 20
16.107
 30
0.0
  0
SPLINE
  5
6F
330
1F
100
AcDbEntity
  8
Layer 1
 62
   250
100
AcDbSpline
210
0.0
220
0.0
230
1.0
 70
    11
 71
     3
 72
    23
 73
    19
 74
     0
 42
0.0000000001
 43
0.0000000001
 40
0.0
 40
0.0
 40
0.0
 40
0.0
 40
0.1666666666666667
 40
0.1666666666666667
 40
0.1666666666666667
 40
0.3333333333333333
 40
0.3333333333333333
 40
0.3333333333333333
 40
0.5
 40
0.5
 40
0.5
 40
0.6666666666666666
 40
0.6666666666666666
 40
0.6666666666666666
 40
0.8333333333333333
 40
0.8333333333333333
 40
0.8333333333333333
 40
1.0
 40
1.0
 40
1.0
 40
1.0
 10
-17.9082
 20
14.635
 30
0.0
 10
-17.9082
 20
14.635
 30
0.0
 10
-16.5273
 20
14.635
 30
0.0
 10
-16.5273
 20
14.635
 30
0.0
 10
-16.5273
 20
14.635
 30
0.0
 10
-10.9473
 20
17.7798
 30
0.0
 10
-10.9473
 20
17.7798
 30
0.0
 10
-10.9473
 20
17.7798
 30
0.0
 10
-10.124
 20
18.7576
 30
0.0
 10
-10.124
 20
18.7576
 30
0.0
 10
-10.124
 20
18.7576
 30
0.0
 10
-11.1262
 20
18.8305
 30
0.0
 10
-11.1262
 20
18.8305
 30
0.0
 10
-11.1262
 20
18.8305
 30
0.0
 10
-17.0131
 20
15.5827
 30
0.0
 10
-17.0131
 20
15.5827
 30
0.0
 10
-17.0131
 20
15.5827
 30
0.0
 10
-17.9082
 20
14.635
 30
0.0
 10
-17.9082
 20
14.635
 30
0.0
  0
SPLINE
  5
70
330
1F
100
AcDbEntity
  8
Layer 1
 62
   250
100
AcDbSpline
210
0.0
220
0.0
230
1.0
 70
    11
 71
     3
 72
    95
 73
    91
 74
     0
 42
0.0000000001
 43
0.0000000001
 40
0.0
 40
0.0
 40
0.0
 40
0.0
 40
0.0333333333333333
 40
0.0333333333333333
 40
0.0333333333333333
 40
0.0666666666666667
 40
0.0666666666666667
 40
0.0666666666666667
 40
0.1
 40
0.1
 40
0.1
 40
0.1333333333333333
 40
0.1333333333333333
 40
0.1333333333333333
 40
0.1666666666666667
 40
0.1666666666666667
 40
0.1666666666666667
 40
0.2
 40
0.2
 40
0.2
 40
0.2333333333333333
 40
0.2333333333333333
 40
0.2333333333333333
 40
0.2666666666666667
 40
0.2666666666666667
 40
0.2666666666666667
 40
0.3
 40
0.3
 40
0.3
 40
0.3333333333333333
 40
0.3333333333333333
 40
0.3333333333333333
 40
0.3666666666666666
 40
0.3666666666666666
 40
0.3666666666666666
 40
0.4
 40
0.4
 40
0.4
 40
0.4333333333333333
 40
0.4333333333333333
 40
0.4333333333333333
 40
0.4666666666666667
 40
0.4666666666666667
 40
0.4666666666666667
 40
0.5
 40
0.5
 40
0.5
 40
0.5333333333333333
 40
0.5333333333333333
 40
0.5333333333333333
 40
0.5666666666666667
 40
0.5666666666666667
 40
0.5666666666666667
 40
0.6
 40
0.6
 40
0.6
 40
0.6333333333333333
 40
0.6333333333333333
 40
0.6333333333333333
 40
0.6666666666666666
 40
0.6666666666666666
 40
0.6666666666666666
 40
0.7
 40
0.7
 40
0.7
 40
0.7333333333333333
 40
0.7333333333333333
 40
0.7333333333333333
 40
0.7666666666666666
 40
0.7666666666666666
 40
0.7666666666666666
 40
0.8
 40
0.8
 40
0.8
 40
0.8333333333333334
 40
0.8333333333333334
 40
0.8333333333333334
 40
0.8666666666666667
 40
0.8666666666666667
 40
0.8666666666666667
 40
0.9
 40
0.9
 40
0.9
 40
0.9333333333333333
 40
0.9333333333333333
 40
0.9333333333333333
 40
0.9666666666666667
 40
0.9666666666666667
 40
0.9666666666666667
 40
1.0
 40
1.0
 40
1.0
 40
1.0
 10
-19.9296
 20
-6.0441
 30
0.0
 10
-19.9296
 20
-6.0441
 30
0.0
 10
-17.4753
 20
-6.0441
 30
0.0
 10
-17.4753
 20
-6.0441
 30
0.0
 10
-17.4753
 20
-6.0441
 30
0.0
 10
-17.4753
 20
-6.3129
 30
0.0
 10
-17.4753
 20
-6.3129
 30
0.0
 10
-17.4753
 20
-6.3129
 30
0.0
 10
-17.8245
 20
-6.3129
 30
0.0
 10
-17.8245
 20
-6.3129
 30
0.0
 10
-17.9621
 20
-6.3129
 30
0.0
 10
-18.0605
 20
-6.3366
 30
0.0
 10
-18.1191
 20
-6.3846
 30
0.0
 10
-18.178
 20
-6.4325
 30
0.0
 10
-18.2073
 20
-6.5017
 30
0.0
 10
-18.2073
 20
-6.5923
 30
0.0
 10
-18.2073
 20
-6.5923
 30
0.0
 10
-18.2073
 20
-10.0295
 30
0.0
 10
-18.2073
 20
-10.0295
 30
0.0
 10
-18.2073
 20
-10.2947
 30
0.0
 10
-18.2747
 20
-10.5343
 30
0.0
 10
-18.4098
 20
-10.7477
 30
0.0
 10
-18.5449
 20
-10.9615
 30
0.0
 10
-18.7428
 20
-11.1312
 30
0.0
 10
-19.0028
 20
-11.2568
 30
0.0
 10
-19.2632
 20
-11.3824
 30
0.0
 10
-19.557
 20
-11.4452
 30
0.0
 10
-19.8844
 20
-11.4452
 30
0.0
 10
-20.33
 20
-11.4452
 30
0.0
 10
-20.694
 20
-11.3199
 30
0.0
 10
-20.9766
 20
-11.0705
 30
0.0
 10
-21.2592
 20
-10.8211
 30
0.0
 10
-21.4003
 20
-10.5156
 30
0.0
 10
-21.4003
 20
-10.1543
 30
0.0
 10
-21.4003
 20
-9.8876
 30
0.0
 10
-21.329
 20
-9.6735
 30
0.0
 10
-21.1865
 20
-9.5133
 30
0.0
 10
-21.044
 20
-9.3535
 30
0.0
 10
-20.869
 20
-9.2731
 30
0.0
 10
-20.6612
 20
-9.2731
 30
0.0
 10
-20.4912
 20
-9.2731
 30
0.0
 10
-20.3511
 20
-9.3253
 30
0.0
 10
-20.2411
 20
-9.4294
 30
0.0
 10
-20.131
 20
-9.5334
 30
0.0
 10
-20.076
 20
-9.665
 30
0.0
 10
-20.076
 20
-9.8252
 30
0.0
 10
-20.076
 20
-9.9635
 30
0.0
 10
-20.1208
 20
-10.0799
 30
0.0
 10
-20.2107
 20
-10.1744
 30
0.0
 10
-20.301
 20
-10.269
 30
0.0
 10
-20.4048
 20
-10.3159
 30
0.0
 10
-20.5226
 20
-10.3159
 30
0.0
 10
-20.5677
 20
-10.3159
 30
0.0
 10
-20.6302
 20
-10.3039
 30
0.0
 10
-20.7103
 20
-10.2803
 30
0.0
 10
-20.7776
 20
-10.2612
 30
0.0
 10
-20.8228
 20
-10.2517
 30
0.0
 10
-20.845
 20
-10.2517
 30
0.0
 10
-20.8877
 20
-10.2517
 30
0.0
 10
-20.9216
 20
-10.2686
 30
0.0
 10
-20.9466
 20
-10.3014
 30
0.0
 10
-20.9741
 20
-10.3353
 30
0.0
 10
-20.9879
 20
-10.3858
 30
0.0
 10
-20.9879
 20
-10.4524
 30
0.0
 10
-20.9879
 20
-10.6313
 30
0.0
 10
-20.8934
 20
-10.7946
 30
0.0
 10
-20.7043
 20
-10.9417
 30
0.0
 10
-20.5155
 20
-11.0888
 30
0.0
 10
-20.2834
 20
-11.1619
 30
0.0
 10
-20.0086
 20
-11.1619
 30
0.0
 10
-19.6957
 20
-11.1619
 30
0.0
 10
-19.4494
 20
-11.0585
 30
0.0
 10
-19.2692
 20
-10.8518
 30
0.0
 10
-19.0892
 20
-10.6451
 30
0.0
 10
-18.9989
 20
-10.3568
 30
0.0
 10
-18.9989
 20
-9.9864
 30
0.0
 10
-18.9989
 20
-9.9864
 30
0.0
 10
-18.9989
 20
-6.5923
 30
0.0
 10
-18.9989
 20
-6.5923
 30
0.0
 10
-18.9989
 20
-6.4992
 30
0.0
 10
-19.0321
 20
-6.4294
 30
0.0
 10
-19.0984
 20
-6.3828
 30
0.0
 10
-19.1647
 20
-6.3362
 30
0.0
 10
-19.278
 20
-6.3129
 30
0.0
 10
-19.4381
 20
-6.3129
 30
0.0
 10
-19.4381
 20
-6.3129
 30
0.0
 10
-19.9296
 20
-6.3129
 30
0.0
 10
-19.9296
 20
-6.3129
 30
0.0
 10
-19.9296
 20
-6.3129
 30
0.0
 10
-19.9296
 20
-6.0441
 30
0.0
 10
-19.9296
 20
-6.0441
 30
0.0
  0
SPLINE
  5
71
330
1F
100
AcDbEntity
  8
Layer 1
 62
   250
100
AcDbSpline
210
0.0
220
0.0
230
1.0
 70
    11
 71
     3
 72
   110
 73
   106
 74
     0
 42
0.0000000001
 43
0.0000000001
 40
0.0
 40
0.0
 40
0.0
 40
0.0
 40
0.0285714285714286
 40
0.0285714285714286
 40
0.0285714285714286
 40
0.0571428571428571
 40
0.0571428571428571
 40
0.0571428571428571
 40
0.0857142857142857
 40
0.0857142857142857
 40
0.0857142857142857
 40
0.1142857142857143
 40
0.1142857142857143
 40
0.1142857142857143
 40
0.1428571428571428
 40
0.1428571428571428
 40
0.1428571428571428
 40
0.1714285714285714
 40
0.1714285714285714
 40
0.1714285714285714
 40
0.2
 40
0.2
 40
0.2
 40
0.2285714285714286
 40
0.2285714285714286
 40
0.2285714285714286
 40
0.2571428571428571
 40
0.2571428571428571
 40
0.2571428571428571
 40
0.2857142857142857
 40
0.2857142857142857
 40
0.2857142857142857
 40
0.3142857142857143
 40
0.3142857142857143
 40
0.3142857142857143
 40
0.3428571428571429
 40
0.3428571428571429
 40
0.3428571428571429
 40
0.3714285714285714
 40
0.3714285714285714
 40
0.3714285714285714
 40
0.4
 40
0.4
 40
0.4
 40
0.4285714285714285
 40
0.4285714285714285
 40
0.4285714285714285
 40
0.4571428571428571
 40
0.4571428571428571
 40
0.4571428571428571
 40
0.4857142857142857
 40
0.4857142857142857
 40
0.4857142857142857
 40
0.5142857142857142
 40
0.5142857142857142
 40
0.5142857142857142
 40
0.5428571428571428
 40
0.5428571428571428
 40
0.5428571428571428
 40
0.5714285714285714
 40
0.5714285714285714
 40
0.5714285714285714
 40
0.6
 40
0.6
 40
0.6
 40
0.6285714285714286
 40
0.6285714285714286
 40
0.6285714285714286
 40
0.6571428571428571
 40
0.6571428571428571
 40
0.6571428571428571
 40
0.6857142857142857
 40
0.6857142857142857
 40
0.6857142857142857
 40
0.7142857142857143
 40
0.7142857142857143
 40
0.7142857142857143
 40
0.7428571428571429
 40
0.7428571428571429
 40
0.7428571428571429
 40
0.7714285714285714
 40
0.7714285714285714
 40
0.7714285714285714
 40
0.7999999999999999
 40
0.7999999999999999
 40
0.7999999999999999
 40
0.8285714285714285
 40
0.8285714285714285
 40
0.8285714285714285
 40
0.8571428571428571
 40
0.8571428571428571
 40
0.8571428571428571
 40
0.8857142857142857
 40
0.8857142857142857
 40
0.8857142857142857
 40
0.9142857142857143
 40
0.9142857142857143
 40
0.9142857142857143
 40
0.9428571428571428
 40
0.9428571428571428
 40
0.9428571428571428
 40
0.9714285714285714
 40
0.9714285714285714
 40
0.9714285714285714
 40
1.0
 40
1.0
 40
1.0
 40
1.0
 10
-16.1021
 20
-6.0441
 30
0.0
 10
-16.1021
 20
-6.0441
 30
0.0
 10
-11.7043
 20
-6.0441
 30
0.0
 10
-11.7043
 20
-6.0441
 30
0.0
 10
-11.7043
 20
-6.0441
 30
0.0
 10
-11.5992
 20
-7.8324
 30
0.0
 10
-11.5992
 20
-7.8324
 30
0.0
 10
-11.5992
 20
-7.8324
 30
0.0
 10
-11.8507
 20
-7.8324
 30
0.0
 10
-11.8507
 20
-7.8324
 30
0.0
 10
-11.9506
 20
-7.2683
 30
0.0
 10
-12.1086
 20
-6.8742
 30
0.0
 10
-12.3245
 20
-6.6495
 30
0.0
 10
-12.5408
 20
-6.4255
 30
0.0
 10
-12.8223
 20
-6.3129
 30
0.0
 10
-13.1694
 20
-6.3129
 30
0.0
 10
-13.1694
 20
-6.3129
 30
0.0
 10
-14.2563
 20
-6.3129
 30
0.0
 10
-14.2563
 20
-6.3129
 30
0.0
 10
-14.3438
 20
-6.3129
 30
0.0
 10
-14.4101
 20
-6.3355
 30
0.0
 10
-14.4549
 20
-6.381
 30
0.0
 10
-14.5001
 20
-6.4262
 30
0.0
 10
-14.5223
 20
-6.4957
 30
0.0
 10
-14.5223
 20
-6.5885
 30
0.0
 10
-14.5223
 20
-6.5885
 30
0.0
 10
-14.5223
 20
-8.4776
 30
0.0
 10
-14.5223
 20
-8.4776
 30
0.0
 10
-14.5223
 20
-8.4776
 30
0.0
 10
-14.0471
 20
-8.4776
 30
0.0
 10
-14.0471
 20
-8.4776
 30
0.0
 10
-13.7928
 20
-8.4776
 30
0.0
 10
-13.5864
 20
-8.3901
 30
0.0
 10
-13.428
 20
-8.2158
 30
0.0
 10
-13.2693
 20
-8.0412
 30
0.0
 10
-13.1842
 20
-7.7734
 30
0.0
 10
-13.1715
 20
-7.4133
 30
0.0
 10
-13.1715
 20
-7.4133
 30
0.0
 10
-12.9126
 20
-7.4133
 30
0.0
 10
-12.9126
 20
-7.4133
 30
0.0
 10
-12.9126
 20
-7.4133
 30
0.0
 10
-12.9126
 20
-9.8682
 30
0.0
 10
-12.9126
 20
-9.8682
 30
0.0
 10
-12.9126
 20
-9.8682
 30
0.0
 10
-13.1715
 20
-9.8682
 30
0.0
 10
-13.1715
 20
-9.8682
 30
0.0
 10
-13.1842
 20
-9.4618
 30
0.0
 10
-13.2707
 20
-9.1708
 30
0.0
 10
-13.4319
 20
-8.9955
 30
0.0
 10
-13.5924
 20
-8.8198
 30
0.0
 10
-13.8115
 20
-8.7319
 30
0.0
 10
-14.0884
 20
-8.7319
 30
0.0
 10
-14.0884
 20
-8.7319
 30
0.0
 10
-14.5223
 20
-8.7319
 30
0.0
 10
-14.5223
 20
-8.7319
 30
0.0
 10
-14.5223
 20
-8.7319
 30
0.0
 10
-14.5223
 20
-10.8394
 30
0.0
 10
-14.5223
 20
-10.8394
 30
0.0
 10
-14.5223
 20
-10.916
 30
0.0
 10
-14.4955
 20
-10.9745
 30
0.0
 10
-14.4419
 20
-11.0151
 30
0.0
 10
-14.3883
 20
-11.0553
 30
0.0
 10
-14.299
 20
-11.0761
 30
0.0
 10
-14.1738
 20
-11.0761
 30
0.0
 10
-14.1738
 20
-11.0761
 30
0.0
 10
-13.3158
 20
-11.0761
 30
0.0
 10
-13.3158
 20
-11.0761
 30
0.0
 10
-12.3838
 20
-11.0761
 30
0.0
 10
-11.8469
 20
-10.5068
 30
0.0
 10
-11.7043
 20
-9.3701
 30
0.0
 10
-11.7043
 20
-9.3701
 30
0.0
 10
-11.4341
 20
-9.3701
 30
0.0
 10
-11.4341
 20
-9.3701
 30
0.0
 10
-11.4341
 20
-9.3701
 30
0.0
 10
-11.5279
 20
-11.3446
 30
0.0
 10
-11.5279
 20
-11.3446
 30
0.0
 10
-11.5279
 20
-11.3446
 30
0.0
 10
-16.1021
 20
-11.3446
 30
0.0
 10
-16.1021
 20
-11.3446
 30
0.0
 10
-16.1021
 20
-11.3446
 30
0.0
 10
-16.1021
 20
-11.0761
 30
0.0
 10
-16.1021
 20
-11.0761
 30
0.0
 10
-16.1021
 20
-11.0761
 30
0.0
 10
-15.7232
 20
-11.0761
 30
0.0
 10
-15.7232
 20
-11.0761
 30
0.0
 10
-15.5757
 20
-11.0761
 30
0.0
 10
-15.4717
 20
-11.0515
 30
0.0
 10
-15.4117
 20
-11.0028
 30
0.0
 10
-15.3517
 20
-10.9537
 30
0.0
 10
-15.3217
 20
-10.8825
 30
0.0
 10
-15.3217
 20
-10.789
 30
0.0
 10
-15.3217
 20
-10.789
 30
0.0
 10
-15.3217
 20
-6.5885
 30
0.0
 10
-15.3217
 20
-6.5885
 30
0.0
 10
-15.3217
 20
-6.4957
 30
0.0
 10
-15.3478
 20
-6.4262
 30
0.0
 10
-15.4004
 20
-6.381
 30
0.0
 10
-15.453
 20
-6.3355
 30
0.0
 10
-15.5355
 20
-6.3129
 30
0.0
 10
-15.648
 20
-6.3129
 30
0.0
 10
-15.648
 20
-6.3129
 30
0.0
 10
-16.1021
 20
-6.3129
 30
0.0
 10
-16.1021
 20
-6.3129
 30
0.0
 10
-16.1021
 20
-6.3129
 30
0.0
 10
-16.1021
 20
-6.0441
 30
0.0
 10
-16.1021
 20
-6.0441
 30
0.0
  0
SPLINE
  5
72
330
1F
100
AcDbEntity
  8
Layer 1
 62
   250
100
AcDbSpline
210
0.0
220
0.0
230
1.0
 70
    11
 71
     3
 72
   125
 73
   121
 74
     0
 42
0.0000000001
 43
0.0000000001
 40
0.0
 40
0.0
 40
0.0
 40
0.0
 40
0.025
 40
0.025
 40
0.025
 40
0.05
 40
0.05
 40
0.05
 40
0.075
 40
0.075
 40
0.075
 40
0.1
 40
0.1
 40
0.1
 40
0.125
 40
0.125
 40
0.125
 40
0.15
 40
0.15
 40
0.15
 40
0.175
 40
0.175
 40
0.175
 40
0.2
 40
0.2
 40
0.2
 40
0.225
 40
0.225
 40
0.225
 40
0.25
 40
0.25
 40
0.25
 40
0.275
 40
0.275
 40
0.275
 40
0.3
 40
0.3
 40
0.3
 40
0.325
 40
0.325
 40
0.325
 40
0.35
 40
0.35
 40
0.35
 40
0.375
 40
0.375
 40
0.375
 40
0.4
 40
0.4
 40
0.4
 40
0.425
 40
0.425
 40
0.425
 40
0.45
 40
0.45
 40
0.45
 40
0.475
 40
0.475
 40
0.475
 40
0.5
 40
0.5
 40
0.5
 40
0.525
 40
0.525
 40
0.525
 40
0.55
 40
0.55
 40
0.55
 40
0.5750000000000001
 40
0.5750000000000001
 40
0.5750000000000001
 40
0.6000000000000001
 40
0.6000000000000001
 40
0.6000000000000001
 40
0.625
 40
0.625
 40
0.625
 40
0.65
 40
0.65
 40
0.65
 40
0.675
 40
0.675
 40
0.675
 40
0.7000000000000001
 40
0.7000000000000001
 40
0.7000000000000001
 40
0.7250000000000001
 40
0.7250000000000001
 40
0.7250000000000001
 40
0.75
 40
0.75
 40
0.75
 40
0.775
 40
0.775
 40
0.775
 40
0.8
 40
0.8
 40
0.8
 40
0.8250000000000001
 40
0.8250000000000001
 40
0.8250000000000001
 40
0.8500000000000001
 40
0.8500000000000001
 40
0.8500000000000001
 40
0.875
 40
0.875
 40
0.875
 40
0.9
 40
0.9
 40
0.9
 40
0.925
 40
0.925
 40
0.925
 40
0.9500000000000001
 40
0.9500000000000001
 40
0.9500000000000001
 40
0.9750000000000001
 40
0.9750000000000001
 40
0.9750000000000001
 40
1.0
 40
1.0
 40
1.0
 40
1.0
 10
-10.286
 20
-6.0441
 30
0.0
 10
-10.286
 20
-6.0441
 30
0.0
 10
-8.4325
 20
-6.0441
 30
0.0
 10
-8.4325
 20
-6.0441
 30
0.0
 10
-8.4325
 20
-6.0441
 30
0.0
 10
-8.4325
 20
-6.3129
 30
0.0
 10
-8.4325
 20
-6.3129
 30
0.0
 10
-8.4325
 20
-6.3129
 30
0.0
 10
-8.5634
 20
-6.3129
 30
0.0
 10
-8.5634
 20
-6.3129
 30
0.0
 10
-8.7574
 20
-6.3129
 30
0.0
 10
-8.8816
 20
-6.3274
 30
0.0
 10
-8.9356
 20
-6.356
 30
0.0
 10
-8.9892
 20
-6.3846
 30
0.0
 10
-9.016
 20
-6.4301
 30
0.0
 10
-9.016
 20
-6.4925
 30
0.0
 10
-9.016
 20
-6.5352
 30
0.0
 10
-8.997
 20
-6.6029
 30
0.0
 10
-8.9596
 20
-6.6964
 30
0.0
 10
-8.9596
 20
-6.6964
 30
0.0
 10
-8.937
 20
-6.7645
 30
0.0
 10
-8.937
 20
-6.7645
 30
0.0
 10
-8.937
 20
-6.7645
 30
0.0
 10
-7.8078
 20
-10.1296
 30
0.0
 10
-7.8078
 20
-10.1296
 30
0.0
 10
-7.8078
 20
-10.1296
 30
0.0
 10
-6.8161
 20
-7.0213
 30
0.0
 10
-6.8161
 20
-7.0213
 30
0.0
 10
-6.9318
 20
-6.6685
 30
0.0
 10
-7.0204
 20
-6.4618
 30
0.0
 10
-7.0814
 20
-6.4022
 30
0.0
 10
-7.1424
 20
-6.3429
 30
0.0
 10
-7.2641
 20
-6.3129
 30
0.0
 10
-7.4465
 20
-6.3129
 30
0.0
 10
-7.4465
 20
-6.3129
 30
0.0
 10
-7.7834
 20
-6.3129
 30
0.0
 10
-7.7834
 20
-6.3129
 30
0.0
 10
-7.7834
 20
-6.3129
 30
0.0
 10
-7.7834
 20
-6.0441
 30
0.0
 10
-7.7834
 20
-6.0441
 30
0.0
 10
-7.7834
 20
-6.0441
 30
0.0
 10
-5.4681
 20
-6.0441
 30
0.0
 10
-5.4681
 20
-6.0441
 30
0.0
 10
-5.4681
 20
-6.0441
 30
0.0
 10
-5.4681
 20
-6.3129
 30
0.0
 10
-5.4681
 20
-6.3129
 30
0.0
 10
-5.4681
 20
-6.3129
 30
0.0
 10
-5.708
 20
-6.3129
 30
0.0
 10
-5.708
 20
-6.3129
 30
0.0
 10
-5.9179
 20
-6.3129
 30
0.0
 10
-6.0541
 20
-6.3292
 30
0.0
 10
-6.1165
 20
-6.3609
 30
0.0
 10
-6.179
 20
-6.3934
 30
0.0
 10
-6.2104
 20
-6.4421
 30
0.0
 10
-6.2104
 20
-6.5066
 30
0.0
 10
-6.2104
 20
-6.5567
 30
0.0
 10
-6.2026
 20
-6.6029
 30
0.0
 10
-6.1878
 20
-6.646
 30
0.0
 10
-6.1878
 20
-6.646
 30
0.0
 10
-5.0385
 20
-10.1296
 30
0.0
 10
-5.0385
 20
-10.1296
 30
0.0
 10
-5.0385
 20
-10.1296
 30
0.0
 10
-4.092
 20
-7.1155
 30
0.0
 10
-4.092
 20
-7.1155
 30
0.0
 10
-4.0546
 20
-6.9984
 30
0.0
 10
-4.0359
 20
-6.8866
 30
0.0
 10
-4.0359
 20
-6.7786
 30
0.0
 10
-4.0359
 20
-6.6188
 30
0.0
 10
-4.074
 20
-6.5013
 30
0.0
 10
-4.1498
 20
-6.4258
 30
0.0
 10
-4.2264
 20
-6.3503
 30
0.0
 10
-4.3403
 20
-6.3129
 30
0.0
 10
-4.4927
 20
-6.3129
 30
0.0
 10
-4.4927
 20
-6.3129
 30
0.0
 10
-4.6649
 20
-6.3129
 30
0.0
 10
-4.6649
 20
-6.3129
 30
0.0
 10
-4.6649
 20
-6.3129
 30
0.0
 10
-4.6649
 20
-6.0441
 30
0.0
 10
-4.6649
 20
-6.0441
 30
0.0
 10
-4.6649
 20
-6.0441
 30
0.0
 10
-2.9239
 20
-6.0441
 30
0.0
 10
-2.9239
 20
-6.0441
 30
0.0
 10
-2.9239
 20
-6.0441
 30
0.0
 10
-2.9239
 20
-6.3129
 30
0.0
 10
-2.9239
 20
-6.3129
 30
0.0
 10
-3.0767
 20
-6.332
 30
0.0
 10
-3.198
 20
-6.3669
 30
0.0
 10
-3.2883
 20
-6.4188
 30
0.0
 10
-3.3783
 20
-6.4696
 30
0.0
 10
-3.4566
 20
-6.5433
 30
0.0
 10
-3.5229
 20
-6.6389
 30
0.0
 10
-3.5892
 20
-6.7349
 30
0.0
 10
-3.6563
 20
-6.8933
 30
0.0
 10
-3.7237
 20
-7.1155
 30
0.0
 10
-3.7237
 20
-7.1155
 30
0.0
 10
-5.091
 20
-11.4702
 30
0.0
 10
-5.091
 20
-11.4702
 30
0.0
 10
-5.091
 20
-11.4702
 30
0.0
 10
-5.3581
 20
-11.4702
 30
0.0
 10
-5.3581
 20
-11.4702
 30
0.0
 10
-5.3581
 20
-11.4702
 30
0.0
 10
-6.6348
 20
-7.5745
 30
0.0
 10
-6.6348
 20
-7.5745
 30
0.0
 10
-6.6348
 20
-7.5745
 30
0.0
 10
-7.8526
 20
-11.4702
 30
0.0
 10
-7.8526
 20
-11.4702
 30
0.0
 10
-7.8526
 20
-11.4702
 30
0.0
 10
-8.1337
 20
-11.4702
 30
0.0
 10
-8.1337
 20
-11.4702
 30
0.0
 10
-8.1337
 20
-11.4702
 30
0.0
 10
-9.6965
 20
-6.7645
 30
0.0
 10
-9.6965
 20
-6.7645
 30
0.0
 10
-9.759
 20
-6.5807
 30
0.0
 10
-9.8299
 20
-6.459
 30
0.0
 10
-9.9086
 20
-6.4008
 30
0.0
 10
-9.9876
 20
-6.3422
 30
0.0
 10
-10.1135
 20
-6.3129
 30
0.0
 10
-10.286
 20
-6.3129
 30
0.0
 10
-10.286
 20
-6.3129
 30
0.0
 10
-10.286
 20
-6.0441
 30
0.0
 10
-10.286
 20
-6.0441
 30
0.0
  0
SPLINE
  5
73
330
1F
100
AcDbEntity
  8
Layer 1
 62
   250
100
AcDbSpline
210
0.0
220
0.0
230
1.0
 70
    11
 71
     3
 72
   110
 73
   106
 74
     0
 42
0.0000000001
 43
0.0000000001
 40
0.0
 40
0.0
 40
0.0
 40
0.0
 40
0.0285714285714286
 40
0.0285714285714286
 40
0.0285714285714286
 40
0.0571428571428571
 40
0.0571428571428571
 40
0.0571428571428571
 40
0.0857142857142857
 40
0.0857142857142857
 40
0.0857142857142857
 40
0.1142857142857143
 40
0.1142857142857143
 40
0.1142857142857143
 40
0.1428571428571428
 40
0.1428571428571428
 40
0.1428571428571428
 40
0.1714285714285714
 40
0.1714285714285714
 40
0.1714285714285714
 40
0.2
 40
0.2
 40
0.2
 40
0.2285714285714286
 40
0.2285714285714286
 40
0.2285714285714286
 40
0.2571428571428571
 40
0.2571428571428571
 40
0.2571428571428571
 40
0.2857142857142857
 40
0.2857142857142857
 40
0.2857142857142857
 40
0.3142857142857143
 40
0.3142857142857143
 40
0.3142857142857143
 40
0.3428571428571429
 40
0.3428571428571429
 40
0.3428571428571429
 40
0.3714285714285714
 40
0.3714285714285714
 40
0.3714285714285714
 40
0.4
 40
0.4
 40
0.4
 40
0.4285714285714285
 40
0.4285714285714285
 40
0.4285714285714285
 40
0.4571428571428571
 40
0.4571428571428571
 40
0.4571428571428571
 40
0.4857142857142857
 40
0.4857142857142857
 40
0.4857142857142857
 40
0.5142857142857142
 40
0.5142857142857142
 40
0.5142857142857142
 40
0.5428571428571428
 40
0.5428571428571428
 40
0.5428571428571428
 40
0.5714285714285714
 40
0.5714285714285714
 40
0.5714285714285714
 40
0.6
 40
0.6
 40
0.6
 40
0.6285714285714286
 40
0.6285714285714286
 40
0.6285714285714286
 40
0.6571428571428571
 40
0.6571428571428571
 40
0.6571428571428571
 40
0.6857142857142857
 40
0.6857142857142857
 40
0.6857142857142857
 40
0.7142857142857143
 40
0.7142857142857143
 40
0.7142857142857143
 40
0.7428571428571429
 40
0.7428571428571429
 40
0.7428571428571429
 40
0.7714285714285714
 40
0.7714285714285714
 40
0.7714285714285714
 40
0.7999999999999999
 40
0.7999999999999999
 40
0.7999999999999999
 40
0.8285714285714285
 40
0.8285714285714285
 40
0.8285714285714285
 40
0.8571428571428571
 40
0.8571428571428571
 40
0.8571428571428571
 40
0.8857142857142857
 40
0.8857142857142857
 40
0.8857142857142857
 40
0.9142857142857143
 40
0.9142857142857143
 40
0.9142857142857143
 40
0.9428571428571428
 40
0.9428571428571428
 40
0.9428571428571428
 40
0.9714285714285714
 40
0.9714285714285714
 40
0.9714285714285714
 40
1.0
 40
1.0
 40
1.0
 40
1.0
 10
-1.7382
 20
-6.0441
 30
0.0
 10
-1.7382
 20
-6.0441
 30
0.0
 10
2.6592
 20
-6.0441
 30
0.0
 10
2.6592
 20
-6.0441
 30
0.0
 10
2.6592
 20
-6.0441
 30
0.0
 10
2.765
 20
-7.8324
 30
0.0
 10
2.765
 20
-7.8324
 30
0.0
 10
2.765
 20
-7.8324
 30
0.0
 10
2.5131
 20
-7.8324
 30
0.0
 10
2.5131
 20
-7.8324
 30
0.0
 10
2.4136
 20
-7.2683
 30
0.0
 10
2.2556
 20
-6.8742
 30
0.0
 10
2.0393
 20
-6.6495
 30
0.0
 10
1.8234
 20
-6.4255
 30
0.0
 10
1.5416
 20
-6.3129
 30
0.0
 10
1.1937
 20
-6.3129
 30
0.0
 10
1.1937
 20
-6.3129
 30
0.0
 10
0.1075
 20
-6.3129
 30
0.0
 10
0.1075
 20
-6.3129
 30
0.0
 10
0.02
 20
-6.3129
 30
0.0
 10
-0.0463
 20
-6.3355
 30
0.0
 10
-0.0911
 20
-6.381
 30
0.0
 10
-0.1359
 20
-6.4262
 30
0.0
 10
-0.1585
 20
-6.4957
 30
0.0
 10
-0.1585
 20
-6.5885
 30
0.0
 10
-0.1585
 20
-6.5885
 30
0.0
 10
-0.1585
 20
-8.4776
 30
0.0
 10
-0.1585
 20
-8.4776
 30
0.0
 10
-0.1585
 20
-8.4776
 30
0.0
 10
0.3167
 20
-8.4776
 30
0.0
 10
0.3167
 20
-8.4776
 30
0.0
 10
0.5711
 20
-8.4776
 30
0.0
 10
0.7778
 20
-8.3901
 30
0.0
 10
0.9362
 20
-8.2158
 30
0.0
 10
1.0946
 20
-8.0412
 30
0.0
 10
1.1796
 20
-7.7734
 30
0.0
 10
1.1919
 20
-7.4133
 30
0.0
 10
1.1919
 20
-7.4133
 30
0.0
 10
1.4516
 20
-7.4133
 30
0.0
 10
1.4516
 20
-7.4133
 30
0.0
 10
1.4516
 20
-7.4133
 30
0.0
 10
1.4516
 20
-9.8682
 30
0.0
 10
1.4516
 20
-9.8682
 30
0.0
 10
1.4516
 20
-9.8682
 30
0.0
 10
1.1919
 20
-9.8682
 30
0.0
 10
1.1919
 20
-9.8682
 30
0.0
 10
1.1796
 20
-9.4618
 30
0.0
 10
1.0935
 20
-9.1708
 30
0.0
 10
0.932
 20
-8.9955
 30
0.0
 10
0.7714
 20
-8.8198
 30
0.0
 10
0.5527
 20
-8.7319
 30
0.0
 10
0.2754
 20
-8.7319
 30
0.0
 10
0.2754
 20
-8.7319
 30
0.0
 10
-0.1585
 20
-8.7319
 30
0.0
 10
-0.1585
 20
-8.7319
 30
0.0
 10
-0.1585
 20
-8.7319
 30
0.0
 10
-0.1585
 20
-10.8394
 30
0.0
 10
-0.1585
 20
-10.8394
 30
0.0
 10
-0.1585
 20
-10.916
 30
0.0
 10
-0.1317
 20
-10.9745
 30
0.0
 10
-0.0781
 20
-11.0151
 30
0.0
 10
-0.0241
 20
-11.0553
 30
0.0
 10
0.0652
 20
-11.0761
 30
0.0
 10
0.1901
 20
-11.0761
 30
0.0
 10
0.1901
 20
-11.0761
 30
0.0
 10
1.0487
 20
-11.0761
 30
0.0
 10
1.0487
 20
-11.0761
 30
0.0
 10
1.9804
 20
-11.0761
 30
0.0
 10
2.5177
 20
-10.5068
 30
0.0
 10
2.6592
 20
-9.3701
 30
0.0
 10
2.6592
 20
-9.3701
 30
0.0
 10
2.9301
 20
-9.3701
 30
0.0
 10
2.9301
 20
-9.3701
 30
0.0
 10
2.9301
 20
-9.3701
 30
0.0
 10
2.8359
 20
-11.3446
 30
0.0
 10
2.8359
 20
-11.3446
 30
0.0
 10
2.8359
 20
-11.3446
 30
0.0
 10
-1.7382
 20
-11.3446
 30
0.0
 10
-1.7382
 20
-11.3446
 30
0.0
 10
-1.7382
 20
-11.3446
 30
0.0
 10
-1.7382
 20
-11.0761
 30
0.0
 10
-1.7382
 20
-11.0761
 30
0.0
 10
-1.7382
 20
-11.0761
 30
0.0
 10
-1.3593
 20
-11.0761
 30
0.0
 10
-1.3593
 20
-11.0761
 30
0.0
 10
-1.2119
 20
-11.0761
 30
0.0
 10
-1.1078
 20
-11.0515
 30
0.0
 10
-1.0478
 20
-11.0028
 30
0.0
 10
-0.9879
 20
-10.9537
 30
0.0
 10
-0.9579
 20
-10.8825
 30
0.0
 10
-0.9579
 20
-10.789
 30
0.0
 10
-0.9579
 20
-10.789
 30
0.0
 10
-0.9579
 20
-6.5885
 30
0.0
 10
-0.9579
 20
-6.5885
 30
0.0
 10
-0.9579
 20
-6.4957
 30
0.0
 10
-0.984
 20
-6.4262
 30
0.0
 10
-1.0365
 20
-6.381
 30
0.0
 10
-1.0891
 20
-6.3355
 30
0.0
 10
-1.1717
 20
-6.3129
 30
0.0
 10
-1.2842
 20
-6.3129
 30
0.0
 10
-1.2842
 20
-6.3129
 30
0.0
 10
-1.7382
 20
-6.3129
 30
0.0
 10
-1.7382
 20
-6.3129
 30
0.0
 10
-1.7382
 20
-6.3129
 30
0.0
 10
-1.7382
 20
-6.0441
 30
0.0
 10
-1.7382
 20
-6.0441
 30
0.0
  0
SPLINE
  5
74
330
1F
100
AcDbEntity
  8
Layer 1
 62
   250
100
AcDbSpline
210
0.0
220
0.0
230
1.0
 70
    11
 71
     3
 72
    74
 73
    70
 74
     0
 42
0.0000000001
 43
0.0000000001
 40
0.0
 40
0.0
 40
0.0
 40
0.0
 40
0.0434782608695652
 40
0.0434782608695652
 40
0.0434782608695652
 40
0.0869565217391304
 40
0.0869565217391304
 40
0.0869565217391304
 40
0.1304347826086956
 40
0.1304347826086956
 40
0.1304347826086956
 40
0.1739130434782609
 40
0.1739130434782609
 40
0.1739130434782609
 40
0.2173913043478261
 40
0.2173913043478261
 40
0.2173913043478261
 40
0.2608695652173913
 40
0.2608695652173913
 40
0.2608695652173913
 40
0.3043478260869565
 40
0.3043478260869565
 40
0.3043478260869565
 40
0.3478260869565217
 40
0.3478260869565217
 40
0.3478260869565217
 40
0.3913043478260869
 40
0.3913043478260869
 40
0.3913043478260869
 40
0.4347826086956522
 40
0.4347826086956522
 40
0.4347826086956522
 40
0.4782608695652174
 40
0.4782608695652174
 40
0.4782608695652174
 40
0.5217391304347826
 40
0.5217391304347826
 40
0.5217391304347826
 40
0.5652173913043478
 40
0.5652173913043478
 40
0.5652173913043478
 40
0.6086956521739131
 40
0.6086956521739131
 40
0.6086956521739131
 40
0.6521739130434783
 40
0.6521739130434783
 40
0.6521739130434783
 40
0.6956521739130435
 40
0.6956521739130435
 40
0.6956521739130435
 40
0.7391304347826086
 40
0.7391304347826086
 40
0.7391304347826086
 40
0.7826086956521738
 40
0.7826086956521738
 40
0.7826086956521738
 40
0.8260869565217391
 40
0.8260869565217391
 40
0.8260869565217391
 40
0.8695652173913043
 40
0.8695652173913043
 40
0.8695652173913043
 40
0.9130434782608695
 40
0.9130434782608695
 40
0.9130434782608695
 40
0.9565217391304348
 40
0.9565217391304348
 40
0.9565217391304348
 40
1.0
 40
1.0
 40
1.0
 40
1.0
 10
4.1868
 20
-6.0441
 30
0.0
 10
4.1868
 20
-6.0441
 30
0.0
 10
6.7607
 20
-6.0441
 30
0.0
 10
6.7607
 20
-6.0441
 30
0.0
 10
6.7607
 20
-6.0441
 30
0.0
 10
6.7607
 20
-6.3129
 30
0.0
 10
6.7607
 20
-6.3129
 30
0.0
 10
6.7607
 20
-6.3129
 30
0.0
 10
6.1454
 20
-6.3129
 30
0.0
 10
6.1454
 20
-6.3129
 30
0.0
 10
6.0477
 20
-6.3129
 30
0.0
 10
5.9758
 20
-6.3376
 30
0.0
 10
5.9295
 20
-6.3863
 30
0.0
 10
5.8833
 20
-6.435
 30
0.0
 10
5.86
 20
-6.5123
 30
0.0
 10
5.86
 20
-6.6174
 30
0.0
 10
5.86
 20
-6.6174
 30
0.0
 10
5.86
 20
-10.7996
 30
0.0
 10
5.86
 20
-10.7996
 30
0.0
 10
5.86
 20
-10.9005
 30
0.0
 10
5.8893
 20
-10.9714
 30
0.0
 10
5.9482
 20
-11.0134
 30
0.0
 10
6.0068
 20
-11.055
 30
0.0
 10
6.1246
 20
-11.0761
 30
0.0
 10
6.3024
 20
-11.0761
 30
0.0
 10
6.3024
 20
-11.0761
 30
0.0
 10
7.0817
 20
-11.0761
 30
0.0
 10
7.0817
 20
-11.0761
 30
0.0
 10
7.4966
 20
-11.0761
 30
0.0
 10
7.836
 20
-10.9439
 30
0.0
 10
8.0991
 20
-10.68
 30
0.0
 10
8.3627
 20
-10.4161
 30
0.0
 10
8.5546
 20
-9.9578
 30
0.0
 10
8.6745
 20
-9.3052
 30
0.0
 10
8.6745
 20
-9.3052
 30
0.0
 10
8.9373
 20
-9.3052
 30
0.0
 10
8.9373
 20
-9.3052
 30
0.0
 10
8.9373
 20
-9.3052
 30
0.0
 10
8.8096
 20
-11.3446
 30
0.0
 10
8.8096
 20
-11.3446
 30
0.0
 10
8.8096
 20
-11.3446
 30
0.0
 10
4.1868
 20
-11.3446
 30
0.0
 10
4.1868
 20
-11.3446
 30
0.0
 10
4.1868
 20
-11.3446
 30
0.0
 10
4.1868
 20
-11.0761
 30
0.0
 10
4.1868
 20
-11.0761
 30
0.0
 10
4.1868
 20
-11.0761
 30
0.0
 10
4.6405
 20
-11.0761
 30
0.0
 10
4.6405
 20
-11.0761
 30
0.0
 10
4.7961
 20
-11.0761
 30
0.0
 10
4.9047
 20
-11.0479
 30
0.0
 10
4.9672
 20
-10.9915
 30
0.0
 10
5.03
 20
-10.9357
 30
0.0
 10
5.061
 20
-10.8451
 30
0.0
 10
5.061
 20
-10.7209
 30
0.0
 10
5.061
 20
-10.7209
 30
0.0
 10
5.061
 20
-6.5814
 30
0.0
 10
5.061
 20
-6.5814
 30
0.0
 10
5.061
 20
-6.4929
 30
0.0
 10
5.0345
 20
-6.4262
 30
0.0
 10
4.9823
 20
-6.381
 30
0.0
 10
4.9298
 20
-6.3355
 30
0.0
 10
4.8525
 20
-6.3129
 30
0.0
 10
4.7499
 20
-6.3129
 30
0.0
 10
4.7499
 20
-6.3129
 30
0.0
 10
4.1868
 20
-6.3129
 30
0.0
 10
4.1868
 20
-6.3129
 30
0.0
 10
4.1868
 20
-6.3129
 30
0.0
 10
4.1868
 20
-6.0441
 30
0.0
 10
4.1868
 20
-6.0441
 30
0.0
  0
SPLINE
  5
75
330
1F
100
AcDbEntity
  8
Layer 1
 62
   250
100
AcDbSpline
210
0.0
220
0.0
230
1.0
 70
    11
 71
     3
 72
   110
 73
   106
 74
     0
 42
0.0000000001
 43
0.0000000001
 40
0.0
 40
0.0
 40
0.0
 40
0.0
 40
0.0285714285714286
 40
0.0285714285714286
 40
0.0285714285714286
 40
0.0571428571428571
 40
0.0571428571428571
 40
0.0571428571428571
 40
0.0857142857142857
 40
0.0857142857142857
 40
0.0857142857142857
 40
0.1142857142857143
 40
0.1142857142857143
 40
0.1142857142857143
 40
0.1428571428571428
 40
0.1428571428571428
 40
0.1428571428571428
 40
0.1714285714285714
 40
0.1714285714285714
 40
0.1714285714285714
 40
0.2
 40
0.2
 40
0.2
 40
0.2285714285714286
 40
0.2285714285714286
 40
0.2285714285714286
 40
0.2571428571428571
 40
0.2571428571428571
 40
0.2571428571428571
 40
0.2857142857142857
 40
0.2857142857142857
 40
0.2857142857142857
 40
0.3142857142857143
 40
0.3142857142857143
 40
0.3142857142857143
 40
0.3428571428571429
 40
0.3428571428571429
 40
0.3428571428571429
 40
0.3714285714285714
 40
0.3714285714285714
 40
0.3714285714285714
 40
0.4
 40
0.4
 40
0.4
 40
0.4285714285714285
 40
0.4285714285714285
 40
0.4285714285714285
 40
0.4571428571428571
 40
0.4571428571428571
 40
0.4571428571428571
 40
0.4857142857142857
 40
0.4857142857142857
 40
0.4857142857142857
 40
0.5142857142857142
 40
0.5142857142857142
 40
0.5142857142857142
 40
0.5428571428571428
 40
0.5428571428571428
 40
0.5428571428571428
 40
0.5714285714285714
 40
0.5714285714285714
 40
0.5714285714285714
 40
0.6
 40
0.6
 40
0.6
 40
0.6285714285714286
 40
0.6285714285714286
 40
0.6285714285714286
 40
0.6571428571428571
 40
0.6571428571428571
 40
0.6571428571428571
 40
0.6857142857142857
 40
0.6857142857142857
 40
0.6857142857142857
 40
0.7142857142857143
 40
0.7142857142857143
 40
0.7142857142857143
 40
0.7428571428571429
 40
0.7428571428571429
 40
0.7428571428571429
 40
0.7714285714285714
 40
0.7714285714285714
 40
0.7714285714285714
 40
0.7999999999999999
 40
0.7999999999999999
 40
0.7999999999999999
 40
0.8285714285714285
 40
0.8285714285714285
 40
0.8285714285714285
 40
0.8571428571428571
 40
0.8571428571428571
 40
0.8571428571428571
 40
0.8857142857142857
 40
0.8857142857142857
 40
0.8857142857142857
 40
0.9142857142857143
 40
0.9142857142857143
 40
0.9142857142857143
 40
0.9428571428571428
 40
0.9428571428571428
 40
0.9428571428571428
 40
0.9714285714285714
 40
0.9714285714285714
 40
0.9714285714285714
 40
1.0
 40
1.0
 40
1.0
 40
1.0
 10
10.2126
 20
-6.0441
 30
0.0
 10
10.2126
 20
-6.0441
 30
0.0
 10
14.6107
 20
-6.0441
 30
0.0
 10
14.6107
 20
-6.0441
 30
0.0
 10
14.6107
 20
-6.0441
 30
0.0
 10
14.7162
 20
-7.8324
 30
0.0
 10
14.7162
 20
-7.8324
 30
0.0
 10
14.7162
 20
-7.8324
 30
0.0
 10
14.4646
 20
-7.8324
 30
0.0
 10
14.4646
 20
-7.8324
 30
0.0
 10
14.3645
 20
-7.2683
 30
0.0
 10
14.2064
 20
-6.8742
 30
0.0
 10
13.9905
 20
-6.6495
 30
0.0
 10
13.7743
 20
-6.4255
 30
0.0
 10
13.4927
 20
-6.3129
 30
0.0
 10
13.1453
 20
-6.3129
 30
0.0
 10
13.1453
 20
-6.3129
 30
0.0
 10
12.0587
 20
-6.3129
 30
0.0
 10
12.0587
 20
-6.3129
 30
0.0
 10
11.9712
 20
-6.3129
 30
0.0
 10
11.9049
 20
-6.3355
 30
0.0
 10
11.8601
 20
-6.381
 30
0.0
 10
11.8153
 20
-6.4262
 30
0.0
 10
11.7927
 20
-6.4957
 30
0.0
 10
11.7927
 20
-6.5885
 30
0.0
 10
11.7927
 20
-6.5885
 30
0.0
 10
11.7927
 20
-8.4776
 30
0.0
 10
11.7927
 20
-8.4776
 30
0.0
 10
11.7927
 20
-8.4776
 30
0.0
 10
12.2675
 20
-8.4776
 30
0.0
 10
12.2675
 20
-8.4776
 30
0.0
 10
12.5226
 20
-8.4776
 30
0.0
 10
12.7286
 20
-8.3901
 30
0.0
 10
12.8874
 20
-8.2158
 30
0.0
 10
13.0454
 20
-8.0412
 30
0.0
 10
13.1308
 20
-7.7734
 30
0.0
 10
13.1435
 20
-7.4133
 30
0.0
 10
13.1435
 20
-7.4133
 30
0.0
 10
13.4028
 20
-7.4133
 30
0.0
 10
13.4028
 20
-7.4133
 30
0.0
 10
13.4028
 20
-7.4133
 30
0.0
 10
13.4028
 20
-9.8682
 30
0.0
 10
13.4028
 20
-9.8682
 30
0.0
 10
13.4028
 20
-9.8682
 30
0.0
 10
13.1435
 20
-9.8682
 30
0.0
 10
13.1435
 20
-9.8682
 30
0.0
 10
13.1308
 20
-9.4618
 30
0.0
 10
13.0444
 20
-9.1708
 30
0.0
 10
12.8831
 20
-8.9955
 30
0.0
 10
12.7223
 20
-8.8198
 30
0.0
 10
12.5036
 20
-8.7319
 30
0.0
 10
12.227
 20
-8.7319
 30
0.0
 10
12.227
 20
-8.7319
 30
0.0
 10
11.7927
 20
-8.7319
 30
0.0
 10
11.7927
 20
-8.7319
 30
0.0
 10
11.7927
 20
-8.7319
 30
0.0
 10
11.7927
 20
-10.8394
 30
0.0
 10
11.7927
 20
-10.8394
 30
0.0
 10
11.7927
 20
-10.916
 30
0.0
 10
11.8195
 20
-10.9745
 30
0.0
 10
11.8731
 20
-11.0151
 30
0.0
 10
11.9268
 20
-11.0553
 30
0.0
 10
12.016
 20
-11.0761
 30
0.0
 10
12.1413
 20
-11.0761
 30
0.0
 10
12.1413
 20
-11.0761
 30
0.0
 10
12.9992
 20
-11.0761
 30
0.0
 10
12.9992
 20
-11.0761
 30
0.0
 10
13.9312
 20
-11.0761
 30
0.0
 10
14.4682
 20
-10.5068
 30
0.0
 10
14.6107
 20
-9.3701
 30
0.0
 10
14.6107
 20
-9.3701
 30
0.0
 10
14.8809
 20
-9.3701
 30
0.0
 10
14.8809
 20
-9.3701
 30
0.0
 10
14.8809
 20
-9.3701
 30
0.0
 10
14.7874
 20
-11.3446
 30
0.0
 10
14.7874
 20
-11.3446
 30
0.0
 10
14.7874
 20
-11.3446
 30
0.0
 10
10.2126
 20
-11.3446
 30
0.0
 10
10.2126
 20
-11.3446
 30
0.0
 10
10.2126
 20
-11.3446
 30
0.0
 10
10.2126
 20
-11.0761
 30
0.0
 10
10.2126
 20
-11.0761
 30
0.0
 10
10.2126
 20
-11.0761
 30
0.0
 10
10.5922
 20
-11.0761
 30
0.0
 10
10.5922
 20
-11.0761
 30
0.0
 10
10.7397
 20
-11.0761
 30
0.0
 10
10.843
 20
-11.0515
 30
0.0
 10
10.9034
 20
-11.0028
 30
0.0
 10
10.9633
 20
-10.9537
 30
0.0
 10
10.9933
 20
-10.8825
 30
0.0
 10
10.9933
 20
-10.789
 30
0.0
 10
10.9933
 20
-10.789
 30
0.0
 10
10.9933
 20
-6.5885
 30
0.0
 10
10.9933
 20
-6.5885
 30
0.0
 10
10.9933
 20
-6.4957
 30
0.0
 10
10.9672
 20
-6.4262
 30
0.0
 10
10.9143
 20
-6.381
 30
0.0
 10
10.8621
 20
-6.3355
 30
0.0
 10
10.7795
 20
-6.3129
 30
0.0
 10
10.667
 20
-6.3129
 30
0.0
 10
10.667
 20
-6.3129
 30
0.0
 10
10.2126
 20
-6.3129
 30
0.0
 10
10.2126
 20
-6.3129
 30
0.0
 10
10.2126
 20
-6.3129
 30
0.0
 10
10.2126
 20
-6.0441
 30
0.0
 10
10.2126
 20
-6.0441
 30
0.0
  0
SPLINE
  5
76
330
1F
100
AcDbEntity
  8
Layer 1
 62
   250
100
AcDbSpline
210
0.0
220
0.0
230
1.0
 70
    11
 71
     3
 72
    32
 73
    28
 74
     0
 42
0.0000000001
 43
0.0000000001
 40
0.0
 40
0.0
 40
0.0
 40
0.0
 40
0.1111111111111111
 40
0.1111111111111111
 40
0.1111111111111111
 40
0.2222222222222222
 40
0.2222222222222222
 40
0.2222222222222222
 40
0.3333333333333333
 40
0.3333333333333333
 40
0.3333333333333333
 40
0.4444444444444444
 40
0.4444444444444444
 40
0.4444444444444444
 40
0.5555555555555556
 40
0.5555555555555556
 40
0.5555555555555556
 40
0.6666666666666666
 40
0.6666666666666666
 40
0.6666666666666666
 40
0.7777777777777777
 40
0.7777777777777777
 40
0.7777777777777777
 40
0.8888888888888888
 40
0.8888888888888888
 40
0.8888888888888888
 40
1.0
 40
1.0
 40
1.0
 40
1.0
 10
17.7846
 20
-8.4812
 30
0.0
 10
17.7846
 20
-8.4812
 30
0.0
 10
18.4415
 20
-8.4812
 30
0.0
 10
18.4415
 20
-8.4812
 30
0.0
 10
18.8817
 20
-8.4812
 30
0.0
 10
19.2264
 20
-8.4018
 30
0.0
 10
19.4751
 20
-8.2431
 30
0.0
 10
19.7238
 20
-8.0843
 30
0.0
 10
19.8487
 20
-7.8025
 30
0.0
 10
19.8487
 20
-7.3971
 30
0.0
 10
19.8487
 20
-7.1177
 30
0.0
 10
19.8018
 20
-6.8972
 30
0.0
 10
19.7079
 20
-6.7353
 30
0.0
 10
19.6145
 20
-6.573
 30
0.0
 10
19.491
 20
-6.4619
 30
0.0
 10
19.3382
 20
-6.4023
 30
0.0
 10
19.1862
 20
-6.3427
 30
0.0
 10
18.8856
 20
-6.313
 30
0.0
 10
18.4383
 20
-6.313
 30
0.0
 10
18.1427
 20
-6.313
 30
0.0
 10
17.9599
 20
-6.3324
 30
0.0
 10
17.8901
 20
-6.372
 30
0.0
 10
17.8199
 20
-6.4115
 30
0.0
 10
17.7846
 20
-6.4789
 30
0.0
 10
17.7846
 20
-6.5737
 30
0.0
 10
17.7846
 20
-6.5737
 30
0.0
 10
17.7846
 20
-8.4812
 30
0.0
 10
17.7846
 20
-8.4812
 30
0.0
  0
SPLINE
  5
77
330
1F
100
AcDbEntity
  8
Layer 1
 62
   250
100
AcDbSpline
210
0.0
220
0.0
230
1.0
 70
    11
 71
     3
 72
   116
 73
   112
 74
     0
 42
0.0000000001
 43
0.0000000001
 40
0.0
 40
0.0
 40
0.0
 40
0.0
 40
0.027027027027027
 40
0.027027027027027
 40
0.027027027027027
 40
0.0540540540540541
 40
0.0540540540540541
 40
0.0540540540540541
 40
0.0810810810810811
 40
0.0810810810810811
 40
0.0810810810810811
 40
0.1081081081081081
 40
0.1081081081081081
 40
0.1081081081081081
 40
0.1351351351351351
 40
0.1351351351351351
 40
0.1351351351351351
 40
0.1621621621621622
 40
0.1621621621621622
 40
0.1621621621621622
 40
0.1891891891891892
 40
0.1891891891891892
 40
0.1891891891891892
 40
0.2162162162162162
 40
0.2162162162162162
 40
0.2162162162162162
 40
0.2432432432432433
 40
0.2432432432432433
 40
0.2432432432432433
 40
0.2702702702702703
 40
0.2702702702702703
 40
0.2702702702702703
 40
0.2972972972972973
 40
0.2972972972972973
 40
0.2972972972972973
 40
0.3243243243243243
 40
0.3243243243243243
 40
0.3243243243243243
 40
0.3513513513513514
 40
0.3513513513513514
 40
0.3513513513513514
 40
0.3783783783783784
 40
0.3783783783783784
 40
0.3783783783783784
 40
0.4054054054054054
 40
0.4054054054054054
 40
0.4054054054054054
 40
0.4324324324324325
 40
0.4324324324324325
 40
0.4324324324324325
 40
0.4594594594594595
 40
0.4594594594594595
 40
0.4594594594594595
 40
0.4864864864864865
 40
0.4864864864864865
 40
0.4864864864864865
 40
0.5135135135135136
 40
0.5135135135135136
 40
0.5135135135135136
 40
0.5405405405405406
 40
0.5405405405405406
 40
0.5405405405405406
 40
0.5675675675675675
 40
0.5675675675675675
 40
0.5675675675675675
 40
0.5945945945945946
 40
0.5945945945945946
 40
0.5945945945945946
 40
0.6216216216216217
 40
0.6216216216216217
 40
0.6216216216216217
 40
0.6486486486486487
 40
0.6486486486486487
 40
0.6486486486486487
 40
0.6756756756756757
 40
0.6756756756756757
 40
0.6756756756756757
 40
0.7027027027027027
 40
0.7027027027027027
 40
0.7027027027027027
 40
0.7297297297297298
 40
0.7297297297297298
 40
0.7297297297297298
 40
0.7567567567567568
 40
0.7567567567567568
 40
0.7567567567567568
 40
0.7837837837837838
 40
0.7837837837837838
 40
0.7837837837837838
 40
0.8108108108108109
 40
0.8108108108108109
 40
0.8108108108108109
 40
0.8378378378378379
 40
0.8378378378378379
 40
0.8378378378378379
 40
0.8648648648648649
 40
0.8648648648648649
 40
0.8648648648648649
 40
0.8918918918918919
 40
0.8918918918918919
 40
0.8918918918918919
 40
0.918918918918919
 40
0.918918918918919
 40
0.918918918918919
 40
0.945945945945946
 40
0.945945945945946
 40
0.945945945945946
 40
0.972972972972973
 40
0.972972972972973
 40
0.972972972972973
 40
1.0
 40
1.0
 40
1.0
 40
1.0
 10
16.0923
 20
-6.0442
 30
0.0
 10
16.0923
 20
-6.0442
 30
0.0
 10
18.9594
 20
-6.0442
 30
0.0
 10
18.9594
 20
-6.0442
 30
0.0
 10
19.5146
 20
-6.0442
 30
0.0
 10
19.9454
 20
-6.1649
 30
0.0
 10
20.2523
 20
-6.4062
 30
0.0
 10
20.5585
 20
-6.6475
 30
0.0
 10
20.712
 20
-6.9639
 30
0.0
 10
20.712
 20
-7.3559
 30
0.0
 10
20.712
 20
-7.5901
 30
0.0
 10
20.6513
 20
-7.7982
 30
0.0
 10
20.5296
 20
-7.9813
 30
0.0
 10
20.4082
 20
-8.1641
 30
0.0
 10
20.2332
 20
-8.3098
 30
0.0
 10
20.0043
 20
-8.4184
 30
0.0
 10
19.7757
 20
-8.5271
 30
0.0
 10
19.4158
 20
-8.6057
 30
0.0
 10
18.9251
 20
-8.653
 30
0.0
 10
19.2821
 20
-8.7462
 30
0.0
 10
19.528
 20
-8.8379
 30
0.0
 10
19.6628
 20
-8.9275
 30
0.0
 10
19.7976
 20
-9.0171
 30
0.0
 10
19.9059
 20
-9.1328
 30
0.0
 10
19.9866
 20
-9.275
 30
0.0
 10
20.0681
 20
-9.4168
 30
0.0
 10
20.1616
 20
-9.7068
 30
0.0
 10
20.2678
 20
-10.1439
 30
0.0
 10
20.3437
 20
-10.4575
 30
0.0
 10
20.4237
 20
-10.6709
 30
0.0
 10
20.5091
 20
-10.7856
 30
0.0
 10
20.574
 20
-10.8738
 30
0.0
 10
20.6439
 20
-10.9182
 30
0.0
 10
20.7194
 20
-10.9182
 30
0.0
 10
20.7966
 20
-10.9182
 30
0.0
 10
20.8686
 20
-10.8639
 30
0.0
 10
20.9353
 20
-10.7549
 30
0.0
 10
21.0016
 20
-10.6466
 30
0.0
 10
21.0418
 20
-10.4547
 30
0.0
 10
21.057
 20
-10.1795
 30
0.0
 10
21.057
 20
-10.1795
 30
0.0
 10
21.312
 20
-10.1795
 30
0.0
 10
21.312
 20
-10.1795
 30
0.0
 10
21.2648
 20
-10.9923
 30
0.0
 10
20.9508
 20
-11.3987
 30
0.0
 10
20.3701
 20
-11.3987
 30
0.0
 10
20.1877
 20
-11.3987
 30
0.0
 10
20.0293
 20
-11.3542
 30
0.0
 10
19.8956
 20
-11.266
 30
0.0
 10
19.7616
 20
-11.1775
 30
0.0
 10
19.661
 20
-11.0473
 30
0.0
 10
19.5936
 20
-10.8752
 30
0.0
 10
19.5411
 20
-10.7461
 30
0.0
 10
19.4822
 20
-10.4081
 30
0.0
 10
19.4173
 20
-9.8609
 30
0.0
 10
19.3795
 20
-9.5431
 30
0.0
 10
19.3202
 20
-9.3173
 30
0.0
 10
19.2388
 20
-9.1832
 30
0.0
 10
19.158
 20
-9.0495
 30
0.0
 10
19.0306
 20
-8.9423
 30
0.0
 10
18.8581
 20
-8.8612
 30
0.0
 10
18.6856
 20
-8.78
 30
0.0
 10
18.4792
 20
-8.7391
 30
0.0
 10
18.239
 20
-8.7391
 30
0.0
 10
18.239
 20
-8.7391
 30
0.0
 10
17.7846
 20
-8.7391
 30
0.0
 10
17.7846
 20
-8.7391
 30
0.0
 10
17.7846
 20
-8.7391
 30
0.0
 10
17.7846
 20
-10.8215
 30
0.0
 10
17.7846
 20
-10.8215
 30
0.0
 10
17.7846
 20
-10.9097
 30
0.0
 10
17.8082
 20
-10.9722
 30
0.0
 10
17.8559
 20
-11.0078
 30
0.0
 10
17.9162
 20
-11.0533
 30
0.0
 10
18.01
 20
-11.0759
 30
0.0
 10
18.1377
 20
-11.0759
 30
0.0
 10
18.1377
 20
-11.0759
 30
0.0
 10
18.6704
 20
-11.0759
 30
0.0
 10
18.6704
 20
-11.0759
 30
0.0
 10
18.6704
 20
-11.0759
 30
0.0
 10
18.6704
 20
-11.3447
 30
0.0
 10
18.6704
 20
-11.3447
 30
0.0
 10
18.6704
 20
-11.3447
 30
0.0
 10
16.0923
 20
-11.3447
 30
0.0
 10
16.0923
 20
-11.3447
 30
0.0
 10
16.0923
 20
-11.3447
 30
0.0
 10
16.0923
 20
-11.0759
 30
0.0
 10
16.0923
 20
-11.0759
 30
0.0
 10
16.0923
 20
-11.0759
 30
0.0
 10
16.6367
 20
-11.0759
 30
0.0
 10
16.6367
 20
-11.0759
 30
0.0
 10
16.7566
 20
-11.0759
 30
0.0
 10
16.8448
 20
-11.0533
 30
0.0
 10
16.9012
 20
-11.0078
 30
0.0
 10
16.9573
 20
-10.9627
 30
0.0
 10
16.9856
 20
-10.9002
 30
0.0
 10
16.9856
 20
-10.8215
 30
0.0
 10
16.9856
 20
-10.8215
 30
0.0
 10
16.9856
 20
-6.585
 30
0.0
 10
16.9856
 20
-6.585
 30
0.0
 10
16.9856
 20
-6.4944
 30
0.0
 10
16.957
 20
-6.4263
 30
0.0
 10
16.8991
 20
-6.3811
 30
0.0
 10
16.8416
 20
-6.3356
 30
0.0
 10
16.7541
 20
-6.313
 30
0.0
 10
16.6367
 20
-6.313
 30
0.0
 10
16.6367
 20
-6.313
 30
0.0
 10
16.0923
 20
-6.313
 30
0.0
 10
16.0923
 20
-6.313
 30
0.0
 10
16.0923
 20
-6.313
 30
0.0
 10
16.0923
 20
-6.0442
 30
0.0
 10
16.0923
 20
-6.0442
 30
0.0
  0
SPLINE
  5
78
330
1F
100
AcDbEntity
  8
Layer 1
 62
   250
100
AcDbSpline
210
0.0
220
0.0
230
1.0
 70
    11
 71
     3
 72
    41
 73
    37
 74
     0
 42
0.0000000001
 43
0.0000000001
 40
0.0
 40
0.0
 40
0.0
 40
0.0
 40
0.0833333333333333
 40
0.0833333333333333
 40
0.0833333333333333
 40
0.1666666666666667
 40
0.1666666666666667
 40
0.1666666666666667
 40
0.25
 40
0.25
 40
0.25
 40
0.3333333333333333
 40
0.3333333333333333
 40
0.3333333333333333
 40
0.4166666666666666
 40
0.4166666666666666
 40
0.4166666666666666
 40
0.5
 40
0.5
 40
0.5
 40
0.5833333333333333
 40
0.5833333333333333
 40
0.5833333333333333
 40
0.6666666666666666
 40
0.6666666666666666
 40
0.6666666666666666
 40
0.75
 40
0.75
 40
0.75
 40
0.8333333333333333
 40
0.8333333333333333
 40
0.8333333333333333
 40
0.9166666666666666
 40
0.9166666666666666
 40
0.9166666666666666
 40
1.0
 40
1.0
 40
1.0
 40
1.0
 10
-17.4015
 20
-19.6303
 30
0.0
 10
-17.4015
 20
-19.6303
 30
0.0
 10
-21.0559
 20
-19.6303
 30
0.0
 10
-21.0559
 20
-19.6303
 30
0.0
 10
-21.2698
 20
-19.6303
 30
0.0
 10
-21.4635
 20
-19.5435
 30
0.0
 10
-21.6035
 20
-19.4035
 30
0.0
 10
-21.7435
 20
-19.2628
 30
0.0
 10
-21.8301
 20
-19.0692
 30
0.0
 10
-21.8301
 20
-18.8557
 30
0.0
 10
-21.8301
 20
-18.8557
 30
0.0
 10
-21.8301
 20
-15.1794
 30
0.0
 10
-21.8301
 20
-15.1794
 30
0.0
 10
-21.8301
 20
-14.9656
 30
0.0
 10
-21.7433
 20
-14.7717
 30
0.0
 10
-21.6033
 20
-14.6317
 30
0.0
 10
-21.4628
 20
-14.4918
 30
0.0
 10
-21.2692
 20
-14.4049
 30
0.0
 10
-21.0559
 20
-14.4049
 30
0.0
 10
-21.0559
 20
-14.4049
 30
0.0
 10
-17.4015
 20
-14.4049
 30
0.0
 10
-17.4015
 20
-14.4049
 30
0.0
 10
-17.1881
 20
-14.4049
 30
0.0
 10
-16.9943
 20
-14.4919
 30
0.0
 10
-16.8541
 20
-14.6323
 30
0.0
 10
-16.7141
 20
-14.7724
 30
0.0
 10
-16.6274
 20
-14.9661
 30
0.0
 10
-16.6274
 20
-15.1794
 30
0.0
 10
-16.6274
 20
-15.1794
 30
0.0
 10
-16.6274
 20
-18.8557
 30
0.0
 10
-16.6274
 20
-18.8557
 30
0.0
 10
-16.6274
 20
-19.0692
 30
0.0
 10
-16.714
 20
-19.2628
 30
0.0
 10
-16.854
 20
-19.4029
 30
0.0
 10
-16.9942
 20
-19.5433
 30
0.0
 10
-17.1879
 20
-19.6303
 30
0.0
 10
-17.4015
 20
-19.6303
 30
0.0
  0
SPLINE
  5
79
330
1F
100
AcDbEntity
  8
Layer 1
 62
   250
100
AcDbSpline
210
0.0
220
0.0
230
1.0
 70
    11
 71
     3
 72
    41
 73
    37
 74
     0
 42
0.0000000001
 43
0.0000000001
 40
0.0
 40
0.0
 40
0.0
 40
0.0
 40
0.0833333333333333
 40
0.0833333333333333
 40
0.0833333333333333
 40
0.1666666666666667
 40
0.1666666666666667
 40
0.1666666666666667
 40
0.25
 40
0.25
 40
0.25
 40
0.3333333333333333
 40
0.3333333333333333
 40
0.3333333333333333
 40
0.4166666666666666
 40
0.4166666666666666
 40
0.4166666666666666
 40
0.5
 40
0.5
 40
0.5
 40
0.5833333333333333
 40
0.5833333333333333
 40
0.5833333333333333
 40
0.6666666666666666
 40
0.6666666666666666
 40
0.6666666666666666
 40
0.75
 40
0.75
 40
0.75
 40
0.8333333333333333
 40
0.8333333333333333
 40
0.8333333333333333
 40
0.9166666666666666
 40
0.9166666666666666
 40
0.9166666666666666
 40
1.0
 40
1.0
 40
1.0
 40
1.0
 10
-21.0559
 20
-19.3181
 30
0.0
 10
-21.0559
 20
-19.3181
 30
0.0
 10
-17.4015
 20
-19.3181
 30
0.0
 10
-17.4015
 20
-19.3181
 30
0.0
 10
-17.2735
 20
-19.3181
 30
0.0
 10
-17.1579
 20
-19.2665
 30
0.0
 10
-17.0748
 20
-19.1833
 30
0.0
 10
-16.9913
 20
-19.0997
 30
0.0
 10
-16.9396
 20
-18.9838
 30
0.0
 10
-16.9396
 20
-18.8557
 30
0.0
 10
-16.9396
 20
-18.8557
 30
0.0
 10
-16.9396
 20
-15.1794
 30
0.0
 10
-16.9396
 20
-15.1794
 30
0.0
 10
-16.9396
 20
-15.0515
 30
0.0
 10
-16.9914
 20
-14.9355
 30
0.0
 10
-17.0749
 20
-14.8519
 30
0.0
 10
-17.158
 20
-14.7687
 30
0.0
 10
-17.2736
 20
-14.7171
 30
0.0
 10
-17.4015
 20
-14.7171
 30
0.0
 10
-17.4015
 20
-14.7171
 30
0.0
 10
-21.0559
 20
-14.7171
 30
0.0
 10
-21.0559
 20
-14.7171
 30
0.0
 10
-21.1838
 20
-14.7171
 30
0.0
 10
-21.2994
 20
-14.7687
 30
0.0
 10
-21.3825
 20
-14.8519
 30
0.0
 10
-21.4661
 20
-14.9361
 30
0.0
 10
-21.5179
 20
-15.0519
 30
0.0
 10
-21.5179
 20
-15.1794
 30
0.0
 10
-21.5179
 20
-15.1794
 30
0.0
 10
-21.5179
 20
-18.8557
 30
0.0
 10
-21.5179
 20
-18.8557
 30
0.0
 10
-21.5179
 20
-18.9836
 30
0.0
 10
-21.4663
 20
-19.0994
 30
0.0
 10
-21.383
 20
-19.183
 30
0.0
 10
-21.2991
 20
-19.2663
 30
0.0
 10
-21.1835
 20
-19.3181
 30
0.0
 10
-21.0559
 20
-19.3181
 30
0.0
  0
SPLINE
  5
7A
330
1F
100
AcDbEntity
  8
Layer 1
 62
   250
100
AcDbSpline
210
0.0
220
0.0
230
1.0
 70
    11
 71
     3
 72
    29
 73
    25
 74
     0
 42
0.0000000001
 43
0.0000000001
 40
0.0
 40
0.0
 40
0.0
 40
0.0
 40
0.125
 40
0.125
 40
0.125
 40
0.25
 40
0.25
 40
0.25
 40
0.375
 40
0.375
 40
0.375
 40
0.5
 40
0.5
 40
0.5
 40
0.625
 40
0.625
 40
0.625
 40
0.75
 40
0.75
 40
0.75
 40
0.875
 40
0.875
 40
0.875
 40
1.0
 40
1.0
 40
1.0
 40
1.0
 10
-17.916
 20
-17.1904
 30
0.0
 10
-17.916
 20
-17.5424
 30
0.0
 10
-18.064
 20
-17.8615
 30
0.0
 10
-18.303
 20
-18.0923
 30
0.0
 10
-18.5402
 20
-18.3215
 30
0.0
 10
-18.8677
 20
-18.4634
 30
0.0
 10
-19.2285
 20
-18.4634
 30
0.0
 10
-19.5895
 20
-18.4634
 30
0.0
 10
-19.917
 20
-18.3216
 30
0.0
 10
-20.1543
 20
-18.0924
 30
0.0
 10
-20.3934
 20
-17.8616
 30
0.0
 10
-20.5414
 20
-17.5426
 30
0.0
 10
-20.5414
 20
-17.1904
 30
0.0
 10
-20.5414
 20
-16.8382
 30
0.0
 10
-20.3934
 20
-16.5192
 30
0.0
 10
-20.1544
 20
-16.2884
 30
0.0
 10
-19.9171
 20
-16.0592
 30
0.0
 10
-19.5895
 20
-15.9174
 30
0.0
 10
-19.2285
 20
-15.9174
 30
0.0
 10
-18.8677
 20
-15.9174
 30
0.0
 10
-18.5402
 20
-16.0593
 30
0.0
 10
-18.3029
 20
-16.2885
 30
0.0
 10
-18.0638
 20
-16.5192
 30
0.0
 10
-17.916
 20
-16.8382
 30
0.0
 10
-17.916
 20
-17.1904
 30
0.0
  0
SPLINE
  5
7B
330
1F
100
AcDbEntity
  8
Layer 1
 62
   250
100
AcDbSpline
210
0.0
220
0.0
230
1.0
 70
    11
 71
     3
 72
    29
 73
    25
 74
     0
 42
0.0000000001
 43
0.0000000001
 40
0.0
 40
0.0
 40
0.0
 40
0.0
 40
0.125
 40
0.125
 40
0.125
 40
0.25
 40
0.25
 40
0.25
 40
0.375
 40
0.375
 40
0.375
 40
0.5
 40
0.5
 40
0.5
 40
0.625
 40
0.625
 40
0.625
 40
0.75
 40
0.75
 40
0.75
 40
0.875
 40
0.875
 40
0.875
 40
1.0
 40
1.0
 40
1.0
 40
1.0
 10
-18.5188
 20
-17.8679
 30
0.0
 10
-18.3394
 20
-17.6946
 30
0.0
 10
-18.2282
 20
-17.4549
 30
0.0
 10
-18.2282
 20
-17.1904
 30
0.0
 10
-18.2282
 20
-16.9257
 30
0.0
 10
-18.3393
 20
-16.686
 30
0.0
 10
-18.5187
 20
-16.5129
 30
0.0
 10
-18.6998
 20
-16.3379
 30
0.0
 10
-18.9509
 20
-16.2296
 30
0.0
 10
-19.2285
 20
-16.2296
 30
0.0
 10
-19.5063
 20
-16.2296
 30
0.0
 10
-19.7575
 20
-16.3379
 30
0.0
 10
-19.9386
 20
-16.5128
 30
0.0
 10
-20.118
 20
-16.6861
 30
0.0
 10
-20.2292
 20
-16.9258
 30
0.0
 10
-20.2292
 20
-17.1904
 30
0.0
 10
-20.2292
 20
-17.4549
 30
0.0
 10
-20.1181
 20
-17.6946
 30
0.0
 10
-19.9385
 20
-17.868
 30
0.0
 10
-19.7574
 20
-18.0429
 30
0.0
 10
-19.5063
 20
-18.1512
 30
0.0
 10
-19.2285
 20
-18.1512
 30
0.0
 10
-18.9509
 20
-18.1512
 30
0.0
 10
-18.6998
 20
-18.0428
 30
0.0
 10
-18.5188
 20
-17.8679
 30
0.0
  0
SPLINE
  5
7C
330
1F
100
AcDbEntity
  8
Layer 1
 62
   250
100
AcDbSpline
210
0.0
220
0.0
230
1.0
 70
    11
 71
     3
 72
    17
 73
    13
 74
     0
 42
0.0000000001
 43
0.0000000001
 40
0.0
 40
0.0
 40
0.0
 40
0.0
 40
0.25
 40
0.25
 40
0.25
 40
0.5
 40
0.5
 40
0.5
 40
0.75
 40
0.75
 40
0.75
 40
1.0
 40
1.0
 40
1.0
 40
1.0
 10
-17.354
 20
-15.5264
 30
0.0
 10
-17.354
 20
-15.6439
 30
0.0
 10
-17.4524
 20
-15.7395
 30
0.0
 10
-17.5745
 20
-15.7395
 30
0.0
 10
-17.6958
 20
-15.7395
 30
0.0
 10
-17.7946
 20
-15.6439
 30
0.0
 10
-17.7946
 20
-15.5264
 30
0.0
 10
-17.7946
 20
-15.409
 30
0.0
 10
-17.6958
 20
-15.3134
 30
0.0
 10
-17.5745
 20
-15.3134
 30
0.0
 10
-17.4524
 20
-15.3134
 30
0.0
 10
-17.354
 20
-15.409
 30
0.0
 10
-17.354
 20
-15.5264
 30
0.0
  0
SPLINE
  5
7D
330
1F
100
AcDbEntity
  8
Layer 1
 62
   250
100
AcDbSpline
210
0.0
220
0.0
230
1.0
 70
    11
 71
     3
 72
    29
 73
    25
 74
     0
 42
0.0000000001
 43
0.0000000001
 40
0.0
 40
0.0
 40
0.0
 40
0.0
 40
0.125
 40
0.125
 40
0.125
 40
0.25
 40
0.25
 40
0.25
 40
0.375
 40
0.375
 40
0.375
 40
0.5
 40
0.5
 40
0.5
 40
0.625
 40
0.625
 40
0.625
 40
0.75
 40
0.75
 40
0.75
 40
0.875
 40
0.875
 40
0.875
 40
1.0
 40
1.0
 40
1.0
 40
1.0
 10
-17.1979
 20
-15.5264
 30
0.0
 10
-17.1979
 20
-15.6282
 30
0.0
 10
-17.241
 20
-15.7211
 30
0.0
 10
-17.3104
 20
-15.7884
 30
0.0
 10
-17.3782
 20
-15.8548
 30
0.0
 10
-17.4719
 20
-15.8956
 30
0.0
 10
-17.5745
 20
-15.8956
 30
0.0
 10
-17.6765
 20
-15.8956
 30
0.0
 10
-17.7698
 20
-15.8546
 30
0.0
 10
-17.838
 20
-15.7886
 30
0.0
 10
-17.9077
 20
-15.7216
 30
0.0
 10
-17.9507
 20
-15.6287
 30
0.0
 10
-17.9507
 20
-15.5264
 30
0.0
 10
-17.9507
 20
-15.4247
 30
0.0
 10
-17.9076
 20
-15.3319
 30
0.0
 10
-17.8382
 20
-15.2646
 30
0.0
 10
-17.7704
 20
-15.1983
 30
0.0
 10
-17.6769
 20
-15.1573
 30
0.0
 10
-17.5745
 20
-15.1573
 30
0.0
 10
-17.4719
 20
-15.1573
 30
0.0
 10
-17.3787
 20
-15.1979
 30
0.0
 10
-17.3107
 20
-15.2635
 30
0.0
 10
-17.2411
 20
-15.3314
 30
0.0
 10
-17.1979
 20
-15.4244
 30
0.0
 10
-17.1979
 20
-15.5264
 30
0.0
  0
SPLINE
  5
7E
330
1F
100
AcDbEntity
  8
Layer 1
 62
   250
100
AcDbSpline
210
0.0
220
0.0
230
1.0
 70
    11
 71
     3
 72
    29
 73
    25
 74
     0
 42
0.0000000001
 43
0.0000000001
 40
0.0
 40
0.0
 40
0.0
 40
0.0
 40
0.125
 40
0.125
 40
0.125
 40
0.25
 40
0.25
 40
0.25
 40
0.375
 40
0.375
 40
0.375
 40
0.5
 40
0.5
 40
0.5
 40
0.625
 40
0.625
 40
0.625
 40
0.75
 40
0.75
 40
0.75
 40
0.875
 40
0.875
 40
0.875
 40
1.0
 40
1.0
 40
1.0
 40
1.0
 10
-17.5268
 20
-15.5655
 30
0.0
 10
-17.5164
 20
-15.5557
 30
0.0
 10
-17.5101
 20
-15.5418
 30
0.0
 10
-17.5101
 20
-15.5264
 30
0.0
 10
-17.5101
 20
-15.5111
 30
0.0
 10
-17.5164
 20
-15.4973
 30
0.0
 10
-17.5262
 20
-15.4876
 30
0.0
 10
-17.5382
 20
-15.4766
 30
0.0
 10
-17.5552
 20
-15.4695
 30
0.0
 10
-17.5745
 20
-15.4695
 30
0.0
 10
-17.5934
 20
-15.4695
 30
0.0
 10
-17.6101
 20
-15.4765
 30
0.0
 10
-17.6215
 20
-15.4875
 30
0.0
 10
-17.6321
 20
-15.4972
 30
0.0
 10
-17.6385
 20
-15.5111
 30
0.0
 10
-17.6385
 20
-15.5264
 30
0.0
 10
-17.6385
 20
-15.5414
 30
0.0
 10
-17.632
 20
-15.5554
 30
0.0
 10
-17.6216
 20
-15.5654
 30
0.0
 10
-17.6105
 20
-15.5766
 30
0.0
 10
-17.5936
 20
-15.5834
 30
0.0
 10
-17.5745
 20
-15.5834
 30
0.0
 10
-17.5552
 20
-15.5834
 30
0.0
 10
-17.5384
 20
-15.5764
 30
0.0
 10
-17.5268
 20
-15.5655
 30
0.0
  0
SPLINE
  5
7F
330
1F
100
AcDbEntity
  8
Layer 1
 62
   250
100
AcDbSpline
210
0.0
220
0.0
230
1.0
 70
    11
 71
     3
 72
    56
 73
    52
 74
     0
 42
0.0000000001
 43
0.0000000001
 40
0.0
 40
0.0
 40
0.0
 40
0.0
 40
0.0588235294117647
 40
0.0588235294117647
 40
0.0588235294117647
 40
0.1176470588235294
 40
0.1176470588235294
 40
0.1176470588235294
 40
0.1764705882352941
 40
0.1764705882352941
 40
0.1764705882352941
 40
0.2352941176470588
 40
0.2352941176470588
 40
0.2352941176470588
 40
0.2941176470588235
 40
0.2941176470588235
 40
0.2941176470588235
 40
0.3529411764705882
 40
0.3529411764705882
 40
0.3529411764705882
 40
0.4117647058823529
 40
0.4117647058823529
 40
0.4117647058823529
 40
0.4705882352941176
 40
0.4705882352941176
 40
0.4705882352941176
 40
0.5294117647058824
 40
0.5294117647058824
 40
0.5294117647058824
 40
0.5882352941176471
 40
0.5882352941176471
 40
0.5882352941176471
 40
0.6470588235294118
 40
0.6470588235294118
 40
0.6470588235294118
 40
0.7058823529411764
 40
0.7058823529411764
 40
0.7058823529411764
 40
0.7647058823529411
 40
0.7647058823529411
 40
0.7647058823529411
 40
0.8235294117647058
 40
0.8235294117647058
 40
0.8235294117647058
 40
0.8823529411764706
 40
0.8823529411764706
 40
0.8823529411764706
 40
0.9411764705882353
 40
0.9411764705882353
 40
0.9411764705882353
 40
1.0
 40
1.0
 40
1.0
 40
1.0
 10
-15.4878
 20
-15.0727
 30
0.0
 10
-15.4878
 20
-15.0727
 30
0.0
 10
-14.9533
 20
-15.0727
 30
0.0
 10
-14.9533
 20
-15.0727
 30
0.0
 10
-14.9533
 20
-15.0727
 30
0.0
 10
-14.4503
 20
-15.0727
 30
0.0
 10
-14.4503
 20
-15.0727
 30
0.0
 10
-14.4503
 20
-15.0727
 30
0.0
 10
-13.968
 20
-15.0727
 30
0.0
 10
-13.968
 20
-15.0727
 30
0.0
 10
-13.968
 20
-15.0727
 30
0.0
 10
-13.968
 20
-15.2826
 30
0.0
 10
-13.968
 20
-15.2826
 30
0.0
 10
-13.968
 20
-15.2826
 30
0.0
 10
-14.4569
 20
-15.3388
 30
0.0
 10
-14.4569
 20
-15.3388
 30
0.0
 10
-14.466
 20
-15.784
 30
0.0
 10
-14.4661
 20
-16.2387
 30
0.0
 10
-14.4661
 20
-16.6972
 30
0.0
 10
-14.4661
 20
-16.6972
 30
0.0
 10
-14.4661
 20
-17.5308
 30
0.0
 10
-14.4661
 20
-17.5308
 30
0.0
 10
-14.4661
 20
-18.1175
 30
0.0
 10
-14.4764
 20
-18.3849
 30
0.0
 10
-14.5286
 20
-18.652
 30
0.0
 10
-14.6284
 20
-19.1762
 30
0.0
 10
-15.0687
 20
-19.4327
 30
0.0
 10
-15.5033
 20
-19.4327
 30
0.0
 10
-15.6973
 20
-19.4327
 30
0.0
 10
-15.9019
 20
-19.3808
 30
0.0
 10
-15.9489
 20
-19.1811
 30
0.0
 10
-15.9175
 20
-18.9928
 30
0.0
 10
-15.7968
 20
-18.9296
 30
0.0
 10
-15.6349
 20
-18.9296
 30
0.0
 10
-15.5033
 20
-18.9296
 30
0.0
 10
-15.3932
 20
-18.9719
 30
0.0
 10
-15.2468
 20
-19.0817
 30
0.0
 10
-15.2468
 20
-19.0817
 30
0.0
 10
-15.1104
 20
-19.185
 30
0.0
 10
-15.1104
 20
-19.185
 30
0.0
 10
-14.9554
 20
-19.04
 30
0.0
 10
-14.9008
 20
-18.8534
 30
0.0
 10
-14.9008
 20
-18.5578
 30
0.0
 10
-14.9008
 20
-18.2541
 30
0.0
 10
-14.9254
 20
-17.7356
 30
0.0
 10
-14.9506
 20
-15.3399
 30
0.0
 10
-14.9506
 20
-15.3399
 30
0.0
 10
-15.4878
 20
-15.2826
 30
0.0
 10
-15.4878
 20
-15.2826
 30
0.0
 10
-15.4878
 20
-15.2826
 30
0.0
 10
-15.4878
 20
-15.0727
 30
0.0
 10
-15.4878
 20
-15.0727
 30
0.0
  0
SPLINE
  5
80
330
1F
100
AcDbEntity
  8
Layer 1
 62
   250
100
AcDbSpline
210
0.0
220
0.0
230
1.0
 70
    11
 71
     3
 72
    32
 73
    28
 74
     0
 42
0.0000000001
 43
0.0000000001
 40
0.0
 40
0.0
 40
0.0
 40
0.0
 40
0.1111111111111111
 40
0.1111111111111111
 40
0.1111111111111111
 40
0.2222222222222222
 40
0.2222222222222222
 40
0.2222222222222222
 40
0.3333333333333333
 40
0.3333333333333333
 40
0.3333333333333333
 40
0.4444444444444444
 40
0.4444444444444444
 40
0.4444444444444444
 40
0.5555555555555556
 40
0.5555555555555556
 40
0.5555555555555556
 40
0.6666666666666666
 40
0.6666666666666666
 40
0.6666666666666666
 40
0.7777777777777777
 40
0.7777777777777777
 40
0.7777777777777777
 40
0.8888888888888888
 40
0.8888888888888888
 40
0.8888888888888888
 40
1.0
 40
1.0
 40
1.0
 40
1.0
 10
-11.4832
 20
-17.033
 30
0.0
 10
-11.4832
 20
-17.1533
 30
0.0
 10
-11.4987
 20
-17.258
 30
0.0
 10
-11.5199
 20
-17.3261
 30
0.0
 10
-11.5199
 20
-17.3261
 30
0.0
 10
-13.2021
 20
-17.3261
 30
0.0
 10
-13.2021
 20
-17.3261
 30
0.0
 10
-13.1936
 20
-17.9749
 30
0.0
 10
-12.86
 20
-18.322
 30
0.0
 10
-12.3426
 20
-18.322
 30
0.0
 10
-12.0071
 20
-18.322
 30
0.0
 10
-11.7975
 20
-18.1703
 30
0.0
 10
-11.6088
 20
-17.9502
 30
0.0
 10
-11.6088
 20
-17.9502
 30
0.0
 10
-11.4885
 20
-18.044
 30
0.0
 10
-11.4885
 20
-18.044
 30
0.0
 10
-11.6772
 20
-18.4162
 30
0.0
 10
-12.0124
 20
-18.6522
 30
0.0
 10
-12.4893
 20
-18.6522
 30
0.0
 10
-13.1917
 20
-18.6522
 30
0.0
 10
-13.6475
 20
-18.1647
 30
0.0
 10
-13.6475
 20
-17.3681
 30
0.0
 10
-13.6475
 20
-16.5662
 30
0.0
 10
-13.1025
 20
-16.0318
 30
0.0
 10
-12.4526
 20
-16.0318
 30
0.0
 10
-11.9129
 20
-16.0318
 30
0.0
 10
-11.4832
 20
-16.3983
 30
0.0
 10
-11.4832
 20
-17.033
 30
0.0
  0
SPLINE
  5
81
330
1F
100
AcDbEntity
  8
Layer 1
 62
   250
100
AcDbSpline
210
0.0
220
0.0
230
1.0
 70
    11
 71
     3
 72
    17
 73
    13
 74
     0
 42
0.0000000001
 43
0.0000000001
 40
0.0
 40
0.0
 40
0.0
 40
0.0
 40
0.25
 40
0.25
 40
0.25
 40
0.5
 40
0.5
 40
0.5
 40
0.75
 40
0.75
 40
0.75
 40
1.0
 40
1.0
 40
1.0
 40
1.0
 10
-13.1928
 20
-17.106
 30
0.0
 10
-13.1928
 20
-17.106
 30
0.0
 10
-12.2064
 20
-17.106
 30
0.0
 10
-12.2064
 20
-17.106
 30
0.0
 10
-11.9549
 20
-17.106
 30
0.0
 10
-11.8974
 20
-16.9853
 30
0.0
 10
-11.8974
 20
-16.8386
 30
0.0
 10
-11.8974
 20
-16.5405
 30
0.0
 10
-12.1489
 20
-16.2674
 30
0.0
 10
-12.4788
 20
-16.2674
 30
0.0
 10
-12.7835
 20
-16.2674
 30
0.0
 10
-13.1316
 20
-16.5009
 30
0.0
 10
-13.1928
 20
-17.106
 30
0.0
  0
SPLINE
  5
82
330
1F
100
AcDbEntity
  8
Layer 1
 62
   250
100
AcDbSpline
210
0.0
220
0.0
230
1.0
 70
    11
 71
     3
 72
    98
 73
    94
 74
     0
 42
0.0000000001
 43
0.0000000001
 40
0.0
 40
0.0
 40
0.0
 40
0.0
 40
0.032258064516129
 40
0.032258064516129
 40
0.032258064516129
 40
0.0645161290322581
 40
0.0645161290322581
 40
0.0645161290322581
 40
0.0967741935483871
 40
0.0967741935483871
 40
0.0967741935483871
 40
0.1290322580645161
 40
0.1290322580645161
 40
0.1290322580645161
 40
0.1612903225806452
 40
0.1612903225806452
 40
0.1612903225806452
 40
0.1935483870967742
 40
0.1935483870967742
 40
0.1935483870967742
 40
0.2258064516129032
 40
0.2258064516129032
 40
0.2258064516129032
 40
0.2580645161290323
 40
0.2580645161290323
 40
0.2580645161290323
 40
0.2903225806451613
 40
0.2903225806451613
 40
0.2903225806451613
 40
0.3225806451612903
 40
0.3225806451612903
 40
0.3225806451612903
 40
0.3548387096774194
 40
0.3548387096774194
 40
0.3548387096774194
 40
0.3870967741935484
 40
0.3870967741935484
 40
0.3870967741935484
 40
0.4193548387096774
 40
0.4193548387096774
 40
0.4193548387096774
 40
0.4516129032258064
 40
0.4516129032258064
 40
0.4516129032258064
 40
0.4838709677419355
 40
0.4838709677419355
 40
0.4838709677419355
 40
0.5161290322580645
 40
0.5161290322580645
 40
0.5161290322580645
 40
0.5483870967741935
 40
0.5483870967741935
 40
0.5483870967741935
 40
0.5806451612903225
 40
0.5806451612903225
 40
0.5806451612903225
 40
0.6129032258064516
 40
0.6129032258064516
 40
0.6129032258064516
 40
0.6451612903225806
 40
0.6451612903225806
 40
0.6451612903225806
 40
0.6774193548387096
 40
0.6774193548387096
 40
0.6774193548387096
 40
0.7096774193548387
 40
0.7096774193548387
 40
0.7096774193548387
 40
0.7419354838709677
 40
0.7419354838709677
 40
0.7419354838709677
 40
0.7741935483870968
 40
0.7741935483870968
 40
0.7741935483870968
 40
0.8064516129032258
 40
0.8064516129032258
 40
0.8064516129032258
 40
0.8387096774193548
 40
0.8387096774193548
 40
0.8387096774193548
 40
0.8709677419354839
 40
0.8709677419354839
 40
0.8709677419354839
 40
0.9032258064516129
 40
0.9032258064516129
 40
0.9032258064516129
 40
0.9354838709677419
 40
0.9354838709677419
 40
0.9354838709677419
 40
0.967741935483871
 40
0.967741935483871
 40
0.967741935483871
 40
1.0
 40
1.0
 40
1.0
 40
1.0
 10
-7.8971
 20
-16.3708
 30
0.0
 10
-7.8971
 20
-16.3708
 30
0.0
 10
-8.2905
 20
-16.2988
 30
0.0
 10
-8.2905
 20
-16.2988
 30
0.0
 10
-8.2905
 20
-16.2988
 30
0.0
 10
-8.2905
 20
-16.0998
 30
0.0
 10
-8.2905
 20
-16.0998
 30
0.0
 10
-8.2905
 20
-16.0998
 30
0.0
 10
-7.8139
 20
-16.0998
 30
0.0
 10
-7.8139
 20
-16.0998
 30
0.0
 10
-7.8139
 20
-16.0998
 30
0.0
 10
-7.52
 20
-16.0998
 30
0.0
 10
-7.52
 20
-16.0998
 30
0.0
 10
-7.52
 20
-16.0998
 30
0.0
 10
-7.3317
 20
-16.0998
 30
0.0
 10
-7.3317
 20
-16.0998
 30
0.0
 10
-7.3317
 20
-16.0998
 30
0.0
 10
-7.3317
 20
-16.2988
 30
0.0
 10
-7.3317
 20
-16.2988
 30
0.0
 10
-7.3317
 20
-16.2988
 30
0.0
 10
-7.6106
 20
-16.3666
 30
0.0
 10
-7.6106
 20
-16.3666
 30
0.0
 10
-7.6106
 20
-16.3666
 30
0.0
 10
-8.3745
 20
-18.6151
 30
0.0
 10
-8.3745
 20
-18.6151
 30
0.0
 10
-8.3745
 20
-18.6151
 30
0.0
 10
-8.5579
 20
-18.6151
 30
0.0
 10
-8.5579
 20
-18.6151
 30
0.0
 10
-8.959
 20
-17.5901
 30
0.0
 10
-9.1283
 20
-17.1097
 30
0.0
 10
-9.2462
 20
-16.7492
 30
0.0
 10
-9.2462
 20
-16.7492
 30
0.0
 10
-9.9415
 20
-18.6151
 30
0.0
 10
-9.9415
 20
-18.6151
 30
0.0
 10
-9.9415
 20
-18.6151
 30
0.0
 10
-10.125
 20
-18.6151
 30
0.0
 10
-10.125
 20
-18.6151
 30
0.0
 10
-10.125
 20
-18.6151
 30
0.0
 10
-10.9691
 20
-16.3515
 30
0.0
 10
-10.9691
 20
-16.3515
 30
0.0
 10
-10.9691
 20
-16.3515
 30
0.0
 10
-11.2725
 20
-16.2988
 30
0.0
 10
-11.2725
 20
-16.2988
 30
0.0
 10
-11.2725
 20
-16.2988
 30
0.0
 10
-11.2725
 20
-16.0998
 30
0.0
 10
-11.2725
 20
-16.0998
 30
0.0
 10
-11.2725
 20
-16.0998
 30
0.0
 10
-11.063
 20
-16.0998
 30
0.0
 10
-11.063
 20
-16.0998
 30
0.0
 10
-11.063
 20
-16.0998
 30
0.0
 10
-10.591
 20
-16.0998
 30
0.0
 10
-10.591
 20
-16.0998
 30
0.0
 10
-10.591
 20
-16.0998
 30
0.0
 10
-10.0883
 20
-16.0998
 30
0.0
 10
-10.0883
 20
-16.0998
 30
0.0
 10
-10.0883
 20
-16.0998
 30
0.0
 10
-10.0883
 20
-16.2988
 30
0.0
 10
-10.0883
 20
-16.2988
 30
0.0
 10
-10.0883
 20
-16.2988
 30
0.0
 10
-10.5012
 20
-16.3639
 30
0.0
 10
-10.5012
 20
-16.3639
 30
0.0
 10
-10.5012
 20
-16.3639
 30
0.0
 10
-9.9498
 20
-17.9852
 30
0.0
 10
-9.9498
 20
-17.9852
 30
0.0
 10
-9.9498
 20
-17.9852
 30
0.0
 10
-9.3562
 20
-16.3631
 30
0.0
 10
-9.3562
 20
-16.3631
 30
0.0
 10
-9.3562
 20
-16.3631
 30
0.0
 10
-9.7528
 20
-16.2988
 30
0.0
 10
-9.7528
 20
-16.2988
 30
0.0
 10
-9.7528
 20
-16.2988
 30
0.0
 10
-9.7528
 20
-16.0998
 30
0.0
 10
-9.7528
 20
-16.0998
 30
0.0
 10
-9.7528
 20
-16.0998
 30
0.0
 10
-9.2599
 20
-16.0998
 30
0.0
 10
-9.2599
 20
-16.0998
 30
0.0
 10
-9.2599
 20
-16.0998
 30
0.0
 10
-9.103
 20
-16.0998
 30
0.0
 10
-9.103
 20
-16.0998
 30
0.0
 10
-9.103
 20
-16.0998
 30
0.0
 10
-8.5999
 20
-16.0998
 30
0.0
 10
-8.5999
 20
-16.0998
 30
0.0
 10
-8.5999
 20
-16.0998
 30
0.0
 10
-8.5999
 20
-16.2988
 30
0.0
 10
-8.5999
 20
-16.2988
 30
0.0
 10
-8.5999
 20
-16.2988
 30
0.0
 10
-9.0005
 20
-16.3706
 30
0.0
 10
-9.0005
 20
-16.3706
 30
0.0
 10
-9.0005
 20
-16.3706
 30
0.0
 10
-8.3909
 20
-17.9804
 30
0.0
 10
-8.3909
 20
-17.9804
 30
0.0
 10
-8.3909
 20
-17.9804
 30
0.0
 10
-7.8971
 20
-16.3708
 30
0.0
 10
-7.8971
 20
-16.3708
 30
0.0
  0
SPLINE
  5
83
330
1F
100
AcDbEntity
  8
Layer 1
 62
   250
100
AcDbSpline
210
0.0
220
0.0
230
1.0
 70
    11
 71
     3
 72
    32
 73
    28
 74
     0
 42
0.0000000001
 43
0.0000000001
 40
0.0
 40
0.0
 40
0.0
 40
0.0
 40
0.1111111111111111
 40
0.1111111111111111
 40
0.1111111111111111
 40
0.2222222222222222
 40
0.2222222222222222
 40
0.2222222222222222
 40
0.3333333333333333
 40
0.3333333333333333
 40
0.3333333333333333
 40
0.4444444444444444
 40
0.4444444444444444
 40
0.4444444444444444
 40
0.5555555555555556
 40
0.5555555555555556
 40
0.5555555555555556
 40
0.6666666666666666
 40
0.6666666666666666
 40
0.6666666666666666
 40
0.7777777777777777
 40
0.7777777777777777
 40
0.7777777777777777
 40
0.8888888888888888
 40
0.8888888888888888
 40
0.8888888888888888
 40
1.0
 40
1.0
 40
1.0
 40
1.0
 10
-4.9771
 20
-17.033
 30
0.0
 10
-4.9771
 20
-17.1533
 30
0.0
 10
-4.9927
 20
-17.258
 30
0.0
 10
-5.0138
 20
-17.3261
 30
0.0
 10
-5.0138
 20
-17.3261
 30
0.0
 10
-6.696
 20
-17.3261
 30
0.0
 10
-6.696
 20
-17.3261
 30
0.0
 10
-6.6875
 20
-17.9749
 30
0.0
 10
-6.3536
 20
-18.322
 30
0.0
 10
-5.8365
 20
-18.322
 30
0.0
 10
-5.501
 20
-18.322
 30
0.0
 10
-5.2915
 20
-18.1703
 30
0.0
 10
-5.1027
 20
-17.9502
 30
0.0
 10
-5.1027
 20
-17.9502
 30
0.0
 10
-4.9824
 20
-18.044
 30
0.0
 10
-4.9824
 20
-18.044
 30
0.0
 10
-5.1712
 20
-18.4162
 30
0.0
 10
-5.5063
 20
-18.6522
 30
0.0
 10
-5.9833
 20
-18.6522
 30
0.0
 10
-6.6853
 20
-18.6522
 30
0.0
 10
-7.1414
 20
-18.1647
 30
0.0
 10
-7.1414
 20
-17.3681
 30
0.0
 10
-7.1414
 20
-16.5662
 30
0.0
 10
-6.5964
 20
-16.0318
 30
0.0
 10
-5.9466
 20
-16.0318
 30
0.0
 10
-5.4068
 20
-16.0318
 30
0.0
 10
-4.9771
 20
-16.3983
 30
0.0
 10
-4.9771
 20
-17.033
 30
0.0
  0
SPLINE
  5
84
330
1F
100
AcDbEntity
  8
Layer 1
 62
   250
100
AcDbSpline
210
0.0
220
0.0
230
1.0
 70
    11
 71
     3
 72
    17
 73
    13
 74
     0
 42
0.0000000001
 43
0.0000000001
 40
0.0
 40
0.0
 40
0.0
 40
0.0
 40
0.25
 40
0.25
 40
0.25
 40
0.5
 40
0.5
 40
0.5
 40
0.75
 40
0.75
 40
0.75
 40
1.0
 40
1.0
 40
1.0
 40
1.0
 10
-6.6867
 20
-17.106
 30
0.0
 10
-6.6867
 20
-17.106
 30
0.0
 10
-5.7003
 20
-17.106
 30
0.0
 10
-5.7003
 20
-17.106
 30
0.0
 10
-5.4488
 20
-17.106
 30
0.0
 10
-5.3913
 20
-16.9853
 30
0.0
 10
-5.3913
 20
-16.8386
 30
0.0
 10
-5.3913
 20
-16.5405
 30
0.0
 10
-5.6428
 20
-16.2674
 30
0.0
 10
-5.9727
 20
-16.2674
 30
0.0
 10
-6.2775
 20
-16.2674
 30
0.0
 10
-6.6255
 20
-16.5009
 30
0.0
 10
-6.6867
 20
-17.106
 30
0.0
  0
SPLINE
  5
85
330
1F
100
AcDbEntity
  8
Layer 1
 62
   250
100
AcDbSpline
210
0.0
220
0.0
230
1.0
 70
    11
 71
     3
 72
    53
 73
    49
 74
     0
 42
0.0000000001
 43
0.0000000001
 40
0.0
 40
0.0
 40
0.0
 40
0.0
 40
0.0625
 40
0.0625
 40
0.0625
 40
0.125
 40
0.125
 40
0.125
 40
0.1875
 40
0.1875
 40
0.1875
 40
0.25
 40
0.25
 40
0.25
 40
0.3125
 40
0.3125
 40
0.3125
 40
0.375
 40
0.375
 40
0.375
 40
0.4375
 40
0.4375
 40
0.4375
 40
0.5
 40
0.5
 40
0.5
 40
0.5625
 40
0.5625
 40
0.5625
 40
0.625
 40
0.625
 40
0.625
 40
0.6875
 40
0.6875
 40
0.6875
 40
0.75
 40
0.75
 40
0.75
 40
0.8125
 40
0.8125
 40
0.8125
 40
0.875
 40
0.875
 40
0.875
 40
0.9375
 40
0.9375
 40
0.9375
 40
1.0
 40
1.0
 40
1.0
 40
1.0
 10
-3.3461
 20
-18.4007
 30
0.0
 10
-3.3461
 20
-18.4007
 30
0.0
 10
-3.3461
 20
-18.5841
 30
0.0
 10
-3.3461
 20
-18.5841
 30
0.0
 10
-3.3461
 20
-18.5841
 30
0.0
 10
-3.7652
 20
-18.5841
 30
0.0
 10
-3.7652
 20
-18.5841
 30
0.0
 10
-3.7652
 20
-18.5841
 30
0.0
 10
-4.216
 20
-18.5841
 30
0.0
 10
-4.216
 20
-18.5841
 30
0.0
 10
-4.216
 20
-18.5841
 30
0.0
 10
-4.6355
 20
-18.5841
 30
0.0
 10
-4.6355
 20
-18.5841
 30
0.0
 10
-4.6355
 20
-18.5841
 30
0.0
 10
-4.6355
 20
-18.4007
 30
0.0
 10
-4.6355
 20
-18.4007
 30
0.0
 10
-4.6355
 20
-18.4007
 30
0.0
 10
-4.2096
 20
-18.3251
 30
0.0
 10
-4.2096
 20
-18.3251
 30
0.0
 10
-4.2035
 20
-18.0444
 30
0.0
 10
-4.2002
 20
-17.764
 30
0.0
 10
-4.2002
 20
-17.4834
 30
0.0
 10
-4.2002
 20
-17.4834
 30
0.0
 10
-4.2002
 20
-15.1773
 30
0.0
 10
-4.2002
 20
-15.1773
 30
0.0
 10
-4.2002
 20
-15.1773
 30
0.0
 10
-4.6355
 20
-15.1251
 30
0.0
 10
-4.6355
 20
-15.1251
 30
0.0
 10
-4.6355
 20
-15.1251
 30
0.0
 10
-4.6355
 20
-14.9417
 30
0.0
 10
-4.6355
 20
-14.9417
 30
0.0
 10
-4.6355
 20
-14.9417
 30
0.0
 10
-3.8336
 20
-14.7057
 30
0.0
 10
-3.8336
 20
-14.7057
 30
0.0
 10
-3.8336
 20
-14.7057
 30
0.0
 10
-3.7602
 20
-14.748
 30
0.0
 10
-3.7602
 20
-14.748
 30
0.0
 10
-3.7602
 20
-14.748
 30
0.0
 10
-3.7811
 20
-15.492
 30
0.0
 10
-3.7811
 20
-15.492
 30
0.0
 10
-3.7811
 20
-15.492
 30
0.0
 10
-3.7811
 20
-17.4834
 30
0.0
 10
-3.7811
 20
-17.4834
 30
0.0
 10
-3.7811
 20
-17.764
 30
0.0
 10
-3.778
 20
-18.0444
 30
0.0
 10
-3.7718
 20
-18.3251
 30
0.0
 10
-3.7718
 20
-18.3251
 30
0.0
 10
-3.3461
 20
-18.4007
 30
0.0
 10
-3.3461
 20
-18.4007
 30
0.0
  0
SPLINE
  5
86
330
1F
100
AcDbEntity
  8
Layer 1
 62
   250
100
AcDbSpline
210
0.0
220
0.0
230
1.0
 70
    11
 71
     3
 72
    32
 73
    28
 74
     0
 42
0.0000000001
 43
0.0000000001
 40
0.0
 40
0.0
 40
0.0
 40
0.0
 40
0.1111111111111111
 40
0.1111111111111111
 40
0.1111111111111111
 40
0.2222222222222222
 40
0.2222222222222222
 40
0.2222222222222222
 40
0.3333333333333333
 40
0.3333333333333333
 40
0.3333333333333333
 40
0.4444444444444444
 40
0.4444444444444444
 40
0.4444444444444444
 40
0.5555555555555556
 40
0.5555555555555556
 40
0.5555555555555556
 40
0.6666666666666666
 40
0.6666666666666666
 40
0.6666666666666666
 40
0.7777777777777777
 40
0.7777777777777777
 40
0.7777777777777777
 40
0.8888888888888888
 40
0.8888888888888888
 40
0.8888888888888888
 40
1.0
 40
1.0
 40
1.0
 40
1.0
 10
-0.8091
 20
-17.033
 30
0.0
 10
-0.8091
 20
-17.1533
 30
0.0
 10
-0.8246
 20
-17.258
 30
0.0
 10
-0.8458
 20
-17.3261
 30
0.0
 10
-0.8458
 20
-17.3261
 30
0.0
 10
-2.528
 20
-17.3261
 30
0.0
 10
-2.528
 20
-17.3261
 30
0.0
 10
-2.5195
 20
-17.9749
 30
0.0
 10
-2.1859
 20
-18.322
 30
0.0
 10
-1.6685
 20
-18.322
 30
0.0
 10
-1.333
 20
-18.322
 30
0.0
 10
-1.1234
 20
-18.1703
 30
0.0
 10
-0.9347
 20
-17.9502
 30
0.0
 10
-0.9347
 20
-17.9502
 30
0.0
 10
-0.8144
 20
-18.044
 30
0.0
 10
-0.8144
 20
-18.044
 30
0.0
 10
-1.0031
 20
-18.4162
 30
0.0
 10
-1.3383
 20
-18.6522
 30
0.0
 10
-1.8152
 20
-18.6522
 30
0.0
 10
-2.5176
 20
-18.6522
 30
0.0
 10
-2.9734
 20
-18.1647
 30
0.0
 10
-2.9734
 20
-17.3681
 30
0.0
 10
-2.9734
 20
-16.5662
 30
0.0
 10
-2.4284
 20
-16.0318
 30
0.0
 10
-1.7785
 20
-16.0318
 30
0.0
 10
-1.2388
 20
-16.0318
 30
0.0
 10
-0.8091
 20
-16.3983
 30
0.0
 10
-0.8091
 20
-17.033
 30
0.0
  0
SPLINE
  5
87
330
1F
100
AcDbEntity
  8
Layer 1
 62
   250
100
AcDbSpline
210
0.0
220
0.0
230
1.0
 70
    11
 71
     3
 72
    17
 73
    13
 74
     0
 42
0.0000000001
 43
0.0000000001
 40
0.0
 40
0.0
 40
0.0
 40
0.0
 40
0.25
 40
0.25
 40
0.25
 40
0.5
 40
0.5
 40
0.5
 40
0.75
 40
0.75
 40
0.75
 40
1.0
 40
1.0
 40
1.0
 40
1.0
 10
-2.5187
 20
-17.106
 30
0.0
 10
-2.5187
 20
-17.106
 30
0.0
 10
-1.5323
 20
-17.106
 30
0.0
 10
-1.5323
 20
-17.106
 30
0.0
 10
-1.2808
 20
-17.106
 30
0.0
 10
-1.2229
 20
-16.9853
 30
0.0
 10
-1.2229
 20
-16.8386
 30
0.0
 10
-1.2229
 20
-16.5405
 30
0.0
 10
-1.4745
 20
-16.2674
 30
0.0
 10
-1.8047
 20
-16.2674
 30
0.0
 10
-2.1094
 20
-16.2674
 30
0.0
 10
-2.4575
 20
-16.5009
 30
0.0
 10
-2.5187
 20
-17.106
 30
0.0
  0
SPLINE
  5
88
330
1F
100
AcDbEntity
  8
Layer 1
 62
   250
100
AcDbSpline
210
0.0
220
0.0
230
1.0
 70
    11
 71
     3
 72
    74
 73
    70
 74
     0
 42
0.0000000001
 43
0.0000000001
 40
0.0
 40
0.0
 40
0.0
 40
0.0
 40
0.0434782608695652
 40
0.0434782608695652
 40
0.0434782608695652
 40
0.0869565217391304
 40
0.0869565217391304
 40
0.0869565217391304
 40
0.1304347826086956
 40
0.1304347826086956
 40
0.1304347826086956
 40
0.1739130434782609
 40
0.1739130434782609
 40
0.1739130434782609
 40
0.2173913043478261
 40
0.2173913043478261
 40
0.2173913043478261
 40
0.2608695652173913
 40
0.2608695652173913
 40
0.2608695652173913
 40
0.3043478260869565
 40
0.3043478260869565
 40
0.3043478260869565
 40
0.3478260869565217
 40
0.3478260869565217
 40
0.3478260869565217
 40
0.3913043478260869
 40
0.3913043478260869
 40
0.3913043478260869
 40
0.4347826086956522
 40
0.4347826086956522
 40
0.4347826086956522
 40
0.4782608695652174
 40
0.4782608695652174
 40
0.4782608695652174
 40
0.5217391304347826
 40
0.5217391304347826
 40
0.5217391304347826
 40
0.5652173913043478
 40
0.5652173913043478
 40
0.5652173913043478
 40
0.6086956521739131
 40
0.6086956521739131
 40
0.6086956521739131
 40
0.6521739130434783
 40
0.6521739130434783
 40
0.6521739130434783
 40
0.6956521739130435
 40
0.6956521739130435
 40
0.6956521739130435
 40
0.7391304347826086
 40
0.7391304347826086
 40
0.7391304347826086
 40
0.7826086956521738
 40
0.7826086956521738
 40
0.7826086956521738
 40
0.8260869565217391
 40
0.8260869565217391
 40
0.8260869565217391
 40
0.8695652173913043
 40
0.8695652173913043
 40
0.8695652173913043
 40
0.9130434782608695
 40
0.9130434782608695
 40
0.9130434782608695
 40
0.9565217391304348
 40
0.9565217391304348
 40
0.9565217391304348
 40
1.0
 40
1.0
 40
1.0
 40
1.0
 10
0.4885
 20
-16.7098
 30
0.0
 10
0.6635
 20
-16.2843
 30
0.0
 10
0.9594
 20
-16.0319
 30
0.0
 10
1.2463
 20
-16.0319
 30
0.0
 10
1.3983
 20
-16.0319
 30
0.0
 10
1.555
 20
-16.1053
 30
0.0
 10
1.6181
 20
-16.2101
 30
0.0
 10
1.6181
 20
-16.4563
 30
0.0
 10
1.5239
 20
-16.5925
 30
0.0
 10
1.3147
 20
-16.5925
 30
0.0
 10
1.1937
 20
-16.5925
 30
0.0
 10
1.0946
 20
-16.5456
 30
0.0
 10
0.9997
 20
-16.4666
 30
0.0
 10
0.9997
 20
-16.4666
 30
0.0
 10
0.9322
 20
-16.4089
 30
0.0
 10
0.9322
 20
-16.4089
 30
0.0
 10
0.7236
 20
-16.5685
 30
0.0
 10
0.587
 20
-16.7894
 30
0.0
 10
0.4913
 20
-17.0925
 30
0.0
 10
0.4913
 20
-17.0925
 30
0.0
 10
0.4913
 20
-17.4836
 30
0.0
 10
0.4913
 20
-17.4836
 30
0.0
 10
0.4913
 20
-17.716
 30
0.0
 10
0.494
 20
-18.0585
 30
0.0
 10
0.4994
 20
-18.321
 30
0.0
 10
0.4994
 20
-18.321
 30
0.0
 10
0.9369
 20
-18.4005
 30
0.0
 10
0.9369
 20
-18.4005
 30
0.0
 10
0.9369
 20
-18.4005
 30
0.0
 10
0.9369
 20
-18.5839
 30
0.0
 10
0.9369
 20
-18.5839
 30
0.0
 10
0.9369
 20
-18.5839
 30
0.0
 10
0.5072
 20
-18.5839
 30
0.0
 10
0.5072
 20
-18.5839
 30
0.0
 10
0.5072
 20
-18.5839
 30
0.0
 10
0.0564
 20
-18.5839
 30
0.0
 10
0.0564
 20
-18.5839
 30
0.0
 10
0.0564
 20
-18.5839
 30
0.0
 10
-0.3208
 20
-18.5839
 30
0.0
 10
-0.3208
 20
-18.5839
 30
0.0
 10
-0.3208
 20
-18.5839
 30
0.0
 10
-0.3208
 20
-18.4005
 30
0.0
 10
-0.3208
 20
-18.4005
 30
0.0
 10
-0.3208
 20
-18.4005
 30
0.0
 10
0.0639
 20
-18.3306
 30
0.0
 10
0.0639
 20
-18.3306
 30
0.0
 10
0.0694
 20
-18.0669
 30
0.0
 10
0.0722
 20
-17.7188
 30
0.0
 10
0.0722
 20
-17.4836
 30
0.0
 10
0.0722
 20
-17.4836
 30
0.0
 10
0.0722
 20
-17.237
 30
0.0
 10
0.0722
 20
-17.237
 30
0.0
 10
0.0722
 20
-16.9484
 30
0.0
 10
0.0669
 20
-16.7862
 30
0.0
 10
0.0564
 20
-16.577
 30
0.0
 10
0.0564
 20
-16.577
 30
0.0
 10
-0.3627
 20
-16.5301
 30
0.0
 10
-0.3627
 20
-16.5301
 30
0.0
 10
-0.3627
 20
-16.5301
 30
0.0
 10
-0.3627
 20
-16.3459
 30
0.0
 10
-0.3627
 20
-16.3459
 30
0.0
 10
-0.3627
 20
-16.3459
 30
0.0
 10
0.3499
 20
-16.0319
 30
0.0
 10
0.3499
 20
-16.0319
 30
0.0
 10
0.3499
 20
-16.0319
 30
0.0
 10
0.4289
 20
-16.0841
 30
0.0
 10
0.4289
 20
-16.0841
 30
0.0
 10
0.4289
 20
-16.0841
 30
0.0
 10
0.4885
 20
-16.7098
 30
0.0
 10
0.4885
 20
-16.7098
 30
0.0
  0
SPLINE
  5
89
330
1F
100
AcDbEntity
  8
Layer 1
 62
   250
100
AcDbSpline
210
0.0
220
0.0
230
1.0
 70
    11
 71
     3
 72
    17
 73
    13
 74
     0
 42
0.0000000001
 43
0.0000000001
 40
0.0
 40
0.0
 40
0.0
 40
0.0
 40
0.25
 40
0.25
 40
0.25
 40
0.5
 40
0.5
 40
0.5
 40
0.75
 40
0.75
 40
0.75
 40
1.0
 40
1.0
 40
1.0
 40
1.0
 10
1.5508
 20
-18.584
 30
0.0
 10
1.5508
 20
-18.584
 30
0.0
 10
3.8047
 20
-18.584
 30
0.0
 10
3.8047
 20
-18.584
 30
0.0
 10
3.8047
 20
-18.584
 30
0.0
 10
3.8047
 20
-18.9191
 30
0.0
 10
3.8047
 20
-18.9191
 30
0.0
 10
3.8047
 20
-18.9191
 30
0.0
 10
1.5508
 20
-18.9191
 30
0.0
 10
1.5508
 20
-18.9191
 30
0.0
 10
1.5508
 20
-18.9191
 30
0.0
 10
1.5508
 20
-18.584
 30
0.0
 10
1.5508
 20
-18.584
 30
0.0
  0
SPLINE
  5
8A
330
1F
100
AcDbEntity
  8
Layer 1
 62
   250
100
AcDbSpline
210
0.0
220
0.0
230
1.0
 70
    11
 71
     3
 72
   149
 73
   145
 74
     0
 42
0.0000000001
 43
0.0000000001
 40
0.0
 40
0.0
 40
0.0
 40
0.0
 40
0.0208333333333333
 40
0.0208333333333333
 40
0.0208333333333333
 40
0.0416666666666667
 40
0.0416666666666667
 40
0.0416666666666667
 40
0.0625
 40
0.0625
 40
0.0625
 40
0.0833333333333333
 40
0.0833333333333333
 40
0.0833333333333333
 40
0.1041666666666667
 40
0.1041666666666667
 40
0.1041666666666667
 40
0.125
 40
0.125
 40
0.125
 40
0.1458333333333333
 40
0.1458333333333333
 40
0.1458333333333333
 40
0.1666666666666667
 40
0.1666666666666667
 40
0.1666666666666667
 40
0.1875
 40
0.1875
 40
0.1875
 40
0.2083333333333333
 40
0.2083333333333333
 40
0.2083333333333333
 40
0.2291666666666667
 40
0.2291666666666667
 40
0.2291666666666667
 40
0.25
 40
0.25
 40
0.25
 40
0.2708333333333333
 40
0.2708333333333333
 40
0.2708333333333333
 40
0.2916666666666666
 40
0.2916666666666666
 40
0.2916666666666666
 40
0.3125
 40
0.3125
 40
0.3125
 40
0.3333333333333333
 40
0.3333333333333333
 40
0.3333333333333333
 40
0.3541666666666666
 40
0.3541666666666666
 40
0.3541666666666666
 40
0.375
 40
0.375
 40
0.375
 40
0.3958333333333333
 40
0.3958333333333333
 40
0.3958333333333333
 40
0.4166666666666666
 40
0.4166666666666666
 40
0.4166666666666666
 40
0.4375
 40
0.4375
 40
0.4375
 40
0.4583333333333333
 40
0.4583333333333333
 40
0.4583333333333333
 40
0.4791666666666666
 40
0.4791666666666666
 40
0.4791666666666666
 40
0.5
 40
0.5
 40
0.5
 40
0.5208333333333333
 40
0.5208333333333333
 40
0.5208333333333333
 40
0.5416666666666666
 40
0.5416666666666666
 40
0.5416666666666666
 40
0.5625
 40
0.5625
 40
0.5625
 40
0.5833333333333333
 40
0.5833333333333333
 40
0.5833333333333333
 40
0.6041666666666666
 40
0.6041666666666666
 40
0.6041666666666666
 40
0.625
 40
0.625
 40
0.625
 40
0.6458333333333333
 40
0.6458333333333333
 40
0.6458333333333333
 40
0.6666666666666666
 40
0.6666666666666666
 40
0.6666666666666666
 40
0.6875
 40
0.6875
 40
0.6875
 40
0.7083333333333333
 40
0.7083333333333333
 40
0.7083333333333333
 40
0.7291666666666666
 40
0.7291666666666666
 40
0.7291666666666666
 40
0.75
 40
0.75
 40
0.75
 40
0.7708333333333333
 40
0.7708333333333333
 40
0.7708333333333333
 40
0.7916666666666666
 40
0.7916666666666666
 40
0.7916666666666666
 40
0.8125
 40
0.8125
 40
0.8125
 40
0.8333333333333333
 40
0.8333333333333333
 40
0.8333333333333333
 40
0.8541666666666666
 40
0.8541666666666666
 40
0.8541666666666666
 40
0.875
 40
0.875
 40
0.875
 40
0.8958333333333333
 40
0.8958333333333333
 40
0.8958333333333333
 40
0.9166666666666666
 40
0.9166666666666666
 40
0.9166666666666666
 40
0.9375
 40
0.9375
 40
0.9375
 40
0.9583333333333333
 40
0.9583333333333333
 40
0.9583333333333333
 40
0.9791666666666666
 40
0.9791666666666666
 40
0.9791666666666666
 40
1.0
 40
1.0
 40
1.0
 40
1.0
 10
8.2052
 20
-18.3256
 30
0.0
 10
8.2052
 20
-18.3256
 30
0.0
 10
8.5795
 20
-18.4007
 30
0.0
 10
8.5795
 20
-18.4007
 30
0.0
 10
8.5795
 20
-18.4007
 30
0.0
 10
8.5795
 20
-18.5838
 30
0.0
 10
8.5795
 20
-18.5838
 30
0.0
 10
8.5795
 20
-18.5838
 30
0.0
 10
8.213
 20
-18.5838
 30
0.0
 10
8.213
 20
-18.5838
 30
0.0
 10
8.213
 20
-18.5838
 30
0.0
 10
7.7625
 20
-18.5838
 30
0.0
 10
7.7625
 20
-18.5838
 30
0.0
 10
7.7625
 20
-18.5838
 30
0.0
 10
7.3744
 20
-18.5838
 30
0.0
 10
7.3744
 20
-18.5838
 30
0.0
 10
7.3744
 20
-18.5838
 30
0.0
 10
7.3744
 20
-18.4007
 30
0.0
 10
7.3744
 20
-18.4007
 30
0.0
 10
7.3744
 20
-18.4007
 30
0.0
 10
7.7698
 20
-18.3286
 30
0.0
 10
7.7698
 20
-18.3286
 30
0.0
 10
7.7752
 20
-18.0678
 30
0.0
 10
7.778
 20
-17.7252
 30
0.0
 10
7.778
 20
-17.4835
 30
0.0
 10
7.778
 20
-17.4835
 30
0.0
 10
7.778
 20
-17.033
 30
0.0
 10
7.778
 20
-17.033
 30
0.0
 10
7.778
 20
-16.5402
 30
0.0
 10
7.6415
 20
-16.3984
 30
0.0
 10
7.3321
 20
-16.3984
 30
0.0
 10
7.1043
 20
-16.3984
 30
0.0
 10
6.8909
 20
-16.4871
 30
0.0
 10
6.6121
 20
-16.7344
 30
0.0
 10
6.6206
 20
-16.8155
 30
0.0
 10
6.6248
 20
-16.9043
 30
0.0
 10
6.6248
 20
-17.0013
 30
0.0
 10
6.6248
 20
-17.0013
 30
0.0
 10
6.6248
 20
-17.4835
 30
0.0
 10
6.6248
 20
-17.4835
 30
0.0
 10
6.6248
 20
-17.7242
 30
0.0
 10
6.6275
 20
-18.0651
 30
0.0
 10
6.6329
 20
-18.3255
 30
0.0
 10
6.6329
 20
-18.3255
 30
0.0
 10
7.0076
 20
-18.4007
 30
0.0
 10
7.0076
 20
-18.4007
 30
0.0
 10
7.0076
 20
-18.4007
 30
0.0
 10
7.0076
 20
-18.5838
 30
0.0
 10
7.0076
 20
-18.5838
 30
0.0
 10
7.0076
 20
-18.5838
 30
0.0
 10
6.6403
 20
-18.5838
 30
0.0
 10
6.6403
 20
-18.5838
 30
0.0
 10
6.6403
 20
-18.5838
 30
0.0
 10
6.1898
 20
-18.5838
 30
0.0
 10
6.1898
 20
-18.5838
 30
0.0
 10
6.1898
 20
-18.5838
 30
0.0
 10
5.8018
 20
-18.5838
 30
0.0
 10
5.8018
 20
-18.5838
 30
0.0
 10
5.8018
 20
-18.5838
 30
0.0
 10
5.8018
 20
-18.4007
 30
0.0
 10
5.8018
 20
-18.4007
 30
0.0
 10
5.8018
 20
-18.4007
 30
0.0
 10
6.1974
 20
-18.3286
 30
0.0
 10
6.1974
 20
-18.3286
 30
0.0
 10
6.2029
 20
-18.0678
 30
0.0
 10
6.2057
 20
-17.7252
 30
0.0
 10
6.2057
 20
-17.4835
 30
0.0
 10
6.2057
 20
-17.4835
 30
0.0
 10
6.2057
 20
-17.0432
 30
0.0
 10
6.2057
 20
-17.0432
 30
0.0
 10
6.2057
 20
-16.5557
 30
0.0
 10
6.0798
 20
-16.3984
 30
0.0
 10
5.7658
 20
-16.3984
 30
0.0
 10
5.521
 20
-16.3984
 30
0.0
 10
5.3241
 20
-16.4937
 30
0.0
 10
5.0525
 20
-16.7244
 30
0.0
 10
5.0525
 20
-16.7244
 30
0.0
 10
5.0525
 20
-17.4835
 30
0.0
 10
5.0525
 20
-17.4835
 30
0.0
 10
5.0525
 20
-17.7172
 30
0.0
 10
5.0554
 20
-18.0625
 30
0.0
 10
5.0608
 20
-18.3256
 30
0.0
 10
5.0608
 20
-18.3256
 30
0.0
 10
5.4352
 20
-18.4007
 30
0.0
 10
5.4352
 20
-18.4007
 30
0.0
 10
5.4352
 20
-18.4007
 30
0.0
 10
5.4352
 20
-18.5838
 30
0.0
 10
5.4352
 20
-18.5838
 30
0.0
 10
5.4352
 20
-18.5838
 30
0.0
 10
5.0683
 20
-18.5838
 30
0.0
 10
5.0683
 20
-18.5838
 30
0.0
 10
5.0683
 20
-18.5838
 30
0.0
 10
4.6178
 20
-18.5838
 30
0.0
 10
4.6178
 20
-18.5838
 30
0.0
 10
4.6178
 20
-18.5838
 30
0.0
 10
4.2298
 20
-18.5838
 30
0.0
 10
4.2298
 20
-18.5838
 30
0.0
 10
4.2298
 20
-18.5838
 30
0.0
 10
4.2298
 20
-18.4007
 30
0.0
 10
4.2298
 20
-18.4007
 30
0.0
 10
4.2298
 20
-18.4007
 30
0.0
 10
4.6252
 20
-18.3287
 30
0.0
 10
4.6252
 20
-18.3287
 30
0.0
 10
4.6306
 20
-18.0652
 30
0.0
 10
4.6334
 20
-17.7182
 30
0.0
 10
4.6334
 20
-17.4835
 30
0.0
 10
4.6334
 20
-17.4835
 30
0.0
 10
4.6334
 20
-17.2369
 30
0.0
 10
4.6334
 20
-17.2369
 30
0.0
 10
4.6334
 20
-16.9487
 30
0.0
 10
4.6281
 20
-16.7864
 30
0.0
 10
4.6178
 20
-16.5769
 30
0.0
 10
4.6178
 20
-16.5769
 30
0.0
 10
4.1984
 20
-16.5299
 30
0.0
 10
4.1984
 20
-16.5299
 30
0.0
 10
4.1984
 20
-16.5299
 30
0.0
 10
4.1984
 20
-16.3462
 30
0.0
 10
4.1984
 20
-16.3462
 30
0.0
 10
4.1984
 20
-16.3462
 30
0.0
 10
4.9114
 20
-16.0318
 30
0.0
 10
4.9114
 20
-16.0318
 30
0.0
 10
4.9114
 20
-16.0318
 30
0.0
 10
4.99
 20
-16.084
 30
0.0
 10
4.99
 20
-16.084
 30
0.0
 10
4.99
 20
-16.084
 30
0.0
 10
5.0336
 20
-16.5082
 30
0.0
 10
5.0336
 20
-16.5082
 30
0.0
 10
5.281
 20
-16.2331
 30
0.0
 10
5.6347
 20
-16.0318
 30
0.0
 10
5.9595
 20
-16.0318
 30
0.0
 10
6.2852
 20
-16.0318
 30
0.0
 10
6.4877
 20
-16.1773
 30
0.0
 10
6.5749
 20
-16.519
 30
0.0
 10
6.8408
 20
-16.1966
 30
0.0
 10
7.1926
 20
-16.0318
 30
0.0
 10
7.5314
 20
-16.0318
 30
0.0
 10
7.9505
 20
-16.0318
 30
0.0
 10
8.1971
 20
-16.2939
 30
0.0
 10
8.1971
 20
-16.9438
 30
0.0
 10
8.1971
 20
-16.9438
 30
0.0
 10
8.1971
 20
-17.4835
 30
0.0
 10
8.1971
 20
-17.4835
 30
0.0
 10
8.1971
 20
-17.7243
 30
0.0
 10
8.1997
 20
-18.0652
 30
0.0
 10
8.2052
 20
-18.3256
 30
0.0
  0
SPLINE
  5
8B
330
1F
100
AcDbEntity
  8
Layer 1
 62
   250
100
AcDbSpline
210
0.0
220
0.0
230
1.0
 70
    11
 71
     3
 72
    32
 73
    28
 74
     0
 42
0.0000000001
 43
0.0000000001
 40
0.0
 40
0.0
 40
0.0
 40
0.0
 40
0.1111111111111111
 40
0.1111111111111111
 40
0.1111111111111111
 40
0.2222222222222222
 40
0.2222222222222222
 40
0.2222222222222222
 40
0.3333333333333333
 40
0.3333333333333333
 40
0.3333333333333333
 40
0.4444444444444444
 40
0.4444444444444444
 40
0.4444444444444444
 40
0.5555555555555556
 40
0.5555555555555556
 40
0.5555555555555556
 40
0.6666666666666666
 40
0.6666666666666666
 40
0.6666666666666666
 40
0.7777777777777777
 40
0.7777777777777777
 40
0.7777777777777777
 40
0.8888888888888888
 40
0.8888888888888888
 40
0.8888888888888888
 40
1.0
 40
1.0
 40
1.0
 40
1.0
 10
11.1445
 20
-17.033
 30
0.0
 10
11.1445
 20
-17.1533
 30
0.0
 10
11.1283
 20
-17.258
 30
0.0
 10
11.1078
 20
-17.3261
 30
0.0
 10
11.1078
 20
-17.3261
 30
0.0
 10
9.4256
 20
-17.3261
 30
0.0
 10
9.4256
 20
-17.3261
 30
0.0
 10
9.4341
 20
-17.9749
 30
0.0
 10
9.7674
 20
-18.322
 30
0.0
 10
10.2848
 20
-18.322
 30
0.0
 10
10.6206
 20
-18.322
 30
0.0
 10
10.8295
 20
-18.1703
 30
0.0
 10
11.0186
 20
-17.9502
 30
0.0
 10
11.0186
 20
-17.9502
 30
0.0
 10
11.1389
 20
-18.044
 30
0.0
 10
11.1389
 20
-18.044
 30
0.0
 10
10.9501
 20
-18.4162
 30
0.0
 10
10.615
 20
-18.6522
 30
0.0
 10
10.138
 20
-18.6522
 30
0.0
 10
9.4357
 20
-18.6522
 30
0.0
 10
8.9802
 20
-18.1647
 30
0.0
 10
8.9802
 20
-17.3681
 30
0.0
 10
8.9802
 20
-16.5662
 30
0.0
 10
9.5249
 20
-16.0318
 30
0.0
 10
10.1747
 20
-16.0318
 30
0.0
 10
10.7145
 20
-16.0318
 30
0.0
 10
11.1445
 20
-16.3983
 30
0.0
 10
11.1445
 20
-17.033
 30
0.0
  0
SPLINE
  5
8C
330
1F
100
AcDbEntity
  8
Layer 1
 62
   250
100
AcDbSpline
210
0.0
220
0.0
230
1.0
 70
    11
 71
     3
 72
    17
 73
    13
 74
     0
 42
0.0000000001
 43
0.0000000001
 40
0.0
 40
0.0
 40
0.0
 40
0.0
 40
0.25
 40
0.25
 40
0.25
 40
0.5
 40
0.5
 40
0.5
 40
0.75
 40
0.75
 40
0.75
 40
1.0
 40
1.0
 40
1.0
 40
1.0
 10
9.4349
 20
-17.106
 30
0.0
 10
9.4349
 20
-17.106
 30
0.0
 10
10.4213
 20
-17.106
 30
0.0
 10
10.4213
 20
-17.106
 30
0.0
 10
10.6729
 20
-17.106
 30
0.0
 10
10.73
 20
-16.9853
 30
0.0
 10
10.73
 20
-16.8386
 30
0.0
 10
10.73
 20
-16.5405
 30
0.0
 10
10.4785
 20
-16.2674
 30
0.0
 10
10.1486
 20
-16.2674
 30
0.0
 10
9.8442
 20
-16.2674
 30
0.0
 10
9.4961
 20
-16.5009
 30
0.0
 10
9.4349
 20
-17.106
 30
0.0
  0
SPLINE
  5
8D
330
1F
100
AcDbEntity
  8
Layer 1
 62
   250
100
AcDbSpline
210
0.0
220
0.0
230
1.0
 70
    11
 71
     3
 72
   101
 73
    97
 74
     0
 42
0.0000000001
 43
0.0000000001
 40
0.0
 40
0.0
 40
0.0
 40
0.0
 40
0.03125
 40
0.03125
 40
0.03125
 40
0.0625
 40
0.0625
 40
0.0625
 40
0.09375
 40
0.09375
 40
0.09375
 40
0.125
 40
0.125
 40
0.125
 40
0.15625
 40
0.15625
 40
0.15625
 40
0.1875
 40
0.1875
 40
0.1875
 40
0.21875
 40
0.21875
 40
0.21875
 40
0.25
 40
0.25
 40
0.25
 40
0.28125
 40
0.28125
 40
0.28125
 40
0.3125
 40
0.3125
 40
0.3125
 40
0.34375
 40
0.34375
 40
0.34375
 40
0.375
 40
0.375
 40
0.375
 40
0.40625
 40
0.40625
 40
0.40625
 40
0.4375
 40
0.4375
 40
0.4375
 40
0.46875
 40
0.46875
 40
0.46875
 40
0.5
 40
0.5
 40
0.5
 40
0.53125
 40
0.53125
 40
0.53125
 40
0.5625
 40
0.5625
 40
0.5625
 40
0.59375
 40
0.59375
 40
0.59375
 40
0.625
 40
0.625
 40
0.625
 40
0.65625
 40
0.65625
 40
0.65625
 40
0.6875
 40
0.6875
 40
0.6875
 40
0.71875
 40
0.71875
 40
0.71875
 40
0.75
 40
0.75
 40
0.75
 40
0.78125
 40
0.78125
 40
0.78125
 40
0.8125
 40
0.8125
 40
0.8125
 40
0.84375
 40
0.84375
 40
0.84375
 40
0.875
 40
0.875
 40
0.875
 40
0.90625
 40
0.90625
 40
0.90625
 40
0.9375
 40
0.9375
 40
0.9375
 40
0.96875
 40
0.96875
 40
0.96875
 40
1.0
 40
1.0
 40
1.0
 40
1.0
 10
13.9622
 20
-18.3256
 30
0.0
 10
13.9622
 20
-18.3256
 30
0.0
 10
14.3366
 20
-18.4007
 30
0.0
 10
14.3366
 20
-18.4007
 30
0.0
 10
14.3366
 20
-18.4007
 30
0.0
 10
14.3366
 20
-18.5838
 30
0.0
 10
14.3366
 20
-18.5838
 30
0.0
 10
14.3366
 20
-18.5838
 30
0.0
 10
13.9697
 20
-18.5838
 30
0.0
 10
13.9697
 20
-18.5838
 30
0.0
 10
13.9697
 20
-18.5838
 30
0.0
 10
13.5192
 20
-18.5838
 30
0.0
 10
13.5192
 20
-18.5838
 30
0.0
 10
13.5192
 20
-18.5838
 30
0.0
 10
13.1312
 20
-18.5838
 30
0.0
 10
13.1312
 20
-18.5838
 30
0.0
 10
13.1312
 20
-18.5838
 30
0.0
 10
13.1312
 20
-18.4007
 30
0.0
 10
13.1312
 20
-18.4007
 30
0.0
 10
13.1312
 20
-18.4007
 30
0.0
 10
13.5266
 20
-18.3286
 30
0.0
 10
13.5266
 20
-18.3286
 30
0.0
 10
13.532
 20
-18.0678
 30
0.0
 10
13.5348
 20
-17.7252
 30
0.0
 10
13.5348
 20
-17.4835
 30
0.0
 10
13.5348
 20
-17.4835
 30
0.0
 10
13.5348
 20
-17.0432
 30
0.0
 10
13.5348
 20
-17.0432
 30
0.0
 10
13.5348
 20
-16.5557
 30
0.0
 10
13.4088
 20
-16.3984
 30
0.0
 10
13.0945
 20
-16.3984
 30
0.0
 10
12.8387
 20
-16.3984
 30
0.0
 10
12.6277
 20
-16.489
 30
0.0
 10
12.3399
 20
-16.7421
 30
0.0
 10
12.3399
 20
-16.7421
 30
0.0
 10
12.3399
 20
-17.4835
 30
0.0
 10
12.3399
 20
-17.4835
 30
0.0
 10
12.3399
 20
-17.7176
 30
0.0
 10
12.3427
 20
-18.0635
 30
0.0
 10
12.348
 20
-18.3267
 30
0.0
 10
12.348
 20
-18.3267
 30
0.0
 10
12.7174
 20
-18.4007
 30
0.0
 10
12.7174
 20
-18.4007
 30
0.0
 10
12.7174
 20
-18.4007
 30
0.0
 10
12.7174
 20
-18.5838
 30
0.0
 10
12.7174
 20
-18.5838
 30
0.0
 10
12.7174
 20
-18.5838
 30
0.0
 10
12.3554
 20
-18.5838
 30
0.0
 10
12.3554
 20
-18.5838
 30
0.0
 10
12.3554
 20
-18.5838
 30
0.0
 10
11.9049
 20
-18.5838
 30
0.0
 10
11.9049
 20
-18.5838
 30
0.0
 10
11.9049
 20
-18.5838
 30
0.0
 10
11.5119
 20
-18.5838
 30
0.0
 10
11.5119
 20
-18.5838
 30
0.0
 10
11.5119
 20
-18.5838
 30
0.0
 10
11.5119
 20
-18.4007
 30
0.0
 10
11.5119
 20
-18.4007
 30
0.0
 10
11.5119
 20
-18.4007
 30
0.0
 10
11.9127
 20
-18.3276
 30
0.0
 10
11.9127
 20
-18.3276
 30
0.0
 10
11.9182
 20
-18.0642
 30
0.0
 10
11.9208
 20
-17.7179
 30
0.0
 10
11.9208
 20
-17.4835
 30
0.0
 10
11.9208
 20
-17.4835
 30
0.0
 10
11.9208
 20
-15.1774
 30
0.0
 10
11.9208
 20
-15.1774
 30
0.0
 10
11.9208
 20
-15.1774
 30
0.0
 10
11.4855
 20
-15.1252
 30
0.0
 10
11.4855
 20
-15.1252
 30
0.0
 10
11.4855
 20
-15.1252
 30
0.0
 10
11.4855
 20
-14.9417
 30
0.0
 10
11.4855
 20
-14.9417
 30
0.0
 10
11.4855
 20
-14.9417
 30
0.0
 10
12.2718
 20
-14.7057
 30
0.0
 10
12.2718
 20
-14.7057
 30
0.0
 10
12.2718
 20
-14.7057
 30
0.0
 10
12.3452
 20
-14.7477
 30
0.0
 10
12.3452
 20
-14.7477
 30
0.0
 10
12.3452
 20
-14.7477
 30
0.0
 10
12.324
 20
-15.4921
 30
0.0
 10
12.324
 20
-15.4921
 30
0.0
 10
12.324
 20
-15.4921
 30
0.0
 10
12.324
 20
-16.5171
 30
0.0
 10
12.324
 20
-16.5171
 30
0.0
 10
12.5768
 20
-16.2375
 30
0.0
 10
12.9558
 20
-16.0318
 30
0.0
 10
13.2889
 20
-16.0318
 30
0.0
 10
13.7394
 20
-16.0318
 30
0.0
 10
13.9539
 20
-16.3098
 30
0.0
 10
13.9539
 20
-17.0013
 30
0.0
 10
13.9539
 20
-17.0013
 30
0.0
 10
13.9539
 20
-17.4835
 30
0.0
 10
13.9539
 20
-17.4835
 30
0.0
 10
13.9539
 20
-17.7243
 30
0.0
 10
13.9568
 20
-18.0651
 30
0.0
 10
13.9622
 20
-18.3256
 30
0.0
  0
SPLINE
  5
8E
330
1F
100
AcDbEntity
  8
Layer 1
 62
   250
100
AcDbSpline
210
0.0
220
0.0
230
1.0
 70
    11
 71
     3
 72
    50
 73
    46
 74
     0
 42
0.0000000001
 43
0.0000000001
 40
0.0
 40
0.0
 40
0.0
 40
0.0
 40
0.0666666666666667
 40
0.0666666666666667
 40
0.0666666666666667
 40
0.1333333333333333
 40
0.1333333333333333
 40
0.1333333333333333
 40
0.2
 40
0.2
 40
0.2
 40
0.2666666666666667
 40
0.2666666666666667
 40
0.2666666666666667
 40
0.3333333333333333
 40
0.3333333333333333
 40
0.3333333333333333
 40
0.4
 40
0.4
 40
0.4
 40
0.4666666666666667
 40
0.4666666666666667
 40
0.4666666666666667
 40
0.5333333333333333
 40
0.5333333333333333
 40
0.5333333333333333
 40
0.6
 40
0.6
 40
0.6
 40
0.6666666666666666
 40
0.6666666666666666
 40
0.6666666666666666
 40
0.7333333333333333
 40
0.7333333333333333
 40
0.7333333333333333
 40
0.8
 40
0.8
 40
0.8
 40
0.8666666666666667
 40
0.8666666666666667
 40
0.8666666666666667
 40
0.9333333333333333
 40
0.9333333333333333
 40
0.9333333333333333
 40
1.0
 40
1.0
 40
1.0
 40
1.0
 10
17.3829
 20
-18.4007
 30
0.0
 10
17.3829
 20
-18.4007
 30
0.0
 10
17.3829
 20
-18.5841
 30
0.0
 10
17.3829
 20
-18.5841
 30
0.0
 10
17.3829
 20
-18.5841
 30
0.0
 10
16.5814
 20
-18.6363
 30
0.0
 10
16.5814
 20
-18.6363
 30
0.0
 10
16.5814
 20
-18.6363
 30
0.0
 10
16.5452
 20
-18.2688
 30
0.0
 10
16.5452
 20
-18.2688
 30
0.0
 10
16.3661
 20
-18.5114
 30
0.0
 10
16.1415
 20
-18.6522
 30
0.0
 10
15.8109
 20
-18.6522
 30
0.0
 10
15.1713
 20
-18.6522
 30
0.0
 10
14.742
 20
-18.1227
 30
0.0
 10
14.742
 20
-17.3631
 30
0.0
 10
14.742
 20
-16.5662
 30
0.0
 10
15.2133
 20
-16.0318
 30
0.0
 10
15.8582
 20
-16.0318
 30
0.0
 10
16.1044
 20
-16.0318
 30
0.0
 10
16.3224
 20
-16.1139
 30
0.0
 10
16.5443
 20
-16.3724
 30
0.0
 10
16.5443
 20
-16.3724
 30
0.0
 10
16.5443
 20
-15.1773
 30
0.0
 10
16.5443
 20
-15.1773
 30
0.0
 10
16.5443
 20
-15.1773
 30
0.0
 10
16.0938
 20
-15.1251
 30
0.0
 10
16.0938
 20
-15.1251
 30
0.0
 10
16.0938
 20
-15.1251
 30
0.0
 10
16.0938
 20
-14.9417
 30
0.0
 10
16.0938
 20
-14.9417
 30
0.0
 10
16.0938
 20
-14.9417
 30
0.0
 10
16.8954
 20
-14.7057
 30
0.0
 10
16.8954
 20
-14.7057
 30
0.0
 10
16.8954
 20
-14.7057
 30
0.0
 10
16.9691
 20
-14.748
 30
0.0
 10
16.9691
 20
-14.748
 30
0.0
 10
16.9691
 20
-14.748
 30
0.0
 10
16.9483
 20
-15.492
 30
0.0
 10
16.9483
 20
-15.492
 30
0.0
 10
16.9483
 20
-15.492
 30
0.0
 10
16.9483
 20
-18.3303
 30
0.0
 10
16.9483
 20
-18.3303
 30
0.0
 10
16.9483
 20
-18.3303
 30
0.0
 10
17.3829
 20
-18.4007
 30
0.0
 10
17.3829
 20
-18.4007
 30
0.0
  0
SPLINE
  5
8F
330
1F
100
AcDbEntity
  8
Layer 1
 62
   250
100
AcDbSpline
210
0.0
220
0.0
230
1.0
 70
    11
 71
     3
 72
    20
 73
    16
 74
     0
 42
0.0000000001
 43
0.0000000001
 40
0.0
 40
0.0
 40
0.0
 40
0.0
 40
0.2
 40
0.2
 40
0.2
 40
0.4
 40
0.4
 40
0.4
 40
0.6000000000000001
 40
0.6000000000000001
 40
0.6000000000000001
 40
0.8
 40
0.8
 40
0.8
 40
1.0
 40
1.0
 40
1.0
 40
1.0
 10
16.5288
 20
-18.0474
 30
0.0
 10
16.5288
 20
-18.0474
 30
0.0
 10
16.5288
 20
-16.6012
 30
0.0
 10
16.5288
 20
-16.6012
 30
0.0
 10
16.28
 20
-16.3852
 30
0.0
 10
16.0962
 20
-16.32
 30
0.0
 10
15.9206
 20
-16.32
 30
0.0
 10
15.528
 20
-16.32
 30
0.0
 10
15.1872
 20
-16.6343
 30
0.0
 10
15.1872
 20
-17.3522
 30
0.0
 10
15.1872
 20
-18.0493
 30
0.0
 10
15.5015
 20
-18.364
 30
0.0
 10
15.9263
 20
-18.364
 30
0.0
 10
16.1595
 20
-18.364
 30
0.0
 10
16.3289
 20
-18.2758
 30
0.0
 10
16.5288
 20
-18.0474
 30
0.0
  0
SPLINE
  5
90
330
1F
100
AcDbEntity
  8
Layer 1
 62
   250
100
AcDbSpline
210
0.0
220
0.0
230
1.0
 70
    11
 71
     3
 72
    17
 73
    13
 74
     0
 42
0.0000000001
 43
0.0000000001
 40
0.0
 40
0.0
 40
0.0
 40
0.0
 40
0.25
 40
0.25
 40
0.25
 40
0.5
 40
0.5
 40
0.5
 40
0.75
 40
0.75
 40
0.75
 40
1.0
 40
1.0
 40
1.0
 40
1.0
 10
17.9134
 20
-15.1092
 30
0.0
 10
17.9134
 20
-14.9102
 30
0.0
 10
18.0655
 20
-14.779
 30
0.0
 10
18.2595
 20
-14.779
 30
0.0
 10
18.4532
 20
-14.779
 30
0.0
 10
18.6052
 20
-14.9102
 30
0.0
 10
18.6052
 20
-15.1092
 30
0.0
 10
18.6052
 20
-15.3036
 30
0.0
 10
18.4532
 20
-15.4394
 30
0.0
 10
18.2595
 20
-15.4394
 30
0.0
 10
18.0655
 20
-15.4394
 30
0.0
 10
17.9134
 20
-15.3036
 30
0.0
 10
17.9134
 20
-15.1092
 30
0.0
  0
SPLINE
  5
91
330
1F
100
AcDbEntity
  8
Layer 1
 62
   250
100
AcDbSpline
210
0.0
220
0.0
230
1.0
 70
    11
 71
     3
 72
    56
 73
    52
 74
     0
 42
0.0000000001
 43
0.0000000001
 40
0.0
 40
0.0
 40
0.0
 40
0.0
 40
0.0588235294117647
 40
0.0588235294117647
 40
0.0588235294117647
 40
0.1176470588235294
 40
0.1176470588235294
 40
0.1176470588235294
 40
0.1764705882352941
 40
0.1764705882352941
 40
0.1764705882352941
 40
0.2352941176470588
 40
0.2352941176470588
 40
0.2352941176470588
 40
0.2941176470588235
 40
0.2941176470588235
 40
0.2941176470588235
 40
0.3529411764705882
 40
0.3529411764705882
 40
0.3529411764705882
 40
0.4117647058823529
 40
0.4117647058823529
 40
0.4117647058823529
 40
0.4705882352941176
 40
0.4705882352941176
 40
0.4705882352941176
 40
0.5294117647058824
 40
0.5294117647058824
 40
0.5294117647058824
 40
0.5882352941176471
 40
0.5882352941176471
 40
0.5882352941176471
 40
0.6470588235294118
 40
0.6470588235294118
 40
0.6470588235294118
 40
0.7058823529411764
 40
0.7058823529411764
 40
0.7058823529411764
 40
0.7647058823529411
 40
0.7647058823529411
 40
0.7647058823529411
 40
0.8235294117647058
 40
0.8235294117647058
 40
0.8235294117647058
 40
0.8823529411764706
 40
0.8823529411764706
 40
0.8823529411764706
 40
0.9411764705882353
 40
0.9411764705882353
 40
0.9411764705882353
 40
1.0
 40
1.0
 40
1.0
 40
1.0
 10
18.8515
 20
-18.4006
 30
0.0
 10
18.8515
 20
-18.4006
 30
0.0
 10
18.8515
 20
-18.5841
 30
0.0
 10
18.8515
 20
-18.5841
 30
0.0
 10
18.8515
 20
-18.5841
 30
0.0
 10
18.4846
 20
-18.5841
 30
0.0
 10
18.4846
 20
-18.5841
 30
0.0
 10
18.4846
 20
-18.5841
 30
0.0
 10
18.0443
 20
-18.5841
 30
0.0
 10
18.0443
 20
-18.5841
 30
0.0
 10
18.0443
 20
-18.5841
 30
0.0
 10
17.646
 20
-18.5841
 30
0.0
 10
17.646
 20
-18.5841
 30
0.0
 10
17.646
 20
-18.5841
 30
0.0
 10
17.646
 20
-18.4006
 30
0.0
 10
17.646
 20
-18.4006
 30
0.0
 10
17.646
 20
-18.4006
 30
0.0
 10
18.0519
 20
-18.3266
 30
0.0
 10
18.0519
 20
-18.3266
 30
0.0
 10
18.0574
 20
-18.0633
 30
0.0
 10
18.0602
 20
-17.7174
 30
0.0
 10
18.0602
 20
-17.4834
 30
0.0
 10
18.0602
 20
-17.4834
 30
0.0
 10
18.0602
 20
-17.2368
 30
0.0
 10
18.0602
 20
-17.2368
 30
0.0
 10
18.0602
 20
-16.9486
 30
0.0
 10
18.0549
 20
-16.7863
 30
0.0
 10
18.0443
 20
-16.5768
 30
0.0
 10
18.0443
 20
-16.5768
 30
0.0
 10
17.6146
 20
-16.5298
 30
0.0
 10
17.6146
 20
-16.5298
 30
0.0
 10
17.6146
 20
-16.5298
 30
0.0
 10
17.6146
 20
-16.346
 30
0.0
 10
17.6146
 20
-16.346
 30
0.0
 10
17.6146
 20
-16.346
 30
0.0
 10
18.4059
 20
-16.0317
 30
0.0
 10
18.4059
 20
-16.0317
 30
0.0
 10
18.4059
 20
-16.0317
 30
0.0
 10
18.4846
 20
-16.0843
 30
0.0
 10
18.4846
 20
-16.0843
 30
0.0
 10
18.4846
 20
-16.0843
 30
0.0
 10
18.4687
 20
-16.792
 30
0.0
 10
18.4687
 20
-16.792
 30
0.0
 10
18.4687
 20
-16.792
 30
0.0
 10
18.4687
 20
-17.4834
 30
0.0
 10
18.4687
 20
-17.4834
 30
0.0
 10
18.4687
 20
-17.7171
 30
0.0
 10
18.4717
 20
-18.0625
 30
0.0
 10
18.4771
 20
-18.3256
 30
0.0
 10
18.4771
 20
-18.3256
 30
0.0
 10
18.8515
 20
-18.4006
 30
0.0
 10
18.8515
 20
-18.4006
 30
0.0
  0
SPLINE
  5
92
330
1F
100
AcDbEntity
  8
Layer 1
 62
   250
100
AcDbSpline
210
0.0
220
0.0
230
1.0
 70
    11
 71
     3
 72
    17
 73
    13
 74
     0
 42
0.0000000001
 43
0.0000000001
 40
0.0
 40
0.0
 40
0.0
 40
0.0
 40
0.25
 40
0.25
 40
0.25
 40
0.5
 40
0.5
 40
0.5
 40
0.75
 40
0.75
 40
0.75
 40
1.0
 40
1.0
 40
1.0
 40
1.0
 10
19.4703
 20
-15.1092
 30
0.0
 10
19.4703
 20
-14.9102
 30
0.0
 10
19.6223
 20
-14.779
 30
0.0
 10
19.8164
 20
-14.779
 30
0.0
 10
20.01
 20
-14.779
 30
0.0
 10
20.1621
 20
-14.9102
 30
0.0
 10
20.1621
 20
-15.1092
 30
0.0
 10
20.1621
 20
-15.3036
 30
0.0
 10
20.01
 20
-15.4394
 30
0.0
 10
19.8164
 20
-15.4394
 30
0.0
 10
19.6223
 20
-15.4394
 30
0.0
 10
19.4703
 20
-15.3036
 30
0.0
 10
19.4703
 20
-15.1092
 30
0.0
  0
SPLINE
  5
93
330
1F
100
AcDbEntity
  8
Layer 1
 62
   250
100
AcDbSpline
210
0.0
220
0.0
230
1.0
 70
    11
 71
     3
 72
    56
 73
    52
 74
     0
 42
0.0000000001
 43
0.0000000001
 40
0.0
 40
0.0
 40
0.0
 40
0.0
 40
0.0588235294117647
 40
0.0588235294117647
 40
0.0588235294117647
 40
0.1176470588235294
 40
0.1176470588235294
 40
0.1176470588235294
 40
0.1764705882352941
 40
0.1764705882352941
 40
0.1764705882352941
 40
0.2352941176470588
 40
0.2352941176470588
 40
0.2352941176470588
 40
0.2941176470588235
 40
0.2941176470588235
 40
0.2941176470588235
 40
0.3529411764705882
 40
0.3529411764705882
 40
0.3529411764705882
 40
0.4117647058823529
 40
0.4117647058823529
 40
0.4117647058823529
 40
0.4705882352941176
 40
0.4705882352941176
 40
0.4705882352941176
 40
0.5294117647058824
 40
0.5294117647058824
 40
0.5294117647058824
 40
0.5882352941176471
 40
0.5882352941176471
 40
0.5882352941176471
 40
0.6470588235294118
 40
0.6470588235294118
 40
0.6470588235294118
 40
0.7058823529411764
 40
0.7058823529411764
 40
0.7058823529411764
 40
0.7647058823529411
 40
0.7647058823529411
 40
0.7647058823529411
 40
0.8235294117647058
 40
0.8235294117647058
 40
0.8235294117647058
 40
0.8823529411764706
 40
0.8823529411764706
 40
0.8823529411764706
 40
0.9411764705882353
 40
0.9411764705882353
 40
0.9411764705882353
 40
1.0
 40
1.0
 40
1.0
 40
1.0
 10
20.4083
 20
-18.4006
 30
0.0
 10
20.4083
 20
-18.4006
 30
0.0
 10
20.4083
 20
-18.5841
 30
0.0
 10
20.4083
 20
-18.5841
 30
0.0
 10
20.4083
 20
-18.5841
 30
0.0
 10
20.0414
 20
-18.5841
 30
0.0
 10
20.0414
 20
-18.5841
 30
0.0
 10
20.0414
 20
-18.5841
 30
0.0
 10
19.6012
 20
-18.5841
 30
0.0
 10
19.6012
 20
-18.5841
 30
0.0
 10
19.6012
 20
-18.5841
 30
0.0
 10
19.2029
 20
-18.5841
 30
0.0
 10
19.2029
 20
-18.5841
 30
0.0
 10
19.2029
 20
-18.5841
 30
0.0
 10
19.2029
 20
-18.4006
 30
0.0
 10
19.2029
 20
-18.4006
 30
0.0
 10
19.2029
 20
-18.4006
 30
0.0
 10
19.6087
 20
-18.3266
 30
0.0
 10
19.6087
 20
-18.3266
 30
0.0
 10
19.6141
 20
-18.0633
 30
0.0
 10
19.6167
 20
-17.7174
 30
0.0
 10
19.6167
 20
-17.4834
 30
0.0
 10
19.6167
 20
-17.4834
 30
0.0
 10
19.6167
 20
-17.2368
 30
0.0
 10
19.6167
 20
-17.2368
 30
0.0
 10
19.6167
 20
-16.9486
 30
0.0
 10
19.6117
 20
-16.7863
 30
0.0
 10
19.6012
 20
-16.5768
 30
0.0
 10
19.6012
 20
-16.5768
 30
0.0
 10
19.1715
 20
-16.5298
 30
0.0
 10
19.1715
 20
-16.5298
 30
0.0
 10
19.1715
 20
-16.5298
 30
0.0
 10
19.1715
 20
-16.346
 30
0.0
 10
19.1715
 20
-16.346
 30
0.0
 10
19.1715
 20
-16.346
 30
0.0
 10
19.9628
 20
-16.0317
 30
0.0
 10
19.9628
 20
-16.0317
 30
0.0
 10
19.9628
 20
-16.0317
 30
0.0
 10
20.0414
 20
-16.0843
 30
0.0
 10
20.0414
 20
-16.0843
 30
0.0
 10
20.0414
 20
-16.0843
 30
0.0
 10
20.0256
 20
-16.792
 30
0.0
 10
20.0256
 20
-16.792
 30
0.0
 10
20.0256
 20
-16.792
 30
0.0
 10
20.0256
 20
-17.4834
 30
0.0
 10
20.0256
 20
-17.4834
 30
0.0
 10
20.0256
 20
-17.717
 30
0.0
 10
20.0285
 20
-18.0623
 30
0.0
 10
20.0339
 20
-18.3255
 30
0.0
 10
20.0339
 20
-18.3255
 30
0.0
 10
20.4083
 20
-18.4006
 30
0.0
 10
20.4083
 20
-18.4006
 30
0.0
  0
SPLINE
  5
94
330
1F
100
AcDbEntity
  8
Layer 1
 62
   250
100
AcDbSpline
210
0.0
220
0.0
230
1.0
 70
    11
 71
     3
 72
    17
 73
    13
 74
     0
 42
0.0000000001
 43
0.0000000001
 40
0.0
 40
0.0
 40
0.0
 40
0.0
 40
0.25
 40
0.25
 40
0.25
 40
0.5
 40
0.5
 40
0.5
 40
0.75
 40
0.75
 40
0.75
 40
1.0
 40
1.0
 40
1.0
 40
1.0
 10
21.0275
 20
-15.1092
 30
0.0
 10
21.0275
 20
-14.9102
 30
0.0
 10
21.1795
 20
-14.779
 30
0.0
 10
21.3732
 20
-14.779
 30
0.0
 10
21.5672
 20
-14.779
 30
0.0
 10
21.7193
 20
-14.9102
 30
0.0
 10
21.7193
 20
-15.1092
 30
0.0
 10
21.7193
 20
-15.3036
 30
0.0
 10
21.5672
 20
-15.4394
 30
0.0
 10
21.3732
 20
-15.4394
 30
0.0
 10
21.1795
 20
-15.4394
 30
0.0
 10
21.0275
 20
-15.3036
 30
0.0
 10
21.0275
 20
-15.1092
 30
0.0
  0
SPLINE
  5
95
330
1F
100
AcDbEntity
  8
Layer 1
 62
   250
100
AcDbSpline
210
0.0
220
0.0
230
1.0
 70
    11
 71
     3
 72
    56
 73
    52
 74
     0
 42
0.0000000001
 43
0.0000000001
 40
0.0
 40
0.0
 40
0.0
 40
0.0
 40
0.0588235294117647
 40
0.0588235294117647
 40
0.0588235294117647
 40
0.1176470588235294
 40
0.1176470588235294
 40
0.1176470588235294
 40
0.1764705882352941
 40
0.1764705882352941
 40
0.1764705882352941
 40
0.2352941176470588
 40
0.2352941176470588
 40
0.2352941176470588
 40
0.2941176470588235
 40
0.2941176470588235
 40
0.2941176470588235
 40
0.3529411764705882
 40
0.3529411764705882
 40
0.3529411764705882
 40
0.4117647058823529
 40
0.4117647058823529
 40
0.4117647058823529
 40
0.4705882352941176
 40
0.4705882352941176
 40
0.4705882352941176
 40
0.5294117647058824
 40
0.5294117647058824
 40
0.5294117647058824
 40
0.5882352941176471
 40
0.5882352941176471
 40
0.5882352941176471
 40
0.6470588235294118
 40
0.6470588235294118
 40
0.6470588235294118
 40
0.7058823529411764
 40
0.7058823529411764
 40
0.7058823529411764
 40
0.7647058823529411
 40
0.7647058823529411
 40
0.7647058823529411
 40
0.8235294117647058
 40
0.8235294117647058
 40
0.8235294117647058
 40
0.8823529411764706
 40
0.8823529411764706
 40
0.8823529411764706
 40
0.9411764705882353
 40
0.9411764705882353
 40
0.9411764705882353
 40
1.0
 40
1.0
 40
1.0
 40
1.0
 10
21.9655
 20
-18.4006
 30
0.0
 10
21.9655
 20
-18.4006
 30
0.0
 10
21.9655
 20
-18.5841
 30
0.0
 10
21.9655
 20
-18.5841
 30
0.0
 10
21.9655
 20
-18.5841
 30
0.0
 10
21.5986
 20
-18.5841
 30
0.0
 10
21.5986
 20
-18.5841
 30
0.0
 10
21.5986
 20
-18.5841
 30
0.0
 10
21.1584
 20
-18.5841
 30
0.0
 10
21.1584
 20
-18.5841
 30
0.0
 10
21.1584
 20
-18.5841
 30
0.0
 10
20.7601
 20
-18.5841
 30
0.0
 10
20.7601
 20
-18.5841
 30
0.0
 10
20.7601
 20
-18.5841
 30
0.0
 10
20.7601
 20
-18.4006
 30
0.0
 10
20.7601
 20
-18.4006
 30
0.0
 10
20.7601
 20
-18.4006
 30
0.0
 10
21.166
 20
-18.3266
 30
0.0
 10
21.166
 20
-18.3266
 30
0.0
 10
21.1714
 20
-18.0633
 30
0.0
 10
21.1742
 20
-17.7174
 30
0.0
 10
21.1742
 20
-17.4834
 30
0.0
 10
21.1742
 20
-17.4834
 30
0.0
 10
21.1742
 20
-17.2368
 30
0.0
 10
21.1742
 20
-17.2368
 30
0.0
 10
21.1742
 20
-16.9486
 30
0.0
 10
21.1689
 20
-16.7863
 30
0.0
 10
21.1584
 20
-16.5768
 30
0.0
 10
21.1584
 20
-16.5768
 30
0.0
 10
20.7287
 20
-16.5298
 30
0.0
 10
20.7287
 20
-16.5298
 30
0.0
 10
20.7287
 20
-16.5298
 30
0.0
 10
20.7287
 20
-16.346
 30
0.0
 10
20.7287
 20
-16.346
 30
0.0
 10
20.7287
 20
-16.346
 30
0.0
 10
21.52
 20
-16.0317
 30
0.0
 10
21.52
 20
-16.0317
 30
0.0
 10
21.52
 20
-16.0317
 30
0.0
 10
21.5986
 20
-16.0843
 30
0.0
 10
21.5986
 20
-16.0843
 30
0.0
 10
21.5986
 20
-16.0843
 30
0.0
 10
21.5831
 20
-16.792
 30
0.0
 10
21.5831
 20
-16.792
 30
0.0
 10
21.5831
 20
-16.792
 30
0.0
 10
21.5831
 20
-17.4834
 30
0.0
 10
21.5831
 20
-17.4834
 30
0.0
 10
21.5831
 20
-17.7171
 30
0.0
 10
21.5858
 20
-18.0625
 30
0.0
 10
21.5912
 20
-18.3256
 30
0.0
 10
21.5912
 20
-18.3256
 30
0.0
 10
21.9655
 20
-18.4006
 30
0.0
 10
21.9655
 20
-18.4006
 30
0.0
  0
ENDSEC
  0
SECTION
  2
OBJECTS
  0
DICTIONARY
  5
C
330
0
100
AcDbDictionary
281
     1
  3
ACAD_DETAILVIEWSTYLE
350
9D
  3
ACAD_GROUP
350
D
  3
ACAD_LAYOUT
350
1A
  3
ACAD_MATERIAL
350
43
  3
ACAD_MLEADERSTYLE
350
5B
  3
ACAD_MLINESTYLE
350
17
  3
ACAD_PLOTSETTINGS
350
19
  3
ACAD_PLOTSTYLENAME
350
E
  3
ACAD_SCALELIST
350
47
  3
ACAD_SECTIONVIEWSTYLE
350
9E
  3
ACAD_TABLESTYLE
350
59
  3
ACAD_VISUALSTYLE
350
2A
  3
ACDB_RECOMPOSE_DATA
350
9A
  3
AcDbVariableDictionary
350
96
  0
SUN
  5
5D
330
29
100
AcDbSun
 90
        1
290
     0
 63
     7
421
 16777215
 40
1.0
291
     1
 91
  2455826
 92
 54000000
292
     0
 70
     2
 71
   256
280
     1
  0
DICTIONARY
  5
9D
102
{ACAD_REACTORS
330
C
102
}
330
C
100
AcDbDictionary
281
     1
  0
DICTIONARY
  5
D
102
{ACAD_REACTORS
330
C
102
}
330
C
100
AcDbDictionary
281
     1
  0
DICTIONARY
  5
1A
102
{ACAD_REACTORS
330
C
102
}
330
C
100
AcDbDictionary
281
     1
  3
Layout1
350
1E
  3
Layout2
350
26
  3
Model
350
22
  0
DICTIONARY
  5
43
102
{ACAD_REACTORS
330
C
102
}
330
C
100
AcDbDictionary
281
     1
  3
ByBlock
350
45
  3
ByLayer
350
44
  3
Global
350
46
  0
DICTIONARY
  5
5B
102
{ACAD_REACTORS
330
C
102
}
330
C
100
AcDbDictionary
281
     1
  3
Standard
350
5C
  0
DICTIONARY
  5
17
102
{ACAD_REACTORS
330
C
102
}
330
C
100
AcDbDictionary
281
     1
  3
Standard
350
18
  0
DICTIONARY
  5
19
102
{ACAD_REACTORS
330
C
102
}
330
C
100
AcDbDictionary
281
     1
  0
ACDBDICTIONARYWDFLT
  5
E
102
{ACAD_REACTORS
330
C
102
}
330
C
100
AcDbDictionary
281
     1
  3
Normal
350
F
100
AcDbDictionaryWithDefault
340
F
  0
DICTIONARY
  5
47
102
{ACAD_REACTORS
330
C
102
}
330
C
100
AcDbDictionary
281
     1
  3
A0
350
48
  3
A1
350
49
  3
A2
350
4A
  3
A3
350
4B
  3
A4
350
4C
  3
A5
350
4D
  3
A6
350
4E
  3
A7
350
4F
  3
A8
350
50
  3
A9
350
51
  3
B1
350
52
  3
B2
350
53
  3
B3
350
54
  3
B4
350
55
  3
B5
350
56
  3
B6
350
57
  3
B7
350
58
  0
DICTIONARY
  5
9E
102
{ACAD_REACTORS
330
C
102
}
330
C
100
AcDbDictionary
281
     1
  0
DICTIONARY
  5
59
102
{ACAD_REACTORS
330
C
102
}
330
C
100
AcDbDictionary
281
     1
  3
Standard
350
5A
  0
DICTIONARY
  5
2A
102
{ACAD_REACTORS
330
C
102
}
330
C
100
AcDbDictionary
281
     1
  3
2dWireframe
350
2F
  3
Basic
350
32
  3
Brighten
350
36
  3
ColorChange
350
3A
  3
Conceptual
350
34
  3
Dim
350
35
  3
EdgeColorOff
350
3D
  3
Facepattern
350
39
  3
Flat
350
2B
  3
FlatWithEdges
350
2C
  3
Gouraud
350
2D
  3
GouraudWithEdges
350
2E
  3
Hidden
350
31
  3
JitterOff
350
3B
  3
Linepattern
350
38
  3
OverhangOff
350
3C
  3
Realistic
350
33
  3
Shaded
350
42
  3
Shaded with edges
350
41
  3
Shades of Gray
350
3E
  3
Sketchy
350
3F
  3
Thicken
350
37
  3
Wireframe
350
30
  3
X-Ray
350
40
  0
XRECORD
  5
9A
102
{ACAD_REACTORS
330
C
102
}
330
C
100
AcDbXrecord
280
     1
 90
        1
330
5A
  0
DICTIONARY
  5
96
102
{ACAD_REACTORS
330
C
102
}
330
C
100
AcDbDictionary
281
     1
  3
CANNOSCALE
350
97
  3
CMLEADERSTYLE
350
9C
  3
CTABLESTYLE
350
9B
  0
LAYOUT
  5
1E
102
{ACAD_REACTORS
330
1A
102
}
330
1A
100
AcDbPlotSettings
  1

  2
none_device
  4

  6

 40
0.0
 41
0.0
 42
0.0
 43
0.0
 44
0.0
 45
0.0
 46
0.0
 47
0.0
 48
0.0
 49
0.0
140
0.0
141
0.0
142
1.0
143
1.0
 70
   688
 72
     0
 73
     0
 74
     5
  7

 75
    16
 76
     0
 77
     2
 78
   300
147
1.0
148
0.0
149
0.0
100
AcDbLayout
  1
Layout1
 70
     1
 71
     1
 10
0.0
 20
0.0
 11
12.0
 21
9.0
 12
0.0
 22
0.0
 32
0.0
 14
1.000000000000000E+20
 24
1.000000000000000E+20
 34
1.000000000000000E+20
 15
-1.000000000000000E+20
 25
-1.000000000000000E+20
 35
-1.000000000000000E+20
146
0.0
 13
0.0
 23
0.0
 33
0.0
 16
1.0
 26
0.0
 36
0.0
 17
0.0
 27
1.0
 37
0.0
 76
     0
330
1B
  0
LAYOUT
  5
26
102
{ACAD_REACTORS
330
1A
102
}
330
1A
100
AcDbPlotSettings
  1

  2
none_device
  4

  6

 40
0.0
 41
0.0
 42
0.0
 43
0.0
 44
0.0
 45
0.0
 46
0.0
 47
0.0
 48
0.0
 49
0.0
140
0.0
141
0.0
142
1.0
143
1.0
 70
   688
 72
     0
 73
     0
 74
     5
  7

 75
    16
 76
     0
 77
     2
 78
   300
147
1.0
148
0.0
149
0.0
100
AcDbLayout
  1
Layout2
 70
     1
 71
     2
 10
0.0
 20
0.0
 11
0.0
 21
0.0
 12
0.0
 22
0.0
 32
0.0
 14
0.0
 24
0.0
 34
0.0
 15
0.0
 25
0.0
 35
0.0
146
0.0
 13
0.0
 23
0.0
 33
0.0
 16
1.0
 26
0.0
 36
0.0
 17
0.0
 27
1.0
 37
0.0
 76
     0
330
23
  0
LAYOUT
  5
22
102
{ACAD_REACTORS
330
1A
102
}
330
1A
100
AcDbPlotSettings
  1

  2
none_device
  4
Letter_(8.50_x_11.00_Inches)
  6

 40
6.35
 41
6.35
 42
6.35000508
 43
6.35000508
 44
215.9
 45
279.4
 46
0.0
 47
0.0
 48
0.0
 49
0.0
140
0.0
141
0.0
142
1.0
143
1.0
 70
  1712
 72
     0
 73
     0
 74
     0
  7

 75
     0
 76
     0
 77
     2
 78
   300
147
1.0
148
0.0
149
0.0
100
AcDbLayout
  1
Model
 70
     1
 71
     0
 10
0.0
 20
0.0
 11
12.0
 21
9.0
 12
0.0
 22
0.0
 32
0.0
 14
-21.8301
 24
-19.6303
 34
0.0
 15
21.9655
 25
19.8972
 35
0.0
146
0.0
 13
0.0
 23
0.0
 33
0.0
 16
1.0
 26
0.0
 36
0.0
 17
0.0
 27
1.0
 37
0.0
 76
     0
330
1F
331
29
  0
MATERIAL
  5
45
102
{ACAD_REACTORS
330
43
102
}
330
43
100
AcDbMaterial
  1
ByBlock
 72
     1
 94
      127
  0
MATERIAL
  5
44
102
{ACAD_REACTORS
330
43
102
}
330
43
100
AcDbMaterial
  1
ByLayer
 72
     1
 94
      127
  0
MATERIAL
  5
46
102
{ACAD_REACTORS
330
43
102
}
330
43
100
AcDbMaterial
  1
Global
 72
     1
 94
      127
  0
MLEADERSTYLE
  5
5C
102
{ACAD_REACTORS
330
5B
102
}
330
5B
100
AcDbMLeaderStyle
179
     2
170
     2
171
     1
172
     0
 90
        2
 40
0.0
 41
0.0
173
     1
 91
-1056964608
340
14
 92
       -2
290
     1
 42
0.09
291
     1
 43
0.36
  3
Standard
341
0
 44
0.18
300

342
11
174
     1
178
     6
175
     1
176
     0
 93
-1056964608
 45
0.18
292
     0
297
     0
 46
0.18
343
0
 94
-1056964608
 47
1.0
 49
1.0
140
1.0
293
     1
141
0.0
294
     1
177
     0
142
1.0
295
     0
296
     0
143
0.125
271
     0
272
     9
273
     9
298
     0
  0
MLINESTYLE
  5
18
102
{ACAD_REACTORS
330
17
102
}
330
17
100
AcDbMlineStyle
  2
Standard
 70
     0
  3

 62
   256
 51
90.0
 52
90.0
 71
     2
 49
0.5
 62
   256
  6
BYLAYER
 49
-0.5
 62
   256
  6
BYLAYER
  0
ACDBPLACEHOLDER
  5
F
102
{ACAD_REACTORS
330
E
102
}
330
E
  0
SCALE
  5
48
102
{ACAD_REACTORS
330
47
102
}
330
47
100
AcDbScale
 70
     0
300
1:1
140
1.0
141
1.0
290
     1
  0
SCALE
  5
49
102
{ACAD_REACTORS
330
47
102
}
330
47
100
AcDbScale
 70
     0
300
1/128" = 1'-0"
140
0.0078125
141
12.0
290
     0
  0
SCALE
  5
4A
102
{ACAD_REACTORS
330
47
102
}
330
47
100
AcDbScale
 70
     0
300
1/64" = 1'-0"
140
0.015625
141
12.0
290
     0
  0
SCALE
  5
4B
102
{ACAD_REACTORS
330
47
102
}
330
47
100
AcDbScale
 70
     0
300
1/32" = 1'-0"
140
0.03125
141
12.0
290
     0
  0
SCALE
  5
4C
102
{ACAD_REACTORS
330
47
102
}
330
47
100
AcDbScale
 70
     0
300
1/16" = 1'-0"
140
0.0625
141
12.0
290
     0
  0
SCALE
  5
4D
102
{ACAD_REACTORS
330
47
102
}
330
47
100
AcDbScale
 70
     0
300
3/32" = 1'-0"
140
0.09375
141
12.0
290
     0
  0
SCALE
  5
4E
102
{ACAD_REACTORS
330
47
102
}
330
47
100
AcDbScale
 70
     0
300
1/8" = 1'-0"
140
0.125
141
12.0
290
     0
  0
SCALE
  5
4F
102
{ACAD_REACTORS
330
47
102
}
330
47
100
AcDbScale
 70
     0
300
3/16" = 1'-0"
140
0.1875
141
12.0
290
     0
  0
SCALE
  5
50
102
{ACAD_REACTORS
330
47
102
}
330
47
100
AcDbScale
 70
     0
300
1/4" = 1'-0"
140
0.25
141
12.0
290
     0
  0
SCALE
  5
51
102
{ACAD_REACTORS
330
47
102
}
330
47
100
AcDbScale
 70
     0
300
3/8" = 1'-0"
140
0.375
141
12.0
290
     0
  0
SCALE
  5
52
102
{ACAD_REACTORS
330
47
102
}
330
47
100
AcDbScale
 70
     0
300
1/2" = 1'-0"
140
0.5
141
12.0
290
     0
  0
SCALE
  5
53
102
{ACAD_REACTORS
330
47
102
}
330
47
100
AcDbScale
 70
     0
300
3/4" = 1'-0"
140
0.75
141
12.0
290
     0
  0
SCALE
  5
54
102
{ACAD_REACTORS
330
47
102
}
330
47
100
AcDbScale
 70
     0
300
1" = 1'-0"
140
1.0
141
12.0
290
     0
  0
SCALE
  5
55
102
{ACAD_REACTORS
330
47
102
}
330
47
100
AcDbScale
 70
     0
300
1-1/2" = 1'-0"
140
1.5
141
12.0
290
     0
  0
SCALE
  5
56
102
{ACAD_REACTORS
330
47
102
}
330
47
100
AcDbScale
 70
     0
300
3" = 1'-0"
140
3.0
141
12.0
290
     0
  0
SCALE
  5
57
102
{ACAD_REACTORS
330
47
102
}
330
47
100
AcDbScale
 70
     0
300
6" = 1'-0"
140
6.0
141
12.0
290
     0
  0
SCALE
  5
58
102
{ACAD_REACTORS
330
47
102
}
330
47
100
AcDbScale
 70
     0
300
1'-0" = 1'-0"
140
12.0
141
12.0
290
     0
  0
TABLESTYLE
  5
5A
102
{ACAD_REACTORS
330
59
102
}
102
{ACAD_XDICTIONARY
360
98
102
}
330
59
100
AcDbTableStyle
  3
Standard
 70
     0
 71
     0
 40
0.06
 41
0.06
280
     0
281
     0
  7
Standard
140
0.18
170
     2
 62
     0
 63
   257
283
     0
 90
        4
 91
        0
  1

274
    -2
284
     1
 64
     0
275
    -2
285
     1
 65
     0
276
    -2
286
     1
 66
     0
277
    -2
287
     1
 67
     0
278
    -2
288
     1
 68
     0
279
    -2
289
     1
 69
     0
  7
Standard
140
0.25
170
     5
 62
     0
 63
   257
283
     0
 90
        4
 91
        0
  1

274
    -2
284
     1
 64
     0
275
    -2
285
     1
 65
     0
276
    -2
286
     1
 66
     0
277
    -2
287
     1
 67
     0
278
    -2
288
     1
 68
     0
279
    -2
289
     1
 69
     0
  7
Standard
140
0.18
170
     5
 62
     0
 63
   257
283
     0
 90
        4
 91
        0
  1

274
    -2
284
     1
 64
     0
275
    -2
285
     1
 65
     0
276
    -2
286
     1
 66
     0
277
    -2
287
     1
 67
     0
278
    -2
288
     1
 68
     0
279
    -2
289
     1
 69
     0
  0
VISUALSTYLE
  5
2F
102
{ACAD_REACTORS
330
2A
102
}
330
2A
100
AcDbVisualStyle
  2
2dWireframe
 70
     4
177
     3
291
     0
 70
    58
 90
        0
176
     1
 90
        2
176
     1
 90
        0
176
     1
 90
        0
176
     1
 40
0.6
176
     1
 40
30.0
176
     1
 62
     7
420
 16777215
176
     1
 90
        1
176
     1
 90
        4
176
     1
 62
     7
176
     1
 62
   257
176
     1
 90
        1
176
     1
 90
        1
176
     1
 40
1.0
176
     1
 90
        0
176
     1
 62
   257
176
     1
 40
1.0
176
     1
 90
        1
176
     1
 90
        6
176
     1
 90
        2
176
     1
 62
     7
176
     1
 90
        5
176
     1
 90
        0
176
     1
 90
        0
176
     1
290
     0
176
     1
 90
        1
176
     1
 40
0.0
176
     1
 90
        0
176
     1
290
     1
176
     1
290
     1
176
     1
290
     0
176
     1
290
     0
176
     1
290
     0
176
     1
290
     0
176
     1
290
     0
176
     1
290
     0
176
     1
290
     0
176
     1
 90
       50
176
     1
 40
0.0
176
     1
 40
1.0
176
     1
 90
        0
176
     1
 62
    18
420
        0
176
     1
 90
       50
176
     1
 90
        3
176
     1
 62
     5
420
      255
176
     1
290
     0
176
     1
 90
       50
176
     1
 90
       50
176
     1
 90
       50
176
     1
290
     0
176
     1
 90
       50
176
     1
 62
   256
176
     0
 40
1.0
176
     0
 90
        2
176
     1
  1
strokes_ogs.tif
176
     1
290
     0
176
     1
 40
1.0
176
     1
 40
1.0
176
     1
  0
VISUALSTYLE
  5
32
102
{ACAD_REACTORS
330
2A
102
}
330
2A
100
AcDbVisualStyle
  2
Basic
 70
     7
177
     3
291
     1
 70
    58
 90
        1
176
     1
 90
        0
176
     1
 90
        1
176
     1
 90
        0
176
     1
 40
0.6
176
     1
 40
30.0
176
     1
 62
     7
420
 16777215
176
     1
 90
        0
176
     1
 90
        4
176
     1
 62
     7
176
     1
 62
   257
176
     1
 90
        1
176
     1
 90
        1
176
     1
 40
1.0
176
     1
 90
        8
176
     1
 62
     7
176
     1
 40
1.0
176
     1
 90
        1
176
     1
 90
        6
176
     1
 90
        2
176
     1
 62
     7
176
     1
 90
        5
176
     1
 90
        0
176
     1
 90
        0
176
     1
290
     0
176
     1
 90
        1
176
     1
 40
0.0
176
     1
 90
        0
176
     1
290
     0
176
     1
290
     1
176
     1
290
     1
176
     1
290
     0
176
     1
290
     0
176
     1
290
     0
176
     1
290
     0
176
     1
290
     0
176
     1
290
     0
176
     1
 90
       50
176
     1
 40
0.0
176
     1
 40
1.0
176
     1
 90
        0
176
     1
 62
    18
420
        0
176
     1
 90
       50
176
     1
 90
        3
176
     1
 62
     5
420
      255
176
     1
290
     0
176
     1
 90
       50
176
     1
 90
       50
176
     1
 90
       50
176
     1
290
     0
176
     1
 90
       50
176
     1
 62
   256
176
     0
 40
1.0
176
     0
 90
        2
176
     1
  1
strokes_ogs.tif
176
     1
290
     0
176
     1
 40
1.0
176
     1
 40
1.0
176
     1
  0
VISUALSTYLE
  5
36
102
{ACAD_REACTORS
330
2A
102
}
330
2A
100
AcDbVisualStyle
  2
Brighten
 70
    12
177
     3
291
     1
 70
    58
 90
        2
176
     1
 90
        2
176
     1
 90
        0
176
     1
 90
        0
176
     1
 40
0.6
176
     1
 40
30.0
176
     1
 62
     7
420
 16777215
176
     1
 90
        1
176
     1
 90
        4
176
     1
 62
     7
176
     1
 62
   257
176
     1
 90
        1
176
     1
 90
        1
176
     1
 40
1.0
176
     1
 90
        8
176
     1
 62
     7
176
     1
 40
1.0
176
     1
 90
        1
176
     1
 90
        6
176
     1
 90
        2
176
     1
 62
     7
176
     1
 90
        5
176
     1
 90
        0
176
     1
 90
        0
176
     1
290
     0
176
     1
 90
        1
176
     1
 40
50.0
176
     1
 90
        0
176
     1
290
     0
176
     1
290
     1
176
     1
290
     1
176
     1
290
     0
176
     1
290
     0
176
     1
290
     0
176
     1
290
     0
176
     1
290
     0
176
     1
290
     0
176
     1
 90
       50
176
     1
 40
0.0
176
     1
 40
1.0
176
     1
 90
        0
176
     1
 62
    18
420
        0
176
     1
 90
       50
176
     1
 90
        3
176
     1
 62
     5
420
      255
176
     1
290
     0
176
     1
 90
       50
176
     1
 90
       50
176
     1
 90
       50
176
     1
290
     0
176
     1
 90
       50
176
     1
 62
   256
176
     0
 40
1.0
176
     0
 90
        2
176
     1
  1
strokes_ogs.tif
176
     1
290
     0
176
     1
 40
1.0
176
     1
 40
1.0
176
     1
  0
VISUALSTYLE
  5
3A
102
{ACAD_REACTORS
330
2A
102
}
330
2A
100
AcDbVisualStyle
  2
ColorChange
 70
    16
177
     3
291
     1
 70
    58
 90
        2
176
     1
 90
        2
176
     1
 90
        3
176
     1
 90
        0
176
     1
 40
0.6
176
     1
 40
30.0
176
     1
 62
     8
420
  8421504
176
     1
 90
        1
176
     1
 90
        4
176
     1
 62
     7
176
     1
 62
   257
176
     1
 90
        1
176
     1
 90
        1
176
     1
 40
1.0
176
     1
 90
        8
176
     1
 62
     8
420
  8421504
176
     1
 40
1.0
176
     1
 90
        1
176
     1
 90
        6
176
     1
 90
        2
176
     1
 62
     7
176
     1
 90
        5
176
     1
 90
        0
176
     1
 90
        0
176
     1
290
     0
176
     1
 90
        1
176
     1
 40
0.0
176
     1
 90
        0
176
     1
290
     0
176
     1
290
     1
176
     1
290
     1
176
     1
290
     0
176
     1
290
     0
176
     1
290
     0
176
     1
290
     0
176
     1
290
     0
176
     1
290
     0
176
     1
 90
       50
176
     1
 40
0.0
176
     1
 40
1.0
176
     1
 90
        0
176
     1
 62
    18
420
        0
176
     1
 90
       50
176
     1
 90
        3
176
     1
 62
     5
420
      255
176
     1
290
     0
176
     1
 90
       50
176
     1
 90
       50
176
     1
 90
       50
176
     1
290
     0
176
     1
 90
       50
176
     1
 62
   256
176
     0
 40
1.0
176
     0
 90
        2
176
     1
  1
strokes_ogs.tif
176
     1
290
     0
176
     1
 40
1.0
176
     1
 40
1.0
176
     1
  0
VISUALSTYLE
  5
34
102
{ACAD_REACTORS
330
2A
102
}
330
2A
100
AcDbVisualStyle
  2
Conceptual
 70
     9
177
     3
291
     0
 70
    58
 90
        3
176
     1
 90
        2
176
     1
 90
        0
176
     1
 90
        0
176
     1
 40
0.6
176
     1
 40
30.0
176
     1
 62
     7
420
 16777215
176
     1
 90
        2
176
     1
 90
        2
176
     1
 62
     7
176
     1
 62
   257
176
     1
 90
        1
176
     1
 90
        1
176
     1
 40
179.0
176
     1
 90
        8
176
     1
 62
     7
176
     1
 40
1.0
176
     1
 90
        1
176
     1
 90
        6
176
     1
 90
        2
176
     1
 62
     7
176
     1
 90
        3
176
     1
 90
        0
176
     1
 90
        0
176
     1
290
     0
176
     1
 90
        1
176
     1
 40
0.0
176
     1
 90
        0
176
     1
290
     0
176
     1
290
     1
176
     1
290
     1
176
     1
290
     0
176
     1
290
     0
176
     1
290
     0
176
     1
290
     0
176
     1
290
     0
176
     1
290
     0
176
     1
 90
       50
176
     1
 40
0.0
176
     1
 40
1.0
176
     1
 90
        0
176
     1
 62
    18
420
        0
176
     1
 90
       50
176
     1
 90
        3
176
     1
 62
     5
420
      255
176
     1
290
     0
176
     1
 90
       50
176
     1
 90
       50
176
     1
 90
       50
176
     1
290
     0
176
     1
 90
       50
176
     1
 62
   256
176
     0
 40
1.0
176
     0
 90
        2
176
     1
  1
strokes_ogs.tif
176
     1
290
     0
176
     1
 40
1.0
176
     1
 40
1.0
176
     1
  0
VISUALSTYLE
  5
35
102
{ACAD_REACTORS
330
2A
102
}
330
2A
100
AcDbVisualStyle
  2
Dim
 70
    11
177
     3
291
     1
 70
    58
 90
        2
176
     1
 90
        2
176
     1
 90
        0
176
     1
 90
        0
176
     1
 40
0.6
176
     1
 40
30.0
176
     1
 62
     7
420
 16777215
176
     1
 90
        1
176
     1
 90
        4
176
     1
 62
     7
176
     1
 62
   257
176
     1
 90
        1
176
     1
 90
        1
176
     1
 40
1.0
176
     1
 90
        8
176
     1
 62
     7
176
     1
 40
1.0
176
     1
 90
        1
176
     1
 90
        6
176
     1
 90
        2
176
     1
 62
     7
176
     1
 90
        5
176
     1
 90
        0
176
     1
 90
        0
176
     1
290
     0
176
     1
 90
        1
176
     1
 40
-50.0
176
     1
 90
        0
176
     1
290
     0
176
     1
290
     1
176
     1
290
     1
176
     1
290
     0
176
     1
290
     0
176
     1
290
     0
176
     1
290
     0
176
     1
290
     0
176
     1
290
     0
176
     1
 90
       50
176
     1
 40
0.0
176
     1
 40
1.0
176
     1
 90
        0
176
     1
 62
    18
420
        0
176
     1
 90
       50
176
     1
 90
        3
176
     1
 62
     5
420
      255
176
     1
290
     0
176
     1
 90
       50
176
     1
 90
       50
176
     1
 90
       50
176
     1
290
     0
176
     1
 90
       50
176
     1
 62
   256
176
     0
 40
1.0
176
     0
 90
        2
176
     1
  1
strokes_ogs.tif
176
     1
290
     0
176
     1
 40
1.0
176
     1
 40
1.0
176
     1
  0
VISUALSTYLE
  5
3D
102
{ACAD_REACTORS
330
2A
102
}
330
2A
100
AcDbVisualStyle
  2
EdgeColorOff
 70
    22
177
     3
291
     1
 70
    58
 90
        2
176
     0
 90
        2
176
     0
 90
        0
176
     0
 90
        0
176
     0
 40
0.6
176
     0
 40
30.0
176
     0
 62
     7
420
 16777215
176
     0
 90
        1
176
     0
 90
        4
176
     0
 62
     7
176
     0
 62
   257
176
     0
 90
        1
176
     0
 90
        1
176
     0
 40
1.0
176
     0
 90
        8
176
     2
 62
     7
176
     0
 40
1.0
176
     0
 90
        1
176
     0
 90
        6
176
     0
 90
        2
176
     0
 62
     7
176
     0
 90
        5
176
     0
 90
        0
176
     0
 90
        0
176
     0
290
     0
176
     0
 90
        1
176
     0
 40
0.0
176
     0
 90
        0
176
     0
290
     0
176
     0
290
     1
176
     0
290
     1
176
     0
290
     0
176
     0
290
     0
176
     0
290
     0
176
     0
290
     0
176
     0
290
     0
176
     0
290
     0
176
     0
 90
       50
176
     0
 40
0.0
176
     0
 40
1.0
176
     0
 90
        0
176
     0
 62
    18
420
        0
176
     0
 90
       50
176
     0
 90
        3
176
     0
 62
     5
420
      255
176
     0
290
     0
176
     0
 90
       50
176
     0
 90
       50
176
     0
 90
       50
176
     0
290
     0
176
     0
 90
       50
176
     0
 62
   256
176
     0
 40
1.0
176
     0
 90
        2
176
     0
  1
strokes_ogs.tif
176
     0
290
     0
176
     0
 40
1.0
176
     0
 40
1.0
176
     0
  0
VISUALSTYLE
  5
39
102
{ACAD_REACTORS
330
2A
102
}
330
2A
100
AcDbVisualStyle
  2
Facepattern
 70
    15
177
     3
291
     1
 70
    58
 90
        2
176
     1
 90
        2
176
     1
 90
        0
176
     1
 90
        0
176
     1
 40
0.6
176
     1
 40
30.0
176
     1
 62
     7
420
 16777215
176
     1
 90
        1
176
     1
 90
        4
176
     1
 62
     7
176
     1
 62
   257
176
     1
 90
        1
176
     1
 90
        1
176
     1
 40
1.0
176
     1
 90
        8
176
     1
 62
     7
176
     1
 40
1.0
176
     1
 90
        1
176
     1
 90
        6
176
     1
 90
        2
176
     1
 62
     7
176
     1
 90
        5
176
     1
 90
        0
176
     1
 90
        0
176
     1
290
     0
176
     1
 90
        1
176
     1
 40
0.0
176
     1
 90
        0
176
     1
290
     0
176
     1
290
     1
176
     1
290
     1
176
     1
290
     0
176
     1
290
     0
176
     1
290
     0
176
     1
290
     0
176
     1
290
     0
176
     1
290
     0
176
     1
 90
       50
176
     1
 40
0.0
176
     1
 40
1.0
176
     1
 90
        0
176
     1
 62
    18
420
        0
176
     1
 90
       50
176
     1
 90
        3
176
     1
 62
     5
420
      255
176
     1
290
     0
176
     1
 90
       50
176
     1
 90
       50
176
     1
 90
       50
176
     1
290
     0
176
     1
 90
       50
176
     1
 62
   256
176
     0
 40
1.0
176
     0
 90
        2
176
     1
  1
strokes_ogs.tif
176
     1
290
     0
176
     1
 40
1.0
176
     1
 40
1.0
176
     1
  0
VISUALSTYLE
  5
2B
102
{ACAD_REACTORS
330
2A
102
}
330
2A
100
AcDbVisualStyle
  2
Flat
 70
     0
177
     3
291
     1
 70
    58
 90
        2
176
     1
 90
        1
176
     1
 90
        1
176
     1
 90
        2
176
     1
 40
0.6
176
     1
 40
30.0
176
     1
 62
     7
420
 16777215
176
     1
 90
        0
176
     1
 90
        0
176
     1
 62
     7
176
     1
 62
   257
176
     1
 90
        1
176
     1
 90
        1
176
     1
 40
1.0
176
     1
 90
        8
176
     1
 62
     7
176
     1
 40
1.0
176
     1
 90
        1
176
     1
 90
        6
176
     1
 90
        2
176
     1
 62
     7
176
     1
 90
        5
176
     1
 90
        0
176
     1
 90
        0
176
     1
290
     0
176
     1
 90
       13
176
     1
 40
0.0
176
     1
 90
        0
176
     1
290
     0
176
     1
290
     1
176
     1
290
     1
176
     1
290
     0
176
     1
290
     0
176
     1
290
     0
176
     1
290
     0
176
     1
290
     0
176
     1
290
     0
176
     1
 90
       50
176
     1
 40
0.0
176
     1
 40
1.0
176
     1
 90
        0
176
     1
 62
    18
420
        0
176
     1
 90
       50
176
     1
 90
        3
176
     1
 62
     5
420
      255
176
     1
290
     0
176
     1
 90
       50
176
     1
 90
       50
176
     1
 90
       50
176
     1
290
     0
176
     1
 90
       50
176
     1
 62
   256
176
     0
 40
1.0
176
     0
 90
        2
176
     1
  1
strokes_ogs.tif
176
     1
290
     0
176
     1
 40
1.0
176
     1
 40
1.0
176
     1
  0
VISUALSTYLE
  5
2C
102
{ACAD_REACTORS
330
2A
102
}
330
2A
100
AcDbVisualStyle
  2
FlatWithEdges
 70
     1
177
     3
291
     1
 70
    58
 90
        2
176
     1
 90
        1
176
     1
 90
        1
176
     1
 90
        2
176
     1
 40
0.6
176
     1
 40
30.0
176
     1
 62
     7
420
 16777215
176
     1
 90
        1
176
     1
 90
        0
176
     1
 62
     7
176
     1
 62
   257
176
     1
 90
        1
176
     1
 90
        1
176
     1
 40
1.0
176
     1
 90
        0
176
     1
 62
   257
176
     1
 40
1.0
176
     1
 90
        1
176
     1
 90
        6
176
     1
 90
        2
176
     1
 62
     7
176
     1
 90
        5
176
     1
 90
        0
176
     1
 90
        0
176
     1
290
     0
176
     1
 90
       13
176
     1
 40
0.0
176
     1
 90
        0
176
     1
290
     0
176
     1
290
     1
176
     1
290
     1
176
     1
290
     0
176
     1
290
     0
176
     1
290
     0
176
     1
290
     0
176
     1
290
     0
176
     1
290
     0
176
     1
 90
       50
176
     1
 40
0.0
176
     1
 40
1.0
176
     1
 90
        0
176
     1
 62
    18
420
        0
176
     1
 90
       50
176
     1
 90
        3
176
     1
 62
     5
420
      255
176
     1
290
     0
176
     1
 90
       50
176
     1
 90
       50
176
     1
 90
       50
176
     1
290
     0
176
     1
 90
       50
176
     1
 62
   256
176
     0
 40
1.0
176
     0
 90
        2
176
     1
  1
strokes_ogs.tif
176
     1
290
     0
176
     1
 40
1.0
176
     1
 40
1.0
176
     1
  0
VISUALSTYLE
  5
2D
102
{ACAD_REACTORS
330
2A
102
}
330
2A
100
AcDbVisualStyle
  2
Gouraud
 70
     2
177
     3
291
     1
 70
    58
 90
        2
176
     1
 90
        2
176
     1
 90
        1
176
     1
 90
        2
176
     1
 40
0.6
176
     1
 40
30.0
176
     1
 62
     7
420
 16777215
176
     1
 90
        0
176
     1
 90
        0
176
     1
 62
     7
176
     1
 62
   257
176
     1
 90
        1
176
     1
 90
        1
176
     1
 40
1.0
176
     1
 90
        0
176
     1
 62
     7
176
     1
 40
1.0
176
     1
 90
        1
176
     1
 90
        6
176
     1
 90
        2
176
     1
 62
     7
176
     1
 90
        5
176
     1
 90
        0
176
     1
 90
        0
176
     1
290
     0
176
     1
 90
       13
176
     1
 40
0.0
176
     1
 90
        0
176
     1
290
     0
176
     1
290
     1
176
     1
290
     1
176
     1
290
     0
176
     1
290
     0
176
     1
290
     0
176
     1
290
     0
176
     1
290
     0
176
     1
290
     0
176
     1
 90
       50
176
     1
 40
0.0
176
     1
 40
1.0
176
     1
 90
        0
176
     1
 62
    18
420
        0
176
     1
 90
       50
176
     1
 90
        3
176
     1
 62
     5
420
      255
176
     1
290
     0
176
     1
 90
       50
176
     1
 90
       50
176
     1
 90
       50
176
     1
290
     0
176
     1
 90
       50
176
     1
 62
   256
176
     0
 40
1.0
176
     0
 90
        2
176
     1
  1
strokes_ogs.tif
176
     1
290
     0
176
     1
 40
1.0
176
     1
 40
1.0
176
     1
  0
VISUALSTYLE
  5
2E
102
{ACAD_REACTORS
330
2A
102
}
330
2A
100
AcDbVisualStyle
  2
GouraudWithEdges
 70
     3
177
     3
291
     1
 70
    58
 90
        2
176
     1
 90
        2
176
     1
 90
        1
176
     1
 90
        2
176
     1
 40
0.6
176
     1
 40
30.0
176
     1
 62
     7
420
 16777215
176
     1
 90
        1
176
     1
 90
        0
176
     1
 62
     7
176
     1
 62
   257
176
     1
 90
        1
176
     1
 90
        1
176
     1
 40
1.0
176
     1
 90
        0
176
     1
 62
   257
176
     1
 40
1.0
176
     1
 90
        1
176
     1
 90
        6
176
     1
 90
        2
176
     1
 62
     7
176
     1
 90
        5
176
     1
 90
        0
176
     1
 90
        0
176
     1
290
     0
176
     1
 90
       13
176
     1
 40
0.0
176
     1
 90
        0
176
     1
290
     0
176
     1
290
     1
176
     1
290
     1
176
     1
290
     0
176
     1
290
     0
176
     1
290
     0
176
     1
290
     0
176
     1
290
     0
176
     1
290
     0
176
     1
 90
       50
176
     1
 40
0.0
176
     1
 40
1.0
176
     1
 90
        0
176
     1
 62
    18
420
        0
176
     1
 90
       50
176
     1
 90
        3
176
     1
 62
     5
420
      255
176
     1
290
     0
176
     1
 90
       50
176
     1
 90
       50
176
     1
 90
       50
176
     1
290
     0
176
     1
 90
       50
176
     1
 62
   256
176
     0
 40
1.0
176
     0
 90
        2
176
     1
  1
strokes_ogs.tif
176
     1
290
     0
176
     1
 40
1.0
176
     1
 40
1.0
176
     1
  0
VISUALSTYLE
  5
31
102
{ACAD_REACTORS
330
2A
102
}
330
2A
100
AcDbVisualStyle
  2
Hidden
 70
     6
177
     3
291
     0
 70
    58
 90
        1
176
     1
 90
        2
176
     1
 90
        2
176
     1
 90
        0
176
     1
 40
0.6
176
     1
 40
30.0
176
     1
 62
     7
420
 16777215
176
     1
 90
        2
176
     1
 90
        2
176
     1
 62
     7
176
     1
 62
   257
176
     1
 90
        2
176
     1
 90
        1
176
     1
 40
40.0
176
     1
 90
        0
176
     1
 62
   257
176
     1
 40
1.0
176
     1
 90
        1
176
     1
 90
        6
176
     1
 90
        2
176
     1
 62
     7
176
     1
 90
        3
176
     1
 90
        0
176
     1
 90
        0
176
     1
290
     0
176
     1
 90
        1
176
     1
 40
0.0
176
     1
 90
        0
176
     1
290
     0
176
     1
290
     1
176
     1
290
     1
176
     1
290
     0
176
     1
290
     0
176
     1
290
     0
176
     1
290
     0
176
     1
290
     0
176
     1
290
     0
176
     1
 90
       50
176
     1
 40
0.0
176
     1
 40
1.0
176
     1
 90
        0
176
     1
 62
    18
420
        0
176
     1
 90
       50
176
     1
 90
        3
176
     1
 62
     5
420
      255
176
     1
290
     0
176
     1
 90
       50
176
     1
 90
       50
176
     1
 90
       50
176
     1
290
     0
176
     1
 90
       50
176
     1
 62
   256
176
     0
 40
1.0
176
     0
 90
        2
176
     1
  1
strokes_ogs.tif
176
     1
290
     0
176
     1
 40
1.0
176
     1
 40
1.0
176
     1
  0
VISUALSTYLE
  5
3B
102
{ACAD_REACTORS
330
2A
102
}
330
2A
100
AcDbVisualStyle
  2
JitterOff
 70
    20
177
     3
291
     1
 70
    58
 90
        2
176
     0
 90
        2
176
     0
 90
        0
176
     0
 90
        0
176
     0
 40
0.6
176
     0
 40
30.0
176
     0
 62
     7
420
 16777215
176
     0
 90
        1
176
     0
 90
        4
176
     0
 62
     7
176
     0
 62
   257
176
     0
 90
        1
176
     0
 90
        1
176
     0
 40
1.0
176
     0
 90
       10
176
     2
 62
     7
176
     0
 40
1.0
176
     0
 90
        1
176
     0
 90
        6
176
     0
 90
        2
176
     0
 62
     7
176
     0
 90
        5
176
     0
 90
        0
176
     0
 90
        0
176
     0
290
     0
176
     0
 90
        1
176
     0
 40
0.0
176
     0
 90
        0
176
     0
290
     0
176
     0
290
     1
176
     0
290
     1
176
     0
290
     0
176
     0
290
     0
176
     0
290
     0
176
     0
290
     0
176
     0
290
     0
176
     0
290
     0
176
     0
 90
       50
176
     0
 40
0.0
176
     0
 40
1.0
176
     0
 90
        0
176
     0
 62
    18
420
        0
176
     0
 90
       50
176
     0
 90
        3
176
     0
 62
     5
420
      255
176
     0
290
     0
176
     0
 90
       50
176
     0
 90
       50
176
     0
 90
       50
176
     0
290
     0
176
     0
 90
       50
176
     0
 62
   256
176
     0
 40
1.0
176
     0
 90
        2
176
     0
  1
strokes_ogs.tif
176
     0
290
     0
176
     0
 40
1.0
176
     0
 40
1.0
176
     0
  0
VISUALSTYLE
  5
38
102
{ACAD_REACTORS
330
2A
102
}
330
2A
100
AcDbVisualStyle
  2
Linepattern
 70
    14
177
     3
291
     1
 70
    58
 90
        2
176
     1
 90
        2
176
     1
 90
        0
176
     1
 90
        0
176
     1
 40
0.6
176
     1
 40
30.0
176
     1
 62
     7
420
 16777215
176
     1
 90
        1
176
     1
 90
        4
176
     1
 62
     7
176
     1
 62
   257
176
     1
 90
        7
176
     1
 90
        7
176
     1
 40
1.0
176
     1
 90
        8
176
     1
 62
     7
176
     1
 40
1.0
176
     1
 90
        1
176
     1
 90
        6
176
     1
 90
        2
176
     1
 62
     7
176
     1
 90
        5
176
     1
 90
        0
176
     1
 90
        0
176
     1
290
     0
176
     1
 90
        1
176
     1
 40
0.0
176
     1
 90
        0
176
     1
290
     0
176
     1
290
     1
176
     1
290
     1
176
     1
290
     0
176
     1
290
     0
176
     1
290
     0
176
     1
290
     0
176
     1
290
     0
176
     1
290
     0
176
     1
 90
       50
176
     1
 40
0.0
176
     1
 40
1.0
176
     1
 90
        0
176
     1
 62
    18
420
        0
176
     1
 90
       50
176
     1
 90
        3
176
     1
 62
     5
420
      255
176
     1
290
     0
176
     1
 90
       50
176
     1
 90
       50
176
     1
 90
       50
176
     1
290
     0
176
     1
 90
       50
176
     1
 62
   256
176
     0
 40
1.0
176
     0
 90
        2
176
     1
  1
strokes_ogs.tif
176
     1
290
     0
176
     1
 40
1.0
176
     1
 40
1.0
176
     1
  0
VISUALSTYLE
  5
3C
102
{ACAD_REACTORS
330
2A
102
}
330
2A
100
AcDbVisualStyle
  2
OverhangOff
 70
    21
177
     3
291
     1
 70
    58
 90
        2
176
     0
 90
        2
176
     0
 90
        0
176
     0
 90
        0
176
     0
 40
0.6
176
     0
 40
30.0
176
     0
 62
     7
420
 16777215
176
     0
 90
        1
176
     0
 90
        4
176
     0
 62
     7
176
     0
 62
   257
176
     0
 90
        1
176
     0
 90
        1
176
     0
 40
1.0
176
     0
 90
        9
176
     2
 62
     7
176
     0
 40
1.0
176
     0
 90
        1
176
     0
 90
        6
176
     0
 90
        2
176
     0
 62
     7
176
     0
 90
        5
176
     0
 90
        0
176
     0
 90
        0
176
     0
290
     0
176
     0
 90
        1
176
     0
 40
0.0
176
     0
 90
        0
176
     0
290
     0
176
     0
290
     1
176
     0
290
     1
176
     0
290
     0
176
     0
290
     0
176
     0
290
     0
176
     0
290
     0
176
     0
290
     0
176
     0
290
     0
176
     0
 90
       50
176
     0
 40
0.0
176
     0
 40
1.0
176
     0
 90
        0
176
     0
 62
    18
420
        0
176
     0
 90
       50
176
     0
 90
        3
176
     0
 62
     5
420
      255
176
     0
290
     0
176
     0
 90
       50
176
     0
 90
       50
176
     0
 90
       50
176
     0
290
     0
176
     0
 90
       50
176
     0
 62
   256
176
     0
 40
1.0
176
     0
 90
        2
176
     0
  1
strokes_ogs.tif
176
     0
290
     0
176
     0
 40
1.0
176
     0
 40
1.0
176
     0
  0
VISUALSTYLE
  5
33
102
{ACAD_REACTORS
330
2A
102
}
330
2A
100
AcDbVisualStyle
  2
Realistic
 70
     8
177
     3
291
     0
 70
    58
 90
        2
176
     1
 90
        3
176
     1
 90
        0
176
     1
 90
        2
176
     1
 40
0.6
176
     1
 40
30.0
176
     1
 62
     7
420
 16777215
176
     1
 90
        0
176
     1
 90
        0
176
     1
 62
     7
176
     1
 62
   257
176
     1
 90
        1
176
     1
 90
        1
176
     1
 40
1.0
176
     1
 90
        8
176
     1
 62
   257
176
     1
 40
1.0
176
     1
 90
        1
176
     1
 90
        6
176
     1
 90
        2
176
     1
 62
     7
176
     1
 90
        3
176
     1
 90
        0
176
     1
 90
        0
176
     1
290
     0
176
     1
 90
       13
176
     1
 40
0.0
176
     1
 90
        0
176
     1
290
     0
176
     1
290
     1
176
     1
290
     1
176
     1
290
     0
176
     1
290
     0
176
     1
290
     0
176
     1
290
     0
176
     1
290
     0
176
     1
290
     0
176
     1
 90
       50
176
     1
 40
0.0
176
     1
 40
1.0
176
     1
 90
        0
176
     1
 62
    18
420
        0
176
     1
 90
       50
176
     1
 90
        3
176
     1
 62
     5
420
      255
176
     1
290
     0
176
     1
 90
       50
176
     1
 90
       50
176
     1
 90
       50
176
     1
290
     0
176
     1
 90
       50
176
     1
 62
   256
176
     0
 40
1.0
176
     0
 90
        2
176
     1
  1
strokes_ogs.tif
176
     1
290
     0
176
     1
 40
1.0
176
     1
 40
1.0
176
     1
  0
VISUALSTYLE
  5
42
102
{ACAD_REACTORS
330
2A
102
}
330
2A
100
AcDbVisualStyle
  2
Shaded
 70
    27
177
     3
291
     0
 70
    58
 90
        2
176
     1
 90
        2
176
     1
 90
        1
176
     1
 90
        2
176
     1
 40
0.6
176
     1
 40
30.0
176
     1
 62
     7
420
 16777215
176
     1
 90
        0
176
     1
 90
        4
176
     1
 62
     7
176
     1
 62
   257
176
     1
 90
        1
176
     1
 90
        1
176
     1
 40
1.0
176
     1
 90
        8
176
     1
 62
   257
176
     1
 40
1.0
176
     1
 90
        1
176
     1
 90
        6
176
     1
 90
        2
176
     1
 62
     8
420
  7895160
176
     1
 90
        3
176
     1
 90
        0
176
     1
 90
        0
176
     1
290
     0
176
     1
 90
        5
176
     1
 40
0.0
176
     1
 90
        0
176
     1
290
     0
176
     1
290
     1
176
     1
290
     1
176
     1
290
     0
176
     1
290
     0
176
     1
290
     0
176
     1
290
     0
176
     1
290
     0
176
     1
290
     0
176
     1
 90
       50
176
     1
 40
0.0
176
     1
 40
1.0
176
     1
 90
        0
176
     1
 62
    18
420
        0
176
     1
 90
       50
176
     1
 90
        3
176
     1
 62
     5
420
      255
176
     1
290
     0
176
     1
 90
       50
176
     1
 90
       50
176
     1
 90
       50
176
     1
290
     0
176
     1
 90
       50
176
     1
 62
   256
176
     0
 40
1.0
176
     0
 90
        2
176
     1
  1
strokes_ogs.tif
176
     1
290
     0
176
     1
 40
1.0
176
     1
 40
1.0
176
     1
  0
VISUALSTYLE
  5
41
102
{ACAD_REACTORS
330
2A
102
}
330
2A
100
AcDbVisualStyle
  2
Shaded with edges
 70
    26
177
     3
291
     0
 70
    58
 90
        2
176
     1
 90
        2
176
     1
 90
        1
176
     1
 90
        2
176
     1
 40
0.6
176
     1
 40
30.0
176
     1
 62
     7
420
 16777215
176
     1
 90
        1
176
     1
 90
       10
176
     1
 62
     7
176
     1
 62
   257
176
     1
 90
        2
176
     1
 90
        1
176
     1
 40
1.0
176
     1
 90
        8
176
     1
 62
   257
176
     1
 40
1.0
176
     1
 90
        1
176
     1
 90
        6
176
     1
 90
        2
176
     1
 62
     7
176
     1
 90
        3
176
     1
 90
        0
176
     1
 90
        0
176
     1
290
     0
176
     1
 90
        5
176
     1
 40
0.0
176
     1
 90
        0
176
     1
290
     0
176
     1
290
     1
176
     1
290
     1
176
     1
290
     0
176
     1
290
     0
176
     1
290
     0
176
     1
290
     0
176
     1
290
     0
176
     1
290
     0
176
     1
 90
       50
176
     1
 40
0.0
176
     1
 40
1.0
176
     1
 90
        0
176
     1
 62
    18
420
        0
176
     1
 90
       50
176
     1
 90
        3
176
     1
 62
     5
420
      255
176
     1
290
     0
176
     1
 90
       50
176
     1
 90
       50
176
     1
 90
       50
176
     1
290
     0
176
     1
 90
       50
176
     1
 62
   256
176
     0
 40
1.0
176
     0
 90
        2
176
     1
  1
strokes_ogs.tif
176
     1
290
     0
176
     1
 40
1.0
176
     1
 40
1.0
176
     1
  0
VISUALSTYLE
  5
3E
102
{ACAD_REACTORS
330
2A
102
}
330
2A
100
AcDbVisualStyle
  2
Shades of Gray
 70
    23
177
     3
291
     0
 70
    58
 90
        2
176
     1
 90
        2
176
     1
 90
        3
176
     1
 90
        0
176
     1
 40
0.6
176
     1
 40
30.0
176
     1
 62
     7
420
 16777215
176
     1
 90
        2
176
     1
 90
        2
176
     1
 62
     7
176
     1
 62
     7
176
     1
 90
        1
176
     1
 90
        1
176
     1
 40
40.0
176
     1
 90
        8
176
     1
 62
     7
176
     1
 40
1.0
176
     1
 90
        1
176
     1
 90
        6
176
     1
 90
        2
176
     1
 62
     7
176
     1
 90
        3
176
     1
 90
        0
176
     1
 90
        0
176
     1
290
     0
176
     1
 90
        1
176
     1
 40
0.0
176
     1
 90
        0
176
     1
290
     0
176
     1
290
     1
176
     1
290
     1
176
     1
290
     0
176
     1
290
     0
176
     1
290
     0
176
     1
290
     0
176
     1
290
     0
176
     1
290
     0
176
     1
 90
       50
176
     1
 40
0.0
176
     1
 40
1.0
176
     1
 90
        0
176
     1
 62
    18
420
        0
176
     1
 90
       50
176
     1
 90
        3
176
     1
 62
     5
420
      255
176
     1
290
     0
176
     1
 90
       50
176
     1
 90
       50
176
     1
 90
       50
176
     1
290
     0
176
     1
 90
       50
176
     1
 62
   256
176
     0
 40
1.0
176
     0
 90
        2
176
     1
  1
strokes_ogs.tif
176
     1
290
     0
176
     1
 40
1.0
176
     1
 40
1.0
176
     1
  0
VISUALSTYLE
  5
3F
102
{ACAD_REACTORS
330
2A
102
}
330
2A
100
AcDbVisualStyle
  2
Sketchy
 70
    24
177
     3
291
     0
 70
    58
 90
        1
176
     1
 90
        2
176
     1
 90
        2
176
     1
 90
        0
176
     1
 40
0.6
176
     1
 40
30.0
176
     1
 62
     7
420
 16777215
176
     1
 90
        2
176
     1
 90
        2
176
     1
 62
     7
176
     1
 62
     7
176
     1
 90
        1
176
     1
 90
        1
176
     1
 40
40.0
176
     1
 90
       11
176
     1
 62
     7
176
     1
 40
1.0
176
     1
 90
        1
176
     1
 90
        6
176
     1
 90
        2
176
     1
 62
     7
176
     1
 90
        6
176
     1
 90
        0
176
     1
 90
        0
176
     1
290
     0
176
     1
 90
        1
176
     1
 40
0.0
176
     1
 90
        0
176
     1
290
     0
176
     1
290
     1
176
     1
290
     1
176
     1
290
     0
176
     1
290
     0
176
     1
290
     0
176
     1
290
     0
176
     1
290
     0
176
     1
290
     0
176
     1
 90
       50
176
     1
 40
0.0
176
     1
 40
1.0
176
     1
 90
        0
176
     1
 62
    18
420
        0
176
     1
 90
       50
176
     1
 90
        3
176
     1
 62
     5
420
      255
176
     1
290
     0
176
     1
 90
       50
176
     1
 90
       50
176
     1
 90
       50
176
     1
290
     0
176
     1
 90
       50
176
     1
 62
   256
176
     0
 40
1.0
176
     0
 90
        2
176
     1
  1
strokes_ogs.tif
176
     1
290
     0
176
     1
 40
1.0
176
     1
 40
1.0
176
     1
  0
VISUALSTYLE
  5
37
102
{ACAD_REACTORS
330
2A
102
}
330
2A
100
AcDbVisualStyle
  2
Thicken
 70
    13
177
     3
291
     1
 70
    58
 90
        2
176
     1
 90
        2
176
     1
 90
        0
176
     1
 90
        0
176
     1
 40
0.6
176
     1
 40
30.0
176
     1
 62
     7
420
 16777215
176
     1
 90
        1
176
     1
 90
        4
176
     1
 62
     7
176
     1
 62
   257
176
     1
 90
        1
176
     1
 90
        1
176
     1
 40
1.0
176
     1
 90
       12
176
     1
 62
     7
176
     1
 40
1.0
176
     1
 90
        1
176
     1
 90
        6
176
     1
 90
        2
176
     1
 62
     7
176
     1
 90
        5
176
     1
 90
        0
176
     1
 90
        0
176
     1
290
     0
176
     1
 90
        1
176
     1
 40
0.0
176
     1
 90
        0
176
     1
290
     0
176
     1
290
     1
176
     1
290
     1
176
     1
290
     0
176
     1
290
     0
176
     1
290
     0
176
     1
290
     0
176
     1
290
     0
176
     1
290
     0
176
     1
 90
       50
176
     1
 40
0.0
176
     1
 40
1.0
176
     1
 90
        0
176
     1
 62
    18
420
        0
176
     1
 90
       50
176
     1
 90
        3
176
     1
 62
     5
420
      255
176
     1
290
     0
176
     1
 90
       50
176
     1
 90
       50
176
     1
 90
       50
176
     1
290
     0
176
     1
 90
       50
176
     1
 62
   256
176
     0
 40
1.0
176
     0
 90
        2
176
     1
  1
strokes_ogs.tif
176
     1
290
     0
176
     1
 40
1.0
176
     1
 40
1.0
176
     1
  0
VISUALSTYLE
  5
30
102
{ACAD_REACTORS
330
2A
102
}
330
2A
100
AcDbVisualStyle
  2
Wireframe
 70
     5
177
     3
291
     0
 70
    58
 90
        0
176
     1
 90
        2
176
     1
 90
        0
176
     1
 90
        0
176
     1
 40
0.6
176
     1
 40
30.0
176
     1
 62
     7
420
 16777215
176
     1
 90
        1
176
     1
 90
        4
176
     1
 62
     7
176
     1
 62
   257
176
     1
 90
        1
176
     1
 90
        1
176
     1
 40
1.0
176
     1
 90
        0
176
     1
 62
   257
176
     1
 40
1.0
176
     1
 90
        1
176
     1
 90
        6
176
     1
 90
        2
176
     1
 62
     7
176
     1
 90
        3
176
     1
 90
        0
176
     1
 90
        0
176
     1
290
     0
176
     1
 90
        1
176
     1
 40
0.0
176
     1
 90
        0
176
     1
290
     0
176
     1
290
     1
176
     1
290
     1
176
     1
290
     0
176
     1
290
     0
176
     1
290
     0
176
     1
290
     0
176
     1
290
     0
176
     1
290
     0
176
     1
 90
       50
176
     1
 40
0.0
176
     1
 40
1.0
176
     1
 90
        0
176
     1
 62
    18
420
        0
176
     1
 90
       50
176
     1
 90
        3
176
     1
 62
     5
420
      255
176
     1
290
     0
176
     1
 90
       50
176
     1
 90
       50
176
     1
 90
       50
176
     1
290
     0
176
     1
 90
       50
176
     1
 62
   256
176
     0
 40
1.0
176
     0
 90
        2
176
     1
  1
strokes_ogs.tif
176
     1
290
     0
176
     1
 40
1.0
176
     1
 40
1.0
176
     1
  0
VISUALSTYLE
  5
40
102
{ACAD_REACTORS
330
2A
102
}
330
2A
100
AcDbVisualStyle
  2
X-Ray
 70
    25
177
     3
291
     0
 70
    58
 90
        2
176
     1
 90
        2
176
     1
 90
        1
176
     1
 90
        1
176
     1
 40
0.5
176
     1
 40
30.0
176
     1
 62
     7
420
 16777215
176
     1
 90
        1
176
     1
 90
        0
176
     1
 62
     7
176
     1
 62
   257
176
     1
 90
        1
176
     1
 90
        1
176
     1
 40
1.0
176
     1
 90
        8
176
     1
 62
     7
176
     1
 40
1.0
176
     1
 90
        1
176
     1
 90
        6
176
     1
 90
        2
176
     1
 62
     7
176
     1
 90
        3
176
     1
 90
        0
176
     1
 90
        0
176
     1
290
     0
176
     1
 90
       13
176
     1
 40
0.0
176
     1
 90
        0
176
     1
290
     0
176
     1
290
     1
176
     1
290
     1
176
     1
290
     0
176
     1
290
     0
176
     1
290
     0
176
     1
290
     0
176
     1
290
     0
176
     1
290
     0
176
     1
 90
       50
176
     1
 40
0.0
176
     1
 40
1.0
176
     1
 90
        0
176
     1
 62
    18
420
        0
176
     1
 90
       50
176
     1
 90
        3
176
     1
 62
     5
420
      255
176
     1
290
     0
176
     1
 90
       50
176
     1
 90
       50
176
     1
 90
       50
176
     1
290
     0
176
     1
 90
       50
176
     1
 62
   256
176
     0
 40
1.0
176
     0
 90
        2
176
     1
  1
strokes_ogs.tif
176
     1
290
     0
176
     1
 40
1.0
176
     1
 40
1.0
176
     1
  0
DICTIONARYVAR
  5
97
102
{ACAD_REACTORS
330
96
102
}
330
96
100
DictionaryVariables
280
     0
  1
1:1
  0
DICTIONARYVAR
  5
9C
102
{ACAD_REACTORS
330
96
102
}
330
96
100
DictionaryVariables
280
     0
  1
Standard
  0
DICTIONARYVAR
  5
9B
102
{ACAD_REACTORS
330
96
102
}
330
96
100
DictionaryVariables
280
     0
  1
Standard
  0
DICTIONARY
  5
98
330
5A
100
AcDbDictionary
280
     1
281
     1
  3
ACAD_ROUNDTRIP_2008_TABLESTYLE_CELLSTYLEMAP
360
99
  0
CELLSTYLEMAP
  5
99
102
{ACAD_REACTORS
330
98
102
}
330
98
100
AcDbCellStyleMap
 90
        3
300
CELLSTYLE
  1
TABLEFORMAT_BEGIN
 90
        5
170
     1
 91
        0
 92
    32768
 62
   257
 93
        1
300
CONTENTFORMAT
  1
CONTENTFORMAT_BEGIN
 90
        0
 91
        0
 92
        4
 93
        0
300

 40
0.0
140
1.0
 94
        5
 62
     0
340
11
144
0.25
309
CONTENTFORMAT_END
171
     1
301
MARGIN
  1
CELLMARGIN_BEGIN
 40
0.06
 40
0.06
 40
0.06
 40
0.06
 40
0.06
 40
0.06
309
CELLMARGIN_END
 94
        6
 95
        1
302
GRIDFORMAT
  1
GRIDFORMAT_BEGIN
 90
        0
 91
        1
 62
     0
 92
       -2
340
14
 93
        0
 40
0.045
309
GRIDFORMAT_END
 95
        2
302
GRIDFORMAT
  1
GRIDFORMAT_BEGIN
 90
        0
 91
        1
 62
     0
 92
       -2
340
14
 93
        0
 40
0.045
309
GRIDFORMAT_END
 95
        4
302
GRIDFORMAT
  1
GRIDFORMAT_BEGIN
 90
        0
 91
        1
 62
     0
 92
       -2
340
14
 93
        0
 40
0.045
309
GRIDFORMAT_END
 95
        8
302
GRIDFORMAT
  1
GRIDFORMAT_BEGIN
 90
        0
 91
        1
 62
     0
 92
       -2
340
14
 93
        0
 40
0.045
309
GRIDFORMAT_END
 95
       16
302
GRIDFORMAT
  1
GRIDFORMAT_BEGIN
 90
        0
 91
        1
 62
     0
 92
       -2
340
14
 93
        0
 40
0.045
309
GRIDFORMAT_END
 95
       32
302
GRIDFORMAT
  1
GRIDFORMAT_BEGIN
 90
        0
 91
        1
 62
     0
 92
       -2
340
14
 93
        0
 40
0.045
309
GRIDFORMAT_END
309
TABLEFORMAT_END
  1
CELLSTYLE_BEGIN
 90
        1
 91
        1
300
_TITLE
309
CELLSTYLE_END
300
CELLSTYLE
  1
TABLEFORMAT_BEGIN
 90
        5
170
     1
 91
        0
 92
        0
 62
   257
 93
        1
300
CONTENTFORMAT
  1
CONTENTFORMAT_BEGIN
 90
        0
 91
        0
 92
        4
 93
        0
300

 40
0.0
140
1.0
 94
        5
 62
     0
340
11
144
0.18
309
CONTENTFORMAT_END
171
     1
301
MARGIN
  1
CELLMARGIN_BEGIN
 40
0.06
 40
0.06
 40
0.06
 40
0.06
 40
0.06
 40
0.06
309
CELLMARGIN_END
 94
        6
 95
        1
302
GRIDFORMAT
  1
GRIDFORMAT_BEGIN
 90
        0
 91
        1
 62
     0
 92
       -2
340
14
 93
        0
 40
0.045
309
GRIDFORMAT_END
 95
        2
302
GRIDFORMAT
  1
GRIDFORMAT_BEGIN
 90
        0
 91
        1
 62
     0
 92
       -2
340
14
 93
        0
 40
0.045
309
GRIDFORMAT_END
 95
        4
302
GRIDFORMAT
  1
GRIDFORMAT_BEGIN
 90
        0
 91
        1
 62
     0
 92
       -2
340
14
 93
        0
 40
0.045
309
GRIDFORMAT_END
 95
        8
302
GRIDFORMAT
  1
GRIDFORMAT_BEGIN
 90
        0
 91
        1
 62
     0
 92
       -2
340
14
 93
        0
 40
0.045
309
GRIDFORMAT_END
 95
       16
302
GRIDFORMAT
  1
GRIDFORMAT_BEGIN
 90
        0
 91
        1
 62
     0
 92
       -2
340
14
 93
        0
 40
0.045
309
GRIDFORMAT_END
 95
       32
302
GRIDFORMAT
  1
GRIDFORMAT_BEGIN
 90
        0
 91
        1
 62
     0
 92
       -2
340
14
 93
        0
 40
0.045
309
GRIDFORMAT_END
309
TABLEFORMAT_END
  1
CELLSTYLE_BEGIN
 90
        2
 91
        1
300
_HEADER
309
CELLSTYLE_END
300
CELLSTYLE
  1
TABLEFORMAT_BEGIN
 90
        5
170
     1
 91
        0
 92
        0
 62
   257
 93
        1
300
CONTENTFORMAT
  1
CONTENTFORMAT_BEGIN
 90
        0
 91
        0
 92
        4
 93
        0
300

 40
0.0
140
1.0
 94
        2
 62
     0
340
11
144
0.18
309
CONTENTFORMAT_END
171
     1
301
MARGIN
  1
CELLMARGIN_BEGIN
 40
0.06
 40
0.06
 40
0.06
 40
0.06
 40
0.06
 40
0.06
309
CELLMARGIN_END
 94
        6
 95
        1
302
GRIDFORMAT
  1
GRIDFORMAT_BEGIN
 90
        0
 91
        1
 62
     0
 92
       -2
340
14
 93
        0
 40
0.045
309
GRIDFORMAT_END
 95
        2
302
GRIDFORMAT
  1
GRIDFORMAT_BEGIN
 90
        0
 91
        1
 62
     0
 92
       -2
340
14
 93
        0
 40
0.045
309
GRIDFORMAT_END
 95
        4
302
GRIDFORMAT
  1
GRIDFORMAT_BEGIN
 90
        0
 91
        1
 62
     0
 92
       -2
340
14
 93
        0
 40
0.045
309
GRIDFORMAT_END
 95
        8
302
GRIDFORMAT
  1
GRIDFORMAT_BEGIN
 90
        0
 91
        1
 62
     0
 92
       -2
340
14
 93
        0
 40
0.045
309
GRIDFORMAT_END
 95
       16
302
GRIDFORMAT
  1
GRIDFORMAT_BEGIN
 90
        0
 91
        1
 62
     0
 92
       -2
340
14
 93
        0
 40
0.045
309
GRIDFORMAT_END
 95
       32
302
GRIDFORMAT
  1
GRIDFORMAT_BEGIN
 90
        0
 91
        1
 62
     0
 92
       -2
340
14
 93
        0
 40
0.045
309
GRIDFORMAT_END
309
TABLEFORMAT_END
  1
CELLSTYLE_BEGIN
 90
        3
 91
        2
300
_DATA
309
CELLSTYLE_END
  0
ENDSEC
  0
EOF
