  0
SECTION
  2
HEADER
  9
$ACADVER
  1
AC1032
  9
$ACADMAINTVER
 90
       55
  9
$DWGCODEPAGE
  3
ANSI_1252
  9
$LASTSAVEDBY
  1
Administrator
  9
$REQUIREDVERSIONS
160
                 0
  9
$INSBASE
 10
0.0
 20
0.0
 30
0.0
  9
$EXTMIN
 10
266.596
 20
63.7418
 30
0.0
  9
$EXTMAX
 10
301.596
 20
97.1373
 30
0.0
  9
$LIMMIN
 10
0.0
 20
0.0
  9
$LIMMAX
 10
12.0
 20
9.0
  9
$ORTHOMODE
 70
     0
  9
$REGENMODE
 70
     1
  9
$FILLMODE
 70
     1
  9
$QTEXTMODE
 70
     0
  9
$MIRRTEXT
 70
     1
  9
$LTSCALE
 40
1.0
  9
$ATTMODE
 70
     1
  9
$TEXTSIZE
 40
0.2
  9
$TRACEWID
 40
0.05
  9
$TEXTSTYLE
  7
Standard
  9
$CLAYER
  8
0
  9
$CELTYPE
  6
ByLayer
  9
$CECOLOR
 62
   256
  9
$CELTSCALE
 40
1.0
  9
$DISPSILH
 70
     0
  9
$DIMSCALE
 40
1.0
  9
$DIMASZ
 40
0.18
  9
$DIMEXO
 40
0.0625
  9
$DIMDLI
 40
0.38
  9
$DIMRND
 40
0.0
  9
$DIMDLE
 40
0.0
  9
$DIMEXE
 40
0.18
  9
$DIMTP
 40
0.0
  9
$DIMTM
 40
0.0
  9
$DIMTXT
 40
0.18
  9
$DIMCEN
 40
0.09
  9
$DIMTSZ
 40
0.0
  9
$DIMTOL
 70
     0
  9
$DIMLIM
 70
     0
  9
$DIMTIH
 70
     1
  9
$DIMTOH
 70
     1
  9
$DIMSE1
 70
     0
  9
$DIMSE2
 70
     0
  9
$DIMTAD
 70
     0
  9
$DIMZIN
 70
     0
  9
$DIMBLK
  1

  9
$DIMASO
 70
     1
  9
$DIMSHO
 70
     1
  9
$DIMPOST
  1

  9
$DIMAPOST
  1

  9
$DIMALT
 70
     0
  9
$DIMALTD
 70
     2
  9
$DIMALTF
 40
25.4
  9
$DIMLFAC
 40
1.0
  9
$DIMTOFL
 70
     0
  9
$DIMTVP
 40
0.0
  9
$DIMTIX
 70
     0
  9
$DIMSOXD
 70
     0
  9
$DIMSAH
 70
     0
  9
$DIMBLK1
  1

  9
$DIMBLK2
  1

  9
$DIMSTYLE
  2
Standard
  9
$DIMCLRD
 70
     0
  9
$DIMCLRE
 70
     0
  9
$DIMCLRT
 70
     0
  9
$DIMTFAC
 40
1.0
  9
$DIMGAP
 40
0.09
  9
$DIMJUST
 70
     0
  9
$DIMSD1
 70
     0
  9
$DIMSD2
 70
     0
  9
$DIMTOLJ
 70
     1
  9
$DIMTZIN
 70
     0
  9
$DIMALTZ
 70
     0
  9
$DIMALTTZ
 70
     0
  9
$DIMUPT
 70
     0
  9
$DIMDEC
 70
     4
  9
$DIMTDEC
 70
     4
  9
$DIMALTU
 70
     2
  9
$DIMALTTD
 70
     2
  9
$DIMTXSTY
  7
Standard
  9
$DIMAUNIT
 70
     0
  9
$DIMADEC
 70
     0
  9
$DIMALTRND
 40
0.0
  9
$DIMAZIN
 70
     0
  9
$DIMDSEP
 70
    46
  9
$DIMATFIT
 70
     3
  9
$DIMFRAC
 70
     0
  9
$DIMLDRBLK
  1

  9
$DIMLUNIT
 70
     2
  9
$DIMLWD
 70
    -2
  9
$DIMLWE
 70
    -2
  9
$DIMTMOVE
 70
     0
  9
$DIMFXL
 40
1.0
  9
$DIMFXLON
 70
     0
  9
$DIMJOGANG
 40
0.7853981633974483
  9
$DIMTFILL
 70
     0
  9
$DIMTFILLCLR
 70
     0
  9
$DIMARCSYM
 70
     0
  9
$DIMLTYPE
  6

  9
$DIMLTEX1
  6

  9
$DIMLTEX2
  6

  9
$DIMTXTDIRECTION
 70
     0
  9
$LUNITS
 70
     2
  9
$LUPREC
 70
     4
  9
$SKETCHINC
 40
0.1
  9
$FILLETRAD
 40
0.0
  9
$AUNITS
 70
     0
  9
$AUPREC
 70
     0
  9
$MENU
  1
.
  9
$ELEVATION
 40
0.0
  9
$PELEVATION
 40
0.0
  9
$THICKNESS
 40
0.0
  9
$LIMCHECK
 70
     0
  9
$CHAMFERA
 40
0.0
  9
$CHAMFERB
 40
0.0
  9
$CHAMFERC
 40
0.0
  9
$CHAMFERD
 40
0.0
  9
$SKPOLY
 70
     0
  9
$TDCREATE
 40
2460425.74518059
  9
$TDUCREATE
 40
2460425.599347257
  9
$TDUPDATE
 40
2460425.745180637
  9
$TDUUPDATE
 40
2460425.599347303
  9
$TDINDWG
 40
0.0000000116
  9
$TDUSRTIMER
 40
0.0000000116
  9
$USRTIMER
 70
     1
  9
$ANGBASE
 50
0.0
  9
$ANGDIR
 70
     0
  9
$PDMODE
 70
     0
  9
$PDSIZE
 40
0.0
  9
$PLINEWID
 40
0.0
  9
$SPLFRAME
 70
     0
  9
$SPLINETYPE
 70
     6
  9
$SPLINESEGS
 70
     8
  9
$HANDSEED
  5
A6
  9
$SURFTAB1
 70
     6
  9
$SURFTAB2
 70
     6
  9
$SURFTYPE
 70
     6
  9
$SURFU
 70
     6
  9
$SURFV
 70
     6
  9
$UCSBASE
  2

  9
$UCSNAME
  2

  9
$UCSORG
 10
0.0
 20
0.0
 30
0.0
  9
$UCSXDIR
 10
1.0
 20
0.0
 30
0.0
  9
$UCSYDIR
 10
0.0
 20
1.0
 30
0.0
  9
$UCSORTHOREF
  2

  9
$UCSORTHOVIEW
 70
     0
  9
$UCSORGTOP
 10
0.0
 20
0.0
 30
0.0
  9
$UCSORGBOTTOM
 10
0.0
 20
0.0
 30
0.0
  9
$UCSORGLEFT
 10
0.0
 20
0.0
 30
0.0
  9
$UCSORGRIGHT
 10
0.0
 20
0.0
 30
0.0
  9
$UCSORGFRONT
 10
0.0
 20
0.0
 30
0.0
  9
$UCSORGBACK
 10
0.0
 20
0.0
 30
0.0
  9
$PUCSBASE
  2

  9
$PUCSNAME
  2

  9
$PUCSORG
 10
0.0
 20
0.0
 30
0.0
  9
$PUCSXDIR
 10
1.0
 20
0.0
 30
0.0
  9
$PUCSYDIR
 10
0.0
 20
1.0
 30
0.0
  9
$PUCSORTHOREF
  2

  9
$PUCSORTHOVIEW
 70
     0
  9
$PUCSORGTOP
 10
0.0
 20
0.0
 30
0.0
  9
$PUCSORGBOTTOM
 10
0.0
 20
0.0
 30
0.0
  9
$PUCSORGLEFT
 10
0.0
 20
0.0
 30
0.0
  9
$PUCSORGRIGHT
 10
0.0
 20
0.0
 30
0.0
  9
$PUCSORGFRONT
 10
0.0
 20
0.0
 30
0.0
  9
$PUCSORGBACK
 10
0.0
 20
0.0
 30
0.0
  9
$USERI1
 70
     0
  9
$USERI2
 70
     0
  9
$USERI3
 70
     0
  9
$USERI4
 70
     0
  9
$USERI5
 70
     0
  9
$USERR1
 40
0.0
  9
$USERR2
 40
0.0
  9
$USERR3
 40
0.0
  9
$USERR4
 40
0.0
  9
$USERR5
 40
0.0
  9
$WORLDVIEW
 70
     1
  9
$SHADEDGE
 70
     3
  9
$SHADEDIF
 70
    70
  9
$TILEMODE
 70
     1
  9
$MAXACTVP
 70
    64
  9
$PINSBASE
 10
0.0
 20
0.0
 30
0.0
  9
$PLIMCHECK
 70
     0
  9
$PEXTMIN
 10
1.000000000000000E+20
 20
1.000000000000000E+20
 30
1.000000000000000E+20
  9
$PEXTMAX
 10
-1.000000000000000E+20
 20
-1.000000000000000E+20
 30
-1.000000000000000E+20
  9
$PLIMMIN
 10
0.0
 20
0.0
  9
$PLIMMAX
 10
12.0
 20
9.0
  9
$UNITMODE
 70
     0
  9
$VISRETAIN
 70
     1
  9
$PLINEGEN
 70
     0
  9
$PSLTSCALE
 70
     1
  9
$TREEDEPTH
 70
  3020
  9
$CMLSTYLE
  2
Standard
  9
$CMLJUST
 70
     0
  9
$CMLSCALE
 40
1.0
  9
$PROXYGRAPHICS
 70
     1
  9
$MEASUREMENT
 70
     0
  9
$CELWEIGHT
370
    -1
  9
$ENDCAPS
280
     0
  9
$JOINSTYLE
280
     0
  9
$LWDISPLAY
290
     0
  9
$INSUNITS
 70
     4
  9
$HYPERLINKBASE
  1

  9
$STYLESHEET
  1

  9
$XEDIT
290
     1
  9
$CEPSNTYPE
380
     0
  9
$PSTYLEMODE
290
     1
  9
$FINGERPRINTGUID
  2
{861e768f-7fac-40e3-8837-b04c7c4caf1b}
  9
$VERSIONGUID
  2
{FAEB1C32-E019-11D5-929B-00C0DF256EC4}
  9
$EXTNAMES
290
     1
  9
$PSVPSCALE
 40
0.0
  9
$OLESTARTUP
290
     0
  9
$SORTENTS
280
   127
  9
$INDEXCTL
280
     0
  9
$HIDETEXT
280
     1
  9
$XCLIPFRAME
280
     2
  9
$HALOGAP
280
     0
  9
$OBSCOLOR
 70
   257
  9
$OBSLTYPE
280
     0
  9
$INTERSECTIONDISPLAY
280
     0
  9
$INTERSECTIONCOLOR
 70
   257
  9
$DIMASSOC
280
     2
  9
$PROJECTNAME
  1

  9
$CAMERADISPLAY
290
     0
  9
$LENSLENGTH
 40
50.0
  9
$CAMERAHEIGHT
 40
0.0
  9
$STEPSPERSEC
 40
2.0
  9
$STEPSIZE
 40
6.0
  9
$3DDWFPREC
 40
2.0
  9
$PSOLWIDTH
 40
0.25
  9
$PSOLHEIGHT
 40
4.0
  9
$LOFTANG1
 40
1.570796326794897
  9
$LOFTANG2
 40
1.570796326794897
  9
$LOFTMAG1
 40
0.0
  9
$LOFTMAG2
 40
0.0
  9
$LOFTPARAM
 70
     7
  9
$LOFTNORMALS
280
     1
  9
$LATITUDE
 40
37.795
  9
$LONGITUDE
 40
-122.394
  9
$NORTHDIRECTION
 40
0.0
  9
$TIMEZONE
 70
 -8000
  9
$LIGHTGLYPHDISPLAY
280
     1
  9
$TILEMODELIGHTSYNCH
280
     1
  9
$CMATERIAL
347
44
  9
$SOLIDHIST
280
     0
  9
$SHOWHIST
280
     1
  9
$DWFFRAME
280
     2
  9
$DGNFRAME
280
     2
  9
$REALWORLDSCALE
290
     1
  9
$INTERFERECOLOR
 62
   256
  9
$CSHADOW
280
     0
  9
$SHADOWPLANELOCATION
 40
0.0
  0
ENDSEC
  0
SECTION
  2
CLASSES
  0
CLASS
  1
ACDBDICTIONARYWDFLT
  2
AcDbDictionaryWithDefault
  3
ObjectDBX Classes
 90
        0
 91
        3
280
     0
281
     0
  0
CLASS
  1
VISUALSTYLE
  2
AcDbVisualStyle
  3
ObjectDBX Classes
 90
     4095
 91
        3
280
     0
281
     0
  0
CLASS
  1
MATERIAL
  2
AcDbMaterial
  3
ObjectDBX Classes
 90
     1153
 91
        3
280
     0
281
     0
  0
CLASS
  1
SCALE
  2
AcDbScale
  3
ObjectDBX Classes
 90
     1153
 91
        3
280
     0
281
     0
  0
CLASS
  1
TABLESTYLE
  2
AcDbTableStyle
  3
ObjectDBX Classes
 90
     4095
 91
        3
280
     0
281
     0
  0
CLASS
  1
MLEADERSTYLE
  2
AcDbMLeaderStyle
  3
ACDB_MLEADERSTYLE_CLASS
 90
     4095
 91
        3
280
     0
281
     0
  0
CLASS
  1
SUN
  2
AcDbSun
  3
SCENEOE
 90
     1153
 91
        3
280
     0
281
     0
  0
CLASS
  1
DICTIONARYVAR
  2
AcDbDictionaryVar
  3
ObjectDBX Classes
 90
        0
 91
        3
280
     0
281
     0
  0
CLASS
  1
CELLSTYLEMAP
  2
AcDbCellStyleMap
  3
ObjectDBX Classes
 90
     1152
 91
        3
280
     0
281
     0
  0
ENDSEC
  0
SECTION
  2
TABLES
  0
TABLE
  2
VPORT
  5
8
330
0
100
AcDbSymbolTable
 70
     1
  0
VPORT
  5
29
330
8
100
AcDbSymbolTableRecord
100
AcDbViewportTableRecord
  2
*Active
 70
     0
 10
0.0
 20
0.0
 11
1.0
 21
1.0
 12
10.42990654205607
 22
4.5
 13
0.0
 23
0.0
 14
0.5
 24
0.5
 15
0.5
 25
0.5
 16
0.0
 26
0.0
 36
1.0
 17
0.0
 27
0.0
 37
0.0
 40
9.0
 41
1.972972972850329
 42
50.0
 43
0.0
 44
0.0
 50
0.0
 51
0.0
 71
     0
 72
   100
 73
     1
 74
     3
 75
     0
 76
     0
 77
     0
 78
     0
281
     0
 65
     1
110
0.0
120
0.0
130
0.0
111
1.0
121
0.0
131
0.0
112
0.0
122
1.0
132
0.0
 79
     0
146
0.0
348
2F
 60
     3
 61
     5
292
     1
282
     1
141
0.0
142
0.0
 63
   250
361
5D
  0
ENDTAB
  0
TABLE
  2
LTYPE
  5
5
330
0
100
AcDbSymbolTable
 70
     1
  0
LTYPE
  5
14
330
5
100
AcDbSymbolTableRecord
100
AcDbLinetypeTableRecord
  2
ByBlock
 70
     0
  3

 72
    65
 73
     0
 40
0.0
  0
LTYPE
  5
15
330
5
100
AcDbSymbolTableRecord
100
AcDbLinetypeTableRecord
  2
ByLayer
 70
     0
  3

 72
    65
 73
     0
 40
0.0
  0
LTYPE
  5
16
330
5
100
AcDbSymbolTableRecord
100
AcDbLinetypeTableRecord
  2
Continuous
 70
     0
  3
Solid line
 72
    65
 73
     0
 40
0.0
  0
ENDTAB
  0
TABLE
  2
LAYER
  5
2
330
0
100
AcDbSymbolTable
 70
     2
  0
LAYER
  5
10
330
2
100
AcDbSymbolTableRecord
100
AcDbLayerTableRecord
  2
0
 70
     0
 62
     7
  6
Continuous
370
    -3
390
F
347
46
348
0
  0
LAYER
  5
5F
330
2
100
AcDbSymbolTableRecord
100
AcDbLayerTableRecord
  2
Layer 1
 70
     0
 62
     7
  6
Continuous
370
    -3
390
F
347
46
348
0
  0
ENDTAB
  0
TABLE
  2
STYLE
  5
3
330
0
100
AcDbSymbolTable
 70
     1
  0
STYLE
  5
11
330
3
100
AcDbSymbolTableRecord
100
AcDbTextStyleTableRecord
  2
Standard
 70
     0
 40
0.0
 41
1.0
 50
0.0
 71
     0
 42
0.2
  3
txt
  4

  0
ENDTAB
  0
TABLE
  2
VIEW
  5
6
330
0
100
AcDbSymbolTable
 70
     0
  0
ENDTAB
  0
TABLE
  2
UCS
  5
7
330
0
100
AcDbSymbolTable
 70
     0
  0
ENDTAB
  0
TABLE
  2
APPID
  5
9
330
0
100
AcDbSymbolTable
 70
     2
  0
APPID
  5
12
330
9
100
AcDbSymbolTableRecord
100
AcDbRegAppTableRecord
  2
ACAD
 70
     0
  0
APPID
  5
5E
330
9
100
AcDbSymbolTableRecord
100
AcDbRegAppTableRecord
  2
ODA
 70
     0
  0
ENDTAB
  0
TABLE
  2
DIMSTYLE
  5
A
330
0
100
AcDbSymbolTable
 70
     1
100
AcDbDimStyleTable
  0
DIMSTYLE
105
27
330
A
100
AcDbSymbolTableRecord
100
AcDbDimStyleTableRecord
  2
Standard
 70
     0
178
     0
340
11
  0
ENDTAB
  0
TABLE
  2
BLOCK_RECORD
  5
1
330
0
100
AcDbSymbolTable
 70
     1
  0
BLOCK_RECORD
  5
1F
330
1
100
AcDbSymbolTableRecord
100
AcDbBlockTableRecord
  2
*Model_Space
340
22
 70
     0
280
     1
281
     0
  0
BLOCK_RECORD
  5
1B
330
1
100
AcDbSymbolTableRecord
100
AcDbBlockTableRecord
  2
*Paper_Space
340
1E
 70
     0
280
     1
281
     0
  0
BLOCK_RECORD
  5
23
330
1
100
AcDbSymbolTableRecord
100
AcDbBlockTableRecord
  2
*Paper_Space0
340
26
 70
     0
280
     1
281
     0
  0
ENDTAB
  0
ENDSEC
  0
SECTION
  2
BLOCKS
  0
BLOCK
  5
20
330
1F
100
AcDbEntity
  8
0
100
AcDbBlockBegin
  2
*Model_Space
 70
     0
 10
0.0
 20
0.0
 30
0.0
  3
*Model_Space
  1

  0
ENDBLK
  5
21
330
1F
100
AcDbEntity
  8
0
100
AcDbBlockEnd
  0
BLOCK
  5
1C
330
1B
100
AcDbEntity
 67
     1
  8
0
100
AcDbBlockBegin
  2
*Paper_Space
 70
     0
 10
0.0
 20
0.0
 30
0.0
  3
*Paper_Space
  1

  0
ENDBLK
  5
1D
330
1B
100
AcDbEntity
 67
     1
  8
0
100
AcDbBlockEnd
  0
BLOCK
  5
24
330
23
100
AcDbEntity
  8
0
100
AcDbBlockBegin
  2
*Paper_Space0
 70
     0
 10
0.0
 20
0.0
 30
0.0
  3
*Paper_Space0
  1

  0
ENDBLK
  5
25
330
23
100
AcDbEntity
  8
0
100
AcDbBlockEnd
  0
ENDSEC
  0
SECTION
  2
ENTITIES
  0
SPLINE
  5
60
330
1F
100
AcDbEntity
  8
Layer 1
 62
   250
100
AcDbSpline
210
0.0
220
0.0
230
1.0
 70
    11
 71
     3
 72
    83
 73
    79
 74
     0
 42
0.0000000001
 43
0.0000000001
 40
0.0
 40
0.0
 40
0.0
 40
0.0
 40
0.0384615384615385
 40
0.0384615384615385
 40
0.0384615384615385
 40
0.0769230769230769
 40
0.0769230769230769
 40
0.0769230769230769
 40
0.1153846153846154
 40
0.1153846153846154
 40
0.1153846153846154
 40
0.1538461538461539
 40
0.1538461538461539
 40
0.1538461538461539
 40
0.1923076923076923
 40
0.1923076923076923
 40
0.1923076923076923
 40
0.2307692307692308
 40
0.2307692307692308
 40
0.2307692307692308
 40
0.2692307692307693
 40
0.2692307692307693
 40
0.2692307692307693
 40
0.3076923076923077
 40
0.3076923076923077
 40
0.3076923076923077
 40
0.3461538461538461
 40
0.3461538461538461
 40
0.3461538461538461
 40
0.3846153846153846
 40
0.3846153846153846
 40
0.3846153846153846
 40
0.4230769230769231
 40
0.4230769230769231
 40
0.4230769230769231
 40
0.4615384615384616
 40
0.4615384615384616
 40
0.4615384615384616
 40
0.5
 40
0.5
 40
0.5
 40
0.5384615384615385
 40
0.5384615384615385
 40
0.5384615384615385
 40
0.576923076923077
 40
0.576923076923077
 40
0.576923076923077
 40
0.6153846153846154
 40
0.6153846153846154
 40
0.6153846153846154
 40
0.6538461538461539
 40
0.6538461538461539
 40
0.6538461538461539
 40
0.6923076923076923
 40
0.6923076923076923
 40
0.6923076923076923
 40
0.7307692307692308
 40
0.7307692307692308
 40
0.7307692307692308
 40
0.7692307692307693
 40
0.7692307692307693
 40
0.7692307692307693
 40
0.8076923076923077
 40
0.8076923076923077
 40
0.8076923076923077
 40
0.8461538461538463
 40
0.8461538461538463
 40
0.8461538461538463
 40
0.8846153846153847
 40
0.8846153846153847
 40
0.8846153846153847
 40
0.9230769230769231
 40
0.9230769230769231
 40
0.9230769230769231
 40
0.9615384615384616
 40
0.9615384615384616
 40
0.9615384615384616
 40
1.0
 40
1.0
 40
1.0
 40
1.0
 10
292.1965
 20
96.7552
 30
0.0
 10
292.1965
 20
96.7552
 30
0.0
 10
293.19
 20
96.0674
 30
0.0
 10
293.19
 20
96.0674
 30
0.0
 10
293.5523
 20
95.8259
 30
0.0
 10
293.8099
 20
95.6384
 30
0.0
 10
294.1593
 20
95.3557
 30
0.0
 10
295.4314
 20
94.3263
 30
0.0
 10
296.5327
 20
93.1996
 30
0.0
 10
297.4393
 20
91.8342
 30
0.0
 10
299.9961
 20
87.9832
 30
0.0
 10
301.0481
 20
83.2032
 30
0.0
 10
299.6542
 20
78.2929
 30
0.0
 10
298.7002
 20
74.9322
 30
0.0
 10
296.6335
 20
72.0205
 30
0.0
 10
294.2276
 20
70.1169
 30
0.0
 10
285.1318
 20
62.9202
 30
0.0
 10
271.8562
 20
67.1138
 30
0.0
 10
268.5548
 20
78.2335
 30
0.0
 10
267.1396
 20
83.0006
 30
0.0
 10
268.1709
 20
87.9373
 30
0.0
 10
270.6919
 20
91.7423
 30
0.0
 10
272.9969
 20
95.2212
 30
0.0
 10
275.7516
 20
96.4221
 30
0.0
 10
275.9956
 20
96.7552
 30
0.0
 10
274.9983
 20
96.5229
 30
0.0
 10
272.4705
 20
94.4144
 30
0.0
 10
271.6589
 20
93.6029
 30
0.0
 10
268.9001
 20
90.8444
 30
0.0
 10
267.2761
 20
87.4268
 30
0.0
 10
266.7145
 20
83.5689
 30
0.0
 10
266.6622
 20
83.2102
 30
0.0
 10
266.623
 20
82.8489
 30
0.0
 10
266.596
 20
82.486
 30
0.0
 10
266.596
 20
82.486
 30
0.0
 10
266.596
 20
80.0506
 30
0.0
 10
266.596
 20
80.0506
 30
0.0
 10
266.8158
 20
77.0206
 30
0.0
 10
267.8372
 20
74.02
 30
0.0
 10
269.4693
 20
71.5823
 30
0.0
 10
269.7415
 20
71.1757
 30
0.0
 10
269.9396
 20
70.8957
 30
0.0
 10
270.2307
 20
70.5097
 30
0.0
 10
271.5573
 20
68.7504
 30
0.0
 10
273.3535
 20
67.2429
 30
0.0
 10
275.2356
 20
66.1151
 30
0.0
 10
277.6466
 20
64.6704
 30
0.0
 10
280.5133
 20
63.8622
 30
0.0
 10
283.4054
 20
63.7418
 30
0.0
 10
283.4054
 20
63.7418
 30
0.0
 10
284.9182
 20
63.7418
 30
0.0
 10
284.9182
 20
63.7418
 30
0.0
 10
286.8169
 20
63.8213
 30
0.0
 10
288.6942
 20
64.2022
 30
0.0
 10
290.4279
 20
64.8989
 30
0.0
 10
292.3867
 20
65.6861
 30
0.0
 10
294.6594
 20
67.0199
 30
0.0
 10
296.1527
 20
68.4974
 30
0.0
 10
296.1527
 20
68.4974
 30
0.0
 10
297.5233
 20
69.9544
 30
0.0
 10
297.5233
 20
69.9544
 30
0.0
 10
297.6663
 20
70.1233
 30
0.0
 10
297.8057
 20
70.305
 30
0.0
 10
297.9287
 20
70.4659
 30
0.0
 10
300.1366
 20
73.352
 30
0.0
 10
301.36
 20
76.6193
 30
0.0
 10
301.596
 20
79.965
 30
0.0
 10
301.596
 20
79.965
 30
0.0
 10
301.596
 20
82.3748
 30
0.0
 10
301.596
 20
82.3748
 30
0.0
 10
301.4325
 20
84.7025
 30
0.0
 10
300.7961
 20
87.0329
 30
0.0
 10
299.6856
 20
89.2661
 30
0.0
 10
298.4734
 20
91.7038
 30
0.0
 10
296.6506
 20
93.732
 30
0.0
 10
294.5219
 20
95.3361
 30
0.0
 10
294.0695
 20
95.677
 30
0.0
 10
292.7195
 20
96.6334
 30
0.0
 10
292.1965
 20
96.7552
 30
0.0
  0
SPLINE
  5
61
330
1F
100
AcDbEntity
  8
Layer 1
 62
   250
100
AcDbSpline
210
0.0
220
0.0
230
1.0
 70
    11
 71
     3
 72
    23
 73
    19
 74
     0
 42
0.0000000001
 43
0.0000000001
 40
0.0
 40
0.0
 40
0.0
 40
0.0
 40
0.1666666666666667
 40
0.1666666666666667
 40
0.1666666666666667
 40
0.3333333333333333
 40
0.3333333333333333
 40
0.3333333333333333
 40
0.5
 40
0.5
 40
0.5
 40
0.6666666666666666
 40
0.6666666666666666
 40
0.6666666666666666
 40
0.8333333333333333
 40
0.8333333333333333
 40
0.8333333333333333
 40
1.0
 40
1.0
 40
1.0
 40
1.0
 10
283.9432
 20
87.8141
 30
0.0
 10
284.1727
 20
87.9822
 30
0.0
 10
284.3701
 20
88.5913
 30
0.0
 10
284.5109
 20
88.9276
 30
0.0
 10
284.5109
 20
88.9276
 30
0.0
 10
287.8473
 20
96.6009
 30
0.0
 10
287.8473
 20
96.6009
 30
0.0
 10
287.919
 20
96.7535
 30
0.0
 10
288.161
 20
97.1373
 30
0.0
 10
287.7641
 20
97.1373
 30
0.0
 10
287.7641
 20
97.1373
 30
0.0
 10
280.1987
 20
97.1373
 30
0.0
 10
280.1987
 20
97.1373
 30
0.0
 10
279.7809
 20
97.1373
 30
0.0
 10
280.1055
 20
96.714
 30
0.0
 10
280.3726
 20
96.0886
 30
0.0
 10
280.3726
 20
96.0886
 30
0.0
 10
283.9432
 20
87.8141
 30
0.0
 10
283.9432
 20
87.8141
 30
0.0
  0
SPLINE
  5
62
330
1F
100
AcDbEntity
  8
Layer 1
 62
   250
100
AcDbSpline
210
0.0
220
0.0
230
1.0
 70
    11
 71
     3
 72
    14
 73
    10
 74
     0
 42
0.0000000001
 43
0.0000000001
 40
0.0
 40
0.0
 40
0.0
 40
0.0
 40
0.3333333333333333
 40
0.3333333333333333
 40
0.3333333333333333
 40
0.6666666666666666
 40
0.6666666666666666
 40
0.6666666666666666
 40
1.0
 40
1.0
 40
1.0
 40
1.0
 10
294.9476
 20
83.3817
 30
0.0
 10
294.9871
 20
83.8567
 30
0.0
 10
295.5798
 20
84.6044
 30
0.0
 10
296.3231
 20
84.6044
 30
0.0
 10
297.2103
 20
84.6044
 30
0.0
 10
297.5293
 20
84.2439
 30
0.0
 10
298.0044
 20
83.5345
 30
0.0
 10
297.5349
 20
83.5345
 30
0.0
 10
295.1658
 20
83.4865
 30
0.0
 10
294.9476
 20
83.3817
 30
0.0
  0
SPLINE
  5
63
330
1F
100
AcDbEntity
  8
Layer 1
 62
   250
100
AcDbSpline
210
0.0
220
0.0
230
1.0
 70
    11
 71
     3
 72
    98
 73
    94
 74
     0
 42
0.0000000001
 43
0.0000000001
 40
0.0
 40
0.0
 40
0.0
 40
0.0
 40
0.032258064516129
 40
0.032258064516129
 40
0.032258064516129
 40
0.0645161290322581
 40
0.0645161290322581
 40
0.0645161290322581
 40
0.0967741935483871
 40
0.0967741935483871
 40
0.0967741935483871
 40
0.1290322580645161
 40
0.1290322580645161
 40
0.1290322580645161
 40
0.1612903225806452
 40
0.1612903225806452
 40
0.1612903225806452
 40
0.1935483870967742
 40
0.1935483870967742
 40
0.1935483870967742
 40
0.2258064516129032
 40
0.2258064516129032
 40
0.2258064516129032
 40
0.2580645161290323
 40
0.2580645161290323
 40
0.2580645161290323
 40
0.2903225806451613
 40
0.2903225806451613
 40
0.2903225806451613
 40
0.3225806451612903
 40
0.3225806451612903
 40
0.3225806451612903
 40
0.3548387096774194
 40
0.3548387096774194
 40
0.3548387096774194
 40
0.3870967741935484
 40
0.3870967741935484
 40
0.3870967741935484
 40
0.4193548387096774
 40
0.4193548387096774
 40
0.4193548387096774
 40
0.4516129032258064
 40
0.4516129032258064
 40
0.4516129032258064
 40
0.4838709677419355
 40
0.4838709677419355
 40
0.4838709677419355
 40
0.5161290322580645
 40
0.5161290322580645
 40
0.5161290322580645
 40
0.5483870967741935
 40
0.5483870967741935
 40
0.5483870967741935
 40
0.5806451612903225
 40
0.5806451612903225
 40
0.5806451612903225
 40
0.6129032258064516
 40
0.6129032258064516
 40
0.6129032258064516
 40
0.6451612903225806
 40
0.6451612903225806
 40
0.6451612903225806
 40
0.6774193548387096
 40
0.6774193548387096
 40
0.6774193548387096
 40
0.7096774193548387
 40
0.7096774193548387
 40
0.7096774193548387
 40
0.7419354838709677
 40
0.7419354838709677
 40
0.7419354838709677
 40
0.7741935483870968
 40
0.7741935483870968
 40
0.7741935483870968
 40
0.8064516129032258
 40
0.8064516129032258
 40
0.8064516129032258
 40
0.8387096774193548
 40
0.8387096774193548
 40
0.8387096774193548
 40
0.8709677419354839
 40
0.8709677419354839
 40
0.8709677419354839
 40
0.9032258064516129
 40
0.9032258064516129
 40
0.9032258064516129
 40
0.9354838709677419
 40
0.9354838709677419
 40
0.9354838709677419
 40
0.967741935483871
 40
0.967741935483871
 40
0.967741935483871
 40
1.0
 40
1.0
 40
1.0
 40
1.0
 10
293.1135
 20
83.4581
 30
0.0
 10
293.1135
 20
83.0877
 30
0.0
 10
293.1015
 20
83.1631
 30
0.0
 10
292.8903
 20
82.9936
 30
0.0
 10
292.5414
 20
82.7136
 30
0.0
 10
292.4566
 20
82.7333
 30
0.0
 10
292.1763
 20
82.5612
 30
0.0
 10
292.0058
 20
82.4566
 30
0.0
 10
291.9469
 20
82.4455
 30
0.0
 10
291.8908
 20
82.2354
 30
0.0
 10
292.4163
 20
81.9924
 30
0.0
 10
293.3498
 20
83.1287
 30
0.0
 10
293.7248
 20
83.2289
 30
0.0
 10
293.8701
 20
82.6053
 30
0.0
 10
294.5458
 20
82.7736
 30
0.0
 10
295.4827
 20
82.7701
 30
0.0
 10
296.0127
 20
82.7682
 30
0.0
 10
296.276
 20
82.8365
 30
0.0
 10
296.7027
 20
82.8493
 30
0.0
 10
298.3697
 20
82.8992
 30
0.0
 10
298.6921
 20
82.5578
 30
0.0
 10
298.6921
 20
83.7638
 30
0.0
 10
298.6921
 20
84.0492
 30
0.0
 10
297.6824
 20
85.099
 30
0.0
 10
297.0679
 20
85.2781
 30
0.0
 10
296.6791
 20
85.3915
 30
0.0
 10
296.6269
 20
85.2922
 30
0.0
 10
296.1703
 20
85.2922
 30
0.0
 10
296.205
 20
85.7093
 30
0.0
 10
296.3996
 20
85.875
 30
0.0
 10
296.3996
 20
86.5913
 30
0.0
 10
296.3996
 20
86.5913
 30
0.0
 10
296.3996
 20
91.7879
 30
0.0
 10
296.3996
 20
91.7879
 30
0.0
 10
296.3996
 20
92.4047
 30
0.0
 10
295.8368
 20
91.7005
 30
0.0
 10
295.7752
 20
91.5718
 30
0.0
 10
295.5038
 20
91.0048
 30
0.0
 10
295.9962
 20
85.7303
 30
0.0
 10
295.4991
 20
85.0464
 30
0.0
 10
295.311
 20
84.7875
 30
0.0
 10
294.9644
 20
84.5851
 30
0.0
 10
294.6463
 20
83.8358
 30
0.0
 10
294.5089
 20
83.5122
 30
0.0
 10
294.6542
 20
83.5431
 30
0.0
 10
294.3362
 20
83.4581
 30
0.0
 10
294.0072
 20
84.1437
 30
0.0
 10
294.5075
 20
90.6262
 30
0.0
 10
294.1833
 20
92.0171
 30
0.0
 10
293.4163
 20
91.9533
 30
0.0
 10
293.5717
 20
90.8748
 30
0.0
 10
293.572
 20
90.4888
 30
0.0
 10
293.572
 20
90.4888
 30
0.0
 10
293.572
 20
84.0695
 30
0.0
 10
293.572
 20
84.0695
 30
0.0
 10
293.4083
 20
84.1355
 30
0.0
 10
293.5018
 20
84.0782
 30
0.0
 10
293.2959
 20
84.4047
 30
0.0
 10
293.0636
 20
84.7731
 30
0.0
 10
292.5851
 20
85.1391
 30
0.0
 10
292.2493
 20
85.4214
 30
0.0
 10
292.0946
 20
85.5514
 30
0.0
 10
292.064
 20
85.548
 30
0.0
 10
291.9093
 20
85.6928
 30
0.0
 10
290.5478
 20
86.9673
 30
0.0
 10
288.6048
 20
88.0707
 30
0.0
 10
288.6048
 20
90.0302
 30
0.0
 10
288.6048
 20
91.2056
 30
0.0
 10
289.3466
 20
91.9774
 30
0.0
 10
290.2405
 20
92.5212
 30
0.0
 10
291.0714
 20
93.0267
 30
0.0
 10
292.3306
 20
93.2399
 30
0.0
 10
293.6485
 20
93.2399
 30
0.0
 10
293.5937
 20
93.445
 30
0.0
 10
293.6086
 20
93.5456
 30
0.0
 10
292.8842
 20
93.5456
 30
0.0
 10
291.4473
 20
93.5456
 30
0.0
 10
289.6232
 20
92.9008
 30
0.0
 10
288.7252
 20
91.5911
 30
0.0
 10
288.5409
 20
91.3223
 30
0.0
 10
288.4363
 20
91.1039
 30
0.0
 10
288.3239
 20
90.7696
 30
0.0
 10
287.8176
 20
89.2634
 30
0.0
 10
288.5041
 20
88.2605
 30
0.0
 10
289.3565
 20
87.1902
 30
0.0
 10
289.3565
 20
87.1902
 30
0.0
 10
290.6873
 20
85.9991
 30
0.0
 10
290.6873
 20
85.9991
 30
0.0
 10
290.9322
 20
85.7658
 30
0.0
 10
291.0941
 20
85.6717
 30
0.0
 10
291.3363
 20
85.4255
 30
0.0
 10
291.8466
 20
84.9067
 30
0.0
 10
293.1135
 20
84.1274
 30
0.0
 10
293.1135
 20
83.4581
 30
0.0
  0
SPLINE
  5
64
330
1F
100
AcDbEntity
  8
Layer 1
 62
   250
100
AcDbSpline
210
0.0
220
0.0
230
1.0
 70
    11
 71
     3
 72
    14
 73
    10
 74
     0
 42
0.0000000001
 43
0.0000000001
 40
0.0
 40
0.0
 40
0.0
 40
0.0
 40
0.3333333333333333
 40
0.3333333333333333
 40
0.3333333333333333
 40
0.6666666666666666
 40
0.6666666666666666
 40
0.6666666666666666
 40
1.0
 40
1.0
 40
1.0
 40
1.0
 10
279.2052
 20
76.9624
 30
0.0
 10
279.3044
 20
77.0487
 30
0.0
 10
279.2078
 20
76.9913
 30
0.0
 10
279.3906
 20
77.0826
 30
0.0
 10
279.4888
 20
77.1317
 30
0.0
 10
279.5665
 20
77.1451
 30
0.0
 10
279.6637
 20
77.1917
 30
0.0
 10
279.58
 20
76.878
 30
0.0
 10
279.6068
 20
76.9624
 30
0.0
 10
279.2052
 20
76.9624
 30
0.0
  0
SPLINE
  5
65
330
1F
100
AcDbEntity
  8
Layer 1
 62
   250
100
AcDbSpline
210
0.0
220
0.0
230
1.0
 70
    11
 71
     3
 72
    11
 73
     7
 74
     0
 42
0.0000000001
 43
0.0000000001
 40
0.0
 40
0.0
 40
0.0
 40
0.0
 40
0.5
 40
0.5
 40
0.5
 40
1.0
 40
1.0
 40
1.0
 40
1.0
 10
282.1856
 20
77.6502
 30
0.0
 10
282.2668
 20
77.7314
 30
0.0
 10
282.4754
 20
77.5289
 30
0.0
 10
282.2707
 20
77.6105
 30
0.0
 10
282.269
 20
77.6112
 30
0.0
 10
282.0576
 20
77.5222
 30
0.0
 10
282.1856
 20
77.6502
 30
0.0
  0
SPLINE
  5
66
330
1F
100
AcDbEntity
  8
Layer 1
 62
   250
100
AcDbSpline
210
0.0
220
0.0
230
1.0
 70
    11
 71
     3
 72
    20
 73
    16
 74
     0
 42
0.0000000001
 43
0.0000000001
 40
0.0
 40
0.0
 40
0.0
 40
0.0
 40
0.2
 40
0.2
 40
0.2
 40
0.4
 40
0.4
 40
0.4
 40
0.6000000000000001
 40
0.6000000000000001
 40
0.6000000000000001
 40
0.8
 40
0.8
 40
0.8
 40
1.0
 40
1.0
 40
1.0
 40
1.0
 10
278.976
 20
77.4974
 30
0.0
 10
278.9969
 20
78.4365
 30
0.0
 10
279.3603
 20
77.9693
 30
0.0
 10
280.274
 20
77.8019
 30
0.0
 10
280.5219
 20
77.7565
 30
0.0
 10
280.6879
 20
77.7455
 30
0.0
 10
280.8865
 20
77.6502
 30
0.0
 10
280.7984
 20
77.407
 30
0.0
 10
280.1392
 20
77.0962
 30
0.0
 10
279.893
 20
77.0389
 30
0.0
 10
279.9745
 20
77.3888
 30
0.0
 10
279.9745
 20
77.2238
 30
0.0
 10
279.893
 20
77.5738
 30
0.0
 10
279.584
 20
77.6558
 30
0.0
 10
279.4127
 20
77.707
 30
0.0
 10
278.976
 20
77.4974
 30
0.0
  0
SPLINE
  5
67
330
1F
100
AcDbEntity
  8
Layer 1
 62
   250
100
AcDbSpline
210
0.0
220
0.0
230
1.0
 70
    11
 71
     3
 72
   110
 73
   106
 74
     0
 42
0.0000000001
 43
0.0000000001
 40
0.0
 40
0.0
 40
0.0
 40
0.0
 40
0.0285714285714286
 40
0.0285714285714286
 40
0.0285714285714286
 40
0.0571428571428571
 40
0.0571428571428571
 40
0.0571428571428571
 40
0.0857142857142857
 40
0.0857142857142857
 40
0.0857142857142857
 40
0.1142857142857143
 40
0.1142857142857143
 40
0.1142857142857143
 40
0.1428571428571428
 40
0.1428571428571428
 40
0.1428571428571428
 40
0.1714285714285714
 40
0.1714285714285714
 40
0.1714285714285714
 40
0.2
 40
0.2
 40
0.2
 40
0.2285714285714286
 40
0.2285714285714286
 40
0.2285714285714286
 40
0.2571428571428571
 40
0.2571428571428571
 40
0.2571428571428571
 40
0.2857142857142857
 40
0.2857142857142857
 40
0.2857142857142857
 40
0.3142857142857143
 40
0.3142857142857143
 40
0.3142857142857143
 40
0.3428571428571429
 40
0.3428571428571429
 40
0.3428571428571429
 40
0.3714285714285714
 40
0.3714285714285714
 40
0.3714285714285714
 40
0.4
 40
0.4
 40
0.4
 40
0.4285714285714285
 40
0.4285714285714285
 40
0.4285714285714285
 40
0.4571428571428571
 40
0.4571428571428571
 40
0.4571428571428571
 40
0.4857142857142857
 40
0.4857142857142857
 40
0.4857142857142857
 40
0.5142857142857142
 40
0.5142857142857142
 40
0.5142857142857142
 40
0.5428571428571428
 40
0.5428571428571428
 40
0.5428571428571428
 40
0.5714285714285714
 40
0.5714285714285714
 40
0.5714285714285714
 40
0.6
 40
0.6
 40
0.6
 40
0.6285714285714286
 40
0.6285714285714286
 40
0.6285714285714286
 40
0.6571428571428571
 40
0.6571428571428571
 40
0.6571428571428571
 40
0.6857142857142857
 40
0.6857142857142857
 40
0.6857142857142857
 40
0.7142857142857143
 40
0.7142857142857143
 40
0.7142857142857143
 40
0.7428571428571429
 40
0.7428571428571429
 40
0.7428571428571429
 40
0.7714285714285714
 40
0.7714285714285714
 40
0.7714285714285714
 40
0.7999999999999999
 40
0.7999999999999999
 40
0.7999999999999999
 40
0.8285714285714285
 40
0.8285714285714285
 40
0.8285714285714285
 40
0.8571428571428571
 40
0.8571428571428571
 40
0.8571428571428571
 40
0.8857142857142857
 40
0.8857142857142857
 40
0.8857142857142857
 40
0.9142857142857143
 40
0.9142857142857143
 40
0.9142857142857143
 40
0.9428571428571428
 40
0.9428571428571428
 40
0.9428571428571428
 40
0.9714285714285714
 40
0.9714285714285714
 40
0.9714285714285714
 40
1.0
 40
1.0
 40
1.0
 40
1.0
 10
283.4847
 20
77.4974
 30
0.0
 10
282.8722
 20
77.511
 30
0.0
 10
282.9163
 20
77.9769
 30
0.0
 10
282.4913
 20
78.2616
 30
0.0
 10
282.3522
 20
78.2244
 30
0.0
 10
282.4139
 20
78.2456
 30
0.0
 10
282.3358
 20
78.1878
 30
0.0
 10
282.3358
 20
78.1878
 30
0.0
 10
282.1856
 20
78.0324
 30
0.0
 10
282.1856
 20
78.0324
 30
0.0
 10
282.1856
 20
79.7145
 30
0.0
 10
283.1663
 20
79.1702
 30
0.0
 10
283.3319
 20
79.79
 30
0.0
 10
282.8816
 20
79.9982
 30
0.0
 10
281.8487
 20
79.174
 30
0.0
 10
281.7377
 20
78.2509
 30
0.0
 10
281.6832
 20
77.7973
 30
0.0
 10
281.7874
 20
77.5342
 30
0.0
 10
281.345
 20
77.4974
 30
0.0
 10
281.2148
 20
77.8124
 30
0.0
 10
281.7445
 20
78.1127
 30
0.0
 10
280.3193
 20
78.3822
 30
0.0
 10
279.9429
 20
78.4533
 30
0.0
 10
279.8138
 20
78.5032
 30
0.0
 10
279.4733
 20
78.6061
 30
0.0
 10
279.4691
 20
78.6073
 30
0.0
 10
279.3078
 20
78.657
 30
0.0
 10
279.2993
 20
78.6614
 30
0.0
 10
278.9051
 20
78.8599
 30
0.0
 10
279.2702
 20
78.9768
 30
0.0
 10
278.8232
 20
79.0258
 30
0.0
 10
278.5614
 20
78.5598
 30
0.0
 10
279.0686
 20
78.1733
 30
0.0
 10
278.7315
 20
77.6675
 30
0.0
 10
278.587
 20
77.4507
 30
0.0
 10
278.6933
 20
77.5047
 30
0.0
 10
278.3646
 20
77.4974
 30
0.0
 10
278.2144
 20
77.8106
 30
0.0
 10
278.3806
 20
77.9801
 30
0.0
 10
278.1169
 20
78.2431
 30
0.0
 10
277.9679
 20
78.3917
 30
0.0
 10
277.1537
 20
78.7053
 30
0.0
 10
276.7585
 20
78.95
 30
0.0
 10
276.3392
 20
79.2096
 30
0.0
 10
276.5199
 20
79.1593
 30
0.0
 10
276.5306
 20
79.6372
 30
0.0
 10
276.2718
 20
79.6156
 30
0.0
 10
276.3112
 20
79.6313
 30
0.0
 10
276.1707
 20
79.462
 30
0.0
 10
275.3411
 20
78.4616
 30
0.0
 10
277.5789
 20
77.8048
 30
0.0
 10
277.6004
 20
77.8031
 30
0.0
 10
277.4332
 20
77.5748
 30
0.0
 10
277.2039
 20
77.546
 30
0.0
 10
276.7619
 20
77.3424
 30
0.0
 10
275.7699
 20
76.8854
 30
0.0
 10
276.0063
 20
76.9296
 30
0.0
 10
275.5371
 20
77.0389
 30
0.0
 10
275.5371
 20
77.5029
 30
0.0
 10
275.6136
 20
77.6512
 30
0.0
 10
275.6136
 20
78.0324
 30
0.0
 10
275.4299
 20
77.9352
 30
0.0
 10
275.3669
 20
77.9078
 30
0.0
 10
275.2626
 20
77.6953
 30
0.0
 10
275.0268
 20
77.2147
 30
0.0
 10
274.8957
 20
76.3511
 30
0.0
 10
275.9956
 20
76.3511
 30
0.0
 10
276.1856
 20
76.3511
 30
0.0
 10
277.6643
 20
77.0638
 30
0.0
 10
277.9061
 20
77.1917
 30
0.0
 10
277.9555
 20
76.5979
 30
0.0
 10
278.3656
 20
76.7779
 30
0.0
 10
278.7467
 20
76.8096
 30
0.0
 10
278.967
 20
75.9845
 30
0.0
 10
279.9568
 20
76.4095
 30
0.0
 10
280.4731
 20
76.7685
 30
0.0
 10
281.2825
 20
77.3313
 30
0.0
 10
281.139
 20
76.0124
 30
0.0
 10
281.8035
 20
77.2681
 30
0.0
 10
282.098
 20
77.1615
 30
0.0
 10
281.8211
 20
77.2824
 30
0.0
 10
282.0219
 20
77.1045
 30
0.0
 10
282.3184
 20
76.8419
 30
0.0
 10
282.3851
 20
76.7332
 30
0.0
 10
282.8734
 20
76.7332
 30
0.0
 10
282.8734
 20
76.7332
 30
0.0
 10
282.8734
 20
76.9624
 30
0.0
 10
282.8734
 20
76.9624
 30
0.0
 10
283.4491
 20
76.5768
 30
0.0
 10
283.6154
 20
76.7411
 30
0.0
 10
283.8569
 20
77.3544
 30
0.0
 10
284.0656
 20
77.8842
 30
0.0
 10
284.2489
 20
78.0418
 30
0.0
 10
284.2489
 20
78.7965
 30
0.0
 10
284.2489
 20
78.7965
 30
0.0
 10
284.2489
 20
85.5215
 30
0.0
 10
284.2489
 20
85.5215
 30
0.0
 10
284.2489
 20
85.785
 30
0.0
 10
284.1924
 20
85.8174
 30
0.0
 10
284.1724
 20
86.0564
 30
0.0
 10
283.4307
 20
85.9947
 30
0.0
 10
283.561
 20
85.1675
 30
0.0
 10
283.5611
 20
84.3752
 30
0.0
 10
283.5613
 20
82.8995
 30
0.0
 10
283.6725
 20
78.3035
 30
0.0
 10
283.4847
 20
77.4974
 30
0.0
  0
SPLINE
  5
68
330
1F
100
AcDbEntity
  8
Layer 1
 62
   250
100
AcDbSpline
210
0.0
220
0.0
230
1.0
 70
    11
 71
     3
 72
    11
 73
     7
 74
     0
 42
0.0000000001
 43
0.0000000001
 40
0.0
 40
0.0
 40
0.0
 40
0.0
 40
0.5
 40
0.5
 40
0.5
 40
1.0
 40
1.0
 40
1.0
 40
1.0
 10
293.9541
 20
77.6502
 30
0.0
 10
294.0353
 20
77.7314
 30
0.0
 10
294.244
 20
77.5289
 30
0.0
 10
294.0393
 20
77.6105
 30
0.0
 10
294.0375
 20
77.6112
 30
0.0
 10
293.8261
 20
77.5222
 30
0.0
 10
293.9541
 20
77.6502
 30
0.0
  0
SPLINE
  5
69
330
1F
100
AcDbEntity
  8
Layer 1
 62
   250
100
AcDbSpline
210
0.0
220
0.0
230
1.0
 70
    11
 71
     3
 72
   128
 73
   124
 74
     0
 42
0.0000000001
 43
0.0000000001
 40
0.0
 40
0.0
 40
0.0
 40
0.0
 40
0.024390243902439
 40
0.024390243902439
 40
0.024390243902439
 40
0.0487804878048781
 40
0.0487804878048781
 40
0.0487804878048781
 40
0.0731707317073171
 40
0.0731707317073171
 40
0.0731707317073171
 40
0.0975609756097561
 40
0.0975609756097561
 40
0.0975609756097561
 40
0.1219512195121951
 40
0.1219512195121951
 40
0.1219512195121951
 40
0.1463414634146342
 40
0.1463414634146342
 40
0.1463414634146342
 40
0.1707317073170732
 40
0.1707317073170732
 40
0.1707317073170732
 40
0.1951219512195122
 40
0.1951219512195122
 40
0.1951219512195122
 40
0.2195121951219512
 40
0.2195121951219512
 40
0.2195121951219512
 40
0.2439024390243902
 40
0.2439024390243902
 40
0.2439024390243902
 40
0.2682926829268293
 40
0.2682926829268293
 40
0.2682926829268293
 40
0.2926829268292683
 40
0.2926829268292683
 40
0.2926829268292683
 40
0.3170731707317073
 40
0.3170731707317073
 40
0.3170731707317073
 40
0.3414634146341464
 40
0.3414634146341464
 40
0.3414634146341464
 40
0.3658536585365854
 40
0.3658536585365854
 40
0.3658536585365854
 40
0.3902439024390244
 40
0.3902439024390244
 40
0.3902439024390244
 40
0.4146341463414634
 40
0.4146341463414634
 40
0.4146341463414634
 40
0.4390243902439024
 40
0.4390243902439024
 40
0.4390243902439024
 40
0.4634146341463415
 40
0.4634146341463415
 40
0.4634146341463415
 40
0.4878048780487805
 40
0.4878048780487805
 40
0.4878048780487805
 40
0.5121951219512195
 40
0.5121951219512195
 40
0.5121951219512195
 40
0.5365853658536586
 40
0.5365853658536586
 40
0.5365853658536586
 40
0.5609756097560976
 40
0.5609756097560976
 40
0.5609756097560976
 40
0.5853658536585367
 40
0.5853658536585367
 40
0.5853658536585367
 40
0.6097560975609756
 40
0.6097560975609756
 40
0.6097560975609756
 40
0.6341463414634146
 40
0.6341463414634146
 40
0.6341463414634146
 40
0.6585365853658537
 40
0.6585365853658537
 40
0.6585365853658537
 40
0.6829268292682927
 40
0.6829268292682927
 40
0.6829268292682927
 40
0.7073170731707318
 40
0.7073170731707318
 40
0.7073170731707318
 40
0.7317073170731707
 40
0.7317073170731707
 40
0.7317073170731707
 40
0.7560975609756098
 40
0.7560975609756098
 40
0.7560975609756098
 40
0.7804878048780488
 40
0.7804878048780488
 40
0.7804878048780488
 40
0.8048780487804879
 40
0.8048780487804879
 40
0.8048780487804879
 40
0.8292682926829269
 40
0.8292682926829269
 40
0.8292682926829269
 40
0.8536585365853658
 40
0.8536585365853658
 40
0.8536585365853658
 40
0.8780487804878049
 40
0.8780487804878049
 40
0.8780487804878049
 40
0.9024390243902439
 40
0.9024390243902439
 40
0.9024390243902439
 40
0.926829268292683
 40
0.926829268292683
 40
0.926829268292683
 40
0.951219512195122
 40
0.951219512195122
 40
0.951219512195122
 40
0.975609756097561
 40
0.975609756097561
 40
0.975609756097561
 40
1.0
 40
1.0
 40
1.0
 40
1.0
 10
293.4956
 20
77.8031
 30
0.0
 10
293.3104
 20
77.7599
 30
0.0
 10
293.189
 20
77.7231
 30
0.0
 10
293.0371
 20
77.6502
 30
0.0
 10
293.0256
 20
78.1656
 30
0.0
 10
292.4257
 20
78.5074
 30
0.0
 10
292.4257
 20
79.1022
 30
0.0
 10
292.4257
 20
79.4744
 30
0.0
 10
292.5783
 20
79.472
 30
0.0
 10
292.4257
 20
79.79
 30
0.0
 10
291.9521
 20
79.6635
 30
0.0
 10
291.9672
 20
79.0223
 30
0.0
 10
291.9672
 20
78.6437
 30
0.0
 10
291.9672
 20
78.1673
 30
0.0
 10
292.4635
 20
77.8865
 30
0.0
 10
292.5022
 20
77.4209
 30
0.0
 10
292.5022
 20
77.4209
 30
0.0
 10
292.2268
 20
77.6041
 30
0.0
 10
292.2268
 20
77.6041
 30
0.0
 10
292.1829
 20
77.6475
 30
0.0
 10
292.1359
 20
77.7116
 30
0.0
 10
292.12
 20
77.7267
 30
0.0
 10
291.3479
 20
77.5468
 30
0.0
 10
290.7445
 20
76.7673
 30
0.0
 10
290.7445
 20
78.6437
 30
0.0
 10
289.855
 20
78.5697
 30
0.0
 10
290.3624
 20
77.155
 30
0.0
 10
290.3624
 20
76.5039
 30
0.0
 10
290.3624
 20
76.2151
 30
0.0
 10
289.668
 20
76.1754
 30
0.0
 10
289.423
 20
76.1442
 30
0.0
 10
285.6386
 20
75.6612
 30
0.0
 10
287.7463
 20
77.6085
 30
0.0
 10
287.7641
 20
78.4144
 30
0.0
 10
287.4132
 20
78.3207
 30
0.0
 10
287.2724
 20
77.9938
 30
0.0
 10
287.0902
 20
77.7129
 30
0.0
 10
286.1002
 20
76.1873
 30
0.0
 10
287.194
 20
75.2048
 30
0.0
 10
287.8406
 20
75.2048
 30
0.0
 10
288.5633
 20
75.2048
 30
0.0
 10
290.3509
 20
75.2322
 30
0.0
 10
290.6936
 20
75.9435
 30
0.0
 10
290.7886
 20
76.1406
 30
0.0
 10
290.8917
 20
76.4774
 30
0.0
 10
290.8974
 20
76.7332
 30
0.0
 10
291.6856
 20
76.7332
 30
0.0
 10
291.2981
 20
76.7835
 30
0.0
 10
291.738
 20
76.8861
 30
0.0
 10
292.0412
 20
76.683
 30
0.0
 10
291.9911
 20
76.5156
 30
0.0
 10
292.3763
 20
76.6964
 30
0.0
 10
292.8385
 20
76.9136
 30
0.0
 10
292.683
 20
76.9882
 30
0.0
 10
292.9607
 20
77.1917
 30
0.0
 10
293.032
 20
76.9247
 30
0.0
 10
292.9898
 20
77.0201
 30
0.0
 10
293.19
 20
76.8861
 30
0.0
 10
293.19
 20
76.8861
 30
0.0
 10
293.7248
 20
77.2681
 30
0.0
 10
293.7248
 20
77.2681
 30
0.0
 10
293.7687
 20
77.1041
 30
0.0
 10
293.8432
 20
77.0445
 30
0.0
 10
294.045
 20
76.9004
 30
0.0
 10
294.264
 20
76.7439
 30
0.0
 10
294.2851
 20
76.7332
 30
0.0
 10
294.6419
 20
76.7332
 30
0.0
 10
294.6419
 20
76.7332
 30
0.0
 10
294.6419
 20
76.9624
 30
0.0
 10
294.6419
 20
76.9624
 30
0.0
 10
294.9492
 20
76.7566
 30
0.0
 10
294.7347
 20
76.7332
 30
0.0
 10
295.2533
 20
76.7332
 30
0.0
 10
295.8253
 20
76.7332
 30
0.0
 10
295.8446
 20
77.0079
 30
0.0
 10
296.2467
 20
77.1153
 30
0.0
 10
296.2998
 20
76.4769
 30
0.0
 10
296.9591
 20
76.6564
 30
0.0
 10
297.393
 20
76.8861
 30
0.0
 10
297.6136
 20
76.7382
 30
0.0
 10
297.7673
 20
76.2961
 30
0.0
 10
298.4014
 20
76.871
 30
0.0
 10
298.7306
 20
77.1694
 30
0.0
 10
298.6921
 20
77.4948
 30
0.0
 10
298.6921
 20
77.8795
 30
0.0
 10
298.6921
 20
78.1496
 30
0.0
 10
298.1572
 20
78.3368
 30
0.0
 10
298.1572
 20
79.1787
 30
0.0
 10
298.1572
 20
79.442
 30
0.0
 10
298.2137
 20
79.4745
 30
0.0
 10
298.2336
 20
79.7135
 30
0.0
 10
297.5663
 20
79.6986
 30
0.0
 10
297.4279
 20
78.6966
 30
0.0
 10
298.0238
 20
77.8162
 30
0.0
 10
298.3042
 20
77.4018
 30
0.0
 10
298.3541
 20
77.6071
 30
0.0
 10
298.1535
 20
77.4232
 30
0.0
 10
297.9136
 20
77.2034
 30
0.0
 10
298.1222
 20
77.6502
 30
0.0
 10
297.7751
 20
77.6502
 30
0.0
 10
297.3929
 20
77.6502
 30
0.0
 10
297.2685
 20
77.3571
 30
0.0
 10
296.7052
 20
77.3446
 30
0.0
 10
296.7052
 20
77.3446
 30
0.0
 10
296.7052
 20
77.8031
 30
0.0
 10
296.7052
 20
77.8031
 30
0.0
 10
295.8162
 20
78.0102
 30
0.0
 10
295.4876
 20
76.8017
 30
0.0
 10
294.6644
 20
77.8256
 30
0.0
 10
294.4631
 20
78.076
 30
0.0
 10
294.4887
 20
78.2298
 30
0.0
 10
294.107
 20
78.2616
 30
0.0
 10
294.0535
 20
78.0381
 30
0.0
 10
294.1168
 20
78.1515
 30
0.0
 10
293.9541
 20
78.0324
 30
0.0
 10
293.9541
 20
78.6533
 30
0.0
 10
293.9911
 20
78.7858
 30
0.0
 10
294.3038
 20
79.1346
 30
0.0
 10
294.7645
 20
79.6485
 30
0.0
 10
294.982
 20
79.3464
 30
0.0
 10
295.1004
 20
79.79
 30
0.0
 10
294.7196
 20
79.9661
 30
0.0
 10
293.4956
 20
79.3242
 30
0.0
 10
293.4956
 20
77.8031
 30
0.0
  0
SPLINE
  5
6A
330
1F
100
AcDbEntity
  8
Layer 1
 62
   250
100
AcDbSpline
210
0.0
220
0.0
230
1.0
 70
    11
 71
     3
 72
    17
 73
    13
 74
     0
 42
0.0000000001
 43
0.0000000001
 40
0.0
 40
0.0
 40
0.0
 40
0.0
 40
0.25
 40
0.25
 40
0.25
 40
0.5
 40
0.5
 40
0.5
 40
0.75
 40
0.75
 40
0.75
 40
1.0
 40
1.0
 40
1.0
 40
1.0
 10
271.4869
 20
74.1349
 30
0.0
 10
271.4869
 20
74.1349
 30
0.0
 10
296.7816
 20
74.1349
 30
0.0
 10
296.7816
 20
74.1349
 30
0.0
 10
296.7816
 20
74.1349
 30
0.0
 10
296.7816
 20
74.6698
 30
0.0
 10
296.7816
 20
74.6698
 30
0.0
 10
296.7816
 20
74.6698
 30
0.0
 10
271.4869
 20
74.6698
 30
0.0
 10
271.4869
 20
74.6698
 30
0.0
 10
271.4869
 20
74.6698
 30
0.0
 10
271.4869
 20
74.1349
 30
0.0
 10
271.4869
 20
74.1349
 30
0.0
  0
SPLINE
  5
6B
330
1F
100
AcDbEntity
  8
Layer 1
 62
   250
100
AcDbSpline
210
0.0
220
0.0
230
1.0
 70
    11
 71
     3
 72
    26
 73
    22
 74
     0
 42
0.0000000001
 43
0.0000000001
 40
0.0
 40
0.0
 40
0.0
 40
0.0
 40
0.1428571428571428
 40
0.1428571428571428
 40
0.1428571428571428
 40
0.2857142857142857
 40
0.2857142857142857
 40
0.2857142857142857
 40
0.4285714285714285
 40
0.4285714285714285
 40
0.4285714285714285
 40
0.5714285714285714
 40
0.5714285714285714
 40
0.5714285714285714
 40
0.7142857142857142
 40
0.7142857142857142
 40
0.7142857142857142
 40
0.8571428571428571
 40
0.8571428571428571
 40
0.8571428571428571
 40
1.0
 40
1.0
 40
1.0
 40
1.0
 10
285.4715
 20
88.2726
 30
0.0
 10
285.6487
 20
88.3912
 30
0.0
 10
286.1079
 20
89.0703
 30
0.0
 10
286.2795
 20
89.2987
 30
0.0
 10
286.838
 20
90.0418
 30
0.0
 10
291.6546
 20
96.735
 30
0.0
 10
291.8908
 20
96.908
 30
0.0
 10
291.8908
 20
96.908
 30
0.0
 10
291.8908
 20
97.1373
 30
0.0
 10
291.8908
 20
97.1373
 30
0.0
 10
291.8908
 20
97.1373
 30
0.0
 10
289.0633
 20
97.1373
 30
0.0
 10
289.0633
 20
97.1373
 30
0.0
 10
289.0633
 20
96.4894
 30
0.0
 10
288.5126
 20
95.4881
 30
0.0
 10
288.2488
 20
94.8951
 30
0.0
 10
288.2488
 20
94.8951
 30
0.0
 10
285.9192
 20
89.4297
 30
0.0
 10
285.9192
 20
89.4297
 30
0.0
 10
285.813
 20
89.1724
 30
0.0
 10
285.4956
 20
88.5611
 30
0.0
 10
285.4715
 20
88.2726
 30
0.0
  0
SPLINE
  5
6C
330
1F
100
AcDbEntity
  8
Layer 1
 62
   250
100
AcDbSpline
210
0.0
220
0.0
230
1.0
 70
    11
 71
     3
 72
    26
 73
    22
 74
     0
 42
0.0000000001
 43
0.0000000001
 40
0.0
 40
0.0
 40
0.0
 40
0.0
 40
0.1428571428571428
 40
0.1428571428571428
 40
0.1428571428571428
 40
0.2857142857142857
 40
0.2857142857142857
 40
0.2857142857142857
 40
0.4285714285714285
 40
0.4285714285714285
 40
0.4285714285714285
 40
0.5714285714285714
 40
0.5714285714285714
 40
0.5714285714285714
 40
0.7142857142857142
 40
0.7142857142857142
 40
0.7142857142857142
 40
0.8571428571428571
 40
0.8571428571428571
 40
0.8571428571428571
 40
1.0
 40
1.0
 40
1.0
 40
1.0
 10
276.3013
 20
96.908
 30
0.0
 10
276.4856
 20
96.7729
 30
0.0
 10
276.9012
 20
96.108
 30
0.0
 10
277.0869
 20
95.8597
 30
0.0
 10
277.0869
 20
95.8597
 30
0.0
 10
281.8186
 20
89.2812
 30
0.0
 10
281.8186
 20
89.2812
 30
0.0
 10
281.9548
 20
89.0812
 30
0.0
 10
282.5134
 20
88.2919
 30
0.0
 10
282.6441
 20
88.1962
 30
0.0
 10
282.6441
 20
88.1962
 30
0.0
 10
279.3028
 20
95.9358
 30
0.0
 10
279.3028
 20
95.9358
 30
0.0
 10
279.1477
 20
96.2987
 30
0.0
 10
278.8995
 20
96.6882
 30
0.0
 10
278.8995
 20
97.1373
 30
0.0
 10
278.8995
 20
97.1373
 30
0.0
 10
276.3013
 20
97.1373
 30
0.0
 10
276.3013
 20
97.1373
 30
0.0
 10
276.3013
 20
97.1373
 30
0.0
 10
276.3013
 20
96.908
 30
0.0
 10
276.3013
 20
96.908
 30
0.0
  0
SPLINE
  5
6D
330
1F
100
AcDbEntity
  8
Layer 1
 62
   250
100
AcDbSpline
210
0.0
220
0.0
230
1.0
 70
    11
 71
     3
 72
    50
 73
    46
 74
     0
 42
0.0000000001
 43
0.0000000001
 40
0.0
 40
0.0
 40
0.0
 40
0.0
 40
0.0666666666666667
 40
0.0666666666666667
 40
0.0666666666666667
 40
0.1333333333333333
 40
0.1333333333333333
 40
0.1333333333333333
 40
0.2
 40
0.2
 40
0.2
 40
0.2666666666666667
 40
0.2666666666666667
 40
0.2666666666666667
 40
0.3333333333333333
 40
0.3333333333333333
 40
0.3333333333333333
 40
0.4
 40
0.4
 40
0.4
 40
0.4666666666666667
 40
0.4666666666666667
 40
0.4666666666666667
 40
0.5333333333333333
 40
0.5333333333333333
 40
0.5333333333333333
 40
0.6
 40
0.6
 40
0.6
 40
0.6666666666666666
 40
0.6666666666666666
 40
0.6666666666666666
 40
0.7333333333333333
 40
0.7333333333333333
 40
0.7333333333333333
 40
0.8
 40
0.8
 40
0.8
 40
0.8666666666666667
 40
0.8666666666666667
 40
0.8666666666666667
 40
0.9333333333333333
 40
0.9333333333333333
 40
0.9333333333333333
 40
1.0
 40
1.0
 40
1.0
 40
1.0
 10
269.5764
 20
77.7267
 30
0.0
 10
269.5764
 20
77.0539
 30
0.0
 10
269.4935
 20
76.9779
 30
0.0
 10
269.7768
 20
76.5515
 30
0.0
 10
270.4663
 20
75.5134
 30
0.0
 10
272.7264
 20
75.9512
 30
0.0
 10
273.7361
 20
76.0888
 30
0.0
 10
274.3729
 20
76.1755
 30
0.0
 10
274.9104
 20
76.1227
 30
0.0
 10
274.9258
 20
76.8096
 30
0.0
 10
274.9258
 20
76.8096
 30
0.0
 10
271.7162
 20
77.7267
 30
0.0
 10
271.7162
 20
77.7267
 30
0.0
 10
271.804
 20
78.0555
 30
0.0
 10
272.1528
 20
78.327
 30
0.0
 10
272.4803
 20
78.4144
 30
0.0
 10
272.7328
 20
78.2295
 30
0.0
 10
272.5661
 20
78.3312
 30
0.0
 10
272.7096
 20
78.0324
 30
0.0
 10
274.0267
 20
78.7293
 30
0.0
 10
272.7012
 20
79.8937
 30
0.0
 10
271.563
 20
78.2619
 30
0.0
 10
271.1373
 20
77.6516
 30
0.0
 10
271.3305
 20
77.8907
 30
0.0
 10
270.7227
 20
78.0324
 30
0.0
 10
270.5833
 20
77.8241
 30
0.0
 10
270.5014
 20
77.777
 30
0.0
 10
270.4934
 20
77.4209
 30
0.0
 10
270.7771
 20
77.3549
 30
0.0
 10
270.5173
 20
77.404
 30
0.0
 10
270.7785
 20
77.3239
 30
0.0
 10
270.7785
 20
77.3239
 30
0.0
 10
273.0917
 20
76.6568
 30
0.0
 10
273.0917
 20
76.6568
 30
0.0
 10
271.9943
 20
76.6568
 30
0.0
 10
270.4135
 20
76.4328
 30
0.0
 10
270.07
 20
77.2289
 30
0.0
 10
269.7937
 20
77.8692
 30
0.0
 10
270.254
 20
78.6489
 30
0.0
 10
270.766
 20
78.9824
 30
0.0
 10
271.0486
 20
79.1665
 30
0.0
 10
271.1798
 20
79.1162
 30
0.0
 10
271.2577
 20
79.4079
 30
0.0
 10
270.7081
 20
79.6621
 30
0.0
 10
269.5764
 20
78.339
 30
0.0
 10
269.5764
 20
77.7267
 30
0.0
  0
SPLINE
  5
6E
330
1F
100
AcDbEntity
  8
Layer 1
 62
   250
100
AcDbSpline
210
0.0
220
0.0
230
1.0
 70
    11
 71
     3
 72
    62
 73
    58
 74
     0
 42
0.0000000001
 43
0.0000000001
 40
0.0
 40
0.0
 40
0.0
 40
0.0
 40
0.0526315789473684
 40
0.0526315789473684
 40
0.0526315789473684
 40
0.1052631578947368
 40
0.1052631578947368
 40
0.1052631578947368
 40
0.1578947368421053
 40
0.1578947368421053
 40
0.1578947368421053
 40
0.2105263157894737
 40
0.2105263157894737
 40
0.2105263157894737
 40
0.2631578947368421
 40
0.2631578947368421
 40
0.2631578947368421
 40
0.3157894736842105
 40
0.3157894736842105
 40
0.3157894736842105
 40
0.3684210526315789
 40
0.3684210526315789
 40
0.3684210526315789
 40
0.4210526315789473
 40
0.4210526315789473
 40
0.4210526315789473
 40
0.4736842105263158
 40
0.4736842105263158
 40
0.4736842105263158
 40
0.5263157894736842
 40
0.5263157894736842
 40
0.5263157894736842
 40
0.5789473684210527
 40
0.5789473684210527
 40
0.5789473684210527
 40
0.631578947368421
 40
0.631578947368421
 40
0.631578947368421
 40
0.6842105263157894
 40
0.6842105263157894
 40
0.6842105263157894
 40
0.7368421052631579
 40
0.7368421052631579
 40
0.7368421052631579
 40
0.7894736842105263
 40
0.7894736842105263
 40
0.7894736842105263
 40
0.8421052631578947
 40
0.8421052631578947
 40
0.8421052631578947
 40
0.894736842105263
 40
0.894736842105263
 40
0.894736842105263
 40
0.9473684210526315
 40
0.9473684210526315
 40
0.9473684210526315
 40
1.0
 40
1.0
 40
1.0
 40
1.0
 10
286.6178
 20
83.3052
 30
0.0
 10
286.6178
 20
81.4737
 30
0.0
 10
289.4322
 20
81.9959
 30
0.0
 10
290.3489
 20
82.0961
 30
0.0
 10
290.9574
 20
82.1627
 30
0.0
 10
291.5882
 20
82.1332
 30
0.0
 10
291.738
 20
82.6939
 30
0.0
 10
291.5194
 20
82.9922
 30
0.0
 10
289.9868
 20
83.3262
 30
0.0
 10
289.5312
 20
83.4675
 30
0.0
 10
289.3294
 20
83.5302
 30
0.0
 10
288.9121
 20
83.6682
 30
0.0
 10
288.6812
 20
83.6874
 30
0.0
 10
288.7716
 20
84.026
 30
0.0
 10
289.0884
 20
84.2891
 30
0.0
 10
289.5218
 20
84.2987
 30
0.0
 10
289.5513
 20
83.9438
 30
0.0
 10
289.4399
 20
84.1651
 30
0.0
 10
289.6746
 20
83.993
 30
0.0
 10
290.5874
 20
84.4761
 30
0.0
 10
290.098
 20
85.5722
 30
0.0
 10
288.8636
 20
84.5749
 30
0.0
 10
288.6776
 20
84.4247
 30
0.0
 10
288.4339
 20
84.0909
 30
0.0
 10
288.3755
 20
83.8402
 30
0.0
 10
287.9915
 20
83.8402
 30
0.0
 10
288.0334
 20
83.909
 30
0.0
 10
287.6878
 20
83.9167
 30
0.0
 10
287.413
 20
83.3975
 30
0.0
 10
287.1854
 20
83.4193
 30
0.0
 10
289.1987
 20
82.9058
 30
0.0
 10
289.3083
 20
82.8779
 30
0.0
 10
289.4047
 20
82.8677
 30
0.0
 10
289.5817
 20
82.8302
 30
0.0
 10
289.5817
 20
82.8302
 30
0.0
 10
289.9295
 20
82.7195
 30
0.0
 10
289.9295
 20
82.7195
 30
0.0
 10
289.9408
 20
82.7146
 30
0.0
 10
289.9643
 20
82.7041
 30
0.0
 10
289.9803
 20
82.6939
 30
0.0
 10
288.9457
 20
82.6939
 30
0.0
 10
287.0764
 20
82.3232
 30
0.0
 10
287.0764
 20
83.611
 30
0.0
 10
287.0764
 20
84.1693
 30
0.0
 10
287.4526
 20
84.6776
 30
0.0
 10
287.8448
 20
84.9059
 30
0.0
 10
288.1434
 20
85.0797
 30
0.0
 10
288.1855
 20
84.9521
 30
0.0
 10
288.2226
 20
85.2922
 30
0.0
 10
287.8332
 20
85.4724
 30
0.0
 10
287.4078
 20
84.9121
 30
0.0
 10
287.1587
 20
84.675
 30
0.0
 10
287.1587
 20
84.675
 30
0.0
 10
286.9513
 20
84.4237
 30
0.0
 10
286.9513
 20
84.4237
 30
0.0
 10
286.7764
 20
84.1447
 30
0.0
 10
286.6178
 20
83.5754
 30
0.0
 10
286.6178
 20
83.3052
 30
0.0
  0
SPLINE
  5
6F
330
1F
100
AcDbEntity
  8
Layer 1
 62
   250
100
AcDbSpline
210
0.0
220
0.0
230
1.0
 70
    11
 71
     3
 72
    29
 73
    25
 74
     0
 42
0.0000000001
 43
0.0000000001
 40
0.0
 40
0.0
 40
0.0
 40
0.0
 40
0.125
 40
0.125
 40
0.125
 40
0.25
 40
0.25
 40
0.25
 40
0.375
 40
0.375
 40
0.375
 40
0.5
 40
0.5
 40
0.5
 40
0.625
 40
0.625
 40
0.625
 40
0.75
 40
0.75
 40
0.75
 40
0.875
 40
0.875
 40
0.875
 40
1.0
 40
1.0
 40
1.0
 40
1.0
 10
285.1659
 20
85.6743
 30
0.0
 10
285.1659
 20
83.8912
 30
0.0
 10
285.1659
 20
82.108
 30
0.0
 10
285.1659
 20
80.325
 30
0.0
 10
285.1659
 20
78.7411
 30
0.0
 10
285.234
 20
76.3283
 30
0.0
 10
284.0196
 20
76.0454
 30
0.0
 10
284.0196
 20
76.0454
 30
0.0
 10
284.0196
 20
75.8161
 30
0.0
 10
284.0196
 20
75.8161
 30
0.0
 10
285.4387
 20
75.8161
 30
0.0
 10
285.8537
 20
78.3256
 30
0.0
 10
285.8537
 20
79.5607
 30
0.0
 10
285.8537
 20
79.5607
 30
0.0
 10
285.8537
 20
86.0564
 30
0.0
 10
285.8537
 20
86.0564
 30
0.0
 10
285.4849
 20
86.0482
 30
0.0
 10
285.6599
 20
86.0526
 30
0.0
 10
285.4713
 20
85.9038
 30
0.0
 10
285.4698
 20
85.9027
 30
0.0
 10
285.4076
 20
85.8435
 30
0.0
 10
285.3482
 20
85.7978
 30
0.0
 10
285.264
 20
85.733
 30
0.0
 10
285.2323
 20
85.7187
 30
0.0
 10
285.1659
 20
85.6743
 30
0.0
  0
SPLINE
  5
70
330
1F
100
AcDbEntity
  8
Layer 1
 62
   250
100
AcDbSpline
210
0.0
220
0.0
230
1.0
 70
    11
 71
     3
 72
    20
 73
    16
 74
     0
 42
0.0000000001
 43
0.0000000001
 40
0.0
 40
0.0
 40
0.0
 40
0.0
 40
0.2
 40
0.2
 40
0.2
 40
0.4
 40
0.4
 40
0.4
 40
0.6000000000000001
 40
0.6000000000000001
 40
0.6000000000000001
 40
0.8
 40
0.8
 40
0.8
 40
1.0
 40
1.0
 40
1.0
 40
1.0
 10
275.5371
 20
85.063
 30
0.0
 10
275.7755
 20
85.2376
 30
0.0
 10
275.658
 20
85.1668
 30
0.0
 10
275.8593
 20
85.887
 30
0.0
 10
275.8593
 20
85.887
 30
0.0
 10
276.3687
 20
87.6702
 30
0.0
 10
276.3687
 20
87.6702
 30
0.0
 10
276.4443
 20
87.9292
 30
0.0
 10
276.5852
 20
88.3169
 30
0.0
 10
276.6069
 20
88.5782
 30
0.0
 10
276.6069
 20
88.5782
 30
0.0
 10
275.155
 20
88.5782
 30
0.0
 10
275.155
 20
88.5782
 30
0.0
 10
275.2494
 20
88.3816
 30
0.0
 10
275.5371
 20
85.5069
 30
0.0
 10
275.5371
 20
85.063
 30
0.0
  0
SPLINE
  5
71
330
1F
100
AcDbEntity
  8
Layer 1
 62
   250
100
AcDbSpline
210
0.0
220
0.0
230
1.0
 70
    11
 71
     3
 72
    26
 73
    22
 74
     0
 42
0.0000000001
 43
0.0000000001
 40
0.0
 40
0.0
 40
0.0
 40
0.0
 40
0.1428571428571428
 40
0.1428571428571428
 40
0.1428571428571428
 40
0.2857142857142857
 40
0.2857142857142857
 40
0.2857142857142857
 40
0.4285714285714285
 40
0.4285714285714285
 40
0.4285714285714285
 40
0.5714285714285714
 40
0.5714285714285714
 40
0.5714285714285714
 40
0.7142857142857142
 40
0.7142857142857142
 40
0.7142857142857142
 40
0.8571428571428571
 40
0.8571428571428571
 40
0.8571428571428571
 40
1.0
 40
1.0
 40
1.0
 40
1.0
 10
274.6201
 20
85.063
 30
0.0
 10
274.6201
 20
85.9507
 30
0.0
 10
275.0021
 20
87.6998
 30
0.0
 10
275.0021
 20
88.5782
 30
0.0
 10
275.0021
 20
88.5782
 30
0.0
 10
273.5502
 20
88.5782
 30
0.0
 10
273.5502
 20
88.5782
 30
0.0
 10
273.5502
 20
88.5782
 30
0.0
 10
274.0686
 20
86.8041
 30
0.0
 10
274.0686
 20
86.8041
 30
0.0
 10
274.1606
 20
86.4764
 30
0.0
 10
274.2313
 20
86.2293
 30
0.0
 10
274.3234
 20
85.9126
 30
0.0
 10
274.3234
 20
85.9126
 30
0.0
 10
274.5643
 20
85.16
 30
0.0
 10
274.5643
 20
85.16
 30
0.0
 10
274.5709
 20
85.1468
 30
0.0
 10
274.5865
 20
85.1217
 30
0.0
 10
274.592
 20
85.1113
 30
0.0
 10
274.5975
 20
85.1008
 30
0.0
 10
274.6094
 20
85.0782
 30
0.0
 10
274.6201
 20
85.063
 30
0.0
  0
SPLINE
  5
72
330
1F
100
AcDbEntity
  8
Layer 1
 62
   250
100
AcDbSpline
210
0.0
220
0.0
230
1.0
 70
    11
 71
     3
 72
    20
 73
    16
 74
     0
 42
0.0000000001
 43
0.0000000001
 40
0.0
 40
0.0
 40
0.0
 40
0.0
 40
0.2
 40
0.2
 40
0.2
 40
0.4
 40
0.4
 40
0.4
 40
0.6000000000000001
 40
0.6000000000000001
 40
0.6000000000000001
 40
0.8
 40
0.8
 40
0.8
 40
1.0
 40
1.0
 40
1.0
 40
1.0
 10
274.0087
 20
90.1067
 30
0.0
 10
274.1639
 20
89.8749
 30
0.0
 10
274.3256
 20
89.7799
 30
0.0
 10
274.5114
 20
89.5395
 30
0.0
 10
274.7022
 20
89.2925
 30
0.0
 10
274.8367
 20
89.1223
 30
0.0
 10
275.0786
 20
88.9604
 30
0.0
 10
275.3828
 20
89.1641
 30
0.0
 10
276.0467
 20
89.8022
 30
0.0
 10
276.1484
 20
90.183
 30
0.0
 10
275.7341
 20
90.4023
 30
0.0
 10
275.4929
 20
90.6517
 30
0.0
 10
275.0786
 20
90.8708
 30
0.0
 10
275.0786
 20
90.8708
 30
0.0
 10
274.0087
 20
90.1067
 30
0.0
 10
274.0087
 20
90.1067
 30
0.0
  0
SPLINE
  5
73
330
1F
100
AcDbEntity
  8
Layer 1
 62
   250
100
AcDbSpline
210
0.0
220
0.0
230
1.0
 70
    11
 71
     3
 72
    23
 73
    19
 74
     0
 42
0.0000000001
 43
0.0000000001
 40
0.0
 40
0.0
 40
0.0
 40
0.0
 40
0.1666666666666667
 40
0.1666666666666667
 40
0.1666666666666667
 40
0.3333333333333333
 40
0.3333333333333333
 40
0.3333333333333333
 40
0.5
 40
0.5
 40
0.5
 40
0.6666666666666666
 40
0.6666666666666666
 40
0.6666666666666666
 40
0.8333333333333333
 40
0.8333333333333333
 40
0.8333333333333333
 40
1.0
 40
1.0
 40
1.0
 40
1.0
 10
279.893
 20
71.5366
 30
0.0
 10
279.6544
 20
71.8928
 30
0.0
 10
279.8571
 20
72.225
 30
0.0
 10
280.1987
 20
72.4537
 30
0.0
 10
280.3828
 20
72.3304
 30
0.0
 10
280.7336
 20
72.0552
 30
0.0
 10
280.7336
 20
71.7659
 30
0.0
 10
280.7336
 20
71.4737
 30
0.0
 10
280.757
 20
71.7381
 30
0.0
 10
280.6572
 20
71.5366
 30
0.0
 10
280.4549
 20
71.6183
 30
0.0
 10
280.5146
 20
71.3794
 30
0.0
 10
280.5043
 20
71.8423
 30
0.0
 10
280.5043
 20
71.8423
 30
0.0
 10
280.0458
 20
71.8423
 30
0.0
 10
280.0458
 20
71.8423
 30
0.0
 10
280.0174
 20
71.5009
 30
0.0
 10
280.1294
 20
71.7009
 30
0.0
 10
279.893
 20
71.5366
 30
0.0
  0
SPLINE
  5
74
330
1F
100
AcDbEntity
  8
Layer 1
 62
   250
100
AcDbSpline
210
0.0
220
0.0
230
1.0
 70
    11
 71
     3
 72
    26
 73
    22
 74
     0
 42
0.0000000001
 43
0.0000000001
 40
0.0
 40
0.0
 40
0.0
 40
0.0
 40
0.1428571428571428
 40
0.1428571428571428
 40
0.1428571428571428
 40
0.2857142857142857
 40
0.2857142857142857
 40
0.2857142857142857
 40
0.4285714285714285
 40
0.4285714285714285
 40
0.4285714285714285
 40
0.5714285714285714
 40
0.5714285714285714
 40
0.5714285714285714
 40
0.7142857142857142
 40
0.7142857142857142
 40
0.7142857142857142
 40
0.8571428571428571
 40
0.8571428571428571
 40
0.8571428571428571
 40
1.0
 40
1.0
 40
1.0
 40
1.0
 10
279.358
 20
71.8423
 30
0.0
 10
279.358
 20
70.8585
 30
0.0
 10
279.77
 20
71.1326
 30
0.0
 10
280.1987
 20
71.1326
 30
0.0
 10
280.1991
 20
71.1326
 30
0.0
 10
281.1921
 20
70.9213
 30
0.0
 10
281.1921
 20
71.5366
 30
0.0
 10
281.1921
 20
71.9876
 30
0.0
 10
281.0315
 20
72.201
 30
0.0
 10
280.793
 20
72.4366
 30
0.0
 10
280.5647
 20
72.6619
 30
0.0
 10
280.3751
 20
72.9771
 30
0.0
 10
280.0458
 20
73.065
 30
0.0
 10
279.9033
 20
72.9696
 30
0.0
 10
280.0535
 20
73.1408
 30
0.0
 10
279.9199
 20
72.962
 30
0.0
 10
279.8323
 20
72.8448
 30
0.0
 10
279.8982
 20
72.948
 30
0.0
 10
279.8567
 20
72.8374
 30
0.0
 10
279.6309
 20
72.2346
 30
0.0
 10
279.358
 20
72.3016
 30
0.0
 10
279.358
 20
71.8423
 30
0.0
  0
SPLINE
  5
75
330
1F
100
AcDbEntity
  8
Layer 1
 62
   250
100
AcDbSpline
210
0.0
220
0.0
230
1.0
 70
    11
 71
     3
 72
    23
 73
    19
 74
     0
 42
0.0000000001
 43
0.0000000001
 40
0.0
 40
0.0
 40
0.0
 40
0.0
 40
0.1666666666666667
 40
0.1666666666666667
 40
0.1666666666666667
 40
0.3333333333333333
 40
0.3333333333333333
 40
0.3333333333333333
 40
0.5
 40
0.5
 40
0.5
 40
0.6666666666666666
 40
0.6666666666666666
 40
0.6666666666666666
 40
0.8333333333333333
 40
0.8333333333333333
 40
0.8333333333333333
 40
1.0
 40
1.0
 40
1.0
 40
1.0
 10
285.7773
 20
71.5366
 30
0.0
 10
285.5388
 20
71.8928
 30
0.0
 10
285.7414
 20
72.225
 30
0.0
 10
286.083
 20
72.4537
 30
0.0
 10
286.2671
 20
72.3304
 30
0.0
 10
286.6178
 20
72.0552
 30
0.0
 10
286.6178
 20
71.7659
 30
0.0
 10
286.6178
 20
71.4737
 30
0.0
 10
286.6413
 20
71.7381
 30
0.0
 10
286.5415
 20
71.5366
 30
0.0
 10
286.3391
 20
71.6183
 30
0.0
 10
286.399
 20
71.3794
 30
0.0
 10
286.3886
 20
71.8423
 30
0.0
 10
286.3886
 20
71.8423
 30
0.0
 10
285.9301
 20
71.8423
 30
0.0
 10
285.9301
 20
71.8423
 30
0.0
 10
285.9017
 20
71.5009
 30
0.0
 10
286.0137
 20
71.7009
 30
0.0
 10
285.7773
 20
71.5366
 30
0.0
  0
SPLINE
  5
76
330
1F
100
AcDbEntity
  8
Layer 1
 62
   250
100
AcDbSpline
210
0.0
220
0.0
230
1.0
 70
    11
 71
     3
 72
    20
 73
    16
 74
     0
 42
0.0000000001
 43
0.0000000001
 40
0.0
 40
0.0
 40
0.0
 40
0.0
 40
0.2
 40
0.2
 40
0.2
 40
0.4
 40
0.4
 40
0.4
 40
0.6000000000000001
 40
0.6000000000000001
 40
0.6000000000000001
 40
0.8
 40
0.8
 40
0.8
 40
1.0
 40
1.0
 40
1.0
 40
1.0
 10
285.2423
 20
71.8423
 30
0.0
 10
285.2423
 20
70.8585
 30
0.0
 10
285.6542
 20
71.1326
 30
0.0
 10
286.083
 20
71.1326
 30
0.0
 10
286.0834
 20
71.1326
 30
0.0
 10
287.0764
 20
70.9213
 30
0.0
 10
287.0764
 20
71.5366
 30
0.0
 10
287.0764
 20
72.2644
 30
0.0
 10
286.199
 20
72.9932
 30
0.0
 10
285.9301
 20
73.065
 30
0.0
 10
285.8638
 20
73.0207
 30
0.0
 10
285.8347
 20
73.0876
 30
0.0
 10
285.7411
 20
72.8374
 30
0.0
 10
285.5151
 20
72.2346
 30
0.0
 10
285.2423
 20
72.3016
 30
0.0
 10
285.2423
 20
71.8423
 30
0.0
  0
SPLINE
  5
77
330
1F
100
AcDbEntity
  8
Layer 1
 62
   250
100
AcDbSpline
210
0.0
220
0.0
230
1.0
 70
    11
 71
     3
 72
    17
 73
    13
 74
     0
 42
0.0000000001
 43
0.0000000001
 40
0.0
 40
0.0
 40
0.0
 40
0.0
 40
0.25
 40
0.25
 40
0.25
 40
0.5
 40
0.5
 40
0.5
 40
0.75
 40
0.75
 40
0.75
 40
1.0
 40
1.0
 40
1.0
 40
1.0
 10
275.0786
 20
82.7704
 30
0.0
 10
275.0786
 20
82.7704
 30
0.0
 10
275.4607
 20
84.4515
 30
0.0
 10
275.4607
 20
84.4515
 30
0.0
 10
275.4607
 20
85.6015
 30
0.0
 10
275.155
 20
86.6398
 30
0.0
 10
275.155
 20
87.8141
 30
0.0
 10
274.9752
 20
87.5553
 30
0.0
 10
274.9586
 20
87.0407
 30
0.0
 10
274.9284
 20
86.5887
 30
0.0
 10
274.7741
 20
84.2829
 30
0.0
 10
274.4967
 20
85.268
 30
0.0
 10
275.0786
 20
82.7704
 30
0.0
  0
SPLINE
  5
78
330
1F
100
AcDbEntity
  8
Layer 1
 62
   250
100
AcDbSpline
210
0.0
220
0.0
230
1.0
 70
    11
 71
     3
 72
    23
 73
    19
 74
     0
 42
0.0000000001
 43
0.0000000001
 40
0.0
 40
0.0
 40
0.0
 40
0.0
 40
0.1666666666666667
 40
0.1666666666666667
 40
0.1666666666666667
 40
0.3333333333333333
 40
0.3333333333333333
 40
0.3333333333333333
 40
0.5
 40
0.5
 40
0.5
 40
0.6666666666666666
 40
0.6666666666666666
 40
0.6666666666666666
 40
0.8333333333333333
 40
0.8333333333333333
 40
0.8333333333333333
 40
1.0
 40
1.0
 40
1.0
 40
1.0
 10
274.3144
 20
85.2922
 30
0.0
 10
274.2941
 20
85.5349
 30
0.0
 10
274.186
 20
85.8266
 30
0.0
 10
274.1117
 20
86.083
 30
0.0
 10
274.0252
 20
86.3818
 30
0.0
 10
273.9427
 20
86.6635
 30
0.0
 10
273.8725
 20
86.9136
 30
0.0
 10
273.7141
 20
87.4771
 30
0.0
 10
273.5237
 20
88.0359
 30
0.0
 10
273.3973
 20
88.5782
 30
0.0
 10
273.3973
 20
88.5782
 30
0.0
 10
272.251
 20
88.5782
 30
0.0
 10
272.251
 20
88.5782
 30
0.0
 10
272.5599
 20
87.9945
 30
0.0
 10
272.9238
 20
87.5022
 30
0.0
 10
273.2692
 20
86.9217
 30
0.0
 10
273.4333
 20
86.6459
 30
0.0
 10
274.1563
 20
85.408
 30
0.0
 10
274.3144
 20
85.2922
 30
0.0
  0
SPLINE
  5
79
330
1F
100
AcDbEntity
  8
Layer 1
 62
   250
100
AcDbSpline
210
0.0
220
0.0
230
1.0
 70
    11
 71
     3
 72
    20
 73
    16
 74
     0
 42
0.0000000001
 43
0.0000000001
 40
0.0
 40
0.0
 40
0.0
 40
0.0
 40
0.2
 40
0.2
 40
0.2
 40
0.4
 40
0.4
 40
0.4
 40
0.6000000000000001
 40
0.6000000000000001
 40
0.6000000000000001
 40
0.8
 40
0.8
 40
0.8
 40
1.0
 40
1.0
 40
1.0
 40
1.0
 10
275.9192
 20
85.3686
 30
0.0
 10
276.1065
 20
85.5059
 30
0.0
 10
276.2924
 20
85.9148
 30
0.0
 10
276.4392
 20
86.1477
 30
0.0
 10
276.4392
 20
86.1477
 30
0.0
 10
277.4327
 20
87.7524
 30
0.0
 10
277.4327
 20
87.7524
 30
0.0
 10
277.5795
 20
87.9856
 30
0.0
 10
277.836
 20
88.3159
 30
0.0
 10
277.9061
 20
88.5782
 30
0.0
 10
277.9061
 20
88.5782
 30
0.0
 10
276.7598
 20
88.5782
 30
0.0
 10
276.7598
 20
88.5782
 30
0.0
 10
276.7178
 20
88.0731
 30
0.0
 10
275.9302
 20
85.8637
 30
0.0
 10
275.9192
 20
85.3686
 30
0.0
  0
SPLINE
  5
7A
330
1F
100
AcDbEntity
  8
Layer 1
 62
   250
100
AcDbSpline
210
0.0
220
0.0
230
1.0
 70
    11
 71
     3
 72
    29
 73
    25
 74
     0
 42
0.0000000001
 43
0.0000000001
 40
0.0
 40
0.0
 40
0.0
 40
0.0
 40
0.125
 40
0.125
 40
0.125
 40
0.25
 40
0.25
 40
0.25
 40
0.375
 40
0.375
 40
0.375
 40
0.5
 40
0.5
 40
0.5
 40
0.625
 40
0.625
 40
0.625
 40
0.75
 40
0.75
 40
0.75
 40
0.875
 40
0.875
 40
0.875
 40
1.0
 40
1.0
 40
1.0
 40
1.0
 10
295.5589
 20
80.4778
 30
0.0
 10
296.0012
 20
80.3747
 30
0.0
 10
296.0142
 20
80.1781
 30
0.0
 10
296.3231
 20
80.0957
 30
0.0
 10
296.3231
 20
80.0957
 30
0.0
 10
296.7674
 20
80.4927
 30
0.0
 10
296.7674
 20
80.4927
 30
0.0
 10
296.9491
 20
80.3322
 30
0.0
 10
297.0698
 20
80.1615
 30
0.0
 10
297.3166
 20
80.0957
 30
0.0
 10
297.5775
 20
80.2704
 30
0.0
 10
297.5407
 20
80.2806
 30
0.0
 10
297.6222
 20
80.6306
 30
0.0
 10
297.2839
 20
80.9872
 30
0.0
 10
297.0376
 20
81.0106
 30
0.0
 10
296.8571
 20
81.1646
 30
0.0
 10
296.636
 20
81.353
 30
0.0
 10
296.7659
 20
81.378
 30
0.0
 10
296.1703
 20
81.7769
 30
0.0
 10
295.5361
 20
81.3523
 30
0.0
 10
295.9426
 20
81.2795
 30
0.0
 10
295.8446
 20
81.0876
 30
0.0
 10
295.7712
 20
80.9441
 30
0.0
 10
295.5692
 20
80.9361
 30
0.0
 10
295.5589
 20
80.4778
 30
0.0
  0
SPLINE
  5
7B
330
1F
100
AcDbEntity
  8
Layer 1
 62
   250
100
AcDbSpline
210
0.0
220
0.0
230
1.0
 70
    11
 71
     3
 72
    17
 73
    13
 74
     0
 42
0.0000000001
 43
0.0000000001
 40
0.0
 40
0.0
 40
0.0
 40
0.0
 40
0.25
 40
0.25
 40
0.25
 40
0.5
 40
0.5
 40
0.5
 40
0.75
 40
0.75
 40
0.75
 40
1.0
 40
1.0
 40
1.0
 40
1.0
 10
277.0655
 20
85.5978
 30
0.0
 10
277.281
 20
85.7422
 30
0.0
 10
279.0208
 20
88.1888
 30
0.0
 10
279.2817
 20
88.5782
 30
0.0
 10
279.2817
 20
88.5782
 30
0.0
 10
278.1354
 20
88.5782
 30
0.0
 10
278.1354
 20
88.5782
 30
0.0
 10
278.1094
 20
88.2667
 30
0.0
 10
277.7262
 20
87.4026
 30
0.0
 10
277.6113
 20
87.1154
 30
0.0
 10
277.4666
 20
86.7531
 30
0.0
 10
277.0963
 20
85.9682
 30
0.0
 10
277.0655
 20
85.5978
 30
0.0
  0
SPLINE
  5
7C
330
1F
100
AcDbEntity
  8
Layer 1
 62
   250
100
AcDbSpline
210
0.0
220
0.0
230
1.0
 70
    11
 71
     3
 72
    23
 73
    19
 74
     0
 42
0.0000000001
 43
0.0000000001
 40
0.0
 40
0.0
 40
0.0
 40
0.0
 40
0.1666666666666667
 40
0.1666666666666667
 40
0.1666666666666667
 40
0.3333333333333333
 40
0.3333333333333333
 40
0.3333333333333333
 40
0.5
 40
0.5
 40
0.5
 40
0.6666666666666666
 40
0.6666666666666666
 40
0.6666666666666666
 40
0.8333333333333333
 40
0.8333333333333333
 40
0.8333333333333333
 40
1.0
 40
1.0
 40
1.0
 40
1.0
 10
275.3078
 20
83.1524
 30
0.0
 10
275.6527
 20
83.4052
 30
0.0
 10
276.4845
 20
84.7107
 30
0.0
 10
276.6618
 20
85.161
 30
0.0
 10
276.8309
 20
85.5906
 30
0.0
 10
276.985
 20
85.9604
 30
0.0
 10
277.133
 20
86.371
 30
0.0
 10
277.2698
 20
86.7509
 30
0.0
 10
277.5151
 20
87.2186
 30
0.0
 10
277.6004
 20
87.5848
 30
0.0
 10
277.4167
 20
87.4502
 30
0.0
 10
277.0876
 20
86.8239
 30
0.0
 10
276.9275
 20
86.5764
 30
0.0
 10
276.9275
 20
86.5764
 30
0.0
 10
275.6499
 20
84.4916
 30
0.0
 10
275.6499
 20
84.4916
 30
0.0
 10
275.4923
 20
84.1595
 30
0.0
 10
275.3971
 20
83.5358
 30
0.0
 10
275.3078
 20
83.1524
 30
0.0
  0
SPLINE
  5
7D
330
1F
100
AcDbEntity
  8
Layer 1
 62
   250
100
AcDbSpline
210
0.0
220
0.0
230
1.0
 70
    11
 71
     3
 72
    20
 73
    16
 74
     0
 42
0.0000000001
 43
0.0000000001
 40
0.0
 40
0.0
 40
0.0
 40
0.0
 40
0.2
 40
0.2
 40
0.2
 40
0.4
 40
0.4
 40
0.4
 40
0.6000000000000001
 40
0.6000000000000001
 40
0.6000000000000001
 40
0.8
 40
0.8
 40
0.8
 40
1.0
 40
1.0
 40
1.0
 40
1.0
 10
272.6332
 20
87.5084
 30
0.0
 10
272.6332
 20
87.5084
 30
0.0
 10
273.5383
 20
85.1275
 30
0.0
 10
273.5383
 20
85.1275
 30
0.0
 10
273.7309
 20
84.6426
 30
0.0
 10
274.2921
 20
83.8529
 30
0.0
 10
274.6405
 20
83.4021
 30
0.0
 10
274.7155
 20
83.3052
 30
0.0
 10
274.7817
 20
83.2302
 30
0.0
 10
274.8493
 20
83.1524
 30
0.0
 10
274.824
 20
84.2926
 30
0.0
 10
273.947
 20
85.507
 30
0.0
 10
273.306
 20
86.5
 30
0.0
 10
273.1464
 20
86.7472
 30
0.0
 10
272.8165
 20
87.3741
 30
0.0
 10
272.6332
 20
87.5084
 30
0.0
  0
SPLINE
  5
7E
330
1F
100
AcDbEntity
  8
Layer 1
 62
   250
100
AcDbSpline
210
0.0
220
0.0
230
1.0
 70
    11
 71
     3
 72
    14
 73
    10
 74
     0
 42
0.0000000001
 43
0.0000000001
 40
0.0
 40
0.0
 40
0.0
 40
0.0
 40
0.3333333333333333
 40
0.3333333333333333
 40
0.3333333333333333
 40
0.6666666666666666
 40
0.6666666666666666
 40
0.6666666666666666
 40
1.0
 40
1.0
 40
1.0
 40
1.0
 10
273.1681
 20
85.5215
 30
0.0
 10
273.1355
 20
85.9132
 30
0.0
 10
272.137
 20
88.0837
 30
0.0
 10
272.0218
 20
88.5782
 30
0.0
 10
272.0218
 20
88.5782
 30
0.0
 10
270.9519
 20
88.5782
 30
0.0
 10
270.9519
 20
88.5782
 30
0.0
 10
270.9519
 20
88.5782
 30
0.0
 10
273.1681
 20
85.5215
 30
0.0
 10
273.1681
 20
85.5215
 30
0.0
  0
SPLINE
  5
7F
330
1F
100
AcDbEntity
  8
Layer 1
 62
   250
100
AcDbSpline
210
0.0
220
0.0
230
1.0
 70
    11
 71
     3
 72
    35
 73
    31
 74
     0
 42
0.0000000001
 43
0.0000000001
 40
0.0
 40
0.0
 40
0.0
 40
0.0
 40
0.1
 40
0.1
 40
0.1
 40
0.2
 40
0.2
 40
0.2
 40
0.3
 40
0.3
 40
0.3
 40
0.4
 40
0.4
 40
0.4
 40
0.5
 40
0.5
 40
0.5
 40
0.6000000000000001
 40
0.6000000000000001
 40
0.6000000000000001
 40
0.7000000000000001
 40
0.7000000000000001
 40
0.7000000000000001
 40
0.8
 40
0.8
 40
0.8
 40
0.9
 40
0.9
 40
0.9
 40
1.0
 40
1.0
 40
1.0
 40
1.0
 10
292.12
 20
72.148
 30
0.0
 10
292.12
 20
72.148
 30
0.0
 10
292.12
 20
71.1546
 30
0.0
 10
292.12
 20
71.1546
 30
0.0
 10
292.12
 20
71.1546
 30
0.0
 10
292.5022
 20
71.1546
 30
0.0
 10
292.5022
 20
71.1546
 30
0.0
 10
292.5022
 20
71.1546
 30
0.0
 10
292.5022
 20
72.0716
 30
0.0
 10
292.5022
 20
72.0716
 30
0.0
 10
293.2864
 20
72.0063
 30
0.0
 10
292.4675
 20
71.8906
 30
0.0
 10
293.572
 20
72.148
 30
0.0
 10
293.5549
 20
72.3543
 30
0.0
 10
293.5362
 20
72.3558
 30
0.0
 10
293.4956
 20
72.5301
 30
0.0
 10
293.0983
 20
72.4375
 30
0.0
 10
292.9873
 20
72.2204
 30
0.0
 10
292.8842
 20
72.6065
 30
0.0
 10
293.343
 20
72.8266
 30
0.0
 10
293.367
 20
72.4364
 30
0.0
 10
293.4956
 20
72.9886
 30
0.0
 10
293.3434
 20
73.0741
 30
0.0
 10
292.7105
 20
73.2492
 30
0.0
 10
292.5785
 20
72.6829
 30
0.0
 10
292.3566
 20
72.8456
 30
0.0
 10
292.4345
 20
72.6723
 30
0.0
 10
292.4257
 20
73.065
 30
0.0
 10
291.7174
 20
73.0061
 30
0.0
 10
292.12
 20
72.7774
 30
0.0
 10
292.12
 20
72.148
 30
0.0
  0
SPLINE
  5
80
330
1F
100
AcDbEntity
  8
Layer 1
 62
   250
100
AcDbSpline
210
0.0
220
0.0
230
1.0
 70
    11
 71
     3
 72
    35
 73
    31
 74
     0
 42
0.0000000001
 43
0.0000000001
 40
0.0
 40
0.0
 40
0.0
 40
0.0
 40
0.1
 40
0.1
 40
0.1
 40
0.2
 40
0.2
 40
0.2
 40
0.3
 40
0.3
 40
0.3
 40
0.4
 40
0.4
 40
0.4
 40
0.5
 40
0.5
 40
0.5
 40
0.6000000000000001
 40
0.6000000000000001
 40
0.6000000000000001
 40
0.7000000000000001
 40
0.7000000000000001
 40
0.7000000000000001
 40
0.8
 40
0.8
 40
0.8
 40
0.9
 40
0.9
 40
0.9
 40
1.0
 40
1.0
 40
1.0
 40
1.0
 10
283.4847
 20
72.148
 30
0.0
 10
283.4847
 20
72.148
 30
0.0
 10
283.4847
 20
71.1546
 30
0.0
 10
283.4847
 20
71.1546
 30
0.0
 10
283.4847
 20
71.1546
 30
0.0
 10
283.8668
 20
71.1546
 30
0.0
 10
283.8668
 20
71.1546
 30
0.0
 10
283.8668
 20
71.1546
 30
0.0
 10
283.8668
 20
72.0716
 30
0.0
 10
283.8668
 20
72.0716
 30
0.0
 10
284.6511
 20
72.0063
 30
0.0
 10
283.8322
 20
71.8906
 30
0.0
 10
284.9367
 20
72.148
 30
0.0
 10
284.9195
 20
72.3543
 30
0.0
 10
284.9008
 20
72.3558
 30
0.0
 10
284.8602
 20
72.5301
 30
0.0
 10
284.4629
 20
72.4375
 30
0.0
 10
284.352
 20
72.2204
 30
0.0
 10
284.2489
 20
72.6065
 30
0.0
 10
284.7077
 20
72.8266
 30
0.0
 10
284.7316
 20
72.4364
 30
0.0
 10
284.8602
 20
72.9886
 30
0.0
 10
284.708
 20
73.0741
 30
0.0
 10
284.0752
 20
73.2492
 30
0.0
 10
283.9432
 20
72.6829
 30
0.0
 10
283.7212
 20
72.8456
 30
0.0
 10
283.7991
 20
72.6723
 30
0.0
 10
283.7904
 20
73.065
 30
0.0
 10
283.082
 20
73.0061
 30
0.0
 10
283.4847
 20
72.7774
 30
0.0
 10
283.4847
 20
72.148
 30
0.0
  0
SPLINE
  5
81
330
1F
100
AcDbEntity
  8
Layer 1
 62
   250
100
AcDbSpline
210
0.0
220
0.0
230
1.0
 70
    11
 71
     3
 72
    14
 73
    10
 74
     0
 42
0.0000000001
 43
0.0000000001
 40
0.0
 40
0.0
 40
0.0
 40
0.0
 40
0.3333333333333333
 40
0.3333333333333333
 40
0.3333333333333333
 40
0.6666666666666666
 40
0.6666666666666666
 40
0.6666666666666666
 40
1.0
 40
1.0
 40
1.0
 40
1.0
 10
276.6069
 20
90.0302
 30
0.0
 10
276.9045
 20
89.9508
 30
0.0
 10
277.7376
 20
89.1756
 30
0.0
 10
278.0589
 20
88.9604
 30
0.0
 10
278.0589
 20
90.0627
 30
0.0
 10
278.2314
 20
90.3971
 30
0.0
 10
277.524
 20
90.8708
 30
0.0
 10
277.1305
 20
90.5288
 30
0.0
 10
276.6852
 20
90.3232
 30
0.0
 10
276.6069
 20
90.0302
 30
0.0
  0
SPLINE
  5
82
330
1F
100
AcDbEntity
  8
Layer 1
 62
   250
100
AcDbSpline
210
0.0
220
0.0
230
1.0
 70
    11
 71
     3
 72
    20
 73
    16
 74
     0
 42
0.0000000001
 43
0.0000000001
 40
0.0
 40
0.0
 40
0.0
 40
0.0
 40
0.2
 40
0.2
 40
0.2
 40
0.4
 40
0.4
 40
0.4
 40
0.6000000000000001
 40
0.6000000000000001
 40
0.6000000000000001
 40
0.8
 40
0.8
 40
0.8
 40
1.0
 40
1.0
 40
1.0
 40
1.0
 10
272.0982
 20
89.0367
 30
0.0
 10
272.4235
 20
89.1126
 30
0.0
 10
272.6127
 20
89.3476
 30
0.0
 10
272.884
 20
89.5501
 30
0.0
 10
273.1553
 20
89.7526
 30
0.0
 10
273.4537
 20
89.9248
 30
0.0
 10
273.6266
 20
90.183
 30
0.0
 10
273.2593
 20
90.2812
 30
0.0
 10
272.924
 20
90.7728
 30
0.0
 10
272.5567
 20
90.8708
 30
0.0
 10
272.1928
 20
90.3274
 30
0.0
 10
272.212
 20
90.5536
 30
0.0
 10
272.1717
 20
90.1097
 30
0.0
 10
272.1364
 20
89.7218
 30
0.0
 10
272.0982
 20
89.4742
 30
0.0
 10
272.0982
 20
89.0367
 30
0.0
  0
SPLINE
  5
83
330
1F
100
AcDbEntity
  8
Layer 1
 62
   250
100
AcDbSpline
210
0.0
220
0.0
230
1.0
 70
    11
 71
     3
 72
    26
 73
    22
 74
     0
 42
0.0000000001
 43
0.0000000001
 40
0.0
 40
0.0
 40
0.0
 40
0.0
 40
0.1428571428571428
 40
0.1428571428571428
 40
0.1428571428571428
 40
0.2857142857142857
 40
0.2857142857142857
 40
0.2857142857142857
 40
0.4285714285714285
 40
0.4285714285714285
 40
0.4285714285714285
 40
0.5714285714285714
 40
0.5714285714285714
 40
0.5714285714285714
 40
0.7142857142857142
 40
0.7142857142857142
 40
0.7142857142857142
 40
0.8571428571428571
 40
0.8571428571428571
 40
0.8571428571428571
 40
1.0
 40
1.0
 40
1.0
 40
1.0
 10
274.6994
 20
72.9793
 30
0.0
 10
274.821
 20
72.4543
 30
0.0
 10
275.016
 20
72.5478
 30
0.0
 10
275.2695
 20
71.4983
 30
0.0
 10
275.3503
 20
71.1638
 30
0.0
 10
275.3137
 20
71.1629
 30
0.0
 10
275.6899
 20
71.1546
 30
0.0
 10
275.7638
 20
72.0431
 30
0.0
 10
276.2964
 20
72.6399
 30
0.0
 10
276.3777
 20
72.9886
 30
0.0
 10
276.3777
 20
72.9886
 30
0.0
 10
276.075
 20
73.0744
 30
0.0
 10
276.075
 20
73.0744
 30
0.0
 10
275.7482
 20
72.8278
 30
0.0
 10
275.7406
 20
72.2767
 30
0.0
 10
275.4607
 20
72.0716
 30
0.0
 10
275.43
 20
72.4402
 30
0.0
 10
275.232
 20
72.8966
 30
0.0
 10
275.0021
 20
73.065
 30
0.0
 10
275.0021
 20
73.065
 30
0.0
 10
274.6994
 20
72.9793
 30
0.0
 10
274.6994
 20
72.9793
 30
0.0
  0
SPLINE
  5
84
330
1F
100
AcDbEntity
  8
Layer 1
 62
   250
100
AcDbSpline
210
0.0
220
0.0
230
1.0
 70
    11
 71
     3
 72
    29
 73
    25
 74
     0
 42
0.0000000001
 43
0.0000000001
 40
0.0
 40
0.0
 40
0.0
 40
0.0
 40
0.125
 40
0.125
 40
0.125
 40
0.25
 40
0.25
 40
0.25
 40
0.375
 40
0.375
 40
0.375
 40
0.5
 40
0.5
 40
0.5
 40
0.625
 40
0.625
 40
0.625
 40
0.75
 40
0.75
 40
0.75
 40
0.875
 40
0.875
 40
0.875
 40
1.0
 40
1.0
 40
1.0
 40
1.0
 10
281.7271
 20
71.1546
 30
0.0
 10
281.7271
 20
71.1546
 30
0.0
 10
282.1091
 20
71.1546
 30
0.0
 10
282.1091
 20
71.1546
 30
0.0
 10
282.1091
 20
72.6671
 30
0.0
 10
282.0947
 20
71.7223
 30
0.0
 10
282.614
 20
72.0964
 30
0.0
 10
282.9007
 20
72.3028
 30
0.0
 10
282.7675
 20
72.6538
 30
0.0
 10
282.7075
 20
73.0628
 30
0.0
 10
282.0618
 20
73.0504
 30
0.0
 10
282.492
 20
72.8566
 30
0.0
 10
282.262
 20
72.3772
 30
0.0
 10
282.0143
 20
72.5587
 30
0.0
 10
282.0357
 20
72.7243
 30
0.0
 10
281.9563
 20
73.065
 30
0.0
 10
281.6557
 20
73.0583
 30
0.0
 10
281.6169
 20
73.1378
 30
0.0
 10
281.5939
 20
72.8573
 30
0.0
 10
281.5932
 20
72.8485
 30
0.0
 10
281.6429
 20
72.4403
 30
0.0
 10
281.657
 20
72.3085
 30
0.0
 10
281.6994
 20
71.9109
 30
0.0
 10
281.7271
 20
71.6527
 30
0.0
 10
281.7271
 20
71.1546
 30
0.0
  0
SPLINE
  5
85
330
1F
100
AcDbEntity
  8
Layer 1
 62
   250
100
AcDbSpline
210
0.0
220
0.0
230
1.0
 70
    11
 71
     3
 72
    26
 73
    22
 74
     0
 42
0.0000000001
 43
0.0000000001
 40
0.0
 40
0.0
 40
0.0
 40
0.0
 40
0.1428571428571428
 40
0.1428571428571428
 40
0.1428571428571428
 40
0.2857142857142857
 40
0.2857142857142857
 40
0.2857142857142857
 40
0.4285714285714285
 40
0.4285714285714285
 40
0.4285714285714285
 40
0.5714285714285714
 40
0.5714285714285714
 40
0.5714285714285714
 40
0.7142857142857142
 40
0.7142857142857142
 40
0.7142857142857142
 40
0.8571428571428571
 40
0.8571428571428571
 40
0.8571428571428571
 40
1.0
 40
1.0
 40
1.0
 40
1.0
 10
290.3624
 20
71.1546
 30
0.0
 10
290.3624
 20
71.1546
 30
0.0
 10
290.7445
 20
71.1546
 30
0.0
 10
290.7445
 20
71.1546
 30
0.0
 10
290.7445
 20
71.3342
 30
0.0
 10
290.7338
 20
71.5291
 30
0.0
 10
290.736
 20
71.7041
 30
0.0
 10
290.7424
 20
72.2398
 30
0.0
 10
290.774
 20
71.9969
 30
0.0
 10
290.8608
 20
72.0198
 30
0.0
 10
291.3277
 20
72.1429
 30
0.0
 10
291.5126
 20
71.9069
 30
0.0
 10
291.3428
 20
73.0628
 30
0.0
 10
290.6972
 20
73.0504
 30
0.0
 10
291.1274
 20
72.8566
 30
0.0
 10
290.8974
 20
72.3772
 30
0.0
 10
290.6496
 20
72.5587
 30
0.0
 10
290.6711
 20
72.7243
 30
0.0
 10
290.5917
 20
73.065
 30
0.0
 10
289.9309
 20
73.0503
 30
0.0
 10
290.3624
 20
72.9935
 30
0.0
 10
290.3624
 20
71.1546
 30
0.0
  0
SPLINE
  5
86
330
1F
100
AcDbEntity
  8
Layer 1
 62
   250
100
AcDbSpline
210
0.0
220
0.0
230
1.0
 70
    11
 71
     3
 72
    14
 73
    10
 74
     0
 42
0.0000000001
 43
0.0000000001
 40
0.0
 40
0.0
 40
0.0
 40
0.0
 40
0.3333333333333333
 40
0.3333333333333333
 40
0.3333333333333333
 40
0.6666666666666666
 40
0.6666666666666666
 40
0.6666666666666666
 40
1.0
 40
1.0
 40
1.0
 40
1.0
 10
273.321
 20
71.9952
 30
0.0
 10
273.321
 20
72.1203
 30
0.0
 10
273.3666
 20
72.2244
 30
0.0
 10
273.4738
 20
72.2244
 30
0.0
 10
273.4738
 20
72.2244
 30
0.0
 10
273.6266
 20
72.2244
 30
0.0
 10
273.6266
 20
72.2244
 30
0.0
 10
273.9061
 20
71.6418
 30
0.0
 10
273.321
 20
71.757
 30
0.0
 10
273.321
 20
71.9952
 30
0.0
  0
SPLINE
  5
87
330
1F
100
AcDbEntity
  8
Layer 1
 62
   250
100
AcDbSpline
210
0.0
220
0.0
230
1.0
 70
    11
 71
     3
 72
    17
 73
    13
 74
     0
 42
0.0000000001
 43
0.0000000001
 40
0.0
 40
0.0
 40
0.0
 40
0.0
 40
0.25
 40
0.25
 40
0.25
 40
0.5
 40
0.5
 40
0.5
 40
0.75
 40
0.75
 40
0.75
 40
1.0
 40
1.0
 40
1.0
 40
1.0
 10
273.4738
 20
71.4602
 30
0.0
 10
273.821
 20
71.4602
 30
0.0
 10
273.8724
 20
71.6235
 30
0.0
 10
274.0851
 20
71.7659
 30
0.0
 10
274.0851
 20
72.5103
 30
0.0
 10
273.9468
 20
72.5301
 30
0.0
 10
273.2445
 20
72.5301
 30
0.0
 10
273.1203
 20
72.3447
 30
0.0
 10
272.9387
 20
72.2257
 30
0.0
 10
272.9694
 20
71.9392
 30
0.0
 10
272.9977
 20
71.6759
 30
0.0
 10
273.2199
 20
71.4602
 30
0.0
 10
273.4738
 20
71.4602
 30
0.0
  0
SPLINE
  5
88
330
1F
100
AcDbEntity
  8
Layer 1
 62
   250
100
AcDbSpline
210
0.0
220
0.0
230
1.0
 70
    11
 71
     3
 72
    14
 73
    10
 74
     0
 42
0.0000000001
 43
0.0000000001
 40
0.0
 40
0.0
 40
0.0
 40
0.0
 40
0.3333333333333333
 40
0.3333333333333333
 40
0.3333333333333333
 40
0.6666666666666666
 40
0.6666666666666666
 40
0.6666666666666666
 40
1.0
 40
1.0
 40
1.0
 40
1.0
 10
288.6812
 20
71.9952
 30
0.0
 10
288.6812
 20
72.1203
 30
0.0
 10
288.7269
 20
72.2244
 30
0.0
 10
288.8341
 20
72.2244
 30
0.0
 10
288.8341
 20
72.2244
 30
0.0
 10
288.9869
 20
72.2244
 30
0.0
 10
288.9869
 20
72.2244
 30
0.0
 10
289.2664
 20
71.6418
 30
0.0
 10
288.6812
 20
71.757
 30
0.0
 10
288.6812
 20
71.9952
 30
0.0
  0
SPLINE
  5
89
330
1F
100
AcDbEntity
  8
Layer 1
 62
   250
100
AcDbSpline
210
0.0
220
0.0
230
1.0
 70
    11
 71
     3
 72
    17
 73
    13
 74
     0
 42
0.0000000001
 43
0.0000000001
 40
0.0
 40
0.0
 40
0.0
 40
0.0
 40
0.25
 40
0.25
 40
0.25
 40
0.5
 40
0.5
 40
0.5
 40
0.75
 40
0.75
 40
0.75
 40
1.0
 40
1.0
 40
1.0
 40
1.0
 10
288.8341
 20
71.4602
 30
0.0
 10
289.1813
 20
71.4602
 30
0.0
 10
289.2326
 20
71.6235
 30
0.0
 10
289.4454
 20
71.7659
 30
0.0
 10
289.4454
 20
72.5103
 30
0.0
 10
289.3071
 20
72.5301
 30
0.0
 10
288.6048
 20
72.5301
 30
0.0
 10
288.4806
 20
72.3447
 30
0.0
 10
288.299
 20
72.2257
 30
0.0
 10
288.3297
 20
71.9392
 30
0.0
 10
288.3579
 20
71.6759
 30
0.0
 10
288.5802
 20
71.4602
 30
0.0
 10
288.8341
 20
71.4602
 30
0.0
  0
SPLINE
  5
8A
330
1F
100
AcDbEntity
  8
Layer 1
 62
   250
100
AcDbSpline
210
0.0
220
0.0
230
1.0
 70
    11
 71
     3
 72
    20
 73
    16
 74
     0
 42
0.0000000001
 43
0.0000000001
 40
0.0
 40
0.0
 40
0.0
 40
0.0
 40
0.2
 40
0.2
 40
0.2
 40
0.4
 40
0.4
 40
0.4
 40
0.6000000000000001
 40
0.6000000000000001
 40
0.6000000000000001
 40
0.8
 40
0.8
 40
0.8
 40
1.0
 40
1.0
 40
1.0
 40
1.0
 10
294.4126
 20
72.9886
 30
0.0
 10
294.6318
 20
72.048
 30
0.0
 10
294.5655
 20
72.1948
 30
0.0
 10
294.5655
 20
71.1546
 30
0.0
 10
294.5655
 20
71.1546
 30
0.0
 10
294.9476
 20
71.1546
 30
0.0
 10
294.9476
 20
71.1546
 30
0.0
 10
294.9476
 20
71.1546
 30
0.0
 10
294.9476
 20
72.3772
 30
0.0
 10
294.9476
 20
72.3772
 30
0.0
 10
294.9476
 20
72.7614
 30
0.0
 10
294.8789
 20
72.7194
 30
0.0
 10
294.8711
 20
73.065
 30
0.0
 10
294.6671
 20
73.0605
 30
0.0
 10
294.5656
 20
73.0479
 30
0.0
 10
294.4126
 20
72.9886
 30
0.0
  0
SPLINE
  5
8B
330
1F
100
AcDbEntity
  8
Layer 1
 62
   250
100
AcDbSpline
210
0.0
220
0.0
230
1.0
 70
    11
 71
     3
 72
    20
 73
    16
 74
     0
 42
0.0000000001
 43
0.0000000001
 40
0.0
 40
0.0
 40
0.0
 40
0.0
 40
0.2
 40
0.2
 40
0.2
 40
0.4
 40
0.4
 40
0.4
 40
0.6000000000000001
 40
0.6000000000000001
 40
0.6000000000000001
 40
0.8
 40
0.8
 40
0.8
 40
1.0
 40
1.0
 40
1.0
 40
1.0
 10
277.2184
 20
72.9886
 30
0.0
 10
277.4374
 20
72.048
 30
0.0
 10
277.3712
 20
72.1948
 30
0.0
 10
277.3712
 20
71.1546
 30
0.0
 10
277.3712
 20
71.1546
 30
0.0
 10
277.7532
 20
71.1546
 30
0.0
 10
277.7532
 20
71.1546
 30
0.0
 10
277.7532
 20
71.1546
 30
0.0
 10
277.7532
 20
72.3772
 30
0.0
 10
277.7532
 20
72.3772
 30
0.0
 10
277.7532
 20
72.7614
 30
0.0
 10
277.6845
 20
72.7194
 30
0.0
 10
277.6769
 20
73.065
 30
0.0
 10
277.4728
 20
73.0605
 30
0.0
 10
277.3713
 20
73.0479
 30
0.0
 10
277.2184
 20
72.9886
 30
0.0
  0
SPLINE
  5
8C
330
1F
100
AcDbEntity
  8
Layer 1
 62
   250
100
AcDbSpline
210
0.0
220
0.0
230
1.0
 70
    11
 71
     3
 72
    14
 73
    10
 74
     0
 42
0.0000000001
 43
0.0000000001
 40
0.0
 40
0.0
 40
0.0
 40
0.0
 40
0.3333333333333333
 40
0.3333333333333333
 40
0.3333333333333333
 40
0.6666666666666666
 40
0.6666666666666666
 40
0.6666666666666666
 40
1.0
 40
1.0
 40
1.0
 40
1.0
 10
278.2117
 20
88.8839
 30
0.0
 10
278.2117
 20
88.8839
 30
0.0
 10
279.2052
 20
88.8839
 30
0.0
 10
279.2052
 20
88.8839
 30
0.0
 10
279.1372
 20
89.1387
 30
0.0
 10
278.389
 20
89.9768
 30
0.0
 10
278.2117
 20
90.1067
 30
0.0
 10
278.2117
 20
90.1067
 30
0.0
 10
278.2117
 20
88.8839
 30
0.0
 10
278.2117
 20
88.8839
 30
0.0
  0
SPLINE
  5
8D
330
1F
100
AcDbEntity
  8
Layer 1
 62
   250
100
AcDbSpline
210
0.0
220
0.0
230
1.0
 70
    11
 71
     3
 72
    14
 73
    10
 74
     0
 42
0.0000000001
 43
0.0000000001
 40
0.0
 40
0.0
 40
0.0
 40
0.0
 40
0.3333333333333333
 40
0.3333333333333333
 40
0.3333333333333333
 40
0.6666666666666666
 40
0.6666666666666666
 40
0.6666666666666666
 40
1.0
 40
1.0
 40
1.0
 40
1.0
 10
273.5502
 20
88.8839
 30
0.0
 10
273.5502
 20
88.8839
 30
0.0
 10
274.7729
 20
88.8839
 30
0.0
 10
274.7729
 20
88.8839
 30
0.0
 10
274.5935
 20
89.1518
 30
0.0
 10
274.1243
 20
89.6977
 30
0.0
 10
273.8558
 20
89.8774
 30
0.0
 10
273.7534
 20
89.6639
 30
0.0
 10
273.6107
 20
89.1436
 30
0.0
 10
273.5502
 20
88.8839
 30
0.0
  0
SPLINE
  5
8E
330
1F
100
AcDbEntity
  8
Layer 1
 62
   250
100
AcDbSpline
210
0.0
220
0.0
230
1.0
 70
    11
 71
     3
 72
    17
 73
    13
 74
     0
 42
0.0000000001
 43
0.0000000001
 40
0.0
 40
0.0
 40
0.0
 40
0.0
 40
0.25
 40
0.25
 40
0.25
 40
0.5
 40
0.5
 40
0.5
 40
0.75
 40
0.75
 40
0.75
 40
1.0
 40
1.0
 40
1.0
 40
1.0
 10
275.3843
 20
88.8839
 30
0.0
 10
275.3843
 20
88.8839
 30
0.0
 10
276.6069
 20
88.8839
 30
0.0
 10
276.6069
 20
88.8839
 30
0.0
 10
276.5739
 20
89.281
 30
0.0
 10
276.4079
 20
89.5146
 30
0.0
 10
276.3777
 20
89.8774
 30
0.0
 10
276.114
 20
89.807
 30
0.0
 10
276.2436
 20
89.8698
 30
0.0
 10
276.0064
 20
89.561
 30
0.0
 10
275.81
 20
89.3055
 30
0.0
 10
275.5669
 20
89.1567
 30
0.0
 10
275.3843
 20
88.8839
 30
0.0
  0
SPLINE
  5
8F
330
1F
100
AcDbEntity
  8
Layer 1
 62
   250
100
AcDbSpline
210
0.0
220
0.0
230
1.0
 70
    11
 71
     3
 72
    14
 73
    10
 74
     0
 42
0.0000000001
 43
0.0000000001
 40
0.0
 40
0.0
 40
0.0
 40
0.0
 40
0.3333333333333333
 40
0.3333333333333333
 40
0.3333333333333333
 40
0.6666666666666666
 40
0.6666666666666666
 40
0.6666666666666666
 40
1.0
 40
1.0
 40
1.0
 40
1.0
 10
270.9519
 20
88.8839
 30
0.0
 10
270.9519
 20
88.8839
 30
0.0
 10
271.9454
 20
88.8839
 30
0.0
 10
271.9454
 20
88.8839
 30
0.0
 10
271.9454
 20
89.4184
 30
0.0
 10
272.0218
 20
89.6146
 30
0.0
 10
272.0218
 20
90.1067
 30
0.0
 10
271.7664
 20
89.9356
 30
0.0
 10
271.1361
 20
89.159
 30
0.0
 10
270.9519
 20
88.8839
 30
0.0
  0
SPLINE
  5
90
330
1F
100
AcDbEntity
  8
Layer 1
 62
   250
100
AcDbSpline
210
0.0
220
0.0
230
1.0
 70
    11
 71
     3
 72
    23
 73
    19
 74
     0
 42
0.0000000001
 43
0.0000000001
 40
0.0
 40
0.0
 40
0.0
 40
0.0
 40
0.1666666666666667
 40
0.1666666666666667
 40
0.1666666666666667
 40
0.3333333333333333
 40
0.3333333333333333
 40
0.3333333333333333
 40
0.5
 40
0.5
 40
0.5
 40
0.6666666666666666
 40
0.6666666666666666
 40
0.6666666666666666
 40
0.8333333333333333
 40
0.8333333333333333
 40
0.8333333333333333
 40
1.0
 40
1.0
 40
1.0
 40
1.0
 10
276.3777
 20
90.2595
 30
0.0
 10
276.3777
 20
90.2595
 30
0.0
 10
276.4598
 20
90.3302
 30
0.0
 10
276.4598
 20
90.3302
 30
0.0
 10
276.4717
 20
90.3401
 30
0.0
 10
276.5265
 20
90.3865
 30
0.0
 10
276.5429
 20
90.3999
 30
0.0
 10
276.7477
 20
90.5664
 30
0.0
 10
277.047
 20
90.6851
 30
0.0
 10
277.1419
 20
90.9473
 30
0.0
 10
277.1419
 20
90.9473
 30
0.0
 10
275.5371
 20
90.9473
 30
0.0
 10
275.5371
 20
90.9473
 30
0.0
 10
275.6585
 20
90.7659
 30
0.0
 10
275.7404
 20
90.7069
 30
0.0
 10
275.9335
 20
90.5796
 30
0.0
 10
276.1184
 20
90.4577
 30
0.0
 10
276.2187
 20
90.3659
 30
0.0
 10
276.3777
 20
90.2595
 30
0.0
  0
SPLINE
  5
91
330
1F
100
AcDbEntity
  8
Layer 1
 62
   250
100
AcDbSpline
210
0.0
220
0.0
230
1.0
 70
    11
 71
     3
 72
    20
 73
    16
 74
     0
 42
0.0000000001
 43
0.0000000001
 40
0.0
 40
0.0
 40
0.0
 40
0.0
 40
0.2
 40
0.2
 40
0.2
 40
0.4
 40
0.4
 40
0.4
 40
0.6000000000000001
 40
0.6000000000000001
 40
0.6000000000000001
 40
0.8
 40
0.8
 40
0.8
 40
1.0
 40
1.0
 40
1.0
 40
1.0
 10
273.7795
 20
90.2595
 30
0.0
 10
273.7795
 20
90.2595
 30
0.0
 10
274.4587
 20
90.7266
 30
0.0
 10
274.4587
 20
90.7266
 30
0.0
 10
274.5732
 20
90.8343
 30
0.0
 10
274.5574
 20
90.7742
 30
0.0
 10
274.6201
 20
90.9473
 30
0.0
 10
274.6201
 20
90.9473
 30
0.0
 10
273.0917
 20
90.9473
 30
0.0
 10
273.0917
 20
90.9473
 30
0.0
 10
273.1595
 20
90.6932
 30
0.0
 10
273.2193
 20
90.7082
 30
0.0
 10
273.4072
 20
90.575
 30
0.0
 10
273.5505
 20
90.4735
 30
0.0
 10
273.6806
 20
90.3944
 30
0.0
 10
273.7795
 20
90.2595
 30
0.0
  0
SPLINE
  5
92
330
1F
100
AcDbEntity
  8
Layer 1
 62
   250
100
AcDbSpline
210
0.0
220
0.0
230
1.0
 70
    11
 71
     3
 72
    17
 73
    13
 74
     0
 42
0.0000000001
 43
0.0000000001
 40
0.0
 40
0.0
 40
0.0
 40
0.0
 40
0.25
 40
0.25
 40
0.25
 40
0.5
 40
0.5
 40
0.5
 40
0.75
 40
0.75
 40
0.75
 40
1.0
 40
1.0
 40
1.0
 40
1.0
 10
276.7598
 20
88.8839
 30
0.0
 10
276.7598
 20
88.8839
 30
0.0
 10
277.7532
 20
88.8839
 30
0.0
 10
277.7532
 20
88.8839
 30
0.0
 10
277.6353
 20
89.0451
 30
0.0
 10
277.3513
 20
89.2219
 30
0.0
 10
277.1631
 20
89.3637
 30
0.0
 10
276.8068
 20
89.6321
 30
0.0
 10
276.7772
 20
89.7352
 30
0.0
 10
276.5306
 20
89.801
 30
0.0
 10
276.6027
 20
89.6507
 30
0.0
 10
276.7422
 20
89.0949
 30
0.0
 10
276.7598
 20
88.8839
 30
0.0
  0
SPLINE
  5
93
330
1F
100
AcDbEntity
  8
Layer 1
 62
   250
100
AcDbSpline
210
0.0
220
0.0
230
1.0
 70
    11
 71
     3
 72
    14
 73
    10
 74
     0
 42
0.0000000001
 43
0.0000000001
 40
0.0
 40
0.0
 40
0.0
 40
0.0
 40
0.3333333333333333
 40
0.3333333333333333
 40
0.3333333333333333
 40
0.6666666666666666
 40
0.6666666666666666
 40
0.6666666666666666
 40
1.0
 40
1.0
 40
1.0
 40
1.0
 10
272.4803
 20
88.8839
 30
0.0
 10
272.4803
 20
88.8839
 30
0.0
 10
273.3973
 20
88.8839
 30
0.0
 10
273.3973
 20
88.8839
 30
0.0
 10
273.4646
 20
89.1724
 30
0.0
 10
273.6034
 20
89.5218
 30
0.0
 10
273.6266
 20
89.801
 30
0.0
 10
273.3399
 20
89.609
 30
0.0
 10
272.6567
 20
89.1472
 30
0.0
 10
272.4803
 20
88.8839
 30
0.0
  0
SPLINE
  5
94
330
1F
100
AcDbEntity
  8
Layer 1
 62
   250
100
AcDbSpline
210
0.0
220
0.0
230
1.0
 70
    11
 71
     3
 72
    14
 73
    10
 74
     0
 42
0.0000000001
 43
0.0000000001
 40
0.0
 40
0.0
 40
0.0
 40
0.0
 40
0.3333333333333333
 40
0.3333333333333333
 40
0.3333333333333333
 40
0.6666666666666666
 40
0.6666666666666666
 40
0.6666666666666666
 40
1.0
 40
1.0
 40
1.0
 40
1.0
 10
272.6332
 20
87.5084
 30
0.0
 10
272.6332
 20
87.5084
 30
0.0
 10
272.6332
 20
87.5848
 30
0.0
 10
272.6332
 20
87.5848
 30
0.0
 10
272.6332
 20
87.5848
 30
0.0
 10
272.544
 20
87.5211
 30
0.0
 10
272.544
 20
87.5211
 30
0.0
 10
272.544
 20
87.5211
 30
0.0
 10
272.6332
 20
87.5084
 30
0.0
 10
272.6332
 20
87.5084
 30
0.0
  0
SPLINE
  5
95
330
1F
100
AcDbEntity
  8
Layer 1
 62
   250
100
AcDbSpline
210
0.0
220
0.0
230
1.0
 70
    11
 71
     3
 72
    14
 73
    10
 74
     0
 42
0.0000000001
 43
0.0000000001
 40
0.0
 40
0.0
 40
0.0
 40
0.0
 40
0.3333333333333333
 40
0.3333333333333333
 40
0.3333333333333333
 40
0.6666666666666666
 40
0.6666666666666666
 40
0.6666666666666666
 40
1.0
 40
1.0
 40
1.0
 40
1.0
 10
273.1681
 20
85.5215
 30
0.0
 10
273.1681
 20
85.5215
 30
0.0
 10
273.1681
 20
85.445
 30
0.0
 10
273.1681
 20
85.445
 30
0.0
 10
273.1681
 20
85.445
 30
0.0
 10
273.2572
 20
85.5088
 30
0.0
 10
273.2572
 20
85.5088
 30
0.0
 10
273.2572
 20
85.5088
 30
0.0
 10
273.1681
 20
85.5215
 30
0.0
 10
273.1681
 20
85.5215
 30
0.0
  0
SPLINE
  5
96
330
1F
100
AcDbEntity
  8
Layer 1
 62
   250
100
AcDbSpline
210
0.0
220
0.0
230
1.0
 70
    11
 71
     3
 72
    14
 73
    10
 74
     0
 42
0.0000000001
 43
0.0000000001
 40
0.0
 40
0.0
 40
0.0
 40
0.0
 40
0.3333333333333333
 40
0.3333333333333333
 40
0.3333333333333333
 40
0.6666666666666666
 40
0.6666666666666666
 40
0.6666666666666666
 40
1.0
 40
1.0
 40
1.0
 40
1.0
 10
275.9192
 20
85.3686
 30
0.0
 10
275.9192
 20
85.3686
 30
0.0
 10
275.8428
 20
85.3686
 30
0.0
 10
275.8428
 20
85.3686
 30
0.0
 10
275.8428
 20
85.3686
 30
0.0
 10
275.9064
 20
85.2795
 30
0.0
 10
275.9064
 20
85.2795
 30
0.0
 10
275.9064
 20
85.2795
 30
0.0
 10
275.9192
 20
85.3686
 30
0.0
 10
275.9192
 20
85.3686
 30
0.0
  0
SPLINE
  5
97
330
1F
100
AcDbEntity
  8
Layer 1
 62
   250
100
AcDbSpline
210
0.0
220
0.0
230
1.0
 70
    27
 71
     3
 72
    11
 73
     7
 74
     0
 42
0.0000000001
 43
0.0000000001
 40
0.0
 40
0.0
 40
0.0
 40
0.0
 40
0.5
 40
0.5
 40
0.5
 40
1.0
 40
1.0
 40
1.0
 40
1.0
 10
292.0437
 20
96.8316
 30
0.0
 10
292.0437
 20
96.8316
 30
0.0
 10
291.8908
 20
96.908
 30
0.0
 10
291.8908
 20
96.908
 30
0.0
 10
291.8908
 20
96.908
 30
0.0
 10
292.0437
 20
96.8316
 30
0.0
 10
292.0437
 20
96.8316
 30
0.0
  0
SPLINE
  5
98
330
1F
100
AcDbEntity
  8
Layer 1
 62
   250
100
AcDbSpline
210
0.0
220
0.0
230
1.0
 70
    27
 71
     3
 72
    11
 73
     7
 74
     0
 42
0.0000000001
 43
0.0000000001
 40
0.0
 40
0.0
 40
0.0
 40
0.0
 40
0.5
 40
0.5
 40
0.5
 40
1.0
 40
1.0
 40
1.0
 40
1.0
 10
276.1484
 20
96.8316
 30
0.0
 10
276.1484
 20
96.8316
 30
0.0
 10
275.9956
 20
96.7552
 30
0.0
 10
275.9956
 20
96.7552
 30
0.0
 10
275.9956
 20
96.7552
 30
0.0
 10
276.1484
 20
96.8316
 30
0.0
 10
276.1484
 20
96.8316
 30
0.0
  0
SPLINE
  5
99
330
1F
100
AcDbEntity
  8
Layer 1
 62
   250
100
AcDbSpline
210
0.0
220
0.0
230
1.0
 70
    27
 71
     3
 72
    11
 73
     7
 74
     0
 42
0.0000000001
 43
0.0000000001
 40
0.0
 40
0.0
 40
0.0
 40
0.0
 40
0.5
 40
0.5
 40
0.5
 40
1.0
 40
1.0
 40
1.0
 40
1.0
 10
292.1965
 20
96.7552
 30
0.0
 10
292.1965
 20
96.7552
 30
0.0
 10
292.0437
 20
96.8316
 30
0.0
 10
292.0437
 20
96.8316
 30
0.0
 10
292.0437
 20
96.8316
 30
0.0
 10
292.1965
 20
96.7552
 30
0.0
 10
292.1965
 20
96.7552
 30
0.0
  0
SPLINE
  5
9A
330
1F
100
AcDbEntity
  8
Layer 1
 62
   250
100
AcDbSpline
210
0.0
220
0.0
230
1.0
 70
    27
 71
     3
 72
    11
 73
     7
 74
     0
 42
0.0000000001
 43
0.0000000001
 40
0.0
 40
0.0
 40
0.0
 40
0.0
 40
0.5
 40
0.5
 40
0.5
 40
1.0
 40
1.0
 40
1.0
 40
1.0
 10
277.0655
 20
85.5978
 30
0.0
 10
277.0655
 20
85.5978
 30
0.0
 10
276.9776
 20
85.4488
 30
0.0
 10
276.9776
 20
85.4488
 30
0.0
 10
276.9776
 20
85.4488
 30
0.0
 10
277.0655
 20
85.5978
 30
0.0
 10
277.0655
 20
85.5978
 30
0.0
  0
SPLINE
  5
9B
330
1F
100
AcDbEntity
  8
Layer 1
 62
   250
100
AcDbSpline
210
0.0
220
0.0
230
1.0
 70
    27
 71
     3
 72
    11
 73
     7
 74
     0
 42
0.0000000001
 43
0.0000000001
 40
0.0
 40
0.0
 40
0.0
 40
0.0
 40
0.5
 40
0.5
 40
0.5
 40
1.0
 40
1.0
 40
1.0
 40
1.0
 10
285.4715
 20
88.2726
 30
0.0
 10
285.4715
 20
88.2726
 30
0.0
 10
285.3837
 20
88.1236
 30
0.0
 10
285.3837
 20
88.1236
 30
0.0
 10
285.3837
 20
88.1236
 30
0.0
 10
285.4715
 20
88.2726
 30
0.0
 10
285.4715
 20
88.2726
 30
0.0
  0
SPLINE
  5
9C
330
1F
100
AcDbEntity
  8
Layer 1
 62
   250
100
AcDbSpline
210
0.0
220
0.0
230
1.0
 70
    27
 71
     3
 72
    11
 73
     7
 74
     0
 42
0.0000000001
 43
0.0000000001
 40
0.0
 40
0.0
 40
0.0
 40
0.0
 40
0.5
 40
0.5
 40
0.5
 40
1.0
 40
1.0
 40
1.0
 40
1.0
 10
276.3013
 20
96.908
 30
0.0
 10
276.3013
 20
96.908
 30
0.0
 10
276.1484
 20
96.8316
 30
0.0
 10
276.1484
 20
96.8316
 30
0.0
 10
276.1484
 20
96.8316
 30
0.0
 10
276.3013
 20
96.908
 30
0.0
 10
276.3013
 20
96.908
 30
0.0
  0
ENDSEC
  0
SECTION
  2
OBJECTS
  0
DICTIONARY
  5
C
330
0
100
AcDbDictionary
281
     1
  3
ACAD_DETAILVIEWSTYLE
350
A4
  3
ACAD_GROUP
350
D
  3
ACAD_LAYOUT
350
1A
  3
ACAD_MATERIAL
350
43
  3
ACAD_MLEADERSTYLE
350
5B
  3
ACAD_MLINESTYLE
350
17
  3
ACAD_PLOTSETTINGS
350
19
  3
ACAD_PLOTSTYLENAME
350
E
  3
ACAD_SCALELIST
350
47
  3
ACAD_SECTIONVIEWSTYLE
350
A5
  3
ACAD_TABLESTYLE
350
59
  3
ACAD_VISUALSTYLE
350
2A
  3
ACDB_RECOMPOSE_DATA
350
A1
  3
AcDbVariableDictionary
350
9D
  0
SUN
  5
5D
330
29
100
AcDbSun
 90
        1
290
     0
 63
     7
421
 16777215
 40
1.0
291
     1
 91
  2455826
 92
 54000000
292
     0
 70
     2
 71
   256
280
     1
  0
DICTIONARY
  5
A4
102
{ACAD_REACTORS
330
C
102
}
330
C
100
AcDbDictionary
281
     1
  0
DICTIONARY
  5
D
102
{ACAD_REACTORS
330
C
102
}
330
C
100
AcDbDictionary
281
     1
  0
DICTIONARY
  5
1A
102
{ACAD_REACTORS
330
C
102
}
330
C
100
AcDbDictionary
281
     1
  3
Layout1
350
1E
  3
Layout2
350
26
  3
Model
350
22
  0
DICTIONARY
  5
43
102
{ACAD_REACTORS
330
C
102
}
330
C
100
AcDbDictionary
281
     1
  3
ByBlock
350
45
  3
ByLayer
350
44
  3
Global
350
46
  0
DICTIONARY
  5
5B
102
{ACAD_REACTORS
330
C
102
}
330
C
100
AcDbDictionary
281
     1
  3
Standard
350
5C
  0
DICTIONARY
  5
17
102
{ACAD_REACTORS
330
C
102
}
330
C
100
AcDbDictionary
281
     1
  3
Standard
350
18
  0
DICTIONARY
  5
19
102
{ACAD_REACTORS
330
C
102
}
330
C
100
AcDbDictionary
281
     1
  0
ACDBDICTIONARYWDFLT
  5
E
102
{ACAD_REACTORS
330
C
102
}
330
C
100
AcDbDictionary
281
     1
  3
Normal
350
F
100
AcDbDictionaryWithDefault
340
F
  0
DICTIONARY
  5
47
102
{ACAD_REACTORS
330
C
102
}
330
C
100
AcDbDictionary
281
     1
  3
A0
350
48
  3
A1
350
49
  3
A2
350
4A
  3
A3
350
4B
  3
A4
350
4C
  3
A5
350
4D
  3
A6
350
4E
  3
A7
350
4F
  3
A8
350
50
  3
A9
350
51
  3
B1
350
52
  3
B2
350
53
  3
B3
350
54
  3
B4
350
55
  3
B5
350
56
  3
B6
350
57
  3
B7
350
58
  0
DICTIONARY
  5
A5
102
{ACAD_REACTORS
330
C
102
}
330
C
100
AcDbDictionary
281
     1
  0
DICTIONARY
  5
59
102
{ACAD_REACTORS
330
C
102
}
330
C
100
AcDbDictionary
281
     1
  3
Standard
350
5A
  0
DICTIONARY
  5
2A
102
{ACAD_REACTORS
330
C
102
}
330
C
100
AcDbDictionary
281
     1
  3
2dWireframe
350
2F
  3
Basic
350
32
  3
Brighten
350
36
  3
ColorChange
350
3A
  3
Conceptual
350
34
  3
Dim
350
35
  3
EdgeColorOff
350
3D
  3
Facepattern
350
39
  3
Flat
350
2B
  3
FlatWithEdges
350
2C
  3
Gouraud
350
2D
  3
GouraudWithEdges
350
2E
  3
Hidden
350
31
  3
JitterOff
350
3B
  3
Linepattern
350
38
  3
OverhangOff
350
3C
  3
Realistic
350
33
  3
Shaded
350
42
  3
Shaded with edges
350
41
  3
Shades of Gray
350
3E
  3
Sketchy
350
3F
  3
Thicken
350
37
  3
Wireframe
350
30
  3
X-Ray
350
40
  0
XRECORD
  5
A1
102
{ACAD_REACTORS
330
C
102
}
330
C
100
AcDbXrecord
280
     1
 90
        1
330
5A
  0
DICTIONARY
  5
9D
102
{ACAD_REACTORS
330
C
102
}
330
C
100
AcDbDictionary
281
     1
  3
CANNOSCALE
350
9E
  3
CMLEADERSTYLE
350
A3
  3
CTABLESTYLE
350
A2
  0
LAYOUT
  5
1E
102
{ACAD_REACTORS
330
1A
102
}
330
1A
100
AcDbPlotSettings
  1

  2
none_device
  4

  6

 40
0.0
 41
0.0
 42
0.0
 43
0.0
 44
0.0
 45
0.0
 46
0.0
 47
0.0
 48
0.0
 49
0.0
140
0.0
141
0.0
142
1.0
143
1.0
 70
   688
 72
     0
 73
     0
 74
     5
  7

 75
    16
 76
     0
 77
     2
 78
   300
147
1.0
148
0.0
149
0.0
100
AcDbLayout
  1
Layout1
 70
     1
 71
     1
 10
0.0
 20
0.0
 11
12.0
 21
9.0
 12
0.0
 22
0.0
 32
0.0
 14
1.000000000000000E+20
 24
1.000000000000000E+20
 34
1.000000000000000E+20
 15
-1.000000000000000E+20
 25
-1.000000000000000E+20
 35
-1.000000000000000E+20
146
0.0
 13
0.0
 23
0.0
 33
0.0
 16
1.0
 26
0.0
 36
0.0
 17
0.0
 27
1.0
 37
0.0
 76
     0
330
1B
  0
LAYOUT
  5
26
102
{ACAD_REACTORS
330
1A
102
}
330
1A
100
AcDbPlotSettings
  1

  2
none_device
  4

  6

 40
0.0
 41
0.0
 42
0.0
 43
0.0
 44
0.0
 45
0.0
 46
0.0
 47
0.0
 48
0.0
 49
0.0
140
0.0
141
0.0
142
1.0
143
1.0
 70
   688
 72
     0
 73
     0
 74
     5
  7

 75
    16
 76
     0
 77
     2
 78
   300
147
1.0
148
0.0
149
0.0
100
AcDbLayout
  1
Layout2
 70
     1
 71
     2
 10
0.0
 20
0.0
 11
0.0
 21
0.0
 12
0.0
 22
0.0
 32
0.0
 14
0.0
 24
0.0
 34
0.0
 15
0.0
 25
0.0
 35
0.0
146
0.0
 13
0.0
 23
0.0
 33
0.0
 16
1.0
 26
0.0
 36
0.0
 17
0.0
 27
1.0
 37
0.0
 76
     0
330
23
  0
LAYOUT
  5
22
102
{ACAD_REACTORS
330
1A
102
}
330
1A
100
AcDbPlotSettings
  1

  2
none_device
  4
Letter_(8.50_x_11.00_Inches)
  6

 40
6.35
 41
6.35
 42
6.35000508
 43
6.35000508
 44
215.9
 45
279.4
 46
0.0
 47
0.0
 48
0.0
 49
0.0
140
0.0
141
0.0
142
1.0
143
1.0
 70
  1712
 72
     0
 73
     0
 74
     0
  7

 75
     0
 76
     0
 77
     2
 78
   300
147
1.0
148
0.0
149
0.0
100
AcDbLayout
  1
Model
 70
     1
 71
     0
 10
0.0
 20
0.0
 11
12.0
 21
9.0
 12
0.0
 22
0.0
 32
0.0
 14
266.596
 24
63.7418
 34
0.0
 15
301.596
 25
97.1373
 35
0.0
146
0.0
 13
0.0
 23
0.0
 33
0.0
 16
1.0
 26
0.0
 36
0.0
 17
0.0
 27
1.0
 37
0.0
 76
     0
330
1F
331
29
  0
MATERIAL
  5
45
102
{ACAD_REACTORS
330
43
102
}
330
43
100
AcDbMaterial
  1
ByBlock
 72
     1
 94
      127
  0
MATERIAL
  5
44
102
{ACAD_REACTORS
330
43
102
}
330
43
100
AcDbMaterial
  1
ByLayer
 72
     1
 94
      127
  0
MATERIAL
  5
46
102
{ACAD_REACTORS
330
43
102
}
330
43
100
AcDbMaterial
  1
Global
 72
     1
 94
      127
  0
MLEADERSTYLE
  5
5C
102
{ACAD_REACTORS
330
5B
102
}
330
5B
100
AcDbMLeaderStyle
179
     2
170
     2
171
     1
172
     0
 90
        2
 40
0.0
 41
0.0
173
     1
 91
-1056964608
340
14
 92
       -2
290
     1
 42
0.09
291
     1
 43
0.36
  3
Standard
341
0
 44
0.18
300

342
11
174
     1
178
     6
175
     1
176
     0
 93
-1056964608
 45
0.18
292
     0
297
     0
 46
0.18
343
0
 94
-1056964608
 47
1.0
 49
1.0
140
1.0
293
     1
141
0.0
294
     1
177
     0
142
1.0
295
     0
296
     0
143
0.125
271
     0
272
     9
273
     9
298
     0
  0
MLINESTYLE
  5
18
102
{ACAD_REACTORS
330
17
102
}
330
17
100
AcDbMlineStyle
  2
Standard
 70
     0
  3

 62
   256
 51
90.0
 52
90.0
 71
     2
 49
0.5
 62
   256
  6
BYLAYER
 49
-0.5
 62
   256
  6
BYLAYER
  0
ACDBPLACEHOLDER
  5
F
102
{ACAD_REACTORS
330
E
102
}
330
E
  0
SCALE
  5
48
102
{ACAD_REACTORS
330
47
102
}
330
47
100
AcDbScale
 70
     0
300
1:1
140
1.0
141
1.0
290
     1
  0
SCALE
  5
49
102
{ACAD_REACTORS
330
47
102
}
330
47
100
AcDbScale
 70
     0
300
1/128" = 1'-0"
140
0.0078125
141
12.0
290
     0
  0
SCALE
  5
4A
102
{ACAD_REACTORS
330
47
102
}
330
47
100
AcDbScale
 70
     0
300
1/64" = 1'-0"
140
0.015625
141
12.0
290
     0
  0
SCALE
  5
4B
102
{ACAD_REACTORS
330
47
102
}
330
47
100
AcDbScale
 70
     0
300
1/32" = 1'-0"
140
0.03125
141
12.0
290
     0
  0
SCALE
  5
4C
102
{ACAD_REACTORS
330
47
102
}
330
47
100
AcDbScale
 70
     0
300
1/16" = 1'-0"
140
0.0625
141
12.0
290
     0
  0
SCALE
  5
4D
102
{ACAD_REACTORS
330
47
102
}
330
47
100
AcDbScale
 70
     0
300
3/32" = 1'-0"
140
0.09375
141
12.0
290
     0
  0
SCALE
  5
4E
102
{ACAD_REACTORS
330
47
102
}
330
47
100
AcDbScale
 70
     0
300
1/8" = 1'-0"
140
0.125
141
12.0
290
     0
  0
SCALE
  5
4F
102
{ACAD_REACTORS
330
47
102
}
330
47
100
AcDbScale
 70
     0
300
3/16" = 1'-0"
140
0.1875
141
12.0
290
     0
  0
SCALE
  5
50
102
{ACAD_REACTORS
330
47
102
}
330
47
100
AcDbScale
 70
     0
300
1/4" = 1'-0"
140
0.25
141
12.0
290
     0
  0
SCALE
  5
51
102
{ACAD_REACTORS
330
47
102
}
330
47
100
AcDbScale
 70
     0
300
3/8" = 1'-0"
140
0.375
141
12.0
290
     0
  0
SCALE
  5
52
102
{ACAD_REACTORS
330
47
102
}
330
47
100
AcDbScale
 70
     0
300
1/2" = 1'-0"
140
0.5
141
12.0
290
     0
  0
SCALE
  5
53
102
{ACAD_REACTORS
330
47
102
}
330
47
100
AcDbScale
 70
     0
300
3/4" = 1'-0"
140
0.75
141
12.0
290
     0
  0
SCALE
  5
54
102
{ACAD_REACTORS
330
47
102
}
330
47
100
AcDbScale
 70
     0
300
1" = 1'-0"
140
1.0
141
12.0
290
     0
  0
SCALE
  5
55
102
{ACAD_REACTORS
330
47
102
}
330
47
100
AcDbScale
 70
     0
300
1-1/2" = 1'-0"
140
1.5
141
12.0
290
     0
  0
SCALE
  5
56
102
{ACAD_REACTORS
330
47
102
}
330
47
100
AcDbScale
 70
     0
300
3" = 1'-0"
140
3.0
141
12.0
290
     0
  0
SCALE
  5
57
102
{ACAD_REACTORS
330
47
102
}
330
47
100
AcDbScale
 70
     0
300
6" = 1'-0"
140
6.0
141
12.0
290
     0
  0
SCALE
  5
58
102
{ACAD_REACTORS
330
47
102
}
330
47
100
AcDbScale
 70
     0
300
1'-0" = 1'-0"
140
12.0
141
12.0
290
     0
  0
TABLESTYLE
  5
5A
102
{ACAD_REACTORS
330
59
102
}
102
{ACAD_XDICTIONARY
360
9F
102
}
330
59
100
AcDbTableStyle
  3
Standard
 70
     0
 71
     0
 40
0.06
 41
0.06
280
     0
281
     0
  7
Standard
140
0.18
170
     2
 62
     0
 63
   257
283
     0
 90
        4
 91
        0
  1

274
    -2
284
     1
 64
     0
275
    -2
285
     1
 65
     0
276
    -2
286
     1
 66
     0
277
    -2
287
     1
 67
     0
278
    -2
288
     1
 68
     0
279
    -2
289
     1
 69
     0
  7
Standard
140
0.25
170
     5
 62
     0
 63
   257
283
     0
 90
        4
 91
        0
  1

274
    -2
284
     1
 64
     0
275
    -2
285
     1
 65
     0
276
    -2
286
     1
 66
     0
277
    -2
287
     1
 67
     0
278
    -2
288
     1
 68
     0
279
    -2
289
     1
 69
     0
  7
Standard
140
0.18
170
     5
 62
     0
 63
   257
283
     0
 90
        4
 91
        0
  1

274
    -2
284
     1
 64
     0
275
    -2
285
     1
 65
     0
276
    -2
286
     1
 66
     0
277
    -2
287
     1
 67
     0
278
    -2
288
     1
 68
     0
279
    -2
289
     1
 69
     0
  0
VISUALSTYLE
  5
2F
102
{ACAD_REACTORS
330
2A
102
}
330
2A
100
AcDbVisualStyle
  2
2dWireframe
 70
     4
177
     3
291
     0
 70
    58
 90
        0
176
     1
 90
        2
176
     1
 90
        0
176
     1
 90
        0
176
     1
 40
0.6
176
     1
 40
30.0
176
     1
 62
     7
420
 16777215
176
     1
 90
        1
176
     1
 90
        4
176
     1
 62
     7
176
     1
 62
   257
176
     1
 90
        1
176
     1
 90
        1
176
     1
 40
1.0
176
     1
 90
        0
176
     1
 62
   257
176
     1
 40
1.0
176
     1
 90
        1
176
     1
 90
        6
176
     1
 90
        2
176
     1
 62
     7
176
     1
 90
        5
176
     1
 90
        0
176
     1
 90
        0
176
     1
290
     0
176
     1
 90
        1
176
     1
 40
0.0
176
     1
 90
        0
176
     1
290
     1
176
     1
290
     1
176
     1
290
     0
176
     1
290
     0
176
     1
290
     0
176
     1
290
     0
176
     1
290
     0
176
     1
290
     0
176
     1
290
     0
176
     1
 90
       50
176
     1
 40
0.0
176
     1
 40
1.0
176
     1
 90
        0
176
     1
 62
    18
420
        0
176
     1
 90
       50
176
     1
 90
        3
176
     1
 62
     5
420
      255
176
     1
290
     0
176
     1
 90
       50
176
     1
 90
       50
176
     1
 90
       50
176
     1
290
     0
176
     1
 90
       50
176
     1
 62
   256
176
     0
 40
1.0
176
     0
 90
        2
176
     1
  1
strokes_ogs.tif
176
     1
290
     0
176
     1
 40
1.0
176
     1
 40
1.0
176
     1
  0
VISUALSTYLE
  5
32
102
{ACAD_REACTORS
330
2A
102
}
330
2A
100
AcDbVisualStyle
  2
Basic
 70
     7
177
     3
291
     1
 70
    58
 90
        1
176
     1
 90
        0
176
     1
 90
        1
176
     1
 90
        0
176
     1
 40
0.6
176
     1
 40
30.0
176
     1
 62
     7
420
 16777215
176
     1
 90
        0
176
     1
 90
        4
176
     1
 62
     7
176
     1
 62
   257
176
     1
 90
        1
176
     1
 90
        1
176
     1
 40
1.0
176
     1
 90
        8
176
     1
 62
     7
176
     1
 40
1.0
176
     1
 90
        1
176
     1
 90
        6
176
     1
 90
        2
176
     1
 62
     7
176
     1
 90
        5
176
     1
 90
        0
176
     1
 90
        0
176
     1
290
     0
176
     1
 90
        1
176
     1
 40
0.0
176
     1
 90
        0
176
     1
290
     0
176
     1
290
     1
176
     1
290
     1
176
     1
290
     0
176
     1
290
     0
176
     1
290
     0
176
     1
290
     0
176
     1
290
     0
176
     1
290
     0
176
     1
 90
       50
176
     1
 40
0.0
176
     1
 40
1.0
176
     1
 90
        0
176
     1
 62
    18
420
        0
176
     1
 90
       50
176
     1
 90
        3
176
     1
 62
     5
420
      255
176
     1
290
     0
176
     1
 90
       50
176
     1
 90
       50
176
     1
 90
       50
176
     1
290
     0
176
     1
 90
       50
176
     1
 62
   256
176
     0
 40
1.0
176
     0
 90
        2
176
     1
  1
strokes_ogs.tif
176
     1
290
     0
176
     1
 40
1.0
176
     1
 40
1.0
176
     1
  0
VISUALSTYLE
  5
36
102
{ACAD_REACTORS
330
2A
102
}
330
2A
100
AcDbVisualStyle
  2
Brighten
 70
    12
177
     3
291
     1
 70
    58
 90
        2
176
     1
 90
        2
176
     1
 90
        0
176
     1
 90
        0
176
     1
 40
0.6
176
     1
 40
30.0
176
     1
 62
     7
420
 16777215
176
     1
 90
        1
176
     1
 90
        4
176
     1
 62
     7
176
     1
 62
   257
176
     1
 90
        1
176
     1
 90
        1
176
     1
 40
1.0
176
     1
 90
        8
176
     1
 62
     7
176
     1
 40
1.0
176
     1
 90
        1
176
     1
 90
        6
176
     1
 90
        2
176
     1
 62
     7
176
     1
 90
        5
176
     1
 90
        0
176
     1
 90
        0
176
     1
290
     0
176
     1
 90
        1
176
     1
 40
50.0
176
     1
 90
        0
176
     1
290
     0
176
     1
290
     1
176
     1
290
     1
176
     1
290
     0
176
     1
290
     0
176
     1
290
     0
176
     1
290
     0
176
     1
290
     0
176
     1
290
     0
176
     1
 90
       50
176
     1
 40
0.0
176
     1
 40
1.0
176
     1
 90
        0
176
     1
 62
    18
420
        0
176
     1
 90
       50
176
     1
 90
        3
176
     1
 62
     5
420
      255
176
     1
290
     0
176
     1
 90
       50
176
     1
 90
       50
176
     1
 90
       50
176
     1
290
     0
176
     1
 90
       50
176
     1
 62
   256
176
     0
 40
1.0
176
     0
 90
        2
176
     1
  1
strokes_ogs.tif
176
     1
290
     0
176
     1
 40
1.0
176
     1
 40
1.0
176
     1
  0
VISUALSTYLE
  5
3A
102
{ACAD_REACTORS
330
2A
102
}
330
2A
100
AcDbVisualStyle
  2
ColorChange
 70
    16
177
     3
291
     1
 70
    58
 90
        2
176
     1
 90
        2
176
     1
 90
        3
176
     1
 90
        0
176
     1
 40
0.6
176
     1
 40
30.0
176
     1
 62
     8
420
  8421504
176
     1
 90
        1
176
     1
 90
        4
176
     1
 62
     7
176
     1
 62
   257
176
     1
 90
        1
176
     1
 90
        1
176
     1
 40
1.0
176
     1
 90
        8
176
     1
 62
     8
420
  8421504
176
     1
 40
1.0
176
     1
 90
        1
176
     1
 90
        6
176
     1
 90
        2
176
     1
 62
     7
176
     1
 90
        5
176
     1
 90
        0
176
     1
 90
        0
176
     1
290
     0
176
     1
 90
        1
176
     1
 40
0.0
176
     1
 90
        0
176
     1
290
     0
176
     1
290
     1
176
     1
290
     1
176
     1
290
     0
176
     1
290
     0
176
     1
290
     0
176
     1
290
     0
176
     1
290
     0
176
     1
290
     0
176
     1
 90
       50
176
     1
 40
0.0
176
     1
 40
1.0
176
     1
 90
        0
176
     1
 62
    18
420
        0
176
     1
 90
       50
176
     1
 90
        3
176
     1
 62
     5
420
      255
176
     1
290
     0
176
     1
 90
       50
176
     1
 90
       50
176
     1
 90
       50
176
     1
290
     0
176
     1
 90
       50
176
     1
 62
   256
176
     0
 40
1.0
176
     0
 90
        2
176
     1
  1
strokes_ogs.tif
176
     1
290
     0
176
     1
 40
1.0
176
     1
 40
1.0
176
     1
  0
VISUALSTYLE
  5
34
102
{ACAD_REACTORS
330
2A
102
}
330
2A
100
AcDbVisualStyle
  2
Conceptual
 70
     9
177
     3
291
     0
 70
    58
 90
        3
176
     1
 90
        2
176
     1
 90
        0
176
     1
 90
        0
176
     1
 40
0.6
176
     1
 40
30.0
176
     1
 62
     7
420
 16777215
176
     1
 90
        2
176
     1
 90
        2
176
     1
 62
     7
176
     1
 62
   257
176
     1
 90
        1
176
     1
 90
        1
176
     1
 40
179.0
176
     1
 90
        8
176
     1
 62
     7
176
     1
 40
1.0
176
     1
 90
        1
176
     1
 90
        6
176
     1
 90
        2
176
     1
 62
     7
176
     1
 90
        3
176
     1
 90
        0
176
     1
 90
        0
176
     1
290
     0
176
     1
 90
        1
176
     1
 40
0.0
176
     1
 90
        0
176
     1
290
     0
176
     1
290
     1
176
     1
290
     1
176
     1
290
     0
176
     1
290
     0
176
     1
290
     0
176
     1
290
     0
176
     1
290
     0
176
     1
290
     0
176
     1
 90
       50
176
     1
 40
0.0
176
     1
 40
1.0
176
     1
 90
        0
176
     1
 62
    18
420
        0
176
     1
 90
       50
176
     1
 90
        3
176
     1
 62
     5
420
      255
176
     1
290
     0
176
     1
 90
       50
176
     1
 90
       50
176
     1
 90
       50
176
     1
290
     0
176
     1
 90
       50
176
     1
 62
   256
176
     0
 40
1.0
176
     0
 90
        2
176
     1
  1
strokes_ogs.tif
176
     1
290
     0
176
     1
 40
1.0
176
     1
 40
1.0
176
     1
  0
VISUALSTYLE
  5
35
102
{ACAD_REACTORS
330
2A
102
}
330
2A
100
AcDbVisualStyle
  2
Dim
 70
    11
177
     3
291
     1
 70
    58
 90
        2
176
     1
 90
        2
176
     1
 90
        0
176
     1
 90
        0
176
     1
 40
0.6
176
     1
 40
30.0
176
     1
 62
     7
420
 16777215
176
     1
 90
        1
176
     1
 90
        4
176
     1
 62
     7
176
     1
 62
   257
176
     1
 90
        1
176
     1
 90
        1
176
     1
 40
1.0
176
     1
 90
        8
176
     1
 62
     7
176
     1
 40
1.0
176
     1
 90
        1
176
     1
 90
        6
176
     1
 90
        2
176
     1
 62
     7
176
     1
 90
        5
176
     1
 90
        0
176
     1
 90
        0
176
     1
290
     0
176
     1
 90
        1
176
     1
 40
-50.0
176
     1
 90
        0
176
     1
290
     0
176
     1
290
     1
176
     1
290
     1
176
     1
290
     0
176
     1
290
     0
176
     1
290
     0
176
     1
290
     0
176
     1
290
     0
176
     1
290
     0
176
     1
 90
       50
176
     1
 40
0.0
176
     1
 40
1.0
176
     1
 90
        0
176
     1
 62
    18
420
        0
176
     1
 90
       50
176
     1
 90
        3
176
     1
 62
     5
420
      255
176
     1
290
     0
176
     1
 90
       50
176
     1
 90
       50
176
     1
 90
       50
176
     1
290
     0
176
     1
 90
       50
176
     1
 62
   256
176
     0
 40
1.0
176
     0
 90
        2
176
     1
  1
strokes_ogs.tif
176
     1
290
     0
176
     1
 40
1.0
176
     1
 40
1.0
176
     1
  0
VISUALSTYLE
  5
3D
102
{ACAD_REACTORS
330
2A
102
}
330
2A
100
AcDbVisualStyle
  2
EdgeColorOff
 70
    22
177
     3
291
     1
 70
    58
 90
        2
176
     0
 90
        2
176
     0
 90
        0
176
     0
 90
        0
176
     0
 40
0.6
176
     0
 40
30.0
176
     0
 62
     7
420
 16777215
176
     0
 90
        1
176
     0
 90
        4
176
     0
 62
     7
176
     0
 62
   257
176
     0
 90
        1
176
     0
 90
        1
176
     0
 40
1.0
176
     0
 90
        8
176
     2
 62
     7
176
     0
 40
1.0
176
     0
 90
        1
176
     0
 90
        6
176
     0
 90
        2
176
     0
 62
     7
176
     0
 90
        5
176
     0
 90
        0
176
     0
 90
        0
176
     0
290
     0
176
     0
 90
        1
176
     0
 40
0.0
176
     0
 90
        0
176
     0
290
     0
176
     0
290
     1
176
     0
290
     1
176
     0
290
     0
176
     0
290
     0
176
     0
290
     0
176
     0
290
     0
176
     0
290
     0
176
     0
290
     0
176
     0
 90
       50
176
     0
 40
0.0
176
     0
 40
1.0
176
     0
 90
        0
176
     0
 62
    18
420
        0
176
     0
 90
       50
176
     0
 90
        3
176
     0
 62
     5
420
      255
176
     0
290
     0
176
     0
 90
       50
176
     0
 90
       50
176
     0
 90
       50
176
     0
290
     0
176
     0
 90
       50
176
     0
 62
   256
176
     0
 40
1.0
176
     0
 90
        2
176
     0
  1
strokes_ogs.tif
176
     0
290
     0
176
     0
 40
1.0
176
     0
 40
1.0
176
     0
  0
VISUALSTYLE
  5
39
102
{ACAD_REACTORS
330
2A
102
}
330
2A
100
AcDbVisualStyle
  2
Facepattern
 70
    15
177
     3
291
     1
 70
    58
 90
        2
176
     1
 90
        2
176
     1
 90
        0
176
     1
 90
        0
176
     1
 40
0.6
176
     1
 40
30.0
176
     1
 62
     7
420
 16777215
176
     1
 90
        1
176
     1
 90
        4
176
     1
 62
     7
176
     1
 62
   257
176
     1
 90
        1
176
     1
 90
        1
176
     1
 40
1.0
176
     1
 90
        8
176
     1
 62
     7
176
     1
 40
1.0
176
     1
 90
        1
176
     1
 90
        6
176
     1
 90
        2
176
     1
 62
     7
176
     1
 90
        5
176
     1
 90
        0
176
     1
 90
        0
176
     1
290
     0
176
     1
 90
        1
176
     1
 40
0.0
176
     1
 90
        0
176
     1
290
     0
176
     1
290
     1
176
     1
290
     1
176
     1
290
     0
176
     1
290
     0
176
     1
290
     0
176
     1
290
     0
176
     1
290
     0
176
     1
290
     0
176
     1
 90
       50
176
     1
 40
0.0
176
     1
 40
1.0
176
     1
 90
        0
176
     1
 62
    18
420
        0
176
     1
 90
       50
176
     1
 90
        3
176
     1
 62
     5
420
      255
176
     1
290
     0
176
     1
 90
       50
176
     1
 90
       50
176
     1
 90
       50
176
     1
290
     0
176
     1
 90
       50
176
     1
 62
   256
176
     0
 40
1.0
176
     0
 90
        2
176
     1
  1
strokes_ogs.tif
176
     1
290
     0
176
     1
 40
1.0
176
     1
 40
1.0
176
     1
  0
VISUALSTYLE
  5
2B
102
{ACAD_REACTORS
330
2A
102
}
330
2A
100
AcDbVisualStyle
  2
Flat
 70
     0
177
     3
291
     1
 70
    58
 90
        2
176
     1
 90
        1
176
     1
 90
        1
176
     1
 90
        2
176
     1
 40
0.6
176
     1
 40
30.0
176
     1
 62
     7
420
 16777215
176
     1
 90
        0
176
     1
 90
        0
176
     1
 62
     7
176
     1
 62
   257
176
     1
 90
        1
176
     1
 90
        1
176
     1
 40
1.0
176
     1
 90
        8
176
     1
 62
     7
176
     1
 40
1.0
176
     1
 90
        1
176
     1
 90
        6
176
     1
 90
        2
176
     1
 62
     7
176
     1
 90
        5
176
     1
 90
        0
176
     1
 90
        0
176
     1
290
     0
176
     1
 90
       13
176
     1
 40
0.0
176
     1
 90
        0
176
     1
290
     0
176
     1
290
     1
176
     1
290
     1
176
     1
290
     0
176
     1
290
     0
176
     1
290
     0
176
     1
290
     0
176
     1
290
     0
176
     1
290
     0
176
     1
 90
       50
176
     1
 40
0.0
176
     1
 40
1.0
176
     1
 90
        0
176
     1
 62
    18
420
        0
176
     1
 90
       50
176
     1
 90
        3
176
     1
 62
     5
420
      255
176
     1
290
     0
176
     1
 90
       50
176
     1
 90
       50
176
     1
 90
       50
176
     1
290
     0
176
     1
 90
       50
176
     1
 62
   256
176
     0
 40
1.0
176
     0
 90
        2
176
     1
  1
strokes_ogs.tif
176
     1
290
     0
176
     1
 40
1.0
176
     1
 40
1.0
176
     1
  0
VISUALSTYLE
  5
2C
102
{ACAD_REACTORS
330
2A
102
}
330
2A
100
AcDbVisualStyle
  2
FlatWithEdges
 70
     1
177
     3
291
     1
 70
    58
 90
        2
176
     1
 90
        1
176
     1
 90
        1
176
     1
 90
        2
176
     1
 40
0.6
176
     1
 40
30.0
176
     1
 62
     7
420
 16777215
176
     1
 90
        1
176
     1
 90
        0
176
     1
 62
     7
176
     1
 62
   257
176
     1
 90
        1
176
     1
 90
        1
176
     1
 40
1.0
176
     1
 90
        0
176
     1
 62
   257
176
     1
 40
1.0
176
     1
 90
        1
176
     1
 90
        6
176
     1
 90
        2
176
     1
 62
     7
176
     1
 90
        5
176
     1
 90
        0
176
     1
 90
        0
176
     1
290
     0
176
     1
 90
       13
176
     1
 40
0.0
176
     1
 90
        0
176
     1
290
     0
176
     1
290
     1
176
     1
290
     1
176
     1
290
     0
176
     1
290
     0
176
     1
290
     0
176
     1
290
     0
176
     1
290
     0
176
     1
290
     0
176
     1
 90
       50
176
     1
 40
0.0
176
     1
 40
1.0
176
     1
 90
        0
176
     1
 62
    18
420
        0
176
     1
 90
       50
176
     1
 90
        3
176
     1
 62
     5
420
      255
176
     1
290
     0
176
     1
 90
       50
176
     1
 90
       50
176
     1
 90
       50
176
     1
290
     0
176
     1
 90
       50
176
     1
 62
   256
176
     0
 40
1.0
176
     0
 90
        2
176
     1
  1
strokes_ogs.tif
176
     1
290
     0
176
     1
 40
1.0
176
     1
 40
1.0
176
     1
  0
VISUALSTYLE
  5
2D
102
{ACAD_REACTORS
330
2A
102
}
330
2A
100
AcDbVisualStyle
  2
Gouraud
 70
     2
177
     3
291
     1
 70
    58
 90
        2
176
     1
 90
        2
176
     1
 90
        1
176
     1
 90
        2
176
     1
 40
0.6
176
     1
 40
30.0
176
     1
 62
     7
420
 16777215
176
     1
 90
        0
176
     1
 90
        0
176
     1
 62
     7
176
     1
 62
   257
176
     1
 90
        1
176
     1
 90
        1
176
     1
 40
1.0
176
     1
 90
        0
176
     1
 62
     7
176
     1
 40
1.0
176
     1
 90
        1
176
     1
 90
        6
176
     1
 90
        2
176
     1
 62
     7
176
     1
 90
        5
176
     1
 90
        0
176
     1
 90
        0
176
     1
290
     0
176
     1
 90
       13
176
     1
 40
0.0
176
     1
 90
        0
176
     1
290
     0
176
     1
290
     1
176
     1
290
     1
176
     1
290
     0
176
     1
290
     0
176
     1
290
     0
176
     1
290
     0
176
     1
290
     0
176
     1
290
     0
176
     1
 90
       50
176
     1
 40
0.0
176
     1
 40
1.0
176
     1
 90
        0
176
     1
 62
    18
420
        0
176
     1
 90
       50
176
     1
 90
        3
176
     1
 62
     5
420
      255
176
     1
290
     0
176
     1
 90
       50
176
     1
 90
       50
176
     1
 90
       50
176
     1
290
     0
176
     1
 90
       50
176
     1
 62
   256
176
     0
 40
1.0
176
     0
 90
        2
176
     1
  1
strokes_ogs.tif
176
     1
290
     0
176
     1
 40
1.0
176
     1
 40
1.0
176
     1
  0
VISUALSTYLE
  5
2E
102
{ACAD_REACTORS
330
2A
102
}
330
2A
100
AcDbVisualStyle
  2
GouraudWithEdges
 70
     3
177
     3
291
     1
 70
    58
 90
        2
176
     1
 90
        2
176
     1
 90
        1
176
     1
 90
        2
176
     1
 40
0.6
176
     1
 40
30.0
176
     1
 62
     7
420
 16777215
176
     1
 90
        1
176
     1
 90
        0
176
     1
 62
     7
176
     1
 62
   257
176
     1
 90
        1
176
     1
 90
        1
176
     1
 40
1.0
176
     1
 90
        0
176
     1
 62
   257
176
     1
 40
1.0
176
     1
 90
        1
176
     1
 90
        6
176
     1
 90
        2
176
     1
 62
     7
176
     1
 90
        5
176
     1
 90
        0
176
     1
 90
        0
176
     1
290
     0
176
     1
 90
       13
176
     1
 40
0.0
176
     1
 90
        0
176
     1
290
     0
176
     1
290
     1
176
     1
290
     1
176
     1
290
     0
176
     1
290
     0
176
     1
290
     0
176
     1
290
     0
176
     1
290
     0
176
     1
290
     0
176
     1
 90
       50
176
     1
 40
0.0
176
     1
 40
1.0
176
     1
 90
        0
176
     1
 62
    18
420
        0
176
     1
 90
       50
176
     1
 90
        3
176
     1
 62
     5
420
      255
176
     1
290
     0
176
     1
 90
       50
176
     1
 90
       50
176
     1
 90
       50
176
     1
290
     0
176
     1
 90
       50
176
     1
 62
   256
176
     0
 40
1.0
176
     0
 90
        2
176
     1
  1
strokes_ogs.tif
176
     1
290
     0
176
     1
 40
1.0
176
     1
 40
1.0
176
     1
  0
VISUALSTYLE
  5
31
102
{ACAD_REACTORS
330
2A
102
}
330
2A
100
AcDbVisualStyle
  2
Hidden
 70
     6
177
     3
291
     0
 70
    58
 90
        1
176
     1
 90
        2
176
     1
 90
        2
176
     1
 90
        0
176
     1
 40
0.6
176
     1
 40
30.0
176
     1
 62
     7
420
 16777215
176
     1
 90
        2
176
     1
 90
        2
176
     1
 62
     7
176
     1
 62
   257
176
     1
 90
        2
176
     1
 90
        1
176
     1
 40
40.0
176
     1
 90
        0
176
     1
 62
   257
176
     1
 40
1.0
176
     1
 90
        1
176
     1
 90
        6
176
     1
 90
        2
176
     1
 62
     7
176
     1
 90
        3
176
     1
 90
        0
176
     1
 90
        0
176
     1
290
     0
176
     1
 90
        1
176
     1
 40
0.0
176
     1
 90
        0
176
     1
290
     0
176
     1
290
     1
176
     1
290
     1
176
     1
290
     0
176
     1
290
     0
176
     1
290
     0
176
     1
290
     0
176
     1
290
     0
176
     1
290
     0
176
     1
 90
       50
176
     1
 40
0.0
176
     1
 40
1.0
176
     1
 90
        0
176
     1
 62
    18
420
        0
176
     1
 90
       50
176
     1
 90
        3
176
     1
 62
     5
420
      255
176
     1
290
     0
176
     1
 90
       50
176
     1
 90
       50
176
     1
 90
       50
176
     1
290
     0
176
     1
 90
       50
176
     1
 62
   256
176
     0
 40
1.0
176
     0
 90
        2
176
     1
  1
strokes_ogs.tif
176
     1
290
     0
176
     1
 40
1.0
176
     1
 40
1.0
176
     1
  0
VISUALSTYLE
  5
3B
102
{ACAD_REACTORS
330
2A
102
}
330
2A
100
AcDbVisualStyle
  2
JitterOff
 70
    20
177
     3
291
     1
 70
    58
 90
        2
176
     0
 90
        2
176
     0
 90
        0
176
     0
 90
        0
176
     0
 40
0.6
176
     0
 40
30.0
176
     0
 62
     7
420
 16777215
176
     0
 90
        1
176
     0
 90
        4
176
     0
 62
     7
176
     0
 62
   257
176
     0
 90
        1
176
     0
 90
        1
176
     0
 40
1.0
176
     0
 90
       10
176
     2
 62
     7
176
     0
 40
1.0
176
     0
 90
        1
176
     0
 90
        6
176
     0
 90
        2
176
     0
 62
     7
176
     0
 90
        5
176
     0
 90
        0
176
     0
 90
        0
176
     0
290
     0
176
     0
 90
        1
176
     0
 40
0.0
176
     0
 90
        0
176
     0
290
     0
176
     0
290
     1
176
     0
290
     1
176
     0
290
     0
176
     0
290
     0
176
     0
290
     0
176
     0
290
     0
176
     0
290
     0
176
     0
290
     0
176
     0
 90
       50
176
     0
 40
0.0
176
     0
 40
1.0
176
     0
 90
        0
176
     0
 62
    18
420
        0
176
     0
 90
       50
176
     0
 90
        3
176
     0
 62
     5
420
      255
176
     0
290
     0
176
     0
 90
       50
176
     0
 90
       50
176
     0
 90
       50
176
     0
290
     0
176
     0
 90
       50
176
     0
 62
   256
176
     0
 40
1.0
176
     0
 90
        2
176
     0
  1
strokes_ogs.tif
176
     0
290
     0
176
     0
 40
1.0
176
     0
 40
1.0
176
     0
  0
VISUALSTYLE
  5
38
102
{ACAD_REACTORS
330
2A
102
}
330
2A
100
AcDbVisualStyle
  2
Linepattern
 70
    14
177
     3
291
     1
 70
    58
 90
        2
176
     1
 90
        2
176
     1
 90
        0
176
     1
 90
        0
176
     1
 40
0.6
176
     1
 40
30.0
176
     1
 62
     7
420
 16777215
176
     1
 90
        1
176
     1
 90
        4
176
     1
 62
     7
176
     1
 62
   257
176
     1
 90
        7
176
     1
 90
        7
176
     1
 40
1.0
176
     1
 90
        8
176
     1
 62
     7
176
     1
 40
1.0
176
     1
 90
        1
176
     1
 90
        6
176
     1
 90
        2
176
     1
 62
     7
176
     1
 90
        5
176
     1
 90
        0
176
     1
 90
        0
176
     1
290
     0
176
     1
 90
        1
176
     1
 40
0.0
176
     1
 90
        0
176
     1
290
     0
176
     1
290
     1
176
     1
290
     1
176
     1
290
     0
176
     1
290
     0
176
     1
290
     0
176
     1
290
     0
176
     1
290
     0
176
     1
290
     0
176
     1
 90
       50
176
     1
 40
0.0
176
     1
 40
1.0
176
     1
 90
        0
176
     1
 62
    18
420
        0
176
     1
 90
       50
176
     1
 90
        3
176
     1
 62
     5
420
      255
176
     1
290
     0
176
     1
 90
       50
176
     1
 90
       50
176
     1
 90
       50
176
     1
290
     0
176
     1
 90
       50
176
     1
 62
   256
176
     0
 40
1.0
176
     0
 90
        2
176
     1
  1
strokes_ogs.tif
176
     1
290
     0
176
     1
 40
1.0
176
     1
 40
1.0
176
     1
  0
VISUALSTYLE
  5
3C
102
{ACAD_REACTORS
330
2A
102
}
330
2A
100
AcDbVisualStyle
  2
OverhangOff
 70
    21
177
     3
291
     1
 70
    58
 90
        2
176
     0
 90
        2
176
     0
 90
        0
176
     0
 90
        0
176
     0
 40
0.6
176
     0
 40
30.0
176
     0
 62
     7
420
 16777215
176
     0
 90
        1
176
     0
 90
        4
176
     0
 62
     7
176
     0
 62
   257
176
     0
 90
        1
176
     0
 90
        1
176
     0
 40
1.0
176
     0
 90
        9
176
     2
 62
     7
176
     0
 40
1.0
176
     0
 90
        1
176
     0
 90
        6
176
     0
 90
        2
176
     0
 62
     7
176
     0
 90
        5
176
     0
 90
        0
176
     0
 90
        0
176
     0
290
     0
176
     0
 90
        1
176
     0
 40
0.0
176
     0
 90
        0
176
     0
290
     0
176
     0
290
     1
176
     0
290
     1
176
     0
290
     0
176
     0
290
     0
176
     0
290
     0
176
     0
290
     0
176
     0
290
     0
176
     0
290
     0
176
     0
 90
       50
176
     0
 40
0.0
176
     0
 40
1.0
176
     0
 90
        0
176
     0
 62
    18
420
        0
176
     0
 90
       50
176
     0
 90
        3
176
     0
 62
     5
420
      255
176
     0
290
     0
176
     0
 90
       50
176
     0
 90
       50
176
     0
 90
       50
176
     0
290
     0
176
     0
 90
       50
176
     0
 62
   256
176
     0
 40
1.0
176
     0
 90
        2
176
     0
  1
strokes_ogs.tif
176
     0
290
     0
176
     0
 40
1.0
176
     0
 40
1.0
176
     0
  0
VISUALSTYLE
  5
33
102
{ACAD_REACTORS
330
2A
102
}
330
2A
100
AcDbVisualStyle
  2
Realistic
 70
     8
177
     3
291
     0
 70
    58
 90
        2
176
     1
 90
        3
176
     1
 90
        0
176
     1
 90
        2
176
     1
 40
0.6
176
     1
 40
30.0
176
     1
 62
     7
420
 16777215
176
     1
 90
        0
176
     1
 90
        0
176
     1
 62
     7
176
     1
 62
   257
176
     1
 90
        1
176
     1
 90
        1
176
     1
 40
1.0
176
     1
 90
        8
176
     1
 62
   257
176
     1
 40
1.0
176
     1
 90
        1
176
     1
 90
        6
176
     1
 90
        2
176
     1
 62
     7
176
     1
 90
        3
176
     1
 90
        0
176
     1
 90
        0
176
     1
290
     0
176
     1
 90
       13
176
     1
 40
0.0
176
     1
 90
        0
176
     1
290
     0
176
     1
290
     1
176
     1
290
     1
176
     1
290
     0
176
     1
290
     0
176
     1
290
     0
176
     1
290
     0
176
     1
290
     0
176
     1
290
     0
176
     1
 90
       50
176
     1
 40
0.0
176
     1
 40
1.0
176
     1
 90
        0
176
     1
 62
    18
420
        0
176
     1
 90
       50
176
     1
 90
        3
176
     1
 62
     5
420
      255
176
     1
290
     0
176
     1
 90
       50
176
     1
 90
       50
176
     1
 90
       50
176
     1
290
     0
176
     1
 90
       50
176
     1
 62
   256
176
     0
 40
1.0
176
     0
 90
        2
176
     1
  1
strokes_ogs.tif
176
     1
290
     0
176
     1
 40
1.0
176
     1
 40
1.0
176
     1
  0
VISUALSTYLE
  5
42
102
{ACAD_REACTORS
330
2A
102
}
330
2A
100
AcDbVisualStyle
  2
Shaded
 70
    27
177
     3
291
     0
 70
    58
 90
        2
176
     1
 90
        2
176
     1
 90
        1
176
     1
 90
        2
176
     1
 40
0.6
176
     1
 40
30.0
176
     1
 62
     7
420
 16777215
176
     1
 90
        0
176
     1
 90
        4
176
     1
 62
     7
176
     1
 62
   257
176
     1
 90
        1
176
     1
 90
        1
176
     1
 40
1.0
176
     1
 90
        8
176
     1
 62
   257
176
     1
 40
1.0
176
     1
 90
        1
176
     1
 90
        6
176
     1
 90
        2
176
     1
 62
     8
420
  7895160
176
     1
 90
        3
176
     1
 90
        0
176
     1
 90
        0
176
     1
290
     0
176
     1
 90
        5
176
     1
 40
0.0
176
     1
 90
        0
176
     1
290
     0
176
     1
290
     1
176
     1
290
     1
176
     1
290
     0
176
     1
290
     0
176
     1
290
     0
176
     1
290
     0
176
     1
290
     0
176
     1
290
     0
176
     1
 90
       50
176
     1
 40
0.0
176
     1
 40
1.0
176
     1
 90
        0
176
     1
 62
    18
420
        0
176
     1
 90
       50
176
     1
 90
        3
176
     1
 62
     5
420
      255
176
     1
290
     0
176
     1
 90
       50
176
     1
 90
       50
176
     1
 90
       50
176
     1
290
     0
176
     1
 90
       50
176
     1
 62
   256
176
     0
 40
1.0
176
     0
 90
        2
176
     1
  1
strokes_ogs.tif
176
     1
290
     0
176
     1
 40
1.0
176
     1
 40
1.0
176
     1
  0
VISUALSTYLE
  5
41
102
{ACAD_REACTORS
330
2A
102
}
330
2A
100
AcDbVisualStyle
  2
Shaded with edges
 70
    26
177
     3
291
     0
 70
    58
 90
        2
176
     1
 90
        2
176
     1
 90
        1
176
     1
 90
        2
176
     1
 40
0.6
176
     1
 40
30.0
176
     1
 62
     7
420
 16777215
176
     1
 90
        1
176
     1
 90
       10
176
     1
 62
     7
176
     1
 62
   257
176
     1
 90
        2
176
     1
 90
        1
176
     1
 40
1.0
176
     1
 90
        8
176
     1
 62
   257
176
     1
 40
1.0
176
     1
 90
        1
176
     1
 90
        6
176
     1
 90
        2
176
     1
 62
     7
176
     1
 90
        3
176
     1
 90
        0
176
     1
 90
        0
176
     1
290
     0
176
     1
 90
        5
176
     1
 40
0.0
176
     1
 90
        0
176
     1
290
     0
176
     1
290
     1
176
     1
290
     1
176
     1
290
     0
176
     1
290
     0
176
     1
290
     0
176
     1
290
     0
176
     1
290
     0
176
     1
290
     0
176
     1
 90
       50
176
     1
 40
0.0
176
     1
 40
1.0
176
     1
 90
        0
176
     1
 62
    18
420
        0
176
     1
 90
       50
176
     1
 90
        3
176
     1
 62
     5
420
      255
176
     1
290
     0
176
     1
 90
       50
176
     1
 90
       50
176
     1
 90
       50
176
     1
290
     0
176
     1
 90
       50
176
     1
 62
   256
176
     0
 40
1.0
176
     0
 90
        2
176
     1
  1
strokes_ogs.tif
176
     1
290
     0
176
     1
 40
1.0
176
     1
 40
1.0
176
     1
  0
VISUALSTYLE
  5
3E
102
{ACAD_REACTORS
330
2A
102
}
330
2A
100
AcDbVisualStyle
  2
Shades of Gray
 70
    23
177
     3
291
     0
 70
    58
 90
        2
176
     1
 90
        2
176
     1
 90
        3
176
     1
 90
        0
176
     1
 40
0.6
176
     1
 40
30.0
176
     1
 62
     7
420
 16777215
176
     1
 90
        2
176
     1
 90
        2
176
     1
 62
     7
176
     1
 62
     7
176
     1
 90
        1
176
     1
 90
        1
176
     1
 40
40.0
176
     1
 90
        8
176
     1
 62
     7
176
     1
 40
1.0
176
     1
 90
        1
176
     1
 90
        6
176
     1
 90
        2
176
     1
 62
     7
176
     1
 90
        3
176
     1
 90
        0
176
     1
 90
        0
176
     1
290
     0
176
     1
 90
        1
176
     1
 40
0.0
176
     1
 90
        0
176
     1
290
     0
176
     1
290
     1
176
     1
290
     1
176
     1
290
     0
176
     1
290
     0
176
     1
290
     0
176
     1
290
     0
176
     1
290
     0
176
     1
290
     0
176
     1
 90
       50
176
     1
 40
0.0
176
     1
 40
1.0
176
     1
 90
        0
176
     1
 62
    18
420
        0
176
     1
 90
       50
176
     1
 90
        3
176
     1
 62
     5
420
      255
176
     1
290
     0
176
     1
 90
       50
176
     1
 90
       50
176
     1
 90
       50
176
     1
290
     0
176
     1
 90
       50
176
     1
 62
   256
176
     0
 40
1.0
176
     0
 90
        2
176
     1
  1
strokes_ogs.tif
176
     1
290
     0
176
     1
 40
1.0
176
     1
 40
1.0
176
     1
  0
VISUALSTYLE
  5
3F
102
{ACAD_REACTORS
330
2A
102
}
330
2A
100
AcDbVisualStyle
  2
Sketchy
 70
    24
177
     3
291
     0
 70
    58
 90
        1
176
     1
 90
        2
176
     1
 90
        2
176
     1
 90
        0
176
     1
 40
0.6
176
     1
 40
30.0
176
     1
 62
     7
420
 16777215
176
     1
 90
        2
176
     1
 90
        2
176
     1
 62
     7
176
     1
 62
     7
176
     1
 90
        1
176
     1
 90
        1
176
     1
 40
40.0
176
     1
 90
       11
176
     1
 62
     7
176
     1
 40
1.0
176
     1
 90
        1
176
     1
 90
        6
176
     1
 90
        2
176
     1
 62
     7
176
     1
 90
        6
176
     1
 90
        0
176
     1
 90
        0
176
     1
290
     0
176
     1
 90
        1
176
     1
 40
0.0
176
     1
 90
        0
176
     1
290
     0
176
     1
290
     1
176
     1
290
     1
176
     1
290
     0
176
     1
290
     0
176
     1
290
     0
176
     1
290
     0
176
     1
290
     0
176
     1
290
     0
176
     1
 90
       50
176
     1
 40
0.0
176
     1
 40
1.0
176
     1
 90
        0
176
     1
 62
    18
420
        0
176
     1
 90
       50
176
     1
 90
        3
176
     1
 62
     5
420
      255
176
     1
290
     0
176
     1
 90
       50
176
     1
 90
       50
176
     1
 90
       50
176
     1
290
     0
176
     1
 90
       50
176
     1
 62
   256
176
     0
 40
1.0
176
     0
 90
        2
176
     1
  1
strokes_ogs.tif
176
     1
290
     0
176
     1
 40
1.0
176
     1
 40
1.0
176
     1
  0
VISUALSTYLE
  5
37
102
{ACAD_REACTORS
330
2A
102
}
330
2A
100
AcDbVisualStyle
  2
Thicken
 70
    13
177
     3
291
     1
 70
    58
 90
        2
176
     1
 90
        2
176
     1
 90
        0
176
     1
 90
        0
176
     1
 40
0.6
176
     1
 40
30.0
176
     1
 62
     7
420
 16777215
176
     1
 90
        1
176
     1
 90
        4
176
     1
 62
     7
176
     1
 62
   257
176
     1
 90
        1
176
     1
 90
        1
176
     1
 40
1.0
176
     1
 90
       12
176
     1
 62
     7
176
     1
 40
1.0
176
     1
 90
        1
176
     1
 90
        6
176
     1
 90
        2
176
     1
 62
     7
176
     1
 90
        5
176
     1
 90
        0
176
     1
 90
        0
176
     1
290
     0
176
     1
 90
        1
176
     1
 40
0.0
176
     1
 90
        0
176
     1
290
     0
176
     1
290
     1
176
     1
290
     1
176
     1
290
     0
176
     1
290
     0
176
     1
290
     0
176
     1
290
     0
176
     1
290
     0
176
     1
290
     0
176
     1
 90
       50
176
     1
 40
0.0
176
     1
 40
1.0
176
     1
 90
        0
176
     1
 62
    18
420
        0
176
     1
 90
       50
176
     1
 90
        3
176
     1
 62
     5
420
      255
176
     1
290
     0
176
     1
 90
       50
176
     1
 90
       50
176
     1
 90
       50
176
     1
290
     0
176
     1
 90
       50
176
     1
 62
   256
176
     0
 40
1.0
176
     0
 90
        2
176
     1
  1
strokes_ogs.tif
176
     1
290
     0
176
     1
 40
1.0
176
     1
 40
1.0
176
     1
  0
VISUALSTYLE
  5
30
102
{ACAD_REACTORS
330
2A
102
}
330
2A
100
AcDbVisualStyle
  2
Wireframe
 70
     5
177
     3
291
     0
 70
    58
 90
        0
176
     1
 90
        2
176
     1
 90
        0
176
     1
 90
        0
176
     1
 40
0.6
176
     1
 40
30.0
176
     1
 62
     7
420
 16777215
176
     1
 90
        1
176
     1
 90
        4
176
     1
 62
     7
176
     1
 62
   257
176
     1
 90
        1
176
     1
 90
        1
176
     1
 40
1.0
176
     1
 90
        0
176
     1
 62
   257
176
     1
 40
1.0
176
     1
 90
        1
176
     1
 90
        6
176
     1
 90
        2
176
     1
 62
     7
176
     1
 90
        3
176
     1
 90
        0
176
     1
 90
        0
176
     1
290
     0
176
     1
 90
        1
176
     1
 40
0.0
176
     1
 90
        0
176
     1
290
     0
176
     1
290
     1
176
     1
290
     1
176
     1
290
     0
176
     1
290
     0
176
     1
290
     0
176
     1
290
     0
176
     1
290
     0
176
     1
290
     0
176
     1
 90
       50
176
     1
 40
0.0
176
     1
 40
1.0
176
     1
 90
        0
176
     1
 62
    18
420
        0
176
     1
 90
       50
176
     1
 90
        3
176
     1
 62
     5
420
      255
176
     1
290
     0
176
     1
 90
       50
176
     1
 90
       50
176
     1
 90
       50
176
     1
290
     0
176
     1
 90
       50
176
     1
 62
   256
176
     0
 40
1.0
176
     0
 90
        2
176
     1
  1
strokes_ogs.tif
176
     1
290
     0
176
     1
 40
1.0
176
     1
 40
1.0
176
     1
  0
VISUALSTYLE
  5
40
102
{ACAD_REACTORS
330
2A
102
}
330
2A
100
AcDbVisualStyle
  2
X-Ray
 70
    25
177
     3
291
     0
 70
    58
 90
        2
176
     1
 90
        2
176
     1
 90
        1
176
     1
 90
        1
176
     1
 40
0.5
176
     1
 40
30.0
176
     1
 62
     7
420
 16777215
176
     1
 90
        1
176
     1
 90
        0
176
     1
 62
     7
176
     1
 62
   257
176
     1
 90
        1
176
     1
 90
        1
176
     1
 40
1.0
176
     1
 90
        8
176
     1
 62
     7
176
     1
 40
1.0
176
     1
 90
        1
176
     1
 90
        6
176
     1
 90
        2
176
     1
 62
     7
176
     1
 90
        3
176
     1
 90
        0
176
     1
 90
        0
176
     1
290
     0
176
     1
 90
       13
176
     1
 40
0.0
176
     1
 90
        0
176
     1
290
     0
176
     1
290
     1
176
     1
290
     1
176
     1
290
     0
176
     1
290
     0
176
     1
290
     0
176
     1
290
     0
176
     1
290
     0
176
     1
290
     0
176
     1
 90
       50
176
     1
 40
0.0
176
     1
 40
1.0
176
     1
 90
        0
176
     1
 62
    18
420
        0
176
     1
 90
       50
176
     1
 90
        3
176
     1
 62
     5
420
      255
176
     1
290
     0
176
     1
 90
       50
176
     1
 90
       50
176
     1
 90
       50
176
     1
290
     0
176
     1
 90
       50
176
     1
 62
   256
176
     0
 40
1.0
176
     0
 90
        2
176
     1
  1
strokes_ogs.tif
176
     1
290
     0
176
     1
 40
1.0
176
     1
 40
1.0
176
     1
  0
DICTIONARYVAR
  5
9E
102
{ACAD_REACTORS
330
9D
102
}
330
9D
100
DictionaryVariables
280
     0
  1
1:1
  0
DICTIONARYVAR
  5
A3
102
{ACAD_REACTORS
330
9D
102
}
330
9D
100
DictionaryVariables
280
     0
  1
Standard
  0
DICTIONARYVAR
  5
A2
102
{ACAD_REACTORS
330
9D
102
}
330
9D
100
DictionaryVariables
280
     0
  1
Standard
  0
DICTIONARY
  5
9F
330
5A
100
AcDbDictionary
280
     1
281
     1
  3
ACAD_ROUNDTRIP_2008_TABLESTYLE_CELLSTYLEMAP
360
A0
  0
CELLSTYLEMAP
  5
A0
102
{ACAD_REACTORS
330
9F
102
}
330
9F
100
AcDbCellStyleMap
 90
        3
300
CELLSTYLE
  1
TABLEFORMAT_BEGIN
 90
        5
170
     1
 91
        0
 92
    32768
 62
   257
 93
        1
300
CONTENTFORMAT
  1
CONTENTFORMAT_BEGIN
 90
        0
 91
        0
 92
        4
 93
        0
300

 40
0.0
140
1.0
 94
        5
 62
     0
340
11
144
0.25
309
CONTENTFORMAT_END
171
     1
301
MARGIN
  1
CELLMARGIN_BEGIN
 40
0.06
 40
0.06
 40
0.06
 40
0.06
 40
0.06
 40
0.06
309
CELLMARGIN_END
 94
        6
 95
        1
302
GRIDFORMAT
  1
GRIDFORMAT_BEGIN
 90
        0
 91
        1
 62
     0
 92
       -2
340
14
 93
        0
 40
0.045
309
GRIDFORMAT_END
 95
        2
302
GRIDFORMAT
  1
GRIDFORMAT_BEGIN
 90
        0
 91
        1
 62
     0
 92
       -2
340
14
 93
        0
 40
0.045
309
GRIDFORMAT_END
 95
        4
302
GRIDFORMAT
  1
GRIDFORMAT_BEGIN
 90
        0
 91
        1
 62
     0
 92
       -2
340
14
 93
        0
 40
0.045
309
GRIDFORMAT_END
 95
        8
302
GRIDFORMAT
  1
GRIDFORMAT_BEGIN
 90
        0
 91
        1
 62
     0
 92
       -2
340
14
 93
        0
 40
0.045
309
GRIDFORMAT_END
 95
       16
302
GRIDFORMAT
  1
GRIDFORMAT_BEGIN
 90
        0
 91
        1
 62
     0
 92
       -2
340
14
 93
        0
 40
0.045
309
GRIDFORMAT_END
 95
       32
302
GRIDFORMAT
  1
GRIDFORMAT_BEGIN
 90
        0
 91
        1
 62
     0
 92
       -2
340
14
 93
        0
 40
0.045
309
GRIDFORMAT_END
309
TABLEFORMAT_END
  1
CELLSTYLE_BEGIN
 90
        1
 91
        1
300
_TITLE
309
CELLSTYLE_END
300
CELLSTYLE
  1
TABLEFORMAT_BEGIN
 90
        5
170
     1
 91
        0
 92
        0
 62
   257
 93
        1
300
CONTENTFORMAT
  1
CONTENTFORMAT_BEGIN
 90
        0
 91
        0
 92
        4
 93
        0
300

 40
0.0
140
1.0
 94
        5
 62
     0
340
11
144
0.18
309
CONTENTFORMAT_END
171
     1
301
MARGIN
  1
CELLMARGIN_BEGIN
 40
0.06
 40
0.06
 40
0.06
 40
0.06
 40
0.06
 40
0.06
309
CELLMARGIN_END
 94
        6
 95
        1
302
GRIDFORMAT
  1
GRIDFORMAT_BEGIN
 90
        0
 91
        1
 62
     0
 92
       -2
340
14
 93
        0
 40
0.045
309
GRIDFORMAT_END
 95
        2
302
GRIDFORMAT
  1
GRIDFORMAT_BEGIN
 90
        0
 91
        1
 62
     0
 92
       -2
340
14
 93
        0
 40
0.045
309
GRIDFORMAT_END
 95
        4
302
GRIDFORMAT
  1
GRIDFORMAT_BEGIN
 90
        0
 91
        1
 62
     0
 92
       -2
340
14
 93
        0
 40
0.045
309
GRIDFORMAT_END
 95
        8
302
GRIDFORMAT
  1
GRIDFORMAT_BEGIN
 90
        0
 91
        1
 62
     0
 92
       -2
340
14
 93
        0
 40
0.045
309
GRIDFORMAT_END
 95
       16
302
GRIDFORMAT
  1
GRIDFORMAT_BEGIN
 90
        0
 91
        1
 62
     0
 92
       -2
340
14
 93
        0
 40
0.045
309
GRIDFORMAT_END
 95
       32
302
GRIDFORMAT
  1
GRIDFORMAT_BEGIN
 90
        0
 91
        1
 62
     0
 92
       -2
340
14
 93
        0
 40
0.045
309
GRIDFORMAT_END
309
TABLEFORMAT_END
  1
CELLSTYLE_BEGIN
 90
        2
 91
        1
300
_HEADER
309
CELLSTYLE_END
300
CELLSTYLE
  1
TABLEFORMAT_BEGIN
 90
        5
170
     1
 91
        0
 92
        0
 62
   257
 93
        1
300
CONTENTFORMAT
  1
CONTENTFORMAT_BEGIN
 90
        0
 91
        0
 92
        4
 93
        0
300

 40
0.0
140
1.0
 94
        2
 62
     0
340
11
144
0.18
309
CONTENTFORMAT_END
171
     1
301
MARGIN
  1
CELLMARGIN_BEGIN
 40
0.06
 40
0.06
 40
0.06
 40
0.06
 40
0.06
 40
0.06
309
CELLMARGIN_END
 94
        6
 95
        1
302
GRIDFORMAT
  1
GRIDFORMAT_BEGIN
 90
        0
 91
        1
 62
     0
 92
       -2
340
14
 93
        0
 40
0.045
309
GRIDFORMAT_END
 95
        2
302
GRIDFORMAT
  1
GRIDFORMAT_BEGIN
 90
        0
 91
        1
 62
     0
 92
       -2
340
14
 93
        0
 40
0.045
309
GRIDFORMAT_END
 95
        4
302
GRIDFORMAT
  1
GRIDFORMAT_BEGIN
 90
        0
 91
        1
 62
     0
 92
       -2
340
14
 93
        0
 40
0.045
309
GRIDFORMAT_END
 95
        8
302
GRIDFORMAT
  1
GRIDFORMAT_BEGIN
 90
        0
 91
        1
 62
     0
 92
       -2
340
14
 93
        0
 40
0.045
309
GRIDFORMAT_END
 95
       16
302
GRIDFORMAT
  1
GRIDFORMAT_BEGIN
 90
        0
 91
        1
 62
     0
 92
       -2
340
14
 93
        0
 40
0.045
309
GRIDFORMAT_END
 95
       32
302
GRIDFORMAT
  1
GRIDFORMAT_BEGIN
 90
        0
 91
        1
 62
     0
 92
       -2
340
14
 93
        0
 40
0.045
309
GRIDFORMAT_END
309
TABLEFORMAT_END
  1
CELLSTYLE_BEGIN
 90
        3
 91
        2
300
_DATA
309
CELLSTYLE_END
  0
ENDSEC
  0
EOF
