  0
SECTION
  2
HEADER
  9
$ACADVER
  1
AC1032
  9
$ACADMAINTVER
 90
       55
  9
$DWGCODEPAGE
  3
ANSI_1252
  9
$LASTSAVEDBY
  1
Abolfazl
  9
$REQUIREDVERSIONS
160
                 0
  9
$INSBASE
 10
0.0
 20
0.0
 30
0.0
  9
$EXTMIN
 10
-14.4673
 20
-22.6831
 30
0.0
  9
$EXTMAX
 10
15.09
 20
22.3169
 30
0.0
  9
$LIMMIN
 10
0.0
 20
0.0
  9
$LIMMAX
 10
12.0
 20
9.0
  9
$ORTHOMODE
 70
     0
  9
$REGENMODE
 70
     1
  9
$FILLMODE
 70
     1
  9
$QTEXTMODE
 70
     0
  9
$MIRRTEXT
 70
     1
  9
$LTSCALE
 40
1.0
  9
$ATTMODE
 70
     1
  9
$TEXTSIZE
 40
0.2
  9
$TRACEWID
 40
0.05
  9
$TEXTSTYLE
  7
Standard
  9
$CLAYER
  8
0
  9
$CELTYPE
  6
ByLayer
  9
$CECOLOR
 62
   256
  9
$CELTSCALE
 40
1.0
  9
$DISPSILH
 70
     0
  9
$DIMSCALE
 40
1.0
  9
$DIMASZ
 40
0.18
  9
$DIMEXO
 40
0.0625
  9
$DIMDLI
 40
0.38
  9
$DIMRND
 40
0.0
  9
$DIMDLE
 40
0.0
  9
$DIMEXE
 40
0.18
  9
$DIMTP
 40
0.0
  9
$DIMTM
 40
0.0
  9
$DIMTXT
 40
0.18
  9
$DIMCEN
 40
0.09
  9
$DIMTSZ
 40
0.0
  9
$DIMTOL
 70
     0
  9
$DIMLIM
 70
     0
  9
$DIMTIH
 70
     1
  9
$DIMTOH
 70
     1
  9
$DIMSE1
 70
     0
  9
$DIMSE2
 70
     0
  9
$DIMTAD
 70
     0
  9
$DIMZIN
 70
     0
  9
$DIMBLK
  1

  9
$DIMASO
 70
     1
  9
$DIMSHO
 70
     1
  9
$DIMPOST
  1

  9
$DIMAPOST
  1

  9
$DIMALT
 70
     0
  9
$DIMALTD
 70
     2
  9
$DIMALTF
 40
25.4
  9
$DIMLFAC
 40
1.0
  9
$DIMTOFL
 70
     0
  9
$DIMTVP
 40
0.0
  9
$DIMTIX
 70
     0
  9
$DIMSOXD
 70
     0
  9
$DIMSAH
 70
     0
  9
$DIMBLK1
  1

  9
$DIMBLK2
  1

  9
$DIMSTYLE
  2
Standard
  9
$DIMCLRD
 70
     0
  9
$DIMCLRE
 70
     0
  9
$DIMCLRT
 70
     0
  9
$DIMTFAC
 40
1.0
  9
$DIMGAP
 40
0.09
  9
$DIMJUST
 70
     0
  9
$DIMSD1
 70
     0
  9
$DIMSD2
 70
     0
  9
$DIMTOLJ
 70
     1
  9
$DIMTZIN
 70
     0
  9
$DIMALTZ
 70
     0
  9
$DIMALTTZ
 70
     0
  9
$DIMUPT
 70
     0
  9
$DIMDEC
 70
     4
  9
$DIMTDEC
 70
     4
  9
$DIMALTU
 70
     2
  9
$DIMALTTD
 70
     2
  9
$DIMTXSTY
  7
Standard
  9
$DIMAUNIT
 70
     0
  9
$DIMADEC
 70
     0
  9
$DIMALTRND
 40
0.0
  9
$DIMAZIN
 70
     0
  9
$DIMDSEP
 70
    46
  9
$DIMATFIT
 70
     3
  9
$DIMFRAC
 70
     0
  9
$DIMLDRBLK
  1

  9
$DIMLUNIT
 70
     2
  9
$DIMLWD
 70
    -2
  9
$DIMLWE
 70
    -2
  9
$DIMTMOVE
 70
     0
  9
$DIMFXL
 40
1.0
  9
$DIMFXLON
 70
     0
  9
$DIMJOGANG
 40
0.7853981633974483
  9
$DIMTFILL
 70
     0
  9
$DIMTFILLCLR
 70
     0
  9
$DIMARCSYM
 70
     0
  9
$DIMLTYPE
  6

  9
$DIMLTEX1
  6

  9
$DIMLTEX2
  6

  9
$DIMTXTDIRECTION
 70
     0
  9
$LUNITS
 70
     2
  9
$LUPREC
 70
     4
  9
$SKETCHINC
 40
0.1
  9
$FILLETRAD
 40
0.0
  9
$AUNITS
 70
     0
  9
$AUPREC
 70
     0
  9
$MENU
  1
.
  9
$ELEVATION
 40
0.0
  9
$PELEVATION
 40
0.0
  9
$THICKNESS
 40
0.0
  9
$LIMCHECK
 70
     0
  9
$CHAMFERA
 40
0.0
  9
$CHAMFERB
 40
0.0
  9
$CHAMFERC
 40
0.0
  9
$CHAMFERD
 40
0.0
  9
$SKPOLY
 70
     0
  9
$TDCREATE
 40
2460571.47553338
  9
$TDUCREATE
 40
2460571.329700046
  9
$TDUPDATE
 40
2460571.475533414
  9
$TDUUPDATE
 40
2460571.329700081
  9
$TDINDWG
 40
0.0000000116
  9
$TDUSRTIMER
 40
0.0000000116
  9
$USRTIMER
 70
     1
  9
$ANGBASE
 50
0.0
  9
$ANGDIR
 70
     0
  9
$PDMODE
 70
     0
  9
$PDSIZE
 40
0.0
  9
$PLINEWID
 40
0.0
  9
$SPLFRAME
 70
     0
  9
$SPLINETYPE
 70
     6
  9
$SPLINESEGS
 70
     8
  9
$HANDSEED
  5
9E
  9
$SURFTAB1
 70
     6
  9
$SURFTAB2
 70
     6
  9
$SURFTYPE
 70
     6
  9
$SURFU
 70
     6
  9
$SURFV
 70
     6
  9
$UCSBASE
  2

  9
$UCSNAME
  2

  9
$UCSORG
 10
0.0
 20
0.0
 30
0.0
  9
$UCSXDIR
 10
1.0
 20
0.0
 30
0.0
  9
$UCSYDIR
 10
0.0
 20
1.0
 30
0.0
  9
$UCSORTHOREF
  2

  9
$UCSORTHOVIEW
 70
     0
  9
$UCSORGTOP
 10
0.0
 20
0.0
 30
0.0
  9
$UCSORGBOTTOM
 10
0.0
 20
0.0
 30
0.0
  9
$UCSORGLEFT
 10
0.0
 20
0.0
 30
0.0
  9
$UCSORGRIGHT
 10
0.0
 20
0.0
 30
0.0
  9
$UCSORGFRONT
 10
0.0
 20
0.0
 30
0.0
  9
$UCSORGBACK
 10
0.0
 20
0.0
 30
0.0
  9
$PUCSBASE
  2

  9
$PUCSNAME
  2

  9
$PUCSORG
 10
0.0
 20
0.0
 30
0.0
  9
$PUCSXDIR
 10
1.0
 20
0.0
 30
0.0
  9
$PUCSYDIR
 10
0.0
 20
1.0
 30
0.0
  9
$PUCSORTHOREF
  2

  9
$PUCSORTHOVIEW
 70
     0
  9
$PUCSORGTOP
 10
0.0
 20
0.0
 30
0.0
  9
$PUCSORGBOTTOM
 10
0.0
 20
0.0
 30
0.0
  9
$PUCSORGLEFT
 10
0.0
 20
0.0
 30
0.0
  9
$PUCSORGRIGHT
 10
0.0
 20
0.0
 30
0.0
  9
$PUCSORGFRONT
 10
0.0
 20
0.0
 30
0.0
  9
$PUCSORGBACK
 10
0.0
 20
0.0
 30
0.0
  9
$USERI1
 70
     0
  9
$USERI2
 70
     0
  9
$USERI3
 70
     0
  9
$USERI4
 70
     0
  9
$USERI5
 70
     0
  9
$USERR1
 40
0.0
  9
$USERR2
 40
0.0
  9
$USERR3
 40
0.0
  9
$USERR4
 40
0.0
  9
$USERR5
 40
0.0
  9
$WORLDVIEW
 70
     1
  9
$SHADEDGE
 70
     3
  9
$SHADEDIF
 70
    70
  9
$TILEMODE
 70
     1
  9
$MAXACTVP
 70
    64
  9
$PINSBASE
 10
0.0
 20
0.0
 30
0.0
  9
$PLIMCHECK
 70
     0
  9
$PEXTMIN
 10
1.000000000000000E+20
 20
1.000000000000000E+20
 30
1.000000000000000E+20
  9
$PEXTMAX
 10
-1.000000000000000E+20
 20
-1.000000000000000E+20
 30
-1.000000000000000E+20
  9
$PLIMMIN
 10
0.0
 20
0.0
  9
$PLIMMAX
 10
12.0
 20
9.0
  9
$UNITMODE
 70
     0
  9
$VISRETAIN
 70
     1
  9
$PLINEGEN
 70
     0
  9
$PSLTSCALE
 70
     1
  9
$TREEDEPTH
 70
  3020
  9
$CMLSTYLE
  2
Standard
  9
$CMLJUST
 70
     0
  9
$CMLSCALE
 40
1.0
  9
$PROXYGRAPHICS
 70
     1
  9
$MEASUREMENT
 70
     0
  9
$CELWEIGHT
370
    -1
  9
$ENDCAPS
280
     0
  9
$JOINSTYLE
280
     0
  9
$LWDISPLAY
290
     0
  9
$INSUNITS
 70
     4
  9
$HYPERLINKBASE
  1

  9
$STYLESHEET
  1

  9
$XEDIT
290
     1
  9
$CEPSNTYPE
380
     0
  9
$PSTYLEMODE
290
     1
  9
$FINGERPRINTGUID
  2
{31de6463-d762-44eb-ab1f-959e02059c2f}
  9
$VERSIONGUID
  2
{FAEB1C32-E019-11D5-929B-00C0DF256EC4}
  9
$EXTNAMES
290
     1
  9
$PSVPSCALE
 40
0.0
  9
$OLESTARTUP
290
     0
  9
$SORTENTS
280
   127
  9
$INDEXCTL
280
     0
  9
$HIDETEXT
280
     1
  9
$XCLIPFRAME
280
     2
  9
$HALOGAP
280
     0
  9
$OBSCOLOR
 70
   257
  9
$OBSLTYPE
280
     0
  9
$INTERSECTIONDISPLAY
280
     0
  9
$INTERSECTIONCOLOR
 70
   257
  9
$DIMASSOC
280
     2
  9
$PROJECTNAME
  1

  9
$CAMERADISPLAY
290
     0
  9
$LENSLENGTH
 40
50.0
  9
$CAMERAHEIGHT
 40
0.0
  9
$STEPSPERSEC
 40
2.0
  9
$STEPSIZE
 40
6.0
  9
$3DDWFPREC
 40
2.0
  9
$PSOLWIDTH
 40
0.25
  9
$PSOLHEIGHT
 40
4.0
  9
$LOFTANG1
 40
1.570796326794897
  9
$LOFTANG2
 40
1.570796326794897
  9
$LOFTMAG1
 40
0.0
  9
$LOFTMAG2
 40
0.0
  9
$LOFTPARAM
 70
     7
  9
$LOFTNORMALS
280
     1
  9
$LATITUDE
 40
37.795
  9
$LONGITUDE
 40
-122.394
  9
$NORTHDIRECTION
 40
0.0
  9
$TIMEZONE
 70
 -8000
  9
$LIGHTGLYPHDISPLAY
280
     1
  9
$TILEMODELIGHTSYNCH
280
     1
  9
$CMATERIAL
347
44
  9
$SOLIDHIST
280
     0
  9
$SHOWHIST
280
     1
  9
$DWFFRAME
280
     2
  9
$DGNFRAME
280
     2
  9
$REALWORLDSCALE
290
     1
  9
$INTERFERECOLOR
 62
   256
  9
$CSHADOW
280
     0
  9
$SHADOWPLANELOCATION
 40
0.0
  0
ENDSEC
  0
SECTION
  2
CLASSES
  0
CLASS
  1
ACDBDICTIONARYWDFLT
  2
AcDbDictionaryWithDefault
  3
ObjectDBX Classes
 90
        0
 91
        3
280
     0
281
     0
  0
CLASS
  1
VISUALSTYLE
  2
AcDbVisualStyle
  3
ObjectDBX Classes
 90
     4095
 91
        3
280
     0
281
     0
  0
CLASS
  1
MATERIAL
  2
AcDbMaterial
  3
ObjectDBX Classes
 90
     1153
 91
        3
280
     0
281
     0
  0
CLASS
  1
SCALE
  2
AcDbScale
  3
ObjectDBX Classes
 90
     1153
 91
        3
280
     0
281
     0
  0
CLASS
  1
TABLESTYLE
  2
AcDbTableStyle
  3
ObjectDBX Classes
 90
     4095
 91
        3
280
     0
281
     0
  0
CLASS
  1
MLEADERSTYLE
  2
AcDbMLeaderStyle
  3
ACDB_MLEADERSTYLE_CLASS
 90
     4095
 91
        3
280
     0
281
     0
  0
CLASS
  1
SUN
  2
AcDbSun
  3
SCENEOE
 90
     1153
 91
        3
280
     0
281
     0
  0
CLASS
  1
DICTIONARYVAR
  2
AcDbDictionaryVar
  3
ObjectDBX Classes
 90
        0
 91
        3
280
     0
281
     0
  0
CLASS
  1
CELLSTYLEMAP
  2
AcDbCellStyleMap
  3
ObjectDBX Classes
 90
     1152
 91
        3
280
     0
281
     0
  0
ENDSEC
  0
SECTION
  2
TABLES
  0
TABLE
  2
VPORT
  5
8
330
0
100
AcDbSymbolTable
 70
     1
  0
VPORT
  5
29
330
8
100
AcDbSymbolTableRecord
100
AcDbViewportTableRecord
  2
*Active
 70
     0
 10
0.0
 20
0.0
 11
1.0
 21
1.0
 12
10.42990654205607
 22
4.5
 13
0.0
 23
0.0
 14
0.5
 24
0.5
 15
0.5
 25
0.5
 16
0.0
 26
0.0
 36
1.0
 17
0.0
 27
0.0
 37
0.0
 40
9.0
 41
1.972972972850329
 42
50.0
 43
0.0
 44
0.0
 50
0.0
 51
0.0
 71
     0
 72
   100
 73
     1
 74
     3
 75
     0
 76
     0
 77
     0
 78
     0
281
     0
 65
     1
110
0.0
120
0.0
130
0.0
111
1.0
121
0.0
131
0.0
112
0.0
122
1.0
132
0.0
 79
     0
146
0.0
348
2F
 60
     3
 61
     5
292
     1
282
     1
141
0.0
142
0.0
 63
   250
361
5D
  0
ENDTAB
  0
TABLE
  2
LTYPE
  5
5
330
0
100
AcDbSymbolTable
 70
     1
  0
LTYPE
  5
14
330
5
100
AcDbSymbolTableRecord
100
AcDbLinetypeTableRecord
  2
ByBlock
 70
     0
  3

 72
    65
 73
     0
 40
0.0
  0
LTYPE
  5
15
330
5
100
AcDbSymbolTableRecord
100
AcDbLinetypeTableRecord
  2
ByLayer
 70
     0
  3

 72
    65
 73
     0
 40
0.0
  0
LTYPE
  5
16
330
5
100
AcDbSymbolTableRecord
100
AcDbLinetypeTableRecord
  2
Continuous
 70
     0
  3
Solid line
 72
    65
 73
     0
 40
0.0
  0
ENDTAB
  0
TABLE
  2
LAYER
  5
2
330
0
100
AcDbSymbolTable
 70
     2
  0
LAYER
  5
10
330
2
100
AcDbSymbolTableRecord
100
AcDbLayerTableRecord
  2
0
 70
     0
 62
     7
  6
Continuous
370
    -3
390
F
347
46
348
0
  0
LAYER
  5
5F
330
2
100
AcDbSymbolTableRecord
100
AcDbLayerTableRecord
  2
Layer 1
 70
     0
 62
     7
  6
Continuous
370
    -3
390
F
347
46
348
0
  0
ENDTAB
  0
TABLE
  2
STYLE
  5
3
330
0
100
AcDbSymbolTable
 70
     1
  0
STYLE
  5
11
330
3
100
AcDbSymbolTableRecord
100
AcDbTextStyleTableRecord
  2
Standard
 70
     0
 40
0.0
 41
1.0
 50
0.0
 71
     0
 42
0.2
  3
txt
  4

  0
ENDTAB
  0
TABLE
  2
VIEW
  5
6
330
0
100
AcDbSymbolTable
 70
     0
  0
ENDTAB
  0
TABLE
  2
UCS
  5
7
330
0
100
AcDbSymbolTable
 70
     0
  0
ENDTAB
  0
TABLE
  2
APPID
  5
9
330
0
100
AcDbSymbolTable
 70
     2
  0
APPID
  5
12
330
9
100
AcDbSymbolTableRecord
100
AcDbRegAppTableRecord
  2
ACAD
 70
     0
  0
APPID
  5
5E
330
9
100
AcDbSymbolTableRecord
100
AcDbRegAppTableRecord
  2
ODA
 70
     0
  0
ENDTAB
  0
TABLE
  2
DIMSTYLE
  5
A
330
0
100
AcDbSymbolTable
 70
     1
100
AcDbDimStyleTable
  0
DIMSTYLE
105
27
330
A
100
AcDbSymbolTableRecord
100
AcDbDimStyleTableRecord
  2
Standard
 70
     0
178
     0
340
11
  0
ENDTAB
  0
TABLE
  2
BLOCK_RECORD
  5
1
330
0
100
AcDbSymbolTable
 70
     1
  0
BLOCK_RECORD
  5
1F
330
1
100
AcDbSymbolTableRecord
100
AcDbBlockTableRecord
  2
*Model_Space
340
22
 70
     0
280
     1
281
     0
  0
BLOCK_RECORD
  5
1B
330
1
100
AcDbSymbolTableRecord
100
AcDbBlockTableRecord
  2
*Paper_Space
340
1E
 70
     0
280
     1
281
     0
  0
BLOCK_RECORD
  5
23
330
1
100
AcDbSymbolTableRecord
100
AcDbBlockTableRecord
  2
*Paper_Space0
340
26
 70
     0
280
     1
281
     0
  0
ENDTAB
  0
ENDSEC
  0
SECTION
  2
BLOCKS
  0
BLOCK
  5
20
330
1F
100
AcDbEntity
  8
0
100
AcDbBlockBegin
  2
*Model_Space
 70
     0
 10
0.0
 20
0.0
 30
0.0
  3
*Model_Space
  1

  0
ENDBLK
  5
21
330
1F
100
AcDbEntity
  8
0
100
AcDbBlockEnd
  0
BLOCK
  5
1C
330
1B
100
AcDbEntity
 67
     1
  8
0
100
AcDbBlockBegin
  2
*Paper_Space
 70
     0
 10
0.0
 20
0.0
 30
0.0
  3
*Paper_Space
  1

  0
ENDBLK
  5
1D
330
1B
100
AcDbEntity
 67
     1
  8
0
100
AcDbBlockEnd
  0
BLOCK
  5
24
330
23
100
AcDbEntity
  8
0
100
AcDbBlockBegin
  2
*Paper_Space0
 70
     0
 10
0.0
 20
0.0
 30
0.0
  3
*Paper_Space0
  1

  0
ENDBLK
  5
25
330
23
100
AcDbEntity
  8
0
100
AcDbBlockEnd
  0
ENDSEC
  0
SECTION
  2
ENTITIES
  0
SPLINE
  5
60
330
1F
100
AcDbEntity
  8
Layer 1
 62
   250
100
AcDbSpline
210
0.0
220
0.0
230
1.0
 70
    11
 71
     3
 72
   137
 73
   133
 74
     0
 42
0.0000000001
 43
0.0000000001
 40
0.0
 40
0.0
 40
0.0
 40
0.0
 40
0.0227272727272727
 40
0.0227272727272727
 40
0.0227272727272727
 40
0.0454545454545455
 40
0.0454545454545455
 40
0.0454545454545455
 40
0.0681818181818182
 40
0.0681818181818182
 40
0.0681818181818182
 40
0.0909090909090909
 40
0.0909090909090909
 40
0.0909090909090909
 40
0.1136363636363636
 40
0.1136363636363636
 40
0.1136363636363636
 40
0.1363636363636364
 40
0.1363636363636364
 40
0.1363636363636364
 40
0.1590909090909091
 40
0.1590909090909091
 40
0.1590909090909091
 40
0.1818181818181818
 40
0.1818181818181818
 40
0.1818181818181818
 40
0.2045454545454546
 40
0.2045454545454546
 40
0.2045454545454546
 40
0.2272727272727273
 40
0.2272727272727273
 40
0.2272727272727273
 40
0.25
 40
0.25
 40
0.25
 40
0.2727272727272727
 40
0.2727272727272727
 40
0.2727272727272727
 40
0.2954545454545455
 40
0.2954545454545455
 40
0.2954545454545455
 40
0.3181818181818182
 40
0.3181818181818182
 40
0.3181818181818182
 40
0.3409090909090909
 40
0.3409090909090909
 40
0.3409090909090909
 40
0.3636363636363636
 40
0.3636363636363636
 40
0.3636363636363636
 40
0.3863636363636364
 40
0.3863636363636364
 40
0.3863636363636364
 40
0.4090909090909091
 40
0.4090909090909091
 40
0.4090909090909091
 40
0.4318181818181818
 40
0.4318181818181818
 40
0.4318181818181818
 40
0.4545454545454546
 40
0.4545454545454546
 40
0.4545454545454546
 40
0.4772727272727273
 40
0.4772727272727273
 40
0.4772727272727273
 40
0.5
 40
0.5
 40
0.5
 40
0.5227272727272727
 40
0.5227272727272727
 40
0.5227272727272727
 40
0.5454545454545454
 40
0.5454545454545454
 40
0.5454545454545454
 40
0.5681818181818182
 40
0.5681818181818182
 40
0.5681818181818182
 40
0.5909090909090909
 40
0.5909090909090909
 40
0.5909090909090909
 40
0.6136363636363636
 40
0.6136363636363636
 40
0.6136363636363636
 40
0.6363636363636364
 40
0.6363636363636364
 40
0.6363636363636364
 40
0.6590909090909091
 40
0.6590909090909091
 40
0.6590909090909091
 40
0.6818181818181819
 40
0.6818181818181819
 40
0.6818181818181819
 40
0.7045454545454546
 40
0.7045454545454546
 40
0.7045454545454546
 40
0.7272727272727273
 40
0.7272727272727273
 40
0.7272727272727273
 40
0.75
 40
0.75
 40
0.75
 40
0.7727272727272727
 40
0.7727272727272727
 40
0.7727272727272727
 40
0.7954545454545455
 40
0.7954545454545455
 40
0.7954545454545455
 40
0.8181818181818182
 40
0.8181818181818182
 40
0.8181818181818182
 40
0.8409090909090909
 40
0.8409090909090909
 40
0.8409090909090909
 40
0.8636363636363636
 40
0.8636363636363636
 40
0.8636363636363636
 40
0.8863636363636364
 40
0.8863636363636364
 40
0.8863636363636364
 40
0.9090909090909092
 40
0.9090909090909092
 40
0.9090909090909092
 40
0.9318181818181819
 40
0.9318181818181819
 40
0.9318181818181819
 40
0.9545454545454546
 40
0.9545454545454546
 40
0.9545454545454546
 40
0.9772727272727273
 40
0.9772727272727273
 40
0.9772727272727273
 40
1.0
 40
1.0
 40
1.0
 40
1.0
 10
-6.5327
 20
12.8263
 30
0.0
 10
-6.4521
 20
12.8263
 30
0.0
 10
-6.379
 20
12.8213
 30
0.0
 10
-6.3073
 20
12.8276
 30
0.0
 10
-6.1815
 20
12.8379
 30
0.0
 10
-6.1487
 20
12.779
 30
0.0
 10
-6.14
 20
12.6615
 30
0.0
 10
-6.1242
 20
12.4532
 30
0.0
 10
-6.0959
 20
12.2448
 30
0.0
 10
-6.0565
 20
12.0394
 30
0.0
 10
-5.9968
 20
11.7293
 30
0.0
 10
-5.7938
 20
11.5599
 30
0.0
 10
-5.4862
 20
11.5188
 30
0.0
 10
-5.3128
 20
11.4955
 30
0.0
 10
-5.1363
 20
11.4789
 30
0.0
 10
-4.9612
 20
11.4789
 30
0.0
 10
-2.9846
 20
11.4765
 30
0.0
 10
-1.0084
 20
11.4765
 30
0.0
 10
0.9677
 20
11.4789
 30
0.0
 10
1.1429
 20
11.4789
 30
0.0
 10
1.3193
 20
11.4952
 30
0.0
 10
1.4928
 20
11.518
 30
0.0
 10
1.8298
 20
11.562
 30
0.0
 10
2.0012
 20
11.721
 30
0.0
 10
2.0644
 20
12.0547
 30
0.0
 10
2.1038
 20
12.2597
 30
0.0
 10
2.1242
 20
12.4681
 30
0.0
 10
2.1549
 20
12.6893
 30
0.0
 10
2.1549
 20
12.6893
 30
0.0
 10
2.5787
 20
12.6893
 30
0.0
 10
2.5787
 20
12.6893
 30
0.0
 10
2.5787
 20
12.6893
 30
0.0
 10
2.5787
 20
12.464
 30
0.0
 10
2.5787
 20
12.464
 30
0.0
 10
2.5787
 20
11.1311
 30
0.0
 10
2.5874
 20
9.7979
 30
0.0
 10
2.5758
 20
8.4651
 30
0.0
 10
2.5674
 20
7.5365
 30
0.0
 10
2.4899
 20
6.6155
 30
0.0
 10
2.181
 20
5.7285
 30
0.0
 10
1.8431
 20
4.7593
 30
0.0
 10
1.2434
 20
4.0205
 30
0.0
 10
0.2925
 20
3.5527
 30
0.0
 10
-0.0758
 20
3.9545
 30
0.0
 10
-0.4448
 20
4.3567
 30
0.0
 10
-0.7909
 20
4.734
 30
0.0
 10
-0.578
 20
4.8071
 30
0.0
 10
-0.2845
 20
4.8813
 30
0.0
 10
-0.0134
 20
5.0059
 30
0.0
 10
1.1288
 20
5.5306
 30
0.0
 10
1.749
 20
6.4598
 30
0.0
 10
1.9846
 20
7.6669
 30
0.0
 10
2.1058
 20
8.2883
 30
0.0
 10
2.1234
 20
8.9163
 30
0.0
 10
2.0283
 20
9.5434
 30
0.0
 10
1.9572
 20
10.0088
 30
0.0
 10
1.8153
 20
10.1362
 30
0.0
 10
1.3438
 20
10.137
 30
0.0
 10
-0.6934
 20
10.1416
 30
0.0
 10
-2.7305
 20
10.1403
 30
0.0
 10
-4.7673
 20
10.1375
 30
0.0
 10
-4.9084
 20
10.1375
 30
0.0
 10
-5.0517
 20
10.1192
 30
0.0
 10
-5.1899
 20
10.0893
 30
0.0
 10
-5.7033
 20
9.9793
 30
0.0
 10
-5.9536
 20
9.6273
 30
0.0
 10
-6.0209
 20
9.0076
 30
0.0
 10
-6.0902
 20
8.3618
 30
0.0
 10
-5.8647
 20
7.8757
 30
0.0
 10
-5.3202
 20
7.5242
 30
0.0
 10
-4.4062
 20
6.9327
 30
0.0
 10
-3.4872
 20
6.3486
 30
0.0
 10
-2.5886
 20
5.7347
 30
0.0
 10
-1.3371
 20
4.8801
 30
0.0
 10
-0.1865
 20
3.9105
 30
0.0
 10
0.7275
 20
2.6856
 30
0.0
 10
1.7983
 20
1.251
 30
0.0
 10
2.2948
 20
-0.3636
 30
0.0
 10
2.2657
 20
-2.1484
 30
0.0
 10
2.2411
 20
-3.6344
 30
0.0
 10
1.9025
 20
-5.0663
 30
0.0
 10
1.5543
 20
-6.4992
 30
0.0
 10
1.2437
 20
-7.7785
 30
0.0
 10
0.9175
 20
-9.0565
 30
0.0
 10
0.6713
 20
-10.3486
 30
0.0
 10
0.3327
 20
-12.1272
 30
0.0
 10
0.3485
 20
-13.9001
 30
0.0
 10
1.0018
 20
-15.6238
 30
0.0
 10
1.4845
 20
-16.8973
 30
0.0
 10
2.2337
 20
-17.9936
 30
0.0
 10
3.2104
 20
-18.9382
 30
0.0
 10
3.2735
 20
-18.9988
 30
0.0
 10
3.337
 20
-19.0598
 30
0.0
 10
3.3997
 20
-19.1217
 30
0.0
 10
3.4067
 20
-19.1287
 30
0.0
 10
3.4067
 20
-19.1428
 30
0.0
 10
3.4101
 20
-19.1537
 30
0.0
 10
3.3971
 20
-19.1698
 30
0.0
 10
3.3848
 20
-19.186
 30
0.0
 10
3.3719
 20
-19.2018
 30
0.0
 10
2.9216
 20
-18.8419
 30
0.0
 10
2.4467
 20
-18.509
 30
0.0
 10
2.0254
 20
-18.118
 30
0.0
 10
0.8304
 20
-17.009
 30
0.0
 10
0.0513
 20
-15.6607
 30
0.0
 10
-0.2223
 20
-14.0387
 30
0.0
 10
-0.3896
 20
-13.0487
 30
0.0
 10
-0.3571
 20
-12.0587
 30
0.0
 10
-0.2248
 20
-11.0688
 30
0.0
 10
-0.0131
 20
-9.4841
 30
0.0
 10
0.4327
 20
-7.9503
 30
0.0
 10
0.7897
 20
-6.3975
 30
0.0
 10
1.0807
 20
-5.1307
 30
0.0
 10
1.3189
 20
-3.8572
 30
0.0
 10
1.3255
 20
-2.5506
 30
0.0
 10
1.3372
 20
-0.2881
 30
0.0
 10
0.5227
 20
1.64
 30
0.0
 10
-1.0246
 20
3.2762
 30
0.0
 10
-2.0407
 20
4.3509
 30
0.0
 10
-3.2366
 20
5.1993
 30
0.0
 10
-4.4382
 20
6.0444
 30
0.0
 10
-4.9798
 20
6.425
 30
0.0
 10
-5.5049
 20
6.8306
 30
0.0
 10
-6.0279
 20
7.2365
 30
0.0
 10
-6.3384
 20
7.4777
 30
0.0
 10
-6.499
 20
7.8076
 30
0.0
 10
-6.5036
 20
8.204
 30
0.0
 10
-6.5202
 20
9.7124
 30
0.0
 10
-6.5352
 20
11.2204
 30
0.0
 10
-6.5501
 20
12.7284
 30
0.0
 10
-6.5505
 20
12.7483
 30
0.0
 10
-6.5431
 20
12.7678
 30
0.0
 10
-6.5327
 20
12.8263
 30
0.0
  0
SPLINE
  5
61
330
1F
100
AcDbEntity
  8
Layer 1
 62
   250
100
AcDbSpline
210
0.0
220
0.0
230
1.0
 70
    11
 71
     3
 72
    32
 73
    28
 74
     0
 42
0.0000000001
 43
0.0000000001
 40
0.0
 40
0.0
 40
0.0
 40
0.0
 40
0.1111111111111111
 40
0.1111111111111111
 40
0.1111111111111111
 40
0.2222222222222222
 40
0.2222222222222222
 40
0.2222222222222222
 40
0.3333333333333333
 40
0.3333333333333333
 40
0.3333333333333333
 40
0.4444444444444444
 40
0.4444444444444444
 40
0.4444444444444444
 40
0.5555555555555556
 40
0.5555555555555556
 40
0.5555555555555556
 40
0.6666666666666666
 40
0.6666666666666666
 40
0.6666666666666666
 40
0.7777777777777777
 40
0.7777777777777777
 40
0.7777777777777777
 40
0.8888888888888888
 40
0.8888888888888888
 40
0.8888888888888888
 40
1.0
 40
1.0
 40
1.0
 40
1.0
 10
-8.9704
 20
-1.0858
 30
0.0
 10
-12.7351
 20
1.7192
 30
0.0
 10
-14.5328
 20
6.8392
 30
0.0
 10
-12.9361
 20
11.7441
 30
0.0
 10
-11.2978
 20
16.7757
 30
0.0
 10
-6.5542
 20
20.059
 30
0.0
 10
-1.24
 20
19.8768
 30
0.0
 10
3.9853
 20
19.6978
 30
0.0
 10
8.5346
 20
16.0017
 30
0.0
 10
9.7757
 20
10.9252
 30
0.0
 10
10.9897
 20
5.9572
 30
0.0
 10
8.8397
 20
1.3158
 30
0.0
 10
5.5809
 20
-1.0792
 30
0.0
 10
8.3964
 20
1.479
 30
0.0
 10
9.847
 20
4.5846
 30
0.0
 10
9.6773
 20
8.3551
 30
0.0
 10
9.5312
 20
11.5955
 30
0.0
 10
8.2025
 20
14.3123
 30
0.0
 10
5.7607
 20
16.4453
 30
0.0
 10
1.2019
 20
20.4283
 30
0.0
 10
-5.6199
 20
20.1291
 30
0.0
 10
-9.8196
 20
15.8223
 30
0.0
 10
-12.1561
 20
13.4264
 30
0.0
 10
-13.2494
 20
10.5193
 30
0.0
 10
-13.073
 20
7.182
 30
0.0
 10
-12.897
 20
3.8524
 30
0.0
 10
-11.4525
 20
1.1174
 30
0.0
 10
-8.9704
 20
-1.0858
 30
0.0
  0
SPLINE
  5
62
330
1F
100
AcDbEntity
  8
Layer 1
 62
   250
100
AcDbSpline
210
0.0
220
0.0
230
1.0
 70
    11
 71
     3
 72
    29
 73
    25
 74
     0
 42
0.0000000001
 43
0.0000000001
 40
0.0
 40
0.0
 40
0.0
 40
0.0
 40
0.125
 40
0.125
 40
0.125
 40
0.25
 40
0.25
 40
0.25
 40
0.375
 40
0.375
 40
0.375
 40
0.5
 40
0.5
 40
0.5
 40
0.625
 40
0.625
 40
0.625
 40
0.75
 40
0.75
 40
0.75
 40
0.875
 40
0.875
 40
0.875
 40
1.0
 40
1.0
 40
1.0
 40
1.0
 10
-10.4524
 20
2.5681
 30
0.0
 10
-12.7693
 20
6.1739
 30
0.0
 10
-12.6252
 20
11.8219
 30
0.0
 10
-8.6447
 20
15.5098
 30
0.0
 10
-4.667
 20
19.1953
 30
0.0
 10
1.5088
 20
19.1945
 30
0.0
 10
5.4675
 20
15.5181
 30
0.0
 10
9.4626
 20
11.8082
 30
0.0
 10
9.612
 20
6.1279
 30
0.0
 10
7.2319
 20
2.4868
 30
0.0
 10
8.5618
 20
4.8245
 30
0.0
 10
9.0093
 20
7.312
 30
0.0
 10
8.4427
 20
9.9457
 30
0.0
 10
7.8749
 20
12.5865
 30
0.0
 10
6.4537
 20
14.6822
 30
0.0
 10
4.2479
 20
16.2374
 30
0.0
 10
0.7032
 20
18.7366
 30
0.0
 10
-4.0697
 20
18.6815
 30
0.0
 10
-7.6563
 20
16.0644
 30
0.0
 10
-9.7803
 20
14.5144
 30
0.0
 10
-11.1152
 20
12.4183
 30
0.0
 10
-11.639
 20
9.8395
 30
0.0
 10
-12.16
 20
7.2759
 30
0.0
 10
-11.7296
 20
4.8499
 30
0.0
 10
-10.4524
 20
2.5681
 30
0.0
  0
SPLINE
  5
63
330
1F
100
AcDbEntity
  8
Layer 1
 62
   250
100
AcDbSpline
210
0.0
220
0.0
230
1.0
 70
    11
 71
     3
 72
    14
 73
    10
 74
     0
 42
0.0000000001
 43
0.0000000001
 40
0.0
 40
0.0
 40
0.0
 40
0.0
 40
0.3333333333333333
 40
0.3333333333333333
 40
0.3333333333333333
 40
0.6666666666666666
 40
0.6666666666666666
 40
0.6666666666666666
 40
1.0
 40
1.0
 40
1.0
 40
1.0
 10
5.4735
 20
-12.6832
 30
0.0
 10
5.0784
 20
-12.1581
 30
0.0
 10
4.545
 20
-11.8875
 30
0.0
 10
3.8954
 20
-11.885
 30
0.0
 10
3.3051
 20
-11.8829
 30
0.0
 10
2.8013
 20
-12.1133
 30
0.0
 10
2.4123
 20
-12.5683
 30
0.0
 10
3.1312
 20
-13.5474
 30
0.0
 10
4.6907
 20
-13.6034
 30
0.0
 10
5.4735
 20
-12.6832
 30
0.0
  0
SPLINE
  5
64
330
1F
100
AcDbEntity
  8
Layer 1
 62
   250
100
AcDbSpline
210
0.0
220
0.0
230
1.0
 70
    11
 71
     3
 72
    17
 73
    13
 74
     0
 42
0.0000000001
 43
0.0000000001
 40
0.0
 40
0.0
 40
0.0
 40
0.0
 40
0.25
 40
0.25
 40
0.25
 40
0.5
 40
0.5
 40
0.5
 40
0.75
 40
0.75
 40
0.75
 40
1.0
 40
1.0
 40
1.0
 40
1.0
 10
5.5047
 20
-12.7525
 30
0.0
 10
4.6313
 20
-13.7151
 30
0.0
 10
3.2109
 20
-13.8268
 30
0.0
 10
2.201
 20
-12.8862
 30
0.0
 10
1.7956
 20
-13.391
 30
0.0
 10
1.6657
 20
-14.62
 30
0.0
 10
2.5244
 20
-15.4389
 30
0.0
 10
3.3018
 20
-16.1798
 30
0.0
 10
4.4989
 20
-16.1728
 30
0.0
 10
5.2748
 20
-15.4256
 30
0.0
 10
5.9973
 20
-14.7299
 30
0.0
 10
6.1132
 20
-13.4478
 30
0.0
 10
5.5047
 20
-12.7525
 30
0.0
  0
SPLINE
  5
65
330
1F
100
AcDbEntity
  8
Layer 1
 62
   250
100
AcDbSpline
210
0.0
220
0.0
230
1.0
 70
    11
 71
     3
 72
    32
 73
    28
 74
     0
 42
0.0000000001
 43
0.0000000001
 40
0.0
 40
0.0
 40
0.0
 40
0.0
 40
0.1111111111111111
 40
0.1111111111111111
 40
0.1111111111111111
 40
0.2222222222222222
 40
0.2222222222222222
 40
0.2222222222222222
 40
0.3333333333333333
 40
0.3333333333333333
 40
0.3333333333333333
 40
0.4444444444444444
 40
0.4444444444444444
 40
0.4444444444444444
 40
0.5555555555555556
 40
0.5555555555555556
 40
0.5555555555555556
 40
0.6666666666666666
 40
0.6666666666666666
 40
0.6666666666666666
 40
0.7777777777777777
 40
0.7777777777777777
 40
0.7777777777777777
 40
0.8888888888888888
 40
0.8888888888888888
 40
0.8888888888888888
 40
1.0
 40
1.0
 40
1.0
 40
1.0
 10
5.5316
 20
-9.8118
 30
0.0
 10
4.5927
 20
-8.8574
 30
0.0
 10
3.3533
 20
-9.0057
 30
0.0
 10
2.6261
 20
-9.6681
 30
0.0
 10
1.8968
 20
-10.3331
 30
0.0
 10
1.7067
 20
-11.5476
 30
0.0
 10
2.2335
 20
-12.2922
 30
0.0
 10
2.8278
 20
-11.724
 30
0.0
 10
3.5281
 20
-11.4837
 30
0.0
 10
4.3462
 20
-11.6318
 30
0.0
 10
4.8961
 20
-11.7315
 30
0.0
 10
5.3751
 20
-12.01
 30
0.0
 10
5.6889
 20
-12.4392
 30
0.0
 10
6.4635
 20
-13.4984
 30
0.0
 10
6.3339
 20
-14.7237
 30
0.0
 10
5.542
 20
-15.5817
 30
0.0
 10
4.8007
 20
-16.3849
 30
0.0
 10
3.523
 20
-16.5152
 30
0.0
 10
2.6112
 20
-15.8951
 30
0.0
 10
1.6831
 20
-15.2646
 30
0.0
 10
1.2049
 20
-13.8844
 30
0.0
 10
1.9741
 20
-12.6168
 30
0.0
 10
1.109
 20
-11.3172
 30
0.0
 10
1.6494
 20
-9.8275
 30
0.0
 10
2.6772
 20
-9.236
 30
0.0
 10
3.6442
 20
-8.6794
 30
0.0
 10
4.9904
 20
-8.943
 30
0.0
 10
5.5316
 20
-9.8118
 30
0.0
  0
SPLINE
  5
66
330
1F
100
AcDbEntity
  8
Layer 1
 62
   250
100
AcDbSpline
210
0.0
220
0.0
230
1.0
 70
    11
 71
     3
 72
    23
 73
    19
 74
     0
 42
0.0000000001
 43
0.0000000001
 40
0.0
 40
0.0
 40
0.0
 40
0.0
 40
0.1666666666666667
 40
0.1666666666666667
 40
0.1666666666666667
 40
0.3333333333333333
 40
0.3333333333333333
 40
0.3333333333333333
 40
0.5
 40
0.5
 40
0.5
 40
0.6666666666666666
 40
0.6666666666666666
 40
0.6666666666666666
 40
0.8333333333333333
 40
0.8333333333333333
 40
0.8333333333333333
 40
1.0
 40
1.0
 40
1.0
 40
1.0
 10
-3.4333
 20
-13.0919
 30
0.0
 10
-3.4794
 20
-12.7672
 30
0.0
 10
-3.5666
 20
-12.4776
 30
0.0
 10
-3.7522
 20
-12.2326
 30
0.0
 10
-3.8418
 20
-12.1139
 30
0.0
 10
-3.9651
 20
-12.0006
 30
0.0
 10
-4.0983
 20
-11.937
 30
0.0
 10
-4.376
 20
-11.8038
 30
0.0
 10
-4.657
 20
-11.959
 30
0.0
 10
-4.7156
 20
-12.2559
 30
0.0
 10
-4.7712
 20
-12.5373
 30
0.0
 10
-4.6885
 20
-12.7904
 30
0.0
 10
-4.5312
 20
-13.0208
 30
0.0
 10
-4.508
 20
-13.0544
 30
0.0
 10
-4.4578
 20
-13.0881
 30
0.0
 10
-4.4195
 20
-13.0884
 30
0.0
 10
-4.097
 20
-13.0943
 30
0.0
 10
-3.7737
 20
-13.0919
 30
0.0
 10
-3.4333
 20
-13.0919
 30
0.0
  0
SPLINE
  5
67
330
1F
100
AcDbEntity
  8
Layer 1
 62
   250
100
AcDbSpline
210
0.0
220
0.0
230
1.0
 70
    11
 71
     3
 72
   113
 73
   109
 74
     0
 42
0.0000000001
 43
0.0000000001
 40
0.0
 40
0.0
 40
0.0
 40
0.0
 40
0.0277777777777778
 40
0.0277777777777778
 40
0.0277777777777778
 40
0.0555555555555556
 40
0.0555555555555556
 40
0.0555555555555556
 40
0.0833333333333333
 40
0.0833333333333333
 40
0.0833333333333333
 40
0.1111111111111111
 40
0.1111111111111111
 40
0.1111111111111111
 40
0.1388888888888889
 40
0.1388888888888889
 40
0.1388888888888889
 40
0.1666666666666667
 40
0.1666666666666667
 40
0.1666666666666667
 40
0.1944444444444444
 40
0.1944444444444444
 40
0.1944444444444444
 40
0.2222222222222222
 40
0.2222222222222222
 40
0.2222222222222222
 40
0.25
 40
0.25
 40
0.25
 40
0.2777777777777778
 40
0.2777777777777778
 40
0.2777777777777778
 40
0.3055555555555555
 40
0.3055555555555555
 40
0.3055555555555555
 40
0.3333333333333333
 40
0.3333333333333333
 40
0.3333333333333333
 40
0.3611111111111111
 40
0.3611111111111111
 40
0.3611111111111111
 40
0.3888888888888888
 40
0.3888888888888888
 40
0.3888888888888888
 40
0.4166666666666666
 40
0.4166666666666666
 40
0.4166666666666666
 40
0.4444444444444444
 40
0.4444444444444444
 40
0.4444444444444444
 40
0.4722222222222222
 40
0.4722222222222222
 40
0.4722222222222222
 40
0.5
 40
0.5
 40
0.5
 40
0.5277777777777778
 40
0.5277777777777778
 40
0.5277777777777778
 40
0.5555555555555556
 40
0.5555555555555556
 40
0.5555555555555556
 40
0.5833333333333333
 40
0.5833333333333333
 40
0.5833333333333333
 40
0.611111111111111
 40
0.611111111111111
 40
0.611111111111111
 40
0.6388888888888888
 40
0.6388888888888888
 40
0.6388888888888888
 40
0.6666666666666666
 40
0.6666666666666666
 40
0.6666666666666666
 40
0.6944444444444444
 40
0.6944444444444444
 40
0.6944444444444444
 40
0.7222222222222222
 40
0.7222222222222222
 40
0.7222222222222222
 40
0.75
 40
0.75
 40
0.75
 40
0.7777777777777777
 40
0.7777777777777777
 40
0.7777777777777777
 40
0.8055555555555555
 40
0.8055555555555555
 40
0.8055555555555555
 40
0.8333333333333333
 40
0.8333333333333333
 40
0.8333333333333333
 40
0.861111111111111
 40
0.861111111111111
 40
0.861111111111111
 40
0.8888888888888888
 40
0.8888888888888888
 40
0.8888888888888888
 40
0.9166666666666666
 40
0.9166666666666666
 40
0.9166666666666666
 40
0.9444444444444444
 40
0.9444444444444444
 40
0.9444444444444444
 40
0.9722222222222222
 40
0.9722222222222222
 40
0.9722222222222222
 40
1.0
 40
1.0
 40
1.0
 40
1.0
 10
-4.6284
 20
-13.1454
 30
0.0
 10
-4.6973
 20
-13.0001
 30
0.0
 10
-4.7658
 20
-12.8548
 30
0.0
 10
-4.8355
 20
-12.7096
 30
0.0
 10
-4.9617
 20
-12.4472
 30
0.0
 10
-5.0207
 20
-12.1769
 30
0.0
 10
-4.9637
 20
-11.8843
 30
0.0
 10
-4.9127
 20
-11.627
 30
0.0
 10
-4.8011
 20
-11.4157
 30
0.0
 10
-4.5317
 20
-11.3526
 30
0.0
 10
-4.2473
 20
-11.2854
 30
0.0
 10
-3.9742
 20
-11.3477
 30
0.0
 10
-3.8123
 20
-11.6025
 30
0.0
 10
-3.6808
 20
-11.8096
 30
0.0
 10
-3.5878
 20
-12.047
 30
0.0
 10
-3.511
 20
-12.2824
 30
0.0
 10
-3.428
 20
-12.5377
 30
0.0
 10
-3.384
 20
-12.8058
 30
0.0
 10
-3.3134
 20
-13.1076
 30
0.0
 10
-3.0607
 20
-13.0881
 30
0.0
 10
-2.795
 20
-13.0943
 30
0.0
 10
-2.5418
 20
-13.0416
 30
0.0
 10
-2.1835
 20
-12.9669
 30
0.0
 10
-2.0761
 20
-12.6103
 30
0.0
 10
-2.3285
 20
-12.3434
 30
0.0
 10
-2.4389
 20
-12.226
 30
0.0
 10
-2.6032
 20
-12.1571
 30
0.0
 10
-2.7477
 20
-12.0732
 30
0.0
 10
-2.8049
 20
-12.04
 30
0.0
 10
-2.8771
 20
-12.0329
 30
0.0
 10
-2.9361
 20
-12.0022
 30
0.0
 10
-3.0765
 20
-11.9292
 30
0.0
 10
-3.1336
 20
-11.8084
 30
0.0
 10
-3.0668
 20
-11.6639
 30
0.0
 10
-3.0009
 20
-11.5208
 30
0.0
 10
-2.8673
 20
-11.5112
 30
0.0
 10
-2.7361
 20
-11.5661
 30
0.0
 10
-2.5152
 20
-11.6577
 30
0.0
 10
-2.3517
 20
-11.8147
 30
0.0
 10
-2.2487
 20
-12.0313
 30
0.0
 10
-2.1039
 20
-12.3364
 30
0.0
 10
-2.0824
 20
-12.661
 30
0.0
 10
-2.1384
 20
-12.9843
 30
0.0
 10
-2.2068
 20
-13.3802
 30
0.0
 10
-2.4908
 20
-13.6062
 30
0.0
 10
-2.8937
 20
-13.6127
 30
0.0
 10
-3.1847
 20
-13.6177
 30
0.0
 10
-3.4761
 20
-13.6136
 30
0.0
 10
-3.7666
 20
-13.6144
 30
0.0
 10
-3.8315
 20
-13.6149
 30
0.0
 10
-3.8962
 20
-13.6203
 30
0.0
 10
-3.9813
 20
-13.6684
 30
0.0
 10
-3.7331
 20
-13.8469
 30
0.0
 10
-3.489
 20
-14.0328
 30
0.0
 10
-3.2333
 20
-14.2001
 30
0.0
 10
-3.1382
 20
-14.2619
 30
0.0
 10
-3.0175
 20
-14.2947
 30
0.0
 10
-2.9042
 20
-14.3163
 30
0.0
 10
-2.7252
 20
-14.3499
 30
0.0
 10
-2.5975
 20
-14.2889
 30
0.0
 10
-2.5941
 20
-14.0602
 30
0.0
 10
-2.4563
 20
-14.3346
 30
0.0
 10
-2.3289
 20
-14.5878
 30
0.0
 10
-2.1977
 20
-14.8476
 30
0.0
 10
-2.2645
 20
-14.8546
 30
0.0
 10
-2.3484
 20
-14.8633
 30
0.0
 10
-2.4612
 20
-14.8745
 30
0.0
 10
-2.4147
 20
-14.9385
 30
0.0
 10
-2.384
 20
-14.9879
 30
0.0
 10
-2.3463
 20
-15.0315
 30
0.0
 10
-2.0711
 20
-15.3474
 30
0.0
 10
-2.062
 20
-15.7068
 30
0.0
 10
-2.1852
 20
-16.0796
 30
0.0
 10
-2.2758
 20
-16.353
 30
0.0
 10
-2.4903
 20
-16.4872
 30
0.0
 10
-2.8182
 20
-16.4905
 30
0.0
 10
-3.2515
 20
-16.495
 30
0.0
 10
-3.6845
 20
-16.5
 30
0.0
 10
-4.117
 20
-16.4896
 30
0.0
 10
-4.4744
 20
-16.4805
 30
0.0
 10
-4.7949
 20
-16.5233
 30
0.0
 10
-4.9742
 20
-16.8968
 30
0.0
 10
-4.9742
 20
-16.8968
 30
0.0
 10
-4.9742
 20
-15.5561
 30
0.0
 10
-4.9742
 20
-15.5561
 30
0.0
 10
-4.7944
 20
-15.9256
 30
0.0
 10
-4.474
 20
-15.972
 30
0.0
 10
-4.119
 20
-15.9625
 30
0.0
 10
-3.6799
 20
-15.9504
 30
0.0
 10
-3.24
 20
-15.9492
 30
0.0
 10
-2.8008
 20
-15.9433
 30
0.0
 10
-2.5945
 20
-15.9409
 30
0.0
 10
-2.4052
 20
-15.8977
 30
0.0
 10
-2.3093
 20
-15.6898
 30
0.0
 10
-2.2134
 20
-15.4811
 30
0.0
 10
-2.2658
 20
-15.2763
 30
0.0
 10
-2.4136
 20
-15.1253
 30
0.0
 10
-2.7011
 20
-14.8318
 30
0.0
 10
-3.0067
 20
-14.5537
 30
0.0
 10
-3.3164
 20
-14.2827
 30
0.0
 10
-3.6916
 20
-13.9543
 30
0.0
 10
-4.0788
 20
-13.6393
 30
0.0
 10
-4.4615
 20
-13.3197
 30
0.0
 10
-4.4864
 20
-13.2985
 30
0.0
 10
-4.5172
 20
-13.2845
 30
0.0
 10
-4.5458
 20
-13.2674
 30
0.0
 10
-4.5732
 20
-13.2267
 30
0.0
 10
-4.601
 20
-13.186
 30
0.0
 10
-4.6284
 20
-13.1454
 30
0.0
  0
SPLINE
  5
68
330
1F
100
AcDbEntity
  8
Layer 1
 62
   250
100
AcDbSpline
210
0.0
220
0.0
230
1.0
 70
    11
 71
     3
 72
    17
 73
    13
 74
     0
 42
0.0000000001
 43
0.0000000001
 40
0.0
 40
0.0
 40
0.0
 40
0.0
 40
0.25
 40
0.25
 40
0.25
 40
0.5
 40
0.5
 40
0.5
 40
0.75
 40
0.75
 40
0.75
 40
1.0
 40
1.0
 40
1.0
 40
1.0
 10
7.4523
 20
15.7833
 30
0.0
 10
8.2894
 20
16.9223
 30
0.0
 10
9.127
 20
18.0608
 30
0.0
 10
9.9904
 20
19.235
 30
0.0
 10
10.4765
 20
18.6212
 30
0.0
 10
10.9418
 20
18.0334
 30
0.0
 10
11.4216
 20
17.427
 30
0.0
 10
10.0991
 20
16.8555
 30
0.0
 10
8.7983
 20
16.293
 30
0.0
 10
7.4975
 20
15.7306
 30
0.0
 10
7.4825
 20
15.7484
 30
0.0
 10
7.4672
 20
15.7659
 30
0.0
 10
7.4523
 20
15.7833
 30
0.0
  0
SPLINE
  5
69
330
1F
100
AcDbEntity
  8
Layer 1
 62
   250
100
AcDbSpline
210
0.0
220
0.0
230
1.0
 70
    11
 71
     3
 72
    62
 73
    58
 74
     0
 42
0.0000000001
 43
0.0000000001
 40
0.0
 40
0.0
 40
0.0
 40
0.0
 40
0.0526315789473684
 40
0.0526315789473684
 40
0.0526315789473684
 40
0.1052631578947368
 40
0.1052631578947368
 40
0.1052631578947368
 40
0.1578947368421053
 40
0.1578947368421053
 40
0.1578947368421053
 40
0.2105263157894737
 40
0.2105263157894737
 40
0.2105263157894737
 40
0.2631578947368421
 40
0.2631578947368421
 40
0.2631578947368421
 40
0.3157894736842105
 40
0.3157894736842105
 40
0.3157894736842105
 40
0.3684210526315789
 40
0.3684210526315789
 40
0.3684210526315789
 40
0.4210526315789473
 40
0.4210526315789473
 40
0.4210526315789473
 40
0.4736842105263158
 40
0.4736842105263158
 40
0.4736842105263158
 40
0.5263157894736842
 40
0.5263157894736842
 40
0.5263157894736842
 40
0.5789473684210527
 40
0.5789473684210527
 40
0.5789473684210527
 40
0.631578947368421
 40
0.631578947368421
 40
0.631578947368421
 40
0.6842105263157894
 40
0.6842105263157894
 40
0.6842105263157894
 40
0.7368421052631579
 40
0.7368421052631579
 40
0.7368421052631579
 40
0.7894736842105263
 40
0.7894736842105263
 40
0.7894736842105263
 40
0.8421052631578947
 40
0.8421052631578947
 40
0.8421052631578947
 40
0.894736842105263
 40
0.894736842105263
 40
0.894736842105263
 40
0.9473684210526315
 40
0.9473684210526315
 40
0.9473684210526315
 40
1.0
 40
1.0
 40
1.0
 40
1.0
 10
-4.9474
 20
-11.1668
 30
0.0
 10
-4.9639
 20
-10.9003
 30
0.0
 10
-5.008
 20
-10.6737
 30
0.0
 10
-4.8323
 20
-10.5222
 30
0.0
 10
-4.7195
 20
-10.4255
 30
0.0
 10
-4.553
 20
-10.3458
 30
0.0
 10
-4.4073
 20
-10.34
 30
0.0
 10
-3.8873
 20
-10.3184
 30
0.0
 10
-3.3659
 20
-10.3338
 30
0.0
 10
-2.8454
 20
-10.3309
 30
0.0
 10
-2.4099
 20
-10.3284
 30
0.0
 10
-2.2568
 20
-10.169
 30
0.0
 10
-2.2763
 20
-9.7389
 30
0.0
 10
-2.28
 20
-9.6522
 30
0.0
 10
-2.2971
 20
-9.5642
 30
0.0
 10
-2.3203
 20
-9.4804
 30
0.0
 10
-2.434
 20
-9.0699
 30
0.0
 10
-2.4822
 20
-9.0354
 30
0.0
 10
-2.903
 20
-9.0354
 30
0.0
 10
-3.3227
 20
-9.0354
 30
0.0
 10
-3.7424
 20
-9.042
 30
0.0
 10
-4.1612
 20
-9.0333
 30
0.0
 10
-4.4957
 20
-9.0267
 30
0.0
 10
-4.7788
 20
-9.1002
 30
0.0
 10
-4.9594
 20
-9.4368
 30
0.0
 10
-4.9594
 20
-9.4368
 30
0.0
 10
-4.9594
 20
-8.7619
 30
0.0
 10
-4.9594
 20
-8.7619
 30
0.0
 10
-4.9594
 20
-8.7619
 30
0.0
 10
-4.9594
 20
-8.1011
 30
0.0
 10
-4.9594
 20
-8.1011
 30
0.0
 10
-4.7697
 20
-8.4726
 30
0.0
 10
-4.4475
 20
-8.5057
 30
0.0
 10
-4.0927
 20
-8.5024
 30
0.0
 10
-3.1728
 20
-8.4942
 30
0.0
 10
-2.2531
 20
-8.4975
 30
0.0
 10
-1.3329
 20
-8.5016
 30
0.0
 10
-1.1631
 20
-8.5024
 30
0.0
 10
-1.034
 20
-8.4755
 30
0.0
 10
-1.0501
 20
-8.2128
 30
0.0
 10
-0.8962
 20
-8.5124
 30
0.0
 10
-0.7679
 20
-8.7622
 30
0.0
 10
-0.6297
 20
-9.0321
 30
0.0
 10
-0.6297
 20
-9.0321
 30
0.0
 10
-2.3518
 20
-9.0321
 30
0.0
 10
-2.3518
 20
-9.0321
 30
0.0
 10
-2.2659
 20
-9.2998
 30
0.0
 10
-2.163
 20
-9.5351
 30
0.0
 10
-2.117
 20
-9.7818
 30
0.0
 10
-1.9915
 20
-10.4508
 30
0.0
 10
-2.3398
 20
-10.8605
 30
0.0
 10
-3.0114
 20
-10.8626
 30
0.0
 10
-3.4444
 20
-10.8634
 30
0.0
 10
-3.8772
 20
-10.8605
 30
0.0
 10
-4.3102
 20
-10.8639
 30
0.0
 10
-4.5464
 20
-10.865
 30
0.0
 10
-4.7692
 20
-10.9079
 30
0.0
 10
-4.9474
 20
-11.1668
 30
0.0
  0
SPLINE
  5
6A
330
1F
100
AcDbEntity
  8
Layer 1
 62
   250
100
AcDbSpline
210
0.0
220
0.0
230
1.0
 70
    11
 71
     3
 72
    23
 73
    19
 74
     0
 42
0.0000000001
 43
0.0000000001
 40
0.0
 40
0.0
 40
0.0
 40
0.0
 40
0.1666666666666667
 40
0.1666666666666667
 40
0.1666666666666667
 40
0.3333333333333333
 40
0.3333333333333333
 40
0.3333333333333333
 40
0.5
 40
0.5
 40
0.5
 40
0.6666666666666666
 40
0.6666666666666666
 40
0.6666666666666666
 40
0.8333333333333333
 40
0.8333333333333333
 40
0.8333333333333333
 40
1.0
 40
1.0
 40
1.0
 40
1.0
 10
12.8342
 20
15.6373
 30
0.0
 10
12.8342
 20
15.6373
 30
0.0
 10
8.3273
 20
15.6373
 30
0.0
 10
8.3273
 20
15.6373
 30
0.0
 10
8.3235
 20
15.6575
 30
0.0
 10
8.3199
 20
15.6783
 30
0.0
 10
8.3166
 20
15.6987
 30
0.0
 10
8.439
 20
15.7609
 30
0.0
 10
8.5582
 20
15.8298
 30
0.0
 10
8.6839
 20
15.8842
 30
0.0
 10
9.614
 20
16.2856
 30
0.0
 10
10.5439
 20
16.6861
 30
0.0
 10
11.4769
 20
17.0796
 30
0.0
 10
11.5405
 20
17.1061
 30
0.0
 10
11.6666
 20
17.1049
 30
0.0
 10
11.6998
 20
17.0642
 30
0.0
 10
12.0809
 20
16.5998
 30
0.0
 10
12.4495
 20
16.1253
 30
0.0
 10
12.8342
 20
15.6373
 30
0.0
  0
SPLINE
  5
6B
330
1F
100
AcDbEntity
  8
Layer 1
 62
   250
100
AcDbSpline
210
0.0
220
0.0
230
1.0
 70
    11
 71
     3
 72
    50
 73
    46
 74
     0
 42
0.0000000001
 43
0.0000000001
 40
0.0
 40
0.0
 40
0.0
 40
0.0
 40
0.0666666666666667
 40
0.0666666666666667
 40
0.0666666666666667
 40
0.1333333333333333
 40
0.1333333333333333
 40
0.1333333333333333
 40
0.2
 40
0.2
 40
0.2
 40
0.2666666666666667
 40
0.2666666666666667
 40
0.2666666666666667
 40
0.3333333333333333
 40
0.3333333333333333
 40
0.3333333333333333
 40
0.4
 40
0.4
 40
0.4
 40
0.4666666666666667
 40
0.4666666666666667
 40
0.4666666666666667
 40
0.5333333333333333
 40
0.5333333333333333
 40
0.5333333333333333
 40
0.6
 40
0.6
 40
0.6
 40
0.6666666666666666
 40
0.6666666666666666
 40
0.6666666666666666
 40
0.7333333333333333
 40
0.7333333333333333
 40
0.7333333333333333
 40
0.8
 40
0.8
 40
0.8
 40
0.8666666666666667
 40
0.8666666666666667
 40
0.8666666666666667
 40
0.9333333333333333
 40
0.9333333333333333
 40
0.9333333333333333
 40
1.0
 40
1.0
 40
1.0
 40
1.0
 10
2.9851
 20
-17.9746
 30
0.0
 10
2.3579
 20
-17.2018
 30
0.0
 10
1.8851
 20
-16.3811
 30
0.0
 10
1.5577
 20
-15.4763
 30
0.0
 10
1.1094
 20
-14.2389
 30
0.0
 10
1.0089
 20
-12.9617
 30
0.0
 10
1.1176
 20
-11.6605
 30
0.0
 10
1.2588
 20
-9.9737
 30
0.0
 10
1.7432
 20
-8.3598
 30
0.0
 10
2.172
 20
-6.734
 30
0.0
 10
2.4895
 20
-5.5315
 30
0.0
 10
2.7833
 20
-4.3248
 30
0.0
 10
2.8958
 20
-3.0809
 30
0.0
 10
3.0851
 20
-0.9831
 30
0.0
 10
2.6398
 20
0.9478
 30
0.0
 10
1.4174
 20
2.682
 30
0.0
 10
1.3941
 20
2.7149
 30
0.0
 10
1.3726
 20
2.7489
 30
0.0
 10
1.3514
 20
2.7829
 30
0.0
 10
1.3493
 20
2.7862
 30
0.0
 10
1.3542
 20
2.7942
 30
0.0
 10
1.3613
 20
2.8157
 30
0.0
 10
1.3995
 20
2.7733
 30
0.0
 10
1.4352
 20
2.7389
 30
0.0
 10
1.4647
 20
2.6999
 30
0.0
 10
2.4293
 20
1.4185
 30
0.0
 10
2.9685
 20
-0.0197
 30
0.0
 10
3.0843
 20
-1.6223
 30
0.0
 10
3.1881
 20
-3.0643
 30
0.0
 10
2.9469
 20
-4.4655
 30
0.0
 10
2.6078
 20
-5.8549
 30
0.0
 10
2.2812
 20
-7.193
 30
0.0
 10
1.9184
 20
-8.5229
 30
0.0
 10
1.5992
 20
-9.8623
 30
0.0
 10
1.3713
 20
-10.8175
 30
0.0
 10
1.2472
 20
-11.7891
 30
0.0
 10
1.2509
 20
-12.7754
 30
0.0
 10
1.2575
 20
-14.598
 30
0.0
 10
1.805
 20
-16.2434
 30
0.0
 10
2.8577
 20
-17.7256
 30
0.0
 10
2.9004
 20
-17.7862
 30
0.0
 10
2.9427
 20
-17.8468
 30
0.0
 10
2.9846
 20
-17.9082
 30
0.0
 10
2.9876
 20
-17.9124
 30
0.0
 10
2.9851
 20
-17.9202
 30
0.0
 10
2.9851
 20
-17.9746
 30
0.0
  0
SPLINE
  5
6C
330
1F
100
AcDbEntity
  8
Layer 1
 62
   250
100
AcDbSpline
210
0.0
220
0.0
230
1.0
 70
    11
 71
     3
 72
    26
 73
    22
 74
     0
 42
0.0000000001
 43
0.0000000001
 40
0.0
 40
0.0
 40
0.0
 40
0.0
 40
0.1428571428571428
 40
0.1428571428571428
 40
0.1428571428571428
 40
0.2857142857142857
 40
0.2857142857142857
 40
0.2857142857142857
 40
0.4285714285714285
 40
0.4285714285714285
 40
0.4285714285714285
 40
0.5714285714285714
 40
0.5714285714285714
 40
0.5714285714285714
 40
0.7142857142857142
 40
0.7142857142857142
 40
0.7142857142857142
 40
0.8571428571428571
 40
0.8571428571428571
 40
0.8571428571428571
 40
1.0
 40
1.0
 40
1.0
 40
1.0
 10
7.6125
 20
16.6562
 30
0.0
 10
7.9321
 20
18.0903
 30
0.0
 10
8.2518
 20
19.5244
 30
0.0
 10
8.58
 20
20.9979
 30
0.0
 10
8.6485
 20
20.9228
 30
0.0
 10
8.6938
 20
20.8779
 30
0.0
 10
8.7332
 20
20.8286
 30
0.0
 10
9.0487
 20
20.4313
 30
0.0
 10
9.3592
 20
20.03
 30
0.0
 10
9.68
 20
19.6373
 30
0.0
 10
9.768
 20
19.5298
 30
0.0
 10
9.7746
 20
19.458
 30
0.0
 10
9.6887
 20
19.3439
 30
0.0
 10
9.0226
 20
18.4572
 30
0.0
 10
8.3638
 20
17.5652
 30
0.0
 10
7.7018
 20
16.6754
 30
0.0
 10
7.691
 20
16.6604
 30
0.0
 10
7.6736
 20
16.6504
 30
0.0
 10
7.6595
 20
16.6384
 30
0.0
 10
7.6437
 20
16.6442
 30
0.0
 10
7.6283
 20
16.65
 30
0.0
 10
7.6125
 20
16.6562
 30
0.0
  0
SPLINE
  5
6D
330
1F
100
AcDbEntity
  8
Layer 1
 62
   250
100
AcDbSpline
210
0.0
220
0.0
230
1.0
 70
    11
 71
     3
 72
    20
 73
    16
 74
     0
 42
0.0000000001
 43
0.0000000001
 40
0.0
 40
0.0
 40
0.0
 40
0.0
 40
0.2
 40
0.2
 40
0.2
 40
0.4
 40
0.4
 40
0.4
 40
0.6000000000000001
 40
0.6000000000000001
 40
0.6000000000000001
 40
0.8
 40
0.8
 40
0.8
 40
1.0
 40
1.0
 40
1.0
 40
1.0
 10
-10.3567
 20
-21.0082
 30
0.0
 10
-10.4198
 20
-21.4549
 30
0.0
 10
-10.3236
 20
-21.8205
 30
0.0
 10
-10.0604
 20
-22.1265
 30
0.0
 10
-9.9973
 20
-22.2
 30
0.0
 10
-9.891
 20
-22.2361
 30
0.0
 10
-9.8047
 20
-22.2896
 30
0.0
 10
-9.7428
 20
-22.187
 30
0.0
 10
-9.6561
 20
-22.0903
 30
0.0
 10
-9.627
 20
-21.9795
 30
0.0
 10
-9.6058
 20
-21.8974
 30
0.0
 10
-9.6311
 20
-21.7699
 30
0.0
 10
-9.6863
 20
-21.7072
 30
0.0
 10
-9.8985
 20
-21.4649
 30
0.0
 10
-10.1313
 20
-21.2399
 30
0.0
 10
-10.3567
 20
-21.0082
 30
0.0
  0
SPLINE
  5
6E
330
1F
100
AcDbEntity
  8
Layer 1
 62
   250
100
AcDbSpline
210
0.0
220
0.0
230
1.0
 70
    11
 71
     3
 72
    77
 73
    73
 74
     0
 42
0.0000000001
 43
0.0000000001
 40
0.0
 40
0.0
 40
0.0
 40
0.0
 40
0.0416666666666667
 40
0.0416666666666667
 40
0.0416666666666667
 40
0.0833333333333333
 40
0.0833333333333333
 40
0.0833333333333333
 40
0.125
 40
0.125
 40
0.125
 40
0.1666666666666667
 40
0.1666666666666667
 40
0.1666666666666667
 40
0.2083333333333333
 40
0.2083333333333333
 40
0.2083333333333333
 40
0.25
 40
0.25
 40
0.25
 40
0.2916666666666666
 40
0.2916666666666666
 40
0.2916666666666666
 40
0.3333333333333333
 40
0.3333333333333333
 40
0.3333333333333333
 40
0.375
 40
0.375
 40
0.375
 40
0.4166666666666666
 40
0.4166666666666666
 40
0.4166666666666666
 40
0.4583333333333333
 40
0.4583333333333333
 40
0.4583333333333333
 40
0.5
 40
0.5
 40
0.5
 40
0.5416666666666666
 40
0.5416666666666666
 40
0.5416666666666666
 40
0.5833333333333333
 40
0.5833333333333333
 40
0.5833333333333333
 40
0.625
 40
0.625
 40
0.625
 40
0.6666666666666666
 40
0.6666666666666666
 40
0.6666666666666666
 40
0.7083333333333333
 40
0.7083333333333333
 40
0.7083333333333333
 40
0.75
 40
0.75
 40
0.75
 40
0.7916666666666666
 40
0.7916666666666666
 40
0.7916666666666666
 40
0.8333333333333333
 40
0.8333333333333333
 40
0.8333333333333333
 40
0.875
 40
0.875
 40
0.875
 40
0.9166666666666666
 40
0.9166666666666666
 40
0.9166666666666666
 40
0.9583333333333333
 40
0.9583333333333333
 40
0.9583333333333333
 40
1.0
 40
1.0
 40
1.0
 40
1.0
 10
-11.2246
 20
-19.9108
 30
0.0
 10
-11.5733
 20
-19.7136
 30
0.0
 10
-11.9286
 20
-19.553
 30
0.0
 10
-12.2362
 20
-19.328
 30
0.0
 10
-12.7069
 20
-18.9831
 30
0.0
 10
-12.7156
 20
-18.5485
 30
0.0
 10
-12.2909
 20
-18.184
 30
0.0
 10
-12.2345
 20
-18.1356
 30
0.0
 10
-12.0863
 20
-18.1032
 30
0.0
 10
-12.0477
 20
-18.138
 30
0.0
 10
-11.5426
 20
-18.5926
 30
0.0
 10
-10.9129
 20
-18.5095
 30
0.0
 10
-10.3231
 20
-18.5182
 30
0.0
 10
-9.5838
 20
-18.529
 30
0.0
 10
-8.9127
 20
-18.7573
 30
0.0
 10
-8.239
 20
-19.0055
 30
0.0
 10
-8.2406
 20
-19.0313
 30
0.0
 10
-8.2428
 20
-19.0574
 30
0.0
 10
-8.2444
 20
-19.0832
 30
0.0
 10
-8.6561
 20
-19.0558
 30
0.0
 10
-9.0684
 20
-19.033
 30
0.0
 10
-9.4792
 20
-18.9993
 30
0.0
 10
-9.9055
 20
-18.9648
 30
0.0
 10
-10.338
 20
-18.9553
 30
0.0
 10
-10.7548
 20
-18.8694
 30
0.0
 10
-11.1669
 20
-18.7843
 30
0.0
 10
-11.5625
 20
-18.6174
 30
0.0
 10
-11.963
 20
-18.488
 30
0.0
 10
-12.0477
 20
-18.9449
 30
0.0
 10
-11.7248
 20
-19.4514
 30
0.0
 10
-11.2131
 20
-19.5315
 30
0.0
 10
-10.7062
 20
-19.6111
 30
0.0
 10
-10.1886
 20
-19.629
 30
0.0
 10
-9.6743
 20
-19.6551
 30
0.0
 10
-9.0446
 20
-19.6871
 30
0.0
 10
-8.4618
 20
-19.8735
 30
0.0
 10
-7.9032
 20
-20.186
 30
0.0
 10
-8.3012
 20
-20.1528
 30
0.0
 10
-8.6989
 20
-20.1175
 30
0.0
 10
-9.0973
 20
-20.0877
 30
0.0
 10
-9.3203
 20
-20.0711
 30
0.0
 10
-9.544
 20
-20.0524
 30
0.0
 10
-9.7669
 20
-20.0586
 30
0.0
 10
-9.8893
 20
-20.0619
 30
0.0
 10
-10.0218
 20
-20.0914
 30
0.0
 10
-10.1293
 20
-20.1482
 30
0.0
 10
-10.4563
 20
-20.3218
 30
0.0
 10
-10.4668
 20
-20.6878
 30
0.0
 10
-10.1881
 20
-20.9099
 30
0.0
 10
-9.7224
 20
-21.2818
 30
0.0
 10
-9.1696
 20
-21.1992
 30
0.0
 10
-8.647
 20
-21.2071
 30
0.0
 10
-8.0074
 20
-21.2171
 30
0.0
 10
-7.4321
 20
-21.4059
 30
0.0
 10
-6.8734
 20
-21.7159
 30
0.0
 10
-7.7587
 20
-21.6392
 30
0.0
 10
-8.6446
 20
-21.562
 30
0.0
 10
-9.4892
 20
-21.4885
 30
0.0
 10
-9.4078
 20
-21.574
 30
0.0
 10
-9.2687
 20
-21.7044
 30
0.0
 10
-9.1489
 20
-21.8496
 30
0.0
 10
-8.9891
 20
-22.0427
 30
0.0
 10
-8.9189
 20
-22.2622
 30
0.0
 10
-9.0621
 20
-22.4946
 30
0.0
 10
-9.2116
 20
-22.7388
 30
0.0
 10
-9.4431
 20
-22.7026
 30
0.0
 10
-9.6598
 20
-22.6242
 30
0.0
 10
-10.3285
 20
-22.3821
 30
0.0
 10
-10.888
 20
-21.9837
 30
0.0
 10
-11.2495
 20
-21.364
 30
0.0
 10
-11.5326
 20
-20.8796
 30
0.0
 10
-11.5617
 20
-20.3711
 30
0.0
 10
-11.2246
 20
-19.9108
 30
0.0
  0
SPLINE
  5
6F
330
1F
100
AcDbEntity
  8
Layer 1
 62
   250
100
AcDbSpline
210
0.0
220
0.0
230
1.0
 70
    11
 71
     3
 72
    62
 73
    58
 74
     0
 42
0.0000000001
 43
0.0000000001
 40
0.0
 40
0.0
 40
0.0
 40
0.0
 40
0.0526315789473684
 40
0.0526315789473684
 40
0.0526315789473684
 40
0.1052631578947368
 40
0.1052631578947368
 40
0.1052631578947368
 40
0.1578947368421053
 40
0.1578947368421053
 40
0.1578947368421053
 40
0.2105263157894737
 40
0.2105263157894737
 40
0.2105263157894737
 40
0.2631578947368421
 40
0.2631578947368421
 40
0.2631578947368421
 40
0.3157894736842105
 40
0.3157894736842105
 40
0.3157894736842105
 40
0.3684210526315789
 40
0.3684210526315789
 40
0.3684210526315789
 40
0.4210526315789473
 40
0.4210526315789473
 40
0.4210526315789473
 40
0.4736842105263158
 40
0.4736842105263158
 40
0.4736842105263158
 40
0.5263157894736842
 40
0.5263157894736842
 40
0.5263157894736842
 40
0.5789473684210527
 40
0.5789473684210527
 40
0.5789473684210527
 40
0.631578947368421
 40
0.631578947368421
 40
0.631578947368421
 40
0.6842105263157894
 40
0.6842105263157894
 40
0.6842105263157894
 40
0.7368421052631579
 40
0.7368421052631579
 40
0.7368421052631579
 40
0.7894736842105263
 40
0.7894736842105263
 40
0.7894736842105263
 40
0.8421052631578947
 40
0.8421052631578947
 40
0.8421052631578947
 40
0.894736842105263
 40
0.894736842105263
 40
0.894736842105263
 40
0.9473684210526315
 40
0.9473684210526315
 40
0.9473684210526315
 40
1.0
 40
1.0
 40
1.0
 40
1.0
 10
-9.9242
 20
-14.1892
 30
0.0
 10
-10.0666
 20
-14.1447
 30
0.0
 10
-10.2106
 20
-14.1057
 30
0.0
 10
-10.35
 20
-14.0547
 30
0.0
 10
-10.9599
 20
-13.8305
 30
0.0
 10
-11.5571
 20
-13.5632
 30
0.0
 10
-12.1798
 20
-13.3859
 30
0.0
 10
-12.8745
 20
-13.1888
 30
0.0
 10
-13.3341
 20
-13.5611
 30
0.0
 10
-13.3868
 20
-14.2842
 30
0.0
 10
-13.4424
 20
-15.0455
 30
0.0
 10
-13.0373
 20
-15.7851
 30
0.0
 10
-12.3806
 20
-16.1209
 30
0.0
 10
-12.0681
 20
-16.2811
 30
0.0
 10
-11.9809
 20
-16.2467
 30
0.0
 10
-11.873
 20
-15.9196
 30
0.0
 10
-11.7236
 20
-15.4647
 30
0.0
 10
-11.5542
 20
-15.333
 30
0.0
 10
-11.0947
 20
-15.4501
 30
0.0
 10
-9.9172
 20
-15.7506
 30
0.0
 10
-9.0695
 20
-16.4812
 30
0.0
 10
-8.4984
 20
-17.5429
 30
0.0
 10
-8.4689
 20
-17.5986
 30
0.0
 10
-8.4715
 20
-17.6716
 30
0.0
 10
-8.4515
 20
-17.7746
 30
0.0
 10
-8.8413
 20
-17.7808
 30
0.0
 10
-9.1352
 20
-17.5986
 30
0.0
 10
-9.4303
 20
-17.4238
 30
0.0
 10
-9.4551
 20
-17.4093
 30
0.0
 10
-9.4697
 20
-17.3582
 30
0.0
 10
-9.4697
 20
-17.3242
 30
0.0
 10
-9.4709
 20
-16.8174
 30
0.0
 10
-9.9525
 20
-16.1146
 30
0.0
 10
-10.4256
 20
-15.9312
 30
0.0
 10
-10.6037
 20
-15.8623
 30
0.0
 10
-10.7174
 20
-15.9395
 30
0.0
 10
-10.7627
 20
-16.1018
 30
0.0
 10
-10.8702
 20
-16.4899
 30
0.0
 10
-11.1425
 20
-16.5871
 30
0.0
 10
-11.5006
 20
-16.5463
 30
0.0
 10
-12.3561
 20
-16.448
 30
0.0
 10
-13.1609
 20
-16.2205
 30
0.0
 10
-13.8089
 20
-15.6124
 30
0.0
 10
-14.1272
 20
-15.3135
 30
0.0
 10
-14.3597
 20
-14.9662
 30
0.0
 10
-14.4377
 20
-14.5215
 30
0.0
 10
-14.6125
 20
-13.5279
 30
0.0
 10
-13.9974
 20
-12.8381
 30
0.0
 10
-12.9908
 20
-12.9729
 30
0.0
 10
-12.4674
 20
-13.0435
 30
0.0
 10
-11.9448
 20
-13.185
 30
0.0
 10
-11.4476
 20
-13.3652
 30
0.0
 10
-10.9142
 20
-13.5581
 30
0.0
 10
-10.4103
 20
-13.8346
 30
0.0
 10
-9.8935
 20
-14.075
 30
0.0
 10
-9.9034
 20
-14.1128
 30
0.0
 10
-9.9142
 20
-14.1509
 30
0.0
 10
-9.9242
 20
-14.1892
 30
0.0
  0
SPLINE
  5
70
330
1F
100
AcDbEntity
  8
Layer 1
 62
   250
100
AcDbSpline
210
0.0
220
0.0
230
1.0
 70
    11
 71
     3
 72
    23
 73
    19
 74
     0
 42
0.0000000001
 43
0.0000000001
 40
0.0
 40
0.0
 40
0.0
 40
0.0
 40
0.1666666666666667
 40
0.1666666666666667
 40
0.1666666666666667
 40
0.3333333333333333
 40
0.3333333333333333
 40
0.3333333333333333
 40
0.5
 40
0.5
 40
0.5
 40
0.6666666666666666
 40
0.6666666666666666
 40
0.6666666666666666
 40
0.8333333333333333
 40
0.8333333333333333
 40
0.8333333333333333
 40
1.0
 40
1.0
 40
1.0
 40
1.0
 10
-4.0077
 20
1.9457
 30
0.0
 10
-3.4673
 20
1.9785
 30
0.0
 10
-2.8418
 20
2.2076
 30
0.0
 10
-2.4919
 20
2.5273
 30
0.0
 10
-2.2724
 20
2.7278
 30
0.0
 10
-2.1553
 20
2.9648
 30
0.0
 10
-2.2363
 20
3.269
 30
0.0
 10
-2.3176
 20
3.5716
 30
0.0
 10
-2.5069
 20
3.7775
 30
0.0
 10
-2.8182
 20
3.8186
 30
0.0
 10
-3.5698
 20
3.9182
 30
0.0
 10
-4.2286
 20
3.6937
 30
0.0
 10
-4.742
 20
3.1395
 30
0.0
 10
-5.06
 20
2.7958
 30
0.0
 10
-4.9097
 20
2.2516
 30
0.0
 10
-4.4743
 20
2.0587
 30
0.0
 10
-4.3302
 20
1.9948
 30
0.0
 10
-4.1639
 20
1.9818
 30
0.0
 10
-4.0077
 20
1.9457
 30
0.0
  0
SPLINE
  5
71
330
1F
100
AcDbEntity
  8
Layer 1
 62
   250
100
AcDbSpline
210
0.0
220
0.0
230
1.0
 70
    11
 71
     3
 72
    17
 73
    13
 74
     0
 42
0.0000000001
 43
0.0000000001
 40
0.0
 40
0.0
 40
0.0
 40
0.0
 40
0.25
 40
0.25
 40
0.25
 40
0.5
 40
0.5
 40
0.5
 40
0.75
 40
0.75
 40
0.75
 40
1.0
 40
1.0
 40
1.0
 40
1.0
 10
-3.5437
 20
4.3408
 30
0.0
 10
-2.6758
 20
4.3391
 30
0.0
 10
-2.0781
 20
3.7488
 30
0.0
 10
-2.0826
 20
2.8984
 30
0.0
 10
-2.0877
 20
2.0698
 30
0.0
 10
-2.7015
 20
1.4672
 30
0.0
 10
-3.5442
 20
1.4634
 30
0.0
 10
-4.4054
 20
1.4601
 30
0.0
 10
-5.0338
 20
2.0757
 30
0.0
 10
-5.0271
 20
2.9183
 30
0.0
 10
-5.0205
 20
3.7617
 30
0.0
 10
-4.4153
 20
4.342
 30
0.0
 10
-3.5437
 20
4.3408
 30
0.0
  0
SPLINE
  5
72
330
1F
100
AcDbEntity
  8
Layer 1
 62
   250
100
AcDbSpline
210
0.0
220
0.0
230
1.0
 70
    11
 71
     3
 72
    77
 73
    73
 74
     0
 42
0.0000000001
 43
0.0000000001
 40
0.0
 40
0.0
 40
0.0
 40
0.0
 40
0.0416666666666667
 40
0.0416666666666667
 40
0.0416666666666667
 40
0.0833333333333333
 40
0.0833333333333333
 40
0.0833333333333333
 40
0.125
 40
0.125
 40
0.125
 40
0.1666666666666667
 40
0.1666666666666667
 40
0.1666666666666667
 40
0.2083333333333333
 40
0.2083333333333333
 40
0.2083333333333333
 40
0.25
 40
0.25
 40
0.25
 40
0.2916666666666666
 40
0.2916666666666666
 40
0.2916666666666666
 40
0.3333333333333333
 40
0.3333333333333333
 40
0.3333333333333333
 40
0.375
 40
0.375
 40
0.375
 40
0.4166666666666666
 40
0.4166666666666666
 40
0.4166666666666666
 40
0.4583333333333333
 40
0.4583333333333333
 40
0.4583333333333333
 40
0.5
 40
0.5
 40
0.5
 40
0.5416666666666666
 40
0.5416666666666666
 40
0.5416666666666666
 40
0.5833333333333333
 40
0.5833333333333333
 40
0.5833333333333333
 40
0.625
 40
0.625
 40
0.625
 40
0.6666666666666666
 40
0.6666666666666666
 40
0.6666666666666666
 40
0.7083333333333333
 40
0.7083333333333333
 40
0.7083333333333333
 40
0.75
 40
0.75
 40
0.75
 40
0.7916666666666666
 40
0.7916666666666666
 40
0.7916666666666666
 40
0.8333333333333333
 40
0.8333333333333333
 40
0.8333333333333333
 40
0.875
 40
0.875
 40
0.875
 40
0.9166666666666666
 40
0.9166666666666666
 40
0.9166666666666666
 40
0.9583333333333333
 40
0.9583333333333333
 40
0.9583333333333333
 40
1.0
 40
1.0
 40
1.0
 40
1.0
 10
-4.9441
 20
-1.0165
 30
0.0
 10
-4.7909
 20
-1.2984
 30
0.0
 10
-4.5718
 20
-1.359
 30
0.0
 10
-4.3224
 20
-1.3582
 30
0.0
 10
-3.7677
 20
-1.3569
 30
0.0
 10
-3.2132
 20
-1.3556
 30
0.0
 10
-2.6587
 20
-1.3536
 30
0.0
 10
-2.6467
 20
-1.3536
 30
0.0
 10
-2.6347
 20
-1.3449
 30
0.0
 10
-2.6126
 20
-1.3357
 30
0.0
 10
-2.6014
 20
-1.2099
 30
0.0
 10
-2.5902
 20
-1.0792
 30
0.0
 10
-2.5794
 20
-0.9485
 30
0.0
 10
-2.5794
 20
-0.9485
 30
0.0
 10
-2.5051
 20
-0.9485
 30
0.0
 10
-2.5051
 20
-0.9485
 30
0.0
 10
-2.4939
 20
-1.073
 30
0.0
 10
-2.4826
 20
-1.1979
 30
0.0
 10
-2.4686
 20
-1.3582
 30
0.0
 10
-2.3076
 20
-1.3582
 30
0.0
 10
-2.1415
 20
-1.3672
 30
0.0
 10
-1.9767
 20
-1.3565
 30
0.0
 10
-1.2337
 20
-1.3099
 30
0.0
 10
-0.9249
 20
-1.7533
 30
0.0
 10
-1.037
 20
-2.4635
 30
0.0
 10
-1.066
 20
-2.6495
 30
0.0
 10
-1.1594
 20
-2.8341
 30
0.0
 10
-1.2607
 20
-2.9956
 30
0.0
 10
-1.3396
 20
-3.1209
 30
0.0
 10
-1.4944
 20
-3.1625
 30
0.0
 10
-1.6405
 20
-3.0889
 30
0.0
 10
-1.7966
 20
-3.0106
 30
0.0
 10
-1.8572
 20
-2.8702
 30
0.0
 10
-1.8286
 20
-2.6988
 30
0.0
 10
-1.8032
 20
-2.5411
 30
0.0
 10
-1.6862
 20
-2.483
 30
0.0
 10
-1.5447
 20
-2.4531
 30
0.0
 10
-1.4458
 20
-2.4324
 30
0.0
 10
-1.3399
 20
-2.4191
 30
0.0
 10
-1.2549
 20
-2.3717
 30
0.0
 10
-1.1885
 20
-2.3347
 30
0.0
 10
-1.1108
 20
-2.2518
 30
0.0
 10
-1.1084
 20
-2.1863
 30
0.0
 10
-1.1054
 20
-2.1165
 30
0.0
 10
-1.1727
 20
-2.0289
 30
0.0
 10
-1.2329
 20
-1.9771
 30
0.0
 10
-1.2844
 20
-1.9326
 30
0.0
 10
-1.3695
 20
-1.9098
 30
0.0
 10
-1.4401
 20
-1.9085
 30
0.0
 10
-1.7762
 20
-1.9019
 30
0.0
 10
-2.1128
 20
-1.9056
 30
0.0
 10
-2.501
 20
-1.9056
 30
0.0
 10
-2.501
 20
-1.9056
 30
0.0
 10
-2.501
 20
-2.6901
 30
0.0
 10
-2.501
 20
-2.6901
 30
0.0
 10
-2.5292
 20
-2.6884
 30
0.0
 10
-2.5565
 20
-2.6872
 30
0.0
 10
-2.5844
 20
-2.6855
 30
0.0
 10
-2.5844
 20
-2.6855
 30
0.0
 10
-2.5844
 20
-1.901
 30
0.0
 10
-2.5844
 20
-1.901
 30
0.0
 10
-2.6874
 20
-1.8961
 30
0.0
 10
-2.7591
 20
-1.8899
 30
0.0
 10
-2.8317
 20
-1.8899
 30
0.0
 10
-3.3186
 20
-1.889
 30
0.0
 10
-3.8055
 20
-1.8874
 30
0.0
 10
-4.2925
 20
-1.8899
 30
0.0
 10
-4.6183
 20
-1.8919
 30
0.0
 10
-4.7253
 20
-1.9418
 30
0.0
 10
-4.9441
 20
-2.1841
 30
0.0
 10
-4.9441
 20
-2.1841
 30
0.0
 10
-4.9441
 20
-1.0165
 30
0.0
 10
-4.9441
 20
-1.0165
 30
0.0
  0
SPLINE
  5
73
330
1F
100
AcDbEntity
  8
Layer 1
 62
   250
100
AcDbSpline
210
0.0
220
0.0
230
1.0
 70
    11
 71
     3
 72
    74
 73
    70
 74
     0
 42
0.0000000001
 43
0.0000000001
 40
0.0
 40
0.0
 40
0.0
 40
0.0
 40
0.0434782608695652
 40
0.0434782608695652
 40
0.0434782608695652
 40
0.0869565217391304
 40
0.0869565217391304
 40
0.0869565217391304
 40
0.1304347826086956
 40
0.1304347826086956
 40
0.1304347826086956
 40
0.1739130434782609
 40
0.1739130434782609
 40
0.1739130434782609
 40
0.2173913043478261
 40
0.2173913043478261
 40
0.2173913043478261
 40
0.2608695652173913
 40
0.2608695652173913
 40
0.2608695652173913
 40
0.3043478260869565
 40
0.3043478260869565
 40
0.3043478260869565
 40
0.3478260869565217
 40
0.3478260869565217
 40
0.3478260869565217
 40
0.3913043478260869
 40
0.3913043478260869
 40
0.3913043478260869
 40
0.4347826086956522
 40
0.4347826086956522
 40
0.4347826086956522
 40
0.4782608695652174
 40
0.4782608695652174
 40
0.4782608695652174
 40
0.5217391304347826
 40
0.5217391304347826
 40
0.5217391304347826
 40
0.5652173913043478
 40
0.5652173913043478
 40
0.5652173913043478
 40
0.6086956521739131
 40
0.6086956521739131
 40
0.6086956521739131
 40
0.6521739130434783
 40
0.6521739130434783
 40
0.6521739130434783
 40
0.6956521739130435
 40
0.6956521739130435
 40
0.6956521739130435
 40
0.7391304347826086
 40
0.7391304347826086
 40
0.7391304347826086
 40
0.7826086956521738
 40
0.7826086956521738
 40
0.7826086956521738
 40
0.8260869565217391
 40
0.8260869565217391
 40
0.8260869565217391
 40
0.8695652173913043
 40
0.8695652173913043
 40
0.8695652173913043
 40
0.9130434782608695
 40
0.9130434782608695
 40
0.9130434782608695
 40
0.9565217391304348
 40
0.9565217391304348
 40
0.9565217391304348
 40
1.0
 40
1.0
 40
1.0
 40
1.0
 10
-5.0336
 20
-6.9042
 30
0.0
 10
-4.9689
 20
-6.6373
 30
0.0
 10
-4.9178
 20
-6.3659
 30
0.0
 10
-4.8336
 20
-6.1056
 30
0.0
 10
-4.7738
 20
-5.9209
 30
0.0
 10
-4.641
 20
-5.7793
 30
0.0
 10
-4.4377
 20
-5.732
 30
0.0
 10
-4.2761
 20
-5.6943
 30
0.0
 10
-4.172
 20
-5.7714
 30
0.0
 10
-4.1342
 20
-5.9217
 30
0.0
 10
-4.0981
 20
-6.0649
 30
0.0
 10
-4.1193
 20
-6.1678
 30
0.0
 10
-4.3089
 20
-6.2081
 30
0.0
 10
-4.7817
 20
-6.309
 30
0.0
 10
-4.9905
 20
-6.6207
 30
0.0
 10
-4.9237
 20
-7.0752
 30
0.0
 10
-4.8892
 20
-7.3093
 30
0.0
 10
-4.7119
 20
-7.5069
 30
0.0
 10
-4.4895
 20
-7.5583
 30
0.0
 10
-4.3065
 20
-7.6012
 30
0.0
 10
-4.101
 20
-7.5214
 30
0.0
 10
-3.9889
 20
-7.2956
 30
0.0
 10
-3.8523
 20
-7.0196
 30
0.0
 10
-3.7656
 20
-6.7195
 30
0.0
 10
-3.6552
 20
-6.4302
 30
0.0
 10
-3.6066
 20
-6.3053
 30
0.0
 10
-3.5667
 20
-6.1733
 30
0.0
 10
-3.4979
 20
-6.0595
 30
0.0
 10
-3.3414
 20
-5.8022
 30
0.0
 10
-3.1098
 20
-5.6744
 30
0.0
 10
-2.801
 20
-5.6989
 30
0.0
 10
-2.5129
 20
-5.7212
 30
0.0
 10
-2.3158
 20
-5.8839
 30
0.0
 10
-2.2104
 20
-6.1314
 30
0.0
 10
-1.9928
 20
-6.6427
 30
0.0
 10
-2.0431
 20
-7.1475
 30
0.0
 10
-2.3253
 20
-7.6248
 30
0.0
 10
-2.3677
 20
-7.6969
 30
0.0
 10
-2.4398
 20
-7.7705
 30
0.0
 10
-2.5153
 20
-7.7991
 30
0.0
 10
-2.6014
 20
-7.8323
 30
0.0
 10
-2.7258
 20
-7.851
 30
0.0
 10
-2.7964
 20
-7.8107
 30
0.0
 10
-2.8491
 20
-7.7805
 30
0.0
 10
-2.8757
 20
-7.6372
 30
0.0
 10
-2.8533
 20
-7.5621
 30
0.0
 10
-2.8337
 20
-7.4977
 30
0.0
 10
-2.7358
 20
-7.4309
 30
0.0
 10
-2.6611
 20
-7.4135
 30
0.0
 10
-2.3718
 20
-7.3454
 30
0.0
 10
-2.1904
 20
-7.1674
 30
0.0
 10
-2.1539
 20
-6.8818
 30
0.0
 10
-2.1157
 20
-6.5879
 30
0.0
 10
-2.258
 20
-6.3107
 30
0.0
 10
-2.5079
 20
-6.1903
 30
0.0
 10
-2.6964
 20
-6.0998
 30
0.0
 10
-2.894
 20
-6.1491
 30
0.0
 10
-3.0052
 20
-6.3613
 30
0.0
 10
-3.1135
 20
-6.568
 30
0.0
 10
-3.1746
 20
-6.7992
 30
0.0
 10
-3.2608
 20
-7.0179
 30
0.0
 10
-3.3447
 20
-7.2304
 30
0.0
 10
-3.4074
 20
-7.4575
 30
0.0
 10
-3.5265
 20
-7.6485
 30
0.0
 10
-3.8245
 20
-8.1266
 30
0.0
 10
-4.4464
 20
-8.1329
 30
0.0
 10
-4.7838
 20
-7.6787
 30
0.0
 10
-4.9536
 20
-7.4508
 30
0.0
 10
-5.005
 20
-7.1907
 30
0.0
 10
-5.0336
 20
-6.9042
 30
0.0
  0
SPLINE
  5
74
330
1F
100
AcDbEntity
  8
Layer 1
 62
   250
100
AcDbSpline
210
0.0
220
0.0
230
1.0
 70
    11
 71
     3
 72
    17
 73
    13
 74
     0
 42
0.0000000001
 43
0.0000000001
 40
0.0
 40
0.0
 40
0.0
 40
0.0
 40
0.25
 40
0.25
 40
0.25
 40
0.5
 40
0.5
 40
0.5
 40
0.75
 40
0.75
 40
0.75
 40
1.0
 40
1.0
 40
1.0
 40
1.0
 10
-3.4926
 20
-4.8442
 30
0.0
 10
-3.1023
 20
-4.8284
 30
0.0
 10
-2.7545
 20
-4.7632
 30
0.0
 10
-2.454
 20
-4.5412
 30
0.0
 10
-2.0639
 20
-4.2527
 30
0.0
 10
-2.0713
 20
-3.8422
 30
0.0
 10
-2.4765
 20
-3.5811
 30
0.0
 10
-2.7811
 20
-3.384
 30
0.0
 10
-3.124
 20
-3.3338
 30
0.0
 10
-3.4926
 20
-3.3404
 30
0.0
 10
-3.4926
 20
-3.3404
 30
0.0
 10
-3.4926
 20
-4.8442
 30
0.0
 10
-3.4926
 20
-4.8442
 30
0.0
  0
SPLINE
  5
75
330
1F
100
AcDbEntity
  8
Layer 1
 62
   250
100
AcDbSpline
210
0.0
220
0.0
230
1.0
 70
    11
 71
     3
 72
    32
 73
    28
 74
     0
 42
0.0000000001
 43
0.0000000001
 40
0.0
 40
0.0
 40
0.0
 40
0.0
 40
0.1111111111111111
 40
0.1111111111111111
 40
0.1111111111111111
 40
0.2222222222222222
 40
0.2222222222222222
 40
0.2222222222222222
 40
0.3333333333333333
 40
0.3333333333333333
 40
0.3333333333333333
 40
0.4444444444444444
 40
0.4444444444444444
 40
0.4444444444444444
 40
0.5555555555555556
 40
0.5555555555555556
 40
0.5555555555555556
 40
0.6666666666666666
 40
0.6666666666666666
 40
0.6666666666666666
 40
0.7777777777777777
 40
0.7777777777777777
 40
0.7777777777777777
 40
0.8888888888888888
 40
0.8888888888888888
 40
0.8888888888888888
 40
1.0
 40
1.0
 40
1.0
 40
1.0
 10
-3.613
 20
-5.4312
 30
0.0
 10
-3.613
 20
-5.4312
 30
0.0
 10
-3.613
 20
-3.3699
 30
0.0
 10
-3.613
 20
-3.3699
 30
0.0
 10
-4.048
 20
-3.2707
 30
0.0
 10
-4.6669
 20
-3.5653
 30
0.0
 10
-4.8216
 20
-3.9356
 30
0.0
 10
-5.0192
 20
-4.4051
 30
0.0
 10
-4.7843
 20
-4.8645
 30
0.0
 10
-4.1385
 20
-5.3286
 30
0.0
 10
-4.2053
 20
-5.312
 30
0.0
 10
-4.2779
 20
-5.307
 30
0.0
 10
-4.3381
 20
-5.2775
 30
0.0
 10
-5.0495
 20
-4.9305
 30
0.0
 10
-5.2293
 20
-3.966
 30
0.0
 10
-4.7066
 20
-3.313
 30
0.0
 10
-4.177
 20
-2.6505
 30
0.0
 10
-3.0862
 20
-2.5804
 30
0.0
 10
-2.4856
 20
-3.1793
 30
0.0
 10
-2.122
 20
-3.5417
 30
0.0
 10
-2.046
 20
-3.9933
 30
0.0
 10
-2.1635
 20
-4.4748
 30
0.0
 10
-2.2859
 20
-4.975
 30
0.0
 10
-2.6545
 20
-5.2332
 30
0.0
 10
-3.1265
 20
-5.3601
 30
0.0
 10
-3.2742
 20
-5.4005
 30
0.0
 10
-3.4311
 20
-5.4058
 30
0.0
 10
-3.613
 20
-5.4312
 30
0.0
  0
SPLINE
  5
76
330
1F
100
AcDbEntity
  8
Layer 1
 62
   250
100
AcDbSpline
210
0.0
220
0.0
230
1.0
 70
    11
 71
     3
 72
    77
 73
    73
 74
     0
 42
0.0000000001
 43
0.0000000001
 40
0.0
 40
0.0
 40
0.0
 40
0.0
 40
0.0416666666666667
 40
0.0416666666666667
 40
0.0416666666666667
 40
0.0833333333333333
 40
0.0833333333333333
 40
0.0833333333333333
 40
0.125
 40
0.125
 40
0.125
 40
0.1666666666666667
 40
0.1666666666666667
 40
0.1666666666666667
 40
0.2083333333333333
 40
0.2083333333333333
 40
0.2083333333333333
 40
0.25
 40
0.25
 40
0.25
 40
0.2916666666666666
 40
0.2916666666666666
 40
0.2916666666666666
 40
0.3333333333333333
 40
0.3333333333333333
 40
0.3333333333333333
 40
0.375
 40
0.375
 40
0.375
 40
0.4166666666666666
 40
0.4166666666666666
 40
0.4166666666666666
 40
0.4583333333333333
 40
0.4583333333333333
 40
0.4583333333333333
 40
0.5
 40
0.5
 40
0.5
 40
0.5416666666666666
 40
0.5416666666666666
 40
0.5416666666666666
 40
0.5833333333333333
 40
0.5833333333333333
 40
0.5833333333333333
 40
0.625
 40
0.625
 40
0.625
 40
0.6666666666666666
 40
0.6666666666666666
 40
0.6666666666666666
 40
0.7083333333333333
 40
0.7083333333333333
 40
0.7083333333333333
 40
0.75
 40
0.75
 40
0.75
 40
0.7916666666666666
 40
0.7916666666666666
 40
0.7916666666666666
 40
0.8333333333333333
 40
0.8333333333333333
 40
0.8333333333333333
 40
0.875
 40
0.875
 40
0.875
 40
0.9166666666666666
 40
0.9166666666666666
 40
0.9166666666666666
 40
0.9583333333333333
 40
0.9583333333333333
 40
0.9583333333333333
 40
1.0
 40
1.0
 40
1.0
 40
1.0
 10
-8.0693
 20
-6.3144
 30
0.0
 10
-8.6155
 20
-6.2501
 30
0.0
 10
-9.1618
 20
-6.1808
 30
0.0
 10
-9.7084
 20
-6.1227
 30
0.0
 10
-10.0758
 20
-6.0832
 30
0.0
 10
-10.4444
 20
-6.0447
 30
0.0
 10
-10.8126
 20
-6.033
 30
0.0
 10
-11.1239
 20
-6.0238
 30
0.0
 10
-11.3845
 20
-6.1405
 30
0.0
 10
-11.5157
 20
-6.4535
 30
0.0
 10
-11.6418
 20
-6.756
 30
0.0
 10
-11.5406
 20
-7.0013
 30
0.0
 10
-11.3235
 20
-7.2189
 30
0.0
 10
-11.1786
 20
-7.3642
 30
0.0
 10
-11.0221
 20
-7.5066
 30
0.0
 10
-11.1546
 20
-7.7435
 30
0.0
 10
-11.1654
 20
-7.7634
 30
0.0
 10
-11.1558
 20
-7.8054
 30
0.0
 10
-11.1408
 20
-7.8274
 30
0.0
 10
-10.9557
 20
-8.0992
 30
0.0
 10
-10.7677
 20
-8.369
 30
0.0
 10
-10.5714
 20
-8.6526
 30
0.0
 10
-10.5536
 20
-8.7335
 30
0.0
 10
-10.5506
 20
-8.8547
 30
0.0
 10
-10.4963
 20
-8.9464
 30
0.0
 10
-10.4751
 20
-8.9825
 30
0.0
 10
-10.2987
 20
-8.985
 30
0.0
 10
-10.2667
 20
-8.9447
 30
0.0
 10
-10.1945
 20
-8.8531
 30
0.0
 10
-10.1318
 20
-8.7265
 30
0.0
 10
-10.1301
 20
-8.6127
 30
0.0
 10
-10.126
 20
-8.323
 30
0.0
 10
-9.9745
 20
-8.1761
 30
0.0
 10
-9.7076
 20
-8.2848
 30
0.0
 10
-9.4395
 20
-8.3943
 30
0.0
 10
-9.1884
 20
-8.5475
 30
0.0
 10
-8.9344
 20
-8.6895
 30
0.0
 10
-8.7592
 20
-8.7871
 30
0.0
 10
-8.7695
 20
-8.9306
 30
0.0
 10
-8.8567
 20
-9.0876
 30
0.0
 10
-9.0186
 20
-9.3769
 30
0.0
 10
-9.3897
 20
-9.5375
 30
0.0
 10
-9.7977
 20
-9.469
 30
0.0
 10
-10.5651
 20
-9.3395
 30
0.0
 10
-11.0998
 20
-8.9148
 30
0.0
 10
-11.397
 20
-8.191
 30
0.0
 10
-11.4401
 20
-8.0859
 30
0.0
 10
-11.5285
 20
-8.0005
 30
0.0
 10
-11.5875
 20
-7.9008
 30
0.0
 10
-11.6402
 20
-7.8107
 30
0.0
 10
-11.7303
 20
-7.7066
 30
0.0
 10
-11.7178
 20
-7.6215
 30
0.0
 10
-11.6771
 20
-7.3471
 30
0.0
 10
-11.8382
 20
-7.2085
 30
0.0
 10
-12.0233
 20
-7.0736
 30
0.0
 10
-12.0781
 20
-7.0333
 30
0.0
 10
-12.1362
 20
-6.9976
 30
0.0
 10
-12.1922
 20
-6.9582
 30
0.0
 10
-12.4625
 20
-6.769
 30
0.0
 10
-12.6579
 20
-6.5353
 30
0.0
 10
-12.5886
 20
-6.1783
 30
0.0
 10
-12.5301
 20
-5.8786
 30
0.0
 10
-12.2458
 20
-5.6246
 30
0.0
 10
-11.8436
 20
-5.6407
 30
0.0
 10
-11.0019
 20
-5.6739
 30
0.0
 10
-10.1597
 20
-5.7433
 30
0.0
 10
-9.3245
 20
-5.8516
 30
0.0
 10
-8.8904
 20
-5.9081
 30
0.0
 10
-8.4698
 20
-6.0782
 30
0.0
 10
-8.0432
 20
-6.1969
 30
0.0
 10
-8.0519
 20
-6.236
 30
0.0
 10
-8.0606
 20
-6.275
 30
0.0
 10
-8.0693
 20
-6.3144
 30
0.0
  0
SPLINE
  5
77
330
1F
100
AcDbEntity
  8
Layer 1
 62
   250
100
AcDbSpline
210
0.0
220
0.0
230
1.0
 70
    11
 71
     3
 72
    38
 73
    34
 74
     0
 42
0.0000000001
 43
0.0000000001
 40
0.0
 40
0.0
 40
0.0
 40
0.0
 40
0.0909090909090909
 40
0.0909090909090909
 40
0.0909090909090909
 40
0.1818181818181818
 40
0.1818181818181818
 40
0.1818181818181818
 40
0.2727272727272727
 40
0.2727272727272727
 40
0.2727272727272727
 40
0.3636363636363636
 40
0.3636363636363636
 40
0.3636363636363636
 40
0.4545454545454546
 40
0.4545454545454546
 40
0.4545454545454546
 40
0.5454545454545454
 40
0.5454545454545454
 40
0.5454545454545454
 40
0.6363636363636364
 40
0.6363636363636364
 40
0.6363636363636364
 40
0.7272727272727273
 40
0.7272727272727273
 40
0.7272727272727273
 40
0.8181818181818182
 40
0.8181818181818182
 40
0.8181818181818182
 40
0.9090909090909092
 40
0.9090909090909092
 40
0.9090909090909092
 40
1.0
 40
1.0
 40
1.0
 40
1.0
 10
-9.411
 20
-5.0514
 30
0.0
 10
-10.9672
 20
-5.1663
 30
0.0
 10
-12.4406
 20
-5.0007
 30
0.0
 10
-13.6257
 20
-3.8729
 30
0.0
 10
-14.0237
 20
-3.494
 30
0.0
 10
-14.2802
 20
-3.0299
 30
0.0
 10
-14.3171
 20
-2.4658
 30
0.0
 10
-14.3782
 20
-1.5435
 30
0.0
 10
-13.8266
 20
-0.952
 30
0.0
 10
-12.901
 20
-0.9778
 30
0.0
 10
-12.0944
 20
-1.0002
 30
0.0
 10
-11.3619
 20
-1.2791
 30
0.0
 10
-10.6774
 20
-1.6938
 30
0.0
 10
-10.657
 20
-1.7058
 30
0.0
 10
-10.6475
 20
-1.7357
 30
0.0
 10
-10.5798
 20
-1.8357
 30
0.0
 10
-10.7455
 20
-1.7789
 30
0.0
 10
-10.836
 20
-1.7466
 30
0.0
 10
-10.9273
 20
-1.7175
 30
0.0
 10
-11.305
 20
-1.5958
 30
0.0
 10
-11.6761
 20
-1.4273
 30
0.0
 10
-12.0637
 20
-1.3655
 30
0.0
 10
-12.732
 20
-1.2592
 30
0.0
 10
-13.1782
 20
-1.622
 30
0.0
 10
-13.2592
 20
-2.294
 30
0.0
 10
-13.4156
 20
-3.6052
 30
0.0
 10
-12.4585
 20
-4.7512
 30
0.0
 10
-11.1796
 20
-4.6936
 30
0.0
 10
-10.6596
 20
-4.6699
 30
0.0
 10
-10.1486
 20
-4.7035
 30
0.0
 10
-9.6675
 20
-4.9297
 30
0.0
 10
-9.5821
 20
-4.97
 30
0.0
 10
-9.4965
 20
-5.0107
 30
0.0
 10
-9.411
 20
-5.0514
 30
0.0
  0
SPLINE
  5
78
330
1F
100
AcDbEntity
  8
Layer 1
 62
   250
100
AcDbSpline
210
0.0
220
0.0
230
1.0
 70
    11
 71
     3
 72
    50
 73
    46
 74
     0
 42
0.0000000001
 43
0.0000000001
 40
0.0
 40
0.0
 40
0.0
 40
0.0
 40
0.0666666666666667
 40
0.0666666666666667
 40
0.0666666666666667
 40
0.1333333333333333
 40
0.1333333333333333
 40
0.1333333333333333
 40
0.2
 40
0.2
 40
0.2
 40
0.2666666666666667
 40
0.2666666666666667
 40
0.2666666666666667
 40
0.3333333333333333
 40
0.3333333333333333
 40
0.3333333333333333
 40
0.4
 40
0.4
 40
0.4
 40
0.4666666666666667
 40
0.4666666666666667
 40
0.4666666666666667
 40
0.5333333333333333
 40
0.5333333333333333
 40
0.5333333333333333
 40
0.6
 40
0.6
 40
0.6
 40
0.6666666666666666
 40
0.6666666666666666
 40
0.6666666666666666
 40
0.7333333333333333
 40
0.7333333333333333
 40
0.7333333333333333
 40
0.8
 40
0.8
 40
0.8
 40
0.8666666666666667
 40
0.8666666666666667
 40
0.8666666666666667
 40
0.9333333333333333
 40
0.9333333333333333
 40
0.9333333333333333
 40
1.0
 40
1.0
 40
1.0
 40
1.0
 10
-4.9494
 20
0.0722
 30
0.0
 10
-4.9494
 20
0.0722
 30
0.0
 10
-4.9494
 20
1.4013
 30
0.0
 10
-4.9494
 20
1.4013
 30
0.0
 10
-4.7643
 20
1.0203
 30
0.0
 10
-4.4326
 20
0.985
 30
0.0
 10
-4.0707
 20
0.9946
 30
0.0
 10
-3.6779
 20
1.0044
 30
0.0
 10
-3.2853
 20
0.9978
 30
0.0
 10
-2.893
 20
0.9962
 30
0.0
 10
-2.727
 20
0.9954
 30
0.0
 10
-2.5659
 20
0.9966
 30
0.0
 10
-2.5892
 20
1.2901
 30
0.0
 10
-2.4332
 20
0.9829
 30
0.0
 10
-2.3083
 20
0.7376
 30
0.0
 10
-2.1784
 20
0.4827
 30
0.0
 10
-2.2692
 20
0.4786
 30
0.0
 10
-2.3734
 20
0.474
 30
0.0
 10
-2.5178
 20
0.4674
 30
0.0
 10
-2.4672
 20
0.3972
 30
0.0
 10
-2.4224
 20
0.3515
 30
0.0
 10
-2.3971
 20
0.2972
 30
0.0
 10
-2.3037
 20
0.098
 30
0.0
 10
-2.1933
 20
-0.0984
 30
0.0
 10
-2.1344
 20
-0.3084
 30
0.0
 10
-2.0825
 20
-0.4923
 30
0.0
 10
-2.1475
 20
-0.6728
 30
0.0
 10
-2.3173
 20
-0.789
 30
0.0
 10
-2.4597
 20
-0.8862
 30
0.0
 10
-2.6208
 20
-0.8534
 30
0.0
 10
-2.7084
 20
-0.7201
 30
0.0
 10
-2.7981
 20
-0.5836
 30
0.0
 10
-2.7781
 20
-0.4097
 30
0.0
 10
-2.6295
 20
-0.3329
 30
0.0
 10
-2.4395
 20
-0.234
 30
0.0
 10
-2.405
 20
-0.1022
 30
0.0
 10
-2.4676
 20
0.0842
 30
0.0
 10
-2.5672
 20
0.3803
 30
0.0
 10
-2.6623
 20
0.4657
 30
0.0
 10
-2.906
 20
0.4657
 30
0.0
 10
-3.3123
 20
0.4661
 30
0.0
 10
-3.7183
 20
0.4612
 30
0.0
 10
-4.1242
 20
0.4674
 30
0.0
 10
-4.4663
 20
0.4727
 30
0.0
 10
-4.7771
 20
0.4284
 30
0.0
 10
-4.9494
 20
0.0722
 30
0.0
  0
SPLINE
  5
79
330
1F
100
AcDbEntity
  8
Layer 1
 62
   250
100
AcDbSpline
210
0.0
220
0.0
230
1.0
 70
    11
 71
     3
 72
    23
 73
    19
 74
     0
 42
0.0000000001
 43
0.0000000001
 40
0.0
 40
0.0
 40
0.0
 40
0.0
 40
0.1666666666666667
 40
0.1666666666666667
 40
0.1666666666666667
 40
0.3333333333333333
 40
0.3333333333333333
 40
0.3333333333333333
 40
0.5
 40
0.5
 40
0.5
 40
0.6666666666666666
 40
0.6666666666666666
 40
0.6666666666666666
 40
0.8333333333333333
 40
0.8333333333333333
 40
0.8333333333333333
 40
1.0
 40
1.0
 40
1.0
 40
1.0
 10
8.8116
 20
21.3433
 30
0.0
 10
9.5446
 20
21.2939
 30
0.0
 10
10.2776
 20
21.2441
 30
0.0
 10
11.0372
 20
21.193
 30
0.0
 10
11.0069
 20
20.8423
 30
0.0
 10
10.977
 20
20.4969
 30
0.0
 10
10.9442
 20
20.1163
 30
0.0
 10
10.7313
 20
20.1329
 30
0.0
 10
10.5325
 20
20.169
 30
0.0
 10
10.3353
 20
20.1603
 30
0.0
 10
9.7916
 20
20.1358
 30
0.0
 10
9.4051
 20
20.3633
 30
0.0
 10
9.1374
 20
20.8319
 30
0.0
 10
9.0456
 20
20.993
 30
0.0
 10
8.9095
 20
21.1287
 30
0.0
 10
8.7937
 20
21.276
 30
0.0
 10
8.7995
 20
21.2984
 30
0.0
 10
8.8054
 20
21.3208
 30
0.0
 10
8.8116
 20
21.3433
 30
0.0
  0
SPLINE
  5
7A
330
1F
100
AcDbEntity
  8
Layer 1
 62
   250
100
AcDbSpline
210
0.0
220
0.0
230
1.0
 70
    11
 71
     3
 72
    23
 73
    19
 74
     0
 42
0.0000000001
 43
0.0000000001
 40
0.0
 40
0.0
 40
0.0
 40
0.0
 40
0.1666666666666667
 40
0.1666666666666667
 40
0.1666666666666667
 40
0.3333333333333333
 40
0.3333333333333333
 40
0.3333333333333333
 40
0.5
 40
0.5
 40
0.5
 40
0.6666666666666666
 40
0.6666666666666666
 40
0.6666666666666666
 40
0.8333333333333333
 40
0.8333333333333333
 40
0.8333333333333333
 40
1.0
 40
1.0
 40
1.0
 40
1.0
 10
13.6048
 20
18.0048
 30
0.0
 10
13.4711
 20
17.2399
 30
0.0
 10
13.3433
 20
16.5048
 30
0.0
 10
13.2072
 20
15.7261
 30
0.0
 10
12.9498
 20
16.0241
 30
0.0
 10
12.7223
 20
16.2773
 30
0.0
 10
12.5086
 20
16.5422
 30
0.0
 10
12.4542
 20
16.6098
 30
0.0
 10
12.4131
 20
16.7144
 30
0.0
 10
12.4177
 20
16.7995
 30
0.0
 10
12.4393
 20
17.1962
 30
0.0
 10
12.4746
 20
17.5923
 30
0.0
 10
12.5181
 20
17.9874
 30
0.0
 10
12.5231
 20
18.0294
 30
0.0
 10
12.6156
 20
18.0962
 30
0.0
 10
12.6642
 20
18.0928
 30
0.0
 10
12.966
 20
18.0742
 30
0.0
 10
13.267
 20
18.0385
 30
0.0
 10
13.6048
 20
18.0048
 30
0.0
  0
SPLINE
  5
7B
330
1F
100
AcDbEntity
  8
Layer 1
 62
   250
100
AcDbSpline
210
0.0
220
0.0
230
1.0
 70
    11
 71
     3
 72
    23
 73
    19
 74
     0
 42
0.0000000001
 43
0.0000000001
 40
0.0
 40
0.0
 40
0.0
 40
0.0
 40
0.1666666666666667
 40
0.1666666666666667
 40
0.1666666666666667
 40
0.3333333333333333
 40
0.3333333333333333
 40
0.3333333333333333
 40
0.5
 40
0.5
 40
0.5
 40
0.6666666666666666
 40
0.6666666666666666
 40
0.6666666666666666
 40
0.8333333333333333
 40
0.8333333333333333
 40
0.8333333333333333
 40
1.0
 40
1.0
 40
1.0
 40
1.0
 10
12.243
 20
18.4937
 30
0.0
 10
11.8737
 20
18.5356
 30
0.0
 10
11.5266
 20
18.5746
 30
0.0
 10
11.21
 20
18.6107
 30
0.0
 10
11.21
 20
18.9748
 30
0.0
 10
11.2057
 20
19.3172
 30
0.0
 10
11.2162
 20
19.6597
 30
0.0
 10
11.2174
 20
19.692
 30
0.0
 10
11.3108
 20
19.7522
 30
0.0
 10
11.356
 20
19.7476
 30
0.0
 10
11.6445
 20
19.7195
 30
0.0
 10
11.9325
 20
19.6837
 30
0.0
 10
12.2174
 20
19.6306
 30
0.0
 10
12.2625
 20
19.6219
 30
0.0
 10
12.3219
 20
19.5127
 30
0.0
 10
12.3194
 20
19.4525
 30
0.0
 10
12.3049
 20
19.1437
 30
0.0
 10
12.2721
 20
18.8357
 30
0.0
 10
12.243
 20
18.4937
 30
0.0
  0
SPLINE
  5
7C
330
1F
100
AcDbEntity
  8
Layer 1
 62
   250
100
AcDbSpline
210
0.0
220
0.0
230
1.0
 70
    11
 71
     3
 72
    26
 73
    22
 74
     0
 42
0.0000000001
 43
0.0000000001
 40
0.0
 40
0.0
 40
0.0
 40
0.0
 40
0.1428571428571428
 40
0.1428571428571428
 40
0.1428571428571428
 40
0.2857142857142857
 40
0.2857142857142857
 40
0.2857142857142857
 40
0.4285714285714285
 40
0.4285714285714285
 40
0.4285714285714285
 40
0.5714285714285714
 40
0.5714285714285714
 40
0.5714285714285714
 40
0.7142857142857142
 40
0.7142857142857142
 40
0.7142857142857142
 40
0.8571428571428571
 40
0.8571428571428571
 40
0.8571428571428571
 40
1.0
 40
1.0
 40
1.0
 40
1.0
 10
-4.9721
 20
-15.2686
 30
0.0
 10
-4.9721
 20
-15.2686
 30
0.0
 10
-4.9721
 20
-13.927
 30
0.0
 10
-4.9721
 20
-13.927
 30
0.0
 10
-4.7944
 20
-14.2981
 30
0.0
 10
-4.4781
 20
-14.3433
 30
0.0
 10
-4.1277
 20
-14.3201
 30
0.0
 10
-4.0535
 20
-14.3155
 30
0.0
 10
-3.9767
 20
-14.3316
 30
0.0
 10
-3.9054
 20
-14.3176
 30
0.0
 10
-3.4167
 20
-14.2213
 30
0.0
 10
-3.11
 20
-14.509
 30
0.0
 10
-2.788
 20
-14.8406
 30
0.0
 10
-2.8597
 20
-14.8485
 30
0.0
 10
-2.9079
 20
-14.8584
 30
0.0
 10
-2.9564
 20
-14.8584
 30
0.0
 10
-3.3753
 20
-14.8597
 30
0.0
 10
-3.7949
 20
-14.8635
 30
0.0
 10
-4.2141
 20
-14.8576
 30
0.0
 10
-4.5445
 20
-14.853
 30
0.0
 10
-4.8172
 20
-14.9373
 30
0.0
 10
-4.9721
 20
-15.2686
 30
0.0
  0
SPLINE
  5
7D
330
1F
100
AcDbEntity
  8
Layer 1
 62
   250
100
AcDbSpline
210
0.0
220
0.0
230
1.0
 70
    11
 71
     3
 72
    29
 73
    25
 74
     0
 42
0.0000000001
 43
0.0000000001
 40
0.0
 40
0.0
 40
0.0
 40
0.0
 40
0.125
 40
0.125
 40
0.125
 40
0.25
 40
0.25
 40
0.25
 40
0.375
 40
0.375
 40
0.375
 40
0.5
 40
0.5
 40
0.5
 40
0.625
 40
0.625
 40
0.625
 40
0.75
 40
0.75
 40
0.75
 40
0.875
 40
0.875
 40
0.875
 40
1.0
 40
1.0
 40
1.0
 40
1.0
 10
-9.3628
 20
-11.734
 30
0.0
 10
-9.5997
 20
-12.1855
 30
0.0
 10
-9.9069
 20
-12.4474
 30
0.0
 10
-10.3834
 20
-12.4619
 30
0.0
 10
-11.3145
 20
-12.4902
 30
0.0
 10
-12.1147
 20
-11.9859
 30
0.0
 10
-12.4925
 20
-11.1374
 30
0.0
 10
-12.5148
 20
-11.088
 30
0.0
 10
-12.526
 20
-11.0336
 30
0.0
 10
-12.495
 20
-10.944
 30
0.0
 10
-12.3372
 20
-11.0893
 30
0.0
 10
-12.182
 20
-11.2379
 30
0.0
 10
-12.0209
 20
-11.3794
 30
0.0
 10
-11.8827
 20
-11.5015
 30
0.0
 10
-11.7428
 20
-11.6226
 30
0.0
 10
-11.5951
 20
-11.7327
 30
0.0
 10
-11.1526
 20
-12.0614
 30
0.0
 10
-10.8989
 20
-12.0423
 30
0.0
 10
-10.569
 20
-11.5895
 30
0.0
 10
-10.3976
 20
-11.3537
 30
0.0
 10
-10.2523
 20
-11.3346
 30
0.0
 10
-10.0173
 20
-11.4604
 30
0.0
 10
-9.8227
 20
-11.5642
 30
0.0
 10
-9.6094
 20
-11.6327
 30
0.0
 10
-9.3628
 20
-11.734
 30
0.0
  0
SPLINE
  5
7E
330
1F
100
AcDbEntity
  8
Layer 1
 62
   250
100
AcDbSpline
210
0.0
220
0.0
230
1.0
 70
    11
 71
     3
 72
    41
 73
    37
 74
     0
 42
0.0000000001
 43
0.0000000001
 40
0.0
 40
0.0
 40
0.0
 40
0.0
 40
0.0833333333333333
 40
0.0833333333333333
 40
0.0833333333333333
 40
0.1666666666666667
 40
0.1666666666666667
 40
0.1666666666666667
 40
0.25
 40
0.25
 40
0.25
 40
0.3333333333333333
 40
0.3333333333333333
 40
0.3333333333333333
 40
0.4166666666666666
 40
0.4166666666666666
 40
0.4166666666666666
 40
0.5
 40
0.5
 40
0.5
 40
0.5833333333333333
 40
0.5833333333333333
 40
0.5833333333333333
 40
0.6666666666666666
 40
0.6666666666666666
 40
0.6666666666666666
 40
0.75
 40
0.75
 40
0.75
 40
0.8333333333333333
 40
0.8333333333333333
 40
0.8333333333333333
 40
0.9166666666666666
 40
0.9166666666666666
 40
0.9166666666666666
 40
1.0
 40
1.0
 40
1.0
 40
1.0
 10
-7.5294
 20
-7.7781
 30
0.0
 10
-7.4028
 20
-7.857
 30
0.0
 10
-7.2845
 20
-7.942
 30
0.0
 10
-7.1571
 20
-8.0085
 30
0.0
 10
-6.9632
 20
-8.1093
 30
0.0
 10
-6.9532
 20
-8.2583
 30
0.0
 10
-7.101
 20
-8.3742
 30
0.0
 10
-7.2417
 20
-8.4837
 30
0.0
 10
-7.4489
 20
-8.6212
 30
0.0
 10
-7.5913
 20
-8.5892
 30
0.0
 10
-7.8095
 20
-8.5402
 30
0.0
 10
-8.0
 20
-8.3592
 30
0.0
 10
-8.1939
 20
-8.2226
 30
0.0
 10
-8.2084
 20
-8.2126
 30
0.0
 10
-8.1719
 20
-8.0993
 30
0.0
 10
-8.1353
 20
-8.0529
 30
0.0
 10
-8.0582
 20
-7.9545
 30
0.0
 10
-7.9657
 20
-7.8681
 30
0.0
 10
-7.856
 20
-7.7524
 30
0.0
 10
-7.9951
 20
-7.6611
 30
0.0
 10
-8.1209
 20
-7.5801
 30
0.0
 10
-8.2445
 20
-7.4962
 30
0.0
 10
-8.3894
 20
-7.3987
 30
0.0
 10
-8.421
 20
-7.3
 30
0.0
 10
-8.2997
 20
-7.1405
 30
0.0
 10
-8.0163
 20
-6.7678
 30
0.0
 10
-8.0246
 20
-6.7616
 30
0.0
 10
-7.607
 20
-6.9865
 30
0.0
 10
-7.59
 20
-6.9952
 30
0.0
 10
-7.5734
 20
-7.006
 30
0.0
 10
-7.5563
 20
-7.0152
 30
0.0
 10
-7.0616
 20
-7.2829
 30
0.0
 10
-7.0608
 20
-7.2888
 30
0.0
 10
-7.4655
 20
-7.6955
 30
0.0
 10
-7.4854
 20
-7.7154
 30
0.0
 10
-7.5003
 20
-7.7399
 30
0.0
 10
-7.5294
 20
-7.7781
 30
0.0
  0
SPLINE
  5
7F
330
1F
100
AcDbEntity
  8
Layer 1
 62
   250
100
AcDbSpline
210
0.0
220
0.0
230
1.0
 70
    11
 71
     3
 72
    20
 73
    16
 74
     0
 42
0.0000000001
 43
0.0000000001
 40
0.0
 40
0.0
 40
0.0
 40
0.0
 40
0.2
 40
0.2
 40
0.2
 40
0.4
 40
0.4
 40
0.4
 40
0.6000000000000001
 40
0.6000000000000001
 40
0.6000000000000001
 40
0.8
 40
0.8
 40
0.8
 40
1.0
 40
1.0
 40
1.0
 40
1.0
 10
14.3476
 20
20.3208
 30
0.0
 10
14.1226
 20
20.7044
 30
0.0
 10
13.8292
 20
20.8862
 30
0.0
 10
13.4278
 20
20.8642
 30
0.0
 10
13.5453
 20
20.9878
 30
0.0
 10
13.6876
 20
21.0954
 30
0.0
 10
13.7707
 20
21.2373
 30
0.0
 10
13.8549
 20
21.3809
 30
0.0
 10
13.8806
 20
21.5586
 30
0.0
 10
13.9292
 20
21.7118
 30
0.0
 10
14.2629
 20
21.3443
 30
0.0
 10
14.2638
 20
21.344
 30
0.0
 10
14.8008
 20
21.2863
 30
0.0
 10
14.3973
 20
20.8679
 30
0.0
 10
14.3696
 20
20.811
 30
0.0
 10
14.3476
 20
20.3208
 30
0.0
  0
SPLINE
  5
80
330
1F
100
AcDbEntity
  8
Layer 1
 62
   250
100
AcDbSpline
210
0.0
220
0.0
230
1.0
 70
    11
 71
     3
 72
    20
 73
    16
 74
     0
 42
0.0000000001
 43
0.0000000001
 40
0.0
 40
0.0
 40
0.0
 40
0.0
 40
0.2
 40
0.2
 40
0.2
 40
0.4
 40
0.4
 40
0.4
 40
0.6000000000000001
 40
0.6000000000000001
 40
0.6000000000000001
 40
0.8
 40
0.8
 40
0.8
 40
1.0
 40
1.0
 40
1.0
 40
1.0
 10
11.2281
 20
18.2835
 30
0.0
 10
11.5394
 20
18.2482
 30
0.0
 10
11.8506
 20
18.2126
 30
0.0
 10
12.1961
 20
18.1727
 30
0.0
 10
12.1719
 20
17.8282
 30
0.0
 10
12.1486
 20
17.4945
 30
0.0
 10
12.1258
 20
17.1604
 30
0.0
 10
12.11
 20
17.15
 30
0.0
 10
12.0951
 20
17.1395
 30
0.0
 10
12.0798
 20
17.1292
 30
0.0
 10
11.7855
 20
17.4962
 30
0.0
 10
11.4912
 20
17.8627
 30
0.0
 10
11.1974
 20
18.2295
 30
0.0
 10
11.2072
 20
18.2474
 30
0.0
 10
11.2177
 20
18.2657
 30
0.0
 10
11.2281
 20
18.2835
 30
0.0
  0
SPLINE
  5
81
330
1F
100
AcDbEntity
  8
Layer 1
 62
   250
100
AcDbSpline
210
0.0
220
0.0
230
1.0
 70
    11
 71
     3
 72
    17
 73
    13
 74
     0
 42
0.0000000001
 43
0.0000000001
 40
0.0
 40
0.0
 40
0.0
 40
0.0
 40
0.25
 40
0.25
 40
0.25
 40
0.5
 40
0.5
 40
0.5
 40
0.75
 40
0.75
 40
0.75
 40
1.0
 40
1.0
 40
1.0
 40
1.0
 10
10.7647
 20
18.7786
 30
0.0
 10
10.4879
 20
19.1306
 30
0.0
 10
10.211
 20
19.4821
 30
0.0
 10
9.8939
 20
19.8852
 30
0.0
 10
10.2563
 20
19.8458
 30
0.0
 10
10.5526
 20
19.8138
 30
0.0
 10
10.8976
 20
19.7765
 30
0.0
 10
10.8772
 20
19.4494
 30
0.0
 10
10.8573
 20
19.1202
 30
0.0
 10
10.8373
 20
18.7906
 30
0.0
 10
10.8133
 20
18.7865
 30
0.0
 10
10.7892
 20
18.7828
 30
0.0
 10
10.7647
 20
18.7786
 30
0.0
  0
SPLINE
  5
82
330
1F
100
AcDbEntity
  8
Layer 1
 62
   250
100
AcDbSpline
210
0.0
220
0.0
230
1.0
 70
    11
 71
     3
 72
    17
 73
    13
 74
     0
 42
0.0000000001
 43
0.0000000001
 40
0.0
 40
0.0
 40
0.0
 40
0.0
 40
0.25
 40
0.25
 40
0.25
 40
0.5
 40
0.5
 40
0.5
 40
0.75
 40
0.75
 40
0.75
 40
1.0
 40
1.0
 40
1.0
 40
1.0
 10
6.0527
 20
-11.1542
 30
0.0
 10
6.4737
 20
-11.0289
 30
0.0
 10
6.8941
 20
-10.904
 30
0.0
 10
7.3316
 20
-10.7744
 30
0.0
 10
7.3316
 20
-10.7744
 30
0.0
 10
7.3316
 20
-11.512
 30
0.0
 10
7.3316
 20
-11.512
 30
0.0
 10
6.8979
 20
-11.4062
 30
0.0
 10
6.477
 20
-11.3032
 30
0.0
 10
6.0565
 20
-11.2004
 30
0.0
 10
6.0565
 20
-11.2004
 30
0.0
 10
6.0527
 20
-11.1542
 30
0.0
 10
6.0527
 20
-11.1542
 30
0.0
  0
SPLINE
  5
83
330
1F
100
AcDbEntity
  8
Layer 1
 62
   250
100
AcDbSpline
210
0.0
220
0.0
230
1.0
 70
    11
 71
     3
 72
    20
 73
    16
 74
     0
 42
0.0000000001
 43
0.0000000001
 40
0.0
 40
0.0
 40
0.0
 40
0.0
 40
0.2
 40
0.2
 40
0.2
 40
0.4
 40
0.4
 40
0.4
 40
0.6000000000000001
 40
0.6000000000000001
 40
0.6000000000000001
 40
0.8
 40
0.8
 40
0.8
 40
1.0
 40
1.0
 40
1.0
 40
1.0
 10
-10.4856
 20
-3.0663
 30
0.0
 10
-10.8426
 20
-3.7243
 30
0.0
 10
-11.2095
 20
-3.7417
 30
0.0
 10
-11.7408
 20
-3.3279
 30
0.0
 10
-11.8687
 20
-3.2287
 30
0.0
 10
-11.8994
 20
-3.1149
 30
0.0
 10
-11.7748
 20
-2.9842
 30
0.0
 10
-11.7018
 20
-2.907
 30
0.0
 10
-11.6345
 20
-2.824
 30
0.0
 10
-11.571
 20
-2.7384
 30
0.0
 10
-11.4826
 20
-2.6185
 30
0.0
 10
-11.3846
 20
-2.5919
 30
0.0
 10
-11.2493
 20
-2.6662
 30
0.0
 10
-10.9974
 20
-2.8049
 30
0.0
 10
-10.7404
 20
-2.934
 30
0.0
 10
-10.4856
 20
-3.0663
 30
0.0
  0
SPLINE
  5
84
330
1F
100
AcDbEntity
  8
Layer 1
 62
   250
100
AcDbSpline
210
0.0
220
0.0
230
1.0
 70
    11
 71
     3
 72
    20
 73
    16
 74
     0
 42
0.0000000001
 43
0.0000000001
 40
0.0
 40
0.0
 40
0.0
 40
0.0
 40
0.2
 40
0.2
 40
0.2
 40
0.4
 40
0.4
 40
0.4
 40
0.6000000000000001
 40
0.6000000000000001
 40
0.6000000000000001
 40
0.8
 40
0.8
 40
0.8
 40
1.0
 40
1.0
 40
1.0
 40
1.0
 10
12.0606
 20
19.9618
 30
0.0
 10
11.8357
 20
19.9897
 30
0.0
 10
11.6111
 20
20.0183
 30
0.0
 10
11.3861
 20
20.0449
 30
0.0
 10
11.2836
 20
20.0574
 30
0.0
 10
11.2575
 20
20.1075
 30
0.0
 10
11.2711
 20
20.2104
 30
0.0
 10
11.3006
 20
20.4367
 30
0.0
 10
11.3155
 20
20.6646
 30
0.0
 10
11.3429
 20
20.9643
 30
0.0
 10
11.6143
 20
20.6239
 30
0.0
 10
11.8543
 20
20.3242
 30
0.0
 10
12.0938
 20
20.0237
 30
0.0
 10
12.083
 20
20.0034
 30
0.0
 10
12.0718
 20
19.9827
 30
0.0
 10
12.0606
 20
19.9618
 30
0.0
  0
SPLINE
  5
85
330
1F
100
AcDbEntity
  8
Layer 1
 62
   250
100
AcDbSpline
210
0.0
220
0.0
230
1.0
 70
    11
 71
     3
 72
    26
 73
    22
 74
     0
 42
0.0000000001
 43
0.0000000001
 40
0.0
 40
0.0
 40
0.0
 40
0.0
 40
0.1428571428571428
 40
0.1428571428571428
 40
0.1428571428571428
 40
0.2857142857142857
 40
0.2857142857142857
 40
0.2857142857142857
 40
0.4285714285714285
 40
0.4285714285714285
 40
0.4285714285714285
 40
0.5714285714285714
 40
0.5714285714285714
 40
0.5714285714285714
 40
0.7142857142857142
 40
0.7142857142857142
 40
0.7142857142857142
 40
0.8571428571428571
 40
0.8571428571428571
 40
0.8571428571428571
 40
1.0
 40
1.0
 40
1.0
 40
1.0
 10
-6.8679
 20
-9.982
 30
0.0
 10
-7.1364
 20
-9.8247
 30
0.0
 10
-7.3436
 20
-9.7055
 30
0.0
 10
-7.5482
 20
-9.5823
 30
0.0
 10
-7.5686
 20
-9.5694
 30
0.0
 10
-7.5934
 20
-9.5229
 30
0.0
 10
-7.5855
 20
-9.5088
 30
0.0
 10
-7.4917
 20
-9.3419
 30
0.0
 10
-7.4108
 20
-9.161
 30
0.0
 10
-7.2838
 20
-9.0232
 30
0.0
 10
-7.2364
 20
-8.9713
 30
0.0
 10
-7.0742
 20
-9.0045
 30
0.0
 10
-6.9717
 20
-9.0286
 30
0.0
 10
-6.8704
 20
-9.0531
 30
0.0
 10
-6.7645
 20
-9.0987
 30
0.0
 10
-6.6852
 20
-9.1647
 30
0.0
 10
-6.5711
 20
-9.2593
 30
0.0
 10
-6.3764
 20
-9.452
 30
0.0
 10
-6.3955
 20
-9.4785
 30
0.0
 10
-6.5196
 20
-9.6582
 30
0.0
 10
-6.6914
 20
-9.8047
 30
0.0
 10
-6.8679
 20
-9.982
 30
0.0
  0
SPLINE
  5
86
330
1F
100
AcDbEntity
  8
Layer 1
 62
   250
100
AcDbSpline
210
0.0
220
0.0
230
1.0
 70
    11
 71
     3
 72
    17
 73
    13
 74
     0
 42
0.0000000001
 43
0.0000000001
 40
0.0
 40
0.0
 40
0.0
 40
0.0
 40
0.25
 40
0.25
 40
0.25
 40
0.5
 40
0.5
 40
0.5
 40
0.75
 40
0.75
 40
0.75
 40
1.0
 40
1.0
 40
1.0
 40
1.0
 10
13.3312
 20
18.365
 30
0.0
 10
13.0826
 20
18.399
 30
0.0
 10
12.8344
 20
18.4331
 30
0.0
 10
12.557
 20
18.4709
 30
0.0
 10
12.5836
 20
18.7452
 30
0.0
 10
12.6089
 20
19.0058
 30
0.0
 10
12.6405
 20
19.3271
 30
0.0
 10
12.9007
 20
18.9996
 30
0.0
 10
13.1278
 20
18.7132
 30
0.0
 10
13.3552
 20
18.4272
 30
0.0
 10
13.3473
 20
18.4065
 30
0.0
 10
13.3395
 20
18.3857
 30
0.0
 10
13.3312
 20
18.365
 30
0.0
  0
SPLINE
  5
87
330
1F
100
AcDbEntity
  8
Layer 1
 62
   250
100
AcDbSpline
210
0.0
220
0.0
230
1.0
 70
    11
 71
     3
 72
    23
 73
    19
 74
     0
 42
0.0000000001
 43
0.0000000001
 40
0.0
 40
0.0
 40
0.0
 40
0.0
 40
0.1666666666666667
 40
0.1666666666666667
 40
0.1666666666666667
 40
0.3333333333333333
 40
0.3333333333333333
 40
0.3333333333333333
 40
0.5
 40
0.5
 40
0.5
 40
0.6666666666666666
 40
0.6666666666666666
 40
0.6666666666666666
 40
0.8333333333333333
 40
0.8333333333333333
 40
0.8333333333333333
 40
1.0
 40
1.0
 40
1.0
 40
1.0
 10
6.254
 20
-10.9386
 30
0.0
 10
6.5915
 20
-10.6535
 30
0.0
 10
6.9286
 20
-10.3675
 30
0.0
 10
7.266
 20
-10.0824
 30
0.0
 10
7.266
 20
-10.0824
 30
0.0
 10
7.3274
 20
-10.0955
 30
0.0
 10
7.3274
 20
-10.0955
 30
0.0
 10
7.3274
 20
-10.2653
 30
0.0
 10
7.3312
 20
-10.4351
 30
0.0
 10
7.3241
 20
-10.6044
 30
0.0
 10
7.3228
 20
-10.6331
 30
0.0
 10
7.2826
 20
-10.6755
 30
0.0
 10
7.2519
 20
-10.685
 30
0.0
 10
6.9265
 20
-10.7837
 30
0.0
 10
6.599
 20
-10.8776
 30
0.0
 10
6.2719
 20
-10.9727
 30
0.0
 10
6.266
 20
-10.9614
 30
0.0
 10
6.2603
 20
-10.9499
 30
0.0
 10
6.254
 20
-10.9386
 30
0.0
  0
SPLINE
  5
88
330
1F
100
AcDbEntity
  8
Layer 1
 62
   250
100
AcDbSpline
210
0.0
220
0.0
230
1.0
 70
    11
 71
     3
 72
    20
 73
    16
 74
     0
 42
0.0000000001
 43
0.0000000001
 40
0.0
 40
0.0
 40
0.0
 40
0.0
 40
0.2
 40
0.2
 40
0.2
 40
0.4
 40
0.4
 40
0.4
 40
0.6000000000000001
 40
0.6000000000000001
 40
0.6000000000000001
 40
0.8
 40
0.8
 40
0.8
 40
1.0
 40
1.0
 40
1.0
 40
1.0
 10
6.2927
 20
-11.3679
 30
0.0
 10
6.6211
 20
-11.4513
 30
0.0
 10
6.9502
 20
-11.5318
 30
0.0
 10
7.2765
 20
-11.6223
 30
0.0
 10
7.3097
 20
-11.6315
 30
0.0
 10
7.3437
 20
-11.7012
 30
0.0
 10
7.3458
 20
-11.7443
 30
0.0
 10
7.3545
 20
-11.8975
 30
0.0
 10
7.3491
 20
-12.0515
 30
0.0
 10
7.3491
 20
-12.2541
 30
0.0
 10
6.9689
 20
-11.9589
 30
0.0
 10
6.6203
 20
-11.688
 30
0.0
 10
6.2712
 20
-11.4169
 30
0.0
 10
6.2786
 20
-11.4006
 30
0.0
 10
6.2857
 20
-11.384
 30
0.0
 10
6.2927
 20
-11.3679
 30
0.0
  0
SPLINE
  5
89
330
1F
100
AcDbEntity
  8
Layer 1
 62
   250
100
AcDbSpline
210
0.0
220
0.0
230
1.0
 70
    11
 71
     3
 72
    29
 73
    25
 74
     0
 42
0.0000000001
 43
0.0000000001
 40
0.0
 40
0.0
 40
0.0
 40
0.0
 40
0.125
 40
0.125
 40
0.125
 40
0.25
 40
0.25
 40
0.25
 40
0.375
 40
0.375
 40
0.375
 40
0.5
 40
0.5
 40
0.5
 40
0.625
 40
0.625
 40
0.625
 40
0.75
 40
0.75
 40
0.75
 40
0.875
 40
0.875
 40
0.875
 40
1.0
 40
1.0
 40
1.0
 40
1.0
 10
-6.4954
 20
-8.1964
 30
0.0
 10
-6.7062
 20
-8.0877
 30
0.0
 10
-6.9187
 20
-7.9806
 30
0.0
 10
-7.1266
 20
-7.8673
 30
0.0
 10
-7.1545
 20
-7.8524
 30
0.0
 10
-7.1761
 20
-7.8042
 30
0.0
 10
-7.1782
 20
-7.7698
 30
0.0
 10
-7.1923
 20
-7.5626
 30
0.0
 10
-6.7598
 20
-7.253
 30
0.0
 10
-6.5713
 20
-7.334
 30
0.0
 10
-6.4646
 20
-7.3796
 30
0.0
 10
-6.3501
 20
-7.4186
 30
0.0
 10
-6.2596
 20
-7.487
 30
0.0
 10
-6.1488
 20
-7.5706
 30
0.0
 10
-6.0595
 20
-7.6821
 30
0.0
 10
-5.9611
 20
-7.7814
 30
0.0
 10
-6.1023
 20
-7.9021
 30
0.0
 10
-6.2426
 20
-8.0238
 30
0.0
 10
-6.3857
 20
-8.1412
 30
0.0
 10
-6.4045
 20
-8.1566
 30
0.0
 10
-6.4422
 20
-8.1488
 30
0.0
 10
-6.4713
 20
-8.1512
 30
0.0
 10
-6.4792
 20
-8.1665
 30
0.0
 10
-6.487
 20
-8.1815
 30
0.0
 10
-6.4954
 20
-8.1964
 30
0.0
  0
SPLINE
  5
8A
330
1F
100
AcDbEntity
  8
Layer 1
 62
   250
100
AcDbSpline
210
0.0
220
0.0
230
1.0
 70
    11
 71
     3
 72
    17
 73
    13
 74
     0
 42
0.0000000001
 43
0.0000000001
 40
0.0
 40
0.0
 40
0.0
 40
0.0
 40
0.25
 40
0.25
 40
0.25
 40
0.5
 40
0.5
 40
0.5
 40
0.75
 40
0.75
 40
0.75
 40
1.0
 40
1.0
 40
1.0
 40
1.0
 10
14.3304
 20
15.4819
 30
0.0
 10
14.4138
 20
15.6289
 30
0.0
 10
14.5076
 20
15.7936
 30
0.0
 10
14.5839
 20
15.9281
 30
0.0
 10
14.7483
 20
15.853
 30
0.0
 10
14.9306
 20
15.7696
 30
0.0
 10
15.09
 20
15.6969
 30
0.0
 10
15.0091
 20
15.548
 30
0.0
 10
14.9048
 20
15.3562
 30
0.0
 10
14.8189
 20
15.1989
 30
0.0
 10
14.6711
 20
15.2844
 30
0.0
 10
14.4902
 20
15.3894
 30
0.0
 10
14.3304
 20
15.4819
 30
0.0
  0
SPLINE
  5
8B
330
1F
100
AcDbEntity
  8
Layer 1
 62
   250
100
AcDbSpline
210
0.0
220
0.0
230
1.0
 70
    11
 71
     3
 72
    20
 73
    16
 74
     0
 42
0.0000000001
 43
0.0000000001
 40
0.0
 40
0.0
 40
0.0
 40
0.0
 40
0.2
 40
0.2
 40
0.2
 40
0.4
 40
0.4
 40
0.4
 40
0.6000000000000001
 40
0.6000000000000001
 40
0.6000000000000001
 40
0.8
 40
0.8
 40
0.8
 40
1.0
 40
1.0
 40
1.0
 40
1.0
 10
-4.6284
 20
-13.1453
 30
0.0
 10
-4.601
 20
-13.186
 30
0.0
 10
-4.5731
 20
-13.2267
 30
0.0
 10
-4.5458
 20
-13.2674
 30
0.0
 10
-4.4677
 20
-13.3745
 30
0.0
 10
-4.3901
 20
-13.4815
 30
0.0
 10
-4.3046
 20
-13.5994
 30
0.0
 10
-4.4312
 20
-13.6119
 30
0.0
 10
-4.5474
 20
-13.6085
 30
0.0
 10
-4.654
 20
-13.638
 30
0.0
 10
-4.7599
 20
-13.6671
 30
0.0
 10
-4.857
 20
-13.7289
 30
0.0
 10
-4.9575
 20
-13.7766
 30
0.0
 10
-5.0447
 20
-13.2944
 30
0.0
 10
-4.9703
 20
-13.0835
 30
0.0
 10
-4.6284
 20
-13.1453
 30
0.0
  0
SPLINE
  5
8C
330
1F
100
AcDbEntity
  8
Layer 1
 62
   250
100
AcDbSpline
210
0.0
220
0.0
230
1.0
 70
    11
 71
     3
 72
    11
 73
     7
 74
     0
 42
0.0000000001
 43
0.0000000001
 40
0.0
 40
0.0
 40
0.0
 40
0.0
 40
0.5
 40
0.5
 40
0.5
 40
1.0
 40
1.0
 40
1.0
 40
1.0
 10
-12.5119
 20
-9.419
 30
0.0
 10
-12.0897
 20
-10.0437
 30
0.0
 10
-11.7129
 20
-10.6373
 30
0.0
 10
-11.07
 20
-10.9809
 30
0.0
 10
-11.7129
 20
-11.1279
 30
0.0
 10
-12.6162
 20
-10.1657
 30
0.0
 10
-12.5119
 20
-9.419
 30
0.0
  0
SPLINE
  5
8D
330
1F
100
AcDbEntity
  8
Layer 1
 62
   250
100
AcDbSpline
210
0.0
220
0.0
230
1.0
 70
    11
 71
     3
 72
    14
 73
    10
 74
     0
 42
0.0000000001
 43
0.0000000001
 40
0.0
 40
0.0
 40
0.0
 40
0.0
 40
0.3333333333333333
 40
0.3333333333333333
 40
0.3333333333333333
 40
0.6666666666666666
 40
0.6666666666666666
 40
0.6666666666666666
 40
1.0
 40
1.0
 40
1.0
 40
1.0
 10
7.9889
 20
-10.4696
 30
0.0
 10
7.9063
 20
-10.5617
 30
0.0
 10
7.8391
 20
-10.6364
 30
0.0
 10
7.7727
 20
-10.7103
 30
0.0
 10
7.4477
 20
-10.5418
 30
0.0
 10
7.3966
 20
-10.4331
 30
0.0
 10
7.4534
 20
-10.0064
 30
0.0
 10
7.6352
 20
-10.1637
 30
0.0
 10
7.8055
 20
-10.3106
 30
0.0
 10
7.9889
 20
-10.4696
 30
0.0
  0
SPLINE
  5
8E
330
1F
100
AcDbEntity
  8
Layer 1
 62
   250
100
AcDbSpline
210
0.0
220
0.0
230
1.0
 70
    11
 71
     3
 72
    14
 73
    10
 74
     0
 42
0.0000000001
 43
0.0000000001
 40
0.0
 40
0.0
 40
0.0
 40
0.0
 40
0.3333333333333333
 40
0.3333333333333333
 40
0.3333333333333333
 40
0.6666666666666666
 40
0.6666666666666666
 40
0.6666666666666666
 40
1.0
 40
1.0
 40
1.0
 40
1.0
 10
7.4984
 20
-12.2917
 30
0.0
 10
7.4296
 20
-11.8936
 30
0.0
 10
7.4457
 20
-11.8529
 30
0.0
 10
7.7803
 20
-11.5715
 30
0.0
 10
7.8529
 20
-11.6396
 30
0.0
 10
7.9276
 20
-11.7097
 30
0.0
 10
8.0222
 20
-11.7985
 30
0.0
 10
7.8434
 20
-11.9667
 30
0.0
 10
7.6765
 20
-12.124
 30
0.0
 10
7.4984
 20
-12.2917
 30
0.0
  0
SPLINE
  5
8F
330
1F
100
AcDbEntity
  8
Layer 1
 62
   250
100
AcDbSpline
210
0.0
220
0.0
230
1.0
 70
    11
 71
     3
 72
    17
 73
    13
 74
     0
 42
0.0000000001
 43
0.0000000001
 40
0.0
 40
0.0
 40
0.0
 40
0.0
 40
0.25
 40
0.25
 40
0.25
 40
0.5
 40
0.5
 40
0.5
 40
0.75
 40
0.75
 40
0.75
 40
1.0
 40
1.0
 40
1.0
 40
1.0
 10
8.2619
 20
21.7632
 30
0.0
 10
8.1436
 20
21.8305
 30
0.0
 10
8.0137
 20
21.9044
 30
0.0
 10
7.888
 20
21.9758
 30
0.0
 10
7.951
 20
22.0821
 30
0.0
 10
8.0233
 20
22.2036
 30
0.0
 10
8.0901
 20
22.3169
 30
0.0
 10
8.2125
 20
22.2568
 30
0.0
 10
8.3453
 20
22.1916
 30
0.0
 10
8.4648
 20
22.1331
 30
0.0
 10
8.4014
 20
22.0172
 30
0.0
 10
8.3287
 20
21.8853
 30
0.0
 10
8.2619
 20
21.7632
 30
0.0
  0
SPLINE
  5
90
330
1F
100
AcDbEntity
  8
Layer 1
 62
   250
100
AcDbSpline
210
0.0
220
0.0
230
1.0
 70
    11
 71
     3
 72
    17
 73
    13
 74
     0
 42
0.0000000001
 43
0.0000000001
 40
0.0
 40
0.0
 40
0.0
 40
0.0
 40
0.25
 40
0.25
 40
0.25
 40
0.5
 40
0.5
 40
0.5
 40
0.75
 40
0.75
 40
0.75
 40
1.0
 40
1.0
 40
1.0
 40
1.0
 10
8.0159
 20
-11.132
 30
0.0
 10
7.9291
 20
-11.2274
 30
0.0
 10
7.8544
 20
-11.3096
 30
0.0
 10
7.7714
 20
-11.4005
 30
0.0
 10
7.6809
 20
-11.3163
 30
0.0
 10
7.6029
 20
-11.244
 30
0.0
 10
7.5165
 20
-11.1635
 30
0.0
 10
7.5958
 20
-11.0722
 30
0.0
 10
7.6692
 20
-10.9879
 30
0.0
 10
7.7577
 20
-10.8859
 30
0.0
 10
7.8431
 20
-10.9672
 30
0.0
 10
7.9224
 20
-11.0427
 30
0.0
 10
8.0159
 20
-11.132
 30
0.0
  0
SPLINE
  5
91
330
1F
100
AcDbEntity
  8
Layer 1
 62
   250
100
AcDbSpline
210
0.0
220
0.0
230
1.0
 70
    11
 71
     3
 72
    14
 73
    10
 74
     0
 42
0.0000000001
 43
0.0000000001
 40
0.0
 40
0.0
 40
0.0
 40
0.0
 40
0.3333333333333333
 40
0.3333333333333333
 40
0.3333333333333333
 40
0.6666666666666666
 40
0.6666666666666666
 40
0.6666666666666666
 40
1.0
 40
1.0
 40
1.0
 40
1.0
 10
7.6804
 20
-10.8106
 30
0.0
 10
7.6037
 20
-10.896
 30
0.0
 10
7.5439
 20
-10.962
 30
0.0
 10
7.4522
 20
-11.0641
 30
0.0
 10
7.4522
 20
-11.0641
 30
0.0
 10
7.4522
 20
-10.6058
 30
0.0
 10
7.4522
 20
-10.6058
 30
0.0
 10
7.5364
 20
-10.681
 30
0.0
 10
7.5986
 20
-10.737
 30
0.0
 10
7.6804
 20
-10.8106
 30
0.0
  0
SPLINE
  5
92
330
1F
100
AcDbEntity
  8
Layer 1
 62
   250
100
AcDbSpline
210
0.0
220
0.0
230
1.0
 70
    11
 71
     3
 72
    14
 73
    10
 74
     0
 42
0.0000000001
 43
0.0000000001
 40
0.0
 40
0.0
 40
0.0
 40
0.0
 40
0.3333333333333333
 40
0.3333333333333333
 40
0.3333333333333333
 40
0.6666666666666666
 40
0.6666666666666666
 40
0.6666666666666666
 40
1.0
 40
1.0
 40
1.0
 40
1.0
 10
7.4796
 20
-11.2774
 30
0.0
 10
7.5584
 20
-11.3497
 30
0.0
 10
7.6203
 20
-11.4057
 30
0.0
 10
7.6975
 20
-11.4759
 30
0.0
 10
7.6303
 20
-11.5523
 30
0.0
 10
7.5713
 20
-11.6195
 30
0.0
 10
7.4796
 20
-11.7237
 30
0.0
 10
7.4796
 20
-11.7237
 30
0.0
 10
7.4796
 20
-11.2774
 30
0.0
 10
7.4796
 20
-11.2774
 30
0.0
  0
SPLINE
  5
93
330
1F
100
AcDbEntity
  8
Layer 1
 62
   250
100
AcDbSpline
210
0.0
220
0.0
230
1.0
 70
    11
 71
     3
 72
    14
 73
    10
 74
     0
 42
0.0000000001
 43
0.0000000001
 40
0.0
 40
0.0
 40
0.0
 40
0.0
 40
0.3333333333333333
 40
0.3333333333333333
 40
0.3333333333333333
 40
0.6666666666666666
 40
0.6666666666666666
 40
0.6666666666666666
 40
1.0
 40
1.0
 40
1.0
 40
1.0
 10
7.8262
 20
-10.8093
 30
0.0
 10
7.888
 20
-10.7429
 30
0.0
 10
7.939
 20
-10.6881
 30
0.0
 10
8.0172
 20
-10.6043
 30
0.0
 10
8.0172
 20
-10.6043
 30
0.0
 10
8.0172
 20
-10.9866
 30
0.0
 10
8.0172
 20
-10.9866
 30
0.0
 10
7.9441
 20
-10.9189
 30
0.0
 10
7.8906
 20
-10.869
 30
0.0
 10
7.8262
 20
-10.8093
 30
0.0
  0
SPLINE
  5
94
330
1F
100
AcDbEntity
  8
Layer 1
 62
   250
100
AcDbSpline
210
0.0
220
0.0
230
1.0
 70
    11
 71
     3
 72
    14
 73
    10
 74
     0
 42
0.0000000001
 43
0.0000000001
 40
0.0
 40
0.0
 40
0.0
 40
0.0
 40
0.3333333333333333
 40
0.3333333333333333
 40
0.3333333333333333
 40
0.6666666666666666
 40
0.6666666666666666
 40
0.6666666666666666
 40
1.0
 40
1.0
 40
1.0
 40
1.0
 10
7.8262
 20
-11.4825
 30
0.0
 10
7.888
 20
-11.4162
 30
0.0
 10
7.939
 20
-11.3613
 30
0.0
 10
8.0172
 20
-11.2776
 30
0.0
 10
8.0172
 20
-11.2776
 30
0.0
 10
8.0172
 20
-11.6598
 30
0.0
 10
8.0172
 20
-11.6598
 30
0.0
 10
7.9441
 20
-11.5922
 30
0.0
 10
7.8906
 20
-11.5423
 30
0.0
 10
7.8262
 20
-11.4825
 30
0.0
  0
ENDSEC
  0
SECTION
  2
OBJECTS
  0
DICTIONARY
  5
C
330
0
100
AcDbDictionary
281
     1
  3
ACAD_DETAILVIEWSTYLE
350
9C
  3
ACAD_GROUP
350
D
  3
ACAD_LAYOUT
350
1A
  3
ACAD_MATERIAL
350
43
  3
ACAD_MLEADERSTYLE
350
5B
  3
ACAD_MLINESTYLE
350
17
  3
ACAD_PLOTSETTINGS
350
19
  3
ACAD_PLOTSTYLENAME
350
E
  3
ACAD_SCALELIST
350
47
  3
ACAD_SECTIONVIEWSTYLE
350
9D
  3
ACAD_TABLESTYLE
350
59
  3
ACAD_VISUALSTYLE
350
2A
  3
ACDB_RECOMPOSE_DATA
350
99
  3
AcDbVariableDictionary
350
95
  0
SUN
  5
5D
330
29
100
AcDbSun
 90
        1
290
     0
 63
     7
421
 16777215
 40
1.0
291
     1
 91
  2455826
 92
 54000000
292
     0
 70
     2
 71
   256
280
     1
  0
DICTIONARY
  5
9C
102
{ACAD_REACTORS
330
C
102
}
330
C
100
AcDbDictionary
281
     1
  0
DICTIONARY
  5
D
102
{ACAD_REACTORS
330
C
102
}
330
C
100
AcDbDictionary
281
     1
  0
DICTIONARY
  5
1A
102
{ACAD_REACTORS
330
C
102
}
330
C
100
AcDbDictionary
281
     1
  3
Layout1
350
1E
  3
Layout2
350
26
  3
Model
350
22
  0
DICTIONARY
  5
43
102
{ACAD_REACTORS
330
C
102
}
330
C
100
AcDbDictionary
281
     1
  3
ByBlock
350
45
  3
ByLayer
350
44
  3
Global
350
46
  0
DICTIONARY
  5
5B
102
{ACAD_REACTORS
330
C
102
}
330
C
100
AcDbDictionary
281
     1
  3
Standard
350
5C
  0
DICTIONARY
  5
17
102
{ACAD_REACTORS
330
C
102
}
330
C
100
AcDbDictionary
281
     1
  3
Standard
350
18
  0
DICTIONARY
  5
19
102
{ACAD_REACTORS
330
C
102
}
330
C
100
AcDbDictionary
281
     1
  0
ACDBDICTIONARYWDFLT
  5
E
102
{ACAD_REACTORS
330
C
102
}
330
C
100
AcDbDictionary
281
     1
  3
Normal
350
F
100
AcDbDictionaryWithDefault
340
F
  0
DICTIONARY
  5
47
102
{ACAD_REACTORS
330
C
102
}
330
C
100
AcDbDictionary
281
     1
  3
A0
350
48
  3
A1
350
49
  3
A2
350
4A
  3
A3
350
4B
  3
A4
350
4C
  3
A5
350
4D
  3
A6
350
4E
  3
A7
350
4F
  3
A8
350
50
  3
A9
350
51
  3
B1
350
52
  3
B2
350
53
  3
B3
350
54
  3
B4
350
55
  3
B5
350
56
  3
B6
350
57
  3
B7
350
58
  0
DICTIONARY
  5
9D
102
{ACAD_REACTORS
330
C
102
}
330
C
100
AcDbDictionary
281
     1
  0
DICTIONARY
  5
59
102
{ACAD_REACTORS
330
C
102
}
330
C
100
AcDbDictionary
281
     1
  3
Standard
350
5A
  0
DICTIONARY
  5
2A
102
{ACAD_REACTORS
330
C
102
}
330
C
100
AcDbDictionary
281
     1
  3
2dWireframe
350
2F
  3
Basic
350
32
  3
Brighten
350
36
  3
ColorChange
350
3A
  3
Conceptual
350
34
  3
Dim
350
35
  3
EdgeColorOff
350
3D
  3
Facepattern
350
39
  3
Flat
350
2B
  3
FlatWithEdges
350
2C
  3
Gouraud
350
2D
  3
GouraudWithEdges
350
2E
  3
Hidden
350
31
  3
JitterOff
350
3B
  3
Linepattern
350
38
  3
OverhangOff
350
3C
  3
Realistic
350
33
  3
Shaded
350
42
  3
Shaded with edges
350
41
  3
Shades of Gray
350
3E
  3
Sketchy
350
3F
  3
Thicken
350
37
  3
Wireframe
350
30
  3
X-Ray
350
40
  0
XRECORD
  5
99
102
{ACAD_REACTORS
330
C
102
}
330
C
100
AcDbXrecord
280
     1
 90
        1
330
5A
  0
DICTIONARY
  5
95
102
{ACAD_REACTORS
330
C
102
}
330
C
100
AcDbDictionary
281
     1
  3
CANNOSCALE
350
96
  3
CMLEADERSTYLE
350
9B
  3
CTABLESTYLE
350
9A
  0
LAYOUT
  5
1E
102
{ACAD_REACTORS
330
1A
102
}
330
1A
100
AcDbPlotSettings
  1

  2
none_device
  4

  6

 40
0.0
 41
0.0
 42
0.0
 43
0.0
 44
0.0
 45
0.0
 46
0.0
 47
0.0
 48
0.0
 49
0.0
140
0.0
141
0.0
142
1.0
143
1.0
 70
   688
 72
     0
 73
     0
 74
     5
  7

 75
    16
 76
     0
 77
     2
 78
   300
147
1.0
148
0.0
149
0.0
100
AcDbLayout
  1
Layout1
 70
     1
 71
     1
 10
0.0
 20
0.0
 11
12.0
 21
9.0
 12
0.0
 22
0.0
 32
0.0
 14
1.000000000000000E+20
 24
1.000000000000000E+20
 34
1.000000000000000E+20
 15
-1.000000000000000E+20
 25
-1.000000000000000E+20
 35
-1.000000000000000E+20
146
0.0
 13
0.0
 23
0.0
 33
0.0
 16
1.0
 26
0.0
 36
0.0
 17
0.0
 27
1.0
 37
0.0
 76
     0
330
1B
  0
LAYOUT
  5
26
102
{ACAD_REACTORS
330
1A
102
}
330
1A
100
AcDbPlotSettings
  1

  2
none_device
  4

  6

 40
0.0
 41
0.0
 42
0.0
 43
0.0
 44
0.0
 45
0.0
 46
0.0
 47
0.0
 48
0.0
 49
0.0
140
0.0
141
0.0
142
1.0
143
1.0
 70
   688
 72
     0
 73
     0
 74
     5
  7

 75
    16
 76
     0
 77
     2
 78
   300
147
1.0
148
0.0
149
0.0
100
AcDbLayout
  1
Layout2
 70
     1
 71
     2
 10
0.0
 20
0.0
 11
0.0
 21
0.0
 12
0.0
 22
0.0
 32
0.0
 14
0.0
 24
0.0
 34
0.0
 15
0.0
 25
0.0
 35
0.0
146
0.0
 13
0.0
 23
0.0
 33
0.0
 16
1.0
 26
0.0
 36
0.0
 17
0.0
 27
1.0
 37
0.0
 76
     0
330
23
  0
LAYOUT
  5
22
102
{ACAD_REACTORS
330
1A
102
}
330
1A
100
AcDbPlotSettings
  1

  2
none_device
  4
Letter_(8.50_x_11.00_Inches)
  6

 40
6.35
 41
6.35
 42
6.35000508
 43
6.35000508
 44
215.9
 45
279.4
 46
0.0
 47
0.0
 48
0.0
 49
0.0
140
0.0
141
0.0
142
1.0
143
1.0
 70
  1712
 72
     0
 73
     0
 74
     0
  7

 75
     0
 76
     0
 77
     2
 78
   300
147
1.0
148
0.0
149
0.0
100
AcDbLayout
  1
Model
 70
     1
 71
     0
 10
0.0
 20
0.0
 11
12.0
 21
9.0
 12
0.0
 22
0.0
 32
0.0
 14
-14.4673
 24
-22.6831
 34
0.0
 15
15.09
 25
22.3169
 35
0.0
146
0.0
 13
0.0
 23
0.0
 33
0.0
 16
1.0
 26
0.0
 36
0.0
 17
0.0
 27
1.0
 37
0.0
 76
     0
330
1F
331
29
  0
MATERIAL
  5
45
102
{ACAD_REACTORS
330
43
102
}
330
43
100
AcDbMaterial
  1
ByBlock
 72
     1
 94
      127
  0
MATERIAL
  5
44
102
{ACAD_REACTORS
330
43
102
}
330
43
100
AcDbMaterial
  1
ByLayer
 72
     1
 94
      127
  0
MATERIAL
  5
46
102
{ACAD_REACTORS
330
43
102
}
330
43
100
AcDbMaterial
  1
Global
 72
     1
 94
      127
  0
MLEADERSTYLE
  5
5C
102
{ACAD_REACTORS
330
5B
102
}
330
5B
100
AcDbMLeaderStyle
179
     2
170
     2
171
     1
172
     0
 90
        2
 40
0.0
 41
0.0
173
     1
 91
-1056964608
340
14
 92
       -2
290
     1
 42
0.09
291
     1
 43
0.36
  3
Standard
341
0
 44
0.18
300

342
11
174
     1
178
     6
175
     1
176
     0
 93
-1056964608
 45
0.18
292
     0
297
     0
 46
0.18
343
0
 94
-1056964608
 47
1.0
 49
1.0
140
1.0
293
     1
141
0.0
294
     1
177
     0
142
1.0
295
     0
296
     0
143
0.125
271
     0
272
     9
273
     9
298
     0
  0
MLINESTYLE
  5
18
102
{ACAD_REACTORS
330
17
102
}
330
17
100
AcDbMlineStyle
  2
Standard
 70
     0
  3

 62
   256
 51
90.0
 52
90.0
 71
     2
 49
0.5
 62
   256
  6
BYLAYER
 49
-0.5
 62
   256
  6
BYLAYER
  0
ACDBPLACEHOLDER
  5
F
102
{ACAD_REACTORS
330
E
102
}
330
E
  0
SCALE
  5
48
102
{ACAD_REACTORS
330
47
102
}
330
47
100
AcDbScale
 70
     0
300
1:1
140
1.0
141
1.0
290
     1
  0
SCALE
  5
49
102
{ACAD_REACTORS
330
47
102
}
330
47
100
AcDbScale
 70
     0
300
1/128" = 1'-0"
140
0.0078125
141
12.0
290
     0
  0
SCALE
  5
4A
102
{ACAD_REACTORS
330
47
102
}
330
47
100
AcDbScale
 70
     0
300
1/64" = 1'-0"
140
0.015625
141
12.0
290
     0
  0
SCALE
  5
4B
102
{ACAD_REACTORS
330
47
102
}
330
47
100
AcDbScale
 70
     0
300
1/32" = 1'-0"
140
0.03125
141
12.0
290
     0
  0
SCALE
  5
4C
102
{ACAD_REACTORS
330
47
102
}
330
47
100
AcDbScale
 70
     0
300
1/16" = 1'-0"
140
0.0625
141
12.0
290
     0
  0
SCALE
  5
4D
102
{ACAD_REACTORS
330
47
102
}
330
47
100
AcDbScale
 70
     0
300
3/32" = 1'-0"
140
0.09375
141
12.0
290
     0
  0
SCALE
  5
4E
102
{ACAD_REACTORS
330
47
102
}
330
47
100
AcDbScale
 70
     0
300
1/8" = 1'-0"
140
0.125
141
12.0
290
     0
  0
SCALE
  5
4F
102
{ACAD_REACTORS
330
47
102
}
330
47
100
AcDbScale
 70
     0
300
3/16" = 1'-0"
140
0.1875
141
12.0
290
     0
  0
SCALE
  5
50
102
{ACAD_REACTORS
330
47
102
}
330
47
100
AcDbScale
 70
     0
300
1/4" = 1'-0"
140
0.25
141
12.0
290
     0
  0
SCALE
  5
51
102
{ACAD_REACTORS
330
47
102
}
330
47
100
AcDbScale
 70
     0
300
3/8" = 1'-0"
140
0.375
141
12.0
290
     0
  0
SCALE
  5
52
102
{ACAD_REACTORS
330
47
102
}
330
47
100
AcDbScale
 70
     0
300
1/2" = 1'-0"
140
0.5
141
12.0
290
     0
  0
SCALE
  5
53
102
{ACAD_REACTORS
330
47
102
}
330
47
100
AcDbScale
 70
     0
300
3/4" = 1'-0"
140
0.75
141
12.0
290
     0
  0
SCALE
  5
54
102
{ACAD_REACTORS
330
47
102
}
330
47
100
AcDbScale
 70
     0
300
1" = 1'-0"
140
1.0
141
12.0
290
     0
  0
SCALE
  5
55
102
{ACAD_REACTORS
330
47
102
}
330
47
100
AcDbScale
 70
     0
300
1-1/2" = 1'-0"
140
1.5
141
12.0
290
     0
  0
SCALE
  5
56
102
{ACAD_REACTORS
330
47
102
}
330
47
100
AcDbScale
 70
     0
300
3" = 1'-0"
140
3.0
141
12.0
290
     0
  0
SCALE
  5
57
102
{ACAD_REACTORS
330
47
102
}
330
47
100
AcDbScale
 70
     0
300
6" = 1'-0"
140
6.0
141
12.0
290
     0
  0
SCALE
  5
58
102
{ACAD_REACTORS
330
47
102
}
330
47
100
AcDbScale
 70
     0
300
1'-0" = 1'-0"
140
12.0
141
12.0
290
     0
  0
TABLESTYLE
  5
5A
102
{ACAD_REACTORS
330
59
102
}
102
{ACAD_XDICTIONARY
360
97
102
}
330
59
100
AcDbTableStyle
  3
Standard
 70
     0
 71
     0
 40
0.06
 41
0.06
280
     0
281
     0
  7
Standard
140
0.18
170
     2
 62
     0
 63
   257
283
     0
 90
        4
 91
        0
  1

274
    -2
284
     1
 64
     0
275
    -2
285
     1
 65
     0
276
    -2
286
     1
 66
     0
277
    -2
287
     1
 67
     0
278
    -2
288
     1
 68
     0
279
    -2
289
     1
 69
     0
  7
Standard
140
0.25
170
     5
 62
     0
 63
   257
283
     0
 90
        4
 91
        0
  1

274
    -2
284
     1
 64
     0
275
    -2
285
     1
 65
     0
276
    -2
286
     1
 66
     0
277
    -2
287
     1
 67
     0
278
    -2
288
     1
 68
     0
279
    -2
289
     1
 69
     0
  7
Standard
140
0.18
170
     5
 62
     0
 63
   257
283
     0
 90
        4
 91
        0
  1

274
    -2
284
     1
 64
     0
275
    -2
285
     1
 65
     0
276
    -2
286
     1
 66
     0
277
    -2
287
     1
 67
     0
278
    -2
288
     1
 68
     0
279
    -2
289
     1
 69
     0
  0
VISUALSTYLE
  5
2F
102
{ACAD_REACTORS
330
2A
102
}
330
2A
100
AcDbVisualStyle
  2
2dWireframe
 70
     4
177
     3
291
     0
 70
    58
 90
        0
176
     1
 90
        2
176
     1
 90
        0
176
     1
 90
        0
176
     1
 40
0.6
176
     1
 40
30.0
176
     1
 62
     7
420
 16777215
176
     1
 90
        1
176
     1
 90
        4
176
     1
 62
     7
176
     1
 62
   257
176
     1
 90
        1
176
     1
 90
        1
176
     1
 40
1.0
176
     1
 90
        0
176
     1
 62
   257
176
     1
 40
1.0
176
     1
 90
        1
176
     1
 90
        6
176
     1
 90
        2
176
     1
 62
     7
176
     1
 90
        5
176
     1
 90
        0
176
     1
 90
        0
176
     1
290
     0
176
     1
 90
        1
176
     1
 40
0.0
176
     1
 90
        0
176
     1
290
     1
176
     1
290
     1
176
     1
290
     0
176
     1
290
     0
176
     1
290
     0
176
     1
290
     0
176
     1
290
     0
176
     1
290
     0
176
     1
290
     0
176
     1
 90
       50
176
     1
 40
0.0
176
     1
 40
1.0
176
     1
 90
        0
176
     1
 62
    18
420
        0
176
     1
 90
       50
176
     1
 90
        3
176
     1
 62
     5
420
      255
176
     1
290
     0
176
     1
 90
       50
176
     1
 90
       50
176
     1
 90
       50
176
     1
290
     0
176
     1
 90
       50
176
     1
 62
   256
176
     0
 40
1.0
176
     0
 90
        2
176
     1
  1
strokes_ogs.tif
176
     1
290
     0
176
     1
 40
1.0
176
     1
 40
1.0
176
     1
  0
VISUALSTYLE
  5
32
102
{ACAD_REACTORS
330
2A
102
}
330
2A
100
AcDbVisualStyle
  2
Basic
 70
     7
177
     3
291
     1
 70
    58
 90
        1
176
     1
 90
        0
176
     1
 90
        1
176
     1
 90
        0
176
     1
 40
0.6
176
     1
 40
30.0
176
     1
 62
     7
420
 16777215
176
     1
 90
        0
176
     1
 90
        4
176
     1
 62
     7
176
     1
 62
   257
176
     1
 90
        1
176
     1
 90
        1
176
     1
 40
1.0
176
     1
 90
        8
176
     1
 62
     7
176
     1
 40
1.0
176
     1
 90
        1
176
     1
 90
        6
176
     1
 90
        2
176
     1
 62
     7
176
     1
 90
        5
176
     1
 90
        0
176
     1
 90
        0
176
     1
290
     0
176
     1
 90
        1
176
     1
 40
0.0
176
     1
 90
        0
176
     1
290
     0
176
     1
290
     1
176
     1
290
     1
176
     1
290
     0
176
     1
290
     0
176
     1
290
     0
176
     1
290
     0
176
     1
290
     0
176
     1
290
     0
176
     1
 90
       50
176
     1
 40
0.0
176
     1
 40
1.0
176
     1
 90
        0
176
     1
 62
    18
420
        0
176
     1
 90
       50
176
     1
 90
        3
176
     1
 62
     5
420
      255
176
     1
290
     0
176
     1
 90
       50
176
     1
 90
       50
176
     1
 90
       50
176
     1
290
     0
176
     1
 90
       50
176
     1
 62
   256
176
     0
 40
1.0
176
     0
 90
        2
176
     1
  1
strokes_ogs.tif
176
     1
290
     0
176
     1
 40
1.0
176
     1
 40
1.0
176
     1
  0
VISUALSTYLE
  5
36
102
{ACAD_REACTORS
330
2A
102
}
330
2A
100
AcDbVisualStyle
  2
Brighten
 70
    12
177
     3
291
     1
 70
    58
 90
        2
176
     1
 90
        2
176
     1
 90
        0
176
     1
 90
        0
176
     1
 40
0.6
176
     1
 40
30.0
176
     1
 62
     7
420
 16777215
176
     1
 90
        1
176
     1
 90
        4
176
     1
 62
     7
176
     1
 62
   257
176
     1
 90
        1
176
     1
 90
        1
176
     1
 40
1.0
176
     1
 90
        8
176
     1
 62
     7
176
     1
 40
1.0
176
     1
 90
        1
176
     1
 90
        6
176
     1
 90
        2
176
     1
 62
     7
176
     1
 90
        5
176
     1
 90
        0
176
     1
 90
        0
176
     1
290
     0
176
     1
 90
        1
176
     1
 40
50.0
176
     1
 90
        0
176
     1
290
     0
176
     1
290
     1
176
     1
290
     1
176
     1
290
     0
176
     1
290
     0
176
     1
290
     0
176
     1
290
     0
176
     1
290
     0
176
     1
290
     0
176
     1
 90
       50
176
     1
 40
0.0
176
     1
 40
1.0
176
     1
 90
        0
176
     1
 62
    18
420
        0
176
     1
 90
       50
176
     1
 90
        3
176
     1
 62
     5
420
      255
176
     1
290
     0
176
     1
 90
       50
176
     1
 90
       50
176
     1
 90
       50
176
     1
290
     0
176
     1
 90
       50
176
     1
 62
   256
176
     0
 40
1.0
176
     0
 90
        2
176
     1
  1
strokes_ogs.tif
176
     1
290
     0
176
     1
 40
1.0
176
     1
 40
1.0
176
     1
  0
VISUALSTYLE
  5
3A
102
{ACAD_REACTORS
330
2A
102
}
330
2A
100
AcDbVisualStyle
  2
ColorChange
 70
    16
177
     3
291
     1
 70
    58
 90
        2
176
     1
 90
        2
176
     1
 90
        3
176
     1
 90
        0
176
     1
 40
0.6
176
     1
 40
30.0
176
     1
 62
     8
420
  8421504
176
     1
 90
        1
176
     1
 90
        4
176
     1
 62
     7
176
     1
 62
   257
176
     1
 90
        1
176
     1
 90
        1
176
     1
 40
1.0
176
     1
 90
        8
176
     1
 62
     8
420
  8421504
176
     1
 40
1.0
176
     1
 90
        1
176
     1
 90
        6
176
     1
 90
        2
176
     1
 62
     7
176
     1
 90
        5
176
     1
 90
        0
176
     1
 90
        0
176
     1
290
     0
176
     1
 90
        1
176
     1
 40
0.0
176
     1
 90
        0
176
     1
290
     0
176
     1
290
     1
176
     1
290
     1
176
     1
290
     0
176
     1
290
     0
176
     1
290
     0
176
     1
290
     0
176
     1
290
     0
176
     1
290
     0
176
     1
 90
       50
176
     1
 40
0.0
176
     1
 40
1.0
176
     1
 90
        0
176
     1
 62
    18
420
        0
176
     1
 90
       50
176
     1
 90
        3
176
     1
 62
     5
420
      255
176
     1
290
     0
176
     1
 90
       50
176
     1
 90
       50
176
     1
 90
       50
176
     1
290
     0
176
     1
 90
       50
176
     1
 62
   256
176
     0
 40
1.0
176
     0
 90
        2
176
     1
  1
strokes_ogs.tif
176
     1
290
     0
176
     1
 40
1.0
176
     1
 40
1.0
176
     1
  0
VISUALSTYLE
  5
34
102
{ACAD_REACTORS
330
2A
102
}
330
2A
100
AcDbVisualStyle
  2
Conceptual
 70
     9
177
     3
291
     0
 70
    58
 90
        3
176
     1
 90
        2
176
     1
 90
        0
176
     1
 90
        0
176
     1
 40
0.6
176
     1
 40
30.0
176
     1
 62
     7
420
 16777215
176
     1
 90
        2
176
     1
 90
        2
176
     1
 62
     7
176
     1
 62
   257
176
     1
 90
        1
176
     1
 90
        1
176
     1
 40
179.0
176
     1
 90
        8
176
     1
 62
     7
176
     1
 40
1.0
176
     1
 90
        1
176
     1
 90
        6
176
     1
 90
        2
176
     1
 62
     7
176
     1
 90
        3
176
     1
 90
        0
176
     1
 90
        0
176
     1
290
     0
176
     1
 90
        1
176
     1
 40
0.0
176
     1
 90
        0
176
     1
290
     0
176
     1
290
     1
176
     1
290
     1
176
     1
290
     0
176
     1
290
     0
176
     1
290
     0
176
     1
290
     0
176
     1
290
     0
176
     1
290
     0
176
     1
 90
       50
176
     1
 40
0.0
176
     1
 40
1.0
176
     1
 90
        0
176
     1
 62
    18
420
        0
176
     1
 90
       50
176
     1
 90
        3
176
     1
 62
     5
420
      255
176
     1
290
     0
176
     1
 90
       50
176
     1
 90
       50
176
     1
 90
       50
176
     1
290
     0
176
     1
 90
       50
176
     1
 62
   256
176
     0
 40
1.0
176
     0
 90
        2
176
     1
  1
strokes_ogs.tif
176
     1
290
     0
176
     1
 40
1.0
176
     1
 40
1.0
176
     1
  0
VISUALSTYLE
  5
35
102
{ACAD_REACTORS
330
2A
102
}
330
2A
100
AcDbVisualStyle
  2
Dim
 70
    11
177
     3
291
     1
 70
    58
 90
        2
176
     1
 90
        2
176
     1
 90
        0
176
     1
 90
        0
176
     1
 40
0.6
176
     1
 40
30.0
176
     1
 62
     7
420
 16777215
176
     1
 90
        1
176
     1
 90
        4
176
     1
 62
     7
176
     1
 62
   257
176
     1
 90
        1
176
     1
 90
        1
176
     1
 40
1.0
176
     1
 90
        8
176
     1
 62
     7
176
     1
 40
1.0
176
     1
 90
        1
176
     1
 90
        6
176
     1
 90
        2
176
     1
 62
     7
176
     1
 90
        5
176
     1
 90
        0
176
     1
 90
        0
176
     1
290
     0
176
     1
 90
        1
176
     1
 40
-50.0
176
     1
 90
        0
176
     1
290
     0
176
     1
290
     1
176
     1
290
     1
176
     1
290
     0
176
     1
290
     0
176
     1
290
     0
176
     1
290
     0
176
     1
290
     0
176
     1
290
     0
176
     1
 90
       50
176
     1
 40
0.0
176
     1
 40
1.0
176
     1
 90
        0
176
     1
 62
    18
420
        0
176
     1
 90
       50
176
     1
 90
        3
176
     1
 62
     5
420
      255
176
     1
290
     0
176
     1
 90
       50
176
     1
 90
       50
176
     1
 90
       50
176
     1
290
     0
176
     1
 90
       50
176
     1
 62
   256
176
     0
 40
1.0
176
     0
 90
        2
176
     1
  1
strokes_ogs.tif
176
     1
290
     0
176
     1
 40
1.0
176
     1
 40
1.0
176
     1
  0
VISUALSTYLE
  5
3D
102
{ACAD_REACTORS
330
2A
102
}
330
2A
100
AcDbVisualStyle
  2
EdgeColorOff
 70
    22
177
     3
291
     1
 70
    58
 90
        2
176
     0
 90
        2
176
     0
 90
        0
176
     0
 90
        0
176
     0
 40
0.6
176
     0
 40
30.0
176
     0
 62
     7
420
 16777215
176
     0
 90
        1
176
     0
 90
        4
176
     0
 62
     7
176
     0
 62
   257
176
     0
 90
        1
176
     0
 90
        1
176
     0
 40
1.0
176
     0
 90
        8
176
     2
 62
     7
176
     0
 40
1.0
176
     0
 90
        1
176
     0
 90
        6
176
     0
 90
        2
176
     0
 62
     7
176
     0
 90
        5
176
     0
 90
        0
176
     0
 90
        0
176
     0
290
     0
176
     0
 90
        1
176
     0
 40
0.0
176
     0
 90
        0
176
     0
290
     0
176
     0
290
     1
176
     0
290
     1
176
     0
290
     0
176
     0
290
     0
176
     0
290
     0
176
     0
290
     0
176
     0
290
     0
176
     0
290
     0
176
     0
 90
       50
176
     0
 40
0.0
176
     0
 40
1.0
176
     0
 90
        0
176
     0
 62
    18
420
        0
176
     0
 90
       50
176
     0
 90
        3
176
     0
 62
     5
420
      255
176
     0
290
     0
176
     0
 90
       50
176
     0
 90
       50
176
     0
 90
       50
176
     0
290
     0
176
     0
 90
       50
176
     0
 62
   256
176
     0
 40
1.0
176
     0
 90
        2
176
     0
  1
strokes_ogs.tif
176
     0
290
     0
176
     0
 40
1.0
176
     0
 40
1.0
176
     0
  0
VISUALSTYLE
  5
39
102
{ACAD_REACTORS
330
2A
102
}
330
2A
100
AcDbVisualStyle
  2
Facepattern
 70
    15
177
     3
291
     1
 70
    58
 90
        2
176
     1
 90
        2
176
     1
 90
        0
176
     1
 90
        0
176
     1
 40
0.6
176
     1
 40
30.0
176
     1
 62
     7
420
 16777215
176
     1
 90
        1
176
     1
 90
        4
176
     1
 62
     7
176
     1
 62
   257
176
     1
 90
        1
176
     1
 90
        1
176
     1
 40
1.0
176
     1
 90
        8
176
     1
 62
     7
176
     1
 40
1.0
176
     1
 90
        1
176
     1
 90
        6
176
     1
 90
        2
176
     1
 62
     7
176
     1
 90
        5
176
     1
 90
        0
176
     1
 90
        0
176
     1
290
     0
176
     1
 90
        1
176
     1
 40
0.0
176
     1
 90
        0
176
     1
290
     0
176
     1
290
     1
176
     1
290
     1
176
     1
290
     0
176
     1
290
     0
176
     1
290
     0
176
     1
290
     0
176
     1
290
     0
176
     1
290
     0
176
     1
 90
       50
176
     1
 40
0.0
176
     1
 40
1.0
176
     1
 90
        0
176
     1
 62
    18
420
        0
176
     1
 90
       50
176
     1
 90
        3
176
     1
 62
     5
420
      255
176
     1
290
     0
176
     1
 90
       50
176
     1
 90
       50
176
     1
 90
       50
176
     1
290
     0
176
     1
 90
       50
176
     1
 62
   256
176
     0
 40
1.0
176
     0
 90
        2
176
     1
  1
strokes_ogs.tif
176
     1
290
     0
176
     1
 40
1.0
176
     1
 40
1.0
176
     1
  0
VISUALSTYLE
  5
2B
102
{ACAD_REACTORS
330
2A
102
}
330
2A
100
AcDbVisualStyle
  2
Flat
 70
     0
177
     3
291
     1
 70
    58
 90
        2
176
     1
 90
        1
176
     1
 90
        1
176
     1
 90
        2
176
     1
 40
0.6
176
     1
 40
30.0
176
     1
 62
     7
420
 16777215
176
     1
 90
        0
176
     1
 90
        0
176
     1
 62
     7
176
     1
 62
   257
176
     1
 90
        1
176
     1
 90
        1
176
     1
 40
1.0
176
     1
 90
        8
176
     1
 62
     7
176
     1
 40
1.0
176
     1
 90
        1
176
     1
 90
        6
176
     1
 90
        2
176
     1
 62
     7
176
     1
 90
        5
176
     1
 90
        0
176
     1
 90
        0
176
     1
290
     0
176
     1
 90
       13
176
     1
 40
0.0
176
     1
 90
        0
176
     1
290
     0
176
     1
290
     1
176
     1
290
     1
176
     1
290
     0
176
     1
290
     0
176
     1
290
     0
176
     1
290
     0
176
     1
290
     0
176
     1
290
     0
176
     1
 90
       50
176
     1
 40
0.0
176
     1
 40
1.0
176
     1
 90
        0
176
     1
 62
    18
420
        0
176
     1
 90
       50
176
     1
 90
        3
176
     1
 62
     5
420
      255
176
     1
290
     0
176
     1
 90
       50
176
     1
 90
       50
176
     1
 90
       50
176
     1
290
     0
176
     1
 90
       50
176
     1
 62
   256
176
     0
 40
1.0
176
     0
 90
        2
176
     1
  1
strokes_ogs.tif
176
     1
290
     0
176
     1
 40
1.0
176
     1
 40
1.0
176
     1
  0
VISUALSTYLE
  5
2C
102
{ACAD_REACTORS
330
2A
102
}
330
2A
100
AcDbVisualStyle
  2
FlatWithEdges
 70
     1
177
     3
291
     1
 70
    58
 90
        2
176
     1
 90
        1
176
     1
 90
        1
176
     1
 90
        2
176
     1
 40
0.6
176
     1
 40
30.0
176
     1
 62
     7
420
 16777215
176
     1
 90
        1
176
     1
 90
        0
176
     1
 62
     7
176
     1
 62
   257
176
     1
 90
        1
176
     1
 90
        1
176
     1
 40
1.0
176
     1
 90
        0
176
     1
 62
   257
176
     1
 40
1.0
176
     1
 90
        1
176
     1
 90
        6
176
     1
 90
        2
176
     1
 62
     7
176
     1
 90
        5
176
     1
 90
        0
176
     1
 90
        0
176
     1
290
     0
176
     1
 90
       13
176
     1
 40
0.0
176
     1
 90
        0
176
     1
290
     0
176
     1
290
     1
176
     1
290
     1
176
     1
290
     0
176
     1
290
     0
176
     1
290
     0
176
     1
290
     0
176
     1
290
     0
176
     1
290
     0
176
     1
 90
       50
176
     1
 40
0.0
176
     1
 40
1.0
176
     1
 90
        0
176
     1
 62
    18
420
        0
176
     1
 90
       50
176
     1
 90
        3
176
     1
 62
     5
420
      255
176
     1
290
     0
176
     1
 90
       50
176
     1
 90
       50
176
     1
 90
       50
176
     1
290
     0
176
     1
 90
       50
176
     1
 62
   256
176
     0
 40
1.0
176
     0
 90
        2
176
     1
  1
strokes_ogs.tif
176
     1
290
     0
176
     1
 40
1.0
176
     1
 40
1.0
176
     1
  0
VISUALSTYLE
  5
2D
102
{ACAD_REACTORS
330
2A
102
}
330
2A
100
AcDbVisualStyle
  2
Gouraud
 70
     2
177
     3
291
     1
 70
    58
 90
        2
176
     1
 90
        2
176
     1
 90
        1
176
     1
 90
        2
176
     1
 40
0.6
176
     1
 40
30.0
176
     1
 62
     7
420
 16777215
176
     1
 90
        0
176
     1
 90
        0
176
     1
 62
     7
176
     1
 62
   257
176
     1
 90
        1
176
     1
 90
        1
176
     1
 40
1.0
176
     1
 90
        0
176
     1
 62
     7
176
     1
 40
1.0
176
     1
 90
        1
176
     1
 90
        6
176
     1
 90
        2
176
     1
 62
     7
176
     1
 90
        5
176
     1
 90
        0
176
     1
 90
        0
176
     1
290
     0
176
     1
 90
       13
176
     1
 40
0.0
176
     1
 90
        0
176
     1
290
     0
176
     1
290
     1
176
     1
290
     1
176
     1
290
     0
176
     1
290
     0
176
     1
290
     0
176
     1
290
     0
176
     1
290
     0
176
     1
290
     0
176
     1
 90
       50
176
     1
 40
0.0
176
     1
 40
1.0
176
     1
 90
        0
176
     1
 62
    18
420
        0
176
     1
 90
       50
176
     1
 90
        3
176
     1
 62
     5
420
      255
176
     1
290
     0
176
     1
 90
       50
176
     1
 90
       50
176
     1
 90
       50
176
     1
290
     0
176
     1
 90
       50
176
     1
 62
   256
176
     0
 40
1.0
176
     0
 90
        2
176
     1
  1
strokes_ogs.tif
176
     1
290
     0
176
     1
 40
1.0
176
     1
 40
1.0
176
     1
  0
VISUALSTYLE
  5
2E
102
{ACAD_REACTORS
330
2A
102
}
330
2A
100
AcDbVisualStyle
  2
GouraudWithEdges
 70
     3
177
     3
291
     1
 70
    58
 90
        2
176
     1
 90
        2
176
     1
 90
        1
176
     1
 90
        2
176
     1
 40
0.6
176
     1
 40
30.0
176
     1
 62
     7
420
 16777215
176
     1
 90
        1
176
     1
 90
        0
176
     1
 62
     7
176
     1
 62
   257
176
     1
 90
        1
176
     1
 90
        1
176
     1
 40
1.0
176
     1
 90
        0
176
     1
 62
   257
176
     1
 40
1.0
176
     1
 90
        1
176
     1
 90
        6
176
     1
 90
        2
176
     1
 62
     7
176
     1
 90
        5
176
     1
 90
        0
176
     1
 90
        0
176
     1
290
     0
176
     1
 90
       13
176
     1
 40
0.0
176
     1
 90
        0
176
     1
290
     0
176
     1
290
     1
176
     1
290
     1
176
     1
290
     0
176
     1
290
     0
176
     1
290
     0
176
     1
290
     0
176
     1
290
     0
176
     1
290
     0
176
     1
 90
       50
176
     1
 40
0.0
176
     1
 40
1.0
176
     1
 90
        0
176
     1
 62
    18
420
        0
176
     1
 90
       50
176
     1
 90
        3
176
     1
 62
     5
420
      255
176
     1
290
     0
176
     1
 90
       50
176
     1
 90
       50
176
     1
 90
       50
176
     1
290
     0
176
     1
 90
       50
176
     1
 62
   256
176
     0
 40
1.0
176
     0
 90
        2
176
     1
  1
strokes_ogs.tif
176
     1
290
     0
176
     1
 40
1.0
176
     1
 40
1.0
176
     1
  0
VISUALSTYLE
  5
31
102
{ACAD_REACTORS
330
2A
102
}
330
2A
100
AcDbVisualStyle
  2
Hidden
 70
     6
177
     3
291
     0
 70
    58
 90
        1
176
     1
 90
        2
176
     1
 90
        2
176
     1
 90
        0
176
     1
 40
0.6
176
     1
 40
30.0
176
     1
 62
     7
420
 16777215
176
     1
 90
        2
176
     1
 90
        2
176
     1
 62
     7
176
     1
 62
   257
176
     1
 90
        2
176
     1
 90
        1
176
     1
 40
40.0
176
     1
 90
        0
176
     1
 62
   257
176
     1
 40
1.0
176
     1
 90
        1
176
     1
 90
        6
176
     1
 90
        2
176
     1
 62
     7
176
     1
 90
        3
176
     1
 90
        0
176
     1
 90
        0
176
     1
290
     0
176
     1
 90
        1
176
     1
 40
0.0
176
     1
 90
        0
176
     1
290
     0
176
     1
290
     1
176
     1
290
     1
176
     1
290
     0
176
     1
290
     0
176
     1
290
     0
176
     1
290
     0
176
     1
290
     0
176
     1
290
     0
176
     1
 90
       50
176
     1
 40
0.0
176
     1
 40
1.0
176
     1
 90
        0
176
     1
 62
    18
420
        0
176
     1
 90
       50
176
     1
 90
        3
176
     1
 62
     5
420
      255
176
     1
290
     0
176
     1
 90
       50
176
     1
 90
       50
176
     1
 90
       50
176
     1
290
     0
176
     1
 90
       50
176
     1
 62
   256
176
     0
 40
1.0
176
     0
 90
        2
176
     1
  1
strokes_ogs.tif
176
     1
290
     0
176
     1
 40
1.0
176
     1
 40
1.0
176
     1
  0
VISUALSTYLE
  5
3B
102
{ACAD_REACTORS
330
2A
102
}
330
2A
100
AcDbVisualStyle
  2
JitterOff
 70
    20
177
     3
291
     1
 70
    58
 90
        2
176
     0
 90
        2
176
     0
 90
        0
176
     0
 90
        0
176
     0
 40
0.6
176
     0
 40
30.0
176
     0
 62
     7
420
 16777215
176
     0
 90
        1
176
     0
 90
        4
176
     0
 62
     7
176
     0
 62
   257
176
     0
 90
        1
176
     0
 90
        1
176
     0
 40
1.0
176
     0
 90
       10
176
     2
 62
     7
176
     0
 40
1.0
176
     0
 90
        1
176
     0
 90
        6
176
     0
 90
        2
176
     0
 62
     7
176
     0
 90
        5
176
     0
 90
        0
176
     0
 90
        0
176
     0
290
     0
176
     0
 90
        1
176
     0
 40
0.0
176
     0
 90
        0
176
     0
290
     0
176
     0
290
     1
176
     0
290
     1
176
     0
290
     0
176
     0
290
     0
176
     0
290
     0
176
     0
290
     0
176
     0
290
     0
176
     0
290
     0
176
     0
 90
       50
176
     0
 40
0.0
176
     0
 40
1.0
176
     0
 90
        0
176
     0
 62
    18
420
        0
176
     0
 90
       50
176
     0
 90
        3
176
     0
 62
     5
420
      255
176
     0
290
     0
176
     0
 90
       50
176
     0
 90
       50
176
     0
 90
       50
176
     0
290
     0
176
     0
 90
       50
176
     0
 62
   256
176
     0
 40
1.0
176
     0
 90
        2
176
     0
  1
strokes_ogs.tif
176
     0
290
     0
176
     0
 40
1.0
176
     0
 40
1.0
176
     0
  0
VISUALSTYLE
  5
38
102
{ACAD_REACTORS
330
2A
102
}
330
2A
100
AcDbVisualStyle
  2
Linepattern
 70
    14
177
     3
291
     1
 70
    58
 90
        2
176
     1
 90
        2
176
     1
 90
        0
176
     1
 90
        0
176
     1
 40
0.6
176
     1
 40
30.0
176
     1
 62
     7
420
 16777215
176
     1
 90
        1
176
     1
 90
        4
176
     1
 62
     7
176
     1
 62
   257
176
     1
 90
        7
176
     1
 90
        7
176
     1
 40
1.0
176
     1
 90
        8
176
     1
 62
     7
176
     1
 40
1.0
176
     1
 90
        1
176
     1
 90
        6
176
     1
 90
        2
176
     1
 62
     7
176
     1
 90
        5
176
     1
 90
        0
176
     1
 90
        0
176
     1
290
     0
176
     1
 90
        1
176
     1
 40
0.0
176
     1
 90
        0
176
     1
290
     0
176
     1
290
     1
176
     1
290
     1
176
     1
290
     0
176
     1
290
     0
176
     1
290
     0
176
     1
290
     0
176
     1
290
     0
176
     1
290
     0
176
     1
 90
       50
176
     1
 40
0.0
176
     1
 40
1.0
176
     1
 90
        0
176
     1
 62
    18
420
        0
176
     1
 90
       50
176
     1
 90
        3
176
     1
 62
     5
420
      255
176
     1
290
     0
176
     1
 90
       50
176
     1
 90
       50
176
     1
 90
       50
176
     1
290
     0
176
     1
 90
       50
176
     1
 62
   256
176
     0
 40
1.0
176
     0
 90
        2
176
     1
  1
strokes_ogs.tif
176
     1
290
     0
176
     1
 40
1.0
176
     1
 40
1.0
176
     1
  0
VISUALSTYLE
  5
3C
102
{ACAD_REACTORS
330
2A
102
}
330
2A
100
AcDbVisualStyle
  2
OverhangOff
 70
    21
177
     3
291
     1
 70
    58
 90
        2
176
     0
 90
        2
176
     0
 90
        0
176
     0
 90
        0
176
     0
 40
0.6
176
     0
 40
30.0
176
     0
 62
     7
420
 16777215
176
     0
 90
        1
176
     0
 90
        4
176
     0
 62
     7
176
     0
 62
   257
176
     0
 90
        1
176
     0
 90
        1
176
     0
 40
1.0
176
     0
 90
        9
176
     2
 62
     7
176
     0
 40
1.0
176
     0
 90
        1
176
     0
 90
        6
176
     0
 90
        2
176
     0
 62
     7
176
     0
 90
        5
176
     0
 90
        0
176
     0
 90
        0
176
     0
290
     0
176
     0
 90
        1
176
     0
 40
0.0
176
     0
 90
        0
176
     0
290
     0
176
     0
290
     1
176
     0
290
     1
176
     0
290
     0
176
     0
290
     0
176
     0
290
     0
176
     0
290
     0
176
     0
290
     0
176
     0
290
     0
176
     0
 90
       50
176
     0
 40
0.0
176
     0
 40
1.0
176
     0
 90
        0
176
     0
 62
    18
420
        0
176
     0
 90
       50
176
     0
 90
        3
176
     0
 62
     5
420
      255
176
     0
290
     0
176
     0
 90
       50
176
     0
 90
       50
176
     0
 90
       50
176
     0
290
     0
176
     0
 90
       50
176
     0
 62
   256
176
     0
 40
1.0
176
     0
 90
        2
176
     0
  1
strokes_ogs.tif
176
     0
290
     0
176
     0
 40
1.0
176
     0
 40
1.0
176
     0
  0
VISUALSTYLE
  5
33
102
{ACAD_REACTORS
330
2A
102
}
330
2A
100
AcDbVisualStyle
  2
Realistic
 70
     8
177
     3
291
     0
 70
    58
 90
        2
176
     1
 90
        3
176
     1
 90
        0
176
     1
 90
        2
176
     1
 40
0.6
176
     1
 40
30.0
176
     1
 62
     7
420
 16777215
176
     1
 90
        0
176
     1
 90
        0
176
     1
 62
     7
176
     1
 62
   257
176
     1
 90
        1
176
     1
 90
        1
176
     1
 40
1.0
176
     1
 90
        8
176
     1
 62
   257
176
     1
 40
1.0
176
     1
 90
        1
176
     1
 90
        6
176
     1
 90
        2
176
     1
 62
     7
176
     1
 90
        3
176
     1
 90
        0
176
     1
 90
        0
176
     1
290
     0
176
     1
 90
       13
176
     1
 40
0.0
176
     1
 90
        0
176
     1
290
     0
176
     1
290
     1
176
     1
290
     1
176
     1
290
     0
176
     1
290
     0
176
     1
290
     0
176
     1
290
     0
176
     1
290
     0
176
     1
290
     0
176
     1
 90
       50
176
     1
 40
0.0
176
     1
 40
1.0
176
     1
 90
        0
176
     1
 62
    18
420
        0
176
     1
 90
       50
176
     1
 90
        3
176
     1
 62
     5
420
      255
176
     1
290
     0
176
     1
 90
       50
176
     1
 90
       50
176
     1
 90
       50
176
     1
290
     0
176
     1
 90
       50
176
     1
 62
   256
176
     0
 40
1.0
176
     0
 90
        2
176
     1
  1
strokes_ogs.tif
176
     1
290
     0
176
     1
 40
1.0
176
     1
 40
1.0
176
     1
  0
VISUALSTYLE
  5
42
102
{ACAD_REACTORS
330
2A
102
}
330
2A
100
AcDbVisualStyle
  2
Shaded
 70
    27
177
     3
291
     0
 70
    58
 90
        2
176
     1
 90
        2
176
     1
 90
        1
176
     1
 90
        2
176
     1
 40
0.6
176
     1
 40
30.0
176
     1
 62
     7
420
 16777215
176
     1
 90
        0
176
     1
 90
        4
176
     1
 62
     7
176
     1
 62
   257
176
     1
 90
        1
176
     1
 90
        1
176
     1
 40
1.0
176
     1
 90
        8
176
     1
 62
   257
176
     1
 40
1.0
176
     1
 90
        1
176
     1
 90
        6
176
     1
 90
        2
176
     1
 62
     8
420
  7895160
176
     1
 90
        3
176
     1
 90
        0
176
     1
 90
        0
176
     1
290
     0
176
     1
 90
        5
176
     1
 40
0.0
176
     1
 90
        0
176
     1
290
     0
176
     1
290
     1
176
     1
290
     1
176
     1
290
     0
176
     1
290
     0
176
     1
290
     0
176
     1
290
     0
176
     1
290
     0
176
     1
290
     0
176
     1
 90
       50
176
     1
 40
0.0
176
     1
 40
1.0
176
     1
 90
        0
176
     1
 62
    18
420
        0
176
     1
 90
       50
176
     1
 90
        3
176
     1
 62
     5
420
      255
176
     1
290
     0
176
     1
 90
       50
176
     1
 90
       50
176
     1
 90
       50
176
     1
290
     0
176
     1
 90
       50
176
     1
 62
   256
176
     0
 40
1.0
176
     0
 90
        2
176
     1
  1
strokes_ogs.tif
176
     1
290
     0
176
     1
 40
1.0
176
     1
 40
1.0
176
     1
  0
VISUALSTYLE
  5
41
102
{ACAD_REACTORS
330
2A
102
}
330
2A
100
AcDbVisualStyle
  2
Shaded with edges
 70
    26
177
     3
291
     0
 70
    58
 90
        2
176
     1
 90
        2
176
     1
 90
        1
176
     1
 90
        2
176
     1
 40
0.6
176
     1
 40
30.0
176
     1
 62
     7
420
 16777215
176
     1
 90
        1
176
     1
 90
       10
176
     1
 62
     7
176
     1
 62
   257
176
     1
 90
        2
176
     1
 90
        1
176
     1
 40
1.0
176
     1
 90
        8
176
     1
 62
   257
176
     1
 40
1.0
176
     1
 90
        1
176
     1
 90
        6
176
     1
 90
        2
176
     1
 62
     7
176
     1
 90
        3
176
     1
 90
        0
176
     1
 90
        0
176
     1
290
     0
176
     1
 90
        5
176
     1
 40
0.0
176
     1
 90
        0
176
     1
290
     0
176
     1
290
     1
176
     1
290
     1
176
     1
290
     0
176
     1
290
     0
176
     1
290
     0
176
     1
290
     0
176
     1
290
     0
176
     1
290
     0
176
     1
 90
       50
176
     1
 40
0.0
176
     1
 40
1.0
176
     1
 90
        0
176
     1
 62
    18
420
        0
176
     1
 90
       50
176
     1
 90
        3
176
     1
 62
     5
420
      255
176
     1
290
     0
176
     1
 90
       50
176
     1
 90
       50
176
     1
 90
       50
176
     1
290
     0
176
     1
 90
       50
176
     1
 62
   256
176
     0
 40
1.0
176
     0
 90
        2
176
     1
  1
strokes_ogs.tif
176
     1
290
     0
176
     1
 40
1.0
176
     1
 40
1.0
176
     1
  0
VISUALSTYLE
  5
3E
102
{ACAD_REACTORS
330
2A
102
}
330
2A
100
AcDbVisualStyle
  2
Shades of Gray
 70
    23
177
     3
291
     0
 70
    58
 90
        2
176
     1
 90
        2
176
     1
 90
        3
176
     1
 90
        0
176
     1
 40
0.6
176
     1
 40
30.0
176
     1
 62
     7
420
 16777215
176
     1
 90
        2
176
     1
 90
        2
176
     1
 62
     7
176
     1
 62
     7
176
     1
 90
        1
176
     1
 90
        1
176
     1
 40
40.0
176
     1
 90
        8
176
     1
 62
     7
176
     1
 40
1.0
176
     1
 90
        1
176
     1
 90
        6
176
     1
 90
        2
176
     1
 62
     7
176
     1
 90
        3
176
     1
 90
        0
176
     1
 90
        0
176
     1
290
     0
176
     1
 90
        1
176
     1
 40
0.0
176
     1
 90
        0
176
     1
290
     0
176
     1
290
     1
176
     1
290
     1
176
     1
290
     0
176
     1
290
     0
176
     1
290
     0
176
     1
290
     0
176
     1
290
     0
176
     1
290
     0
176
     1
 90
       50
176
     1
 40
0.0
176
     1
 40
1.0
176
     1
 90
        0
176
     1
 62
    18
420
        0
176
     1
 90
       50
176
     1
 90
        3
176
     1
 62
     5
420
      255
176
     1
290
     0
176
     1
 90
       50
176
     1
 90
       50
176
     1
 90
       50
176
     1
290
     0
176
     1
 90
       50
176
     1
 62
   256
176
     0
 40
1.0
176
     0
 90
        2
176
     1
  1
strokes_ogs.tif
176
     1
290
     0
176
     1
 40
1.0
176
     1
 40
1.0
176
     1
  0
VISUALSTYLE
  5
3F
102
{ACAD_REACTORS
330
2A
102
}
330
2A
100
AcDbVisualStyle
  2
Sketchy
 70
    24
177
     3
291
     0
 70
    58
 90
        1
176
     1
 90
        2
176
     1
 90
        2
176
     1
 90
        0
176
     1
 40
0.6
176
     1
 40
30.0
176
     1
 62
     7
420
 16777215
176
     1
 90
        2
176
     1
 90
        2
176
     1
 62
     7
176
     1
 62
     7
176
     1
 90
        1
176
     1
 90
        1
176
     1
 40
40.0
176
     1
 90
       11
176
     1
 62
     7
176
     1
 40
1.0
176
     1
 90
        1
176
     1
 90
        6
176
     1
 90
        2
176
     1
 62
     7
176
     1
 90
        6
176
     1
 90
        0
176
     1
 90
        0
176
     1
290
     0
176
     1
 90
        1
176
     1
 40
0.0
176
     1
 90
        0
176
     1
290
     0
176
     1
290
     1
176
     1
290
     1
176
     1
290
     0
176
     1
290
     0
176
     1
290
     0
176
     1
290
     0
176
     1
290
     0
176
     1
290
     0
176
     1
 90
       50
176
     1
 40
0.0
176
     1
 40
1.0
176
     1
 90
        0
176
     1
 62
    18
420
        0
176
     1
 90
       50
176
     1
 90
        3
176
     1
 62
     5
420
      255
176
     1
290
     0
176
     1
 90
       50
176
     1
 90
       50
176
     1
 90
       50
176
     1
290
     0
176
     1
 90
       50
176
     1
 62
   256
176
     0
 40
1.0
176
     0
 90
        2
176
     1
  1
strokes_ogs.tif
176
     1
290
     0
176
     1
 40
1.0
176
     1
 40
1.0
176
     1
  0
VISUALSTYLE
  5
37
102
{ACAD_REACTORS
330
2A
102
}
330
2A
100
AcDbVisualStyle
  2
Thicken
 70
    13
177
     3
291
     1
 70
    58
 90
        2
176
     1
 90
        2
176
     1
 90
        0
176
     1
 90
        0
176
     1
 40
0.6
176
     1
 40
30.0
176
     1
 62
     7
420
 16777215
176
     1
 90
        1
176
     1
 90
        4
176
     1
 62
     7
176
     1
 62
   257
176
     1
 90
        1
176
     1
 90
        1
176
     1
 40
1.0
176
     1
 90
       12
176
     1
 62
     7
176
     1
 40
1.0
176
     1
 90
        1
176
     1
 90
        6
176
     1
 90
        2
176
     1
 62
     7
176
     1
 90
        5
176
     1
 90
        0
176
     1
 90
        0
176
     1
290
     0
176
     1
 90
        1
176
     1
 40
0.0
176
     1
 90
        0
176
     1
290
     0
176
     1
290
     1
176
     1
290
     1
176
     1
290
     0
176
     1
290
     0
176
     1
290
     0
176
     1
290
     0
176
     1
290
     0
176
     1
290
     0
176
     1
 90
       50
176
     1
 40
0.0
176
     1
 40
1.0
176
     1
 90
        0
176
     1
 62
    18
420
        0
176
     1
 90
       50
176
     1
 90
        3
176
     1
 62
     5
420
      255
176
     1
290
     0
176
     1
 90
       50
176
     1
 90
       50
176
     1
 90
       50
176
     1
290
     0
176
     1
 90
       50
176
     1
 62
   256
176
     0
 40
1.0
176
     0
 90
        2
176
     1
  1
strokes_ogs.tif
176
     1
290
     0
176
     1
 40
1.0
176
     1
 40
1.0
176
     1
  0
VISUALSTYLE
  5
30
102
{ACAD_REACTORS
330
2A
102
}
330
2A
100
AcDbVisualStyle
  2
Wireframe
 70
     5
177
     3
291
     0
 70
    58
 90
        0
176
     1
 90
        2
176
     1
 90
        0
176
     1
 90
        0
176
     1
 40
0.6
176
     1
 40
30.0
176
     1
 62
     7
420
 16777215
176
     1
 90
        1
176
     1
 90
        4
176
     1
 62
     7
176
     1
 62
   257
176
     1
 90
        1
176
     1
 90
        1
176
     1
 40
1.0
176
     1
 90
        0
176
     1
 62
   257
176
     1
 40
1.0
176
     1
 90
        1
176
     1
 90
        6
176
     1
 90
        2
176
     1
 62
     7
176
     1
 90
        3
176
     1
 90
        0
176
     1
 90
        0
176
     1
290
     0
176
     1
 90
        1
176
     1
 40
0.0
176
     1
 90
        0
176
     1
290
     0
176
     1
290
     1
176
     1
290
     1
176
     1
290
     0
176
     1
290
     0
176
     1
290
     0
176
     1
290
     0
176
     1
290
     0
176
     1
290
     0
176
     1
 90
       50
176
     1
 40
0.0
176
     1
 40
1.0
176
     1
 90
        0
176
     1
 62
    18
420
        0
176
     1
 90
       50
176
     1
 90
        3
176
     1
 62
     5
420
      255
176
     1
290
     0
176
     1
 90
       50
176
     1
 90
       50
176
     1
 90
       50
176
     1
290
     0
176
     1
 90
       50
176
     1
 62
   256
176
     0
 40
1.0
176
     0
 90
        2
176
     1
  1
strokes_ogs.tif
176
     1
290
     0
176
     1
 40
1.0
176
     1
 40
1.0
176
     1
  0
VISUALSTYLE
  5
40
102
{ACAD_REACTORS
330
2A
102
}
330
2A
100
AcDbVisualStyle
  2
X-Ray
 70
    25
177
     3
291
     0
 70
    58
 90
        2
176
     1
 90
        2
176
     1
 90
        1
176
     1
 90
        1
176
     1
 40
0.5
176
     1
 40
30.0
176
     1
 62
     7
420
 16777215
176
     1
 90
        1
176
     1
 90
        0
176
     1
 62
     7
176
     1
 62
   257
176
     1
 90
        1
176
     1
 90
        1
176
     1
 40
1.0
176
     1
 90
        8
176
     1
 62
     7
176
     1
 40
1.0
176
     1
 90
        1
176
     1
 90
        6
176
     1
 90
        2
176
     1
 62
     7
176
     1
 90
        3
176
     1
 90
        0
176
     1
 90
        0
176
     1
290
     0
176
     1
 90
       13
176
     1
 40
0.0
176
     1
 90
        0
176
     1
290
     0
176
     1
290
     1
176
     1
290
     1
176
     1
290
     0
176
     1
290
     0
176
     1
290
     0
176
     1
290
     0
176
     1
290
     0
176
     1
290
     0
176
     1
 90
       50
176
     1
 40
0.0
176
     1
 40
1.0
176
     1
 90
        0
176
     1
 62
    18
420
        0
176
     1
 90
       50
176
     1
 90
        3
176
     1
 62
     5
420
      255
176
     1
290
     0
176
     1
 90
       50
176
     1
 90
       50
176
     1
 90
       50
176
     1
290
     0
176
     1
 90
       50
176
     1
 62
   256
176
     0
 40
1.0
176
     0
 90
        2
176
     1
  1
strokes_ogs.tif
176
     1
290
     0
176
     1
 40
1.0
176
     1
 40
1.0
176
     1
  0
DICTIONARYVAR
  5
96
102
{ACAD_REACTORS
330
95
102
}
330
95
100
DictionaryVariables
280
     0
  1
1:1
  0
DICTIONARYVAR
  5
9B
102
{ACAD_REACTORS
330
95
102
}
330
95
100
DictionaryVariables
280
     0
  1
Standard
  0
DICTIONARYVAR
  5
9A
102
{ACAD_REACTORS
330
95
102
}
330
95
100
DictionaryVariables
280
     0
  1
Standard
  0
DICTIONARY
  5
97
330
5A
100
AcDbDictionary
280
     1
281
     1
  3
ACAD_ROUNDTRIP_2008_TABLESTYLE_CELLSTYLEMAP
360
98
  0
CELLSTYLEMAP
  5
98
102
{ACAD_REACTORS
330
97
102
}
330
97
100
AcDbCellStyleMap
 90
        3
300
CELLSTYLE
  1
TABLEFORMAT_BEGIN
 90
        5
170
     1
 91
        0
 92
    32768
 62
   257
 93
        1
300
CONTENTFORMAT
  1
CONTENTFORMAT_BEGIN
 90
        0
 91
        0
 92
        4
 93
        0
300

 40
0.0
140
1.0
 94
        5
 62
     0
340
11
144
0.25
309
CONTENTFORMAT_END
171
     1
301
MARGIN
  1
CELLMARGIN_BEGIN
 40
0.06
 40
0.06
 40
0.06
 40
0.06
 40
0.06
 40
0.06
309
CELLMARGIN_END
 94
        6
 95
        1
302
GRIDFORMAT
  1
GRIDFORMAT_BEGIN
 90
        0
 91
        1
 62
     0
 92
       -2
340
14
 93
        0
 40
0.045
309
GRIDFORMAT_END
 95
        2
302
GRIDFORMAT
  1
GRIDFORMAT_BEGIN
 90
        0
 91
        1
 62
     0
 92
       -2
340
14
 93
        0
 40
0.045
309
GRIDFORMAT_END
 95
        4
302
GRIDFORMAT
  1
GRIDFORMAT_BEGIN
 90
        0
 91
        1
 62
     0
 92
       -2
340
14
 93
        0
 40
0.045
309
GRIDFORMAT_END
 95
        8
302
GRIDFORMAT
  1
GRIDFORMAT_BEGIN
 90
        0
 91
        1
 62
     0
 92
       -2
340
14
 93
        0
 40
0.045
309
GRIDFORMAT_END
 95
       16
302
GRIDFORMAT
  1
GRIDFORMAT_BEGIN
 90
        0
 91
        1
 62
     0
 92
       -2
340
14
 93
        0
 40
0.045
309
GRIDFORMAT_END
 95
       32
302
GRIDFORMAT
  1
GRIDFORMAT_BEGIN
 90
        0
 91
        1
 62
     0
 92
       -2
340
14
 93
        0
 40
0.045
309
GRIDFORMAT_END
309
TABLEFORMAT_END
  1
CELLSTYLE_BEGIN
 90
        1
 91
        1
300
_TITLE
309
CELLSTYLE_END
300
CELLSTYLE
  1
TABLEFORMAT_BEGIN
 90
        5
170
     1
 91
        0
 92
        0
 62
   257
 93
        1
300
CONTENTFORMAT
  1
CONTENTFORMAT_BEGIN
 90
        0
 91
        0
 92
        4
 93
        0
300

 40
0.0
140
1.0
 94
        5
 62
     0
340
11
144
0.18
309
CONTENTFORMAT_END
171
     1
301
MARGIN
  1
CELLMARGIN_BEGIN
 40
0.06
 40
0.06
 40
0.06
 40
0.06
 40
0.06
 40
0.06
309
CELLMARGIN_END
 94
        6
 95
        1
302
GRIDFORMAT
  1
GRIDFORMAT_BEGIN
 90
        0
 91
        1
 62
     0
 92
       -2
340
14
 93
        0
 40
0.045
309
GRIDFORMAT_END
 95
        2
302
GRIDFORMAT
  1
GRIDFORMAT_BEGIN
 90
        0
 91
        1
 62
     0
 92
       -2
340
14
 93
        0
 40
0.045
309
GRIDFORMAT_END
 95
        4
302
GRIDFORMAT
  1
GRIDFORMAT_BEGIN
 90
        0
 91
        1
 62
     0
 92
       -2
340
14
 93
        0
 40
0.045
309
GRIDFORMAT_END
 95
        8
302
GRIDFORMAT
  1
GRIDFORMAT_BEGIN
 90
        0
 91
        1
 62
     0
 92
       -2
340
14
 93
        0
 40
0.045
309
GRIDFORMAT_END
 95
       16
302
GRIDFORMAT
  1
GRIDFORMAT_BEGIN
 90
        0
 91
        1
 62
     0
 92
       -2
340
14
 93
        0
 40
0.045
309
GRIDFORMAT_END
 95
       32
302
GRIDFORMAT
  1
GRIDFORMAT_BEGIN
 90
        0
 91
        1
 62
     0
 92
       -2
340
14
 93
        0
 40
0.045
309
GRIDFORMAT_END
309
TABLEFORMAT_END
  1
CELLSTYLE_BEGIN
 90
        2
 91
        1
300
_HEADER
309
CELLSTYLE_END
300
CELLSTYLE
  1
TABLEFORMAT_BEGIN
 90
        5
170
     1
 91
        0
 92
        0
 62
   257
 93
        1
300
CONTENTFORMAT
  1
CONTENTFORMAT_BEGIN
 90
        0
 91
        0
 92
        4
 93
        0
300

 40
0.0
140
1.0
 94
        2
 62
     0
340
11
144
0.18
309
CONTENTFORMAT_END
171
     1
301
MARGIN
  1
CELLMARGIN_BEGIN
 40
0.06
 40
0.06
 40
0.06
 40
0.06
 40
0.06
 40
0.06
309
CELLMARGIN_END
 94
        6
 95
        1
302
GRIDFORMAT
  1
GRIDFORMAT_BEGIN
 90
        0
 91
        1
 62
     0
 92
       -2
340
14
 93
        0
 40
0.045
309
GRIDFORMAT_END
 95
        2
302
GRIDFORMAT
  1
GRIDFORMAT_BEGIN
 90
        0
 91
        1
 62
     0
 92
       -2
340
14
 93
        0
 40
0.045
309
GRIDFORMAT_END
 95
        4
302
GRIDFORMAT
  1
GRIDFORMAT_BEGIN
 90
        0
 91
        1
 62
     0
 92
       -2
340
14
 93
        0
 40
0.045
309
GRIDFORMAT_END
 95
        8
302
GRIDFORMAT
  1
GRIDFORMAT_BEGIN
 90
        0
 91
        1
 62
     0
 92
       -2
340
14
 93
        0
 40
0.045
309
GRIDFORMAT_END
 95
       16
302
GRIDFORMAT
  1
GRIDFORMAT_BEGIN
 90
        0
 91
        1
 62
     0
 92
       -2
340
14
 93
        0
 40
0.045
309
GRIDFORMAT_END
 95
       32
302
GRIDFORMAT
  1
GRIDFORMAT_BEGIN
 90
        0
 91
        1
 62
     0
 92
       -2
340
14
 93
        0
 40
0.045
309
GRIDFORMAT_END
309
TABLEFORMAT_END
  1
CELLSTYLE_BEGIN
 90
        3
 91
        2
300
_DATA
309
CELLSTYLE_END
  0
ENDSEC
  0
EOF
