  0
SECTION
  2
HEADER
  9
$ACADVER
  1
AC1032
  9
$ACADMAINTVER
 90
       55
  9
$DWGCODEPAGE
  3
ANSI_1252
  9
$LASTSAVEDBY
  1
Abolfazl
  9
$REQUIREDVERSIONS
160
                 0
  9
$INSBASE
 10
0.0
 20
0.0
 30
0.0
  9
$EXTMIN
 10
-25.09
 20
-25.09
 30
0.0
  9
$EXTMAX
 10
25.09
 20
25.09
 30
0.0
  9
$LIMMIN
 10
0.0
 20
0.0
  9
$LIMMAX
 10
12.0
 20
9.0
  9
$ORTHOMODE
 70
     0
  9
$REGENMODE
 70
     1
  9
$FILLMODE
 70
     1
  9
$QTEXTMODE
 70
     0
  9
$MIRRTEXT
 70
     1
  9
$LTSCALE
 40
1.0
  9
$ATTMODE
 70
     1
  9
$TEXTSIZE
 40
0.2
  9
$TRACEWID
 40
0.05
  9
$TEXTSTYLE
  7
Standard
  9
$CLAYER
  8
0
  9
$CELTYPE
  6
ByLayer
  9
$CECOLOR
 62
   256
  9
$CELTSCALE
 40
1.0
  9
$DISPSILH
 70
     0
  9
$DIMSCALE
 40
1.0
  9
$DIMASZ
 40
0.18
  9
$DIMEXO
 40
0.0625
  9
$DIMDLI
 40
0.38
  9
$DIMRND
 40
0.0
  9
$DIMDLE
 40
0.0
  9
$DIMEXE
 40
0.18
  9
$DIMTP
 40
0.0
  9
$DIMTM
 40
0.0
  9
$DIMTXT
 40
0.18
  9
$DIMCEN
 40
0.09
  9
$DIMTSZ
 40
0.0
  9
$DIMTOL
 70
     0
  9
$DIMLIM
 70
     0
  9
$DIMTIH
 70
     1
  9
$DIMTOH
 70
     1
  9
$DIMSE1
 70
     0
  9
$DIMSE2
 70
     0
  9
$DIMTAD
 70
     0
  9
$DIMZIN
 70
     0
  9
$DIMBLK
  1

  9
$DIMASO
 70
     1
  9
$DIMSHO
 70
     1
  9
$DIMPOST
  1

  9
$DIMAPOST
  1

  9
$DIMALT
 70
     0
  9
$DIMALTD
 70
     2
  9
$DIMALTF
 40
25.4
  9
$DIMLFAC
 40
1.0
  9
$DIMTOFL
 70
     0
  9
$DIMTVP
 40
0.0
  9
$DIMTIX
 70
     0
  9
$DIMSOXD
 70
     0
  9
$DIMSAH
 70
     0
  9
$DIMBLK1
  1

  9
$DIMBLK2
  1

  9
$DIMSTYLE
  2
Standard
  9
$DIMCLRD
 70
     0
  9
$DIMCLRE
 70
     0
  9
$DIMCLRT
 70
     0
  9
$DIMTFAC
 40
1.0
  9
$DIMGAP
 40
0.09
  9
$DIMJUST
 70
     0
  9
$DIMSD1
 70
     0
  9
$DIMSD2
 70
     0
  9
$DIMTOLJ
 70
     1
  9
$DIMTZIN
 70
     0
  9
$DIMALTZ
 70
     0
  9
$DIMALTTZ
 70
     0
  9
$DIMUPT
 70
     0
  9
$DIMDEC
 70
     4
  9
$DIMTDEC
 70
     4
  9
$DIMALTU
 70
     2
  9
$DIMALTTD
 70
     2
  9
$DIMTXSTY
  7
Standard
  9
$DIMAUNIT
 70
     0
  9
$DIMADEC
 70
     0
  9
$DIMALTRND
 40
0.0
  9
$DIMAZIN
 70
     0
  9
$DIMDSEP
 70
    46
  9
$DIMATFIT
 70
     3
  9
$DIMFRAC
 70
     0
  9
$DIMLDRBLK
  1

  9
$DIMLUNIT
 70
     2
  9
$DIMLWD
 70
    -2
  9
$DIMLWE
 70
    -2
  9
$DIMTMOVE
 70
     0
  9
$DIMFXL
 40
1.0
  9
$DIMFXLON
 70
     0
  9
$DIMJOGANG
 40
0.7853981633974483
  9
$DIMTFILL
 70
     0
  9
$DIMTFILLCLR
 70
     0
  9
$DIMARCSYM
 70
     0
  9
$DIMLTYPE
  6

  9
$DIMLTEX1
  6

  9
$DIMLTEX2
  6

  9
$DIMTXTDIRECTION
 70
     0
  9
$LUNITS
 70
     2
  9
$LUPREC
 70
     4
  9
$SKETCHINC
 40
0.1
  9
$FILLETRAD
 40
0.0
  9
$AUNITS
 70
     0
  9
$AUPREC
 70
     0
  9
$MENU
  1
.
  9
$ELEVATION
 40
0.0
  9
$PELEVATION
 40
0.0
  9
$THICKNESS
 40
0.0
  9
$LIMCHECK
 70
     0
  9
$CHAMFERA
 40
0.0
  9
$CHAMFERB
 40
0.0
  9
$CHAMFERC
 40
0.0
  9
$CHAMFERD
 40
0.0
  9
$SKPOLY
 70
     0
  9
$TDCREATE
 40
2460463.551607894
  9
$TDUCREATE
 40
2460463.405774561
  9
$TDUPDATE
 40
2460463.551607928
  9
$TDUUPDATE
 40
2460463.405774595
  9
$TDINDWG
 40
0.0000000116
  9
$TDUSRTIMER
 40
0.0000000116
  9
$USRTIMER
 70
     1
  9
$ANGBASE
 50
0.0
  9
$ANGDIR
 70
     0
  9
$PDMODE
 70
     0
  9
$PDSIZE
 40
0.0
  9
$PLINEWID
 40
0.0
  9
$SPLFRAME
 70
     0
  9
$SPLINETYPE
 70
     6
  9
$SPLINESEGS
 70
     8
  9
$HANDSEED
  5
C2
  9
$SURFTAB1
 70
     6
  9
$SURFTAB2
 70
     6
  9
$SURFTYPE
 70
     6
  9
$SURFU
 70
     6
  9
$SURFV
 70
     6
  9
$UCSBASE
  2

  9
$UCSNAME
  2

  9
$UCSORG
 10
0.0
 20
0.0
 30
0.0
  9
$UCSXDIR
 10
1.0
 20
0.0
 30
0.0
  9
$UCSYDIR
 10
0.0
 20
1.0
 30
0.0
  9
$UCSORTHOREF
  2

  9
$UCSORTHOVIEW
 70
     0
  9
$UCSORGTOP
 10
0.0
 20
0.0
 30
0.0
  9
$UCSORGBOTTOM
 10
0.0
 20
0.0
 30
0.0
  9
$UCSORGLEFT
 10
0.0
 20
0.0
 30
0.0
  9
$UCSORGRIGHT
 10
0.0
 20
0.0
 30
0.0
  9
$UCSORGFRONT
 10
0.0
 20
0.0
 30
0.0
  9
$UCSORGBACK
 10
0.0
 20
0.0
 30
0.0
  9
$PUCSBASE
  2

  9
$PUCSNAME
  2

  9
$PUCSORG
 10
0.0
 20
0.0
 30
0.0
  9
$PUCSXDIR
 10
1.0
 20
0.0
 30
0.0
  9
$PUCSYDIR
 10
0.0
 20
1.0
 30
0.0
  9
$PUCSORTHOREF
  2

  9
$PUCSORTHOVIEW
 70
     0
  9
$PUCSORGTOP
 10
0.0
 20
0.0
 30
0.0
  9
$PUCSORGBOTTOM
 10
0.0
 20
0.0
 30
0.0
  9
$PUCSORGLEFT
 10
0.0
 20
0.0
 30
0.0
  9
$PUCSORGRIGHT
 10
0.0
 20
0.0
 30
0.0
  9
$PUCSORGFRONT
 10
0.0
 20
0.0
 30
0.0
  9
$PUCSORGBACK
 10
0.0
 20
0.0
 30
0.0
  9
$USERI1
 70
     0
  9
$USERI2
 70
     0
  9
$USERI3
 70
     0
  9
$USERI4
 70
     0
  9
$USERI5
 70
     0
  9
$USERR1
 40
0.0
  9
$USERR2
 40
0.0
  9
$USERR3
 40
0.0
  9
$USERR4
 40
0.0
  9
$USERR5
 40
0.0
  9
$WORLDVIEW
 70
     1
  9
$SHADEDGE
 70
     3
  9
$SHADEDIF
 70
    70
  9
$TILEMODE
 70
     1
  9
$MAXACTVP
 70
    64
  9
$PINSBASE
 10
0.0
 20
0.0
 30
0.0
  9
$PLIMCHECK
 70
     0
  9
$PEXTMIN
 10
1.000000000000000E+20
 20
1.000000000000000E+20
 30
1.000000000000000E+20
  9
$PEXTMAX
 10
-1.000000000000000E+20
 20
-1.000000000000000E+20
 30
-1.000000000000000E+20
  9
$PLIMMIN
 10
0.0
 20
0.0
  9
$PLIMMAX
 10
12.0
 20
9.0
  9
$UNITMODE
 70
     0
  9
$VISRETAIN
 70
     1
  9
$PLINEGEN
 70
     0
  9
$PSLTSCALE
 70
     1
  9
$TREEDEPTH
 70
  3020
  9
$CMLSTYLE
  2
Standard
  9
$CMLJUST
 70
     0
  9
$CMLSCALE
 40
1.0
  9
$PROXYGRAPHICS
 70
     1
  9
$MEASUREMENT
 70
     0
  9
$CELWEIGHT
370
    -1
  9
$ENDCAPS
280
     0
  9
$JOINSTYLE
280
     0
  9
$LWDISPLAY
290
     0
  9
$INSUNITS
 70
     4
  9
$HYPERLINKBASE
  1

  9
$STYLESHEET
  1

  9
$XEDIT
290
     1
  9
$CEPSNTYPE
380
     0
  9
$PSTYLEMODE
290
     1
  9
$FINGERPRINTGUID
  2
{bc464f34-84f4-4456-bf6e-5d6f4c689b2b}
  9
$VERSIONGUID
  2
{FAEB1C32-E019-11D5-929B-00C0DF256EC4}
  9
$EXTNAMES
290
     1
  9
$PSVPSCALE
 40
0.0
  9
$OLESTARTUP
290
     0
  9
$SORTENTS
280
   127
  9
$INDEXCTL
280
     0
  9
$HIDETEXT
280
     1
  9
$XCLIPFRAME
280
     2
  9
$HALOGAP
280
     0
  9
$OBSCOLOR
 70
   257
  9
$OBSLTYPE
280
     0
  9
$INTERSECTIONDISPLAY
280
     0
  9
$INTERSECTIONCOLOR
 70
   257
  9
$DIMASSOC
280
     2
  9
$PROJECTNAME
  1

  9
$CAMERADISPLAY
290
     0
  9
$LENSLENGTH
 40
50.0
  9
$CAMERAHEIGHT
 40
0.0
  9
$STEPSPERSEC
 40
2.0
  9
$STEPSIZE
 40
6.0
  9
$3DDWFPREC
 40
2.0
  9
$PSOLWIDTH
 40
0.25
  9
$PSOLHEIGHT
 40
4.0
  9
$LOFTANG1
 40
1.570796326794897
  9
$LOFTANG2
 40
1.570796326794897
  9
$LOFTMAG1
 40
0.0
  9
$LOFTMAG2
 40
0.0
  9
$LOFTPARAM
 70
     7
  9
$LOFTNORMALS
280
     1
  9
$LATITUDE
 40
37.795
  9
$LONGITUDE
 40
-122.394
  9
$NORTHDIRECTION
 40
0.0
  9
$TIMEZONE
 70
 -8000
  9
$LIGHTGLYPHDISPLAY
280
     1
  9
$TILEMODELIGHTSYNCH
280
     1
  9
$CMATERIAL
347
44
  9
$SOLIDHIST
280
     0
  9
$SHOWHIST
280
     1
  9
$DWFFRAME
280
     2
  9
$DGNFRAME
280
     2
  9
$REALWORLDSCALE
290
     1
  9
$INTERFERECOLOR
 62
   256
  9
$CSHADOW
280
     0
  9
$SHADOWPLANELOCATION
 40
0.0
  0
ENDSEC
  0
SECTION
  2
CLASSES
  0
CLASS
  1
ACDBDICTIONARYWDFLT
  2
AcDbDictionaryWithDefault
  3
ObjectDBX Classes
 90
        0
 91
        3
280
     0
281
     0
  0
CLASS
  1
VISUALSTYLE
  2
AcDbVisualStyle
  3
ObjectDBX Classes
 90
     4095
 91
        3
280
     0
281
     0
  0
CLASS
  1
MATERIAL
  2
AcDbMaterial
  3
ObjectDBX Classes
 90
     1153
 91
        3
280
     0
281
     0
  0
CLASS
  1
SCALE
  2
AcDbScale
  3
ObjectDBX Classes
 90
     1153
 91
        3
280
     0
281
     0
  0
CLASS
  1
TABLESTYLE
  2
AcDbTableStyle
  3
ObjectDBX Classes
 90
     4095
 91
        3
280
     0
281
     0
  0
CLASS
  1
MLEADERSTYLE
  2
AcDbMLeaderStyle
  3
ACDB_MLEADERSTYLE_CLASS
 90
     4095
 91
        3
280
     0
281
     0
  0
CLASS
  1
SUN
  2
AcDbSun
  3
SCENEOE
 90
     1153
 91
        3
280
     0
281
     0
  0
CLASS
  1
DICTIONARYVAR
  2
AcDbDictionaryVar
  3
ObjectDBX Classes
 90
        0
 91
        3
280
     0
281
     0
  0
CLASS
  1
CELLSTYLEMAP
  2
AcDbCellStyleMap
  3
ObjectDBX Classes
 90
     1152
 91
        3
280
     0
281
     0
  0
ENDSEC
  0
SECTION
  2
TABLES
  0
TABLE
  2
VPORT
  5
8
330
0
100
AcDbSymbolTable
 70
     1
  0
VPORT
  5
29
330
8
100
AcDbSymbolTableRecord
100
AcDbViewportTableRecord
  2
*Active
 70
     0
 10
0.0
 20
0.0
 11
1.0
 21
1.0
 12
10.42990654205607
 22
4.5
 13
0.0
 23
0.0
 14
0.5
 24
0.5
 15
0.5
 25
0.5
 16
0.0
 26
0.0
 36
1.0
 17
0.0
 27
0.0
 37
0.0
 40
9.0
 41
1.972972972850329
 42
50.0
 43
0.0
 44
0.0
 50
0.0
 51
0.0
 71
     0
 72
   100
 73
     1
 74
     3
 75
     0
 76
     0
 77
     0
 78
     0
281
     0
 65
     1
110
0.0
120
0.0
130
0.0
111
1.0
121
0.0
131
0.0
112
0.0
122
1.0
132
0.0
 79
     0
146
0.0
348
2F
 60
     3
 61
     5
292
     1
282
     1
141
0.0
142
0.0
 63
   250
361
5D
  0
ENDTAB
  0
TABLE
  2
LTYPE
  5
5
330
0
100
AcDbSymbolTable
 70
     1
  0
LTYPE
  5
14
330
5
100
AcDbSymbolTableRecord
100
AcDbLinetypeTableRecord
  2
ByBlock
 70
     0
  3

 72
    65
 73
     0
 40
0.0
  0
LTYPE
  5
15
330
5
100
AcDbSymbolTableRecord
100
AcDbLinetypeTableRecord
  2
ByLayer
 70
     0
  3

 72
    65
 73
     0
 40
0.0
  0
LTYPE
  5
16
330
5
100
AcDbSymbolTableRecord
100
AcDbLinetypeTableRecord
  2
Continuous
 70
     0
  3
Solid line
 72
    65
 73
     0
 40
0.0
  0
ENDTAB
  0
TABLE
  2
LAYER
  5
2
330
0
100
AcDbSymbolTable
 70
     2
  0
LAYER
  5
10
330
2
100
AcDbSymbolTableRecord
100
AcDbLayerTableRecord
  2
0
 70
     0
 62
     7
  6
Continuous
370
    -3
390
F
347
46
348
0
  0
LAYER
  5
5F
330
2
100
AcDbSymbolTableRecord
100
AcDbLayerTableRecord
  2
Layer 1
 70
     0
 62
     7
  6
Continuous
370
    -3
390
F
347
46
348
0
  0
ENDTAB
  0
TABLE
  2
STYLE
  5
3
330
0
100
AcDbSymbolTable
 70
     1
  0
STYLE
  5
11
330
3
100
AcDbSymbolTableRecord
100
AcDbTextStyleTableRecord
  2
Standard
 70
     0
 40
0.0
 41
1.0
 50
0.0
 71
     0
 42
0.2
  3
txt
  4

  0
ENDTAB
  0
TABLE
  2
VIEW
  5
6
330
0
100
AcDbSymbolTable
 70
     0
  0
ENDTAB
  0
TABLE
  2
UCS
  5
7
330
0
100
AcDbSymbolTable
 70
     0
  0
ENDTAB
  0
TABLE
  2
APPID
  5
9
330
0
100
AcDbSymbolTable
 70
     2
  0
APPID
  5
12
330
9
100
AcDbSymbolTableRecord
100
AcDbRegAppTableRecord
  2
ACAD
 70
     0
  0
APPID
  5
5E
330
9
100
AcDbSymbolTableRecord
100
AcDbRegAppTableRecord
  2
ODA
 70
     0
  0
ENDTAB
  0
TABLE
  2
DIMSTYLE
  5
A
330
0
100
AcDbSymbolTable
 70
     1
100
AcDbDimStyleTable
  0
DIMSTYLE
105
27
330
A
100
AcDbSymbolTableRecord
100
AcDbDimStyleTableRecord
  2
Standard
 70
     0
178
     0
340
11
  0
ENDTAB
  0
TABLE
  2
BLOCK_RECORD
  5
1
330
0
100
AcDbSymbolTable
 70
     1
  0
BLOCK_RECORD
  5
1F
330
1
100
AcDbSymbolTableRecord
100
AcDbBlockTableRecord
  2
*Model_Space
340
22
 70
     0
280
     1
281
     0
  0
BLOCK_RECORD
  5
1B
330
1
100
AcDbSymbolTableRecord
100
AcDbBlockTableRecord
  2
*Paper_Space
340
1E
 70
     0
280
     1
281
     0
  0
BLOCK_RECORD
  5
23
330
1
100
AcDbSymbolTableRecord
100
AcDbBlockTableRecord
  2
*Paper_Space0
340
26
 70
     0
280
     1
281
     0
  0
ENDTAB
  0
ENDSEC
  0
SECTION
  2
BLOCKS
  0
BLOCK
  5
20
330
1F
100
AcDbEntity
  8
0
100
AcDbBlockBegin
  2
*Model_Space
 70
     0
 10
0.0
 20
0.0
 30
0.0
  3
*Model_Space
  1

  0
ENDBLK
  5
21
330
1F
100
AcDbEntity
  8
0
100
AcDbBlockEnd
  0
BLOCK
  5
1C
330
1B
100
AcDbEntity
 67
     1
  8
0
100
AcDbBlockBegin
  2
*Paper_Space
 70
     0
 10
0.0
 20
0.0
 30
0.0
  3
*Paper_Space
  1

  0
ENDBLK
  5
1D
330
1B
100
AcDbEntity
 67
     1
  8
0
100
AcDbBlockEnd
  0
BLOCK
  5
24
330
23
100
AcDbEntity
  8
0
100
AcDbBlockBegin
  2
*Paper_Space0
 70
     0
 10
0.0
 20
0.0
 30
0.0
  3
*Paper_Space0
  1

  0
ENDBLK
  5
25
330
23
100
AcDbEntity
  8
0
100
AcDbBlockEnd
  0
ENDSEC
  0
SECTION
  2
ENTITIES
  0
SPLINE
  5
60
330
1F
100
AcDbEntity
  8
Layer 1
 62
   240
100
AcDbSpline
210
0.0
220
0.0
230
1.0
 70
    11
 71
     3
 72
    17
 73
    13
 74
     0
 42
0.0000000001
 43
0.0000000001
 40
0.0
 40
0.0
 40
0.0
 40
0.0
 40
0.25
 40
0.25
 40
0.25
 40
0.5
 40
0.5
 40
0.5
 40
0.75
 40
0.75
 40
0.75
 40
1.0
 40
1.0
 40
1.0
 40
1.0
 10
-16.0297
 20
9.1663
 30
0.0
 10
-16.3079
 20
8.9955
 30
0.0
 10
-17.4077
 20
8.1891
 30
0.0
 10
-17.3571
 20
8.9291
 30
0.0
 10
-17.3445
 20
9.1568
 30
0.0
 10
-16.1562
 20
10.039
 30
0.0
 10
-16.0424
 20
9.5457
 30
0.0
 10
-15.9413
 20
9.0998
 30
0.0
 10
-16.0803
 20
9.9252
 30
0.0
 10
-16.0171
 20
9.4129
 30
0.0
 10
-16.0045
 20
9.2991
 30
0.0
 10
-16.0171
 20
9.2706
 30
0.0
 10
-16.0297
 20
9.1663
 30
0.0
  0
SPLINE
  5
61
330
1F
100
AcDbEntity
  8
Layer 1
 62
   240
100
AcDbSpline
210
0.0
220
0.0
230
1.0
 70
    11
 71
     3
 72
    14
 73
    10
 74
     0
 42
0.0000000001
 43
0.0000000001
 40
0.0
 40
0.0
 40
0.0
 40
0.0
 40
0.3333333333333333
 40
0.3333333333333333
 40
0.3333333333333333
 40
0.6666666666666666
 40
0.6666666666666666
 40
0.6666666666666666
 40
1.0
 40
1.0
 40
1.0
 40
1.0
 10
-12.8314
 20
9.6785
 30
0.0
 10
-12.4016
 20
9.8398
 30
0.0
 10
-12.3384
 20
9.318
 30
0.0
 10
-12.5785
 20
9.0998
 30
0.0
 10
-12.6165
 20
9.0619
 30
0.0
 10
-13.3623
 20
8.6445
 30
0.0
 10
-13.4003
 20
8.635
 30
0.0
 10
-14.0829
 20
8.4737
 30
0.0
 10
-13.9565
 20
9.2706
 30
0.0
 10
-12.8314
 20
9.6785
 30
0.0
  0
SPLINE
  5
62
330
1F
100
AcDbEntity
  8
Layer 1
 62
   240
100
AcDbSpline
210
0.0
220
0.0
230
1.0
 70
    11
 71
     3
 72
    17
 73
    13
 74
     0
 42
0.0000000001
 43
0.0000000001
 40
0.0
 40
0.0
 40
0.0
 40
0.0
 40
0.25
 40
0.25
 40
0.25
 40
0.5
 40
0.5
 40
0.5
 40
0.75
 40
0.75
 40
0.75
 40
1.0
 40
1.0
 40
1.0
 40
1.0
 10
19.5568
 20
12.0787
 30
0.0
 10
19.7338
 20
12.2874
 30
0.0
 10
19.8475
 20
12.4487
 30
0.0
 10
20.0624
 20
12.6574
 30
0.0
 10
20.3532
 20
12.9231
 30
0.0
 10
21.0864
 20
13.4448
 30
0.0
 10
21.5415
 20
13.0464
 30
0.0
 10
21.5289
 20
12.6384
 30
0.0
 10
19.3924
 20
11.519
 30
0.0
 10
19.0764
 20
11.4241
 30
0.0
 10
19.0764
 20
11.4241
 30
0.0
 10
19.5568
 20
12.0787
 30
0.0
 10
19.5568
 20
12.0787
 30
0.0
  0
SPLINE
  5
63
330
1F
100
AcDbEntity
  8
Layer 1
 62
   240
100
AcDbSpline
210
0.0
220
0.0
230
1.0
 70
    11
 71
     3
 72
   182
 73
   178
 74
     0
 42
0.0000000001
 43
0.0000000001
 40
0.0
 40
0.0
 40
0.0
 40
0.0
 40
0.0169491525423729
 40
0.0169491525423729
 40
0.0169491525423729
 40
0.0338983050847458
 40
0.0338983050847458
 40
0.0338983050847458
 40
0.0508474576271186
 40
0.0508474576271186
 40
0.0508474576271186
 40
0.0677966101694915
 40
0.0677966101694915
 40
0.0677966101694915
 40
0.0847457627118644
 40
0.0847457627118644
 40
0.0847457627118644
 40
0.1016949152542373
 40
0.1016949152542373
 40
0.1016949152542373
 40
0.1186440677966102
 40
0.1186440677966102
 40
0.1186440677966102
 40
0.1355932203389831
 40
0.1355932203389831
 40
0.1355932203389831
 40
0.1525423728813559
 40
0.1525423728813559
 40
0.1525423728813559
 40
0.1694915254237288
 40
0.1694915254237288
 40
0.1694915254237288
 40
0.1864406779661017
 40
0.1864406779661017
 40
0.1864406779661017
 40
0.2033898305084746
 40
0.2033898305084746
 40
0.2033898305084746
 40
0.2203389830508475
 40
0.2203389830508475
 40
0.2203389830508475
 40
0.2372881355932203
 40
0.2372881355932203
 40
0.2372881355932203
 40
0.2542372881355932
 40
0.2542372881355932
 40
0.2542372881355932
 40
0.2711864406779661
 40
0.2711864406779661
 40
0.2711864406779661
 40
0.288135593220339
 40
0.288135593220339
 40
0.288135593220339
 40
0.3050847457627119
 40
0.3050847457627119
 40
0.3050847457627119
 40
0.3220338983050847
 40
0.3220338983050847
 40
0.3220338983050847
 40
0.3389830508474576
 40
0.3389830508474576
 40
0.3389830508474576
 40
0.3559322033898305
 40
0.3559322033898305
 40
0.3559322033898305
 40
0.3728813559322034
 40
0.3728813559322034
 40
0.3728813559322034
 40
0.3898305084745763
 40
0.3898305084745763
 40
0.3898305084745763
 40
0.4067796610169492
 40
0.4067796610169492
 40
0.4067796610169492
 40
0.423728813559322
 40
0.423728813559322
 40
0.423728813559322
 40
0.4406779661016949
 40
0.4406779661016949
 40
0.4406779661016949
 40
0.4576271186440678
 40
0.4576271186440678
 40
0.4576271186440678
 40
0.4745762711864407
 40
0.4745762711864407
 40
0.4745762711864407
 40
0.4915254237288136
 40
0.4915254237288136
 40
0.4915254237288136
 40
0.5084745762711864
 40
0.5084745762711864
 40
0.5084745762711864
 40
0.5254237288135594
 40
0.5254237288135594
 40
0.5254237288135594
 40
0.5423728813559322
 40
0.5423728813559322
 40
0.5423728813559322
 40
0.559322033898305
 40
0.559322033898305
 40
0.559322033898305
 40
0.576271186440678
 40
0.576271186440678
 40
0.576271186440678
 40
0.5932203389830508
 40
0.5932203389830508
 40
0.5932203389830508
 40
0.6101694915254238
 40
0.6101694915254238
 40
0.6101694915254238
 40
0.6271186440677966
 40
0.6271186440677966
 40
0.6271186440677966
 40
0.6440677966101694
 40
0.6440677966101694
 40
0.6440677966101694
 40
0.6610169491525424
 40
0.6610169491525424
 40
0.6610169491525424
 40
0.6779661016949152
 40
0.6779661016949152
 40
0.6779661016949152
 40
0.6949152542372882
 40
0.6949152542372882
 40
0.6949152542372882
 40
0.711864406779661
 40
0.711864406779661
 40
0.711864406779661
 40
0.7288135593220338
 40
0.7288135593220338
 40
0.7288135593220338
 40
0.7457627118644068
 40
0.7457627118644068
 40
0.7457627118644068
 40
0.7627118644067796
 40
0.7627118644067796
 40
0.7627118644067796
 40
0.7796610169491526
 40
0.7796610169491526
 40
0.7796610169491526
 40
0.7966101694915254
 40
0.7966101694915254
 40
0.7966101694915254
 40
0.8135593220338984
 40
0.8135593220338984
 40
0.8135593220338984
 40
0.8305084745762712
 40
0.8305084745762712
 40
0.8305084745762712
 40
0.847457627118644
 40
0.847457627118644
 40
0.847457627118644
 40
0.864406779661017
 40
0.864406779661017
 40
0.864406779661017
 40
0.8813559322033898
 40
0.8813559322033898
 40
0.8813559322033898
 40
0.8983050847457628
 40
0.8983050847457628
 40
0.8983050847457628
 40
0.9152542372881356
 40
0.9152542372881356
 40
0.9152542372881356
 40
0.9322033898305084
 40
0.9322033898305084
 40
0.9322033898305084
 40
0.9491525423728814
 40
0.9491525423728814
 40
0.9491525423728814
 40
0.9661016949152542
 40
0.9661016949152542
 40
0.9661016949152542
 40
0.9830508474576272
 40
0.9830508474576272
 40
0.9830508474576272
 40
1.0
 40
1.0
 40
1.0
 40
1.0
 10
-20.4417
 20
6.4056
 30
0.0
 10
-19.3166
 20
6.0261
 30
0.0
 10
-18.0145
 20
6.5099
 30
0.0
 10
-17.2181
 20
6.9558
 30
0.0
 10
-16.8515
 20
6.6997
 30
0.0
 10
-16.8388
 20
6.2443
 30
0.0
 10
-15.7011
 20
6.2253
 30
0.0
 10
-15.246
 20
2.0321
 30
0.0
 10
-7.0541
 20
1.7096
 30
0.0
 10
-2.9455
 20
3.7777
 30
0.0
 10
-1.4665
 20
4.5177
 30
0.0
 10
-0.67
 20
5.3146
 30
0.0
 10
-0.0759
 20
6.8609
 30
0.0
 10
0.9987
 20
6.3487
 30
0.0
 10
1.5044
 20
6.8609
 30
0.0
 10
2.0732
 20
7.3163
 30
0.0
 10
2.2249
 20
7.0697
 30
0.0
 10
2.2629
 20
6.7376
 30
0.0
 10
2.5915
 20
6.6333
 30
0.0
 10
3.3501
 20
6.4056
 30
0.0
 10
4.0833
 20
7.7053
 30
0.0
 10
4.2603
 20
8.4168
 30
0.0
 10
4.4499
 20
8.284
 30
0.0
 10
4.3361
 20
8.3599
 30
0.0
 10
4.4878
 20
8.2081
 30
0.0
 10
5.7014
 20
6.9653
 30
0.0
 10
7.7999
 20
7.0507
 30
0.0
 10
9.4307
 20
7.1645
 30
0.0
 10
13.0842
 20
7.4207
 30
0.0
 10
19.5315
 20
9.3845
 30
0.0
 10
21.6932
 20
12.5246
 30
0.0
 10
21.9334
 20
12.8661
 30
0.0
 10
22.0725
 20
13.2361
 30
0.0
 10
22.3
 20
13.5492
 30
0.0
 10
22.3
 20
13.5492
 30
0.0
 10
22.3
 20
14.0235
 30
0.0
 10
22.3
 20
14.0235
 30
0.0
 10
21.5415
 20
14.4884
 30
0.0
 10
20.8209
 20
13.7294
 30
0.0
 10
20.3406
 20
13.3689
 30
0.0
 10
20.5302
 20
14.1563
 30
0.0
 10
20.8968
 20
15.845
 30
0.0
 10
20.8209
 20
16.6988
 30
0.0
 10
20.8209
 20
16.6988
 30
0.0
 10
20.7451
 20
16.6988
 30
0.0
 10
20.7451
 20
16.6988
 30
0.0
 10
20.3279
 20
15.6458
 30
0.0
 10
20.1256
 20
15.3137
 30
0.0
 10
19.9866
 20
13.9951
 30
0.0
 10
19.8602
 20
12.7049
 30
0.0
 10
19.4556
 20
12.3444
 30
0.0
 10
18.8868
 20
11.5759
 30
0.0
 10
18.3811
 20
10.9024
 30
0.0
 10
17.7237
 20
10.7411
 30
0.0
 10
16.6618
 20
10.3521
 30
0.0
 10
15.8148
 20
10.039
 30
0.0
 10
14.892
 20
9.7355
 30
0.0
 10
13.9691
 20
9.5078
 30
0.0
 10
12.0855
 20
9.0524
 30
0.0
 10
6.6875
 20
8.265
 30
0.0
 10
5.082
 20
9.9062
 30
0.0
 10
4.0453
 20
10.9498
 30
0.0
 10
5.0061
 20
11.9839
 30
0.0
 10
4.7406
 20
12.61
 30
0.0
 10
3.3121
 20
11.4052
 30
0.0
 10
4.5889
 20
6.8894
 30
0.0
 10
2.4904
 20
8.0183
 30
0.0
 10
2.5031
 20
8.4453
 30
0.0
 10
3.211
 20
9.1663
 30
0.0
 10
3.1983
 20
11.6803
 30
0.0
 10
2.9961
 20
11.5
 30
0.0
 10
3.0087
 20
11.4146
 30
0.0
 10
2.8949
 20
11.1016
 30
0.0
 10
2.7938
 20
10.8549
 30
0.0
 10
2.718
 20
10.6557
 30
0.0
 10
2.6295
 20
10.4185
 30
0.0
 10
2.3893
 20
9.7829
 30
0.0
 10
2.6168
 20
9.356
 30
0.0
 10
2.364
 20
8.8058
 30
0.0
 10
2.0227
 20
8.0278
 30
0.0
 10
1.1757
 20
7.3922
 30
0.0
 10
0.0253
 20
7.3258
 30
0.0
 10
0.1517
 20
9.2991
 30
0.0
 10
-0.0885
 20
8.5686
 30
0.0
 10
-0.8976
 20
9.2516
 30
0.0
 10
-0.8849
 20
9.8873
 30
0.0
 10
0.139
 20
10.7126
 30
0.0
 10
0.5689
 20
10.9213
 30
0.0
 10
1.3274
 20
11.2818
 30
0.0
 10
1.1883
 20
10.428
 30
0.0
 10
1.7066
 20
11.6518
 30
0.0
 10
1.833
 20
11.9554
 30
0.0
 10
1.9847
 20
12.1831
 30
0.0
 10
1.8963
 20
12.5151
 30
0.0
 10
0.7585
 20
12.4961
 30
0.0
 10
-1.3906
 20
10.1149
 30
0.0
 10
-1.6182
 20
8.5496
 30
0.0
 10
-1.7951
 20
7.2784
 30
0.0
 10
-1.0114
 20
7.6484
 30
0.0
 10
-0.4804
 20
7.155
 30
0.0
 10
-0.4172
 20
6.6238
 30
0.0
 10
-1.1631
 20
5.9787
 30
0.0
 10
-1.4917
 20
5.7605
 30
0.0
 10
-2.0606
 20
5.3905
 30
0.0
 10
-2.5031
 20
5.1628
 30
0.0
 10
-3.211
 20
4.9067
 30
0.0
 10
-5.8279
 20
3.958
 30
0.0
 10
-9.5951
 20
3.6923
 30
0.0
 10
-12.351
 20
4.2331
 30
0.0
 10
-13.6531
 20
4.4987
 30
0.0
 10
-15.2712
 20
5.1249
 30
0.0
 10
-15.562
 20
6.1969
 30
0.0
 10
-15.3471
 20
6.3107
 30
0.0
 10
-14.7403
 20
6.3771
 30
0.0
 10
-13.9565
 20
6.7851
 30
0.0
 10
-13.4255
 20
7.0602
 30
0.0
 10
-12.9957
 20
7.3638
 30
0.0
 10
-12.5153
 20
7.5914
 30
0.0
 10
-12.2119
 20
6.6522
 30
0.0
 10
-11.2385
 20
6.8515
 30
0.0
 10
-10.8593
 20
7.0602
 30
0.0
 10
-10.9351
 20
7.5061
 30
0.0
 10
-11.0868
 20
7.6768
 30
0.0
 10
-11.1121
 20
8.2365
 30
0.0
 10
-11.1121
 20
8.2365
 30
0.0
 10
-11.7821
 20
8.2081
 30
0.0
 10
-11.7821
 20
8.2081
 30
0.0
 10
-11.4661
 20
9.0904
 30
0.0
 10
-11.5925
 20
9.8114
 30
0.0
 10
-12.1993
 20
10.4185
 30
0.0
 10
-12.8946
 20
11.13
 30
0.0
 10
-13.5014
 20
10.5988
 30
0.0
 10
-14.2346
 20
10.2003
 30
0.0
 10
-15.6126
 20
9.4604
 30
0.0
 10
-14.3105
 20
8.9101
 30
0.0
 10
-14.399
 20
8.2555
 30
0.0
 10
-14.4875
 20
7.6104
 30
0.0
 10
-15.7263
 20
7.2689
 30
0.0
 10
-16.5354
 20
7.2784
 30
0.0
 10
-16.5354
 20
7.2784
 30
0.0
 10
-16.1056
 20
7.6104
 30
0.0
 10
-16.1056
 20
7.6104
 30
0.0
 10
-15.7643
 20
7.8286
 30
0.0
 10
-15.246
 20
8.284
 30
0.0
 10
-15.1322
 20
8.7488
 30
0.0
 10
-14.9552
 20
9.4793
 30
0.0
 10
-15.6252
 20
10.3995
 30
0.0
 10
-15.9792
 20
10.6367
 30
0.0
 10
-16.5607
 20
11.0162
 30
0.0
 10
-17.433
 20
10.4565
 30
0.0
 10
-17.9386
 20
10.1339
 30
0.0
 10
-19.0385
 20
9.4224
 30
0.0
 10
-17.9007
 20
8.986
 30
0.0
 10
-17.9766
 20
8.1512
 30
0.0
 10
-18.2421
 20
7.3448
 30
0.0
 10
-21.0485
 20
6.8325
 30
0.0
 10
-21.3519
 20
9.0998
 30
0.0
 10
-21.4783
 20
10.0106
 30
0.0
 10
-21.137
 20
10.9118
 30
0.0
 10
-20.644
 20
11.2818
 30
0.0
 10
-20.0372
 20
11.7372
 30
0.0
 10
-18.8362
 20
11.9554
 30
0.0
 10
-18.8362
 20
10.817
 30
0.0
 10
-19.0385
 20
10.6842
 30
0.0
 10
-21.2761
 20
10.409
 30
0.0
 10
-20.0625
 20
8.3409
 30
0.0
 10
-19.5062
 20
9.726
 30
0.0
 10
-19.2281
 20
9.0145
 30
0.0
 10
-18.4443
 20
9.9442
 30
0.0
 10
-17.1296
 20
11.4905
 30
0.0
 10
-19.1143
 20
13.3025
 30
0.0
 10
-21.0612
 20
11.9364
 30
0.0
 10
-21.3519
 20
11.7372
 30
0.0
 10
-21.6553
 20
11.3862
 30
0.0
 10
-21.8449
 20
11.0731
 30
0.0
 10
-22.6667
 20
9.688
 30
0.0
 10
-22.4391
 20
7.1076
 30
0.0
 10
-20.4417
 20
6.4056
 30
0.0
  0
SPLINE
  5
64
330
1F
100
AcDbEntity
  8
Layer 1
 62
   240
100
AcDbSpline
210
0.0
220
0.0
230
1.0
 70
    11
 71
     3
 72
    62
 73
    58
 74
     0
 42
0.0000000001
 43
0.0000000001
 40
0.0
 40
0.0
 40
0.0
 40
0.0
 40
0.0526315789473684
 40
0.0526315789473684
 40
0.0526315789473684
 40
0.1052631578947368
 40
0.1052631578947368
 40
0.1052631578947368
 40
0.1578947368421053
 40
0.1578947368421053
 40
0.1578947368421053
 40
0.2105263157894737
 40
0.2105263157894737
 40
0.2105263157894737
 40
0.2631578947368421
 40
0.2631578947368421
 40
0.2631578947368421
 40
0.3157894736842105
 40
0.3157894736842105
 40
0.3157894736842105
 40
0.3684210526315789
 40
0.3684210526315789
 40
0.3684210526315789
 40
0.4210526315789473
 40
0.4210526315789473
 40
0.4210526315789473
 40
0.4736842105263158
 40
0.4736842105263158
 40
0.4736842105263158
 40
0.5263157894736842
 40
0.5263157894736842
 40
0.5263157894736842
 40
0.5789473684210527
 40
0.5789473684210527
 40
0.5789473684210527
 40
0.631578947368421
 40
0.631578947368421
 40
0.631578947368421
 40
0.6842105263157894
 40
0.6842105263157894
 40
0.6842105263157894
 40
0.7368421052631579
 40
0.7368421052631579
 40
0.7368421052631579
 40
0.7894736842105263
 40
0.7894736842105263
 40
0.7894736842105263
 40
0.8421052631578947
 40
0.8421052631578947
 40
0.8421052631578947
 40
0.894736842105263
 40
0.894736842105263
 40
0.894736842105263
 40
0.9473684210526315
 40
0.9473684210526315
 40
0.9473684210526315
 40
1.0
 40
1.0
 40
1.0
 40
1.0
 10
-4.4752
 20
8.1322
 30
0.0
 10
-5.398
 20
8.3599
 30
0.0
 10
-6.106
 20
8.4073
 30
0.0
 10
-6.7633
 20
7.8286
 30
0.0
 10
-7.2564
 20
7.4017
 30
0.0
 10
-7.5724
 20
5.8648
 30
0.0
 10
-6.9277
 20
5.6656
 30
0.0
 10
-6.6116
 20
6.0641
 30
0.0
 10
-7.0667
 20
7.6673
 30
0.0
 10
-5.5497
 20
7.2689
 30
0.0
 10
-5.3854
 20
7.2215
 30
0.0
 10
-3.8305
 20
6.2917
 30
0.0
 10
-3.4386
 20
7.4681
 30
0.0
 10
-2.6421
 20
9.8209
 30
0.0
 10
-5.1578
 20
10.5513
 30
0.0
 10
-6.4599
 20
9.4698
 30
0.0
 10
-7.0415
 20
8.986
 30
0.0
 10
-7.5471
 20
8.5591
 30
0.0
 10
-8.116
 20
8.0753
 30
0.0
 10
-8.5332
 20
7.7148
 30
0.0
 10
-9.4055
 20
6.7756
 30
0.0
 10
-10.1134
 20
7.4776
 30
0.0
 10
-11.2006
 20
8.5496
 30
0.0
 10
-10.1008
 20
10.9403
 30
0.0
 10
-7.7115
 20
10.2857
 30
0.0
 10
-7.762
 20
9.5837
 30
0.0
 10
-9.0136
 20
9.4319
 30
0.0
 10
-9.9111
 20
8.7868
 30
0.0
 10
-10.2651
 20
8.5401
 30
0.0
 10
-10.3283
 20
7.8571
 30
0.0
 10
-9.9491
 20
7.5725
 30
0.0
 10
-9.494
 20
7.2309
 30
0.0
 10
-9.0389
 20
7.8191
 30
0.0
 10
-8.7607
 20
8.0183
 30
0.0
 10
-8.2045
 20
8.4358
 30
0.0
 10
-7.1426
 20
9.3939
 30
0.0
 10
-6.6875
 20
9.6406
 30
0.0
 10
-5.8152
 20
10.1055
 30
0.0
 10
-4.905
 20
10.3521
 30
0.0
 10
-3.742
 20
10.3711
 30
0.0
 10
-3.6029
 20
10.6652
 30
0.0
 10
-3.4133
 20
11.1016
 30
0.0
 10
-3.3248
 20
11.4526
 30
0.0
 10
-4.2856
 20
11.3957
 30
0.0
 10
-5.1578
 20
11.3577
 30
0.0
 10
-6.1313
 20
11.3957
 30
0.0
 10
-6.915
 20
11.4336
 30
0.0
 10
-8.116
 20
11.6328
 30
0.0
 10
-8.8113
 20
11.5759
 30
0.0
 10
-12.3257
 20
11.2723
 30
0.0
 10
-11.2259
 20
3.7113
 30
0.0
 10
-7.9643
 20
6.8325
 30
0.0
 10
-7.4207
 20
7.3448
 30
0.0
 10
-7.1173
 20
7.7717
 30
0.0
 10
-6.4599
 20
8.2176
 30
0.0
 10
-5.9796
 20
8.5496
 30
0.0
 10
-4.6395
 20
9.2137
 30
0.0
 10
-4.4752
 20
8.1322
 30
0.0
  0
SPLINE
  5
65
330
1F
100
AcDbEntity
  8
Layer 1
 62
   240
100
AcDbSpline
210
0.0
220
0.0
230
1.0
 70
    11
 71
     3
 72
    14
 73
    10
 74
     0
 42
0.0000000001
 43
0.0000000001
 40
0.0
 40
0.0
 40
0.0
 40
0.0
 40
0.3333333333333333
 40
0.3333333333333333
 40
0.3333333333333333
 40
0.6666666666666666
 40
0.6666666666666666
 40
0.6666666666666666
 40
1.0
 40
1.0
 40
1.0
 40
1.0
 10
-18.5455
 20
12.6479
 30
0.0
 10
-18.5455
 20
12.6479
 30
0.0
 10
-18.0145
 20
12.61
 30
0.0
 10
-18.0145
 20
12.61
 30
0.0
 10
-17.7111
 20
12.5815
 30
0.0
 10
-17.7996
 20
11.9744
 30
0.0
 10
-18.0019
 20
12.1262
 30
0.0
 10
-18.2547
 20
12.2305
 30
0.0
 10
-18.3938
 20
12.4392
 30
0.0
 10
-18.5455
 20
12.6479
 30
0.0
  0
SPLINE
  5
66
330
1F
100
AcDbEntity
  8
Layer 1
 62
   240
100
AcDbSpline
210
0.0
220
0.0
230
1.0
 70
    11
 71
     3
 72
    11
 73
     7
 74
     0
 42
0.0000000001
 43
0.0000000001
 40
0.0
 40
0.0
 40
0.0
 40
0.0
 40
0.5
 40
0.5
 40
0.5
 40
1.0
 40
1.0
 40
1.0
 40
1.0
 10
-21.6427
 20
12.24
 30
0.0
 10
-21.807
 20
12.6479
 30
0.0
 10
-21.3519
 20
12.6954
 30
0.0
 10
-20.9221
 20
12.6574
 30
0.0
 10
-20.998
 20
12.5151
 30
0.0
 10
-21.4657
 20
11.8416
 30
0.0
 10
-21.6427
 20
12.24
 30
0.0
  0
SPLINE
  5
67
330
1F
100
AcDbEntity
  8
Layer 1
 62
   240
100
AcDbSpline
210
0.0
220
0.0
230
1.0
 70
    11
 71
     3
 72
    14
 73
    10
 74
     0
 42
0.0000000001
 43
0.0000000001
 40
0.0
 40
0.0
 40
0.0
 40
0.0
 40
0.3333333333333333
 40
0.3333333333333333
 40
0.3333333333333333
 40
0.6666666666666666
 40
0.6666666666666666
 40
0.6666666666666666
 40
1.0
 40
1.0
 40
1.0
 40
1.0
 10
-19.5442
 20
13.0179
 30
0.0
 10
-19.4683
 20
13.0938
 30
0.0
 10
-19.3419
 20
13.2171
 30
0.0
 10
-19.266
 20
13.312
 30
0.0
 10
-19.266
 20
13.312
 30
0.0
 10
-19.1775
 20
12.9136
 30
0.0
 10
-19.1775
 20
12.9136
 30
0.0
 10
-19.3292
 20
12.961
 30
0.0
 10
-19.3672
 20
12.98
 30
0.0
 10
-19.5442
 20
13.0179
 30
0.0
  0
SPLINE
  5
68
330
1F
100
AcDbEntity
  8
Layer 1
 62
   240
100
AcDbSpline
210
0.0
220
0.0
230
1.0
 70
    11
 71
     3
 72
    11
 73
     7
 74
     0
 42
0.0000000001
 43
0.0000000001
 40
0.0
 40
0.0
 40
0.0
 40
0.0
 40
0.5
 40
0.5
 40
0.5
 40
1.0
 40
1.0
 40
1.0
 40
1.0
 10
-20.113
 20
13.2456
 30
0.0
 10
-19.936
 20
12.9136
 30
0.0
 10
-19.9108
 20
12.999
 30
0.0
 10
-20.2774
 20
12.9136
 30
0.0
 10
-20.2142
 20
13.0274
 30
0.0
 10
-20.2142
 20
13.0654
 30
0.0
 10
-20.113
 20
13.2456
 30
0.0
  0
SPLINE
  5
69
330
1F
100
AcDbEntity
  8
Layer 1
 62
   240
100
AcDbSpline
210
0.0
220
0.0
230
1.0
 70
    11
 71
     3
 72
    14
 73
    10
 74
     0
 42
0.0000000001
 43
0.0000000001
 40
0.0
 40
0.0
 40
0.0
 40
0.0
 40
0.3333333333333333
 40
0.3333333333333333
 40
0.3333333333333333
 40
0.6666666666666666
 40
0.6666666666666666
 40
0.6666666666666666
 40
1.0
 40
1.0
 40
1.0
 40
1.0
 10
-19.3925
 20
14.3271
 30
0.0
 10
-19.4936
 20
13.9761
 30
0.0
 10
-19.6074
 20
13.4448
 30
0.0
 10
-19.7591
 20
13.1887
 30
0.0
 10
-19.7591
 20
13.1887
 30
0.0
 10
-20.0877
 20
14.3176
 30
0.0
 10
-20.0877
 20
14.3176
 30
0.0
 10
-20.0877
 20
14.3176
 30
0.0
 10
-19.3925
 20
14.3271
 30
0.0
 10
-19.3925
 20
14.3271
 30
0.0
  0
SPLINE
  5
6A
330
1F
100
AcDbEntity
  8
Layer 1
 62
   240
100
AcDbSpline
210
0.0
220
0.0
230
1.0
 70
    11
 71
     3
 72
    14
 73
    10
 74
     0
 42
0.0000000001
 43
0.0000000001
 40
0.0
 40
0.0
 40
0.0
 40
0.0
 40
0.3333333333333333
 40
0.3333333333333333
 40
0.3333333333333333
 40
0.6666666666666666
 40
0.6666666666666666
 40
0.6666666666666666
 40
1.0
 40
1.0
 40
1.0
 40
1.0
 10
-19.9613
 20
13.3215
 30
0.0
 10
-20.1383
 20
13.4923
 30
0.0
 10
-20.5808
 20
14.0615
 30
0.0
 10
-20.7198
 20
14.3176
 30
0.0
 10
-20.7198
 20
14.3176
 30
0.0
 10
-20.2647
 20
14.3176
 30
0.0
 10
-20.2647
 20
14.3176
 30
0.0
 10
-20.2647
 20
14.3176
 30
0.0
 10
-19.9613
 20
13.3215
 30
0.0
 10
-19.9613
 20
13.3215
 30
0.0
  0
SPLINE
  5
6B
330
1F
100
AcDbEntity
  8
Layer 1
 62
   240
100
AcDbSpline
210
0.0
220
0.0
230
1.0
 70
    11
 71
     3
 72
    14
 73
    10
 74
     0
 42
0.0000000001
 43
0.0000000001
 40
0.0
 40
0.0
 40
0.0
 40
0.0
 40
0.3333333333333333
 40
0.3333333333333333
 40
0.3333333333333333
 40
0.6666666666666666
 40
0.6666666666666666
 40
0.6666666666666666
 40
1.0
 40
1.0
 40
1.0
 40
1.0
 10
-19.4683
 20
13.4069
 30
0.0
 10
-19.4304
 20
13.5587
 30
0.0
 10
-19.2407
 20
14.1753
 30
0.0
 10
-19.1649
 20
14.3271
 30
0.0
 10
-18.9879
 20
14.3271
 30
0.0
 10
-18.9753
 20
14.3556
 30
0.0
 10
-18.7224
 20
14.3271
 30
0.0
 10
-18.9626
 20
14.014
 30
0.0
 10
-19.1649
 20
13.7105
 30
0.0
 10
-19.4683
 20
13.4069
 30
0.0
  0
SPLINE
  5
6C
330
1F
100
AcDbEntity
  8
Layer 1
 62
   240
100
AcDbSpline
210
0.0
220
0.0
230
1.0
 70
    11
 71
     3
 72
    14
 73
    10
 74
     0
 42
0.0000000001
 43
0.0000000001
 40
0.0
 40
0.0
 40
0.0
 40
0.0
 40
0.3333333333333333
 40
0.3333333333333333
 40
0.3333333333333333
 40
0.6666666666666666
 40
0.6666666666666666
 40
0.6666666666666666
 40
1.0
 40
1.0
 40
1.0
 40
1.0
 10
-18.8489
 20
14.8109
 30
0.0
 10
-18.8489
 20
14.8109
 30
0.0
 10
-18.7098
 20
14.4979
 30
0.0
 10
-18.7098
 20
14.4979
 30
0.0
 10
-18.7098
 20
14.4979
 30
0.0
 10
-19.0385
 20
14.4789
 30
0.0
 10
-19.0385
 20
14.4789
 30
0.0
 10
-18.9247
 20
14.6497
 30
0.0
 10
-18.9121
 20
14.6876
 30
0.0
 10
-18.8489
 20
14.8109
 30
0.0
  0
SPLINE
  5
6D
330
1F
100
AcDbEntity
  8
Layer 1
 62
   240
100
AcDbSpline
210
0.0
220
0.0
230
1.0
 70
    11
 71
     3
 72
    14
 73
    10
 74
     0
 42
0.0000000001
 43
0.0000000001
 40
0.0
 40
0.0
 40
0.0
 40
0.0
 40
0.3333333333333333
 40
0.3333333333333333
 40
0.3333333333333333
 40
0.6666666666666666
 40
0.6666666666666666
 40
0.6666666666666666
 40
1.0
 40
1.0
 40
1.0
 40
1.0
 10
-19.7464
 20
14.773
 30
0.0
 10
-19.6326
 20
14.6686
 30
0.0
 10
-19.62
 20
14.6212
 30
0.0
 10
-19.5062
 20
14.4789
 30
0.0
 10
-19.5062
 20
14.4789
 30
0.0
 10
-19.974
 20
14.4694
 30
0.0
 10
-19.974
 20
14.4694
 30
0.0
 10
-19.8855
 20
14.6117
 30
0.0
 10
-19.8349
 20
14.6781
 30
0.0
 10
-19.7464
 20
14.773
 30
0.0
  0
SPLINE
  5
6E
330
1F
100
AcDbEntity
  8
Layer 1
 62
   240
100
AcDbSpline
210
0.0
220
0.0
230
1.0
 70
    11
 71
     3
 72
    14
 73
    10
 74
     0
 42
0.0000000001
 43
0.0000000001
 40
0.0
 40
0.0
 40
0.0
 40
0.0
 40
0.3333333333333333
 40
0.3333333333333333
 40
0.3333333333333333
 40
0.6666666666666666
 40
0.6666666666666666
 40
0.6666666666666666
 40
1.0
 40
1.0
 40
1.0
 40
1.0
 10
-20.6313
 20
14.7825
 30
0.0
 10
-20.6313
 20
14.7825
 30
0.0
 10
-20.4164
 20
14.4884
 30
0.0
 10
-20.4164
 20
14.4884
 30
0.0
 10
-20.4164
 20
14.4884
 30
0.0
 10
-20.7704
 20
14.4789
 30
0.0
 10
-20.7704
 20
14.4789
 30
0.0
 10
-20.7704
 20
14.4789
 30
0.0
 10
-20.6313
 20
14.7825
 30
0.0
 10
-20.6313
 20
14.7825
 30
0.0
  0
SPLINE
  5
6F
330
1F
100
AcDbEntity
  8
Layer 1
 62
   240
100
AcDbSpline
210
0.0
220
0.0
230
1.0
 70
    11
 71
     3
 72
    14
 73
    10
 74
     0
 42
0.0000000001
 43
0.0000000001
 40
0.0
 40
0.0
 40
0.0
 40
0.0
 40
0.3333333333333333
 40
0.3333333333333333
 40
0.3333333333333333
 40
0.6666666666666666
 40
0.6666666666666666
 40
0.6666666666666666
 40
1.0
 40
1.0
 40
1.0
 40
1.0
 10
-20.4291
 20
14.8299
 30
0.0
 10
-20.4291
 20
14.8299
 30
0.0
 10
-20.0498
 20
14.8489
 30
0.0
 10
-19.9866
 20
14.8489
 30
0.0
 10
-20.113
 20
14.6497
 30
0.0
 10
-20.1636
 20
14.5738
 30
0.0
 10
-20.2015
 20
14.5738
 30
0.0
 10
-20.2268
 20
14.5738
 30
0.0
 10
-20.3406
 20
14.7256
 30
0.0
 10
-20.4291
 20
14.8299
 30
0.0
  0
SPLINE
  5
70
330
1F
100
AcDbEntity
  8
Layer 1
 62
   240
100
AcDbSpline
210
0.0
220
0.0
230
1.0
 70
    11
 71
     3
 72
    14
 73
    10
 74
     0
 42
0.0000000001
 43
0.0000000001
 40
0.0
 40
0.0
 40
0.0
 40
0.0
 40
0.3333333333333333
 40
0.3333333333333333
 40
0.3333333333333333
 40
0.6666666666666666
 40
0.6666666666666666
 40
0.6666666666666666
 40
1.0
 40
1.0
 40
1.0
 40
1.0
 10
-19.2913
 20
14.5358
 30
0.0
 10
-19.3672
 20
14.6592
 30
0.0
 10
-19.4051
 20
14.6971
 30
0.0
 10
-19.4936
 20
14.8489
 30
0.0
 10
-19.4936
 20
14.8489
 30
0.0
 10
-19.0764
 20
14.8584
 30
0.0
 10
-19.0764
 20
14.8584
 30
0.0
 10
-19.127
 20
14.735
 30
0.0
 10
-19.1902
 20
14.6402
 30
0.0
 10
-19.2913
 20
14.5358
 30
0.0
  0
SPLINE
  5
71
330
1F
100
AcDbEntity
  8
Layer 1
 62
   240
100
AcDbSpline
210
0.0
220
0.0
230
1.0
 70
    11
 71
     3
 72
    71
 73
    67
 74
     0
 42
0.0000000001
 43
0.0000000001
 40
0.0
 40
0.0
 40
0.0
 40
0.0
 40
0.0454545454545455
 40
0.0454545454545455
 40
0.0454545454545455
 40
0.0909090909090909
 40
0.0909090909090909
 40
0.0909090909090909
 40
0.1363636363636364
 40
0.1363636363636364
 40
0.1363636363636364
 40
0.1818181818181818
 40
0.1818181818181818
 40
0.1818181818181818
 40
0.2272727272727273
 40
0.2272727272727273
 40
0.2272727272727273
 40
0.2727272727272727
 40
0.2727272727272727
 40
0.2727272727272727
 40
0.3181818181818182
 40
0.3181818181818182
 40
0.3181818181818182
 40
0.3636363636363636
 40
0.3636363636363636
 40
0.3636363636363636
 40
0.4090909090909091
 40
0.4090909090909091
 40
0.4090909090909091
 40
0.4545454545454546
 40
0.4545454545454546
 40
0.4545454545454546
 40
0.5
 40
0.5
 40
0.5
 40
0.5454545454545454
 40
0.5454545454545454
 40
0.5454545454545454
 40
0.5909090909090909
 40
0.5909090909090909
 40
0.5909090909090909
 40
0.6363636363636364
 40
0.6363636363636364
 40
0.6363636363636364
 40
0.6818181818181819
 40
0.6818181818181819
 40
0.6818181818181819
 40
0.7272727272727273
 40
0.7272727272727273
 40
0.7272727272727273
 40
0.7727272727272727
 40
0.7727272727272727
 40
0.7727272727272727
 40
0.8181818181818182
 40
0.8181818181818182
 40
0.8181818181818182
 40
0.8636363636363636
 40
0.8636363636363636
 40
0.8636363636363636
 40
0.9090909090909092
 40
0.9090909090909092
 40
0.9090909090909092
 40
0.9545454545454546
 40
0.9545454545454546
 40
0.9545454545454546
 40
1.0
 40
1.0
 40
1.0
 40
1.0
 10
-21.0106
 20
14.422
 30
0.0
 10
-20.8589
 20
14.1943
 30
0.0
 10
-20.8589
 20
14.1184
 30
0.0
 10
-20.7072
 20
13.9382
 30
0.0
 10
-21.2002
 20
13.9476
 30
0.0
 10
-21.3898
 20
13.7579
 30
0.0
 10
-21.314
 20
13.3784
 30
0.0
 10
-21.2381
 20
12.8946
 30
0.0
 10
-20.6819
 20
13.0084
 30
0.0
 10
-20.644
 20
13.5207
 30
0.0
 10
-20.6693
 20
13.5112
 30
0.0
 10
-20.6946
 20
13.5018
 30
0.0
 10
-20.6946
 20
13.4733
 30
0.0
 10
-20.7198
 20
13.3879
 30
0.0
 10
-20.8336
 20
13.3215
 30
0.0
 10
-20.9474
 20
13.293
 30
0.0
 10
-21.2508
 20
13.293
 30
0.0
 10
-21.1749
 20
13.6535
 30
0.0
 10
-20.9727
 20
13.6915
 30
0.0
 10
-20.8842
 20
13.72
 30
0.0
 10
-20.7704
 20
13.7294
 30
0.0
 10
-20.6187
 20
13.72
 30
0.0
 10
-20.3911
 20
13.4259
 30
0.0
 10
-20.2142
 20
13.1792
 30
0.0
 10
-20.5681
 20
12.9231
 30
0.0
 10
-20.8463
 20
12.7618
 30
0.0
 10
-21.4025
 20
12.8566
 30
0.0
 10
-21.6806
 20
12.7143
 30
0.0
 10
-21.9461
 20
12.5531
 30
0.0
 10
-22.0093
 20
11.8985
 30
0.0
 10
-21.491
 20
11.9839
 30
0.0
 10
-21.0232
 20
12.0598
 30
0.0
 10
-20.8842
 20
12.7428
 30
0.0
 10
-19.797
 20
12.7902
 30
0.0
 10
-18.3938
 20
12.8472
 30
0.0
 10
-18.4443
 20
11.8416
 30
0.0
 10
-17.7743
 20
12.0123
 30
0.0
 10
-16.9273
 20
13.4638
 30
0.0
 10
-19.6959
 20
12.1262
 30
0.0
 10
-18.95
 20
13.6535
 30
0.0
 10
-18.28
 20
13.7769
 30
0.0
 10
-18.3305
 20
13.2646
 30
0.0
 10
-18.457
 20
13.2646
 30
0.0
 10
-18.6213
 20
13.2646
 30
0.0
 10
-18.6845
 20
13.3784
 30
0.0
 10
-18.8236
 20
13.4638
 30
0.0
 10
-18.8236
 20
13.2836
 30
0.0
 10
-18.7983
 20
13.1033
 30
0.0
 10
-18.5581
 20
13.1033
 30
0.0
 10
-18.1915
 20
13.0274
 30
0.0
 10
-18.0777
 20
13.4164
 30
0.0
 10
-18.1915
 20
13.663
 30
0.0
 10
-18.28
 20
13.8433
 30
0.0
 10
-18.5707
 20
13.9666
 30
0.0
 10
-18.7856
 20
13.9571
 30
0.0
 10
-18.7856
 20
13.9571
 30
0.0
 10
-18.457
 20
14.4125
 30
0.0
 10
-18.457
 20
14.4125
 30
0.0
 10
-18.457
 20
14.4125
 30
0.0
 10
-18.8362
 20
14.9912
 30
0.0
 10
-18.8362
 20
14.9912
 30
0.0
 10
-18.8362
 20
14.9912
 30
0.0
 10
-20.6819
 20
15.0007
 30
0.0
 10
-20.6819
 20
15.0007
 30
0.0
 10
-20.7578
 20
14.8299
 30
0.0
 10
-20.9221
 20
14.5643
 30
0.0
 10
-21.0106
 20
14.422
 30
0.0
  0
SPLINE
  5
72
330
1F
100
AcDbEntity
  8
Layer 1
 62
   240
100
AcDbSpline
210
0.0
220
0.0
230
1.0
 70
    11
 71
     3
 72
    29
 73
    25
 74
     0
 42
0.0000000001
 43
0.0000000001
 40
0.0
 40
0.0
 40
0.0
 40
0.0
 40
0.125
 40
0.125
 40
0.125
 40
0.25
 40
0.25
 40
0.25
 40
0.375
 40
0.375
 40
0.375
 40
0.5
 40
0.5
 40
0.5
 40
0.625
 40
0.625
 40
0.625
 40
0.75
 40
0.75
 40
0.75
 40
0.875
 40
0.875
 40
0.875
 40
1.0
 40
1.0
 40
1.0
 40
1.0
 10
-17.1928
 20
13.0938
 30
0.0
 10
-17.0284
 20
12.8756
 30
0.0
 10
-16.8515
 20
12.629
 30
0.0
 10
-16.6745
 20
12.3918
 30
0.0
 10
-16.902
 20
12.0882
 30
0.0
 10
-17.0411
 20
12.1262
 30
0.0
 10
-17.2686
 20
11.8416
 30
0.0
 10
-17.2054
 20
11.6993
 30
0.0
 10
-16.7377
 20
11.0731
 30
0.0
 10
-16.5733
 20
10.8929
 30
0.0
 10
-16.2699
 20
10.9498
 30
0.0
 10
-15.9033
 20
11.2818
 30
0.0
 10
-15.7263
 20
11.4336
 30
0.0
 10
-15.7643
 20
11.8416
 30
0.0
 10
-16.0297
 20
11.9554
 30
0.0
 10
-16.2067
 20
12.3444
 30
0.0
 10
-15.9539
 20
12.4582
 30
0.0
 10
-15.7516
 20
12.572
 30
0.0
 10
-15.6505
 20
12.8566
 30
0.0
 10
-15.7643
 20
13.1033
 30
0.0
 10
-16.1941
 20
13.663
 30
0.0
 10
-16.3458
 20
13.7769
 30
0.0
 10
-16.5986
 20
13.682
 30
0.0
 10
-17.0664
 20
13.293
 30
0.0
 10
-17.1928
 20
13.0938
 30
0.0
  0
SPLINE
  5
73
330
1F
100
AcDbEntity
  8
Layer 1
 62
   240
100
AcDbSpline
210
0.0
220
0.0
230
1.0
 70
    11
 71
     3
 72
    38
 73
    34
 74
     0
 42
0.0000000001
 43
0.0000000001
 40
0.0
 40
0.0
 40
0.0
 40
0.0
 40
0.0909090909090909
 40
0.0909090909090909
 40
0.0909090909090909
 40
0.1818181818181818
 40
0.1818181818181818
 40
0.1818181818181818
 40
0.2727272727272727
 40
0.2727272727272727
 40
0.2727272727272727
 40
0.3636363636363636
 40
0.3636363636363636
 40
0.3636363636363636
 40
0.4545454545454546
 40
0.4545454545454546
 40
0.4545454545454546
 40
0.5454545454545454
 40
0.5454545454545454
 40
0.5454545454545454
 40
0.6363636363636364
 40
0.6363636363636364
 40
0.6363636363636364
 40
0.7272727272727273
 40
0.7272727272727273
 40
0.7272727272727273
 40
0.8181818181818182
 40
0.8181818181818182
 40
0.8181818181818182
 40
0.9090909090909092
 40
0.9090909090909092
 40
0.9090909090909092
 40
1.0
 40
1.0
 40
1.0
 40
1.0
 10
-13.6405
 20
13.1033
 30
0.0
 10
-13.5014
 20
12.8566
 30
0.0
 10
-13.2738
 20
12.6764
 30
0.0
 10
-13.1221
 20
12.3918
 30
0.0
 10
-13.1221
 20
12.3918
 30
0.0
 10
-13.4003
 20
12.1167
 30
0.0
 10
-13.4003
 20
12.1167
 30
0.0
 10
-13.5772
 20
11.9744
 30
0.0
 10
-13.6152
 20
11.9554
 30
0.0
 10
-13.7163
 20
11.8226
 30
0.0
 10
-13.7163
 20
11.8226
 30
0.0
 10
-13.2106
 20
11.13
 30
0.0
 10
-13.2106
 20
11.13
 30
0.0
 10
-13.198
 20
11.1111
 30
0.0
 10
-13.1095
 20
11.0067
 30
0.0
 10
-13.0969
 20
10.9972
 30
0.0
 10
-13.0084
 20
10.9024
 30
0.0
 10
-13.0716
 20
10.9498
 30
0.0
 10
-12.9704
 20
10.8834
 30
0.0
 10
-12.6418
 20
11.0447
 30
0.0
 10
-12.3763
 20
11.2154
 30
0.0
 10
-12.1614
 20
11.5285
 30
0.0
 10
-12.2751
 20
11.8226
 30
0.0
 10
-12.4774
 20
12.0408
 30
0.0
 10
-12.6544
 20
12.221
 30
0.0
 10
-12.4774
 20
12.4867
 30
0.0
 10
-12.2625
 20
12.5151
 30
0.0
 10
-12.0729
 20
12.8092
 30
0.0
 10
-12.3131
 20
13.2171
 30
0.0
 10
-12.4521
 20
13.4828
 30
0.0
 10
-12.8187
 20
13.7674
 30
0.0
 10
-13.0969
 20
13.6061
 30
0.0
 10
-13.4129
 20
13.3405
 30
0.0
 10
-13.6405
 20
13.1033
 30
0.0
  0
SPLINE
  5
74
330
1F
100
AcDbEntity
  8
Layer 1
 62
   240
100
AcDbSpline
210
0.0
220
0.0
230
1.0
 70
    11
 71
     3
 72
    26
 73
    22
 74
     0
 42
0.0000000001
 43
0.0000000001
 40
0.0
 40
0.0
 40
0.0
 40
0.0
 40
0.1428571428571428
 40
0.1428571428571428
 40
0.1428571428571428
 40
0.2857142857142857
 40
0.2857142857142857
 40
0.2857142857142857
 40
0.4285714285714285
 40
0.4285714285714285
 40
0.4285714285714285
 40
0.5714285714285714
 40
0.5714285714285714
 40
0.5714285714285714
 40
0.7142857142857142
 40
0.7142857142857142
 40
0.7142857142857142
 40
0.8571428571428571
 40
0.8571428571428571
 40
0.8571428571428571
 40
1.0
 40
1.0
 40
1.0
 40
1.0
 10
-4.1844
 20
12.3064
 30
0.0
 10
-5.0188
 20
11.9839
 30
0.0
 10
-5.1958
 20
11.87
 30
0.0
 10
-6.2956
 20
11.8795
 30
0.0
 10
-5.4739
 20
11.6044
 30
0.0
 10
-5.0441
 20
11.6139
 30
0.0
 10
-4.2729
 20
12.0787
 30
0.0
 10
-3.742
 20
12.3823
 30
0.0
 10
-3.9695
 20
12.0787
 30
0.0
 10
-3.6535
 20
12.24
 30
0.0
 10
-3.4512
 20
12.6859
 30
0.0
 10
-3.6914
 20
12.24
 30
0.0
 10
-3.6661
 20
12.6669
 30
0.0
 10
-3.6535
 20
12.98
 30
0.0
 10
-3.5018
 20
12.8851
 30
0.0
 10
-3.6156
 20
13.2741
 30
0.0
 10
-3.6156
 20
13.2741
 30
0.0
 10
-3.6408
 20
13.4164
 30
0.0
 10
-3.9822
 20
13.293
 30
0.0
 10
-4.6648
 20
13.0369
 30
0.0
 10
-4.1844
 20
12.3159
 30
0.0
 10
-4.1844
 20
12.3064
 30
0.0
  0
SPLINE
  5
75
330
1F
100
AcDbEntity
  8
Layer 1
 62
   240
100
AcDbSpline
210
0.0
220
0.0
230
1.0
 70
    11
 71
     3
 72
    17
 73
    13
 74
     0
 42
0.0000000001
 43
0.0000000001
 40
0.0
 40
0.0
 40
0.0
 40
0.0
 40
0.25
 40
0.25
 40
0.25
 40
0.5
 40
0.5
 40
0.5
 40
0.75
 40
0.75
 40
0.75
 40
1.0
 40
1.0
 40
1.0
 40
1.0
 10
-9.8606
 20
12.3159
 30
0.0
 10
-9.1274
 20
12.1736
 30
0.0
 10
-9.0389
 20
12.3159
 30
0.0
 10
-8.3815
 20
12.4961
 30
0.0
 10
-7.9896
 20
12.61
 30
0.0
 10
-7.3575
 20
12.7618
 30
0.0
 10
-7.0288
 20
12.9136
 30
0.0
 10
-7.7115
 20
13.0559
 30
0.0
 10
-7.8632
 20
12.9325
 30
0.0
 10
-8.4826
 20
12.7523
 30
0.0
 10
-8.9504
 20
12.629
 30
0.0
 10
-9.5192
 20
12.5246
 30
0.0
 10
-9.8606
 20
12.3159
 30
0.0
  0
SPLINE
  5
76
330
1F
100
AcDbEntity
  8
Layer 1
 62
   240
100
AcDbSpline
210
0.0
220
0.0
230
1.0
 70
    11
 71
     3
 72
    35
 73
    31
 74
     0
 42
0.0000000001
 43
0.0000000001
 40
0.0
 40
0.0
 40
0.0
 40
0.0
 40
0.1
 40
0.1
 40
0.1
 40
0.2
 40
0.2
 40
0.2
 40
0.3
 40
0.3
 40
0.3
 40
0.4
 40
0.4
 40
0.4
 40
0.5
 40
0.5
 40
0.5
 40
0.6000000000000001
 40
0.6000000000000001
 40
0.6000000000000001
 40
0.7000000000000001
 40
0.7000000000000001
 40
0.7000000000000001
 40
0.8
 40
0.8
 40
0.8
 40
0.9
 40
0.9
 40
0.9
 40
1.0
 40
1.0
 40
1.0
 40
1.0
 10
-9.4308
 20
0.1063
 30
0.0
 10
-9.4308
 20
0.1063
 30
0.0
 10
-10.0502
 20
-1.3926
 30
0.0
 10
-10.0502
 20
-1.3926
 30
0.0
 10
-10.7581
 20
-1.3926
 30
0.0
 10
-10.1766
 20
-1.2219
 30
0.0
 10
-10.8087
 20
-1.3642
 30
0.0
 10
-11.2385
 20
-1.459
 30
0.0
 10
-11.3523
 20
-1.3926
 30
0.0
 10
-11.6431
 20
-1.2693
 30
0.0
 10
-11.681
 20
-0.8803
 30
0.0
 10
-10.9098
 20
0.9981
 30
0.0
 10
-10.6949
 20
1.2542
 30
0.0
 10
-10.4547
 20
1.5673
 30
0.0
 10
-9.9238
 20
1.7191
 30
0.0
 10
-9.3675
 20
1.6432
 30
0.0
 10
-8.6722
 20
1.5388
 30
0.0
 10
-9.0894
 20
0.9791
 30
0.0
 10
-9.2285
 20
0.5617
 30
0.0
 10
-9.2285
 20
0.5617
 30
0.0
 10
-9.9743
 20
0.5712
 30
0.0
 10
-9.9743
 20
0.5712
 30
0.0
 10
-9.9111
 20
0.7799
 30
0.0
 10
-9.7468
 20
0.9981
 30
0.0
 10
-9.8353
 20
1.2163
 30
0.0
 10
-10.0628
 20
1.0455
 30
0.0
 10
-10.2778
 20
0.3719
 30
0.0
 10
-10.3662
 20
0.1158
 30
0.0
 10
-10.3662
 20
0.1158
 30
0.0
 10
-9.4308
 20
0.1063
 30
0.0
 10
-9.4308
 20
0.1063
 30
0.0
  0
SPLINE
  5
77
330
1F
100
AcDbEntity
  8
Layer 1
 62
   240
100
AcDbSpline
210
0.0
220
0.0
230
1.0
 70
    11
 71
     3
 72
    35
 73
    31
 74
     0
 42
0.0000000001
 43
0.0000000001
 40
0.0
 40
0.0
 40
0.0
 40
0.0
 40
0.1
 40
0.1
 40
0.1
 40
0.2
 40
0.2
 40
0.2
 40
0.3
 40
0.3
 40
0.3
 40
0.4
 40
0.4
 40
0.4
 40
0.5
 40
0.5
 40
0.5
 40
0.6000000000000001
 40
0.6000000000000001
 40
0.6000000000000001
 40
0.7000000000000001
 40
0.7000000000000001
 40
0.7000000000000001
 40
0.8
 40
0.8
 40
0.8
 40
0.9
 40
0.9
 40
0.9
 40
1.0
 40
1.0
 40
1.0
 40
1.0
 10
-2.8823
 20
0.1158
 30
0.0
 10
-2.8823
 20
0.1158
 30
0.0
 10
-3.5018
 20
-1.3926
 30
0.0
 10
-3.5018
 20
-1.3926
 30
0.0
 10
-3.6661
 20
-1.3926
 30
0.0
 10
-3.6408
 20
-1.3926
 30
0.0
 10
-3.7799
 20
-1.3642
 30
0.0
 10
-4.5258
 20
-1.2313
 30
0.0
 10
-4.5763
 20
-1.6203
 30
0.0
 10
-5.0946
 20
-1.2124
 30
0.0
 10
-5.1452
 20
-0.8139
 30
0.0
 10
-4.5258
 20
0.4478
 30
0.0
 10
-4.3488
 20
0.8653
 30
0.0
 10
-3.9822
 20
1.7286
 30
0.0
 10
-3.3248
 20
1.8234
 30
0.0
 10
-2.4399
 20
1.5293
 30
0.0
 10
-2.3893
 20
1.1593
 30
0.0
 10
-2.5663
 20
0.8842
 30
0.0
 10
-2.6801
 20
0.5522
 30
0.0
 10
-2.6801
 20
0.5522
 30
0.0
 10
-3.4259
 20
0.5522
 30
0.0
 10
-3.4259
 20
0.5522
 30
0.0
 10
-3.3627
 20
0.8083
 30
0.0
 10
-3.1731
 20
1.0645
 30
0.0
 10
-3.2489
 20
1.2163
 30
0.0
 10
-3.5144
 20
1.1024
 30
0.0
 10
-3.8178
 20
0.1632
 30
0.0
 10
-3.8431
 20
-0.0265
 30
0.0
 10
-3.7546
 20
0.1917
 30
0.0
 10
-3.7293
 20
0.1632
 30
0.0
 10
-2.8823
 20
0.1158
 30
0.0
  0
SPLINE
  5
78
330
1F
100
AcDbEntity
  8
Layer 1
 62
   240
100
AcDbSpline
210
0.0
220
0.0
230
1.0
 70
    11
 71
     3
 72
    26
 73
    22
 74
     0
 42
0.0000000001
 43
0.0000000001
 40
0.0
 40
0.0
 40
0.0
 40
0.0
 40
0.1428571428571428
 40
0.1428571428571428
 40
0.1428571428571428
 40
0.2857142857142857
 40
0.2857142857142857
 40
0.2857142857142857
 40
0.4285714285714285
 40
0.4285714285714285
 40
0.4285714285714285
 40
0.5714285714285714
 40
0.5714285714285714
 40
0.5714285714285714
 40
0.7142857142857142
 40
0.7142857142857142
 40
0.7142857142857142
 40
0.8571428571428571
 40
0.8571428571428571
 40
0.8571428571428571
 40
1.0
 40
1.0
 40
1.0
 40
1.0
 10
-13.0589
 20
0.9506
 30
0.0
 10
-12.6544
 20
1.6052
 30
0.0
 10
-12.7808
 20
1.7475
 30
0.0
 10
-11.5925
 20
1.6147
 30
0.0
 10
-11.5925
 20
1.6147
 30
0.0
 10
-12.2499
 20
-1.3926
 30
0.0
 10
-12.2499
 20
-1.3926
 30
0.0
 10
-12.2499
 20
-1.3926
 30
0.0
 10
-13.0337
 20
-1.3926
 30
0.0
 10
-13.0337
 20
-1.3926
 30
0.0
 10
-13.021
 20
-1.0511
 30
0.0
 10
-12.8567
 20
-0.8424
 30
0.0
 10
-12.9704
 20
-0.5862
 30
0.0
 10
-13.4129
 20
-0.6242
 30
0.0
 10
-13.2106
 20
-0.6526
 30
0.0
 10
-13.6657
 20
-1.3926
 30
0.0
 10
-13.6657
 20
-1.3926
 30
0.0
 10
-14.4622
 20
-1.3926
 30
0.0
 10
-14.4622
 20
-1.3926
 30
0.0
 10
-14.4622
 20
-1.3926
 30
0.0
 10
-13.0589
 20
0.9506
 30
0.0
 10
-13.0589
 20
0.9506
 30
0.0
  0
SPLINE
  5
79
330
1F
100
AcDbEntity
  8
Layer 1
 62
   240
100
AcDbSpline
210
0.0
220
0.0
230
1.0
 70
    11
 71
     3
 72
    14
 73
    10
 74
     0
 42
0.0000000001
 43
0.0000000001
 40
0.0
 40
0.0
 40
0.0
 40
0.0
 40
0.3333333333333333
 40
0.3333333333333333
 40
0.3333333333333333
 40
0.6666666666666666
 40
0.6666666666666666
 40
0.6666666666666666
 40
1.0
 40
1.0
 40
1.0
 40
1.0
 10
-12.6038
 20
0.4668
 30
0.0
 10
-12.6038
 20
0.4099
 30
0.0
 10
-12.6418
 20
0.1253
 30
0.0
 10
-12.6544
 20
0.0968
 30
0.0
 10
-12.7935
 20
-0.3396
 30
0.0
 10
-12.667
 20
-0.0834
 30
0.0
 10
-12.9578
 20
-0.1498
 30
0.0
 10
-12.9578
 20
-0.1498
 30
0.0
 10
-12.6038
 20
0.4668
 30
0.0
 10
-12.6038
 20
0.4668
 30
0.0
  0
SPLINE
  5
7A
330
1F
100
AcDbEntity
  8
Layer 1
 62
   240
100
AcDbSpline
210
0.0
220
0.0
230
1.0
 70
    11
 71
     3
 72
    44
 73
    40
 74
     0
 42
0.0000000001
 43
0.0000000001
 40
0.0
 40
0.0
 40
0.0
 40
0.0
 40
0.0769230769230769
 40
0.0769230769230769
 40
0.0769230769230769
 40
0.1538461538461539
 40
0.1538461538461539
 40
0.1538461538461539
 40
0.2307692307692308
 40
0.2307692307692308
 40
0.2307692307692308
 40
0.3076923076923077
 40
0.3076923076923077
 40
0.3076923076923077
 40
0.3846153846153846
 40
0.3846153846153846
 40
0.3846153846153846
 40
0.4615384615384616
 40
0.4615384615384616
 40
0.4615384615384616
 40
0.5384615384615385
 40
0.5384615384615385
 40
0.5384615384615385
 40
0.6153846153846154
 40
0.6153846153846154
 40
0.6153846153846154
 40
0.6923076923076923
 40
0.6923076923076923
 40
0.6923076923076923
 40
0.7692307692307693
 40
0.7692307692307693
 40
0.7692307692307693
 40
0.8461538461538463
 40
0.8461538461538463
 40
0.8461538461538463
 40
0.9230769230769231
 40
0.9230769230769231
 40
0.9230769230769231
 40
1.0
 40
1.0
 40
1.0
 40
1.0
 10
-7.1426
 20
0.0589
 30
0.0
 10
-7.8253
 20
-1.6298
 30
0.0
 10
-7.5977
 20
-1.4021
 30
0.0
 10
-8.5585
 20
-1.3831
 30
0.0
 10
-8.5585
 20
-1.3831
 30
0.0
 10
-8.0781
 20
-0.1214
 30
0.0
 10
-8.0781
 20
-0.1214
 30
0.0
 10
-8.0654
 20
0.0304
 30
0.0
 10
-8.0781
 20
-0.0265
 30
0.0
 10
-8.116
 20
0.0494
 30
0.0
 10
-8.1287
 20
0.0304
 30
0.0
 10
-8.1413
 20
0.0114
 30
0.0
 10
-8.1539
 20
-0.0075
 30
0.0
 10
-8.1539
 20
-0.0075
 30
0.0
 10
-8.2551
 20
-0.1593
 30
0.0
 10
-8.2551
 20
-0.1593
 30
0.0
 10
-8.9124
 20
-1.3262
 30
0.0
 10
-8.2804
 20
-1.4021
 30
0.0
 10
-9.5951
 20
-1.3736
 30
0.0
 10
-9.5951
 20
-1.3736
 30
0.0
 10
-8.3436
 20
1.6337
 30
0.0
 10
-8.3436
 20
1.6337
 30
0.0
 10
-8.3436
 20
1.6337
 30
0.0
 10
-7.5345
 20
1.6432
 30
0.0
 10
-7.5345
 20
1.6432
 30
0.0
 10
-7.5345
 20
1.6432
 30
0.0
 10
-7.9011
 20
0.7229
 30
0.0
 10
-7.9011
 20
0.7229
 30
0.0
 10
-7.9011
 20
0.704
 30
0.0
 10
-7.9517
 20
0.5901
 30
0.0
 10
-7.8758
 20
0.4478
 30
0.0
 10
-7.6609
 20
0.6945
 30
0.0
 10
-7.4839
 20
1.2827
 30
0.0
 10
-7.3196
 20
1.6337
 30
0.0
 10
-7.3196
 20
1.6337
 30
0.0
 10
-6.5105
 20
1.6432
 30
0.0
 10
-6.5105
 20
1.6432
 30
0.0
 10
-6.6243
 20
1.1783
 30
0.0
 10
-6.953
 20
0.5142
 30
0.0
 10
-7.1426
 20
0.0589
 30
0.0
  0
SPLINE
  5
7B
330
1F
100
AcDbEntity
  8
Layer 1
 62
   240
100
AcDbSpline
210
0.0
220
0.0
230
1.0
 70
    11
 71
     3
 72
    32
 73
    28
 74
     0
 42
0.0000000001
 43
0.0000000001
 40
0.0
 40
0.0
 40
0.0
 40
0.0
 40
0.1111111111111111
 40
0.1111111111111111
 40
0.1111111111111111
 40
0.2222222222222222
 40
0.2222222222222222
 40
0.2222222222222222
 40
0.3333333333333333
 40
0.3333333333333333
 40
0.3333333333333333
 40
0.4444444444444444
 40
0.4444444444444444
 40
0.4444444444444444
 40
0.5555555555555556
 40
0.5555555555555556
 40
0.5555555555555556
 40
0.6666666666666666
 40
0.6666666666666666
 40
0.6666666666666666
 40
0.7777777777777777
 40
0.7777777777777777
 40
0.7777777777777777
 40
0.8888888888888888
 40
0.8888888888888888
 40
0.8888888888888888
 40
1.0
 40
1.0
 40
1.0
 40
1.0
 10
-6.6369
 20
0.1822
 30
0.0
 10
-5.8784
 20
1.9562
 30
0.0
 10
-6.3967
 20
1.6432
 30
0.0
 10
-4.4752
 20
1.6432
 30
0.0
 10
-4.6142
 20
1.0645
 30
0.0
 10
-4.728
 20
1.2258
 30
0.0
 10
-5.3475
 20
1.2258
 30
0.0
 10
-5.4739
 20
1.0076
 30
0.0
 10
-5.6003
 20
0.7135
 30
0.0
 10
-5.6762
 20
0.4478
 30
0.0
 10
-5.6762
 20
0.4478
 30
0.0
 10
-5.0694
 20
0.4478
 30
0.0
 10
-5.0694
 20
0.4478
 30
0.0
 10
-5.1705
 20
-0.6526
 30
0.0
 10
-5.7267
 20
1.036
 30
0.0
 10
-6.2577
 20
-0.9752
 30
0.0
 10
-6.2577
 20
-0.9752
 30
0.0
 10
-5.5624
 20
-0.9942
 30
0.0
 10
-5.5624
 20
-0.9942
 30
0.0
 10
-5.5624
 20
-0.9942
 30
0.0
 10
-5.7014
 20
-1.3926
 30
0.0
 10
-5.7014
 20
-1.3926
 30
0.0
 10
-5.7014
 20
-1.3926
 30
0.0
 10
-7.269
 20
-1.3926
 30
0.0
 10
-7.269
 20
-1.3926
 30
0.0
 10
-7.1805
 20
-0.9752
 30
0.0
 10
-6.8266
 20
-0.2542
 30
0.0
 10
-6.6369
 20
0.1822
 30
0.0
  0
SPLINE
  5
7C
330
1F
100
AcDbEntity
  8
Layer 1
 62
   240
100
AcDbSpline
210
0.0
220
0.0
230
1.0
 70
    11
 71
     3
 72
    35
 73
    31
 74
     0
 42
0.0000000001
 43
0.0000000001
 40
0.0
 40
0.0
 40
0.0
 40
0.0
 40
0.1
 40
0.1
 40
0.1
 40
0.2
 40
0.2
 40
0.2
 40
0.3
 40
0.3
 40
0.3
 40
0.4
 40
0.4
 40
0.4
 40
0.5
 40
0.5
 40
0.5
 40
0.6000000000000001
 40
0.6000000000000001
 40
0.6000000000000001
 40
0.7000000000000001
 40
0.7000000000000001
 40
0.7000000000000001
 40
0.8
 40
0.8
 40
0.8
 40
0.9
 40
0.9
 40
0.9
 40
1.0
 40
1.0
 40
1.0
 40
1.0
 10
0.0632
 20
1.6242
 30
0.0
 10
0.0632
 20
1.6242
 30
0.0
 10
-1.201
 20
-1.3926
 30
0.0
 10
-1.201
 20
-1.3926
 30
0.0
 10
-1.201
 20
-1.3926
 30
0.0
 10
-2.0227
 20
-1.3831
 30
0.0
 10
-2.0227
 20
-1.3831
 30
0.0
 10
-2.0227
 20
-1.3831
 30
0.0
 10
-1.4791
 20
0.0494
 30
0.0
 10
-1.4791
 20
0.0494
 30
0.0
 10
-1.7699
 20
-0.036
 30
0.0
 10
-2.0859
 20
-1.0701
 30
0.0
 10
-2.225
 20
-1.3926
 30
0.0
 10
-2.225
 20
-1.3926
 30
0.0
 10
-3.0214
 20
-1.3926
 30
0.0
 10
-3.0214
 20
-1.3926
 30
0.0
 10
-2.9203
 20
-0.9562
 30
0.0
 10
-2.5663
 20
-0.2163
 30
0.0
 10
-2.3767
 20
0.2296
 30
0.0
 10
-1.7193
 20
1.795
 30
0.0
 10
-2.0353
 20
1.6621
 30
0.0
 10
-0.9734
 20
1.6337
 30
0.0
 10
-0.9734
 20
1.6337
 30
0.0
 10
-1.4285
 20
0.4668
 30
0.0
 10
-1.4285
 20
0.4668
 30
0.0
 10
-1.1757
 20
0.5048
 30
0.0
 10
-1.302
 20
0.3245
 30
0.0
 10
-1.0114
 20
1.055
 30
0.0
 10
-0.7585
 20
1.6905
 30
0.0
 10
-0.9481
 20
1.6621
 30
0.0
 10
0.0632
 20
1.6242
 30
0.0
  0
SPLINE
  5
7D
330
1F
100
AcDbEntity
  8
Layer 1
 62
   240
100
AcDbSpline
210
0.0
220
0.0
230
1.0
 70
    11
 71
     3
 72
    44
 73
    40
 74
     0
 42
0.0000000001
 43
0.0000000001
 40
0.0
 40
0.0
 40
0.0
 40
0.0
 40
0.0769230769230769
 40
0.0769230769230769
 40
0.0769230769230769
 40
0.1538461538461539
 40
0.1538461538461539
 40
0.1538461538461539
 40
0.2307692307692308
 40
0.2307692307692308
 40
0.2307692307692308
 40
0.3076923076923077
 40
0.3076923076923077
 40
0.3076923076923077
 40
0.3846153846153846
 40
0.3846153846153846
 40
0.3846153846153846
 40
0.4615384615384616
 40
0.4615384615384616
 40
0.4615384615384616
 40
0.5384615384615385
 40
0.5384615384615385
 40
0.5384615384615385
 40
0.6153846153846154
 40
0.6153846153846154
 40
0.6153846153846154
 40
0.6923076923076923
 40
0.6923076923076923
 40
0.6923076923076923
 40
0.7692307692307693
 40
0.7692307692307693
 40
0.7692307692307693
 40
0.8461538461538463
 40
0.8461538461538463
 40
0.8461538461538463
 40
0.9230769230769231
 40
0.9230769230769231
 40
0.9230769230769231
 40
1.0
 40
1.0
 40
1.0
 40
1.0
 10
-18.2421
 20
1.6147
 30
0.0
 10
-18.2421
 20
1.6147
 30
0.0
 10
-19.5062
 20
-1.3926
 30
0.0
 10
-19.5062
 20
-1.3926
 30
0.0
 10
-19.5062
 20
-1.3926
 30
0.0
 10
-20.2268
 20
-1.3831
 30
0.0
 10
-20.2268
 20
-1.3831
 30
0.0
 10
-20.2268
 20
-1.3831
 30
0.0
 10
-19.7211
 20
-0.0645
 30
0.0
 10
-19.7211
 20
-0.0645
 30
0.0
 10
-20.6061
 20
-1.0511
 30
0.0
 10
-20.1762
 20
-1.4116
 30
0.0
 10
-21.2002
 20
-1.3926
 30
0.0
 10
-21.2002
 20
-1.3926
 30
0.0
 10
-21.0738
 20
0.0019
 30
0.0
 10
-21.0738
 20
0.0019
 30
0.0
 10
-21.0738
 20
0.0019
 30
0.0
 10
-21.668
 20
-1.3926
 30
0.0
 10
-21.668
 20
-1.3926
 30
0.0
 10
-21.668
 20
-1.3926
 30
0.0
 10
-22.3001
 20
-1.3926
 30
0.0
 10
-22.3001
 20
-1.3926
 30
0.0
 10
-22.3001
 20
-1.3926
 30
0.0
 10
-22.3001
 20
-1.2503
 30
0.0
 10
-22.3001
 20
-1.2503
 30
0.0
 10
-22.3001
 20
-1.2503
 30
0.0
 10
-21.0485
 20
1.6432
 30
0.0
 10
-21.0485
 20
1.6432
 30
0.0
 10
-21.0485
 20
1.6432
 30
0.0
 10
-20.0119
 20
1.6337
 30
0.0
 10
-20.0119
 20
1.6337
 30
0.0
 10
-20.0119
 20
1.6337
 30
0.0
 10
-20.2521
 20
0.2201
 30
0.0
 10
-20.2521
 20
0.2201
 30
0.0
 10
-19.9613
 20
0.5712
 30
0.0
 10
-19.5694
 20
1.2352
 30
0.0
 10
-19.3419
 20
1.6432
 30
0.0
 10
-19.3419
 20
1.6432
 30
0.0
 10
-18.2421
 20
1.6147
 30
0.0
 10
-18.2421
 20
1.6147
 30
0.0
  0
SPLINE
  5
7E
330
1F
100
AcDbEntity
  8
Layer 1
 62
   240
100
AcDbSpline
210
0.0
220
0.0
230
1.0
 70
    11
 71
     3
 72
    44
 73
    40
 74
     0
 42
0.0000000001
 43
0.0000000001
 40
0.0
 40
0.0
 40
0.0
 40
0.0
 40
0.0769230769230769
 40
0.0769230769230769
 40
0.0769230769230769
 40
0.1538461538461539
 40
0.1538461538461539
 40
0.1538461538461539
 40
0.2307692307692308
 40
0.2307692307692308
 40
0.2307692307692308
 40
0.3076923076923077
 40
0.3076923076923077
 40
0.3076923076923077
 40
0.3846153846153846
 40
0.3846153846153846
 40
0.3846153846153846
 40
0.4615384615384616
 40
0.4615384615384616
 40
0.4615384615384616
 40
0.5384615384615385
 40
0.5384615384615385
 40
0.5384615384615385
 40
0.6153846153846154
 40
0.6153846153846154
 40
0.6153846153846154
 40
0.6923076923076923
 40
0.6923076923076923
 40
0.6923076923076923
 40
0.7692307692307693
 40
0.7692307692307693
 40
0.7692307692307693
 40
0.8461538461538463
 40
0.8461538461538463
 40
0.8461538461538463
 40
0.9230769230769231
 40
0.9230769230769231
 40
0.9230769230769231
 40
1.0
 40
1.0
 40
1.0
 40
1.0
 10
-15.4862
 20
1.6432
 30
0.0
 10
-15.4862
 20
1.6432
 30
0.0
 10
-14.6771
 20
1.6432
 30
0.0
 10
-14.6771
 20
1.6432
 30
0.0
 10
-14.7403
 20
1.3775
 30
0.0
 10
-14.8035
 20
1.2542
 30
0.0
 10
-14.9173
 20
1.0076
 30
0.0
 10
-15.0058
 20
0.8083
 30
0.0
 10
-15.1069
 20
0.6281
 30
0.0
 10
-15.0058
 20
0.4478
 30
0.0
 10
-14.9552
 20
0.5048
 30
0.0
 10
-14.9552
 20
0.5048
 30
0.0
 10
-14.9046
 20
0.5996
 30
0.0
 10
-14.9046
 20
0.5996
 30
0.0
 10
-14.4622
 20
1.6432
 30
0.0
 10
-14.4622
 20
1.6432
 30
0.0
 10
-14.4622
 20
1.6432
 30
0.0
 10
-13.6405
 20
1.6337
 30
0.0
 10
-13.6405
 20
1.6337
 30
0.0
 10
-13.6405
 20
1.6337
 30
0.0
 10
-14.892
 20
-1.3831
 30
0.0
 10
-14.892
 20
-1.3831
 30
0.0
 10
-14.892
 20
-1.3831
 30
0.0
 10
-15.6884
 20
-1.3831
 30
0.0
 10
-15.6884
 20
-1.3831
 30
0.0
 10
-15.6379
 20
-1.146
 30
0.0
 10
-15.4988
 20
-0.8519
 30
0.0
 10
-15.3977
 20
-0.6242
 30
0.0
 10
-15.2965
 20
-0.368
 30
0.0
 10
-15.1195
 20
-0.1214
 30
0.0
 10
-15.246
 20
0.0494
 30
0.0
 10
-15.5873
 20
-0.2542
 30
0.0
 10
-15.6505
 20
-1.2124
 30
0.0
 10
-16.0297
 20
-1.3926
 30
0.0
 10
-16.0297
 20
-1.3926
 30
0.0
 10
-16.7377
 20
-1.3736
 30
0.0
 10
-16.7377
 20
-1.3736
 30
0.0
 10
-16.7377
 20
-1.3736
 30
0.0
 10
-15.4862
 20
1.6432
 30
0.0
 10
-15.4862
 20
1.6432
 30
0.0
  0
SPLINE
  5
7F
330
1F
100
AcDbEntity
  8
Layer 1
 62
   240
100
AcDbSpline
210
0.0
220
0.0
230
1.0
 70
    11
 71
     3
 72
    20
 73
    16
 74
     0
 42
0.0000000001
 43
0.0000000001
 40
0.0
 40
0.0
 40
0.0
 40
0.0
 40
0.2
 40
0.2
 40
0.2
 40
0.4
 40
0.4
 40
0.4
 40
0.6000000000000001
 40
0.6000000000000001
 40
0.6000000000000001
 40
0.8
 40
0.8
 40
0.8
 40
1.0
 40
1.0
 40
1.0
 40
1.0
 10
-18.0904
 20
0.8937
 30
0.0
 10
-17.7617
 20
1.7286
 30
0.0
 10
-17.0032
 20
1.795
 30
0.0
 10
-16.1562
 20
1.5293
 30
0.0
 10
-16.0677
 20
1.0265
 30
0.0
 10
-16.6618
 20
-0.0929
 30
0.0
 10
-16.8767
 20
-0.6337
 30
0.0
 10
-17.0664
 20
-1.0796
 30
0.0
 10
-17.1169
 20
-1.2408
 30
0.0
 10
-17.6352
 20
-1.3642
 30
0.0
 10
-18.0777
 20
-1.4685
 30
0.0
 10
-18.5455
 20
-1.4021
 30
0.0
 10
-18.8236
 20
-1.2313
 30
0.0
 10
-18.8868
 20
-0.757
 30
0.0
 10
-18.2926
 20
0.4099
 30
0.0
 10
-18.0904
 20
0.8937
 30
0.0
  0
SPLINE
  5
80
330
1F
100
AcDbEntity
  8
Layer 1
 62
   240
100
AcDbSpline
210
0.0
220
0.0
230
1.0
 70
    11
 71
     3
 72
    32
 73
    28
 74
     0
 42
0.0000000001
 43
0.0000000001
 40
0.0
 40
0.0
 40
0.0
 40
0.0
 40
0.1111111111111111
 40
0.1111111111111111
 40
0.1111111111111111
 40
0.2222222222222222
 40
0.2222222222222222
 40
0.2222222222222222
 40
0.3333333333333333
 40
0.3333333333333333
 40
0.3333333333333333
 40
0.4444444444444444
 40
0.4444444444444444
 40
0.4444444444444444
 40
0.5555555555555556
 40
0.5555555555555556
 40
0.5555555555555556
 40
0.6666666666666666
 40
0.6666666666666666
 40
0.6666666666666666
 40
0.7777777777777777
 40
0.7777777777777777
 40
0.7777777777777777
 40
0.8888888888888888
 40
0.8888888888888888
 40
0.8888888888888888
 40
1.0
 40
1.0
 40
1.0
 40
1.0
 10
2.2881
 20
-0.5293
 30
0.0
 10
1.6687
 20
-2.0188
 30
0.0
 10
0.4172
 20
-1.2408
 30
0.0
 10
0.3919
 20
-1.2029
 30
0.0
 10
0.3034
 20
-0.8708
 30
0.0
 10
0.5436
 20
-0.5103
 30
0.0
 10
0.6826
 20
-0.1688
 30
0.0
 10
0.6826
 20
-0.1688
 30
0.0
 10
1.4032
 20
-0.1593
 30
0.0
 10
1.4032
 20
-0.1593
 30
0.0
 10
1.3527
 20
-0.3396
 30
0.0
 10
1.3021
 20
-0.4344
 30
0.0
 10
1.2389
 20
-0.5862
 30
0.0
 10
1.1377
 20
-0.8424
 30
0.0
 10
1.163
 20
-0.8614
 30
0.0
 10
1.2136
 20
-0.9562
 30
0.0
 10
1.2136
 20
-0.9562
 30
0.0
 10
1.4411
 20
-0.6052
 30
0.0
 10
1.4411
 20
-0.6052
 30
0.0
 10
1.4791
 20
-0.4914
 30
0.0
 10
1.517
 20
-0.3965
 30
0.0
 10
1.5676
 20
-0.2732
 30
0.0
 10
2.4778
 20
1.9088
 30
0.0
 10
2.1238
 20
1.6432
 30
0.0
 10
3.1604
 20
1.6337
 30
0.0
 10
3.0719
 20
1.1593
 30
0.0
 10
2.5157
 20
0.0019
 30
0.0
 10
2.2881
 20
-0.5293
 30
0.0
  0
SPLINE
  5
81
330
1F
100
AcDbEntity
  8
Layer 1
 62
   240
100
AcDbSpline
210
0.0
220
0.0
230
1.0
 70
    11
 71
     3
 72
    20
 73
    16
 74
     0
 42
0.0000000001
 43
0.0000000001
 40
0.0
 40
0.0
 40
0.0
 40
0.0
 40
0.2
 40
0.2
 40
0.2
 40
0.4
 40
0.4
 40
0.4
 40
0.6000000000000001
 40
0.6000000000000001
 40
0.6000000000000001
 40
0.8
 40
0.8
 40
0.8
 40
1.0
 40
1.0
 40
1.0
 40
1.0
 10
13.0083
 20
-0.9752
 30
0.0
 10
13.0083
 20
-0.9752
 30
0.0
 10
13.6404
 20
-0.9752
 30
0.0
 10
13.6404
 20
-0.9752
 30
0.0
 10
13.4761
 20
-1.5634
 30
0.0
 10
13.5393
 20
-1.3926
 30
0.0
 10
11.9717
 20
-1.3831
 30
0.0
 10
11.9717
 20
-1.3831
 30
0.0
 10
13.2233
 20
1.6432
 30
0.0
 10
13.2233
 20
1.6432
 30
0.0
 10
13.2233
 20
1.6432
 30
0.0
 10
14.045
 20
1.6147
 30
0.0
 10
14.045
 20
1.6147
 30
0.0
 10
14.045
 20
1.6147
 30
0.0
 10
13.0083
 20
-0.9752
 30
0.0
 10
13.0083
 20
-0.9752
 30
0.0
  0
SPLINE
  5
82
330
1F
100
AcDbEntity
  8
Layer 1
 62
   240
100
AcDbSpline
210
0.0
220
0.0
230
1.0
 70
    11
 71
     3
 72
    38
 73
    34
 74
     0
 42
0.0000000001
 43
0.0000000001
 40
0.0
 40
0.0
 40
0.0
 40
0.0
 40
0.0909090909090909
 40
0.0909090909090909
 40
0.0909090909090909
 40
0.1818181818181818
 40
0.1818181818181818
 40
0.1818181818181818
 40
0.2727272727272727
 40
0.2727272727272727
 40
0.2727272727272727
 40
0.3636363636363636
 40
0.3636363636363636
 40
0.3636363636363636
 40
0.4545454545454546
 40
0.4545454545454546
 40
0.4545454545454546
 40
0.5454545454545454
 40
0.5454545454545454
 40
0.5454545454545454
 40
0.6363636363636364
 40
0.6363636363636364
 40
0.6363636363636364
 40
0.7272727272727273
 40
0.7272727272727273
 40
0.7272727272727273
 40
0.8181818181818182
 40
0.8181818181818182
 40
0.8181818181818182
 40
0.9090909090909092
 40
0.9090909090909092
 40
0.9090909090909092
 40
1.0
 40
1.0
 40
1.0
 40
1.0
 10
9.0262
 20
-0.9752
 30
0.0
 10
9.0262
 20
-0.9752
 30
0.0
 10
9.7341
 20
-0.9942
 30
0.0
 10
9.7341
 20
-0.9942
 30
0.0
 10
9.7341
 20
-0.9942
 30
0.0
 10
9.5824
 20
-1.3926
 30
0.0
 10
9.5824
 20
-1.3926
 30
0.0
 10
9.5824
 20
-1.3926
 30
0.0
 10
8.0275
 20
-1.3926
 30
0.0
 10
8.0275
 20
-1.3926
 30
0.0
 10
8.116
 20
-0.9373
 30
0.0
 10
8.4573
 20
-0.2921
 30
0.0
 10
8.6469
 20
0.1727
 30
0.0
 10
9.3802
 20
1.9657
 30
0.0
 10
8.9251
 20
1.6527
 30
0.0
 10
10.8213
 20
1.6147
 30
0.0
 10
10.8213
 20
1.6147
 30
0.0
 10
10.6949
 20
1.2352
 30
0.0
 10
10.6949
 20
1.2352
 30
0.0
 10
10.6949
 20
1.2352
 30
0.0
 10
9.9238
 20
1.2352
 30
0.0
 10
9.9238
 20
1.2352
 30
0.0
 10
9.9238
 20
1.2352
 30
0.0
 10
9.6077
 20
0.4478
 30
0.0
 10
9.6077
 20
0.4478
 30
0.0
 10
9.6077
 20
0.4478
 30
0.0
 10
10.2145
 20
0.4478
 30
0.0
 10
10.2145
 20
0.4478
 30
0.0
 10
10.1766
 20
-0.0929
 30
0.0
 10
9.9743
 20
0.0494
 30
0.0
 10
9.456
 20
0.0494
 30
0.0
 10
9.279
 20
-0.2068
 30
0.0
 10
9.102
 20
-0.6242
 30
0.0
 10
9.0262
 20
-0.9752
 30
0.0
  0
SPLINE
  5
83
330
1F
100
AcDbEntity
  8
Layer 1
 62
   240
100
AcDbSpline
210
0.0
220
0.0
230
1.0
 70
    11
 71
     3
 72
    20
 73
    16
 74
     0
 42
0.0000000001
 43
0.0000000001
 40
0.0
 40
0.0
 40
0.0
 40
0.0
 40
0.2
 40
0.2
 40
0.2
 40
0.4
 40
0.4
 40
0.4
 40
0.6000000000000001
 40
0.6000000000000001
 40
0.6000000000000001
 40
0.8
 40
0.8
 40
0.8
 40
1.0
 40
1.0
 40
1.0
 40
1.0
 10
10.6696
 20
0.1917
 30
0.0
 10
11.3523
 20
1.8803
 30
0.0
 10
11.1247
 20
1.6527
 30
0.0
 10
12.0855
 20
1.6147
 30
0.0
 10
12.0855
 20
1.6147
 30
0.0
 10
11.0489
 20
-0.9752
 30
0.0
 10
11.0489
 20
-0.9752
 30
0.0
 10
11.0489
 20
-0.9752
 30
0.0
 10
11.681
 20
-0.9752
 30
0.0
 10
11.681
 20
-0.9752
 30
0.0
 10
11.5293
 20
-1.5634
 30
0.0
 10
11.6178
 20
-1.3926
 30
0.0
 10
10.0502
 20
-1.3926
 30
0.0
 10
10.126
 20
-0.9752
 30
0.0
 10
10.5053
 20
-0.2352
 30
0.0
 10
10.6696
 20
0.1917
 30
0.0
  0
SPLINE
  5
84
330
1F
100
AcDbEntity
  8
Layer 1
 62
   240
100
AcDbSpline
210
0.0
220
0.0
230
1.0
 70
    11
 71
     3
 72
    38
 73
    34
 74
     0
 42
0.0000000001
 43
0.0000000001
 40
0.0
 40
0.0
 40
0.0
 40
0.0
 40
0.0909090909090909
 40
0.0909090909090909
 40
0.0909090909090909
 40
0.1818181818181818
 40
0.1818181818181818
 40
0.1818181818181818
 40
0.2727272727272727
 40
0.2727272727272727
 40
0.2727272727272727
 40
0.3636363636363636
 40
0.3636363636363636
 40
0.3636363636363636
 40
0.4545454545454546
 40
0.4545454545454546
 40
0.4545454545454546
 40
0.5454545454545454
 40
0.5454545454545454
 40
0.5454545454545454
 40
0.6363636363636364
 40
0.6363636363636364
 40
0.6363636363636364
 40
0.7272727272727273
 40
0.7272727272727273
 40
0.7272727272727273
 40
0.8181818181818182
 40
0.8181818181818182
 40
0.8181818181818182
 40
0.9090909090909092
 40
0.9090909090909092
 40
0.9090909090909092
 40
1.0
 40
1.0
 40
1.0
 40
1.0
 10
4.1212
 20
-0.9847
 30
0.0
 10
4.0074
 20
-1.4875
 30
0.0
 10
4.0833
 20
-1.4401
 30
0.0
 10
2.3893
 20
-1.3736
 30
0.0
 10
2.3893
 20
-1.3736
 30
0.0
 10
3.6535
 20
1.6432
 30
0.0
 10
3.6535
 20
1.6432
 30
0.0
 10
3.6535
 20
1.6432
 30
0.0
 10
5.221
 20
1.6337
 30
0.0
 10
5.221
 20
1.6337
 30
0.0
 10
5.221
 20
1.6337
 30
0.0
 10
5.0946
 20
1.2542
 30
0.0
 10
5.0946
 20
1.2542
 30
0.0
 10
5.0946
 20
1.2542
 30
0.0
 10
4.3108
 20
1.2163
 30
0.0
 10
4.3108
 20
1.2163
 30
0.0
 10
4.3108
 20
1.2163
 30
0.0
 10
4.0074
 20
0.4478
 30
0.0
 10
4.0074
 20
0.4478
 30
0.0
 10
4.0074
 20
0.4478
 30
0.0
 10
4.6269
 20
0.3909
 30
0.0
 10
4.6269
 20
0.3909
 30
0.0
 10
4.6269
 20
0.3909
 30
0.0
 10
4.5257
 20
0.0494
 30
0.0
 10
4.5257
 20
0.0494
 30
0.0
 10
4.5257
 20
0.0494
 30
0.0
 10
3.8178
 20
0.0589
 30
0.0
 10
3.8178
 20
0.0589
 30
0.0
 10
3.8178
 20
0.0589
 30
0.0
 10
3.4385
 20
-0.9752
 30
0.0
 10
3.4385
 20
-0.9752
 30
0.0
 10
3.4385
 20
-0.9752
 30
0.0
 10
4.1212
 20
-0.9847
 30
0.0
 10
4.1212
 20
-0.9847
 30
0.0
  0
SPLINE
  5
85
330
1F
100
AcDbEntity
  8
Layer 1
 62
   240
100
AcDbSpline
210
0.0
220
0.0
230
1.0
 70
    11
 71
     3
 72
    29
 73
    25
 74
     0
 42
0.0000000001
 43
0.0000000001
 40
0.0
 40
0.0
 40
0.0
 40
0.0
 40
0.125
 40
0.125
 40
0.125
 40
0.25
 40
0.25
 40
0.25
 40
0.375
 40
0.375
 40
0.375
 40
0.5
 40
0.5
 40
0.5
 40
0.625
 40
0.625
 40
0.625
 40
0.75
 40
0.75
 40
0.75
 40
0.875
 40
0.875
 40
0.875
 40
1.0
 40
1.0
 40
1.0
 40
1.0
 10
20.606
 20
0.2107
 30
0.0
 10
19.3798
 20
-1.3357
 30
0.0
 10
20.4291
 20
-1.4021
 30
0.0
 10
18.95
 20
-1.3831
 30
0.0
 10
19.0385
 20
-0.9657
 30
0.0
 10
19.3419
 20
-0.5388
 30
0.0
 10
19.4177
 20
-0.1119
 30
0.0
 10
19.5188
 20
0.4004
 30
0.0
 10
19.4683
 20
1.0645
 30
0.0
 10
19.5188
 20
1.6242
 30
0.0
 10
19.5188
 20
1.6242
 30
0.0
 10
20.29
 20
1.6432
 30
0.0
 10
20.29
 20
1.6432
 30
0.0
 10
20.29
 20
1.6432
 30
0.0
 10
20.2521
 20
0.704
 30
0.0
 10
20.2521
 20
0.704
 30
0.0
 10
20.5175
 20
0.9222
 30
0.0
 10
20.8462
 20
1.3491
 30
0.0
 10
21.0359
 20
1.6432
 30
0.0
 10
21.0359
 20
1.6432
 30
0.0
 10
21.7564
 20
1.6432
 30
0.0
 10
21.7564
 20
1.6432
 30
0.0
 10
21.7564
 20
1.6432
 30
0.0
 10
20.606
 20
0.2107
 30
0.0
 10
20.606
 20
0.2107
 30
0.0
  0
SPLINE
  5
86
330
1F
100
AcDbEntity
  8
Layer 1
 62
   240
100
AcDbSpline
210
0.0
220
0.0
230
1.0
 70
    11
 71
     3
 72
    35
 73
    31
 74
     0
 42
0.0000000001
 43
0.0000000001
 40
0.0
 40
0.0
 40
0.0
 40
0.0
 40
0.1
 40
0.1
 40
0.1
 40
0.2
 40
0.2
 40
0.2
 40
0.3
 40
0.3
 40
0.3
 40
0.4
 40
0.4
 40
0.4
 40
0.5
 40
0.5
 40
0.5
 40
0.6000000000000001
 40
0.6000000000000001
 40
0.6000000000000001
 40
0.7000000000000001
 40
0.7000000000000001
 40
0.7000000000000001
 40
0.8
 40
0.8
 40
0.8
 40
0.9
 40
0.9
 40
0.9
 40
1.0
 40
1.0
 40
1.0
 40
1.0
 10
15.6378
 20
-0.9847
 30
0.0
 10
15.5114
 20
-1.497
 30
0.0
 10
15.6125
 20
-1.4306
 30
0.0
 10
13.9312
 20
-1.3831
 30
0.0
 10
14.0197
 20
-0.9657
 30
0.0
 10
14.3863
 20
-0.2447
 30
0.0
 10
14.5759
 20
0.2107
 30
0.0
 10
15.2586
 20
1.9183
 30
0.0
 10
14.8414
 20
1.6621
 30
0.0
 10
16.725
 20
1.6337
 30
0.0
 10
16.5986
 20
1.0265
 30
0.0
 10
16.5101
 20
1.2637
 30
0.0
 10
15.8275
 20
1.2163
 30
0.0
 10
15.8275
 20
1.2163
 30
0.0
 10
15.5367
 20
0.4478
 30
0.0
 10
15.5367
 20
0.4478
 30
0.0
 10
15.5367
 20
0.4478
 30
0.0
 10
16.1561
 20
0.4289
 30
0.0
 10
16.1561
 20
0.4289
 30
0.0
 10
16.1561
 20
0.4289
 30
0.0
 10
16.0424
 20
0.0494
 30
0.0
 10
16.0424
 20
0.0494
 30
0.0
 10
16.0424
 20
0.0494
 30
0.0
 10
15.3597
 20
0.0494
 30
0.0
 10
15.3597
 20
0.0494
 30
0.0
 10
15.208
 20
-0.2352
 30
0.0
 10
14.9678
 20
-0.6811
 30
0.0
 10
14.9552
 20
-0.9752
 30
0.0
 10
14.9552
 20
-0.9752
 30
0.0
 10
15.6378
 20
-0.9847
 30
0.0
 10
15.6378
 20
-0.9847
 30
0.0
  0
SPLINE
  5
87
330
1F
100
AcDbEntity
  8
Layer 1
 62
   240
100
AcDbSpline
210
0.0
220
0.0
230
1.0
 70
    11
 71
     3
 72
    35
 73
    31
 74
     0
 42
0.0000000001
 43
0.0000000001
 40
0.0
 40
0.0
 40
0.0
 40
0.0
 40
0.1
 40
0.1
 40
0.1
 40
0.2
 40
0.2
 40
0.2
 40
0.3
 40
0.3
 40
0.3
 40
0.4
 40
0.4
 40
0.4
 40
0.5
 40
0.5
 40
0.5
 40
0.6000000000000001
 40
0.6000000000000001
 40
0.6000000000000001
 40
0.7000000000000001
 40
0.7000000000000001
 40
0.7000000000000001
 40
0.8
 40
0.8
 40
0.8
 40
0.9
 40
0.9
 40
0.9
 40
1.0
 40
1.0
 40
1.0
 40
1.0
 10
17.9892
 20
1.6432
 30
0.0
 10
19.5062
 20
1.6432
 30
0.0
 10
18.7098
 20
0.4953
 30
0.0
 10
18.0903
 20
0.2866
 30
0.0
 10
18.419
 20
0.0209
 30
0.0
 10
18.3305
 20
-0.1024
 30
0.0
 10
18.1409
 20
-0.5388
 30
0.0
 10
17.6984
 20
-1.497
 30
0.0
 10
18.2547
 20
-1.4021
 30
0.0
 10
17.1043
 20
-1.4021
 30
0.0
 10
17.079
 20
-0.8139
 30
0.0
 10
17.4456
 20
-0.425
 30
0.0
 10
17.4709
 20
-0.1309
 30
0.0
 10
17.4835
 20
0.0304
 30
0.0
 10
17.4835
 20
-0.0645
 30
0.0
 10
17.4456
 20
0.0304
 30
0.0
 10
17.4203
 20
0.0209
 30
0.0
 10
17.4077
 20
0.0019
 30
0.0
 10
17.395
 20
-0.0075
 30
0.0
 10
17.395
 20
-0.0075
 30
0.0
 10
17.2813
 20
-0.1404
 30
0.0
 10
17.2813
 20
-0.1404
 30
0.0
 10
16.6492
 20
-1.1555
 30
0.0
 10
17.3697
 20
-1.4021
 30
0.0
 10
15.9665
 20
-1.3926
 30
0.0
 10
16.0297
 20
-1.0037
 30
0.0
 10
16.6997
 20
0.4478
 30
0.0
 10
16.9273
 20
0.9886
 30
0.0
 10
17.2054
 20
1.7191
 30
0.0
 10
17.0158
 20
1.6432
 30
0.0
 10
17.9892
 20
1.6432
 30
0.0
  0
SPLINE
  5
88
330
1F
100
AcDbEntity
  8
Layer 1
 62
   240
100
AcDbSpline
210
0.0
220
0.0
230
1.0
 70
    11
 71
     3
 72
    50
 73
    46
 74
     0
 42
0.0000000001
 43
0.0000000001
 40
0.0
 40
0.0
 40
0.0
 40
0.0
 40
0.0666666666666667
 40
0.0666666666666667
 40
0.0666666666666667
 40
0.1333333333333333
 40
0.1333333333333333
 40
0.1333333333333333
 40
0.2
 40
0.2
 40
0.2
 40
0.2666666666666667
 40
0.2666666666666667
 40
0.2666666666666667
 40
0.3333333333333333
 40
0.3333333333333333
 40
0.3333333333333333
 40
0.4
 40
0.4
 40
0.4
 40
0.4666666666666667
 40
0.4666666666666667
 40
0.4666666666666667
 40
0.5333333333333333
 40
0.5333333333333333
 40
0.5333333333333333
 40
0.6
 40
0.6
 40
0.6
 40
0.6666666666666666
 40
0.6666666666666666
 40
0.6666666666666666
 40
0.7333333333333333
 40
0.7333333333333333
 40
0.7333333333333333
 40
0.8
 40
0.8
 40
0.8
 40
0.8666666666666667
 40
0.8666666666666667
 40
0.8666666666666667
 40
0.9333333333333333
 40
0.9333333333333333
 40
0.9333333333333333
 40
1.0
 40
1.0
 40
1.0
 40
1.0
 10
8.1792
 20
1.6432
 30
0.0
 10
8.1792
 20
1.6432
 30
0.0
 10
8.8619
 20
1.6242
 30
0.0
 10
8.8619
 20
1.6242
 30
0.0
 10
8.8619
 20
1.6242
 30
0.0
 10
7.1426
 20
-1.3831
 30
0.0
 10
7.1426
 20
-1.3831
 30
0.0
 10
7.1426
 20
-1.3831
 30
0.0
 10
6.1692
 20
-1.3736
 30
0.0
 10
6.1692
 20
-1.3736
 30
0.0
 10
6.1692
 20
-1.3736
 30
0.0
 10
6.4726
 20
-0.0265
 30
0.0
 10
6.4726
 20
-0.0265
 30
0.0
 10
6.4599
 20
-0.036
 30
0.0
 10
6.4346
 20
-0.0645
 30
0.0
 10
6.4346
 20
-0.0739
 30
0.0
 10
6.4346
 20
-0.0739
 30
0.0
 10
6.0175
 20
-0.7191
 30
0.0
 10
6.0175
 20
-0.7191
 30
0.0
 10
5.8784
 20
-0.9467
 30
0.0
 10
5.7393
 20
-1.2029
 30
0.0
 10
5.6256
 20
-1.3926
 30
0.0
 10
5.6256
 20
-1.3926
 30
0.0
 10
4.7912
 20
-1.3831
 30
0.0
 10
4.7912
 20
-1.3831
 30
0.0
 10
4.7912
 20
-1.3831
 30
0.0
 10
5.6003
 20
1.6432
 30
0.0
 10
5.6003
 20
1.6432
 30
0.0
 10
5.6003
 20
1.6432
 30
0.0
 10
6.3209
 20
1.6337
 30
0.0
 10
6.3209
 20
1.6337
 30
0.0
 10
6.3209
 20
1.6337
 30
0.0
 10
6.0301
 20
0.4194
 30
0.0
 10
6.0301
 20
0.4194
 30
0.0
 10
6.1818
 20
0.7514
 30
0.0
 10
6.5863
 20
1.2732
 30
0.0
 10
6.7886
 20
1.6337
 30
0.0
 10
6.7886
 20
1.6337
 30
0.0
 10
7.7115
 20
1.6242
 30
0.0
 10
7.7115
 20
1.6242
 30
0.0
 10
7.7115
 20
1.6242
 30
0.0
 10
7.446
 20
0.4289
 30
0.0
 10
7.446
 20
0.4289
 30
0.0
 10
7.446
 20
0.4289
 30
0.0
 10
8.1792
 20
1.6432
 30
0.0
 10
8.1792
 20
1.6432
 30
0.0
  0
SPLINE
  5
89
330
1F
100
AcDbEntity
  8
Layer 1
 62
   240
100
AcDbSpline
210
0.0
220
0.0
230
1.0
 70
    11
 71
     3
 72
    14
 73
    10
 74
     0
 42
0.0000000001
 43
0.0000000001
 40
0.0
 40
0.0
 40
0.0
 40
0.0
 40
0.3333333333333333
 40
0.3333333333333333
 40
0.3333333333333333
 40
0.6666666666666666
 40
0.6666666666666666
 40
0.6666666666666666
 40
1.0
 40
1.0
 40
1.0
 40
1.0
 10
-10.6949
 20
-0.9847
 30
0.0
 10
-10.7581
 20
-0.8708
 30
0.0
 10
-10.7961
 20
-0.9657
 30
0.0
 10
-10.7708
 20
-0.7285
 30
0.0
 10
-10.7708
 20
-0.7285
 30
0.0
 10
-10.48
 20
-0.1688
 30
0.0
 10
-10.48
 20
-0.1688
 30
0.0
 10
-10.4674
 20
-0.3301
 30
0.0
 10
-10.2651
 20
-0.5862
 30
0.0
 10
-10.6949
 20
-0.9847
 30
0.0
  0
SPLINE
  5
8A
330
1F
100
AcDbEntity
  8
Layer 1
 62
   240
100
AcDbSpline
210
0.0
220
0.0
230
1.0
 70
    11
 71
     3
 72
    14
 73
    10
 74
     0
 42
0.0000000001
 43
0.0000000001
 40
0.0
 40
0.0
 40
0.0
 40
0.0
 40
0.3333333333333333
 40
0.3333333333333333
 40
0.3333333333333333
 40
0.6666666666666666
 40
0.6666666666666666
 40
0.6666666666666666
 40
1.0
 40
1.0
 40
1.0
 40
1.0
 10
-4.2603
 20
-0.9467
 30
0.0
 10
-4.1844
 20
-0.6716
 30
0.0
 10
-4.1212
 20
-0.5009
 30
0.0
 10
-3.9442
 20
-0.2921
 30
0.0
 10
-3.8557
 20
-0.4914
 30
0.0
 10
-3.8178
 20
-0.406
 30
0.0
 10
-3.9569
 20
-0.7001
 30
0.0
 10
-4.0454
 20
-0.9183
 30
0.0
 10
-4.0201
 20
-0.9088
 30
0.0
 10
-4.2603
 20
-0.9467
 30
0.0
  0
SPLINE
  5
8B
330
1F
100
AcDbEntity
  8
Layer 1
 62
   240
100
AcDbSpline
210
0.0
220
0.0
230
1.0
 70
    11
 71
     3
 72
    17
 73
    13
 74
     0
 42
0.0000000001
 43
0.0000000001
 40
0.0
 40
0.0
 40
0.0
 40
0.0
 40
0.25
 40
0.25
 40
0.25
 40
0.5
 40
0.5
 40
0.5
 40
0.75
 40
0.75
 40
0.75
 40
1.0
 40
1.0
 40
1.0
 40
1.0
 10
-17.9134
 20
-0.9657
 30
0.0
 10
-17.9766
 20
-0.8424
 30
0.0
 10
-18.1915
 20
-1.2219
 30
0.0
 10
-17.8249
 20
-0.406
 30
0.0
 10
-17.6226
 20
0.0589
 30
0.0
 10
-17.3318
 20
0.9981
 30
0.0
 10
-17.0537
 20
1.2163
 30
0.0
 10
-16.9147
 20
0.9411
 30
0.0
 10
-17.3951
 20
0.0494
 30
0.0
 10
-17.61
 20
-0.4534
 30
0.0
 10
-17.8375
 20
-1.0037
 30
0.0
 10
-17.6985
 20
-0.8139
 30
0.0
 10
-17.9134
 20
-0.9657
 30
0.0
  0
SPLINE
  5
8C
330
1F
100
AcDbEntity
  8
Layer 1
 62
   240
100
AcDbSpline
210
0.0
220
0.0
230
1.0
 70
    11
 71
     3
 72
    17
 73
    13
 74
     0
 42
0.0000000001
 43
0.0000000001
 40
0.0
 40
0.0
 40
0.0
 40
0.0
 40
0.25
 40
0.25
 40
0.25
 40
0.5
 40
0.5
 40
0.5
 40
0.75
 40
0.75
 40
0.75
 40
1.0
 40
1.0
 40
1.0
 40
1.0
 10
17.5594
 20
0.4858
 30
0.0
 10
17.6479
 20
0.7704
 30
0.0
 10
17.7111
 20
1.0076
 30
0.0
 10
17.9133
 20
1.2163
 30
0.0
 10
17.9639
 20
1.1119
 30
0.0
 10
17.9892
 20
1.1878
 30
0.0
 10
17.9639
 20
0.9791
 30
0.0
 10
17.9639
 20
0.9696
 30
0.0
 10
17.8881
 20
0.7514
 30
0.0
 10
17.8754
 20
0.7419
 30
0.0
 10
17.7743
 20
0.5332
 30
0.0
 10
17.7743
 20
0.5048
 30
0.0
 10
17.5594
 20
0.4858
 30
0.0
  0
SPLINE
  5
8D
330
1F
100
AcDbEntity
  8
Layer 1
 62
   240
100
AcDbSpline
210
0.0
220
0.0
230
1.0
 70
    11
 71
     3
 72
    26
 73
    22
 74
     0
 42
0.0000000001
 43
0.0000000001
 40
0.0
 40
0.0
 40
0.0
 40
0.0
 40
0.1428571428571428
 40
0.1428571428571428
 40
0.1428571428571428
 40
0.2857142857142857
 40
0.2857142857142857
 40
0.2857142857142857
 40
0.4285714285714285
 40
0.4285714285714285
 40
0.4285714285714285
 40
0.5714285714285714
 40
0.5714285714285714
 40
0.5714285714285714
 40
0.7142857142857142
 40
0.7142857142857142
 40
0.7142857142857142
 40
0.8571428571428571
 40
0.8571428571428571
 40
0.8571428571428571
 40
1.0
 40
1.0
 40
1.0
 40
1.0
 10
-16.434
 20
-4.1137
 30
0.0
 10
-16.434
 20
-4.0547
 30
0.0
 10
-16.3859
 20
-4.0065
 30
0.0
 10
-16.3269
 20
-4.0065
 30
0.0
 10
-16.3269
 20
-4.0065
 30
0.0
 10
-15.605
 20
-4.0065
 30
0.0
 10
-15.605
 20
-4.0065
 30
0.0
 10
-15.546
 20
-4.0065
 30
0.0
 10
-15.4979
 20
-4.0547
 30
0.0
 10
-15.4979
 20
-4.1136
 30
0.0
 10
-15.4979
 20
-4.1136
 30
0.0
 10
-15.4979
 20
-4.1137
 30
0.0
 10
-15.4979
 20
-4.1137
 30
0.0
 10
-15.4979
 20
-4.1733
 30
0.0
 10
-15.5459
 20
-4.2208
 30
0.0
 10
-15.605
 20
-4.2208
 30
0.0
 10
-15.605
 20
-4.2208
 30
0.0
 10
-16.3269
 20
-4.2208
 30
0.0
 10
-16.3269
 20
-4.2208
 30
0.0
 10
-16.3862
 20
-4.2208
 30
0.0
 10
-16.434
 20
-4.1725
 30
0.0
 10
-16.434
 20
-4.1137
 30
0.0
  0
SPLINE
  5
8E
330
1F
100
AcDbEntity
  8
Layer 1
 62
   240
100
AcDbSpline
210
0.0
220
0.0
230
1.0
 70
    11
 71
     3
 72
    23
 73
    19
 74
     0
 42
0.0000000001
 43
0.0000000001
 40
0.0
 40
0.0
 40
0.0
 40
0.0
 40
0.1666666666666667
 40
0.1666666666666667
 40
0.1666666666666667
 40
0.3333333333333333
 40
0.3333333333333333
 40
0.3333333333333333
 40
0.5
 40
0.5
 40
0.5
 40
0.6666666666666666
 40
0.6666666666666666
 40
0.6666666666666666
 40
0.8333333333333333
 40
0.8333333333333333
 40
0.8333333333333333
 40
1.0
 40
1.0
 40
1.0
 40
1.0
 10
-10.9098
 20
-8.0809
 30
0.0
 10
-11.188
 20
-7.986
 30
0.0
 10
-11.3144
 20
-7.8722
 30
0.0
 10
-11.0236
 20
-7.3599
 30
0.0
 10
-10.8972
 20
-7.1227
 30
0.0
 10
-10.7581
 20
-6.9519
 30
0.0
 10
-10.5938
 20
-6.7717
 30
0.0
 10
-10.4295
 20
-6.876
 30
0.0
 10
-9.3423
 20
-7.7488
 30
0.0
 10
-9.9996
 20
-8.0714
 30
0.0
 10
-10.1261
 20
-7.8532
 30
0.0
 10
-10.0502
 20
-7.8532
 30
0.0
 10
-10.1134
 20
-7.5496
 30
0.0
 10
-10.1134
 20
-7.5496
 30
0.0
 10
-10.8719
 20
-7.5781
 30
0.0
 10
-10.8719
 20
-7.5781
 30
0.0
 10
-10.8719
 20
-7.5781
 30
0.0
 10
-10.9098
 20
-8.0809
 30
0.0
 10
-10.9098
 20
-8.0809
 30
0.0
  0
SPLINE
  5
8F
330
1F
100
AcDbEntity
  8
Layer 1
 62
   240
100
AcDbSpline
210
0.0
220
0.0
230
1.0
 70
    11
 71
     3
 72
    20
 73
    16
 74
     0
 42
0.0000000001
 43
0.0000000001
 40
0.0
 40
0.0
 40
0.0
 40
0.0
 40
0.2
 40
0.2
 40
0.2
 40
0.4
 40
0.4
 40
0.4
 40
0.6000000000000001
 40
0.6000000000000001
 40
0.6000000000000001
 40
0.8
 40
0.8
 40
0.8
 40
1.0
 40
1.0
 40
1.0
 40
1.0
 10
-10.8593
 20
-5.6807
 30
0.0
 10
-11.327
 20
-6.0791
 30
0.0
 10
-11.0742
 20
-6.193
 30
0.0
 10
-11.3776
 20
-6.6009
 30
0.0
 10
-11.6051
 20
-6.8855
 30
0.0
 10
-11.858
 20
-7.1606
 30
0.0
 10
-11.9212
 20
-7.6255
 30
0.0
 10
-12.174
 20
-9.2288
 30
0.0
 10
-10.5812
 20
-8.7165
 30
0.0
 10
-10.2525
 20
-8.7924
 30
0.0
 10
-9.2032
 20
-9.0106
 30
0.0
 10
-8.7228
 20
-8.1473
 30
0.0
 10
-9.1906
 20
-7.265
 30
0.0
 10
-9.4308
 20
-6.8001
 30
0.0
 10
-10.341
 20
-5.785
 30
0.0
 10
-10.8593
 20
-5.6807
 30
0.0
  0
SPLINE
  5
90
330
1F
100
AcDbEntity
  8
Layer 1
 62
   240
100
AcDbSpline
210
0.0
220
0.0
230
1.0
 70
    11
 71
     3
 72
    23
 73
    19
 74
     0
 42
0.0000000001
 43
0.0000000001
 40
0.0
 40
0.0
 40
0.0
 40
0.0
 40
0.1666666666666667
 40
0.1666666666666667
 40
0.1666666666666667
 40
0.3333333333333333
 40
0.3333333333333333
 40
0.3333333333333333
 40
0.5
 40
0.5
 40
0.5
 40
0.6666666666666666
 40
0.6666666666666666
 40
0.6666666666666666
 40
0.8333333333333333
 40
0.8333333333333333
 40
0.8333333333333333
 40
1.0
 40
1.0
 40
1.0
 40
1.0
 10
-0.2528
 20
-8.0809
 30
0.0
 10
-0.4678
 20
-8.0145
 30
0.0
 10
-0.5057
 20
-8.0524
 30
0.0
 10
-0.5057
 20
-7.7678
 30
0.0
 10
-0.5057
 20
-7.4737
 30
0.0
 10
-0.1138
 20
-6.9519
 30
0.0
 10
0.0758
 20
-6.7717
 30
0.0
 10
0.2275
 20
-6.876
 30
0.0
 10
1.3147
 20
-7.7488
 30
0.0
 10
0.67
 20
-8.0714
 30
0.0
 10
0.5436
 20
-7.8532
 30
0.0
 10
0.6194
 20
-7.8532
 30
0.0
 10
0.5436
 20
-7.5496
 30
0.0
 10
0.5436
 20
-7.5496
 30
0.0
 10
-0.2023
 20
-7.5781
 30
0.0
 10
-0.2023
 20
-7.5781
 30
0.0
 10
-0.2023
 20
-7.5781
 30
0.0
 10
-0.2528
 20
-8.0809
 30
0.0
 10
-0.2528
 20
-8.0809
 30
0.0
  0
SPLINE
  5
91
330
1F
100
AcDbEntity
  8
Layer 1
 62
   240
100
AcDbSpline
210
0.0
220
0.0
230
1.0
 70
    11
 71
     3
 72
    20
 73
    16
 74
     0
 42
0.0000000001
 43
0.0000000001
 40
0.0
 40
0.0
 40
0.0
 40
0.0
 40
0.2
 40
0.2
 40
0.2
 40
0.4
 40
0.4
 40
0.4
 40
0.6000000000000001
 40
0.6000000000000001
 40
0.6000000000000001
 40
0.8
 40
0.8
 40
0.8
 40
1.0
 40
1.0
 40
1.0
 40
1.0
 10
-0.2023
 20
-5.6807
 30
0.0
 10
-0.67
 20
-6.0791
 30
0.0
 10
-0.4172
 20
-6.193
 30
0.0
 10
-0.7206
 20
-6.6009
 30
0.0
 10
-1.2389
 20
-7.265
 30
0.0
 10
-1.6434
 20
-8.2801
 30
0.0
 10
-0.8597
 20
-8.726
 30
0.0
 10
-0.3793
 20
-9.0011
 30
0.0
 10
-0.2655
 20
-8.6501
 30
0.0
 10
0.4045
 20
-8.7924
 30
0.0
 10
1.4538
 20
-9.0106
 30
0.0
 10
1.9342
 20
-8.1473
 30
0.0
 10
1.4791
 20
-7.265
 30
0.0
 10
1.2262
 20
-6.8001
 30
0.0
 10
0.316
 20
-5.785
 30
0.0
 10
-0.2023
 20
-5.6807
 30
0.0
  0
SPLINE
  5
92
330
1F
100
AcDbEntity
  8
Layer 1
 62
   240
100
AcDbSpline
210
0.0
220
0.0
230
1.0
 70
    11
 71
     3
 72
    38
 73
    34
 74
     0
 42
0.0000000001
 43
0.0000000001
 40
0.0
 40
0.0
 40
0.0
 40
0.0
 40
0.0909090909090909
 40
0.0909090909090909
 40
0.0909090909090909
 40
0.1818181818181818
 40
0.1818181818181818
 40
0.1818181818181818
 40
0.2727272727272727
 40
0.2727272727272727
 40
0.2727272727272727
 40
0.3636363636363636
 40
0.3636363636363636
 40
0.3636363636363636
 40
0.4545454545454546
 40
0.4545454545454546
 40
0.4545454545454546
 40
0.5454545454545454
 40
0.5454545454545454
 40
0.5454545454545454
 40
0.6363636363636364
 40
0.6363636363636364
 40
0.6363636363636364
 40
0.7272727272727273
 40
0.7272727272727273
 40
0.7272727272727273
 40
0.8181818181818182
 40
0.8181818181818182
 40
0.8181818181818182
 40
0.9090909090909092
 40
0.9090909090909092
 40
0.9090909090909092
 40
1.0
 40
1.0
 40
1.0
 40
1.0
 10
-2.3261
 20
-6.5345
 30
0.0
 10
-2.3261
 20
-6.5345
 30
0.0
 10
-3.0972
 20
-6.7242
 30
0.0
 10
-3.0972
 20
-6.7242
 30
0.0
 10
-3.1352
 20
-5.9179
 30
0.0
 10
-2.4272
 20
-6.4112
 30
0.0
 10
-2.364
 20
-6.3827
 30
0.0
 10
-2.3387
 20
-6.2784
 30
0.0
 10
-2.2629
 20
-6.2119
 30
0.0
 10
-2.225
 20
-5.8799
 30
0.0
 10
-3.0972
 20
-5.3486
 30
0.0
 10
-3.5144
 20
-5.8989
 30
0.0
 10
-3.7925
 20
-6.193
 30
0.0
 10
-3.7925
 20
-6.193
 30
0.0
 10
-3.9316
 20
-5.7186
 30
0.0
 10
-3.9316
 20
-5.7186
 30
0.0
 10
-4.2224
 20
-5.7376
 30
0.0
 10
-4.4499
 20
-5.8135
 30
0.0
 10
-4.6395
 20
-5.8989
 30
0.0
 10
-4.3488
 20
-7.6634
 30
0.0
 10
-4.412
 20
-6.7622
 30
0.0
 10
-4.412
 20
-8.7165
 30
0.0
 10
-4.412
 20
-8.7165
 30
0.0
 10
-3.6535
 20
-8.726
 30
0.0
 10
-3.6535
 20
-8.726
 30
0.0
 10
-3.6535
 20
-8.726
 30
0.0
 10
-3.6788
 20
-7.3409
 30
0.0
 10
-3.6788
 20
-7.3409
 30
0.0
 10
-2.8318
 20
-7.4358
 30
0.0
 10
-2.7433
 20
-7.3883
 30
0.0
 10
-2.0859
 20
-7.1417
 30
0.0
 10
-2.1491
 20
-6.7906
 30
0.0
 10
-2.2882
 20
-6.7053
 30
0.0
 10
-2.3261
 20
-6.5345
 30
0.0
  0
SPLINE
  5
93
330
1F
100
AcDbEntity
  8
Layer 1
 62
   240
100
AcDbSpline
210
0.0
220
0.0
230
1.0
 70
    11
 71
     3
 72
    32
 73
    28
 74
     0
 42
0.0000000001
 43
0.0000000001
 40
0.0
 40
0.0
 40
0.0
 40
0.0
 40
0.1111111111111111
 40
0.1111111111111111
 40
0.1111111111111111
 40
0.2222222222222222
 40
0.2222222222222222
 40
0.2222222222222222
 40
0.3333333333333333
 40
0.3333333333333333
 40
0.3333333333333333
 40
0.4444444444444444
 40
0.4444444444444444
 40
0.4444444444444444
 40
0.5555555555555556
 40
0.5555555555555556
 40
0.5555555555555556
 40
0.6666666666666666
 40
0.6666666666666666
 40
0.6666666666666666
 40
0.7777777777777777
 40
0.7777777777777777
 40
0.7777777777777777
 40
0.8888888888888888
 40
0.8888888888888888
 40
0.8888888888888888
 40
1.0
 40
1.0
 40
1.0
 40
1.0
 10
14.0576
 20
-7.5211
 30
0.0
 10
13.868
 20
-7.7678
 30
0.0
 10
13.5014
 20
-8.1852
 30
0.0
 10
13.4382
 20
-8.5647
 30
0.0
 10
13.7163
 20
-8.669
 30
0.0
 10
13.7542
 20
-8.7924
 30
0.0
 10
14.0703
 20
-8.8398
 30
0.0
 10
14.2978
 20
-8.5932
 30
0.0
 10
14.5127
 20
-8.1662
 30
0.0
 10
14.7403
 20
-7.8722
 30
0.0
 10
14.892
 20
-7.6824
 30
0.0
 10
15.3976
 20
-7.1511
 30
0.0
 10
15.4735
 20
-6.9709
 30
0.0
 10
14.5759
 20
-6.0317
 30
0.0
 10
14.2978
 20
-7.4168
 30
0.0
 10
14.2093
 20
-6.4776
 30
0.0
 10
14.538
 20
-6.3827
 30
0.0
 10
14.4495
 20
-6.3827
 30
0.0
 10
14.8414
 20
-6.4112
 30
0.0
 10
14.8414
 20
-6.4112
 30
0.0
 10
15.0563
 20
-5.8704
 30
0.0
 10
15.0563
 20
-5.8704
 30
0.0
 10
13.3497
 20
-5.3866
 30
0.0
 10
13.2865
 20
-6.525
 30
0.0
 10
13.4887
 20
-7.0088
 30
0.0
 10
13.6025
 20
-7.2935
 30
0.0
 10
13.8301
 20
-7.3314
 30
0.0
 10
14.0576
 20
-7.5211
 30
0.0
  0
SPLINE
  5
94
330
1F
100
AcDbEntity
  8
Layer 1
 62
   240
100
AcDbSpline
210
0.0
220
0.0
230
1.0
 70
    11
 71
     3
 72
    32
 73
    28
 74
     0
 42
0.0000000001
 43
0.0000000001
 40
0.0
 40
0.0
 40
0.0
 40
0.0
 40
0.1111111111111111
 40
0.1111111111111111
 40
0.1111111111111111
 40
0.2222222222222222
 40
0.2222222222222222
 40
0.2222222222222222
 40
0.3333333333333333
 40
0.3333333333333333
 40
0.3333333333333333
 40
0.4444444444444444
 40
0.4444444444444444
 40
0.4444444444444444
 40
0.5555555555555556
 40
0.5555555555555556
 40
0.5555555555555556
 40
0.6666666666666666
 40
0.6666666666666666
 40
0.6666666666666666
 40
0.7777777777777777
 40
0.7777777777777777
 40
0.7777777777777777
 40
0.8888888888888888
 40
0.8888888888888888
 40
0.8888888888888888
 40
1.0
 40
1.0
 40
1.0
 40
1.0
 10
10.5306
 20
-7.5211
 30
0.0
 10
10.3409
 20
-7.7678
 30
0.0
 10
9.9743
 20
-8.1852
 30
0.0
 10
9.9111
 20
-8.5647
 30
0.0
 10
10.1892
 20
-8.669
 30
0.0
 10
10.2272
 20
-8.7924
 30
0.0
 10
10.5432
 20
-8.8398
 30
0.0
 10
10.7834
 20
-8.5837
 30
0.0
 10
10.9857
 20
-8.1662
 30
0.0
 10
11.2132
 20
-7.8722
 30
0.0
 10
11.3649
 20
-7.6824
 30
0.0
 10
11.8706
 20
-7.1511
 30
0.0
 10
11.9464
 20
-6.9709
 30
0.0
 10
11.0489
 20
-6.0317
 30
0.0
 10
10.7708
 20
-7.4168
 30
0.0
 10
10.6823
 20
-6.4776
 30
0.0
 10
11.0109
 20
-6.3827
 30
0.0
 10
10.9351
 20
-6.4207
 30
0.0
 10
11.327
 20
-6.4491
 30
0.0
 10
11.327
 20
-6.4491
 30
0.0
 10
11.5293
 20
-5.8704
 30
0.0
 10
11.5293
 20
-5.8704
 30
0.0
 10
9.8226
 20
-5.3961
 30
0.0
 10
9.7594
 20
-6.525
 30
0.0
 10
9.9617
 20
-7.0088
 30
0.0
 10
10.0755
 20
-7.2935
 30
0.0
 10
10.2904
 20
-7.3314
 30
0.0
 10
10.5306
 20
-7.5211
 30
0.0
  0
SPLINE
  5
95
330
1F
100
AcDbEntity
  8
Layer 1
 62
   240
100
AcDbSpline
210
0.0
220
0.0
230
1.0
 70
    11
 71
     3
 72
    35
 73
    31
 74
     0
 42
0.0000000001
 43
0.0000000001
 40
0.0
 40
0.0
 40
0.0
 40
0.0
 40
0.1
 40
0.1
 40
0.1
 40
0.2
 40
0.2
 40
0.2
 40
0.3
 40
0.3
 40
0.3
 40
0.4
 40
0.4
 40
0.4
 40
0.5
 40
0.5
 40
0.5
 40
0.6000000000000001
 40
0.6000000000000001
 40
0.6000000000000001
 40
0.7000000000000001
 40
0.7000000000000001
 40
0.7000000000000001
 40
0.8
 40
0.8
 40
0.8
 40
0.9
 40
0.9
 40
0.9
 40
1.0
 40
1.0
 40
1.0
 40
1.0
 10
-7.9517
 20
-5.8799
 30
0.0
 10
-7.9137
 20
-6.3068
 30
0.0
 10
-7.7747
 20
-6.6294
 30
0.0
 10
-7.762
 20
-7.1322
 30
0.0
 10
-7.7368
 20
-7.654
 30
0.0
 10
-7.7494
 20
-8.2042
 30
0.0
 10
-7.7494
 20
-8.726
 30
0.0
 10
-7.7494
 20
-8.726
 30
0.0
 10
-6.9783
 20
-8.726
 30
0.0
 10
-6.9783
 20
-8.726
 30
0.0
 10
-6.9783
 20
-8.726
 30
0.0
 10
-6.9783
 20
-7.3219
 30
0.0
 10
-6.9783
 20
-7.3219
 30
0.0
 10
-5.5497
 20
-7.3029
 30
0.0
 10
-5.9543
 20
-6.0317
 30
0.0
 10
-6.1565
 20
-5.7281
 30
0.0
 10
-6.1565
 20
-5.7281
 30
0.0
 10
-6.776
 20
-5.7756
 30
0.0
 10
-6.776
 20
-5.7756
 30
0.0
 10
-6.8139
 20
-6.1266
 30
0.0
 10
-6.7507
 20
-6.3353
 30
0.0
 10
-6.8013
 20
-6.5914
 30
0.0
 10
-6.8266
 20
-6.6958
 30
0.0
 10
-6.9024
 20
-6.7148
 30
0.0
 10
-6.9403
 20
-6.6863
 30
0.0
 10
-7.269
 20
-6.506
 30
0.0
 10
-6.9909
 20
-6.2309
 30
0.0
 10
-7.2564
 20
-5.7376
 30
0.0
 10
-7.2564
 20
-5.7376
 30
0.0
 10
-7.9517
 20
-5.8799
 30
0.0
 10
-7.9517
 20
-5.8799
 30
0.0
  0
SPLINE
  5
96
330
1F
100
AcDbEntity
  8
Layer 1
 62
   240
100
AcDbSpline
210
0.0
220
0.0
230
1.0
 70
    11
 71
     3
 72
    17
 73
    13
 74
     0
 42
0.0000000001
 43
0.0000000001
 40
0.0
 40
0.0
 40
0.0
 40
0.0
 40
0.25
 40
0.25
 40
0.25
 40
0.5
 40
0.5
 40
0.5
 40
0.75
 40
0.75
 40
0.75
 40
1.0
 40
1.0
 40
1.0
 40
1.0
 10
6.8139
 20
-5.9558
 30
0.0
 10
7.1679
 20
-7.0658
 30
0.0
 10
6.8897
 20
-7.7773
 30
0.0
 10
7.0794
 20
-8.7165
 30
0.0
 10
7.0794
 20
-8.7165
 30
0.0
 10
7.7494
 20
-8.726
 30
0.0
 10
7.7494
 20
-8.726
 30
0.0
 10
7.939
 20
-7.986
 30
0.0
 10
7.7367
 20
-6.4112
 30
0.0
 10
7.5598
 20
-5.7186
 30
0.0
 10
7.2437
 20
-5.7376
 30
0.0
 10
7.0288
 20
-5.804
 30
0.0
 10
6.8139
 20
-5.9558
 30
0.0
  0
SPLINE
  5
97
330
1F
100
AcDbEntity
  8
Layer 1
 62
   240
100
AcDbSpline
210
0.0
220
0.0
230
1.0
 70
    11
 71
     3
 72
    17
 73
    13
 74
     0
 42
0.0000000001
 43
0.0000000001
 40
0.0
 40
0.0
 40
0.0
 40
0.0
 40
0.25
 40
0.25
 40
0.25
 40
0.5
 40
0.5
 40
0.5
 40
0.75
 40
0.75
 40
0.75
 40
1.0
 40
1.0
 40
1.0
 40
1.0
 10
3.2868
 20
-5.9558
 30
0.0
 10
3.6408
 20
-7.0658
 30
0.0
 10
3.3627
 20
-7.7678
 30
0.0
 10
3.5523
 20
-8.7165
 30
0.0
 10
3.5523
 20
-8.7165
 30
0.0
 10
4.2223
 20
-8.726
 30
0.0
 10
4.2223
 20
-8.726
 30
0.0
 10
4.412
 20
-7.986
 30
0.0
 10
4.2097
 20
-6.4112
 30
0.0
 10
4.0327
 20
-5.7186
 30
0.0
 10
3.7167
 20
-5.7376
 30
0.0
 10
3.5018
 20
-5.804
 30
0.0
 10
3.2868
 20
-5.9558
 30
0.0
  0
SPLINE
  5
98
330
1F
100
AcDbEntity
  8
Layer 1
 62
   240
100
AcDbSpline
210
0.0
220
0.0
230
1.0
 70
    11
 71
     3
 72
    38
 73
    34
 74
     0
 42
0.0000000001
 43
0.0000000001
 40
0.0
 40
0.0
 40
0.0
 40
0.0
 40
0.0909090909090909
 40
0.0909090909090909
 40
0.0909090909090909
 40
0.1818181818181818
 40
0.1818181818181818
 40
0.1818181818181818
 40
0.2727272727272727
 40
0.2727272727272727
 40
0.2727272727272727
 40
0.3636363636363636
 40
0.3636363636363636
 40
0.3636363636363636
 40
0.4545454545454546
 40
0.4545454545454546
 40
0.4545454545454546
 40
0.5454545454545454
 40
0.5454545454545454
 40
0.5454545454545454
 40
0.6363636363636364
 40
0.6363636363636364
 40
0.6363636363636364
 40
0.7272727272727273
 40
0.7272727272727273
 40
0.7272727272727273
 40
0.8181818181818182
 40
0.8181818181818182
 40
0.8181818181818182
 40
0.9090909090909092
 40
0.9090909090909092
 40
0.9090909090909092
 40
1.0
 40
1.0
 40
1.0
 40
1.0
 10
-0.7712
 20
-15.4901
 30
0.0
 10
-0.7079
 20
-14.4181
 30
0.0
 10
-0.9734
 20
-14.0007
 30
0.0
 10
-0.2402
 20
-13.9437
 30
0.0
 10
0.0885
 20
-14.4845
 30
0.0
 10
-0.0632
 20
-14.845
 30
0.0
 10
-0.0253
 20
-15.5091
 30
0.0
 10
-0.0253
 20
-15.5091
 30
0.0
 10
0.3666
 20
-15.5091
 30
0.0
 10
0.3666
 20
-15.5091
 30
0.0
 10
0.4298
 20
-14.807
 30
0.0
 10
0.1517
 20
-13.9248
 30
0.0
 10
0.8976
 20
-13.9722
 30
0.0
 10
1.1883
 20
-14.3327
 30
0.0
 10
1.0745
 20
-14.9019
 30
0.0
 10
1.0872
 20
-15.4901
 30
0.0
 10
1.0872
 20
-15.4901
 30
0.0
 10
1.5044
 20
-15.4901
 30
0.0
 10
1.5044
 20
-15.4901
 30
0.0
 10
1.5423
 20
-14.4276
 30
0.0
 10
1.6813
 20
-13.033
 30
0.0
 10
0.2781
 20
-13.8109
 30
0.0
 10
0.0632
 20
-13.6971
 30
0.0
 10
-0.0885
 20
-13.5453
 30
0.0
 10
-0.4551
 20
-13.6117
 30
0.0
 10
-0.9355
 20
-13.7066
 30
0.0
 10
-0.7079
 20
-13.6212
 30
0.0
 10
-1.1883
 20
-13.6497
 30
0.0
 10
-1.1883
 20
-13.6497
 30
0.0
 10
-1.1883
 20
-15.4901
 30
0.0
 10
-1.1883
 20
-15.4901
 30
0.0
 10
-1.1883
 20
-15.4901
 30
0.0
 10
-0.7712
 20
-15.4901
 30
0.0
 10
-0.7712
 20
-15.4901
 30
0.0
  0
SPLINE
  5
99
330
1F
100
AcDbEntity
  8
Layer 1
 62
   240
100
AcDbSpline
210
0.0
220
0.0
230
1.0
 70
    11
 71
     3
 72
    11
 73
     7
 74
     0
 42
0.0000000001
 43
0.0000000001
 40
0.0
 40
0.0
 40
0.0
 40
0.0
 40
0.5
 40
0.5
 40
0.5
 40
1.0
 40
1.0
 40
1.0
 40
1.0
 10
9.317
 20
-15.1296
 30
0.0
 10
8.3309
 20
-15.234
 30
0.0
 10
8.5458
 20
-14.105
 30
0.0
 10
8.9377
 20
-13.9722
 30
0.0
 10
9.6077
 20
-13.7255
 30
0.0
 10
9.6583
 20
-14.6932
 30
0.0
 10
9.317
 20
-15.1296
 30
0.0
  0
SPLINE
  5
9A
330
1F
100
AcDbEntity
  8
Layer 1
 62
   240
100
AcDbSpline
210
0.0
220
0.0
230
1.0
 70
    11
 71
     3
 72
    23
 73
    19
 74
     0
 42
0.0000000001
 43
0.0000000001
 40
0.0
 40
0.0
 40
0.0
 40
0.0
 40
0.1666666666666667
 40
0.1666666666666667
 40
0.1666666666666667
 40
0.3333333333333333
 40
0.3333333333333333
 40
0.3333333333333333
 40
0.5
 40
0.5
 40
0.5
 40
0.6666666666666666
 40
0.6666666666666666
 40
0.6666666666666666
 40
0.8333333333333333
 40
0.8333333333333333
 40
0.8333333333333333
 40
1.0
 40
1.0
 40
1.0
 40
1.0
 10
9.987
 20
-13.6497
 30
0.0
 10
9.6836
 20
-13.6307
 30
0.0
 10
9.6204
 20
-13.6971
 30
0.0
 10
9.4054
 20
-13.6591
 30
0.0
 10
9.1653
 20
-13.6212
 30
0.0
 10
9.2032
 20
-13.5453
 30
0.0
 10
8.8619
 20
-13.6022
 30
0.0
 10
7.7494
 20
-13.8014
 30
0.0
 10
7.9137
 20
-16.0309
 30
0.0
 10
9.5192
 20
-15.3478
 30
0.0
 10
9.4307
 20
-16.2206
 30
0.0
 10
8.9756
 20
-15.8316
 30
0.0
 10
8.3688
 20
-15.8601
 30
0.0
 10
8.293
 20
-16.3249
 30
0.0
 10
8.6975
 20
-16.3249
 30
0.0
 10
9.1273
 20
-16.287
 30
0.0
 10
10.3157
 20
-16.1921
 30
0.0
 10
9.8985
 20
-14.826
 30
0.0
 10
9.987
 20
-13.6497
 30
0.0
  0
SPLINE
  5
9B
330
1F
100
AcDbEntity
  8
Layer 1
 62
   240
100
AcDbSpline
210
0.0
220
0.0
230
1.0
 70
    11
 71
     3
 72
    11
 73
     7
 74
     0
 42
0.0000000001
 43
0.0000000001
 40
0.0
 40
0.0
 40
0.0
 40
0.0
 40
0.5
 40
0.5
 40
0.5
 40
1.0
 40
1.0
 40
1.0
 40
1.0
 10
15.8793
 20
-15.1296
 30
0.0
 10
14.8933
 20
-15.234
 30
0.0
 10
15.1082
 20
-14.105
 30
0.0
 10
15.5001
 20
-13.9722
 30
0.0
 10
16.1701
 20
-13.7255
 30
0.0
 10
16.2207
 20
-14.6932
 30
0.0
 10
15.8793
 20
-15.1296
 30
0.0
  0
SPLINE
  5
9C
330
1F
100
AcDbEntity
  8
Layer 1
 62
   240
100
AcDbSpline
210
0.0
220
0.0
230
1.0
 70
    11
 71
     3
 72
    26
 73
    22
 74
     0
 42
0.0000000001
 43
0.0000000001
 40
0.0
 40
0.0
 40
0.0
 40
0.0
 40
0.1428571428571428
 40
0.1428571428571428
 40
0.1428571428571428
 40
0.2857142857142857
 40
0.2857142857142857
 40
0.2857142857142857
 40
0.4285714285714285
 40
0.4285714285714285
 40
0.4285714285714285
 40
0.5714285714285714
 40
0.5714285714285714
 40
0.5714285714285714
 40
0.7142857142857142
 40
0.7142857142857142
 40
0.7142857142857142
 40
0.8571428571428571
 40
0.8571428571428571
 40
0.8571428571428571
 40
1.0
 40
1.0
 40
1.0
 40
1.0
 10
16.5493
 20
-13.6497
 30
0.0
 10
16.2207
 20
-13.6307
 30
0.0
 10
16.1954
 20
-13.6971
 30
0.0
 10
15.9678
 20
-13.6591
 30
0.0
 10
15.7276
 20
-13.6212
 30
0.0
 10
15.7655
 20
-13.5453
 30
0.0
 10
15.4242
 20
-13.6022
 30
0.0
 10
14.3117
 20
-13.8014
 30
0.0
 10
14.4887
 20
-16.0309
 30
0.0
 10
16.0942
 20
-15.3478
 30
0.0
 10
16.0057
 20
-16.2206
 30
0.0
 10
15.538
 20
-15.8316
 30
0.0
 10
14.9438
 20
-15.8601
 30
0.0
 10
14.868
 20
-16.3249
 30
0.0
 10
15.2599
 20
-16.3249
 30
0.0
 10
15.6897
 20
-16.287
 30
0.0
 10
16.0563
 20
-16.2585
 30
0.0
 10
16.2839
 20
-16.1067
 30
0.0
 10
16.4229
 20
-15.8411
 30
0.0
 10
16.6378
 20
-15.3952
 30
0.0
 10
16.5114
 20
-14.2378
 30
0.0
 10
16.5493
 20
-13.6497
 30
0.0
  0
SPLINE
  5
9D
330
1F
100
AcDbEntity
  8
Layer 1
 62
   240
100
AcDbSpline
210
0.0
220
0.0
230
1.0
 70
    11
 71
     3
 72
    29
 73
    25
 74
     0
 42
0.0000000001
 43
0.0000000001
 40
0.0
 40
0.0
 40
0.0
 40
0.0
 40
0.125
 40
0.125
 40
0.125
 40
0.25
 40
0.25
 40
0.25
 40
0.375
 40
0.375
 40
0.375
 40
0.5
 40
0.5
 40
0.5
 40
0.625
 40
0.625
 40
0.625
 40
0.75
 40
0.75
 40
0.75
 40
0.875
 40
0.875
 40
0.875
 40
1.0
 40
1.0
 40
1.0
 40
1.0
 10
10.9225
 20
-15.5091
 30
0.0
 10
10.9604
 20
-14.7691
 30
0.0
 10
10.6949
 20
-13.9532
 30
0.0
 10
11.4913
 20
-13.9627
 30
0.0
 10
11.8074
 20
-14.3042
 30
0.0
 10
11.6557
 20
-14.9209
 30
0.0
 10
11.7062
 20
-15.5091
 30
0.0
 10
11.7062
 20
-15.5091
 30
0.0
 10
12.1361
 20
-15.5091
 30
0.0
 10
12.1361
 20
-15.5091
 30
0.0
 10
12.174
 20
-14.5604
 30
0.0
 10
12.3257
 20
-13.1374
 30
0.0
 10
10.9351
 20
-13.7445
 30
0.0
 10
10.9351
 20
-13.7445
 30
0.0
 10
10.9225
 20
-12.7769
 30
0.0
 10
10.9225
 20
-12.7769
 30
0.0
 10
10.9225
 20
-12.7769
 30
0.0
 10
10.4926
 20
-12.8053
 30
0.0
 10
10.4926
 20
-12.8053
 30
0.0
 10
10.4926
 20
-12.8053
 30
0.0
 10
10.4926
 20
-15.4901
 30
0.0
 10
10.4926
 20
-15.4901
 30
0.0
 10
10.4926
 20
-15.4901
 30
0.0
 10
10.9225
 20
-15.5091
 30
0.0
 10
10.9225
 20
-15.5091
 30
0.0
  0
SPLINE
  5
9E
330
1F
100
AcDbEntity
  8
Layer 1
 62
   240
100
AcDbSpline
210
0.0
220
0.0
230
1.0
 70
    11
 71
     3
 72
    29
 73
    25
 74
     0
 42
0.0000000001
 43
0.0000000001
 40
0.0
 40
0.0
 40
0.0
 40
0.0
 40
0.125
 40
0.125
 40
0.125
 40
0.25
 40
0.25
 40
0.25
 40
0.375
 40
0.375
 40
0.375
 40
0.5
 40
0.5
 40
0.5
 40
0.625
 40
0.625
 40
0.625
 40
0.75
 40
0.75
 40
0.75
 40
0.875
 40
0.875
 40
0.875
 40
1.0
 40
1.0
 40
1.0
 40
1.0
 10
4.6522
 20
-15.5091
 30
0.0
 10
4.6901
 20
-14.7691
 30
0.0
 10
4.4246
 20
-13.9532
 30
0.0
 10
5.221
 20
-13.9627
 30
0.0
 10
5.5371
 20
-14.3042
 30
0.0
 10
5.3854
 20
-14.9209
 30
0.0
 10
5.4359
 20
-15.5091
 30
0.0
 10
5.4359
 20
-15.5091
 30
0.0
 10
5.8531
 20
-15.5091
 30
0.0
 10
5.8531
 20
-15.5091
 30
0.0
 10
5.9037
 20
-14.5699
 30
0.0
 10
6.0554
 20
-13.1374
 30
0.0
 10
4.6648
 20
-13.7445
 30
0.0
 10
4.6648
 20
-13.7445
 30
0.0
 10
4.6522
 20
-12.7769
 30
0.0
 10
4.6522
 20
-12.7769
 30
0.0
 10
4.6522
 20
-12.7769
 30
0.0
 10
4.2223
 20
-12.8053
 30
0.0
 10
4.2223
 20
-12.8053
 30
0.0
 10
4.2223
 20
-12.8053
 30
0.0
 10
4.2223
 20
-15.4901
 30
0.0
 10
4.2223
 20
-15.4901
 30
0.0
 10
4.2223
 20
-15.4901
 30
0.0
 10
4.6522
 20
-15.5091
 30
0.0
 10
4.6522
 20
-15.5091
 30
0.0
  0
SPLINE
  5
9F
330
1F
100
AcDbEntity
  8
Layer 1
 62
   240
100
AcDbSpline
210
0.0
220
0.0
230
1.0
 70
    11
 71
     3
 72
    29
 73
    25
 74
     0
 42
0.0000000001
 43
0.0000000001
 40
0.0
 40
0.0
 40
0.0
 40
0.0
 40
0.125
 40
0.125
 40
0.125
 40
0.25
 40
0.25
 40
0.25
 40
0.375
 40
0.375
 40
0.375
 40
0.5
 40
0.5
 40
0.5
 40
0.625
 40
0.625
 40
0.625
 40
0.75
 40
0.75
 40
0.75
 40
0.875
 40
0.875
 40
0.875
 40
1.0
 40
1.0
 40
1.0
 40
1.0
 10
17.4848
 20
-15.5091
 30
0.0
 10
17.5228
 20
-14.7691
 30
0.0
 10
17.2699
 20
-13.9532
 30
0.0
 10
18.0537
 20
-13.9627
 30
0.0
 10
18.3697
 20
-14.3042
 30
0.0
 10
18.218
 20
-14.9209
 30
0.0
 10
18.2686
 20
-15.5091
 30
0.0
 10
18.2686
 20
-15.5091
 30
0.0
 10
18.6984
 20
-15.5091
 30
0.0
 10
18.6984
 20
-15.5091
 30
0.0
 10
18.7364
 20
-14.5604
 30
0.0
 10
18.8881
 20
-13.1374
 30
0.0
 10
17.4975
 20
-13.7445
 30
0.0
 10
17.4975
 20
-13.7445
 30
0.0
 10
17.4848
 20
-12.7769
 30
0.0
 10
17.4848
 20
-12.7769
 30
0.0
 10
17.4848
 20
-12.7769
 30
0.0
 10
17.055
 20
-12.8053
 30
0.0
 10
17.055
 20
-12.8053
 30
0.0
 10
17.055
 20
-12.8053
 30
0.0
 10
17.0676
 20
-15.4901
 30
0.0
 10
17.0676
 20
-15.4901
 30
0.0
 10
17.0676
 20
-15.4901
 30
0.0
 10
17.4848
 20
-15.5091
 30
0.0
 10
17.4848
 20
-15.5091
 30
0.0
  0
SPLINE
  5
A0
330
1F
100
AcDbEntity
  8
Layer 1
 62
   240
100
AcDbSpline
210
0.0
220
0.0
230
1.0
 70
    11
 71
     3
 72
    23
 73
    19
 74
     0
 42
0.0000000001
 43
0.0000000001
 40
0.0
 40
0.0
 40
0.0
 40
0.0
 40
0.1666666666666667
 40
0.1666666666666667
 40
0.1666666666666667
 40
0.3333333333333333
 40
0.3333333333333333
 40
0.3333333333333333
 40
0.5
 40
0.5
 40
0.5
 40
0.6666666666666666
 40
0.6666666666666666
 40
0.6666666666666666
 40
0.8333333333333333
 40
0.8333333333333333
 40
0.8333333333333333
 40
1.0
 40
1.0
 40
1.0
 40
1.0
 10
-5.9669
 20
-13.6591
 30
0.0
 10
-5.8026
 20
-14.105
 30
0.0
 10
-5.6256
 20
-14.5699
 30
0.0
 10
-5.4233
 20
-15.0347
 30
0.0
 10
-5.0314
 20
-15.9929
 30
0.0
 10
-5.929
 20
-15.547
 30
0.0
 10
-5.8026
 20
-16.2775
 30
0.0
 10
-4.9682
 20
-16.4483
 30
0.0
 10
-4.3235
 20
-14.2758
 30
0.0
 10
-4.1465
 20
-13.6402
 30
0.0
 10
-4.1465
 20
-13.6402
 30
0.0
 10
-4.5131
 20
-13.6402
 30
0.0
 10
-4.5131
 20
-13.6402
 30
0.0
 10
-4.766
 20
-13.7825
 30
0.0
 10
-4.8418
 20
-14.5224
 30
0.0
 10
-5.0567
 20
-14.826
 30
0.0
 10
-5.436
 20
-13.5263
 30
0.0
 10
-5.4865
 20
-13.6212
 30
0.0
 10
-5.9669
 20
-13.6591
 30
0.0
  0
SPLINE
  5
A1
330
1F
100
AcDbEntity
  8
Layer 1
 62
   240
100
AcDbSpline
210
0.0
220
0.0
230
1.0
 70
    11
 71
     3
 72
    11
 73
     7
 74
     0
 42
0.0000000001
 43
0.0000000001
 40
0.0
 40
0.0
 40
0.0
 40
0.0
 40
0.5
 40
0.5
 40
0.5
 40
1.0
 40
1.0
 40
1.0
 40
1.0
 10
2.6168
 20
-14.0007
 30
0.0
 10
3.3121
 20
-13.5927
 30
0.0
 10
3.527
 20
-14.8355
 30
0.0
 10
3.0972
 20
-15.1296
 30
0.0
 10
2.4398
 20
-15.5945
 30
0.0
 10
2.0606
 20
-14.3327
 30
0.0
 10
2.6168
 20
-14.0007
 30
0.0
  0
SPLINE
  5
A2
330
1F
100
AcDbEntity
  8
Layer 1
 62
   240
100
AcDbSpline
210
0.0
220
0.0
230
1.0
 70
    11
 71
     3
 72
    11
 73
     7
 74
     0
 42
0.0000000001
 43
0.0000000001
 40
0.0
 40
0.0
 40
0.0
 40
0.0
 40
0.5
 40
0.5
 40
0.5
 40
1.0
 40
1.0
 40
1.0
 40
1.0
 10
3.704
 20
-14.9683
 30
0.0
 10
4.197
 20
-13.6022
 30
0.0
 10
2.4651
 20
-13.0994
 30
0.0
 10
1.9974
 20
-14.0955
 30
0.0
 10
1.34
 20
-15.4616
 30
0.0
 10
3.3121
 20
-16.0688
 30
0.0
 10
3.704
 20
-14.9683
 30
0.0
  0
SPLINE
  5
A3
330
1F
100
AcDbEntity
  8
Layer 1
 62
   240
100
AcDbSpline
210
0.0
220
0.0
230
1.0
 70
    11
 71
     3
 72
    14
 73
    10
 74
     0
 42
0.0000000001
 43
0.0000000001
 40
0.0
 40
0.0
 40
0.0
 40
0.0
 40
0.3333333333333333
 40
0.3333333333333333
 40
0.3333333333333333
 40
0.6666666666666666
 40
0.6666666666666666
 40
0.6666666666666666
 40
1.0
 40
1.0
 40
1.0
 40
1.0
 10
-10.0249
 20
-15.1486
 30
0.0
 10
-10.0376
 20
-15.1296
 30
0.0
 10
-10.1387
 20
-15.2245
 30
0.0
 10
-10.0881
 20
-14.8924
 30
0.0
 10
-10.0502
 20
-14.6173
 30
0.0
 10
-9.7089
 20
-14.5889
 30
0.0
 10
-9.4813
 20
-14.6078
 30
0.0
 10
-9.4813
 20
-15.0442
 30
0.0
 10
-9.5825
 20
-15.3288
 30
0.0
 10
-10.0249
 20
-15.1486
 30
0.0
  0
SPLINE
  5
A4
330
1F
100
AcDbEntity
  8
Layer 1
 62
   240
100
AcDbSpline
210
0.0
220
0.0
230
1.0
 70
    11
 71
     3
 72
    26
 73
    22
 74
     0
 42
0.0000000001
 43
0.0000000001
 40
0.0
 40
0.0
 40
0.0
 40
0.0
 40
0.1428571428571428
 40
0.1428571428571428
 40
0.1428571428571428
 40
0.2857142857142857
 40
0.2857142857142857
 40
0.2857142857142857
 40
0.4285714285714285
 40
0.4285714285714285
 40
0.4285714285714285
 40
0.5714285714285714
 40
0.5714285714285714
 40
0.5714285714285714
 40
0.7142857142857142
 40
0.7142857142857142
 40
0.7142857142857142
 40
0.8571428571428571
 40
0.8571428571428571
 40
0.8571428571428571
 40
1.0
 40
1.0
 40
1.0
 40
1.0
 10
-9.7721
 20
-15.5091
 30
0.0
 10
-9.0768
 20
-15.4237
 30
0.0
 10
-9.5698
 20
-15.4996
 30
0.0
 10
-9.0389
 20
-15.5091
 30
0.0
 10
-9.0262
 20
-15.0727
 30
0.0
 10
-8.9757
 20
-14.1145
 30
0.0
 10
-9.1779
 20
-13.8394
 30
0.0
 10
-9.4434
 20
-13.4789
 30
0.0
 10
-10.1513
 20
-13.5453
 30
0.0
 10
-10.4295
 20
-13.792
 30
0.0
 10
-10.2651
 20
-14.4371
 30
0.0
 10
-9.8732
 20
-13.4504
 30
0.0
 10
-9.5066
 20
-14.1809
 30
0.0
 10
-9.5066
 20
-14.1809
 30
0.0
 10
-9.987
 20
-14.3517
 30
0.0
 10
-9.987
 20
-14.3517
 30
0.0
 10
-10.5306
 20
-14.4845
 30
0.0
 10
-10.657
 20
-14.8165
 30
0.0
 10
-10.4674
 20
-15.3857
 30
0.0
 10
-10.2651
 20
-15.4901
 30
0.0
 10
-10.1134
 20
-15.5565
 30
0.0
 10
-9.7721
 20
-15.5091
 30
0.0
  0
SPLINE
  5
A5
330
1F
100
AcDbEntity
  8
Layer 1
 62
   240
100
AcDbSpline
210
0.0
220
0.0
230
1.0
 70
    11
 71
     3
 72
    14
 73
    10
 74
     0
 42
0.0000000001
 43
0.0000000001
 40
0.0
 40
0.0
 40
0.0
 40
0.0
 40
0.3333333333333333
 40
0.3333333333333333
 40
0.3333333333333333
 40
0.6666666666666666
 40
0.6666666666666666
 40
0.6666666666666666
 40
1.0
 40
1.0
 40
1.0
 40
1.0
 10
6.8265
 20
-15.1486
 30
0.0
 10
6.8265
 20
-15.1296
 30
0.0
 10
6.7128
 20
-15.2245
 30
0.0
 10
6.7633
 20
-14.8924
 30
0.0
 10
6.8012
 20
-14.6173
 30
0.0
 10
7.1552
 20
-14.5889
 30
0.0
 10
7.3701
 20
-14.6078
 30
0.0
 10
7.3701
 20
-15.0442
 30
0.0
 10
7.269
 20
-15.3288
 30
0.0
 10
6.8265
 20
-15.1486
 30
0.0
  0
SPLINE
  5
A6
330
1F
100
AcDbEntity
  8
Layer 1
 62
   240
100
AcDbSpline
210
0.0
220
0.0
230
1.0
 70
    11
 71
     3
 72
    32
 73
    28
 74
     0
 42
0.0000000001
 43
0.0000000001
 40
0.0
 40
0.0
 40
0.0
 40
0.0
 40
0.1111111111111111
 40
0.1111111111111111
 40
0.1111111111111111
 40
0.2222222222222222
 40
0.2222222222222222
 40
0.2222222222222222
 40
0.3333333333333333
 40
0.3333333333333333
 40
0.3333333333333333
 40
0.4444444444444444
 40
0.4444444444444444
 40
0.4444444444444444
 40
0.5555555555555556
 40
0.5555555555555556
 40
0.5555555555555556
 40
0.6666666666666666
 40
0.6666666666666666
 40
0.6666666666666666
 40
0.7777777777777777
 40
0.7777777777777777
 40
0.7777777777777777
 40
0.8888888888888888
 40
0.8888888888888888
 40
0.8888888888888888
 40
1.0
 40
1.0
 40
1.0
 40
1.0
 10
7.269
 20
-15.4806
 30
0.0
 10
7.269
 20
-15.4806
 30
0.0
 10
7.8126
 20
-15.5091
 30
0.0
 10
7.8126
 20
-15.5091
 30
0.0
 10
7.8252
 20
-15.0727
 30
0.0
 10
7.8758
 20
-14.1145
 30
0.0
 10
7.6735
 20
-13.8394
 30
0.0
 10
7.4207
 20
-13.4694
 30
0.0
 10
6.7001
 20
-13.5453
 30
0.0
 10
6.422
 20
-13.792
 30
0.0
 10
6.5863
 20
-14.4371
 30
0.0
 10
6.9782
 20
-13.4504
 30
0.0
 10
7.3575
 20
-14.1809
 30
0.0
 10
7.3322
 20
-14.1999
 30
0.0
 10
7.3069
 20
-14.2094
 30
0.0
 10
7.2943
 20
-14.2189
 30
0.0
 10
7.2816
 20
-14.2283
 30
0.0
 10
7.2564
 20
-14.2378
 30
0.0
 10
7.2437
 20
-14.2473
 30
0.0
 10
7.2437
 20
-14.2473
 30
0.0
 10
6.9277
 20
-14.3422
 30
0.0
 10
6.9277
 20
-14.3422
 30
0.0
 10
6.422
 20
-14.456
 30
0.0
 10
6.0933
 20
-14.7786
 30
0.0
 10
6.3841
 20
-15.2719
 30
0.0
 10
6.6116
 20
-15.6704
 30
0.0
 10
6.9024
 20
-15.5186
 30
0.0
 10
7.269
 20
-15.4806
 30
0.0
  0
SPLINE
  5
A7
330
1F
100
AcDbEntity
  8
Layer 1
 62
   240
100
AcDbSpline
210
0.0
220
0.0
230
1.0
 70
    11
 71
     3
 72
    14
 73
    10
 74
     0
 42
0.0000000001
 43
0.0000000001
 40
0.0
 40
0.0
 40
0.0
 40
0.0
 40
0.3333333333333333
 40
0.3333333333333333
 40
0.3333333333333333
 40
0.6666666666666666
 40
0.6666666666666666
 40
0.6666666666666666
 40
1.0
 40
1.0
 40
1.0
 40
1.0
 10
-3.6029
 20
-14.3517
 30
0.0
 10
-3.5144
 20
-14.0576
 30
0.0
 10
-3.4765
 20
-14.0007
 30
0.0
 10
-3.1731
 20
-13.9153
 30
0.0
 10
-2.9329
 20
-14.0102
 30
0.0
 10
-2.857
 20
-14.086
 30
0.0
 10
-2.8065
 20
-14.3422
 30
0.0
 10
-2.8065
 20
-14.3422
 30
0.0
 10
-3.6029
 20
-14.3517
 30
0.0
 10
-3.6029
 20
-14.3517
 30
0.0
  0
SPLINE
  5
A8
330
1F
100
AcDbEntity
  8
Layer 1
 62
   240
100
AcDbSpline
210
0.0
220
0.0
230
1.0
 70
    11
 71
     3
 72
    20
 73
    16
 74
     0
 42
0.0000000001
 43
0.0000000001
 40
0.0
 40
0.0
 40
0.0
 40
0.0
 40
0.2
 40
0.2
 40
0.2
 40
0.4
 40
0.4
 40
0.4
 40
0.6000000000000001
 40
0.6000000000000001
 40
0.6000000000000001
 40
0.8
 40
0.8
 40
0.8
 40
1.0
 40
1.0
 40
1.0
 40
1.0
 10
-2.5031
 20
-15.2055
 30
0.0
 10
-2.8823
 20
-14.9778
 30
0.0
 10
-3.4386
 20
-15.6039
 30
0.0
 10
-3.6282
 20
-14.6553
 30
0.0
 10
-3.6282
 20
-14.6553
 30
0.0
 10
-2.3767
 20
-14.6553
 30
0.0
 10
-2.3767
 20
-14.6553
 30
0.0
 10
-2.3008
 20
-13.3081
 30
0.0
 10
-3.6661
 20
-13.3081
 30
0.0
 10
-3.9822
 20
-14.1525
 30
0.0
 10
-4.1844
 20
-14.6742
 30
0.0
 10
-3.9822
 20
-15.2055
 30
0.0
 10
-3.6788
 20
-15.3952
 30
0.0
 10
-3.5523
 20
-15.4901
 30
0.0
 10
-2.4904
 20
-15.8127
 30
0.0
 10
-2.5031
 20
-15.2055
 30
0.0
  0
SPLINE
  5
A9
330
1F
100
AcDbEntity
  8
Layer 1
 62
   240
100
AcDbSpline
210
0.0
220
0.0
230
1.0
 70
    11
 71
     3
 72
    14
 73
    10
 74
     0
 42
0.0000000001
 43
0.0000000001
 40
0.0
 40
0.0
 40
0.0
 40
0.0
 40
0.3333333333333333
 40
0.3333333333333333
 40
0.3333333333333333
 40
0.6666666666666666
 40
0.6666666666666666
 40
0.6666666666666666
 40
1.0
 40
1.0
 40
1.0
 40
1.0
 10
-7.1173
 20
-15.1486
 30
0.0
 10
-7.13
 20
-15.1296
 30
0.0
 10
-7.2437
 20
-15.2245
 30
0.0
 10
-7.1932
 20
-14.8924
 30
0.0
 10
-7.1552
 20
-14.6173
 30
0.0
 10
-6.8013
 20
-14.5889
 30
0.0
 10
-6.5737
 20
-14.6078
 30
0.0
 10
-6.5864
 20
-15.0442
 30
0.0
 10
-6.6875
 20
-15.3288
 30
0.0
 10
-7.1173
 20
-15.1486
 30
0.0
  0
SPLINE
  5
AA
330
1F
100
AcDbEntity
  8
Layer 1
 62
   240
100
AcDbSpline
210
0.0
220
0.0
230
1.0
 70
    11
 71
     3
 72
    26
 73
    22
 74
     0
 42
0.0000000001
 43
0.0000000001
 40
0.0
 40
0.0
 40
0.0
 40
0.0
 40
0.1428571428571428
 40
0.1428571428571428
 40
0.1428571428571428
 40
0.2857142857142857
 40
0.2857142857142857
 40
0.2857142857142857
 40
0.4285714285714285
 40
0.4285714285714285
 40
0.4285714285714285
 40
0.5714285714285714
 40
0.5714285714285714
 40
0.5714285714285714
 40
0.7142857142857142
 40
0.7142857142857142
 40
0.7142857142857142
 40
0.8571428571428571
 40
0.8571428571428571
 40
0.8571428571428571
 40
1.0
 40
1.0
 40
1.0
 40
1.0
 10
-6.8771
 20
-15.5091
 30
0.0
 10
-6.1945
 20
-15.4237
 30
0.0
 10
-6.6622
 20
-15.4996
 30
0.0
 10
-6.1313
 20
-15.5091
 30
0.0
 10
-6.1313
 20
-15.0727
 30
0.0
 10
-6.0807
 20
-14.1145
 30
0.0
 10
-6.283
 20
-13.8394
 30
0.0
 10
-6.5358
 20
-13.4789
 30
0.0
 10
-7.2564
 20
-13.5453
 30
0.0
 10
-7.5345
 20
-13.792
 30
0.0
 10
-7.3701
 20
-14.4371
 30
0.0
 10
-6.9783
 20
-13.4504
 30
0.0
 10
-6.599
 20
-14.1809
 30
0.0
 10
-6.6116
 20
-14.1999
 30
0.0
 10
-6.6369
 20
-14.2094
 30
0.0
 10
-6.6496
 20
-14.2189
 30
0.0
 10
-6.6496
 20
-14.2189
 30
0.0
 10
-7.0162
 20
-14.3422
 30
0.0
 10
-7.0162
 20
-14.3422
 30
0.0
 10
-7.9517
 20
-14.5604
 30
0.0
 10
-7.8885
 20
-15.6514
 30
0.0
 10
-6.8771
 20
-15.5091
 30
0.0
  0
SPLINE
  5
AB
330
1F
100
AcDbEntity
  8
Layer 1
 62
   240
100
AcDbSpline
210
0.0
220
0.0
230
1.0
 70
    11
 71
     3
 72
    41
 73
    37
 74
     0
 42
0.0000000001
 43
0.0000000001
 40
0.0
 40
0.0
 40
0.0
 40
0.0
 40
0.0833333333333333
 40
0.0833333333333333
 40
0.0833333333333333
 40
0.1666666666666667
 40
0.1666666666666667
 40
0.1666666666666667
 40
0.25
 40
0.25
 40
0.25
 40
0.3333333333333333
 40
0.3333333333333333
 40
0.3333333333333333
 40
0.4166666666666666
 40
0.4166666666666666
 40
0.4166666666666666
 40
0.5
 40
0.5
 40
0.5
 40
0.5833333333333333
 40
0.5833333333333333
 40
0.5833333333333333
 40
0.6666666666666666
 40
0.6666666666666666
 40
0.6666666666666666
 40
0.75
 40
0.75
 40
0.75
 40
0.8333333333333333
 40
0.8333333333333333
 40
0.8333333333333333
 40
0.9166666666666666
 40
0.9166666666666666
 40
0.9166666666666666
 40
1.0
 40
1.0
 40
1.0
 40
1.0
 10
-10.8087
 20
-15.4427
 30
0.0
 10
-10.8593
 20
-15.0347
 30
0.0
 10
-10.9225
 20
-15.2719
 30
0.0
 10
-11.2259
 20
-15.1011
 30
0.0
 10
-11.2259
 20
-15.1011
 30
0.0
 10
-11.2638
 20
-13.9532
 30
0.0
 10
-11.2638
 20
-13.9532
 30
0.0
 10
-10.9857
 20
-13.9532
 30
0.0
 10
-10.7961
 20
-14.0386
 30
0.0
 10
-10.7961
 20
-13.792
 30
0.0
 10
-10.7961
 20
-13.5453
 30
0.0
 10
-10.9857
 20
-13.6402
 30
0.0
 10
-11.2638
 20
-13.6402
 30
0.0
 10
-11.2638
 20
-13.6402
 30
0.0
 10
-11.327
 20
-13.1089
 30
0.0
 10
-11.327
 20
-13.1089
 30
0.0
 10
-11.327
 20
-13.1089
 30
0.0
 10
-11.6431
 20
-13.1848
 30
0.0
 10
-11.6431
 20
-13.1848
 30
0.0
 10
-11.7442
 20
-13.3745
 30
0.0
 10
-11.7063
 20
-13.384
 30
0.0
 10
-11.7063
 20
-13.6402
 30
0.0
 10
-11.7063
 20
-13.6402
 30
0.0
 10
-11.9844
 20
-13.6402
 30
0.0
 10
-11.9844
 20
-13.6402
 30
0.0
 10
-11.9844
 20
-13.6402
 30
0.0
 10
-11.9844
 20
-13.9532
 30
0.0
 10
-11.9844
 20
-13.9532
 30
0.0
 10
-11.9844
 20
-13.9532
 30
0.0
 10
-11.7063
 20
-13.9532
 30
0.0
 10
-11.7063
 20
-13.9532
 30
0.0
 10
-11.7063
 20
-14.2663
 30
0.0
 10
-11.7568
 20
-14.9778
 30
0.0
 10
-11.6683
 20
-15.234
 30
0.0
 10
-11.5546
 20
-15.5565
 30
0.0
 10
-11.1121
 20
-15.6704
 30
0.0
 10
-10.8087
 20
-15.4427
 30
0.0
  0
SPLINE
  5
AC
330
1F
100
AcDbEntity
  8
Layer 1
 62
   240
100
AcDbSpline
210
0.0
220
0.0
230
1.0
 70
    11
 71
     3
 72
    17
 73
    13
 74
     0
 42
0.0000000001
 43
0.0000000001
 40
0.0
 40
0.0
 40
0.0
 40
0.0
 40
0.25
 40
0.25
 40
0.25
 40
0.5
 40
0.5
 40
0.5
 40
0.75
 40
0.75
 40
0.75
 40
1.0
 40
1.0
 40
1.0
 40
1.0
 10
-8.47
 20
-15.4901
 30
0.0
 10
-8.47
 20
-15.4901
 30
0.0
 10
-8.0402
 20
-15.5091
 30
0.0
 10
-8.0402
 20
-15.5091
 30
0.0
 10
-8.0402
 20
-15.5091
 30
0.0
 10
-8.0402
 20
-12.7769
 30
0.0
 10
-8.0402
 20
-12.7769
 30
0.0
 10
-8.0402
 20
-12.7769
 30
0.0
 10
-8.4826
 20
-12.8053
 30
0.0
 10
-8.4826
 20
-12.8053
 30
0.0
 10
-8.4826
 20
-12.8053
 30
0.0
 10
-8.47
 20
-15.4901
 30
0.0
 10
-8.47
 20
-15.4901
 30
0.0
  0
SPLINE
  5
AD
330
1F
100
AcDbEntity
  8
Layer 1
 62
   240
100
AcDbSpline
210
0.0
220
0.0
230
1.0
 70
    11
 71
     3
 72
    11
 73
     7
 74
     0
 42
0.0000000001
 43
0.0000000001
 40
0.0
 40
0.0
 40
0.0
 40
0.0
 40
0.5
 40
0.5
 40
0.5
 40
1.0
 40
1.0
 40
1.0
 40
1.0
 10
-1.9216
 20
-15.547
 30
0.0
 10
-1.4412
 20
-15.547
 30
0.0
 10
-1.4665
 20
-15.0632
 30
0.0
 10
-1.7825
 20
-14.9968
 30
0.0
 10
-2.0733
 20
-14.9399
 30
0.0
 10
-2.3008
 20
-15.2624
 30
0.0
 10
-1.9216
 20
-15.547
 30
0.0
  0
SPLINE
  5
AE
330
1F
100
AcDbEntity
  8
Layer 1
 62
   240
100
AcDbSpline
210
0.0
220
0.0
230
1.0
 70
    11
 71
     3
 72
    14
 73
    10
 74
     0
 42
0.0000000001
 43
0.0000000001
 40
0.0
 40
0.0
 40
0.0
 40
0.0
 40
0.3333333333333333
 40
0.3333333333333333
 40
0.3333333333333333
 40
0.6666666666666666
 40
0.6666666666666666
 40
0.6666666666666666
 40
1.0
 40
1.0
 40
1.0
 40
1.0
 10
13.0626
 20
-14.3137
 30
0.0
 10
13.1511
 20
-14.0196
 30
0.0
 10
13.189
 20
-13.9627
 30
0.0
 10
13.4924
 20
-13.8773
 30
0.0
 10
13.7326
 20
-13.9722
 30
0.0
 10
13.8085
 20
-14.048
 30
0.0
 10
13.859
 20
-14.3042
 30
0.0
 10
13.859
 20
-14.3042
 30
0.0
 10
13.0626
 20
-14.3137
 30
0.0
 10
13.0626
 20
-14.3137
 30
0.0
  0
SPLINE
  5
AF
330
1F
100
AcDbEntity
  8
Layer 1
 62
   240
100
AcDbSpline
210
0.0
220
0.0
230
1.0
 70
    11
 71
     3
 72
    20
 73
    16
 74
     0
 42
0.0000000001
 43
0.0000000001
 40
0.0
 40
0.0
 40
0.0
 40
0.0
 40
0.2
 40
0.2
 40
0.2
 40
0.4
 40
0.4
 40
0.4
 40
0.6000000000000001
 40
0.6000000000000001
 40
0.6000000000000001
 40
0.8
 40
0.8
 40
0.8
 40
1.0
 40
1.0
 40
1.0
 40
1.0
 10
14.1624
 20
-15.1675
 30
0.0
 10
13.7832
 20
-14.9398
 30
0.0
 10
13.2269
 20
-15.5659
 30
0.0
 10
13.0373
 20
-14.6173
 30
0.0
 10
13.0373
 20
-14.6173
 30
0.0
 10
14.2888
 20
-14.6173
 30
0.0
 10
14.2888
 20
-14.6173
 30
0.0
 10
14.3647
 20
-13.2701
 30
0.0
 10
12.9994
 20
-13.2701
 30
0.0
 10
12.6833
 20
-14.1145
 30
0.0
 10
12.4811
 20
-14.6362
 30
0.0
 10
12.6833
 20
-15.1675
 30
0.0
 10
12.9867
 20
-15.3572
 30
0.0
 10
13.1132
 20
-15.4521
 30
0.0
 10
14.1751
 20
-15.7747
 30
0.0
 10
14.1624
 20
-15.1675
 30
0.0
  0
SPLINE
  5
B0
330
1F
100
AcDbEntity
  8
Layer 1
 62
   240
100
AcDbSpline
210
0.0
220
0.0
230
1.0
 70
    11
 71
     3
 72
    29
 73
    25
 74
     0
 42
0.0000000001
 43
0.0000000001
 40
0.0
 40
0.0
 40
0.0
 40
0.0
 40
0.125
 40
0.125
 40
0.125
 40
0.25
 40
0.25
 40
0.25
 40
0.375
 40
0.375
 40
0.375
 40
0.5
 40
0.5
 40
0.5
 40
0.625
 40
0.625
 40
0.625
 40
0.75
 40
0.75
 40
0.75
 40
0.875
 40
0.875
 40
0.875
 40
1.0
 40
1.0
 40
1.0
 40
1.0
 10
-14.6765
 20
-3.7405
 30
0.0
 10
-14.6765
 20
-3.7405
 30
0.0
 10
-17.2554
 20
-3.7405
 30
0.0
 10
-17.2554
 20
-3.7405
 30
0.0
 10
-17.5367
 20
-3.7405
 30
0.0
 10
-17.7668
 20
-3.9706
 30
0.0
 10
-17.7668
 20
-4.2519
 30
0.0
 10
-17.7668
 20
-4.2519
 30
0.0
 10
-17.7668
 20
-9.5306
 30
0.0
 10
-17.7668
 20
-9.5306
 30
0.0
 10
-17.7668
 20
-9.8119
 30
0.0
 10
-17.5367
 20
-10.042
 30
0.0
 10
-17.2554
 20
-10.042
 30
0.0
 10
-17.2554
 20
-10.042
 30
0.0
 10
-14.6765
 20
-10.042
 30
0.0
 10
-14.6765
 20
-10.042
 30
0.0
 10
-14.3951
 20
-10.042
 30
0.0
 10
-14.1651
 20
-9.8119
 30
0.0
 10
-14.1651
 20
-9.5306
 30
0.0
 10
-14.1651
 20
-9.5306
 30
0.0
 10
-14.1651
 20
-4.2519
 30
0.0
 10
-14.1651
 20
-4.2519
 30
0.0
 10
-14.1651
 20
-3.9706
 30
0.0
 10
-14.3951
 20
-3.7405
 30
0.0
 10
-14.6765
 20
-3.7405
 30
0.0
  0
SPLINE
  5
B1
330
1F
100
AcDbEntity
  8
Layer 1
 62
   240
100
AcDbSpline
210
0.0
220
0.0
230
1.0
 70
    11
 71
     3
 72
    17
 73
    13
 74
     0
 42
0.0000000001
 43
0.0000000001
 40
0.0
 40
0.0
 40
0.0
 40
0.0
 40
0.25
 40
0.25
 40
0.25
 40
0.5
 40
0.5
 40
0.5
 40
0.75
 40
0.75
 40
0.75
 40
1.0
 40
1.0
 40
1.0
 40
1.0
 10
-15.9659
 20
-9.4385
 30
0.0
 10
-15.8835
 20
-9.4385
 30
0.0
 10
-15.8166
 20
-9.5066
 30
0.0
 10
-15.8166
 20
-9.5907
 30
0.0
 10
-15.8166
 20
-9.6748
 30
0.0
 10
-15.8835
 20
-9.743
 30
0.0
 10
-15.9659
 20
-9.743
 30
0.0
 10
-16.0484
 20
-9.743
 30
0.0
 10
-16.1153
 20
-9.6748
 30
0.0
 10
-16.1153
 20
-9.5907
 30
0.0
 10
-16.1153
 20
-9.5066
 30
0.0
 10
-16.0484
 20
-9.4385
 30
0.0
 10
-15.9659
 20
-9.4385
 30
0.0
  0
SPLINE
  5
B2
330
1F
100
AcDbEntity
  8
Layer 1
 62
   240
100
AcDbSpline
210
0.0
220
0.0
230
1.0
 70
    11
 71
     3
 72
    32
 73
    28
 74
     0
 42
0.0000000001
 43
0.0000000001
 40
0.0
 40
0.0
 40
0.0
 40
0.0
 40
0.1111111111111111
 40
0.1111111111111111
 40
0.1111111111111111
 40
0.2222222222222222
 40
0.2222222222222222
 40
0.2222222222222222
 40
0.3333333333333333
 40
0.3333333333333333
 40
0.3333333333333333
 40
0.4444444444444444
 40
0.4444444444444444
 40
0.4444444444444444
 40
0.5555555555555556
 40
0.5555555555555556
 40
0.5555555555555556
 40
0.6666666666666666
 40
0.6666666666666666
 40
0.6666666666666666
 40
0.7777777777777777
 40
0.7777777777777777
 40
0.7777777777777777
 40
0.8888888888888888
 40
0.8888888888888888
 40
0.8888888888888888
 40
1.0
 40
1.0
 40
1.0
 40
1.0
 10
-17.3842
 20
-9.2058
 30
0.0
 10
-17.3842
 20
-9.2058
 30
0.0
 10
-17.3842
 20
-9.2062
 30
0.0
 10
-17.3842
 20
-9.2062
 30
0.0
 10
-17.3842
 20
-9.2062
 30
0.0
 10
-14.4404
 20
-9.1967
 30
0.0
 10
-14.4404
 20
-9.1967
 30
0.0
 10
-14.3785
 20
-7.8021
 30
0.0
 10
-14.4526
 20
-5.9522
 30
0.0
 10
-14.4279
 20
-4.4628
 30
0.0
 10
-14.4279
 20
-4.4628
 30
0.0
 10
-17.3965
 20
-4.4344
 30
0.0
 10
-17.3965
 20
-4.4344
 30
0.0
 10
-17.3965
 20
-4.4344
 30
0.0
 10
-17.3965
 20
-4.4355
 30
0.0
 10
-17.3965
 20
-4.4355
 30
0.0
 10
-17.3965
 20
-4.4355
 30
0.0
 10
-17.517
 20
-4.4344
 30
0.0
 10
-17.517
 20
-4.4344
 30
0.0
 10
-17.517
 20
-4.4344
 30
0.0
 10
-17.517
 20
-6.3317
 30
0.0
 10
-17.517
 20
-6.3317
 30
0.0
 10
-17.517
 20
-6.3317
 30
0.0
 10
-17.5046
 20
-9.2062
 30
0.0
 10
-17.5046
 20
-9.2062
 30
0.0
 10
-17.5046
 20
-9.2062
 30
0.0
 10
-17.3842
 20
-9.2058
 30
0.0
 10
-17.3842
 20
-9.2058
 30
0.0
  0
SPLINE
  5
B3
330
1F
100
AcDbEntity
  8
Layer 1
 62
   240
100
AcDbSpline
210
0.0
220
0.0
230
1.0
 70
    11
 71
     3
 72
    41
 73
    37
 74
     0
 42
0.0000000001
 43
0.0000000001
 40
0.0
 40
0.0
 40
0.0
 40
0.0
 40
0.0833333333333333
 40
0.0833333333333333
 40
0.0833333333333333
 40
0.1666666666666667
 40
0.1666666666666667
 40
0.1666666666666667
 40
0.25
 40
0.25
 40
0.25
 40
0.3333333333333333
 40
0.3333333333333333
 40
0.3333333333333333
 40
0.4166666666666666
 40
0.4166666666666666
 40
0.4166666666666666
 40
0.5
 40
0.5
 40
0.5
 40
0.5833333333333333
 40
0.5833333333333333
 40
0.5833333333333333
 40
0.6666666666666666
 40
0.6666666666666666
 40
0.6666666666666666
 40
0.75
 40
0.75
 40
0.75
 40
0.8333333333333333
 40
0.8333333333333333
 40
0.8333333333333333
 40
0.9166666666666666
 40
0.9166666666666666
 40
0.9166666666666666
 40
1.0
 40
1.0
 40
1.0
 40
1.0
 10
-14.9298
 20
-16.6989
 30
0.0
 10
-14.9298
 20
-16.6989
 30
0.0
 10
-17.002
 20
-16.6989
 30
0.0
 10
-17.002
 20
-16.6989
 30
0.0
 10
-17.3498
 20
-16.6989
 30
0.0
 10
-17.6648
 20
-16.5578
 30
0.0
 10
-17.8927
 20
-16.3299
 30
0.0
 10
-18.1207
 20
-16.1019
 30
0.0
 10
-18.2618
 20
-15.7869
 30
0.0
 10
-18.2618
 20
-15.4391
 30
0.0
 10
-18.2618
 20
-15.4391
 30
0.0
 10
-18.2618
 20
-13.3666
 30
0.0
 10
-18.2618
 20
-13.3666
 30
0.0
 10
-18.2618
 20
-13.0197
 30
0.0
 10
-18.1206
 20
-12.7046
 30
0.0
 10
-17.8924
 20
-12.4765
 30
0.0
 10
-17.6648
 20
-12.2482
 30
0.0
 10
-17.3497
 20
-12.1072
 30
0.0
 10
-17.002
 20
-12.1072
 30
0.0
 10
-17.002
 20
-12.1072
 30
0.0
 10
-14.9298
 20
-12.1072
 30
0.0
 10
-14.9298
 20
-12.1072
 30
0.0
 10
-14.5821
 20
-12.1072
 30
0.0
 10
-14.267
 20
-12.2482
 30
0.0
 10
-14.0391
 20
-12.4761
 30
0.0
 10
-13.8113
 20
-12.7046
 30
0.0
 10
-13.6701
 20
-13.0197
 30
0.0
 10
-13.6701
 20
-13.3666
 30
0.0
 10
-13.6701
 20
-13.3666
 30
0.0
 10
-13.6701
 20
-15.4391
 30
0.0
 10
-13.6701
 20
-15.4391
 30
0.0
 10
-13.6701
 20
-15.7869
 30
0.0
 10
-13.8111
 20
-16.1019
 30
0.0
 10
-14.0391
 20
-16.3299
 30
0.0
 10
-14.2676
 20
-16.5577
 30
0.0
 10
-14.5827
 20
-16.6989
 30
0.0
 10
-14.9298
 20
-16.6989
 30
0.0
  0
SPLINE
  5
B4
330
1F
100
AcDbEntity
  8
Layer 1
 62
   240
100
AcDbSpline
210
0.0
220
0.0
230
1.0
 70
    11
 71
     3
 72
    17
 73
    13
 74
     0
 42
0.0000000001
 43
0.0000000001
 40
0.0
 40
0.0
 40
0.0
 40
0.0
 40
0.25
 40
0.25
 40
0.25
 40
0.5
 40
0.5
 40
0.5
 40
0.75
 40
0.75
 40
0.75
 40
1.0
 40
1.0
 40
1.0
 40
1.0
 10
-14.5141
 20
-13.0624
 30
0.0
 10
-14.5141
 20
-13.2226
 30
0.0
 10
-14.644
 20
-13.3525
 30
0.0
 10
-14.8041
 20
-13.3525
 30
0.0
 10
-14.9645
 20
-13.3525
 30
0.0
 10
-15.0944
 20
-13.2226
 30
0.0
 10
-15.0944
 20
-13.0624
 30
0.0
 10
-15.0944
 20
-12.9022
 30
0.0
 10
-14.9645
 20
-12.772
 30
0.0
 10
-14.8041
 20
-12.772
 30
0.0
 10
-14.644
 20
-12.772
 30
0.0
 10
-14.5141
 20
-12.9022
 30
0.0
 10
-14.5141
 20
-13.0624
 30
0.0
  0
SPLINE
  5
B5
330
1F
100
AcDbEntity
  8
Layer 1
 62
   240
100
AcDbSpline
210
0.0
220
0.0
230
1.0
 70
    11
 71
     3
 72
    29
 73
    25
 74
     0
 42
0.0000000001
 43
0.0000000001
 40
0.0
 40
0.0
 40
0.0
 40
0.0
 40
0.125
 40
0.125
 40
0.125
 40
0.25
 40
0.25
 40
0.25
 40
0.375
 40
0.375
 40
0.375
 40
0.5
 40
0.5
 40
0.5
 40
0.625
 40
0.625
 40
0.625
 40
0.75
 40
0.75
 40
0.75
 40
0.875
 40
0.875
 40
0.875
 40
1.0
 40
1.0
 40
1.0
 40
1.0
 10
-14.8958
 20
-14.4323
 30
0.0
 10
-14.8958
 20
-14.7398
 30
0.0
 10
-15.0205
 20
-15.0183
 30
0.0
 10
-15.2221
 20
-15.2198
 30
0.0
 10
-15.4237
 20
-15.4214
 30
0.0
 10
-15.7021
 20
-15.5462
 30
0.0
 10
-16.0096
 20
-15.5462
 30
0.0
 10
-16.3171
 20
-15.5462
 30
0.0
 10
-16.5957
 20
-15.4215
 30
0.0
 10
-16.7973
 20
-15.2199
 30
0.0
 10
-16.9988
 20
-15.0184
 30
0.0
 10
-17.1235
 20
-14.7398
 30
0.0
 10
-17.1235
 20
-14.4323
 30
0.0
 10
-17.1235
 20
-14.1252
 30
0.0
 10
-16.9987
 20
-13.8466
 30
0.0
 10
-16.7972
 20
-13.6451
 30
0.0
 10
-16.5956
 20
-13.4429
 30
0.0
 10
-16.3171
 20
-13.3182
 30
0.0
 10
-16.0096
 20
-13.3182
 30
0.0
 10
-15.7028
 20
-13.3182
 30
0.0
 10
-15.4244
 20
-13.4431
 30
0.0
 10
-15.2225
 20
-13.6449
 30
0.0
 10
-15.0206
 20
-13.8462
 30
0.0
 10
-14.8958
 20
-14.1248
 30
0.0
 10
-14.8958
 20
-14.4323
 30
0.0
  0
SPLINE
  5
B6
330
1F
100
AcDbEntity
  8
Layer 1
 62
   240
100
AcDbSpline
210
0.0
220
0.0
230
1.0
 70
    11
 71
     3
 72
    29
 73
    25
 74
     0
 42
0.0000000001
 43
0.0000000001
 40
0.0
 40
0.0
 40
0.0
 40
0.0
 40
0.125
 40
0.125
 40
0.125
 40
0.25
 40
0.25
 40
0.25
 40
0.375
 40
0.375
 40
0.375
 40
0.5
 40
0.5
 40
0.5
 40
0.625
 40
0.625
 40
0.625
 40
0.75
 40
0.75
 40
0.75
 40
0.875
 40
0.875
 40
0.875
 40
1.0
 40
1.0
 40
1.0
 40
1.0
 10
-15.4351
 20
-15.0068
 30
0.0
 10
-15.2882
 20
-14.8598
 30
0.0
 10
-15.1972
 20
-14.6567
 30
0.0
 10
-15.1972
 20
-14.4323
 30
0.0
 10
-15.1972
 20
-14.208
 30
0.0
 10
-15.2882
 20
-14.0046
 30
0.0
 10
-15.4351
 20
-13.8576
 30
0.0
 10
-15.5818
 20
-13.7104
 30
0.0
 10
-15.7849
 20
-13.6195
 30
0.0
 10
-16.0096
 20
-13.6195
 30
0.0
 10
-16.2339
 20
-13.6195
 30
0.0
 10
-16.4372
 20
-13.7105
 30
0.0
 10
-16.5843
 20
-13.8575
 30
0.0
 10
-16.7312
 20
-14.0042
 30
0.0
 10
-16.8222
 20
-14.2076
 30
0.0
 10
-16.8222
 20
-14.4323
 30
0.0
 10
-16.8222
 20
-14.6567
 30
0.0
 10
-16.7312
 20
-14.8599
 30
0.0
 10
-16.5843
 20
-15.0069
 30
0.0
 10
-16.4373
 20
-15.1539
 30
0.0
 10
-16.2339
 20
-15.2448
 30
0.0
 10
-16.0096
 20
-15.2448
 30
0.0
 10
-15.7852
 20
-15.2448
 30
0.0
 10
-15.5821
 20
-15.1538
 30
0.0
 10
-15.4351
 20
-15.0068
 30
0.0
  0
SPLINE
  5
B7
330
1F
100
AcDbEntity
  8
Layer 1
 62
   240
100
AcDbSpline
210
0.0
220
0.0
230
1.0
 70
    11
 71
     3
 72
    41
 73
    37
 74
     0
 42
0.0000000001
 43
0.0000000001
 40
0.0
 40
0.0
 40
0.0
 40
0.0
 40
0.0833333333333333
 40
0.0833333333333333
 40
0.0833333333333333
 40
0.1666666666666667
 40
0.1666666666666667
 40
0.1666666666666667
 40
0.25
 40
0.25
 40
0.25
 40
0.3333333333333333
 40
0.3333333333333333
 40
0.3333333333333333
 40
0.4166666666666666
 40
0.4166666666666666
 40
0.4166666666666666
 40
0.5
 40
0.5
 40
0.5
 40
0.5833333333333333
 40
0.5833333333333333
 40
0.5833333333333333
 40
0.6666666666666666
 40
0.6666666666666666
 40
0.6666666666666666
 40
0.75
 40
0.75
 40
0.75
 40
0.8333333333333333
 40
0.8333333333333333
 40
0.8333333333333333
 40
0.9166666666666666
 40
0.9166666666666666
 40
0.9166666666666666
 40
1.0
 40
1.0
 40
1.0
 40
1.0
 10
-17.002
 20
-16.3976
 30
0.0
 10
-17.002
 20
-16.3976
 30
0.0
 10
-14.9298
 20
-16.3976
 30
0.0
 10
-14.9298
 20
-16.3976
 30
0.0
 10
-14.6647
 20
-16.3976
 30
0.0
 10
-14.425
 20
-16.2904
 30
0.0
 10
-14.2521
 20
-16.1174
 30
0.0
 10
-14.0787
 20
-15.9435
 30
0.0
 10
-13.9714
 20
-15.7038
 30
0.0
 10
-13.9714
 20
-15.4391
 30
0.0
 10
-13.9714
 20
-15.4391
 30
0.0
 10
-13.9714
 20
-13.3666
 30
0.0
 10
-13.9714
 20
-13.3666
 30
0.0
 10
-13.9714
 20
-13.1016
 30
0.0
 10
-14.0786
 20
-12.862
 30
0.0
 10
-14.2515
 20
-12.6892
 30
0.0
 10
-14.4255
 20
-12.5158
 30
0.0
 10
-14.6651
 20
-12.4085
 30
0.0
 10
-14.9298
 20
-12.4085
 30
0.0
 10
-14.9298
 20
-12.4085
 30
0.0
 10
-17.002
 20
-12.4085
 30
0.0
 10
-17.002
 20
-12.4085
 30
0.0
 10
-17.2666
 20
-12.4085
 30
0.0
 10
-17.5064
 20
-12.5158
 30
0.0
 10
-17.6797
 20
-12.6892
 30
0.0
 10
-17.8533
 20
-12.862
 30
0.0
 10
-17.9606
 20
-13.1016
 30
0.0
 10
-17.9606
 20
-13.3666
 30
0.0
 10
-17.9606
 20
-13.3666
 30
0.0
 10
-17.9606
 20
-15.4391
 30
0.0
 10
-17.9606
 20
-15.4391
 30
0.0
 10
-17.9606
 20
-15.7038
 30
0.0
 10
-17.8531
 20
-15.9435
 30
0.0
 10
-17.6797
 20
-16.1169
 30
0.0
 10
-17.5064
 20
-16.2902
 30
0.0
 10
-17.2667
 20
-16.3976
 30
0.0
 10
-17.002
 20
-16.3976
 30
0.0
  0
SPLINE
  5
B8
330
1F
100
AcDbEntity
  8
Layer 1
 62
   250
370
    18
100
AcDbSpline
210
0.0
220
0.0
230
1.0
 70
    11
 71
     3
 72
    29
 73
    25
 74
     0
 42
0.0000000001
 43
0.0000000001
 40
0.0
 40
0.0
 40
0.0
 40
0.0
 40
0.125
 40
0.125
 40
0.125
 40
0.25
 40
0.25
 40
0.25
 40
0.375
 40
0.375
 40
0.375
 40
0.5
 40
0.5
 40
0.5
 40
0.625
 40
0.625
 40
0.625
 40
0.75
 40
0.75
 40
0.75
 40
0.875
 40
0.875
 40
0.875
 40
1.0
 40
1.0
 40
1.0
 40
1.0
 10
-21.0
 20
25.0
 30
0.0
 10
-21.0
 20
25.0
 30
0.0
 10
21.0
 20
25.0
 30
0.0
 10
21.0
 20
25.0
 30
0.0
 10
23.2
 20
25.0
 30
0.0
 10
25.0
 20
23.2
 30
0.0
 10
25.0
 20
21.0001
 30
0.0
 10
25.0
 20
21.0001
 30
0.0
 10
25.0
 20
-21.0001
 30
0.0
 10
25.0
 20
-21.0001
 30
0.0
 10
25.0
 20
-23.2
 30
0.0
 10
23.2
 20
-25.0
 30
0.0
 10
21.0
 20
-25.0
 30
0.0
 10
21.0
 20
-25.0
 30
0.0
 10
-21.0
 20
-25.0
 30
0.0
 10
-21.0
 20
-25.0
 30
0.0
 10
-23.2
 20
-25.0
 30
0.0
 10
-25.0
 20
-23.2
 30
0.0
 10
-25.0
 20
-21.0001
 30
0.0
 10
-25.0
 20
-21.0001
 30
0.0
 10
-25.0
 20
21.0001
 30
0.0
 10
-25.0
 20
21.0001
 30
0.0
 10
-25.0
 20
23.2
 30
0.0
 10
-23.2
 20
25.0
 30
0.0
 10
-21.0
 20
25.0
 30
0.0
  0
ENDSEC
  0
SECTION
  2
OBJECTS
  0
DICTIONARY
  5
C
330
0
100
AcDbDictionary
281
     1
  3
ACAD_DETAILVIEWSTYLE
350
C0
  3
ACAD_GROUP
350
D
  3
ACAD_LAYOUT
350
1A
  3
ACAD_MATERIAL
350
43
  3
ACAD_MLEADERSTYLE
350
5B
  3
ACAD_MLINESTYLE
350
17
  3
ACAD_PLOTSETTINGS
350
19
  3
ACAD_PLOTSTYLENAME
350
E
  3
ACAD_SCALELIST
350
47
  3
ACAD_SECTIONVIEWSTYLE
350
C1
  3
ACAD_TABLESTYLE
350
59
  3
ACAD_VISUALSTYLE
350
2A
  3
ACDB_RECOMPOSE_DATA
350
BD
  3
AcDbVariableDictionary
350
B9
  0
SUN
  5
5D
330
29
100
AcDbSun
 90
        1
290
     0
 63
     7
421
 16777215
 40
1.0
291
     1
 91
  2455826
 92
 54000000
292
     0
 70
     2
 71
   256
280
     1
  0
DICTIONARY
  5
C0
102
{ACAD_REACTORS
330
C
102
}
330
C
100
AcDbDictionary
281
     1
  0
DICTIONARY
  5
D
102
{ACAD_REACTORS
330
C
102
}
330
C
100
AcDbDictionary
281
     1
  0
DICTIONARY
  5
1A
102
{ACAD_REACTORS
330
C
102
}
330
C
100
AcDbDictionary
281
     1
  3
Layout1
350
1E
  3
Layout2
350
26
  3
Model
350
22
  0
DICTIONARY
  5
43
102
{ACAD_REACTORS
330
C
102
}
330
C
100
AcDbDictionary
281
     1
  3
ByBlock
350
45
  3
ByLayer
350
44
  3
Global
350
46
  0
DICTIONARY
  5
5B
102
{ACAD_REACTORS
330
C
102
}
330
C
100
AcDbDictionary
281
     1
  3
Standard
350
5C
  0
DICTIONARY
  5
17
102
{ACAD_REACTORS
330
C
102
}
330
C
100
AcDbDictionary
281
     1
  3
Standard
350
18
  0
DICTIONARY
  5
19
102
{ACAD_REACTORS
330
C
102
}
330
C
100
AcDbDictionary
281
     1
  0
ACDBDICTIONARYWDFLT
  5
E
102
{ACAD_REACTORS
330
C
102
}
330
C
100
AcDbDictionary
281
     1
  3
Normal
350
F
100
AcDbDictionaryWithDefault
340
F
  0
DICTIONARY
  5
47
102
{ACAD_REACTORS
330
C
102
}
330
C
100
AcDbDictionary
281
     1
  3
A0
350
48
  3
A1
350
49
  3
A2
350
4A
  3
A3
350
4B
  3
A4
350
4C
  3
A5
350
4D
  3
A6
350
4E
  3
A7
350
4F
  3
A8
350
50
  3
A9
350
51
  3
B1
350
52
  3
B2
350
53
  3
B3
350
54
  3
B4
350
55
  3
B5
350
56
  3
B6
350
57
  3
B7
350
58
  0
DICTIONARY
  5
C1
102
{ACAD_REACTORS
330
C
102
}
330
C
100
AcDbDictionary
281
     1
  0
DICTIONARY
  5
59
102
{ACAD_REACTORS
330
C
102
}
330
C
100
AcDbDictionary
281
     1
  3
Standard
350
5A
  0
DICTIONARY
  5
2A
102
{ACAD_REACTORS
330
C
102
}
330
C
100
AcDbDictionary
281
     1
  3
2dWireframe
350
2F
  3
Basic
350
32
  3
Brighten
350
36
  3
ColorChange
350
3A
  3
Conceptual
350
34
  3
Dim
350
35
  3
EdgeColorOff
350
3D
  3
Facepattern
350
39
  3
Flat
350
2B
  3
FlatWithEdges
350
2C
  3
Gouraud
350
2D
  3
GouraudWithEdges
350
2E
  3
Hidden
350
31
  3
JitterOff
350
3B
  3
Linepattern
350
38
  3
OverhangOff
350
3C
  3
Realistic
350
33
  3
Shaded
350
42
  3
Shaded with edges
350
41
  3
Shades of Gray
350
3E
  3
Sketchy
350
3F
  3
Thicken
350
37
  3
Wireframe
350
30
  3
X-Ray
350
40
  0
XRECORD
  5
BD
102
{ACAD_REACTORS
330
C
102
}
330
C
100
AcDbXrecord
280
     1
 90
        1
330
5A
  0
DICTIONARY
  5
B9
102
{ACAD_REACTORS
330
C
102
}
330
C
100
AcDbDictionary
281
     1
  3
CANNOSCALE
350
BA
  3
CMLEADERSTYLE
350
BF
  3
CTABLESTYLE
350
BE
  0
LAYOUT
  5
1E
102
{ACAD_REACTORS
330
1A
102
}
330
1A
100
AcDbPlotSettings
  1

  2
none_device
  4

  6

 40
0.0
 41
0.0
 42
0.0
 43
0.0
 44
0.0
 45
0.0
 46
0.0
 47
0.0
 48
0.0
 49
0.0
140
0.0
141
0.0
142
1.0
143
1.0
 70
   688
 72
     0
 73
     0
 74
     5
  7

 75
    16
 76
     0
 77
     2
 78
   300
147
1.0
148
0.0
149
0.0
100
AcDbLayout
  1
Layout1
 70
     1
 71
     1
 10
0.0
 20
0.0
 11
12.0
 21
9.0
 12
0.0
 22
0.0
 32
0.0
 14
1.000000000000000E+20
 24
1.000000000000000E+20
 34
1.000000000000000E+20
 15
-1.000000000000000E+20
 25
-1.000000000000000E+20
 35
-1.000000000000000E+20
146
0.0
 13
0.0
 23
0.0
 33
0.0
 16
1.0
 26
0.0
 36
0.0
 17
0.0
 27
1.0
 37
0.0
 76
     0
330
1B
  0
LAYOUT
  5
26
102
{ACAD_REACTORS
330
1A
102
}
330
1A
100
AcDbPlotSettings
  1

  2
none_device
  4

  6

 40
0.0
 41
0.0
 42
0.0
 43
0.0
 44
0.0
 45
0.0
 46
0.0
 47
0.0
 48
0.0
 49
0.0
140
0.0
141
0.0
142
1.0
143
1.0
 70
   688
 72
     0
 73
     0
 74
     5
  7

 75
    16
 76
     0
 77
     2
 78
   300
147
1.0
148
0.0
149
0.0
100
AcDbLayout
  1
Layout2
 70
     1
 71
     2
 10
0.0
 20
0.0
 11
0.0
 21
0.0
 12
0.0
 22
0.0
 32
0.0
 14
0.0
 24
0.0
 34
0.0
 15
0.0
 25
0.0
 35
0.0
146
0.0
 13
0.0
 23
0.0
 33
0.0
 16
1.0
 26
0.0
 36
0.0
 17
0.0
 27
1.0
 37
0.0
 76
     0
330
23
  0
LAYOUT
  5
22
102
{ACAD_REACTORS
330
1A
102
}
330
1A
100
AcDbPlotSettings
  1

  2
none_device
  4
Letter_(8.50_x_11.00_Inches)
  6

 40
6.35
 41
6.35
 42
6.35000508
 43
6.35000508
 44
215.9
 45
279.4
 46
0.0
 47
0.0
 48
0.0
 49
0.0
140
0.0
141
0.0
142
1.0
143
1.0
 70
  1712
 72
     0
 73
     0
 74
     0
  7

 75
     0
 76
     0
 77
     2
 78
   300
147
1.0
148
0.0
149
0.0
100
AcDbLayout
  1
Model
 70
     1
 71
     0
 10
0.0
 20
0.0
 11
12.0
 21
9.0
 12
0.0
 22
0.0
 32
0.0
 14
-25.09
 24
-25.09
 34
0.0
 15
25.09
 25
25.09
 35
0.0
146
0.0
 13
0.0
 23
0.0
 33
0.0
 16
1.0
 26
0.0
 36
0.0
 17
0.0
 27
1.0
 37
0.0
 76
     0
330
1F
331
29
  0
MATERIAL
  5
45
102
{ACAD_REACTORS
330
43
102
}
330
43
100
AcDbMaterial
  1
ByBlock
 72
     1
 94
      127
  0
MATERIAL
  5
44
102
{ACAD_REACTORS
330
43
102
}
330
43
100
AcDbMaterial
  1
ByLayer
 72
     1
 94
      127
  0
MATERIAL
  5
46
102
{ACAD_REACTORS
330
43
102
}
330
43
100
AcDbMaterial
  1
Global
 72
     1
 94
      127
  0
MLEADERSTYLE
  5
5C
102
{ACAD_REACTORS
330
5B
102
}
330
5B
100
AcDbMLeaderStyle
179
     2
170
     2
171
     1
172
     0
 90
        2
 40
0.0
 41
0.0
173
     1
 91
-1056964608
340
14
 92
       -2
290
     1
 42
0.09
291
     1
 43
0.36
  3
Standard
341
0
 44
0.18
300

342
11
174
     1
178
     6
175
     1
176
     0
 93
-1056964608
 45
0.18
292
     0
297
     0
 46
0.18
343
0
 94
-1056964608
 47
1.0
 49
1.0
140
1.0
293
     1
141
0.0
294
     1
177
     0
142
1.0
295
     0
296
     0
143
0.125
271
     0
272
     9
273
     9
298
     0
  0
MLINESTYLE
  5
18
102
{ACAD_REACTORS
330
17
102
}
330
17
100
AcDbMlineStyle
  2
Standard
 70
     0
  3

 62
   256
 51
90.0
 52
90.0
 71
     2
 49
0.5
 62
   256
  6
BYLAYER
 49
-0.5
 62
   256
  6
BYLAYER
  0
ACDBPLACEHOLDER
  5
F
102
{ACAD_REACTORS
330
E
102
}
330
E
  0
SCALE
  5
48
102
{ACAD_REACTORS
330
47
102
}
330
47
100
AcDbScale
 70
     0
300
1:1
140
1.0
141
1.0
290
     1
  0
SCALE
  5
49
102
{ACAD_REACTORS
330
47
102
}
330
47
100
AcDbScale
 70
     0
300
1/128" = 1'-0"
140
0.0078125
141
12.0
290
     0
  0
SCALE
  5
4A
102
{ACAD_REACTORS
330
47
102
}
330
47
100
AcDbScale
 70
     0
300
1/64" = 1'-0"
140
0.015625
141
12.0
290
     0
  0
SCALE
  5
4B
102
{ACAD_REACTORS
330
47
102
}
330
47
100
AcDbScale
 70
     0
300
1/32" = 1'-0"
140
0.03125
141
12.0
290
     0
  0
SCALE
  5
4C
102
{ACAD_REACTORS
330
47
102
}
330
47
100
AcDbScale
 70
     0
300
1/16" = 1'-0"
140
0.0625
141
12.0
290
     0
  0
SCALE
  5
4D
102
{ACAD_REACTORS
330
47
102
}
330
47
100
AcDbScale
 70
     0
300
3/32" = 1'-0"
140
0.09375
141
12.0
290
     0
  0
SCALE
  5
4E
102
{ACAD_REACTORS
330
47
102
}
330
47
100
AcDbScale
 70
     0
300
1/8" = 1'-0"
140
0.125
141
12.0
290
     0
  0
SCALE
  5
4F
102
{ACAD_REACTORS
330
47
102
}
330
47
100
AcDbScale
 70
     0
300
3/16" = 1'-0"
140
0.1875
141
12.0
290
     0
  0
SCALE
  5
50
102
{ACAD_REACTORS
330
47
102
}
330
47
100
AcDbScale
 70
     0
300
1/4" = 1'-0"
140
0.25
141
12.0
290
     0
  0
SCALE
  5
51
102
{ACAD_REACTORS
330
47
102
}
330
47
100
AcDbScale
 70
     0
300
3/8" = 1'-0"
140
0.375
141
12.0
290
     0
  0
SCALE
  5
52
102
{ACAD_REACTORS
330
47
102
}
330
47
100
AcDbScale
 70
     0
300
1/2" = 1'-0"
140
0.5
141
12.0
290
     0
  0
SCALE
  5
53
102
{ACAD_REACTORS
330
47
102
}
330
47
100
AcDbScale
 70
     0
300
3/4" = 1'-0"
140
0.75
141
12.0
290
     0
  0
SCALE
  5
54
102
{ACAD_REACTORS
330
47
102
}
330
47
100
AcDbScale
 70
     0
300
1" = 1'-0"
140
1.0
141
12.0
290
     0
  0
SCALE
  5
55
102
{ACAD_REACTORS
330
47
102
}
330
47
100
AcDbScale
 70
     0
300
1-1/2" = 1'-0"
140
1.5
141
12.0
290
     0
  0
SCALE
  5
56
102
{ACAD_REACTORS
330
47
102
}
330
47
100
AcDbScale
 70
     0
300
3" = 1'-0"
140
3.0
141
12.0
290
     0
  0
SCALE
  5
57
102
{ACAD_REACTORS
330
47
102
}
330
47
100
AcDbScale
 70
     0
300
6" = 1'-0"
140
6.0
141
12.0
290
     0
  0
SCALE
  5
58
102
{ACAD_REACTORS
330
47
102
}
330
47
100
AcDbScale
 70
     0
300
1'-0" = 1'-0"
140
12.0
141
12.0
290
     0
  0
TABLESTYLE
  5
5A
102
{ACAD_REACTORS
330
59
102
}
102
{ACAD_XDICTIONARY
360
BB
102
}
330
59
100
AcDbTableStyle
  3
Standard
 70
     0
 71
     0
 40
0.06
 41
0.06
280
     0
281
     0
  7
Standard
140
0.18
170
     2
 62
     0
 63
   257
283
     0
 90
        4
 91
        0
  1

274
    -2
284
     1
 64
     0
275
    -2
285
     1
 65
     0
276
    -2
286
     1
 66
     0
277
    -2
287
     1
 67
     0
278
    -2
288
     1
 68
     0
279
    -2
289
     1
 69
     0
  7
Standard
140
0.25
170
     5
 62
     0
 63
   257
283
     0
 90
        4
 91
        0
  1

274
    -2
284
     1
 64
     0
275
    -2
285
     1
 65
     0
276
    -2
286
     1
 66
     0
277
    -2
287
     1
 67
     0
278
    -2
288
     1
 68
     0
279
    -2
289
     1
 69
     0
  7
Standard
140
0.18
170
     5
 62
     0
 63
   257
283
     0
 90
        4
 91
        0
  1

274
    -2
284
     1
 64
     0
275
    -2
285
     1
 65
     0
276
    -2
286
     1
 66
     0
277
    -2
287
     1
 67
     0
278
    -2
288
     1
 68
     0
279
    -2
289
     1
 69
     0
  0
VISUALSTYLE
  5
2F
102
{ACAD_REACTORS
330
2A
102
}
330
2A
100
AcDbVisualStyle
  2
2dWireframe
 70
     4
177
     3
291
     0
 70
    58
 90
        0
176
     1
 90
        2
176
     1
 90
        0
176
     1
 90
        0
176
     1
 40
0.6
176
     1
 40
30.0
176
     1
 62
     7
420
 16777215
176
     1
 90
        1
176
     1
 90
        4
176
     1
 62
     7
176
     1
 62
   257
176
     1
 90
        1
176
     1
 90
        1
176
     1
 40
1.0
176
     1
 90
        0
176
     1
 62
   257
176
     1
 40
1.0
176
     1
 90
        1
176
     1
 90
        6
176
     1
 90
        2
176
     1
 62
     7
176
     1
 90
        5
176
     1
 90
        0
176
     1
 90
        0
176
     1
290
     0
176
     1
 90
        1
176
     1
 40
0.0
176
     1
 90
        0
176
     1
290
     1
176
     1
290
     1
176
     1
290
     0
176
     1
290
     0
176
     1
290
     0
176
     1
290
     0
176
     1
290
     0
176
     1
290
     0
176
     1
290
     0
176
     1
 90
       50
176
     1
 40
0.0
176
     1
 40
1.0
176
     1
 90
        0
176
     1
 62
    18
420
        0
176
     1
 90
       50
176
     1
 90
        3
176
     1
 62
     5
420
      255
176
     1
290
     0
176
     1
 90
       50
176
     1
 90
       50
176
     1
 90
       50
176
     1
290
     0
176
     1
 90
       50
176
     1
 62
   256
176
     0
 40
1.0
176
     0
 90
        2
176
     1
  1
strokes_ogs.tif
176
     1
290
     0
176
     1
 40
1.0
176
     1
 40
1.0
176
     1
  0
VISUALSTYLE
  5
32
102
{ACAD_REACTORS
330
2A
102
}
330
2A
100
AcDbVisualStyle
  2
Basic
 70
     7
177
     3
291
     1
 70
    58
 90
        1
176
     1
 90
        0
176
     1
 90
        1
176
     1
 90
        0
176
     1
 40
0.6
176
     1
 40
30.0
176
     1
 62
     7
420
 16777215
176
     1
 90
        0
176
     1
 90
        4
176
     1
 62
     7
176
     1
 62
   257
176
     1
 90
        1
176
     1
 90
        1
176
     1
 40
1.0
176
     1
 90
        8
176
     1
 62
     7
176
     1
 40
1.0
176
     1
 90
        1
176
     1
 90
        6
176
     1
 90
        2
176
     1
 62
     7
176
     1
 90
        5
176
     1
 90
        0
176
     1
 90
        0
176
     1
290
     0
176
     1
 90
        1
176
     1
 40
0.0
176
     1
 90
        0
176
     1
290
     0
176
     1
290
     1
176
     1
290
     1
176
     1
290
     0
176
     1
290
     0
176
     1
290
     0
176
     1
290
     0
176
     1
290
     0
176
     1
290
     0
176
     1
 90
       50
176
     1
 40
0.0
176
     1
 40
1.0
176
     1
 90
        0
176
     1
 62
    18
420
        0
176
     1
 90
       50
176
     1
 90
        3
176
     1
 62
     5
420
      255
176
     1
290
     0
176
     1
 90
       50
176
     1
 90
       50
176
     1
 90
       50
176
     1
290
     0
176
     1
 90
       50
176
     1
 62
   256
176
     0
 40
1.0
176
     0
 90
        2
176
     1
  1
strokes_ogs.tif
176
     1
290
     0
176
     1
 40
1.0
176
     1
 40
1.0
176
     1
  0
VISUALSTYLE
  5
36
102
{ACAD_REACTORS
330
2A
102
}
330
2A
100
AcDbVisualStyle
  2
Brighten
 70
    12
177
     3
291
     1
 70
    58
 90
        2
176
     1
 90
        2
176
     1
 90
        0
176
     1
 90
        0
176
     1
 40
0.6
176
     1
 40
30.0
176
     1
 62
     7
420
 16777215
176
     1
 90
        1
176
     1
 90
        4
176
     1
 62
     7
176
     1
 62
   257
176
     1
 90
        1
176
     1
 90
        1
176
     1
 40
1.0
176
     1
 90
        8
176
     1
 62
     7
176
     1
 40
1.0
176
     1
 90
        1
176
     1
 90
        6
176
     1
 90
        2
176
     1
 62
     7
176
     1
 90
        5
176
     1
 90
        0
176
     1
 90
        0
176
     1
290
     0
176
     1
 90
        1
176
     1
 40
50.0
176
     1
 90
        0
176
     1
290
     0
176
     1
290
     1
176
     1
290
     1
176
     1
290
     0
176
     1
290
     0
176
     1
290
     0
176
     1
290
     0
176
     1
290
     0
176
     1
290
     0
176
     1
 90
       50
176
     1
 40
0.0
176
     1
 40
1.0
176
     1
 90
        0
176
     1
 62
    18
420
        0
176
     1
 90
       50
176
     1
 90
        3
176
     1
 62
     5
420
      255
176
     1
290
     0
176
     1
 90
       50
176
     1
 90
       50
176
     1
 90
       50
176
     1
290
     0
176
     1
 90
       50
176
     1
 62
   256
176
     0
 40
1.0
176
     0
 90
        2
176
     1
  1
strokes_ogs.tif
176
     1
290
     0
176
     1
 40
1.0
176
     1
 40
1.0
176
     1
  0
VISUALSTYLE
  5
3A
102
{ACAD_REACTORS
330
2A
102
}
330
2A
100
AcDbVisualStyle
  2
ColorChange
 70
    16
177
     3
291
     1
 70
    58
 90
        2
176
     1
 90
        2
176
     1
 90
        3
176
     1
 90
        0
176
     1
 40
0.6
176
     1
 40
30.0
176
     1
 62
     8
420
  8421504
176
     1
 90
        1
176
     1
 90
        4
176
     1
 62
     7
176
     1
 62
   257
176
     1
 90
        1
176
     1
 90
        1
176
     1
 40
1.0
176
     1
 90
        8
176
     1
 62
     8
420
  8421504
176
     1
 40
1.0
176
     1
 90
        1
176
     1
 90
        6
176
     1
 90
        2
176
     1
 62
     7
176
     1
 90
        5
176
     1
 90
        0
176
     1
 90
        0
176
     1
290
     0
176
     1
 90
        1
176
     1
 40
0.0
176
     1
 90
        0
176
     1
290
     0
176
     1
290
     1
176
     1
290
     1
176
     1
290
     0
176
     1
290
     0
176
     1
290
     0
176
     1
290
     0
176
     1
290
     0
176
     1
290
     0
176
     1
 90
       50
176
     1
 40
0.0
176
     1
 40
1.0
176
     1
 90
        0
176
     1
 62
    18
420
        0
176
     1
 90
       50
176
     1
 90
        3
176
     1
 62
     5
420
      255
176
     1
290
     0
176
     1
 90
       50
176
     1
 90
       50
176
     1
 90
       50
176
     1
290
     0
176
     1
 90
       50
176
     1
 62
   256
176
     0
 40
1.0
176
     0
 90
        2
176
     1
  1
strokes_ogs.tif
176
     1
290
     0
176
     1
 40
1.0
176
     1
 40
1.0
176
     1
  0
VISUALSTYLE
  5
34
102
{ACAD_REACTORS
330
2A
102
}
330
2A
100
AcDbVisualStyle
  2
Conceptual
 70
     9
177
     3
291
     0
 70
    58
 90
        3
176
     1
 90
        2
176
     1
 90
        0
176
     1
 90
        0
176
     1
 40
0.6
176
     1
 40
30.0
176
     1
 62
     7
420
 16777215
176
     1
 90
        2
176
     1
 90
        2
176
     1
 62
     7
176
     1
 62
   257
176
     1
 90
        1
176
     1
 90
        1
176
     1
 40
179.0
176
     1
 90
        8
176
     1
 62
     7
176
     1
 40
1.0
176
     1
 90
        1
176
     1
 90
        6
176
     1
 90
        2
176
     1
 62
     7
176
     1
 90
        3
176
     1
 90
        0
176
     1
 90
        0
176
     1
290
     0
176
     1
 90
        1
176
     1
 40
0.0
176
     1
 90
        0
176
     1
290
     0
176
     1
290
     1
176
     1
290
     1
176
     1
290
     0
176
     1
290
     0
176
     1
290
     0
176
     1
290
     0
176
     1
290
     0
176
     1
290
     0
176
     1
 90
       50
176
     1
 40
0.0
176
     1
 40
1.0
176
     1
 90
        0
176
     1
 62
    18
420
        0
176
     1
 90
       50
176
     1
 90
        3
176
     1
 62
     5
420
      255
176
     1
290
     0
176
     1
 90
       50
176
     1
 90
       50
176
     1
 90
       50
176
     1
290
     0
176
     1
 90
       50
176
     1
 62
   256
176
     0
 40
1.0
176
     0
 90
        2
176
     1
  1
strokes_ogs.tif
176
     1
290
     0
176
     1
 40
1.0
176
     1
 40
1.0
176
     1
  0
VISUALSTYLE
  5
35
102
{ACAD_REACTORS
330
2A
102
}
330
2A
100
AcDbVisualStyle
  2
Dim
 70
    11
177
     3
291
     1
 70
    58
 90
        2
176
     1
 90
        2
176
     1
 90
        0
176
     1
 90
        0
176
     1
 40
0.6
176
     1
 40
30.0
176
     1
 62
     7
420
 16777215
176
     1
 90
        1
176
     1
 90
        4
176
     1
 62
     7
176
     1
 62
   257
176
     1
 90
        1
176
     1
 90
        1
176
     1
 40
1.0
176
     1
 90
        8
176
     1
 62
     7
176
     1
 40
1.0
176
     1
 90
        1
176
     1
 90
        6
176
     1
 90
        2
176
     1
 62
     7
176
     1
 90
        5
176
     1
 90
        0
176
     1
 90
        0
176
     1
290
     0
176
     1
 90
        1
176
     1
 40
-50.0
176
     1
 90
        0
176
     1
290
     0
176
     1
290
     1
176
     1
290
     1
176
     1
290
     0
176
     1
290
     0
176
     1
290
     0
176
     1
290
     0
176
     1
290
     0
176
     1
290
     0
176
     1
 90
       50
176
     1
 40
0.0
176
     1
 40
1.0
176
     1
 90
        0
176
     1
 62
    18
420
        0
176
     1
 90
       50
176
     1
 90
        3
176
     1
 62
     5
420
      255
176
     1
290
     0
176
     1
 90
       50
176
     1
 90
       50
176
     1
 90
       50
176
     1
290
     0
176
     1
 90
       50
176
     1
 62
   256
176
     0
 40
1.0
176
     0
 90
        2
176
     1
  1
strokes_ogs.tif
176
     1
290
     0
176
     1
 40
1.0
176
     1
 40
1.0
176
     1
  0
VISUALSTYLE
  5
3D
102
{ACAD_REACTORS
330
2A
102
}
330
2A
100
AcDbVisualStyle
  2
EdgeColorOff
 70
    22
177
     3
291
     1
 70
    58
 90
        2
176
     0
 90
        2
176
     0
 90
        0
176
     0
 90
        0
176
     0
 40
0.6
176
     0
 40
30.0
176
     0
 62
     7
420
 16777215
176
     0
 90
        1
176
     0
 90
        4
176
     0
 62
     7
176
     0
 62
   257
176
     0
 90
        1
176
     0
 90
        1
176
     0
 40
1.0
176
     0
 90
        8
176
     2
 62
     7
176
     0
 40
1.0
176
     0
 90
        1
176
     0
 90
        6
176
     0
 90
        2
176
     0
 62
     7
176
     0
 90
        5
176
     0
 90
        0
176
     0
 90
        0
176
     0
290
     0
176
     0
 90
        1
176
     0
 40
0.0
176
     0
 90
        0
176
     0
290
     0
176
     0
290
     1
176
     0
290
     1
176
     0
290
     0
176
     0
290
     0
176
     0
290
     0
176
     0
290
     0
176
     0
290
     0
176
     0
290
     0
176
     0
 90
       50
176
     0
 40
0.0
176
     0
 40
1.0
176
     0
 90
        0
176
     0
 62
    18
420
        0
176
     0
 90
       50
176
     0
 90
        3
176
     0
 62
     5
420
      255
176
     0
290
     0
176
     0
 90
       50
176
     0
 90
       50
176
     0
 90
       50
176
     0
290
     0
176
     0
 90
       50
176
     0
 62
   256
176
     0
 40
1.0
176
     0
 90
        2
176
     0
  1
strokes_ogs.tif
176
     0
290
     0
176
     0
 40
1.0
176
     0
 40
1.0
176
     0
  0
VISUALSTYLE
  5
39
102
{ACAD_REACTORS
330
2A
102
}
330
2A
100
AcDbVisualStyle
  2
Facepattern
 70
    15
177
     3
291
     1
 70
    58
 90
        2
176
     1
 90
        2
176
     1
 90
        0
176
     1
 90
        0
176
     1
 40
0.6
176
     1
 40
30.0
176
     1
 62
     7
420
 16777215
176
     1
 90
        1
176
     1
 90
        4
176
     1
 62
     7
176
     1
 62
   257
176
     1
 90
        1
176
     1
 90
        1
176
     1
 40
1.0
176
     1
 90
        8
176
     1
 62
     7
176
     1
 40
1.0
176
     1
 90
        1
176
     1
 90
        6
176
     1
 90
        2
176
     1
 62
     7
176
     1
 90
        5
176
     1
 90
        0
176
     1
 90
        0
176
     1
290
     0
176
     1
 90
        1
176
     1
 40
0.0
176
     1
 90
        0
176
     1
290
     0
176
     1
290
     1
176
     1
290
     1
176
     1
290
     0
176
     1
290
     0
176
     1
290
     0
176
     1
290
     0
176
     1
290
     0
176
     1
290
     0
176
     1
 90
       50
176
     1
 40
0.0
176
     1
 40
1.0
176
     1
 90
        0
176
     1
 62
    18
420
        0
176
     1
 90
       50
176
     1
 90
        3
176
     1
 62
     5
420
      255
176
     1
290
     0
176
     1
 90
       50
176
     1
 90
       50
176
     1
 90
       50
176
     1
290
     0
176
     1
 90
       50
176
     1
 62
   256
176
     0
 40
1.0
176
     0
 90
        2
176
     1
  1
strokes_ogs.tif
176
     1
290
     0
176
     1
 40
1.0
176
     1
 40
1.0
176
     1
  0
VISUALSTYLE
  5
2B
102
{ACAD_REACTORS
330
2A
102
}
330
2A
100
AcDbVisualStyle
  2
Flat
 70
     0
177
     3
291
     1
 70
    58
 90
        2
176
     1
 90
        1
176
     1
 90
        1
176
     1
 90
        2
176
     1
 40
0.6
176
     1
 40
30.0
176
     1
 62
     7
420
 16777215
176
     1
 90
        0
176
     1
 90
        0
176
     1
 62
     7
176
     1
 62
   257
176
     1
 90
        1
176
     1
 90
        1
176
     1
 40
1.0
176
     1
 90
        8
176
     1
 62
     7
176
     1
 40
1.0
176
     1
 90
        1
176
     1
 90
        6
176
     1
 90
        2
176
     1
 62
     7
176
     1
 90
        5
176
     1
 90
        0
176
     1
 90
        0
176
     1
290
     0
176
     1
 90
       13
176
     1
 40
0.0
176
     1
 90
        0
176
     1
290
     0
176
     1
290
     1
176
     1
290
     1
176
     1
290
     0
176
     1
290
     0
176
     1
290
     0
176
     1
290
     0
176
     1
290
     0
176
     1
290
     0
176
     1
 90
       50
176
     1
 40
0.0
176
     1
 40
1.0
176
     1
 90
        0
176
     1
 62
    18
420
        0
176
     1
 90
       50
176
     1
 90
        3
176
     1
 62
     5
420
      255
176
     1
290
     0
176
     1
 90
       50
176
     1
 90
       50
176
     1
 90
       50
176
     1
290
     0
176
     1
 90
       50
176
     1
 62
   256
176
     0
 40
1.0
176
     0
 90
        2
176
     1
  1
strokes_ogs.tif
176
     1
290
     0
176
     1
 40
1.0
176
     1
 40
1.0
176
     1
  0
VISUALSTYLE
  5
2C
102
{ACAD_REACTORS
330
2A
102
}
330
2A
100
AcDbVisualStyle
  2
FlatWithEdges
 70
     1
177
     3
291
     1
 70
    58
 90
        2
176
     1
 90
        1
176
     1
 90
        1
176
     1
 90
        2
176
     1
 40
0.6
176
     1
 40
30.0
176
     1
 62
     7
420
 16777215
176
     1
 90
        1
176
     1
 90
        0
176
     1
 62
     7
176
     1
 62
   257
176
     1
 90
        1
176
     1
 90
        1
176
     1
 40
1.0
176
     1
 90
        0
176
     1
 62
   257
176
     1
 40
1.0
176
     1
 90
        1
176
     1
 90
        6
176
     1
 90
        2
176
     1
 62
     7
176
     1
 90
        5
176
     1
 90
        0
176
     1
 90
        0
176
     1
290
     0
176
     1
 90
       13
176
     1
 40
0.0
176
     1
 90
        0
176
     1
290
     0
176
     1
290
     1
176
     1
290
     1
176
     1
290
     0
176
     1
290
     0
176
     1
290
     0
176
     1
290
     0
176
     1
290
     0
176
     1
290
     0
176
     1
 90
       50
176
     1
 40
0.0
176
     1
 40
1.0
176
     1
 90
        0
176
     1
 62
    18
420
        0
176
     1
 90
       50
176
     1
 90
        3
176
     1
 62
     5
420
      255
176
     1
290
     0
176
     1
 90
       50
176
     1
 90
       50
176
     1
 90
       50
176
     1
290
     0
176
     1
 90
       50
176
     1
 62
   256
176
     0
 40
1.0
176
     0
 90
        2
176
     1
  1
strokes_ogs.tif
176
     1
290
     0
176
     1
 40
1.0
176
     1
 40
1.0
176
     1
  0
VISUALSTYLE
  5
2D
102
{ACAD_REACTORS
330
2A
102
}
330
2A
100
AcDbVisualStyle
  2
Gouraud
 70
     2
177
     3
291
     1
 70
    58
 90
        2
176
     1
 90
        2
176
     1
 90
        1
176
     1
 90
        2
176
     1
 40
0.6
176
     1
 40
30.0
176
     1
 62
     7
420
 16777215
176
     1
 90
        0
176
     1
 90
        0
176
     1
 62
     7
176
     1
 62
   257
176
     1
 90
        1
176
     1
 90
        1
176
     1
 40
1.0
176
     1
 90
        0
176
     1
 62
     7
176
     1
 40
1.0
176
     1
 90
        1
176
     1
 90
        6
176
     1
 90
        2
176
     1
 62
     7
176
     1
 90
        5
176
     1
 90
        0
176
     1
 90
        0
176
     1
290
     0
176
     1
 90
       13
176
     1
 40
0.0
176
     1
 90
        0
176
     1
290
     0
176
     1
290
     1
176
     1
290
     1
176
     1
290
     0
176
     1
290
     0
176
     1
290
     0
176
     1
290
     0
176
     1
290
     0
176
     1
290
     0
176
     1
 90
       50
176
     1
 40
0.0
176
     1
 40
1.0
176
     1
 90
        0
176
     1
 62
    18
420
        0
176
     1
 90
       50
176
     1
 90
        3
176
     1
 62
     5
420
      255
176
     1
290
     0
176
     1
 90
       50
176
     1
 90
       50
176
     1
 90
       50
176
     1
290
     0
176
     1
 90
       50
176
     1
 62
   256
176
     0
 40
1.0
176
     0
 90
        2
176
     1
  1
strokes_ogs.tif
176
     1
290
     0
176
     1
 40
1.0
176
     1
 40
1.0
176
     1
  0
VISUALSTYLE
  5
2E
102
{ACAD_REACTORS
330
2A
102
}
330
2A
100
AcDbVisualStyle
  2
GouraudWithEdges
 70
     3
177
     3
291
     1
 70
    58
 90
        2
176
     1
 90
        2
176
     1
 90
        1
176
     1
 90
        2
176
     1
 40
0.6
176
     1
 40
30.0
176
     1
 62
     7
420
 16777215
176
     1
 90
        1
176
     1
 90
        0
176
     1
 62
     7
176
     1
 62
   257
176
     1
 90
        1
176
     1
 90
        1
176
     1
 40
1.0
176
     1
 90
        0
176
     1
 62
   257
176
     1
 40
1.0
176
     1
 90
        1
176
     1
 90
        6
176
     1
 90
        2
176
     1
 62
     7
176
     1
 90
        5
176
     1
 90
        0
176
     1
 90
        0
176
     1
290
     0
176
     1
 90
       13
176
     1
 40
0.0
176
     1
 90
        0
176
     1
290
     0
176
     1
290
     1
176
     1
290
     1
176
     1
290
     0
176
     1
290
     0
176
     1
290
     0
176
     1
290
     0
176
     1
290
     0
176
     1
290
     0
176
     1
 90
       50
176
     1
 40
0.0
176
     1
 40
1.0
176
     1
 90
        0
176
     1
 62
    18
420
        0
176
     1
 90
       50
176
     1
 90
        3
176
     1
 62
     5
420
      255
176
     1
290
     0
176
     1
 90
       50
176
     1
 90
       50
176
     1
 90
       50
176
     1
290
     0
176
     1
 90
       50
176
     1
 62
   256
176
     0
 40
1.0
176
     0
 90
        2
176
     1
  1
strokes_ogs.tif
176
     1
290
     0
176
     1
 40
1.0
176
     1
 40
1.0
176
     1
  0
VISUALSTYLE
  5
31
102
{ACAD_REACTORS
330
2A
102
}
330
2A
100
AcDbVisualStyle
  2
Hidden
 70
     6
177
     3
291
     0
 70
    58
 90
        1
176
     1
 90
        2
176
     1
 90
        2
176
     1
 90
        0
176
     1
 40
0.6
176
     1
 40
30.0
176
     1
 62
     7
420
 16777215
176
     1
 90
        2
176
     1
 90
        2
176
     1
 62
     7
176
     1
 62
   257
176
     1
 90
        2
176
     1
 90
        1
176
     1
 40
40.0
176
     1
 90
        0
176
     1
 62
   257
176
     1
 40
1.0
176
     1
 90
        1
176
     1
 90
        6
176
     1
 90
        2
176
     1
 62
     7
176
     1
 90
        3
176
     1
 90
        0
176
     1
 90
        0
176
     1
290
     0
176
     1
 90
        1
176
     1
 40
0.0
176
     1
 90
        0
176
     1
290
     0
176
     1
290
     1
176
     1
290
     1
176
     1
290
     0
176
     1
290
     0
176
     1
290
     0
176
     1
290
     0
176
     1
290
     0
176
     1
290
     0
176
     1
 90
       50
176
     1
 40
0.0
176
     1
 40
1.0
176
     1
 90
        0
176
     1
 62
    18
420
        0
176
     1
 90
       50
176
     1
 90
        3
176
     1
 62
     5
420
      255
176
     1
290
     0
176
     1
 90
       50
176
     1
 90
       50
176
     1
 90
       50
176
     1
290
     0
176
     1
 90
       50
176
     1
 62
   256
176
     0
 40
1.0
176
     0
 90
        2
176
     1
  1
strokes_ogs.tif
176
     1
290
     0
176
     1
 40
1.0
176
     1
 40
1.0
176
     1
  0
VISUALSTYLE
  5
3B
102
{ACAD_REACTORS
330
2A
102
}
330
2A
100
AcDbVisualStyle
  2
JitterOff
 70
    20
177
     3
291
     1
 70
    58
 90
        2
176
     0
 90
        2
176
     0
 90
        0
176
     0
 90
        0
176
     0
 40
0.6
176
     0
 40
30.0
176
     0
 62
     7
420
 16777215
176
     0
 90
        1
176
     0
 90
        4
176
     0
 62
     7
176
     0
 62
   257
176
     0
 90
        1
176
     0
 90
        1
176
     0
 40
1.0
176
     0
 90
       10
176
     2
 62
     7
176
     0
 40
1.0
176
     0
 90
        1
176
     0
 90
        6
176
     0
 90
        2
176
     0
 62
     7
176
     0
 90
        5
176
     0
 90
        0
176
     0
 90
        0
176
     0
290
     0
176
     0
 90
        1
176
     0
 40
0.0
176
     0
 90
        0
176
     0
290
     0
176
     0
290
     1
176
     0
290
     1
176
     0
290
     0
176
     0
290
     0
176
     0
290
     0
176
     0
290
     0
176
     0
290
     0
176
     0
290
     0
176
     0
 90
       50
176
     0
 40
0.0
176
     0
 40
1.0
176
     0
 90
        0
176
     0
 62
    18
420
        0
176
     0
 90
       50
176
     0
 90
        3
176
     0
 62
     5
420
      255
176
     0
290
     0
176
     0
 90
       50
176
     0
 90
       50
176
     0
 90
       50
176
     0
290
     0
176
     0
 90
       50
176
     0
 62
   256
176
     0
 40
1.0
176
     0
 90
        2
176
     0
  1
strokes_ogs.tif
176
     0
290
     0
176
     0
 40
1.0
176
     0
 40
1.0
176
     0
  0
VISUALSTYLE
  5
38
102
{ACAD_REACTORS
330
2A
102
}
330
2A
100
AcDbVisualStyle
  2
Linepattern
 70
    14
177
     3
291
     1
 70
    58
 90
        2
176
     1
 90
        2
176
     1
 90
        0
176
     1
 90
        0
176
     1
 40
0.6
176
     1
 40
30.0
176
     1
 62
     7
420
 16777215
176
     1
 90
        1
176
     1
 90
        4
176
     1
 62
     7
176
     1
 62
   257
176
     1
 90
        7
176
     1
 90
        7
176
     1
 40
1.0
176
     1
 90
        8
176
     1
 62
     7
176
     1
 40
1.0
176
     1
 90
        1
176
     1
 90
        6
176
     1
 90
        2
176
     1
 62
     7
176
     1
 90
        5
176
     1
 90
        0
176
     1
 90
        0
176
     1
290
     0
176
     1
 90
        1
176
     1
 40
0.0
176
     1
 90
        0
176
     1
290
     0
176
     1
290
     1
176
     1
290
     1
176
     1
290
     0
176
     1
290
     0
176
     1
290
     0
176
     1
290
     0
176
     1
290
     0
176
     1
290
     0
176
     1
 90
       50
176
     1
 40
0.0
176
     1
 40
1.0
176
     1
 90
        0
176
     1
 62
    18
420
        0
176
     1
 90
       50
176
     1
 90
        3
176
     1
 62
     5
420
      255
176
     1
290
     0
176
     1
 90
       50
176
     1
 90
       50
176
     1
 90
       50
176
     1
290
     0
176
     1
 90
       50
176
     1
 62
   256
176
     0
 40
1.0
176
     0
 90
        2
176
     1
  1
strokes_ogs.tif
176
     1
290
     0
176
     1
 40
1.0
176
     1
 40
1.0
176
     1
  0
VISUALSTYLE
  5
3C
102
{ACAD_REACTORS
330
2A
102
}
330
2A
100
AcDbVisualStyle
  2
OverhangOff
 70
    21
177
     3
291
     1
 70
    58
 90
        2
176
     0
 90
        2
176
     0
 90
        0
176
     0
 90
        0
176
     0
 40
0.6
176
     0
 40
30.0
176
     0
 62
     7
420
 16777215
176
     0
 90
        1
176
     0
 90
        4
176
     0
 62
     7
176
     0
 62
   257
176
     0
 90
        1
176
     0
 90
        1
176
     0
 40
1.0
176
     0
 90
        9
176
     2
 62
     7
176
     0
 40
1.0
176
     0
 90
        1
176
     0
 90
        6
176
     0
 90
        2
176
     0
 62
     7
176
     0
 90
        5
176
     0
 90
        0
176
     0
 90
        0
176
     0
290
     0
176
     0
 90
        1
176
     0
 40
0.0
176
     0
 90
        0
176
     0
290
     0
176
     0
290
     1
176
     0
290
     1
176
     0
290
     0
176
     0
290
     0
176
     0
290
     0
176
     0
290
     0
176
     0
290
     0
176
     0
290
     0
176
     0
 90
       50
176
     0
 40
0.0
176
     0
 40
1.0
176
     0
 90
        0
176
     0
 62
    18
420
        0
176
     0
 90
       50
176
     0
 90
        3
176
     0
 62
     5
420
      255
176
     0
290
     0
176
     0
 90
       50
176
     0
 90
       50
176
     0
 90
       50
176
     0
290
     0
176
     0
 90
       50
176
     0
 62
   256
176
     0
 40
1.0
176
     0
 90
        2
176
     0
  1
strokes_ogs.tif
176
     0
290
     0
176
     0
 40
1.0
176
     0
 40
1.0
176
     0
  0
VISUALSTYLE
  5
33
102
{ACAD_REACTORS
330
2A
102
}
330
2A
100
AcDbVisualStyle
  2
Realistic
 70
     8
177
     3
291
     0
 70
    58
 90
        2
176
     1
 90
        3
176
     1
 90
        0
176
     1
 90
        2
176
     1
 40
0.6
176
     1
 40
30.0
176
     1
 62
     7
420
 16777215
176
     1
 90
        0
176
     1
 90
        0
176
     1
 62
     7
176
     1
 62
   257
176
     1
 90
        1
176
     1
 90
        1
176
     1
 40
1.0
176
     1
 90
        8
176
     1
 62
   257
176
     1
 40
1.0
176
     1
 90
        1
176
     1
 90
        6
176
     1
 90
        2
176
     1
 62
     7
176
     1
 90
        3
176
     1
 90
        0
176
     1
 90
        0
176
     1
290
     0
176
     1
 90
       13
176
     1
 40
0.0
176
     1
 90
        0
176
     1
290
     0
176
     1
290
     1
176
     1
290
     1
176
     1
290
     0
176
     1
290
     0
176
     1
290
     0
176
     1
290
     0
176
     1
290
     0
176
     1
290
     0
176
     1
 90
       50
176
     1
 40
0.0
176
     1
 40
1.0
176
     1
 90
        0
176
     1
 62
    18
420
        0
176
     1
 90
       50
176
     1
 90
        3
176
     1
 62
     5
420
      255
176
     1
290
     0
176
     1
 90
       50
176
     1
 90
       50
176
     1
 90
       50
176
     1
290
     0
176
     1
 90
       50
176
     1
 62
   256
176
     0
 40
1.0
176
     0
 90
        2
176
     1
  1
strokes_ogs.tif
176
     1
290
     0
176
     1
 40
1.0
176
     1
 40
1.0
176
     1
  0
VISUALSTYLE
  5
42
102
{ACAD_REACTORS
330
2A
102
}
330
2A
100
AcDbVisualStyle
  2
Shaded
 70
    27
177
     3
291
     0
 70
    58
 90
        2
176
     1
 90
        2
176
     1
 90
        1
176
     1
 90
        2
176
     1
 40
0.6
176
     1
 40
30.0
176
     1
 62
     7
420
 16777215
176
     1
 90
        0
176
     1
 90
        4
176
     1
 62
     7
176
     1
 62
   257
176
     1
 90
        1
176
     1
 90
        1
176
     1
 40
1.0
176
     1
 90
        8
176
     1
 62
   257
176
     1
 40
1.0
176
     1
 90
        1
176
     1
 90
        6
176
     1
 90
        2
176
     1
 62
     8
420
  7895160
176
     1
 90
        3
176
     1
 90
        0
176
     1
 90
        0
176
     1
290
     0
176
     1
 90
        5
176
     1
 40
0.0
176
     1
 90
        0
176
     1
290
     0
176
     1
290
     1
176
     1
290
     1
176
     1
290
     0
176
     1
290
     0
176
     1
290
     0
176
     1
290
     0
176
     1
290
     0
176
     1
290
     0
176
     1
 90
       50
176
     1
 40
0.0
176
     1
 40
1.0
176
     1
 90
        0
176
     1
 62
    18
420
        0
176
     1
 90
       50
176
     1
 90
        3
176
     1
 62
     5
420
      255
176
     1
290
     0
176
     1
 90
       50
176
     1
 90
       50
176
     1
 90
       50
176
     1
290
     0
176
     1
 90
       50
176
     1
 62
   256
176
     0
 40
1.0
176
     0
 90
        2
176
     1
  1
strokes_ogs.tif
176
     1
290
     0
176
     1
 40
1.0
176
     1
 40
1.0
176
     1
  0
VISUALSTYLE
  5
41
102
{ACAD_REACTORS
330
2A
102
}
330
2A
100
AcDbVisualStyle
  2
Shaded with edges
 70
    26
177
     3
291
     0
 70
    58
 90
        2
176
     1
 90
        2
176
     1
 90
        1
176
     1
 90
        2
176
     1
 40
0.6
176
     1
 40
30.0
176
     1
 62
     7
420
 16777215
176
     1
 90
        1
176
     1
 90
       10
176
     1
 62
     7
176
     1
 62
   257
176
     1
 90
        2
176
     1
 90
        1
176
     1
 40
1.0
176
     1
 90
        8
176
     1
 62
   257
176
     1
 40
1.0
176
     1
 90
        1
176
     1
 90
        6
176
     1
 90
        2
176
     1
 62
     7
176
     1
 90
        3
176
     1
 90
        0
176
     1
 90
        0
176
     1
290
     0
176
     1
 90
        5
176
     1
 40
0.0
176
     1
 90
        0
176
     1
290
     0
176
     1
290
     1
176
     1
290
     1
176
     1
290
     0
176
     1
290
     0
176
     1
290
     0
176
     1
290
     0
176
     1
290
     0
176
     1
290
     0
176
     1
 90
       50
176
     1
 40
0.0
176
     1
 40
1.0
176
     1
 90
        0
176
     1
 62
    18
420
        0
176
     1
 90
       50
176
     1
 90
        3
176
     1
 62
     5
420
      255
176
     1
290
     0
176
     1
 90
       50
176
     1
 90
       50
176
     1
 90
       50
176
     1
290
     0
176
     1
 90
       50
176
     1
 62
   256
176
     0
 40
1.0
176
     0
 90
        2
176
     1
  1
strokes_ogs.tif
176
     1
290
     0
176
     1
 40
1.0
176
     1
 40
1.0
176
     1
  0
VISUALSTYLE
  5
3E
102
{ACAD_REACTORS
330
2A
102
}
330
2A
100
AcDbVisualStyle
  2
Shades of Gray
 70
    23
177
     3
291
     0
 70
    58
 90
        2
176
     1
 90
        2
176
     1
 90
        3
176
     1
 90
        0
176
     1
 40
0.6
176
     1
 40
30.0
176
     1
 62
     7
420
 16777215
176
     1
 90
        2
176
     1
 90
        2
176
     1
 62
     7
176
     1
 62
     7
176
     1
 90
        1
176
     1
 90
        1
176
     1
 40
40.0
176
     1
 90
        8
176
     1
 62
     7
176
     1
 40
1.0
176
     1
 90
        1
176
     1
 90
        6
176
     1
 90
        2
176
     1
 62
     7
176
     1
 90
        3
176
     1
 90
        0
176
     1
 90
        0
176
     1
290
     0
176
     1
 90
        1
176
     1
 40
0.0
176
     1
 90
        0
176
     1
290
     0
176
     1
290
     1
176
     1
290
     1
176
     1
290
     0
176
     1
290
     0
176
     1
290
     0
176
     1
290
     0
176
     1
290
     0
176
     1
290
     0
176
     1
 90
       50
176
     1
 40
0.0
176
     1
 40
1.0
176
     1
 90
        0
176
     1
 62
    18
420
        0
176
     1
 90
       50
176
     1
 90
        3
176
     1
 62
     5
420
      255
176
     1
290
     0
176
     1
 90
       50
176
     1
 90
       50
176
     1
 90
       50
176
     1
290
     0
176
     1
 90
       50
176
     1
 62
   256
176
     0
 40
1.0
176
     0
 90
        2
176
     1
  1
strokes_ogs.tif
176
     1
290
     0
176
     1
 40
1.0
176
     1
 40
1.0
176
     1
  0
VISUALSTYLE
  5
3F
102
{ACAD_REACTORS
330
2A
102
}
330
2A
100
AcDbVisualStyle
  2
Sketchy
 70
    24
177
     3
291
     0
 70
    58
 90
        1
176
     1
 90
        2
176
     1
 90
        2
176
     1
 90
        0
176
     1
 40
0.6
176
     1
 40
30.0
176
     1
 62
     7
420
 16777215
176
     1
 90
        2
176
     1
 90
        2
176
     1
 62
     7
176
     1
 62
     7
176
     1
 90
        1
176
     1
 90
        1
176
     1
 40
40.0
176
     1
 90
       11
176
     1
 62
     7
176
     1
 40
1.0
176
     1
 90
        1
176
     1
 90
        6
176
     1
 90
        2
176
     1
 62
     7
176
     1
 90
        6
176
     1
 90
        0
176
     1
 90
        0
176
     1
290
     0
176
     1
 90
        1
176
     1
 40
0.0
176
     1
 90
        0
176
     1
290
     0
176
     1
290
     1
176
     1
290
     1
176
     1
290
     0
176
     1
290
     0
176
     1
290
     0
176
     1
290
     0
176
     1
290
     0
176
     1
290
     0
176
     1
 90
       50
176
     1
 40
0.0
176
     1
 40
1.0
176
     1
 90
        0
176
     1
 62
    18
420
        0
176
     1
 90
       50
176
     1
 90
        3
176
     1
 62
     5
420
      255
176
     1
290
     0
176
     1
 90
       50
176
     1
 90
       50
176
     1
 90
       50
176
     1
290
     0
176
     1
 90
       50
176
     1
 62
   256
176
     0
 40
1.0
176
     0
 90
        2
176
     1
  1
strokes_ogs.tif
176
     1
290
     0
176
     1
 40
1.0
176
     1
 40
1.0
176
     1
  0
VISUALSTYLE
  5
37
102
{ACAD_REACTORS
330
2A
102
}
330
2A
100
AcDbVisualStyle
  2
Thicken
 70
    13
177
     3
291
     1
 70
    58
 90
        2
176
     1
 90
        2
176
     1
 90
        0
176
     1
 90
        0
176
     1
 40
0.6
176
     1
 40
30.0
176
     1
 62
     7
420
 16777215
176
     1
 90
        1
176
     1
 90
        4
176
     1
 62
     7
176
     1
 62
   257
176
     1
 90
        1
176
     1
 90
        1
176
     1
 40
1.0
176
     1
 90
       12
176
     1
 62
     7
176
     1
 40
1.0
176
     1
 90
        1
176
     1
 90
        6
176
     1
 90
        2
176
     1
 62
     7
176
     1
 90
        5
176
     1
 90
        0
176
     1
 90
        0
176
     1
290
     0
176
     1
 90
        1
176
     1
 40
0.0
176
     1
 90
        0
176
     1
290
     0
176
     1
290
     1
176
     1
290
     1
176
     1
290
     0
176
     1
290
     0
176
     1
290
     0
176
     1
290
     0
176
     1
290
     0
176
     1
290
     0
176
     1
 90
       50
176
     1
 40
0.0
176
     1
 40
1.0
176
     1
 90
        0
176
     1
 62
    18
420
        0
176
     1
 90
       50
176
     1
 90
        3
176
     1
 62
     5
420
      255
176
     1
290
     0
176
     1
 90
       50
176
     1
 90
       50
176
     1
 90
       50
176
     1
290
     0
176
     1
 90
       50
176
     1
 62
   256
176
     0
 40
1.0
176
     0
 90
        2
176
     1
  1
strokes_ogs.tif
176
     1
290
     0
176
     1
 40
1.0
176
     1
 40
1.0
176
     1
  0
VISUALSTYLE
  5
30
102
{ACAD_REACTORS
330
2A
102
}
330
2A
100
AcDbVisualStyle
  2
Wireframe
 70
     5
177
     3
291
     0
 70
    58
 90
        0
176
     1
 90
        2
176
     1
 90
        0
176
     1
 90
        0
176
     1
 40
0.6
176
     1
 40
30.0
176
     1
 62
     7
420
 16777215
176
     1
 90
        1
176
     1
 90
        4
176
     1
 62
     7
176
     1
 62
   257
176
     1
 90
        1
176
     1
 90
        1
176
     1
 40
1.0
176
     1
 90
        0
176
     1
 62
   257
176
     1
 40
1.0
176
     1
 90
        1
176
     1
 90
        6
176
     1
 90
        2
176
     1
 62
     7
176
     1
 90
        3
176
     1
 90
        0
176
     1
 90
        0
176
     1
290
     0
176
     1
 90
        1
176
     1
 40
0.0
176
     1
 90
        0
176
     1
290
     0
176
     1
290
     1
176
     1
290
     1
176
     1
290
     0
176
     1
290
     0
176
     1
290
     0
176
     1
290
     0
176
     1
290
     0
176
     1
290
     0
176
     1
 90
       50
176
     1
 40
0.0
176
     1
 40
1.0
176
     1
 90
        0
176
     1
 62
    18
420
        0
176
     1
 90
       50
176
     1
 90
        3
176
     1
 62
     5
420
      255
176
     1
290
     0
176
     1
 90
       50
176
     1
 90
       50
176
     1
 90
       50
176
     1
290
     0
176
     1
 90
       50
176
     1
 62
   256
176
     0
 40
1.0
176
     0
 90
        2
176
     1
  1
strokes_ogs.tif
176
     1
290
     0
176
     1
 40
1.0
176
     1
 40
1.0
176
     1
  0
VISUALSTYLE
  5
40
102
{ACAD_REACTORS
330
2A
102
}
330
2A
100
AcDbVisualStyle
  2
X-Ray
 70
    25
177
     3
291
     0
 70
    58
 90
        2
176
     1
 90
        2
176
     1
 90
        1
176
     1
 90
        1
176
     1
 40
0.5
176
     1
 40
30.0
176
     1
 62
     7
420
 16777215
176
     1
 90
        1
176
     1
 90
        0
176
     1
 62
     7
176
     1
 62
   257
176
     1
 90
        1
176
     1
 90
        1
176
     1
 40
1.0
176
     1
 90
        8
176
     1
 62
     7
176
     1
 40
1.0
176
     1
 90
        1
176
     1
 90
        6
176
     1
 90
        2
176
     1
 62
     7
176
     1
 90
        3
176
     1
 90
        0
176
     1
 90
        0
176
     1
290
     0
176
     1
 90
       13
176
     1
 40
0.0
176
     1
 90
        0
176
     1
290
     0
176
     1
290
     1
176
     1
290
     1
176
     1
290
     0
176
     1
290
     0
176
     1
290
     0
176
     1
290
     0
176
     1
290
     0
176
     1
290
     0
176
     1
 90
       50
176
     1
 40
0.0
176
     1
 40
1.0
176
     1
 90
        0
176
     1
 62
    18
420
        0
176
     1
 90
       50
176
     1
 90
        3
176
     1
 62
     5
420
      255
176
     1
290
     0
176
     1
 90
       50
176
     1
 90
       50
176
     1
 90
       50
176
     1
290
     0
176
     1
 90
       50
176
     1
 62
   256
176
     0
 40
1.0
176
     0
 90
        2
176
     1
  1
strokes_ogs.tif
176
     1
290
     0
176
     1
 40
1.0
176
     1
 40
1.0
176
     1
  0
DICTIONARYVAR
  5
BA
102
{ACAD_REACTORS
330
B9
102
}
330
B9
100
DictionaryVariables
280
     0
  1
1:1
  0
DICTIONARYVAR
  5
BF
102
{ACAD_REACTORS
330
B9
102
}
330
B9
100
DictionaryVariables
280
     0
  1
Standard
  0
DICTIONARYVAR
  5
BE
102
{ACAD_REACTORS
330
B9
102
}
330
B9
100
DictionaryVariables
280
     0
  1
Standard
  0
DICTIONARY
  5
BB
330
5A
100
AcDbDictionary
280
     1
281
     1
  3
ACAD_ROUNDTRIP_2008_TABLESTYLE_CELLSTYLEMAP
360
BC
  0
CELLSTYLEMAP
  5
BC
102
{ACAD_REACTORS
330
BB
102
}
330
BB
100
AcDbCellStyleMap
 90
        3
300
CELLSTYLE
  1
TABLEFORMAT_BEGIN
 90
        5
170
     1
 91
        0
 92
    32768
 62
   257
 93
        1
300
CONTENTFORMAT
  1
CONTENTFORMAT_BEGIN
 90
        0
 91
        0
 92
        4
 93
        0
300

 40
0.0
140
1.0
 94
        5
 62
     0
340
11
144
0.25
309
CONTENTFORMAT_END
171
     1
301
MARGIN
  1
CELLMARGIN_BEGIN
 40
0.06
 40
0.06
 40
0.06
 40
0.06
 40
0.06
 40
0.06
309
CELLMARGIN_END
 94
        6
 95
        1
302
GRIDFORMAT
  1
GRIDFORMAT_BEGIN
 90
        0
 91
        1
 62
     0
 92
       -2
340
14
 93
        0
 40
0.045
309
GRIDFORMAT_END
 95
        2
302
GRIDFORMAT
  1
GRIDFORMAT_BEGIN
 90
        0
 91
        1
 62
     0
 92
       -2
340
14
 93
        0
 40
0.045
309
GRIDFORMAT_END
 95
        4
302
GRIDFORMAT
  1
GRIDFORMAT_BEGIN
 90
        0
 91
        1
 62
     0
 92
       -2
340
14
 93
        0
 40
0.045
309
GRIDFORMAT_END
 95
        8
302
GRIDFORMAT
  1
GRIDFORMAT_BEGIN
 90
        0
 91
        1
 62
     0
 92
       -2
340
14
 93
        0
 40
0.045
309
GRIDFORMAT_END
 95
       16
302
GRIDFORMAT
  1
GRIDFORMAT_BEGIN
 90
        0
 91
        1
 62
     0
 92
       -2
340
14
 93
        0
 40
0.045
309
GRIDFORMAT_END
 95
       32
302
GRIDFORMAT
  1
GRIDFORMAT_BEGIN
 90
        0
 91
        1
 62
     0
 92
       -2
340
14
 93
        0
 40
0.045
309
GRIDFORMAT_END
309
TABLEFORMAT_END
  1
CELLSTYLE_BEGIN
 90
        1
 91
        1
300
_TITLE
309
CELLSTYLE_END
300
CELLSTYLE
  1
TABLEFORMAT_BEGIN
 90
        5
170
     1
 91
        0
 92
        0
 62
   257
 93
        1
300
CONTENTFORMAT
  1
CONTENTFORMAT_BEGIN
 90
        0
 91
        0
 92
        4
 93
        0
300

 40
0.0
140
1.0
 94
        5
 62
     0
340
11
144
0.18
309
CONTENTFORMAT_END
171
     1
301
MARGIN
  1
CELLMARGIN_BEGIN
 40
0.06
 40
0.06
 40
0.06
 40
0.06
 40
0.06
 40
0.06
309
CELLMARGIN_END
 94
        6
 95
        1
302
GRIDFORMAT
  1
GRIDFORMAT_BEGIN
 90
        0
 91
        1
 62
     0
 92
       -2
340
14
 93
        0
 40
0.045
309
GRIDFORMAT_END
 95
        2
302
GRIDFORMAT
  1
GRIDFORMAT_BEGIN
 90
        0
 91
        1
 62
     0
 92
       -2
340
14
 93
        0
 40
0.045
309
GRIDFORMAT_END
 95
        4
302
GRIDFORMAT
  1
GRIDFORMAT_BEGIN
 90
        0
 91
        1
 62
     0
 92
       -2
340
14
 93
        0
 40
0.045
309
GRIDFORMAT_END
 95
        8
302
GRIDFORMAT
  1
GRIDFORMAT_BEGIN
 90
        0
 91
        1
 62
     0
 92
       -2
340
14
 93
        0
 40
0.045
309
GRIDFORMAT_END
 95
       16
302
GRIDFORMAT
  1
GRIDFORMAT_BEGIN
 90
        0
 91
        1
 62
     0
 92
       -2
340
14
 93
        0
 40
0.045
309
GRIDFORMAT_END
 95
       32
302
GRIDFORMAT
  1
GRIDFORMAT_BEGIN
 90
        0
 91
        1
 62
     0
 92
       -2
340
14
 93
        0
 40
0.045
309
GRIDFORMAT_END
309
TABLEFORMAT_END
  1
CELLSTYLE_BEGIN
 90
        2
 91
        1
300
_HEADER
309
CELLSTYLE_END
300
CELLSTYLE
  1
TABLEFORMAT_BEGIN
 90
        5
170
     1
 91
        0
 92
        0
 62
   257
 93
        1
300
CONTENTFORMAT
  1
CONTENTFORMAT_BEGIN
 90
        0
 91
        0
 92
        4
 93
        0
300

 40
0.0
140
1.0
 94
        2
 62
     0
340
11
144
0.18
309
CONTENTFORMAT_END
171
     1
301
MARGIN
  1
CELLMARGIN_BEGIN
 40
0.06
 40
0.06
 40
0.06
 40
0.06
 40
0.06
 40
0.06
309
CELLMARGIN_END
 94
        6
 95
        1
302
GRIDFORMAT
  1
GRIDFORMAT_BEGIN
 90
        0
 91
        1
 62
     0
 92
       -2
340
14
 93
        0
 40
0.045
309
GRIDFORMAT_END
 95
        2
302
GRIDFORMAT
  1
GRIDFORMAT_BEGIN
 90
        0
 91
        1
 62
     0
 92
       -2
340
14
 93
        0
 40
0.045
309
GRIDFORMAT_END
 95
        4
302
GRIDFORMAT
  1
GRIDFORMAT_BEGIN
 90
        0
 91
        1
 62
     0
 92
       -2
340
14
 93
        0
 40
0.045
309
GRIDFORMAT_END
 95
        8
302
GRIDFORMAT
  1
GRIDFORMAT_BEGIN
 90
        0
 91
        1
 62
     0
 92
       -2
340
14
 93
        0
 40
0.045
309
GRIDFORMAT_END
 95
       16
302
GRIDFORMAT
  1
GRIDFORMAT_BEGIN
 90
        0
 91
        1
 62
     0
 92
       -2
340
14
 93
        0
 40
0.045
309
GRIDFORMAT_END
 95
       32
302
GRIDFORMAT
  1
GRIDFORMAT_BEGIN
 90
        0
 91
        1
 62
     0
 92
       -2
340
14
 93
        0
 40
0.045
309
GRIDFORMAT_END
309
TABLEFORMAT_END
  1
CELLSTYLE_BEGIN
 90
        3
 91
        2
300
_DATA
309
CELLSTYLE_END
  0
ENDSEC
  0
EOF
