  0
SECTION
  2
HEADER
  9
$ACADVER
  1
AC1032
  9
$ACADMAINTVER
 90
       55
  9
$DWGCODEPAGE
  3
ANSI_1252
  9
$LASTSAVEDBY
  1
Administrator
  9
$REQUIREDVERSIONS
160
                 0
  9
$INSBASE
 10
0.0
 20
0.0
 30
0.0
  9
$EXTMIN
 10
-43.9836
 20
-69.8413
 30
0.0
  9
$EXTMAX
 10
-3.8072
 20
-29.6649
 30
0.0
  9
$LIMMIN
 10
0.0
 20
0.0
  9
$LIMMAX
 10
12.0
 20
9.0
  9
$ORTHOMODE
 70
     0
  9
$REGENMODE
 70
     1
  9
$FILLMODE
 70
     1
  9
$QTEXTMODE
 70
     0
  9
$MIRRTEXT
 70
     1
  9
$LTSCALE
 40
1.0
  9
$ATTMODE
 70
     1
  9
$TEXTSIZE
 40
0.2
  9
$TRACEWID
 40
0.05
  9
$TEXTSTYLE
  7
Standard
  9
$CLAYER
  8
0
  9
$CELTYPE
  6
ByLayer
  9
$CECOLOR
 62
   256
  9
$CELTSCALE
 40
1.0
  9
$DISPSILH
 70
     0
  9
$DIMSCALE
 40
1.0
  9
$DIMASZ
 40
0.18
  9
$DIMEXO
 40
0.0625
  9
$DIMDLI
 40
0.38
  9
$DIMRND
 40
0.0
  9
$DIMDLE
 40
0.0
  9
$DIMEXE
 40
0.18
  9
$DIMTP
 40
0.0
  9
$DIMTM
 40
0.0
  9
$DIMTXT
 40
0.18
  9
$DIMCEN
 40
0.09
  9
$DIMTSZ
 40
0.0
  9
$DIMTOL
 70
     0
  9
$DIMLIM
 70
     0
  9
$DIMTIH
 70
     1
  9
$DIMTOH
 70
     1
  9
$DIMSE1
 70
     0
  9
$DIMSE2
 70
     0
  9
$DIMTAD
 70
     0
  9
$DIMZIN
 70
     0
  9
$DIMBLK
  1

  9
$DIMASO
 70
     1
  9
$DIMSHO
 70
     1
  9
$DIMPOST
  1

  9
$DIMAPOST
  1

  9
$DIMALT
 70
     0
  9
$DIMALTD
 70
     2
  9
$DIMALTF
 40
25.4
  9
$DIMLFAC
 40
1.0
  9
$DIMTOFL
 70
     0
  9
$DIMTVP
 40
0.0
  9
$DIMTIX
 70
     0
  9
$DIMSOXD
 70
     0
  9
$DIMSAH
 70
     0
  9
$DIMBLK1
  1

  9
$DIMBLK2
  1

  9
$DIMSTYLE
  2
Standard
  9
$DIMCLRD
 70
     0
  9
$DIMCLRE
 70
     0
  9
$DIMCLRT
 70
     0
  9
$DIMTFAC
 40
1.0
  9
$DIMGAP
 40
0.09
  9
$DIMJUST
 70
     0
  9
$DIMSD1
 70
     0
  9
$DIMSD2
 70
     0
  9
$DIMTOLJ
 70
     1
  9
$DIMTZIN
 70
     0
  9
$DIMALTZ
 70
     0
  9
$DIMALTTZ
 70
     0
  9
$DIMUPT
 70
     0
  9
$DIMDEC
 70
     4
  9
$DIMTDEC
 70
     4
  9
$DIMALTU
 70
     2
  9
$DIMALTTD
 70
     2
  9
$DIMTXSTY
  7
Standard
  9
$DIMAUNIT
 70
     0
  9
$DIMADEC
 70
     0
  9
$DIMALTRND
 40
0.0
  9
$DIMAZIN
 70
     0
  9
$DIMDSEP
 70
    46
  9
$DIMATFIT
 70
     3
  9
$DIMFRAC
 70
     0
  9
$DIMLDRBLK
  1

  9
$DIMLUNIT
 70
     2
  9
$DIMLWD
 70
    -2
  9
$DIMLWE
 70
    -2
  9
$DIMTMOVE
 70
     0
  9
$DIMFXL
 40
1.0
  9
$DIMFXLON
 70
     0
  9
$DIMJOGANG
 40
0.7853981633974483
  9
$DIMTFILL
 70
     0
  9
$DIMTFILLCLR
 70
     0
  9
$DIMARCSYM
 70
     0
  9
$DIMLTYPE
  6

  9
$DIMLTEX1
  6

  9
$DIMLTEX2
  6

  9
$DIMTXTDIRECTION
 70
     0
  9
$LUNITS
 70
     2
  9
$LUPREC
 70
     4
  9
$SKETCHINC
 40
0.1
  9
$FILLETRAD
 40
0.0
  9
$AUNITS
 70
     0
  9
$AUPREC
 70
     0
  9
$MENU
  1
.
  9
$ELEVATION
 40
0.0
  9
$PELEVATION
 40
0.0
  9
$THICKNESS
 40
0.0
  9
$LIMCHECK
 70
     0
  9
$CHAMFERA
 40
0.0
  9
$CHAMFERB
 40
0.0
  9
$CHAMFERC
 40
0.0
  9
$CHAMFERD
 40
0.0
  9
$SKPOLY
 70
     0
  9
$TDCREATE
 40
2460409.426068345
  9
$TDUCREATE
 40
2460409.280235012
  9
$TDUPDATE
 40
2460409.426068356
  9
$TDUUPDATE
 40
2460409.280235023
  9
$TDINDWG
 40
0.0000000116
  9
$TDUSRTIMER
 40
0.0000000116
  9
$USRTIMER
 70
     1
  9
$ANGBASE
 50
0.0
  9
$ANGDIR
 70
     0
  9
$PDMODE
 70
     0
  9
$PDSIZE
 40
0.0
  9
$PLINEWID
 40
0.0
  9
$SPLFRAME
 70
     0
  9
$SPLINETYPE
 70
     6
  9
$SPLINESEGS
 70
     8
  9
$HANDSEED
  5
82
  9
$SURFTAB1
 70
     6
  9
$SURFTAB2
 70
     6
  9
$SURFTYPE
 70
     6
  9
$SURFU
 70
     6
  9
$SURFV
 70
     6
  9
$UCSBASE
  2

  9
$UCSNAME
  2

  9
$UCSORG
 10
0.0
 20
0.0
 30
0.0
  9
$UCSXDIR
 10
1.0
 20
0.0
 30
0.0
  9
$UCSYDIR
 10
0.0
 20
1.0
 30
0.0
  9
$UCSORTHOREF
  2

  9
$UCSORTHOVIEW
 70
     0
  9
$UCSORGTOP
 10
0.0
 20
0.0
 30
0.0
  9
$UCSORGBOTTOM
 10
0.0
 20
0.0
 30
0.0
  9
$UCSORGLEFT
 10
0.0
 20
0.0
 30
0.0
  9
$UCSORGRIGHT
 10
0.0
 20
0.0
 30
0.0
  9
$UCSORGFRONT
 10
0.0
 20
0.0
 30
0.0
  9
$UCSORGBACK
 10
0.0
 20
0.0
 30
0.0
  9
$PUCSBASE
  2

  9
$PUCSNAME
  2

  9
$PUCSORG
 10
0.0
 20
0.0
 30
0.0
  9
$PUCSXDIR
 10
1.0
 20
0.0
 30
0.0
  9
$PUCSYDIR
 10
0.0
 20
1.0
 30
0.0
  9
$PUCSORTHOREF
  2

  9
$PUCSORTHOVIEW
 70
     0
  9
$PUCSORGTOP
 10
0.0
 20
0.0
 30
0.0
  9
$PUCSORGBOTTOM
 10
0.0
 20
0.0
 30
0.0
  9
$PUCSORGLEFT
 10
0.0
 20
0.0
 30
0.0
  9
$PUCSORGRIGHT
 10
0.0
 20
0.0
 30
0.0
  9
$PUCSORGFRONT
 10
0.0
 20
0.0
 30
0.0
  9
$PUCSORGBACK
 10
0.0
 20
0.0
 30
0.0
  9
$USERI1
 70
     0
  9
$USERI2
 70
     0
  9
$USERI3
 70
     0
  9
$USERI4
 70
     0
  9
$USERI5
 70
     0
  9
$USERR1
 40
0.0
  9
$USERR2
 40
0.0
  9
$USERR3
 40
0.0
  9
$USERR4
 40
0.0
  9
$USERR5
 40
0.0
  9
$WORLDVIEW
 70
     1
  9
$SHADEDGE
 70
     3
  9
$SHADEDIF
 70
    70
  9
$TILEMODE
 70
     1
  9
$MAXACTVP
 70
    64
  9
$PINSBASE
 10
0.0
 20
0.0
 30
0.0
  9
$PLIMCHECK
 70
     0
  9
$PEXTMIN
 10
1.000000000000000E+20
 20
1.000000000000000E+20
 30
1.000000000000000E+20
  9
$PEXTMAX
 10
-1.000000000000000E+20
 20
-1.000000000000000E+20
 30
-1.000000000000000E+20
  9
$PLIMMIN
 10
0.0
 20
0.0
  9
$PLIMMAX
 10
12.0
 20
9.0
  9
$UNITMODE
 70
     0
  9
$VISRETAIN
 70
     1
  9
$PLINEGEN
 70
     0
  9
$PSLTSCALE
 70
     1
  9
$TREEDEPTH
 70
  3020
  9
$CMLSTYLE
  2
Standard
  9
$CMLJUST
 70
     0
  9
$CMLSCALE
 40
1.0
  9
$PROXYGRAPHICS
 70
     1
  9
$MEASUREMENT
 70
     0
  9
$CELWEIGHT
370
    -1
  9
$ENDCAPS
280
     0
  9
$JOINSTYLE
280
     0
  9
$LWDISPLAY
290
     0
  9
$INSUNITS
 70
     4
  9
$HYPERLINKBASE
  1

  9
$STYLESHEET
  1

  9
$XEDIT
290
     1
  9
$CEPSNTYPE
380
     0
  9
$PSTYLEMODE
290
     1
  9
$FINGERPRINTGUID
  2
{7f07a93d-1ff9-41fc-a06a-0603c9c277aa}
  9
$VERSIONGUID
  2
{FAEB1C32-E019-11D5-929B-00C0DF256EC4}
  9
$EXTNAMES
290
     1
  9
$PSVPSCALE
 40
0.0
  9
$OLESTARTUP
290
     0
  9
$SORTENTS
280
   127
  9
$INDEXCTL
280
     0
  9
$HIDETEXT
280
     1
  9
$XCLIPFRAME
280
     2
  9
$HALOGAP
280
     0
  9
$OBSCOLOR
 70
   257
  9
$OBSLTYPE
280
     0
  9
$INTERSECTIONDISPLAY
280
     0
  9
$INTERSECTIONCOLOR
 70
   257
  9
$DIMASSOC
280
     2
  9
$PROJECTNAME
  1

  9
$CAMERADISPLAY
290
     0
  9
$LENSLENGTH
 40
50.0
  9
$CAMERAHEIGHT
 40
0.0
  9
$STEPSPERSEC
 40
2.0
  9
$STEPSIZE
 40
6.0
  9
$3DDWFPREC
 40
2.0
  9
$PSOLWIDTH
 40
0.25
  9
$PSOLHEIGHT
 40
4.0
  9
$LOFTANG1
 40
1.570796326794897
  9
$LOFTANG2
 40
1.570796326794897
  9
$LOFTMAG1
 40
0.0
  9
$LOFTMAG2
 40
0.0
  9
$LOFTPARAM
 70
     7
  9
$LOFTNORMALS
280
     1
  9
$LATITUDE
 40
37.795
  9
$LONGITUDE
 40
-122.394
  9
$NORTHDIRECTION
 40
0.0
  9
$TIMEZONE
 70
 -8000
  9
$LIGHTGLYPHDISPLAY
280
     1
  9
$TILEMODELIGHTSYNCH
280
     1
  9
$CMATERIAL
347
44
  9
$SOLIDHIST
280
     0
  9
$SHOWHIST
280
     1
  9
$DWFFRAME
280
     2
  9
$DGNFRAME
280
     2
  9
$REALWORLDSCALE
290
     1
  9
$INTERFERECOLOR
 62
   256
  9
$CSHADOW
280
     0
  9
$SHADOWPLANELOCATION
 40
0.0
  0
ENDSEC
  0
SECTION
  2
CLASSES
  0
CLASS
  1
ACDBDICTIONARYWDFLT
  2
AcDbDictionaryWithDefault
  3
ObjectDBX Classes
 90
        0
 91
        3
280
     0
281
     0
  0
CLASS
  1
VISUALSTYLE
  2
AcDbVisualStyle
  3
ObjectDBX Classes
 90
     4095
 91
        3
280
     0
281
     0
  0
CLASS
  1
MATERIAL
  2
AcDbMaterial
  3
ObjectDBX Classes
 90
     1153
 91
        3
280
     0
281
     0
  0
CLASS
  1
SCALE
  2
AcDbScale
  3
ObjectDBX Classes
 90
     1153
 91
        3
280
     0
281
     0
  0
CLASS
  1
TABLESTYLE
  2
AcDbTableStyle
  3
ObjectDBX Classes
 90
     4095
 91
        3
280
     0
281
     0
  0
CLASS
  1
MLEADERSTYLE
  2
AcDbMLeaderStyle
  3
ACDB_MLEADERSTYLE_CLASS
 90
     4095
 91
        3
280
     0
281
     0
  0
CLASS
  1
SUN
  2
AcDbSun
  3
SCENEOE
 90
     1153
 91
        3
280
     0
281
     0
  0
CLASS
  1
DICTIONARYVAR
  2
AcDbDictionaryVar
  3
ObjectDBX Classes
 90
        0
 91
        3
280
     0
281
     0
  0
CLASS
  1
CELLSTYLEMAP
  2
AcDbCellStyleMap
  3
ObjectDBX Classes
 90
     1152
 91
        3
280
     0
281
     0
  0
ENDSEC
  0
SECTION
  2
TABLES
  0
TABLE
  2
VPORT
  5
8
330
0
100
AcDbSymbolTable
 70
     1
  0
VPORT
  5
29
330
8
100
AcDbSymbolTableRecord
100
AcDbViewportTableRecord
  2
*Active
 70
     0
 10
0.0
 20
0.0
 11
1.0
 21
1.0
 12
10.42990654205607
 22
4.5
 13
0.0
 23
0.0
 14
0.5
 24
0.5
 15
0.5
 25
0.5
 16
0.0
 26
0.0
 36
1.0
 17
0.0
 27
0.0
 37
0.0
 40
9.0
 41
1.972972972850329
 42
50.0
 43
0.0
 44
0.0
 50
0.0
 51
0.0
 71
     0
 72
   100
 73
     1
 74
     3
 75
     0
 76
     0
 77
     0
 78
     0
281
     0
 65
     1
110
0.0
120
0.0
130
0.0
111
1.0
121
0.0
131
0.0
112
0.0
122
1.0
132
0.0
 79
     0
146
0.0
348
2F
 60
     3
 61
     5
292
     1
282
     1
141
0.0
142
0.0
 63
   250
361
5D
  0
ENDTAB
  0
TABLE
  2
LTYPE
  5
5
330
0
100
AcDbSymbolTable
 70
     1
  0
LTYPE
  5
14
330
5
100
AcDbSymbolTableRecord
100
AcDbLinetypeTableRecord
  2
ByBlock
 70
     0
  3

 72
    65
 73
     0
 40
0.0
  0
LTYPE
  5
15
330
5
100
AcDbSymbolTableRecord
100
AcDbLinetypeTableRecord
  2
ByLayer
 70
     0
  3

 72
    65
 73
     0
 40
0.0
  0
LTYPE
  5
16
330
5
100
AcDbSymbolTableRecord
100
AcDbLinetypeTableRecord
  2
Continuous
 70
     0
  3
Solid line
 72
    65
 73
     0
 40
0.0
  0
ENDTAB
  0
TABLE
  2
LAYER
  5
2
330
0
100
AcDbSymbolTable
 70
     3
  0
LAYER
  5
10
330
2
100
AcDbSymbolTableRecord
100
AcDbLayerTableRecord
  2
0
 70
     0
 62
     7
  6
Continuous
370
    -3
390
F
347
46
348
0
  0
LAYER
  5
5F
330
2
100
AcDbSymbolTableRecord
100
AcDbLayerTableRecord
  2
Layer 1
 70
     0
 62
     7
  6
Continuous
370
    -3
390
F
347
46
348
0
  0
LAYER
  5
78
330
2
100
AcDbSymbolTableRecord
100
AcDbLayerTableRecord
  2
Master Guides
 70
     0
 62
     7
  6
Continuous
290
     0
370
    -3
390
F
347
46
348
0
  0
ENDTAB
  0
TABLE
  2
STYLE
  5
3
330
0
100
AcDbSymbolTable
 70
     1
  0
STYLE
  5
11
330
3
100
AcDbSymbolTableRecord
100
AcDbTextStyleTableRecord
  2
Standard
 70
     0
 40
0.0
 41
1.0
 50
0.0
 71
     0
 42
0.2
  3
txt
  4

  0
ENDTAB
  0
TABLE
  2
VIEW
  5
6
330
0
100
AcDbSymbolTable
 70
     0
  0
ENDTAB
  0
TABLE
  2
UCS
  5
7
330
0
100
AcDbSymbolTable
 70
     0
  0
ENDTAB
  0
TABLE
  2
APPID
  5
9
330
0
100
AcDbSymbolTable
 70
     2
  0
APPID
  5
12
330
9
100
AcDbSymbolTableRecord
100
AcDbRegAppTableRecord
  2
ACAD
 70
     0
  0
APPID
  5
5E
330
9
100
AcDbSymbolTableRecord
100
AcDbRegAppTableRecord
  2
ODA
 70
     0
  0
ENDTAB
  0
TABLE
  2
DIMSTYLE
  5
A
330
0
100
AcDbSymbolTable
 70
     1
100
AcDbDimStyleTable
  0
DIMSTYLE
105
27
330
A
100
AcDbSymbolTableRecord
100
AcDbDimStyleTableRecord
  2
Standard
 70
     0
178
     0
340
11
  0
ENDTAB
  0
TABLE
  2
BLOCK_RECORD
  5
1
330
0
100
AcDbSymbolTable
 70
     1
  0
BLOCK_RECORD
  5
1F
330
1
100
AcDbSymbolTableRecord
100
AcDbBlockTableRecord
  2
*Model_Space
340
22
 70
     0
280
     1
281
     0
  0
BLOCK_RECORD
  5
1B
330
1
100
AcDbSymbolTableRecord
100
AcDbBlockTableRecord
  2
*Paper_Space
340
1E
 70
     0
280
     1
281
     0
  0
BLOCK_RECORD
  5
23
330
1
100
AcDbSymbolTableRecord
100
AcDbBlockTableRecord
  2
*Paper_Space0
340
26
 70
     0
280
     1
281
     0
  0
ENDTAB
  0
ENDSEC
  0
SECTION
  2
BLOCKS
  0
BLOCK
  5
20
330
1F
100
AcDbEntity
  8
0
100
AcDbBlockBegin
  2
*Model_Space
 70
     0
 10
0.0
 20
0.0
 30
0.0
  3
*Model_Space
  1

  0
ENDBLK
  5
21
330
1F
100
AcDbEntity
  8
0
100
AcDbBlockEnd
  0
BLOCK
  5
1C
330
1B
100
AcDbEntity
 67
     1
  8
0
100
AcDbBlockBegin
  2
*Paper_Space
 70
     0
 10
0.0
 20
0.0
 30
0.0
  3
*Paper_Space
  1

  0
ENDBLK
  5
1D
330
1B
100
AcDbEntity
 67
     1
  8
0
100
AcDbBlockEnd
  0
BLOCK
  5
24
330
23
100
AcDbEntity
  8
0
100
AcDbBlockBegin
  2
*Paper_Space0
 70
     0
 10
0.0
 20
0.0
 30
0.0
  3
*Paper_Space0
  1

  0
ENDBLK
  5
25
330
23
100
AcDbEntity
  8
0
100
AcDbBlockEnd
  0
ENDSEC
  0
SECTION
  2
ENTITIES
  0
SPLINE
  5
60
330
1F
100
AcDbEntity
  8
Layer 1
 62
   230
100
AcDbSpline
210
0.0
220
0.0
230
1.0
 70
    11
 71
     3
 72
   173
 73
   169
 74
     0
 42
0.0000000001
 43
0.0000000001
 40
0.0
 40
0.0
 40
0.0
 40
0.0
 40
0.0178571428571429
 40
0.0178571428571429
 40
0.0178571428571429
 40
0.0357142857142857
 40
0.0357142857142857
 40
0.0357142857142857
 40
0.0535714285714286
 40
0.0535714285714286
 40
0.0535714285714286
 40
0.0714285714285714
 40
0.0714285714285714
 40
0.0714285714285714
 40
0.0892857142857143
 40
0.0892857142857143
 40
0.0892857142857143
 40
0.1071428571428571
 40
0.1071428571428571
 40
0.1071428571428571
 40
0.125
 40
0.125
 40
0.125
 40
0.1428571428571428
 40
0.1428571428571428
 40
0.1428571428571428
 40
0.1607142857142857
 40
0.1607142857142857
 40
0.1607142857142857
 40
0.1785714285714285
 40
0.1785714285714285
 40
0.1785714285714285
 40
0.1964285714285714
 40
0.1964285714285714
 40
0.1964285714285714
 40
0.2142857142857143
 40
0.2142857142857143
 40
0.2142857142857143
 40
0.2321428571428571
 40
0.2321428571428571
 40
0.2321428571428571
 40
0.25
 40
0.25
 40
0.25
 40
0.2678571428571428
 40
0.2678571428571428
 40
0.2678571428571428
 40
0.2857142857142857
 40
0.2857142857142857
 40
0.2857142857142857
 40
0.3035714285714285
 40
0.3035714285714285
 40
0.3035714285714285
 40
0.3214285714285714
 40
0.3214285714285714
 40
0.3214285714285714
 40
0.3392857142857142
 40
0.3392857142857142
 40
0.3392857142857142
 40
0.3571428571428571
 40
0.3571428571428571
 40
0.3571428571428571
 40
0.375
 40
0.375
 40
0.375
 40
0.3928571428571428
 40
0.3928571428571428
 40
0.3928571428571428
 40
0.4107142857142857
 40
0.4107142857142857
 40
0.4107142857142857
 40
0.4285714285714285
 40
0.4285714285714285
 40
0.4285714285714285
 40
0.4464285714285714
 40
0.4464285714285714
 40
0.4464285714285714
 40
0.4642857142857142
 40
0.4642857142857142
 40
0.4642857142857142
 40
0.4821428571428571
 40
0.4821428571428571
 40
0.4821428571428571
 40
0.5
 40
0.5
 40
0.5
 40
0.5178571428571428
 40
0.5178571428571428
 40
0.5178571428571428
 40
0.5357142857142857
 40
0.5357142857142857
 40
0.5357142857142857
 40
0.5535714285714285
 40
0.5535714285714285
 40
0.5535714285714285
 40
0.5714285714285714
 40
0.5714285714285714
 40
0.5714285714285714
 40
0.5892857142857143
 40
0.5892857142857143
 40
0.5892857142857143
 40
0.6071428571428571
 40
0.6071428571428571
 40
0.6071428571428571
 40
0.625
 40
0.625
 40
0.625
 40
0.6428571428571428
 40
0.6428571428571428
 40
0.6428571428571428
 40
0.6607142857142857
 40
0.6607142857142857
 40
0.6607142857142857
 40
0.6785714285714285
 40
0.6785714285714285
 40
0.6785714285714285
 40
0.6964285714285714
 40
0.6964285714285714
 40
0.6964285714285714
 40
0.7142857142857142
 40
0.7142857142857142
 40
0.7142857142857142
 40
0.7321428571428571
 40
0.7321428571428571
 40
0.7321428571428571
 40
0.75
 40
0.75
 40
0.75
 40
0.7678571428571428
 40
0.7678571428571428
 40
0.7678571428571428
 40
0.7857142857142857
 40
0.7857142857142857
 40
0.7857142857142857
 40
0.8035714285714285
 40
0.8035714285714285
 40
0.8035714285714285
 40
0.8214285714285714
 40
0.8214285714285714
 40
0.8214285714285714
 40
0.8392857142857142
 40
0.8392857142857142
 40
0.8392857142857142
 40
0.8571428571428571
 40
0.8571428571428571
 40
0.8571428571428571
 40
0.875
 40
0.875
 40
0.875
 40
0.8928571428571428
 40
0.8928571428571428
 40
0.8928571428571428
 40
0.9107142857142857
 40
0.9107142857142857
 40
0.9107142857142857
 40
0.9285714285714285
 40
0.9285714285714285
 40
0.9285714285714285
 40
0.9464285714285714
 40
0.9464285714285714
 40
0.9464285714285714
 40
0.9642857142857142
 40
0.9642857142857142
 40
0.9642857142857142
 40
0.9821428571428571
 40
0.9821428571428571
 40
0.9821428571428571
 40
1.0
 40
1.0
 40
1.0
 40
1.0
 10
-38.752
 20
-43.9885
 30
0.0
 10
-38.9029
 20
-44.3115
 30
0.0
 10
-39.0539
 20
-44.6381
 30
0.0
 10
-39.2066
 20
-44.9681
 30
0.0
 10
-39.3594
 20
-45.2999
 30
0.0
 10
-39.4858
 20
-45.6159
 30
0.0
 10
-39.5841
 20
-45.9179
 30
0.0
 10
-39.8071
 20
-46.5903
 30
0.0
 10
-39.9001
 20
-47.1205
 30
0.0
 10
-39.8632
 20
-47.5067
 30
0.0
 10
-39.8316
 20
-47.9157
 30
0.0
 10
-39.6701
 20
-48.2388
 30
0.0
 10
-39.3769
 20
-48.4793
 30
0.0
 10
-39.0838
 20
-48.7198
 30
0.0
 10
-38.6642
 20
-48.8392
 30
0.0
 10
-38.1182
 20
-48.8392
 30
0.0
 10
-37.667
 20
-48.8392
 30
0.0
 10
-37.2299
 20
-48.7426
 30
0.0
 10
-36.8068
 20
-48.5512
 30
0.0
 10
-36.4925
 20
-48.4108
 30
0.0
 10
-36.2134
 20
-48.237
 30
0.0
 10
-35.9694
 20
-48.0316
 30
0.0
 10
-35.7254
 20
-47.8262
 30
0.0
 10
-35.5375
 20
-47.6138
 30
0.0
 10
-35.4058
 20
-47.3943
 30
0.0
 10
-35.2742
 20
-47.1749
 30
0.0
 10
-35.2075
 20
-46.9888
 30
0.0
 10
-35.2075
 20
-46.8378
 30
0.0
 10
-35.204
 20
-46.7693
 30
0.0
 10
-35.2373
 20
-46.7114
 30
0.0
 10
-35.3075
 20
-46.664
 30
0.0
 10
-35.3778
 20
-46.6148
 30
0.0
 10
-35.4638
 20
-46.5745
 30
0.0
 10
-35.5621
 20
-46.5394
 30
0.0
 10
-35.6622
 20
-46.506
 30
0.0
 10
-35.7657
 20
-46.4744
 30
0.0
 10
-35.8711
 20
-46.4481
 30
0.0
 10
-35.9782
 20
-46.42
 30
0.0
 10
-36.0642
 20
-46.3919
 30
0.0
 10
-36.1291
 20
-46.3656
 30
0.0
 10
-36.2871
 20
-46.3076
 30
0.0
 10
-36.4135
 20
-46.2198
 30
0.0
 10
-36.5119
 20
-46.1057
 30
0.0
 10
-36.6102
 20
-45.9899
 30
0.0
 10
-36.6558
 20
-45.8178
 30
0.0
 10
-36.6541
 20
-45.5878
 30
0.0
 10
-36.6541
 20
-45.2929
 30
0.0
 10
-36.5575
 20
-44.9418
 30
0.0
 10
-36.3644
 20
-44.531
 30
0.0
 10
-36.173
 20
-44.1219
 30
0.0
 10
-35.9062
 20
-43.6971
 30
0.0
 10
-35.5621
 20
-43.2582
 30
0.0
 10
-35.2619
 20
-42.9124
 30
0.0
 10
-35.0038
 20
-42.6473
 30
0.0
 10
-34.7914
 20
-42.4647
 30
0.0
 10
-34.579
 20
-42.2804
 30
0.0
 10
-34.3736
 20
-42.1171
 30
0.0
 10
-34.177
 20
-41.9749
 30
0.0
 10
-33.9803
 20
-41.8327
 30
0.0
 10
-33.7872
 20
-41.7133
 30
0.0
 10
-33.5976
 20
-41.6185
 30
0.0
 10
-33.5221
 20
-41.5764
 30
0.0
 10
-33.4501
 20
-41.5448
 30
0.0
 10
-33.3817
 20
-41.5202
 30
0.0
 10
-33.2921
 20
-41.4956
 30
0.0
 10
-33.2272
 20
-41.4904
 30
0.0
 10
-33.1833
 20
-41.5026
 30
0.0
 10
-33.1412
 20
-41.5149
 30
0.0
 10
-33.1166
 20
-41.55
 30
0.0
 10
-33.1096
 20
-41.608
 30
0.0
 10
-33.1271
 20
-41.6694
 30
0.0
 10
-33.1499
 20
-41.7449
 30
0.0
 10
-33.1815
 20
-41.8344
 30
0.0
 10
-33.2131
 20
-41.924
 30
0.0
 10
-33.2465
 20
-42.0153
 30
0.0
 10
-33.2851
 20
-42.1118
 30
0.0
 10
-33.322
 20
-42.2084
 30
0.0
 10
-33.3624
 20
-42.3032
 30
0.0
 10
-33.4027
 20
-42.398
 30
0.0
 10
-33.4431
 20
-42.491
 30
0.0
 10
-33.4835
 20
-42.5753
 30
0.0
 10
-33.5204
 20
-42.649
 30
0.0
 10
-33.559
 20
-42.7228
 30
0.0
 10
-33.5923
 20
-42.7824
 30
0.0
 10
-33.6239
 20
-42.8298
 30
0.0
 10
-33.6555
 20
-42.8755
 30
0.0
 10
-33.6766
 20
-42.8966
 30
0.0
 10
-33.6907
 20
-42.893
 30
0.0
 10
-33.7047
 20
-42.9001
 30
0.0
 10
-33.7223
 20
-42.8948
 30
0.0
 10
-33.7416
 20
-42.879
 30
0.0
 10
-33.7626
 20
-42.8614
 30
0.0
 10
-33.7995
 20
-42.8527
 30
0.0
 10
-33.8504
 20
-42.8527
 30
0.0
 10
-33.9803
 20
-42.8527
 30
0.0
 10
-34.1682
 20
-42.893
 30
0.0
 10
-34.4157
 20
-42.9738
 30
0.0
 10
-34.6632
 20
-43.0546
 30
0.0
 10
-34.9231
 20
-43.2073
 30
0.0
 10
-35.1952
 20
-43.4302
 30
0.0
 10
-35.4673
 20
-43.655
 30
0.0
 10
-35.6762
 20
-43.8674
 30
0.0
 10
-35.8202
 20
-44.064
 30
0.0
 10
-35.9641
 20
-44.2606
 30
0.0
 10
-36.0361
 20
-44.3976
 30
0.0
 10
-36.0361
 20
-44.4731
 30
0.0
 10
-36.0536
 20
-44.5819
 30
0.0
 10
-36.0168
 20
-44.6767
 30
0.0
 10
-35.9272
 20
-44.7557
 30
0.0
 10
-35.85
 20
-44.8172
 30
0.0
 10
-35.7043
 20
-44.8856
 30
0.0
 10
-35.4936
 20
-44.9611
 30
0.0
 10
-35.283
 20
-45.0366
 30
0.0
 10
-35.1513
 20
-45.0945
 30
0.0
 10
-35.1004
 20
-45.1367
 30
0.0
 10
-34.9318
 20
-45.249
 30
0.0
 10
-34.8476
 20
-45.4579
 30
0.0
 10
-34.8476
 20
-45.7634
 30
0.0
 10
-34.8476
 20
-46.2234
 30
0.0
 10
-34.9371
 20
-46.75
 30
0.0
 10
-35.1179
 20
-47.3452
 30
0.0
 10
-35.2988
 20
-47.9403
 30
0.0
 10
-35.548
 20
-48.4564
 30
0.0
 10
-35.8658
 20
-48.8953
 30
0.0
 10
-35.9992
 20
-49.0972
 30
0.0
 10
-36.1642
 20
-49.2991
 30
0.0
 10
-36.3609
 20
-49.4975
 30
0.0
 10
-36.5557
 20
-49.6959
 30
0.0
 10
-36.7682
 20
-49.8626
 30
0.0
 10
-36.9981
 20
-49.9961
 30
0.0
 10
-37.4406
 20
-50.3015
 30
0.0
 10
-37.9497
 20
-50.4543
 30
0.0
 10
-38.5255
 20
-50.4543
 30
0.0
 10
-39.1803
 20
-50.4437
 30
0.0
 10
-39.6771
 20
-50.2296
 30
0.0
 10
-40.0177
 20
-49.8117
 30
0.0
 10
-40.1705
 20
-49.5993
 30
0.0
 10
-40.2775
 20
-49.3728
 30
0.0
 10
-40.3355
 20
-49.1341
 30
0.0
 10
-40.3934
 20
-48.8971
 30
0.0
 10
-40.4233
 20
-48.6689
 30
0.0
 10
-40.4233
 20
-48.4529
 30
0.0
 10
-40.4127
 20
-48.0632
 30
0.0
 10
-40.3618
 20
-47.6699
 30
0.0
 10
-40.2688
 20
-47.2749
 30
0.0
 10
-40.1757
 20
-46.8817
 30
0.0
 10
-40.0581
 20
-46.492
 30
0.0
 10
-39.9141
 20
-46.1075
 30
0.0
 10
-39.7702
 20
-45.7248
 30
0.0
 10
-39.6069
 20
-45.3491
 30
0.0
 10
-39.4226
 20
-44.9822
 30
0.0
 10
-39.24
 20
-44.6153
 30
0.0
 10
-39.0522
 20
-44.2641
 30
0.0
 10
-38.859
 20
-43.9271
 30
0.0
 10
-38.8292
 20
-43.8762
 30
0.0
 10
-38.8116
 20
-43.8463
 30
0.0
 10
-38.8081
 20
-43.8393
 30
0.0
 10
-38.7713
 20
-43.7884
 30
0.0
 10
-38.7344
 20
-43.7621
 30
0.0
 10
-38.701
 20
-43.7621
 30
0.0
 10
-38.701
 20
-43.7621
 30
0.0
 10
-38.6958
 20
-43.7621
 30
0.0
 10
-38.6958
 20
-43.7621
 30
0.0
 10
-38.6852
 20
-43.7726
 30
0.0
 10
-38.6835
 20
-43.7937
 30
0.0
 10
-38.6923
 20
-43.8253
 30
0.0
 10
-38.701
 20
-43.8551
 30
0.0
 10
-38.7204
 20
-43.9095
 30
0.0
 10
-38.752
 20
-43.9885
 30
0.0
  0
SPLINE
  5
61
330
1F
100
AcDbEntity
  8
Layer 1
 62
   230
100
AcDbSpline
210
0.0
220
0.0
230
1.0
 70
    11
 71
     3
 72
   263
 73
   259
 74
     0
 42
0.0000000001
 43
0.0000000001
 40
0.0
 40
0.0
 40
0.0
 40
0.0
 40
0.0116279069767442
 40
0.0116279069767442
 40
0.0116279069767442
 40
0.0232558139534884
 40
0.0232558139534884
 40
0.0232558139534884
 40
0.0348837209302326
 40
0.0348837209302326
 40
0.0348837209302326
 40
0.0465116279069767
 40
0.0465116279069767
 40
0.0465116279069767
 40
0.0581395348837209
 40
0.0581395348837209
 40
0.0581395348837209
 40
0.0697674418604651
 40
0.0697674418604651
 40
0.0697674418604651
 40
0.0813953488372093
 40
0.0813953488372093
 40
0.0813953488372093
 40
0.0930232558139535
 40
0.0930232558139535
 40
0.0930232558139535
 40
0.1046511627906977
 40
0.1046511627906977
 40
0.1046511627906977
 40
0.1162790697674419
 40
0.1162790697674419
 40
0.1162790697674419
 40
0.1279069767441861
 40
0.1279069767441861
 40
0.1279069767441861
 40
0.1395348837209302
 40
0.1395348837209302
 40
0.1395348837209302
 40
0.1511627906976744
 40
0.1511627906976744
 40
0.1511627906976744
 40
0.1627906976744186
 40
0.1627906976744186
 40
0.1627906976744186
 40
0.1744186046511628
 40
0.1744186046511628
 40
0.1744186046511628
 40
0.186046511627907
 40
0.186046511627907
 40
0.186046511627907
 40
0.1976744186046512
 40
0.1976744186046512
 40
0.1976744186046512
 40
0.2093023255813953
 40
0.2093023255813953
 40
0.2093023255813953
 40
0.2209302325581395
 40
0.2209302325581395
 40
0.2209302325581395
 40
0.2325581395348837
 40
0.2325581395348837
 40
0.2325581395348837
 40
0.2441860465116279
 40
0.2441860465116279
 40
0.2441860465116279
 40
0.2558139534883721
 40
0.2558139534883721
 40
0.2558139534883721
 40
0.2674418604651163
 40
0.2674418604651163
 40
0.2674418604651163
 40
0.2790697674418605
 40
0.2790697674418605
 40
0.2790697674418605
 40
0.2906976744186047
 40
0.2906976744186047
 40
0.2906976744186047
 40
0.3023255813953488
 40
0.3023255813953488
 40
0.3023255813953488
 40
0.313953488372093
 40
0.313953488372093
 40
0.313953488372093
 40
0.3255813953488372
 40
0.3255813953488372
 40
0.3255813953488372
 40
0.3372093023255814
 40
0.3372093023255814
 40
0.3372093023255814
 40
0.3488372093023256
 40
0.3488372093023256
 40
0.3488372093023256
 40
0.3604651162790697
 40
0.3604651162790697
 40
0.3604651162790697
 40
0.3720930232558139
 40
0.3720930232558139
 40
0.3720930232558139
 40
0.3837209302325582
 40
0.3837209302325582
 40
0.3837209302325582
 40
0.3953488372093023
 40
0.3953488372093023
 40
0.3953488372093023
 40
0.4069767441860465
 40
0.4069767441860465
 40
0.4069767441860465
 40
0.4186046511627907
 40
0.4186046511627907
 40
0.4186046511627907
 40
0.4302325581395349
 40
0.4302325581395349
 40
0.4302325581395349
 40
0.4418604651162791
 40
0.4418604651162791
 40
0.4418604651162791
 40
0.4534883720930232
 40
0.4534883720930232
 40
0.4534883720930232
 40
0.4651162790697674
 40
0.4651162790697674
 40
0.4651162790697674
 40
0.4767441860465116
 40
0.4767441860465116
 40
0.4767441860465116
 40
0.4883720930232558
 40
0.4883720930232558
 40
0.4883720930232558
 40
0.5
 40
0.5
 40
0.5
 40
0.5116279069767442
 40
0.5116279069767442
 40
0.5116279069767442
 40
0.5232558139534884
 40
0.5232558139534884
 40
0.5232558139534884
 40
0.5348837209302325
 40
0.5348837209302325
 40
0.5348837209302325
 40
0.5465116279069767
 40
0.5465116279069767
 40
0.5465116279069767
 40
0.5581395348837209
 40
0.5581395348837209
 40
0.5581395348837209
 40
0.5697674418604651
 40
0.5697674418604651
 40
0.5697674418604651
 40
0.5813953488372093
 40
0.5813953488372093
 40
0.5813953488372093
 40
0.5930232558139534
 40
0.5930232558139534
 40
0.5930232558139534
 40
0.6046511627906976
 40
0.6046511627906976
 40
0.6046511627906976
 40
0.6162790697674418
 40
0.6162790697674418
 40
0.6162790697674418
 40
0.627906976744186
 40
0.627906976744186
 40
0.627906976744186
 40
0.6395348837209303
 40
0.6395348837209303
 40
0.6395348837209303
 40
0.6511627906976745
 40
0.6511627906976745
 40
0.6511627906976745
 40
0.6627906976744186
 40
0.6627906976744186
 40
0.6627906976744186
 40
0.6744186046511628
 40
0.6744186046511628
 40
0.6744186046511628
 40
0.686046511627907
 40
0.686046511627907
 40
0.686046511627907
 40
0.6976744186046512
 40
0.6976744186046512
 40
0.6976744186046512
 40
0.7093023255813954
 40
0.7093023255813954
 40
0.7093023255813954
 40
0.7209302325581395
 40
0.7209302325581395
 40
0.7209302325581395
 40
0.7325581395348837
 40
0.7325581395348837
 40
0.7325581395348837
 40
0.7441860465116279
 40
0.7441860465116279
 40
0.7441860465116279
 40
0.7558139534883721
 40
0.7558139534883721
 40
0.7558139534883721
 40
0.7674418604651163
 40
0.7674418604651163
 40
0.7674418604651163
 40
0.7790697674418604
 40
0.7790697674418604
 40
0.7790697674418604
 40
0.7906976744186046
 40
0.7906976744186046
 40
0.7906976744186046
 40
0.8023255813953488
 40
0.8023255813953488
 40
0.8023255813953488
 40
0.813953488372093
 40
0.813953488372093
 40
0.813953488372093
 40
0.8255813953488372
 40
0.8255813953488372
 40
0.8255813953488372
 40
0.8372093023255813
 40
0.8372093023255813
 40
0.8372093023255813
 40
0.8488372093023255
 40
0.8488372093023255
 40
0.8488372093023255
 40
0.8604651162790697
 40
0.8604651162790697
 40
0.8604651162790697
 40
0.872093023255814
 40
0.872093023255814
 40
0.872093023255814
 40
0.8837209302325582
 40
0.8837209302325582
 40
0.8837209302325582
 40
0.8953488372093024
 40
0.8953488372093024
 40
0.8953488372093024
 40
0.9069767441860465
 40
0.9069767441860465
 40
0.9069767441860465
 40
0.9186046511627907
 40
0.9186046511627907
 40
0.9186046511627907
 40
0.9302325581395349
 40
0.9302325581395349
 40
0.9302325581395349
 40
0.9418604651162791
 40
0.9418604651162791
 40
0.9418604651162791
 40
0.9534883720930233
 40
0.9534883720930233
 40
0.9534883720930233
 40
0.9651162790697674
 40
0.9651162790697674
 40
0.9651162790697674
 40
0.9767441860465116
 40
0.9767441860465116
 40
0.9767441860465116
 40
0.9883720930232558
 40
0.9883720930232558
 40
0.9883720930232558
 40
1.0
 40
1.0
 40
1.0
 40
1.0
 10
-11.2931
 20
-43.655
 30
0.0
 10
-11.2931
 20
-43.8059
 30
0.0
 10
-11.2773
 20
-43.9517
 30
0.0
 10
-11.2475
 20
-44.0921
 30
0.0
 10
-11.1843
 20
-44.308
 30
0.0
 10
-11.0719
 20
-44.4853
 30
0.0
 10
-10.9104
 20
-44.6275
 30
0.0
 10
-10.7472
 20
-44.768
 30
0.0
 10
-10.5523
 20
-44.847
 30
0.0
 10
-10.3258
 20
-44.8628
 30
0.0
 10
-10.2538
 20
-44.768
 30
0.0
 10
-10.1801
 20
-44.6679
 30
0.0
 10
-10.1029
 20
-44.5679
 30
0.0
 10
-10.0256
 20
-44.466
 30
0.0
 10
-9.9519
 20
-44.366
 30
0.0
 10
-9.8817
 20
-44.2659
 30
0.0
 10
-9.8114
 20
-44.1676
 30
0.0
 10
-9.7482
 20
-44.0693
 30
0.0
 10
-9.6938
 20
-43.971
 30
0.0
 10
-9.6394
 20
-43.8727
 30
0.0
 10
-9.5973
 20
-43.7779
 30
0.0
 10
-9.5709
 20
-43.6848
 30
0.0
 10
-9.5639
 20
-43.6585
 30
0.0
 10
-9.5551
 20
-43.6304
 30
0.0
 10
-9.5464
 20
-43.6005
 30
0.0
 10
-9.5376
 20
-43.5707
 30
0.0
 10
-9.5306
 20
-43.5338
 30
0.0
 10
-9.5218
 20
-43.4882
 30
0.0
 10
-9.513
 20
-43.4408
 30
0.0
 10
-9.5025
 20
-43.3811
 30
0.0
 10
-9.4937
 20
-43.3074
 30
0.0
 10
-9.4832
 20
-43.2336
 30
0.0
 10
-9.4709
 20
-43.1353
 30
0.0
 10
-9.4568
 20
-43.0142
 30
0.0
 10
-9.4428
 20
-42.893
 30
0.0
 10
-9.4287
 20
-42.7438
 30
0.0
 10
-9.4112
 20
-42.5665
 30
0.0
 10
-9.3936
 20
-42.391
 30
0.0
 10
-9.3726
 20
-42.175
 30
0.0
 10
-9.3497
 20
-41.9205
 30
0.0
 10
-9.3287
 20
-41.7572
 30
0.0
 10
-9.2953
 20
-41.5588
 30
0.0
 10
-9.2479
 20
-41.3306
 30
0.0
 10
-9.2023
 20
-41.1006
 30
0.0
 10
-9.132
 20
-40.8619
 30
0.0
 10
-9.0408
 20
-40.6143
 30
0.0
 10
-8.9793
 20
-40.4669
 30
0.0
 10
-8.9196
 20
-40.3247
 30
0.0
 10
-8.8634
 20
-40.186
 30
0.0
 10
-8.8073
 20
-40.0473
 30
0.0
 10
-8.7493
 20
-39.9086
 30
0.0
 10
-8.6932
 20
-39.7716
 30
0.0
 10
-8.637
 20
-39.6347
 30
0.0
 10
-8.579
 20
-39.496
 30
0.0
 10
-8.5211
 20
-39.3573
 30
0.0
 10
-8.4632
 20
-39.2186
 30
0.0
 10
-8.4
 20
-39.0729
 30
0.0
 10
-8.3297
 20
-38.922
 30
0.0
 10
-8.3175
 20
-38.8886
 30
0.0
 10
-8.2964
 20
-38.8746
 30
0.0
 10
-8.2683
 20
-38.8798
 30
0.0
 10
-8.242
 20
-38.8851
 30
0.0
 10
-8.2279
 20
-38.9132
 30
0.0
 10
-8.2279
 20
-38.9641
 30
0.0
 10
-8.2718
 20
-39.1484
 30
0.0
 10
-8.3157
 20
-39.3486
 30
0.0
 10
-8.3596
 20
-39.5627
 30
0.0
 10
-8.4017
 20
-39.7769
 30
0.0
 10
-8.4421
 20
-39.9964
 30
0.0
 10
-8.479
 20
-40.2193
 30
0.0
 10
-8.5176
 20
-40.4423
 30
0.0
 10
-8.5527
 20
-40.6617
 30
0.0
 10
-8.5878
 20
-40.8794
 30
0.0
 10
-8.6229
 20
-41.0971
 30
0.0
 10
-8.6545
 20
-41.2972
 30
0.0
 10
-8.6826
 20
-41.4816
 30
0.0
 10
-8.7125
 20
-41.6642
 30
0.0
 10
-8.737
 20
-41.8274
 30
0.0
 10
-8.7581
 20
-41.9679
 30
0.0
 10
-8.7774
 20
-42.1083
 30
0.0
 10
-8.795
 20
-42.2136
 30
0.0
 10
-8.809
 20
-42.2821
 30
0.0
 10
-8.8266
 20
-42.3734
 30
0.0
 10
-8.8476
 20
-42.4752
 30
0.0
 10
-8.874
 20
-42.5841
 30
0.0
 10
-8.8986
 20
-42.6947
 30
0.0
 10
-8.9337
 20
-42.8123
 30
0.0
 10
-8.9793
 20
-42.9404
 30
0.0
 10
-9.0162
 20
-43.0598
 30
0.0
 10
-9.053
 20
-43.1722
 30
0.0
 10
-9.0864
 20
-43.2758
 30
0.0
 10
-9.1215
 20
-43.3811
 30
0.0
 10
-9.1514
 20
-43.4759
 30
0.0
 10
-9.1794
 20
-43.5619
 30
0.0
 10
-9.132
 20
-43.4899
 30
0.0
 10
-9.0724
 20
-43.4074
 30
0.0
 10
-9.0021
 20
-43.3144
 30
0.0
 10
-8.9319
 20
-43.2231
 30
0.0
 10
-8.8547
 20
-43.1318
 30
0.0
 10
-8.7722
 20
-43.0423
 30
0.0
 10
-8.6914
 20
-42.9527
 30
0.0
 10
-8.6036
 20
-42.872
 30
0.0
 10
-8.5123
 20
-42.7982
 30
0.0
 10
-8.4228
 20
-42.7245
 30
0.0
 10
-8.3315
 20
-42.6683
 30
0.0
 10
-8.2437
 20
-42.6315
 30
0.0
 10
-7.9137
 20
-42.491
 30
0.0
 10
-7.6609
 20
-42.5402
 30
0.0
 10
-7.4818
 20
-42.7807
 30
0.0
 10
-7.4309
 20
-42.8527
 30
0.0
 10
-7.3975
 20
-42.9282
 30
0.0
 10
-7.3835
 20
-43.0072
 30
0.0
 10
-7.3712
 20
-43.0862
 30
0.0
 10
-7.3677
 20
-43.1669
 30
0.0
 10
-7.3747
 20
-43.2477
 30
0.0
 10
-7.38
 20
-43.3302
 30
0.0
 10
-7.3975
 20
-43.4109
 30
0.0
 10
-7.4221
 20
-43.4899
 30
0.0
 10
-7.4485
 20
-43.5689
 30
0.0
 10
-7.4748
 20
-43.6444
 30
0.0
 10
-7.5029
 20
-43.7164
 30
0.0
 10
-7.6012
 20
-43.9499
 30
0.0
 10
-7.7153
 20
-44.1834
 30
0.0
 10
-7.8452
 20
-44.4151
 30
0.0
 10
-7.9734
 20
-44.6486
 30
0.0
 10
-8.1173
 20
-44.8698
 30
0.0
 10
-8.2771
 20
-45.0787
 30
0.0
 10
-8.4368
 20
-45.2876
 30
0.0
 10
-8.6106
 20
-45.4808
 30
0.0
 10
-8.7985
 20
-45.6581
 30
0.0
 10
-8.9863
 20
-45.8354
 30
0.0
 10
-9.1917
 20
-45.9828
 30
0.0
 10
-9.4112
 20
-46.1057
 30
0.0
 10
-9.6306
 20
-46.2269
 30
0.0
 10
-9.8624
 20
-46.3164
 30
0.0
 10
-10.1099
 20
-46.3726
 30
0.0
 10
-10.3574
 20
-46.4288
 30
0.0
 10
-10.619
 20
-46.441
 30
0.0
 10
-10.8964
 20
-46.4059
 30
0.0
 10
-11.0719
 20
-46.3726
 30
0.0
 10
-11.2264
 20
-46.3024
 30
0.0
 10
-11.3599
 20
-46.1988
 30
0.0
 10
-11.4375
 20
-46.1375
 30
0.0
 10
-11.508
 20
-46.0684
 30
0.0
 10
-11.571
 20
-45.9917
 30
0.0
 10
-11.6167
 20
-46.1343
 30
0.0
 10
-11.6862
 20
-46.3075
 30
0.0
 10
-11.7794
 20
-46.5113
 30
0.0
 10
-11.8742
 20
-46.7184
 30
0.0
 10
-11.9919
 20
-46.9326
 30
0.0
 10
-12.1323
 20
-47.1503
 30
0.0
 10
-12.2728
 20
-47.368
 30
0.0
 10
-12.4536
 20
-47.5611
 30
0.0
 10
-12.6748
 20
-47.7279
 30
0.0
 10
-12.896
 20
-47.8964
 30
0.0
 10
-13.133
 20
-47.9807
 30
0.0
 10
-13.3875
 20
-47.9807
 30
0.0
 10
-13.521
 20
-47.9807
 30
0.0
 10
-13.6333
 20
-47.9438
 30
0.0
 10
-13.7228
 20
-47.8701
 30
0.0
 10
-13.8141
 20
-47.7963
 30
0.0
 10
-13.8967
 20
-47.6928
 30
0.0
 10
-13.9686
 20
-47.5593
 30
0.0
 10
-14.0266
 20
-47.4417
 30
0.0
 10
-14.0582
 20
-47.3223
 30
0.0
 10
-14.0652
 20
-47.1977
 30
0.0
 10
-14.0687
 20
-47.1679
 30
0.0
 10
-14.0652
 20
-47.1485
 30
0.0
 10
-14.0529
 20
-47.1415
 30
0.0
 10
-14.0406
 20
-47.1345
 30
0.0
 10
-14.0283
 20
-47.1292
 30
0.0
 10
-14.0143
 20
-47.1257
 30
0.0
 10
-13.9177
 20
-47.0994
 30
0.0
 10
-13.8422
 20
-47.0292
 30
0.0
 10
-13.7878
 20
-46.915
 30
0.0
 10
-13.7228
 20
-46.7816
 30
0.0
 10
-13.6737
 20
-46.6412
 30
0.0
 10
-13.6386
 20
-46.4937
 30
0.0
 10
-13.6052
 20
-46.3462
 30
0.0
 10
-13.5806
 20
-46.1707
 30
0.0
 10
-13.5666
 20
-45.9635
 30
0.0
 10
-13.5526
 20
-45.7581
 30
0.0
 10
-13.5455
 20
-45.5826
 30
0.0
 10
-13.5455
 20
-45.4351
 30
0.0
 10
-13.5455
 20
-45.4351
 30
0.0
 10
-13.5455
 20
-44.9874
 30
0.0
 10
-13.5455
 20
-44.9874
 30
0.0
 10
-13.5455
 20
-44.833
 30
0.0
 10
-13.5438
 20
-44.6714
 30
0.0
 10
-13.5403
 20
-44.5029
 30
0.0
 10
-13.5315
 20
-44.064
 30
0.0
 10
-13.4806
 20
-43.5847
 30
0.0
 10
-13.391
 20
-43.0633
 30
0.0
 10
-13.3296
 20
-42.707
 30
0.0
 10
-13.1681
 20
-42.2224
 30
0.0
 10
-12.9083
 20
-41.608
 30
0.0
 10
-12.8679
 20
-41.522
 30
0.0
 10
-12.8345
 20
-41.4816
 30
0.0
 10
-12.8082
 20
-41.4851
 30
0.0
 10
-12.7819
 20
-41.4886
 30
0.0
 10
-12.7731
 20
-41.5114
 30
0.0
 10
-12.7801
 20
-41.5571
 30
0.0
 10
-12.896
 20
-41.9538
 30
0.0
 10
-12.9592
 20
-42.5928
 30
0.0
 10
-12.968
 20
-43.4741
 30
0.0
 10
-12.9767
 20
-44.3554
 30
0.0
 10
-12.9925
 20
-44.94
 30
0.0
 10
-13.0189
 20
-45.2262
 30
0.0
 10
-13.0452
 20
-45.5124
 30
0.0
 10
-13.0996
 20
-45.788
 30
0.0
 10
-13.1804
 20
-46.0513
 30
0.0
 10
-13.298
 20
-46.4428
 30
0.0
 10
-13.456
 20
-46.7904
 30
0.0
 10
-13.6544
 20
-47.0959
 30
0.0
 10
-13.5104
 20
-47.0959
 30
0.0
 10
-13.3682
 20
-47.0871
 30
0.0
 10
-13.2295
 20
-47.0695
 30
0.0
 10
-13.0908
 20
-47.052
 30
0.0
 10
-12.9592
 20
-47.0186
 30
0.0
 10
-12.8345
 20
-46.9695
 30
0.0
 10
-12.7081
 20
-46.9203
 30
0.0
 10
-12.5923
 20
-46.8483
 30
0.0
 10
-12.4869
 20
-46.7553
 30
0.0
 10
-12.3798
 20
-46.664
 30
0.0
 10
-12.2886
 20
-46.5376
 30
0.0
 10
-12.2113
 20
-46.3814
 30
0.0
 10
-12.1341
 20
-46.2234
 30
0.0
 10
-12.0744
 20
-46.0302
 30
0.0
 10
-12.0322
 20
-45.802
 30
0.0
 10
-11.9884
 20
-45.5738
 30
0.0
 10
-11.9655
 20
-45.2982
 30
0.0
 10
-11.962
 20
-44.9769
 30
0.0
 10
-11.962
 20
-44.7399
 30
0.0
 10
-11.9638
 20
-44.4397
 30
0.0
 10
-11.9673
 20
-44.0745
 30
0.0
 10
-11.9708
 20
-43.7094
 30
0.0
 10
-11.9603
 20
-43.3741
 30
0.0
 10
-11.9357
 20
-43.0686
 30
0.0
 10
-11.9129
 20
-42.7631
 30
0.0
 10
-11.8251
 20
-42.3945
 30
0.0
 10
-11.6741
 20
-41.9626
 30
0.0
 10
-11.5231
 20
-41.5307
 30
0.0
 10
-11.3792
 20
-41.1498
 30
0.0
 10
-11.2405
 20
-40.8215
 30
0.0
 10
-11.2177
 20
-40.7688
 30
0.0
 10
-11.1983
 20
-40.7513
 30
0.0
 10
-11.1825
 20
-40.7635
 30
0.0
 10
-11.1667
 20
-40.7776
 30
0.0
 10
-11.165
 20
-40.8548
 30
0.0
 10
-11.179
 20
-40.9953
 30
0.0
 10
-11.2545
 20
-41.5746
 30
0.0
 10
-11.2879
 20
-41.9556
 30
0.0
 10
-11.2773
 20
-42.1382
 30
0.0
 10
-11.2773
 20
-42.1382
 30
0.0
 10
-11.2931
 20
-43.5168
 30
0.0
 10
-11.2931
 20
-43.5168
 30
0.0
 10
-11.2931
 20
-43.5168
 30
0.0
 10
-11.2931
 20
-43.655
 30
0.0
 10
-11.2931
 20
-43.655
 30
0.0
  0
SPLINE
  5
62
330
1F
100
AcDbEntity
  8
Layer 1
 62
   230
100
AcDbSpline
210
0.0
220
0.0
230
1.0
 70
    11
 71
     3
 72
    20
 73
    16
 74
     0
 42
0.0000000001
 43
0.0000000001
 40
0.0
 40
0.0
 40
0.0
 40
0.0
 40
0.2
 40
0.2
 40
0.2
 40
0.4
 40
0.4
 40
0.4
 40
0.6000000000000001
 40
0.6000000000000001
 40
0.6000000000000001
 40
0.8
 40
0.8
 40
0.8
 40
1.0
 40
1.0
 40
1.0
 40
1.0
 10
-9.8624
 20
-44.8277
 30
0.0
 10
-9.4832
 20
-44.8066
 30
0.0
 10
-9.1162
 20
-44.7083
 30
0.0
 10
-8.7634
 20
-44.5345
 30
0.0
 10
-8.4087
 20
-44.3589
 30
0.0
 10
-8.1015
 20
-44.0974
 30
0.0
 10
-7.8364
 20
-43.748
 30
0.0
 10
-8.2279
 20
-43.5584
 30
0.0
 10
-8.551
 20
-43.5233
 30
0.0
 10
-8.809
 20
-43.6392
 30
0.0
 10
-8.9319
 20
-43.6971
 30
0.0
 10
-9.0829
 20
-43.8253
 30
0.0
 10
-9.2584
 20
-44.0219
 30
0.0
 10
-9.4358
 20
-44.2203
 30
0.0
 10
-9.6376
 20
-44.4871
 30
0.0
 10
-9.8624
 20
-44.8277
 30
0.0
  0
SPLINE
  5
63
330
1F
100
AcDbEntity
  8
Layer 1
 62
   230
100
AcDbSpline
210
0.0
220
0.0
230
1.0
 70
    11
 71
     3
 72
   173
 73
   169
 74
     0
 42
0.0000000001
 43
0.0000000001
 40
0.0
 40
0.0
 40
0.0
 40
0.0
 40
0.0178571428571429
 40
0.0178571428571429
 40
0.0178571428571429
 40
0.0357142857142857
 40
0.0357142857142857
 40
0.0357142857142857
 40
0.0535714285714286
 40
0.0535714285714286
 40
0.0535714285714286
 40
0.0714285714285714
 40
0.0714285714285714
 40
0.0714285714285714
 40
0.0892857142857143
 40
0.0892857142857143
 40
0.0892857142857143
 40
0.1071428571428571
 40
0.1071428571428571
 40
0.1071428571428571
 40
0.125
 40
0.125
 40
0.125
 40
0.1428571428571428
 40
0.1428571428571428
 40
0.1428571428571428
 40
0.1607142857142857
 40
0.1607142857142857
 40
0.1607142857142857
 40
0.1785714285714285
 40
0.1785714285714285
 40
0.1785714285714285
 40
0.1964285714285714
 40
0.1964285714285714
 40
0.1964285714285714
 40
0.2142857142857143
 40
0.2142857142857143
 40
0.2142857142857143
 40
0.2321428571428571
 40
0.2321428571428571
 40
0.2321428571428571
 40
0.25
 40
0.25
 40
0.25
 40
0.2678571428571428
 40
0.2678571428571428
 40
0.2678571428571428
 40
0.2857142857142857
 40
0.2857142857142857
 40
0.2857142857142857
 40
0.3035714285714285
 40
0.3035714285714285
 40
0.3035714285714285
 40
0.3214285714285714
 40
0.3214285714285714
 40
0.3214285714285714
 40
0.3392857142857142
 40
0.3392857142857142
 40
0.3392857142857142
 40
0.3571428571428571
 40
0.3571428571428571
 40
0.3571428571428571
 40
0.375
 40
0.375
 40
0.375
 40
0.3928571428571428
 40
0.3928571428571428
 40
0.3928571428571428
 40
0.4107142857142857
 40
0.4107142857142857
 40
0.4107142857142857
 40
0.4285714285714285
 40
0.4285714285714285
 40
0.4285714285714285
 40
0.4464285714285714
 40
0.4464285714285714
 40
0.4464285714285714
 40
0.4642857142857142
 40
0.4642857142857142
 40
0.4642857142857142
 40
0.4821428571428571
 40
0.4821428571428571
 40
0.4821428571428571
 40
0.5
 40
0.5
 40
0.5
 40
0.5178571428571428
 40
0.5178571428571428
 40
0.5178571428571428
 40
0.5357142857142857
 40
0.5357142857142857
 40
0.5357142857142857
 40
0.5535714285714285
 40
0.5535714285714285
 40
0.5535714285714285
 40
0.5714285714285714
 40
0.5714285714285714
 40
0.5714285714285714
 40
0.5892857142857143
 40
0.5892857142857143
 40
0.5892857142857143
 40
0.6071428571428571
 40
0.6071428571428571
 40
0.6071428571428571
 40
0.625
 40
0.625
 40
0.625
 40
0.6428571428571428
 40
0.6428571428571428
 40
0.6428571428571428
 40
0.6607142857142857
 40
0.6607142857142857
 40
0.6607142857142857
 40
0.6785714285714285
 40
0.6785714285714285
 40
0.6785714285714285
 40
0.6964285714285714
 40
0.6964285714285714
 40
0.6964285714285714
 40
0.7142857142857142
 40
0.7142857142857142
 40
0.7142857142857142
 40
0.7321428571428571
 40
0.7321428571428571
 40
0.7321428571428571
 40
0.75
 40
0.75
 40
0.75
 40
0.7678571428571428
 40
0.7678571428571428
 40
0.7678571428571428
 40
0.7857142857142857
 40
0.7857142857142857
 40
0.7857142857142857
 40
0.8035714285714285
 40
0.8035714285714285
 40
0.8035714285714285
 40
0.8214285714285714
 40
0.8214285714285714
 40
0.8214285714285714
 40
0.8392857142857142
 40
0.8392857142857142
 40
0.8392857142857142
 40
0.8571428571428571
 40
0.8571428571428571
 40
0.8571428571428571
 40
0.875
 40
0.875
 40
0.875
 40
0.8928571428571428
 40
0.8928571428571428
 40
0.8928571428571428
 40
0.9107142857142857
 40
0.9107142857142857
 40
0.9107142857142857
 40
0.9285714285714285
 40
0.9285714285714285
 40
0.9285714285714285
 40
0.9464285714285714
 40
0.9464285714285714
 40
0.9464285714285714
 40
0.9642857142857142
 40
0.9642857142857142
 40
0.9642857142857142
 40
0.9821428571428571
 40
0.9821428571428571
 40
0.9821428571428571
 40
1.0
 40
1.0
 40
1.0
 40
1.0
 10
-20.1904
 20
-43.9885
 30
0.0
 10
-20.3413
 20
-44.3115
 30
0.0
 10
-20.4923
 20
-44.6381
 30
0.0
 10
-20.645
 20
-44.9681
 30
0.0
 10
-20.7978
 20
-45.2999
 30
0.0
 10
-20.9242
 20
-45.6159
 30
0.0
 10
-21.0225
 20
-45.9179
 30
0.0
 10
-21.2455
 20
-46.5903
 30
0.0
 10
-21.3385
 20
-47.1205
 30
0.0
 10
-21.3016
 20
-47.5067
 30
0.0
 10
-21.27
 20
-47.9157
 30
0.0
 10
-21.1085
 20
-48.2388
 30
0.0
 10
-20.8153
 20
-48.4793
 30
0.0
 10
-20.5222
 20
-48.7198
 30
0.0
 10
-20.1026
 20
-48.8392
 30
0.0
 10
-19.5566
 20
-48.8392
 30
0.0
 10
-19.1054
 20
-48.8392
 30
0.0
 10
-18.6683
 20
-48.7426
 30
0.0
 10
-18.2452
 20
-48.5512
 30
0.0
 10
-17.9309
 20
-48.4108
 30
0.0
 10
-17.6518
 20
-48.237
 30
0.0
 10
-17.4078
 20
-48.0316
 30
0.0
 10
-17.1638
 20
-47.8262
 30
0.0
 10
-16.9759
 20
-47.6138
 30
0.0
 10
-16.8442
 20
-47.3943
 30
0.0
 10
-16.7126
 20
-47.1749
 30
0.0
 10
-16.6459
 20
-46.9888
 30
0.0
 10
-16.6459
 20
-46.8378
 30
0.0
 10
-16.6424
 20
-46.7693
 30
0.0
 10
-16.6757
 20
-46.7114
 30
0.0
 10
-16.7459
 20
-46.664
 30
0.0
 10
-16.8162
 20
-46.6148
 30
0.0
 10
-16.9022
 20
-46.5745
 30
0.0
 10
-17.0005
 20
-46.5394
 30
0.0
 10
-17.1006
 20
-46.506
 30
0.0
 10
-17.2041
 20
-46.4744
 30
0.0
 10
-17.3095
 20
-46.4481
 30
0.0
 10
-17.4166
 20
-46.42
 30
0.0
 10
-17.5026
 20
-46.3919
 30
0.0
 10
-17.5675
 20
-46.3656
 30
0.0
 10
-17.7255
 20
-46.3076
 30
0.0
 10
-17.8519
 20
-46.2198
 30
0.0
 10
-17.9503
 20
-46.1057
 30
0.0
 10
-18.0486
 20
-45.9899
 30
0.0
 10
-18.0942
 20
-45.8178
 30
0.0
 10
-18.0925
 20
-45.5878
 30
0.0
 10
-18.0925
 20
-45.2929
 30
0.0
 10
-17.9959
 20
-44.9418
 30
0.0
 10
-17.8028
 20
-44.531
 30
0.0
 10
-17.6114
 20
-44.1219
 30
0.0
 10
-17.3446
 20
-43.6971
 30
0.0
 10
-17.0005
 20
-43.2582
 30
0.0
 10
-16.7003
 20
-42.9124
 30
0.0
 10
-16.4422
 20
-42.6473
 30
0.0
 10
-16.2298
 20
-42.4647
 30
0.0
 10
-16.0174
 20
-42.2804
 30
0.0
 10
-15.812
 20
-42.1171
 30
0.0
 10
-15.6154
 20
-41.9749
 30
0.0
 10
-15.4187
 20
-41.8327
 30
0.0
 10
-15.2256
 20
-41.7133
 30
0.0
 10
-15.036
 20
-41.6185
 30
0.0
 10
-14.9605
 20
-41.5764
 30
0.0
 10
-14.8885
 20
-41.5448
 30
0.0
 10
-14.8201
 20
-41.5202
 30
0.0
 10
-14.7305
 20
-41.4956
 30
0.0
 10
-14.6656
 20
-41.4904
 30
0.0
 10
-14.6217
 20
-41.5026
 30
0.0
 10
-14.5796
 20
-41.5149
 30
0.0
 10
-14.555
 20
-41.55
 30
0.0
 10
-14.548
 20
-41.608
 30
0.0
 10
-14.5655
 20
-41.6694
 30
0.0
 10
-14.5883
 20
-41.7449
 30
0.0
 10
-14.6199
 20
-41.8344
 30
0.0
 10
-14.6515
 20
-41.924
 30
0.0
 10
-14.6849
 20
-42.0153
 30
0.0
 10
-14.7235
 20
-42.1118
 30
0.0
 10
-14.7604
 20
-42.2084
 30
0.0
 10
-14.8008
 20
-42.3032
 30
0.0
 10
-14.8411
 20
-42.398
 30
0.0
 10
-14.8815
 20
-42.491
 30
0.0
 10
-14.9219
 20
-42.5753
 30
0.0
 10
-14.9588
 20
-42.649
 30
0.0
 10
-14.9974
 20
-42.7228
 30
0.0
 10
-15.0307
 20
-42.7824
 30
0.0
 10
-15.0623
 20
-42.8298
 30
0.0
 10
-15.0939
 20
-42.8755
 30
0.0
 10
-15.115
 20
-42.8966
 30
0.0
 10
-15.1291
 20
-42.893
 30
0.0
 10
-15.1431
 20
-42.9001
 30
0.0
 10
-15.1607
 20
-42.8948
 30
0.0
 10
-15.18
 20
-42.879
 30
0.0
 10
-15.201
 20
-42.8614
 30
0.0
 10
-15.2379
 20
-42.8527
 30
0.0
 10
-15.2888
 20
-42.8527
 30
0.0
 10
-15.4187
 20
-42.8527
 30
0.0
 10
-15.6066
 20
-42.893
 30
0.0
 10
-15.8541
 20
-42.9738
 30
0.0
 10
-16.1016
 20
-43.0546
 30
0.0
 10
-16.3615
 20
-43.2073
 30
0.0
 10
-16.6336
 20
-43.4302
 30
0.0
 10
-16.9057
 20
-43.655
 30
0.0
 10
-17.1146
 20
-43.8674
 30
0.0
 10
-17.2586
 20
-44.064
 30
0.0
 10
-17.4025
 20
-44.2606
 30
0.0
 10
-17.4745
 20
-44.3976
 30
0.0
 10
-17.4745
 20
-44.4731
 30
0.0
 10
-17.492
 20
-44.5819
 30
0.0
 10
-17.4552
 20
-44.6767
 30
0.0
 10
-17.3656
 20
-44.7557
 30
0.0
 10
-17.2884
 20
-44.8172
 30
0.0
 10
-17.1427
 20
-44.8856
 30
0.0
 10
-16.932
 20
-44.9611
 30
0.0
 10
-16.7214
 20
-45.0366
 30
0.0
 10
-16.5897
 20
-45.0945
 30
0.0
 10
-16.5388
 20
-45.1367
 30
0.0
 10
-16.3702
 20
-45.249
 30
0.0
 10
-16.286
 20
-45.4579
 30
0.0
 10
-16.286
 20
-45.7634
 30
0.0
 10
-16.286
 20
-46.2234
 30
0.0
 10
-16.3755
 20
-46.75
 30
0.0
 10
-16.5563
 20
-47.3452
 30
0.0
 10
-16.7372
 20
-47.9403
 30
0.0
 10
-16.9864
 20
-48.4564
 30
0.0
 10
-17.3042
 20
-48.8953
 30
0.0
 10
-17.4376
 20
-49.0972
 30
0.0
 10
-17.6026
 20
-49.2991
 30
0.0
 10
-17.7993
 20
-49.4975
 30
0.0
 10
-17.9941
 20
-49.6959
 30
0.0
 10
-18.2066
 20
-49.8626
 30
0.0
 10
-18.4365
 20
-49.9961
 30
0.0
 10
-18.879
 20
-50.3015
 30
0.0
 10
-19.3881
 20
-50.4543
 30
0.0
 10
-19.9639
 20
-50.4543
 30
0.0
 10
-20.6187
 20
-50.4437
 30
0.0
 10
-21.1155
 20
-50.2296
 30
0.0
 10
-21.4561
 20
-49.8117
 30
0.0
 10
-21.6089
 20
-49.5993
 30
0.0
 10
-21.7159
 20
-49.3728
 30
0.0
 10
-21.7739
 20
-49.1341
 30
0.0
 10
-21.8318
 20
-48.8971
 30
0.0
 10
-21.8617
 20
-48.6689
 30
0.0
 10
-21.8617
 20
-48.4529
 30
0.0
 10
-21.8511
 20
-48.0632
 30
0.0
 10
-21.8002
 20
-47.6699
 30
0.0
 10
-21.7072
 20
-47.2749
 30
0.0
 10
-21.6141
 20
-46.8817
 30
0.0
 10
-21.4965
 20
-46.492
 30
0.0
 10
-21.3525
 20
-46.1075
 30
0.0
 10
-21.2086
 20
-45.7248
 30
0.0
 10
-21.0453
 20
-45.3491
 30
0.0
 10
-20.861
 20
-44.9822
 30
0.0
 10
-20.6784
 20
-44.6153
 30
0.0
 10
-20.4906
 20
-44.2641
 30
0.0
 10
-20.2974
 20
-43.9271
 30
0.0
 10
-20.2676
 20
-43.8762
 30
0.0
 10
-20.25
 20
-43.8463
 30
0.0
 10
-20.2465
 20
-43.8393
 30
0.0
 10
-20.2097
 20
-43.7884
 30
0.0
 10
-20.1728
 20
-43.7621
 30
0.0
 10
-20.1394
 20
-43.7621
 30
0.0
 10
-20.1394
 20
-43.7621
 30
0.0
 10
-20.1342
 20
-43.7621
 30
0.0
 10
-20.1342
 20
-43.7621
 30
0.0
 10
-20.1236
 20
-43.7726
 30
0.0
 10
-20.1219
 20
-43.7937
 30
0.0
 10
-20.1307
 20
-43.8253
 30
0.0
 10
-20.1394
 20
-43.8551
 30
0.0
 10
-20.1588
 20
-43.9095
 30
0.0
 10
-20.1904
 20
-43.9885
 30
0.0
  0
SPLINE
  5
64
330
1F
100
AcDbEntity
  8
Layer 1
 62
   230
100
AcDbSpline
210
0.0
220
0.0
230
1.0
 70
    11
 71
     3
 72
   101
 73
    97
 74
     0
 42
0.0000000001
 43
0.0000000001
 40
0.0
 40
0.0
 40
0.0
 40
0.0
 40
0.03125
 40
0.03125
 40
0.03125
 40
0.0625
 40
0.0625
 40
0.0625
 40
0.09375
 40
0.09375
 40
0.09375
 40
0.125
 40
0.125
 40
0.125
 40
0.15625
 40
0.15625
 40
0.15625
 40
0.1875
 40
0.1875
 40
0.1875
 40
0.21875
 40
0.21875
 40
0.21875
 40
0.25
 40
0.25
 40
0.25
 40
0.28125
 40
0.28125
 40
0.28125
 40
0.3125
 40
0.3125
 40
0.3125
 40
0.34375
 40
0.34375
 40
0.34375
 40
0.375
 40
0.375
 40
0.375
 40
0.40625
 40
0.40625
 40
0.40625
 40
0.4375
 40
0.4375
 40
0.4375
 40
0.46875
 40
0.46875
 40
0.46875
 40
0.5
 40
0.5
 40
0.5
 40
0.53125
 40
0.53125
 40
0.53125
 40
0.5625
 40
0.5625
 40
0.5625
 40
0.59375
 40
0.59375
 40
0.59375
 40
0.625
 40
0.625
 40
0.625
 40
0.65625
 40
0.65625
 40
0.65625
 40
0.6875
 40
0.6875
 40
0.6875
 40
0.71875
 40
0.71875
 40
0.71875
 40
0.75
 40
0.75
 40
0.75
 40
0.78125
 40
0.78125
 40
0.78125
 40
0.8125
 40
0.8125
 40
0.8125
 40
0.84375
 40
0.84375
 40
0.84375
 40
0.875
 40
0.875
 40
0.875
 40
0.90625
 40
0.90625
 40
0.90625
 40
0.9375
 40
0.9375
 40
0.9375
 40
0.96875
 40
0.96875
 40
0.96875
 40
1.0
 40
1.0
 40
1.0
 40
1.0
 10
-23.245
 20
-44.3958
 30
0.0
 10
-23.166
 20
-44.7733
 30
0.0
 10
-23.2292
 20
-45.2508
 30
0.0
 10
-23.4364
 20
-45.8284
 30
0.0
 10
-23.6418
 20
-46.4059
 30
0.0
 10
-23.8806
 20
-46.8624
 30
0.0
 10
-24.1562
 20
-47.1977
 30
0.0
 10
-24.33
 20
-47.4558
 30
0.0
 10
-24.5617
 20
-47.6559
 30
0.0
 10
-24.8496
 20
-47.7999
 30
0.0
 10
-25.1375
 20
-47.9438
 30
0.0
 10
-25.4237
 20
-48.0105
 30
0.0
 10
-25.7081
 20
-47.9982
 30
0.0
 10
-25.9943
 20
-47.9859
 30
0.0
 10
-26.2506
 20
-47.8894
 30
0.0
 10
-26.4806
 20
-47.7051
 30
0.0
 10
-26.6817
 20
-47.5454
 30
0.0
 10
-26.817
 20
-47.3051
 30
0.0
 10
-26.8866
 20
-46.9855
 30
0.0
 10
-27.0153
 20
-47.1842
 30
0.0
 10
-27.1199
 20
-47.3307
 30
0.0
 10
-27.2003
 20
-47.4242
 30
0.0
 10
-27.4514
 20
-47.7402
 30
0.0
 10
-27.72
 20
-47.9385
 30
0.0
 10
-28.0079
 20
-48.0211
 30
0.0
 10
-28.3204
 20
-48.0965
 30
0.0
 10
-28.6575
 20
-48.165
 30
0.0
 10
-29.0209
 20
-48.2265
 30
0.0
 10
-29.0893
 20
-48.23
 30
0.0
 10
-29.142
 20
-48.2247
 30
0.0
 10
-29.1789
 20
-48.2089
 30
0.0
 10
-29.214
 20
-48.1931
 30
0.0
 10
-29.1806
 20
-48.1492
 30
0.0
 10
-29.0788
 20
-48.0772
 30
0.0
 10
-28.6592
 20
-47.8315
 30
0.0
 10
-28.2818
 20
-47.5874
 30
0.0
 10
-27.9429
 20
-47.3452
 30
0.0
 10
-27.6059
 20
-47.1029
 30
0.0
 10
-27.3285
 20
-46.8466
 30
0.0
 10
-27.1126
 20
-46.5727
 30
0.0
 10
-26.8966
 20
-46.3006
 30
0.0
 10
-26.6982
 20
-45.9793
 30
0.0
 10
-26.5174
 20
-45.6089
 30
0.0
 10
-26.3348
 20
-45.2385
 30
0.0
 10
-26.1698
 20
-44.8926
 30
0.0
 10
-26.0224
 20
-44.5696
 30
0.0
 10
-25.9855
 20
-44.5011
 30
0.0
 10
-25.9416
 20
-44.4766
 30
0.0
 10
-25.8942
 20
-44.4959
 30
0.0
 10
-25.8468
 20
-44.5152
 30
0.0
 10
-25.8433
 20
-44.5766
 30
0.0
 10
-25.8837
 20
-44.6837
 30
0.0
 10
-26.0203
 20
-45.0078
 30
0.0
 10
-26.0957
 20
-45.2724
 30
0.0
 10
-26.11
 20
-45.4741
 30
0.0
 10
-26.1083
 20
-45.602
 30
0.0
 10
-26.0838
 20
-45.7199
 30
0.0
 10
-26.0382
 20
-45.8248
 30
0.0
 10
-25.9153
 20
-46.097
 30
0.0
 10
-25.7046
 20
-46.2585
 30
0.0
 10
-25.4061
 20
-46.3146
 30
0.0
 10
-25.1411
 20
-46.355
 30
0.0
 10
-24.8531
 20
-46.3375
 30
0.0
 10
-24.5406
 20
-46.262
 30
0.0
 10
-24.2299
 20
-46.1865
 30
0.0
 10
-23.9771
 20
-45.9916
 30
0.0
 10
-23.7858
 20
-45.6756
 30
0.0
 10
-23.7998
 20
-45.6352
 30
0.0
 10
-23.856
 20
-45.5791
 30
0.0
 10
-23.9578
 20
-45.5088
 30
0.0
 10
-24.0596
 20
-45.4386
 30
0.0
 10
-24.1474
 20
-45.4035
 30
0.0
 10
-24.2229
 20
-45.4035
 30
0.0
 10
-24.3844
 20
-45.5404
 30
0.0
 10
-24.5635
 20
-45.5826
 30
0.0
 10
-24.7619
 20
-45.5299
 30
0.0
 10
-24.962
 20
-45.4772
 30
0.0
 10
-25.0972
 20
-45.3526
 30
0.0
 10
-25.1691
 20
-45.156
 30
0.0
 10
-25.1867
 20
-45.0735
 30
0.0
 10
-25.1639
 20
-44.9506
 30
0.0
 10
-25.1042
 20
-44.7856
 30
0.0
 10
-25.0445
 20
-44.6223
 30
0.0
 10
-24.9708
 20
-44.4555
 30
0.0
 10
-24.883
 20
-44.287
 30
0.0
 10
-24.7952
 20
-44.1202
 30
0.0
 10
-24.7057
 20
-43.9727
 30
0.0
 10
-24.6126
 20
-43.8481
 30
0.0
 10
-24.5213
 20
-43.7234
 30
0.0
 10
-24.4564
 20
-43.6515
 30
0.0
 10
-24.4178
 20
-43.6339
 30
0.0
 10
-24.1544
 20
-43.4829
 30
0.0
 10
-23.9069
 20
-43.4987
 30
0.0
 10
-23.6769
 20
-43.6831
 30
0.0
 10
-23.4469
 20
-43.8656
 30
0.0
 10
-23.303
 20
-44.1044
 30
0.0
 10
-23.245
 20
-44.3958
 30
0.0
  0
SPLINE
  5
65
330
1F
100
AcDbEntity
  8
Layer 1
 62
   230
100
AcDbSpline
210
0.0
220
0.0
230
1.0
 70
    11
 71
     3
 72
    62
 73
    58
 74
     0
 42
0.0000000001
 43
0.0000000001
 40
0.0
 40
0.0
 40
0.0
 40
0.0
 40
0.0526315789473684
 40
0.0526315789473684
 40
0.0526315789473684
 40
0.1052631578947368
 40
0.1052631578947368
 40
0.1052631578947368
 40
0.1578947368421053
 40
0.1578947368421053
 40
0.1578947368421053
 40
0.2105263157894737
 40
0.2105263157894737
 40
0.2105263157894737
 40
0.2631578947368421
 40
0.2631578947368421
 40
0.2631578947368421
 40
0.3157894736842105
 40
0.3157894736842105
 40
0.3157894736842105
 40
0.3684210526315789
 40
0.3684210526315789
 40
0.3684210526315789
 40
0.4210526315789473
 40
0.4210526315789473
 40
0.4210526315789473
 40
0.4736842105263158
 40
0.4736842105263158
 40
0.4736842105263158
 40
0.5263157894736842
 40
0.5263157894736842
 40
0.5263157894736842
 40
0.5789473684210527
 40
0.5789473684210527
 40
0.5789473684210527
 40
0.631578947368421
 40
0.631578947368421
 40
0.631578947368421
 40
0.6842105263157894
 40
0.6842105263157894
 40
0.6842105263157894
 40
0.7368421052631579
 40
0.7368421052631579
 40
0.7368421052631579
 40
0.7894736842105263
 40
0.7894736842105263
 40
0.7894736842105263
 40
0.8421052631578947
 40
0.8421052631578947
 40
0.8421052631578947
 40
0.894736842105263
 40
0.894736842105263
 40
0.894736842105263
 40
0.9473684210526315
 40
0.9473684210526315
 40
0.9473684210526315
 40
1.0
 40
1.0
 40
1.0
 40
1.0
 10
-22.6745
 20
-39.3907
 30
0.0
 10
-22.6464
 20
-39.4855
 30
0.0
 10
-22.6482
 20
-39.5856
 30
0.0
 10
-22.6762
 20
-39.6891
 30
0.0
 10
-22.7061
 20
-39.791
 30
0.0
 10
-22.757
 20
-39.898
 30
0.0
 10
-22.829
 20
-40.0069
 30
0.0
 10
-22.8869
 20
-40.0964
 30
0.0
 10
-22.9466
 20
-40.1789
 30
0.0
 10
-23.0063
 20
-40.2562
 30
0.0
 10
-23.066
 20
-40.3334
 30
0.0
 10
-23.1327
 20
-40.4072
 30
0.0
 10
-23.2047
 20
-40.4756
 30
0.0
 10
-23.2486
 20
-40.523
 30
0.0
 10
-23.2889
 20
-40.5581
 30
0.0
 10
-23.3223
 20
-40.5792
 30
0.0
 10
-23.3574
 20
-40.5985
 30
0.0
 10
-23.3855
 20
-40.6126
 30
0.0
 10
-23.4101
 20
-40.6178
 30
0.0
 10
-23.4346
 20
-40.6213
 30
0.0
 10
-23.454
 20
-40.6213
 30
0.0
 10
-23.4715
 20
-40.6143
 30
0.0
 10
-23.4891
 20
-40.6073
 30
0.0
 10
-23.5049
 20
-40.5985
 30
0.0
 10
-23.5172
 20
-40.588
 30
0.0
 10
-23.6383
 20
-40.4932
 30
0.0
 10
-23.7559
 20
-40.3966
 30
0.0
 10
-23.87
 20
-40.2983
 30
0.0
 10
-23.9859
 20
-40.2
 30
0.0
 10
-24.1105
 20
-40.1087
 30
0.0
 10
-24.2475
 20
-40.0227
 30
0.0
 10
-24.265
 20
-39.9981
 30
0.0
 10
-24.2738
 20
-39.9806
 30
0.0
 10
-24.2738
 20
-39.9683
 30
0.0
 10
-24.2738
 20
-39.9577
 30
0.0
 10
-24.265
 20
-39.9367
 30
0.0
 10
-24.2475
 20
-39.9103
 30
0.0
 10
-24.2475
 20
-39.9103
 30
0.0
 10
-23.4662
 20
-38.706
 30
0.0
 10
-23.4662
 20
-38.706
 30
0.0
 10
-23.4417
 20
-38.6762
 30
0.0
 10
-23.4188
 20
-38.6604
 30
0.0
 10
-23.3978
 20
-38.6621
 30
0.0
 10
-23.375
 20
-38.6639
 30
0.0
 10
-23.3504
 20
-38.6744
 30
0.0
 10
-23.3223
 20
-38.6902
 30
0.0
 10
-23.2538
 20
-38.7324
 30
0.0
 10
-23.1836
 20
-38.7762
 30
0.0
 10
-23.1134
 20
-38.8219
 30
0.0
 10
-23.0432
 20
-38.8675
 30
0.0
 10
-22.98
 20
-38.9202
 30
0.0
 10
-22.922
 20
-38.9781
 30
0.0
 10
-22.8623
 20
-39.0378
 30
0.0
 10
-22.8114
 20
-39.0993
 30
0.0
 10
-22.7675
 20
-39.166
 30
0.0
 10
-22.7219
 20
-39.2327
 30
0.0
 10
-22.692
 20
-39.3082
 30
0.0
 10
-22.6745
 20
-39.3907
 30
0.0
  0
SPLINE
  5
66
330
1F
100
AcDbEntity
  8
Layer 1
 62
   230
100
AcDbSpline
210
0.0
220
0.0
230
1.0
 70
    11
 71
     3
 72
   203
 73
   199
 74
     0
 42
0.0000000001
 43
0.0000000001
 40
0.0
 40
0.0
 40
0.0
 40
0.0
 40
0.0151515151515152
 40
0.0151515151515152
 40
0.0151515151515152
 40
0.0303030303030303
 40
0.0303030303030303
 40
0.0303030303030303
 40
0.0454545454545455
 40
0.0454545454545455
 40
0.0454545454545455
 40
0.0606060606060606
 40
0.0606060606060606
 40
0.0606060606060606
 40
0.0757575757575758
 40
0.0757575757575758
 40
0.0757575757575758
 40
0.0909090909090909
 40
0.0909090909090909
 40
0.0909090909090909
 40
0.1060606060606061
 40
0.1060606060606061
 40
0.1060606060606061
 40
0.1212121212121212
 40
0.1212121212121212
 40
0.1212121212121212
 40
0.1363636363636364
 40
0.1363636363636364
 40
0.1363636363636364
 40
0.1515151515151515
 40
0.1515151515151515
 40
0.1515151515151515
 40
0.1666666666666667
 40
0.1666666666666667
 40
0.1666666666666667
 40
0.1818181818181818
 40
0.1818181818181818
 40
0.1818181818181818
 40
0.196969696969697
 40
0.196969696969697
 40
0.196969696969697
 40
0.2121212121212121
 40
0.2121212121212121
 40
0.2121212121212121
 40
0.2272727272727273
 40
0.2272727272727273
 40
0.2272727272727273
 40
0.2424242424242424
 40
0.2424242424242424
 40
0.2424242424242424
 40
0.2575757575757576
 40
0.2575757575757576
 40
0.2575757575757576
 40
0.2727272727272727
 40
0.2727272727272727
 40
0.2727272727272727
 40
0.2878787878787879
 40
0.2878787878787879
 40
0.2878787878787879
 40
0.303030303030303
 40
0.303030303030303
 40
0.303030303030303
 40
0.3181818181818182
 40
0.3181818181818182
 40
0.3181818181818182
 40
0.3333333333333334
 40
0.3333333333333334
 40
0.3333333333333334
 40
0.3484848484848485
 40
0.3484848484848485
 40
0.3484848484848485
 40
0.3636363636363636
 40
0.3636363636363636
 40
0.3636363636363636
 40
0.3787878787878788
 40
0.3787878787878788
 40
0.3787878787878788
 40
0.3939393939393939
 40
0.3939393939393939
 40
0.3939393939393939
 40
0.4090909090909091
 40
0.4090909090909091
 40
0.4090909090909091
 40
0.4242424242424243
 40
0.4242424242424243
 40
0.4242424242424243
 40
0.4393939393939394
 40
0.4393939393939394
 40
0.4393939393939394
 40
0.4545454545454546
 40
0.4545454545454546
 40
0.4545454545454546
 40
0.4696969696969697
 40
0.4696969696969697
 40
0.4696969696969697
 40
0.4848484848484849
 40
0.4848484848484849
 40
0.4848484848484849
 40
0.5
 40
0.5
 40
0.5
 40
0.5151515151515151
 40
0.5151515151515151
 40
0.5151515151515151
 40
0.5303030303030303
 40
0.5303030303030303
 40
0.5303030303030303
 40
0.5454545454545454
 40
0.5454545454545454
 40
0.5454545454545454
 40
0.5606060606060607
 40
0.5606060606060607
 40
0.5606060606060607
 40
0.5757575757575758
 40
0.5757575757575758
 40
0.5757575757575758
 40
0.5909090909090909
 40
0.5909090909090909
 40
0.5909090909090909
 40
0.6060606060606061
 40
0.6060606060606061
 40
0.6060606060606061
 40
0.6212121212121212
 40
0.6212121212121212
 40
0.6212121212121212
 40
0.6363636363636364
 40
0.6363636363636364
 40
0.6363636363636364
 40
0.6515151515151515
 40
0.6515151515151515
 40
0.6515151515151515
 40
0.6666666666666667
 40
0.6666666666666667
 40
0.6666666666666667
 40
0.6818181818181819
 40
0.6818181818181819
 40
0.6818181818181819
 40
0.696969696969697
 40
0.696969696969697
 40
0.696969696969697
 40
0.7121212121212122
 40
0.7121212121212122
 40
0.7121212121212122
 40
0.7272727272727273
 40
0.7272727272727273
 40
0.7272727272727273
 40
0.7424242424242424
 40
0.7424242424242424
 40
0.7424242424242424
 40
0.7575757575757576
 40
0.7575757575757576
 40
0.7575757575757576
 40
0.7727272727272727
 40
0.7727272727272727
 40
0.7727272727272727
 40
0.7878787878787878
 40
0.7878787878787878
 40
0.7878787878787878
 40
0.8030303030303031
 40
0.8030303030303031
 40
0.8030303030303031
 40
0.8181818181818182
 40
0.8181818181818182
 40
0.8181818181818182
 40
0.8333333333333334
 40
0.8333333333333334
 40
0.8333333333333334
 40
0.8484848484848485
 40
0.8484848484848485
 40
0.8484848484848485
 40
0.8636363636363636
 40
0.8636363636363636
 40
0.8636363636363636
 40
0.8787878787878788
 40
0.8787878787878788
 40
0.8787878787878788
 40
0.8939393939393939
 40
0.8939393939393939
 40
0.8939393939393939
 40
0.9090909090909092
 40
0.9090909090909092
 40
0.9090909090909092
 40
0.9242424242424243
 40
0.9242424242424243
 40
0.9242424242424243
 40
0.9393939393939394
 40
0.9393939393939394
 40
0.9393939393939394
 40
0.9545454545454546
 40
0.9545454545454546
 40
0.9545454545454546
 40
0.9696969696969697
 40
0.9696969696969697
 40
0.9696969696969697
 40
0.9848484848484849
 40
0.9848484848484849
 40
0.9848484848484849
 40
1.0
 40
1.0
 40
1.0
 40
1.0
 10
-24.2457
 20
-39.4785
 30
0.0
 10
-24.2457
 20
-39.4925
 30
0.0
 10
-24.244
 20
-39.503
 30
0.0
 10
-24.2404
 20
-39.5101
 30
0.0
 10
-24.2404
 20
-39.5206
 30
0.0
 10
-24.2387
 20
-39.5294
 30
0.0
 10
-24.2352
 20
-39.5364
 30
0.0
 10
-24.2352
 20
-39.5434
 30
0.0
 10
-24.2352
 20
-39.5504
 30
0.0
 10
-24.2334
 20
-39.5592
 30
0.0
 10
-24.2317
 20
-39.568
 30
0.0
 10
-24.2317
 20
-39.575
 30
0.0
 10
-24.2317
 20
-39.582
 30
0.0
 10
-24.2317
 20
-39.582
 30
0.0
 10
-24.2317
 20
-39.654
 30
0.0
 10
-24.2317
 20
-39.654
 30
0.0
 10
-24.2317
 20
-39.661
 30
0.0
 10
-24.2317
 20
-39.6698
 30
0.0
 10
-24.2334
 20
-39.6804
 30
0.0
 10
-24.2352
 20
-39.6909
 30
0.0
 10
-24.2352
 20
-39.6997
 30
0.0
 10
-24.2352
 20
-39.7067
 30
0.0
 10
-24.2352
 20
-39.7067
 30
0.0
 10
-24.251
 20
-39.7681
 30
0.0
 10
-24.251
 20
-39.7681
 30
0.0
 10
-24.251
 20
-39.7752
 30
0.0
 10
-24.2527
 20
-39.7804
 30
0.0
 10
-24.2545
 20
-39.7839
 30
0.0
 10
-24.2562
 20
-39.7874
 30
0.0
 10
-24.2562
 20
-39.7927
 30
0.0
 10
-24.2562
 20
-39.7997
 30
0.0
 10
-24.2562
 20
-39.7997
 30
0.0
 10
-24.2773
 20
-39.8612
 30
0.0
 10
-24.2773
 20
-39.8612
 30
0.0
 10
-24.2843
 20
-39.8752
 30
0.0
 10
-24.2896
 20
-39.8893
 30
0.0
 10
-24.2949
 20
-39.9033
 30
0.0
 10
-24.3001
 20
-39.9156
 30
0.0
 10
-24.3054
 20
-39.9296
 30
0.0
 10
-24.3124
 20
-39.9437
 30
0.0
 10
-24.3124
 20
-39.9472
 30
0.0
 10
-24.3142
 20
-39.949
 30
0.0
 10
-24.3159
 20
-39.9507
 30
0.0
 10
-24.3177
 20
-39.9525
 30
0.0
 10
-24.3177
 20
-39.956
 30
0.0
 10
-24.3177
 20
-39.9595
 30
0.0
 10
-24.3177
 20
-39.9595
 30
0.0
 10
-24.344
 20
-40.0051
 30
0.0
 10
-24.344
 20
-40.0051
 30
0.0
 10
-24.351
 20
-40.0227
 30
0.0
 10
-24.3598
 20
-40.0367
 30
0.0
 10
-24.3704
 20
-40.049
 30
0.0
 10
-24.3791
 20
-40.0613
 30
0.0
 10
-24.3879
 20
-40.0736
 30
0.0
 10
-24.3949
 20
-40.0876
 30
0.0
 10
-24.402
 20
-40.0947
 30
0.0
 10
-24.4055
 20
-40.0999
 30
0.0
 10
-24.4055
 20
-40.1035
 30
0.0
 10
-24.4055
 20
-40.1035
 30
0.0
 10
-24.4669
 20
-40.1965
 30
0.0
 10
-24.4669
 20
-40.1965
 30
0.0
 10
-24.4669
 20
-40.1965
 30
0.0
 10
-24.4932
 20
-40.2334
 30
0.0
 10
-24.4932
 20
-40.2334
 30
0.0
 10
-24.5003
 20
-40.2386
 30
0.0
 10
-24.5055
 20
-40.2474
 30
0.0
 10
-24.5108
 20
-40.2579
 30
0.0
 10
-24.5161
 20
-40.2685
 30
0.0
 10
-24.5231
 20
-40.2773
 30
0.0
 10
-24.5284
 20
-40.2843
 30
0.0
 10
-24.5424
 20
-40.3053
 30
0.0
 10
-24.5547
 20
-40.3194
 30
0.0
 10
-24.5652
 20
-40.3299
 30
0.0
 10
-24.5652
 20
-40.3299
 30
0.0
 10
-24.6477
 20
-40.4335
 30
0.0
 10
-24.6477
 20
-40.4335
 30
0.0
 10
-24.6548
 20
-40.4388
 30
0.0
 10
-24.6583
 20
-40.4423
 30
0.0
 10
-24.6583
 20
-40.444
 30
0.0
 10
-24.6653
 20
-40.4511
 30
0.0
 10
-24.6723
 20
-40.4598
 30
0.0
 10
-24.6811
 20
-40.4704
 30
0.0
 10
-24.6899
 20
-40.4809
 30
0.0
 10
-24.6987
 20
-40.4897
 30
0.0
 10
-24.7092
 20
-40.4967
 30
0.0
 10
-24.7092
 20
-40.4967
 30
0.0
 10
-24.7408
 20
-40.5283
 30
0.0
 10
-24.7408
 20
-40.5283
 30
0.0
 10
-24.7513
 20
-40.5459
 30
0.0
 10
-24.7636
 20
-40.5599
 30
0.0
 10
-24.7812
 20
-40.5704
 30
0.0
 10
-24.7812
 20
-40.5704
 30
0.0
 10
-24.8338
 20
-40.6213
 30
0.0
 10
-24.8338
 20
-40.6213
 30
0.0
 10
-24.8338
 20
-40.6213
 30
0.0
 10
-24.8584
 20
-40.6424
 30
0.0
 10
-24.8584
 20
-40.6424
 30
0.0
 10
-24.897
 20
-40.674
 30
0.0
 10
-24.9304
 20
-40.6933
 30
0.0
 10
-24.9567
 20
-40.7039
 30
0.0
 10
-24.9567
 20
-40.7039
 30
0.0
 10
-24.9883
 20
-40.7144
 30
0.0
 10
-24.9883
 20
-40.7144
 30
0.0
 10
-24.9883
 20
-40.7144
 30
0.0
 10
-25.0252
 20
-40.7144
 30
0.0
 10
-25.0252
 20
-40.7144
 30
0.0
 10
-25.0515
 20
-40.7144
 30
0.0
 10
-25.0761
 20
-40.7039
 30
0.0
 10
-25.0972
 20
-40.6828
 30
0.0
 10
-25.1727
 20
-40.6249
 30
0.0
 10
-25.2464
 20
-40.5652
 30
0.0
 10
-25.3166
 20
-40.5037
 30
0.0
 10
-25.3868
 20
-40.4405
 30
0.0
 10
-25.4623
 20
-40.3808
 30
0.0
 10
-25.5413
 20
-40.3211
 30
0.0
 10
-25.5659
 20
-40.3018
 30
0.0
 10
-25.5887
 20
-40.2825
 30
0.0
 10
-25.6133
 20
-40.265
 30
0.0
 10
-25.6853
 20
-40.2105
 30
0.0
 10
-25.7555
 20
-40.1596
 30
0.0
 10
-25.824
 20
-40.114
 30
0.0
 10
-25.8275
 20
-40.114
 30
0.0
 10
-25.8292
 20
-40.1122
 30
0.0
 10
-25.8292
 20
-40.1087
 30
0.0
 10
-25.8468
 20
-40.0929
 30
0.0
 10
-25.8556
 20
-40.0771
 30
0.0
 10
-25.8556
 20
-40.0631
 30
0.0
 10
-25.8556
 20
-40.049
 30
0.0
 10
-25.8468
 20
-40.028
 30
0.0
 10
-25.8292
 20
-40.0016
 30
0.0
 10
-25.8292
 20
-40.0016
 30
0.0
 10
-25.0392
 20
-38.8008
 30
0.0
 10
-25.0392
 20
-38.8008
 30
0.0
 10
-25.0392
 20
-38.7973
 30
0.0
 10
-25.0375
 20
-38.7938
 30
0.0
 10
-25.034
 20
-38.7903
 30
0.0
 10
-25.0111
 20
-38.7587
 30
0.0
 10
-24.9848
 20
-38.7464
 30
0.0
 10
-24.9567
 20
-38.7534
 30
0.0
 10
-24.9567
 20
-38.7534
 30
0.0
 10
-24.9532
 20
-38.7552
 30
0.0
 10
-24.9462
 20
-38.7587
 30
0.0
 10
-24.9427
 20
-38.7587
 30
0.0
 10
-24.9392
 20
-38.7604
 30
0.0
 10
-24.9374
 20
-38.764
 30
0.0
 10
-24.9374
 20
-38.764
 30
0.0
 10
-24.9005
 20
-38.7798
 30
0.0
 10
-24.9005
 20
-38.7798
 30
0.0
 10
-24.8935
 20
-38.7868
 30
0.0
 10
-24.8865
 20
-38.7903
 30
0.0
 10
-24.8795
 20
-38.792
 30
0.0
 10
-24.8725
 20
-38.7938
 30
0.0
 10
-24.8654
 20
-38.7991
 30
0.0
 10
-24.8584
 20
-38.8061
 30
0.0
 10
-24.8514
 20
-38.8096
 30
0.0
 10
-24.8461
 20
-38.8131
 30
0.0
 10
-24.8391
 20
-38.8149
 30
0.0
 10
-24.8321
 20
-38.8184
 30
0.0
 10
-24.8251
 20
-38.8236
 30
0.0
 10
-24.818
 20
-38.8307
 30
0.0
 10
-24.804
 20
-38.8377
 30
0.0
 10
-24.7899
 20
-38.8465
 30
0.0
 10
-24.7759
 20
-38.857
 30
0.0
 10
-24.7548
 20
-38.871
 30
0.0
 10
-24.7355
 20
-38.8833
 30
0.0
 10
-24.7145
 20
-38.8956
 30
0.0
 10
-24.6934
 20
-38.9079
 30
0.0
 10
-24.6723
 20
-38.922
 30
0.0
 10
-24.653
 20
-38.9395
 30
0.0
 10
-24.653
 20
-38.9395
 30
0.0
 10
-24.6319
 20
-38.9553
 30
0.0
 10
-24.6319
 20
-38.9553
 30
0.0
 10
-24.5775
 20
-38.9957
 30
0.0
 10
-24.5213
 20
-39.0448
 30
0.0
 10
-24.4616
 20
-39.1028
 30
0.0
 10
-24.4616
 20
-39.1028
 30
0.0
 10
-24.4002
 20
-39.1765
 30
0.0
 10
-24.4002
 20
-39.1765
 30
0.0
 10
-24.4002
 20
-39.1765
 30
0.0
 10
-24.3546
 20
-39.238
 30
0.0
 10
-24.3546
 20
-39.238
 30
0.0
 10
-24.33
 20
-39.2713
 30
0.0
 10
-24.3107
 20
-39.3064
 30
0.0
 10
-24.2984
 20
-39.3398
 30
0.0
 10
-24.2914
 20
-39.3503
 30
0.0
 10
-24.2843
 20
-39.3661
 30
0.0
 10
-24.2773
 20
-39.3872
 30
0.0
 10
-24.2773
 20
-39.3872
 30
0.0
 10
-24.2615
 20
-39.4328
 30
0.0
 10
-24.2615
 20
-39.4328
 30
0.0
 10
-24.258
 20
-39.4363
 30
0.0
 10
-24.2562
 20
-39.4398
 30
0.0
 10
-24.2562
 20
-39.4434
 30
0.0
 10
-24.2562
 20
-39.4469
 30
0.0
 10
-24.2545
 20
-39.4521
 30
0.0
 10
-24.251
 20
-39.4592
 30
0.0
 10
-24.251
 20
-39.4697
 30
0.0
 10
-24.2492
 20
-39.475
 30
0.0
 10
-24.2457
 20
-39.4785
 30
0.0
  0
SPLINE
  5
67
330
1F
100
AcDbEntity
  8
Layer 1
 62
   230
100
AcDbSpline
210
0.0
220
0.0
230
1.0
 70
    11
 71
     3
 72
   104
 73
   100
 74
     0
 42
0.0000000001
 43
0.0000000001
 40
0.0
 40
0.0
 40
0.0
 40
0.0
 40
0.0303030303030303
 40
0.0303030303030303
 40
0.0303030303030303
 40
0.0606060606060606
 40
0.0606060606060606
 40
0.0606060606060606
 40
0.0909090909090909
 40
0.0909090909090909
 40
0.0909090909090909
 40
0.1212121212121212
 40
0.1212121212121212
 40
0.1212121212121212
 40
0.1515151515151515
 40
0.1515151515151515
 40
0.1515151515151515
 40
0.1818181818181818
 40
0.1818181818181818
 40
0.1818181818181818
 40
0.2121212121212121
 40
0.2121212121212121
 40
0.2121212121212121
 40
0.2424242424242424
 40
0.2424242424242424
 40
0.2424242424242424
 40
0.2727272727272727
 40
0.2727272727272727
 40
0.2727272727272727
 40
0.303030303030303
 40
0.303030303030303
 40
0.303030303030303
 40
0.3333333333333334
 40
0.3333333333333334
 40
0.3333333333333334
 40
0.3636363636363636
 40
0.3636363636363636
 40
0.3636363636363636
 40
0.3939393939393939
 40
0.3939393939393939
 40
0.3939393939393939
 40
0.4242424242424243
 40
0.4242424242424243
 40
0.4242424242424243
 40
0.4545454545454546
 40
0.4545454545454546
 40
0.4545454545454546
 40
0.4848484848484849
 40
0.4848484848484849
 40
0.4848484848484849
 40
0.5151515151515151
 40
0.5151515151515151
 40
0.5151515151515151
 40
0.5454545454545454
 40
0.5454545454545454
 40
0.5454545454545454
 40
0.5757575757575758
 40
0.5757575757575758
 40
0.5757575757575758
 40
0.6060606060606061
 40
0.6060606060606061
 40
0.6060606060606061
 40
0.6363636363636364
 40
0.6363636363636364
 40
0.6363636363636364
 40
0.6666666666666667
 40
0.6666666666666667
 40
0.6666666666666667
 40
0.696969696969697
 40
0.696969696969697
 40
0.696969696969697
 40
0.7272727272727273
 40
0.7272727272727273
 40
0.7272727272727273
 40
0.7575757575757576
 40
0.7575757575757576
 40
0.7575757575757576
 40
0.7878787878787878
 40
0.7878787878787878
 40
0.7878787878787878
 40
0.8181818181818182
 40
0.8181818181818182
 40
0.8181818181818182
 40
0.8484848484848485
 40
0.8484848484848485
 40
0.8484848484848485
 40
0.8787878787878788
 40
0.8787878787878788
 40
0.8787878787878788
 40
0.9090909090909092
 40
0.9090909090909092
 40
0.9090909090909092
 40
0.9393939393939394
 40
0.9393939393939394
 40
0.9393939393939394
 40
0.9696969696969697
 40
0.9696969696969697
 40
0.9696969696969697
 40
1.0
 40
1.0
 40
1.0
 40
1.0
 10
-28.7786
 20
-43.7533
 30
0.0
 10
-28.8348
 20
-43.9552
 30
0.0
 10
-28.9032
 20
-44.1325
 30
0.0
 10
-28.9857
 20
-44.287
 30
0.0
 10
-29.0665
 20
-44.4415
 30
0.0
 10
-29.1525
 20
-44.5661
 30
0.0
 10
-29.2421
 20
-44.6627
 30
0.0
 10
-29.3316
 20
-44.7522
 30
0.0
 10
-29.4317
 20
-44.8347
 30
0.0
 10
-29.5405
 20
-44.9102
 30
0.0
 10
-29.6511
 20
-44.9857
 30
0.0
 10
-29.767
 20
-45.0471
 30
0.0
 10
-29.8899
 20
-45.0945
 30
0.0
 10
-30.0163
 20
-45.1454
 30
0.0
 10
-30.1251
 20
-45.2034
 30
0.0
 10
-30.2146
 20
-45.2666
 30
0.0
 10
-30.3042
 20
-45.3298
 30
0.0
 10
-30.3779
 20
-45.3982
 30
0.0
 10
-30.4358
 20
-45.4702
 30
0.0
 10
-30.5254
 20
-45.5668
 30
0.0
 10
-30.6026
 20
-45.6984
 30
0.0
 10
-30.6676
 20
-45.8687
 30
0.0
 10
-30.7325
 20
-46.039
 30
0.0
 10
-30.7992
 20
-46.2181
 30
0.0
 10
-30.8695
 20
-46.4059
 30
0.0
 10
-30.9397
 20
-46.5955
 30
0.0
 10
-31.0169
 20
-46.7799
 30
0.0
 10
-31.1012
 20
-46.9589
 30
0.0
 10
-31.1855
 20
-47.1398
 30
0.0
 10
-31.2908
 20
-47.2872
 30
0.0
 10
-31.4172
 20
-47.4049
 30
0.0
 10
-31.5928
 20
-47.5892
 30
0.0
 10
-31.8508
 20
-47.7138
 30
0.0
 10
-32.1949
 20
-47.7805
 30
0.0
 10
-32.1949
 20
-47.7805
 30
0.0
 10
-33.1359
 20
-47.9385
 30
0.0
 10
-33.1359
 20
-47.9385
 30
0.0
 10
-33.1622
 20
-47.9421
 30
0.0
 10
-33.1956
 20
-47.9456
 30
0.0
 10
-33.236
 20
-47.9473
 30
0.0
 10
-33.2746
 20
-47.9491
 30
0.0
 10
-33.3044
 20
-47.9473
 30
0.0
 10
-33.3202
 20
-47.9438
 30
0.0
 10
-33.3992
 20
-47.921
 30
0.0
 10
-33.4238
 20
-47.8683
 30
0.0
 10
-33.3922
 20
-47.7876
 30
0.0
 10
-33.3624
 20
-47.7068
 30
0.0
 10
-33.2816
 20
-47.6261
 30
0.0
 10
-33.1517
 20
-47.5435
 30
0.0
 10
-32.8866
 20
-47.368
 30
0.0
 10
-32.6759
 20
-47.2275
 30
0.0
 10
-32.5179
 20
-47.1187
 30
0.0
 10
-32.3599
 20
-47.0116
 30
0.0
 10
-32.2318
 20
-46.9221
 30
0.0
 10
-32.1335
 20
-46.8536
 30
0.0
 10
-32.0334
 20
-46.7851
 30
0.0
 10
-31.9526
 20
-46.729
 30
0.0
 10
-31.893
 20
-46.6833
 30
0.0
 10
-31.8333
 20
-46.6394
 30
0.0
 10
-31.7701
 20
-46.5903
 30
0.0
 10
-31.6998
 20
-46.5341
 30
0.0
 10
-31.4225
 20
-46.3252
 30
0.0
 10
-31.2311
 20
-46.1057
 30
0.0
 10
-31.124
 20
-45.8758
 30
0.0
 10
-31.0626
 20
-45.7564
 30
0.0
 10
-31.0064
 20
-45.6405
 30
0.0
 10
-30.9555
 20
-45.5264
 30
0.0
 10
-30.9028
 20
-45.414
 30
0.0
 10
-30.8502
 20
-45.3017
 30
0.0
 10
-30.7922
 20
-45.1928
 30
0.0
 10
-30.736
 20
-45.0822
 30
0.0
 10
-30.6746
 20
-44.9734
 30
0.0
 10
-30.6096
 20
-44.8663
 30
0.0
 10
-30.5447
 20
-44.7575
 30
0.0
 10
-30.4692
 20
-44.6486
 30
0.0
 10
-30.3832
 20
-44.5398
 30
0.0
 10
-30.2954
 20
-44.4292
 30
0.0
 10
-30.1743
 20
-44.3221
 30
0.0
 10
-30.0233
 20
-44.2185
 30
0.0
 10
-29.8723
 20
-44.1132
 30
0.0
 10
-29.6915
 20
-44.0096
 30
0.0
 10
-29.4791
 20
-43.906
 30
0.0
 10
-29.2315
 20
-43.7796
 30
0.0
 10
-29.0718
 20
-43.6146
 30
0.0
 10
-28.9998
 20
-43.4127
 30
0.0
 10
-28.9594
 20
-43.3179
 30
0.0
 10
-28.9103
 20
-43.2266
 30
0.0
 10
-28.8541
 20
-43.1406
 30
0.0
 10
-28.7979
 20
-43.0546
 30
0.0
 10
-28.7382
 20
-43.0089
 30
0.0
 10
-28.6768
 20
-43.0019
 30
0.0
 10
-28.6083
 20
-43.0124
 30
0.0
 10
-28.5907
 20
-43.0862
 30
0.0
 10
-28.6241
 20
-43.2231
 30
0.0
 10
-28.6416
 20
-43.2916
 30
0.0
 10
-28.6627
 20
-43.3688
 30
0.0
 10
-28.689
 20
-43.4566
 30
0.0
 10
-28.7154
 20
-43.5444
 30
0.0
 10
-28.7452
 20
-43.6427
 30
0.0
 10
-28.7786
 20
-43.7533
 30
0.0
  0
SPLINE
  5
68
330
1F
100
AcDbEntity
  8
Layer 1
 62
   230
100
AcDbSpline
210
0.0
220
0.0
230
1.0
 70
    11
 71
     3
 72
    62
 73
    58
 74
     0
 42
0.0000000001
 43
0.0000000001
 40
0.0
 40
0.0
 40
0.0
 40
0.0
 40
0.0526315789473684
 40
0.0526315789473684
 40
0.0526315789473684
 40
0.1052631578947368
 40
0.1052631578947368
 40
0.1052631578947368
 40
0.1578947368421053
 40
0.1578947368421053
 40
0.1578947368421053
 40
0.2105263157894737
 40
0.2105263157894737
 40
0.2105263157894737
 40
0.2631578947368421
 40
0.2631578947368421
 40
0.2631578947368421
 40
0.3157894736842105
 40
0.3157894736842105
 40
0.3157894736842105
 40
0.3684210526315789
 40
0.3684210526315789
 40
0.3684210526315789
 40
0.4210526315789473
 40
0.4210526315789473
 40
0.4210526315789473
 40
0.4736842105263158
 40
0.4736842105263158
 40
0.4736842105263158
 40
0.5263157894736842
 40
0.5263157894736842
 40
0.5263157894736842
 40
0.5789473684210527
 40
0.5789473684210527
 40
0.5789473684210527
 40
0.631578947368421
 40
0.631578947368421
 40
0.631578947368421
 40
0.6842105263157894
 40
0.6842105263157894
 40
0.6842105263157894
 40
0.7368421052631579
 40
0.7368421052631579
 40
0.7368421052631579
 40
0.7894736842105263
 40
0.7894736842105263
 40
0.7894736842105263
 40
0.8421052631578947
 40
0.8421052631578947
 40
0.8421052631578947
 40
0.894736842105263
 40
0.894736842105263
 40
0.894736842105263
 40
0.9473684210526315
 40
0.9473684210526315
 40
0.9473684210526315
 40
1.0
 40
1.0
 40
1.0
 40
1.0
 10
-28.8769
 20
-50.6614
 30
0.0
 10
-28.8488
 20
-50.7562
 30
0.0
 10
-28.8506
 20
-50.8563
 30
0.0
 10
-28.8804
 20
-50.9599
 30
0.0
 10
-28.9085
 20
-51.0617
 30
0.0
 10
-28.9594
 20
-51.1688
 30
0.0
 10
-29.0314
 20
-51.2776
 30
0.0
 10
-29.0893
 20
-51.3672
 30
0.0
 10
-29.149
 20
-51.4514
 30
0.0
 10
-29.2087
 20
-51.5269
 30
0.0
 10
-29.2684
 20
-51.6042
 30
0.0
 10
-29.3351
 20
-51.6779
 30
0.0
 10
-29.4071
 20
-51.7464
 30
0.0
 10
-29.451
 20
-51.7938
 30
0.0
 10
-29.4913
 20
-51.8289
 30
0.0
 10
-29.5247
 20
-51.85
 30
0.0
 10
-29.5598
 20
-51.8693
 30
0.0
 10
-29.5879
 20
-51.8833
 30
0.0
 10
-29.6125
 20
-51.8886
 30
0.0
 10
-29.6371
 20
-51.8921
 30
0.0
 10
-29.6564
 20
-51.8921
 30
0.0
 10
-29.6739
 20
-51.8851
 30
0.0
 10
-29.6915
 20
-51.878
 30
0.0
 10
-29.7073
 20
-51.8693
 30
0.0
 10
-29.7196
 20
-51.8587
 30
0.0
 10
-29.8407
 20
-51.7639
 30
0.0
 10
-29.9583
 20
-51.6674
 30
0.0
 10
-30.0724
 20
-51.5691
 30
0.0
 10
-30.1883
 20
-51.4707
 30
0.0
 10
-30.313
 20
-51.3795
 30
0.0
 10
-30.4516
 20
-51.2934
 30
0.0
 10
-30.4674
 20
-51.2689
 30
0.0
 10
-30.4762
 20
-51.2513
 30
0.0
 10
-30.4762
 20
-51.239
 30
0.0
 10
-30.4762
 20
-51.2285
 30
0.0
 10
-30.4674
 20
-51.2074
 30
0.0
 10
-30.4516
 20
-51.1811
 30
0.0
 10
-30.4516
 20
-51.1811
 30
0.0
 10
-29.6687
 20
-49.9768
 30
0.0
 10
-29.6687
 20
-49.9768
 30
0.0
 10
-29.6458
 20
-49.9469
 30
0.0
 10
-29.6213
 20
-49.9311
 30
0.0
 10
-29.6002
 20
-49.9329
 30
0.0
 10
-29.5774
 20
-49.9346
 30
0.0
 10
-29.5528
 20
-49.9452
 30
0.0
 10
-29.5247
 20
-49.961
 30
0.0
 10
-29.4562
 20
-50.0031
 30
0.0
 10
-29.3878
 20
-50.047
 30
0.0
 10
-29.3175
 20
-50.0926
 30
0.0
 10
-29.2473
 20
-50.1383
 30
0.0
 10
-29.1824
 20
-50.1909
 30
0.0
 10
-29.1244
 20
-50.2489
 30
0.0
 10
-29.0647
 20
-50.3086
 30
0.0
 10
-29.0138
 20
-50.37
 30
0.0
 10
-28.9699
 20
-50.4367
 30
0.0
 10
-28.9243
 20
-50.5034
 30
0.0
 10
-28.8945
 20
-50.5789
 30
0.0
 10
-28.8769
 20
-50.6614
 30
0.0
  0
SPLINE
  5
69
330
1F
100
AcDbEntity
  8
Layer 1
 62
   230
100
AcDbSpline
210
0.0
220
0.0
230
1.0
 70
    11
 71
     3
 72
   206
 73
   202
 74
     0
 42
0.0000000001
 43
0.0000000001
 40
0.0
 40
0.0
 40
0.0
 40
0.0
 40
0.0149253731343284
 40
0.0149253731343284
 40
0.0149253731343284
 40
0.0298507462686567
 40
0.0298507462686567
 40
0.0298507462686567
 40
0.0447761194029851
 40
0.0447761194029851
 40
0.0447761194029851
 40
0.0597014925373134
 40
0.0597014925373134
 40
0.0597014925373134
 40
0.0746268656716418
 40
0.0746268656716418
 40
0.0746268656716418
 40
0.0895522388059701
 40
0.0895522388059701
 40
0.0895522388059701
 40
0.1044776119402985
 40
0.1044776119402985
 40
0.1044776119402985
 40
0.1194029850746269
 40
0.1194029850746269
 40
0.1194029850746269
 40
0.1343283582089552
 40
0.1343283582089552
 40
0.1343283582089552
 40
0.1492537313432836
 40
0.1492537313432836
 40
0.1492537313432836
 40
0.1641791044776119
 40
0.1641791044776119
 40
0.1641791044776119
 40
0.1791044776119403
 40
0.1791044776119403
 40
0.1791044776119403
 40
0.1940298507462687
 40
0.1940298507462687
 40
0.1940298507462687
 40
0.208955223880597
 40
0.208955223880597
 40
0.208955223880597
 40
0.2238805970149254
 40
0.2238805970149254
 40
0.2238805970149254
 40
0.2388059701492537
 40
0.2388059701492537
 40
0.2388059701492537
 40
0.2537313432835821
 40
0.2537313432835821
 40
0.2537313432835821
 40
0.2686567164179104
 40
0.2686567164179104
 40
0.2686567164179104
 40
0.2835820895522388
 40
0.2835820895522388
 40
0.2835820895522388
 40
0.2985074626865671
 40
0.2985074626865671
 40
0.2985074626865671
 40
0.3134328358208955
 40
0.3134328358208955
 40
0.3134328358208955
 40
0.3283582089552239
 40
0.3283582089552239
 40
0.3283582089552239
 40
0.3432835820895522
 40
0.3432835820895522
 40
0.3432835820895522
 40
0.3582089552238806
 40
0.3582089552238806
 40
0.3582089552238806
 40
0.3731343283582089
 40
0.3731343283582089
 40
0.3731343283582089
 40
0.3880597014925373
 40
0.3880597014925373
 40
0.3880597014925373
 40
0.4029850746268657
 40
0.4029850746268657
 40
0.4029850746268657
 40
0.417910447761194
 40
0.417910447761194
 40
0.417910447761194
 40
0.4328358208955224
 40
0.4328358208955224
 40
0.4328358208955224
 40
0.4477611940298508
 40
0.4477611940298508
 40
0.4477611940298508
 40
0.4626865671641791
 40
0.4626865671641791
 40
0.4626865671641791
 40
0.4776119402985075
 40
0.4776119402985075
 40
0.4776119402985075
 40
0.4925373134328358
 40
0.4925373134328358
 40
0.4925373134328358
 40
0.5074626865671642
 40
0.5074626865671642
 40
0.5074626865671642
 40
0.5223880597014925
 40
0.5223880597014925
 40
0.5223880597014925
 40
0.5373134328358209
 40
0.5373134328358209
 40
0.5373134328358209
 40
0.5522388059701493
 40
0.5522388059701493
 40
0.5522388059701493
 40
0.5671641791044776
 40
0.5671641791044776
 40
0.5671641791044776
 40
0.582089552238806
 40
0.582089552238806
 40
0.582089552238806
 40
0.5970149253731343
 40
0.5970149253731343
 40
0.5970149253731343
 40
0.6119402985074627
 40
0.6119402985074627
 40
0.6119402985074627
 40
0.6268656716417911
 40
0.6268656716417911
 40
0.6268656716417911
 40
0.6417910447761194
 40
0.6417910447761194
 40
0.6417910447761194
 40
0.6567164179104478
 40
0.6567164179104478
 40
0.6567164179104478
 40
0.6716417910447761
 40
0.6716417910447761
 40
0.6716417910447761
 40
0.6865671641791045
 40
0.6865671641791045
 40
0.6865671641791045
 40
0.7014925373134329
 40
0.7014925373134329
 40
0.7014925373134329
 40
0.7164179104477612
 40
0.7164179104477612
 40
0.7164179104477612
 40
0.7313432835820896
 40
0.7313432835820896
 40
0.7313432835820896
 40
0.7462686567164178
 40
0.7462686567164178
 40
0.7462686567164178
 40
0.7611940298507462
 40
0.7611940298507462
 40
0.7611940298507462
 40
0.7761194029850746
 40
0.7761194029850746
 40
0.7761194029850746
 40
0.7910447761194029
 40
0.7910447761194029
 40
0.7910447761194029
 40
0.8059701492537313
 40
0.8059701492537313
 40
0.8059701492537313
 40
0.8208955223880597
 40
0.8208955223880597
 40
0.8208955223880597
 40
0.835820895522388
 40
0.835820895522388
 40
0.835820895522388
 40
0.8507462686567164
 40
0.8507462686567164
 40
0.8507462686567164
 40
0.8656716417910447
 40
0.8656716417910447
 40
0.8656716417910447
 40
0.8805970149253731
 40
0.8805970149253731
 40
0.8805970149253731
 40
0.8955223880597015
 40
0.8955223880597015
 40
0.8955223880597015
 40
0.9104477611940298
 40
0.9104477611940298
 40
0.9104477611940298
 40
0.9253731343283582
 40
0.9253731343283582
 40
0.9253731343283582
 40
0.9402985074626865
 40
0.9402985074626865
 40
0.9402985074626865
 40
0.9552238805970149
 40
0.9552238805970149
 40
0.9552238805970149
 40
0.9701492537313433
 40
0.9701492537313433
 40
0.9701492537313433
 40
0.9850746268656716
 40
0.9850746268656716
 40
0.9850746268656716
 40
1.0
 40
1.0
 40
1.0
 40
1.0
 10
-30.4499
 20
-50.7597
 30
0.0
 10
-30.4499
 20
-50.7738
 30
0.0
 10
-30.4481
 20
-50.7843
 30
0.0
 10
-30.4446
 20
-50.7913
 30
0.0
 10
-30.4446
 20
-50.8019
 30
0.0
 10
-30.4429
 20
-50.8107
 30
0.0
 10
-30.4394
 20
-50.8177
 30
0.0
 10
-30.4394
 20
-50.8247
 30
0.0
 10
-30.4394
 20
-50.8317
 30
0.0
 10
-30.4376
 20
-50.8405
 30
0.0
 10
-30.4358
 20
-50.8493
 30
0.0
 10
-30.4358
 20
-50.8563
 30
0.0
 10
-30.4358
 20
-50.8633
 30
0.0
 10
-30.4358
 20
-50.8633
 30
0.0
 10
-30.4358
 20
-50.9353
 30
0.0
 10
-30.4358
 20
-50.9353
 30
0.0
 10
-30.4358
 20
-50.9423
 30
0.0
 10
-30.4358
 20
-50.9511
 30
0.0
 10
-30.4376
 20
-50.9616
 30
0.0
 10
-30.4394
 20
-50.9722
 30
0.0
 10
-30.4394
 20
-50.9809
 30
0.0
 10
-30.4394
 20
-50.988
 30
0.0
 10
-30.4394
 20
-50.988
 30
0.0
 10
-30.4552
 20
-51.0494
 30
0.0
 10
-30.4552
 20
-51.0494
 30
0.0
 10
-30.4552
 20
-51.0564
 30
0.0
 10
-30.4569
 20
-51.0599
 30
0.0
 10
-30.4587
 20
-51.0635
 30
0.0
 10
-30.4604
 20
-51.067
 30
0.0
 10
-30.4604
 20
-51.0722
 30
0.0
 10
-30.4604
 20
-51.0793
 30
0.0
 10
-30.4604
 20
-51.0793
 30
0.0
 10
-30.4815
 20
-51.1407
 30
0.0
 10
-30.4815
 20
-51.1407
 30
0.0
 10
-30.4885
 20
-51.153
 30
0.0
 10
-30.4938
 20
-51.167
 30
0.0
 10
-30.499
 20
-51.1811
 30
0.0
 10
-30.5043
 20
-51.1951
 30
0.0
 10
-30.5113
 20
-51.2074
 30
0.0
 10
-30.5166
 20
-51.2215
 30
0.0
 10
-30.5166
 20
-51.225
 30
0.0
 10
-30.5184
 20
-51.2285
 30
0.0
 10
-30.5201
 20
-51.2285
 30
0.0
 10
-30.5219
 20
-51.2302
 30
0.0
 10
-30.5219
 20
-51.2337
 30
0.0
 10
-30.5219
 20
-51.2373
 30
0.0
 10
-30.5219
 20
-51.2373
 30
0.0
 10
-30.5482
 20
-51.2829
 30
0.0
 10
-30.5482
 20
-51.2829
 30
0.0
 10
-30.5552
 20
-51.2987
 30
0.0
 10
-30.564
 20
-51.3145
 30
0.0
 10
-30.5745
 20
-51.325
 30
0.0
 10
-30.5851
 20
-51.3373
 30
0.0
 10
-30.5921
 20
-51.3496
 30
0.0
 10
-30.5991
 20
-51.3637
 30
0.0
 10
-30.6061
 20
-51.3707
 30
0.0
 10
-30.6096
 20
-51.3759
 30
0.0
 10
-30.6096
 20
-51.3795
 30
0.0
 10
-30.6096
 20
-51.3795
 30
0.0
 10
-30.6711
 20
-51.4707
 30
0.0
 10
-30.6711
 20
-51.4707
 30
0.0
 10
-30.6711
 20
-51.4707
 30
0.0
 10
-30.6974
 20
-51.5059
 30
0.0
 10
-30.6974
 20
-51.5059
 30
0.0
 10
-30.7044
 20
-51.5129
 30
0.0
 10
-30.7097
 20
-51.5217
 30
0.0
 10
-30.715
 20
-51.5322
 30
0.0
 10
-30.7202
 20
-51.541
 30
0.0
 10
-30.7273
 20
-51.5497
 30
0.0
 10
-30.7343
 20
-51.5568
 30
0.0
 10
-30.7466
 20
-51.5778
 30
0.0
 10
-30.7589
 20
-51.5919
 30
0.0
 10
-30.7694
 20
-51.6024
 30
0.0
 10
-30.7694
 20
-51.6024
 30
0.0
 10
-30.8519
 20
-51.7042
 30
0.0
 10
-30.8519
 20
-51.7042
 30
0.0
 10
-30.8589
 20
-51.713
 30
0.0
 10
-30.8624
 20
-51.72
 30
0.0
 10
-30.8624
 20
-51.7253
 30
0.0
 10
-30.8695
 20
-51.7323
 30
0.0
 10
-30.8765
 20
-51.7411
 30
0.0
 10
-30.8853
 20
-51.7516
 30
0.0
 10
-30.894
 20
-51.7622
 30
0.0
 10
-30.9028
 20
-51.771
 30
0.0
 10
-30.9134
 20
-51.778
 30
0.0
 10
-30.9134
 20
-51.778
 30
0.0
 10
-30.945
 20
-51.8096
 30
0.0
 10
-30.945
 20
-51.8096
 30
0.0
 10
-30.9555
 20
-51.8271
 30
0.0
 10
-30.9678
 20
-51.8412
 30
0.0
 10
-30.9853
 20
-51.8517
 30
0.0
 10
-30.9853
 20
-51.8517
 30
0.0
 10
-31.038
 20
-51.9026
 30
0.0
 10
-31.038
 20
-51.9026
 30
0.0
 10
-31.038
 20
-51.9026
 30
0.0
 10
-31.0626
 20
-51.9237
 30
0.0
 10
-31.0626
 20
-51.9237
 30
0.0
 10
-31.1012
 20
-51.9553
 30
0.0
 10
-31.1346
 20
-51.9746
 30
0.0
 10
-31.1609
 20
-51.9851
 30
0.0
 10
-31.1609
 20
-51.9851
 30
0.0
 10
-31.1925
 20
-51.9957
 30
0.0
 10
-31.1925
 20
-51.9957
 30
0.0
 10
-31.1925
 20
-51.9957
 30
0.0
 10
-31.2294
 20
-51.9957
 30
0.0
 10
-31.2294
 20
-51.9957
 30
0.0
 10
-31.2557
 20
-51.9957
 30
0.0
 10
-31.2803
 20
-51.9851
 30
0.0
 10
-31.3013
 20
-51.9641
 30
0.0
 10
-31.3768
 20
-51.9061
 30
0.0
 10
-31.4506
 20
-51.8464
 30
0.0
 10
-31.5208
 20
-51.785
 30
0.0
 10
-31.591
 20
-51.7218
 30
0.0
 10
-31.6665
 20
-51.6621
 30
0.0
 10
-31.7455
 20
-51.6024
 30
0.0
 10
-31.7701
 20
-51.5831
 30
0.0
 10
-31.7929
 20
-51.5638
 30
0.0
 10
-31.8175
 20
-51.5462
 30
0.0
 10
-31.8894
 20
-51.4918
 30
0.0
 10
-31.9597
 20
-51.4409
 30
0.0
 10
-32.0281
 20
-51.397
 30
0.0
 10
-32.0316
 20
-51.3953
 30
0.0
 10
-32.0334
 20
-51.3935
 30
0.0
 10
-32.0334
 20
-51.3917
 30
0.0
 10
-32.051
 20
-51.3742
 30
0.0
 10
-32.0597
 20
-51.3584
 30
0.0
 10
-32.0597
 20
-51.3443
 30
0.0
 10
-32.0597
 20
-51.3303
 30
0.0
 10
-32.051
 20
-51.3092
 30
0.0
 10
-32.0334
 20
-51.2829
 30
0.0
 10
-32.0334
 20
-51.2829
 30
0.0
 10
-31.2434
 20
-50.0821
 30
0.0
 10
-31.2434
 20
-50.0821
 30
0.0
 10
-31.2434
 20
-50.0786
 30
0.0
 10
-31.2416
 20
-50.0751
 30
0.0
 10
-31.2381
 20
-50.0716
 30
0.0
 10
-31.2153
 20
-50.04
 30
0.0
 10
-31.189
 20
-50.0277
 30
0.0
 10
-31.1609
 20
-50.0347
 30
0.0
 10
-31.1609
 20
-50.0347
 30
0.0
 10
-31.1574
 20
-50.0364
 30
0.0
 10
-31.1504
 20
-50.04
 30
0.0
 10
-31.1468
 20
-50.04
 30
0.0
 10
-31.1433
 20
-50.0417
 30
0.0
 10
-31.1416
 20
-50.0452
 30
0.0
 10
-31.1416
 20
-50.0452
 30
0.0
 10
-31.1047
 20
-50.061
 30
0.0
 10
-31.1047
 20
-50.061
 30
0.0
 10
-31.0977
 20
-50.068
 30
0.0
 10
-31.0907
 20
-50.0716
 30
0.0
 10
-31.0836
 20
-50.0733
 30
0.0
 10
-31.0766
 20
-50.0751
 30
0.0
 10
-31.0696
 20
-50.0803
 30
0.0
 10
-31.0626
 20
-50.0874
 30
0.0
 10
-31.0556
 20
-50.0909
 30
0.0
 10
-31.0503
 20
-50.0944
 30
0.0
 10
-31.0433
 20
-50.0961
 30
0.0
 10
-31.0362
 20
-50.0996
 30
0.0
 10
-31.0292
 20
-50.1049
 30
0.0
 10
-31.0222
 20
-50.1119
 30
0.0
 10
-31.0082
 20
-50.119
 30
0.0
 10
-30.9941
 20
-50.1277
 30
0.0
 10
-30.9801
 20
-50.1383
 30
0.0
 10
-30.959
 20
-50.1523
 30
0.0
 10
-30.9397
 20
-50.1646
 30
0.0
 10
-30.9186
 20
-50.1769
 30
0.0
 10
-30.8976
 20
-50.1892
 30
0.0
 10
-30.8782
 20
-50.2032
 30
0.0
 10
-30.8572
 20
-50.2208
 30
0.0
 10
-30.8572
 20
-50.2208
 30
0.0
 10
-30.8361
 20
-50.2366
 30
0.0
 10
-30.8361
 20
-50.2366
 30
0.0
 10
-30.8045
 20
-50.2594
 30
0.0
 10
-30.7764
 20
-50.284
 30
0.0
 10
-30.7483
 20
-50.3086
 30
0.0
 10
-30.722
 20
-50.3314
 30
0.0
 10
-30.6939
 20
-50.3577
 30
0.0
 10
-30.6658
 20
-50.3858
 30
0.0
 10
-30.6658
 20
-50.3858
 30
0.0
 10
-30.6044
 20
-50.4578
 30
0.0
 10
-30.6044
 20
-50.4578
 30
0.0
 10
-30.6044
 20
-50.4578
 30
0.0
 10
-30.5587
 20
-50.5192
 30
0.0
 10
-30.5587
 20
-50.5192
 30
0.0
 10
-30.5342
 20
-50.5526
 30
0.0
 10
-30.5148
 20
-50.5877
 30
0.0
 10
-30.5026
 20
-50.6211
 30
0.0
 10
-30.4955
 20
-50.6316
 30
0.0
 10
-30.4885
 20
-50.6474
 30
0.0
 10
-30.4815
 20
-50.6685
 30
0.0
 10
-30.4815
 20
-50.6685
 30
0.0
 10
-30.4657
 20
-50.7141
 30
0.0
 10
-30.4657
 20
-50.7141
 30
0.0
 10
-30.4622
 20
-50.7176
 30
0.0
 10
-30.4604
 20
-50.7211
 30
0.0
 10
-30.4604
 20
-50.7246
 30
0.0
 10
-30.4604
 20
-50.7281
 30
0.0
 10
-30.4587
 20
-50.7334
 30
0.0
 10
-30.4552
 20
-50.7404
 30
0.0
 10
-30.4552
 20
-50.751
 30
0.0
 10
-30.4534
 20
-50.7562
 30
0.0
 10
-30.4499
 20
-50.7597
 30
0.0
  0
SPLINE
  5
6A
330
1F
100
AcDbEntity
  8
Layer 1
 62
   230
100
AcDbSpline
210
0.0
220
0.0
230
1.0
 70
    11
 71
     3
 72
    23
 73
    19
 74
     0
 42
0.0000000001
 43
0.0000000001
 40
0.0
 40
0.0
 40
0.0
 40
0.0
 40
0.1666666666666667
 40
0.1666666666666667
 40
0.1666666666666667
 40
0.3333333333333333
 40
0.3333333333333333
 40
0.3333333333333333
 40
0.5
 40
0.5
 40
0.5
 40
0.6666666666666666
 40
0.6666666666666666
 40
0.6666666666666666
 40
0.8333333333333333
 40
0.8333333333333333
 40
0.8333333333333333
 40
1.0
 40
1.0
 40
1.0
 40
1.0
 10
-33.0365
 20
-59.025
 30
0.0
 10
-33.0365
 20
-59.1849
 30
0.0
 10
-33.0986
 20
-59.3392
 30
0.0
 10
-33.2227
 20
-59.4878
 30
0.0
 10
-33.3469
 20
-59.6364
 30
0.0
 10
-33.4513
 20
-59.7108
 30
0.0
 10
-33.536
 20
-59.7108
 30
0.0
 10
-33.536
 20
-59.7108
 30
0.0
 10
-33.9659
 20
-59.2921
 30
0.0
 10
-33.9659
 20
-59.2921
 30
0.0
 10
-33.9659
 20
-59.2921
 30
0.0
 10
-33.5162
 20
-58.5537
 30
0.0
 10
-33.5162
 20
-58.5537
 30
0.0
 10
-33.3893
 20
-58.6214
 30
0.0
 10
-33.2782
 20
-58.7051
 30
0.0
 10
-33.1813
 20
-58.8048
 30
0.0
 10
-33.0845
 20
-58.9036
 30
0.0
 10
-33.0365
 20
-58.977
 30
0.0
 10
-33.0365
 20
-59.025
 30
0.0
  0
SPLINE
  5
6B
330
1F
100
AcDbEntity
  8
Layer 1
 62
   230
100
AcDbSpline
210
0.0
220
0.0
230
1.0
 70
    11
 71
     3
 72
    35
 73
    31
 74
     0
 42
0.0000000001
 43
0.0000000001
 40
0.0
 40
0.0
 40
0.0
 40
0.0
 40
0.1
 40
0.1
 40
0.1
 40
0.2
 40
0.2
 40
0.2
 40
0.3
 40
0.3
 40
0.3
 40
0.4
 40
0.4
 40
0.4
 40
0.5
 40
0.5
 40
0.5
 40
0.6000000000000001
 40
0.6000000000000001
 40
0.6000000000000001
 40
0.7000000000000001
 40
0.7000000000000001
 40
0.7000000000000001
 40
0.8
 40
0.8
 40
0.8
 40
0.9
 40
0.9
 40
0.9
 40
1.0
 40
1.0
 40
1.0
 40
1.0
 10
-9.3347
 20
-59.0588
 30
0.0
 10
-9.2999
 20
-59.5932
 30
0.0
 10
-9.314
 20
-60.0062
 30
0.0
 10
-9.3761
 20
-60.2978
 30
0.0
 10
-9.4391
 20
-60.5885
 30
0.0
 10
-9.4937
 20
-60.7211
 30
0.0
 10
-9.5416
 20
-60.6957
 30
0.0
 10
-9.5416
 20
-60.2141
 30
0.0
 10
-9.5746
 20
-59.8067
 30
0.0
 10
-9.6414
 20
-59.4718
 30
0.0
 10
-9.727
 20
-59.0748
 30
0.0
 10
-9.8135
 20
-58.7785
 30
0.0
 10
-9.8991
 20
-58.5819
 30
0.0
 10
-9.9838
 20
-58.3853
 30
0.0
 10
-10.0562
 20
-58.2348
 30
0.0
 10
-10.1136
 20
-58.1294
 30
0.0
 10
-10.1719
 20
-58.025
 30
0.0
 10
-10.2002
 20
-57.9535
 30
0.0
 10
-10.2002
 20
-57.9149
 30
0.0
 10
-10.1785
 20
-57.8396
 30
0.0
 10
-10.1277
 20
-57.7032
 30
0.0
 10
-10.0487
 20
-57.5057
 30
0.0
 10
-9.9697
 20
-57.3081
 30
0.0
 10
-9.9217
 20
-57.1943
 30
0.0
 10
-9.9057
 20
-57.1651
 30
0.0
 10
-9.838
 20
-57.1651
 30
0.0
 10
-9.7336
 20
-57.3665
 30
0.0
 10
-9.5943
 20
-57.7691
 30
0.0
 10
-9.4542
 20
-58.1708
 30
0.0
 10
-9.3686
 20
-58.6007
 30
0.0
 10
-9.3347
 20
-59.0588
 30
0.0
  0
SPLINE
  5
6C
330
1F
100
AcDbEntity
  8
Layer 1
 62
   230
100
AcDbSpline
210
0.0
220
0.0
230
1.0
 70
    11
 71
     3
 72
    89
 73
    85
 74
     0
 42
0.0000000001
 43
0.0000000001
 40
0.0
 40
0.0
 40
0.0
 40
0.0
 40
0.0357142857142857
 40
0.0357142857142857
 40
0.0357142857142857
 40
0.0714285714285714
 40
0.0714285714285714
 40
0.0714285714285714
 40
0.1071428571428571
 40
0.1071428571428571
 40
0.1071428571428571
 40
0.1428571428571428
 40
0.1428571428571428
 40
0.1428571428571428
 40
0.1785714285714285
 40
0.1785714285714285
 40
0.1785714285714285
 40
0.2142857142857143
 40
0.2142857142857143
 40
0.2142857142857143
 40
0.25
 40
0.25
 40
0.25
 40
0.2857142857142857
 40
0.2857142857142857
 40
0.2857142857142857
 40
0.3214285714285714
 40
0.3214285714285714
 40
0.3214285714285714
 40
0.3571428571428571
 40
0.3571428571428571
 40
0.3571428571428571
 40
0.3928571428571428
 40
0.3928571428571428
 40
0.3928571428571428
 40
0.4285714285714285
 40
0.4285714285714285
 40
0.4285714285714285
 40
0.4642857142857142
 40
0.4642857142857142
 40
0.4642857142857142
 40
0.5
 40
0.5
 40
0.5
 40
0.5357142857142857
 40
0.5357142857142857
 40
0.5357142857142857
 40
0.5714285714285714
 40
0.5714285714285714
 40
0.5714285714285714
 40
0.6071428571428571
 40
0.6071428571428571
 40
0.6071428571428571
 40
0.6428571428571428
 40
0.6428571428571428
 40
0.6428571428571428
 40
0.6785714285714285
 40
0.6785714285714285
 40
0.6785714285714285
 40
0.7142857142857142
 40
0.7142857142857142
 40
0.7142857142857142
 40
0.75
 40
0.75
 40
0.75
 40
0.7857142857142857
 40
0.7857142857142857
 40
0.7857142857142857
 40
0.8214285714285714
 40
0.8214285714285714
 40
0.8214285714285714
 40
0.8571428571428571
 40
0.8571428571428571
 40
0.8571428571428571
 40
0.8928571428571428
 40
0.8928571428571428
 40
0.8928571428571428
 40
0.9285714285714285
 40
0.9285714285714285
 40
0.9285714285714285
 40
0.9642857142857142
 40
0.9642857142857142
 40
0.9642857142857142
 40
1.0
 40
1.0
 40
1.0
 40
1.0
 10
-11.5896
 20
-58.0306
 30
0.0
 10
-11.6451
 20
-58.104
 30
0.0
 10
-11.711
 20
-58.1642
 30
0.0
 10
-11.7881
 20
-58.2103
 30
0.0
 10
-11.8653
 20
-58.2573
 30
0.0
 10
-11.9565
 20
-58.2912
 30
0.0
 10
-12.0609
 20
-58.311
 30
0.0
 10
-11.9029
 20
-58.8622
 30
0.0
 10
-11.8239
 20
-59.3382
 30
0.0
 10
-11.8239
 20
-59.739
 30
0.0
 10
-11.8239
 20
-60.0955
 30
0.0
 10
-11.8596
 20
-60.4078
 30
0.0
 10
-11.932
 20
-60.676
 30
0.0
 10
-11.9386
 20
-60.7051
 30
0.0
 10
-11.9499
 20
-60.7183
 30
0.0
 10
-11.965
 20
-60.7145
 30
0.0
 10
-11.9791
 20
-60.7089
 30
0.0
 10
-11.9875
 20
-60.6891
 30
0.0
 10
-11.9894
 20
-60.6543
 30
0.0
 10
-12.0722
 20
-59.6327
 30
0.0
 10
-12.3478
 20
-58.7672
 30
0.0
 10
-12.8163
 20
-58.0579
 30
0.0
 10
-12.8474
 20
-58.0043
 30
0.0
 10
-12.8747
 20
-57.9657
 30
0.0
 10
-12.8963
 20
-57.9422
 30
0.0
 10
-12.8192
 20
-57.6938
 30
0.0
 10
-12.7411
 20
-57.453
 30
0.0
 10
-12.6621
 20
-57.2197
 30
0.0
 10
-12.6414
 20
-57.1614
 30
0.0
 10
-12.6169
 20
-57.1548
 30
0.0
 10
-12.5877
 20
-57.2009
 30
0.0
 10
-12.536
 20
-57.278
 30
0.0
 10
-12.457
 20
-57.3505
 30
0.0
 10
-12.3488
 20
-57.4201
 30
0.0
 10
-12.2415
 20
-57.4888
 30
0.0
 10
-12.1352
 20
-57.5236
 30
0.0
 10
-12.0308
 20
-57.5236
 30
0.0
 10
-11.9339
 20
-57.5236
 30
0.0
 10
-11.8427
 20
-57.4944
 30
0.0
 10
-11.7599
 20
-57.438
 30
0.0
 10
-11.6762
 20
-57.3806
 30
0.0
 10
-11.6225
 20
-57.3034
 30
0.0
 10
-11.5981
 20
-57.2065
 30
0.0
 10
-11.5802
 20
-57.1623
 30
0.0
 10
-11.5595
 20
-57.1501
 30
0.0
 10
-11.5379
 20
-57.1708
 30
0.0
 10
-11.5341
 20
-57.2272
 30
0.0
 10
-11.5153
 20
-57.278
 30
0.0
 10
-11.4824
 20
-57.3222
 30
0.0
 10
-11.4494
 20
-57.3665
 30
0.0
 10
-11.4081
 20
-57.4022
 30
0.0
 10
-11.3601
 20
-57.4304
 30
0.0
 10
-11.3112
 20
-57.4596
 30
0.0
 10
-11.2575
 20
-57.4775
 30
0.0
 10
-11.2002
 20
-57.4859
 30
0.0
 10
-11.1418
 20
-57.4944
 30
0.0
 10
-11.0854
 20
-57.4897
 30
0.0
 10
-11.0308
 20
-57.4737
 30
0.0
 10
-10.9753
 20
-57.4568
 30
0.0
 10
-10.9255
 20
-57.4276
 30
0.0
 10
-10.8803
 20
-57.3843
 30
0.0
 10
-10.8351
 20
-57.3411
 30
0.0
 10
-10.8003
 20
-57.2808
 30
0.0
 10
-10.7768
 20
-57.2037
 30
0.0
 10
-10.7731
 20
-57.1811
 30
0.0
 10
-10.7608
 20
-57.1689
 30
0.0
 10
-10.7401
 20
-57.1661
 30
0.0
 10
-10.7185
 20
-57.1633
 30
0.0
 10
-10.7053
 20
-57.1755
 30
0.0
 10
-10.6997
 20
-57.2037
 30
0.0
 10
-10.7166
 20
-57.4088
 30
0.0
 10
-10.7768
 20
-57.6073
 30
0.0
 10
-10.8803
 20
-57.7983
 30
0.0
 10
-10.9838
 20
-57.9902
 30
0.0
 10
-11.124
 20
-58.0852
 30
0.0
 10
-11.3008
 20
-58.0852
 30
0.0
 10
-11.378
 20
-58.0852
 30
0.0
 10
-11.456
 20
-58.0673
 30
0.0
 10
-11.5351
 20
-58.0306
 30
0.0
 10
-11.551
 20
-58.0193
 30
0.0
 10
-11.5623
 20
-58.0137
 30
0.0
 10
-11.568
 20
-58.0127
 30
0.0
 10
-11.5736
 20
-58.0118
 30
0.0
 10
-11.5811
 20
-58.0174
 30
0.0
 10
-11.5896
 20
-58.0306
 30
0.0
  0
SPLINE
  5
6D
330
1F
100
AcDbEntity
  8
Layer 1
 62
   230
100
AcDbSpline
210
0.0
220
0.0
230
1.0
 70
    11
 71
     3
 72
    35
 73
    31
 74
     0
 42
0.0000000001
 43
0.0000000001
 40
0.0
 40
0.0
 40
0.0
 40
0.0
 40
0.1
 40
0.1
 40
0.1
 40
0.2
 40
0.2
 40
0.2
 40
0.3
 40
0.3
 40
0.3
 40
0.4
 40
0.4
 40
0.4
 40
0.5
 40
0.5
 40
0.5
 40
0.6000000000000001
 40
0.6000000000000001
 40
0.6000000000000001
 40
0.7000000000000001
 40
0.7000000000000001
 40
0.7000000000000001
 40
0.8
 40
0.8
 40
0.8
 40
0.9
 40
0.9
 40
0.9
 40
1.0
 40
1.0
 40
1.0
 40
1.0
 10
-13.4805
 20
-59.0588
 30
0.0
 10
-13.4457
 20
-59.5932
 30
0.0
 10
-13.4598
 20
-60.0062
 30
0.0
 10
-13.5219
 20
-60.2978
 30
0.0
 10
-13.5849
 20
-60.5885
 30
0.0
 10
-13.6395
 20
-60.7211
 30
0.0
 10
-13.6874
 20
-60.6957
 30
0.0
 10
-13.6874
 20
-60.2141
 30
0.0
 10
-13.7204
 20
-59.8067
 30
0.0
 10
-13.7872
 20
-59.4718
 30
0.0
 10
-13.8728
 20
-59.0748
 30
0.0
 10
-13.9593
 20
-58.7785
 30
0.0
 10
-14.0449
 20
-58.5819
 30
0.0
 10
-14.1296
 20
-58.3853
 30
0.0
 10
-14.202
 20
-58.2348
 30
0.0
 10
-14.2594
 20
-58.1294
 30
0.0
 10
-14.3177
 20
-58.025
 30
0.0
 10
-14.346
 20
-57.9535
 30
0.0
 10
-14.346
 20
-57.9149
 30
0.0
 10
-14.3243
 20
-57.8396
 30
0.0
 10
-14.2735
 20
-57.7032
 30
0.0
 10
-14.1945
 20
-57.5057
 30
0.0
 10
-14.1155
 20
-57.3081
 30
0.0
 10
-14.0675
 20
-57.1943
 30
0.0
 10
-14.0515
 20
-57.1651
 30
0.0
 10
-13.9838
 20
-57.1651
 30
0.0
 10
-13.8794
 20
-57.3665
 30
0.0
 10
-13.7401
 20
-57.7691
 30
0.0
 10
-13.6
 20
-58.1708
 30
0.0
 10
-13.5144
 20
-58.6007
 30
0.0
 10
-13.4805
 20
-59.0588
 30
0.0
  0
SPLINE
  5
6E
330
1F
100
AcDbEntity
  8
Layer 1
 62
   230
100
AcDbSpline
210
0.0
220
0.0
230
1.0
 70
    11
 71
     3
 72
   107
 73
   103
 74
     0
 42
0.0000000001
 43
0.0000000001
 40
0.0
 40
0.0
 40
0.0
 40
0.0
 40
0.0294117647058824
 40
0.0294117647058824
 40
0.0294117647058824
 40
0.0588235294117647
 40
0.0588235294117647
 40
0.0588235294117647
 40
0.0882352941176471
 40
0.0882352941176471
 40
0.0882352941176471
 40
0.1176470588235294
 40
0.1176470588235294
 40
0.1176470588235294
 40
0.1470588235294118
 40
0.1470588235294118
 40
0.1470588235294118
 40
0.1764705882352941
 40
0.1764705882352941
 40
0.1764705882352941
 40
0.2058823529411765
 40
0.2058823529411765
 40
0.2058823529411765
 40
0.2352941176470588
 40
0.2352941176470588
 40
0.2352941176470588
 40
0.2647058823529412
 40
0.2647058823529412
 40
0.2647058823529412
 40
0.2941176470588235
 40
0.2941176470588235
 40
0.2941176470588235
 40
0.3235294117647059
 40
0.3235294117647059
 40
0.3235294117647059
 40
0.3529411764705882
 40
0.3529411764705882
 40
0.3529411764705882
 40
0.3823529411764706
 40
0.3823529411764706
 40
0.3823529411764706
 40
0.4117647058823529
 40
0.4117647058823529
 40
0.4117647058823529
 40
0.4411764705882353
 40
0.4411764705882353
 40
0.4411764705882353
 40
0.4705882352941176
 40
0.4705882352941176
 40
0.4705882352941176
 40
0.5
 40
0.5
 40
0.5
 40
0.5294117647058824
 40
0.5294117647058824
 40
0.5294117647058824
 40
0.5588235294117647
 40
0.5588235294117647
 40
0.5588235294117647
 40
0.5882352941176471
 40
0.5882352941176471
 40
0.5882352941176471
 40
0.6176470588235294
 40
0.6176470588235294
 40
0.6176470588235294
 40
0.6470588235294118
 40
0.6470588235294118
 40
0.6470588235294118
 40
0.6764705882352942
 40
0.6764705882352942
 40
0.6764705882352942
 40
0.7058823529411764
 40
0.7058823529411764
 40
0.7058823529411764
 40
0.7352941176470588
 40
0.7352941176470588
 40
0.7352941176470588
 40
0.7647058823529411
 40
0.7647058823529411
 40
0.7647058823529411
 40
0.7941176470588235
 40
0.7941176470588235
 40
0.7941176470588235
 40
0.8235294117647058
 40
0.8235294117647058
 40
0.8235294117647058
 40
0.8529411764705882
 40
0.8529411764705882
 40
0.8529411764705882
 40
0.8823529411764706
 40
0.8823529411764706
 40
0.8823529411764706
 40
0.9117647058823529
 40
0.9117647058823529
 40
0.9117647058823529
 40
0.9411764705882353
 40
0.9411764705882353
 40
0.9411764705882353
 40
0.9705882352941176
 40
0.9705882352941176
 40
0.9705882352941176
 40
1.0
 40
1.0
 40
1.0
 40
1.0
 10
-15.0572
 20
-57.9582
 30
0.0
 10
-15.0647
 20
-57.992
 30
0.0
 10
-15.0704
 20
-58.0127
 30
0.0
 10
-15.0741
 20
-58.0221
 30
0.0
 10
-15.0779
 20
-58.0316
 30
0.0
 10
-15.0835
 20
-58.04
 30
0.0
 10
-15.0929
 20
-58.0494
 30
0.0
 10
-15.2218
 20
-58.1595
 30
0.0
 10
-15.3356
 20
-58.2837
 30
0.0
 10
-15.4363
 20
-58.422
 30
0.0
 10
-15.536
 20
-58.5593
 30
0.0
 10
-15.6244
 20
-58.7042
 30
0.0
 10
-15.6997
 20
-58.8575
 30
0.0
 10
-15.775
 20
-59.0099
 30
0.0
 10
-15.8389
 20
-59.167
 30
0.0
 10
-15.8926
 20
-59.3279
 30
0.0
 10
-15.9452
 20
-59.4897
 30
0.0
 10
-15.9885
 20
-59.6496
 30
0.0
 10
-16.0214
 20
-59.8067
 30
0.0
 10
-16.0553
 20
-59.9638
 30
0.0
 10
-16.0788
 20
-60.1153
 30
0.0
 10
-16.0948
 20
-60.263
 30
0.0
 10
-16.1108
 20
-60.4097
 30
0.0
 10
-16.1183
 20
-60.5443
 30
0.0
 10
-16.1183
 20
-60.6675
 30
0.0
 10
-16.1296
 20
-60.7004
 30
0.0
 10
-16.1475
 20
-60.7164
 30
0.0
 10
-16.1738
 20
-60.7145
 30
0.0
 10
-16.1992
 20
-60.7126
 30
0.0
 10
-16.2162
 20
-60.6976
 30
0.0
 10
-16.2256
 20
-60.6675
 30
0.0
 10
-16.2256
 20
-60.5443
 30
0.0
 10
-16.2359
 20
-60.4097
 30
0.0
 10
-16.2576
 20
-60.2639
 30
0.0
 10
-16.2783
 20
-60.1181
 30
0.0
 10
-16.3102
 20
-59.9666
 30
0.0
 10
-16.3516
 20
-59.8105
 30
0.0
 10
-16.3921
 20
-59.6543
 30
0.0
 10
-16.4448
 20
-59.4963
 30
0.0
 10
-16.5069
 20
-59.3354
 30
0.0
 10
-16.5689
 20
-59.1745
 30
0.0
 10
-16.6423
 20
-59.0174
 30
0.0
 10
-16.726
 20
-58.865
 30
0.0
 10
-16.8098
 20
-58.7126
 30
0.0
 10
-16.9038
 20
-58.5678
 30
0.0
 10
-17.0083
 20
-58.4314
 30
0.0
 10
-17.1136
 20
-58.294
 30
0.0
 10
-17.2284
 20
-58.1698
 30
0.0
 10
-17.3526
 20
-58.0579
 30
0.0
 10
-17.362
 20
-58.0504
 30
0.0
 10
-17.3704
 20
-58.0419
 30
0.0
 10
-17.3789
 20
-58.0316
 30
0.0
 10
-17.3874
 20
-58.0212
 30
0.0
 10
-17.3911
 20
-58.008
 30
0.0
 10
-17.3893
 20
-57.992
 30
0.0
 10
-17.3573
 20
-57.5264
 30
0.0
 10
-17.3375
 20
-57.2517
 30
0.0
 10
-17.3281
 20
-57.1651
 30
0.0
 10
-17.3243
 20
-57.1426
 30
0.0
 10
-17.314
 20
-57.1426
 30
0.0
 10
-17.298
 20
-57.1651
 30
0.0
 10
-17.1287
 20
-57.3194
 30
0.0
 10
-16.981
 20
-57.484
 30
0.0
 10
-16.854
 20
-57.6581
 30
0.0
 10
-16.727
 20
-57.8331
 30
0.0
 10
-16.6188
 20
-58.0099
 30
0.0
 10
-16.5275
 20
-58.1887
 30
0.0
 10
-16.4363
 20
-58.3674
 30
0.0
 10
-16.362
 20
-58.5443
 30
0.0
 10
-16.3046
 20
-58.7183
 30
0.0
 10
-16.2463
 20
-58.8914
 30
0.0
 10
-16.2021
 20
-59.0551
 30
0.0
 10
-16.171
 20
-59.2094
 30
0.0
 10
-16.1409
 20
-59.0551
 30
0.0
 10
-16.0948
 20
-58.8904
 30
0.0
 10
-16.0299
 20
-58.7155
 30
0.0
 10
-15.9659
 20
-58.5396
 30
0.0
 10
-15.8841
 20
-58.3627
 30
0.0
 10
-15.7844
 20
-58.183
 30
0.0
 10
-15.6856
 20
-58.0043
 30
0.0
 10
-15.5671
 20
-57.8284
 30
0.0
 10
-15.4307
 20
-57.6553
 30
0.0
 10
-15.2933
 20
-57.4831
 30
0.0
 10
-15.1381
 20
-57.3232
 30
0.0
 10
-14.9631
 20
-57.1755
 30
0.0
 10
-14.9471
 20
-57.1614
 30
0.0
 10
-14.9358
 20
-57.1548
 30
0.0
 10
-14.9302
 20
-57.1576
 30
0.0
 10
-14.9245
 20
-57.1604
 30
0.0
 10
-14.9208
 20
-57.167
 30
0.0
 10
-14.917
 20
-57.1755
 30
0.0
 10
-14.917
 20
-57.1981
 30
0.0
 10
-14.9208
 20
-57.2338
 30
0.0
 10
-14.9292
 20
-57.2837
 30
0.0
 10
-14.9377
 20
-57.3326
 30
0.0
 10
-14.9481
 20
-57.3919
 30
0.0
 10
-14.9603
 20
-57.4596
 30
0.0
 10
-14.9735
 20
-57.5273
 30
0.0
 10
-14.9885
 20
-57.6045
 30
0.0
 10
-15.0064
 20
-57.6901
 30
0.0
 10
-15.0233
 20
-57.7757
 30
0.0
 10
-15.0402
 20
-57.865
 30
0.0
 10
-15.0572
 20
-57.9582
 30
0.0
  0
SPLINE
  5
6F
330
1F
100
AcDbEntity
  8
Layer 1
 62
   230
100
AcDbSpline
210
0.0
220
0.0
230
1.0
 70
    11
 71
     3
 72
    92
 73
    88
 74
     0
 42
0.0000000001
 43
0.0000000001
 40
0.0
 40
0.0
 40
0.0
 40
0.0
 40
0.0344827586206897
 40
0.0344827586206897
 40
0.0344827586206897
 40
0.0689655172413793
 40
0.0689655172413793
 40
0.0689655172413793
 40
0.103448275862069
 40
0.103448275862069
 40
0.103448275862069
 40
0.1379310344827586
 40
0.1379310344827586
 40
0.1379310344827586
 40
0.1724137931034483
 40
0.1724137931034483
 40
0.1724137931034483
 40
0.2068965517241379
 40
0.2068965517241379
 40
0.2068965517241379
 40
0.2413793103448276
 40
0.2413793103448276
 40
0.2413793103448276
 40
0.2758620689655172
 40
0.2758620689655172
 40
0.2758620689655172
 40
0.3103448275862069
 40
0.3103448275862069
 40
0.3103448275862069
 40
0.3448275862068966
 40
0.3448275862068966
 40
0.3448275862068966
 40
0.3793103448275862
 40
0.3793103448275862
 40
0.3793103448275862
 40
0.4137931034482759
 40
0.4137931034482759
 40
0.4137931034482759
 40
0.4482758620689655
 40
0.4482758620689655
 40
0.4482758620689655
 40
0.4827586206896551
 40
0.4827586206896551
 40
0.4827586206896551
 40
0.5172413793103449
 40
0.5172413793103449
 40
0.5172413793103449
 40
0.5517241379310345
 40
0.5517241379310345
 40
0.5517241379310345
 40
0.5862068965517241
 40
0.5862068965517241
 40
0.5862068965517241
 40
0.6206896551724138
 40
0.6206896551724138
 40
0.6206896551724138
 40
0.6551724137931034
 40
0.6551724137931034
 40
0.6551724137931034
 40
0.6896551724137931
 40
0.6896551724137931
 40
0.6896551724137931
 40
0.7241379310344828
 40
0.7241379310344828
 40
0.7241379310344828
 40
0.7586206896551724
 40
0.7586206896551724
 40
0.7586206896551724
 40
0.7931034482758621
 40
0.7931034482758621
 40
0.7931034482758621
 40
0.8275862068965517
 40
0.8275862068965517
 40
0.8275862068965517
 40
0.8620689655172413
 40
0.8620689655172413
 40
0.8620689655172413
 40
0.896551724137931
 40
0.896551724137931
 40
0.896551724137931
 40
0.9310344827586207
 40
0.9310344827586207
 40
0.9310344827586207
 40
0.9655172413793103
 40
0.9655172413793103
 40
0.9655172413793103
 40
1.0
 40
1.0
 40
1.0
 40
1.0
 10
-18.2989
 20
-57.9102
 30
0.0
 10
-18.2105
 20
-57.8462
 30
0.0
 10
-18.1362
 20
-57.7747
 30
0.0
 10
-18.075
 20
-57.6957
 30
0.0
 10
-18.0666
 20
-57.6863
 30
0.0
 10
-18.0571
 20
-57.6816
 30
0.0
 10
-18.0496
 20
-57.6807
 30
0.0
 10
-18.0412
 20
-57.6797
 30
0.0
 10
-18.0355
 20
-57.6844
 30
0.0
 10
-18.0346
 20
-57.6957
 30
0.0
 10
-18.0449
 20
-57.7427
 30
0.0
 10
-18.075
 20
-57.818
 30
0.0
 10
-18.1249
 20
-57.9215
 30
0.0
 10
-18.219
 20
-58.1012
 30
0.0
 10
-18.3253
 20
-58.2489
 30
0.0
 10
-18.4438
 20
-58.3655
 30
0.0
 10
-18.5623
 20
-58.4822
 30
0.0
 10
-18.6846
 20
-58.5678
 30
0.0
 10
-18.8116
 20
-58.6233
 30
0.0
 10
-18.9377
 20
-58.6778
 30
0.0
 10
-19.0844
 20
-58.7098
 30
0.0
 10
-19.25
 20
-58.7192
 30
0.0
 10
-19.2039
 20
-58.8641
 30
0.0
 10
-19.1672
 20
-59.0805
 30
0.0
 10
-19.1409
 20
-59.3674
 30
0.0
 10
-19.1136
 20
-59.6543
 30
0.0
 10
-19.1286
 20
-59.9459
 30
0.0
 10
-19.1851
 20
-60.2423
 30
0.0
 10
-19.2406
 20
-60.5386
 30
0.0
 10
-19.3046
 20
-60.6872
 30
0.0
 10
-19.3761
 20
-60.6872
 30
0.0
 10
-19.3563
 20
-60.2451
 30
0.0
 10
-19.4015
 20
-59.8368
 30
0.0
 10
-19.5125
 20
-59.4643
 30
0.0
 10
-19.6235
 20
-59.0908
 30
0.0
 10
-19.7514
 20
-58.7794
 30
0.0
 10
-19.8944
 20
-58.5311
 30
0.0
 10
-20.0374
 20
-58.2818
 30
0.0
 10
-20.1145
 20
-58.1482
 30
0.0
 10
-20.1258
 20
-58.1275
 30
0.0
 10
-20.1277
 20
-58.1096
 30
0.0
 10
-20.0402
 20
-57.8782
 30
0.0
 10
-19.8643
 20
-57.4342
 30
0.0
 10
-19.7542
 20
-57.5922
 30
0.0
 10
-19.6705
 20
-57.7098
 30
0.0
 10
-19.6131
 20
-57.787
 30
0.0
 10
-19.5049
 20
-57.9262
 30
0.0
 10
-19.3958
 20
-58.0052
 30
0.0
 10
-19.2857
 20
-58.024
 30
0.0
 10
-19.2152
 20
-57.8406
 30
0.0
 10
-19.1333
 20
-57.6825
 30
0.0
 10
-19.0374
 20
-57.5508
 30
0.0
 10
-18.9414
 20
-57.4201
 30
0.0
 10
-18.8455
 20
-57.3185
 30
0.0
 10
-18.7495
 20
-57.2479
 30
0.0
 10
-18.6526
 20
-57.1774
 30
0.0
 10
-18.5388
 20
-57.1388
 30
0.0
 10
-18.4062
 20
-57.1313
 30
0.0
 10
-18.3253
 20
-57.1407
 30
0.0
 10
-18.2575
 20
-57.168
 30
0.0
 10
-18.2039
 20
-57.215
 30
0.0
 10
-18.1493
 20
-57.262
 30
0.0
 10
-18.1268
 20
-57.311
 30
0.0
 10
-18.1362
 20
-57.3627
 30
0.0
 10
-18.1522
 20
-57.4709
 30
0.0
 10
-18.2067
 20
-57.5207
 30
0.0
 10
-18.2989
 20
-57.5113
 30
0.0
 10
-18.345
 20
-57.4906
 30
0.0
 10
-18.3958
 20
-57.4746
 30
0.0
 10
-18.4532
 20
-57.4615
 30
0.0
 10
-18.5096
 20
-57.4483
 30
0.0
 10
-18.5633
 20
-57.4445
 30
0.0
 10
-18.6131
 20
-57.4474
 30
0.0
 10
-18.6846
 20
-57.4492
 30
0.0
 10
-18.7552
 20
-57.4831
 30
0.0
 10
-18.8248
 20
-57.5471
 30
0.0
 10
-18.8953
 20
-57.611
 30
0.0
 10
-18.9292
 20
-57.6665
 30
0.0
 10
-18.9273
 20
-57.7117
 30
0.0
 10
-18.9142
 20
-57.7794
 30
0.0
 10
-18.8775
 20
-57.8396
 30
0.0
 10
-18.8154
 20
-57.8923
 30
0.0
 10
-18.7542
 20
-57.945
 30
0.0
 10
-18.6968
 20
-57.9751
 30
0.0
 10
-18.6432
 20
-57.9845
 30
0.0
 10
-18.5238
 20
-58.0137
 30
0.0
 10
-18.409
 20
-57.9892
 30
0.0
 10
-18.2989
 20
-57.9102
 30
0.0
  0
SPLINE
  5
70
330
1F
100
AcDbEntity
  8
Layer 1
 62
   230
100
AcDbSpline
210
0.0
220
0.0
230
1.0
 70
    11
 71
     3
 72
    89
 73
    85
 74
     0
 42
0.0000000001
 43
0.0000000001
 40
0.0
 40
0.0
 40
0.0
 40
0.0
 40
0.0357142857142857
 40
0.0357142857142857
 40
0.0357142857142857
 40
0.0714285714285714
 40
0.0714285714285714
 40
0.0714285714285714
 40
0.1071428571428571
 40
0.1071428571428571
 40
0.1071428571428571
 40
0.1428571428571428
 40
0.1428571428571428
 40
0.1428571428571428
 40
0.1785714285714285
 40
0.1785714285714285
 40
0.1785714285714285
 40
0.2142857142857143
 40
0.2142857142857143
 40
0.2142857142857143
 40
0.25
 40
0.25
 40
0.25
 40
0.2857142857142857
 40
0.2857142857142857
 40
0.2857142857142857
 40
0.3214285714285714
 40
0.3214285714285714
 40
0.3214285714285714
 40
0.3571428571428571
 40
0.3571428571428571
 40
0.3571428571428571
 40
0.3928571428571428
 40
0.3928571428571428
 40
0.3928571428571428
 40
0.4285714285714285
 40
0.4285714285714285
 40
0.4285714285714285
 40
0.4642857142857142
 40
0.4642857142857142
 40
0.4642857142857142
 40
0.5
 40
0.5
 40
0.5
 40
0.5357142857142857
 40
0.5357142857142857
 40
0.5357142857142857
 40
0.5714285714285714
 40
0.5714285714285714
 40
0.5714285714285714
 40
0.6071428571428571
 40
0.6071428571428571
 40
0.6071428571428571
 40
0.6428571428571428
 40
0.6428571428571428
 40
0.6428571428571428
 40
0.6785714285714285
 40
0.6785714285714285
 40
0.6785714285714285
 40
0.7142857142857142
 40
0.7142857142857142
 40
0.7142857142857142
 40
0.75
 40
0.75
 40
0.75
 40
0.7857142857142857
 40
0.7857142857142857
 40
0.7857142857142857
 40
0.8214285714285714
 40
0.8214285714285714
 40
0.8214285714285714
 40
0.8571428571428571
 40
0.8571428571428571
 40
0.8571428571428571
 40
0.8928571428571428
 40
0.8928571428571428
 40
0.8928571428571428
 40
0.9285714285714285
 40
0.9285714285714285
 40
0.9285714285714285
 40
0.9642857142857142
 40
0.9642857142857142
 40
0.9642857142857142
 40
1.0
 40
1.0
 40
1.0
 40
1.0
 10
-21.4654
 20
-58.0306
 30
0.0
 10
-21.5209
 20
-58.104
 30
0.0
 10
-21.5868
 20
-58.1642
 30
0.0
 10
-21.6639
 20
-58.2103
 30
0.0
 10
-21.7411
 20
-58.2573
 30
0.0
 10
-21.8323
 20
-58.2912
 30
0.0
 10
-21.9367
 20
-58.311
 30
0.0
 10
-21.7787
 20
-58.8622
 30
0.0
 10
-21.6997
 20
-59.3382
 30
0.0
 10
-21.6997
 20
-59.739
 30
0.0
 10
-21.6997
 20
-60.0955
 30
0.0
 10
-21.7354
 20
-60.4078
 30
0.0
 10
-21.8078
 20
-60.676
 30
0.0
 10
-21.8144
 20
-60.7051
 30
0.0
 10
-21.8257
 20
-60.7183
 30
0.0
 10
-21.8408
 20
-60.7145
 30
0.0
 10
-21.8549
 20
-60.7089
 30
0.0
 10
-21.8633
 20
-60.6891
 30
0.0
 10
-21.8652
 20
-60.6543
 30
0.0
 10
-21.948
 20
-59.6327
 30
0.0
 10
-22.2236
 20
-58.7672
 30
0.0
 10
-22.6921
 20
-58.0579
 30
0.0
 10
-22.7232
 20
-58.0043
 30
0.0
 10
-22.7505
 20
-57.9657
 30
0.0
 10
-22.7721
 20
-57.9422
 30
0.0
 10
-22.695
 20
-57.6938
 30
0.0
 10
-22.6169
 20
-57.453
 30
0.0
 10
-22.5379
 20
-57.2197
 30
0.0
 10
-22.5172
 20
-57.1614
 30
0.0
 10
-22.4927
 20
-57.1548
 30
0.0
 10
-22.4635
 20
-57.2009
 30
0.0
 10
-22.4118
 20
-57.278
 30
0.0
 10
-22.3328
 20
-57.3505
 30
0.0
 10
-22.2246
 20
-57.4201
 30
0.0
 10
-22.1173
 20
-57.4888
 30
0.0
 10
-22.011
 20
-57.5236
 30
0.0
 10
-21.9066
 20
-57.5236
 30
0.0
 10
-21.8097
 20
-57.5236
 30
0.0
 10
-21.7185
 20
-57.4944
 30
0.0
 10
-21.6357
 20
-57.438
 30
0.0
 10
-21.552
 20
-57.3806
 30
0.0
 10
-21.4983
 20
-57.3034
 30
0.0
 10
-21.4739
 20
-57.2065
 30
0.0
 10
-21.456
 20
-57.1623
 30
0.0
 10
-21.4353
 20
-57.1501
 30
0.0
 10
-21.4137
 20
-57.1708
 30
0.0
 10
-21.4099
 20
-57.2272
 30
0.0
 10
-21.3911
 20
-57.278
 30
0.0
 10
-21.3582
 20
-57.3222
 30
0.0
 10
-21.3252
 20
-57.3665
 30
0.0
 10
-21.2839
 20
-57.4022
 30
0.0
 10
-21.2359
 20
-57.4304
 30
0.0
 10
-21.187
 20
-57.4596
 30
0.0
 10
-21.1333
 20
-57.4775
 30
0.0
 10
-21.076
 20
-57.4859
 30
0.0
 10
-21.0176
 20
-57.4944
 30
0.0
 10
-20.9612
 20
-57.4897
 30
0.0
 10
-20.9066
 20
-57.4737
 30
0.0
 10
-20.8511
 20
-57.4568
 30
0.0
 10
-20.8013
 20
-57.4276
 30
0.0
 10
-20.7561
 20
-57.3843
 30
0.0
 10
-20.7109
 20
-57.3411
 30
0.0
 10
-20.6761
 20
-57.2808
 30
0.0
 10
-20.6526
 20
-57.2037
 30
0.0
 10
-20.6489
 20
-57.1811
 30
0.0
 10
-20.6366
 20
-57.1689
 30
0.0
 10
-20.6159
 20
-57.1661
 30
0.0
 10
-20.5943
 20
-57.1633
 30
0.0
 10
-20.5811
 20
-57.1755
 30
0.0
 10
-20.5755
 20
-57.2037
 30
0.0
 10
-20.5924
 20
-57.4088
 30
0.0
 10
-20.6526
 20
-57.6073
 30
0.0
 10
-20.7561
 20
-57.7983
 30
0.0
 10
-20.8596
 20
-57.9902
 30
0.0
 10
-20.9998
 20
-58.0852
 30
0.0
 10
-21.1766
 20
-58.0852
 30
0.0
 10
-21.2538
 20
-58.0852
 30
0.0
 10
-21.3318
 20
-58.0673
 30
0.0
 10
-21.4109
 20
-58.0306
 30
0.0
 10
-21.4268
 20
-58.0193
 30
0.0
 10
-21.4381
 20
-58.0137
 30
0.0
 10
-21.4438
 20
-58.0127
 30
0.0
 10
-21.4494
 20
-58.0118
 30
0.0
 10
-21.4569
 20
-58.0174
 30
0.0
 10
-21.4654
 20
-58.0306
 30
0.0
  0
SPLINE
  5
71
330
1F
100
AcDbEntity
  8
Layer 1
 62
   230
100
AcDbSpline
210
0.0
220
0.0
230
1.0
 70
    11
 71
     3
 72
    71
 73
    67
 74
     0
 42
0.0000000001
 43
0.0000000001
 40
0.0
 40
0.0
 40
0.0
 40
0.0
 40
0.0454545454545455
 40
0.0454545454545455
 40
0.0454545454545455
 40
0.0909090909090909
 40
0.0909090909090909
 40
0.0909090909090909
 40
0.1363636363636364
 40
0.1363636363636364
 40
0.1363636363636364
 40
0.1818181818181818
 40
0.1818181818181818
 40
0.1818181818181818
 40
0.2272727272727273
 40
0.2272727272727273
 40
0.2272727272727273
 40
0.2727272727272727
 40
0.2727272727272727
 40
0.2727272727272727
 40
0.3181818181818182
 40
0.3181818181818182
 40
0.3181818181818182
 40
0.3636363636363636
 40
0.3636363636363636
 40
0.3636363636363636
 40
0.4090909090909091
 40
0.4090909090909091
 40
0.4090909090909091
 40
0.4545454545454546
 40
0.4545454545454546
 40
0.4545454545454546
 40
0.5
 40
0.5
 40
0.5
 40
0.5454545454545454
 40
0.5454545454545454
 40
0.5454545454545454
 40
0.5909090909090909
 40
0.5909090909090909
 40
0.5909090909090909
 40
0.6363636363636364
 40
0.6363636363636364
 40
0.6363636363636364
 40
0.6818181818181819
 40
0.6818181818181819
 40
0.6818181818181819
 40
0.7272727272727273
 40
0.7272727272727273
 40
0.7272727272727273
 40
0.7727272727272727
 40
0.7727272727272727
 40
0.7727272727272727
 40
0.8181818181818182
 40
0.8181818181818182
 40
0.8181818181818182
 40
0.8636363636363636
 40
0.8636363636363636
 40
0.8636363636363636
 40
0.9090909090909092
 40
0.9090909090909092
 40
0.9090909090909092
 40
0.9545454545454546
 40
0.9545454545454546
 40
0.9545454545454546
 40
1.0
 40
1.0
 40
1.0
 40
1.0
 10
-23.4701
 20
-58.0391
 30
0.0
 10
-23.5284
 20
-58.1237
 30
0.0
 10
-23.5943
 20
-58.1896
 30
0.0
 10
-23.6657
 20
-58.2385
 30
0.0
 10
-23.7372
 20
-58.2874
 30
0.0
 10
-23.8097
 20
-58.326
 30
0.0
 10
-23.8849
 20
-58.3542
 30
0.0
 10
-23.9593
 20
-58.3824
 30
0.0
 10
-24.0213
 20
-58.4022
 30
0.0
 10
-24.0703
 20
-58.4135
 30
0.0
 10
-24.0449
 20
-58.6393
 30
0.0
 10
-24.0326
 20
-58.8575
 30
0.0
 10
-24.0345
 20
-59.0664
 30
0.0
 10
-24.0364
 20
-59.2761
 30
0.0
 10
-24.043
 20
-59.469
 30
0.0
 10
-24.0543
 20
-59.644
 30
0.0
 10
-24.0646
 20
-59.8199
 30
0.0
 10
-24.0881
 20
-60.0146
 30
0.0
 10
-24.1229
 20
-60.23
 30
0.0
 10
-24.154
 20
-60.4285
 30
0.0
 10
-24.1954
 20
-60.5753
 30
0.0
 10
-24.2471
 20
-60.6713
 30
0.0
 10
-24.2509
 20
-60.6778
 30
0.0
 10
-24.2546
 20
-60.6816
 30
0.0
 10
-24.2593
 20
-60.6816
 30
0.0
 10
-24.2641
 20
-60.6816
 30
0.0
 10
-24.2669
 20
-60.6778
 30
0.0
 10
-24.2688
 20
-60.6713
 30
0.0
 10
-24.2706
 20
-60.1623
 30
0.0
 10
-24.3158
 20
-59.707
 30
0.0
 10
-24.4042
 20
-59.3062
 30
0.0
 10
-24.4625
 20
-59.0203
 30
0.0
 10
-24.5359
 20
-58.7813
 30
0.0
 10
-24.6215
 20
-58.5903
 30
0.0
 10
-24.7081
 20
-58.3984
 30
0.0
 10
-24.7805
 20
-58.2479
 30
0.0
 10
-24.8379
 20
-58.1379
 30
0.0
 10
-24.8962
 20
-58.0278
 30
0.0
 10
-24.931
 20
-57.9629
 30
0.0
 10
-24.9442
 20
-57.9422
 30
0.0
 10
-24.9207
 20
-57.8491
 30
0.0
 10
-24.8652
 20
-57.7023
 30
0.0
 10
-24.7786
 20
-57.5038
 30
0.0
 10
-24.6921
 20
-57.3053
 30
0.0
 10
-24.6422
 20
-57.1924
 30
0.0
 10
-24.6272
 20
-57.1651
 30
0.0
 10
-24.5284
 20
-57.2846
 30
0.0
 10
-24.4193
 20
-57.39
 30
0.0
 10
-24.3007
 20
-57.4803
 30
0.0
 10
-24.1822
 20
-57.5715
 30
0.0
 10
-24.0402
 20
-57.6167
 30
0.0
 10
-23.8746
 20
-57.6167
 30
0.0
 10
-23.71
 20
-57.6167
 30
0.0
 10
-23.5839
 20
-57.5875
 30
0.0
 10
-23.4974
 20
-57.5273
 30
0.0
 10
-23.4108
 20
-57.4681
 30
0.0
 10
-23.3431
 20
-57.3467
 30
0.0
 10
-23.2932
 20
-57.1651
 30
0.0
 10
-23.2716
 20
-57.1651
 30
0.0
 10
-23.2603
 20
-57.2216
 30
0.0
 10
-23.2603
 20
-57.3335
 30
0.0
 10
-23.2603
 20
-57.4455
 30
0.0
 10
-23.28
 20
-57.5706
 30
0.0
 10
-23.3186
 20
-57.7079
 30
0.0
 10
-23.3572
 20
-57.8462
 30
0.0
 10
-23.407
 20
-57.9563
 30
0.0
 10
-23.4701
 20
-58.0391
 30
0.0
  0
SPLINE
  5
72
330
1F
100
AcDbEntity
  8
Layer 1
 62
   230
100
AcDbSpline
210
0.0
220
0.0
230
1.0
 70
    11
 71
     3
 72
    44
 73
    40
 74
     0
 42
0.0000000001
 43
0.0000000001
 40
0.0
 40
0.0
 40
0.0
 40
0.0
 40
0.0769230769230769
 40
0.0769230769230769
 40
0.0769230769230769
 40
0.1538461538461539
 40
0.1538461538461539
 40
0.1538461538461539
 40
0.2307692307692308
 40
0.2307692307692308
 40
0.2307692307692308
 40
0.3076923076923077
 40
0.3076923076923077
 40
0.3076923076923077
 40
0.3846153846153846
 40
0.3846153846153846
 40
0.3846153846153846
 40
0.4615384615384616
 40
0.4615384615384616
 40
0.4615384615384616
 40
0.5384615384615385
 40
0.5384615384615385
 40
0.5384615384615385
 40
0.6153846153846154
 40
0.6153846153846154
 40
0.6153846153846154
 40
0.6923076923076923
 40
0.6923076923076923
 40
0.6923076923076923
 40
0.7692307692307693
 40
0.7692307692307693
 40
0.7692307692307693
 40
0.8461538461538463
 40
0.8461538461538463
 40
0.8461538461538463
 40
0.9230769230769231
 40
0.9230769230769231
 40
0.9230769230769231
 40
1.0
 40
1.0
 40
1.0
 40
1.0
 10
-25.614
 20
-59.2987
 30
0.0
 10
-25.614
 20
-59.6515
 30
0.0
 10
-25.7006
 20
-59.9695
 30
0.0
 10
-25.8746
 20
-60.2526
 30
0.0
 10
-26.0477
 20
-60.5348
 30
0.0
 10
-26.2594
 20
-60.676
 30
0.0
 10
-26.5068
 20
-60.676
 30
0.0
 10
-26.6009
 20
-60.6741
 30
0.0
 10
-26.6893
 20
-60.6459
 30
0.0
 10
-26.7711
 20
-60.5913
 30
0.0
 10
-26.8539
 20
-60.5358
 30
0.0
 10
-26.9207
 20
-60.4615
 30
0.0
 10
-26.9696
 20
-60.3665
 30
0.0
 10
-27.1314
 20
-60.58
 30
0.0
 10
-27.3064
 20
-60.6854
 30
0.0
 10
-27.4936
 20
-60.6816
 30
0.0
 10
-27.6902
 20
-60.6543
 30
0.0
 10
-27.8266
 20
-60.5762
 30
0.0
 10
-27.9019
 20
-60.4474
 30
0.0
 10
-27.9772
 20
-60.3185
 30
0.0
 10
-28.0138
 20
-60.1557
 30
0.0
 10
-28.012
 20
-59.9591
 30
0.0
 10
-28.0026
 20
-59.6609
 30
0.0
 10
-27.9226
 20
-59.3627
 30
0.0
 10
-27.7721
 20
-59.0626
 30
0.0
 10
-27.6216
 20
-58.7625
 30
0.0
 10
-27.408
 20
-58.4389
 30
0.0
 10
-27.1324
 20
-58.0918
 30
0.0
 10
-27.1324
 20
-58.0918
 30
0.0
 10
-27.2622
 20
-57.9873
 30
0.0
 10
-27.2622
 20
-57.9873
 30
0.0
 10
-27.1136
 20
-57.5988
 30
0.0
 10
-27.0082
 20
-57.3251
 30
0.0
 10
-26.948
 20
-57.1651
 30
0.0
 10
-26.5331
 20
-57.596
 30
0.0
 10
-26.2058
 20
-57.9563
 30
0.0
 10
-25.9668
 20
-58.246
 30
0.0
 10
-25.7279
 20
-58.5358
 30
0.0
 10
-25.6103
 20
-58.8867
 30
0.0
 10
-25.614
 20
-59.2987
 30
0.0
  0
SPLINE
  5
73
330
1F
100
AcDbEntity
  8
Layer 1
 62
   230
100
AcDbSpline
210
0.0
220
0.0
230
1.0
 70
    11
 71
     3
 72
    41
 73
    37
 74
     0
 42
0.0000000001
 43
0.0000000001
 40
0.0
 40
0.0
 40
0.0
 40
0.0
 40
0.0833333333333333
 40
0.0833333333333333
 40
0.0833333333333333
 40
0.1666666666666667
 40
0.1666666666666667
 40
0.1666666666666667
 40
0.25
 40
0.25
 40
0.25
 40
0.3333333333333333
 40
0.3333333333333333
 40
0.3333333333333333
 40
0.4166666666666666
 40
0.4166666666666666
 40
0.4166666666666666
 40
0.5
 40
0.5
 40
0.5
 40
0.5833333333333333
 40
0.5833333333333333
 40
0.5833333333333333
 40
0.6666666666666666
 40
0.6666666666666666
 40
0.6666666666666666
 40
0.75
 40
0.75
 40
0.75
 40
0.8333333333333333
 40
0.8333333333333333
 40
0.8333333333333333
 40
0.9166666666666666
 40
0.9166666666666666
 40
0.9166666666666666
 40
1.0
 40
1.0
 40
1.0
 40
1.0
 10
-25.9075
 20
-59.6167
 30
0.0
 10
-25.9075
 20
-59.3966
 30
0.0
 10
-26.0882
 20
-59.0936
 30
0.0
 10
-26.4503
 20
-58.7079
 30
0.0
 10
-26.7467
 20
-58.3984
 30
0.0
 10
-26.9292
 20
-58.2197
 30
0.0
 10
-26.9988
 20
-58.1698
 30
0.0
 10
-27.2029
 20
-58.4238
 30
0.0
 10
-27.361
 20
-58.6581
 30
0.0
 10
-27.4748
 20
-58.8726
 30
0.0
 10
-27.5877
 20
-59.088
 30
0.0
 10
-27.6526
 20
-59.2536
 30
0.0
 10
-27.6686
 20
-59.3693
 30
0.0
 10
-27.6921
 20
-59.5527
 30
0.0
 10
-27.6629
 20
-59.6995
 30
0.0
 10
-27.5792
 20
-59.8105
 30
0.0
 10
-27.4955
 20
-59.9205
 30
0.0
 10
-27.392
 20
-59.976
 30
0.0
 10
-27.2688
 20
-59.976
 30
0.0
 10
-27.1531
 20
-59.976
 30
0.0
 10
-27.0543
 20
-59.9403
 30
0.0
 10
-26.9725
 20
-59.8679
 30
0.0
 10
-26.8906
 20
-59.7954
 30
0.0
 10
-26.8248
 20
-59.6863
 30
0.0
 10
-26.773
 20
-59.5395
 30
0.0
 10
-26.7269
 20
-59.7079
 30
0.0
 10
-26.6601
 20
-59.818
 30
0.0
 10
-26.5736
 20
-59.8697
 30
0.0
 10
-26.4861
 20
-59.9215
 30
0.0
 10
-26.3817
 20
-59.9478
 30
0.0
 10
-26.2603
 20
-59.9478
 30
0.0
 10
-26.1775
 20
-59.9478
 30
0.0
 10
-26.1098
 20
-59.9347
 30
0.0
 10
-26.0562
 20
-59.9093
 30
0.0
 10
-25.9574
 20
-59.8575
 30
0.0
 10
-25.9075
 20
-59.7606
 30
0.0
 10
-25.9075
 20
-59.6167
 30
0.0
  0
SPLINE
  5
74
330
1F
100
AcDbEntity
  8
Layer 1
 62
   230
100
AcDbSpline
210
0.0
220
0.0
230
1.0
 70
    11
 71
     3
 72
    35
 73
    31
 74
     0
 42
0.0000000001
 43
0.0000000001
 40
0.0
 40
0.0
 40
0.0
 40
0.0
 40
0.1
 40
0.1
 40
0.1
 40
0.2
 40
0.2
 40
0.2
 40
0.3
 40
0.3
 40
0.3
 40
0.4
 40
0.4
 40
0.4
 40
0.5
 40
0.5
 40
0.5
 40
0.6000000000000001
 40
0.6000000000000001
 40
0.6000000000000001
 40
0.7000000000000001
 40
0.7000000000000001
 40
0.7000000000000001
 40
0.8
 40
0.8
 40
0.8
 40
0.9
 40
0.9
 40
0.9
 40
1.0
 40
1.0
 40
1.0
 40
1.0
 10
-28.5877
 20
-59.0588
 30
0.0
 10
-28.5529
 20
-59.5932
 30
0.0
 10
-28.567
 20
-60.0062
 30
0.0
 10
-28.6291
 20
-60.2978
 30
0.0
 10
-28.6921
 20
-60.5885
 30
0.0
 10
-28.7467
 20
-60.7211
 30
0.0
 10
-28.7946
 20
-60.6957
 30
0.0
 10
-28.7946
 20
-60.2141
 30
0.0
 10
-28.8276
 20
-59.8067
 30
0.0
 10
-28.8944
 20
-59.4718
 30
0.0
 10
-28.98
 20
-59.0748
 30
0.0
 10
-29.0665
 20
-58.7785
 30
0.0
 10
-29.1521
 20
-58.5819
 30
0.0
 10
-29.2368
 20
-58.3853
 30
0.0
 10
-29.3092
 20
-58.2348
 30
0.0
 10
-29.3666
 20
-58.1294
 30
0.0
 10
-29.4249
 20
-58.025
 30
0.0
 10
-29.4532
 20
-57.9535
 30
0.0
 10
-29.4532
 20
-57.9149
 30
0.0
 10
-29.4315
 20
-57.8396
 30
0.0
 10
-29.3807
 20
-57.7032
 30
0.0
 10
-29.3017
 20
-57.5057
 30
0.0
 10
-29.2227
 20
-57.3081
 30
0.0
 10
-29.1747
 20
-57.1943
 30
0.0
 10
-29.1587
 20
-57.1651
 30
0.0
 10
-29.091
 20
-57.1651
 30
0.0
 10
-28.9866
 20
-57.3665
 30
0.0
 10
-28.8473
 20
-57.7691
 30
0.0
 10
-28.7072
 20
-58.1708
 30
0.0
 10
-28.6216
 20
-58.6007
 30
0.0
 10
-28.5877
 20
-59.0588
 30
0.0
  0
SPLINE
  5
75
330
1F
100
AcDbEntity
  8
Layer 1
 62
   230
100
AcDbSpline
210
0.0
220
0.0
230
1.0
 70
    11
 71
     3
 72
   107
 73
   103
 74
     0
 42
0.0000000001
 43
0.0000000001
 40
0.0
 40
0.0
 40
0.0
 40
0.0
 40
0.0294117647058824
 40
0.0294117647058824
 40
0.0294117647058824
 40
0.0588235294117647
 40
0.0588235294117647
 40
0.0588235294117647
 40
0.0882352941176471
 40
0.0882352941176471
 40
0.0882352941176471
 40
0.1176470588235294
 40
0.1176470588235294
 40
0.1176470588235294
 40
0.1470588235294118
 40
0.1470588235294118
 40
0.1470588235294118
 40
0.1764705882352941
 40
0.1764705882352941
 40
0.1764705882352941
 40
0.2058823529411765
 40
0.2058823529411765
 40
0.2058823529411765
 40
0.2352941176470588
 40
0.2352941176470588
 40
0.2352941176470588
 40
0.2647058823529412
 40
0.2647058823529412
 40
0.2647058823529412
 40
0.2941176470588235
 40
0.2941176470588235
 40
0.2941176470588235
 40
0.3235294117647059
 40
0.3235294117647059
 40
0.3235294117647059
 40
0.3529411764705882
 40
0.3529411764705882
 40
0.3529411764705882
 40
0.3823529411764706
 40
0.3823529411764706
 40
0.3823529411764706
 40
0.4117647058823529
 40
0.4117647058823529
 40
0.4117647058823529
 40
0.4411764705882353
 40
0.4411764705882353
 40
0.4411764705882353
 40
0.4705882352941176
 40
0.4705882352941176
 40
0.4705882352941176
 40
0.5
 40
0.5
 40
0.5
 40
0.5294117647058824
 40
0.5294117647058824
 40
0.5294117647058824
 40
0.5588235294117647
 40
0.5588235294117647
 40
0.5588235294117647
 40
0.5882352941176471
 40
0.5882352941176471
 40
0.5882352941176471
 40
0.6176470588235294
 40
0.6176470588235294
 40
0.6176470588235294
 40
0.6470588235294118
 40
0.6470588235294118
 40
0.6470588235294118
 40
0.6764705882352942
 40
0.6764705882352942
 40
0.6764705882352942
 40
0.7058823529411764
 40
0.7058823529411764
 40
0.7058823529411764
 40
0.7352941176470588
 40
0.7352941176470588
 40
0.7352941176470588
 40
0.7647058823529411
 40
0.7647058823529411
 40
0.7647058823529411
 40
0.7941176470588235
 40
0.7941176470588235
 40
0.7941176470588235
 40
0.8235294117647058
 40
0.8235294117647058
 40
0.8235294117647058
 40
0.8529411764705882
 40
0.8529411764705882
 40
0.8529411764705882
 40
0.8823529411764706
 40
0.8823529411764706
 40
0.8823529411764706
 40
0.9117647058823529
 40
0.9117647058823529
 40
0.9117647058823529
 40
0.9411764705882353
 40
0.9411764705882353
 40
0.9411764705882353
 40
0.9705882352941176
 40
0.9705882352941176
 40
0.9705882352941176
 40
1.0
 40
1.0
 40
1.0
 40
1.0
 10
-30.1644
 20
-57.9582
 30
0.0
 10
-30.1719
 20
-57.992
 30
0.0
 10
-30.1776
 20
-58.0127
 30
0.0
 10
-30.1813
 20
-58.0221
 30
0.0
 10
-30.1851
 20
-58.0316
 30
0.0
 10
-30.1907
 20
-58.04
 30
0.0
 10
-30.2001
 20
-58.0494
 30
0.0
 10
-30.329
 20
-58.1595
 30
0.0
 10
-30.4428
 20
-58.2837
 30
0.0
 10
-30.5435
 20
-58.422
 30
0.0
 10
-30.6432
 20
-58.5593
 30
0.0
 10
-30.7316
 20
-58.7042
 30
0.0
 10
-30.8069
 20
-58.8575
 30
0.0
 10
-30.8822
 20
-59.0099
 30
0.0
 10
-30.9461
 20
-59.167
 30
0.0
 10
-30.9998
 20
-59.3279
 30
0.0
 10
-31.0524
 20
-59.4897
 30
0.0
 10
-31.0957
 20
-59.6496
 30
0.0
 10
-31.1286
 20
-59.8067
 30
0.0
 10
-31.1625
 20
-59.9638
 30
0.0
 10
-31.186
 20
-60.1153
 30
0.0
 10
-31.202
 20
-60.263
 30
0.0
 10
-31.218
 20
-60.4097
 30
0.0
 10
-31.2255
 20
-60.5443
 30
0.0
 10
-31.2255
 20
-60.6675
 30
0.0
 10
-31.2368
 20
-60.7004
 30
0.0
 10
-31.2547
 20
-60.7164
 30
0.0
 10
-31.281
 20
-60.7145
 30
0.0
 10
-31.3064
 20
-60.7126
 30
0.0
 10
-31.3234
 20
-60.6976
 30
0.0
 10
-31.3328
 20
-60.6675
 30
0.0
 10
-31.3328
 20
-60.5443
 30
0.0
 10
-31.3431
 20
-60.4097
 30
0.0
 10
-31.3648
 20
-60.2639
 30
0.0
 10
-31.3855
 20
-60.1181
 30
0.0
 10
-31.4174
 20
-59.9666
 30
0.0
 10
-31.4588
 20
-59.8105
 30
0.0
 10
-31.4993
 20
-59.6543
 30
0.0
 10
-31.552
 20
-59.4963
 30
0.0
 10
-31.6141
 20
-59.3354
 30
0.0
 10
-31.6761
 20
-59.1745
 30
0.0
 10
-31.7495
 20
-59.0174
 30
0.0
 10
-31.8332
 20
-58.865
 30
0.0
 10
-31.917
 20
-58.7126
 30
0.0
 10
-32.011
 20
-58.5678
 30
0.0
 10
-32.1155
 20
-58.4314
 30
0.0
 10
-32.2208
 20
-58.294
 30
0.0
 10
-32.3356
 20
-58.1698
 30
0.0
 10
-32.4598
 20
-58.0579
 30
0.0
 10
-32.4692
 20
-58.0504
 30
0.0
 10
-32.4776
 20
-58.0419
 30
0.0
 10
-32.4861
 20
-58.0316
 30
0.0
 10
-32.4946
 20
-58.0212
 30
0.0
 10
-32.4983
 20
-58.008
 30
0.0
 10
-32.4965
 20
-57.992
 30
0.0
 10
-32.4645
 20
-57.5264
 30
0.0
 10
-32.4447
 20
-57.2517
 30
0.0
 10
-32.4353
 20
-57.1651
 30
0.0
 10
-32.4315
 20
-57.1426
 30
0.0
 10
-32.4212
 20
-57.1426
 30
0.0
 10
-32.4052
 20
-57.1651
 30
0.0
 10
-32.2359
 20
-57.3194
 30
0.0
 10
-32.0882
 20
-57.484
 30
0.0
 10
-31.9612
 20
-57.6581
 30
0.0
 10
-31.8342
 20
-57.8331
 30
0.0
 10
-31.726
 20
-58.0099
 30
0.0
 10
-31.6347
 20
-58.1887
 30
0.0
 10
-31.5435
 20
-58.3674
 30
0.0
 10
-31.4692
 20
-58.5443
 30
0.0
 10
-31.4118
 20
-58.7183
 30
0.0
 10
-31.3535
 20
-58.8914
 30
0.0
 10
-31.3093
 20
-59.0551
 30
0.0
 10
-31.2782
 20
-59.2094
 30
0.0
 10
-31.2481
 20
-59.0551
 30
0.0
 10
-31.202
 20
-58.8904
 30
0.0
 10
-31.1371
 20
-58.7155
 30
0.0
 10
-31.0731
 20
-58.5396
 30
0.0
 10
-30.9913
 20
-58.3627
 30
0.0
 10
-30.8916
 20
-58.183
 30
0.0
 10
-30.7928
 20
-58.0043
 30
0.0
 10
-30.6743
 20
-57.8284
 30
0.0
 10
-30.5379
 20
-57.6553
 30
0.0
 10
-30.4005
 20
-57.4831
 30
0.0
 10
-30.2453
 20
-57.3232
 30
0.0
 10
-30.0703
 20
-57.1755
 30
0.0
 10
-30.0543
 20
-57.1614
 30
0.0
 10
-30.043
 20
-57.1548
 30
0.0
 10
-30.0374
 20
-57.1576
 30
0.0
 10
-30.0317
 20
-57.1604
 30
0.0
 10
-30.028
 20
-57.167
 30
0.0
 10
-30.0242
 20
-57.1755
 30
0.0
 10
-30.0242
 20
-57.1981
 30
0.0
 10
-30.028
 20
-57.2338
 30
0.0
 10
-30.0364
 20
-57.2837
 30
0.0
 10
-30.0449
 20
-57.3326
 30
0.0
 10
-30.0553
 20
-57.3919
 30
0.0
 10
-30.0675
 20
-57.4596
 30
0.0
 10
-30.0807
 20
-57.5273
 30
0.0
 10
-30.0957
 20
-57.6045
 30
0.0
 10
-30.1136
 20
-57.6901
 30
0.0
 10
-30.1305
 20
-57.7757
 30
0.0
 10
-30.1474
 20
-57.865
 30
0.0
 10
-30.1644
 20
-57.9582
 30
0.0
  0
SPLINE
  5
76
330
1F
100
AcDbEntity
  8
Layer 1
 62
   230
100
AcDbSpline
210
0.0
220
0.0
230
1.0
 70
    11
 71
     3
 72
    47
 73
    43
 74
     0
 42
0.0000000001
 43
0.0000000001
 40
0.0
 40
0.0
 40
0.0
 40
0.0
 40
0.0714285714285714
 40
0.0714285714285714
 40
0.0714285714285714
 40
0.1428571428571428
 40
0.1428571428571428
 40
0.1428571428571428
 40
0.2142857142857143
 40
0.2142857142857143
 40
0.2142857142857143
 40
0.2857142857142857
 40
0.2857142857142857
 40
0.2857142857142857
 40
0.3571428571428571
 40
0.3571428571428571
 40
0.3571428571428571
 40
0.4285714285714285
 40
0.4285714285714285
 40
0.4285714285714285
 40
0.5
 40
0.5
 40
0.5
 40
0.5714285714285714
 40
0.5714285714285714
 40
0.5714285714285714
 40
0.6428571428571428
 40
0.6428571428571428
 40
0.6428571428571428
 40
0.7142857142857142
 40
0.7142857142857142
 40
0.7142857142857142
 40
0.7857142857142857
 40
0.7857142857142857
 40
0.7857142857142857
 40
0.8571428571428571
 40
0.8571428571428571
 40
0.8571428571428571
 40
0.9285714285714285
 40
0.9285714285714285
 40
0.9285714285714285
 40
1.0
 40
1.0
 40
1.0
 40
1.0
 10
-37.3624
 20
-58.2115
 30
0.0
 10
-37.3624
 20
-58.2115
 30
0.0
 10
-37.3323
 20
-58.1771
 30
0.0
 10
-37.3323
 20
-58.1771
 30
0.0
 10
-37.2043
 20
-58.0328
 30
0.0
 10
-37.1951
 20
-57.7998
 30
0.0
 10
-37.3108
 20
-57.6422
 30
0.0
 10
-37.3108
 20
-57.6422
 30
0.0
 10
-37.6197
 20
-57.2226
 30
0.0
 10
-37.6197
 20
-57.2226
 30
0.0
 10
-37.7438
 20
-57.0539
 30
0.0
 10
-37.9648
 20
-57.0355
 30
0.0
 10
-38.1092
 20
-57.1811
 30
0.0
 10
-38.1092
 20
-57.1811
 30
0.0
 10
-38.3746
 20
-57.4497
 30
0.0
 10
-38.3746
 20
-57.4497
 30
0.0
 10
-38.4658
 20
-57.5416
 30
0.0
 10
-38.5075
 20
-57.6814
 30
0.0
 10
-38.4849
 20
-57.8192
 30
0.0
 10
-38.3648
 20
-58.5579
 30
0.0
 10
-37.8278
 20
-60.8458
 30
0.0
 10
-35.7883
 20
-60.8458
 30
0.0
 10
-35.7422
 20
-60.8458
 30
0.0
 10
-35.6108
 20
-60.7242
 30
0.0
 10
-35.4871
 20
-60.597
 30
0.0
 10
-35.3416
 20
-60.4486
 30
0.0
 10
-35.332
 20
-60.192
 30
0.0
 10
-35.466
 20
-60.0304
 30
0.0
 10
-35.466
 20
-60.0304
 30
0.0
 10
-35.8512
 20
-59.5666
 30
0.0
 10
-35.8512
 20
-59.5666
 30
0.0
 10
-35.9843
 20
-59.4063
 30
0.0
 10
-36.2049
 20
-59.4037
 30
0.0
 10
-36.3421
 20
-59.5604
 30
0.0
 10
-36.4639
 20
-59.7003
 30
0.0
 10
-36.6558
 20
-59.7161
 30
0.0
 10
-36.7926
 20
-59.5962
 30
0.0
 10
-36.9578
 20
-59.4527
 30
0.0
 10
-37.1815
 20
-59.1844
 30
0.0
 10
-37.4212
 20
-58.6863
 30
0.0
 10
-37.4956
 20
-58.5314
 30
0.0
 10
-37.4725
 20
-58.3354
 30
0.0
 10
-37.3624
 20
-58.2115
 30
0.0
  0
SPLINE
  5
77
330
1F
100
AcDbEntity
  8
Layer 1
 62
   250
370
    18
100
AcDbSpline
210
0.0
220
0.0
230
1.0
 70
    11
 71
     3
 72
    29
 73
    25
 74
     0
 42
0.0000000001
 43
0.0000000001
 40
0.0
 40
0.0
 40
0.0
 40
0.0
 40
0.125
 40
0.125
 40
0.125
 40
0.25
 40
0.25
 40
0.25
 40
0.375
 40
0.375
 40
0.375
 40
0.5
 40
0.5
 40
0.5
 40
0.625
 40
0.625
 40
0.625
 40
0.75
 40
0.75
 40
0.75
 40
0.875
 40
0.875
 40
0.875
 40
1.0
 40
1.0
 40
1.0
 40
1.0
 10
-40.8954
 20
-29.7531
 30
0.0
 10
-40.8954
 20
-29.7531
 30
0.0
 10
-6.8954
 20
-29.7531
 30
0.0
 10
-6.8954
 20
-29.7531
 30
0.0
 10
-5.2431
 20
-29.7531
 30
0.0
 10
-3.8954
 20
-31.1008
 30
0.0
 10
-3.8954
 20
-32.7531
 30
0.0
 10
-3.8954
 20
-32.7531
 30
0.0
 10
-3.8954
 20
-66.7531
 30
0.0
 10
-3.8954
 20
-66.7531
 30
0.0
 10
-3.8954
 20
-68.4054
 30
0.0
 10
-5.2431
 20
-69.7531
 30
0.0
 10
-6.8954
 20
-69.7531
 30
0.0
 10
-6.8954
 20
-69.7531
 30
0.0
 10
-40.8954
 20
-69.7531
 30
0.0
 10
-40.8954
 20
-69.7531
 30
0.0
 10
-42.5477
 20
-69.7531
 30
0.0
 10
-43.8954
 20
-68.4054
 30
0.0
 10
-43.8954
 20
-66.7531
 30
0.0
 10
-43.8954
 20
-66.7531
 30
0.0
 10
-43.8954
 20
-32.7531
 30
0.0
 10
-43.8954
 20
-32.7531
 30
0.0
 10
-43.8954
 20
-31.1008
 30
0.0
 10
-42.5477
 20
-29.7531
 30
0.0
 10
-40.8954
 20
-29.7531
 30
0.0
  0
ENDSEC
  0
SECTION
  2
OBJECTS
  0
DICTIONARY
  5
C
330
0
100
AcDbDictionary
281
     1
  3
ACAD_DETAILVIEWSTYLE
350
80
  3
ACAD_GROUP
350
D
  3
ACAD_LAYOUT
350
1A
  3
ACAD_MATERIAL
350
43
  3
ACAD_MLEADERSTYLE
350
5B
  3
ACAD_MLINESTYLE
350
17
  3
ACAD_PLOTSETTINGS
350
19
  3
ACAD_PLOTSTYLENAME
350
E
  3
ACAD_SCALELIST
350
47
  3
ACAD_SECTIONVIEWSTYLE
350
81
  3
ACAD_TABLESTYLE
350
59
  3
ACAD_VISUALSTYLE
350
2A
  3
ACDB_RECOMPOSE_DATA
350
7D
  3
AcDbVariableDictionary
350
79
  0
SUN
  5
5D
330
29
100
AcDbSun
 90
        1
290
     0
 63
     7
421
 16777215
 40
1.0
291
     1
 91
  2455826
 92
 54000000
292
     0
 70
     2
 71
   256
280
     1
  0
DICTIONARY
  5
80
102
{ACAD_REACTORS
330
C
102
}
330
C
100
AcDbDictionary
281
     1
  0
DICTIONARY
  5
D
102
{ACAD_REACTORS
330
C
102
}
330
C
100
AcDbDictionary
281
     1
  0
DICTIONARY
  5
1A
102
{ACAD_REACTORS
330
C
102
}
330
C
100
AcDbDictionary
281
     1
  3
Layout1
350
1E
  3
Layout2
350
26
  3
Model
350
22
  0
DICTIONARY
  5
43
102
{ACAD_REACTORS
330
C
102
}
330
C
100
AcDbDictionary
281
     1
  3
ByBlock
350
45
  3
ByLayer
350
44
  3
Global
350
46
  0
DICTIONARY
  5
5B
102
{ACAD_REACTORS
330
C
102
}
330
C
100
AcDbDictionary
281
     1
  3
Standard
350
5C
  0
DICTIONARY
  5
17
102
{ACAD_REACTORS
330
C
102
}
330
C
100
AcDbDictionary
281
     1
  3
Standard
350
18
  0
DICTIONARY
  5
19
102
{ACAD_REACTORS
330
C
102
}
330
C
100
AcDbDictionary
281
     1
  0
ACDBDICTIONARYWDFLT
  5
E
102
{ACAD_REACTORS
330
C
102
}
330
C
100
AcDbDictionary
281
     1
  3
Normal
350
F
100
AcDbDictionaryWithDefault
340
F
  0
DICTIONARY
  5
47
102
{ACAD_REACTORS
330
C
102
}
330
C
100
AcDbDictionary
281
     1
  3
A0
350
48
  3
A1
350
49
  3
A2
350
4A
  3
A3
350
4B
  3
A4
350
4C
  3
A5
350
4D
  3
A6
350
4E
  3
A7
350
4F
  3
A8
350
50
  3
A9
350
51
  3
B1
350
52
  3
B2
350
53
  3
B3
350
54
  3
B4
350
55
  3
B5
350
56
  3
B6
350
57
  3
B7
350
58
  0
DICTIONARY
  5
81
102
{ACAD_REACTORS
330
C
102
}
330
C
100
AcDbDictionary
281
     1
  0
DICTIONARY
  5
59
102
{ACAD_REACTORS
330
C
102
}
330
C
100
AcDbDictionary
281
     1
  3
Standard
350
5A
  0
DICTIONARY
  5
2A
102
{ACAD_REACTORS
330
C
102
}
330
C
100
AcDbDictionary
281
     1
  3
2dWireframe
350
2F
  3
Basic
350
32
  3
Brighten
350
36
  3
ColorChange
350
3A
  3
Conceptual
350
34
  3
Dim
350
35
  3
EdgeColorOff
350
3D
  3
Facepattern
350
39
  3
Flat
350
2B
  3
FlatWithEdges
350
2C
  3
Gouraud
350
2D
  3
GouraudWithEdges
350
2E
  3
Hidden
350
31
  3
JitterOff
350
3B
  3
Linepattern
350
38
  3
OverhangOff
350
3C
  3
Realistic
350
33
  3
Shaded
350
42
  3
Shaded with edges
350
41
  3
Shades of Gray
350
3E
  3
Sketchy
350
3F
  3
Thicken
350
37
  3
Wireframe
350
30
  3
X-Ray
350
40
  0
XRECORD
  5
7D
102
{ACAD_REACTORS
330
C
102
}
330
C
100
AcDbXrecord
280
     1
 90
        1
330
5A
  0
DICTIONARY
  5
79
102
{ACAD_REACTORS
330
C
102
}
330
C
100
AcDbDictionary
281
     1
  3
CANNOSCALE
350
7A
  3
CMLEADERSTYLE
350
7F
  3
CTABLESTYLE
350
7E
  0
LAYOUT
  5
1E
102
{ACAD_REACTORS
330
1A
102
}
330
1A
100
AcDbPlotSettings
  1

  2
none_device
  4

  6

 40
0.0
 41
0.0
 42
0.0
 43
0.0
 44
0.0
 45
0.0
 46
0.0
 47
0.0
 48
0.0
 49
0.0
140
0.0
141
0.0
142
1.0
143
1.0
 70
   688
 72
     0
 73
     0
 74
     5
  7

 75
    16
 76
     0
 77
     2
 78
   300
147
1.0
148
0.0
149
0.0
100
AcDbLayout
  1
Layout1
 70
     1
 71
     1
 10
0.0
 20
0.0
 11
12.0
 21
9.0
 12
0.0
 22
0.0
 32
0.0
 14
1.000000000000000E+20
 24
1.000000000000000E+20
 34
1.000000000000000E+20
 15
-1.000000000000000E+20
 25
-1.000000000000000E+20
 35
-1.000000000000000E+20
146
0.0
 13
0.0
 23
0.0
 33
0.0
 16
1.0
 26
0.0
 36
0.0
 17
0.0
 27
1.0
 37
0.0
 76
     0
330
1B
  0
LAYOUT
  5
26
102
{ACAD_REACTORS
330
1A
102
}
330
1A
100
AcDbPlotSettings
  1

  2
none_device
  4

  6

 40
0.0
 41
0.0
 42
0.0
 43
0.0
 44
0.0
 45
0.0
 46
0.0
 47
0.0
 48
0.0
 49
0.0
140
0.0
141
0.0
142
1.0
143
1.0
 70
   688
 72
     0
 73
     0
 74
     5
  7

 75
    16
 76
     0
 77
     2
 78
   300
147
1.0
148
0.0
149
0.0
100
AcDbLayout
  1
Layout2
 70
     1
 71
     2
 10
0.0
 20
0.0
 11
0.0
 21
0.0
 12
0.0
 22
0.0
 32
0.0
 14
0.0
 24
0.0
 34
0.0
 15
0.0
 25
0.0
 35
0.0
146
0.0
 13
0.0
 23
0.0
 33
0.0
 16
1.0
 26
0.0
 36
0.0
 17
0.0
 27
1.0
 37
0.0
 76
     0
330
23
  0
LAYOUT
  5
22
102
{ACAD_REACTORS
330
1A
102
}
330
1A
100
AcDbPlotSettings
  1

  2
none_device
  4
Letter_(8.50_x_11.00_Inches)
  6

 40
6.35
 41
6.35
 42
6.35000508
 43
6.35000508
 44
215.9
 45
279.4
 46
0.0
 47
0.0
 48
0.0
 49
0.0
140
0.0
141
0.0
142
1.0
143
1.0
 70
  1712
 72
     0
 73
     0
 74
     0
  7

 75
     0
 76
     0
 77
     2
 78
   300
147
1.0
148
0.0
149
0.0
100
AcDbLayout
  1
Model
 70
     1
 71
     0
 10
0.0
 20
0.0
 11
12.0
 21
9.0
 12
0.0
 22
0.0
 32
0.0
 14
-43.9836
 24
-69.8413
 34
0.0
 15
-3.8072
 25
-29.6649
 35
0.0
146
0.0
 13
0.0
 23
0.0
 33
0.0
 16
1.0
 26
0.0
 36
0.0
 17
0.0
 27
1.0
 37
0.0
 76
     0
330
1F
331
29
  0
MATERIAL
  5
45
102
{ACAD_REACTORS
330
43
102
}
330
43
100
AcDbMaterial
  1
ByBlock
 72
     1
 94
      127
  0
MATERIAL
  5
44
102
{ACAD_REACTORS
330
43
102
}
330
43
100
AcDbMaterial
  1
ByLayer
 72
     1
 94
      127
  0
MATERIAL
  5
46
102
{ACAD_REACTORS
330
43
102
}
330
43
100
AcDbMaterial
  1
Global
 72
     1
 94
      127
  0
MLEADERSTYLE
  5
5C
102
{ACAD_REACTORS
330
5B
102
}
330
5B
100
AcDbMLeaderStyle
179
     2
170
     2
171
     1
172
     0
 90
        2
 40
0.0
 41
0.0
173
     1
 91
-1056964608
340
14
 92
       -2
290
     1
 42
0.09
291
     1
 43
0.36
  3
Standard
341
0
 44
0.18
300

342
11
174
     1
178
     6
175
     1
176
     0
 93
-1056964608
 45
0.18
292
     0
297
     0
 46
0.18
343
0
 94
-1056964608
 47
1.0
 49
1.0
140
1.0
293
     1
141
0.0
294
     1
177
     0
142
1.0
295
     0
296
     0
143
0.125
271
     0
272
     9
273
     9
298
     0
  0
MLINESTYLE
  5
18
102
{ACAD_REACTORS
330
17
102
}
330
17
100
AcDbMlineStyle
  2
Standard
 70
     0
  3

 62
   256
 51
90.0
 52
90.0
 71
     2
 49
0.5
 62
   256
  6
BYLAYER
 49
-0.5
 62
   256
  6
BYLAYER
  0
ACDBPLACEHOLDER
  5
F
102
{ACAD_REACTORS
330
E
102
}
330
E
  0
SCALE
  5
48
102
{ACAD_REACTORS
330
47
102
}
330
47
100
AcDbScale
 70
     0
300
1:1
140
1.0
141
1.0
290
     1
  0
SCALE
  5
49
102
{ACAD_REACTORS
330
47
102
}
330
47
100
AcDbScale
 70
     0
300
1/128" = 1'-0"
140
0.0078125
141
12.0
290
     0
  0
SCALE
  5
4A
102
{ACAD_REACTORS
330
47
102
}
330
47
100
AcDbScale
 70
     0
300
1/64" = 1'-0"
140
0.015625
141
12.0
290
     0
  0
SCALE
  5
4B
102
{ACAD_REACTORS
330
47
102
}
330
47
100
AcDbScale
 70
     0
300
1/32" = 1'-0"
140
0.03125
141
12.0
290
     0
  0
SCALE
  5
4C
102
{ACAD_REACTORS
330
47
102
}
330
47
100
AcDbScale
 70
     0
300
1/16" = 1'-0"
140
0.0625
141
12.0
290
     0
  0
SCALE
  5
4D
102
{ACAD_REACTORS
330
47
102
}
330
47
100
AcDbScale
 70
     0
300
3/32" = 1'-0"
140
0.09375
141
12.0
290
     0
  0
SCALE
  5
4E
102
{ACAD_REACTORS
330
47
102
}
330
47
100
AcDbScale
 70
     0
300
1/8" = 1'-0"
140
0.125
141
12.0
290
     0
  0
SCALE
  5
4F
102
{ACAD_REACTORS
330
47
102
}
330
47
100
AcDbScale
 70
     0
300
3/16" = 1'-0"
140
0.1875
141
12.0
290
     0
  0
SCALE
  5
50
102
{ACAD_REACTORS
330
47
102
}
330
47
100
AcDbScale
 70
     0
300
1/4" = 1'-0"
140
0.25
141
12.0
290
     0
  0
SCALE
  5
51
102
{ACAD_REACTORS
330
47
102
}
330
47
100
AcDbScale
 70
     0
300
3/8" = 1'-0"
140
0.375
141
12.0
290
     0
  0
SCALE
  5
52
102
{ACAD_REACTORS
330
47
102
}
330
47
100
AcDbScale
 70
     0
300
1/2" = 1'-0"
140
0.5
141
12.0
290
     0
  0
SCALE
  5
53
102
{ACAD_REACTORS
330
47
102
}
330
47
100
AcDbScale
 70
     0
300
3/4" = 1'-0"
140
0.75
141
12.0
290
     0
  0
SCALE
  5
54
102
{ACAD_REACTORS
330
47
102
}
330
47
100
AcDbScale
 70
     0
300
1" = 1'-0"
140
1.0
141
12.0
290
     0
  0
SCALE
  5
55
102
{ACAD_REACTORS
330
47
102
}
330
47
100
AcDbScale
 70
     0
300
1-1/2" = 1'-0"
140
1.5
141
12.0
290
     0
  0
SCALE
  5
56
102
{ACAD_REACTORS
330
47
102
}
330
47
100
AcDbScale
 70
     0
300
3" = 1'-0"
140
3.0
141
12.0
290
     0
  0
SCALE
  5
57
102
{ACAD_REACTORS
330
47
102
}
330
47
100
AcDbScale
 70
     0
300
6" = 1'-0"
140
6.0
141
12.0
290
     0
  0
SCALE
  5
58
102
{ACAD_REACTORS
330
47
102
}
330
47
100
AcDbScale
 70
     0
300
1'-0" = 1'-0"
140
12.0
141
12.0
290
     0
  0
TABLESTYLE
  5
5A
102
{ACAD_REACTORS
330
59
102
}
102
{ACAD_XDICTIONARY
360
7B
102
}
330
59
100
AcDbTableStyle
  3
Standard
 70
     0
 71
     0
 40
0.06
 41
0.06
280
     0
281
     0
  7
Standard
140
0.18
170
     2
 62
     0
 63
   257
283
     0
 90
        4
 91
        0
  1

274
    -2
284
     1
 64
     0
275
    -2
285
     1
 65
     0
276
    -2
286
     1
 66
     0
277
    -2
287
     1
 67
     0
278
    -2
288
     1
 68
     0
279
    -2
289
     1
 69
     0
  7
Standard
140
0.25
170
     5
 62
     0
 63
   257
283
     0
 90
        4
 91
        0
  1

274
    -2
284
     1
 64
     0
275
    -2
285
     1
 65
     0
276
    -2
286
     1
 66
     0
277
    -2
287
     1
 67
     0
278
    -2
288
     1
 68
     0
279
    -2
289
     1
 69
     0
  7
Standard
140
0.18
170
     5
 62
     0
 63
   257
283
     0
 90
        4
 91
        0
  1

274
    -2
284
     1
 64
     0
275
    -2
285
     1
 65
     0
276
    -2
286
     1
 66
     0
277
    -2
287
     1
 67
     0
278
    -2
288
     1
 68
     0
279
    -2
289
     1
 69
     0
  0
VISUALSTYLE
  5
2F
102
{ACAD_REACTORS
330
2A
102
}
330
2A
100
AcDbVisualStyle
  2
2dWireframe
 70
     4
177
     3
291
     0
 70
    58
 90
        0
176
     1
 90
        2
176
     1
 90
        0
176
     1
 90
        0
176
     1
 40
0.6
176
     1
 40
30.0
176
     1
 62
     7
420
 16777215
176
     1
 90
        1
176
     1
 90
        4
176
     1
 62
     7
176
     1
 62
   257
176
     1
 90
        1
176
     1
 90
        1
176
     1
 40
1.0
176
     1
 90
        0
176
     1
 62
   257
176
     1
 40
1.0
176
     1
 90
        1
176
     1
 90
        6
176
     1
 90
        2
176
     1
 62
     7
176
     1
 90
        5
176
     1
 90
        0
176
     1
 90
        0
176
     1
290
     0
176
     1
 90
        1
176
     1
 40
0.0
176
     1
 90
        0
176
     1
290
     1
176
     1
290
     1
176
     1
290
     0
176
     1
290
     0
176
     1
290
     0
176
     1
290
     0
176
     1
290
     0
176
     1
290
     0
176
     1
290
     0
176
     1
 90
       50
176
     1
 40
0.0
176
     1
 40
1.0
176
     1
 90
        0
176
     1
 62
    18
420
        0
176
     1
 90
       50
176
     1
 90
        3
176
     1
 62
     5
420
      255
176
     1
290
     0
176
     1
 90
       50
176
     1
 90
       50
176
     1
 90
       50
176
     1
290
     0
176
     1
 90
       50
176
     1
 62
   256
176
     0
 40
1.0
176
     0
 90
        2
176
     1
  1
strokes_ogs.tif
176
     1
290
     0
176
     1
 40
1.0
176
     1
 40
1.0
176
     1
  0
VISUALSTYLE
  5
32
102
{ACAD_REACTORS
330
2A
102
}
330
2A
100
AcDbVisualStyle
  2
Basic
 70
     7
177
     3
291
     1
 70
    58
 90
        1
176
     1
 90
        0
176
     1
 90
        1
176
     1
 90
        0
176
     1
 40
0.6
176
     1
 40
30.0
176
     1
 62
     7
420
 16777215
176
     1
 90
        0
176
     1
 90
        4
176
     1
 62
     7
176
     1
 62
   257
176
     1
 90
        1
176
     1
 90
        1
176
     1
 40
1.0
176
     1
 90
        8
176
     1
 62
     7
176
     1
 40
1.0
176
     1
 90
        1
176
     1
 90
        6
176
     1
 90
        2
176
     1
 62
     7
176
     1
 90
        5
176
     1
 90
        0
176
     1
 90
        0
176
     1
290
     0
176
     1
 90
        1
176
     1
 40
0.0
176
     1
 90
        0
176
     1
290
     0
176
     1
290
     1
176
     1
290
     1
176
     1
290
     0
176
     1
290
     0
176
     1
290
     0
176
     1
290
     0
176
     1
290
     0
176
     1
290
     0
176
     1
 90
       50
176
     1
 40
0.0
176
     1
 40
1.0
176
     1
 90
        0
176
     1
 62
    18
420
        0
176
     1
 90
       50
176
     1
 90
        3
176
     1
 62
     5
420
      255
176
     1
290
     0
176
     1
 90
       50
176
     1
 90
       50
176
     1
 90
       50
176
     1
290
     0
176
     1
 90
       50
176
     1
 62
   256
176
     0
 40
1.0
176
     0
 90
        2
176
     1
  1
strokes_ogs.tif
176
     1
290
     0
176
     1
 40
1.0
176
     1
 40
1.0
176
     1
  0
VISUALSTYLE
  5
36
102
{ACAD_REACTORS
330
2A
102
}
330
2A
100
AcDbVisualStyle
  2
Brighten
 70
    12
177
     3
291
     1
 70
    58
 90
        2
176
     1
 90
        2
176
     1
 90
        0
176
     1
 90
        0
176
     1
 40
0.6
176
     1
 40
30.0
176
     1
 62
     7
420
 16777215
176
     1
 90
        1
176
     1
 90
        4
176
     1
 62
     7
176
     1
 62
   257
176
     1
 90
        1
176
     1
 90
        1
176
     1
 40
1.0
176
     1
 90
        8
176
     1
 62
     7
176
     1
 40
1.0
176
     1
 90
        1
176
     1
 90
        6
176
     1
 90
        2
176
     1
 62
     7
176
     1
 90
        5
176
     1
 90
        0
176
     1
 90
        0
176
     1
290
     0
176
     1
 90
        1
176
     1
 40
50.0
176
     1
 90
        0
176
     1
290
     0
176
     1
290
     1
176
     1
290
     1
176
     1
290
     0
176
     1
290
     0
176
     1
290
     0
176
     1
290
     0
176
     1
290
     0
176
     1
290
     0
176
     1
 90
       50
176
     1
 40
0.0
176
     1
 40
1.0
176
     1
 90
        0
176
     1
 62
    18
420
        0
176
     1
 90
       50
176
     1
 90
        3
176
     1
 62
     5
420
      255
176
     1
290
     0
176
     1
 90
       50
176
     1
 90
       50
176
     1
 90
       50
176
     1
290
     0
176
     1
 90
       50
176
     1
 62
   256
176
     0
 40
1.0
176
     0
 90
        2
176
     1
  1
strokes_ogs.tif
176
     1
290
     0
176
     1
 40
1.0
176
     1
 40
1.0
176
     1
  0
VISUALSTYLE
  5
3A
102
{ACAD_REACTORS
330
2A
102
}
330
2A
100
AcDbVisualStyle
  2
ColorChange
 70
    16
177
     3
291
     1
 70
    58
 90
        2
176
     1
 90
        2
176
     1
 90
        3
176
     1
 90
        0
176
     1
 40
0.6
176
     1
 40
30.0
176
     1
 62
     8
420
  8421504
176
     1
 90
        1
176
     1
 90
        4
176
     1
 62
     7
176
     1
 62
   257
176
     1
 90
        1
176
     1
 90
        1
176
     1
 40
1.0
176
     1
 90
        8
176
     1
 62
     8
420
  8421504
176
     1
 40
1.0
176
     1
 90
        1
176
     1
 90
        6
176
     1
 90
        2
176
     1
 62
     7
176
     1
 90
        5
176
     1
 90
        0
176
     1
 90
        0
176
     1
290
     0
176
     1
 90
        1
176
     1
 40
0.0
176
     1
 90
        0
176
     1
290
     0
176
     1
290
     1
176
     1
290
     1
176
     1
290
     0
176
     1
290
     0
176
     1
290
     0
176
     1
290
     0
176
     1
290
     0
176
     1
290
     0
176
     1
 90
       50
176
     1
 40
0.0
176
     1
 40
1.0
176
     1
 90
        0
176
     1
 62
    18
420
        0
176
     1
 90
       50
176
     1
 90
        3
176
     1
 62
     5
420
      255
176
     1
290
     0
176
     1
 90
       50
176
     1
 90
       50
176
     1
 90
       50
176
     1
290
     0
176
     1
 90
       50
176
     1
 62
   256
176
     0
 40
1.0
176
     0
 90
        2
176
     1
  1
strokes_ogs.tif
176
     1
290
     0
176
     1
 40
1.0
176
     1
 40
1.0
176
     1
  0
VISUALSTYLE
  5
34
102
{ACAD_REACTORS
330
2A
102
}
330
2A
100
AcDbVisualStyle
  2
Conceptual
 70
     9
177
     3
291
     0
 70
    58
 90
        3
176
     1
 90
        2
176
     1
 90
        0
176
     1
 90
        0
176
     1
 40
0.6
176
     1
 40
30.0
176
     1
 62
     7
420
 16777215
176
     1
 90
        2
176
     1
 90
        2
176
     1
 62
     7
176
     1
 62
   257
176
     1
 90
        1
176
     1
 90
        1
176
     1
 40
179.0
176
     1
 90
        8
176
     1
 62
     7
176
     1
 40
1.0
176
     1
 90
        1
176
     1
 90
        6
176
     1
 90
        2
176
     1
 62
     7
176
     1
 90
        3
176
     1
 90
        0
176
     1
 90
        0
176
     1
290
     0
176
     1
 90
        1
176
     1
 40
0.0
176
     1
 90
        0
176
     1
290
     0
176
     1
290
     1
176
     1
290
     1
176
     1
290
     0
176
     1
290
     0
176
     1
290
     0
176
     1
290
     0
176
     1
290
     0
176
     1
290
     0
176
     1
 90
       50
176
     1
 40
0.0
176
     1
 40
1.0
176
     1
 90
        0
176
     1
 62
    18
420
        0
176
     1
 90
       50
176
     1
 90
        3
176
     1
 62
     5
420
      255
176
     1
290
     0
176
     1
 90
       50
176
     1
 90
       50
176
     1
 90
       50
176
     1
290
     0
176
     1
 90
       50
176
     1
 62
   256
176
     0
 40
1.0
176
     0
 90
        2
176
     1
  1
strokes_ogs.tif
176
     1
290
     0
176
     1
 40
1.0
176
     1
 40
1.0
176
     1
  0
VISUALSTYLE
  5
35
102
{ACAD_REACTORS
330
2A
102
}
330
2A
100
AcDbVisualStyle
  2
Dim
 70
    11
177
     3
291
     1
 70
    58
 90
        2
176
     1
 90
        2
176
     1
 90
        0
176
     1
 90
        0
176
     1
 40
0.6
176
     1
 40
30.0
176
     1
 62
     7
420
 16777215
176
     1
 90
        1
176
     1
 90
        4
176
     1
 62
     7
176
     1
 62
   257
176
     1
 90
        1
176
     1
 90
        1
176
     1
 40
1.0
176
     1
 90
        8
176
     1
 62
     7
176
     1
 40
1.0
176
     1
 90
        1
176
     1
 90
        6
176
     1
 90
        2
176
     1
 62
     7
176
     1
 90
        5
176
     1
 90
        0
176
     1
 90
        0
176
     1
290
     0
176
     1
 90
        1
176
     1
 40
-50.0
176
     1
 90
        0
176
     1
290
     0
176
     1
290
     1
176
     1
290
     1
176
     1
290
     0
176
     1
290
     0
176
     1
290
     0
176
     1
290
     0
176
     1
290
     0
176
     1
290
     0
176
     1
 90
       50
176
     1
 40
0.0
176
     1
 40
1.0
176
     1
 90
        0
176
     1
 62
    18
420
        0
176
     1
 90
       50
176
     1
 90
        3
176
     1
 62
     5
420
      255
176
     1
290
     0
176
     1
 90
       50
176
     1
 90
       50
176
     1
 90
       50
176
     1
290
     0
176
     1
 90
       50
176
     1
 62
   256
176
     0
 40
1.0
176
     0
 90
        2
176
     1
  1
strokes_ogs.tif
176
     1
290
     0
176
     1
 40
1.0
176
     1
 40
1.0
176
     1
  0
VISUALSTYLE
  5
3D
102
{ACAD_REACTORS
330
2A
102
}
330
2A
100
AcDbVisualStyle
  2
EdgeColorOff
 70
    22
177
     3
291
     1
 70
    58
 90
        2
176
     0
 90
        2
176
     0
 90
        0
176
     0
 90
        0
176
     0
 40
0.6
176
     0
 40
30.0
176
     0
 62
     7
420
 16777215
176
     0
 90
        1
176
     0
 90
        4
176
     0
 62
     7
176
     0
 62
   257
176
     0
 90
        1
176
     0
 90
        1
176
     0
 40
1.0
176
     0
 90
        8
176
     2
 62
     7
176
     0
 40
1.0
176
     0
 90
        1
176
     0
 90
        6
176
     0
 90
        2
176
     0
 62
     7
176
     0
 90
        5
176
     0
 90
        0
176
     0
 90
        0
176
     0
290
     0
176
     0
 90
        1
176
     0
 40
0.0
176
     0
 90
        0
176
     0
290
     0
176
     0
290
     1
176
     0
290
     1
176
     0
290
     0
176
     0
290
     0
176
     0
290
     0
176
     0
290
     0
176
     0
290
     0
176
     0
290
     0
176
     0
 90
       50
176
     0
 40
0.0
176
     0
 40
1.0
176
     0
 90
        0
176
     0
 62
    18
420
        0
176
     0
 90
       50
176
     0
 90
        3
176
     0
 62
     5
420
      255
176
     0
290
     0
176
     0
 90
       50
176
     0
 90
       50
176
     0
 90
       50
176
     0
290
     0
176
     0
 90
       50
176
     0
 62
   256
176
     0
 40
1.0
176
     0
 90
        2
176
     0
  1
strokes_ogs.tif
176
     0
290
     0
176
     0
 40
1.0
176
     0
 40
1.0
176
     0
  0
VISUALSTYLE
  5
39
102
{ACAD_REACTORS
330
2A
102
}
330
2A
100
AcDbVisualStyle
  2
Facepattern
 70
    15
177
     3
291
     1
 70
    58
 90
        2
176
     1
 90
        2
176
     1
 90
        0
176
     1
 90
        0
176
     1
 40
0.6
176
     1
 40
30.0
176
     1
 62
     7
420
 16777215
176
     1
 90
        1
176
     1
 90
        4
176
     1
 62
     7
176
     1
 62
   257
176
     1
 90
        1
176
     1
 90
        1
176
     1
 40
1.0
176
     1
 90
        8
176
     1
 62
     7
176
     1
 40
1.0
176
     1
 90
        1
176
     1
 90
        6
176
     1
 90
        2
176
     1
 62
     7
176
     1
 90
        5
176
     1
 90
        0
176
     1
 90
        0
176
     1
290
     0
176
     1
 90
        1
176
     1
 40
0.0
176
     1
 90
        0
176
     1
290
     0
176
     1
290
     1
176
     1
290
     1
176
     1
290
     0
176
     1
290
     0
176
     1
290
     0
176
     1
290
     0
176
     1
290
     0
176
     1
290
     0
176
     1
 90
       50
176
     1
 40
0.0
176
     1
 40
1.0
176
     1
 90
        0
176
     1
 62
    18
420
        0
176
     1
 90
       50
176
     1
 90
        3
176
     1
 62
     5
420
      255
176
     1
290
     0
176
     1
 90
       50
176
     1
 90
       50
176
     1
 90
       50
176
     1
290
     0
176
     1
 90
       50
176
     1
 62
   256
176
     0
 40
1.0
176
     0
 90
        2
176
     1
  1
strokes_ogs.tif
176
     1
290
     0
176
     1
 40
1.0
176
     1
 40
1.0
176
     1
  0
VISUALSTYLE
  5
2B
102
{ACAD_REACTORS
330
2A
102
}
330
2A
100
AcDbVisualStyle
  2
Flat
 70
     0
177
     3
291
     1
 70
    58
 90
        2
176
     1
 90
        1
176
     1
 90
        1
176
     1
 90
        2
176
     1
 40
0.6
176
     1
 40
30.0
176
     1
 62
     7
420
 16777215
176
     1
 90
        0
176
     1
 90
        0
176
     1
 62
     7
176
     1
 62
   257
176
     1
 90
        1
176
     1
 90
        1
176
     1
 40
1.0
176
     1
 90
        8
176
     1
 62
     7
176
     1
 40
1.0
176
     1
 90
        1
176
     1
 90
        6
176
     1
 90
        2
176
     1
 62
     7
176
     1
 90
        5
176
     1
 90
        0
176
     1
 90
        0
176
     1
290
     0
176
     1
 90
       13
176
     1
 40
0.0
176
     1
 90
        0
176
     1
290
     0
176
     1
290
     1
176
     1
290
     1
176
     1
290
     0
176
     1
290
     0
176
     1
290
     0
176
     1
290
     0
176
     1
290
     0
176
     1
290
     0
176
     1
 90
       50
176
     1
 40
0.0
176
     1
 40
1.0
176
     1
 90
        0
176
     1
 62
    18
420
        0
176
     1
 90
       50
176
     1
 90
        3
176
     1
 62
     5
420
      255
176
     1
290
     0
176
     1
 90
       50
176
     1
 90
       50
176
     1
 90
       50
176
     1
290
     0
176
     1
 90
       50
176
     1
 62
   256
176
     0
 40
1.0
176
     0
 90
        2
176
     1
  1
strokes_ogs.tif
176
     1
290
     0
176
     1
 40
1.0
176
     1
 40
1.0
176
     1
  0
VISUALSTYLE
  5
2C
102
{ACAD_REACTORS
330
2A
102
}
330
2A
100
AcDbVisualStyle
  2
FlatWithEdges
 70
     1
177
     3
291
     1
 70
    58
 90
        2
176
     1
 90
        1
176
     1
 90
        1
176
     1
 90
        2
176
     1
 40
0.6
176
     1
 40
30.0
176
     1
 62
     7
420
 16777215
176
     1
 90
        1
176
     1
 90
        0
176
     1
 62
     7
176
     1
 62
   257
176
     1
 90
        1
176
     1
 90
        1
176
     1
 40
1.0
176
     1
 90
        0
176
     1
 62
   257
176
     1
 40
1.0
176
     1
 90
        1
176
     1
 90
        6
176
     1
 90
        2
176
     1
 62
     7
176
     1
 90
        5
176
     1
 90
        0
176
     1
 90
        0
176
     1
290
     0
176
     1
 90
       13
176
     1
 40
0.0
176
     1
 90
        0
176
     1
290
     0
176
     1
290
     1
176
     1
290
     1
176
     1
290
     0
176
     1
290
     0
176
     1
290
     0
176
     1
290
     0
176
     1
290
     0
176
     1
290
     0
176
     1
 90
       50
176
     1
 40
0.0
176
     1
 40
1.0
176
     1
 90
        0
176
     1
 62
    18
420
        0
176
     1
 90
       50
176
     1
 90
        3
176
     1
 62
     5
420
      255
176
     1
290
     0
176
     1
 90
       50
176
     1
 90
       50
176
     1
 90
       50
176
     1
290
     0
176
     1
 90
       50
176
     1
 62
   256
176
     0
 40
1.0
176
     0
 90
        2
176
     1
  1
strokes_ogs.tif
176
     1
290
     0
176
     1
 40
1.0
176
     1
 40
1.0
176
     1
  0
VISUALSTYLE
  5
2D
102
{ACAD_REACTORS
330
2A
102
}
330
2A
100
AcDbVisualStyle
  2
Gouraud
 70
     2
177
     3
291
     1
 70
    58
 90
        2
176
     1
 90
        2
176
     1
 90
        1
176
     1
 90
        2
176
     1
 40
0.6
176
     1
 40
30.0
176
     1
 62
     7
420
 16777215
176
     1
 90
        0
176
     1
 90
        0
176
     1
 62
     7
176
     1
 62
   257
176
     1
 90
        1
176
     1
 90
        1
176
     1
 40
1.0
176
     1
 90
        0
176
     1
 62
     7
176
     1
 40
1.0
176
     1
 90
        1
176
     1
 90
        6
176
     1
 90
        2
176
     1
 62
     7
176
     1
 90
        5
176
     1
 90
        0
176
     1
 90
        0
176
     1
290
     0
176
     1
 90
       13
176
     1
 40
0.0
176
     1
 90
        0
176
     1
290
     0
176
     1
290
     1
176
     1
290
     1
176
     1
290
     0
176
     1
290
     0
176
     1
290
     0
176
     1
290
     0
176
     1
290
     0
176
     1
290
     0
176
     1
 90
       50
176
     1
 40
0.0
176
     1
 40
1.0
176
     1
 90
        0
176
     1
 62
    18
420
        0
176
     1
 90
       50
176
     1
 90
        3
176
     1
 62
     5
420
      255
176
     1
290
     0
176
     1
 90
       50
176
     1
 90
       50
176
     1
 90
       50
176
     1
290
     0
176
     1
 90
       50
176
     1
 62
   256
176
     0
 40
1.0
176
     0
 90
        2
176
     1
  1
strokes_ogs.tif
176
     1
290
     0
176
     1
 40
1.0
176
     1
 40
1.0
176
     1
  0
VISUALSTYLE
  5
2E
102
{ACAD_REACTORS
330
2A
102
}
330
2A
100
AcDbVisualStyle
  2
GouraudWithEdges
 70
     3
177
     3
291
     1
 70
    58
 90
        2
176
     1
 90
        2
176
     1
 90
        1
176
     1
 90
        2
176
     1
 40
0.6
176
     1
 40
30.0
176
     1
 62
     7
420
 16777215
176
     1
 90
        1
176
     1
 90
        0
176
     1
 62
     7
176
     1
 62
   257
176
     1
 90
        1
176
     1
 90
        1
176
     1
 40
1.0
176
     1
 90
        0
176
     1
 62
   257
176
     1
 40
1.0
176
     1
 90
        1
176
     1
 90
        6
176
     1
 90
        2
176
     1
 62
     7
176
     1
 90
        5
176
     1
 90
        0
176
     1
 90
        0
176
     1
290
     0
176
     1
 90
       13
176
     1
 40
0.0
176
     1
 90
        0
176
     1
290
     0
176
     1
290
     1
176
     1
290
     1
176
     1
290
     0
176
     1
290
     0
176
     1
290
     0
176
     1
290
     0
176
     1
290
     0
176
     1
290
     0
176
     1
 90
       50
176
     1
 40
0.0
176
     1
 40
1.0
176
     1
 90
        0
176
     1
 62
    18
420
        0
176
     1
 90
       50
176
     1
 90
        3
176
     1
 62
     5
420
      255
176
     1
290
     0
176
     1
 90
       50
176
     1
 90
       50
176
     1
 90
       50
176
     1
290
     0
176
     1
 90
       50
176
     1
 62
   256
176
     0
 40
1.0
176
     0
 90
        2
176
     1
  1
strokes_ogs.tif
176
     1
290
     0
176
     1
 40
1.0
176
     1
 40
1.0
176
     1
  0
VISUALSTYLE
  5
31
102
{ACAD_REACTORS
330
2A
102
}
330
2A
100
AcDbVisualStyle
  2
Hidden
 70
     6
177
     3
291
     0
 70
    58
 90
        1
176
     1
 90
        2
176
     1
 90
        2
176
     1
 90
        0
176
     1
 40
0.6
176
     1
 40
30.0
176
     1
 62
     7
420
 16777215
176
     1
 90
        2
176
     1
 90
        2
176
     1
 62
     7
176
     1
 62
   257
176
     1
 90
        2
176
     1
 90
        1
176
     1
 40
40.0
176
     1
 90
        0
176
     1
 62
   257
176
     1
 40
1.0
176
     1
 90
        1
176
     1
 90
        6
176
     1
 90
        2
176
     1
 62
     7
176
     1
 90
        3
176
     1
 90
        0
176
     1
 90
        0
176
     1
290
     0
176
     1
 90
        1
176
     1
 40
0.0
176
     1
 90
        0
176
     1
290
     0
176
     1
290
     1
176
     1
290
     1
176
     1
290
     0
176
     1
290
     0
176
     1
290
     0
176
     1
290
     0
176
     1
290
     0
176
     1
290
     0
176
     1
 90
       50
176
     1
 40
0.0
176
     1
 40
1.0
176
     1
 90
        0
176
     1
 62
    18
420
        0
176
     1
 90
       50
176
     1
 90
        3
176
     1
 62
     5
420
      255
176
     1
290
     0
176
     1
 90
       50
176
     1
 90
       50
176
     1
 90
       50
176
     1
290
     0
176
     1
 90
       50
176
     1
 62
   256
176
     0
 40
1.0
176
     0
 90
        2
176
     1
  1
strokes_ogs.tif
176
     1
290
     0
176
     1
 40
1.0
176
     1
 40
1.0
176
     1
  0
VISUALSTYLE
  5
3B
102
{ACAD_REACTORS
330
2A
102
}
330
2A
100
AcDbVisualStyle
  2
JitterOff
 70
    20
177
     3
291
     1
 70
    58
 90
        2
176
     0
 90
        2
176
     0
 90
        0
176
     0
 90
        0
176
     0
 40
0.6
176
     0
 40
30.0
176
     0
 62
     7
420
 16777215
176
     0
 90
        1
176
     0
 90
        4
176
     0
 62
     7
176
     0
 62
   257
176
     0
 90
        1
176
     0
 90
        1
176
     0
 40
1.0
176
     0
 90
       10
176
     2
 62
     7
176
     0
 40
1.0
176
     0
 90
        1
176
     0
 90
        6
176
     0
 90
        2
176
     0
 62
     7
176
     0
 90
        5
176
     0
 90
        0
176
     0
 90
        0
176
     0
290
     0
176
     0
 90
        1
176
     0
 40
0.0
176
     0
 90
        0
176
     0
290
     0
176
     0
290
     1
176
     0
290
     1
176
     0
290
     0
176
     0
290
     0
176
     0
290
     0
176
     0
290
     0
176
     0
290
     0
176
     0
290
     0
176
     0
 90
       50
176
     0
 40
0.0
176
     0
 40
1.0
176
     0
 90
        0
176
     0
 62
    18
420
        0
176
     0
 90
       50
176
     0
 90
        3
176
     0
 62
     5
420
      255
176
     0
290
     0
176
     0
 90
       50
176
     0
 90
       50
176
     0
 90
       50
176
     0
290
     0
176
     0
 90
       50
176
     0
 62
   256
176
     0
 40
1.0
176
     0
 90
        2
176
     0
  1
strokes_ogs.tif
176
     0
290
     0
176
     0
 40
1.0
176
     0
 40
1.0
176
     0
  0
VISUALSTYLE
  5
38
102
{ACAD_REACTORS
330
2A
102
}
330
2A
100
AcDbVisualStyle
  2
Linepattern
 70
    14
177
     3
291
     1
 70
    58
 90
        2
176
     1
 90
        2
176
     1
 90
        0
176
     1
 90
        0
176
     1
 40
0.6
176
     1
 40
30.0
176
     1
 62
     7
420
 16777215
176
     1
 90
        1
176
     1
 90
        4
176
     1
 62
     7
176
     1
 62
   257
176
     1
 90
        7
176
     1
 90
        7
176
     1
 40
1.0
176
     1
 90
        8
176
     1
 62
     7
176
     1
 40
1.0
176
     1
 90
        1
176
     1
 90
        6
176
     1
 90
        2
176
     1
 62
     7
176
     1
 90
        5
176
     1
 90
        0
176
     1
 90
        0
176
     1
290
     0
176
     1
 90
        1
176
     1
 40
0.0
176
     1
 90
        0
176
     1
290
     0
176
     1
290
     1
176
     1
290
     1
176
     1
290
     0
176
     1
290
     0
176
     1
290
     0
176
     1
290
     0
176
     1
290
     0
176
     1
290
     0
176
     1
 90
       50
176
     1
 40
0.0
176
     1
 40
1.0
176
     1
 90
        0
176
     1
 62
    18
420
        0
176
     1
 90
       50
176
     1
 90
        3
176
     1
 62
     5
420
      255
176
     1
290
     0
176
     1
 90
       50
176
     1
 90
       50
176
     1
 90
       50
176
     1
290
     0
176
     1
 90
       50
176
     1
 62
   256
176
     0
 40
1.0
176
     0
 90
        2
176
     1
  1
strokes_ogs.tif
176
     1
290
     0
176
     1
 40
1.0
176
     1
 40
1.0
176
     1
  0
VISUALSTYLE
  5
3C
102
{ACAD_REACTORS
330
2A
102
}
330
2A
100
AcDbVisualStyle
  2
OverhangOff
 70
    21
177
     3
291
     1
 70
    58
 90
        2
176
     0
 90
        2
176
     0
 90
        0
176
     0
 90
        0
176
     0
 40
0.6
176
     0
 40
30.0
176
     0
 62
     7
420
 16777215
176
     0
 90
        1
176
     0
 90
        4
176
     0
 62
     7
176
     0
 62
   257
176
     0
 90
        1
176
     0
 90
        1
176
     0
 40
1.0
176
     0
 90
        9
176
     2
 62
     7
176
     0
 40
1.0
176
     0
 90
        1
176
     0
 90
        6
176
     0
 90
        2
176
     0
 62
     7
176
     0
 90
        5
176
     0
 90
        0
176
     0
 90
        0
176
     0
290
     0
176
     0
 90
        1
176
     0
 40
0.0
176
     0
 90
        0
176
     0
290
     0
176
     0
290
     1
176
     0
290
     1
176
     0
290
     0
176
     0
290
     0
176
     0
290
     0
176
     0
290
     0
176
     0
290
     0
176
     0
290
     0
176
     0
 90
       50
176
     0
 40
0.0
176
     0
 40
1.0
176
     0
 90
        0
176
     0
 62
    18
420
        0
176
     0
 90
       50
176
     0
 90
        3
176
     0
 62
     5
420
      255
176
     0
290
     0
176
     0
 90
       50
176
     0
 90
       50
176
     0
 90
       50
176
     0
290
     0
176
     0
 90
       50
176
     0
 62
   256
176
     0
 40
1.0
176
     0
 90
        2
176
     0
  1
strokes_ogs.tif
176
     0
290
     0
176
     0
 40
1.0
176
     0
 40
1.0
176
     0
  0
VISUALSTYLE
  5
33
102
{ACAD_REACTORS
330
2A
102
}
330
2A
100
AcDbVisualStyle
  2
Realistic
 70
     8
177
     3
291
     0
 70
    58
 90
        2
176
     1
 90
        3
176
     1
 90
        0
176
     1
 90
        2
176
     1
 40
0.6
176
     1
 40
30.0
176
     1
 62
     7
420
 16777215
176
     1
 90
        0
176
     1
 90
        0
176
     1
 62
     7
176
     1
 62
   257
176
     1
 90
        1
176
     1
 90
        1
176
     1
 40
1.0
176
     1
 90
        8
176
     1
 62
   257
176
     1
 40
1.0
176
     1
 90
        1
176
     1
 90
        6
176
     1
 90
        2
176
     1
 62
     7
176
     1
 90
        3
176
     1
 90
        0
176
     1
 90
        0
176
     1
290
     0
176
     1
 90
       13
176
     1
 40
0.0
176
     1
 90
        0
176
     1
290
     0
176
     1
290
     1
176
     1
290
     1
176
     1
290
     0
176
     1
290
     0
176
     1
290
     0
176
     1
290
     0
176
     1
290
     0
176
     1
290
     0
176
     1
 90
       50
176
     1
 40
0.0
176
     1
 40
1.0
176
     1
 90
        0
176
     1
 62
    18
420
        0
176
     1
 90
       50
176
     1
 90
        3
176
     1
 62
     5
420
      255
176
     1
290
     0
176
     1
 90
       50
176
     1
 90
       50
176
     1
 90
       50
176
     1
290
     0
176
     1
 90
       50
176
     1
 62
   256
176
     0
 40
1.0
176
     0
 90
        2
176
     1
  1
strokes_ogs.tif
176
     1
290
     0
176
     1
 40
1.0
176
     1
 40
1.0
176
     1
  0
VISUALSTYLE
  5
42
102
{ACAD_REACTORS
330
2A
102
}
330
2A
100
AcDbVisualStyle
  2
Shaded
 70
    27
177
     3
291
     0
 70
    58
 90
        2
176
     1
 90
        2
176
     1
 90
        1
176
     1
 90
        2
176
     1
 40
0.6
176
     1
 40
30.0
176
     1
 62
     7
420
 16777215
176
     1
 90
        0
176
     1
 90
        4
176
     1
 62
     7
176
     1
 62
   257
176
     1
 90
        1
176
     1
 90
        1
176
     1
 40
1.0
176
     1
 90
        8
176
     1
 62
   257
176
     1
 40
1.0
176
     1
 90
        1
176
     1
 90
        6
176
     1
 90
        2
176
     1
 62
     8
420
  7895160
176
     1
 90
        3
176
     1
 90
        0
176
     1
 90
        0
176
     1
290
     0
176
     1
 90
        5
176
     1
 40
0.0
176
     1
 90
        0
176
     1
290
     0
176
     1
290
     1
176
     1
290
     1
176
     1
290
     0
176
     1
290
     0
176
     1
290
     0
176
     1
290
     0
176
     1
290
     0
176
     1
290
     0
176
     1
 90
       50
176
     1
 40
0.0
176
     1
 40
1.0
176
     1
 90
        0
176
     1
 62
    18
420
        0
176
     1
 90
       50
176
     1
 90
        3
176
     1
 62
     5
420
      255
176
     1
290
     0
176
     1
 90
       50
176
     1
 90
       50
176
     1
 90
       50
176
     1
290
     0
176
     1
 90
       50
176
     1
 62
   256
176
     0
 40
1.0
176
     0
 90
        2
176
     1
  1
strokes_ogs.tif
176
     1
290
     0
176
     1
 40
1.0
176
     1
 40
1.0
176
     1
  0
VISUALSTYLE
  5
41
102
{ACAD_REACTORS
330
2A
102
}
330
2A
100
AcDbVisualStyle
  2
Shaded with edges
 70
    26
177
     3
291
     0
 70
    58
 90
        2
176
     1
 90
        2
176
     1
 90
        1
176
     1
 90
        2
176
     1
 40
0.6
176
     1
 40
30.0
176
     1
 62
     7
420
 16777215
176
     1
 90
        1
176
     1
 90
       10
176
     1
 62
     7
176
     1
 62
   257
176
     1
 90
        2
176
     1
 90
        1
176
     1
 40
1.0
176
     1
 90
        8
176
     1
 62
   257
176
     1
 40
1.0
176
     1
 90
        1
176
     1
 90
        6
176
     1
 90
        2
176
     1
 62
     7
176
     1
 90
        3
176
     1
 90
        0
176
     1
 90
        0
176
     1
290
     0
176
     1
 90
        5
176
     1
 40
0.0
176
     1
 90
        0
176
     1
290
     0
176
     1
290
     1
176
     1
290
     1
176
     1
290
     0
176
     1
290
     0
176
     1
290
     0
176
     1
290
     0
176
     1
290
     0
176
     1
290
     0
176
     1
 90
       50
176
     1
 40
0.0
176
     1
 40
1.0
176
     1
 90
        0
176
     1
 62
    18
420
        0
176
     1
 90
       50
176
     1
 90
        3
176
     1
 62
     5
420
      255
176
     1
290
     0
176
     1
 90
       50
176
     1
 90
       50
176
     1
 90
       50
176
     1
290
     0
176
     1
 90
       50
176
     1
 62
   256
176
     0
 40
1.0
176
     0
 90
        2
176
     1
  1
strokes_ogs.tif
176
     1
290
     0
176
     1
 40
1.0
176
     1
 40
1.0
176
     1
  0
VISUALSTYLE
  5
3E
102
{ACAD_REACTORS
330
2A
102
}
330
2A
100
AcDbVisualStyle
  2
Shades of Gray
 70
    23
177
     3
291
     0
 70
    58
 90
        2
176
     1
 90
        2
176
     1
 90
        3
176
     1
 90
        0
176
     1
 40
0.6
176
     1
 40
30.0
176
     1
 62
     7
420
 16777215
176
     1
 90
        2
176
     1
 90
        2
176
     1
 62
     7
176
     1
 62
     7
176
     1
 90
        1
176
     1
 90
        1
176
     1
 40
40.0
176
     1
 90
        8
176
     1
 62
     7
176
     1
 40
1.0
176
     1
 90
        1
176
     1
 90
        6
176
     1
 90
        2
176
     1
 62
     7
176
     1
 90
        3
176
     1
 90
        0
176
     1
 90
        0
176
     1
290
     0
176
     1
 90
        1
176
     1
 40
0.0
176
     1
 90
        0
176
     1
290
     0
176
     1
290
     1
176
     1
290
     1
176
     1
290
     0
176
     1
290
     0
176
     1
290
     0
176
     1
290
     0
176
     1
290
     0
176
     1
290
     0
176
     1
 90
       50
176
     1
 40
0.0
176
     1
 40
1.0
176
     1
 90
        0
176
     1
 62
    18
420
        0
176
     1
 90
       50
176
     1
 90
        3
176
     1
 62
     5
420
      255
176
     1
290
     0
176
     1
 90
       50
176
     1
 90
       50
176
     1
 90
       50
176
     1
290
     0
176
     1
 90
       50
176
     1
 62
   256
176
     0
 40
1.0
176
     0
 90
        2
176
     1
  1
strokes_ogs.tif
176
     1
290
     0
176
     1
 40
1.0
176
     1
 40
1.0
176
     1
  0
VISUALSTYLE
  5
3F
102
{ACAD_REACTORS
330
2A
102
}
330
2A
100
AcDbVisualStyle
  2
Sketchy
 70
    24
177
     3
291
     0
 70
    58
 90
        1
176
     1
 90
        2
176
     1
 90
        2
176
     1
 90
        0
176
     1
 40
0.6
176
     1
 40
30.0
176
     1
 62
     7
420
 16777215
176
     1
 90
        2
176
     1
 90
        2
176
     1
 62
     7
176
     1
 62
     7
176
     1
 90
        1
176
     1
 90
        1
176
     1
 40
40.0
176
     1
 90
       11
176
     1
 62
     7
176
     1
 40
1.0
176
     1
 90
        1
176
     1
 90
        6
176
     1
 90
        2
176
     1
 62
     7
176
     1
 90
        6
176
     1
 90
        0
176
     1
 90
        0
176
     1
290
     0
176
     1
 90
        1
176
     1
 40
0.0
176
     1
 90
        0
176
     1
290
     0
176
     1
290
     1
176
     1
290
     1
176
     1
290
     0
176
     1
290
     0
176
     1
290
     0
176
     1
290
     0
176
     1
290
     0
176
     1
290
     0
176
     1
 90
       50
176
     1
 40
0.0
176
     1
 40
1.0
176
     1
 90
        0
176
     1
 62
    18
420
        0
176
     1
 90
       50
176
     1
 90
        3
176
     1
 62
     5
420
      255
176
     1
290
     0
176
     1
 90
       50
176
     1
 90
       50
176
     1
 90
       50
176
     1
290
     0
176
     1
 90
       50
176
     1
 62
   256
176
     0
 40
1.0
176
     0
 90
        2
176
     1
  1
strokes_ogs.tif
176
     1
290
     0
176
     1
 40
1.0
176
     1
 40
1.0
176
     1
  0
VISUALSTYLE
  5
37
102
{ACAD_REACTORS
330
2A
102
}
330
2A
100
AcDbVisualStyle
  2
Thicken
 70
    13
177
     3
291
     1
 70
    58
 90
        2
176
     1
 90
        2
176
     1
 90
        0
176
     1
 90
        0
176
     1
 40
0.6
176
     1
 40
30.0
176
     1
 62
     7
420
 16777215
176
     1
 90
        1
176
     1
 90
        4
176
     1
 62
     7
176
     1
 62
   257
176
     1
 90
        1
176
     1
 90
        1
176
     1
 40
1.0
176
     1
 90
       12
176
     1
 62
     7
176
     1
 40
1.0
176
     1
 90
        1
176
     1
 90
        6
176
     1
 90
        2
176
     1
 62
     7
176
     1
 90
        5
176
     1
 90
        0
176
     1
 90
        0
176
     1
290
     0
176
     1
 90
        1
176
     1
 40
0.0
176
     1
 90
        0
176
     1
290
     0
176
     1
290
     1
176
     1
290
     1
176
     1
290
     0
176
     1
290
     0
176
     1
290
     0
176
     1
290
     0
176
     1
290
     0
176
     1
290
     0
176
     1
 90
       50
176
     1
 40
0.0
176
     1
 40
1.0
176
     1
 90
        0
176
     1
 62
    18
420
        0
176
     1
 90
       50
176
     1
 90
        3
176
     1
 62
     5
420
      255
176
     1
290
     0
176
     1
 90
       50
176
     1
 90
       50
176
     1
 90
       50
176
     1
290
     0
176
     1
 90
       50
176
     1
 62
   256
176
     0
 40
1.0
176
     0
 90
        2
176
     1
  1
strokes_ogs.tif
176
     1
290
     0
176
     1
 40
1.0
176
     1
 40
1.0
176
     1
  0
VISUALSTYLE
  5
30
102
{ACAD_REACTORS
330
2A
102
}
330
2A
100
AcDbVisualStyle
  2
Wireframe
 70
     5
177
     3
291
     0
 70
    58
 90
        0
176
     1
 90
        2
176
     1
 90
        0
176
     1
 90
        0
176
     1
 40
0.6
176
     1
 40
30.0
176
     1
 62
     7
420
 16777215
176
     1
 90
        1
176
     1
 90
        4
176
     1
 62
     7
176
     1
 62
   257
176
     1
 90
        1
176
     1
 90
        1
176
     1
 40
1.0
176
     1
 90
        0
176
     1
 62
   257
176
     1
 40
1.0
176
     1
 90
        1
176
     1
 90
        6
176
     1
 90
        2
176
     1
 62
     7
176
     1
 90
        3
176
     1
 90
        0
176
     1
 90
        0
176
     1
290
     0
176
     1
 90
        1
176
     1
 40
0.0
176
     1
 90
        0
176
     1
290
     0
176
     1
290
     1
176
     1
290
     1
176
     1
290
     0
176
     1
290
     0
176
     1
290
     0
176
     1
290
     0
176
     1
290
     0
176
     1
290
     0
176
     1
 90
       50
176
     1
 40
0.0
176
     1
 40
1.0
176
     1
 90
        0
176
     1
 62
    18
420
        0
176
     1
 90
       50
176
     1
 90
        3
176
     1
 62
     5
420
      255
176
     1
290
     0
176
     1
 90
       50
176
     1
 90
       50
176
     1
 90
       50
176
     1
290
     0
176
     1
 90
       50
176
     1
 62
   256
176
     0
 40
1.0
176
     0
 90
        2
176
     1
  1
strokes_ogs.tif
176
     1
290
     0
176
     1
 40
1.0
176
     1
 40
1.0
176
     1
  0
VISUALSTYLE
  5
40
102
{ACAD_REACTORS
330
2A
102
}
330
2A
100
AcDbVisualStyle
  2
X-Ray
 70
    25
177
     3
291
     0
 70
    58
 90
        2
176
     1
 90
        2
176
     1
 90
        1
176
     1
 90
        1
176
     1
 40
0.5
176
     1
 40
30.0
176
     1
 62
     7
420
 16777215
176
     1
 90
        1
176
     1
 90
        0
176
     1
 62
     7
176
     1
 62
   257
176
     1
 90
        1
176
     1
 90
        1
176
     1
 40
1.0
176
     1
 90
        8
176
     1
 62
     7
176
     1
 40
1.0
176
     1
 90
        1
176
     1
 90
        6
176
     1
 90
        2
176
     1
 62
     7
176
     1
 90
        3
176
     1
 90
        0
176
     1
 90
        0
176
     1
290
     0
176
     1
 90
       13
176
     1
 40
0.0
176
     1
 90
        0
176
     1
290
     0
176
     1
290
     1
176
     1
290
     1
176
     1
290
     0
176
     1
290
     0
176
     1
290
     0
176
     1
290
     0
176
     1
290
     0
176
     1
290
     0
176
     1
 90
       50
176
     1
 40
0.0
176
     1
 40
1.0
176
     1
 90
        0
176
     1
 62
    18
420
        0
176
     1
 90
       50
176
     1
 90
        3
176
     1
 62
     5
420
      255
176
     1
290
     0
176
     1
 90
       50
176
     1
 90
       50
176
     1
 90
       50
176
     1
290
     0
176
     1
 90
       50
176
     1
 62
   256
176
     0
 40
1.0
176
     0
 90
        2
176
     1
  1
strokes_ogs.tif
176
     1
290
     0
176
     1
 40
1.0
176
     1
 40
1.0
176
     1
  0
DICTIONARYVAR
  5
7A
102
{ACAD_REACTORS
330
79
102
}
330
79
100
DictionaryVariables
280
     0
  1
1:1
  0
DICTIONARYVAR
  5
7F
102
{ACAD_REACTORS
330
79
102
}
330
79
100
DictionaryVariables
280
     0
  1
Standard
  0
DICTIONARYVAR
  5
7E
102
{ACAD_REACTORS
330
79
102
}
330
79
100
DictionaryVariables
280
     0
  1
Standard
  0
DICTIONARY
  5
7B
330
5A
100
AcDbDictionary
280
     1
281
     1
  3
ACAD_ROUNDTRIP_2008_TABLESTYLE_CELLSTYLEMAP
360
7C
  0
CELLSTYLEMAP
  5
7C
102
{ACAD_REACTORS
330
7B
102
}
330
7B
100
AcDbCellStyleMap
 90
        3
300
CELLSTYLE
  1
TABLEFORMAT_BEGIN
 90
        5
170
     1
 91
        0
 92
    32768
 62
   257
 93
        1
300
CONTENTFORMAT
  1
CONTENTFORMAT_BEGIN
 90
        0
 91
        0
 92
        4
 93
        0
300

 40
0.0
140
1.0
 94
        5
 62
     0
340
11
144
0.25
309
CONTENTFORMAT_END
171
     1
301
MARGIN
  1
CELLMARGIN_BEGIN
 40
0.06
 40
0.06
 40
0.06
 40
0.06
 40
0.06
 40
0.06
309
CELLMARGIN_END
 94
        6
 95
        1
302
GRIDFORMAT
  1
GRIDFORMAT_BEGIN
 90
        0
 91
        1
 62
     0
 92
       -2
340
14
 93
        0
 40
0.045
309
GRIDFORMAT_END
 95
        2
302
GRIDFORMAT
  1
GRIDFORMAT_BEGIN
 90
        0
 91
        1
 62
     0
 92
       -2
340
14
 93
        0
 40
0.045
309
GRIDFORMAT_END
 95
        4
302
GRIDFORMAT
  1
GRIDFORMAT_BEGIN
 90
        0
 91
        1
 62
     0
 92
       -2
340
14
 93
        0
 40
0.045
309
GRIDFORMAT_END
 95
        8
302
GRIDFORMAT
  1
GRIDFORMAT_BEGIN
 90
        0
 91
        1
 62
     0
 92
       -2
340
14
 93
        0
 40
0.045
309
GRIDFORMAT_END
 95
       16
302
GRIDFORMAT
  1
GRIDFORMAT_BEGIN
 90
        0
 91
        1
 62
     0
 92
       -2
340
14
 93
        0
 40
0.045
309
GRIDFORMAT_END
 95
       32
302
GRIDFORMAT
  1
GRIDFORMAT_BEGIN
 90
        0
 91
        1
 62
     0
 92
       -2
340
14
 93
        0
 40
0.045
309
GRIDFORMAT_END
309
TABLEFORMAT_END
  1
CELLSTYLE_BEGIN
 90
        1
 91
        1
300
_TITLE
309
CELLSTYLE_END
300
CELLSTYLE
  1
TABLEFORMAT_BEGIN
 90
        5
170
     1
 91
        0
 92
        0
 62
   257
 93
        1
300
CONTENTFORMAT
  1
CONTENTFORMAT_BEGIN
 90
        0
 91
        0
 92
        4
 93
        0
300

 40
0.0
140
1.0
 94
        5
 62
     0
340
11
144
0.18
309
CONTENTFORMAT_END
171
     1
301
MARGIN
  1
CELLMARGIN_BEGIN
 40
0.06
 40
0.06
 40
0.06
 40
0.06
 40
0.06
 40
0.06
309
CELLMARGIN_END
 94
        6
 95
        1
302
GRIDFORMAT
  1
GRIDFORMAT_BEGIN
 90
        0
 91
        1
 62
     0
 92
       -2
340
14
 93
        0
 40
0.045
309
GRIDFORMAT_END
 95
        2
302
GRIDFORMAT
  1
GRIDFORMAT_BEGIN
 90
        0
 91
        1
 62
     0
 92
       -2
340
14
 93
        0
 40
0.045
309
GRIDFORMAT_END
 95
        4
302
GRIDFORMAT
  1
GRIDFORMAT_BEGIN
 90
        0
 91
        1
 62
     0
 92
       -2
340
14
 93
        0
 40
0.045
309
GRIDFORMAT_END
 95
        8
302
GRIDFORMAT
  1
GRIDFORMAT_BEGIN
 90
        0
 91
        1
 62
     0
 92
       -2
340
14
 93
        0
 40
0.045
309
GRIDFORMAT_END
 95
       16
302
GRIDFORMAT
  1
GRIDFORMAT_BEGIN
 90
        0
 91
        1
 62
     0
 92
       -2
340
14
 93
        0
 40
0.045
309
GRIDFORMAT_END
 95
       32
302
GRIDFORMAT
  1
GRIDFORMAT_BEGIN
 90
        0
 91
        1
 62
     0
 92
       -2
340
14
 93
        0
 40
0.045
309
GRIDFORMAT_END
309
TABLEFORMAT_END
  1
CELLSTYLE_BEGIN
 90
        2
 91
        1
300
_HEADER
309
CELLSTYLE_END
300
CELLSTYLE
  1
TABLEFORMAT_BEGIN
 90
        5
170
     1
 91
        0
 92
        0
 62
   257
 93
        1
300
CONTENTFORMAT
  1
CONTENTFORMAT_BEGIN
 90
        0
 91
        0
 92
        4
 93
        0
300

 40
0.0
140
1.0
 94
        2
 62
     0
340
11
144
0.18
309
CONTENTFORMAT_END
171
     1
301
MARGIN
  1
CELLMARGIN_BEGIN
 40
0.06
 40
0.06
 40
0.06
 40
0.06
 40
0.06
 40
0.06
309
CELLMARGIN_END
 94
        6
 95
        1
302
GRIDFORMAT
  1
GRIDFORMAT_BEGIN
 90
        0
 91
        1
 62
     0
 92
       -2
340
14
 93
        0
 40
0.045
309
GRIDFORMAT_END
 95
        2
302
GRIDFORMAT
  1
GRIDFORMAT_BEGIN
 90
        0
 91
        1
 62
     0
 92
       -2
340
14
 93
        0
 40
0.045
309
GRIDFORMAT_END
 95
        4
302
GRIDFORMAT
  1
GRIDFORMAT_BEGIN
 90
        0
 91
        1
 62
     0
 92
       -2
340
14
 93
        0
 40
0.045
309
GRIDFORMAT_END
 95
        8
302
GRIDFORMAT
  1
GRIDFORMAT_BEGIN
 90
        0
 91
        1
 62
     0
 92
       -2
340
14
 93
        0
 40
0.045
309
GRIDFORMAT_END
 95
       16
302
GRIDFORMAT
  1
GRIDFORMAT_BEGIN
 90
        0
 91
        1
 62
     0
 92
       -2
340
14
 93
        0
 40
0.045
309
GRIDFORMAT_END
 95
       32
302
GRIDFORMAT
  1
GRIDFORMAT_BEGIN
 90
        0
 91
        1
 62
     0
 92
       -2
340
14
 93
        0
 40
0.045
309
GRIDFORMAT_END
309
TABLEFORMAT_END
  1
CELLSTYLE_BEGIN
 90
        3
 91
        2
300
_DATA
309
CELLSTYLE_END
  0
ENDSEC
  0
EOF
