  0
SECTION
  2
HEADER
  9
$ACADVER
  1
AC1032
  9
$ACADMAINTVER
 90
       55
  9
$DWGCODEPAGE
  3
UNDEFINED
  9
$LASTSAVEDBY
  1
Administrator
  9
$REQUIREDVERSIONS
160
                 0
  9
$INSBASE
 10
0.0
 20
0.0
 30
0.0
  9
$EXTMIN
 10
-44.8903
 20
15.8512
 30
0.0
  9
$EXTMAX
 10
5.2861
 20
116.0276
 30
0.0
  9
$LIMMIN
 10
0.0
 20
0.0
  9
$LIMMAX
 10
12.0
 20
9.0
  9
$ORTHOMODE
 70
     0
  9
$REGENMODE
 70
     1
  9
$FILLMODE
 70
     1
  9
$QTEXTMODE
 70
     0
  9
$MIRRTEXT
 70
     1
  9
$LTSCALE
 40
1.0
  9
$ATTMODE
 70
     1
  9
$TEXTSIZE
 40
0.2
  9
$TRACEWID
 40
0.05
  9
$TEXTSTYLE
  7
Standard
  9
$CLAYER
  8
0
  9
$CELTYPE
  6
ByLayer
  9
$CECOLOR
 62
   256
  9
$CELTSCALE
 40
1.0
  9
$DISPSILH
 70
     0
  9
$DIMSCALE
 40
1.0
  9
$DIMASZ
 40
0.18
  9
$DIMEXO
 40
0.0625
  9
$DIMDLI
 40
0.38
  9
$DIMRND
 40
0.0
  9
$DIMDLE
 40
0.0
  9
$DIMEXE
 40
0.18
  9
$DIMTP
 40
0.0
  9
$DIMTM
 40
0.0
  9
$DIMTXT
 40
0.18
  9
$DIMCEN
 40
0.09
  9
$DIMTSZ
 40
0.0
  9
$DIMTOL
 70
     0
  9
$DIMLIM
 70
     0
  9
$DIMTIH
 70
     1
  9
$DIMTOH
 70
     1
  9
$DIMSE1
 70
     0
  9
$DIMSE2
 70
     0
  9
$DIMTAD
 70
     0
  9
$DIMZIN
 70
     0
  9
$DIMBLK
  1

  9
$DIMASO
 70
     1
  9
$DIMSHO
 70
     1
  9
$DIMPOST
  1

  9
$DIMAPOST
  1

  9
$DIMALT
 70
     0
  9
$DIMALTD
 70
     2
  9
$DIMALTF
 40
25.4
  9
$DIMLFAC
 40
1.0
  9
$DIMTOFL
 70
     0
  9
$DIMTVP
 40
0.0
  9
$DIMTIX
 70
     0
  9
$DIMSOXD
 70
     0
  9
$DIMSAH
 70
     0
  9
$DIMBLK1
  1

  9
$DIMBLK2
  1

  9
$DIMSTYLE
  2
Standard
  9
$DIMCLRD
 70
     0
  9
$DIMCLRE
 70
     0
  9
$DIMCLRT
 70
     0
  9
$DIMTFAC
 40
1.0
  9
$DIMGAP
 40
0.09
  9
$DIMJUST
 70
     0
  9
$DIMSD1
 70
     0
  9
$DIMSD2
 70
     0
  9
$DIMTOLJ
 70
     1
  9
$DIMTZIN
 70
     0
  9
$DIMALTZ
 70
     0
  9
$DIMALTTZ
 70
     0
  9
$DIMUPT
 70
     0
  9
$DIMDEC
 70
     4
  9
$DIMTDEC
 70
     4
  9
$DIMALTU
 70
     2
  9
$DIMALTTD
 70
     2
  9
$DIMTXSTY
  7
Standard
  9
$DIMAUNIT
 70
     0
  9
$DIMADEC
 70
     0
  9
$DIMALTRND
 40
0.0
  9
$DIMAZIN
 70
     0
  9
$DIMDSEP
 70
    46
  9
$DIMATFIT
 70
     3
  9
$DIMFRAC
 70
     0
  9
$DIMLDRBLK
  1

  9
$DIMLUNIT
 70
     2
  9
$DIMLWD
 70
    -2
  9
$DIMLWE
 70
    -2
  9
$DIMTMOVE
 70
     0
  9
$DIMFXL
 40
1.0
  9
$DIMFXLON
 70
     0
  9
$DIMJOGANG
 40
0.7853981633974483
  9
$DIMTFILL
 70
     0
  9
$DIMTFILLCLR
 70
     0
  9
$DIMARCSYM
 70
     0
  9
$DIMLTYPE
  6

  9
$DIMLTEX1
  6

  9
$DIMLTEX2
  6

  9
$DIMTXTDIRECTION
 70
     0
  9
$LUNITS
 70
     2
  9
$LUPREC
 70
     4
  9
$SKETCHINC
 40
0.1
  9
$FILLETRAD
 40
0.0
  9
$AUNITS
 70
     0
  9
$AUPREC
 70
     0
  9
$MENU
  1
.
  9
$ELEVATION
 40
0.0
  9
$PELEVATION
 40
0.0
  9
$THICKNESS
 40
0.0
  9
$LIMCHECK
 70
     0
  9
$CHAMFERA
 40
0.0
  9
$CHAMFERB
 40
0.0
  9
$CHAMFERC
 40
0.0
  9
$CHAMFERD
 40
0.0
  9
$SKPOLY
 70
     0
  9
$TDCREATE
 40
2460361.586509282
  9
$TDUCREATE
 40
2460361.440675949
  9
$TDUPDATE
 40
2460361.586509502
  9
$TDUUPDATE
 40
2460361.440676169
  9
$TDINDWG
 40
0.0000000116
  9
$TDUSRTIMER
 40
0.0000000116
  9
$USRTIMER
 70
     1
  9
$ANGBASE
 50
0.0
  9
$ANGDIR
 70
     0
  9
$PDMODE
 70
     0
  9
$PDSIZE
 40
0.0
  9
$PLINEWID
 40
0.0
  9
$SPLFRAME
 70
     0
  9
$SPLINETYPE
 70
     6
  9
$SPLINESEGS
 70
     8
  9
$HANDSEED
  5
AE
  9
$SURFTAB1
 70
     6
  9
$SURFTAB2
 70
     6
  9
$SURFTYPE
 70
     6
  9
$SURFU
 70
     6
  9
$SURFV
 70
     6
  9
$UCSBASE
  2

  9
$UCSNAME
  2

  9
$UCSORG
 10
0.0
 20
0.0
 30
0.0
  9
$UCSXDIR
 10
1.0
 20
0.0
 30
0.0
  9
$UCSYDIR
 10
0.0
 20
1.0
 30
0.0
  9
$UCSORTHOREF
  2

  9
$UCSORTHOVIEW
 70
     0
  9
$UCSORGTOP
 10
0.0
 20
0.0
 30
0.0
  9
$UCSORGBOTTOM
 10
0.0
 20
0.0
 30
0.0
  9
$UCSORGLEFT
 10
0.0
 20
0.0
 30
0.0
  9
$UCSORGRIGHT
 10
0.0
 20
0.0
 30
0.0
  9
$UCSORGFRONT
 10
0.0
 20
0.0
 30
0.0
  9
$UCSORGBACK
 10
0.0
 20
0.0
 30
0.0
  9
$PUCSBASE
  2

  9
$PUCSNAME
  2

  9
$PUCSORG
 10
0.0
 20
0.0
 30
0.0
  9
$PUCSXDIR
 10
1.0
 20
0.0
 30
0.0
  9
$PUCSYDIR
 10
0.0
 20
1.0
 30
0.0
  9
$PUCSORTHOREF
  2

  9
$PUCSORTHOVIEW
 70
     0
  9
$PUCSORGTOP
 10
0.0
 20
0.0
 30
0.0
  9
$PUCSORGBOTTOM
 10
0.0
 20
0.0
 30
0.0
  9
$PUCSORGLEFT
 10
0.0
 20
0.0
 30
0.0
  9
$PUCSORGRIGHT
 10
0.0
 20
0.0
 30
0.0
  9
$PUCSORGFRONT
 10
0.0
 20
0.0
 30
0.0
  9
$PUCSORGBACK
 10
0.0
 20
0.0
 30
0.0
  9
$USERI1
 70
     0
  9
$USERI2
 70
     0
  9
$USERI3
 70
     0
  9
$USERI4
 70
     0
  9
$USERI5
 70
     0
  9
$USERR1
 40
0.0
  9
$USERR2
 40
0.0
  9
$USERR3
 40
0.0
  9
$USERR4
 40
0.0
  9
$USERR5
 40
0.0
  9
$WORLDVIEW
 70
     1
  9
$SHADEDGE
 70
     3
  9
$SHADEDIF
 70
    70
  9
$TILEMODE
 70
     1
  9
$MAXACTVP
 70
    64
  9
$PINSBASE
 10
0.0
 20
0.0
 30
0.0
  9
$PLIMCHECK
 70
     0
  9
$PEXTMIN
 10
1.000000000000000E+20
 20
1.000000000000000E+20
 30
1.000000000000000E+20
  9
$PEXTMAX
 10
-1.000000000000000E+20
 20
-1.000000000000000E+20
 30
-1.000000000000000E+20
  9
$PLIMMIN
 10
0.0
 20
0.0
  9
$PLIMMAX
 10
12.0
 20
9.0
  9
$UNITMODE
 70
     0
  9
$VISRETAIN
 70
     1
  9
$PLINEGEN
 70
     0
  9
$PSLTSCALE
 70
     1
  9
$TREEDEPTH
 70
  3020
  9
$CMLSTYLE
  2
Standard
  9
$CMLJUST
 70
     0
  9
$CMLSCALE
 40
1.0
  9
$PROXYGRAPHICS
 70
     1
  9
$MEASUREMENT
 70
     0
  9
$CELWEIGHT
370
    -1
  9
$ENDCAPS
280
     0
  9
$JOINSTYLE
280
     0
  9
$LWDISPLAY
290
     0
  9
$INSUNITS
 70
     4
  9
$HYPERLINKBASE
  1

  9
$STYLESHEET
  1

  9
$XEDIT
290
     1
  9
$CEPSNTYPE
380
     0
  9
$PSTYLEMODE
290
     1
  9
$FINGERPRINTGUID
  2
{585ce694-ac73-4469-977b-38b5679c0fd4}
  9
$VERSIONGUID
  2
{FAEB1C32-E019-11D5-929B-00C0DF256EC4}
  9
$EXTNAMES
290
     1
  9
$PSVPSCALE
 40
0.0
  9
$OLESTARTUP
290
     0
  9
$SORTENTS
280
   127
  9
$INDEXCTL
280
     0
  9
$HIDETEXT
280
     1
  9
$XCLIPFRAME
280
     2
  9
$HALOGAP
280
     0
  9
$OBSCOLOR
 70
   257
  9
$OBSLTYPE
280
     0
  9
$INTERSECTIONDISPLAY
280
     0
  9
$INTERSECTIONCOLOR
 70
   257
  9
$DIMASSOC
280
     2
  9
$PROJECTNAME
  1

  9
$CAMERADISPLAY
290
     0
  9
$LENSLENGTH
 40
50.0
  9
$CAMERAHEIGHT
 40
0.0
  9
$STEPSPERSEC
 40
2.0
  9
$STEPSIZE
 40
6.0
  9
$3DDWFPREC
 40
2.0
  9
$PSOLWIDTH
 40
0.25
  9
$PSOLHEIGHT
 40
4.0
  9
$LOFTANG1
 40
1.570796326794897
  9
$LOFTANG2
 40
1.570796326794897
  9
$LOFTMAG1
 40
0.0
  9
$LOFTMAG2
 40
0.0
  9
$LOFTPARAM
 70
     7
  9
$LOFTNORMALS
280
     1
  9
$LATITUDE
 40
37.795
  9
$LONGITUDE
 40
-122.394
  9
$NORTHDIRECTION
 40
0.0
  9
$TIMEZONE
 70
 -8000
  9
$LIGHTGLYPHDISPLAY
280
     1
  9
$TILEMODELIGHTSYNCH
280
     1
  9
$CMATERIAL
347
44
  9
$SOLIDHIST
280
     0
  9
$SHOWHIST
280
     1
  9
$DWFFRAME
280
     2
  9
$DGNFRAME
280
     2
  9
$REALWORLDSCALE
290
     1
  9
$INTERFERECOLOR
 62
   256
  9
$CSHADOW
280
     0
  9
$SHADOWPLANELOCATION
 40
0.0
  0
ENDSEC
  0
SECTION
  2
CLASSES
  0
CLASS
  1
ACDBDICTIONARYWDFLT
  2
AcDbDictionaryWithDefault
  3
ObjectDBX Classes
 90
        0
 91
        3
280
     0
281
     0
  0
CLASS
  1
VISUALSTYLE
  2
AcDbVisualStyle
  3
ObjectDBX Classes
 90
     4095
 91
        3
280
     0
281
     0
  0
CLASS
  1
MATERIAL
  2
AcDbMaterial
  3
ObjectDBX Classes
 90
     1153
 91
        3
280
     0
281
     0
  0
CLASS
  1
SCALE
  2
AcDbScale
  3
ObjectDBX Classes
 90
     1153
 91
        3
280
     0
281
     0
  0
CLASS
  1
TABLESTYLE
  2
AcDbTableStyle
  3
ObjectDBX Classes
 90
     4095
 91
        3
280
     0
281
     0
  0
CLASS
  1
MLEADERSTYLE
  2
AcDbMLeaderStyle
  3
ACDB_MLEADERSTYLE_CLASS
 90
     4095
 91
        3
280
     0
281
     0
  0
CLASS
  1
SUN
  2
AcDbSun
  3
SCENEOE
 90
     1153
 91
        3
280
     0
281
     0
  0
CLASS
  1
DICTIONARYVAR
  2
AcDbDictionaryVar
  3
ObjectDBX Classes
 90
        0
 91
        3
280
     0
281
     0
  0
CLASS
  1
CELLSTYLEMAP
  2
AcDbCellStyleMap
  3
ObjectDBX Classes
 90
     1152
 91
        3
280
     0
281
     0
  0
ENDSEC
  0
SECTION
  2
TABLES
  0
TABLE
  2
VPORT
  5
8
330
0
100
AcDbSymbolTable
 70
     1
  0
VPORT
  5
29
330
8
100
AcDbSymbolTableRecord
100
AcDbViewportTableRecord
  2
*Active
 70
     0
 10
0.0
 20
0.0
 11
1.0
 21
1.0
 12
10.42990654205607
 22
4.5
 13
0.0
 23
0.0
 14
0.5
 24
0.5
 15
0.5
 25
0.5
 16
0.0
 26
0.0
 36
1.0
 17
0.0
 27
0.0
 37
0.0
 40
9.0
 41
1.972972972850329
 42
50.0
 43
0.0
 44
0.0
 50
0.0
 51
0.0
 71
     0
 72
   100
 73
     1
 74
     3
 75
     0
 76
     0
 77
     0
 78
     0
281
     0
 65
     1
110
0.0
120
0.0
130
0.0
111
1.0
121
0.0
131
0.0
112
0.0
122
1.0
132
0.0
 79
     0
146
0.0
348
2F
 60
     3
 61
     5
292
     1
282
     1
141
0.0
142
0.0
 63
   250
361
5D
  0
ENDTAB
  0
TABLE
  2
LTYPE
  5
5
330
0
100
AcDbSymbolTable
 70
     1
  0
LTYPE
  5
14
330
5
100
AcDbSymbolTableRecord
100
AcDbLinetypeTableRecord
  2
ByBlock
 70
     0
  3

 72
    65
 73
     0
 40
0.0
  0
LTYPE
  5
15
330
5
100
AcDbSymbolTableRecord
100
AcDbLinetypeTableRecord
  2
ByLayer
 70
     0
  3

 72
    65
 73
     0
 40
0.0
  0
LTYPE
  5
16
330
5
100
AcDbSymbolTableRecord
100
AcDbLinetypeTableRecord
  2
Continuous
 70
     0
  3
Solid line
 72
    65
 73
     0
 40
0.0
  0
ENDTAB
  0
TABLE
  2
LAYER
  5
2
330
0
100
AcDbSymbolTable
 70
     2
  0
LAYER
  5
10
330
2
100
AcDbSymbolTableRecord
100
AcDbLayerTableRecord
  2
0
 70
     0
 62
     7
  6
Continuous
370
    -3
390
F
347
46
348
0
  0
LAYER
  5
5F
330
2
100
AcDbSymbolTableRecord
100
AcDbLayerTableRecord
  2
Layer 1
 70
     0
 62
     7
  6
Continuous
370
    -3
390
F
347
46
348
0
  0
ENDTAB
  0
TABLE
  2
STYLE
  5
3
330
0
100
AcDbSymbolTable
 70
     1
  0
STYLE
  5
11
330
3
100
AcDbSymbolTableRecord
100
AcDbTextStyleTableRecord
  2
Standard
 70
     0
 40
0.0
 41
1.0
 50
0.0
 71
     0
 42
0.2
  3
txt
  4

  0
ENDTAB
  0
TABLE
  2
VIEW
  5
6
330
0
100
AcDbSymbolTable
 70
     0
  0
ENDTAB
  0
TABLE
  2
UCS
  5
7
330
0
100
AcDbSymbolTable
 70
     0
  0
ENDTAB
  0
TABLE
  2
APPID
  5
9
330
0
100
AcDbSymbolTable
 70
     2
  0
APPID
  5
12
330
9
100
AcDbSymbolTableRecord
100
AcDbRegAppTableRecord
  2
ACAD
 70
     0
  0
APPID
  5
5E
330
9
100
AcDbSymbolTableRecord
100
AcDbRegAppTableRecord
  2
ODA
 70
     0
  0
ENDTAB
  0
TABLE
  2
DIMSTYLE
  5
A
330
0
100
AcDbSymbolTable
 70
     1
100
AcDbDimStyleTable
  0
DIMSTYLE
105
27
330
A
100
AcDbSymbolTableRecord
100
AcDbDimStyleTableRecord
  2
Standard
 70
     0
178
     0
340
11
  0
ENDTAB
  0
TABLE
  2
BLOCK_RECORD
  5
1
330
0
100
AcDbSymbolTable
 70
     1
  0
BLOCK_RECORD
  5
1F
330
1
100
AcDbSymbolTableRecord
100
AcDbBlockTableRecord
  2
*Model_Space
340
22
 70
     0
280
     1
281
     0
  0
BLOCK_RECORD
  5
1B
330
1
100
AcDbSymbolTableRecord
100
AcDbBlockTableRecord
  2
*Paper_Space
340
1E
 70
     0
280
     1
281
     0
  0
BLOCK_RECORD
  5
23
330
1
100
AcDbSymbolTableRecord
100
AcDbBlockTableRecord
  2
*Paper_Space0
340
26
 70
     0
280
     1
281
     0
  0
ENDTAB
  0
ENDSEC
  0
SECTION
  2
BLOCKS
  0
BLOCK
  5
20
330
1F
100
AcDbEntity
  8
0
100
AcDbBlockBegin
  2
*Model_Space
 70
     0
 10
0.0
 20
0.0
 30
0.0
  3
*Model_Space
  1

  0
ENDBLK
  5
21
330
1F
100
AcDbEntity
  8
0
100
AcDbBlockEnd
  0
BLOCK
  5
1C
330
1B
100
AcDbEntity
 67
     1
  8
0
100
AcDbBlockBegin
  2
*Paper_Space
 70
     0
 10
0.0
 20
0.0
 30
0.0
  3
*Paper_Space
  1

  0
ENDBLK
  5
1D
330
1B
100
AcDbEntity
 67
     1
  8
0
100
AcDbBlockEnd
  0
BLOCK
  5
24
330
23
100
AcDbEntity
  8
0
100
AcDbBlockBegin
  2
*Paper_Space0
 70
     0
 10
0.0
 20
0.0
 30
0.0
  3
*Paper_Space0
  1

  0
ENDBLK
  5
25
330
23
100
AcDbEntity
  8
0
100
AcDbBlockEnd
  0
ENDSEC
  0
SECTION
  2
ENTITIES
  0
SPLINE
  5
60
330
1F
100
AcDbEntity
  8
Layer 1
 62
   250
370
    18
100
AcDbSpline
210
0.0
220
0.0
230
1.0
 70
    11
 71
     3
 72
    56
 73
    52
 74
     0
 42
0.0000000001
 43
0.0000000001
 40
0.0
 40
0.0
 40
0.0
 40
0.0
 40
0.0588235294117647
 40
0.0588235294117647
 40
0.0588235294117647
 40
0.1176470588235294
 40
0.1176470588235294
 40
0.1176470588235294
 40
0.1764705882352941
 40
0.1764705882352941
 40
0.1764705882352941
 40
0.2352941176470588
 40
0.2352941176470588
 40
0.2352941176470588
 40
0.2941176470588235
 40
0.2941176470588235
 40
0.2941176470588235
 40
0.3529411764705882
 40
0.3529411764705882
 40
0.3529411764705882
 40
0.4117647058823529
 40
0.4117647058823529
 40
0.4117647058823529
 40
0.4705882352941176
 40
0.4705882352941176
 40
0.4705882352941176
 40
0.5294117647058824
 40
0.5294117647058824
 40
0.5294117647058824
 40
0.5882352941176471
 40
0.5882352941176471
 40
0.5882352941176471
 40
0.6470588235294118
 40
0.6470588235294118
 40
0.6470588235294118
 40
0.7058823529411764
 40
0.7058823529411764
 40
0.7058823529411764
 40
0.7647058823529411
 40
0.7647058823529411
 40
0.7647058823529411
 40
0.8235294117647058
 40
0.8235294117647058
 40
0.8235294117647058
 40
0.8823529411764706
 40
0.8823529411764706
 40
0.8823529411764706
 40
0.9411764705882353
 40
0.9411764705882353
 40
0.9411764705882353
 40
1.0
 40
1.0
 40
1.0
 40
1.0
 10
-29.7043
 20
81.8617
 30
0.0
 10
-29.7043
 20
81.6158
 30
0.0
 10
-29.7043
 20
81.3773
 30
0.0
 10
-29.7043
 20
81.1389
 30
0.0
 10
-29.7043
 20
78.7484
 30
0.0
 10
-29.7117
 20
76.3584
 30
0.0
 10
-29.6955
 20
73.9683
 30
0.0
 10
-29.6927
 20
73.5859
 30
0.0
 10
-29.8197
 20
73.4737
 30
0.0
 10
-30.1855
 20
73.4822
 30
0.0
 10
-31.0639
 20
73.5023
 30
0.0
 10
-30.9299
 20
73.4504
 30
0.0
 10
-30.9306
 20
74.2389
 30
0.0
 10
-30.9338
 20
77.8453
 30
0.0
 10
-30.9264
 20
81.4518
 30
0.0
 10
-30.9398
 20
85.0582
 30
0.0
 10
-30.9415
 20
85.4466
 30
0.0
 10
-30.8329
 20
85.5754
 30
0.0
 10
-30.4399
 20
85.5602
 30
0.0
 10
-29.5438
 20
85.5256
 30
0.0
 10
-29.7273
 20
85.6466
 30
0.0
 10
-29.5678
 20
84.8148
 30
0.0
 10
-28.7811
 20
80.7131
 30
0.0
 10
-23.8024
 20
78.7368
 30
0.0
 10
-20.433
 20
81.2013
 30
0.0
 10
-19.2882
 20
82.0384
 30
0.0
 10
-18.505
 20
83.1455
 30
0.0
 10
-18.1526
 20
84.5361
 30
0.0
 10
-18.124
 20
84.6486
 30
0.0
 10
-18.0881
 20
84.7594
 30
0.0
 10
-18.0521
 20
84.8698
 30
0.0
 10
-18.0429
 20
84.8981
 30
0.0
 10
-18.0196
 20
84.922
 30
0.0
 10
-17.9886
 20
84.9707
 30
0.0
 10
-17.6838
 20
84.6755
 30
0.0
 10
-17.3755
 20
84.3946
 30
0.0
 10
-17.0943
 20
84.0888
 30
0.0
 10
-17.04
 20
84.0295
 30
0.0
 10
-17.0671
 20
83.8641
 30
0.0
 10
-17.0996
 20
83.7607
 30
0.0
 10
-18.0486
 20
80.7222
 30
0.0
 10
-21.2225
 20
78.6207
 30
0.0
 10
-24.3703
 20
78.9156
 30
0.0
 10
-26.4778
 20
79.1132
 30
0.0
 10
-28.1697
 20
80.0456
 30
0.0
 10
-29.4743
 20
81.7019
 30
0.0
 10
-29.5131
 20
81.7516
 30
0.0
 10
-29.5558
 20
81.7989
 30
0.0
 10
-29.601
 20
81.8434
 30
0.0
 10
-29.6123
 20
81.8546
 30
0.0
 10
-29.6387
 20
81.8511
 30
0.0
 10
-29.7043
 20
81.8617
 30
0.0
  0
SPLINE
  5
61
330
1F
100
AcDbEntity
  8
Layer 1
 62
   250
370
    18
100
AcDbSpline
210
0.0
220
0.0
230
1.0
 70
    11
 71
     3
 72
    53
 73
    49
 74
     0
 42
0.0000000001
 43
0.0000000001
 40
0.0
 40
0.0
 40
0.0
 40
0.0
 40
0.0625
 40
0.0625
 40
0.0625
 40
0.125
 40
0.125
 40
0.125
 40
0.1875
 40
0.1875
 40
0.1875
 40
0.25
 40
0.25
 40
0.25
 40
0.3125
 40
0.3125
 40
0.3125
 40
0.375
 40
0.375
 40
0.375
 40
0.4375
 40
0.4375
 40
0.4375
 40
0.5
 40
0.5
 40
0.5
 40
0.5625
 40
0.5625
 40
0.5625
 40
0.625
 40
0.625
 40
0.625
 40
0.6875
 40
0.6875
 40
0.6875
 40
0.75
 40
0.75
 40
0.75
 40
0.8125
 40
0.8125
 40
0.8125
 40
0.875
 40
0.875
 40
0.875
 40
0.9375
 40
0.9375
 40
0.9375
 40
1.0
 40
1.0
 40
1.0
 40
1.0
 10
-9.4212
 20
90.0908
 30
0.0
 10
-9.4212
 20
90.0908
 30
0.0
 10
-9.4212
 20
90.493
 30
0.0
 10
-9.4212
 20
90.493
 30
0.0
 10
-9.4215
 20
93.01
 30
0.0
 10
-9.4159
 20
95.5271
 30
0.0
 10
-9.4286
 20
98.0442
 30
0.0
 10
-9.43
 20
98.3839
 30
0.0
 10
-9.3418
 20
98.5134
 30
0.0
 10
-8.9855
 20
98.4996
 30
0.0
 10
-8.1131
 20
98.4665
 30
0.0
 10
-8.2009
 20
98.5994
 30
0.0
 10
-8.2006
 20
97.7182
 30
0.0
 10
-8.1981
 20
94.1855
 30
0.0
 10
-8.2048
 20
90.6531
 30
0.0
 10
-8.1917
 20
87.1208
 30
0.0
 10
-8.1903
 20
86.7299
 30
0.0
 10
-8.2771
 20
86.5764
 30
0.0
 10
-8.7008
 20
86.6001
 30
0.0
 10
-9.4088
 20
86.6396
 30
0.0
 10
-9.4106
 20
86.6131
 30
0.0
 10
-9.5725
 20
87.2926
 30
0.0
 10
-10.199
 20
89.9222
 30
0.0
 10
-12.4639
 20
91.7781
 30
0.0
 10
-15.1612
 20
91.8727
 30
0.0
 10
-17.7753
 20
91.9644
 30
0.0
 10
-20.2814
 20
90.0795
 30
0.0
 10
-20.9312
 20
87.5385
 30
0.0
 10
-20.9641
 20
87.4111
 30
0.0
 10
-21.0381
 20
87.2947
 30
0.0
 10
-21.0928
 20
87.173
 30
0.0
 10
-21.2071
 20
87.2552
 30
0.0
 10
-21.3398
 20
87.3208
 30
0.0
 10
-21.4318
 20
87.4227
 30
0.0
 10
-22.1261
 20
88.1922
 30
0.0
 10
-22.1236
 20
88.1946
 30
0.0
 10
-21.6407
 20
89.145
 30
0.0
 10
-20.0698
 20
92.2389
 30
0.0
 10
-16.6842
 20
93.7565
 30
0.0
 10
-13.3652
 20
92.8284
 30
0.0
 10
-11.9206
 20
92.4241
 30
0.0
 10
-10.724
 20
91.6159
 30
0.0
 10
-9.7761
 20
90.4478
 30
0.0
 10
-9.703
 20
90.3575
 30
0.0
 10
-9.6311
 20
90.2658
 30
0.0
 10
-9.5556
 20
90.1776
 30
0.0
 10
-9.5365
 20
90.1554
 30
0.0
 10
-9.5051
 20
90.1441
 30
0.0
 10
-9.4212
 20
90.0908
 30
0.0
  0
SPLINE
  5
62
330
1F
100
AcDbEntity
  8
Layer 1
 62
   250
370
    18
100
AcDbSpline
210
0.0
220
0.0
230
1.0
 70
    11
 71
     3
 72
    68
 73
    64
 74
     0
 42
0.0000000001
 43
0.0000000001
 40
0.0
 40
0.0
 40
0.0
 40
0.0
 40
0.0476190476190476
 40
0.0476190476190476
 40
0.0476190476190476
 40
0.0952380952380952
 40
0.0952380952380952
 40
0.0952380952380952
 40
0.1428571428571428
 40
0.1428571428571428
 40
0.1428571428571428
 40
0.1904761904761905
 40
0.1904761904761905
 40
0.1904761904761905
 40
0.2380952380952381
 40
0.2380952380952381
 40
0.2380952380952381
 40
0.2857142857142857
 40
0.2857142857142857
 40
0.2857142857142857
 40
0.3333333333333333
 40
0.3333333333333333
 40
0.3333333333333333
 40
0.3809523809523809
 40
0.3809523809523809
 40
0.3809523809523809
 40
0.4285714285714285
 40
0.4285714285714285
 40
0.4285714285714285
 40
0.4761904761904762
 40
0.4761904761904762
 40
0.4761904761904762
 40
0.5238095238095237
 40
0.5238095238095237
 40
0.5238095238095237
 40
0.5714285714285714
 40
0.5714285714285714
 40
0.5714285714285714
 40
0.6190476190476191
 40
0.6190476190476191
 40
0.6190476190476191
 40
0.6666666666666666
 40
0.6666666666666666
 40
0.6666666666666666
 40
0.7142857142857142
 40
0.7142857142857142
 40
0.7142857142857142
 40
0.7619047619047619
 40
0.7619047619047619
 40
0.7619047619047619
 40
0.8095238095238095
 40
0.8095238095238095
 40
0.8095238095238095
 40
0.8571428571428571
 40
0.8571428571428571
 40
0.8571428571428571
 40
0.9047619047619047
 40
0.9047619047619047
 40
0.9047619047619047
 40
0.9523809523809523
 40
0.9523809523809523
 40
0.9523809523809523
 40
1.0
 40
1.0
 40
1.0
 40
1.0
 10
-32.2937
 20
62.6971
 30
0.0
 10
-32.2933
 20
61.6879
 30
0.0
 10
-32.2986
 20
60.6786
 30
0.0
 10
-32.2894
 20
59.6696
 30
0.0
 10
-32.2873
 20
59.4392
 30
0.0
 10
-32.3452
 20
59.3454
 30
0.0
 10
-32.597
 20
59.3486
 30
0.0
 10
-33.4109
 20
59.3588
 30
0.0
 10
-33.4105
 20
59.3496
 30
0.0
 10
-33.4102
 20
60.1677
 30
0.0
 10
-33.4095
 20
60.917
 30
0.0
 10
-33.4148
 20
61.6663
 30
0.0
 10
-33.4067
 20
62.4153
 30
0.0
 10
-33.4049
 20
62.6037
 30
0.0
 10
-33.4659
 20
62.6696
 30
0.0
 10
-33.6568
 20
62.6682
 30
0.0
 10
-34.7116
 20
62.6615
 30
0.0
 10
-35.7667
 20
62.6612
 30
0.0
 10
-36.8219
 20
62.6686
 30
0.0
 10
-37.0244
 20
62.67
 30
0.0
 10
-37.0865
 20
62.5955
 30
0.0
 10
-37.0854
 20
62.4001
 30
0.0
 10
-37.0784
 20
61.4903
 30
0.0
 10
-37.0872
 20
60.5805
 30
0.0
 10
-37.0784
 20
59.671
 30
0.0
 10
-37.0763
 20
59.4417
 30
0.0
 10
-37.1352
 20
59.3461
 30
0.0
 10
-37.3874
 20
59.3482
 30
0.0
 10
-38.2277
 20
59.356
 30
0.0
 10
-38.2277
 20
59.3468
 30
0.0
 10
-38.2281
 20
60.185
 30
0.0
 10
-38.2284
 20
62.0198
 30
0.0
 10
-38.2238
 20
63.8546
 30
0.0
 10
-38.2341
 20
65.6894
 30
0.0
 10
-38.2358
 20
65.9632
 30
0.0
 10
-38.1642
 20
66.0669
 30
0.0
 10
-37.8753
 20
66.0616
 30
0.0
 10
-37.0826
 20
66.0468
 30
0.0
 10
-37.0823
 20
66.0577
 30
0.0
 10
-37.0823
 20
65.2548
 30
0.0
 10
-37.0823
 20
64.5898
 30
0.0
 10
-37.0773
 20
63.9245
 30
0.0
 10
-37.0861
 20
63.2595
 30
0.0
 10
-37.089
 20
63.0527
 30
0.0
 10
-37.0188
 20
62.9762
 30
0.0
 10
-36.8078
 20
62.9776
 30
0.0
 10
-35.7608
 20
62.985
 30
0.0
 10
-34.713
 20
62.9847
 30
0.0
 10
-33.666
 20
62.9776
 30
0.0
 10
-33.4606
 20
62.9762
 30
0.0
 10
-33.4049
 20
63.0556
 30
0.0
 10
-33.4067
 20
63.2489
 30
0.0
 10
-33.4144
 20
64.0899
 30
0.0
 10
-33.4049
 20
64.9309
 30
0.0
 10
-33.4137
 20
65.772
 30
0.0
 10
-33.4158
 20
65.9808
 30
0.0
 10
-33.3428
 20
66.0528
 30
0.0
 10
-33.1361
 20
66.057
 30
0.0
 10
-32.294
 20
66.0739
 30
0.0
 10
-32.294
 20
66.0785
 30
0.0
 10
-32.294
 20
65.2428
 30
0.0
 10
-32.294
 20
64.3944
 30
0.0
 10
-32.294
 20
63.5456
 30
0.0
 10
-32.2937
 20
62.6971
 30
0.0
  0
SPLINE
  5
63
330
1F
100
AcDbEntity
  8
Layer 1
 62
   250
370
    18
100
AcDbSpline
210
0.0
220
0.0
230
1.0
 70
    11
 71
     3
 72
    47
 73
    43
 74
     0
 42
0.0000000001
 43
0.0000000001
 40
0.0
 40
0.0
 40
0.0
 40
0.0
 40
0.0714285714285714
 40
0.0714285714285714
 40
0.0714285714285714
 40
0.1428571428571428
 40
0.1428571428571428
 40
0.1428571428571428
 40
0.2142857142857143
 40
0.2142857142857143
 40
0.2142857142857143
 40
0.2857142857142857
 40
0.2857142857142857
 40
0.2857142857142857
 40
0.3571428571428571
 40
0.3571428571428571
 40
0.3571428571428571
 40
0.4285714285714285
 40
0.4285714285714285
 40
0.4285714285714285
 40
0.5
 40
0.5
 40
0.5
 40
0.5714285714285714
 40
0.5714285714285714
 40
0.5714285714285714
 40
0.6428571428571428
 40
0.6428571428571428
 40
0.6428571428571428
 40
0.7142857142857142
 40
0.7142857142857142
 40
0.7142857142857142
 40
0.7857142857142857
 40
0.7857142857142857
 40
0.7857142857142857
 40
0.8571428571428571
 40
0.8571428571428571
 40
0.8571428571428571
 40
0.9285714285714285
 40
0.9285714285714285
 40
0.9285714285714285
 40
1.0
 40
1.0
 40
1.0
 40
1.0
 10
-9.4208
 20
81.846
 30
0.0
 10
-9.9877
 20
81.3115
 30
0.0
 10
-10.4985
 20
80.7619
 30
0.0
 10
-11.0771
 20
80.2969
 30
0.0
 10
-13.2266
 20
78.5694
 30
0.0
 10
-16.7452
 20
78.4272
 30
0.0
 10
-19.0058
 20
79.9548
 30
0.0
 10
-19.0573
 20
79.9897
 30
0.0
 10
-19.0315
 20
80.1417
 30
0.0
 10
-19.0372
 20
80.2394
 30
0.0
 10
-19.0379
 20
80.2518
 30
0.0
 10
-19.003
 20
80.2634
 30
0.0
 10
-18.9906
 20
80.28
 30
0.0
 10
-18.5638
 20
80.8498
 30
0.0
 10
-18.1369
 20
80.849
 30
0.0
 10
-17.4497
 20
80.5728
 30
0.0
 10
-13.8584
 20
79.1285
 30
0.0
 10
-10.0343
 20
81.4089
 30
0.0
 10
-9.46
 20
85.2514
 30
0.0
 10
-9.443
 20
85.3642
 30
0.0
 10
-9.2617
 20
85.5378
 30
0.0
 10
-9.1552
 20
85.5389
 30
0.0
 10
-8.0358
 20
85.5509
 30
0.0
 10
-8.2041
 20
85.6825
 30
0.0
 10
-8.202
 20
84.6569
 30
0.0
 10
-8.1949
 20
81.1122
 30
0.0
 10
-8.2055
 20
77.5679
 30
0.0
 10
-8.1914
 20
74.0235
 30
0.0
 10
-8.1896
 20
73.6139
 30
0.0
 10
-8.2969
 20
73.4245
 30
0.0
 10
-8.7227
 20
73.4883
 30
0.0
 10
-8.8158
 20
73.5021
 30
0.0
 10
-8.9139
 20
73.4965
 30
0.0
 10
-9.0081
 20
73.4876
 30
0.0
 10
-9.3196
 20
73.4594
 30
0.0
 10
-9.43
 20
73.5839
 30
0.0
 10
-9.4282
 20
73.9071
 30
0.0
 10
-9.4162
 20
76.3829
 30
0.0
 10
-9.4212
 20
78.8587
 30
0.0
 10
-9.4208
 20
81.3345
 30
0.0
 10
-9.4208
 20
81.3345
 30
0.0
 10
-9.4208
 20
81.846
 30
0.0
 10
-9.4208
 20
81.846
 30
0.0
  0
SPLINE
  5
64
330
1F
100
AcDbEntity
  8
Layer 1
 62
   250
370
    18
100
AcDbSpline
210
0.0
220
0.0
230
1.0
 70
    11
 71
     3
 72
    44
 73
    40
 74
     0
 42
0.0000000001
 43
0.0000000001
 40
0.0
 40
0.0
 40
0.0
 40
0.0
 40
0.0769230769230769
 40
0.0769230769230769
 40
0.0769230769230769
 40
0.1538461538461539
 40
0.1538461538461539
 40
0.1538461538461539
 40
0.2307692307692308
 40
0.2307692307692308
 40
0.2307692307692308
 40
0.3076923076923077
 40
0.3076923076923077
 40
0.3076923076923077
 40
0.3846153846153846
 40
0.3846153846153846
 40
0.3846153846153846
 40
0.4615384615384616
 40
0.4615384615384616
 40
0.4615384615384616
 40
0.5384615384615385
 40
0.5384615384615385
 40
0.5384615384615385
 40
0.6153846153846154
 40
0.6153846153846154
 40
0.6153846153846154
 40
0.6923076923076923
 40
0.6923076923076923
 40
0.6923076923076923
 40
0.7692307692307693
 40
0.7692307692307693
 40
0.7692307692307693
 40
0.8461538461538463
 40
0.8461538461538463
 40
0.8461538461538463
 40
0.9230769230769231
 40
0.9230769230769231
 40
0.9230769230769231
 40
1.0
 40
1.0
 40
1.0
 40
1.0
 10
-19.9392
 20
91.9172
 30
0.0
 10
-20.2327
 20
91.6368
 30
0.0
 10
-20.4874
 20
91.3715
 30
0.0
 10
-20.7707
 20
91.1408
 30
0.0
 10
-20.8321
 20
91.0907
 30
0.0
 10
-21.0102
 20
91.1383
 30
0.0
 10
-21.1101
 20
91.1888
 30
0.0
 10
-22.7805
 20
92.034
 30
0.0
 10
-24.4921
 20
92.1197
 30
0.0
 10
-26.1925
 20
91.351
 30
0.0
 10
-28.0365
 20
90.5174
 30
0.0
 10
-29.1834
 20
89.0746
 30
0.0
 10
-29.575
 20
87.0757
 30
0.0
 10
-29.6434
 20
86.7265
 30
0.0
 10
-29.7538
 20
86.5928
 30
0.0
 10
-30.1204
 20
86.6033
 30
0.0
 10
-30.9318
 20
86.6256
 30
0.0
 10
-30.9321
 20
86.6076
 30
0.0
 10
-30.9321
 20
87.4257
 30
0.0
 10
-30.9321
 20
90.9489
 30
0.0
 10
-30.9265
 20
94.4724
 30
0.0
 10
-30.9395
 20
97.9956
 30
0.0
 10
-30.9409
 20
98.3784
 30
0.0
 10
-30.8411
 20
98.5184
 30
0.0
 10
-30.4432
 20
98.5025
 30
0.0
 10
-29.5997
 20
98.4697
 30
0.0
 10
-29.7073
 20
98.5551
 30
0.0
 10
-29.7062
 20
97.7684
 30
0.0
 10
-29.7027
 20
95.3561
 30
0.0
 10
-29.7051
 20
92.9438
 30
0.0
 10
-29.7051
 20
90.5315
 30
0.0
 10
-29.7051
 20
90.5315
 30
0.0
 10
-29.7051
 20
90.0069
 30
0.0
 10
-29.7051
 20
90.0069
 30
0.0
 10
-28.0838
 20
92.1084
 30
0.0
 10
-26.0641
 20
93.1703
 30
0.0
 10
-23.5107
 20
93.0832
 30
0.0
 10
-22.2333
 20
93.0394
 30
0.0
 10
-21.0469
 20
92.6644
 30
0.0
 10
-19.9392
 20
91.9172
 30
0.0
  0
SPLINE
  5
65
330
1F
100
AcDbEntity
  8
Layer 1
 62
   250
370
    18
100
AcDbSpline
210
0.0
220
0.0
230
1.0
 70
    11
 71
     3
 72
    29
 73
    25
 74
     0
 42
0.0000000001
 43
0.0000000001
 40
0.0
 40
0.0
 40
0.0
 40
0.0
 40
0.125
 40
0.125
 40
0.125
 40
0.25
 40
0.25
 40
0.25
 40
0.375
 40
0.375
 40
0.375
 40
0.5
 40
0.5
 40
0.5
 40
0.625
 40
0.625
 40
0.625
 40
0.75
 40
0.75
 40
0.75
 40
0.875
 40
0.875
 40
0.875
 40
1.0
 40
1.0
 40
1.0
 40
1.0
 10
-29.9529
 20
60.8709
 30
0.0
 10
-29.688
 20
60.1128
 30
0.0
 10
-29.1087
 20
59.6662
 30
0.0
 10
-28.2776
 20
59.6235
 30
0.0
 10
-27.4521
 20
59.5808
 30
0.0
 10
-26.7913
 20
59.9
 30
0.0
 10
-26.4505
 20
60.6613
 30
0.0
 10
-26.2399
 20
61.1323
 30
0.0
 10
-26.1062
 20
61.6579
 30
0.0
 10
-26.0455
 20
62.1719
 30
0.0
 10
-25.9393
 20
63.0733
 30
0.0
 10
-25.9979
 20
63.9764
 30
0.0
 10
-26.4124
 20
64.8121
 30
0.0
 10
-26.7663
 20
65.5261
 30
0.0
 10
-27.3466
 20
65.8976
 30
0.0
 10
-28.1566
 20
65.892
 30
0.0
 10
-28.9418
 20
65.8863
 30
0.0
 10
-29.5144
 20
65.536
 30
0.0
 10
-29.8728
 20
64.8407
 30
0.0
 10
-30.2111
 20
64.1845
 30
0.0
 10
-30.2909
 20
63.4754
 30
0.0
 10
-30.2796
 20
62.7498
 30
0.0
 10
-30.2796
 20
62.7498
 30
0.0
 10
-29.9529
 20
60.8709
 30
0.0
 10
-29.9529
 20
60.8709
 30
0.0
  0
SPLINE
  5
66
330
1F
100
AcDbEntity
  8
Layer 1
 62
   250
370
    18
100
AcDbSpline
210
0.0
220
0.0
230
1.0
 70
    11
 71
     3
 72
    17
 73
    13
 74
     0
 42
0.0000000001
 43
0.0000000001
 40
0.0
 40
0.0
 40
0.0
 40
0.0
 40
0.25
 40
0.25
 40
0.25
 40
0.5
 40
0.5
 40
0.5
 40
0.75
 40
0.75
 40
0.75
 40
1.0
 40
1.0
 40
1.0
 40
1.0
 10
-24.7995
 20
62.7413
 30
0.0
 10
-24.7759
 20
60.9153
 30
0.0
 10
-26.1888
 20
59.3599
 30
0.0
 10
-28.0899
 20
59.306
 30
0.0
 10
-29.9705
 20
59.253
 30
0.0
 10
-31.5154
 20
60.849
 30
0.0
 10
-31.5164
 20
62.76
 30
0.0
 10
-31.5175
 20
64.6576
 30
0.0
 10
-30.0002
 20
66.2021
 30
0.0
 10
-28.1297
 20
66.2081
 30
0.0
 10
-26.2964
 20
66.2141
 30
0.0
 10
-24.8059
 20
64.6622
 30
0.0
 10
-24.7995
 20
62.7413
 30
0.0
  0
SPLINE
  5
67
330
1F
100
AcDbEntity
  8
Layer 1
 62
   250
370
    18
100
AcDbSpline
210
0.0
220
0.0
230
1.0
 70
    11
 71
     3
 72
    71
 73
    67
 74
     0
 42
0.0000000001
 43
0.0000000001
 40
0.0
 40
0.0
 40
0.0
 40
0.0
 40
0.0454545454545455
 40
0.0454545454545455
 40
0.0454545454545455
 40
0.0909090909090909
 40
0.0909090909090909
 40
0.0909090909090909
 40
0.1363636363636364
 40
0.1363636363636364
 40
0.1363636363636364
 40
0.1818181818181818
 40
0.1818181818181818
 40
0.1818181818181818
 40
0.2272727272727273
 40
0.2272727272727273
 40
0.2272727272727273
 40
0.2727272727272727
 40
0.2727272727272727
 40
0.2727272727272727
 40
0.3181818181818182
 40
0.3181818181818182
 40
0.3181818181818182
 40
0.3636363636363636
 40
0.3636363636363636
 40
0.3636363636363636
 40
0.4090909090909091
 40
0.4090909090909091
 40
0.4090909090909091
 40
0.4545454545454546
 40
0.4545454545454546
 40
0.4545454545454546
 40
0.5
 40
0.5
 40
0.5
 40
0.5454545454545454
 40
0.5454545454545454
 40
0.5454545454545454
 40
0.5909090909090909
 40
0.5909090909090909
 40
0.5909090909090909
 40
0.6363636363636364
 40
0.6363636363636364
 40
0.6363636363636364
 40
0.6818181818181819
 40
0.6818181818181819
 40
0.6818181818181819
 40
0.7272727272727273
 40
0.7272727272727273
 40
0.7272727272727273
 40
0.7727272727272727
 40
0.7727272727272727
 40
0.7727272727272727
 40
0.8181818181818182
 40
0.8181818181818182
 40
0.8181818181818182
 40
0.8636363636363636
 40
0.8636363636363636
 40
0.8636363636363636
 40
0.9090909090909092
 40
0.9090909090909092
 40
0.9090909090909092
 40
0.9545454545454546
 40
0.9545454545454546
 40
0.9545454545454546
 40
1.0
 40
1.0
 40
1.0
 40
1.0
 10
-18.7219
 20
60.9105
 30
0.0
 10
-18.7219
 20
60.9105
 30
0.0
 10
-18.7219
 20
61.289
 30
0.0
 10
-18.7219
 20
61.289
 30
0.0
 10
-18.7215
 20
62.7562
 30
0.0
 10
-18.7215
 20
64.2238
 30
0.0
 10
-18.7208
 20
65.6906
 30
0.0
 10
-18.7208
 20
65.7746
 30
0.0
 10
-18.73
 20
65.8646
 30
0.0
 10
-18.7021
 20
65.9394
 30
0.0
 10
-18.6845
 20
65.988
 30
0.0
 10
-18.6054
 20
66.0434
 30
0.0
 10
-18.555
 20
66.042
 30
0.0
 10
-18.507
 20
66.041
 30
0.0
 10
-18.44
 20
65.9792
 30
0.0
 10
-18.4185
 20
65.9284
 30
0.0
 10
-18.3927
 20
65.8695
 30
0.0
 10
-18.4058
 20
65.7933
 30
0.0
 10
-18.4058
 20
65.7245
 30
0.0
 10
-18.4047
 20
63.6692
 30
0.0
 10
-18.403
 20
61.6136
 30
0.0
 10
-18.4079
 20
59.5583
 30
0.0
 10
-18.4079
 20
59.4564
 30
0.0
 10
-18.465
 20
59.3544
 30
0.0
 10
-18.4957
 20
59.2528
 30
0.0
 10
-18.592
 20
59.3011
 30
0.0
 10
-18.7113
 20
59.3283
 30
0.0
 10
-18.7808
 20
59.402
 30
0.0
 10
-20.1616
 20
60.8601
 30
0.0
 10
-21.5342
 20
62.3258
 30
0.0
 10
-22.9136
 20
63.7849
 30
0.0
 10
-23.1274
 20
64.0111
 30
0.0
 10
-23.3662
 20
64.2132
 30
0.0
 10
-23.6152
 20
64.4471
 30
0.0
 10
-23.6195
 20
64.3593
 30
0.0
 10
-23.6276
 20
64.2746
 30
0.0
 10
-23.6279
 20
64.1903
 30
0.0
 10
-23.629
 20
62.7079
 30
0.0
 10
-23.6287
 20
61.2255
 30
0.0
 10
-23.6297
 20
59.7428
 30
0.0
 10
-23.6297
 20
59.6514
 30
0.0
 10
-23.6198
 20
59.5548
 30
0.0
 10
-23.6459
 20
59.4705
 30
0.0
 10
-23.6608
 20
59.4225
 30
0.0
 10
-23.7384
 20
59.3664
 30
0.0
 10
-23.7885
 20
59.3657
 30
0.0
 10
-23.8396
 20
59.365
 30
0.0
 10
-23.913
 20
59.4168
 30
0.0
 10
-23.9373
 20
59.4652
 30
0.0
 10
-23.9656
 20
59.5216
 30
0.0
 10
-23.9543
 20
59.5996
 30
0.0
 10
-23.9543
 20
59.668
 30
0.0
 10
-23.955
 20
61.7159
 30
0.0
 10
-23.9567
 20
63.7638
 30
0.0
 10
-23.9511
 20
65.8116
 30
0.0
 10
-23.9507
 20
65.9192
 30
0.0
 10
-23.8872
 20
66.0265
 30
0.0
 10
-23.853
 20
66.1341
 30
0.0
 10
-23.7518
 20
66.0794
 30
0.0
 10
-23.6279
 20
66.0459
 30
0.0
 10
-23.5525
 20
65.9665
 30
0.0
 10
-22.0235
 20
64.3646
 30
0.0
 10
-20.5006
 20
62.7573
 30
0.0
 10
-18.9755
 20
61.1522
 30
0.0
 10
-18.9141
 20
61.0876
 30
0.0
 10
-18.8467
 20
61.029
 30
0.0
 10
-18.7219
 20
60.9105
 30
0.0
  0
SPLINE
  5
68
330
1F
100
AcDbEntity
  8
Layer 1
 62
   250
370
    18
100
AcDbSpline
210
0.0
220
0.0
230
1.0
 70
    11
 71
     3
 72
    74
 73
    70
 74
     0
 42
0.0000000001
 43
0.0000000001
 40
0.0
 40
0.0
 40
0.0
 40
0.0
 40
0.0434782608695652
 40
0.0434782608695652
 40
0.0434782608695652
 40
0.0869565217391304
 40
0.0869565217391304
 40
0.0869565217391304
 40
0.1304347826086956
 40
0.1304347826086956
 40
0.1304347826086956
 40
0.1739130434782609
 40
0.1739130434782609
 40
0.1739130434782609
 40
0.2173913043478261
 40
0.2173913043478261
 40
0.2173913043478261
 40
0.2608695652173913
 40
0.2608695652173913
 40
0.2608695652173913
 40
0.3043478260869565
 40
0.3043478260869565
 40
0.3043478260869565
 40
0.3478260869565217
 40
0.3478260869565217
 40
0.3478260869565217
 40
0.3913043478260869
 40
0.3913043478260869
 40
0.3913043478260869
 40
0.4347826086956522
 40
0.4347826086956522
 40
0.4347826086956522
 40
0.4782608695652174
 40
0.4782608695652174
 40
0.4782608695652174
 40
0.5217391304347826
 40
0.5217391304347826
 40
0.5217391304347826
 40
0.5652173913043478
 40
0.5652173913043478
 40
0.5652173913043478
 40
0.6086956521739131
 40
0.6086956521739131
 40
0.6086956521739131
 40
0.6521739130434783
 40
0.6521739130434783
 40
0.6521739130434783
 40
0.6956521739130435
 40
0.6956521739130435
 40
0.6956521739130435
 40
0.7391304347826086
 40
0.7391304347826086
 40
0.7391304347826086
 40
0.7826086956521738
 40
0.7826086956521738
 40
0.7826086956521738
 40
0.8260869565217391
 40
0.8260869565217391
 40
0.8260869565217391
 40
0.8695652173913043
 40
0.8695652173913043
 40
0.8695652173913043
 40
0.9130434782608695
 40
0.9130434782608695
 40
0.9130434782608695
 40
0.9565217391304348
 40
0.9565217391304348
 40
0.9565217391304348
 40
1.0
 40
1.0
 40
1.0
 40
1.0
 10
-17.0861
 20
62.6954
 30
0.0
 10
-17.0861
 20
63.7118
 30
0.0
 10
-17.0798
 20
64.7281
 30
0.0
 10
-17.0911
 20
65.7441
 30
0.0
 10
-17.0935
 20
65.9893
 30
0.0
 10
-17.0046
 20
66.0599
 30
0.0
 10
-16.7701
 20
66.0585
 30
0.0
 10
-15.4179
 20
66.0496
 30
0.0
 10
-14.0653
 20
66.0549
 30
0.0
 10
-12.7131
 20
66.0443
 30
0.0
 10
-12.6404
 20
66.0436
 30
0.0
 10
-12.5688
 20
65.9413
 30
0.0
 10
-12.4969
 20
65.8859
 30
0.0
 10
-12.5759
 20
65.8376
 30
0.0
 10
-12.6542
 20
65.7477
 30
0.0
 10
-12.7339
 20
65.7469
 30
0.0
 10
-13.6967
 20
65.7378
 30
0.0
 10
-14.6594
 20
65.7346
 30
0.0
 10
-15.6225
 20
65.7459
 30
0.0
 10
-15.8676
 20
65.7487
 30
0.0
 10
-15.964
 20
65.6729
 30
0.0
 10
-15.9608
 20
65.421
 30
0.0
 10
-15.9498
 20
64.6953
 30
0.0
 10
-15.952
 20
63.9689
 30
0.0
 10
-15.9601
 20
63.2433
 30
0.0
 10
-15.9618
 20
63.0408
 30
0.0
 10
-15.8811
 20
62.9773
 30
0.0
 10
-15.6874
 20
62.9794
 30
0.0
 10
-15.015
 20
62.9861
 30
0.0
 10
-14.3426
 20
62.9889
 30
0.0
 10
-13.6702
 20
62.9741
 30
0.0
 10
-13.5711
 20
62.972
 30
0.0
 10
-13.474
 20
62.8679
 30
0.0
 10
-13.3756
 20
62.8111
 30
0.0
 10
-13.4698
 20
62.7624
 30
0.0
 10
-13.5633
 20
62.6735
 30
0.0
 10
-13.6578
 20
62.6718
 30
0.0
 10
-14.338
 20
62.6594
 30
0.0
 10
-15.0182
 20
62.6591
 30
0.0
 10
-15.698
 20
62.6686
 30
0.0
 10
-15.8997
 20
62.6714
 30
0.0
 10
-15.9618
 20
62.6002
 30
0.0
 10
-15.9601
 20
62.4026
 30
0.0
 10
-15.9516
 20
61.5701
 30
0.0
 10
-15.9513
 20
60.7368
 30
0.0
 10
-15.9594
 20
59.9039
 30
0.0
 10
-15.9615
 20
59.7003
 30
0.0
 10
-15.8842
 20
59.6425
 30
0.0
 10
-15.6891
 20
59.6439
 30
0.0
 10
-14.6731
 20
59.6506
 30
0.0
 10
-13.6564
 20
59.6509
 30
0.0
 10
-12.6404
 20
59.6404
 30
0.0
 10
-12.5498
 20
59.6393
 30
0.0
 10
-12.4598
 20
59.5437
 30
0.0
 10
-12.3695
 20
59.4922
 30
0.0
 10
-12.4577
 20
59.446
 30
0.0
 10
-12.5455
 20
59.3603
 30
0.0
 10
-12.6341
 20
59.3599
 30
0.0
 10
-14.0247
 20
59.3514
 30
0.0
 10
-15.4157
 20
59.3581
 30
0.0
 10
-16.8064
 20
59.35
 30
0.0
 10
-17.035
 20
59.3486
 30
0.0
 10
-17.0904
 20
59.4358
 30
0.0
 10
-17.0886
 20
59.6467
 30
0.0
 10
-17.0805
 20
60.6627
 30
0.0
 10
-17.0851
 20
61.6791
 30
0.0
 10
-17.0851
 20
62.6954
 30
0.0
 10
-17.0851
 20
62.6954
 30
0.0
 10
-17.0861
 20
62.6954
 30
0.0
 10
-17.0861
 20
62.6954
 30
0.0
  0
SPLINE
  5
69
330
1F
100
AcDbEntity
  8
Layer 1
 62
   250
370
    18
100
AcDbSpline
210
0.0
220
0.0
230
1.0
 70
    11
 71
     3
 72
    38
 73
    34
 74
     0
 42
0.0000000001
 43
0.0000000001
 40
0.0
 40
0.0
 40
0.0
 40
0.0
 40
0.0909090909090909
 40
0.0909090909090909
 40
0.0909090909090909
 40
0.1818181818181818
 40
0.1818181818181818
 40
0.1818181818181818
 40
0.2727272727272727
 40
0.2727272727272727
 40
0.2727272727272727
 40
0.3636363636363636
 40
0.3636363636363636
 40
0.3636363636363636
 40
0.4545454545454546
 40
0.4545454545454546
 40
0.4545454545454546
 40
0.5454545454545454
 40
0.5454545454545454
 40
0.5454545454545454
 40
0.6363636363636364
 40
0.6363636363636364
 40
0.6363636363636364
 40
0.7272727272727273
 40
0.7272727272727273
 40
0.7272727272727273
 40
0.8181818181818182
 40
0.8181818181818182
 40
0.8181818181818182
 40
0.9090909090909092
 40
0.9090909090909092
 40
0.9090909090909092
 40
1.0
 40
1.0
 40
1.0
 40
1.0
 10
-12.3888
 20
86.0099
 30
0.0
 10
-12.3888
 20
86.3373
 30
0.0
 10
-12.4173
 20
86.6682
 30
0.0
 10
-12.3824
 20
86.9917
 30
0.0
 10
-12.3231
 20
87.5438
 30
0.0
 10
-12.4763
 20
87.9305
 30
0.0
 10
-13.0435
 20
88.116
 30
0.0
 10
-13.2802
 20
88.1929
 30
0.0
 10
-13.4926
 20
88.3485
 30
0.0
 10
-13.7103
 20
88.4783
 30
0.0
 10
-13.9547
 20
88.624
 30
0.0
 10
-14.1498
 20
88.5951
 30
0.0
 10
-14.3502
 20
88.3803
 30
0.0
 10
-15.0265
 20
87.6542
 30
0.0
 10
-15.7186
 20
86.9434
 30
0.0
 10
-16.3917
 20
86.2142
 30
0.0
 10
-16.4408
 20
86.1609
 30
0.0
 10
-16.4245
 20
85.9694
 30
0.0
 10
-16.3677
 20
85.9083
 30
0.0
 10
-15.6756
 20
85.1689
 30
0.0
 10
-14.9789
 20
84.4334
 30
0.0
 10
-14.2585
 20
83.7218
 30
0.0
 10
-14.1629
 20
83.628
 30
0.0
 10
-13.9032
 20
83.6082
 30
0.0
 10
-13.766
 20
83.6654
 30
0.0
 10
-13.3783
 20
83.828
 30
0.0
 10
-13.0019
 20
84.0291
 30
0.0
 10
-12.6474
 20
84.2559
 30
0.0
 10
-12.5225
 20
84.336
 30
0.0
 10
-12.412
 20
84.53
 30
0.0
 10
-12.4011
 20
84.6796
 30
0.0
 10
-12.3687
 20
85.1209
 30
0.0
 10
-12.3895
 20
85.5661
 30
0.0
 10
-12.3888
 20
86.0099
 30
0.0
  0
SPLINE
  5
6A
330
1F
100
AcDbEntity
  8
Layer 1
 62
   250
370
    18
100
AcDbSpline
210
0.0
220
0.0
230
1.0
 70
    11
 71
     3
 72
    41
 73
    37
 74
     0
 42
0.0000000001
 43
0.0000000001
 40
0.0
 40
0.0
 40
0.0
 40
0.0
 40
0.0833333333333333
 40
0.0833333333333333
 40
0.0833333333333333
 40
0.1666666666666667
 40
0.1666666666666667
 40
0.1666666666666667
 40
0.25
 40
0.25
 40
0.25
 40
0.3333333333333333
 40
0.3333333333333333
 40
0.3333333333333333
 40
0.4166666666666666
 40
0.4166666666666666
 40
0.4166666666666666
 40
0.5
 40
0.5
 40
0.5
 40
0.5833333333333333
 40
0.5833333333333333
 40
0.5833333333333333
 40
0.6666666666666666
 40
0.6666666666666666
 40
0.6666666666666666
 40
0.75
 40
0.75
 40
0.75
 40
0.8333333333333333
 40
0.8333333333333333
 40
0.8333333333333333
 40
0.9166666666666666
 40
0.9166666666666666
 40
0.9166666666666666
 40
1.0
 40
1.0
 40
1.0
 40
1.0
 10
-11.3131
 20
86.0653
 30
0.0
 10
-11.3131
 20
85.3996
 30
0.0
 10
-11.2944
 20
84.7329
 30
0.0
 10
-11.3266
 20
84.069
 30
0.0
 10
-11.3343
 20
83.907
 30
0.0
 10
-11.4698
 20
83.6869
 30
0.0
 10
-11.6109
 20
83.6065
 30
0.0
 10
-12.3718
 20
83.1733
 30
0.0
 10
-13.1561
 20
82.7806
 30
0.0
 10
-13.9262
 20
82.3633
 30
0.0
 10
-14.1788
 20
82.226
 30
0.0
 10
-14.3559
 20
82.2514
 30
0.0
 10
-14.5622
 20
82.4698
 30
0.0
 10
-15.6128
 20
83.5832
 30
0.0
 10
-16.675
 20
84.6853
 30
0.0
 10
-17.7439
 20
85.7813
 30
0.0
 10
-17.9425
 20
85.9849
 30
0.0
 10
-17.9507
 20
86.1235
 30
0.0
 10
-17.7503
 20
86.3317
 30
0.0
 10
-16.6606
 20
87.4644
 30
0.0
 10
-15.587
 20
88.6131
 30
0.0
 10
-14.4917
 20
89.7399
 30
0.0
 10
-14.4
 20
89.8344
 30
0.0
 10
-14.1488
 20
89.8845
 30
0.0
 10
-14.0341
 20
89.8281
 30
0.0
 10
-13.2298
 20
89.4322
 30
0.0
 10
-12.4315
 20
89.0212
 30
0.0
 10
-11.6571
 20
88.5704
 30
0.0
 10
-11.4881
 20
88.4723
 30
0.0
 10
-11.3403
 20
88.2
 30
0.0
 10
-11.3273
 20
87.9982
 30
0.0
 10
-11.2853
 20
87.3561
 30
0.0
 10
-11.3117
 20
86.7098
 30
0.0
 10
-11.3117
 20
86.0653
 30
0.0
 10
-11.3117
 20
86.0653
 30
0.0
 10
-11.3131
 20
86.0653
 30
0.0
 10
-11.3131
 20
86.0653
 30
0.0
  0
SPLINE
  5
6B
330
1F
100
AcDbEntity
  8
Layer 1
 62
   250
370
    18
100
AcDbSpline
210
0.0
220
0.0
230
1.0
 70
    11
 71
     3
 72
    41
 73
    37
 74
     0
 42
0.0000000001
 43
0.0000000001
 40
0.0
 40
0.0
 40
0.0
 40
0.0
 40
0.0833333333333333
 40
0.0833333333333333
 40
0.0833333333333333
 40
0.1666666666666667
 40
0.1666666666666667
 40
0.1666666666666667
 40
0.25
 40
0.25
 40
0.25
 40
0.3333333333333333
 40
0.3333333333333333
 40
0.3333333333333333
 40
0.4166666666666666
 40
0.4166666666666666
 40
0.4166666666666666
 40
0.5
 40
0.5
 40
0.5
 40
0.5833333333333333
 40
0.5833333333333333
 40
0.5833333333333333
 40
0.6666666666666666
 40
0.6666666666666666
 40
0.6666666666666666
 40
0.75
 40
0.75
 40
0.75
 40
0.8333333333333333
 40
0.8333333333333333
 40
0.8333333333333333
 40
0.9166666666666666
 40
0.9166666666666666
 40
0.9166666666666666
 40
1.0
 40
1.0
 40
1.0
 40
1.0
 10
-26.7369
 20
86.0756
 30
0.0
 10
-26.7369
 20
86.0756
 30
0.0
 10
-26.7344
 20
86.0756
 30
0.0
 10
-26.7344
 20
86.0756
 30
0.0
 10
-26.7344
 20
85.6102
 30
0.0
 10
-26.7517
 20
85.1439
 30
0.0
 10
-26.7242
 20
84.6803
 30
0.0
 10
-26.7157
 20
84.5385
 30
0.0
 10
-26.619
 20
84.3501
 30
0.0
 10
-26.503
 20
84.2757
 30
0.0
 10
-26.14
 20
84.0421
 30
0.0
 10
-25.7579
 20
83.8305
 30
0.0
 10
-25.3624
 20
83.6576
 30
0.0
 10
-25.2259
 20
83.5983
 30
0.0
 10
-24.9624
 20
83.6125
 30
0.0
 10
-24.8689
 20
83.7052
 30
0.0
 10
-24.1429
 20
84.4277
 30
0.0
 10
-23.4402
 20
85.1735
 30
0.0
 10
-22.7448
 20
85.9256
 30
0.0
 10
-22.6863
 20
85.9891
 30
0.0
 10
-22.6842
 20
86.1997
 30
0.0
 10
-22.7417
 20
86.2615
 30
0.0
 10
-23.4278
 20
86.9942
 30
0.0
 10
-24.121
 20
87.7206
 30
0.0
 10
-24.8386
 20
88.4219
 30
0.0
 10
-24.9391
 20
88.5203
 30
0.0
 10
-25.2069
 20
88.5411
 30
0.0
 10
-25.3515
 20
88.4833
 30
0.0
 10
-25.7219
 20
88.3344
 30
0.0
 10
-26.0853
 20
88.1481
 30
0.0
 10
-26.4134
 20
87.922
 30
0.0
 10
-26.5665
 20
87.8165
 30
0.0
 10
-26.7041
 20
87.5904
 30
0.0
 10
-26.7224
 20
87.4066
 30
0.0
 10
-26.7672
 20
86.9667
 30
0.0
 10
-26.7369
 20
86.5197
 30
0.0
 10
-26.7369
 20
86.0756
 30
0.0
  0
SPLINE
  5
6C
330
1F
100
AcDbEntity
  8
Layer 1
 62
   250
370
    18
100
AcDbSpline
210
0.0
220
0.0
230
1.0
 70
    11
 71
     3
 72
    38
 73
    34
 74
     0
 42
0.0000000001
 43
0.0000000001
 40
0.0
 40
0.0
 40
0.0
 40
0.0
 40
0.0909090909090909
 40
0.0909090909090909
 40
0.0909090909090909
 40
0.1818181818181818
 40
0.1818181818181818
 40
0.1818181818181818
 40
0.2727272727272727
 40
0.2727272727272727
 40
0.2727272727272727
 40
0.3636363636363636
 40
0.3636363636363636
 40
0.3636363636363636
 40
0.4545454545454546
 40
0.4545454545454546
 40
0.4545454545454546
 40
0.5454545454545454
 40
0.5454545454545454
 40
0.5454545454545454
 40
0.6363636363636364
 40
0.6363636363636364
 40
0.6363636363636364
 40
0.7272727272727273
 40
0.7272727272727273
 40
0.7272727272727273
 40
0.8181818181818182
 40
0.8181818181818182
 40
0.8181818181818182
 40
0.9090909090909092
 40
0.9090909090909092
 40
0.9090909090909092
 40
1.0
 40
1.0
 40
1.0
 40
1.0
 10
-24.8841
 20
89.9293
 30
0.0
 10
-24.822
 20
89.8901
 30
0.0
 10
-24.7412
 20
89.858
 30
0.0
 10
-24.6865
 20
89.8012
 30
0.0
 10
-23.5467
 20
88.6138
 30
0.0
 10
-22.4069
 20
87.4267
 30
0.0
 10
-21.2798
 20
86.2269
 30
0.0
 10
-21.2247
 20
86.1683
 30
0.0
 10
-21.2395
 20
85.9546
 30
0.0
 10
-21.302
 20
85.8882
 30
0.0
 10
-22.4019
 20
84.7195
 30
0.0
 10
-23.5097
 20
83.5578
 30
0.0
 10
-24.6336
 20
82.412
 30
0.0
 10
-24.7232
 20
82.3209
 30
0.0
 10
-24.9772
 20
82.2878
 30
0.0
 10
-25.0965
 20
82.3467
 30
0.0
 10
-25.9011
 20
82.7425
 30
0.0
 10
-26.697
 20
83.1577
 30
0.0
 10
-27.477
 20
83.5994
 30
0.0
 10
-27.6298
 20
83.6862
 30
0.0
 10
-27.791
 20
83.9151
 30
0.0
 10
-27.7945
 20
84.0817
 30
0.0
 10
-27.8203
 20
85.4127
 30
0.0
 10
-27.8192
 20
86.7444
 30
0.0
 10
-27.7963
 20
88.0755
 30
0.0
 10
-27.7938
 20
88.2381
 30
0.0
 10
-27.653
 20
88.4667
 30
0.0
 10
-27.5102
 20
88.5475
 30
0.0
 10
-26.7019
 20
89.005
 30
0.0
 10
-25.874
 20
89.4269
 30
0.0
 10
-25.0524
 20
89.8602
 30
0.0
 10
-25.0065
 20
89.8841
 30
0.0
 10
-24.956
 20
89.9
 30
0.0
 10
-24.8841
 20
89.9293
 30
0.0
  0
SPLINE
  5
6D
330
1F
100
AcDbEntity
  8
Layer 1
 62
   250
370
    18
100
AcDbSpline
210
0.0
220
0.0
230
1.0
 70
    11
 71
     3
 72
    65
 73
    61
 74
     0
 42
0.0000000001
 43
0.0000000001
 40
0.0
 40
0.0
 40
0.0
 40
0.0
 40
0.05
 40
0.05
 40
0.05
 40
0.1
 40
0.1
 40
0.1
 40
0.15
 40
0.15
 40
0.15
 40
0.2
 40
0.2
 40
0.2
 40
0.25
 40
0.25
 40
0.25
 40
0.3
 40
0.3
 40
0.3
 40
0.35
 40
0.35
 40
0.35
 40
0.4
 40
0.4
 40
0.4
 40
0.45
 40
0.45
 40
0.45
 40
0.5
 40
0.5
 40
0.5
 40
0.55
 40
0.55
 40
0.55
 40
0.6000000000000001
 40
0.6000000000000001
 40
0.6000000000000001
 40
0.65
 40
0.65
 40
0.65
 40
0.7000000000000001
 40
0.7000000000000001
 40
0.7000000000000001
 40
0.75
 40
0.75
 40
0.75
 40
0.8
 40
0.8
 40
0.8
 40
0.8500000000000001
 40
0.8500000000000001
 40
0.8500000000000001
 40
0.9
 40
0.9
 40
0.9
 40
0.9500000000000001
 40
0.9500000000000001
 40
0.9500000000000001
 40
1.0
 40
1.0
 40
1.0
 40
1.0
 10
-5.6887
 20
62.7233
 30
0.0
 10
-5.6891
 20
63.7164
 30
0.0
 10
-5.6817
 20
64.7102
 30
0.0
 10
-5.6937
 20
65.7036
 30
0.0
 10
-5.6965
 20
65.9632
 30
0.0
 10
-5.6344
 20
66.0652
 30
0.0
 10
-5.3497
 20
66.0613
 30
0.0
 10
-4.1118
 20
66.0458
 30
0.0
 10
-2.8739
 20
66.0543
 30
0.0
 10
-1.6357
 20
66.0535
 30
0.0
 10
-1.5898
 20
66.0535
 30
0.0
 10
-1.5358
 20
66.0687
 30
0.0
 10
-1.4999
 20
66.0497
 30
0.0
 10
-1.4127
 20
66.0038
 30
0.0
 10
-1.3337
 20
65.9421
 30
0.0
 10
-1.2519
 20
65.8863
 30
0.0
 10
-1.3316
 20
65.8384
 30
0.0
 10
-1.4102
 20
65.7512
 30
0.0
 10
-1.4917
 20
65.7484
 30
0.0
 10
-1.896
 20
65.7339
 30
0.0
 10
-2.3014
 20
65.741
 30
0.0
 10
-2.7067
 20
65.741
 30
0.0
 10
-3.2338
 20
65.7406
 30
0.0
 10
-3.7612
 20
65.7364
 30
0.0
 10
-4.2882
 20
65.7431
 30
0.0
 10
-4.4692
 20
65.7456
 30
0.0
 10
-4.5496
 20
65.693
 30
0.0
 10
-4.5475
 20
65.4962
 30
0.0
 10
-4.5387
 20
64.7095
 30
0.0
 10
-4.5397
 20
63.9221
 30
0.0
 10
-4.5461
 20
63.135
 30
0.0
 10
-4.5475
 20
62.9551
 30
0.0
 10
-4.4798
 20
62.8934
 30
0.0
 10
-4.3034
 20
62.8948
 30
0.0
 10
-3.6236
 20
62.9004
 30
0.0
 10
-2.9431
 20
62.9032
 30
0.0
 10
-2.2633
 20
62.8881
 30
0.0
 10
-2.167
 20
62.8856
 30
0.0
 10
-2.0731
 20
62.7791
 30
0.0
 10
-1.9779
 20
62.7205
 30
0.0
 10
-2.0714
 20
62.6701
 30
0.0
 10
-2.1641
 20
62.5769
 30
0.0
 10
-2.2583
 20
62.5752
 30
0.0
 10
-2.8693
 20
62.5621
 30
0.0
 10
-3.4807
 20
62.5692
 30
0.0
 10
-4.0924
 20
62.5695
 30
0.0
 10
-4.5429
 20
62.5695
 30
0.0
 10
-4.5433
 20
62.5695
 30
0.0
 10
-4.5436
 20
62.1307
 30
0.0
 10
-4.544
 20
61.3055
 30
0.0
 10
-4.5496
 20
60.4804
 30
0.0
 10
-4.5397
 20
59.6552
 30
0.0
 10
-4.5369
 20
59.4305
 30
0.0
 10
-4.6001
 20
59.3479
 30
0.0
 10
-4.8371
 20
59.3497
 30
0.0
 10
-5.6887
 20
59.3557
 30
0.0
 10
-5.6887
 20
59.3476
 30
0.0
 10
-5.6887
 20
60.2017
 30
0.0
 10
-5.6887
 20
60.2017
 30
0.0
 10
-5.6887
 20
62.7233
 30
0.0
 10
-5.6887
 20
62.7233
 30
0.0
  0
SPLINE
  5
6E
330
1F
100
AcDbEntity
  8
Layer 1
 62
   250
370
    18
100
AcDbSpline
210
0.0
220
0.0
230
1.0
 70
    11
 71
     3
 72
    62
 73
    58
 74
     0
 42
0.0000000001
 43
0.0000000001
 40
0.0
 40
0.0
 40
0.0
 40
0.0
 40
0.0526315789473684
 40
0.0526315789473684
 40
0.0526315789473684
 40
0.1052631578947368
 40
0.1052631578947368
 40
0.1052631578947368
 40
0.1578947368421053
 40
0.1578947368421053
 40
0.1578947368421053
 40
0.2105263157894737
 40
0.2105263157894737
 40
0.2105263157894737
 40
0.2631578947368421
 40
0.2631578947368421
 40
0.2631578947368421
 40
0.3157894736842105
 40
0.3157894736842105
 40
0.3157894736842105
 40
0.3684210526315789
 40
0.3684210526315789
 40
0.3684210526315789
 40
0.4210526315789473
 40
0.4210526315789473
 40
0.4210526315789473
 40
0.4736842105263158
 40
0.4736842105263158
 40
0.4736842105263158
 40
0.5263157894736842
 40
0.5263157894736842
 40
0.5263157894736842
 40
0.5789473684210527
 40
0.5789473684210527
 40
0.5789473684210527
 40
0.631578947368421
 40
0.631578947368421
 40
0.631578947368421
 40
0.6842105263157894
 40
0.6842105263157894
 40
0.6842105263157894
 40
0.7368421052631579
 40
0.7368421052631579
 40
0.7368421052631579
 40
0.7894736842105263
 40
0.7894736842105263
 40
0.7894736842105263
 40
0.8421052631578947
 40
0.8421052631578947
 40
0.8421052631578947
 40
0.894736842105263
 40
0.894736842105263
 40
0.894736842105263
 40
0.9473684210526315
 40
0.9473684210526315
 40
0.9473684210526315
 40
1.0
 40
1.0
 40
1.0
 40
1.0
 10
-8.8066
 20
62.5208
 30
0.0
 10
-8.3987
 20
63.1699
 30
0.0
 10
-8.0167
 20
63.7766
 30
0.0
 10
-7.6367
 20
64.3841
 30
0.0
 10
-7.3291
 20
64.877
 30
0.0
 10
-7.0335
 20
65.3772
 30
0.0
 10
-6.7103
 20
65.8594
 30
0.0
 10
-6.6384
 20
65.9674
 30
0.0
 10
-6.4733
 20
66.0129
 30
0.0
 10
-6.3512
 20
66.0873
 30
0.0
 10
-6.3512
 20
66.0873
 30
0.0
 10
-6.2736
 20
65.9893
 30
0.0
 10
-6.2736
 20
65.9893
 30
0.0
 10
-6.408
 20
65.7646
 30
0.0
 10
-6.5393
 20
65.5377
 30
0.0
 10
-6.6775
 20
65.3158
 30
0.0
 10
-7.2794
 20
64.3496
 30
0.0
 10
-7.8911
 20
63.3897
 30
0.0
 10
-8.4792
 20
62.4149
 30
0.0
 10
-8.5903
 20
62.2311
 30
0.0
 10
-8.6545
 20
61.9934
 30
0.0
 10
-8.6623
 20
61.7778
 30
0.0
 10
-8.6852
 20
61.1054
 30
0.0
 10
-8.6894
 20
60.4316
 30
0.0
 10
-8.663
 20
59.7599
 30
0.0
 10
-8.6496
 20
59.4202
 30
0.0
 10
-8.7628
 20
59.307
 30
0.0
 10
-9.0877
 20
59.3503
 30
0.0
 10
-9.238
 20
59.3701
 30
0.0
 10
-9.3936
 20
59.363
 30
0.0
 10
-9.546
 20
59.3528
 30
0.0
 10
-9.728
 20
59.3398
 30
0.0
 10
-9.7869
 20
59.4188
 30
0.0
 10
-9.7852
 20
59.5938
 30
0.0
 10
-9.7792
 20
60.1519
 30
0.0
 10
-9.8222
 20
60.7135
 30
0.0
 10
-9.7735
 20
61.267
 30
0.0
 10
-9.7188
 20
61.8942
 30
0.0
 10
-9.934
 20
62.3959
 30
0.0
 10
-10.2695
 20
62.9025
 30
0.0
 10
-10.9112
 20
63.8698
 30
0.0
 10
-11.5088
 20
64.866
 30
0.0
 10
-12.1237
 20
65.8513
 30
0.0
 10
-12.1505
 20
65.8937
 30
0.0
 10
-12.165
 20
65.9438
 30
0.0
 10
-12.2052
 20
66.038
 30
0.0
 10
-11.7882
 20
66.038
 30
0.0
 10
-11.4041
 20
66.0485
 30
0.0
 10
-11.0216
 20
66.0277
 30
0.0
 10
-10.9539
 20
66.0245
 30
0.0
 10
-10.8809
 20
65.8997
 30
0.0
 10
-10.8308
 20
65.8178
 30
0.0
 10
-10.2025
 20
64.7877
 30
0.0
 10
-9.5784
 20
63.7551
 30
0.0
 10
-8.9519
 20
62.7236
 30
0.0
 10
-8.9173
 20
62.6672
 30
0.0
 10
-8.8746
 20
62.6157
 30
0.0
 10
-8.8066
 20
62.5208
 30
0.0
  0
SPLINE
  5
6F
330
1F
100
AcDbEntity
  8
Layer 1
 62
   250
370
    18
100
AcDbSpline
210
0.0
220
0.0
230
1.0
 70
    11
 71
     3
 72
    26
 73
    22
 74
     0
 42
0.0000000001
 43
0.0000000001
 40
0.0
 40
0.0
 40
0.0
 40
0.0
 40
0.1428571428571428
 40
0.1428571428571428
 40
0.1428571428571428
 40
0.2857142857142857
 40
0.2857142857142857
 40
0.2857142857142857
 40
0.4285714285714285
 40
0.4285714285714285
 40
0.4285714285714285
 40
0.5714285714285714
 40
0.5714285714285714
 40
0.5714285714285714
 40
0.7142857142857142
 40
0.7142857142857142
 40
0.7142857142857142
 40
0.8571428571428571
 40
0.8571428571428571
 40
0.8571428571428571
 40
1.0
 40
1.0
 40
1.0
 40
1.0
 10
-21.1496
 20
85.1125
 30
0.0
 10
-21.0484
 20
84.8221
 30
0.0
 10
-21.0117
 20
84.6824
 30
0.0
 10
-20.9524
 20
84.553
 30
0.0
 10
-20.648
 20
83.8845
 30
0.0
 10
-20.3573
 20
83.2089
 30
0.0
 10
-20.0186
 20
82.5577
 30
0.0
 10
-19.9022
 20
82.3343
 30
0.0
 10
-19.8588
 20
82.2077
 30
0.0
 10
-20.0596
 20
82.02
 30
0.0
 10
-20.7422
 20
81.3811
 30
0.0
 10
-20.7577
 20
81.3617
 30
0.0
 10
-21.247
 20
82.1534
 30
0.0
 10
-21.5398
 20
82.6272
 30
0.0
 10
-21.7575
 20
83.1479
 30
0.0
 10
-22.0009
 20
83.6513
 30
0.0
 10
-22.1205
 20
83.8996
 30
0.0
 10
-22.0633
 20
84.1056
 30
0.0
 10
-21.8573
 20
84.3039
 30
0.0
 10
-21.6252
 20
84.5269
 30
0.0
 10
-21.4298
 20
84.7883
 30
0.0
 10
-21.1496
 20
85.1125
 30
0.0
  0
SPLINE
  5
70
330
1F
100
AcDbEntity
  8
Layer 1
 62
   250
370
    18
100
AcDbSpline
210
0.0
220
0.0
230
1.0
 70
    11
 71
     3
 72
    26
 73
    22
 74
     0
 42
0.0000000001
 43
0.0000000001
 40
0.0
 40
0.0
 40
0.0
 40
0.0
 40
0.1428571428571428
 40
0.1428571428571428
 40
0.1428571428571428
 40
0.2857142857142857
 40
0.2857142857142857
 40
0.2857142857142857
 40
0.4285714285714285
 40
0.4285714285714285
 40
0.4285714285714285
 40
0.5714285714285714
 40
0.5714285714285714
 40
0.5714285714285714
 40
0.7142857142857142
 40
0.7142857142857142
 40
0.7142857142857142
 40
0.8571428571428571
 40
0.8571428571428571
 40
0.8571428571428571
 40
1.0
 40
1.0
 40
1.0
 40
1.0
 10
-18.0298
 20
87.0405
 30
0.0
 10
-18.1063
 20
87.3009
 30
0.0
 10
-18.1292
 20
87.4466
 30
0.0
 10
-18.1903
 20
87.5746
 30
0.0
 10
-18.4877
 20
88.2001
 30
0.0
 10
-18.772
 20
88.8337
 30
0.0
 10
-19.11
 20
89.437
 30
0.0
 10
-19.2426
 20
89.6747
 30
0.0
 10
-19.2359
 20
89.801
 30
0.0
 10
-19.0447
 20
89.9725
 30
0.0
 10
-18.3473
 20
90.5965
 30
0.0
 10
-18.3056
 20
90.6029
 30
0.0
 10
-17.8318
 20
89.7785
 30
0.0
 10
-17.5807
 20
89.341
 30
0.0
 10
-17.3549
 20
88.8827
 30
0.0
 10
-17.1785
 20
88.4111
 30
0.0
 10
-17.1196
 20
88.2537
 30
0.0
 10
-17.2
 20
87.9913
 30
0.0
 10
-17.3051
 20
87.8368
 30
0.0
 10
-17.4858
 20
87.5729
 30
0.0
 10
-17.7355
 20
87.3563
 30
0.0
 10
-18.0298
 20
87.0405
 30
0.0
  0
SPLINE
  5
71
330
1F
100
AcDbEntity
  8
Layer 1
 62
   250
370
    18
100
AcDbSpline
210
0.0
220
0.0
230
1.0
 70
    11
 71
     3
 72
    17
 73
    13
 74
     0
 42
0.0000000001
 43
0.0000000001
 40
0.0
 40
0.0
 40
0.0
 40
0.0
 40
0.25
 40
0.25
 40
0.25
 40
0.5
 40
0.5
 40
0.5
 40
0.75
 40
0.75
 40
0.75
 40
1.0
 40
1.0
 40
1.0
 40
1.0
 10
-11.4248
 20
55.6812
 30
0.0
 10
-11.4255
 20
55.1048
 30
0.0
 10
-11.41
 20
55.067
 30
0.0
 10
-11.1708
 20
55.0681
 30
0.0
 10
-10.539
 20
55.0713
 30
0.0
 10
-10.2825
 20
55.2371
 30
0.0
 10
-10.2815
 20
55.6435
 30
0.0
 10
-10.2801
 20
56.1088
 30
0.0
 10
-10.4529
 20
56.246
 30
0.0
 10
-11.0407
 20
56.2464
 30
0.0
 10
-11.4241
 20
56.2467
 30
0.0
 10
-11.4241
 20
56.2467
 30
0.0
 10
-11.4248
 20
55.6812
 30
0.0
  0
SPLINE
  5
72
330
1F
100
AcDbEntity
  8
Layer 1
 62
   250
370
    18
100
AcDbSpline
210
0.0
220
0.0
230
1.0
 70
    11
 71
     3
 72
    32
 73
    28
 74
     0
 42
0.0000000001
 43
0.0000000001
 40
0.0
 40
0.0
 40
0.0
 40
0.0
 40
0.1111111111111111
 40
0.1111111111111111
 40
0.1111111111111111
 40
0.2222222222222222
 40
0.2222222222222222
 40
0.2222222222222222
 40
0.3333333333333333
 40
0.3333333333333333
 40
0.3333333333333333
 40
0.4444444444444444
 40
0.4444444444444444
 40
0.4444444444444444
 40
0.5555555555555556
 40
0.5555555555555556
 40
0.5555555555555556
 40
0.6666666666666666
 40
0.6666666666666666
 40
0.6666666666666666
 40
0.7777777777777777
 40
0.7777777777777777
 40
0.7777777777777777
 40
0.8888888888888888
 40
0.8888888888888888
 40
0.8888888888888888
 40
1.0
 40
1.0
 40
1.0
 40
1.0
 10
-15.8587
 20
53.7761
 30
0.0
 10
-16.3829
 20
53.7761
 30
0.0
 10
-16.9075
 20
53.7697
 30
0.0
 10
-17.431
 20
53.7856
 30
0.0
 10
-17.4828
 20
53.787
 30
0.0
 10
-17.5717
 20
53.9228
 30
0.0
 10
-17.5728
 20
53.9973
 30
0.0
 10
-17.583
 20
54.731
 30
0.0
 10
-17.5851
 20
55.4648
 30
0.0
 10
-17.5668
 20
56.1982
 30
0.0
 10
-17.5647
 20
56.2737
 30
0.0
 10
-17.4162
 20
56.3457
 30
0.0
 10
-17.3357
 20
56.4191
 30
0.0
 10
-17.2708
 20
56.3372
 30
0.0
 10
-17.1516
 20
56.2564
 30
0.0
 10
-17.1498
 20
56.1732
 30
0.0
 10
-17.1343
 20
55.4863
 30
0.0
 10
-17.135
 20
54.7984
 30
0.0
 10
-17.1435
 20
54.1112
 30
0.0
 10
-17.1456
 20
53.9041
 30
0.0
 10
-17.0532
 20
53.8731
 30
0.0
 10
-16.8739
 20
53.8805
 30
0.0
 10
-16.5353
 20
53.8939
 30
0.0
 10
-16.1952
 20
53.8844
 30
0.0
 10
-15.8558
 20
53.8844
 30
0.0
 10
-15.8569
 20
53.8484
 30
0.0
 10
-15.8576
 20
53.8124
 30
0.0
 10
-15.8587
 20
53.7761
 30
0.0
  0
SPLINE
  5
73
330
1F
100
AcDbEntity
  8
Layer 1
 62
   250
370
    18
100
AcDbSpline
210
0.0
220
0.0
230
1.0
 70
    11
 71
     3
 72
    32
 73
    28
 74
     0
 42
0.0000000001
 43
0.0000000001
 40
0.0
 40
0.0
 40
0.0
 40
0.0
 40
0.1111111111111111
 40
0.1111111111111111
 40
0.1111111111111111
 40
0.2222222222222222
 40
0.2222222222222222
 40
0.2222222222222222
 40
0.3333333333333333
 40
0.3333333333333333
 40
0.3333333333333333
 40
0.4444444444444444
 40
0.4444444444444444
 40
0.4444444444444444
 40
0.5555555555555556
 40
0.5555555555555556
 40
0.5555555555555556
 40
0.6666666666666666
 40
0.6666666666666666
 40
0.6666666666666666
 40
0.7777777777777777
 40
0.7777777777777777
 40
0.7777777777777777
 40
0.8888888888888888
 40
0.8888888888888888
 40
0.8888888888888888
 40
1.0
 40
1.0
 40
1.0
 40
1.0
 10
-18.7529
 20
53.7764
 30
0.0
 10
-19.2598
 20
53.7764
 30
0.0
 10
-19.7668
 20
53.7704
 30
0.0
 10
-20.2733
 20
53.7849
 30
0.0
 10
-20.3238
 20
53.7863
 30
0.0
 10
-20.4123
 20
53.9084
 30
0.0
 10
-20.4134
 20
53.975
 30
0.0
 10
-20.4243
 20
54.7152
 30
0.0
 10
-20.4286
 20
55.4556
 30
0.0
 10
-20.4113
 20
56.1954
 30
0.0
 10
-20.4095
 20
56.272
 30
0.0
 10
-20.2599
 20
56.345
 30
0.0
 10
-20.1788
 20
56.4198
 30
0.0
 10
-20.1061
 20
56.3379
 30
0.0
 10
-19.9728
 20
56.2572
 30
0.0
 10
-19.9703
 20
56.1735
 30
0.0
 10
-19.9523
 20
55.5251
 30
0.0
 10
-19.9495
 20
54.876
 30
0.0
 10
-19.965
 20
54.2276
 30
0.0
 10
-19.9714
 20
53.9532
 30
0.0
 10
-19.892
 20
53.8378
 30
0.0
 10
-19.6034
 20
53.86
 30
0.0
 10
-19.3208
 20
53.8819
 30
0.0
 10
-19.0351
 20
53.865
 30
0.0
 10
-18.7508
 20
53.865
 30
0.0
 10
-18.7515
 20
53.8353
 30
0.0
 10
-18.7522
 20
53.8057
 30
0.0
 10
-18.7529
 20
53.7764
 30
0.0
  0
SPLINE
  5
74
330
1F
100
AcDbEntity
  8
Layer 1
 62
   250
370
    18
100
AcDbSpline
210
0.0
220
0.0
230
1.0
 70
    11
 71
     3
 72
    41
 73
    37
 74
     0
 42
0.0000000001
 43
0.0000000001
 40
0.0
 40
0.0
 40
0.0
 40
0.0
 40
0.0833333333333333
 40
0.0833333333333333
 40
0.0833333333333333
 40
0.1666666666666667
 40
0.1666666666666667
 40
0.1666666666666667
 40
0.25
 40
0.25
 40
0.25
 40
0.3333333333333333
 40
0.3333333333333333
 40
0.3333333333333333
 40
0.4166666666666666
 40
0.4166666666666666
 40
0.4166666666666666
 40
0.5
 40
0.5
 40
0.5
 40
0.5833333333333333
 40
0.5833333333333333
 40
0.5833333333333333
 40
0.6666666666666666
 40
0.6666666666666666
 40
0.6666666666666666
 40
0.75
 40
0.75
 40
0.75
 40
0.8333333333333333
 40
0.8333333333333333
 40
0.8333333333333333
 40
0.9166666666666666
 40
0.9166666666666666
 40
0.9166666666666666
 40
1.0
 40
1.0
 40
1.0
 40
1.0
 10
-32.9641
 20
54.9326
 30
0.0
 10
-32.9948
 20
54.8821
 30
0.0
 10
-33.0272
 20
54.8327
 30
0.0
 10
-33.0554
 20
54.7809
 30
0.0
 10
-33.1881
 20
54.5389
 30
0.0
 10
-33.181
 20
54.263
 30
0.0
 10
-32.9898
 20
54.1028
 30
0.0
 10
-32.8244
 20
53.9649
 30
0.0
 10
-32.5453
 20
53.8721
 30
0.0
 10
-32.3354
 20
53.9004
 30
0.0
 10
-32.0938
 20
53.9332
 30
0.0
 10
-31.9375
 20
54.1632
 30
0.0
 10
-31.9378
 20
54.4468
 30
0.0
 10
-31.9393
 20
55.0045
 30
0.0
 10
-31.9382
 20
55.5626
 30
0.0
 10
-31.934
 20
56.1204
 30
0.0
 10
-31.9329
 20
56.253
 30
0.0
 10
-31.9604
 20
56.4005
 30
0.0
 10
-31.7378
 20
56.4058
 30
0.0
 10
-31.5329
 20
56.4104
 30
0.0
 10
-31.4873
 20
56.3021
 30
0.0
 10
-31.4884
 20
56.1398
 30
0.0
 10
-31.4919
 20
55.599
 30
0.0
 10
-31.4771
 20
55.0568
 30
0.0
 10
-31.5113
 20
54.5174
 30
0.0
 10
-31.548
 20
53.942
 30
0.0
 10
-32.1432
 20
53.5874
 30
0.0
 10
-32.7087
 20
53.7705
 30
0.0
 10
-33.1906
 20
53.9261
 30
0.0
 10
-33.3938
 20
54.293
 30
0.0
 10
-33.2311
 20
54.7414
 30
0.0
 10
-33.1962
 20
54.838
 30
0.0
 10
-33.1013
 20
54.9128
 30
0.0
 10
-33.0339
 20
54.9978
 30
0.0
 10
-33.0106
 20
54.976
 30
0.0
 10
-32.9874
 20
54.9545
 30
0.0
 10
-32.9641
 20
54.9326
 30
0.0
  0
SPLINE
  5
75
330
1F
100
AcDbEntity
  8
Layer 1
 62
   250
370
    18
100
AcDbSpline
210
0.0
220
0.0
230
1.0
 70
    11
 71
     3
 72
    44
 73
    40
 74
     0
 42
0.0000000001
 43
0.0000000001
 40
0.0
 40
0.0
 40
0.0
 40
0.0
 40
0.0769230769230769
 40
0.0769230769230769
 40
0.0769230769230769
 40
0.1538461538461539
 40
0.1538461538461539
 40
0.1538461538461539
 40
0.2307692307692308
 40
0.2307692307692308
 40
0.2307692307692308
 40
0.3076923076923077
 40
0.3076923076923077
 40
0.3076923076923077
 40
0.3846153846153846
 40
0.3846153846153846
 40
0.3846153846153846
 40
0.4615384615384616
 40
0.4615384615384616
 40
0.4615384615384616
 40
0.5384615384615385
 40
0.5384615384615385
 40
0.5384615384615385
 40
0.6153846153846154
 40
0.6153846153846154
 40
0.6153846153846154
 40
0.6923076923076923
 40
0.6923076923076923
 40
0.6923076923076923
 40
0.7692307692307693
 40
0.7692307692307693
 40
0.7692307692307693
 40
0.8461538461538463
 40
0.8461538461538463
 40
0.8461538461538463
 40
0.9230769230769231
 40
0.9230769230769231
 40
0.9230769230769231
 40
1.0
 40
1.0
 40
1.0
 40
1.0
 10
-7.6731
 20
55.0594
 30
0.0
 10
-7.3697
 20
55.5264
 30
0.0
 10
-7.0847
 20
55.9639
 30
0.0
 10
-6.8
 20
56.4017
 30
0.0
 10
-6.7753
 20
56.3893
 30
0.0
 10
-6.7502
 20
56.3766
 30
0.0
 10
-6.7248
 20
56.3639
 30
0.0
 10
-6.739
 20
56.3153
 30
0.0
 10
-6.7421
 20
56.2599
 30
0.0
 10
-6.7679
 20
56.2186
 30
0.0
 10
-6.9482
 20
55.9268
 30
0.0
 10
-7.1023
 20
55.6111
 30
0.0
 10
-7.3246
 20
55.355
 30
0.0
 10
-7.6685
 20
54.9574
 30
0.0
 10
-7.6276
 20
54.4985
 30
0.0
 10
-7.6258
 20
54.0374
 30
0.0
 10
-7.6255
 20
53.8821
 30
0.0
 10
-7.6583
 20
53.7389
 30
0.0
 10
-7.8463
 20
53.7784
 30
0.0
 10
-7.9324
 20
53.7968
 30
0.0
 10
-8.071
 20
53.9234
 30
0.0
 10
-8.0622
 20
53.982
 30
0.0
 10
-7.9543
 20
54.6727
 30
0.0
 10
-8.2527
 20
55.2213
 30
0.0
 10
-8.6373
 20
55.7469
 30
0.0
 10
-8.7135
 20
55.851
 30
0.0
 10
-8.7794
 20
55.9649
 30
0.0
 10
-8.8341
 20
56.0817
 30
0.0
 10
-8.8793
 20
56.178
 30
0.0
 10
-8.9011
 20
56.2856
 30
0.0
 10
-8.9332
 20
56.3879
 30
0.0
 10
-8.7477
 20
56.4066
 30
0.0
 10
-8.5614
 20
56.4677
 30
0.0
 10
-8.433
 20
56.2429
 30
0.0
 10
-8.2439
 20
55.9124
 30
0.0
 10
-8.0333
 20
55.5942
 30
0.0
 10
-7.8305
 20
55.2717
 30
0.0
 10
-7.7913
 20
55.2097
 30
0.0
 10
-7.743
 20
55.1532
 30
0.0
 10
-7.6731
 20
55.0594
 30
0.0
  0
SPLINE
  5
76
330
1F
100
AcDbEntity
  8
Layer 1
 62
   250
370
    18
100
AcDbSpline
210
0.0
220
0.0
230
1.0
 70
    11
 71
     3
 72
    59
 73
    55
 74
     0
 42
0.0000000001
 43
0.0000000001
 40
0.0
 40
0.0
 40
0.0
 40
0.0
 40
0.0555555555555556
 40
0.0555555555555556
 40
0.0555555555555556
 40
0.1111111111111111
 40
0.1111111111111111
 40
0.1111111111111111
 40
0.1666666666666667
 40
0.1666666666666667
 40
0.1666666666666667
 40
0.2222222222222222
 40
0.2222222222222222
 40
0.2222222222222222
 40
0.2777777777777778
 40
0.2777777777777778
 40
0.2777777777777778
 40
0.3333333333333333
 40
0.3333333333333333
 40
0.3333333333333333
 40
0.3888888888888888
 40
0.3888888888888888
 40
0.3888888888888888
 40
0.4444444444444444
 40
0.4444444444444444
 40
0.4444444444444444
 40
0.5
 40
0.5
 40
0.5
 40
0.5555555555555556
 40
0.5555555555555556
 40
0.5555555555555556
 40
0.611111111111111
 40
0.611111111111111
 40
0.611111111111111
 40
0.6666666666666666
 40
0.6666666666666666
 40
0.6666666666666666
 40
0.7222222222222222
 40
0.7222222222222222
 40
0.7222222222222222
 40
0.7777777777777777
 40
0.7777777777777777
 40
0.7777777777777777
 40
0.8333333333333333
 40
0.8333333333333333
 40
0.8333333333333333
 40
0.8888888888888888
 40
0.8888888888888888
 40
0.8888888888888888
 40
0.9444444444444444
 40
0.9444444444444444
 40
0.9444444444444444
 40
1.0
 40
1.0
 40
1.0
 40
1.0
 10
-21.9472
 20
55.0559
 30
0.0
 10
-22.1475
 20
55.0559
 30
0.0
 10
-22.349
 20
55.0429
 30
0.0
 10
-22.548
 20
55.0594
 30
0.0
 10
-22.7935
 20
55.0792
 30
0.0
 10
-22.8764
 20
54.979
 30
0.0
 10
-22.857
 20
54.7412
 30
0.0
 10
-22.8408
 20
54.544
 30
0.0
 10
-22.8432
 20
54.3433
 30
0.0
 10
-22.8584
 20
54.1457
 30
0.0
 10
-22.8757
 20
53.9161
 30
0.0
 10
-22.7727
 20
53.8554
 30
0.0
 10
-22.5607
 20
53.8635
 30
0.0
 10
-22.228
 20
53.8766
 30
0.0
 10
-21.895
 20
53.8671
 30
0.0
 10
-21.5327
 20
53.8671
 30
0.0
 10
-21.5658
 20
53.8173
 30
0.0
 10
-21.5764
 20
53.7877
 30
0.0
 10
-21.587
 20
53.7877
 30
0.0
 10
-22.114
 20
53.7817
 30
0.0
 10
-22.6407
 20
53.7722
 30
0.0
 10
-23.1671
 20
53.7824
 30
0.0
 10
-23.2179
 20
53.7831
 30
0.0
 10
-23.3078
 20
53.9023
 30
0.0
 10
-23.3089
 20
53.9676
 30
0.0
 10
-23.3188
 20
54.7162
 30
0.0
 10
-23.3202
 20
55.4655
 30
0.0
 10
-23.3064
 20
56.2141
 30
0.0
 10
-23.3054
 20
56.2829
 30
0.0
 10
-23.1875
 20
56.4067
 30
0.0
 10
-23.1219
 20
56.4081
 30
0.0
 10
-22.6418
 20
56.4169
 30
0.0
 10
-22.161
 20
56.4028
 30
0.0
 10
-21.6805
 20
56.3919
 30
0.0
 10
-21.6424
 20
56.3908
 30
0.0
 10
-21.6046
 20
56.3605
 30
0.0
 10
-21.5665
 20
56.2744
 30
0.0
 10
-21.6776
 20
56.2652
 30
0.0
 10
-21.7888
 20
56.2504
 30
0.0
 10
-21.9003
 20
56.2483
 30
0.0
 10
-22.137
 20
56.2437
 30
0.0
 10
-22.374
 20
56.2423
 30
0.0
 10
-22.6107
 20
56.2469
 30
0.0
 10
-22.7868
 20
56.2504
 30
0.0
 10
-22.8496
 20
56.1686
 30
0.0
 10
-22.857
 20
55.9964
 30
0.0
 10
-22.8891
 20
55.2252
 30
0.0
 10
-22.8926
 20
55.226
 30
0.0
 10
-22.1289
 20
55.1917
 30
0.0
 10
-22.0657
 20
55.1889
 30
0.0
 10
-22.0036
 20
55.172
 30
0.0
 10
-21.9408
 20
55.1617
 30
0.0
 10
-21.9429
 20
55.1261
 30
0.0
 10
-21.9451
 20
55.0912
 30
0.0
 10
-21.9472
 20
55.0559
 30
0.0
  0
SPLINE
  5
77
330
1F
100
AcDbEntity
  8
Layer 1
 62
   250
370
    18
100
AcDbSpline
210
0.0
220
0.0
230
1.0
 70
    11
 71
     3
 72
    59
 73
    55
 74
     0
 42
0.0000000001
 43
0.0000000001
 40
0.0
 40
0.0
 40
0.0
 40
0.0
 40
0.0555555555555556
 40
0.0555555555555556
 40
0.0555555555555556
 40
0.1111111111111111
 40
0.1111111111111111
 40
0.1111111111111111
 40
0.1666666666666667
 40
0.1666666666666667
 40
0.1666666666666667
 40
0.2222222222222222
 40
0.2222222222222222
 40
0.2222222222222222
 40
0.2777777777777778
 40
0.2777777777777778
 40
0.2777777777777778
 40
0.3333333333333333
 40
0.3333333333333333
 40
0.3333333333333333
 40
0.3888888888888888
 40
0.3888888888888888
 40
0.3888888888888888
 40
0.4444444444444444
 40
0.4444444444444444
 40
0.4444444444444444
 40
0.5
 40
0.5
 40
0.5
 40
0.5555555555555556
 40
0.5555555555555556
 40
0.5555555555555556
 40
0.611111111111111
 40
0.611111111111111
 40
0.611111111111111
 40
0.6666666666666666
 40
0.6666666666666666
 40
0.6666666666666666
 40
0.7222222222222222
 40
0.7222222222222222
 40
0.7222222222222222
 40
0.7777777777777777
 40
0.7777777777777777
 40
0.7777777777777777
 40
0.8333333333333333
 40
0.8333333333333333
 40
0.8333333333333333
 40
0.8888888888888888
 40
0.8888888888888888
 40
0.8888888888888888
 40
0.9444444444444444
 40
0.9444444444444444
 40
0.9444444444444444
 40
1.0
 40
1.0
 40
1.0
 40
1.0
 10
-28.574
 20
53.7692
 30
0.0
 10
-28.574
 20
53.7692
 30
0.0
 10
-29.5191
 20
53.7692
 30
0.0
 10
-29.5191
 20
53.7692
 30
0.0
 10
-30.3266
 20
53.7692
 30
0.0
 10
-30.3269
 20
53.7692
 30
0.0
 10
-30.3266
 20
54.5866
 30
0.0
 10
-30.3266
 20
55.1066
 30
0.0
 10
-30.3231
 20
55.6266
 30
0.0
 10
-30.3273
 20
56.1462
 30
0.0
 10
-30.3287
 20
56.3416
 30
0.0
 10
-30.2419
 20
56.4253
 30
0.0
 10
-30.05
 20
56.4207
 30
0.0
 10
-29.5851
 20
56.4087
 30
0.0
 10
-29.1197
 20
56.4016
 30
0.0
 10
-28.6548
 20
56.3903
 30
0.0
 10
-28.629
 20
56.3896
 30
0.0
 10
-28.6036
 20
56.3688
 30
0.0
 10
-28.4936
 20
56.3194
 30
0.0
 10
-28.6509
 20
56.2841
 30
0.0
 10
-28.7285
 20
56.2531
 30
0.0
 10
-28.8068
 20
56.251
 30
0.0
 10
-29.0742
 20
56.2443
 30
0.0
 10
-29.3438
 20
56.264
 30
0.0
 10
-29.6087
 20
56.2369
 30
0.0
 10
-29.6958
 20
56.2281
 30
0.0
 10
-29.772
 20
56.1074
 30
0.0
 10
-29.8514
 20
56.0358
 30
0.0
 10
-29.8602
 20
56.0277
 30
0.0
 10
-29.857
 20
56.0065
 30
0.0
 10
-29.8592
 20
55.9913
 30
0.0
 10
-29.9558
 20
55.2604
 30
0.0
 10
-29.9061
 20
55.2032
 30
0.0
 10
-29.1744
 20
55.1919
 30
0.0
 10
-29.0894
 20
55.1909
 30
0.0
 10
-29.0047
 20
55.1718
 30
0.0
 10
-28.9197
 20
55.1609
 30
0.0
 10
-28.9208
 20
55.1263
 30
0.0
 10
-28.9215
 20
55.091
 30
0.0
 10
-28.9225
 20
55.0561
 30
0.0
 10
-29.1257
 20
55.0561
 30
0.0
 10
-29.33
 20
55.0445
 30
0.0
 10
-29.5325
 20
55.0593
 30
0.0
 10
-29.7759
 20
55.0773
 30
0.0
 10
-29.8712
 20
54.9947
 30
0.0
 10
-29.8701
 20
54.7372
 30
0.0
 10
-29.8676
 20
53.8651
 30
0.0
 10
-29.8757
 20
53.8651
 30
0.0
 10
-29.0086
 20
53.8651
 30
0.0
 10
-29.0086
 20
53.8651
 30
0.0
 10
-28.5789
 20
53.8651
 30
0.0
 10
-28.5789
 20
53.8651
 30
0.0
 10
-28.5772
 20
53.8334
 30
0.0
 10
-28.5758
 20
53.8013
 30
0.0
 10
-28.574
 20
53.7692
 30
0.0
  0
SPLINE
  5
78
330
1F
100
AcDbEntity
  8
Layer 1
 62
   250
370
    18
100
AcDbSpline
210
0.0
220
0.0
230
1.0
 70
    11
 71
     3
 72
    59
 73
    55
 74
     0
 42
0.0000000001
 43
0.0000000001
 40
0.0
 40
0.0
 40
0.0
 40
0.0
 40
0.0555555555555556
 40
0.0555555555555556
 40
0.0555555555555556
 40
0.1111111111111111
 40
0.1111111111111111
 40
0.1111111111111111
 40
0.1666666666666667
 40
0.1666666666666667
 40
0.1666666666666667
 40
0.2222222222222222
 40
0.2222222222222222
 40
0.2222222222222222
 40
0.2777777777777778
 40
0.2777777777777778
 40
0.2777777777777778
 40
0.3333333333333333
 40
0.3333333333333333
 40
0.3333333333333333
 40
0.3888888888888888
 40
0.3888888888888888
 40
0.3888888888888888
 40
0.4444444444444444
 40
0.4444444444444444
 40
0.4444444444444444
 40
0.5
 40
0.5
 40
0.5
 40
0.5555555555555556
 40
0.5555555555555556
 40
0.5555555555555556
 40
0.611111111111111
 40
0.611111111111111
 40
0.611111111111111
 40
0.6666666666666666
 40
0.6666666666666666
 40
0.6666666666666666
 40
0.7222222222222222
 40
0.7222222222222222
 40
0.7222222222222222
 40
0.7777777777777777
 40
0.7777777777777777
 40
0.7777777777777777
 40
0.8333333333333333
 40
0.8333333333333333
 40
0.8333333333333333
 40
0.8888888888888888
 40
0.8888888888888888
 40
0.8888888888888888
 40
0.9444444444444444
 40
0.9444444444444444
 40
0.9444444444444444
 40
1.0
 40
1.0
 40
1.0
 40
1.0
 10
-13.0206
 20
56.2972
 30
0.0
 10
-13.1014
 20
56.2806
 30
0.0
 10
-13.1822
 20
56.2517
 30
0.0
 10
-13.2629
 20
56.2499
 30
0.0
 10
-13.5455
 20
56.2432
 30
0.0
 10
-13.8295
 20
56.2598
 30
0.0
 10
-14.11
 20
56.2355
 30
0.0
 10
-14.1837
 20
56.2291
 30
0.0
 10
-14.2479
 20
56.107
 30
0.0
 10
-14.3156
 20
56.0376
 30
0.0
 10
-14.3195
 20
56.0333
 30
0.0
 10
-14.316
 20
56.0227
 30
0.0
 10
-14.3163
 20
56.0146
 30
0.0
 10
-14.3492
 20
55.2223
 30
0.0
 10
-14.3492
 20
55.223
 30
0.0
 10
-13.5826
 20
55.193
 30
0.0
 10
-13.5251
 20
55.1909
 30
0.0
 10
-13.4683
 20
55.1768
 30
0.0
 10
-13.4108
 20
55.1687
 30
0.0
 10
-13.4086
 20
55.1394
 30
0.0
 10
-13.4058
 20
55.1105
 30
0.0
 10
-13.4034
 20
55.0815
 30
0.0
 10
-13.5632
 20
55.0727
 30
0.0
 10
-13.723
 20
55.0582
 30
0.0
 10
-13.8828
 20
55.0572
 30
0.0
 10
-14.3192
 20
55.0544
 30
0.0
 10
-14.3192
 20
55.0561
 30
0.0
 10
-14.3185
 20
54.6169
 30
0.0
 10
-14.3167
 20
53.9008
 30
0.0
 10
-14.3167
 20
53.9036
 30
0.0
 10
-13.602
 20
53.8997
 30
0.0
 10
-13.4069
 20
53.8987
 30
0.0
 10
-13.2118
 20
53.8757
 30
0.0
 10
-13.0104
 20
53.8122
 30
0.0
 10
-13.0442
 20
53.7981
 30
0.0
 10
-13.0781
 20
53.7713
 30
0.0
 10
-13.1123
 20
53.7713
 30
0.0
 10
-13.5935
 20
53.7688
 30
0.0
 10
-14.0747
 20
53.7604
 30
0.0
 10
-14.5552
 20
53.7801
 30
0.0
 10
-14.6314
 20
53.7837
 30
0.0
 10
-14.7647
 20
53.9188
 30
0.0
 10
-14.7665
 20
53.9953
 30
0.0
 10
-14.782
 20
54.728
 30
0.0
 10
-14.7785
 20
55.4611
 30
0.0
 10
-14.7686
 20
56.1938
 30
0.0
 10
-14.7675
 20
56.2658
 30
0.0
 10
-14.6889
 20
56.3974
 30
0.0
 10
-14.6434
 20
56.3988
 30
0.0
 10
-14.1071
 20
56.4133
 30
0.0
 10
-13.5706
 20
56.408
 30
0.0
 10
-13.034
 20
56.408
 30
0.0
 10
-13.0294
 20
56.3709
 30
0.0
 10
-13.0252
 20
56.3339
 30
0.0
 10
-13.0206
 20
56.2972
 30
0.0
  0
SPLINE
  5
79
330
1F
100
AcDbEntity
  8
Layer 1
 62
   250
370
    18
100
AcDbSpline
210
0.0
220
0.0
230
1.0
 70
    11
 71
     3
 72
    68
 73
    64
 74
     0
 42
0.0000000001
 43
0.0000000001
 40
0.0
 40
0.0
 40
0.0
 40
0.0
 40
0.0476190476190476
 40
0.0476190476190476
 40
0.0476190476190476
 40
0.0952380952380952
 40
0.0952380952380952
 40
0.0952380952380952
 40
0.1428571428571428
 40
0.1428571428571428
 40
0.1428571428571428
 40
0.1904761904761905
 40
0.1904761904761905
 40
0.1904761904761905
 40
0.2380952380952381
 40
0.2380952380952381
 40
0.2380952380952381
 40
0.2857142857142857
 40
0.2857142857142857
 40
0.2857142857142857
 40
0.3333333333333333
 40
0.3333333333333333
 40
0.3333333333333333
 40
0.3809523809523809
 40
0.3809523809523809
 40
0.3809523809523809
 40
0.4285714285714285
 40
0.4285714285714285
 40
0.4285714285714285
 40
0.4761904761904762
 40
0.4761904761904762
 40
0.4761904761904762
 40
0.5238095238095237
 40
0.5238095238095237
 40
0.5238095238095237
 40
0.5714285714285714
 40
0.5714285714285714
 40
0.5714285714285714
 40
0.6190476190476191
 40
0.6190476190476191
 40
0.6190476190476191
 40
0.6666666666666666
 40
0.6666666666666666
 40
0.6666666666666666
 40
0.7142857142857142
 40
0.7142857142857142
 40
0.7142857142857142
 40
0.7619047619047619
 40
0.7619047619047619
 40
0.7619047619047619
 40
0.8095238095238095
 40
0.8095238095238095
 40
0.8095238095238095
 40
0.8571428571428571
 40
0.8571428571428571
 40
0.8571428571428571
 40
0.9047619047619047
 40
0.9047619047619047
 40
0.9047619047619047
 40
0.9523809523809523
 40
0.9523809523809523
 40
0.9523809523809523
 40
1.0
 40
1.0
 40
1.0
 40
1.0
 10
-25.0982
 20
54.5295
 30
0.0
 10
-24.8661
 20
55.1387
 30
0.0
 10
-24.6343
 20
55.748
 30
0.0
 10
-24.4022
 20
56.3576
 30
0.0
 10
-24.368
 20
56.3456
 30
0.0
 10
-24.3334
 20
56.334
 30
0.0
 10
-24.2992
 20
56.3223
 30
0.0
 10
-24.3609
 20
56.1205
 30
0.0
 10
-24.4131
 20
55.9149
 30
0.0
 10
-24.4858
 20
55.7169
 30
0.0
 10
-24.6989
 20
55.1377
 30
0.0
 10
-24.9187
 20
54.5605
 30
0.0
 10
-25.1402
 20
53.9845
 30
0.0
 10
-25.1656
 20
53.9185
 30
0.0
 10
-25.2206
 20
53.8638
 30
0.0
 10
-25.2616
 20
53.8038
 30
0.0
 10
-25.3127
 20
53.8627
 30
0.0
 10
-25.3843
 20
53.9135
 30
0.0
 10
-25.4122
 20
53.9816
 30
0.0
 10
-25.59
 20
54.4155
 30
0.0
 10
-25.7579
 20
54.853
 30
0.0
 10
-25.9639
 20
55.3779
 30
0.0
 10
-26.1879
 20
54.787
 30
0.0
 10
-26.3788
 20
54.2836
 30
0.0
 10
-26.6028
 20
53.6934
 30
0.0
 10
-26.6967
 20
53.8642
 30
0.0
 10
-26.751
 20
53.9418
 30
0.0
 10
-26.7845
 20
54.0271
 30
0.0
 10
-27.054
 20
54.7161
 30
0.0
 10
-27.325
 20
55.4051
 30
0.0
 10
-27.5807
 20
56.0997
 30
0.0
 10
-27.6114
 20
56.183
 30
0.0
 10
-27.5521
 20
56.299
 30
0.0
 10
-27.5345
 20
56.3999
 30
0.0
 10
-27.411
 20
56.3474
 30
0.0
 10
-27.2142
 20
56.3265
 30
0.0
 10
-27.1757
 20
56.2373
 30
0.0
 10
-26.9637
 20
55.7473
 30
0.0
 10
-26.7916
 20
55.2407
 30
0.0
 10
-26.6028
 20
54.7408
 30
0.0
 10
-26.5774
 20
54.6731
 30
0.0
 10
-26.5368
 20
54.6113
 30
0.0
 10
-26.4589
 20
54.5461
 30
0.0
 10
-26.3439
 20
55.0079
 30
0.0
 10
-25.917
 20
55.3892
 30
0.0
 10
-26.1629
 20
55.9272
 30
0.0
 10
-26.1943
 20
55.9963
 30
0.0
 10
-26.2317
 20
56.0701
 30
0.0
 10
-26.2345
 20
56.1431
 30
0.0
 10
-26.2373
 20
56.2299
 30
0.0
 10
-26.2063
 20
56.3177
 30
0.0
 10
-26.1901
 20
56.4052
 30
0.0
 10
-26.0736
 20
56.3615
 30
0.0
 10
-25.8863
 20
56.3484
 30
0.0
 10
-25.8521
 20
56.2694
 30
0.0
 10
-25.6408
 20
55.7801
 30
0.0
 10
-25.4644
 20
55.2756
 30
0.0
 10
-25.2753
 20
54.7768
 30
0.0
 10
-25.2443
 20
54.6946
 30
0.0
 10
-25.2093
 20
54.6138
 30
0.0
 10
-25.1762
 20
54.5327
 30
0.0
 10
-25.1762
 20
54.5327
 30
0.0
 10
-25.0982
 20
54.5295
 30
0.0
 10
-25.0982
 20
54.5295
 30
0.0
  0
SPLINE
  5
7A
330
1F
100
AcDbEntity
  8
Layer 1
 62
   250
370
    18
100
AcDbSpline
210
0.0
220
0.0
230
1.0
 70
    11
 71
     3
 72
    47
 73
    43
 74
     0
 42
0.0000000001
 43
0.0000000001
 40
0.0
 40
0.0
 40
0.0
 40
0.0
 40
0.0714285714285714
 40
0.0714285714285714
 40
0.0714285714285714
 40
0.1428571428571428
 40
0.1428571428571428
 40
0.1428571428571428
 40
0.2142857142857143
 40
0.2142857142857143
 40
0.2142857142857143
 40
0.2857142857142857
 40
0.2857142857142857
 40
0.2857142857142857
 40
0.3571428571428571
 40
0.3571428571428571
 40
0.3571428571428571
 40
0.4285714285714285
 40
0.4285714285714285
 40
0.4285714285714285
 40
0.5
 40
0.5
 40
0.5
 40
0.5714285714285714
 40
0.5714285714285714
 40
0.5714285714285714
 40
0.6428571428571428
 40
0.6428571428571428
 40
0.6428571428571428
 40
0.7142857142857142
 40
0.7142857142857142
 40
0.7142857142857142
 40
0.7857142857142857
 40
0.7857142857142857
 40
0.7857142857142857
 40
0.8571428571428571
 40
0.8571428571428571
 40
0.8571428571428571
 40
0.9285714285714285
 40
0.9285714285714285
 40
0.9285714285714285
 40
1.0
 40
1.0
 40
1.0
 40
1.0
 10
-10.2339
 20
55.042
 30
0.0
 10
-10.0543
 20
54.6645
 30
0.0
 10
-9.88
 20
54.3075
 30
0.0
 10
-9.717
 20
53.9455
 30
0.0
 10
-9.6987
 20
53.905
 30
0.0
 10
-9.7513
 20
53.7868
 30
0.0
 10
-9.7558
 20
53.7875
 30
0.0
 10
-9.903
 20
53.8143
 30
0.0
 10
-10.1002
 20
53.8058
 30
0.0
 10
-10.1806
 20
53.8979
 30
0.0
 10
-10.2921
 20
54.0263
 30
0.0
 10
-10.3153
 20
54.2313
 30
0.0
 10
-10.3771
 20
54.4034
 30
0.0
 10
-10.5559
 20
54.9009
 30
0.0
 10
-10.6882
 20
54.9975
 30
0.0
 10
-11.2065
 20
54.9492
 30
0.0
 10
-11.2851
 20
54.9414
 30
0.0
 10
-11.4044
 20
54.8183
 30
0.0
 10
-11.4139
 20
54.7375
 30
0.0
 10
-11.4425
 20
54.4966
 30
0.0
 10
-11.4061
 20
54.2475
 30
0.0
 10
-11.4375
 20
54.0069
 30
0.0
 10
-11.4488
 20
53.9201
 30
0.0
 10
-11.5808
 20
53.8492
 30
0.0
 10
-11.658
 20
53.7709
 30
0.0
 10
-11.7219
 20
53.8471
 30
0.0
 10
-11.8397
 20
53.9223
 30
0.0
 10
-11.8411
 20
53.9992
 30
0.0
 10
-11.8552
 20
54.7174
 30
0.0
 10
-11.8464
 20
55.4357
 30
0.0
 10
-11.8517
 20
56.1536
 30
0.0
 10
-11.8528
 20
56.3286
 30
0.0
 10
-11.8203
 20
56.4199
 30
0.0
 10
-11.609
 20
56.4026
 30
0.0
 10
-11.3141
 20
56.3787
 30
0.0
 10
-11.0149
 20
56.4072
 30
0.0
 10
-10.7189
 20
56.3885
 30
0.0
 10
-10.3443
 20
56.3645
 30
0.0
 10
-9.9749
 20
56.3067
 30
0.0
 10
-9.8483
 20
55.8657
 30
0.0
 10
-9.7294
 20
55.453
 30
0.0
 10
-9.9523
 20
55.2021
 30
0.0
 10
-10.2339
 20
55.042
 30
0.0
  0
SPLINE
  5
7B
330
1F
100
AcDbEntity
  8
Layer 1
 62
   250
370
    18
100
AcDbSpline
210
0.0
220
0.0
230
1.0
 70
    11
 71
     3
 72
    17
 73
    13
 74
     0
 42
0.0000000001
 43
0.0000000001
 40
0.0
 40
0.0
 40
0.0
 40
0.0
 40
0.25
 40
0.25
 40
0.25
 40
0.5
 40
0.5
 40
0.5
 40
0.75
 40
0.75
 40
0.75
 40
1.0
 40
1.0
 40
1.0
 40
1.0
 10
-34.1466
 20
44.2783
 30
0.0
 10
-34.1466
 20
43.1998
 30
0.0
 10
-33.815
 20
42.5874
 30
0.0
 10
-33.3045
 20
42.5874
 30
0.0
 10
-32.7302
 20
42.5874
 30
0.0
 10
-32.4558
 20
43.2573
 30
0.0
 10
-32.4558
 20
44.3164
 30
0.0
 10
-32.4558
 20
45.3373
 30
0.0
 10
-32.7175
 20
46.0069
 30
0.0
 10
-33.2982
 20
46.0069
 30
0.0
 10
-33.7893
 20
46.0069
 30
0.0
 10
-34.1466
 20
45.4075
 30
0.0
 10
-34.1466
 20
44.2783
 30
0.0
  0
SPLINE
  5
7C
330
1F
100
AcDbEntity
  8
Layer 1
 62
   250
370
    18
100
AcDbSpline
210
0.0
220
0.0
230
1.0
 70
    11
 71
     3
 72
    17
 73
    13
 74
     0
 42
0.0000000001
 43
0.0000000001
 40
0.0
 40
0.0
 40
0.0
 40
0.0
 40
0.25
 40
0.25
 40
0.25
 40
0.5
 40
0.5
 40
0.5
 40
0.75
 40
0.75
 40
0.75
 40
1.0
 40
1.0
 40
1.0
 40
1.0
 10
-31.8945
 20
44.3421
 30
0.0
 10
-31.8945
 20
42.9321
 30
0.0
 10
-32.4177
 20
42.1538
 30
0.0
 10
-33.3363
 20
42.1538
 30
0.0
 10
-34.1466
 20
42.1538
 30
0.0
 10
-34.6952
 20
42.913
 30
0.0
 10
-34.7079
 20
44.2846
 30
0.0
 10
-34.7079
 20
45.6756
 30
0.0
 10
-34.1082
 20
46.4411
 30
0.0
 10
-33.2661
 20
46.4411
 30
0.0
 10
-32.3919
 20
46.4411
 30
0.0
 10
-31.8945
 20
45.6629
 30
0.0
 10
-31.8945
 20
44.3421
 30
0.0
  0
SPLINE
  5
7D
330
1F
100
AcDbEntity
  8
Layer 1
 62
   250
370
    18
100
AcDbSpline
210
0.0
220
0.0
230
1.0
 70
    11
 71
     3
 72
    20
 73
    16
 74
     0
 42
0.0000000001
 43
0.0000000001
 40
0.0
 40
0.0
 40
0.0
 40
0.0
 40
0.2
 40
0.2
 40
0.2
 40
0.4
 40
0.4
 40
0.4
 40
0.6000000000000001
 40
0.6000000000000001
 40
0.6000000000000001
 40
0.8
 40
0.8
 40
0.8
 40
1.0
 40
1.0
 40
1.0
 40
1.0
 10
-30.8474
 20
45.0052
 30
0.0
 10
-30.8474
 20
44.4884
 30
0.0
 10
-30.5348
 20
44.125
 30
0.0
 10
-30.0501
 20
44.125
 30
0.0
 10
-29.6737
 20
44.125
 30
0.0
 10
-29.3798
 20
44.3099
 30
0.0
 10
-29.2334
 20
44.5589
 30
0.0
 10
-29.2013
 20
44.6097
 30
0.0
 10
-29.1823
 20
44.6739
 30
0.0
 10
-29.1823
 20
44.7632
 30
0.0
 10
-29.1823
 20
45.4712
 30
0.0
 10
-29.4437
 20
46.0131
 30
0.0
 10
-30.0307
 20
46.0131
 30
0.0
 10
-30.5094
 20
46.0131
 30
0.0
 10
-30.8474
 20
45.5926
 30
0.0
 10
-30.8474
 20
45.0052
 30
0.0
  0
SPLINE
  5
7E
330
1F
100
AcDbEntity
  8
Layer 1
 62
   250
370
    18
100
AcDbSpline
210
0.0
220
0.0
230
1.0
 70
    11
 71
     3
 72
    41
 73
    37
 74
     0
 42
0.0000000001
 43
0.0000000001
 40
0.0
 40
0.0
 40
0.0
 40
0.0
 40
0.0833333333333333
 40
0.0833333333333333
 40
0.0833333333333333
 40
0.1666666666666667
 40
0.1666666666666667
 40
0.1666666666666667
 40
0.25
 40
0.25
 40
0.25
 40
0.3333333333333333
 40
0.3333333333333333
 40
0.3333333333333333
 40
0.4166666666666666
 40
0.4166666666666666
 40
0.4166666666666666
 40
0.5
 40
0.5
 40
0.5
 40
0.5833333333333333
 40
0.5833333333333333
 40
0.5833333333333333
 40
0.6666666666666666
 40
0.6666666666666666
 40
0.6666666666666666
 40
0.75
 40
0.75
 40
0.75
 40
0.8333333333333333
 40
0.8333333333333333
 40
0.8333333333333333
 40
0.9166666666666666
 40
0.9166666666666666
 40
0.9166666666666666
 40
1.0
 40
1.0
 40
1.0
 40
1.0
 10
-31.0517
 20
42.619
 30
0.0
 10
-30.9303
 20
42.6063
 30
0.0
 10
-30.7899
 20
42.619
 30
0.0
 10
-30.5983
 20
42.6384
 30
0.0
 10
-30.2734
 20
42.6832
 30
0.0
 10
-29.9669
 20
42.8173
 30
0.0
 10
-29.7309
 20
43.0406
 30
0.0
 10
-29.4568
 20
43.2893
 30
0.0
 10
-29.2588
 20
43.653
 30
0.0
 10
-29.1823
 20
44.1444
 30
0.0
 10
-29.1823
 20
44.1444
 30
0.0
 10
-29.2013
 20
44.1444
 30
0.0
 10
-29.2013
 20
44.1444
 30
0.0
 10
-29.431
 20
43.8633
 30
0.0
 10
-29.763
 20
43.6975
 30
0.0
 10
-30.1778
 20
43.6975
 30
0.0
 10
-30.924
 20
43.6975
 30
0.0
 10
-31.4027
 20
44.2594
 30
0.0
 10
-31.4027
 20
44.9675
 30
0.0
 10
-31.4027
 20
45.7517
 30
0.0
 10
-30.8347
 20
46.441
 30
0.0
 10
-29.9859
 20
46.441
 30
0.0
 10
-29.1375
 20
46.441
 30
0.0
 10
-28.6143
 20
45.7517
 30
0.0
 10
-28.6143
 20
44.6926
 30
0.0
 10
-28.6143
 20
43.7804
 30
0.0
 10
-28.9209
 20
43.1429
 30
0.0
 10
-29.329
 20
42.7467
 30
0.0
 10
-29.648
 20
42.4342
 30
0.0
 10
-30.0882
 20
42.2426
 30
0.0
 10
-30.5348
 20
42.1918
 30
0.0
 10
-30.7387
 20
42.16
 30
0.0
 10
-30.9176
 20
42.1537
 30
0.0
 10
-31.0517
 20
42.16
 30
0.0
 10
-31.0517
 20
42.16
 30
0.0
 10
-31.0517
 20
42.619
 30
0.0
 10
-31.0517
 20
42.619
 30
0.0
  0
SPLINE
  5
7F
330
1F
100
AcDbEntity
  8
Layer 1
 62
   250
370
    18
100
AcDbSpline
210
0.0
220
0.0
230
1.0
 70
    11
 71
     3
 72
    17
 73
    13
 74
     0
 42
0.0000000001
 43
0.0000000001
 40
0.0
 40
0.0
 40
0.0
 40
0.0
 40
0.25
 40
0.25
 40
0.25
 40
0.5
 40
0.5
 40
0.5
 40
0.75
 40
0.75
 40
0.75
 40
1.0
 40
1.0
 40
1.0
 40
1.0
 10
-27.5996
 20
44.2783
 30
0.0
 10
-27.5996
 20
43.1998
 30
0.0
 10
-27.2679
 20
42.5874
 30
0.0
 10
-26.7575
 20
42.5874
 30
0.0
 10
-26.1832
 20
42.5874
 30
0.0
 10
-25.9087
 20
43.2573
 30
0.0
 10
-25.9087
 20
44.3164
 30
0.0
 10
-25.9087
 20
45.3373
 30
0.0
 10
-26.1705
 20
46.0069
 30
0.0
 10
-26.7511
 20
46.0069
 30
0.0
 10
-27.2422
 20
46.0069
 30
0.0
 10
-27.5996
 20
45.4075
 30
0.0
 10
-27.5996
 20
44.2783
 30
0.0
  0
SPLINE
  5
80
330
1F
100
AcDbEntity
  8
Layer 1
 62
   250
370
    18
100
AcDbSpline
210
0.0
220
0.0
230
1.0
 70
    11
 71
     3
 72
    17
 73
    13
 74
     0
 42
0.0000000001
 43
0.0000000001
 40
0.0
 40
0.0
 40
0.0
 40
0.0
 40
0.25
 40
0.25
 40
0.25
 40
0.5
 40
0.5
 40
0.5
 40
0.75
 40
0.75
 40
0.75
 40
1.0
 40
1.0
 40
1.0
 40
1.0
 10
-25.3474
 20
44.3421
 30
0.0
 10
-25.3474
 20
42.9321
 30
0.0
 10
-25.8706
 20
42.1538
 30
0.0
 10
-26.7892
 20
42.1538
 30
0.0
 10
-27.5996
 20
42.1538
 30
0.0
 10
-28.1481
 20
42.913
 30
0.0
 10
-28.1608
 20
44.2846
 30
0.0
 10
-28.1608
 20
45.6756
 30
0.0
 10
-27.5615
 20
46.4411
 30
0.0
 10
-26.719
 20
46.4411
 30
0.0
 10
-25.8448
 20
46.4411
 30
0.0
 10
-25.3474
 20
45.6629
 30
0.0
 10
-25.3474
 20
44.3421
 30
0.0
  0
SPLINE
  5
81
330
1F
100
AcDbEntity
  8
Layer 1
 62
   250
370
    18
100
AcDbSpline
210
0.0
220
0.0
230
1.0
 70
    11
 71
     3
 72
    50
 73
    46
 74
     0
 42
0.0000000001
 43
0.0000000001
 40
0.0
 40
0.0
 40
0.0
 40
0.0
 40
0.0666666666666667
 40
0.0666666666666667
 40
0.0666666666666667
 40
0.1333333333333333
 40
0.1333333333333333
 40
0.1333333333333333
 40
0.2
 40
0.2
 40
0.2
 40
0.2666666666666667
 40
0.2666666666666667
 40
0.2666666666666667
 40
0.3333333333333333
 40
0.3333333333333333
 40
0.3333333333333333
 40
0.4
 40
0.4
 40
0.4
 40
0.4666666666666667
 40
0.4666666666666667
 40
0.4666666666666667
 40
0.5333333333333333
 40
0.5333333333333333
 40
0.5333333333333333
 40
0.6
 40
0.6
 40
0.6
 40
0.6666666666666666
 40
0.6666666666666666
 40
0.6666666666666666
 40
0.7333333333333333
 40
0.7333333333333333
 40
0.7333333333333333
 40
0.8
 40
0.8
 40
0.8
 40
0.8666666666666667
 40
0.8666666666666667
 40
0.8666666666666667
 40
0.9333333333333333
 40
0.9333333333333333
 40
0.9333333333333333
 40
1.0
 40
1.0
 40
1.0
 40
1.0
 10
-22.3544
 20
45.8985
 30
0.0
 10
-22.3544
 20
45.8985
 30
0.0
 10
-23.9369
 20
45.8985
 30
0.0
 10
-23.9369
 20
45.8985
 30
0.0
 10
-23.9369
 20
45.8985
 30
0.0
 10
-24.096
 20
44.8331
 30
0.0
 10
-24.096
 20
44.8331
 30
0.0
 10
-24.0008
 20
44.8462
 30
0.0
 10
-23.9112
 20
44.8589
 30
0.0
 10
-23.7581
 20
44.8589
 30
0.0
 10
-23.4392
 20
44.8589
 30
0.0
 10
-23.1203
 20
44.7887
 30
0.0
 10
-22.8649
 20
44.6352
 30
0.0
 10
-22.5392
 20
44.4507
 30
0.0
 10
-22.2715
 20
44.093
 30
0.0
 10
-22.2715
 20
43.5698
 30
0.0
 10
-22.2715
 20
42.7595
 30
0.0
 10
-22.916
 20
42.1538
 30
0.0
 10
-23.8156
 20
42.1538
 30
0.0
 10
-24.2686
 20
42.1538
 30
0.0
 10
-24.6513
 20
42.2811
 30
0.0
 10
-24.8492
 20
42.4088
 30
0.0
 10
-24.8492
 20
42.4088
 30
0.0
 10
-24.7088
 20
42.836
 30
0.0
 10
-24.7088
 20
42.836
 30
0.0
 10
-24.5367
 20
42.7341
 30
0.0
 10
-24.1984
 20
42.6064
 30
0.0
 10
-23.8219
 20
42.6064
 30
0.0
 10
-23.2924
 20
42.6064
 30
0.0
 10
-22.8395
 20
42.951
 30
0.0
 10
-22.8395
 20
43.506
 30
0.0
 10
-22.8458
 20
44.0422
 30
0.0
 10
-23.2032
 20
44.425
 30
0.0
 10
-24.0325
 20
44.425
 30
0.0
 10
-24.2686
 20
44.425
 30
0.0
 10
-24.4538
 20
44.3996
 30
0.0
 10
-24.6065
 20
44.3798
 30
0.0
 10
-24.6065
 20
44.3798
 30
0.0
 10
-24.3388
 20
46.3709
 30
0.0
 10
-24.3388
 20
46.3709
 30
0.0
 10
-24.3388
 20
46.3709
 30
0.0
 10
-22.3544
 20
46.3709
 30
0.0
 10
-22.3544
 20
46.3709
 30
0.0
 10
-22.3544
 20
46.3709
 30
0.0
 10
-22.3544
 20
45.8985
 30
0.0
 10
-22.3544
 20
45.8985
 30
0.0
  0
SPLINE
  5
82
330
1F
100
AcDbEntity
  8
Layer 1
 62
   250
370
    18
100
AcDbSpline
210
0.0
220
0.0
230
1.0
 70
    11
 71
     3
 72
    50
 73
    46
 74
     0
 42
0.0000000001
 43
0.0000000001
 40
0.0
 40
0.0
 40
0.0
 40
0.0
 40
0.0666666666666667
 40
0.0666666666666667
 40
0.0666666666666667
 40
0.1333333333333333
 40
0.1333333333333333
 40
0.1333333333333333
 40
0.2
 40
0.2
 40
0.2
 40
0.2666666666666667
 40
0.2666666666666667
 40
0.2666666666666667
 40
0.3333333333333333
 40
0.3333333333333333
 40
0.3333333333333333
 40
0.4
 40
0.4
 40
0.4
 40
0.4666666666666667
 40
0.4666666666666667
 40
0.4666666666666667
 40
0.5333333333333333
 40
0.5333333333333333
 40
0.5333333333333333
 40
0.6
 40
0.6
 40
0.6
 40
0.6666666666666666
 40
0.6666666666666666
 40
0.6666666666666666
 40
0.7333333333333333
 40
0.7333333333333333
 40
0.7333333333333333
 40
0.8
 40
0.8
 40
0.8
 40
0.8666666666666667
 40
0.8666666666666667
 40
0.8666666666666667
 40
0.9333333333333333
 40
0.9333333333333333
 40
0.9333333333333333
 40
1.0
 40
1.0
 40
1.0
 40
1.0
 10
-19.0812
 20
45.8985
 30
0.0
 10
-19.0812
 20
45.8985
 30
0.0
 10
-20.6634
 20
45.8985
 30
0.0
 10
-20.6634
 20
45.8985
 30
0.0
 10
-20.6634
 20
45.8985
 30
0.0
 10
-20.8229
 20
44.8331
 30
0.0
 10
-20.8229
 20
44.8331
 30
0.0
 10
-20.7273
 20
44.8462
 30
0.0
 10
-20.638
 20
44.8589
 30
0.0
 10
-20.4846
 20
44.8589
 30
0.0
 10
-20.166
 20
44.8589
 30
0.0
 10
-19.8464
 20
44.7887
 30
0.0
 10
-19.5917
 20
44.6352
 30
0.0
 10
-19.2661
 20
44.4507
 30
0.0
 10
-18.9983
 20
44.093
 30
0.0
 10
-18.9983
 20
43.5698
 30
0.0
 10
-18.9983
 20
42.7595
 30
0.0
 10
-19.6425
 20
42.1538
 30
0.0
 10
-20.5421
 20
42.1538
 30
0.0
 10
-20.995
 20
42.1538
 30
0.0
 10
-21.3781
 20
42.2811
 30
0.0
 10
-21.5757
 20
42.4088
 30
0.0
 10
-21.5757
 20
42.4088
 30
0.0
 10
-21.4353
 20
42.836
 30
0.0
 10
-21.4353
 20
42.836
 30
0.0
 10
-21.2631
 20
42.7341
 30
0.0
 10
-20.9248
 20
42.6064
 30
0.0
 10
-20.5488
 20
42.6064
 30
0.0
 10
-20.0189
 20
42.6064
 30
0.0
 10
-19.5663
 20
42.951
 30
0.0
 10
-19.5663
 20
43.506
 30
0.0
 10
-19.5723
 20
44.0422
 30
0.0
 10
-19.9293
 20
44.425
 30
0.0
 10
-20.759
 20
44.425
 30
0.0
 10
-20.995
 20
44.425
 30
0.0
 10
-21.1799
 20
44.3996
 30
0.0
 10
-21.3333
 20
44.3798
 30
0.0
 10
-21.3333
 20
44.3798
 30
0.0
 10
-21.0656
 20
46.3709
 30
0.0
 10
-21.0656
 20
46.3709
 30
0.0
 10
-21.0656
 20
46.3709
 30
0.0
 10
-19.0812
 20
46.3709
 30
0.0
 10
-19.0812
 20
46.3709
 30
0.0
 10
-19.0812
 20
46.3709
 30
0.0
 10
-19.0812
 20
45.8985
 30
0.0
 10
-19.0812
 20
45.8985
 30
0.0
  0
SPLINE
  5
83
330
1F
100
AcDbEntity
  8
Layer 1
 62
   250
370
    18
100
AcDbSpline
210
0.0
220
0.0
230
1.0
 70
    11
 71
     3
 72
    20
 73
    16
 74
     0
 42
0.0000000001
 43
0.0000000001
 40
0.0
 40
0.0
 40
0.0
 40
0.0
 40
0.2
 40
0.2
 40
0.2
 40
0.4
 40
0.4
 40
0.4
 40
0.6000000000000001
 40
0.6000000000000001
 40
0.6000000000000001
 40
0.8
 40
0.8
 40
0.8
 40
1.0
 40
1.0
 40
1.0
 40
1.0
 10
-16.0757
 20
43.5827
 30
0.0
 10
-16.0757
 20
44.1761
 30
0.0
 10
-16.4136
 20
44.5335
 30
0.0
 10
-16.9305
 20
44.5335
 30
0.0
 10
-17.2684
 20
44.5335
 30
0.0
 10
-17.581
 20
44.3229
 30
0.0
 10
-17.7344
 20
44.023
 30
0.0
 10
-17.7725
 20
43.9591
 30
0.0
 10
-17.7979
 20
43.8759
 30
0.0
 10
-17.7979
 20
43.7743
 30
0.0
 10
-17.7852
 20
43.0913
 30
0.0
 10
-17.4723
 20
42.5875
 30
0.0
 10
-16.8857
 20
42.5875
 30
0.0
 10
-16.4009
 20
42.5875
 30
0.0
 10
-16.0757
 20
42.989
 30
0.0
 10
-16.0757
 20
43.5827
 30
0.0
  0
SPLINE
  5
84
330
1F
100
AcDbEntity
  8
Layer 1
 62
   250
370
    18
100
AcDbSpline
210
0.0
220
0.0
230
1.0
 70
    11
 71
     3
 72
    38
 73
    34
 74
     0
 42
0.0000000001
 43
0.0000000001
 40
0.0
 40
0.0
 40
0.0
 40
0.0
 40
0.0909090909090909
 40
0.0909090909090909
 40
0.0909090909090909
 40
0.1818181818181818
 40
0.1818181818181818
 40
0.1818181818181818
 40
0.2727272727272727
 40
0.2727272727272727
 40
0.2727272727272727
 40
0.3636363636363636
 40
0.3636363636363636
 40
0.3636363636363636
 40
0.4545454545454546
 40
0.4545454545454546
 40
0.4545454545454546
 40
0.5454545454545454
 40
0.5454545454545454
 40
0.5454545454545454
 40
0.6363636363636364
 40
0.6363636363636364
 40
0.6363636363636364
 40
0.7272727272727273
 40
0.7272727272727273
 40
0.7272727272727273
 40
0.8181818181818182
 40
0.8181818181818182
 40
0.8181818181818182
 40
0.9090909090909092
 40
0.9090909090909092
 40
0.9090909090909092
 40
1.0
 40
1.0
 40
1.0
 40
1.0
 10
-15.9159
 20
45.9753
 30
0.0
 10
-16.0305
 20
45.9816
 30
0.0
 10
-16.1773
 20
45.9753
 30
0.0
 10
-16.3371
 20
45.9499
 30
0.0
 10
-17.2176
 20
45.8031
 30
0.0
 10
-17.6833
 20
45.1589
 30
0.0
 10
-17.7789
 20
44.4756
 30
0.0
 10
-17.7789
 20
44.4756
 30
0.0
 10
-17.7595
 20
44.4756
 30
0.0
 10
-17.7595
 20
44.4756
 30
0.0
 10
-17.5619
 20
44.7374
 30
0.0
 10
-17.2176
 20
44.9547
 30
0.0
 10
-16.7583
 20
44.9547
 30
0.0
 10
-16.0242
 20
44.9547
 30
0.0
 10
-15.5077
 20
44.4252
 30
0.0
 10
-15.5077
 20
43.6145
 30
0.0
 10
-15.5077
 20
42.855
 30
0.0
 10
-16.0242
 20
42.1536
 30
0.0
 10
-16.8857
 20
42.1536
 30
0.0
 10
-17.7725
 20
42.1536
 30
0.0
 10
-18.3532
 20
42.8423
 30
0.0
 10
-18.3532
 20
43.921
 30
0.0
 10
-18.3532
 20
44.7374
 30
0.0
 10
-18.0593
 20
45.3819
 30
0.0
 10
-17.6512
 20
45.7904
 30
0.0
 10
-17.3065
 20
46.1284
 30
0.0
 10
-16.8476
 20
46.3386
 30
0.0
 10
-16.324
 20
46.4025
 30
0.0
 10
-16.1582
 20
46.4282
 30
0.0
 10
-16.0178
 20
46.4346
 30
0.0
 10
-15.9159
 20
46.4346
 30
0.0
 10
-15.9159
 20
46.4346
 30
0.0
 10
-15.9159
 20
45.9753
 30
0.0
 10
-15.9159
 20
45.9753
 30
0.0
  0
SPLINE
  5
85
330
1F
100
AcDbEntity
  8
Layer 1
 62
   250
370
    18
100
AcDbSpline
210
0.0
220
0.0
230
1.0
 70
    11
 71
     3
 72
    47
 73
    43
 74
     0
 42
0.0000000001
 43
0.0000000001
 40
0.0
 40
0.0
 40
0.0
 40
0.0
 40
0.0714285714285714
 40
0.0714285714285714
 40
0.0714285714285714
 40
0.1428571428571428
 40
0.1428571428571428
 40
0.1428571428571428
 40
0.2142857142857143
 40
0.2142857142857143
 40
0.2142857142857143
 40
0.2857142857142857
 40
0.2857142857142857
 40
0.2857142857142857
 40
0.3571428571428571
 40
0.3571428571428571
 40
0.3571428571428571
 40
0.4285714285714285
 40
0.4285714285714285
 40
0.4285714285714285
 40
0.5
 40
0.5
 40
0.5
 40
0.5714285714285714
 40
0.5714285714285714
 40
0.5714285714285714
 40
0.6428571428571428
 40
0.6428571428571428
 40
0.6428571428571428
 40
0.7142857142857142
 40
0.7142857142857142
 40
0.7142857142857142
 40
0.7857142857142857
 40
0.7857142857142857
 40
0.7857142857142857
 40
0.8571428571428571
 40
0.8571428571428571
 40
0.8571428571428571
 40
0.9285714285714285
 40
0.9285714285714285
 40
0.9285714285714285
 40
1.0
 40
1.0
 40
1.0
 40
1.0
 10
-15.0094
 20
42.2236
 30
0.0
 10
-15.0094
 20
42.2236
 30
0.0
 10
-15.0094
 20
42.5683
 30
0.0
 10
-15.0094
 20
42.5683
 30
0.0
 10
-15.0094
 20
42.5683
 30
0.0
 10
-14.5692
 20
42.9955
 30
0.0
 10
-14.5692
 20
42.9955
 30
0.0
 10
-13.5101
 20
44.0037
 30
0.0
 10
-13.0318
 20
44.5396
 30
0.0
 10
-13.0251
 20
45.1651
 30
0.0
 10
-13.0251
 20
45.5859
 30
0.0
 10
-13.2293
 20
45.9754
 30
0.0
 10
-13.8485
 20
45.9754
 30
0.0
 10
-14.2242
 20
45.9754
 30
0.0
 10
-14.5371
 20
45.7842
 30
0.0
 10
-14.7283
 20
45.6244
 30
0.0
 10
-14.7283
 20
45.6244
 30
0.0
 10
-14.9071
 20
46.0199
 30
0.0
 10
-14.9071
 20
46.0199
 30
0.0
 10
-14.62
 20
46.2622
 30
0.0
 10
-14.2115
 20
46.4411
 30
0.0
 10
-13.7334
 20
46.4411
 30
0.0
 10
-12.8406
 20
46.4411
 30
0.0
 10
-12.4638
 20
45.8287
 30
0.0
 10
-12.4638
 20
45.2349
 30
0.0
 10
-12.4638
 20
44.4694
 30
0.0
 10
-13.0187
 20
43.8506
 30
0.0
 10
-13.8929
 20
43.0089
 30
0.0
 10
-13.8929
 20
43.0089
 30
0.0
 10
-14.2242
 20
42.702
 30
0.0
 10
-14.2242
 20
42.702
 30
0.0
 10
-14.2242
 20
42.702
 30
0.0
 10
-14.2242
 20
42.6893
 30
0.0
 10
-14.2242
 20
42.6893
 30
0.0
 10
-14.2242
 20
42.6893
 30
0.0
 10
-12.3615
 20
42.6893
 30
0.0
 10
-12.3615
 20
42.6893
 30
0.0
 10
-12.3615
 20
42.6893
 30
0.0
 10
-12.3615
 20
42.2236
 30
0.0
 10
-12.3615
 20
42.2236
 30
0.0
 10
-12.3615
 20
42.2236
 30
0.0
 10
-15.0094
 20
42.2236
 30
0.0
 10
-15.0094
 20
42.2236
 30
0.0
  0
SPLINE
  5
86
330
1F
100
AcDbEntity
  8
Layer 1
 62
   250
370
    18
100
AcDbSpline
210
0.0
220
0.0
230
1.0
 70
    11
 71
     3
 72
    17
 73
    13
 74
     0
 42
0.0000000001
 43
0.0000000001
 40
0.0
 40
0.0
 40
0.0
 40
0.0
 40
0.25
 40
0.25
 40
0.25
 40
0.5
 40
0.5
 40
0.5
 40
0.75
 40
0.75
 40
0.75
 40
1.0
 40
1.0
 40
1.0
 40
1.0
 10
-11.0975
 20
45.3755
 30
0.0
 10
-11.0975
 20
44.9607
 30
0.0
 10
-10.785
 20
44.7374
 30
0.0
 10
-10.3066
 20
44.6097
 30
0.0
 10
-9.9492
 20
44.731
 30
0.0
 10
-9.6751
 20
44.9861
 30
0.0
 10
-9.6751
 20
45.3628
 30
0.0
 10
-9.6751
 20
45.6945
 30
0.0
 10
-9.8727
 20
46.0388
 30
0.0
 10
-10.3768
 20
46.0388
 30
0.0
 10
-10.8421
 20
46.0388
 30
0.0
 10
-11.0975
 20
45.7329
 30
0.0
 10
-11.0975
 20
45.3755
 30
0.0
  0
SPLINE
  5
87
330
1F
100
AcDbEntity
  8
Layer 1
 62
   250
370
    18
100
AcDbSpline
210
0.0
220
0.0
230
1.0
 70
    11
 71
     3
 72
    17
 73
    13
 74
     0
 42
0.0000000001
 43
0.0000000001
 40
0.0
 40
0.0
 40
0.0
 40
0.0
 40
0.25
 40
0.25
 40
0.25
 40
0.5
 40
0.5
 40
0.5
 40
0.75
 40
0.75
 40
0.75
 40
1.0
 40
1.0
 40
1.0
 40
1.0
 10
-9.5538
 20
43.3019
 30
0.0
 10
-9.5538
 20
43.806
 30
0.0
 10
-9.9044
 20
44.0484
 30
0.0
 10
-10.4661
 20
44.2079
 30
0.0
 10
-10.9508
 20
44.0674
 30
0.0
 10
-11.2122
 20
43.7485
 30
0.0
 10
-11.2122
 20
43.3531
 30
0.0
 10
-11.2319
 20
42.9319
 30
0.0
 10
-10.9127
 20
42.5618
 30
0.0
 10
-10.3835
 20
42.5618
 30
0.0
 10
-9.879
 20
42.5618
 30
0.0
 10
-9.5538
 20
42.8747
 30
0.0
 10
-9.5538
 20
43.3019
 30
0.0
  0
SPLINE
  5
88
330
1F
100
AcDbEntity
  8
Layer 1
 62
   250
370
    18
100
AcDbSpline
210
0.0
220
0.0
230
1.0
 70
    11
 71
     3
 72
    35
 73
    31
 74
     0
 42
0.0000000001
 43
0.0000000001
 40
0.0
 40
0.0
 40
0.0
 40
0.0
 40
0.1
 40
0.1
 40
0.1
 40
0.2
 40
0.2
 40
0.2
 40
0.3
 40
0.3
 40
0.3
 40
0.4
 40
0.4
 40
0.4
 40
0.5
 40
0.5
 40
0.5
 40
0.6000000000000001
 40
0.6000000000000001
 40
0.6000000000000001
 40
0.7000000000000001
 40
0.7000000000000001
 40
0.7000000000000001
 40
0.8
 40
0.8
 40
0.8
 40
0.9
 40
0.9
 40
0.9
 40
1.0
 40
1.0
 40
1.0
 40
1.0
 10
-11.7869
 20
43.2765
 30
0.0
 10
-11.7869
 20
43.7997
 30
0.0
 10
-11.4739
 20
44.1698
 30
0.0
 10
-10.9635
 20
44.3864
 30
0.0
 10
-10.9635
 20
44.3864
 30
0.0
 10
-10.9702
 20
44.4058
 30
0.0
 10
-10.9702
 20
44.4058
 30
0.0
 10
-11.4291
 20
44.6224
 30
0.0
 10
-11.6274
 20
44.9797
 30
0.0
 10
-11.6274
 20
45.3374
 30
0.0
 10
-11.6274
 20
45.9943
 30
0.0
 10
-11.0721
 20
46.4413
 30
0.0
 10
-10.3451
 20
46.4413
 30
0.0
 10
-9.5411
 20
46.4413
 30
0.0
 10
-9.1389
 20
45.9372
 30
0.0
 10
-9.1389
 20
45.4204
 30
0.0
 10
-9.1389
 20
45.0693
 30
0.0
 10
-9.3114
 20
44.6926
 30
0.0
 10
-9.8215
 20
44.4506
 30
0.0
 10
-9.8215
 20
44.4506
 30
0.0
 10
-9.8215
 20
44.4312
 30
0.0
 10
-9.8215
 20
44.4312
 30
0.0
 10
-9.3047
 20
44.2269
 30
0.0
 10
-8.9862
 20
43.8632
 30
0.0
 10
-8.9862
 20
43.3591
 30
0.0
 10
-8.9862
 20
42.6383
 30
0.0
 10
-9.6049
 20
42.1536
 30
0.0
 10
-10.3959
 20
42.1536
 30
0.0
 10
-11.2637
 20
42.1536
 30
0.0
 10
-11.7869
 20
42.6704
 30
0.0
 10
-11.7869
 20
43.2765
 30
0.0
  0
SPLINE
  5
89
330
1F
100
AcDbEntity
  8
Layer 1
 62
   250
370
    18
100
AcDbSpline
210
0.0
220
0.0
230
1.0
 70
    11
 71
     3
 72
    17
 73
    13
 74
     0
 42
0.0000000001
 43
0.0000000001
 40
0.0
 40
0.0
 40
0.0
 40
0.0
 40
0.25
 40
0.25
 40
0.25
 40
0.5
 40
0.5
 40
0.5
 40
0.75
 40
0.75
 40
0.75
 40
1.0
 40
1.0
 40
1.0
 40
1.0
 10
-7.8243
 20
45.3755
 30
0.0
 10
-7.8243
 20
44.9607
 30
0.0
 10
-7.5118
 20
44.7374
 30
0.0
 10
-7.0334
 20
44.6097
 30
0.0
 10
-6.6761
 20
44.731
 30
0.0
 10
-6.4019
 20
44.9861
 30
0.0
 10
-6.4019
 20
45.3628
 30
0.0
 10
-6.4019
 20
45.6945
 30
0.0
 10
-6.5995
 20
46.0388
 30
0.0
 10
-7.1036
 20
46.0388
 30
0.0
 10
-7.5689
 20
46.0388
 30
0.0
 10
-7.8243
 20
45.7329
 30
0.0
 10
-7.8243
 20
45.3755
 30
0.0
  0
SPLINE
  5
8A
330
1F
100
AcDbEntity
  8
Layer 1
 62
   250
370
    18
100
AcDbSpline
210
0.0
220
0.0
230
1.0
 70
    11
 71
     3
 72
    17
 73
    13
 74
     0
 42
0.0000000001
 43
0.0000000001
 40
0.0
 40
0.0
 40
0.0
 40
0.0
 40
0.25
 40
0.25
 40
0.25
 40
0.5
 40
0.5
 40
0.5
 40
0.75
 40
0.75
 40
0.75
 40
1.0
 40
1.0
 40
1.0
 40
1.0
 10
-6.2806
 20
43.3019
 30
0.0
 10
-6.2806
 20
43.806
 30
0.0
 10
-6.6313
 20
44.0484
 30
0.0
 10
-7.1929
 20
44.2079
 30
0.0
 10
-7.6776
 20
44.0674
 30
0.0
 10
-7.939
 20
43.7485
 30
0.0
 10
-7.939
 20
43.3531
 30
0.0
 10
-7.9584
 20
42.9319
 30
0.0
 10
-7.6395
 20
42.5618
 30
0.0
 10
-7.1103
 20
42.5618
 30
0.0
 10
-6.6059
 20
42.5618
 30
0.0
 10
-6.2806
 20
42.8747
 30
0.0
 10
-6.2806
 20
43.3019
 30
0.0
  0
SPLINE
  5
8B
330
1F
100
AcDbEntity
  8
Layer 1
 62
   250
370
    18
100
AcDbSpline
210
0.0
220
0.0
230
1.0
 70
    11
 71
     3
 72
    35
 73
    31
 74
     0
 42
0.0000000001
 43
0.0000000001
 40
0.0
 40
0.0
 40
0.0
 40
0.0
 40
0.1
 40
0.1
 40
0.1
 40
0.2
 40
0.2
 40
0.2
 40
0.3
 40
0.3
 40
0.3
 40
0.4
 40
0.4
 40
0.4
 40
0.5
 40
0.5
 40
0.5
 40
0.6000000000000001
 40
0.6000000000000001
 40
0.6000000000000001
 40
0.7000000000000001
 40
0.7000000000000001
 40
0.7000000000000001
 40
0.8
 40
0.8
 40
0.8
 40
0.9
 40
0.9
 40
0.9
 40
1.0
 40
1.0
 40
1.0
 40
1.0
 10
-8.5137
 20
43.2765
 30
0.0
 10
-8.5137
 20
43.7997
 30
0.0
 10
-8.2008
 20
44.1698
 30
0.0
 10
-7.6903
 20
44.3864
 30
0.0
 10
-7.6903
 20
44.3864
 30
0.0
 10
-7.697
 20
44.4058
 30
0.0
 10
-7.697
 20
44.4058
 30
0.0
 10
-8.156
 20
44.6224
 30
0.0
 10
-8.3542
 20
44.9797
 30
0.0
 10
-8.3542
 20
45.3374
 30
0.0
 10
-8.3542
 20
45.9943
 30
0.0
 10
-7.7989
 20
46.4413
 30
0.0
 10
-7.0715
 20
46.4413
 30
0.0
 10
-6.2679
 20
46.4413
 30
0.0
 10
-5.8657
 20
45.9372
 30
0.0
 10
-5.8657
 20
45.4204
 30
0.0
 10
-5.8657
 20
45.0693
 30
0.0
 10
-6.0382
 20
44.6926
 30
0.0
 10
-6.5484
 20
44.4506
 30
0.0
 10
-6.5484
 20
44.4506
 30
0.0
 10
-6.5484
 20
44.4312
 30
0.0
 10
-6.5484
 20
44.4312
 30
0.0
 10
-6.0315
 20
44.2269
 30
0.0
 10
-5.713
 20
43.8632
 30
0.0
 10
-5.713
 20
43.3591
 30
0.0
 10
-5.713
 20
42.6383
 30
0.0
 10
-6.3314
 20
42.1536
 30
0.0
 10
-7.1227
 20
42.1536
 30
0.0
 10
-7.9905
 20
42.1536
 30
0.0
 10
-8.5137
 20
42.6704
 30
0.0
 10
-8.5137
 20
43.2765
 30
0.0
  0
SPLINE
  5
8C
330
1F
100
AcDbEntity
  8
Layer 1
 62
   250
370
    18
100
AcDbSpline
210
0.0
220
0.0
230
1.0
 70
    11
 71
     3
 72
    20
 73
    16
 74
     0
 42
0.0000000001
 43
0.0000000001
 40
0.0
 40
0.0
 40
0.0
 40
0.0
 40
0.2
 40
0.2
 40
0.2
 40
0.4
 40
0.4
 40
0.4
 40
0.6000000000000001
 40
0.6000000000000001
 40
0.6000000000000001
 40
0.8
 40
0.8
 40
0.8
 40
1.0
 40
1.0
 40
1.0
 40
1.0
 10
-2.9816
 20
43.5827
 30
0.0
 10
-2.9816
 20
44.1761
 30
0.0
 10
-3.3196
 20
44.5335
 30
0.0
 10
-3.8367
 20
44.5335
 30
0.0
 10
-4.1743
 20
44.5335
 30
0.0
 10
-4.4872
 20
44.3229
 30
0.0
 10
-4.6404
 20
44.023
 30
0.0
 10
-4.6785
 20
43.9591
 30
0.0
 10
-4.7039
 20
43.8759
 30
0.0
 10
-4.7039
 20
43.7743
 30
0.0
 10
-4.6912
 20
43.0913
 30
0.0
 10
-4.3786
 20
42.5875
 30
0.0
 10
-3.7916
 20
42.5875
 30
0.0
 10
-3.3069
 20
42.5875
 30
0.0
 10
-2.9816
 20
42.989
 30
0.0
 10
-2.9816
 20
43.5827
 30
0.0
  0
SPLINE
  5
8D
330
1F
100
AcDbEntity
  8
Layer 1
 62
   250
370
    18
100
AcDbSpline
210
0.0
220
0.0
230
1.0
 70
    11
 71
     3
 72
    38
 73
    34
 74
     0
 42
0.0000000001
 43
0.0000000001
 40
0.0
 40
0.0
 40
0.0
 40
0.0
 40
0.0909090909090909
 40
0.0909090909090909
 40
0.0909090909090909
 40
0.1818181818181818
 40
0.1818181818181818
 40
0.1818181818181818
 40
0.2727272727272727
 40
0.2727272727272727
 40
0.2727272727272727
 40
0.3636363636363636
 40
0.3636363636363636
 40
0.3636363636363636
 40
0.4545454545454546
 40
0.4545454545454546
 40
0.4545454545454546
 40
0.5454545454545454
 40
0.5454545454545454
 40
0.5454545454545454
 40
0.6363636363636364
 40
0.6363636363636364
 40
0.6363636363636364
 40
0.7272727272727273
 40
0.7272727272727273
 40
0.7272727272727273
 40
0.8181818181818182
 40
0.8181818181818182
 40
0.8181818181818182
 40
0.9090909090909092
 40
0.9090909090909092
 40
0.9090909090909092
 40
1.0
 40
1.0
 40
1.0
 40
1.0
 10
-2.8218
 20
45.9753
 30
0.0
 10
-2.9364
 20
45.9816
 30
0.0
 10
-3.0832
 20
45.9753
 30
0.0
 10
-3.243
 20
45.9499
 30
0.0
 10
-4.1235
 20
45.8031
 30
0.0
 10
-4.5892
 20
45.1589
 30
0.0
 10
-4.6848
 20
44.4756
 30
0.0
 10
-4.6848
 20
44.4756
 30
0.0
 10
-4.6654
 20
44.4756
 30
0.0
 10
-4.6654
 20
44.4756
 30
0.0
 10
-4.4678
 20
44.7374
 30
0.0
 10
-4.1235
 20
44.9547
 30
0.0
 10
-3.6642
 20
44.9547
 30
0.0
 10
-2.9301
 20
44.9547
 30
0.0
 10
-2.4136
 20
44.4252
 30
0.0
 10
-2.4136
 20
43.6145
 30
0.0
 10
-2.4136
 20
42.855
 30
0.0
 10
-2.9301
 20
42.1536
 30
0.0
 10
-3.7916
 20
42.1536
 30
0.0
 10
-4.6785
 20
42.1536
 30
0.0
 10
-5.2591
 20
42.8423
 30
0.0
 10
-5.2591
 20
43.921
 30
0.0
 10
-5.2591
 20
44.7374
 30
0.0
 10
-4.966
 20
45.3819
 30
0.0
 10
-4.5575
 20
45.7904
 30
0.0
 10
-4.2124
 20
46.1284
 30
0.0
 10
-3.7535
 20
46.3386
 30
0.0
 10
-3.2303
 20
46.4025
 30
0.0
 10
-3.0641
 20
46.4282
 30
0.0
 10
-2.9241
 20
46.4346
 30
0.0
 10
-2.8218
 20
46.4346
 30
0.0
 10
-2.8218
 20
46.4346
 30
0.0
 10
-2.8218
 20
45.9753
 30
0.0
 10
-2.8218
 20
45.9753
 30
0.0
  0
SPLINE
  5
8E
330
1F
100
AcDbEntity
  8
Layer 1
 62
   250
370
    18
100
AcDbSpline
210
0.0
220
0.0
230
1.0
 70
    11
 71
     3
 72
    20
 73
    16
 74
     0
 42
0.0000000001
 43
0.0000000001
 40
0.0
 40
0.0
 40
0.0
 40
0.0
 40
0.2
 40
0.2
 40
0.2
 40
0.4
 40
0.4
 40
0.4
 40
0.6000000000000001
 40
0.6000000000000001
 40
0.6000000000000001
 40
0.8
 40
0.8
 40
0.8
 40
1.0
 40
1.0
 40
1.0
 40
1.0
 10
0.2919
 20
43.5827
 30
0.0
 10
0.2919
 20
44.1761
 30
0.0
 10
-0.046
 20
44.5335
 30
0.0
 10
-0.5628
 20
44.5335
 30
0.0
 10
-0.9008
 20
44.5335
 30
0.0
 10
-1.2134
 20
44.3229
 30
0.0
 10
-1.3668
 20
44.023
 30
0.0
 10
-1.4049
 20
43.9591
 30
0.0
 10
-1.4303
 20
43.8759
 30
0.0
 10
-1.4303
 20
43.7743
 30
0.0
 10
-1.4176
 20
43.0913
 30
0.0
 10
-1.1047
 20
42.5875
 30
0.0
 10
-0.518
 20
42.5875
 30
0.0
 10
-0.0333
 20
42.5875
 30
0.0
 10
0.2919
 20
42.989
 30
0.0
 10
0.2919
 20
43.5827
 30
0.0
  0
SPLINE
  5
8F
330
1F
100
AcDbEntity
  8
Layer 1
 62
   250
370
    18
100
AcDbSpline
210
0.0
220
0.0
230
1.0
 70
    11
 71
     3
 72
    38
 73
    34
 74
     0
 42
0.0000000001
 43
0.0000000001
 40
0.0
 40
0.0
 40
0.0
 40
0.0
 40
0.0909090909090909
 40
0.0909090909090909
 40
0.0909090909090909
 40
0.1818181818181818
 40
0.1818181818181818
 40
0.1818181818181818
 40
0.2727272727272727
 40
0.2727272727272727
 40
0.2727272727272727
 40
0.3636363636363636
 40
0.3636363636363636
 40
0.3636363636363636
 40
0.4545454545454546
 40
0.4545454545454546
 40
0.4545454545454546
 40
0.5454545454545454
 40
0.5454545454545454
 40
0.5454545454545454
 40
0.6363636363636364
 40
0.6363636363636364
 40
0.6363636363636364
 40
0.7272727272727273
 40
0.7272727272727273
 40
0.7272727272727273
 40
0.8181818181818182
 40
0.8181818181818182
 40
0.8181818181818182
 40
0.9090909090909092
 40
0.9090909090909092
 40
0.9090909090909092
 40
1.0
 40
1.0
 40
1.0
 40
1.0
 10
0.4517
 20
45.9753
 30
0.0
 10
0.3371
 20
45.9816
 30
0.0
 10
0.1903
 20
45.9753
 30
0.0
 10
0.0305
 20
45.9499
 30
0.0
 10
-0.85
 20
45.8031
 30
0.0
 10
-1.3157
 20
45.1589
 30
0.0
 10
-1.4113
 20
44.4756
 30
0.0
 10
-1.4113
 20
44.4756
 30
0.0
 10
-1.3919
 20
44.4756
 30
0.0
 10
-1.3919
 20
44.4756
 30
0.0
 10
-1.1943
 20
44.7374
 30
0.0
 10
-0.85
 20
44.9547
 30
0.0
 10
-0.3907
 20
44.9547
 30
0.0
 10
0.3434
 20
44.9547
 30
0.0
 10
0.8599
 20
44.4252
 30
0.0
 10
0.8599
 20
43.6145
 30
0.0
 10
0.8599
 20
42.855
 30
0.0
 10
0.3434
 20
42.1536
 30
0.0
 10
-0.518
 20
42.1536
 30
0.0
 10
-1.4049
 20
42.1536
 30
0.0
 10
-1.9852
 20
42.8423
 30
0.0
 10
-1.9852
 20
43.921
 30
0.0
 10
-1.9852
 20
44.7374
 30
0.0
 10
-1.6917
 20
45.3819
 30
0.0
 10
-1.2836
 20
45.7904
 30
0.0
 10
-0.9389
 20
46.1284
 30
0.0
 10
-0.4796
 20
46.3386
 30
0.0
 10
0.0436
 20
46.4025
 30
0.0
 10
0.2094
 20
46.4282
 30
0.0
 10
0.3498
 20
46.4346
 30
0.0
 10
0.4517
 20
46.4346
 30
0.0
 10
0.4517
 20
46.4346
 30
0.0
 10
0.4517
 20
45.9753
 30
0.0
 10
0.4517
 20
45.9753
 30
0.0
  0
SPLINE
  5
90
330
1F
100
AcDbEntity
  8
Layer 1
 62
   250
370
    18
100
AcDbSpline
210
0.0
220
0.0
230
1.0
 70
    11
 71
     3
 72
    17
 73
    13
 74
     0
 42
0.0000000001
 43
0.0000000001
 40
0.0
 40
0.0
 40
0.0
 40
0.0
 40
0.25
 40
0.25
 40
0.25
 40
0.5
 40
0.5
 40
0.5
 40
0.75
 40
0.75
 40
0.75
 40
1.0
 40
1.0
 40
1.0
 40
1.0
 10
-34.1466
 20
36.6205
 30
0.0
 10
-34.1466
 20
35.5424
 30
0.0
 10
-33.815
 20
34.93
 30
0.0
 10
-33.3045
 20
34.93
 30
0.0
 10
-32.7302
 20
34.93
 30
0.0
 10
-32.4558
 20
35.5996
 30
0.0
 10
-32.4558
 20
36.659
 30
0.0
 10
-32.4558
 20
37.6799
 30
0.0
 10
-32.7175
 20
38.3495
 30
0.0
 10
-33.2982
 20
38.3495
 30
0.0
 10
-33.7893
 20
38.3495
 30
0.0
 10
-34.1466
 20
37.7498
 30
0.0
 10
-34.1466
 20
36.6205
 30
0.0
  0
SPLINE
  5
91
330
1F
100
AcDbEntity
  8
Layer 1
 62
   250
370
    18
100
AcDbSpline
210
0.0
220
0.0
230
1.0
 70
    11
 71
     3
 72
    17
 73
    13
 74
     0
 42
0.0000000001
 43
0.0000000001
 40
0.0
 40
0.0
 40
0.0
 40
0.0
 40
0.25
 40
0.25
 40
0.25
 40
0.5
 40
0.5
 40
0.5
 40
0.75
 40
0.75
 40
0.75
 40
1.0
 40
1.0
 40
1.0
 40
1.0
 10
-31.8945
 20
36.6847
 30
0.0
 10
-31.8945
 20
35.2747
 30
0.0
 10
-32.4177
 20
34.4961
 30
0.0
 10
-33.3363
 20
34.4961
 30
0.0
 10
-34.1466
 20
34.4961
 30
0.0
 10
-34.6952
 20
35.2553
 30
0.0
 10
-34.7079
 20
36.6269
 30
0.0
 10
-34.7079
 20
38.0179
 30
0.0
 10
-34.1082
 20
38.7834
 30
0.0
 10
-33.2661
 20
38.7834
 30
0.0
 10
-32.3919
 20
38.7834
 30
0.0
 10
-31.8945
 20
38.0052
 30
0.0
 10
-31.8945
 20
36.6847
 30
0.0
  0
SPLINE
  5
92
330
1F
100
AcDbEntity
  8
Layer 1
 62
   250
370
    18
100
AcDbSpline
210
0.0
220
0.0
230
1.0
 70
    11
 71
     3
 72
    20
 73
    16
 74
     0
 42
0.0000000001
 43
0.0000000001
 40
0.0
 40
0.0
 40
0.0
 40
0.0
 40
0.2
 40
0.2
 40
0.2
 40
0.4
 40
0.4
 40
0.4
 40
0.6000000000000001
 40
0.6000000000000001
 40
0.6000000000000001
 40
0.8
 40
0.8
 40
0.8
 40
1.0
 40
1.0
 40
1.0
 40
1.0
 10
-30.8474
 20
37.3478
 30
0.0
 10
-30.8474
 20
36.831
 30
0.0
 10
-30.5348
 20
36.4676
 30
0.0
 10
-30.0501
 20
36.4676
 30
0.0
 10
-29.6737
 20
36.4676
 30
0.0
 10
-29.3798
 20
36.6521
 30
0.0
 10
-29.2334
 20
36.9015
 30
0.0
 10
-29.2013
 20
36.9523
 30
0.0
 10
-29.1823
 20
37.0162
 30
0.0
 10
-29.1823
 20
37.1054
 30
0.0
 10
-29.1823
 20
37.8138
 30
0.0
 10
-29.4437
 20
38.3557
 30
0.0
 10
-30.0307
 20
38.3557
 30
0.0
 10
-30.5094
 20
38.3557
 30
0.0
 10
-30.8474
 20
37.9351
 30
0.0
 10
-30.8474
 20
37.3478
 30
0.0
  0
SPLINE
  5
93
330
1F
100
AcDbEntity
  8
Layer 1
 62
   250
370
    18
100
AcDbSpline
210
0.0
220
0.0
230
1.0
 70
    11
 71
     3
 72
    41
 73
    37
 74
     0
 42
0.0000000001
 43
0.0000000001
 40
0.0
 40
0.0
 40
0.0
 40
0.0
 40
0.0833333333333333
 40
0.0833333333333333
 40
0.0833333333333333
 40
0.1666666666666667
 40
0.1666666666666667
 40
0.1666666666666667
 40
0.25
 40
0.25
 40
0.25
 40
0.3333333333333333
 40
0.3333333333333333
 40
0.3333333333333333
 40
0.4166666666666666
 40
0.4166666666666666
 40
0.4166666666666666
 40
0.5
 40
0.5
 40
0.5
 40
0.5833333333333333
 40
0.5833333333333333
 40
0.5833333333333333
 40
0.6666666666666666
 40
0.6666666666666666
 40
0.6666666666666666
 40
0.75
 40
0.75
 40
0.75
 40
0.8333333333333333
 40
0.8333333333333333
 40
0.8333333333333333
 40
0.9166666666666666
 40
0.9166666666666666
 40
0.9166666666666666
 40
1.0
 40
1.0
 40
1.0
 40
1.0
 10
-31.0517
 20
34.9616
 30
0.0
 10
-30.9303
 20
34.9489
 30
0.0
 10
-30.7899
 20
34.9616
 30
0.0
 10
-30.5983
 20
34.9806
 30
0.0
 10
-30.2734
 20
35.0258
 30
0.0
 10
-29.9669
 20
35.1598
 30
0.0
 10
-29.7309
 20
35.3828
 30
0.0
 10
-29.4568
 20
35.6315
 30
0.0
 10
-29.2588
 20
35.9952
 30
0.0
 10
-29.1823
 20
36.4866
 30
0.0
 10
-29.1823
 20
36.4866
 30
0.0
 10
-29.2013
 20
36.4866
 30
0.0
 10
-29.2013
 20
36.4866
 30
0.0
 10
-29.431
 20
36.2058
 30
0.0
 10
-29.763
 20
36.04
 30
0.0
 10
-30.1778
 20
36.04
 30
0.0
 10
-30.924
 20
36.04
 30
0.0
 10
-31.4027
 20
36.6016
 30
0.0
 10
-31.4027
 20
37.31
 30
0.0
 10
-31.4027
 20
38.0942
 30
0.0
 10
-30.8347
 20
38.7832
 30
0.0
 10
-29.9859
 20
38.7832
 30
0.0
 10
-29.1375
 20
38.7832
 30
0.0
 10
-28.6143
 20
38.0942
 30
0.0
 10
-28.6143
 20
37.0349
 30
0.0
 10
-28.6143
 20
36.1226
 30
0.0
 10
-28.9209
 20
35.4851
 30
0.0
 10
-29.329
 20
35.0893
 30
0.0
 10
-29.648
 20
34.7767
 30
0.0
 10
-30.0882
 20
34.5852
 30
0.0
 10
-30.5348
 20
34.5344
 30
0.0
 10
-30.7387
 20
34.5023
 30
0.0
 10
-30.9176
 20
34.4959
 30
0.0
 10
-31.0517
 20
34.5023
 30
0.0
 10
-31.0517
 20
34.5023
 30
0.0
 10
-31.0517
 20
34.9616
 30
0.0
 10
-31.0517
 20
34.9616
 30
0.0
  0
SPLINE
  5
94
330
1F
100
AcDbEntity
  8
Layer 1
 62
   250
370
    18
100
AcDbSpline
210
0.0
220
0.0
230
1.0
 70
    11
 71
     3
 72
    17
 73
    13
 74
     0
 42
0.0000000001
 43
0.0000000001
 40
0.0
 40
0.0
 40
0.0
 40
0.0
 40
0.25
 40
0.25
 40
0.25
 40
0.5
 40
0.5
 40
0.5
 40
0.75
 40
0.75
 40
0.75
 40
1.0
 40
1.0
 40
1.0
 40
1.0
 10
-27.5996
 20
36.6205
 30
0.0
 10
-27.5996
 20
35.5424
 30
0.0
 10
-27.2679
 20
34.93
 30
0.0
 10
-26.7575
 20
34.93
 30
0.0
 10
-26.1832
 20
34.93
 30
0.0
 10
-25.9087
 20
35.5996
 30
0.0
 10
-25.9087
 20
36.659
 30
0.0
 10
-25.9087
 20
37.6799
 30
0.0
 10
-26.1705
 20
38.3495
 30
0.0
 10
-26.7511
 20
38.3495
 30
0.0
 10
-27.2422
 20
38.3495
 30
0.0
 10
-27.5996
 20
37.7498
 30
0.0
 10
-27.5996
 20
36.6205
 30
0.0
  0
SPLINE
  5
95
330
1F
100
AcDbEntity
  8
Layer 1
 62
   250
370
    18
100
AcDbSpline
210
0.0
220
0.0
230
1.0
 70
    11
 71
     3
 72
    17
 73
    13
 74
     0
 42
0.0000000001
 43
0.0000000001
 40
0.0
 40
0.0
 40
0.0
 40
0.0
 40
0.25
 40
0.25
 40
0.25
 40
0.5
 40
0.5
 40
0.5
 40
0.75
 40
0.75
 40
0.75
 40
1.0
 40
1.0
 40
1.0
 40
1.0
 10
-25.3474
 20
36.6847
 30
0.0
 10
-25.3474
 20
35.2747
 30
0.0
 10
-25.8706
 20
34.4961
 30
0.0
 10
-26.7892
 20
34.4961
 30
0.0
 10
-27.5996
 20
34.4961
 30
0.0
 10
-28.1481
 20
35.2553
 30
0.0
 10
-28.1608
 20
36.6269
 30
0.0
 10
-28.1608
 20
38.0179
 30
0.0
 10
-27.5615
 20
38.7834
 30
0.0
 10
-26.719
 20
38.7834
 30
0.0
 10
-25.8448
 20
38.7834
 30
0.0
 10
-25.3474
 20
38.0052
 30
0.0
 10
-25.3474
 20
36.6847
 30
0.0
  0
SPLINE
  5
96
330
1F
100
AcDbEntity
  8
Layer 1
 62
   250
370
    18
100
AcDbSpline
210
0.0
220
0.0
230
1.0
 70
    11
 71
     3
 72
    17
 73
    13
 74
     0
 42
0.0000000001
 43
0.0000000001
 40
0.0
 40
0.0
 40
0.0
 40
0.0
 40
0.25
 40
0.25
 40
0.25
 40
0.5
 40
0.5
 40
0.5
 40
0.75
 40
0.75
 40
0.75
 40
1.0
 40
1.0
 40
1.0
 40
1.0
 10
-24.326
 20
36.6205
 30
0.0
 10
-24.326
 20
35.5424
 30
0.0
 10
-23.9941
 20
34.93
 30
0.0
 10
-23.4836
 20
34.93
 30
0.0
 10
-22.9096
 20
34.93
 30
0.0
 10
-22.6352
 20
35.5996
 30
0.0
 10
-22.6352
 20
36.659
 30
0.0
 10
-22.6352
 20
37.6799
 30
0.0
 10
-22.8969
 20
38.3495
 30
0.0
 10
-23.4772
 20
38.3495
 30
0.0
 10
-23.9687
 20
38.3495
 30
0.0
 10
-24.326
 20
37.7498
 30
0.0
 10
-24.326
 20
36.6205
 30
0.0
  0
SPLINE
  5
97
330
1F
100
AcDbEntity
  8
Layer 1
 62
   250
370
    18
100
AcDbSpline
210
0.0
220
0.0
230
1.0
 70
    11
 71
     3
 72
    17
 73
    13
 74
     0
 42
0.0000000001
 43
0.0000000001
 40
0.0
 40
0.0
 40
0.0
 40
0.0
 40
0.25
 40
0.25
 40
0.25
 40
0.5
 40
0.5
 40
0.5
 40
0.75
 40
0.75
 40
0.75
 40
1.0
 40
1.0
 40
1.0
 40
1.0
 10
-22.0739
 20
36.6847
 30
0.0
 10
-22.0739
 20
35.2747
 30
0.0
 10
-22.5971
 20
34.4961
 30
0.0
 10
-23.5157
 20
34.4961
 30
0.0
 10
-24.326
 20
34.4961
 30
0.0
 10
-24.8746
 20
35.2553
 30
0.0
 10
-24.8873
 20
36.6269
 30
0.0
 10
-24.8873
 20
38.0179
 30
0.0
 10
-24.2876
 20
38.7834
 30
0.0
 10
-23.4455
 20
38.7834
 30
0.0
 10
-22.5713
 20
38.7834
 30
0.0
 10
-22.0739
 20
38.0052
 30
0.0
 10
-22.0739
 20
36.6847
 30
0.0
  0
SPLINE
  5
98
330
1F
100
AcDbEntity
  8
Layer 1
 62
   250
370
    18
100
AcDbSpline
210
0.0
220
0.0
230
1.0
 70
    11
 71
     3
 72
    26
 73
    22
 74
     0
 42
0.0000000001
 43
0.0000000001
 40
0.0
 40
0.0
 40
0.0
 40
0.0
 40
0.1428571428571428
 40
0.1428571428571428
 40
0.1428571428571428
 40
0.2857142857142857
 40
0.2857142857142857
 40
0.2857142857142857
 40
0.4285714285714285
 40
0.4285714285714285
 40
0.4285714285714285
 40
0.5714285714285714
 40
0.5714285714285714
 40
0.5714285714285714
 40
0.7142857142857142
 40
0.7142857142857142
 40
0.7142857142857142
 40
0.8571428571428571
 40
0.8571428571428571
 40
0.8571428571428571
 40
1.0
 40
1.0
 40
1.0
 40
1.0
 10
-19.821
 20
36.1355
 30
0.0
 10
-19.821
 20
36.1355
 30
0.0
 10
-19.821
 20
37.5201
 30
0.0
 10
-19.821
 20
37.5201
 30
0.0
 10
-19.821
 20
37.7371
 30
0.0
 10
-19.8147
 20
37.954
 30
0.0
 10
-19.802
 20
38.1713
 30
0.0
 10
-19.802
 20
38.1713
 30
0.0
 10
-19.821
 20
38.1713
 30
0.0
 10
-19.821
 20
38.1713
 30
0.0
 10
-19.9487
 20
37.9286
 30
0.0
 10
-20.0507
 20
37.7498
 30
0.0
 10
-20.166
 20
37.5586
 30
0.0
 10
-20.166
 20
37.5586
 30
0.0
 10
-21.1799
 20
36.1482
 30
0.0
 10
-21.1799
 20
36.1482
 30
0.0
 10
-21.1799
 20
36.1482
 30
0.0
 10
-21.1799
 20
36.1355
 30
0.0
 10
-21.1799
 20
36.1355
 30
0.0
 10
-21.1799
 20
36.1355
 30
0.0
 10
-19.821
 20
36.1355
 30
0.0
 10
-19.821
 20
36.1355
 30
0.0
  0
SPLINE
  5
99
330
1F
100
AcDbEntity
  8
Layer 1
 62
   250
370
    18
100
AcDbSpline
210
0.0
220
0.0
230
1.0
 70
    11
 71
     3
 72
    38
 73
    34
 74
     0
 42
0.0000000001
 43
0.0000000001
 40
0.0
 40
0.0
 40
0.0
 40
0.0
 40
0.0909090909090909
 40
0.0909090909090909
 40
0.0909090909090909
 40
0.1818181818181818
 40
0.1818181818181818
 40
0.1818181818181818
 40
0.2727272727272727
 40
0.2727272727272727
 40
0.2727272727272727
 40
0.3636363636363636
 40
0.3636363636363636
 40
0.3636363636363636
 40
0.4545454545454546
 40
0.4545454545454546
 40
0.4545454545454546
 40
0.5454545454545454
 40
0.5454545454545454
 40
0.5454545454545454
 40
0.6363636363636364
 40
0.6363636363636364
 40
0.6363636363636364
 40
0.7272727272727273
 40
0.7272727272727273
 40
0.7272727272727273
 40
0.8181818181818182
 40
0.8181818181818182
 40
0.8181818181818182
 40
0.9090909090909092
 40
0.9090909090909092
 40
0.9090909090909092
 40
1.0
 40
1.0
 40
1.0
 40
1.0
 10
-19.821
 20
34.5663
 30
0.0
 10
-19.821
 20
34.5663
 30
0.0
 10
-19.821
 20
35.6955
 30
0.0
 10
-19.821
 20
35.6955
 30
0.0
 10
-19.821
 20
35.6955
 30
0.0
 10
-21.7479
 20
35.6955
 30
0.0
 10
-21.7479
 20
35.6955
 30
0.0
 10
-21.7479
 20
35.6955
 30
0.0
 10
-21.7479
 20
36.0656
 30
0.0
 10
-21.7479
 20
36.0656
 30
0.0
 10
-21.7479
 20
36.0656
 30
0.0
 10
-19.8976
 20
38.7136
 30
0.0
 10
-19.8976
 20
38.7136
 30
0.0
 10
-19.8976
 20
38.7136
 30
0.0
 10
-19.2918
 20
38.7136
 30
0.0
 10
-19.2918
 20
38.7136
 30
0.0
 10
-19.2918
 20
38.7136
 30
0.0
 10
-19.2918
 20
36.1355
 30
0.0
 10
-19.2918
 20
36.1355
 30
0.0
 10
-19.2918
 20
36.1355
 30
0.0
 10
-18.7112
 20
36.1355
 30
0.0
 10
-18.7112
 20
36.1355
 30
0.0
 10
-18.7112
 20
36.1355
 30
0.0
 10
-18.7112
 20
35.6955
 30
0.0
 10
-18.7112
 20
35.6955
 30
0.0
 10
-18.7112
 20
35.6955
 30
0.0
 10
-19.2918
 20
35.6955
 30
0.0
 10
-19.2918
 20
35.6955
 30
0.0
 10
-19.2918
 20
35.6955
 30
0.0
 10
-19.2918
 20
34.5663
 30
0.0
 10
-19.2918
 20
34.5663
 30
0.0
 10
-19.2918
 20
34.5663
 30
0.0
 10
-19.821
 20
34.5663
 30
0.0
 10
-19.821
 20
34.5663
 30
0.0
  0
SPLINE
  5
9A
330
1F
100
AcDbEntity
  8
Layer 1
 62
   250
370
    18
100
AcDbSpline
210
0.0
220
0.0
230
1.0
 70
    11
 71
     3
 72
    17
 73
    13
 74
     0
 42
0.0000000001
 43
0.0000000001
 40
0.0
 40
0.0
 40
0.0
 40
0.0
 40
0.25
 40
0.25
 40
0.25
 40
0.5
 40
0.5
 40
0.5
 40
0.75
 40
0.75
 40
0.75
 40
1.0
 40
1.0
 40
1.0
 40
1.0
 10
-17.779
 20
36.6205
 30
0.0
 10
-17.779
 20
35.5424
 30
0.0
 10
-17.4474
 20
34.93
 30
0.0
 10
-16.9365
 20
34.93
 30
0.0
 10
-16.3626
 20
34.93
 30
0.0
 10
-16.0885
 20
35.5996
 30
0.0
 10
-16.0885
 20
36.659
 30
0.0
 10
-16.0885
 20
37.6799
 30
0.0
 10
-16.3499
 20
38.3495
 30
0.0
 10
-16.9305
 20
38.3495
 30
0.0
 10
-17.4216
 20
38.3495
 30
0.0
 10
-17.779
 20
37.7498
 30
0.0
 10
-17.779
 20
36.6205
 30
0.0
  0
SPLINE
  5
9B
330
1F
100
AcDbEntity
  8
Layer 1
 62
   250
370
    18
100
AcDbSpline
210
0.0
220
0.0
230
1.0
 70
    11
 71
     3
 72
    17
 73
    13
 74
     0
 42
0.0000000001
 43
0.0000000001
 40
0.0
 40
0.0
 40
0.0
 40
0.0
 40
0.25
 40
0.25
 40
0.25
 40
0.5
 40
0.5
 40
0.5
 40
0.75
 40
0.75
 40
0.75
 40
1.0
 40
1.0
 40
1.0
 40
1.0
 10
-15.5265
 20
36.6847
 30
0.0
 10
-15.5265
 20
35.2747
 30
0.0
 10
-16.05
 20
34.4961
 30
0.0
 10
-16.9683
 20
34.4961
 30
0.0
 10
-17.779
 20
34.4961
 30
0.0
 10
-18.3275
 20
35.2553
 30
0.0
 10
-18.3402
 20
36.6269
 30
0.0
 10
-18.3402
 20
38.0179
 30
0.0
 10
-17.7409
 20
38.7834
 30
0.0
 10
-16.8984
 20
38.7834
 30
0.0
 10
-16.0242
 20
38.7834
 30
0.0
 10
-15.5265
 20
38.0052
 30
0.0
 10
-15.5265
 20
36.6847
 30
0.0
  0
SPLINE
  5
9C
330
1F
100
AcDbEntity
  8
Layer 1
 62
   250
370
    18
100
AcDbSpline
210
0.0
220
0.0
230
1.0
 70
    11
 71
     3
 72
    50
 73
    46
 74
     0
 42
0.0000000001
 43
0.0000000001
 40
0.0
 40
0.0
 40
0.0
 40
0.0
 40
0.0666666666666667
 40
0.0666666666666667
 40
0.0666666666666667
 40
0.1333333333333333
 40
0.1333333333333333
 40
0.1333333333333333
 40
0.2
 40
0.2
 40
0.2
 40
0.2666666666666667
 40
0.2666666666666667
 40
0.2666666666666667
 40
0.3333333333333333
 40
0.3333333333333333
 40
0.3333333333333333
 40
0.4
 40
0.4
 40
0.4
 40
0.4666666666666667
 40
0.4666666666666667
 40
0.4666666666666667
 40
0.5333333333333333
 40
0.5333333333333333
 40
0.5333333333333333
 40
0.6
 40
0.6
 40
0.6
 40
0.6666666666666666
 40
0.6666666666666666
 40
0.6666666666666666
 40
0.7333333333333333
 40
0.7333333333333333
 40
0.7333333333333333
 40
0.8
 40
0.8
 40
0.8
 40
0.8666666666666667
 40
0.8666666666666667
 40
0.8666666666666667
 40
0.9333333333333333
 40
0.9333333333333333
 40
0.9333333333333333
 40
1.0
 40
1.0
 40
1.0
 40
1.0
 10
-12.5338
 20
38.2411
 30
0.0
 10
-12.5338
 20
38.2411
 30
0.0
 10
-14.116
 20
38.2411
 30
0.0
 10
-14.116
 20
38.2411
 30
0.0
 10
-14.116
 20
38.2411
 30
0.0
 10
-14.2755
 20
37.1757
 30
0.0
 10
-14.2755
 20
37.1757
 30
0.0
 10
-14.1799
 20
37.1888
 30
0.0
 10
-14.0902
 20
37.2015
 30
0.0
 10
-13.9375
 20
37.2015
 30
0.0
 10
-13.6186
 20
37.2015
 30
0.0
 10
-13.2993
 20
37.1309
 30
0.0
 10
-13.0443
 20
36.9778
 30
0.0
 10
-12.719
 20
36.7933
 30
0.0
 10
-12.4509
 20
36.4356
 30
0.0
 10
-12.4509
 20
35.9124
 30
0.0
 10
-12.4509
 20
35.1021
 30
0.0
 10
-13.0954
 20
34.496
 30
0.0
 10
-13.995
 20
34.496
 30
0.0
 10
-14.448
 20
34.496
 30
0.0
 10
-14.8307
 20
34.6234
 30
0.0
 10
-15.0283
 20
34.7511
 30
0.0
 10
-15.0283
 20
34.7511
 30
0.0
 10
-14.8882
 20
35.1786
 30
0.0
 10
-14.8882
 20
35.1786
 30
0.0
 10
-14.7157
 20
35.0767
 30
0.0
 10
-14.3781
 20
34.949
 30
0.0
 10
-14.0013
 20
34.949
 30
0.0
 10
-13.4718
 20
34.949
 30
0.0
 10
-13.0189
 20
35.2937
 30
0.0
 10
-13.0189
 20
35.8486
 30
0.0
 10
-13.0252
 20
36.3844
 30
0.0
 10
-13.3822
 20
36.7672
 30
0.0
 10
-14.2116
 20
36.7672
 30
0.0
 10
-14.448
 20
36.7672
 30
0.0
 10
-14.6328
 20
36.7418
 30
0.0
 10
-14.7863
 20
36.7224
 30
0.0
 10
-14.7863
 20
36.7224
 30
0.0
 10
-14.5182
 20
38.7135
 30
0.0
 10
-14.5182
 20
38.7135
 30
0.0
 10
-14.5182
 20
38.7135
 30
0.0
 10
-12.5338
 20
38.7135
 30
0.0
 10
-12.5338
 20
38.7135
 30
0.0
 10
-12.5338
 20
38.7135
 30
0.0
 10
-12.5338
 20
38.2411
 30
0.0
 10
-12.5338
 20
38.2411
 30
0.0
  0
SPLINE
  5
9D
330
1F
100
AcDbEntity
  8
Layer 1
 62
   250
370
    18
100
AcDbSpline
210
0.0
220
0.0
230
1.0
 70
    11
 71
     3
 72
    20
 73
    16
 74
     0
 42
0.0000000001
 43
0.0000000001
 40
0.0
 40
0.0
 40
0.0
 40
0.0
 40
0.2
 40
0.2
 40
0.2
 40
0.4
 40
0.4
 40
0.4
 40
0.6000000000000001
 40
0.6000000000000001
 40
0.6000000000000001
 40
0.8
 40
0.8
 40
0.8
 40
1.0
 40
1.0
 40
1.0
 40
1.0
 10
-9.5283
 20
35.9253
 30
0.0
 10
-9.5283
 20
36.5183
 30
0.0
 10
-9.8666
 20
36.8757
 30
0.0
 10
-10.3834
 20
36.8757
 30
0.0
 10
-10.721
 20
36.8757
 30
0.0
 10
-11.034
 20
36.6654
 30
0.0
 10
-11.1871
 20
36.3652
 30
0.0
 10
-11.2252
 20
36.3017
 30
0.0
 10
-11.2509
 20
36.2185
 30
0.0
 10
-11.2509
 20
36.1165
 30
0.0
 10
-11.2379
 20
35.4339
 30
0.0
 10
-10.9253
 20
34.9301
 30
0.0
 10
-10.3383
 20
34.9301
 30
0.0
 10
-9.8539
 20
34.9301
 30
0.0
 10
-9.5283
 20
35.3316
 30
0.0
 10
-9.5283
 20
35.9253
 30
0.0
  0
SPLINE
  5
9E
330
1F
100
AcDbEntity
  8
Layer 1
 62
   250
370
    18
100
AcDbSpline
210
0.0
220
0.0
230
1.0
 70
    11
 71
     3
 72
    38
 73
    34
 74
     0
 42
0.0000000001
 43
0.0000000001
 40
0.0
 40
0.0
 40
0.0
 40
0.0
 40
0.0909090909090909
 40
0.0909090909090909
 40
0.0909090909090909
 40
0.1818181818181818
 40
0.1818181818181818
 40
0.1818181818181818
 40
0.2727272727272727
 40
0.2727272727272727
 40
0.2727272727272727
 40
0.3636363636363636
 40
0.3636363636363636
 40
0.3636363636363636
 40
0.4545454545454546
 40
0.4545454545454546
 40
0.4545454545454546
 40
0.5454545454545454
 40
0.5454545454545454
 40
0.5454545454545454
 40
0.6363636363636364
 40
0.6363636363636364
 40
0.6363636363636364
 40
0.7272727272727273
 40
0.7272727272727273
 40
0.7272727272727273
 40
0.8181818181818182
 40
0.8181818181818182
 40
0.8181818181818182
 40
0.9090909090909092
 40
0.9090909090909092
 40
0.9090909090909092
 40
1.0
 40
1.0
 40
1.0
 40
1.0
 10
-9.3688
 20
38.3178
 30
0.0
 10
-9.4835
 20
38.3242
 30
0.0
 10
-9.6303
 20
38.3178
 30
0.0
 10
-9.7897
 20
38.2924
 30
0.0
 10
-10.6702
 20
38.1453
 30
0.0
 10
-11.1363
 20
37.5012
 30
0.0
 10
-11.2319
 20
36.8182
 30
0.0
 10
-11.2319
 20
36.8182
 30
0.0
 10
-11.2121
 20
36.8182
 30
0.0
 10
-11.2121
 20
36.8182
 30
0.0
 10
-11.0149
 20
37.0799
 30
0.0
 10
-10.6702
 20
37.2973
 30
0.0
 10
-10.2109
 20
37.2973
 30
0.0
 10
-9.4771
 20
37.2973
 30
0.0
 10
-8.9603
 20
36.7674
 30
0.0
 10
-8.9603
 20
35.9571
 30
0.0
 10
-8.9603
 20
35.1975
 30
0.0
 10
-9.4771
 20
34.4958
 30
0.0
 10
-10.3383
 20
34.4958
 30
0.0
 10
-11.2252
 20
34.4958
 30
0.0
 10
-11.8058
 20
35.1848
 30
0.0
 10
-11.8058
 20
36.2633
 30
0.0
 10
-11.8058
 20
37.0799
 30
0.0
 10
-11.5123
 20
37.7245
 30
0.0
 10
-11.1038
 20
38.1326
 30
0.0
 10
-10.7595
 20
38.4709
 30
0.0
 10
-10.3002
 20
38.6812
 30
0.0
 10
-9.777
 20
38.7451
 30
0.0
 10
-9.6112
 20
38.7705
 30
0.0
 10
-9.4704
 20
38.7768
 30
0.0
 10
-9.3688
 20
38.7768
 30
0.0
 10
-9.3688
 20
38.7768
 30
0.0
 10
-9.3688
 20
38.3178
 30
0.0
 10
-9.3688
 20
38.3178
 30
0.0
  0
SPLINE
  5
9F
330
1F
100
AcDbEntity
  8
Layer 1
 62
   250
370
    18
100
AcDbSpline
210
0.0
220
0.0
230
1.0
 70
    11
 71
     3
 72
    29
 73
    25
 74
     0
 42
0.0000000001
 43
0.0000000001
 40
0.0
 40
0.0
 40
0.0
 40
0.0
 40
0.125
 40
0.125
 40
0.125
 40
0.25
 40
0.25
 40
0.25
 40
0.375
 40
0.375
 40
0.375
 40
0.5
 40
0.5
 40
0.5
 40
0.625
 40
0.625
 40
0.625
 40
0.75
 40
0.75
 40
0.75
 40
0.875
 40
0.875
 40
0.875
 40
1.0
 40
1.0
 40
1.0
 40
1.0
 10
-7.2439
 20
38.1901
 30
0.0
 10
-7.2439
 20
38.1901
 30
0.0
 10
-7.2566
 20
38.1901
 30
0.0
 10
-7.2566
 20
38.1901
 30
0.0
 10
-7.2566
 20
38.1901
 30
0.0
 10
-7.9776
 20
37.801
 30
0.0
 10
-7.9776
 20
37.801
 30
0.0
 10
-7.9776
 20
37.801
 30
0.0
 10
-8.0859
 20
38.2282
 30
0.0
 10
-8.0859
 20
38.2282
 30
0.0
 10
-8.0859
 20
38.2282
 30
0.0
 10
-7.18
 20
38.7133
 30
0.0
 10
-7.18
 20
38.7133
 30
0.0
 10
-7.18
 20
38.7133
 30
0.0
 10
-6.702
 20
38.7133
 30
0.0
 10
-6.702
 20
38.7133
 30
0.0
 10
-6.702
 20
38.7133
 30
0.0
 10
-6.702
 20
34.5664
 30
0.0
 10
-6.702
 20
34.5664
 30
0.0
 10
-6.702
 20
34.5664
 30
0.0
 10
-7.2439
 20
34.5664
 30
0.0
 10
-7.2439
 20
34.5664
 30
0.0
 10
-7.2439
 20
34.5664
 30
0.0
 10
-7.2439
 20
38.1901
 30
0.0
 10
-7.2439
 20
38.1901
 30
0.0
  0
SPLINE
  5
A0
330
1F
100
AcDbEntity
  8
Layer 1
 62
   250
370
    18
100
AcDbSpline
210
0.0
220
0.0
230
1.0
 70
    11
 71
     3
 72
    29
 73
    25
 74
     0
 42
0.0000000001
 43
0.0000000001
 40
0.0
 40
0.0
 40
0.0
 40
0.0
 40
0.125
 40
0.125
 40
0.125
 40
0.25
 40
0.25
 40
0.25
 40
0.375
 40
0.375
 40
0.375
 40
0.5
 40
0.5
 40
0.5
 40
0.625
 40
0.625
 40
0.625
 40
0.75
 40
0.75
 40
0.75
 40
0.875
 40
0.875
 40
0.875
 40
1.0
 40
1.0
 40
1.0
 40
1.0
 10
-3.97
 20
38.1901
 30
0.0
 10
-3.97
 20
38.1901
 30
0.0
 10
-3.983
 20
38.1901
 30
0.0
 10
-3.983
 20
38.1901
 30
0.0
 10
-3.983
 20
38.1901
 30
0.0
 10
-4.7037
 20
37.801
 30
0.0
 10
-4.7037
 20
37.801
 30
0.0
 10
-4.7037
 20
37.801
 30
0.0
 10
-4.8124
 20
38.2282
 30
0.0
 10
-4.8124
 20
38.2282
 30
0.0
 10
-4.8124
 20
38.2282
 30
0.0
 10
-3.9065
 20
38.7133
 30
0.0
 10
-3.9065
 20
38.7133
 30
0.0
 10
-3.9065
 20
38.7133
 30
0.0
 10
-3.4281
 20
38.7133
 30
0.0
 10
-3.4281
 20
38.7133
 30
0.0
 10
-3.4281
 20
38.7133
 30
0.0
 10
-3.4281
 20
34.5664
 30
0.0
 10
-3.4281
 20
34.5664
 30
0.0
 10
-3.4281
 20
34.5664
 30
0.0
 10
-3.97
 20
34.5664
 30
0.0
 10
-3.97
 20
34.5664
 30
0.0
 10
-3.97
 20
34.5664
 30
0.0
 10
-3.97
 20
38.1901
 30
0.0
 10
-3.97
 20
38.1901
 30
0.0
  0
SPLINE
  5
A1
330
1F
100
AcDbEntity
  8
Layer 1
 62
   250
370
    18
100
AcDbSpline
210
0.0
220
0.0
230
1.0
 70
    11
 71
     3
 72
    29
 73
    25
 74
     0
 42
0.0000000001
 43
0.0000000001
 40
0.0
 40
0.0
 40
0.0
 40
0.0
 40
0.125
 40
0.125
 40
0.125
 40
0.25
 40
0.25
 40
0.25
 40
0.375
 40
0.375
 40
0.375
 40
0.5
 40
0.5
 40
0.5
 40
0.625
 40
0.625
 40
0.625
 40
0.75
 40
0.75
 40
0.75
 40
0.875
 40
0.875
 40
0.875
 40
1.0
 40
1.0
 40
1.0
 40
1.0
 10
-0.6964
 20
38.1901
 30
0.0
 10
-0.6964
 20
38.1901
 30
0.0
 10
-0.7091
 20
38.1901
 30
0.0
 10
-0.7091
 20
38.1901
 30
0.0
 10
-0.7091
 20
38.1901
 30
0.0
 10
-1.4302
 20
37.801
 30
0.0
 10
-1.4302
 20
37.801
 30
0.0
 10
-1.4302
 20
37.801
 30
0.0
 10
-1.5389
 20
38.2282
 30
0.0
 10
-1.5389
 20
38.2282
 30
0.0
 10
-1.5389
 20
38.2282
 30
0.0
 10
-0.6329
 20
38.7133
 30
0.0
 10
-0.6329
 20
38.7133
 30
0.0
 10
-0.6329
 20
38.7133
 30
0.0
 10
-0.1546
 20
38.7133
 30
0.0
 10
-0.1546
 20
38.7133
 30
0.0
 10
-0.1546
 20
38.7133
 30
0.0
 10
-0.1546
 20
34.5664
 30
0.0
 10
-0.1546
 20
34.5664
 30
0.0
 10
-0.1546
 20
34.5664
 30
0.0
 10
-0.6964
 20
34.5664
 30
0.0
 10
-0.6964
 20
34.5664
 30
0.0
 10
-0.6964
 20
34.5664
 30
0.0
 10
-0.6964
 20
38.1901
 30
0.0
 10
-0.6964
 20
38.1901
 30
0.0
  0
SPLINE
  5
A2
330
1F
100
AcDbEntity
  8
Layer 1
 62
   250
370
    18
100
AcDbSpline
210
0.0
220
0.0
230
1.0
 70
    11
 71
     3
 72
    47
 73
    43
 74
     0
 42
0.0000000001
 43
0.0000000001
 40
0.0
 40
0.0
 40
0.0
 40
0.0
 40
0.0714285714285714
 40
0.0714285714285714
 40
0.0714285714285714
 40
0.1428571428571428
 40
0.1428571428571428
 40
0.1428571428571428
 40
0.2142857142857143
 40
0.2142857142857143
 40
0.2142857142857143
 40
0.2857142857142857
 40
0.2857142857142857
 40
0.2857142857142857
 40
0.3571428571428571
 40
0.3571428571428571
 40
0.3571428571428571
 40
0.4285714285714285
 40
0.4285714285714285
 40
0.4285714285714285
 40
0.5
 40
0.5
 40
0.5
 40
0.5714285714285714
 40
0.5714285714285714
 40
0.5714285714285714
 40
0.6428571428571428
 40
0.6428571428571428
 40
0.6428571428571428
 40
0.7142857142857142
 40
0.7142857142857142
 40
0.7142857142857142
 40
0.7857142857142857
 40
0.7857142857142857
 40
0.7857142857142857
 40
0.8571428571428571
 40
0.8571428571428571
 40
0.8571428571428571
 40
0.9285714285714285
 40
0.9285714285714285
 40
0.9285714285714285
 40
1.0
 40
1.0
 40
1.0
 40
1.0
 10
-39.01
 20
45.4903
 30
0.0
 10
-39.01
 20
45.4903
 30
0.0
 10
-38.9705
 20
45.5347
 30
0.0
 10
-38.9705
 20
45.5347
 30
0.0
 10
-38.803
 20
45.7242
 30
0.0
 10
-38.7906
 20
46.0297
 30
0.0
 10
-38.9427
 20
46.236
 30
0.0
 10
-38.9427
 20
46.236
 30
0.0
 10
-39.3477
 20
46.7867
 30
0.0
 10
-39.3477
 20
46.7867
 30
0.0
 10
-39.5103
 20
47.0083
 30
0.0
 10
-39.8003
 20
47.0326
 30
0.0
 10
-39.9897
 20
46.8411
 30
0.0
 10
-39.9897
 20
46.8411
 30
0.0
 10
-40.3375
 20
46.4897
 30
0.0
 10
-40.3375
 20
46.4897
 30
0.0
 10
-40.4575
 20
46.3683
 30
0.0
 10
-40.5118
 20
46.1852
 30
0.0
 10
-40.4825
 20
46.005
 30
0.0
 10
-40.3248
 20
45.0362
 30
0.0
 10
-39.6207
 20
42.0345
 30
0.0
 10
-36.9459
 20
42.0345
 30
0.0
 10
-36.8856
 20
42.0345
 30
0.0
 10
-36.7131
 20
42.1946
 30
0.0
 10
-36.5505
 20
42.3611
 30
0.0
 10
-36.36
 20
42.5559
 30
0.0
 10
-36.3469
 20
42.8924
 30
0.0
 10
-36.523
 20
43.1041
 30
0.0
 10
-36.523
 20
43.1041
 30
0.0
 10
-37.0281
 20
43.713
 30
0.0
 10
-37.0281
 20
43.713
 30
0.0
 10
-37.2024
 20
43.9232
 30
0.0
 10
-37.4924
 20
43.9264
 30
0.0
 10
-37.672
 20
43.7207
 30
0.0
 10
-37.8314
 20
43.5376
 30
0.0
 10
-38.0833
 20
43.5165
 30
0.0
 10
-38.2629
 20
43.6735
 30
0.0
 10
-38.4795
 20
43.8622
 30
0.0
 10
-38.773
 20
44.2143
 30
0.0
 10
-39.087
 20
44.8673
 30
0.0
 10
-39.185
 20
45.0712
 30
0.0
 10
-39.1543
 20
45.3273
 30
0.0
 10
-39.01
 20
45.4903
 30
0.0
  0
SPLINE
  5
A3
330
1F
100
AcDbEntity
  8
Layer 1
 62
   250
370
    18
100
AcDbSpline
210
0.0
220
0.0
230
1.0
 70
    11
 71
     3
 72
    47
 73
    43
 74
     0
 42
0.0000000001
 43
0.0000000001
 40
0.0
 40
0.0
 40
0.0
 40
0.0
 40
0.0714285714285714
 40
0.0714285714285714
 40
0.0714285714285714
 40
0.1428571428571428
 40
0.1428571428571428
 40
0.1428571428571428
 40
0.2142857142857143
 40
0.2142857142857143
 40
0.2142857142857143
 40
0.2857142857142857
 40
0.2857142857142857
 40
0.2857142857142857
 40
0.3571428571428571
 40
0.3571428571428571
 40
0.3571428571428571
 40
0.4285714285714285
 40
0.4285714285714285
 40
0.4285714285714285
 40
0.5
 40
0.5
 40
0.5
 40
0.5714285714285714
 40
0.5714285714285714
 40
0.5714285714285714
 40
0.6428571428571428
 40
0.6428571428571428
 40
0.6428571428571428
 40
0.7142857142857142
 40
0.7142857142857142
 40
0.7142857142857142
 40
0.7857142857142857
 40
0.7857142857142857
 40
0.7857142857142857
 40
0.8571428571428571
 40
0.8571428571428571
 40
0.8571428571428571
 40
0.9285714285714285
 40
0.9285714285714285
 40
0.9285714285714285
 40
1.0
 40
1.0
 40
1.0
 40
1.0
 10
-39.01
 20
37.4325
 30
0.0
 10
-39.01
 20
37.4325
 30
0.0
 10
-38.9705
 20
37.477
 30
0.0
 10
-38.9705
 20
37.477
 30
0.0
 10
-38.803
 20
37.6664
 30
0.0
 10
-38.7906
 20
37.9719
 30
0.0
 10
-38.9427
 20
38.178
 30
0.0
 10
-38.9427
 20
38.178
 30
0.0
 10
-39.3477
 20
38.729
 30
0.0
 10
-39.3477
 20
38.729
 30
0.0
 10
-39.5103
 20
38.9502
 30
0.0
 10
-39.8003
 20
38.9749
 30
0.0
 10
-39.9897
 20
38.7833
 30
0.0
 10
-39.9897
 20
38.7833
 30
0.0
 10
-40.3375
 20
38.4316
 30
0.0
 10
-40.3375
 20
38.4316
 30
0.0
 10
-40.4575
 20
38.3103
 30
0.0
 10
-40.5118
 20
38.1272
 30
0.0
 10
-40.4825
 20
37.9469
 30
0.0
 10
-40.3248
 20
36.9785
 30
0.0
 10
-39.6207
 20
33.9764
 30
0.0
 10
-36.9459
 20
33.9764
 30
0.0
 10
-36.8856
 20
33.9764
 30
0.0
 10
-36.7131
 20
34.1365
 30
0.0
 10
-36.5505
 20
34.3031
 30
0.0
 10
-36.36
 20
34.4981
 30
0.0
 10
-36.3469
 20
34.8343
 30
0.0
 10
-36.523
 20
35.0464
 30
0.0
 10
-36.523
 20
35.0464
 30
0.0
 10
-37.0281
 20
35.6549
 30
0.0
 10
-37.0281
 20
35.6549
 30
0.0
 10
-37.2024
 20
35.8655
 30
0.0
 10
-37.4924
 20
35.8687
 30
0.0
 10
-37.672
 20
35.6627
 30
0.0
 10
-37.8314
 20
35.4799
 30
0.0
 10
-38.0833
 20
35.4588
 30
0.0
 10
-38.2629
 20
35.6157
 30
0.0
 10
-38.4795
 20
35.8045
 30
0.0
 10
-38.773
 20
36.1562
 30
0.0
 10
-39.087
 20
36.8095
 30
0.0
 10
-39.185
 20
37.0131
 30
0.0
 10
-39.1543
 20
37.2692
 30
0.0
 10
-39.01
 20
37.4325
 30
0.0
  0
SPLINE
  5
A4
330
1F
100
AcDbEntity
  8
Layer 1
 62
   250
370
    18
100
AcDbSpline
210
0.0
220
0.0
230
1.0
 70
    11
 71
     3
 72
    29
 73
    25
 74
     0
 42
0.0000000001
 43
0.0000000001
 40
0.0
 40
0.0
 40
0.0
 40
0.0
 40
0.125
 40
0.125
 40
0.125
 40
0.25
 40
0.25
 40
0.25
 40
0.375
 40
0.375
 40
0.375
 40
0.5
 40
0.5
 40
0.5
 40
0.625
 40
0.625
 40
0.625
 40
0.75
 40
0.75
 40
0.75
 40
0.875
 40
0.875
 40
0.875
 40
1.0
 40
1.0
 40
1.0
 40
1.0
 10
-41.8021
 20
115.9394
 30
0.0
 10
-41.8021
 20
115.9394
 30
0.0
 10
2.1979
 20
115.9394
 30
0.0
 10
2.1979
 20
115.9394
 30
0.0
 10
3.8502
 20
115.9394
 30
0.0
 10
5.1979
 20
114.5917
 30
0.0
 10
5.1979
 20
112.9394
 30
0.0
 10
5.1979
 20
112.9394
 30
0.0
 10
5.1979
 20
18.9394
 30
0.0
 10
5.1979
 20
18.9394
 30
0.0
 10
5.1979
 20
17.2871
 30
0.0
 10
3.8502
 20
15.9394
 30
0.0
 10
2.1979
 20
15.9394
 30
0.0
 10
2.1979
 20
15.9394
 30
0.0
 10
-41.8021
 20
15.9394
 30
0.0
 10
-41.8021
 20
15.9394
 30
0.0
 10
-43.4544
 20
15.9394
 30
0.0
 10
-44.8021
 20
17.2871
 30
0.0
 10
-44.8021
 20
18.9394
 30
0.0
 10
-44.8021
 20
18.9394
 30
0.0
 10
-44.8021
 20
112.9394
 30
0.0
 10
-44.8021
 20
112.9394
 30
0.0
 10
-44.8021
 20
114.5917
 30
0.0
 10
-43.4544
 20
115.9394
 30
0.0
 10
-41.8021
 20
115.9394
 30
0.0
  0
ENDSEC
  0
SECTION
  2
OBJECTS
  0
DICTIONARY
  5
C
330
0
100
AcDbDictionary
281
     1
  3
ACAD_DETAILVIEWSTYLE
350
AC
  3
ACAD_GROUP
350
D
  3
ACAD_LAYOUT
350
1A
  3
ACAD_MATERIAL
350
43
  3
ACAD_MLEADERSTYLE
350
5B
  3
ACAD_MLINESTYLE
350
17
  3
ACAD_PLOTSETTINGS
350
19
  3
ACAD_PLOTSTYLENAME
350
E
  3
ACAD_SCALELIST
350
47
  3
ACAD_SECTIONVIEWSTYLE
350
AD
  3
ACAD_TABLESTYLE
350
59
  3
ACAD_VISUALSTYLE
350
2A
  3
ACDB_RECOMPOSE_DATA
350
A9
  3
AcDbVariableDictionary
350
A5
  0
SUN
  5
5D
330
29
100
AcDbSun
 90
        1
290
     0
 63
     7
421
 16777215
 40
1.0
291
     1
 91
  2455826
 92
 54000000
292
     0
 70
     2
 71
   256
280
     1
  0
DICTIONARY
  5
AC
102
{ACAD_REACTORS
330
C
102
}
330
C
100
AcDbDictionary
281
     1
  0
DICTIONARY
  5
D
102
{ACAD_REACTORS
330
C
102
}
330
C
100
AcDbDictionary
281
     1
  0
DICTIONARY
  5
1A
102
{ACAD_REACTORS
330
C
102
}
330
C
100
AcDbDictionary
281
     1
  3
Layout1
350
1E
  3
Layout2
350
26
  3
Model
350
22
  0
DICTIONARY
  5
43
102
{ACAD_REACTORS
330
C
102
}
330
C
100
AcDbDictionary
281
     1
  3
ByBlock
350
45
  3
ByLayer
350
44
  3
Global
350
46
  0
DICTIONARY
  5
5B
102
{ACAD_REACTORS
330
C
102
}
330
C
100
AcDbDictionary
281
     1
  3
Standard
350
5C
  0
DICTIONARY
  5
17
102
{ACAD_REACTORS
330
C
102
}
330
C
100
AcDbDictionary
281
     1
  3
Standard
350
18
  0
DICTIONARY
  5
19
102
{ACAD_REACTORS
330
C
102
}
330
C
100
AcDbDictionary
281
     1
  0
ACDBDICTIONARYWDFLT
  5
E
102
{ACAD_REACTORS
330
C
102
}
330
C
100
AcDbDictionary
281
     1
  3
Normal
350
F
100
AcDbDictionaryWithDefault
340
F
  0
DICTIONARY
  5
47
102
{ACAD_REACTORS
330
C
102
}
330
C
100
AcDbDictionary
281
     1
  3
A0
350
48
  3
A1
350
49
  3
A2
350
4A
  3
A3
350
4B
  3
A4
350
4C
  3
A5
350
4D
  3
A6
350
4E
  3
A7
350
4F
  3
A8
350
50
  3
A9
350
51
  3
B1
350
52
  3
B2
350
53
  3
B3
350
54
  3
B4
350
55
  3
B5
350
56
  3
B6
350
57
  3
B7
350
58
  0
DICTIONARY
  5
AD
102
{ACAD_REACTORS
330
C
102
}
330
C
100
AcDbDictionary
281
     1
  0
DICTIONARY
  5
59
102
{ACAD_REACTORS
330
C
102
}
330
C
100
AcDbDictionary
281
     1
  3
Standard
350
5A
  0
DICTIONARY
  5
2A
102
{ACAD_REACTORS
330
C
102
}
330
C
100
AcDbDictionary
281
     1
  3
2dWireframe
350
2F
  3
Basic
350
32
  3
Brighten
350
36
  3
ColorChange
350
3A
  3
Conceptual
350
34
  3
Dim
350
35
  3
EdgeColorOff
350
3D
  3
Facepattern
350
39
  3
Flat
350
2B
  3
FlatWithEdges
350
2C
  3
Gouraud
350
2D
  3
GouraudWithEdges
350
2E
  3
Hidden
350
31
  3
JitterOff
350
3B
  3
Linepattern
350
38
  3
OverhangOff
350
3C
  3
Realistic
350
33
  3
Shaded
350
42
  3
Shaded with edges
350
41
  3
Shades of Gray
350
3E
  3
Sketchy
350
3F
  3
Thicken
350
37
  3
Wireframe
350
30
  3
X-Ray
350
40
  0
XRECORD
  5
A9
102
{ACAD_REACTORS
330
C
102
}
330
C
100
AcDbXrecord
280
     1
 90
        1
330
5A
  0
DICTIONARY
  5
A5
102
{ACAD_REACTORS
330
C
102
}
330
C
100
AcDbDictionary
281
     1
  3
CANNOSCALE
350
A6
  3
CMLEADERSTYLE
350
AB
  3
CTABLESTYLE
350
AA
  0
LAYOUT
  5
1E
102
{ACAD_REACTORS
330
1A
102
}
330
1A
100
AcDbPlotSettings
  1

  2
none_device
  4

  6

 40
0.0
 41
0.0
 42
0.0
 43
0.0
 44
0.0
 45
0.0
 46
0.0
 47
0.0
 48
0.0
 49
0.0
140
0.0
141
0.0
142
1.0
143
1.0
 70
   688
 72
     0
 73
     0
 74
     5
  7

 75
    16
 76
     0
 77
     2
 78
   300
147
1.0
148
0.0
149
0.0
100
AcDbLayout
  1
Layout1
 70
     1
 71
     1
 10
0.0
 20
0.0
 11
12.0
 21
9.0
 12
0.0
 22
0.0
 32
0.0
 14
1.000000000000000E+20
 24
1.000000000000000E+20
 34
1.000000000000000E+20
 15
-1.000000000000000E+20
 25
-1.000000000000000E+20
 35
-1.000000000000000E+20
146
0.0
 13
0.0
 23
0.0
 33
0.0
 16
1.0
 26
0.0
 36
0.0
 17
0.0
 27
1.0
 37
0.0
 76
     0
330
1B
  0
LAYOUT
  5
26
102
{ACAD_REACTORS
330
1A
102
}
330
1A
100
AcDbPlotSettings
  1

  2
none_device
  4

  6

 40
0.0
 41
0.0
 42
0.0
 43
0.0
 44
0.0
 45
0.0
 46
0.0
 47
0.0
 48
0.0
 49
0.0
140
0.0
141
0.0
142
1.0
143
1.0
 70
   688
 72
     0
 73
     0
 74
     5
  7

 75
    16
 76
     0
 77
     2
 78
   300
147
1.0
148
0.0
149
0.0
100
AcDbLayout
  1
Layout2
 70
     1
 71
     2
 10
0.0
 20
0.0
 11
0.0
 21
0.0
 12
0.0
 22
0.0
 32
0.0
 14
0.0
 24
0.0
 34
0.0
 15
0.0
 25
0.0
 35
0.0
146
0.0
 13
0.0
 23
0.0
 33
0.0
 16
1.0
 26
0.0
 36
0.0
 17
0.0
 27
1.0
 37
0.0
 76
     0
330
23
  0
LAYOUT
  5
22
102
{ACAD_REACTORS
330
1A
102
}
330
1A
100
AcDbPlotSettings
  1

  2
none_device
  4
Letter_(8.50_x_11.00_Inches)
  6

 40
6.35
 41
6.35
 42
6.35000508
 43
6.35000508
 44
215.9
 45
279.4
 46
0.0
 47
0.0
 48
0.0
 49
0.0
140
0.0
141
0.0
142
1.0
143
1.0
 70
  1712
 72
     0
 73
     0
 74
     0
  7

 75
     0
 76
     0
 77
     2
 78
   300
147
1.0
148
0.0
149
0.0
100
AcDbLayout
  1
Model
 70
     1
 71
     0
 10
0.0
 20
0.0
 11
12.0
 21
9.0
 12
0.0
 22
0.0
 32
0.0
 14
-44.8903
 24
15.8512
 34
0.0
 15
5.2861
 25
116.0276
 35
0.0
146
0.0
 13
0.0
 23
0.0
 33
0.0
 16
1.0
 26
0.0
 36
0.0
 17
0.0
 27
1.0
 37
0.0
 76
     0
330
1F
331
29
  0
MATERIAL
  5
45
102
{ACAD_REACTORS
330
43
102
}
330
43
100
AcDbMaterial
  1
ByBlock
 72
     1
 94
      127
  0
MATERIAL
  5
44
102
{ACAD_REACTORS
330
43
102
}
330
43
100
AcDbMaterial
  1
ByLayer
 72
     1
 94
      127
  0
MATERIAL
  5
46
102
{ACAD_REACTORS
330
43
102
}
330
43
100
AcDbMaterial
  1
Global
 72
     1
 94
      127
  0
MLEADERSTYLE
  5
5C
102
{ACAD_REACTORS
330
5B
102
}
330
5B
100
AcDbMLeaderStyle
179
     2
170
     2
171
     1
172
     0
 90
        2
 40
0.0
 41
0.0
173
     1
 91
-1056964608
340
14
 92
       -2
290
     1
 42
0.09
291
     1
 43
0.36
  3
Standard
341
0
 44
0.18
300

342
11
174
     1
178
     6
175
     1
176
     0
 93
-1056964608
 45
0.18
292
     0
297
     0
 46
0.18
343
0
 94
-1056964608
 47
1.0
 49
1.0
140
1.0
293
     1
141
0.0
294
     1
177
     0
142
1.0
295
     0
296
     0
143
0.125
271
     0
272
     9
273
     9
298
     0
  0
MLINESTYLE
  5
18
102
{ACAD_REACTORS
330
17
102
}
330
17
100
AcDbMlineStyle
  2
Standard
 70
     0
  3

 62
   256
 51
90.0
 52
90.0
 71
     2
 49
0.5
 62
   256
  6
BYLAYER
 49
-0.5
 62
   256
  6
BYLAYER
  0
ACDBPLACEHOLDER
  5
F
102
{ACAD_REACTORS
330
E
102
}
330
E
  0
SCALE
  5
48
102
{ACAD_REACTORS
330
47
102
}
330
47
100
AcDbScale
 70
     0
300
1:1
140
1.0
141
1.0
290
     1
  0
SCALE
  5
49
102
{ACAD_REACTORS
330
47
102
}
330
47
100
AcDbScale
 70
     0
300
1/128" = 1'-0"
140
0.0078125
141
12.0
290
     0
  0
SCALE
  5
4A
102
{ACAD_REACTORS
330
47
102
}
330
47
100
AcDbScale
 70
     0
300
1/64" = 1'-0"
140
0.015625
141
12.0
290
     0
  0
SCALE
  5
4B
102
{ACAD_REACTORS
330
47
102
}
330
47
100
AcDbScale
 70
     0
300
1/32" = 1'-0"
140
0.03125
141
12.0
290
     0
  0
SCALE
  5
4C
102
{ACAD_REACTORS
330
47
102
}
330
47
100
AcDbScale
 70
     0
300
1/16" = 1'-0"
140
0.0625
141
12.0
290
     0
  0
SCALE
  5
4D
102
{ACAD_REACTORS
330
47
102
}
330
47
100
AcDbScale
 70
     0
300
3/32" = 1'-0"
140
0.09375
141
12.0
290
     0
  0
SCALE
  5
4E
102
{ACAD_REACTORS
330
47
102
}
330
47
100
AcDbScale
 70
     0
300
1/8" = 1'-0"
140
0.125
141
12.0
290
     0
  0
SCALE
  5
4F
102
{ACAD_REACTORS
330
47
102
}
330
47
100
AcDbScale
 70
     0
300
3/16" = 1'-0"
140
0.1875
141
12.0
290
     0
  0
SCALE
  5
50
102
{ACAD_REACTORS
330
47
102
}
330
47
100
AcDbScale
 70
     0
300
1/4" = 1'-0"
140
0.25
141
12.0
290
     0
  0
SCALE
  5
51
102
{ACAD_REACTORS
330
47
102
}
330
47
100
AcDbScale
 70
     0
300
3/8" = 1'-0"
140
0.375
141
12.0
290
     0
  0
SCALE
  5
52
102
{ACAD_REACTORS
330
47
102
}
330
47
100
AcDbScale
 70
     0
300
1/2" = 1'-0"
140
0.5
141
12.0
290
     0
  0
SCALE
  5
53
102
{ACAD_REACTORS
330
47
102
}
330
47
100
AcDbScale
 70
     0
300
3/4" = 1'-0"
140
0.75
141
12.0
290
     0
  0
SCALE
  5
54
102
{ACAD_REACTORS
330
47
102
}
330
47
100
AcDbScale
 70
     0
300
1" = 1'-0"
140
1.0
141
12.0
290
     0
  0
SCALE
  5
55
102
{ACAD_REACTORS
330
47
102
}
330
47
100
AcDbScale
 70
     0
300
1-1/2" = 1'-0"
140
1.5
141
12.0
290
     0
  0
SCALE
  5
56
102
{ACAD_REACTORS
330
47
102
}
330
47
100
AcDbScale
 70
     0
300
3" = 1'-0"
140
3.0
141
12.0
290
     0
  0
SCALE
  5
57
102
{ACAD_REACTORS
330
47
102
}
330
47
100
AcDbScale
 70
     0
300
6" = 1'-0"
140
6.0
141
12.0
290
     0
  0
SCALE
  5
58
102
{ACAD_REACTORS
330
47
102
}
330
47
100
AcDbScale
 70
     0
300
1'-0" = 1'-0"
140
12.0
141
12.0
290
     0
  0
TABLESTYLE
  5
5A
102
{ACAD_REACTORS
330
59
102
}
102
{ACAD_XDICTIONARY
360
A7
102
}
330
59
100
AcDbTableStyle
  3
Standard
 70
     0
 71
     0
 40
0.06
 41
0.06
280
     0
281
     0
  7
Standard
140
0.18
170
     2
 62
     0
 63
   257
283
     0
 90
        4
 91
        0
  1

274
    -2
284
     1
 64
     0
275
    -2
285
     1
 65
     0
276
    -2
286
     1
 66
     0
277
    -2
287
     1
 67
     0
278
    -2
288
     1
 68
     0
279
    -2
289
     1
 69
     0
  7
Standard
140
0.25
170
     5
 62
     0
 63
   257
283
     0
 90
        4
 91
        0
  1

274
    -2
284
     1
 64
     0
275
    -2
285
     1
 65
     0
276
    -2
286
     1
 66
     0
277
    -2
287
     1
 67
     0
278
    -2
288
     1
 68
     0
279
    -2
289
     1
 69
     0
  7
Standard
140
0.18
170
     5
 62
     0
 63
   257
283
     0
 90
        4
 91
        0
  1

274
    -2
284
     1
 64
     0
275
    -2
285
     1
 65
     0
276
    -2
286
     1
 66
     0
277
    -2
287
     1
 67
     0
278
    -2
288
     1
 68
     0
279
    -2
289
     1
 69
     0
  0
VISUALSTYLE
  5
2F
102
{ACAD_REACTORS
330
2A
102
}
330
2A
100
AcDbVisualStyle
  2
2dWireframe
 70
     4
177
     3
291
     0
 70
    58
 90
        0
176
     1
 90
        2
176
     1
 90
        0
176
     1
 90
        0
176
     1
 40
0.6
176
     1
 40
30.0
176
     1
 62
     7
420
 16777215
176
     1
 90
        1
176
     1
 90
        4
176
     1
 62
     7
176
     1
 62
   257
176
     1
 90
        1
176
     1
 90
        1
176
     1
 40
1.0
176
     1
 90
        0
176
     1
 62
   257
176
     1
 40
1.0
176
     1
 90
        1
176
     1
 90
        6
176
     1
 90
        2
176
     1
 62
     7
176
     1
 90
        5
176
     1
 90
        0
176
     1
 90
        0
176
     1
290
     0
176
     1
 90
        1
176
     1
 40
0.0
176
     1
 90
        0
176
     1
290
     1
176
     1
290
     1
176
     1
290
     0
176
     1
290
     0
176
     1
290
     0
176
     1
290
     0
176
     1
290
     0
176
     1
290
     0
176
     1
290
     0
176
     1
 90
       50
176
     1
 40
0.0
176
     1
 40
1.0
176
     1
 90
        0
176
     1
 62
    18
420
        0
176
     1
 90
       50
176
     1
 90
        3
176
     1
 62
     5
420
      255
176
     1
290
     0
176
     1
 90
       50
176
     1
 90
       50
176
     1
 90
       50
176
     1
290
     0
176
     1
 90
       50
176
     1
 62
   256
176
     0
 40
1.0
176
     0
 90
        2
176
     1
  1
strokes_ogs.tif
176
     1
290
     0
176
     1
 40
1.0
176
     1
 40
1.0
176
     1
  0
VISUALSTYLE
  5
32
102
{ACAD_REACTORS
330
2A
102
}
330
2A
100
AcDbVisualStyle
  2
Basic
 70
     7
177
     3
291
     1
 70
    58
 90
        1
176
     1
 90
        0
176
     1
 90
        1
176
     1
 90
        0
176
     1
 40
0.6
176
     1
 40
30.0
176
     1
 62
     7
420
 16777215
176
     1
 90
        0
176
     1
 90
        4
176
     1
 62
     7
176
     1
 62
   257
176
     1
 90
        1
176
     1
 90
        1
176
     1
 40
1.0
176
     1
 90
        8
176
     1
 62
     7
176
     1
 40
1.0
176
     1
 90
        1
176
     1
 90
        6
176
     1
 90
        2
176
     1
 62
     7
176
     1
 90
        5
176
     1
 90
        0
176
     1
 90
        0
176
     1
290
     0
176
     1
 90
        1
176
     1
 40
0.0
176
     1
 90
        0
176
     1
290
     0
176
     1
290
     1
176
     1
290
     1
176
     1
290
     0
176
     1
290
     0
176
     1
290
     0
176
     1
290
     0
176
     1
290
     0
176
     1
290
     0
176
     1
 90
       50
176
     1
 40
0.0
176
     1
 40
1.0
176
     1
 90
        0
176
     1
 62
    18
420
        0
176
     1
 90
       50
176
     1
 90
        3
176
     1
 62
     5
420
      255
176
     1
290
     0
176
     1
 90
       50
176
     1
 90
       50
176
     1
 90
       50
176
     1
290
     0
176
     1
 90
       50
176
     1
 62
   256
176
     0
 40
1.0
176
     0
 90
        2
176
     1
  1
strokes_ogs.tif
176
     1
290
     0
176
     1
 40
1.0
176
     1
 40
1.0
176
     1
  0
VISUALSTYLE
  5
36
102
{ACAD_REACTORS
330
2A
102
}
330
2A
100
AcDbVisualStyle
  2
Brighten
 70
    12
177
     3
291
     1
 70
    58
 90
        2
176
     1
 90
        2
176
     1
 90
        0
176
     1
 90
        0
176
     1
 40
0.6
176
     1
 40
30.0
176
     1
 62
     7
420
 16777215
176
     1
 90
        1
176
     1
 90
        4
176
     1
 62
     7
176
     1
 62
   257
176
     1
 90
        1
176
     1
 90
        1
176
     1
 40
1.0
176
     1
 90
        8
176
     1
 62
     7
176
     1
 40
1.0
176
     1
 90
        1
176
     1
 90
        6
176
     1
 90
        2
176
     1
 62
     7
176
     1
 90
        5
176
     1
 90
        0
176
     1
 90
        0
176
     1
290
     0
176
     1
 90
        1
176
     1
 40
50.0
176
     1
 90
        0
176
     1
290
     0
176
     1
290
     1
176
     1
290
     1
176
     1
290
     0
176
     1
290
     0
176
     1
290
     0
176
     1
290
     0
176
     1
290
     0
176
     1
290
     0
176
     1
 90
       50
176
     1
 40
0.0
176
     1
 40
1.0
176
     1
 90
        0
176
     1
 62
    18
420
        0
176
     1
 90
       50
176
     1
 90
        3
176
     1
 62
     5
420
      255
176
     1
290
     0
176
     1
 90
       50
176
     1
 90
       50
176
     1
 90
       50
176
     1
290
     0
176
     1
 90
       50
176
     1
 62
   256
176
     0
 40
1.0
176
     0
 90
        2
176
     1
  1
strokes_ogs.tif
176
     1
290
     0
176
     1
 40
1.0
176
     1
 40
1.0
176
     1
  0
VISUALSTYLE
  5
3A
102
{ACAD_REACTORS
330
2A
102
}
330
2A
100
AcDbVisualStyle
  2
ColorChange
 70
    16
177
     3
291
     1
 70
    58
 90
        2
176
     1
 90
        2
176
     1
 90
        3
176
     1
 90
        0
176
     1
 40
0.6
176
     1
 40
30.0
176
     1
 62
     8
420
  8421504
176
     1
 90
        1
176
     1
 90
        4
176
     1
 62
     7
176
     1
 62
   257
176
     1
 90
        1
176
     1
 90
        1
176
     1
 40
1.0
176
     1
 90
        8
176
     1
 62
     8
420
  8421504
176
     1
 40
1.0
176
     1
 90
        1
176
     1
 90
        6
176
     1
 90
        2
176
     1
 62
     7
176
     1
 90
        5
176
     1
 90
        0
176
     1
 90
        0
176
     1
290
     0
176
     1
 90
        1
176
     1
 40
0.0
176
     1
 90
        0
176
     1
290
     0
176
     1
290
     1
176
     1
290
     1
176
     1
290
     0
176
     1
290
     0
176
     1
290
     0
176
     1
290
     0
176
     1
290
     0
176
     1
290
     0
176
     1
 90
       50
176
     1
 40
0.0
176
     1
 40
1.0
176
     1
 90
        0
176
     1
 62
    18
420
        0
176
     1
 90
       50
176
     1
 90
        3
176
     1
 62
     5
420
      255
176
     1
290
     0
176
     1
 90
       50
176
     1
 90
       50
176
     1
 90
       50
176
     1
290
     0
176
     1
 90
       50
176
     1
 62
   256
176
     0
 40
1.0
176
     0
 90
        2
176
     1
  1
strokes_ogs.tif
176
     1
290
     0
176
     1
 40
1.0
176
     1
 40
1.0
176
     1
  0
VISUALSTYLE
  5
34
102
{ACAD_REACTORS
330
2A
102
}
330
2A
100
AcDbVisualStyle
  2
Conceptual
 70
     9
177
     3
291
     0
 70
    58
 90
        3
176
     1
 90
        2
176
     1
 90
        0
176
     1
 90
        0
176
     1
 40
0.6
176
     1
 40
30.0
176
     1
 62
     7
420
 16777215
176
     1
 90
        2
176
     1
 90
        2
176
     1
 62
     7
176
     1
 62
   257
176
     1
 90
        1
176
     1
 90
        1
176
     1
 40
179.0
176
     1
 90
        8
176
     1
 62
     7
176
     1
 40
1.0
176
     1
 90
        1
176
     1
 90
        6
176
     1
 90
        2
176
     1
 62
     7
176
     1
 90
        3
176
     1
 90
        0
176
     1
 90
        0
176
     1
290
     0
176
     1
 90
        1
176
     1
 40
0.0
176
     1
 90
        0
176
     1
290
     0
176
     1
290
     1
176
     1
290
     1
176
     1
290
     0
176
     1
290
     0
176
     1
290
     0
176
     1
290
     0
176
     1
290
     0
176
     1
290
     0
176
     1
 90
       50
176
     1
 40
0.0
176
     1
 40
1.0
176
     1
 90
        0
176
     1
 62
    18
420
        0
176
     1
 90
       50
176
     1
 90
        3
176
     1
 62
     5
420
      255
176
     1
290
     0
176
     1
 90
       50
176
     1
 90
       50
176
     1
 90
       50
176
     1
290
     0
176
     1
 90
       50
176
     1
 62
   256
176
     0
 40
1.0
176
     0
 90
        2
176
     1
  1
strokes_ogs.tif
176
     1
290
     0
176
     1
 40
1.0
176
     1
 40
1.0
176
     1
  0
VISUALSTYLE
  5
35
102
{ACAD_REACTORS
330
2A
102
}
330
2A
100
AcDbVisualStyle
  2
Dim
 70
    11
177
     3
291
     1
 70
    58
 90
        2
176
     1
 90
        2
176
     1
 90
        0
176
     1
 90
        0
176
     1
 40
0.6
176
     1
 40
30.0
176
     1
 62
     7
420
 16777215
176
     1
 90
        1
176
     1
 90
        4
176
     1
 62
     7
176
     1
 62
   257
176
     1
 90
        1
176
     1
 90
        1
176
     1
 40
1.0
176
     1
 90
        8
176
     1
 62
     7
176
     1
 40
1.0
176
     1
 90
        1
176
     1
 90
        6
176
     1
 90
        2
176
     1
 62
     7
176
     1
 90
        5
176
     1
 90
        0
176
     1
 90
        0
176
     1
290
     0
176
     1
 90
        1
176
     1
 40
-50.0
176
     1
 90
        0
176
     1
290
     0
176
     1
290
     1
176
     1
290
     1
176
     1
290
     0
176
     1
290
     0
176
     1
290
     0
176
     1
290
     0
176
     1
290
     0
176
     1
290
     0
176
     1
 90
       50
176
     1
 40
0.0
176
     1
 40
1.0
176
     1
 90
        0
176
     1
 62
    18
420
        0
176
     1
 90
       50
176
     1
 90
        3
176
     1
 62
     5
420
      255
176
     1
290
     0
176
     1
 90
       50
176
     1
 90
       50
176
     1
 90
       50
176
     1
290
     0
176
     1
 90
       50
176
     1
 62
   256
176
     0
 40
1.0
176
     0
 90
        2
176
     1
  1
strokes_ogs.tif
176
     1
290
     0
176
     1
 40
1.0
176
     1
 40
1.0
176
     1
  0
VISUALSTYLE
  5
3D
102
{ACAD_REACTORS
330
2A
102
}
330
2A
100
AcDbVisualStyle
  2
EdgeColorOff
 70
    22
177
     3
291
     1
 70
    58
 90
        2
176
     0
 90
        2
176
     0
 90
        0
176
     0
 90
        0
176
     0
 40
0.6
176
     0
 40
30.0
176
     0
 62
     7
420
 16777215
176
     0
 90
        1
176
     0
 90
        4
176
     0
 62
     7
176
     0
 62
   257
176
     0
 90
        1
176
     0
 90
        1
176
     0
 40
1.0
176
     0
 90
        8
176
     2
 62
     7
176
     0
 40
1.0
176
     0
 90
        1
176
     0
 90
        6
176
     0
 90
        2
176
     0
 62
     7
176
     0
 90
        5
176
     0
 90
        0
176
     0
 90
        0
176
     0
290
     0
176
     0
 90
        1
176
     0
 40
0.0
176
     0
 90
        0
176
     0
290
     0
176
     0
290
     1
176
     0
290
     1
176
     0
290
     0
176
     0
290
     0
176
     0
290
     0
176
     0
290
     0
176
     0
290
     0
176
     0
290
     0
176
     0
 90
       50
176
     0
 40
0.0
176
     0
 40
1.0
176
     0
 90
        0
176
     0
 62
    18
420
        0
176
     0
 90
       50
176
     0
 90
        3
176
     0
 62
     5
420
      255
176
     0
290
     0
176
     0
 90
       50
176
     0
 90
       50
176
     0
 90
       50
176
     0
290
     0
176
     0
 90
       50
176
     0
 62
   256
176
     0
 40
1.0
176
     0
 90
        2
176
     0
  1
strokes_ogs.tif
176
     0
290
     0
176
     0
 40
1.0
176
     0
 40
1.0
176
     0
  0
VISUALSTYLE
  5
39
102
{ACAD_REACTORS
330
2A
102
}
330
2A
100
AcDbVisualStyle
  2
Facepattern
 70
    15
177
     3
291
     1
 70
    58
 90
        2
176
     1
 90
        2
176
     1
 90
        0
176
     1
 90
        0
176
     1
 40
0.6
176
     1
 40
30.0
176
     1
 62
     7
420
 16777215
176
     1
 90
        1
176
     1
 90
        4
176
     1
 62
     7
176
     1
 62
   257
176
     1
 90
        1
176
     1
 90
        1
176
     1
 40
1.0
176
     1
 90
        8
176
     1
 62
     7
176
     1
 40
1.0
176
     1
 90
        1
176
     1
 90
        6
176
     1
 90
        2
176
     1
 62
     7
176
     1
 90
        5
176
     1
 90
        0
176
     1
 90
        0
176
     1
290
     0
176
     1
 90
        1
176
     1
 40
0.0
176
     1
 90
        0
176
     1
290
     0
176
     1
290
     1
176
     1
290
     1
176
     1
290
     0
176
     1
290
     0
176
     1
290
     0
176
     1
290
     0
176
     1
290
     0
176
     1
290
     0
176
     1
 90
       50
176
     1
 40
0.0
176
     1
 40
1.0
176
     1
 90
        0
176
     1
 62
    18
420
        0
176
     1
 90
       50
176
     1
 90
        3
176
     1
 62
     5
420
      255
176
     1
290
     0
176
     1
 90
       50
176
     1
 90
       50
176
     1
 90
       50
176
     1
290
     0
176
     1
 90
       50
176
     1
 62
   256
176
     0
 40
1.0
176
     0
 90
        2
176
     1
  1
strokes_ogs.tif
176
     1
290
     0
176
     1
 40
1.0
176
     1
 40
1.0
176
     1
  0
VISUALSTYLE
  5
2B
102
{ACAD_REACTORS
330
2A
102
}
330
2A
100
AcDbVisualStyle
  2
Flat
 70
     0
177
     3
291
     1
 70
    58
 90
        2
176
     1
 90
        1
176
     1
 90
        1
176
     1
 90
        2
176
     1
 40
0.6
176
     1
 40
30.0
176
     1
 62
     7
420
 16777215
176
     1
 90
        0
176
     1
 90
        0
176
     1
 62
     7
176
     1
 62
   257
176
     1
 90
        1
176
     1
 90
        1
176
     1
 40
1.0
176
     1
 90
        8
176
     1
 62
     7
176
     1
 40
1.0
176
     1
 90
        1
176
     1
 90
        6
176
     1
 90
        2
176
     1
 62
     7
176
     1
 90
        5
176
     1
 90
        0
176
     1
 90
        0
176
     1
290
     0
176
     1
 90
       13
176
     1
 40
0.0
176
     1
 90
        0
176
     1
290
     0
176
     1
290
     1
176
     1
290
     1
176
     1
290
     0
176
     1
290
     0
176
     1
290
     0
176
     1
290
     0
176
     1
290
     0
176
     1
290
     0
176
     1
 90
       50
176
     1
 40
0.0
176
     1
 40
1.0
176
     1
 90
        0
176
     1
 62
    18
420
        0
176
     1
 90
       50
176
     1
 90
        3
176
     1
 62
     5
420
      255
176
     1
290
     0
176
     1
 90
       50
176
     1
 90
       50
176
     1
 90
       50
176
     1
290
     0
176
     1
 90
       50
176
     1
 62
   256
176
     0
 40
1.0
176
     0
 90
        2
176
     1
  1
strokes_ogs.tif
176
     1
290
     0
176
     1
 40
1.0
176
     1
 40
1.0
176
     1
  0
VISUALSTYLE
  5
2C
102
{ACAD_REACTORS
330
2A
102
}
330
2A
100
AcDbVisualStyle
  2
FlatWithEdges
 70
     1
177
     3
291
     1
 70
    58
 90
        2
176
     1
 90
        1
176
     1
 90
        1
176
     1
 90
        2
176
     1
 40
0.6
176
     1
 40
30.0
176
     1
 62
     7
420
 16777215
176
     1
 90
        1
176
     1
 90
        0
176
     1
 62
     7
176
     1
 62
   257
176
     1
 90
        1
176
     1
 90
        1
176
     1
 40
1.0
176
     1
 90
        0
176
     1
 62
   257
176
     1
 40
1.0
176
     1
 90
        1
176
     1
 90
        6
176
     1
 90
        2
176
     1
 62
     7
176
     1
 90
        5
176
     1
 90
        0
176
     1
 90
        0
176
     1
290
     0
176
     1
 90
       13
176
     1
 40
0.0
176
     1
 90
        0
176
     1
290
     0
176
     1
290
     1
176
     1
290
     1
176
     1
290
     0
176
     1
290
     0
176
     1
290
     0
176
     1
290
     0
176
     1
290
     0
176
     1
290
     0
176
     1
 90
       50
176
     1
 40
0.0
176
     1
 40
1.0
176
     1
 90
        0
176
     1
 62
    18
420
        0
176
     1
 90
       50
176
     1
 90
        3
176
     1
 62
     5
420
      255
176
     1
290
     0
176
     1
 90
       50
176
     1
 90
       50
176
     1
 90
       50
176
     1
290
     0
176
     1
 90
       50
176
     1
 62
   256
176
     0
 40
1.0
176
     0
 90
        2
176
     1
  1
strokes_ogs.tif
176
     1
290
     0
176
     1
 40
1.0
176
     1
 40
1.0
176
     1
  0
VISUALSTYLE
  5
2D
102
{ACAD_REACTORS
330
2A
102
}
330
2A
100
AcDbVisualStyle
  2
Gouraud
 70
     2
177
     3
291
     1
 70
    58
 90
        2
176
     1
 90
        2
176
     1
 90
        1
176
     1
 90
        2
176
     1
 40
0.6
176
     1
 40
30.0
176
     1
 62
     7
420
 16777215
176
     1
 90
        0
176
     1
 90
        0
176
     1
 62
     7
176
     1
 62
   257
176
     1
 90
        1
176
     1
 90
        1
176
     1
 40
1.0
176
     1
 90
        0
176
     1
 62
     7
176
     1
 40
1.0
176
     1
 90
        1
176
     1
 90
        6
176
     1
 90
        2
176
     1
 62
     7
176
     1
 90
        5
176
     1
 90
        0
176
     1
 90
        0
176
     1
290
     0
176
     1
 90
       13
176
     1
 40
0.0
176
     1
 90
        0
176
     1
290
     0
176
     1
290
     1
176
     1
290
     1
176
     1
290
     0
176
     1
290
     0
176
     1
290
     0
176
     1
290
     0
176
     1
290
     0
176
     1
290
     0
176
     1
 90
       50
176
     1
 40
0.0
176
     1
 40
1.0
176
     1
 90
        0
176
     1
 62
    18
420
        0
176
     1
 90
       50
176
     1
 90
        3
176
     1
 62
     5
420
      255
176
     1
290
     0
176
     1
 90
       50
176
     1
 90
       50
176
     1
 90
       50
176
     1
290
     0
176
     1
 90
       50
176
     1
 62
   256
176
     0
 40
1.0
176
     0
 90
        2
176
     1
  1
strokes_ogs.tif
176
     1
290
     0
176
     1
 40
1.0
176
     1
 40
1.0
176
     1
  0
VISUALSTYLE
  5
2E
102
{ACAD_REACTORS
330
2A
102
}
330
2A
100
AcDbVisualStyle
  2
GouraudWithEdges
 70
     3
177
     3
291
     1
 70
    58
 90
        2
176
     1
 90
        2
176
     1
 90
        1
176
     1
 90
        2
176
     1
 40
0.6
176
     1
 40
30.0
176
     1
 62
     7
420
 16777215
176
     1
 90
        1
176
     1
 90
        0
176
     1
 62
     7
176
     1
 62
   257
176
     1
 90
        1
176
     1
 90
        1
176
     1
 40
1.0
176
     1
 90
        0
176
     1
 62
   257
176
     1
 40
1.0
176
     1
 90
        1
176
     1
 90
        6
176
     1
 90
        2
176
     1
 62
     7
176
     1
 90
        5
176
     1
 90
        0
176
     1
 90
        0
176
     1
290
     0
176
     1
 90
       13
176
     1
 40
0.0
176
     1
 90
        0
176
     1
290
     0
176
     1
290
     1
176
     1
290
     1
176
     1
290
     0
176
     1
290
     0
176
     1
290
     0
176
     1
290
     0
176
     1
290
     0
176
     1
290
     0
176
     1
 90
       50
176
     1
 40
0.0
176
     1
 40
1.0
176
     1
 90
        0
176
     1
 62
    18
420
        0
176
     1
 90
       50
176
     1
 90
        3
176
     1
 62
     5
420
      255
176
     1
290
     0
176
     1
 90
       50
176
     1
 90
       50
176
     1
 90
       50
176
     1
290
     0
176
     1
 90
       50
176
     1
 62
   256
176
     0
 40
1.0
176
     0
 90
        2
176
     1
  1
strokes_ogs.tif
176
     1
290
     0
176
     1
 40
1.0
176
     1
 40
1.0
176
     1
  0
VISUALSTYLE
  5
31
102
{ACAD_REACTORS
330
2A
102
}
330
2A
100
AcDbVisualStyle
  2
Hidden
 70
     6
177
     3
291
     0
 70
    58
 90
        1
176
     1
 90
        2
176
     1
 90
        2
176
     1
 90
        0
176
     1
 40
0.6
176
     1
 40
30.0
176
     1
 62
     7
420
 16777215
176
     1
 90
        2
176
     1
 90
        2
176
     1
 62
     7
176
     1
 62
   257
176
     1
 90
        2
176
     1
 90
        1
176
     1
 40
40.0
176
     1
 90
        0
176
     1
 62
   257
176
     1
 40
1.0
176
     1
 90
        1
176
     1
 90
        6
176
     1
 90
        2
176
     1
 62
     7
176
     1
 90
        3
176
     1
 90
        0
176
     1
 90
        0
176
     1
290
     0
176
     1
 90
        1
176
     1
 40
0.0
176
     1
 90
        0
176
     1
290
     0
176
     1
290
     1
176
     1
290
     1
176
     1
290
     0
176
     1
290
     0
176
     1
290
     0
176
     1
290
     0
176
     1
290
     0
176
     1
290
     0
176
     1
 90
       50
176
     1
 40
0.0
176
     1
 40
1.0
176
     1
 90
        0
176
     1
 62
    18
420
        0
176
     1
 90
       50
176
     1
 90
        3
176
     1
 62
     5
420
      255
176
     1
290
     0
176
     1
 90
       50
176
     1
 90
       50
176
     1
 90
       50
176
     1
290
     0
176
     1
 90
       50
176
     1
 62
   256
176
     0
 40
1.0
176
     0
 90
        2
176
     1
  1
strokes_ogs.tif
176
     1
290
     0
176
     1
 40
1.0
176
     1
 40
1.0
176
     1
  0
VISUALSTYLE
  5
3B
102
{ACAD_REACTORS
330
2A
102
}
330
2A
100
AcDbVisualStyle
  2
JitterOff
 70
    20
177
     3
291
     1
 70
    58
 90
        2
176
     0
 90
        2
176
     0
 90
        0
176
     0
 90
        0
176
     0
 40
0.6
176
     0
 40
30.0
176
     0
 62
     7
420
 16777215
176
     0
 90
        1
176
     0
 90
        4
176
     0
 62
     7
176
     0
 62
   257
176
     0
 90
        1
176
     0
 90
        1
176
     0
 40
1.0
176
     0
 90
       10
176
     2
 62
     7
176
     0
 40
1.0
176
     0
 90
        1
176
     0
 90
        6
176
     0
 90
        2
176
     0
 62
     7
176
     0
 90
        5
176
     0
 90
        0
176
     0
 90
        0
176
     0
290
     0
176
     0
 90
        1
176
     0
 40
0.0
176
     0
 90
        0
176
     0
290
     0
176
     0
290
     1
176
     0
290
     1
176
     0
290
     0
176
     0
290
     0
176
     0
290
     0
176
     0
290
     0
176
     0
290
     0
176
     0
290
     0
176
     0
 90
       50
176
     0
 40
0.0
176
     0
 40
1.0
176
     0
 90
        0
176
     0
 62
    18
420
        0
176
     0
 90
       50
176
     0
 90
        3
176
     0
 62
     5
420
      255
176
     0
290
     0
176
     0
 90
       50
176
     0
 90
       50
176
     0
 90
       50
176
     0
290
     0
176
     0
 90
       50
176
     0
 62
   256
176
     0
 40
1.0
176
     0
 90
        2
176
     0
  1
strokes_ogs.tif
176
     0
290
     0
176
     0
 40
1.0
176
     0
 40
1.0
176
     0
  0
VISUALSTYLE
  5
38
102
{ACAD_REACTORS
330
2A
102
}
330
2A
100
AcDbVisualStyle
  2
Linepattern
 70
    14
177
     3
291
     1
 70
    58
 90
        2
176
     1
 90
        2
176
     1
 90
        0
176
     1
 90
        0
176
     1
 40
0.6
176
     1
 40
30.0
176
     1
 62
     7
420
 16777215
176
     1
 90
        1
176
     1
 90
        4
176
     1
 62
     7
176
     1
 62
   257
176
     1
 90
        7
176
     1
 90
        7
176
     1
 40
1.0
176
     1
 90
        8
176
     1
 62
     7
176
     1
 40
1.0
176
     1
 90
        1
176
     1
 90
        6
176
     1
 90
        2
176
     1
 62
     7
176
     1
 90
        5
176
     1
 90
        0
176
     1
 90
        0
176
     1
290
     0
176
     1
 90
        1
176
     1
 40
0.0
176
     1
 90
        0
176
     1
290
     0
176
     1
290
     1
176
     1
290
     1
176
     1
290
     0
176
     1
290
     0
176
     1
290
     0
176
     1
290
     0
176
     1
290
     0
176
     1
290
     0
176
     1
 90
       50
176
     1
 40
0.0
176
     1
 40
1.0
176
     1
 90
        0
176
     1
 62
    18
420
        0
176
     1
 90
       50
176
     1
 90
        3
176
     1
 62
     5
420
      255
176
     1
290
     0
176
     1
 90
       50
176
     1
 90
       50
176
     1
 90
       50
176
     1
290
     0
176
     1
 90
       50
176
     1
 62
   256
176
     0
 40
1.0
176
     0
 90
        2
176
     1
  1
strokes_ogs.tif
176
     1
290
     0
176
     1
 40
1.0
176
     1
 40
1.0
176
     1
  0
VISUALSTYLE
  5
3C
102
{ACAD_REACTORS
330
2A
102
}
330
2A
100
AcDbVisualStyle
  2
OverhangOff
 70
    21
177
     3
291
     1
 70
    58
 90
        2
176
     0
 90
        2
176
     0
 90
        0
176
     0
 90
        0
176
     0
 40
0.6
176
     0
 40
30.0
176
     0
 62
     7
420
 16777215
176
     0
 90
        1
176
     0
 90
        4
176
     0
 62
     7
176
     0
 62
   257
176
     0
 90
        1
176
     0
 90
        1
176
     0
 40
1.0
176
     0
 90
        9
176
     2
 62
     7
176
     0
 40
1.0
176
     0
 90
        1
176
     0
 90
        6
176
     0
 90
        2
176
     0
 62
     7
176
     0
 90
        5
176
     0
 90
        0
176
     0
 90
        0
176
     0
290
     0
176
     0
 90
        1
176
     0
 40
0.0
176
     0
 90
        0
176
     0
290
     0
176
     0
290
     1
176
     0
290
     1
176
     0
290
     0
176
     0
290
     0
176
     0
290
     0
176
     0
290
     0
176
     0
290
     0
176
     0
290
     0
176
     0
 90
       50
176
     0
 40
0.0
176
     0
 40
1.0
176
     0
 90
        0
176
     0
 62
    18
420
        0
176
     0
 90
       50
176
     0
 90
        3
176
     0
 62
     5
420
      255
176
     0
290
     0
176
     0
 90
       50
176
     0
 90
       50
176
     0
 90
       50
176
     0
290
     0
176
     0
 90
       50
176
     0
 62
   256
176
     0
 40
1.0
176
     0
 90
        2
176
     0
  1
strokes_ogs.tif
176
     0
290
     0
176
     0
 40
1.0
176
     0
 40
1.0
176
     0
  0
VISUALSTYLE
  5
33
102
{ACAD_REACTORS
330
2A
102
}
330
2A
100
AcDbVisualStyle
  2
Realistic
 70
     8
177
     3
291
     0
 70
    58
 90
        2
176
     1
 90
        3
176
     1
 90
        0
176
     1
 90
        2
176
     1
 40
0.6
176
     1
 40
30.0
176
     1
 62
     7
420
 16777215
176
     1
 90
        0
176
     1
 90
        0
176
     1
 62
     7
176
     1
 62
   257
176
     1
 90
        1
176
     1
 90
        1
176
     1
 40
1.0
176
     1
 90
        8
176
     1
 62
   257
176
     1
 40
1.0
176
     1
 90
        1
176
     1
 90
        6
176
     1
 90
        2
176
     1
 62
     7
176
     1
 90
        3
176
     1
 90
        0
176
     1
 90
        0
176
     1
290
     0
176
     1
 90
       13
176
     1
 40
0.0
176
     1
 90
        0
176
     1
290
     0
176
     1
290
     1
176
     1
290
     1
176
     1
290
     0
176
     1
290
     0
176
     1
290
     0
176
     1
290
     0
176
     1
290
     0
176
     1
290
     0
176
     1
 90
       50
176
     1
 40
0.0
176
     1
 40
1.0
176
     1
 90
        0
176
     1
 62
    18
420
        0
176
     1
 90
       50
176
     1
 90
        3
176
     1
 62
     5
420
      255
176
     1
290
     0
176
     1
 90
       50
176
     1
 90
       50
176
     1
 90
       50
176
     1
290
     0
176
     1
 90
       50
176
     1
 62
   256
176
     0
 40
1.0
176
     0
 90
        2
176
     1
  1
strokes_ogs.tif
176
     1
290
     0
176
     1
 40
1.0
176
     1
 40
1.0
176
     1
  0
VISUALSTYLE
  5
42
102
{ACAD_REACTORS
330
2A
102
}
330
2A
100
AcDbVisualStyle
  2
Shaded
 70
    27
177
     3
291
     0
 70
    58
 90
        2
176
     1
 90
        2
176
     1
 90
        1
176
     1
 90
        2
176
     1
 40
0.6
176
     1
 40
30.0
176
     1
 62
     7
420
 16777215
176
     1
 90
        0
176
     1
 90
        4
176
     1
 62
     7
176
     1
 62
   257
176
     1
 90
        1
176
     1
 90
        1
176
     1
 40
1.0
176
     1
 90
        8
176
     1
 62
   257
176
     1
 40
1.0
176
     1
 90
        1
176
     1
 90
        6
176
     1
 90
        2
176
     1
 62
     8
420
  7895160
176
     1
 90
        3
176
     1
 90
        0
176
     1
 90
        0
176
     1
290
     0
176
     1
 90
        5
176
     1
 40
0.0
176
     1
 90
        0
176
     1
290
     0
176
     1
290
     1
176
     1
290
     1
176
     1
290
     0
176
     1
290
     0
176
     1
290
     0
176
     1
290
     0
176
     1
290
     0
176
     1
290
     0
176
     1
 90
       50
176
     1
 40
0.0
176
     1
 40
1.0
176
     1
 90
        0
176
     1
 62
    18
420
        0
176
     1
 90
       50
176
     1
 90
        3
176
     1
 62
     5
420
      255
176
     1
290
     0
176
     1
 90
       50
176
     1
 90
       50
176
     1
 90
       50
176
     1
290
     0
176
     1
 90
       50
176
     1
 62
   256
176
     0
 40
1.0
176
     0
 90
        2
176
     1
  1
strokes_ogs.tif
176
     1
290
     0
176
     1
 40
1.0
176
     1
 40
1.0
176
     1
  0
VISUALSTYLE
  5
41
102
{ACAD_REACTORS
330
2A
102
}
330
2A
100
AcDbVisualStyle
  2
Shaded with edges
 70
    26
177
     3
291
     0
 70
    58
 90
        2
176
     1
 90
        2
176
     1
 90
        1
176
     1
 90
        2
176
     1
 40
0.6
176
     1
 40
30.0
176
     1
 62
     7
420
 16777215
176
     1
 90
        1
176
     1
 90
       10
176
     1
 62
     7
176
     1
 62
   257
176
     1
 90
        2
176
     1
 90
        1
176
     1
 40
1.0
176
     1
 90
        8
176
     1
 62
   257
176
     1
 40
1.0
176
     1
 90
        1
176
     1
 90
        6
176
     1
 90
        2
176
     1
 62
     7
176
     1
 90
        3
176
     1
 90
        0
176
     1
 90
        0
176
     1
290
     0
176
     1
 90
        5
176
     1
 40
0.0
176
     1
 90
        0
176
     1
290
     0
176
     1
290
     1
176
     1
290
     1
176
     1
290
     0
176
     1
290
     0
176
     1
290
     0
176
     1
290
     0
176
     1
290
     0
176
     1
290
     0
176
     1
 90
       50
176
     1
 40
0.0
176
     1
 40
1.0
176
     1
 90
        0
176
     1
 62
    18
420
        0
176
     1
 90
       50
176
     1
 90
        3
176
     1
 62
     5
420
      255
176
     1
290
     0
176
     1
 90
       50
176
     1
 90
       50
176
     1
 90
       50
176
     1
290
     0
176
     1
 90
       50
176
     1
 62
   256
176
     0
 40
1.0
176
     0
 90
        2
176
     1
  1
strokes_ogs.tif
176
     1
290
     0
176
     1
 40
1.0
176
     1
 40
1.0
176
     1
  0
VISUALSTYLE
  5
3E
102
{ACAD_REACTORS
330
2A
102
}
330
2A
100
AcDbVisualStyle
  2
Shades of Gray
 70
    23
177
     3
291
     0
 70
    58
 90
        2
176
     1
 90
        2
176
     1
 90
        3
176
     1
 90
        0
176
     1
 40
0.6
176
     1
 40
30.0
176
     1
 62
     7
420
 16777215
176
     1
 90
        2
176
     1
 90
        2
176
     1
 62
     7
176
     1
 62
     7
176
     1
 90
        1
176
     1
 90
        1
176
     1
 40
40.0
176
     1
 90
        8
176
     1
 62
     7
176
     1
 40
1.0
176
     1
 90
        1
176
     1
 90
        6
176
     1
 90
        2
176
     1
 62
     7
176
     1
 90
        3
176
     1
 90
        0
176
     1
 90
        0
176
     1
290
     0
176
     1
 90
        1
176
     1
 40
0.0
176
     1
 90
        0
176
     1
290
     0
176
     1
290
     1
176
     1
290
     1
176
     1
290
     0
176
     1
290
     0
176
     1
290
     0
176
     1
290
     0
176
     1
290
     0
176
     1
290
     0
176
     1
 90
       50
176
     1
 40
0.0
176
     1
 40
1.0
176
     1
 90
        0
176
     1
 62
    18
420
        0
176
     1
 90
       50
176
     1
 90
        3
176
     1
 62
     5
420
      255
176
     1
290
     0
176
     1
 90
       50
176
     1
 90
       50
176
     1
 90
       50
176
     1
290
     0
176
     1
 90
       50
176
     1
 62
   256
176
     0
 40
1.0
176
     0
 90
        2
176
     1
  1
strokes_ogs.tif
176
     1
290
     0
176
     1
 40
1.0
176
     1
 40
1.0
176
     1
  0
VISUALSTYLE
  5
3F
102
{ACAD_REACTORS
330
2A
102
}
330
2A
100
AcDbVisualStyle
  2
Sketchy
 70
    24
177
     3
291
     0
 70
    58
 90
        1
176
     1
 90
        2
176
     1
 90
        2
176
     1
 90
        0
176
     1
 40
0.6
176
     1
 40
30.0
176
     1
 62
     7
420
 16777215
176
     1
 90
        2
176
     1
 90
        2
176
     1
 62
     7
176
     1
 62
     7
176
     1
 90
        1
176
     1
 90
        1
176
     1
 40
40.0
176
     1
 90
       11
176
     1
 62
     7
176
     1
 40
1.0
176
     1
 90
        1
176
     1
 90
        6
176
     1
 90
        2
176
     1
 62
     7
176
     1
 90
        6
176
     1
 90
        0
176
     1
 90
        0
176
     1
290
     0
176
     1
 90
        1
176
     1
 40
0.0
176
     1
 90
        0
176
     1
290
     0
176
     1
290
     1
176
     1
290
     1
176
     1
290
     0
176
     1
290
     0
176
     1
290
     0
176
     1
290
     0
176
     1
290
     0
176
     1
290
     0
176
     1
 90
       50
176
     1
 40
0.0
176
     1
 40
1.0
176
     1
 90
        0
176
     1
 62
    18
420
        0
176
     1
 90
       50
176
     1
 90
        3
176
     1
 62
     5
420
      255
176
     1
290
     0
176
     1
 90
       50
176
     1
 90
       50
176
     1
 90
       50
176
     1
290
     0
176
     1
 90
       50
176
     1
 62
   256
176
     0
 40
1.0
176
     0
 90
        2
176
     1
  1
strokes_ogs.tif
176
     1
290
     0
176
     1
 40
1.0
176
     1
 40
1.0
176
     1
  0
VISUALSTYLE
  5
37
102
{ACAD_REACTORS
330
2A
102
}
330
2A
100
AcDbVisualStyle
  2
Thicken
 70
    13
177
     3
291
     1
 70
    58
 90
        2
176
     1
 90
        2
176
     1
 90
        0
176
     1
 90
        0
176
     1
 40
0.6
176
     1
 40
30.0
176
     1
 62
     7
420
 16777215
176
     1
 90
        1
176
     1
 90
        4
176
     1
 62
     7
176
     1
 62
   257
176
     1
 90
        1
176
     1
 90
        1
176
     1
 40
1.0
176
     1
 90
       12
176
     1
 62
     7
176
     1
 40
1.0
176
     1
 90
        1
176
     1
 90
        6
176
     1
 90
        2
176
     1
 62
     7
176
     1
 90
        5
176
     1
 90
        0
176
     1
 90
        0
176
     1
290
     0
176
     1
 90
        1
176
     1
 40
0.0
176
     1
 90
        0
176
     1
290
     0
176
     1
290
     1
176
     1
290
     1
176
     1
290
     0
176
     1
290
     0
176
     1
290
     0
176
     1
290
     0
176
     1
290
     0
176
     1
290
     0
176
     1
 90
       50
176
     1
 40
0.0
176
     1
 40
1.0
176
     1
 90
        0
176
     1
 62
    18
420
        0
176
     1
 90
       50
176
     1
 90
        3
176
     1
 62
     5
420
      255
176
     1
290
     0
176
     1
 90
       50
176
     1
 90
       50
176
     1
 90
       50
176
     1
290
     0
176
     1
 90
       50
176
     1
 62
   256
176
     0
 40
1.0
176
     0
 90
        2
176
     1
  1
strokes_ogs.tif
176
     1
290
     0
176
     1
 40
1.0
176
     1
 40
1.0
176
     1
  0
VISUALSTYLE
  5
30
102
{ACAD_REACTORS
330
2A
102
}
330
2A
100
AcDbVisualStyle
  2
Wireframe
 70
     5
177
     3
291
     0
 70
    58
 90
        0
176
     1
 90
        2
176
     1
 90
        0
176
     1
 90
        0
176
     1
 40
0.6
176
     1
 40
30.0
176
     1
 62
     7
420
 16777215
176
     1
 90
        1
176
     1
 90
        4
176
     1
 62
     7
176
     1
 62
   257
176
     1
 90
        1
176
     1
 90
        1
176
     1
 40
1.0
176
     1
 90
        0
176
     1
 62
   257
176
     1
 40
1.0
176
     1
 90
        1
176
     1
 90
        6
176
     1
 90
        2
176
     1
 62
     7
176
     1
 90
        3
176
     1
 90
        0
176
     1
 90
        0
176
     1
290
     0
176
     1
 90
        1
176
     1
 40
0.0
176
     1
 90
        0
176
     1
290
     0
176
     1
290
     1
176
     1
290
     1
176
     1
290
     0
176
     1
290
     0
176
     1
290
     0
176
     1
290
     0
176
     1
290
     0
176
     1
290
     0
176
     1
 90
       50
176
     1
 40
0.0
176
     1
 40
1.0
176
     1
 90
        0
176
     1
 62
    18
420
        0
176
     1
 90
       50
176
     1
 90
        3
176
     1
 62
     5
420
      255
176
     1
290
     0
176
     1
 90
       50
176
     1
 90
       50
176
     1
 90
       50
176
     1
290
     0
176
     1
 90
       50
176
     1
 62
   256
176
     0
 40
1.0
176
     0
 90
        2
176
     1
  1
strokes_ogs.tif
176
     1
290
     0
176
     1
 40
1.0
176
     1
 40
1.0
176
     1
  0
VISUALSTYLE
  5
40
102
{ACAD_REACTORS
330
2A
102
}
330
2A
100
AcDbVisualStyle
  2
X-Ray
 70
    25
177
     3
291
     0
 70
    58
 90
        2
176
     1
 90
        2
176
     1
 90
        1
176
     1
 90
        1
176
     1
 40
0.5
176
     1
 40
30.0
176
     1
 62
     7
420
 16777215
176
     1
 90
        1
176
     1
 90
        0
176
     1
 62
     7
176
     1
 62
   257
176
     1
 90
        1
176
     1
 90
        1
176
     1
 40
1.0
176
     1
 90
        8
176
     1
 62
     7
176
     1
 40
1.0
176
     1
 90
        1
176
     1
 90
        6
176
     1
 90
        2
176
     1
 62
     7
176
     1
 90
        3
176
     1
 90
        0
176
     1
 90
        0
176
     1
290
     0
176
     1
 90
       13
176
     1
 40
0.0
176
     1
 90
        0
176
     1
290
     0
176
     1
290
     1
176
     1
290
     1
176
     1
290
     0
176
     1
290
     0
176
     1
290
     0
176
     1
290
     0
176
     1
290
     0
176
     1
290
     0
176
     1
 90
       50
176
     1
 40
0.0
176
     1
 40
1.0
176
     1
 90
        0
176
     1
 62
    18
420
        0
176
     1
 90
       50
176
     1
 90
        3
176
     1
 62
     5
420
      255
176
     1
290
     0
176
     1
 90
       50
176
     1
 90
       50
176
     1
 90
       50
176
     1
290
     0
176
     1
 90
       50
176
     1
 62
   256
176
     0
 40
1.0
176
     0
 90
        2
176
     1
  1
strokes_ogs.tif
176
     1
290
     0
176
     1
 40
1.0
176
     1
 40
1.0
176
     1
  0
DICTIONARYVAR
  5
A6
102
{ACAD_REACTORS
330
A5
102
}
330
A5
100
DictionaryVariables
280
     0
  1
1:1
  0
DICTIONARYVAR
  5
AB
102
{ACAD_REACTORS
330
A5
102
}
330
A5
100
DictionaryVariables
280
     0
  1
Standard
  0
DICTIONARYVAR
  5
AA
102
{ACAD_REACTORS
330
A5
102
}
330
A5
100
DictionaryVariables
280
     0
  1
Standard
  0
DICTIONARY
  5
A7
330
5A
100
AcDbDictionary
280
     1
281
     1
  3
ACAD_ROUNDTRIP_2008_TABLESTYLE_CELLSTYLEMAP
360
A8
  0
CELLSTYLEMAP
  5
A8
102
{ACAD_REACTORS
330
A7
102
}
330
A7
100
AcDbCellStyleMap
 90
        3
300
CELLSTYLE
  1
TABLEFORMAT_BEGIN
 90
        5
170
     1
 91
        0
 92
    32768
 62
   257
 93
        1
300
CONTENTFORMAT
  1
CONTENTFORMAT_BEGIN
 90
        0
 91
        0
 92
        4
 93
        0
300

 40
0.0
140
1.0
 94
        5
 62
     0
340
11
144
0.25
309
CONTENTFORMAT_END
171
     1
301
MARGIN
  1
CELLMARGIN_BEGIN
 40
0.06
 40
0.06
 40
0.06
 40
0.06
 40
0.06
 40
0.06
309
CELLMARGIN_END
 94
        6
 95
        1
302
GRIDFORMAT
  1
GRIDFORMAT_BEGIN
 90
        0
 91
        1
 62
     0
 92
       -2
340
14
 93
        0
 40
0.045
309
GRIDFORMAT_END
 95
        2
302
GRIDFORMAT
  1
GRIDFORMAT_BEGIN
 90
        0
 91
        1
 62
     0
 92
       -2
340
14
 93
        0
 40
0.045
309
GRIDFORMAT_END
 95
        4
302
GRIDFORMAT
  1
GRIDFORMAT_BEGIN
 90
        0
 91
        1
 62
     0
 92
       -2
340
14
 93
        0
 40
0.045
309
GRIDFORMAT_END
 95
        8
302
GRIDFORMAT
  1
GRIDFORMAT_BEGIN
 90
        0
 91
        1
 62
     0
 92
       -2
340
14
 93
        0
 40
0.045
309
GRIDFORMAT_END
 95
       16
302
GRIDFORMAT
  1
GRIDFORMAT_BEGIN
 90
        0
 91
        1
 62
     0
 92
       -2
340
14
 93
        0
 40
0.045
309
GRIDFORMAT_END
 95
       32
302
GRIDFORMAT
  1
GRIDFORMAT_BEGIN
 90
        0
 91
        1
 62
     0
 92
       -2
340
14
 93
        0
 40
0.045
309
GRIDFORMAT_END
309
TABLEFORMAT_END
  1
CELLSTYLE_BEGIN
 90
        1
 91
        1
300
_TITLE
309
CELLSTYLE_END
300
CELLSTYLE
  1
TABLEFORMAT_BEGIN
 90
        5
170
     1
 91
        0
 92
        0
 62
   257
 93
        1
300
CONTENTFORMAT
  1
CONTENTFORMAT_BEGIN
 90
        0
 91
        0
 92
        4
 93
        0
300

 40
0.0
140
1.0
 94
        5
 62
     0
340
11
144
0.18
309
CONTENTFORMAT_END
171
     1
301
MARGIN
  1
CELLMARGIN_BEGIN
 40
0.06
 40
0.06
 40
0.06
 40
0.06
 40
0.06
 40
0.06
309
CELLMARGIN_END
 94
        6
 95
        1
302
GRIDFORMAT
  1
GRIDFORMAT_BEGIN
 90
        0
 91
        1
 62
     0
 92
       -2
340
14
 93
        0
 40
0.045
309
GRIDFORMAT_END
 95
        2
302
GRIDFORMAT
  1
GRIDFORMAT_BEGIN
 90
        0
 91
        1
 62
     0
 92
       -2
340
14
 93
        0
 40
0.045
309
GRIDFORMAT_END
 95
        4
302
GRIDFORMAT
  1
GRIDFORMAT_BEGIN
 90
        0
 91
        1
 62
     0
 92
       -2
340
14
 93
        0
 40
0.045
309
GRIDFORMAT_END
 95
        8
302
GRIDFORMAT
  1
GRIDFORMAT_BEGIN
 90
        0
 91
        1
 62
     0
 92
       -2
340
14
 93
        0
 40
0.045
309
GRIDFORMAT_END
 95
       16
302
GRIDFORMAT
  1
GRIDFORMAT_BEGIN
 90
        0
 91
        1
 62
     0
 92
       -2
340
14
 93
        0
 40
0.045
309
GRIDFORMAT_END
 95
       32
302
GRIDFORMAT
  1
GRIDFORMAT_BEGIN
 90
        0
 91
        1
 62
     0
 92
       -2
340
14
 93
        0
 40
0.045
309
GRIDFORMAT_END
309
TABLEFORMAT_END
  1
CELLSTYLE_BEGIN
 90
        2
 91
        1
300
_HEADER
309
CELLSTYLE_END
300
CELLSTYLE
  1
TABLEFORMAT_BEGIN
 90
        5
170
     1
 91
        0
 92
        0
 62
   257
 93
        1
300
CONTENTFORMAT
  1
CONTENTFORMAT_BEGIN
 90
        0
 91
        0
 92
        4
 93
        0
300

 40
0.0
140
1.0
 94
        2
 62
     0
340
11
144
0.18
309
CONTENTFORMAT_END
171
     1
301
MARGIN
  1
CELLMARGIN_BEGIN
 40
0.06
 40
0.06
 40
0.06
 40
0.06
 40
0.06
 40
0.06
309
CELLMARGIN_END
 94
        6
 95
        1
302
GRIDFORMAT
  1
GRIDFORMAT_BEGIN
 90
        0
 91
        1
 62
     0
 92
       -2
340
14
 93
        0
 40
0.045
309
GRIDFORMAT_END
 95
        2
302
GRIDFORMAT
  1
GRIDFORMAT_BEGIN
 90
        0
 91
        1
 62
     0
 92
       -2
340
14
 93
        0
 40
0.045
309
GRIDFORMAT_END
 95
        4
302
GRIDFORMAT
  1
GRIDFORMAT_BEGIN
 90
        0
 91
        1
 62
     0
 92
       -2
340
14
 93
        0
 40
0.045
309
GRIDFORMAT_END
 95
        8
302
GRIDFORMAT
  1
GRIDFORMAT_BEGIN
 90
        0
 91
        1
 62
     0
 92
       -2
340
14
 93
        0
 40
0.045
309
GRIDFORMAT_END
 95
       16
302
GRIDFORMAT
  1
GRIDFORMAT_BEGIN
 90
        0
 91
        1
 62
     0
 92
       -2
340
14
 93
        0
 40
0.045
309
GRIDFORMAT_END
 95
       32
302
GRIDFORMAT
  1
GRIDFORMAT_BEGIN
 90
        0
 91
        1
 62
     0
 92
       -2
340
14
 93
        0
 40
0.045
309
GRIDFORMAT_END
309
TABLEFORMAT_END
  1
CELLSTYLE_BEGIN
 90
        3
 91
        2
300
_DATA
309
CELLSTYLE_END
  0
ENDSEC
  0
EOF
