  0
SECTION
  2
HEADER
  9
$ACADVER
  1
AC1032
  9
$ACADMAINTVER
 90
       55
  9
$DWGCODEPAGE
  3
UNDEFINED
  9
$LASTSAVEDBY
  1
Administrator
  9
$REQUIREDVERSIONS
160
                 0
  9
$INSBASE
 10
0.0
 20
0.0
 30
0.0
  9
$EXTMIN
 10
-22.793
 20
7.7653
 30
0.0
  9
$EXTMAX
 10
27.3834
 20
57.9417
 30
0.0
  9
$LIMMIN
 10
0.0
 20
0.0
  9
$LIMMAX
 10
12.0
 20
9.0
  9
$ORTHOMODE
 70
     0
  9
$REGENMODE
 70
     1
  9
$FILLMODE
 70
     1
  9
$QTEXTMODE
 70
     0
  9
$MIRRTEXT
 70
     1
  9
$LTSCALE
 40
1.0
  9
$ATTMODE
 70
     1
  9
$TEXTSIZE
 40
0.2
  9
$TRACEWID
 40
0.05
  9
$TEXTSTYLE
  7
Standard
  9
$CLAYER
  8
0
  9
$CELTYPE
  6
ByLayer
  9
$CECOLOR
 62
   256
  9
$CELTSCALE
 40
1.0
  9
$DISPSILH
 70
     0
  9
$DIMSCALE
 40
1.0
  9
$DIMASZ
 40
0.18
  9
$DIMEXO
 40
0.0625
  9
$DIMDLI
 40
0.38
  9
$DIMRND
 40
0.0
  9
$DIMDLE
 40
0.0
  9
$DIMEXE
 40
0.18
  9
$DIMTP
 40
0.0
  9
$DIMTM
 40
0.0
  9
$DIMTXT
 40
0.18
  9
$DIMCEN
 40
0.09
  9
$DIMTSZ
 40
0.0
  9
$DIMTOL
 70
     0
  9
$DIMLIM
 70
     0
  9
$DIMTIH
 70
     1
  9
$DIMTOH
 70
     1
  9
$DIMSE1
 70
     0
  9
$DIMSE2
 70
     0
  9
$DIMTAD
 70
     0
  9
$DIMZIN
 70
     0
  9
$DIMBLK
  1

  9
$DIMASO
 70
     1
  9
$DIMSHO
 70
     1
  9
$DIMPOST
  1

  9
$DIMAPOST
  1

  9
$DIMALT
 70
     0
  9
$DIMALTD
 70
     2
  9
$DIMALTF
 40
25.4
  9
$DIMLFAC
 40
1.0
  9
$DIMTOFL
 70
     0
  9
$DIMTVP
 40
0.0
  9
$DIMTIX
 70
     0
  9
$DIMSOXD
 70
     0
  9
$DIMSAH
 70
     0
  9
$DIMBLK1
  1

  9
$DIMBLK2
  1

  9
$DIMSTYLE
  2
Standard
  9
$DIMCLRD
 70
     0
  9
$DIMCLRE
 70
     0
  9
$DIMCLRT
 70
     0
  9
$DIMTFAC
 40
1.0
  9
$DIMGAP
 40
0.09
  9
$DIMJUST
 70
     0
  9
$DIMSD1
 70
     0
  9
$DIMSD2
 70
     0
  9
$DIMTOLJ
 70
     1
  9
$DIMTZIN
 70
     0
  9
$DIMALTZ
 70
     0
  9
$DIMALTTZ
 70
     0
  9
$DIMUPT
 70
     0
  9
$DIMDEC
 70
     4
  9
$DIMTDEC
 70
     4
  9
$DIMALTU
 70
     2
  9
$DIMALTTD
 70
     2
  9
$DIMTXSTY
  7
Standard
  9
$DIMAUNIT
 70
     0
  9
$DIMADEC
 70
     0
  9
$DIMALTRND
 40
0.0
  9
$DIMAZIN
 70
     0
  9
$DIMDSEP
 70
    46
  9
$DIMATFIT
 70
     3
  9
$DIMFRAC
 70
     0
  9
$DIMLDRBLK
  1

  9
$DIMLUNIT
 70
     2
  9
$DIMLWD
 70
    -2
  9
$DIMLWE
 70
    -2
  9
$DIMTMOVE
 70
     0
  9
$DIMFXL
 40
1.0
  9
$DIMFXLON
 70
     0
  9
$DIMJOGANG
 40
0.7853981633974483
  9
$DIMTFILL
 70
     0
  9
$DIMTFILLCLR
 70
     0
  9
$DIMARCSYM
 70
     0
  9
$DIMLTYPE
  6

  9
$DIMLTEX1
  6

  9
$DIMLTEX2
  6

  9
$DIMTXTDIRECTION
 70
     0
  9
$LUNITS
 70
     2
  9
$LUPREC
 70
     4
  9
$SKETCHINC
 40
0.1
  9
$FILLETRAD
 40
0.0
  9
$AUNITS
 70
     0
  9
$AUPREC
 70
     0
  9
$MENU
  1
.
  9
$ELEVATION
 40
0.0
  9
$PELEVATION
 40
0.0
  9
$THICKNESS
 40
0.0
  9
$LIMCHECK
 70
     0
  9
$CHAMFERA
 40
0.0
  9
$CHAMFERB
 40
0.0
  9
$CHAMFERC
 40
0.0
  9
$CHAMFERD
 40
0.0
  9
$SKPOLY
 70
     0
  9
$TDCREATE
 40
2460356.545262361
  9
$TDUCREATE
 40
2460356.399429028
  9
$TDUPDATE
 40
2460356.545262408
  9
$TDUUPDATE
 40
2460356.399429074
  9
$TDINDWG
 40
0.0000000116
  9
$TDUSRTIMER
 40
0.0000000116
  9
$USRTIMER
 70
     1
  9
$ANGBASE
 50
0.0
  9
$ANGDIR
 70
     0
  9
$PDMODE
 70
     0
  9
$PDSIZE
 40
0.0
  9
$PLINEWID
 40
0.0
  9
$SPLFRAME
 70
     0
  9
$SPLINETYPE
 70
     6
  9
$SPLINESEGS
 70
     8
  9
$HANDSEED
  5
AE
  9
$SURFTAB1
 70
     6
  9
$SURFTAB2
 70
     6
  9
$SURFTYPE
 70
     6
  9
$SURFU
 70
     6
  9
$SURFV
 70
     6
  9
$UCSBASE
  2

  9
$UCSNAME
  2

  9
$UCSORG
 10
0.0
 20
0.0
 30
0.0
  9
$UCSXDIR
 10
1.0
 20
0.0
 30
0.0
  9
$UCSYDIR
 10
0.0
 20
1.0
 30
0.0
  9
$UCSORTHOREF
  2

  9
$UCSORTHOVIEW
 70
     0
  9
$UCSORGTOP
 10
0.0
 20
0.0
 30
0.0
  9
$UCSORGBOTTOM
 10
0.0
 20
0.0
 30
0.0
  9
$UCSORGLEFT
 10
0.0
 20
0.0
 30
0.0
  9
$UCSORGRIGHT
 10
0.0
 20
0.0
 30
0.0
  9
$UCSORGFRONT
 10
0.0
 20
0.0
 30
0.0
  9
$UCSORGBACK
 10
0.0
 20
0.0
 30
0.0
  9
$PUCSBASE
  2

  9
$PUCSNAME
  2

  9
$PUCSORG
 10
0.0
 20
0.0
 30
0.0
  9
$PUCSXDIR
 10
1.0
 20
0.0
 30
0.0
  9
$PUCSYDIR
 10
0.0
 20
1.0
 30
0.0
  9
$PUCSORTHOREF
  2

  9
$PUCSORTHOVIEW
 70
     0
  9
$PUCSORGTOP
 10
0.0
 20
0.0
 30
0.0
  9
$PUCSORGBOTTOM
 10
0.0
 20
0.0
 30
0.0
  9
$PUCSORGLEFT
 10
0.0
 20
0.0
 30
0.0
  9
$PUCSORGRIGHT
 10
0.0
 20
0.0
 30
0.0
  9
$PUCSORGFRONT
 10
0.0
 20
0.0
 30
0.0
  9
$PUCSORGBACK
 10
0.0
 20
0.0
 30
0.0
  9
$USERI1
 70
     0
  9
$USERI2
 70
     0
  9
$USERI3
 70
     0
  9
$USERI4
 70
     0
  9
$USERI5
 70
     0
  9
$USERR1
 40
0.0
  9
$USERR2
 40
0.0
  9
$USERR3
 40
0.0
  9
$USERR4
 40
0.0
  9
$USERR5
 40
0.0
  9
$WORLDVIEW
 70
     1
  9
$SHADEDGE
 70
     3
  9
$SHADEDIF
 70
    70
  9
$TILEMODE
 70
     1
  9
$MAXACTVP
 70
    64
  9
$PINSBASE
 10
0.0
 20
0.0
 30
0.0
  9
$PLIMCHECK
 70
     0
  9
$PEXTMIN
 10
1.000000000000000E+20
 20
1.000000000000000E+20
 30
1.000000000000000E+20
  9
$PEXTMAX
 10
-1.000000000000000E+20
 20
-1.000000000000000E+20
 30
-1.000000000000000E+20
  9
$PLIMMIN
 10
0.0
 20
0.0
  9
$PLIMMAX
 10
12.0
 20
9.0
  9
$UNITMODE
 70
     0
  9
$VISRETAIN
 70
     1
  9
$PLINEGEN
 70
     0
  9
$PSLTSCALE
 70
     1
  9
$TREEDEPTH
 70
  3020
  9
$CMLSTYLE
  2
Standard
  9
$CMLJUST
 70
     0
  9
$CMLSCALE
 40
1.0
  9
$PROXYGRAPHICS
 70
     1
  9
$MEASUREMENT
 70
     0
  9
$CELWEIGHT
370
    -1
  9
$ENDCAPS
280
     0
  9
$JOINSTYLE
280
     0
  9
$LWDISPLAY
290
     0
  9
$INSUNITS
 70
     4
  9
$HYPERLINKBASE
  1

  9
$STYLESHEET
  1

  9
$XEDIT
290
     1
  9
$CEPSNTYPE
380
     0
  9
$PSTYLEMODE
290
     1
  9
$FINGERPRINTGUID
  2
{9aed7396-ac75-4ae9-a9e6-91c7faa18120}
  9
$VERSIONGUID
  2
{FAEB1C32-E019-11D5-929B-00C0DF256EC4}
  9
$EXTNAMES
290
     1
  9
$PSVPSCALE
 40
0.0
  9
$OLESTARTUP
290
     0
  9
$SORTENTS
280
   127
  9
$INDEXCTL
280
     0
  9
$HIDETEXT
280
     1
  9
$XCLIPFRAME
280
     2
  9
$HALOGAP
280
     0
  9
$OBSCOLOR
 70
   257
  9
$OBSLTYPE
280
     0
  9
$INTERSECTIONDISPLAY
280
     0
  9
$INTERSECTIONCOLOR
 70
   257
  9
$DIMASSOC
280
     2
  9
$PROJECTNAME
  1

  9
$CAMERADISPLAY
290
     0
  9
$LENSLENGTH
 40
50.0
  9
$CAMERAHEIGHT
 40
0.0
  9
$STEPSPERSEC
 40
2.0
  9
$STEPSIZE
 40
6.0
  9
$3DDWFPREC
 40
2.0
  9
$PSOLWIDTH
 40
0.25
  9
$PSOLHEIGHT
 40
4.0
  9
$LOFTANG1
 40
1.570796326794897
  9
$LOFTANG2
 40
1.570796326794897
  9
$LOFTMAG1
 40
0.0
  9
$LOFTMAG2
 40
0.0
  9
$LOFTPARAM
 70
     7
  9
$LOFTNORMALS
280
     1
  9
$LATITUDE
 40
37.795
  9
$LONGITUDE
 40
-122.394
  9
$NORTHDIRECTION
 40
0.0
  9
$TIMEZONE
 70
 -8000
  9
$LIGHTGLYPHDISPLAY
280
     1
  9
$TILEMODELIGHTSYNCH
280
     1
  9
$CMATERIAL
347
44
  9
$SOLIDHIST
280
     0
  9
$SHOWHIST
280
     1
  9
$DWFFRAME
280
     2
  9
$DGNFRAME
280
     2
  9
$REALWORLDSCALE
290
     1
  9
$INTERFERECOLOR
 62
   256
  9
$CSHADOW
280
     0
  9
$SHADOWPLANELOCATION
 40
0.0
  0
ENDSEC
  0
SECTION
  2
CLASSES
  0
CLASS
  1
ACDBDICTIONARYWDFLT
  2
AcDbDictionaryWithDefault
  3
ObjectDBX Classes
 90
        0
 91
        3
280
     0
281
     0
  0
CLASS
  1
VISUALSTYLE
  2
AcDbVisualStyle
  3
ObjectDBX Classes
 90
     4095
 91
        3
280
     0
281
     0
  0
CLASS
  1
MATERIAL
  2
AcDbMaterial
  3
ObjectDBX Classes
 90
     1153
 91
        3
280
     0
281
     0
  0
CLASS
  1
SCALE
  2
AcDbScale
  3
ObjectDBX Classes
 90
     1153
 91
        3
280
     0
281
     0
  0
CLASS
  1
TABLESTYLE
  2
AcDbTableStyle
  3
ObjectDBX Classes
 90
     4095
 91
        3
280
     0
281
     0
  0
CLASS
  1
MLEADERSTYLE
  2
AcDbMLeaderStyle
  3
ACDB_MLEADERSTYLE_CLASS
 90
     4095
 91
        3
280
     0
281
     0
  0
CLASS
  1
SUN
  2
AcDbSun
  3
SCENEOE
 90
     1153
 91
        3
280
     0
281
     0
  0
CLASS
  1
DICTIONARYVAR
  2
AcDbDictionaryVar
  3
ObjectDBX Classes
 90
        0
 91
        3
280
     0
281
     0
  0
CLASS
  1
CELLSTYLEMAP
  2
AcDbCellStyleMap
  3
ObjectDBX Classes
 90
     1152
 91
        3
280
     0
281
     0
  0
ENDSEC
  0
SECTION
  2
TABLES
  0
TABLE
  2
VPORT
  5
8
330
0
100
AcDbSymbolTable
 70
     1
  0
VPORT
  5
29
330
8
100
AcDbSymbolTableRecord
100
AcDbViewportTableRecord
  2
*Active
 70
     0
 10
0.0
 20
0.0
 11
1.0
 21
1.0
 12
10.42990654205607
 22
4.5
 13
0.0
 23
0.0
 14
0.5
 24
0.5
 15
0.5
 25
0.5
 16
0.0
 26
0.0
 36
1.0
 17
0.0
 27
0.0
 37
0.0
 40
9.0
 41
1.972972972850329
 42
50.0
 43
0.0
 44
0.0
 50
0.0
 51
0.0
 71
     0
 72
   100
 73
     1
 74
     3
 75
     0
 76
     0
 77
     0
 78
     0
281
     0
 65
     1
110
0.0
120
0.0
130
0.0
111
1.0
121
0.0
131
0.0
112
0.0
122
1.0
132
0.0
 79
     0
146
0.0
348
2F
 60
     3
 61
     5
292
     1
282
     1
141
0.0
142
0.0
 63
   250
361
5D
  0
ENDTAB
  0
TABLE
  2
LTYPE
  5
5
330
0
100
AcDbSymbolTable
 70
     1
  0
LTYPE
  5
14
330
5
100
AcDbSymbolTableRecord
100
AcDbLinetypeTableRecord
  2
ByBlock
 70
     0
  3

 72
    65
 73
     0
 40
0.0
  0
LTYPE
  5
15
330
5
100
AcDbSymbolTableRecord
100
AcDbLinetypeTableRecord
  2
ByLayer
 70
     0
  3

 72
    65
 73
     0
 40
0.0
  0
LTYPE
  5
16
330
5
100
AcDbSymbolTableRecord
100
AcDbLinetypeTableRecord
  2
Continuous
 70
     0
  3
Solid line
 72
    65
 73
     0
 40
0.0
  0
ENDTAB
  0
TABLE
  2
LAYER
  5
2
330
0
100
AcDbSymbolTable
 70
     2
  0
LAYER
  5
10
330
2
100
AcDbSymbolTableRecord
100
AcDbLayerTableRecord
  2
0
 70
     0
 62
     7
  6
Continuous
370
    -3
390
F
347
46
348
0
  0
LAYER
  5
5F
330
2
100
AcDbSymbolTableRecord
100
AcDbLayerTableRecord
  2
Layer 1
 70
     0
 62
     7
  6
Continuous
370
    -3
390
F
347
46
348
0
  0
ENDTAB
  0
TABLE
  2
STYLE
  5
3
330
0
100
AcDbSymbolTable
 70
     1
  0
STYLE
  5
11
330
3
100
AcDbSymbolTableRecord
100
AcDbTextStyleTableRecord
  2
Standard
 70
     0
 40
0.0
 41
1.0
 50
0.0
 71
     0
 42
0.2
  3
txt
  4

  0
ENDTAB
  0
TABLE
  2
VIEW
  5
6
330
0
100
AcDbSymbolTable
 70
     0
  0
ENDTAB
  0
TABLE
  2
UCS
  5
7
330
0
100
AcDbSymbolTable
 70
     0
  0
ENDTAB
  0
TABLE
  2
APPID
  5
9
330
0
100
AcDbSymbolTable
 70
     2
  0
APPID
  5
12
330
9
100
AcDbSymbolTableRecord
100
AcDbRegAppTableRecord
  2
ACAD
 70
     0
  0
APPID
  5
5E
330
9
100
AcDbSymbolTableRecord
100
AcDbRegAppTableRecord
  2
ODA
 70
     0
  0
ENDTAB
  0
TABLE
  2
DIMSTYLE
  5
A
330
0
100
AcDbSymbolTable
 70
     1
100
AcDbDimStyleTable
  0
DIMSTYLE
105
27
330
A
100
AcDbSymbolTableRecord
100
AcDbDimStyleTableRecord
  2
Standard
 70
     0
178
     0
340
11
  0
ENDTAB
  0
TABLE
  2
BLOCK_RECORD
  5
1
330
0
100
AcDbSymbolTable
 70
     1
  0
BLOCK_RECORD
  5
1F
330
1
100
AcDbSymbolTableRecord
100
AcDbBlockTableRecord
  2
*Model_Space
340
22
 70
     0
280
     1
281
     0
  0
BLOCK_RECORD
  5
1B
330
1
100
AcDbSymbolTableRecord
100
AcDbBlockTableRecord
  2
*Paper_Space
340
1E
 70
     0
280
     1
281
     0
  0
BLOCK_RECORD
  5
23
330
1
100
AcDbSymbolTableRecord
100
AcDbBlockTableRecord
  2
*Paper_Space0
340
26
 70
     0
280
     1
281
     0
  0
ENDTAB
  0
ENDSEC
  0
SECTION
  2
BLOCKS
  0
BLOCK
  5
20
330
1F
100
AcDbEntity
  8
0
100
AcDbBlockBegin
  2
*Model_Space
 70
     0
 10
0.0
 20
0.0
 30
0.0
  3
*Model_Space
  1

  0
ENDBLK
  5
21
330
1F
100
AcDbEntity
  8
0
100
AcDbBlockEnd
  0
BLOCK
  5
1C
330
1B
100
AcDbEntity
 67
     1
  8
0
100
AcDbBlockBegin
  2
*Paper_Space
 70
     0
 10
0.0
 20
0.0
 30
0.0
  3
*Paper_Space
  1

  0
ENDBLK
  5
1D
330
1B
100
AcDbEntity
 67
     1
  8
0
100
AcDbBlockEnd
  0
BLOCK
  5
24
330
23
100
AcDbEntity
  8
0
100
AcDbBlockBegin
  2
*Paper_Space0
 70
     0
 10
0.0
 20
0.0
 30
0.0
  3
*Paper_Space0
  1

  0
ENDBLK
  5
25
330
23
100
AcDbEntity
  8
0
100
AcDbBlockEnd
  0
ENDSEC
  0
SECTION
  2
ENTITIES
  0
SPLINE
  5
60
330
1F
100
AcDbEntity
  8
Layer 1
 62
   250
370
     9
100
AcDbSpline
210
0.0
220
0.0
230
1.0
 70
    11
 71
     3
 72
    56
 73
    52
 74
     0
 42
0.0000000001
 43
0.0000000001
 40
0.0
 40
0.0
 40
0.0
 40
0.0
 40
0.0588235294117647
 40
0.0588235294117647
 40
0.0588235294117647
 40
0.1176470588235294
 40
0.1176470588235294
 40
0.1176470588235294
 40
0.1764705882352941
 40
0.1764705882352941
 40
0.1764705882352941
 40
0.2352941176470588
 40
0.2352941176470588
 40
0.2352941176470588
 40
0.2941176470588235
 40
0.2941176470588235
 40
0.2941176470588235
 40
0.3529411764705882
 40
0.3529411764705882
 40
0.3529411764705882
 40
0.4117647058823529
 40
0.4117647058823529
 40
0.4117647058823529
 40
0.4705882352941176
 40
0.4705882352941176
 40
0.4705882352941176
 40
0.5294117647058824
 40
0.5294117647058824
 40
0.5294117647058824
 40
0.5882352941176471
 40
0.5882352941176471
 40
0.5882352941176471
 40
0.6470588235294118
 40
0.6470588235294118
 40
0.6470588235294118
 40
0.7058823529411764
 40
0.7058823529411764
 40
0.7058823529411764
 40
0.7647058823529411
 40
0.7647058823529411
 40
0.7647058823529411
 40
0.8235294117647058
 40
0.8235294117647058
 40
0.8235294117647058
 40
0.8823529411764706
 40
0.8823529411764706
 40
0.8823529411764706
 40
0.9411764705882353
 40
0.9411764705882353
 40
0.9411764705882353
 40
1.0
 40
1.0
 40
1.0
 40
1.0
 10
-19.4298
 20
38.9221
 30
0.0
 10
-19.4298
 20
38.7818
 30
0.0
 10
-19.4298
 20
38.646
 30
0.0
 10
-19.4298
 20
38.5099
 30
0.0
 10
-19.4296
 20
37.1482
 30
0.0
 10
-19.4339
 20
35.7861
 30
0.0
 10
-19.4245
 20
34.4244
 30
0.0
 10
-19.423
 20
34.2063
 30
0.0
 10
-19.4955
 20
34.1425
 30
0.0
 10
-19.7039
 20
34.1474
 30
0.0
 10
-20.2044
 20
34.1588
 30
0.0
 10
-20.1279
 20
34.1292
 30
0.0
 10
-20.1284
 20
34.5786
 30
0.0
 10
-20.1304
 20
36.6335
 30
0.0
 10
-20.1259
 20
38.6883
 30
0.0
 10
-20.1338
 20
40.7433
 30
0.0
 10
-20.1346
 20
40.9645
 30
0.0
 10
-20.0728
 20
41.038
 30
0.0
 10
-19.8488
 20
41.0294
 30
0.0
 10
-19.3383
 20
41.0099
 30
0.0
 10
-19.4429
 20
41.0788
 30
0.0
 10
-19.3519
 20
40.6046
 30
0.0
 10
-18.9036
 20
38.2674
 30
0.0
 10
-16.0668
 20
37.1414
 30
0.0
 10
-14.1469
 20
38.5456
 30
0.0
 10
-13.4947
 20
39.0226
 30
0.0
 10
-13.0483
 20
39.6534
 30
0.0
 10
-12.8477
 20
40.4458
 30
0.0
 10
-12.8313
 20
40.5099
 30
0.0
 10
-12.8109
 20
40.5732
 30
0.0
 10
-12.7904
 20
40.636
 30
0.0
 10
-12.785
 20
40.6523
 30
0.0
 10
-12.772
 20
40.6656
 30
0.0
 10
-12.7541
 20
40.6936
 30
0.0
 10
-12.5805
 20
40.5252
 30
0.0
 10
-12.4048
 20
40.3652
 30
0.0
 10
-12.2448
 20
40.1909
 30
0.0
 10
-12.2138
 20
40.1571
 30
0.0
 10
-12.2294
 20
40.0629
 30
0.0
 10
-12.2476
 20
40.004
 30
0.0
 10
-12.7884
 20
38.2728
 30
0.0
 10
-14.5968
 20
37.0753
 30
0.0
 10
-16.3905
 20
37.2434
 30
0.0
 10
-17.5915
 20
37.3561
 30
0.0
 10
-18.5554
 20
37.8872
 30
0.0
 10
-19.2987
 20
38.8309
 30
0.0
 10
-19.3209
 20
38.8592
 30
0.0
 10
-19.3451
 20
38.886
 30
0.0
 10
-19.3708
 20
38.9114
 30
0.0
 10
-19.3774
 20
38.918
 30
0.0
 10
-19.3926
 20
38.9158
 30
0.0
 10
-19.4298
 20
38.9221
 30
0.0
  0
SPLINE
  5
61
330
1F
100
AcDbEntity
  8
Layer 1
 62
   250
370
     9
100
AcDbSpline
210
0.0
220
0.0
230
1.0
 70
    11
 71
     3
 72
    53
 73
    49
 74
     0
 42
0.0000000001
 43
0.0000000001
 40
0.0
 40
0.0
 40
0.0
 40
0.0
 40
0.0625
 40
0.0625
 40
0.0625
 40
0.125
 40
0.125
 40
0.125
 40
0.1875
 40
0.1875
 40
0.1875
 40
0.25
 40
0.25
 40
0.25
 40
0.3125
 40
0.3125
 40
0.3125
 40
0.375
 40
0.375
 40
0.375
 40
0.4375
 40
0.4375
 40
0.4375
 40
0.5
 40
0.5
 40
0.5
 40
0.5625
 40
0.5625
 40
0.5625
 40
0.625
 40
0.625
 40
0.625
 40
0.6875
 40
0.6875
 40
0.6875
 40
0.75
 40
0.75
 40
0.75
 40
0.8125
 40
0.8125
 40
0.8125
 40
0.875
 40
0.875
 40
0.875
 40
0.9375
 40
0.9375
 40
0.9375
 40
1.0
 40
1.0
 40
1.0
 40
1.0
 10
-7.8727
 20
43.6108
 30
0.0
 10
-7.8727
 20
43.7096
 30
0.0
 10
-7.8727
 20
43.7748
 30
0.0
 10
-7.8727
 20
43.8401
 30
0.0
 10
-7.8727
 20
45.2743
 30
0.0
 10
-7.8696
 20
46.7085
 30
0.0
 10
-7.8766
 20
48.1427
 30
0.0
 10
-7.8777
 20
48.3363
 30
0.0
 10
-7.8275
 20
48.4101
 30
0.0
 10
-7.6242
 20
48.4022
 30
0.0
 10
-7.1272
 20
48.3832
 30
0.0
 10
-7.1772
 20
48.4591
 30
0.0
 10
-7.1769
 20
47.9568
 30
0.0
 10
-7.1757
 20
45.9441
 30
0.0
 10
-7.1796
 20
43.9312
 30
0.0
 10
-7.1721
 20
41.9185
 30
0.0
 10
-7.1713
 20
41.6958
 30
0.0
 10
-7.2208
 20
41.6082
 30
0.0
 10
-7.4621
 20
41.6218
 30
0.0
 10
-7.8654
 20
41.6444
 30
0.0
 10
-7.8662
 20
41.6291
 30
0.0
 10
-7.9586
 20
42.0165
 30
0.0
 10
-8.3159
 20
43.5148
 30
0.0
 10
-9.6063
 20
44.5724
 30
0.0
 10
-11.1435
 20
44.6261
 30
0.0
 10
-12.6326
 20
44.6785
 30
0.0
 10
-14.0605
 20
43.6044
 30
0.0
 10
-14.4311
 20
42.1566
 30
0.0
 10
-14.4495
 20
42.084
 30
0.0
 10
-14.4918
 20
42.0176
 30
0.0
 10
-14.5231
 20
41.9482
 30
0.0
 10
-14.588
 20
41.9953
 30
0.0
 10
-14.6637
 20
42.0325
 30
0.0
 10
-14.7162
 20
42.0906
 30
0.0
 10
-15.1117
 20
42.5291
 30
0.0
 10
-15.1103
 20
42.5304
 30
0.0
 10
-14.8353
 20
43.0721
 30
0.0
 10
-13.9399
 20
44.8349
 30
0.0
 10
-12.0111
 20
45.6996
 30
0.0
 10
-10.1199
 20
45.1706
 30
0.0
 10
-9.2966
 20
44.9405
 30
0.0
 10
-8.6149
 20
44.4799
 30
0.0
 10
-8.0747
 20
43.8143
 30
0.0
 10
-8.033
 20
43.7628
 30
0.0
 10
-7.9922
 20
43.7105
 30
0.0
 10
-7.9492
 20
43.6602
 30
0.0
 10
-7.9383
 20
43.6477
 30
0.0
 10
-7.9204
 20
43.6411
 30
0.0
 10
-7.8727
 20
43.6108
 30
0.0
  0
SPLINE
  5
62
330
1F
100
AcDbEntity
  8
Layer 1
 62
   250
370
     9
100
AcDbSpline
210
0.0
220
0.0
230
1.0
 70
    11
 71
     3
 72
    68
 73
    64
 74
     0
 42
0.0000000001
 43
0.0000000001
 40
0.0
 40
0.0
 40
0.0
 40
0.0
 40
0.0476190476190476
 40
0.0476190476190476
 40
0.0476190476190476
 40
0.0952380952380952
 40
0.0952380952380952
 40
0.0952380952380952
 40
0.1428571428571428
 40
0.1428571428571428
 40
0.1428571428571428
 40
0.1904761904761905
 40
0.1904761904761905
 40
0.1904761904761905
 40
0.2380952380952381
 40
0.2380952380952381
 40
0.2380952380952381
 40
0.2857142857142857
 40
0.2857142857142857
 40
0.2857142857142857
 40
0.3333333333333333
 40
0.3333333333333333
 40
0.3333333333333333
 40
0.3809523809523809
 40
0.3809523809523809
 40
0.3809523809523809
 40
0.4285714285714285
 40
0.4285714285714285
 40
0.4285714285714285
 40
0.4761904761904762
 40
0.4761904761904762
 40
0.4761904761904762
 40
0.5238095238095237
 40
0.5238095238095237
 40
0.5238095238095237
 40
0.5714285714285714
 40
0.5714285714285714
 40
0.5714285714285714
 40
0.6190476190476191
 40
0.6190476190476191
 40
0.6190476190476191
 40
0.6666666666666666
 40
0.6666666666666666
 40
0.6666666666666666
 40
0.7142857142857142
 40
0.7142857142857142
 40
0.7142857142857142
 40
0.7619047619047619
 40
0.7619047619047619
 40
0.7619047619047619
 40
0.8095238095238095
 40
0.8095238095238095
 40
0.8095238095238095
 40
0.8571428571428571
 40
0.8571428571428571
 40
0.8571428571428571
 40
0.9047619047619047
 40
0.9047619047619047
 40
0.9047619047619047
 40
0.9523809523809523
 40
0.9523809523809523
 40
0.9523809523809523
 40
1.0
 40
1.0
 40
1.0
 40
1.0
 10
0.2474
 20
43.325
 30
0.0
 10
0.2478
 20
42.5293
 30
0.0
 10
0.2437
 20
41.7335
 30
0.0
 10
0.2508
 20
40.9378
 30
0.0
 10
0.2525
 20
40.756
 30
0.0
 10
0.207
 20
40.6821
 30
0.0
 10
0.0082
 20
40.6846
 30
0.0
 10
-0.6333
 20
40.6928
 30
0.0
 10
-0.6332
 20
40.6852
 30
0.0
 10
-0.6328
 20
41.3305
 30
0.0
 10
-0.6322
 20
41.9213
 30
0.0
 10
-0.6363
 20
42.5122
 30
0.0
 10
-0.6302
 20
43.1028
 30
0.0
 10
-0.6286
 20
43.2514
 30
0.0
 10
-0.6769
 20
43.3032
 30
0.0
 10
-0.8272
 20
43.3024
 30
0.0
 10
-1.6591
 20
43.297
 30
0.0
 10
-2.4911
 20
43.2967
 30
0.0
 10
-3.3231
 20
43.3025
 30
0.0
 10
-3.4827
 20
43.3035
 30
0.0
 10
-3.5319
 20
43.245
 30
0.0
 10
-3.5306
 20
43.0908
 30
0.0
 10
-3.5253
 20
42.3736
 30
0.0
 10
-3.5321
 20
41.6562
 30
0.0
 10
-3.5253
 20
40.9389
 30
0.0
 10
-3.5236
 20
40.7581
 30
0.0
 10
-3.5701
 20
40.6824
 30
0.0
 10
-3.769
 20
40.6844
 30
0.0
 10
-4.4317
 20
40.6906
 30
0.0
 10
-4.4317
 20
40.6833
 30
0.0
 10
-4.4317
 20
41.3442
 30
0.0
 10
-4.4319
 20
42.791
 30
0.0
 10
-4.4285
 20
44.2376
 30
0.0
 10
-4.4367
 20
45.6844
 30
0.0
 10
-4.4379
 20
45.9003
 30
0.0
 10
-4.3815
 20
45.9821
 30
0.0
 10
-4.1537
 20
45.9778
 30
0.0
 10
-3.5284
 20
45.9661
 30
0.0
 10
-3.5282
 20
45.9751
 30
0.0
 10
-3.5282
 20
45.3418
 30
0.0
 10
-3.5284
 20
44.8172
 30
0.0
 10
-3.5245
 20
44.2928
 30
0.0
 10
-3.5315
 20
43.7684
 30
0.0
 10
-3.5337
 20
43.6054
 30
0.0
 10
-3.4783
 20
43.545
 30
0.0
 10
-3.3121
 20
43.5463
 30
0.0
 10
-2.4862
 20
43.5519
 30
0.0
 10
-1.6602
 20
43.5519
 30
0.0
 10
-0.8344
 20
43.5463
 30
0.0
 10
-0.6726
 20
43.545
 30
0.0
 10
-0.6288
 20
43.6076
 30
0.0
 10
-0.6302
 20
43.7601
 30
0.0
 10
-0.6362
 20
44.4231
 30
0.0
 10
-0.6286
 20
45.0864
 30
0.0
 10
-0.6355
 20
45.7495
 30
0.0
 10
-0.6373
 20
45.9142
 30
0.0
 10
-0.5797
 20
45.9709
 30
0.0
 10
-0.4168
 20
45.9741
 30
0.0
 10
0.2472
 20
45.9876
 30
0.0
 10
0.2472
 20
45.9913
 30
0.0
 10
0.2472
 20
45.3324
 30
0.0
 10
0.2472
 20
44.6633
 30
0.0
 10
0.2472
 20
43.9941
 30
0.0
 10
0.2474
 20
43.325
 30
0.0
  0
SPLINE
  5
63
330
1F
100
AcDbEntity
  8
Layer 1
 62
   250
370
     9
100
AcDbSpline
210
0.0
220
0.0
230
1.0
 70
    11
 71
     3
 72
    47
 73
    43
 74
     0
 42
0.0000000001
 43
0.0000000001
 40
0.0
 40
0.0
 40
0.0
 40
0.0
 40
0.0714285714285714
 40
0.0714285714285714
 40
0.0714285714285714
 40
0.1428571428571428
 40
0.1428571428571428
 40
0.1428571428571428
 40
0.2142857142857143
 40
0.2142857142857143
 40
0.2142857142857143
 40
0.2857142857142857
 40
0.2857142857142857
 40
0.2857142857142857
 40
0.3571428571428571
 40
0.3571428571428571
 40
0.3571428571428571
 40
0.4285714285714285
 40
0.4285714285714285
 40
0.4285714285714285
 40
0.5
 40
0.5
 40
0.5
 40
0.5714285714285714
 40
0.5714285714285714
 40
0.5714285714285714
 40
0.6428571428571428
 40
0.6428571428571428
 40
0.6428571428571428
 40
0.7142857142857142
 40
0.7142857142857142
 40
0.7142857142857142
 40
0.7857142857142857
 40
0.7857142857142857
 40
0.7857142857142857
 40
0.8571428571428571
 40
0.8571428571428571
 40
0.8571428571428571
 40
0.9285714285714285
 40
0.9285714285714285
 40
0.9285714285714285
 40
1.0
 40
1.0
 40
1.0
 40
1.0
 10
-7.8723
 20
38.9132
 30
0.0
 10
-8.1954
 20
38.6083
 30
0.0
 10
-8.4863
 20
38.2952
 30
0.0
 10
-8.8161
 20
38.0303
 30
0.0
 10
-10.0408
 20
37.0461
 30
0.0
 10
-12.0456
 20
36.9649
 30
0.0
 10
-13.3336
 20
37.8354
 30
0.0
 10
-13.3631
 20
37.8553
 30
0.0
 10
-13.3486
 20
37.9419
 30
0.0
 10
-13.3515
 20
37.9977
 30
0.0
 10
-13.3519
 20
38.0048
 30
0.0
 10
-13.3322
 20
38.0114
 30
0.0
 10
-13.3252
 20
38.0206
 30
0.0
 10
-13.0819
 20
38.3453
 30
0.0
 10
-12.8387
 20
38.345
 30
0.0
 10
-12.4471
 20
38.1877
 30
0.0
 10
-10.401
 20
37.3647
 30
0.0
 10
-8.222
 20
38.664
 30
0.0
 10
-7.8947
 20
40.8535
 30
0.0
 10
-7.8851
 20
40.9177
 30
0.0
 10
-7.7815
 20
41.0165
 30
0.0
 10
-7.7211
 20
41.0172
 30
0.0
 10
-7.0832
 20
41.0241
 30
0.0
 10
-7.179
 20
41.099
 30
0.0
 10
-7.1778
 20
40.5146
 30
0.0
 10
-7.1738
 20
38.4951
 30
0.0
 10
-7.1798
 20
36.4753
 30
0.0
 10
-7.1717
 20
34.4558
 30
0.0
 10
-7.1707
 20
34.2222
 30
0.0
 10
-7.232
 20
34.1146
 30
0.0
 10
-7.4747
 20
34.151
 30
0.0
 10
-7.5276
 20
34.1588
 30
0.0
 10
-7.5834
 20
34.1556
 30
0.0
 10
-7.6372
 20
34.1507
 30
0.0
 10
-7.8146
 20
34.1343
 30
0.0
 10
-7.8777
 20
34.2052
 30
0.0
 10
-7.8769
 20
34.3895
 30
0.0
 10
-7.8699
 20
35.8002
 30
0.0
 10
-7.8724
 20
37.2109
 30
0.0
 10
-7.8723
 20
38.6216
 30
0.0
 10
-7.8723
 20
38.7172
 30
0.0
 10
-7.8723
 20
38.8127
 30
0.0
 10
-7.8723
 20
38.9132
 30
0.0
  0
SPLINE
  5
64
330
1F
100
AcDbEntity
  8
Layer 1
 62
   250
370
     9
100
AcDbSpline
210
0.0
220
0.0
230
1.0
 70
    11
 71
     3
 72
    44
 73
    40
 74
     0
 42
0.0000000001
 43
0.0000000001
 40
0.0
 40
0.0
 40
0.0
 40
0.0
 40
0.0769230769230769
 40
0.0769230769230769
 40
0.0769230769230769
 40
0.1538461538461539
 40
0.1538461538461539
 40
0.1538461538461539
 40
0.2307692307692308
 40
0.2307692307692308
 40
0.2307692307692308
 40
0.3076923076923077
 40
0.3076923076923077
 40
0.3076923076923077
 40
0.3846153846153846
 40
0.3846153846153846
 40
0.3846153846153846
 40
0.4615384615384616
 40
0.4615384615384616
 40
0.4615384615384616
 40
0.5384615384615385
 40
0.5384615384615385
 40
0.5384615384615385
 40
0.6153846153846154
 40
0.6153846153846154
 40
0.6153846153846154
 40
0.6923076923076923
 40
0.6923076923076923
 40
0.6923076923076923
 40
0.7692307692307693
 40
0.7692307692307693
 40
0.7692307692307693
 40
0.8461538461538463
 40
0.8461538461538463
 40
0.8461538461538463
 40
0.9230769230769231
 40
0.9230769230769231
 40
0.9230769230769231
 40
1.0
 40
1.0
 40
1.0
 40
1.0
 10
-13.8655
 20
44.6516
 30
0.0
 10
-14.0329
 20
44.4918
 30
0.0
 10
-14.1781
 20
44.3406
 30
0.0
 10
-14.3394
 20
44.2091
 30
0.0
 10
-14.3744
 20
44.1806
 30
0.0
 10
-14.4758
 20
44.2075
 30
0.0
 10
-14.5329
 20
44.2364
 30
0.0
 10
-15.4846
 20
44.7182
 30
0.0
 10
-16.4599
 20
44.7668
 30
0.0
 10
-17.4287
 20
44.3289
 30
0.0
 10
-18.4792
 20
43.8539
 30
0.0
 10
-19.1328
 20
43.0317
 30
0.0
 10
-19.3562
 20
41.8929
 30
0.0
 10
-19.3952
 20
41.6939
 30
0.0
 10
-19.458
 20
41.6178
 30
0.0
 10
-19.6669
 20
41.6235
 30
0.0
 10
-20.1291
 20
41.6364
 30
0.0
 10
-20.1293
 20
41.6261
 30
0.0
 10
-20.1293
 20
42.0922
 30
0.0
 10
-20.1293
 20
44.0998
 30
0.0
 10
-20.1262
 20
46.1074
 30
0.0
 10
-20.1334
 20
48.1149
 30
0.0
 10
-20.1342
 20
48.333
 30
0.0
 10
-20.0774
 20
48.4128
 30
0.0
 10
-19.8508
 20
48.404
 30
0.0
 10
-19.3701
 20
48.385
 30
0.0
 10
-19.4314
 20
48.4338
 30
0.0
 10
-19.4307
 20
47.9856
 30
0.0
 10
-19.4287
 20
46.611
 30
0.0
 10
-19.43
 20
45.2364
 30
0.0
 10
-19.4303
 20
43.862
 30
0.0
 10
-19.4303
 20
43.7863
 30
0.0
 10
-19.4303
 20
43.711
 30
0.0
 10
-19.4303
 20
43.563
 30
0.0
 10
-18.5063
 20
44.7605
 30
0.0
 10
-17.3557
 20
45.3655
 30
0.0
 10
-15.9006
 20
45.3158
 30
0.0
 10
-15.1729
 20
45.2909
 30
0.0
 10
-14.4968
 20
45.0773
 30
0.0
 10
-13.8655
 20
44.6516
 30
0.0
  0
SPLINE
  5
65
330
1F
100
AcDbEntity
  8
Layer 1
 62
   250
370
     9
100
AcDbSpline
210
0.0
220
0.0
230
1.0
 70
    11
 71
     3
 72
    50
 73
    46
 74
     0
 42
0.0000000001
 43
0.0000000001
 40
0.0
 40
0.0
 40
0.0
 40
0.0
 40
0.0666666666666667
 40
0.0666666666666667
 40
0.0666666666666667
 40
0.1333333333333333
 40
0.1333333333333333
 40
0.1333333333333333
 40
0.2
 40
0.2
 40
0.2
 40
0.2666666666666667
 40
0.2666666666666667
 40
0.2666666666666667
 40
0.3333333333333333
 40
0.3333333333333333
 40
0.3333333333333333
 40
0.4
 40
0.4
 40
0.4
 40
0.4666666666666667
 40
0.4666666666666667
 40
0.4666666666666667
 40
0.5333333333333333
 40
0.5333333333333333
 40
0.5333333333333333
 40
0.6
 40
0.6
 40
0.6
 40
0.6666666666666666
 40
0.6666666666666666
 40
0.6666666666666666
 40
0.7333333333333333
 40
0.7333333333333333
 40
0.7333333333333333
 40
0.8
 40
0.8
 40
0.8
 40
0.8666666666666667
 40
0.8666666666666667
 40
0.8666666666666667
 40
0.9333333333333333
 40
0.9333333333333333
 40
0.9333333333333333
 40
1.0
 40
1.0
 40
1.0
 40
1.0
 10
2.0931
 20
41.885
 30
0.0
 10
2.1329
 20
41.7713
 30
0.0
 10
2.1817
 20
41.6666
 30
0.0
 10
2.239
 20
41.5711
 30
0.0
 10
2.48
 20
41.1357
 30
0.0
 10
2.8904
 20
40.8822
 30
0.0
 10
3.4414
 20
40.8539
 30
0.0
 10
4.0925
 20
40.8201
 30
0.0
 10
4.6137
 20
41.072
 30
0.0
 10
4.8821
 20
41.6724
 30
0.0
 10
5.0482
 20
42.0438
 30
0.0
 10
5.1536
 20
42.458
 30
0.0
 10
5.2014
 20
42.8633
 30
0.0
 10
5.2855
 20
43.5744
 30
0.0
 10
5.239
 20
44.2864
 30
0.0
 10
4.912
 20
44.9452
 30
0.0
 10
4.8907
 20
44.9882
 30
0.0
 10
4.8684
 20
45.0295
 30
0.0
 10
4.845
 20
45.0693
 30
0.0
 10
4.845
 20
45.0693
 30
0.0
 10
4.8445
 20
45.0702
 30
0.0
 10
4.8445
 20
45.0702
 30
0.0
 10
4.8445
 20
45.0702
 30
0.0
 10
4.8433
 20
45.0722
 30
0.0
 10
4.8433
 20
45.0722
 30
0.0
 10
4.5612
 20
45.5832
 30
0.0
 10
4.1176
 20
45.8484
 30
0.0
 10
3.5099
 20
45.8442
 30
0.0
 10
2.8905
 20
45.8398
 30
0.0
 10
2.4389
 20
45.5635
 30
0.0
 10
2.1563
 20
45.015
 30
0.0
 10
1.8896
 20
44.4977
 30
0.0
 10
1.8266
 20
43.9386
 30
0.0
 10
1.8356
 20
43.3666
 30
0.0
 10
1.8356
 20
43.3666
 30
0.0
 10
1.8427
 20
43.326
 30
0.0
 10
1.8427
 20
43.326
 30
0.0
 10
1.8427
 20
43.326
 30
0.0
 10
1.8422
 20
43.3238
 30
0.0
 10
1.8422
 20
43.3238
 30
0.0
 10
1.8709
 20
42.6743
 30
0.0
 10
1.9429
 20
42.3609
 30
0.0
 10
2.0817
 20
41.9506
 30
0.0
 10
2.0817
 20
41.9506
 30
0.0
 10
2.0931
 20
41.885
 30
0.0
 10
2.0931
 20
41.885
 30
0.0
  0
SPLINE
  5
66
330
1F
100
AcDbEntity
  8
Layer 1
 62
   250
370
     9
100
AcDbSpline
210
0.0
220
0.0
230
1.0
 70
    11
 71
     3
 72
    17
 73
    13
 74
     0
 42
0.0000000001
 43
0.0000000001
 40
0.0
 40
0.0
 40
0.0
 40
0.0
 40
0.25
 40
0.25
 40
0.25
 40
0.5
 40
0.5
 40
0.5
 40
0.75
 40
0.75
 40
0.75
 40
1.0
 40
1.0
 40
1.0
 40
1.0
 10
6.1568
 20
43.3597
 30
0.0
 10
6.1754
 20
41.9202
 30
0.0
 10
5.0613
 20
40.6936
 30
0.0
 10
3.5622
 20
40.6513
 30
0.0
 10
2.0793
 20
40.6095
 30
0.0
 10
0.8613
 20
41.8678
 30
0.0
 10
0.8605
 20
43.3749
 30
0.0
 10
0.8598
 20
44.8711
 30
0.0
 10
2.0559
 20
46.0887
 30
0.0
 10
3.531
 20
46.0933
 30
0.0
 10
4.9765
 20
46.098
 30
0.0
 10
6.1516
 20
44.8744
 30
0.0
 10
6.1568
 20
43.3597
 30
0.0
  0
SPLINE
  5
67
330
1F
100
AcDbEntity
  8
Layer 1
 62
   250
370
     9
100
AcDbSpline
210
0.0
220
0.0
230
1.0
 70
    11
 71
     3
 72
    71
 73
    67
 74
     0
 42
0.0000000001
 43
0.0000000001
 40
0.0
 40
0.0
 40
0.0
 40
0.0
 40
0.0454545454545455
 40
0.0454545454545455
 40
0.0454545454545455
 40
0.0909090909090909
 40
0.0909090909090909
 40
0.0909090909090909
 40
0.1363636363636364
 40
0.1363636363636364
 40
0.1363636363636364
 40
0.1818181818181818
 40
0.1818181818181818
 40
0.1818181818181818
 40
0.2272727272727273
 40
0.2272727272727273
 40
0.2272727272727273
 40
0.2727272727272727
 40
0.2727272727272727
 40
0.2727272727272727
 40
0.3181818181818182
 40
0.3181818181818182
 40
0.3181818181818182
 40
0.3636363636363636
 40
0.3636363636363636
 40
0.3636363636363636
 40
0.4090909090909091
 40
0.4090909090909091
 40
0.4090909090909091
 40
0.4545454545454546
 40
0.4545454545454546
 40
0.4545454545454546
 40
0.5
 40
0.5
 40
0.5
 40
0.5454545454545454
 40
0.5454545454545454
 40
0.5454545454545454
 40
0.5909090909090909
 40
0.5909090909090909
 40
0.5909090909090909
 40
0.6363636363636364
 40
0.6363636363636364
 40
0.6363636363636364
 40
0.6818181818181819
 40
0.6818181818181819
 40
0.6818181818181819
 40
0.7272727272727273
 40
0.7272727272727273
 40
0.7272727272727273
 40
0.7727272727272727
 40
0.7727272727272727
 40
0.7727272727272727
 40
0.8181818181818182
 40
0.8181818181818182
 40
0.8181818181818182
 40
0.8636363636363636
 40
0.8636363636363636
 40
0.8636363636363636
 40
0.9090909090909092
 40
0.9090909090909092
 40
0.9090909090909092
 40
0.9545454545454546
 40
0.9545454545454546
 40
0.9545454545454546
 40
1.0
 40
1.0
 40
1.0
 40
1.0
 10
10.9492
 20
41.9163
 30
0.0
 10
10.9492
 20
42.0603
 30
0.0
 10
10.9492
 20
42.1375
 30
0.0
 10
10.9492
 20
42.215
 30
0.0
 10
10.9492
 20
43.3718
 30
0.0
 10
10.9492
 20
44.5287
 30
0.0
 10
10.9499
 20
45.6854
 30
0.0
 10
10.9499
 20
45.7514
 30
0.0
 10
10.9423
 20
45.8225
 30
0.0
 10
10.9644
 20
45.8816
 30
0.0
 10
10.9789
 20
45.9201
 30
0.0
 10
11.0409
 20
45.9636
 30
0.0
 10
11.0805
 20
45.9627
 30
0.0
 10
11.1187
 20
45.9616
 30
0.0
 10
11.1711
 20
45.9131
 30
0.0
 10
11.1883
 20
45.8728
 30
0.0
 10
11.2083
 20
45.8264
 30
0.0
 10
11.1987
 20
45.7664
 30
0.0
 10
11.1987
 20
45.7123
 30
0.0
 10
11.1991
 20
44.0914
 30
0.0
 10
11.2005
 20
42.4707
 30
0.0
 10
11.1966
 20
40.8499
 30
0.0
 10
11.1966
 20
40.7695
 30
0.0
 10
11.1515
 20
40.6893
 30
0.0
 10
11.1274
 20
40.609
 30
0.0
 10
11.0516
 20
40.6473
 30
0.0
 10
10.9575
 20
40.6685
 30
0.0
 10
10.9024
 20
40.7265
 30
0.0
 10
9.8141
 20
41.8766
 30
0.0
 10
8.7317
 20
43.0323
 30
0.0
 10
7.6437
 20
44.1828
 30
0.0
 10
7.4752
 20
44.361
 30
0.0
 10
7.2868
 20
44.5207
 30
0.0
 10
7.0907
 20
44.7051
 30
0.0
 10
7.087
 20
44.6358
 30
0.0
 10
7.0808
 20
44.569
 30
0.0
 10
7.0808
 20
44.5022
 30
0.0
 10
7.0797
 20
43.3334
 30
0.0
 10
7.0801
 20
42.1644
 30
0.0
 10
7.0794
 20
40.9955
 30
0.0
 10
7.0794
 20
40.9234
 30
0.0
 10
7.087
 20
40.8474
 30
0.0
 10
7.0663
 20
40.7807
 30
0.0
 10
7.0549
 20
40.7432
 30
0.0
 10
6.9933
 20
40.6987
 30
0.0
 10
6.954
 20
40.6982
 30
0.0
 10
6.9136
 20
40.6975
 30
0.0
 10
6.8558
 20
40.7385
 30
0.0
 10
6.8365
 20
40.7767
 30
0.0
 10
6.8144
 20
40.8212
 30
0.0
 10
6.8234
 20
40.8825
 30
0.0
 10
6.8231
 20
40.9365
 30
0.0
 10
6.8227
 20
42.5513
 30
0.0
 10
6.8213
 20
44.166
 30
0.0
 10
6.8259
 20
45.7808
 30
0.0
 10
6.8261
 20
45.8656
 30
0.0
 10
6.8762
 20
45.9504
 30
0.0
 10
6.903
 20
46.0352
 30
0.0
 10
6.983
 20
45.9919
 30
0.0
 10
7.0804
 20
45.9654
 30
0.0
 10
7.14
 20
45.903
 30
0.0
 10
8.3458
 20
44.6399
 30
0.0
 10
9.5468
 20
43.3726
 30
0.0
 10
10.7491
 20
42.1066
 30
0.0
 10
10.7974
 20
42.0559
 30
0.0
 10
10.8507
 20
42.0099
 30
0.0
 10
10.9492
 20
41.9163
 30
0.0
  0
SPLINE
  5
68
330
1F
100
AcDbEntity
  8
Layer 1
 62
   250
370
     9
100
AcDbSpline
210
0.0
220
0.0
230
1.0
 70
    11
 71
     3
 72
    74
 73
    70
 74
     0
 42
0.0000000001
 43
0.0000000001
 40
0.0
 40
0.0
 40
0.0
 40
0.0
 40
0.0434782608695652
 40
0.0434782608695652
 40
0.0434782608695652
 40
0.0869565217391304
 40
0.0869565217391304
 40
0.0869565217391304
 40
0.1304347826086956
 40
0.1304347826086956
 40
0.1304347826086956
 40
0.1739130434782609
 40
0.1739130434782609
 40
0.1739130434782609
 40
0.2173913043478261
 40
0.2173913043478261
 40
0.2173913043478261
 40
0.2608695652173913
 40
0.2608695652173913
 40
0.2608695652173913
 40
0.3043478260869565
 40
0.3043478260869565
 40
0.3043478260869565
 40
0.3478260869565217
 40
0.3478260869565217
 40
0.3478260869565217
 40
0.3913043478260869
 40
0.3913043478260869
 40
0.3913043478260869
 40
0.4347826086956522
 40
0.4347826086956522
 40
0.4347826086956522
 40
0.4782608695652174
 40
0.4782608695652174
 40
0.4782608695652174
 40
0.5217391304347826
 40
0.5217391304347826
 40
0.5217391304347826
 40
0.5652173913043478
 40
0.5652173913043478
 40
0.5652173913043478
 40
0.6086956521739131
 40
0.6086956521739131
 40
0.6086956521739131
 40
0.6521739130434783
 40
0.6521739130434783
 40
0.6521739130434783
 40
0.6956521739130435
 40
0.6956521739130435
 40
0.6956521739130435
 40
0.7391304347826086
 40
0.7391304347826086
 40
0.7391304347826086
 40
0.7826086956521738
 40
0.7826086956521738
 40
0.7826086956521738
 40
0.8260869565217391
 40
0.8260869565217391
 40
0.8260869565217391
 40
0.8695652173913043
 40
0.8695652173913043
 40
0.8695652173913043
 40
0.9130434782608695
 40
0.9130434782608695
 40
0.9130434782608695
 40
0.9565217391304348
 40
0.9565217391304348
 40
0.9565217391304348
 40
1.0
 40
1.0
 40
1.0
 40
1.0
 10
12.2388
 20
43.3237
 30
0.0
 10
12.2388
 20
44.125
 30
0.0
 10
12.2436
 20
44.9265
 30
0.0
 10
12.2354
 20
45.7277
 30
0.0
 10
12.2333
 20
45.9209
 30
0.0
 10
12.3032
 20
45.9766
 30
0.0
 10
12.4882
 20
45.9753
 30
0.0
 10
13.5544
 20
45.9684
 30
0.0
 10
14.6207
 20
45.9726
 30
0.0
 10
15.6869
 20
45.9642
 30
0.0
 10
15.7441
 20
45.9638
 30
0.0
 10
15.8005
 20
45.883
 30
0.0
 10
15.8576
 20
45.8395
 30
0.0
 10
15.7952
 20
45.8014
 30
0.0
 10
15.7335
 20
45.7306
 30
0.0
 10
15.6707
 20
45.7299
 30
0.0
 10
14.9115
 20
45.7225
 30
0.0
 10
14.1522
 20
45.7203
 30
0.0
 10
13.3932
 20
45.7291
 30
0.0
 10
13.1996
 20
45.7313
 30
0.0
 10
13.1235
 20
45.6713
 30
0.0
 10
13.1265
 20
45.4728
 30
0.0
 10
13.1348
 20
44.9005
 30
0.0
 10
13.1331
 20
44.3279
 30
0.0
 10
13.1269
 20
43.7557
 30
0.0
 10
13.1251
 20
43.596
 30
0.0
 10
13.189
 20
43.5459
 30
0.0
 10
13.3415
 20
43.5474
 30
0.0
 10
13.8718
 20
43.5532
 30
0.0
 10
14.4023
 20
43.555
 30
0.0
 10
14.9322
 20
43.5435
 30
0.0
 10
15.0107
 20
43.5417
 30
0.0
 10
15.0872
 20
43.4597
 30
0.0
 10
15.1644
 20
43.4149
 30
0.0
 10
15.0902
 20
43.3765
 30
0.0
 10
15.0169
 20
43.3062
 30
0.0
 10
14.9421
 20
43.3048
 30
0.0
 10
14.406
 20
43.2955
 30
0.0
 10
13.8697
 20
43.2953
 30
0.0
 10
13.3332
 20
43.3025
 30
0.0
 10
13.1745
 20
43.3047
 30
0.0
 10
13.1251
 20
43.2486
 30
0.0
 10
13.1269
 20
43.0926
 30
0.0
 10
13.1334
 20
42.436
 30
0.0
 10
13.1334
 20
41.7792
 30
0.0
 10
13.1272
 20
41.1226
 30
0.0
 10
13.1258
 20
40.9619
 30
0.0
 10
13.1869
 20
40.9163
 30
0.0
 10
13.3401
 20
40.9174
 30
0.0
 10
14.1415
 20
40.9231
 30
0.0
 10
14.9432
 20
40.9232
 30
0.0
 10
15.7441
 20
40.9146
 30
0.0
 10
15.8157
 20
40.9141
 30
0.0
 10
15.8869
 20
40.8386
 30
0.0
 10
15.9582
 20
40.7978
 30
0.0
 10
15.8883
 20
40.7615
 30
0.0
 10
15.8188
 20
40.694
 30
0.0
 10
15.7493
 20
40.6936
 30
0.0
 10
14.6527
 20
40.687
 30
0.0
 10
13.5562
 20
40.6924
 30
0.0
 10
12.4596
 20
40.6856
 30
0.0
 10
12.279
 20
40.6844
 30
0.0
 10
12.2356
 20
40.7533
 30
0.0
 10
12.237
 20
40.9197
 30
0.0
 10
12.2432
 20
41.7211
 30
0.0
 10
12.2398
 20
42.5224
 30
0.0
 10
12.2398
 20
43.3237
 30
0.0
 10
12.2395
 20
43.3237
 30
0.0
 10
12.2391
 20
43.3237
 30
0.0
 10
12.2388
 20
43.3237
 30
0.0
  0
SPLINE
  5
69
330
1F
100
AcDbEntity
  8
Layer 1
 62
   250
370
     9
100
AcDbSpline
210
0.0
220
0.0
230
1.0
 70
    11
 71
     3
 72
    38
 73
    34
 74
     0
 42
0.0000000001
 43
0.0000000001
 40
0.0
 40
0.0
 40
0.0
 40
0.0
 40
0.0909090909090909
 40
0.0909090909090909
 40
0.0909090909090909
 40
0.1818181818181818
 40
0.1818181818181818
 40
0.1818181818181818
 40
0.2727272727272727
 40
0.2727272727272727
 40
0.2727272727272727
 40
0.3636363636363636
 40
0.3636363636363636
 40
0.3636363636363636
 40
0.4545454545454546
 40
0.4545454545454546
 40
0.4545454545454546
 40
0.5454545454545454
 40
0.5454545454545454
 40
0.5454545454545454
 40
0.6363636363636364
 40
0.6363636363636364
 40
0.6363636363636364
 40
0.7272727272727273
 40
0.7272727272727273
 40
0.7272727272727273
 40
0.8181818181818182
 40
0.8181818181818182
 40
0.8181818181818182
 40
0.9090909090909092
 40
0.9090909090909092
 40
0.9090909090909092
 40
1.0
 40
1.0
 40
1.0
 40
1.0
 10
-9.5636
 20
41.2856
 30
0.0
 10
-9.5636
 20
41.4723
 30
0.0
 10
-9.5797
 20
41.6606
 30
0.0
 10
-9.5599
 20
41.8451
 30
0.0
 10
-9.5261
 20
42.1595
 30
0.0
 10
-9.6133
 20
42.3799
 30
0.0
 10
-9.9366
 20
42.4855
 30
0.0
 10
-10.0715
 20
42.5296
 30
0.0
 10
-10.1923
 20
42.6182
 30
0.0
 10
-10.3164
 20
42.692
 30
0.0
 10
-10.4558
 20
42.7751
 30
0.0
 10
-10.5669
 20
42.7586
 30
0.0
 10
-10.6809
 20
42.6362
 30
0.0
 10
-11.0663
 20
42.2225
 30
0.0
 10
-11.4608
 20
41.8175
 30
0.0
 10
-11.8443
 20
41.4021
 30
0.0
 10
-11.8722
 20
41.3717
 30
0.0
 10
-11.8631
 20
41.2625
 30
0.0
 10
-11.8307
 20
41.2279
 30
0.0
 10
-11.4365
 20
40.8063
 30
0.0
 10
-11.0392
 20
40.3873
 30
0.0
 10
-10.6288
 20
39.982
 30
0.0
 10
-10.5745
 20
39.9282
 30
0.0
 10
-10.4263
 20
39.9172
 30
0.0
 10
-10.3483
 20
39.9497
 30
0.0
 10
-10.1272
 20
40.0425
 30
0.0
 10
-9.9129
 20
40.157
 30
0.0
 10
-9.7107
 20
40.2864
 30
0.0
 10
-9.6396
 20
40.3319
 30
0.0
 10
-9.5768
 20
40.4423
 30
0.0
 10
-9.5706
 20
40.5276
 30
0.0
 10
-9.5521
 20
40.779
 30
0.0
 10
-9.5638
 20
41.0327
 30
0.0
 10
-9.5636
 20
41.2856
 30
0.0
  0
SPLINE
  5
6A
330
1F
100
AcDbEntity
  8
Layer 1
 62
   250
370
     9
100
AcDbSpline
210
0.0
220
0.0
230
1.0
 70
    11
 71
     3
 72
    41
 73
    37
 74
     0
 42
0.0000000001
 43
0.0000000001
 40
0.0
 40
0.0
 40
0.0
 40
0.0
 40
0.0833333333333333
 40
0.0833333333333333
 40
0.0833333333333333
 40
0.1666666666666667
 40
0.1666666666666667
 40
0.1666666666666667
 40
0.25
 40
0.25
 40
0.25
 40
0.3333333333333333
 40
0.3333333333333333
 40
0.3333333333333333
 40
0.4166666666666666
 40
0.4166666666666666
 40
0.4166666666666666
 40
0.5
 40
0.5
 40
0.5
 40
0.5833333333333333
 40
0.5833333333333333
 40
0.5833333333333333
 40
0.6666666666666666
 40
0.6666666666666666
 40
0.6666666666666666
 40
0.75
 40
0.75
 40
0.75
 40
0.8333333333333333
 40
0.8333333333333333
 40
0.8333333333333333
 40
0.9166666666666666
 40
0.9166666666666666
 40
0.9166666666666666
 40
1.0
 40
1.0
 40
1.0
 40
1.0
 10
-8.9506
 20
41.3173
 30
0.0
 10
-8.9506
 20
40.9379
 30
0.0
 10
-8.94
 20
40.5581
 30
0.0
 10
-8.9582
 20
40.1797
 30
0.0
 10
-8.9627
 20
40.0874
 30
0.0
 10
-9.0399
 20
39.9617
 30
0.0
 10
-9.1203
 20
39.9161
 30
0.0
 10
-9.5539
 20
39.6693
 30
0.0
 10
-10.0007
 20
39.4455
 30
0.0
 10
-10.4396
 20
39.2077
 30
0.0
 10
-10.5834
 20
39.1297
 30
0.0
 10
-10.6843
 20
39.144
 30
0.0
 10
-10.8019
 20
39.2684
 30
0.0
 10
-11.4005
 20
39.9029
 30
0.0
 10
-12.0057
 20
40.5308
 30
0.0
 10
-12.6148
 20
41.1553
 30
0.0
 10
-12.7278
 20
41.2713
 30
0.0
 10
-12.7325
 20
41.3504
 30
0.0
 10
-12.6184
 20
41.4689
 30
0.0
 10
-11.9976
 20
42.1145
 30
0.0
 10
-11.386
 20
42.7689
 30
0.0
 10
-10.7618
 20
43.4111
 30
0.0
 10
-10.7095
 20
43.4647
 30
0.0
 10
-10.5662
 20
43.4932
 30
0.0
 10
-10.5009
 20
43.4611
 30
0.0
 10
-10.0427
 20
43.2357
 30
0.0
 10
-9.5878
 20
43.0014
 30
0.0
 10
-9.1464
 20
42.7445
 30
0.0
 10
-9.0504
 20
42.6886
 30
0.0
 10
-8.9662
 20
42.5334
 30
0.0
 10
-8.9586
 20
42.4185
 30
0.0
 10
-8.9348
 20
42.0528
 30
0.0
 10
-8.9498
 20
41.6846
 30
0.0
 10
-8.9498
 20
41.3173
 30
0.0
 10
-8.95
 20
41.3173
 30
0.0
 10
-8.9503
 20
41.3173
 30
0.0
 10
-8.9506
 20
41.3173
 30
0.0
  0
SPLINE
  5
6B
330
1F
100
AcDbEntity
  8
Layer 1
 62
   250
370
     9
100
AcDbSpline
210
0.0
220
0.0
230
1.0
 70
    11
 71
     3
 72
    41
 73
    37
 74
     0
 42
0.0000000001
 43
0.0000000001
 40
0.0
 40
0.0
 40
0.0
 40
0.0
 40
0.0833333333333333
 40
0.0833333333333333
 40
0.0833333333333333
 40
0.1666666666666667
 40
0.1666666666666667
 40
0.1666666666666667
 40
0.25
 40
0.25
 40
0.25
 40
0.3333333333333333
 40
0.3333333333333333
 40
0.3333333333333333
 40
0.4166666666666666
 40
0.4166666666666666
 40
0.4166666666666666
 40
0.5
 40
0.5
 40
0.5
 40
0.5833333333333333
 40
0.5833333333333333
 40
0.5833333333333333
 40
0.6666666666666666
 40
0.6666666666666666
 40
0.6666666666666666
 40
0.75
 40
0.75
 40
0.75
 40
0.8333333333333333
 40
0.8333333333333333
 40
0.8333333333333333
 40
0.9166666666666666
 40
0.9166666666666666
 40
0.9166666666666666
 40
1.0
 40
1.0
 40
1.0
 40
1.0
 10
-17.7389
 20
41.323
 30
0.0
 10
-17.7385
 20
41.323
 30
0.0
 10
-17.7381
 20
41.323
 30
0.0
 10
-17.7375
 20
41.323
 30
0.0
 10
-17.7375
 20
41.0578
 30
0.0
 10
-17.7473
 20
40.7923
 30
0.0
 10
-17.7316
 20
40.5279
 30
0.0
 10
-17.7268
 20
40.4472
 30
0.0
 10
-17.6717
 20
40.3398
 30
0.0
 10
-17.6058
 20
40.2975
 30
0.0
 10
-17.3987
 20
40.1644
 30
0.0
 10
-17.1811
 20
40.0439
 30
0.0
 10
-16.9558
 20
39.9455
 30
0.0
 10
-16.8779
 20
39.9116
 30
0.0
 10
-16.728
 20
39.9194
 30
0.0
 10
-16.6745
 20
39.9725
 30
0.0
 10
-16.261
 20
40.3839
 30
0.0
 10
-15.8605
 20
40.8089
 30
0.0
 10
-15.4643
 20
41.2375
 30
0.0
 10
-15.4308
 20
41.2736
 30
0.0
 10
-15.4296
 20
41.3938
 30
0.0
 10
-15.4625
 20
41.4289
 30
0.0
 10
-15.8533
 20
41.8462
 30
0.0
 10
-16.2484
 20
42.2604
 30
0.0
 10
-16.6573
 20
42.6601
 30
0.0
 10
-16.7146
 20
42.716
 30
0.0
 10
-16.8672
 20
42.7279
 30
0.0
 10
-16.9494
 20
42.6948
 30
0.0
 10
-17.1607
 20
42.6102
 30
0.0
 10
-17.3675
 20
42.5041
 30
0.0
 10
-17.5545
 20
42.3751
 30
0.0
 10
-17.6419
 20
42.315
 30
0.0
 10
-17.7202
 20
42.1863
 30
0.0
 10
-17.7308
 20
42.0814
 30
0.0
 10
-17.7561
 20
41.8309
 30
0.0
 10
-17.7389
 20
41.5759
 30
0.0
 10
-17.7389
 20
41.323
 30
0.0
  0
SPLINE
  5
6C
330
1F
100
AcDbEntity
  8
Layer 1
 62
   250
370
     9
100
AcDbSpline
210
0.0
220
0.0
230
1.0
 70
    11
 71
     3
 72
    38
 73
    34
 74
     0
 42
0.0000000001
 43
0.0000000001
 40
0.0
 40
0.0
 40
0.0
 40
0.0
 40
0.0909090909090909
 40
0.0909090909090909
 40
0.0909090909090909
 40
0.1818181818181818
 40
0.1818181818181818
 40
0.1818181818181818
 40
0.2727272727272727
 40
0.2727272727272727
 40
0.2727272727272727
 40
0.3636363636363636
 40
0.3636363636363636
 40
0.3636363636363636
 40
0.4545454545454546
 40
0.4545454545454546
 40
0.4545454545454546
 40
0.5454545454545454
 40
0.5454545454545454
 40
0.5454545454545454
 40
0.6363636363636364
 40
0.6363636363636364
 40
0.6363636363636364
 40
0.7272727272727273
 40
0.7272727272727273
 40
0.7272727272727273
 40
0.8181818181818182
 40
0.8181818181818182
 40
0.8181818181818182
 40
0.9090909090909092
 40
0.9090909090909092
 40
0.9090909090909092
 40
1.0
 40
1.0
 40
1.0
 40
1.0
 10
-16.6832
 20
43.5189
 30
0.0
 10
-16.6478
 20
43.4965
 30
0.0
 10
-16.6019
 20
43.4782
 30
0.0
 10
-16.5706
 20
43.4458
 30
0.0
 10
-15.9211
 20
42.7694
 30
0.0
 10
-15.2717
 20
42.0927
 30
0.0
 10
-14.6295
 20
41.4092
 30
0.0
 10
-14.5979
 20
41.3759
 30
0.0
 10
-14.6066
 20
41.254
 30
0.0
 10
-14.642
 20
41.2163
 30
0.0
 10
-15.2689
 20
40.5504
 30
0.0
 10
-15.9
 20
39.8884
 30
0.0
 10
-16.5406
 20
39.2356
 30
0.0
 10
-16.5914
 20
39.1837
 30
0.0
 10
-16.7364
 20
39.1648
 30
0.0
 10
-16.8042
 20
39.1981
 30
0.0
 10
-17.2627
 20
39.4239
 30
0.0
 10
-17.7162
 20
39.6604
 30
0.0
 10
-18.1607
 20
39.9121
 30
0.0
 10
-18.2475
 20
39.9615
 30
0.0
 10
-18.3396
 20
40.0921
 30
0.0
 10
-18.3414
 20
40.1869
 30
0.0
 10
-18.3563
 20
40.9452
 30
0.0
 10
-18.3556
 20
41.7041
 30
0.0
 10
-18.3426
 20
42.4626
 30
0.0
 10
-18.3411
 20
42.5552
 30
0.0
 10
-18.261
 20
42.6856
 30
0.0
 10
-18.1795
 20
42.7314
 30
0.0
 10
-17.7191
 20
42.9922
 30
0.0
 10
-17.2472
 20
43.2325
 30
0.0
 10
-16.7791
 20
43.4794
 30
0.0
 10
-16.7529
 20
43.4932
 30
0.0
 10
-16.7241
 20
43.5022
 30
0.0
 10
-16.6832
 20
43.5189
 30
0.0
  0
SPLINE
  5
6D
330
1F
100
AcDbEntity
  8
Layer 1
 62
   250
370
     9
100
AcDbSpline
210
0.0
220
0.0
230
1.0
 70
    11
 71
     3
 72
    65
 73
    61
 74
     0
 42
0.0000000001
 43
0.0000000001
 40
0.0
 40
0.0
 40
0.0
 40
0.0
 40
0.05
 40
0.05
 40
0.05
 40
0.1
 40
0.1
 40
0.1
 40
0.15
 40
0.15
 40
0.15
 40
0.2
 40
0.2
 40
0.2
 40
0.25
 40
0.25
 40
0.25
 40
0.3
 40
0.3
 40
0.3
 40
0.35
 40
0.35
 40
0.35
 40
0.4
 40
0.4
 40
0.4
 40
0.45
 40
0.45
 40
0.45
 40
0.5
 40
0.5
 40
0.5
 40
0.55
 40
0.55
 40
0.55
 40
0.6000000000000001
 40
0.6000000000000001
 40
0.6000000000000001
 40
0.65
 40
0.65
 40
0.65
 40
0.7000000000000001
 40
0.7000000000000001
 40
0.7000000000000001
 40
0.75
 40
0.75
 40
0.75
 40
0.8
 40
0.8
 40
0.8
 40
0.8500000000000001
 40
0.8500000000000001
 40
0.8500000000000001
 40
0.9
 40
0.9
 40
0.9
 40
0.9500000000000001
 40
0.9500000000000001
 40
0.9500000000000001
 40
1.0
 40
1.0
 40
1.0
 40
1.0
 10
21.2255
 20
43.3455
 30
0.0
 10
21.2255
 20
44.1289
 30
0.0
 10
21.2312
 20
44.9123
 30
0.0
 10
21.222
 20
45.6956
 30
0.0
 10
21.2195
 20
45.9004
 30
0.0
 10
21.2686
 20
45.9807
 30
0.0
 10
21.4933
 20
45.9778
 30
0.0
 10
22.4694
 20
45.9656
 30
0.0
 10
23.4455
 20
45.972
 30
0.0
 10
24.4217
 20
45.9718
 30
0.0
 10
24.458
 20
45.9718
 30
0.0
 10
24.5007
 20
45.9836
 30
0.0
 10
24.5289
 20
45.9686
 30
0.0
 10
24.5977
 20
45.9324
 30
0.0
 10
24.6598
 20
45.8836
 30
0.0
 10
24.7244
 20
45.8398
 30
0.0
 10
24.6616
 20
45.8017
 30
0.0
 10
24.5995
 20
45.7334
 30
0.0
 10
24.5353
 20
45.731
 30
0.0
 10
24.2164
 20
45.7195
 30
0.0
 10
23.8967
 20
45.7252
 30
0.0
 10
23.5771
 20
45.7251
 30
0.0
 10
23.1616
 20
45.725
 30
0.0
 10
22.7456
 20
45.7212
 30
0.0
 10
22.3301
 20
45.7268
 30
0.0
 10
22.1875
 20
45.7287
 30
0.0
 10
22.124
 20
45.6873
 30
0.0
 10
22.1258
 20
45.5322
 30
0.0
 10
22.1329
 20
44.9115
 30
0.0
 10
22.1318
 20
44.2908
 30
0.0
 10
22.1269
 20
43.6703
 30
0.0
 10
22.1258
 20
43.5286
 30
0.0
 10
22.1791
 20
43.4798
 30
0.0
 10
22.3181
 20
43.4809
 30
0.0
 10
22.8546
 20
43.4853
 30
0.0
 10
23.3909
 20
43.4876
 30
0.0
 10
23.9271
 20
43.4754
 30
0.0
 10
24.0026
 20
43.4736
 30
0.0
 10
24.0767
 20
43.3896
 30
0.0
 10
24.1515
 20
43.3437
 30
0.0
 10
24.0781
 20
43.3035
 30
0.0
 10
24.0051
 20
43.2303
 30
0.0
 10
23.9306
 20
43.2288
 30
0.0
 10
23.4487
 20
43.2186
 30
0.0
 10
22.9668
 20
43.2241
 30
0.0
 10
22.4849
 20
43.2245
 30
0.0
 10
22.1293
 20
43.2246
 30
0.0
 10
22.129
 20
43.2245
 30
0.0
 10
22.129
 20
42.8786
 30
0.0
 10
22.1286
 20
42.2278
 30
0.0
 10
22.1237
 20
41.5769
 30
0.0
 10
22.1318
 20
40.9262
 30
0.0
 10
22.1339
 20
40.7494
 30
0.0
 10
22.0845
 20
40.6841
 30
0.0
 10
21.8972
 20
40.6855
 30
0.0
 10
21.2255
 20
40.6903
 30
0.0
 10
21.2255
 20
40.6838
 30
0.0
 10
21.2255
 20
41.3573
 30
0.0
 10
21.2259
 20
42.0201
 30
0.0
 10
21.2255
 20
42.6829
 30
0.0
 10
21.2255
 20
43.3455
 30
0.0
  0
SPLINE
  5
6E
330
1F
100
AcDbEntity
  8
Layer 1
 62
   250
370
     9
100
AcDbSpline
210
0.0
220
0.0
230
1.0
 70
    11
 71
     3
 72
    62
 73
    58
 74
     0
 42
0.0000000001
 43
0.0000000001
 40
0.0
 40
0.0
 40
0.0
 40
0.0
 40
0.0526315789473684
 40
0.0526315789473684
 40
0.0526315789473684
 40
0.1052631578947368
 40
0.1052631578947368
 40
0.1052631578947368
 40
0.1578947368421053
 40
0.1578947368421053
 40
0.1578947368421053
 40
0.2105263157894737
 40
0.2105263157894737
 40
0.2105263157894737
 40
0.2631578947368421
 40
0.2631578947368421
 40
0.2631578947368421
 40
0.3157894736842105
 40
0.3157894736842105
 40
0.3157894736842105
 40
0.3684210526315789
 40
0.3684210526315789
 40
0.3684210526315789
 40
0.4210526315789473
 40
0.4210526315789473
 40
0.4210526315789473
 40
0.4736842105263158
 40
0.4736842105263158
 40
0.4736842105263158
 40
0.5263157894736842
 40
0.5263157894736842
 40
0.5263157894736842
 40
0.5789473684210527
 40
0.5789473684210527
 40
0.5789473684210527
 40
0.631578947368421
 40
0.631578947368421
 40
0.631578947368421
 40
0.6842105263157894
 40
0.6842105263157894
 40
0.6842105263157894
 40
0.7368421052631579
 40
0.7368421052631579
 40
0.7368421052631579
 40
0.7894736842105263
 40
0.7894736842105263
 40
0.7894736842105263
 40
0.8421052631578947
 40
0.8421052631578947
 40
0.8421052631578947
 40
0.894736842105263
 40
0.894736842105263
 40
0.894736842105263
 40
0.9473684210526315
 40
0.9473684210526315
 40
0.9473684210526315
 40
1.0
 40
1.0
 40
1.0
 40
1.0
 10
18.7674
 20
43.1859
 30
0.0
 10
19.0891
 20
43.6979
 30
0.0
 10
19.3904
 20
44.1761
 30
0.0
 10
19.6899
 20
44.6553
 30
0.0
 10
19.9326
 20
45.0436
 30
0.0
 10
20.1658
 20
45.4385
 30
0.0
 10
20.4201
 20
45.8187
 30
0.0
 10
20.4773
 20
45.9035
 30
0.0
 10
20.6071
 20
45.9395
 30
0.0
 10
20.7034
 20
45.9981
 30
0.0
 10
20.7239
 20
45.9723
 30
0.0
 10
20.744
 20
45.9465
 30
0.0
 10
20.7644
 20
45.9208
 30
0.0
 10
20.6586
 20
45.7437
 30
0.0
 10
20.5552
 20
45.5648
 30
0.0
 10
20.4459
 20
45.3898
 30
0.0
 10
19.9717
 20
44.628
 30
0.0
 10
19.4891
 20
43.8709
 30
0.0
 10
19.0256
 20
43.1027
 30
0.0
 10
18.9381
 20
42.9576
 30
0.0
 10
18.887
 20
42.7699
 30
0.0
 10
18.8813
 20
42.5998
 30
0.0
 10
18.863
 20
42.07
 30
0.0
 10
18.8594
 20
41.5386
 30
0.0
 10
18.881
 20
41.0089
 30
0.0
 10
18.8912
 20
40.741
 30
0.0
 10
18.8019
 20
40.6518
 30
0.0
 10
18.5458
 20
40.686
 30
0.0
 10
18.4273
 20
40.7016
 30
0.0
 10
18.3045
 20
40.6959
 30
0.0
 10
18.1842
 20
40.6877
 30
0.0
 10
18.0406
 20
40.6779
 30
0.0
 10
17.9941
 20
40.74
 30
0.0
 10
17.9958
 20
40.878
 30
0.0
 10
18.0004
 20
41.3181
 30
0.0
 10
17.9666
 20
41.7609
 30
0.0
 10
18.005
 20
42.1975
 30
0.0
 10
18.0484
 20
42.6916
 30
0.0
 10
17.8784
 20
43.0875
 30
0.0
 10
17.6134
 20
43.4867
 30
0.0
 10
17.1079
 20
44.2497
 30
0.0
 10
16.6366
 20
45.0354
 30
0.0
 10
16.1519
 20
45.8121
 30
0.0
 10
16.1311
 20
45.8455
 30
0.0
 10
16.1194
 20
45.8849
 30
0.0
 10
16.0877
 20
45.9592
 30
0.0
 10
16.4164
 20
45.9592
 30
0.0
 10
16.7191
 20
45.9675
 30
0.0
 10
17.0208
 20
45.9515
 30
0.0
 10
17.0744
 20
45.9485
 30
0.0
 10
17.1319
 20
45.8501
 30
0.0
 10
17.171
 20
45.7857
 30
0.0
 10
17.6667
 20
44.9735
 30
0.0
 10
18.1588
 20
44.1594
 30
0.0
 10
18.6527
 20
43.3459
 30
0.0
 10
18.6802
 20
43.3013
 30
0.0
 10
18.7134
 20
43.2606
 30
0.0
 10
18.7674
 20
43.1859
 30
0.0
  0
SPLINE
  5
6F
330
1F
100
AcDbEntity
  8
Layer 1
 62
   250
370
     9
100
AcDbSpline
210
0.0
220
0.0
230
1.0
 70
    11
 71
     3
 72
    68
 73
    64
 74
     0
 42
0.0000000001
 43
0.0000000001
 40
0.0
 40
0.0
 40
0.0
 40
0.0
 40
0.0476190476190476
 40
0.0476190476190476
 40
0.0476190476190476
 40
0.0952380952380952
 40
0.0952380952380952
 40
0.0952380952380952
 40
0.1428571428571428
 40
0.1428571428571428
 40
0.1428571428571428
 40
0.1904761904761905
 40
0.1904761904761905
 40
0.1904761904761905
 40
0.2380952380952381
 40
0.2380952380952381
 40
0.2380952380952381
 40
0.2857142857142857
 40
0.2857142857142857
 40
0.2857142857142857
 40
0.3333333333333333
 40
0.3333333333333333
 40
0.3333333333333333
 40
0.3809523809523809
 40
0.3809523809523809
 40
0.3809523809523809
 40
0.4285714285714285
 40
0.4285714285714285
 40
0.4285714285714285
 40
0.4761904761904762
 40
0.4761904761904762
 40
0.4761904761904762
 40
0.5238095238095237
 40
0.5238095238095237
 40
0.5238095238095237
 40
0.5714285714285714
 40
0.5714285714285714
 40
0.5714285714285714
 40
0.6190476190476191
 40
0.6190476190476191
 40
0.6190476190476191
 40
0.6666666666666666
 40
0.6666666666666666
 40
0.6666666666666666
 40
0.7142857142857142
 40
0.7142857142857142
 40
0.7142857142857142
 40
0.7619047619047619
 40
0.7619047619047619
 40
0.7619047619047619
 40
0.8095238095238095
 40
0.8095238095238095
 40
0.8095238095238095
 40
0.8571428571428571
 40
0.8571428571428571
 40
0.8571428571428571
 40
0.9047619047619047
 40
0.9047619047619047
 40
0.9047619047619047
 40
0.9523809523809523
 40
0.9523809523809523
 40
0.9523809523809523
 40
1.0
 40
1.0
 40
1.0
 40
1.0
 10
5.9212
 20
36.8847
 30
0.0
 10
6.104
 20
37.3651
 30
0.0
 10
6.2871
 20
37.8456
 30
0.0
 10
6.4699
 20
38.3263
 30
0.0
 10
6.4972
 20
38.3169
 30
0.0
 10
6.5243
 20
38.3077
 30
0.0
 10
6.5512
 20
38.2983
 30
0.0
 10
6.5027
 20
38.1391
 30
0.0
 10
6.4617
 20
37.9771
 30
0.0
 10
6.4042
 20
37.8211
 30
0.0
 10
6.2361
 20
37.3643
 30
0.0
 10
6.0627
 20
36.9092
 30
0.0
 10
5.8881
 20
36.455
 30
0.0
 10
5.8681
 20
36.4031
 30
0.0
 10
5.8247
 20
36.3599
 30
0.0
 10
5.7923
 20
36.3127
 30
0.0
 10
5.752
 20
36.3591
 30
0.0
 10
5.6959
 20
36.3991
 30
0.0
 10
5.6738
 20
36.4528
 30
0.0
 10
5.5335
 20
36.7948
 30
0.0
 10
5.401
 20
37.1399
 30
0.0
 10
5.2386
 20
37.5537
 30
0.0
 10
5.062
 20
37.088
 30
0.0
 10
4.9113
 20
36.6908
 30
0.0
 10
4.735
 20
36.2254
 30
0.0
 10
4.661
 20
36.3604
 30
0.0
 10
4.6178
 20
36.4213
 30
0.0
 10
4.5917
 20
36.4886
 30
0.0
 10
4.3788
 20
37.0322
 30
0.0
 10
4.1651
 20
37.5754
 30
0.0
 10
3.9637
 20
38.123
 30
0.0
 10
3.9396
 20
38.1885
 30
0.0
 10
3.9864
 20
38.2801
 30
0.0
 10
4.0002
 20
38.3596
 30
0.0
 10
4.0976
 20
38.3181
 30
0.0
 10
4.2527
 20
38.3016
 30
0.0
 10
4.283
 20
38.2313
 30
0.0
 10
4.4504
 20
37.8451
 30
0.0
 10
4.5862
 20
37.4454
 30
0.0
 10
4.7347
 20
37.0513
 30
0.0
 10
4.755
 20
36.9981
 30
0.0
 10
4.7871
 20
36.9495
 30
0.0
 10
4.8484
 20
36.8976
 30
0.0
 10
4.9389
 20
37.262
 30
0.0
 10
5.2756
 20
37.5624
 30
0.0
 10
5.0819
 20
37.9868
 30
0.0
 10
5.0571
 20
38.0416
 30
0.0
 10
5.0275
 20
38.0997
 30
0.0
 10
5.0255
 20
38.157
 30
0.0
 10
5.023
 20
38.2255
 30
0.0
 10
5.0475
 20
38.2949
 30
0.0
 10
5.0606
 20
38.364
 30
0.0
 10
5.1523
 20
38.3293
 30
0.0
 10
5.2997
 20
38.319
 30
0.0
 10
5.3268
 20
38.2565
 30
0.0
 10
5.4933
 20
37.8708
 30
0.0
 10
5.6325
 20
37.4733
 30
0.0
 10
5.7816
 20
37.0798
 30
0.0
 10
5.8061
 20
37.0151
 30
0.0
 10
5.8337
 20
36.9513
 30
0.0
 10
5.8599
 20
36.8872
 30
0.0
 10
5.8801
 20
36.8864
 30
0.0
 10
5.9008
 20
36.8855
 30
0.0
 10
5.9212
 20
36.8847
 30
0.0
  0
SPLINE
  5
70
330
1F
100
AcDbEntity
  8
Layer 1
 62
   250
370
     9
100
AcDbSpline
210
0.0
220
0.0
230
1.0
 70
    11
 71
     3
 72
    17
 73
    13
 74
     0
 42
0.0000000001
 43
0.0000000001
 40
0.0
 40
0.0
 40
0.0
 40
0.0
 40
0.25
 40
0.25
 40
0.25
 40
0.5
 40
0.5
 40
0.5
 40
0.75
 40
0.75
 40
0.75
 40
1.0
 40
1.0
 40
1.0
 40
1.0
 10
16.7029
 20
37.793
 30
0.0
 10
16.7022
 20
37.3383
 30
0.0
 10
16.7145
 20
37.3086
 30
0.0
 10
16.9029
 20
37.3094
 30
0.0
 10
17.4014
 20
37.3117
 30
0.0
 10
17.6035
 20
37.4427
 30
0.0
 10
17.6046
 20
37.763
 30
0.0
 10
17.6057
 20
38.1299
 30
0.0
 10
17.4691
 20
38.2382
 30
0.0
 10
17.0056
 20
38.2386
 30
0.0
 10
16.7033
 20
38.2388
 30
0.0
 10
16.7033
 20
38.2388
 30
0.0
 10
16.7029
 20
37.793
 30
0.0
  0
SPLINE
  5
71
330
1F
100
AcDbEntity
  8
Layer 1
 62
   250
370
     9
100
AcDbSpline
210
0.0
220
0.0
230
1.0
 70
    11
 71
     3
 72
    47
 73
    43
 74
     0
 42
0.0000000001
 43
0.0000000001
 40
0.0
 40
0.0
 40
0.0
 40
0.0
 40
0.0714285714285714
 40
0.0714285714285714
 40
0.0714285714285714
 40
0.1428571428571428
 40
0.1428571428571428
 40
0.1428571428571428
 40
0.2142857142857143
 40
0.2142857142857143
 40
0.2142857142857143
 40
0.2857142857142857
 40
0.2857142857142857
 40
0.2857142857142857
 40
0.3571428571428571
 40
0.3571428571428571
 40
0.3571428571428571
 40
0.4285714285714285
 40
0.4285714285714285
 40
0.4285714285714285
 40
0.5
 40
0.5
 40
0.5
 40
0.5714285714285714
 40
0.5714285714285714
 40
0.5714285714285714
 40
0.6428571428571428
 40
0.6428571428571428
 40
0.6428571428571428
 40
0.7142857142857142
 40
0.7142857142857142
 40
0.7142857142857142
 40
0.7857142857142857
 40
0.7857142857142857
 40
0.7857142857142857
 40
0.8571428571428571
 40
0.8571428571428571
 40
0.8571428571428571
 40
0.9285714285714285
 40
0.9285714285714285
 40
0.9285714285714285
 40
1.0
 40
1.0
 40
1.0
 40
1.0
 10
17.642
 20
37.2887
 30
0.0
 10
17.7838
 20
36.9913
 30
0.0
 10
17.9207
 20
36.7098
 30
0.0
 10
18.0491
 20
36.4243
 30
0.0
 10
18.0639
 20
36.3922
 30
0.0
 10
18.0223
 20
36.2992
 30
0.0
 10
18.0191
 20
36.2997
 30
0.0
 10
17.9031
 20
36.3208
 30
0.0
 10
17.7475
 20
36.314
 30
0.0
 10
17.684
 20
36.3868
 30
0.0
 10
17.5958
 20
36.488
 30
0.0
 10
17.5778
 20
36.6495
 30
0.0
 10
17.5288
 20
36.7852
 30
0.0
 10
17.388
 20
37.1777
 30
0.0
 10
17.2836
 20
37.2537
 30
0.0
 10
16.8747
 20
37.2156
 30
0.0
 10
16.8133
 20
37.2096
 30
0.0
 10
16.7191
 20
37.1123
 30
0.0
 10
16.7117
 20
37.049
 30
0.0
 10
16.6888
 20
36.8588
 30
0.0
 10
16.7177
 20
36.6623
 30
0.0
 10
16.693
 20
36.4725
 30
0.0
 10
16.6839
 20
36.4042
 30
0.0
 10
16.5794
 20
36.3482
 30
0.0
 10
16.5191
 20
36.2866
 30
0.0
 10
16.4687
 20
36.3467
 30
0.0
 10
16.3759
 20
36.4058
 30
0.0
 10
16.3745
 20
36.4667
 30
0.0
 10
16.3635
 20
37.0327
 30
0.0
 10
16.3702
 20
37.5992
 30
0.0
 10
16.3664
 20
38.1653
 30
0.0
 10
16.3653
 20
38.3034
 30
0.0
 10
16.391
 20
38.3753
 30
0.0
 10
16.5576
 20
38.3617
 30
0.0
 10
16.7904
 20
38.3428
 30
0.0
 10
17.026
 20
38.3651
 30
0.0
 10
17.2592
 20
38.3505
 30
0.0
 10
17.5545
 20
38.3319
 30
0.0
 10
17.8459
 20
38.2863
 30
0.0
 10
17.9461
 20
37.9385
 30
0.0
 10
18.0396
 20
37.6127
 30
0.0
 10
17.8639
 20
37.415
 30
0.0
 10
17.642
 20
37.2887
 30
0.0
  0
SPLINE
  5
72
330
1F
100
AcDbEntity
  8
Layer 1
 62
   250
370
     9
100
AcDbSpline
210
0.0
220
0.0
230
1.0
 70
    11
 71
     3
 72
    26
 73
    22
 74
     0
 42
0.0000000001
 43
0.0000000001
 40
0.0
 40
0.0
 40
0.0
 40
0.0
 40
0.1428571428571428
 40
0.1428571428571428
 40
0.1428571428571428
 40
0.2857142857142857
 40
0.2857142857142857
 40
0.2857142857142857
 40
0.4285714285714285
 40
0.4285714285714285
 40
0.4285714285714285
 40
0.5714285714285714
 40
0.5714285714285714
 40
0.5714285714285714
 40
0.7142857142857142
 40
0.7142857142857142
 40
0.7142857142857142
 40
0.8571428571428571
 40
0.8571428571428571
 40
0.8571428571428571
 40
1.0
 40
1.0
 40
1.0
 40
1.0
 10
-14.5552
 20
40.7744
 30
0.0
 10
-14.4978
 20
40.6087
 30
0.0
 10
-14.4767
 20
40.5292
 30
0.0
 10
-14.4432
 20
40.4553
 30
0.0
 10
-14.2696
 20
40.0746
 30
0.0
 10
-14.1038
 20
39.6894
 30
0.0
 10
-13.9109
 20
39.3186
 30
0.0
 10
-13.8446
 20
39.1911
 30
0.0
 10
-13.8199
 20
39.1192
 30
0.0
 10
-13.9342
 20
39.0123
 30
0.0
 10
-14.3233
 20
38.6482
 30
0.0
 10
-14.332
 20
38.6372
 30
0.0
 10
-14.6107
 20
39.0882
 30
0.0
 10
-14.7776
 20
39.358
 30
0.0
 10
-14.9016
 20
39.6547
 30
0.0
 10
-15.0403
 20
39.9416
 30
0.0
 10
-15.1085
 20
40.083
 30
0.0
 10
-15.076
 20
40.2005
 30
0.0
 10
-14.9586
 20
40.3135
 30
0.0
 10
-14.8263
 20
40.4407
 30
0.0
 10
-14.715
 20
40.5894
 30
0.0
 10
-14.5552
 20
40.7744
 30
0.0
  0
SPLINE
  5
73
330
1F
100
AcDbEntity
  8
Layer 1
 62
   250
370
     9
100
AcDbSpline
210
0.0
220
0.0
230
1.0
 70
    11
 71
     3
 72
    26
 73
    22
 74
     0
 42
0.0000000001
 43
0.0000000001
 40
0.0
 40
0.0
 40
0.0
 40
0.0
 40
0.1428571428571428
 40
0.1428571428571428
 40
0.1428571428571428
 40
0.2857142857142857
 40
0.2857142857142857
 40
0.2857142857142857
 40
0.4285714285714285
 40
0.4285714285714285
 40
0.4285714285714285
 40
0.5714285714285714
 40
0.5714285714285714
 40
0.5714285714285714
 40
0.7142857142857142
 40
0.7142857142857142
 40
0.7142857142857142
 40
0.8571428571428571
 40
0.8571428571428571
 40
0.8571428571428571
 40
1.0
 40
1.0
 40
1.0
 40
1.0
 10
-12.7776
 20
41.8729
 30
0.0
 10
-12.8214
 20
42.0212
 30
0.0
 10
-12.8345
 20
42.1043
 30
0.0
 10
-12.869
 20
42.1769
 30
0.0
 10
-13.0384
 20
42.5336
 30
0.0
 10
-13.2006
 20
42.8946
 30
0.0
 10
-13.3931
 20
43.2384
 30
0.0
 10
-13.4689
 20
43.3737
 30
0.0
 10
-13.4649
 20
43.4457
 30
0.0
 10
-13.3559
 20
43.5434
 30
0.0
 10
-12.9585
 20
43.8991
 30
0.0
 10
-12.9349
 20
43.9027
 30
0.0
 10
-12.665
 20
43.4327
 30
0.0
 10
-12.5217
 20
43.1834
 30
0.0
 10
-12.3929
 20
42.9224
 30
0.0
 10
-12.2925
 20
42.6537
 30
0.0
 10
-12.259
 20
42.564
 30
0.0
 10
-12.3049
 20
42.4145
 30
0.0
 10
-12.3648
 20
42.3267
 30
0.0
 10
-12.4675
 20
42.1761
 30
0.0
 10
-12.61
 20
42.0526
 30
0.0
 10
-12.7776
 20
41.8729
 30
0.0
  0
SPLINE
  5
74
330
1F
100
AcDbEntity
  8
Layer 1
 62
   250
370
     9
100
AcDbSpline
210
0.0
220
0.0
230
1.0
 70
    11
 71
     3
 72
    59
 73
    55
 74
     0
 42
0.0000000001
 43
0.0000000001
 40
0.0
 40
0.0
 40
0.0
 40
0.0
 40
0.0555555555555556
 40
0.0555555555555556
 40
0.0555555555555556
 40
0.1111111111111111
 40
0.1111111111111111
 40
0.1111111111111111
 40
0.1666666666666667
 40
0.1666666666666667
 40
0.1666666666666667
 40
0.2222222222222222
 40
0.2222222222222222
 40
0.2222222222222222
 40
0.2777777777777778
 40
0.2777777777777778
 40
0.2777777777777778
 40
0.3333333333333333
 40
0.3333333333333333
 40
0.3333333333333333
 40
0.3888888888888888
 40
0.3888888888888888
 40
0.3888888888888888
 40
0.4444444444444444
 40
0.4444444444444444
 40
0.4444444444444444
 40
0.5
 40
0.5
 40
0.5
 40
0.5555555555555556
 40
0.5555555555555556
 40
0.5555555555555556
 40
0.611111111111111
 40
0.611111111111111
 40
0.611111111111111
 40
0.6666666666666666
 40
0.6666666666666666
 40
0.6666666666666666
 40
0.7222222222222222
 40
0.7222222222222222
 40
0.7222222222222222
 40
0.7777777777777777
 40
0.7777777777777777
 40
0.7777777777777777
 40
0.8333333333333333
 40
0.8333333333333333
 40
0.8333333333333333
 40
0.8888888888888888
 40
0.8888888888888888
 40
0.8888888888888888
 40
0.9444444444444444
 40
0.9444444444444444
 40
0.9444444444444444
 40
1.0
 40
1.0
 40
1.0
 40
1.0
 10
15.4445
 20
38.2786
 30
0.0
 10
15.3807
 20
38.2655
 30
0.0
 10
15.3172
 20
38.2429
 30
0.0
 10
15.2533
 20
38.2414
 30
0.0
 10
15.0307
 20
38.236
 30
0.0
 10
14.8068
 20
38.2491
 30
0.0
 10
14.5856
 20
38.2299
 30
0.0
 10
14.5273
 20
38.2247
 30
0.0
 10
14.477
 20
38.1287
 30
0.0
 10
14.4237
 20
38.0737
 30
0.0
 10
14.4205
 20
38.0704
 30
0.0
 10
14.423
 20
38.062
 30
0.0
 10
14.423
 20
38.0559
 30
0.0
 10
14.3971
 20
37.4312
 30
0.0
 10
14.3971
 20
37.4315
 30
0.0
 10
15.0018
 20
37.4081
 30
0.0
 10
15.0468
 20
37.4064
 30
0.0
 10
15.0916
 20
37.3953
 30
0.0
 10
15.1368
 20
37.3885
 30
0.0
 10
15.1389
 20
37.3658
 30
0.0
 10
15.1409
 20
37.3427
 30
0.0
 10
15.1426
 20
37.3199
 30
0.0
 10
15.0165
 20
37.3131
 30
0.0
 10
14.8908
 20
37.3018
 30
0.0
 10
14.7647
 20
37.3009
 30
0.0
 10
14.4205
 20
37.2984
 30
0.0
 10
14.4205
 20
37.3003
 30
0.0
 10
14.4212
 20
36.9537
 30
0.0
 10
14.4226
 20
36.389
 30
0.0
 10
14.4226
 20
36.3911
 30
0.0
 10
14.9859
 20
36.3881
 30
0.0
 10
15.1399
 20
36.3874
 30
0.0
 10
15.2939
 20
36.369
 30
0.0
 10
15.4527
 20
36.3193
 30
0.0
 10
15.4258
 20
36.3078
 30
0.0
 10
15.399
 20
36.2869
 30
0.0
 10
15.3722
 20
36.2868
 30
0.0
 10
14.9928
 20
36.2848
 30
0.0
 10
14.6132
 20
36.2781
 30
0.0
 10
14.2345
 20
36.2939
 30
0.0
 10
14.1743
 20
36.2965
 30
0.0
 10
14.0691
 20
36.4032
 30
0.0
 10
14.0677
 20
36.4634
 30
0.0
 10
14.0557
 20
37.0412
 30
0.0
 10
14.0585
 20
37.6193
 30
0.0
 10
14.0663
 20
38.197
 30
0.0
 10
14.0671
 20
38.2539
 30
0.0
 10
14.129
 20
38.3578
 30
0.0
 10
14.1653
 20
38.3586
 30
0.0
 10
14.5879
 20
38.37
 30
0.0
 10
15.011
 20
38.3659
 30
0.0
 10
15.4336
 20
38.3659
 30
0.0
 10
15.4375
 20
38.3367
 30
0.0
 10
15.441
 20
38.3077
 30
0.0
 10
15.4445
 20
38.2786
 30
0.0
  0
SPLINE
  5
75
330
1F
100
AcDbEntity
  8
Layer 1
 62
   250
370
     9
100
AcDbSpline
210
0.0
220
0.0
230
1.0
 70
    11
 71
     3
 72
    59
 73
    55
 74
     0
 42
0.0000000001
 43
0.0000000001
 40
0.0
 40
0.0
 40
0.0
 40
0.0
 40
0.0555555555555556
 40
0.0555555555555556
 40
0.0555555555555556
 40
0.1111111111111111
 40
0.1111111111111111
 40
0.1111111111111111
 40
0.1666666666666667
 40
0.1666666666666667
 40
0.1666666666666667
 40
0.2222222222222222
 40
0.2222222222222222
 40
0.2222222222222222
 40
0.2777777777777778
 40
0.2777777777777778
 40
0.2777777777777778
 40
0.3333333333333333
 40
0.3333333333333333
 40
0.3333333333333333
 40
0.3888888888888888
 40
0.3888888888888888
 40
0.3888888888888888
 40
0.4444444444444444
 40
0.4444444444444444
 40
0.4444444444444444
 40
0.5
 40
0.5
 40
0.5
 40
0.5555555555555556
 40
0.5555555555555556
 40
0.5555555555555556
 40
0.611111111111111
 40
0.611111111111111
 40
0.611111111111111
 40
0.6666666666666666
 40
0.6666666666666666
 40
0.6666666666666666
 40
0.7222222222222222
 40
0.7222222222222222
 40
0.7222222222222222
 40
0.7777777777777777
 40
0.7777777777777777
 40
0.7777777777777777
 40
0.8333333333333333
 40
0.8333333333333333
 40
0.8333333333333333
 40
0.8888888888888888
 40
0.8888888888888888
 40
0.8888888888888888
 40
0.9444444444444444
 40
0.9444444444444444
 40
0.9444444444444444
 40
1.0
 40
1.0
 40
1.0
 40
1.0
 10
3.1805
 20
36.2853
 30
0.0
 10
2.9322
 20
36.2853
 30
0.0
 10
2.6838
 20
36.2853
 30
0.0
 10
2.4354
 20
36.2853
 30
0.0
 10
1.7984
 20
36.2853
 30
0.0
 10
1.7984
 20
36.2853
 30
0.0
 10
1.7986
 20
36.9298
 30
0.0
 10
1.7986
 20
37.3397
 30
0.0
 10
1.8015
 20
37.7497
 30
0.0
 10
1.7981
 20
38.1597
 30
0.0
 10
1.7968
 20
38.3137
 30
0.0
 10
1.8652
 20
38.3796
 30
0.0
 10
2.0167
 20
38.3759
 30
0.0
 10
2.3833
 20
38.3665
 30
0.0
 10
2.7503
 20
38.3609
 30
0.0
 10
3.1171
 20
38.3519
 30
0.0
 10
3.1371
 20
38.3513
 30
0.0
 10
3.1571
 20
38.3349
 30
0.0
 10
3.2439
 20
38.2962
 30
0.0
 10
3.1199
 20
38.2683
 30
0.0
 10
3.0586
 20
38.2438
 30
0.0
 10
2.997
 20
38.2422
 30
0.0
 10
2.7861
 20
38.2367
 30
0.0
 10
2.5735
 20
38.2525
 30
0.0
 10
2.3647
 20
38.2309
 30
0.0
 10
2.2963
 20
38.2239
 30
0.0
 10
2.2359
 20
38.1288
 30
0.0
 10
2.1735
 20
38.0723
 30
0.0
 10
2.1666
 20
38.0661
 30
0.0
 10
2.1689
 20
38.0493
 30
0.0
 10
2.1674
 20
38.0374
 30
0.0
 10
2.0911
 20
37.461
 30
0.0
 10
2.1302
 20
37.4161
 30
0.0
 10
2.7069
 20
37.4072
 30
0.0
 10
2.774
 20
37.4061
 30
0.0
 10
2.8409
 20
37.3913
 30
0.0
 10
2.9077
 20
37.3826
 30
0.0
 10
2.907
 20
37.3553
 30
0.0
 10
2.9063
 20
37.3278
 30
0.0
 10
2.9056
 20
37.3
 30
0.0
 10
2.7455
 20
37.3
 30
0.0
 10
2.5843
 20
37.2908
 30
0.0
 10
2.4247
 20
37.3025
 30
0.0
 10
2.2329
 20
37.3166
 30
0.0
 10
2.1579
 20
37.2514
 30
0.0
 10
2.1584
 20
37.0484
 30
0.0
 10
2.1605
 20
36.3609
 30
0.0
 10
2.1542
 20
36.3609
 30
0.0
 10
2.8378
 20
36.3609
 30
0.0
 10
2.9508
 20
36.3609
 30
0.0
 10
3.0638
 20
36.3609
 30
0.0
 10
3.1764
 20
36.3609
 30
0.0
 10
3.1778
 20
36.3358
 30
0.0
 10
3.1792
 20
36.3105
 30
0.0
 10
3.1805
 20
36.2853
 30
0.0
  0
SPLINE
  5
76
330
1F
100
AcDbEntity
  8
Layer 1
 62
   250
370
     9
100
AcDbSpline
210
0.0
220
0.0
230
1.0
 70
    11
 71
     3
 72
    59
 73
    55
 74
     0
 42
0.0000000001
 43
0.0000000001
 40
0.0
 40
0.0
 40
0.0
 40
0.0
 40
0.0555555555555556
 40
0.0555555555555556
 40
0.0555555555555556
 40
0.1111111111111111
 40
0.1111111111111111
 40
0.1111111111111111
 40
0.1666666666666667
 40
0.1666666666666667
 40
0.1666666666666667
 40
0.2222222222222222
 40
0.2222222222222222
 40
0.2222222222222222
 40
0.2777777777777778
 40
0.2777777777777778
 40
0.2777777777777778
 40
0.3333333333333333
 40
0.3333333333333333
 40
0.3333333333333333
 40
0.3888888888888888
 40
0.3888888888888888
 40
0.3888888888888888
 40
0.4444444444444444
 40
0.4444444444444444
 40
0.4444444444444444
 40
0.5
 40
0.5
 40
0.5
 40
0.5555555555555556
 40
0.5555555555555556
 40
0.5555555555555556
 40
0.611111111111111
 40
0.611111111111111
 40
0.611111111111111
 40
0.6666666666666666
 40
0.6666666666666666
 40
0.6666666666666666
 40
0.7222222222222222
 40
0.7222222222222222
 40
0.7222222222222222
 40
0.7777777777777777
 40
0.7777777777777777
 40
0.7777777777777777
 40
0.8333333333333333
 40
0.8333333333333333
 40
0.8333333333333333
 40
0.8888888888888888
 40
0.8888888888888888
 40
0.8888888888888888
 40
0.9444444444444444
 40
0.9444444444444444
 40
0.9444444444444444
 40
1.0
 40
1.0
 40
1.0
 40
1.0
 10
8.4058
 20
37.2999
 30
0.0
 10
8.248
 20
37.2999
 30
0.0
 10
8.0891
 20
37.2896
 30
0.0
 10
7.932
 20
37.3025
 30
0.0
 10
7.7384
 20
37.3184
 30
0.0
 10
7.6733
 20
37.2393
 30
0.0
 10
7.6885
 20
37.0518
 30
0.0
 10
7.7012
 20
36.8964
 30
0.0
 10
7.6991
 20
36.7381
 30
0.0
 10
7.6874
 20
36.5824
 30
0.0
 10
7.6736
 20
36.4009
 30
0.0
 10
7.7549
 20
36.3531
 30
0.0
 10
7.9221
 20
36.3595
 30
0.0
 10
8.1842
 20
36.3701
 30
0.0
 10
8.4471
 20
36.3623
 30
0.0
 10
8.7327
 20
36.3623
 30
0.0
 10
8.7065
 20
36.3233
 30
0.0
 10
8.6982
 20
36.3
 30
0.0
 10
8.6897
 20
36.2999
 30
0.0
 10
8.2744
 20
36.2948
 30
0.0
 10
7.859
 20
36.2877
 30
0.0
 10
7.4439
 20
36.2956
 30
0.0
 10
7.404
 20
36.2961
 30
0.0
 10
7.333
 20
36.3902
 30
0.0
 10
7.3323
 20
36.4418
 30
0.0
 10
7.3243
 20
37.0322
 30
0.0
 10
7.3234
 20
37.6228
 30
0.0
 10
7.3339
 20
38.213
 30
0.0
 10
7.3351
 20
38.2673
 30
0.0
 10
7.4281
 20
38.365
 30
0.0
 10
7.4797
 20
38.3659
 30
0.0
 10
7.8583
 20
38.3732
 30
0.0
 10
8.2373
 20
38.362
 30
0.0
 10
8.6162
 20
38.3533
 30
0.0
 10
8.6463
 20
38.3526
 30
0.0
 10
8.6759
 20
38.3285
 30
0.0
 10
8.7062
 20
38.2607
 30
0.0
 10
8.6183
 20
38.2534
 30
0.0
 10
8.5308
 20
38.2415
 30
0.0
 10
8.443
 20
38.24
 30
0.0
 10
8.2563
 20
38.2364
 30
0.0
 10
8.0691
 20
38.2355
 30
0.0
 10
7.8824
 20
38.2389
 30
0.0
 10
7.7439
 20
38.2415
 30
0.0
 10
7.6943
 20
38.1773
 30
0.0
 10
7.6885
 20
38.0416
 30
0.0
 10
7.663
 20
37.4336
 30
0.0
 10
7.6603
 20
37.4341
 30
0.0
 10
8.2627
 20
37.407
 30
0.0
 10
8.3124
 20
37.4046
 30
0.0
 10
8.3617
 20
37.3914
 30
0.0
 10
8.4109
 20
37.3831
 30
0.0
 10
8.4092
 20
37.3554
 30
0.0
 10
8.4074
 20
37.3278
 30
0.0
 10
8.4058
 20
37.2999
 30
0.0
  0
SPLINE
  5
77
330
1F
100
AcDbEntity
  8
Layer 1
 62
   250
370
     9
100
AcDbSpline
210
0.0
220
0.0
230
1.0
 70
    11
 71
     3
 72
    44
 73
    40
 74
     0
 42
0.0000000001
 43
0.0000000001
 40
0.0
 40
0.0
 40
0.0
 40
0.0
 40
0.0769230769230769
 40
0.0769230769230769
 40
0.0769230769230769
 40
0.1538461538461539
 40
0.1538461538461539
 40
0.1538461538461539
 40
0.2307692307692308
 40
0.2307692307692308
 40
0.2307692307692308
 40
0.3076923076923077
 40
0.3076923076923077
 40
0.3076923076923077
 40
0.3846153846153846
 40
0.3846153846153846
 40
0.3846153846153846
 40
0.4615384615384616
 40
0.4615384615384616
 40
0.4615384615384616
 40
0.5384615384615385
 40
0.5384615384615385
 40
0.5384615384615385
 40
0.6153846153846154
 40
0.6153846153846154
 40
0.6153846153846154
 40
0.6923076923076923
 40
0.6923076923076923
 40
0.6923076923076923
 40
0.7692307692307693
 40
0.7692307692307693
 40
0.7692307692307693
 40
0.8461538461538463
 40
0.8461538461538463
 40
0.8461538461538463
 40
0.9230769230769231
 40
0.9230769230769231
 40
0.9230769230769231
 40
1.0
 40
1.0
 40
1.0
 40
1.0
 10
19.6609
 20
37.3027
 30
0.0
 10
19.9008
 20
37.6707
 30
0.0
 10
20.1248
 20
38.0159
 30
0.0
 10
20.3496
 20
38.361
 30
0.0
 10
20.3693
 20
38.3511
 30
0.0
 10
20.3887
 20
38.3411
 30
0.0
 10
20.4088
 20
38.3314
 30
0.0
 10
20.3979
 20
38.2928
 30
0.0
 10
20.3954
 20
38.2492
 30
0.0
 10
20.375
 20
38.2166
 30
0.0
 10
20.2328
 20
37.9867
 30
0.0
 10
20.1111
 20
37.7379
 30
0.0
 10
19.9361
 20
37.5358
 30
0.0
 10
19.6648
 20
37.2222
 30
0.0
 10
19.6969
 20
36.8603
 30
0.0
 10
19.6983
 20
36.4965
 30
0.0
 10
19.6987
 20
36.3744
 30
0.0
 10
19.6726
 20
36.2613
 30
0.0
 10
19.5244
 20
36.2926
 30
0.0
 10
19.4567
 20
36.3069
 30
0.0
 10
19.3473
 20
36.4069
 30
0.0
 10
19.3544
 20
36.453
 30
0.0
 10
19.4394
 20
36.9976
 30
0.0
 10
19.2041
 20
37.4301
 30
0.0
 10
18.9007
 20
37.8446
 30
0.0
 10
18.8407
 20
37.9268
 30
0.0
 10
18.7889
 20
38.0168
 30
0.0
 10
18.7458
 20
38.1087
 30
0.0
 10
18.7102
 20
38.1846
 30
0.0
 10
18.6929
 20
38.2692
 30
0.0
 10
18.6672
 20
38.35
 30
0.0
 10
18.8136
 20
38.365
 30
0.0
 10
18.9607
 20
38.4132
 30
0.0
 10
19.0623
 20
38.236
 30
0.0
 10
19.2108
 20
37.9751
 30
0.0
 10
19.377
 20
37.7242
 30
0.0
 10
19.5371
 20
37.47
 30
0.0
 10
19.5678
 20
37.4209
 30
0.0
 10
19.6063
 20
37.3764
 30
0.0
 10
19.6609
 20
37.3027
 30
0.0
  0
SPLINE
  5
78
330
1F
100
AcDbEntity
  8
Layer 1
 62
   250
370
     9
100
AcDbSpline
210
0.0
220
0.0
230
1.0
 70
    11
 71
     3
 72
    41
 73
    37
 74
     0
 42
0.0000000001
 43
0.0000000001
 40
0.0
 40
0.0
 40
0.0
 40
0.0
 40
0.0833333333333333
 40
0.0833333333333333
 40
0.0833333333333333
 40
0.1666666666666667
 40
0.1666666666666667
 40
0.1666666666666667
 40
0.25
 40
0.25
 40
0.25
 40
0.3333333333333333
 40
0.3333333333333333
 40
0.3333333333333333
 40
0.4166666666666666
 40
0.4166666666666666
 40
0.4166666666666666
 40
0.5
 40
0.5
 40
0.5
 40
0.5833333333333333
 40
0.5833333333333333
 40
0.5833333333333333
 40
0.6666666666666666
 40
0.6666666666666666
 40
0.6666666666666666
 40
0.75
 40
0.75
 40
0.75
 40
0.8333333333333333
 40
0.8333333333333333
 40
0.8333333333333333
 40
0.9166666666666666
 40
0.9166666666666666
 40
0.9166666666666666
 40
1.0
 40
1.0
 40
1.0
 40
1.0
 10
-0.2811
 20
37.2028
 30
0.0
 10
-0.3052
 20
37.1628
 30
0.0
 10
-0.3308
 20
37.1239
 30
0.0
 10
-0.3532
 20
37.0831
 30
0.0
 10
-0.4576
 20
36.8923
 30
0.0
 10
-0.4521
 20
36.6747
 30
0.0
 10
-0.3012
 20
36.5486
 30
0.0
 10
-0.1708
 20
36.4396
 30
0.0
 10
0.0492
 20
36.3664
 30
0.0
 10
0.2146
 20
36.3889
 30
0.0
 10
0.405
 20
36.4148
 30
0.0
 10
0.5285
 20
36.5961
 30
0.0
 10
0.5281
 20
36.8195
 30
0.0
 10
0.527
 20
37.2595
 30
0.0
 10
0.5277
 20
37.6994
 30
0.0
 10
0.5313
 20
38.1392
 30
0.0
 10
0.5322
 20
38.2437
 30
0.0
 10
0.5103
 20
38.3602
 30
0.0
 10
0.6859
 20
38.3643
 30
0.0
 10
0.8474
 20
38.3682
 30
0.0
 10
0.8832
 20
38.2824
 30
0.0
 10
0.8824
 20
38.1544
 30
0.0
 10
0.8798
 20
37.7279
 30
0.0
 10
0.8915
 20
37.3003
 30
0.0
 10
0.8645
 20
36.8752
 30
0.0
 10
0.8355
 20
36.4217
 30
0.0
 10
0.3663
 20
36.1418
 30
0.0
 10
-0.0796
 20
36.2862
 30
0.0
 10
-0.4597
 20
36.409
 30
0.0
 10
-0.6201
 20
36.6981
 30
0.0
 10
-0.4917
 20
37.0518
 30
0.0
 10
-0.4641
 20
37.128
 30
0.0
 10
-0.3894
 20
37.187
 30
0.0
 10
-0.3362
 20
37.2542
 30
0.0
 10
-0.3179
 20
37.2369
 30
0.0
 10
-0.2994
 20
37.2198
 30
0.0
 10
-0.2811
 20
37.2028
 30
0.0
  0
SPLINE
  5
79
330
1F
100
AcDbEntity
  8
Layer 1
 62
   250
370
     9
100
AcDbSpline
210
0.0
220
0.0
230
1.0
 70
    11
 71
     3
 72
    32
 73
    28
 74
     0
 42
0.0000000001
 43
0.0000000001
 40
0.0
 40
0.0
 40
0.0
 40
0.0
 40
0.1111111111111111
 40
0.1111111111111111
 40
0.1111111111111111
 40
0.2222222222222222
 40
0.2222222222222222
 40
0.2222222222222222
 40
0.3333333333333333
 40
0.3333333333333333
 40
0.3333333333333333
 40
0.4444444444444444
 40
0.4444444444444444
 40
0.4444444444444444
 40
0.5555555555555556
 40
0.5555555555555556
 40
0.5555555555555556
 40
0.6666666666666666
 40
0.6666666666666666
 40
0.6666666666666666
 40
0.7777777777777777
 40
0.7777777777777777
 40
0.7777777777777777
 40
0.8888888888888888
 40
0.8888888888888888
 40
0.8888888888888888
 40
1.0
 40
1.0
 40
1.0
 40
1.0
 10
10.9248
 20
36.2909
 30
0.0
 10
10.5248
 20
36.2909
 30
0.0
 10
10.1251
 20
36.2864
 30
0.0
 10
9.7255
 20
36.2978
 30
0.0
 10
9.686
 20
36.2988
 30
0.0
 10
9.616
 20
36.3949
 30
0.0
 10
9.6153
 20
36.4476
 30
0.0
 10
9.6067
 20
37.0312
 30
0.0
 10
9.6036
 20
37.6149
 30
0.0
 10
9.6171
 20
38.1984
 30
0.0
 10
9.6185
 20
38.2587
 30
0.0
 10
9.7363
 20
38.3165
 30
0.0
 10
9.8
 20
38.3753
 30
0.0
 10
9.8575
 20
38.3106
 30
0.0
 10
9.9626
 20
38.2472
 30
0.0
 10
9.9646
 20
38.181
 30
0.0
 10
9.9788
 20
37.6699
 30
0.0
 10
9.9811
 20
37.158
 30
0.0
 10
9.9688
 20
36.647
 30
0.0
 10
9.9636
 20
36.4304
 30
0.0
 10
10.0266
 20
36.3393
 30
0.0
 10
10.2537
 20
36.3568
 30
0.0
 10
10.4766
 20
36.374
 30
0.0
 10
10.7019
 20
36.3606
 30
0.0
 10
10.9262
 20
36.3606
 30
0.0
 10
10.9258
 20
36.3373
 30
0.0
 10
10.9251
 20
36.314
 30
0.0
 10
10.9248
 20
36.2909
 30
0.0
  0
SPLINE
  5
7A
330
1F
100
AcDbEntity
  8
Layer 1
 62
   250
370
     9
100
AcDbSpline
210
0.0
220
0.0
230
1.0
 70
    11
 71
     3
 72
    32
 73
    28
 74
     0
 42
0.0000000001
 43
0.0000000001
 40
0.0
 40
0.0
 40
0.0
 40
0.0
 40
0.1111111111111111
 40
0.1111111111111111
 40
0.1111111111111111
 40
0.2222222222222222
 40
0.2222222222222222
 40
0.2222222222222222
 40
0.3333333333333333
 40
0.3333333333333333
 40
0.3333333333333333
 40
0.4444444444444444
 40
0.4444444444444444
 40
0.4444444444444444
 40
0.5555555555555556
 40
0.5555555555555556
 40
0.5555555555555556
 40
0.6666666666666666
 40
0.6666666666666666
 40
0.6666666666666666
 40
0.7777777777777777
 40
0.7777777777777777
 40
0.7777777777777777
 40
0.8888888888888888
 40
0.8888888888888888
 40
0.8888888888888888
 40
1.0
 40
1.0
 40
1.0
 40
1.0
 10
13.2069
 20
36.2905
 30
0.0
 10
12.7935
 20
36.2905
 30
0.0
 10
12.38
 20
36.2856
 30
0.0
 10
11.9669
 20
36.2983
 30
0.0
 10
11.9263
 20
36.2994
 30
0.0
 10
11.8557
 20
36.4064
 30
0.0
 10
11.855
 20
36.465
 30
0.0
 10
11.847
 20
37.0436
 30
0.0
 10
11.8456
 20
37.6224
 30
0.0
 10
11.8601
 20
38.2007
 30
0.0
 10
11.8615
 20
38.2603
 30
0.0
 10
11.9786
 20
38.3169
 30
0.0
 10
12.042
 20
38.3748
 30
0.0
 10
12.093
 20
38.3101
 30
0.0
 10
12.1871
 20
38.2466
 30
0.0
 10
12.1885
 20
38.1809
 30
0.0
 10
12.2009
 20
37.6392
 30
0.0
 10
12.2002
 20
37.097
 30
0.0
 10
12.194
 20
36.5551
 30
0.0
 10
12.1919
 20
36.3918
 30
0.0
 10
12.265
 20
36.3674
 30
0.0
 10
12.4062
 20
36.373
 30
0.0
 10
12.6732
 20
36.3838
 30
0.0
 10
12.9412
 20
36.3762
 30
0.0
 10
13.2089
 20
36.3762
 30
0.0
 10
13.2083
 20
36.3475
 30
0.0
 10
13.2075
 20
36.3192
 30
0.0
 10
13.2069
 20
36.2905
 30
0.0
  0
SPLINE
  5
7B
330
1F
100
AcDbEntity
  8
Layer 1
 62
   250
370
     9
100
AcDbSpline
210
0.0
220
0.0
230
1.0
 70
    11
 71
     3
 72
    17
 73
    13
 74
     0
 42
0.0000000001
 43
0.0000000001
 40
0.0
 40
0.0
 40
0.0
 40
0.0
 40
0.25
 40
0.25
 40
0.25
 40
0.5
 40
0.5
 40
0.5
 40
0.75
 40
0.75
 40
0.75
 40
1.0
 40
1.0
 40
1.0
 40
1.0
 10
-9.3961
 20
25.9071
 30
0.0
 10
-9.3961
 20
25.0067
 30
0.0
 10
-9.1189
 20
24.495
 30
0.0
 10
-8.6927
 20
24.495
 30
0.0
 10
-8.2131
 20
24.495
 30
0.0
 10
-7.9838
 20
25.0545
 30
0.0
 10
-7.9838
 20
25.9392
 30
0.0
 10
-7.9838
 20
26.7918
 30
0.0
 10
-8.2023
 20
27.3514
 30
0.0
 10
-8.6873
 20
27.3514
 30
0.0
 10
-9.0975
 20
27.3514
 30
0.0
 10
-9.3961
 20
26.8504
 30
0.0
 10
-9.3961
 20
25.9071
 30
0.0
  0
SPLINE
  5
7C
330
1F
100
AcDbEntity
  8
Layer 1
 62
   250
370
     9
100
AcDbSpline
210
0.0
220
0.0
230
1.0
 70
    11
 71
     3
 72
    17
 73
    13
 74
     0
 42
0.0000000001
 43
0.0000000001
 40
0.0
 40
0.0
 40
0.0
 40
0.0
 40
0.25
 40
0.25
 40
0.25
 40
0.5
 40
0.5
 40
0.5
 40
0.75
 40
0.75
 40
0.75
 40
1.0
 40
1.0
 40
1.0
 40
1.0
 10
-7.5148
 20
25.9606
 30
0.0
 10
-7.5148
 20
24.7826
 30
0.0
 10
-7.9519
 20
24.1326
 30
0.0
 10
-8.7192
 20
24.1326
 30
0.0
 10
-9.3961
 20
24.1326
 30
0.0
 10
-9.8543
 20
24.7669
 30
0.0
 10
-9.8649
 20
25.9124
 30
0.0
 10
-9.8649
 20
27.0743
 30
0.0
 10
-9.364
 20
27.7137
 30
0.0
 10
-8.6605
 20
27.7137
 30
0.0
 10
-7.9306
 20
27.7137
 30
0.0
 10
-7.5148
 20
27.0637
 30
0.0
 10
-7.5148
 20
25.9606
 30
0.0
  0
SPLINE
  5
7D
330
1F
100
AcDbEntity
  8
Layer 1
 62
   250
370
     9
100
AcDbSpline
210
0.0
220
0.0
230
1.0
 70
    11
 71
     3
 72
    20
 73
    16
 74
     0
 42
0.0000000001
 43
0.0000000001
 40
0.0
 40
0.0
 40
0.0
 40
0.0
 40
0.2
 40
0.2
 40
0.2
 40
0.4
 40
0.4
 40
0.4
 40
0.6000000000000001
 40
0.6000000000000001
 40
0.6000000000000001
 40
0.8
 40
0.8
 40
0.8
 40
1.0
 40
1.0
 40
1.0
 40
1.0
 10
-6.6403
 20
26.5146
 30
0.0
 10
-6.6403
 20
26.083
 30
0.0
 10
-6.3792
 20
25.7794
 30
0.0
 10
-5.9742
 20
25.7794
 30
0.0
 10
-5.6599
 20
25.7794
 30
0.0
 10
-5.4146
 20
25.9337
 30
0.0
 10
-5.2921
 20
26.1418
 30
0.0
 10
-5.2655
 20
26.1842
 30
0.0
 10
-5.2493
 20
26.2375
 30
0.0
 10
-5.2493
 20
26.3123
 30
0.0
 10
-5.2493
 20
26.9038
 30
0.0
 10
-5.468
 20
27.3565
 30
0.0
 10
-5.9582
 20
27.3565
 30
0.0
 10
-6.3578
 20
27.3565
 30
0.0
 10
-6.6403
 20
27.0051
 30
0.0
 10
-6.6403
 20
26.5146
 30
0.0
  0
SPLINE
  5
7E
330
1F
100
AcDbEntity
  8
Layer 1
 62
   250
370
     9
100
AcDbSpline
210
0.0
220
0.0
230
1.0
 70
    11
 71
     3
 72
    41
 73
    37
 74
     0
 42
0.0000000001
 43
0.0000000001
 40
0.0
 40
0.0
 40
0.0
 40
0.0
 40
0.0833333333333333
 40
0.0833333333333333
 40
0.0833333333333333
 40
0.1666666666666667
 40
0.1666666666666667
 40
0.1666666666666667
 40
0.25
 40
0.25
 40
0.25
 40
0.3333333333333333
 40
0.3333333333333333
 40
0.3333333333333333
 40
0.4166666666666666
 40
0.4166666666666666
 40
0.4166666666666666
 40
0.5
 40
0.5
 40
0.5
 40
0.5833333333333333
 40
0.5833333333333333
 40
0.5833333333333333
 40
0.6666666666666666
 40
0.6666666666666666
 40
0.6666666666666666
 40
0.75
 40
0.75
 40
0.75
 40
0.8333333333333333
 40
0.8333333333333333
 40
0.8333333333333333
 40
0.9166666666666666
 40
0.9166666666666666
 40
0.9166666666666666
 40
1.0
 40
1.0
 40
1.0
 40
1.0
 10
-6.8109
 20
24.5216
 30
0.0
 10
-6.7097
 20
24.5109
 30
0.0
 10
-6.5925
 20
24.5216
 30
0.0
 10
-6.4324
 20
24.5375
 30
0.0
 10
-6.1608
 20
24.5749
 30
0.0
 10
-5.905
 20
24.6868
 30
0.0
 10
-5.7078
 20
24.8733
 30
0.0
 10
-5.4786
 20
25.081
 30
0.0
 10
-5.3134
 20
25.3848
 30
0.0
 10
-5.2493
 20
25.7952
 30
0.0
 10
-5.2493
 20
25.7952
 30
0.0
 10
-5.2655
 20
25.7952
 30
0.0
 10
-5.2655
 20
25.7952
 30
0.0
 10
-5.4573
 20
25.5607
 30
0.0
 10
-5.7344
 20
25.422
 30
0.0
 10
-6.0808
 20
25.422
 30
0.0
 10
-6.7043
 20
25.422
 30
0.0
 10
-7.104
 20
25.8914
 30
0.0
 10
-7.104
 20
26.4828
 30
0.0
 10
-7.104
 20
27.1381
 30
0.0
 10
-6.6297
 20
27.7137
 30
0.0
 10
-5.9208
 20
27.7137
 30
0.0
 10
-5.2121
 20
27.7137
 30
0.0
 10
-4.7752
 20
27.1381
 30
0.0
 10
-4.7752
 20
26.2534
 30
0.0
 10
-4.7752
 20
25.4914
 30
0.0
 10
-5.0309
 20
24.9587
 30
0.0
 10
-5.372
 20
24.628
 30
0.0
 10
-5.6385
 20
24.3669
 30
0.0
 10
-6.0061
 20
24.207
 30
0.0
 10
-6.3792
 20
24.1647
 30
0.0
 10
-6.5498
 20
24.1379
 30
0.0
 10
-6.6989
 20
24.1326
 30
0.0
 10
-6.8109
 20
24.1379
 30
0.0
 10
-6.8109
 20
24.1379
 30
0.0
 10
-6.8109
 20
24.5216
 30
0.0
 10
-6.8109
 20
24.5216
 30
0.0
  0
SPLINE
  5
7F
330
1F
100
AcDbEntity
  8
Layer 1
 62
   250
370
     9
100
AcDbSpline
210
0.0
220
0.0
230
1.0
 70
    11
 71
     3
 72
    17
 73
    13
 74
     0
 42
0.0000000001
 43
0.0000000001
 40
0.0
 40
0.0
 40
0.0
 40
0.0
 40
0.25
 40
0.25
 40
0.25
 40
0.5
 40
0.5
 40
0.5
 40
0.75
 40
0.75
 40
0.75
 40
1.0
 40
1.0
 40
1.0
 40
1.0
 10
-3.9275
 20
25.9071
 30
0.0
 10
-3.9275
 20
25.0067
 30
0.0
 10
-3.6504
 20
24.495
 30
0.0
 10
-3.224
 20
24.495
 30
0.0
 10
-2.7445
 20
24.495
 30
0.0
 10
-2.5152
 20
25.0545
 30
0.0
 10
-2.5152
 20
25.9392
 30
0.0
 10
-2.5152
 20
26.7918
 30
0.0
 10
-2.7337
 20
27.3514
 30
0.0
 10
-3.2187
 20
27.3514
 30
0.0
 10
-3.629
 20
27.3514
 30
0.0
 10
-3.9275
 20
26.8504
 30
0.0
 10
-3.9275
 20
25.9071
 30
0.0
  0
SPLINE
  5
80
330
1F
100
AcDbEntity
  8
Layer 1
 62
   250
370
     9
100
AcDbSpline
210
0.0
220
0.0
230
1.0
 70
    11
 71
     3
 72
    17
 73
    13
 74
     0
 42
0.0000000001
 43
0.0000000001
 40
0.0
 40
0.0
 40
0.0
 40
0.0
 40
0.25
 40
0.25
 40
0.25
 40
0.5
 40
0.5
 40
0.5
 40
0.75
 40
0.75
 40
0.75
 40
1.0
 40
1.0
 40
1.0
 40
1.0
 10
-2.0464
 20
25.9606
 30
0.0
 10
-2.0464
 20
24.7826
 30
0.0
 10
-2.4833
 20
24.1326
 30
0.0
 10
-3.2508
 20
24.1326
 30
0.0
 10
-3.9275
 20
24.1326
 30
0.0
 10
-4.3857
 20
24.7669
 30
0.0
 10
-4.3963
 20
25.9124
 30
0.0
 10
-4.3963
 20
27.0743
 30
0.0
 10
-3.8954
 20
27.7137
 30
0.0
 10
-3.1919
 20
27.7137
 30
0.0
 10
-2.462
 20
27.7137
 30
0.0
 10
-2.0464
 20
27.0637
 30
0.0
 10
-2.0464
 20
25.9606
 30
0.0
  0
SPLINE
  5
81
330
1F
100
AcDbEntity
  8
Layer 1
 62
   250
370
     9
100
AcDbSpline
210
0.0
220
0.0
230
1.0
 70
    11
 71
     3
 72
    50
 73
    46
 74
     0
 42
0.0000000001
 43
0.0000000001
 40
0.0
 40
0.0
 40
0.0
 40
0.0
 40
0.0666666666666667
 40
0.0666666666666667
 40
0.0666666666666667
 40
0.1333333333333333
 40
0.1333333333333333
 40
0.1333333333333333
 40
0.2
 40
0.2
 40
0.2
 40
0.2666666666666667
 40
0.2666666666666667
 40
0.2666666666666667
 40
0.3333333333333333
 40
0.3333333333333333
 40
0.3333333333333333
 40
0.4
 40
0.4
 40
0.4
 40
0.4666666666666667
 40
0.4666666666666667
 40
0.4666666666666667
 40
0.5333333333333333
 40
0.5333333333333333
 40
0.5333333333333333
 40
0.6
 40
0.6
 40
0.6
 40
0.6666666666666666
 40
0.6666666666666666
 40
0.6666666666666666
 40
0.7333333333333333
 40
0.7333333333333333
 40
0.7333333333333333
 40
0.8
 40
0.8
 40
0.8
 40
0.8666666666666667
 40
0.8666666666666667
 40
0.8666666666666667
 40
0.9333333333333333
 40
0.9333333333333333
 40
0.9333333333333333
 40
1.0
 40
1.0
 40
1.0
 40
1.0
 10
0.4537
 20
27.2607
 30
0.0
 10
0.4537
 20
27.2607
 30
0.0
 10
-0.8681
 20
27.2607
 30
0.0
 10
-0.8681
 20
27.2607
 30
0.0
 10
-0.8681
 20
27.2607
 30
0.0
 10
-1.0012
 20
26.371
 30
0.0
 10
-1.0012
 20
26.371
 30
0.0
 10
-0.9213
 20
26.3816
 30
0.0
 10
-0.8468
 20
26.3922
 30
0.0
 10
-0.7187
 20
26.3922
 30
0.0
 10
-0.4523
 20
26.3922
 30
0.0
 10
-0.186
 20
26.3333
 30
0.0
 10
0.0273
 20
26.2054
 30
0.0
 10
0.2991
 20
26.0511
 30
0.0
 10
0.5229
 20
25.7525
 30
0.0
 10
0.5229
 20
25.3157
 30
0.0
 10
0.5229
 20
24.6386
 30
0.0
 10
-0.0154
 20
24.1326
 30
0.0
 10
-0.7669
 20
24.1326
 30
0.0
 10
-1.1451
 20
24.1326
 30
0.0
 10
-1.465
 20
24.2391
 30
0.0
 10
-1.6302
 20
24.3458
 30
0.0
 10
-1.6302
 20
24.3458
 30
0.0
 10
-1.5128
 20
24.7027
 30
0.0
 10
-1.5128
 20
24.7027
 30
0.0
 10
-1.3689
 20
24.6177
 30
0.0
 10
-1.0866
 20
24.5109
 30
0.0
 10
-0.7721
 20
24.5109
 30
0.0
 10
-0.3297
 20
24.5109
 30
0.0
 10
0.0487
 20
24.7985
 30
0.0
 10
0.0487
 20
25.2623
 30
0.0
 10
0.0433
 20
25.71
 30
0.0
 10
-0.2552
 20
26.0299
 30
0.0
 10
-0.9481
 20
26.0299
 30
0.0
 10
-1.1451
 20
26.0299
 30
0.0
 10
-1.2997
 20
26.0084
 30
0.0
 10
-1.4276
 20
25.9923
 30
0.0
 10
-1.4276
 20
25.9923
 30
0.0
 10
-1.2038
 20
27.6553
 30
0.0
 10
-1.2038
 20
27.6553
 30
0.0
 10
-1.2038
 20
27.6553
 30
0.0
 10
0.4537
 20
27.6553
 30
0.0
 10
0.4537
 20
27.6553
 30
0.0
 10
0.4537
 20
27.6553
 30
0.0
 10
0.4537
 20
27.2607
 30
0.0
 10
0.4537
 20
27.2607
 30
0.0
  0
SPLINE
  5
82
330
1F
100
AcDbEntity
  8
Layer 1
 62
   250
370
     9
100
AcDbSpline
210
0.0
220
0.0
230
1.0
 70
    11
 71
     3
 72
    50
 73
    46
 74
     0
 42
0.0000000001
 43
0.0000000001
 40
0.0
 40
0.0
 40
0.0
 40
0.0
 40
0.0666666666666667
 40
0.0666666666666667
 40
0.0666666666666667
 40
0.1333333333333333
 40
0.1333333333333333
 40
0.1333333333333333
 40
0.2
 40
0.2
 40
0.2
 40
0.2666666666666667
 40
0.2666666666666667
 40
0.2666666666666667
 40
0.3333333333333333
 40
0.3333333333333333
 40
0.3333333333333333
 40
0.4
 40
0.4
 40
0.4
 40
0.4666666666666667
 40
0.4666666666666667
 40
0.4666666666666667
 40
0.5333333333333333
 40
0.5333333333333333
 40
0.5333333333333333
 40
0.6
 40
0.6
 40
0.6
 40
0.6666666666666666
 40
0.6666666666666666
 40
0.6666666666666666
 40
0.7333333333333333
 40
0.7333333333333333
 40
0.7333333333333333
 40
0.8
 40
0.8
 40
0.8
 40
0.8666666666666667
 40
0.8666666666666667
 40
0.8666666666666667
 40
0.9333333333333333
 40
0.9333333333333333
 40
0.9333333333333333
 40
1.0
 40
1.0
 40
1.0
 40
1.0
 10
3.1878
 20
27.2607
 30
0.0
 10
3.1878
 20
27.2607
 30
0.0
 10
1.8662
 20
27.2607
 30
0.0
 10
1.8662
 20
27.2607
 30
0.0
 10
1.8662
 20
27.2607
 30
0.0
 10
1.7329
 20
26.371
 30
0.0
 10
1.7329
 20
26.371
 30
0.0
 10
1.8128
 20
26.3816
 30
0.0
 10
1.8875
 20
26.3922
 30
0.0
 10
2.0154
 20
26.3922
 30
0.0
 10
2.2818
 20
26.3922
 30
0.0
 10
2.5484
 20
26.3333
 30
0.0
 10
2.7613
 20
26.2054
 30
0.0
 10
3.0331
 20
26.0511
 30
0.0
 10
3.257
 20
25.7525
 30
0.0
 10
3.257
 20
25.3157
 30
0.0
 10
3.257
 20
24.6386
 30
0.0
 10
2.7189
 20
24.1326
 30
0.0
 10
1.9674
 20
24.1326
 30
0.0
 10
1.5892
 20
24.1326
 30
0.0
 10
1.2692
 20
24.2391
 30
0.0
 10
1.1041
 20
24.3458
 30
0.0
 10
1.1041
 20
24.3458
 30
0.0
 10
1.2214
 20
24.7027
 30
0.0
 10
1.2214
 20
24.7027
 30
0.0
 10
1.3653
 20
24.6177
 30
0.0
 10
1.6478
 20
24.5109
 30
0.0
 10
1.9621
 20
24.5109
 30
0.0
 10
2.4044
 20
24.5109
 30
0.0
 10
2.7827
 20
24.7985
 30
0.0
 10
2.7827
 20
25.2623
 30
0.0
 10
2.7775
 20
25.71
 30
0.0
 10
2.4791
 20
26.0299
 30
0.0
 10
1.7862
 20
26.0299
 30
0.0
 10
1.5892
 20
26.0299
 30
0.0
 10
1.4346
 20
26.0084
 30
0.0
 10
1.3067
 20
25.9923
 30
0.0
 10
1.3067
 20
25.9923
 30
0.0
 10
1.5304
 20
27.6553
 30
0.0
 10
1.5304
 20
27.6553
 30
0.0
 10
1.5304
 20
27.6553
 30
0.0
 10
3.1878
 20
27.6553
 30
0.0
 10
3.1878
 20
27.6553
 30
0.0
 10
3.1878
 20
27.6553
 30
0.0
 10
3.1878
 20
27.2607
 30
0.0
 10
3.1878
 20
27.2607
 30
0.0
  0
SPLINE
  5
83
330
1F
100
AcDbEntity
  8
Layer 1
 62
   250
370
     9
100
AcDbSpline
210
0.0
220
0.0
230
1.0
 70
    11
 71
     3
 72
    20
 73
    16
 74
     0
 42
0.0000000001
 43
0.0000000001
 40
0.0
 40
0.0
 40
0.0
 40
0.0
 40
0.2
 40
0.2
 40
0.2
 40
0.4
 40
0.4
 40
0.4
 40
0.6000000000000001
 40
0.6000000000000001
 40
0.6000000000000001
 40
0.8
 40
0.8
 40
0.8
 40
1.0
 40
1.0
 40
1.0
 40
1.0
 10
5.6982
 20
25.3263
 30
0.0
 10
5.6982
 20
25.8217
 30
0.0
 10
5.4157
 20
26.1204
 30
0.0
 10
4.9841
 20
26.1204
 30
0.0
 10
4.7019
 20
26.1204
 30
0.0
 10
4.4408
 20
25.9445
 30
0.0
 10
4.3126
 20
25.6939
 30
0.0
 10
4.2809
 20
25.6409
 30
0.0
 10
4.2595
 20
25.5713
 30
0.0
 10
4.2595
 20
25.4861
 30
0.0
 10
4.2703
 20
24.916
 30
0.0
 10
4.5314
 20
24.495
 30
0.0
 10
5.0216
 20
24.495
 30
0.0
 10
5.4265
 20
24.495
 30
0.0
 10
5.6982
 20
24.8306
 30
0.0
 10
5.6982
 20
25.3263
 30
0.0
  0
SPLINE
  5
84
330
1F
100
AcDbEntity
  8
Layer 1
 62
   250
370
     9
100
AcDbSpline
210
0.0
220
0.0
230
1.0
 70
    11
 71
     3
 72
    38
 73
    34
 74
     0
 42
0.0000000001
 43
0.0000000001
 40
0.0
 40
0.0
 40
0.0
 40
0.0
 40
0.0909090909090909
 40
0.0909090909090909
 40
0.0909090909090909
 40
0.1818181818181818
 40
0.1818181818181818
 40
0.1818181818181818
 40
0.2727272727272727
 40
0.2727272727272727
 40
0.2727272727272727
 40
0.3636363636363636
 40
0.3636363636363636
 40
0.3636363636363636
 40
0.4545454545454546
 40
0.4545454545454546
 40
0.4545454545454546
 40
0.5454545454545454
 40
0.5454545454545454
 40
0.5454545454545454
 40
0.6363636363636364
 40
0.6363636363636364
 40
0.6363636363636364
 40
0.7272727272727273
 40
0.7272727272727273
 40
0.7272727272727273
 40
0.8181818181818182
 40
0.8181818181818182
 40
0.8181818181818182
 40
0.9090909090909092
 40
0.9090909090909092
 40
0.9090909090909092
 40
1.0
 40
1.0
 40
1.0
 40
1.0
 10
5.8316
 20
27.3248
 30
0.0
 10
5.7359
 20
27.3299
 30
0.0
 10
5.6132
 20
27.3248
 30
0.0
 10
5.4798
 20
27.3035
 30
0.0
 10
4.7443
 20
27.1808
 30
0.0
 10
4.3553
 20
26.6427
 30
0.0
 10
4.2754
 20
26.0722
 30
0.0
 10
4.2754
 20
26.0722
 30
0.0
 10
4.2917
 20
26.0722
 30
0.0
 10
4.2917
 20
26.0722
 30
0.0
 10
4.4566
 20
26.2909
 30
0.0
 10
4.7443
 20
26.4723
 30
0.0
 10
5.1281
 20
26.4723
 30
0.0
 10
5.7409
 20
26.4723
 30
0.0
 10
6.1727
 20
26.0299
 30
0.0
 10
6.1727
 20
25.3529
 30
0.0
 10
6.1727
 20
24.7187
 30
0.0
 10
5.7409
 20
24.1326
 30
0.0
 10
5.0216
 20
24.1326
 30
0.0
 10
4.2809
 20
24.1326
 30
0.0
 10
3.7958
 20
24.7079
 30
0.0
 10
3.7958
 20
25.6088
 30
0.0
 10
3.7958
 20
26.2909
 30
0.0
 10
4.0411
 20
26.8292
 30
0.0
 10
4.3822
 20
27.1702
 30
0.0
 10
4.6699
 20
27.4527
 30
0.0
 10
5.0537
 20
27.6283
 30
0.0
 10
5.4905
 20
27.6818
 30
0.0
 10
5.629
 20
27.7031
 30
0.0
 10
5.7464
 20
27.7084
 30
0.0
 10
5.8316
 20
27.7084
 30
0.0
 10
5.8316
 20
27.7084
 30
0.0
 10
5.8316
 20
27.3248
 30
0.0
 10
5.8316
 20
27.3248
 30
0.0
  0
SPLINE
  5
85
330
1F
100
AcDbEntity
  8
Layer 1
 62
   250
370
     9
100
AcDbSpline
210
0.0
220
0.0
230
1.0
 70
    11
 71
     3
 72
    47
 73
    43
 74
     0
 42
0.0000000001
 43
0.0000000001
 40
0.0
 40
0.0
 40
0.0
 40
0.0
 40
0.0714285714285714
 40
0.0714285714285714
 40
0.0714285714285714
 40
0.1428571428571428
 40
0.1428571428571428
 40
0.1428571428571428
 40
0.2142857142857143
 40
0.2142857142857143
 40
0.2142857142857143
 40
0.2857142857142857
 40
0.2857142857142857
 40
0.2857142857142857
 40
0.3571428571428571
 40
0.3571428571428571
 40
0.3571428571428571
 40
0.4285714285714285
 40
0.4285714285714285
 40
0.4285714285714285
 40
0.5
 40
0.5
 40
0.5
 40
0.5714285714285714
 40
0.5714285714285714
 40
0.5714285714285714
 40
0.6428571428571428
 40
0.6428571428571428
 40
0.6428571428571428
 40
0.7142857142857142
 40
0.7142857142857142
 40
0.7142857142857142
 40
0.7857142857142857
 40
0.7857142857142857
 40
0.7857142857142857
 40
0.8571428571428571
 40
0.8571428571428571
 40
0.8571428571428571
 40
0.9285714285714285
 40
0.9285714285714285
 40
0.9285714285714285
 40
1.0
 40
1.0
 40
1.0
 40
1.0
 10
6.5888
 20
24.1912
 30
0.0
 10
6.5888
 20
24.1912
 30
0.0
 10
6.5888
 20
24.4789
 30
0.0
 10
6.5888
 20
24.4789
 30
0.0
 10
6.5888
 20
24.4789
 30
0.0
 10
6.9564
 20
24.8361
 30
0.0
 10
6.9564
 20
24.8361
 30
0.0
 10
7.8411
 20
25.6781
 30
0.0
 10
8.2407
 20
26.1255
 30
0.0
 10
8.2462
 20
26.6478
 30
0.0
 10
8.2462
 20
26.9996
 30
0.0
 10
8.0758
 20
27.3248
 30
0.0
 10
7.5586
 20
27.3248
 30
0.0
 10
7.2444
 20
27.3248
 30
0.0
 10
6.9832
 20
27.165
 30
0.0
 10
6.8234
 20
27.0316
 30
0.0
 10
6.8234
 20
27.0316
 30
0.0
 10
6.6743
 20
27.362
 30
0.0
 10
6.6743
 20
27.362
 30
0.0
 10
6.9141
 20
27.5646
 30
0.0
 10
7.2551
 20
27.7137
 30
0.0
 10
7.6548
 20
27.7137
 30
0.0
 10
8.4006
 20
27.7137
 30
0.0
 10
8.7152
 20
27.2022
 30
0.0
 10
8.7152
 20
26.7064
 30
0.0
 10
8.7152
 20
26.0669
 30
0.0
 10
8.2514
 20
25.5503
 30
0.0
 10
7.5214
 20
24.8467
 30
0.0
 10
7.5214
 20
24.8467
 30
0.0
 10
7.2444
 20
24.5908
 30
0.0
 10
7.2444
 20
24.5908
 30
0.0
 10
7.2444
 20
24.5908
 30
0.0
 10
7.2444
 20
24.5802
 30
0.0
 10
7.2444
 20
24.5802
 30
0.0
 10
7.2444
 20
24.5802
 30
0.0
 10
8.8006
 20
24.5802
 30
0.0
 10
8.8006
 20
24.5802
 30
0.0
 10
8.8006
 20
24.5802
 30
0.0
 10
8.8006
 20
24.1912
 30
0.0
 10
8.8006
 20
24.1912
 30
0.0
 10
8.8006
 20
24.1912
 30
0.0
 10
6.5888
 20
24.1912
 30
0.0
 10
6.5888
 20
24.1912
 30
0.0
  0
SPLINE
  5
86
330
1F
100
AcDbEntity
  8
Layer 1
 62
   250
370
     9
100
AcDbSpline
210
0.0
220
0.0
230
1.0
 70
    11
 71
     3
 72
    17
 73
    13
 74
     0
 42
0.0000000001
 43
0.0000000001
 40
0.0
 40
0.0
 40
0.0
 40
0.0
 40
0.25
 40
0.25
 40
0.25
 40
0.5
 40
0.5
 40
0.5
 40
0.75
 40
0.75
 40
0.75
 40
1.0
 40
1.0
 40
1.0
 40
1.0
 10
9.8562
 20
26.8239
 30
0.0
 10
9.8562
 20
26.4773
 30
0.0
 10
10.1173
 20
26.2909
 30
0.0
 10
10.5169
 20
26.1842
 30
0.0
 10
10.8153
 20
26.2855
 30
0.0
 10
11.0443
 20
26.4987
 30
0.0
 10
11.0443
 20
26.8133
 30
0.0
 10
11.0443
 20
27.0901
 30
0.0
 10
10.8794
 20
27.3779
 30
0.0
 10
10.4584
 20
27.3779
 30
0.0
 10
10.0693
 20
27.3779
 30
0.0
 10
9.8562
 20
27.1222
 30
0.0
 10
9.8562
 20
26.8239
 30
0.0
  0
SPLINE
  5
87
330
1F
100
AcDbEntity
  8
Layer 1
 62
   250
370
     9
100
AcDbSpline
210
0.0
220
0.0
230
1.0
 70
    11
 71
     3
 72
    17
 73
    13
 74
     0
 42
0.0000000001
 43
0.0000000001
 40
0.0
 40
0.0
 40
0.0
 40
0.0
 40
0.25
 40
0.25
 40
0.25
 40
0.5
 40
0.5
 40
0.5
 40
0.75
 40
0.75
 40
0.75
 40
1.0
 40
1.0
 40
1.0
 40
1.0
 10
11.1456
 20
25.0917
 30
0.0
 10
11.1456
 20
25.5127
 30
0.0
 10
10.8528
 20
25.7153
 30
0.0
 10
10.3836
 20
25.8487
 30
0.0
 10
9.9788
 20
25.7311
 30
0.0
 10
9.7604
 20
25.4648
 30
0.0
 10
9.7604
 20
25.1344
 30
0.0
 10
9.7441
 20
24.7826
 30
0.0
 10
10.0108
 20
24.4737
 30
0.0
 10
10.4528
 20
24.4737
 30
0.0
 10
10.8741
 20
24.4737
 30
0.0
 10
11.1456
 20
24.7348
 30
0.0
 10
11.1456
 20
25.0917
 30
0.0
  0
SPLINE
  5
88
330
1F
100
AcDbEntity
  8
Layer 1
 62
   250
370
     9
100
AcDbSpline
210
0.0
220
0.0
230
1.0
 70
    11
 71
     3
 72
    35
 73
    31
 74
     0
 42
0.0000000001
 43
0.0000000001
 40
0.0
 40
0.0
 40
0.0
 40
0.0
 40
0.1
 40
0.1
 40
0.1
 40
0.2
 40
0.2
 40
0.2
 40
0.3
 40
0.3
 40
0.3
 40
0.4
 40
0.4
 40
0.4
 40
0.5
 40
0.5
 40
0.5
 40
0.6000000000000001
 40
0.6000000000000001
 40
0.6000000000000001
 40
0.7000000000000001
 40
0.7000000000000001
 40
0.7000000000000001
 40
0.8
 40
0.8
 40
0.8
 40
0.9
 40
0.9
 40
0.9
 40
1.0
 40
1.0
 40
1.0
 40
1.0
 10
9.2804
 20
25.0703
 30
0.0
 10
9.2804
 20
25.5076
 30
0.0
 10
9.5415
 20
25.8166
 30
0.0
 10
9.9681
 20
25.9978
 30
0.0
 10
9.9681
 20
25.9978
 30
0.0
 10
9.9626
 20
26.0136
 30
0.0
 10
9.9626
 20
26.0136
 30
0.0
 10
9.5792
 20
26.1948
 30
0.0
 10
9.4138
 20
26.4932
 30
0.0
 10
9.4138
 20
26.7918
 30
0.0
 10
9.4138
 20
27.3407
 30
0.0
 10
9.8775
 20
27.7137
 30
0.0
 10
10.4848
 20
27.7137
 30
0.0
 10
11.1564
 20
27.7137
 30
0.0
 10
11.4922
 20
27.2927
 30
0.0
 10
11.4922
 20
26.8611
 30
0.0
 10
11.4922
 20
26.568
 30
0.0
 10
11.3482
 20
26.2534
 30
0.0
 10
10.9221
 20
26.0511
 30
0.0
 10
10.9221
 20
26.0511
 30
0.0
 10
10.9221
 20
26.035
 30
0.0
 10
10.9221
 20
26.035
 30
0.0
 10
11.3537
 20
25.8644
 30
0.0
 10
11.62
 20
25.5607
 30
0.0
 10
11.62
 20
25.1395
 30
0.0
 10
11.62
 20
24.5375
 30
0.0
 10
11.1033
 20
24.1326
 30
0.0
 10
10.4425
 20
24.1326
 30
0.0
 10
9.7177
 20
24.1326
 30
0.0
 10
9.2804
 20
24.5644
 30
0.0
 10
9.2804
 20
25.0703
 30
0.0
  0
SPLINE
  5
89
330
1F
100
AcDbEntity
  8
Layer 1
 62
   250
370
     9
100
AcDbSpline
210
0.0
220
0.0
230
1.0
 70
    11
 71
     3
 72
    17
 73
    13
 74
     0
 42
0.0000000001
 43
0.0000000001
 40
0.0
 40
0.0
 40
0.0
 40
0.0
 40
0.25
 40
0.25
 40
0.25
 40
0.5
 40
0.5
 40
0.5
 40
0.75
 40
0.75
 40
0.75
 40
1.0
 40
1.0
 40
1.0
 40
1.0
 10
12.5902
 20
26.8239
 30
0.0
 10
12.5902
 20
26.4773
 30
0.0
 10
12.8513
 20
26.2909
 30
0.0
 10
13.251
 20
26.1842
 30
0.0
 10
13.5493
 20
26.2855
 30
0.0
 10
13.7783
 20
26.4987
 30
0.0
 10
13.7783
 20
26.8133
 30
0.0
 10
13.7783
 20
27.0901
 30
0.0
 10
13.6134
 20
27.3779
 30
0.0
 10
13.1924
 20
27.3779
 30
0.0
 10
12.8034
 20
27.3779
 30
0.0
 10
12.5902
 20
27.1222
 30
0.0
 10
12.5902
 20
26.8239
 30
0.0
  0
SPLINE
  5
8A
330
1F
100
AcDbEntity
  8
Layer 1
 62
   250
370
     9
100
AcDbSpline
210
0.0
220
0.0
230
1.0
 70
    11
 71
     3
 72
    17
 73
    13
 74
     0
 42
0.0000000001
 43
0.0000000001
 40
0.0
 40
0.0
 40
0.0
 40
0.0
 40
0.25
 40
0.25
 40
0.25
 40
0.5
 40
0.5
 40
0.5
 40
0.75
 40
0.75
 40
0.75
 40
1.0
 40
1.0
 40
1.0
 40
1.0
 10
13.8796
 20
25.0917
 30
0.0
 10
13.8796
 20
25.5127
 30
0.0
 10
13.5868
 20
25.7153
 30
0.0
 10
13.1176
 20
25.8487
 30
0.0
 10
12.7128
 20
25.7311
 30
0.0
 10
12.4944
 20
25.4648
 30
0.0
 10
12.4944
 20
25.1344
 30
0.0
 10
12.4782
 20
24.7826
 30
0.0
 10
12.7448
 20
24.4737
 30
0.0
 10
13.1869
 20
24.4737
 30
0.0
 10
13.6082
 20
24.4737
 30
0.0
 10
13.8796
 20
24.7348
 30
0.0
 10
13.8796
 20
25.0917
 30
0.0
  0
SPLINE
  5
8B
330
1F
100
AcDbEntity
  8
Layer 1
 62
   250
370
     9
100
AcDbSpline
210
0.0
220
0.0
230
1.0
 70
    11
 71
     3
 72
    35
 73
    31
 74
     0
 42
0.0000000001
 43
0.0000000001
 40
0.0
 40
0.0
 40
0.0
 40
0.0
 40
0.1
 40
0.1
 40
0.1
 40
0.2
 40
0.2
 40
0.2
 40
0.3
 40
0.3
 40
0.3
 40
0.4
 40
0.4
 40
0.4
 40
0.5
 40
0.5
 40
0.5
 40
0.6000000000000001
 40
0.6000000000000001
 40
0.6000000000000001
 40
0.7000000000000001
 40
0.7000000000000001
 40
0.7000000000000001
 40
0.8
 40
0.8
 40
0.8
 40
0.9
 40
0.9
 40
0.9
 40
1.0
 40
1.0
 40
1.0
 40
1.0
 10
12.0145
 20
25.0703
 30
0.0
 10
12.0145
 20
25.5076
 30
0.0
 10
12.2756
 20
25.8166
 30
0.0
 10
12.7021
 20
25.9978
 30
0.0
 10
12.7021
 20
25.9978
 30
0.0
 10
12.6966
 20
26.0136
 30
0.0
 10
12.6966
 20
26.0136
 30
0.0
 10
12.3132
 20
26.1948
 30
0.0
 10
12.1478
 20
26.4932
 30
0.0
 10
12.1478
 20
26.7918
 30
0.0
 10
12.1478
 20
27.3407
 30
0.0
 10
12.6116
 20
27.7137
 30
0.0
 10
13.2189
 20
27.7137
 30
0.0
 10
13.8904
 20
27.7137
 30
0.0
 10
14.2262
 20
27.2927
 30
0.0
 10
14.2262
 20
26.8611
 30
0.0
 10
14.2262
 20
26.568
 30
0.0
 10
14.0822
 20
26.2534
 30
0.0
 10
13.6561
 20
26.0511
 30
0.0
 10
13.6561
 20
26.0511
 30
0.0
 10
13.6561
 20
26.035
 30
0.0
 10
13.6561
 20
26.035
 30
0.0
 10
14.0877
 20
25.8644
 30
0.0
 10
14.3541
 20
25.5607
 30
0.0
 10
14.3541
 20
25.1395
 30
0.0
 10
14.3541
 20
24.5375
 30
0.0
 10
13.8373
 20
24.1326
 30
0.0
 10
13.1765
 20
24.1326
 30
0.0
 10
12.4517
 20
24.1326
 30
0.0
 10
12.0145
 20
24.5644
 30
0.0
 10
12.0145
 20
25.0703
 30
0.0
  0
SPLINE
  5
8C
330
1F
100
AcDbEntity
  8
Layer 1
 62
   250
370
     9
100
AcDbSpline
210
0.0
220
0.0
230
1.0
 70
    11
 71
     3
 72
    20
 73
    16
 74
     0
 42
0.0000000001
 43
0.0000000001
 40
0.0
 40
0.0
 40
0.0
 40
0.0
 40
0.2
 40
0.2
 40
0.2
 40
0.4
 40
0.4
 40
0.4
 40
0.6000000000000001
 40
0.6000000000000001
 40
0.6000000000000001
 40
0.8
 40
0.8
 40
0.8
 40
1.0
 40
1.0
 40
1.0
 40
1.0
 10
16.6355
 20
25.3263
 30
0.0
 10
16.6355
 20
25.8217
 30
0.0
 10
16.3529
 20
26.1204
 30
0.0
 10
15.9211
 20
26.1204
 30
0.0
 10
15.6389
 20
26.1204
 30
0.0
 10
15.3779
 20
25.9445
 30
0.0
 10
15.2498
 20
25.6939
 30
0.0
 10
15.2181
 20
25.6409
 30
0.0
 10
15.1969
 20
25.5713
 30
0.0
 10
15.1969
 20
25.4861
 30
0.0
 10
15.2075
 20
24.916
 30
0.0
 10
15.4685
 20
24.495
 30
0.0
 10
15.9589
 20
24.495
 30
0.0
 10
16.3635
 20
24.495
 30
0.0
 10
16.6355
 20
24.8306
 30
0.0
 10
16.6355
 20
25.3263
 30
0.0
  0
SPLINE
  5
8D
330
1F
100
AcDbEntity
  8
Layer 1
 62
   250
370
     9
100
AcDbSpline
210
0.0
220
0.0
230
1.0
 70
    11
 71
     3
 72
    38
 73
    34
 74
     0
 42
0.0000000001
 43
0.0000000001
 40
0.0
 40
0.0
 40
0.0
 40
0.0
 40
0.0909090909090909
 40
0.0909090909090909
 40
0.0909090909090909
 40
0.1818181818181818
 40
0.1818181818181818
 40
0.1818181818181818
 40
0.2727272727272727
 40
0.2727272727272727
 40
0.2727272727272727
 40
0.3636363636363636
 40
0.3636363636363636
 40
0.3636363636363636
 40
0.4545454545454546
 40
0.4545454545454546
 40
0.4545454545454546
 40
0.5454545454545454
 40
0.5454545454545454
 40
0.5454545454545454
 40
0.6363636363636364
 40
0.6363636363636364
 40
0.6363636363636364
 40
0.7272727272727273
 40
0.7272727272727273
 40
0.7272727272727273
 40
0.8181818181818182
 40
0.8181818181818182
 40
0.8181818181818182
 40
0.9090909090909092
 40
0.9090909090909092
 40
0.9090909090909092
 40
1.0
 40
1.0
 40
1.0
 40
1.0
 10
16.7689
 20
27.3248
 30
0.0
 10
16.6729
 20
27.3299
 30
0.0
 10
16.5502
 20
27.3248
 30
0.0
 10
16.4172
 20
27.3035
 30
0.0
 10
15.6816
 20
27.1808
 30
0.0
 10
15.2925
 20
26.6427
 30
0.0
 10
15.2124
 20
26.0722
 30
0.0
 10
15.2124
 20
26.0722
 30
0.0
 10
15.2286
 20
26.0722
 30
0.0
 10
15.2286
 20
26.0722
 30
0.0
 10
15.3937
 20
26.2909
 30
0.0
 10
15.6816
 20
26.4723
 30
0.0
 10
16.0651
 20
26.4723
 30
0.0
 10
16.6782
 20
26.4723
 30
0.0
 10
17.1097
 20
26.0299
 30
0.0
 10
17.1097
 20
25.3529
 30
0.0
 10
17.1097
 20
24.7187
 30
0.0
 10
16.6782
 20
24.1326
 30
0.0
 10
15.9589
 20
24.1326
 30
0.0
 10
15.2181
 20
24.1326
 30
0.0
 10
14.7331
 20
24.7079
 30
0.0
 10
14.7331
 20
25.6088
 30
0.0
 10
14.7331
 20
26.2909
 30
0.0
 10
14.9779
 20
26.8292
 30
0.0
 10
15.319
 20
27.1702
 30
0.0
 10
15.6072
 20
27.4527
 30
0.0
 10
15.991
 20
27.6283
 30
0.0
 10
16.4277
 20
27.6818
 30
0.0
 10
16.566
 20
27.7031
 30
0.0
 10
16.6831
 20
27.7084
 30
0.0
 10
16.7689
 20
27.7084
 30
0.0
 10
16.7689
 20
27.7084
 30
0.0
 10
16.7689
 20
27.3248
 30
0.0
 10
16.7689
 20
27.3248
 30
0.0
  0
SPLINE
  5
8E
330
1F
100
AcDbEntity
  8
Layer 1
 62
   250
370
     9
100
AcDbSpline
210
0.0
220
0.0
230
1.0
 70
    11
 71
     3
 72
    20
 73
    16
 74
     0
 42
0.0000000001
 43
0.0000000001
 40
0.0
 40
0.0
 40
0.0
 40
0.0
 40
0.2
 40
0.2
 40
0.2
 40
0.4
 40
0.4
 40
0.4
 40
0.6000000000000001
 40
0.6000000000000001
 40
0.6000000000000001
 40
0.8
 40
0.8
 40
0.8
 40
1.0
 40
1.0
 40
1.0
 40
1.0
 10
19.3699
 20
25.3263
 30
0.0
 10
19.3699
 20
25.8217
 30
0.0
 10
19.0873
 20
26.1204
 30
0.0
 10
18.6555
 20
26.1204
 30
0.0
 10
18.3733
 20
26.1204
 30
0.0
 10
18.1123
 20
25.9445
 30
0.0
 10
17.9842
 20
25.6939
 30
0.0
 10
17.9524
 20
25.6409
 30
0.0
 10
17.9313
 20
25.5713
 30
0.0
 10
17.9313
 20
25.4861
 30
0.0
 10
17.9419
 20
24.916
 30
0.0
 10
18.2029
 20
24.495
 30
0.0
 10
18.6933
 20
24.495
 30
0.0
 10
19.0979
 20
24.495
 30
0.0
 10
19.3699
 20
24.8306
 30
0.0
 10
19.3699
 20
25.3263
 30
0.0
  0
SPLINE
  5
8F
330
1F
100
AcDbEntity
  8
Layer 1
 62
   250
370
     9
100
AcDbSpline
210
0.0
220
0.0
230
1.0
 70
    11
 71
     3
 72
    38
 73
    34
 74
     0
 42
0.0000000001
 43
0.0000000001
 40
0.0
 40
0.0
 40
0.0
 40
0.0
 40
0.0909090909090909
 40
0.0909090909090909
 40
0.0909090909090909
 40
0.1818181818181818
 40
0.1818181818181818
 40
0.1818181818181818
 40
0.2727272727272727
 40
0.2727272727272727
 40
0.2727272727272727
 40
0.3636363636363636
 40
0.3636363636363636
 40
0.3636363636363636
 40
0.4545454545454546
 40
0.4545454545454546
 40
0.4545454545454546
 40
0.5454545454545454
 40
0.5454545454545454
 40
0.5454545454545454
 40
0.6363636363636364
 40
0.6363636363636364
 40
0.6363636363636364
 40
0.7272727272727273
 40
0.7272727272727273
 40
0.7272727272727273
 40
0.8181818181818182
 40
0.8181818181818182
 40
0.8181818181818182
 40
0.9090909090909092
 40
0.9090909090909092
 40
0.9090909090909092
 40
1.0
 40
1.0
 40
1.0
 40
1.0
 10
19.5033
 20
27.3248
 30
0.0
 10
19.4073
 20
27.3299
 30
0.0
 10
19.2845
 20
27.3248
 30
0.0
 10
19.1515
 20
27.3035
 30
0.0
 10
18.416
 20
27.1808
 30
0.0
 10
18.0269
 20
26.6427
 30
0.0
 10
17.9468
 20
26.0722
 30
0.0
 10
17.9468
 20
26.0722
 30
0.0
 10
17.963
 20
26.0722
 30
0.0
 10
17.963
 20
26.0722
 30
0.0
 10
18.1281
 20
26.2909
 30
0.0
 10
18.416
 20
26.4723
 30
0.0
 10
18.7995
 20
26.4723
 30
0.0
 10
19.4126
 20
26.4723
 30
0.0
 10
19.844
 20
26.0299
 30
0.0
 10
19.844
 20
25.3529
 30
0.0
 10
19.844
 20
24.7187
 30
0.0
 10
19.4126
 20
24.1326
 30
0.0
 10
18.6933
 20
24.1326
 30
0.0
 10
17.9524
 20
24.1326
 30
0.0
 10
17.4674
 20
24.7079
 30
0.0
 10
17.4674
 20
25.6088
 30
0.0
 10
17.4674
 20
26.2909
 30
0.0
 10
17.7126
 20
26.8292
 30
0.0
 10
18.0537
 20
27.1702
 30
0.0
 10
18.3416
 20
27.4527
 30
0.0
 10
18.7254
 20
27.6283
 30
0.0
 10
19.1621
 20
27.6818
 30
0.0
 10
19.3004
 20
27.7031
 30
0.0
 10
19.4179
 20
27.7084
 30
0.0
 10
19.5033
 20
27.7084
 30
0.0
 10
19.5033
 20
27.7084
 30
0.0
 10
19.5033
 20
27.3248
 30
0.0
 10
19.5033
 20
27.3248
 30
0.0
  0
SPLINE
  5
90
330
1F
100
AcDbEntity
  8
Layer 1
 62
   250
370
     9
100
AcDbSpline
210
0.0
220
0.0
230
1.0
 70
    11
 71
     3
 72
    17
 73
    13
 74
     0
 42
0.0000000001
 43
0.0000000001
 40
0.0
 40
0.0
 40
0.0
 40
0.0
 40
0.25
 40
0.25
 40
0.25
 40
0.5
 40
0.5
 40
0.5
 40
0.75
 40
0.75
 40
0.75
 40
1.0
 40
1.0
 40
1.0
 40
1.0
 10
-9.3961
 20
19.5109
 30
0.0
 10
-9.3961
 20
18.6104
 30
0.0
 10
-9.1189
 20
18.0989
 30
0.0
 10
-8.6927
 20
18.0989
 30
0.0
 10
-8.2131
 20
18.0989
 30
0.0
 10
-7.9838
 20
18.6584
 30
0.0
 10
-7.9838
 20
19.5431
 30
0.0
 10
-7.9838
 20
20.3958
 30
0.0
 10
-8.2023
 20
20.9551
 30
0.0
 10
-8.6873
 20
20.9551
 30
0.0
 10
-9.0975
 20
20.9551
 30
0.0
 10
-9.3961
 20
20.4544
 30
0.0
 10
-9.3961
 20
19.5109
 30
0.0
  0
SPLINE
  5
91
330
1F
100
AcDbEntity
  8
Layer 1
 62
   250
370
     9
100
AcDbSpline
210
0.0
220
0.0
230
1.0
 70
    11
 71
     3
 72
    17
 73
    13
 74
     0
 42
0.0000000001
 43
0.0000000001
 40
0.0
 40
0.0
 40
0.0
 40
0.0
 40
0.25
 40
0.25
 40
0.25
 40
0.5
 40
0.5
 40
0.5
 40
0.75
 40
0.75
 40
0.75
 40
1.0
 40
1.0
 40
1.0
 40
1.0
 10
-7.5148
 20
19.5644
 30
0.0
 10
-7.5148
 20
18.3865
 30
0.0
 10
-7.9519
 20
17.7364
 30
0.0
 10
-8.7192
 20
17.7364
 30
0.0
 10
-9.3961
 20
17.7364
 30
0.0
 10
-9.8543
 20
18.3706
 30
0.0
 10
-9.8649
 20
19.5162
 30
0.0
 10
-9.8649
 20
20.6781
 30
0.0
 10
-9.364
 20
21.3176
 30
0.0
 10
-8.6605
 20
21.3176
 30
0.0
 10
-7.9306
 20
21.3176
 30
0.0
 10
-7.5148
 20
20.6675
 30
0.0
 10
-7.5148
 20
19.5644
 30
0.0
  0
SPLINE
  5
92
330
1F
100
AcDbEntity
  8
Layer 1
 62
   250
370
     9
100
AcDbSpline
210
0.0
220
0.0
230
1.0
 70
    11
 71
     3
 72
    20
 73
    16
 74
     0
 42
0.0000000001
 43
0.0000000001
 40
0.0
 40
0.0
 40
0.0
 40
0.0
 40
0.2
 40
0.2
 40
0.2
 40
0.4
 40
0.4
 40
0.4
 40
0.6000000000000001
 40
0.6000000000000001
 40
0.6000000000000001
 40
0.8
 40
0.8
 40
0.8
 40
1.0
 40
1.0
 40
1.0
 40
1.0
 10
-6.6403
 20
20.1184
 30
0.0
 10
-6.6403
 20
19.6868
 30
0.0
 10
-6.3792
 20
19.3832
 30
0.0
 10
-5.9742
 20
19.3832
 30
0.0
 10
-5.6599
 20
19.3832
 30
0.0
 10
-5.4146
 20
19.5375
 30
0.0
 10
-5.2921
 20
19.7456
 30
0.0
 10
-5.2655
 20
19.7879
 30
0.0
 10
-5.2493
 20
19.8414
 30
0.0
 10
-5.2493
 20
19.9162
 30
0.0
 10
-5.2493
 20
20.5077
 30
0.0
 10
-5.468
 20
20.9604
 30
0.0
 10
-5.9582
 20
20.9604
 30
0.0
 10
-6.3578
 20
20.9604
 30
0.0
 10
-6.6403
 20
20.609
 30
0.0
 10
-6.6403
 20
20.1184
 30
0.0
  0
SPLINE
  5
93
330
1F
100
AcDbEntity
  8
Layer 1
 62
   250
370
     9
100
AcDbSpline
210
0.0
220
0.0
230
1.0
 70
    11
 71
     3
 72
    41
 73
    37
 74
     0
 42
0.0000000001
 43
0.0000000001
 40
0.0
 40
0.0
 40
0.0
 40
0.0
 40
0.0833333333333333
 40
0.0833333333333333
 40
0.0833333333333333
 40
0.1666666666666667
 40
0.1666666666666667
 40
0.1666666666666667
 40
0.25
 40
0.25
 40
0.25
 40
0.3333333333333333
 40
0.3333333333333333
 40
0.3333333333333333
 40
0.4166666666666666
 40
0.4166666666666666
 40
0.4166666666666666
 40
0.5
 40
0.5
 40
0.5
 40
0.5833333333333333
 40
0.5833333333333333
 40
0.5833333333333333
 40
0.6666666666666666
 40
0.6666666666666666
 40
0.6666666666666666
 40
0.75
 40
0.75
 40
0.75
 40
0.8333333333333333
 40
0.8333333333333333
 40
0.8333333333333333
 40
0.9166666666666666
 40
0.9166666666666666
 40
0.9166666666666666
 40
1.0
 40
1.0
 40
1.0
 40
1.0
 10
-6.8109
 20
18.1253
 30
0.0
 10
-6.7097
 20
18.1147
 30
0.0
 10
-6.5925
 20
18.1253
 30
0.0
 10
-6.4324
 20
18.1412
 30
0.0
 10
-6.1608
 20
18.1788
 30
0.0
 10
-5.905
 20
18.2908
 30
0.0
 10
-5.7078
 20
18.4771
 30
0.0
 10
-5.4786
 20
18.6848
 30
0.0
 10
-5.3134
 20
18.9888
 30
0.0
 10
-5.2493
 20
19.399
 30
0.0
 10
-5.2493
 20
19.399
 30
0.0
 10
-5.2655
 20
19.399
 30
0.0
 10
-5.2655
 20
19.399
 30
0.0
 10
-5.4573
 20
19.1644
 30
0.0
 10
-5.7344
 20
19.0259
 30
0.0
 10
-6.0808
 20
19.0259
 30
0.0
 10
-6.7043
 20
19.0259
 30
0.0
 10
-7.104
 20
19.4951
 30
0.0
 10
-7.104
 20
20.0867
 30
0.0
 10
-7.104
 20
20.7419
 30
0.0
 10
-6.6297
 20
21.3176
 30
0.0
 10
-5.9208
 20
21.3176
 30
0.0
 10
-5.2121
 20
21.3176
 30
0.0
 10
-4.7752
 20
20.7419
 30
0.0
 10
-4.7752
 20
19.8572
 30
0.0
 10
-4.7752
 20
19.0952
 30
0.0
 10
-5.0309
 20
18.5626
 30
0.0
 10
-5.372
 20
18.2319
 30
0.0
 10
-5.6385
 20
17.9707
 30
0.0
 10
-6.0061
 20
17.8109
 30
0.0
 10
-6.3792
 20
17.7686
 30
0.0
 10
-6.5498
 20
17.7415
 30
0.0
 10
-6.6989
 20
17.7364
 30
0.0
 10
-6.8109
 20
17.7415
 30
0.0
 10
-6.8109
 20
17.7415
 30
0.0
 10
-6.8109
 20
18.1253
 30
0.0
 10
-6.8109
 20
18.1253
 30
0.0
  0
SPLINE
  5
94
330
1F
100
AcDbEntity
  8
Layer 1
 62
   250
370
     9
100
AcDbSpline
210
0.0
220
0.0
230
1.0
 70
    11
 71
     3
 72
    17
 73
    13
 74
     0
 42
0.0000000001
 43
0.0000000001
 40
0.0
 40
0.0
 40
0.0
 40
0.0
 40
0.25
 40
0.25
 40
0.25
 40
0.5
 40
0.5
 40
0.5
 40
0.75
 40
0.75
 40
0.75
 40
1.0
 40
1.0
 40
1.0
 40
1.0
 10
-3.9275
 20
19.5109
 30
0.0
 10
-3.9275
 20
18.6104
 30
0.0
 10
-3.6504
 20
18.0989
 30
0.0
 10
-3.224
 20
18.0989
 30
0.0
 10
-2.7445
 20
18.0989
 30
0.0
 10
-2.5152
 20
18.6584
 30
0.0
 10
-2.5152
 20
19.5431
 30
0.0
 10
-2.5152
 20
20.3958
 30
0.0
 10
-2.7337
 20
20.9551
 30
0.0
 10
-3.2187
 20
20.9551
 30
0.0
 10
-3.629
 20
20.9551
 30
0.0
 10
-3.9275
 20
20.4544
 30
0.0
 10
-3.9275
 20
19.5109
 30
0.0
  0
SPLINE
  5
95
330
1F
100
AcDbEntity
  8
Layer 1
 62
   250
370
     9
100
AcDbSpline
210
0.0
220
0.0
230
1.0
 70
    11
 71
     3
 72
    17
 73
    13
 74
     0
 42
0.0000000001
 43
0.0000000001
 40
0.0
 40
0.0
 40
0.0
 40
0.0
 40
0.25
 40
0.25
 40
0.25
 40
0.5
 40
0.5
 40
0.5
 40
0.75
 40
0.75
 40
0.75
 40
1.0
 40
1.0
 40
1.0
 40
1.0
 10
-2.0464
 20
19.5644
 30
0.0
 10
-2.0464
 20
18.3865
 30
0.0
 10
-2.4833
 20
17.7364
 30
0.0
 10
-3.2508
 20
17.7364
 30
0.0
 10
-3.9275
 20
17.7364
 30
0.0
 10
-4.3857
 20
18.3706
 30
0.0
 10
-4.3963
 20
19.5162
 30
0.0
 10
-4.3963
 20
20.6781
 30
0.0
 10
-3.8954
 20
21.3176
 30
0.0
 10
-3.1919
 20
21.3176
 30
0.0
 10
-2.462
 20
21.3176
 30
0.0
 10
-2.0464
 20
20.6675
 30
0.0
 10
-2.0464
 20
19.5644
 30
0.0
  0
SPLINE
  5
96
330
1F
100
AcDbEntity
  8
Layer 1
 62
   250
370
     9
100
AcDbSpline
210
0.0
220
0.0
230
1.0
 70
    11
 71
     3
 72
    17
 73
    13
 74
     0
 42
0.0000000001
 43
0.0000000001
 40
0.0
 40
0.0
 40
0.0
 40
0.0
 40
0.25
 40
0.25
 40
0.25
 40
0.5
 40
0.5
 40
0.5
 40
0.75
 40
0.75
 40
0.75
 40
1.0
 40
1.0
 40
1.0
 40
1.0
 10
-1.1931
 20
19.5109
 30
0.0
 10
-1.1931
 20
18.6104
 30
0.0
 10
-0.9159
 20
18.0989
 30
0.0
 10
-0.4896
 20
18.0989
 30
0.0
 10
-0.01
 20
18.0989
 30
0.0
 10
0.2191
 20
18.6584
 30
0.0
 10
0.2191
 20
19.5431
 30
0.0
 10
0.2191
 20
20.3958
 30
0.0
 10
0.0006
 20
20.9551
 30
0.0
 10
-0.4844
 20
20.9551
 30
0.0
 10
-0.8946
 20
20.9551
 30
0.0
 10
-1.1931
 20
20.4544
 30
0.0
 10
-1.1931
 20
19.5109
 30
0.0
  0
SPLINE
  5
97
330
1F
100
AcDbEntity
  8
Layer 1
 62
   250
370
     9
100
AcDbSpline
210
0.0
220
0.0
230
1.0
 70
    11
 71
     3
 72
    17
 73
    13
 74
     0
 42
0.0000000001
 43
0.0000000001
 40
0.0
 40
0.0
 40
0.0
 40
0.0
 40
0.25
 40
0.25
 40
0.25
 40
0.5
 40
0.5
 40
0.5
 40
0.75
 40
0.75
 40
0.75
 40
1.0
 40
1.0
 40
1.0
 40
1.0
 10
0.6881
 20
19.5644
 30
0.0
 10
0.6881
 20
18.3865
 30
0.0
 10
0.2511
 20
17.7364
 30
0.0
 10
-0.5163
 20
17.7364
 30
0.0
 10
-1.1931
 20
17.7364
 30
0.0
 10
-1.6513
 20
18.3706
 30
0.0
 10
-1.662
 20
19.5162
 30
0.0
 10
-1.662
 20
20.6781
 30
0.0
 10
-1.1611
 20
21.3176
 30
0.0
 10
-0.4576
 20
21.3176
 30
0.0
 10
0.2725
 20
21.3176
 30
0.0
 10
0.6881
 20
20.6675
 30
0.0
 10
0.6881
 20
19.5644
 30
0.0
  0
SPLINE
  5
98
330
1F
100
AcDbEntity
  8
Layer 1
 62
   250
370
     9
100
AcDbSpline
210
0.0
220
0.0
230
1.0
 70
    11
 71
     3
 72
    26
 73
    22
 74
     0
 42
0.0000000001
 43
0.0000000001
 40
0.0
 40
0.0
 40
0.0
 40
0.0
 40
0.1428571428571428
 40
0.1428571428571428
 40
0.1428571428571428
 40
0.2857142857142857
 40
0.2857142857142857
 40
0.2857142857142857
 40
0.4285714285714285
 40
0.4285714285714285
 40
0.4285714285714285
 40
0.5714285714285714
 40
0.5714285714285714
 40
0.5714285714285714
 40
0.7142857142857142
 40
0.7142857142857142
 40
0.7142857142857142
 40
0.8571428571428571
 40
0.8571428571428571
 40
0.8571428571428571
 40
1.0
 40
1.0
 40
1.0
 40
1.0
 10
2.5698
 20
19.1058
 30
0.0
 10
2.5698
 20
19.1058
 30
0.0
 10
2.5698
 20
20.2624
 30
0.0
 10
2.5698
 20
20.2624
 30
0.0
 10
2.5698
 20
20.4436
 30
0.0
 10
2.5749
 20
20.6248
 30
0.0
 10
2.5857
 20
20.806
 30
0.0
 10
2.5857
 20
20.806
 30
0.0
 10
2.5698
 20
20.806
 30
0.0
 10
2.5698
 20
20.806
 30
0.0
 10
2.463
 20
20.6035
 30
0.0
 10
2.3778
 20
20.4544
 30
0.0
 10
2.2818
 20
20.2944
 30
0.0
 10
2.2818
 20
20.2944
 30
0.0
 10
1.4346
 20
19.1166
 30
0.0
 10
1.4346
 20
19.1166
 30
0.0
 10
1.4346
 20
19.1166
 30
0.0
 10
1.4346
 20
19.1058
 30
0.0
 10
1.4346
 20
19.1058
 30
0.0
 10
1.4346
 20
19.1058
 30
0.0
 10
2.5698
 20
19.1058
 30
0.0
 10
2.5698
 20
19.1058
 30
0.0
  0
SPLINE
  5
99
330
1F
100
AcDbEntity
  8
Layer 1
 62
   250
370
     9
100
AcDbSpline
210
0.0
220
0.0
230
1.0
 70
    11
 71
     3
 72
    38
 73
    34
 74
     0
 42
0.0000000001
 43
0.0000000001
 40
0.0
 40
0.0
 40
0.0
 40
0.0
 40
0.0909090909090909
 40
0.0909090909090909
 40
0.0909090909090909
 40
0.1818181818181818
 40
0.1818181818181818
 40
0.1818181818181818
 40
0.2727272727272727
 40
0.2727272727272727
 40
0.2727272727272727
 40
0.3636363636363636
 40
0.3636363636363636
 40
0.3636363636363636
 40
0.4545454545454546
 40
0.4545454545454546
 40
0.4545454545454546
 40
0.5454545454545454
 40
0.5454545454545454
 40
0.5454545454545454
 40
0.6363636363636364
 40
0.6363636363636364
 40
0.6363636363636364
 40
0.7272727272727273
 40
0.7272727272727273
 40
0.7272727272727273
 40
0.8181818181818182
 40
0.8181818181818182
 40
0.8181818181818182
 40
0.9090909090909092
 40
0.9090909090909092
 40
0.9090909090909092
 40
1.0
 40
1.0
 40
1.0
 40
1.0
 10
2.5698
 20
17.795
 30
0.0
 10
2.5698
 20
17.795
 30
0.0
 10
2.5698
 20
18.7383
 30
0.0
 10
2.5698
 20
18.7383
 30
0.0
 10
2.5698
 20
18.7383
 30
0.0
 10
0.9602
 20
18.7383
 30
0.0
 10
0.9602
 20
18.7383
 30
0.0
 10
0.9602
 20
18.7383
 30
0.0
 10
0.9602
 20
19.0474
 30
0.0
 10
0.9602
 20
19.0474
 30
0.0
 10
0.9602
 20
19.0474
 30
0.0
 10
2.5057
 20
21.259
 30
0.0
 10
2.5057
 20
21.259
 30
0.0
 10
2.5057
 20
21.259
 30
0.0
 10
3.0117
 20
21.259
 30
0.0
 10
3.0117
 20
21.259
 30
0.0
 10
3.0117
 20
21.259
 30
0.0
 10
3.0117
 20
19.1058
 30
0.0
 10
3.0117
 20
19.1058
 30
0.0
 10
3.0117
 20
19.1058
 30
0.0
 10
3.4968
 20
19.1058
 30
0.0
 10
3.4968
 20
19.1058
 30
0.0
 10
3.4968
 20
19.1058
 30
0.0
 10
3.4968
 20
18.7383
 30
0.0
 10
3.4968
 20
18.7383
 30
0.0
 10
3.4968
 20
18.7383
 30
0.0
 10
3.0117
 20
18.7383
 30
0.0
 10
3.0117
 20
18.7383
 30
0.0
 10
3.0117
 20
18.7383
 30
0.0
 10
3.0117
 20
17.795
 30
0.0
 10
3.0117
 20
17.795
 30
0.0
 10
3.0117
 20
17.795
 30
0.0
 10
2.5698
 20
17.795
 30
0.0
 10
2.5698
 20
17.795
 30
0.0
  0
SPLINE
  5
9A
330
1F
100
AcDbEntity
  8
Layer 1
 62
   250
370
     9
100
AcDbSpline
210
0.0
220
0.0
230
1.0
 70
    11
 71
     3
 72
    17
 73
    13
 74
     0
 42
0.0000000001
 43
0.0000000001
 40
0.0
 40
0.0
 40
0.0
 40
0.0
 40
0.25
 40
0.25
 40
0.25
 40
0.5
 40
0.5
 40
0.5
 40
0.75
 40
0.75
 40
0.75
 40
1.0
 40
1.0
 40
1.0
 40
1.0
 10
4.2754
 20
19.5109
 30
0.0
 10
4.2754
 20
18.6104
 30
0.0
 10
4.5524
 20
18.0989
 30
0.0
 10
4.9789
 20
18.0989
 30
0.0
 10
5.4584
 20
18.0989
 30
0.0
 10
5.6876
 20
18.6584
 30
0.0
 10
5.6876
 20
19.5431
 30
0.0
 10
5.6876
 20
20.3958
 30
0.0
 10
5.4692
 20
20.9551
 30
0.0
 10
4.9841
 20
20.9551
 30
0.0
 10
4.5737
 20
20.9551
 30
0.0
 10
4.2754
 20
20.4544
 30
0.0
 10
4.2754
 20
19.5109
 30
0.0
  0
SPLINE
  5
9B
330
1F
100
AcDbEntity
  8
Layer 1
 62
   250
370
     9
100
AcDbSpline
210
0.0
220
0.0
230
1.0
 70
    11
 71
     3
 72
    17
 73
    13
 74
     0
 42
0.0000000001
 43
0.0000000001
 40
0.0
 40
0.0
 40
0.0
 40
0.0
 40
0.25
 40
0.25
 40
0.25
 40
0.5
 40
0.5
 40
0.5
 40
0.75
 40
0.75
 40
0.75
 40
1.0
 40
1.0
 40
1.0
 40
1.0
 10
6.1568
 20
19.5644
 30
0.0
 10
6.1568
 20
18.3865
 30
0.0
 10
5.7196
 20
17.7364
 30
0.0
 10
4.9524
 20
17.7364
 30
0.0
 10
4.2754
 20
17.7364
 30
0.0
 10
3.8172
 20
18.3706
 30
0.0
 10
3.8066
 20
19.5162
 30
0.0
 10
3.8066
 20
20.6781
 30
0.0
 10
4.3075
 20
21.3176
 30
0.0
 10
5.011
 20
21.3176
 30
0.0
 10
5.7409
 20
21.3176
 30
0.0
 10
6.1568
 20
20.6675
 30
0.0
 10
6.1568
 20
19.5644
 30
0.0
  0
SPLINE
  5
9C
330
1F
100
AcDbEntity
  8
Layer 1
 62
   250
370
     9
100
AcDbSpline
210
0.0
220
0.0
230
1.0
 70
    11
 71
     3
 72
    50
 73
    46
 74
     0
 42
0.0000000001
 43
0.0000000001
 40
0.0
 40
0.0
 40
0.0
 40
0.0
 40
0.0666666666666667
 40
0.0666666666666667
 40
0.0666666666666667
 40
0.1333333333333333
 40
0.1333333333333333
 40
0.1333333333333333
 40
0.2
 40
0.2
 40
0.2
 40
0.2666666666666667
 40
0.2666666666666667
 40
0.2666666666666667
 40
0.3333333333333333
 40
0.3333333333333333
 40
0.3333333333333333
 40
0.4
 40
0.4
 40
0.4
 40
0.4666666666666667
 40
0.4666666666666667
 40
0.4666666666666667
 40
0.5333333333333333
 40
0.5333333333333333
 40
0.5333333333333333
 40
0.6
 40
0.6
 40
0.6
 40
0.6666666666666666
 40
0.6666666666666666
 40
0.6666666666666666
 40
0.7333333333333333
 40
0.7333333333333333
 40
0.7333333333333333
 40
0.8
 40
0.8
 40
0.8
 40
0.8666666666666667
 40
0.8666666666666667
 40
0.8666666666666667
 40
0.9333333333333333
 40
0.9333333333333333
 40
0.9333333333333333
 40
1.0
 40
1.0
 40
1.0
 40
1.0
 10
8.6566
 20
20.8646
 30
0.0
 10
8.6566
 20
20.8646
 30
0.0
 10
7.3351
 20
20.8646
 30
0.0
 10
7.3351
 20
20.8646
 30
0.0
 10
7.3351
 20
20.8646
 30
0.0
 10
7.2016
 20
19.9747
 30
0.0
 10
7.2016
 20
19.9747
 30
0.0
 10
7.2816
 20
19.9854
 30
0.0
 10
7.3564
 20
19.996
 30
0.0
 10
7.4841
 20
19.996
 30
0.0
 10
7.7505
 20
19.996
 30
0.0
 10
8.0172
 20
19.9372
 30
0.0
 10
8.2301
 20
19.8093
 30
0.0
 10
8.5018
 20
19.6549
 30
0.0
 10
8.7258
 20
19.3563
 30
0.0
 10
8.7258
 20
18.9195
 30
0.0
 10
8.7258
 20
18.2425
 30
0.0
 10
8.1877
 20
17.7364
 30
0.0
 10
7.4363
 20
17.7364
 30
0.0
 10
7.0576
 20
17.7364
 30
0.0
 10
6.738
 20
17.8428
 30
0.0
 10
6.573
 20
17.9498
 30
0.0
 10
6.573
 20
17.9498
 30
0.0
 10
6.6901
 20
18.3067
 30
0.0
 10
6.6901
 20
18.3067
 30
0.0
 10
6.8341
 20
18.2215
 30
0.0
 10
7.1162
 20
18.1147
 30
0.0
 10
7.4308
 20
18.1147
 30
0.0
 10
7.8732
 20
18.1147
 30
0.0
 10
8.2514
 20
18.4025
 30
0.0
 10
8.2514
 20
18.866
 30
0.0
 10
8.2462
 20
19.314
 30
0.0
 10
7.9479
 20
19.6336
 30
0.0
 10
7.2551
 20
19.6336
 30
0.0
 10
7.0576
 20
19.6336
 30
0.0
 10
6.9033
 20
19.6124
 30
0.0
 10
6.7751
 20
19.5961
 30
0.0
 10
6.7751
 20
19.5961
 30
0.0
 10
6.9991
 20
21.259
 30
0.0
 10
6.9991
 20
21.259
 30
0.0
 10
6.9991
 20
21.259
 30
0.0
 10
8.6566
 20
21.259
 30
0.0
 10
8.6566
 20
21.259
 30
0.0
 10
8.6566
 20
21.259
 30
0.0
 10
8.6566
 20
20.8646
 30
0.0
 10
8.6566
 20
20.8646
 30
0.0
  0
SPLINE
  5
9D
330
1F
100
AcDbEntity
  8
Layer 1
 62
   250
370
     9
100
AcDbSpline
210
0.0
220
0.0
230
1.0
 70
    11
 71
     3
 72
    20
 73
    16
 74
     0
 42
0.0000000001
 43
0.0000000001
 40
0.0
 40
0.0
 40
0.0
 40
0.0
 40
0.2
 40
0.2
 40
0.2
 40
0.4
 40
0.4
 40
0.4
 40
0.6000000000000001
 40
0.6000000000000001
 40
0.6000000000000001
 40
0.8
 40
0.8
 40
0.8
 40
1.0
 40
1.0
 40
1.0
 40
1.0
 10
11.167
 20
18.9302
 30
0.0
 10
11.167
 20
19.4256
 30
0.0
 10
10.8845
 20
19.7243
 30
0.0
 10
10.4528
 20
19.7243
 30
0.0
 10
10.1706
 20
19.7243
 30
0.0
 10
9.9095
 20
19.5482
 30
0.0
 10
9.7813
 20
19.2978
 30
0.0
 10
9.7497
 20
19.2447
 30
0.0
 10
9.7283
 20
19.1751
 30
0.0
 10
9.7283
 20
19.0901
 30
0.0
 10
9.739
 20
18.5199
 30
0.0
 10
10.0002
 20
18.0989
 30
0.0
 10
10.4903
 20
18.0989
 30
0.0
 10
10.8952
 20
18.0989
 30
0.0
 10
11.167
 20
18.4344
 30
0.0
 10
11.167
 20
18.9302
 30
0.0
  0
SPLINE
  5
9E
330
1F
100
AcDbEntity
  8
Layer 1
 62
   250
370
     9
100
AcDbSpline
210
0.0
220
0.0
230
1.0
 70
    11
 71
     3
 72
    38
 73
    34
 74
     0
 42
0.0000000001
 43
0.0000000001
 40
0.0
 40
0.0
 40
0.0
 40
0.0
 40
0.0909090909090909
 40
0.0909090909090909
 40
0.0909090909090909
 40
0.1818181818181818
 40
0.1818181818181818
 40
0.1818181818181818
 40
0.2727272727272727
 40
0.2727272727272727
 40
0.2727272727272727
 40
0.3636363636363636
 40
0.3636363636363636
 40
0.3636363636363636
 40
0.4545454545454546
 40
0.4545454545454546
 40
0.4545454545454546
 40
0.5454545454545454
 40
0.5454545454545454
 40
0.5454545454545454
 40
0.6363636363636364
 40
0.6363636363636364
 40
0.6363636363636364
 40
0.7272727272727273
 40
0.7272727272727273
 40
0.7272727272727273
 40
0.8181818181818182
 40
0.8181818181818182
 40
0.8181818181818182
 40
0.9090909090909092
 40
0.9090909090909092
 40
0.9090909090909092
 40
1.0
 40
1.0
 40
1.0
 40
1.0
 10
11.3004
 20
20.9287
 30
0.0
 10
11.2046
 20
20.9338
 30
0.0
 10
11.0819
 20
20.9287
 30
0.0
 10
10.9485
 20
20.9073
 30
0.0
 10
10.2131
 20
20.7847
 30
0.0
 10
9.8241
 20
20.2465
 30
0.0
 10
9.7441
 20
19.676
 30
0.0
 10
9.7441
 20
19.676
 30
0.0
 10
9.7604
 20
19.676
 30
0.0
 10
9.7604
 20
19.676
 30
0.0
 10
9.9253
 20
19.8947
 30
0.0
 10
10.2131
 20
20.0759
 30
0.0
 10
10.5968
 20
20.0759
 30
0.0
 10
11.2097
 20
20.0759
 30
0.0
 10
11.6414
 20
19.6336
 30
0.0
 10
11.6414
 20
18.9567
 30
0.0
 10
11.6414
 20
18.3224
 30
0.0
 10
11.2097
 20
17.7364
 30
0.0
 10
10.4903
 20
17.7364
 30
0.0
 10
9.7497
 20
17.7364
 30
0.0
 10
9.2646
 20
18.3118
 30
0.0
 10
9.2646
 20
19.2126
 30
0.0
 10
9.2646
 20
19.8947
 30
0.0
 10
9.5099
 20
20.4329
 30
0.0
 10
9.8509
 20
20.7739
 30
0.0
 10
10.1387
 20
21.0564
 30
0.0
 10
10.5224
 20
21.2323
 30
0.0
 10
10.9593
 20
21.2856
 30
0.0
 10
11.0978
 20
21.307
 30
0.0
 10
11.2152
 20
21.312
 30
0.0
 10
11.3004
 20
21.312
 30
0.0
 10
11.3004
 20
21.312
 30
0.0
 10
11.3004
 20
20.9287
 30
0.0
 10
11.3004
 20
20.9287
 30
0.0
  0
SPLINE
  5
9F
330
1F
100
AcDbEntity
  8
Layer 1
 62
   250
370
     9
100
AcDbSpline
210
0.0
220
0.0
230
1.0
 70
    11
 71
     3
 72
    29
 73
    25
 74
     0
 42
0.0000000001
 43
0.0000000001
 40
0.0
 40
0.0
 40
0.0
 40
0.0
 40
0.125
 40
0.125
 40
0.125
 40
0.25
 40
0.25
 40
0.25
 40
0.375
 40
0.375
 40
0.375
 40
0.5
 40
0.5
 40
0.5
 40
0.625
 40
0.625
 40
0.625
 40
0.75
 40
0.75
 40
0.75
 40
0.875
 40
0.875
 40
0.875
 40
1.0
 40
1.0
 40
1.0
 40
1.0
 10
13.0753
 20
20.8219
 30
0.0
 10
13.0753
 20
20.8219
 30
0.0
 10
13.0645
 20
20.8219
 30
0.0
 10
13.0645
 20
20.8219
 30
0.0
 10
13.0645
 20
20.8219
 30
0.0
 10
12.4623
 20
20.4971
 30
0.0
 10
12.4623
 20
20.4971
 30
0.0
 10
12.4623
 20
20.4971
 30
0.0
 10
12.3718
 20
20.854
 30
0.0
 10
12.3718
 20
20.854
 30
0.0
 10
12.3718
 20
20.854
 30
0.0
 10
13.1283
 20
21.259
 30
0.0
 10
13.1283
 20
21.259
 30
0.0
 10
13.1283
 20
21.259
 30
0.0
 10
13.5279
 20
21.259
 30
0.0
 10
13.5279
 20
21.259
 30
0.0
 10
13.5279
 20
21.259
 30
0.0
 10
13.5279
 20
17.795
 30
0.0
 10
13.5279
 20
17.795
 30
0.0
 10
13.5279
 20
17.795
 30
0.0
 10
13.0753
 20
17.795
 30
0.0
 10
13.0753
 20
17.795
 30
0.0
 10
13.0753
 20
17.795
 30
0.0
 10
13.0753
 20
20.8219
 30
0.0
 10
13.0753
 20
20.8219
 30
0.0
  0
SPLINE
  5
A0
330
1F
100
AcDbEntity
  8
Layer 1
 62
   250
370
     9
100
AcDbSpline
210
0.0
220
0.0
230
1.0
 70
    11
 71
     3
 72
    29
 73
    25
 74
     0
 42
0.0000000001
 43
0.0000000001
 40
0.0
 40
0.0
 40
0.0
 40
0.0
 40
0.125
 40
0.125
 40
0.125
 40
0.25
 40
0.25
 40
0.25
 40
0.375
 40
0.375
 40
0.375
 40
0.5
 40
0.5
 40
0.5
 40
0.625
 40
0.625
 40
0.625
 40
0.75
 40
0.75
 40
0.75
 40
0.875
 40
0.875
 40
0.875
 40
1.0
 40
1.0
 40
1.0
 40
1.0
 10
15.8097
 20
20.8219
 30
0.0
 10
15.8097
 20
20.8219
 30
0.0
 10
15.7991
 20
20.8219
 30
0.0
 10
15.7991
 20
20.8219
 30
0.0
 10
15.7991
 20
20.8219
 30
0.0
 10
15.1969
 20
20.4971
 30
0.0
 10
15.1969
 20
20.4971
 30
0.0
 10
15.1969
 20
20.4971
 30
0.0
 10
15.1061
 20
20.854
 30
0.0
 10
15.1061
 20
20.854
 30
0.0
 10
15.1061
 20
20.854
 30
0.0
 10
15.8626
 20
21.259
 30
0.0
 10
15.8626
 20
21.259
 30
0.0
 10
15.8626
 20
21.259
 30
0.0
 10
16.2623
 20
21.259
 30
0.0
 10
16.2623
 20
21.259
 30
0.0
 10
16.2623
 20
21.259
 30
0.0
 10
16.2623
 20
17.795
 30
0.0
 10
16.2623
 20
17.795
 30
0.0
 10
16.2623
 20
17.795
 30
0.0
 10
15.8097
 20
17.795
 30
0.0
 10
15.8097
 20
17.795
 30
0.0
 10
15.8097
 20
17.795
 30
0.0
 10
15.8097
 20
20.8219
 30
0.0
 10
15.8097
 20
20.8219
 30
0.0
  0
SPLINE
  5
A1
330
1F
100
AcDbEntity
  8
Layer 1
 62
   250
370
     9
100
AcDbSpline
210
0.0
220
0.0
230
1.0
 70
    11
 71
     3
 72
    29
 73
    25
 74
     0
 42
0.0000000001
 43
0.0000000001
 40
0.0
 40
0.0
 40
0.0
 40
0.0
 40
0.125
 40
0.125
 40
0.125
 40
0.25
 40
0.25
 40
0.25
 40
0.375
 40
0.375
 40
0.375
 40
0.5
 40
0.5
 40
0.5
 40
0.625
 40
0.625
 40
0.625
 40
0.75
 40
0.75
 40
0.75
 40
0.875
 40
0.875
 40
0.875
 40
1.0
 40
1.0
 40
1.0
 40
1.0
 10
18.5441
 20
20.8219
 30
0.0
 10
18.5441
 20
20.8219
 30
0.0
 10
18.5335
 20
20.8219
 30
0.0
 10
18.5335
 20
20.8219
 30
0.0
 10
18.5335
 20
20.8219
 30
0.0
 10
17.9313
 20
20.4971
 30
0.0
 10
17.9313
 20
20.4971
 30
0.0
 10
17.9313
 20
20.4971
 30
0.0
 10
17.8406
 20
20.854
 30
0.0
 10
17.8406
 20
20.854
 30
0.0
 10
17.8406
 20
20.854
 30
0.0
 10
18.597
 20
21.259
 30
0.0
 10
18.597
 20
21.259
 30
0.0
 10
18.597
 20
21.259
 30
0.0
 10
18.9967
 20
21.259
 30
0.0
 10
18.9967
 20
21.259
 30
0.0
 10
18.9967
 20
21.259
 30
0.0
 10
18.9967
 20
17.795
 30
0.0
 10
18.9967
 20
17.795
 30
0.0
 10
18.9967
 20
17.795
 30
0.0
 10
18.5441
 20
17.795
 30
0.0
 10
18.5441
 20
17.795
 30
0.0
 10
18.5441
 20
17.795
 30
0.0
 10
18.5441
 20
20.8219
 30
0.0
 10
18.5441
 20
20.8219
 30
0.0
  0
SPLINE
  5
A2
330
1F
100
AcDbEntity
  8
Layer 1
 62
   250
370
     9
100
AcDbSpline
210
0.0
220
0.0
230
1.0
 70
    11
 71
     3
 72
    50
 73
    46
 74
     0
 42
0.0000000001
 43
0.0000000001
 40
0.0
 40
0.0
 40
0.0
 40
0.0
 40
0.0666666666666667
 40
0.0666666666666667
 40
0.0666666666666667
 40
0.1333333333333333
 40
0.1333333333333333
 40
0.1333333333333333
 40
0.2
 40
0.2
 40
0.2
 40
0.2666666666666667
 40
0.2666666666666667
 40
0.2666666666666667
 40
0.3333333333333333
 40
0.3333333333333333
 40
0.3333333333333333
 40
0.4
 40
0.4
 40
0.4
 40
0.4666666666666667
 40
0.4666666666666667
 40
0.4666666666666667
 40
0.5333333333333333
 40
0.5333333333333333
 40
0.5333333333333333
 40
0.6
 40
0.6
 40
0.6
 40
0.6666666666666666
 40
0.6666666666666666
 40
0.6666666666666666
 40
0.7333333333333333
 40
0.7333333333333333
 40
0.7333333333333333
 40
0.8
 40
0.8
 40
0.8
 40
0.8666666666666667
 40
0.8666666666666667
 40
0.8666666666666667
 40
0.9333333333333333
 40
0.9333333333333333
 40
0.9333333333333333
 40
1.0
 40
1.0
 40
1.0
 40
1.0
 10
-13.4583
 20
26.9197
 30
0.0
 10
-13.4583
 20
26.9197
 30
0.0
 10
-13.4255
 20
26.9569
 30
0.0
 10
-13.4255
 20
26.9569
 30
0.0
 10
-13.2854
 20
27.1149
 30
0.0
 10
-13.2753
 20
27.3703
 30
0.0
 10
-13.4018
 20
27.5426
 30
0.0
 10
-13.4018
 20
27.5426
 30
0.0
 10
-13.7404
 20
28.0026
 30
0.0
 10
-13.7404
 20
28.0026
 30
0.0
 10
-13.8763
 20
28.1875
 30
0.0
 10
-14.1182
 20
28.2079
 30
0.0
 10
-14.2766
 20
28.048
 30
0.0
 10
-14.2766
 20
28.048
 30
0.0
 10
-14.5674
 20
27.7544
 30
0.0
 10
-14.5674
 20
27.7544
 30
0.0
 10
-14.6674
 20
27.6531
 30
0.0
 10
-14.7127
 20
27.4999
 30
0.0
 10
-14.6882
 20
27.3496
 30
0.0
 10
-14.5566
 20
26.5403
 30
0.0
 10
-13.9686
 20
24.033
 30
0.0
 10
-11.7342
 20
24.033
 30
0.0
 10
-11.6838
 20
24.033
 30
0.0
 10
-11.5398
 20
24.1671
 30
0.0
 10
-11.4039
 20
24.3058
 30
0.0
 10
-11.2449
 20
24.4686
 30
0.0
 10
-11.2339
 20
24.7497
 30
0.0
 10
-11.3809
 20
24.9266
 30
0.0
 10
-11.3809
 20
24.9266
 30
0.0
 10
-11.803
 20
25.4351
 30
0.0
 10
-11.803
 20
25.4351
 30
0.0
 10
-11.9487
 20
25.6106
 30
0.0
 10
-12.1905
 20
25.6137
 30
0.0
 10
-12.3406
 20
25.4418
 30
0.0
 10
-12.3406
 20
25.4418
 30
0.0
 10
-12.3406
 20
25.4418
 30
0.0
 10
-12.3406
 20
25.4418
 30
0.0
 10
-12.474
 20
25.2888
 30
0.0
 10
-12.6843
 20
25.2713
 30
0.0
 10
-12.8343
 20
25.4022
 30
0.0
 10
-13.0151
 20
25.5596
 30
0.0
 10
-13.2603
 20
25.8538
 30
0.0
 10
-13.5228
 20
26.3995
 30
0.0
 10
-13.6044
 20
26.5694
 30
0.0
 10
-13.5789
 20
26.7837
 30
0.0
 10
-13.4583
 20
26.9197
 30
0.0
  0
SPLINE
  5
A3
330
1F
100
AcDbEntity
  8
Layer 1
 62
   250
370
     9
100
AcDbSpline
210
0.0
220
0.0
230
1.0
 70
    11
 71
     3
 72
    50
 73
    46
 74
     0
 42
0.0000000001
 43
0.0000000001
 40
0.0
 40
0.0
 40
0.0
 40
0.0
 40
0.0666666666666667
 40
0.0666666666666667
 40
0.0666666666666667
 40
0.1333333333333333
 40
0.1333333333333333
 40
0.1333333333333333
 40
0.2
 40
0.2
 40
0.2
 40
0.2666666666666667
 40
0.2666666666666667
 40
0.2666666666666667
 40
0.3333333333333333
 40
0.3333333333333333
 40
0.3333333333333333
 40
0.4
 40
0.4
 40
0.4
 40
0.4666666666666667
 40
0.4666666666666667
 40
0.4666666666666667
 40
0.5333333333333333
 40
0.5333333333333333
 40
0.5333333333333333
 40
0.6
 40
0.6
 40
0.6
 40
0.6666666666666666
 40
0.6666666666666666
 40
0.6666666666666666
 40
0.7333333333333333
 40
0.7333333333333333
 40
0.7333333333333333
 40
0.8
 40
0.8
 40
0.8
 40
0.8666666666666667
 40
0.8666666666666667
 40
0.8666666666666667
 40
0.9333333333333333
 40
0.9333333333333333
 40
0.9333333333333333
 40
1.0
 40
1.0
 40
1.0
 40
1.0
 10
-13.4583
 20
20.1889
 30
0.0
 10
-13.4583
 20
20.1889
 30
0.0
 10
-13.4255
 20
20.2263
 30
0.0
 10
-13.4255
 20
20.2263
 30
0.0
 10
-13.2854
 20
20.3843
 30
0.0
 10
-13.2753
 20
20.6397
 30
0.0
 10
-13.4018
 20
20.8118
 30
0.0
 10
-13.4018
 20
20.8118
 30
0.0
 10
-13.7404
 20
21.2718
 30
0.0
 10
-13.7404
 20
21.2718
 30
0.0
 10
-13.8763
 20
21.4569
 30
0.0
 10
-14.1182
 20
21.4776
 30
0.0
 10
-14.2766
 20
21.3173
 30
0.0
 10
-14.2766
 20
21.3173
 30
0.0
 10
-14.5674
 20
21.0237
 30
0.0
 10
-14.5674
 20
21.0237
 30
0.0
 10
-14.6674
 20
20.9225
 30
0.0
 10
-14.7127
 20
20.7692
 30
0.0
 10
-14.6882
 20
20.619
 30
0.0
 10
-14.5566
 20
19.8097
 30
0.0
 10
-13.9686
 20
17.3024
 30
0.0
 10
-11.7342
 20
17.3024
 30
0.0
 10
-11.6838
 20
17.3024
 30
0.0
 10
-11.5398
 20
17.4364
 30
0.0
 10
-11.4039
 20
17.5752
 30
0.0
 10
-11.2449
 20
17.7378
 30
0.0
 10
-11.2339
 20
18.0189
 30
0.0
 10
-11.3809
 20
18.196
 30
0.0
 10
-11.3809
 20
18.196
 30
0.0
 10
-11.803
 20
18.7045
 30
0.0
 10
-11.803
 20
18.7045
 30
0.0
 10
-11.9487
 20
18.8802
 30
0.0
 10
-12.1905
 20
18.883
 30
0.0
 10
-12.3406
 20
18.7111
 30
0.0
 10
-12.3406
 20
18.7111
 30
0.0
 10
-12.3406
 20
18.7111
 30
0.0
 10
-12.3406
 20
18.7111
 30
0.0
 10
-12.474
 20
18.5582
 30
0.0
 10
-12.6843
 20
18.5405
 30
0.0
 10
-12.8343
 20
18.6714
 30
0.0
 10
-13.0151
 20
18.8292
 30
0.0
 10
-13.2603
 20
19.123
 30
0.0
 10
-13.5228
 20
19.6687
 30
0.0
 10
-13.6044
 20
19.8389
 30
0.0
 10
-13.5789
 20
20.0529
 30
0.0
 10
-13.4583
 20
20.1889
 30
0.0
  0
SPLINE
  5
A4
330
1F
100
AcDbEntity
  8
Layer 1
 62
   250
370
    18
100
AcDbSpline
210
0.0
220
0.0
230
1.0
 70
    11
 71
     3
 72
    29
 73
    25
 74
     0
 42
0.0000000001
 43
0.0000000001
 40
0.0
 40
0.0
 40
0.0
 40
0.0
 40
0.125
 40
0.125
 40
0.125
 40
0.25
 40
0.25
 40
0.25
 40
0.375
 40
0.375
 40
0.375
 40
0.5
 40
0.5
 40
0.5
 40
0.625
 40
0.625
 40
0.625
 40
0.75
 40
0.75
 40
0.75
 40
0.875
 40
0.875
 40
0.875
 40
1.0
 40
1.0
 40
1.0
 40
1.0
 10
-20.7048
 20
57.8535
 30
0.0
 10
-20.7048
 20
57.8535
 30
0.0
 10
25.2952
 20
57.8535
 30
0.0
 10
25.2952
 20
57.8535
 30
0.0
 10
26.3952
 20
57.8535
 30
0.0
 10
27.2952
 20
56.9535
 30
0.0
 10
27.2952
 20
55.8534
 30
0.0
 10
27.2952
 20
55.8534
 30
0.0
 10
27.2952
 20
9.8535
 30
0.0
 10
27.2952
 20
9.8535
 30
0.0
 10
27.2952
 20
8.7535
 30
0.0
 10
26.3952
 20
7.8535
 30
0.0
 10
25.2952
 20
7.8535
 30
0.0
 10
25.2952
 20
7.8535
 30
0.0
 10
-20.7048
 20
7.8535
 30
0.0
 10
-20.7048
 20
7.8535
 30
0.0
 10
-21.8047
 20
7.8535
 30
0.0
 10
-22.7048
 20
8.7535
 30
0.0
 10
-22.7048
 20
9.8535
 30
0.0
 10
-22.7048
 20
9.8535
 30
0.0
 10
-22.7048
 20
55.8534
 30
0.0
 10
-22.7048
 20
55.8534
 30
0.0
 10
-22.7048
 20
56.9535
 30
0.0
 10
-21.8047
 20
57.8535
 30
0.0
 10
-20.7048
 20
57.8535
 30
0.0
  0
ENDSEC
  0
SECTION
  2
OBJECTS
  0
DICTIONARY
  5
C
330
0
100
AcDbDictionary
281
     1
  3
ACAD_DETAILVIEWSTYLE
350
AC
  3
ACAD_GROUP
350
D
  3
ACAD_LAYOUT
350
1A
  3
ACAD_MATERIAL
350
43
  3
ACAD_MLEADERSTYLE
350
5B
  3
ACAD_MLINESTYLE
350
17
  3
ACAD_PLOTSETTINGS
350
19
  3
ACAD_PLOTSTYLENAME
350
E
  3
ACAD_SCALELIST
350
47
  3
ACAD_SECTIONVIEWSTYLE
350
AD
  3
ACAD_TABLESTYLE
350
59
  3
ACAD_VISUALSTYLE
350
2A
  3
ACDB_RECOMPOSE_DATA
350
A9
  3
AcDbVariableDictionary
350
A5
  0
SUN
  5
5D
330
29
100
AcDbSun
 90
        1
290
     0
 63
     7
421
 16777215
 40
1.0
291
     1
 91
  2455826
 92
 54000000
292
     0
 70
     2
 71
   256
280
     1
  0
DICTIONARY
  5
AC
102
{ACAD_REACTORS
330
C
102
}
330
C
100
AcDbDictionary
281
     1
  0
DICTIONARY
  5
D
102
{ACAD_REACTORS
330
C
102
}
330
C
100
AcDbDictionary
281
     1
  0
DICTIONARY
  5
1A
102
{ACAD_REACTORS
330
C
102
}
330
C
100
AcDbDictionary
281
     1
  3
Layout1
350
1E
  3
Layout2
350
26
  3
Model
350
22
  0
DICTIONARY
  5
43
102
{ACAD_REACTORS
330
C
102
}
330
C
100
AcDbDictionary
281
     1
  3
ByBlock
350
45
  3
ByLayer
350
44
  3
Global
350
46
  0
DICTIONARY
  5
5B
102
{ACAD_REACTORS
330
C
102
}
330
C
100
AcDbDictionary
281
     1
  3
Standard
350
5C
  0
DICTIONARY
  5
17
102
{ACAD_REACTORS
330
C
102
}
330
C
100
AcDbDictionary
281
     1
  3
Standard
350
18
  0
DICTIONARY
  5
19
102
{ACAD_REACTORS
330
C
102
}
330
C
100
AcDbDictionary
281
     1
  0
ACDBDICTIONARYWDFLT
  5
E
102
{ACAD_REACTORS
330
C
102
}
330
C
100
AcDbDictionary
281
     1
  3
Normal
350
F
100
AcDbDictionaryWithDefault
340
F
  0
DICTIONARY
  5
47
102
{ACAD_REACTORS
330
C
102
}
330
C
100
AcDbDictionary
281
     1
  3
A0
350
48
  3
A1
350
49
  3
A2
350
4A
  3
A3
350
4B
  3
A4
350
4C
  3
A5
350
4D
  3
A6
350
4E
  3
A7
350
4F
  3
A8
350
50
  3
A9
350
51
  3
B1
350
52
  3
B2
350
53
  3
B3
350
54
  3
B4
350
55
  3
B5
350
56
  3
B6
350
57
  3
B7
350
58
  0
DICTIONARY
  5
AD
102
{ACAD_REACTORS
330
C
102
}
330
C
100
AcDbDictionary
281
     1
  0
DICTIONARY
  5
59
102
{ACAD_REACTORS
330
C
102
}
330
C
100
AcDbDictionary
281
     1
  3
Standard
350
5A
  0
DICTIONARY
  5
2A
102
{ACAD_REACTORS
330
C
102
}
330
C
100
AcDbDictionary
281
     1
  3
2dWireframe
350
2F
  3
Basic
350
32
  3
Brighten
350
36
  3
ColorChange
350
3A
  3
Conceptual
350
34
  3
Dim
350
35
  3
EdgeColorOff
350
3D
  3
Facepattern
350
39
  3
Flat
350
2B
  3
FlatWithEdges
350
2C
  3
Gouraud
350
2D
  3
GouraudWithEdges
350
2E
  3
Hidden
350
31
  3
JitterOff
350
3B
  3
Linepattern
350
38
  3
OverhangOff
350
3C
  3
Realistic
350
33
  3
Shaded
350
42
  3
Shaded with edges
350
41
  3
Shades of Gray
350
3E
  3
Sketchy
350
3F
  3
Thicken
350
37
  3
Wireframe
350
30
  3
X-Ray
350
40
  0
XRECORD
  5
A9
102
{ACAD_REACTORS
330
C
102
}
330
C
100
AcDbXrecord
280
     1
 90
        1
330
5A
  0
DICTIONARY
  5
A5
102
{ACAD_REACTORS
330
C
102
}
330
C
100
AcDbDictionary
281
     1
  3
CANNOSCALE
350
A6
  3
CMLEADERSTYLE
350
AB
  3
CTABLESTYLE
350
AA
  0
LAYOUT
  5
1E
102
{ACAD_REACTORS
330
1A
102
}
330
1A
100
AcDbPlotSettings
  1

  2
none_device
  4

  6

 40
0.0
 41
0.0
 42
0.0
 43
0.0
 44
0.0
 45
0.0
 46
0.0
 47
0.0
 48
0.0
 49
0.0
140
0.0
141
0.0
142
1.0
143
1.0
 70
   688
 72
     0
 73
     0
 74
     5
  7

 75
    16
 76
     0
 77
     2
 78
   300
147
1.0
148
0.0
149
0.0
100
AcDbLayout
  1
Layout1
 70
     1
 71
     1
 10
0.0
 20
0.0
 11
12.0
 21
9.0
 12
0.0
 22
0.0
 32
0.0
 14
1.000000000000000E+20
 24
1.000000000000000E+20
 34
1.000000000000000E+20
 15
-1.000000000000000E+20
 25
-1.000000000000000E+20
 35
-1.000000000000000E+20
146
0.0
 13
0.0
 23
0.0
 33
0.0
 16
1.0
 26
0.0
 36
0.0
 17
0.0
 27
1.0
 37
0.0
 76
     0
330
1B
  0
LAYOUT
  5
26
102
{ACAD_REACTORS
330
1A
102
}
330
1A
100
AcDbPlotSettings
  1

  2
none_device
  4

  6

 40
0.0
 41
0.0
 42
0.0
 43
0.0
 44
0.0
 45
0.0
 46
0.0
 47
0.0
 48
0.0
 49
0.0
140
0.0
141
0.0
142
1.0
143
1.0
 70
   688
 72
     0
 73
     0
 74
     5
  7

 75
    16
 76
     0
 77
     2
 78
   300
147
1.0
148
0.0
149
0.0
100
AcDbLayout
  1
Layout2
 70
     1
 71
     2
 10
0.0
 20
0.0
 11
0.0
 21
0.0
 12
0.0
 22
0.0
 32
0.0
 14
0.0
 24
0.0
 34
0.0
 15
0.0
 25
0.0
 35
0.0
146
0.0
 13
0.0
 23
0.0
 33
0.0
 16
1.0
 26
0.0
 36
0.0
 17
0.0
 27
1.0
 37
0.0
 76
     0
330
23
  0
LAYOUT
  5
22
102
{ACAD_REACTORS
330
1A
102
}
330
1A
100
AcDbPlotSettings
  1

  2
none_device
  4
Letter_(8.50_x_11.00_Inches)
  6

 40
6.35
 41
6.35
 42
6.35000508
 43
6.35000508
 44
215.9
 45
279.4
 46
0.0
 47
0.0
 48
0.0
 49
0.0
140
0.0
141
0.0
142
1.0
143
1.0
 70
  1712
 72
     0
 73
     0
 74
     0
  7

 75
     0
 76
     0
 77
     2
 78
   300
147
1.0
148
0.0
149
0.0
100
AcDbLayout
  1
Model
 70
     1
 71
     0
 10
0.0
 20
0.0
 11
12.0
 21
9.0
 12
0.0
 22
0.0
 32
0.0
 14
-22.793
 24
7.7653
 34
0.0
 15
27.3834
 25
57.9417
 35
0.0
146
0.0
 13
0.0
 23
0.0
 33
0.0
 16
1.0
 26
0.0
 36
0.0
 17
0.0
 27
1.0
 37
0.0
 76
     0
330
1F
331
29
  0
MATERIAL
  5
45
102
{ACAD_REACTORS
330
43
102
}
330
43
100
AcDbMaterial
  1
ByBlock
 72
     1
 94
      127
  0
MATERIAL
  5
44
102
{ACAD_REACTORS
330
43
102
}
330
43
100
AcDbMaterial
  1
ByLayer
 72
     1
 94
      127
  0
MATERIAL
  5
46
102
{ACAD_REACTORS
330
43
102
}
330
43
100
AcDbMaterial
  1
Global
 72
     1
 94
      127
  0
MLEADERSTYLE
  5
5C
102
{ACAD_REACTORS
330
5B
102
}
330
5B
100
AcDbMLeaderStyle
179
     2
170
     2
171
     1
172
     0
 90
        2
 40
0.0
 41
0.0
173
     1
 91
-1056964608
340
14
 92
       -2
290
     1
 42
0.09
291
     1
 43
0.36
  3
Standard
341
0
 44
0.18
300

342
11
174
     1
178
     6
175
     1
176
     0
 93
-1056964608
 45
0.18
292
     0
297
     0
 46
0.18
343
0
 94
-1056964608
 47
1.0
 49
1.0
140
1.0
293
     1
141
0.0
294
     1
177
     0
142
1.0
295
     0
296
     0
143
0.125
271
     0
272
     9
273
     9
298
     0
  0
MLINESTYLE
  5
18
102
{ACAD_REACTORS
330
17
102
}
330
17
100
AcDbMlineStyle
  2
Standard
 70
     0
  3

 62
   256
 51
90.0
 52
90.0
 71
     2
 49
0.5
 62
   256
  6
BYLAYER
 49
-0.5
 62
   256
  6
BYLAYER
  0
ACDBPLACEHOLDER
  5
F
102
{ACAD_REACTORS
330
E
102
}
330
E
  0
SCALE
  5
48
102
{ACAD_REACTORS
330
47
102
}
330
47
100
AcDbScale
 70
     0
300
1:1
140
1.0
141
1.0
290
     1
  0
SCALE
  5
49
102
{ACAD_REACTORS
330
47
102
}
330
47
100
AcDbScale
 70
     0
300
1/128" = 1'-0"
140
0.0078125
141
12.0
290
     0
  0
SCALE
  5
4A
102
{ACAD_REACTORS
330
47
102
}
330
47
100
AcDbScale
 70
     0
300
1/64" = 1'-0"
140
0.015625
141
12.0
290
     0
  0
SCALE
  5
4B
102
{ACAD_REACTORS
330
47
102
}
330
47
100
AcDbScale
 70
     0
300
1/32" = 1'-0"
140
0.03125
141
12.0
290
     0
  0
SCALE
  5
4C
102
{ACAD_REACTORS
330
47
102
}
330
47
100
AcDbScale
 70
     0
300
1/16" = 1'-0"
140
0.0625
141
12.0
290
     0
  0
SCALE
  5
4D
102
{ACAD_REACTORS
330
47
102
}
330
47
100
AcDbScale
 70
     0
300
3/32" = 1'-0"
140
0.09375
141
12.0
290
     0
  0
SCALE
  5
4E
102
{ACAD_REACTORS
330
47
102
}
330
47
100
AcDbScale
 70
     0
300
1/8" = 1'-0"
140
0.125
141
12.0
290
     0
  0
SCALE
  5
4F
102
{ACAD_REACTORS
330
47
102
}
330
47
100
AcDbScale
 70
     0
300
3/16" = 1'-0"
140
0.1875
141
12.0
290
     0
  0
SCALE
  5
50
102
{ACAD_REACTORS
330
47
102
}
330
47
100
AcDbScale
 70
     0
300
1/4" = 1'-0"
140
0.25
141
12.0
290
     0
  0
SCALE
  5
51
102
{ACAD_REACTORS
330
47
102
}
330
47
100
AcDbScale
 70
     0
300
3/8" = 1'-0"
140
0.375
141
12.0
290
     0
  0
SCALE
  5
52
102
{ACAD_REACTORS
330
47
102
}
330
47
100
AcDbScale
 70
     0
300
1/2" = 1'-0"
140
0.5
141
12.0
290
     0
  0
SCALE
  5
53
102
{ACAD_REACTORS
330
47
102
}
330
47
100
AcDbScale
 70
     0
300
3/4" = 1'-0"
140
0.75
141
12.0
290
     0
  0
SCALE
  5
54
102
{ACAD_REACTORS
330
47
102
}
330
47
100
AcDbScale
 70
     0
300
1" = 1'-0"
140
1.0
141
12.0
290
     0
  0
SCALE
  5
55
102
{ACAD_REACTORS
330
47
102
}
330
47
100
AcDbScale
 70
     0
300
1-1/2" = 1'-0"
140
1.5
141
12.0
290
     0
  0
SCALE
  5
56
102
{ACAD_REACTORS
330
47
102
}
330
47
100
AcDbScale
 70
     0
300
3" = 1'-0"
140
3.0
141
12.0
290
     0
  0
SCALE
  5
57
102
{ACAD_REACTORS
330
47
102
}
330
47
100
AcDbScale
 70
     0
300
6" = 1'-0"
140
6.0
141
12.0
290
     0
  0
SCALE
  5
58
102
{ACAD_REACTORS
330
47
102
}
330
47
100
AcDbScale
 70
     0
300
1'-0" = 1'-0"
140
12.0
141
12.0
290
     0
  0
TABLESTYLE
  5
5A
102
{ACAD_REACTORS
330
59
102
}
102
{ACAD_XDICTIONARY
360
A7
102
}
330
59
100
AcDbTableStyle
  3
Standard
 70
     0
 71
     0
 40
0.06
 41
0.06
280
     0
281
     0
  7
Standard
140
0.18
170
     2
 62
     0
 63
   257
283
     0
 90
        4
 91
        0
  1

274
    -2
284
     1
 64
     0
275
    -2
285
     1
 65
     0
276
    -2
286
     1
 66
     0
277
    -2
287
     1
 67
     0
278
    -2
288
     1
 68
     0
279
    -2
289
     1
 69
     0
  7
Standard
140
0.25
170
     5
 62
     0
 63
   257
283
     0
 90
        4
 91
        0
  1

274
    -2
284
     1
 64
     0
275
    -2
285
     1
 65
     0
276
    -2
286
     1
 66
     0
277
    -2
287
     1
 67
     0
278
    -2
288
     1
 68
     0
279
    -2
289
     1
 69
     0
  7
Standard
140
0.18
170
     5
 62
     0
 63
   257
283
     0
 90
        4
 91
        0
  1

274
    -2
284
     1
 64
     0
275
    -2
285
     1
 65
     0
276
    -2
286
     1
 66
     0
277
    -2
287
     1
 67
     0
278
    -2
288
     1
 68
     0
279
    -2
289
     1
 69
     0
  0
VISUALSTYLE
  5
2F
102
{ACAD_REACTORS
330
2A
102
}
330
2A
100
AcDbVisualStyle
  2
2dWireframe
 70
     4
177
     3
291
     0
 70
    58
 90
        0
176
     1
 90
        2
176
     1
 90
        0
176
     1
 90
        0
176
     1
 40
0.6
176
     1
 40
30.0
176
     1
 62
     7
420
 16777215
176
     1
 90
        1
176
     1
 90
        4
176
     1
 62
     7
176
     1
 62
   257
176
     1
 90
        1
176
     1
 90
        1
176
     1
 40
1.0
176
     1
 90
        0
176
     1
 62
   257
176
     1
 40
1.0
176
     1
 90
        1
176
     1
 90
        6
176
     1
 90
        2
176
     1
 62
     7
176
     1
 90
        5
176
     1
 90
        0
176
     1
 90
        0
176
     1
290
     0
176
     1
 90
        1
176
     1
 40
0.0
176
     1
 90
        0
176
     1
290
     1
176
     1
290
     1
176
     1
290
     0
176
     1
290
     0
176
     1
290
     0
176
     1
290
     0
176
     1
290
     0
176
     1
290
     0
176
     1
290
     0
176
     1
 90
       50
176
     1
 40
0.0
176
     1
 40
1.0
176
     1
 90
        0
176
     1
 62
    18
420
        0
176
     1
 90
       50
176
     1
 90
        3
176
     1
 62
     5
420
      255
176
     1
290
     0
176
     1
 90
       50
176
     1
 90
       50
176
     1
 90
       50
176
     1
290
     0
176
     1
 90
       50
176
     1
 62
   256
176
     0
 40
1.0
176
     0
 90
        2
176
     1
  1
strokes_ogs.tif
176
     1
290
     0
176
     1
 40
1.0
176
     1
 40
1.0
176
     1
  0
VISUALSTYLE
  5
32
102
{ACAD_REACTORS
330
2A
102
}
330
2A
100
AcDbVisualStyle
  2
Basic
 70
     7
177
     3
291
     1
 70
    58
 90
        1
176
     1
 90
        0
176
     1
 90
        1
176
     1
 90
        0
176
     1
 40
0.6
176
     1
 40
30.0
176
     1
 62
     7
420
 16777215
176
     1
 90
        0
176
     1
 90
        4
176
     1
 62
     7
176
     1
 62
   257
176
     1
 90
        1
176
     1
 90
        1
176
     1
 40
1.0
176
     1
 90
        8
176
     1
 62
     7
176
     1
 40
1.0
176
     1
 90
        1
176
     1
 90
        6
176
     1
 90
        2
176
     1
 62
     7
176
     1
 90
        5
176
     1
 90
        0
176
     1
 90
        0
176
     1
290
     0
176
     1
 90
        1
176
     1
 40
0.0
176
     1
 90
        0
176
     1
290
     0
176
     1
290
     1
176
     1
290
     1
176
     1
290
     0
176
     1
290
     0
176
     1
290
     0
176
     1
290
     0
176
     1
290
     0
176
     1
290
     0
176
     1
 90
       50
176
     1
 40
0.0
176
     1
 40
1.0
176
     1
 90
        0
176
     1
 62
    18
420
        0
176
     1
 90
       50
176
     1
 90
        3
176
     1
 62
     5
420
      255
176
     1
290
     0
176
     1
 90
       50
176
     1
 90
       50
176
     1
 90
       50
176
     1
290
     0
176
     1
 90
       50
176
     1
 62
   256
176
     0
 40
1.0
176
     0
 90
        2
176
     1
  1
strokes_ogs.tif
176
     1
290
     0
176
     1
 40
1.0
176
     1
 40
1.0
176
     1
  0
VISUALSTYLE
  5
36
102
{ACAD_REACTORS
330
2A
102
}
330
2A
100
AcDbVisualStyle
  2
Brighten
 70
    12
177
     3
291
     1
 70
    58
 90
        2
176
     1
 90
        2
176
     1
 90
        0
176
     1
 90
        0
176
     1
 40
0.6
176
     1
 40
30.0
176
     1
 62
     7
420
 16777215
176
     1
 90
        1
176
     1
 90
        4
176
     1
 62
     7
176
     1
 62
   257
176
     1
 90
        1
176
     1
 90
        1
176
     1
 40
1.0
176
     1
 90
        8
176
     1
 62
     7
176
     1
 40
1.0
176
     1
 90
        1
176
     1
 90
        6
176
     1
 90
        2
176
     1
 62
     7
176
     1
 90
        5
176
     1
 90
        0
176
     1
 90
        0
176
     1
290
     0
176
     1
 90
        1
176
     1
 40
50.0
176
     1
 90
        0
176
     1
290
     0
176
     1
290
     1
176
     1
290
     1
176
     1
290
     0
176
     1
290
     0
176
     1
290
     0
176
     1
290
     0
176
     1
290
     0
176
     1
290
     0
176
     1
 90
       50
176
     1
 40
0.0
176
     1
 40
1.0
176
     1
 90
        0
176
     1
 62
    18
420
        0
176
     1
 90
       50
176
     1
 90
        3
176
     1
 62
     5
420
      255
176
     1
290
     0
176
     1
 90
       50
176
     1
 90
       50
176
     1
 90
       50
176
     1
290
     0
176
     1
 90
       50
176
     1
 62
   256
176
     0
 40
1.0
176
     0
 90
        2
176
     1
  1
strokes_ogs.tif
176
     1
290
     0
176
     1
 40
1.0
176
     1
 40
1.0
176
     1
  0
VISUALSTYLE
  5
3A
102
{ACAD_REACTORS
330
2A
102
}
330
2A
100
AcDbVisualStyle
  2
ColorChange
 70
    16
177
     3
291
     1
 70
    58
 90
        2
176
     1
 90
        2
176
     1
 90
        3
176
     1
 90
        0
176
     1
 40
0.6
176
     1
 40
30.0
176
     1
 62
     8
420
  8421504
176
     1
 90
        1
176
     1
 90
        4
176
     1
 62
     7
176
     1
 62
   257
176
     1
 90
        1
176
     1
 90
        1
176
     1
 40
1.0
176
     1
 90
        8
176
     1
 62
     8
420
  8421504
176
     1
 40
1.0
176
     1
 90
        1
176
     1
 90
        6
176
     1
 90
        2
176
     1
 62
     7
176
     1
 90
        5
176
     1
 90
        0
176
     1
 90
        0
176
     1
290
     0
176
     1
 90
        1
176
     1
 40
0.0
176
     1
 90
        0
176
     1
290
     0
176
     1
290
     1
176
     1
290
     1
176
     1
290
     0
176
     1
290
     0
176
     1
290
     0
176
     1
290
     0
176
     1
290
     0
176
     1
290
     0
176
     1
 90
       50
176
     1
 40
0.0
176
     1
 40
1.0
176
     1
 90
        0
176
     1
 62
    18
420
        0
176
     1
 90
       50
176
     1
 90
        3
176
     1
 62
     5
420
      255
176
     1
290
     0
176
     1
 90
       50
176
     1
 90
       50
176
     1
 90
       50
176
     1
290
     0
176
     1
 90
       50
176
     1
 62
   256
176
     0
 40
1.0
176
     0
 90
        2
176
     1
  1
strokes_ogs.tif
176
     1
290
     0
176
     1
 40
1.0
176
     1
 40
1.0
176
     1
  0
VISUALSTYLE
  5
34
102
{ACAD_REACTORS
330
2A
102
}
330
2A
100
AcDbVisualStyle
  2
Conceptual
 70
     9
177
     3
291
     0
 70
    58
 90
        3
176
     1
 90
        2
176
     1
 90
        0
176
     1
 90
        0
176
     1
 40
0.6
176
     1
 40
30.0
176
     1
 62
     7
420
 16777215
176
     1
 90
        2
176
     1
 90
        2
176
     1
 62
     7
176
     1
 62
   257
176
     1
 90
        1
176
     1
 90
        1
176
     1
 40
179.0
176
     1
 90
        8
176
     1
 62
     7
176
     1
 40
1.0
176
     1
 90
        1
176
     1
 90
        6
176
     1
 90
        2
176
     1
 62
     7
176
     1
 90
        3
176
     1
 90
        0
176
     1
 90
        0
176
     1
290
     0
176
     1
 90
        1
176
     1
 40
0.0
176
     1
 90
        0
176
     1
290
     0
176
     1
290
     1
176
     1
290
     1
176
     1
290
     0
176
     1
290
     0
176
     1
290
     0
176
     1
290
     0
176
     1
290
     0
176
     1
290
     0
176
     1
 90
       50
176
     1
 40
0.0
176
     1
 40
1.0
176
     1
 90
        0
176
     1
 62
    18
420
        0
176
     1
 90
       50
176
     1
 90
        3
176
     1
 62
     5
420
      255
176
     1
290
     0
176
     1
 90
       50
176
     1
 90
       50
176
     1
 90
       50
176
     1
290
     0
176
     1
 90
       50
176
     1
 62
   256
176
     0
 40
1.0
176
     0
 90
        2
176
     1
  1
strokes_ogs.tif
176
     1
290
     0
176
     1
 40
1.0
176
     1
 40
1.0
176
     1
  0
VISUALSTYLE
  5
35
102
{ACAD_REACTORS
330
2A
102
}
330
2A
100
AcDbVisualStyle
  2
Dim
 70
    11
177
     3
291
     1
 70
    58
 90
        2
176
     1
 90
        2
176
     1
 90
        0
176
     1
 90
        0
176
     1
 40
0.6
176
     1
 40
30.0
176
     1
 62
     7
420
 16777215
176
     1
 90
        1
176
     1
 90
        4
176
     1
 62
     7
176
     1
 62
   257
176
     1
 90
        1
176
     1
 90
        1
176
     1
 40
1.0
176
     1
 90
        8
176
     1
 62
     7
176
     1
 40
1.0
176
     1
 90
        1
176
     1
 90
        6
176
     1
 90
        2
176
     1
 62
     7
176
     1
 90
        5
176
     1
 90
        0
176
     1
 90
        0
176
     1
290
     0
176
     1
 90
        1
176
     1
 40
-50.0
176
     1
 90
        0
176
     1
290
     0
176
     1
290
     1
176
     1
290
     1
176
     1
290
     0
176
     1
290
     0
176
     1
290
     0
176
     1
290
     0
176
     1
290
     0
176
     1
290
     0
176
     1
 90
       50
176
     1
 40
0.0
176
     1
 40
1.0
176
     1
 90
        0
176
     1
 62
    18
420
        0
176
     1
 90
       50
176
     1
 90
        3
176
     1
 62
     5
420
      255
176
     1
290
     0
176
     1
 90
       50
176
     1
 90
       50
176
     1
 90
       50
176
     1
290
     0
176
     1
 90
       50
176
     1
 62
   256
176
     0
 40
1.0
176
     0
 90
        2
176
     1
  1
strokes_ogs.tif
176
     1
290
     0
176
     1
 40
1.0
176
     1
 40
1.0
176
     1
  0
VISUALSTYLE
  5
3D
102
{ACAD_REACTORS
330
2A
102
}
330
2A
100
AcDbVisualStyle
  2
EdgeColorOff
 70
    22
177
     3
291
     1
 70
    58
 90
        2
176
     0
 90
        2
176
     0
 90
        0
176
     0
 90
        0
176
     0
 40
0.6
176
     0
 40
30.0
176
     0
 62
     7
420
 16777215
176
     0
 90
        1
176
     0
 90
        4
176
     0
 62
     7
176
     0
 62
   257
176
     0
 90
        1
176
     0
 90
        1
176
     0
 40
1.0
176
     0
 90
        8
176
     2
 62
     7
176
     0
 40
1.0
176
     0
 90
        1
176
     0
 90
        6
176
     0
 90
        2
176
     0
 62
     7
176
     0
 90
        5
176
     0
 90
        0
176
     0
 90
        0
176
     0
290
     0
176
     0
 90
        1
176
     0
 40
0.0
176
     0
 90
        0
176
     0
290
     0
176
     0
290
     1
176
     0
290
     1
176
     0
290
     0
176
     0
290
     0
176
     0
290
     0
176
     0
290
     0
176
     0
290
     0
176
     0
290
     0
176
     0
 90
       50
176
     0
 40
0.0
176
     0
 40
1.0
176
     0
 90
        0
176
     0
 62
    18
420
        0
176
     0
 90
       50
176
     0
 90
        3
176
     0
 62
     5
420
      255
176
     0
290
     0
176
     0
 90
       50
176
     0
 90
       50
176
     0
 90
       50
176
     0
290
     0
176
     0
 90
       50
176
     0
 62
   256
176
     0
 40
1.0
176
     0
 90
        2
176
     0
  1
strokes_ogs.tif
176
     0
290
     0
176
     0
 40
1.0
176
     0
 40
1.0
176
     0
  0
VISUALSTYLE
  5
39
102
{ACAD_REACTORS
330
2A
102
}
330
2A
100
AcDbVisualStyle
  2
Facepattern
 70
    15
177
     3
291
     1
 70
    58
 90
        2
176
     1
 90
        2
176
     1
 90
        0
176
     1
 90
        0
176
     1
 40
0.6
176
     1
 40
30.0
176
     1
 62
     7
420
 16777215
176
     1
 90
        1
176
     1
 90
        4
176
     1
 62
     7
176
     1
 62
   257
176
     1
 90
        1
176
     1
 90
        1
176
     1
 40
1.0
176
     1
 90
        8
176
     1
 62
     7
176
     1
 40
1.0
176
     1
 90
        1
176
     1
 90
        6
176
     1
 90
        2
176
     1
 62
     7
176
     1
 90
        5
176
     1
 90
        0
176
     1
 90
        0
176
     1
290
     0
176
     1
 90
        1
176
     1
 40
0.0
176
     1
 90
        0
176
     1
290
     0
176
     1
290
     1
176
     1
290
     1
176
     1
290
     0
176
     1
290
     0
176
     1
290
     0
176
     1
290
     0
176
     1
290
     0
176
     1
290
     0
176
     1
 90
       50
176
     1
 40
0.0
176
     1
 40
1.0
176
     1
 90
        0
176
     1
 62
    18
420
        0
176
     1
 90
       50
176
     1
 90
        3
176
     1
 62
     5
420
      255
176
     1
290
     0
176
     1
 90
       50
176
     1
 90
       50
176
     1
 90
       50
176
     1
290
     0
176
     1
 90
       50
176
     1
 62
   256
176
     0
 40
1.0
176
     0
 90
        2
176
     1
  1
strokes_ogs.tif
176
     1
290
     0
176
     1
 40
1.0
176
     1
 40
1.0
176
     1
  0
VISUALSTYLE
  5
2B
102
{ACAD_REACTORS
330
2A
102
}
330
2A
100
AcDbVisualStyle
  2
Flat
 70
     0
177
     3
291
     1
 70
    58
 90
        2
176
     1
 90
        1
176
     1
 90
        1
176
     1
 90
        2
176
     1
 40
0.6
176
     1
 40
30.0
176
     1
 62
     7
420
 16777215
176
     1
 90
        0
176
     1
 90
        0
176
     1
 62
     7
176
     1
 62
   257
176
     1
 90
        1
176
     1
 90
        1
176
     1
 40
1.0
176
     1
 90
        8
176
     1
 62
     7
176
     1
 40
1.0
176
     1
 90
        1
176
     1
 90
        6
176
     1
 90
        2
176
     1
 62
     7
176
     1
 90
        5
176
     1
 90
        0
176
     1
 90
        0
176
     1
290
     0
176
     1
 90
       13
176
     1
 40
0.0
176
     1
 90
        0
176
     1
290
     0
176
     1
290
     1
176
     1
290
     1
176
     1
290
     0
176
     1
290
     0
176
     1
290
     0
176
     1
290
     0
176
     1
290
     0
176
     1
290
     0
176
     1
 90
       50
176
     1
 40
0.0
176
     1
 40
1.0
176
     1
 90
        0
176
     1
 62
    18
420
        0
176
     1
 90
       50
176
     1
 90
        3
176
     1
 62
     5
420
      255
176
     1
290
     0
176
     1
 90
       50
176
     1
 90
       50
176
     1
 90
       50
176
     1
290
     0
176
     1
 90
       50
176
     1
 62
   256
176
     0
 40
1.0
176
     0
 90
        2
176
     1
  1
strokes_ogs.tif
176
     1
290
     0
176
     1
 40
1.0
176
     1
 40
1.0
176
     1
  0
VISUALSTYLE
  5
2C
102
{ACAD_REACTORS
330
2A
102
}
330
2A
100
AcDbVisualStyle
  2
FlatWithEdges
 70
     1
177
     3
291
     1
 70
    58
 90
        2
176
     1
 90
        1
176
     1
 90
        1
176
     1
 90
        2
176
     1
 40
0.6
176
     1
 40
30.0
176
     1
 62
     7
420
 16777215
176
     1
 90
        1
176
     1
 90
        0
176
     1
 62
     7
176
     1
 62
   257
176
     1
 90
        1
176
     1
 90
        1
176
     1
 40
1.0
176
     1
 90
        0
176
     1
 62
   257
176
     1
 40
1.0
176
     1
 90
        1
176
     1
 90
        6
176
     1
 90
        2
176
     1
 62
     7
176
     1
 90
        5
176
     1
 90
        0
176
     1
 90
        0
176
     1
290
     0
176
     1
 90
       13
176
     1
 40
0.0
176
     1
 90
        0
176
     1
290
     0
176
     1
290
     1
176
     1
290
     1
176
     1
290
     0
176
     1
290
     0
176
     1
290
     0
176
     1
290
     0
176
     1
290
     0
176
     1
290
     0
176
     1
 90
       50
176
     1
 40
0.0
176
     1
 40
1.0
176
     1
 90
        0
176
     1
 62
    18
420
        0
176
     1
 90
       50
176
     1
 90
        3
176
     1
 62
     5
420
      255
176
     1
290
     0
176
     1
 90
       50
176
     1
 90
       50
176
     1
 90
       50
176
     1
290
     0
176
     1
 90
       50
176
     1
 62
   256
176
     0
 40
1.0
176
     0
 90
        2
176
     1
  1
strokes_ogs.tif
176
     1
290
     0
176
     1
 40
1.0
176
     1
 40
1.0
176
     1
  0
VISUALSTYLE
  5
2D
102
{ACAD_REACTORS
330
2A
102
}
330
2A
100
AcDbVisualStyle
  2
Gouraud
 70
     2
177
     3
291
     1
 70
    58
 90
        2
176
     1
 90
        2
176
     1
 90
        1
176
     1
 90
        2
176
     1
 40
0.6
176
     1
 40
30.0
176
     1
 62
     7
420
 16777215
176
     1
 90
        0
176
     1
 90
        0
176
     1
 62
     7
176
     1
 62
   257
176
     1
 90
        1
176
     1
 90
        1
176
     1
 40
1.0
176
     1
 90
        0
176
     1
 62
     7
176
     1
 40
1.0
176
     1
 90
        1
176
     1
 90
        6
176
     1
 90
        2
176
     1
 62
     7
176
     1
 90
        5
176
     1
 90
        0
176
     1
 90
        0
176
     1
290
     0
176
     1
 90
       13
176
     1
 40
0.0
176
     1
 90
        0
176
     1
290
     0
176
     1
290
     1
176
     1
290
     1
176
     1
290
     0
176
     1
290
     0
176
     1
290
     0
176
     1
290
     0
176
     1
290
     0
176
     1
290
     0
176
     1
 90
       50
176
     1
 40
0.0
176
     1
 40
1.0
176
     1
 90
        0
176
     1
 62
    18
420
        0
176
     1
 90
       50
176
     1
 90
        3
176
     1
 62
     5
420
      255
176
     1
290
     0
176
     1
 90
       50
176
     1
 90
       50
176
     1
 90
       50
176
     1
290
     0
176
     1
 90
       50
176
     1
 62
   256
176
     0
 40
1.0
176
     0
 90
        2
176
     1
  1
strokes_ogs.tif
176
     1
290
     0
176
     1
 40
1.0
176
     1
 40
1.0
176
     1
  0
VISUALSTYLE
  5
2E
102
{ACAD_REACTORS
330
2A
102
}
330
2A
100
AcDbVisualStyle
  2
GouraudWithEdges
 70
     3
177
     3
291
     1
 70
    58
 90
        2
176
     1
 90
        2
176
     1
 90
        1
176
     1
 90
        2
176
     1
 40
0.6
176
     1
 40
30.0
176
     1
 62
     7
420
 16777215
176
     1
 90
        1
176
     1
 90
        0
176
     1
 62
     7
176
     1
 62
   257
176
     1
 90
        1
176
     1
 90
        1
176
     1
 40
1.0
176
     1
 90
        0
176
     1
 62
   257
176
     1
 40
1.0
176
     1
 90
        1
176
     1
 90
        6
176
     1
 90
        2
176
     1
 62
     7
176
     1
 90
        5
176
     1
 90
        0
176
     1
 90
        0
176
     1
290
     0
176
     1
 90
       13
176
     1
 40
0.0
176
     1
 90
        0
176
     1
290
     0
176
     1
290
     1
176
     1
290
     1
176
     1
290
     0
176
     1
290
     0
176
     1
290
     0
176
     1
290
     0
176
     1
290
     0
176
     1
290
     0
176
     1
 90
       50
176
     1
 40
0.0
176
     1
 40
1.0
176
     1
 90
        0
176
     1
 62
    18
420
        0
176
     1
 90
       50
176
     1
 90
        3
176
     1
 62
     5
420
      255
176
     1
290
     0
176
     1
 90
       50
176
     1
 90
       50
176
     1
 90
       50
176
     1
290
     0
176
     1
 90
       50
176
     1
 62
   256
176
     0
 40
1.0
176
     0
 90
        2
176
     1
  1
strokes_ogs.tif
176
     1
290
     0
176
     1
 40
1.0
176
     1
 40
1.0
176
     1
  0
VISUALSTYLE
  5
31
102
{ACAD_REACTORS
330
2A
102
}
330
2A
100
AcDbVisualStyle
  2
Hidden
 70
     6
177
     3
291
     0
 70
    58
 90
        1
176
     1
 90
        2
176
     1
 90
        2
176
     1
 90
        0
176
     1
 40
0.6
176
     1
 40
30.0
176
     1
 62
     7
420
 16777215
176
     1
 90
        2
176
     1
 90
        2
176
     1
 62
     7
176
     1
 62
   257
176
     1
 90
        2
176
     1
 90
        1
176
     1
 40
40.0
176
     1
 90
        0
176
     1
 62
   257
176
     1
 40
1.0
176
     1
 90
        1
176
     1
 90
        6
176
     1
 90
        2
176
     1
 62
     7
176
     1
 90
        3
176
     1
 90
        0
176
     1
 90
        0
176
     1
290
     0
176
     1
 90
        1
176
     1
 40
0.0
176
     1
 90
        0
176
     1
290
     0
176
     1
290
     1
176
     1
290
     1
176
     1
290
     0
176
     1
290
     0
176
     1
290
     0
176
     1
290
     0
176
     1
290
     0
176
     1
290
     0
176
     1
 90
       50
176
     1
 40
0.0
176
     1
 40
1.0
176
     1
 90
        0
176
     1
 62
    18
420
        0
176
     1
 90
       50
176
     1
 90
        3
176
     1
 62
     5
420
      255
176
     1
290
     0
176
     1
 90
       50
176
     1
 90
       50
176
     1
 90
       50
176
     1
290
     0
176
     1
 90
       50
176
     1
 62
   256
176
     0
 40
1.0
176
     0
 90
        2
176
     1
  1
strokes_ogs.tif
176
     1
290
     0
176
     1
 40
1.0
176
     1
 40
1.0
176
     1
  0
VISUALSTYLE
  5
3B
102
{ACAD_REACTORS
330
2A
102
}
330
2A
100
AcDbVisualStyle
  2
JitterOff
 70
    20
177
     3
291
     1
 70
    58
 90
        2
176
     0
 90
        2
176
     0
 90
        0
176
     0
 90
        0
176
     0
 40
0.6
176
     0
 40
30.0
176
     0
 62
     7
420
 16777215
176
     0
 90
        1
176
     0
 90
        4
176
     0
 62
     7
176
     0
 62
   257
176
     0
 90
        1
176
     0
 90
        1
176
     0
 40
1.0
176
     0
 90
       10
176
     2
 62
     7
176
     0
 40
1.0
176
     0
 90
        1
176
     0
 90
        6
176
     0
 90
        2
176
     0
 62
     7
176
     0
 90
        5
176
     0
 90
        0
176
     0
 90
        0
176
     0
290
     0
176
     0
 90
        1
176
     0
 40
0.0
176
     0
 90
        0
176
     0
290
     0
176
     0
290
     1
176
     0
290
     1
176
     0
290
     0
176
     0
290
     0
176
     0
290
     0
176
     0
290
     0
176
     0
290
     0
176
     0
290
     0
176
     0
 90
       50
176
     0
 40
0.0
176
     0
 40
1.0
176
     0
 90
        0
176
     0
 62
    18
420
        0
176
     0
 90
       50
176
     0
 90
        3
176
     0
 62
     5
420
      255
176
     0
290
     0
176
     0
 90
       50
176
     0
 90
       50
176
     0
 90
       50
176
     0
290
     0
176
     0
 90
       50
176
     0
 62
   256
176
     0
 40
1.0
176
     0
 90
        2
176
     0
  1
strokes_ogs.tif
176
     0
290
     0
176
     0
 40
1.0
176
     0
 40
1.0
176
     0
  0
VISUALSTYLE
  5
38
102
{ACAD_REACTORS
330
2A
102
}
330
2A
100
AcDbVisualStyle
  2
Linepattern
 70
    14
177
     3
291
     1
 70
    58
 90
        2
176
     1
 90
        2
176
     1
 90
        0
176
     1
 90
        0
176
     1
 40
0.6
176
     1
 40
30.0
176
     1
 62
     7
420
 16777215
176
     1
 90
        1
176
     1
 90
        4
176
     1
 62
     7
176
     1
 62
   257
176
     1
 90
        7
176
     1
 90
        7
176
     1
 40
1.0
176
     1
 90
        8
176
     1
 62
     7
176
     1
 40
1.0
176
     1
 90
        1
176
     1
 90
        6
176
     1
 90
        2
176
     1
 62
     7
176
     1
 90
        5
176
     1
 90
        0
176
     1
 90
        0
176
     1
290
     0
176
     1
 90
        1
176
     1
 40
0.0
176
     1
 90
        0
176
     1
290
     0
176
     1
290
     1
176
     1
290
     1
176
     1
290
     0
176
     1
290
     0
176
     1
290
     0
176
     1
290
     0
176
     1
290
     0
176
     1
290
     0
176
     1
 90
       50
176
     1
 40
0.0
176
     1
 40
1.0
176
     1
 90
        0
176
     1
 62
    18
420
        0
176
     1
 90
       50
176
     1
 90
        3
176
     1
 62
     5
420
      255
176
     1
290
     0
176
     1
 90
       50
176
     1
 90
       50
176
     1
 90
       50
176
     1
290
     0
176
     1
 90
       50
176
     1
 62
   256
176
     0
 40
1.0
176
     0
 90
        2
176
     1
  1
strokes_ogs.tif
176
     1
290
     0
176
     1
 40
1.0
176
     1
 40
1.0
176
     1
  0
VISUALSTYLE
  5
3C
102
{ACAD_REACTORS
330
2A
102
}
330
2A
100
AcDbVisualStyle
  2
OverhangOff
 70
    21
177
     3
291
     1
 70
    58
 90
        2
176
     0
 90
        2
176
     0
 90
        0
176
     0
 90
        0
176
     0
 40
0.6
176
     0
 40
30.0
176
     0
 62
     7
420
 16777215
176
     0
 90
        1
176
     0
 90
        4
176
     0
 62
     7
176
     0
 62
   257
176
     0
 90
        1
176
     0
 90
        1
176
     0
 40
1.0
176
     0
 90
        9
176
     2
 62
     7
176
     0
 40
1.0
176
     0
 90
        1
176
     0
 90
        6
176
     0
 90
        2
176
     0
 62
     7
176
     0
 90
        5
176
     0
 90
        0
176
     0
 90
        0
176
     0
290
     0
176
     0
 90
        1
176
     0
 40
0.0
176
     0
 90
        0
176
     0
290
     0
176
     0
290
     1
176
     0
290
     1
176
     0
290
     0
176
     0
290
     0
176
     0
290
     0
176
     0
290
     0
176
     0
290
     0
176
     0
290
     0
176
     0
 90
       50
176
     0
 40
0.0
176
     0
 40
1.0
176
     0
 90
        0
176
     0
 62
    18
420
        0
176
     0
 90
       50
176
     0
 90
        3
176
     0
 62
     5
420
      255
176
     0
290
     0
176
     0
 90
       50
176
     0
 90
       50
176
     0
 90
       50
176
     0
290
     0
176
     0
 90
       50
176
     0
 62
   256
176
     0
 40
1.0
176
     0
 90
        2
176
     0
  1
strokes_ogs.tif
176
     0
290
     0
176
     0
 40
1.0
176
     0
 40
1.0
176
     0
  0
VISUALSTYLE
  5
33
102
{ACAD_REACTORS
330
2A
102
}
330
2A
100
AcDbVisualStyle
  2
Realistic
 70
     8
177
     3
291
     0
 70
    58
 90
        2
176
     1
 90
        3
176
     1
 90
        0
176
     1
 90
        2
176
     1
 40
0.6
176
     1
 40
30.0
176
     1
 62
     7
420
 16777215
176
     1
 90
        0
176
     1
 90
        0
176
     1
 62
     7
176
     1
 62
   257
176
     1
 90
        1
176
     1
 90
        1
176
     1
 40
1.0
176
     1
 90
        8
176
     1
 62
   257
176
     1
 40
1.0
176
     1
 90
        1
176
     1
 90
        6
176
     1
 90
        2
176
     1
 62
     7
176
     1
 90
        3
176
     1
 90
        0
176
     1
 90
        0
176
     1
290
     0
176
     1
 90
       13
176
     1
 40
0.0
176
     1
 90
        0
176
     1
290
     0
176
     1
290
     1
176
     1
290
     1
176
     1
290
     0
176
     1
290
     0
176
     1
290
     0
176
     1
290
     0
176
     1
290
     0
176
     1
290
     0
176
     1
 90
       50
176
     1
 40
0.0
176
     1
 40
1.0
176
     1
 90
        0
176
     1
 62
    18
420
        0
176
     1
 90
       50
176
     1
 90
        3
176
     1
 62
     5
420
      255
176
     1
290
     0
176
     1
 90
       50
176
     1
 90
       50
176
     1
 90
       50
176
     1
290
     0
176
     1
 90
       50
176
     1
 62
   256
176
     0
 40
1.0
176
     0
 90
        2
176
     1
  1
strokes_ogs.tif
176
     1
290
     0
176
     1
 40
1.0
176
     1
 40
1.0
176
     1
  0
VISUALSTYLE
  5
42
102
{ACAD_REACTORS
330
2A
102
}
330
2A
100
AcDbVisualStyle
  2
Shaded
 70
    27
177
     3
291
     0
 70
    58
 90
        2
176
     1
 90
        2
176
     1
 90
        1
176
     1
 90
        2
176
     1
 40
0.6
176
     1
 40
30.0
176
     1
 62
     7
420
 16777215
176
     1
 90
        0
176
     1
 90
        4
176
     1
 62
     7
176
     1
 62
   257
176
     1
 90
        1
176
     1
 90
        1
176
     1
 40
1.0
176
     1
 90
        8
176
     1
 62
   257
176
     1
 40
1.0
176
     1
 90
        1
176
     1
 90
        6
176
     1
 90
        2
176
     1
 62
     8
420
  7895160
176
     1
 90
        3
176
     1
 90
        0
176
     1
 90
        0
176
     1
290
     0
176
     1
 90
        5
176
     1
 40
0.0
176
     1
 90
        0
176
     1
290
     0
176
     1
290
     1
176
     1
290
     1
176
     1
290
     0
176
     1
290
     0
176
     1
290
     0
176
     1
290
     0
176
     1
290
     0
176
     1
290
     0
176
     1
 90
       50
176
     1
 40
0.0
176
     1
 40
1.0
176
     1
 90
        0
176
     1
 62
    18
420
        0
176
     1
 90
       50
176
     1
 90
        3
176
     1
 62
     5
420
      255
176
     1
290
     0
176
     1
 90
       50
176
     1
 90
       50
176
     1
 90
       50
176
     1
290
     0
176
     1
 90
       50
176
     1
 62
   256
176
     0
 40
1.0
176
     0
 90
        2
176
     1
  1
strokes_ogs.tif
176
     1
290
     0
176
     1
 40
1.0
176
     1
 40
1.0
176
     1
  0
VISUALSTYLE
  5
41
102
{ACAD_REACTORS
330
2A
102
}
330
2A
100
AcDbVisualStyle
  2
Shaded with edges
 70
    26
177
     3
291
     0
 70
    58
 90
        2
176
     1
 90
        2
176
     1
 90
        1
176
     1
 90
        2
176
     1
 40
0.6
176
     1
 40
30.0
176
     1
 62
     7
420
 16777215
176
     1
 90
        1
176
     1
 90
       10
176
     1
 62
     7
176
     1
 62
   257
176
     1
 90
        2
176
     1
 90
        1
176
     1
 40
1.0
176
     1
 90
        8
176
     1
 62
   257
176
     1
 40
1.0
176
     1
 90
        1
176
     1
 90
        6
176
     1
 90
        2
176
     1
 62
     7
176
     1
 90
        3
176
     1
 90
        0
176
     1
 90
        0
176
     1
290
     0
176
     1
 90
        5
176
     1
 40
0.0
176
     1
 90
        0
176
     1
290
     0
176
     1
290
     1
176
     1
290
     1
176
     1
290
     0
176
     1
290
     0
176
     1
290
     0
176
     1
290
     0
176
     1
290
     0
176
     1
290
     0
176
     1
 90
       50
176
     1
 40
0.0
176
     1
 40
1.0
176
     1
 90
        0
176
     1
 62
    18
420
        0
176
     1
 90
       50
176
     1
 90
        3
176
     1
 62
     5
420
      255
176
     1
290
     0
176
     1
 90
       50
176
     1
 90
       50
176
     1
 90
       50
176
     1
290
     0
176
     1
 90
       50
176
     1
 62
   256
176
     0
 40
1.0
176
     0
 90
        2
176
     1
  1
strokes_ogs.tif
176
     1
290
     0
176
     1
 40
1.0
176
     1
 40
1.0
176
     1
  0
VISUALSTYLE
  5
3E
102
{ACAD_REACTORS
330
2A
102
}
330
2A
100
AcDbVisualStyle
  2
Shades of Gray
 70
    23
177
     3
291
     0
 70
    58
 90
        2
176
     1
 90
        2
176
     1
 90
        3
176
     1
 90
        0
176
     1
 40
0.6
176
     1
 40
30.0
176
     1
 62
     7
420
 16777215
176
     1
 90
        2
176
     1
 90
        2
176
     1
 62
     7
176
     1
 62
     7
176
     1
 90
        1
176
     1
 90
        1
176
     1
 40
40.0
176
     1
 90
        8
176
     1
 62
     7
176
     1
 40
1.0
176
     1
 90
        1
176
     1
 90
        6
176
     1
 90
        2
176
     1
 62
     7
176
     1
 90
        3
176
     1
 90
        0
176
     1
 90
        0
176
     1
290
     0
176
     1
 90
        1
176
     1
 40
0.0
176
     1
 90
        0
176
     1
290
     0
176
     1
290
     1
176
     1
290
     1
176
     1
290
     0
176
     1
290
     0
176
     1
290
     0
176
     1
290
     0
176
     1
290
     0
176
     1
290
     0
176
     1
 90
       50
176
     1
 40
0.0
176
     1
 40
1.0
176
     1
 90
        0
176
     1
 62
    18
420
        0
176
     1
 90
       50
176
     1
 90
        3
176
     1
 62
     5
420
      255
176
     1
290
     0
176
     1
 90
       50
176
     1
 90
       50
176
     1
 90
       50
176
     1
290
     0
176
     1
 90
       50
176
     1
 62
   256
176
     0
 40
1.0
176
     0
 90
        2
176
     1
  1
strokes_ogs.tif
176
     1
290
     0
176
     1
 40
1.0
176
     1
 40
1.0
176
     1
  0
VISUALSTYLE
  5
3F
102
{ACAD_REACTORS
330
2A
102
}
330
2A
100
AcDbVisualStyle
  2
Sketchy
 70
    24
177
     3
291
     0
 70
    58
 90
        1
176
     1
 90
        2
176
     1
 90
        2
176
     1
 90
        0
176
     1
 40
0.6
176
     1
 40
30.0
176
     1
 62
     7
420
 16777215
176
     1
 90
        2
176
     1
 90
        2
176
     1
 62
     7
176
     1
 62
     7
176
     1
 90
        1
176
     1
 90
        1
176
     1
 40
40.0
176
     1
 90
       11
176
     1
 62
     7
176
     1
 40
1.0
176
     1
 90
        1
176
     1
 90
        6
176
     1
 90
        2
176
     1
 62
     7
176
     1
 90
        6
176
     1
 90
        0
176
     1
 90
        0
176
     1
290
     0
176
     1
 90
        1
176
     1
 40
0.0
176
     1
 90
        0
176
     1
290
     0
176
     1
290
     1
176
     1
290
     1
176
     1
290
     0
176
     1
290
     0
176
     1
290
     0
176
     1
290
     0
176
     1
290
     0
176
     1
290
     0
176
     1
 90
       50
176
     1
 40
0.0
176
     1
 40
1.0
176
     1
 90
        0
176
     1
 62
    18
420
        0
176
     1
 90
       50
176
     1
 90
        3
176
     1
 62
     5
420
      255
176
     1
290
     0
176
     1
 90
       50
176
     1
 90
       50
176
     1
 90
       50
176
     1
290
     0
176
     1
 90
       50
176
     1
 62
   256
176
     0
 40
1.0
176
     0
 90
        2
176
     1
  1
strokes_ogs.tif
176
     1
290
     0
176
     1
 40
1.0
176
     1
 40
1.0
176
     1
  0
VISUALSTYLE
  5
37
102
{ACAD_REACTORS
330
2A
102
}
330
2A
100
AcDbVisualStyle
  2
Thicken
 70
    13
177
     3
291
     1
 70
    58
 90
        2
176
     1
 90
        2
176
     1
 90
        0
176
     1
 90
        0
176
     1
 40
0.6
176
     1
 40
30.0
176
     1
 62
     7
420
 16777215
176
     1
 90
        1
176
     1
 90
        4
176
     1
 62
     7
176
     1
 62
   257
176
     1
 90
        1
176
     1
 90
        1
176
     1
 40
1.0
176
     1
 90
       12
176
     1
 62
     7
176
     1
 40
1.0
176
     1
 90
        1
176
     1
 90
        6
176
     1
 90
        2
176
     1
 62
     7
176
     1
 90
        5
176
     1
 90
        0
176
     1
 90
        0
176
     1
290
     0
176
     1
 90
        1
176
     1
 40
0.0
176
     1
 90
        0
176
     1
290
     0
176
     1
290
     1
176
     1
290
     1
176
     1
290
     0
176
     1
290
     0
176
     1
290
     0
176
     1
290
     0
176
     1
290
     0
176
     1
290
     0
176
     1
 90
       50
176
     1
 40
0.0
176
     1
 40
1.0
176
     1
 90
        0
176
     1
 62
    18
420
        0
176
     1
 90
       50
176
     1
 90
        3
176
     1
 62
     5
420
      255
176
     1
290
     0
176
     1
 90
       50
176
     1
 90
       50
176
     1
 90
       50
176
     1
290
     0
176
     1
 90
       50
176
     1
 62
   256
176
     0
 40
1.0
176
     0
 90
        2
176
     1
  1
strokes_ogs.tif
176
     1
290
     0
176
     1
 40
1.0
176
     1
 40
1.0
176
     1
  0
VISUALSTYLE
  5
30
102
{ACAD_REACTORS
330
2A
102
}
330
2A
100
AcDbVisualStyle
  2
Wireframe
 70
     5
177
     3
291
     0
 70
    58
 90
        0
176
     1
 90
        2
176
     1
 90
        0
176
     1
 90
        0
176
     1
 40
0.6
176
     1
 40
30.0
176
     1
 62
     7
420
 16777215
176
     1
 90
        1
176
     1
 90
        4
176
     1
 62
     7
176
     1
 62
   257
176
     1
 90
        1
176
     1
 90
        1
176
     1
 40
1.0
176
     1
 90
        0
176
     1
 62
   257
176
     1
 40
1.0
176
     1
 90
        1
176
     1
 90
        6
176
     1
 90
        2
176
     1
 62
     7
176
     1
 90
        3
176
     1
 90
        0
176
     1
 90
        0
176
     1
290
     0
176
     1
 90
        1
176
     1
 40
0.0
176
     1
 90
        0
176
     1
290
     0
176
     1
290
     1
176
     1
290
     1
176
     1
290
     0
176
     1
290
     0
176
     1
290
     0
176
     1
290
     0
176
     1
290
     0
176
     1
290
     0
176
     1
 90
       50
176
     1
 40
0.0
176
     1
 40
1.0
176
     1
 90
        0
176
     1
 62
    18
420
        0
176
     1
 90
       50
176
     1
 90
        3
176
     1
 62
     5
420
      255
176
     1
290
     0
176
     1
 90
       50
176
     1
 90
       50
176
     1
 90
       50
176
     1
290
     0
176
     1
 90
       50
176
     1
 62
   256
176
     0
 40
1.0
176
     0
 90
        2
176
     1
  1
strokes_ogs.tif
176
     1
290
     0
176
     1
 40
1.0
176
     1
 40
1.0
176
     1
  0
VISUALSTYLE
  5
40
102
{ACAD_REACTORS
330
2A
102
}
330
2A
100
AcDbVisualStyle
  2
X-Ray
 70
    25
177
     3
291
     0
 70
    58
 90
        2
176
     1
 90
        2
176
     1
 90
        1
176
     1
 90
        1
176
     1
 40
0.5
176
     1
 40
30.0
176
     1
 62
     7
420
 16777215
176
     1
 90
        1
176
     1
 90
        0
176
     1
 62
     7
176
     1
 62
   257
176
     1
 90
        1
176
     1
 90
        1
176
     1
 40
1.0
176
     1
 90
        8
176
     1
 62
     7
176
     1
 40
1.0
176
     1
 90
        1
176
     1
 90
        6
176
     1
 90
        2
176
     1
 62
     7
176
     1
 90
        3
176
     1
 90
        0
176
     1
 90
        0
176
     1
290
     0
176
     1
 90
       13
176
     1
 40
0.0
176
     1
 90
        0
176
     1
290
     0
176
     1
290
     1
176
     1
290
     1
176
     1
290
     0
176
     1
290
     0
176
     1
290
     0
176
     1
290
     0
176
     1
290
     0
176
     1
290
     0
176
     1
 90
       50
176
     1
 40
0.0
176
     1
 40
1.0
176
     1
 90
        0
176
     1
 62
    18
420
        0
176
     1
 90
       50
176
     1
 90
        3
176
     1
 62
     5
420
      255
176
     1
290
     0
176
     1
 90
       50
176
     1
 90
       50
176
     1
 90
       50
176
     1
290
     0
176
     1
 90
       50
176
     1
 62
   256
176
     0
 40
1.0
176
     0
 90
        2
176
     1
  1
strokes_ogs.tif
176
     1
290
     0
176
     1
 40
1.0
176
     1
 40
1.0
176
     1
  0
DICTIONARYVAR
  5
A6
102
{ACAD_REACTORS
330
A5
102
}
330
A5
100
DictionaryVariables
280
     0
  1
1:1
  0
DICTIONARYVAR
  5
AB
102
{ACAD_REACTORS
330
A5
102
}
330
A5
100
DictionaryVariables
280
     0
  1
Standard
  0
DICTIONARYVAR
  5
AA
102
{ACAD_REACTORS
330
A5
102
}
330
A5
100
DictionaryVariables
280
     0
  1
Standard
  0
DICTIONARY
  5
A7
330
5A
100
AcDbDictionary
280
     1
281
     1
  3
ACAD_ROUNDTRIP_2008_TABLESTYLE_CELLSTYLEMAP
360
A8
  0
CELLSTYLEMAP
  5
A8
102
{ACAD_REACTORS
330
A7
102
}
330
A7
100
AcDbCellStyleMap
 90
        3
300
CELLSTYLE
  1
TABLEFORMAT_BEGIN
 90
        5
170
     1
 91
        0
 92
    32768
 62
   257
 93
        1
300
CONTENTFORMAT
  1
CONTENTFORMAT_BEGIN
 90
        0
 91
        0
 92
        4
 93
        0
300

 40
0.0
140
1.0
 94
        5
 62
     0
340
11
144
0.25
309
CONTENTFORMAT_END
171
     1
301
MARGIN
  1
CELLMARGIN_BEGIN
 40
0.06
 40
0.06
 40
0.06
 40
0.06
 40
0.06
 40
0.06
309
CELLMARGIN_END
 94
        6
 95
        1
302
GRIDFORMAT
  1
GRIDFORMAT_BEGIN
 90
        0
 91
        1
 62
     0
 92
       -2
340
14
 93
        0
 40
0.045
309
GRIDFORMAT_END
 95
        2
302
GRIDFORMAT
  1
GRIDFORMAT_BEGIN
 90
        0
 91
        1
 62
     0
 92
       -2
340
14
 93
        0
 40
0.045
309
GRIDFORMAT_END
 95
        4
302
GRIDFORMAT
  1
GRIDFORMAT_BEGIN
 90
        0
 91
        1
 62
     0
 92
       -2
340
14
 93
        0
 40
0.045
309
GRIDFORMAT_END
 95
        8
302
GRIDFORMAT
  1
GRIDFORMAT_BEGIN
 90
        0
 91
        1
 62
     0
 92
       -2
340
14
 93
        0
 40
0.045
309
GRIDFORMAT_END
 95
       16
302
GRIDFORMAT
  1
GRIDFORMAT_BEGIN
 90
        0
 91
        1
 62
     0
 92
       -2
340
14
 93
        0
 40
0.045
309
GRIDFORMAT_END
 95
       32
302
GRIDFORMAT
  1
GRIDFORMAT_BEGIN
 90
        0
 91
        1
 62
     0
 92
       -2
340
14
 93
        0
 40
0.045
309
GRIDFORMAT_END
309
TABLEFORMAT_END
  1
CELLSTYLE_BEGIN
 90
        1
 91
        1
300
_TITLE
309
CELLSTYLE_END
300
CELLSTYLE
  1
TABLEFORMAT_BEGIN
 90
        5
170
     1
 91
        0
 92
        0
 62
   257
 93
        1
300
CONTENTFORMAT
  1
CONTENTFORMAT_BEGIN
 90
        0
 91
        0
 92
        4
 93
        0
300

 40
0.0
140
1.0
 94
        5
 62
     0
340
11
144
0.18
309
CONTENTFORMAT_END
171
     1
301
MARGIN
  1
CELLMARGIN_BEGIN
 40
0.06
 40
0.06
 40
0.06
 40
0.06
 40
0.06
 40
0.06
309
CELLMARGIN_END
 94
        6
 95
        1
302
GRIDFORMAT
  1
GRIDFORMAT_BEGIN
 90
        0
 91
        1
 62
     0
 92
       -2
340
14
 93
        0
 40
0.045
309
GRIDFORMAT_END
 95
        2
302
GRIDFORMAT
  1
GRIDFORMAT_BEGIN
 90
        0
 91
        1
 62
     0
 92
       -2
340
14
 93
        0
 40
0.045
309
GRIDFORMAT_END
 95
        4
302
GRIDFORMAT
  1
GRIDFORMAT_BEGIN
 90
        0
 91
        1
 62
     0
 92
       -2
340
14
 93
        0
 40
0.045
309
GRIDFORMAT_END
 95
        8
302
GRIDFORMAT
  1
GRIDFORMAT_BEGIN
 90
        0
 91
        1
 62
     0
 92
       -2
340
14
 93
        0
 40
0.045
309
GRIDFORMAT_END
 95
       16
302
GRIDFORMAT
  1
GRIDFORMAT_BEGIN
 90
        0
 91
        1
 62
     0
 92
       -2
340
14
 93
        0
 40
0.045
309
GRIDFORMAT_END
 95
       32
302
GRIDFORMAT
  1
GRIDFORMAT_BEGIN
 90
        0
 91
        1
 62
     0
 92
       -2
340
14
 93
        0
 40
0.045
309
GRIDFORMAT_END
309
TABLEFORMAT_END
  1
CELLSTYLE_BEGIN
 90
        2
 91
        1
300
_HEADER
309
CELLSTYLE_END
300
CELLSTYLE
  1
TABLEFORMAT_BEGIN
 90
        5
170
     1
 91
        0
 92
        0
 62
   257
 93
        1
300
CONTENTFORMAT
  1
CONTENTFORMAT_BEGIN
 90
        0
 91
        0
 92
        4
 93
        0
300

 40
0.0
140
1.0
 94
        2
 62
     0
340
11
144
0.18
309
CONTENTFORMAT_END
171
     1
301
MARGIN
  1
CELLMARGIN_BEGIN
 40
0.06
 40
0.06
 40
0.06
 40
0.06
 40
0.06
 40
0.06
309
CELLMARGIN_END
 94
        6
 95
        1
302
GRIDFORMAT
  1
GRIDFORMAT_BEGIN
 90
        0
 91
        1
 62
     0
 92
       -2
340
14
 93
        0
 40
0.045
309
GRIDFORMAT_END
 95
        2
302
GRIDFORMAT
  1
GRIDFORMAT_BEGIN
 90
        0
 91
        1
 62
     0
 92
       -2
340
14
 93
        0
 40
0.045
309
GRIDFORMAT_END
 95
        4
302
GRIDFORMAT
  1
GRIDFORMAT_BEGIN
 90
        0
 91
        1
 62
     0
 92
       -2
340
14
 93
        0
 40
0.045
309
GRIDFORMAT_END
 95
        8
302
GRIDFORMAT
  1
GRIDFORMAT_BEGIN
 90
        0
 91
        1
 62
     0
 92
       -2
340
14
 93
        0
 40
0.045
309
GRIDFORMAT_END
 95
       16
302
GRIDFORMAT
  1
GRIDFORMAT_BEGIN
 90
        0
 91
        1
 62
     0
 92
       -2
340
14
 93
        0
 40
0.045
309
GRIDFORMAT_END
 95
       32
302
GRIDFORMAT
  1
GRIDFORMAT_BEGIN
 90
        0
 91
        1
 62
     0
 92
       -2
340
14
 93
        0
 40
0.045
309
GRIDFORMAT_END
309
TABLEFORMAT_END
  1
CELLSTYLE_BEGIN
 90
        3
 91
        2
300
_DATA
309
CELLSTYLE_END
  0
ENDSEC
  0
EOF
