  0
SECTION
  2
HEADER
  9
$ACADVER
  1
AC1032
  9
$ACADMAINTVER
 90
       55
  9
$DWGCODEPAGE
  3
UNDEFINED
  9
$LASTSAVEDBY
  1
Administrator
  9
$REQUIREDVERSIONS
160
                 0
  9
$INSBASE
 10
0.0
 20
0.0
 30
0.0
  9
$EXTMIN
 10
-26.7058
 20
-15.4158
 30
0.0
  9
$EXTMAX
 10
13.4706
 20
24.7606
 30
0.0
  9
$LIMMIN
 10
0.0
 20
0.0
  9
$LIMMAX
 10
12.0
 20
9.0
  9
$ORTHOMODE
 70
     0
  9
$REGENMODE
 70
     1
  9
$FILLMODE
 70
     1
  9
$QTEXTMODE
 70
     0
  9
$MIRRTEXT
 70
     1
  9
$LTSCALE
 40
1.0
  9
$ATTMODE
 70
     1
  9
$TEXTSIZE
 40
0.2
  9
$TRACEWID
 40
0.05
  9
$TEXTSTYLE
  7
Standard
  9
$CLAYER
  8
0
  9
$CELTYPE
  6
ByLayer
  9
$CECOLOR
 62
   256
  9
$CELTSCALE
 40
1.0
  9
$DISPSILH
 70
     0
  9
$DIMSCALE
 40
1.0
  9
$DIMASZ
 40
0.18
  9
$DIMEXO
 40
0.0625
  9
$DIMDLI
 40
0.38
  9
$DIMRND
 40
0.0
  9
$DIMDLE
 40
0.0
  9
$DIMEXE
 40
0.18
  9
$DIMTP
 40
0.0
  9
$DIMTM
 40
0.0
  9
$DIMTXT
 40
0.18
  9
$DIMCEN
 40
0.09
  9
$DIMTSZ
 40
0.0
  9
$DIMTOL
 70
     0
  9
$DIMLIM
 70
     0
  9
$DIMTIH
 70
     1
  9
$DIMTOH
 70
     1
  9
$DIMSE1
 70
     0
  9
$DIMSE2
 70
     0
  9
$DIMTAD
 70
     0
  9
$DIMZIN
 70
     0
  9
$DIMBLK
  1

  9
$DIMASO
 70
     1
  9
$DIMSHO
 70
     1
  9
$DIMPOST
  1

  9
$DIMAPOST
  1

  9
$DIMALT
 70
     0
  9
$DIMALTD
 70
     2
  9
$DIMALTF
 40
25.4
  9
$DIMLFAC
 40
1.0
  9
$DIMTOFL
 70
     0
  9
$DIMTVP
 40
0.0
  9
$DIMTIX
 70
     0
  9
$DIMSOXD
 70
     0
  9
$DIMSAH
 70
     0
  9
$DIMBLK1
  1

  9
$DIMBLK2
  1

  9
$DIMSTYLE
  2
Standard
  9
$DIMCLRD
 70
     0
  9
$DIMCLRE
 70
     0
  9
$DIMCLRT
 70
     0
  9
$DIMTFAC
 40
1.0
  9
$DIMGAP
 40
0.09
  9
$DIMJUST
 70
     0
  9
$DIMSD1
 70
     0
  9
$DIMSD2
 70
     0
  9
$DIMTOLJ
 70
     1
  9
$DIMTZIN
 70
     0
  9
$DIMALTZ
 70
     0
  9
$DIMALTTZ
 70
     0
  9
$DIMUPT
 70
     0
  9
$DIMDEC
 70
     4
  9
$DIMTDEC
 70
     4
  9
$DIMALTU
 70
     2
  9
$DIMALTTD
 70
     2
  9
$DIMTXSTY
  7
Standard
  9
$DIMAUNIT
 70
     0
  9
$DIMADEC
 70
     0
  9
$DIMALTRND
 40
0.0
  9
$DIMAZIN
 70
     0
  9
$DIMDSEP
 70
    46
  9
$DIMATFIT
 70
     3
  9
$DIMFRAC
 70
     0
  9
$DIMLDRBLK
  1

  9
$DIMLUNIT
 70
     2
  9
$DIMLWD
 70
    -2
  9
$DIMLWE
 70
    -2
  9
$DIMTMOVE
 70
     0
  9
$DIMFXL
 40
1.0
  9
$DIMFXLON
 70
     0
  9
$DIMJOGANG
 40
0.7853981633974483
  9
$DIMTFILL
 70
     0
  9
$DIMTFILLCLR
 70
     0
  9
$DIMARCSYM
 70
     0
  9
$DIMLTYPE
  6

  9
$DIMLTEX1
  6

  9
$DIMLTEX2
  6

  9
$DIMTXTDIRECTION
 70
     0
  9
$LUNITS
 70
     2
  9
$LUPREC
 70
     4
  9
$SKETCHINC
 40
0.1
  9
$FILLETRAD
 40
0.0
  9
$AUNITS
 70
     0
  9
$AUPREC
 70
     0
  9
$MENU
  1
.
  9
$ELEVATION
 40
0.0
  9
$PELEVATION
 40
0.0
  9
$THICKNESS
 40
0.0
  9
$LIMCHECK
 70
     0
  9
$CHAMFERA
 40
0.0
  9
$CHAMFERB
 40
0.0
  9
$CHAMFERC
 40
0.0
  9
$CHAMFERD
 40
0.0
  9
$SKPOLY
 70
     0
  9
$TDCREATE
 40
2460356.544440278
  9
$TDUCREATE
 40
2460356.398606944
  9
$TDUPDATE
 40
2460356.544440533
  9
$TDUUPDATE
 40
2460356.398607199
  9
$TDINDWG
 40
0.0000000116
  9
$TDUSRTIMER
 40
0.0000000116
  9
$USRTIMER
 70
     1
  9
$ANGBASE
 50
0.0
  9
$ANGDIR
 70
     0
  9
$PDMODE
 70
     0
  9
$PDSIZE
 40
0.0
  9
$PLINEWID
 40
0.0
  9
$SPLFRAME
 70
     0
  9
$SPLINETYPE
 70
     6
  9
$SPLINESEGS
 70
     8
  9
$HANDSEED
  5
AE
  9
$SURFTAB1
 70
     6
  9
$SURFTAB2
 70
     6
  9
$SURFTYPE
 70
     6
  9
$SURFU
 70
     6
  9
$SURFV
 70
     6
  9
$UCSBASE
  2

  9
$UCSNAME
  2

  9
$UCSORG
 10
0.0
 20
0.0
 30
0.0
  9
$UCSXDIR
 10
1.0
 20
0.0
 30
0.0
  9
$UCSYDIR
 10
0.0
 20
1.0
 30
0.0
  9
$UCSORTHOREF
  2

  9
$UCSORTHOVIEW
 70
     0
  9
$UCSORGTOP
 10
0.0
 20
0.0
 30
0.0
  9
$UCSORGBOTTOM
 10
0.0
 20
0.0
 30
0.0
  9
$UCSORGLEFT
 10
0.0
 20
0.0
 30
0.0
  9
$UCSORGRIGHT
 10
0.0
 20
0.0
 30
0.0
  9
$UCSORGFRONT
 10
0.0
 20
0.0
 30
0.0
  9
$UCSORGBACK
 10
0.0
 20
0.0
 30
0.0
  9
$PUCSBASE
  2

  9
$PUCSNAME
  2

  9
$PUCSORG
 10
0.0
 20
0.0
 30
0.0
  9
$PUCSXDIR
 10
1.0
 20
0.0
 30
0.0
  9
$PUCSYDIR
 10
0.0
 20
1.0
 30
0.0
  9
$PUCSORTHOREF
  2

  9
$PUCSORTHOVIEW
 70
     0
  9
$PUCSORGTOP
 10
0.0
 20
0.0
 30
0.0
  9
$PUCSORGBOTTOM
 10
0.0
 20
0.0
 30
0.0
  9
$PUCSORGLEFT
 10
0.0
 20
0.0
 30
0.0
  9
$PUCSORGRIGHT
 10
0.0
 20
0.0
 30
0.0
  9
$PUCSORGFRONT
 10
0.0
 20
0.0
 30
0.0
  9
$PUCSORGBACK
 10
0.0
 20
0.0
 30
0.0
  9
$USERI1
 70
     0
  9
$USERI2
 70
     0
  9
$USERI3
 70
     0
  9
$USERI4
 70
     0
  9
$USERI5
 70
     0
  9
$USERR1
 40
0.0
  9
$USERR2
 40
0.0
  9
$USERR3
 40
0.0
  9
$USERR4
 40
0.0
  9
$USERR5
 40
0.0
  9
$WORLDVIEW
 70
     1
  9
$SHADEDGE
 70
     3
  9
$SHADEDIF
 70
    70
  9
$TILEMODE
 70
     1
  9
$MAXACTVP
 70
    64
  9
$PINSBASE
 10
0.0
 20
0.0
 30
0.0
  9
$PLIMCHECK
 70
     0
  9
$PEXTMIN
 10
1.000000000000000E+20
 20
1.000000000000000E+20
 30
1.000000000000000E+20
  9
$PEXTMAX
 10
-1.000000000000000E+20
 20
-1.000000000000000E+20
 30
-1.000000000000000E+20
  9
$PLIMMIN
 10
0.0
 20
0.0
  9
$PLIMMAX
 10
12.0
 20
9.0
  9
$UNITMODE
 70
     0
  9
$VISRETAIN
 70
     1
  9
$PLINEGEN
 70
     0
  9
$PSLTSCALE
 70
     1
  9
$TREEDEPTH
 70
  3020
  9
$CMLSTYLE
  2
Standard
  9
$CMLJUST
 70
     0
  9
$CMLSCALE
 40
1.0
  9
$PROXYGRAPHICS
 70
     1
  9
$MEASUREMENT
 70
     0
  9
$CELWEIGHT
370
    -1
  9
$ENDCAPS
280
     0
  9
$JOINSTYLE
280
     0
  9
$LWDISPLAY
290
     0
  9
$INSUNITS
 70
     4
  9
$HYPERLINKBASE
  1

  9
$STYLESHEET
  1

  9
$XEDIT
290
     1
  9
$CEPSNTYPE
380
     0
  9
$PSTYLEMODE
290
     1
  9
$FINGERPRINTGUID
  2
{e2a335e3-595c-49bf-9f9a-ed27ae5c573d}
  9
$VERSIONGUID
  2
{FAEB1C32-E019-11D5-929B-00C0DF256EC4}
  9
$EXTNAMES
290
     1
  9
$PSVPSCALE
 40
0.0
  9
$OLESTARTUP
290
     0
  9
$SORTENTS
280
   127
  9
$INDEXCTL
280
     0
  9
$HIDETEXT
280
     1
  9
$XCLIPFRAME
280
     2
  9
$HALOGAP
280
     0
  9
$OBSCOLOR
 70
   257
  9
$OBSLTYPE
280
     0
  9
$INTERSECTIONDISPLAY
280
     0
  9
$INTERSECTIONCOLOR
 70
   257
  9
$DIMASSOC
280
     2
  9
$PROJECTNAME
  1

  9
$CAMERADISPLAY
290
     0
  9
$LENSLENGTH
 40
50.0
  9
$CAMERAHEIGHT
 40
0.0
  9
$STEPSPERSEC
 40
2.0
  9
$STEPSIZE
 40
6.0
  9
$3DDWFPREC
 40
2.0
  9
$PSOLWIDTH
 40
0.25
  9
$PSOLHEIGHT
 40
4.0
  9
$LOFTANG1
 40
1.570796326794897
  9
$LOFTANG2
 40
1.570796326794897
  9
$LOFTMAG1
 40
0.0
  9
$LOFTMAG2
 40
0.0
  9
$LOFTPARAM
 70
     7
  9
$LOFTNORMALS
280
     1
  9
$LATITUDE
 40
37.795
  9
$LONGITUDE
 40
-122.394
  9
$NORTHDIRECTION
 40
0.0
  9
$TIMEZONE
 70
 -8000
  9
$LIGHTGLYPHDISPLAY
280
     1
  9
$TILEMODELIGHTSYNCH
280
     1
  9
$CMATERIAL
347
44
  9
$SOLIDHIST
280
     0
  9
$SHOWHIST
280
     1
  9
$DWFFRAME
280
     2
  9
$DGNFRAME
280
     2
  9
$REALWORLDSCALE
290
     1
  9
$INTERFERECOLOR
 62
   256
  9
$CSHADOW
280
     0
  9
$SHADOWPLANELOCATION
 40
0.0
  0
ENDSEC
  0
SECTION
  2
CLASSES
  0
CLASS
  1
ACDBDICTIONARYWDFLT
  2
AcDbDictionaryWithDefault
  3
ObjectDBX Classes
 90
        0
 91
        3
280
     0
281
     0
  0
CLASS
  1
VISUALSTYLE
  2
AcDbVisualStyle
  3
ObjectDBX Classes
 90
     4095
 91
        3
280
     0
281
     0
  0
CLASS
  1
MATERIAL
  2
AcDbMaterial
  3
ObjectDBX Classes
 90
     1153
 91
        3
280
     0
281
     0
  0
CLASS
  1
SCALE
  2
AcDbScale
  3
ObjectDBX Classes
 90
     1153
 91
        3
280
     0
281
     0
  0
CLASS
  1
TABLESTYLE
  2
AcDbTableStyle
  3
ObjectDBX Classes
 90
     4095
 91
        3
280
     0
281
     0
  0
CLASS
  1
MLEADERSTYLE
  2
AcDbMLeaderStyle
  3
ACDB_MLEADERSTYLE_CLASS
 90
     4095
 91
        3
280
     0
281
     0
  0
CLASS
  1
SUN
  2
AcDbSun
  3
SCENEOE
 90
     1153
 91
        3
280
     0
281
     0
  0
CLASS
  1
DICTIONARYVAR
  2
AcDbDictionaryVar
  3
ObjectDBX Classes
 90
        0
 91
        3
280
     0
281
     0
  0
CLASS
  1
CELLSTYLEMAP
  2
AcDbCellStyleMap
  3
ObjectDBX Classes
 90
     1152
 91
        3
280
     0
281
     0
  0
ENDSEC
  0
SECTION
  2
TABLES
  0
TABLE
  2
VPORT
  5
8
330
0
100
AcDbSymbolTable
 70
     1
  0
VPORT
  5
29
330
8
100
AcDbSymbolTableRecord
100
AcDbViewportTableRecord
  2
*Active
 70
     0
 10
0.0
 20
0.0
 11
1.0
 21
1.0
 12
10.42990654205607
 22
4.5
 13
0.0
 23
0.0
 14
0.5
 24
0.5
 15
0.5
 25
0.5
 16
0.0
 26
0.0
 36
1.0
 17
0.0
 27
0.0
 37
0.0
 40
9.0
 41
1.972972972850329
 42
50.0
 43
0.0
 44
0.0
 50
0.0
 51
0.0
 71
     0
 72
   100
 73
     1
 74
     3
 75
     0
 76
     0
 77
     0
 78
     0
281
     0
 65
     1
110
0.0
120
0.0
130
0.0
111
1.0
121
0.0
131
0.0
112
0.0
122
1.0
132
0.0
 79
     0
146
0.0
348
2F
 60
     3
 61
     5
292
     1
282
     1
141
0.0
142
0.0
 63
   250
361
5D
  0
ENDTAB
  0
TABLE
  2
LTYPE
  5
5
330
0
100
AcDbSymbolTable
 70
     1
  0
LTYPE
  5
14
330
5
100
AcDbSymbolTableRecord
100
AcDbLinetypeTableRecord
  2
ByBlock
 70
     0
  3

 72
    65
 73
     0
 40
0.0
  0
LTYPE
  5
15
330
5
100
AcDbSymbolTableRecord
100
AcDbLinetypeTableRecord
  2
ByLayer
 70
     0
  3

 72
    65
 73
     0
 40
0.0
  0
LTYPE
  5
16
330
5
100
AcDbSymbolTableRecord
100
AcDbLinetypeTableRecord
  2
Continuous
 70
     0
  3
Solid line
 72
    65
 73
     0
 40
0.0
  0
ENDTAB
  0
TABLE
  2
LAYER
  5
2
330
0
100
AcDbSymbolTable
 70
     2
  0
LAYER
  5
10
330
2
100
AcDbSymbolTableRecord
100
AcDbLayerTableRecord
  2
0
 70
     0
 62
     7
  6
Continuous
370
    -3
390
F
347
46
348
0
  0
LAYER
  5
5F
330
2
100
AcDbSymbolTableRecord
100
AcDbLayerTableRecord
  2
Layer 1
 70
     0
 62
     7
  6
Continuous
370
    -3
390
F
347
46
348
0
  0
ENDTAB
  0
TABLE
  2
STYLE
  5
3
330
0
100
AcDbSymbolTable
 70
     1
  0
STYLE
  5
11
330
3
100
AcDbSymbolTableRecord
100
AcDbTextStyleTableRecord
  2
Standard
 70
     0
 40
0.0
 41
1.0
 50
0.0
 71
     0
 42
0.2
  3
txt
  4

  0
ENDTAB
  0
TABLE
  2
VIEW
  5
6
330
0
100
AcDbSymbolTable
 70
     0
  0
ENDTAB
  0
TABLE
  2
UCS
  5
7
330
0
100
AcDbSymbolTable
 70
     0
  0
ENDTAB
  0
TABLE
  2
APPID
  5
9
330
0
100
AcDbSymbolTable
 70
     2
  0
APPID
  5
12
330
9
100
AcDbSymbolTableRecord
100
AcDbRegAppTableRecord
  2
ACAD
 70
     0
  0
APPID
  5
5E
330
9
100
AcDbSymbolTableRecord
100
AcDbRegAppTableRecord
  2
ODA
 70
     0
  0
ENDTAB
  0
TABLE
  2
DIMSTYLE
  5
A
330
0
100
AcDbSymbolTable
 70
     1
100
AcDbDimStyleTable
  0
DIMSTYLE
105
27
330
A
100
AcDbSymbolTableRecord
100
AcDbDimStyleTableRecord
  2
Standard
 70
     0
178
     0
340
11
  0
ENDTAB
  0
TABLE
  2
BLOCK_RECORD
  5
1
330
0
100
AcDbSymbolTable
 70
     1
  0
BLOCK_RECORD
  5
1F
330
1
100
AcDbSymbolTableRecord
100
AcDbBlockTableRecord
  2
*Model_Space
340
22
 70
     0
280
     1
281
     0
  0
BLOCK_RECORD
  5
1B
330
1
100
AcDbSymbolTableRecord
100
AcDbBlockTableRecord
  2
*Paper_Space
340
1E
 70
     0
280
     1
281
     0
  0
BLOCK_RECORD
  5
23
330
1
100
AcDbSymbolTableRecord
100
AcDbBlockTableRecord
  2
*Paper_Space0
340
26
 70
     0
280
     1
281
     0
  0
ENDTAB
  0
ENDSEC
  0
SECTION
  2
BLOCKS
  0
BLOCK
  5
20
330
1F
100
AcDbEntity
  8
0
100
AcDbBlockBegin
  2
*Model_Space
 70
     0
 10
0.0
 20
0.0
 30
0.0
  3
*Model_Space
  1

  0
ENDBLK
  5
21
330
1F
100
AcDbEntity
  8
0
100
AcDbBlockEnd
  0
BLOCK
  5
1C
330
1B
100
AcDbEntity
 67
     1
  8
0
100
AcDbBlockBegin
  2
*Paper_Space
 70
     0
 10
0.0
 20
0.0
 30
0.0
  3
*Paper_Space
  1

  0
ENDBLK
  5
1D
330
1B
100
AcDbEntity
 67
     1
  8
0
100
AcDbBlockEnd
  0
BLOCK
  5
24
330
23
100
AcDbEntity
  8
0
100
AcDbBlockBegin
  2
*Paper_Space0
 70
     0
 10
0.0
 20
0.0
 30
0.0
  3
*Paper_Space0
  1

  0
ENDBLK
  5
25
330
23
100
AcDbEntity
  8
0
100
AcDbBlockEnd
  0
ENDSEC
  0
SECTION
  2
ENTITIES
  0
SPLINE
  5
60
330
1F
100
AcDbEntity
  8
Layer 1
 62
   250
370
     9
100
AcDbSpline
210
0.0
220
0.0
230
1.0
 70
    11
 71
     3
 72
    56
 73
    52
 74
     0
 42
0.0000000001
 43
0.0000000001
 40
0.0
 40
0.0
 40
0.0
 40
0.0
 40
0.0588235294117647
 40
0.0588235294117647
 40
0.0588235294117647
 40
0.1176470588235294
 40
0.1176470588235294
 40
0.1176470588235294
 40
0.1764705882352941
 40
0.1764705882352941
 40
0.1764705882352941
 40
0.2352941176470588
 40
0.2352941176470588
 40
0.2352941176470588
 40
0.2941176470588235
 40
0.2941176470588235
 40
0.2941176470588235
 40
0.3529411764705882
 40
0.3529411764705882
 40
0.3529411764705882
 40
0.4117647058823529
 40
0.4117647058823529
 40
0.4117647058823529
 40
0.4705882352941176
 40
0.4705882352941176
 40
0.4705882352941176
 40
0.5294117647058824
 40
0.5294117647058824
 40
0.5294117647058824
 40
0.5882352941176471
 40
0.5882352941176471
 40
0.5882352941176471
 40
0.6470588235294118
 40
0.6470588235294118
 40
0.6470588235294118
 40
0.7058823529411764
 40
0.7058823529411764
 40
0.7058823529411764
 40
0.7647058823529411
 40
0.7647058823529411
 40
0.7647058823529411
 40
0.8235294117647058
 40
0.8235294117647058
 40
0.8235294117647058
 40
0.8823529411764706
 40
0.8823529411764706
 40
0.8823529411764706
 40
0.9411764705882353
 40
0.9411764705882353
 40
0.9411764705882353
 40
1.0
 40
1.0
 40
1.0
 40
1.0
 10
-23.851
 20
9.4862
 30
0.0
 10
-23.851
 20
9.3752
 30
0.0
 10
-23.851
 20
9.2673
 30
0.0
 10
-23.851
 20
9.1595
 30
0.0
 10
-23.8508
 20
8.0791
 30
0.0
 10
-23.8543
 20
6.9989
 30
0.0
 10
-23.8468
 20
5.9185
 30
0.0
 10
-23.8457
 20
5.7456
 30
0.0
 10
-23.9032
 20
5.6948
 30
0.0
 10
-24.0684
 20
5.6988
 30
0.0
 10
-24.4654
 20
5.7078
 30
0.0
 10
-24.4048
 20
5.6844
 30
0.0
 10
-24.4051
 20
6.0409
 30
0.0
 10
-24.4067
 20
7.6708
 30
0.0
 10
-24.4034
 20
9.3009
 30
0.0
 10
-24.4095
 20
10.931
 30
0.0
 10
-24.4102
 20
11.1064
 30
0.0
 10
-24.361
 20
11.1648
 30
0.0
 10
-24.1835
 20
11.158
 30
0.0
 10
-23.7785
 20
11.1422
 30
0.0
 10
-23.8613
 20
11.1971
 30
0.0
 10
-23.7891
 20
10.821
 30
0.0
 10
-23.4338
 20
8.9671
 30
0.0
 10
-21.1832
 20
8.0739
 30
0.0
 10
-19.6604
 20
9.1878
 30
0.0
 10
-19.1429
 20
9.5661
 30
0.0
 10
-18.789
 20
10.0665
 30
0.0
 10
-18.6297
 20
10.6949
 30
0.0
 10
-18.6169
 20
10.7459
 30
0.0
 10
-18.6005
 20
10.7961
 30
0.0
 10
-18.5844
 20
10.846
 30
0.0
 10
-18.58
 20
10.8588
 30
0.0
 10
-18.5697
 20
10.8695
 30
0.0
 10
-18.5556
 20
10.8917
 30
0.0
 10
-18.4178
 20
10.758
 30
0.0
 10
-18.2783
 20
10.6313
 30
0.0
 10
-18.1514
 20
10.4929
 30
0.0
 10
-18.1267
 20
10.466
 30
0.0
 10
-18.1393
 20
10.3912
 30
0.0
 10
-18.1539
 20
10.3446
 30
0.0
 10
-18.5827
 20
8.9711
 30
0.0
 10
-20.0173
 20
8.0214
 30
0.0
 10
-21.4401
 20
8.1546
 30
0.0
 10
-22.3927
 20
8.2441
 30
0.0
 10
-23.1576
 20
8.6655
 30
0.0
 10
-23.7469
 20
9.414
 30
0.0
 10
-23.7647
 20
9.4365
 30
0.0
 10
-23.7839
 20
9.4578
 30
0.0
 10
-23.8041
 20
9.478
 30
0.0
 10
-23.8095
 20
9.4832
 30
0.0
 10
-23.8214
 20
9.4814
 30
0.0
 10
-23.851
 20
9.4862
 30
0.0
  0
SPLINE
  5
61
330
1F
100
AcDbEntity
  8
Layer 1
 62
   250
370
     9
100
AcDbSpline
210
0.0
220
0.0
230
1.0
 70
    11
 71
     3
 72
    53
 73
    49
 74
     0
 42
0.0000000001
 43
0.0000000001
 40
0.0
 40
0.0
 40
0.0
 40
0.0
 40
0.0625
 40
0.0625
 40
0.0625
 40
0.125
 40
0.125
 40
0.125
 40
0.1875
 40
0.1875
 40
0.1875
 40
0.25
 40
0.25
 40
0.25
 40
0.3125
 40
0.3125
 40
0.3125
 40
0.375
 40
0.375
 40
0.375
 40
0.4375
 40
0.4375
 40
0.4375
 40
0.5
 40
0.5
 40
0.5
 40
0.5625
 40
0.5625
 40
0.5625
 40
0.625
 40
0.625
 40
0.625
 40
0.6875
 40
0.6875
 40
0.6875
 40
0.75
 40
0.75
 40
0.75
 40
0.8125
 40
0.8125
 40
0.8125
 40
0.875
 40
0.875
 40
0.875
 40
0.9375
 40
0.9375
 40
0.9375
 40
1.0
 40
1.0
 40
1.0
 40
1.0
 10
-14.6833
 20
13.2057
 30
0.0
 10
-14.6833
 20
13.284
 30
0.0
 10
-14.6833
 20
13.3358
 30
0.0
 10
-14.6833
 20
13.3875
 30
0.0
 10
-14.6833
 20
14.5252
 30
0.0
 10
-14.6808
 20
15.6629
 30
0.0
 10
-14.6863
 20
16.8007
 30
0.0
 10
-14.6872
 20
16.9541
 30
0.0
 10
-14.6475
 20
17.0127
 30
0.0
 10
-14.4862
 20
17.0065
 30
0.0
 10
-14.0918
 20
16.9913
 30
0.0
 10
-14.1317
 20
17.0517
 30
0.0
 10
-14.1314
 20
16.6533
 30
0.0
 10
-14.1303
 20
15.0565
 30
0.0
 10
-14.1335
 20
13.4599
 30
0.0
 10
-14.1275
 20
11.8634
 30
0.0
 10
-14.1268
 20
11.6867
 30
0.0
 10
-14.166
 20
11.6172
 30
0.0
 10
-14.3575
 20
11.6279
 30
0.0
 10
-14.6777
 20
11.6458
 30
0.0
 10
-14.6782
 20
11.6338
 30
0.0
 10
-14.7515
 20
11.9409
 30
0.0
 10
-15.0349
 20
13.1296
 30
0.0
 10
-16.0583
 20
13.9685
 30
0.0
 10
-17.2777
 20
14.0111
 30
0.0
 10
-18.4591
 20
14.0525
 30
0.0
 10
-19.5919
 20
13.2007
 30
0.0
 10
-19.8857
 20
12.0521
 30
0.0
 10
-19.9005
 20
11.9945
 30
0.0
 10
-19.9339
 20
11.9419
 30
0.0
 10
-19.9587
 20
11.8869
 30
0.0
 10
-20.0103
 20
11.9241
 30
0.0
 10
-20.0703
 20
11.9536
 30
0.0
 10
-20.112
 20
11.9998
 30
0.0
 10
-20.4257
 20
12.3476
 30
0.0
 10
-20.4245
 20
12.3486
 30
0.0
 10
-20.2063
 20
12.7784
 30
0.0
 10
-19.4963
 20
14.1765
 30
0.0
 10
-17.9661
 20
14.8626
 30
0.0
 10
-16.4659
 20
14.4431
 30
0.0
 10
-15.8129
 20
14.2605
 30
0.0
 10
-15.272
 20
13.8951
 30
0.0
 10
-14.8437
 20
13.3671
 30
0.0
 10
-14.8105
 20
13.3263
 30
0.0
 10
-14.7781
 20
13.2848
 30
0.0
 10
-14.744
 20
13.245
 30
0.0
 10
-14.7353
 20
13.235
 30
0.0
 10
-14.7212
 20
13.2298
 30
0.0
 10
-14.6833
 20
13.2057
 30
0.0
  0
SPLINE
  5
62
330
1F
100
AcDbEntity
  8
Layer 1
 62
   250
370
     9
100
AcDbSpline
210
0.0
220
0.0
230
1.0
 70
    11
 71
     3
 72
    68
 73
    64
 74
     0
 42
0.0000000001
 43
0.0000000001
 40
0.0
 40
0.0
 40
0.0
 40
0.0
 40
0.0476190476190476
 40
0.0476190476190476
 40
0.0476190476190476
 40
0.0952380952380952
 40
0.0952380952380952
 40
0.0952380952380952
 40
0.1428571428571428
 40
0.1428571428571428
 40
0.1428571428571428
 40
0.1904761904761905
 40
0.1904761904761905
 40
0.1904761904761905
 40
0.2380952380952381
 40
0.2380952380952381
 40
0.2380952380952381
 40
0.2857142857142857
 40
0.2857142857142857
 40
0.2857142857142857
 40
0.3333333333333333
 40
0.3333333333333333
 40
0.3333333333333333
 40
0.3809523809523809
 40
0.3809523809523809
 40
0.3809523809523809
 40
0.4285714285714285
 40
0.4285714285714285
 40
0.4285714285714285
 40
0.4761904761904762
 40
0.4761904761904762
 40
0.4761904761904762
 40
0.5238095238095237
 40
0.5238095238095237
 40
0.5238095238095237
 40
0.5714285714285714
 40
0.5714285714285714
 40
0.5714285714285714
 40
0.6190476190476191
 40
0.6190476190476191
 40
0.6190476190476191
 40
0.6666666666666666
 40
0.6666666666666666
 40
0.6666666666666666
 40
0.7142857142857142
 40
0.7142857142857142
 40
0.7142857142857142
 40
0.7619047619047619
 40
0.7619047619047619
 40
0.7619047619047619
 40
0.8095238095238095
 40
0.8095238095238095
 40
0.8095238095238095
 40
0.8571428571428571
 40
0.8571428571428571
 40
0.8571428571428571
 40
0.9047619047619047
 40
0.9047619047619047
 40
0.9047619047619047
 40
0.9523809523809523
 40
0.9523809523809523
 40
0.9523809523809523
 40
1.0
 40
1.0
 40
1.0
 40
1.0
 10
-8.2419
 20
12.9789
 30
0.0
 10
-8.2418
 20
12.3477
 30
0.0
 10
-8.2448
 20
11.7165
 30
0.0
 10
-8.2392
 20
11.0853
 30
0.0
 10
-8.2381
 20
10.9413
 30
0.0
 10
-8.274
 20
10.8826
 30
0.0
 10
-8.4318
 20
10.8844
 30
0.0
 10
-8.9406
 20
10.891
 30
0.0
 10
-8.9405
 20
10.8851
 30
0.0
 10
-8.9401
 20
11.3969
 30
0.0
 10
-8.9399
 20
11.8656
 30
0.0
 10
-8.9431
 20
12.3341
 30
0.0
 10
-8.9383
 20
12.8028
 30
0.0
 10
-8.9369
 20
12.9204
 30
0.0
 10
-8.9752
 20
12.9618
 30
0.0
 10
-9.0944
 20
12.961
 30
0.0
 10
-9.7543
 20
12.9568
 30
0.0
 10
-10.4143
 20
12.9566
 30
0.0
 10
-11.0742
 20
12.9611
 30
0.0
 10
-11.201
 20
12.9619
 30
0.0
 10
-11.2398
 20
12.9155
 30
0.0
 10
-11.239
 20
12.7931
 30
0.0
 10
-11.2348
 20
12.2243
 30
0.0
 10
-11.2403
 20
11.6551
 30
0.0
 10
-11.2348
 20
11.0861
 30
0.0
 10
-11.2334
 20
10.9428
 30
0.0
 10
-11.2702
 20
10.8829
 30
0.0
 10
-11.4281
 20
10.8844
 30
0.0
 10
-11.9537
 20
10.8892
 30
0.0
 10
-11.9537
 20
10.8834
 30
0.0
 10
-11.9537
 20
11.4075
 30
0.0
 10
-11.954
 20
12.5553
 30
0.0
 10
-11.9512
 20
13.703
 30
0.0
 10
-11.9577
 20
14.8505
 30
0.0
 10
-11.9586
 20
15.0218
 30
0.0
 10
-11.9137
 20
15.0867
 30
0.0
 10
-11.7332
 20
15.0833
 30
0.0
 10
-11.2372
 20
15.074
 30
0.0
 10
-11.237
 20
15.0811
 30
0.0
 10
-11.2371
 20
14.5788
 30
0.0
 10
-11.2371
 20
14.1627
 30
0.0
 10
-11.2341
 20
13.7467
 30
0.0
 10
-11.2396
 20
13.3308
 30
0.0
 10
-11.2413
 20
13.2014
 30
0.0
 10
-11.1973
 20
13.1536
 30
0.0
 10
-11.0655
 20
13.1544
 30
0.0
 10
-10.4106
 20
13.159
 30
0.0
 10
-9.7553
 20
13.159
 30
0.0
 10
-9.1002
 20
13.1544
 30
0.0
 10
-8.9718
 20
13.1536
 30
0.0
 10
-8.937
 20
13.2031
 30
0.0
 10
-8.9383
 20
13.3242
 30
0.0
 10
-8.9428
 20
13.8501
 30
0.0
 10
-8.937
 20
14.3762
 30
0.0
 10
-8.9425
 20
14.9022
 30
0.0
 10
-8.9439
 20
15.0328
 30
0.0
 10
-8.8982
 20
15.0778
 30
0.0
 10
-8.7689
 20
15.0805
 30
0.0
 10
-8.2422
 20
15.0913
 30
0.0
 10
-8.2422
 20
15.0942
 30
0.0
 10
-8.2422
 20
14.5713
 30
0.0
 10
-8.2422
 20
14.0405
 30
0.0
 10
-8.2422
 20
13.5097
 30
0.0
 10
-8.2419
 20
12.9789
 30
0.0
  0
SPLINE
  5
63
330
1F
100
AcDbEntity
  8
Layer 1
 62
   250
370
     9
100
AcDbSpline
210
0.0
220
0.0
230
1.0
 70
    11
 71
     3
 72
    47
 73
    43
 74
     0
 42
0.0000000001
 43
0.0000000001
 40
0.0
 40
0.0
 40
0.0
 40
0.0
 40
0.0714285714285714
 40
0.0714285714285714
 40
0.0714285714285714
 40
0.1428571428571428
 40
0.1428571428571428
 40
0.1428571428571428
 40
0.2142857142857143
 40
0.2142857142857143
 40
0.2142857142857143
 40
0.2857142857142857
 40
0.2857142857142857
 40
0.2857142857142857
 40
0.3571428571428571
 40
0.3571428571428571
 40
0.3571428571428571
 40
0.4285714285714285
 40
0.4285714285714285
 40
0.4285714285714285
 40
0.5
 40
0.5
 40
0.5
 40
0.5714285714285714
 40
0.5714285714285714
 40
0.5714285714285714
 40
0.6428571428571428
 40
0.6428571428571428
 40
0.6428571428571428
 40
0.7142857142857142
 40
0.7142857142857142
 40
0.7142857142857142
 40
0.7857142857142857
 40
0.7857142857142857
 40
0.7857142857142857
 40
0.8571428571428571
 40
0.8571428571428571
 40
0.8571428571428571
 40
0.9285714285714285
 40
0.9285714285714285
 40
0.9285714285714285
 40
1.0
 40
1.0
 40
1.0
 40
1.0
 10
-14.6829
 20
9.4792
 30
0.0
 10
-14.9395
 20
9.2375
 30
0.0
 10
-15.1703
 20
8.9892
 30
0.0
 10
-15.4317
 20
8.779
 30
0.0
 10
-16.4032
 20
7.9982
 30
0.0
 10
-17.9935
 20
7.9339
 30
0.0
 10
-19.0153
 20
8.6244
 30
0.0
 10
-19.0387
 20
8.6401
 30
0.0
 10
-19.027
 20
8.7089
 30
0.0
 10
-19.0294
 20
8.7531
 30
0.0
 10
-19.0298
 20
8.7586
 30
0.0
 10
-19.0141
 20
8.764
 30
0.0
 10
-19.0085
 20
8.7713
 30
0.0
 10
-18.8155
 20
9.0287
 30
0.0
 10
-18.6226
 20
9.0287
 30
0.0
 10
-18.3119
 20
8.9036
 30
0.0
 10
-16.6888
 20
8.251
 30
0.0
 10
-14.9604
 20
9.2816
 30
0.0
 10
-14.7007
 20
11.0182
 30
0.0
 10
-14.6931
 20
11.0695
 30
0.0
 10
-14.6111
 20
11.1477
 30
0.0
 10
-14.563
 20
11.1483
 30
0.0
 10
-14.0571
 20
11.1538
 30
0.0
 10
-14.1329
 20
11.2131
 30
0.0
 10
-14.1321
 20
10.7495
 30
0.0
 10
-14.1289
 20
9.1475
 30
0.0
 10
-14.1336
 20
7.5454
 30
0.0
 10
-14.1273
 20
5.9434
 30
0.0
 10
-14.1266
 20
5.7584
 30
0.0
 10
-14.1751
 20
5.6728
 30
0.0
 10
-14.3676
 20
5.7016
 30
0.0
 10
-14.4098
 20
5.7078
 30
0.0
 10
-14.4539
 20
5.7052
 30
0.0
 10
-14.4966
 20
5.7013
 30
0.0
 10
-14.6373
 20
5.6884
 30
0.0
 10
-14.6872
 20
5.7447
 30
0.0
 10
-14.6866
 20
5.8909
 30
0.0
 10
-14.6809
 20
7.0099
 30
0.0
 10
-14.6833
 20
8.1289
 30
0.0
 10
-14.6829
 20
9.248
 30
0.0
 10
-14.6829
 20
9.3238
 30
0.0
 10
-14.6829
 20
9.3996
 30
0.0
 10
-14.6829
 20
9.4792
 30
0.0
  0
SPLINE
  5
64
330
1F
100
AcDbEntity
  8
Layer 1
 62
   250
370
     9
100
AcDbSpline
210
0.0
220
0.0
230
1.0
 70
    11
 71
     3
 72
    44
 73
    40
 74
     0
 42
0.0000000001
 43
0.0000000001
 40
0.0
 40
0.0
 40
0.0
 40
0.0
 40
0.0769230769230769
 40
0.0769230769230769
 40
0.0769230769230769
 40
0.1538461538461539
 40
0.1538461538461539
 40
0.1538461538461539
 40
0.2307692307692308
 40
0.2307692307692308
 40
0.2307692307692308
 40
0.3076923076923077
 40
0.3076923076923077
 40
0.3076923076923077
 40
0.3846153846153846
 40
0.3846153846153846
 40
0.3846153846153846
 40
0.4615384615384616
 40
0.4615384615384616
 40
0.4615384615384616
 40
0.5384615384615385
 40
0.5384615384615385
 40
0.5384615384615385
 40
0.6153846153846154
 40
0.6153846153846154
 40
0.6153846153846154
 40
0.6923076923076923
 40
0.6923076923076923
 40
0.6923076923076923
 40
0.7692307692307693
 40
0.7692307692307693
 40
0.7692307692307693
 40
0.8461538461538463
 40
0.8461538461538463
 40
0.8461538461538463
 40
0.9230769230769231
 40
0.9230769230769231
 40
0.9230769230769231
 40
1.0
 40
1.0
 40
1.0
 40
1.0
 10
-19.4371
 20
14.0313
 30
0.0
 10
-19.57
 20
13.9045
 30
0.0
 10
-19.685
 20
13.7845
 30
0.0
 10
-19.8131
 20
13.6803
 30
0.0
 10
-19.8407
 20
13.6577
 30
0.0
 10
-19.9214
 20
13.679
 30
0.0
 10
-19.9666
 20
13.7019
 30
0.0
 10
-20.7215
 20
14.0841
 30
0.0
 10
-21.4952
 20
14.1227
 30
0.0
 10
-22.2636
 20
13.7754
 30
0.0
 10
-23.0971
 20
13.3985
 30
0.0
 10
-23.6155
 20
12.7464
 30
0.0
 10
-23.7927
 20
11.843
 30
0.0
 10
-23.8234
 20
11.685
 30
0.0
 10
-23.8734
 20
11.6248
 30
0.0
 10
-24.0391
 20
11.6292
 30
0.0
 10
-24.4056
 20
11.6396
 30
0.0
 10
-24.4061
 20
11.6313
 30
0.0
 10
-24.4061
 20
12.0012
 30
0.0
 10
-24.4058
 20
13.5936
 30
0.0
 10
-24.4034
 20
15.1861
 30
0.0
 10
-24.4092
 20
16.7787
 30
0.0
 10
-24.4098
 20
16.9516
 30
0.0
 10
-24.3649
 20
17.015
 30
0.0
 10
-24.185
 20
17.0079
 30
0.0
 10
-23.8037
 20
16.993
 30
0.0
 10
-23.8524
 20
17.0316
 30
0.0
 10
-23.8519
 20
16.676
 30
0.0
 10
-23.8503
 20
15.5856
 30
0.0
 10
-23.8514
 20
14.4953
 30
0.0
 10
-23.8514
 20
13.4048
 30
0.0
 10
-23.8514
 20
13.3449
 30
0.0
 10
-23.8514
 20
13.2851
 30
0.0
 10
-23.8514
 20
13.1678
 30
0.0
 10
-23.1184
 20
14.1177
 30
0.0
 10
-22.2056
 20
14.5976
 30
0.0
 10
-21.0515
 20
14.5581
 30
0.0
 10
-20.4741
 20
14.5384
 30
0.0
 10
-19.9379
 20
14.3689
 30
0.0
 10
-19.4371
 20
14.0313
 30
0.0
  0
SPLINE
  5
65
330
1F
100
AcDbEntity
  8
Layer 1
 62
   250
370
     9
100
AcDbSpline
210
0.0
220
0.0
230
1.0
 70
    11
 71
     3
 72
    56
 73
    52
 74
     0
 42
0.0000000001
 43
0.0000000001
 40
0.0
 40
0.0
 40
0.0
 40
0.0
 40
0.0588235294117647
 40
0.0588235294117647
 40
0.0588235294117647
 40
0.1176470588235294
 40
0.1176470588235294
 40
0.1176470588235294
 40
0.1764705882352941
 40
0.1764705882352941
 40
0.1764705882352941
 40
0.2352941176470588
 40
0.2352941176470588
 40
0.2352941176470588
 40
0.2941176470588235
 40
0.2941176470588235
 40
0.2941176470588235
 40
0.3529411764705882
 40
0.3529411764705882
 40
0.3529411764705882
 40
0.4117647058823529
 40
0.4117647058823529
 40
0.4117647058823529
 40
0.4705882352941176
 40
0.4705882352941176
 40
0.4705882352941176
 40
0.5294117647058824
 40
0.5294117647058824
 40
0.5294117647058824
 40
0.5882352941176471
 40
0.5882352941176471
 40
0.5882352941176471
 40
0.6470588235294118
 40
0.6470588235294118
 40
0.6470588235294118
 40
0.7058823529411764
 40
0.7058823529411764
 40
0.7058823529411764
 40
0.7647058823529411
 40
0.7647058823529411
 40
0.7647058823529411
 40
0.8235294117647058
 40
0.8235294117647058
 40
0.8235294117647058
 40
0.8823529411764706
 40
0.8823529411764706
 40
0.8823529411764706
 40
0.9411764705882353
 40
0.9411764705882353
 40
0.9411764705882353
 40
1.0
 40
1.0
 40
1.0
 40
1.0
 10
-6.7778
 20
11.8368
 30
0.0
 10
-6.7467
 20
11.748
 30
0.0
 10
-6.7088
 20
11.666
 30
0.0
 10
-6.6642
 20
11.5912
 30
0.0
 10
-6.6642
 20
11.5912
 30
0.0
 10
-6.6641
 20
11.5909
 30
0.0
 10
-6.6641
 20
11.5909
 30
0.0
 10
-6.6641
 20
11.5909
 30
0.0
 10
-6.6633
 20
11.5896
 30
0.0
 10
-6.6633
 20
11.5896
 30
0.0
 10
-6.4722
 20
11.2431
 30
0.0
 10
-6.1462
 20
11.0414
 30
0.0
 10
-5.7083
 20
11.0187
 30
0.0
 10
-5.1918
 20
10.992
 30
0.0
 10
-4.7784
 20
11.1917
 30
0.0
 10
-4.5655
 20
11.668
 30
0.0
 10
-4.434
 20
11.9627
 30
0.0
 10
-4.3502
 20
12.2914
 30
0.0
 10
-4.3123
 20
12.6127
 30
0.0
 10
-4.2455
 20
13.1768
 30
0.0
 10
-4.2824
 20
13.7416
 30
0.0
 10
-4.5418
 20
14.2644
 30
0.0
 10
-4.5588
 20
14.2987
 30
0.0
 10
-4.5764
 20
14.3317
 30
0.0
 10
-4.5952
 20
14.3633
 30
0.0
 10
-4.5952
 20
14.3633
 30
0.0
 10
-4.5962
 20
14.3651
 30
0.0
 10
-4.5962
 20
14.3651
 30
0.0
 10
-4.5962
 20
14.3651
 30
0.0
 10
-4.5963
 20
14.3653
 30
0.0
 10
-4.5963
 20
14.3653
 30
0.0
 10
-4.8201
 20
14.7706
 30
0.0
 10
-5.172
 20
14.9806
 30
0.0
 10
-5.6542
 20
14.9773
 30
0.0
 10
-6.1454
 20
14.9737
 30
0.0
 10
-6.5036
 20
14.7548
 30
0.0
 10
-6.7279
 20
14.3197
 30
0.0
 10
-6.9394
 20
13.9092
 30
0.0
 10
-6.9893
 20
13.4659
 30
0.0
 10
-6.9821
 20
13.0119
 30
0.0
 10
-6.9821
 20
13.0119
 30
0.0
 10
-6.9765
 20
12.9798
 30
0.0
 10
-6.9765
 20
12.9798
 30
0.0
 10
-6.9765
 20
12.9798
 30
0.0
 10
-6.9769
 20
12.978
 30
0.0
 10
-6.9769
 20
12.978
 30
0.0
 10
-6.9541
 20
12.4618
 30
0.0
 10
-6.8967
 20
12.2134
 30
0.0
 10
-6.7865
 20
11.8871
 30
0.0
 10
-6.7865
 20
11.8871
 30
0.0
 10
-6.7778
 20
11.8368
 30
0.0
 10
-6.7778
 20
11.8368
 30
0.0
  0
SPLINE
  5
66
330
1F
100
AcDbEntity
  8
Layer 1
 62
   250
370
     9
100
AcDbSpline
210
0.0
220
0.0
230
1.0
 70
    11
 71
     3
 72
    17
 73
    13
 74
     0
 42
0.0000000001
 43
0.0000000001
 40
0.0
 40
0.0
 40
0.0
 40
0.0
 40
0.25
 40
0.25
 40
0.25
 40
0.5
 40
0.5
 40
0.5
 40
0.75
 40
0.75
 40
0.75
 40
1.0
 40
1.0
 40
1.0
 40
1.0
 10
-3.5544
 20
13.0064
 30
0.0
 10
-3.5395
 20
11.8646
 30
0.0
 10
-4.4233
 20
10.8916
 30
0.0
 10
-5.6125
 20
10.8581
 30
0.0
 10
-6.7887
 20
10.8249
 30
0.0
 10
-7.7549
 20
11.8231
 30
0.0
 10
-7.7558
 20
13.0186
 30
0.0
 10
-7.7562
 20
14.2053
 30
0.0
 10
-6.8074
 20
15.1713
 30
0.0
 10
-5.6373
 20
15.1751
 30
0.0
 10
-4.4908
 20
15.1788
 30
0.0
 10
-3.5585
 20
14.2081
 30
0.0
 10
-3.5544
 20
13.0064
 30
0.0
  0
SPLINE
  5
67
330
1F
100
AcDbEntity
  8
Layer 1
 62
   250
370
     9
100
AcDbSpline
210
0.0
220
0.0
230
1.0
 70
    11
 71
     3
 72
    71
 73
    67
 74
     0
 42
0.0000000001
 43
0.0000000001
 40
0.0
 40
0.0
 40
0.0
 40
0.0
 40
0.0454545454545455
 40
0.0454545454545455
 40
0.0454545454545455
 40
0.0909090909090909
 40
0.0909090909090909
 40
0.0909090909090909
 40
0.1363636363636364
 40
0.1363636363636364
 40
0.1363636363636364
 40
0.1818181818181818
 40
0.1818181818181818
 40
0.1818181818181818
 40
0.2272727272727273
 40
0.2272727272727273
 40
0.2272727272727273
 40
0.2727272727272727
 40
0.2727272727272727
 40
0.2727272727272727
 40
0.3181818181818182
 40
0.3181818181818182
 40
0.3181818181818182
 40
0.3636363636363636
 40
0.3636363636363636
 40
0.3636363636363636
 40
0.4090909090909091
 40
0.4090909090909091
 40
0.4090909090909091
 40
0.4545454545454546
 40
0.4545454545454546
 40
0.4545454545454546
 40
0.5
 40
0.5
 40
0.5
 40
0.5454545454545454
 40
0.5454545454545454
 40
0.5454545454545454
 40
0.5909090909090909
 40
0.5909090909090909
 40
0.5909090909090909
 40
0.6363636363636364
 40
0.6363636363636364
 40
0.6363636363636364
 40
0.6818181818181819
 40
0.6818181818181819
 40
0.6818181818181819
 40
0.7272727272727273
 40
0.7272727272727273
 40
0.7272727272727273
 40
0.7727272727272727
 40
0.7727272727272727
 40
0.7727272727272727
 40
0.8181818181818182
 40
0.8181818181818182
 40
0.8181818181818182
 40
0.8636363636363636
 40
0.8636363636363636
 40
0.8636363636363636
 40
0.9090909090909092
 40
0.9090909090909092
 40
0.9090909090909092
 40
0.9545454545454546
 40
0.9545454545454546
 40
0.9545454545454546
 40
1.0
 40
1.0
 40
1.0
 40
1.0
 10
0.2473
 20
11.8617
 30
0.0
 10
0.2473
 20
11.9758
 30
0.0
 10
0.2473
 20
12.0371
 30
0.0
 10
0.2473
 20
12.0983
 30
0.0
 10
0.2473
 20
13.0161
 30
0.0
 10
0.2473
 20
13.9337
 30
0.0
 10
0.2479
 20
14.8515
 30
0.0
 10
0.2479
 20
14.9039
 30
0.0
 10
0.2417
 20
14.9604
 30
0.0
 10
0.2593
 20
15.0072
 30
0.0
 10
0.2708
 20
15.0375
 30
0.0
 10
0.3199
 20
15.0721
 30
0.0
 10
0.3517
 20
15.0713
 30
0.0
 10
0.3815
 20
15.0706
 30
0.0
 10
0.4233
 20
15.032
 30
0.0
 10
0.4371
 20
15.0001
 30
0.0
 10
0.4529
 20
14.9633
 30
0.0
 10
0.4449
 20
14.9157
 30
0.0
 10
0.4449
 20
14.8726
 30
0.0
 10
0.4458
 20
13.5869
 30
0.0
 10
0.4463
 20
12.3012
 30
0.0
 10
0.4436
 20
11.0157
 30
0.0
 10
0.4433
 20
10.9519
 30
0.0
 10
0.4077
 20
10.8883
 30
0.0
 10
0.3886
 20
10.8244
 30
0.0
 10
0.3282
 20
10.8549
 30
0.0
 10
0.2538
 20
10.8717
 30
0.0
 10
0.2101
 20
10.9179
 30
0.0
 10
-0.6534
 20
11.8301
 30
0.0
 10
-1.5119
 20
12.7467
 30
0.0
 10
-2.3748
 20
13.6595
 30
0.0
 10
-2.5085
 20
13.8009
 30
0.0
 10
-2.658
 20
13.9275
 30
0.0
 10
-2.8137
 20
14.0737
 30
0.0
 10
-2.8165
 20
14.0187
 30
0.0
 10
-2.8213
 20
13.9658
 30
0.0
 10
-2.8217
 20
13.9128
 30
0.0
 10
-2.822
 20
12.9856
 30
0.0
 10
-2.822
 20
12.0583
 30
0.0
 10
-2.8227
 20
11.1311
 30
0.0
 10
-2.8227
 20
11.0739
 30
0.0
 10
-2.8165
 20
11.0137
 30
0.0
 10
-2.833
 20
10.9607
 30
0.0
 10
-2.842
 20
10.931
 30
0.0
 10
-2.8909
 20
10.8957
 30
0.0
 10
-2.9222
 20
10.8951
 30
0.0
 10
-2.954
 20
10.8947
 30
0.0
 10
-3.0
 20
10.9271
 30
0.0
 10
-3.0153
 20
10.9577
 30
0.0
 10
-3.0328
 20
10.9929
 30
0.0
 10
-3.0257
 20
11.0415
 30
0.0
 10
-3.0257
 20
11.0842
 30
0.0
 10
-3.0262
 20
12.3652
 30
0.0
 10
-3.0273
 20
13.6461
 30
0.0
 10
-3.0234
 20
14.927
 30
0.0
 10
-3.0234
 20
14.9944
 30
0.0
 10
-2.9835
 20
15.0616
 30
0.0
 10
-2.9623
 20
15.1287
 30
0.0
 10
-2.8987
 20
15.0944
 30
0.0
 10
-2.8217
 20
15.0735
 30
0.0
 10
-2.7745
 20
15.0239
 30
0.0
 10
-1.8181
 20
14.022
 30
0.0
 10
-0.8652
 20
13.0168
 30
0.0
 10
0.0884
 20
12.0124
 30
0.0
 10
0.1268
 20
11.9722
 30
0.0
 10
0.1691
 20
11.9357
 30
0.0
 10
0.2473
 20
11.8617
 30
0.0
  0
SPLINE
  5
68
330
1F
100
AcDbEntity
  8
Layer 1
 62
   250
370
     9
100
AcDbSpline
210
0.0
220
0.0
230
1.0
 70
    11
 71
     3
 72
    74
 73
    70
 74
     0
 42
0.0000000001
 43
0.0000000001
 40
0.0
 40
0.0
 40
0.0
 40
0.0
 40
0.0434782608695652
 40
0.0434782608695652
 40
0.0434782608695652
 40
0.0869565217391304
 40
0.0869565217391304
 40
0.0869565217391304
 40
0.1304347826086956
 40
0.1304347826086956
 40
0.1304347826086956
 40
0.1739130434782609
 40
0.1739130434782609
 40
0.1739130434782609
 40
0.2173913043478261
 40
0.2173913043478261
 40
0.2173913043478261
 40
0.2608695652173913
 40
0.2608695652173913
 40
0.2608695652173913
 40
0.3043478260869565
 40
0.3043478260869565
 40
0.3043478260869565
 40
0.3478260869565217
 40
0.3478260869565217
 40
0.3478260869565217
 40
0.3913043478260869
 40
0.3913043478260869
 40
0.3913043478260869
 40
0.4347826086956522
 40
0.4347826086956522
 40
0.4347826086956522
 40
0.4782608695652174
 40
0.4782608695652174
 40
0.4782608695652174
 40
0.5217391304347826
 40
0.5217391304347826
 40
0.5217391304347826
 40
0.5652173913043478
 40
0.5652173913043478
 40
0.5652173913043478
 40
0.6086956521739131
 40
0.6086956521739131
 40
0.6086956521739131
 40
0.6521739130434783
 40
0.6521739130434783
 40
0.6521739130434783
 40
0.6956521739130435
 40
0.6956521739130435
 40
0.6956521739130435
 40
0.7391304347826086
 40
0.7391304347826086
 40
0.7391304347826086
 40
0.7826086956521738
 40
0.7826086956521738
 40
0.7826086956521738
 40
0.8260869565217391
 40
0.8260869565217391
 40
0.8260869565217391
 40
0.8695652173913043
 40
0.8695652173913043
 40
0.8695652173913043
 40
0.9130434782608695
 40
0.9130434782608695
 40
0.9130434782608695
 40
0.9565217391304348
 40
0.9565217391304348
 40
0.9565217391304348
 40
1.0
 40
1.0
 40
1.0
 40
1.0
 10
1.2701
 20
12.978
 30
0.0
 10
1.2701
 20
13.6136
 30
0.0
 10
1.2742
 20
14.2494
 30
0.0
 10
1.2674
 20
14.8848
 30
0.0
 10
1.2657
 20
15.0382
 30
0.0
 10
1.3215
 20
15.0825
 30
0.0
 10
1.4683
 20
15.0813
 30
0.0
 10
2.314
 20
15.0758
 30
0.0
 10
3.1597
 20
15.0793
 30
0.0
 10
4.0055
 20
15.0727
 30
0.0
 10
4.051
 20
15.0723
 30
0.0
 10
4.0958
 20
15.008
 30
0.0
 10
4.141
 20
14.9736
 30
0.0
 10
4.0912
 20
14.9434
 30
0.0
 10
4.0425
 20
14.8871
 30
0.0
 10
3.9924
 20
14.8868
 30
0.0
 10
3.3905
 20
14.8807
 30
0.0
 10
2.788
 20
14.8791
 30
0.0
 10
2.1858
 20
14.8859
 30
0.0
 10
2.0324
 20
14.8877
 30
0.0
 10
1.9718
 20
14.8402
 30
0.0
 10
1.9743
 20
14.6827
 30
0.0
 10
1.9807
 20
14.2287
 30
0.0
 10
1.9794
 20
13.7745
 30
0.0
 10
1.9746
 20
13.3206
 30
0.0
 10
1.9732
 20
13.194
 30
0.0
 10
2.0239
 20
13.1541
 30
0.0
 10
2.1451
 20
13.1554
 30
0.0
 10
2.5657
 20
13.16
 30
0.0
 10
2.9864
 20
13.1615
 30
0.0
 10
3.4067
 20
13.1524
 30
0.0
 10
3.4688
 20
13.151
 30
0.0
 10
3.5298
 20
13.0858
 30
0.0
 10
3.5911
 20
13.0504
 30
0.0
 10
3.5322
 20
13.0199
 30
0.0
 10
3.4739
 20
12.9643
 30
0.0
 10
3.4148
 20
12.963
 30
0.0
 10
2.9892
 20
12.9555
 30
0.0
 10
2.5638
 20
12.9553
 30
0.0
 10
2.1387
 20
12.9611
 30
0.0
 10
2.0122
 20
12.9629
 30
0.0
 10
1.9732
 20
12.9184
 30
0.0
 10
1.9746
 20
12.7948
 30
0.0
 10
1.9798
 20
12.2739
 30
0.0
 10
1.9802
 20
11.7528
 30
0.0
 10
1.975
 20
11.2318
 30
0.0
 10
1.974
 20
11.1045
 30
0.0
 10
2.0221
 20
11.0682
 30
0.0
 10
2.1438
 20
11.0691
 30
0.0
 10
2.7798
 20
11.0736
 30
0.0
 10
3.4153
 20
11.0737
 30
0.0
 10
4.051
 20
11.067
 30
0.0
 10
4.1078
 20
11.0664
 30
0.0
 10
4.164
 20
11.0065
 30
0.0
 10
4.2205
 20
10.9744
 30
0.0
 10
4.1654
 20
10.9454
 30
0.0
 10
4.1103
 20
10.8918
 30
0.0
 10
4.0547
 20
10.8916
 30
0.0
 10
3.1849
 20
10.8863
 30
0.0
 10
2.3151
 20
10.8906
 30
0.0
 10
1.4451
 20
10.8854
 30
0.0
 10
1.3022
 20
10.8844
 30
0.0
 10
1.2676
 20
10.939
 30
0.0
 10
1.2687
 20
11.071
 30
0.0
 10
1.2735
 20
11.7065
 30
0.0
 10
1.2708
 20
12.3424
 30
0.0
 10
1.2708
 20
12.978
 30
0.0
 10
1.2708
 20
12.978
 30
0.0
 10
1.2705
 20
12.978
 30
0.0
 10
1.2701
 20
12.978
 30
0.0
  0
SPLINE
  5
69
330
1F
100
AcDbEntity
  8
Layer 1
 62
   250
370
     9
100
AcDbSpline
210
0.0
220
0.0
230
1.0
 70
    11
 71
     3
 72
    38
 73
    34
 74
     0
 42
0.0000000001
 43
0.0000000001
 40
0.0
 40
0.0
 40
0.0
 40
0.0
 40
0.0909090909090909
 40
0.0909090909090909
 40
0.0909090909090909
 40
0.1818181818181818
 40
0.1818181818181818
 40
0.1818181818181818
 40
0.2727272727272727
 40
0.2727272727272727
 40
0.2727272727272727
 40
0.3636363636363636
 40
0.3636363636363636
 40
0.3636363636363636
 40
0.4545454545454546
 40
0.4545454545454546
 40
0.4545454545454546
 40
0.5454545454545454
 40
0.5454545454545454
 40
0.5454545454545454
 40
0.6363636363636364
 40
0.6363636363636364
 40
0.6363636363636364
 40
0.7272727272727273
 40
0.7272727272727273
 40
0.7272727272727273
 40
0.8181818181818182
 40
0.8181818181818182
 40
0.8181818181818182
 40
0.9090909090909092
 40
0.9090909090909092
 40
0.9090909090909092
 40
1.0
 40
1.0
 40
1.0
 40
1.0
 10
-16.0245
 20
11.3612
 30
0.0
 10
-16.0245
 20
11.5092
 30
0.0
 10
-16.0374
 20
11.6587
 30
0.0
 10
-16.0216
 20
11.8049
 30
0.0
 10
-15.995
 20
12.0545
 30
0.0
 10
-16.0641
 20
12.2292
 30
0.0
 10
-16.3206
 20
12.3132
 30
0.0
 10
-16.4275
 20
12.3482
 30
0.0
 10
-16.5235
 20
12.4184
 30
0.0
 10
-16.6218
 20
12.4768
 30
0.0
 10
-16.7325
 20
12.5427
 30
0.0
 10
-16.8207
 20
12.5296
 30
0.0
 10
-16.911
 20
12.4326
 30
0.0
 10
-17.2165
 20
12.1045
 30
0.0
 10
-17.5296
 20
11.783
 30
0.0
 10
-17.8338
 20
11.4535
 30
0.0
 10
-17.8559
 20
11.4294
 30
0.0
 10
-17.8488
 20
11.3429
 30
0.0
 10
-17.823
 20
11.3154
 30
0.0
 10
-17.5104
 20
10.9811
 30
0.0
 10
-17.1953
 20
10.6486
 30
0.0
 10
-16.8696
 20
10.327
 30
0.0
 10
-16.8264
 20
10.2845
 30
0.0
 10
-16.709
 20
10.2757
 30
0.0
 10
-16.6472
 20
10.3015
 30
0.0
 10
-16.4717
 20
10.3751
 30
0.0
 10
-16.3018
 20
10.466
 30
0.0
 10
-16.1414
 20
10.5686
 30
0.0
 10
-16.0849
 20
10.6047
 30
0.0
 10
-16.0352
 20
10.6921
 30
0.0
 10
-16.0302
 20
10.7598
 30
0.0
 10
-16.0155
 20
10.9594
 30
0.0
 10
-16.025
 20
11.1607
 30
0.0
 10
-16.0245
 20
11.3612
 30
0.0
  0
SPLINE
  5
6A
330
1F
100
AcDbEntity
  8
Layer 1
 62
   250
370
     9
100
AcDbSpline
210
0.0
220
0.0
230
1.0
 70
    11
 71
     3
 72
    41
 73
    37
 74
     0
 42
0.0000000001
 43
0.0000000001
 40
0.0
 40
0.0
 40
0.0
 40
0.0
 40
0.0833333333333333
 40
0.0833333333333333
 40
0.0833333333333333
 40
0.1666666666666667
 40
0.1666666666666667
 40
0.1666666666666667
 40
0.25
 40
0.25
 40
0.25
 40
0.3333333333333333
 40
0.3333333333333333
 40
0.3333333333333333
 40
0.4166666666666666
 40
0.4166666666666666
 40
0.4166666666666666
 40
0.5
 40
0.5
 40
0.5
 40
0.5833333333333333
 40
0.5833333333333333
 40
0.5833333333333333
 40
0.6666666666666666
 40
0.6666666666666666
 40
0.6666666666666666
 40
0.75
 40
0.75
 40
0.75
 40
0.8333333333333333
 40
0.8333333333333333
 40
0.8333333333333333
 40
0.9166666666666666
 40
0.9166666666666666
 40
0.9166666666666666
 40
1.0
 40
1.0
 40
1.0
 40
1.0
 10
-15.5384
 20
11.3861
 30
0.0
 10
-15.5384
 20
11.0855
 30
0.0
 10
-15.5301
 20
10.7842
 30
0.0
 10
-15.5443
 20
10.4839
 30
0.0
 10
-15.5479
 20
10.4108
 30
0.0
 10
-15.6091
 20
10.3111
 30
0.0
 10
-15.6729
 20
10.2747
 30
0.0
 10
-16.0171
 20
10.0791
 30
0.0
 10
-16.3714
 20
9.9017
 30
0.0
 10
-16.7195
 20
9.7129
 30
0.0
 10
-16.8337
 20
9.6509
 30
0.0
 10
-16.9137
 20
9.6625
 30
0.0
 10
-17.0068
 20
9.7612
 30
0.0
 10
-17.4817
 20
10.2643
 30
0.0
 10
-17.9619
 20
10.7625
 30
0.0
 10
-18.4449
 20
11.2579
 30
0.0
 10
-18.5348
 20
11.3499
 30
0.0
 10
-18.5385
 20
11.4126
 30
0.0
 10
-18.448
 20
11.5066
 30
0.0
 10
-17.9555
 20
12.0188
 30
0.0
 10
-17.4703
 20
12.5378
 30
0.0
 10
-16.9751
 20
13.0472
 30
0.0
 10
-16.9336
 20
13.0898
 30
0.0
 10
-16.8199
 20
13.1124
 30
0.0
 10
-16.7683
 20
13.0869
 30
0.0
 10
-16.4046
 20
12.908
 30
0.0
 10
-16.0437
 20
12.7221
 30
0.0
 10
-15.6937
 20
12.5186
 30
0.0
 10
-15.6173
 20
12.4741
 30
0.0
 10
-15.5507
 20
12.351
 30
0.0
 10
-15.5447
 20
12.26
 30
0.0
 10
-15.5258
 20
11.9697
 30
0.0
 10
-15.5377
 20
11.6777
 30
0.0
 10
-15.5377
 20
11.3861
 30
0.0
 10
-15.538
 20
11.3861
 30
0.0
 10
-15.5381
 20
11.3861
 30
0.0
 10
-15.5384
 20
11.3861
 30
0.0
  0
SPLINE
  5
6B
330
1F
100
AcDbEntity
  8
Layer 1
 62
   250
370
     9
100
AcDbSpline
210
0.0
220
0.0
230
1.0
 70
    11
 71
     3
 72
    41
 73
    37
 74
     0
 42
0.0000000001
 43
0.0000000001
 40
0.0
 40
0.0
 40
0.0
 40
0.0
 40
0.0833333333333333
 40
0.0833333333333333
 40
0.0833333333333333
 40
0.1666666666666667
 40
0.1666666666666667
 40
0.1666666666666667
 40
0.25
 40
0.25
 40
0.25
 40
0.3333333333333333
 40
0.3333333333333333
 40
0.3333333333333333
 40
0.4166666666666666
 40
0.4166666666666666
 40
0.4166666666666666
 40
0.5
 40
0.5
 40
0.5
 40
0.5833333333333333
 40
0.5833333333333333
 40
0.5833333333333333
 40
0.6666666666666666
 40
0.6666666666666666
 40
0.6666666666666666
 40
0.75
 40
0.75
 40
0.75
 40
0.8333333333333333
 40
0.8333333333333333
 40
0.8333333333333333
 40
0.9166666666666666
 40
0.9166666666666666
 40
0.9166666666666666
 40
1.0
 40
1.0
 40
1.0
 40
1.0
 10
-22.5099
 20
11.3908
 30
0.0
 10
-22.5093
 20
11.3908
 30
0.0
 10
-22.509
 20
11.3908
 30
0.0
 10
-22.5086
 20
11.3908
 30
0.0
 10
-22.5086
 20
11.1805
 30
0.0
 10
-22.5163
 20
10.9698
 30
0.0
 10
-22.5039
 20
10.7602
 30
0.0
 10
-22.5002
 20
10.6962
 30
0.0
 10
-22.4564
 20
10.611
 30
0.0
 10
-22.404
 20
10.5775
 30
0.0
 10
-22.2399
 20
10.4717
 30
0.0
 10
-22.0672
 20
10.376
 30
0.0
 10
-21.8885
 20
10.2981
 30
0.0
 10
-21.8268
 20
10.2712
 30
0.0
 10
-21.7076
 20
10.2775
 30
0.0
 10
-21.6654
 20
10.3197
 30
0.0
 10
-21.3373
 20
10.646
 30
0.0
 10
-21.0197
 20
10.9831
 30
0.0
 10
-20.7055
 20
11.3232
 30
0.0
 10
-20.679
 20
11.3517
 30
0.0
 10
-20.6779
 20
11.4471
 30
0.0
 10
-20.7041
 20
11.4749
 30
0.0
 10
-21.0142
 20
11.806
 30
0.0
 10
-21.3274
 20
12.1344
 30
0.0
 10
-21.6516
 20
12.4514
 30
0.0
 10
-21.6971
 20
12.4959
 30
0.0
 10
-21.8182
 20
12.5054
 30
0.0
 10
-21.8836
 20
12.4792
 30
0.0
 10
-22.051
 20
12.4119
 30
0.0
 10
-22.2151
 20
12.3278
 30
0.0
 10
-22.3637
 20
12.2253
 30
0.0
 10
-22.4328
 20
12.1777
 30
0.0
 10
-22.4949
 20
12.0757
 30
0.0
 10
-22.5033
 20
11.9923
 30
0.0
 10
-22.5234
 20
11.7938
 30
0.0
 10
-22.5099
 20
11.5917
 30
0.0
 10
-22.5099
 20
11.3908
 30
0.0
  0
SPLINE
  5
6C
330
1F
100
AcDbEntity
  8
Layer 1
 62
   250
370
     9
100
AcDbSpline
210
0.0
220
0.0
230
1.0
 70
    11
 71
     3
 72
    38
 73
    34
 74
     0
 42
0.0000000001
 43
0.0000000001
 40
0.0
 40
0.0
 40
0.0
 40
0.0
 40
0.0909090909090909
 40
0.0909090909090909
 40
0.0909090909090909
 40
0.1818181818181818
 40
0.1818181818181818
 40
0.1818181818181818
 40
0.2727272727272727
 40
0.2727272727272727
 40
0.2727272727272727
 40
0.3636363636363636
 40
0.3636363636363636
 40
0.3636363636363636
 40
0.4545454545454546
 40
0.4545454545454546
 40
0.4545454545454546
 40
0.5454545454545454
 40
0.5454545454545454
 40
0.5454545454545454
 40
0.6363636363636364
 40
0.6363636363636364
 40
0.6363636363636364
 40
0.7272727272727273
 40
0.7272727272727273
 40
0.7272727272727273
 40
0.8181818181818182
 40
0.8181818181818182
 40
0.8181818181818182
 40
0.9090909090909092
 40
0.9090909090909092
 40
0.9090909090909092
 40
1.0
 40
1.0
 40
1.0
 40
1.0
 10
-21.6722
 20
13.1329
 30
0.0
 10
-21.6442
 20
13.1149
 30
0.0
 10
-21.6078
 20
13.1006
 30
0.0
 10
-21.5831
 20
13.0748
 30
0.0
 10
-21.0678
 20
12.5382
 30
0.0
 10
-20.5525
 20
12.0014
 30
0.0
 10
-20.0432
 20
11.4592
 30
0.0
 10
-20.0181
 20
11.4329
 30
0.0
 10
-20.0251
 20
11.3362
 30
0.0
 10
-20.0531
 20
11.3062
 30
0.0
 10
-20.5504
 20
10.778
 30
0.0
 10
-21.0512
 20
10.253
 30
0.0
 10
-21.559
 20
9.735
 30
0.0
 10
-21.5994
 20
9.6938
 30
0.0
 10
-21.7143
 20
9.6789
 30
0.0
 10
-21.7684
 20
9.7054
 30
0.0
 10
-22.1319
 20
9.8845
 30
0.0
 10
-22.4918
 20
10.072
 30
0.0
 10
-22.8443
 20
10.2717
 30
0.0
 10
-22.9132
 20
10.3109
 30
0.0
 10
-22.9863
 20
10.4145
 30
0.0
 10
-22.9876
 20
10.4896
 30
0.0
 10
-22.9994
 20
11.0914
 30
0.0
 10
-22.9989
 20
11.6931
 30
0.0
 10
-22.9887
 20
12.2948
 30
0.0
 10
-22.9874
 20
12.3684
 30
0.0
 10
-22.9238
 20
12.4716
 30
0.0
 10
-22.8592
 20
12.5083
 30
0.0
 10
-22.494
 20
12.715
 30
0.0
 10
-22.1196
 20
12.9057
 30
0.0
 10
-21.7484
 20
13.1014
 30
0.0
 10
-21.7276
 20
13.1124
 30
0.0
 10
-21.7047
 20
13.1194
 30
0.0
 10
-21.6722
 20
13.1329
 30
0.0
  0
SPLINE
  5
6D
330
1F
100
AcDbEntity
  8
Layer 1
 62
   250
370
     9
100
AcDbSpline
210
0.0
220
0.0
230
1.0
 70
    11
 71
     3
 72
    65
 73
    61
 74
     0
 42
0.0000000001
 43
0.0000000001
 40
0.0
 40
0.0
 40
0.0
 40
0.0
 40
0.05
 40
0.05
 40
0.05
 40
0.1
 40
0.1
 40
0.1
 40
0.15
 40
0.15
 40
0.15
 40
0.2
 40
0.2
 40
0.2
 40
0.25
 40
0.25
 40
0.25
 40
0.3
 40
0.3
 40
0.3
 40
0.35
 40
0.35
 40
0.35
 40
0.4
 40
0.4
 40
0.4
 40
0.45
 40
0.45
 40
0.45
 40
0.5
 40
0.5
 40
0.5
 40
0.55
 40
0.55
 40
0.55
 40
0.6000000000000001
 40
0.6000000000000001
 40
0.6000000000000001
 40
0.65
 40
0.65
 40
0.65
 40
0.7000000000000001
 40
0.7000000000000001
 40
0.7000000000000001
 40
0.75
 40
0.75
 40
0.75
 40
0.8
 40
0.8
 40
0.8
 40
0.8500000000000001
 40
0.8500000000000001
 40
0.8500000000000001
 40
0.9
 40
0.9
 40
0.9
 40
0.9500000000000001
 40
0.9500000000000001
 40
0.9500000000000001
 40
1.0
 40
1.0
 40
1.0
 40
1.0
 10
8.3991
 20
12.9954
 30
0.0
 10
8.3991
 20
13.6168
 30
0.0
 10
8.4035
 20
14.2383
 30
0.0
 10
8.3959
 20
14.8593
 30
0.0
 10
8.3941
 20
15.022
 30
0.0
 10
8.4332
 20
15.0855
 30
0.0
 10
8.6112
 20
15.0833
 30
0.0
 10
9.3858
 20
15.0736
 30
0.0
 10
10.1598
 20
15.0789
 30
0.0
 10
10.9342
 20
15.0784
 30
0.0
 10
10.9628
 20
15.0784
 30
0.0
 10
10.997
 20
15.088
 30
0.0
 10
11.0193
 20
15.0761
 30
0.0
 10
11.0739
 20
15.0473
 30
0.0
 10
11.123
 20
15.0086
 30
0.0
 10
11.1745
 20
14.9737
 30
0.0
 10
11.1244
 20
14.9438
 30
0.0
 10
11.0757
 20
14.8894
 30
0.0
 10
11.0246
 20
14.8876
 30
0.0
 10
10.7714
 20
14.8783
 30
0.0
 10
10.5177
 20
14.8829
 30
0.0
 10
10.2646
 20
14.8828
 30
0.0
 10
9.9349
 20
14.8828
 30
0.0
 10
9.6049
 20
14.8799
 30
0.0
 10
9.2751
 20
14.8843
 30
0.0
 10
9.1621
 20
14.8857
 30
0.0
 10
9.1118
 20
14.853
 30
0.0
 10
9.1132
 20
14.7298
 30
0.0
 10
9.1183
 20
14.2376
 30
0.0
 10
9.1178
 20
13.7452
 30
0.0
 10
9.1139
 20
13.253
 30
0.0
 10
9.1132
 20
13.1405
 30
0.0
 10
9.1552
 20
13.1018
 30
0.0
 10
9.2657
 20
13.1027
 30
0.0
 10
9.691
 20
13.1062
 30
0.0
 10
10.1167
 20
13.1079
 30
0.0
 10
10.5418
 20
13.0982
 30
0.0
 10
10.6022
 20
13.0968
 30
0.0
 10
10.6607
 20
13.0303
 30
0.0
 10
10.72
 20
12.9936
 30
0.0
 10
10.6617
 20
12.9619
 30
0.0
 10
10.604
 20
12.9039
 30
0.0
 10
10.545
 20
12.9025
 30
0.0
 10
10.1626
 20
12.8947
 30
0.0
 10
9.7802
 20
12.8989
 30
0.0
 10
9.3978
 20
12.8991
 30
0.0
 10
9.116
 20
12.8994
 30
0.0
 10
9.1155
 20
12.8991
 30
0.0
 10
9.1155
 20
12.6247
 30
0.0
 10
9.1153
 20
12.1087
 30
0.0
 10
9.1114
 20
11.5924
 30
0.0
 10
9.1178
 20
11.0761
 30
0.0
 10
9.1194
 20
10.9359
 30
0.0
 10
9.0802
 20
10.8841
 30
0.0
 10
8.9317
 20
10.8851
 30
0.0
 10
8.3991
 20
10.889
 30
0.0
 10
8.3991
 20
10.884
 30
0.0
 10
8.3991
 20
11.4181
 30
0.0
 10
8.3994
 20
11.9438
 30
0.0
 10
8.3991
 20
12.4695
 30
0.0
 10
8.3991
 20
12.9954
 30
0.0
  0
SPLINE
  5
6E
330
1F
100
AcDbEntity
  8
Layer 1
 62
   250
370
     9
100
AcDbSpline
210
0.0
220
0.0
230
1.0
 70
    11
 71
     3
 72
    62
 73
    58
 74
     0
 42
0.0000000001
 43
0.0000000001
 40
0.0
 40
0.0
 40
0.0
 40
0.0
 40
0.0526315789473684
 40
0.0526315789473684
 40
0.0526315789473684
 40
0.1052631578947368
 40
0.1052631578947368
 40
0.1052631578947368
 40
0.1578947368421053
 40
0.1578947368421053
 40
0.1578947368421053
 40
0.2105263157894737
 40
0.2105263157894737
 40
0.2105263157894737
 40
0.2631578947368421
 40
0.2631578947368421
 40
0.2631578947368421
 40
0.3157894736842105
 40
0.3157894736842105
 40
0.3157894736842105
 40
0.3684210526315789
 40
0.3684210526315789
 40
0.3684210526315789
 40
0.4210526315789473
 40
0.4210526315789473
 40
0.4210526315789473
 40
0.4736842105263158
 40
0.4736842105263158
 40
0.4736842105263158
 40
0.5263157894736842
 40
0.5263157894736842
 40
0.5263157894736842
 40
0.5789473684210527
 40
0.5789473684210527
 40
0.5789473684210527
 40
0.631578947368421
 40
0.631578947368421
 40
0.631578947368421
 40
0.6842105263157894
 40
0.6842105263157894
 40
0.6842105263157894
 40
0.7368421052631579
 40
0.7368421052631579
 40
0.7368421052631579
 40
0.7894736842105263
 40
0.7894736842105263
 40
0.7894736842105263
 40
0.8421052631578947
 40
0.8421052631578947
 40
0.8421052631578947
 40
0.894736842105263
 40
0.894736842105263
 40
0.894736842105263
 40
0.9473684210526315
 40
0.9473684210526315
 40
0.9473684210526315
 40
1.0
 40
1.0
 40
1.0
 40
1.0
 10
6.449
 20
12.8686
 30
0.0
 10
6.7041
 20
13.2747
 30
0.0
 10
6.9431
 20
13.6541
 30
0.0
 10
7.1809
 20
14.0343
 30
0.0
 10
7.3734
 20
14.3423
 30
0.0
 10
7.5581
 20
14.6554
 30
0.0
 10
7.7602
 20
14.957
 30
0.0
 10
7.8055
 20
15.0244
 30
0.0
 10
7.9085
 20
15.053
 30
0.0
 10
7.985
 20
15.0995
 30
0.0
 10
8.0011
 20
15.079
 30
0.0
 10
8.017
 20
15.0585
 30
0.0
 10
8.0332
 20
15.0379
 30
0.0
 10
7.9492
 20
14.8976
 30
0.0
 10
7.8672
 20
14.7559
 30
0.0
 10
7.7807
 20
14.6168
 30
0.0
 10
7.4045
 20
14.0126
 30
0.0
 10
7.0218
 20
13.4121
 30
0.0
 10
6.6537
 20
12.8025
 30
0.0
 10
6.5843
 20
12.6876
 30
0.0
 10
6.5439
 20
12.5387
 30
0.0
 10
6.5394
 20
12.4037
 30
0.0
 10
6.525
 20
11.9834
 30
0.0
 10
6.5222
 20
11.5618
 30
0.0
 10
6.539
 20
11.1418
 30
0.0
 10
6.5473
 20
10.9292
 30
0.0
 10
6.4763
 20
10.8583
 30
0.0
 10
6.2731
 20
10.8855
 30
0.0
 10
6.1789
 20
10.898
 30
0.0
 10
6.0818
 20
10.8935
 30
0.0
 10
5.9869
 20
10.887
 30
0.0
 10
5.8725
 20
10.879
 30
0.0
 10
5.836
 20
10.9285
 30
0.0
 10
5.8369
 20
11.0379
 30
0.0
 10
5.8406
 20
11.387
 30
0.0
 10
5.8139
 20
11.7381
 30
0.0
 10
5.8442
 20
12.0845
 30
0.0
 10
5.8787
 20
12.4766
 30
0.0
 10
5.7439
 20
12.7906
 30
0.0
 10
5.5337
 20
13.1073
 30
0.0
 10
5.1323
 20
13.7126
 30
0.0
 10
4.7586
 20
14.3357
 30
0.0
 10
4.3741
 20
14.9518
 30
0.0
 10
4.3576
 20
14.9784
 30
0.0
 10
4.3486
 20
15.0097
 30
0.0
 10
4.3232
 20
15.0685
 30
0.0
 10
4.5839
 20
15.0685
 30
0.0
 10
4.8245
 20
15.0752
 30
0.0
 10
5.0634
 20
15.0625
 30
0.0
 10
5.1059
 20
15.06
 30
0.0
 10
5.1516
 20
14.982
 30
0.0
 10
5.1828
 20
14.931
 30
0.0
 10
5.5758
 20
14.2866
 30
0.0
 10
5.9665
 20
13.6406
 30
0.0
 10
6.3581
 20
12.9955
 30
0.0
 10
6.3796
 20
12.9603
 30
0.0
 10
6.4063
 20
12.9279
 30
0.0
 10
6.449
 20
12.8686
 30
0.0
  0
SPLINE
  5
6F
330
1F
100
AcDbEntity
  8
Layer 1
 62
   250
370
     9
100
AcDbSpline
210
0.0
220
0.0
230
1.0
 70
    11
 71
     3
 72
    68
 73
    64
 74
     0
 42
0.0000000001
 43
0.0000000001
 40
0.0
 40
0.0
 40
0.0
 40
0.0
 40
0.0476190476190476
 40
0.0476190476190476
 40
0.0476190476190476
 40
0.0952380952380952
 40
0.0952380952380952
 40
0.0952380952380952
 40
0.1428571428571428
 40
0.1428571428571428
 40
0.1428571428571428
 40
0.1904761904761905
 40
0.1904761904761905
 40
0.1904761904761905
 40
0.2380952380952381
 40
0.2380952380952381
 40
0.2380952380952381
 40
0.2857142857142857
 40
0.2857142857142857
 40
0.2857142857142857
 40
0.3333333333333333
 40
0.3333333333333333
 40
0.3333333333333333
 40
0.3809523809523809
 40
0.3809523809523809
 40
0.3809523809523809
 40
0.4285714285714285
 40
0.4285714285714285
 40
0.4285714285714285
 40
0.4761904761904762
 40
0.4761904761904762
 40
0.4761904761904762
 40
0.5238095238095237
 40
0.5238095238095237
 40
0.5238095238095237
 40
0.5714285714285714
 40
0.5714285714285714
 40
0.5714285714285714
 40
0.6190476190476191
 40
0.6190476190476191
 40
0.6190476190476191
 40
0.6666666666666666
 40
0.6666666666666666
 40
0.6666666666666666
 40
0.7142857142857142
 40
0.7142857142857142
 40
0.7142857142857142
 40
0.7619047619047619
 40
0.7619047619047619
 40
0.7619047619047619
 40
0.8095238095238095
 40
0.8095238095238095
 40
0.8095238095238095
 40
0.8571428571428571
 40
0.8571428571428571
 40
0.8571428571428571
 40
0.9047619047619047
 40
0.9047619047619047
 40
0.9047619047619047
 40
0.9523809523809523
 40
0.9523809523809523
 40
0.9523809523809523
 40
1.0
 40
1.0
 40
1.0
 40
1.0
 10
-3.7411
 20
7.8701
 30
0.0
 10
-3.5962
 20
8.2514
 30
0.0
 10
-3.451
 20
8.6326
 30
0.0
 10
-3.3059
 20
9.0136
 30
0.0
 10
-3.2843
 20
9.0063
 30
0.0
 10
-3.2629
 20
8.999
 30
0.0
 10
-3.2412
 20
8.9916
 30
0.0
 10
-3.2799
 20
8.8653
 30
0.0
 10
-3.3126
 20
8.7367
 30
0.0
 10
-3.3581
 20
8.613
 30
0.0
 10
-3.4914
 20
8.2504
 30
0.0
 10
-3.6288
 20
7.8896
 30
0.0
 10
-3.7677
 20
7.5293
 30
0.0
 10
-3.7834
 20
7.4881
 30
0.0
 10
-3.8176
 20
7.4539
 30
0.0
 10
-3.8434
 20
7.4164
 30
0.0
 10
-3.8755
 20
7.4534
 30
0.0
 10
-3.9198
 20
7.4849
 30
0.0
 10
-3.9375
 20
7.5276
 30
0.0
 10
-4.0489
 20
7.799
 30
0.0
 10
-4.1538
 20
8.0727
 30
0.0
 10
-4.2827
 20
8.4009
 30
0.0
 10
-4.4228
 20
8.0313
 30
0.0
 10
-4.542
 20
7.7163
 30
0.0
 10
-4.6823
 20
7.3471
 30
0.0
 10
-4.7413
 20
7.4542
 30
0.0
 10
-4.7751
 20
7.5025
 30
0.0
 10
-4.796
 20
7.556
 30
0.0
 10
-4.9648
 20
7.9871
 30
0.0
 10
-5.1339
 20
8.4181
 30
0.0
 10
-5.2939
 20
8.8525
 30
0.0
 10
-5.3132
 20
8.9043
 30
0.0
 10
-5.2763
 20
8.977
 30
0.0
 10
-5.2652
 20
9.04
 30
0.0
 10
-5.1878
 20
9.0074
 30
0.0
 10
-5.0648
 20
8.9943
 30
0.0
 10
-5.0406
 20
8.9383
 30
0.0
 10
-4.9079
 20
8.632
 30
0.0
 10
-4.8002
 20
8.3151
 30
0.0
 10
-4.6823
 20
8.0024
 30
0.0
 10
-4.6665
 20
7.9602
 30
0.0
 10
-4.641
 20
7.9215
 30
0.0
 10
-4.5925
 20
7.8804
 30
0.0
 10
-4.5204
 20
8.1695
 30
0.0
 10
-4.2534
 20
8.4078
 30
0.0
 10
-4.4071
 20
8.7444
 30
0.0
 10
-4.4267
 20
8.7877
 30
0.0
 10
-4.4501
 20
8.8339
 30
0.0
 10
-4.4518
 20
8.8795
 30
0.0
 10
-4.4538
 20
8.9338
 30
0.0
 10
-4.4343
 20
8.9888
 30
0.0
 10
-4.4239
 20
9.0436
 30
0.0
 10
-4.3513
 20
9.0162
 30
0.0
 10
-4.2342
 20
9.0079
 30
0.0
 10
-4.2127
 20
8.9583
 30
0.0
 10
-4.0804
 20
8.6524
 30
0.0
 10
-3.9702
 20
8.337
 30
0.0
 10
-3.8521
 20
8.025
 30
0.0
 10
-3.8325
 20
7.9736
 30
0.0
 10
-3.8107
 20
7.923
 30
0.0
 10
-3.7901
 20
7.872
 30
0.0
 10
-3.7739
 20
7.8714
 30
0.0
 10
-3.7577
 20
7.8709
 30
0.0
 10
-3.7411
 20
7.8701
 30
0.0
  0
SPLINE
  5
70
330
1F
100
AcDbEntity
  8
Layer 1
 62
   250
370
     9
100
AcDbSpline
210
0.0
220
0.0
230
1.0
 70
    11
 71
     3
 72
    17
 73
    13
 74
     0
 42
0.0000000001
 43
0.0000000001
 40
0.0
 40
0.0
 40
0.0
 40
0.0
 40
0.25
 40
0.25
 40
0.25
 40
0.5
 40
0.5
 40
0.5
 40
0.75
 40
0.75
 40
0.75
 40
1.0
 40
1.0
 40
1.0
 40
1.0
 10
4.8114
 20
8.5906
 30
0.0
 10
4.811
 20
8.23
 30
0.0
 10
4.8206
 20
8.2063
 30
0.0
 10
4.9702
 20
8.207
 30
0.0
 10
5.3654
 20
8.2091
 30
0.0
 10
5.5259
 20
8.3128
 30
0.0
 10
5.5264
 20
8.5671
 30
0.0
 10
5.5275
 20
8.858
 30
0.0
 10
5.4194
 20
8.9438
 30
0.0
 10
5.0514
 20
8.9441
 30
0.0
 10
4.8116
 20
8.9443
 30
0.0
 10
4.8116
 20
8.9443
 30
0.0
 10
4.8114
 20
8.5906
 30
0.0
  0
SPLINE
  5
71
330
1F
100
AcDbEntity
  8
Layer 1
 62
   250
370
     9
100
AcDbSpline
210
0.0
220
0.0
230
1.0
 70
    11
 71
     3
 72
    47
 73
    43
 74
     0
 42
0.0000000001
 43
0.0000000001
 40
0.0
 40
0.0
 40
0.0
 40
0.0
 40
0.0714285714285714
 40
0.0714285714285714
 40
0.0714285714285714
 40
0.1428571428571428
 40
0.1428571428571428
 40
0.1428571428571428
 40
0.2142857142857143
 40
0.2142857142857143
 40
0.2142857142857143
 40
0.2857142857142857
 40
0.2857142857142857
 40
0.2857142857142857
 40
0.3571428571428571
 40
0.3571428571428571
 40
0.3571428571428571
 40
0.4285714285714285
 40
0.4285714285714285
 40
0.4285714285714285
 40
0.5
 40
0.5
 40
0.5
 40
0.5714285714285714
 40
0.5714285714285714
 40
0.5714285714285714
 40
0.6428571428571428
 40
0.6428571428571428
 40
0.6428571428571428
 40
0.7142857142857142
 40
0.7142857142857142
 40
0.7142857142857142
 40
0.7857142857142857
 40
0.7857142857142857
 40
0.7857142857142857
 40
0.8571428571428571
 40
0.8571428571428571
 40
0.8571428571428571
 40
0.9285714285714285
 40
0.9285714285714285
 40
0.9285714285714285
 40
1.0
 40
1.0
 40
1.0
 40
1.0
 10
5.5562
 20
8.1907
 30
0.0
 10
5.6685
 20
7.9548
 30
0.0
 10
5.7773
 20
7.7315
 30
0.0
 10
5.8796
 20
7.5049
 30
0.0
 10
5.8909
 20
7.4794
 30
0.0
 10
5.858
 20
7.4055
 30
0.0
 10
5.8551
 20
7.4061
 30
0.0
 10
5.7636
 20
7.4229
 30
0.0
 10
5.6399
 20
7.4177
 30
0.0
 10
5.5896
 20
7.4751
 30
0.0
 10
5.52
 20
7.5555
 30
0.0
 10
5.5052
 20
7.6838
 30
0.0
 10
5.4667
 20
7.7913
 30
0.0
 10
5.355
 20
8.1027
 30
0.0
 10
5.2719
 20
8.1629
 30
0.0
 10
4.9478
 20
8.1326
 30
0.0
 10
4.8987
 20
8.128
 30
0.0
 10
4.8241
 20
8.0509
 30
0.0
 10
4.8183
 20
8.0006
 30
0.0
 10
4.8002
 20
7.8497
 30
0.0
 10
4.8231
 20
7.6937
 30
0.0
 10
4.8034
 20
7.5434
 30
0.0
 10
4.7962
 20
7.4891
 30
0.0
 10
4.7138
 20
7.4447
 30
0.0
 10
4.6656
 20
7.3958
 30
0.0
 10
4.6256
 20
7.4433
 30
0.0
 10
4.5519
 20
7.4903
 30
0.0
 10
4.5509
 20
7.5385
 30
0.0
 10
4.5423
 20
7.9876
 30
0.0
 10
4.5473
 20
8.4369
 30
0.0
 10
4.5443
 20
8.8861
 30
0.0
 10
4.5436
 20
8.9955
 30
0.0
 10
4.564
 20
9.0527
 30
0.0
 10
4.6963
 20
9.0418
 30
0.0
 10
4.8806
 20
9.0268
 30
0.0
 10
5.0676
 20
9.0446
 30
0.0
 10
5.2529
 20
9.0329
 30
0.0
 10
5.4869
 20
9.0182
 30
0.0
 10
5.7184
 20
8.9819
 30
0.0
 10
5.7977
 20
8.7061
 30
0.0
 10
5.8716
 20
8.4477
 30
0.0
 10
5.7322
 20
8.2908
 30
0.0
 10
5.5562
 20
8.1907
 30
0.0
  0
SPLINE
  5
72
330
1F
100
AcDbEntity
  8
Layer 1
 62
   250
370
     9
100
AcDbSpline
210
0.0
220
0.0
230
1.0
 70
    11
 71
     3
 72
    26
 73
    22
 74
     0
 42
0.0000000001
 43
0.0000000001
 40
0.0
 40
0.0
 40
0.0
 40
0.0
 40
0.1428571428571428
 40
0.1428571428571428
 40
0.1428571428571428
 40
0.2857142857142857
 40
0.2857142857142857
 40
0.2857142857142857
 40
0.4285714285714285
 40
0.4285714285714285
 40
0.4285714285714285
 40
0.5714285714285714
 40
0.5714285714285714
 40
0.5714285714285714
 40
0.7142857142857142
 40
0.7142857142857142
 40
0.7142857142857142
 40
0.8571428571428571
 40
0.8571428571428571
 40
0.8571428571428571
 40
1.0
 40
1.0
 40
1.0
 40
1.0
 10
-19.9843
 20
10.9555
 30
0.0
 10
-19.9386
 20
10.8243
 30
0.0
 10
-19.9221
 20
10.7612
 30
0.0
 10
-19.8953
 20
10.7026
 30
0.0
 10
-19.7578
 20
10.4006
 30
0.0
 10
-19.6263
 20
10.0952
 30
0.0
 10
-19.4731
 20
9.801
 30
0.0
 10
-19.4206
 20
9.6998
 30
0.0
 10
-19.401
 20
9.6426
 30
0.0
 10
-19.4916
 20
9.5579
 30
0.0
 10
-19.8002
 20
9.2692
 30
0.0
 10
-19.8074
 20
9.2604
 30
0.0
 10
-20.0283
 20
9.618
 30
0.0
 10
-20.1607
 20
9.8321
 30
0.0
 10
-20.2591
 20
10.0673
 30
0.0
 10
-20.3691
 20
10.2952
 30
0.0
 10
-20.4231
 20
10.4073
 30
0.0
 10
-20.3974
 20
10.5005
 30
0.0
 10
-20.3042
 20
10.59
 30
0.0
 10
-20.1993
 20
10.6909
 30
0.0
 10
-20.111
 20
10.809
 30
0.0
 10
-19.9843
 20
10.9555
 30
0.0
  0
SPLINE
  5
73
330
1F
100
AcDbEntity
  8
Layer 1
 62
   250
370
     9
100
AcDbSpline
210
0.0
220
0.0
230
1.0
 70
    11
 71
     3
 72
    26
 73
    22
 74
     0
 42
0.0000000001
 43
0.0000000001
 40
0.0
 40
0.0
 40
0.0
 40
0.0
 40
0.1428571428571428
 40
0.1428571428571428
 40
0.1428571428571428
 40
0.2857142857142857
 40
0.2857142857142857
 40
0.2857142857142857
 40
0.4285714285714285
 40
0.4285714285714285
 40
0.4285714285714285
 40
0.5714285714285714
 40
0.5714285714285714
 40
0.5714285714285714
 40
0.7142857142857142
 40
0.7142857142857142
 40
0.7142857142857142
 40
0.8571428571428571
 40
0.8571428571428571
 40
0.8571428571428571
 40
1.0
 40
1.0
 40
1.0
 40
1.0
 10
-18.5742
 20
11.827
 30
0.0
 10
-18.6088
 20
11.9448
 30
0.0
 10
-18.6193
 20
12.0106
 30
0.0
 10
-18.6467
 20
12.0683
 30
0.0
 10
-18.781
 20
12.3512
 30
0.0
 10
-18.9098
 20
12.6375
 30
0.0
 10
-19.0623
 20
12.9102
 30
0.0
 10
-19.1225
 20
13.0176
 30
0.0
 10
-19.1194
 20
13.0748
 30
0.0
 10
-19.033
 20
13.1522
 30
0.0
 10
-18.7176
 20
13.4343
 30
0.0
 10
-18.6989
 20
13.4372
 30
0.0
 10
-18.4848
 20
13.0645
 30
0.0
 10
-18.3711
 20
12.8667
 30
0.0
 10
-18.2691
 20
12.6597
 30
0.0
 10
-18.1893
 20
12.4467
 30
0.0
 10
-18.1629
 20
12.3753
 30
0.0
 10
-18.1992
 20
12.2568
 30
0.0
 10
-18.2468
 20
12.187
 30
0.0
 10
-18.3284
 20
12.0676
 30
0.0
 10
-18.4412
 20
11.9696
 30
0.0
 10
-18.5742
 20
11.827
 30
0.0
  0
SPLINE
  5
74
330
1F
100
AcDbEntity
  8
Layer 1
 62
   250
370
     9
100
AcDbSpline
210
0.0
220
0.0
230
1.0
 70
    11
 71
     3
 72
    59
 73
    55
 74
     0
 42
0.0000000001
 43
0.0000000001
 40
0.0
 40
0.0
 40
0.0
 40
0.0
 40
0.0555555555555556
 40
0.0555555555555556
 40
0.0555555555555556
 40
0.1111111111111111
 40
0.1111111111111111
 40
0.1111111111111111
 40
0.1666666666666667
 40
0.1666666666666667
 40
0.1666666666666667
 40
0.2222222222222222
 40
0.2222222222222222
 40
0.2222222222222222
 40
0.2777777777777778
 40
0.2777777777777778
 40
0.2777777777777778
 40
0.3333333333333333
 40
0.3333333333333333
 40
0.3333333333333333
 40
0.3888888888888888
 40
0.3888888888888888
 40
0.3888888888888888
 40
0.4444444444444444
 40
0.4444444444444444
 40
0.4444444444444444
 40
0.5
 40
0.5
 40
0.5
 40
0.5555555555555556
 40
0.5555555555555556
 40
0.5555555555555556
 40
0.611111111111111
 40
0.611111111111111
 40
0.611111111111111
 40
0.6666666666666666
 40
0.6666666666666666
 40
0.6666666666666666
 40
0.7222222222222222
 40
0.7222222222222222
 40
0.7222222222222222
 40
0.7777777777777777
 40
0.7777777777777777
 40
0.7777777777777777
 40
0.8333333333333333
 40
0.8333333333333333
 40
0.8333333333333333
 40
0.8888888888888888
 40
0.8888888888888888
 40
0.8888888888888888
 40
0.9444444444444444
 40
0.9444444444444444
 40
0.9444444444444444
 40
1.0
 40
1.0
 40
1.0
 40
1.0
 10
3.8133
 20
8.9758
 30
0.0
 10
3.7626
 20
8.9655
 30
0.0
 10
3.7123
 20
8.9476
 30
0.0
 10
3.6614
 20
8.9463
 30
0.0
 10
3.485
 20
8.942
 30
0.0
 10
3.3073
 20
8.9524
 30
0.0
 10
3.1318
 20
8.9372
 30
0.0
 10
3.0857
 20
8.9334
 30
0.0
 10
3.0457
 20
8.857
 30
0.0
 10
3.0034
 20
8.8132
 30
0.0
 10
3.0009
 20
8.8108
 30
0.0
 10
3.003
 20
8.8041
 30
0.0
 10
3.0026
 20
8.7993
 30
0.0
 10
2.9823
 20
8.3037
 30
0.0
 10
2.9823
 20
8.3039
 30
0.0
 10
3.4619
 20
8.2853
 30
0.0
 10
3.4977
 20
8.2839
 30
0.0
 10
3.5331
 20
8.2752
 30
0.0
 10
3.5691
 20
8.27
 30
0.0
 10
3.5708
 20
8.2517
 30
0.0
 10
3.5721
 20
8.2336
 30
0.0
 10
3.5739
 20
8.2153
 30
0.0
 10
3.4739
 20
8.2102
 30
0.0
 10
3.3737
 20
8.2011
 30
0.0
 10
3.2738
 20
8.2004
 30
0.0
 10
3.0009
 20
8.1985
 30
0.0
 10
3.0009
 20
8.1998
 30
0.0
 10
3.0016
 20
7.9249
 30
0.0
 10
3.0026
 20
7.4771
 30
0.0
 10
3.0026
 20
7.4787
 30
0.0
 10
3.4495
 20
7.4762
 30
0.0
 10
3.5714
 20
7.4757
 30
0.0
 10
3.6938
 20
7.4612
 30
0.0
 10
3.8197
 20
7.4218
 30
0.0
 10
3.7985
 20
7.4126
 30
0.0
 10
3.777
 20
7.3959
 30
0.0
 10
3.7558
 20
7.3959
 30
0.0
 10
3.455
 20
7.3944
 30
0.0
 10
3.1539
 20
7.389
 30
0.0
 10
2.8535
 20
7.4017
 30
0.0
 10
2.8055
 20
7.4036
 30
0.0
 10
2.7223
 20
7.4882
 30
0.0
 10
2.7212
 20
7.5359
 30
0.0
 10
2.7115
 20
7.9944
 30
0.0
 10
2.7136
 20
8.4529
 30
0.0
 10
2.7198
 20
8.9113
 30
0.0
 10
2.7205
 20
8.9562
 30
0.0
 10
2.7698
 20
9.0386
 30
0.0
 10
2.7983
 20
9.0395
 30
0.0
 10
3.1335
 20
9.0486
 30
0.0
 10
3.4692
 20
9.0453
 30
0.0
 10
3.8046
 20
9.0453
 30
0.0
 10
3.8075
 20
9.022
 30
0.0
 10
3.8103
 20
8.999
 30
0.0
 10
3.8133
 20
8.9758
 30
0.0
  0
SPLINE
  5
75
330
1F
100
AcDbEntity
  8
Layer 1
 62
   250
370
     9
100
AcDbSpline
210
0.0
220
0.0
230
1.0
 70
    11
 71
     3
 72
    59
 73
    55
 74
     0
 42
0.0000000001
 43
0.0000000001
 40
0.0
 40
0.0
 40
0.0
 40
0.0
 40
0.0555555555555556
 40
0.0555555555555556
 40
0.0555555555555556
 40
0.1111111111111111
 40
0.1111111111111111
 40
0.1111111111111111
 40
0.1666666666666667
 40
0.1666666666666667
 40
0.1666666666666667
 40
0.2222222222222222
 40
0.2222222222222222
 40
0.2222222222222222
 40
0.2777777777777778
 40
0.2777777777777778
 40
0.2777777777777778
 40
0.3333333333333333
 40
0.3333333333333333
 40
0.3333333333333333
 40
0.3888888888888888
 40
0.3888888888888888
 40
0.3888888888888888
 40
0.4444444444444444
 40
0.4444444444444444
 40
0.4444444444444444
 40
0.5
 40
0.5
 40
0.5
 40
0.5555555555555556
 40
0.5555555555555556
 40
0.5555555555555556
 40
0.611111111111111
 40
0.611111111111111
 40
0.611111111111111
 40
0.6666666666666666
 40
0.6666666666666666
 40
0.6666666666666666
 40
0.7222222222222222
 40
0.7222222222222222
 40
0.7222222222222222
 40
0.7777777777777777
 40
0.7777777777777777
 40
0.7777777777777777
 40
0.8333333333333333
 40
0.8333333333333333
 40
0.8333333333333333
 40
0.8888888888888888
 40
0.8888888888888888
 40
0.8888888888888888
 40
0.9444444444444444
 40
0.9444444444444444
 40
0.9444444444444444
 40
1.0
 40
1.0
 40
1.0
 40
1.0
 10
-5.9154
 20
7.3947
 30
0.0
 10
-6.1125
 20
7.3947
 30
0.0
 10
-6.3095
 20
7.3947
 30
0.0
 10
-6.5066
 20
7.3947
 30
0.0
 10
-7.0115
 20
7.3947
 30
0.0
 10
-7.0118
 20
7.3947
 30
0.0
 10
-7.0115
 20
7.906
 30
0.0
 10
-7.0115
 20
8.2311
 30
0.0
 10
-7.0092
 20
8.5563
 30
0.0
 10
-7.0119
 20
8.8814
 30
0.0
 10
-7.0129
 20
9.0035
 30
0.0
 10
-6.9587
 20
9.0561
 30
0.0
 10
-6.8387
 20
9.053
 30
0.0
 10
-6.5477
 20
9.0458
 30
0.0
 10
-6.2566
 20
9.0411
 30
0.0
 10
-5.9657
 20
9.0341
 30
0.0
 10
-5.9495
 20
9.0337
 30
0.0
 10
-5.9339
 20
9.0206
 30
0.0
 10
-5.865
 20
8.9897
 30
0.0
 10
-5.9635
 20
8.9676
 30
0.0
 10
-6.0117
 20
8.9483
 30
0.0
 10
-6.0611
 20
8.947
 30
0.0
 10
-6.2281
 20
8.9426
 30
0.0
 10
-6.3967
 20
8.9551
 30
0.0
 10
-6.5625
 20
8.9381
 30
0.0
 10
-6.617
 20
8.9326
 30
0.0
 10
-6.6646
 20
8.8572
 30
0.0
 10
-6.7142
 20
8.8122
 30
0.0
 10
-6.7198
 20
8.8074
 30
0.0
 10
-6.7177
 20
8.7939
 30
0.0
 10
-6.7191
 20
8.7844
 30
0.0
 10
-6.7796
 20
8.3273
 30
0.0
 10
-6.7486
 20
8.2916
 30
0.0
 10
-6.2908
 20
8.2847
 30
0.0
 10
-6.2377
 20
8.2839
 30
0.0
 10
-6.1848
 20
8.2721
 30
0.0
 10
-6.1318
 20
8.2652
 30
0.0
 10
-6.132
 20
8.2434
 30
0.0
 10
-6.1327
 20
8.2215
 30
0.0
 10
-6.1331
 20
8.1998
 30
0.0
 10
-6.2603
 20
8.1998
 30
0.0
 10
-6.3882
 20
8.1924
 30
0.0
 10
-6.5147
 20
8.2018
 30
0.0
 10
-6.667
 20
8.2129
 30
0.0
 10
-6.7265
 20
8.1611
 30
0.0
 10
-6.7261
 20
8.0002
 30
0.0
 10
-6.7244
 20
7.4549
 30
0.0
 10
-6.7295
 20
7.4549
 30
0.0
 10
-6.1872
 20
7.4549
 30
0.0
 10
-6.0976
 20
7.4549
 30
0.0
 10
-6.008
 20
7.4549
 30
0.0
 10
-5.9184
 20
7.4549
 30
0.0
 10
-5.9173
 20
7.4346
 30
0.0
 10
-5.9164
 20
7.4146
 30
0.0
 10
-5.9154
 20
7.3947
 30
0.0
  0
SPLINE
  5
76
330
1F
100
AcDbEntity
  8
Layer 1
 62
   250
370
     9
100
AcDbSpline
210
0.0
220
0.0
230
1.0
 70
    11
 71
     3
 72
    59
 73
    55
 74
     0
 42
0.0000000001
 43
0.0000000001
 40
0.0
 40
0.0
 40
0.0
 40
0.0
 40
0.0555555555555556
 40
0.0555555555555556
 40
0.0555555555555556
 40
0.1111111111111111
 40
0.1111111111111111
 40
0.1111111111111111
 40
0.1666666666666667
 40
0.1666666666666667
 40
0.1666666666666667
 40
0.2222222222222222
 40
0.2222222222222222
 40
0.2222222222222222
 40
0.2777777777777778
 40
0.2777777777777778
 40
0.2777777777777778
 40
0.3333333333333333
 40
0.3333333333333333
 40
0.3333333333333333
 40
0.3888888888888888
 40
0.3888888888888888
 40
0.3888888888888888
 40
0.4444444444444444
 40
0.4444444444444444
 40
0.4444444444444444
 40
0.5
 40
0.5
 40
0.5
 40
0.5555555555555556
 40
0.5555555555555556
 40
0.5555555555555556
 40
0.611111111111111
 40
0.611111111111111
 40
0.611111111111111
 40
0.6666666666666666
 40
0.6666666666666666
 40
0.6666666666666666
 40
0.7222222222222222
 40
0.7222222222222222
 40
0.7222222222222222
 40
0.7777777777777777
 40
0.7777777777777777
 40
0.7777777777777777
 40
0.8333333333333333
 40
0.8333333333333333
 40
0.8333333333333333
 40
0.8888888888888888
 40
0.8888888888888888
 40
0.8888888888888888
 40
0.9444444444444444
 40
0.9444444444444444
 40
0.9444444444444444
 40
1.0
 40
1.0
 40
1.0
 40
1.0
 10
-1.7703
 20
8.1994
 30
0.0
 10
-1.8956
 20
8.1994
 30
0.0
 10
-2.0218
 20
8.1914
 30
0.0
 10
-2.146
 20
8.2016
 30
0.0
 10
-2.2997
 20
8.2143
 30
0.0
 10
-2.3514
 20
8.1515
 30
0.0
 10
-2.3394
 20
8.0028
 30
0.0
 10
-2.3293
 20
7.8794
 30
0.0
 10
-2.3307
 20
7.7539
 30
0.0
 10
-2.3404
 20
7.6303
 30
0.0
 10
-2.3511
 20
7.4866
 30
0.0
 10
-2.2866
 20
7.4484
 30
0.0
 10
-2.1541
 20
7.4536
 30
0.0
 10
-1.9458
 20
7.4619
 30
0.0
 10
-1.7375
 20
7.4558
 30
0.0
 10
-1.511
 20
7.4558
 30
0.0
 10
-1.5317
 20
7.4248
 30
0.0
 10
-1.5384
 20
7.4062
 30
0.0
 10
-1.5452
 20
7.4062
 30
0.0
 10
-1.8746
 20
7.4022
 30
0.0
 10
-2.2039
 20
7.3966
 30
0.0
 10
-2.5333
 20
7.4028
 30
0.0
 10
-2.565
 20
7.4033
 30
0.0
 10
-2.6215
 20
7.4779
 30
0.0
 10
-2.6222
 20
7.5187
 30
0.0
 10
-2.6284
 20
7.9871
 30
0.0
 10
-2.6291
 20
8.4556
 30
0.0
 10
-2.6204
 20
8.924
 30
0.0
 10
-2.6198
 20
8.9668
 30
0.0
 10
-2.546
 20
9.0444
 30
0.0
 10
-2.505
 20
9.0453
 30
0.0
 10
-2.2046
 20
9.0509
 30
0.0
 10
-1.9042
 20
9.042
 30
0.0
 10
-1.6034
 20
9.0351
 30
0.0
 10
-1.5797
 20
9.0345
 30
0.0
 10
-1.5562
 20
9.0155
 30
0.0
 10
-1.5321
 20
8.9618
 30
0.0
 10
-1.6017
 20
8.9558
 30
0.0
 10
-1.6713
 20
8.9466
 30
0.0
 10
-1.7409
 20
8.9452
 30
0.0
 10
-1.889
 20
8.9425
 30
0.0
 10
-2.0372
 20
8.9415
 30
0.0
 10
-2.1853
 20
8.9445
 30
0.0
 10
-2.2956
 20
8.9466
 30
0.0
 10
-2.3349
 20
8.8955
 30
0.0
 10
-2.3394
 20
8.788
 30
0.0
 10
-2.3597
 20
8.3057
 30
0.0
 10
-2.3617
 20
8.306
 30
0.0
 10
-1.8839
 20
8.2844
 30
0.0
 10
-1.8445
 20
8.2827
 30
0.0
 10
-1.8054
 20
8.2721
 30
0.0
 10
-1.7664
 20
8.2656
 30
0.0
 10
-1.7678
 20
8.2435
 30
0.0
 10
-1.7689
 20
8.2215
 30
0.0
 10
-1.7703
 20
8.1994
 30
0.0
  0
SPLINE
  5
77
330
1F
100
AcDbEntity
  8
Layer 1
 62
   250
370
     9
100
AcDbSpline
210
0.0
220
0.0
230
1.0
 70
    11
 71
     3
 72
    44
 73
    40
 74
     0
 42
0.0000000001
 43
0.0000000001
 40
0.0
 40
0.0
 40
0.0
 40
0.0
 40
0.0769230769230769
 40
0.0769230769230769
 40
0.0769230769230769
 40
0.1538461538461539
 40
0.1538461538461539
 40
0.1538461538461539
 40
0.2307692307692308
 40
0.2307692307692308
 40
0.2307692307692308
 40
0.3076923076923077
 40
0.3076923076923077
 40
0.3076923076923077
 40
0.3846153846153846
 40
0.3846153846153846
 40
0.3846153846153846
 40
0.4615384615384616
 40
0.4615384615384616
 40
0.4615384615384616
 40
0.5384615384615385
 40
0.5384615384615385
 40
0.5384615384615385
 40
0.6153846153846154
 40
0.6153846153846154
 40
0.6153846153846154
 40
0.6923076923076923
 40
0.6923076923076923
 40
0.6923076923076923
 40
0.7692307692307693
 40
0.7692307692307693
 40
0.7692307692307693
 40
0.8461538461538463
 40
0.8461538461538463
 40
0.8461538461538463
 40
0.9230769230769231
 40
0.9230769230769231
 40
0.9230769230769231
 40
1.0
 40
1.0
 40
1.0
 40
1.0
 10
7.1578
 20
8.2018
 30
0.0
 10
7.3479
 20
8.4939
 30
0.0
 10
7.5261
 20
8.7676
 30
0.0
 10
7.7039
 20
9.0413
 30
0.0
 10
7.7196
 20
9.0334
 30
0.0
 10
7.7354
 20
9.0255
 30
0.0
 10
7.751
 20
9.0177
 30
0.0
 10
7.7425
 20
8.9872
 30
0.0
 10
7.7404
 20
8.9527
 30
0.0
 10
7.7241
 20
8.9267
 30
0.0
 10
7.6116
 20
8.7443
 30
0.0
 10
7.5149
 20
8.547
 30
0.0
 10
7.3762
 20
8.3866
 30
0.0
 10
7.1608
 20
8.138
 30
0.0
 10
7.1864
 20
7.8508
 30
0.0
 10
7.1874
 20
7.5624
 30
0.0
 10
7.1878
 20
7.4654
 30
0.0
 10
7.1671
 20
7.3758
 30
0.0
 10
7.0496
 20
7.4004
 30
0.0
 10
6.9958
 20
7.4117
 30
0.0
 10
6.9091
 20
7.4911
 30
0.0
 10
6.9146
 20
7.5276
 30
0.0
 10
6.9821
 20
7.9599
 30
0.0
 10
6.7954
 20
8.3029
 30
0.0
 10
6.5549
 20
8.6317
 30
0.0
 10
6.5069
 20
8.6968
 30
0.0
 10
6.466
 20
8.7681
 30
0.0
 10
6.4318
 20
8.8412
 30
0.0
 10
6.4036
 20
8.9014
 30
0.0
 10
6.3899
 20
8.9684
 30
0.0
 10
6.3695
 20
9.0325
 30
0.0
 10
6.486
 20
9.0444
 30
0.0
 10
6.6024
 20
9.0826
 30
0.0
 10
6.6827
 20
8.942
 30
0.0
 10
6.8009
 20
8.7352
 30
0.0
 10
6.9325
 20
8.5361
 30
0.0
 10
7.0595
 20
8.3343
 30
0.0
 10
7.084
 20
8.2956
 30
0.0
 10
7.1144
 20
8.2603
 30
0.0
 10
7.1578
 20
8.2018
 30
0.0
  0
SPLINE
  5
78
330
1F
100
AcDbEntity
  8
Layer 1
 62
   250
370
     9
100
AcDbSpline
210
0.0
220
0.0
230
1.0
 70
    11
 71
     3
 72
    41
 73
    37
 74
     0
 42
0.0000000001
 43
0.0000000001
 40
0.0
 40
0.0
 40
0.0
 40
0.0
 40
0.0833333333333333
 40
0.0833333333333333
 40
0.0833333333333333
 40
0.1666666666666667
 40
0.1666666666666667
 40
0.1666666666666667
 40
0.25
 40
0.25
 40
0.25
 40
0.3333333333333333
 40
0.3333333333333333
 40
0.3333333333333333
 40
0.4166666666666666
 40
0.4166666666666666
 40
0.4166666666666666
 40
0.5
 40
0.5
 40
0.5
 40
0.5833333333333333
 40
0.5833333333333333
 40
0.5833333333333333
 40
0.6666666666666666
 40
0.6666666666666666
 40
0.6666666666666666
 40
0.75
 40
0.75
 40
0.75
 40
0.8333333333333333
 40
0.8333333333333333
 40
0.8333333333333333
 40
0.9166666666666666
 40
0.9166666666666666
 40
0.9166666666666666
 40
1.0
 40
1.0
 40
1.0
 40
1.0
 10
-8.6613
 20
8.1225
 30
0.0
 10
-8.6804
 20
8.0908
 30
0.0
 10
-8.7007
 20
8.06
 30
0.0
 10
-8.7185
 20
8.0276
 30
0.0
 10
-8.8013
 20
7.8761
 30
0.0
 10
-8.7969
 20
7.7036
 30
0.0
 10
-8.6773
 20
7.6034
 30
0.0
 10
-8.5738
 20
7.517
 30
0.0
 10
-8.3992
 20
7.4591
 30
0.0
 10
-8.2681
 20
7.4769
 30
0.0
 10
-8.117
 20
7.4975
 30
0.0
 10
-8.0191
 20
7.6412
 30
0.0
 10
-8.0194
 20
7.8184
 30
0.0
 10
-8.0201
 20
8.1675
 30
0.0
 10
-8.0195
 20
8.5164
 30
0.0
 10
-8.0168
 20
8.8654
 30
0.0
 10
-8.0162
 20
8.9483
 30
0.0
 10
-8.0336
 20
9.0406
 30
0.0
 10
-7.8943
 20
9.0439
 30
0.0
 10
-7.7661
 20
9.0469
 30
0.0
 10
-7.7376
 20
8.979
 30
0.0
 10
-7.7383
 20
8.8776
 30
0.0
 10
-7.7403
 20
8.5391
 30
0.0
 10
-7.7311
 20
8.1998
 30
0.0
 10
-7.7526
 20
7.8625
 30
0.0
 10
-7.7755
 20
7.5028
 30
0.0
 10
-8.1477
 20
7.281
 30
0.0
 10
-8.5016
 20
7.3953
 30
0.0
 10
-8.8028
 20
7.4929
 30
0.0
 10
-8.9301
 20
7.7222
 30
0.0
 10
-8.8283
 20
8.0028
 30
0.0
 10
-8.8065
 20
8.0633
 30
0.0
 10
-8.747
 20
8.1101
 30
0.0
 10
-8.705
 20
8.1632
 30
0.0
 10
-8.6904
 20
8.1495
 30
0.0
 10
-8.6759
 20
8.136
 30
0.0
 10
-8.6613
 20
8.1225
 30
0.0
  0
SPLINE
  5
79
330
1F
100
AcDbEntity
  8
Layer 1
 62
   250
370
     9
100
AcDbSpline
210
0.0
220
0.0
230
1.0
 70
    11
 71
     3
 72
    32
 73
    28
 74
     0
 42
0.0000000001
 43
0.0000000001
 40
0.0
 40
0.0
 40
0.0
 40
0.0
 40
0.1111111111111111
 40
0.1111111111111111
 40
0.1111111111111111
 40
0.2222222222222222
 40
0.2222222222222222
 40
0.2222222222222222
 40
0.3333333333333333
 40
0.3333333333333333
 40
0.3333333333333333
 40
0.4444444444444444
 40
0.4444444444444444
 40
0.4444444444444444
 40
0.5555555555555556
 40
0.5555555555555556
 40
0.5555555555555556
 40
0.6666666666666666
 40
0.6666666666666666
 40
0.6666666666666666
 40
0.7777777777777777
 40
0.7777777777777777
 40
0.7777777777777777
 40
0.8888888888888888
 40
0.8888888888888888
 40
0.8888888888888888
 40
1.0
 40
1.0
 40
1.0
 40
1.0
 10
0.2276
 20
7.3992
 30
0.0
 10
-0.0893
 20
7.3992
 30
0.0
 10
-0.4067
 20
7.3956
 30
0.0
 10
-0.7232
 20
7.4046
 30
0.0
 10
-0.7549
 20
7.4054
 30
0.0
 10
-0.8105
 20
7.4818
 30
0.0
 10
-0.811
 20
7.5235
 30
0.0
 10
-0.8176
 20
7.9864
 30
0.0
 10
-0.8204
 20
8.4495
 30
0.0
 10
-0.8096
 20
8.9123
 30
0.0
 10
-0.8087
 20
8.9601
 30
0.0
 10
-0.715
 20
9.0059
 30
0.0
 10
-0.6642
 20
9.0527
 30
0.0
 10
-0.6188
 20
9.0013
 30
0.0
 10
-0.5351
 20
8.951
 30
0.0
 10
-0.5337
 20
8.8985
 30
0.0
 10
-0.5227
 20
8.493
 30
0.0
 10
-0.5207
 20
8.087
 30
0.0
 10
-0.5303
 20
7.6816
 30
0.0
 10
-0.5345
 20
7.5097
 30
0.0
 10
-0.4848
 20
7.4377
 30
0.0
 10
-0.3043
 20
7.4516
 30
0.0
 10
-0.1275
 20
7.4652
 30
0.0
 10
0.0512
 20
7.4545
 30
0.0
 10
0.229
 20
7.4545
 30
0.0
 10
0.2286
 20
7.436
 30
0.0
 10
0.2283
 20
7.4177
 30
0.0
 10
0.2276
 20
7.3992
 30
0.0
  0
SPLINE
  5
7A
330
1F
100
AcDbEntity
  8
Layer 1
 62
   250
370
     9
100
AcDbSpline
210
0.0
220
0.0
230
1.0
 70
    11
 71
     3
 72
    32
 73
    28
 74
     0
 42
0.0000000001
 43
0.0000000001
 40
0.0
 40
0.0
 40
0.0
 40
0.0
 40
0.1111111111111111
 40
0.1111111111111111
 40
0.1111111111111111
 40
0.2222222222222222
 40
0.2222222222222222
 40
0.2222222222222222
 40
0.3333333333333333
 40
0.3333333333333333
 40
0.3333333333333333
 40
0.4444444444444444
 40
0.4444444444444444
 40
0.4444444444444444
 40
0.5555555555555556
 40
0.5555555555555556
 40
0.5555555555555556
 40
0.6666666666666666
 40
0.6666666666666666
 40
0.6666666666666666
 40
0.7777777777777777
 40
0.7777777777777777
 40
0.7777777777777777
 40
0.8888888888888888
 40
0.8888888888888888
 40
0.8888888888888888
 40
1.0
 40
1.0
 40
1.0
 40
1.0
 10
2.0379
 20
7.3989
 30
0.0
 10
1.71
 20
7.3989
 30
0.0
 10
1.3822
 20
7.395
 30
0.0
 10
1.0545
 20
7.4049
 30
0.0
 10
1.0223
 20
7.4059
 30
0.0
 10
0.9663
 20
7.4908
 30
0.0
 10
0.9656
 20
7.5373
 30
0.0
 10
0.9593
 20
7.9962
 30
0.0
 10
0.9584
 20
8.4553
 30
0.0
 10
0.9697
 20
8.9142
 30
0.0
 10
0.9711
 20
8.9613
 30
0.0
 10
1.0637
 20
9.0063
 30
0.0
 10
1.1141
 20
9.0523
 30
0.0
 10
1.1546
 20
9.001
 30
0.0
 10
1.2292
 20
8.9504
 30
0.0
 10
1.2306
 20
8.8984
 30
0.0
 10
1.2401
 20
8.4685
 30
0.0
 10
1.2398
 20
8.0386
 30
0.0
 10
1.2347
 20
7.6087
 30
0.0
 10
1.2329
 20
7.4791
 30
0.0
 10
1.2908
 20
7.4598
 30
0.0
 10
1.4028
 20
7.4642
 30
0.0
 10
1.6149
 20
7.4728
 30
0.0
 10
1.8275
 20
7.4667
 30
0.0
 10
2.0397
 20
7.4667
 30
0.0
 10
2.0391
 20
7.4441
 30
0.0
 10
2.0388
 20
7.4215
 30
0.0
 10
2.0379
 20
7.3989
 30
0.0
  0
SPLINE
  5
7B
330
1F
100
AcDbEntity
  8
Layer 1
 62
   250
370
     9
100
AcDbSpline
210
0.0
220
0.0
230
1.0
 70
    11
 71
     3
 72
    17
 73
    13
 74
     0
 42
0.0000000001
 43
0.0000000001
 40
0.0
 40
0.0
 40
0.0
 40
0.0
 40
0.25
 40
0.25
 40
0.25
 40
0.5
 40
0.5
 40
0.5
 40
0.75
 40
0.75
 40
0.75
 40
1.0
 40
1.0
 40
1.0
 40
1.0
 10
-15.8919
 20
-0.8379
 30
0.0
 10
-15.8919
 20
-1.552
 30
0.0
 10
-15.6718
 20
-1.9578
 30
0.0
 10
-15.3337
 20
-1.9578
 30
0.0
 10
-14.9534
 20
-1.9578
 30
0.0
 10
-14.7715
 20
-1.5141
 30
0.0
 10
-14.7715
 20
-0.8124
 30
0.0
 10
-14.7715
 20
-0.1361
 30
0.0
 10
-14.9447
 20
0.308
 30
0.0
 10
-15.3293
 20
0.308
 30
0.0
 10
-15.655
 20
0.308
 30
0.0
 10
-15.8919
 20
-0.0896
 30
0.0
 10
-15.8919
 20
-0.8379
 30
0.0
  0
SPLINE
  5
7C
330
1F
100
AcDbEntity
  8
Layer 1
 62
   250
370
     9
100
AcDbSpline
210
0.0
220
0.0
230
1.0
 70
    11
 71
     3
 72
    17
 73
    13
 74
     0
 42
0.0000000001
 43
0.0000000001
 40
0.0
 40
0.0
 40
0.0
 40
0.0
 40
0.25
 40
0.25
 40
0.25
 40
0.5
 40
0.5
 40
0.5
 40
0.75
 40
0.75
 40
0.75
 40
1.0
 40
1.0
 40
1.0
 40
1.0
 10
-14.3996
 20
-0.7954
 30
0.0
 10
-14.3996
 20
-1.7298
 30
0.0
 10
-14.7461
 20
-2.2456
 30
0.0
 10
-15.355
 20
-2.2456
 30
0.0
 10
-15.8919
 20
-2.2456
 30
0.0
 10
-16.2552
 20
-1.7421
 30
0.0
 10
-16.2638
 20
-0.8337
 30
0.0
 10
-16.2638
 20
0.0881
 30
0.0
 10
-15.8664
 20
0.5953
 30
0.0
 10
-15.3083
 20
0.5953
 30
0.0
 10
-14.7293
 20
0.5953
 30
0.0
 10
-14.3996
 20
0.0796
 30
0.0
 10
-14.3996
 20
-0.7954
 30
0.0
  0
SPLINE
  5
7D
330
1F
100
AcDbEntity
  8
Layer 1
 62
   250
370
     9
100
AcDbSpline
210
0.0
220
0.0
230
1.0
 70
    11
 71
     3
 72
    20
 73
    16
 74
     0
 42
0.0000000001
 43
0.0000000001
 40
0.0
 40
0.0
 40
0.0
 40
0.0
 40
0.2
 40
0.2
 40
0.2
 40
0.4
 40
0.4
 40
0.4
 40
0.6000000000000001
 40
0.6000000000000001
 40
0.6000000000000001
 40
0.8
 40
0.8
 40
0.8
 40
1.0
 40
1.0
 40
1.0
 40
1.0
 10
-13.7057
 20
-0.3558
 30
0.0
 10
-13.7057
 20
-0.6983
 30
0.0
 10
-13.4988
 20
-0.9392
 30
0.0
 10
-13.1774
 20
-0.9392
 30
0.0
 10
-12.928
 20
-0.9392
 30
0.0
 10
-12.7334
 20
-0.8168
 30
0.0
 10
-12.6362
 20
-0.6519
 30
0.0
 10
-12.615
 20
-0.6181
 30
0.0
 10
-12.6025
 20
-0.5757
 30
0.0
 10
-12.6025
 20
-0.5164
 30
0.0
 10
-12.6025
 20
-0.0472
 30
0.0
 10
-12.7757
 20
0.3118
 30
0.0
 10
-13.1647
 20
0.3118
 30
0.0
 10
-13.4816
 20
0.3118
 30
0.0
 10
-13.7057
 20
0.033
 30
0.0
 10
-13.7057
 20
-0.3558
 30
0.0
  0
SPLINE
  5
7E
330
1F
100
AcDbEntity
  8
Layer 1
 62
   250
370
     9
100
AcDbSpline
210
0.0
220
0.0
230
1.0
 70
    11
 71
     3
 72
    41
 73
    37
 74
     0
 42
0.0000000001
 43
0.0000000001
 40
0.0
 40
0.0
 40
0.0
 40
0.0
 40
0.0833333333333333
 40
0.0833333333333333
 40
0.0833333333333333
 40
0.1666666666666667
 40
0.1666666666666667
 40
0.1666666666666667
 40
0.25
 40
0.25
 40
0.25
 40
0.3333333333333333
 40
0.3333333333333333
 40
0.3333333333333333
 40
0.4166666666666666
 40
0.4166666666666666
 40
0.4166666666666666
 40
0.5
 40
0.5
 40
0.5
 40
0.5833333333333333
 40
0.5833333333333333
 40
0.5833333333333333
 40
0.6666666666666666
 40
0.6666666666666666
 40
0.6666666666666666
 40
0.75
 40
0.75
 40
0.75
 40
0.8333333333333333
 40
0.8333333333333333
 40
0.8333333333333333
 40
0.9166666666666666
 40
0.9166666666666666
 40
0.9166666666666666
 40
1.0
 40
1.0
 40
1.0
 40
1.0
 10
-13.8412
 20
-1.9369
 30
0.0
 10
-13.7607
 20
-1.9454
 30
0.0
 10
-13.6678
 20
-1.9369
 30
0.0
 10
-13.5409
 20
-1.9245
 30
0.0
 10
-13.3254
 20
-1.8944
 30
0.0
 10
-13.1226
 20
-1.8055
 30
0.0
 10
-12.966
 20
-1.6578
 30
0.0
 10
-12.7842
 20
-1.4932
 30
0.0
 10
-12.6533
 20
-1.252
 30
0.0
 10
-12.6025
 20
-0.9268
 30
0.0
 10
-12.6025
 20
-0.9268
 30
0.0
 10
-12.615
 20
-0.9268
 30
0.0
 10
-12.615
 20
-0.9268
 30
0.0
 10
-12.7673
 20
-1.1128
 30
0.0
 10
-12.9871
 20
-1.2226
 30
0.0
 10
-13.262
 20
-1.2226
 30
0.0
 10
-13.7563
 20
-1.2226
 30
0.0
 10
-14.0737
 20
-0.8503
 30
0.0
 10
-14.0737
 20
-0.3811
 30
0.0
 10
-14.0737
 20
0.1389
 30
0.0
 10
-13.6973
 20
0.5953
 30
0.0
 10
-13.1351
 20
0.5953
 30
0.0
 10
-12.5729
 20
0.5953
 30
0.0
 10
-12.2262
 20
0.1389
 30
0.0
 10
-12.2262
 20
-0.5632
 30
0.0
 10
-12.2262
 20
-1.1675
 30
0.0
 10
-12.4291
 20
-1.5903
 30
0.0
 10
-12.6996
 20
-1.8524
 30
0.0
 10
-12.9111
 20
-2.0595
 30
0.0
 10
-13.2026
 20
-2.1863
 30
0.0
 10
-13.4988
 20
-2.2201
 30
0.0
 10
-13.6339
 20
-2.2414
 30
0.0
 10
-13.7522
 20
-2.2456
 30
0.0
 10
-13.8412
 20
-2.2414
 30
0.0
 10
-13.8412
 20
-2.2414
 30
0.0
 10
-13.8412
 20
-1.9369
 30
0.0
 10
-13.8412
 20
-1.9369
 30
0.0
  0
SPLINE
  5
7F
330
1F
100
AcDbEntity
  8
Layer 1
 62
   250
370
     9
100
AcDbSpline
210
0.0
220
0.0
230
1.0
 70
    11
 71
     3
 72
    17
 73
    13
 74
     0
 42
0.0000000001
 43
0.0000000001
 40
0.0
 40
0.0
 40
0.0
 40
0.0
 40
0.25
 40
0.25
 40
0.25
 40
0.5
 40
0.5
 40
0.5
 40
0.75
 40
0.75
 40
0.75
 40
1.0
 40
1.0
 40
1.0
 40
1.0
 10
-11.5538
 20
-0.8379
 30
0.0
 10
-11.5538
 20
-1.552
 30
0.0
 10
-11.334
 20
-1.9578
 30
0.0
 10
-10.9958
 20
-1.9578
 30
0.0
 10
-10.6153
 20
-1.9578
 30
0.0
 10
-10.4334
 20
-1.5141
 30
0.0
 10
-10.4334
 20
-0.8124
 30
0.0
 10
-10.4334
 20
-0.1361
 30
0.0
 10
-10.6068
 20
0.308
 30
0.0
 10
-10.9915
 20
0.308
 30
0.0
 10
-11.317
 20
0.308
 30
0.0
 10
-11.5538
 20
-0.0896
 30
0.0
 10
-11.5538
 20
-0.8379
 30
0.0
  0
SPLINE
  5
80
330
1F
100
AcDbEntity
  8
Layer 1
 62
   250
370
     9
100
AcDbSpline
210
0.0
220
0.0
230
1.0
 70
    11
 71
     3
 72
    17
 73
    13
 74
     0
 42
0.0000000001
 43
0.0000000001
 40
0.0
 40
0.0
 40
0.0
 40
0.0
 40
0.25
 40
0.25
 40
0.25
 40
0.5
 40
0.5
 40
0.5
 40
0.75
 40
0.75
 40
0.75
 40
1.0
 40
1.0
 40
1.0
 40
1.0
 10
-10.0615
 20
-0.7954
 30
0.0
 10
-10.0615
 20
-1.7298
 30
0.0
 10
-10.4082
 20
-2.2456
 30
0.0
 10
-11.017
 20
-2.2456
 30
0.0
 10
-11.5538
 20
-2.2456
 30
0.0
 10
-11.9172
 20
-1.7421
 30
0.0
 10
-11.9257
 20
-0.8337
 30
0.0
 10
-11.9257
 20
0.0881
 30
0.0
 10
-11.5284
 20
0.5953
 30
0.0
 10
-10.9703
 20
0.5953
 30
0.0
 10
-10.3913
 20
0.5953
 30
0.0
 10
-10.0615
 20
0.0796
 30
0.0
 10
-10.0615
 20
-0.7954
 30
0.0
  0
SPLINE
  5
81
330
1F
100
AcDbEntity
  8
Layer 1
 62
   250
370
     9
100
AcDbSpline
210
0.0
220
0.0
230
1.0
 70
    11
 71
     3
 72
    50
 73
    46
 74
     0
 42
0.0000000001
 43
0.0000000001
 40
0.0
 40
0.0
 40
0.0
 40
0.0
 40
0.0666666666666667
 40
0.0666666666666667
 40
0.0666666666666667
 40
0.1333333333333333
 40
0.1333333333333333
 40
0.1333333333333333
 40
0.2
 40
0.2
 40
0.2
 40
0.2666666666666667
 40
0.2666666666666667
 40
0.2666666666666667
 40
0.3333333333333333
 40
0.3333333333333333
 40
0.3333333333333333
 40
0.4
 40
0.4
 40
0.4
 40
0.4666666666666667
 40
0.4666666666666667
 40
0.4666666666666667
 40
0.5333333333333333
 40
0.5333333333333333
 40
0.5333333333333333
 40
0.6
 40
0.6
 40
0.6
 40
0.6666666666666666
 40
0.6666666666666666
 40
0.6666666666666666
 40
0.7333333333333333
 40
0.7333333333333333
 40
0.7333333333333333
 40
0.8
 40
0.8
 40
0.8
 40
0.8666666666666667
 40
0.8666666666666667
 40
0.8666666666666667
 40
0.9333333333333333
 40
0.9333333333333333
 40
0.9333333333333333
 40
1.0
 40
1.0
 40
1.0
 40
1.0
 10
-8.0785
 20
0.236
 30
0.0
 10
-8.0785
 20
0.236
 30
0.0
 10
-9.1268
 20
0.236
 30
0.0
 10
-9.1268
 20
0.236
 30
0.0
 10
-9.1268
 20
0.236
 30
0.0
 10
-9.2325
 20
-0.47
 30
0.0
 10
-9.2325
 20
-0.47
 30
0.0
 10
-9.1691
 20
-0.4613
 30
0.0
 10
-9.11
 20
-0.453
 30
0.0
 10
-9.0085
 20
-0.453
 30
0.0
 10
-8.797
 20
-0.453
 30
0.0
 10
-8.5858
 20
-0.4998
 30
0.0
 10
-8.4167
 20
-0.6012
 30
0.0
 10
-8.201
 20
-0.7235
 30
0.0
 10
-8.0235
 20
-0.9605
 30
0.0
 10
-8.0235
 20
-1.3071
 30
0.0
 10
-8.0235
 20
-1.8441
 30
0.0
 10
-8.4506
 20
-2.2456
 30
0.0
 10
-9.0466
 20
-2.2456
 30
0.0
 10
-9.3466
 20
-2.2456
 30
0.0
 10
-9.6004
 20
-2.1611
 30
0.0
 10
-9.7315
 20
-2.0763
 30
0.0
 10
-9.7315
 20
-2.0763
 30
0.0
 10
-9.6383
 20
-1.7932
 30
0.0
 10
-9.6383
 20
-1.7932
 30
0.0
 10
-9.5242
 20
-1.8607
 30
0.0
 10
-9.3001
 20
-1.9454
 30
0.0
 10
-9.0507
 20
-1.9454
 30
0.0
 10
-8.6998
 20
-1.9454
 30
0.0
 10
-8.3997
 20
-1.7171
 30
0.0
 10
-8.3997
 20
-1.3494
 30
0.0
 10
-8.4039
 20
-0.9943
 30
0.0
 10
-8.6408
 20
-0.7403
 30
0.0
 10
-9.1903
 20
-0.7403
 30
0.0
 10
-9.3466
 20
-0.7403
 30
0.0
 10
-9.4692
 20
-0.7575
 30
0.0
 10
-9.5708
 20
-0.7703
 30
0.0
 10
-9.5708
 20
-0.7703
 30
0.0
 10
-9.3932
 20
0.5488
 30
0.0
 10
-9.3932
 20
0.5488
 30
0.0
 10
-9.3932
 20
0.5488
 30
0.0
 10
-8.0785
 20
0.5488
 30
0.0
 10
-8.0785
 20
0.5488
 30
0.0
 10
-8.0785
 20
0.5488
 30
0.0
 10
-8.0785
 20
0.236
 30
0.0
 10
-8.0785
 20
0.236
 30
0.0
  0
SPLINE
  5
82
330
1F
100
AcDbEntity
  8
Layer 1
 62
   250
370
     9
100
AcDbSpline
210
0.0
220
0.0
230
1.0
 70
    11
 71
     3
 72
    50
 73
    46
 74
     0
 42
0.0000000001
 43
0.0000000001
 40
0.0
 40
0.0
 40
0.0
 40
0.0
 40
0.0666666666666667
 40
0.0666666666666667
 40
0.0666666666666667
 40
0.1333333333333333
 40
0.1333333333333333
 40
0.1333333333333333
 40
0.2
 40
0.2
 40
0.2
 40
0.2666666666666667
 40
0.2666666666666667
 40
0.2666666666666667
 40
0.3333333333333333
 40
0.3333333333333333
 40
0.3333333333333333
 40
0.4
 40
0.4
 40
0.4
 40
0.4666666666666667
 40
0.4666666666666667
 40
0.4666666666666667
 40
0.5333333333333333
 40
0.5333333333333333
 40
0.5333333333333333
 40
0.6
 40
0.6
 40
0.6
 40
0.6666666666666666
 40
0.6666666666666666
 40
0.6666666666666666
 40
0.7333333333333333
 40
0.7333333333333333
 40
0.7333333333333333
 40
0.8
 40
0.8
 40
0.8
 40
0.8666666666666667
 40
0.8666666666666667
 40
0.8666666666666667
 40
0.9333333333333333
 40
0.9333333333333333
 40
0.9333333333333333
 40
1.0
 40
1.0
 40
1.0
 40
1.0
 10
-5.9095
 20
0.236
 30
0.0
 10
-5.9095
 20
0.236
 30
0.0
 10
-6.958
 20
0.236
 30
0.0
 10
-6.958
 20
0.236
 30
0.0
 10
-6.958
 20
0.236
 30
0.0
 10
-7.0636
 20
-0.47
 30
0.0
 10
-7.0636
 20
-0.47
 30
0.0
 10
-7.0002
 20
-0.4613
 30
0.0
 10
-6.9411
 20
-0.453
 30
0.0
 10
-6.8395
 20
-0.453
 30
0.0
 10
-6.6283
 20
-0.453
 30
0.0
 10
-6.4167
 20
-0.4998
 30
0.0
 10
-6.2478
 20
-0.6012
 30
0.0
 10
-6.0321
 20
-0.7235
 30
0.0
 10
-5.8546
 20
-0.9605
 30
0.0
 10
-5.8546
 20
-1.3071
 30
0.0
 10
-5.8546
 20
-1.8441
 30
0.0
 10
-6.2816
 20
-2.2456
 30
0.0
 10
-6.8777
 20
-2.2456
 30
0.0
 10
-7.1775
 20
-2.2456
 30
0.0
 10
-7.4315
 20
-2.1611
 30
0.0
 10
-7.5624
 20
-2.0763
 30
0.0
 10
-7.5624
 20
-2.0763
 30
0.0
 10
-7.4694
 20
-1.7932
 30
0.0
 10
-7.4694
 20
-1.7932
 30
0.0
 10
-7.3553
 20
-1.8607
 30
0.0
 10
-7.1313
 20
-1.9454
 30
0.0
 10
-6.8818
 20
-1.9454
 30
0.0
 10
-6.531
 20
-1.9454
 30
0.0
 10
-6.2308
 20
-1.7171
 30
0.0
 10
-6.2308
 20
-1.3494
 30
0.0
 10
-6.235
 20
-0.9943
 30
0.0
 10
-6.4717
 20
-0.7403
 30
0.0
 10
-7.0214
 20
-0.7403
 30
0.0
 10
-7.1775
 20
-0.7403
 30
0.0
 10
-7.3003
 20
-0.7575
 30
0.0
 10
-7.4018
 20
-0.7703
 30
0.0
 10
-7.4018
 20
-0.7703
 30
0.0
 10
-7.2242
 20
0.5488
 30
0.0
 10
-7.2242
 20
0.5488
 30
0.0
 10
-7.2242
 20
0.5488
 30
0.0
 10
-5.9095
 20
0.5488
 30
0.0
 10
-5.9095
 20
0.5488
 30
0.0
 10
-5.9095
 20
0.5488
 30
0.0
 10
-5.9095
 20
0.236
 30
0.0
 10
-5.9095
 20
0.236
 30
0.0
  0
SPLINE
  5
83
330
1F
100
AcDbEntity
  8
Layer 1
 62
   250
370
     9
100
AcDbSpline
210
0.0
220
0.0
230
1.0
 70
    11
 71
     3
 72
    20
 73
    16
 74
     0
 42
0.0000000001
 43
0.0000000001
 40
0.0
 40
0.0
 40
0.0
 40
0.0
 40
0.2
 40
0.2
 40
0.2
 40
0.4
 40
0.4
 40
0.4
 40
0.6000000000000001
 40
0.6000000000000001
 40
0.6000000000000001
 40
0.8
 40
0.8
 40
0.8
 40
1.0
 40
1.0
 40
1.0
 40
1.0
 10
-3.9182
 20
-1.2984
 30
0.0
 10
-3.9182
 20
-0.9054
 30
0.0
 10
-4.1421
 20
-0.6687
 30
0.0
 10
-4.4846
 20
-0.6687
 30
0.0
 10
-4.7085
 20
-0.6687
 30
0.0
 10
-4.9155
 20
-0.8083
 30
0.0
 10
-5.0172
 20
-1.007
 30
0.0
 10
-5.0424
 20
-1.049
 30
0.0
 10
-5.0592
 20
-1.1041
 30
0.0
 10
-5.0592
 20
-1.1716
 30
0.0
 10
-5.051
 20
-1.6241
 30
0.0
 10
-4.8436
 20
-1.9578
 30
0.0
 10
-4.4549
 20
-1.9578
 30
0.0
 10
-4.1339
 20
-1.9578
 30
0.0
 10
-3.9182
 20
-1.6919
 30
0.0
 10
-3.9182
 20
-1.2984
 30
0.0
  0
SPLINE
  5
84
330
1F
100
AcDbEntity
  8
Layer 1
 62
   250
370
     9
100
AcDbSpline
210
0.0
220
0.0
230
1.0
 70
    11
 71
     3
 72
    38
 73
    34
 74
     0
 42
0.0000000001
 43
0.0000000001
 40
0.0
 40
0.0
 40
0.0
 40
0.0
 40
0.0909090909090909
 40
0.0909090909090909
 40
0.0909090909090909
 40
0.1818181818181818
 40
0.1818181818181818
 40
0.1818181818181818
 40
0.2727272727272727
 40
0.2727272727272727
 40
0.2727272727272727
 40
0.3636363636363636
 40
0.3636363636363636
 40
0.3636363636363636
 40
0.4545454545454546
 40
0.4545454545454546
 40
0.4545454545454546
 40
0.5454545454545454
 40
0.5454545454545454
 40
0.5454545454545454
 40
0.6363636363636364
 40
0.6363636363636364
 40
0.6363636363636364
 40
0.7272727272727273
 40
0.7272727272727273
 40
0.7272727272727273
 40
0.8181818181818182
 40
0.8181818181818182
 40
0.8181818181818182
 40
0.9090909090909092
 40
0.9090909090909092
 40
0.9090909090909092
 40
1.0
 40
1.0
 40
1.0
 40
1.0
 10
-3.8124
 20
0.2866
 30
0.0
 10
-3.8883
 20
0.2907
 30
0.0
 10
-3.9857
 20
0.2866
 30
0.0
 10
-4.0916
 20
0.2698
 30
0.0
 10
-4.6748
 20
0.1726
 30
0.0
 10
-4.9834
 20
-0.2543
 30
0.0
 10
-5.0468
 20
-0.707
 30
0.0
 10
-5.0468
 20
-0.707
 30
0.0
 10
-5.034
 20
-0.707
 30
0.0
 10
-5.034
 20
-0.707
 30
0.0
 10
-4.9031
 20
-0.5334
 30
0.0
 10
-4.6748
 20
-0.3896
 30
0.0
 10
-4.3706
 20
-0.3896
 30
0.0
 10
-3.8842
 20
-0.3896
 30
0.0
 10
-3.5417
 20
-0.7403
 30
0.0
 10
-3.5417
 20
-1.2775
 30
0.0
 10
-3.5417
 20
-1.7805
 30
0.0
 10
-3.8842
 20
-2.2456
 30
0.0
 10
-4.4549
 20
-2.2456
 30
0.0
 10
-5.0424
 20
-2.2456
 30
0.0
 10
-5.4272
 20
-1.789
 30
0.0
 10
-5.4272
 20
-1.0745
 30
0.0
 10
-5.4272
 20
-0.5334
 30
0.0
 10
-5.2324
 20
-0.1064
 30
0.0
 10
-4.9621
 20
0.1639
 30
0.0
 10
-4.734
 20
0.3883
 30
0.0
 10
-4.4295
 20
0.5275
 30
0.0
 10
-4.0829
 20
0.5698
 30
0.0
 10
-3.9729
 20
0.5867
 30
0.0
 10
-3.88
 20
0.5908
 30
0.0
 10
-3.8124
 20
0.5908
 30
0.0
 10
-3.8124
 20
0.5908
 30
0.0
 10
-3.8124
 20
0.2866
 30
0.0
 10
-3.8124
 20
0.2866
 30
0.0
  0
SPLINE
  5
85
330
1F
100
AcDbEntity
  8
Layer 1
 62
   250
370
     9
100
AcDbSpline
210
0.0
220
0.0
230
1.0
 70
    11
 71
     3
 72
    47
 73
    43
 74
     0
 42
0.0000000001
 43
0.0000000001
 40
0.0
 40
0.0
 40
0.0
 40
0.0
 40
0.0714285714285714
 40
0.0714285714285714
 40
0.0714285714285714
 40
0.1428571428571428
 40
0.1428571428571428
 40
0.1428571428571428
 40
0.2142857142857143
 40
0.2142857142857143
 40
0.2142857142857143
 40
0.2857142857142857
 40
0.2857142857142857
 40
0.2857142857142857
 40
0.3571428571428571
 40
0.3571428571428571
 40
0.3571428571428571
 40
0.4285714285714285
 40
0.4285714285714285
 40
0.4285714285714285
 40
0.5
 40
0.5
 40
0.5
 40
0.5714285714285714
 40
0.5714285714285714
 40
0.5714285714285714
 40
0.6428571428571428
 40
0.6428571428571428
 40
0.6428571428571428
 40
0.7142857142857142
 40
0.7142857142857142
 40
0.7142857142857142
 40
0.7857142857142857
 40
0.7857142857142857
 40
0.7857142857142857
 40
0.8571428571428571
 40
0.8571428571428571
 40
0.8571428571428571
 40
0.9285714285714285
 40
0.9285714285714285
 40
0.9285714285714285
 40
1.0
 40
1.0
 40
1.0
 40
1.0
 10
-3.2115
 20
-2.199
 30
0.0
 10
-3.2115
 20
-2.199
 30
0.0
 10
-3.2115
 20
-1.9709
 30
0.0
 10
-3.2115
 20
-1.9709
 30
0.0
 10
-3.2115
 20
-1.9709
 30
0.0
 10
-2.9202
 20
-1.6875
 30
0.0
 10
-2.9202
 20
-1.6875
 30
0.0
 10
-2.2184
 20
-1.0194
 30
0.0
 10
-1.9012
 20
-0.6645
 30
0.0
 10
-1.8971
 20
-0.2501
 30
0.0
 10
-1.8971
 20
0.0289
 30
0.0
 10
-2.0321
 20
0.2866
 30
0.0
 10
-2.4423
 20
0.2866
 30
0.0
 10
-2.6918
 20
0.2866
 30
0.0
 10
-2.8987
 20
0.1598
 30
0.0
 10
-3.0257
 20
0.0541
 30
0.0
 10
-3.0257
 20
0.0541
 30
0.0
 10
-3.1437
 20
0.3162
 30
0.0
 10
-3.1437
 20
0.3162
 30
0.0
 10
-2.9536
 20
0.4772
 30
0.0
 10
-2.6832
 20
0.5953
 30
0.0
 10
-2.3661
 20
0.5953
 30
0.0
 10
-1.7743
 20
0.5953
 30
0.0
 10
-1.525
 20
0.1895
 30
0.0
 10
-1.525
 20
-0.2036
 30
0.0
 10
-1.525
 20
-0.7111
 30
0.0
 10
-1.8928
 20
-1.1211
 30
0.0
 10
-2.4719
 20
-1.6788
 30
0.0
 10
-2.4719
 20
-1.6788
 30
0.0
 10
-2.6918
 20
-1.882
 30
0.0
 10
-2.6918
 20
-1.882
 30
0.0
 10
-2.6918
 20
-1.882
 30
0.0
 10
-2.6918
 20
-1.8903
 30
0.0
 10
-2.6918
 20
-1.8903
 30
0.0
 10
-2.6918
 20
-1.8903
 30
0.0
 10
-1.457
 20
-1.8903
 30
0.0
 10
-1.457
 20
-1.8903
 30
0.0
 10
-1.457
 20
-1.8903
 30
0.0
 10
-1.457
 20
-2.199
 30
0.0
 10
-1.457
 20
-2.199
 30
0.0
 10
-1.457
 20
-2.199
 30
0.0
 10
-3.2115
 20
-2.199
 30
0.0
 10
-3.2115
 20
-2.199
 30
0.0
  0
SPLINE
  5
86
330
1F
100
AcDbEntity
  8
Layer 1
 62
   250
370
     9
100
AcDbSpline
210
0.0
220
0.0
230
1.0
 70
    11
 71
     3
 72
    17
 73
    13
 74
     0
 42
0.0000000001
 43
0.0000000001
 40
0.0
 40
0.0
 40
0.0
 40
0.0
 40
0.25
 40
0.25
 40
0.25
 40
0.5
 40
0.5
 40
0.5
 40
0.75
 40
0.75
 40
0.75
 40
1.0
 40
1.0
 40
1.0
 40
1.0
 10
-0.6199
 20
-0.1105
 30
0.0
 10
-0.6199
 20
-0.3855
 30
0.0
 10
-0.4127
 20
-0.5334
 30
0.0
 10
-0.0955
 20
-0.6181
 30
0.0
 10
0.1408
 20
-0.5378
 30
0.0
 10
0.3227
 20
-0.3687
 30
0.0
 10
0.3227
 20
-0.1192
 30
0.0
 10
0.3227
 20
0.1006
 30
0.0
 10
0.1918
 20
0.329
 30
0.0
 10
-0.1421
 20
0.329
 30
0.0
 10
-0.4508
 20
0.329
 30
0.0
 10
-0.6199
 20
0.1261
 30
0.0
 10
-0.6199
 20
-0.1105
 30
0.0
  0
SPLINE
  5
87
330
1F
100
AcDbEntity
  8
Layer 1
 62
   250
370
     9
100
AcDbSpline
210
0.0
220
0.0
230
1.0
 70
    11
 71
     3
 72
    17
 73
    13
 74
     0
 42
0.0000000001
 43
0.0000000001
 40
0.0
 40
0.0
 40
0.0
 40
0.0
 40
0.25
 40
0.25
 40
0.25
 40
0.5
 40
0.5
 40
0.5
 40
0.75
 40
0.75
 40
0.75
 40
1.0
 40
1.0
 40
1.0
 40
1.0
 10
0.4031
 20
-1.4845
 30
0.0
 10
0.4031
 20
-1.1507
 30
0.0
 10
0.1709
 20
-0.9902
 30
0.0
 10
-0.2012
 20
-0.8843
 30
0.0
 10
-0.5227
 20
-0.9774
 30
0.0
 10
-0.6957
 20
-1.1886
 30
0.0
 10
-0.6957
 20
-1.4507
 30
0.0
 10
-0.7088
 20
-1.7298
 30
0.0
 10
-0.4972
 20
-1.9748
 30
0.0
 10
-0.1465
 20
-1.9748
 30
0.0
 10
0.1876
 20
-1.9748
 30
0.0
 10
0.4031
 20
-1.7677
 30
0.0
 10
0.4031
 20
-1.4845
 30
0.0
  0
SPLINE
  5
88
330
1F
100
AcDbEntity
  8
Layer 1
 62
   250
370
     9
100
AcDbSpline
210
0.0
220
0.0
230
1.0
 70
    11
 71
     3
 72
    35
 73
    31
 74
     0
 42
0.0000000001
 43
0.0000000001
 40
0.0
 40
0.0
 40
0.0
 40
0.0
 40
0.1
 40
0.1
 40
0.1
 40
0.2
 40
0.2
 40
0.2
 40
0.3
 40
0.3
 40
0.3
 40
0.4
 40
0.4
 40
0.4
 40
0.5
 40
0.5
 40
0.5
 40
0.6000000000000001
 40
0.6000000000000001
 40
0.6000000000000001
 40
0.7000000000000001
 40
0.7000000000000001
 40
0.7000000000000001
 40
0.8
 40
0.8
 40
0.8
 40
0.9
 40
0.9
 40
0.9
 40
1.0
 40
1.0
 40
1.0
 40
1.0
 10
-1.0764
 20
-1.5017
 30
0.0
 10
-1.0764
 20
-1.1548
 30
0.0
 10
-0.8693
 20
-0.9096
 30
0.0
 10
-0.531
 20
-0.7658
 30
0.0
 10
-0.531
 20
-0.7658
 30
0.0
 10
-0.5355
 20
-0.7534
 30
0.0
 10
-0.5355
 20
-0.7534
 30
0.0
 10
-0.8397
 20
-0.6094
 30
0.0
 10
-0.9706
 20
-0.3728
 30
0.0
 10
-0.9706
 20
-0.1361
 30
0.0
 10
-0.9706
 20
0.2994
 30
0.0
 10
-0.6031
 20
0.5953
 30
0.0
 10
-0.121
 20
0.5953
 30
0.0
 10
0.4116
 20
0.5953
 30
0.0
 10
0.678
 20
0.2615
 30
0.0
 10
0.678
 20
-0.0809
 30
0.0
 10
0.678
 20
-0.3135
 30
0.0
 10
0.5639
 20
-0.5632
 30
0.0
 10
0.2255
 20
-0.7235
 30
0.0
 10
0.2255
 20
-0.7235
 30
0.0
 10
0.2255
 20
-0.7362
 30
0.0
 10
0.2255
 20
-0.7362
 30
0.0
 10
0.568
 20
-0.8717
 30
0.0
 10
0.7795
 20
-1.1128
 30
0.0
 10
0.7795
 20
-1.4466
 30
0.0
 10
0.7795
 20
-1.9245
 30
0.0
 10
0.3695
 20
-2.2456
 30
0.0
 10
-0.1548
 20
-2.2456
 30
0.0
 10
-0.7299
 20
-2.2456
 30
0.0
 10
-1.0764
 20
-1.9031
 30
0.0
 10
-1.0764
 20
-1.5017
 30
0.0
  0
SPLINE
  5
89
330
1F
100
AcDbEntity
  8
Layer 1
 62
   250
370
     9
100
AcDbSpline
210
0.0
220
0.0
230
1.0
 70
    11
 71
     3
 72
    17
 73
    13
 74
     0
 42
0.0000000001
 43
0.0000000001
 40
0.0
 40
0.0
 40
0.0
 40
0.0
 40
0.25
 40
0.25
 40
0.25
 40
0.5
 40
0.5
 40
0.5
 40
0.75
 40
0.75
 40
0.75
 40
1.0
 40
1.0
 40
1.0
 40
1.0
 10
1.5487
 20
-0.1105
 30
0.0
 10
1.5487
 20
-0.3855
 30
0.0
 10
1.7561
 20
-0.5334
 30
0.0
 10
2.0731
 20
-0.6181
 30
0.0
 10
2.3098
 20
-0.5378
 30
0.0
 10
2.4915
 20
-0.3687
 30
0.0
 10
2.4915
 20
-0.1192
 30
0.0
 10
2.4915
 20
0.1006
 30
0.0
 10
2.3605
 20
0.329
 30
0.0
 10
2.0266
 20
0.329
 30
0.0
 10
1.718
 20
0.329
 30
0.0
 10
1.5487
 20
0.1261
 30
0.0
 10
1.5487
 20
-0.1105
 30
0.0
  0
SPLINE
  5
8A
330
1F
100
AcDbEntity
  8
Layer 1
 62
   250
370
     9
100
AcDbSpline
210
0.0
220
0.0
230
1.0
 70
    11
 71
     3
 72
    17
 73
    13
 74
     0
 42
0.0000000001
 43
0.0000000001
 40
0.0
 40
0.0
 40
0.0
 40
0.0
 40
0.25
 40
0.25
 40
0.25
 40
0.5
 40
0.5
 40
0.5
 40
0.75
 40
0.75
 40
0.75
 40
1.0
 40
1.0
 40
1.0
 40
1.0
 10
2.5717
 20
-1.4845
 30
0.0
 10
2.5717
 20
-1.1507
 30
0.0
 10
2.3395
 20
-0.9902
 30
0.0
 10
1.9674
 20
-0.8843
 30
0.0
 10
1.6463
 20
-0.9774
 30
0.0
 10
1.4731
 20
-1.1886
 30
0.0
 10
1.4731
 20
-1.4507
 30
0.0
 10
1.4603
 20
-1.7298
 30
0.0
 10
1.6718
 20
-1.9748
 30
0.0
 10
2.0221
 20
-1.9748
 30
0.0
 10
2.3564
 20
-1.9748
 30
0.0
 10
2.5717
 20
-1.7677
 30
0.0
 10
2.5717
 20
-1.4845
 30
0.0
  0
SPLINE
  5
8B
330
1F
100
AcDbEntity
  8
Layer 1
 62
   250
370
     9
100
AcDbSpline
210
0.0
220
0.0
230
1.0
 70
    11
 71
     3
 72
    35
 73
    31
 74
     0
 42
0.0000000001
 43
0.0000000001
 40
0.0
 40
0.0
 40
0.0
 40
0.0
 40
0.1
 40
0.1
 40
0.1
 40
0.2
 40
0.2
 40
0.2
 40
0.3
 40
0.3
 40
0.3
 40
0.4
 40
0.4
 40
0.4
 40
0.5
 40
0.5
 40
0.5
 40
0.6000000000000001
 40
0.6000000000000001
 40
0.6000000000000001
 40
0.7000000000000001
 40
0.7000000000000001
 40
0.7000000000000001
 40
0.8
 40
0.8
 40
0.8
 40
0.9
 40
0.9
 40
0.9
 40
1.0
 40
1.0
 40
1.0
 40
1.0
 10
1.0923
 20
-1.5017
 30
0.0
 10
1.0923
 20
-1.1548
 30
0.0
 10
1.2995
 20
-0.9096
 30
0.0
 10
1.6378
 20
-0.7658
 30
0.0
 10
1.6378
 20
-0.7658
 30
0.0
 10
1.6332
 20
-0.7534
 30
0.0
 10
1.6332
 20
-0.7534
 30
0.0
 10
1.3293
 20
-0.6094
 30
0.0
 10
1.1982
 20
-0.3728
 30
0.0
 10
1.1982
 20
-0.1361
 30
0.0
 10
1.1982
 20
0.2994
 30
0.0
 10
1.566
 20
0.5953
 30
0.0
 10
2.0477
 20
0.5953
 30
0.0
 10
2.5802
 20
0.5953
 30
0.0
 10
2.8469
 20
0.2615
 30
0.0
 10
2.8469
 20
-0.0809
 30
0.0
 10
2.8469
 20
-0.3135
 30
0.0
 10
2.7326
 20
-0.5632
 30
0.0
 10
2.3946
 20
-0.7235
 30
0.0
 10
2.3946
 20
-0.7235
 30
0.0
 10
2.3946
 20
-0.7362
 30
0.0
 10
2.3946
 20
-0.7362
 30
0.0
 10
2.737
 20
-0.8717
 30
0.0
 10
2.9481
 20
-1.1128
 30
0.0
 10
2.9481
 20
-1.4466
 30
0.0
 10
2.9481
 20
-1.9245
 30
0.0
 10
2.5382
 20
-2.2456
 30
0.0
 10
2.014
 20
-2.2456
 30
0.0
 10
1.4389
 20
-2.2456
 30
0.0
 10
1.0923
 20
-1.9031
 30
0.0
 10
1.0923
 20
-1.5017
 30
0.0
  0
SPLINE
  5
8C
330
1F
100
AcDbEntity
  8
Layer 1
 62
   250
370
     9
100
AcDbSpline
210
0.0
220
0.0
230
1.0
 70
    11
 71
     3
 72
    20
 73
    16
 74
     0
 42
0.0000000001
 43
0.0000000001
 40
0.0
 40
0.0
 40
0.0
 40
0.0
 40
0.2
 40
0.2
 40
0.2
 40
0.4
 40
0.4
 40
0.4
 40
0.6000000000000001
 40
0.6000000000000001
 40
0.6000000000000001
 40
0.8
 40
0.8
 40
0.8
 40
1.0
 40
1.0
 40
1.0
 40
1.0
 10
4.7579
 20
-1.2984
 30
0.0
 10
4.7579
 20
-0.9054
 30
0.0
 10
4.5337
 20
-0.6687
 30
0.0
 10
4.1913
 20
-0.6687
 30
0.0
 10
3.9676
 20
-0.6687
 30
0.0
 10
3.7602
 20
-0.8083
 30
0.0
 10
3.6587
 20
-1.007
 30
0.0
 10
3.6334
 20
-1.049
 30
0.0
 10
3.6165
 20
-1.1041
 30
0.0
 10
3.6165
 20
-1.1716
 30
0.0
 10
3.6252
 20
-1.6241
 30
0.0
 10
3.8323
 20
-1.9578
 30
0.0
 10
4.2212
 20
-1.9578
 30
0.0
 10
4.5423
 20
-1.9578
 30
0.0
 10
4.7579
 20
-1.6919
 30
0.0
 10
4.7579
 20
-1.2984
 30
0.0
  0
SPLINE
  5
8D
330
1F
100
AcDbEntity
  8
Layer 1
 62
   250
370
     9
100
AcDbSpline
210
0.0
220
0.0
230
1.0
 70
    11
 71
     3
 72
    38
 73
    34
 74
     0
 42
0.0000000001
 43
0.0000000001
 40
0.0
 40
0.0
 40
0.0
 40
0.0
 40
0.0909090909090909
 40
0.0909090909090909
 40
0.0909090909090909
 40
0.1818181818181818
 40
0.1818181818181818
 40
0.1818181818181818
 40
0.2727272727272727
 40
0.2727272727272727
 40
0.2727272727272727
 40
0.3636363636363636
 40
0.3636363636363636
 40
0.3636363636363636
 40
0.4545454545454546
 40
0.4545454545454546
 40
0.4545454545454546
 40
0.5454545454545454
 40
0.5454545454545454
 40
0.5454545454545454
 40
0.6363636363636364
 40
0.6363636363636364
 40
0.6363636363636364
 40
0.7272727272727273
 40
0.7272727272727273
 40
0.7272727272727273
 40
0.8181818181818182
 40
0.8181818181818182
 40
0.8181818181818182
 40
0.9090909090909092
 40
0.9090909090909092
 40
0.9090909090909092
 40
1.0
 40
1.0
 40
1.0
 40
1.0
 10
4.8638
 20
0.2866
 30
0.0
 10
4.7876
 20
0.2907
 30
0.0
 10
4.6904
 20
0.2866
 30
0.0
 10
4.5847
 20
0.2698
 30
0.0
 10
4.0011
 20
0.1726
 30
0.0
 10
3.6927
 20
-0.2543
 30
0.0
 10
3.6293
 20
-0.707
 30
0.0
 10
3.6293
 20
-0.707
 30
0.0
 10
3.642
 20
-0.707
 30
0.0
 10
3.642
 20
-0.707
 30
0.0
 10
3.7729
 20
-0.5334
 30
0.0
 10
4.0011
 20
-0.3896
 30
0.0
 10
4.3057
 20
-0.3896
 30
0.0
 10
4.7917
 20
-0.3896
 30
0.0
 10
5.1341
 20
-0.7403
 30
0.0
 10
5.1341
 20
-1.2775
 30
0.0
 10
5.1341
 20
-1.7805
 30
0.0
 10
4.7917
 20
-2.2456
 30
0.0
 10
4.2212
 20
-2.2456
 30
0.0
 10
3.6334
 20
-2.2456
 30
0.0
 10
3.2487
 20
-1.789
 30
0.0
 10
3.2487
 20
-1.0745
 30
0.0
 10
3.2487
 20
-0.5334
 30
0.0
 10
3.443
 20
-0.1064
 30
0.0
 10
3.7136
 20
0.1639
 30
0.0
 10
3.9421
 20
0.3883
 30
0.0
 10
4.2467
 20
0.5275
 30
0.0
 10
4.5928
 20
0.5698
 30
0.0
 10
4.7028
 20
0.5867
 30
0.0
 10
4.7958
 20
0.5908
 30
0.0
 10
4.8638
 20
0.5908
 30
0.0
 10
4.8638
 20
0.5908
 30
0.0
 10
4.8638
 20
0.2866
 30
0.0
 10
4.8638
 20
0.2866
 30
0.0
  0
SPLINE
  5
8E
330
1F
100
AcDbEntity
  8
Layer 1
 62
   250
370
     9
100
AcDbSpline
210
0.0
220
0.0
230
1.0
 70
    11
 71
     3
 72
    20
 73
    16
 74
     0
 42
0.0000000001
 43
0.0000000001
 40
0.0
 40
0.0
 40
0.0
 40
0.0
 40
0.2
 40
0.2
 40
0.2
 40
0.4
 40
0.4
 40
0.4
 40
0.6000000000000001
 40
0.6000000000000001
 40
0.6000000000000001
 40
0.8
 40
0.8
 40
0.8
 40
1.0
 40
1.0
 40
1.0
 40
1.0
 10
6.9269
 20
-1.2984
 30
0.0
 10
6.9269
 20
-0.9054
 30
0.0
 10
6.7027
 20
-0.6687
 30
0.0
 10
6.3603
 20
-0.6687
 30
0.0
 10
6.1366
 20
-0.6687
 30
0.0
 10
5.9292
 20
-0.8083
 30
0.0
 10
5.8275
 20
-1.007
 30
0.0
 10
5.8025
 20
-1.049
 30
0.0
 10
5.7857
 20
-1.1041
 30
0.0
 10
5.7857
 20
-1.1716
 30
0.0
 10
5.7942
 20
-1.6241
 30
0.0
 10
6.0012
 20
-1.9578
 30
0.0
 10
6.3902
 20
-1.9578
 30
0.0
 10
6.7113
 20
-1.9578
 30
0.0
 10
6.9269
 20
-1.6919
 30
0.0
 10
6.9269
 20
-1.2984
 30
0.0
  0
SPLINE
  5
8F
330
1F
100
AcDbEntity
  8
Layer 1
 62
   250
370
     9
100
AcDbSpline
210
0.0
220
0.0
230
1.0
 70
    11
 71
     3
 72
    38
 73
    34
 74
     0
 42
0.0000000001
 43
0.0000000001
 40
0.0
 40
0.0
 40
0.0
 40
0.0
 40
0.0909090909090909
 40
0.0909090909090909
 40
0.0909090909090909
 40
0.1818181818181818
 40
0.1818181818181818
 40
0.1818181818181818
 40
0.2727272727272727
 40
0.2727272727272727
 40
0.2727272727272727
 40
0.3636363636363636
 40
0.3636363636363636
 40
0.3636363636363636
 40
0.4545454545454546
 40
0.4545454545454546
 40
0.4545454545454546
 40
0.5454545454545454
 40
0.5454545454545454
 40
0.5454545454545454
 40
0.6363636363636364
 40
0.6363636363636364
 40
0.6363636363636364
 40
0.7272727272727273
 40
0.7272727272727273
 40
0.7272727272727273
 40
0.8181818181818182
 40
0.8181818181818182
 40
0.8181818181818182
 40
0.9090909090909092
 40
0.9090909090909092
 40
0.9090909090909092
 40
1.0
 40
1.0
 40
1.0
 40
1.0
 10
7.0326
 20
0.2866
 30
0.0
 10
6.9566
 20
0.2907
 30
0.0
 10
6.8594
 20
0.2866
 30
0.0
 10
6.7536
 20
0.2698
 30
0.0
 10
6.17
 20
0.1726
 30
0.0
 10
5.8617
 20
-0.2543
 30
0.0
 10
5.7983
 20
-0.707
 30
0.0
 10
5.7983
 20
-0.707
 30
0.0
 10
5.811
 20
-0.707
 30
0.0
 10
5.811
 20
-0.707
 30
0.0
 10
5.9419
 20
-0.5334
 30
0.0
 10
6.17
 20
-0.3896
 30
0.0
 10
6.4745
 20
-0.3896
 30
0.0
 10
6.9607
 20
-0.3896
 30
0.0
 10
7.3031
 20
-0.7403
 30
0.0
 10
7.3031
 20
-1.2775
 30
0.0
 10
7.3031
 20
-1.7805
 30
0.0
 10
6.9607
 20
-2.2456
 30
0.0
 10
6.3902
 20
-2.2456
 30
0.0
 10
5.8025
 20
-2.2456
 30
0.0
 10
5.4176
 20
-1.789
 30
0.0
 10
5.4176
 20
-1.0745
 30
0.0
 10
5.4176
 20
-0.5334
 30
0.0
 10
5.6123
 20
-0.1064
 30
0.0
 10
5.8831
 20
0.1639
 30
0.0
 10
6.1111
 20
0.3883
 30
0.0
 10
6.4157
 20
0.5275
 30
0.0
 10
6.762
 20
0.5698
 30
0.0
 10
6.8718
 20
0.5867
 30
0.0
 10
6.9651
 20
0.5908
 30
0.0
 10
7.0326
 20
0.5908
 30
0.0
 10
7.0326
 20
0.5908
 30
0.0
 10
7.0326
 20
0.2866
 30
0.0
 10
7.0326
 20
0.2866
 30
0.0
  0
SPLINE
  5
90
330
1F
100
AcDbEntity
  8
Layer 1
 62
   250
370
     9
100
AcDbSpline
210
0.0
220
0.0
230
1.0
 70
    11
 71
     3
 72
    17
 73
    13
 74
     0
 42
0.0000000001
 43
0.0000000001
 40
0.0
 40
0.0
 40
0.0
 40
0.0
 40
0.25
 40
0.25
 40
0.25
 40
0.5
 40
0.5
 40
0.5
 40
0.75
 40
0.75
 40
0.75
 40
1.0
 40
1.0
 40
1.0
 40
1.0
 10
-15.8919
 20
-5.9114
 30
0.0
 10
-15.8919
 20
-6.6259
 30
0.0
 10
-15.6718
 20
-7.0318
 30
0.0
 10
-15.3337
 20
-7.0318
 30
0.0
 10
-14.9534
 20
-7.0318
 30
0.0
 10
-14.7715
 20
-6.588
 30
0.0
 10
-14.7715
 20
-5.8863
 30
0.0
 10
-14.7715
 20
-5.2097
 30
0.0
 10
-14.9447
 20
-4.766
 30
0.0
 10
-15.3293
 20
-4.766
 30
0.0
 10
-15.655
 20
-4.766
 30
0.0
 10
-15.8919
 20
-5.1631
 30
0.0
 10
-15.8919
 20
-5.9114
 30
0.0
  0
SPLINE
  5
91
330
1F
100
AcDbEntity
  8
Layer 1
 62
   250
370
     9
100
AcDbSpline
210
0.0
220
0.0
230
1.0
 70
    11
 71
     3
 72
    17
 73
    13
 74
     0
 42
0.0000000001
 43
0.0000000001
 40
0.0
 40
0.0
 40
0.0
 40
0.0
 40
0.25
 40
0.25
 40
0.25
 40
0.5
 40
0.5
 40
0.5
 40
0.75
 40
0.75
 40
0.75
 40
1.0
 40
1.0
 40
1.0
 40
1.0
 10
-14.3996
 20
-5.8691
 30
0.0
 10
-14.3996
 20
-6.8037
 30
0.0
 10
-14.7461
 20
-7.3191
 30
0.0
 10
-15.355
 20
-7.3191
 30
0.0
 10
-15.8919
 20
-7.3191
 30
0.0
 10
-16.2552
 20
-6.8161
 30
0.0
 10
-16.2638
 20
-5.9073
 30
0.0
 10
-16.2638
 20
-4.9858
 30
0.0
 10
-15.8664
 20
-4.4787
 30
0.0
 10
-15.3083
 20
-4.4787
 30
0.0
 10
-14.7293
 20
-4.4787
 30
0.0
 10
-14.3996
 20
-4.9941
 30
0.0
 10
-14.3996
 20
-5.8691
 30
0.0
  0
SPLINE
  5
92
330
1F
100
AcDbEntity
  8
Layer 1
 62
   250
370
     9
100
AcDbSpline
210
0.0
220
0.0
230
1.0
 70
    11
 71
     3
 72
    20
 73
    16
 74
     0
 42
0.0000000001
 43
0.0000000001
 40
0.0
 40
0.0
 40
0.0
 40
0.0
 40
0.2
 40
0.2
 40
0.2
 40
0.4
 40
0.4
 40
0.4
 40
0.6000000000000001
 40
0.6000000000000001
 40
0.6000000000000001
 40
0.8
 40
0.8
 40
0.8
 40
1.0
 40
1.0
 40
1.0
 40
1.0
 10
-13.7057
 20
-5.4298
 30
0.0
 10
-13.7057
 20
-5.7722
 30
0.0
 10
-13.4988
 20
-6.0131
 30
0.0
 10
-13.1774
 20
-6.0131
 30
0.0
 10
-12.928
 20
-6.0131
 30
0.0
 10
-12.7334
 20
-5.8905
 30
0.0
 10
-12.6362
 20
-5.7254
 30
0.0
 10
-12.615
 20
-5.692
 30
0.0
 10
-12.6025
 20
-5.6496
 30
0.0
 10
-12.6025
 20
-5.5901
 30
0.0
 10
-12.6025
 20
-5.1208
 30
0.0
 10
-12.7757
 20
-4.7619
 30
0.0
 10
-13.1647
 20
-4.7619
 30
0.0
 10
-13.4816
 20
-4.7619
 30
0.0
 10
-13.7057
 20
-5.0405
 30
0.0
 10
-13.7057
 20
-5.4298
 30
0.0
  0
SPLINE
  5
93
330
1F
100
AcDbEntity
  8
Layer 1
 62
   250
370
     9
100
AcDbSpline
210
0.0
220
0.0
230
1.0
 70
    11
 71
     3
 72
    41
 73
    37
 74
     0
 42
0.0000000001
 43
0.0000000001
 40
0.0
 40
0.0
 40
0.0
 40
0.0
 40
0.0833333333333333
 40
0.0833333333333333
 40
0.0833333333333333
 40
0.1666666666666667
 40
0.1666666666666667
 40
0.1666666666666667
 40
0.25
 40
0.25
 40
0.25
 40
0.3333333333333333
 40
0.3333333333333333
 40
0.3333333333333333
 40
0.4166666666666666
 40
0.4166666666666666
 40
0.4166666666666666
 40
0.5
 40
0.5
 40
0.5
 40
0.5833333333333333
 40
0.5833333333333333
 40
0.5833333333333333
 40
0.6666666666666666
 40
0.6666666666666666
 40
0.6666666666666666
 40
0.75
 40
0.75
 40
0.75
 40
0.8333333333333333
 40
0.8333333333333333
 40
0.8333333333333333
 40
0.9166666666666666
 40
0.9166666666666666
 40
0.9166666666666666
 40
1.0
 40
1.0
 40
1.0
 40
1.0
 10
-13.8412
 20
-7.0108
 30
0.0
 10
-13.7607
 20
-7.0191
 30
0.0
 10
-13.6678
 20
-7.0108
 30
0.0
 10
-13.5409
 20
-6.998
 30
0.0
 10
-13.3254
 20
-6.9684
 30
0.0
 10
-13.1226
 20
-6.8795
 30
0.0
 10
-12.966
 20
-6.7318
 30
0.0
 10
-12.7842
 20
-6.5671
 30
0.0
 10
-12.6533
 20
-6.3259
 30
0.0
 10
-12.6025
 20
-6.0003
 30
0.0
 10
-12.6025
 20
-6.0003
 30
0.0
 10
-12.615
 20
-6.0003
 30
0.0
 10
-12.615
 20
-6.0003
 30
0.0
 10
-12.7673
 20
-6.1863
 30
0.0
 10
-12.9871
 20
-6.2963
 30
0.0
 10
-13.262
 20
-6.2963
 30
0.0
 10
-13.7563
 20
-6.2963
 30
0.0
 10
-14.0737
 20
-5.9242
 30
0.0
 10
-14.0737
 20
-5.455
 30
0.0
 10
-14.0737
 20
-4.9351
 30
0.0
 10
-13.6973
 20
-4.4787
 30
0.0
 10
-13.1351
 20
-4.4787
 30
0.0
 10
-12.5729
 20
-4.4787
 30
0.0
 10
-12.2262
 20
-4.9351
 30
0.0
 10
-12.2262
 20
-5.6369
 30
0.0
 10
-12.2262
 20
-6.2415
 30
0.0
 10
-12.4291
 20
-6.6638
 30
0.0
 10
-12.6996
 20
-6.9263
 30
0.0
 10
-12.9111
 20
-7.1335
 30
0.0
 10
-13.2026
 20
-7.2602
 30
0.0
 10
-13.4988
 20
-7.294
 30
0.0
 10
-13.6339
 20
-7.3149
 30
0.0
 10
-13.7522
 20
-7.3191
 30
0.0
 10
-13.8412
 20
-7.3149
 30
0.0
 10
-13.8412
 20
-7.3149
 30
0.0
 10
-13.8412
 20
-7.0108
 30
0.0
 10
-13.8412
 20
-7.0108
 30
0.0
  0
SPLINE
  5
94
330
1F
100
AcDbEntity
  8
Layer 1
 62
   250
370
     9
100
AcDbSpline
210
0.0
220
0.0
230
1.0
 70
    11
 71
     3
 72
    17
 73
    13
 74
     0
 42
0.0000000001
 43
0.0000000001
 40
0.0
 40
0.0
 40
0.0
 40
0.0
 40
0.25
 40
0.25
 40
0.25
 40
0.5
 40
0.5
 40
0.5
 40
0.75
 40
0.75
 40
0.75
 40
1.0
 40
1.0
 40
1.0
 40
1.0
 10
-11.5538
 20
-5.9114
 30
0.0
 10
-11.5538
 20
-6.6259
 30
0.0
 10
-11.334
 20
-7.0318
 30
0.0
 10
-10.9958
 20
-7.0318
 30
0.0
 10
-10.6153
 20
-7.0318
 30
0.0
 10
-10.4334
 20
-6.588
 30
0.0
 10
-10.4334
 20
-5.8863
 30
0.0
 10
-10.4334
 20
-5.2097
 30
0.0
 10
-10.6068
 20
-4.766
 30
0.0
 10
-10.9915
 20
-4.766
 30
0.0
 10
-11.317
 20
-4.766
 30
0.0
 10
-11.5538
 20
-5.1631
 30
0.0
 10
-11.5538
 20
-5.9114
 30
0.0
  0
SPLINE
  5
95
330
1F
100
AcDbEntity
  8
Layer 1
 62
   250
370
     9
100
AcDbSpline
210
0.0
220
0.0
230
1.0
 70
    11
 71
     3
 72
    17
 73
    13
 74
     0
 42
0.0000000001
 43
0.0000000001
 40
0.0
 40
0.0
 40
0.0
 40
0.0
 40
0.25
 40
0.25
 40
0.25
 40
0.5
 40
0.5
 40
0.5
 40
0.75
 40
0.75
 40
0.75
 40
1.0
 40
1.0
 40
1.0
 40
1.0
 10
-10.0615
 20
-5.8691
 30
0.0
 10
-10.0615
 20
-6.8037
 30
0.0
 10
-10.4082
 20
-7.3191
 30
0.0
 10
-11.017
 20
-7.3191
 30
0.0
 10
-11.5538
 20
-7.3191
 30
0.0
 10
-11.9172
 20
-6.8161
 30
0.0
 10
-11.9257
 20
-5.9073
 30
0.0
 10
-11.9257
 20
-4.9858
 30
0.0
 10
-11.5284
 20
-4.4787
 30
0.0
 10
-10.9703
 20
-4.4787
 30
0.0
 10
-10.3913
 20
-4.4787
 30
0.0
 10
-10.0615
 20
-4.9941
 30
0.0
 10
-10.0615
 20
-5.8691
 30
0.0
  0
SPLINE
  5
96
330
1F
100
AcDbEntity
  8
Layer 1
 62
   250
370
     9
100
AcDbSpline
210
0.0
220
0.0
230
1.0
 70
    11
 71
     3
 72
    17
 73
    13
 74
     0
 42
0.0000000001
 43
0.0000000001
 40
0.0
 40
0.0
 40
0.0
 40
0.0
 40
0.25
 40
0.25
 40
0.25
 40
0.5
 40
0.5
 40
0.5
 40
0.75
 40
0.75
 40
0.75
 40
1.0
 40
1.0
 40
1.0
 40
1.0
 10
-9.3848
 20
-5.9114
 30
0.0
 10
-9.3848
 20
-6.6259
 30
0.0
 10
-9.1649
 20
-7.0318
 30
0.0
 10
-8.8266
 20
-7.0318
 30
0.0
 10
-8.4463
 20
-7.0318
 30
0.0
 10
-8.2644
 20
-6.588
 30
0.0
 10
-8.2644
 20
-5.8863
 30
0.0
 10
-8.2644
 20
-5.2097
 30
0.0
 10
-8.4379
 20
-4.766
 30
0.0
 10
-8.8225
 20
-4.766
 30
0.0
 10
-9.1479
 20
-4.766
 30
0.0
 10
-9.3848
 20
-5.1631
 30
0.0
 10
-9.3848
 20
-5.9114
 30
0.0
  0
SPLINE
  5
97
330
1F
100
AcDbEntity
  8
Layer 1
 62
   250
370
     9
100
AcDbSpline
210
0.0
220
0.0
230
1.0
 70
    11
 71
     3
 72
    17
 73
    13
 74
     0
 42
0.0000000001
 43
0.0000000001
 40
0.0
 40
0.0
 40
0.0
 40
0.0
 40
0.25
 40
0.25
 40
0.25
 40
0.5
 40
0.5
 40
0.5
 40
0.75
 40
0.75
 40
0.75
 40
1.0
 40
1.0
 40
1.0
 40
1.0
 10
-7.8925
 20
-5.8691
 30
0.0
 10
-7.8925
 20
-6.8037
 30
0.0
 10
-8.239
 20
-7.3191
 30
0.0
 10
-8.8479
 20
-7.3191
 30
0.0
 10
-9.3848
 20
-7.3191
 30
0.0
 10
-9.7481
 20
-6.8161
 30
0.0
 10
-9.7567
 20
-5.9073
 30
0.0
 10
-9.7567
 20
-4.9858
 30
0.0
 10
-9.3594
 20
-4.4787
 30
0.0
 10
-8.8013
 20
-4.4787
 30
0.0
 10
-8.2221
 20
-4.4787
 30
0.0
 10
-7.8925
 20
-4.9941
 30
0.0
 10
-7.8925
 20
-5.8691
 30
0.0
  0
SPLINE
  5
98
330
1F
100
AcDbEntity
  8
Layer 1
 62
   250
370
     9
100
AcDbSpline
210
0.0
220
0.0
230
1.0
 70
    11
 71
     3
 72
    26
 73
    22
 74
     0
 42
0.0000000001
 43
0.0000000001
 40
0.0
 40
0.0
 40
0.0
 40
0.0
 40
0.1428571428571428
 40
0.1428571428571428
 40
0.1428571428571428
 40
0.2857142857142857
 40
0.2857142857142857
 40
0.2857142857142857
 40
0.4285714285714285
 40
0.4285714285714285
 40
0.4285714285714285
 40
0.5714285714285714
 40
0.5714285714285714
 40
0.5714285714285714
 40
0.7142857142857142
 40
0.7142857142857142
 40
0.7142857142857142
 40
0.8571428571428571
 40
0.8571428571428571
 40
0.8571428571428571
 40
1.0
 40
1.0
 40
1.0
 40
1.0
 10
-6.3996
 20
-6.2329
 30
0.0
 10
-6.3996
 20
-6.2329
 30
0.0
 10
-6.3996
 20
-5.3154
 30
0.0
 10
-6.3996
 20
-5.3154
 30
0.0
 10
-6.3996
 20
-5.1718
 30
0.0
 10
-6.3958
 20
-5.0281
 30
0.0
 10
-6.3874
 20
-4.8841
 30
0.0
 10
-6.3874
 20
-4.8841
 30
0.0
 10
-6.3996
 20
-4.8841
 30
0.0
 10
-6.3996
 20
-4.8841
 30
0.0
 10
-6.4845
 20
-5.045
 30
0.0
 10
-6.5521
 20
-5.1631
 30
0.0
 10
-6.6283
 20
-5.2899
 30
0.0
 10
-6.6283
 20
-5.2899
 30
0.0
 10
-7.3003
 20
-6.2246
 30
0.0
 10
-7.3003
 20
-6.2246
 30
0.0
 10
-7.3003
 20
-6.2246
 30
0.0
 10
-7.3003
 20
-6.2329
 30
0.0
 10
-7.3003
 20
-6.2329
 30
0.0
 10
-7.3003
 20
-6.2329
 30
0.0
 10
-6.3996
 20
-6.2329
 30
0.0
 10
-6.3996
 20
-6.2329
 30
0.0
  0
SPLINE
  5
99
330
1F
100
AcDbEntity
  8
Layer 1
 62
   250
370
     9
100
AcDbSpline
210
0.0
220
0.0
230
1.0
 70
    11
 71
     3
 72
    38
 73
    34
 74
     0
 42
0.0000000001
 43
0.0000000001
 40
0.0
 40
0.0
 40
0.0
 40
0.0
 40
0.0909090909090909
 40
0.0909090909090909
 40
0.0909090909090909
 40
0.1818181818181818
 40
0.1818181818181818
 40
0.1818181818181818
 40
0.2727272727272727
 40
0.2727272727272727
 40
0.2727272727272727
 40
0.3636363636363636
 40
0.3636363636363636
 40
0.3636363636363636
 40
0.4545454545454546
 40
0.4545454545454546
 40
0.4545454545454546
 40
0.5454545454545454
 40
0.5454545454545454
 40
0.5454545454545454
 40
0.6363636363636364
 40
0.6363636363636364
 40
0.6363636363636364
 40
0.7272727272727273
 40
0.7272727272727273
 40
0.7272727272727273
 40
0.8181818181818182
 40
0.8181818181818182
 40
0.8181818181818182
 40
0.9090909090909092
 40
0.9090909090909092
 40
0.9090909090909092
 40
1.0
 40
1.0
 40
1.0
 40
1.0
 10
-6.3996
 20
-7.2729
 30
0.0
 10
-6.3996
 20
-7.2729
 30
0.0
 10
-6.3996
 20
-6.5246
 30
0.0
 10
-6.3996
 20
-6.5246
 30
0.0
 10
-6.3996
 20
-6.5246
 30
0.0
 10
-7.6767
 20
-6.5246
 30
0.0
 10
-7.6767
 20
-6.5246
 30
0.0
 10
-7.6767
 20
-6.5246
 30
0.0
 10
-7.6767
 20
-6.2793
 30
0.0
 10
-7.6767
 20
-6.2793
 30
0.0
 10
-7.6767
 20
-6.2793
 30
0.0
 10
-6.4508
 20
-4.5248
 30
0.0
 10
-6.4508
 20
-4.5248
 30
0.0
 10
-6.4508
 20
-4.5248
 30
0.0
 10
-6.0494
 20
-4.5248
 30
0.0
 10
-6.0494
 20
-4.5248
 30
0.0
 10
-6.0494
 20
-4.5248
 30
0.0
 10
-6.0494
 20
-6.2329
 30
0.0
 10
-6.0494
 20
-6.2329
 30
0.0
 10
-6.0494
 20
-6.2329
 30
0.0
 10
-5.6645
 20
-6.2329
 30
0.0
 10
-5.6645
 20
-6.2329
 30
0.0
 10
-5.6645
 20
-6.2329
 30
0.0
 10
-5.6645
 20
-6.5246
 30
0.0
 10
-5.6645
 20
-6.5246
 30
0.0
 10
-5.6645
 20
-6.5246
 30
0.0
 10
-6.0494
 20
-6.5246
 30
0.0
 10
-6.0494
 20
-6.5246
 30
0.0
 10
-6.0494
 20
-6.5246
 30
0.0
 10
-6.0494
 20
-7.2729
 30
0.0
 10
-6.0494
 20
-7.2729
 30
0.0
 10
-6.0494
 20
-7.2729
 30
0.0
 10
-6.3996
 20
-7.2729
 30
0.0
 10
-6.3996
 20
-7.2729
 30
0.0
  0
SPLINE
  5
9A
330
1F
100
AcDbEntity
  8
Layer 1
 62
   250
370
     9
100
AcDbSpline
210
0.0
220
0.0
230
1.0
 70
    11
 71
     3
 72
    17
 73
    13
 74
     0
 42
0.0000000001
 43
0.0000000001
 40
0.0
 40
0.0
 40
0.0
 40
0.0
 40
0.25
 40
0.25
 40
0.25
 40
0.5
 40
0.5
 40
0.5
 40
0.75
 40
0.75
 40
0.75
 40
1.0
 40
1.0
 40
1.0
 40
1.0
 10
-5.0468
 20
-5.9114
 30
0.0
 10
-5.0468
 20
-6.6259
 30
0.0
 10
-4.827
 20
-7.0318
 30
0.0
 10
-4.4887
 20
-7.0318
 30
0.0
 10
-4.1084
 20
-7.0318
 30
0.0
 10
-3.9265
 20
-6.588
 30
0.0
 10
-3.9265
 20
-5.8863
 30
0.0
 10
-3.9265
 20
-5.2097
 30
0.0
 10
-4.0997
 20
-4.766
 30
0.0
 10
-4.4846
 20
-4.766
 30
0.0
 10
-4.8102
 20
-4.766
 30
0.0
 10
-5.0468
 20
-5.1631
 30
0.0
 10
-5.0468
 20
-5.9114
 30
0.0
  0
SPLINE
  5
9B
330
1F
100
AcDbEntity
  8
Layer 1
 62
   250
370
     9
100
AcDbSpline
210
0.0
220
0.0
230
1.0
 70
    11
 71
     3
 72
    17
 73
    13
 74
     0
 42
0.0000000001
 43
0.0000000001
 40
0.0
 40
0.0
 40
0.0
 40
0.0
 40
0.25
 40
0.25
 40
0.25
 40
0.5
 40
0.5
 40
0.5
 40
0.75
 40
0.75
 40
0.75
 40
1.0
 40
1.0
 40
1.0
 40
1.0
 10
-3.5544
 20
-5.8691
 30
0.0
 10
-3.5544
 20
-6.8037
 30
0.0
 10
-3.9013
 20
-7.3191
 30
0.0
 10
-4.5097
 20
-7.3191
 30
0.0
 10
-5.0468
 20
-7.3191
 30
0.0
 10
-5.4102
 20
-6.8161
 30
0.0
 10
-5.4186
 20
-5.9073
 30
0.0
 10
-5.4186
 20
-4.9858
 30
0.0
 10
-5.0213
 20
-4.4787
 30
0.0
 10
-4.4632
 20
-4.4787
 30
0.0
 10
-3.8842
 20
-4.4787
 30
0.0
 10
-3.5544
 20
-4.9941
 30
0.0
 10
-3.5544
 20
-5.8691
 30
0.0
  0
SPLINE
  5
9C
330
1F
100
AcDbEntity
  8
Layer 1
 62
   250
370
     9
100
AcDbSpline
210
0.0
220
0.0
230
1.0
 70
    11
 71
     3
 72
    50
 73
    46
 74
     0
 42
0.0000000001
 43
0.0000000001
 40
0.0
 40
0.0
 40
0.0
 40
0.0
 40
0.0666666666666667
 40
0.0666666666666667
 40
0.0666666666666667
 40
0.1333333333333333
 40
0.1333333333333333
 40
0.1333333333333333
 40
0.2
 40
0.2
 40
0.2
 40
0.2666666666666667
 40
0.2666666666666667
 40
0.2666666666666667
 40
0.3333333333333333
 40
0.3333333333333333
 40
0.3333333333333333
 40
0.4
 40
0.4
 40
0.4
 40
0.4666666666666667
 40
0.4666666666666667
 40
0.4666666666666667
 40
0.5333333333333333
 40
0.5333333333333333
 40
0.5333333333333333
 40
0.6
 40
0.6
 40
0.6
 40
0.6666666666666666
 40
0.6666666666666666
 40
0.6666666666666666
 40
0.7333333333333333
 40
0.7333333333333333
 40
0.7333333333333333
 40
0.8
 40
0.8
 40
0.8
 40
0.8666666666666667
 40
0.8666666666666667
 40
0.8666666666666667
 40
0.9333333333333333
 40
0.9333333333333333
 40
0.9333333333333333
 40
1.0
 40
1.0
 40
1.0
 40
1.0
 10
-1.5714
 20
-4.8379
 30
0.0
 10
-1.5714
 20
-4.8379
 30
0.0
 10
-2.6198
 20
-4.8379
 30
0.0
 10
-2.6198
 20
-4.8379
 30
0.0
 10
-2.6198
 20
-4.8379
 30
0.0
 10
-2.7255
 20
-5.5439
 30
0.0
 10
-2.7255
 20
-5.5439
 30
0.0
 10
-2.6621
 20
-5.5352
 30
0.0
 10
-2.6029
 20
-5.5267
 30
0.0
 10
-2.5013
 20
-5.5267
 30
0.0
 10
-2.2901
 20
-5.5267
 30
0.0
 10
-2.0785
 20
-5.5735
 30
0.0
 10
-1.9097
 20
-5.6748
 30
0.0
 10
-1.6941
 20
-5.7974
 30
0.0
 10
-1.5166
 20
-6.0341
 30
0.0
 10
-1.5166
 20
-6.3806
 30
0.0
 10
-1.5166
 20
-6.9178
 30
0.0
 10
-1.9435
 20
-7.3191
 30
0.0
 10
-2.5395
 20
-7.3191
 30
0.0
 10
-2.8399
 20
-7.3191
 30
0.0
 10
-3.0935
 20
-7.2347
 30
0.0
 10
-3.2244
 20
-7.15
 30
0.0
 10
-3.2244
 20
-7.15
 30
0.0
 10
-3.1314
 20
-6.8671
 30
0.0
 10
-3.1314
 20
-6.8671
 30
0.0
 10
-3.017
 20
-6.9343
 30
0.0
 10
-2.7935
 20
-7.0191
 30
0.0
 10
-2.5436
 20
-7.0191
 30
0.0
 10
-2.1929
 20
-7.0191
 30
0.0
 10
-1.8928
 20
-6.791
 30
0.0
 10
-1.8928
 20
-6.4231
 30
0.0
 10
-1.8971
 20
-6.0678
 30
0.0
 10
-2.1337
 20
-5.8143
 30
0.0
 10
-2.6832
 20
-5.8143
 30
0.0
 10
-2.8399
 20
-5.8143
 30
0.0
 10
-2.9623
 20
-5.8312
 30
0.0
 10
-3.0638
 20
-5.8439
 30
0.0
 10
-3.0638
 20
-5.8439
 30
0.0
 10
-2.8861
 20
-4.5248
 30
0.0
 10
-2.8861
 20
-4.5248
 30
0.0
 10
-2.8861
 20
-4.5248
 30
0.0
 10
-1.5714
 20
-4.5248
 30
0.0
 10
-1.5714
 20
-4.5248
 30
0.0
 10
-1.5714
 20
-4.5248
 30
0.0
 10
-1.5714
 20
-4.8379
 30
0.0
 10
-1.5714
 20
-4.8379
 30
0.0
  0
SPLINE
  5
9D
330
1F
100
AcDbEntity
  8
Layer 1
 62
   250
370
     9
100
AcDbSpline
210
0.0
220
0.0
230
1.0
 70
    11
 71
     3
 72
    20
 73
    16
 74
     0
 42
0.0000000001
 43
0.0000000001
 40
0.0
 40
0.0
 40
0.0
 40
0.0
 40
0.2
 40
0.2
 40
0.2
 40
0.4
 40
0.4
 40
0.4
 40
0.6000000000000001
 40
0.6000000000000001
 40
0.6000000000000001
 40
0.8
 40
0.8
 40
0.8
 40
1.0
 40
1.0
 40
1.0
 40
1.0
 10
0.4198
 20
-6.3724
 30
0.0
 10
0.4198
 20
-5.9793
 30
0.0
 10
0.1959
 20
-5.7423
 30
0.0
 10
-0.1465
 20
-5.7423
 30
0.0
 10
-0.3704
 20
-5.7423
 30
0.0
 10
-0.5774
 20
-5.8822
 30
0.0
 10
-0.6791
 20
-6.0806
 30
0.0
 10
-0.7042
 20
-6.1229
 30
0.0
 10
-0.7212
 20
-6.1781
 30
0.0
 10
-0.7212
 20
-6.2456
 30
0.0
 10
-0.7129
 20
-6.698
 30
0.0
 10
-0.5055
 20
-7.0318
 30
0.0
 10
-0.1169
 20
-7.0318
 30
0.0
 10
0.2046
 20
-7.0318
 30
0.0
 10
0.4198
 20
-6.7655
 30
0.0
 10
0.4198
 20
-6.3724
 30
0.0
  0
SPLINE
  5
9E
330
1F
100
AcDbEntity
  8
Layer 1
 62
   250
370
     9
100
AcDbSpline
210
0.0
220
0.0
230
1.0
 70
    11
 71
     3
 72
    38
 73
    34
 74
     0
 42
0.0000000001
 43
0.0000000001
 40
0.0
 40
0.0
 40
0.0
 40
0.0
 40
0.0909090909090909
 40
0.0909090909090909
 40
0.0909090909090909
 40
0.1818181818181818
 40
0.1818181818181818
 40
0.1818181818181818
 40
0.2727272727272727
 40
0.2727272727272727
 40
0.2727272727272727
 40
0.3636363636363636
 40
0.3636363636363636
 40
0.3636363636363636
 40
0.4545454545454546
 40
0.4545454545454546
 40
0.4545454545454546
 40
0.5454545454545454
 40
0.5454545454545454
 40
0.5454545454545454
 40
0.6363636363636364
 40
0.6363636363636364
 40
0.6363636363636364
 40
0.7272727272727273
 40
0.7272727272727273
 40
0.7272727272727273
 40
0.8181818181818182
 40
0.8181818181818182
 40
0.8181818181818182
 40
0.9090909090909092
 40
0.9090909090909092
 40
0.9090909090909092
 40
1.0
 40
1.0
 40
1.0
 40
1.0
 10
0.5255
 20
-4.7869
 30
0.0
 10
0.4499
 20
-4.7828
 30
0.0
 10
0.3523
 20
-4.7869
 30
0.0
 10
0.2465
 20
-4.8039
 30
0.0
 10
-0.3367
 20
-4.9013
 30
0.0
 10
-0.6454
 20
-5.3282
 30
0.0
 10
-0.7088
 20
-5.7805
 30
0.0
 10
-0.7088
 20
-5.7805
 30
0.0
 10
-0.6957
 20
-5.7805
 30
0.0
 10
-0.6957
 20
-5.7805
 30
0.0
 10
-0.5648
 20
-5.6073
 30
0.0
 10
-0.3367
 20
-5.4633
 30
0.0
 10
-0.0321
 20
-5.4633
 30
0.0
 10
0.454
 20
-5.4633
 30
0.0
 10
0.7963
 20
-5.8143
 30
0.0
 10
0.7963
 20
-6.3514
 30
0.0
 10
0.7963
 20
-6.8544
 30
0.0
 10
0.454
 20
-7.3191
 30
0.0
 10
-0.1169
 20
-7.3191
 30
0.0
 10
-0.7042
 20
-7.3191
 30
0.0
 10
-1.0891
 20
-6.8629
 30
0.0
 10
-1.0891
 20
-6.1482
 30
0.0
 10
-1.0891
 20
-5.6073
 30
0.0
 10
-0.8945
 20
-5.1804
 30
0.0
 10
-0.624
 20
-4.9096
 30
0.0
 10
-0.3955
 20
-4.6856
 30
0.0
 10
-0.0914
 20
-4.5462
 30
0.0
 10
0.2552
 20
-4.5037
 30
0.0
 10
0.365
 20
-4.4869
 30
0.0
 10
0.458
 20
-4.4828
 30
0.0
 10
0.5255
 20
-4.4828
 30
0.0
 10
0.5255
 20
-4.4828
 30
0.0
 10
0.5255
 20
-4.7869
 30
0.0
 10
0.5255
 20
-4.7869
 30
0.0
  0
SPLINE
  5
9F
330
1F
100
AcDbEntity
  8
Layer 1
 62
   250
370
     9
100
AcDbSpline
210
0.0
220
0.0
230
1.0
 70
    11
 71
     3
 72
    29
 73
    25
 74
     0
 42
0.0000000001
 43
0.0000000001
 40
0.0
 40
0.0
 40
0.0
 40
0.0
 40
0.125
 40
0.125
 40
0.125
 40
0.25
 40
0.25
 40
0.25
 40
0.375
 40
0.375
 40
0.375
 40
0.5
 40
0.5
 40
0.5
 40
0.625
 40
0.625
 40
0.625
 40
0.75
 40
0.75
 40
0.75
 40
0.875
 40
0.875
 40
0.875
 40
1.0
 40
1.0
 40
1.0
 40
1.0
 10
1.9336
 20
-4.8717
 30
0.0
 10
1.9336
 20
-4.8717
 30
0.0
 10
1.9254
 20
-4.8717
 30
0.0
 10
1.9254
 20
-4.8717
 30
0.0
 10
1.9254
 20
-4.8717
 30
0.0
 10
1.4475
 20
-5.1294
 30
0.0
 10
1.4475
 20
-5.1294
 30
0.0
 10
1.4475
 20
-5.1294
 30
0.0
 10
1.3755
 20
-4.8462
 30
0.0
 10
1.3755
 20
-4.8462
 30
0.0
 10
1.3755
 20
-4.8462
 30
0.0
 10
1.9757
 20
-4.5248
 30
0.0
 10
1.9757
 20
-4.5248
 30
0.0
 10
1.9757
 20
-4.5248
 30
0.0
 10
2.293
 20
-4.5248
 30
0.0
 10
2.293
 20
-4.5248
 30
0.0
 10
2.293
 20
-4.5248
 30
0.0
 10
2.293
 20
-7.2729
 30
0.0
 10
2.293
 20
-7.2729
 30
0.0
 10
2.293
 20
-7.2729
 30
0.0
 10
1.9336
 20
-7.2729
 30
0.0
 10
1.9336
 20
-7.2729
 30
0.0
 10
1.9336
 20
-7.2729
 30
0.0
 10
1.9336
 20
-4.8717
 30
0.0
 10
1.9336
 20
-4.8717
 30
0.0
  0
SPLINE
  5
A0
330
1F
100
AcDbEntity
  8
Layer 1
 62
   250
370
     9
100
AcDbSpline
210
0.0
220
0.0
230
1.0
 70
    11
 71
     3
 72
    29
 73
    25
 74
     0
 42
0.0000000001
 43
0.0000000001
 40
0.0
 40
0.0
 40
0.0
 40
0.0
 40
0.125
 40
0.125
 40
0.125
 40
0.25
 40
0.25
 40
0.25
 40
0.375
 40
0.375
 40
0.375
 40
0.5
 40
0.5
 40
0.5
 40
0.625
 40
0.625
 40
0.625
 40
0.75
 40
0.75
 40
0.75
 40
0.875
 40
0.875
 40
0.875
 40
1.0
 40
1.0
 40
1.0
 40
1.0
 10
4.1027
 20
-4.8717
 30
0.0
 10
4.1027
 20
-4.8717
 30
0.0
 10
4.0944
 20
-4.8717
 30
0.0
 10
4.0944
 20
-4.8717
 30
0.0
 10
4.0944
 20
-4.8717
 30
0.0
 10
3.6165
 20
-5.1294
 30
0.0
 10
3.6165
 20
-5.1294
 30
0.0
 10
3.6165
 20
-5.1294
 30
0.0
 10
3.5445
 20
-4.8462
 30
0.0
 10
3.5445
 20
-4.8462
 30
0.0
 10
3.5445
 20
-4.8462
 30
0.0
 10
4.1447
 20
-4.5248
 30
0.0
 10
4.1447
 20
-4.5248
 30
0.0
 10
4.1447
 20
-4.5248
 30
0.0
 10
4.4619
 20
-4.5248
 30
0.0
 10
4.4619
 20
-4.5248
 30
0.0
 10
4.4619
 20
-4.5248
 30
0.0
 10
4.4619
 20
-7.2729
 30
0.0
 10
4.4619
 20
-7.2729
 30
0.0
 10
4.4619
 20
-7.2729
 30
0.0
 10
4.1027
 20
-7.2729
 30
0.0
 10
4.1027
 20
-7.2729
 30
0.0
 10
4.1027
 20
-7.2729
 30
0.0
 10
4.1027
 20
-4.8717
 30
0.0
 10
4.1027
 20
-4.8717
 30
0.0
  0
SPLINE
  5
A1
330
1F
100
AcDbEntity
  8
Layer 1
 62
   250
370
     9
100
AcDbSpline
210
0.0
220
0.0
230
1.0
 70
    11
 71
     3
 72
    29
 73
    25
 74
     0
 42
0.0000000001
 43
0.0000000001
 40
0.0
 40
0.0
 40
0.0
 40
0.0
 40
0.125
 40
0.125
 40
0.125
 40
0.25
 40
0.25
 40
0.25
 40
0.375
 40
0.375
 40
0.375
 40
0.5
 40
0.5
 40
0.5
 40
0.625
 40
0.625
 40
0.625
 40
0.75
 40
0.75
 40
0.75
 40
0.875
 40
0.875
 40
0.875
 40
1.0
 40
1.0
 40
1.0
 40
1.0
 10
6.2717
 20
-4.8717
 30
0.0
 10
6.2717
 20
-4.8717
 30
0.0
 10
6.2634
 20
-4.8717
 30
0.0
 10
6.2634
 20
-4.8717
 30
0.0
 10
6.2634
 20
-4.8717
 30
0.0
 10
5.7857
 20
-5.1294
 30
0.0
 10
5.7857
 20
-5.1294
 30
0.0
 10
5.7857
 20
-5.1294
 30
0.0
 10
5.714
 20
-4.8462
 30
0.0
 10
5.714
 20
-4.8462
 30
0.0
 10
5.714
 20
-4.8462
 30
0.0
 10
6.314
 20
-4.5248
 30
0.0
 10
6.314
 20
-4.5248
 30
0.0
 10
6.314
 20
-4.5248
 30
0.0
 10
6.6311
 20
-4.5248
 30
0.0
 10
6.6311
 20
-4.5248
 30
0.0
 10
6.6311
 20
-4.5248
 30
0.0
 10
6.6311
 20
-7.2729
 30
0.0
 10
6.6311
 20
-7.2729
 30
0.0
 10
6.6311
 20
-7.2729
 30
0.0
 10
6.2717
 20
-7.2729
 30
0.0
 10
6.2717
 20
-7.2729
 30
0.0
 10
6.2717
 20
-7.2729
 30
0.0
 10
6.2717
 20
-4.8717
 30
0.0
 10
6.2717
 20
-4.8717
 30
0.0
  0
SPLINE
  5
A2
330
1F
100
AcDbEntity
  8
Layer 1
 62
   250
370
     9
100
AcDbSpline
210
0.0
220
0.0
230
1.0
 70
    11
 71
     3
 72
    50
 73
    46
 74
     0
 42
0.0000000001
 43
0.0000000001
 40
0.0
 40
0.0
 40
0.0
 40
0.0
 40
0.0666666666666667
 40
0.0666666666666667
 40
0.0666666666666667
 40
0.1333333333333333
 40
0.1333333333333333
 40
0.1333333333333333
 40
0.2
 40
0.2
 40
0.2
 40
0.2666666666666667
 40
0.2666666666666667
 40
0.2666666666666667
 40
0.3333333333333333
 40
0.3333333333333333
 40
0.3333333333333333
 40
0.4
 40
0.4
 40
0.4
 40
0.4666666666666667
 40
0.4666666666666667
 40
0.4666666666666667
 40
0.5333333333333333
 40
0.5333333333333333
 40
0.5333333333333333
 40
0.6
 40
0.6
 40
0.6
 40
0.6666666666666666
 40
0.6666666666666666
 40
0.6666666666666666
 40
0.7333333333333333
 40
0.7333333333333333
 40
0.7333333333333333
 40
0.8
 40
0.8
 40
0.8
 40
0.8666666666666667
 40
0.8666666666666667
 40
0.8666666666666667
 40
0.9333333333333333
 40
0.9333333333333333
 40
0.9333333333333333
 40
1.0
 40
1.0
 40
1.0
 40
1.0
 10
-19.1141
 20
-0.0345
 30
0.0
 10
-19.1141
 20
-0.0345
 30
0.0
 10
-19.0879
 20
-0.0051
 30
0.0
 10
-19.0879
 20
-0.0051
 30
0.0
 10
-18.9771
 20
0.1205
 30
0.0
 10
-18.9687
 20
0.3228
 30
0.0
 10
-19.0695
 20
0.4595
 30
0.0
 10
-19.0695
 20
0.4595
 30
0.0
 10
-19.3378
 20
0.8245
 30
0.0
 10
-19.3378
 20
0.8245
 30
0.0
 10
-19.4458
 20
0.9712
 30
0.0
 10
-19.6376
 20
0.9873
 30
0.0
 10
-19.7633
 20
0.8605
 30
0.0
 10
-19.7633
 20
0.8605
 30
0.0
 10
-19.9939
 20
0.6274
 30
0.0
 10
-19.9939
 20
0.6274
 30
0.0
 10
-20.0734
 20
0.547
 30
0.0
 10
-20.1093
 20
0.4258
 30
0.0
 10
-20.0899
 20
0.3063
 30
0.0
 10
-19.9855
 20
-0.3356
 30
0.0
 10
-19.519
 20
-2.3244
 30
0.0
 10
-17.7466
 20
-2.3244
 30
0.0
 10
-17.7064
 20
-2.3244
 30
0.0
 10
-17.5924
 20
-2.2183
 30
0.0
 10
-17.4844
 20
-2.108
 30
0.0
 10
-17.3582
 20
-1.9789
 30
0.0
 10
-17.3497
 20
-1.7559
 30
0.0
 10
-17.4663
 20
-1.6154
 30
0.0
 10
-17.4663
 20
-1.6154
 30
0.0
 10
-17.8011
 20
-1.2123
 30
0.0
 10
-17.8011
 20
-1.2123
 30
0.0
 10
-17.9166
 20
-1.0729
 30
0.0
 10
-18.1086
 20
-1.0708
 30
0.0
 10
-18.2276
 20
-1.2072
 30
0.0
 10
-18.2276
 20
-1.2072
 30
0.0
 10
-18.2276
 20
-1.2072
 30
0.0
 10
-18.2276
 20
-1.2072
 30
0.0
 10
-18.3333
 20
-1.3285
 30
0.0
 10
-18.5
 20
-1.3422
 30
0.0
 10
-18.6191
 20
-1.2385
 30
0.0
 10
-18.7626
 20
-1.1135
 30
0.0
 10
-18.957
 20
-0.8802
 30
0.0
 10
-19.1654
 20
-0.4472
 30
0.0
 10
-19.2302
 20
-0.3124
 30
0.0
 10
-19.2097
 20
-0.1427
 30
0.0
 10
-19.1141
 20
-0.0345
 30
0.0
  0
SPLINE
  5
A3
330
1F
100
AcDbEntity
  8
Layer 1
 62
   250
370
     9
100
AcDbSpline
210
0.0
220
0.0
230
1.0
 70
    11
 71
     3
 72
    50
 73
    46
 74
     0
 42
0.0000000001
 43
0.0000000001
 40
0.0
 40
0.0
 40
0.0
 40
0.0
 40
0.0666666666666667
 40
0.0666666666666667
 40
0.0666666666666667
 40
0.1333333333333333
 40
0.1333333333333333
 40
0.1333333333333333
 40
0.2
 40
0.2
 40
0.2
 40
0.2666666666666667
 40
0.2666666666666667
 40
0.2666666666666667
 40
0.3333333333333333
 40
0.3333333333333333
 40
0.3333333333333333
 40
0.4
 40
0.4
 40
0.4
 40
0.4666666666666667
 40
0.4666666666666667
 40
0.4666666666666667
 40
0.5333333333333333
 40
0.5333333333333333
 40
0.5333333333333333
 40
0.6
 40
0.6
 40
0.6
 40
0.6666666666666666
 40
0.6666666666666666
 40
0.6666666666666666
 40
0.7333333333333333
 40
0.7333333333333333
 40
0.7333333333333333
 40
0.8
 40
0.8
 40
0.8
 40
0.8666666666666667
 40
0.8666666666666667
 40
0.8666666666666667
 40
0.9333333333333333
 40
0.9333333333333333
 40
0.9333333333333333
 40
1.0
 40
1.0
 40
1.0
 40
1.0
 10
-19.1141
 20
-5.3737
 30
0.0
 10
-19.1141
 20
-5.3737
 30
0.0
 10
-19.0879
 20
-5.3441
 30
0.0
 10
-19.0879
 20
-5.3441
 30
0.0
 10
-18.9771
 20
-5.2187
 30
0.0
 10
-18.9687
 20
-5.0161
 30
0.0
 10
-19.0695
 20
-4.8797
 30
0.0
 10
-19.0695
 20
-4.8797
 30
0.0
 10
-19.3378
 20
-4.5148
 30
0.0
 10
-19.3378
 20
-4.5148
 30
0.0
 10
-19.4458
 20
-4.368
 30
0.0
 10
-19.6376
 20
-4.3519
 30
0.0
 10
-19.7633
 20
-4.4787
 30
0.0
 10
-19.7633
 20
-4.4787
 30
0.0
 10
-19.9939
 20
-4.7116
 30
0.0
 10
-19.9939
 20
-4.7116
 30
0.0
 10
-20.0734
 20
-4.7918
 30
0.0
 10
-20.1093
 20
-4.9134
 30
0.0
 10
-20.0899
 20
-5.0326
 30
0.0
 10
-19.9855
 20
-5.6744
 30
0.0
 10
-19.519
 20
-7.6636
 30
0.0
 10
-17.7466
 20
-7.6636
 30
0.0
 10
-17.7064
 20
-7.6636
 30
0.0
 10
-17.5924
 20
-7.5572
 30
0.0
 10
-17.4844
 20
-7.4472
 30
0.0
 10
-17.3582
 20
-7.3181
 30
0.0
 10
-17.3497
 20
-7.0951
 30
0.0
 10
-17.4663
 20
-6.9546
 30
0.0
 10
-17.4663
 20
-6.9546
 30
0.0
 10
-17.8011
 20
-6.5512
 30
0.0
 10
-17.8011
 20
-6.5512
 30
0.0
 10
-17.9166
 20
-6.4121
 30
0.0
 10
-18.1086
 20
-6.4096
 30
0.0
 10
-18.2276
 20
-6.546
 30
0.0
 10
-18.2276
 20
-6.546
 30
0.0
 10
-18.2276
 20
-6.546
 30
0.0
 10
-18.2276
 20
-6.546
 30
0.0
 10
-18.3333
 20
-6.6677
 30
0.0
 10
-18.5
 20
-6.6815
 30
0.0
 10
-18.6191
 20
-6.5774
 30
0.0
 10
-18.7626
 20
-6.4523
 30
0.0
 10
-18.957
 20
-6.2194
 30
0.0
 10
-19.1654
 20
-5.7864
 30
0.0
 10
-19.2302
 20
-5.6514
 30
0.0
 10
-19.2097
 20
-5.4819
 30
0.0
 10
-19.1141
 20
-5.3737
 30
0.0
  0
SPLINE
  5
A4
330
1F
100
AcDbEntity
  8
Layer 1
 62
   250
370
    18
100
AcDbSpline
210
0.0
220
0.0
230
1.0
 70
    11
 71
     3
 72
    29
 73
    25
 74
     0
 42
0.0000000001
 43
0.0000000001
 40
0.0
 40
0.0
 40
0.0
 40
0.0
 40
0.125
 40
0.125
 40
0.125
 40
0.25
 40
0.25
 40
0.25
 40
0.375
 40
0.375
 40
0.375
 40
0.5
 40
0.5
 40
0.5
 40
0.625
 40
0.625
 40
0.625
 40
0.75
 40
0.75
 40
0.75
 40
0.875
 40
0.875
 40
0.875
 40
1.0
 40
1.0
 40
1.0
 40
1.0
 10
11.3824
 20
24.6724
 30
0.0
 10
11.3824
 20
24.6724
 30
0.0
 10
-24.6176
 20
24.6724
 30
0.0
 10
-24.6176
 20
24.6724
 30
0.0
 10
-25.7176
 20
24.6724
 30
0.0
 10
-26.6176
 20
23.7724
 30
0.0
 10
-26.6176
 20
22.6724
 30
0.0
 10
-26.6176
 20
22.6724
 30
0.0
 10
-26.6176
 20
-13.3276
 30
0.0
 10
-26.6176
 20
-13.3276
 30
0.0
 10
-26.6176
 20
-14.4276
 30
0.0
 10
-25.7176
 20
-15.3276
 30
0.0
 10
-24.6176
 20
-15.3276
 30
0.0
 10
-24.6176
 20
-15.3276
 30
0.0
 10
11.3824
 20
-15.3276
 30
0.0
 10
11.3824
 20
-15.3276
 30
0.0
 10
12.4824
 20
-15.3276
 30
0.0
 10
13.3824
 20
-14.4276
 30
0.0
 10
13.3824
 20
-13.3276
 30
0.0
 10
13.3824
 20
-13.3276
 30
0.0
 10
13.3824
 20
22.6724
 30
0.0
 10
13.3824
 20
22.6724
 30
0.0
 10
13.3824
 20
23.7724
 30
0.0
 10
12.4824
 20
24.6724
 30
0.0
 10
11.3824
 20
24.6724
 30
0.0
  0
ENDSEC
  0
SECTION
  2
OBJECTS
  0
DICTIONARY
  5
C
330
0
100
AcDbDictionary
281
     1
  3
ACAD_DETAILVIEWSTYLE
350
AC
  3
ACAD_GROUP
350
D
  3
ACAD_LAYOUT
350
1A
  3
ACAD_MATERIAL
350
43
  3
ACAD_MLEADERSTYLE
350
5B
  3
ACAD_MLINESTYLE
350
17
  3
ACAD_PLOTSETTINGS
350
19
  3
ACAD_PLOTSTYLENAME
350
E
  3
ACAD_SCALELIST
350
47
  3
ACAD_SECTIONVIEWSTYLE
350
AD
  3
ACAD_TABLESTYLE
350
59
  3
ACAD_VISUALSTYLE
350
2A
  3
ACDB_RECOMPOSE_DATA
350
A9
  3
AcDbVariableDictionary
350
A5
  0
SUN
  5
5D
330
29
100
AcDbSun
 90
        1
290
     0
 63
     7
421
 16777215
 40
1.0
291
     1
 91
  2455826
 92
 54000000
292
     0
 70
     2
 71
   256
280
     1
  0
DICTIONARY
  5
AC
102
{ACAD_REACTORS
330
C
102
}
330
C
100
AcDbDictionary
281
     1
  0
DICTIONARY
  5
D
102
{ACAD_REACTORS
330
C
102
}
330
C
100
AcDbDictionary
281
     1
  0
DICTIONARY
  5
1A
102
{ACAD_REACTORS
330
C
102
}
330
C
100
AcDbDictionary
281
     1
  3
Layout1
350
1E
  3
Layout2
350
26
  3
Model
350
22
  0
DICTIONARY
  5
43
102
{ACAD_REACTORS
330
C
102
}
330
C
100
AcDbDictionary
281
     1
  3
ByBlock
350
45
  3
ByLayer
350
44
  3
Global
350
46
  0
DICTIONARY
  5
5B
102
{ACAD_REACTORS
330
C
102
}
330
C
100
AcDbDictionary
281
     1
  3
Standard
350
5C
  0
DICTIONARY
  5
17
102
{ACAD_REACTORS
330
C
102
}
330
C
100
AcDbDictionary
281
     1
  3
Standard
350
18
  0
DICTIONARY
  5
19
102
{ACAD_REACTORS
330
C
102
}
330
C
100
AcDbDictionary
281
     1
  0
ACDBDICTIONARYWDFLT
  5
E
102
{ACAD_REACTORS
330
C
102
}
330
C
100
AcDbDictionary
281
     1
  3
Normal
350
F
100
AcDbDictionaryWithDefault
340
F
  0
DICTIONARY
  5
47
102
{ACAD_REACTORS
330
C
102
}
330
C
100
AcDbDictionary
281
     1
  3
A0
350
48
  3
A1
350
49
  3
A2
350
4A
  3
A3
350
4B
  3
A4
350
4C
  3
A5
350
4D
  3
A6
350
4E
  3
A7
350
4F
  3
A8
350
50
  3
A9
350
51
  3
B1
350
52
  3
B2
350
53
  3
B3
350
54
  3
B4
350
55
  3
B5
350
56
  3
B6
350
57
  3
B7
350
58
  0
DICTIONARY
  5
AD
102
{ACAD_REACTORS
330
C
102
}
330
C
100
AcDbDictionary
281
     1
  0
DICTIONARY
  5
59
102
{ACAD_REACTORS
330
C
102
}
330
C
100
AcDbDictionary
281
     1
  3
Standard
350
5A
  0
DICTIONARY
  5
2A
102
{ACAD_REACTORS
330
C
102
}
330
C
100
AcDbDictionary
281
     1
  3
2dWireframe
350
2F
  3
Basic
350
32
  3
Brighten
350
36
  3
ColorChange
350
3A
  3
Conceptual
350
34
  3
Dim
350
35
  3
EdgeColorOff
350
3D
  3
Facepattern
350
39
  3
Flat
350
2B
  3
FlatWithEdges
350
2C
  3
Gouraud
350
2D
  3
GouraudWithEdges
350
2E
  3
Hidden
350
31
  3
JitterOff
350
3B
  3
Linepattern
350
38
  3
OverhangOff
350
3C
  3
Realistic
350
33
  3
Shaded
350
42
  3
Shaded with edges
350
41
  3
Shades of Gray
350
3E
  3
Sketchy
350
3F
  3
Thicken
350
37
  3
Wireframe
350
30
  3
X-Ray
350
40
  0
XRECORD
  5
A9
102
{ACAD_REACTORS
330
C
102
}
330
C
100
AcDbXrecord
280
     1
 90
        1
330
5A
  0
DICTIONARY
  5
A5
102
{ACAD_REACTORS
330
C
102
}
330
C
100
AcDbDictionary
281
     1
  3
CANNOSCALE
350
A6
  3
CMLEADERSTYLE
350
AB
  3
CTABLESTYLE
350
AA
  0
LAYOUT
  5
1E
102
{ACAD_REACTORS
330
1A
102
}
330
1A
100
AcDbPlotSettings
  1

  2
none_device
  4

  6

 40
0.0
 41
0.0
 42
0.0
 43
0.0
 44
0.0
 45
0.0
 46
0.0
 47
0.0
 48
0.0
 49
0.0
140
0.0
141
0.0
142
1.0
143
1.0
 70
   688
 72
     0
 73
     0
 74
     5
  7

 75
    16
 76
     0
 77
     2
 78
   300
147
1.0
148
0.0
149
0.0
100
AcDbLayout
  1
Layout1
 70
     1
 71
     1
 10
0.0
 20
0.0
 11
12.0
 21
9.0
 12
0.0
 22
0.0
 32
0.0
 14
1.000000000000000E+20
 24
1.000000000000000E+20
 34
1.000000000000000E+20
 15
-1.000000000000000E+20
 25
-1.000000000000000E+20
 35
-1.000000000000000E+20
146
0.0
 13
0.0
 23
0.0
 33
0.0
 16
1.0
 26
0.0
 36
0.0
 17
0.0
 27
1.0
 37
0.0
 76
     0
330
1B
  0
LAYOUT
  5
26
102
{ACAD_REACTORS
330
1A
102
}
330
1A
100
AcDbPlotSettings
  1

  2
none_device
  4

  6

 40
0.0
 41
0.0
 42
0.0
 43
0.0
 44
0.0
 45
0.0
 46
0.0
 47
0.0
 48
0.0
 49
0.0
140
0.0
141
0.0
142
1.0
143
1.0
 70
   688
 72
     0
 73
     0
 74
     5
  7

 75
    16
 76
     0
 77
     2
 78
   300
147
1.0
148
0.0
149
0.0
100
AcDbLayout
  1
Layout2
 70
     1
 71
     2
 10
0.0
 20
0.0
 11
0.0
 21
0.0
 12
0.0
 22
0.0
 32
0.0
 14
0.0
 24
0.0
 34
0.0
 15
0.0
 25
0.0
 35
0.0
146
0.0
 13
0.0
 23
0.0
 33
0.0
 16
1.0
 26
0.0
 36
0.0
 17
0.0
 27
1.0
 37
0.0
 76
     0
330
23
  0
LAYOUT
  5
22
102
{ACAD_REACTORS
330
1A
102
}
330
1A
100
AcDbPlotSettings
  1

  2
none_device
  4
Letter_(8.50_x_11.00_Inches)
  6

 40
6.35
 41
6.35
 42
6.35000508
 43
6.35000508
 44
215.9
 45
279.4
 46
0.0
 47
0.0
 48
0.0
 49
0.0
140
0.0
141
0.0
142
1.0
143
1.0
 70
  1712
 72
     0
 73
     0
 74
     0
  7

 75
     0
 76
     0
 77
     2
 78
   300
147
1.0
148
0.0
149
0.0
100
AcDbLayout
  1
Model
 70
     1
 71
     0
 10
0.0
 20
0.0
 11
12.0
 21
9.0
 12
0.0
 22
0.0
 32
0.0
 14
-26.7058
 24
-15.4158
 34
0.0
 15
13.4706
 25
24.7606
 35
0.0
146
0.0
 13
0.0
 23
0.0
 33
0.0
 16
1.0
 26
0.0
 36
0.0
 17
0.0
 27
1.0
 37
0.0
 76
     0
330
1F
331
29
  0
MATERIAL
  5
45
102
{ACAD_REACTORS
330
43
102
}
330
43
100
AcDbMaterial
  1
ByBlock
 72
     1
 94
      127
  0
MATERIAL
  5
44
102
{ACAD_REACTORS
330
43
102
}
330
43
100
AcDbMaterial
  1
ByLayer
 72
     1
 94
      127
  0
MATERIAL
  5
46
102
{ACAD_REACTORS
330
43
102
}
330
43
100
AcDbMaterial
  1
Global
 72
     1
 94
      127
  0
MLEADERSTYLE
  5
5C
102
{ACAD_REACTORS
330
5B
102
}
330
5B
100
AcDbMLeaderStyle
179
     2
170
     2
171
     1
172
     0
 90
        2
 40
0.0
 41
0.0
173
     1
 91
-1056964608
340
14
 92
       -2
290
     1
 42
0.09
291
     1
 43
0.36
  3
Standard
341
0
 44
0.18
300

342
11
174
     1
178
     6
175
     1
176
     0
 93
-1056964608
 45
0.18
292
     0
297
     0
 46
0.18
343
0
 94
-1056964608
 47
1.0
 49
1.0
140
1.0
293
     1
141
0.0
294
     1
177
     0
142
1.0
295
     0
296
     0
143
0.125
271
     0
272
     9
273
     9
298
     0
  0
MLINESTYLE
  5
18
102
{ACAD_REACTORS
330
17
102
}
330
17
100
AcDbMlineStyle
  2
Standard
 70
     0
  3

 62
   256
 51
90.0
 52
90.0
 71
     2
 49
0.5
 62
   256
  6
BYLAYER
 49
-0.5
 62
   256
  6
BYLAYER
  0
ACDBPLACEHOLDER
  5
F
102
{ACAD_REACTORS
330
E
102
}
330
E
  0
SCALE
  5
48
102
{ACAD_REACTORS
330
47
102
}
330
47
100
AcDbScale
 70
     0
300
1:1
140
1.0
141
1.0
290
     1
  0
SCALE
  5
49
102
{ACAD_REACTORS
330
47
102
}
330
47
100
AcDbScale
 70
     0
300
1/128" = 1'-0"
140
0.0078125
141
12.0
290
     0
  0
SCALE
  5
4A
102
{ACAD_REACTORS
330
47
102
}
330
47
100
AcDbScale
 70
     0
300
1/64" = 1'-0"
140
0.015625
141
12.0
290
     0
  0
SCALE
  5
4B
102
{ACAD_REACTORS
330
47
102
}
330
47
100
AcDbScale
 70
     0
300
1/32" = 1'-0"
140
0.03125
141
12.0
290
     0
  0
SCALE
  5
4C
102
{ACAD_REACTORS
330
47
102
}
330
47
100
AcDbScale
 70
     0
300
1/16" = 1'-0"
140
0.0625
141
12.0
290
     0
  0
SCALE
  5
4D
102
{ACAD_REACTORS
330
47
102
}
330
47
100
AcDbScale
 70
     0
300
3/32" = 1'-0"
140
0.09375
141
12.0
290
     0
  0
SCALE
  5
4E
102
{ACAD_REACTORS
330
47
102
}
330
47
100
AcDbScale
 70
     0
300
1/8" = 1'-0"
140
0.125
141
12.0
290
     0
  0
SCALE
  5
4F
102
{ACAD_REACTORS
330
47
102
}
330
47
100
AcDbScale
 70
     0
300
3/16" = 1'-0"
140
0.1875
141
12.0
290
     0
  0
SCALE
  5
50
102
{ACAD_REACTORS
330
47
102
}
330
47
100
AcDbScale
 70
     0
300
1/4" = 1'-0"
140
0.25
141
12.0
290
     0
  0
SCALE
  5
51
102
{ACAD_REACTORS
330
47
102
}
330
47
100
AcDbScale
 70
     0
300
3/8" = 1'-0"
140
0.375
141
12.0
290
     0
  0
SCALE
  5
52
102
{ACAD_REACTORS
330
47
102
}
330
47
100
AcDbScale
 70
     0
300
1/2" = 1'-0"
140
0.5
141
12.0
290
     0
  0
SCALE
  5
53
102
{ACAD_REACTORS
330
47
102
}
330
47
100
AcDbScale
 70
     0
300
3/4" = 1'-0"
140
0.75
141
12.0
290
     0
  0
SCALE
  5
54
102
{ACAD_REACTORS
330
47
102
}
330
47
100
AcDbScale
 70
     0
300
1" = 1'-0"
140
1.0
141
12.0
290
     0
  0
SCALE
  5
55
102
{ACAD_REACTORS
330
47
102
}
330
47
100
AcDbScale
 70
     0
300
1-1/2" = 1'-0"
140
1.5
141
12.0
290
     0
  0
SCALE
  5
56
102
{ACAD_REACTORS
330
47
102
}
330
47
100
AcDbScale
 70
     0
300
3" = 1'-0"
140
3.0
141
12.0
290
     0
  0
SCALE
  5
57
102
{ACAD_REACTORS
330
47
102
}
330
47
100
AcDbScale
 70
     0
300
6" = 1'-0"
140
6.0
141
12.0
290
     0
  0
SCALE
  5
58
102
{ACAD_REACTORS
330
47
102
}
330
47
100
AcDbScale
 70
     0
300
1'-0" = 1'-0"
140
12.0
141
12.0
290
     0
  0
TABLESTYLE
  5
5A
102
{ACAD_REACTORS
330
59
102
}
102
{ACAD_XDICTIONARY
360
A7
102
}
330
59
100
AcDbTableStyle
  3
Standard
 70
     0
 71
     0
 40
0.06
 41
0.06
280
     0
281
     0
  7
Standard
140
0.18
170
     2
 62
     0
 63
   257
283
     0
 90
        4
 91
        0
  1

274
    -2
284
     1
 64
     0
275
    -2
285
     1
 65
     0
276
    -2
286
     1
 66
     0
277
    -2
287
     1
 67
     0
278
    -2
288
     1
 68
     0
279
    -2
289
     1
 69
     0
  7
Standard
140
0.25
170
     5
 62
     0
 63
   257
283
     0
 90
        4
 91
        0
  1

274
    -2
284
     1
 64
     0
275
    -2
285
     1
 65
     0
276
    -2
286
     1
 66
     0
277
    -2
287
     1
 67
     0
278
    -2
288
     1
 68
     0
279
    -2
289
     1
 69
     0
  7
Standard
140
0.18
170
     5
 62
     0
 63
   257
283
     0
 90
        4
 91
        0
  1

274
    -2
284
     1
 64
     0
275
    -2
285
     1
 65
     0
276
    -2
286
     1
 66
     0
277
    -2
287
     1
 67
     0
278
    -2
288
     1
 68
     0
279
    -2
289
     1
 69
     0
  0
VISUALSTYLE
  5
2F
102
{ACAD_REACTORS
330
2A
102
}
330
2A
100
AcDbVisualStyle
  2
2dWireframe
 70
     4
177
     3
291
     0
 70
    58
 90
        0
176
     1
 90
        2
176
     1
 90
        0
176
     1
 90
        0
176
     1
 40
0.6
176
     1
 40
30.0
176
     1
 62
     7
420
 16777215
176
     1
 90
        1
176
     1
 90
        4
176
     1
 62
     7
176
     1
 62
   257
176
     1
 90
        1
176
     1
 90
        1
176
     1
 40
1.0
176
     1
 90
        0
176
     1
 62
   257
176
     1
 40
1.0
176
     1
 90
        1
176
     1
 90
        6
176
     1
 90
        2
176
     1
 62
     7
176
     1
 90
        5
176
     1
 90
        0
176
     1
 90
        0
176
     1
290
     0
176
     1
 90
        1
176
     1
 40
0.0
176
     1
 90
        0
176
     1
290
     1
176
     1
290
     1
176
     1
290
     0
176
     1
290
     0
176
     1
290
     0
176
     1
290
     0
176
     1
290
     0
176
     1
290
     0
176
     1
290
     0
176
     1
 90
       50
176
     1
 40
0.0
176
     1
 40
1.0
176
     1
 90
        0
176
     1
 62
    18
420
        0
176
     1
 90
       50
176
     1
 90
        3
176
     1
 62
     5
420
      255
176
     1
290
     0
176
     1
 90
       50
176
     1
 90
       50
176
     1
 90
       50
176
     1
290
     0
176
     1
 90
       50
176
     1
 62
   256
176
     0
 40
1.0
176
     0
 90
        2
176
     1
  1
strokes_ogs.tif
176
     1
290
     0
176
     1
 40
1.0
176
     1
 40
1.0
176
     1
  0
VISUALSTYLE
  5
32
102
{ACAD_REACTORS
330
2A
102
}
330
2A
100
AcDbVisualStyle
  2
Basic
 70
     7
177
     3
291
     1
 70
    58
 90
        1
176
     1
 90
        0
176
     1
 90
        1
176
     1
 90
        0
176
     1
 40
0.6
176
     1
 40
30.0
176
     1
 62
     7
420
 16777215
176
     1
 90
        0
176
     1
 90
        4
176
     1
 62
     7
176
     1
 62
   257
176
     1
 90
        1
176
     1
 90
        1
176
     1
 40
1.0
176
     1
 90
        8
176
     1
 62
     7
176
     1
 40
1.0
176
     1
 90
        1
176
     1
 90
        6
176
     1
 90
        2
176
     1
 62
     7
176
     1
 90
        5
176
     1
 90
        0
176
     1
 90
        0
176
     1
290
     0
176
     1
 90
        1
176
     1
 40
0.0
176
     1
 90
        0
176
     1
290
     0
176
     1
290
     1
176
     1
290
     1
176
     1
290
     0
176
     1
290
     0
176
     1
290
     0
176
     1
290
     0
176
     1
290
     0
176
     1
290
     0
176
     1
 90
       50
176
     1
 40
0.0
176
     1
 40
1.0
176
     1
 90
        0
176
     1
 62
    18
420
        0
176
     1
 90
       50
176
     1
 90
        3
176
     1
 62
     5
420
      255
176
     1
290
     0
176
     1
 90
       50
176
     1
 90
       50
176
     1
 90
       50
176
     1
290
     0
176
     1
 90
       50
176
     1
 62
   256
176
     0
 40
1.0
176
     0
 90
        2
176
     1
  1
strokes_ogs.tif
176
     1
290
     0
176
     1
 40
1.0
176
     1
 40
1.0
176
     1
  0
VISUALSTYLE
  5
36
102
{ACAD_REACTORS
330
2A
102
}
330
2A
100
AcDbVisualStyle
  2
Brighten
 70
    12
177
     3
291
     1
 70
    58
 90
        2
176
     1
 90
        2
176
     1
 90
        0
176
     1
 90
        0
176
     1
 40
0.6
176
     1
 40
30.0
176
     1
 62
     7
420
 16777215
176
     1
 90
        1
176
     1
 90
        4
176
     1
 62
     7
176
     1
 62
   257
176
     1
 90
        1
176
     1
 90
        1
176
     1
 40
1.0
176
     1
 90
        8
176
     1
 62
     7
176
     1
 40
1.0
176
     1
 90
        1
176
     1
 90
        6
176
     1
 90
        2
176
     1
 62
     7
176
     1
 90
        5
176
     1
 90
        0
176
     1
 90
        0
176
     1
290
     0
176
     1
 90
        1
176
     1
 40
50.0
176
     1
 90
        0
176
     1
290
     0
176
     1
290
     1
176
     1
290
     1
176
     1
290
     0
176
     1
290
     0
176
     1
290
     0
176
     1
290
     0
176
     1
290
     0
176
     1
290
     0
176
     1
 90
       50
176
     1
 40
0.0
176
     1
 40
1.0
176
     1
 90
        0
176
     1
 62
    18
420
        0
176
     1
 90
       50
176
     1
 90
        3
176
     1
 62
     5
420
      255
176
     1
290
     0
176
     1
 90
       50
176
     1
 90
       50
176
     1
 90
       50
176
     1
290
     0
176
     1
 90
       50
176
     1
 62
   256
176
     0
 40
1.0
176
     0
 90
        2
176
     1
  1
strokes_ogs.tif
176
     1
290
     0
176
     1
 40
1.0
176
     1
 40
1.0
176
     1
  0
VISUALSTYLE
  5
3A
102
{ACAD_REACTORS
330
2A
102
}
330
2A
100
AcDbVisualStyle
  2
ColorChange
 70
    16
177
     3
291
     1
 70
    58
 90
        2
176
     1
 90
        2
176
     1
 90
        3
176
     1
 90
        0
176
     1
 40
0.6
176
     1
 40
30.0
176
     1
 62
     8
420
  8421504
176
     1
 90
        1
176
     1
 90
        4
176
     1
 62
     7
176
     1
 62
   257
176
     1
 90
        1
176
     1
 90
        1
176
     1
 40
1.0
176
     1
 90
        8
176
     1
 62
     8
420
  8421504
176
     1
 40
1.0
176
     1
 90
        1
176
     1
 90
        6
176
     1
 90
        2
176
     1
 62
     7
176
     1
 90
        5
176
     1
 90
        0
176
     1
 90
        0
176
     1
290
     0
176
     1
 90
        1
176
     1
 40
0.0
176
     1
 90
        0
176
     1
290
     0
176
     1
290
     1
176
     1
290
     1
176
     1
290
     0
176
     1
290
     0
176
     1
290
     0
176
     1
290
     0
176
     1
290
     0
176
     1
290
     0
176
     1
 90
       50
176
     1
 40
0.0
176
     1
 40
1.0
176
     1
 90
        0
176
     1
 62
    18
420
        0
176
     1
 90
       50
176
     1
 90
        3
176
     1
 62
     5
420
      255
176
     1
290
     0
176
     1
 90
       50
176
     1
 90
       50
176
     1
 90
       50
176
     1
290
     0
176
     1
 90
       50
176
     1
 62
   256
176
     0
 40
1.0
176
     0
 90
        2
176
     1
  1
strokes_ogs.tif
176
     1
290
     0
176
     1
 40
1.0
176
     1
 40
1.0
176
     1
  0
VISUALSTYLE
  5
34
102
{ACAD_REACTORS
330
2A
102
}
330
2A
100
AcDbVisualStyle
  2
Conceptual
 70
     9
177
     3
291
     0
 70
    58
 90
        3
176
     1
 90
        2
176
     1
 90
        0
176
     1
 90
        0
176
     1
 40
0.6
176
     1
 40
30.0
176
     1
 62
     7
420
 16777215
176
     1
 90
        2
176
     1
 90
        2
176
     1
 62
     7
176
     1
 62
   257
176
     1
 90
        1
176
     1
 90
        1
176
     1
 40
179.0
176
     1
 90
        8
176
     1
 62
     7
176
     1
 40
1.0
176
     1
 90
        1
176
     1
 90
        6
176
     1
 90
        2
176
     1
 62
     7
176
     1
 90
        3
176
     1
 90
        0
176
     1
 90
        0
176
     1
290
     0
176
     1
 90
        1
176
     1
 40
0.0
176
     1
 90
        0
176
     1
290
     0
176
     1
290
     1
176
     1
290
     1
176
     1
290
     0
176
     1
290
     0
176
     1
290
     0
176
     1
290
     0
176
     1
290
     0
176
     1
290
     0
176
     1
 90
       50
176
     1
 40
0.0
176
     1
 40
1.0
176
     1
 90
        0
176
     1
 62
    18
420
        0
176
     1
 90
       50
176
     1
 90
        3
176
     1
 62
     5
420
      255
176
     1
290
     0
176
     1
 90
       50
176
     1
 90
       50
176
     1
 90
       50
176
     1
290
     0
176
     1
 90
       50
176
     1
 62
   256
176
     0
 40
1.0
176
     0
 90
        2
176
     1
  1
strokes_ogs.tif
176
     1
290
     0
176
     1
 40
1.0
176
     1
 40
1.0
176
     1
  0
VISUALSTYLE
  5
35
102
{ACAD_REACTORS
330
2A
102
}
330
2A
100
AcDbVisualStyle
  2
Dim
 70
    11
177
     3
291
     1
 70
    58
 90
        2
176
     1
 90
        2
176
     1
 90
        0
176
     1
 90
        0
176
     1
 40
0.6
176
     1
 40
30.0
176
     1
 62
     7
420
 16777215
176
     1
 90
        1
176
     1
 90
        4
176
     1
 62
     7
176
     1
 62
   257
176
     1
 90
        1
176
     1
 90
        1
176
     1
 40
1.0
176
     1
 90
        8
176
     1
 62
     7
176
     1
 40
1.0
176
     1
 90
        1
176
     1
 90
        6
176
     1
 90
        2
176
     1
 62
     7
176
     1
 90
        5
176
     1
 90
        0
176
     1
 90
        0
176
     1
290
     0
176
     1
 90
        1
176
     1
 40
-50.0
176
     1
 90
        0
176
     1
290
     0
176
     1
290
     1
176
     1
290
     1
176
     1
290
     0
176
     1
290
     0
176
     1
290
     0
176
     1
290
     0
176
     1
290
     0
176
     1
290
     0
176
     1
 90
       50
176
     1
 40
0.0
176
     1
 40
1.0
176
     1
 90
        0
176
     1
 62
    18
420
        0
176
     1
 90
       50
176
     1
 90
        3
176
     1
 62
     5
420
      255
176
     1
290
     0
176
     1
 90
       50
176
     1
 90
       50
176
     1
 90
       50
176
     1
290
     0
176
     1
 90
       50
176
     1
 62
   256
176
     0
 40
1.0
176
     0
 90
        2
176
     1
  1
strokes_ogs.tif
176
     1
290
     0
176
     1
 40
1.0
176
     1
 40
1.0
176
     1
  0
VISUALSTYLE
  5
3D
102
{ACAD_REACTORS
330
2A
102
}
330
2A
100
AcDbVisualStyle
  2
EdgeColorOff
 70
    22
177
     3
291
     1
 70
    58
 90
        2
176
     0
 90
        2
176
     0
 90
        0
176
     0
 90
        0
176
     0
 40
0.6
176
     0
 40
30.0
176
     0
 62
     7
420
 16777215
176
     0
 90
        1
176
     0
 90
        4
176
     0
 62
     7
176
     0
 62
   257
176
     0
 90
        1
176
     0
 90
        1
176
     0
 40
1.0
176
     0
 90
        8
176
     2
 62
     7
176
     0
 40
1.0
176
     0
 90
        1
176
     0
 90
        6
176
     0
 90
        2
176
     0
 62
     7
176
     0
 90
        5
176
     0
 90
        0
176
     0
 90
        0
176
     0
290
     0
176
     0
 90
        1
176
     0
 40
0.0
176
     0
 90
        0
176
     0
290
     0
176
     0
290
     1
176
     0
290
     1
176
     0
290
     0
176
     0
290
     0
176
     0
290
     0
176
     0
290
     0
176
     0
290
     0
176
     0
290
     0
176
     0
 90
       50
176
     0
 40
0.0
176
     0
 40
1.0
176
     0
 90
        0
176
     0
 62
    18
420
        0
176
     0
 90
       50
176
     0
 90
        3
176
     0
 62
     5
420
      255
176
     0
290
     0
176
     0
 90
       50
176
     0
 90
       50
176
     0
 90
       50
176
     0
290
     0
176
     0
 90
       50
176
     0
 62
   256
176
     0
 40
1.0
176
     0
 90
        2
176
     0
  1
strokes_ogs.tif
176
     0
290
     0
176
     0
 40
1.0
176
     0
 40
1.0
176
     0
  0
VISUALSTYLE
  5
39
102
{ACAD_REACTORS
330
2A
102
}
330
2A
100
AcDbVisualStyle
  2
Facepattern
 70
    15
177
     3
291
     1
 70
    58
 90
        2
176
     1
 90
        2
176
     1
 90
        0
176
     1
 90
        0
176
     1
 40
0.6
176
     1
 40
30.0
176
     1
 62
     7
420
 16777215
176
     1
 90
        1
176
     1
 90
        4
176
     1
 62
     7
176
     1
 62
   257
176
     1
 90
        1
176
     1
 90
        1
176
     1
 40
1.0
176
     1
 90
        8
176
     1
 62
     7
176
     1
 40
1.0
176
     1
 90
        1
176
     1
 90
        6
176
     1
 90
        2
176
     1
 62
     7
176
     1
 90
        5
176
     1
 90
        0
176
     1
 90
        0
176
     1
290
     0
176
     1
 90
        1
176
     1
 40
0.0
176
     1
 90
        0
176
     1
290
     0
176
     1
290
     1
176
     1
290
     1
176
     1
290
     0
176
     1
290
     0
176
     1
290
     0
176
     1
290
     0
176
     1
290
     0
176
     1
290
     0
176
     1
 90
       50
176
     1
 40
0.0
176
     1
 40
1.0
176
     1
 90
        0
176
     1
 62
    18
420
        0
176
     1
 90
       50
176
     1
 90
        3
176
     1
 62
     5
420
      255
176
     1
290
     0
176
     1
 90
       50
176
     1
 90
       50
176
     1
 90
       50
176
     1
290
     0
176
     1
 90
       50
176
     1
 62
   256
176
     0
 40
1.0
176
     0
 90
        2
176
     1
  1
strokes_ogs.tif
176
     1
290
     0
176
     1
 40
1.0
176
     1
 40
1.0
176
     1
  0
VISUALSTYLE
  5
2B
102
{ACAD_REACTORS
330
2A
102
}
330
2A
100
AcDbVisualStyle
  2
Flat
 70
     0
177
     3
291
     1
 70
    58
 90
        2
176
     1
 90
        1
176
     1
 90
        1
176
     1
 90
        2
176
     1
 40
0.6
176
     1
 40
30.0
176
     1
 62
     7
420
 16777215
176
     1
 90
        0
176
     1
 90
        0
176
     1
 62
     7
176
     1
 62
   257
176
     1
 90
        1
176
     1
 90
        1
176
     1
 40
1.0
176
     1
 90
        8
176
     1
 62
     7
176
     1
 40
1.0
176
     1
 90
        1
176
     1
 90
        6
176
     1
 90
        2
176
     1
 62
     7
176
     1
 90
        5
176
     1
 90
        0
176
     1
 90
        0
176
     1
290
     0
176
     1
 90
       13
176
     1
 40
0.0
176
     1
 90
        0
176
     1
290
     0
176
     1
290
     1
176
     1
290
     1
176
     1
290
     0
176
     1
290
     0
176
     1
290
     0
176
     1
290
     0
176
     1
290
     0
176
     1
290
     0
176
     1
 90
       50
176
     1
 40
0.0
176
     1
 40
1.0
176
     1
 90
        0
176
     1
 62
    18
420
        0
176
     1
 90
       50
176
     1
 90
        3
176
     1
 62
     5
420
      255
176
     1
290
     0
176
     1
 90
       50
176
     1
 90
       50
176
     1
 90
       50
176
     1
290
     0
176
     1
 90
       50
176
     1
 62
   256
176
     0
 40
1.0
176
     0
 90
        2
176
     1
  1
strokes_ogs.tif
176
     1
290
     0
176
     1
 40
1.0
176
     1
 40
1.0
176
     1
  0
VISUALSTYLE
  5
2C
102
{ACAD_REACTORS
330
2A
102
}
330
2A
100
AcDbVisualStyle
  2
FlatWithEdges
 70
     1
177
     3
291
     1
 70
    58
 90
        2
176
     1
 90
        1
176
     1
 90
        1
176
     1
 90
        2
176
     1
 40
0.6
176
     1
 40
30.0
176
     1
 62
     7
420
 16777215
176
     1
 90
        1
176
     1
 90
        0
176
     1
 62
     7
176
     1
 62
   257
176
     1
 90
        1
176
     1
 90
        1
176
     1
 40
1.0
176
     1
 90
        0
176
     1
 62
   257
176
     1
 40
1.0
176
     1
 90
        1
176
     1
 90
        6
176
     1
 90
        2
176
     1
 62
     7
176
     1
 90
        5
176
     1
 90
        0
176
     1
 90
        0
176
     1
290
     0
176
     1
 90
       13
176
     1
 40
0.0
176
     1
 90
        0
176
     1
290
     0
176
     1
290
     1
176
     1
290
     1
176
     1
290
     0
176
     1
290
     0
176
     1
290
     0
176
     1
290
     0
176
     1
290
     0
176
     1
290
     0
176
     1
 90
       50
176
     1
 40
0.0
176
     1
 40
1.0
176
     1
 90
        0
176
     1
 62
    18
420
        0
176
     1
 90
       50
176
     1
 90
        3
176
     1
 62
     5
420
      255
176
     1
290
     0
176
     1
 90
       50
176
     1
 90
       50
176
     1
 90
       50
176
     1
290
     0
176
     1
 90
       50
176
     1
 62
   256
176
     0
 40
1.0
176
     0
 90
        2
176
     1
  1
strokes_ogs.tif
176
     1
290
     0
176
     1
 40
1.0
176
     1
 40
1.0
176
     1
  0
VISUALSTYLE
  5
2D
102
{ACAD_REACTORS
330
2A
102
}
330
2A
100
AcDbVisualStyle
  2
Gouraud
 70
     2
177
     3
291
     1
 70
    58
 90
        2
176
     1
 90
        2
176
     1
 90
        1
176
     1
 90
        2
176
     1
 40
0.6
176
     1
 40
30.0
176
     1
 62
     7
420
 16777215
176
     1
 90
        0
176
     1
 90
        0
176
     1
 62
     7
176
     1
 62
   257
176
     1
 90
        1
176
     1
 90
        1
176
     1
 40
1.0
176
     1
 90
        0
176
     1
 62
     7
176
     1
 40
1.0
176
     1
 90
        1
176
     1
 90
        6
176
     1
 90
        2
176
     1
 62
     7
176
     1
 90
        5
176
     1
 90
        0
176
     1
 90
        0
176
     1
290
     0
176
     1
 90
       13
176
     1
 40
0.0
176
     1
 90
        0
176
     1
290
     0
176
     1
290
     1
176
     1
290
     1
176
     1
290
     0
176
     1
290
     0
176
     1
290
     0
176
     1
290
     0
176
     1
290
     0
176
     1
290
     0
176
     1
 90
       50
176
     1
 40
0.0
176
     1
 40
1.0
176
     1
 90
        0
176
     1
 62
    18
420
        0
176
     1
 90
       50
176
     1
 90
        3
176
     1
 62
     5
420
      255
176
     1
290
     0
176
     1
 90
       50
176
     1
 90
       50
176
     1
 90
       50
176
     1
290
     0
176
     1
 90
       50
176
     1
 62
   256
176
     0
 40
1.0
176
     0
 90
        2
176
     1
  1
strokes_ogs.tif
176
     1
290
     0
176
     1
 40
1.0
176
     1
 40
1.0
176
     1
  0
VISUALSTYLE
  5
2E
102
{ACAD_REACTORS
330
2A
102
}
330
2A
100
AcDbVisualStyle
  2
GouraudWithEdges
 70
     3
177
     3
291
     1
 70
    58
 90
        2
176
     1
 90
        2
176
     1
 90
        1
176
     1
 90
        2
176
     1
 40
0.6
176
     1
 40
30.0
176
     1
 62
     7
420
 16777215
176
     1
 90
        1
176
     1
 90
        0
176
     1
 62
     7
176
     1
 62
   257
176
     1
 90
        1
176
     1
 90
        1
176
     1
 40
1.0
176
     1
 90
        0
176
     1
 62
   257
176
     1
 40
1.0
176
     1
 90
        1
176
     1
 90
        6
176
     1
 90
        2
176
     1
 62
     7
176
     1
 90
        5
176
     1
 90
        0
176
     1
 90
        0
176
     1
290
     0
176
     1
 90
       13
176
     1
 40
0.0
176
     1
 90
        0
176
     1
290
     0
176
     1
290
     1
176
     1
290
     1
176
     1
290
     0
176
     1
290
     0
176
     1
290
     0
176
     1
290
     0
176
     1
290
     0
176
     1
290
     0
176
     1
 90
       50
176
     1
 40
0.0
176
     1
 40
1.0
176
     1
 90
        0
176
     1
 62
    18
420
        0
176
     1
 90
       50
176
     1
 90
        3
176
     1
 62
     5
420
      255
176
     1
290
     0
176
     1
 90
       50
176
     1
 90
       50
176
     1
 90
       50
176
     1
290
     0
176
     1
 90
       50
176
     1
 62
   256
176
     0
 40
1.0
176
     0
 90
        2
176
     1
  1
strokes_ogs.tif
176
     1
290
     0
176
     1
 40
1.0
176
     1
 40
1.0
176
     1
  0
VISUALSTYLE
  5
31
102
{ACAD_REACTORS
330
2A
102
}
330
2A
100
AcDbVisualStyle
  2
Hidden
 70
     6
177
     3
291
     0
 70
    58
 90
        1
176
     1
 90
        2
176
     1
 90
        2
176
     1
 90
        0
176
     1
 40
0.6
176
     1
 40
30.0
176
     1
 62
     7
420
 16777215
176
     1
 90
        2
176
     1
 90
        2
176
     1
 62
     7
176
     1
 62
   257
176
     1
 90
        2
176
     1
 90
        1
176
     1
 40
40.0
176
     1
 90
        0
176
     1
 62
   257
176
     1
 40
1.0
176
     1
 90
        1
176
     1
 90
        6
176
     1
 90
        2
176
     1
 62
     7
176
     1
 90
        3
176
     1
 90
        0
176
     1
 90
        0
176
     1
290
     0
176
     1
 90
        1
176
     1
 40
0.0
176
     1
 90
        0
176
     1
290
     0
176
     1
290
     1
176
     1
290
     1
176
     1
290
     0
176
     1
290
     0
176
     1
290
     0
176
     1
290
     0
176
     1
290
     0
176
     1
290
     0
176
     1
 90
       50
176
     1
 40
0.0
176
     1
 40
1.0
176
     1
 90
        0
176
     1
 62
    18
420
        0
176
     1
 90
       50
176
     1
 90
        3
176
     1
 62
     5
420
      255
176
     1
290
     0
176
     1
 90
       50
176
     1
 90
       50
176
     1
 90
       50
176
     1
290
     0
176
     1
 90
       50
176
     1
 62
   256
176
     0
 40
1.0
176
     0
 90
        2
176
     1
  1
strokes_ogs.tif
176
     1
290
     0
176
     1
 40
1.0
176
     1
 40
1.0
176
     1
  0
VISUALSTYLE
  5
3B
102
{ACAD_REACTORS
330
2A
102
}
330
2A
100
AcDbVisualStyle
  2
JitterOff
 70
    20
177
     3
291
     1
 70
    58
 90
        2
176
     0
 90
        2
176
     0
 90
        0
176
     0
 90
        0
176
     0
 40
0.6
176
     0
 40
30.0
176
     0
 62
     7
420
 16777215
176
     0
 90
        1
176
     0
 90
        4
176
     0
 62
     7
176
     0
 62
   257
176
     0
 90
        1
176
     0
 90
        1
176
     0
 40
1.0
176
     0
 90
       10
176
     2
 62
     7
176
     0
 40
1.0
176
     0
 90
        1
176
     0
 90
        6
176
     0
 90
        2
176
     0
 62
     7
176
     0
 90
        5
176
     0
 90
        0
176
     0
 90
        0
176
     0
290
     0
176
     0
 90
        1
176
     0
 40
0.0
176
     0
 90
        0
176
     0
290
     0
176
     0
290
     1
176
     0
290
     1
176
     0
290
     0
176
     0
290
     0
176
     0
290
     0
176
     0
290
     0
176
     0
290
     0
176
     0
290
     0
176
     0
 90
       50
176
     0
 40
0.0
176
     0
 40
1.0
176
     0
 90
        0
176
     0
 62
    18
420
        0
176
     0
 90
       50
176
     0
 90
        3
176
     0
 62
     5
420
      255
176
     0
290
     0
176
     0
 90
       50
176
     0
 90
       50
176
     0
 90
       50
176
     0
290
     0
176
     0
 90
       50
176
     0
 62
   256
176
     0
 40
1.0
176
     0
 90
        2
176
     0
  1
strokes_ogs.tif
176
     0
290
     0
176
     0
 40
1.0
176
     0
 40
1.0
176
     0
  0
VISUALSTYLE
  5
38
102
{ACAD_REACTORS
330
2A
102
}
330
2A
100
AcDbVisualStyle
  2
Linepattern
 70
    14
177
     3
291
     1
 70
    58
 90
        2
176
     1
 90
        2
176
     1
 90
        0
176
     1
 90
        0
176
     1
 40
0.6
176
     1
 40
30.0
176
     1
 62
     7
420
 16777215
176
     1
 90
        1
176
     1
 90
        4
176
     1
 62
     7
176
     1
 62
   257
176
     1
 90
        7
176
     1
 90
        7
176
     1
 40
1.0
176
     1
 90
        8
176
     1
 62
     7
176
     1
 40
1.0
176
     1
 90
        1
176
     1
 90
        6
176
     1
 90
        2
176
     1
 62
     7
176
     1
 90
        5
176
     1
 90
        0
176
     1
 90
        0
176
     1
290
     0
176
     1
 90
        1
176
     1
 40
0.0
176
     1
 90
        0
176
     1
290
     0
176
     1
290
     1
176
     1
290
     1
176
     1
290
     0
176
     1
290
     0
176
     1
290
     0
176
     1
290
     0
176
     1
290
     0
176
     1
290
     0
176
     1
 90
       50
176
     1
 40
0.0
176
     1
 40
1.0
176
     1
 90
        0
176
     1
 62
    18
420
        0
176
     1
 90
       50
176
     1
 90
        3
176
     1
 62
     5
420
      255
176
     1
290
     0
176
     1
 90
       50
176
     1
 90
       50
176
     1
 90
       50
176
     1
290
     0
176
     1
 90
       50
176
     1
 62
   256
176
     0
 40
1.0
176
     0
 90
        2
176
     1
  1
strokes_ogs.tif
176
     1
290
     0
176
     1
 40
1.0
176
     1
 40
1.0
176
     1
  0
VISUALSTYLE
  5
3C
102
{ACAD_REACTORS
330
2A
102
}
330
2A
100
AcDbVisualStyle
  2
OverhangOff
 70
    21
177
     3
291
     1
 70
    58
 90
        2
176
     0
 90
        2
176
     0
 90
        0
176
     0
 90
        0
176
     0
 40
0.6
176
     0
 40
30.0
176
     0
 62
     7
420
 16777215
176
     0
 90
        1
176
     0
 90
        4
176
     0
 62
     7
176
     0
 62
   257
176
     0
 90
        1
176
     0
 90
        1
176
     0
 40
1.0
176
     0
 90
        9
176
     2
 62
     7
176
     0
 40
1.0
176
     0
 90
        1
176
     0
 90
        6
176
     0
 90
        2
176
     0
 62
     7
176
     0
 90
        5
176
     0
 90
        0
176
     0
 90
        0
176
     0
290
     0
176
     0
 90
        1
176
     0
 40
0.0
176
     0
 90
        0
176
     0
290
     0
176
     0
290
     1
176
     0
290
     1
176
     0
290
     0
176
     0
290
     0
176
     0
290
     0
176
     0
290
     0
176
     0
290
     0
176
     0
290
     0
176
     0
 90
       50
176
     0
 40
0.0
176
     0
 40
1.0
176
     0
 90
        0
176
     0
 62
    18
420
        0
176
     0
 90
       50
176
     0
 90
        3
176
     0
 62
     5
420
      255
176
     0
290
     0
176
     0
 90
       50
176
     0
 90
       50
176
     0
 90
       50
176
     0
290
     0
176
     0
 90
       50
176
     0
 62
   256
176
     0
 40
1.0
176
     0
 90
        2
176
     0
  1
strokes_ogs.tif
176
     0
290
     0
176
     0
 40
1.0
176
     0
 40
1.0
176
     0
  0
VISUALSTYLE
  5
33
102
{ACAD_REACTORS
330
2A
102
}
330
2A
100
AcDbVisualStyle
  2
Realistic
 70
     8
177
     3
291
     0
 70
    58
 90
        2
176
     1
 90
        3
176
     1
 90
        0
176
     1
 90
        2
176
     1
 40
0.6
176
     1
 40
30.0
176
     1
 62
     7
420
 16777215
176
     1
 90
        0
176
     1
 90
        0
176
     1
 62
     7
176
     1
 62
   257
176
     1
 90
        1
176
     1
 90
        1
176
     1
 40
1.0
176
     1
 90
        8
176
     1
 62
   257
176
     1
 40
1.0
176
     1
 90
        1
176
     1
 90
        6
176
     1
 90
        2
176
     1
 62
     7
176
     1
 90
        3
176
     1
 90
        0
176
     1
 90
        0
176
     1
290
     0
176
     1
 90
       13
176
     1
 40
0.0
176
     1
 90
        0
176
     1
290
     0
176
     1
290
     1
176
     1
290
     1
176
     1
290
     0
176
     1
290
     0
176
     1
290
     0
176
     1
290
     0
176
     1
290
     0
176
     1
290
     0
176
     1
 90
       50
176
     1
 40
0.0
176
     1
 40
1.0
176
     1
 90
        0
176
     1
 62
    18
420
        0
176
     1
 90
       50
176
     1
 90
        3
176
     1
 62
     5
420
      255
176
     1
290
     0
176
     1
 90
       50
176
     1
 90
       50
176
     1
 90
       50
176
     1
290
     0
176
     1
 90
       50
176
     1
 62
   256
176
     0
 40
1.0
176
     0
 90
        2
176
     1
  1
strokes_ogs.tif
176
     1
290
     0
176
     1
 40
1.0
176
     1
 40
1.0
176
     1
  0
VISUALSTYLE
  5
42
102
{ACAD_REACTORS
330
2A
102
}
330
2A
100
AcDbVisualStyle
  2
Shaded
 70
    27
177
     3
291
     0
 70
    58
 90
        2
176
     1
 90
        2
176
     1
 90
        1
176
     1
 90
        2
176
     1
 40
0.6
176
     1
 40
30.0
176
     1
 62
     7
420
 16777215
176
     1
 90
        0
176
     1
 90
        4
176
     1
 62
     7
176
     1
 62
   257
176
     1
 90
        1
176
     1
 90
        1
176
     1
 40
1.0
176
     1
 90
        8
176
     1
 62
   257
176
     1
 40
1.0
176
     1
 90
        1
176
     1
 90
        6
176
     1
 90
        2
176
     1
 62
     8
420
  7895160
176
     1
 90
        3
176
     1
 90
        0
176
     1
 90
        0
176
     1
290
     0
176
     1
 90
        5
176
     1
 40
0.0
176
     1
 90
        0
176
     1
290
     0
176
     1
290
     1
176
     1
290
     1
176
     1
290
     0
176
     1
290
     0
176
     1
290
     0
176
     1
290
     0
176
     1
290
     0
176
     1
290
     0
176
     1
 90
       50
176
     1
 40
0.0
176
     1
 40
1.0
176
     1
 90
        0
176
     1
 62
    18
420
        0
176
     1
 90
       50
176
     1
 90
        3
176
     1
 62
     5
420
      255
176
     1
290
     0
176
     1
 90
       50
176
     1
 90
       50
176
     1
 90
       50
176
     1
290
     0
176
     1
 90
       50
176
     1
 62
   256
176
     0
 40
1.0
176
     0
 90
        2
176
     1
  1
strokes_ogs.tif
176
     1
290
     0
176
     1
 40
1.0
176
     1
 40
1.0
176
     1
  0
VISUALSTYLE
  5
41
102
{ACAD_REACTORS
330
2A
102
}
330
2A
100
AcDbVisualStyle
  2
Shaded with edges
 70
    26
177
     3
291
     0
 70
    58
 90
        2
176
     1
 90
        2
176
     1
 90
        1
176
     1
 90
        2
176
     1
 40
0.6
176
     1
 40
30.0
176
     1
 62
     7
420
 16777215
176
     1
 90
        1
176
     1
 90
       10
176
     1
 62
     7
176
     1
 62
   257
176
     1
 90
        2
176
     1
 90
        1
176
     1
 40
1.0
176
     1
 90
        8
176
     1
 62
   257
176
     1
 40
1.0
176
     1
 90
        1
176
     1
 90
        6
176
     1
 90
        2
176
     1
 62
     7
176
     1
 90
        3
176
     1
 90
        0
176
     1
 90
        0
176
     1
290
     0
176
     1
 90
        5
176
     1
 40
0.0
176
     1
 90
        0
176
     1
290
     0
176
     1
290
     1
176
     1
290
     1
176
     1
290
     0
176
     1
290
     0
176
     1
290
     0
176
     1
290
     0
176
     1
290
     0
176
     1
290
     0
176
     1
 90
       50
176
     1
 40
0.0
176
     1
 40
1.0
176
     1
 90
        0
176
     1
 62
    18
420
        0
176
     1
 90
       50
176
     1
 90
        3
176
     1
 62
     5
420
      255
176
     1
290
     0
176
     1
 90
       50
176
     1
 90
       50
176
     1
 90
       50
176
     1
290
     0
176
     1
 90
       50
176
     1
 62
   256
176
     0
 40
1.0
176
     0
 90
        2
176
     1
  1
strokes_ogs.tif
176
     1
290
     0
176
     1
 40
1.0
176
     1
 40
1.0
176
     1
  0
VISUALSTYLE
  5
3E
102
{ACAD_REACTORS
330
2A
102
}
330
2A
100
AcDbVisualStyle
  2
Shades of Gray
 70
    23
177
     3
291
     0
 70
    58
 90
        2
176
     1
 90
        2
176
     1
 90
        3
176
     1
 90
        0
176
     1
 40
0.6
176
     1
 40
30.0
176
     1
 62
     7
420
 16777215
176
     1
 90
        2
176
     1
 90
        2
176
     1
 62
     7
176
     1
 62
     7
176
     1
 90
        1
176
     1
 90
        1
176
     1
 40
40.0
176
     1
 90
        8
176
     1
 62
     7
176
     1
 40
1.0
176
     1
 90
        1
176
     1
 90
        6
176
     1
 90
        2
176
     1
 62
     7
176
     1
 90
        3
176
     1
 90
        0
176
     1
 90
        0
176
     1
290
     0
176
     1
 90
        1
176
     1
 40
0.0
176
     1
 90
        0
176
     1
290
     0
176
     1
290
     1
176
     1
290
     1
176
     1
290
     0
176
     1
290
     0
176
     1
290
     0
176
     1
290
     0
176
     1
290
     0
176
     1
290
     0
176
     1
 90
       50
176
     1
 40
0.0
176
     1
 40
1.0
176
     1
 90
        0
176
     1
 62
    18
420
        0
176
     1
 90
       50
176
     1
 90
        3
176
     1
 62
     5
420
      255
176
     1
290
     0
176
     1
 90
       50
176
     1
 90
       50
176
     1
 90
       50
176
     1
290
     0
176
     1
 90
       50
176
     1
 62
   256
176
     0
 40
1.0
176
     0
 90
        2
176
     1
  1
strokes_ogs.tif
176
     1
290
     0
176
     1
 40
1.0
176
     1
 40
1.0
176
     1
  0
VISUALSTYLE
  5
3F
102
{ACAD_REACTORS
330
2A
102
}
330
2A
100
AcDbVisualStyle
  2
Sketchy
 70
    24
177
     3
291
     0
 70
    58
 90
        1
176
     1
 90
        2
176
     1
 90
        2
176
     1
 90
        0
176
     1
 40
0.6
176
     1
 40
30.0
176
     1
 62
     7
420
 16777215
176
     1
 90
        2
176
     1
 90
        2
176
     1
 62
     7
176
     1
 62
     7
176
     1
 90
        1
176
     1
 90
        1
176
     1
 40
40.0
176
     1
 90
       11
176
     1
 62
     7
176
     1
 40
1.0
176
     1
 90
        1
176
     1
 90
        6
176
     1
 90
        2
176
     1
 62
     7
176
     1
 90
        6
176
     1
 90
        0
176
     1
 90
        0
176
     1
290
     0
176
     1
 90
        1
176
     1
 40
0.0
176
     1
 90
        0
176
     1
290
     0
176
     1
290
     1
176
     1
290
     1
176
     1
290
     0
176
     1
290
     0
176
     1
290
     0
176
     1
290
     0
176
     1
290
     0
176
     1
290
     0
176
     1
 90
       50
176
     1
 40
0.0
176
     1
 40
1.0
176
     1
 90
        0
176
     1
 62
    18
420
        0
176
     1
 90
       50
176
     1
 90
        3
176
     1
 62
     5
420
      255
176
     1
290
     0
176
     1
 90
       50
176
     1
 90
       50
176
     1
 90
       50
176
     1
290
     0
176
     1
 90
       50
176
     1
 62
   256
176
     0
 40
1.0
176
     0
 90
        2
176
     1
  1
strokes_ogs.tif
176
     1
290
     0
176
     1
 40
1.0
176
     1
 40
1.0
176
     1
  0
VISUALSTYLE
  5
37
102
{ACAD_REACTORS
330
2A
102
}
330
2A
100
AcDbVisualStyle
  2
Thicken
 70
    13
177
     3
291
     1
 70
    58
 90
        2
176
     1
 90
        2
176
     1
 90
        0
176
     1
 90
        0
176
     1
 40
0.6
176
     1
 40
30.0
176
     1
 62
     7
420
 16777215
176
     1
 90
        1
176
     1
 90
        4
176
     1
 62
     7
176
     1
 62
   257
176
     1
 90
        1
176
     1
 90
        1
176
     1
 40
1.0
176
     1
 90
       12
176
     1
 62
     7
176
     1
 40
1.0
176
     1
 90
        1
176
     1
 90
        6
176
     1
 90
        2
176
     1
 62
     7
176
     1
 90
        5
176
     1
 90
        0
176
     1
 90
        0
176
     1
290
     0
176
     1
 90
        1
176
     1
 40
0.0
176
     1
 90
        0
176
     1
290
     0
176
     1
290
     1
176
     1
290
     1
176
     1
290
     0
176
     1
290
     0
176
     1
290
     0
176
     1
290
     0
176
     1
290
     0
176
     1
290
     0
176
     1
 90
       50
176
     1
 40
0.0
176
     1
 40
1.0
176
     1
 90
        0
176
     1
 62
    18
420
        0
176
     1
 90
       50
176
     1
 90
        3
176
     1
 62
     5
420
      255
176
     1
290
     0
176
     1
 90
       50
176
     1
 90
       50
176
     1
 90
       50
176
     1
290
     0
176
     1
 90
       50
176
     1
 62
   256
176
     0
 40
1.0
176
     0
 90
        2
176
     1
  1
strokes_ogs.tif
176
     1
290
     0
176
     1
 40
1.0
176
     1
 40
1.0
176
     1
  0
VISUALSTYLE
  5
30
102
{ACAD_REACTORS
330
2A
102
}
330
2A
100
AcDbVisualStyle
  2
Wireframe
 70
     5
177
     3
291
     0
 70
    58
 90
        0
176
     1
 90
        2
176
     1
 90
        0
176
     1
 90
        0
176
     1
 40
0.6
176
     1
 40
30.0
176
     1
 62
     7
420
 16777215
176
     1
 90
        1
176
     1
 90
        4
176
     1
 62
     7
176
     1
 62
   257
176
     1
 90
        1
176
     1
 90
        1
176
     1
 40
1.0
176
     1
 90
        0
176
     1
 62
   257
176
     1
 40
1.0
176
     1
 90
        1
176
     1
 90
        6
176
     1
 90
        2
176
     1
 62
     7
176
     1
 90
        3
176
     1
 90
        0
176
     1
 90
        0
176
     1
290
     0
176
     1
 90
        1
176
     1
 40
0.0
176
     1
 90
        0
176
     1
290
     0
176
     1
290
     1
176
     1
290
     1
176
     1
290
     0
176
     1
290
     0
176
     1
290
     0
176
     1
290
     0
176
     1
290
     0
176
     1
290
     0
176
     1
 90
       50
176
     1
 40
0.0
176
     1
 40
1.0
176
     1
 90
        0
176
     1
 62
    18
420
        0
176
     1
 90
       50
176
     1
 90
        3
176
     1
 62
     5
420
      255
176
     1
290
     0
176
     1
 90
       50
176
     1
 90
       50
176
     1
 90
       50
176
     1
290
     0
176
     1
 90
       50
176
     1
 62
   256
176
     0
 40
1.0
176
     0
 90
        2
176
     1
  1
strokes_ogs.tif
176
     1
290
     0
176
     1
 40
1.0
176
     1
 40
1.0
176
     1
  0
VISUALSTYLE
  5
40
102
{ACAD_REACTORS
330
2A
102
}
330
2A
100
AcDbVisualStyle
  2
X-Ray
 70
    25
177
     3
291
     0
 70
    58
 90
        2
176
     1
 90
        2
176
     1
 90
        1
176
     1
 90
        1
176
     1
 40
0.5
176
     1
 40
30.0
176
     1
 62
     7
420
 16777215
176
     1
 90
        1
176
     1
 90
        0
176
     1
 62
     7
176
     1
 62
   257
176
     1
 90
        1
176
     1
 90
        1
176
     1
 40
1.0
176
     1
 90
        8
176
     1
 62
     7
176
     1
 40
1.0
176
     1
 90
        1
176
     1
 90
        6
176
     1
 90
        2
176
     1
 62
     7
176
     1
 90
        3
176
     1
 90
        0
176
     1
 90
        0
176
     1
290
     0
176
     1
 90
       13
176
     1
 40
0.0
176
     1
 90
        0
176
     1
290
     0
176
     1
290
     1
176
     1
290
     1
176
     1
290
     0
176
     1
290
     0
176
     1
290
     0
176
     1
290
     0
176
     1
290
     0
176
     1
290
     0
176
     1
 90
       50
176
     1
 40
0.0
176
     1
 40
1.0
176
     1
 90
        0
176
     1
 62
    18
420
        0
176
     1
 90
       50
176
     1
 90
        3
176
     1
 62
     5
420
      255
176
     1
290
     0
176
     1
 90
       50
176
     1
 90
       50
176
     1
 90
       50
176
     1
290
     0
176
     1
 90
       50
176
     1
 62
   256
176
     0
 40
1.0
176
     0
 90
        2
176
     1
  1
strokes_ogs.tif
176
     1
290
     0
176
     1
 40
1.0
176
     1
 40
1.0
176
     1
  0
DICTIONARYVAR
  5
A6
102
{ACAD_REACTORS
330
A5
102
}
330
A5
100
DictionaryVariables
280
     0
  1
1:1
  0
DICTIONARYVAR
  5
AB
102
{ACAD_REACTORS
330
A5
102
}
330
A5
100
DictionaryVariables
280
     0
  1
Standard
  0
DICTIONARYVAR
  5
AA
102
{ACAD_REACTORS
330
A5
102
}
330
A5
100
DictionaryVariables
280
     0
  1
Standard
  0
DICTIONARY
  5
A7
330
5A
100
AcDbDictionary
280
     1
281
     1
  3
ACAD_ROUNDTRIP_2008_TABLESTYLE_CELLSTYLEMAP
360
A8
  0
CELLSTYLEMAP
  5
A8
102
{ACAD_REACTORS
330
A7
102
}
330
A7
100
AcDbCellStyleMap
 90
        3
300
CELLSTYLE
  1
TABLEFORMAT_BEGIN
 90
        5
170
     1
 91
        0
 92
    32768
 62
   257
 93
        1
300
CONTENTFORMAT
  1
CONTENTFORMAT_BEGIN
 90
        0
 91
        0
 92
        4
 93
        0
300

 40
0.0
140
1.0
 94
        5
 62
     0
340
11
144
0.25
309
CONTENTFORMAT_END
171
     1
301
MARGIN
  1
CELLMARGIN_BEGIN
 40
0.06
 40
0.06
 40
0.06
 40
0.06
 40
0.06
 40
0.06
309
CELLMARGIN_END
 94
        6
 95
        1
302
GRIDFORMAT
  1
GRIDFORMAT_BEGIN
 90
        0
 91
        1
 62
     0
 92
       -2
340
14
 93
        0
 40
0.045
309
GRIDFORMAT_END
 95
        2
302
GRIDFORMAT
  1
GRIDFORMAT_BEGIN
 90
        0
 91
        1
 62
     0
 92
       -2
340
14
 93
        0
 40
0.045
309
GRIDFORMAT_END
 95
        4
302
GRIDFORMAT
  1
GRIDFORMAT_BEGIN
 90
        0
 91
        1
 62
     0
 92
       -2
340
14
 93
        0
 40
0.045
309
GRIDFORMAT_END
 95
        8
302
GRIDFORMAT
  1
GRIDFORMAT_BEGIN
 90
        0
 91
        1
 62
     0
 92
       -2
340
14
 93
        0
 40
0.045
309
GRIDFORMAT_END
 95
       16
302
GRIDFORMAT
  1
GRIDFORMAT_BEGIN
 90
        0
 91
        1
 62
     0
 92
       -2
340
14
 93
        0
 40
0.045
309
GRIDFORMAT_END
 95
       32
302
GRIDFORMAT
  1
GRIDFORMAT_BEGIN
 90
        0
 91
        1
 62
     0
 92
       -2
340
14
 93
        0
 40
0.045
309
GRIDFORMAT_END
309
TABLEFORMAT_END
  1
CELLSTYLE_BEGIN
 90
        1
 91
        1
300
_TITLE
309
CELLSTYLE_END
300
CELLSTYLE
  1
TABLEFORMAT_BEGIN
 90
        5
170
     1
 91
        0
 92
        0
 62
   257
 93
        1
300
CONTENTFORMAT
  1
CONTENTFORMAT_BEGIN
 90
        0
 91
        0
 92
        4
 93
        0
300

 40
0.0
140
1.0
 94
        5
 62
     0
340
11
144
0.18
309
CONTENTFORMAT_END
171
     1
301
MARGIN
  1
CELLMARGIN_BEGIN
 40
0.06
 40
0.06
 40
0.06
 40
0.06
 40
0.06
 40
0.06
309
CELLMARGIN_END
 94
        6
 95
        1
302
GRIDFORMAT
  1
GRIDFORMAT_BEGIN
 90
        0
 91
        1
 62
     0
 92
       -2
340
14
 93
        0
 40
0.045
309
GRIDFORMAT_END
 95
        2
302
GRIDFORMAT
  1
GRIDFORMAT_BEGIN
 90
        0
 91
        1
 62
     0
 92
       -2
340
14
 93
        0
 40
0.045
309
GRIDFORMAT_END
 95
        4
302
GRIDFORMAT
  1
GRIDFORMAT_BEGIN
 90
        0
 91
        1
 62
     0
 92
       -2
340
14
 93
        0
 40
0.045
309
GRIDFORMAT_END
 95
        8
302
GRIDFORMAT
  1
GRIDFORMAT_BEGIN
 90
        0
 91
        1
 62
     0
 92
       -2
340
14
 93
        0
 40
0.045
309
GRIDFORMAT_END
 95
       16
302
GRIDFORMAT
  1
GRIDFORMAT_BEGIN
 90
        0
 91
        1
 62
     0
 92
       -2
340
14
 93
        0
 40
0.045
309
GRIDFORMAT_END
 95
       32
302
GRIDFORMAT
  1
GRIDFORMAT_BEGIN
 90
        0
 91
        1
 62
     0
 92
       -2
340
14
 93
        0
 40
0.045
309
GRIDFORMAT_END
309
TABLEFORMAT_END
  1
CELLSTYLE_BEGIN
 90
        2
 91
        1
300
_HEADER
309
CELLSTYLE_END
300
CELLSTYLE
  1
TABLEFORMAT_BEGIN
 90
        5
170
     1
 91
        0
 92
        0
 62
   257
 93
        1
300
CONTENTFORMAT
  1
CONTENTFORMAT_BEGIN
 90
        0
 91
        0
 92
        4
 93
        0
300

 40
0.0
140
1.0
 94
        2
 62
     0
340
11
144
0.18
309
CONTENTFORMAT_END
171
     1
301
MARGIN
  1
CELLMARGIN_BEGIN
 40
0.06
 40
0.06
 40
0.06
 40
0.06
 40
0.06
 40
0.06
309
CELLMARGIN_END
 94
        6
 95
        1
302
GRIDFORMAT
  1
GRIDFORMAT_BEGIN
 90
        0
 91
        1
 62
     0
 92
       -2
340
14
 93
        0
 40
0.045
309
GRIDFORMAT_END
 95
        2
302
GRIDFORMAT
  1
GRIDFORMAT_BEGIN
 90
        0
 91
        1
 62
     0
 92
       -2
340
14
 93
        0
 40
0.045
309
GRIDFORMAT_END
 95
        4
302
GRIDFORMAT
  1
GRIDFORMAT_BEGIN
 90
        0
 91
        1
 62
     0
 92
       -2
340
14
 93
        0
 40
0.045
309
GRIDFORMAT_END
 95
        8
302
GRIDFORMAT
  1
GRIDFORMAT_BEGIN
 90
        0
 91
        1
 62
     0
 92
       -2
340
14
 93
        0
 40
0.045
309
GRIDFORMAT_END
 95
       16
302
GRIDFORMAT
  1
GRIDFORMAT_BEGIN
 90
        0
 91
        1
 62
     0
 92
       -2
340
14
 93
        0
 40
0.045
309
GRIDFORMAT_END
 95
       32
302
GRIDFORMAT
  1
GRIDFORMAT_BEGIN
 90
        0
 91
        1
 62
     0
 92
       -2
340
14
 93
        0
 40
0.045
309
GRIDFORMAT_END
309
TABLEFORMAT_END
  1
CELLSTYLE_BEGIN
 90
        3
 91
        2
300
_DATA
309
CELLSTYLE_END
  0
ENDSEC
  0
EOF
