  0
SECTION
  2
HEADER
  9
$ACADVER
  1
AC1032
  9
$ACADMAINTVER
 90
       55
  9
$DWGCODEPAGE
  3
ANSI_1252
  9
$LASTSAVEDBY
  1
Abolfazl
  9
$REQUIREDVERSIONS
160
                 0
  9
$INSBASE
 10
0.0
 20
0.0
 30
0.0
  9
$EXTMIN
 10
-25.3024
 20
-25.3977
 30
0.0
  9
$EXTMAX
 10
24.6776
 20
24.5823
 30
0.0
  9
$LIMMIN
 10
0.0
 20
0.0
  9
$LIMMAX
 10
12.0
 20
9.0
  9
$ORTHOMODE
 70
     0
  9
$REGENMODE
 70
     1
  9
$FILLMODE
 70
     1
  9
$QTEXTMODE
 70
     0
  9
$MIRRTEXT
 70
     1
  9
$LTSCALE
 40
1.0
  9
$ATTMODE
 70
     1
  9
$TEXTSIZE
 40
0.2
  9
$TRACEWID
 40
0.05
  9
$TEXTSTYLE
  7
Standard
  9
$CLAYER
  8
0
  9
$CELTYPE
  6
ByLayer
  9
$CECOLOR
 62
   256
  9
$CELTSCALE
 40
1.0
  9
$DISPSILH
 70
     0
  9
$DIMSCALE
 40
1.0
  9
$DIMASZ
 40
0.18
  9
$DIMEXO
 40
0.0625
  9
$DIMDLI
 40
0.38
  9
$DIMRND
 40
0.0
  9
$DIMDLE
 40
0.0
  9
$DIMEXE
 40
0.18
  9
$DIMTP
 40
0.0
  9
$DIMTM
 40
0.0
  9
$DIMTXT
 40
0.18
  9
$DIMCEN
 40
0.09
  9
$DIMTSZ
 40
0.0
  9
$DIMTOL
 70
     0
  9
$DIMLIM
 70
     0
  9
$DIMTIH
 70
     1
  9
$DIMTOH
 70
     1
  9
$DIMSE1
 70
     0
  9
$DIMSE2
 70
     0
  9
$DIMTAD
 70
     0
  9
$DIMZIN
 70
     0
  9
$DIMBLK
  1

  9
$DIMASO
 70
     1
  9
$DIMSHO
 70
     1
  9
$DIMPOST
  1

  9
$DIMAPOST
  1

  9
$DIMALT
 70
     0
  9
$DIMALTD
 70
     2
  9
$DIMALTF
 40
25.4
  9
$DIMLFAC
 40
1.0
  9
$DIMTOFL
 70
     0
  9
$DIMTVP
 40
0.0
  9
$DIMTIX
 70
     0
  9
$DIMSOXD
 70
     0
  9
$DIMSAH
 70
     0
  9
$DIMBLK1
  1

  9
$DIMBLK2
  1

  9
$DIMSTYLE
  2
Standard
  9
$DIMCLRD
 70
     0
  9
$DIMCLRE
 70
     0
  9
$DIMCLRT
 70
     0
  9
$DIMTFAC
 40
1.0
  9
$DIMGAP
 40
0.09
  9
$DIMJUST
 70
     0
  9
$DIMSD1
 70
     0
  9
$DIMSD2
 70
     0
  9
$DIMTOLJ
 70
     1
  9
$DIMTZIN
 70
     0
  9
$DIMALTZ
 70
     0
  9
$DIMALTTZ
 70
     0
  9
$DIMUPT
 70
     0
  9
$DIMDEC
 70
     4
  9
$DIMTDEC
 70
     4
  9
$DIMALTU
 70
     2
  9
$DIMALTTD
 70
     2
  9
$DIMTXSTY
  7
Standard
  9
$DIMAUNIT
 70
     0
  9
$DIMADEC
 70
     0
  9
$DIMALTRND
 40
0.0
  9
$DIMAZIN
 70
     0
  9
$DIMDSEP
 70
    46
  9
$DIMATFIT
 70
     3
  9
$DIMFRAC
 70
     0
  9
$DIMLDRBLK
  1

  9
$DIMLUNIT
 70
     2
  9
$DIMLWD
 70
    -2
  9
$DIMLWE
 70
    -2
  9
$DIMTMOVE
 70
     0
  9
$DIMFXL
 40
1.0
  9
$DIMFXLON
 70
     0
  9
$DIMJOGANG
 40
0.7853981633974483
  9
$DIMTFILL
 70
     0
  9
$DIMTFILLCLR
 70
     0
  9
$DIMARCSYM
 70
     0
  9
$DIMLTYPE
  6

  9
$DIMLTEX1
  6

  9
$DIMLTEX2
  6

  9
$DIMTXTDIRECTION
 70
     0
  9
$LUNITS
 70
     2
  9
$LUPREC
 70
     4
  9
$SKETCHINC
 40
0.1
  9
$FILLETRAD
 40
0.0
  9
$AUNITS
 70
     0
  9
$AUPREC
 70
     0
  9
$MENU
  1
.
  9
$ELEVATION
 40
0.0
  9
$PELEVATION
 40
0.0
  9
$THICKNESS
 40
0.0
  9
$LIMCHECK
 70
     0
  9
$CHAMFERA
 40
0.0
  9
$CHAMFERB
 40
0.0
  9
$CHAMFERC
 40
0.0
  9
$CHAMFERD
 40
0.0
  9
$SKPOLY
 70
     0
  9
$TDCREATE
 40
2460439.550640602
  9
$TDUCREATE
 40
2460439.404807269
  9
$TDUPDATE
 40
2460439.550640637
  9
$TDUUPDATE
 40
2460439.404807303
  9
$TDINDWG
 40
0.0000000116
  9
$TDUSRTIMER
 40
0.0000000116
  9
$USRTIMER
 70
     1
  9
$ANGBASE
 50
0.0
  9
$ANGDIR
 70
     0
  9
$PDMODE
 70
     0
  9
$PDSIZE
 40
0.0
  9
$PLINEWID
 40
0.0
  9
$SPLFRAME
 70
     0
  9
$SPLINETYPE
 70
     6
  9
$SPLINESEGS
 70
     8
  9
$HANDSEED
  5
86
  9
$SURFTAB1
 70
     6
  9
$SURFTAB2
 70
     6
  9
$SURFTYPE
 70
     6
  9
$SURFU
 70
     6
  9
$SURFV
 70
     6
  9
$UCSBASE
  2

  9
$UCSNAME
  2

  9
$UCSORG
 10
0.0
 20
0.0
 30
0.0
  9
$UCSXDIR
 10
1.0
 20
0.0
 30
0.0
  9
$UCSYDIR
 10
0.0
 20
1.0
 30
0.0
  9
$UCSORTHOREF
  2

  9
$UCSORTHOVIEW
 70
     0
  9
$UCSORGTOP
 10
0.0
 20
0.0
 30
0.0
  9
$UCSORGBOTTOM
 10
0.0
 20
0.0
 30
0.0
  9
$UCSORGLEFT
 10
0.0
 20
0.0
 30
0.0
  9
$UCSORGRIGHT
 10
0.0
 20
0.0
 30
0.0
  9
$UCSORGFRONT
 10
0.0
 20
0.0
 30
0.0
  9
$UCSORGBACK
 10
0.0
 20
0.0
 30
0.0
  9
$PUCSBASE
  2

  9
$PUCSNAME
  2

  9
$PUCSORG
 10
0.0
 20
0.0
 30
0.0
  9
$PUCSXDIR
 10
1.0
 20
0.0
 30
0.0
  9
$PUCSYDIR
 10
0.0
 20
1.0
 30
0.0
  9
$PUCSORTHOREF
  2

  9
$PUCSORTHOVIEW
 70
     0
  9
$PUCSORGTOP
 10
0.0
 20
0.0
 30
0.0
  9
$PUCSORGBOTTOM
 10
0.0
 20
0.0
 30
0.0
  9
$PUCSORGLEFT
 10
0.0
 20
0.0
 30
0.0
  9
$PUCSORGRIGHT
 10
0.0
 20
0.0
 30
0.0
  9
$PUCSORGFRONT
 10
0.0
 20
0.0
 30
0.0
  9
$PUCSORGBACK
 10
0.0
 20
0.0
 30
0.0
  9
$USERI1
 70
     0
  9
$USERI2
 70
     0
  9
$USERI3
 70
     0
  9
$USERI4
 70
     0
  9
$USERI5
 70
     0
  9
$USERR1
 40
0.0
  9
$USERR2
 40
0.0
  9
$USERR3
 40
0.0
  9
$USERR4
 40
0.0
  9
$USERR5
 40
0.0
  9
$WORLDVIEW
 70
     1
  9
$SHADEDGE
 70
     3
  9
$SHADEDIF
 70
    70
  9
$TILEMODE
 70
     1
  9
$MAXACTVP
 70
    64
  9
$PINSBASE
 10
0.0
 20
0.0
 30
0.0
  9
$PLIMCHECK
 70
     0
  9
$PEXTMIN
 10
1.000000000000000E+20
 20
1.000000000000000E+20
 30
1.000000000000000E+20
  9
$PEXTMAX
 10
-1.000000000000000E+20
 20
-1.000000000000000E+20
 30
-1.000000000000000E+20
  9
$PLIMMIN
 10
0.0
 20
0.0
  9
$PLIMMAX
 10
12.0
 20
9.0
  9
$UNITMODE
 70
     0
  9
$VISRETAIN
 70
     1
  9
$PLINEGEN
 70
     0
  9
$PSLTSCALE
 70
     1
  9
$TREEDEPTH
 70
  3020
  9
$CMLSTYLE
  2
Standard
  9
$CMLJUST
 70
     0
  9
$CMLSCALE
 40
1.0
  9
$PROXYGRAPHICS
 70
     1
  9
$MEASUREMENT
 70
     0
  9
$CELWEIGHT
370
    -1
  9
$ENDCAPS
280
     0
  9
$JOINSTYLE
280
     0
  9
$LWDISPLAY
290
     0
  9
$INSUNITS
 70
     4
  9
$HYPERLINKBASE
  1

  9
$STYLESHEET
  1

  9
$XEDIT
290
     1
  9
$CEPSNTYPE
380
     0
  9
$PSTYLEMODE
290
     1
  9
$FINGERPRINTGUID
  2
{1217495b-1ec5-4918-babc-7f502506d01b}
  9
$VERSIONGUID
  2
{FAEB1C32-E019-11D5-929B-00C0DF256EC4}
  9
$EXTNAMES
290
     1
  9
$PSVPSCALE
 40
0.0
  9
$OLESTARTUP
290
     0
  9
$SORTENTS
280
   127
  9
$INDEXCTL
280
     0
  9
$HIDETEXT
280
     1
  9
$XCLIPFRAME
280
     2
  9
$HALOGAP
280
     0
  9
$OBSCOLOR
 70
   257
  9
$OBSLTYPE
280
     0
  9
$INTERSECTIONDISPLAY
280
     0
  9
$INTERSECTIONCOLOR
 70
   257
  9
$DIMASSOC
280
     2
  9
$PROJECTNAME
  1

  9
$CAMERADISPLAY
290
     0
  9
$LENSLENGTH
 40
50.0
  9
$CAMERAHEIGHT
 40
0.0
  9
$STEPSPERSEC
 40
2.0
  9
$STEPSIZE
 40
6.0
  9
$3DDWFPREC
 40
2.0
  9
$PSOLWIDTH
 40
0.25
  9
$PSOLHEIGHT
 40
4.0
  9
$LOFTANG1
 40
1.570796326794897
  9
$LOFTANG2
 40
1.570796326794897
  9
$LOFTMAG1
 40
0.0
  9
$LOFTMAG2
 40
0.0
  9
$LOFTPARAM
 70
     7
  9
$LOFTNORMALS
280
     1
  9
$LATITUDE
 40
37.795
  9
$LONGITUDE
 40
-122.394
  9
$NORTHDIRECTION
 40
0.0
  9
$TIMEZONE
 70
 -8000
  9
$LIGHTGLYPHDISPLAY
280
     1
  9
$TILEMODELIGHTSYNCH
280
     1
  9
$CMATERIAL
347
44
  9
$SOLIDHIST
280
     0
  9
$SHOWHIST
280
     1
  9
$DWFFRAME
280
     2
  9
$DGNFRAME
280
     2
  9
$REALWORLDSCALE
290
     1
  9
$INTERFERECOLOR
 62
   256
  9
$CSHADOW
280
     0
  9
$SHADOWPLANELOCATION
 40
0.0
  0
ENDSEC
  0
SECTION
  2
CLASSES
  0
CLASS
  1
ACDBDICTIONARYWDFLT
  2
AcDbDictionaryWithDefault
  3
ObjectDBX Classes
 90
        0
 91
        3
280
     0
281
     0
  0
CLASS
  1
VISUALSTYLE
  2
AcDbVisualStyle
  3
ObjectDBX Classes
 90
     4095
 91
        3
280
     0
281
     0
  0
CLASS
  1
MATERIAL
  2
AcDbMaterial
  3
ObjectDBX Classes
 90
     1153
 91
        3
280
     0
281
     0
  0
CLASS
  1
SCALE
  2
AcDbScale
  3
ObjectDBX Classes
 90
     1153
 91
        3
280
     0
281
     0
  0
CLASS
  1
TABLESTYLE
  2
AcDbTableStyle
  3
ObjectDBX Classes
 90
     4095
 91
        3
280
     0
281
     0
  0
CLASS
  1
MLEADERSTYLE
  2
AcDbMLeaderStyle
  3
ACDB_MLEADERSTYLE_CLASS
 90
     4095
 91
        3
280
     0
281
     0
  0
CLASS
  1
SUN
  2
AcDbSun
  3
SCENEOE
 90
     1153
 91
        3
280
     0
281
     0
  0
CLASS
  1
DICTIONARYVAR
  2
AcDbDictionaryVar
  3
ObjectDBX Classes
 90
        0
 91
        3
280
     0
281
     0
  0
CLASS
  1
CELLSTYLEMAP
  2
AcDbCellStyleMap
  3
ObjectDBX Classes
 90
     1152
 91
        3
280
     0
281
     0
  0
ENDSEC
  0
SECTION
  2
TABLES
  0
TABLE
  2
VPORT
  5
8
330
0
100
AcDbSymbolTable
 70
     1
  0
VPORT
  5
29
330
8
100
AcDbSymbolTableRecord
100
AcDbViewportTableRecord
  2
*Active
 70
     0
 10
0.0
 20
0.0
 11
1.0
 21
1.0
 12
10.42990654205607
 22
4.5
 13
0.0
 23
0.0
 14
0.5
 24
0.5
 15
0.5
 25
0.5
 16
0.0
 26
0.0
 36
1.0
 17
0.0
 27
0.0
 37
0.0
 40
9.0
 41
1.972972972850329
 42
50.0
 43
0.0
 44
0.0
 50
0.0
 51
0.0
 71
     0
 72
   100
 73
     1
 74
     3
 75
     0
 76
     0
 77
     0
 78
     0
281
     0
 65
     1
110
0.0
120
0.0
130
0.0
111
1.0
121
0.0
131
0.0
112
0.0
122
1.0
132
0.0
 79
     0
146
0.0
348
2F
 60
     3
 61
     5
292
     1
282
     1
141
0.0
142
0.0
 63
   250
361
5D
  0
ENDTAB
  0
TABLE
  2
LTYPE
  5
5
330
0
100
AcDbSymbolTable
 70
     1
  0
LTYPE
  5
14
330
5
100
AcDbSymbolTableRecord
100
AcDbLinetypeTableRecord
  2
ByBlock
 70
     0
  3

 72
    65
 73
     0
 40
0.0
  0
LTYPE
  5
15
330
5
100
AcDbSymbolTableRecord
100
AcDbLinetypeTableRecord
  2
ByLayer
 70
     0
  3

 72
    65
 73
     0
 40
0.0
  0
LTYPE
  5
16
330
5
100
AcDbSymbolTableRecord
100
AcDbLinetypeTableRecord
  2
Continuous
 70
     0
  3
Solid line
 72
    65
 73
     0
 40
0.0
  0
ENDTAB
  0
TABLE
  2
LAYER
  5
2
330
0
100
AcDbSymbolTable
 70
     2
  0
LAYER
  5
10
330
2
100
AcDbSymbolTableRecord
100
AcDbLayerTableRecord
  2
0
 70
     0
 62
     7
  6
Continuous
370
    -3
390
F
347
46
348
0
  0
LAYER
  5
5F
330
2
100
AcDbSymbolTableRecord
100
AcDbLayerTableRecord
  2
Layer 1
 70
     0
 62
     7
  6
Continuous
370
    -3
390
F
347
46
348
0
  0
ENDTAB
  0
TABLE
  2
STYLE
  5
3
330
0
100
AcDbSymbolTable
 70
     1
  0
STYLE
  5
11
330
3
100
AcDbSymbolTableRecord
100
AcDbTextStyleTableRecord
  2
Standard
 70
     0
 40
0.0
 41
1.0
 50
0.0
 71
     0
 42
0.2
  3
txt
  4

  0
ENDTAB
  0
TABLE
  2
VIEW
  5
6
330
0
100
AcDbSymbolTable
 70
     0
  0
ENDTAB
  0
TABLE
  2
UCS
  5
7
330
0
100
AcDbSymbolTable
 70
     0
  0
ENDTAB
  0
TABLE
  2
APPID
  5
9
330
0
100
AcDbSymbolTable
 70
     2
  0
APPID
  5
12
330
9
100
AcDbSymbolTableRecord
100
AcDbRegAppTableRecord
  2
ACAD
 70
     0
  0
APPID
  5
5E
330
9
100
AcDbSymbolTableRecord
100
AcDbRegAppTableRecord
  2
ODA
 70
     0
  0
ENDTAB
  0
TABLE
  2
DIMSTYLE
  5
A
330
0
100
AcDbSymbolTable
 70
     1
100
AcDbDimStyleTable
  0
DIMSTYLE
105
27
330
A
100
AcDbSymbolTableRecord
100
AcDbDimStyleTableRecord
  2
Standard
 70
     0
178
     0
340
11
  0
ENDTAB
  0
TABLE
  2
BLOCK_RECORD
  5
1
330
0
100
AcDbSymbolTable
 70
     1
  0
BLOCK_RECORD
  5
1F
330
1
100
AcDbSymbolTableRecord
100
AcDbBlockTableRecord
  2
*Model_Space
340
22
 70
     0
280
     1
281
     0
  0
BLOCK_RECORD
  5
1B
330
1
100
AcDbSymbolTableRecord
100
AcDbBlockTableRecord
  2
*Paper_Space
340
1E
 70
     0
280
     1
281
     0
  0
BLOCK_RECORD
  5
23
330
1
100
AcDbSymbolTableRecord
100
AcDbBlockTableRecord
  2
*Paper_Space0
340
26
 70
     0
280
     1
281
     0
  0
ENDTAB
  0
ENDSEC
  0
SECTION
  2
BLOCKS
  0
BLOCK
  5
20
330
1F
100
AcDbEntity
  8
0
100
AcDbBlockBegin
  2
*Model_Space
 70
     0
 10
0.0
 20
0.0
 30
0.0
  3
*Model_Space
  1

  0
ENDBLK
  5
21
330
1F
100
AcDbEntity
  8
0
100
AcDbBlockEnd
  0
BLOCK
  5
1C
330
1B
100
AcDbEntity
 67
     1
  8
0
100
AcDbBlockBegin
  2
*Paper_Space
 70
     0
 10
0.0
 20
0.0
 30
0.0
  3
*Paper_Space
  1

  0
ENDBLK
  5
1D
330
1B
100
AcDbEntity
 67
     1
  8
0
100
AcDbBlockEnd
  0
BLOCK
  5
24
330
23
100
AcDbEntity
  8
0
100
AcDbBlockBegin
  2
*Paper_Space0
 70
     0
 10
0.0
 20
0.0
 30
0.0
  3
*Paper_Space0
  1

  0
ENDBLK
  5
25
330
23
100
AcDbEntity
  8
0
100
AcDbBlockEnd
  0
ENDSEC
  0
SECTION
  2
ENTITIES
  0
SPLINE
  5
60
330
1F
100
AcDbEntity
  8
Layer 1
 62
   250
370
    18
100
AcDbSpline
210
0.0
220
0.0
230
1.0
 70
    11
 71
     3
 72
    29
 73
    25
 74
     0
 42
0.0000000001
 43
0.0000000001
 40
0.0
 40
0.0
 40
0.0
 40
0.0
 40
0.125
 40
0.125
 40
0.125
 40
0.25
 40
0.25
 40
0.25
 40
0.375
 40
0.375
 40
0.375
 40
0.5
 40
0.5
 40
0.5
 40
0.625
 40
0.625
 40
0.625
 40
0.75
 40
0.75
 40
0.75
 40
0.875
 40
0.875
 40
0.875
 40
1.0
 40
1.0
 40
1.0
 40
1.0
 10
-21.3875
 20
24.4923
 30
0.0
 10
-21.3875
 20
24.4923
 30
0.0
 10
20.7627
 20
24.4923
 30
0.0
 10
20.7627
 20
24.4923
 30
0.0
 10
22.8694
 20
24.4923
 30
0.0
 10
24.5876
 20
22.7741
 30
0.0
 10
24.5876
 20
20.6674
 30
0.0
 10
24.5876
 20
20.6674
 30
0.0
 10
24.5876
 20
-21.4828
 30
0.0
 10
24.5876
 20
-21.4828
 30
0.0
 10
24.5876
 20
-23.5895
 30
0.0
 10
22.8694
 20
-25.3077
 30
0.0
 10
20.7627
 20
-25.3077
 30
0.0
 10
20.7627
 20
-25.3077
 30
0.0
 10
-21.3875
 20
-25.3077
 30
0.0
 10
-21.3875
 20
-25.3077
 30
0.0
 10
-23.4942
 20
-25.3077
 30
0.0
 10
-25.2124
 20
-23.5895
 30
0.0
 10
-25.2124
 20
-21.4828
 30
0.0
 10
-25.2124
 20
-21.4828
 30
0.0
 10
-25.2124
 20
20.6674
 30
0.0
 10
-25.2124
 20
20.6674
 30
0.0
 10
-25.2124
 20
22.7741
 30
0.0
 10
-23.4942
 20
24.4923
 30
0.0
 10
-21.3875
 20
24.4923
 30
0.0
  0
SPLINE
  5
61
330
1F
100
AcDbEntity
  8
Layer 1
 62
   240
100
AcDbSpline
210
0.0
220
0.0
230
1.0
 70
    11
 71
     3
 72
    50
 73
    46
 74
     0
 42
0.0000000001
 43
0.0000000001
 40
0.0
 40
0.0
 40
0.0
 40
0.0
 40
0.0666666666666667
 40
0.0666666666666667
 40
0.0666666666666667
 40
0.1333333333333333
 40
0.1333333333333333
 40
0.1333333333333333
 40
0.2
 40
0.2
 40
0.2
 40
0.2666666666666667
 40
0.2666666666666667
 40
0.2666666666666667
 40
0.3333333333333333
 40
0.3333333333333333
 40
0.3333333333333333
 40
0.4
 40
0.4
 40
0.4
 40
0.4666666666666667
 40
0.4666666666666667
 40
0.4666666666666667
 40
0.5333333333333333
 40
0.5333333333333333
 40
0.5333333333333333
 40
0.6
 40
0.6
 40
0.6
 40
0.6666666666666666
 40
0.6666666666666666
 40
0.6666666666666666
 40
0.7333333333333333
 40
0.7333333333333333
 40
0.7333333333333333
 40
0.8
 40
0.8
 40
0.8
 40
0.8666666666666667
 40
0.8666666666666667
 40
0.8666666666666667
 40
0.9333333333333333
 40
0.9333333333333333
 40
0.9333333333333333
 40
1.0
 40
1.0
 40
1.0
 40
1.0
 10
-14.593
 20
-8.222
 30
0.0
 10
-14.593
 20
-8.222
 30
0.0
 10
-14.5609
 20
-8.1858
 30
0.0
 10
-14.5609
 20
-8.1858
 30
0.0
 10
-14.424
 20
-8.0311
 30
0.0
 10
-14.4141
 20
-7.782
 30
0.0
 10
-14.5379
 20
-7.6134
 30
0.0
 10
-14.5379
 20
-7.6134
 30
0.0
 10
-14.8683
 20
-7.1644
 30
0.0
 10
-14.8683
 20
-7.1644
 30
0.0
 10
-15.0014
 20
-6.9835
 30
0.0
 10
-15.2378
 20
-6.964
 30
0.0
 10
-15.3922
 20
-7.1201
 30
0.0
 10
-15.3922
 20
-7.1201
 30
0.0
 10
-15.6761
 20
-7.4068
 30
0.0
 10
-15.6761
 20
-7.4068
 30
0.0
 10
-15.774
 20
-7.5058
 30
0.0
 10
-15.8183
 20
-7.6555
 30
0.0
 10
-15.7944
 20
-7.8021
 30
0.0
 10
-15.6658
 20
-8.5928
 30
0.0
 10
-15.0914
 20
-11.0418
 30
0.0
 10
-12.9087
 20
-11.0418
 30
0.0
 10
-12.8595
 20
-11.0418
 30
0.0
 10
-12.7189
 20
-10.9112
 30
0.0
 10
-12.5863
 20
-10.7753
 30
0.0
 10
-12.4307
 20
-10.6166
 30
0.0
 10
-12.4201
 20
-10.3417
 30
0.0
 10
-12.5636
 20
-10.1688
 30
0.0
 10
-12.5636
 20
-10.1688
 30
0.0
 10
-12.976
 20
-9.6724
 30
0.0
 10
-12.976
 20
-9.6724
 30
0.0
 10
-13.1184
 20
-9.501
 30
0.0
 10
-13.3547
 20
-9.4978
 30
0.0
 10
-13.5012
 20
-9.6661
 30
0.0
 10
-13.5012
 20
-9.6661
 30
0.0
 10
-13.5012
 20
-9.6661
 30
0.0
 10
-13.5012
 20
-9.6661
 30
0.0
 10
-13.6315
 20
-9.8154
 30
0.0
 10
-13.837
 20
-9.8326
 30
0.0
 10
-13.9835
 20
-9.7044
 30
0.0
 10
-14.16
 20
-9.5508
 30
0.0
 10
-14.3995
 20
-9.2635
 30
0.0
 10
-14.6557
 20
-8.7301
 30
0.0
 10
-14.7357
 20
-8.5641
 30
0.0
 10
-14.7107
 20
-8.3554
 30
0.0
 10
-14.593
 20
-8.222
 30
0.0
  0
SPLINE
  5
62
330
1F
100
AcDbEntity
  8
Layer 1
 62
   240
100
AcDbSpline
210
0.0
220
0.0
230
1.0
 70
    11
 71
     3
 72
    41
 73
    37
 74
     0
 42
0.0000000001
 43
0.0000000001
 40
0.0
 40
0.0
 40
0.0
 40
0.0
 40
0.0833333333333333
 40
0.0833333333333333
 40
0.0833333333333333
 40
0.1666666666666667
 40
0.1666666666666667
 40
0.1666666666666667
 40
0.25
 40
0.25
 40
0.25
 40
0.3333333333333333
 40
0.3333333333333333
 40
0.3333333333333333
 40
0.4166666666666666
 40
0.4166666666666666
 40
0.4166666666666666
 40
0.5
 40
0.5
 40
0.5
 40
0.5833333333333333
 40
0.5833333333333333
 40
0.5833333333333333
 40
0.6666666666666666
 40
0.6666666666666666
 40
0.6666666666666666
 40
0.75
 40
0.75
 40
0.75
 40
0.8333333333333333
 40
0.8333333333333333
 40
0.8333333333333333
 40
0.9166666666666666
 40
0.9166666666666666
 40
0.9166666666666666
 40
1.0
 40
1.0
 40
1.0
 40
1.0
 10
-8.0887
 20
-10.0559
 30
0.0
 10
-8.0887
 20
-10.2545
 30
0.0
 10
-8.1448
 20
-10.4412
 30
0.0
 10
-8.256
 20
-10.6161
 30
0.0
 10
-8.3867
 20
-10.8201
 30
0.0
 10
-8.5507
 20
-10.9227
 30
0.0
 10
-8.7461
 20
-10.9227
 30
0.0
 10
-8.9739
 20
-10.9227
 30
0.0
 10
-9.1477
 20
-10.8126
 30
0.0
 10
-9.2674
 20
-10.5924
 30
0.0
 10
-9.4002
 20
-10.8428
 30
0.0
 10
-9.5978
 20
-10.9681
 30
0.0
 10
-9.859
 20
-10.9681
 30
0.0
 10
-10.0501
 20
-10.9681
 30
0.0
 10
-10.2023
 20
-10.8881
 30
0.0
 10
-10.3135
 20
-10.7284
 30
0.0
 10
-10.4149
 20
-10.5869
 30
0.0
 10
-10.4657
 20
-10.4164
 30
0.0
 10
-10.4657
 20
-10.2156
 30
0.0
 10
-10.4657
 20
-9.6791
 30
0.0
 10
-10.172
 20
-8.8944
 30
0.0
 10
-9.5838
 20
-7.8624
 30
0.0
 10
-9.5838
 20
-7.8624
 30
0.0
 10
-9.7036
 20
-7.7167
 30
0.0
 10
-9.7036
 20
-7.7167
 30
0.0
 10
-9.7036
 20
-7.7167
 30
0.0
 10
-9.4542
 20
-7.1985
 30
0.0
 10
-9.4542
 20
-7.1985
 30
0.0
 10
-9.1272
 20
-7.572
 30
0.0
 10
-8.8368
 20
-7.9725
 30
0.0
 10
-8.582
 20
-8.4032
 30
0.0
 10
-8.2528
 20
-8.957
 30
0.0
 10
-8.0887
 20
-9.4017
 30
0.0
 10
-8.0887
 20
-9.7374
 30
0.0
 10
-8.0887
 20
-9.7374
 30
0.0
 10
-8.0887
 20
-10.0559
 30
0.0
 10
-8.0887
 20
-10.0559
 30
0.0
  0
SPLINE
  5
63
330
1F
100
AcDbEntity
  8
Layer 1
 62
   240
100
AcDbSpline
210
0.0
220
0.0
230
1.0
 70
    11
 71
     3
 72
    56
 73
    52
 74
     0
 42
0.0000000001
 43
0.0000000001
 40
0.0
 40
0.0
 40
0.0
 40
0.0
 40
0.0588235294117647
 40
0.0588235294117647
 40
0.0588235294117647
 40
0.1176470588235294
 40
0.1176470588235294
 40
0.1176470588235294
 40
0.1764705882352941
 40
0.1764705882352941
 40
0.1764705882352941
 40
0.2352941176470588
 40
0.2352941176470588
 40
0.2352941176470588
 40
0.2941176470588235
 40
0.2941176470588235
 40
0.2941176470588235
 40
0.3529411764705882
 40
0.3529411764705882
 40
0.3529411764705882
 40
0.4117647058823529
 40
0.4117647058823529
 40
0.4117647058823529
 40
0.4705882352941176
 40
0.4705882352941176
 40
0.4705882352941176
 40
0.5294117647058824
 40
0.5294117647058824
 40
0.5294117647058824
 40
0.5882352941176471
 40
0.5882352941176471
 40
0.5882352941176471
 40
0.6470588235294118
 40
0.6470588235294118
 40
0.6470588235294118
 40
0.7058823529411764
 40
0.7058823529411764
 40
0.7058823529411764
 40
0.7647058823529411
 40
0.7647058823529411
 40
0.7647058823529411
 40
0.8235294117647058
 40
0.8235294117647058
 40
0.8235294117647058
 40
0.8823529411764706
 40
0.8823529411764706
 40
0.8823529411764706
 40
0.9411764705882353
 40
0.9411764705882353
 40
0.9411764705882353
 40
1.0
 40
1.0
 40
1.0
 40
1.0
 10
13.2429
 20
-7.735
 30
0.0
 10
13.1479
 20
-7.8516
 30
0.0
 10
13.0529
 20
-7.9887
 30
0.0
 10
12.958
 20
-8.1463
 30
0.0
 10
12.7388
 20
-8.5133
 30
0.0
 10
12.5639
 20
-8.8987
 30
0.0
 10
12.4333
 20
-9.3013
 30
0.0
 10
12.3405
 20
-9.5917
 30
0.0
 10
12.2541
 20
-9.9857
 30
0.0
 10
12.1742
 20
-10.4834
 30
0.0
 10
12.1235
 20
-10.7975
 30
0.0
 10
12.0674
 20
-10.955
 30
0.0
 10
12.0059
 20
-10.955
 30
0.0
 10
11.9529
 20
-10.955
 30
0.0
 10
11.9022
 20
-10.805
 30
0.0
 10
11.8515
 20
-10.506
 30
0.0
 10
11.7716
 20
-10.0321
 30
0.0
 10
11.6756
 20
-9.6262
 30
0.0
 10
11.5633
 20
-9.2884
 30
0.0
 10
11.3398
 20
-8.618
 30
0.0
 10
11.0559
 20
-8.1161
 30
0.0
 10
10.7126
 20
-7.7803
 30
0.0
 10
10.7126
 20
-7.7803
 30
0.0
 10
10.8864
 20
-7.2708
 30
0.0
 10
10.8864
 20
-7.2708
 30
0.0
 10
10.9058
 20
-7.2191
 30
0.0
 10
10.9188
 20
-7.191
 30
0.0
 10
10.9274
 20
-7.1888
 30
0.0
 10
10.9383
 20
-7.1888
 30
0.0
 10
10.962
 20
-7.2115
 30
0.0
 10
11.0008
 20
-7.2557
 30
0.0
 10
11.2577
 20
-7.5482
 30
0.0
 10
11.4931
 20
-7.993
 30
0.0
 10
11.7058
 20
-8.59
 30
0.0
 10
11.8893
 20
-9.1049
 30
0.0
 10
11.9907
 20
-9.5118
 30
0.0
 10
12.0091
 20
-9.8109
 30
0.0
 10
12.0533
 20
-9.4308
 30
0.0
 10
12.1451
 20
-9.0261
 30
0.0
 10
12.2843
 20
-8.5964
 30
0.0
 10
12.4786
 20
-7.9973
 30
0.0
 10
12.7162
 20
-7.5374
 30
0.0
 10
12.999
 20
-7.2168
 30
0.0
 10
13.0313
 20
-7.1813
 30
0.0
 10
13.0518
 20
-7.1618
 30
0.0
 10
13.0626
 20
-7.1596
 30
0.0
 10
13.0734
 20
-7.1661
 30
0.0
 10
13.0843
 20
-7.1899
 30
0.0
 10
13.0972
 20
-7.232
 30
0.0
 10
13.0972
 20
-7.232
 30
0.0
 10
13.2429
 20
-7.735
 30
0.0
 10
13.2429
 20
-7.735
 30
0.0
  0
SPLINE
  5
64
330
1F
100
AcDbEntity
  8
Layer 1
 62
   240
100
AcDbSpline
210
0.0
220
0.0
230
1.0
 70
    11
 71
     3
 72
    56
 73
    52
 74
     0
 42
0.0000000001
 43
0.0000000001
 40
0.0
 40
0.0
 40
0.0
 40
0.0
 40
0.0588235294117647
 40
0.0588235294117647
 40
0.0588235294117647
 40
0.1176470588235294
 40
0.1176470588235294
 40
0.1176470588235294
 40
0.1764705882352941
 40
0.1764705882352941
 40
0.1764705882352941
 40
0.2352941176470588
 40
0.2352941176470588
 40
0.2352941176470588
 40
0.2941176470588235
 40
0.2941176470588235
 40
0.2941176470588235
 40
0.3529411764705882
 40
0.3529411764705882
 40
0.3529411764705882
 40
0.4117647058823529
 40
0.4117647058823529
 40
0.4117647058823529
 40
0.4705882352941176
 40
0.4705882352941176
 40
0.4705882352941176
 40
0.5294117647058824
 40
0.5294117647058824
 40
0.5294117647058824
 40
0.5882352941176471
 40
0.5882352941176471
 40
0.5882352941176471
 40
0.6470588235294118
 40
0.6470588235294118
 40
0.6470588235294118
 40
0.7058823529411764
 40
0.7058823529411764
 40
0.7058823529411764
 40
0.7647058823529411
 40
0.7647058823529411
 40
0.7647058823529411
 40
0.8235294117647058
 40
0.8235294117647058
 40
0.8235294117647058
 40
0.8823529411764706
 40
0.8823529411764706
 40
0.8823529411764706
 40
0.9411764705882353
 40
0.9411764705882353
 40
0.9411764705882353
 40
1.0
 40
1.0
 40
1.0
 40
1.0
 10
7.6696
 20
-10.3829
 30
0.0
 10
7.7689
 20
-10.261
 30
0.0
 10
7.865
 20
-10.1239
 30
0.0
 10
7.9578
 20
-9.9727
 30
0.0
 10
8.1748
 20
-9.6165
 30
0.0
 10
8.3486
 20
-9.2322
 30
0.0
 10
8.4792
 20
-8.8188
 30
0.0
 10
8.5763
 20
-8.5155
 30
0.0
 10
8.6627
 20
-8.1204
 30
0.0
 10
8.7383
 20
-7.6335
 30
0.0
 10
8.7868
 20
-7.3216
 30
0.0
 10
8.843
 20
-7.1661
 30
0.0
 10
8.9066
 20
-7.1661
 30
0.0
 10
8.9584
 20
-7.1661
 30
0.0
 10
9.0103
 20
-7.3162
 30
0.0
 10
9.061
 20
-7.6152
 30
0.0
 10
9.1409
 20
-8.0891
 30
0.0
 10
9.237
 20
-8.495
 30
0.0
 10
9.3493
 20
-8.8318
 30
0.0
 10
9.5727
 20
-9.5021
 30
0.0
 10
9.8566
 20
-10.004
 30
0.0
 10
10.2031
 20
-10.3398
 30
0.0
 10
10.2031
 20
-10.3398
 30
0.0
 10
10.026
 20
-10.8482
 30
0.0
 10
10.026
 20
-10.8482
 30
0.0
 10
10.0066
 20
-10.9011
 30
0.0
 10
9.9915
 20
-10.927
 30
0.0
 10
9.9818
 20
-10.927
 30
0.0
 10
9.9667
 20
-10.9205
 30
0.0
 10
9.943
 20
-10.9
 30
0.0
 10
9.9117
 20
-10.8644
 30
0.0
 10
9.6547
 20
-10.5772
 30
0.0
 10
9.4194
 20
-10.1325
 30
0.0
 10
9.2067
 20
-9.5291
 30
0.0
 10
9.0254
 20
-9.0174
 30
0.0
 10
8.9239
 20
-8.6105
 30
0.0
 10
8.9034
 20
-8.3082
 30
0.0
 10
8.8602
 20
-8.6838
 30
0.0
 10
8.7706
 20
-9.0887
 30
0.0
 10
8.6314
 20
-9.5226
 30
0.0
 10
8.4392
 20
-10.1239
 30
0.0
 10
8.1996
 20
-10.5827
 30
0.0
 10
7.9136
 20
-10.9011
 30
0.0
 10
7.8833
 20
-10.9345
 30
0.0
 10
7.8639
 20
-10.9529
 30
0.0
 10
7.8531
 20
-10.955
 30
0.0
 10
7.8423
 20
-10.9486
 30
0.0
 10
7.8304
 20
-10.9248
 30
0.0
 10
7.8185
 20
-10.8828
 30
0.0
 10
7.8185
 20
-10.8828
 30
0.0
 10
7.6696
 20
-10.3829
 30
0.0
 10
7.6696
 20
-10.3829
 30
0.0
  0
SPLINE
  5
65
330
1F
100
AcDbEntity
  8
Layer 1
 62
   240
100
AcDbSpline
210
0.0
220
0.0
230
1.0
 70
    11
 71
     3
 72
    89
 73
    85
 74
     0
 42
0.0000000001
 43
0.0000000001
 40
0.0
 40
0.0
 40
0.0
 40
0.0
 40
0.0357142857142857
 40
0.0357142857142857
 40
0.0357142857142857
 40
0.0714285714285714
 40
0.0714285714285714
 40
0.0714285714285714
 40
0.1071428571428571
 40
0.1071428571428571
 40
0.1071428571428571
 40
0.1428571428571428
 40
0.1428571428571428
 40
0.1428571428571428
 40
0.1785714285714285
 40
0.1785714285714285
 40
0.1785714285714285
 40
0.2142857142857143
 40
0.2142857142857143
 40
0.2142857142857143
 40
0.25
 40
0.25
 40
0.25
 40
0.2857142857142857
 40
0.2857142857142857
 40
0.2857142857142857
 40
0.3214285714285714
 40
0.3214285714285714
 40
0.3214285714285714
 40
0.3571428571428571
 40
0.3571428571428571
 40
0.3571428571428571
 40
0.3928571428571428
 40
0.3928571428571428
 40
0.3928571428571428
 40
0.4285714285714285
 40
0.4285714285714285
 40
0.4285714285714285
 40
0.4642857142857142
 40
0.4642857142857142
 40
0.4642857142857142
 40
0.5
 40
0.5
 40
0.5
 40
0.5357142857142857
 40
0.5357142857142857
 40
0.5357142857142857
 40
0.5714285714285714
 40
0.5714285714285714
 40
0.5714285714285714
 40
0.6071428571428571
 40
0.6071428571428571
 40
0.6071428571428571
 40
0.6428571428571428
 40
0.6428571428571428
 40
0.6428571428571428
 40
0.6785714285714285
 40
0.6785714285714285
 40
0.6785714285714285
 40
0.7142857142857142
 40
0.7142857142857142
 40
0.7142857142857142
 40
0.75
 40
0.75
 40
0.75
 40
0.7857142857142857
 40
0.7857142857142857
 40
0.7857142857142857
 40
0.8214285714285714
 40
0.8214285714285714
 40
0.8214285714285714
 40
0.8571428571428571
 40
0.8571428571428571
 40
0.8571428571428571
 40
0.8928571428571428
 40
0.8928571428571428
 40
0.8928571428571428
 40
0.9285714285714285
 40
0.9285714285714285
 40
0.9285714285714285
 40
0.9642857142857142
 40
0.9642857142857142
 40
0.9642857142857142
 40
1.0
 40
1.0
 40
1.0
 40
1.0
 10
7.092
 20
-8.1884
 30
0.0
 10
7.092
 20
-8.2952
 30
0.0
 10
7.0143
 20
-8.4043
 30
0.0
 10
6.8589
 20
-8.5155
 30
0.0
 10
6.6851
 20
-8.6396
 30
0.0
 10
6.4918
 20
-8.7011
 30
0.0
 10
6.277
 20
-8.7011
 30
0.0
 10
6.0277
 20
-8.7011
 30
0.0
 10
5.828
 20
-8.6504
 30
0.0
 10
5.6758
 20
-8.549
 30
0.0
 10
5.7643
 20
-8.699
 30
0.0
 10
5.8441
 20
-8.917
 30
0.0
 10
5.9165
 20
-9.2042
 30
0.0
 10
5.9985
 20
-9.5356
 30
0.0
 10
6.0396
 20
-9.8583
 30
0.0
 10
6.0396
 20
-10.1735
 30
0.0
 10
6.0396
 20
-10.4769
 30
0.0
 10
6.0374
 20
-10.6507
 30
0.0
 10
6.0331
 20
-10.696
 30
0.0
 10
6.0158
 20
-10.8687
 30
0.0
 10
5.9672
 20
-10.955
 30
0.0
 10
5.8874
 20
-10.955
 30
0.0
 10
5.8409
 20
-10.955
 30
0.0
 10
5.8096
 20
-10.8849
 30
0.0
 10
5.7923
 20
-10.7457
 30
0.0
 10
5.7805
 20
-10.6367
 30
0.0
 10
5.7556
 20
-10.4391
 30
0.0
 10
5.7201
 20
-10.1541
 30
0.0
 10
5.6823
 20
-9.8821
 30
0.0
 10
5.6045
 20
-9.5723
 30
0.0
 10
5.4858
 20
-9.2236
 30
0.0
 10
5.3001
 20
-8.6753
 30
0.0
 10
5.0486
 20
-8.1916
 30
0.0
 10
4.7302
 20
-7.7718
 30
0.0
 10
4.7302
 20
-7.7718
 30
0.0
 10
5.0303
 20
-7.2396
 30
0.0
 10
5.0303
 20
-7.2396
 30
0.0
 10
5.1404
 20
-7.4025
 30
0.0
 10
5.3055
 20
-7.6217
 30
0.0
 10
5.5268
 20
-7.898
 30
0.0
 10
5.5398
 20
-7.6627
 30
0.0
 10
5.6207
 20
-7.4694
 30
0.0
 10
5.7708
 20
-7.3173
 30
0.0
 10
5.9208
 20
-7.165
 30
0.0
 10
6.1108
 20
-7.0884
 30
0.0
 10
6.3429
 20
-7.0884
 30
0.0
 10
6.4778
 20
-7.0884
 30
0.0
 10
6.6052
 20
-7.1294
 30
0.0
 10
6.7261
 20
-7.2126
 30
0.0
 10
6.8211
 20
-7.2784
 30
0.0
 10
6.8815
 20
-7.3431
 30
0.0
 10
6.9096
 20
-7.4069
 30
0.0
 10
6.9215
 20
-7.4381
 30
0.0
 10
6.9193
 20
-7.4619
 30
0.0
 10
6.901
 20
-7.4781
 30
0.0
 10
6.8837
 20
-7.4943
 30
0.0
 10
6.8589
 20
-7.4964
 30
0.0
 10
6.8265
 20
-7.4867
 30
0.0
 10
6.7066
 20
-7.4457
 30
0.0
 10
6.5588
 20
-7.4252
 30
0.0
 10
6.3839
 20
-7.4252
 30
0.0
 10
6.2425
 20
-7.4252
 30
0.0
 10
6.1259
 20
-7.4651
 30
0.0
 10
6.0331
 20
-7.5439
 30
0.0
 10
5.9402
 20
-7.6238
 30
0.0
 10
5.8939
 20
-7.7329
 30
0.0
 10
5.8939
 20
-7.8732
 30
0.0
 10
5.8939
 20
-7.8958
 30
0.0
 10
5.896
 20
-7.9163
 30
0.0
 10
5.9003
 20
-7.9336
 30
0.0
 10
5.923
 20
-8.0286
 30
0.0
 10
5.991
 20
-8.1064
 30
0.0
 10
6.1022
 20
-8.1646
 30
0.0
 10
6.1993
 20
-8.2164
 30
0.0
 10
6.303
 20
-8.2434
 30
0.0
 10
6.413
 20
-8.2478
 30
0.0
 10
6.6106
 20
-8.2542
 30
0.0
 10
6.7757
 20
-8.2187
 30
0.0
 10
6.9096
 20
-8.1409
 30
0.0
 10
6.9592
 20
-8.1118
 30
0.0
 10
7.0002
 20
-8.0966
 30
0.0
 10
7.0294
 20
-8.0966
 30
0.0
 10
7.0715
 20
-8.0966
 30
0.0
 10
7.092
 20
-8.1269
 30
0.0
 10
7.092
 20
-8.1884
 30
0.0
  0
SPLINE
  5
66
330
1F
100
AcDbEntity
  8
Layer 1
 62
   240
100
AcDbSpline
210
0.0
220
0.0
230
1.0
 70
    11
 71
     3
 72
    29
 73
    25
 74
     0
 42
0.0000000001
 43
0.0000000001
 40
0.0
 40
0.0
 40
0.0
 40
0.0
 40
0.125
 40
0.125
 40
0.125
 40
0.25
 40
0.25
 40
0.25
 40
0.375
 40
0.375
 40
0.375
 40
0.5
 40
0.5
 40
0.5
 40
0.625
 40
0.625
 40
0.625
 40
0.75
 40
0.75
 40
0.75
 40
0.875
 40
0.875
 40
0.875
 40
1.0
 40
1.0
 40
1.0
 40
1.0
 10
3.371
 20
-10.0602
 30
0.0
 10
3.371
 20
-10.6528
 30
0.0
 10
3.3053
 20
-10.9486
 30
0.0
 10
3.1746
 20
-10.9486
 30
0.0
 10
3.1109
 20
-10.9486
 30
0.0
 10
3.0732
 20
-10.8395
 30
0.0
 10
3.0602
 20
-10.6226
 30
0.0
 10
3.0591
 20
-10.4876
 30
0.0
 10
3.0591
 20
-10.3527
 30
0.0
 10
3.0602
 20
-10.2178
 30
0.0
 10
3.0494
 20
-9.9469
 30
0.0
 10
2.9997
 20
-9.6403
 30
0.0
 10
2.9091
 20
-9.3013
 30
0.0
 10
2.7471
 20
-8.6947
 30
0.0
 10
2.5215
 20
-8.1689
 30
0.0
 10
2.2311
 20
-7.7242
 30
0.0
 10
2.2311
 20
-7.7242
 30
0.0
 10
2.5528
 20
-7.2179
 30
0.0
 10
2.5528
 20
-7.2179
 30
0.0
 10
2.7633
 20
-7.5277
 30
0.0
 10
2.9469
 20
-7.9315
 30
0.0
 10
3.1023
 20
-8.4291
 30
0.0
 10
3.2815
 20
-9.0002
 30
0.0
 10
3.371
 20
-9.5442
 30
0.0
 10
3.371
 20
-10.0602
 30
0.0
  0
SPLINE
  5
67
330
1F
100
AcDbEntity
  8
Layer 1
 62
   240
100
AcDbSpline
210
0.0
220
0.0
230
1.0
 70
    11
 71
     3
 72
    53
 73
    49
 74
     0
 42
0.0000000001
 43
0.0000000001
 40
0.0
 40
0.0
 40
0.0
 40
0.0
 40
0.0625
 40
0.0625
 40
0.0625
 40
0.125
 40
0.125
 40
0.125
 40
0.1875
 40
0.1875
 40
0.1875
 40
0.25
 40
0.25
 40
0.25
 40
0.3125
 40
0.3125
 40
0.3125
 40
0.375
 40
0.375
 40
0.375
 40
0.4375
 40
0.4375
 40
0.4375
 40
0.5
 40
0.5
 40
0.5
 40
0.5625
 40
0.5625
 40
0.5625
 40
0.625
 40
0.625
 40
0.625
 40
0.6875
 40
0.6875
 40
0.6875
 40
0.75
 40
0.75
 40
0.75
 40
0.8125
 40
0.8125
 40
0.8125
 40
0.875
 40
0.875
 40
0.875
 40
0.9375
 40
0.9375
 40
0.9375
 40
1.0
 40
1.0
 40
1.0
 40
1.0
 10
0.8688
 20
-7.3496
 30
0.0
 10
0.8688
 20
-7.6487
 30
0.0
 10
0.7803
 20
-7.8969
 30
0.0
 10
0.6033
 20
-8.0912
 30
0.0
 10
0.4198
 20
-8.2909
 30
0.0
 10
0.178
 20
-8.3902
 30
0.0
 10
-0.121
 20
-8.3902
 30
0.0
 10
-0.2204
 20
-8.3902
 30
0.0
 10
-0.324
 20
-8.3794
 30
0.0
 10
-0.4308
 20
-8.3589
 30
0.0
 10
-0.3197
 20
-8.5975
 30
0.0
 10
-0.2214
 20
-8.8793
 30
0.0
 10
-0.1372
 20
-9.2063
 30
0.0
 10
-0.0379
 20
-9.5938
 30
0.0
 10
0.0117
 20
-9.9512
 30
0.0
 10
0.0117
 20
-10.2783
 30
0.0
 10
0.0117
 20
-10.7252
 30
0.0
 10
-0.0476
 20
-10.9486
 30
0.0
 10
-0.1653
 20
-10.9486
 30
0.0
 10
-0.2139
 20
-10.9486
 30
0.0
 10
-0.2462
 20
-10.8806
 30
0.0
 10
-0.2603
 20
-10.7435
 30
0.0
 10
-0.2603
 20
-10.7435
 30
0.0
 10
-0.3272
 20
-10.1228
 30
0.0
 10
-0.3272
 20
-10.1228
 30
0.0
 10
-0.3564
 20
-9.8497
 30
0.0
 10
-0.4438
 20
-9.5086
 30
0.0
 10
-0.5896
 20
-9.1016
 30
0.0
 10
-0.7623
 20
-8.6191
 30
0.0
 10
-1.0008
 20
-8.1636
 30
0.0
 10
-1.3041
 20
-7.7361
 30
0.0
 10
-1.3041
 20
-7.7361
 30
0.0
 10
-1.0105
 20
-7.2331
 30
0.0
 10
-1.0105
 20
-7.2331
 30
0.0
 10
-0.8605
 20
-7.4436
 30
0.0
 10
-0.7461
 20
-7.5839
 30
0.0
 10
-0.6683
 20
-7.654
 30
0.0
 10
-0.5183
 20
-7.7868
 30
0.0
 10
-0.3467
 20
-7.8527
 30
0.0
 10
-0.1534
 20
-7.8527
 30
0.0
 10
0.2395
 20
-7.8527
 30
0.0
 10
0.5105
 20
-7.6789
 30
0.0
 10
0.6594
 20
-7.3302
 30
0.0
 10
0.6994
 20
-7.2385
 30
0.0
 10
0.7425
 20
-7.1921
 30
0.0
 10
0.7889
 20
-7.1921
 30
0.0
 10
0.8419
 20
-7.1921
 30
0.0
 10
0.8688
 20
-7.2449
 30
0.0
 10
0.8688
 20
-7.3496
 30
0.0
  0
SPLINE
  5
68
330
1F
100
AcDbEntity
  8
Layer 1
 62
   240
100
AcDbSpline
210
0.0
220
0.0
230
1.0
 70
    11
 71
     3
 72
    44
 73
    40
 74
     0
 42
0.0000000001
 43
0.0000000001
 40
0.0
 40
0.0
 40
0.0
 40
0.0
 40
0.0769230769230769
 40
0.0769230769230769
 40
0.0769230769230769
 40
0.1538461538461539
 40
0.1538461538461539
 40
0.1538461538461539
 40
0.2307692307692308
 40
0.2307692307692308
 40
0.2307692307692308
 40
0.3076923076923077
 40
0.3076923076923077
 40
0.3076923076923077
 40
0.3846153846153846
 40
0.3846153846153846
 40
0.3846153846153846
 40
0.4615384615384616
 40
0.4615384615384616
 40
0.4615384615384616
 40
0.5384615384615385
 40
0.5384615384615385
 40
0.5384615384615385
 40
0.6153846153846154
 40
0.6153846153846154
 40
0.6153846153846154
 40
0.6923076923076923
 40
0.6923076923076923
 40
0.6923076923076923
 40
0.7692307692307693
 40
0.7692307692307693
 40
0.7692307692307693
 40
0.8461538461538463
 40
0.8461538461538463
 40
0.8461538461538463
 40
0.9230769230769231
 40
0.9230769230769231
 40
0.9230769230769231
 40
1.0
 40
1.0
 40
1.0
 40
1.0
 10
-2.1645
 20
-10.3387
 30
0.0
 10
-2.1645
 20
-10.3387
 30
0.0
 10
-2.2854
 20
-10.8925
 30
0.0
 10
-2.2854
 20
-10.8925
 30
0.0
 10
-2.2951
 20
-10.9367
 30
0.0
 10
-2.3049
 20
-10.9594
 30
0.0
 10
-2.3135
 20
-10.9616
 30
0.0
 10
-2.3243
 20
-10.9616
 30
0.0
 10
-2.3524
 20
-10.9367
 30
0.0
 10
-2.3987
 20
-10.886
 30
0.0
 10
-2.6265
 20
-10.6367
 30
0.0
 10
-2.7765
 20
-10.3236
 30
0.0
 10
-2.8478
 20
-9.948
 30
0.0
 10
-2.8899
 20
-9.7245
 30
0.0
 10
-2.9115
 20
-9.3725
 30
0.0
 10
-2.9115
 20
-8.8933
 30
0.0
 10
-3.0604
 20
-8.9505
 30
0.0
 10
-3.2559
 20
-8.9796
 30
0.0
 10
-3.4965
 20
-8.9796
 30
0.0
 10
-3.964
 20
-8.9796
 30
0.0
 10
-4.1983
 20
-8.7832
 30
0.0
 10
-4.1983
 20
-8.3892
 30
0.0
 10
-4.1983
 20
-8.1129
 30
0.0
 10
-4.1259
 20
-7.8527
 30
0.0
 10
-3.9823
 20
-7.6054
 30
0.0
 10
-3.8247
 20
-7.3345
 30
0.0
 10
-3.6358
 20
-7.1985
 30
0.0
 10
-3.4156
 20
-7.1985
 30
0.0
 10
-3.1166
 20
-7.1985
 30
0.0
 10
-2.8996
 20
-7.3551
 30
0.0
 10
-2.7668
 20
-7.667
 30
0.0
 10
-2.6718
 20
-7.8883
 30
0.0
 10
-2.6244
 20
-8.1722
 30
0.0
 10
-2.6244
 20
-8.5198
 30
0.0
 10
-2.6244
 20
-9.0477
 30
0.0
 10
-2.579
 20
-9.461
 30
0.0
 10
-2.4894
 20
-9.7634
 30
0.0
 10
-2.4192
 20
-9.9932
 30
0.0
 10
-2.3113
 20
-10.1843
 30
0.0
 10
-2.1645
 20
-10.3387
 30
0.0
  0
SPLINE
  5
69
330
1F
100
AcDbEntity
  8
Layer 1
 62
   240
100
AcDbSpline
210
0.0
220
0.0
230
1.0
 70
    11
 71
     3
 72
    23
 73
    19
 74
     0
 42
0.0000000001
 43
0.0000000001
 40
0.0
 40
0.0
 40
0.0
 40
0.0
 40
0.1666666666666667
 40
0.1666666666666667
 40
0.1666666666666667
 40
0.3333333333333333
 40
0.3333333333333333
 40
0.3333333333333333
 40
0.5
 40
0.5
 40
0.5
 40
0.6666666666666666
 40
0.6666666666666666
 40
0.6666666666666666
 40
0.8333333333333333
 40
0.8333333333333333
 40
0.8333333333333333
 40
1.0
 40
1.0
 40
1.0
 40
1.0
 10
-2.9708
 20
-8.3827
 30
0.0
 10
-2.9795
 20
-8.2305
 30
0.0
 10
-3.0291
 20
-8.0912
 30
0.0
 10
-3.1199
 20
-7.9661
 30
0.0
 10
-3.2213
 20
-7.8214
 30
0.0
 10
-3.3455
 20
-7.749
 30
0.0
 10
-3.4912
 20
-7.749
 30
0.0
 10
-3.5991
 20
-7.749
 30
0.0
 10
-3.6952
 20
-7.79
 30
0.0
 10
-3.7794
 20
-7.871
 30
0.0
 10
-3.8646
 20
-7.9531
 30
0.0
 10
-3.9068
 20
-8.047
 30
0.0
 10
-3.9068
 20
-8.1539
 30
0.0
 10
-3.9068
 20
-8.3547
 30
0.0
 10
-3.7383
 20
-8.455
 30
0.0
 10
-3.4027
 20
-8.455
 30
0.0
 10
-3.231
 20
-8.455
 30
0.0
 10
-3.0874
 20
-8.4312
 30
0.0
 10
-2.9708
 20
-8.3827
 30
0.0
  0
SPLINE
  5
6A
330
1F
100
AcDbEntity
  8
Layer 1
 62
   240
100
AcDbSpline
210
0.0
220
0.0
230
1.0
 70
    11
 71
     3
 72
    41
 73
    37
 74
     0
 42
0.0000000001
 43
0.0000000001
 40
0.0
 40
0.0
 40
0.0
 40
0.0
 40
0.0833333333333333
 40
0.0833333333333333
 40
0.0833333333333333
 40
0.1666666666666667
 40
0.1666666666666667
 40
0.1666666666666667
 40
0.25
 40
0.25
 40
0.25
 40
0.3333333333333333
 40
0.3333333333333333
 40
0.3333333333333333
 40
0.4166666666666666
 40
0.4166666666666666
 40
0.4166666666666666
 40
0.5
 40
0.5
 40
0.5
 40
0.5833333333333333
 40
0.5833333333333333
 40
0.5833333333333333
 40
0.6666666666666666
 40
0.6666666666666666
 40
0.6666666666666666
 40
0.75
 40
0.75
 40
0.75
 40
0.8333333333333333
 40
0.8333333333333333
 40
0.8333333333333333
 40
0.9166666666666666
 40
0.9166666666666666
 40
0.9166666666666666
 40
1.0
 40
1.0
 40
1.0
 40
1.0
 10
-5.0521
 20
-10.0559
 30
0.0
 10
-5.0521
 20
-10.2545
 30
0.0
 10
-5.1083
 20
-10.4412
 30
0.0
 10
-5.2194
 20
-10.6161
 30
0.0
 10
-5.3501
 20
-10.8201
 30
0.0
 10
-5.5141
 20
-10.9227
 30
0.0
 10
-5.7095
 20
-10.9227
 30
0.0
 10
-5.9373
 20
-10.9227
 30
0.0
 10
-6.1111
 20
-10.8126
 30
0.0
 10
-6.2309
 20
-10.5924
 30
0.0
 10
-6.3637
 20
-10.8428
 30
0.0
 10
-6.5612
 20
-10.9681
 30
0.0
 10
-6.8224
 20
-10.9681
 30
0.0
 10
-7.0135
 20
-10.9681
 30
0.0
 10
-7.1658
 20
-10.8881
 30
0.0
 10
-7.2769
 20
-10.7284
 30
0.0
 10
-7.3783
 20
-10.5869
 30
0.0
 10
-7.4291
 20
-10.4164
 30
0.0
 10
-7.4291
 20
-10.2156
 30
0.0
 10
-7.4291
 20
-9.6791
 30
0.0
 10
-7.1355
 20
-8.8944
 30
0.0
 10
-6.5472
 20
-7.8624
 30
0.0
 10
-6.5472
 20
-7.8624
 30
0.0
 10
-6.667
 20
-7.7167
 30
0.0
 10
-6.667
 20
-7.7167
 30
0.0
 10
-6.667
 20
-7.7167
 30
0.0
 10
-6.4176
 20
-7.1985
 30
0.0
 10
-6.4176
 20
-7.1985
 30
0.0
 10
-6.0906
 20
-7.572
 30
0.0
 10
-5.8002
 20
-7.9725
 30
0.0
 10
-5.5455
 20
-8.4032
 30
0.0
 10
-5.2162
 20
-8.957
 30
0.0
 10
-5.0521
 20
-9.4017
 30
0.0
 10
-5.0521
 20
-9.7374
 30
0.0
 10
-5.0521
 20
-9.7374
 30
0.0
 10
-5.0521
 20
-10.0559
 30
0.0
 10
-5.0521
 20
-10.0559
 30
0.0
  0
SPLINE
  5
6B
330
1F
100
AcDbEntity
  8
Layer 1
 62
   240
100
AcDbSpline
210
0.0
220
0.0
230
1.0
 70
    11
 71
     3
 72
    41
 73
    37
 74
     0
 42
0.0000000001
 43
0.0000000001
 40
0.0
 40
0.0
 40
0.0
 40
0.0
 40
0.0833333333333333
 40
0.0833333333333333
 40
0.0833333333333333
 40
0.1666666666666667
 40
0.1666666666666667
 40
0.1666666666666667
 40
0.25
 40
0.25
 40
0.25
 40
0.3333333333333333
 40
0.3333333333333333
 40
0.3333333333333333
 40
0.4166666666666666
 40
0.4166666666666666
 40
0.4166666666666666
 40
0.5
 40
0.5
 40
0.5
 40
0.5833333333333333
 40
0.5833333333333333
 40
0.5833333333333333
 40
0.6666666666666666
 40
0.6666666666666666
 40
0.6666666666666666
 40
0.75
 40
0.75
 40
0.75
 40
0.8333333333333333
 40
0.8333333333333333
 40
0.8333333333333333
 40
0.9166666666666666
 40
0.9166666666666666
 40
0.9166666666666666
 40
1.0
 40
1.0
 40
1.0
 40
1.0
 10
-5.2982
 20
-10.0224
 30
0.0
 10
-5.2982
 20
-9.7569
 30
0.0
 10
-5.4644
 20
-9.3639
 30
0.0
 10
-5.797
 20
-8.8458
 30
0.0
 10
-6.0053
 20
-8.5209
 30
0.0
 10
-6.2082
 20
-8.2413
 30
0.0
 10
-6.409
 20
-8.0049
 30
0.0
 10
-6.5536
 20
-8.2726
 30
0.0
 10
-6.6983
 20
-8.5889
 30
0.0
 10
-6.844
 20
-8.9516
 30
0.0
 10
-7.0264
 20
-9.4093
 30
0.0
 10
-7.1182
 20
-9.7364
 30
0.0
 10
-7.1182
 20
-9.9328
 30
0.0
 10
-7.1182
 20
-10.0623
 30
0.0
 10
-7.0912
 20
-10.1703
 30
0.0
 10
-7.0362
 20
-10.2588
 30
0.0
 10
-6.9736
 20
-10.3646
 30
0.0
 10
-6.8818
 20
-10.4175
 30
0.0
 10
-6.762
 20
-10.4175
 30
0.0
 10
-6.4868
 20
-10.4175
 30
0.0
 10
-6.3335
 20
-10.2858
 30
0.0
 10
-6.3043
 20
-10.0235
 30
0.0
 10
-6.2957
 20
-9.9425
 30
0.0
 10
-6.2655
 20
-9.9026
 30
0.0
 10
-6.2125
 20
-9.9026
 30
0.0
 10
-6.1629
 20
-9.9026
 30
0.0
 10
-6.1294
 20
-9.9415
 30
0.0
 10
-6.1154
 20
-10.0192
 30
0.0
 10
-6.0646
 20
-10.2718
 30
0.0
 10
-5.9168
 20
-10.3981
 30
0.0
 10
-5.6707
 20
-10.3981
 30
0.0
 10
-5.5605
 20
-10.3981
 30
0.0
 10
-5.472
 20
-10.3624
 30
0.0
 10
-5.4019
 20
-10.2923
 30
0.0
 10
-5.3328
 20
-10.2211
 30
0.0
 10
-5.2982
 20
-10.1315
 30
0.0
 10
-5.2982
 20
-10.0224
 30
0.0
  0
SPLINE
  5
6C
330
1F
100
AcDbEntity
  8
Layer 1
 62
   240
100
AcDbSpline
210
0.0
220
0.0
230
1.0
 70
    11
 71
     3
 72
    41
 73
    37
 74
     0
 42
0.0000000001
 43
0.0000000001
 40
0.0
 40
0.0
 40
0.0
 40
0.0
 40
0.0833333333333333
 40
0.0833333333333333
 40
0.0833333333333333
 40
0.1666666666666667
 40
0.1666666666666667
 40
0.1666666666666667
 40
0.25
 40
0.25
 40
0.25
 40
0.3333333333333333
 40
0.3333333333333333
 40
0.3333333333333333
 40
0.4166666666666666
 40
0.4166666666666666
 40
0.4166666666666666
 40
0.5
 40
0.5
 40
0.5
 40
0.5833333333333333
 40
0.5833333333333333
 40
0.5833333333333333
 40
0.6666666666666666
 40
0.6666666666666666
 40
0.6666666666666666
 40
0.75
 40
0.75
 40
0.75
 40
0.8333333333333333
 40
0.8333333333333333
 40
0.8333333333333333
 40
0.9166666666666666
 40
0.9166666666666666
 40
0.9166666666666666
 40
1.0
 40
1.0
 40
1.0
 40
1.0
 10
-8.3348
 20
-10.0224
 30
0.0
 10
-8.3348
 20
-9.7569
 30
0.0
 10
-8.501
 20
-9.3639
 30
0.0
 10
-8.8336
 20
-8.8458
 30
0.0
 10
-9.0419
 20
-8.5209
 30
0.0
 10
-9.2448
 20
-8.2413
 30
0.0
 10
-9.4456
 20
-8.0049
 30
0.0
 10
-9.5902
 20
-8.2726
 30
0.0
 10
-9.7349
 20
-8.5889
 30
0.0
 10
-9.8806
 20
-8.9516
 30
0.0
 10
-10.063
 20
-9.4093
 30
0.0
 10
-10.1548
 20
-9.7364
 30
0.0
 10
-10.1548
 20
-9.9328
 30
0.0
 10
-10.1548
 20
-10.0623
 30
0.0
 10
-10.1278
 20
-10.1703
 30
0.0
 10
-10.0727
 20
-10.2588
 30
0.0
 10
-10.0102
 20
-10.3646
 30
0.0
 10
-9.9184
 20
-10.4175
 30
0.0
 10
-9.7986
 20
-10.4175
 30
0.0
 10
-9.5233
 20
-10.4175
 30
0.0
 10
-9.37
 20
-10.2858
 30
0.0
 10
-9.3409
 20
-10.0235
 30
0.0
 10
-9.3322
 20
-9.9425
 30
0.0
 10
-9.302
 20
-9.9026
 30
0.0
 10
-9.2491
 20
-9.9026
 30
0.0
 10
-9.1994
 20
-9.9026
 30
0.0
 10
-9.166
 20
-9.9415
 30
0.0
 10
-9.1519
 20
-10.0192
 30
0.0
 10
-9.1012
 20
-10.2718
 30
0.0
 10
-8.9534
 20
-10.3981
 30
0.0
 10
-8.7073
 20
-10.3981
 30
0.0
 10
-8.5971
 20
-10.3981
 30
0.0
 10
-8.5086
 20
-10.3624
 30
0.0
 10
-8.4384
 20
-10.2923
 30
0.0
 10
-8.3694
 20
-10.2211
 30
0.0
 10
-8.3348
 20
-10.1315
 30
0.0
 10
-8.3348
 20
-10.0224
 30
0.0
  0
SPLINE
  5
6D
330
1F
100
AcDbEntity
  8
Layer 1
 62
   240
100
AcDbSpline
210
0.0
220
0.0
230
1.0
 70
    11
 71
     3
 72
    29
 73
    25
 74
     0
 42
0.0000000001
 43
0.0000000001
 40
0.0
 40
0.0
 40
0.0
 40
0.0
 40
0.125
 40
0.125
 40
0.125
 40
0.25
 40
0.25
 40
0.25
 40
0.375
 40
0.375
 40
0.375
 40
0.5
 40
0.5
 40
0.5
 40
0.625
 40
0.625
 40
0.625
 40
0.75
 40
0.75
 40
0.75
 40
0.875
 40
0.875
 40
0.875
 40
1.0
 40
1.0
 40
1.0
 40
1.0
 10
-13.1592
 20
5.3796
 30
0.0
 10
-13.1592
 20
5.4724
 30
0.0
 10
-13.211
 20
5.5567
 30
0.0
 10
-13.3124
 20
5.6322
 30
0.0
 10
-13.4118
 20
5.7056
 30
0.0
 10
-13.5089
 20
5.7402
 30
0.0
 10
-13.6017
 20
5.7402
 30
0.0
 10
-13.7119
 20
5.7402
 30
0.0
 10
-13.8133
 20
5.697
 30
0.0
 10
-13.9062
 20
5.6085
 30
0.0
 10
-13.9947
 20
5.5113
 30
0.0
 10
-14.04
 20
5.4357
 30
0.0
 10
-14.04
 20
5.3796
 30
0.0
 10
-14.04
 20
5.2954
 30
0.0
 10
-13.9903
 20
5.2285
 30
0.0
 10
-13.8932
 20
5.1789
 30
0.0
 10
-13.8004
 20
5.1313
 30
0.0
 10
-13.7032
 20
5.1076
 30
0.0
 10
-13.6017
 20
5.1076
 30
0.0
 10
-13.4722
 20
5.1076
 30
0.0
 10
-13.3643
 20
5.14
 30
0.0
 10
-13.2801
 20
5.2026
 30
0.0
 10
-13.2002
 20
5.263
 30
0.0
 10
-13.1592
 20
5.3213
 30
0.0
 10
-13.1592
 20
5.3796
 30
0.0
  0
SPLINE
  5
6E
330
1F
100
AcDbEntity
  8
Layer 1
 62
   240
100
AcDbSpline
210
0.0
220
0.0
230
1.0
 70
    11
 71
     3
 72
   143
 73
   139
 74
     0
 42
0.0000000001
 43
0.0000000001
 40
0.0
 40
0.0
 40
0.0
 40
0.0
 40
0.0217391304347826
 40
0.0217391304347826
 40
0.0217391304347826
 40
0.0434782608695652
 40
0.0434782608695652
 40
0.0434782608695652
 40
0.0652173913043478
 40
0.0652173913043478
 40
0.0652173913043478
 40
0.0869565217391304
 40
0.0869565217391304
 40
0.0869565217391304
 40
0.108695652173913
 40
0.108695652173913
 40
0.108695652173913
 40
0.1304347826086956
 40
0.1304347826086956
 40
0.1304347826086956
 40
0.1521739130434783
 40
0.1521739130434783
 40
0.1521739130434783
 40
0.1739130434782609
 40
0.1739130434782609
 40
0.1739130434782609
 40
0.1956521739130435
 40
0.1956521739130435
 40
0.1956521739130435
 40
0.2173913043478261
 40
0.2173913043478261
 40
0.2173913043478261
 40
0.2391304347826087
 40
0.2391304347826087
 40
0.2391304347826087
 40
0.2608695652173913
 40
0.2608695652173913
 40
0.2608695652173913
 40
0.2826086956521739
 40
0.2826086956521739
 40
0.2826086956521739
 40
0.3043478260869565
 40
0.3043478260869565
 40
0.3043478260869565
 40
0.3260869565217391
 40
0.3260869565217391
 40
0.3260869565217391
 40
0.3478260869565217
 40
0.3478260869565217
 40
0.3478260869565217
 40
0.3695652173913043
 40
0.3695652173913043
 40
0.3695652173913043
 40
0.3913043478260869
 40
0.3913043478260869
 40
0.3913043478260869
 40
0.4130434782608696
 40
0.4130434782608696
 40
0.4130434782608696
 40
0.4347826086956522
 40
0.4347826086956522
 40
0.4347826086956522
 40
0.4565217391304348
 40
0.4565217391304348
 40
0.4565217391304348
 40
0.4782608695652174
 40
0.4782608695652174
 40
0.4782608695652174
 40
0.5
 40
0.5
 40
0.5
 40
0.5217391304347826
 40
0.5217391304347826
 40
0.5217391304347826
 40
0.5434782608695652
 40
0.5434782608695652
 40
0.5434782608695652
 40
0.5652173913043478
 40
0.5652173913043478
 40
0.5652173913043478
 40
0.5869565217391304
 40
0.5869565217391304
 40
0.5869565217391304
 40
0.6086956521739131
 40
0.6086956521739131
 40
0.6086956521739131
 40
0.6304347826086957
 40
0.6304347826086957
 40
0.6304347826086957
 40
0.6521739130434783
 40
0.6521739130434783
 40
0.6521739130434783
 40
0.6739130434782609
 40
0.6739130434782609
 40
0.6739130434782609
 40
0.6956521739130435
 40
0.6956521739130435
 40
0.6956521739130435
 40
0.717391304347826
 40
0.717391304347826
 40
0.717391304347826
 40
0.7391304347826086
 40
0.7391304347826086
 40
0.7391304347826086
 40
0.7608695652173912
 40
0.7608695652173912
 40
0.7608695652173912
 40
0.7826086956521738
 40
0.7826086956521738
 40
0.7826086956521738
 40
0.8043478260869565
 40
0.8043478260869565
 40
0.8043478260869565
 40
0.8260869565217391
 40
0.8260869565217391
 40
0.8260869565217391
 40
0.8478260869565217
 40
0.8478260869565217
 40
0.8478260869565217
 40
0.8695652173913043
 40
0.8695652173913043
 40
0.8695652173913043
 40
0.8913043478260869
 40
0.8913043478260869
 40
0.8913043478260869
 40
0.9130434782608695
 40
0.9130434782608695
 40
0.9130434782608695
 40
0.9347826086956521
 40
0.9347826086956521
 40
0.9347826086956521
 40
0.9565217391304348
 40
0.9565217391304348
 40
0.9565217391304348
 40
0.9782608695652174
 40
0.9782608695652174
 40
0.9782608695652174
 40
1.0
 40
1.0
 40
1.0
 40
1.0
 10
17.1249
 20
4.3139
 30
0.0
 10
17.1249
 20
4.3139
 30
0.0
 10
17.1653
 20
4.3563
 30
0.0
 10
17.1653
 20
4.3563
 30
0.0
 10
17.3769
 20
4.5872
 30
0.0
 10
17.4956
 20
4.7405
 30
0.0
 10
17.5258
 20
4.8118
 30
0.0
 10
17.3661
 20
4.8917
 30
0.0
 10
17.2451
 20
4.9543
 30
0.0
 10
17.1653
 20
5.0018
 30
0.0
 10
16.8911
 20
5.1313
 30
0.0
 10
16.673
 20
5.1982
 30
0.0
 10
16.5133
 20
5.1982
 30
0.0
 10
16.3751
 20
5.1982
 30
0.0
 10
16.2412
 20
5.1248
 30
0.0
 10
16.116
 20
4.9758
 30
0.0
 10
15.9844
 20
4.8247
 30
0.0
 10
15.9066
 20
4.7578
 30
0.0
 10
15.8807
 20
4.773
 30
0.0
 10
15.8311
 20
4.7859
 30
0.0
 10
15.8181
 20
4.8312
 30
0.0
 10
15.844
 20
4.9067
 30
0.0
 10
15.8763
 20
4.991
 30
0.0
 10
15.9455
 20
5.1141
 30
0.0
 10
16.0448
 20
5.2738
 30
0.0
 10
16.1462
 20
5.4335
 30
0.0
 10
16.2089
 20
5.5285
 30
0.0
 10
16.2283
 20
5.5587
 30
0.0
 10
16.3815
 20
5.7315
 30
0.0
 10
16.5456
 20
5.8178
 30
0.0
 10
16.7227
 20
5.8178
 30
0.0
 10
16.8371
 20
5.8178
 30
0.0
 10
17.0185
 20
5.766
 30
0.0
 10
17.2668
 20
5.6645
 30
0.0
 10
17.5107
 20
5.561
 30
0.0
 10
17.7331
 20
5.5069
 30
0.0
 10
17.9295
 20
5.5069
 30
0.0
 10
18.1281
 20
5.5069
 30
0.0
 10
18.3074
 20
5.576
 30
0.0
 10
18.4692
 20
5.7164
 30
0.0
 10
18.5017
 20
5.738
 30
0.0
 10
18.5383
 20
5.7466
 30
0.0
 10
18.575
 20
5.7423
 30
0.0
 10
18.6096
 20
5.725
 30
0.0
 10
18.6269
 20
5.6948
 30
0.0
 10
18.6269
 20
5.6537
 30
0.0
 10
18.6269
 20
5.6149
 30
0.0
 10
18.6183
 20
5.5739
 30
0.0
 10
18.601
 20
5.5329
 30
0.0
 10
18.5621
 20
5.4314
 30
0.0
 10
18.5319
 20
5.3494
 30
0.0
 10
18.5103
 20
5.2824
 30
0.0
 10
18.4865
 20
5.2176
 30
0.0
 10
18.4692
 20
5.168
 30
0.0
 10
18.4563
 20
5.1335
 30
0.0
 10
18.3829
 20
4.965
 30
0.0
 10
18.3246
 20
4.8571
 30
0.0
 10
18.2793
 20
4.8118
 30
0.0
 10
18.2016
 20
4.7945
 30
0.0
 10
18.1195
 20
4.7427
 30
0.0
 10
18.031
 20
4.6542
 30
0.0
 10
18.031
 20
4.6542
 30
0.0
 10
17.3811
 20
3.946
 30
0.0
 10
17.3811
 20
3.946
 30
0.0
 10
17.3811
 20
3.946
 30
0.0
 10
17.3003
 20
3.8584
 30
0.0
 10
17.3003
 20
3.8584
 30
0.0
 10
17.3024
 20
3.8313
 30
0.0
 10
17.3035
 20
3.8037
 30
0.0
 10
17.3035
 20
3.7755
 30
0.0
 10
17.3035
 20
3.6697
 30
0.0
 10
17.297
 20
3.5639
 30
0.0
 10
17.2862
 20
3.4625
 30
0.0
 10
17.2732
 20
3.3588
 30
0.0
 10
17.2581
 20
3.2725
 30
0.0
 10
17.2452
 20
3.2012
 30
0.0
 10
17.2301
 20
3.1322
 30
0.0
 10
17.2085
 20
3.0436
 30
0.0
 10
17.1804
 20
2.9357
 30
0.0
 10
17.1545
 20
2.8299
 30
0.0
 10
17.1221
 20
2.7284
 30
0.0
 10
17.0898
 20
2.6356
 30
0.0
 10
16.9407
 20
2.2276
 30
0.0
 10
16.8047
 20
1.9253
 30
0.0
 10
16.6774
 20
1.731
 30
0.0
 10
16.5521
 20
1.5367
 30
0.0
 10
16.4528
 20
1.418
 30
0.0
 10
16.3816
 20
1.3705
 30
0.0
 10
16.3082
 20
1.3251
 30
0.0
 10
16.2024
 20
1.2755
 30
0.0
 10
16.0577
 20
1.2215
 30
0.0
 10
15.9153
 20
1.1697
 30
0.0
 10
15.6972
 20
1.0962
 30
0.0
 10
15.4036
 20
1.0013
 30
0.0
 10
15.11
 20
0.9063
 30
0.0
 10
14.9373
 20
0.8588
 30
0.0
 10
14.8811
 20
0.8588
 30
0.0
 10
14.8488
 20
0.8588
 30
0.0
 10
14.8315
 20
0.8674
 30
0.0
 10
14.8315
 20
0.8847
 30
0.0
 10
14.797
 20
0.93
 30
0.0
 10
14.9718
 20
1.0833
 30
0.0
 10
15.3561
 20
1.3403
 30
0.0
 10
15.7404
 20
1.5972
 30
0.0
 10
15.9886
 20
1.7655
 30
0.0
 10
16.0988
 20
1.8455
 30
0.0
 10
16.211
 20
1.9253
 30
0.0
 10
16.3255
 20
2.0419
 30
0.0
 10
16.4399
 20
2.1974
 30
0.0
 10
16.5565
 20
2.3507
 30
0.0
 10
16.6429
 20
2.5255
 30
0.0
 10
16.6968
 20
2.7176
 30
0.0
 10
16.6385
 20
2.7263
 30
0.0
 10
16.5781
 20
2.7155
 30
0.0
 10
16.5176
 20
2.6831
 30
0.0
 10
16.455
 20
2.6529
 30
0.0
 10
16.3945
 20
2.6356
 30
0.0
 10
16.3363
 20
2.6356
 30
0.0
 10
16.1808
 20
2.6399
 30
0.0
 10
16.0492
 20
2.6918
 30
0.0
 10
15.9434
 20
2.7889
 30
0.0
 10
15.8397
 20
2.8838
 30
0.0
 10
15.7943
 20
2.9919
 30
0.0
 10
15.8116
 20
3.1106
 30
0.0
 10
15.8289
 20
3.1818
 30
0.0
 10
15.8526
 20
3.266
 30
0.0
 10
15.8851
 20
3.361
 30
0.0
 10
15.9153
 20
3.456
 30
0.0
 10
15.9822
 20
3.6071
 30
0.0
 10
16.0837
 20
3.8122
 30
0.0
 10
16.1852
 20
4.0195
 30
0.0
 10
16.2866
 20
4.19
 30
0.0
 10
16.3903
 20
4.3239
 30
0.0
 10
16.4938
 20
4.4599
 30
0.0
 10
16.5954
 20
4.5268
 30
0.0
 10
16.6968
 20
4.5268
 30
0.0
 10
16.8666
 20
4.5268
 30
0.0
 10
17.0094
 20
4.4559
 30
0.0
 10
17.1249
 20
4.3139
 30
0.0
  0
SPLINE
  5
6F
330
1F
100
AcDbEntity
  8
Layer 1
 62
   240
100
AcDbSpline
210
0.0
220
0.0
230
1.0
 70
    11
 71
     3
 72
    32
 73
    28
 74
     0
 42
0.0000000001
 43
0.0000000001
 40
0.0
 40
0.0
 40
0.0
 40
0.0
 40
0.1111111111111111
 40
0.1111111111111111
 40
0.1111111111111111
 40
0.2222222222222222
 40
0.2222222222222222
 40
0.2222222222222222
 40
0.3333333333333333
 40
0.3333333333333333
 40
0.3333333333333333
 40
0.4444444444444444
 40
0.4444444444444444
 40
0.4444444444444444
 40
0.5555555555555556
 40
0.5555555555555556
 40
0.5555555555555556
 40
0.6666666666666666
 40
0.6666666666666666
 40
0.6666666666666666
 40
0.7777777777777777
 40
0.7777777777777777
 40
0.7777777777777777
 40
0.8888888888888888
 40
0.8888888888888888
 40
0.8888888888888888
 40
1.0
 40
1.0
 40
1.0
 40
1.0
 10
16.9688
 20
-1.3239
 30
0.0
 10
16.9688
 20
-1.3693
 30
0.0
 10
17.0012
 20
-1.4146
 30
0.0
 10
17.0638
 20
-1.4556
 30
0.0
 10
17.135
 20
-1.5074
 30
0.0
 10
17.2473
 20
-1.5808
 30
0.0
 10
17.3963
 20
-1.6802
 30
0.0
 10
17.5452
 20
-1.7795
 30
0.0
 10
17.6337
 20
-1.8356
 30
0.0
 10
17.6597
 20
-1.8485
 30
0.0
 10
17.7266
 20
-1.8485
 30
0.0
 10
17.8345
 20
-1.7212
 30
0.0
 10
17.9813
 20
-1.4686
 30
0.0
 10
18.1281
 20
-1.216
 30
0.0
 10
18.2016
 20
-1.0217
 30
0.0
 10
18.2016
 20
-0.8878
 30
0.0
 10
18.1908
 20
-0.7864
 30
0.0
 10
18.0958
 20
-0.646
 30
0.0
 10
17.9188
 20
-0.4668
 30
0.0
 10
17.7417
 20
-0.2876
 30
0.0
 10
17.6057
 20
-0.2164
 30
0.0
 10
17.5129
 20
-0.2552
 30
0.0
 10
17.4675
 20
-0.2552
 30
0.0
 10
17.3639
 20
-0.4085
 30
0.0
 10
17.2063
 20
-0.7194
 30
0.0
 10
17.0487
 20
-1.0303
 30
0.0
 10
16.9688
 20
-1.231
 30
0.0
 10
16.9688
 20
-1.3239
 30
0.0
  0
SPLINE
  5
70
330
1F
100
AcDbEntity
  8
Layer 1
 62
   240
100
AcDbSpline
210
0.0
220
0.0
230
1.0
 70
    11
 71
     3
 72
    68
 73
    64
 74
     0
 42
0.0000000001
 43
0.0000000001
 40
0.0
 40
0.0
 40
0.0
 40
0.0
 40
0.0476190476190476
 40
0.0476190476190476
 40
0.0476190476190476
 40
0.0952380952380952
 40
0.0952380952380952
 40
0.0952380952380952
 40
0.1428571428571428
 40
0.1428571428571428
 40
0.1428571428571428
 40
0.1904761904761905
 40
0.1904761904761905
 40
0.1904761904761905
 40
0.2380952380952381
 40
0.2380952380952381
 40
0.2380952380952381
 40
0.2857142857142857
 40
0.2857142857142857
 40
0.2857142857142857
 40
0.3333333333333333
 40
0.3333333333333333
 40
0.3333333333333333
 40
0.3809523809523809
 40
0.3809523809523809
 40
0.3809523809523809
 40
0.4285714285714285
 40
0.4285714285714285
 40
0.4285714285714285
 40
0.4761904761904762
 40
0.4761904761904762
 40
0.4761904761904762
 40
0.5238095238095237
 40
0.5238095238095237
 40
0.5238095238095237
 40
0.5714285714285714
 40
0.5714285714285714
 40
0.5714285714285714
 40
0.6190476190476191
 40
0.6190476190476191
 40
0.6190476190476191
 40
0.6666666666666666
 40
0.6666666666666666
 40
0.6666666666666666
 40
0.7142857142857142
 40
0.7142857142857142
 40
0.7142857142857142
 40
0.7619047619047619
 40
0.7619047619047619
 40
0.7619047619047619
 40
0.8095238095238095
 40
0.8095238095238095
 40
0.8095238095238095
 40
0.8571428571428571
 40
0.8571428571428571
 40
0.8571428571428571
 40
0.9047619047619047
 40
0.9047619047619047
 40
0.9047619047619047
 40
0.9523809523809523
 40
0.9523809523809523
 40
0.9523809523809523
 40
1.0
 40
1.0
 40
1.0
 40
1.0
 10
14.4644
 20
6.3165
 30
0.0
 10
14.4558
 20
6.0143
 30
0.0
 10
14.4493
 20
5.7401
 30
0.0
 10
14.445
 20
5.4962
 30
0.0
 10
14.4407
 20
5.2501
 30
0.0
 10
14.4277
 20
5.0449
 30
0.0
 10
14.4061
 20
4.8744
 30
0.0
 10
14.3738
 20
4.5117
 30
0.0
 10
14.3025
 20
4.1922
 30
0.0
 10
14.1989
 20
3.9115
 30
0.0
 10
14.0931
 20
3.6308
 30
0.0
 10
14.0089
 20
3.443
 30
0.0
 10
13.9485
 20
3.3502
 30
0.0
 10
13.888
 20
3.2574
 30
0.0
 10
13.8384
 20
3.1904
 30
0.0
 10
13.7995
 20
3.1494
 30
0.0
 10
13.7541
 20
3.1062
 30
0.0
 10
13.7174
 20
3.0933
 30
0.0
 10
13.6915
 20
3.1084
 30
0.0
 10
13.6678
 20
3.1214
 30
0.0
 10
13.6591
 20
3.1472
 30
0.0
 10
13.6678
 20
3.1797
 30
0.0
 10
13.6678
 20
3.1882
 30
0.0
 10
13.6915
 20
3.3157
 30
0.0
 10
13.7434
 20
3.5639
 30
0.0
 10
13.793
 20
3.81
 30
0.0
 10
13.8254
 20
4.0497
 30
0.0
 10
13.8384
 20
4.2807
 30
0.0
 10
13.8513
 20
4.5117
 30
0.0
 10
13.8534
 20
4.8398
 30
0.0
 10
13.8448
 20
5.2651
 30
0.0
 10
13.8362
 20
5.6883
 30
0.0
 10
13.8469
 20
6.0121
 30
0.0
 10
13.875
 20
6.2345
 30
0.0
 10
13.8923
 20
6.3662
 30
0.0
 10
13.9204
 20
6.5
 30
0.0
 10
13.9614
 20
6.6404
 30
0.0
 10
14.0002
 20
6.7786
 30
0.0
 10
14.0456
 20
6.9167
 30
0.0
 10
14.0974
 20
7.0506
 30
0.0
 10
14.147
 20
7.1866
 30
0.0
 10
14.201
 20
7.314
 30
0.0
 10
14.2572
 20
7.4348
 30
0.0
 10
14.3155
 20
7.5536
 30
0.0
 10
14.3673
 20
7.6616
 30
0.0
 10
14.4126
 20
7.7544
 30
0.0
 10
14.4515
 20
7.8127
 30
0.0
 10
14.4839
 20
7.8365
 30
0.0
 10
14.5141
 20
7.8235
 30
0.0
 10
14.5443
 20
7.8105
 30
0.0
 10
14.5573
 20
7.7868
 30
0.0
 10
14.5529
 20
7.7544
 30
0.0
 10
14.5443
 20
7.7199
 30
0.0
 10
14.5335
 20
7.64
 30
0.0
 10
14.5249
 20
7.5169
 30
0.0
 10
14.5141
 20
7.3917
 30
0.0
 10
14.5033
 20
7.2535
 30
0.0
 10
14.4946
 20
7.0981
 30
0.0
 10
14.486
 20
6.9448
 30
0.0
 10
14.4796
 20
6.7936
 30
0.0
 10
14.4731
 20
6.6468
 30
0.0
 10
14.4666
 20
6.4979
 30
0.0
 10
14.4644
 20
6.39
 30
0.0
 10
14.4644
 20
6.3165
 30
0.0
  0
SPLINE
  5
71
330
1F
100
AcDbEntity
  8
Layer 1
 62
   240
100
AcDbSpline
210
0.0
220
0.0
230
1.0
 70
    11
 71
     3
 72
    89
 73
    85
 74
     0
 42
0.0000000001
 43
0.0000000001
 40
0.0
 40
0.0
 40
0.0
 40
0.0
 40
0.0357142857142857
 40
0.0357142857142857
 40
0.0357142857142857
 40
0.0714285714285714
 40
0.0714285714285714
 40
0.0714285714285714
 40
0.1071428571428571
 40
0.1071428571428571
 40
0.1071428571428571
 40
0.1428571428571428
 40
0.1428571428571428
 40
0.1428571428571428
 40
0.1785714285714285
 40
0.1785714285714285
 40
0.1785714285714285
 40
0.2142857142857143
 40
0.2142857142857143
 40
0.2142857142857143
 40
0.25
 40
0.25
 40
0.25
 40
0.2857142857142857
 40
0.2857142857142857
 40
0.2857142857142857
 40
0.3214285714285714
 40
0.3214285714285714
 40
0.3214285714285714
 40
0.3571428571428571
 40
0.3571428571428571
 40
0.3571428571428571
 40
0.3928571428571428
 40
0.3928571428571428
 40
0.3928571428571428
 40
0.4285714285714285
 40
0.4285714285714285
 40
0.4285714285714285
 40
0.4642857142857142
 40
0.4642857142857142
 40
0.4642857142857142
 40
0.5
 40
0.5
 40
0.5
 40
0.5357142857142857
 40
0.5357142857142857
 40
0.5357142857142857
 40
0.5714285714285714
 40
0.5714285714285714
 40
0.5714285714285714
 40
0.6071428571428571
 40
0.6071428571428571
 40
0.6071428571428571
 40
0.6428571428571428
 40
0.6428571428571428
 40
0.6428571428571428
 40
0.6785714285714285
 40
0.6785714285714285
 40
0.6785714285714285
 40
0.7142857142857142
 40
0.7142857142857142
 40
0.7142857142857142
 40
0.75
 40
0.75
 40
0.75
 40
0.7857142857142857
 40
0.7857142857142857
 40
0.7857142857142857
 40
0.8214285714285714
 40
0.8214285714285714
 40
0.8214285714285714
 40
0.8571428571428571
 40
0.8571428571428571
 40
0.8571428571428571
 40
0.8928571428571428
 40
0.8928571428571428
 40
0.8928571428571428
 40
0.9285714285714285
 40
0.9285714285714285
 40
0.9285714285714285
 40
0.9642857142857142
 40
0.9642857142857142
 40
0.9642857142857142
 40
1.0
 40
1.0
 40
1.0
 40
1.0
 10
12.8431
 20
4.5981
 30
0.0
 10
12.8819
 20
4.5981
 30
0.0
 10
12.9316
 20
4.5679
 30
0.0
 10
12.9899
 20
4.5074
 30
0.0
 10
13.0395
 20
4.4448
 30
0.0
 10
13.0654
 20
4.3671
 30
0.0
 10
13.0654
 20
4.2742
 30
0.0
 10
13.0654
 20
4.054
 30
0.0
 10
12.9834
 20
3.8036
 30
0.0
 10
12.8193
 20
3.5208
 30
0.0
 10
12.6207
 20
3.1408
 30
0.0
 10
12.435
 20
2.9054
 30
0.0
 10
12.258
 20
2.8148
 30
0.0
 10
12.0831
 20
2.7241
 30
0.0
 10
11.8435
 20
2.6809
 30
0.0
 10
11.5347
 20
2.6853
 30
0.0
 10
11.2261
 20
2.6895
 30
0.0
 10
11.0015
 20
2.6615
 30
0.0
 10
10.8612
 20
2.5967
 30
0.0
 10
10.7209
 20
2.5341
 30
0.0
 10
10.6409
 20
2.4931
 30
0.0
 10
10.6237
 20
2.4779
 30
0.0
 10
10.6237
 20
2.4779
 30
0.0
 10
10.6237
 20
2.4881
 30
0.0
 10
10.6237
 20
2.4881
 30
0.0
 10
10.3524
 20
2.2985
 30
0.0
 10
10.1256
 20
2.0884
 30
0.0
 10
9.9415
 20
1.854
 30
0.0
 10
9.9069
 20
1.8217
 30
0.0
 10
9.7428
 20
1.5885
 30
0.0
 10
9.4492
 20
1.1589
 30
0.0
 10
9.0908
 20
0.5933
 30
0.0
 10
8.8879
 20
0.2802
 30
0.0
 10
8.8404
 20
0.2176
 30
0.0
 10
8.5382
 20
-0.1667
 30
0.0
 10
8.1453
 20
-0.5165
 30
0.0
 10
7.6638
 20
-0.8338
 30
0.0
 10
7.5472
 20
-0.9094
 30
0.0
 10
7.4177
 20
-0.9828
 30
0.0
 10
7.2795
 20
-1.054
 30
0.0
 10
7.0852
 20
-1.1512
 30
0.0
 10
6.9621
 20
-1.2116
 30
0.0
 10
6.9125
 20
-1.231
 30
0.0
 10
6.7808
 20
-1.3045
 30
0.0
 10
6.7074
 20
-1.3131
 30
0.0
 10
6.6901
 20
-1.257
 30
0.0
 10
6.6642
 20
-1.1943
 30
0.0
 10
6.8629
 20
-1.0087
 30
0.0
 10
7.286
 20
-0.6999
 30
0.0
 10
7.6141
 20
-0.469
 30
0.0
 10
7.8775
 20
-0.253
 30
0.0
 10
8.0762
 20
-0.0544
 30
0.0
 10
8.3504
 20
0.2219
 30
0.0
 10
8.5857
 20
0.5177
 30
0.0
 10
8.7843
 20
0.8307
 30
0.0
 10
8.8728
 20
0.9775
 30
0.0
 10
8.9484
 20
1.1027
 30
0.0
 10
9.011
 20
1.2043
 30
0.0
 10
9.0714
 20
1.3036
 30
0.0
 10
9.1168
 20
1.3813
 30
0.0
 10
9.1513
 20
1.4309
 30
0.0
 10
9.365
 20
1.7763
 30
0.0
 10
9.5421
 20
2.0483
 30
0.0
 10
9.6824
 20
2.247
 30
0.0
 10
9.8508
 20
2.4952
 30
0.0
 10
10.0062
 20
2.6918
 30
0.0
 10
10.1509
 20
2.8342
 30
0.0
 10
10.2847
 20
2.9702
 30
0.0
 10
10.3884
 20
3.0674
 30
0.0
 10
10.4596
 20
3.1257
 30
0.0
 10
10.5292
 20
3.1882
 30
0.0
 10
10.6012
 20
3.2447
 30
0.0
 10
10.6766
 20
3.2956
 30
0.0
 10
10.8342
 20
3.429
 30
0.0
 10
11.0539
 20
3.5627
 30
0.0
 10
11.3361
 20
3.6999
 30
0.0
 10
11.6492
 20
3.8511
 30
0.0
 10
12.0141
 20
3.9417
 30
0.0
 10
12.4264
 20
3.9719
 30
0.0
 10
12.4307
 20
3.9719
 30
0.0
 10
12.5214
 20
4.1187
 30
0.0
 10
12.6984
 20
4.4146
 30
0.0
 10
12.774
 20
4.5376
 30
0.0
 10
12.8236
 20
4.5981
 30
0.0
 10
12.8431
 20
4.5981
 30
0.0
  0
SPLINE
  5
72
330
1F
100
AcDbEntity
  8
Layer 1
 62
   240
100
AcDbSpline
210
0.0
220
0.0
230
1.0
 70
    11
 71
     3
 72
    32
 73
    28
 74
     0
 42
0.0000000001
 43
0.0000000001
 40
0.0
 40
0.0
 40
0.0
 40
0.0
 40
0.1111111111111111
 40
0.1111111111111111
 40
0.1111111111111111
 40
0.2222222222222222
 40
0.2222222222222222
 40
0.2222222222222222
 40
0.3333333333333333
 40
0.3333333333333333
 40
0.3333333333333333
 40
0.4444444444444444
 40
0.4444444444444444
 40
0.4444444444444444
 40
0.5555555555555556
 40
0.5555555555555556
 40
0.5555555555555556
 40
0.6666666666666666
 40
0.6666666666666666
 40
0.6666666666666666
 40
0.7777777777777777
 40
0.7777777777777777
 40
0.7777777777777777
 40
0.8888888888888888
 40
0.8888888888888888
 40
0.8888888888888888
 40
1.0
 40
1.0
 40
1.0
 40
1.0
 10
12.3379
 20
0.0902
 30
0.0
 10
11.8996
 20
-0.6956
 30
0.0
 10
11.6794
 20
-1.2095
 30
0.0
 10
11.6794
 20
-1.4534
 30
0.0
 10
11.6794
 20
-1.4836
 30
0.0
 10
11.7485
 20
-1.5269
 30
0.0
 10
11.8823
 20
-1.5808
 30
0.0
 10
12.0183
 20
-1.6477
 30
0.0
 10
12.0853
 20
-1.7665
 30
0.0
 10
12.0853
 20
-1.9349
 30
0.0
 10
12.0853
 20
-2.0493
 30
0.0
 10
12.0464
 20
-2.1637
 30
0.0
 10
11.9708
 20
-2.2781
 30
0.0
 10
11.8996
 20
-2.3839
 30
0.0
 10
11.8111
 20
-2.4357
 30
0.0
 10
11.7053
 20
-2.4357
 30
0.0
 10
11.5952
 20
-2.4357
 30
0.0
 10
11.5153
 20
-2.3861
 30
0.0
 10
11.4656
 20
-2.2846
 30
0.0
 10
11.4181
 20
-2.1745
 30
0.0
 10
11.3966
 20
-2.0579
 30
0.0
 10
11.3966
 20
-1.9349
 30
0.0
 10
11.3966
 20
-1.6391
 30
0.0
 10
11.5261
 20
-1.2224
 30
0.0
 10
11.7873
 20
-0.6827
 30
0.0
 10
12.0529
 20
-0.1537
 30
0.0
 10
12.2364
 20
0.1032
 30
0.0
 10
12.3379
 20
0.0902
 30
0.0
  0
SPLINE
  5
73
330
1F
100
AcDbEntity
  8
Layer 1
 62
   240
100
AcDbSpline
210
0.0
220
0.0
230
1.0
 70
    11
 71
     3
 72
   170
 73
   166
 74
     0
 42
0.0000000001
 43
0.0000000001
 40
0.0
 40
0.0
 40
0.0
 40
0.0
 40
0.0181818181818182
 40
0.0181818181818182
 40
0.0181818181818182
 40
0.0363636363636364
 40
0.0363636363636364
 40
0.0363636363636364
 40
0.0545454545454545
 40
0.0545454545454545
 40
0.0545454545454545
 40
0.0727272727272727
 40
0.0727272727272727
 40
0.0727272727272727
 40
0.0909090909090909
 40
0.0909090909090909
 40
0.0909090909090909
 40
0.1090909090909091
 40
0.1090909090909091
 40
0.1090909090909091
 40
0.1272727272727273
 40
0.1272727272727273
 40
0.1272727272727273
 40
0.1454545454545454
 40
0.1454545454545454
 40
0.1454545454545454
 40
0.1636363636363636
 40
0.1636363636363636
 40
0.1636363636363636
 40
0.1818181818181818
 40
0.1818181818181818
 40
0.1818181818181818
 40
0.2
 40
0.2
 40
0.2
 40
0.2181818181818182
 40
0.2181818181818182
 40
0.2181818181818182
 40
0.2363636363636364
 40
0.2363636363636364
 40
0.2363636363636364
 40
0.2545454545454545
 40
0.2545454545454545
 40
0.2545454545454545
 40
0.2727272727272727
 40
0.2727272727272727
 40
0.2727272727272727
 40
0.2909090909090909
 40
0.2909090909090909
 40
0.2909090909090909
 40
0.3090909090909091
 40
0.3090909090909091
 40
0.3090909090909091
 40
0.3272727272727273
 40
0.3272727272727273
 40
0.3272727272727273
 40
0.3454545454545455
 40
0.3454545454545455
 40
0.3454545454545455
 40
0.3636363636363636
 40
0.3636363636363636
 40
0.3636363636363636
 40
0.3818181818181818
 40
0.3818181818181818
 40
0.3818181818181818
 40
0.4
 40
0.4
 40
0.4
 40
0.4181818181818182
 40
0.4181818181818182
 40
0.4181818181818182
 40
0.4363636363636363
 40
0.4363636363636363
 40
0.4363636363636363
 40
0.4545454545454545
 40
0.4545454545454545
 40
0.4545454545454545
 40
0.4727272727272727
 40
0.4727272727272727
 40
0.4727272727272727
 40
0.4909090909090909
 40
0.4909090909090909
 40
0.4909090909090909
 40
0.509090909090909
 40
0.509090909090909
 40
0.509090909090909
 40
0.5272727272727272
 40
0.5272727272727272
 40
0.5272727272727272
 40
0.5454545454545454
 40
0.5454545454545454
 40
0.5454545454545454
 40
0.5636363636363636
 40
0.5636363636363636
 40
0.5636363636363636
 40
0.5818181818181818
 40
0.5818181818181818
 40
0.5818181818181818
 40
0.6
 40
0.6
 40
0.6
 40
0.6181818181818182
 40
0.6181818181818182
 40
0.6181818181818182
 40
0.6363636363636364
 40
0.6363636363636364
 40
0.6363636363636364
 40
0.6545454545454545
 40
0.6545454545454545
 40
0.6545454545454545
 40
0.6727272727272727
 40
0.6727272727272727
 40
0.6727272727272727
 40
0.6909090909090909
 40
0.6909090909090909
 40
0.6909090909090909
 40
0.7090909090909091
 40
0.7090909090909091
 40
0.7090909090909091
 40
0.7272727272727273
 40
0.7272727272727273
 40
0.7272727272727273
 40
0.7454545454545454
 40
0.7454545454545454
 40
0.7454545454545454
 40
0.7636363636363636
 40
0.7636363636363636
 40
0.7636363636363636
 40
0.7818181818181817
 40
0.7818181818181817
 40
0.7818181818181817
 40
0.7999999999999999
 40
0.7999999999999999
 40
0.7999999999999999
 40
0.8181818181818181
 40
0.8181818181818181
 40
0.8181818181818181
 40
0.8363636363636363
 40
0.8363636363636363
 40
0.8363636363636363
 40
0.8545454545454545
 40
0.8545454545454545
 40
0.8545454545454545
 40
0.8727272727272727
 40
0.8727272727272727
 40
0.8727272727272727
 40
0.8909090909090909
 40
0.8909090909090909
 40
0.8909090909090909
 40
0.9090909090909091
 40
0.9090909090909091
 40
0.9090909090909091
 40
0.9272727272727272
 40
0.9272727272727272
 40
0.9272727272727272
 40
0.9454545454545454
 40
0.9454545454545454
 40
0.9454545454545454
 40
0.9636363636363636
 40
0.9636363636363636
 40
0.9636363636363636
 40
0.9818181818181818
 40
0.9818181818181818
 40
0.9818181818181818
 40
1.0
 40
1.0
 40
1.0
 40
1.0
 10
8.4043
 20
5.9949
 30
0.0
 10
8.3892
 20
5.8891
 30
0.0
 10
8.3611
 20
5.7876
 30
0.0
 10
8.3266
 20
5.6883
 30
0.0
 10
8.2898
 20
5.589
 30
0.0
 10
8.2316
 20
5.4509
 30
0.0
 10
8.1495
 20
5.2738
 30
0.0
 10
8.0675
 20
5.0968
 30
0.0
 10
8.0178
 20
4.9953
 30
0.0
 10
8.0006
 20
4.9694
 30
0.0
 10
7.9337
 20
4.8636
 30
0.0
 10
7.8732
 20
4.8118
 30
0.0
 10
7.8235
 20
4.8118
 30
0.0
 10
7.7847
 20
4.8377
 30
0.0
 10
7.7523
 20
4.8615
 30
0.0
 10
7.7221
 20
4.8852
 30
0.0
 10
7.6919
 20
4.909
 30
0.0
 10
7.6659
 20
4.9198
 30
0.0
 10
7.6401
 20
4.9198
 30
0.0
 10
7.5343
 20
4.9198
 30
0.0
 10
7.396
 20
4.8765
 30
0.0
 10
7.2234
 20
4.7902
 30
0.0
 10
7.0485
 20
4.7039
 30
0.0
 10
6.8606
 20
4.5656
 30
0.0
 10
6.6534
 20
4.3757
 30
0.0
 10
6.4462
 20
4.1857
 30
0.0
 10
6.2842
 20
4.0087
 30
0.0
 10
6.1676
 20
3.8446
 30
0.0
 10
6.0532
 20
3.6805
 30
0.0
 10
5.9949
 20
3.5661
 30
0.0
 10
5.9949
 20
3.5035
 30
0.0
 10
5.9949
 20
3.4107
 30
0.0
 10
6.023
 20
3.3372
 30
0.0
 10
6.0834
 20
3.2876
 30
0.0
 10
6.1331
 20
3.2487
 30
0.0
 10
6.2238
 20
3.2055
 30
0.0
 10
6.3554
 20
3.1559
 30
0.0
 10
6.485
 20
3.1041
 30
0.0
 10
6.5735
 20
3.0631
 30
0.0
 10
6.6145
 20
3.0285
 30
0.0
 10
6.7548
 20
2.9313
 30
0.0
 10
6.824
 20
2.7414
 30
0.0
 10
6.824
 20
2.4586
 30
0.0
 10
6.824
 20
2.0678
 30
0.0
 10
6.7506
 20
1.6187
 30
0.0
 10
6.6016
 20
1.1157
 30
0.0
 10
6.4548
 20
0.6105
 30
0.0
 10
6.2605
 20
0.1744
 30
0.0
 10
6.0208
 20
-0.1969
 30
0.0
 10
5.8978
 20
-0.3696
 30
0.0
 10
5.7553
 20
-0.5423
 30
0.0
 10
5.5912
 20
-0.7151
 30
0.0
 10
5.4271
 20
-0.8899
 30
0.0
 10
5.2501
 20
-1.0367
 30
0.0
 10
5.0601
 20
-1.1598
 30
0.0
 10
4.6974
 20
-1.3994
 30
0.0
 10
4.2786
 20
-1.5204
 30
0.0
 10
3.8079
 20
-1.5204
 30
0.0
 10
3.2725
 20
-1.5117
 30
0.0
 10
2.8645
 20
-1.3303
 30
0.0
 10
2.5859
 20
-0.9763
 30
0.0
 10
2.4608
 20
-0.7949
 30
0.0
 10
2.3722
 20
-0.6028
 30
0.0
 10
2.3248
 20
-0.3999
 30
0.0
 10
2.2751
 20
-0.1969
 30
0.0
 10
2.2513
 20
-0.0048
 30
0.0
 10
2.2513
 20
0.1766
 30
0.0
 10
2.2513
 20
0.4076
 30
0.0
 10
2.2686
 20
0.6343
 30
0.0
 10
2.301
 20
0.8567
 30
0.0
 10
2.3356
 20
1.0768
 30
0.0
 10
2.3874
 20
1.2992
 30
0.0
 10
2.4586
 20
1.5237
 30
0.0
 10
2.5687
 20
1.8865
 30
0.0
 10
2.7004
 20
2.2362
 30
0.0
 10
2.858
 20
2.573
 30
0.0
 10
3.0134
 20
2.9098
 30
0.0
 10
3.1386
 20
3.1818
 30
0.0
 10
3.2358
 20
3.389
 30
0.0
 10
3.2358
 20
3.389
 30
0.0
 10
3.5338
 20
4.0216
 30
0.0
 10
3.5338
 20
4.0216
 30
0.0
 10
3.5683
 20
4.0929
 30
0.0
 10
3.6028
 20
4.162
 30
0.0
 10
3.6417
 20
4.231
 30
0.0
 10
3.6784
 20
4.298
 30
0.0
 10
3.7129
 20
4.3303
 30
0.0
 10
3.7432
 20
4.3303
 30
0.0
 10
3.7842
 20
4.3303
 30
0.0
 10
3.8079
 20
4.298
 30
0.0
 10
3.8101
 20
4.231
 30
0.0
 10
3.8123
 20
4.162
 30
0.0
 10
3.8036
 20
4.1123
 30
0.0
 10
3.7863
 20
4.0777
 30
0.0
 10
3.741
 20
3.9569
 30
0.0
 10
3.7
 20
3.8532
 30
0.0
 10
3.6676
 20
3.7712
 30
0.0
 10
3.633
 20
3.6891
 30
0.0
 10
3.5834
 20
3.5704
 30
0.0
 10
3.5143
 20
3.415
 30
0.0
 10
3.4474
 20
3.2574
 30
0.0
 10
3.374
 20
3.0889
 30
0.0
 10
3.2963
 20
2.9076
 30
0.0
 10
3.2186
 20
2.7263
 30
0.0
 10
3.1538
 20
2.5773
 30
0.0
 10
3.1041
 20
2.4586
 30
0.0
 10
2.8558
 20
1.8022
 30
0.0
 10
2.7306
 20
1.3078
 30
0.0
 10
2.7306
 20
0.9797
 30
0.0
 10
2.7306
 20
0.6343
 30
0.0
 10
2.8537
 20
0.3601
 30
0.0
 10
3.102
 20
0.1572
 30
0.0
 10
3.3481
 20
-0.0458
 30
0.0
 10
3.6957
 20
-0.1473
 30
0.0
 10
4.1426
 20
-0.1473
 30
0.0
 10
4.5139
 20
-0.1473
 30
0.0
 10
4.8723
 20
-0.0609
 30
0.0
 10
5.2198
 20
0.1118
 30
0.0
 10
5.4768
 20
0.2435
 30
0.0
 10
5.6927
 20
0.4011
 30
0.0
 10
5.8654
 20
0.5868
 30
0.0
 10
6.0381
 20
0.7724
 30
0.0
 10
6.1698
 20
0.9473
 30
0.0
 10
6.2605
 20
1.1092
 30
0.0
 10
6.3512
 20
1.2711
 30
0.0
 10
6.3965
 20
1.418
 30
0.0
 10
6.3965
 20
1.5475
 30
0.0
 10
6.3965
 20
1.6274
 30
0.0
 10
6.336
 20
1.6878
 30
0.0
 10
6.2151
 20
1.7245
 30
0.0
 10
6.0942
 20
1.7634
 30
0.0
 10
6.0079
 20
1.7893
 30
0.0
 10
5.9539
 20
1.8022
 30
0.0
 10
5.9021
 20
1.813
 30
0.0
 10
5.8416
 20
1.8368
 30
0.0
 10
5.7725
 20
1.8713
 30
0.0
 10
5.643
 20
1.934
 30
0.0
 10
5.5437
 20
2.0138
 30
0.0
 10
5.4747
 20
2.1088
 30
0.0
 10
5.4077
 20
2.2038
 30
0.0
 10
5.3731
 20
2.3334
 30
0.0
 10
5.3731
 20
2.4975
 30
0.0
 10
5.3731
 20
2.7457
 30
0.0
 10
5.4552
 20
3.0631
 30
0.0
 10
5.6171
 20
3.4452
 30
0.0
 10
5.779
 20
3.8295
 30
0.0
 10
6.0079
 20
4.2073
 30
0.0
 10
6.3037
 20
4.5786
 30
0.0
 10
6.5455
 20
4.8809
 30
0.0
 10
6.7657
 20
5.1291
 30
0.0
 10
6.9621
 20
5.317
 30
0.0
 10
7.0679
 20
5.4142
 30
0.0
 10
7.204
 20
5.5264
 30
0.0
 10
7.368
 20
5.6495
 30
0.0
 10
7.5321
 20
5.7747
 30
0.0
 10
7.6919
 20
5.8805
 30
0.0
 10
7.8494
 20
5.969
 30
0.0
 10
8.0395
 20
6.0791
 30
0.0
 10
8.1884
 20
6.1417
 30
0.0
 10
8.2985
 20
6.1589
 30
0.0
 10
8.3438
 20
6.1589
 30
0.0
 10
8.3762
 20
6.1395
 30
0.0
 10
8.3935
 20
6.1029
 30
0.0
 10
8.4086
 20
6.064
 30
0.0
 10
8.4129
 20
6.0294
 30
0.0
 10
8.4043
 20
5.9949
 30
0.0
  0
SPLINE
  5
74
330
1F
100
AcDbEntity
  8
Layer 1
 62
   240
100
AcDbSpline
210
0.0
220
0.0
230
1.0
 70
    11
 71
     3
 72
    56
 73
    52
 74
     0
 42
0.0000000001
 43
0.0000000001
 40
0.0
 40
0.0
 40
0.0
 40
0.0
 40
0.0588235294117647
 40
0.0588235294117647
 40
0.0588235294117647
 40
0.1176470588235294
 40
0.1176470588235294
 40
0.1176470588235294
 40
0.1764705882352941
 40
0.1764705882352941
 40
0.1764705882352941
 40
0.2352941176470588
 40
0.2352941176470588
 40
0.2352941176470588
 40
0.2941176470588235
 40
0.2941176470588235
 40
0.2941176470588235
 40
0.3529411764705882
 40
0.3529411764705882
 40
0.3529411764705882
 40
0.4117647058823529
 40
0.4117647058823529
 40
0.4117647058823529
 40
0.4705882352941176
 40
0.4705882352941176
 40
0.4705882352941176
 40
0.5294117647058824
 40
0.5294117647058824
 40
0.5294117647058824
 40
0.5882352941176471
 40
0.5882352941176471
 40
0.5882352941176471
 40
0.6470588235294118
 40
0.6470588235294118
 40
0.6470588235294118
 40
0.7058823529411764
 40
0.7058823529411764
 40
0.7058823529411764
 40
0.7647058823529411
 40
0.7647058823529411
 40
0.7647058823529411
 40
0.8235294117647058
 40
0.8235294117647058
 40
0.8235294117647058
 40
0.8823529411764706
 40
0.8823529411764706
 40
0.8823529411764706
 40
0.9411764705882353
 40
0.9411764705882353
 40
0.9411764705882353
 40
1.0
 40
1.0
 40
1.0
 40
1.0
 10
1.7569
 20
4.136
 30
0.0
 10
1.7527
 20
4.0216
 30
0.0
 10
1.7094
 20
3.8144
 30
0.0
 10
1.6274
 20
3.5164
 30
0.0
 10
1.5453
 20
3.2164
 30
0.0
 10
1.4374
 20
2.8903
 30
0.0
 10
1.3058
 20
2.5341
 30
0.0
 10
1.1719
 20
2.1801
 30
0.0
 10
1.0553
 20
1.9123
 30
0.0
 10
0.9539
 20
1.731
 30
0.0
 10
0.8524
 20
1.5496
 30
0.0
 10
0.7423
 20
1.4115
 30
0.0
 10
0.6213
 20
1.3165
 30
0.0
 10
0.5005
 20
1.2237
 30
0.0
 10
0.3083
 20
1.1351
 30
0.0
 10
0.0406
 20
1.0574
 30
0.0
 10
-0.2271
 20
0.9797
 30
0.0
 10
-0.443
 20
0.9279
 30
0.0
 10
-0.6049
 20
0.8998
 30
0.0
 10
-0.7669
 20
0.8717
 30
0.0
 10
-0.8705
 20
0.8588
 30
0.0
 10
-0.9115
 20
0.8588
 30
0.0
 10
-0.9547
 20
0.8631
 30
0.0
 10
-0.9806
 20
0.8804
 30
0.0
 10
-0.987
 20
0.9084
 30
0.0
 10
-0.9957
 20
0.9387
 30
0.0
 10
-0.9827
 20
0.9775
 30
0.0
 10
-0.9503
 20
1.0229
 30
0.0
 10
-0.9029
 20
1.0941
 30
0.0
 10
-0.7863
 20
1.1891
 30
0.0
 10
-0.5984
 20
1.3057
 30
0.0
 10
-0.4106
 20
1.4201
 30
0.0
 10
-0.1925
 20
1.5669
 30
0.0
 10
0.0557
 20
1.7418
 30
0.0
 10
0.304
 20
1.9167
 30
0.0
 10
0.481
 20
2.07
 30
0.0
 10
0.5868
 20
2.1995
 30
0.0
 10
0.6926
 20
2.3312
 30
0.0
 10
0.8114
 20
2.5255
 30
0.0
 10
0.9452
 20
2.7889
 30
0.0
 10
1.0769
 20
3.0501
 30
0.0
 10
1.1978
 20
3.3135
 30
0.0
 10
1.3058
 20
3.5791
 30
0.0
 10
1.4116
 20
3.8446
 30
0.0
 10
1.4893
 20
4.026
 30
0.0
 10
1.5367
 20
4.1231
 30
0.0
 10
1.5821
 20
4.2203
 30
0.0
 10
1.6317
 20
4.2656
 30
0.0
 10
1.6879
 20
4.2613
 30
0.0
 10
1.7332
 20
4.2526
 30
0.0
 10
1.7569
 20
4.2116
 30
0.0
 10
1.7569
 20
4.136
 30
0.0
  0
SPLINE
  5
75
330
1F
100
AcDbEntity
  8
Layer 1
 62
   240
100
AcDbSpline
210
0.0
220
0.0
230
1.0
 70
    11
 71
     3
 72
   107
 73
   103
 74
     0
 42
0.0000000001
 43
0.0000000001
 40
0.0
 40
0.0
 40
0.0
 40
0.0
 40
0.0294117647058824
 40
0.0294117647058824
 40
0.0294117647058824
 40
0.0588235294117647
 40
0.0588235294117647
 40
0.0588235294117647
 40
0.0882352941176471
 40
0.0882352941176471
 40
0.0882352941176471
 40
0.1176470588235294
 40
0.1176470588235294
 40
0.1176470588235294
 40
0.1470588235294118
 40
0.1470588235294118
 40
0.1470588235294118
 40
0.1764705882352941
 40
0.1764705882352941
 40
0.1764705882352941
 40
0.2058823529411765
 40
0.2058823529411765
 40
0.2058823529411765
 40
0.2352941176470588
 40
0.2352941176470588
 40
0.2352941176470588
 40
0.2647058823529412
 40
0.2647058823529412
 40
0.2647058823529412
 40
0.2941176470588235
 40
0.2941176470588235
 40
0.2941176470588235
 40
0.3235294117647059
 40
0.3235294117647059
 40
0.3235294117647059
 40
0.3529411764705882
 40
0.3529411764705882
 40
0.3529411764705882
 40
0.3823529411764706
 40
0.3823529411764706
 40
0.3823529411764706
 40
0.4117647058823529
 40
0.4117647058823529
 40
0.4117647058823529
 40
0.4411764705882353
 40
0.4411764705882353
 40
0.4411764705882353
 40
0.4705882352941176
 40
0.4705882352941176
 40
0.4705882352941176
 40
0.5
 40
0.5
 40
0.5
 40
0.5294117647058824
 40
0.5294117647058824
 40
0.5294117647058824
 40
0.5588235294117647
 40
0.5588235294117647
 40
0.5588235294117647
 40
0.5882352941176471
 40
0.5882352941176471
 40
0.5882352941176471
 40
0.6176470588235294
 40
0.6176470588235294
 40
0.6176470588235294
 40
0.6470588235294118
 40
0.6470588235294118
 40
0.6470588235294118
 40
0.6764705882352942
 40
0.6764705882352942
 40
0.6764705882352942
 40
0.7058823529411764
 40
0.7058823529411764
 40
0.7058823529411764
 40
0.7352941176470588
 40
0.7352941176470588
 40
0.7352941176470588
 40
0.7647058823529411
 40
0.7647058823529411
 40
0.7647058823529411
 40
0.7941176470588235
 40
0.7941176470588235
 40
0.7941176470588235
 40
0.8235294117647058
 40
0.8235294117647058
 40
0.8235294117647058
 40
0.8529411764705882
 40
0.8529411764705882
 40
0.8529411764705882
 40
0.8823529411764706
 40
0.8823529411764706
 40
0.8823529411764706
 40
0.9117647058823529
 40
0.9117647058823529
 40
0.9117647058823529
 40
0.9411764705882353
 40
0.9411764705882353
 40
0.9411764705882353
 40
0.9705882352941176
 40
0.9705882352941176
 40
0.9705882352941176
 40
1.0
 40
1.0
 40
1.0
 40
1.0
 10
-5.4841
 20
3.2444
 30
0.0
 10
-5.4839
 20
2.8913
 30
0.0
 10
-5.4234
 20
2.6244
 30
0.0
 10
-5.3006
 20
2.4434
 30
0.0
 10
-5.1279
 20
2.1909
 30
0.0
 10
-4.9033
 20
2.0635
 30
0.0
 10
-4.6292
 20
2.0635
 30
0.0
 10
-4.4651
 20
2.0635
 30
0.0
 10
-4.3269
 20
2.0916
 30
0.0
 10
-4.2168
 20
2.1498
 30
0.0
 10
-4.1045
 20
2.206
 30
0.0
 10
-4.0074
 20
2.3031
 30
0.0
 10
-3.9254
 20
2.4434
 30
0.0
 10
-3.8433
 20
2.5816
 30
0.0
 10
-3.7613
 20
2.7047
 30
0.0
 10
-3.6792
 20
2.8126
 30
0.0
 10
-3.5951
 20
2.9206
 30
0.0
 10
-3.5022
 20
2.9573
 30
0.0
 10
-3.3964
 20
2.9227
 30
0.0
 10
-3.3208
 20
2.8861
 30
0.0
 10
-3.2323
 20
2.8515
 30
0.0
 10
-3.1287
 20
2.8256
 30
0.0
 10
-3.0251
 20
2.7976
 30
0.0
 10
-2.9409
 20
2.7824
 30
0.0
 10
-2.8783
 20
2.7781
 30
0.0
 10
-2.8351
 20
2.8105
 30
0.0
 10
-2.7552
 20
2.9292
 30
0.0
 10
-2.6386
 20
3.1278
 30
0.0
 10
-2.5199
 20
3.3286
 30
0.0
 10
-2.4012
 20
3.5208
 30
0.0
 10
-2.2802
 20
3.7064
 30
0.0
 10
-2.1594
 20
3.8921
 30
0.0
 10
-2.019
 20
4.054
 30
0.0
 10
-1.8571
 20
4.1943
 30
0.0
 10
-1.6952
 20
4.3325
 30
0.0
 10
-1.5354
 20
4.4124
 30
0.0
 10
-1.38
 20
4.434
 30
0.0
 10
-1.0583
 20
4.4426
 30
0.0
 10
-0.8942
 20
4.2936
 30
0.0
 10
-0.8856
 20
3.985
 30
0.0
 10
-0.8856
 20
3.5337
 30
0.0
 10
-1.0755
 20
3.0695
 30
0.0
 10
-1.4555
 20
2.5946
 30
0.0
 10
-1.8852
 20
2.0592
 30
0.0
 10
-2.3687
 20
1.7915
 30
0.0
 10
-2.9042
 20
1.7915
 30
0.0
 10
-3.1265
 20
1.7957
 30
0.0
 10
-3.3036
 20
1.8238
 30
0.0
 10
-3.4353
 20
1.8778
 30
0.0
 10
-3.5648
 20
1.9296
 30
0.0
 10
-3.6663
 20
1.9815
 30
0.0
 10
-3.7375
 20
2.0311
 30
0.0
 10
-3.7721
 20
2.0398
 30
0.0
 10
-3.826
 20
1.9944
 30
0.0
 10
-3.8995
 20
1.8929
 30
0.0
 10
-3.9728
 20
1.7915
 30
0.0
 10
-4.07
 20
1.6425
 30
0.0
 10
-4.1909
 20
1.4482
 30
0.0
 10
-4.3118
 20
1.2539
 30
0.0
 10
-4.4456
 20
1.1071
 30
0.0
 10
-4.5946
 20
1.0077
 30
0.0
 10
-4.7457
 20
0.9084
 30
0.0
 10
-4.9206
 20
0.8588
 30
0.0
 10
-5.1236
 20
0.8588
 30
0.0
 10
-5.4237
 20
0.8674
 30
0.0
 10
-5.6525
 20
0.9862
 30
0.0
 10
-5.8123
 20
1.2172
 30
0.0
 10
-5.9741
 20
1.4458
 30
0.0
 10
-6.0454
 20
1.7845
 30
0.0
 10
-6.0282
 20
2.231
 30
0.0
 10
-6.0282
 20
2.231
 30
0.0
 10
-6.0347
 20
2.2319
 30
0.0
 10
-6.0347
 20
2.2319
 30
0.0
 10
-6.0303
 20
2.56
 30
0.0
 10
-5.9958
 20
3.0199
 30
0.0
 10
-5.931
 20
3.6071
 30
0.0
 10
-5.8641
 20
4.1965
 30
0.0
 10
-5.7669
 20
4.8463
 30
0.0
 10
-5.6353
 20
5.5588
 30
0.0
 10
-5.5683
 20
5.766
 30
0.0
 10
-5.4323
 20
6.1309
 30
0.0
 10
-5.225
 20
6.6533
 30
0.0
 10
-5.2034
 20
6.703
 30
0.0
 10
-5.1819
 20
6.7246
 30
0.0
 10
-5.1581
 20
6.716
 30
0.0
 10
-5.1344
 20
6.7074
 30
0.0
 10
-5.1236
 20
6.6879
 30
0.0
 10
-5.1236
 20
6.6533
 30
0.0
 10
-5.1365
 20
6.3965
 30
0.0
 10
-5.1884
 20
5.9042
 30
0.0
 10
-5.2812
 20
5.1789
 30
0.0
 10
-5.374
 20
4.4534
 30
0.0
 10
-5.4323
 20
3.9569
 30
0.0
 10
-5.4517
 20
3.687
 30
0.0
 10
-5.4728
 20
3.424
 30
0.0
 10
-5.4836
 20
3.2779
 30
0.0
 10
-5.4841
 20
3.2466
 30
0.0
 10
-5.4841
 20
3.2466
 30
0.0
 10
-5.4841
 20
3.2457
 30
0.0
 10
-5.4841
 20
3.2457
 30
0.0
 10
-5.4841
 20
3.2457
 30
0.0
 10
-5.4841
 20
3.2444
 30
0.0
 10
-5.4841
 20
3.2444
 30
0.0
  0
SPLINE
  5
76
330
1F
100
AcDbEntity
  8
Layer 1
 62
   240
100
AcDbSpline
210
0.0
220
0.0
230
1.0
 70
    11
 71
     3
 72
    32
 73
    28
 74
     0
 42
0.0000000001
 43
0.0000000001
 40
0.0
 40
0.0
 40
0.0
 40
0.0
 40
0.1111111111111111
 40
0.1111111111111111
 40
0.1111111111111111
 40
0.2222222222222222
 40
0.2222222222222222
 40
0.2222222222222222
 40
0.3333333333333333
 40
0.3333333333333333
 40
0.3333333333333333
 40
0.4444444444444444
 40
0.4444444444444444
 40
0.4444444444444444
 40
0.5555555555555556
 40
0.5555555555555556
 40
0.5555555555555556
 40
0.6666666666666666
 40
0.6666666666666666
 40
0.6666666666666666
 40
0.7777777777777777
 40
0.7777777777777777
 40
0.7777777777777777
 40
0.8888888888888888
 40
0.8888888888888888
 40
0.8888888888888888
 40
1.0
 40
1.0
 40
1.0
 40
1.0
 10
-1.2958
 20
3.5423
 30
0.0
 10
-1.3044
 20
3.6114
 30
0.0
 10
-1.3541
 20
3.6654
 30
0.0
 10
-1.4447
 20
3.7107
 30
0.0
 10
-1.5354
 20
3.7539
 30
0.0
 10
-1.6282
 20
3.7776
 30
0.0
 10
-1.7211
 20
3.7776
 30
0.0
 10
-1.8765
 20
3.769
 30
0.0
 10
-2.0147
 20
3.6805
 30
0.0
 10
-2.1313
 20
3.5121
 30
0.0
 10
-2.25
 20
3.3437
 30
0.0
 10
-2.3385
 20
3.2099
 30
0.0
 10
-2.4012
 20
3.1106
 30
0.0
 10
-2.4616
 20
3.0113
 30
0.0
 10
-2.5307
 20
2.899
 30
0.0
 10
-2.6063
 20
2.7781
 30
0.0
 10
-2.522
 20
2.7738
 30
0.0
 10
-2.4033
 20
2.7867
 30
0.0
 10
-2.2522
 20
2.8191
 30
0.0
 10
-2.1011
 20
2.8515
 30
0.0
 10
-1.9499
 20
2.9163
 30
0.0
 10
-1.7988
 20
3.0177
 30
0.0
 10
-1.6498
 20
3.1192
 30
0.0
 10
-1.5289
 20
3.2207
 30
0.0
 10
-1.4361
 20
3.3243
 30
0.0
 10
-1.3433
 20
3.4279
 30
0.0
 10
-1.2958
 20
3.5013
 30
0.0
 10
-1.2958
 20
3.5423
 30
0.0
  0
SPLINE
  5
77
330
1F
100
AcDbEntity
  8
Layer 1
 62
   240
100
AcDbSpline
210
0.0
220
0.0
230
1.0
 70
    11
 71
     3
 72
    32
 73
    28
 74
     0
 42
0.0000000001
 43
0.0000000001
 40
0.0
 40
0.0
 40
0.0
 40
0.0
 40
0.1111111111111111
 40
0.1111111111111111
 40
0.1111111111111111
 40
0.2222222222222222
 40
0.2222222222222222
 40
0.2222222222222222
 40
0.3333333333333333
 40
0.3333333333333333
 40
0.3333333333333333
 40
0.4444444444444444
 40
0.4444444444444444
 40
0.4444444444444444
 40
0.5555555555555556
 40
0.5555555555555556
 40
0.5555555555555556
 40
0.6666666666666666
 40
0.6666666666666666
 40
0.6666666666666666
 40
0.7777777777777777
 40
0.7777777777777777
 40
0.7777777777777777
 40
0.8888888888888888
 40
0.8888888888888888
 40
0.8888888888888888
 40
1.0
 40
1.0
 40
1.0
 40
1.0
 10
-3.6339
 20
5.8524
 30
0.0
 10
-3.6339
 20
5.9452
 30
0.0
 10
-3.5562
 20
6.146
 30
0.0
 10
-3.3964
 20
6.4569
 30
0.0
 10
-3.2388
 20
6.7678
 30
0.0
 10
-3.1374
 20
6.9211
 30
0.0
 10
-3.0899
 20
6.9211
 30
0.0
 10
-2.997
 20
6.9599
 30
0.0
 10
-2.8631
 20
6.8887
 30
0.0
 10
-2.6861
 20
6.7095
 30
0.0
 10
-2.5091
 20
6.5303
 30
0.0
 10
-2.4141
 20
6.39
 30
0.0
 10
-2.4012
 20
6.2885
 30
0.0
 10
-2.4012
 20
6.1547
 30
0.0
 10
-2.4745
 20
5.9604
 30
0.0
 10
-2.6213
 20
5.7078
 30
0.0
 10
-2.7703
 20
5.4552
 30
0.0
 10
-2.8783
 20
5.3278
 30
0.0
 10
-2.9452
 20
5.3278
 30
0.0
 10
-2.9711
 20
5.3407
 30
0.0
 10
-3.0574
 20
5.3969
 30
0.0
 10
-3.2065
 20
5.4962
 30
0.0
 10
-3.3575
 20
5.5955
 30
0.0
 10
-3.4676
 20
5.6689
 30
0.0
 10
-3.5389
 20
5.7207
 30
0.0
 10
-3.6015
 20
5.7618
 30
0.0
 10
-3.6339
 20
5.807
 30
0.0
 10
-3.6339
 20
5.8524
 30
0.0
  0
SPLINE
  5
78
330
1F
100
AcDbEntity
  8
Layer 1
 62
   240
100
AcDbSpline
210
0.0
220
0.0
230
1.0
 70
    11
 71
     3
 72
   122
 73
   118
 74
     0
 42
0.0000000001
 43
0.0000000001
 40
0.0
 40
0.0
 40
0.0
 40
0.0
 40
0.0256410256410256
 40
0.0256410256410256
 40
0.0256410256410256
 40
0.0512820512820513
 40
0.0512820512820513
 40
0.0512820512820513
 40
0.0769230769230769
 40
0.0769230769230769
 40
0.0769230769230769
 40
0.1025641025641026
 40
0.1025641025641026
 40
0.1025641025641026
 40
0.1282051282051282
 40
0.1282051282051282
 40
0.1282051282051282
 40
0.1538461538461539
 40
0.1538461538461539
 40
0.1538461538461539
 40
0.1794871794871795
 40
0.1794871794871795
 40
0.1794871794871795
 40
0.2051282051282051
 40
0.2051282051282051
 40
0.2051282051282051
 40
0.2307692307692308
 40
0.2307692307692308
 40
0.2307692307692308
 40
0.2564102564102564
 40
0.2564102564102564
 40
0.2564102564102564
 40
0.282051282051282
 40
0.282051282051282
 40
0.282051282051282
 40
0.3076923076923077
 40
0.3076923076923077
 40
0.3076923076923077
 40
0.3333333333333333
 40
0.3333333333333333
 40
0.3333333333333333
 40
0.358974358974359
 40
0.358974358974359
 40
0.358974358974359
 40
0.3846153846153846
 40
0.3846153846153846
 40
0.3846153846153846
 40
0.4102564102564102
 40
0.4102564102564102
 40
0.4102564102564102
 40
0.4358974358974359
 40
0.4358974358974359
 40
0.4358974358974359
 40
0.4615384615384615
 40
0.4615384615384615
 40
0.4615384615384615
 40
0.4871794871794872
 40
0.4871794871794872
 40
0.4871794871794872
 40
0.5128205128205128
 40
0.5128205128205128
 40
0.5128205128205128
 40
0.5384615384615384
 40
0.5384615384615384
 40
0.5384615384615384
 40
0.5641025641025641
 40
0.5641025641025641
 40
0.5641025641025641
 40
0.5897435897435898
 40
0.5897435897435898
 40
0.5897435897435898
 40
0.6153846153846154
 40
0.6153846153846154
 40
0.6153846153846154
 40
0.641025641025641
 40
0.641025641025641
 40
0.641025641025641
 40
0.6666666666666666
 40
0.6666666666666666
 40
0.6666666666666666
 40
0.6923076923076923
 40
0.6923076923076923
 40
0.6923076923076923
 40
0.717948717948718
 40
0.717948717948718
 40
0.717948717948718
 40
0.7435897435897436
 40
0.7435897435897436
 40
0.7435897435897436
 40
0.7692307692307692
 40
0.7692307692307692
 40
0.7692307692307692
 40
0.7948717948717948
 40
0.7948717948717948
 40
0.7948717948717948
 40
0.8205128205128205
 40
0.8205128205128205
 40
0.8205128205128205
 40
0.8461538461538461
 40
0.8461538461538461
 40
0.8461538461538461
 40
0.8717948717948718
 40
0.8717948717948718
 40
0.8717948717948718
 40
0.8974358974358974
 40
0.8974358974358974
 40
0.8974358974358974
 40
0.923076923076923
 40
0.923076923076923
 40
0.923076923076923
 40
0.9487179487179487
 40
0.9487179487179487
 40
0.9487179487179487
 40
0.9743589743589743
 40
0.9743589743589743
 40
0.9743589743589743
 40
1.0
 40
1.0
 40
1.0
 40
1.0
 10
-10.3504
 20
3.13
 30
0.0
 10
-10.3504
 20
2.9724
 30
0.0
 10
-10.3288
 20
2.8234
 30
0.0
 10
-10.2878
 20
2.681
 30
0.0
 10
-10.2316
 20
2.5082
 30
0.0
 10
-10.128
 20
2.383
 30
0.0
 10
-9.9769
 20
2.3096
 30
0.0
 10
-9.8257
 20
2.2362
 30
0.0
 10
-9.6551
 20
2.193
 30
0.0
 10
-9.4652
 20
2.1801
 30
0.0
 10
-9.4652
 20
2.1801
 30
0.0
 10
-9.0852
 20
2.737
 30
0.0
 10
-9.0852
 20
2.737
 30
0.0
 10
-9.0226
 20
2.8428
 30
0.0
 10
-8.9665
 20
3.0221
 30
0.0
 10
-8.9211
 20
3.2747
 30
0.0
 10
-8.8996
 20
3.4128
 30
0.0
 10
-8.8866
 20
3.7194
 30
0.0
 10
-8.8823
 20
4.1879
 30
0.0
 10
-8.8779
 20
4.6585
 30
0.0
 10
-8.8585
 20
5.0083
 30
0.0
 10
-8.8196
 20
5.2349
 30
0.0
 10
-8.7765
 20
5.4465
 30
0.0
 10
-8.6945
 20
5.7185
 30
0.0
 10
-8.5735
 20
6.0532
 30
0.0
 10
-8.4505
 20
6.39
 30
0.0
 10
-8.375
 20
6.5843
 30
0.0
 10
-8.349
 20
6.6361
 30
0.0
 10
-8.3209
 20
6.6879
 30
0.0
 10
-8.2994
 20
6.7311
 30
0.0
 10
-8.2821
 20
6.7656
 30
0.0
 10
-8.2605
 20
6.8001
 30
0.0
 10
-8.2411
 20
6.8066
 30
0.0
 10
-8.2259
 20
6.7872
 30
0.0
 10
-8.2087
 20
6.7678
 30
0.0
 10
-8.2044
 20
6.7354
 30
0.0
 10
-8.213
 20
6.6879
 30
0.0
 10
-8.2584
 20
6.4051
 30
0.0
 10
-8.2907
 20
6.1762
 30
0.0
 10
-8.308
 20
5.9971
 30
0.0
 10
-8.3231
 20
5.8178
 30
0.0
 10
-8.3317
 20
5.6473
 30
0.0
 10
-8.3296
 20
5.4854
 30
0.0
 10
-8.3274
 20
5.3234
 30
0.0
 10
-8.3296
 20
5.1141
 30
0.0
 10
-8.3382
 20
4.8571
 30
0.0
 10
-8.3469
 20
4.6002
 30
0.0
 10
-8.3727
 20
4.3628
 30
0.0
 10
-8.416
 20
4.1468
 30
0.0
 10
-8.457
 20
3.9288
 30
0.0
 10
-8.5087
 20
3.7194
 30
0.0
 10
-8.5735
 20
3.5143
 30
0.0
 10
-8.6362
 20
3.3113
 30
0.0
 10
-8.6793
 20
3.1818
 30
0.0
 10
-8.6988
 20
3.1257
 30
0.0
 10
-8.5973
 20
3.253
 30
0.0
 10
-8.4742
 20
3.3977
 30
0.0
 10
-8.3253
 20
3.5639
 30
0.0
 10
-8.0446
 20
3.8684
 30
0.0
 10
-7.7877
 20
4.0195
 30
0.0
 10
-7.561
 20
4.0195
 30
0.0
 10
-7.4229
 20
4.0195
 30
0.0
 10
-7.2955
 20
3.9742
 30
0.0
 10
-7.1811
 20
3.8856
 30
0.0
 10
-7.0645
 20
3.8014
 30
0.0
 10
-7.004
 20
3.6827
 30
0.0
 10
-7.004
 20
3.525
 30
0.0
 10
-7.004
 20
3.1192
 30
0.0
 10
-7.2436
 20
2.6075
 30
0.0
 10
-7.7186
 20
1.9858
 30
0.0
 10
-8.3015
 20
1.2345
 30
0.0
 10
-8.9384
 20
0.8588
 30
0.0
 10
-9.6293
 20
0.8588
 30
0.0
 10
-10.0848
 20
0.8588
 30
0.0
 10
-10.4194
 20
1.01
 30
0.0
 10
-10.6353
 20
1.3143
 30
0.0
 10
-10.808
 20
1.554
 30
0.0
 10
-10.8965
 20
1.854
 30
0.0
 10
-10.9009
 20
2.2124
 30
0.0
 10
-10.9009
 20
2.2124
 30
0.0
 10
-10.8965
 20
2.2312
 30
0.0
 10
-10.8965
 20
2.2312
 30
0.0
 10
-10.8965
 20
2.2312
 30
0.0
 10
-10.9009
 20
2.2319
 30
0.0
 10
-10.9009
 20
2.2319
 30
0.0
 10
-10.8965
 20
2.56
 30
0.0
 10
-10.862
 20
3.0199
 30
0.0
 10
-10.7973
 20
3.6071
 30
0.0
 10
-10.7303
 20
4.1965
 30
0.0
 10
-10.6332
 20
4.8463
 30
0.0
 10
-10.5015
 20
5.5588
 30
0.0
 10
-10.4346
 20
5.766
 30
0.0
 10
-10.2986
 20
6.1309
 30
0.0
 10
-10.0913
 20
6.6533
 30
0.0
 10
-10.0697
 20
6.703
 30
0.0
 10
-10.0481
 20
6.7246
 30
0.0
 10
-10.0244
 20
6.716
 30
0.0
 10
-10.0006
 20
6.7074
 30
0.0
 10
-9.9898
 20
6.6879
 30
0.0
 10
-9.9898
 20
6.6533
 30
0.0
 10
-10.0027
 20
6.3965
 30
0.0
 10
-10.0546
 20
5.9042
 30
0.0
 10
-10.1474
 20
5.1789
 30
0.0
 10
-10.2403
 20
4.4534
 30
0.0
 10
-10.2986
 20
3.9569
 30
0.0
 10
-10.318
 20
3.687
 30
0.0
 10
-10.3396
 20
3.4171
 30
0.0
 10
-10.3504
 20
3.2703
 30
0.0
 10
-10.3504
 20
3.2444
 30
0.0
 10
-10.3504
 20
3.2444
 30
0.0
 10
-10.3508
 20
3.2358
 30
0.0
 10
-10.3508
 20
3.2358
 30
0.0
 10
-10.3508
 20
3.2358
 30
0.0
 10
-10.3504
 20
3.2358
 30
0.0
 10
-10.3504
 20
3.2358
 30
0.0
 10
-10.3504
 20
3.2358
 30
0.0
 10
-10.3504
 20
3.13
 30
0.0
 10
-10.3504
 20
3.13
 30
0.0
  0
SPLINE
  5
79
330
1F
100
AcDbEntity
  8
Layer 1
 62
   240
100
AcDbSpline
210
0.0
220
0.0
230
1.0
 70
    11
 71
     3
 72
    26
 73
    22
 74
     0
 42
0.0000000001
 43
0.0000000001
 40
0.0
 40
0.0
 40
0.0
 40
0.0
 40
0.1428571428571428
 40
0.1428571428571428
 40
0.1428571428571428
 40
0.2857142857142857
 40
0.2857142857142857
 40
0.2857142857142857
 40
0.4285714285714285
 40
0.4285714285714285
 40
0.4285714285714285
 40
0.5714285714285714
 40
0.5714285714285714
 40
0.5714285714285714
 40
0.7142857142857142
 40
0.7142857142857142
 40
0.7142857142857142
 40
0.8571428571428571
 40
0.8571428571428571
 40
0.8571428571428571
 40
1.0
 40
1.0
 40
1.0
 40
1.0
 10
-7.4725
 20
2.9421
 30
0.0
 10
-7.4725
 20
2.9961
 30
0.0
 10
-7.5222
 20
3.0544
 30
0.0
 10
-7.6236
 20
3.1192
 30
0.0
 10
-7.7337
 20
3.1818
 30
0.0
 10
-7.8438
 20
3.2142
 30
0.0
 10
-7.9539
 20
3.2142
 30
0.0
 10
-8.1547
 20
3.2228
 30
0.0
 10
-8.4008
 20
3.0631
 30
0.0
 10
-8.6858
 20
2.7393
 30
0.0
 10
-8.7722
 20
2.6507
 30
0.0
 10
-8.9341
 20
2.4586
 30
0.0
 10
-9.1737
 20
2.1628
 30
0.0
 10
-8.8196
 20
2.1801
 30
0.0
 10
-8.5282
 20
2.2297
 30
0.0
 10
-8.2972
 20
2.3096
 30
0.0
 10
-8.0683
 20
2.3895
 30
0.0
 10
-7.874
 20
2.4952
 30
0.0
 10
-7.7186
 20
2.6248
 30
0.0
 10
-7.5545
 20
2.7565
 30
0.0
 10
-7.4725
 20
2.8623
 30
0.0
 10
-7.4725
 20
2.9421
 30
0.0
  0
SPLINE
  5
7A
330
1F
100
AcDbEntity
  8
Layer 1
 62
   240
100
AcDbSpline
210
0.0
220
0.0
230
1.0
 70
    11
 71
     3
 72
   218
 73
   214
 74
     0
 42
0.0000000001
 43
0.0000000001
 40
0.0
 40
0.0
 40
0.0
 40
0.0
 40
0.0140845070422535
 40
0.0140845070422535
 40
0.0140845070422535
 40
0.028169014084507
 40
0.028169014084507
 40
0.028169014084507
 40
0.0422535211267606
 40
0.0422535211267606
 40
0.0422535211267606
 40
0.0563380281690141
 40
0.0563380281690141
 40
0.0563380281690141
 40
0.0704225352112676
 40
0.0704225352112676
 40
0.0704225352112676
 40
0.0845070422535211
 40
0.0845070422535211
 40
0.0845070422535211
 40
0.0985915492957747
 40
0.0985915492957747
 40
0.0985915492957747
 40
0.1126760563380282
 40
0.1126760563380282
 40
0.1126760563380282
 40
0.1267605633802817
 40
0.1267605633802817
 40
0.1267605633802817
 40
0.1408450704225352
 40
0.1408450704225352
 40
0.1408450704225352
 40
0.1549295774647887
 40
0.1549295774647887
 40
0.1549295774647887
 40
0.1690140845070423
 40
0.1690140845070423
 40
0.1690140845070423
 40
0.1830985915492958
 40
0.1830985915492958
 40
0.1830985915492958
 40
0.1971830985915493
 40
0.1971830985915493
 40
0.1971830985915493
 40
0.2112676056338028
 40
0.2112676056338028
 40
0.2112676056338028
 40
0.2253521126760563
 40
0.2253521126760563
 40
0.2253521126760563
 40
0.2394366197183099
 40
0.2394366197183099
 40
0.2394366197183099
 40
0.2535211267605634
 40
0.2535211267605634
 40
0.2535211267605634
 40
0.2676056338028169
 40
0.2676056338028169
 40
0.2676056338028169
 40
0.2816901408450704
 40
0.2816901408450704
 40
0.2816901408450704
 40
0.2957746478873239
 40
0.2957746478873239
 40
0.2957746478873239
 40
0.3098591549295775
 40
0.3098591549295775
 40
0.3098591549295775
 40
0.323943661971831
 40
0.323943661971831
 40
0.323943661971831
 40
0.3380281690140845
 40
0.3380281690140845
 40
0.3380281690140845
 40
0.3521126760563381
 40
0.3521126760563381
 40
0.3521126760563381
 40
0.3661971830985916
 40
0.3661971830985916
 40
0.3661971830985916
 40
0.3802816901408451
 40
0.3802816901408451
 40
0.3802816901408451
 40
0.3943661971830986
 40
0.3943661971830986
 40
0.3943661971830986
 40
0.4084507042253521
 40
0.4084507042253521
 40
0.4084507042253521
 40
0.4225352112676056
 40
0.4225352112676056
 40
0.4225352112676056
 40
0.4366197183098592
 40
0.4366197183098592
 40
0.4366197183098592
 40
0.4507042253521127
 40
0.4507042253521127
 40
0.4507042253521127
 40
0.4647887323943662
 40
0.4647887323943662
 40
0.4647887323943662
 40
0.4788732394366197
 40
0.4788732394366197
 40
0.4788732394366197
 40
0.4929577464788732
 40
0.4929577464788732
 40
0.4929577464788732
 40
0.5070422535211268
 40
0.5070422535211268
 40
0.5070422535211268
 40
0.5211267605633803
 40
0.5211267605633803
 40
0.5211267605633803
 40
0.5352112676056339
 40
0.5352112676056339
 40
0.5352112676056339
 40
0.5492957746478874
 40
0.5492957746478874
 40
0.5492957746478874
 40
0.5633802816901409
 40
0.5633802816901409
 40
0.5633802816901409
 40
0.5774647887323944
 40
0.5774647887323944
 40
0.5774647887323944
 40
0.5915492957746479
 40
0.5915492957746479
 40
0.5915492957746479
 40
0.6056338028169014
 40
0.6056338028169014
 40
0.6056338028169014
 40
0.619718309859155
 40
0.619718309859155
 40
0.619718309859155
 40
0.6338028169014085
 40
0.6338028169014085
 40
0.6338028169014085
 40
0.647887323943662
 40
0.647887323943662
 40
0.647887323943662
 40
0.6619718309859155
 40
0.6619718309859155
 40
0.6619718309859155
 40
0.676056338028169
 40
0.676056338028169
 40
0.676056338028169
 40
0.6901408450704225
 40
0.6901408450704225
 40
0.6901408450704225
 40
0.7042253521126761
 40
0.7042253521126761
 40
0.7042253521126761
 40
0.7183098591549296
 40
0.7183098591549296
 40
0.7183098591549296
 40
0.7323943661971831
 40
0.7323943661971831
 40
0.7323943661971831
 40
0.7464788732394366
 40
0.7464788732394366
 40
0.7464788732394366
 40
0.7605633802816901
 40
0.7605633802816901
 40
0.7605633802816901
 40
0.7746478873239436
 40
0.7746478873239436
 40
0.7746478873239436
 40
0.7887323943661972
 40
0.7887323943661972
 40
0.7887323943661972
 40
0.8028169014084507
 40
0.8028169014084507
 40
0.8028169014084507
 40
0.8169014084507042
 40
0.8169014084507042
 40
0.8169014084507042
 40
0.8309859154929577
 40
0.8309859154929577
 40
0.8309859154929577
 40
0.8450704225352113
 40
0.8450704225352113
 40
0.8450704225352113
 40
0.8591549295774648
 40
0.8591549295774648
 40
0.8591549295774648
 40
0.8732394366197184
 40
0.8732394366197184
 40
0.8732394366197184
 40
0.8873239436619719
 40
0.8873239436619719
 40
0.8873239436619719
 40
0.9014084507042254
 40
0.9014084507042254
 40
0.9014084507042254
 40
0.9154929577464789
 40
0.9154929577464789
 40
0.9154929577464789
 40
0.9295774647887324
 40
0.9295774647887324
 40
0.9295774647887324
 40
0.943661971830986
 40
0.943661971830986
 40
0.943661971830986
 40
0.9577464788732395
 40
0.9577464788732395
 40
0.9577464788732395
 40
0.971830985915493
 40
0.971830985915493
 40
0.971830985915493
 40
0.9859154929577465
 40
0.9859154929577465
 40
0.9859154929577465
 40
1.0
 40
1.0
 40
1.0
 40
1.0
 10
-12.464
 20
5.3041
 30
0.0
 10
-12.3625
 20
5.3753
 30
0.0
 10
-12.2762
 20
5.4638
 30
0.0
 10
-12.2049
 20
5.5696
 30
0.0
 10
-12.1294
 20
5.6754
 30
0.0
 10
-12.0905
 20
5.7812
 30
0.0
 10
-12.0905
 20
5.887
 30
0.0
 10
-12.0905
 20
5.887
 30
0.0
 10
-12.0905
 20
6.3037
 30
0.0
 10
-12.0905
 20
6.3037
 30
0.0
 10
-12.0905
 20
6.4051
 30
0.0
 10
-12.0732
 20
6.5174
 30
0.0
 10
-12.0408
 20
6.6383
 30
0.0
 10
-11.9804
 20
6.8066
 30
0.0
 10
-11.9199
 20
6.9621
 30
0.0
 10
-11.8574
 20
7.1002
 30
0.0
 10
-11.8574
 20
7.1002
 30
0.0
 10
-11.5983
 20
7.7264
 30
0.0
 10
-11.5983
 20
7.7264
 30
0.0
 10
-11.5939
 20
7.7566
 30
0.0
 10
-11.5723
 20
7.7912
 30
0.0
 10
-11.5335
 20
7.8278
 30
0.0
 10
-11.5162
 20
7.8278
 30
0.0
 10
-11.5098
 20
7.7847
 30
0.0
 10
-11.5098
 20
7.6962
 30
0.0
 10
-11.5098
 20
7.6962
 30
0.0
 10
-11.5205
 20
7.2471
 30
0.0
 10
-11.5205
 20
7.2471
 30
0.0
 10
-11.5205
 20
7.2471
 30
0.0
 10
-11.5465
 20
6.7031
 30
0.0
 10
-11.5465
 20
6.7031
 30
0.0
 10
-11.5465
 20
6.513
 30
0.0
 10
-11.5853
 20
6.2972
 30
0.0
 10
-11.6608
 20
6.0575
 30
0.0
 10
-11.7321
 20
5.8157
 30
0.0
 10
-11.8249
 20
5.6042
 30
0.0
 10
-11.9394
 20
5.4184
 30
0.0
 10
-12.1121
 20
5.1356
 30
0.0
 10
-12.287
 20
4.9198
 30
0.0
 10
-12.464
 20
4.773
 30
0.0
 10
-12.5611
 20
4.6844
 30
0.0
 10
-12.6626
 20
4.6154
 30
0.0
 10
-12.7684
 20
4.5635
 30
0.0
 10
-12.8807
 20
4.5096
 30
0.0
 10
-13.0038
 20
4.4794
 30
0.0
 10
-13.1354
 20
4.475
 30
0.0
 10
-13.2283
 20
4.4664
 30
0.0
 10
-13.3297
 20
4.4621
 30
0.0
 10
-13.4441
 20
4.4621
 30
0.0
 10
-13.5154
 20
4.4621
 30
0.0
 10
-13.6687
 20
4.4384
 30
0.0
 10
-13.8997
 20
4.3865
 30
0.0
 10
-14.135
 20
4.3412
 30
0.0
 10
-14.3337
 20
4.2829
 30
0.0
 10
-14.4934
 20
4.216
 30
0.0
 10
-14.6208
 20
4.1663
 30
0.0
 10
-14.7438
 20
4.1102
 30
0.0
 10
-14.8604
 20
4.0519
 30
0.0
 10
-14.9381
 20
4.013
 30
0.0
 10
-15.0332
 20
3.9504
 30
0.0
 10
-15.1519
 20
3.8619
 30
0.0
 10
-15.2706
 20
3.7734
 30
0.0
 10
-15.3354
 20
3.6891
 30
0.0
 10
-15.3483
 20
3.6093
 30
0.0
 10
-15.3483
 20
3.6093
 30
0.0
 10
-15.3489
 20
3.6089
 30
0.0
 10
-15.3489
 20
3.6089
 30
0.0
 10
-15.3489
 20
3.6089
 30
0.0
 10
-15.3483
 20
3.605
 30
0.0
 10
-15.3483
 20
3.605
 30
0.0
 10
-15.3483
 20
3.5467
 30
0.0
 10
-15.3008
 20
3.4862
 30
0.0
 10
-15.2059
 20
3.4279
 30
0.0
 10
-15.1109
 20
3.3696
 30
0.0
 10
-15.0159
 20
3.3049
 30
0.0
 10
-14.9187
 20
3.2358
 30
0.0
 10
-14.8216
 20
3.1645
 30
0.0
 10
-14.7525
 20
3.0868
 30
0.0
 10
-14.7093
 20
2.9983
 30
0.0
 10
-14.6683
 20
2.9011
 30
0.0
 10
-14.6467
 20
2.7587
 30
0.0
 10
-14.6467
 20
2.5687
 30
0.0
 10
-14.6467
 20
2.2901
 30
0.0
 10
-14.6834
 20
2.0052
 30
0.0
 10
-14.7546
 20
1.7137
 30
0.0
 10
-14.8259
 20
1.4309
 30
0.0
 10
-14.9597
 20
1.0812
 30
0.0
 10
-15.154
 20
0.6645
 30
0.0
 10
-15.4606
 20
0.019
 30
0.0
 10
-15.8773
 20
-0.4948
 30
0.0
 10
-16.4062
 20
-0.8792
 30
0.0
 10
-16.5984
 20
-1.0022
 30
0.0
 10
-16.7884
 20
-1.095
 30
0.0
 10
-16.9741
 20
-1.1577
 30
0.0
 10
-17.1769
 20
-1.2245
 30
0.0
 10
-17.395
 20
-1.2591
 30
0.0
 10
-17.626
 20
-1.2591
 30
0.0
 10
-18.1701
 20
-1.2591
 30
0.0
 10
-18.5868
 20
-1.0562
 30
0.0
 10
-18.8782
 20
-0.6525
 30
0.0
 10
-19.1265
 20
-0.307
 30
0.0
 10
-19.2517
 20
0.1377
 30
0.0
 10
-19.2517
 20
0.6774
 30
0.0
 10
-19.2517
 20
0.9171
 30
0.0
 10
-19.2021
 20
1.2301
 30
0.0
 10
-19.1005
 20
1.6187
 30
0.0
 10
-18.9991
 20
1.9944
 30
0.0
 10
-18.8933
 20
2.3182
 30
0.0
 10
-18.7832
 20
2.5924
 30
0.0
 10
-18.6645
 20
2.8753
 30
0.0
 10
-18.5651
 20
3.1149
 30
0.0
 10
-18.481
 20
3.307
 30
0.0
 10
-18.4551
 20
3.3545
 30
0.0
 10
-18.4183
 20
3.4258
 30
0.0
 10
-18.373
 20
3.5208
 30
0.0
 10
-18.3255
 20
3.6136
 30
0.0
 10
-18.2673
 20
3.7388
 30
0.0
 10
-18.196
 20
3.8899
 30
0.0
 10
-18.1442
 20
3.9827
 30
0.0
 10
-18.0988
 20
4.067
 30
0.0
 10
-18.0599
 20
4.1425
 30
0.0
 10
-18.0189
 20
4.2181
 30
0.0
 10
-17.9866
 20
4.2872
 30
0.0
 10
-17.9606
 20
4.3455
 30
0.0
 10
-17.8981
 20
4.4599
 30
0.0
 10
-17.8506
 20
4.5139
 30
0.0
 10
-17.816
 20
4.5096
 30
0.0
 10
-17.7685
 20
4.5009
 30
0.0
 10
-17.7577
 20
4.4534
 30
0.0
 10
-17.7771
 20
4.3649
 30
0.0
 10
-17.7987
 20
4.2591
 30
0.0
 10
-17.8268
 20
4.1685
 30
0.0
 10
-17.8592
 20
4.0929
 30
0.0
 10
-18.1593
 20
3.3998
 30
0.0
 10
-18.3665
 20
2.9184
 30
0.0
 10
-18.481
 20
2.6443
 30
0.0
 10
-18.6774
 20
2.1412
 30
0.0
 10
-18.7767
 20
1.7547
 30
0.0
 10
-18.7767
 20
1.4806
 30
0.0
 10
-18.7767
 20
0.9602
 30
0.0
 10
-18.617
 20
0.5911
 30
0.0
 10
-18.2975
 20
0.3665
 30
0.0
 10
-18.0599
 20
0.2111
 30
0.0
 10
-17.7556
 20
0.1334
 30
0.0
 10
-17.3799
 20
0.1334
 30
0.0
 10
-16.7042
 20
0.1334
 30
0.0
 10
-16.1407
 20
0.3234
 30
0.0
 10
-15.6851
 20
0.7012
 30
0.0
 10
-15.2965
 20
1.0272
 30
0.0
 10
-15.1022
 20
1.3683
 30
0.0
 10
-15.1022
 20
1.7267
 30
0.0
 10
-15.1022
 20
1.798
 30
0.0
 10
-15.2534
 20
1.9038
 30
0.0
 10
-15.5578
 20
2.0419
 30
0.0
 10
-15.8665
 20
2.1866
 30
0.0
 10
-16.0197
 20
2.3614
 30
0.0
 10
-16.0197
 20
2.5687
 30
0.0
 10
-16.0197
 20
2.7155
 30
0.0
 10
-15.9874
 20
2.8838
 30
0.0
 10
-15.9205
 20
3.0717
 30
0.0
 10
-15.8557
 20
3.2574
 30
0.0
 10
-15.778
 20
3.4365
 30
0.0
 10
-15.6851
 20
3.605
 30
0.0
 10
-15.6851
 20
3.605
 30
0.0
 10
-15.6827
 20
3.6091
 30
0.0
 10
-15.6827
 20
3.6091
 30
0.0
 10
-15.6827
 20
3.6091
 30
0.0
 10
-15.6829
 20
3.6093
 30
0.0
 10
-15.6829
 20
3.6093
 30
0.0
 10
-15.5663
 20
3.8122
 30
0.0
 10
-15.4195
 20
4.0065
 30
0.0
 10
-15.2469
 20
4.19
 30
0.0
 10
-15.0742
 20
4.3757
 30
0.0
 10
-14.8971
 20
4.5225
 30
0.0
 10
-14.7158
 20
4.6304
 30
0.0
 10
-14.5344
 20
4.7384
 30
0.0
 10
-14.4459
 20
4.8075
 30
0.0
 10
-14.4502
 20
4.8355
 30
0.0
 10
-14.4502
 20
4.8485
 30
0.0
 10
-14.4502
 20
4.8658
 30
0.0
 10
-14.4524
 20
4.8874
 30
0.0
 10
-14.4545
 20
4.909
 30
0.0
 10
-14.4567
 20
4.9349
 30
0.0
 10
-14.4567
 20
4.9694
 30
0.0
 10
-14.4567
 20
5.0234
 30
0.0
 10
-14.4092
 20
5.1486
 30
0.0
 10
-14.3164
 20
5.3429
 30
0.0
 10
-14.2322
 20
5.5156
 30
0.0
 10
-14.1156
 20
5.7013
 30
0.0
 10
-13.9666
 20
5.8978
 30
0.0
 10
-13.8155
 20
6.0964
 30
0.0
 10
-13.6795
 20
6.2345
 30
0.0
 10
-13.5521
 20
6.3101
 30
0.0
 10
-13.4334
 20
6.3857
 30
0.0
 10
-13.3233
 20
6.4245
 30
0.0
 10
-13.2239
 20
6.4245
 30
0.0
 10
-13.1009
 20
6.4245
 30
0.0
 10
-12.993
 20
6.3684
 30
0.0
 10
-12.9001
 20
6.2605
 30
0.0
 10
-12.8159
 20
6.1417
 30
0.0
 10
-12.7749
 20
5.9928
 30
0.0
 10
-12.7749
 20
5.8157
 30
0.0
 10
-12.7749
 20
5.6905
 30
0.0
 10
-12.7879
 20
5.5825
 30
0.0
 10
-12.8181
 20
5.494
 30
0.0
 10
-12.8936
 20
5.2954
 30
0.0
 10
-12.9303
 20
5.1831
 30
0.0
 10
-12.926
 20
5.1594
 30
0.0
 10
-12.8591
 20
5.1594
 30
0.0
 10
-12.8029
 20
5.1637
 30
0.0
 10
-12.7576
 20
5.1745
 30
0.0
 10
-12.7144
 20
5.1853
 30
0.0
 10
-12.6151
 20
5.2285
 30
0.0
 10
-12.464
 20
5.3041
 30
0.0
  0
SPLINE
  5
7B
330
1F
100
AcDbEntity
  8
Layer 1
 62
   240
100
AcDbSpline
210
0.0
220
0.0
230
1.0
 70
    11
 71
     3
 72
    53
 73
    49
 74
     0
 42
0.0000000001
 43
0.0000000001
 40
0.0
 40
0.0
 40
0.0
 40
0.0
 40
0.0625
 40
0.0625
 40
0.0625
 40
0.125
 40
0.125
 40
0.125
 40
0.1875
 40
0.1875
 40
0.1875
 40
0.25
 40
0.25
 40
0.25
 40
0.3125
 40
0.3125
 40
0.3125
 40
0.375
 40
0.375
 40
0.375
 40
0.4375
 40
0.4375
 40
0.4375
 40
0.5
 40
0.5
 40
0.5
 40
0.5625
 40
0.5625
 40
0.5625
 40
0.625
 40
0.625
 40
0.625
 40
0.6875
 40
0.6875
 40
0.6875
 40
0.75
 40
0.75
 40
0.75
 40
0.8125
 40
0.8125
 40
0.8125
 40
0.875
 40
0.875
 40
0.875
 40
0.9375
 40
0.9375
 40
0.9375
 40
1.0
 40
1.0
 40
1.0
 40
1.0
 10
-13.3556
 20
-2.4314
 30
0.0
 10
-13.3556
 20
-2.4573
 30
0.0
 10
-13.293
 20
-2.5199
 30
0.0
 10
-13.17
 20
-2.6214
 30
0.0
 10
-13.0448
 20
-2.7228
 30
0.0
 10
-12.954
 20
-2.7984
 30
0.0
 10
-12.8936
 20
-2.8481
 30
0.0
 10
-12.831
 20
-2.9042
 30
0.0
 10
-12.7814
 20
-2.9301
 30
0.0
 10
-12.7489
 20
-2.9301
 30
0.0
 10
-12.6129
 20
-2.9301
 30
0.0
 10
-12.4316
 20
-2.7013
 30
0.0
 10
-12.2049
 20
-2.2414
 30
0.0
 10
-12.1121
 20
-2.3084
 30
0.0
 10
-12.0042
 20
-2.4033
 30
0.0
 10
-11.8811
 20
-2.5264
 30
0.0
 10
-11.7602
 20
-2.6495
 30
0.0
 10
-11.676
 20
-2.7099
 30
0.0
 10
-11.6285
 20
-2.7099
 30
0.0
 10
-11.5573
 20
-2.7099
 30
0.0
 10
-11.445
 20
-2.602
 30
0.0
 10
-11.2939
 20
-2.3861
 30
0.0
 10
-11.1384
 20
-2.168
 30
0.0
 10
-11.0607
 20
-1.978
 30
0.0
 10
-11.0607
 20
-1.8182
 30
0.0
 10
-11.0671
 20
-1.6822
 30
0.0
 10
-11.1449
 20
-1.5376
 30
0.0
 10
-11.2917
 20
-1.3843
 30
0.0
 10
-11.4363
 20
-1.231
 30
0.0
 10
-11.5615
 20
-1.1533
 30
0.0
 10
-11.6673
 20
-1.1533
 30
0.0
 10
-11.6997
 20
-1.1533
 30
0.0
 10
-11.7688
 20
-1.2397
 30
0.0
 10
-11.8724
 20
-1.4124
 30
0.0
 10
-11.9761
 20
-1.5851
 30
0.0
 10
-12.0689
 20
-1.7427
 30
0.0
 10
-12.1531
 20
-1.8809
 30
0.0
 10
-12.2265
 20
-1.7794
 30
0.0
 10
-12.3301
 20
-1.6628
 30
0.0
 10
-12.4661
 20
-1.529
 30
0.0
 10
-12.6043
 20
-1.3973
 30
0.0
 10
-12.7079
 20
-1.3455
 30
0.0
 10
-12.7792
 20
-1.3757
 30
0.0
 10
-12.818
 20
-1.3757
 30
0.0
 10
-12.9238
 20
-1.5376
 30
0.0
 10
-13.0965
 20
-1.8615
 30
0.0
 10
-13.2693
 20
-2.1874
 30
0.0
 10
-13.3556
 20
-2.3753
 30
0.0
 10
-13.3556
 20
-2.4314
 30
0.0
  0
SPLINE
  5
7C
330
1F
100
AcDbEntity
  8
Layer 1
 62
   240
100
AcDbSpline
210
0.0
220
0.0
230
1.0
 70
    11
 71
     3
 72
    32
 73
    28
 74
     0
 42
0.0000000001
 43
0.0000000001
 40
0.0
 40
0.0
 40
0.0
 40
0.0
 40
0.1111111111111111
 40
0.1111111111111111
 40
0.1111111111111111
 40
0.2222222222222222
 40
0.2222222222222222
 40
0.2222222222222222
 40
0.3333333333333333
 40
0.3333333333333333
 40
0.3333333333333333
 40
0.4444444444444444
 40
0.4444444444444444
 40
0.4444444444444444
 40
0.5555555555555556
 40
0.5555555555555556
 40
0.5555555555555556
 40
0.6666666666666666
 40
0.6666666666666666
 40
0.6666666666666666
 40
0.7777777777777777
 40
0.7777777777777777
 40
0.7777777777777777
 40
0.8888888888888888
 40
0.8888888888888888
 40
0.8888888888888888
 40
1.0
 40
1.0
 40
1.0
 40
1.0
 10
-14.9684
 20
9.1189
 30
0.0
 10
-14.9684
 20
9.2117
 30
0.0
 10
-14.8906
 20
9.4125
 30
0.0
 10
-14.7308
 20
9.7233
 30
0.0
 10
-14.5733
 20
10.0342
 30
0.0
 10
-14.4718
 20
10.1875
 30
0.0
 10
-14.4243
 20
10.1875
 30
0.0
 10
-14.3314
 20
10.2264
 30
0.0
 10
-14.1976
 20
10.1552
 30
0.0
 10
-14.0206
 20
9.9759
 30
0.0
 10
-13.8435
 20
9.7968
 30
0.0
 10
-13.7485
 20
9.6565
 30
0.0
 10
-13.7356
 20
9.555
 30
0.0
 10
-13.7356
 20
9.4211
 30
0.0
 10
-13.809
 20
9.2268
 30
0.0
 10
-13.9558
 20
8.9742
 30
0.0
 10
-14.1048
 20
8.7216
 30
0.0
 10
-14.2127
 20
8.5942
 30
0.0
 10
-14.2797
 20
8.5942
 30
0.0
 10
-14.3056
 20
8.6072
 30
0.0
 10
-14.392
 20
8.6633
 30
0.0
 10
-14.5409
 20
8.7627
 30
0.0
 10
-14.692
 20
8.862
 30
0.0
 10
-14.8021
 20
8.9353
 30
0.0
 10
-14.8734
 20
8.9872
 30
0.0
 10
-14.9381
 20
9.0282
 30
0.0
 10
-14.9684
 20
9.0736
 30
0.0
 10
-14.9684
 20
9.1189
 30
0.0
  0
ENDSEC
  0
SECTION
  2
OBJECTS
  0
DICTIONARY
  5
C
330
0
100
AcDbDictionary
281
     1
  3
ACAD_DETAILVIEWSTYLE
350
84
  3
ACAD_GROUP
350
D
  3
ACAD_LAYOUT
350
1A
  3
ACAD_MATERIAL
350
43
  3
ACAD_MLEADERSTYLE
350
5B
  3
ACAD_MLINESTYLE
350
17
  3
ACAD_PLOTSETTINGS
350
19
  3
ACAD_PLOTSTYLENAME
350
E
  3
ACAD_SCALELIST
350
47
  3
ACAD_SECTIONVIEWSTYLE
350
85
  3
ACAD_TABLESTYLE
350
59
  3
ACAD_VISUALSTYLE
350
2A
  3
ACDB_RECOMPOSE_DATA
350
81
  3
AcDbVariableDictionary
350
7D
  0
SUN
  5
5D
330
29
100
AcDbSun
 90
        1
290
     0
 63
     7
421
 16777215
 40
1.0
291
     1
 91
  2455826
 92
 54000000
292
     0
 70
     2
 71
   256
280
     1
  0
DICTIONARY
  5
84
102
{ACAD_REACTORS
330
C
102
}
330
C
100
AcDbDictionary
281
     1
  0
DICTIONARY
  5
D
102
{ACAD_REACTORS
330
C
102
}
330
C
100
AcDbDictionary
281
     1
  0
DICTIONARY
  5
1A
102
{ACAD_REACTORS
330
C
102
}
330
C
100
AcDbDictionary
281
     1
  3
Layout1
350
1E
  3
Layout2
350
26
  3
Model
350
22
  0
DICTIONARY
  5
43
102
{ACAD_REACTORS
330
C
102
}
330
C
100
AcDbDictionary
281
     1
  3
ByBlock
350
45
  3
ByLayer
350
44
  3
Global
350
46
  0
DICTIONARY
  5
5B
102
{ACAD_REACTORS
330
C
102
}
330
C
100
AcDbDictionary
281
     1
  3
Standard
350
5C
  0
DICTIONARY
  5
17
102
{ACAD_REACTORS
330
C
102
}
330
C
100
AcDbDictionary
281
     1
  3
Standard
350
18
  0
DICTIONARY
  5
19
102
{ACAD_REACTORS
330
C
102
}
330
C
100
AcDbDictionary
281
     1
  0
ACDBDICTIONARYWDFLT
  5
E
102
{ACAD_REACTORS
330
C
102
}
330
C
100
AcDbDictionary
281
     1
  3
Normal
350
F
100
AcDbDictionaryWithDefault
340
F
  0
DICTIONARY
  5
47
102
{ACAD_REACTORS
330
C
102
}
330
C
100
AcDbDictionary
281
     1
  3
A0
350
48
  3
A1
350
49
  3
A2
350
4A
  3
A3
350
4B
  3
A4
350
4C
  3
A5
350
4D
  3
A6
350
4E
  3
A7
350
4F
  3
A8
350
50
  3
A9
350
51
  3
B1
350
52
  3
B2
350
53
  3
B3
350
54
  3
B4
350
55
  3
B5
350
56
  3
B6
350
57
  3
B7
350
58
  0
DICTIONARY
  5
85
102
{ACAD_REACTORS
330
C
102
}
330
C
100
AcDbDictionary
281
     1
  0
DICTIONARY
  5
59
102
{ACAD_REACTORS
330
C
102
}
330
C
100
AcDbDictionary
281
     1
  3
Standard
350
5A
  0
DICTIONARY
  5
2A
102
{ACAD_REACTORS
330
C
102
}
330
C
100
AcDbDictionary
281
     1
  3
2dWireframe
350
2F
  3
Basic
350
32
  3
Brighten
350
36
  3
ColorChange
350
3A
  3
Conceptual
350
34
  3
Dim
350
35
  3
EdgeColorOff
350
3D
  3
Facepattern
350
39
  3
Flat
350
2B
  3
FlatWithEdges
350
2C
  3
Gouraud
350
2D
  3
GouraudWithEdges
350
2E
  3
Hidden
350
31
  3
JitterOff
350
3B
  3
Linepattern
350
38
  3
OverhangOff
350
3C
  3
Realistic
350
33
  3
Shaded
350
42
  3
Shaded with edges
350
41
  3
Shades of Gray
350
3E
  3
Sketchy
350
3F
  3
Thicken
350
37
  3
Wireframe
350
30
  3
X-Ray
350
40
  0
XRECORD
  5
81
102
{ACAD_REACTORS
330
C
102
}
330
C
100
AcDbXrecord
280
     1
 90
        1
330
5A
  0
DICTIONARY
  5
7D
102
{ACAD_REACTORS
330
C
102
}
330
C
100
AcDbDictionary
281
     1
  3
CANNOSCALE
350
7E
  3
CMLEADERSTYLE
350
83
  3
CTABLESTYLE
350
82
  0
LAYOUT
  5
1E
102
{ACAD_REACTORS
330
1A
102
}
330
1A
100
AcDbPlotSettings
  1

  2
none_device
  4

  6

 40
0.0
 41
0.0
 42
0.0
 43
0.0
 44
0.0
 45
0.0
 46
0.0
 47
0.0
 48
0.0
 49
0.0
140
0.0
141
0.0
142
1.0
143
1.0
 70
   688
 72
     0
 73
     0
 74
     5
  7

 75
    16
 76
     0
 77
     2
 78
   300
147
1.0
148
0.0
149
0.0
100
AcDbLayout
  1
Layout1
 70
     1
 71
     1
 10
0.0
 20
0.0
 11
12.0
 21
9.0
 12
0.0
 22
0.0
 32
0.0
 14
1.000000000000000E+20
 24
1.000000000000000E+20
 34
1.000000000000000E+20
 15
-1.000000000000000E+20
 25
-1.000000000000000E+20
 35
-1.000000000000000E+20
146
0.0
 13
0.0
 23
0.0
 33
0.0
 16
1.0
 26
0.0
 36
0.0
 17
0.0
 27
1.0
 37
0.0
 76
     0
330
1B
  0
LAYOUT
  5
26
102
{ACAD_REACTORS
330
1A
102
}
330
1A
100
AcDbPlotSettings
  1

  2
none_device
  4

  6

 40
0.0
 41
0.0
 42
0.0
 43
0.0
 44
0.0
 45
0.0
 46
0.0
 47
0.0
 48
0.0
 49
0.0
140
0.0
141
0.0
142
1.0
143
1.0
 70
   688
 72
     0
 73
     0
 74
     5
  7

 75
    16
 76
     0
 77
     2
 78
   300
147
1.0
148
0.0
149
0.0
100
AcDbLayout
  1
Layout2
 70
     1
 71
     2
 10
0.0
 20
0.0
 11
0.0
 21
0.0
 12
0.0
 22
0.0
 32
0.0
 14
0.0
 24
0.0
 34
0.0
 15
0.0
 25
0.0
 35
0.0
146
0.0
 13
0.0
 23
0.0
 33
0.0
 16
1.0
 26
0.0
 36
0.0
 17
0.0
 27
1.0
 37
0.0
 76
     0
330
23
  0
LAYOUT
  5
22
102
{ACAD_REACTORS
330
1A
102
}
330
1A
100
AcDbPlotSettings
  1

  2
none_device
  4
Letter_(8.50_x_11.00_Inches)
  6

 40
6.35
 41
6.35
 42
6.35000508
 43
6.35000508
 44
215.9
 45
279.4
 46
0.0
 47
0.0
 48
0.0
 49
0.0
140
0.0
141
0.0
142
1.0
143
1.0
 70
  1712
 72
     0
 73
     0
 74
     0
  7

 75
     0
 76
     0
 77
     2
 78
   300
147
1.0
148
0.0
149
0.0
100
AcDbLayout
  1
Model
 70
     1
 71
     0
 10
0.0
 20
0.0
 11
12.0
 21
9.0
 12
0.0
 22
0.0
 32
0.0
 14
-25.3024
 24
-25.3977
 34
0.0
 15
24.6776
 25
24.5823
 35
0.0
146
0.0
 13
0.0
 23
0.0
 33
0.0
 16
1.0
 26
0.0
 36
0.0
 17
0.0
 27
1.0
 37
0.0
 76
     0
330
1F
331
29
  0
MATERIAL
  5
45
102
{ACAD_REACTORS
330
43
102
}
330
43
100
AcDbMaterial
  1
ByBlock
 72
     1
 94
      127
  0
MATERIAL
  5
44
102
{ACAD_REACTORS
330
43
102
}
330
43
100
AcDbMaterial
  1
ByLayer
 72
     1
 94
      127
  0
MATERIAL
  5
46
102
{ACAD_REACTORS
330
43
102
}
330
43
100
AcDbMaterial
  1
Global
 72
     1
 94
      127
  0
MLEADERSTYLE
  5
5C
102
{ACAD_REACTORS
330
5B
102
}
330
5B
100
AcDbMLeaderStyle
179
     2
170
     2
171
     1
172
     0
 90
        2
 40
0.0
 41
0.0
173
     1
 91
-1056964608
340
14
 92
       -2
290
     1
 42
0.09
291
     1
 43
0.36
  3
Standard
341
0
 44
0.18
300

342
11
174
     1
178
     6
175
     1
176
     0
 93
-1056964608
 45
0.18
292
     0
297
     0
 46
0.18
343
0
 94
-1056964608
 47
1.0
 49
1.0
140
1.0
293
     1
141
0.0
294
     1
177
     0
142
1.0
295
     0
296
     0
143
0.125
271
     0
272
     9
273
     9
298
     0
  0
MLINESTYLE
  5
18
102
{ACAD_REACTORS
330
17
102
}
330
17
100
AcDbMlineStyle
  2
Standard
 70
     0
  3

 62
   256
 51
90.0
 52
90.0
 71
     2
 49
0.5
 62
   256
  6
BYLAYER
 49
-0.5
 62
   256
  6
BYLAYER
  0
ACDBPLACEHOLDER
  5
F
102
{ACAD_REACTORS
330
E
102
}
330
E
  0
SCALE
  5
48
102
{ACAD_REACTORS
330
47
102
}
330
47
100
AcDbScale
 70
     0
300
1:1
140
1.0
141
1.0
290
     1
  0
SCALE
  5
49
102
{ACAD_REACTORS
330
47
102
}
330
47
100
AcDbScale
 70
     0
300
1/128" = 1'-0"
140
0.0078125
141
12.0
290
     0
  0
SCALE
  5
4A
102
{ACAD_REACTORS
330
47
102
}
330
47
100
AcDbScale
 70
     0
300
1/64" = 1'-0"
140
0.015625
141
12.0
290
     0
  0
SCALE
  5
4B
102
{ACAD_REACTORS
330
47
102
}
330
47
100
AcDbScale
 70
     0
300
1/32" = 1'-0"
140
0.03125
141
12.0
290
     0
  0
SCALE
  5
4C
102
{ACAD_REACTORS
330
47
102
}
330
47
100
AcDbScale
 70
     0
300
1/16" = 1'-0"
140
0.0625
141
12.0
290
     0
  0
SCALE
  5
4D
102
{ACAD_REACTORS
330
47
102
}
330
47
100
AcDbScale
 70
     0
300
3/32" = 1'-0"
140
0.09375
141
12.0
290
     0
  0
SCALE
  5
4E
102
{ACAD_REACTORS
330
47
102
}
330
47
100
AcDbScale
 70
     0
300
1/8" = 1'-0"
140
0.125
141
12.0
290
     0
  0
SCALE
  5
4F
102
{ACAD_REACTORS
330
47
102
}
330
47
100
AcDbScale
 70
     0
300
3/16" = 1'-0"
140
0.1875
141
12.0
290
     0
  0
SCALE
  5
50
102
{ACAD_REACTORS
330
47
102
}
330
47
100
AcDbScale
 70
     0
300
1/4" = 1'-0"
140
0.25
141
12.0
290
     0
  0
SCALE
  5
51
102
{ACAD_REACTORS
330
47
102
}
330
47
100
AcDbScale
 70
     0
300
3/8" = 1'-0"
140
0.375
141
12.0
290
     0
  0
SCALE
  5
52
102
{ACAD_REACTORS
330
47
102
}
330
47
100
AcDbScale
 70
     0
300
1/2" = 1'-0"
140
0.5
141
12.0
290
     0
  0
SCALE
  5
53
102
{ACAD_REACTORS
330
47
102
}
330
47
100
AcDbScale
 70
     0
300
3/4" = 1'-0"
140
0.75
141
12.0
290
     0
  0
SCALE
  5
54
102
{ACAD_REACTORS
330
47
102
}
330
47
100
AcDbScale
 70
     0
300
1" = 1'-0"
140
1.0
141
12.0
290
     0
  0
SCALE
  5
55
102
{ACAD_REACTORS
330
47
102
}
330
47
100
AcDbScale
 70
     0
300
1-1/2" = 1'-0"
140
1.5
141
12.0
290
     0
  0
SCALE
  5
56
102
{ACAD_REACTORS
330
47
102
}
330
47
100
AcDbScale
 70
     0
300
3" = 1'-0"
140
3.0
141
12.0
290
     0
  0
SCALE
  5
57
102
{ACAD_REACTORS
330
47
102
}
330
47
100
AcDbScale
 70
     0
300
6" = 1'-0"
140
6.0
141
12.0
290
     0
  0
SCALE
  5
58
102
{ACAD_REACTORS
330
47
102
}
330
47
100
AcDbScale
 70
     0
300
1'-0" = 1'-0"
140
12.0
141
12.0
290
     0
  0
TABLESTYLE
  5
5A
102
{ACAD_REACTORS
330
59
102
}
102
{ACAD_XDICTIONARY
360
7F
102
}
330
59
100
AcDbTableStyle
  3
Standard
 70
     0
 71
     0
 40
0.06
 41
0.06
280
     0
281
     0
  7
Standard
140
0.18
170
     2
 62
     0
 63
   257
283
     0
 90
        4
 91
        0
  1

274
    -2
284
     1
 64
     0
275
    -2
285
     1
 65
     0
276
    -2
286
     1
 66
     0
277
    -2
287
     1
 67
     0
278
    -2
288
     1
 68
     0
279
    -2
289
     1
 69
     0
  7
Standard
140
0.25
170
     5
 62
     0
 63
   257
283
     0
 90
        4
 91
        0
  1

274
    -2
284
     1
 64
     0
275
    -2
285
     1
 65
     0
276
    -2
286
     1
 66
     0
277
    -2
287
     1
 67
     0
278
    -2
288
     1
 68
     0
279
    -2
289
     1
 69
     0
  7
Standard
140
0.18
170
     5
 62
     0
 63
   257
283
     0
 90
        4
 91
        0
  1

274
    -2
284
     1
 64
     0
275
    -2
285
     1
 65
     0
276
    -2
286
     1
 66
     0
277
    -2
287
     1
 67
     0
278
    -2
288
     1
 68
     0
279
    -2
289
     1
 69
     0
  0
VISUALSTYLE
  5
2F
102
{ACAD_REACTORS
330
2A
102
}
330
2A
100
AcDbVisualStyle
  2
2dWireframe
 70
     4
177
     3
291
     0
 70
    58
 90
        0
176
     1
 90
        2
176
     1
 90
        0
176
     1
 90
        0
176
     1
 40
0.6
176
     1
 40
30.0
176
     1
 62
     7
420
 16777215
176
     1
 90
        1
176
     1
 90
        4
176
     1
 62
     7
176
     1
 62
   257
176
     1
 90
        1
176
     1
 90
        1
176
     1
 40
1.0
176
     1
 90
        0
176
     1
 62
   257
176
     1
 40
1.0
176
     1
 90
        1
176
     1
 90
        6
176
     1
 90
        2
176
     1
 62
     7
176
     1
 90
        5
176
     1
 90
        0
176
     1
 90
        0
176
     1
290
     0
176
     1
 90
        1
176
     1
 40
0.0
176
     1
 90
        0
176
     1
290
     1
176
     1
290
     1
176
     1
290
     0
176
     1
290
     0
176
     1
290
     0
176
     1
290
     0
176
     1
290
     0
176
     1
290
     0
176
     1
290
     0
176
     1
 90
       50
176
     1
 40
0.0
176
     1
 40
1.0
176
     1
 90
        0
176
     1
 62
    18
420
        0
176
     1
 90
       50
176
     1
 90
        3
176
     1
 62
     5
420
      255
176
     1
290
     0
176
     1
 90
       50
176
     1
 90
       50
176
     1
 90
       50
176
     1
290
     0
176
     1
 90
       50
176
     1
 62
   256
176
     0
 40
1.0
176
     0
 90
        2
176
     1
  1
strokes_ogs.tif
176
     1
290
     0
176
     1
 40
1.0
176
     1
 40
1.0
176
     1
  0
VISUALSTYLE
  5
32
102
{ACAD_REACTORS
330
2A
102
}
330
2A
100
AcDbVisualStyle
  2
Basic
 70
     7
177
     3
291
     1
 70
    58
 90
        1
176
     1
 90
        0
176
     1
 90
        1
176
     1
 90
        0
176
     1
 40
0.6
176
     1
 40
30.0
176
     1
 62
     7
420
 16777215
176
     1
 90
        0
176
     1
 90
        4
176
     1
 62
     7
176
     1
 62
   257
176
     1
 90
        1
176
     1
 90
        1
176
     1
 40
1.0
176
     1
 90
        8
176
     1
 62
     7
176
     1
 40
1.0
176
     1
 90
        1
176
     1
 90
        6
176
     1
 90
        2
176
     1
 62
     7
176
     1
 90
        5
176
     1
 90
        0
176
     1
 90
        0
176
     1
290
     0
176
     1
 90
        1
176
     1
 40
0.0
176
     1
 90
        0
176
     1
290
     0
176
     1
290
     1
176
     1
290
     1
176
     1
290
     0
176
     1
290
     0
176
     1
290
     0
176
     1
290
     0
176
     1
290
     0
176
     1
290
     0
176
     1
 90
       50
176
     1
 40
0.0
176
     1
 40
1.0
176
     1
 90
        0
176
     1
 62
    18
420
        0
176
     1
 90
       50
176
     1
 90
        3
176
     1
 62
     5
420
      255
176
     1
290
     0
176
     1
 90
       50
176
     1
 90
       50
176
     1
 90
       50
176
     1
290
     0
176
     1
 90
       50
176
     1
 62
   256
176
     0
 40
1.0
176
     0
 90
        2
176
     1
  1
strokes_ogs.tif
176
     1
290
     0
176
     1
 40
1.0
176
     1
 40
1.0
176
     1
  0
VISUALSTYLE
  5
36
102
{ACAD_REACTORS
330
2A
102
}
330
2A
100
AcDbVisualStyle
  2
Brighten
 70
    12
177
     3
291
     1
 70
    58
 90
        2
176
     1
 90
        2
176
     1
 90
        0
176
     1
 90
        0
176
     1
 40
0.6
176
     1
 40
30.0
176
     1
 62
     7
420
 16777215
176
     1
 90
        1
176
     1
 90
        4
176
     1
 62
     7
176
     1
 62
   257
176
     1
 90
        1
176
     1
 90
        1
176
     1
 40
1.0
176
     1
 90
        8
176
     1
 62
     7
176
     1
 40
1.0
176
     1
 90
        1
176
     1
 90
        6
176
     1
 90
        2
176
     1
 62
     7
176
     1
 90
        5
176
     1
 90
        0
176
     1
 90
        0
176
     1
290
     0
176
     1
 90
        1
176
     1
 40
50.0
176
     1
 90
        0
176
     1
290
     0
176
     1
290
     1
176
     1
290
     1
176
     1
290
     0
176
     1
290
     0
176
     1
290
     0
176
     1
290
     0
176
     1
290
     0
176
     1
290
     0
176
     1
 90
       50
176
     1
 40
0.0
176
     1
 40
1.0
176
     1
 90
        0
176
     1
 62
    18
420
        0
176
     1
 90
       50
176
     1
 90
        3
176
     1
 62
     5
420
      255
176
     1
290
     0
176
     1
 90
       50
176
     1
 90
       50
176
     1
 90
       50
176
     1
290
     0
176
     1
 90
       50
176
     1
 62
   256
176
     0
 40
1.0
176
     0
 90
        2
176
     1
  1
strokes_ogs.tif
176
     1
290
     0
176
     1
 40
1.0
176
     1
 40
1.0
176
     1
  0
VISUALSTYLE
  5
3A
102
{ACAD_REACTORS
330
2A
102
}
330
2A
100
AcDbVisualStyle
  2
ColorChange
 70
    16
177
     3
291
     1
 70
    58
 90
        2
176
     1
 90
        2
176
     1
 90
        3
176
     1
 90
        0
176
     1
 40
0.6
176
     1
 40
30.0
176
     1
 62
     8
420
  8421504
176
     1
 90
        1
176
     1
 90
        4
176
     1
 62
     7
176
     1
 62
   257
176
     1
 90
        1
176
     1
 90
        1
176
     1
 40
1.0
176
     1
 90
        8
176
     1
 62
     8
420
  8421504
176
     1
 40
1.0
176
     1
 90
        1
176
     1
 90
        6
176
     1
 90
        2
176
     1
 62
     7
176
     1
 90
        5
176
     1
 90
        0
176
     1
 90
        0
176
     1
290
     0
176
     1
 90
        1
176
     1
 40
0.0
176
     1
 90
        0
176
     1
290
     0
176
     1
290
     1
176
     1
290
     1
176
     1
290
     0
176
     1
290
     0
176
     1
290
     0
176
     1
290
     0
176
     1
290
     0
176
     1
290
     0
176
     1
 90
       50
176
     1
 40
0.0
176
     1
 40
1.0
176
     1
 90
        0
176
     1
 62
    18
420
        0
176
     1
 90
       50
176
     1
 90
        3
176
     1
 62
     5
420
      255
176
     1
290
     0
176
     1
 90
       50
176
     1
 90
       50
176
     1
 90
       50
176
     1
290
     0
176
     1
 90
       50
176
     1
 62
   256
176
     0
 40
1.0
176
     0
 90
        2
176
     1
  1
strokes_ogs.tif
176
     1
290
     0
176
     1
 40
1.0
176
     1
 40
1.0
176
     1
  0
VISUALSTYLE
  5
34
102
{ACAD_REACTORS
330
2A
102
}
330
2A
100
AcDbVisualStyle
  2
Conceptual
 70
     9
177
     3
291
     0
 70
    58
 90
        3
176
     1
 90
        2
176
     1
 90
        0
176
     1
 90
        0
176
     1
 40
0.6
176
     1
 40
30.0
176
     1
 62
     7
420
 16777215
176
     1
 90
        2
176
     1
 90
        2
176
     1
 62
     7
176
     1
 62
   257
176
     1
 90
        1
176
     1
 90
        1
176
     1
 40
179.0
176
     1
 90
        8
176
     1
 62
     7
176
     1
 40
1.0
176
     1
 90
        1
176
     1
 90
        6
176
     1
 90
        2
176
     1
 62
     7
176
     1
 90
        3
176
     1
 90
        0
176
     1
 90
        0
176
     1
290
     0
176
     1
 90
        1
176
     1
 40
0.0
176
     1
 90
        0
176
     1
290
     0
176
     1
290
     1
176
     1
290
     1
176
     1
290
     0
176
     1
290
     0
176
     1
290
     0
176
     1
290
     0
176
     1
290
     0
176
     1
290
     0
176
     1
 90
       50
176
     1
 40
0.0
176
     1
 40
1.0
176
     1
 90
        0
176
     1
 62
    18
420
        0
176
     1
 90
       50
176
     1
 90
        3
176
     1
 62
     5
420
      255
176
     1
290
     0
176
     1
 90
       50
176
     1
 90
       50
176
     1
 90
       50
176
     1
290
     0
176
     1
 90
       50
176
     1
 62
   256
176
     0
 40
1.0
176
     0
 90
        2
176
     1
  1
strokes_ogs.tif
176
     1
290
     0
176
     1
 40
1.0
176
     1
 40
1.0
176
     1
  0
VISUALSTYLE
  5
35
102
{ACAD_REACTORS
330
2A
102
}
330
2A
100
AcDbVisualStyle
  2
Dim
 70
    11
177
     3
291
     1
 70
    58
 90
        2
176
     1
 90
        2
176
     1
 90
        0
176
     1
 90
        0
176
     1
 40
0.6
176
     1
 40
30.0
176
     1
 62
     7
420
 16777215
176
     1
 90
        1
176
     1
 90
        4
176
     1
 62
     7
176
     1
 62
   257
176
     1
 90
        1
176
     1
 90
        1
176
     1
 40
1.0
176
     1
 90
        8
176
     1
 62
     7
176
     1
 40
1.0
176
     1
 90
        1
176
     1
 90
        6
176
     1
 90
        2
176
     1
 62
     7
176
     1
 90
        5
176
     1
 90
        0
176
     1
 90
        0
176
     1
290
     0
176
     1
 90
        1
176
     1
 40
-50.0
176
     1
 90
        0
176
     1
290
     0
176
     1
290
     1
176
     1
290
     1
176
     1
290
     0
176
     1
290
     0
176
     1
290
     0
176
     1
290
     0
176
     1
290
     0
176
     1
290
     0
176
     1
 90
       50
176
     1
 40
0.0
176
     1
 40
1.0
176
     1
 90
        0
176
     1
 62
    18
420
        0
176
     1
 90
       50
176
     1
 90
        3
176
     1
 62
     5
420
      255
176
     1
290
     0
176
     1
 90
       50
176
     1
 90
       50
176
     1
 90
       50
176
     1
290
     0
176
     1
 90
       50
176
     1
 62
   256
176
     0
 40
1.0
176
     0
 90
        2
176
     1
  1
strokes_ogs.tif
176
     1
290
     0
176
     1
 40
1.0
176
     1
 40
1.0
176
     1
  0
VISUALSTYLE
  5
3D
102
{ACAD_REACTORS
330
2A
102
}
330
2A
100
AcDbVisualStyle
  2
EdgeColorOff
 70
    22
177
     3
291
     1
 70
    58
 90
        2
176
     0
 90
        2
176
     0
 90
        0
176
     0
 90
        0
176
     0
 40
0.6
176
     0
 40
30.0
176
     0
 62
     7
420
 16777215
176
     0
 90
        1
176
     0
 90
        4
176
     0
 62
     7
176
     0
 62
   257
176
     0
 90
        1
176
     0
 90
        1
176
     0
 40
1.0
176
     0
 90
        8
176
     2
 62
     7
176
     0
 40
1.0
176
     0
 90
        1
176
     0
 90
        6
176
     0
 90
        2
176
     0
 62
     7
176
     0
 90
        5
176
     0
 90
        0
176
     0
 90
        0
176
     0
290
     0
176
     0
 90
        1
176
     0
 40
0.0
176
     0
 90
        0
176
     0
290
     0
176
     0
290
     1
176
     0
290
     1
176
     0
290
     0
176
     0
290
     0
176
     0
290
     0
176
     0
290
     0
176
     0
290
     0
176
     0
290
     0
176
     0
 90
       50
176
     0
 40
0.0
176
     0
 40
1.0
176
     0
 90
        0
176
     0
 62
    18
420
        0
176
     0
 90
       50
176
     0
 90
        3
176
     0
 62
     5
420
      255
176
     0
290
     0
176
     0
 90
       50
176
     0
 90
       50
176
     0
 90
       50
176
     0
290
     0
176
     0
 90
       50
176
     0
 62
   256
176
     0
 40
1.0
176
     0
 90
        2
176
     0
  1
strokes_ogs.tif
176
     0
290
     0
176
     0
 40
1.0
176
     0
 40
1.0
176
     0
  0
VISUALSTYLE
  5
39
102
{ACAD_REACTORS
330
2A
102
}
330
2A
100
AcDbVisualStyle
  2
Facepattern
 70
    15
177
     3
291
     1
 70
    58
 90
        2
176
     1
 90
        2
176
     1
 90
        0
176
     1
 90
        0
176
     1
 40
0.6
176
     1
 40
30.0
176
     1
 62
     7
420
 16777215
176
     1
 90
        1
176
     1
 90
        4
176
     1
 62
     7
176
     1
 62
   257
176
     1
 90
        1
176
     1
 90
        1
176
     1
 40
1.0
176
     1
 90
        8
176
     1
 62
     7
176
     1
 40
1.0
176
     1
 90
        1
176
     1
 90
        6
176
     1
 90
        2
176
     1
 62
     7
176
     1
 90
        5
176
     1
 90
        0
176
     1
 90
        0
176
     1
290
     0
176
     1
 90
        1
176
     1
 40
0.0
176
     1
 90
        0
176
     1
290
     0
176
     1
290
     1
176
     1
290
     1
176
     1
290
     0
176
     1
290
     0
176
     1
290
     0
176
     1
290
     0
176
     1
290
     0
176
     1
290
     0
176
     1
 90
       50
176
     1
 40
0.0
176
     1
 40
1.0
176
     1
 90
        0
176
     1
 62
    18
420
        0
176
     1
 90
       50
176
     1
 90
        3
176
     1
 62
     5
420
      255
176
     1
290
     0
176
     1
 90
       50
176
     1
 90
       50
176
     1
 90
       50
176
     1
290
     0
176
     1
 90
       50
176
     1
 62
   256
176
     0
 40
1.0
176
     0
 90
        2
176
     1
  1
strokes_ogs.tif
176
     1
290
     0
176
     1
 40
1.0
176
     1
 40
1.0
176
     1
  0
VISUALSTYLE
  5
2B
102
{ACAD_REACTORS
330
2A
102
}
330
2A
100
AcDbVisualStyle
  2
Flat
 70
     0
177
     3
291
     1
 70
    58
 90
        2
176
     1
 90
        1
176
     1
 90
        1
176
     1
 90
        2
176
     1
 40
0.6
176
     1
 40
30.0
176
     1
 62
     7
420
 16777215
176
     1
 90
        0
176
     1
 90
        0
176
     1
 62
     7
176
     1
 62
   257
176
     1
 90
        1
176
     1
 90
        1
176
     1
 40
1.0
176
     1
 90
        8
176
     1
 62
     7
176
     1
 40
1.0
176
     1
 90
        1
176
     1
 90
        6
176
     1
 90
        2
176
     1
 62
     7
176
     1
 90
        5
176
     1
 90
        0
176
     1
 90
        0
176
     1
290
     0
176
     1
 90
       13
176
     1
 40
0.0
176
     1
 90
        0
176
     1
290
     0
176
     1
290
     1
176
     1
290
     1
176
     1
290
     0
176
     1
290
     0
176
     1
290
     0
176
     1
290
     0
176
     1
290
     0
176
     1
290
     0
176
     1
 90
       50
176
     1
 40
0.0
176
     1
 40
1.0
176
     1
 90
        0
176
     1
 62
    18
420
        0
176
     1
 90
       50
176
     1
 90
        3
176
     1
 62
     5
420
      255
176
     1
290
     0
176
     1
 90
       50
176
     1
 90
       50
176
     1
 90
       50
176
     1
290
     0
176
     1
 90
       50
176
     1
 62
   256
176
     0
 40
1.0
176
     0
 90
        2
176
     1
  1
strokes_ogs.tif
176
     1
290
     0
176
     1
 40
1.0
176
     1
 40
1.0
176
     1
  0
VISUALSTYLE
  5
2C
102
{ACAD_REACTORS
330
2A
102
}
330
2A
100
AcDbVisualStyle
  2
FlatWithEdges
 70
     1
177
     3
291
     1
 70
    58
 90
        2
176
     1
 90
        1
176
     1
 90
        1
176
     1
 90
        2
176
     1
 40
0.6
176
     1
 40
30.0
176
     1
 62
     7
420
 16777215
176
     1
 90
        1
176
     1
 90
        0
176
     1
 62
     7
176
     1
 62
   257
176
     1
 90
        1
176
     1
 90
        1
176
     1
 40
1.0
176
     1
 90
        0
176
     1
 62
   257
176
     1
 40
1.0
176
     1
 90
        1
176
     1
 90
        6
176
     1
 90
        2
176
     1
 62
     7
176
     1
 90
        5
176
     1
 90
        0
176
     1
 90
        0
176
     1
290
     0
176
     1
 90
       13
176
     1
 40
0.0
176
     1
 90
        0
176
     1
290
     0
176
     1
290
     1
176
     1
290
     1
176
     1
290
     0
176
     1
290
     0
176
     1
290
     0
176
     1
290
     0
176
     1
290
     0
176
     1
290
     0
176
     1
 90
       50
176
     1
 40
0.0
176
     1
 40
1.0
176
     1
 90
        0
176
     1
 62
    18
420
        0
176
     1
 90
       50
176
     1
 90
        3
176
     1
 62
     5
420
      255
176
     1
290
     0
176
     1
 90
       50
176
     1
 90
       50
176
     1
 90
       50
176
     1
290
     0
176
     1
 90
       50
176
     1
 62
   256
176
     0
 40
1.0
176
     0
 90
        2
176
     1
  1
strokes_ogs.tif
176
     1
290
     0
176
     1
 40
1.0
176
     1
 40
1.0
176
     1
  0
VISUALSTYLE
  5
2D
102
{ACAD_REACTORS
330
2A
102
}
330
2A
100
AcDbVisualStyle
  2
Gouraud
 70
     2
177
     3
291
     1
 70
    58
 90
        2
176
     1
 90
        2
176
     1
 90
        1
176
     1
 90
        2
176
     1
 40
0.6
176
     1
 40
30.0
176
     1
 62
     7
420
 16777215
176
     1
 90
        0
176
     1
 90
        0
176
     1
 62
     7
176
     1
 62
   257
176
     1
 90
        1
176
     1
 90
        1
176
     1
 40
1.0
176
     1
 90
        0
176
     1
 62
     7
176
     1
 40
1.0
176
     1
 90
        1
176
     1
 90
        6
176
     1
 90
        2
176
     1
 62
     7
176
     1
 90
        5
176
     1
 90
        0
176
     1
 90
        0
176
     1
290
     0
176
     1
 90
       13
176
     1
 40
0.0
176
     1
 90
        0
176
     1
290
     0
176
     1
290
     1
176
     1
290
     1
176
     1
290
     0
176
     1
290
     0
176
     1
290
     0
176
     1
290
     0
176
     1
290
     0
176
     1
290
     0
176
     1
 90
       50
176
     1
 40
0.0
176
     1
 40
1.0
176
     1
 90
        0
176
     1
 62
    18
420
        0
176
     1
 90
       50
176
     1
 90
        3
176
     1
 62
     5
420
      255
176
     1
290
     0
176
     1
 90
       50
176
     1
 90
       50
176
     1
 90
       50
176
     1
290
     0
176
     1
 90
       50
176
     1
 62
   256
176
     0
 40
1.0
176
     0
 90
        2
176
     1
  1
strokes_ogs.tif
176
     1
290
     0
176
     1
 40
1.0
176
     1
 40
1.0
176
     1
  0
VISUALSTYLE
  5
2E
102
{ACAD_REACTORS
330
2A
102
}
330
2A
100
AcDbVisualStyle
  2
GouraudWithEdges
 70
     3
177
     3
291
     1
 70
    58
 90
        2
176
     1
 90
        2
176
     1
 90
        1
176
     1
 90
        2
176
     1
 40
0.6
176
     1
 40
30.0
176
     1
 62
     7
420
 16777215
176
     1
 90
        1
176
     1
 90
        0
176
     1
 62
     7
176
     1
 62
   257
176
     1
 90
        1
176
     1
 90
        1
176
     1
 40
1.0
176
     1
 90
        0
176
     1
 62
   257
176
     1
 40
1.0
176
     1
 90
        1
176
     1
 90
        6
176
     1
 90
        2
176
     1
 62
     7
176
     1
 90
        5
176
     1
 90
        0
176
     1
 90
        0
176
     1
290
     0
176
     1
 90
       13
176
     1
 40
0.0
176
     1
 90
        0
176
     1
290
     0
176
     1
290
     1
176
     1
290
     1
176
     1
290
     0
176
     1
290
     0
176
     1
290
     0
176
     1
290
     0
176
     1
290
     0
176
     1
290
     0
176
     1
 90
       50
176
     1
 40
0.0
176
     1
 40
1.0
176
     1
 90
        0
176
     1
 62
    18
420
        0
176
     1
 90
       50
176
     1
 90
        3
176
     1
 62
     5
420
      255
176
     1
290
     0
176
     1
 90
       50
176
     1
 90
       50
176
     1
 90
       50
176
     1
290
     0
176
     1
 90
       50
176
     1
 62
   256
176
     0
 40
1.0
176
     0
 90
        2
176
     1
  1
strokes_ogs.tif
176
     1
290
     0
176
     1
 40
1.0
176
     1
 40
1.0
176
     1
  0
VISUALSTYLE
  5
31
102
{ACAD_REACTORS
330
2A
102
}
330
2A
100
AcDbVisualStyle
  2
Hidden
 70
     6
177
     3
291
     0
 70
    58
 90
        1
176
     1
 90
        2
176
     1
 90
        2
176
     1
 90
        0
176
     1
 40
0.6
176
     1
 40
30.0
176
     1
 62
     7
420
 16777215
176
     1
 90
        2
176
     1
 90
        2
176
     1
 62
     7
176
     1
 62
   257
176
     1
 90
        2
176
     1
 90
        1
176
     1
 40
40.0
176
     1
 90
        0
176
     1
 62
   257
176
     1
 40
1.0
176
     1
 90
        1
176
     1
 90
        6
176
     1
 90
        2
176
     1
 62
     7
176
     1
 90
        3
176
     1
 90
        0
176
     1
 90
        0
176
     1
290
     0
176
     1
 90
        1
176
     1
 40
0.0
176
     1
 90
        0
176
     1
290
     0
176
     1
290
     1
176
     1
290
     1
176
     1
290
     0
176
     1
290
     0
176
     1
290
     0
176
     1
290
     0
176
     1
290
     0
176
     1
290
     0
176
     1
 90
       50
176
     1
 40
0.0
176
     1
 40
1.0
176
     1
 90
        0
176
     1
 62
    18
420
        0
176
     1
 90
       50
176
     1
 90
        3
176
     1
 62
     5
420
      255
176
     1
290
     0
176
     1
 90
       50
176
     1
 90
       50
176
     1
 90
       50
176
     1
290
     0
176
     1
 90
       50
176
     1
 62
   256
176
     0
 40
1.0
176
     0
 90
        2
176
     1
  1
strokes_ogs.tif
176
     1
290
     0
176
     1
 40
1.0
176
     1
 40
1.0
176
     1
  0
VISUALSTYLE
  5
3B
102
{ACAD_REACTORS
330
2A
102
}
330
2A
100
AcDbVisualStyle
  2
JitterOff
 70
    20
177
     3
291
     1
 70
    58
 90
        2
176
     0
 90
        2
176
     0
 90
        0
176
     0
 90
        0
176
     0
 40
0.6
176
     0
 40
30.0
176
     0
 62
     7
420
 16777215
176
     0
 90
        1
176
     0
 90
        4
176
     0
 62
     7
176
     0
 62
   257
176
     0
 90
        1
176
     0
 90
        1
176
     0
 40
1.0
176
     0
 90
       10
176
     2
 62
     7
176
     0
 40
1.0
176
     0
 90
        1
176
     0
 90
        6
176
     0
 90
        2
176
     0
 62
     7
176
     0
 90
        5
176
     0
 90
        0
176
     0
 90
        0
176
     0
290
     0
176
     0
 90
        1
176
     0
 40
0.0
176
     0
 90
        0
176
     0
290
     0
176
     0
290
     1
176
     0
290
     1
176
     0
290
     0
176
     0
290
     0
176
     0
290
     0
176
     0
290
     0
176
     0
290
     0
176
     0
290
     0
176
     0
 90
       50
176
     0
 40
0.0
176
     0
 40
1.0
176
     0
 90
        0
176
     0
 62
    18
420
        0
176
     0
 90
       50
176
     0
 90
        3
176
     0
 62
     5
420
      255
176
     0
290
     0
176
     0
 90
       50
176
     0
 90
       50
176
     0
 90
       50
176
     0
290
     0
176
     0
 90
       50
176
     0
 62
   256
176
     0
 40
1.0
176
     0
 90
        2
176
     0
  1
strokes_ogs.tif
176
     0
290
     0
176
     0
 40
1.0
176
     0
 40
1.0
176
     0
  0
VISUALSTYLE
  5
38
102
{ACAD_REACTORS
330
2A
102
}
330
2A
100
AcDbVisualStyle
  2
Linepattern
 70
    14
177
     3
291
     1
 70
    58
 90
        2
176
     1
 90
        2
176
     1
 90
        0
176
     1
 90
        0
176
     1
 40
0.6
176
     1
 40
30.0
176
     1
 62
     7
420
 16777215
176
     1
 90
        1
176
     1
 90
        4
176
     1
 62
     7
176
     1
 62
   257
176
     1
 90
        7
176
     1
 90
        7
176
     1
 40
1.0
176
     1
 90
        8
176
     1
 62
     7
176
     1
 40
1.0
176
     1
 90
        1
176
     1
 90
        6
176
     1
 90
        2
176
     1
 62
     7
176
     1
 90
        5
176
     1
 90
        0
176
     1
 90
        0
176
     1
290
     0
176
     1
 90
        1
176
     1
 40
0.0
176
     1
 90
        0
176
     1
290
     0
176
     1
290
     1
176
     1
290
     1
176
     1
290
     0
176
     1
290
     0
176
     1
290
     0
176
     1
290
     0
176
     1
290
     0
176
     1
290
     0
176
     1
 90
       50
176
     1
 40
0.0
176
     1
 40
1.0
176
     1
 90
        0
176
     1
 62
    18
420
        0
176
     1
 90
       50
176
     1
 90
        3
176
     1
 62
     5
420
      255
176
     1
290
     0
176
     1
 90
       50
176
     1
 90
       50
176
     1
 90
       50
176
     1
290
     0
176
     1
 90
       50
176
     1
 62
   256
176
     0
 40
1.0
176
     0
 90
        2
176
     1
  1
strokes_ogs.tif
176
     1
290
     0
176
     1
 40
1.0
176
     1
 40
1.0
176
     1
  0
VISUALSTYLE
  5
3C
102
{ACAD_REACTORS
330
2A
102
}
330
2A
100
AcDbVisualStyle
  2
OverhangOff
 70
    21
177
     3
291
     1
 70
    58
 90
        2
176
     0
 90
        2
176
     0
 90
        0
176
     0
 90
        0
176
     0
 40
0.6
176
     0
 40
30.0
176
     0
 62
     7
420
 16777215
176
     0
 90
        1
176
     0
 90
        4
176
     0
 62
     7
176
     0
 62
   257
176
     0
 90
        1
176
     0
 90
        1
176
     0
 40
1.0
176
     0
 90
        9
176
     2
 62
     7
176
     0
 40
1.0
176
     0
 90
        1
176
     0
 90
        6
176
     0
 90
        2
176
     0
 62
     7
176
     0
 90
        5
176
     0
 90
        0
176
     0
 90
        0
176
     0
290
     0
176
     0
 90
        1
176
     0
 40
0.0
176
     0
 90
        0
176
     0
290
     0
176
     0
290
     1
176
     0
290
     1
176
     0
290
     0
176
     0
290
     0
176
     0
290
     0
176
     0
290
     0
176
     0
290
     0
176
     0
290
     0
176
     0
 90
       50
176
     0
 40
0.0
176
     0
 40
1.0
176
     0
 90
        0
176
     0
 62
    18
420
        0
176
     0
 90
       50
176
     0
 90
        3
176
     0
 62
     5
420
      255
176
     0
290
     0
176
     0
 90
       50
176
     0
 90
       50
176
     0
 90
       50
176
     0
290
     0
176
     0
 90
       50
176
     0
 62
   256
176
     0
 40
1.0
176
     0
 90
        2
176
     0
  1
strokes_ogs.tif
176
     0
290
     0
176
     0
 40
1.0
176
     0
 40
1.0
176
     0
  0
VISUALSTYLE
  5
33
102
{ACAD_REACTORS
330
2A
102
}
330
2A
100
AcDbVisualStyle
  2
Realistic
 70
     8
177
     3
291
     0
 70
    58
 90
        2
176
     1
 90
        3
176
     1
 90
        0
176
     1
 90
        2
176
     1
 40
0.6
176
     1
 40
30.0
176
     1
 62
     7
420
 16777215
176
     1
 90
        0
176
     1
 90
        0
176
     1
 62
     7
176
     1
 62
   257
176
     1
 90
        1
176
     1
 90
        1
176
     1
 40
1.0
176
     1
 90
        8
176
     1
 62
   257
176
     1
 40
1.0
176
     1
 90
        1
176
     1
 90
        6
176
     1
 90
        2
176
     1
 62
     7
176
     1
 90
        3
176
     1
 90
        0
176
     1
 90
        0
176
     1
290
     0
176
     1
 90
       13
176
     1
 40
0.0
176
     1
 90
        0
176
     1
290
     0
176
     1
290
     1
176
     1
290
     1
176
     1
290
     0
176
     1
290
     0
176
     1
290
     0
176
     1
290
     0
176
     1
290
     0
176
     1
290
     0
176
     1
 90
       50
176
     1
 40
0.0
176
     1
 40
1.0
176
     1
 90
        0
176
     1
 62
    18
420
        0
176
     1
 90
       50
176
     1
 90
        3
176
     1
 62
     5
420
      255
176
     1
290
     0
176
     1
 90
       50
176
     1
 90
       50
176
     1
 90
       50
176
     1
290
     0
176
     1
 90
       50
176
     1
 62
   256
176
     0
 40
1.0
176
     0
 90
        2
176
     1
  1
strokes_ogs.tif
176
     1
290
     0
176
     1
 40
1.0
176
     1
 40
1.0
176
     1
  0
VISUALSTYLE
  5
42
102
{ACAD_REACTORS
330
2A
102
}
330
2A
100
AcDbVisualStyle
  2
Shaded
 70
    27
177
     3
291
     0
 70
    58
 90
        2
176
     1
 90
        2
176
     1
 90
        1
176
     1
 90
        2
176
     1
 40
0.6
176
     1
 40
30.0
176
     1
 62
     7
420
 16777215
176
     1
 90
        0
176
     1
 90
        4
176
     1
 62
     7
176
     1
 62
   257
176
     1
 90
        1
176
     1
 90
        1
176
     1
 40
1.0
176
     1
 90
        8
176
     1
 62
   257
176
     1
 40
1.0
176
     1
 90
        1
176
     1
 90
        6
176
     1
 90
        2
176
     1
 62
     8
420
  7895160
176
     1
 90
        3
176
     1
 90
        0
176
     1
 90
        0
176
     1
290
     0
176
     1
 90
        5
176
     1
 40
0.0
176
     1
 90
        0
176
     1
290
     0
176
     1
290
     1
176
     1
290
     1
176
     1
290
     0
176
     1
290
     0
176
     1
290
     0
176
     1
290
     0
176
     1
290
     0
176
     1
290
     0
176
     1
 90
       50
176
     1
 40
0.0
176
     1
 40
1.0
176
     1
 90
        0
176
     1
 62
    18
420
        0
176
     1
 90
       50
176
     1
 90
        3
176
     1
 62
     5
420
      255
176
     1
290
     0
176
     1
 90
       50
176
     1
 90
       50
176
     1
 90
       50
176
     1
290
     0
176
     1
 90
       50
176
     1
 62
   256
176
     0
 40
1.0
176
     0
 90
        2
176
     1
  1
strokes_ogs.tif
176
     1
290
     0
176
     1
 40
1.0
176
     1
 40
1.0
176
     1
  0
VISUALSTYLE
  5
41
102
{ACAD_REACTORS
330
2A
102
}
330
2A
100
AcDbVisualStyle
  2
Shaded with edges
 70
    26
177
     3
291
     0
 70
    58
 90
        2
176
     1
 90
        2
176
     1
 90
        1
176
     1
 90
        2
176
     1
 40
0.6
176
     1
 40
30.0
176
     1
 62
     7
420
 16777215
176
     1
 90
        1
176
     1
 90
       10
176
     1
 62
     7
176
     1
 62
   257
176
     1
 90
        2
176
     1
 90
        1
176
     1
 40
1.0
176
     1
 90
        8
176
     1
 62
   257
176
     1
 40
1.0
176
     1
 90
        1
176
     1
 90
        6
176
     1
 90
        2
176
     1
 62
     7
176
     1
 90
        3
176
     1
 90
        0
176
     1
 90
        0
176
     1
290
     0
176
     1
 90
        5
176
     1
 40
0.0
176
     1
 90
        0
176
     1
290
     0
176
     1
290
     1
176
     1
290
     1
176
     1
290
     0
176
     1
290
     0
176
     1
290
     0
176
     1
290
     0
176
     1
290
     0
176
     1
290
     0
176
     1
 90
       50
176
     1
 40
0.0
176
     1
 40
1.0
176
     1
 90
        0
176
     1
 62
    18
420
        0
176
     1
 90
       50
176
     1
 90
        3
176
     1
 62
     5
420
      255
176
     1
290
     0
176
     1
 90
       50
176
     1
 90
       50
176
     1
 90
       50
176
     1
290
     0
176
     1
 90
       50
176
     1
 62
   256
176
     0
 40
1.0
176
     0
 90
        2
176
     1
  1
strokes_ogs.tif
176
     1
290
     0
176
     1
 40
1.0
176
     1
 40
1.0
176
     1
  0
VISUALSTYLE
  5
3E
102
{ACAD_REACTORS
330
2A
102
}
330
2A
100
AcDbVisualStyle
  2
Shades of Gray
 70
    23
177
     3
291
     0
 70
    58
 90
        2
176
     1
 90
        2
176
     1
 90
        3
176
     1
 90
        0
176
     1
 40
0.6
176
     1
 40
30.0
176
     1
 62
     7
420
 16777215
176
     1
 90
        2
176
     1
 90
        2
176
     1
 62
     7
176
     1
 62
     7
176
     1
 90
        1
176
     1
 90
        1
176
     1
 40
40.0
176
     1
 90
        8
176
     1
 62
     7
176
     1
 40
1.0
176
     1
 90
        1
176
     1
 90
        6
176
     1
 90
        2
176
     1
 62
     7
176
     1
 90
        3
176
     1
 90
        0
176
     1
 90
        0
176
     1
290
     0
176
     1
 90
        1
176
     1
 40
0.0
176
     1
 90
        0
176
     1
290
     0
176
     1
290
     1
176
     1
290
     1
176
     1
290
     0
176
     1
290
     0
176
     1
290
     0
176
     1
290
     0
176
     1
290
     0
176
     1
290
     0
176
     1
 90
       50
176
     1
 40
0.0
176
     1
 40
1.0
176
     1
 90
        0
176
     1
 62
    18
420
        0
176
     1
 90
       50
176
     1
 90
        3
176
     1
 62
     5
420
      255
176
     1
290
     0
176
     1
 90
       50
176
     1
 90
       50
176
     1
 90
       50
176
     1
290
     0
176
     1
 90
       50
176
     1
 62
   256
176
     0
 40
1.0
176
     0
 90
        2
176
     1
  1
strokes_ogs.tif
176
     1
290
     0
176
     1
 40
1.0
176
     1
 40
1.0
176
     1
  0
VISUALSTYLE
  5
3F
102
{ACAD_REACTORS
330
2A
102
}
330
2A
100
AcDbVisualStyle
  2
Sketchy
 70
    24
177
     3
291
     0
 70
    58
 90
        1
176
     1
 90
        2
176
     1
 90
        2
176
     1
 90
        0
176
     1
 40
0.6
176
     1
 40
30.0
176
     1
 62
     7
420
 16777215
176
     1
 90
        2
176
     1
 90
        2
176
     1
 62
     7
176
     1
 62
     7
176
     1
 90
        1
176
     1
 90
        1
176
     1
 40
40.0
176
     1
 90
       11
176
     1
 62
     7
176
     1
 40
1.0
176
     1
 90
        1
176
     1
 90
        6
176
     1
 90
        2
176
     1
 62
     7
176
     1
 90
        6
176
     1
 90
        0
176
     1
 90
        0
176
     1
290
     0
176
     1
 90
        1
176
     1
 40
0.0
176
     1
 90
        0
176
     1
290
     0
176
     1
290
     1
176
     1
290
     1
176
     1
290
     0
176
     1
290
     0
176
     1
290
     0
176
     1
290
     0
176
     1
290
     0
176
     1
290
     0
176
     1
 90
       50
176
     1
 40
0.0
176
     1
 40
1.0
176
     1
 90
        0
176
     1
 62
    18
420
        0
176
     1
 90
       50
176
     1
 90
        3
176
     1
 62
     5
420
      255
176
     1
290
     0
176
     1
 90
       50
176
     1
 90
       50
176
     1
 90
       50
176
     1
290
     0
176
     1
 90
       50
176
     1
 62
   256
176
     0
 40
1.0
176
     0
 90
        2
176
     1
  1
strokes_ogs.tif
176
     1
290
     0
176
     1
 40
1.0
176
     1
 40
1.0
176
     1
  0
VISUALSTYLE
  5
37
102
{ACAD_REACTORS
330
2A
102
}
330
2A
100
AcDbVisualStyle
  2
Thicken
 70
    13
177
     3
291
     1
 70
    58
 90
        2
176
     1
 90
        2
176
     1
 90
        0
176
     1
 90
        0
176
     1
 40
0.6
176
     1
 40
30.0
176
     1
 62
     7
420
 16777215
176
     1
 90
        1
176
     1
 90
        4
176
     1
 62
     7
176
     1
 62
   257
176
     1
 90
        1
176
     1
 90
        1
176
     1
 40
1.0
176
     1
 90
       12
176
     1
 62
     7
176
     1
 40
1.0
176
     1
 90
        1
176
     1
 90
        6
176
     1
 90
        2
176
     1
 62
     7
176
     1
 90
        5
176
     1
 90
        0
176
     1
 90
        0
176
     1
290
     0
176
     1
 90
        1
176
     1
 40
0.0
176
     1
 90
        0
176
     1
290
     0
176
     1
290
     1
176
     1
290
     1
176
     1
290
     0
176
     1
290
     0
176
     1
290
     0
176
     1
290
     0
176
     1
290
     0
176
     1
290
     0
176
     1
 90
       50
176
     1
 40
0.0
176
     1
 40
1.0
176
     1
 90
        0
176
     1
 62
    18
420
        0
176
     1
 90
       50
176
     1
 90
        3
176
     1
 62
     5
420
      255
176
     1
290
     0
176
     1
 90
       50
176
     1
 90
       50
176
     1
 90
       50
176
     1
290
     0
176
     1
 90
       50
176
     1
 62
   256
176
     0
 40
1.0
176
     0
 90
        2
176
     1
  1
strokes_ogs.tif
176
     1
290
     0
176
     1
 40
1.0
176
     1
 40
1.0
176
     1
  0
VISUALSTYLE
  5
30
102
{ACAD_REACTORS
330
2A
102
}
330
2A
100
AcDbVisualStyle
  2
Wireframe
 70
     5
177
     3
291
     0
 70
    58
 90
        0
176
     1
 90
        2
176
     1
 90
        0
176
     1
 90
        0
176
     1
 40
0.6
176
     1
 40
30.0
176
     1
 62
     7
420
 16777215
176
     1
 90
        1
176
     1
 90
        4
176
     1
 62
     7
176
     1
 62
   257
176
     1
 90
        1
176
     1
 90
        1
176
     1
 40
1.0
176
     1
 90
        0
176
     1
 62
   257
176
     1
 40
1.0
176
     1
 90
        1
176
     1
 90
        6
176
     1
 90
        2
176
     1
 62
     7
176
     1
 90
        3
176
     1
 90
        0
176
     1
 90
        0
176
     1
290
     0
176
     1
 90
        1
176
     1
 40
0.0
176
     1
 90
        0
176
     1
290
     0
176
     1
290
     1
176
     1
290
     1
176
     1
290
     0
176
     1
290
     0
176
     1
290
     0
176
     1
290
     0
176
     1
290
     0
176
     1
290
     0
176
     1
 90
       50
176
     1
 40
0.0
176
     1
 40
1.0
176
     1
 90
        0
176
     1
 62
    18
420
        0
176
     1
 90
       50
176
     1
 90
        3
176
     1
 62
     5
420
      255
176
     1
290
     0
176
     1
 90
       50
176
     1
 90
       50
176
     1
 90
       50
176
     1
290
     0
176
     1
 90
       50
176
     1
 62
   256
176
     0
 40
1.0
176
     0
 90
        2
176
     1
  1
strokes_ogs.tif
176
     1
290
     0
176
     1
 40
1.0
176
     1
 40
1.0
176
     1
  0
VISUALSTYLE
  5
40
102
{ACAD_REACTORS
330
2A
102
}
330
2A
100
AcDbVisualStyle
  2
X-Ray
 70
    25
177
     3
291
     0
 70
    58
 90
        2
176
     1
 90
        2
176
     1
 90
        1
176
     1
 90
        1
176
     1
 40
0.5
176
     1
 40
30.0
176
     1
 62
     7
420
 16777215
176
     1
 90
        1
176
     1
 90
        0
176
     1
 62
     7
176
     1
 62
   257
176
     1
 90
        1
176
     1
 90
        1
176
     1
 40
1.0
176
     1
 90
        8
176
     1
 62
     7
176
     1
 40
1.0
176
     1
 90
        1
176
     1
 90
        6
176
     1
 90
        2
176
     1
 62
     7
176
     1
 90
        3
176
     1
 90
        0
176
     1
 90
        0
176
     1
290
     0
176
     1
 90
       13
176
     1
 40
0.0
176
     1
 90
        0
176
     1
290
     0
176
     1
290
     1
176
     1
290
     1
176
     1
290
     0
176
     1
290
     0
176
     1
290
     0
176
     1
290
     0
176
     1
290
     0
176
     1
290
     0
176
     1
 90
       50
176
     1
 40
0.0
176
     1
 40
1.0
176
     1
 90
        0
176
     1
 62
    18
420
        0
176
     1
 90
       50
176
     1
 90
        3
176
     1
 62
     5
420
      255
176
     1
290
     0
176
     1
 90
       50
176
     1
 90
       50
176
     1
 90
       50
176
     1
290
     0
176
     1
 90
       50
176
     1
 62
   256
176
     0
 40
1.0
176
     0
 90
        2
176
     1
  1
strokes_ogs.tif
176
     1
290
     0
176
     1
 40
1.0
176
     1
 40
1.0
176
     1
  0
DICTIONARYVAR
  5
7E
102
{ACAD_REACTORS
330
7D
102
}
330
7D
100
DictionaryVariables
280
     0
  1
1:1
  0
DICTIONARYVAR
  5
83
102
{ACAD_REACTORS
330
7D
102
}
330
7D
100
DictionaryVariables
280
     0
  1
Standard
  0
DICTIONARYVAR
  5
82
102
{ACAD_REACTORS
330
7D
102
}
330
7D
100
DictionaryVariables
280
     0
  1
Standard
  0
DICTIONARY
  5
7F
330
5A
100
AcDbDictionary
280
     1
281
     1
  3
ACAD_ROUNDTRIP_2008_TABLESTYLE_CELLSTYLEMAP
360
80
  0
CELLSTYLEMAP
  5
80
102
{ACAD_REACTORS
330
7F
102
}
330
7F
100
AcDbCellStyleMap
 90
        3
300
CELLSTYLE
  1
TABLEFORMAT_BEGIN
 90
        5
170
     1
 91
        0
 92
    32768
 62
   257
 93
        1
300
CONTENTFORMAT
  1
CONTENTFORMAT_BEGIN
 90
        0
 91
        0
 92
        4
 93
        0
300

 40
0.0
140
1.0
 94
        5
 62
     0
340
11
144
0.25
309
CONTENTFORMAT_END
171
     1
301
MARGIN
  1
CELLMARGIN_BEGIN
 40
0.06
 40
0.06
 40
0.06
 40
0.06
 40
0.06
 40
0.06
309
CELLMARGIN_END
 94
        6
 95
        1
302
GRIDFORMAT
  1
GRIDFORMAT_BEGIN
 90
        0
 91
        1
 62
     0
 92
       -2
340
14
 93
        0
 40
0.045
309
GRIDFORMAT_END
 95
        2
302
GRIDFORMAT
  1
GRIDFORMAT_BEGIN
 90
        0
 91
        1
 62
     0
 92
       -2
340
14
 93
        0
 40
0.045
309
GRIDFORMAT_END
 95
        4
302
GRIDFORMAT
  1
GRIDFORMAT_BEGIN
 90
        0
 91
        1
 62
     0
 92
       -2
340
14
 93
        0
 40
0.045
309
GRIDFORMAT_END
 95
        8
302
GRIDFORMAT
  1
GRIDFORMAT_BEGIN
 90
        0
 91
        1
 62
     0
 92
       -2
340
14
 93
        0
 40
0.045
309
GRIDFORMAT_END
 95
       16
302
GRIDFORMAT
  1
GRIDFORMAT_BEGIN
 90
        0
 91
        1
 62
     0
 92
       -2
340
14
 93
        0
 40
0.045
309
GRIDFORMAT_END
 95
       32
302
GRIDFORMAT
  1
GRIDFORMAT_BEGIN
 90
        0
 91
        1
 62
     0
 92
       -2
340
14
 93
        0
 40
0.045
309
GRIDFORMAT_END
309
TABLEFORMAT_END
  1
CELLSTYLE_BEGIN
 90
        1
 91
        1
300
_TITLE
309
CELLSTYLE_END
300
CELLSTYLE
  1
TABLEFORMAT_BEGIN
 90
        5
170
     1
 91
        0
 92
        0
 62
   257
 93
        1
300
CONTENTFORMAT
  1
CONTENTFORMAT_BEGIN
 90
        0
 91
        0
 92
        4
 93
        0
300

 40
0.0
140
1.0
 94
        5
 62
     0
340
11
144
0.18
309
CONTENTFORMAT_END
171
     1
301
MARGIN
  1
CELLMARGIN_BEGIN
 40
0.06
 40
0.06
 40
0.06
 40
0.06
 40
0.06
 40
0.06
309
CELLMARGIN_END
 94
        6
 95
        1
302
GRIDFORMAT
  1
GRIDFORMAT_BEGIN
 90
        0
 91
        1
 62
     0
 92
       -2
340
14
 93
        0
 40
0.045
309
GRIDFORMAT_END
 95
        2
302
GRIDFORMAT
  1
GRIDFORMAT_BEGIN
 90
        0
 91
        1
 62
     0
 92
       -2
340
14
 93
        0
 40
0.045
309
GRIDFORMAT_END
 95
        4
302
GRIDFORMAT
  1
GRIDFORMAT_BEGIN
 90
        0
 91
        1
 62
     0
 92
       -2
340
14
 93
        0
 40
0.045
309
GRIDFORMAT_END
 95
        8
302
GRIDFORMAT
  1
GRIDFORMAT_BEGIN
 90
        0
 91
        1
 62
     0
 92
       -2
340
14
 93
        0
 40
0.045
309
GRIDFORMAT_END
 95
       16
302
GRIDFORMAT
  1
GRIDFORMAT_BEGIN
 90
        0
 91
        1
 62
     0
 92
       -2
340
14
 93
        0
 40
0.045
309
GRIDFORMAT_END
 95
       32
302
GRIDFORMAT
  1
GRIDFORMAT_BEGIN
 90
        0
 91
        1
 62
     0
 92
       -2
340
14
 93
        0
 40
0.045
309
GRIDFORMAT_END
309
TABLEFORMAT_END
  1
CELLSTYLE_BEGIN
 90
        2
 91
        1
300
_HEADER
309
CELLSTYLE_END
300
CELLSTYLE
  1
TABLEFORMAT_BEGIN
 90
        5
170
     1
 91
        0
 92
        0
 62
   257
 93
        1
300
CONTENTFORMAT
  1
CONTENTFORMAT_BEGIN
 90
        0
 91
        0
 92
        4
 93
        0
300

 40
0.0
140
1.0
 94
        2
 62
     0
340
11
144
0.18
309
CONTENTFORMAT_END
171
     1
301
MARGIN
  1
CELLMARGIN_BEGIN
 40
0.06
 40
0.06
 40
0.06
 40
0.06
 40
0.06
 40
0.06
309
CELLMARGIN_END
 94
        6
 95
        1
302
GRIDFORMAT
  1
GRIDFORMAT_BEGIN
 90
        0
 91
        1
 62
     0
 92
       -2
340
14
 93
        0
 40
0.045
309
GRIDFORMAT_END
 95
        2
302
GRIDFORMAT
  1
GRIDFORMAT_BEGIN
 90
        0
 91
        1
 62
     0
 92
       -2
340
14
 93
        0
 40
0.045
309
GRIDFORMAT_END
 95
        4
302
GRIDFORMAT
  1
GRIDFORMAT_BEGIN
 90
        0
 91
        1
 62
     0
 92
       -2
340
14
 93
        0
 40
0.045
309
GRIDFORMAT_END
 95
        8
302
GRIDFORMAT
  1
GRIDFORMAT_BEGIN
 90
        0
 91
        1
 62
     0
 92
       -2
340
14
 93
        0
 40
0.045
309
GRIDFORMAT_END
 95
       16
302
GRIDFORMAT
  1
GRIDFORMAT_BEGIN
 90
        0
 91
        1
 62
     0
 92
       -2
340
14
 93
        0
 40
0.045
309
GRIDFORMAT_END
 95
       32
302
GRIDFORMAT
  1
GRIDFORMAT_BEGIN
 90
        0
 91
        1
 62
     0
 92
       -2
340
14
 93
        0
 40
0.045
309
GRIDFORMAT_END
309
TABLEFORMAT_END
  1
CELLSTYLE_BEGIN
 90
        3
 91
        2
300
_DATA
309
CELLSTYLE_END
  0
ENDSEC
  0
EOF
