  0
SECTION
  2
HEADER
  9
$ACADVER
  1
AC1032
  9
$ACADMAINTVER
 90
       55
  9
$DWGCODEPAGE
  3
UNDEFINED
  9
$LASTSAVEDBY
  1
Administrator
  9
$REQUIREDVERSIONS
160
                 0
  9
$INSBASE
 10
0.0
 20
0.0
 30
0.0
  9
$EXTMIN
 10
196.2671
 20
258.3188
 30
0.0
  9
$EXTMAX
 10
236.4435
 20
298.4952
 30
0.0
  9
$LIMMIN
 10
0.0
 20
0.0
  9
$LIMMAX
 10
12.0
 20
9.0
  9
$ORTHOMODE
 70
     0
  9
$REGENMODE
 70
     1
  9
$FILLMODE
 70
     1
  9
$QTEXTMODE
 70
     0
  9
$MIRRTEXT
 70
     1
  9
$LTSCALE
 40
1.0
  9
$ATTMODE
 70
     1
  9
$TEXTSIZE
 40
0.2
  9
$TRACEWID
 40
0.05
  9
$TEXTSTYLE
  7
Standard
  9
$CLAYER
  8
0
  9
$CELTYPE
  6
ByLayer
  9
$CECOLOR
 62
   256
  9
$CELTSCALE
 40
1.0
  9
$DISPSILH
 70
     0
  9
$DIMSCALE
 40
1.0
  9
$DIMASZ
 40
0.18
  9
$DIMEXO
 40
0.0625
  9
$DIMDLI
 40
0.38
  9
$DIMRND
 40
0.0
  9
$DIMDLE
 40
0.0
  9
$DIMEXE
 40
0.18
  9
$DIMTP
 40
0.0
  9
$DIMTM
 40
0.0
  9
$DIMTXT
 40
0.18
  9
$DIMCEN
 40
0.09
  9
$DIMTSZ
 40
0.0
  9
$DIMTOL
 70
     0
  9
$DIMLIM
 70
     0
  9
$DIMTIH
 70
     1
  9
$DIMTOH
 70
     1
  9
$DIMSE1
 70
     0
  9
$DIMSE2
 70
     0
  9
$DIMTAD
 70
     0
  9
$DIMZIN
 70
     0
  9
$DIMBLK
  1

  9
$DIMASO
 70
     1
  9
$DIMSHO
 70
     1
  9
$DIMPOST
  1

  9
$DIMAPOST
  1

  9
$DIMALT
 70
     0
  9
$DIMALTD
 70
     2
  9
$DIMALTF
 40
25.4
  9
$DIMLFAC
 40
1.0
  9
$DIMTOFL
 70
     0
  9
$DIMTVP
 40
0.0
  9
$DIMTIX
 70
     0
  9
$DIMSOXD
 70
     0
  9
$DIMSAH
 70
     0
  9
$DIMBLK1
  1

  9
$DIMBLK2
  1

  9
$DIMSTYLE
  2
Standard
  9
$DIMCLRD
 70
     0
  9
$DIMCLRE
 70
     0
  9
$DIMCLRT
 70
     0
  9
$DIMTFAC
 40
1.0
  9
$DIMGAP
 40
0.09
  9
$DIMJUST
 70
     0
  9
$DIMSD1
 70
     0
  9
$DIMSD2
 70
     0
  9
$DIMTOLJ
 70
     1
  9
$DIMTZIN
 70
     0
  9
$DIMALTZ
 70
     0
  9
$DIMALTTZ
 70
     0
  9
$DIMUPT
 70
     0
  9
$DIMDEC
 70
     4
  9
$DIMTDEC
 70
     4
  9
$DIMALTU
 70
     2
  9
$DIMALTTD
 70
     2
  9
$DIMTXSTY
  7
Standard
  9
$DIMAUNIT
 70
     0
  9
$DIMADEC
 70
     0
  9
$DIMALTRND
 40
0.0
  9
$DIMAZIN
 70
     0
  9
$DIMDSEP
 70
    46
  9
$DIMATFIT
 70
     3
  9
$DIMFRAC
 70
     0
  9
$DIMLDRBLK
  1

  9
$DIMLUNIT
 70
     2
  9
$DIMLWD
 70
    -2
  9
$DIMLWE
 70
    -2
  9
$DIMTMOVE
 70
     0
  9
$DIMFXL
 40
1.0
  9
$DIMFXLON
 70
     0
  9
$DIMJOGANG
 40
0.7853981633974483
  9
$DIMTFILL
 70
     0
  9
$DIMTFILLCLR
 70
     0
  9
$DIMARCSYM
 70
     0
  9
$DIMLTYPE
  6

  9
$DIMLTEX1
  6

  9
$DIMLTEX2
  6

  9
$DIMTXTDIRECTION
 70
     0
  9
$LUNITS
 70
     2
  9
$LUPREC
 70
     4
  9
$SKETCHINC
 40
0.1
  9
$FILLETRAD
 40
0.0
  9
$AUNITS
 70
     0
  9
$AUPREC
 70
     0
  9
$MENU
  1
.
  9
$ELEVATION
 40
0.0
  9
$PELEVATION
 40
0.0
  9
$THICKNESS
 40
0.0
  9
$LIMCHECK
 70
     0
  9
$CHAMFERA
 40
0.0
  9
$CHAMFERB
 40
0.0
  9
$CHAMFERC
 40
0.0
  9
$CHAMFERD
 40
0.0
  9
$SKPOLY
 70
     0
  9
$TDCREATE
 40
2460384.375936423
  9
$TDUCREATE
 40
2460384.23010309
  9
$TDUPDATE
 40
2460384.375936644
  9
$TDUUPDATE
 40
2460384.23010331
  9
$TDINDWG
 40
0.0000000116
  9
$TDUSRTIMER
 40
0.0000000116
  9
$USRTIMER
 70
     1
  9
$ANGBASE
 50
0.0
  9
$ANGDIR
 70
     0
  9
$PDMODE
 70
     0
  9
$PDSIZE
 40
0.0
  9
$PLINEWID
 40
0.0
  9
$SPLFRAME
 70
     0
  9
$SPLINETYPE
 70
     6
  9
$SPLINESEGS
 70
     8
  9
$HANDSEED
  5
80
  9
$SURFTAB1
 70
     6
  9
$SURFTAB2
 70
     6
  9
$SURFTYPE
 70
     6
  9
$SURFU
 70
     6
  9
$SURFV
 70
     6
  9
$UCSBASE
  2

  9
$UCSNAME
  2

  9
$UCSORG
 10
0.0
 20
0.0
 30
0.0
  9
$UCSXDIR
 10
1.0
 20
0.0
 30
0.0
  9
$UCSYDIR
 10
0.0
 20
1.0
 30
0.0
  9
$UCSORTHOREF
  2

  9
$UCSORTHOVIEW
 70
     0
  9
$UCSORGTOP
 10
0.0
 20
0.0
 30
0.0
  9
$UCSORGBOTTOM
 10
0.0
 20
0.0
 30
0.0
  9
$UCSORGLEFT
 10
0.0
 20
0.0
 30
0.0
  9
$UCSORGRIGHT
 10
0.0
 20
0.0
 30
0.0
  9
$UCSORGFRONT
 10
0.0
 20
0.0
 30
0.0
  9
$UCSORGBACK
 10
0.0
 20
0.0
 30
0.0
  9
$PUCSBASE
  2

  9
$PUCSNAME
  2

  9
$PUCSORG
 10
0.0
 20
0.0
 30
0.0
  9
$PUCSXDIR
 10
1.0
 20
0.0
 30
0.0
  9
$PUCSYDIR
 10
0.0
 20
1.0
 30
0.0
  9
$PUCSORTHOREF
  2

  9
$PUCSORTHOVIEW
 70
     0
  9
$PUCSORGTOP
 10
0.0
 20
0.0
 30
0.0
  9
$PUCSORGBOTTOM
 10
0.0
 20
0.0
 30
0.0
  9
$PUCSORGLEFT
 10
0.0
 20
0.0
 30
0.0
  9
$PUCSORGRIGHT
 10
0.0
 20
0.0
 30
0.0
  9
$PUCSORGFRONT
 10
0.0
 20
0.0
 30
0.0
  9
$PUCSORGBACK
 10
0.0
 20
0.0
 30
0.0
  9
$USERI1
 70
     0
  9
$USERI2
 70
     0
  9
$USERI3
 70
     0
  9
$USERI4
 70
     0
  9
$USERI5
 70
     0
  9
$USERR1
 40
0.0
  9
$USERR2
 40
0.0
  9
$USERR3
 40
0.0
  9
$USERR4
 40
0.0
  9
$USERR5
 40
0.0
  9
$WORLDVIEW
 70
     1
  9
$SHADEDGE
 70
     3
  9
$SHADEDIF
 70
    70
  9
$TILEMODE
 70
     1
  9
$MAXACTVP
 70
    64
  9
$PINSBASE
 10
0.0
 20
0.0
 30
0.0
  9
$PLIMCHECK
 70
     0
  9
$PEXTMIN
 10
1.000000000000000E+20
 20
1.000000000000000E+20
 30
1.000000000000000E+20
  9
$PEXTMAX
 10
-1.000000000000000E+20
 20
-1.000000000000000E+20
 30
-1.000000000000000E+20
  9
$PLIMMIN
 10
0.0
 20
0.0
  9
$PLIMMAX
 10
12.0
 20
9.0
  9
$UNITMODE
 70
     0
  9
$VISRETAIN
 70
     1
  9
$PLINEGEN
 70
     0
  9
$PSLTSCALE
 70
     1
  9
$TREEDEPTH
 70
  3020
  9
$CMLSTYLE
  2
Standard
  9
$CMLJUST
 70
     0
  9
$CMLSCALE
 40
1.0
  9
$PROXYGRAPHICS
 70
     1
  9
$MEASUREMENT
 70
     0
  9
$CELWEIGHT
370
    -1
  9
$ENDCAPS
280
     0
  9
$JOINSTYLE
280
     0
  9
$LWDISPLAY
290
     0
  9
$INSUNITS
 70
     4
  9
$HYPERLINKBASE
  1

  9
$STYLESHEET
  1

  9
$XEDIT
290
     1
  9
$CEPSNTYPE
380
     0
  9
$PSTYLEMODE
290
     1
  9
$FINGERPRINTGUID
  2
{3a687072-0266-454d-92f3-72b8a25c0888}
  9
$VERSIONGUID
  2
{FAEB1C32-E019-11D5-929B-00C0DF256EC4}
  9
$EXTNAMES
290
     1
  9
$PSVPSCALE
 40
0.0
  9
$OLESTARTUP
290
     0
  9
$SORTENTS
280
   127
  9
$INDEXCTL
280
     0
  9
$HIDETEXT
280
     1
  9
$XCLIPFRAME
280
     2
  9
$HALOGAP
280
     0
  9
$OBSCOLOR
 70
   257
  9
$OBSLTYPE
280
     0
  9
$INTERSECTIONDISPLAY
280
     0
  9
$INTERSECTIONCOLOR
 70
   257
  9
$DIMASSOC
280
     2
  9
$PROJECTNAME
  1

  9
$CAMERADISPLAY
290
     0
  9
$LENSLENGTH
 40
50.0
  9
$CAMERAHEIGHT
 40
0.0
  9
$STEPSPERSEC
 40
2.0
  9
$STEPSIZE
 40
6.0
  9
$3DDWFPREC
 40
2.0
  9
$PSOLWIDTH
 40
0.25
  9
$PSOLHEIGHT
 40
4.0
  9
$LOFTANG1
 40
1.570796326794897
  9
$LOFTANG2
 40
1.570796326794897
  9
$LOFTMAG1
 40
0.0
  9
$LOFTMAG2
 40
0.0
  9
$LOFTPARAM
 70
     7
  9
$LOFTNORMALS
280
     1
  9
$LATITUDE
 40
37.795
  9
$LONGITUDE
 40
-122.394
  9
$NORTHDIRECTION
 40
0.0
  9
$TIMEZONE
 70
 -8000
  9
$LIGHTGLYPHDISPLAY
280
     1
  9
$TILEMODELIGHTSYNCH
280
     1
  9
$CMATERIAL
347
44
  9
$SOLIDHIST
280
     0
  9
$SHOWHIST
280
     1
  9
$DWFFRAME
280
     2
  9
$DGNFRAME
280
     2
  9
$REALWORLDSCALE
290
     1
  9
$INTERFERECOLOR
 62
   256
  9
$CSHADOW
280
     0
  9
$SHADOWPLANELOCATION
 40
0.0
  0
ENDSEC
  0
SECTION
  2
CLASSES
  0
CLASS
  1
ACDBDICTIONARYWDFLT
  2
AcDbDictionaryWithDefault
  3
ObjectDBX Classes
 90
        0
 91
        3
280
     0
281
     0
  0
CLASS
  1
VISUALSTYLE
  2
AcDbVisualStyle
  3
ObjectDBX Classes
 90
     4095
 91
        3
280
     0
281
     0
  0
CLASS
  1
MATERIAL
  2
AcDbMaterial
  3
ObjectDBX Classes
 90
     1153
 91
        3
280
     0
281
     0
  0
CLASS
  1
SCALE
  2
AcDbScale
  3
ObjectDBX Classes
 90
     1153
 91
        3
280
     0
281
     0
  0
CLASS
  1
TABLESTYLE
  2
AcDbTableStyle
  3
ObjectDBX Classes
 90
     4095
 91
        3
280
     0
281
     0
  0
CLASS
  1
MLEADERSTYLE
  2
AcDbMLeaderStyle
  3
ACDB_MLEADERSTYLE_CLASS
 90
     4095
 91
        3
280
     0
281
     0
  0
CLASS
  1
SUN
  2
AcDbSun
  3
SCENEOE
 90
     1153
 91
        3
280
     0
281
     0
  0
CLASS
  1
DICTIONARYVAR
  2
AcDbDictionaryVar
  3
ObjectDBX Classes
 90
        0
 91
        3
280
     0
281
     0
  0
CLASS
  1
CELLSTYLEMAP
  2
AcDbCellStyleMap
  3
ObjectDBX Classes
 90
     1152
 91
        3
280
     0
281
     0
  0
ENDSEC
  0
SECTION
  2
TABLES
  0
TABLE
  2
VPORT
  5
8
330
0
100
AcDbSymbolTable
 70
     1
  0
VPORT
  5
29
330
8
100
AcDbSymbolTableRecord
100
AcDbViewportTableRecord
  2
*Active
 70
     0
 10
0.0
 20
0.0
 11
1.0
 21
1.0
 12
10.42990654205607
 22
4.5
 13
0.0
 23
0.0
 14
0.5
 24
0.5
 15
0.5
 25
0.5
 16
0.0
 26
0.0
 36
1.0
 17
0.0
 27
0.0
 37
0.0
 40
9.0
 41
1.972972972850329
 42
50.0
 43
0.0
 44
0.0
 50
0.0
 51
0.0
 71
     0
 72
   100
 73
     1
 74
     3
 75
     0
 76
     0
 77
     0
 78
     0
281
     0
 65
     1
110
0.0
120
0.0
130
0.0
111
1.0
121
0.0
131
0.0
112
0.0
122
1.0
132
0.0
 79
     0
146
0.0
348
2F
 60
     3
 61
     5
292
     1
282
     1
141
0.0
142
0.0
 63
   250
361
5D
  0
ENDTAB
  0
TABLE
  2
LTYPE
  5
5
330
0
100
AcDbSymbolTable
 70
     1
  0
LTYPE
  5
14
330
5
100
AcDbSymbolTableRecord
100
AcDbLinetypeTableRecord
  2
ByBlock
 70
     0
  3

 72
    65
 73
     0
 40
0.0
  0
LTYPE
  5
15
330
5
100
AcDbSymbolTableRecord
100
AcDbLinetypeTableRecord
  2
ByLayer
 70
     0
  3

 72
    65
 73
     0
 40
0.0
  0
LTYPE
  5
16
330
5
100
AcDbSymbolTableRecord
100
AcDbLinetypeTableRecord
  2
Continuous
 70
     0
  3
Solid line
 72
    65
 73
     0
 40
0.0
  0
ENDTAB
  0
TABLE
  2
LAYER
  5
2
330
0
100
AcDbSymbolTable
 70
     2
  0
LAYER
  5
10
330
2
100
AcDbSymbolTableRecord
100
AcDbLayerTableRecord
  2
0
 70
     0
 62
     7
  6
Continuous
370
    -3
390
F
347
46
348
0
  0
LAYER
  5
5F
330
2
100
AcDbSymbolTableRecord
100
AcDbLayerTableRecord
  2
Layer 1
 70
     0
 62
     7
  6
Continuous
370
    -3
390
F
347
46
348
0
  0
ENDTAB
  0
TABLE
  2
STYLE
  5
3
330
0
100
AcDbSymbolTable
 70
     1
  0
STYLE
  5
11
330
3
100
AcDbSymbolTableRecord
100
AcDbTextStyleTableRecord
  2
Standard
 70
     0
 40
0.0
 41
1.0
 50
0.0
 71
     0
 42
0.2
  3
txt
  4

  0
ENDTAB
  0
TABLE
  2
VIEW
  5
6
330
0
100
AcDbSymbolTable
 70
     0
  0
ENDTAB
  0
TABLE
  2
UCS
  5
7
330
0
100
AcDbSymbolTable
 70
     0
  0
ENDTAB
  0
TABLE
  2
APPID
  5
9
330
0
100
AcDbSymbolTable
 70
     2
  0
APPID
  5
12
330
9
100
AcDbSymbolTableRecord
100
AcDbRegAppTableRecord
  2
ACAD
 70
     0
  0
APPID
  5
5E
330
9
100
AcDbSymbolTableRecord
100
AcDbRegAppTableRecord
  2
ODA
 70
     0
  0
ENDTAB
  0
TABLE
  2
DIMSTYLE
  5
A
330
0
100
AcDbSymbolTable
 70
     1
100
AcDbDimStyleTable
  0
DIMSTYLE
105
27
330
A
100
AcDbSymbolTableRecord
100
AcDbDimStyleTableRecord
  2
Standard
 70
     0
178
     0
340
11
  0
ENDTAB
  0
TABLE
  2
BLOCK_RECORD
  5
1
330
0
100
AcDbSymbolTable
 70
     1
  0
BLOCK_RECORD
  5
1F
330
1
100
AcDbSymbolTableRecord
100
AcDbBlockTableRecord
  2
*Model_Space
340
22
 70
     0
280
     1
281
     0
  0
BLOCK_RECORD
  5
1B
330
1
100
AcDbSymbolTableRecord
100
AcDbBlockTableRecord
  2
*Paper_Space
340
1E
 70
     0
280
     1
281
     0
  0
BLOCK_RECORD
  5
23
330
1
100
AcDbSymbolTableRecord
100
AcDbBlockTableRecord
  2
*Paper_Space0
340
26
 70
     0
280
     1
281
     0
  0
ENDTAB
  0
ENDSEC
  0
SECTION
  2
BLOCKS
  0
BLOCK
  5
20
330
1F
100
AcDbEntity
  8
0
100
AcDbBlockBegin
  2
*Model_Space
 70
     0
 10
0.0
 20
0.0
 30
0.0
  3
*Model_Space
  1

  0
ENDBLK
  5
21
330
1F
100
AcDbEntity
  8
0
100
AcDbBlockEnd
  0
BLOCK
  5
1C
330
1B
100
AcDbEntity
 67
     1
  8
0
100
AcDbBlockBegin
  2
*Paper_Space
 70
     0
 10
0.0
 20
0.0
 30
0.0
  3
*Paper_Space
  1

  0
ENDBLK
  5
1D
330
1B
100
AcDbEntity
 67
     1
  8
0
100
AcDbBlockEnd
  0
BLOCK
  5
24
330
23
100
AcDbEntity
  8
0
100
AcDbBlockBegin
  2
*Paper_Space0
 70
     0
 10
0.0
 20
0.0
 30
0.0
  3
*Paper_Space0
  1

  0
ENDBLK
  5
25
330
23
100
AcDbEntity
  8
0
100
AcDbBlockEnd
  0
ENDSEC
  0
SECTION
  2
ENTITIES
  0
SPLINE
  5
60
330
1F
100
AcDbEntity
  8
Layer 1
 62
   250
370
    18
100
AcDbSpline
210
0.0
220
0.0
230
1.0
 70
    11
 71
     3
 72
    29
 73
    25
 74
     0
 42
0.0000000001
 43
0.0000000001
 40
0.0
 40
0.0
 40
0.0
 40
0.0
 40
0.125
 40
0.125
 40
0.125
 40
0.25
 40
0.25
 40
0.25
 40
0.375
 40
0.375
 40
0.375
 40
0.5
 40
0.5
 40
0.5
 40
0.625
 40
0.625
 40
0.625
 40
0.75
 40
0.75
 40
0.75
 40
0.875
 40
0.875
 40
0.875
 40
1.0
 40
1.0
 40
1.0
 40
1.0
 10
201.3553
 20
298.407
 30
0.0
 10
201.3553
 20
298.407
 30
0.0
 10
231.3553
 20
298.407
 30
0.0
 10
231.3553
 20
298.407
 30
0.0
 10
234.1092
 20
298.407
 30
0.0
 10
236.3553
 20
296.1609
 30
0.0
 10
236.3553
 20
293.407
 30
0.0
 10
236.3553
 20
293.407
 30
0.0
 10
236.3553
 20
263.407
 30
0.0
 10
236.3553
 20
263.407
 30
0.0
 10
236.3553
 20
260.6531
 30
0.0
 10
234.1092
 20
258.407
 30
0.0
 10
231.3553
 20
258.407
 30
0.0
 10
231.3553
 20
258.407
 30
0.0
 10
201.3553
 20
258.407
 30
0.0
 10
201.3553
 20
258.407
 30
0.0
 10
198.6014
 20
258.407
 30
0.0
 10
196.3553
 20
260.6531
 30
0.0
 10
196.3553
 20
263.407
 30
0.0
 10
196.3553
 20
263.407
 30
0.0
 10
196.3553
 20
293.407
 30
0.0
 10
196.3553
 20
293.407
 30
0.0
 10
196.3553
 20
296.1609
 30
0.0
 10
198.6014
 20
298.407
 30
0.0
 10
201.3553
 20
298.407
 30
0.0
  0
SPLINE
  5
61
330
1F
100
AcDbEntity
  8
Layer 1
 62
   250
370
    18
100
AcDbSpline
210
0.0
220
0.0
230
1.0
 70
    11
 71
     3
 72
   155
 73
   151
 74
     0
 42
0.0000000001
 43
0.0000000001
 40
0.0
 40
0.0
 40
0.0
 40
0.0
 40
0.02
 40
0.02
 40
0.02
 40
0.04
 40
0.04
 40
0.04
 40
0.06
 40
0.06
 40
0.06
 40
0.08
 40
0.08
 40
0.08
 40
0.1
 40
0.1
 40
0.1
 40
0.12
 40
0.12
 40
0.12
 40
0.14
 40
0.14
 40
0.14
 40
0.16
 40
0.16
 40
0.16
 40
0.18
 40
0.18
 40
0.18
 40
0.2
 40
0.2
 40
0.2
 40
0.22
 40
0.22
 40
0.22
 40
0.24
 40
0.24
 40
0.24
 40
0.26
 40
0.26
 40
0.26
 40
0.28
 40
0.28
 40
0.28
 40
0.3
 40
0.3
 40
0.3
 40
0.32
 40
0.32
 40
0.32
 40
0.34
 40
0.34
 40
0.34
 40
0.36
 40
0.36
 40
0.36
 40
0.38
 40
0.38
 40
0.38
 40
0.4
 40
0.4
 40
0.4
 40
0.42
 40
0.42
 40
0.42
 40
0.44
 40
0.44
 40
0.44
 40
0.46
 40
0.46
 40
0.46
 40
0.48
 40
0.48
 40
0.48
 40
0.5
 40
0.5
 40
0.5
 40
0.52
 40
0.52
 40
0.52
 40
0.54
 40
0.54
 40
0.54
 40
0.56
 40
0.56
 40
0.56
 40
0.58
 40
0.58
 40
0.58
 40
0.6
 40
0.6
 40
0.6
 40
0.62
 40
0.62
 40
0.62
 40
0.64
 40
0.64
 40
0.64
 40
0.66
 40
0.66
 40
0.66
 40
0.68
 40
0.68
 40
0.68
 40
0.7000000000000001
 40
0.7000000000000001
 40
0.7000000000000001
 40
0.72
 40
0.72
 40
0.72
 40
0.74
 40
0.74
 40
0.74
 40
0.76
 40
0.76
 40
0.76
 40
0.78
 40
0.78
 40
0.78
 40
0.8
 40
0.8
 40
0.8
 40
0.8200000000000001
 40
0.8200000000000001
 40
0.8200000000000001
 40
0.84
 40
0.84
 40
0.84
 40
0.86
 40
0.86
 40
0.86
 40
0.88
 40
0.88
 40
0.88
 40
0.9
 40
0.9
 40
0.9
 40
0.92
 40
0.92
 40
0.92
 40
0.9400000000000001
 40
0.9400000000000001
 40
0.9400000000000001
 40
0.96
 40
0.96
 40
0.96
 40
0.98
 40
0.98
 40
0.98
 40
1.0
 40
1.0
 40
1.0
 40
1.0
 10
203.8728
 20
283.0188
 30
0.0
 10
203.8728
 20
283.0965
 30
0.0
 10
203.7081
 20
283.2117
 30
0.0
 10
203.3765
 20
283.3622
 30
0.0
 10
203.0402
 20
283.5198
 30
0.0
 10
202.8732
 20
283.7103
 30
0.0
 10
202.8732
 20
283.9361
 30
0.0
 10
202.8732
 20
284.096
 30
0.0
 10
202.9085
 20
284.2794
 30
0.0
 10
202.9814
 20
284.484
 30
0.0
 10
203.052
 20
284.6863
 30
0.0
 10
203.1366
 20
284.8815
 30
0.0
 10
203.2378
 20
285.065
 30
0.0
 10
203.2378
 20
285.065
 30
0.0
 10
203.2402
 20
285.0692
 30
0.0
 10
203.2402
 20
285.0692
 30
0.0
 10
203.2402
 20
285.0692
 30
0.0
 10
203.2401
 20
285.0697
 30
0.0
 10
203.2401
 20
285.0697
 30
0.0
 10
203.3953
 20
285.4366
 30
0.0
 10
203.4941
 20
285.6694
 30
0.0
 10
203.5364
 20
285.7658
 30
0.0
 10
203.7434
 20
286.248
 30
0.0
 10
203.8468
 20
286.5772
 30
0.0
 10
203.8468
 20
286.7513
 30
0.0
 10
203.8468
 20
286.8101
 30
0.0
 10
203.8186
 20
286.9136
 30
0.0
 10
203.7622
 20
287.0617
 30
0.0
 10
203.6987
 20
287.2216
 30
0.0
 10
203.6375
 20
287.3628
 30
0.0
 10
203.5764
 20
287.4803
 30
0.0
 10
203.5505
 20
287.5274
 30
0.0
 10
203.5223
 20
287.5721
 30
0.0
 10
203.4941
 20
287.6191
 30
0.0
 10
203.4658
 20
287.6661
 30
0.0
 10
203.4423
 20
287.7108
 30
0.0
 10
203.4188
 20
287.7579
 30
0.0
 10
203.3624
 20
287.8402
 30
0.0
 10
203.3412
 20
287.9037
 30
0.0
 10
203.3506
 20
287.9507
 30
0.0
 10
203.3906
 20
288.0777
 30
0.0
 10
203.4282
 20
288.193
 30
0.0
 10
203.4611
 20
288.2941
 30
0.0
 10
203.4917
 20
288.3952
 30
0.0
 10
203.5223
 20
288.4822
 30
0.0
 10
203.5505
 20
288.5551
 30
0.0
 10
203.6728
 20
288.9244
 30
0.0
 10
203.7669
 20
289.1713
 30
0.0
 10
203.8327
 20
289.3007
 30
0.0
 10
203.988
 20
289.2489
 30
0.0
 10
204.1408
 20
289.0749
 30
0.0
 10
204.2866
 20
288.7762
 30
0.0
 10
204.4254
 20
288.4775
 30
0.0
 10
204.4936
 20
288.1718
 30
0.0
 10
204.4936
 20
287.8613
 30
0.0
 10
204.4936
 20
287.5391
 30
0.0
 10
204.4042
 20
287.1346
 30
0.0
 10
204.2255
 20
286.6478
 30
0.0
 10
204.1197
 20
286.3867
 30
0.0
 10
204.0138
 20
286.1233
 30
0.0
 10
203.9103
 20
285.8576
 30
0.0
 10
203.8069
 20
285.5942
 30
0.0
 10
203.7057
 20
285.3308
 30
0.0
 10
203.6046
 20
285.0697
 30
0.0
 10
203.6046
 20
285.0697
 30
0.0
 10
203.604
 20
285.0685
 30
0.0
 10
203.604
 20
285.0685
 30
0.0
 10
203.604
 20
285.0685
 30
0.0
 10
203.6046
 20
285.065
 30
0.0
 10
203.6046
 20
285.065
 30
0.0
 10
203.6046
 20
285.0015
 30
0.0
 10
203.6564
 20
284.9356
 30
0.0
 10
203.7599
 20
284.8721
 30
0.0
 10
203.8633
 20
284.8086
 30
0.0
 10
203.9668
 20
284.738
 30
0.0
 10
204.0727
 20
284.6628
 30
0.0
 10
204.1785
 20
284.5852
 30
0.0
 10
204.2538
 20
284.5005
 30
0.0
 10
204.3008
 20
284.4041
 30
0.0
 10
204.3455
 20
284.2983
 30
0.0
 10
204.369
 20
284.143
 30
0.0
 10
204.369
 20
283.9361
 30
0.0
 10
204.369
 20
283.6327
 30
0.0
 10
204.329
 20
283.3222
 30
0.0
 10
204.2514
 20
283.0047
 30
0.0
 10
204.1738
 20
282.6966
 30
0.0
 10
204.028
 20
282.3156
 30
0.0
 10
203.8163
 20
281.8617
 30
0.0
 10
203.4823
 20
281.1585
 30
0.0
 10
203.0284
 20
280.5988
 30
0.0
 10
202.4522
 20
280.1802
 30
0.0
 10
202.2429
 20
280.0461
 30
0.0
 10
202.036
 20
279.945
 30
0.0
 10
201.8337
 20
279.8768
 30
0.0
 10
201.6126
 20
279.8039
 30
0.0
 10
201.3751
 20
279.7662
 30
0.0
 10
201.1234
 20
279.7662
 30
0.0
 10
200.5308
 20
279.7662
 30
0.0
 10
200.0769
 20
279.9873
 30
0.0
 10
199.7594
 20
280.4271
 30
0.0
 10
199.4889
 20
280.8034
 30
0.0
 10
199.3525
 20
281.2879
 30
0.0
 10
199.3525
 20
281.8758
 30
0.0
 10
199.3525
 20
282.1369
 30
0.0
 10
199.4066
 20
282.4779
 30
0.0
 10
199.5171
 20
282.9013
 30
0.0
 10
199.6277
 20
283.3105
 30
0.0
 10
199.7429
 20
283.6633
 30
0.0
 10
199.8629
 20
283.9619
 30
0.0
 10
199.9922
 20
284.27
 30
0.0
 10
200.1004
 20
284.5311
 30
0.0
 10
200.1921
 20
284.7404
 30
0.0
 10
200.2203
 20
284.7921
 30
0.0
 10
200.2603
 20
284.8697
 30
0.0
 10
200.3097
 20
284.9732
 30
0.0
 10
200.3614
 20
285.0744
 30
0.0
 10
200.4249
 20
285.2108
 30
0.0
 10
200.5026
 20
285.3754
 30
0.0
 10
200.559
 20
285.4765
 30
0.0
 10
200.6084
 20
285.5682
 30
0.0
 10
200.6507
 20
285.6506
 30
0.0
 10
200.6954
 20
285.7329
 30
0.0
 10
200.7307
 20
285.8081
 30
0.0
 10
200.7589
 20
285.8716
 30
0.0
 10
200.8271
 20
285.9963
 30
0.0
 10
200.8789
 20
286.0551
 30
0.0
 10
200.9165
 20
286.0504
 30
0.0
 10
200.9682
 20
286.041
 30
0.0
 10
200.98
 20
285.9892
 30
0.0
 10
200.9588
 20
285.8928
 30
0.0
 10
200.9353
 20
285.7776
 30
0.0
 10
200.9047
 20
285.6788
 30
0.0
 10
200.8694
 20
285.5965
 30
0.0
 10
200.5425
 20
284.8415
 30
0.0
 10
200.3168
 20
284.3171
 30
0.0
 10
200.1921
 20
284.0184
 30
0.0
 10
199.9781
 20
283.4704
 30
0.0
 10
199.8699
 20
283.0494
 30
0.0
 10
199.8699
 20
282.7507
 30
0.0
 10
199.8699
 20
282.1839
 30
0.0
 10
200.0439
 20
281.7818
 30
0.0
 10
200.392
 20
281.5372
 30
0.0
 10
200.6507
 20
281.3678
 30
0.0
 10
200.9823
 20
281.2832
 30
0.0
 10
201.3916
 20
281.2832
 30
0.0
 10
202.1277
 20
281.2832
 30
0.0
 10
202.7415
 20
281.4901
 30
0.0
 10
203.2378
 20
281.9017
 30
0.0
 10
203.6611
 20
282.2568
 30
0.0
 10
203.8728
 20
282.6284
 30
0.0
 10
203.8728
 20
283.0188
 30
0.0
  0
SPLINE
  5
62
330
1F
100
AcDbEntity
  8
Layer 1
 62
   250
370
    18
100
AcDbSpline
210
0.0
220
0.0
230
1.0
 70
    11
 71
     3
 72
   203
 73
   199
 74
     0
 42
0.0000000001
 43
0.0000000001
 40
0.0
 40
0.0
 40
0.0
 40
0.0
 40
0.0151515151515152
 40
0.0151515151515152
 40
0.0151515151515152
 40
0.0303030303030303
 40
0.0303030303030303
 40
0.0303030303030303
 40
0.0454545454545455
 40
0.0454545454545455
 40
0.0454545454545455
 40
0.0606060606060606
 40
0.0606060606060606
 40
0.0606060606060606
 40
0.0757575757575758
 40
0.0757575757575758
 40
0.0757575757575758
 40
0.0909090909090909
 40
0.0909090909090909
 40
0.0909090909090909
 40
0.1060606060606061
 40
0.1060606060606061
 40
0.1060606060606061
 40
0.1212121212121212
 40
0.1212121212121212
 40
0.1212121212121212
 40
0.1363636363636364
 40
0.1363636363636364
 40
0.1363636363636364
 40
0.1515151515151515
 40
0.1515151515151515
 40
0.1515151515151515
 40
0.1666666666666667
 40
0.1666666666666667
 40
0.1666666666666667
 40
0.1818181818181818
 40
0.1818181818181818
 40
0.1818181818181818
 40
0.196969696969697
 40
0.196969696969697
 40
0.196969696969697
 40
0.2121212121212121
 40
0.2121212121212121
 40
0.2121212121212121
 40
0.2272727272727273
 40
0.2272727272727273
 40
0.2272727272727273
 40
0.2424242424242424
 40
0.2424242424242424
 40
0.2424242424242424
 40
0.2575757575757576
 40
0.2575757575757576
 40
0.2575757575757576
 40
0.2727272727272727
 40
0.2727272727272727
 40
0.2727272727272727
 40
0.2878787878787879
 40
0.2878787878787879
 40
0.2878787878787879
 40
0.303030303030303
 40
0.303030303030303
 40
0.303030303030303
 40
0.3181818181818182
 40
0.3181818181818182
 40
0.3181818181818182
 40
0.3333333333333334
 40
0.3333333333333334
 40
0.3333333333333334
 40
0.3484848484848485
 40
0.3484848484848485
 40
0.3484848484848485
 40
0.3636363636363636
 40
0.3636363636363636
 40
0.3636363636363636
 40
0.3787878787878788
 40
0.3787878787878788
 40
0.3787878787878788
 40
0.3939393939393939
 40
0.3939393939393939
 40
0.3939393939393939
 40
0.4090909090909091
 40
0.4090909090909091
 40
0.4090909090909091
 40
0.4242424242424243
 40
0.4242424242424243
 40
0.4242424242424243
 40
0.4393939393939394
 40
0.4393939393939394
 40
0.4393939393939394
 40
0.4545454545454546
 40
0.4545454545454546
 40
0.4545454545454546
 40
0.4696969696969697
 40
0.4696969696969697
 40
0.4696969696969697
 40
0.4848484848484849
 40
0.4848484848484849
 40
0.4848484848484849
 40
0.5
 40
0.5
 40
0.5
 40
0.5151515151515151
 40
0.5151515151515151
 40
0.5151515151515151
 40
0.5303030303030303
 40
0.5303030303030303
 40
0.5303030303030303
 40
0.5454545454545454
 40
0.5454545454545454
 40
0.5454545454545454
 40
0.5606060606060607
 40
0.5606060606060607
 40
0.5606060606060607
 40
0.5757575757575758
 40
0.5757575757575758
 40
0.5757575757575758
 40
0.5909090909090909
 40
0.5909090909090909
 40
0.5909090909090909
 40
0.6060606060606061
 40
0.6060606060606061
 40
0.6060606060606061
 40
0.6212121212121212
 40
0.6212121212121212
 40
0.6212121212121212
 40
0.6363636363636364
 40
0.6363636363636364
 40
0.6363636363636364
 40
0.6515151515151515
 40
0.6515151515151515
 40
0.6515151515151515
 40
0.6666666666666667
 40
0.6666666666666667
 40
0.6666666666666667
 40
0.6818181818181819
 40
0.6818181818181819
 40
0.6818181818181819
 40
0.696969696969697
 40
0.696969696969697
 40
0.696969696969697
 40
0.7121212121212122
 40
0.7121212121212122
 40
0.7121212121212122
 40
0.7272727272727273
 40
0.7272727272727273
 40
0.7272727272727273
 40
0.7424242424242424
 40
0.7424242424242424
 40
0.7424242424242424
 40
0.7575757575757576
 40
0.7575757575757576
 40
0.7575757575757576
 40
0.7727272727272727
 40
0.7727272727272727
 40
0.7727272727272727
 40
0.7878787878787878
 40
0.7878787878787878
 40
0.7878787878787878
 40
0.8030303030303031
 40
0.8030303030303031
 40
0.8030303030303031
 40
0.8181818181818182
 40
0.8181818181818182
 40
0.8181818181818182
 40
0.8333333333333334
 40
0.8333333333333334
 40
0.8333333333333334
 40
0.8484848484848485
 40
0.8484848484848485
 40
0.8484848484848485
 40
0.8636363636363636
 40
0.8636363636363636
 40
0.8636363636363636
 40
0.8787878787878788
 40
0.8787878787878788
 40
0.8787878787878788
 40
0.8939393939393939
 40
0.8939393939393939
 40
0.8939393939393939
 40
0.9090909090909092
 40
0.9090909090909092
 40
0.9090909090909092
 40
0.9242424242424243
 40
0.9242424242424243
 40
0.9242424242424243
 40
0.9393939393939394
 40
0.9393939393939394
 40
0.9393939393939394
 40
0.9545454545454546
 40
0.9545454545454546
 40
0.9545454545454546
 40
0.9696969696969697
 40
0.9696969696969697
 40
0.9696969696969697
 40
0.9848484848484849
 40
0.9848484848484849
 40
0.9848484848484849
 40
1.0
 40
1.0
 40
1.0
 40
1.0
 10
229.7202
 20
285.9669
 30
0.0
 10
229.7304
 20
285.8554
 30
0.0
 10
229.7508
 20
285.7479
 30
0.0
 10
229.7809
 20
285.6435
 30
0.0
 10
229.8421
 20
285.4553
 30
0.0
 10
229.9549
 20
285.3189
 30
0.0
 10
230.1196
 20
285.2389
 30
0.0
 10
230.2842
 20
285.159
 30
0.0
 10
230.47
 20
285.1119
 30
0.0
 10
230.677
 20
285.0978
 30
0.0
 10
230.677
 20
285.0978
 30
0.0
 10
231.0909
 20
285.7046
 30
0.0
 10
231.0909
 20
285.7046
 30
0.0
 10
231.1591
 20
285.8199
 30
0.0
 10
231.2202
 20
286.0151
 30
0.0
 10
231.2696
 20
286.2902
 30
0.0
 10
231.2931
 20
286.4407
 30
0.0
 10
231.3073
 20
286.7747
 30
0.0
 10
231.312
 20
287.2851
 30
0.0
 10
231.3167
 20
287.7978
 30
0.0
 10
231.3378
 20
288.1788
 30
0.0
 10
231.3802
 20
288.4257
 30
0.0
 10
231.4272
 20
288.6562
 30
0.0
 10
231.5166
 20
288.9525
 30
0.0
 10
231.6483
 20
289.3171
 30
0.0
 10
231.7823
 20
289.6839
 30
0.0
 10
231.8646
 20
289.8956
 30
0.0
 10
231.8929
 20
289.9521
 30
0.0
 10
231.9234
 20
290.0085
 30
0.0
 10
231.947
 20
290.0555
 30
0.0
 10
231.9658
 20
290.0932
 30
0.0
 10
231.9893
 20
290.1308
 30
0.0
 10
232.0105
 20
290.1378
 30
0.0
 10
232.0269
 20
290.1167
 30
0.0
 10
232.0457
 20
290.0955
 30
0.0
 10
232.0504
 20
290.0602
 30
0.0
 10
232.041
 20
290.0085
 30
0.0
 10
231.9916
 20
289.7004
 30
0.0
 10
231.9564
 20
289.4511
 30
0.0
 10
231.9376
 20
289.2559
 30
0.0
 10
231.9211
 20
289.0607
 30
0.0
 10
231.9117
 20
288.8749
 30
0.0
 10
231.914
 20
288.6985
 30
0.0
 10
231.9164
 20
288.5221
 30
0.0
 10
231.914
 20
288.294
 30
0.0
 10
231.9046
 20
288.0141
 30
0.0
 10
231.8952
 20
287.7343
 30
0.0
 10
231.867
 20
287.4756
 30
0.0
 10
231.82
 20
287.2404
 30
0.0
 10
231.7753
 20
287.0028
 30
0.0
 10
231.7188
 20
286.7747
 30
0.0
 10
231.6483
 20
286.5513
 30
0.0
 10
231.5801
 20
286.3302
 30
0.0
 10
231.533
 20
286.1891
 30
0.0
 10
231.5119
 20
286.1279
 30
0.0
 10
231.6224
 20
286.2667
 30
0.0
 10
231.7565
 20
286.4243
 30
0.0
 10
231.9187
 20
286.6054
 30
0.0
 10
232.2245
 20
286.937
 30
0.0
 10
232.5043
 20
287.1016
 30
0.0
 10
232.7513
 20
287.1016
 30
0.0
 10
232.9018
 20
287.1016
 30
0.0
 10
233.0406
 20
287.0522
 30
0.0
 10
233.1652
 20
286.9558
 30
0.0
 10
233.2922
 20
286.8641
 30
0.0
 10
233.3581
 20
286.7347
 30
0.0
 10
233.3581
 20
286.563
 30
0.0
 10
233.3581
 20
286.1209
 30
0.0
 10
233.097
 20
285.5635
 30
0.0
 10
232.5796
 20
284.8862
 30
0.0
 10
231.9446
 20
284.0677
 30
0.0
 10
231.2508
 20
283.6585
 30
0.0
 10
230.4982
 20
283.6585
 30
0.0
 10
230.0449
 20
283.6585
 30
0.0
 10
229.7014
 20
283.7959
 30
0.0
 10
229.4662
 20
284.0725
 30
0.0
 10
229.4492
 20
284.0174
 30
0.0
 10
229.4326
 20
283.9672
 30
0.0
 10
229.4163
 20
283.922
 30
0.0
 10
229.3763
 20
283.7855
 30
0.0
 10
229.3175
 20
283.6233
 30
0.0
 10
229.2399
 20
283.4375
 30
0.0
 10
229.1647
 20
283.2517
 30
0.0
 10
229.0588
 20
283.0541
 30
0.0
 10
228.9248
 20
282.8472
 30
0.0
 10
228.7884
 20
282.6402
 30
0.0
 10
228.652
 20
282.4732
 30
0.0
 10
228.5132
 20
282.3439
 30
0.0
 10
228.2992
 20
282.1581
 30
0.0
 10
228.0711
 20
282.0687
 30
0.0
 10
227.8312
 20
282.0734
 30
0.0
 10
227.7089
 20
282.0781
 30
0.0
 10
227.596
 20
282.111
 30
0.0
 10
227.4949
 20
282.1722
 30
0.0
 10
227.3984
 20
282.2357
 30
0.0
 10
227.3091
 20
282.3156
 30
0.0
 10
227.2268
 20
282.4074
 30
0.0
 10
227.1515
 20
282.4662
 30
0.0
 10
227.1068
 20
282.5061
 30
0.0
 10
227.088
 20
282.5226
 30
0.0
 10
227.0245
 20
282.5838
 30
0.0
 10
226.9916
 20
282.6449
 30
0.0
 10
226.9916
 20
282.7084
 30
0.0
 10
226.9916
 20
282.7554
 30
0.0
 10
227.0151
 20
282.8095
 30
0.0
 10
227.0598
 20
282.8683
 30
0.0
 10
227.1068
 20
282.9271
 30
0.0
 10
227.1585
 20
282.9953
 30
0.0
 10
227.2197
 20
283.0682
 30
0.0
 10
227.2456
 20
283.1035
 30
0.0
 10
227.2832
 20
283.16
 30
0.0
 10
227.3279
 20
283.2329
 30
0.0
 10
227.3749
 20
283.3058
 30
0.0
 10
227.4149
 20
283.4045
 30
0.0
 10
227.4502
 20
283.5268
 30
0.0
 10
227.4831
 20
283.6468
 30
0.0
 10
227.5137
 20
283.8067
 30
0.0
 10
227.5348
 20
284.0043
 30
0.0
 10
227.5537
 20
284.2018
 30
0.0
 10
227.5654
 20
284.3735
 30
0.0
 10
227.5701
 20
284.5146
 30
0.0
 10
227.5701
 20
284.5146
 30
0.0
 10
227.5842
 20
284.9427
 30
0.0
 10
227.5842
 20
284.9427
 30
0.0
 10
227.5889
 20
285.0885
 30
0.0
 10
227.5889
 20
285.2437
 30
0.0
 10
227.5842
 20
285.4036
 30
0.0
 10
227.5936
 20
285.827
 30
0.0
 10
227.6665
 20
286.2856
 30
0.0
 10
227.8053
 20
286.7818
 30
0.0
 10
227.9017
 20
287.1181
 30
0.0
 10
228.0546
 20
287.5697
 30
0.0
 10
228.2663
 20
288.1388
 30
0.0
 10
228.2804
 20
288.1765
 30
0.0
 10
228.2945
 20
288.2
 30
0.0
 10
228.3086
 20
288.2141
 30
0.0
 10
228.3204
 20
288.2282
 30
0.0
 10
228.3321
 20
288.2352
 30
0.0
 10
228.3415
 20
288.2352
 30
0.0
 10
228.3745
 20
288.2305
 30
0.0
 10
228.3886
 20
288.1435
 30
0.0
 10
228.3839
 20
287.9742
 30
0.0
 10
228.3792
 20
287.8919
 30
0.0
 10
228.3698
 20
287.7578
 30
0.0
 10
228.3556
 20
287.5744
 30
0.0
 10
228.3415
 20
287.3862
 30
0.0
 10
228.3321
 20
287.2663
 30
0.0
 10
228.3274
 20
287.2169
 30
0.0
 10
228.3274
 20
287.2169
 30
0.0
 10
228.1769
 20
285.4248
 30
0.0
 10
228.1769
 20
285.4248
 30
0.0
 10
228.1675
 20
285.2084
 30
0.0
 10
228.1416
 20
284.9638
 30
0.0
 10
228.1016
 20
284.6863
 30
0.0
 10
228.0546
 20
284.4205
 30
0.0
 10
227.9888
 20
284.1618
 30
0.0
 10
227.9017
 20
283.9078
 30
0.0
 10
227.7818
 20
283.5363
 30
0.0
 10
227.6266
 20
283.2164
 30
0.0
 10
227.4384
 20
282.9506
 30
0.0
 10
227.4478
 20
282.9318
 30
0.0
 10
227.4855
 20
282.9224
 30
0.0
 10
227.549
 20
282.9224
 30
0.0
 10
227.549
 20
282.9224
 30
0.0
 10
227.723
 20
282.9154
 30
0.0
 10
227.723
 20
282.9154
 30
0.0
 10
227.9746
 20
282.906
 30
0.0
 10
228.2263
 20
283.0024
 30
0.0
 10
228.4803
 20
283.2023
 30
0.0
 10
228.7319
 20
283.4022
 30
0.0
 10
228.8942
 20
283.6139
 30
0.0
 10
228.9624
 20
283.8349
 30
0.0
 10
229.0306
 20
284.0584
 30
0.0
 10
229.0682
 20
284.2818
 30
0.0
 10
229.073
 20
284.5076
 30
0.0
 10
229.1035
 20
285.0273
 30
0.0
 10
229.1294
 20
285.4789
 30
0.0
 10
229.1482
 20
285.8622
 30
0.0
 10
229.167
 20
286.2456
 30
0.0
 10
229.1952
 20
286.556
 30
0.0
 10
229.2352
 20
286.7959
 30
0.0
 10
229.2729
 20
287.0335
 30
0.0
 10
229.3364
 20
287.2945
 30
0.0
 10
229.4234
 20
287.5744
 30
0.0
 10
229.5104
 20
287.8542
 30
0.0
 10
229.6492
 20
288.2164
 30
0.0
 10
229.8373
 20
288.6633
 30
0.0
 10
229.8655
 20
288.708
 30
0.0
 10
229.889
 20
288.7268
 30
0.0
 10
229.9126
 20
288.7174
 30
0.0
 10
229.9361
 20
288.708
 30
0.0
 10
229.9267
 20
288.5292
 30
0.0
 10
229.882
 20
288.1765
 30
0.0
 10
229.8373
 20
287.826
 30
0.0
 10
229.7926
 20
287.3063
 30
0.0
 10
229.7479
 20
286.6172
 30
0.0
 10
229.7432
 20
286.438
 30
0.0
 10
229.7341
 20
286.222
 30
0.0
 10
229.7202
 20
285.9669
 30
0.0
  0
SPLINE
  5
63
330
1F
100
AcDbEntity
  8
Layer 1
 62
   250
370
    18
100
AcDbSpline
210
0.0
220
0.0
230
1.0
 70
    11
 71
     3
 72
    26
 73
    22
 74
     0
 42
0.0000000001
 43
0.0000000001
 40
0.0
 40
0.0
 40
0.0
 40
0.0
 40
0.1428571428571428
 40
0.1428571428571428
 40
0.1428571428571428
 40
0.2857142857142857
 40
0.2857142857142857
 40
0.2857142857142857
 40
0.4285714285714285
 40
0.4285714285714285
 40
0.4285714285714285
 40
0.5714285714285714
 40
0.5714285714285714
 40
0.5714285714285714
 40
0.7142857142857142
 40
0.7142857142857142
 40
0.7142857142857142
 40
0.8571428571428571
 40
0.8571428571428571
 40
0.8571428571428571
 40
1.0
 40
1.0
 40
1.0
 40
1.0
 10
232.8477
 20
285.928
 30
0.0
 10
232.8477
 20
285.9868
 30
0.0
 10
232.7936
 20
286.0503
 30
0.0
 10
232.6831
 20
286.1209
 30
0.0
 10
232.5631
 20
286.1891
 30
0.0
 10
232.4432
 20
286.2244
 30
0.0
 10
232.3233
 20
286.2244
 30
0.0
 10
232.1045
 20
286.2338
 30
0.0
 10
231.8364
 20
286.0597
 30
0.0
 10
231.526
 20
285.707
 30
0.0
 10
231.4319
 20
285.6105
 30
0.0
 10
231.2555
 20
285.4012
 30
0.0
 10
230.9945
 20
285.079
 30
0.0
 10
231.3802
 20
285.0978
 30
0.0
 10
231.6977
 20
285.1519
 30
0.0
 10
231.9493
 20
285.2389
 30
0.0
 10
232.1986
 20
285.326
 30
0.0
 10
232.4103
 20
285.4412
 30
0.0
 10
232.5796
 20
285.5823
 30
0.0
 10
232.7583
 20
285.7258
 30
0.0
 10
232.8477
 20
285.841
 30
0.0
 10
232.8477
 20
285.928
 30
0.0
  0
SPLINE
  5
64
330
1F
100
AcDbEntity
  8
Layer 1
 62
   250
370
    18
100
AcDbSpline
210
0.0
220
0.0
230
1.0
 70
    11
 71
     3
 72
   170
 73
   166
 74
     0
 42
0.0000000001
 43
0.0000000001
 40
0.0
 40
0.0
 40
0.0
 40
0.0
 40
0.0181818181818182
 40
0.0181818181818182
 40
0.0181818181818182
 40
0.0363636363636364
 40
0.0363636363636364
 40
0.0363636363636364
 40
0.0545454545454545
 40
0.0545454545454545
 40
0.0545454545454545
 40
0.0727272727272727
 40
0.0727272727272727
 40
0.0727272727272727
 40
0.0909090909090909
 40
0.0909090909090909
 40
0.0909090909090909
 40
0.1090909090909091
 40
0.1090909090909091
 40
0.1090909090909091
 40
0.1272727272727273
 40
0.1272727272727273
 40
0.1272727272727273
 40
0.1454545454545454
 40
0.1454545454545454
 40
0.1454545454545454
 40
0.1636363636363636
 40
0.1636363636363636
 40
0.1636363636363636
 40
0.1818181818181818
 40
0.1818181818181818
 40
0.1818181818181818
 40
0.2
 40
0.2
 40
0.2
 40
0.2181818181818182
 40
0.2181818181818182
 40
0.2181818181818182
 40
0.2363636363636364
 40
0.2363636363636364
 40
0.2363636363636364
 40
0.2545454545454545
 40
0.2545454545454545
 40
0.2545454545454545
 40
0.2727272727272727
 40
0.2727272727272727
 40
0.2727272727272727
 40
0.2909090909090909
 40
0.2909090909090909
 40
0.2909090909090909
 40
0.3090909090909091
 40
0.3090909090909091
 40
0.3090909090909091
 40
0.3272727272727273
 40
0.3272727272727273
 40
0.3272727272727273
 40
0.3454545454545455
 40
0.3454545454545455
 40
0.3454545454545455
 40
0.3636363636363636
 40
0.3636363636363636
 40
0.3636363636363636
 40
0.3818181818181818
 40
0.3818181818181818
 40
0.3818181818181818
 40
0.4
 40
0.4
 40
0.4
 40
0.4181818181818182
 40
0.4181818181818182
 40
0.4181818181818182
 40
0.4363636363636363
 40
0.4363636363636363
 40
0.4363636363636363
 40
0.4545454545454545
 40
0.4545454545454545
 40
0.4545454545454545
 40
0.4727272727272727
 40
0.4727272727272727
 40
0.4727272727272727
 40
0.4909090909090909
 40
0.4909090909090909
 40
0.4909090909090909
 40
0.509090909090909
 40
0.509090909090909
 40
0.509090909090909
 40
0.5272727272727272
 40
0.5272727272727272
 40
0.5272727272727272
 40
0.5454545454545454
 40
0.5454545454545454
 40
0.5454545454545454
 40
0.5636363636363636
 40
0.5636363636363636
 40
0.5636363636363636
 40
0.5818181818181818
 40
0.5818181818181818
 40
0.5818181818181818
 40
0.6
 40
0.6
 40
0.6
 40
0.6181818181818182
 40
0.6181818181818182
 40
0.6181818181818182
 40
0.6363636363636364
 40
0.6363636363636364
 40
0.6363636363636364
 40
0.6545454545454545
 40
0.6545454545454545
 40
0.6545454545454545
 40
0.6727272727272727
 40
0.6727272727272727
 40
0.6727272727272727
 40
0.6909090909090909
 40
0.6909090909090909
 40
0.6909090909090909
 40
0.7090909090909091
 40
0.7090909090909091
 40
0.7090909090909091
 40
0.7272727272727273
 40
0.7272727272727273
 40
0.7272727272727273
 40
0.7454545454545454
 40
0.7454545454545454
 40
0.7454545454545454
 40
0.7636363636363636
 40
0.7636363636363636
 40
0.7636363636363636
 40
0.7818181818181817
 40
0.7818181818181817
 40
0.7818181818181817
 40
0.7999999999999999
 40
0.7999999999999999
 40
0.7999999999999999
 40
0.8181818181818181
 40
0.8181818181818181
 40
0.8181818181818181
 40
0.8363636363636363
 40
0.8363636363636363
 40
0.8363636363636363
 40
0.8545454545454545
 40
0.8545454545454545
 40
0.8545454545454545
 40
0.8727272727272727
 40
0.8727272727272727
 40
0.8727272727272727
 40
0.8909090909090909
 40
0.8909090909090909
 40
0.8909090909090909
 40
0.9090909090909091
 40
0.9090909090909091
 40
0.9090909090909091
 40
0.9272727272727272
 40
0.9272727272727272
 40
0.9272727272727272
 40
0.9454545454545454
 40
0.9454545454545454
 40
0.9454545454545454
 40
0.9636363636363636
 40
0.9636363636363636
 40
0.9636363636363636
 40
0.9818181818181818
 40
0.9818181818181818
 40
0.9818181818181818
 40
1.0
 40
1.0
 40
1.0
 40
1.0
 10
226.5847
 20
287.6685
 30
0.0
 10
226.5682
 20
287.5532
 30
0.0
 10
226.5376
 20
287.4427
 30
0.0
 10
226.5
 20
287.3345
 30
0.0
 10
226.46
 20
287.2263
 30
0.0
 10
226.3965
 20
287.0758
 30
0.0
 10
226.3072
 20
286.8829
 30
0.0
 10
226.2178
 20
286.6901
 30
0.0
 10
226.1637
 20
286.5795
 30
0.0
 10
226.1449
 20
286.5513
 30
0.0
 10
226.072
 20
286.4361
 30
0.0
 10
226.0061
 20
286.3796
 30
0.0
 10
225.952
 20
286.3796
 30
0.0
 10
225.9097
 20
286.4079
 30
0.0
 10
225.8744
 20
286.4337
 30
0.0
 10
225.8415
 20
286.4596
 30
0.0
 10
225.8086
 20
286.4855
 30
0.0
 10
225.7803
 20
286.4972
 30
0.0
 10
225.7521
 20
286.4972
 30
0.0
 10
225.6369
 20
286.4972
 30
0.0
 10
225.4864
 20
286.4502
 30
0.0
 10
225.2982
 20
286.3561
 30
0.0
 10
225.1077
 20
286.262
 30
0.0
 10
224.9031
 20
286.1115
 30
0.0
 10
224.6773
 20
285.9046
 30
0.0
 10
224.4515
 20
285.6976
 30
0.0
 10
224.2752
 20
285.5047
 30
0.0
 10
224.1482
 20
285.326
 30
0.0
 10
224.0235
 20
285.1473
 30
0.0
 10
223.96
 20
285.0226
 30
0.0
 10
223.96
 20
284.9544
 30
0.0
 10
223.96
 20
284.8533
 30
0.0
 10
223.9906
 20
284.7733
 30
0.0
 10
224.0564
 20
284.7192
 30
0.0
 10
224.1105
 20
284.6769
 30
0.0
 10
224.2093
 20
284.6299
 30
0.0
 10
224.3528
 20
284.5758
 30
0.0
 10
224.4939
 20
284.5193
 30
0.0
 10
224.5903
 20
284.4746
 30
0.0
 10
224.635
 20
284.437
 30
0.0
 10
224.7879
 20
284.3312
 30
0.0
 10
224.8631
 20
284.1242
 30
0.0
 10
224.8631
 20
283.8161
 30
0.0
 10
224.8631
 20
283.3904
 30
0.0
 10
224.7832
 20
282.9013
 30
0.0
 10
224.6209
 20
282.3533
 30
0.0
 10
224.461
 20
281.8029
 30
0.0
 10
224.2493
 20
281.3279
 30
0.0
 10
223.9882
 20
280.9233
 30
0.0
 10
223.8542
 20
280.7352
 30
0.0
 10
223.699
 20
280.547
 30
0.0
 10
223.5202
 20
280.3589
 30
0.0
 10
223.3415
 20
280.1684
 30
0.0
 10
223.1486
 20
280.0085
 30
0.0
 10
222.9417
 20
279.8744
 30
0.0
 10
222.5465
 20
279.6134
 30
0.0
 10
222.0903
 20
279.4817
 30
0.0
 10
221.5776
 20
279.4817
 30
0.0
 10
220.9943
 20
279.4911
 30
0.0
 10
220.5498
 20
279.6886
 30
0.0
 10
220.2464
 20
280.0743
 30
0.0
 10
220.11
 20
280.2719
 30
0.0
 10
220.0136
 20
280.4812
 30
0.0
 10
219.9619
 20
280.7023
 30
0.0
 10
219.9078
 20
280.9233
 30
0.0
 10
219.8819
 20
281.1327
 30
0.0
 10
219.8819
 20
281.3302
 30
0.0
 10
219.8819
 20
281.5819
 30
0.0
 10
219.9007
 20
281.8288
 30
0.0
 10
219.936
 20
282.071
 30
0.0
 10
219.9736
 20
282.3109
 30
0.0
 10
220.0301
 20
282.5532
 30
0.0
 10
220.1077
 20
282.7978
 30
0.0
 10
220.2276
 20
283.1929
 30
0.0
 10
220.3711
 20
283.5739
 30
0.0
 10
220.5428
 20
283.9408
 30
0.0
 10
220.7121
 20
284.3077
 30
0.0
 10
220.8485
 20
284.604
 30
0.0
 10
220.9543
 20
284.8298
 30
0.0
 10
220.9543
 20
284.8298
 30
0.0
 10
221.2789
 20
285.5189
 30
0.0
 10
221.2789
 20
285.5189
 30
0.0
 10
221.3165
 20
285.5965
 30
0.0
 10
221.3542
 20
285.6717
 30
0.0
 10
221.3965
 20
285.747
 30
0.0
 10
221.4365
 20
285.8199
 30
0.0
 10
221.4741
 20
285.8552
 30
0.0
 10
221.507
 20
285.8552
 30
0.0
 10
221.5517
 20
285.8552
 30
0.0
 10
221.5776
 20
285.8199
 30
0.0
 10
221.5799
 20
285.747
 30
0.0
 10
221.5823
 20
285.6717
 30
0.0
 10
221.5729
 20
285.6176
 30
0.0
 10
221.5541
 20
285.58
 30
0.0
 10
221.5047
 20
285.4483
 30
0.0
 10
221.46
 20
285.3354
 30
0.0
 10
221.4247
 20
285.246
 30
0.0
 10
221.3871
 20
285.1567
 30
0.0
 10
221.333
 20
285.0273
 30
0.0
 10
221.2577
 20
284.858
 30
0.0
 10
221.1848
 20
284.6863
 30
0.0
 10
221.1049
 20
284.5029
 30
0.0
 10
221.0202
 20
284.3053
 30
0.0
 10
220.9355
 20
284.1078
 30
0.0
 10
220.865
 20
283.9455
 30
0.0
 10
220.8109
 20
283.8161
 30
0.0
 10
220.5404
 20
283.1012
 30
0.0
 10
220.404
 20
282.5626
 30
0.0
 10
220.404
 20
282.2051
 30
0.0
 10
220.404
 20
281.8288
 30
0.0
 10
220.5381
 20
281.5301
 30
0.0
 10
220.8085
 20
281.309
 30
0.0
 10
221.0766
 20
281.088
 30
0.0
 10
221.4553
 20
280.9774
 30
0.0
 10
221.9421
 20
280.9774
 30
0.0
 10
222.3466
 20
280.9774
 30
0.0
 10
222.737
 20
281.0715
 30
0.0
 10
223.1157
 20
281.2597
 30
0.0
 10
223.3956
 20
281.4031
 30
0.0
 10
223.6307
 20
281.5748
 30
0.0
 10
223.8189
 20
281.7771
 30
0.0
 10
224.007
 20
281.9793
 30
0.0
 10
224.1505
 20
282.1698
 30
0.0
 10
224.2493
 20
282.3462
 30
0.0
 10
224.3481
 20
282.5226
 30
0.0
 10
224.3975
 20
282.6825
 30
0.0
 10
224.3975
 20
282.8236
 30
0.0
 10
224.3975
 20
282.9107
 30
0.0
 10
224.3316
 20
282.9765
 30
0.0
 10
224.1999
 20
283.0165
 30
0.0
 10
224.0682
 20
283.0588
 30
0.0
 10
223.9741
 20
283.087
 30
0.0
 10
223.9153
 20
283.1012
 30
0.0
 10
223.8589
 20
283.1129
 30
0.0
 10
223.793
 20
283.1388
 30
0.0
 10
223.7178
 20
283.1764
 30
0.0
 10
223.5767
 20
283.2446
 30
0.0
 10
223.4685
 20
283.3316
 30
0.0
 10
223.3932
 20
283.4351
 30
0.0
 10
223.3203
 20
283.5386
 30
0.0
 10
223.2827
 20
283.6797
 30
0.0
 10
223.2827
 20
283.8585
 30
0.0
 10
223.2827
 20
284.1289
 30
0.0
 10
223.372
 20
284.4746
 30
0.0
 10
223.5484
 20
284.8909
 30
0.0
 10
223.7248
 20
285.3095
 30
0.0
 10
223.9741
 20
285.7211
 30
0.0
 10
224.2963
 20
286.1256
 30
0.0
 10
224.5597
 20
286.4549
 30
0.0
 10
224.7996
 20
286.7254
 30
0.0
 10
225.0136
 20
286.93
 30
0.0
 10
225.1289
 20
287.0358
 30
0.0
 10
225.277
 20
287.1581
 30
0.0
 10
225.4558
 20
287.2922
 30
0.0
 10
225.6345
 20
287.4286
 30
0.0
 10
225.8086
 20
287.5438
 30
0.0
 10
225.9802
 20
287.6402
 30
0.0
 10
226.1872
 20
287.7602
 30
0.0
 10
226.3495
 20
287.8284
 30
0.0
 10
226.4694
 20
287.8472
 30
0.0
 10
226.5188
 20
287.8472
 30
0.0
 10
226.5541
 20
287.826
 30
0.0
 10
226.5729
 20
287.786
 30
0.0
 10
226.5894
 20
287.7437
 30
0.0
 10
226.5941
 20
287.7061
 30
0.0
 10
226.5847
 20
287.6685
 30
0.0
  0
SPLINE
  5
65
330
1F
100
AcDbEntity
  8
Layer 1
 62
   250
370
    18
100
AcDbSpline
210
0.0
220
0.0
230
1.0
 70
    11
 71
     3
 72
   224
 73
   220
 74
     0
 42
0.0000000001
 43
0.0000000001
 40
0.0
 40
0.0
 40
0.0
 40
0.0
 40
0.0136986301369863
 40
0.0136986301369863
 40
0.0136986301369863
 40
0.0273972602739726
 40
0.0273972602739726
 40
0.0273972602739726
 40
0.0410958904109589
 40
0.0410958904109589
 40
0.0410958904109589
 40
0.0547945205479452
 40
0.0547945205479452
 40
0.0547945205479452
 40
0.0684931506849315
 40
0.0684931506849315
 40
0.0684931506849315
 40
0.0821917808219178
 40
0.0821917808219178
 40
0.0821917808219178
 40
0.0958904109589041
 40
0.0958904109589041
 40
0.0958904109589041
 40
0.1095890410958904
 40
0.1095890410958904
 40
0.1095890410958904
 40
0.1232876712328767
 40
0.1232876712328767
 40
0.1232876712328767
 40
0.136986301369863
 40
0.136986301369863
 40
0.136986301369863
 40
0.1506849315068493
 40
0.1506849315068493
 40
0.1506849315068493
 40
0.1643835616438356
 40
0.1643835616438356
 40
0.1643835616438356
 40
0.1780821917808219
 40
0.1780821917808219
 40
0.1780821917808219
 40
0.1917808219178082
 40
0.1917808219178082
 40
0.1917808219178082
 40
0.2054794520547945
 40
0.2054794520547945
 40
0.2054794520547945
 40
0.2191780821917808
 40
0.2191780821917808
 40
0.2191780821917808
 40
0.2328767123287671
 40
0.2328767123287671
 40
0.2328767123287671
 40
0.2465753424657534
 40
0.2465753424657534
 40
0.2465753424657534
 40
0.2602739726027397
 40
0.2602739726027397
 40
0.2602739726027397
 40
0.273972602739726
 40
0.273972602739726
 40
0.273972602739726
 40
0.2876712328767123
 40
0.2876712328767123
 40
0.2876712328767123
 40
0.3013698630136986
 40
0.3013698630136986
 40
0.3013698630136986
 40
0.3150684931506849
 40
0.3150684931506849
 40
0.3150684931506849
 40
0.3287671232876712
 40
0.3287671232876712
 40
0.3287671232876712
 40
0.3424657534246575
 40
0.3424657534246575
 40
0.3424657534246575
 40
0.3561643835616438
 40
0.3561643835616438
 40
0.3561643835616438
 40
0.3698630136986301
 40
0.3698630136986301
 40
0.3698630136986301
 40
0.3835616438356164
 40
0.3835616438356164
 40
0.3835616438356164
 40
0.3972602739726027
 40
0.3972602739726027
 40
0.3972602739726027
 40
0.410958904109589
 40
0.410958904109589
 40
0.410958904109589
 40
0.4246575342465753
 40
0.4246575342465753
 40
0.4246575342465753
 40
0.4383561643835616
 40
0.4383561643835616
 40
0.4383561643835616
 40
0.4520547945205479
 40
0.4520547945205479
 40
0.4520547945205479
 40
0.4657534246575342
 40
0.4657534246575342
 40
0.4657534246575342
 40
0.4794520547945205
 40
0.4794520547945205
 40
0.4794520547945205
 40
0.4931506849315068
 40
0.4931506849315068
 40
0.4931506849315068
 40
0.5068493150684932
 40
0.5068493150684932
 40
0.5068493150684932
 40
0.5205479452054794
 40
0.5205479452054794
 40
0.5205479452054794
 40
0.5342465753424657
 40
0.5342465753424657
 40
0.5342465753424657
 40
0.547945205479452
 40
0.547945205479452
 40
0.547945205479452
 40
0.5616438356164384
 40
0.5616438356164384
 40
0.5616438356164384
 40
0.5753424657534246
 40
0.5753424657534246
 40
0.5753424657534246
 40
0.5890410958904109
 40
0.5890410958904109
 40
0.5890410958904109
 40
0.6027397260273972
 40
0.6027397260273972
 40
0.6027397260273972
 40
0.6164383561643836
 40
0.6164383561643836
 40
0.6164383561643836
 40
0.6301369863013698
 40
0.6301369863013698
 40
0.6301369863013698
 40
0.6438356164383561
 40
0.6438356164383561
 40
0.6438356164383561
 40
0.6575342465753424
 40
0.6575342465753424
 40
0.6575342465753424
 40
0.6712328767123288
 40
0.6712328767123288
 40
0.6712328767123288
 40
0.684931506849315
 40
0.684931506849315
 40
0.684931506849315
 40
0.6986301369863013
 40
0.6986301369863013
 40
0.6986301369863013
 40
0.7123287671232876
 40
0.7123287671232876
 40
0.7123287671232876
 40
0.726027397260274
 40
0.726027397260274
 40
0.726027397260274
 40
0.7397260273972602
 40
0.7397260273972602
 40
0.7397260273972602
 40
0.7534246575342465
 40
0.7534246575342465
 40
0.7534246575342465
 40
0.7671232876712328
 40
0.7671232876712328
 40
0.7671232876712328
 40
0.7808219178082192
 40
0.7808219178082192
 40
0.7808219178082192
 40
0.7945205479452054
 40
0.7945205479452054
 40
0.7945205479452054
 40
0.8082191780821917
 40
0.8082191780821917
 40
0.8082191780821917
 40
0.821917808219178
 40
0.821917808219178
 40
0.821917808219178
 40
0.8356164383561644
 40
0.8356164383561644
 40
0.8356164383561644
 40
0.8493150684931506
 40
0.8493150684931506
 40
0.8493150684931506
 40
0.8630136986301369
 40
0.8630136986301369
 40
0.8630136986301369
 40
0.8767123287671232
 40
0.8767123287671232
 40
0.8767123287671232
 40
0.8904109589041096
 40
0.8904109589041096
 40
0.8904109589041096
 40
0.9041095890410958
 40
0.9041095890410958
 40
0.9041095890410958
 40
0.9178082191780821
 40
0.9178082191780821
 40
0.9178082191780821
 40
0.9315068493150684
 40
0.9315068493150684
 40
0.9315068493150684
 40
0.9452054794520548
 40
0.9452054794520548
 40
0.9452054794520548
 40
0.958904109589041
 40
0.958904109589041
 40
0.958904109589041
 40
0.9726027397260273
 40
0.9726027397260273
 40
0.9726027397260273
 40
0.9863013698630136
 40
0.9863013698630136
 40
0.9863013698630136
 40
1.0
 40
1.0
 40
1.0
 40
1.0
 10
217.5042
 20
286.3796
 30
0.0
 10
217.6194
 20
286.4761
 30
0.0
 10
217.7841
 20
286.6078
 30
0.0
 10
218.0004
 20
286.7795
 30
0.0
 10
218.2121
 20
286.9394
 30
0.0
 10
218.3556
 20
287.0452
 30
0.0
 10
218.4355
 20
287.0946
 30
0.0
 10
218.4355
 20
287.0946
 30
0.0
 10
218.9294
 20
287.4192
 30
0.0
 10
218.9294
 20
287.4192
 30
0.0
 10
218.9177
 20
287.4286
 30
0.0
 10
218.8683
 20
287.4591
 30
0.0
 10
218.786
 20
287.5085
 30
0.0
 10
218.7225
 20
287.5415
 30
0.0
 10
218.6895
 20
287.5861
 30
0.0
 10
218.6895
 20
287.6473
 30
0.0
 10
218.8095
 20
287.913
 30
0.0
 10
218.9741
 20
288.1765
 30
0.0
 10
219.1858
 20
288.4399
 30
0.0
 10
219.3927
 20
288.6868
 30
0.0
 10
219.5127
 20
288.7997
 30
0.0
 10
219.5503
 20
288.7762
 30
0.0
 10
219.9219
 20
288.6492
 30
0.0
 10
220.143
 20
288.5669
 30
0.0
 10
220.2112
 20
288.5363
 30
0.0
 10
220.4558
 20
288.421
 30
0.0
 10
220.5781
 20
288.2893
 30
0.0
 10
220.5781
 20
288.1435
 30
0.0
 10
220.5781
 20
288.0424
 30
0.0
 10
220.531
 20
287.9107
 30
0.0
 10
220.4393
 20
287.7508
 30
0.0
 10
220.3382
 20
287.5932
 30
0.0
 10
220.2229
 20
287.4591
 30
0.0
 10
220.0959
 20
287.3439
 30
0.0
 10
219.9525
 20
287.224
 30
0.0
 10
219.7855
 20
287.1275
 30
0.0
 10
219.5926
 20
287.0546
 30
0.0
 10
219.0917
 20
286.8853
 30
0.0
 10
218.6825
 20
286.716
 30
0.0
 10
218.3626
 20
286.5466
 30
0.0
 10
218.0479
 20
286.3823
 30
0.0
 10
217.7649
 20
286.1884
 30
0.0
 10
217.5163
 20
285.9627
 30
0.0
 10
217.5163
 20
285.9627
 30
0.0
 10
217.5065
 20
285.9469
 30
0.0
 10
217.5065
 20
285.9469
 30
0.0
 10
217.4548
 20
285.9163
 30
0.0
 10
217.4219
 20
285.8857
 30
0.0
 10
217.4054
 20
285.8575
 30
0.0
 10
217.3889
 20
285.8293
 30
0.0
 10
217.3819
 20
285.8152
 30
0.0
 10
217.3819
 20
285.8105
 30
0.0
 10
217.4219
 20
285.8199
 30
0.0
 10
217.5959
 20
285.8505
 30
0.0
 10
217.8993
 20
285.9069
 30
0.0
 10
218.1227
 20
285.9422
 30
0.0
 10
218.3109
 20
285.961
 30
0.0
 10
218.4637
 20
285.961
 30
0.0
 10
218.6824
 20
285.961
 30
0.0
 10
218.8635
 20
285.9469
 30
0.0
 10
218.9999
 20
285.921
 30
0.0
 10
219.1434
 20
285.8928
 30
0.0
 10
219.214
 20
285.827
 30
0.0
 10
219.214
 20
285.7211
 30
0.0
 10
219.214
 20
285.6788
 30
0.0
 10
219.1881
 20
285.6012
 30
0.0
 10
219.1387
 20
285.4859
 30
0.0
 10
219.0729
 20
285.366
 30
0.0
 10
218.9905
 20
285.246
 30
0.0
 10
218.8894
 20
285.1285
 30
0.0
 10
218.8212
 20
285.0485
 30
0.0
 10
218.5766
 20
284.9238
 30
0.0
 10
218.1556
 20
284.7498
 30
0.0
 10
217.737
 20
284.5734
 30
0.0
 10
217.4783
 20
284.4558
 30
0.0
 10
217.3819
 20
284.3947
 30
0.0
 10
217.2854
 20
284.3312
 30
0.0
 10
217.2125
 20
284.2794
 30
0.0
 10
217.1608
 20
284.2395
 30
0.0
 10
217.133
 20
284.2028
 30
0.0
 10
217.1026
 20
284.1755
 30
0.0
 10
217.0698
 20
284.1583
 30
0.0
 10
216.998
 20
284.0759
 30
0.0
 10
216.9885
 20
284.0104
 30
0.0
 10
217.0432
 20
283.9619
 30
0.0
 10
217.0973
 20
283.9102
 30
0.0
 10
217.189
 20
283.8843
 30
0.0
 10
217.3184
 20
283.882
 30
0.0
 10
217.4477
 20
283.8796
 30
0.0
 10
217.5418
 20
283.8796
 30
0.0
 10
217.6006
 20
283.8796
 30
0.0
 10
217.6923
 20
283.8702
 30
0.0
 10
217.7394
 20
283.8161
 30
0.0
 10
217.7394
 20
283.7197
 30
0.0
 10
217.7394
 20
283.6515
 30
0.0
 10
217.7017
 20
283.5057
 30
0.0
 10
217.6288
 20
283.287
 30
0.0
 10
217.4995
 20
282.9013
 30
0.0
 10
217.3325
 20
282.6049
 30
0.0
 10
217.1255
 20
282.398
 30
0.0
 10
216.9092
 20
282.1816
 30
0.0
 10
216.674
 20
282.0734
 30
0.0
 10
216.4153
 20
282.0734
 30
0.0
 10
216.173
 20
282.0734
 30
0.0
 10
215.9825
 20
282.1957
 30
0.0
 10
215.8438
 20
282.4379
 30
0.0
 10
215.7382
 20
282.6308
 30
0.0
 10
215.6735
 20
282.8549
 30
0.0
 10
215.6518
 20
283.1097
 30
0.0
 10
215.5582
 20
282.9687
 30
0.0
 10
215.4318
 20
282.7839
 30
0.0
 10
215.2722
 20
282.5555
 30
0.0
 10
215.1758
 20
282.4356
 30
0.0
 10
215.0935
 20
282.3509
 30
0.0
 10
215.0229
 20
282.3015
 30
0.0
 10
214.9312
 20
282.2357
 30
0.0
 10
214.8395
 20
282.1839
 30
0.0
 10
214.7454
 20
282.1463
 30
0.0
 10
214.6514
 20
282.1063
 30
0.0
 10
214.5479
 20
282.0758
 30
0.0
 10
214.435
 20
282.0499
 30
0.0
 10
214.3221
 20
282.024
 30
0.0
 10
214.2116
 20
281.9981
 30
0.0
 10
214.101
 20
281.9699
 30
0.0
 10
214.101
 20
281.9699
 30
0.0
 10
213.6448
 20
281.8594
 30
0.0
 10
213.6448
 20
281.8594
 30
0.0
 10
213.4613
 20
281.8288
 30
0.0
 10
213.3484
 20
281.8241
 30
0.0
 10
213.3084
 20
281.8453
 30
0.0
 10
213.3084
 20
281.9111
 30
0.0
 10
213.3837
 20
281.9911
 30
0.0
 10
213.5366
 20
282.0875
 30
0.0
 10
213.673
 20
282.1745
 30
0.0
 10
213.8141
 20
282.2639
 30
0.0
 10
213.9552
 20
282.3533
 30
0.0
 10
214.0987
 20
282.4426
 30
0.0
 10
214.2398
 20
282.5297
 30
0.0
 10
214.3832
 20
282.6167
 30
0.0
 10
214.7454
 20
282.8707
 30
0.0
 10
215.0182
 20
283.1082
 30
0.0
 10
215.197
 20
283.3269
 30
0.0
 10
215.3334
 20
283.4986
 30
0.0
 10
215.4416
 20
283.6468
 30
0.0
 10
215.5192
 20
283.7761
 30
0.0
 10
215.5709
 20
283.849
 30
0.0
 10
215.6462
 20
283.976
 30
0.0
 10
215.7473
 20
284.1548
 30
0.0
 10
215.7473
 20
284.1548
 30
0.0
 10
215.814
 20
284.2914
 30
0.0
 10
215.814
 20
284.2914
 30
0.0
 10
215.8299
 20
284.3287
 30
0.0
 10
215.8469
 20
284.3646
 30
0.0
 10
215.865
 20
284.3994
 30
0.0
 10
215.8733
 20
284.4161
 30
0.0
 10
215.8817
 20
284.4322
 30
0.0
 10
215.8904
 20
284.4479
 30
0.0
 10
215.8904
 20
284.4479
 30
0.0
 10
216.0436
 20
284.7616
 30
0.0
 10
216.0436
 20
284.7616
 30
0.0
 10
216.1119
 20
284.9027
 30
0.0
 10
216.1801
 20
285.0179
 30
0.0
 10
216.2436
 20
285.1049
 30
0.0
 10
216.3023
 20
285.192
 30
0.0
 10
216.3588
 20
285.2343
 30
0.0
 10
216.4082
 20
285.2296
 30
0.0
 10
216.4552
 20
285.2061
 30
0.0
 10
216.4693
 20
285.1614
 30
0.0
 10
216.4505
 20
285.0908
 30
0.0
 10
216.3988
 20
284.9403
 30
0.0
 10
216.3682
 20
284.8415
 30
0.0
 10
216.3541
 20
284.7945
 30
0.0
 10
216.3019
 20
284.621
 30
0.0
 10
216.2678
 20
284.4837
 30
0.0
 10
216.2527
 20
284.3844
 30
0.0
 10
216.2759
 20
283.9684
 30
0.0
 10
216.3438
 20
283.7429
 30
0.0
 10
216.4576
 20
283.7056
 30
0.0
 10
216.507
 20
283.7573
 30
0.0
 10
216.5799
 20
283.8679
 30
0.0
 10
216.6716
 20
284.0372
 30
0.0
 10
216.7257
 20
284.1383
 30
0.0
 10
216.7681
 20
284.2065
 30
0.0
 10
216.7939
 20
284.2442
 30
0.0
 10
216.8008
 20
284.2528
 30
0.0
 10
216.8086
 20
284.2601
 30
0.0
 10
216.8175
 20
284.2664
 30
0.0
 10
216.8589
 20
284.3173
 30
0.0
 10
216.91
 20
284.3713
 30
0.0
 10
216.9679
 20
284.4252
 30
0.0
 10
217.1114
 20
284.5546
 30
0.0
 10
217.2549
 20
284.6651
 30
0.0
 10
217.403
 20
284.7616
 30
0.0
 10
217.5912
 20
284.8862
 30
0.0
 10
217.7723
 20
284.9944
 30
0.0
 10
217.9463
 20
285.0861
 30
0.0
 10
217.9604
 20
285.0955
 30
0.0
 10
218.0592
 20
285.1449
 30
0.0
 10
218.2427
 20
285.2319
 30
0.0
 10
218.2427
 20
285.2766
 30
0.0
 10
218.1697
 20
285.3095
 30
0.0
 10
218.0216
 20
285.3284
 30
0.0
 10
217.8946
 20
285.3331
 30
0.0
 10
217.7205
 20
285.3284
 30
0.0
 10
217.5065
 20
285.3142
 30
0.0
 10
217.5065
 20
285.3142
 30
0.0
 10
216.7892
 20
285.2578
 30
0.0
 10
216.7892
 20
285.2578
 30
0.0
 10
216.7563
 20
285.2578
 30
0.0
 10
216.7469
 20
285.286
 30
0.0
 10
216.761
 20
285.3401
 30
0.0
 10
216.7892
 20
285.4601
 30
0.0
 10
216.8786
 20
285.6341
 30
0.0
 10
217.0338
 20
285.8575
 30
0.0
 10
217.1847
 20
286.0803
 30
0.0
 10
217.3401
 20
286.2504
 30
0.0
 10
217.5001
 20
286.3701
 30
0.0
 10
217.5001
 20
286.3701
 30
0.0
 10
217.5042
 20
286.3796
 30
0.0
 10
217.5042
 20
286.3796
 30
0.0
  0
SPLINE
  5
66
330
1F
100
AcDbEntity
  8
Layer 1
 62
   250
370
    18
100
AcDbSpline
210
0.0
220
0.0
230
1.0
 70
    11
 71
     3
 72
   245
 73
   241
 74
     0
 42
0.0000000001
 43
0.0000000001
 40
0.0
 40
0.0
 40
0.0
 40
0.0
 40
0.0125
 40
0.0125
 40
0.0125
 40
0.025
 40
0.025
 40
0.025
 40
0.0375
 40
0.0375
 40
0.0375
 40
0.05
 40
0.05
 40
0.05
 40
0.0625
 40
0.0625
 40
0.0625
 40
0.075
 40
0.075
 40
0.075
 40
0.0875
 40
0.0875
 40
0.0875
 40
0.1
 40
0.1
 40
0.1
 40
0.1125
 40
0.1125
 40
0.1125
 40
0.125
 40
0.125
 40
0.125
 40
0.1375
 40
0.1375
 40
0.1375
 40
0.15
 40
0.15
 40
0.15
 40
0.1625
 40
0.1625
 40
0.1625
 40
0.175
 40
0.175
 40
0.175
 40
0.1875
 40
0.1875
 40
0.1875
 40
0.2
 40
0.2
 40
0.2
 40
0.2125
 40
0.2125
 40
0.2125
 40
0.225
 40
0.225
 40
0.225
 40
0.2375
 40
0.2375
 40
0.2375
 40
0.25
 40
0.25
 40
0.25
 40
0.2625
 40
0.2625
 40
0.2625
 40
0.275
 40
0.275
 40
0.275
 40
0.2875
 40
0.2875
 40
0.2875
 40
0.3
 40
0.3
 40
0.3
 40
0.3125
 40
0.3125
 40
0.3125
 40
0.325
 40
0.325
 40
0.325
 40
0.3375
 40
0.3375
 40
0.3375
 40
0.35
 40
0.35
 40
0.35
 40
0.3625
 40
0.3625
 40
0.3625
 40
0.375
 40
0.375
 40
0.375
 40
0.3875
 40
0.3875
 40
0.3875
 40
0.4
 40
0.4
 40
0.4
 40
0.4125
 40
0.4125
 40
0.4125
 40
0.425
 40
0.425
 40
0.425
 40
0.4375
 40
0.4375
 40
0.4375
 40
0.45
 40
0.45
 40
0.45
 40
0.4625
 40
0.4625
 40
0.4625
 40
0.475
 40
0.475
 40
0.475
 40
0.4875
 40
0.4875
 40
0.4875
 40
0.5
 40
0.5
 40
0.5
 40
0.5125000000000001
 40
0.5125000000000001
 40
0.5125000000000001
 40
0.525
 40
0.525
 40
0.525
 40
0.5375
 40
0.5375
 40
0.5375
 40
0.55
 40
0.55
 40
0.55
 40
0.5625
 40
0.5625
 40
0.5625
 40
0.5750000000000001
 40
0.5750000000000001
 40
0.5750000000000001
 40
0.5875
 40
0.5875
 40
0.5875
 40
0.6000000000000001
 40
0.6000000000000001
 40
0.6000000000000001
 40
0.6125
 40
0.6125
 40
0.6125
 40
0.625
 40
0.625
 40
0.625
 40
0.6375000000000001
 40
0.6375000000000001
 40
0.6375000000000001
 40
0.65
 40
0.65
 40
0.65
 40
0.6625000000000001
 40
0.6625000000000001
 40
0.6625000000000001
 40
0.675
 40
0.675
 40
0.675
 40
0.6875
 40
0.6875
 40
0.6875
 40
0.7000000000000001
 40
0.7000000000000001
 40
0.7000000000000001
 40
0.7125
 40
0.7125
 40
0.7125
 40
0.7250000000000001
 40
0.7250000000000001
 40
0.7250000000000001
 40
0.7375
 40
0.7375
 40
0.7375
 40
0.75
 40
0.75
 40
0.75
 40
0.7625000000000001
 40
0.7625000000000001
 40
0.7625000000000001
 40
0.775
 40
0.775
 40
0.775
 40
0.7875000000000001
 40
0.7875000000000001
 40
0.7875000000000001
 40
0.8
 40
0.8
 40
0.8
 40
0.8125
 40
0.8125
 40
0.8125
 40
0.8250000000000001
 40
0.8250000000000001
 40
0.8250000000000001
 40
0.8375
 40
0.8375
 40
0.8375
 40
0.8500000000000001
 40
0.8500000000000001
 40
0.8500000000000001
 40
0.8625
 40
0.8625
 40
0.8625
 40
0.875
 40
0.875
 40
0.875
 40
0.8875000000000001
 40
0.8875000000000001
 40
0.8875000000000001
 40
0.9
 40
0.9
 40
0.9
 40
0.9125000000000001
 40
0.9125000000000001
 40
0.9125000000000001
 40
0.925
 40
0.925
 40
0.925
 40
0.9375
 40
0.9375
 40
0.9375
 40
0.9500000000000001
 40
0.9500000000000001
 40
0.9500000000000001
 40
0.9625
 40
0.9625
 40
0.9625
 40
0.9750000000000001
 40
0.9750000000000001
 40
0.9750000000000001
 40
0.9875
 40
0.9875
 40
0.9875
 40
1.0
 40
1.0
 40
1.0
 40
1.0
 10
212.1348
 20
286.669
 30
0.0
 10
212.2453
 20
286.7466
 30
0.0
 10
212.3394
 20
286.843
 30
0.0
 10
212.417
 20
286.9582
 30
0.0
 10
212.4993
 20
287.0735
 30
0.0
 10
212.5417
 20
287.1887
 30
0.0
 10
212.5417
 20
287.304
 30
0.0
 10
212.5417
 20
287.304
 30
0.0
 10
212.5417
 20
287.7579
 30
0.0
 10
212.5417
 20
287.7579
 30
0.0
 10
212.5417
 20
287.8684
 30
0.0
 10
212.5605
 20
287.9907
 30
0.0
 10
212.5958
 20
288.1224
 30
0.0
 10
212.6616
 20
288.3058
 30
0.0
 10
212.7275
 20
288.4752
 30
0.0
 10
212.7957
 20
288.6257
 30
0.0
 10
212.7957
 20
288.6257
 30
0.0
 10
213.0779
 20
289.3077
 30
0.0
 10
213.0779
 20
289.3077
 30
0.0
 10
213.0826
 20
289.3407
 30
0.0
 10
213.1061
 20
289.3783
 30
0.0
 10
213.1484
 20
289.4183
 30
0.0
 10
213.1673
 20
289.4183
 30
0.0
 10
213.1743
 20
289.3712
 30
0.0
 10
213.1743
 20
289.2748
 30
0.0
 10
213.1743
 20
289.2748
 30
0.0
 10
213.1626
 20
288.7856
 30
0.0
 10
213.1626
 20
288.7856
 30
0.0
 10
213.1626
 20
288.7856
 30
0.0
 10
213.1343
 20
288.193
 30
0.0
 10
213.1343
 20
288.193
 30
0.0
 10
213.1343
 20
287.986
 30
0.0
 10
213.092
 20
287.7508
 30
0.0
 10
213.0097
 20
287.4898
 30
0.0
 10
212.9321
 20
287.2263
 30
0.0
 10
212.8309
 20
286.9959
 30
0.0
 10
212.7063
 20
286.7936
 30
0.0
 10
212.5189
 20
286.4867
 30
0.0
 10
212.3292
 20
286.2521
 30
0.0
 10
212.1371
 20
286.0923
 30
0.0
 10
212.1371
 20
286.0923
 30
0.0
 10
212.1348
 20
286.088
 30
0.0
 10
212.1348
 20
286.088
 30
0.0
 10
212.0242
 20
286.0151
 30
0.0
 10
211.8996
 20
285.9516
 30
0.0
 10
211.7632
 20
285.8999
 30
0.0
 10
211.6244
 20
285.8458
 30
0.0
 10
211.4904
 20
285.8105
 30
0.0
 10
211.3634
 20
285.7917
 30
0.0
 10
211.2928
 20
285.7776
 30
0.0
 10
211.2199
 20
285.7823
 30
0.0
 10
211.1423
 20
285.8011
 30
0.0
 10
211.0647
 20
285.8223
 30
0.0
 10
211.0035
 20
285.8458
 30
0.0
 10
210.9635
 20
285.874
 30
0.0
 10
210.9071
 20
285.874
 30
0.0
 10
210.8295
 20
285.8505
 30
0.0
 10
210.7284
 20
285.8058
 30
0.0
 10
210.6319
 20
285.7635
 30
0.0
 10
210.512
 20
285.7047
 30
0.0
 10
210.3709
 20
285.6271
 30
0.0
 10
210.3709
 20
285.6271
 30
0.0
 10
209.964
 20
285.3707
 30
0.0
 10
209.964
 20
285.3707
 30
0.0
 10
209.964
 20
285.3707
 30
0.0
 10
209.9635
 20
285.3725
 30
0.0
 10
209.9635
 20
285.3725
 30
0.0
 10
209.8343
 20
285.2576
 30
0.0
 10
209.6791
 20
285.1706
 30
0.0
 10
209.496
 20
285.1119
 30
0.0
 10
209.289
 20
285.032
 30
0.0
 10
209.028
 20
285.0085
 30
0.0
 10
208.7105
 20
285.0343
 30
0.0
 10
208.6446
 20
285.0343
 30
0.0
 10
208.3506
 20
284.905
 30
0.0
 10
207.8215
 20
284.6416
 30
0.0
 10
207.8215
 20
284.6416
 30
0.0
 10
207.458
 20
284.4412
 30
0.0
 10
207.458
 20
284.4412
 30
0.0
 10
207.458
 20
284.4412
 30
0.0
 10
207.4311
 20
284.3359
 30
0.0
 10
207.4311
 20
284.3359
 30
0.0
 10
207.4029
 20
284.2206
 30
0.0
 10
207.3676
 20
284.1101
 30
0.0
 10
207.3323
 20
284.009
 30
0.0
 10
207.17
 20
283.5645
 30
0.0
 10
207.0219
 20
283.2352
 30
0.0
 10
206.8831
 20
283.0235
 30
0.0
 10
206.7467
 20
282.8119
 30
0.0
 10
206.6385
 20
282.6825
 30
0.0
 10
206.5609
 20
282.6308
 30
0.0
 10
206.481
 20
282.5814
 30
0.0
 10
206.3657
 20
282.5273
 30
0.0
 10
206.2081
 20
282.4685
 30
0.0
 10
206.0529
 20
282.4121
 30
0.0
 10
205.8154
 20
282.3321
 30
0.0
 10
205.4955
 20
282.2286
 30
0.0
 10
205.1757
 20
282.1251
 30
0.0
 10
204.9875
 20
282.0734
 30
0.0
 10
204.9264
 20
282.0734
 30
0.0
 10
204.8911
 20
282.0734
 30
0.0
 10
204.8723
 20
282.0828
 30
0.0
 10
204.8723
 20
282.1016
 30
0.0
 10
204.8347
 20
282.151
 30
0.0
 10
205.0252
 20
282.318
 30
0.0
 10
205.4438
 20
282.5979
 30
0.0
 10
205.8624
 20
282.8777
 30
0.0
 10
206.1329
 20
283.0612
 30
0.0
 10
206.2528
 20
283.1482
 30
0.0
 10
206.3751
 20
283.2352
 30
0.0
 10
206.4998
 20
283.3622
 30
0.0
 10
206.6244
 20
283.5315
 30
0.0
 10
206.7514
 20
283.6985
 30
0.0
 10
206.8455
 20
283.889
 30
0.0
 10
206.9043
 20
284.0983
 30
0.0
 10
206.8408
 20
284.1078
 30
0.0
 10
206.7749
 20
284.096
 30
0.0
 10
206.7091
 20
284.0607
 30
0.0
 10
206.6409
 20
284.0278
 30
0.0
 10
206.575
 20
284.009
 30
0.0
 10
206.5115
 20
284.009
 30
0.0
 10
206.3422
 20
284.0137
 30
0.0
 10
206.1987
 20
284.0701
 30
0.0
 10
206.0835
 20
284.176
 30
0.0
 10
205.9706
 20
284.2794
 30
0.0
 10
205.9212
 20
284.397
 30
0.0
 10
205.94
 20
284.5264
 30
0.0
 10
205.9588
 20
284.604
 30
0.0
 10
205.9847
 20
284.6957
 30
0.0
 10
206.02
 20
284.7992
 30
0.0
 10
206.0529
 20
284.9027
 30
0.0
 10
206.1258
 20
285.0673
 30
0.0
 10
206.2364
 20
285.2907
 30
0.0
 10
206.3469
 20
285.5165
 30
0.0
 10
206.4574
 20
285.7023
 30
0.0
 10
206.5703
 20
285.8481
 30
0.0
 10
206.6832
 20
285.9963
 30
0.0
 10
206.7937
 20
286.0692
 30
0.0
 10
206.9043
 20
286.0692
 30
0.0
 10
207.0924
 20
286.0692
 30
0.0
 10
207.25
 20
285.9892
 30
0.0
 10
207.377
 20
285.8293
 30
0.0
 10
207.504
 20
285.667
 30
0.0
 10
207.5652
 20
285.4742
 30
0.0
 10
207.5652
 20
285.2507
 30
0.0
 10
207.5652
 20
285.2507
 30
0.0
 10
207.5648
 20
285.2036
 30
0.0
 10
207.5648
 20
285.2036
 30
0.0
 10
207.5648
 20
285.2036
 30
0.0
 10
207.6945
 20
285.2484
 30
0.0
 10
207.6945
 20
285.2484
 30
0.0
 10
207.8473
 20
285.3048
 30
0.0
 10
207.925
 20
285.3448
 30
0.0
 10
207.925
 20
285.373
 30
0.0
 10
207.8967
 20
285.42
 30
0.0
 10
207.8826
 20
285.4765
 30
0.0
 10
207.8826
 20
285.5447
 30
0.0
 10
207.892
 20
285.6058
 30
0.0
 10
207.9155
 20
285.6811
 30
0.0
 10
207.9532
 20
285.7728
 30
0.0
 10
208.0167
 20
285.9421
 30
0.0
 10
208.1343
 20
286.182
 30
0.0
 10
208.3036
 20
286.4901
 30
0.0
 10
208.4094
 20
286.6924
 30
0.0
 10
208.5435
 20
286.8711
 30
0.0
 10
208.7105
 20
287.0264
 30
0.0
 10
208.8751
 20
287.1792
 30
0.0
 10
209.0092
 20
287.2545
 30
0.0
 10
209.1103
 20
287.2545
 30
0.0
 10
209.2702
 20
287.2545
 30
0.0
 10
209.4019
 20
287.1863
 30
0.0
 10
209.503
 20
287.0546
 30
0.0
 10
209.5948
 20
286.9252
 30
0.0
 10
209.6395
 20
286.7559
 30
0.0
 10
209.6395
 20
286.5442
 30
0.0
 10
209.6395
 20
286.3561
 30
0.0
 10
209.6136
 20
286.1867
 30
0.0
 10
209.5618
 20
286.0386
 30
0.0
 10
209.5077
 20
285.8881
 30
0.0
 10
209.4748
 20
285.7963
 30
0.0
 10
209.4607
 20
285.7587
 30
0.0
 10
209.4607
 20
285.7587
 30
0.0
 10
209.543
 20
285.7728
 30
0.0
 10
209.543
 20
285.7728
 30
0.0
 10
209.7218
 20
285.8175
 30
0.0
 10
209.8629
 20
285.8786
 30
0.0
 10
209.964
 20
285.9516
 30
0.0
 10
209.964
 20
285.9516
 30
0.0
 10
209.9683
 20
285.9444
 30
0.0
 10
209.9683
 20
285.9444
 30
0.0
 10
210.0504
 20
285.987
 30
0.0
 10
210.1665
 20
286.0568
 30
0.0
 10
210.3144
 20
286.1563
 30
0.0
 10
210.3474
 20
286.1751
 30
0.0
 10
210.4226
 20
286.2292
 30
0.0
 10
210.5426
 20
286.3162
 30
0.0
 10
210.5426
 20
286.3891
 30
0.0
 10
210.5096
 20
286.4949
 30
0.0
 10
210.4461
 20
286.6337
 30
0.0
 10
210.3779
 20
286.7583
 30
0.0
 10
210.2839
 20
286.8195
 30
0.0
 10
210.1639
 20
286.8195
 30
0.0
 10
210.0863
 20
286.8195
 30
0.0
 10
210.0063
 20
286.8007
 30
0.0
 10
209.9217
 20
286.763
 30
0.0
 10
209.8629
 20
286.763
 30
0.0
 10
209.8441
 20
286.803
 30
0.0
 10
209.8676
 20
286.8806
 30
0.0
 10
209.8864
 20
286.9371
 30
0.0
 10
209.9264
 20
287.0053
 30
0.0
 10
209.9922
 20
287.0876
 30
0.0
 10
210.0934
 20
287.2169
 30
0.0
 10
210.218
 20
287.3251
 30
0.0
 10
210.3709
 20
287.4121
 30
0.0
 10
210.4673
 20
287.4639
 30
0.0
 10
210.5661
 20
287.5015
 30
0.0
 10
210.6672
 20
287.5297
 30
0.0
 10
210.7919
 20
287.5674
 30
0.0
 10
210.8953
 20
287.5862
 30
0.0
 10
210.9847
 20
287.5862
 30
0.0
 10
211.194
 20
287.5862
 30
0.0
 10
211.3916
 20
287.5485
 30
0.0
 10
211.5774
 20
287.4756
 30
0.0
 10
211.7514
 20
287.4074
 30
0.0
 10
211.8384
 20
287.2875
 30
0.0
 10
211.8384
 20
287.1158
 30
0.0
 10
211.8384
 20
287.057
 30
0.0
 10
211.8173
 20
286.9841
 30
0.0
 10
211.7773
 20
286.8971
 30
0.0
 10
211.7538
 20
286.8453
 30
0.0
 10
211.7326
 20
286.7983
 30
0.0
 10
211.7114
 20
286.7583
 30
0.0
 10
211.6903
 20
286.716
 30
0.0
 10
211.6526
 20
286.6478
 30
0.0
 10
211.5962
 20
286.5514
 30
0.0
 10
211.6291
 20
286.5231
 30
0.0
 10
211.7067
 20
286.5208
 30
0.0
 10
211.8314
 20
286.5396
 30
0.0
 10
211.956
 20
286.5608
 30
0.0
 10
212.0571
 20
286.6031
 30
0.0
 10
212.1348
 20
286.669
 30
0.0
  0
SPLINE
  5
67
330
1F
100
AcDbEntity
  8
Layer 1
 62
   250
370
    18
100
AcDbSpline
210
0.0
220
0.0
230
1.0
 70
    11
 71
     3
 72
    53
 73
    49
 74
     0
 42
0.0000000001
 43
0.0000000001
 40
0.0
 40
0.0
 40
0.0
 40
0.0
 40
0.0625
 40
0.0625
 40
0.0625
 40
0.125
 40
0.125
 40
0.125
 40
0.1875
 40
0.1875
 40
0.1875
 40
0.25
 40
0.25
 40
0.25
 40
0.3125
 40
0.3125
 40
0.3125
 40
0.375
 40
0.375
 40
0.375
 40
0.4375
 40
0.4375
 40
0.4375
 40
0.5
 40
0.5
 40
0.5
 40
0.5625
 40
0.5625
 40
0.5625
 40
0.625
 40
0.625
 40
0.625
 40
0.6875
 40
0.6875
 40
0.6875
 40
0.75
 40
0.75
 40
0.75
 40
0.8125
 40
0.8125
 40
0.8125
 40
0.875
 40
0.875
 40
0.875
 40
0.9375
 40
0.9375
 40
0.9375
 40
1.0
 40
1.0
 40
1.0
 40
1.0
 10
211.1635
 20
278.2423
 30
0.0
 10
211.1635
 20
278.2141
 30
0.0
 10
211.2317
 20
278.1459
 30
0.0
 10
211.3657
 20
278.0353
 30
0.0
 10
211.5022
 20
277.9248
 30
0.0
 10
211.6009
 20
277.8425
 30
0.0
 10
211.6668
 20
277.7884
 30
0.0
 10
211.735
 20
277.7272
 30
0.0
 10
211.7891
 20
277.699
 30
0.0
 10
211.8244
 20
277.699
 30
0.0
 10
211.9725
 20
277.699
 30
0.0
 10
212.1701
 20
277.9483
 30
0.0
 10
212.417
 20
278.4492
 30
0.0
 10
212.5182
 20
278.3763
 30
0.0
 10
212.6357
 20
278.2729
 30
0.0
 10
212.7698
 20
278.1388
 30
0.0
 10
212.9015
 20
278.0047
 30
0.0
 10
212.9932
 20
277.9389
 30
0.0
 10
213.045
 20
277.9389
 30
0.0
 10
213.1226
 20
277.9389
 30
0.0
 10
213.2449
 20
278.0565
 30
0.0
 10
213.4095
 20
278.2917
 30
0.0
 10
213.5788
 20
278.5292
 30
0.0
 10
213.6635
 20
278.7362
 30
0.0
 10
213.6635
 20
278.9102
 30
0.0
 10
213.6564
 20
279.0584
 30
0.0
 10
213.5718
 20
279.2159
 30
0.0
 10
213.4119
 20
279.3829
 30
0.0
 10
213.2543
 20
279.5499
 30
0.0
 10
213.1179
 20
279.6346
 30
0.0
 10
213.0026
 20
279.6346
 30
0.0
 10
212.9674
 20
279.6346
 30
0.0
 10
212.8921
 20
279.5405
 30
0.0
 10
212.7792
 20
279.3523
 30
0.0
 10
212.6663
 20
279.1642
 30
0.0
 10
212.5652
 20
278.9925
 30
0.0
 10
212.4735
 20
278.842
 30
0.0
 10
212.3935
 20
278.9525
 30
0.0
 10
212.2806
 20
279.0795
 30
0.0
 10
212.1324
 20
279.2253
 30
0.0
 10
211.9819
 20
279.3688
 30
0.0
 10
211.869
 20
279.4253
 30
0.0
 10
211.7914
 20
279.3923
 30
0.0
 10
211.7491
 20
279.3923
 30
0.0
 10
211.6339
 20
279.2159
 30
0.0
 10
211.4457
 20
278.8632
 30
0.0
 10
211.2576
 20
278.508
 30
0.0
 10
211.1635
 20
278.3034
 30
0.0
 10
211.1635
 20
278.2423
 30
0.0
  0
SPLINE
  5
68
330
1F
100
AcDbEntity
  8
Layer 1
 62
   250
370
    18
100
AcDbSpline
210
0.0
220
0.0
230
1.0
 70
    11
 71
     3
 72
    29
 73
    25
 74
     0
 42
0.0000000001
 43
0.0000000001
 40
0.0
 40
0.0
 40
0.0
 40
0.0
 40
0.125
 40
0.125
 40
0.125
 40
0.25
 40
0.25
 40
0.25
 40
0.375
 40
0.375
 40
0.375
 40
0.5
 40
0.5
 40
0.5
 40
0.625
 40
0.625
 40
0.625
 40
0.75
 40
0.75
 40
0.75
 40
0.875
 40
0.875
 40
0.875
 40
1.0
 40
1.0
 40
1.0
 40
1.0
 10
209.3031
 20
286.1115
 30
0.0
 10
209.3031
 20
286.1891
 30
0.0
 10
209.2561
 20
286.2644
 30
0.0
 10
209.1644
 20
286.3373
 30
0.0
 10
209.0632
 20
286.4031
 30
0.0
 10
208.9598
 20
286.4337
 30
0.0
 10
208.8539
 20
286.4337
 30
0.0
 10
208.7528
 20
286.4337
 30
0.0
 10
208.6446
 20
286.3772
 30
0.0
 10
208.5317
 20
286.262
 30
0.0
 10
208.4071
 20
286.1515
 30
0.0
 10
208.3459
 20
286.0644
 30
0.0
 10
208.3459
 20
286.0009
 30
0.0
 10
208.3459
 20
285.8998
 30
0.0
 10
208.3859
 20
285.8246
 30
0.0
 10
208.4682
 20
285.7799
 30
0.0
 10
208.5388
 20
285.7281
 30
0.0
 10
208.6235
 20
285.7046
 30
0.0
 10
208.7246
 20
285.7046
 30
0.0
 10
208.8939
 20
285.7046
 30
0.0
 10
209.035
 20
285.7516
 30
0.0
 10
209.1432
 20
285.8481
 30
0.0
 10
209.249
 20
285.9445
 30
0.0
 10
209.3031
 20
286.0315
 30
0.0
 10
209.3031
 20
286.1115
 30
0.0
  0
SPLINE
  5
69
330
1F
100
AcDbEntity
  8
Layer 1
 62
   250
370
    18
100
AcDbSpline
210
0.0
220
0.0
230
1.0
 70
    11
 71
     3
 72
    53
 73
    49
 74
     0
 42
0.0000000001
 43
0.0000000001
 40
0.0
 40
0.0
 40
0.0
 40
0.0
 40
0.0625
 40
0.0625
 40
0.0625
 40
0.125
 40
0.125
 40
0.125
 40
0.1875
 40
0.1875
 40
0.1875
 40
0.25
 40
0.25
 40
0.25
 40
0.3125
 40
0.3125
 40
0.3125
 40
0.375
 40
0.375
 40
0.375
 40
0.4375
 40
0.4375
 40
0.4375
 40
0.5
 40
0.5
 40
0.5
 40
0.5625
 40
0.5625
 40
0.5625
 40
0.625
 40
0.625
 40
0.625
 40
0.6875
 40
0.6875
 40
0.6875
 40
0.75
 40
0.75
 40
0.75
 40
0.8125
 40
0.8125
 40
0.8125
 40
0.875
 40
0.875
 40
0.875
 40
0.9375
 40
0.9375
 40
0.9375
 40
1.0
 40
1.0
 40
1.0
 40
1.0
 10
206.2787
 20
289.9685
 30
0.0
 10
206.2787
 20
290.0297
 30
0.0
 10
206.3727
 20
290.2343
 30
0.0
 10
206.5609
 20
290.5894
 30
0.0
 10
206.749
 20
290.9422
 30
0.0
 10
206.8643
 20
291.1186
 30
0.0
 10
206.9042
 20
291.1186
 30
0.0
 10
206.9819
 20
291.1515
 30
0.0
 10
207.0971
 20
291.0951
 30
0.0
 10
207.2453
 20
290.9516
 30
0.0
 10
207.3958
 20
290.8058
 30
0.0
 10
207.5087
 20
290.6788
 30
0.0
 10
207.5863
 20
290.5682
 30
0.0
 10
207.678
 20
290.7188
 30
0.0
 10
207.7815
 20
290.8904
 30
0.0
 10
207.8944
 20
291.0786
 30
0.0
 10
208.0073
 20
291.2667
 30
0.0
 10
208.0802
 20
291.3608
 30
0.0
 10
208.1178
 20
291.3608
 30
0.0
 10
208.233
 20
291.3608
 30
0.0
 10
208.3695
 20
291.2761
 30
0.0
 10
208.527
 20
291.1092
 30
0.0
 10
208.687
 20
290.9422
 30
0.0
 10
208.7693
 20
290.7846
 30
0.0
 10
208.7787
 20
290.6364
 30
0.0
 10
208.7787
 20
290.4624
 30
0.0
 10
208.694
 20
290.2554
 30
0.0
 10
208.5247
 20
290.0179
 30
0.0
 10
208.3577
 20
289.7827
 30
0.0
 10
208.2377
 20
289.6651
 30
0.0
 10
208.1578
 20
289.6651
 30
0.0
 10
208.1084
 20
289.6651
 30
0.0
 10
208.0167
 20
289.7333
 30
0.0
 10
207.8826
 20
289.865
 30
0.0
 10
207.7509
 20
289.9991
 30
0.0
 10
207.6333
 20
290.1026
 30
0.0
 10
207.5322
 20
290.1755
 30
0.0
 10
207.2829
 20
289.6745
 30
0.0
 10
207.0853
 20
289.4252
 30
0.0
 10
206.9395
 20
289.4252
 30
0.0
 10
206.9019
 20
289.4252
 30
0.0
 10
206.8502
 20
289.4535
 30
0.0
 10
206.7796
 20
289.5146
 30
0.0
 10
206.7161
 20
289.5687
 30
0.0
 10
206.6173
 20
289.651
 30
0.0
 10
206.4809
 20
289.7616
 30
0.0
 10
206.3445
 20
289.8721
 30
0.0
 10
206.2787
 20
289.9403
 30
0.0
 10
206.2787
 20
289.9685
 30
0.0
  0
SPLINE
  5
6A
330
1F
100
AcDbEntity
  8
Layer 1
 62
   250
370
    18
100
AcDbSpline
210
0.0
220
0.0
230
1.0
 70
    11
 71
     3
 72
    32
 73
    28
 74
     0
 42
0.0000000001
 43
0.0000000001
 40
0.0
 40
0.0
 40
0.0
 40
0.0
 40
0.1111111111111111
 40
0.1111111111111111
 40
0.1111111111111111
 40
0.2222222222222222
 40
0.2222222222222222
 40
0.2222222222222222
 40
0.3333333333333333
 40
0.3333333333333333
 40
0.3333333333333333
 40
0.4444444444444444
 40
0.4444444444444444
 40
0.4444444444444444
 40
0.5555555555555556
 40
0.5555555555555556
 40
0.5555555555555556
 40
0.6666666666666666
 40
0.6666666666666666
 40
0.6666666666666666
 40
0.7777777777777777
 40
0.7777777777777777
 40
0.7777777777777777
 40
0.8888888888888888
 40
0.8888888888888888
 40
0.8888888888888888
 40
1.0
 40
1.0
 40
1.0
 40
1.0
 10
202.9226
 20
277.1463
 30
0.0
 10
202.9226
 20
277.0969
 30
0.0
 10
202.9578
 20
277.0475
 30
0.0
 10
203.026
 20
277.0029
 30
0.0
 10
203.1037
 20
276.9464
 30
0.0
 10
203.2236
 20
276.8664
 30
0.0
 10
203.3882
 20
276.7583
 30
0.0
 10
203.5505
 20
276.6501
 30
0.0
 10
203.6469
 20
276.5889
 30
0.0
 10
203.6728
 20
276.5748
 30
0.0
 10
203.7481
 20
276.5748
 30
0.0
 10
203.8633
 20
276.7136
 30
0.0
 10
204.0256
 20
276.9887
 30
0.0
 10
204.1855
 20
277.2639
 30
0.0
 10
204.2655
 20
277.4756
 30
0.0
 10
204.2655
 20
277.6214
 30
0.0
 10
204.2514
 20
277.7319
 30
0.0
 10
204.1479
 20
277.8848
 30
0.0
 10
203.955
 20
278.08
 30
0.0
 10
203.7622
 20
278.2752
 30
0.0
 10
203.6164
 20
278.3528
 30
0.0
 10
203.5152
 20
278.3105
 30
0.0
 10
203.4635
 20
278.3105
 30
0.0
 10
203.353
 20
278.1435
 30
0.0
 10
203.1813
 20
277.8048
 30
0.0
 10
203.0096
 20
277.4662
 30
0.0
 10
202.9226
 20
277.2474
 30
0.0
 10
202.9226
 20
277.1463
 30
0.0
  0
SPLINE
  5
6B
330
1F
100
AcDbEntity
  8
Layer 1
 62
   250
370
     9
100
AcDbSpline
210
0.0
220
0.0
230
1.0
 70
    11
 71
     3
 72
    29
 73
    25
 74
     0
 42
0.0000000001
 43
0.0000000001
 40
0.0
 40
0.0
 40
0.0
 40
0.0
 40
0.125
 40
0.125
 40
0.125
 40
0.25
 40
0.25
 40
0.25
 40
0.375
 40
0.375
 40
0.375
 40
0.5
 40
0.5
 40
0.5
 40
0.625
 40
0.625
 40
0.625
 40
0.75
 40
0.75
 40
0.75
 40
0.875
 40
0.875
 40
0.875
 40
1.0
 40
1.0
 40
1.0
 40
1.0
 10
201.4819
 20
265.3546
 30
0.0
 10
201.309
 20
265.444
 30
0.0
 10
201.1526
 20
265.5439
 30
0.0
 10
201.0127
 20
265.6545
 30
0.0
 10
200.8963
 20
265.7439
 30
0.0
 10
200.7787
 20
265.845
 30
0.0
 10
200.6611
 20
265.9567
 30
0.0
 10
200.6846
 20
266.0555
 30
0.0
 10
200.7269
 20
266.1884
 30
0.0
 10
200.7904
 20
266.3553
 30
0.0
 10
200.8539
 20
266.5211
 30
0.0
 10
200.9292
 20
266.6823
 30
0.0
 10
201.0162
 20
266.8351
 30
0.0
 10
201.1467
 20
266.6999
 30
0.0
 10
201.282
 20
266.5799
 30
0.0
 10
201.4207
 20
266.4753
 30
0.0
 10
201.5607
 20
266.3706
 30
0.0
 10
201.6912
 20
266.286
 30
0.0
 10
201.8158
 20
266.2189
 30
0.0
 10
201.7606
 20
266.1202
 30
0.0
 10
201.7018
 20
265.9861
 30
0.0
 10
201.6383
 20
265.8156
 30
0.0
 10
201.5748
 20
265.6463
 30
0.0
 10
201.523
 20
265.4922
 30
0.0
 10
201.4819
 20
265.3546
 30
0.0
  0
SPLINE
  5
6C
330
1F
100
AcDbEntity
  8
Layer 1
 62
   250
370
     9
100
AcDbSpline
210
0.0
220
0.0
230
1.0
 70
    11
 71
     3
 72
    44
 73
    40
 74
     0
 42
0.0000000001
 43
0.0000000001
 40
0.0
 40
0.0
 40
0.0
 40
0.0
 40
0.0769230769230769
 40
0.0769230769230769
 40
0.0769230769230769
 40
0.1538461538461539
 40
0.1538461538461539
 40
0.1538461538461539
 40
0.2307692307692308
 40
0.2307692307692308
 40
0.2307692307692308
 40
0.3076923076923077
 40
0.3076923076923077
 40
0.3076923076923077
 40
0.3846153846153846
 40
0.3846153846153846
 40
0.3846153846153846
 40
0.4615384615384616
 40
0.4615384615384616
 40
0.4615384615384616
 40
0.5384615384615385
 40
0.5384615384615385
 40
0.5384615384615385
 40
0.6153846153846154
 40
0.6153846153846154
 40
0.6153846153846154
 40
0.6923076923076923
 40
0.6923076923076923
 40
0.6923076923076923
 40
0.7692307692307693
 40
0.7692307692307693
 40
0.7692307692307693
 40
0.8461538461538463
 40
0.8461538461538463
 40
0.8461538461538463
 40
0.9230769230769231
 40
0.9230769230769231
 40
0.9230769230769231
 40
1.0
 40
1.0
 40
1.0
 40
1.0
 10
205.2026
 20
265.3193
 30
0.0
 10
205.2026
 20
265.3193
 30
0.0
 10
205.0721
 20
264.5691
 30
0.0
 10
205.0721
 20
264.5691
 30
0.0
 10
204.7451
 20
264.7749
 30
0.0
 10
204.5229
 20
265.0501
 30
0.0
 10
204.4029
 20
265.3923
 30
0.0
 10
204.2842
 20
265.7344
 30
0.0
 10
204.2242
 20
266.0308
 30
0.0
 10
204.2242
 20
266.2813
 30
0.0
 10
204.2889
 20
266.4
 30
0.0
 10
204.2736
 20
266.4282
 30
0.0
 10
204.1795
 20
266.3636
 30
0.0
 10
204.0584
 20
266.286
 30
0.0
 10
203.922
 20
266.246
 30
0.0
 10
203.7726
 20
266.246
 30
0.0
 10
203.5292
 20
266.246
 30
0.0
 10
203.3481
 20
266.3071
 30
0.0
 10
203.227
 20
266.4271
 30
0.0
 10
203.1059
 20
266.5482
 30
0.0
 10
203.0459
 20
266.7316
 30
0.0
 10
203.0459
 20
266.9774
 30
0.0
 10
203.0459
 20
267.2726
 30
0.0
 10
203.1165
 20
267.5501
 30
0.0
 10
203.2564
 20
267.8076
 30
0.0
 10
203.4234
 20
268.1122
 30
0.0
 10
203.6374
 20
268.2651
 30
0.0
 10
203.8973
 20
268.2651
 30
0.0
 10
204.1678
 20
268.2651
 30
0.0
 10
204.3583
 20
268.0922
 30
0.0
 10
204.4688
 20
267.7453
 30
0.0
 10
204.5382
 20
267.5266
 30
0.0
 10
204.5723
 20
267.2549
 30
0.0
 10
204.5723
 20
266.928
 30
0.0
 10
204.5723
 20
266.6693
 30
0.0
 10
204.6346
 20
266.3777
 30
0.0
 10
204.7604
 20
266.0531
 30
0.0
 10
204.8851
 20
265.7297
 30
0.0
 10
205.0332
 20
265.4852
 30
0.0
 10
205.2026
 20
265.3193
 30
0.0
  0
SPLINE
  5
6D
330
1F
100
AcDbEntity
  8
Layer 1
 62
   250
370
     9
100
AcDbSpline
210
0.0
220
0.0
230
1.0
 70
    11
 71
     3
 72
    29
 73
    25
 74
     0
 42
0.0000000001
 43
0.0000000001
 40
0.0
 40
0.0
 40
0.0
 40
0.0
 40
0.125
 40
0.125
 40
0.125
 40
0.25
 40
0.25
 40
0.25
 40
0.375
 40
0.375
 40
0.375
 40
0.5
 40
0.5
 40
0.5
 40
0.625
 40
0.625
 40
0.625
 40
0.75
 40
0.75
 40
0.75
 40
0.875
 40
0.875
 40
0.875
 40
1.0
 40
1.0
 40
1.0
 40
1.0
 10
204.1619
 20
267.115
 30
0.0
 10
204.0913
 20
267.3208
 30
0.0
 10
204.0184
 20
267.4619
 30
0.0
 10
203.9455
 20
267.5348
 30
0.0
 10
203.8855
 20
267.5948
 30
0.0
 10
203.8173
 20
267.6242
 30
0.0
 10
203.7421
 20
267.6242
 30
0.0
 10
203.6527
 20
267.6242
 30
0.0
 10
203.5692
 20
267.5795
 30
0.0
 10
203.494
 20
267.4901
 30
0.0
 10
203.4187
 20
267.4007
 30
0.0
 10
203.3799
 20
267.3126
 30
0.0
 10
203.3799
 20
267.2244
 30
0.0
 10
203.3799
 20
267.1056
 30
0.0
 10
203.4234
 20
267.0197
 30
0.0
 10
203.5116
 20
266.9668
 30
0.0
 10
203.5892
 20
266.9186
 30
0.0
 10
203.6962
 20
266.8939
 30
0.0
 10
203.8314
 20
266.8939
 30
0.0
 10
203.9008
 20
266.8939
 30
0.0
 10
203.9702
 20
266.9186
 30
0.0
 10
204.0419
 20
266.9668
 30
0.0
 10
204.1125
 20
267.015
 30
0.0
 10
204.1536
 20
267.0644
 30
0.0
 10
204.1619
 20
267.115
 30
0.0
  0
SPLINE
  5
6E
330
1F
100
AcDbEntity
  8
Layer 1
 62
   250
370
     9
100
AcDbSpline
210
0.0
220
0.0
230
1.0
 70
    11
 71
     3
 72
    41
 73
    37
 74
     0
 42
0.0000000001
 43
0.0000000001
 40
0.0
 40
0.0
 40
0.0
 40
0.0
 40
0.0833333333333333
 40
0.0833333333333333
 40
0.0833333333333333
 40
0.1666666666666667
 40
0.1666666666666667
 40
0.1666666666666667
 40
0.25
 40
0.25
 40
0.25
 40
0.3333333333333333
 40
0.3333333333333333
 40
0.3333333333333333
 40
0.4166666666666666
 40
0.4166666666666666
 40
0.4166666666666666
 40
0.5
 40
0.5
 40
0.5
 40
0.5833333333333333
 40
0.5833333333333333
 40
0.5833333333333333
 40
0.6666666666666666
 40
0.6666666666666666
 40
0.6666666666666666
 40
0.75
 40
0.75
 40
0.75
 40
0.8333333333333333
 40
0.8333333333333333
 40
0.8333333333333333
 40
0.9166666666666666
 40
0.9166666666666666
 40
0.9166666666666666
 40
1.0
 40
1.0
 40
1.0
 40
1.0
 10
207.718
 20
265.4781
 30
0.0
 10
207.718
 20
265.2876
 30
0.0
 10
207.6909
 20
264.9854
 30
0.0
 10
207.6356
 20
264.5726
 30
0.0
 10
207.6356
 20
264.5726
 30
0.0
 10
207.3734
 20
264.5726
 30
0.0
 10
207.3734
 20
264.5726
 30
0.0
 10
207.3734
 20
264.9395
 30
0.0
 10
207.3593
 20
265.2217
 30
0.0
 10
207.3311
 20
265.4181
 30
0.0
 10
207.3017
 20
265.6145
 30
0.0
 10
207.2558
 20
265.825
 30
0.0
 10
207.1911
 20
266.0496
 30
0.0
 10
207.1206
 20
266.2977
 30
0.0
 10
207.0371
 20
266.5341
 30
0.0
 10
206.943
 20
266.7563
 30
0.0
 10
206.8971
 20
266.8598
 30
0.0
 10
206.8478
 20
266.9539
 30
0.0
 10
206.7948
 20
267.0386
 30
0.0
 10
206.7196
 20
267.1656
 30
0.0
 10
206.6185
 20
267.302
 30
0.0
 10
206.4915
 20
267.449
 30
0.0
 10
206.4915
 20
267.449
 30
0.0
 10
206.7231
 20
268.3721
 30
0.0
 10
206.7231
 20
268.3721
 30
0.0
 10
206.9089
 20
268.1498
 30
0.0
 10
207.0488
 20
267.957
 30
0.0
 10
207.1441
 20
267.797
 30
0.0
 10
207.2405
 20
267.6359
 30
0.0
 10
207.324
 20
267.4584
 30
0.0
 10
207.3981
 20
267.2632
 30
0.0
 10
207.4969
 20
267.0033
 30
0.0
 10
207.5745
 20
266.7081
 30
0.0
 10
207.6321
 20
266.3789
 30
0.0
 10
207.6897
 20
266.0496
 30
0.0
 10
207.718
 20
265.7497
 30
0.0
 10
207.718
 20
265.4781
 30
0.0
  0
SPLINE
  5
6F
330
1F
100
AcDbEntity
  8
Layer 1
 62
   250
370
     9
100
AcDbSpline
210
0.0
220
0.0
230
1.0
 70
    11
 71
     3
 72
    83
 73
    79
 74
     0
 42
0.0000000001
 43
0.0000000001
 40
0.0
 40
0.0
 40
0.0
 40
0.0
 40
0.0384615384615385
 40
0.0384615384615385
 40
0.0384615384615385
 40
0.0769230769230769
 40
0.0769230769230769
 40
0.0769230769230769
 40
0.1153846153846154
 40
0.1153846153846154
 40
0.1153846153846154
 40
0.1538461538461539
 40
0.1538461538461539
 40
0.1538461538461539
 40
0.1923076923076923
 40
0.1923076923076923
 40
0.1923076923076923
 40
0.2307692307692308
 40
0.2307692307692308
 40
0.2307692307692308
 40
0.2692307692307693
 40
0.2692307692307693
 40
0.2692307692307693
 40
0.3076923076923077
 40
0.3076923076923077
 40
0.3076923076923077
 40
0.3461538461538461
 40
0.3461538461538461
 40
0.3461538461538461
 40
0.3846153846153846
 40
0.3846153846153846
 40
0.3846153846153846
 40
0.4230769230769231
 40
0.4230769230769231
 40
0.4230769230769231
 40
0.4615384615384616
 40
0.4615384615384616
 40
0.4615384615384616
 40
0.5
 40
0.5
 40
0.5
 40
0.5384615384615385
 40
0.5384615384615385
 40
0.5384615384615385
 40
0.576923076923077
 40
0.576923076923077
 40
0.576923076923077
 40
0.6153846153846154
 40
0.6153846153846154
 40
0.6153846153846154
 40
0.6538461538461539
 40
0.6538461538461539
 40
0.6538461538461539
 40
0.6923076923076923
 40
0.6923076923076923
 40
0.6923076923076923
 40
0.7307692307692308
 40
0.7307692307692308
 40
0.7307692307692308
 40
0.7692307692307693
 40
0.7692307692307693
 40
0.7692307692307693
 40
0.8076923076923077
 40
0.8076923076923077
 40
0.8076923076923077
 40
0.8461538461538463
 40
0.8461538461538463
 40
0.8461538461538463
 40
0.8846153846153847
 40
0.8846153846153847
 40
0.8846153846153847
 40
0.9230769230769231
 40
0.9230769230769231
 40
0.9230769230769231
 40
0.9615384615384616
 40
0.9615384615384616
 40
0.9615384615384616
 40
1.0
 40
1.0
 40
1.0
 40
1.0
 10
211.1294
 20
265.2711
 30
0.0
 10
211.0259
 20
265.0924
 30
0.0
 10
210.953
 20
264.9736
 30
0.0
 10
210.9095
 20
264.9172
 30
0.0
 10
210.7672
 20
264.7231
 30
0.0
 10
210.6308
 20
264.6267
 30
0.0
 10
210.5026
 20
264.6267
 30
0.0
 10
210.3674
 20
264.6267
 30
0.0
 10
210.2345
 20
264.6408
 30
0.0
 10
210.1051
 20
264.6691
 30
0.0
 10
209.9746
 20
264.6961
 30
0.0
 10
209.8547
 20
264.7314
 30
0.0
 10
209.7441
 20
264.7749
 30
0.0
 10
209.5866
 20
264.8419
 30
0.0
 10
209.4584
 20
264.9184
 30
0.0
 10
209.3608
 20
265.0065
 30
0.0
 10
209.2632
 20
265.0936
 30
0.0
 10
209.2138
 20
265.1771
 30
0.0
 10
209.2138
 20
265.2582
 30
0.0
 10
209.2138
 20
265.4252
 30
0.0
 10
209.2796
 20
265.6122
 30
0.0
 10
209.4102
 20
265.8191
 30
0.0
 10
209.5042
 20
265.9661
 30
0.0
 10
209.6218
 20
266.1143
 30
0.0
 10
209.7618
 20
266.2636
 30
0.0
 10
209.8947
 20
266.4012
 30
0.0
 10
209.8535
 20
266.4706
 30
0.0
 10
209.6383
 20
266.4706
 30
0.0
 10
209.6842
 20
266.4518
 30
0.0
 10
209.6606
 20
266.4659
 30
0.0
 10
209.5689
 20
266.5117
 30
0.0
 10
209.2702
 20
266.6564
 30
0.0
 10
209.1209
 20
266.7857
 30
0.0
 10
209.1209
 20
266.901
 30
0.0
 10
209.1209
 20
267.0962
 30
0.0
 10
209.2302
 20
267.3208
 30
0.0
 10
209.4478
 20
267.576
 30
0.0
 10
209.6759
 20
267.8405
 30
0.0
 10
210.0264
 20
268.1028
 30
0.0
 10
210.4991
 20
268.3615
 30
0.0
 10
210.4991
 20
268.3615
 30
0.0
 10
210.2169
 20
267.5865
 30
0.0
 10
210.2169
 20
267.5865
 30
0.0
 10
210.0652
 20
267.5407
 30
0.0
 10
209.9193
 20
267.476
 30
0.0
 10
209.7806
 20
267.3925
 30
0.0
 10
209.6418
 20
267.3078
 30
0.0
 10
209.5724
 20
267.2526
 30
0.0
 10
209.5724
 20
267.2244
 30
0.0
 10
209.5724
 20
267.2044
 30
0.0
 10
209.7241
 20
267.1291
 30
0.0
 10
210.0275
 20
267.0009
 30
0.0
 10
210.3297
 20
266.8728
 30
0.0
 10
210.4814
 20
266.7634
 30
0.0
 10
210.4814
 20
266.674
 30
0.0
 10
210.4814
 20
266.6364
 30
0.0
 10
210.4591
 20
266.5741
 30
0.0
 10
210.4144
 20
266.4859
 30
0.0
 10
210.3697
 20
266.3977
 30
0.0
 10
210.3274
 20
266.3342
 30
0.0
 10
210.2886
 20
266.2942
 30
0.0
 10
210.1651
 20
266.166
 30
0.0
 10
210.0416
 20
266.039
 30
0.0
 10
209.9205
 20
265.912
 30
0.0
 10
209.7888
 20
265.7697
 30
0.0
 10
209.7241
 20
265.6792
 30
0.0
 10
209.7241
 20
265.6404
 30
0.0
 10
209.7241
 20
265.6016
 30
0.0
 10
209.7453
 20
265.5581
 30
0.0
 10
209.79
 20
265.5122
 30
0.0
 10
209.8605
 20
265.4369
 30
0.0
 10
209.9723
 20
265.3793
 30
0.0
 10
210.124
 20
265.3405
 30
0.0
 10
210.2039
 20
265.3193
 30
0.0
 10
210.325
 20
265.3029
 30
0.0
 10
210.485
 20
265.2899
 30
0.0
 10
210.6461
 20
265.2782
 30
0.0
 10
210.8613
 20
265.2711
 30
0.0
 10
211.1294
 20
265.2711
 30
0.0
  0
SPLINE
  5
70
330
1F
100
AcDbEntity
  8
Layer 1
 62
   250
370
     9
100
AcDbSpline
210
0.0
220
0.0
230
1.0
 70
    11
 71
     3
 72
    89
 73
    85
 74
     0
 42
0.0000000001
 43
0.0000000001
 40
0.0
 40
0.0
 40
0.0
 40
0.0
 40
0.0357142857142857
 40
0.0357142857142857
 40
0.0357142857142857
 40
0.0714285714285714
 40
0.0714285714285714
 40
0.0714285714285714
 40
0.1071428571428571
 40
0.1071428571428571
 40
0.1071428571428571
 40
0.1428571428571428
 40
0.1428571428571428
 40
0.1428571428571428
 40
0.1785714285714285
 40
0.1785714285714285
 40
0.1785714285714285
 40
0.2142857142857143
 40
0.2142857142857143
 40
0.2142857142857143
 40
0.25
 40
0.25
 40
0.25
 40
0.2857142857142857
 40
0.2857142857142857
 40
0.2857142857142857
 40
0.3214285714285714
 40
0.3214285714285714
 40
0.3214285714285714
 40
0.3571428571428571
 40
0.3571428571428571
 40
0.3571428571428571
 40
0.3928571428571428
 40
0.3928571428571428
 40
0.3928571428571428
 40
0.4285714285714285
 40
0.4285714285714285
 40
0.4285714285714285
 40
0.4642857142857142
 40
0.4642857142857142
 40
0.4642857142857142
 40
0.5
 40
0.5
 40
0.5
 40
0.5357142857142857
 40
0.5357142857142857
 40
0.5357142857142857
 40
0.5714285714285714
 40
0.5714285714285714
 40
0.5714285714285714
 40
0.6071428571428571
 40
0.6071428571428571
 40
0.6071428571428571
 40
0.6428571428571428
 40
0.6428571428571428
 40
0.6428571428571428
 40
0.6785714285714285
 40
0.6785714285714285
 40
0.6785714285714285
 40
0.7142857142857142
 40
0.7142857142857142
 40
0.7142857142857142
 40
0.75
 40
0.75
 40
0.75
 40
0.7857142857142857
 40
0.7857142857142857
 40
0.7857142857142857
 40
0.8214285714285714
 40
0.8214285714285714
 40
0.8214285714285714
 40
0.8571428571428571
 40
0.8571428571428571
 40
0.8571428571428571
 40
0.8928571428571428
 40
0.8928571428571428
 40
0.8928571428571428
 40
0.9285714285714285
 40
0.9285714285714285
 40
0.9285714285714285
 40
0.9642857142857142
 40
0.9642857142857142
 40
0.9642857142857142
 40
1.0
 40
1.0
 40
1.0
 40
1.0
 10
213.7106
 20
267.7488
 30
0.0
 10
213.8823
 20
267.7488
 30
0.0
 10
213.9917
 20
267.904
 30
0.0
 10
214.0375
 20
268.2133
 30
0.0
 10
214.0375
 20
268.2133
 30
0.0
 10
214.2692
 20
268.2133
 30
0.0
 10
214.2692
 20
268.2133
 30
0.0
 10
214.2692
 20
267.4666
 30
0.0
 10
214.0269
 20
267.0938
 30
0.0
 10
213.5448
 20
267.0938
 30
0.0
 10
213.4695
 20
267.0938
 30
0.0
 10
213.3978
 20
267.1173
 30
0.0
 10
213.3296
 20
267.1644
 30
0.0
 10
213.2626
 20
267.2114
 30
0.0
 10
213.2473
 20
267.202
 30
0.0
 10
213.2873
 20
267.135
 30
0.0
 10
213.2896
 20
267.1467
 30
0.0
 10
213.2438
 20
267.115
 30
0.0
 10
213.1485
 20
267.0386
 30
0.0
 10
213.0638
 20
266.968
 30
0.0
 10
212.978
 20
266.9315
 30
0.0
 10
212.891
 20
266.9315
 30
0.0
 10
212.8792
 20
266.9315
 30
0.0
 10
212.8651
 20
266.9315
 30
0.0
 10
212.8475
 20
266.9304
 30
0.0
 10
212.8298
 20
266.9292
 30
0.0
 10
212.8098
 20
266.928
 30
0.0
 10
212.7875
 20
266.928
 30
0.0
 10
212.7463
 20
266.928
 30
0.0
 10
212.7052
 20
266.9327
 30
0.0
 10
212.6652
 20
266.941
 30
0.0
 10
212.6252
 20
266.9492
 30
0.0
 10
212.6593
 20
266.9139
 30
0.0
 10
212.7699
 20
266.8351
 30
0.0
 10
212.8004
 20
266.7305
 30
0.0
 10
212.8381
 20
266.5341
 30
0.0
 10
212.8851
 20
266.246
 30
0.0
 10
212.9321
 20
265.9591
 30
0.0
 10
212.9557
 20
265.7027
 30
0.0
 10
212.9557
 20
265.4781
 30
0.0
 10
212.9557
 20
265.2876
 30
0.0
 10
212.9286
 20
264.9854
 30
0.0
 10
212.8733
 20
264.5726
 30
0.0
 10
212.8733
 20
264.5726
 30
0.0
 10
212.6111
 20
264.5726
 30
0.0
 10
212.6111
 20
264.5726
 30
0.0
 10
212.6111
 20
264.9395
 30
0.0
 10
212.597
 20
265.2217
 30
0.0
 10
212.5688
 20
265.4181
 30
0.0
 10
212.5394
 20
265.6145
 30
0.0
 10
212.4935
 20
265.825
 30
0.0
 10
212.4288
 20
266.0496
 30
0.0
 10
212.3583
 20
266.2977
 30
0.0
 10
212.2748
 20
266.5341
 30
0.0
 10
212.1807
 20
266.7563
 30
0.0
 10
212.1349
 20
266.8598
 30
0.0
 10
212.0855
 20
266.9539
 30
0.0
 10
212.0325
 20
267.0386
 30
0.0
 10
211.9573
 20
267.1656
 30
0.0
 10
211.8562
 20
267.302
 30
0.0
 10
211.7292
 20
267.449
 30
0.0
 10
211.7292
 20
267.449
 30
0.0
 10
211.9643
 20
268.3862
 30
0.0
 10
211.9643
 20
268.3862
 30
0.0
 10
212.1643
 20
268.1192
 30
0.0
 10
212.3018
 20
267.9405
 30
0.0
 10
212.3771
 20
267.8488
 30
0.0
 10
212.5088
 20
267.6971
 30
0.0
 10
212.6287
 20
267.6206
 30
0.0
 10
212.7393
 20
267.6206
 30
0.0
 10
212.8651
 20
267.6206
 30
0.0
 10
212.958
 20
267.6571
 30
0.0
 10
213.018
 20
267.7277
 30
0.0
 10
213.0756
 20
267.797
 30
0.0
 10
213.1273
 20
267.9476
 30
0.0
 10
213.1732
 20
268.1792
 30
0.0
 10
213.1732
 20
268.1792
 30
0.0
 10
213.3872
 20
268.1792
 30
0.0
 10
213.3872
 20
268.1792
 30
0.0
 10
213.419
 20
267.9958
 30
0.0
 10
213.4578
 20
267.8782
 30
0.0
 10
213.5036
 20
267.8264
 30
0.0
 10
213.5495
 20
267.7747
 30
0.0
 10
213.6189
 20
267.7488
 30
0.0
 10
213.7106
 20
267.7488
 30
0.0
  0
SPLINE
  5
71
330
1F
100
AcDbEntity
  8
Layer 1
 62
   250
370
     9
100
AcDbSpline
210
0.0
220
0.0
230
1.0
 70
    11
 71
     3
 72
    65
 73
    61
 74
     0
 42
0.0000000001
 43
0.0000000001
 40
0.0
 40
0.0
 40
0.0
 40
0.0
 40
0.05
 40
0.05
 40
0.05
 40
0.1
 40
0.1
 40
0.1
 40
0.15
 40
0.15
 40
0.15
 40
0.2
 40
0.2
 40
0.2
 40
0.25
 40
0.25
 40
0.25
 40
0.3
 40
0.3
 40
0.3
 40
0.35
 40
0.35
 40
0.35
 40
0.4
 40
0.4
 40
0.4
 40
0.45
 40
0.45
 40
0.45
 40
0.5
 40
0.5
 40
0.5
 40
0.55
 40
0.55
 40
0.55
 40
0.6000000000000001
 40
0.6000000000000001
 40
0.6000000000000001
 40
0.65
 40
0.65
 40
0.65
 40
0.7000000000000001
 40
0.7000000000000001
 40
0.7000000000000001
 40
0.75
 40
0.75
 40
0.75
 40
0.8
 40
0.8
 40
0.8
 40
0.8500000000000001
 40
0.8500000000000001
 40
0.8500000000000001
 40
0.9
 40
0.9
 40
0.9
 40
0.9500000000000001
 40
0.9500000000000001
 40
0.9500000000000001
 40
1.0
 40
1.0
 40
1.0
 40
1.0
 10
216.0778
 20
267.5724
 30
0.0
 10
216.2507
 20
267.5724
 30
0.0
 10
216.4071
 20
267.6124
 30
0.0
 10
216.5494
 20
267.69
 30
0.0
 10
216.7128
 20
267.7794
 30
0.0
 10
216.8128
 20
267.9193
 30
0.0
 10
216.8492
 20
268.1098
 30
0.0
 10
216.8492
 20
268.1098
 30
0.0
 10
217.0773
 20
268.1098
 30
0.0
 10
217.0773
 20
268.1098
 30
0.0
 10
217.0773
 20
267.6877
 30
0.0
 10
216.968
 20
267.3761
 30
0.0
 10
216.7493
 20
267.1761
 30
0.0
 10
216.5705
 20
267.0115
 30
0.0
 10
216.353
 20
266.928
 30
0.0
 10
216.099
 20
266.928
 30
0.0
 10
216.099
 20
266.928
 30
0.0
 10
216.0472
 20
266.928
 30
0.0
 10
216.0472
 20
266.928
 30
0.0
 10
215.9731
 20
266.928
 30
0.0
 10
215.9132
 20
266.9304
 30
0.0
 10
215.8661
 20
266.9351
 30
0.0
 10
215.8191
 20
266.9398
 30
0.0
 10
215.8497
 20
266.8986
 30
0.0
 10
215.9579
 20
266.8116
 30
0.0
 10
215.9802
 20
266.7316
 30
0.0
 10
216.0143
 20
266.5458
 30
0.0
 10
216.059
 20
266.2554
 30
0.0
 10
216.1037
 20
265.9649
 30
0.0
 10
216.126
 20
265.7051
 30
0.0
 10
216.126
 20
265.4781
 30
0.0
 10
216.126
 20
265.2876
 30
0.0
 10
216.099
 20
264.9854
 30
0.0
 10
216.0437
 20
264.5726
 30
0.0
 10
216.0437
 20
264.5726
 30
0.0
 10
215.7815
 20
264.5726
 30
0.0
 10
215.7815
 20
264.5726
 30
0.0
 10
215.7815
 20
264.9395
 30
0.0
 10
215.7674
 20
265.2217
 30
0.0
 10
215.7391
 20
265.4181
 30
0.0
 10
215.7097
 20
265.6145
 30
0.0
 10
215.6639
 20
265.825
 30
0.0
 10
215.5992
 20
266.0496
 30
0.0
 10
215.5275
 20
266.2977
 30
0.0
 10
215.4452
 20
266.5341
 30
0.0
 10
215.3511
 20
266.7563
 30
0.0
 10
215.3052
 20
266.8598
 30
0.0
 10
215.2558
 20
266.9539
 30
0.0
 10
215.2029
 20
267.0386
 30
0.0
 10
215.1277
 20
267.1656
 30
0.0
 10
215.0265
 20
267.302
 30
0.0
 10
214.8995
 20
267.449
 30
0.0
 10
214.8995
 20
267.449
 30
0.0
 10
215.13
 20
268.3756
 30
0.0
 10
215.13
 20
268.3756
 30
0.0
 10
215.3464
 20
268.1087
 30
0.0
 10
215.5216
 20
267.8911
 30
0.0
 10
215.658
 20
267.7206
 30
0.0
 10
215.7768
 20
267.6218
 30
0.0
 10
215.9167
 20
267.5724
 30
0.0
 10
216.0778
 20
267.5724
 30
0.0
  0
SPLINE
  5
72
330
1F
100
AcDbEntity
  8
Layer 1
 62
   250
370
     9
100
AcDbSpline
210
0.0
220
0.0
230
1.0
 70
    11
 71
     3
 72
    89
 73
    85
 74
     0
 42
0.0000000001
 43
0.0000000001
 40
0.0
 40
0.0
 40
0.0
 40
0.0
 40
0.0357142857142857
 40
0.0357142857142857
 40
0.0357142857142857
 40
0.0714285714285714
 40
0.0714285714285714
 40
0.0714285714285714
 40
0.1071428571428571
 40
0.1071428571428571
 40
0.1071428571428571
 40
0.1428571428571428
 40
0.1428571428571428
 40
0.1428571428571428
 40
0.1785714285714285
 40
0.1785714285714285
 40
0.1785714285714285
 40
0.2142857142857143
 40
0.2142857142857143
 40
0.2142857142857143
 40
0.25
 40
0.25
 40
0.25
 40
0.2857142857142857
 40
0.2857142857142857
 40
0.2857142857142857
 40
0.3214285714285714
 40
0.3214285714285714
 40
0.3214285714285714
 40
0.3571428571428571
 40
0.3571428571428571
 40
0.3571428571428571
 40
0.3928571428571428
 40
0.3928571428571428
 40
0.3928571428571428
 40
0.4285714285714285
 40
0.4285714285714285
 40
0.4285714285714285
 40
0.4642857142857142
 40
0.4642857142857142
 40
0.4642857142857142
 40
0.5
 40
0.5
 40
0.5
 40
0.5357142857142857
 40
0.5357142857142857
 40
0.5357142857142857
 40
0.5714285714285714
 40
0.5714285714285714
 40
0.5714285714285714
 40
0.6071428571428571
 40
0.6071428571428571
 40
0.6071428571428571
 40
0.6428571428571428
 40
0.6428571428571428
 40
0.6428571428571428
 40
0.6785714285714285
 40
0.6785714285714285
 40
0.6785714285714285
 40
0.7142857142857142
 40
0.7142857142857142
 40
0.7142857142857142
 40
0.75
 40
0.75
 40
0.75
 40
0.7857142857142857
 40
0.7857142857142857
 40
0.7857142857142857
 40
0.8214285714285714
 40
0.8214285714285714
 40
0.8214285714285714
 40
0.8571428571428571
 40
0.8571428571428571
 40
0.8571428571428571
 40
0.8928571428571428
 40
0.8928571428571428
 40
0.8928571428571428
 40
0.9285714285714285
 40
0.9285714285714285
 40
0.9285714285714285
 40
0.9642857142857142
 40
0.9642857142857142
 40
0.9642857142857142
 40
1.0
 40
1.0
 40
1.0
 40
1.0
 10
219.6374
 20
267.7488
 30
0.0
 10
219.8091
 20
267.7488
 30
0.0
 10
219.9185
 20
267.904
 30
0.0
 10
219.9643
 20
268.2133
 30
0.0
 10
219.9643
 20
268.2133
 30
0.0
 10
220.196
 20
268.2133
 30
0.0
 10
220.196
 20
268.2133
 30
0.0
 10
220.196
 20
267.4666
 30
0.0
 10
219.9537
 20
267.0938
 30
0.0
 10
219.4716
 20
267.0938
 30
0.0
 10
219.3963
 20
267.0938
 30
0.0
 10
219.3246
 20
267.1173
 30
0.0
 10
219.2564
 20
267.1644
 30
0.0
 10
219.1894
 20
267.2114
 30
0.0
 10
219.1741
 20
267.202
 30
0.0
 10
219.2141
 20
267.135
 30
0.0
 10
219.2164
 20
267.1467
 30
0.0
 10
219.1706
 20
267.115
 30
0.0
 10
219.0753
 20
267.0386
 30
0.0
 10
218.9906
 20
266.968
 30
0.0
 10
218.9048
 20
266.9315
 30
0.0
 10
218.8178
 20
266.9315
 30
0.0
 10
218.806
 20
266.9315
 30
0.0
 10
218.7919
 20
266.9315
 30
0.0
 10
218.7743
 20
266.9304
 30
0.0
 10
218.7566
 20
266.9292
 30
0.0
 10
218.7366
 20
266.928
 30
0.0
 10
218.7143
 20
266.928
 30
0.0
 10
218.6731
 20
266.928
 30
0.0
 10
218.632
 20
266.9327
 30
0.0
 10
218.592
 20
266.941
 30
0.0
 10
218.552
 20
266.9492
 30
0.0
 10
218.5861
 20
266.9139
 30
0.0
 10
218.6967
 20
266.8351
 30
0.0
 10
218.7272
 20
266.7305
 30
0.0
 10
218.7649
 20
266.5341
 30
0.0
 10
218.8119
 20
266.246
 30
0.0
 10
218.8589
 20
265.9591
 30
0.0
 10
218.8825
 20
265.7027
 30
0.0
 10
218.8825
 20
265.4781
 30
0.0
 10
218.8825
 20
265.2876
 30
0.0
 10
218.8554
 20
264.9854
 30
0.0
 10
218.8001
 20
264.5726
 30
0.0
 10
218.8001
 20
264.5726
 30
0.0
 10
218.5379
 20
264.5726
 30
0.0
 10
218.5379
 20
264.5726
 30
0.0
 10
218.5379
 20
264.9395
 30
0.0
 10
218.5238
 20
265.2217
 30
0.0
 10
218.4956
 20
265.4181
 30
0.0
 10
218.4662
 20
265.6145
 30
0.0
 10
218.4203
 20
265.825
 30
0.0
 10
218.3556
 20
266.0496
 30
0.0
 10
218.2851
 20
266.2977
 30
0.0
 10
218.2016
 20
266.5341
 30
0.0
 10
218.1075
 20
266.7563
 30
0.0
 10
218.0617
 20
266.8598
 30
0.0
 10
218.0123
 20
266.9539
 30
0.0
 10
217.9593
 20
267.0386
 30
0.0
 10
217.8841
 20
267.1656
 30
0.0
 10
217.783
 20
267.302
 30
0.0
 10
217.656
 20
267.449
 30
0.0
 10
217.656
 20
267.449
 30
0.0
 10
217.8911
 20
268.3862
 30
0.0
 10
217.8911
 20
268.3862
 30
0.0
 10
218.0911
 20
268.1192
 30
0.0
 10
218.2286
 20
267.9405
 30
0.0
 10
218.3039
 20
267.8488
 30
0.0
 10
218.4356
 20
267.6971
 30
0.0
 10
218.5555
 20
267.6206
 30
0.0
 10
218.6661
 20
267.6206
 30
0.0
 10
218.7919
 20
267.6206
 30
0.0
 10
218.8848
 20
267.6571
 30
0.0
 10
218.9448
 20
267.7277
 30
0.0
 10
219.0024
 20
267.797
 30
0.0
 10
219.0541
 20
267.9476
 30
0.0
 10
219.1
 20
268.1792
 30
0.0
 10
219.1
 20
268.1792
 30
0.0
 10
219.314
 20
268.1792
 30
0.0
 10
219.314
 20
268.1792
 30
0.0
 10
219.3458
 20
267.9958
 30
0.0
 10
219.3846
 20
267.8782
 30
0.0
 10
219.4304
 20
267.8264
 30
0.0
 10
219.4763
 20
267.7747
 30
0.0
 10
219.5457
 20
267.7488
 30
0.0
 10
219.6374
 20
267.7488
 30
0.0
  0
SPLINE
  5
73
330
1F
100
AcDbEntity
  8
Layer 1
 62
   250
370
     9
100
AcDbSpline
210
0.0
220
0.0
230
1.0
 70
    11
 71
     3
 72
    62
 73
    58
 74
     0
 42
0.0000000001
 43
0.0000000001
 40
0.0
 40
0.0
 40
0.0
 40
0.0
 40
0.0526315789473684
 40
0.0526315789473684
 40
0.0526315789473684
 40
0.1052631578947368
 40
0.1052631578947368
 40
0.1052631578947368
 40
0.1578947368421053
 40
0.1578947368421053
 40
0.1578947368421053
 40
0.2105263157894737
 40
0.2105263157894737
 40
0.2105263157894737
 40
0.2631578947368421
 40
0.2631578947368421
 40
0.2631578947368421
 40
0.3157894736842105
 40
0.3157894736842105
 40
0.3157894736842105
 40
0.3684210526315789
 40
0.3684210526315789
 40
0.3684210526315789
 40
0.4210526315789473
 40
0.4210526315789473
 40
0.4210526315789473
 40
0.4736842105263158
 40
0.4736842105263158
 40
0.4736842105263158
 40
0.5263157894736842
 40
0.5263157894736842
 40
0.5263157894736842
 40
0.5789473684210527
 40
0.5789473684210527
 40
0.5789473684210527
 40
0.631578947368421
 40
0.631578947368421
 40
0.631578947368421
 40
0.6842105263157894
 40
0.6842105263157894
 40
0.6842105263157894
 40
0.7368421052631579
 40
0.7368421052631579
 40
0.7368421052631579
 40
0.7894736842105263
 40
0.7894736842105263
 40
0.7894736842105263
 40
0.8421052631578947
 40
0.8421052631578947
 40
0.8421052631578947
 40
0.894736842105263
 40
0.894736842105263
 40
0.894736842105263
 40
0.9473684210526315
 40
0.9473684210526315
 40
0.9473684210526315
 40
1.0
 40
1.0
 40
1.0
 40
1.0
 10
220.5229
 20
265.3193
 30
0.0
 10
220.6452
 20
265.3887
 30
0.0
 10
220.7616
 20
265.5216
 30
0.0
 10
220.8745
 20
265.7192
 30
0.0
 10
220.9616
 20
265.8685
 30
0.0
 10
221.065
 20
266.0872
 30
0.0
 10
221.185
 20
266.3742
 30
0.0
 10
221.2426
 20
266.5094
 30
0.0
 10
221.2955
 20
266.6881
 30
0.0
 10
221.3437
 20
266.9116
 30
0.0
 10
221.3755
 20
267.0703
 30
0.0
 10
221.4108
 20
267.2808
 30
0.0
 10
221.4496
 20
267.5454
 30
0.0
 10
221.4801
 20
267.7524
 30
0.0
 10
221.5119
 20
267.9922
 30
0.0
 10
221.546
 20
268.2651
 30
0.0
 10
221.546
 20
268.2651
 30
0.0
 10
221.8388
 20
268.2651
 30
0.0
 10
221.8388
 20
268.2651
 30
0.0
 10
221.8811
 20
267.9346
 30
0.0
 10
221.9505
 20
267.5983
 30
0.0
 10
222.0493
 20
267.2573
 30
0.0
 10
222.1481
 20
266.9163
 30
0.0
 10
222.2563
 20
266.6246
 30
0.0
 10
222.3738
 20
266.3812
 30
0.0
 10
222.4832
 20
266.1484
 30
0.0
 10
222.6149
 20
265.9461
 30
0.0
 10
222.7666
 20
265.7744
 30
0.0
 10
222.9018
 20
265.6157
 30
0.0
 10
223.0488
 20
265.4993
 30
0.0
 10
223.2076
 20
265.4228
 30
0.0
 10
223.2076
 20
265.4228
 30
0.0
 10
223.0559
 20
264.5926
 30
0.0
 10
223.0559
 20
264.5926
 30
0.0
 10
222.8466
 20
264.6749
 30
0.0
 10
222.6819
 20
264.7866
 30
0.0
 10
222.5608
 20
264.9266
 30
0.0
 10
222.4409
 20
265.0665
 30
0.0
 10
222.3209
 20
265.2476
 30
0.0
 10
222.201
 20
265.4675
 30
0.0
 10
222.1187
 20
265.6216
 30
0.0
 10
222.0434
 20
265.7968
 30
0.0
 10
221.9776
 20
265.992
 30
0.0
 10
221.927
 20
266.1437
 30
0.0
 10
221.8658
 20
266.3542
 30
0.0
 10
221.7941
 20
266.6258
 30
0.0
 10
221.74
 20
266.8281
 30
0.0
 10
221.7165
 20
266.9127
 30
0.0
 10
221.7259
 20
266.8798
 30
0.0
 10
221.6848
 20
266.4988
 30
0.0
 10
221.5542
 20
266.052
 30
0.0
 10
221.3367
 20
265.5404
 30
0.0
 10
221.1297
 20
265.0559
 30
0.0
 10
220.8592
 20
264.7349
 30
0.0
 10
220.5229
 20
264.5785
 30
0.0
 10
220.5229
 20
264.5785
 30
0.0
 10
220.5229
 20
265.3193
 30
0.0
 10
220.5229
 20
265.3193
 30
0.0
  0
SPLINE
  5
74
330
1F
100
AcDbEntity
  8
Layer 1
 62
   250
370
     9
100
AcDbSpline
210
0.0
220
0.0
230
1.0
 70
    11
 71
     3
 72
    29
 73
    25
 74
     0
 42
0.0000000001
 43
0.0000000001
 40
0.0
 40
0.0
 40
0.0
 40
0.0
 40
0.125
 40
0.125
 40
0.125
 40
0.25
 40
0.25
 40
0.25
 40
0.375
 40
0.375
 40
0.375
 40
0.5
 40
0.5
 40
0.5
 40
0.625
 40
0.625
 40
0.625
 40
0.75
 40
0.75
 40
0.75
 40
0.875
 40
0.875
 40
0.875
 40
1.0
 40
1.0
 40
1.0
 40
1.0
 10
225.1891
 20
265.3546
 30
0.0
 10
225.0162
 20
265.444
 30
0.0
 10
224.8598
 20
265.5439
 30
0.0
 10
224.7199
 20
265.6545
 30
0.0
 10
224.6035
 20
265.7439
 30
0.0
 10
224.4859
 20
265.845
 30
0.0
 10
224.3683
 20
265.9567
 30
0.0
 10
224.3918
 20
266.0555
 30
0.0
 10
224.4341
 20
266.1884
 30
0.0
 10
224.4976
 20
266.3553
 30
0.0
 10
224.5611
 20
266.5211
 30
0.0
 10
224.6364
 20
266.6823
 30
0.0
 10
224.7234
 20
266.8351
 30
0.0
 10
224.8539
 20
266.6999
 30
0.0
 10
224.9892
 20
266.5799
 30
0.0
 10
225.1279
 20
266.4753
 30
0.0
 10
225.2679
 20
266.3706
 30
0.0
 10
225.3984
 20
266.286
 30
0.0
 10
225.523
 20
266.2189
 30
0.0
 10
225.4678
 20
266.1202
 30
0.0
 10
225.409
 20
265.9861
 30
0.0
 10
225.3455
 20
265.8156
 30
0.0
 10
225.282
 20
265.6463
 30
0.0
 10
225.2302
 20
265.4922
 30
0.0
 10
225.1891
 20
265.3546
 30
0.0
  0
SPLINE
  5
75
330
1F
100
AcDbEntity
  8
Layer 1
 62
   250
370
     9
100
AcDbSpline
210
0.0
220
0.0
230
1.0
 70
    11
 71
     3
 72
    65
 73
    61
 74
     0
 42
0.0000000001
 43
0.0000000001
 40
0.0
 40
0.0
 40
0.0
 40
0.0
 40
0.05
 40
0.05
 40
0.05
 40
0.1
 40
0.1
 40
0.1
 40
0.15
 40
0.15
 40
0.15
 40
0.2
 40
0.2
 40
0.2
 40
0.25
 40
0.25
 40
0.25
 40
0.3
 40
0.3
 40
0.3
 40
0.35
 40
0.35
 40
0.35
 40
0.4
 40
0.4
 40
0.4
 40
0.45
 40
0.45
 40
0.45
 40
0.5
 40
0.5
 40
0.5
 40
0.55
 40
0.55
 40
0.55
 40
0.6000000000000001
 40
0.6000000000000001
 40
0.6000000000000001
 40
0.65
 40
0.65
 40
0.65
 40
0.7000000000000001
 40
0.7000000000000001
 40
0.7000000000000001
 40
0.75
 40
0.75
 40
0.75
 40
0.8
 40
0.8
 40
0.8
 40
0.8500000000000001
 40
0.8500000000000001
 40
0.8500000000000001
 40
0.9
 40
0.9
 40
0.9
 40
0.9500000000000001
 40
0.9500000000000001
 40
0.9500000000000001
 40
1.0
 40
1.0
 40
1.0
 40
1.0
 10
227.9314
 20
267.5724
 30
0.0
 10
228.1043
 20
267.5724
 30
0.0
 10
228.2607
 20
267.6124
 30
0.0
 10
228.403
 20
267.69
 30
0.0
 10
228.5664
 20
267.7794
 30
0.0
 10
228.6664
 20
267.9193
 30
0.0
 10
228.7028
 20
268.1098
 30
0.0
 10
228.7028
 20
268.1098
 30
0.0
 10
228.9309
 20
268.1098
 30
0.0
 10
228.9309
 20
268.1098
 30
0.0
 10
228.9309
 20
267.6877
 30
0.0
 10
228.8216
 20
267.3761
 30
0.0
 10
228.6029
 20
267.1761
 30
0.0
 10
228.4241
 20
267.0115
 30
0.0
 10
228.2066
 20
266.928
 30
0.0
 10
227.9526
 20
266.928
 30
0.0
 10
227.9526
 20
266.928
 30
0.0
 10
227.9008
 20
266.928
 30
0.0
 10
227.9008
 20
266.928
 30
0.0
 10
227.8267
 20
266.928
 30
0.0
 10
227.7668
 20
266.9304
 30
0.0
 10
227.7197
 20
266.9351
 30
0.0
 10
227.6727
 20
266.9398
 30
0.0
 10
227.7033
 20
266.8986
 30
0.0
 10
227.8115
 20
266.8116
 30
0.0
 10
227.8338
 20
266.7316
 30
0.0
 10
227.8679
 20
266.5458
 30
0.0
 10
227.9126
 20
266.2554
 30
0.0
 10
227.9573
 20
265.9649
 30
0.0
 10
227.9796
 20
265.7051
 30
0.0
 10
227.9796
 20
265.4781
 30
0.0
 10
227.9796
 20
265.2876
 30
0.0
 10
227.9526
 20
264.9854
 30
0.0
 10
227.8973
 20
264.5726
 30
0.0
 10
227.8973
 20
264.5726
 30
0.0
 10
227.6351
 20
264.5726
 30
0.0
 10
227.6351
 20
264.5726
 30
0.0
 10
227.6351
 20
264.9395
 30
0.0
 10
227.621
 20
265.2217
 30
0.0
 10
227.5927
 20
265.4181
 30
0.0
 10
227.5633
 20
265.6145
 30
0.0
 10
227.5175
 20
265.825
 30
0.0
 10
227.4528
 20
266.0496
 30
0.0
 10
227.3811
 20
266.2977
 30
0.0
 10
227.2988
 20
266.5341
 30
0.0
 10
227.2047
 20
266.7563
 30
0.0
 10
227.1588
 20
266.8598
 30
0.0
 10
227.1094
 20
266.9539
 30
0.0
 10
227.0565
 20
267.0386
 30
0.0
 10
226.9813
 20
267.1656
 30
0.0
 10
226.8801
 20
267.302
 30
0.0
 10
226.7531
 20
267.449
 30
0.0
 10
226.7531
 20
267.449
 30
0.0
 10
226.9836
 20
268.3756
 30
0.0
 10
226.9836
 20
268.3756
 30
0.0
 10
227.2
 20
268.1087
 30
0.0
 10
227.3752
 20
267.8911
 30
0.0
 10
227.5116
 20
267.7206
 30
0.0
 10
227.6304
 20
267.6218
 30
0.0
 10
227.7703
 20
267.5724
 30
0.0
 10
227.9314
 20
267.5724
 30
0.0
  0
SPLINE
  5
76
330
1F
100
AcDbEntity
  8
Layer 1
 62
   250
370
     9
100
AcDbSpline
210
0.0
220
0.0
230
1.0
 70
    11
 71
     3
 72
    89
 73
    85
 74
     0
 42
0.0000000001
 43
0.0000000001
 40
0.0
 40
0.0
 40
0.0
 40
0.0
 40
0.0357142857142857
 40
0.0357142857142857
 40
0.0357142857142857
 40
0.0714285714285714
 40
0.0714285714285714
 40
0.0714285714285714
 40
0.1071428571428571
 40
0.1071428571428571
 40
0.1071428571428571
 40
0.1428571428571428
 40
0.1428571428571428
 40
0.1428571428571428
 40
0.1785714285714285
 40
0.1785714285714285
 40
0.1785714285714285
 40
0.2142857142857143
 40
0.2142857142857143
 40
0.2142857142857143
 40
0.25
 40
0.25
 40
0.25
 40
0.2857142857142857
 40
0.2857142857142857
 40
0.2857142857142857
 40
0.3214285714285714
 40
0.3214285714285714
 40
0.3214285714285714
 40
0.3571428571428571
 40
0.3571428571428571
 40
0.3571428571428571
 40
0.3928571428571428
 40
0.3928571428571428
 40
0.3928571428571428
 40
0.4285714285714285
 40
0.4285714285714285
 40
0.4285714285714285
 40
0.4642857142857142
 40
0.4642857142857142
 40
0.4642857142857142
 40
0.5
 40
0.5
 40
0.5
 40
0.5357142857142857
 40
0.5357142857142857
 40
0.5357142857142857
 40
0.5714285714285714
 40
0.5714285714285714
 40
0.5714285714285714
 40
0.6071428571428571
 40
0.6071428571428571
 40
0.6071428571428571
 40
0.6428571428571428
 40
0.6428571428571428
 40
0.6428571428571428
 40
0.6785714285714285
 40
0.6785714285714285
 40
0.6785714285714285
 40
0.7142857142857142
 40
0.7142857142857142
 40
0.7142857142857142
 40
0.75
 40
0.75
 40
0.75
 40
0.7857142857142857
 40
0.7857142857142857
 40
0.7857142857142857
 40
0.8214285714285714
 40
0.8214285714285714
 40
0.8214285714285714
 40
0.8571428571428571
 40
0.8571428571428571
 40
0.8571428571428571
 40
0.8928571428571428
 40
0.8928571428571428
 40
0.8928571428571428
 40
0.9285714285714285
 40
0.9285714285714285
 40
0.9285714285714285
 40
0.9642857142857142
 40
0.9642857142857142
 40
0.9642857142857142
 40
1.0
 40
1.0
 40
1.0
 40
1.0
 10
231.491
 20
267.7488
 30
0.0
 10
231.6627
 20
267.7488
 30
0.0
 10
231.7721
 20
267.904
 30
0.0
 10
231.8179
 20
268.2133
 30
0.0
 10
231.8179
 20
268.2133
 30
0.0
 10
232.0496
 20
268.2133
 30
0.0
 10
232.0496
 20
268.2133
 30
0.0
 10
232.0496
 20
267.4666
 30
0.0
 10
231.8073
 20
267.0938
 30
0.0
 10
231.3252
 20
267.0938
 30
0.0
 10
231.2499
 20
267.0938
 30
0.0
 10
231.1782
 20
267.1173
 30
0.0
 10
231.11
 20
267.1644
 30
0.0
 10
231.043
 20
267.2114
 30
0.0
 10
231.0277
 20
267.202
 30
0.0
 10
231.0677
 20
267.135
 30
0.0
 10
231.07
 20
267.1467
 30
0.0
 10
231.0242
 20
267.115
 30
0.0
 10
230.9289
 20
267.0386
 30
0.0
 10
230.8442
 20
266.968
 30
0.0
 10
230.7584
 20
266.9315
 30
0.0
 10
230.6714
 20
266.9315
 30
0.0
 10
230.6596
 20
266.9315
 30
0.0
 10
230.6455
 20
266.9315
 30
0.0
 10
230.6279
 20
266.9304
 30
0.0
 10
230.6102
 20
266.9292
 30
0.0
 10
230.5902
 20
266.928
 30
0.0
 10
230.5679
 20
266.928
 30
0.0
 10
230.5267
 20
266.928
 30
0.0
 10
230.4856
 20
266.9327
 30
0.0
 10
230.4456
 20
266.941
 30
0.0
 10
230.4056
 20
266.9492
 30
0.0
 10
230.4397
 20
266.9139
 30
0.0
 10
230.5503
 20
266.8351
 30
0.0
 10
230.5808
 20
266.7305
 30
0.0
 10
230.6185
 20
266.5341
 30
0.0
 10
230.6655
 20
266.246
 30
0.0
 10
230.7125
 20
265.9591
 30
0.0
 10
230.7361
 20
265.7027
 30
0.0
 10
230.7361
 20
265.4781
 30
0.0
 10
230.7361
 20
265.2876
 30
0.0
 10
230.709
 20
264.9854
 30
0.0
 10
230.6537
 20
264.5726
 30
0.0
 10
230.6537
 20
264.5726
 30
0.0
 10
230.3915
 20
264.5726
 30
0.0
 10
230.3915
 20
264.5726
 30
0.0
 10
230.3915
 20
264.9395
 30
0.0
 10
230.3774
 20
265.2217
 30
0.0
 10
230.3492
 20
265.4181
 30
0.0
 10
230.3198
 20
265.6145
 30
0.0
 10
230.2739
 20
265.825
 30
0.0
 10
230.2092
 20
266.0496
 30
0.0
 10
230.1387
 20
266.2977
 30
0.0
 10
230.0552
 20
266.5341
 30
0.0
 10
229.9611
 20
266.7563
 30
0.0
 10
229.9153
 20
266.8598
 30
0.0
 10
229.8659
 20
266.9539
 30
0.0
 10
229.8129
 20
267.0386
 30
0.0
 10
229.7377
 20
267.1656
 30
0.0
 10
229.6366
 20
267.302
 30
0.0
 10
229.5096
 20
267.449
 30
0.0
 10
229.5096
 20
267.449
 30
0.0
 10
229.7447
 20
268.3862
 30
0.0
 10
229.7447
 20
268.3862
 30
0.0
 10
229.9447
 20
268.1192
 30
0.0
 10
230.0822
 20
267.9405
 30
0.0
 10
230.1575
 20
267.8488
 30
0.0
 10
230.2892
 20
267.6971
 30
0.0
 10
230.4091
 20
267.6206
 30
0.0
 10
230.5197
 20
267.6206
 30
0.0
 10
230.6455
 20
267.6206
 30
0.0
 10
230.7384
 20
267.6571
 30
0.0
 10
230.7984
 20
267.7277
 30
0.0
 10
230.856
 20
267.797
 30
0.0
 10
230.9077
 20
267.9476
 30
0.0
 10
230.9536
 20
268.1792
 30
0.0
 10
230.9536
 20
268.1792
 30
0.0
 10
231.1676
 20
268.1792
 30
0.0
 10
231.1676
 20
268.1792
 30
0.0
 10
231.1994
 20
267.9958
 30
0.0
 10
231.2382
 20
267.8782
 30
0.0
 10
231.284
 20
267.8264
 30
0.0
 10
231.3299
 20
267.7747
 30
0.0
 10
231.3993
 20
267.7488
 30
0.0
 10
231.491
 20
267.7488
 30
0.0
  0
ENDSEC
  0
SECTION
  2
OBJECTS
  0
DICTIONARY
  5
C
330
0
100
AcDbDictionary
281
     1
  3
ACAD_DETAILVIEWSTYLE
350
7E
  3
ACAD_GROUP
350
D
  3
ACAD_LAYOUT
350
1A
  3
ACAD_MATERIAL
350
43
  3
ACAD_MLEADERSTYLE
350
5B
  3
ACAD_MLINESTYLE
350
17
  3
ACAD_PLOTSETTINGS
350
19
  3
ACAD_PLOTSTYLENAME
350
E
  3
ACAD_SCALELIST
350
47
  3
ACAD_SECTIONVIEWSTYLE
350
7F
  3
ACAD_TABLESTYLE
350
59
  3
ACAD_VISUALSTYLE
350
2A
  3
ACDB_RECOMPOSE_DATA
350
7B
  3
AcDbVariableDictionary
350
77
  0
SUN
  5
5D
330
29
100
AcDbSun
 90
        1
290
     0
 63
     7
421
 16777215
 40
1.0
291
     1
 91
  2455826
 92
 54000000
292
     0
 70
     2
 71
   256
280
     1
  0
DICTIONARY
  5
7E
102
{ACAD_REACTORS
330
C
102
}
330
C
100
AcDbDictionary
281
     1
  0
DICTIONARY
  5
D
102
{ACAD_REACTORS
330
C
102
}
330
C
100
AcDbDictionary
281
     1
  0
DICTIONARY
  5
1A
102
{ACAD_REACTORS
330
C
102
}
330
C
100
AcDbDictionary
281
     1
  3
Layout1
350
1E
  3
Layout2
350
26
  3
Model
350
22
  0
DICTIONARY
  5
43
102
{ACAD_REACTORS
330
C
102
}
330
C
100
AcDbDictionary
281
     1
  3
ByBlock
350
45
  3
ByLayer
350
44
  3
Global
350
46
  0
DICTIONARY
  5
5B
102
{ACAD_REACTORS
330
C
102
}
330
C
100
AcDbDictionary
281
     1
  3
Standard
350
5C
  0
DICTIONARY
  5
17
102
{ACAD_REACTORS
330
C
102
}
330
C
100
AcDbDictionary
281
     1
  3
Standard
350
18
  0
DICTIONARY
  5
19
102
{ACAD_REACTORS
330
C
102
}
330
C
100
AcDbDictionary
281
     1
  0
ACDBDICTIONARYWDFLT
  5
E
102
{ACAD_REACTORS
330
C
102
}
330
C
100
AcDbDictionary
281
     1
  3
Normal
350
F
100
AcDbDictionaryWithDefault
340
F
  0
DICTIONARY
  5
47
102
{ACAD_REACTORS
330
C
102
}
330
C
100
AcDbDictionary
281
     1
  3
A0
350
48
  3
A1
350
49
  3
A2
350
4A
  3
A3
350
4B
  3
A4
350
4C
  3
A5
350
4D
  3
A6
350
4E
  3
A7
350
4F
  3
A8
350
50
  3
A9
350
51
  3
B1
350
52
  3
B2
350
53
  3
B3
350
54
  3
B4
350
55
  3
B5
350
56
  3
B6
350
57
  3
B7
350
58
  0
DICTIONARY
  5
7F
102
{ACAD_REACTORS
330
C
102
}
330
C
100
AcDbDictionary
281
     1
  0
DICTIONARY
  5
59
102
{ACAD_REACTORS
330
C
102
}
330
C
100
AcDbDictionary
281
     1
  3
Standard
350
5A
  0
DICTIONARY
  5
2A
102
{ACAD_REACTORS
330
C
102
}
330
C
100
AcDbDictionary
281
     1
  3
2dWireframe
350
2F
  3
Basic
350
32
  3
Brighten
350
36
  3
ColorChange
350
3A
  3
Conceptual
350
34
  3
Dim
350
35
  3
EdgeColorOff
350
3D
  3
Facepattern
350
39
  3
Flat
350
2B
  3
FlatWithEdges
350
2C
  3
Gouraud
350
2D
  3
GouraudWithEdges
350
2E
  3
Hidden
350
31
  3
JitterOff
350
3B
  3
Linepattern
350
38
  3
OverhangOff
350
3C
  3
Realistic
350
33
  3
Shaded
350
42
  3
Shaded with edges
350
41
  3
Shades of Gray
350
3E
  3
Sketchy
350
3F
  3
Thicken
350
37
  3
Wireframe
350
30
  3
X-Ray
350
40
  0
XRECORD
  5
7B
102
{ACAD_REACTORS
330
C
102
}
330
C
100
AcDbXrecord
280
     1
 90
        1
330
5A
  0
DICTIONARY
  5
77
102
{ACAD_REACTORS
330
C
102
}
330
C
100
AcDbDictionary
281
     1
  3
CANNOSCALE
350
78
  3
CMLEADERSTYLE
350
7D
  3
CTABLESTYLE
350
7C
  0
LAYOUT
  5
1E
102
{ACAD_REACTORS
330
1A
102
}
330
1A
100
AcDbPlotSettings
  1

  2
none_device
  4

  6

 40
0.0
 41
0.0
 42
0.0
 43
0.0
 44
0.0
 45
0.0
 46
0.0
 47
0.0
 48
0.0
 49
0.0
140
0.0
141
0.0
142
1.0
143
1.0
 70
   688
 72
     0
 73
     0
 74
     5
  7

 75
    16
 76
     0
 77
     2
 78
   300
147
1.0
148
0.0
149
0.0
100
AcDbLayout
  1
Layout1
 70
     1
 71
     1
 10
0.0
 20
0.0
 11
12.0
 21
9.0
 12
0.0
 22
0.0
 32
0.0
 14
1.000000000000000E+20
 24
1.000000000000000E+20
 34
1.000000000000000E+20
 15
-1.000000000000000E+20
 25
-1.000000000000000E+20
 35
-1.000000000000000E+20
146
0.0
 13
0.0
 23
0.0
 33
0.0
 16
1.0
 26
0.0
 36
0.0
 17
0.0
 27
1.0
 37
0.0
 76
     0
330
1B
  0
LAYOUT
  5
26
102
{ACAD_REACTORS
330
1A
102
}
330
1A
100
AcDbPlotSettings
  1

  2
none_device
  4

  6

 40
0.0
 41
0.0
 42
0.0
 43
0.0
 44
0.0
 45
0.0
 46
0.0
 47
0.0
 48
0.0
 49
0.0
140
0.0
141
0.0
142
1.0
143
1.0
 70
   688
 72
     0
 73
     0
 74
     5
  7

 75
    16
 76
     0
 77
     2
 78
   300
147
1.0
148
0.0
149
0.0
100
AcDbLayout
  1
Layout2
 70
     1
 71
     2
 10
0.0
 20
0.0
 11
0.0
 21
0.0
 12
0.0
 22
0.0
 32
0.0
 14
0.0
 24
0.0
 34
0.0
 15
0.0
 25
0.0
 35
0.0
146
0.0
 13
0.0
 23
0.0
 33
0.0
 16
1.0
 26
0.0
 36
0.0
 17
0.0
 27
1.0
 37
0.0
 76
     0
330
23
  0
LAYOUT
  5
22
102
{ACAD_REACTORS
330
1A
102
}
330
1A
100
AcDbPlotSettings
  1

  2
none_device
  4
Letter_(8.50_x_11.00_Inches)
  6

 40
6.35
 41
6.35
 42
6.35000508
 43
6.35000508
 44
215.9
 45
279.4
 46
0.0
 47
0.0
 48
0.0
 49
0.0
140
0.0
141
0.0
142
1.0
143
1.0
 70
  1712
 72
     0
 73
     0
 74
     0
  7

 75
     0
 76
     0
 77
     2
 78
   300
147
1.0
148
0.0
149
0.0
100
AcDbLayout
  1
Model
 70
     1
 71
     0
 10
0.0
 20
0.0
 11
12.0
 21
9.0
 12
0.0
 22
0.0
 32
0.0
 14
196.2671
 24
258.3188
 34
0.0
 15
236.4435
 25
298.4952
 35
0.0
146
0.0
 13
0.0
 23
0.0
 33
0.0
 16
1.0
 26
0.0
 36
0.0
 17
0.0
 27
1.0
 37
0.0
 76
     0
330
1F
331
29
  0
MATERIAL
  5
45
102
{ACAD_REACTORS
330
43
102
}
330
43
100
AcDbMaterial
  1
ByBlock
 72
     1
 94
      127
  0
MATERIAL
  5
44
102
{ACAD_REACTORS
330
43
102
}
330
43
100
AcDbMaterial
  1
ByLayer
 72
     1
 94
      127
  0
MATERIAL
  5
46
102
{ACAD_REACTORS
330
43
102
}
330
43
100
AcDbMaterial
  1
Global
 72
     1
 94
      127
  0
MLEADERSTYLE
  5
5C
102
{ACAD_REACTORS
330
5B
102
}
330
5B
100
AcDbMLeaderStyle
179
     2
170
     2
171
     1
172
     0
 90
        2
 40
0.0
 41
0.0
173
     1
 91
-1056964608
340
14
 92
       -2
290
     1
 42
0.09
291
     1
 43
0.36
  3
Standard
341
0
 44
0.18
300

342
11
174
     1
178
     6
175
     1
176
     0
 93
-1056964608
 45
0.18
292
     0
297
     0
 46
0.18
343
0
 94
-1056964608
 47
1.0
 49
1.0
140
1.0
293
     1
141
0.0
294
     1
177
     0
142
1.0
295
     0
296
     0
143
0.125
271
     0
272
     9
273
     9
298
     0
  0
MLINESTYLE
  5
18
102
{ACAD_REACTORS
330
17
102
}
330
17
100
AcDbMlineStyle
  2
Standard
 70
     0
  3

 62
   256
 51
90.0
 52
90.0
 71
     2
 49
0.5
 62
   256
  6
BYLAYER
 49
-0.5
 62
   256
  6
BYLAYER
  0
ACDBPLACEHOLDER
  5
F
102
{ACAD_REACTORS
330
E
102
}
330
E
  0
SCALE
  5
48
102
{ACAD_REACTORS
330
47
102
}
330
47
100
AcDbScale
 70
     0
300
1:1
140
1.0
141
1.0
290
     1
  0
SCALE
  5
49
102
{ACAD_REACTORS
330
47
102
}
330
47
100
AcDbScale
 70
     0
300
1/128" = 1'-0"
140
0.0078125
141
12.0
290
     0
  0
SCALE
  5
4A
102
{ACAD_REACTORS
330
47
102
}
330
47
100
AcDbScale
 70
     0
300
1/64" = 1'-0"
140
0.015625
141
12.0
290
     0
  0
SCALE
  5
4B
102
{ACAD_REACTORS
330
47
102
}
330
47
100
AcDbScale
 70
     0
300
1/32" = 1'-0"
140
0.03125
141
12.0
290
     0
  0
SCALE
  5
4C
102
{ACAD_REACTORS
330
47
102
}
330
47
100
AcDbScale
 70
     0
300
1/16" = 1'-0"
140
0.0625
141
12.0
290
     0
  0
SCALE
  5
4D
102
{ACAD_REACTORS
330
47
102
}
330
47
100
AcDbScale
 70
     0
300
3/32" = 1'-0"
140
0.09375
141
12.0
290
     0
  0
SCALE
  5
4E
102
{ACAD_REACTORS
330
47
102
}
330
47
100
AcDbScale
 70
     0
300
1/8" = 1'-0"
140
0.125
141
12.0
290
     0
  0
SCALE
  5
4F
102
{ACAD_REACTORS
330
47
102
}
330
47
100
AcDbScale
 70
     0
300
3/16" = 1'-0"
140
0.1875
141
12.0
290
     0
  0
SCALE
  5
50
102
{ACAD_REACTORS
330
47
102
}
330
47
100
AcDbScale
 70
     0
300
1/4" = 1'-0"
140
0.25
141
12.0
290
     0
  0
SCALE
  5
51
102
{ACAD_REACTORS
330
47
102
}
330
47
100
AcDbScale
 70
     0
300
3/8" = 1'-0"
140
0.375
141
12.0
290
     0
  0
SCALE
  5
52
102
{ACAD_REACTORS
330
47
102
}
330
47
100
AcDbScale
 70
     0
300
1/2" = 1'-0"
140
0.5
141
12.0
290
     0
  0
SCALE
  5
53
102
{ACAD_REACTORS
330
47
102
}
330
47
100
AcDbScale
 70
     0
300
3/4" = 1'-0"
140
0.75
141
12.0
290
     0
  0
SCALE
  5
54
102
{ACAD_REACTORS
330
47
102
}
330
47
100
AcDbScale
 70
     0
300
1" = 1'-0"
140
1.0
141
12.0
290
     0
  0
SCALE
  5
55
102
{ACAD_REACTORS
330
47
102
}
330
47
100
AcDbScale
 70
     0
300
1-1/2" = 1'-0"
140
1.5
141
12.0
290
     0
  0
SCALE
  5
56
102
{ACAD_REACTORS
330
47
102
}
330
47
100
AcDbScale
 70
     0
300
3" = 1'-0"
140
3.0
141
12.0
290
     0
  0
SCALE
  5
57
102
{ACAD_REACTORS
330
47
102
}
330
47
100
AcDbScale
 70
     0
300
6" = 1'-0"
140
6.0
141
12.0
290
     0
  0
SCALE
  5
58
102
{ACAD_REACTORS
330
47
102
}
330
47
100
AcDbScale
 70
     0
300
1'-0" = 1'-0"
140
12.0
141
12.0
290
     0
  0
TABLESTYLE
  5
5A
102
{ACAD_REACTORS
330
59
102
}
102
{ACAD_XDICTIONARY
360
79
102
}
330
59
100
AcDbTableStyle
  3
Standard
 70
     0
 71
     0
 40
0.06
 41
0.06
280
     0
281
     0
  7
Standard
140
0.18
170
     2
 62
     0
 63
   257
283
     0
 90
        4
 91
        0
  1

274
    -2
284
     1
 64
     0
275
    -2
285
     1
 65
     0
276
    -2
286
     1
 66
     0
277
    -2
287
     1
 67
     0
278
    -2
288
     1
 68
     0
279
    -2
289
     1
 69
     0
  7
Standard
140
0.25
170
     5
 62
     0
 63
   257
283
     0
 90
        4
 91
        0
  1

274
    -2
284
     1
 64
     0
275
    -2
285
     1
 65
     0
276
    -2
286
     1
 66
     0
277
    -2
287
     1
 67
     0
278
    -2
288
     1
 68
     0
279
    -2
289
     1
 69
     0
  7
Standard
140
0.18
170
     5
 62
     0
 63
   257
283
     0
 90
        4
 91
        0
  1

274
    -2
284
     1
 64
     0
275
    -2
285
     1
 65
     0
276
    -2
286
     1
 66
     0
277
    -2
287
     1
 67
     0
278
    -2
288
     1
 68
     0
279
    -2
289
     1
 69
     0
  0
VISUALSTYLE
  5
2F
102
{ACAD_REACTORS
330
2A
102
}
330
2A
100
AcDbVisualStyle
  2
2dWireframe
 70
     4
177
     3
291
     0
 70
    58
 90
        0
176
     1
 90
        2
176
     1
 90
        0
176
     1
 90
        0
176
     1
 40
0.6
176
     1
 40
30.0
176
     1
 62
     7
420
 16777215
176
     1
 90
        1
176
     1
 90
        4
176
     1
 62
     7
176
     1
 62
   257
176
     1
 90
        1
176
     1
 90
        1
176
     1
 40
1.0
176
     1
 90
        0
176
     1
 62
   257
176
     1
 40
1.0
176
     1
 90
        1
176
     1
 90
        6
176
     1
 90
        2
176
     1
 62
     7
176
     1
 90
        5
176
     1
 90
        0
176
     1
 90
        0
176
     1
290
     0
176
     1
 90
        1
176
     1
 40
0.0
176
     1
 90
        0
176
     1
290
     1
176
     1
290
     1
176
     1
290
     0
176
     1
290
     0
176
     1
290
     0
176
     1
290
     0
176
     1
290
     0
176
     1
290
     0
176
     1
290
     0
176
     1
 90
       50
176
     1
 40
0.0
176
     1
 40
1.0
176
     1
 90
        0
176
     1
 62
    18
420
        0
176
     1
 90
       50
176
     1
 90
        3
176
     1
 62
     5
420
      255
176
     1
290
     0
176
     1
 90
       50
176
     1
 90
       50
176
     1
 90
       50
176
     1
290
     0
176
     1
 90
       50
176
     1
 62
   256
176
     0
 40
1.0
176
     0
 90
        2
176
     1
  1
strokes_ogs.tif
176
     1
290
     0
176
     1
 40
1.0
176
     1
 40
1.0
176
     1
  0
VISUALSTYLE
  5
32
102
{ACAD_REACTORS
330
2A
102
}
330
2A
100
AcDbVisualStyle
  2
Basic
 70
     7
177
     3
291
     1
 70
    58
 90
        1
176
     1
 90
        0
176
     1
 90
        1
176
     1
 90
        0
176
     1
 40
0.6
176
     1
 40
30.0
176
     1
 62
     7
420
 16777215
176
     1
 90
        0
176
     1
 90
        4
176
     1
 62
     7
176
     1
 62
   257
176
     1
 90
        1
176
     1
 90
        1
176
     1
 40
1.0
176
     1
 90
        8
176
     1
 62
     7
176
     1
 40
1.0
176
     1
 90
        1
176
     1
 90
        6
176
     1
 90
        2
176
     1
 62
     7
176
     1
 90
        5
176
     1
 90
        0
176
     1
 90
        0
176
     1
290
     0
176
     1
 90
        1
176
     1
 40
0.0
176
     1
 90
        0
176
     1
290
     0
176
     1
290
     1
176
     1
290
     1
176
     1
290
     0
176
     1
290
     0
176
     1
290
     0
176
     1
290
     0
176
     1
290
     0
176
     1
290
     0
176
     1
 90
       50
176
     1
 40
0.0
176
     1
 40
1.0
176
     1
 90
        0
176
     1
 62
    18
420
        0
176
     1
 90
       50
176
     1
 90
        3
176
     1
 62
     5
420
      255
176
     1
290
     0
176
     1
 90
       50
176
     1
 90
       50
176
     1
 90
       50
176
     1
290
     0
176
     1
 90
       50
176
     1
 62
   256
176
     0
 40
1.0
176
     0
 90
        2
176
     1
  1
strokes_ogs.tif
176
     1
290
     0
176
     1
 40
1.0
176
     1
 40
1.0
176
     1
  0
VISUALSTYLE
  5
36
102
{ACAD_REACTORS
330
2A
102
}
330
2A
100
AcDbVisualStyle
  2
Brighten
 70
    12
177
     3
291
     1
 70
    58
 90
        2
176
     1
 90
        2
176
     1
 90
        0
176
     1
 90
        0
176
     1
 40
0.6
176
     1
 40
30.0
176
     1
 62
     7
420
 16777215
176
     1
 90
        1
176
     1
 90
        4
176
     1
 62
     7
176
     1
 62
   257
176
     1
 90
        1
176
     1
 90
        1
176
     1
 40
1.0
176
     1
 90
        8
176
     1
 62
     7
176
     1
 40
1.0
176
     1
 90
        1
176
     1
 90
        6
176
     1
 90
        2
176
     1
 62
     7
176
     1
 90
        5
176
     1
 90
        0
176
     1
 90
        0
176
     1
290
     0
176
     1
 90
        1
176
     1
 40
50.0
176
     1
 90
        0
176
     1
290
     0
176
     1
290
     1
176
     1
290
     1
176
     1
290
     0
176
     1
290
     0
176
     1
290
     0
176
     1
290
     0
176
     1
290
     0
176
     1
290
     0
176
     1
 90
       50
176
     1
 40
0.0
176
     1
 40
1.0
176
     1
 90
        0
176
     1
 62
    18
420
        0
176
     1
 90
       50
176
     1
 90
        3
176
     1
 62
     5
420
      255
176
     1
290
     0
176
     1
 90
       50
176
     1
 90
       50
176
     1
 90
       50
176
     1
290
     0
176
     1
 90
       50
176
     1
 62
   256
176
     0
 40
1.0
176
     0
 90
        2
176
     1
  1
strokes_ogs.tif
176
     1
290
     0
176
     1
 40
1.0
176
     1
 40
1.0
176
     1
  0
VISUALSTYLE
  5
3A
102
{ACAD_REACTORS
330
2A
102
}
330
2A
100
AcDbVisualStyle
  2
ColorChange
 70
    16
177
     3
291
     1
 70
    58
 90
        2
176
     1
 90
        2
176
     1
 90
        3
176
     1
 90
        0
176
     1
 40
0.6
176
     1
 40
30.0
176
     1
 62
     8
420
  8421504
176
     1
 90
        1
176
     1
 90
        4
176
     1
 62
     7
176
     1
 62
   257
176
     1
 90
        1
176
     1
 90
        1
176
     1
 40
1.0
176
     1
 90
        8
176
     1
 62
     8
420
  8421504
176
     1
 40
1.0
176
     1
 90
        1
176
     1
 90
        6
176
     1
 90
        2
176
     1
 62
     7
176
     1
 90
        5
176
     1
 90
        0
176
     1
 90
        0
176
     1
290
     0
176
     1
 90
        1
176
     1
 40
0.0
176
     1
 90
        0
176
     1
290
     0
176
     1
290
     1
176
     1
290
     1
176
     1
290
     0
176
     1
290
     0
176
     1
290
     0
176
     1
290
     0
176
     1
290
     0
176
     1
290
     0
176
     1
 90
       50
176
     1
 40
0.0
176
     1
 40
1.0
176
     1
 90
        0
176
     1
 62
    18
420
        0
176
     1
 90
       50
176
     1
 90
        3
176
     1
 62
     5
420
      255
176
     1
290
     0
176
     1
 90
       50
176
     1
 90
       50
176
     1
 90
       50
176
     1
290
     0
176
     1
 90
       50
176
     1
 62
   256
176
     0
 40
1.0
176
     0
 90
        2
176
     1
  1
strokes_ogs.tif
176
     1
290
     0
176
     1
 40
1.0
176
     1
 40
1.0
176
     1
  0
VISUALSTYLE
  5
34
102
{ACAD_REACTORS
330
2A
102
}
330
2A
100
AcDbVisualStyle
  2
Conceptual
 70
     9
177
     3
291
     0
 70
    58
 90
        3
176
     1
 90
        2
176
     1
 90
        0
176
     1
 90
        0
176
     1
 40
0.6
176
     1
 40
30.0
176
     1
 62
     7
420
 16777215
176
     1
 90
        2
176
     1
 90
        2
176
     1
 62
     7
176
     1
 62
   257
176
     1
 90
        1
176
     1
 90
        1
176
     1
 40
179.0
176
     1
 90
        8
176
     1
 62
     7
176
     1
 40
1.0
176
     1
 90
        1
176
     1
 90
        6
176
     1
 90
        2
176
     1
 62
     7
176
     1
 90
        3
176
     1
 90
        0
176
     1
 90
        0
176
     1
290
     0
176
     1
 90
        1
176
     1
 40
0.0
176
     1
 90
        0
176
     1
290
     0
176
     1
290
     1
176
     1
290
     1
176
     1
290
     0
176
     1
290
     0
176
     1
290
     0
176
     1
290
     0
176
     1
290
     0
176
     1
290
     0
176
     1
 90
       50
176
     1
 40
0.0
176
     1
 40
1.0
176
     1
 90
        0
176
     1
 62
    18
420
        0
176
     1
 90
       50
176
     1
 90
        3
176
     1
 62
     5
420
      255
176
     1
290
     0
176
     1
 90
       50
176
     1
 90
       50
176
     1
 90
       50
176
     1
290
     0
176
     1
 90
       50
176
     1
 62
   256
176
     0
 40
1.0
176
     0
 90
        2
176
     1
  1
strokes_ogs.tif
176
     1
290
     0
176
     1
 40
1.0
176
     1
 40
1.0
176
     1
  0
VISUALSTYLE
  5
35
102
{ACAD_REACTORS
330
2A
102
}
330
2A
100
AcDbVisualStyle
  2
Dim
 70
    11
177
     3
291
     1
 70
    58
 90
        2
176
     1
 90
        2
176
     1
 90
        0
176
     1
 90
        0
176
     1
 40
0.6
176
     1
 40
30.0
176
     1
 62
     7
420
 16777215
176
     1
 90
        1
176
     1
 90
        4
176
     1
 62
     7
176
     1
 62
   257
176
     1
 90
        1
176
     1
 90
        1
176
     1
 40
1.0
176
     1
 90
        8
176
     1
 62
     7
176
     1
 40
1.0
176
     1
 90
        1
176
     1
 90
        6
176
     1
 90
        2
176
     1
 62
     7
176
     1
 90
        5
176
     1
 90
        0
176
     1
 90
        0
176
     1
290
     0
176
     1
 90
        1
176
     1
 40
-50.0
176
     1
 90
        0
176
     1
290
     0
176
     1
290
     1
176
     1
290
     1
176
     1
290
     0
176
     1
290
     0
176
     1
290
     0
176
     1
290
     0
176
     1
290
     0
176
     1
290
     0
176
     1
 90
       50
176
     1
 40
0.0
176
     1
 40
1.0
176
     1
 90
        0
176
     1
 62
    18
420
        0
176
     1
 90
       50
176
     1
 90
        3
176
     1
 62
     5
420
      255
176
     1
290
     0
176
     1
 90
       50
176
     1
 90
       50
176
     1
 90
       50
176
     1
290
     0
176
     1
 90
       50
176
     1
 62
   256
176
     0
 40
1.0
176
     0
 90
        2
176
     1
  1
strokes_ogs.tif
176
     1
290
     0
176
     1
 40
1.0
176
     1
 40
1.0
176
     1
  0
VISUALSTYLE
  5
3D
102
{ACAD_REACTORS
330
2A
102
}
330
2A
100
AcDbVisualStyle
  2
EdgeColorOff
 70
    22
177
     3
291
     1
 70
    58
 90
        2
176
     0
 90
        2
176
     0
 90
        0
176
     0
 90
        0
176
     0
 40
0.6
176
     0
 40
30.0
176
     0
 62
     7
420
 16777215
176
     0
 90
        1
176
     0
 90
        4
176
     0
 62
     7
176
     0
 62
   257
176
     0
 90
        1
176
     0
 90
        1
176
     0
 40
1.0
176
     0
 90
        8
176
     2
 62
     7
176
     0
 40
1.0
176
     0
 90
        1
176
     0
 90
        6
176
     0
 90
        2
176
     0
 62
     7
176
     0
 90
        5
176
     0
 90
        0
176
     0
 90
        0
176
     0
290
     0
176
     0
 90
        1
176
     0
 40
0.0
176
     0
 90
        0
176
     0
290
     0
176
     0
290
     1
176
     0
290
     1
176
     0
290
     0
176
     0
290
     0
176
     0
290
     0
176
     0
290
     0
176
     0
290
     0
176
     0
290
     0
176
     0
 90
       50
176
     0
 40
0.0
176
     0
 40
1.0
176
     0
 90
        0
176
     0
 62
    18
420
        0
176
     0
 90
       50
176
     0
 90
        3
176
     0
 62
     5
420
      255
176
     0
290
     0
176
     0
 90
       50
176
     0
 90
       50
176
     0
 90
       50
176
     0
290
     0
176
     0
 90
       50
176
     0
 62
   256
176
     0
 40
1.0
176
     0
 90
        2
176
     0
  1
strokes_ogs.tif
176
     0
290
     0
176
     0
 40
1.0
176
     0
 40
1.0
176
     0
  0
VISUALSTYLE
  5
39
102
{ACAD_REACTORS
330
2A
102
}
330
2A
100
AcDbVisualStyle
  2
Facepattern
 70
    15
177
     3
291
     1
 70
    58
 90
        2
176
     1
 90
        2
176
     1
 90
        0
176
     1
 90
        0
176
     1
 40
0.6
176
     1
 40
30.0
176
     1
 62
     7
420
 16777215
176
     1
 90
        1
176
     1
 90
        4
176
     1
 62
     7
176
     1
 62
   257
176
     1
 90
        1
176
     1
 90
        1
176
     1
 40
1.0
176
     1
 90
        8
176
     1
 62
     7
176
     1
 40
1.0
176
     1
 90
        1
176
     1
 90
        6
176
     1
 90
        2
176
     1
 62
     7
176
     1
 90
        5
176
     1
 90
        0
176
     1
 90
        0
176
     1
290
     0
176
     1
 90
        1
176
     1
 40
0.0
176
     1
 90
        0
176
     1
290
     0
176
     1
290
     1
176
     1
290
     1
176
     1
290
     0
176
     1
290
     0
176
     1
290
     0
176
     1
290
     0
176
     1
290
     0
176
     1
290
     0
176
     1
 90
       50
176
     1
 40
0.0
176
     1
 40
1.0
176
     1
 90
        0
176
     1
 62
    18
420
        0
176
     1
 90
       50
176
     1
 90
        3
176
     1
 62
     5
420
      255
176
     1
290
     0
176
     1
 90
       50
176
     1
 90
       50
176
     1
 90
       50
176
     1
290
     0
176
     1
 90
       50
176
     1
 62
   256
176
     0
 40
1.0
176
     0
 90
        2
176
     1
  1
strokes_ogs.tif
176
     1
290
     0
176
     1
 40
1.0
176
     1
 40
1.0
176
     1
  0
VISUALSTYLE
  5
2B
102
{ACAD_REACTORS
330
2A
102
}
330
2A
100
AcDbVisualStyle
  2
Flat
 70
     0
177
     3
291
     1
 70
    58
 90
        2
176
     1
 90
        1
176
     1
 90
        1
176
     1
 90
        2
176
     1
 40
0.6
176
     1
 40
30.0
176
     1
 62
     7
420
 16777215
176
     1
 90
        0
176
     1
 90
        0
176
     1
 62
     7
176
     1
 62
   257
176
     1
 90
        1
176
     1
 90
        1
176
     1
 40
1.0
176
     1
 90
        8
176
     1
 62
     7
176
     1
 40
1.0
176
     1
 90
        1
176
     1
 90
        6
176
     1
 90
        2
176
     1
 62
     7
176
     1
 90
        5
176
     1
 90
        0
176
     1
 90
        0
176
     1
290
     0
176
     1
 90
       13
176
     1
 40
0.0
176
     1
 90
        0
176
     1
290
     0
176
     1
290
     1
176
     1
290
     1
176
     1
290
     0
176
     1
290
     0
176
     1
290
     0
176
     1
290
     0
176
     1
290
     0
176
     1
290
     0
176
     1
 90
       50
176
     1
 40
0.0
176
     1
 40
1.0
176
     1
 90
        0
176
     1
 62
    18
420
        0
176
     1
 90
       50
176
     1
 90
        3
176
     1
 62
     5
420
      255
176
     1
290
     0
176
     1
 90
       50
176
     1
 90
       50
176
     1
 90
       50
176
     1
290
     0
176
     1
 90
       50
176
     1
 62
   256
176
     0
 40
1.0
176
     0
 90
        2
176
     1
  1
strokes_ogs.tif
176
     1
290
     0
176
     1
 40
1.0
176
     1
 40
1.0
176
     1
  0
VISUALSTYLE
  5
2C
102
{ACAD_REACTORS
330
2A
102
}
330
2A
100
AcDbVisualStyle
  2
FlatWithEdges
 70
     1
177
     3
291
     1
 70
    58
 90
        2
176
     1
 90
        1
176
     1
 90
        1
176
     1
 90
        2
176
     1
 40
0.6
176
     1
 40
30.0
176
     1
 62
     7
420
 16777215
176
     1
 90
        1
176
     1
 90
        0
176
     1
 62
     7
176
     1
 62
   257
176
     1
 90
        1
176
     1
 90
        1
176
     1
 40
1.0
176
     1
 90
        0
176
     1
 62
   257
176
     1
 40
1.0
176
     1
 90
        1
176
     1
 90
        6
176
     1
 90
        2
176
     1
 62
     7
176
     1
 90
        5
176
     1
 90
        0
176
     1
 90
        0
176
     1
290
     0
176
     1
 90
       13
176
     1
 40
0.0
176
     1
 90
        0
176
     1
290
     0
176
     1
290
     1
176
     1
290
     1
176
     1
290
     0
176
     1
290
     0
176
     1
290
     0
176
     1
290
     0
176
     1
290
     0
176
     1
290
     0
176
     1
 90
       50
176
     1
 40
0.0
176
     1
 40
1.0
176
     1
 90
        0
176
     1
 62
    18
420
        0
176
     1
 90
       50
176
     1
 90
        3
176
     1
 62
     5
420
      255
176
     1
290
     0
176
     1
 90
       50
176
     1
 90
       50
176
     1
 90
       50
176
     1
290
     0
176
     1
 90
       50
176
     1
 62
   256
176
     0
 40
1.0
176
     0
 90
        2
176
     1
  1
strokes_ogs.tif
176
     1
290
     0
176
     1
 40
1.0
176
     1
 40
1.0
176
     1
  0
VISUALSTYLE
  5
2D
102
{ACAD_REACTORS
330
2A
102
}
330
2A
100
AcDbVisualStyle
  2
Gouraud
 70
     2
177
     3
291
     1
 70
    58
 90
        2
176
     1
 90
        2
176
     1
 90
        1
176
     1
 90
        2
176
     1
 40
0.6
176
     1
 40
30.0
176
     1
 62
     7
420
 16777215
176
     1
 90
        0
176
     1
 90
        0
176
     1
 62
     7
176
     1
 62
   257
176
     1
 90
        1
176
     1
 90
        1
176
     1
 40
1.0
176
     1
 90
        0
176
     1
 62
     7
176
     1
 40
1.0
176
     1
 90
        1
176
     1
 90
        6
176
     1
 90
        2
176
     1
 62
     7
176
     1
 90
        5
176
     1
 90
        0
176
     1
 90
        0
176
     1
290
     0
176
     1
 90
       13
176
     1
 40
0.0
176
     1
 90
        0
176
     1
290
     0
176
     1
290
     1
176
     1
290
     1
176
     1
290
     0
176
     1
290
     0
176
     1
290
     0
176
     1
290
     0
176
     1
290
     0
176
     1
290
     0
176
     1
 90
       50
176
     1
 40
0.0
176
     1
 40
1.0
176
     1
 90
        0
176
     1
 62
    18
420
        0
176
     1
 90
       50
176
     1
 90
        3
176
     1
 62
     5
420
      255
176
     1
290
     0
176
     1
 90
       50
176
     1
 90
       50
176
     1
 90
       50
176
     1
290
     0
176
     1
 90
       50
176
     1
 62
   256
176
     0
 40
1.0
176
     0
 90
        2
176
     1
  1
strokes_ogs.tif
176
     1
290
     0
176
     1
 40
1.0
176
     1
 40
1.0
176
     1
  0
VISUALSTYLE
  5
2E
102
{ACAD_REACTORS
330
2A
102
}
330
2A
100
AcDbVisualStyle
  2
GouraudWithEdges
 70
     3
177
     3
291
     1
 70
    58
 90
        2
176
     1
 90
        2
176
     1
 90
        1
176
     1
 90
        2
176
     1
 40
0.6
176
     1
 40
30.0
176
     1
 62
     7
420
 16777215
176
     1
 90
        1
176
     1
 90
        0
176
     1
 62
     7
176
     1
 62
   257
176
     1
 90
        1
176
     1
 90
        1
176
     1
 40
1.0
176
     1
 90
        0
176
     1
 62
   257
176
     1
 40
1.0
176
     1
 90
        1
176
     1
 90
        6
176
     1
 90
        2
176
     1
 62
     7
176
     1
 90
        5
176
     1
 90
        0
176
     1
 90
        0
176
     1
290
     0
176
     1
 90
       13
176
     1
 40
0.0
176
     1
 90
        0
176
     1
290
     0
176
     1
290
     1
176
     1
290
     1
176
     1
290
     0
176
     1
290
     0
176
     1
290
     0
176
     1
290
     0
176
     1
290
     0
176
     1
290
     0
176
     1
 90
       50
176
     1
 40
0.0
176
     1
 40
1.0
176
     1
 90
        0
176
     1
 62
    18
420
        0
176
     1
 90
       50
176
     1
 90
        3
176
     1
 62
     5
420
      255
176
     1
290
     0
176
     1
 90
       50
176
     1
 90
       50
176
     1
 90
       50
176
     1
290
     0
176
     1
 90
       50
176
     1
 62
   256
176
     0
 40
1.0
176
     0
 90
        2
176
     1
  1
strokes_ogs.tif
176
     1
290
     0
176
     1
 40
1.0
176
     1
 40
1.0
176
     1
  0
VISUALSTYLE
  5
31
102
{ACAD_REACTORS
330
2A
102
}
330
2A
100
AcDbVisualStyle
  2
Hidden
 70
     6
177
     3
291
     0
 70
    58
 90
        1
176
     1
 90
        2
176
     1
 90
        2
176
     1
 90
        0
176
     1
 40
0.6
176
     1
 40
30.0
176
     1
 62
     7
420
 16777215
176
     1
 90
        2
176
     1
 90
        2
176
     1
 62
     7
176
     1
 62
   257
176
     1
 90
        2
176
     1
 90
        1
176
     1
 40
40.0
176
     1
 90
        0
176
     1
 62
   257
176
     1
 40
1.0
176
     1
 90
        1
176
     1
 90
        6
176
     1
 90
        2
176
     1
 62
     7
176
     1
 90
        3
176
     1
 90
        0
176
     1
 90
        0
176
     1
290
     0
176
     1
 90
        1
176
     1
 40
0.0
176
     1
 90
        0
176
     1
290
     0
176
     1
290
     1
176
     1
290
     1
176
     1
290
     0
176
     1
290
     0
176
     1
290
     0
176
     1
290
     0
176
     1
290
     0
176
     1
290
     0
176
     1
 90
       50
176
     1
 40
0.0
176
     1
 40
1.0
176
     1
 90
        0
176
     1
 62
    18
420
        0
176
     1
 90
       50
176
     1
 90
        3
176
     1
 62
     5
420
      255
176
     1
290
     0
176
     1
 90
       50
176
     1
 90
       50
176
     1
 90
       50
176
     1
290
     0
176
     1
 90
       50
176
     1
 62
   256
176
     0
 40
1.0
176
     0
 90
        2
176
     1
  1
strokes_ogs.tif
176
     1
290
     0
176
     1
 40
1.0
176
     1
 40
1.0
176
     1
  0
VISUALSTYLE
  5
3B
102
{ACAD_REACTORS
330
2A
102
}
330
2A
100
AcDbVisualStyle
  2
JitterOff
 70
    20
177
     3
291
     1
 70
    58
 90
        2
176
     0
 90
        2
176
     0
 90
        0
176
     0
 90
        0
176
     0
 40
0.6
176
     0
 40
30.0
176
     0
 62
     7
420
 16777215
176
     0
 90
        1
176
     0
 90
        4
176
     0
 62
     7
176
     0
 62
   257
176
     0
 90
        1
176
     0
 90
        1
176
     0
 40
1.0
176
     0
 90
       10
176
     2
 62
     7
176
     0
 40
1.0
176
     0
 90
        1
176
     0
 90
        6
176
     0
 90
        2
176
     0
 62
     7
176
     0
 90
        5
176
     0
 90
        0
176
     0
 90
        0
176
     0
290
     0
176
     0
 90
        1
176
     0
 40
0.0
176
     0
 90
        0
176
     0
290
     0
176
     0
290
     1
176
     0
290
     1
176
     0
290
     0
176
     0
290
     0
176
     0
290
     0
176
     0
290
     0
176
     0
290
     0
176
     0
290
     0
176
     0
 90
       50
176
     0
 40
0.0
176
     0
 40
1.0
176
     0
 90
        0
176
     0
 62
    18
420
        0
176
     0
 90
       50
176
     0
 90
        3
176
     0
 62
     5
420
      255
176
     0
290
     0
176
     0
 90
       50
176
     0
 90
       50
176
     0
 90
       50
176
     0
290
     0
176
     0
 90
       50
176
     0
 62
   256
176
     0
 40
1.0
176
     0
 90
        2
176
     0
  1
strokes_ogs.tif
176
     0
290
     0
176
     0
 40
1.0
176
     0
 40
1.0
176
     0
  0
VISUALSTYLE
  5
38
102
{ACAD_REACTORS
330
2A
102
}
330
2A
100
AcDbVisualStyle
  2
Linepattern
 70
    14
177
     3
291
     1
 70
    58
 90
        2
176
     1
 90
        2
176
     1
 90
        0
176
     1
 90
        0
176
     1
 40
0.6
176
     1
 40
30.0
176
     1
 62
     7
420
 16777215
176
     1
 90
        1
176
     1
 90
        4
176
     1
 62
     7
176
     1
 62
   257
176
     1
 90
        7
176
     1
 90
        7
176
     1
 40
1.0
176
     1
 90
        8
176
     1
 62
     7
176
     1
 40
1.0
176
     1
 90
        1
176
     1
 90
        6
176
     1
 90
        2
176
     1
 62
     7
176
     1
 90
        5
176
     1
 90
        0
176
     1
 90
        0
176
     1
290
     0
176
     1
 90
        1
176
     1
 40
0.0
176
     1
 90
        0
176
     1
290
     0
176
     1
290
     1
176
     1
290
     1
176
     1
290
     0
176
     1
290
     0
176
     1
290
     0
176
     1
290
     0
176
     1
290
     0
176
     1
290
     0
176
     1
 90
       50
176
     1
 40
0.0
176
     1
 40
1.0
176
     1
 90
        0
176
     1
 62
    18
420
        0
176
     1
 90
       50
176
     1
 90
        3
176
     1
 62
     5
420
      255
176
     1
290
     0
176
     1
 90
       50
176
     1
 90
       50
176
     1
 90
       50
176
     1
290
     0
176
     1
 90
       50
176
     1
 62
   256
176
     0
 40
1.0
176
     0
 90
        2
176
     1
  1
strokes_ogs.tif
176
     1
290
     0
176
     1
 40
1.0
176
     1
 40
1.0
176
     1
  0
VISUALSTYLE
  5
3C
102
{ACAD_REACTORS
330
2A
102
}
330
2A
100
AcDbVisualStyle
  2
OverhangOff
 70
    21
177
     3
291
     1
 70
    58
 90
        2
176
     0
 90
        2
176
     0
 90
        0
176
     0
 90
        0
176
     0
 40
0.6
176
     0
 40
30.0
176
     0
 62
     7
420
 16777215
176
     0
 90
        1
176
     0
 90
        4
176
     0
 62
     7
176
     0
 62
   257
176
     0
 90
        1
176
     0
 90
        1
176
     0
 40
1.0
176
     0
 90
        9
176
     2
 62
     7
176
     0
 40
1.0
176
     0
 90
        1
176
     0
 90
        6
176
     0
 90
        2
176
     0
 62
     7
176
     0
 90
        5
176
     0
 90
        0
176
     0
 90
        0
176
     0
290
     0
176
     0
 90
        1
176
     0
 40
0.0
176
     0
 90
        0
176
     0
290
     0
176
     0
290
     1
176
     0
290
     1
176
     0
290
     0
176
     0
290
     0
176
     0
290
     0
176
     0
290
     0
176
     0
290
     0
176
     0
290
     0
176
     0
 90
       50
176
     0
 40
0.0
176
     0
 40
1.0
176
     0
 90
        0
176
     0
 62
    18
420
        0
176
     0
 90
       50
176
     0
 90
        3
176
     0
 62
     5
420
      255
176
     0
290
     0
176
     0
 90
       50
176
     0
 90
       50
176
     0
 90
       50
176
     0
290
     0
176
     0
 90
       50
176
     0
 62
   256
176
     0
 40
1.0
176
     0
 90
        2
176
     0
  1
strokes_ogs.tif
176
     0
290
     0
176
     0
 40
1.0
176
     0
 40
1.0
176
     0
  0
VISUALSTYLE
  5
33
102
{ACAD_REACTORS
330
2A
102
}
330
2A
100
AcDbVisualStyle
  2
Realistic
 70
     8
177
     3
291
     0
 70
    58
 90
        2
176
     1
 90
        3
176
     1
 90
        0
176
     1
 90
        2
176
     1
 40
0.6
176
     1
 40
30.0
176
     1
 62
     7
420
 16777215
176
     1
 90
        0
176
     1
 90
        0
176
     1
 62
     7
176
     1
 62
   257
176
     1
 90
        1
176
     1
 90
        1
176
     1
 40
1.0
176
     1
 90
        8
176
     1
 62
   257
176
     1
 40
1.0
176
     1
 90
        1
176
     1
 90
        6
176
     1
 90
        2
176
     1
 62
     7
176
     1
 90
        3
176
     1
 90
        0
176
     1
 90
        0
176
     1
290
     0
176
     1
 90
       13
176
     1
 40
0.0
176
     1
 90
        0
176
     1
290
     0
176
     1
290
     1
176
     1
290
     1
176
     1
290
     0
176
     1
290
     0
176
     1
290
     0
176
     1
290
     0
176
     1
290
     0
176
     1
290
     0
176
     1
 90
       50
176
     1
 40
0.0
176
     1
 40
1.0
176
     1
 90
        0
176
     1
 62
    18
420
        0
176
     1
 90
       50
176
     1
 90
        3
176
     1
 62
     5
420
      255
176
     1
290
     0
176
     1
 90
       50
176
     1
 90
       50
176
     1
 90
       50
176
     1
290
     0
176
     1
 90
       50
176
     1
 62
   256
176
     0
 40
1.0
176
     0
 90
        2
176
     1
  1
strokes_ogs.tif
176
     1
290
     0
176
     1
 40
1.0
176
     1
 40
1.0
176
     1
  0
VISUALSTYLE
  5
42
102
{ACAD_REACTORS
330
2A
102
}
330
2A
100
AcDbVisualStyle
  2
Shaded
 70
    27
177
     3
291
     0
 70
    58
 90
        2
176
     1
 90
        2
176
     1
 90
        1
176
     1
 90
        2
176
     1
 40
0.6
176
     1
 40
30.0
176
     1
 62
     7
420
 16777215
176
     1
 90
        0
176
     1
 90
        4
176
     1
 62
     7
176
     1
 62
   257
176
     1
 90
        1
176
     1
 90
        1
176
     1
 40
1.0
176
     1
 90
        8
176
     1
 62
   257
176
     1
 40
1.0
176
     1
 90
        1
176
     1
 90
        6
176
     1
 90
        2
176
     1
 62
     8
420
  7895160
176
     1
 90
        3
176
     1
 90
        0
176
     1
 90
        0
176
     1
290
     0
176
     1
 90
        5
176
     1
 40
0.0
176
     1
 90
        0
176
     1
290
     0
176
     1
290
     1
176
     1
290
     1
176
     1
290
     0
176
     1
290
     0
176
     1
290
     0
176
     1
290
     0
176
     1
290
     0
176
     1
290
     0
176
     1
 90
       50
176
     1
 40
0.0
176
     1
 40
1.0
176
     1
 90
        0
176
     1
 62
    18
420
        0
176
     1
 90
       50
176
     1
 90
        3
176
     1
 62
     5
420
      255
176
     1
290
     0
176
     1
 90
       50
176
     1
 90
       50
176
     1
 90
       50
176
     1
290
     0
176
     1
 90
       50
176
     1
 62
   256
176
     0
 40
1.0
176
     0
 90
        2
176
     1
  1
strokes_ogs.tif
176
     1
290
     0
176
     1
 40
1.0
176
     1
 40
1.0
176
     1
  0
VISUALSTYLE
  5
41
102
{ACAD_REACTORS
330
2A
102
}
330
2A
100
AcDbVisualStyle
  2
Shaded with edges
 70
    26
177
     3
291
     0
 70
    58
 90
        2
176
     1
 90
        2
176
     1
 90
        1
176
     1
 90
        2
176
     1
 40
0.6
176
     1
 40
30.0
176
     1
 62
     7
420
 16777215
176
     1
 90
        1
176
     1
 90
       10
176
     1
 62
     7
176
     1
 62
   257
176
     1
 90
        2
176
     1
 90
        1
176
     1
 40
1.0
176
     1
 90
        8
176
     1
 62
   257
176
     1
 40
1.0
176
     1
 90
        1
176
     1
 90
        6
176
     1
 90
        2
176
     1
 62
     7
176
     1
 90
        3
176
     1
 90
        0
176
     1
 90
        0
176
     1
290
     0
176
     1
 90
        5
176
     1
 40
0.0
176
     1
 90
        0
176
     1
290
     0
176
     1
290
     1
176
     1
290
     1
176
     1
290
     0
176
     1
290
     0
176
     1
290
     0
176
     1
290
     0
176
     1
290
     0
176
     1
290
     0
176
     1
 90
       50
176
     1
 40
0.0
176
     1
 40
1.0
176
     1
 90
        0
176
     1
 62
    18
420
        0
176
     1
 90
       50
176
     1
 90
        3
176
     1
 62
     5
420
      255
176
     1
290
     0
176
     1
 90
       50
176
     1
 90
       50
176
     1
 90
       50
176
     1
290
     0
176
     1
 90
       50
176
     1
 62
   256
176
     0
 40
1.0
176
     0
 90
        2
176
     1
  1
strokes_ogs.tif
176
     1
290
     0
176
     1
 40
1.0
176
     1
 40
1.0
176
     1
  0
VISUALSTYLE
  5
3E
102
{ACAD_REACTORS
330
2A
102
}
330
2A
100
AcDbVisualStyle
  2
Shades of Gray
 70
    23
177
     3
291
     0
 70
    58
 90
        2
176
     1
 90
        2
176
     1
 90
        3
176
     1
 90
        0
176
     1
 40
0.6
176
     1
 40
30.0
176
     1
 62
     7
420
 16777215
176
     1
 90
        2
176
     1
 90
        2
176
     1
 62
     7
176
     1
 62
     7
176
     1
 90
        1
176
     1
 90
        1
176
     1
 40
40.0
176
     1
 90
        8
176
     1
 62
     7
176
     1
 40
1.0
176
     1
 90
        1
176
     1
 90
        6
176
     1
 90
        2
176
     1
 62
     7
176
     1
 90
        3
176
     1
 90
        0
176
     1
 90
        0
176
     1
290
     0
176
     1
 90
        1
176
     1
 40
0.0
176
     1
 90
        0
176
     1
290
     0
176
     1
290
     1
176
     1
290
     1
176
     1
290
     0
176
     1
290
     0
176
     1
290
     0
176
     1
290
     0
176
     1
290
     0
176
     1
290
     0
176
     1
 90
       50
176
     1
 40
0.0
176
     1
 40
1.0
176
     1
 90
        0
176
     1
 62
    18
420
        0
176
     1
 90
       50
176
     1
 90
        3
176
     1
 62
     5
420
      255
176
     1
290
     0
176
     1
 90
       50
176
     1
 90
       50
176
     1
 90
       50
176
     1
290
     0
176
     1
 90
       50
176
     1
 62
   256
176
     0
 40
1.0
176
     0
 90
        2
176
     1
  1
strokes_ogs.tif
176
     1
290
     0
176
     1
 40
1.0
176
     1
 40
1.0
176
     1
  0
VISUALSTYLE
  5
3F
102
{ACAD_REACTORS
330
2A
102
}
330
2A
100
AcDbVisualStyle
  2
Sketchy
 70
    24
177
     3
291
     0
 70
    58
 90
        1
176
     1
 90
        2
176
     1
 90
        2
176
     1
 90
        0
176
     1
 40
0.6
176
     1
 40
30.0
176
     1
 62
     7
420
 16777215
176
     1
 90
        2
176
     1
 90
        2
176
     1
 62
     7
176
     1
 62
     7
176
     1
 90
        1
176
     1
 90
        1
176
     1
 40
40.0
176
     1
 90
       11
176
     1
 62
     7
176
     1
 40
1.0
176
     1
 90
        1
176
     1
 90
        6
176
     1
 90
        2
176
     1
 62
     7
176
     1
 90
        6
176
     1
 90
        0
176
     1
 90
        0
176
     1
290
     0
176
     1
 90
        1
176
     1
 40
0.0
176
     1
 90
        0
176
     1
290
     0
176
     1
290
     1
176
     1
290
     1
176
     1
290
     0
176
     1
290
     0
176
     1
290
     0
176
     1
290
     0
176
     1
290
     0
176
     1
290
     0
176
     1
 90
       50
176
     1
 40
0.0
176
     1
 40
1.0
176
     1
 90
        0
176
     1
 62
    18
420
        0
176
     1
 90
       50
176
     1
 90
        3
176
     1
 62
     5
420
      255
176
     1
290
     0
176
     1
 90
       50
176
     1
 90
       50
176
     1
 90
       50
176
     1
290
     0
176
     1
 90
       50
176
     1
 62
   256
176
     0
 40
1.0
176
     0
 90
        2
176
     1
  1
strokes_ogs.tif
176
     1
290
     0
176
     1
 40
1.0
176
     1
 40
1.0
176
     1
  0
VISUALSTYLE
  5
37
102
{ACAD_REACTORS
330
2A
102
}
330
2A
100
AcDbVisualStyle
  2
Thicken
 70
    13
177
     3
291
     1
 70
    58
 90
        2
176
     1
 90
        2
176
     1
 90
        0
176
     1
 90
        0
176
     1
 40
0.6
176
     1
 40
30.0
176
     1
 62
     7
420
 16777215
176
     1
 90
        1
176
     1
 90
        4
176
     1
 62
     7
176
     1
 62
   257
176
     1
 90
        1
176
     1
 90
        1
176
     1
 40
1.0
176
     1
 90
       12
176
     1
 62
     7
176
     1
 40
1.0
176
     1
 90
        1
176
     1
 90
        6
176
     1
 90
        2
176
     1
 62
     7
176
     1
 90
        5
176
     1
 90
        0
176
     1
 90
        0
176
     1
290
     0
176
     1
 90
        1
176
     1
 40
0.0
176
     1
 90
        0
176
     1
290
     0
176
     1
290
     1
176
     1
290
     1
176
     1
290
     0
176
     1
290
     0
176
     1
290
     0
176
     1
290
     0
176
     1
290
     0
176
     1
290
     0
176
     1
 90
       50
176
     1
 40
0.0
176
     1
 40
1.0
176
     1
 90
        0
176
     1
 62
    18
420
        0
176
     1
 90
       50
176
     1
 90
        3
176
     1
 62
     5
420
      255
176
     1
290
     0
176
     1
 90
       50
176
     1
 90
       50
176
     1
 90
       50
176
     1
290
     0
176
     1
 90
       50
176
     1
 62
   256
176
     0
 40
1.0
176
     0
 90
        2
176
     1
  1
strokes_ogs.tif
176
     1
290
     0
176
     1
 40
1.0
176
     1
 40
1.0
176
     1
  0
VISUALSTYLE
  5
30
102
{ACAD_REACTORS
330
2A
102
}
330
2A
100
AcDbVisualStyle
  2
Wireframe
 70
     5
177
     3
291
     0
 70
    58
 90
        0
176
     1
 90
        2
176
     1
 90
        0
176
     1
 90
        0
176
     1
 40
0.6
176
     1
 40
30.0
176
     1
 62
     7
420
 16777215
176
     1
 90
        1
176
     1
 90
        4
176
     1
 62
     7
176
     1
 62
   257
176
     1
 90
        1
176
     1
 90
        1
176
     1
 40
1.0
176
     1
 90
        0
176
     1
 62
   257
176
     1
 40
1.0
176
     1
 90
        1
176
     1
 90
        6
176
     1
 90
        2
176
     1
 62
     7
176
     1
 90
        3
176
     1
 90
        0
176
     1
 90
        0
176
     1
290
     0
176
     1
 90
        1
176
     1
 40
0.0
176
     1
 90
        0
176
     1
290
     0
176
     1
290
     1
176
     1
290
     1
176
     1
290
     0
176
     1
290
     0
176
     1
290
     0
176
     1
290
     0
176
     1
290
     0
176
     1
290
     0
176
     1
 90
       50
176
     1
 40
0.0
176
     1
 40
1.0
176
     1
 90
        0
176
     1
 62
    18
420
        0
176
     1
 90
       50
176
     1
 90
        3
176
     1
 62
     5
420
      255
176
     1
290
     0
176
     1
 90
       50
176
     1
 90
       50
176
     1
 90
       50
176
     1
290
     0
176
     1
 90
       50
176
     1
 62
   256
176
     0
 40
1.0
176
     0
 90
        2
176
     1
  1
strokes_ogs.tif
176
     1
290
     0
176
     1
 40
1.0
176
     1
 40
1.0
176
     1
  0
VISUALSTYLE
  5
40
102
{ACAD_REACTORS
330
2A
102
}
330
2A
100
AcDbVisualStyle
  2
X-Ray
 70
    25
177
     3
291
     0
 70
    58
 90
        2
176
     1
 90
        2
176
     1
 90
        1
176
     1
 90
        1
176
     1
 40
0.5
176
     1
 40
30.0
176
     1
 62
     7
420
 16777215
176
     1
 90
        1
176
     1
 90
        0
176
     1
 62
     7
176
     1
 62
   257
176
     1
 90
        1
176
     1
 90
        1
176
     1
 40
1.0
176
     1
 90
        8
176
     1
 62
     7
176
     1
 40
1.0
176
     1
 90
        1
176
     1
 90
        6
176
     1
 90
        2
176
     1
 62
     7
176
     1
 90
        3
176
     1
 90
        0
176
     1
 90
        0
176
     1
290
     0
176
     1
 90
       13
176
     1
 40
0.0
176
     1
 90
        0
176
     1
290
     0
176
     1
290
     1
176
     1
290
     1
176
     1
290
     0
176
     1
290
     0
176
     1
290
     0
176
     1
290
     0
176
     1
290
     0
176
     1
290
     0
176
     1
 90
       50
176
     1
 40
0.0
176
     1
 40
1.0
176
     1
 90
        0
176
     1
 62
    18
420
        0
176
     1
 90
       50
176
     1
 90
        3
176
     1
 62
     5
420
      255
176
     1
290
     0
176
     1
 90
       50
176
     1
 90
       50
176
     1
 90
       50
176
     1
290
     0
176
     1
 90
       50
176
     1
 62
   256
176
     0
 40
1.0
176
     0
 90
        2
176
     1
  1
strokes_ogs.tif
176
     1
290
     0
176
     1
 40
1.0
176
     1
 40
1.0
176
     1
  0
DICTIONARYVAR
  5
78
102
{ACAD_REACTORS
330
77
102
}
330
77
100
DictionaryVariables
280
     0
  1
1:1
  0
DICTIONARYVAR
  5
7D
102
{ACAD_REACTORS
330
77
102
}
330
77
100
DictionaryVariables
280
     0
  1
Standard
  0
DICTIONARYVAR
  5
7C
102
{ACAD_REACTORS
330
77
102
}
330
77
100
DictionaryVariables
280
     0
  1
Standard
  0
DICTIONARY
  5
79
330
5A
100
AcDbDictionary
280
     1
281
     1
  3
ACAD_ROUNDTRIP_2008_TABLESTYLE_CELLSTYLEMAP
360
7A
  0
CELLSTYLEMAP
  5
7A
102
{ACAD_REACTORS
330
79
102
}
330
79
100
AcDbCellStyleMap
 90
        3
300
CELLSTYLE
  1
TABLEFORMAT_BEGIN
 90
        5
170
     1
 91
        0
 92
    32768
 62
   257
 93
        1
300
CONTENTFORMAT
  1
CONTENTFORMAT_BEGIN
 90
        0
 91
        0
 92
        4
 93
        0
300

 40
0.0
140
1.0
 94
        5
 62
     0
340
11
144
0.25
309
CONTENTFORMAT_END
171
     1
301
MARGIN
  1
CELLMARGIN_BEGIN
 40
0.06
 40
0.06
 40
0.06
 40
0.06
 40
0.06
 40
0.06
309
CELLMARGIN_END
 94
        6
 95
        1
302
GRIDFORMAT
  1
GRIDFORMAT_BEGIN
 90
        0
 91
        1
 62
     0
 92
       -2
340
14
 93
        0
 40
0.045
309
GRIDFORMAT_END
 95
        2
302
GRIDFORMAT
  1
GRIDFORMAT_BEGIN
 90
        0
 91
        1
 62
     0
 92
       -2
340
14
 93
        0
 40
0.045
309
GRIDFORMAT_END
 95
        4
302
GRIDFORMAT
  1
GRIDFORMAT_BEGIN
 90
        0
 91
        1
 62
     0
 92
       -2
340
14
 93
        0
 40
0.045
309
GRIDFORMAT_END
 95
        8
302
GRIDFORMAT
  1
GRIDFORMAT_BEGIN
 90
        0
 91
        1
 62
     0
 92
       -2
340
14
 93
        0
 40
0.045
309
GRIDFORMAT_END
 95
       16
302
GRIDFORMAT
  1
GRIDFORMAT_BEGIN
 90
        0
 91
        1
 62
     0
 92
       -2
340
14
 93
        0
 40
0.045
309
GRIDFORMAT_END
 95
       32
302
GRIDFORMAT
  1
GRIDFORMAT_BEGIN
 90
        0
 91
        1
 62
     0
 92
       -2
340
14
 93
        0
 40
0.045
309
GRIDFORMAT_END
309
TABLEFORMAT_END
  1
CELLSTYLE_BEGIN
 90
        1
 91
        1
300
_TITLE
309
CELLSTYLE_END
300
CELLSTYLE
  1
TABLEFORMAT_BEGIN
 90
        5
170
     1
 91
        0
 92
        0
 62
   257
 93
        1
300
CONTENTFORMAT
  1
CONTENTFORMAT_BEGIN
 90
        0
 91
        0
 92
        4
 93
        0
300

 40
0.0
140
1.0
 94
        5
 62
     0
340
11
144
0.18
309
CONTENTFORMAT_END
171
     1
301
MARGIN
  1
CELLMARGIN_BEGIN
 40
0.06
 40
0.06
 40
0.06
 40
0.06
 40
0.06
 40
0.06
309
CELLMARGIN_END
 94
        6
 95
        1
302
GRIDFORMAT
  1
GRIDFORMAT_BEGIN
 90
        0
 91
        1
 62
     0
 92
       -2
340
14
 93
        0
 40
0.045
309
GRIDFORMAT_END
 95
        2
302
GRIDFORMAT
  1
GRIDFORMAT_BEGIN
 90
        0
 91
        1
 62
     0
 92
       -2
340
14
 93
        0
 40
0.045
309
GRIDFORMAT_END
 95
        4
302
GRIDFORMAT
  1
GRIDFORMAT_BEGIN
 90
        0
 91
        1
 62
     0
 92
       -2
340
14
 93
        0
 40
0.045
309
GRIDFORMAT_END
 95
        8
302
GRIDFORMAT
  1
GRIDFORMAT_BEGIN
 90
        0
 91
        1
 62
     0
 92
       -2
340
14
 93
        0
 40
0.045
309
GRIDFORMAT_END
 95
       16
302
GRIDFORMAT
  1
GRIDFORMAT_BEGIN
 90
        0
 91
        1
 62
     0
 92
       -2
340
14
 93
        0
 40
0.045
309
GRIDFORMAT_END
 95
       32
302
GRIDFORMAT
  1
GRIDFORMAT_BEGIN
 90
        0
 91
        1
 62
     0
 92
       -2
340
14
 93
        0
 40
0.045
309
GRIDFORMAT_END
309
TABLEFORMAT_END
  1
CELLSTYLE_BEGIN
 90
        2
 91
        1
300
_HEADER
309
CELLSTYLE_END
300
CELLSTYLE
  1
TABLEFORMAT_BEGIN
 90
        5
170
     1
 91
        0
 92
        0
 62
   257
 93
        1
300
CONTENTFORMAT
  1
CONTENTFORMAT_BEGIN
 90
        0
 91
        0
 92
        4
 93
        0
300

 40
0.0
140
1.0
 94
        2
 62
     0
340
11
144
0.18
309
CONTENTFORMAT_END
171
     1
301
MARGIN
  1
CELLMARGIN_BEGIN
 40
0.06
 40
0.06
 40
0.06
 40
0.06
 40
0.06
 40
0.06
309
CELLMARGIN_END
 94
        6
 95
        1
302
GRIDFORMAT
  1
GRIDFORMAT_BEGIN
 90
        0
 91
        1
 62
     0
 92
       -2
340
14
 93
        0
 40
0.045
309
GRIDFORMAT_END
 95
        2
302
GRIDFORMAT
  1
GRIDFORMAT_BEGIN
 90
        0
 91
        1
 62
     0
 92
       -2
340
14
 93
        0
 40
0.045
309
GRIDFORMAT_END
 95
        4
302
GRIDFORMAT
  1
GRIDFORMAT_BEGIN
 90
        0
 91
        1
 62
     0
 92
       -2
340
14
 93
        0
 40
0.045
309
GRIDFORMAT_END
 95
        8
302
GRIDFORMAT
  1
GRIDFORMAT_BEGIN
 90
        0
 91
        1
 62
     0
 92
       -2
340
14
 93
        0
 40
0.045
309
GRIDFORMAT_END
 95
       16
302
GRIDFORMAT
  1
GRIDFORMAT_BEGIN
 90
        0
 91
        1
 62
     0
 92
       -2
340
14
 93
        0
 40
0.045
309
GRIDFORMAT_END
 95
       32
302
GRIDFORMAT
  1
GRIDFORMAT_BEGIN
 90
        0
 91
        1
 62
     0
 92
       -2
340
14
 93
        0
 40
0.045
309
GRIDFORMAT_END
309
TABLEFORMAT_END
  1
CELLSTYLE_BEGIN
 90
        3
 91
        2
300
_DATA
309
CELLSTYLE_END
  0
ENDSEC
  0
EOF
