  0
SECTION
  2
HEADER
  9
$ACADVER
  1
AC1032
  9
$ACADMAINTVER
 90
       55
  9
$DWGCODEPAGE
  3
UNDEFINED
  9
$LASTSAVEDBY
  1
Administrator
  9
$REQUIREDVERSIONS
160
                 0
  9
$INSBASE
 10
0.0
 20
0.0
 30
0.0
  9
$EXTMIN
 10
134.6135
 20
258.7935
 30
0.0
  9
$EXTMAX
 10
174.7899
 20
298.9699
 30
0.0
  9
$LIMMIN
 10
0.0
 20
0.0
  9
$LIMMAX
 10
12.0
 20
9.0
  9
$ORTHOMODE
 70
     0
  9
$REGENMODE
 70
     1
  9
$FILLMODE
 70
     1
  9
$QTEXTMODE
 70
     0
  9
$MIRRTEXT
 70
     1
  9
$LTSCALE
 40
1.0
  9
$ATTMODE
 70
     1
  9
$TEXTSIZE
 40
0.2
  9
$TRACEWID
 40
0.05
  9
$TEXTSTYLE
  7
Standard
  9
$CLAYER
  8
0
  9
$CELTYPE
  6
ByLayer
  9
$CECOLOR
 62
   256
  9
$CELTSCALE
 40
1.0
  9
$DISPSILH
 70
     0
  9
$DIMSCALE
 40
1.0
  9
$DIMASZ
 40
0.18
  9
$DIMEXO
 40
0.0625
  9
$DIMDLI
 40
0.38
  9
$DIMRND
 40
0.0
  9
$DIMDLE
 40
0.0
  9
$DIMEXE
 40
0.18
  9
$DIMTP
 40
0.0
  9
$DIMTM
 40
0.0
  9
$DIMTXT
 40
0.18
  9
$DIMCEN
 40
0.09
  9
$DIMTSZ
 40
0.0
  9
$DIMTOL
 70
     0
  9
$DIMLIM
 70
     0
  9
$DIMTIH
 70
     1
  9
$DIMTOH
 70
     1
  9
$DIMSE1
 70
     0
  9
$DIMSE2
 70
     0
  9
$DIMTAD
 70
     0
  9
$DIMZIN
 70
     0
  9
$DIMBLK
  1

  9
$DIMASO
 70
     1
  9
$DIMSHO
 70
     1
  9
$DIMPOST
  1

  9
$DIMAPOST
  1

  9
$DIMALT
 70
     0
  9
$DIMALTD
 70
     2
  9
$DIMALTF
 40
25.4
  9
$DIMLFAC
 40
1.0
  9
$DIMTOFL
 70
     0
  9
$DIMTVP
 40
0.0
  9
$DIMTIX
 70
     0
  9
$DIMSOXD
 70
     0
  9
$DIMSAH
 70
     0
  9
$DIMBLK1
  1

  9
$DIMBLK2
  1

  9
$DIMSTYLE
  2
Standard
  9
$DIMCLRD
 70
     0
  9
$DIMCLRE
 70
     0
  9
$DIMCLRT
 70
     0
  9
$DIMTFAC
 40
1.0
  9
$DIMGAP
 40
0.09
  9
$DIMJUST
 70
     0
  9
$DIMSD1
 70
     0
  9
$DIMSD2
 70
     0
  9
$DIMTOLJ
 70
     1
  9
$DIMTZIN
 70
     0
  9
$DIMALTZ
 70
     0
  9
$DIMALTTZ
 70
     0
  9
$DIMUPT
 70
     0
  9
$DIMDEC
 70
     4
  9
$DIMTDEC
 70
     4
  9
$DIMALTU
 70
     2
  9
$DIMALTTD
 70
     2
  9
$DIMTXSTY
  7
Standard
  9
$DIMAUNIT
 70
     0
  9
$DIMADEC
 70
     0
  9
$DIMALTRND
 40
0.0
  9
$DIMAZIN
 70
     0
  9
$DIMDSEP
 70
    46
  9
$DIMATFIT
 70
     3
  9
$DIMFRAC
 70
     0
  9
$DIMLDRBLK
  1

  9
$DIMLUNIT
 70
     2
  9
$DIMLWD
 70
    -2
  9
$DIMLWE
 70
    -2
  9
$DIMTMOVE
 70
     0
  9
$DIMFXL
 40
1.0
  9
$DIMFXLON
 70
     0
  9
$DIMJOGANG
 40
0.7853981633974483
  9
$DIMTFILL
 70
     0
  9
$DIMTFILLCLR
 70
     0
  9
$DIMARCSYM
 70
     0
  9
$DIMLTYPE
  6

  9
$DIMLTEX1
  6

  9
$DIMLTEX2
  6

  9
$DIMTXTDIRECTION
 70
     0
  9
$LUNITS
 70
     2
  9
$LUPREC
 70
     4
  9
$SKETCHINC
 40
0.1
  9
$FILLETRAD
 40
0.0
  9
$AUNITS
 70
     0
  9
$AUPREC
 70
     0
  9
$MENU
  1
.
  9
$ELEVATION
 40
0.0
  9
$PELEVATION
 40
0.0
  9
$THICKNESS
 40
0.0
  9
$LIMCHECK
 70
     0
  9
$CHAMFERA
 40
0.0
  9
$CHAMFERB
 40
0.0
  9
$CHAMFERC
 40
0.0
  9
$CHAMFERD
 40
0.0
  9
$SKPOLY
 70
     0
  9
$TDCREATE
 40
2460384.370148576
  9
$TDUCREATE
 40
2460384.224315243
  9
$TDUPDATE
 40
2460384.370148877
  9
$TDUUPDATE
 40
2460384.224315544
  9
$TDINDWG
 40
0.0000000116
  9
$TDUSRTIMER
 40
0.0000000116
  9
$USRTIMER
 70
     1
  9
$ANGBASE
 50
0.0
  9
$ANGDIR
 70
     0
  9
$PDMODE
 70
     0
  9
$PDSIZE
 40
0.0
  9
$PLINEWID
 40
0.0
  9
$SPLFRAME
 70
     0
  9
$SPLINETYPE
 70
     6
  9
$SPLINESEGS
 70
     8
  9
$HANDSEED
  5
8D
  9
$SURFTAB1
 70
     6
  9
$SURFTAB2
 70
     6
  9
$SURFTYPE
 70
     6
  9
$SURFU
 70
     6
  9
$SURFV
 70
     6
  9
$UCSBASE
  2

  9
$UCSNAME
  2

  9
$UCSORG
 10
0.0
 20
0.0
 30
0.0
  9
$UCSXDIR
 10
1.0
 20
0.0
 30
0.0
  9
$UCSYDIR
 10
0.0
 20
1.0
 30
0.0
  9
$UCSORTHOREF
  2

  9
$UCSORTHOVIEW
 70
     0
  9
$UCSORGTOP
 10
0.0
 20
0.0
 30
0.0
  9
$UCSORGBOTTOM
 10
0.0
 20
0.0
 30
0.0
  9
$UCSORGLEFT
 10
0.0
 20
0.0
 30
0.0
  9
$UCSORGRIGHT
 10
0.0
 20
0.0
 30
0.0
  9
$UCSORGFRONT
 10
0.0
 20
0.0
 30
0.0
  9
$UCSORGBACK
 10
0.0
 20
0.0
 30
0.0
  9
$PUCSBASE
  2

  9
$PUCSNAME
  2

  9
$PUCSORG
 10
0.0
 20
0.0
 30
0.0
  9
$PUCSXDIR
 10
1.0
 20
0.0
 30
0.0
  9
$PUCSYDIR
 10
0.0
 20
1.0
 30
0.0
  9
$PUCSORTHOREF
  2

  9
$PUCSORTHOVIEW
 70
     0
  9
$PUCSORGTOP
 10
0.0
 20
0.0
 30
0.0
  9
$PUCSORGBOTTOM
 10
0.0
 20
0.0
 30
0.0
  9
$PUCSORGLEFT
 10
0.0
 20
0.0
 30
0.0
  9
$PUCSORGRIGHT
 10
0.0
 20
0.0
 30
0.0
  9
$PUCSORGFRONT
 10
0.0
 20
0.0
 30
0.0
  9
$PUCSORGBACK
 10
0.0
 20
0.0
 30
0.0
  9
$USERI1
 70
     0
  9
$USERI2
 70
     0
  9
$USERI3
 70
     0
  9
$USERI4
 70
     0
  9
$USERI5
 70
     0
  9
$USERR1
 40
0.0
  9
$USERR2
 40
0.0
  9
$USERR3
 40
0.0
  9
$USERR4
 40
0.0
  9
$USERR5
 40
0.0
  9
$WORLDVIEW
 70
     1
  9
$SHADEDGE
 70
     3
  9
$SHADEDIF
 70
    70
  9
$TILEMODE
 70
     1
  9
$MAXACTVP
 70
    64
  9
$PINSBASE
 10
0.0
 20
0.0
 30
0.0
  9
$PLIMCHECK
 70
     0
  9
$PEXTMIN
 10
1.000000000000000E+20
 20
1.000000000000000E+20
 30
1.000000000000000E+20
  9
$PEXTMAX
 10
-1.000000000000000E+20
 20
-1.000000000000000E+20
 30
-1.000000000000000E+20
  9
$PLIMMIN
 10
0.0
 20
0.0
  9
$PLIMMAX
 10
12.0
 20
9.0
  9
$UNITMODE
 70
     0
  9
$VISRETAIN
 70
     1
  9
$PLINEGEN
 70
     0
  9
$PSLTSCALE
 70
     1
  9
$TREEDEPTH
 70
  3020
  9
$CMLSTYLE
  2
Standard
  9
$CMLJUST
 70
     0
  9
$CMLSCALE
 40
1.0
  9
$PROXYGRAPHICS
 70
     1
  9
$MEASUREMENT
 70
     0
  9
$CELWEIGHT
370
    -1
  9
$ENDCAPS
280
     0
  9
$JOINSTYLE
280
     0
  9
$LWDISPLAY
290
     0
  9
$INSUNITS
 70
     4
  9
$HYPERLINKBASE
  1

  9
$STYLESHEET
  1

  9
$XEDIT
290
     1
  9
$CEPSNTYPE
380
     0
  9
$PSTYLEMODE
290
     1
  9
$FINGERPRINTGUID
  2
{5526d956-1cdf-432c-9e50-e04b29b4bb79}
  9
$VERSIONGUID
  2
{FAEB1C32-E019-11D5-929B-00C0DF256EC4}
  9
$EXTNAMES
290
     1
  9
$PSVPSCALE
 40
0.0
  9
$OLESTARTUP
290
     0
  9
$SORTENTS
280
   127
  9
$INDEXCTL
280
     0
  9
$HIDETEXT
280
     1
  9
$XCLIPFRAME
280
     2
  9
$HALOGAP
280
     0
  9
$OBSCOLOR
 70
   257
  9
$OBSLTYPE
280
     0
  9
$INTERSECTIONDISPLAY
280
     0
  9
$INTERSECTIONCOLOR
 70
   257
  9
$DIMASSOC
280
     2
  9
$PROJECTNAME
  1

  9
$CAMERADISPLAY
290
     0
  9
$LENSLENGTH
 40
50.0
  9
$CAMERAHEIGHT
 40
0.0
  9
$STEPSPERSEC
 40
2.0
  9
$STEPSIZE
 40
6.0
  9
$3DDWFPREC
 40
2.0
  9
$PSOLWIDTH
 40
0.25
  9
$PSOLHEIGHT
 40
4.0
  9
$LOFTANG1
 40
1.570796326794897
  9
$LOFTANG2
 40
1.570796326794897
  9
$LOFTMAG1
 40
0.0
  9
$LOFTMAG2
 40
0.0
  9
$LOFTPARAM
 70
     7
  9
$LOFTNORMALS
280
     1
  9
$LATITUDE
 40
37.795
  9
$LONGITUDE
 40
-122.394
  9
$NORTHDIRECTION
 40
0.0
  9
$TIMEZONE
 70
 -8000
  9
$LIGHTGLYPHDISPLAY
280
     1
  9
$TILEMODELIGHTSYNCH
280
     1
  9
$CMATERIAL
347
44
  9
$SOLIDHIST
280
     0
  9
$SHOWHIST
280
     1
  9
$DWFFRAME
280
     2
  9
$DGNFRAME
280
     2
  9
$REALWORLDSCALE
290
     1
  9
$INTERFERECOLOR
 62
   256
  9
$CSHADOW
280
     0
  9
$SHADOWPLANELOCATION
 40
0.0
  0
ENDSEC
  0
SECTION
  2
CLASSES
  0
CLASS
  1
ACDBDICTIONARYWDFLT
  2
AcDbDictionaryWithDefault
  3
ObjectDBX Classes
 90
        0
 91
        3
280
     0
281
     0
  0
CLASS
  1
VISUALSTYLE
  2
AcDbVisualStyle
  3
ObjectDBX Classes
 90
     4095
 91
        3
280
     0
281
     0
  0
CLASS
  1
MATERIAL
  2
AcDbMaterial
  3
ObjectDBX Classes
 90
     1153
 91
        3
280
     0
281
     0
  0
CLASS
  1
SCALE
  2
AcDbScale
  3
ObjectDBX Classes
 90
     1153
 91
        3
280
     0
281
     0
  0
CLASS
  1
TABLESTYLE
  2
AcDbTableStyle
  3
ObjectDBX Classes
 90
     4095
 91
        3
280
     0
281
     0
  0
CLASS
  1
MLEADERSTYLE
  2
AcDbMLeaderStyle
  3
ACDB_MLEADERSTYLE_CLASS
 90
     4095
 91
        3
280
     0
281
     0
  0
CLASS
  1
SUN
  2
AcDbSun
  3
SCENEOE
 90
     1153
 91
        3
280
     0
281
     0
  0
CLASS
  1
DICTIONARYVAR
  2
AcDbDictionaryVar
  3
ObjectDBX Classes
 90
        0
 91
        3
280
     0
281
     0
  0
CLASS
  1
CELLSTYLEMAP
  2
AcDbCellStyleMap
  3
ObjectDBX Classes
 90
     1152
 91
        3
280
     0
281
     0
  0
ENDSEC
  0
SECTION
  2
TABLES
  0
TABLE
  2
VPORT
  5
8
330
0
100
AcDbSymbolTable
 70
     1
  0
VPORT
  5
29
330
8
100
AcDbSymbolTableRecord
100
AcDbViewportTableRecord
  2
*Active
 70
     0
 10
0.0
 20
0.0
 11
1.0
 21
1.0
 12
10.42990654205607
 22
4.5
 13
0.0
 23
0.0
 14
0.5
 24
0.5
 15
0.5
 25
0.5
 16
0.0
 26
0.0
 36
1.0
 17
0.0
 27
0.0
 37
0.0
 40
9.0
 41
1.972972972850329
 42
50.0
 43
0.0
 44
0.0
 50
0.0
 51
0.0
 71
     0
 72
   100
 73
     1
 74
     3
 75
     0
 76
     0
 77
     0
 78
     0
281
     0
 65
     1
110
0.0
120
0.0
130
0.0
111
1.0
121
0.0
131
0.0
112
0.0
122
1.0
132
0.0
 79
     0
146
0.0
348
2F
 60
     3
 61
     5
292
     1
282
     1
141
0.0
142
0.0
 63
   250
361
5D
  0
ENDTAB
  0
TABLE
  2
LTYPE
  5
5
330
0
100
AcDbSymbolTable
 70
     1
  0
LTYPE
  5
14
330
5
100
AcDbSymbolTableRecord
100
AcDbLinetypeTableRecord
  2
ByBlock
 70
     0
  3

 72
    65
 73
     0
 40
0.0
  0
LTYPE
  5
15
330
5
100
AcDbSymbolTableRecord
100
AcDbLinetypeTableRecord
  2
ByLayer
 70
     0
  3

 72
    65
 73
     0
 40
0.0
  0
LTYPE
  5
16
330
5
100
AcDbSymbolTableRecord
100
AcDbLinetypeTableRecord
  2
Continuous
 70
     0
  3
Solid line
 72
    65
 73
     0
 40
0.0
  0
ENDTAB
  0
TABLE
  2
LAYER
  5
2
330
0
100
AcDbSymbolTable
 70
     2
  0
LAYER
  5
10
330
2
100
AcDbSymbolTableRecord
100
AcDbLayerTableRecord
  2
0
 70
     0
 62
     7
  6
Continuous
370
    -3
390
F
347
46
348
0
  0
LAYER
  5
5F
330
2
100
AcDbSymbolTableRecord
100
AcDbLayerTableRecord
  2
Layer 1
 70
     0
 62
     7
  6
Continuous
370
    -3
390
F
347
46
348
0
  0
ENDTAB
  0
TABLE
  2
STYLE
  5
3
330
0
100
AcDbSymbolTable
 70
     1
  0
STYLE
  5
11
330
3
100
AcDbSymbolTableRecord
100
AcDbTextStyleTableRecord
  2
Standard
 70
     0
 40
0.0
 41
1.0
 50
0.0
 71
     0
 42
0.2
  3
txt
  4

  0
ENDTAB
  0
TABLE
  2
VIEW
  5
6
330
0
100
AcDbSymbolTable
 70
     0
  0
ENDTAB
  0
TABLE
  2
UCS
  5
7
330
0
100
AcDbSymbolTable
 70
     0
  0
ENDTAB
  0
TABLE
  2
APPID
  5
9
330
0
100
AcDbSymbolTable
 70
     2
  0
APPID
  5
12
330
9
100
AcDbSymbolTableRecord
100
AcDbRegAppTableRecord
  2
ACAD
 70
     0
  0
APPID
  5
5E
330
9
100
AcDbSymbolTableRecord
100
AcDbRegAppTableRecord
  2
ODA
 70
     0
  0
ENDTAB
  0
TABLE
  2
DIMSTYLE
  5
A
330
0
100
AcDbSymbolTable
 70
     1
100
AcDbDimStyleTable
  0
DIMSTYLE
105
27
330
A
100
AcDbSymbolTableRecord
100
AcDbDimStyleTableRecord
  2
Standard
 70
     0
178
     0
340
11
  0
ENDTAB
  0
TABLE
  2
BLOCK_RECORD
  5
1
330
0
100
AcDbSymbolTable
 70
     1
  0
BLOCK_RECORD
  5
1F
330
1
100
AcDbSymbolTableRecord
100
AcDbBlockTableRecord
  2
*Model_Space
340
22
 70
     0
280
     1
281
     0
  0
BLOCK_RECORD
  5
1B
330
1
100
AcDbSymbolTableRecord
100
AcDbBlockTableRecord
  2
*Paper_Space
340
1E
 70
     0
280
     1
281
     0
  0
BLOCK_RECORD
  5
23
330
1
100
AcDbSymbolTableRecord
100
AcDbBlockTableRecord
  2
*Paper_Space0
340
26
 70
     0
280
     1
281
     0
  0
ENDTAB
  0
ENDSEC
  0
SECTION
  2
BLOCKS
  0
BLOCK
  5
20
330
1F
100
AcDbEntity
  8
0
100
AcDbBlockBegin
  2
*Model_Space
 70
     0
 10
0.0
 20
0.0
 30
0.0
  3
*Model_Space
  1

  0
ENDBLK
  5
21
330
1F
100
AcDbEntity
  8
0
100
AcDbBlockEnd
  0
BLOCK
  5
1C
330
1B
100
AcDbEntity
 67
     1
  8
0
100
AcDbBlockBegin
  2
*Paper_Space
 70
     0
 10
0.0
 20
0.0
 30
0.0
  3
*Paper_Space
  1

  0
ENDBLK
  5
1D
330
1B
100
AcDbEntity
 67
     1
  8
0
100
AcDbBlockEnd
  0
BLOCK
  5
24
330
23
100
AcDbEntity
  8
0
100
AcDbBlockBegin
  2
*Paper_Space0
 70
     0
 10
0.0
 20
0.0
 30
0.0
  3
*Paper_Space0
  1

  0
ENDBLK
  5
25
330
23
100
AcDbEntity
  8
0
100
AcDbBlockEnd
  0
ENDSEC
  0
SECTION
  2
ENTITIES
  0
SPLINE
  5
60
330
1F
100
AcDbEntity
  8
Layer 1
 62
   250
370
    18
100
AcDbSpline
210
0.0
220
0.0
230
1.0
 70
    11
 71
     3
 72
    29
 73
    25
 74
     0
 42
0.0000000001
 43
0.0000000001
 40
0.0
 40
0.0
 40
0.0
 40
0.0
 40
0.125
 40
0.125
 40
0.125
 40
0.25
 40
0.25
 40
0.25
 40
0.375
 40
0.375
 40
0.375
 40
0.5
 40
0.5
 40
0.5
 40
0.625
 40
0.625
 40
0.625
 40
0.75
 40
0.75
 40
0.75
 40
0.875
 40
0.875
 40
0.875
 40
1.0
 40
1.0
 40
1.0
 40
1.0
 10
139.7017
 20
298.8817
 30
0.0
 10
139.7017
 20
298.8817
 30
0.0
 10
169.7017
 20
298.8817
 30
0.0
 10
169.7017
 20
298.8817
 30
0.0
 10
172.4556
 20
298.8817
 30
0.0
 10
174.7017
 20
296.6356
 30
0.0
 10
174.7017
 20
293.8817
 30
0.0
 10
174.7017
 20
293.8817
 30
0.0
 10
174.7017
 20
263.8817
 30
0.0
 10
174.7017
 20
263.8817
 30
0.0
 10
174.7017
 20
261.1278
 30
0.0
 10
172.4556
 20
258.8817
 30
0.0
 10
169.7017
 20
258.8817
 30
0.0
 10
169.7017
 20
258.8817
 30
0.0
 10
139.7017
 20
258.8817
 30
0.0
 10
139.7017
 20
258.8817
 30
0.0
 10
136.9478
 20
258.8817
 30
0.0
 10
134.7017
 20
261.1278
 30
0.0
 10
134.7017
 20
263.8817
 30
0.0
 10
134.7017
 20
263.8817
 30
0.0
 10
134.7017
 20
293.8817
 30
0.0
 10
134.7017
 20
293.8817
 30
0.0
 10
134.7017
 20
296.6356
 30
0.0
 10
136.9478
 20
298.8817
 30
0.0
 10
139.7017
 20
298.8817
 30
0.0
  0
SPLINE
  5
61
330
1F
100
AcDbEntity
  8
Layer 1
 62
   250
370
    18
100
AcDbSpline
210
0.0
220
0.0
230
1.0
 70
    11
 71
     3
 72
    98
 73
    94
 74
     0
 42
0.0000000001
 43
0.0000000001
 40
0.0
 40
0.0
 40
0.0
 40
0.0
 40
0.032258064516129
 40
0.032258064516129
 40
0.032258064516129
 40
0.0645161290322581
 40
0.0645161290322581
 40
0.0645161290322581
 40
0.0967741935483871
 40
0.0967741935483871
 40
0.0967741935483871
 40
0.1290322580645161
 40
0.1290322580645161
 40
0.1290322580645161
 40
0.1612903225806452
 40
0.1612903225806452
 40
0.1612903225806452
 40
0.1935483870967742
 40
0.1935483870967742
 40
0.1935483870967742
 40
0.2258064516129032
 40
0.2258064516129032
 40
0.2258064516129032
 40
0.2580645161290323
 40
0.2580645161290323
 40
0.2580645161290323
 40
0.2903225806451613
 40
0.2903225806451613
 40
0.2903225806451613
 40
0.3225806451612903
 40
0.3225806451612903
 40
0.3225806451612903
 40
0.3548387096774194
 40
0.3548387096774194
 40
0.3548387096774194
 40
0.3870967741935484
 40
0.3870967741935484
 40
0.3870967741935484
 40
0.4193548387096774
 40
0.4193548387096774
 40
0.4193548387096774
 40
0.4516129032258064
 40
0.4516129032258064
 40
0.4516129032258064
 40
0.4838709677419355
 40
0.4838709677419355
 40
0.4838709677419355
 40
0.5161290322580645
 40
0.5161290322580645
 40
0.5161290322580645
 40
0.5483870967741935
 40
0.5483870967741935
 40
0.5483870967741935
 40
0.5806451612903225
 40
0.5806451612903225
 40
0.5806451612903225
 40
0.6129032258064516
 40
0.6129032258064516
 40
0.6129032258064516
 40
0.6451612903225806
 40
0.6451612903225806
 40
0.6451612903225806
 40
0.6774193548387096
 40
0.6774193548387096
 40
0.6774193548387096
 40
0.7096774193548387
 40
0.7096774193548387
 40
0.7096774193548387
 40
0.7419354838709677
 40
0.7419354838709677
 40
0.7419354838709677
 40
0.7741935483870968
 40
0.7741935483870968
 40
0.7741935483870968
 40
0.8064516129032258
 40
0.8064516129032258
 40
0.8064516129032258
 40
0.8387096774193548
 40
0.8387096774193548
 40
0.8387096774193548
 40
0.8709677419354839
 40
0.8709677419354839
 40
0.8709677419354839
 40
0.9032258064516129
 40
0.9032258064516129
 40
0.9032258064516129
 40
0.9354838709677419
 40
0.9354838709677419
 40
0.9354838709677419
 40
0.967741935483871
 40
0.967741935483871
 40
0.967741935483871
 40
1.0
 40
1.0
 40
1.0
 40
1.0
 10
150.6672
 20
293.0123
 30
0.0
 10
150.6261
 20
292.786
 30
0.0
 10
150.5643
 20
292.5905
 30
0.0
 10
150.482
 20
292.4238
 30
0.0
 10
150.3997
 20
292.2571
 30
0.0
 10
150.3153
 20
292.1522
 30
0.0
 10
150.2289
 20
292.111
 30
0.0
 10
150.1425
 20
292.0678
 30
0.0
 10
150.0334
 20
292.039
 30
0.0
 10
149.9017
 20
292.0225
 30
0.0
 10
149.8359
 20
291.9217
 30
0.0
 10
149.7556
 20
291.8373
 30
0.0
 10
149.6589
 20
291.7673
 30
0.0
 10
149.5642
 20
291.6974
 30
0.0
 10
149.4284
 20
291.65
 30
0.0
 10
149.2555
 20
291.6253
 30
0.0
 10
149.2473
 20
291.6253
 30
0.0
 10
149.235
 20
291.5924
 30
0.0
 10
149.2206
 20
291.5286
 30
0.0
 10
149.1362
 20
290.7981
 30
0.0
 10
148.9777
 20
290.1375
 30
0.0
 10
148.7493
 20
289.551
 30
0.0
 10
148.5723
 20
289.1003
 30
0.0
 10
148.346
 20
288.6785
 30
0.0
 10
148.0681
 20
288.2854
 30
0.0
 10
147.4179
 20
287.4047
 30
0.0
 10
146.6359
 20
286.9602
 30
0.0
 10
145.7222
 20
286.9519
 30
0.0
 10
145.2489
 20
286.9725
 30
0.0
 10
144.8723
 20
287.1289
 30
0.0
 10
144.5945
 20
287.4232
 30
0.0
 10
144.3187
 20
287.7113
 30
0.0
 10
144.1705
 20
288.1167
 30
0.0
 10
144.1561
 20
288.6353
 30
0.0
 10
144.152
 20
289.4543
 30
0.0
 10
144.4195
 20
290.3453
 30
0.0
 10
144.9628
 20
291.3064
 30
0.0
 10
145.0678
 20
291.4978
 30
0.0
 10
145.1295
 20
291.5595
 30
0.0
 10
145.1501
 20
291.4875
 30
0.0
 10
145.1707
 20
291.4175
 30
0.0
 10
145.1686
 20
291.3475
 30
0.0
 10
145.1439
 20
291.2755
 30
0.0
 10
144.7858
 20
290.5676
 30
0.0
 10
144.6027
 20
289.9564
 30
0.0
 10
144.5945
 20
289.4419
 30
0.0
 10
144.615
 20
289.0489
 30
0.0
 10
144.757
 20
288.7505
 30
0.0
 10
145.0204
 20
288.5468
 30
0.0
 10
145.2839
 20
288.3451
 30
0.0
 10
145.6234
 20
288.2401
 30
0.0
 10
146.037
 20
288.236
 30
0.0
 10
146.5597
 20
288.236
 30
0.0
 10
147.0618
 20
288.376
 30
0.0
 10
147.5434
 20
288.6517
 30
0.0
 10
147.9015
 20
288.8945
 30
0.0
 10
148.1896
 20
289.1929
 30
0.0
 10
148.4056
 20
289.551
 30
0.0
 10
148.7225
 20
290.0531
 30
0.0
 10
148.8728
 20
290.7446
 30
0.0
 10
148.8522
 20
291.6253
 30
0.0
 10
148.8522
 20
291.6253
 30
0.0
 10
148.8522
 20
292.004
 30
0.0
 10
148.8522
 20
292.004
 30
0.0
 10
148.8687
 20
292.2571
 30
0.0
 10
148.9942
 20
292.3867
 30
0.0
 10
149.2308
 20
292.3909
 30
0.0
 10
149.2926
 20
292.3909
 30
0.0
 10
149.3523
 20
292.3847
 30
0.0
 10
149.4119
 20
292.3723
 30
0.0
 10
149.4737
 20
292.36
 30
0.0
 10
149.5169
 20
292.3538
 30
0.0
 10
149.5457
 20
292.3538
 30
0.0
 10
149.6897
 20
292.3538
 30
0.0
 10
149.805
 20
292.3991
 30
0.0
 10
149.8914
 20
292.4896
 30
0.0
 10
149.9778
 20
292.5802
 30
0.0
 10
150.0437
 20
292.6687
 30
0.0
 10
150.0869
 20
292.753
 30
0.0
 10
150.1034
 20
292.7757
 30
0.0
 10
150.1651
 20
292.7839
 30
0.0
 10
150.268
 20
292.7757
 30
0.0
 10
150.3359
 20
292.7757
 30
0.0
 10
150.3915
 20
292.8066
 30
0.0
 10
150.4306
 20
292.8662
 30
0.0
 10
150.4717
 20
292.928
 30
0.0
 10
150.5047
 20
292.9918
 30
0.0
 10
150.5273
 20
293.0597
 30
0.0
 10
150.5685
 20
293.1564
 30
0.0
 10
150.6096
 20
293.1975
 30
0.0
 10
150.6549
 20
293.1811
 30
0.0
 10
150.6796
 20
293.1729
 30
0.0
 10
150.6837
 20
293.1152
 30
0.0
 10
150.6672
 20
293.0123
 30
0.0
  0
SPLINE
  5
62
330
1F
100
AcDbEntity
  8
Layer 1
 62
   250
370
    18
100
AcDbSpline
210
0.0
220
0.0
230
1.0
 70
    11
 71
     3
 72
   203
 73
   199
 74
     0
 42
0.0000000001
 43
0.0000000001
 40
0.0
 40
0.0
 40
0.0
 40
0.0
 40
0.0151515151515152
 40
0.0151515151515152
 40
0.0151515151515152
 40
0.0303030303030303
 40
0.0303030303030303
 40
0.0303030303030303
 40
0.0454545454545455
 40
0.0454545454545455
 40
0.0454545454545455
 40
0.0606060606060606
 40
0.0606060606060606
 40
0.0606060606060606
 40
0.0757575757575758
 40
0.0757575757575758
 40
0.0757575757575758
 40
0.0909090909090909
 40
0.0909090909090909
 40
0.0909090909090909
 40
0.1060606060606061
 40
0.1060606060606061
 40
0.1060606060606061
 40
0.1212121212121212
 40
0.1212121212121212
 40
0.1212121212121212
 40
0.1363636363636364
 40
0.1363636363636364
 40
0.1363636363636364
 40
0.1515151515151515
 40
0.1515151515151515
 40
0.1515151515151515
 40
0.1666666666666667
 40
0.1666666666666667
 40
0.1666666666666667
 40
0.1818181818181818
 40
0.1818181818181818
 40
0.1818181818181818
 40
0.196969696969697
 40
0.196969696969697
 40
0.196969696969697
 40
0.2121212121212121
 40
0.2121212121212121
 40
0.2121212121212121
 40
0.2272727272727273
 40
0.2272727272727273
 40
0.2272727272727273
 40
0.2424242424242424
 40
0.2424242424242424
 40
0.2424242424242424
 40
0.2575757575757576
 40
0.2575757575757576
 40
0.2575757575757576
 40
0.2727272727272727
 40
0.2727272727272727
 40
0.2727272727272727
 40
0.2878787878787879
 40
0.2878787878787879
 40
0.2878787878787879
 40
0.303030303030303
 40
0.303030303030303
 40
0.303030303030303
 40
0.3181818181818182
 40
0.3181818181818182
 40
0.3181818181818182
 40
0.3333333333333334
 40
0.3333333333333334
 40
0.3333333333333334
 40
0.3484848484848485
 40
0.3484848484848485
 40
0.3484848484848485
 40
0.3636363636363636
 40
0.3636363636363636
 40
0.3636363636363636
 40
0.3787878787878788
 40
0.3787878787878788
 40
0.3787878787878788
 40
0.3939393939393939
 40
0.3939393939393939
 40
0.3939393939393939
 40
0.4090909090909091
 40
0.4090909090909091
 40
0.4090909090909091
 40
0.4242424242424243
 40
0.4242424242424243
 40
0.4242424242424243
 40
0.4393939393939394
 40
0.4393939393939394
 40
0.4393939393939394
 40
0.4545454545454546
 40
0.4545454545454546
 40
0.4545454545454546
 40
0.4696969696969697
 40
0.4696969696969697
 40
0.4696969696969697
 40
0.4848484848484849
 40
0.4848484848484849
 40
0.4848484848484849
 40
0.5
 40
0.5
 40
0.5
 40
0.5151515151515151
 40
0.5151515151515151
 40
0.5151515151515151
 40
0.5303030303030303
 40
0.5303030303030303
 40
0.5303030303030303
 40
0.5454545454545454
 40
0.5454545454545454
 40
0.5454545454545454
 40
0.5606060606060607
 40
0.5606060606060607
 40
0.5606060606060607
 40
0.5757575757575758
 40
0.5757575757575758
 40
0.5757575757575758
 40
0.5909090909090909
 40
0.5909090909090909
 40
0.5909090909090909
 40
0.6060606060606061
 40
0.6060606060606061
 40
0.6060606060606061
 40
0.6212121212121212
 40
0.6212121212121212
 40
0.6212121212121212
 40
0.6363636363636364
 40
0.6363636363636364
 40
0.6363636363636364
 40
0.6515151515151515
 40
0.6515151515151515
 40
0.6515151515151515
 40
0.6666666666666667
 40
0.6666666666666667
 40
0.6666666666666667
 40
0.6818181818181819
 40
0.6818181818181819
 40
0.6818181818181819
 40
0.696969696969697
 40
0.696969696969697
 40
0.696969696969697
 40
0.7121212121212122
 40
0.7121212121212122
 40
0.7121212121212122
 40
0.7272727272727273
 40
0.7272727272727273
 40
0.7272727272727273
 40
0.7424242424242424
 40
0.7424242424242424
 40
0.7424242424242424
 40
0.7575757575757576
 40
0.7575757575757576
 40
0.7575757575757576
 40
0.7727272727272727
 40
0.7727272727272727
 40
0.7727272727272727
 40
0.7878787878787878
 40
0.7878787878787878
 40
0.7878787878787878
 40
0.8030303030303031
 40
0.8030303030303031
 40
0.8030303030303031
 40
0.8181818181818182
 40
0.8181818181818182
 40
0.8181818181818182
 40
0.8333333333333334
 40
0.8333333333333334
 40
0.8333333333333334
 40
0.8484848484848485
 40
0.8484848484848485
 40
0.8484848484848485
 40
0.8636363636363636
 40
0.8636363636363636
 40
0.8636363636363636
 40
0.8787878787878788
 40
0.8787878787878788
 40
0.8787878787878788
 40
0.8939393939393939
 40
0.8939393939393939
 40
0.8939393939393939
 40
0.9090909090909092
 40
0.9090909090909092
 40
0.9090909090909092
 40
0.9242424242424243
 40
0.9242424242424243
 40
0.9242424242424243
 40
0.9393939393939394
 40
0.9393939393939394
 40
0.9393939393939394
 40
0.9545454545454546
 40
0.9545454545454546
 40
0.9545454545454546
 40
0.9696969696969697
 40
0.9696969696969697
 40
0.9696969696969697
 40
0.9848484848484849
 40
0.9848484848484849
 40
0.9848484848484849
 40
1.0
 40
1.0
 40
1.0
 40
1.0
 10
162.0683
 20
292.4452
 30
0.0
 10
162.0772
 20
292.3478
 30
0.0
 10
162.0951
 20
292.2537
 30
0.0
 10
162.1214
 20
292.1624
 30
0.0
 10
162.1749
 20
291.9978
 30
0.0
 10
162.2737
 20
291.8785
 30
0.0
 10
162.4177
 20
291.8085
 30
0.0
 10
162.5618
 20
291.7385
 30
0.0
 10
162.7243
 20
291.6974
 30
0.0
 10
162.9054
 20
291.685
 30
0.0
 10
162.9054
 20
291.685
 30
0.0
 10
163.2676
 20
292.2159
 30
0.0
 10
163.2676
 20
292.2159
 30
0.0
 10
163.3273
 20
292.3168
 30
0.0
 10
163.3808
 20
292.4876
 30
0.0
 10
163.424
 20
292.7284
 30
0.0
 10
163.4446
 20
292.8601
 30
0.0
 10
163.4569
 20
293.1523
 30
0.0
 10
163.461
 20
293.5988
 30
0.0
 10
163.4652
 20
294.0474
 30
0.0
 10
163.4837
 20
294.3808
 30
0.0
 10
163.5207
 20
294.5969
 30
0.0
 10
163.5619
 20
294.7986
 30
0.0
 10
163.6401
 20
295.0579
 30
0.0
 10
163.7553
 20
295.3768
 30
0.0
 10
163.8726
 20
295.6979
 30
0.0
 10
163.9446
 20
295.8831
 30
0.0
 10
163.9693
 20
295.9325
 30
0.0
 10
163.9961
 20
295.9818
 30
0.0
 10
164.0167
 20
296.023
 30
0.0
 10
164.0331
 20
296.0559
 30
0.0
 10
164.0537
 20
296.0888
 30
0.0
 10
164.0722
 20
296.095
 30
0.0
 10
164.0866
 20
296.0765
 30
0.0
 10
164.1031
 20
296.058
 30
0.0
 10
164.1072
 20
296.0271
 30
0.0
 10
164.099
 20
295.9818
 30
0.0
 10
164.0558
 20
295.7123
 30
0.0
 10
164.0249
 20
295.4941
 30
0.0
 10
164.0084
 20
295.3233
 30
0.0
 10
163.994
 20
295.1525
 30
0.0
 10
163.9858
 20
294.9899
 30
0.0
 10
163.9879
 20
294.8356
 30
0.0
 10
163.9899
 20
294.6813
 30
0.0
 10
163.9879
 20
294.4817
 30
0.0
 10
163.9796
 20
294.2368
 30
0.0
 10
163.9714
 20
293.9919
 30
0.0
 10
163.9467
 20
293.7655
 30
0.0
 10
163.9055
 20
293.5597
 30
0.0
 10
163.8664
 20
293.3519
 30
0.0
 10
163.8171
 20
293.1523
 30
0.0
 10
163.7553
 20
292.9568
 30
0.0
 10
163.6956
 20
292.7633
 30
0.0
 10
163.6545
 20
292.6399
 30
0.0
 10
163.636
 20
292.5864
 30
0.0
 10
163.7327
 20
292.7078
 30
0.0
 10
163.85
 20
292.8457
 30
0.0
 10
163.992
 20
293.0041
 30
0.0
 10
164.2595
 20
293.2943
 30
0.0
 10
164.5044
 20
293.4383
 30
0.0
 10
164.7205
 20
293.4383
 30
0.0
 10
164.8522
 20
293.4383
 30
0.0
 10
164.9736
 20
293.3951
 30
0.0
 10
165.0826
 20
293.3107
 30
0.0
 10
165.1938
 20
293.2305
 30
0.0
 10
165.2514
 20
293.1173
 30
0.0
 10
165.2514
 20
292.9671
 30
0.0
 10
165.2514
 20
292.5802
 30
0.0
 10
165.023
 20
292.0925
 30
0.0
 10
164.5702
 20
291.4998
 30
0.0
 10
164.0146
 20
290.7837
 30
0.0
 10
163.4075
 20
290.4256
 30
0.0
 10
162.749
 20
290.4256
 30
0.0
 10
162.3524
 20
290.4256
 30
0.0
 10
162.0519
 20
290.5458
 30
0.0
 10
161.846
 20
290.7878
 30
0.0
 10
161.8312
 20
290.7395
 30
0.0
 10
161.8167
 20
290.6957
 30
0.0
 10
161.8024
 20
290.6561
 30
0.0
 10
161.7675
 20
290.5367
 30
0.0
 10
161.716
 20
290.3947
 30
0.0
 10
161.6481
 20
290.2322
 30
0.0
 10
161.5823
 20
290.0696
 30
0.0
 10
161.4896
 20
289.8967
 30
0.0
 10
161.3723
 20
289.7156
 30
0.0
 10
161.253
 20
289.5345
 30
0.0
 10
161.1336
 20
289.3884
 30
0.0
 10
161.0122
 20
289.2753
 30
0.0
 10
160.825
 20
289.1127
 30
0.0
 10
160.6253
 20
289.0345
 30
0.0
 10
160.4154
 20
289.0386
 30
0.0
 10
160.3084
 20
289.0427
 30
0.0
 10
160.2097
 20
289.0715
 30
0.0
 10
160.1212
 20
289.125
 30
0.0
 10
160.0368
 20
289.1806
 30
0.0
 10
159.9586
 20
289.2506
 30
0.0
 10
159.8866
 20
289.3308
 30
0.0
 10
159.8207
 20
289.3823
 30
0.0
 10
159.7816
 20
289.4172
 30
0.0
 10
159.7652
 20
289.4317
 30
0.0
 10
159.7096
 20
289.4852
 30
0.0
 10
159.6808
 20
289.5387
 30
0.0
 10
159.6808
 20
289.5942
 30
0.0
 10
159.6808
 20
289.6354
 30
0.0
 10
159.7014
 20
289.6827
 30
0.0
 10
159.7405
 20
289.7342
 30
0.0
 10
159.7816
 20
289.7856
 30
0.0
 10
159.8269
 20
289.8453
 30
0.0
 10
159.8804
 20
289.9091
 30
0.0
 10
159.903
 20
289.9399
 30
0.0
 10
159.936
 20
289.9893
 30
0.0
 10
159.9751
 20
290.0531
 30
0.0
 10
160.0162
 20
290.1169
 30
0.0
 10
160.0512
 20
290.2034
 30
0.0
 10
160.0821
 20
290.3104
 30
0.0
 10
160.1109
 20
290.4153
 30
0.0
 10
160.1376
 20
290.5552
 30
0.0
 10
160.1561
 20
290.7281
 30
0.0
 10
160.1726
 20
290.901
 30
0.0
 10
160.1829
 20
291.0512
 30
0.0
 10
160.187
 20
291.1747
 30
0.0
 10
160.187
 20
291.1747
 30
0.0
 10
160.1994
 20
291.5492
 30
0.0
 10
160.1994
 20
291.5492
 30
0.0
 10
160.2035
 20
291.6768
 30
0.0
 10
160.2035
 20
291.8126
 30
0.0
 10
160.1994
 20
291.9525
 30
0.0
 10
160.2076
 20
292.323
 30
0.0
 10
160.2714
 20
292.7242
 30
0.0
 10
160.3928
 20
293.1584
 30
0.0
 10
160.4772
 20
293.4527
 30
0.0
 10
160.6109
 20
293.8478
 30
0.0
 10
160.7961
 20
294.3458
 30
0.0
 10
160.8085
 20
294.3788
 30
0.0
 10
160.8208
 20
294.3993
 30
0.0
 10
160.8332
 20
294.4117
 30
0.0
 10
160.8435
 20
294.424
 30
0.0
 10
160.8538
 20
294.4302
 30
0.0
 10
160.862
 20
294.4302
 30
0.0
 10
160.8908
 20
294.4261
 30
0.0
 10
160.9032
 20
294.35
 30
0.0
 10
160.899
 20
294.2018
 30
0.0
 10
160.8949
 20
294.1298
 30
0.0
 10
160.8867
 20
294.0125
 30
0.0
 10
160.8743
 20
293.852
 30
0.0
 10
160.862
 20
293.6873
 30
0.0
 10
160.8538
 20
293.5824
 30
0.0
 10
160.8497
 20
293.5392
 30
0.0
 10
160.8497
 20
293.5392
 30
0.0
 10
160.7179
 20
291.9711
 30
0.0
 10
160.7179
 20
291.9711
 30
0.0
 10
160.7097
 20
291.7817
 30
0.0
 10
160.6871
 20
291.5677
 30
0.0
 10
160.6521
 20
291.3249
 30
0.0
 10
160.6109
 20
291.0924
 30
0.0
 10
160.5533
 20
290.866
 30
0.0
 10
160.4772
 20
290.6437
 30
0.0
 10
160.3722
 20
290.3186
 30
0.0
 10
160.2364
 20
290.0387
 30
0.0
 10
160.0718
 20
289.8062
 30
0.0
 10
160.08
 20
289.7897
 30
0.0
 10
160.1129
 20
289.7815
 30
0.0
 10
160.1685
 20
289.7815
 30
0.0
 10
160.1685
 20
289.7815
 30
0.0
 10
160.3208
 20
289.7753
 30
0.0
 10
160.3208
 20
289.7753
 30
0.0
 10
160.541
 20
289.7671
 30
0.0
 10
160.7612
 20
289.8515
 30
0.0
 10
160.9834
 20
290.0264
 30
0.0
 10
161.2036
 20
290.2013
 30
0.0
 10
161.3456
 20
290.3865
 30
0.0
 10
161.4053
 20
290.5799
 30
0.0
 10
161.465
 20
290.7754
 30
0.0
 10
161.4979
 20
290.9709
 30
0.0
 10
161.502
 20
291.1685
 30
0.0
 10
161.5287
 20
291.6233
 30
0.0
 10
161.5514
 20
292.0184
 30
0.0
 10
161.5678
 20
292.3538
 30
0.0
 10
161.5843
 20
292.6893
 30
0.0
 10
161.609
 20
292.9609
 30
0.0
 10
161.644
 20
293.1708
 30
0.0
 10
161.6769
 20
293.3786
 30
0.0
 10
161.7325
 20
293.6071
 30
0.0
 10
161.8086
 20
293.852
 30
0.0
 10
161.8848
 20
294.0968
 30
0.0
 10
162.0062
 20
294.4137
 30
0.0
 10
162.1708
 20
294.8047
 30
0.0
 10
162.1955
 20
294.8438
 30
0.0
 10
162.2161
 20
294.8603
 30
0.0
 10
162.2367
 20
294.8521
 30
0.0
 10
162.2572
 20
294.8438
 30
0.0
 10
162.249
 20
294.6874
 30
0.0
 10
162.2099
 20
294.3788
 30
0.0
 10
162.1708
 20
294.0721
 30
0.0
 10
162.1317
 20
293.6174
 30
0.0
 10
162.0926
 20
293.0144
 30
0.0
 10
162.0885
 20
292.8575
 30
0.0
 10
162.0805
 20
292.6686
 30
0.0
 10
162.0683
 20
292.4452
 30
0.0
  0
SPLINE
  5
63
330
1F
100
AcDbEntity
  8
Layer 1
 62
   250
370
    18
100
AcDbSpline
210
0.0
220
0.0
230
1.0
 70
    11
 71
     3
 72
    26
 73
    22
 74
     0
 42
0.0000000001
 43
0.0000000001
 40
0.0
 40
0.0
 40
0.0
 40
0.0
 40
0.1428571428571428
 40
0.1428571428571428
 40
0.1428571428571428
 40
0.2857142857142857
 40
0.2857142857142857
 40
0.2857142857142857
 40
0.4285714285714285
 40
0.4285714285714285
 40
0.4285714285714285
 40
0.5714285714285714
 40
0.5714285714285714
 40
0.5714285714285714
 40
0.7142857142857142
 40
0.7142857142857142
 40
0.7142857142857142
 40
0.8571428571428571
 40
0.8571428571428571
 40
0.8571428571428571
 40
1.0
 40
1.0
 40
1.0
 40
1.0
 10
164.8048
 20
292.4114
 30
0.0
 10
164.8048
 20
292.4629
 30
0.0
 10
164.7575
 20
292.5185
 30
0.0
 10
164.6608
 20
292.5802
 30
0.0
 10
164.5558
 20
292.6399
 30
0.0
 10
164.4509
 20
292.6707
 30
0.0
 10
164.3459
 20
292.6707
 30
0.0
 10
164.1546
 20
292.679
 30
0.0
 10
163.92
 20
292.5267
 30
0.0
 10
163.6483
 20
292.218
 30
0.0
 10
163.566
 20
292.1336
 30
0.0
 10
163.4117
 20
291.9505
 30
0.0
 10
163.1832
 20
291.6686
 30
0.0
 10
163.5207
 20
291.685
 30
0.0
 10
163.7985
 20
291.7323
 30
0.0
 10
164.0187
 20
291.8085
 30
0.0
 10
164.2369
 20
291.8846
 30
0.0
 10
164.4221
 20
291.9855
 30
0.0
 10
164.5702
 20
292.1089
 30
0.0
 10
164.7266
 20
292.2345
 30
0.0
 10
164.8048
 20
292.3353
 30
0.0
 10
164.8048
 20
292.4114
 30
0.0
  0
SPLINE
  5
64
330
1F
100
AcDbEntity
  8
Layer 1
 62
   250
370
    18
100
AcDbSpline
210
0.0
220
0.0
230
1.0
 70
    11
 71
     3
 72
   170
 73
   166
 74
     0
 42
0.0000000001
 43
0.0000000001
 40
0.0
 40
0.0
 40
0.0
 40
0.0
 40
0.0181818181818182
 40
0.0181818181818182
 40
0.0181818181818182
 40
0.0363636363636364
 40
0.0363636363636364
 40
0.0363636363636364
 40
0.0545454545454545
 40
0.0545454545454545
 40
0.0545454545454545
 40
0.0727272727272727
 40
0.0727272727272727
 40
0.0727272727272727
 40
0.0909090909090909
 40
0.0909090909090909
 40
0.0909090909090909
 40
0.1090909090909091
 40
0.1090909090909091
 40
0.1090909090909091
 40
0.1272727272727273
 40
0.1272727272727273
 40
0.1272727272727273
 40
0.1454545454545454
 40
0.1454545454545454
 40
0.1454545454545454
 40
0.1636363636363636
 40
0.1636363636363636
 40
0.1636363636363636
 40
0.1818181818181818
 40
0.1818181818181818
 40
0.1818181818181818
 40
0.2
 40
0.2
 40
0.2
 40
0.2181818181818182
 40
0.2181818181818182
 40
0.2181818181818182
 40
0.2363636363636364
 40
0.2363636363636364
 40
0.2363636363636364
 40
0.2545454545454545
 40
0.2545454545454545
 40
0.2545454545454545
 40
0.2727272727272727
 40
0.2727272727272727
 40
0.2727272727272727
 40
0.2909090909090909
 40
0.2909090909090909
 40
0.2909090909090909
 40
0.3090909090909091
 40
0.3090909090909091
 40
0.3090909090909091
 40
0.3272727272727273
 40
0.3272727272727273
 40
0.3272727272727273
 40
0.3454545454545455
 40
0.3454545454545455
 40
0.3454545454545455
 40
0.3636363636363636
 40
0.3636363636363636
 40
0.3636363636363636
 40
0.3818181818181818
 40
0.3818181818181818
 40
0.3818181818181818
 40
0.4
 40
0.4
 40
0.4
 40
0.4181818181818182
 40
0.4181818181818182
 40
0.4181818181818182
 40
0.4363636363636363
 40
0.4363636363636363
 40
0.4363636363636363
 40
0.4545454545454545
 40
0.4545454545454545
 40
0.4545454545454545
 40
0.4727272727272727
 40
0.4727272727272727
 40
0.4727272727272727
 40
0.4909090909090909
 40
0.4909090909090909
 40
0.4909090909090909
 40
0.509090909090909
 40
0.509090909090909
 40
0.509090909090909
 40
0.5272727272727272
 40
0.5272727272727272
 40
0.5272727272727272
 40
0.5454545454545454
 40
0.5454545454545454
 40
0.5454545454545454
 40
0.5636363636363636
 40
0.5636363636363636
 40
0.5636363636363636
 40
0.5818181818181818
 40
0.5818181818181818
 40
0.5818181818181818
 40
0.6
 40
0.6
 40
0.6
 40
0.6181818181818182
 40
0.6181818181818182
 40
0.6181818181818182
 40
0.6363636363636364
 40
0.6363636363636364
 40
0.6363636363636364
 40
0.6545454545454545
 40
0.6545454545454545
 40
0.6545454545454545
 40
0.6727272727272727
 40
0.6727272727272727
 40
0.6727272727272727
 40
0.6909090909090909
 40
0.6909090909090909
 40
0.6909090909090909
 40
0.7090909090909091
 40
0.7090909090909091
 40
0.7090909090909091
 40
0.7272727272727273
 40
0.7272727272727273
 40
0.7272727272727273
 40
0.7454545454545454
 40
0.7454545454545454
 40
0.7454545454545454
 40
0.7636363636363636
 40
0.7636363636363636
 40
0.7636363636363636
 40
0.7818181818181817
 40
0.7818181818181817
 40
0.7818181818181817
 40
0.7999999999999999
 40
0.7999999999999999
 40
0.7999999999999999
 40
0.8181818181818181
 40
0.8181818181818181
 40
0.8181818181818181
 40
0.8363636363636363
 40
0.8363636363636363
 40
0.8363636363636363
 40
0.8545454545454545
 40
0.8545454545454545
 40
0.8545454545454545
 40
0.8727272727272727
 40
0.8727272727272727
 40
0.8727272727272727
 40
0.8909090909090909
 40
0.8909090909090909
 40
0.8909090909090909
 40
0.9090909090909091
 40
0.9090909090909091
 40
0.9090909090909091
 40
0.9272727272727272
 40
0.9272727272727272
 40
0.9272727272727272
 40
0.9454545454545454
 40
0.9454545454545454
 40
0.9454545454545454
 40
0.9636363636363636
 40
0.9636363636363636
 40
0.9636363636363636
 40
0.9818181818181818
 40
0.9818181818181818
 40
0.9818181818181818
 40
1.0
 40
1.0
 40
1.0
 40
1.0
 10
159.3248
 20
293.9343
 30
0.0
 10
159.3104
 20
293.8334
 30
0.0
 10
159.2837
 20
293.7367
 30
0.0
 10
159.2507
 20
293.642
 30
0.0
 10
159.2158
 20
293.5474
 30
0.0
 10
159.1602
 20
293.4157
 30
0.0
 10
159.082
 20
293.2469
 30
0.0
 10
159.0038
 20
293.0782
 30
0.0
 10
158.9565
 20
292.9815
 30
0.0
 10
158.94
 20
292.9568
 30
0.0
 10
158.8762
 20
292.8559
 30
0.0
 10
158.8186
 20
292.8066
 30
0.0
 10
158.7713
 20
292.8066
 30
0.0
 10
158.7342
 20
292.8312
 30
0.0
 10
158.7033
 20
292.8539
 30
0.0
 10
158.6745
 20
292.8765
 30
0.0
 10
158.6457
 20
292.8992
 30
0.0
 10
158.621
 20
292.9094
 30
0.0
 10
158.5963
 20
292.9094
 30
0.0
 10
158.4955
 20
292.9094
 30
0.0
 10
158.3638
 20
292.8683
 30
0.0
 10
158.1992
 20
292.786
 30
0.0
 10
158.0325
 20
292.7037
 30
0.0
 10
157.8534
 20
292.572
 30
0.0
 10
157.6559
 20
292.3909
 30
0.0
 10
157.4583
 20
292.2098
 30
0.0
 10
157.304
 20
292.041
 30
0.0
 10
157.1929
 20
291.8846
 30
0.0
 10
157.0838
 20
291.7282
 30
0.0
 10
157.0282
 20
291.6192
 30
0.0
 10
157.0282
 20
291.5595
 30
0.0
 10
157.0282
 20
291.471
 30
0.0
 10
157.055
 20
291.401
 30
0.0
 10
157.1126
 20
291.3537
 30
0.0
 10
157.1599
 20
291.3167
 30
0.0
 10
157.2464
 20
291.2755
 30
0.0
 10
157.3719
 20
291.2282
 30
0.0
 10
157.4954
 20
291.1788
 30
0.0
 10
157.5797
 20
291.1397
 30
0.0
 10
157.6188
 20
291.1068
 30
0.0
 10
157.7526
 20
291.0142
 30
0.0
 10
157.8185
 20
290.8331
 30
0.0
 10
157.8185
 20
290.5635
 30
0.0
 10
157.8185
 20
290.191
 30
0.0
 10
157.7485
 20
289.763
 30
0.0
 10
157.6065
 20
289.2835
 30
0.0
 10
157.4666
 20
288.8019
 30
0.0
 10
157.2814
 20
288.3863
 30
0.0
 10
157.0529
 20
288.0323
 30
0.0
 10
156.9356
 20
287.8677
 30
0.0
 10
156.7998
 20
287.703
 30
0.0
 10
156.6434
 20
287.5384
 30
0.0
 10
156.487
 20
287.3717
 30
0.0
 10
156.3183
 20
287.2318
 30
0.0
 10
156.1372
 20
287.1145
 30
0.0
 10
155.7915
 20
286.8861
 30
0.0
 10
155.3922
 20
286.7708
 30
0.0
 10
154.9436
 20
286.7708
 30
0.0
 10
154.4333
 20
286.7791
 30
0.0
 10
154.0443
 20
286.9519
 30
0.0
 10
153.7789
 20
287.2894
 30
0.0
 10
153.6595
 20
287.4623
 30
0.0
 10
153.5751
 20
287.6454
 30
0.0
 10
153.5299
 20
287.8389
 30
0.0
 10
153.4825
 20
288.0323
 30
0.0
 10
153.4599
 20
288.2155
 30
0.0
 10
153.4599
 20
288.3883
 30
0.0
 10
153.4599
 20
288.6085
 30
0.0
 10
153.4764
 20
288.8246
 30
0.0
 10
153.5072
 20
289.0365
 30
0.0
 10
153.5402
 20
289.2464
 30
0.0
 10
153.5895
 20
289.4584
 30
0.0
 10
153.6575
 20
289.6724
 30
0.0
 10
153.7624
 20
290.0181
 30
0.0
 10
153.8879
 20
290.3515
 30
0.0
 10
154.0382
 20
290.6725
 30
0.0
 10
154.1863
 20
290.9936
 30
0.0
 10
154.3057
 20
291.2529
 30
0.0
 10
154.3983
 20
291.4504
 30
0.0
 10
154.3983
 20
291.4504
 30
0.0
 10
154.6823
 20
292.0534
 30
0.0
 10
154.6823
 20
292.0534
 30
0.0
 10
154.7152
 20
292.1213
 30
0.0
 10
154.7481
 20
292.1871
 30
0.0
 10
154.7852
 20
292.253
 30
0.0
 10
154.8201
 20
292.3168
 30
0.0
 10
154.8531
 20
292.3476
 30
0.0
 10
154.8819
 20
292.3476
 30
0.0
 10
154.921
 20
292.3476
 30
0.0
 10
154.9436
 20
292.3168
 30
0.0
 10
154.9457
 20
292.253
 30
0.0
 10
154.9477
 20
292.1871
 30
0.0
 10
154.9395
 20
292.1398
 30
0.0
 10
154.923
 20
292.1069
 30
0.0
 10
154.8798
 20
291.9916
 30
0.0
 10
154.8407
 20
291.8929
 30
0.0
 10
154.8099
 20
291.8147
 30
0.0
 10
154.7769
 20
291.7365
 30
0.0
 10
154.7296
 20
291.6233
 30
0.0
 10
154.6638
 20
291.4751
 30
0.0
 10
154.6
 20
291.3249
 30
0.0
 10
154.53
 20
291.1644
 30
0.0
 10
154.4559
 20
290.9915
 30
0.0
 10
154.3818
 20
290.8187
 30
0.0
 10
154.3201
 20
290.6767
 30
0.0
 10
154.2728
 20
290.5635
 30
0.0
 10
154.0361
 20
289.9379
 30
0.0
 10
153.9167
 20
289.4666
 30
0.0
 10
153.9167
 20
289.1538
 30
0.0
 10
153.9167
 20
288.8246
 30
0.0
 10
154.034
 20
288.5632
 30
0.0
 10
154.2707
 20
288.3698
 30
0.0
 10
154.5053
 20
288.1764
 30
0.0
 10
154.8366
 20
288.0796
 30
0.0
 10
155.2626
 20
288.0796
 30
0.0
 10
155.6165
 20
288.0796
 30
0.0
 10
155.9582
 20
288.1619
 30
0.0
 10
156.2895
 20
288.3266
 30
0.0
 10
156.5344
 20
288.4521
 30
0.0
 10
156.7401
 20
288.6023
 30
0.0
 10
156.9048
 20
288.7793
 30
0.0
 10
157.0694
 20
288.9563
 30
0.0
 10
157.1949
 20
289.123
 30
0.0
 10
157.2814
 20
289.2773
 30
0.0
 10
157.3678
 20
289.4317
 30
0.0
 10
157.411
 20
289.5716
 30
0.0
 10
157.411
 20
289.6951
 30
0.0
 10
157.411
 20
289.7712
 30
0.0
 10
157.3534
 20
289.8288
 30
0.0
 10
157.2381
 20
289.8638
 30
0.0
 10
157.1229
 20
289.9008
 30
0.0
 10
157.0406
 20
289.9255
 30
0.0
 10
156.9891
 20
289.9379
 30
0.0
 10
156.9398
 20
289.9482
 30
0.0
 10
156.8821
 20
289.9708
 30
0.0
 10
156.8163
 20
290.0037
 30
0.0
 10
156.6928
 20
290.0634
 30
0.0
 10
156.5981
 20
290.1396
 30
0.0
 10
156.5323
 20
290.2301
 30
0.0
 10
156.4685
 20
290.3207
 30
0.0
 10
156.4356
 20
290.4441
 30
0.0
 10
156.4356
 20
290.6005
 30
0.0
 10
156.4356
 20
290.8372
 30
0.0
 10
156.5138
 20
291.1397
 30
0.0
 10
156.6681
 20
291.5039
 30
0.0
 10
156.8225
 20
291.8702
 30
0.0
 10
157.0406
 20
292.2304
 30
0.0
 10
157.3225
 20
292.5843
 30
0.0
 10
157.553
 20
292.8724
 30
0.0
 10
157.7629
 20
293.1091
 30
0.0
 10
157.9502
 20
293.2881
 30
0.0
 10
158.051
 20
293.3807
 30
0.0
 10
158.1806
 20
293.4877
 30
0.0
 10
158.337
 20
293.605
 30
0.0
 10
158.4934
 20
293.7244
 30
0.0
 10
158.6457
 20
293.8252
 30
0.0
 10
158.7959
 20
293.9096
 30
0.0
 10
158.977
 20
294.0145
 30
0.0
 10
159.119
 20
294.0742
 30
0.0
 10
159.224
 20
294.0907
 30
0.0
 10
159.2672
 20
294.0907
 30
0.0
 10
159.2981
 20
294.0721
 30
0.0
 10
159.3145
 20
294.0372
 30
0.0
 10
159.3289
 20
294.0001
 30
0.0
 10
159.3331
 20
293.9672
 30
0.0
 10
159.3248
 20
293.9343
 30
0.0
  0
SPLINE
  5
65
330
1F
100
AcDbEntity
  8
Layer 1
 62
   250
370
    18
100
AcDbSpline
210
0.0
220
0.0
230
1.0
 70
    11
 71
     3
 72
    80
 73
    76
 74
     0
 42
0.0000000001
 43
0.0000000001
 40
0.0
 40
0.0
 40
0.0
 40
0.0
 40
0.04
 40
0.04
 40
0.04
 40
0.08
 40
0.08
 40
0.08
 40
0.12
 40
0.12
 40
0.12
 40
0.16
 40
0.16
 40
0.16
 40
0.2
 40
0.2
 40
0.2
 40
0.24
 40
0.24
 40
0.24
 40
0.28
 40
0.28
 40
0.28
 40
0.32
 40
0.32
 40
0.32
 40
0.36
 40
0.36
 40
0.36
 40
0.4
 40
0.4
 40
0.4
 40
0.44
 40
0.44
 40
0.44
 40
0.48
 40
0.48
 40
0.48
 40
0.52
 40
0.52
 40
0.52
 40
0.56
 40
0.56
 40
0.56
 40
0.6
 40
0.6
 40
0.6
 40
0.64
 40
0.64
 40
0.64
 40
0.68
 40
0.68
 40
0.68
 40
0.72
 40
0.72
 40
0.72
 40
0.76
 40
0.76
 40
0.76
 40
0.8
 40
0.8
 40
0.8
 40
0.84
 40
0.84
 40
0.84
 40
0.88
 40
0.88
 40
0.88
 40
0.92
 40
0.92
 40
0.92
 40
0.96
 40
0.96
 40
0.96
 40
1.0
 40
1.0
 40
1.0
 40
1.0
 10
151.6921
 20
291.3125
 30
0.0
 10
151.6921
 20
291.3125
 30
0.0
 10
151.6921
 20
291.1253
 30
0.0
 10
151.6921
 20
291.1253
 30
0.0
 10
151.6921
 20
290.7878
 30
0.0
 10
151.7826
 20
290.5511
 30
0.0
 10
151.9637
 20
290.4194
 30
0.0
 10
152.0728
 20
290.3474
 30
0.0
 10
152.1798
 20
290.3227
 30
0.0
 10
152.2889
 20
290.3474
 30
0.0
 10
152.3979
 20
290.37
 30
0.0
 10
152.4803
 20
290.4277
 30
0.0
 10
152.5399
 20
290.5161
 30
0.0
 10
152.5976
 20
290.6046
 30
0.0
 10
152.647
 20
290.7075
 30
0.0
 10
152.686
 20
290.8269
 30
0.0
 10
152.7272
 20
290.9442
 30
0.0
 10
152.7663
 20
291.0039
 30
0.0
 10
152.8013
 20
291.0039
 30
0.0
 10
152.8466
 20
291.0039
 30
0.0
 10
152.863
 20
290.9627
 30
0.0
 10
152.8548
 20
290.8783
 30
0.0
 10
152.8507
 20
290.7322
 30
0.0
 10
152.8075
 20
290.4976
 30
0.0
 10
152.721
 20
290.1725
 30
0.0
 10
152.6346
 20
289.8473
 30
0.0
 10
152.5152
 20
289.5798
 30
0.0
 10
152.3671
 20
289.3699
 30
0.0
 10
152.2189
 20
289.1621
 30
0.0
 10
152.0378
 20
289.0509
 30
0.0
 10
151.8259
 20
289.0386
 30
0.0
 10
151.6077
 20
289.0468
 30
0.0
 10
151.439
 20
289.1703
 30
0.0
 10
151.3176
 20
289.407
 30
0.0
 10
151.2106
 20
289.6395
 30
0.0
 10
151.1591
 20
289.942
 30
0.0
 10
151.1673
 20
290.3104
 30
0.0
 10
151.1673
 20
290.3104
 30
0.0
 10
151.1673
 20
290.3474
 30
0.0
 10
151.1673
 20
290.3474
 30
0.0
 10
151.1673
 20
290.3474
 30
0.0
 10
151.1673
 20
290.3536
 30
0.0
 10
151.1673
 20
290.3536
 30
0.0
 10
151.1673
 20
290.3536
 30
0.0
 10
151.1674
 20
290.354
 30
0.0
 10
151.1674
 20
290.354
 30
0.0
 10
151.172
 20
290.6664
 30
0.0
 10
151.2048
 20
291.1024
 30
0.0
 10
151.2661
 20
291.6583
 30
0.0
 10
151.3299
 20
292.2201
 30
0.0
 10
151.4225
 20
292.8395
 30
0.0
 10
151.548
 20
293.5186
 30
0.0
 10
151.6118
 20
293.7161
 30
0.0
 10
151.7415
 20
294.0639
 30
0.0
 10
151.939
 20
294.5619
 30
0.0
 10
151.9596
 20
294.6092
 30
0.0
 10
151.9802
 20
294.6298
 30
0.0
 10
152.0028
 20
294.6216
 30
0.0
 10
152.0255
 20
294.6134
 30
0.0
 10
152.0358
 20
294.5948
 30
0.0
 10
152.0358
 20
294.5619
 30
0.0
 10
152.0234
 20
294.317
 30
0.0
 10
151.974
 20
293.8478
 30
0.0
 10
151.8855
 20
293.1564
 30
0.0
 10
151.797
 20
292.4649
 30
0.0
 10
151.7415
 20
291.9916
 30
0.0
 10
151.723
 20
291.7344
 30
0.0
 10
151.703
 20
291.4852
 30
0.0
 10
151.6928
 20
291.3461
 30
0.0
 10
151.6921
 20
291.3152
 30
0.0
 10
151.6921
 20
291.3152
 30
0.0
 10
151.6921
 20
291.3137
 30
0.0
 10
151.6921
 20
291.3137
 30
0.0
 10
151.6921
 20
291.3137
 30
0.0
 10
151.6921
 20
291.3125
 30
0.0
 10
151.6921
 20
291.3125
 30
0.0
  0
SPLINE
  5
66
330
1F
100
AcDbEntity
  8
Layer 1
 62
   250
370
    18
100
AcDbSpline
210
0.0
220
0.0
230
1.0
 70
    11
 71
     3
 72
    53
 73
    49
 74
     0
 42
0.0000000001
 43
0.0000000001
 40
0.0
 40
0.0
 40
0.0
 40
0.0
 40
0.0625
 40
0.0625
 40
0.0625
 40
0.125
 40
0.125
 40
0.125
 40
0.1875
 40
0.1875
 40
0.1875
 40
0.25
 40
0.25
 40
0.25
 40
0.3125
 40
0.3125
 40
0.3125
 40
0.375
 40
0.375
 40
0.375
 40
0.4375
 40
0.4375
 40
0.4375
 40
0.5
 40
0.5
 40
0.5
 40
0.5625
 40
0.5625
 40
0.5625
 40
0.625
 40
0.625
 40
0.625
 40
0.6875
 40
0.6875
 40
0.6875
 40
0.75
 40
0.75
 40
0.75
 40
0.8125
 40
0.8125
 40
0.8125
 40
0.875
 40
0.875
 40
0.875
 40
0.9375
 40
0.9375
 40
0.9375
 40
1.0
 40
1.0
 40
1.0
 40
1.0
 10
150.9801
 20
284.8632
 30
0.0
 10
150.9801
 20
284.9146
 30
0.0
 10
151.0624
 20
285.0957
 30
0.0
 10
151.227
 20
285.4065
 30
0.0
 10
151.3917
 20
285.7151
 30
0.0
 10
151.4925
 20
285.8695
 30
0.0
 10
151.5295
 20
285.8695
 30
0.0
 10
151.5974
 20
285.8983
 30
0.0
 10
151.6962
 20
285.8489
 30
0.0
 10
151.8279
 20
285.7213
 30
0.0
 10
151.9576
 20
285.5958
 30
0.0
 10
152.0563
 20
285.4847
 30
0.0
 10
152.1263
 20
285.3879
 30
0.0
 10
152.2066
 20
285.5196
 30
0.0
 10
152.2951
 20
285.6699
 30
0.0
 10
152.3938
 20
285.8345
 30
0.0
 10
152.4926
 20
285.9991
 30
0.0
 10
152.5585
 20
286.0814
 30
0.0
 10
152.5893
 20
286.0814
 30
0.0
 10
152.6902
 20
286.0814
 30
0.0
 10
152.8095
 20
286.0074
 30
0.0
 10
152.9495
 20
285.8613
 30
0.0
 10
153.0873
 20
285.7151
 30
0.0
 10
153.1614
 20
285.5773
 30
0.0
 10
153.1696
 20
285.4476
 30
0.0
 10
153.1696
 20
285.2953
 30
0.0
 10
153.0935
 20
285.1142
 30
0.0
 10
152.9453
 20
284.9043
 30
0.0
 10
152.8013
 20
284.7006
 30
0.0
 10
152.6943
 20
284.5977
 30
0.0
 10
152.6264
 20
284.5977
 30
0.0
 10
152.5811
 20
284.5977
 30
0.0
 10
152.5008
 20
284.6553
 30
0.0
 10
152.3856
 20
284.7726
 30
0.0
 10
152.2683
 20
284.8899
 30
0.0
 10
152.1654
 20
284.9805
 30
0.0
 10
152.0769
 20
285.0443
 30
0.0
 10
151.8608
 20
284.606
 30
0.0
 10
151.688
 20
284.3878
 30
0.0
 10
151.5583
 20
284.3878
 30
0.0
 10
151.5275
 20
284.3878
 30
0.0
 10
151.4801
 20
284.4125
 30
0.0
 10
151.4205
 20
284.466
 30
0.0
 10
151.3649
 20
284.5134
 30
0.0
 10
151.2764
 20
284.5854
 30
0.0
 10
151.1591
 20
284.6821
 30
0.0
 10
151.0398
 20
284.7788
 30
0.0
 10
150.9801
 20
284.8385
 30
0.0
 10
150.9801
 20
284.8632
 30
0.0
  0
SPLINE
  5
67
330
1F
100
AcDbEntity
  8
Layer 1
 62
   250
370
     9
100
AcDbSpline
210
0.0
220
0.0
230
1.0
 70
    11
 71
     3
 72
    29
 73
    25
 74
     0
 42
0.0000000001
 43
0.0000000001
 40
0.0
 40
0.0
 40
0.0
 40
0.0
 40
0.125
 40
0.125
 40
0.125
 40
0.25
 40
0.25
 40
0.25
 40
0.375
 40
0.375
 40
0.375
 40
0.5
 40
0.5
 40
0.5
 40
0.625
 40
0.625
 40
0.625
 40
0.75
 40
0.75
 40
0.75
 40
0.875
 40
0.875
 40
0.875
 40
1.0
 40
1.0
 40
1.0
 40
1.0
 10
141.5969
 20
267.8635
 30
0.0
 10
141.4414
 20
267.9439
 30
0.0
 10
141.3006
 20
268.0339
 30
0.0
 10
141.1747
 20
268.1333
 30
0.0
 10
141.0699
 20
268.2138
 30
0.0
 10
140.9641
 20
268.3048
 30
0.0
 10
140.8582
 20
268.4053
 30
0.0
 10
140.8794
 20
268.4942
 30
0.0
 10
140.9175
 20
268.6138
 30
0.0
 10
140.9746
 20
268.7641
 30
0.0
 10
141.0318
 20
268.9133
 30
0.0
 10
141.0995
 20
269.0583
 30
0.0
 10
141.1778
 20
269.1959
 30
0.0
 10
141.2953
 20
269.0742
 30
0.0
 10
141.417
 20
268.9663
 30
0.0
 10
141.5419
 20
268.8721
 30
0.0
 10
141.6679
 20
268.7779
 30
0.0
 10
141.7853
 20
268.7017
 30
0.0
 10
141.8975
 20
268.6413
 30
0.0
 10
141.8478
 20
268.5524
 30
0.0
 10
141.7949
 20
268.4318
 30
0.0
 10
141.7377
 20
268.2783
 30
0.0
 10
141.6806
 20
268.1259
 30
0.0
 10
141.634
 20
267.9873
 30
0.0
 10
141.5969
 20
267.8635
 30
0.0
  0
SPLINE
  5
68
330
1F
100
AcDbEntity
  8
Layer 1
 62
   250
370
     9
100
AcDbSpline
210
0.0
220
0.0
230
1.0
 70
    11
 71
     3
 72
    62
 73
    58
 74
     0
 42
0.0000000001
 43
0.0000000001
 40
0.0
 40
0.0
 40
0.0
 40
0.0
 40
0.0526315789473684
 40
0.0526315789473684
 40
0.0526315789473684
 40
0.1052631578947368
 40
0.1052631578947368
 40
0.1052631578947368
 40
0.1578947368421053
 40
0.1578947368421053
 40
0.1578947368421053
 40
0.2105263157894737
 40
0.2105263157894737
 40
0.2105263157894737
 40
0.2631578947368421
 40
0.2631578947368421
 40
0.2631578947368421
 40
0.3157894736842105
 40
0.3157894736842105
 40
0.3157894736842105
 40
0.3684210526315789
 40
0.3684210526315789
 40
0.3684210526315789
 40
0.4210526315789473
 40
0.4210526315789473
 40
0.4210526315789473
 40
0.4736842105263158
 40
0.4736842105263158
 40
0.4736842105263158
 40
0.5263157894736842
 40
0.5263157894736842
 40
0.5263157894736842
 40
0.5789473684210527
 40
0.5789473684210527
 40
0.5789473684210527
 40
0.631578947368421
 40
0.631578947368421
 40
0.631578947368421
 40
0.6842105263157894
 40
0.6842105263157894
 40
0.6842105263157894
 40
0.7368421052631579
 40
0.7368421052631579
 40
0.7368421052631579
 40
0.7894736842105263
 40
0.7894736842105263
 40
0.7894736842105263
 40
0.8421052631578947
 40
0.8421052631578947
 40
0.8421052631578947
 40
0.894736842105263
 40
0.894736842105263
 40
0.894736842105263
 40
0.9473684210526315
 40
0.9473684210526315
 40
0.9473684210526315
 40
1.0
 40
1.0
 40
1.0
 40
1.0
 10
145.1318
 20
269.8595
 30
0.0
 10
145.0217
 20
269.7981
 30
0.0
 10
144.9169
 20
269.6775
 30
0.0
 10
144.8153
 20
269.4997
 30
0.0
 10
144.737
 20
269.3663
 30
0.0
 10
144.6439
 20
269.1695
 30
0.0
 10
144.5359
 20
268.9112
 30
0.0
 10
144.4851
 20
268.7895
 30
0.0
 10
144.4386
 20
268.6276
 30
0.0
 10
144.3973
 20
268.4276
 30
0.0
 10
144.3655
 20
268.2847
 30
0.0
 10
144.3327
 20
268.0942
 30
0.0
 10
144.2978
 20
267.8571
 30
0.0
 10
144.2703
 20
267.6709
 30
0.0
 10
144.2417
 20
267.455
 30
0.0
 10
144.211
 20
267.2084
 30
0.0
 10
144.211
 20
267.2084
 30
0.0
 10
143.9507
 20
267.2084
 30
0.0
 10
143.9507
 20
267.2084
 30
0.0
 10
143.9115
 20
267.5068
 30
0.0
 10
143.847
 20
267.8084
 30
0.0
 10
143.7581
 20
268.1154
 30
0.0
 10
143.6692
 20
268.4223
 30
0.0
 10
143.5739
 20
268.6826
 30
0.0
 10
143.4713
 20
268.8975
 30
0.0
 10
143.3686
 20
269.1112
 30
0.0
 10
143.2511
 20
269.2954
 30
0.0
 10
143.1167
 20
269.451
 30
0.0
 10
142.9918
 20
269.5928
 30
0.0
 10
142.8585
 20
269.6986
 30
0.0
 10
142.7167
 20
269.7664
 30
0.0
 10
142.7167
 20
269.7664
 30
0.0
 10
142.8532
 20
270.5146
 30
0.0
 10
142.8532
 20
270.5146
 30
0.0
 10
143.0405
 20
270.4395
 30
0.0
 10
143.1887
 20
270.3389
 30
0.0
 10
143.2977
 20
270.213
 30
0.0
 10
143.4067
 20
270.087
 30
0.0
 10
143.5146
 20
269.9251
 30
0.0
 10
143.6215
 20
269.7261
 30
0.0
 10
143.6956
 20
269.5875
 30
0.0
 10
143.7634
 20
269.4309
 30
0.0
 10
143.8237
 20
269.2552
 30
0.0
 10
143.8692
 20
269.1187
 30
0.0
 10
143.9242
 20
268.9282
 30
0.0
 10
143.9909
 20
268.6847
 30
0.0
 10
144.0385
 20
268.5027
 30
0.0
 10
144.0576
 20
268.4265
 30
0.0
 10
144.0491
 20
268.4551
 30
0.0
 10
144.0872
 20
268.798
 30
0.0
 10
144.2036
 20
269.2001
 30
0.0
 10
144.4005
 20
269.6616
 30
0.0
 10
144.5878
 20
270.0976
 30
0.0
 10
144.8323
 20
270.3865
 30
0.0
 10
145.1318
 20
270.5294
 30
0.0
 10
145.1318
 20
270.5294
 30
0.0
 10
145.1318
 20
269.8595
 30
0.0
 10
145.1318
 20
269.8595
 30
0.0
  0
SPLINE
  5
69
330
1F
100
AcDbEntity
  8
Layer 1
 62
   250
370
     9
100
AcDbSpline
210
0.0
220
0.0
230
1.0
 70
    11
 71
     3
 72
    41
 73
    37
 74
     0
 42
0.0000000001
 43
0.0000000001
 40
0.0
 40
0.0
 40
0.0
 40
0.0
 40
0.0833333333333333
 40
0.0833333333333333
 40
0.0833333333333333
 40
0.1666666666666667
 40
0.1666666666666667
 40
0.1666666666666667
 40
0.25
 40
0.25
 40
0.25
 40
0.3333333333333333
 40
0.3333333333333333
 40
0.3333333333333333
 40
0.4166666666666666
 40
0.4166666666666666
 40
0.4166666666666666
 40
0.5
 40
0.5
 40
0.5
 40
0.5833333333333333
 40
0.5833333333333333
 40
0.5833333333333333
 40
0.6666666666666666
 40
0.6666666666666666
 40
0.6666666666666666
 40
0.75
 40
0.75
 40
0.75
 40
0.8333333333333333
 40
0.8333333333333333
 40
0.8333333333333333
 40
0.9166666666666666
 40
0.9166666666666666
 40
0.9166666666666666
 40
1.0
 40
1.0
 40
1.0
 40
1.0
 10
147.2093
 20
267.9746
 30
0.0
 10
147.2093
 20
267.8031
 30
0.0
 10
147.1849
 20
267.5312
 30
0.0
 10
147.1352
 20
267.1597
 30
0.0
 10
147.1352
 20
267.1597
 30
0.0
 10
146.8992
 20
267.1597
 30
0.0
 10
146.8992
 20
267.1597
 30
0.0
 10
146.8992
 20
267.4899
 30
0.0
 10
146.8865
 20
267.7439
 30
0.0
 10
146.8611
 20
267.9206
 30
0.0
 10
146.8346
 20
268.0974
 30
0.0
 10
146.7934
 20
268.2868
 30
0.0
 10
146.7352
 20
268.4889
 30
0.0
 10
146.6717
 20
268.7123
 30
0.0
 10
146.5965
 20
268.925
 30
0.0
 10
146.5118
 20
269.125
 30
0.0
 10
146.4706
 20
269.2181
 30
0.0
 10
146.4261
 20
269.3028
 30
0.0
 10
146.3785
 20
269.379
 30
0.0
 10
146.3108
 20
269.4933
 30
0.0
 10
146.2197
 20
269.6161
 30
0.0
 10
146.1054
 20
269.7484
 30
0.0
 10
146.1054
 20
269.7484
 30
0.0
 10
146.3139
 20
270.5792
 30
0.0
 10
146.3139
 20
270.5792
 30
0.0
 10
146.4812
 20
270.3791
 30
0.0
 10
146.6071
 20
270.2056
 30
0.0
 10
146.6928
 20
270.0616
 30
0.0
 10
146.7796
 20
269.9166
 30
0.0
 10
146.8547
 20
269.7568
 30
0.0
 10
146.9214
 20
269.5811
 30
0.0
 10
147.0103
 20
269.3473
 30
0.0
 10
147.0802
 20
269.0816
 30
0.0
 10
147.132
 20
268.7853
 30
0.0
 10
147.1839
 20
268.4889
 30
0.0
 10
147.2093
 20
268.2191
 30
0.0
 10
147.2093
 20
267.9746
 30
0.0
  0
SPLINE
  5
6A
330
1F
100
AcDbEntity
  8
Layer 1
 62
   250
370
     9
100
AcDbSpline
210
0.0
220
0.0
230
1.0
 70
    11
 71
     3
 72
    32
 73
    28
 74
     0
 42
0.0000000001
 43
0.0000000001
 40
0.0
 40
0.0
 40
0.0
 40
0.0
 40
0.1111111111111111
 40
0.1111111111111111
 40
0.1111111111111111
 40
0.2222222222222222
 40
0.2222222222222222
 40
0.2222222222222222
 40
0.3333333333333333
 40
0.3333333333333333
 40
0.3333333333333333
 40
0.4444444444444444
 40
0.4444444444444444
 40
0.4444444444444444
 40
0.5555555555555556
 40
0.5555555555555556
 40
0.5555555555555556
 40
0.6666666666666666
 40
0.6666666666666666
 40
0.6666666666666666
 40
0.7777777777777777
 40
0.7777777777777777
 40
0.7777777777777777
 40
0.8888888888888888
 40
0.8888888888888888
 40
0.8888888888888888
 40
1.0
 40
1.0
 40
1.0
 40
1.0
 10
150.2732
 20
268.6911
 30
0.0
 10
150.2732
 20
268.2117
 30
0.0
 10
150.2001
 20
267.8571
 30
0.0
 10
150.053
 20
267.6275
 30
0.0
 10
149.8752
 20
267.3481
 30
0.0
 10
149.5789
 20
267.2084
 30
0.0
 10
149.163
 20
267.2084
 30
0.0
 10
148.9407
 20
267.2084
 30
0.0
 10
148.7555
 20
267.2655
 30
0.0
 10
148.6084
 20
267.3777
 30
0.0
 10
148.4613
 20
267.4909
 30
0.0
 10
148.3883
 20
267.6338
 30
0.0
 10
148.3883
 20
267.8074
 30
0.0
 10
148.3883
 20
267.9682
 30
0.0
 10
148.4147
 20
268.2455
 30
0.0
 10
148.4687
 20
268.6382
 30
0.0
 10
148.5333
 20
269.1007
 30
0.0
 10
148.6105
 20
269.4975
 30
0.0
 10
148.7015
 20
269.8288
 30
0.0
 10
148.819
 20
270.2648
 30
0.0
 10
148.9555
 20
270.4828
 30
0.0
 10
149.1111
 20
270.4828
 30
0.0
 10
149.3503
 20
270.4828
 30
0.0
 10
149.6032
 20
270.2818
 30
0.0
 10
149.8699
 20
269.8785
 30
0.0
 10
150.1388
 20
269.4732
 30
0.0
 10
150.2732
 20
269.0774
 30
0.0
 10
150.2732
 20
268.6911
 30
0.0
  0
SPLINE
  5
6B
330
1F
100
AcDbEntity
  8
Layer 1
 62
   250
370
     9
100
AcDbSpline
210
0.0
220
0.0
230
1.0
 70
    11
 71
     3
 72
    35
 73
    31
 74
     0
 42
0.0000000001
 43
0.0000000001
 40
0.0
 40
0.0
 40
0.0
 40
0.0
 40
0.1
 40
0.1
 40
0.1
 40
0.2
 40
0.2
 40
0.2
 40
0.3
 40
0.3
 40
0.3
 40
0.4
 40
0.4
 40
0.4
 40
0.5
 40
0.5
 40
0.5
 40
0.6000000000000001
 40
0.6000000000000001
 40
0.6000000000000001
 40
0.7000000000000001
 40
0.7000000000000001
 40
0.7000000000000001
 40
0.8
 40
0.8
 40
0.8
 40
0.9
 40
0.9
 40
0.9
 40
1.0
 40
1.0
 40
1.0
 40
1.0
 10
149.9483
 20
268.399
 30
0.0
 10
149.9483
 20
268.6064
 30
0.0
 10
149.8848
 20
268.834
 30
0.0
 10
149.7588
 20
269.0816
 30
0.0
 10
149.6487
 20
269.2922
 30
0.0
 10
149.5154
 20
269.4827
 30
0.0
 10
149.3556
 20
269.6521
 30
0.0
 10
149.2169
 20
269.7992
 30
0.0
 10
149.1185
 20
269.8722
 30
0.0
 10
149.0614
 20
269.8722
 30
0.0
 10
149.0466
 20
269.8722
 30
0.0
 10
149.0127
 20
269.7727
 30
0.0
 10
148.9587
 20
269.5748
 30
0.0
 10
148.9069
 20
269.3737
 30
0.0
 10
148.8624
 20
269.1504
 30
0.0
 10
148.8254
 20
268.9038
 30
0.0
 10
148.7883
 20
268.6562
 30
0.0
 10
148.7693
 20
268.4794
 30
0.0
 10
148.7693
 20
268.3715
 30
0.0
 10
148.7693
 20
268.2191
 30
0.0
 10
148.8
 20
268.091
 30
0.0
 10
148.8592
 20
267.9905
 30
0.0
 10
148.9407
 20
267.8539
 30
0.0
 10
149.0709
 20
267.7852
 30
0.0
 10
149.2498
 20
267.7852
 30
0.0
 10
149.4318
 20
267.7852
 30
0.0
 10
149.5969
 20
267.8561
 30
0.0
 10
149.7429
 20
267.9968
 30
0.0
 10
149.8795
 20
268.127
 30
0.0
 10
149.9483
 20
268.2614
 30
0.0
 10
149.9483
 20
268.399
 30
0.0
  0
SPLINE
  5
6C
330
1F
100
AcDbEntity
  8
Layer 1
 62
   250
370
     9
100
AcDbSpline
210
0.0
220
0.0
230
1.0
 70
    11
 71
     3
 72
    65
 73
    61
 74
     0
 42
0.0000000001
 43
0.0000000001
 40
0.0
 40
0.0
 40
0.0
 40
0.0
 40
0.05
 40
0.05
 40
0.05
 40
0.1
 40
0.1
 40
0.1
 40
0.15
 40
0.15
 40
0.15
 40
0.2
 40
0.2
 40
0.2
 40
0.25
 40
0.25
 40
0.25
 40
0.3
 40
0.3
 40
0.3
 40
0.35
 40
0.35
 40
0.35
 40
0.4
 40
0.4
 40
0.4
 40
0.45
 40
0.45
 40
0.45
 40
0.5
 40
0.5
 40
0.5
 40
0.55
 40
0.55
 40
0.55
 40
0.6000000000000001
 40
0.6000000000000001
 40
0.6000000000000001
 40
0.65
 40
0.65
 40
0.65
 40
0.7000000000000001
 40
0.7000000000000001
 40
0.7000000000000001
 40
0.75
 40
0.75
 40
0.75
 40
0.8
 40
0.8
 40
0.8
 40
0.8500000000000001
 40
0.8500000000000001
 40
0.8500000000000001
 40
0.9
 40
0.9
 40
0.9
 40
0.9500000000000001
 40
0.9500000000000001
 40
0.9500000000000001
 40
1.0
 40
1.0
 40
1.0
 40
1.0
 10
152.066
 20
269.8595
 30
0.0
 10
152.2216
 20
269.8595
 30
0.0
 10
152.3623
 20
269.8955
 30
0.0
 10
152.4904
 20
269.9653
 30
0.0
 10
152.6375
 20
270.0458
 30
0.0
 10
152.7274
 20
270.1717
 30
0.0
 10
152.7602
 20
270.3431
 30
0.0
 10
152.7602
 20
270.3431
 30
0.0
 10
152.9656
 20
270.3431
 30
0.0
 10
152.9656
 20
270.3431
 30
0.0
 10
152.9656
 20
269.9632
 30
0.0
 10
152.8671
 20
269.6827
 30
0.0
 10
152.6703
 20
269.5028
 30
0.0
 10
152.5094
 20
269.3547
 30
0.0
 10
152.3136
 20
269.2795
 30
0.0
 10
152.085
 20
269.2795
 30
0.0
 10
152.085
 20
269.2795
 30
0.0
 10
152.0385
 20
269.2795
 30
0.0
 10
152.0385
 20
269.2795
 30
0.0
 10
151.9718
 20
269.2795
 30
0.0
 10
151.9178
 20
269.2816
 30
0.0
 10
151.8755
 20
269.2859
 30
0.0
 10
151.8331
 20
269.2901
 30
0.0
 10
151.8607
 20
269.2531
 30
0.0
 10
151.958
 20
269.1747
 30
0.0
 10
151.9781
 20
269.1028
 30
0.0
 10
152.0088
 20
268.9356
 30
0.0
 10
152.049
 20
268.6742
 30
0.0
 10
152.0893
 20
268.4127
 30
0.0
 10
152.1094
 20
268.1789
 30
0.0
 10
152.1094
 20
267.9746
 30
0.0
 10
152.1094
 20
267.8031
 30
0.0
 10
152.085
 20
267.5312
 30
0.0
 10
152.0353
 20
267.1597
 30
0.0
 10
152.0353
 20
267.1597
 30
0.0
 10
151.7993
 20
267.1597
 30
0.0
 10
151.7993
 20
267.1597
 30
0.0
 10
151.7993
 20
267.4899
 30
0.0
 10
151.7866
 20
267.7439
 30
0.0
 10
151.7612
 20
267.9206
 30
0.0
 10
151.7347
 20
268.0974
 30
0.0
 10
151.6934
 20
268.2868
 30
0.0
 10
151.6352
 20
268.4889
 30
0.0
 10
151.5707
 20
268.7123
 30
0.0
 10
151.4966
 20
268.925
 30
0.0
 10
151.4119
 20
269.125
 30
0.0
 10
151.3707
 20
269.2181
 30
0.0
 10
151.3262
 20
269.3028
 30
0.0
 10
151.2786
 20
269.379
 30
0.0
 10
151.2108
 20
269.4933
 30
0.0
 10
151.1198
 20
269.6161
 30
0.0
 10
151.0055
 20
269.7484
 30
0.0
 10
151.0055
 20
269.7484
 30
0.0
 10
151.213
 20
270.5823
 30
0.0
 10
151.213
 20
270.5823
 30
0.0
 10
151.4077
 20
270.3421
 30
0.0
 10
151.5654
 20
270.1463
 30
0.0
 10
151.6882
 20
269.9928
 30
0.0
 10
151.795
 20
269.9039
 30
0.0
 10
151.921
 20
269.8595
 30
0.0
 10
152.066
 20
269.8595
 30
0.0
  0
SPLINE
  5
6D
330
1F
100
AcDbEntity
  8
Layer 1
 62
   250
370
     9
100
AcDbSpline
210
0.0
220
0.0
230
1.0
 70
    11
 71
     3
 72
    89
 73
    85
 74
     0
 42
0.0000000001
 43
0.0000000001
 40
0.0
 40
0.0
 40
0.0
 40
0.0
 40
0.0357142857142857
 40
0.0357142857142857
 40
0.0357142857142857
 40
0.0714285714285714
 40
0.0714285714285714
 40
0.0714285714285714
 40
0.1071428571428571
 40
0.1071428571428571
 40
0.1071428571428571
 40
0.1428571428571428
 40
0.1428571428571428
 40
0.1428571428571428
 40
0.1785714285714285
 40
0.1785714285714285
 40
0.1785714285714285
 40
0.2142857142857143
 40
0.2142857142857143
 40
0.2142857142857143
 40
0.25
 40
0.25
 40
0.25
 40
0.2857142857142857
 40
0.2857142857142857
 40
0.2857142857142857
 40
0.3214285714285714
 40
0.3214285714285714
 40
0.3214285714285714
 40
0.3571428571428571
 40
0.3571428571428571
 40
0.3571428571428571
 40
0.3928571428571428
 40
0.3928571428571428
 40
0.3928571428571428
 40
0.4285714285714285
 40
0.4285714285714285
 40
0.4285714285714285
 40
0.4642857142857142
 40
0.4642857142857142
 40
0.4642857142857142
 40
0.5
 40
0.5
 40
0.5
 40
0.5357142857142857
 40
0.5357142857142857
 40
0.5357142857142857
 40
0.5714285714285714
 40
0.5714285714285714
 40
0.5714285714285714
 40
0.6071428571428571
 40
0.6071428571428571
 40
0.6071428571428571
 40
0.6428571428571428
 40
0.6428571428571428
 40
0.6428571428571428
 40
0.6785714285714285
 40
0.6785714285714285
 40
0.6785714285714285
 40
0.7142857142857142
 40
0.7142857142857142
 40
0.7142857142857142
 40
0.75
 40
0.75
 40
0.75
 40
0.7857142857142857
 40
0.7857142857142857
 40
0.7857142857142857
 40
0.8214285714285714
 40
0.8214285714285714
 40
0.8214285714285714
 40
0.8571428571428571
 40
0.8571428571428571
 40
0.8571428571428571
 40
0.8928571428571428
 40
0.8928571428571428
 40
0.8928571428571428
 40
0.9285714285714285
 40
0.9285714285714285
 40
0.9285714285714285
 40
0.9642857142857142
 40
0.9642857142857142
 40
0.9642857142857142
 40
1.0
 40
1.0
 40
1.0
 40
1.0
 10
155.2696
 20
270.0182
 30
0.0
 10
155.4241
 20
270.0182
 30
0.0
 10
155.5225
 20
270.1579
 30
0.0
 10
155.5638
 20
270.4363
 30
0.0
 10
155.5638
 20
270.4363
 30
0.0
 10
155.7723
 20
270.4363
 30
0.0
 10
155.7723
 20
270.4363
 30
0.0
 10
155.7723
 20
269.7642
 30
0.0
 10
155.5542
 20
269.4287
 30
0.0
 10
155.1203
 20
269.4287
 30
0.0
 10
155.0526
 20
269.4287
 30
0.0
 10
154.988
 20
269.4499
 30
0.0
 10
154.9267
 20
269.4922
 30
0.0
 10
154.8663
 20
269.5346
 30
0.0
 10
154.8526
 20
269.5261
 30
0.0
 10
154.8886
 20
269.4658
 30
0.0
 10
154.8907
 20
269.4764
 30
0.0
 10
154.8494
 20
269.4478
 30
0.0
 10
154.7637
 20
269.379
 30
0.0
 10
154.6875
 20
269.3155
 30
0.0
 10
154.6102
 20
269.2827
 30
0.0
 10
154.5319
 20
269.2827
 30
0.0
 10
154.5213
 20
269.2827
 30
0.0
 10
154.5086
 20
269.2827
 30
0.0
 10
154.4927
 20
269.2816
 30
0.0
 10
154.4769
 20
269.2806
 30
0.0
 10
154.4589
 20
269.2795
 30
0.0
 10
154.4388
 20
269.2795
 30
0.0
 10
154.4017
 20
269.2795
 30
0.0
 10
154.3647
 20
269.2838
 30
0.0
 10
154.3287
 20
269.2912
 30
0.0
 10
154.2927
 20
269.2986
 30
0.0
 10
154.3234
 20
269.2668
 30
0.0
 10
154.4229
 20
269.1959
 30
0.0
 10
154.4504
 20
269.1017
 30
0.0
 10
154.4843
 20
268.925
 30
0.0
 10
154.5266
 20
268.6657
 30
0.0
 10
154.5689
 20
268.4075
 30
0.0
 10
154.5901
 20
268.1767
 30
0.0
 10
154.5901
 20
267.9746
 30
0.0
 10
154.5901
 20
267.8031
 30
0.0
 10
154.5658
 20
267.5312
 30
0.0
 10
154.516
 20
267.1597
 30
0.0
 10
154.516
 20
267.1597
 30
0.0
 10
154.28
 20
267.1597
 30
0.0
 10
154.28
 20
267.1597
 30
0.0
 10
154.28
 20
267.4899
 30
0.0
 10
154.2673
 20
267.7439
 30
0.0
 10
154.2419
 20
267.9206
 30
0.0
 10
154.2155
 20
268.0974
 30
0.0
 10
154.1742
 20
268.2868
 30
0.0
 10
154.116
 20
268.4889
 30
0.0
 10
154.0525
 20
268.7123
 30
0.0
 10
153.9773
 20
268.925
 30
0.0
 10
153.8927
 20
269.125
 30
0.0
 10
153.8514
 20
269.2181
 30
0.0
 10
153.8069
 20
269.3028
 30
0.0
 10
153.7593
 20
269.379
 30
0.0
 10
153.6916
 20
269.4933
 30
0.0
 10
153.6006
 20
269.6161
 30
0.0
 10
153.4863
 20
269.7484
 30
0.0
 10
153.4863
 20
269.7484
 30
0.0
 10
153.6979
 20
270.5919
 30
0.0
 10
153.6979
 20
270.5919
 30
0.0
 10
153.8778
 20
270.3516
 30
0.0
 10
154.0017
 20
270.1907
 30
0.0
 10
154.0694
 20
270.1082
 30
0.0
 10
154.1879
 20
269.9717
 30
0.0
 10
154.2959
 20
269.9029
 30
0.0
 10
154.3954
 20
269.9029
 30
0.0
 10
154.5086
 20
269.9029
 30
0.0
 10
154.5922
 20
269.9357
 30
0.0
 10
154.6462
 20
269.9992
 30
0.0
 10
154.6981
 20
270.0616
 30
0.0
 10
154.7446
 20
270.1971
 30
0.0
 10
154.7859
 20
270.4056
 30
0.0
 10
154.7859
 20
270.4056
 30
0.0
 10
154.9785
 20
270.4056
 30
0.0
 10
154.9785
 20
270.4056
 30
0.0
 10
155.0071
 20
270.2405
 30
0.0
 10
155.042
 20
270.1347
 30
0.0
 10
155.0833
 20
270.0881
 30
0.0
 10
155.1246
 20
270.0415
 30
0.0
 10
155.187
 20
270.0182
 30
0.0
 10
155.2696
 20
270.0182
 30
0.0
  0
SPLINE
  5
6E
330
1F
100
AcDbEntity
  8
Layer 1
 62
   250
370
     9
100
AcDbSpline
210
0.0
220
0.0
230
1.0
 70
    11
 71
     3
 72
    89
 73
    85
 74
     0
 42
0.0000000001
 43
0.0000000001
 40
0.0
 40
0.0
 40
0.0
 40
0.0
 40
0.0357142857142857
 40
0.0357142857142857
 40
0.0357142857142857
 40
0.0714285714285714
 40
0.0714285714285714
 40
0.0714285714285714
 40
0.1071428571428571
 40
0.1071428571428571
 40
0.1071428571428571
 40
0.1428571428571428
 40
0.1428571428571428
 40
0.1428571428571428
 40
0.1785714285714285
 40
0.1785714285714285
 40
0.1785714285714285
 40
0.2142857142857143
 40
0.2142857142857143
 40
0.2142857142857143
 40
0.25
 40
0.25
 40
0.25
 40
0.2857142857142857
 40
0.2857142857142857
 40
0.2857142857142857
 40
0.3214285714285714
 40
0.3214285714285714
 40
0.3214285714285714
 40
0.3571428571428571
 40
0.3571428571428571
 40
0.3571428571428571
 40
0.3928571428571428
 40
0.3928571428571428
 40
0.3928571428571428
 40
0.4285714285714285
 40
0.4285714285714285
 40
0.4285714285714285
 40
0.4642857142857142
 40
0.4642857142857142
 40
0.4642857142857142
 40
0.5
 40
0.5
 40
0.5
 40
0.5357142857142857
 40
0.5357142857142857
 40
0.5357142857142857
 40
0.5714285714285714
 40
0.5714285714285714
 40
0.5714285714285714
 40
0.6071428571428571
 40
0.6071428571428571
 40
0.6071428571428571
 40
0.6428571428571428
 40
0.6428571428571428
 40
0.6428571428571428
 40
0.6785714285714285
 40
0.6785714285714285
 40
0.6785714285714285
 40
0.7142857142857142
 40
0.7142857142857142
 40
0.7142857142857142
 40
0.75
 40
0.75
 40
0.75
 40
0.7857142857142857
 40
0.7857142857142857
 40
0.7857142857142857
 40
0.8214285714285714
 40
0.8214285714285714
 40
0.8214285714285714
 40
0.8571428571428571
 40
0.8571428571428571
 40
0.8571428571428571
 40
0.8928571428571428
 40
0.8928571428571428
 40
0.8928571428571428
 40
0.9285714285714285
 40
0.9285714285714285
 40
0.9285714285714285
 40
0.9642857142857142
 40
0.9642857142857142
 40
0.9642857142857142
 40
1.0
 40
1.0
 40
1.0
 40
1.0
 10
157.9366
 20
270.0182
 30
0.0
 10
158.0911
 20
270.0182
 30
0.0
 10
158.1895
 20
270.1579
 30
0.0
 10
158.2308
 20
270.4363
 30
0.0
 10
158.2308
 20
270.4363
 30
0.0
 10
158.4393
 20
270.4363
 30
0.0
 10
158.4393
 20
270.4363
 30
0.0
 10
158.4393
 20
269.7642
 30
0.0
 10
158.2212
 20
269.4287
 30
0.0
 10
157.7873
 20
269.4287
 30
0.0
 10
157.7196
 20
269.4287
 30
0.0
 10
157.655
 20
269.4499
 30
0.0
 10
157.5937
 20
269.4922
 30
0.0
 10
157.5333
 20
269.5346
 30
0.0
 10
157.5196
 20
269.5261
 30
0.0
 10
157.5556
 20
269.4658
 30
0.0
 10
157.5577
 20
269.4764
 30
0.0
 10
157.5164
 20
269.4478
 30
0.0
 10
157.4307
 20
269.379
 30
0.0
 10
157.3545
 20
269.3155
 30
0.0
 10
157.2772
 20
269.2827
 30
0.0
 10
157.1989
 20
269.2827
 30
0.0
 10
157.1883
 20
269.2827
 30
0.0
 10
157.1756
 20
269.2827
 30
0.0
 10
157.1597
 20
269.2816
 30
0.0
 10
157.1439
 20
269.2806
 30
0.0
 10
157.1259
 20
269.2795
 30
0.0
 10
157.1058
 20
269.2795
 30
0.0
 10
157.0687
 20
269.2795
 30
0.0
 10
157.0317
 20
269.2838
 30
0.0
 10
156.9957
 20
269.2912
 30
0.0
 10
156.9597
 20
269.2986
 30
0.0
 10
156.9904
 20
269.2668
 30
0.0
 10
157.0899
 20
269.1959
 30
0.0
 10
157.1174
 20
269.1017
 30
0.0
 10
157.1513
 20
268.925
 30
0.0
 10
157.1936
 20
268.6657
 30
0.0
 10
157.2359
 20
268.4075
 30
0.0
 10
157.2571
 20
268.1767
 30
0.0
 10
157.2571
 20
267.9746
 30
0.0
 10
157.2571
 20
267.8031
 30
0.0
 10
157.2328
 20
267.5312
 30
0.0
 10
157.183
 20
267.1597
 30
0.0
 10
157.183
 20
267.1597
 30
0.0
 10
156.947
 20
267.1597
 30
0.0
 10
156.947
 20
267.1597
 30
0.0
 10
156.947
 20
267.4899
 30
0.0
 10
156.9343
 20
267.7439
 30
0.0
 10
156.9089
 20
267.9206
 30
0.0
 10
156.8825
 20
268.0974
 30
0.0
 10
156.8412
 20
268.2868
 30
0.0
 10
156.783
 20
268.4889
 30
0.0
 10
156.7195
 20
268.7123
 30
0.0
 10
156.6443
 20
268.925
 30
0.0
 10
156.5597
 20
269.125
 30
0.0
 10
156.5184
 20
269.2181
 30
0.0
 10
156.4739
 20
269.3028
 30
0.0
 10
156.4263
 20
269.379
 30
0.0
 10
156.3586
 20
269.4933
 30
0.0
 10
156.2676
 20
269.6161
 30
0.0
 10
156.1533
 20
269.7484
 30
0.0
 10
156.1533
 20
269.7484
 30
0.0
 10
156.3649
 20
270.5919
 30
0.0
 10
156.3649
 20
270.5919
 30
0.0
 10
156.5448
 20
270.3516
 30
0.0
 10
156.6687
 20
270.1907
 30
0.0
 10
156.7364
 20
270.1082
 30
0.0
 10
156.8549
 20
269.9717
 30
0.0
 10
156.9629
 20
269.9029
 30
0.0
 10
157.0624
 20
269.9029
 30
0.0
 10
157.1756
 20
269.9029
 30
0.0
 10
157.2592
 20
269.9357
 30
0.0
 10
157.3132
 20
269.9992
 30
0.0
 10
157.3651
 20
270.0616
 30
0.0
 10
157.4116
 20
270.1971
 30
0.0
 10
157.4529
 20
270.4056
 30
0.0
 10
157.4529
 20
270.4056
 30
0.0
 10
157.6455
 20
270.4056
 30
0.0
 10
157.6455
 20
270.4056
 30
0.0
 10
157.6741
 20
270.2405
 30
0.0
 10
157.709
 20
270.1347
 30
0.0
 10
157.7503
 20
270.0881
 30
0.0
 10
157.7916
 20
270.0415
 30
0.0
 10
157.854
 20
270.0182
 30
0.0
 10
157.9366
 20
270.0182
 30
0.0
  0
SPLINE
  5
6F
330
1F
100
AcDbEntity
  8
Layer 1
 62
   250
370
     9
100
AcDbSpline
210
0.0
220
0.0
230
1.0
 70
    11
 71
     3
 72
    65
 73
    61
 74
     0
 42
0.0000000001
 43
0.0000000001
 40
0.0
 40
0.0
 40
0.0
 40
0.0
 40
0.05
 40
0.05
 40
0.05
 40
0.1
 40
0.1
 40
0.1
 40
0.15
 40
0.15
 40
0.15
 40
0.2
 40
0.2
 40
0.2
 40
0.25
 40
0.25
 40
0.25
 40
0.3
 40
0.3
 40
0.3
 40
0.35
 40
0.35
 40
0.35
 40
0.4
 40
0.4
 40
0.4
 40
0.45
 40
0.45
 40
0.45
 40
0.5
 40
0.5
 40
0.5
 40
0.55
 40
0.55
 40
0.55
 40
0.6000000000000001
 40
0.6000000000000001
 40
0.6000000000000001
 40
0.65
 40
0.65
 40
0.65
 40
0.7000000000000001
 40
0.7000000000000001
 40
0.7000000000000001
 40
0.75
 40
0.75
 40
0.75
 40
0.8
 40
0.8
 40
0.8
 40
0.8500000000000001
 40
0.8500000000000001
 40
0.8500000000000001
 40
0.9
 40
0.9
 40
0.9
 40
0.9500000000000001
 40
0.9500000000000001
 40
0.9500000000000001
 40
1.0
 40
1.0
 40
1.0
 40
1.0
 10
160.067
 20
269.8595
 30
0.0
 10
160.2226
 20
269.8595
 30
0.0
 10
160.3633
 20
269.8955
 30
0.0
 10
160.4914
 20
269.9653
 30
0.0
 10
160.6385
 20
270.0458
 30
0.0
 10
160.7284
 20
270.1717
 30
0.0
 10
160.7612
 20
270.3431
 30
0.0
 10
160.7612
 20
270.3431
 30
0.0
 10
160.9666
 20
270.3431
 30
0.0
 10
160.9666
 20
270.3431
 30
0.0
 10
160.9666
 20
269.9632
 30
0.0
 10
160.8681
 20
269.6827
 30
0.0
 10
160.6713
 20
269.5028
 30
0.0
 10
160.5104
 20
269.3547
 30
0.0
 10
160.3146
 20
269.2795
 30
0.0
 10
160.086
 20
269.2795
 30
0.0
 10
160.086
 20
269.2795
 30
0.0
 10
160.0395
 20
269.2795
 30
0.0
 10
160.0395
 20
269.2795
 30
0.0
 10
159.9728
 20
269.2795
 30
0.0
 10
159.9188
 20
269.2816
 30
0.0
 10
159.8765
 20
269.2859
 30
0.0
 10
159.8341
 20
269.2901
 30
0.0
 10
159.8617
 20
269.2531
 30
0.0
 10
159.959
 20
269.1747
 30
0.0
 10
159.9791
 20
269.1028
 30
0.0
 10
160.0098
 20
268.9356
 30
0.0
 10
160.05
 20
268.6742
 30
0.0
 10
160.0903
 20
268.4127
 30
0.0
 10
160.1104
 20
268.1789
 30
0.0
 10
160.1104
 20
267.9746
 30
0.0
 10
160.1104
 20
267.8031
 30
0.0
 10
160.086
 20
267.5312
 30
0.0
 10
160.0363
 20
267.1597
 30
0.0
 10
160.0363
 20
267.1597
 30
0.0
 10
159.8003
 20
267.1597
 30
0.0
 10
159.8003
 20
267.1597
 30
0.0
 10
159.8003
 20
267.4899
 30
0.0
 10
159.7876
 20
267.7439
 30
0.0
 10
159.7622
 20
267.9206
 30
0.0
 10
159.7357
 20
268.0974
 30
0.0
 10
159.6944
 20
268.2868
 30
0.0
 10
159.6362
 20
268.4889
 30
0.0
 10
159.5717
 20
268.7123
 30
0.0
 10
159.4976
 20
268.925
 30
0.0
 10
159.4129
 20
269.125
 30
0.0
 10
159.3717
 20
269.2181
 30
0.0
 10
159.3272
 20
269.3028
 30
0.0
 10
159.2796
 20
269.379
 30
0.0
 10
159.2118
 20
269.4933
 30
0.0
 10
159.1208
 20
269.6161
 30
0.0
 10
159.0065
 20
269.7484
 30
0.0
 10
159.0065
 20
269.7484
 30
0.0
 10
159.214
 20
270.5823
 30
0.0
 10
159.214
 20
270.5823
 30
0.0
 10
159.4087
 20
270.3421
 30
0.0
 10
159.5664
 20
270.1463
 30
0.0
 10
159.6892
 20
269.9928
 30
0.0
 10
159.796
 20
269.9039
 30
0.0
 10
159.922
 20
269.8595
 30
0.0
 10
160.067
 20
269.8595
 30
0.0
  0
SPLINE
  5
70
330
1F
100
AcDbEntity
  8
Layer 1
 62
   250
370
     9
100
AcDbSpline
210
0.0
220
0.0
230
1.0
 70
    11
 71
     3
 72
    65
 73
    61
 74
     0
 42
0.0000000001
 43
0.0000000001
 40
0.0
 40
0.0
 40
0.0
 40
0.0
 40
0.05
 40
0.05
 40
0.05
 40
0.1
 40
0.1
 40
0.1
 40
0.15
 40
0.15
 40
0.15
 40
0.2
 40
0.2
 40
0.2
 40
0.25
 40
0.25
 40
0.25
 40
0.3
 40
0.3
 40
0.3
 40
0.35
 40
0.35
 40
0.35
 40
0.4
 40
0.4
 40
0.4
 40
0.45
 40
0.45
 40
0.45
 40
0.5
 40
0.5
 40
0.5
 40
0.55
 40
0.55
 40
0.55
 40
0.6000000000000001
 40
0.6000000000000001
 40
0.6000000000000001
 40
0.65
 40
0.65
 40
0.65
 40
0.7000000000000001
 40
0.7000000000000001
 40
0.7000000000000001
 40
0.75
 40
0.75
 40
0.75
 40
0.8
 40
0.8
 40
0.8
 40
0.8500000000000001
 40
0.8500000000000001
 40
0.8500000000000001
 40
0.9
 40
0.9
 40
0.9
 40
0.9500000000000001
 40
0.9500000000000001
 40
0.9500000000000001
 40
1.0
 40
1.0
 40
1.0
 40
1.0
 10
163.733
 20
267.8317
 30
0.0
 10
163.733
 20
267.8317
 30
0.0
 10
163.6145
 20
267.1565
 30
0.0
 10
163.6145
 20
267.1565
 30
0.0
 10
163.3626
 20
267.3153
 30
0.0
 10
163.1901
 20
267.4983
 30
0.0
 10
163.098
 20
267.7047
 30
0.0
 10
163.006
 20
267.9111
 30
0.0
 10
162.9446
 20
268.164
 30
0.0
 10
162.9139
 20
268.4625
 30
0.0
 10
162.8832
 20
268.762
 30
0.0
 10
162.8673
 20
269.1324
 30
0.0
 10
162.8673
 20
269.5748
 30
0.0
 10
162.8673
 20
269.5748
 30
0.0
 10
162.8673
 20
269.6277
 30
0.0
 10
162.8673
 20
269.6277
 30
0.0
 10
162.7541
 20
269.5674
 30
0.0
 10
162.5837
 20
269.5378
 30
0.0
 10
162.3562
 20
269.5378
 30
0.0
 10
162.2281
 20
269.5378
 30
0.0
 10
162.1106
 20
269.5526
 30
0.0
 10
162.0037
 20
269.5843
 30
0.0
 10
161.8979
 20
269.615
 30
0.0
 10
161.8122
 20
269.6595
 30
0.0
 10
161.7487
 20
269.7177
 30
0.0
 10
161.7042
 20
269.7568
 30
0.0
 10
161.6704
 20
269.833
 30
0.0
 10
161.646
 20
269.9463
 30
0.0
 10
161.6206
 20
270.0606
 30
0.0
 10
161.609
 20
270.2394
 30
0.0
 10
161.609
 20
270.4828
 30
0.0
 10
161.609
 20
270.4828
 30
0.0
 10
161.7974
 20
270.4828
 30
0.0
 10
161.7974
 20
270.4828
 30
0.0
 10
161.8619
 20
270.3696
 30
0.0
 10
161.9582
 20
270.2796
 30
0.0
 10
162.0863
 20
270.213
 30
0.0
 10
162.2143
 20
270.1474
 30
0.0
 10
162.3477
 20
270.1145
 30
0.0
 10
162.4863
 20
270.1145
 30
0.0
 10
162.5477
 20
270.1145
 30
0.0
 10
162.6387
 20
270.1336
 30
0.0
 10
162.7594
 20
270.1728
 30
0.0
 10
162.8599
 20
270.2077
 30
0.0
 10
162.9859
 20
270.2638
 30
0.0
 10
163.1372
 20
270.34
 30
0.0
 10
163.1372
 20
270.34
 30
0.0
 10
163.2515
 20
270.2627
 30
0.0
 10
163.2515
 20
270.2627
 30
0.0
 10
163.225
 20
270.1018
 30
0.0
 10
163.206
 20
269.9653
 30
0.0
 10
163.1965
 20
269.8553
 30
0.0
 10
163.1859
 20
269.7441
 30
0.0
 10
163.1806
 20
269.6298
 30
0.0
 10
163.1806
 20
269.5092
 30
0.0
 10
163.1806
 20
269.2287
 30
0.0
 10
163.2303
 20
268.9239
 30
0.0
 10
163.3298
 20
268.5948
 30
0.0
 10
163.4367
 20
268.2455
 30
0.0
 10
163.5711
 20
267.9915
 30
0.0
 10
163.733
 20
267.8317
 30
0.0
  0
SPLINE
  5
71
330
1F
100
AcDbEntity
  8
Layer 1
 62
   250
370
     9
100
AcDbSpline
210
0.0
220
0.0
230
1.0
 70
    11
 71
     3
 72
    65
 73
    61
 74
     0
 42
0.0000000001
 43
0.0000000001
 40
0.0
 40
0.0
 40
0.0
 40
0.0
 40
0.05
 40
0.05
 40
0.05
 40
0.1
 40
0.1
 40
0.1
 40
0.15
 40
0.15
 40
0.15
 40
0.2
 40
0.2
 40
0.2
 40
0.25
 40
0.25
 40
0.25
 40
0.3
 40
0.3
 40
0.3
 40
0.35
 40
0.35
 40
0.35
 40
0.4
 40
0.4
 40
0.4
 40
0.45
 40
0.45
 40
0.45
 40
0.5
 40
0.5
 40
0.5
 40
0.55
 40
0.55
 40
0.55
 40
0.6000000000000001
 40
0.6000000000000001
 40
0.6000000000000001
 40
0.65
 40
0.65
 40
0.65
 40
0.7000000000000001
 40
0.7000000000000001
 40
0.7000000000000001
 40
0.75
 40
0.75
 40
0.75
 40
0.8
 40
0.8
 40
0.8
 40
0.8500000000000001
 40
0.8500000000000001
 40
0.8500000000000001
 40
0.9
 40
0.9
 40
0.9
 40
0.9500000000000001
 40
0.9500000000000001
 40
0.9500000000000001
 40
1.0
 40
1.0
 40
1.0
 40
1.0
 10
165.401
 20
269.8595
 30
0.0
 10
165.5566
 20
269.8595
 30
0.0
 10
165.6973
 20
269.8955
 30
0.0
 10
165.8254
 20
269.9653
 30
0.0
 10
165.9725
 20
270.0458
 30
0.0
 10
166.0624
 20
270.1717
 30
0.0
 10
166.0952
 20
270.3431
 30
0.0
 10
166.0952
 20
270.3431
 30
0.0
 10
166.3006
 20
270.3431
 30
0.0
 10
166.3006
 20
270.3431
 30
0.0
 10
166.3006
 20
269.9632
 30
0.0
 10
166.2021
 20
269.6827
 30
0.0
 10
166.0053
 20
269.5028
 30
0.0
 10
165.8444
 20
269.3547
 30
0.0
 10
165.6486
 20
269.2795
 30
0.0
 10
165.42
 20
269.2795
 30
0.0
 10
165.42
 20
269.2795
 30
0.0
 10
165.3735
 20
269.2795
 30
0.0
 10
165.3735
 20
269.2795
 30
0.0
 10
165.3068
 20
269.2795
 30
0.0
 10
165.2528
 20
269.2816
 30
0.0
 10
165.2105
 20
269.2859
 30
0.0
 10
165.1681
 20
269.2901
 30
0.0
 10
165.1957
 20
269.2531
 30
0.0
 10
165.293
 20
269.1747
 30
0.0
 10
165.3131
 20
269.1028
 30
0.0
 10
165.3438
 20
268.9356
 30
0.0
 10
165.384
 20
268.6742
 30
0.0
 10
165.4243
 20
268.4127
 30
0.0
 10
165.4444
 20
268.1789
 30
0.0
 10
165.4444
 20
267.9746
 30
0.0
 10
165.4444
 20
267.8031
 30
0.0
 10
165.42
 20
267.5312
 30
0.0
 10
165.3703
 20
267.1597
 30
0.0
 10
165.3703
 20
267.1597
 30
0.0
 10
165.1343
 20
267.1597
 30
0.0
 10
165.1343
 20
267.1597
 30
0.0
 10
165.1343
 20
267.4899
 30
0.0
 10
165.1216
 20
267.7439
 30
0.0
 10
165.0962
 20
267.9206
 30
0.0
 10
165.0697
 20
268.0974
 30
0.0
 10
165.0284
 20
268.2868
 30
0.0
 10
164.9702
 20
268.4889
 30
0.0
 10
164.9057
 20
268.7123
 30
0.0
 10
164.8316
 20
268.925
 30
0.0
 10
164.7469
 20
269.125
 30
0.0
 10
164.7057
 20
269.2181
 30
0.0
 10
164.6612
 20
269.3028
 30
0.0
 10
164.6136
 20
269.379
 30
0.0
 10
164.5458
 20
269.4933
 30
0.0
 10
164.4548
 20
269.6161
 30
0.0
 10
164.3405
 20
269.7484
 30
0.0
 10
164.3405
 20
269.7484
 30
0.0
 10
164.548
 20
270.5823
 30
0.0
 10
164.548
 20
270.5823
 30
0.0
 10
164.7427
 20
270.3421
 30
0.0
 10
164.9004
 20
270.1463
 30
0.0
 10
165.0232
 20
269.9928
 30
0.0
 10
165.13
 20
269.9039
 30
0.0
 10
165.256
 20
269.8595
 30
0.0
 10
165.401
 20
269.8595
 30
0.0
  0
SPLINE
  5
72
330
1F
100
AcDbEntity
  8
Layer 1
 62
   250
370
     9
100
AcDbSpline
210
0.0
220
0.0
230
1.0
 70
    11
 71
     3
 72
    41
 73
    37
 74
     0
 42
0.0000000001
 43
0.0000000001
 40
0.0
 40
0.0
 40
0.0
 40
0.0
 40
0.0833333333333333
 40
0.0833333333333333
 40
0.0833333333333333
 40
0.1666666666666667
 40
0.1666666666666667
 40
0.1666666666666667
 40
0.25
 40
0.25
 40
0.25
 40
0.3333333333333333
 40
0.3333333333333333
 40
0.3333333333333333
 40
0.4166666666666666
 40
0.4166666666666666
 40
0.4166666666666666
 40
0.5
 40
0.5
 40
0.5
 40
0.5833333333333333
 40
0.5833333333333333
 40
0.5833333333333333
 40
0.6666666666666666
 40
0.6666666666666666
 40
0.6666666666666666
 40
0.75
 40
0.75
 40
0.75
 40
0.8333333333333333
 40
0.8333333333333333
 40
0.8333333333333333
 40
0.9166666666666666
 40
0.9166666666666666
 40
0.9166666666666666
 40
1.0
 40
1.0
 40
1.0
 40
1.0
 10
168.5453
 20
267.9746
 30
0.0
 10
168.5453
 20
267.8031
 30
0.0
 10
168.5209
 20
267.5312
 30
0.0
 10
168.4712
 20
267.1597
 30
0.0
 10
168.4712
 20
267.1597
 30
0.0
 10
168.2352
 20
267.1597
 30
0.0
 10
168.2352
 20
267.1597
 30
0.0
 10
168.2352
 20
267.4899
 30
0.0
 10
168.2225
 20
267.7439
 30
0.0
 10
168.1971
 20
267.9206
 30
0.0
 10
168.1706
 20
268.0974
 30
0.0
 10
168.1294
 20
268.2868
 30
0.0
 10
168.0712
 20
268.4889
 30
0.0
 10
168.0077
 20
268.7123
 30
0.0
 10
167.9325
 20
268.925
 30
0.0
 10
167.8478
 20
269.125
 30
0.0
 10
167.8066
 20
269.2181
 30
0.0
 10
167.7621
 20
269.3028
 30
0.0
 10
167.7145
 20
269.379
 30
0.0
 10
167.6468
 20
269.4933
 30
0.0
 10
167.5557
 20
269.6161
 30
0.0
 10
167.4414
 20
269.7484
 30
0.0
 10
167.4414
 20
269.7484
 30
0.0
 10
167.6499
 20
270.5792
 30
0.0
 10
167.6499
 20
270.5792
 30
0.0
 10
167.8172
 20
270.3791
 30
0.0
 10
167.9431
 20
270.2056
 30
0.0
 10
168.0288
 20
270.0616
 30
0.0
 10
168.1156
 20
269.9166
 30
0.0
 10
168.1907
 20
269.7568
 30
0.0
 10
168.2574
 20
269.5811
 30
0.0
 10
168.3463
 20
269.3473
 30
0.0
 10
168.4162
 20
269.0816
 30
0.0
 10
168.468
 20
268.7853
 30
0.0
 10
168.5199
 20
268.4889
 30
0.0
 10
168.5453
 20
268.2191
 30
0.0
 10
168.5453
 20
267.9746
 30
0.0
  0
SPLINE
  5
73
330
1F
100
AcDbEntity
  8
Layer 1
 62
   250
370
     9
100
AcDbSpline
210
0.0
220
0.0
230
1.0
 70
    11
 71
     3
 72
   170
 73
   166
 74
     0
 42
0.0000000001
 43
0.0000000001
 40
0.0
 40
0.0
 40
0.0
 40
0.0
 40
0.0181818181818182
 40
0.0181818181818182
 40
0.0181818181818182
 40
0.0363636363636364
 40
0.0363636363636364
 40
0.0363636363636364
 40
0.0545454545454545
 40
0.0545454545454545
 40
0.0545454545454545
 40
0.0727272727272727
 40
0.0727272727272727
 40
0.0727272727272727
 40
0.0909090909090909
 40
0.0909090909090909
 40
0.0909090909090909
 40
0.1090909090909091
 40
0.1090909090909091
 40
0.1090909090909091
 40
0.1272727272727273
 40
0.1272727272727273
 40
0.1272727272727273
 40
0.1454545454545454
 40
0.1454545454545454
 40
0.1454545454545454
 40
0.1636363636363636
 40
0.1636363636363636
 40
0.1636363636363636
 40
0.1818181818181818
 40
0.1818181818181818
 40
0.1818181818181818
 40
0.2
 40
0.2
 40
0.2
 40
0.2181818181818182
 40
0.2181818181818182
 40
0.2181818181818182
 40
0.2363636363636364
 40
0.2363636363636364
 40
0.2363636363636364
 40
0.2545454545454545
 40
0.2545454545454545
 40
0.2545454545454545
 40
0.2727272727272727
 40
0.2727272727272727
 40
0.2727272727272727
 40
0.2909090909090909
 40
0.2909090909090909
 40
0.2909090909090909
 40
0.3090909090909091
 40
0.3090909090909091
 40
0.3090909090909091
 40
0.3272727272727273
 40
0.3272727272727273
 40
0.3272727272727273
 40
0.3454545454545455
 40
0.3454545454545455
 40
0.3454545454545455
 40
0.3636363636363636
 40
0.3636363636363636
 40
0.3636363636363636
 40
0.3818181818181818
 40
0.3818181818181818
 40
0.3818181818181818
 40
0.4
 40
0.4
 40
0.4
 40
0.4181818181818182
 40
0.4181818181818182
 40
0.4181818181818182
 40
0.4363636363636363
 40
0.4363636363636363
 40
0.4363636363636363
 40
0.4545454545454545
 40
0.4545454545454545
 40
0.4545454545454545
 40
0.4727272727272727
 40
0.4727272727272727
 40
0.4727272727272727
 40
0.4909090909090909
 40
0.4909090909090909
 40
0.4909090909090909
 40
0.509090909090909
 40
0.509090909090909
 40
0.509090909090909
 40
0.5272727272727272
 40
0.5272727272727272
 40
0.5272727272727272
 40
0.5454545454545454
 40
0.5454545454545454
 40
0.5454545454545454
 40
0.5636363636363636
 40
0.5636363636363636
 40
0.5636363636363636
 40
0.5818181818181818
 40
0.5818181818181818
 40
0.5818181818181818
 40
0.6
 40
0.6
 40
0.6
 40
0.6181818181818182
 40
0.6181818181818182
 40
0.6181818181818182
 40
0.6363636363636364
 40
0.6363636363636364
 40
0.6363636363636364
 40
0.6545454545454545
 40
0.6545454545454545
 40
0.6545454545454545
 40
0.6727272727272727
 40
0.6727272727272727
 40
0.6727272727272727
 40
0.6909090909090909
 40
0.6909090909090909
 40
0.6909090909090909
 40
0.7090909090909091
 40
0.7090909090909091
 40
0.7090909090909091
 40
0.7272727272727273
 40
0.7272727272727273
 40
0.7272727272727273
 40
0.7454545454545454
 40
0.7454545454545454
 40
0.7454545454545454
 40
0.7636363636363636
 40
0.7636363636363636
 40
0.7636363636363636
 40
0.7818181818181817
 40
0.7818181818181817
 40
0.7818181818181817
 40
0.7999999999999999
 40
0.7999999999999999
 40
0.7999999999999999
 40
0.8181818181818181
 40
0.8181818181818181
 40
0.8181818181818181
 40
0.8363636363636363
 40
0.8363636363636363
 40
0.8363636363636363
 40
0.8545454545454545
 40
0.8545454545454545
 40
0.8545454545454545
 40
0.8727272727272727
 40
0.8727272727272727
 40
0.8727272727272727
 40
0.8909090909090909
 40
0.8909090909090909
 40
0.8909090909090909
 40
0.9090909090909091
 40
0.9090909090909091
 40
0.9090909090909091
 40
0.9272727272727272
 40
0.9272727272727272
 40
0.9272727272727272
 40
0.9454545454545454
 40
0.9454545454545454
 40
0.9454545454545454
 40
0.9636363636363636
 40
0.9636363636363636
 40
0.9636363636363636
 40
0.9818181818181818
 40
0.9818181818181818
 40
0.9818181818181818
 40
1.0
 40
1.0
 40
1.0
 40
1.0
 10
153.7181
 20
279.9098
 30
0.0
 10
153.7065
 20
279.8292
 30
0.0
 10
153.6851
 20
279.7518
 30
0.0
 10
153.6588
 20
279.6761
 30
0.0
 10
153.6308
 20
279.6003
 30
0.0
 10
153.5864
 20
279.495
 30
0.0
 10
153.5238
 20
279.36
 30
0.0
 10
153.4612
 20
279.225
 30
0.0
 10
153.4234
 20
279.1476
 30
0.0
 10
153.4102
 20
279.1279
 30
0.0
 10
153.3592
 20
279.0472
 30
0.0
 10
153.3131
 20
279.0077
 30
0.0
 10
153.2752
 20
279.0077
 30
0.0
 10
153.2456
 20
279.0274
 30
0.0
 10
153.2209
 20
279.0455
 30
0.0
 10
153.1978
 20
279.0636
 30
0.0
 10
153.1748
 20
279.0818
 30
0.0
 10
153.155
 20
279.09
 30
0.0
 10
153.1353
 20
279.09
 30
0.0
 10
153.0546
 20
279.09
 30
0.0
 10
152.9492
 20
279.0571
 30
0.0
 10
152.8175
 20
278.9912
 30
0.0
 10
152.6842
 20
278.9254
 30
0.0
 10
152.541
 20
278.82
 30
0.0
 10
152.3829
 20
278.6751
 30
0.0
 10
152.2249
 20
278.5302
 30
0.0
 10
152.1014
 20
278.3953
 30
0.0
 10
152.0125
 20
278.2701
 30
0.0
 10
151.9252
 20
278.145
 30
0.0
 10
151.8808
 20
278.0578
 30
0.0
 10
151.8808
 20
278.01
 30
0.0
 10
151.8808
 20
277.9392
 30
0.0
 10
151.9022
 20
277.8833
 30
0.0
 10
151.9483
 20
277.8454
 30
0.0
 10
151.9861
 20
277.8158
 30
0.0
 10
152.0553
 20
277.7828
 30
0.0
 10
152.1557
 20
277.745
 30
0.0
 10
152.2545
 20
277.7055
 30
0.0
 10
152.322
 20
277.6742
 30
0.0
 10
152.3533
 20
277.6478
 30
0.0
 10
152.4603
 20
277.5737
 30
0.0
 10
152.513
 20
277.4289
 30
0.0
 10
152.513
 20
277.2132
 30
0.0
 10
152.513
 20
276.9152
 30
0.0
 10
152.457
 20
276.5728
 30
0.0
 10
152.3434
 20
276.1892
 30
0.0
 10
152.2314
 20
275.804
 30
0.0
 10
152.0833
 20
275.4714
 30
0.0
 10
151.9005
 20
275.1883
 30
0.0
 10
151.8067
 20
275.0566
 30
0.0
 10
151.698
 20
274.9249
 30
0.0
 10
151.5729
 20
274.7931
 30
0.0
 10
151.4478
 20
274.6598
 30
0.0
 10
151.3128
 20
274.5478
 30
0.0
 10
151.1679
 20
274.454
 30
0.0
 10
150.8914
 20
274.2713
 30
0.0
 10
150.572
 20
274.1791
 30
0.0
 10
150.2131
 20
274.1791
 30
0.0
 10
149.8048
 20
274.1857
 30
0.0
 10
149.4936
 20
274.324
 30
0.0
 10
149.2813
 20
274.5939
 30
0.0
 10
149.1858
 20
274.7322
 30
0.0
 10
149.1183
 20
274.8788
 30
0.0
 10
149.0821
 20
275.0335
 30
0.0
 10
149.0442
 20
275.1883
 30
0.0
 10
149.0261
 20
275.3348
 30
0.0
 10
149.0261
 20
275.4731
 30
0.0
 10
149.0261
 20
275.6492
 30
0.0
 10
149.0393
 20
275.8221
 30
0.0
 10
149.064
 20
275.9917
 30
0.0
 10
149.0903
 20
276.1596
 30
0.0
 10
149.1298
 20
276.3291
 30
0.0
 10
149.1841
 20
276.5004
 30
0.0
 10
149.2681
 20
276.7769
 30
0.0
 10
149.3685
 20
277.0436
 30
0.0
 10
149.4887
 20
277.3005
 30
0.0
 10
149.6072
 20
277.5573
 30
0.0
 10
149.7027
 20
277.7647
 30
0.0
 10
149.7768
 20
277.9228
 30
0.0
 10
149.7768
 20
277.9228
 30
0.0
 10
150.004
 20
278.4051
 30
0.0
 10
150.004
 20
278.4051
 30
0.0
 10
150.0303
 20
278.4595
 30
0.0
 10
150.0567
 20
278.5121
 30
0.0
 10
150.0863
 20
278.5648
 30
0.0
 10
150.1143
 20
278.6159
 30
0.0
 10
150.1406
 20
278.6406
 30
0.0
 10
150.1637
 20
278.6406
 30
0.0
 10
150.195
 20
278.6406
 30
0.0
 10
150.2131
 20
278.6159
 30
0.0
 10
150.2147
 20
278.5648
 30
0.0
 10
150.2164
 20
278.5121
 30
0.0
 10
150.2098
 20
278.4743
 30
0.0
 10
150.1966
 20
278.4479
 30
0.0
 10
150.162
 20
278.3557
 30
0.0
 10
150.1308
 20
278.2767
 30
0.0
 10
150.1061
 20
278.2142
 30
0.0
 10
150.0797
 20
278.1516
 30
0.0
 10
150.0419
 20
278.0611
 30
0.0
 10
149.9892
 20
277.9425
 30
0.0
 10
149.9382
 20
277.8223
 30
0.0
 10
149.8822
 20
277.6939
 30
0.0
 10
149.8229
 20
277.5556
 30
0.0
 10
149.7636
 20
277.4173
 30
0.0
 10
149.7143
 20
277.3038
 30
0.0
 10
149.6764
 20
277.2132
 30
0.0
 10
149.4871
 20
276.7127
 30
0.0
 10
149.3916
 20
276.3357
 30
0.0
 10
149.3916
 20
276.0855
 30
0.0
 10
149.3916
 20
275.8221
 30
0.0
 10
149.4854
 20
275.613
 30
0.0
 10
149.6747
 20
275.4583
 30
0.0
 10
149.8624
 20
275.3035
 30
0.0
 10
150.1275
 20
275.2261
 30
0.0
 10
150.4683
 20
275.2261
 30
0.0
 10
150.7514
 20
275.2261
 30
0.0
 10
151.0247
 20
275.292
 30
0.0
 10
151.2898
 20
275.4237
 30
0.0
 10
151.4857
 20
275.5241
 30
0.0
 10
151.6503
 20
275.6443
 30
0.0
 10
151.782
 20
275.7859
 30
0.0
 10
151.9137
 20
275.9274
 30
0.0
 10
152.0141
 20
276.0608
 30
0.0
 10
152.0833
 20
276.1843
 30
0.0
 10
152.1524
 20
276.3077
 30
0.0
 10
152.187
 20
276.4197
 30
0.0
 10
152.187
 20
276.5185
 30
0.0
 10
152.187
 20
276.5794
 30
0.0
 10
152.1409
 20
276.6255
 30
0.0
 10
152.0487
 20
276.6535
 30
0.0
 10
151.9565
 20
276.6831
 30
0.0
 10
151.8907
 20
276.7029
 30
0.0
 10
151.8495
 20
276.7127
 30
0.0
 10
151.81
 20
276.721
 30
0.0
 10
151.7639
 20
276.7391
 30
0.0
 10
151.7112
 20
276.7654
 30
0.0
 10
151.6124
 20
276.8132
 30
0.0
 10
151.5367
 20
276.8741
 30
0.0
 10
151.484
 20
276.9465
 30
0.0
 10
151.433
 20
277.0189
 30
0.0
 10
151.4066
 20
277.1177
 30
0.0
 10
151.4066
 20
277.2428
 30
0.0
 10
151.4066
 20
277.4322
 30
0.0
 10
151.4692
 20
277.6742
 30
0.0
 10
151.5927
 20
277.9656
 30
0.0
 10
151.7162
 20
278.2586
 30
0.0
 10
151.8907
 20
278.5467
 30
0.0
 10
152.1162
 20
278.8299
 30
0.0
 10
152.3006
 20
279.0604
 30
0.0
 10
152.4685
 20
279.2497
 30
0.0
 10
152.6183
 20
279.3929
 30
0.0
 10
152.699
 20
279.467
 30
0.0
 10
152.8027
 20
279.5526
 30
0.0
 10
152.9278
 20
279.6464
 30
0.0
 10
153.0529
 20
279.7419
 30
0.0
 10
153.1748
 20
279.8226
 30
0.0
 10
153.295
 20
279.8901
 30
0.0
 10
153.4398
 20
279.9741
 30
0.0
 10
153.5534
 20
280.0218
 30
0.0
 10
153.6374
 20
280.035
 30
0.0
 10
153.672
 20
280.035
 30
0.0
 10
153.6967
 20
280.0201
 30
0.0
 10
153.7098
 20
279.9922
 30
0.0
 10
153.7213
 20
279.9625
 30
0.0
 10
153.7246
 20
279.9362
 30
0.0
 10
153.7181
 20
279.9098
 30
0.0
  0
SPLINE
  5
74
330
1F
100
AcDbEntity
  8
Layer 1
 62
   250
370
     9
100
AcDbSpline
210
0.0
220
0.0
230
1.0
 70
    11
 71
     3
 72
   290
 73
   286
 74
     0
 42
0.0000000001
 43
0.0000000001
 40
0.0
 40
0.0
 40
0.0
 40
0.0
 40
0.0105263157894737
 40
0.0105263157894737
 40
0.0105263157894737
 40
0.0210526315789474
 40
0.0210526315789474
 40
0.0210526315789474
 40
0.0315789473684211
 40
0.0315789473684211
 40
0.0315789473684211
 40
0.0421052631578947
 40
0.0421052631578947
 40
0.0421052631578947
 40
0.0526315789473684
 40
0.0526315789473684
 40
0.0526315789473684
 40
0.0631578947368421
 40
0.0631578947368421
 40
0.0631578947368421
 40
0.0736842105263158
 40
0.0736842105263158
 40
0.0736842105263158
 40
0.0842105263157895
 40
0.0842105263157895
 40
0.0842105263157895
 40
0.0947368421052632
 40
0.0947368421052632
 40
0.0947368421052632
 40
0.1052631578947368
 40
0.1052631578947368
 40
0.1052631578947368
 40
0.1157894736842105
 40
0.1157894736842105
 40
0.1157894736842105
 40
0.1263157894736842
 40
0.1263157894736842
 40
0.1263157894736842
 40
0.1368421052631579
 40
0.1368421052631579
 40
0.1368421052631579
 40
0.1473684210526316
 40
0.1473684210526316
 40
0.1473684210526316
 40
0.1578947368421053
 40
0.1578947368421053
 40
0.1578947368421053
 40
0.1684210526315789
 40
0.1684210526315789
 40
0.1684210526315789
 40
0.1789473684210526
 40
0.1789473684210526
 40
0.1789473684210526
 40
0.1894736842105263
 40
0.1894736842105263
 40
0.1894736842105263
 40
0.2
 40
0.2
 40
0.2
 40
0.2105263157894737
 40
0.2105263157894737
 40
0.2105263157894737
 40
0.2210526315789474
 40
0.2210526315789474
 40
0.2210526315789474
 40
0.2315789473684211
 40
0.2315789473684211
 40
0.2315789473684211
 40
0.2421052631578947
 40
0.2421052631578947
 40
0.2421052631578947
 40
0.2526315789473684
 40
0.2526315789473684
 40
0.2526315789473684
 40
0.2631578947368421
 40
0.2631578947368421
 40
0.2631578947368421
 40
0.2736842105263158
 40
0.2736842105263158
 40
0.2736842105263158
 40
0.2842105263157895
 40
0.2842105263157895
 40
0.2842105263157895
 40
0.2947368421052631
 40
0.2947368421052631
 40
0.2947368421052631
 40
0.3052631578947368
 40
0.3052631578947368
 40
0.3052631578947368
 40
0.3157894736842105
 40
0.3157894736842105
 40
0.3157894736842105
 40
0.3263157894736842
 40
0.3263157894736842
 40
0.3263157894736842
 40
0.3368421052631579
 40
0.3368421052631579
 40
0.3368421052631579
 40
0.3473684210526315
 40
0.3473684210526315
 40
0.3473684210526315
 40
0.3578947368421053
 40
0.3578947368421053
 40
0.3578947368421053
 40
0.3684210526315789
 40
0.3684210526315789
 40
0.3684210526315789
 40
0.3789473684210526
 40
0.3789473684210526
 40
0.3789473684210526
 40
0.3894736842105263
 40
0.3894736842105263
 40
0.3894736842105263
 40
0.4
 40
0.4
 40
0.4
 40
0.4105263157894737
 40
0.4105263157894737
 40
0.4105263157894737
 40
0.4210526315789473
 40
0.4210526315789473
 40
0.4210526315789473
 40
0.4315789473684211
 40
0.4315789473684211
 40
0.4315789473684211
 40
0.4421052631578947
 40
0.4421052631578947
 40
0.4421052631578947
 40
0.4526315789473684
 40
0.4526315789473684
 40
0.4526315789473684
 40
0.4631578947368421
 40
0.4631578947368421
 40
0.4631578947368421
 40
0.4736842105263158
 40
0.4736842105263158
 40
0.4736842105263158
 40
0.4842105263157895
 40
0.4842105263157895
 40
0.4842105263157895
 40
0.4947368421052631
 40
0.4947368421052631
 40
0.4947368421052631
 40
0.5052631578947369
 40
0.5052631578947369
 40
0.5052631578947369
 40
0.5157894736842105
 40
0.5157894736842105
 40
0.5157894736842105
 40
0.5263157894736842
 40
0.5263157894736842
 40
0.5263157894736842
 40
0.5368421052631579
 40
0.5368421052631579
 40
0.5368421052631579
 40
0.5473684210526316
 40
0.5473684210526316
 40
0.5473684210526316
 40
0.5578947368421052
 40
0.5578947368421052
 40
0.5578947368421052
 40
0.5684210526315789
 40
0.5684210526315789
 40
0.5684210526315789
 40
0.5789473684210527
 40
0.5789473684210527
 40
0.5789473684210527
 40
0.5894736842105263
 40
0.5894736842105263
 40
0.5894736842105263
 40
0.6
 40
0.6
 40
0.6
 40
0.6105263157894737
 40
0.6105263157894737
 40
0.6105263157894737
 40
0.6210526315789473
 40
0.6210526315789473
 40
0.6210526315789473
 40
0.631578947368421
 40
0.631578947368421
 40
0.631578947368421
 40
0.6421052631578947
 40
0.6421052631578947
 40
0.6421052631578947
 40
0.6526315789473685
 40
0.6526315789473685
 40
0.6526315789473685
 40
0.6631578947368421
 40
0.6631578947368421
 40
0.6631578947368421
 40
0.6736842105263158
 40
0.6736842105263158
 40
0.6736842105263158
 40
0.6842105263157895
 40
0.6842105263157895
 40
0.6842105263157895
 40
0.6947368421052631
 40
0.6947368421052631
 40
0.6947368421052631
 40
0.7052631578947368
 40
0.7052631578947368
 40
0.7052631578947368
 40
0.7157894736842105
 40
0.7157894736842105
 40
0.7157894736842105
 40
0.7263157894736842
 40
0.7263157894736842
 40
0.7263157894736842
 40
0.7368421052631579
 40
0.7368421052631579
 40
0.7368421052631579
 40
0.7473684210526316
 40
0.7473684210526316
 40
0.7473684210526316
 40
0.7578947368421053
 40
0.7578947368421053
 40
0.7578947368421053
 40
0.7684210526315789
 40
0.7684210526315789
 40
0.7684210526315789
 40
0.7789473684210526
 40
0.7789473684210526
 40
0.7789473684210526
 40
0.7894736842105263
 40
0.7894736842105263
 40
0.7894736842105263
 40
0.7999999999999999
 40
0.7999999999999999
 40
0.7999999999999999
 40
0.8105263157894737
 40
0.8105263157894737
 40
0.8105263157894737
 40
0.8210526315789474
 40
0.8210526315789474
 40
0.8210526315789474
 40
0.8315789473684211
 40
0.8315789473684211
 40
0.8315789473684211
 40
0.8421052631578947
 40
0.8421052631578947
 40
0.8421052631578947
 40
0.8526315789473684
 40
0.8526315789473684
 40
0.8526315789473684
 40
0.8631578947368421
 40
0.8631578947368421
 40
0.8631578947368421
 40
0.8736842105263157
 40
0.8736842105263157
 40
0.8736842105263157
 40
0.8842105263157894
 40
0.8842105263157894
 40
0.8842105263157894
 40
0.8947368421052632
 40
0.8947368421052632
 40
0.8947368421052632
 40
0.9052631578947368
 40
0.9052631578947368
 40
0.9052631578947368
 40
0.9157894736842105
 40
0.9157894736842105
 40
0.9157894736842105
 40
0.9263157894736842
 40
0.9263157894736842
 40
0.9263157894736842
 40
0.9368421052631579
 40
0.9368421052631579
 40
0.9368421052631579
 40
0.9473684210526315
 40
0.9473684210526315
 40
0.9473684210526315
 40
0.9578947368421052
 40
0.9578947368421052
 40
0.9578947368421052
 40
0.968421052631579
 40
0.968421052631579
 40
0.968421052631579
 40
0.9789473684210526
 40
0.9789473684210526
 40
0.9789473684210526
 40
0.9894736842105263
 40
0.9894736842105263
 40
0.9894736842105263
 40
1.0
 40
1.0
 40
1.0
 40
1.0
 10
158.0817
 20
278.8712
 30
0.0
 10
158.296
 20
278.9745
 30
0.0
 10
158.4768
 20
279.1109
 30
0.0
 10
158.6224
 20
279.2793
 30
0.0
 10
158.6801
 20
279.3468
 30
0.0
 10
158.7624
 20
279.4621
 30
0.0
 10
158.8677
 20
279.6267
 30
0.0
 10
158.8941
 20
279.6662
 30
0.0
 10
158.9896
 20
279.8144
 30
0.0
 10
159.1525
 20
280.0712
 30
0.0
 10
159.2431
 20
280.2128
 30
0.0
 10
159.3287
 20
280.3247
 30
0.0
 10
159.4077
 20
280.4054
 30
0.0
 10
159.4308
 20
280.4268
 30
0.0
 10
159.4588
 20
280.4531
 30
0.0
 10
159.4933
 20
280.4844
 30
0.0
 10
159.5263
 20
280.5157
 30
0.0
 10
159.5641
 20
280.5503
 30
0.0
 10
159.6069
 20
280.5881
 30
0.0
 10
159.6925
 20
280.6655
 30
0.0
 10
159.8176
 20
280.8417
 30
0.0
 10
159.9823
 20
281.1149
 30
0.0
 10
160.03
 20
281.1051
 30
0.0
 10
160.109
 20
281.0145
 30
0.0
 10
160.2193
 20
280.8433
 30
0.0
 10
160.3247
 20
280.6737
 30
0.0
 10
160.3774
 20
280.5321
 30
0.0
 10
160.3774
 20
280.4235
 30
0.0
 10
160.3774
 20
280.2589
 30
0.0
 10
160.3132
 20
280.1156
 30
0.0
 10
160.1848
 20
279.9922
 30
0.0
 10
160.0564
 20
279.8736
 30
0.0
 10
159.9362
 20
279.8226
 30
0.0
 10
159.8226
 20
279.8423
 30
0.0
 10
159.8226
 20
279.8423
 30
0.0
 10
159.5295
 20
279.872
 30
0.0
 10
159.5295
 20
279.872
 30
0.0
 10
159.4258
 20
279.872
 30
0.0
 10
159.3369
 20
279.8341
 30
0.0
 10
159.2645
 20
279.76
 30
0.0
 10
159.2283
 20
279.7255
 30
0.0
 10
159.1558
 20
279.6234
 30
0.0
 10
159.0472
 20
279.4555
 30
0.0
 10
158.9896
 20
279.3781
 30
0.0
 10
158.9237
 20
279.2843
 30
0.0
 10
158.8546
 20
279.1756
 30
0.0
 10
158.7607
 20
279.0422
 30
0.0
 10
158.7097
 20
278.9715
 30
0.0
 10
158.6998
 20
278.9616
 30
0.0
 10
158.6257
 20
278.8776
 30
0.0
 10
158.55
 20
278.8052
 30
0.0
 10
158.4726
 20
278.7443
 30
0.0
 10
158.3985
 20
278.6932
 30
0.0
 10
158.3327
 20
278.6504
 30
0.0
 10
158.2751
 20
278.6191
 30
0.0
 10
158.201
 20
278.5763
 30
0.0
 10
158.1088
 20
278.5319
 30
0.0
 10
158.0001
 20
278.4825
 30
0.0
 10
157.9837
 20
278.4776
 30
0.0
 10
157.9046
 20
278.4496
 30
0.0
 10
157.7631
 20
278.4018
 30
0.0
 10
157.6849
 20
278.3731
 30
0.0
 10
157.5922
 20
278.3414
 30
0.0
 10
157.4851
 20
278.3074
 30
0.0
 10
157.4406
 20
278.2726
 30
0.0
 10
157.4176
 20
278.2553
 30
0.0
 10
157.4157
 20
278.2553
 30
0.0
 10
157.4157
 20
278.2553
 30
0.0
 10
157.1704
 20
278.0956
 30
0.0
 10
157.1704
 20
278.0956
 30
0.0
 10
157.1587
 20
278.1257
 30
0.0
 10
157.1495
 20
278.1558
 30
0.0
 10
157.1429
 20
278.1859
 30
0.0
 10
157.1429
 20
278.1859
 30
0.0
 10
157.1424
 20
278.1829
 30
0.0
 10
157.1424
 20
278.1829
 30
0.0
 10
157.1358
 20
278.1598
 30
0.0
 10
157.1226
 20
278.1318
 30
0.0
 10
157.1029
 20
278.0956
 30
0.0
 10
156.9201
 20
277.9672
 30
0.0
 10
156.7687
 20
277.8915
 30
0.0
 10
156.6502
 20
277.8684
 30
0.0
 10
156.5958
 20
277.8552
 30
0.0
 10
156.5366
 20
277.8487
 30
0.0
 10
156.474
 20
277.8454
 30
0.0
 10
156.4326
 20
277.8432
 30
0.0
 10
156.3912
 20
277.8417
 30
0.0
 10
156.3489
 20
277.841
 30
0.0
 10
156.3073
 20
277.7713
 30
0.0
 10
156.2486
 20
277.7072
 30
0.0
 10
156.1727
 20
277.6495
 30
0.0
 10
156.064
 20
277.5655
 30
0.0
 10
155.9356
 20
277.4947
 30
0.0
 10
155.7875
 20
277.4371
 30
0.0
 10
155.6558
 20
277.3795
 30
0.0
 10
155.5372
 20
277.3169
 30
0.0
 10
155.4302
 20
277.2494
 30
0.0
 10
155.2145
 20
277.1013
 30
0.0
 10
155.0351
 20
276.9366
 30
0.0
 10
154.8902
 20
276.7522
 30
0.0
 10
154.8639
 20
276.7275
 30
0.0
 10
154.7388
 20
276.5497
 30
0.0
 10
154.5149
 20
276.2221
 30
0.0
 10
154.2416
 20
275.7908
 30
0.0
 10
154.0868
 20
275.5521
 30
0.0
 10
154.0506
 20
275.5043
 30
0.0
 10
153.8201
 20
275.2113
 30
0.0
 10
153.5205
 20
274.9446
 30
0.0
 10
153.1534
 20
274.7026
 30
0.0
 10
153.0645
 20
274.645
 30
0.0
 10
152.9657
 20
274.589
 30
0.0
 10
152.8603
 20
274.5347
 30
0.0
 10
152.7122
 20
274.4606
 30
0.0
 10
152.6183
 20
274.4145
 30
0.0
 10
152.5805
 20
274.3997
 30
0.0
 10
152.48
 20
274.3437
 30
0.0
 10
152.4241
 20
274.3371
 30
0.0
 10
152.4109
 20
274.3799
 30
0.0
 10
152.3911
 20
274.4277
 30
0.0
 10
152.5426
 20
274.5693
 30
0.0
 10
152.8653
 20
274.8047
 30
0.0
 10
153.1155
 20
274.9808
 30
0.0
 10
153.3164
 20
275.1455
 30
0.0
 10
153.4678
 20
275.2969
 30
0.0
 10
153.6769
 20
275.5076
 30
0.0
 10
153.8563
 20
275.7332
 30
0.0
 10
154.0078
 20
275.9719
 30
0.0
 10
154.0753
 20
276.0838
 30
0.0
 10
154.1329
 20
276.1793
 30
0.0
 10
154.1807
 20
276.2567
 30
0.0
 10
154.2268
 20
276.3324
 30
0.0
 10
154.2613
 20
276.3917
 30
0.0
 10
154.2877
 20
276.4296
 30
0.0
 10
154.4507
 20
276.693
 30
0.0
 10
154.5857
 20
276.9004
 30
0.0
 10
154.6927
 20
277.0519
 30
0.0
 10
154.8211
 20
277.2412
 30
0.0
 10
154.9396
 20
277.391
 30
0.0
 10
155.0499
 20
277.4997
 30
0.0
 10
155.152
 20
277.6034
 30
0.0
 10
155.231
 20
277.6775
 30
0.0
 10
155.2853
 20
277.7219
 30
0.0
 10
155.3825
 20
277.8092
 30
0.0
 10
155.4862
 20
277.8816
 30
0.0
 10
155.5998
 20
277.9392
 30
0.0
 10
155.5998
 20
277.9392
 30
0.0
 10
155.6939
 20
277.9879
 30
0.0
 10
155.6939
 20
277.9879
 30
0.0
 10
155.6939
 20
277.9879
 30
0.0
 10
155.6953
 20
277.9902
 30
0.0
 10
155.6953
 20
277.9902
 30
0.0
 10
155.7183
 20
278.0051
 30
0.0
 10
155.7332
 20
278.0182
 30
0.0
 10
155.743
 20
278.0281
 30
0.0
 10
155.7282
 20
278.0413
 30
0.0
 10
155.7134
 20
278.0577
 30
0.0
 10
155.7002
 20
278.0758
 30
0.0
 10
155.6673
 20
278.1252
 30
0.0
 10
155.6525
 20
278.1713
 30
0.0
 10
155.6525
 20
278.2158
 30
0.0
 10
155.6525
 20
278.28
 30
0.0
 10
155.669
 20
278.3689
 30
0.0
 10
155.7052
 20
278.4808
 30
0.0
 10
155.743
 20
278.5878
 30
0.0
 10
155.8138
 20
278.7163
 30
0.0
 10
155.9176
 20
278.8677
 30
0.0
 10
155.9916
 20
278.9698
 30
0.0
 10
156.0723
 20
279.0686
 30
0.0
 10
156.1628
 20
279.1608
 30
0.0
 10
156.2847
 20
279.2809
 30
0.0
 10
156.395
 20
279.3402
 30
0.0
 10
156.4905
 20
279.3402
 30
0.0
 10
156.5843
 20
279.3402
 30
0.0
 10
156.6716
 20
279.2941
 30
0.0
 10
156.7522
 20
279.2003
 30
0.0
 10
156.8296
 20
279.1064
 30
0.0
 10
156.8675
 20
278.978
 30
0.0
 10
156.8675
 20
278.815
 30
0.0
 10
156.8675
 20
278.7311
 30
0.0
 10
156.8543
 20
278.6455
 30
0.0
 10
156.8296
 20
278.5582
 30
0.0
 10
156.8131
 20
278.5072
 30
0.0
 10
156.8
 20
278.4693
 30
0.0
 10
156.7901
 20
278.4446
 30
0.0
 10
156.7802
 20
278.4216
 30
0.0
 10
156.7703
 20
278.4002
 30
0.0
 10
156.7605
 20
278.3804
 30
0.0
 10
156.8098
 20
278.3804
 30
0.0
 10
156.8576
 20
278.3886
 30
0.0
 10
156.9037
 20
278.4051
 30
0.0
 10
156.9498
 20
278.4199
 30
0.0
 10
157.0173
 20
278.4528
 30
0.0
 10
157.1029
 20
278.5006
 30
0.0
 10
157.1122
 20
278.4711
 30
0.0
 10
157.123
 20
278.4313
 30
0.0
 10
157.1353
 20
278.384
 30
0.0
 10
157.1418
 20
278.4228
 30
0.0
 10
157.1534
 20
278.4618
 30
0.0
 10
157.1704
 20
278.5006
 30
0.0
 10
157.3564
 20
278.6043
 30
0.0
 10
157.5523
 20
278.7492
 30
0.0
 10
157.7581
 20
278.9352
 30
0.0
 10
157.8964
 20
279.0571
 30
0.0
 10
158.0051
 20
279.1674
 30
0.0
 10
158.0825
 20
279.2629
 30
0.0
 10
158.1631
 20
279.3567
 30
0.0
 10
158.201
 20
279.4258
 30
0.0
 10
158.1977
 20
279.4703
 30
0.0
 10
158.1845
 20
279.49
 30
0.0
 10
158.1499
 20
279.5147
 30
0.0
 10
158.0923
 20
279.5477
 30
0.0
 10
158.0331
 20
279.5789
 30
0.0
 10
157.9689
 20
279.5921
 30
0.0
 10
157.8981
 20
279.5855
 30
0.0
 10
157.7894
 20
279.5855
 30
0.0
 10
157.6906
 20
279.5394
 30
0.0
 10
157.605
 20
279.4456
 30
0.0
 10
157.549
 20
279.3946
 30
0.0
 10
157.475
 20
279.2908
 30
0.0
 10
157.3778
 20
279.1328
 30
0.0
 10
157.3778
 20
279.1328
 30
0.0
 10
157.2
 20
278.848
 30
0.0
 10
157.2
 20
278.848
 30
0.0
 10
157.1605
 20
278.7805
 30
0.0
 10
157.121
 20
278.7558
 30
0.0
 10
157.0782
 20
278.7706
 30
0.0
 10
157.0601
 20
278.7772
 30
0.0
 10
157.0519
 20
278.8002
 30
0.0
 10
157.0568
 20
278.8381
 30
0.0
 10
157.0617
 20
278.8776
 30
0.0
 10
157.0782
 20
278.9221
 30
0.0
 10
157.1078
 20
278.9731
 30
0.0
 10
157.1589
 20
279.0637
 30
0.0
 10
157.2033
 20
279.1509
 30
0.0
 10
157.2379
 20
279.2349
 30
0.0
 10
157.2708
 20
279.3205
 30
0.0
 10
157.2988
 20
279.4357
 30
0.0
 10
157.3252
 20
279.5773
 30
0.0
 10
157.3531
 20
279.7205
 30
0.0
 10
157.368
 20
279.9164
 30
0.0
 10
157.368
 20
280.1601
 30
0.0
 10
157.368
 20
280.1601
 30
0.0
 10
157.3877
 20
280.9602
 30
0.0
 10
157.3877
 20
280.9602
 30
0.0
 10
157.391
 20
281.0129
 30
0.0
 10
157.4239
 20
281.1084
 30
0.0
 10
157.4865
 20
281.2483
 30
0.0
 10
157.549
 20
281.3882
 30
0.0
 10
157.6001
 20
281.4985
 30
0.0
 10
157.6379
 20
281.5776
 30
0.0
 10
157.6775
 20
281.6582
 30
0.0
 10
157.717
 20
281.7422
 30
0.0
 10
157.7581
 20
281.8294
 30
0.0
 10
157.7713
 20
281.836
 30
0.0
 10
157.7828
 20
281.8327
 30
0.0
 10
157.7911
 20
281.8212
 30
0.0
 10
157.7976
 20
281.8097
 30
0.0
 10
157.7993
 20
281.785
 30
0.0
 10
157.7927
 20
281.7471
 30
0.0
 10
157.7631
 20
281.5858
 30
0.0
 10
157.745
 20
281.4327
 30
0.0
 10
157.7351
 20
281.2894
 30
0.0
 10
157.7252
 20
281.1446
 30
0.0
 10
157.6939
 20
280.7544
 30
0.0
 10
157.6429
 20
280.1222
 30
0.0
 10
157.6116
 20
279.9164
 30
0.0
 10
157.5919
 20
279.7749
 30
0.0
 10
157.5853
 20
279.6975
 30
0.0
 10
157.6659
 20
279.8489
 30
0.0
 10
157.7779
 20
279.9823
 30
0.0
 10
157.9228
 20
280.0975
 30
0.0
 10
158.0133
 20
280.1551
 30
0.0
 10
158.0973
 20
280.1864
 30
0.0
 10
158.173
 20
280.1897
 30
0.0
 10
158.2866
 20
280.1897
 30
0.0
 10
158.3706
 20
280.1551
 30
0.0
 10
158.4249
 20
280.0876
 30
0.0
 10
158.4825
 20
280.0136
 30
0.0
 10
158.5121
 20
279.9378
 30
0.0
 10
158.5121
 20
279.8605
 30
0.0
 10
158.5121
 20
279.7189
 30
0.0
 10
158.4562
 20
279.5328
 30
0.0
 10
158.3475
 20
279.3024
 30
0.0
 10
158.2812
 20
279.1566
 30
0.0
 10
158.1929
 20
279.0128
 30
0.0
 10
158.0817
 20
278.8712
 30
0.0
  0
SPLINE
  5
75
330
1F
100
AcDbEntity
  8
Layer 1
 62
   250
370
     9
100
AcDbSpline
210
0.0
220
0.0
230
1.0
 70
    11
 71
     3
 72
    32
 73
    28
 74
     0
 42
0.0000000001
 43
0.0000000001
 40
0.0
 40
0.0
 40
0.0
 40
0.0
 40
0.1111111111111111
 40
0.1111111111111111
 40
0.1111111111111111
 40
0.2222222222222222
 40
0.2222222222222222
 40
0.2222222222222222
 40
0.3333333333333333
 40
0.3333333333333333
 40
0.3333333333333333
 40
0.4444444444444444
 40
0.4444444444444444
 40
0.4444444444444444
 40
0.5555555555555556
 40
0.5555555555555556
 40
0.5555555555555556
 40
0.6666666666666666
 40
0.6666666666666666
 40
0.6666666666666666
 40
0.7777777777777777
 40
0.7777777777777777
 40
0.7777777777777777
 40
0.8888888888888888
 40
0.8888888888888888
 40
0.8888888888888888
 40
1.0
 40
1.0
 40
1.0
 40
1.0
 10
157.5507
 20
282.7398
 30
0.0
 10
157.5507
 20
282.8106
 30
0.0
 10
157.6116
 20
282.9637
 30
0.0
 10
157.7318
 20
283.2008
 30
0.0
 10
157.8536
 20
283.4379
 30
0.0
 10
157.931
 20
283.5548
 30
0.0
 10
157.9656
 20
283.5548
 30
0.0
 10
158.0364
 20
283.5844
 30
0.0
 10
158.1401
 20
283.5301
 30
0.0
 10
158.2751
 20
283.3934
 30
0.0
 10
158.4101
 20
283.2568
 30
0.0
 10
158.4825
 20
283.1498
 30
0.0
 10
158.4924
 20
283.0724
 30
0.0
 10
158.4924
 20
282.9703
 30
0.0
 10
158.4364
 20
282.8222
 30
0.0
 10
158.3228
 20
282.6295
 30
0.0
 10
158.2109
 20
282.4369
 30
0.0
 10
158.1285
 20
282.3398
 30
0.0
 10
158.0775
 20
282.3398
 30
0.0
 10
158.0578
 20
282.3497
 30
0.0
 10
157.9919
 20
282.3925
 30
0.0
 10
157.8767
 20
282.4682
 30
0.0
 10
157.7631
 20
282.5439
 30
0.0
 10
157.6791
 20
282.5999
 30
0.0
 10
157.6231
 20
282.6394
 30
0.0
 10
157.5754
 20
282.6707
 30
0.0
 10
157.5507
 20
282.7053
 30
0.0
 10
157.5507
 20
282.7398
 30
0.0
  0
SPLINE
  5
76
330
1F
100
AcDbEntity
  8
Layer 1
 62
   250
370
     9
100
AcDbSpline
210
0.0
220
0.0
230
1.0
 70
    11
 71
     3
 72
    29
 73
    25
 74
     0
 42
0.0000000001
 43
0.0000000001
 40
0.0
 40
0.0
 40
0.0
 40
0.0
 40
0.125
 40
0.125
 40
0.125
 40
0.25
 40
0.25
 40
0.25
 40
0.375
 40
0.375
 40
0.375
 40
0.5
 40
0.5
 40
0.5
 40
0.625
 40
0.625
 40
0.625
 40
0.75
 40
0.75
 40
0.75
 40
0.875
 40
0.875
 40
0.875
 40
1.0
 40
1.0
 40
1.0
 40
1.0
 10
156.6123
 20
278.5582
 30
0.0
 10
156.6123
 20
278.629
 30
0.0
 10
156.5728
 20
278.6866
 30
0.0
 10
156.4954
 20
278.7327
 30
0.0
 10
156.4197
 20
278.7739
 30
0.0
 10
156.3357
 20
278.7953
 30
0.0
 10
156.2452
 20
278.7953
 30
0.0
 10
156.1908
 20
278.7953
 30
0.0
 10
156.1316
 20
278.7689
 30
0.0
 10
156.0674
 20
278.7179
 30
0.0
 10
155.9966
 20
278.6636
 30
0.0
 10
155.9538
 20
278.6076
 30
0.0
 10
155.9406
 20
278.5483
 30
0.0
 10
155.9159
 20
278.4759
 30
0.0
 10
155.9636
 20
278.4216
 30
0.0
 10
156.0855
 20
278.3903
 30
0.0
 10
156.0855
 20
278.3903
 30
0.0
 10
156.283
 20
278.3409
 30
0.0
 10
156.283
 20
278.3409
 30
0.0
 10
156.3505
 20
278.3409
 30
0.0
 10
156.423
 20
278.359
 30
0.0
 10
156.5003
 20
278.3952
 30
0.0
 10
156.5744
 20
278.4331
 30
0.0
 10
156.6123
 20
278.4874
 30
0.0
 10
156.6123
 20
278.5582
 30
0.0
  0
SPLINE
  5
77
330
1F
100
AcDbEntity
  8
Layer 1
 62
   250
370
     9
100
AcDbSpline
210
0.0
220
0.0
230
1.0
 70
    11
 71
     3
 72
    32
 73
    28
 74
     0
 42
0.0000000001
 43
0.0000000001
 40
0.0
 40
0.0
 40
0.0
 40
0.0
 40
0.1111111111111111
 40
0.1111111111111111
 40
0.1111111111111111
 40
0.2222222222222222
 40
0.2222222222222222
 40
0.2222222222222222
 40
0.3333333333333333
 40
0.3333333333333333
 40
0.3333333333333333
 40
0.4444444444444444
 40
0.4444444444444444
 40
0.4444444444444444
 40
0.5555555555555556
 40
0.5555555555555556
 40
0.5555555555555556
 40
0.6666666666666666
 40
0.6666666666666666
 40
0.6666666666666666
 40
0.7777777777777777
 40
0.7777777777777777
 40
0.7777777777777777
 40
0.8888888888888888
 40
0.8888888888888888
 40
0.8888888888888888
 40
1.0
 40
1.0
 40
1.0
 40
1.0
 10
155.855
 20
281.4195
 30
0.0
 10
155.855
 20
281.4903
 30
0.0
 10
155.9143
 20
281.6434
 30
0.0
 10
156.0361
 20
281.8804
 30
0.0
 10
156.1563
 20
282.1175
 30
0.0
 10
156.2336
 20
282.2344
 30
0.0
 10
156.2699
 20
282.2344
 30
0.0
 10
156.3406
 20
282.264
 30
0.0
 10
156.4427
 20
282.2097
 30
0.0
 10
156.5777
 20
282.0731
 30
0.0
 10
156.7127
 20
281.9364
 30
0.0
 10
156.7852
 20
281.8294
 30
0.0
 10
156.795
 20
281.752
 30
0.0
 10
156.795
 20
281.65
 30
0.0
 10
156.7391
 20
281.5018
 30
0.0
 10
156.6255
 20
281.3092
 30
0.0
 10
156.5135
 20
281.1166
 30
0.0
 10
156.4312
 20
281.0194
 30
0.0
 10
156.3802
 20
281.0194
 30
0.0
 10
156.3604
 20
281.0293
 30
0.0
 10
156.2946
 20
281.0721
 30
0.0
 10
156.1793
 20
281.1478
 30
0.0
 10
156.0657
 20
281.2236
 30
0.0
 10
155.9818
 20
281.2795
 30
0.0
 10
155.9274
 20
281.3191
 30
0.0
 10
155.878
 20
281.3503
 30
0.0
 10
155.855
 20
281.3849
 30
0.0
 10
155.855
 20
281.4195
 30
0.0
  0
SPLINE
  5
78
330
1F
100
AcDbEntity
  8
Layer 1
 62
   250
370
     9
100
AcDbSpline
210
0.0
220
0.0
230
1.0
 70
    11
 71
     3
 72
    29
 73
    25
 74
     0
 42
0.0000000001
 43
0.0000000001
 40
0.0
 40
0.0
 40
0.0
 40
0.0
 40
0.125
 40
0.125
 40
0.125
 40
0.25
 40
0.25
 40
0.25
 40
0.375
 40
0.375
 40
0.375
 40
0.5
 40
0.5
 40
0.5
 40
0.625
 40
0.625
 40
0.625
 40
0.75
 40
0.75
 40
0.75
 40
0.875
 40
0.875
 40
0.875
 40
1.0
 40
1.0
 40
1.0
 40
1.0
 10
141.5969
 20
262.0395
 30
0.0
 10
141.4414
 20
262.1199
 30
0.0
 10
141.3006
 20
262.2099
 30
0.0
 10
141.1747
 20
262.3093
 30
0.0
 10
141.0699
 20
262.3898
 30
0.0
 10
140.9641
 20
262.4808
 30
0.0
 10
140.8582
 20
262.5813
 30
0.0
 10
140.8794
 20
262.6702
 30
0.0
 10
140.9175
 20
262.7898
 30
0.0
 10
140.9746
 20
262.9401
 30
0.0
 10
141.0318
 20
263.0893
 30
0.0
 10
141.0995
 20
263.2343
 30
0.0
 10
141.1778
 20
263.3719
 30
0.0
 10
141.2953
 20
263.2502
 30
0.0
 10
141.417
 20
263.1423
 30
0.0
 10
141.5419
 20
263.0481
 30
0.0
 10
141.6679
 20
262.9539
 30
0.0
 10
141.7853
 20
262.8777
 30
0.0
 10
141.8975
 20
262.8173
 30
0.0
 10
141.8478
 20
262.7284
 30
0.0
 10
141.7949
 20
262.6078
 30
0.0
 10
141.7377
 20
262.4543
 30
0.0
 10
141.6806
 20
262.3019
 30
0.0
 10
141.634
 20
262.1633
 30
0.0
 10
141.5969
 20
262.0395
 30
0.0
  0
SPLINE
  5
79
330
1F
100
AcDbEntity
  8
Layer 1
 62
   250
370
     9
100
AcDbSpline
210
0.0
220
0.0
230
1.0
 70
    11
 71
     3
 72
    62
 73
    58
 74
     0
 42
0.0000000001
 43
0.0000000001
 40
0.0
 40
0.0
 40
0.0
 40
0.0
 40
0.0526315789473684
 40
0.0526315789473684
 40
0.0526315789473684
 40
0.1052631578947368
 40
0.1052631578947368
 40
0.1052631578947368
 40
0.1578947368421053
 40
0.1578947368421053
 40
0.1578947368421053
 40
0.2105263157894737
 40
0.2105263157894737
 40
0.2105263157894737
 40
0.2631578947368421
 40
0.2631578947368421
 40
0.2631578947368421
 40
0.3157894736842105
 40
0.3157894736842105
 40
0.3157894736842105
 40
0.3684210526315789
 40
0.3684210526315789
 40
0.3684210526315789
 40
0.4210526315789473
 40
0.4210526315789473
 40
0.4210526315789473
 40
0.4736842105263158
 40
0.4736842105263158
 40
0.4736842105263158
 40
0.5263157894736842
 40
0.5263157894736842
 40
0.5263157894736842
 40
0.5789473684210527
 40
0.5789473684210527
 40
0.5789473684210527
 40
0.631578947368421
 40
0.631578947368421
 40
0.631578947368421
 40
0.6842105263157894
 40
0.6842105263157894
 40
0.6842105263157894
 40
0.7368421052631579
 40
0.7368421052631579
 40
0.7368421052631579
 40
0.7894736842105263
 40
0.7894736842105263
 40
0.7894736842105263
 40
0.8421052631578947
 40
0.8421052631578947
 40
0.8421052631578947
 40
0.894736842105263
 40
0.894736842105263
 40
0.894736842105263
 40
0.9473684210526315
 40
0.9473684210526315
 40
0.9473684210526315
 40
1.0
 40
1.0
 40
1.0
 40
1.0
 10
145.1318
 20
264.0355
 30
0.0
 10
145.0217
 20
263.9741
 30
0.0
 10
144.9169
 20
263.8535
 30
0.0
 10
144.8153
 20
263.6757
 30
0.0
 10
144.737
 20
263.5423
 30
0.0
 10
144.6439
 20
263.3455
 30
0.0
 10
144.5359
 20
263.0872
 30
0.0
 10
144.4851
 20
262.9655
 30
0.0
 10
144.4386
 20
262.8036
 30
0.0
 10
144.3973
 20
262.6036
 30
0.0
 10
144.3655
 20
262.4607
 30
0.0
 10
144.3327
 20
262.2702
 30
0.0
 10
144.2978
 20
262.0331
 30
0.0
 10
144.2703
 20
261.8469
 30
0.0
 10
144.2417
 20
261.631
 30
0.0
 10
144.211
 20
261.3844
 30
0.0
 10
144.211
 20
261.3844
 30
0.0
 10
143.9507
 20
261.3844
 30
0.0
 10
143.9507
 20
261.3844
 30
0.0
 10
143.9115
 20
261.6828
 30
0.0
 10
143.847
 20
261.9844
 30
0.0
 10
143.7581
 20
262.2914
 30
0.0
 10
143.6692
 20
262.5983
 30
0.0
 10
143.5739
 20
262.8586
 30
0.0
 10
143.4713
 20
263.0735
 30
0.0
 10
143.3686
 20
263.2872
 30
0.0
 10
143.2511
 20
263.4714
 30
0.0
 10
143.1167
 20
263.627
 30
0.0
 10
142.9918
 20
263.7688
 30
0.0
 10
142.8585
 20
263.8746
 30
0.0
 10
142.7167
 20
263.9424
 30
0.0
 10
142.7167
 20
263.9424
 30
0.0
 10
142.8532
 20
264.6906
 30
0.0
 10
142.8532
 20
264.6906
 30
0.0
 10
143.0405
 20
264.6155
 30
0.0
 10
143.1887
 20
264.5149
 30
0.0
 10
143.2977
 20
264.389
 30
0.0
 10
143.4067
 20
264.263
 30
0.0
 10
143.5146
 20
264.1011
 30
0.0
 10
143.6215
 20
263.9021
 30
0.0
 10
143.6956
 20
263.7635
 30
0.0
 10
143.7634
 20
263.6069
 30
0.0
 10
143.8237
 20
263.4312
 30
0.0
 10
143.8692
 20
263.2947
 30
0.0
 10
143.9242
 20
263.1042
 30
0.0
 10
143.9909
 20
262.8607
 30
0.0
 10
144.0385
 20
262.6787
 30
0.0
 10
144.0576
 20
262.6025
 30
0.0
 10
144.0491
 20
262.6311
 30
0.0
 10
144.0872
 20
262.974
 30
0.0
 10
144.2036
 20
263.3761
 30
0.0
 10
144.4005
 20
263.8376
 30
0.0
 10
144.5878
 20
264.2736
 30
0.0
 10
144.8323
 20
264.5625
 30
0.0
 10
145.1318
 20
264.7054
 30
0.0
 10
145.1318
 20
264.7054
 30
0.0
 10
145.1318
 20
264.0355
 30
0.0
 10
145.1318
 20
264.0355
 30
0.0
  0
SPLINE
  5
7A
330
1F
100
AcDbEntity
  8
Layer 1
 62
   250
370
     9
100
AcDbSpline
210
0.0
220
0.0
230
1.0
 70
    11
 71
     3
 72
    41
 73
    37
 74
     0
 42
0.0000000001
 43
0.0000000001
 40
0.0
 40
0.0
 40
0.0
 40
0.0
 40
0.0833333333333333
 40
0.0833333333333333
 40
0.0833333333333333
 40
0.1666666666666667
 40
0.1666666666666667
 40
0.1666666666666667
 40
0.25
 40
0.25
 40
0.25
 40
0.3333333333333333
 40
0.3333333333333333
 40
0.3333333333333333
 40
0.4166666666666666
 40
0.4166666666666666
 40
0.4166666666666666
 40
0.5
 40
0.5
 40
0.5
 40
0.5833333333333333
 40
0.5833333333333333
 40
0.5833333333333333
 40
0.6666666666666666
 40
0.6666666666666666
 40
0.6666666666666666
 40
0.75
 40
0.75
 40
0.75
 40
0.8333333333333333
 40
0.8333333333333333
 40
0.8333333333333333
 40
0.9166666666666666
 40
0.9166666666666666
 40
0.9166666666666666
 40
1.0
 40
1.0
 40
1.0
 40
1.0
 10
147.2093
 20
262.1506
 30
0.0
 10
147.2093
 20
261.9791
 30
0.0
 10
147.1849
 20
261.7072
 30
0.0
 10
147.1352
 20
261.3357
 30
0.0
 10
147.1352
 20
261.3357
 30
0.0
 10
146.8992
 20
261.3357
 30
0.0
 10
146.8992
 20
261.3357
 30
0.0
 10
146.8992
 20
261.6659
 30
0.0
 10
146.8865
 20
261.9199
 30
0.0
 10
146.8611
 20
262.0966
 30
0.0
 10
146.8346
 20
262.2734
 30
0.0
 10
146.7934
 20
262.4628
 30
0.0
 10
146.7352
 20
262.6649
 30
0.0
 10
146.6717
 20
262.8883
 30
0.0
 10
146.5965
 20
263.101
 30
0.0
 10
146.5118
 20
263.301
 30
0.0
 10
146.4706
 20
263.3941
 30
0.0
 10
146.4261
 20
263.4788
 30
0.0
 10
146.3785
 20
263.555
 30
0.0
 10
146.3108
 20
263.6693
 30
0.0
 10
146.2197
 20
263.7921
 30
0.0
 10
146.1054
 20
263.9244
 30
0.0
 10
146.1054
 20
263.9244
 30
0.0
 10
146.3139
 20
264.7552
 30
0.0
 10
146.3139
 20
264.7552
 30
0.0
 10
146.4812
 20
264.5551
 30
0.0
 10
146.6071
 20
264.3816
 30
0.0
 10
146.6928
 20
264.2376
 30
0.0
 10
146.7796
 20
264.0926
 30
0.0
 10
146.8547
 20
263.9328
 30
0.0
 10
146.9214
 20
263.7571
 30
0.0
 10
147.0103
 20
263.5233
 30
0.0
 10
147.0802
 20
263.2576
 30
0.0
 10
147.132
 20
262.9613
 30
0.0
 10
147.1839
 20
262.6649
 30
0.0
 10
147.2093
 20
262.3951
 30
0.0
 10
147.2093
 20
262.1506
 30
0.0
  0
SPLINE
  5
7B
330
1F
100
AcDbEntity
  8
Layer 1
 62
   250
370
     9
100
AcDbSpline
210
0.0
220
0.0
230
1.0
 70
    11
 71
     3
 72
    32
 73
    28
 74
     0
 42
0.0000000001
 43
0.0000000001
 40
0.0
 40
0.0
 40
0.0
 40
0.0
 40
0.1111111111111111
 40
0.1111111111111111
 40
0.1111111111111111
 40
0.2222222222222222
 40
0.2222222222222222
 40
0.2222222222222222
 40
0.3333333333333333
 40
0.3333333333333333
 40
0.3333333333333333
 40
0.4444444444444444
 40
0.4444444444444444
 40
0.4444444444444444
 40
0.5555555555555556
 40
0.5555555555555556
 40
0.5555555555555556
 40
0.6666666666666666
 40
0.6666666666666666
 40
0.6666666666666666
 40
0.7777777777777777
 40
0.7777777777777777
 40
0.7777777777777777
 40
0.8888888888888888
 40
0.8888888888888888
 40
0.8888888888888888
 40
1.0
 40
1.0
 40
1.0
 40
1.0
 10
150.2732
 20
262.8671
 30
0.0
 10
150.2732
 20
262.3877
 30
0.0
 10
150.2001
 20
262.0331
 30
0.0
 10
150.053
 20
261.8035
 30
0.0
 10
149.8752
 20
261.5241
 30
0.0
 10
149.5789
 20
261.3844
 30
0.0
 10
149.163
 20
261.3844
 30
0.0
 10
148.9407
 20
261.3844
 30
0.0
 10
148.7555
 20
261.4415
 30
0.0
 10
148.6084
 20
261.5537
 30
0.0
 10
148.4613
 20
261.6669
 30
0.0
 10
148.3883
 20
261.8098
 30
0.0
 10
148.3883
 20
261.9834
 30
0.0
 10
148.3883
 20
262.1442
 30
0.0
 10
148.4147
 20
262.4215
 30
0.0
 10
148.4687
 20
262.8142
 30
0.0
 10
148.5333
 20
263.2767
 30
0.0
 10
148.6105
 20
263.6735
 30
0.0
 10
148.7015
 20
264.0048
 30
0.0
 10
148.819
 20
264.4408
 30
0.0
 10
148.9555
 20
264.6588
 30
0.0
 10
149.1111
 20
264.6588
 30
0.0
 10
149.3503
 20
264.6588
 30
0.0
 10
149.6032
 20
264.4578
 30
0.0
 10
149.8699
 20
264.0545
 30
0.0
 10
150.1388
 20
263.6492
 30
0.0
 10
150.2732
 20
263.2534
 30
0.0
 10
150.2732
 20
262.8671
 30
0.0
  0
SPLINE
  5
7C
330
1F
100
AcDbEntity
  8
Layer 1
 62
   250
370
     9
100
AcDbSpline
210
0.0
220
0.0
230
1.0
 70
    11
 71
     3
 72
    35
 73
    31
 74
     0
 42
0.0000000001
 43
0.0000000001
 40
0.0
 40
0.0
 40
0.0
 40
0.0
 40
0.1
 40
0.1
 40
0.1
 40
0.2
 40
0.2
 40
0.2
 40
0.3
 40
0.3
 40
0.3
 40
0.4
 40
0.4
 40
0.4
 40
0.5
 40
0.5
 40
0.5
 40
0.6000000000000001
 40
0.6000000000000001
 40
0.6000000000000001
 40
0.7000000000000001
 40
0.7000000000000001
 40
0.7000000000000001
 40
0.8
 40
0.8
 40
0.8
 40
0.9
 40
0.9
 40
0.9
 40
1.0
 40
1.0
 40
1.0
 40
1.0
 10
149.9483
 20
262.575
 30
0.0
 10
149.9483
 20
262.7824
 30
0.0
 10
149.8848
 20
263.01
 30
0.0
 10
149.7588
 20
263.2576
 30
0.0
 10
149.6487
 20
263.4682
 30
0.0
 10
149.5154
 20
263.6587
 30
0.0
 10
149.3556
 20
263.8281
 30
0.0
 10
149.2169
 20
263.9752
 30
0.0
 10
149.1185
 20
264.0482
 30
0.0
 10
149.0614
 20
264.0482
 30
0.0
 10
149.0466
 20
264.0482
 30
0.0
 10
149.0127
 20
263.9487
 30
0.0
 10
148.9587
 20
263.7508
 30
0.0
 10
148.9069
 20
263.5497
 30
0.0
 10
148.8624
 20
263.3264
 30
0.0
 10
148.8254
 20
263.0798
 30
0.0
 10
148.7883
 20
262.8322
 30
0.0
 10
148.7693
 20
262.6554
 30
0.0
 10
148.7693
 20
262.5475
 30
0.0
 10
148.7693
 20
262.3951
 30
0.0
 10
148.8
 20
262.267
 30
0.0
 10
148.8592
 20
262.1665
 30
0.0
 10
148.9407
 20
262.0299
 30
0.0
 10
149.0709
 20
261.9612
 30
0.0
 10
149.2498
 20
261.9612
 30
0.0
 10
149.4318
 20
261.9612
 30
0.0
 10
149.5969
 20
262.0321
 30
0.0
 10
149.7429
 20
262.1728
 30
0.0
 10
149.8795
 20
262.303
 30
0.0
 10
149.9483
 20
262.4374
 30
0.0
 10
149.9483
 20
262.575
 30
0.0
  0
SPLINE
  5
7D
330
1F
100
AcDbEntity
  8
Layer 1
 62
   250
370
     9
100
AcDbSpline
210
0.0
220
0.0
230
1.0
 70
    11
 71
     3
 72
    65
 73
    61
 74
     0
 42
0.0000000001
 43
0.0000000001
 40
0.0
 40
0.0
 40
0.0
 40
0.0
 40
0.05
 40
0.05
 40
0.05
 40
0.1
 40
0.1
 40
0.1
 40
0.15
 40
0.15
 40
0.15
 40
0.2
 40
0.2
 40
0.2
 40
0.25
 40
0.25
 40
0.25
 40
0.3
 40
0.3
 40
0.3
 40
0.35
 40
0.35
 40
0.35
 40
0.4
 40
0.4
 40
0.4
 40
0.45
 40
0.45
 40
0.45
 40
0.5
 40
0.5
 40
0.5
 40
0.55
 40
0.55
 40
0.55
 40
0.6000000000000001
 40
0.6000000000000001
 40
0.6000000000000001
 40
0.65
 40
0.65
 40
0.65
 40
0.7000000000000001
 40
0.7000000000000001
 40
0.7000000000000001
 40
0.75
 40
0.75
 40
0.75
 40
0.8
 40
0.8
 40
0.8
 40
0.8500000000000001
 40
0.8500000000000001
 40
0.8500000000000001
 40
0.9
 40
0.9
 40
0.9
 40
0.9500000000000001
 40
0.9500000000000001
 40
0.9500000000000001
 40
1.0
 40
1.0
 40
1.0
 40
1.0
 10
152.066
 20
264.0355
 30
0.0
 10
152.2216
 20
264.0355
 30
0.0
 10
152.3623
 20
264.0715
 30
0.0
 10
152.4904
 20
264.1413
 30
0.0
 10
152.6375
 20
264.2218
 30
0.0
 10
152.7274
 20
264.3477
 30
0.0
 10
152.7602
 20
264.5191
 30
0.0
 10
152.7602
 20
264.5191
 30
0.0
 10
152.9656
 20
264.5191
 30
0.0
 10
152.9656
 20
264.5191
 30
0.0
 10
152.9656
 20
264.1392
 30
0.0
 10
152.8671
 20
263.8587
 30
0.0
 10
152.6703
 20
263.6788
 30
0.0
 10
152.5094
 20
263.5307
 30
0.0
 10
152.3136
 20
263.4555
 30
0.0
 10
152.085
 20
263.4555
 30
0.0
 10
152.085
 20
263.4555
 30
0.0
 10
152.0385
 20
263.4555
 30
0.0
 10
152.0385
 20
263.4555
 30
0.0
 10
151.9718
 20
263.4555
 30
0.0
 10
151.9178
 20
263.4576
 30
0.0
 10
151.8755
 20
263.4619
 30
0.0
 10
151.8331
 20
263.4661
 30
0.0
 10
151.8607
 20
263.4291
 30
0.0
 10
151.958
 20
263.3507
 30
0.0
 10
151.9781
 20
263.2788
 30
0.0
 10
152.0088
 20
263.1116
 30
0.0
 10
152.049
 20
262.8502
 30
0.0
 10
152.0893
 20
262.5887
 30
0.0
 10
152.1094
 20
262.3549
 30
0.0
 10
152.1094
 20
262.1506
 30
0.0
 10
152.1094
 20
261.9791
 30
0.0
 10
152.085
 20
261.7072
 30
0.0
 10
152.0353
 20
261.3357
 30
0.0
 10
152.0353
 20
261.3357
 30
0.0
 10
151.7993
 20
261.3357
 30
0.0
 10
151.7993
 20
261.3357
 30
0.0
 10
151.7993
 20
261.6659
 30
0.0
 10
151.7866
 20
261.9199
 30
0.0
 10
151.7612
 20
262.0966
 30
0.0
 10
151.7347
 20
262.2734
 30
0.0
 10
151.6934
 20
262.4628
 30
0.0
 10
151.6352
 20
262.6649
 30
0.0
 10
151.5707
 20
262.8883
 30
0.0
 10
151.4966
 20
263.101
 30
0.0
 10
151.4119
 20
263.301
 30
0.0
 10
151.3707
 20
263.3941
 30
0.0
 10
151.3262
 20
263.4788
 30
0.0
 10
151.2786
 20
263.555
 30
0.0
 10
151.2108
 20
263.6693
 30
0.0
 10
151.1198
 20
263.7921
 30
0.0
 10
151.0055
 20
263.9244
 30
0.0
 10
151.0055
 20
263.9244
 30
0.0
 10
151.213
 20
264.7583
 30
0.0
 10
151.213
 20
264.7583
 30
0.0
 10
151.4077
 20
264.5181
 30
0.0
 10
151.5654
 20
264.3223
 30
0.0
 10
151.6882
 20
264.1688
 30
0.0
 10
151.795
 20
264.0799
 30
0.0
 10
151.921
 20
264.0355
 30
0.0
 10
152.066
 20
264.0355
 30
0.0
  0
SPLINE
  5
7E
330
1F
100
AcDbEntity
  8
Layer 1
 62
   250
370
     9
100
AcDbSpline
210
0.0
220
0.0
230
1.0
 70
    11
 71
     3
 72
    89
 73
    85
 74
     0
 42
0.0000000001
 43
0.0000000001
 40
0.0
 40
0.0
 40
0.0
 40
0.0
 40
0.0357142857142857
 40
0.0357142857142857
 40
0.0357142857142857
 40
0.0714285714285714
 40
0.0714285714285714
 40
0.0714285714285714
 40
0.1071428571428571
 40
0.1071428571428571
 40
0.1071428571428571
 40
0.1428571428571428
 40
0.1428571428571428
 40
0.1428571428571428
 40
0.1785714285714285
 40
0.1785714285714285
 40
0.1785714285714285
 40
0.2142857142857143
 40
0.2142857142857143
 40
0.2142857142857143
 40
0.25
 40
0.25
 40
0.25
 40
0.2857142857142857
 40
0.2857142857142857
 40
0.2857142857142857
 40
0.3214285714285714
 40
0.3214285714285714
 40
0.3214285714285714
 40
0.3571428571428571
 40
0.3571428571428571
 40
0.3571428571428571
 40
0.3928571428571428
 40
0.3928571428571428
 40
0.3928571428571428
 40
0.4285714285714285
 40
0.4285714285714285
 40
0.4285714285714285
 40
0.4642857142857142
 40
0.4642857142857142
 40
0.4642857142857142
 40
0.5
 40
0.5
 40
0.5
 40
0.5357142857142857
 40
0.5357142857142857
 40
0.5357142857142857
 40
0.5714285714285714
 40
0.5714285714285714
 40
0.5714285714285714
 40
0.6071428571428571
 40
0.6071428571428571
 40
0.6071428571428571
 40
0.6428571428571428
 40
0.6428571428571428
 40
0.6428571428571428
 40
0.6785714285714285
 40
0.6785714285714285
 40
0.6785714285714285
 40
0.7142857142857142
 40
0.7142857142857142
 40
0.7142857142857142
 40
0.75
 40
0.75
 40
0.75
 40
0.7857142857142857
 40
0.7857142857142857
 40
0.7857142857142857
 40
0.8214285714285714
 40
0.8214285714285714
 40
0.8214285714285714
 40
0.8571428571428571
 40
0.8571428571428571
 40
0.8571428571428571
 40
0.8928571428571428
 40
0.8928571428571428
 40
0.8928571428571428
 40
0.9285714285714285
 40
0.9285714285714285
 40
0.9285714285714285
 40
0.9642857142857142
 40
0.9642857142857142
 40
0.9642857142857142
 40
1.0
 40
1.0
 40
1.0
 40
1.0
 10
155.2696
 20
264.1942
 30
0.0
 10
155.4241
 20
264.1942
 30
0.0
 10
155.5225
 20
264.3339
 30
0.0
 10
155.5638
 20
264.6123
 30
0.0
 10
155.5638
 20
264.6123
 30
0.0
 10
155.7723
 20
264.6123
 30
0.0
 10
155.7723
 20
264.6123
 30
0.0
 10
155.7723
 20
263.9402
 30
0.0
 10
155.5542
 20
263.6047
 30
0.0
 10
155.1203
 20
263.6047
 30
0.0
 10
155.0526
 20
263.6047
 30
0.0
 10
154.988
 20
263.6259
 30
0.0
 10
154.9267
 20
263.6682
 30
0.0
 10
154.8663
 20
263.7106
 30
0.0
 10
154.8526
 20
263.7021
 30
0.0
 10
154.8886
 20
263.6418
 30
0.0
 10
154.8907
 20
263.6524
 30
0.0
 10
154.8494
 20
263.6238
 30
0.0
 10
154.7637
 20
263.555
 30
0.0
 10
154.6875
 20
263.4915
 30
0.0
 10
154.6102
 20
263.4587
 30
0.0
 10
154.5319
 20
263.4587
 30
0.0
 10
154.5213
 20
263.4587
 30
0.0
 10
154.5086
 20
263.4587
 30
0.0
 10
154.4927
 20
263.4576
 30
0.0
 10
154.4769
 20
263.4566
 30
0.0
 10
154.4589
 20
263.4555
 30
0.0
 10
154.4388
 20
263.4555
 30
0.0
 10
154.4017
 20
263.4555
 30
0.0
 10
154.3647
 20
263.4598
 30
0.0
 10
154.3287
 20
263.4672
 30
0.0
 10
154.2927
 20
263.4746
 30
0.0
 10
154.3234
 20
263.4428
 30
0.0
 10
154.4229
 20
263.3719
 30
0.0
 10
154.4504
 20
263.2777
 30
0.0
 10
154.4843
 20
263.101
 30
0.0
 10
154.5266
 20
262.8417
 30
0.0
 10
154.5689
 20
262.5835
 30
0.0
 10
154.5901
 20
262.3527
 30
0.0
 10
154.5901
 20
262.1506
 30
0.0
 10
154.5901
 20
261.9791
 30
0.0
 10
154.5658
 20
261.7072
 30
0.0
 10
154.516
 20
261.3357
 30
0.0
 10
154.516
 20
261.3357
 30
0.0
 10
154.28
 20
261.3357
 30
0.0
 10
154.28
 20
261.3357
 30
0.0
 10
154.28
 20
261.6659
 30
0.0
 10
154.2673
 20
261.9199
 30
0.0
 10
154.2419
 20
262.0966
 30
0.0
 10
154.2155
 20
262.2734
 30
0.0
 10
154.1742
 20
262.4628
 30
0.0
 10
154.116
 20
262.6649
 30
0.0
 10
154.0525
 20
262.8883
 30
0.0
 10
153.9773
 20
263.101
 30
0.0
 10
153.8927
 20
263.301
 30
0.0
 10
153.8514
 20
263.3941
 30
0.0
 10
153.8069
 20
263.4788
 30
0.0
 10
153.7593
 20
263.555
 30
0.0
 10
153.6916
 20
263.6693
 30
0.0
 10
153.6006
 20
263.7921
 30
0.0
 10
153.4863
 20
263.9244
 30
0.0
 10
153.4863
 20
263.9244
 30
0.0
 10
153.6979
 20
264.7679
 30
0.0
 10
153.6979
 20
264.7679
 30
0.0
 10
153.8778
 20
264.5276
 30
0.0
 10
154.0017
 20
264.3667
 30
0.0
 10
154.0694
 20
264.2842
 30
0.0
 10
154.1879
 20
264.1477
 30
0.0
 10
154.2959
 20
264.0789
 30
0.0
 10
154.3954
 20
264.0789
 30
0.0
 10
154.5086
 20
264.0789
 30
0.0
 10
154.5922
 20
264.1117
 30
0.0
 10
154.6462
 20
264.1752
 30
0.0
 10
154.6981
 20
264.2376
 30
0.0
 10
154.7446
 20
264.3731
 30
0.0
 10
154.7859
 20
264.5816
 30
0.0
 10
154.7859
 20
264.5816
 30
0.0
 10
154.9785
 20
264.5816
 30
0.0
 10
154.9785
 20
264.5816
 30
0.0
 10
155.0071
 20
264.4165
 30
0.0
 10
155.042
 20
264.3107
 30
0.0
 10
155.0833
 20
264.2641
 30
0.0
 10
155.1246
 20
264.2175
 30
0.0
 10
155.187
 20
264.1942
 30
0.0
 10
155.2696
 20
264.1942
 30
0.0
  0
SPLINE
  5
7F
330
1F
100
AcDbEntity
  8
Layer 1
 62
   250
370
     9
100
AcDbSpline
210
0.0
220
0.0
230
1.0
 70
    11
 71
     3
 72
    83
 73
    79
 74
     0
 42
0.0000000001
 43
0.0000000001
 40
0.0
 40
0.0
 40
0.0
 40
0.0
 40
0.0384615384615385
 40
0.0384615384615385
 40
0.0384615384615385
 40
0.0769230769230769
 40
0.0769230769230769
 40
0.0769230769230769
 40
0.1153846153846154
 40
0.1153846153846154
 40
0.1153846153846154
 40
0.1538461538461539
 40
0.1538461538461539
 40
0.1538461538461539
 40
0.1923076923076923
 40
0.1923076923076923
 40
0.1923076923076923
 40
0.2307692307692308
 40
0.2307692307692308
 40
0.2307692307692308
 40
0.2692307692307693
 40
0.2692307692307693
 40
0.2692307692307693
 40
0.3076923076923077
 40
0.3076923076923077
 40
0.3076923076923077
 40
0.3461538461538461
 40
0.3461538461538461
 40
0.3461538461538461
 40
0.3846153846153846
 40
0.3846153846153846
 40
0.3846153846153846
 40
0.4230769230769231
 40
0.4230769230769231
 40
0.4230769230769231
 40
0.4615384615384616
 40
0.4615384615384616
 40
0.4615384615384616
 40
0.5
 40
0.5
 40
0.5
 40
0.5384615384615385
 40
0.5384615384615385
 40
0.5384615384615385
 40
0.576923076923077
 40
0.576923076923077
 40
0.576923076923077
 40
0.6153846153846154
 40
0.6153846153846154
 40
0.6153846153846154
 40
0.6538461538461539
 40
0.6538461538461539
 40
0.6538461538461539
 40
0.6923076923076923
 40
0.6923076923076923
 40
0.6923076923076923
 40
0.7307692307692308
 40
0.7307692307692308
 40
0.7307692307692308
 40
0.7692307692307693
 40
0.7692307692307693
 40
0.7692307692307693
 40
0.8076923076923077
 40
0.8076923076923077
 40
0.8076923076923077
 40
0.8461538461538463
 40
0.8461538461538463
 40
0.8461538461538463
 40
0.8846153846153847
 40
0.8846153846153847
 40
0.8846153846153847
 40
0.9230769230769231
 40
0.9230769230769231
 40
0.9230769230769231
 40
0.9615384615384616
 40
0.9615384615384616
 40
0.9615384615384616
 40
1.0
 40
1.0
 40
1.0
 40
1.0
 10
158.2805
 20
261.9643
 30
0.0
 10
158.1874
 20
261.8035
 30
0.0
 10
158.1218
 20
261.6966
 30
0.0
 10
158.0826
 20
261.6458
 30
0.0
 10
157.9545
 20
261.4711
 30
0.0
 10
157.8318
 20
261.3844
 30
0.0
 10
157.7164
 20
261.3844
 30
0.0
 10
157.5947
 20
261.3844
 30
0.0
 10
157.4751
 20
261.3971
 30
0.0
 10
157.3587
 20
261.4225
 30
0.0
 10
157.2412
 20
261.4468
 30
0.0
 10
157.1333
 20
261.4786
 30
0.0
 10
157.0338
 20
261.5177
 30
0.0
 10
156.892
 20
261.578
 30
0.0
 10
156.7766
 20
261.6468
 30
0.0
 10
156.6888
 20
261.7262
 30
0.0
 10
156.6009
 20
261.8045
 30
0.0
 10
156.5565
 20
261.8797
 30
0.0
 10
156.5565
 20
261.9527
 30
0.0
 10
156.5565
 20
262.103
 30
0.0
 10
156.6158
 20
262.2712
 30
0.0
 10
156.7332
 20
262.4575
 30
0.0
 10
156.8179
 20
262.5898
 30
0.0
 10
156.9237
 20
262.7232
 30
0.0
 10
157.0497
 20
262.8576
 30
0.0
 10
157.1693
 20
262.9814
 30
0.0
 10
157.1322
 20
263.0438
 30
0.0
 10
156.9385
 20
263.0438
 30
0.0
 10
156.9798
 20
263.0269
 30
0.0
 10
156.9587
 20
263.0396
 30
0.0
 10
156.8761
 20
263.0809
 30
0.0
 10
156.6073
 20
263.211
 30
0.0
 10
156.4729
 20
263.3275
 30
0.0
 10
156.4729
 20
263.4312
 30
0.0
 10
156.4729
 20
263.6069
 30
0.0
 10
156.5713
 20
263.809
 30
0.0
 10
156.7671
 20
264.0387
 30
0.0
 10
156.9724
 20
264.2768
 30
0.0
 10
157.2878
 20
264.5128
 30
0.0
 10
157.7132
 20
264.7456
 30
0.0
 10
157.7132
 20
264.7456
 30
0.0
 10
157.4592
 20
264.0482
 30
0.0
 10
157.4592
 20
264.0482
 30
0.0
 10
157.3227
 20
264.0069
 30
0.0
 10
157.1915
 20
263.9487
 30
0.0
 10
157.0666
 20
263.8736
 30
0.0
 10
156.9417
 20
263.7974
 30
0.0
 10
156.8793
 20
263.7476
 30
0.0
 10
156.8793
 20
263.7222
 30
0.0
 10
156.8793
 20
263.7042
 30
0.0
 10
157.0158
 20
263.6365
 30
0.0
 10
157.2889
 20
263.5211
 30
0.0
 10
157.5608
 20
263.4058
 30
0.0
 10
157.6974
 20
263.3074
 30
0.0
 10
157.6974
 20
263.2269
 30
0.0
 10
157.6974
 20
263.1931
 30
0.0
 10
157.6773
 20
263.137
 30
0.0
 10
157.637
 20
263.0576
 30
0.0
 10
157.5968
 20
262.9782
 30
0.0
 10
157.5587
 20
262.9211
 30
0.0
 10
157.5238
 20
262.8851
 30
0.0
 10
157.4127
 20
262.7697
 30
0.0
 10
157.3016
 20
262.6554
 30
0.0
 10
157.1925
 20
262.5411
 30
0.0
 10
157.074
 20
262.4131
 30
0.0
 10
157.0158
 20
262.3316
 30
0.0
 10
157.0158
 20
262.2966
 30
0.0
 10
157.0158
 20
262.2617
 30
0.0
 10
157.0349
 20
262.2226
 30
0.0
 10
157.0751
 20
262.1813
 30
0.0
 10
157.1386
 20
262.1136
 30
0.0
 10
157.2391
 20
262.0617
 30
0.0
 10
157.3756
 20
262.0268
 30
0.0
 10
157.4476
 20
262.0077
 30
0.0
 10
157.5566
 20
261.9929
 30
0.0
 10
157.7005
 20
261.9813
 30
0.0
 10
157.8455
 20
261.9707
 30
0.0
 10
158.0392
 20
261.9643
 30
0.0
 10
158.2805
 20
261.9643
 30
0.0
  0
SPLINE
  5
80
330
1F
100
AcDbEntity
  8
Layer 1
 62
   250
370
     9
100
AcDbSpline
210
0.0
220
0.0
230
1.0
 70
    11
 71
     3
 72
    62
 73
    58
 74
     0
 42
0.0000000001
 43
0.0000000001
 40
0.0
 40
0.0
 40
0.0
 40
0.0
 40
0.0526315789473684
 40
0.0526315789473684
 40
0.0526315789473684
 40
0.1052631578947368
 40
0.1052631578947368
 40
0.1052631578947368
 40
0.1578947368421053
 40
0.1578947368421053
 40
0.1578947368421053
 40
0.2105263157894737
 40
0.2105263157894737
 40
0.2105263157894737
 40
0.2631578947368421
 40
0.2631578947368421
 40
0.2631578947368421
 40
0.3157894736842105
 40
0.3157894736842105
 40
0.3157894736842105
 40
0.3684210526315789
 40
0.3684210526315789
 40
0.3684210526315789
 40
0.4210526315789473
 40
0.4210526315789473
 40
0.4210526315789473
 40
0.4736842105263158
 40
0.4736842105263158
 40
0.4736842105263158
 40
0.5263157894736842
 40
0.5263157894736842
 40
0.5263157894736842
 40
0.5789473684210527
 40
0.5789473684210527
 40
0.5789473684210527
 40
0.631578947368421
 40
0.631578947368421
 40
0.631578947368421
 40
0.6842105263157894
 40
0.6842105263157894
 40
0.6842105263157894
 40
0.7368421052631579
 40
0.7368421052631579
 40
0.7368421052631579
 40
0.7894736842105263
 40
0.7894736842105263
 40
0.7894736842105263
 40
0.8421052631578947
 40
0.8421052631578947
 40
0.8421052631578947
 40
0.894736842105263
 40
0.894736842105263
 40
0.894736842105263
 40
0.9473684210526315
 40
0.9473684210526315
 40
0.9473684210526315
 40
1.0
 40
1.0
 40
1.0
 40
1.0
 10
158.7335
 20
262.0077
 30
0.0
 10
158.8435
 20
262.0702
 30
0.0
 10
158.9483
 20
262.1898
 30
0.0
 10
159.0499
 20
262.3676
 30
0.0
 10
159.1282
 20
262.502
 30
0.0
 10
159.2214
 20
262.6988
 30
0.0
 10
159.3293
 20
262.957
 30
0.0
 10
159.3812
 20
263.0788
 30
0.0
 10
159.4288
 20
263.2396
 30
0.0
 10
159.4722
 20
263.4407
 30
0.0
 10
159.5008
 20
263.5836
 30
0.0
 10
159.5325
 20
263.773
 30
0.0
 10
159.5674
 20
264.0111
 30
0.0
 10
159.595
 20
264.1974
 30
0.0
 10
159.6235
 20
264.4133
 30
0.0
 10
159.6542
 20
264.6588
 30
0.0
 10
159.6542
 20
264.6588
 30
0.0
 10
159.9178
 20
264.6588
 30
0.0
 10
159.9178
 20
264.6588
 30
0.0
 10
159.9559
 20
264.3615
 30
0.0
 10
160.0183
 20
264.0588
 30
0.0
 10
160.1072
 20
263.7519
 30
0.0
 10
160.1961
 20
263.4449
 30
0.0
 10
160.2935
 20
263.1825
 30
0.0
 10
160.3993
 20
262.9634
 30
0.0
 10
160.4977
 20
262.7538
 30
0.0
 10
160.6163
 20
262.5718
 30
0.0
 10
160.7528
 20
262.4173
 30
0.0
 10
160.8745
 20
262.2744
 30
0.0
 10
161.0068
 20
262.1696
 30
0.0
 10
161.1497
 20
262.1009
 30
0.0
 10
161.1497
 20
262.1009
 30
0.0
 10
161.0131
 20
261.3537
 30
0.0
 10
161.0131
 20
261.3537
 30
0.0
 10
160.8247
 20
261.4277
 30
0.0
 10
160.6766
 20
261.5283
 30
0.0
 10
160.5676
 20
261.6542
 30
0.0
 10
160.4596
 20
261.7802
 30
0.0
 10
160.3517
 20
261.9432
 30
0.0
 10
160.2437
 20
262.1411
 30
0.0
 10
160.1696
 20
262.2797
 30
0.0
 10
160.1019
 20
262.4374
 30
0.0
 10
160.0426
 20
262.6131
 30
0.0
 10
159.9971
 20
262.7496
 30
0.0
 10
159.9421
 20
262.9391
 30
0.0
 10
159.8775
 20
263.1835
 30
0.0
 10
159.8289
 20
263.3656
 30
0.0
 10
159.8077
 20
263.4418
 30
0.0
 10
159.8162
 20
263.4121
 30
0.0
 10
159.7791
 20
263.0692
 30
0.0
 10
159.6616
 20
262.6671
 30
0.0
 10
159.4658
 20
262.2067
 30
0.0
 10
159.2796
 20
261.7707
 30
0.0
 10
159.0362
 20
261.4817
 30
0.0
 10
158.7335
 20
261.341
 30
0.0
 10
158.7335
 20
261.341
 30
0.0
 10
158.7335
 20
262.0077
 30
0.0
 10
158.7335
 20
262.0077
 30
0.0
  0
SPLINE
  5
81
330
1F
100
AcDbEntity
  8
Layer 1
 62
   250
370
     9
100
AcDbSpline
210
0.0
220
0.0
230
1.0
 70
    11
 71
     3
 72
    62
 73
    58
 74
     0
 42
0.0000000001
 43
0.0000000001
 40
0.0
 40
0.0
 40
0.0
 40
0.0
 40
0.0526315789473684
 40
0.0526315789473684
 40
0.0526315789473684
 40
0.1052631578947368
 40
0.1052631578947368
 40
0.1052631578947368
 40
0.1578947368421053
 40
0.1578947368421053
 40
0.1578947368421053
 40
0.2105263157894737
 40
0.2105263157894737
 40
0.2105263157894737
 40
0.2631578947368421
 40
0.2631578947368421
 40
0.2631578947368421
 40
0.3157894736842105
 40
0.3157894736842105
 40
0.3157894736842105
 40
0.3684210526315789
 40
0.3684210526315789
 40
0.3684210526315789
 40
0.4210526315789473
 40
0.4210526315789473
 40
0.4210526315789473
 40
0.4736842105263158
 40
0.4736842105263158
 40
0.4736842105263158
 40
0.5263157894736842
 40
0.5263157894736842
 40
0.5263157894736842
 40
0.5789473684210527
 40
0.5789473684210527
 40
0.5789473684210527
 40
0.631578947368421
 40
0.631578947368421
 40
0.631578947368421
 40
0.6842105263157894
 40
0.6842105263157894
 40
0.6842105263157894
 40
0.7368421052631579
 40
0.7368421052631579
 40
0.7368421052631579
 40
0.7894736842105263
 40
0.7894736842105263
 40
0.7894736842105263
 40
0.8421052631578947
 40
0.8421052631578947
 40
0.8421052631578947
 40
0.894736842105263
 40
0.894736842105263
 40
0.894736842105263
 40
0.9473684210526315
 40
0.9473684210526315
 40
0.9473684210526315
 40
1.0
 40
1.0
 40
1.0
 40
1.0
 10
163.8008
 20
264.0355
 30
0.0
 10
163.6907
 20
263.9741
 30
0.0
 10
163.5859
 20
263.8535
 30
0.0
 10
163.4843
 20
263.6757
 30
0.0
 10
163.406
 20
263.5423
 30
0.0
 10
163.3129
 20
263.3455
 30
0.0
 10
163.2049
 20
263.0872
 30
0.0
 10
163.1541
 20
262.9655
 30
0.0
 10
163.1076
 20
262.8036
 30
0.0
 10
163.0663
 20
262.6036
 30
0.0
 10
163.0345
 20
262.4607
 30
0.0
 10
163.0017
 20
262.2702
 30
0.0
 10
162.9668
 20
262.0331
 30
0.0
 10
162.9393
 20
261.8469
 30
0.0
 10
162.9107
 20
261.631
 30
0.0
 10
162.88
 20
261.3844
 30
0.0
 10
162.88
 20
261.3844
 30
0.0
 10
162.6197
 20
261.3844
 30
0.0
 10
162.6197
 20
261.3844
 30
0.0
 10
162.5805
 20
261.6828
 30
0.0
 10
162.516
 20
261.9844
 30
0.0
 10
162.4271
 20
262.2914
 30
0.0
 10
162.3382
 20
262.5983
 30
0.0
 10
162.2429
 20
262.8586
 30
0.0
 10
162.1403
 20
263.0735
 30
0.0
 10
162.0376
 20
263.2872
 30
0.0
 10
161.9201
 20
263.4714
 30
0.0
 10
161.7857
 20
263.627
 30
0.0
 10
161.6608
 20
263.7688
 30
0.0
 10
161.5275
 20
263.8746
 30
0.0
 10
161.3857
 20
263.9424
 30
0.0
 10
161.3857
 20
263.9424
 30
0.0
 10
161.5222
 20
264.6906
 30
0.0
 10
161.5222
 20
264.6906
 30
0.0
 10
161.7095
 20
264.6155
 30
0.0
 10
161.8577
 20
264.5149
 30
0.0
 10
161.9667
 20
264.389
 30
0.0
 10
162.0757
 20
264.263
 30
0.0
 10
162.1836
 20
264.1011
 30
0.0
 10
162.2905
 20
263.9021
 30
0.0
 10
162.3646
 20
263.7635
 30
0.0
 10
162.4324
 20
263.6069
 30
0.0
 10
162.4927
 20
263.4312
 30
0.0
 10
162.5382
 20
263.2947
 30
0.0
 10
162.5932
 20
263.1042
 30
0.0
 10
162.6599
 20
262.8607
 30
0.0
 10
162.7075
 20
262.6787
 30
0.0
 10
162.7266
 20
262.6025
 30
0.0
 10
162.7181
 20
262.6311
 30
0.0
 10
162.7562
 20
262.974
 30
0.0
 10
162.8726
 20
263.3761
 30
0.0
 10
163.0695
 20
263.8376
 30
0.0
 10
163.2568
 20
264.2736
 30
0.0
 10
163.5013
 20
264.5625
 30
0.0
 10
163.8008
 20
264.7054
 30
0.0
 10
163.8008
 20
264.7054
 30
0.0
 10
163.8008
 20
264.0355
 30
0.0
 10
163.8008
 20
264.0355
 30
0.0
  0
SPLINE
  5
82
330
1F
100
AcDbEntity
  8
Layer 1
 62
   250
370
     9
100
AcDbSpline
210
0.0
220
0.0
230
1.0
 70
    11
 71
     3
 72
    62
 73
    58
 74
     0
 42
0.0000000001
 43
0.0000000001
 40
0.0
 40
0.0
 40
0.0
 40
0.0
 40
0.0526315789473684
 40
0.0526315789473684
 40
0.0526315789473684
 40
0.1052631578947368
 40
0.1052631578947368
 40
0.1052631578947368
 40
0.1578947368421053
 40
0.1578947368421053
 40
0.1578947368421053
 40
0.2105263157894737
 40
0.2105263157894737
 40
0.2105263157894737
 40
0.2631578947368421
 40
0.2631578947368421
 40
0.2631578947368421
 40
0.3157894736842105
 40
0.3157894736842105
 40
0.3157894736842105
 40
0.3684210526315789
 40
0.3684210526315789
 40
0.3684210526315789
 40
0.4210526315789473
 40
0.4210526315789473
 40
0.4210526315789473
 40
0.4736842105263158
 40
0.4736842105263158
 40
0.4736842105263158
 40
0.5263157894736842
 40
0.5263157894736842
 40
0.5263157894736842
 40
0.5789473684210527
 40
0.5789473684210527
 40
0.5789473684210527
 40
0.631578947368421
 40
0.631578947368421
 40
0.631578947368421
 40
0.6842105263157894
 40
0.6842105263157894
 40
0.6842105263157894
 40
0.7368421052631579
 40
0.7368421052631579
 40
0.7368421052631579
 40
0.7894736842105263
 40
0.7894736842105263
 40
0.7894736842105263
 40
0.8421052631578947
 40
0.8421052631578947
 40
0.8421052631578947
 40
0.894736842105263
 40
0.894736842105263
 40
0.894736842105263
 40
0.9473684210526315
 40
0.9473684210526315
 40
0.9473684210526315
 40
1.0
 40
1.0
 40
1.0
 40
1.0
 10
166.4678
 20
264.0355
 30
0.0
 10
166.3577
 20
263.9741
 30
0.0
 10
166.2529
 20
263.8535
 30
0.0
 10
166.1513
 20
263.6757
 30
0.0
 10
166.073
 20
263.5423
 30
0.0
 10
165.9799
 20
263.3455
 30
0.0
 10
165.8719
 20
263.0872
 30
0.0
 10
165.8211
 20
262.9655
 30
0.0
 10
165.7746
 20
262.8036
 30
0.0
 10
165.7333
 20
262.6036
 30
0.0
 10
165.7015
 20
262.4607
 30
0.0
 10
165.6687
 20
262.2702
 30
0.0
 10
165.6338
 20
262.0331
 30
0.0
 10
165.6063
 20
261.8469
 30
0.0
 10
165.5777
 20
261.631
 30
0.0
 10
165.547
 20
261.3844
 30
0.0
 10
165.547
 20
261.3844
 30
0.0
 10
165.2867
 20
261.3844
 30
0.0
 10
165.2867
 20
261.3844
 30
0.0
 10
165.2475
 20
261.6828
 30
0.0
 10
165.183
 20
261.9844
 30
0.0
 10
165.0941
 20
262.2914
 30
0.0
 10
165.0052
 20
262.5983
 30
0.0
 10
164.9099
 20
262.8586
 30
0.0
 10
164.8073
 20
263.0735
 30
0.0
 10
164.7046
 20
263.2872
 30
0.0
 10
164.5871
 20
263.4714
 30
0.0
 10
164.4527
 20
263.627
 30
0.0
 10
164.3278
 20
263.7688
 30
0.0
 10
164.1945
 20
263.8746
 30
0.0
 10
164.0527
 20
263.9424
 30
0.0
 10
164.0527
 20
263.9424
 30
0.0
 10
164.1892
 20
264.6906
 30
0.0
 10
164.1892
 20
264.6906
 30
0.0
 10
164.3765
 20
264.6155
 30
0.0
 10
164.5247
 20
264.5149
 30
0.0
 10
164.6337
 20
264.389
 30
0.0
 10
164.7427
 20
264.263
 30
0.0
 10
164.8506
 20
264.1011
 30
0.0
 10
164.9575
 20
263.9021
 30
0.0
 10
165.0316
 20
263.7635
 30
0.0
 10
165.0994
 20
263.6069
 30
0.0
 10
165.1597
 20
263.4312
 30
0.0
 10
165.2052
 20
263.2947
 30
0.0
 10
165.2602
 20
263.1042
 30
0.0
 10
165.3269
 20
262.8607
 30
0.0
 10
165.3745
 20
262.6787
 30
0.0
 10
165.3936
 20
262.6025
 30
0.0
 10
165.3851
 20
262.6311
 30
0.0
 10
165.4232
 20
262.974
 30
0.0
 10
165.5396
 20
263.3761
 30
0.0
 10
165.7365
 20
263.8376
 30
0.0
 10
165.9238
 20
264.2736
 30
0.0
 10
166.1683
 20
264.5625
 30
0.0
 10
166.4678
 20
264.7054
 30
0.0
 10
166.4678
 20
264.7054
 30
0.0
 10
166.4678
 20
264.0355
 30
0.0
 10
166.4678
 20
264.0355
 30
0.0
  0
SPLINE
  5
83
330
1F
100
AcDbEntity
  8
Layer 1
 62
   250
370
     9
100
AcDbSpline
210
0.0
220
0.0
230
1.0
 70
    11
 71
     3
 72
    41
 73
    37
 74
     0
 42
0.0000000001
 43
0.0000000001
 40
0.0
 40
0.0
 40
0.0
 40
0.0
 40
0.0833333333333333
 40
0.0833333333333333
 40
0.0833333333333333
 40
0.1666666666666667
 40
0.1666666666666667
 40
0.1666666666666667
 40
0.25
 40
0.25
 40
0.25
 40
0.3333333333333333
 40
0.3333333333333333
 40
0.3333333333333333
 40
0.4166666666666666
 40
0.4166666666666666
 40
0.4166666666666666
 40
0.5
 40
0.5
 40
0.5
 40
0.5833333333333333
 40
0.5833333333333333
 40
0.5833333333333333
 40
0.6666666666666666
 40
0.6666666666666666
 40
0.6666666666666666
 40
0.75
 40
0.75
 40
0.75
 40
0.8333333333333333
 40
0.8333333333333333
 40
0.8333333333333333
 40
0.9166666666666666
 40
0.9166666666666666
 40
0.9166666666666666
 40
1.0
 40
1.0
 40
1.0
 40
1.0
 10
168.5453
 20
262.1506
 30
0.0
 10
168.5453
 20
261.9791
 30
0.0
 10
168.5209
 20
261.7072
 30
0.0
 10
168.4712
 20
261.3357
 30
0.0
 10
168.4712
 20
261.3357
 30
0.0
 10
168.2352
 20
261.3357
 30
0.0
 10
168.2352
 20
261.3357
 30
0.0
 10
168.2352
 20
261.6659
 30
0.0
 10
168.2225
 20
261.9199
 30
0.0
 10
168.1971
 20
262.0966
 30
0.0
 10
168.1706
 20
262.2734
 30
0.0
 10
168.1294
 20
262.4628
 30
0.0
 10
168.0712
 20
262.6649
 30
0.0
 10
168.0077
 20
262.8883
 30
0.0
 10
167.9325
 20
263.101
 30
0.0
 10
167.8478
 20
263.301
 30
0.0
 10
167.8066
 20
263.3941
 30
0.0
 10
167.7621
 20
263.4788
 30
0.0
 10
167.7145
 20
263.555
 30
0.0
 10
167.6468
 20
263.6693
 30
0.0
 10
167.5557
 20
263.7921
 30
0.0
 10
167.4414
 20
263.9244
 30
0.0
 10
167.4414
 20
263.9244
 30
0.0
 10
167.6499
 20
264.7552
 30
0.0
 10
167.6499
 20
264.7552
 30
0.0
 10
167.8172
 20
264.5551
 30
0.0
 10
167.9431
 20
264.3816
 30
0.0
 10
168.0288
 20
264.2376
 30
0.0
 10
168.1156
 20
264.0926
 30
0.0
 10
168.1907
 20
263.9328
 30
0.0
 10
168.2574
 20
263.7571
 30
0.0
 10
168.3463
 20
263.5233
 30
0.0
 10
168.4162
 20
263.2576
 30
0.0
 10
168.468
 20
262.9613
 30
0.0
 10
168.5199
 20
262.6649
 30
0.0
 10
168.5453
 20
262.3951
 30
0.0
 10
168.5453
 20
262.1506
 30
0.0
  0
ENDSEC
  0
SECTION
  2
OBJECTS
  0
DICTIONARY
  5
C
330
0
100
AcDbDictionary
281
     1
  3
ACAD_DETAILVIEWSTYLE
350
8B
  3
ACAD_GROUP
350
D
  3
ACAD_LAYOUT
350
1A
  3
ACAD_MATERIAL
350
43
  3
ACAD_MLEADERSTYLE
350
5B
  3
ACAD_MLINESTYLE
350
17
  3
ACAD_PLOTSETTINGS
350
19
  3
ACAD_PLOTSTYLENAME
350
E
  3
ACAD_SCALELIST
350
47
  3
ACAD_SECTIONVIEWSTYLE
350
8C
  3
ACAD_TABLESTYLE
350
59
  3
ACAD_VISUALSTYLE
350
2A
  3
ACDB_RECOMPOSE_DATA
350
88
  3
AcDbVariableDictionary
350
84
  0
SUN
  5
5D
330
29
100
AcDbSun
 90
        1
290
     0
 63
     7
421
 16777215
 40
1.0
291
     1
 91
  2455826
 92
 54000000
292
     0
 70
     2
 71
   256
280
     1
  0
DICTIONARY
  5
8B
102
{ACAD_REACTORS
330
C
102
}
330
C
100
AcDbDictionary
281
     1
  0
DICTIONARY
  5
D
102
{ACAD_REACTORS
330
C
102
}
330
C
100
AcDbDictionary
281
     1
  0
DICTIONARY
  5
1A
102
{ACAD_REACTORS
330
C
102
}
330
C
100
AcDbDictionary
281
     1
  3
Layout1
350
1E
  3
Layout2
350
26
  3
Model
350
22
  0
DICTIONARY
  5
43
102
{ACAD_REACTORS
330
C
102
}
330
C
100
AcDbDictionary
281
     1
  3
ByBlock
350
45
  3
ByLayer
350
44
  3
Global
350
46
  0
DICTIONARY
  5
5B
102
{ACAD_REACTORS
330
C
102
}
330
C
100
AcDbDictionary
281
     1
  3
Standard
350
5C
  0
DICTIONARY
  5
17
102
{ACAD_REACTORS
330
C
102
}
330
C
100
AcDbDictionary
281
     1
  3
Standard
350
18
  0
DICTIONARY
  5
19
102
{ACAD_REACTORS
330
C
102
}
330
C
100
AcDbDictionary
281
     1
  0
ACDBDICTIONARYWDFLT
  5
E
102
{ACAD_REACTORS
330
C
102
}
330
C
100
AcDbDictionary
281
     1
  3
Normal
350
F
100
AcDbDictionaryWithDefault
340
F
  0
DICTIONARY
  5
47
102
{ACAD_REACTORS
330
C
102
}
330
C
100
AcDbDictionary
281
     1
  3
A0
350
48
  3
A1
350
49
  3
A2
350
4A
  3
A3
350
4B
  3
A4
350
4C
  3
A5
350
4D
  3
A6
350
4E
  3
A7
350
4F
  3
A8
350
50
  3
A9
350
51
  3
B1
350
52
  3
B2
350
53
  3
B3
350
54
  3
B4
350
55
  3
B5
350
56
  3
B6
350
57
  3
B7
350
58
  0
DICTIONARY
  5
8C
102
{ACAD_REACTORS
330
C
102
}
330
C
100
AcDbDictionary
281
     1
  0
DICTIONARY
  5
59
102
{ACAD_REACTORS
330
C
102
}
330
C
100
AcDbDictionary
281
     1
  3
Standard
350
5A
  0
DICTIONARY
  5
2A
102
{ACAD_REACTORS
330
C
102
}
330
C
100
AcDbDictionary
281
     1
  3
2dWireframe
350
2F
  3
Basic
350
32
  3
Brighten
350
36
  3
ColorChange
350
3A
  3
Conceptual
350
34
  3
Dim
350
35
  3
EdgeColorOff
350
3D
  3
Facepattern
350
39
  3
Flat
350
2B
  3
FlatWithEdges
350
2C
  3
Gouraud
350
2D
  3
GouraudWithEdges
350
2E
  3
Hidden
350
31
  3
JitterOff
350
3B
  3
Linepattern
350
38
  3
OverhangOff
350
3C
  3
Realistic
350
33
  3
Shaded
350
42
  3
Shaded with edges
350
41
  3
Shades of Gray
350
3E
  3
Sketchy
350
3F
  3
Thicken
350
37
  3
Wireframe
350
30
  3
X-Ray
350
40
  0
XRECORD
  5
88
102
{ACAD_REACTORS
330
C
102
}
330
C
100
AcDbXrecord
280
     1
 90
        1
330
5A
  0
DICTIONARY
  5
84
102
{ACAD_REACTORS
330
C
102
}
330
C
100
AcDbDictionary
281
     1
  3
CANNOSCALE
350
85
  3
CMLEADERSTYLE
350
8A
  3
CTABLESTYLE
350
89
  0
LAYOUT
  5
1E
102
{ACAD_REACTORS
330
1A
102
}
330
1A
100
AcDbPlotSettings
  1

  2
none_device
  4

  6

 40
0.0
 41
0.0
 42
0.0
 43
0.0
 44
0.0
 45
0.0
 46
0.0
 47
0.0
 48
0.0
 49
0.0
140
0.0
141
0.0
142
1.0
143
1.0
 70
   688
 72
     0
 73
     0
 74
     5
  7

 75
    16
 76
     0
 77
     2
 78
   300
147
1.0
148
0.0
149
0.0
100
AcDbLayout
  1
Layout1
 70
     1
 71
     1
 10
0.0
 20
0.0
 11
12.0
 21
9.0
 12
0.0
 22
0.0
 32
0.0
 14
1.000000000000000E+20
 24
1.000000000000000E+20
 34
1.000000000000000E+20
 15
-1.000000000000000E+20
 25
-1.000000000000000E+20
 35
-1.000000000000000E+20
146
0.0
 13
0.0
 23
0.0
 33
0.0
 16
1.0
 26
0.0
 36
0.0
 17
0.0
 27
1.0
 37
0.0
 76
     0
330
1B
  0
LAYOUT
  5
26
102
{ACAD_REACTORS
330
1A
102
}
330
1A
100
AcDbPlotSettings
  1

  2
none_device
  4

  6

 40
0.0
 41
0.0
 42
0.0
 43
0.0
 44
0.0
 45
0.0
 46
0.0
 47
0.0
 48
0.0
 49
0.0
140
0.0
141
0.0
142
1.0
143
1.0
 70
   688
 72
     0
 73
     0
 74
     5
  7

 75
    16
 76
     0
 77
     2
 78
   300
147
1.0
148
0.0
149
0.0
100
AcDbLayout
  1
Layout2
 70
     1
 71
     2
 10
0.0
 20
0.0
 11
0.0
 21
0.0
 12
0.0
 22
0.0
 32
0.0
 14
0.0
 24
0.0
 34
0.0
 15
0.0
 25
0.0
 35
0.0
146
0.0
 13
0.0
 23
0.0
 33
0.0
 16
1.0
 26
0.0
 36
0.0
 17
0.0
 27
1.0
 37
0.0
 76
     0
330
23
  0
LAYOUT
  5
22
102
{ACAD_REACTORS
330
1A
102
}
330
1A
100
AcDbPlotSettings
  1

  2
none_device
  4
Letter_(8.50_x_11.00_Inches)
  6

 40
6.35
 41
6.35
 42
6.35000508
 43
6.35000508
 44
215.9
 45
279.4
 46
0.0
 47
0.0
 48
0.0
 49
0.0
140
0.0
141
0.0
142
1.0
143
1.0
 70
  1712
 72
     0
 73
     0
 74
     0
  7

 75
     0
 76
     0
 77
     2
 78
   300
147
1.0
148
0.0
149
0.0
100
AcDbLayout
  1
Model
 70
     1
 71
     0
 10
0.0
 20
0.0
 11
12.0
 21
9.0
 12
0.0
 22
0.0
 32
0.0
 14
134.6135
 24
258.7935
 34
0.0
 15
174.7899
 25
298.9699
 35
0.0
146
0.0
 13
0.0
 23
0.0
 33
0.0
 16
1.0
 26
0.0
 36
0.0
 17
0.0
 27
1.0
 37
0.0
 76
     0
330
1F
331
29
  0
MATERIAL
  5
45
102
{ACAD_REACTORS
330
43
102
}
330
43
100
AcDbMaterial
  1
ByBlock
 72
     1
 94
      127
  0
MATERIAL
  5
44
102
{ACAD_REACTORS
330
43
102
}
330
43
100
AcDbMaterial
  1
ByLayer
 72
     1
 94
      127
  0
MATERIAL
  5
46
102
{ACAD_REACTORS
330
43
102
}
330
43
100
AcDbMaterial
  1
Global
 72
     1
 94
      127
  0
MLEADERSTYLE
  5
5C
102
{ACAD_REACTORS
330
5B
102
}
330
5B
100
AcDbMLeaderStyle
179
     2
170
     2
171
     1
172
     0
 90
        2
 40
0.0
 41
0.0
173
     1
 91
-1056964608
340
14
 92
       -2
290
     1
 42
0.09
291
     1
 43
0.36
  3
Standard
341
0
 44
0.18
300

342
11
174
     1
178
     6
175
     1
176
     0
 93
-1056964608
 45
0.18
292
     0
297
     0
 46
0.18
343
0
 94
-1056964608
 47
1.0
 49
1.0
140
1.0
293
     1
141
0.0
294
     1
177
     0
142
1.0
295
     0
296
     0
143
0.125
271
     0
272
     9
273
     9
298
     0
  0
MLINESTYLE
  5
18
102
{ACAD_REACTORS
330
17
102
}
330
17
100
AcDbMlineStyle
  2
Standard
 70
     0
  3

 62
   256
 51
90.0
 52
90.0
 71
     2
 49
0.5
 62
   256
  6
BYLAYER
 49
-0.5
 62
   256
  6
BYLAYER
  0
ACDBPLACEHOLDER
  5
F
102
{ACAD_REACTORS
330
E
102
}
330
E
  0
SCALE
  5
48
102
{ACAD_REACTORS
330
47
102
}
330
47
100
AcDbScale
 70
     0
300
1:1
140
1.0
141
1.0
290
     1
  0
SCALE
  5
49
102
{ACAD_REACTORS
330
47
102
}
330
47
100
AcDbScale
 70
     0
300
1/128" = 1'-0"
140
0.0078125
141
12.0
290
     0
  0
SCALE
  5
4A
102
{ACAD_REACTORS
330
47
102
}
330
47
100
AcDbScale
 70
     0
300
1/64" = 1'-0"
140
0.015625
141
12.0
290
     0
  0
SCALE
  5
4B
102
{ACAD_REACTORS
330
47
102
}
330
47
100
AcDbScale
 70
     0
300
1/32" = 1'-0"
140
0.03125
141
12.0
290
     0
  0
SCALE
  5
4C
102
{ACAD_REACTORS
330
47
102
}
330
47
100
AcDbScale
 70
     0
300
1/16" = 1'-0"
140
0.0625
141
12.0
290
     0
  0
SCALE
  5
4D
102
{ACAD_REACTORS
330
47
102
}
330
47
100
AcDbScale
 70
     0
300
3/32" = 1'-0"
140
0.09375
141
12.0
290
     0
  0
SCALE
  5
4E
102
{ACAD_REACTORS
330
47
102
}
330
47
100
AcDbScale
 70
     0
300
1/8" = 1'-0"
140
0.125
141
12.0
290
     0
  0
SCALE
  5
4F
102
{ACAD_REACTORS
330
47
102
}
330
47
100
AcDbScale
 70
     0
300
3/16" = 1'-0"
140
0.1875
141
12.0
290
     0
  0
SCALE
  5
50
102
{ACAD_REACTORS
330
47
102
}
330
47
100
AcDbScale
 70
     0
300
1/4" = 1'-0"
140
0.25
141
12.0
290
     0
  0
SCALE
  5
51
102
{ACAD_REACTORS
330
47
102
}
330
47
100
AcDbScale
 70
     0
300
3/8" = 1'-0"
140
0.375
141
12.0
290
     0
  0
SCALE
  5
52
102
{ACAD_REACTORS
330
47
102
}
330
47
100
AcDbScale
 70
     0
300
1/2" = 1'-0"
140
0.5
141
12.0
290
     0
  0
SCALE
  5
53
102
{ACAD_REACTORS
330
47
102
}
330
47
100
AcDbScale
 70
     0
300
3/4" = 1'-0"
140
0.75
141
12.0
290
     0
  0
SCALE
  5
54
102
{ACAD_REACTORS
330
47
102
}
330
47
100
AcDbScale
 70
     0
300
1" = 1'-0"
140
1.0
141
12.0
290
     0
  0
SCALE
  5
55
102
{ACAD_REACTORS
330
47
102
}
330
47
100
AcDbScale
 70
     0
300
1-1/2" = 1'-0"
140
1.5
141
12.0
290
     0
  0
SCALE
  5
56
102
{ACAD_REACTORS
330
47
102
}
330
47
100
AcDbScale
 70
     0
300
3" = 1'-0"
140
3.0
141
12.0
290
     0
  0
SCALE
  5
57
102
{ACAD_REACTORS
330
47
102
}
330
47
100
AcDbScale
 70
     0
300
6" = 1'-0"
140
6.0
141
12.0
290
     0
  0
SCALE
  5
58
102
{ACAD_REACTORS
330
47
102
}
330
47
100
AcDbScale
 70
     0
300
1'-0" = 1'-0"
140
12.0
141
12.0
290
     0
  0
TABLESTYLE
  5
5A
102
{ACAD_REACTORS
330
59
102
}
102
{ACAD_XDICTIONARY
360
86
102
}
330
59
100
AcDbTableStyle
  3
Standard
 70
     0
 71
     0
 40
0.06
 41
0.06
280
     0
281
     0
  7
Standard
140
0.18
170
     2
 62
     0
 63
   257
283
     0
 90
        4
 91
        0
  1

274
    -2
284
     1
 64
     0
275
    -2
285
     1
 65
     0
276
    -2
286
     1
 66
     0
277
    -2
287
     1
 67
     0
278
    -2
288
     1
 68
     0
279
    -2
289
     1
 69
     0
  7
Standard
140
0.25
170
     5
 62
     0
 63
   257
283
     0
 90
        4
 91
        0
  1

274
    -2
284
     1
 64
     0
275
    -2
285
     1
 65
     0
276
    -2
286
     1
 66
     0
277
    -2
287
     1
 67
     0
278
    -2
288
     1
 68
     0
279
    -2
289
     1
 69
     0
  7
Standard
140
0.18
170
     5
 62
     0
 63
   257
283
     0
 90
        4
 91
        0
  1

274
    -2
284
     1
 64
     0
275
    -2
285
     1
 65
     0
276
    -2
286
     1
 66
     0
277
    -2
287
     1
 67
     0
278
    -2
288
     1
 68
     0
279
    -2
289
     1
 69
     0
  0
VISUALSTYLE
  5
2F
102
{ACAD_REACTORS
330
2A
102
}
330
2A
100
AcDbVisualStyle
  2
2dWireframe
 70
     4
177
     3
291
     0
 70
    58
 90
        0
176
     1
 90
        2
176
     1
 90
        0
176
     1
 90
        0
176
     1
 40
0.6
176
     1
 40
30.0
176
     1
 62
     7
420
 16777215
176
     1
 90
        1
176
     1
 90
        4
176
     1
 62
     7
176
     1
 62
   257
176
     1
 90
        1
176
     1
 90
        1
176
     1
 40
1.0
176
     1
 90
        0
176
     1
 62
   257
176
     1
 40
1.0
176
     1
 90
        1
176
     1
 90
        6
176
     1
 90
        2
176
     1
 62
     7
176
     1
 90
        5
176
     1
 90
        0
176
     1
 90
        0
176
     1
290
     0
176
     1
 90
        1
176
     1
 40
0.0
176
     1
 90
        0
176
     1
290
     1
176
     1
290
     1
176
     1
290
     0
176
     1
290
     0
176
     1
290
     0
176
     1
290
     0
176
     1
290
     0
176
     1
290
     0
176
     1
290
     0
176
     1
 90
       50
176
     1
 40
0.0
176
     1
 40
1.0
176
     1
 90
        0
176
     1
 62
    18
420
        0
176
     1
 90
       50
176
     1
 90
        3
176
     1
 62
     5
420
      255
176
     1
290
     0
176
     1
 90
       50
176
     1
 90
       50
176
     1
 90
       50
176
     1
290
     0
176
     1
 90
       50
176
     1
 62
   256
176
     0
 40
1.0
176
     0
 90
        2
176
     1
  1
strokes_ogs.tif
176
     1
290
     0
176
     1
 40
1.0
176
     1
 40
1.0
176
     1
  0
VISUALSTYLE
  5
32
102
{ACAD_REACTORS
330
2A
102
}
330
2A
100
AcDbVisualStyle
  2
Basic
 70
     7
177
     3
291
     1
 70
    58
 90
        1
176
     1
 90
        0
176
     1
 90
        1
176
     1
 90
        0
176
     1
 40
0.6
176
     1
 40
30.0
176
     1
 62
     7
420
 16777215
176
     1
 90
        0
176
     1
 90
        4
176
     1
 62
     7
176
     1
 62
   257
176
     1
 90
        1
176
     1
 90
        1
176
     1
 40
1.0
176
     1
 90
        8
176
     1
 62
     7
176
     1
 40
1.0
176
     1
 90
        1
176
     1
 90
        6
176
     1
 90
        2
176
     1
 62
     7
176
     1
 90
        5
176
     1
 90
        0
176
     1
 90
        0
176
     1
290
     0
176
     1
 90
        1
176
     1
 40
0.0
176
     1
 90
        0
176
     1
290
     0
176
     1
290
     1
176
     1
290
     1
176
     1
290
     0
176
     1
290
     0
176
     1
290
     0
176
     1
290
     0
176
     1
290
     0
176
     1
290
     0
176
     1
 90
       50
176
     1
 40
0.0
176
     1
 40
1.0
176
     1
 90
        0
176
     1
 62
    18
420
        0
176
     1
 90
       50
176
     1
 90
        3
176
     1
 62
     5
420
      255
176
     1
290
     0
176
     1
 90
       50
176
     1
 90
       50
176
     1
 90
       50
176
     1
290
     0
176
     1
 90
       50
176
     1
 62
   256
176
     0
 40
1.0
176
     0
 90
        2
176
     1
  1
strokes_ogs.tif
176
     1
290
     0
176
     1
 40
1.0
176
     1
 40
1.0
176
     1
  0
VISUALSTYLE
  5
36
102
{ACAD_REACTORS
330
2A
102
}
330
2A
100
AcDbVisualStyle
  2
Brighten
 70
    12
177
     3
291
     1
 70
    58
 90
        2
176
     1
 90
        2
176
     1
 90
        0
176
     1
 90
        0
176
     1
 40
0.6
176
     1
 40
30.0
176
     1
 62
     7
420
 16777215
176
     1
 90
        1
176
     1
 90
        4
176
     1
 62
     7
176
     1
 62
   257
176
     1
 90
        1
176
     1
 90
        1
176
     1
 40
1.0
176
     1
 90
        8
176
     1
 62
     7
176
     1
 40
1.0
176
     1
 90
        1
176
     1
 90
        6
176
     1
 90
        2
176
     1
 62
     7
176
     1
 90
        5
176
     1
 90
        0
176
     1
 90
        0
176
     1
290
     0
176
     1
 90
        1
176
     1
 40
50.0
176
     1
 90
        0
176
     1
290
     0
176
     1
290
     1
176
     1
290
     1
176
     1
290
     0
176
     1
290
     0
176
     1
290
     0
176
     1
290
     0
176
     1
290
     0
176
     1
290
     0
176
     1
 90
       50
176
     1
 40
0.0
176
     1
 40
1.0
176
     1
 90
        0
176
     1
 62
    18
420
        0
176
     1
 90
       50
176
     1
 90
        3
176
     1
 62
     5
420
      255
176
     1
290
     0
176
     1
 90
       50
176
     1
 90
       50
176
     1
 90
       50
176
     1
290
     0
176
     1
 90
       50
176
     1
 62
   256
176
     0
 40
1.0
176
     0
 90
        2
176
     1
  1
strokes_ogs.tif
176
     1
290
     0
176
     1
 40
1.0
176
     1
 40
1.0
176
     1
  0
VISUALSTYLE
  5
3A
102
{ACAD_REACTORS
330
2A
102
}
330
2A
100
AcDbVisualStyle
  2
ColorChange
 70
    16
177
     3
291
     1
 70
    58
 90
        2
176
     1
 90
        2
176
     1
 90
        3
176
     1
 90
        0
176
     1
 40
0.6
176
     1
 40
30.0
176
     1
 62
     8
420
  8421504
176
     1
 90
        1
176
     1
 90
        4
176
     1
 62
     7
176
     1
 62
   257
176
     1
 90
        1
176
     1
 90
        1
176
     1
 40
1.0
176
     1
 90
        8
176
     1
 62
     8
420
  8421504
176
     1
 40
1.0
176
     1
 90
        1
176
     1
 90
        6
176
     1
 90
        2
176
     1
 62
     7
176
     1
 90
        5
176
     1
 90
        0
176
     1
 90
        0
176
     1
290
     0
176
     1
 90
        1
176
     1
 40
0.0
176
     1
 90
        0
176
     1
290
     0
176
     1
290
     1
176
     1
290
     1
176
     1
290
     0
176
     1
290
     0
176
     1
290
     0
176
     1
290
     0
176
     1
290
     0
176
     1
290
     0
176
     1
 90
       50
176
     1
 40
0.0
176
     1
 40
1.0
176
     1
 90
        0
176
     1
 62
    18
420
        0
176
     1
 90
       50
176
     1
 90
        3
176
     1
 62
     5
420
      255
176
     1
290
     0
176
     1
 90
       50
176
     1
 90
       50
176
     1
 90
       50
176
     1
290
     0
176
     1
 90
       50
176
     1
 62
   256
176
     0
 40
1.0
176
     0
 90
        2
176
     1
  1
strokes_ogs.tif
176
     1
290
     0
176
     1
 40
1.0
176
     1
 40
1.0
176
     1
  0
VISUALSTYLE
  5
34
102
{ACAD_REACTORS
330
2A
102
}
330
2A
100
AcDbVisualStyle
  2
Conceptual
 70
     9
177
     3
291
     0
 70
    58
 90
        3
176
     1
 90
        2
176
     1
 90
        0
176
     1
 90
        0
176
     1
 40
0.6
176
     1
 40
30.0
176
     1
 62
     7
420
 16777215
176
     1
 90
        2
176
     1
 90
        2
176
     1
 62
     7
176
     1
 62
   257
176
     1
 90
        1
176
     1
 90
        1
176
     1
 40
179.0
176
     1
 90
        8
176
     1
 62
     7
176
     1
 40
1.0
176
     1
 90
        1
176
     1
 90
        6
176
     1
 90
        2
176
     1
 62
     7
176
     1
 90
        3
176
     1
 90
        0
176
     1
 90
        0
176
     1
290
     0
176
     1
 90
        1
176
     1
 40
0.0
176
     1
 90
        0
176
     1
290
     0
176
     1
290
     1
176
     1
290
     1
176
     1
290
     0
176
     1
290
     0
176
     1
290
     0
176
     1
290
     0
176
     1
290
     0
176
     1
290
     0
176
     1
 90
       50
176
     1
 40
0.0
176
     1
 40
1.0
176
     1
 90
        0
176
     1
 62
    18
420
        0
176
     1
 90
       50
176
     1
 90
        3
176
     1
 62
     5
420
      255
176
     1
290
     0
176
     1
 90
       50
176
     1
 90
       50
176
     1
 90
       50
176
     1
290
     0
176
     1
 90
       50
176
     1
 62
   256
176
     0
 40
1.0
176
     0
 90
        2
176
     1
  1
strokes_ogs.tif
176
     1
290
     0
176
     1
 40
1.0
176
     1
 40
1.0
176
     1
  0
VISUALSTYLE
  5
35
102
{ACAD_REACTORS
330
2A
102
}
330
2A
100
AcDbVisualStyle
  2
Dim
 70
    11
177
     3
291
     1
 70
    58
 90
        2
176
     1
 90
        2
176
     1
 90
        0
176
     1
 90
        0
176
     1
 40
0.6
176
     1
 40
30.0
176
     1
 62
     7
420
 16777215
176
     1
 90
        1
176
     1
 90
        4
176
     1
 62
     7
176
     1
 62
   257
176
     1
 90
        1
176
     1
 90
        1
176
     1
 40
1.0
176
     1
 90
        8
176
     1
 62
     7
176
     1
 40
1.0
176
     1
 90
        1
176
     1
 90
        6
176
     1
 90
        2
176
     1
 62
     7
176
     1
 90
        5
176
     1
 90
        0
176
     1
 90
        0
176
     1
290
     0
176
     1
 90
        1
176
     1
 40
-50.0
176
     1
 90
        0
176
     1
290
     0
176
     1
290
     1
176
     1
290
     1
176
     1
290
     0
176
     1
290
     0
176
     1
290
     0
176
     1
290
     0
176
     1
290
     0
176
     1
290
     0
176
     1
 90
       50
176
     1
 40
0.0
176
     1
 40
1.0
176
     1
 90
        0
176
     1
 62
    18
420
        0
176
     1
 90
       50
176
     1
 90
        3
176
     1
 62
     5
420
      255
176
     1
290
     0
176
     1
 90
       50
176
     1
 90
       50
176
     1
 90
       50
176
     1
290
     0
176
     1
 90
       50
176
     1
 62
   256
176
     0
 40
1.0
176
     0
 90
        2
176
     1
  1
strokes_ogs.tif
176
     1
290
     0
176
     1
 40
1.0
176
     1
 40
1.0
176
     1
  0
VISUALSTYLE
  5
3D
102
{ACAD_REACTORS
330
2A
102
}
330
2A
100
AcDbVisualStyle
  2
EdgeColorOff
 70
    22
177
     3
291
     1
 70
    58
 90
        2
176
     0
 90
        2
176
     0
 90
        0
176
     0
 90
        0
176
     0
 40
0.6
176
     0
 40
30.0
176
     0
 62
     7
420
 16777215
176
     0
 90
        1
176
     0
 90
        4
176
     0
 62
     7
176
     0
 62
   257
176
     0
 90
        1
176
     0
 90
        1
176
     0
 40
1.0
176
     0
 90
        8
176
     2
 62
     7
176
     0
 40
1.0
176
     0
 90
        1
176
     0
 90
        6
176
     0
 90
        2
176
     0
 62
     7
176
     0
 90
        5
176
     0
 90
        0
176
     0
 90
        0
176
     0
290
     0
176
     0
 90
        1
176
     0
 40
0.0
176
     0
 90
        0
176
     0
290
     0
176
     0
290
     1
176
     0
290
     1
176
     0
290
     0
176
     0
290
     0
176
     0
290
     0
176
     0
290
     0
176
     0
290
     0
176
     0
290
     0
176
     0
 90
       50
176
     0
 40
0.0
176
     0
 40
1.0
176
     0
 90
        0
176
     0
 62
    18
420
        0
176
     0
 90
       50
176
     0
 90
        3
176
     0
 62
     5
420
      255
176
     0
290
     0
176
     0
 90
       50
176
     0
 90
       50
176
     0
 90
       50
176
     0
290
     0
176
     0
 90
       50
176
     0
 62
   256
176
     0
 40
1.0
176
     0
 90
        2
176
     0
  1
strokes_ogs.tif
176
     0
290
     0
176
     0
 40
1.0
176
     0
 40
1.0
176
     0
  0
VISUALSTYLE
  5
39
102
{ACAD_REACTORS
330
2A
102
}
330
2A
100
AcDbVisualStyle
  2
Facepattern
 70
    15
177
     3
291
     1
 70
    58
 90
        2
176
     1
 90
        2
176
     1
 90
        0
176
     1
 90
        0
176
     1
 40
0.6
176
     1
 40
30.0
176
     1
 62
     7
420
 16777215
176
     1
 90
        1
176
     1
 90
        4
176
     1
 62
     7
176
     1
 62
   257
176
     1
 90
        1
176
     1
 90
        1
176
     1
 40
1.0
176
     1
 90
        8
176
     1
 62
     7
176
     1
 40
1.0
176
     1
 90
        1
176
     1
 90
        6
176
     1
 90
        2
176
     1
 62
     7
176
     1
 90
        5
176
     1
 90
        0
176
     1
 90
        0
176
     1
290
     0
176
     1
 90
        1
176
     1
 40
0.0
176
     1
 90
        0
176
     1
290
     0
176
     1
290
     1
176
     1
290
     1
176
     1
290
     0
176
     1
290
     0
176
     1
290
     0
176
     1
290
     0
176
     1
290
     0
176
     1
290
     0
176
     1
 90
       50
176
     1
 40
0.0
176
     1
 40
1.0
176
     1
 90
        0
176
     1
 62
    18
420
        0
176
     1
 90
       50
176
     1
 90
        3
176
     1
 62
     5
420
      255
176
     1
290
     0
176
     1
 90
       50
176
     1
 90
       50
176
     1
 90
       50
176
     1
290
     0
176
     1
 90
       50
176
     1
 62
   256
176
     0
 40
1.0
176
     0
 90
        2
176
     1
  1
strokes_ogs.tif
176
     1
290
     0
176
     1
 40
1.0
176
     1
 40
1.0
176
     1
  0
VISUALSTYLE
  5
2B
102
{ACAD_REACTORS
330
2A
102
}
330
2A
100
AcDbVisualStyle
  2
Flat
 70
     0
177
     3
291
     1
 70
    58
 90
        2
176
     1
 90
        1
176
     1
 90
        1
176
     1
 90
        2
176
     1
 40
0.6
176
     1
 40
30.0
176
     1
 62
     7
420
 16777215
176
     1
 90
        0
176
     1
 90
        0
176
     1
 62
     7
176
     1
 62
   257
176
     1
 90
        1
176
     1
 90
        1
176
     1
 40
1.0
176
     1
 90
        8
176
     1
 62
     7
176
     1
 40
1.0
176
     1
 90
        1
176
     1
 90
        6
176
     1
 90
        2
176
     1
 62
     7
176
     1
 90
        5
176
     1
 90
        0
176
     1
 90
        0
176
     1
290
     0
176
     1
 90
       13
176
     1
 40
0.0
176
     1
 90
        0
176
     1
290
     0
176
     1
290
     1
176
     1
290
     1
176
     1
290
     0
176
     1
290
     0
176
     1
290
     0
176
     1
290
     0
176
     1
290
     0
176
     1
290
     0
176
     1
 90
       50
176
     1
 40
0.0
176
     1
 40
1.0
176
     1
 90
        0
176
     1
 62
    18
420
        0
176
     1
 90
       50
176
     1
 90
        3
176
     1
 62
     5
420
      255
176
     1
290
     0
176
     1
 90
       50
176
     1
 90
       50
176
     1
 90
       50
176
     1
290
     0
176
     1
 90
       50
176
     1
 62
   256
176
     0
 40
1.0
176
     0
 90
        2
176
     1
  1
strokes_ogs.tif
176
     1
290
     0
176
     1
 40
1.0
176
     1
 40
1.0
176
     1
  0
VISUALSTYLE
  5
2C
102
{ACAD_REACTORS
330
2A
102
}
330
2A
100
AcDbVisualStyle
  2
FlatWithEdges
 70
     1
177
     3
291
     1
 70
    58
 90
        2
176
     1
 90
        1
176
     1
 90
        1
176
     1
 90
        2
176
     1
 40
0.6
176
     1
 40
30.0
176
     1
 62
     7
420
 16777215
176
     1
 90
        1
176
     1
 90
        0
176
     1
 62
     7
176
     1
 62
   257
176
     1
 90
        1
176
     1
 90
        1
176
     1
 40
1.0
176
     1
 90
        0
176
     1
 62
   257
176
     1
 40
1.0
176
     1
 90
        1
176
     1
 90
        6
176
     1
 90
        2
176
     1
 62
     7
176
     1
 90
        5
176
     1
 90
        0
176
     1
 90
        0
176
     1
290
     0
176
     1
 90
       13
176
     1
 40
0.0
176
     1
 90
        0
176
     1
290
     0
176
     1
290
     1
176
     1
290
     1
176
     1
290
     0
176
     1
290
     0
176
     1
290
     0
176
     1
290
     0
176
     1
290
     0
176
     1
290
     0
176
     1
 90
       50
176
     1
 40
0.0
176
     1
 40
1.0
176
     1
 90
        0
176
     1
 62
    18
420
        0
176
     1
 90
       50
176
     1
 90
        3
176
     1
 62
     5
420
      255
176
     1
290
     0
176
     1
 90
       50
176
     1
 90
       50
176
     1
 90
       50
176
     1
290
     0
176
     1
 90
       50
176
     1
 62
   256
176
     0
 40
1.0
176
     0
 90
        2
176
     1
  1
strokes_ogs.tif
176
     1
290
     0
176
     1
 40
1.0
176
     1
 40
1.0
176
     1
  0
VISUALSTYLE
  5
2D
102
{ACAD_REACTORS
330
2A
102
}
330
2A
100
AcDbVisualStyle
  2
Gouraud
 70
     2
177
     3
291
     1
 70
    58
 90
        2
176
     1
 90
        2
176
     1
 90
        1
176
     1
 90
        2
176
     1
 40
0.6
176
     1
 40
30.0
176
     1
 62
     7
420
 16777215
176
     1
 90
        0
176
     1
 90
        0
176
     1
 62
     7
176
     1
 62
   257
176
     1
 90
        1
176
     1
 90
        1
176
     1
 40
1.0
176
     1
 90
        0
176
     1
 62
     7
176
     1
 40
1.0
176
     1
 90
        1
176
     1
 90
        6
176
     1
 90
        2
176
     1
 62
     7
176
     1
 90
        5
176
     1
 90
        0
176
     1
 90
        0
176
     1
290
     0
176
     1
 90
       13
176
     1
 40
0.0
176
     1
 90
        0
176
     1
290
     0
176
     1
290
     1
176
     1
290
     1
176
     1
290
     0
176
     1
290
     0
176
     1
290
     0
176
     1
290
     0
176
     1
290
     0
176
     1
290
     0
176
     1
 90
       50
176
     1
 40
0.0
176
     1
 40
1.0
176
     1
 90
        0
176
     1
 62
    18
420
        0
176
     1
 90
       50
176
     1
 90
        3
176
     1
 62
     5
420
      255
176
     1
290
     0
176
     1
 90
       50
176
     1
 90
       50
176
     1
 90
       50
176
     1
290
     0
176
     1
 90
       50
176
     1
 62
   256
176
     0
 40
1.0
176
     0
 90
        2
176
     1
  1
strokes_ogs.tif
176
     1
290
     0
176
     1
 40
1.0
176
     1
 40
1.0
176
     1
  0
VISUALSTYLE
  5
2E
102
{ACAD_REACTORS
330
2A
102
}
330
2A
100
AcDbVisualStyle
  2
GouraudWithEdges
 70
     3
177
     3
291
     1
 70
    58
 90
        2
176
     1
 90
        2
176
     1
 90
        1
176
     1
 90
        2
176
     1
 40
0.6
176
     1
 40
30.0
176
     1
 62
     7
420
 16777215
176
     1
 90
        1
176
     1
 90
        0
176
     1
 62
     7
176
     1
 62
   257
176
     1
 90
        1
176
     1
 90
        1
176
     1
 40
1.0
176
     1
 90
        0
176
     1
 62
   257
176
     1
 40
1.0
176
     1
 90
        1
176
     1
 90
        6
176
     1
 90
        2
176
     1
 62
     7
176
     1
 90
        5
176
     1
 90
        0
176
     1
 90
        0
176
     1
290
     0
176
     1
 90
       13
176
     1
 40
0.0
176
     1
 90
        0
176
     1
290
     0
176
     1
290
     1
176
     1
290
     1
176
     1
290
     0
176
     1
290
     0
176
     1
290
     0
176
     1
290
     0
176
     1
290
     0
176
     1
290
     0
176
     1
 90
       50
176
     1
 40
0.0
176
     1
 40
1.0
176
     1
 90
        0
176
     1
 62
    18
420
        0
176
     1
 90
       50
176
     1
 90
        3
176
     1
 62
     5
420
      255
176
     1
290
     0
176
     1
 90
       50
176
     1
 90
       50
176
     1
 90
       50
176
     1
290
     0
176
     1
 90
       50
176
     1
 62
   256
176
     0
 40
1.0
176
     0
 90
        2
176
     1
  1
strokes_ogs.tif
176
     1
290
     0
176
     1
 40
1.0
176
     1
 40
1.0
176
     1
  0
VISUALSTYLE
  5
31
102
{ACAD_REACTORS
330
2A
102
}
330
2A
100
AcDbVisualStyle
  2
Hidden
 70
     6
177
     3
291
     0
 70
    58
 90
        1
176
     1
 90
        2
176
     1
 90
        2
176
     1
 90
        0
176
     1
 40
0.6
176
     1
 40
30.0
176
     1
 62
     7
420
 16777215
176
     1
 90
        2
176
     1
 90
        2
176
     1
 62
     7
176
     1
 62
   257
176
     1
 90
        2
176
     1
 90
        1
176
     1
 40
40.0
176
     1
 90
        0
176
     1
 62
   257
176
     1
 40
1.0
176
     1
 90
        1
176
     1
 90
        6
176
     1
 90
        2
176
     1
 62
     7
176
     1
 90
        3
176
     1
 90
        0
176
     1
 90
        0
176
     1
290
     0
176
     1
 90
        1
176
     1
 40
0.0
176
     1
 90
        0
176
     1
290
     0
176
     1
290
     1
176
     1
290
     1
176
     1
290
     0
176
     1
290
     0
176
     1
290
     0
176
     1
290
     0
176
     1
290
     0
176
     1
290
     0
176
     1
 90
       50
176
     1
 40
0.0
176
     1
 40
1.0
176
     1
 90
        0
176
     1
 62
    18
420
        0
176
     1
 90
       50
176
     1
 90
        3
176
     1
 62
     5
420
      255
176
     1
290
     0
176
     1
 90
       50
176
     1
 90
       50
176
     1
 90
       50
176
     1
290
     0
176
     1
 90
       50
176
     1
 62
   256
176
     0
 40
1.0
176
     0
 90
        2
176
     1
  1
strokes_ogs.tif
176
     1
290
     0
176
     1
 40
1.0
176
     1
 40
1.0
176
     1
  0
VISUALSTYLE
  5
3B
102
{ACAD_REACTORS
330
2A
102
}
330
2A
100
AcDbVisualStyle
  2
JitterOff
 70
    20
177
     3
291
     1
 70
    58
 90
        2
176
     0
 90
        2
176
     0
 90
        0
176
     0
 90
        0
176
     0
 40
0.6
176
     0
 40
30.0
176
     0
 62
     7
420
 16777215
176
     0
 90
        1
176
     0
 90
        4
176
     0
 62
     7
176
     0
 62
   257
176
     0
 90
        1
176
     0
 90
        1
176
     0
 40
1.0
176
     0
 90
       10
176
     2
 62
     7
176
     0
 40
1.0
176
     0
 90
        1
176
     0
 90
        6
176
     0
 90
        2
176
     0
 62
     7
176
     0
 90
        5
176
     0
 90
        0
176
     0
 90
        0
176
     0
290
     0
176
     0
 90
        1
176
     0
 40
0.0
176
     0
 90
        0
176
     0
290
     0
176
     0
290
     1
176
     0
290
     1
176
     0
290
     0
176
     0
290
     0
176
     0
290
     0
176
     0
290
     0
176
     0
290
     0
176
     0
290
     0
176
     0
 90
       50
176
     0
 40
0.0
176
     0
 40
1.0
176
     0
 90
        0
176
     0
 62
    18
420
        0
176
     0
 90
       50
176
     0
 90
        3
176
     0
 62
     5
420
      255
176
     0
290
     0
176
     0
 90
       50
176
     0
 90
       50
176
     0
 90
       50
176
     0
290
     0
176
     0
 90
       50
176
     0
 62
   256
176
     0
 40
1.0
176
     0
 90
        2
176
     0
  1
strokes_ogs.tif
176
     0
290
     0
176
     0
 40
1.0
176
     0
 40
1.0
176
     0
  0
VISUALSTYLE
  5
38
102
{ACAD_REACTORS
330
2A
102
}
330
2A
100
AcDbVisualStyle
  2
Linepattern
 70
    14
177
     3
291
     1
 70
    58
 90
        2
176
     1
 90
        2
176
     1
 90
        0
176
     1
 90
        0
176
     1
 40
0.6
176
     1
 40
30.0
176
     1
 62
     7
420
 16777215
176
     1
 90
        1
176
     1
 90
        4
176
     1
 62
     7
176
     1
 62
   257
176
     1
 90
        7
176
     1
 90
        7
176
     1
 40
1.0
176
     1
 90
        8
176
     1
 62
     7
176
     1
 40
1.0
176
     1
 90
        1
176
     1
 90
        6
176
     1
 90
        2
176
     1
 62
     7
176
     1
 90
        5
176
     1
 90
        0
176
     1
 90
        0
176
     1
290
     0
176
     1
 90
        1
176
     1
 40
0.0
176
     1
 90
        0
176
     1
290
     0
176
     1
290
     1
176
     1
290
     1
176
     1
290
     0
176
     1
290
     0
176
     1
290
     0
176
     1
290
     0
176
     1
290
     0
176
     1
290
     0
176
     1
 90
       50
176
     1
 40
0.0
176
     1
 40
1.0
176
     1
 90
        0
176
     1
 62
    18
420
        0
176
     1
 90
       50
176
     1
 90
        3
176
     1
 62
     5
420
      255
176
     1
290
     0
176
     1
 90
       50
176
     1
 90
       50
176
     1
 90
       50
176
     1
290
     0
176
     1
 90
       50
176
     1
 62
   256
176
     0
 40
1.0
176
     0
 90
        2
176
     1
  1
strokes_ogs.tif
176
     1
290
     0
176
     1
 40
1.0
176
     1
 40
1.0
176
     1
  0
VISUALSTYLE
  5
3C
102
{ACAD_REACTORS
330
2A
102
}
330
2A
100
AcDbVisualStyle
  2
OverhangOff
 70
    21
177
     3
291
     1
 70
    58
 90
        2
176
     0
 90
        2
176
     0
 90
        0
176
     0
 90
        0
176
     0
 40
0.6
176
     0
 40
30.0
176
     0
 62
     7
420
 16777215
176
     0
 90
        1
176
     0
 90
        4
176
     0
 62
     7
176
     0
 62
   257
176
     0
 90
        1
176
     0
 90
        1
176
     0
 40
1.0
176
     0
 90
        9
176
     2
 62
     7
176
     0
 40
1.0
176
     0
 90
        1
176
     0
 90
        6
176
     0
 90
        2
176
     0
 62
     7
176
     0
 90
        5
176
     0
 90
        0
176
     0
 90
        0
176
     0
290
     0
176
     0
 90
        1
176
     0
 40
0.0
176
     0
 90
        0
176
     0
290
     0
176
     0
290
     1
176
     0
290
     1
176
     0
290
     0
176
     0
290
     0
176
     0
290
     0
176
     0
290
     0
176
     0
290
     0
176
     0
290
     0
176
     0
 90
       50
176
     0
 40
0.0
176
     0
 40
1.0
176
     0
 90
        0
176
     0
 62
    18
420
        0
176
     0
 90
       50
176
     0
 90
        3
176
     0
 62
     5
420
      255
176
     0
290
     0
176
     0
 90
       50
176
     0
 90
       50
176
     0
 90
       50
176
     0
290
     0
176
     0
 90
       50
176
     0
 62
   256
176
     0
 40
1.0
176
     0
 90
        2
176
     0
  1
strokes_ogs.tif
176
     0
290
     0
176
     0
 40
1.0
176
     0
 40
1.0
176
     0
  0
VISUALSTYLE
  5
33
102
{ACAD_REACTORS
330
2A
102
}
330
2A
100
AcDbVisualStyle
  2
Realistic
 70
     8
177
     3
291
     0
 70
    58
 90
        2
176
     1
 90
        3
176
     1
 90
        0
176
     1
 90
        2
176
     1
 40
0.6
176
     1
 40
30.0
176
     1
 62
     7
420
 16777215
176
     1
 90
        0
176
     1
 90
        0
176
     1
 62
     7
176
     1
 62
   257
176
     1
 90
        1
176
     1
 90
        1
176
     1
 40
1.0
176
     1
 90
        8
176
     1
 62
   257
176
     1
 40
1.0
176
     1
 90
        1
176
     1
 90
        6
176
     1
 90
        2
176
     1
 62
     7
176
     1
 90
        3
176
     1
 90
        0
176
     1
 90
        0
176
     1
290
     0
176
     1
 90
       13
176
     1
 40
0.0
176
     1
 90
        0
176
     1
290
     0
176
     1
290
     1
176
     1
290
     1
176
     1
290
     0
176
     1
290
     0
176
     1
290
     0
176
     1
290
     0
176
     1
290
     0
176
     1
290
     0
176
     1
 90
       50
176
     1
 40
0.0
176
     1
 40
1.0
176
     1
 90
        0
176
     1
 62
    18
420
        0
176
     1
 90
       50
176
     1
 90
        3
176
     1
 62
     5
420
      255
176
     1
290
     0
176
     1
 90
       50
176
     1
 90
       50
176
     1
 90
       50
176
     1
290
     0
176
     1
 90
       50
176
     1
 62
   256
176
     0
 40
1.0
176
     0
 90
        2
176
     1
  1
strokes_ogs.tif
176
     1
290
     0
176
     1
 40
1.0
176
     1
 40
1.0
176
     1
  0
VISUALSTYLE
  5
42
102
{ACAD_REACTORS
330
2A
102
}
330
2A
100
AcDbVisualStyle
  2
Shaded
 70
    27
177
     3
291
     0
 70
    58
 90
        2
176
     1
 90
        2
176
     1
 90
        1
176
     1
 90
        2
176
     1
 40
0.6
176
     1
 40
30.0
176
     1
 62
     7
420
 16777215
176
     1
 90
        0
176
     1
 90
        4
176
     1
 62
     7
176
     1
 62
   257
176
     1
 90
        1
176
     1
 90
        1
176
     1
 40
1.0
176
     1
 90
        8
176
     1
 62
   257
176
     1
 40
1.0
176
     1
 90
        1
176
     1
 90
        6
176
     1
 90
        2
176
     1
 62
     8
420
  7895160
176
     1
 90
        3
176
     1
 90
        0
176
     1
 90
        0
176
     1
290
     0
176
     1
 90
        5
176
     1
 40
0.0
176
     1
 90
        0
176
     1
290
     0
176
     1
290
     1
176
     1
290
     1
176
     1
290
     0
176
     1
290
     0
176
     1
290
     0
176
     1
290
     0
176
     1
290
     0
176
     1
290
     0
176
     1
 90
       50
176
     1
 40
0.0
176
     1
 40
1.0
176
     1
 90
        0
176
     1
 62
    18
420
        0
176
     1
 90
       50
176
     1
 90
        3
176
     1
 62
     5
420
      255
176
     1
290
     0
176
     1
 90
       50
176
     1
 90
       50
176
     1
 90
       50
176
     1
290
     0
176
     1
 90
       50
176
     1
 62
   256
176
     0
 40
1.0
176
     0
 90
        2
176
     1
  1
strokes_ogs.tif
176
     1
290
     0
176
     1
 40
1.0
176
     1
 40
1.0
176
     1
  0
VISUALSTYLE
  5
41
102
{ACAD_REACTORS
330
2A
102
}
330
2A
100
AcDbVisualStyle
  2
Shaded with edges
 70
    26
177
     3
291
     0
 70
    58
 90
        2
176
     1
 90
        2
176
     1
 90
        1
176
     1
 90
        2
176
     1
 40
0.6
176
     1
 40
30.0
176
     1
 62
     7
420
 16777215
176
     1
 90
        1
176
     1
 90
       10
176
     1
 62
     7
176
     1
 62
   257
176
     1
 90
        2
176
     1
 90
        1
176
     1
 40
1.0
176
     1
 90
        8
176
     1
 62
   257
176
     1
 40
1.0
176
     1
 90
        1
176
     1
 90
        6
176
     1
 90
        2
176
     1
 62
     7
176
     1
 90
        3
176
     1
 90
        0
176
     1
 90
        0
176
     1
290
     0
176
     1
 90
        5
176
     1
 40
0.0
176
     1
 90
        0
176
     1
290
     0
176
     1
290
     1
176
     1
290
     1
176
     1
290
     0
176
     1
290
     0
176
     1
290
     0
176
     1
290
     0
176
     1
290
     0
176
     1
290
     0
176
     1
 90
       50
176
     1
 40
0.0
176
     1
 40
1.0
176
     1
 90
        0
176
     1
 62
    18
420
        0
176
     1
 90
       50
176
     1
 90
        3
176
     1
 62
     5
420
      255
176
     1
290
     0
176
     1
 90
       50
176
     1
 90
       50
176
     1
 90
       50
176
     1
290
     0
176
     1
 90
       50
176
     1
 62
   256
176
     0
 40
1.0
176
     0
 90
        2
176
     1
  1
strokes_ogs.tif
176
     1
290
     0
176
     1
 40
1.0
176
     1
 40
1.0
176
     1
  0
VISUALSTYLE
  5
3E
102
{ACAD_REACTORS
330
2A
102
}
330
2A
100
AcDbVisualStyle
  2
Shades of Gray
 70
    23
177
     3
291
     0
 70
    58
 90
        2
176
     1
 90
        2
176
     1
 90
        3
176
     1
 90
        0
176
     1
 40
0.6
176
     1
 40
30.0
176
     1
 62
     7
420
 16777215
176
     1
 90
        2
176
     1
 90
        2
176
     1
 62
     7
176
     1
 62
     7
176
     1
 90
        1
176
     1
 90
        1
176
     1
 40
40.0
176
     1
 90
        8
176
     1
 62
     7
176
     1
 40
1.0
176
     1
 90
        1
176
     1
 90
        6
176
     1
 90
        2
176
     1
 62
     7
176
     1
 90
        3
176
     1
 90
        0
176
     1
 90
        0
176
     1
290
     0
176
     1
 90
        1
176
     1
 40
0.0
176
     1
 90
        0
176
     1
290
     0
176
     1
290
     1
176
     1
290
     1
176
     1
290
     0
176
     1
290
     0
176
     1
290
     0
176
     1
290
     0
176
     1
290
     0
176
     1
290
     0
176
     1
 90
       50
176
     1
 40
0.0
176
     1
 40
1.0
176
     1
 90
        0
176
     1
 62
    18
420
        0
176
     1
 90
       50
176
     1
 90
        3
176
     1
 62
     5
420
      255
176
     1
290
     0
176
     1
 90
       50
176
     1
 90
       50
176
     1
 90
       50
176
     1
290
     0
176
     1
 90
       50
176
     1
 62
   256
176
     0
 40
1.0
176
     0
 90
        2
176
     1
  1
strokes_ogs.tif
176
     1
290
     0
176
     1
 40
1.0
176
     1
 40
1.0
176
     1
  0
VISUALSTYLE
  5
3F
102
{ACAD_REACTORS
330
2A
102
}
330
2A
100
AcDbVisualStyle
  2
Sketchy
 70
    24
177
     3
291
     0
 70
    58
 90
        1
176
     1
 90
        2
176
     1
 90
        2
176
     1
 90
        0
176
     1
 40
0.6
176
     1
 40
30.0
176
     1
 62
     7
420
 16777215
176
     1
 90
        2
176
     1
 90
        2
176
     1
 62
     7
176
     1
 62
     7
176
     1
 90
        1
176
     1
 90
        1
176
     1
 40
40.0
176
     1
 90
       11
176
     1
 62
     7
176
     1
 40
1.0
176
     1
 90
        1
176
     1
 90
        6
176
     1
 90
        2
176
     1
 62
     7
176
     1
 90
        6
176
     1
 90
        0
176
     1
 90
        0
176
     1
290
     0
176
     1
 90
        1
176
     1
 40
0.0
176
     1
 90
        0
176
     1
290
     0
176
     1
290
     1
176
     1
290
     1
176
     1
290
     0
176
     1
290
     0
176
     1
290
     0
176
     1
290
     0
176
     1
290
     0
176
     1
290
     0
176
     1
 90
       50
176
     1
 40
0.0
176
     1
 40
1.0
176
     1
 90
        0
176
     1
 62
    18
420
        0
176
     1
 90
       50
176
     1
 90
        3
176
     1
 62
     5
420
      255
176
     1
290
     0
176
     1
 90
       50
176
     1
 90
       50
176
     1
 90
       50
176
     1
290
     0
176
     1
 90
       50
176
     1
 62
   256
176
     0
 40
1.0
176
     0
 90
        2
176
     1
  1
strokes_ogs.tif
176
     1
290
     0
176
     1
 40
1.0
176
     1
 40
1.0
176
     1
  0
VISUALSTYLE
  5
37
102
{ACAD_REACTORS
330
2A
102
}
330
2A
100
AcDbVisualStyle
  2
Thicken
 70
    13
177
     3
291
     1
 70
    58
 90
        2
176
     1
 90
        2
176
     1
 90
        0
176
     1
 90
        0
176
     1
 40
0.6
176
     1
 40
30.0
176
     1
 62
     7
420
 16777215
176
     1
 90
        1
176
     1
 90
        4
176
     1
 62
     7
176
     1
 62
   257
176
     1
 90
        1
176
     1
 90
        1
176
     1
 40
1.0
176
     1
 90
       12
176
     1
 62
     7
176
     1
 40
1.0
176
     1
 90
        1
176
     1
 90
        6
176
     1
 90
        2
176
     1
 62
     7
176
     1
 90
        5
176
     1
 90
        0
176
     1
 90
        0
176
     1
290
     0
176
     1
 90
        1
176
     1
 40
0.0
176
     1
 90
        0
176
     1
290
     0
176
     1
290
     1
176
     1
290
     1
176
     1
290
     0
176
     1
290
     0
176
     1
290
     0
176
     1
290
     0
176
     1
290
     0
176
     1
290
     0
176
     1
 90
       50
176
     1
 40
0.0
176
     1
 40
1.0
176
     1
 90
        0
176
     1
 62
    18
420
        0
176
     1
 90
       50
176
     1
 90
        3
176
     1
 62
     5
420
      255
176
     1
290
     0
176
     1
 90
       50
176
     1
 90
       50
176
     1
 90
       50
176
     1
290
     0
176
     1
 90
       50
176
     1
 62
   256
176
     0
 40
1.0
176
     0
 90
        2
176
     1
  1
strokes_ogs.tif
176
     1
290
     0
176
     1
 40
1.0
176
     1
 40
1.0
176
     1
  0
VISUALSTYLE
  5
30
102
{ACAD_REACTORS
330
2A
102
}
330
2A
100
AcDbVisualStyle
  2
Wireframe
 70
     5
177
     3
291
     0
 70
    58
 90
        0
176
     1
 90
        2
176
     1
 90
        0
176
     1
 90
        0
176
     1
 40
0.6
176
     1
 40
30.0
176
     1
 62
     7
420
 16777215
176
     1
 90
        1
176
     1
 90
        4
176
     1
 62
     7
176
     1
 62
   257
176
     1
 90
        1
176
     1
 90
        1
176
     1
 40
1.0
176
     1
 90
        0
176
     1
 62
   257
176
     1
 40
1.0
176
     1
 90
        1
176
     1
 90
        6
176
     1
 90
        2
176
     1
 62
     7
176
     1
 90
        3
176
     1
 90
        0
176
     1
 90
        0
176
     1
290
     0
176
     1
 90
        1
176
     1
 40
0.0
176
     1
 90
        0
176
     1
290
     0
176
     1
290
     1
176
     1
290
     1
176
     1
290
     0
176
     1
290
     0
176
     1
290
     0
176
     1
290
     0
176
     1
290
     0
176
     1
290
     0
176
     1
 90
       50
176
     1
 40
0.0
176
     1
 40
1.0
176
     1
 90
        0
176
     1
 62
    18
420
        0
176
     1
 90
       50
176
     1
 90
        3
176
     1
 62
     5
420
      255
176
     1
290
     0
176
     1
 90
       50
176
     1
 90
       50
176
     1
 90
       50
176
     1
290
     0
176
     1
 90
       50
176
     1
 62
   256
176
     0
 40
1.0
176
     0
 90
        2
176
     1
  1
strokes_ogs.tif
176
     1
290
     0
176
     1
 40
1.0
176
     1
 40
1.0
176
     1
  0
VISUALSTYLE
  5
40
102
{ACAD_REACTORS
330
2A
102
}
330
2A
100
AcDbVisualStyle
  2
X-Ray
 70
    25
177
     3
291
     0
 70
    58
 90
        2
176
     1
 90
        2
176
     1
 90
        1
176
     1
 90
        1
176
     1
 40
0.5
176
     1
 40
30.0
176
     1
 62
     7
420
 16777215
176
     1
 90
        1
176
     1
 90
        0
176
     1
 62
     7
176
     1
 62
   257
176
     1
 90
        1
176
     1
 90
        1
176
     1
 40
1.0
176
     1
 90
        8
176
     1
 62
     7
176
     1
 40
1.0
176
     1
 90
        1
176
     1
 90
        6
176
     1
 90
        2
176
     1
 62
     7
176
     1
 90
        3
176
     1
 90
        0
176
     1
 90
        0
176
     1
290
     0
176
     1
 90
       13
176
     1
 40
0.0
176
     1
 90
        0
176
     1
290
     0
176
     1
290
     1
176
     1
290
     1
176
     1
290
     0
176
     1
290
     0
176
     1
290
     0
176
     1
290
     0
176
     1
290
     0
176
     1
290
     0
176
     1
 90
       50
176
     1
 40
0.0
176
     1
 40
1.0
176
     1
 90
        0
176
     1
 62
    18
420
        0
176
     1
 90
       50
176
     1
 90
        3
176
     1
 62
     5
420
      255
176
     1
290
     0
176
     1
 90
       50
176
     1
 90
       50
176
     1
 90
       50
176
     1
290
     0
176
     1
 90
       50
176
     1
 62
   256
176
     0
 40
1.0
176
     0
 90
        2
176
     1
  1
strokes_ogs.tif
176
     1
290
     0
176
     1
 40
1.0
176
     1
 40
1.0
176
     1
  0
DICTIONARYVAR
  5
85
102
{ACAD_REACTORS
330
84
102
}
330
84
100
DictionaryVariables
280
     0
  1
1:1
  0
DICTIONARYVAR
  5
8A
102
{ACAD_REACTORS
330
84
102
}
330
84
100
DictionaryVariables
280
     0
  1
Standard
  0
DICTIONARYVAR
  5
89
102
{ACAD_REACTORS
330
84
102
}
330
84
100
DictionaryVariables
280
     0
  1
Standard
  0
DICTIONARY
  5
86
330
5A
100
AcDbDictionary
280
     1
281
     1
  3
ACAD_ROUNDTRIP_2008_TABLESTYLE_CELLSTYLEMAP
360
87
  0
CELLSTYLEMAP
  5
87
102
{ACAD_REACTORS
330
86
102
}
330
86
100
AcDbCellStyleMap
 90
        3
300
CELLSTYLE
  1
TABLEFORMAT_BEGIN
 90
        5
170
     1
 91
        0
 92
    32768
 62
   257
 93
        1
300
CONTENTFORMAT
  1
CONTENTFORMAT_BEGIN
 90
        0
 91
        0
 92
        4
 93
        0
300

 40
0.0
140
1.0
 94
        5
 62
     0
340
11
144
0.25
309
CONTENTFORMAT_END
171
     1
301
MARGIN
  1
CELLMARGIN_BEGIN
 40
0.06
 40
0.06
 40
0.06
 40
0.06
 40
0.06
 40
0.06
309
CELLMARGIN_END
 94
        6
 95
        1
302
GRIDFORMAT
  1
GRIDFORMAT_BEGIN
 90
        0
 91
        1
 62
     0
 92
       -2
340
14
 93
        0
 40
0.045
309
GRIDFORMAT_END
 95
        2
302
GRIDFORMAT
  1
GRIDFORMAT_BEGIN
 90
        0
 91
        1
 62
     0
 92
       -2
340
14
 93
        0
 40
0.045
309
GRIDFORMAT_END
 95
        4
302
GRIDFORMAT
  1
GRIDFORMAT_BEGIN
 90
        0
 91
        1
 62
     0
 92
       -2
340
14
 93
        0
 40
0.045
309
GRIDFORMAT_END
 95
        8
302
GRIDFORMAT
  1
GRIDFORMAT_BEGIN
 90
        0
 91
        1
 62
     0
 92
       -2
340
14
 93
        0
 40
0.045
309
GRIDFORMAT_END
 95
       16
302
GRIDFORMAT
  1
GRIDFORMAT_BEGIN
 90
        0
 91
        1
 62
     0
 92
       -2
340
14
 93
        0
 40
0.045
309
GRIDFORMAT_END
 95
       32
302
GRIDFORMAT
  1
GRIDFORMAT_BEGIN
 90
        0
 91
        1
 62
     0
 92
       -2
340
14
 93
        0
 40
0.045
309
GRIDFORMAT_END
309
TABLEFORMAT_END
  1
CELLSTYLE_BEGIN
 90
        1
 91
        1
300
_TITLE
309
CELLSTYLE_END
300
CELLSTYLE
  1
TABLEFORMAT_BEGIN
 90
        5
170
     1
 91
        0
 92
        0
 62
   257
 93
        1
300
CONTENTFORMAT
  1
CONTENTFORMAT_BEGIN
 90
        0
 91
        0
 92
        4
 93
        0
300

 40
0.0
140
1.0
 94
        5
 62
     0
340
11
144
0.18
309
CONTENTFORMAT_END
171
     1
301
MARGIN
  1
CELLMARGIN_BEGIN
 40
0.06
 40
0.06
 40
0.06
 40
0.06
 40
0.06
 40
0.06
309
CELLMARGIN_END
 94
        6
 95
        1
302
GRIDFORMAT
  1
GRIDFORMAT_BEGIN
 90
        0
 91
        1
 62
     0
 92
       -2
340
14
 93
        0
 40
0.045
309
GRIDFORMAT_END
 95
        2
302
GRIDFORMAT
  1
GRIDFORMAT_BEGIN
 90
        0
 91
        1
 62
     0
 92
       -2
340
14
 93
        0
 40
0.045
309
GRIDFORMAT_END
 95
        4
302
GRIDFORMAT
  1
GRIDFORMAT_BEGIN
 90
        0
 91
        1
 62
     0
 92
       -2
340
14
 93
        0
 40
0.045
309
GRIDFORMAT_END
 95
        8
302
GRIDFORMAT
  1
GRIDFORMAT_BEGIN
 90
        0
 91
        1
 62
     0
 92
       -2
340
14
 93
        0
 40
0.045
309
GRIDFORMAT_END
 95
       16
302
GRIDFORMAT
  1
GRIDFORMAT_BEGIN
 90
        0
 91
        1
 62
     0
 92
       -2
340
14
 93
        0
 40
0.045
309
GRIDFORMAT_END
 95
       32
302
GRIDFORMAT
  1
GRIDFORMAT_BEGIN
 90
        0
 91
        1
 62
     0
 92
       -2
340
14
 93
        0
 40
0.045
309
GRIDFORMAT_END
309
TABLEFORMAT_END
  1
CELLSTYLE_BEGIN
 90
        2
 91
        1
300
_HEADER
309
CELLSTYLE_END
300
CELLSTYLE
  1
TABLEFORMAT_BEGIN
 90
        5
170
     1
 91
        0
 92
        0
 62
   257
 93
        1
300
CONTENTFORMAT
  1
CONTENTFORMAT_BEGIN
 90
        0
 91
        0
 92
        4
 93
        0
300

 40
0.0
140
1.0
 94
        2
 62
     0
340
11
144
0.18
309
CONTENTFORMAT_END
171
     1
301
MARGIN
  1
CELLMARGIN_BEGIN
 40
0.06
 40
0.06
 40
0.06
 40
0.06
 40
0.06
 40
0.06
309
CELLMARGIN_END
 94
        6
 95
        1
302
GRIDFORMAT
  1
GRIDFORMAT_BEGIN
 90
        0
 91
        1
 62
     0
 92
       -2
340
14
 93
        0
 40
0.045
309
GRIDFORMAT_END
 95
        2
302
GRIDFORMAT
  1
GRIDFORMAT_BEGIN
 90
        0
 91
        1
 62
     0
 92
       -2
340
14
 93
        0
 40
0.045
309
GRIDFORMAT_END
 95
        4
302
GRIDFORMAT
  1
GRIDFORMAT_BEGIN
 90
        0
 91
        1
 62
     0
 92
       -2
340
14
 93
        0
 40
0.045
309
GRIDFORMAT_END
 95
        8
302
GRIDFORMAT
  1
GRIDFORMAT_BEGIN
 90
        0
 91
        1
 62
     0
 92
       -2
340
14
 93
        0
 40
0.045
309
GRIDFORMAT_END
 95
       16
302
GRIDFORMAT
  1
GRIDFORMAT_BEGIN
 90
        0
 91
        1
 62
     0
 92
       -2
340
14
 93
        0
 40
0.045
309
GRIDFORMAT_END
 95
       32
302
GRIDFORMAT
  1
GRIDFORMAT_BEGIN
 90
        0
 91
        1
 62
     0
 92
       -2
340
14
 93
        0
 40
0.045
309
GRIDFORMAT_END
309
TABLEFORMAT_END
  1
CELLSTYLE_BEGIN
 90
        3
 91
        2
300
_DATA
309
CELLSTYLE_END
  0
ENDSEC
  0
EOF
