  0
SECTION
  2
HEADER
  9
$ACADVER
  1
AC1032
  9
$ACADMAINTVER
 90
       55
  9
$DWGCODEPAGE
  3
UNDEFINED
  9
$LASTSAVEDBY
  1
Administrator
  9
$REQUIREDVERSIONS
160
                 0
  9
$INSBASE
 10
0.0
 20
0.0
 30
0.0
  9
$EXTMIN
 10
-19.7017
 20
-19.4574
 30
0.0
  9
$EXTMAX
 10
20.4747
 20
20.719
 30
0.0
  9
$LIMMIN
 10
0.0
 20
0.0
  9
$LIMMAX
 10
12.0
 20
9.0
  9
$ORTHOMODE
 70
     0
  9
$REGENMODE
 70
     1
  9
$FILLMODE
 70
     1
  9
$QTEXTMODE
 70
     0
  9
$MIRRTEXT
 70
     1
  9
$LTSCALE
 40
1.0
  9
$ATTMODE
 70
     1
  9
$TEXTSIZE
 40
0.2
  9
$TRACEWID
 40
0.05
  9
$TEXTSTYLE
  7
Standard
  9
$CLAYER
  8
0
  9
$CELTYPE
  6
ByLayer
  9
$CECOLOR
 62
   256
  9
$CELTSCALE
 40
1.0
  9
$DISPSILH
 70
     0
  9
$DIMSCALE
 40
1.0
  9
$DIMASZ
 40
0.18
  9
$DIMEXO
 40
0.0625
  9
$DIMDLI
 40
0.38
  9
$DIMRND
 40
0.0
  9
$DIMDLE
 40
0.0
  9
$DIMEXE
 40
0.18
  9
$DIMTP
 40
0.0
  9
$DIMTM
 40
0.0
  9
$DIMTXT
 40
0.18
  9
$DIMCEN
 40
0.09
  9
$DIMTSZ
 40
0.0
  9
$DIMTOL
 70
     0
  9
$DIMLIM
 70
     0
  9
$DIMTIH
 70
     1
  9
$DIMTOH
 70
     1
  9
$DIMSE1
 70
     0
  9
$DIMSE2
 70
     0
  9
$DIMTAD
 70
     0
  9
$DIMZIN
 70
     0
  9
$DIMBLK
  1

  9
$DIMASO
 70
     1
  9
$DIMSHO
 70
     1
  9
$DIMPOST
  1

  9
$DIMAPOST
  1

  9
$DIMALT
 70
     0
  9
$DIMALTD
 70
     2
  9
$DIMALTF
 40
25.4
  9
$DIMLFAC
 40
1.0
  9
$DIMTOFL
 70
     0
  9
$DIMTVP
 40
0.0
  9
$DIMTIX
 70
     0
  9
$DIMSOXD
 70
     0
  9
$DIMSAH
 70
     0
  9
$DIMBLK1
  1

  9
$DIMBLK2
  1

  9
$DIMSTYLE
  2
Standard
  9
$DIMCLRD
 70
     0
  9
$DIMCLRE
 70
     0
  9
$DIMCLRT
 70
     0
  9
$DIMTFAC
 40
1.0
  9
$DIMGAP
 40
0.09
  9
$DIMJUST
 70
     0
  9
$DIMSD1
 70
     0
  9
$DIMSD2
 70
     0
  9
$DIMTOLJ
 70
     1
  9
$DIMTZIN
 70
     0
  9
$DIMALTZ
 70
     0
  9
$DIMALTTZ
 70
     0
  9
$DIMUPT
 70
     0
  9
$DIMDEC
 70
     4
  9
$DIMTDEC
 70
     4
  9
$DIMALTU
 70
     2
  9
$DIMALTTD
 70
     2
  9
$DIMTXSTY
  7
Standard
  9
$DIMAUNIT
 70
     0
  9
$DIMADEC
 70
     0
  9
$DIMALTRND
 40
0.0
  9
$DIMAZIN
 70
     0
  9
$DIMDSEP
 70
    46
  9
$DIMATFIT
 70
     3
  9
$DIMFRAC
 70
     0
  9
$DIMLDRBLK
  1

  9
$DIMLUNIT
 70
     2
  9
$DIMLWD
 70
    -2
  9
$DIMLWE
 70
    -2
  9
$DIMTMOVE
 70
     0
  9
$DIMFXL
 40
1.0
  9
$DIMFXLON
 70
     0
  9
$DIMJOGANG
 40
0.7853981633974483
  9
$DIMTFILL
 70
     0
  9
$DIMTFILLCLR
 70
     0
  9
$DIMARCSYM
 70
     0
  9
$DIMLTYPE
  6

  9
$DIMLTEX1
  6

  9
$DIMLTEX2
  6

  9
$DIMTXTDIRECTION
 70
     0
  9
$LUNITS
 70
     2
  9
$LUPREC
 70
     4
  9
$SKETCHINC
 40
0.1
  9
$FILLETRAD
 40
0.0
  9
$AUNITS
 70
     0
  9
$AUPREC
 70
     0
  9
$MENU
  1
.
  9
$ELEVATION
 40
0.0
  9
$PELEVATION
 40
0.0
  9
$THICKNESS
 40
0.0
  9
$LIMCHECK
 70
     0
  9
$CHAMFERA
 40
0.0
  9
$CHAMFERB
 40
0.0
  9
$CHAMFERC
 40
0.0
  9
$CHAMFERD
 40
0.0
  9
$SKPOLY
 70
     0
  9
$TDCREATE
 40
2460397.64913897
  9
$TDUCREATE
 40
2460397.503305636
  9
$TDUPDATE
 40
2460397.649138981
  9
$TDUUPDATE
 40
2460397.503305648
  9
$TDINDWG
 40
0.0000000116
  9
$TDUSRTIMER
 40
0.0000000116
  9
$USRTIMER
 70
     1
  9
$ANGBASE
 50
0.0
  9
$ANGDIR
 70
     0
  9
$PDMODE
 70
     0
  9
$PDSIZE
 40
0.0
  9
$PLINEWID
 40
0.0
  9
$SPLFRAME
 70
     0
  9
$SPLINETYPE
 70
     6
  9
$SPLINESEGS
 70
     8
  9
$HANDSEED
  5
9F
  9
$SURFTAB1
 70
     6
  9
$SURFTAB2
 70
     6
  9
$SURFTYPE
 70
     6
  9
$SURFU
 70
     6
  9
$SURFV
 70
     6
  9
$UCSBASE
  2

  9
$UCSNAME
  2

  9
$UCSORG
 10
0.0
 20
0.0
 30
0.0
  9
$UCSXDIR
 10
1.0
 20
0.0
 30
0.0
  9
$UCSYDIR
 10
0.0
 20
1.0
 30
0.0
  9
$UCSORTHOREF
  2

  9
$UCSORTHOVIEW
 70
     0
  9
$UCSORGTOP
 10
0.0
 20
0.0
 30
0.0
  9
$UCSORGBOTTOM
 10
0.0
 20
0.0
 30
0.0
  9
$UCSORGLEFT
 10
0.0
 20
0.0
 30
0.0
  9
$UCSORGRIGHT
 10
0.0
 20
0.0
 30
0.0
  9
$UCSORGFRONT
 10
0.0
 20
0.0
 30
0.0
  9
$UCSORGBACK
 10
0.0
 20
0.0
 30
0.0
  9
$PUCSBASE
  2

  9
$PUCSNAME
  2

  9
$PUCSORG
 10
0.0
 20
0.0
 30
0.0
  9
$PUCSXDIR
 10
1.0
 20
0.0
 30
0.0
  9
$PUCSYDIR
 10
0.0
 20
1.0
 30
0.0
  9
$PUCSORTHOREF
  2

  9
$PUCSORTHOVIEW
 70
     0
  9
$PUCSORGTOP
 10
0.0
 20
0.0
 30
0.0
  9
$PUCSORGBOTTOM
 10
0.0
 20
0.0
 30
0.0
  9
$PUCSORGLEFT
 10
0.0
 20
0.0
 30
0.0
  9
$PUCSORGRIGHT
 10
0.0
 20
0.0
 30
0.0
  9
$PUCSORGFRONT
 10
0.0
 20
0.0
 30
0.0
  9
$PUCSORGBACK
 10
0.0
 20
0.0
 30
0.0
  9
$USERI1
 70
     0
  9
$USERI2
 70
     0
  9
$USERI3
 70
     0
  9
$USERI4
 70
     0
  9
$USERI5
 70
     0
  9
$USERR1
 40
0.0
  9
$USERR2
 40
0.0
  9
$USERR3
 40
0.0
  9
$USERR4
 40
0.0
  9
$USERR5
 40
0.0
  9
$WORLDVIEW
 70
     1
  9
$SHADEDGE
 70
     3
  9
$SHADEDIF
 70
    70
  9
$TILEMODE
 70
     1
  9
$MAXACTVP
 70
    64
  9
$PINSBASE
 10
0.0
 20
0.0
 30
0.0
  9
$PLIMCHECK
 70
     0
  9
$PEXTMIN
 10
1.000000000000000E+20
 20
1.000000000000000E+20
 30
1.000000000000000E+20
  9
$PEXTMAX
 10
-1.000000000000000E+20
 20
-1.000000000000000E+20
 30
-1.000000000000000E+20
  9
$PLIMMIN
 10
0.0
 20
0.0
  9
$PLIMMAX
 10
12.0
 20
9.0
  9
$UNITMODE
 70
     0
  9
$VISRETAIN
 70
     1
  9
$PLINEGEN
 70
     0
  9
$PSLTSCALE
 70
     1
  9
$TREEDEPTH
 70
  3020
  9
$CMLSTYLE
  2
Standard
  9
$CMLJUST
 70
     0
  9
$CMLSCALE
 40
1.0
  9
$PROXYGRAPHICS
 70
     1
  9
$MEASUREMENT
 70
     0
  9
$CELWEIGHT
370
    -1
  9
$ENDCAPS
280
     0
  9
$JOINSTYLE
280
     0
  9
$LWDISPLAY
290
     0
  9
$INSUNITS
 70
     4
  9
$HYPERLINKBASE
  1

  9
$STYLESHEET
  1

  9
$XEDIT
290
     1
  9
$CEPSNTYPE
380
     0
  9
$PSTYLEMODE
290
     1
  9
$FINGERPRINTGUID
  2
{f8fd7266-c8f2-42aa-bbfb-d810734972d6}
  9
$VERSIONGUID
  2
{FAEB1C32-E019-11D5-929B-00C0DF256EC4}
  9
$EXTNAMES
290
     1
  9
$PSVPSCALE
 40
0.0
  9
$OLESTARTUP
290
     0
  9
$SORTENTS
280
   127
  9
$INDEXCTL
280
     0
  9
$HIDETEXT
280
     1
  9
$XCLIPFRAME
280
     2
  9
$HALOGAP
280
     0
  9
$OBSCOLOR
 70
   257
  9
$OBSLTYPE
280
     0
  9
$INTERSECTIONDISPLAY
280
     0
  9
$INTERSECTIONCOLOR
 70
   257
  9
$DIMASSOC
280
     2
  9
$PROJECTNAME
  1

  9
$CAMERADISPLAY
290
     0
  9
$LENSLENGTH
 40
50.0
  9
$CAMERAHEIGHT
 40
0.0
  9
$STEPSPERSEC
 40
2.0
  9
$STEPSIZE
 40
6.0
  9
$3DDWFPREC
 40
2.0
  9
$PSOLWIDTH
 40
0.25
  9
$PSOLHEIGHT
 40
4.0
  9
$LOFTANG1
 40
1.570796326794897
  9
$LOFTANG2
 40
1.570796326794897
  9
$LOFTMAG1
 40
0.0
  9
$LOFTMAG2
 40
0.0
  9
$LOFTPARAM
 70
     7
  9
$LOFTNORMALS
280
     1
  9
$LATITUDE
 40
37.795
  9
$LONGITUDE
 40
-122.394
  9
$NORTHDIRECTION
 40
0.0
  9
$TIMEZONE
 70
 -8000
  9
$LIGHTGLYPHDISPLAY
280
     1
  9
$TILEMODELIGHTSYNCH
280
     1
  9
$CMATERIAL
347
44
  9
$SOLIDHIST
280
     0
  9
$SHOWHIST
280
     1
  9
$DWFFRAME
280
     2
  9
$DGNFRAME
280
     2
  9
$REALWORLDSCALE
290
     1
  9
$INTERFERECOLOR
 62
   256
  9
$CSHADOW
280
     0
  9
$SHADOWPLANELOCATION
 40
0.0
  0
ENDSEC
  0
SECTION
  2
CLASSES
  0
CLASS
  1
ACDBDICTIONARYWDFLT
  2
AcDbDictionaryWithDefault
  3
ObjectDBX Classes
 90
        0
 91
        3
280
     0
281
     0
  0
CLASS
  1
VISUALSTYLE
  2
AcDbVisualStyle
  3
ObjectDBX Classes
 90
     4095
 91
        3
280
     0
281
     0
  0
CLASS
  1
MATERIAL
  2
AcDbMaterial
  3
ObjectDBX Classes
 90
     1153
 91
        3
280
     0
281
     0
  0
CLASS
  1
SCALE
  2
AcDbScale
  3
ObjectDBX Classes
 90
     1153
 91
        3
280
     0
281
     0
  0
CLASS
  1
TABLESTYLE
  2
AcDbTableStyle
  3
ObjectDBX Classes
 90
     4095
 91
        3
280
     0
281
     0
  0
CLASS
  1
MLEADERSTYLE
  2
AcDbMLeaderStyle
  3
ACDB_MLEADERSTYLE_CLASS
 90
     4095
 91
        3
280
     0
281
     0
  0
CLASS
  1
SUN
  2
AcDbSun
  3
SCENEOE
 90
     1153
 91
        3
280
     0
281
     0
  0
CLASS
  1
DICTIONARYVAR
  2
AcDbDictionaryVar
  3
ObjectDBX Classes
 90
        0
 91
        3
280
     0
281
     0
  0
CLASS
  1
CELLSTYLEMAP
  2
AcDbCellStyleMap
  3
ObjectDBX Classes
 90
     1152
 91
        3
280
     0
281
     0
  0
ENDSEC
  0
SECTION
  2
TABLES
  0
TABLE
  2
VPORT
  5
8
330
0
100
AcDbSymbolTable
 70
     1
  0
VPORT
  5
29
330
8
100
AcDbSymbolTableRecord
100
AcDbViewportTableRecord
  2
*Active
 70
     0
 10
0.0
 20
0.0
 11
1.0
 21
1.0
 12
10.42990654205607
 22
4.5
 13
0.0
 23
0.0
 14
0.5
 24
0.5
 15
0.5
 25
0.5
 16
0.0
 26
0.0
 36
1.0
 17
0.0
 27
0.0
 37
0.0
 40
9.0
 41
1.972972972850329
 42
50.0
 43
0.0
 44
0.0
 50
0.0
 51
0.0
 71
     0
 72
   100
 73
     1
 74
     3
 75
     0
 76
     0
 77
     0
 78
     0
281
     0
 65
     1
110
0.0
120
0.0
130
0.0
111
1.0
121
0.0
131
0.0
112
0.0
122
1.0
132
0.0
 79
     0
146
0.0
348
2F
 60
     3
 61
     5
292
     1
282
     1
141
0.0
142
0.0
 63
   250
361
5D
  0
ENDTAB
  0
TABLE
  2
LTYPE
  5
5
330
0
100
AcDbSymbolTable
 70
     1
  0
LTYPE
  5
14
330
5
100
AcDbSymbolTableRecord
100
AcDbLinetypeTableRecord
  2
ByBlock
 70
     0
  3

 72
    65
 73
     0
 40
0.0
  0
LTYPE
  5
15
330
5
100
AcDbSymbolTableRecord
100
AcDbLinetypeTableRecord
  2
ByLayer
 70
     0
  3

 72
    65
 73
     0
 40
0.0
  0
LTYPE
  5
16
330
5
100
AcDbSymbolTableRecord
100
AcDbLinetypeTableRecord
  2
Continuous
 70
     0
  3
Solid line
 72
    65
 73
     0
 40
0.0
  0
ENDTAB
  0
TABLE
  2
LAYER
  5
2
330
0
100
AcDbSymbolTable
 70
     2
  0
LAYER
  5
10
330
2
100
AcDbSymbolTableRecord
100
AcDbLayerTableRecord
  2
0
 70
     0
 62
     7
  6
Continuous
370
    -3
390
F
347
46
348
0
  0
LAYER
  5
5F
330
2
100
AcDbSymbolTableRecord
100
AcDbLayerTableRecord
  2
Layer 1
 70
     0
 62
     7
  6
Continuous
370
    -3
390
F
347
46
348
0
  0
ENDTAB
  0
TABLE
  2
STYLE
  5
3
330
0
100
AcDbSymbolTable
 70
     1
  0
STYLE
  5
11
330
3
100
AcDbSymbolTableRecord
100
AcDbTextStyleTableRecord
  2
Standard
 70
     0
 40
0.0
 41
1.0
 50
0.0
 71
     0
 42
0.2
  3
txt
  4

  0
ENDTAB
  0
TABLE
  2
VIEW
  5
6
330
0
100
AcDbSymbolTable
 70
     0
  0
ENDTAB
  0
TABLE
  2
UCS
  5
7
330
0
100
AcDbSymbolTable
 70
     0
  0
ENDTAB
  0
TABLE
  2
APPID
  5
9
330
0
100
AcDbSymbolTable
 70
     2
  0
APPID
  5
12
330
9
100
AcDbSymbolTableRecord
100
AcDbRegAppTableRecord
  2
ACAD
 70
     0
  0
APPID
  5
5E
330
9
100
AcDbSymbolTableRecord
100
AcDbRegAppTableRecord
  2
ODA
 70
     0
  0
ENDTAB
  0
TABLE
  2
DIMSTYLE
  5
A
330
0
100
AcDbSymbolTable
 70
     1
100
AcDbDimStyleTable
  0
DIMSTYLE
105
27
330
A
100
AcDbSymbolTableRecord
100
AcDbDimStyleTableRecord
  2
Standard
 70
     0
178
     0
340
11
  0
ENDTAB
  0
TABLE
  2
BLOCK_RECORD
  5
1
330
0
100
AcDbSymbolTable
 70
     1
  0
BLOCK_RECORD
  5
1F
330
1
100
AcDbSymbolTableRecord
100
AcDbBlockTableRecord
  2
*Model_Space
340
22
 70
     0
280
     1
281
     0
  0
BLOCK_RECORD
  5
1B
330
1
100
AcDbSymbolTableRecord
100
AcDbBlockTableRecord
  2
*Paper_Space
340
1E
 70
     0
280
     1
281
     0
  0
BLOCK_RECORD
  5
23
330
1
100
AcDbSymbolTableRecord
100
AcDbBlockTableRecord
  2
*Paper_Space0
340
26
 70
     0
280
     1
281
     0
  0
ENDTAB
  0
ENDSEC
  0
SECTION
  2
BLOCKS
  0
BLOCK
  5
20
330
1F
100
AcDbEntity
  8
0
100
AcDbBlockBegin
  2
*Model_Space
 70
     0
 10
0.0
 20
0.0
 30
0.0
  3
*Model_Space
  1

  0
ENDBLK
  5
21
330
1F
100
AcDbEntity
  8
0
100
AcDbBlockEnd
  0
BLOCK
  5
1C
330
1B
100
AcDbEntity
 67
     1
  8
0
100
AcDbBlockBegin
  2
*Paper_Space
 70
     0
 10
0.0
 20
0.0
 30
0.0
  3
*Paper_Space
  1

  0
ENDBLK
  5
1D
330
1B
100
AcDbEntity
 67
     1
  8
0
100
AcDbBlockEnd
  0
BLOCK
  5
24
330
23
100
AcDbEntity
  8
0
100
AcDbBlockBegin
  2
*Paper_Space0
 70
     0
 10
0.0
 20
0.0
 30
0.0
  3
*Paper_Space0
  1

  0
ENDBLK
  5
25
330
23
100
AcDbEntity
  8
0
100
AcDbBlockEnd
  0
ENDSEC
  0
SECTION
  2
ENTITIES
  0
SPLINE
  5
60
330
1F
100
AcDbEntity
  8
Layer 1
 62
   230
100
AcDbSpline
210
0.0
220
0.0
230
1.0
 70
    11
 71
     3
 72
    62
 73
    58
 74
     0
 42
0.0000000001
 43
0.0000000001
 40
0.0
 40
0.0
 40
0.0
 40
0.0
 40
0.0526315789473684
 40
0.0526315789473684
 40
0.0526315789473684
 40
0.1052631578947368
 40
0.1052631578947368
 40
0.1052631578947368
 40
0.1578947368421053
 40
0.1578947368421053
 40
0.1578947368421053
 40
0.2105263157894737
 40
0.2105263157894737
 40
0.2105263157894737
 40
0.2631578947368421
 40
0.2631578947368421
 40
0.2631578947368421
 40
0.3157894736842105
 40
0.3157894736842105
 40
0.3157894736842105
 40
0.3684210526315789
 40
0.3684210526315789
 40
0.3684210526315789
 40
0.4210526315789473
 40
0.4210526315789473
 40
0.4210526315789473
 40
0.4736842105263158
 40
0.4736842105263158
 40
0.4736842105263158
 40
0.5263157894736842
 40
0.5263157894736842
 40
0.5263157894736842
 40
0.5789473684210527
 40
0.5789473684210527
 40
0.5789473684210527
 40
0.631578947368421
 40
0.631578947368421
 40
0.631578947368421
 40
0.6842105263157894
 40
0.6842105263157894
 40
0.6842105263157894
 40
0.7368421052631579
 40
0.7368421052631579
 40
0.7368421052631579
 40
0.7894736842105263
 40
0.7894736842105263
 40
0.7894736842105263
 40
0.8421052631578947
 40
0.8421052631578947
 40
0.8421052631578947
 40
0.894736842105263
 40
0.894736842105263
 40
0.894736842105263
 40
0.9473684210526315
 40
0.9473684210526315
 40
0.9473684210526315
 40
1.0
 40
1.0
 40
1.0
 40
1.0
 10
7.436
 20
10.3786
 30
0.0
 10
7.436
 20
10.3786
 30
0.0
 10
9.429
 20
10.3786
 30
0.0
 10
9.429
 20
10.3786
 30
0.0
 10
9.429
 20
10.3786
 30
0.0
 10
12.3449
 20
5.6576
 30
0.0
 10
12.3449
 20
5.6576
 30
0.0
 10
12.3449
 20
5.6576
 30
0.0
 10
0.6115
 20
-8.0888
 30
0.0
 10
0.6115
 20
-8.0888
 30
0.0
 10
0.6115
 20
-8.0888
 30
0.0
 10
-5.498
 20
-2.9515
 30
0.0
 10
-0.152
 20
2.8807
 30
0.0
 10
-0.152
 20
2.8807
 30
0.0
 10
4.6216
 20
8.2001
 30
0.0
 10
4.5037
 20
9.3086
 30
0.0
 10
4.5037
 20
9.3086
 30
0.0
 10
-7.3878
 20
9.3466
 30
0.0
 10
-7.3878
 20
9.3466
 30
0.0
 10
-7.3878
 20
9.3466
 30
0.0
 10
-8.8516
 20
6.9325
 30
0.0
 10
-8.8516
 20
6.9325
 30
0.0
 10
-8.8516
 20
6.9325
 30
0.0
 10
-9.8278
 20
5.5715
 30
0.0
 10
-7.4138
 20
5.6996
 30
0.0
 10
-7.4138
 20
5.6996
 30
0.0
 10
-9.4422
 20
5.5969
 30
0.0
 10
-8.6208
 20
4.621
 30
0.0
 10
-8.6208
 20
4.621
 30
0.0
 10
-4.9995
 20
0.3582
 30
0.0
 10
-4.9995
 20
0.3582
 30
0.0
 10
-4.9995
 20
0.3582
 30
0.0
 10
-3.0103
 20
3.5946
 30
0.0
 10
-0.3255
 20
4.7237
 30
0.0
 10
-0.3255
 20
4.7237
 30
0.0
 10
-4.2154
 20
0.7922
 30
0.0
 10
-3.9012
 20
-2.6736
 30
0.0
 10
-3.9012
 20
-2.6736
 30
0.0
 10
-11.1215
 20
5.7966
 30
0.0
 10
-11.1215
 20
5.7966
 30
0.0
 10
-11.1215
 20
5.7966
 30
0.0
 10
-8.0669
 20
10.3786
 30
0.0
 10
-8.0669
 20
10.3786
 30
0.0
 10
-8.0669
 20
10.3786
 30
0.0
 10
4.352
 20
10.3786
 30
0.0
 10
4.352
 20
10.3786
 30
0.0
 10
4.0859
 20
11.1121
 30
0.0
 10
3.3553
 20
11.7441
 30
0.0
 10
1.3694
 20
10.3786
 30
0.0
 10
1.3694
 20
10.3786
 30
0.0
 10
1.0484
 20
10.3786
 30
0.0
 10
1.0484
 20
10.3786
 30
0.0
 10
1.0484
 20
10.3786
 30
0.0
 10
4.4511
 20
14.4465
 30
0.0
 10
6.8395
 20
11.5368
 30
0.0
 10
6.8395
 20
11.5368
 30
0.0
 10
7.2505
 20
11.1517
 30
0.0
 10
7.436
 20
10.3786
 30
0.0
  0
SPLINE
  5
61
330
1F
100
AcDbEntity
  8
Layer 1
 62
   230
100
AcDbSpline
210
0.0
220
0.0
230
1.0
 70
    11
 71
     3
 72
    29
 73
    25
 74
     0
 42
0.0000000001
 43
0.0000000001
 40
0.0
 40
0.0
 40
0.0
 40
0.0
 40
0.125
 40
0.125
 40
0.125
 40
0.25
 40
0.25
 40
0.25
 40
0.375
 40
0.375
 40
0.375
 40
0.5
 40
0.5
 40
0.5
 40
0.625
 40
0.625
 40
0.625
 40
0.75
 40
0.75
 40
0.75
 40
0.875
 40
0.875
 40
0.875
 40
1.0
 40
1.0
 40
1.0
 40
1.0
 10
7.5128
 20
9.299
 30
0.0
 10
7.4268
 20
8.2286
 30
0.0
 10
6.8722
 20
6.773
 30
0.0
 10
5.2216
 20
4.9294
 30
0.0
 10
5.2216
 20
4.9294
 30
0.0
 10
1.2921
 20
0.5634
 30
0.0
 10
1.2921
 20
0.5634
 30
0.0
 10
1.2921
 20
0.5634
 30
0.0
 10
-2.2259
 20
-2.9803
 30
0.0
 10
0.7274
 20
-6.1904
 30
0.0
 10
0.7274
 20
-6.1904
 30
0.0
 10
9.6644
 20
4.1844
 30
0.0
 10
9.6644
 20
4.1844
 30
0.0
 10
9.6644
 20
4.1844
 30
0.0
 10
11.3402
 20
5.4765
 30
0.0
 10
8.6885
 20
5.6996
 30
0.0
 10
8.6885
 20
5.6996
 30
0.0
 10
11.359
 20
5.3657
 30
0.0
 10
10.178
 20
6.9837
 30
0.0
 10
10.178
 20
6.9837
 30
0.0
 10
8.7909
 20
9.295
 30
0.0
 10
8.7909
 20
9.295
 30
0.0
 10
8.7909
 20
9.295
 30
0.0
 10
7.5128
 20
9.299
 30
0.0
 10
7.5128
 20
9.299
 30
0.0
  0
SPLINE
  5
62
330
1F
100
AcDbEntity
  8
Layer 1
 62
   230
100
AcDbSpline
210
0.0
220
0.0
230
1.0
 70
    11
 71
     3
 72
   104
 73
   100
 74
     0
 42
0.0000000001
 43
0.0000000001
 40
0.0
 40
0.0
 40
0.0
 40
0.0
 40
0.0303030303030303
 40
0.0303030303030303
 40
0.0303030303030303
 40
0.0606060606060606
 40
0.0606060606060606
 40
0.0606060606060606
 40
0.0909090909090909
 40
0.0909090909090909
 40
0.0909090909090909
 40
0.1212121212121212
 40
0.1212121212121212
 40
0.1212121212121212
 40
0.1515151515151515
 40
0.1515151515151515
 40
0.1515151515151515
 40
0.1818181818181818
 40
0.1818181818181818
 40
0.1818181818181818
 40
0.2121212121212121
 40
0.2121212121212121
 40
0.2121212121212121
 40
0.2424242424242424
 40
0.2424242424242424
 40
0.2424242424242424
 40
0.2727272727272727
 40
0.2727272727272727
 40
0.2727272727272727
 40
0.303030303030303
 40
0.303030303030303
 40
0.303030303030303
 40
0.3333333333333334
 40
0.3333333333333334
 40
0.3333333333333334
 40
0.3636363636363636
 40
0.3636363636363636
 40
0.3636363636363636
 40
0.3939393939393939
 40
0.3939393939393939
 40
0.3939393939393939
 40
0.4242424242424243
 40
0.4242424242424243
 40
0.4242424242424243
 40
0.4545454545454546
 40
0.4545454545454546
 40
0.4545454545454546
 40
0.4848484848484849
 40
0.4848484848484849
 40
0.4848484848484849
 40
0.5151515151515151
 40
0.5151515151515151
 40
0.5151515151515151
 40
0.5454545454545454
 40
0.5454545454545454
 40
0.5454545454545454
 40
0.5757575757575758
 40
0.5757575757575758
 40
0.5757575757575758
 40
0.6060606060606061
 40
0.6060606060606061
 40
0.6060606060606061
 40
0.6363636363636364
 40
0.6363636363636364
 40
0.6363636363636364
 40
0.6666666666666667
 40
0.6666666666666667
 40
0.6666666666666667
 40
0.696969696969697
 40
0.696969696969697
 40
0.696969696969697
 40
0.7272727272727273
 40
0.7272727272727273
 40
0.7272727272727273
 40
0.7575757575757576
 40
0.7575757575757576
 40
0.7575757575757576
 40
0.7878787878787878
 40
0.7878787878787878
 40
0.7878787878787878
 40
0.8181818181818182
 40
0.8181818181818182
 40
0.8181818181818182
 40
0.8484848484848485
 40
0.8484848484848485
 40
0.8484848484848485
 40
0.8787878787878788
 40
0.8787878787878788
 40
0.8787878787878788
 40
0.9090909090909092
 40
0.9090909090909092
 40
0.9090909090909092
 40
0.9393939393939394
 40
0.9393939393939394
 40
0.9393939393939394
 40
0.9696969696969697
 40
0.9696969696969697
 40
0.9696969696969697
 40
1.0
 40
1.0
 40
1.0
 40
1.0
 10
-7.7987
 20
11.1184
 30
0.0
 10
-7.7987
 20
11.1184
 30
0.0
 10
-0.1972
 20
11.1184
 30
0.0
 10
-0.1972
 20
11.1184
 30
0.0
 10
-0.1972
 20
11.1184
 30
0.0
 10
1.0786
 20
15.0383
 30
0.0
 10
1.0786
 20
15.0383
 30
0.0
 10
1.1224
 20
15.0277
 30
0.0
 10
1.1682
 20
15.0219
 30
0.0
 10
1.2153
 20
15.0219
 30
0.0
 10
1.5343
 20
15.0219
 30
0.0
 10
1.7932
 20
15.2804
 30
0.0
 10
1.7932
 20
15.5998
 30
0.0
 10
1.7932
 20
15.9188
 30
0.0
 10
1.5343
 20
16.1775
 30
0.0
 10
1.2153
 20
16.1775
 30
0.0
 10
0.8961
 20
16.1775
 30
0.0
 10
0.6372
 20
15.9188
 30
0.0
 10
0.6372
 20
15.5998
 30
0.0
 10
0.6372
 20
15.3929
 30
0.0
 10
0.746
 20
15.2114
 30
0.0
 10
0.9094
 20
15.1094
 30
0.0
 10
0.9094
 20
15.1094
 30
0.0
 10
-0.7878
 20
13.1729
 30
0.0
 10
-0.7878
 20
13.1729
 30
0.0
 10
-0.7878
 20
13.1729
 30
0.0
 10
-0.8088
 20
16.2337
 30
0.0
 10
-0.8088
 20
16.2337
 30
0.0
 10
-0.4644
 20
16.2743
 30
0.0
 10
-0.1972
 20
16.567
 30
0.0
 10
-0.1972
 20
16.9222
 30
0.0
 10
-0.1972
 20
17.3051
 30
0.0
 10
-0.5077
 20
17.6157
 30
0.0
 10
-0.8907
 20
17.6157
 30
0.0
 10
-1.2736
 20
17.6157
 30
0.0
 10
-1.584
 20
17.3051
 30
0.0
 10
-1.584
 20
16.9222
 30
0.0
 10
-1.584
 20
16.6516
 30
0.0
 10
-1.4288
 20
16.4172
 30
0.0
 10
-1.2026
 20
16.303
 30
0.0
 10
-1.2026
 20
16.303
 30
0.0
 10
-2.6368
 20
14.0203
 30
0.0
 10
-2.6368
 20
14.0203
 30
0.0
 10
-2.6368
 20
14.0203
 30
0.0
 10
-3.7637
 20
17.6348
 30
0.0
 10
-3.7637
 20
17.6348
 30
0.0
 10
-3.4271
 20
17.7119
 30
0.0
 10
-3.1762
 20
18.0134
 30
0.0
 10
-3.1762
 20
18.3732
 30
0.0
 10
-3.1762
 20
18.7915
 30
0.0
 10
-3.5152
 20
19.1308
 30
0.0
 10
-3.9338
 20
19.1308
 30
0.0
 10
-4.3521
 20
19.1308
 30
0.0
 10
-4.6914
 20
18.7915
 30
0.0
 10
-4.6914
 20
18.3732
 30
0.0
 10
-4.6914
 20
18.0469
 30
0.0
 10
-4.485
 20
17.7689
 30
0.0
 10
-4.1958
 20
17.6622
 30
0.0
 10
-4.1958
 20
17.6622
 30
0.0
 10
-5.2049
 20
13.969
 30
0.0
 10
-5.2049
 20
13.969
 30
0.0
 10
-5.2049
 20
13.969
 30
0.0
 10
-6.7211
 20
16.3139
 30
0.0
 10
-6.7211
 20
16.3139
 30
0.0
 10
-6.5063
 20
16.4317
 30
0.0
 10
-6.3606
 20
16.6599
 30
0.0
 10
-6.3606
 20
16.9222
 30
0.0
 10
-6.3606
 20
17.3051
 30
0.0
 10
-6.671
 20
17.6157
 30
0.0
 10
-7.0539
 20
17.6157
 30
0.0
 10
-7.4369
 20
17.6157
 30
0.0
 10
-7.7474
 20
17.3051
 30
0.0
 10
-7.7474
 20
16.9222
 30
0.0
 10
-7.7474
 20
16.5637
 30
0.0
 10
-7.4753
 20
16.2687
 30
0.0
 10
-7.1262
 20
16.2326
 30
0.0
 10
-7.1262
 20
16.2326
 30
0.0
 10
-7.1053
 20
13.1729
 30
0.0
 10
-7.1053
 20
13.1729
 30
0.0
 10
-7.1053
 20
13.1729
 30
0.0
 10
-8.918
 20
15.1561
 30
0.0
 10
-8.918
 20
15.1561
 30
0.0
 10
-8.7913
 20
15.2621
 30
0.0
 10
-8.7105
 20
15.4214
 30
0.0
 10
-8.7105
 20
15.5998
 30
0.0
 10
-8.7105
 20
15.9188
 30
0.0
 10
-8.9691
 20
16.1775
 30
0.0
 10
-9.2883
 20
16.1775
 30
0.0
 10
-9.6073
 20
16.1775
 30
0.0
 10
-9.8662
 20
15.9188
 30
0.0
 10
-9.8662
 20
15.5998
 30
0.0
 10
-9.8662
 20
15.2804
 30
0.0
 10
-9.6073
 20
15.0219
 30
0.0
 10
-9.2883
 20
15.0219
 30
0.0
 10
-9.2284
 20
15.0219
 30
0.0
 10
-9.1705
 20
15.0311
 30
0.0
 10
-9.1162
 20
15.048
 30
0.0
 10
-9.1162
 20
15.048
 30
0.0
 10
-7.7987
 20
11.1184
 30
0.0
 10
-7.7987
 20
11.1184
 30
0.0
  0
SPLINE
  5
63
330
1F
100
AcDbEntity
  8
Layer 1
 62
   230
100
AcDbSpline
210
0.0
220
0.0
230
1.0
 70
    11
 71
     3
 72
    41
 73
    37
 74
     0
 42
0.0000000001
 43
0.0000000001
 40
0.0
 40
0.0
 40
0.0
 40
0.0
 40
0.0833333333333333
 40
0.0833333333333333
 40
0.0833333333333333
 40
0.1666666666666667
 40
0.1666666666666667
 40
0.1666666666666667
 40
0.25
 40
0.25
 40
0.25
 40
0.3333333333333333
 40
0.3333333333333333
 40
0.3333333333333333
 40
0.4166666666666666
 40
0.4166666666666666
 40
0.4166666666666666
 40
0.5
 40
0.5
 40
0.5
 40
0.5833333333333333
 40
0.5833333333333333
 40
0.5833333333333333
 40
0.6666666666666666
 40
0.6666666666666666
 40
0.6666666666666666
 40
0.75
 40
0.75
 40
0.75
 40
0.8333333333333333
 40
0.8333333333333333
 40
0.8333333333333333
 40
0.9166666666666666
 40
0.9166666666666666
 40
0.9166666666666666
 40
1.0
 40
1.0
 40
1.0
 40
1.0
 10
-13.2209
 20
-17.281
 30
0.0
 10
-13.2209
 20
-17.281
 30
0.0
 10
-14.297
 20
-17.281
 30
0.0
 10
-14.297
 20
-17.281
 30
0.0
 10
-14.4427
 20
-17.281
 30
0.0
 10
-14.5749
 20
-17.2218
 30
0.0
 10
-14.6706
 20
-17.1261
 30
0.0
 10
-14.7663
 20
-17.0307
 30
0.0
 10
-14.8255
 20
-16.8984
 30
0.0
 10
-14.8255
 20
-16.7525
 30
0.0
 10
-14.8255
 20
-16.7525
 30
0.0
 10
-14.8255
 20
-14.1343
 30
0.0
 10
-14.8255
 20
-14.1343
 30
0.0
 10
-14.8255
 20
-13.9885
 30
0.0
 10
-14.7663
 20
-13.8563
 30
0.0
 10
-14.6707
 20
-13.7607
 30
0.0
 10
-14.5751
 20
-13.6647
 30
0.0
 10
-14.443
 20
-13.6055
 30
0.0
 10
-14.297
 20
-13.6055
 30
0.0
 10
-14.297
 20
-13.6055
 30
0.0
 10
-13.2209
 20
-13.6055
 30
0.0
 10
-13.2209
 20
-13.6055
 30
0.0
 10
-13.0749
 20
-13.6055
 30
0.0
 10
-12.9429
 20
-13.6647
 30
0.0
 10
-12.8472
 20
-13.7603
 30
0.0
 10
-12.7516
 20
-13.8563
 30
0.0
 10
-12.6925
 20
-13.9885
 30
0.0
 10
-12.6925
 20
-14.1343
 30
0.0
 10
-12.6925
 20
-14.1343
 30
0.0
 10
-12.6925
 20
-16.7525
 30
0.0
 10
-12.6925
 20
-16.7525
 30
0.0
 10
-12.6925
 20
-16.8984
 30
0.0
 10
-12.7516
 20
-17.0307
 30
0.0
 10
-12.8472
 20
-17.1263
 30
0.0
 10
-12.9431
 20
-17.2218
 30
0.0
 10
-13.0753
 20
-17.281
 30
0.0
 10
-13.2209
 20
-17.281
 30
0.0
  0
SPLINE
  5
64
330
1F
100
AcDbEntity
  8
Layer 1
 62
   230
100
AcDbSpline
210
0.0
220
0.0
230
1.0
 70
    11
 71
     3
 72
    23
 73
    19
 74
     0
 42
0.0000000001
 43
0.0000000001
 40
0.0
 40
0.0
 40
0.0
 40
0.0
 40
0.1666666666666667
 40
0.1666666666666667
 40
0.1666666666666667
 40
0.3333333333333333
 40
0.3333333333333333
 40
0.3333333333333333
 40
0.5
 40
0.5
 40
0.5
 40
0.6666666666666666
 40
0.6666666666666666
 40
0.6666666666666666
 40
0.8333333333333333
 40
0.8333333333333333
 40
0.8333333333333333
 40
1.0
 40
1.0
 40
1.0
 40
1.0
 10
-14.297
 20
-17.1383
 30
0.0
 10
-14.297
 20
-17.1383
 30
0.0
 10
-13.8919
 20
-17.1383
 30
0.0
 10
-13.8919
 20
-17.1383
 30
0.0
 10
-13.9117
 20
-17.1094
 30
0.0
 10
-13.9234
 20
-17.0743
 30
0.0
 10
-13.9234
 20
-17.0367
 30
0.0
 10
-13.9234
 20
-16.9949
 30
0.0
 10
-13.9089
 20
-16.9561
 30
0.0
 10
-13.8848
 20
-16.9256
 30
0.0
 10
-13.8848
 20
-16.9256
 30
0.0
 10
-14.6418
 20
-16.9256
 30
0.0
 10
-14.6418
 20
-16.9256
 30
0.0
 10
-14.6232
 20
-16.9626
 30
0.0
 10
-14.5988
 20
-16.9963
 30
0.0
 10
-14.5698
 20
-17.0253
 30
0.0
 10
-14.5002
 20
-17.0952
 30
0.0
 10
-14.4037
 20
-17.1383
 30
0.0
 10
-14.297
 20
-17.1383
 30
0.0
  0
SPLINE
  5
65
330
1F
100
AcDbEntity
  8
Layer 1
 62
   230
100
AcDbSpline
210
0.0
220
0.0
230
1.0
 70
    11
 71
     3
 72
    23
 73
    19
 74
     0
 42
0.0000000001
 43
0.0000000001
 40
0.0
 40
0.0
 40
0.0
 40
0.0
 40
0.1666666666666667
 40
0.1666666666666667
 40
0.1666666666666667
 40
0.3333333333333333
 40
0.3333333333333333
 40
0.3333333333333333
 40
0.5
 40
0.5
 40
0.5
 40
0.6666666666666666
 40
0.6666666666666666
 40
0.6666666666666666
 40
0.8333333333333333
 40
0.8333333333333333
 40
0.8333333333333333
 40
1.0
 40
1.0
 40
1.0
 40
1.0
 10
-13.6047
 20
-17.1383
 30
0.0
 10
-13.6047
 20
-17.1383
 30
0.0
 10
-13.2209
 20
-17.1383
 30
0.0
 10
-13.2209
 20
-17.1383
 30
0.0
 10
-13.1143
 20
-17.1383
 30
0.0
 10
-13.0177
 20
-17.0952
 30
0.0
 10
-12.9482
 20
-17.0257
 30
0.0
 10
-12.9192
 20
-16.9963
 30
0.0
 10
-12.8947
 20
-16.9626
 30
0.0
 10
-12.8761
 20
-16.9256
 30
0.0
 10
-12.8761
 20
-16.9256
 30
0.0
 10
-13.6119
 20
-16.9256
 30
0.0
 10
-13.6119
 20
-16.9256
 30
0.0
 10
-13.5878
 20
-16.9562
 30
0.0
 10
-13.5733
 20
-16.9949
 30
0.0
 10
-13.5733
 20
-17.0367
 30
0.0
 10
-13.5733
 20
-17.0743
 30
0.0
 10
-13.5849
 20
-17.1094
 30
0.0
 10
-13.6047
 20
-17.1383
 30
0.0
  0
SPLINE
  5
66
330
1F
100
AcDbEntity
  8
Layer 1
 62
   230
100
AcDbSpline
210
0.0
220
0.0
230
1.0
 70
    11
 71
     3
 72
    23
 73
    19
 74
     0
 42
0.0000000001
 43
0.0000000001
 40
0.0
 40
0.0
 40
0.0
 40
0.0
 40
0.1666666666666667
 40
0.1666666666666667
 40
0.1666666666666667
 40
0.3333333333333333
 40
0.3333333333333333
 40
0.3333333333333333
 40
0.5
 40
0.5
 40
0.5
 40
0.6666666666666666
 40
0.6666666666666666
 40
0.6666666666666666
 40
0.8333333333333333
 40
0.8333333333333333
 40
0.8333333333333333
 40
1.0
 40
1.0
 40
1.0
 40
1.0
 10
-14.5699
 20
-13.8612
 30
0.0
 10
-14.6289
 20
-13.9202
 30
0.0
 10
-14.6689
 20
-13.9987
 30
0.0
 10
-14.6798
 20
-14.0861
 30
0.0
 10
-14.6798
 20
-14.0861
 30
0.0
 10
-12.8382
 20
-14.0861
 30
0.0
 10
-12.8382
 20
-14.0861
 30
0.0
 10
-12.849
 20
-13.9987
 30
0.0
 10
-12.8891
 20
-13.9202
 30
0.0
 10
-12.948
 20
-13.8611
 30
0.0
 10
-13.018
 20
-13.7915
 30
0.0
 10
-13.1145
 20
-13.7482
 30
0.0
 10
-13.2209
 20
-13.7482
 30
0.0
 10
-13.2209
 20
-13.7482
 30
0.0
 10
-14.297
 20
-13.7482
 30
0.0
 10
-14.297
 20
-13.7482
 30
0.0
 10
-14.4035
 20
-13.7482
 30
0.0
 10
-14.5
 20
-13.7915
 30
0.0
 10
-14.5699
 20
-13.8612
 30
0.0
  0
SPLINE
  5
67
330
1F
100
AcDbEntity
  8
Layer 1
 62
   230
100
AcDbSpline
210
0.0
220
0.0
230
1.0
 70
    11
 71
     3
 72
    17
 73
    13
 74
     0
 42
0.0000000001
 43
0.0000000001
 40
0.0
 40
0.0
 40
0.0
 40
0.0
 40
0.25
 40
0.25
 40
0.25
 40
0.5
 40
0.5
 40
0.5
 40
0.75
 40
0.75
 40
0.75
 40
1.0
 40
1.0
 40
1.0
 40
1.0
 10
-14.5411
 20
-16.7829
 30
0.0
 10
-14.5411
 20
-16.7829
 30
0.0
 10
-12.9556
 20
-16.7829
 30
0.0
 10
-12.9556
 20
-16.7829
 30
0.0
 10
-12.9556
 20
-16.7829
 30
0.0
 10
-12.9556
 20
-14.2288
 30
0.0
 10
-12.9556
 20
-14.2288
 30
0.0
 10
-12.9556
 20
-14.2288
 30
0.0
 10
-14.5411
 20
-14.2288
 30
0.0
 10
-14.5411
 20
-14.2288
 30
0.0
 10
-14.5411
 20
-14.2288
 30
0.0
 10
-14.5411
 20
-16.7829
 30
0.0
 10
-14.5411
 20
-16.7829
 30
0.0
  0
SPLINE
  5
68
330
1F
100
AcDbEntity
  8
Layer 1
 62
   230
100
AcDbSpline
210
0.0
220
0.0
230
1.0
 70
    11
 71
     3
 72
    20
 73
    16
 74
     0
 42
0.0000000001
 43
0.0000000001
 40
0.0
 40
0.0
 40
0.0
 40
0.0
 40
0.2
 40
0.2
 40
0.2
 40
0.4
 40
0.4
 40
0.4
 40
0.6000000000000001
 40
0.6000000000000001
 40
0.6000000000000001
 40
0.8
 40
0.8
 40
0.8
 40
1.0
 40
1.0
 40
1.0
 40
1.0
 10
-13.4052
 20
-14.0385
 30
0.0
 10
-13.4052
 20
-14.0385
 30
0.0
 10
-14.1842
 20
-14.0385
 30
0.0
 10
-14.1842
 20
-14.0385
 30
0.0
 10
-14.1842
 20
-14.0385
 30
0.0
 10
-14.1842
 20
-13.7977
 30
0.0
 10
-14.1842
 20
-13.7977
 30
0.0
 10
-14.1842
 20
-13.7977
 30
0.0
 10
-13.3339
 20
-13.7977
 30
0.0
 10
-13.3339
 20
-13.7977
 30
0.0
 10
-13.3339
 20
-13.7977
 30
0.0
 10
-13.3339
 20
-14.0385
 30
0.0
 10
-13.3339
 20
-14.0385
 30
0.0
 10
-13.3339
 20
-14.0385
 30
0.0
 10
-13.4052
 20
-14.0385
 30
0.0
 10
-13.4052
 20
-14.0385
 30
0.0
  0
SPLINE
  5
69
330
1F
100
AcDbEntity
  8
Layer 1
 62
   230
100
AcDbSpline
210
0.0
220
0.0
230
1.0
 70
    11
 71
     3
 72
    29
 73
    25
 74
     0
 42
0.0000000001
 43
0.0000000001
 40
0.0
 40
0.0
 40
0.0
 40
0.0
 40
0.125
 40
0.125
 40
0.125
 40
0.25
 40
0.25
 40
0.25
 40
0.375
 40
0.375
 40
0.375
 40
0.5
 40
0.5
 40
0.5
 40
0.625
 40
0.625
 40
0.625
 40
0.75
 40
0.75
 40
0.75
 40
0.875
 40
0.875
 40
0.875
 40
1.0
 40
1.0
 40
1.0
 40
1.0
 10
-13.7263
 20
-17.0629
 30
0.0
 10
-13.72
 20
-17.0564
 30
0.0
 10
-13.716
 20
-17.047
 30
0.0
 10
-13.716
 20
-17.0367
 30
0.0
 10
-13.716
 20
-17.0264
 30
0.0
 10
-13.7199
 20
-17.0172
 30
0.0
 10
-13.726
 20
-17.0108
 30
0.0
 10
-13.7318
 20
-17.0049
 30
0.0
 10
-13.7398
 20
-17.0012
 30
0.0
 10
-13.7482
 20
-17.0012
 30
0.0
 10
-13.757
 20
-17.0012
 30
0.0
 10
-13.765
 20
-17.0049
 30
0.0
 10
-13.7706
 20
-17.0108
 30
0.0
 10
-13.7768
 20
-17.0171
 30
0.0
 10
-13.7807
 20
-17.0264
 30
0.0
 10
-13.7807
 20
-17.0367
 30
0.0
 10
-13.7807
 20
-17.0471
 30
0.0
 10
-13.7768
 20
-17.0564
 30
0.0
 10
-13.7707
 20
-17.0627
 30
0.0
 10
-13.765
 20
-17.0686
 30
0.0
 10
-13.757
 20
-17.0723
 30
0.0
 10
-13.7482
 20
-17.0723
 30
0.0
 10
-13.7398
 20
-17.0723
 30
0.0
 10
-13.7318
 20
-17.0687
 30
0.0
 10
-13.7263
 20
-17.0629
 30
0.0
  0
SPLINE
  5
6A
330
1F
100
AcDbEntity
  8
Layer 1
 62
   230
100
AcDbSpline
210
0.0
220
0.0
230
1.0
 70
    11
 71
     3
 72
    41
 73
    37
 74
     0
 42
0.0000000001
 43
0.0000000001
 40
0.0
 40
0.0
 40
0.0
 40
0.0
 40
0.0833333333333333
 40
0.0833333333333333
 40
0.0833333333333333
 40
0.1666666666666667
 40
0.1666666666666667
 40
0.1666666666666667
 40
0.25
 40
0.25
 40
0.25
 40
0.3333333333333333
 40
0.3333333333333333
 40
0.3333333333333333
 40
0.4166666666666666
 40
0.4166666666666666
 40
0.4166666666666666
 40
0.5
 40
0.5
 40
0.5
 40
0.5833333333333333
 40
0.5833333333333333
 40
0.5833333333333333
 40
0.6666666666666666
 40
0.6666666666666666
 40
0.6666666666666666
 40
0.75
 40
0.75
 40
0.75
 40
0.8333333333333333
 40
0.8333333333333333
 40
0.8333333333333333
 40
0.9166666666666666
 40
0.9166666666666666
 40
0.9166666666666666
 40
1.0
 40
1.0
 40
1.0
 40
1.0
 10
-13.1307
 20
-12.0646
 30
0.0
 10
-13.1307
 20
-12.0646
 30
0.0
 10
-14.1391
 20
-12.0646
 30
0.0
 10
-14.1391
 20
-12.0646
 30
0.0
 10
-14.3659
 20
-12.0646
 30
0.0
 10
-14.5716
 20
-11.9724
 30
0.0
 10
-14.7201
 20
-11.8239
 30
0.0
 10
-14.8687
 20
-11.6753
 30
0.0
 10
-14.9609
 20
-11.4696
 30
0.0
 10
-14.9609
 20
-11.2428
 30
0.0
 10
-14.9609
 20
-11.2428
 30
0.0
 10
-14.9609
 20
-10.2073
 30
0.0
 10
-14.9609
 20
-10.2073
 30
0.0
 10
-14.9609
 20
-9.9803
 30
0.0
 10
-14.8688
 20
-9.7747
 30
0.0
 10
-14.7202
 20
-9.6261
 30
0.0
 10
-14.5716
 20
-9.4776
 30
0.0
 10
-14.3659
 20
-9.3855
 30
0.0
 10
-14.1391
 20
-9.3855
 30
0.0
 10
-14.1391
 20
-9.3855
 30
0.0
 10
-13.1307
 20
-9.3855
 30
0.0
 10
-13.1307
 20
-9.3855
 30
0.0
 10
-12.9039
 20
-9.3855
 30
0.0
 10
-12.6983
 20
-9.4775
 30
0.0
 10
-12.5495
 20
-9.6262
 30
0.0
 10
-12.4009
 20
-9.7748
 30
0.0
 10
-12.3089
 20
-9.9803
 30
0.0
 10
-12.3089
 20
-10.2073
 30
0.0
 10
-12.3089
 20
-10.2073
 30
0.0
 10
-12.3089
 20
-11.2428
 30
0.0
 10
-12.3089
 20
-11.2428
 30
0.0
 10
-12.3089
 20
-11.4696
 30
0.0
 10
-12.401
 20
-11.6753
 30
0.0
 10
-12.5496
 20
-11.8239
 30
0.0
 10
-12.6987
 20
-11.9724
 30
0.0
 10
-12.904
 20
-12.0646
 30
0.0
 10
-13.1307
 20
-12.0646
 30
0.0
  0
SPLINE
  5
6B
330
1F
100
AcDbEntity
  8
Layer 1
 62
   230
100
AcDbSpline
210
0.0
220
0.0
230
1.0
 70
    11
 71
     3
 72
    41
 73
    37
 74
     0
 42
0.0000000001
 43
0.0000000001
 40
0.0
 40
0.0
 40
0.0
 40
0.0
 40
0.0833333333333333
 40
0.0833333333333333
 40
0.0833333333333333
 40
0.1666666666666667
 40
0.1666666666666667
 40
0.1666666666666667
 40
0.25
 40
0.25
 40
0.25
 40
0.3333333333333333
 40
0.3333333333333333
 40
0.3333333333333333
 40
0.4166666666666666
 40
0.4166666666666666
 40
0.4166666666666666
 40
0.5
 40
0.5
 40
0.5
 40
0.5833333333333333
 40
0.5833333333333333
 40
0.5833333333333333
 40
0.6666666666666666
 40
0.6666666666666666
 40
0.6666666666666666
 40
0.75
 40
0.75
 40
0.75
 40
0.8333333333333333
 40
0.8333333333333333
 40
0.8333333333333333
 40
0.9166666666666666
 40
0.9166666666666666
 40
0.9166666666666666
 40
1.0
 40
1.0
 40
1.0
 40
1.0
 10
-14.1391
 20
-11.9219
 30
0.0
 10
-14.1391
 20
-11.9219
 30
0.0
 10
-13.1307
 20
-11.9219
 30
0.0
 10
-13.1307
 20
-11.9219
 30
0.0
 10
-12.9432
 20
-11.9219
 30
0.0
 10
-12.7733
 20
-11.8459
 30
0.0
 10
-12.6504
 20
-11.7231
 30
0.0
 10
-12.5277
 20
-11.6001
 30
0.0
 10
-12.4516
 20
-11.4302
 30
0.0
 10
-12.4516
 20
-11.2428
 30
0.0
 10
-12.4516
 20
-11.2428
 30
0.0
 10
-12.4516
 20
-10.2073
 30
0.0
 10
-12.4516
 20
-10.2073
 30
0.0
 10
-12.4516
 20
-10.0198
 30
0.0
 10
-12.5277
 20
-9.8499
 30
0.0
 10
-12.6505
 20
-9.7272
 30
0.0
 10
-12.7734
 20
-9.6042
 30
0.0
 10
-12.9433
 20
-9.5282
 30
0.0
 10
-13.1307
 20
-9.5282
 30
0.0
 10
-13.1307
 20
-9.5282
 30
0.0
 10
-14.1391
 20
-9.5282
 30
0.0
 10
-14.1391
 20
-9.5282
 30
0.0
 10
-14.3266
 20
-9.5282
 30
0.0
 10
-14.4965
 20
-9.6043
 30
0.0
 10
-14.6193
 20
-9.7271
 30
0.0
 10
-14.7421
 20
-9.8499
 30
0.0
 10
-14.8182
 20
-10.0198
 30
0.0
 10
-14.8182
 20
-10.2073
 30
0.0
 10
-14.8182
 20
-10.2073
 30
0.0
 10
-14.8182
 20
-11.2428
 30
0.0
 10
-14.8182
 20
-11.2428
 30
0.0
 10
-14.8182
 20
-11.4302
 30
0.0
 10
-14.7421
 20
-11.6001
 30
0.0
 10
-14.6192
 20
-11.7229
 30
0.0
 10
-14.4963
 20
-11.8458
 30
0.0
 10
-14.3265
 20
-11.9219
 30
0.0
 10
-14.1391
 20
-11.9219
 30
0.0
  0
SPLINE
  5
6C
330
1F
100
AcDbEntity
  8
Layer 1
 62
   230
100
AcDbSpline
210
0.0
220
0.0
230
1.0
 70
    11
 71
     3
 72
    29
 73
    25
 74
     0
 42
0.0000000001
 43
0.0000000001
 40
0.0
 40
0.0
 40
0.0
 40
0.0
 40
0.125
 40
0.125
 40
0.125
 40
0.25
 40
0.25
 40
0.25
 40
0.375
 40
0.375
 40
0.375
 40
0.5
 40
0.5
 40
0.5
 40
0.625
 40
0.625
 40
0.625
 40
0.75
 40
0.75
 40
0.75
 40
0.875
 40
0.875
 40
0.875
 40
1.0
 40
1.0
 40
1.0
 40
1.0
 10
-13.03
 20
-10.7735
 30
0.0
 10
-13.03
 20
-10.9416
 30
0.0
 10
-13.0976
 20
-11.094
 30
0.0
 10
-13.2067
 20
-11.2045
 30
0.0
 10
-13.3164
 20
-11.3153
 30
0.0
 10
-13.4676
 20
-11.3838
 30
0.0
 10
-13.6343
 20
-11.3838
 30
0.0
 10
-13.801
 20
-11.3838
 30
0.0
 10
-13.9521
 20
-11.3153
 30
0.0
 10
-14.0617
 20
-11.2047
 30
0.0
 10
-14.1711
 20
-11.094
 30
0.0
 10
-14.2387
 20
-10.9415
 30
0.0
 10
-14.2387
 20
-10.7735
 30
0.0
 10
-14.2387
 20
-10.6053
 30
0.0
 10
-14.1709
 20
-10.4529
 30
0.0
 10
-14.0617
 20
-10.3425
 30
0.0
 10
-13.9524
 20
-10.232
 30
0.0
 10
-13.8011
 20
-10.1635
 30
0.0
 10
-13.6343
 20
-10.1635
 30
0.0
 10
-13.4676
 20
-10.1635
 30
0.0
 10
-13.3163
 20
-10.2318
 30
0.0
 10
-13.2069
 20
-10.3424
 30
0.0
 10
-13.0976
 20
-10.4528
 30
0.0
 10
-13.03
 20
-10.6053
 30
0.0
 10
-13.03
 20
-10.7735
 30
0.0
  0
SPLINE
  5
6D
330
1F
100
AcDbEntity
  8
Layer 1
 62
   230
100
AcDbSpline
210
0.0
220
0.0
230
1.0
 70
    11
 71
     3
 72
    29
 73
    25
 74
     0
 42
0.0000000001
 43
0.0000000001
 40
0.0
 40
0.0
 40
0.0
 40
0.0
 40
0.125
 40
0.125
 40
0.125
 40
0.25
 40
0.25
 40
0.25
 40
0.375
 40
0.375
 40
0.375
 40
0.5
 40
0.5
 40
0.5
 40
0.625
 40
0.625
 40
0.625
 40
0.75
 40
0.75
 40
0.75
 40
0.875
 40
0.875
 40
0.875
 40
1.0
 40
1.0
 40
1.0
 40
1.0
 10
-13.308
 20
-11.1046
 30
0.0
 10
-13.2243
 20
-11.02
 30
0.0
 10
-13.1726
 20
-10.9029
 30
0.0
 10
-13.1726
 20
-10.7735
 30
0.0
 10
-13.1726
 20
-10.6441
 30
0.0
 10
-13.2244
 20
-10.527
 30
0.0
 10
-13.3079
 20
-10.4427
 30
0.0
 10
-13.3913
 20
-10.3584
 30
0.0
 10
-13.5069
 20
-10.3061
 30
0.0
 10
-13.6343
 20
-10.3061
 30
0.0
 10
-13.7617
 20
-10.3061
 30
0.0
 10
-13.8773
 20
-10.3584
 30
0.0
 10
-13.9608
 20
-10.4428
 30
0.0
 10
-14.0443
 20
-10.5271
 30
0.0
 10
-14.096
 20
-10.6442
 30
0.0
 10
-14.096
 20
-10.7735
 30
0.0
 10
-14.096
 20
-10.9029
 30
0.0
 10
-14.0442
 20
-11.02
 30
0.0
 10
-13.9607
 20
-11.1044
 30
0.0
 10
-13.8772
 20
-11.1889
 30
0.0
 10
-13.7617
 20
-11.2412
 30
0.0
 10
-13.6343
 20
-11.2412
 30
0.0
 10
-13.5069
 20
-11.2412
 30
0.0
 10
-13.3914
 20
-11.1889
 30
0.0
 10
-13.308
 20
-11.1046
 30
0.0
  0
SPLINE
  5
6E
330
1F
100
AcDbEntity
  8
Layer 1
 62
   230
100
AcDbSpline
210
0.0
220
0.0
230
1.0
 70
    11
 71
     3
 72
    29
 73
    25
 74
     0
 42
0.0000000001
 43
0.0000000001
 40
0.0
 40
0.0
 40
0.0
 40
0.0
 40
0.125
 40
0.125
 40
0.125
 40
0.25
 40
0.25
 40
0.25
 40
0.375
 40
0.375
 40
0.375
 40
0.5
 40
0.5
 40
0.5
 40
0.625
 40
0.625
 40
0.625
 40
0.75
 40
0.75
 40
0.75
 40
0.875
 40
0.875
 40
0.875
 40
1.0
 40
1.0
 40
1.0
 40
1.0
 10
-12.8268
 20
-10.0827
 30
0.0
 10
-12.8268
 20
-10.1303
 30
0.0
 10
-12.846
 20
-10.1738
 30
0.0
 10
-12.8772
 20
-10.2053
 30
0.0
 10
-12.9086
 20
-10.2371
 30
0.0
 10
-12.952
 20
-10.2568
 30
0.0
 10
-12.9997
 20
-10.2568
 30
0.0
 10
-13.0475
 20
-10.2568
 30
0.0
 10
-13.091
 20
-10.237
 30
0.0
 10
-13.1223
 20
-10.2053
 30
0.0
 10
-13.1534
 20
-10.1738
 30
0.0
 10
-13.1726
 20
-10.1303
 30
0.0
 10
-13.1726
 20
-10.0827
 30
0.0
 10
-13.1726
 20
-10.0352
 30
0.0
 10
-13.1532
 20
-9.9917
 30
0.0
 10
-13.122
 20
-9.9602
 30
0.0
 10
-13.0907
 20
-9.9286
 30
0.0
 10
-13.0474
 20
-9.909
 30
0.0
 10
-12.9997
 20
-9.909
 30
0.0
 10
-12.9521
 20
-9.909
 30
0.0
 10
-12.9087
 20
-9.9286
 30
0.0
 10
-12.8774
 20
-9.9602
 30
0.0
 10
-12.8463
 20
-9.9917
 30
0.0
 10
-12.8268
 20
-10.0352
 30
0.0
 10
-12.8268
 20
-10.0827
 30
0.0
  0
SPLINE
  5
6F
330
1F
100
AcDbEntity
  8
Layer 1
 62
   230
100
AcDbSpline
210
0.0
220
0.0
230
1.0
 70
    11
 71
     3
 72
    29
 73
    25
 74
     0
 42
0.0000000001
 43
0.0000000001
 40
0.0
 40
0.0
 40
0.0
 40
0.0
 40
0.125
 40
0.125
 40
0.125
 40
0.25
 40
0.25
 40
0.25
 40
0.375
 40
0.375
 40
0.375
 40
0.5
 40
0.5
 40
0.5
 40
0.625
 40
0.625
 40
0.625
 40
0.75
 40
0.75
 40
0.75
 40
0.875
 40
0.875
 40
0.875
 40
1.0
 40
1.0
 40
1.0
 40
1.0
 10
-12.9785
 20
-10.1054
 30
0.0
 10
-12.9729
 20
-10.0997
 30
0.0
 10
-12.9695
 20
-10.0917
 30
0.0
 10
-12.9695
 20
-10.0827
 30
0.0
 10
-12.9695
 20
-10.0739
 30
0.0
 10
-12.973
 20
-10.0659
 30
0.0
 10
-12.9784
 20
-10.0605
 30
0.0
 10
-12.9837
 20
-10.0552
 30
0.0
 10
-12.9914
 20
-10.0517
 30
0.0
 10
-12.9997
 20
-10.0517
 30
0.0
 10
-13.008
 20
-10.0517
 30
0.0
 10
-13.0157
 20
-10.0551
 30
0.0
 10
-13.0211
 20
-10.0605
 30
0.0
 10
-13.0264
 20
-10.0659
 30
0.0
 10
-13.03
 20
-10.0739
 30
0.0
 10
-13.03
 20
-10.0827
 30
0.0
 10
-13.03
 20
-10.0917
 30
0.0
 10
-13.0265
 20
-10.0997
 30
0.0
 10
-13.0211
 20
-10.1052
 30
0.0
 10
-13.0156
 20
-10.1108
 30
0.0
 10
-13.008
 20
-10.1141
 30
0.0
 10
-12.9997
 20
-10.1141
 30
0.0
 10
-12.9914
 20
-10.1141
 30
0.0
 10
-12.9838
 20
-10.1107
 30
0.0
 10
-12.9785
 20
-10.1054
 30
0.0
  0
SPLINE
  5
70
330
1F
100
AcDbEntity
  8
Layer 1
 62
   230
100
AcDbSpline
210
0.0
220
0.0
230
1.0
 70
    11
 71
     3
 72
    62
 73
    58
 74
     0
 42
0.0000000001
 43
0.0000000001
 40
0.0
 40
0.0
 40
0.0
 40
0.0
 40
0.0526315789473684
 40
0.0526315789473684
 40
0.0526315789473684
 40
0.1052631578947368
 40
0.1052631578947368
 40
0.1052631578947368
 40
0.1578947368421053
 40
0.1578947368421053
 40
0.1578947368421053
 40
0.2105263157894737
 40
0.2105263157894737
 40
0.2105263157894737
 40
0.2631578947368421
 40
0.2631578947368421
 40
0.2631578947368421
 40
0.3157894736842105
 40
0.3157894736842105
 40
0.3157894736842105
 40
0.3684210526315789
 40
0.3684210526315789
 40
0.3684210526315789
 40
0.4210526315789473
 40
0.4210526315789473
 40
0.4210526315789473
 40
0.4736842105263158
 40
0.4736842105263158
 40
0.4736842105263158
 40
0.5263157894736842
 40
0.5263157894736842
 40
0.5263157894736842
 40
0.5789473684210527
 40
0.5789473684210527
 40
0.5789473684210527
 40
0.631578947368421
 40
0.631578947368421
 40
0.631578947368421
 40
0.6842105263157894
 40
0.6842105263157894
 40
0.6842105263157894
 40
0.7368421052631579
 40
0.7368421052631579
 40
0.7368421052631579
 40
0.7894736842105263
 40
0.7894736842105263
 40
0.7894736842105263
 40
0.8421052631578947
 40
0.8421052631578947
 40
0.8421052631578947
 40
0.894736842105263
 40
0.894736842105263
 40
0.894736842105263
 40
0.9473684210526315
 40
0.9473684210526315
 40
0.9473684210526315
 40
1.0
 40
1.0
 40
1.0
 40
1.0
 10
-3.9565
 20
-12.3039
 30
0.0
 10
-3.9565
 20
-12.3039
 30
0.0
 10
-4.3583
 20
-12.3039
 30
0.0
 10
-4.3583
 20
-12.3039
 30
0.0
 10
-4.3937
 20
-12.1911
 30
0.0
 10
-4.4152
 20
-12.0655
 30
0.0
 10
-4.4227
 20
-11.9268
 30
0.0
 10
-4.5355
 20
-12.204
 30
0.0
 10
-4.7461
 20
-12.3426
 30
0.0
 10
-5.0554
 20
-12.3426
 30
0.0
 10
-5.2412
 20
-12.3426
 30
0.0
 10
-5.3916
 20
-12.2877
 30
0.0
 10
-5.5044
 20
-12.1793
 30
0.0
 10
-5.6172
 20
-12.0698
 30
0.0
 10
-5.673
 20
-11.9322
 30
0.0
 10
-5.673
 20
-11.7668
 30
0.0
 10
-5.673
 20
-11.3382
 30
0.0
 10
-5.296
 20
-11.1234
 30
0.0
 10
-4.543
 20
-11.1234
 30
0.0
 10
-4.5129
 20
-11.1234
 30
0.0
 10
-4.4732
 20
-11.1244
 30
0.0
 10
-4.4227
 20
-11.1256
 30
0.0
 10
-4.4227
 20
-11.1256
 30
0.0
 10
-4.4227
 20
-10.9848
 30
0.0
 10
-4.4227
 20
-10.9848
 30
0.0
 10
-4.4227
 20
-10.7904
 30
0.0
 10
-4.5548
 20
-10.6937
 30
0.0
 10
-4.818
 20
-10.6937
 30
0.0
 10
-5.0747
 20
-10.6937
 30
0.0
 10
-5.2208
 20
-10.7904
 30
0.0
 10
-5.2551
 20
-10.9848
 30
0.0
 10
-5.2551
 20
-10.9848
 30
0.0
 10
-5.614
 20
-10.9311
 30
0.0
 10
-5.614
 20
-10.9311
 30
0.0
 10
-5.5946
 20
-10.7754
 30
0.0
 10
-5.5151
 20
-10.6476
 30
0.0
 10
-5.3744
 20
-10.5477
 30
0.0
 10
-5.2337
 20
-10.4467
 30
0.0
 10
-5.0296
 20
-10.3962
 30
0.0
 10
-4.7632
 20
-10.3962
 30
0.0
 10
-4.6182
 20
-10.3962
 30
0.0
 10
-4.5011
 20
-10.4081
 30
0.0
 10
-4.4098
 20
-10.4327
 30
0.0
 10
-4.3185
 20
-10.4563
 30
0.0
 10
-4.2412
 20
-10.4972
 30
0.0
 10
-4.1789
 20
-10.5541
 30
0.0
 10
-4.1155
 20
-10.6111
 30
0.0
 10
-4.0725
 20
-10.6734
 30
0.0
 10
-4.0479
 20
-10.7411
 30
0.0
 10
-4.0231
 20
-10.8087
 30
0.0
 10
-4.0113
 20
-10.9226
 30
0.0
 10
-4.0113
 20
-11.0826
 30
0.0
 10
-4.0113
 20
-11.0826
 30
0.0
 10
-4.0113
 20
-11.9268
 30
0.0
 10
-4.0113
 20
-11.9268
 30
0.0
 10
-4.0113
 20
-12.0482
 30
0.0
 10
-3.9931
 20
-12.1739
 30
0.0
 10
-3.9565
 20
-12.3039
 30
0.0
  0
SPLINE
  5
71
330
1F
100
AcDbEntity
  8
Layer 1
 62
   230
100
AcDbSpline
210
0.0
220
0.0
230
1.0
 70
    11
 71
     3
 72
    50
 73
    46
 74
     0
 42
0.0000000001
 43
0.0000000001
 40
0.0
 40
0.0
 40
0.0
 40
0.0
 40
0.0666666666666667
 40
0.0666666666666667
 40
0.0666666666666667
 40
0.1333333333333333
 40
0.1333333333333333
 40
0.1333333333333333
 40
0.2
 40
0.2
 40
0.2
 40
0.2666666666666667
 40
0.2666666666666667
 40
0.2666666666666667
 40
0.3333333333333333
 40
0.3333333333333333
 40
0.3333333333333333
 40
0.4
 40
0.4
 40
0.4
 40
0.4666666666666667
 40
0.4666666666666667
 40
0.4666666666666667
 40
0.5333333333333333
 40
0.5333333333333333
 40
0.5333333333333333
 40
0.6
 40
0.6
 40
0.6
 40
0.6666666666666666
 40
0.6666666666666666
 40
0.6666666666666666
 40
0.7333333333333333
 40
0.7333333333333333
 40
0.7333333333333333
 40
0.8
 40
0.8
 40
0.8
 40
0.8666666666666667
 40
0.8666666666666667
 40
0.8666666666666667
 40
0.9333333333333333
 40
0.9333333333333333
 40
0.9333333333333333
 40
1.0
 40
1.0
 40
1.0
 40
1.0
 10
15.7339
 20
-10.4349
 30
0.0
 10
15.7339
 20
-10.4349
 30
0.0
 10
15.0067
 20
-12.5627
 30
0.0
 10
15.0067
 20
-12.5627
 30
0.0
 10
14.9626
 20
-12.6938
 30
0.0
 10
14.9014
 20
-12.7948
 30
0.0
 10
14.8241
 20
-12.8667
 30
0.0
 10
14.7467
 20
-12.9387
 30
0.0
 10
14.6383
 20
-12.9753
 30
0.0
 10
14.4975
 20
-12.9753
 30
0.0
 10
14.4428
 20
-12.9753
 30
0.0
 10
14.3612
 20
-12.9709
 30
0.0
 10
14.2548
 20
-12.9623
 30
0.0
 10
14.2548
 20
-12.9623
 30
0.0
 10
14.2548
 20
-12.6272
 30
0.0
 10
14.2548
 20
-12.6272
 30
0.0
 10
14.2548
 20
-12.6272
 30
0.0
 10
14.4568
 20
-12.6315
 30
0.0
 10
14.4568
 20
-12.6315
 30
0.0
 10
14.5459
 20
-12.6315
 30
0.0
 10
14.6114
 20
-12.6165
 30
0.0
 10
14.6533
 20
-12.5875
 30
0.0
 10
14.6963
 20
-12.5585
 30
0.0
 10
14.7296
 20
-12.5069
 30
0.0
 10
14.7543
 20
-12.4328
 30
0.0
 10
14.779
 20
-12.3587
 30
0.0
 10
14.7919
 20
-12.3157
 30
0.0
 10
14.7919
 20
-12.3039
 30
0.0
 10
14.7919
 20
-12.2964
 30
0.0
 10
14.779
 20
-12.2588
 30
0.0
 10
14.7532
 20
-12.189
 30
0.0
 10
14.7532
 20
-12.189
 30
0.0
 10
14.1108
 20
-10.4349
 30
0.0
 10
14.1108
 20
-10.4349
 30
0.0
 10
14.1108
 20
-10.4349
 30
0.0
 10
14.5534
 20
-10.4349
 30
0.0
 10
14.5534
 20
-10.4349
 30
0.0
 10
14.5534
 20
-10.4349
 30
0.0
 10
15.0067
 20
-11.6669
 30
0.0
 10
15.0067
 20
-11.6669
 30
0.0
 10
15.0067
 20
-11.6669
 30
0.0
 10
15.3966
 20
-10.4349
 30
0.0
 10
15.3966
 20
-10.4349
 30
0.0
 10
15.3966
 20
-10.4349
 30
0.0
 10
15.7339
 20
-10.4349
 30
0.0
 10
15.7339
 20
-10.4349
 30
0.0
  0
SPLINE
  5
72
330
1F
100
AcDbEntity
  8
Layer 1
 62
   230
100
AcDbSpline
210
0.0
220
0.0
230
1.0
 70
    11
 71
     3
 72
    50
 73
    46
 74
     0
 42
0.0000000001
 43
0.0000000001
 40
0.0
 40
0.0
 40
0.0
 40
0.0
 40
0.0666666666666667
 40
0.0666666666666667
 40
0.0666666666666667
 40
0.1333333333333333
 40
0.1333333333333333
 40
0.1333333333333333
 40
0.2
 40
0.2
 40
0.2
 40
0.2666666666666667
 40
0.2666666666666667
 40
0.2666666666666667
 40
0.3333333333333333
 40
0.3333333333333333
 40
0.3333333333333333
 40
0.4
 40
0.4
 40
0.4
 40
0.4666666666666667
 40
0.4666666666666667
 40
0.4666666666666667
 40
0.5333333333333333
 40
0.5333333333333333
 40
0.5333333333333333
 40
0.6
 40
0.6
 40
0.6
 40
0.6666666666666666
 40
0.6666666666666666
 40
0.6666666666666666
 40
0.7333333333333333
 40
0.7333333333333333
 40
0.7333333333333333
 40
0.8
 40
0.8
 40
0.8
 40
0.8666666666666667
 40
0.8666666666666667
 40
0.8666666666666667
 40
0.9333333333333333
 40
0.9333333333333333
 40
0.9333333333333333
 40
1.0
 40
1.0
 40
1.0
 40
1.0
 10
8.3529
 20
-11.7077
 30
0.0
 10
8.3529
 20
-11.7077
 30
0.0
 10
8.7342
 20
-11.7604
 30
0.0
 10
8.7342
 20
-11.7604
 30
0.0
 10
8.6848
 20
-11.929
 30
0.0
 10
8.5882
 20
-12.0686
 30
0.0
 10
8.4453
 20
-12.1782
 30
0.0
 10
8.3024
 20
-12.2877
 30
0.0
 10
8.1231
 20
-12.3426
 30
0.0
 10
7.9071
 20
-12.3426
 30
0.0
 10
7.6483
 20
-12.3426
 30
0.0
 10
7.4388
 20
-12.2555
 30
0.0
 10
7.2809
 20
-12.0816
 30
0.0
 10
7.123
 20
-11.9075
 30
0.0
 10
7.0446
 20
-11.6723
 30
0.0
 10
7.0446
 20
-11.3748
 30
0.0
 10
7.0446
 20
-11.0923
 30
0.0
 10
7.1241
 20
-10.8591
 30
0.0
 10
7.2831
 20
-10.6744
 30
0.0
 10
7.442
 20
-10.4886
 30
0.0
 10
7.6579
 20
-10.3962
 30
0.0
 10
7.9307
 20
-10.3962
 30
0.0
 10
8.1972
 20
-10.3962
 30
0.0
 10
8.4034
 20
-10.4876
 30
0.0
 10
8.5484
 20
-10.6701
 30
0.0
 10
8.6944
 20
-10.8528
 30
0.0
 10
8.7675
 20
-11.0869
 30
0.0
 10
8.7675
 20
-11.3737
 30
0.0
 10
8.7675
 20
-11.3737
 30
0.0
 10
8.7654
 20
-11.421
 30
0.0
 10
8.7654
 20
-11.421
 30
0.0
 10
8.7654
 20
-11.421
 30
0.0
 10
7.4829
 20
-11.421
 30
0.0
 10
7.4829
 20
-11.421
 30
0.0
 10
7.4829
 20
-11.5488
 30
0.0
 10
7.4947
 20
-11.6508
 30
0.0
 10
7.5183
 20
-11.727
 30
0.0
 10
7.543
 20
-11.8033
 30
0.0
 10
7.5903
 20
-11.87
 30
0.0
 10
7.6623
 20
-11.9268
 30
0.0
 10
7.7342
 20
-11.9838
 30
0.0
 10
7.8234
 20
-12.0118
 30
0.0
 10
7.9307
 20
-12.0118
 30
0.0
 10
8.1392
 20
-12.0118
 30
0.0
 10
8.2798
 20
-11.9107
 30
0.0
 10
8.3529
 20
-11.7077
 30
0.0
  0
SPLINE
  5
73
330
1F
100
AcDbEntity
  8
Layer 1
 62
   230
100
AcDbSpline
210
0.0
220
0.0
230
1.0
 70
    11
 71
     3
 72
    20
 73
    16
 74
     0
 42
0.0000000001
 43
0.0000000001
 40
0.0
 40
0.0
 40
0.0
 40
0.0
 40
0.2
 40
0.2
 40
0.2
 40
0.4
 40
0.4
 40
0.4
 40
0.6000000000000001
 40
0.6000000000000001
 40
0.6000000000000001
 40
0.8
 40
0.8
 40
0.8
 40
1.0
 40
1.0
 40
1.0
 40
1.0
 10
8.3271
 20
-11.1492
 30
0.0
 10
8.326
 20
-11.0149
 30
0.0
 10
8.2852
 20
-10.9053
 30
0.0
 10
8.2057
 20
-10.8205
 30
0.0
 10
8.1262
 20
-10.7356
 30
0.0
 10
8.0275
 20
-10.6927
 30
0.0
 10
7.9103
 20
-10.6927
 30
0.0
 10
7.7943
 20
-10.6927
 30
0.0
 10
7.6977
 20
-10.7324
 30
0.0
 10
7.6192
 20
-10.8119
 30
0.0
 10
7.5419
 20
-10.8914
 30
0.0
 10
7.4968
 20
-11.0042
 30
0.0
 10
7.4829
 20
-11.1492
 30
0.0
 10
7.4829
 20
-11.1492
 30
0.0
 10
8.3271
 20
-11.1492
 30
0.0
 10
8.3271
 20
-11.1492
 30
0.0
  0
SPLINE
  5
74
330
1F
100
AcDbEntity
  8
Layer 1
 62
   230
100
AcDbSpline
210
0.0
220
0.0
230
1.0
 70
    11
 71
     3
 72
    17
 73
    13
 74
     0
 42
0.0000000001
 43
0.0000000001
 40
0.0
 40
0.0
 40
0.0
 40
0.0
 40
0.25
 40
0.25
 40
0.25
 40
0.5
 40
0.5
 40
0.5
 40
0.75
 40
0.75
 40
0.75
 40
1.0
 40
1.0
 40
1.0
 40
1.0
 10
9.572
 20
-12.3039
 30
0.0
 10
9.572
 20
-12.3039
 30
0.0
 10
9.1499
 20
-12.3039
 30
0.0
 10
9.1499
 20
-12.3039
 30
0.0
 10
9.1499
 20
-12.3039
 30
0.0
 10
9.1499
 20
-9.7786
 30
0.0
 10
9.1499
 20
-9.7786
 30
0.0
 10
9.1499
 20
-9.7786
 30
0.0
 10
9.572
 20
-9.7786
 30
0.0
 10
9.572
 20
-9.7786
 30
0.0
 10
9.572
 20
-9.7786
 30
0.0
 10
9.572
 20
-12.3039
 30
0.0
 10
9.572
 20
-12.3039
 30
0.0
  0
SPLINE
  5
75
330
1F
100
AcDbEntity
  8
Layer 1
 62
   230
100
AcDbSpline
210
0.0
220
0.0
230
1.0
 70
    11
 71
     3
 72
    17
 73
    13
 74
     0
 42
0.0000000001
 43
0.0000000001
 40
0.0
 40
0.0
 40
0.0
 40
0.0
 40
0.25
 40
0.25
 40
0.25
 40
0.5
 40
0.5
 40
0.5
 40
0.75
 40
0.75
 40
0.75
 40
1.0
 40
1.0
 40
1.0
 40
1.0
 10
10.499
 20
-12.3039
 30
0.0
 10
10.499
 20
-12.3039
 30
0.0
 10
10.0769
 20
-12.3039
 30
0.0
 10
10.0769
 20
-12.3039
 30
0.0
 10
10.0769
 20
-12.3039
 30
0.0
 10
10.0769
 20
-9.7786
 30
0.0
 10
10.0769
 20
-9.7786
 30
0.0
 10
10.0769
 20
-9.7786
 30
0.0
 10
10.499
 20
-9.7786
 30
0.0
 10
10.499
 20
-9.7786
 30
0.0
 10
10.499
 20
-9.7786
 30
0.0
 10
10.499
 20
-12.3039
 30
0.0
 10
10.499
 20
-12.3039
 30
0.0
  0
SPLINE
  5
76
330
1F
100
AcDbEntity
  8
Layer 1
 62
   230
100
AcDbSpline
210
0.0
220
0.0
230
1.0
 70
    11
 71
     3
 72
    50
 73
    46
 74
     0
 42
0.0000000001
 43
0.0000000001
 40
0.0
 40
0.0
 40
0.0
 40
0.0
 40
0.0666666666666667
 40
0.0666666666666667
 40
0.0666666666666667
 40
0.1333333333333333
 40
0.1333333333333333
 40
0.1333333333333333
 40
0.2
 40
0.2
 40
0.2
 40
0.2666666666666667
 40
0.2666666666666667
 40
0.2666666666666667
 40
0.3333333333333333
 40
0.3333333333333333
 40
0.3333333333333333
 40
0.4
 40
0.4
 40
0.4
 40
0.4666666666666667
 40
0.4666666666666667
 40
0.4666666666666667
 40
0.5333333333333333
 40
0.5333333333333333
 40
0.5333333333333333
 40
0.6
 40
0.6
 40
0.6
 40
0.6666666666666666
 40
0.6666666666666666
 40
0.6666666666666666
 40
0.7333333333333333
 40
0.7333333333333333
 40
0.7333333333333333
 40
0.8
 40
0.8
 40
0.8
 40
0.8666666666666667
 40
0.8666666666666667
 40
0.8666666666666667
 40
0.9333333333333333
 40
0.9333333333333333
 40
0.9333333333333333
 40
1.0
 40
1.0
 40
1.0
 40
1.0
 10
12.194
 20
-11.7077
 30
0.0
 10
12.194
 20
-11.7077
 30
0.0
 10
12.5753
 20
-11.7604
 30
0.0
 10
12.5753
 20
-11.7604
 30
0.0
 10
12.5259
 20
-11.929
 30
0.0
 10
12.4292
 20
-12.0686
 30
0.0
 10
12.2864
 20
-12.1782
 30
0.0
 10
12.1435
 20
-12.2877
 30
0.0
 10
11.9641
 20
-12.3426
 30
0.0
 10
11.7482
 20
-12.3426
 30
0.0
 10
11.4893
 20
-12.3426
 30
0.0
 10
11.2799
 20
-12.2555
 30
0.0
 10
11.122
 20
-12.0816
 30
0.0
 10
10.9641
 20
-11.9075
 30
0.0
 10
10.8857
 20
-11.6723
 30
0.0
 10
10.8857
 20
-11.3748
 30
0.0
 10
10.8857
 20
-11.0923
 30
0.0
 10
10.9652
 20
-10.8591
 30
0.0
 10
11.1241
 20
-10.6744
 30
0.0
 10
11.2832
 20
-10.4886
 30
0.0
 10
11.499
 20
-10.3962
 30
0.0
 10
11.7719
 20
-10.3962
 30
0.0
 10
12.0382
 20
-10.3962
 30
0.0
 10
12.2445
 20
-10.4876
 30
0.0
 10
12.3895
 20
-10.6701
 30
0.0
 10
12.5356
 20
-10.8528
 30
0.0
 10
12.6086
 20
-11.0869
 30
0.0
 10
12.6086
 20
-11.3737
 30
0.0
 10
12.6086
 20
-11.3737
 30
0.0
 10
12.6064
 20
-11.421
 30
0.0
 10
12.6064
 20
-11.421
 30
0.0
 10
12.6064
 20
-11.421
 30
0.0
 10
11.3239
 20
-11.421
 30
0.0
 10
11.3239
 20
-11.421
 30
0.0
 10
11.3239
 20
-11.5488
 30
0.0
 10
11.3357
 20
-11.6508
 30
0.0
 10
11.3594
 20
-11.727
 30
0.0
 10
11.3841
 20
-11.8033
 30
0.0
 10
11.4313
 20
-11.87
 30
0.0
 10
11.5033
 20
-11.9268
 30
0.0
 10
11.5753
 20
-11.9838
 30
0.0
 10
11.6645
 20
-12.0118
 30
0.0
 10
11.7719
 20
-12.0118
 30
0.0
 10
11.9802
 20
-12.0118
 30
0.0
 10
12.121
 20
-11.9107
 30
0.0
 10
12.194
 20
-11.7077
 30
0.0
  0
SPLINE
  5
77
330
1F
100
AcDbEntity
  8
Layer 1
 62
   230
100
AcDbSpline
210
0.0
220
0.0
230
1.0
 70
    11
 71
     3
 72
    20
 73
    16
 74
     0
 42
0.0000000001
 43
0.0000000001
 40
0.0
 40
0.0
 40
0.0
 40
0.0
 40
0.2
 40
0.2
 40
0.2
 40
0.4
 40
0.4
 40
0.4
 40
0.6000000000000001
 40
0.6000000000000001
 40
0.6000000000000001
 40
0.8
 40
0.8
 40
0.8
 40
1.0
 40
1.0
 40
1.0
 40
1.0
 10
12.1682
 20
-11.1492
 30
0.0
 10
12.1672
 20
-11.0149
 30
0.0
 10
12.1263
 20
-10.9053
 30
0.0
 10
12.0469
 20
-10.8205
 30
0.0
 10
11.9674
 20
-10.7356
 30
0.0
 10
11.8685
 20
-10.6927
 30
0.0
 10
11.7515
 20
-10.6927
 30
0.0
 10
11.6355
 20
-10.6927
 30
0.0
 10
11.5388
 20
-10.7324
 30
0.0
 10
11.4604
 20
-10.8119
 30
0.0
 10
11.3831
 20
-10.8914
 30
0.0
 10
11.3379
 20
-11.0042
 30
0.0
 10
11.3239
 20
-11.1492
 30
0.0
 10
11.3239
 20
-11.1492
 30
0.0
 10
12.1682
 20
-11.1492
 30
0.0
 10
12.1682
 20
-11.1492
 30
0.0
  0
SPLINE
  5
78
330
1F
100
AcDbEntity
  8
Layer 1
 62
   230
100
AcDbSpline
210
0.0
220
0.0
230
1.0
 70
    11
 71
     3
 72
    38
 73
    34
 74
     0
 42
0.0000000001
 43
0.0000000001
 40
0.0
 40
0.0
 40
0.0
 40
0.0
 40
0.0909090909090909
 40
0.0909090909090909
 40
0.0909090909090909
 40
0.1818181818181818
 40
0.1818181818181818
 40
0.1818181818181818
 40
0.2727272727272727
 40
0.2727272727272727
 40
0.2727272727272727
 40
0.3636363636363636
 40
0.3636363636363636
 40
0.3636363636363636
 40
0.4545454545454546
 40
0.4545454545454546
 40
0.4545454545454546
 40
0.5454545454545454
 40
0.5454545454545454
 40
0.5454545454545454
 40
0.6363636363636364
 40
0.6363636363636364
 40
0.6363636363636364
 40
0.7272727272727273
 40
0.7272727272727273
 40
0.7272727272727273
 40
0.8181818181818182
 40
0.8181818181818182
 40
0.8181818181818182
 40
0.9090909090909092
 40
0.9090909090909092
 40
0.9090909090909092
 40
1.0
 40
1.0
 40
1.0
 40
1.0
 10
13.4153
 20
-12.3039
 30
0.0
 10
13.4153
 20
-12.3039
 30
0.0
 10
12.9931
 20
-12.3039
 30
0.0
 10
12.9931
 20
-12.3039
 30
0.0
 10
12.9931
 20
-12.3039
 30
0.0
 10
12.9931
 20
-10.4349
 30
0.0
 10
12.9931
 20
-10.4349
 30
0.0
 10
12.9931
 20
-10.4349
 30
0.0
 10
13.3745
 20
-10.4349
 30
0.0
 10
13.3745
 20
-10.4349
 30
0.0
 10
13.3745
 20
-10.4349
 30
0.0
 10
13.3745
 20
-10.8807
 30
0.0
 10
13.3745
 20
-10.8807
 30
0.0
 10
13.4293
 20
-10.7067
 30
0.0
 10
13.5034
 20
-10.5799
 30
0.0
 10
13.5979
 20
-10.5004
 30
0.0
 10
13.6935
 20
-10.4199
 30
0.0
 10
13.7902
 20
-10.3801
 30
0.0
 10
13.8901
 20
-10.3801
 30
0.0
 10
13.904
 20
-10.3801
 30
0.0
 10
13.9223
 20
-10.3801
 30
0.0
 10
13.9459
 20
-10.3812
 30
0.0
 10
13.9459
 20
-10.3812
 30
0.0
 10
13.9459
 20
-10.8345
 30
0.0
 10
13.9459
 20
-10.8345
 30
0.0
 10
13.7311
 20
-10.8345
 30
0.0
 10
13.5893
 20
-10.9032
 30
0.0
 10
13.5195
 20
-11.0407
 30
0.0
 10
13.4497
 20
-11.1771
 30
0.0
 10
13.4153
 20
-11.3103
 30
0.0
 10
13.4153
 20
-11.4381
 30
0.0
 10
13.4153
 20
-11.4381
 30
0.0
 10
13.4153
 20
-12.3039
 30
0.0
 10
13.4153
 20
-12.3039
 30
0.0
  0
SPLINE
  5
79
330
1F
100
AcDbEntity
  8
Layer 1
 62
   230
100
AcDbSpline
210
0.0
220
0.0
230
1.0
 70
    11
 71
     3
 72
    44
 73
    40
 74
     0
 42
0.0000000001
 43
0.0000000001
 40
0.0
 40
0.0
 40
0.0
 40
0.0
 40
0.0769230769230769
 40
0.0769230769230769
 40
0.0769230769230769
 40
0.1538461538461539
 40
0.1538461538461539
 40
0.1538461538461539
 40
0.2307692307692308
 40
0.2307692307692308
 40
0.2307692307692308
 40
0.3076923076923077
 40
0.3076923076923077
 40
0.3076923076923077
 40
0.3846153846153846
 40
0.3846153846153846
 40
0.3846153846153846
 40
0.4615384615384616
 40
0.4615384615384616
 40
0.4615384615384616
 40
0.5384615384615385
 40
0.5384615384615385
 40
0.5384615384615385
 40
0.6153846153846154
 40
0.6153846153846154
 40
0.6153846153846154
 40
0.6923076923076923
 40
0.6923076923076923
 40
0.6923076923076923
 40
0.7692307692307693
 40
0.7692307692307693
 40
0.7692307692307693
 40
0.8461538461538463
 40
0.8461538461538463
 40
0.8461538461538463
 40
0.9230769230769231
 40
0.9230769230769231
 40
0.9230769230769231
 40
1.0
 40
1.0
 40
1.0
 40
1.0
 10
6.8959
 20
-10.4349
 30
0.0
 10
6.8959
 20
-10.4349
 30
0.0
 10
6.348
 20
-12.3039
 30
0.0
 10
6.348
 20
-12.3039
 30
0.0
 10
6.348
 20
-12.3039
 30
0.0
 10
5.9689
 20
-12.3039
 30
0.0
 10
5.9689
 20
-12.3039
 30
0.0
 10
5.9689
 20
-12.3039
 30
0.0
 10
5.6316
 20
-10.9934
 30
0.0
 10
5.6316
 20
-10.9934
 30
0.0
 10
5.6316
 20
-10.9934
 30
0.0
 10
5.2975
 20
-12.3039
 30
0.0
 10
5.2975
 20
-12.3039
 30
0.0
 10
5.2975
 20
-12.3039
 30
0.0
 10
4.9065
 20
-12.3039
 30
0.0
 10
4.9065
 20
-12.3039
 30
0.0
 10
4.9065
 20
-12.3039
 30
0.0
 10
4.3308
 20
-10.4349
 30
0.0
 10
4.3308
 20
-10.4349
 30
0.0
 10
4.3308
 20
-10.4349
 30
0.0
 10
4.7787
 20
-10.4349
 30
0.0
 10
4.7787
 20
-10.4349
 30
0.0
 10
4.7787
 20
-10.4349
 30
0.0
 10
5.1471
 20
-11.6916
 30
0.0
 10
5.1471
 20
-11.6916
 30
0.0
 10
5.1471
 20
-11.6916
 30
0.0
 10
5.4694
 20
-10.4349
 30
0.0
 10
5.4694
 20
-10.4349
 30
0.0
 10
5.4694
 20
-10.4349
 30
0.0
 10
5.8518
 20
-10.4349
 30
0.0
 10
5.8518
 20
-10.4349
 30
0.0
 10
5.8518
 20
-10.4349
 30
0.0
 10
6.1794
 20
-11.6916
 30
0.0
 10
6.1794
 20
-11.6916
 30
0.0
 10
6.1794
 20
-11.6916
 30
0.0
 10
6.5403
 20
-10.4349
 30
0.0
 10
6.5403
 20
-10.4349
 30
0.0
 10
6.5403
 20
-10.4349
 30
0.0
 10
6.8959
 20
-10.4349
 30
0.0
 10
6.8959
 20
-10.4349
 30
0.0
  0
SPLINE
  5
7A
330
1F
100
AcDbEntity
  8
Layer 1
 62
   230
100
AcDbSpline
210
0.0
220
0.0
230
1.0
 70
    11
 71
     3
 72
    38
 73
    34
 74
     0
 42
0.0000000001
 43
0.0000000001
 40
0.0
 40
0.0
 40
0.0
 40
0.0
 40
0.0909090909090909
 40
0.0909090909090909
 40
0.0909090909090909
 40
0.1818181818181818
 40
0.1818181818181818
 40
0.1818181818181818
 40
0.2727272727272727
 40
0.2727272727272727
 40
0.2727272727272727
 40
0.3636363636363636
 40
0.3636363636363636
 40
0.3636363636363636
 40
0.4545454545454546
 40
0.4545454545454546
 40
0.4545454545454546
 40
0.5454545454545454
 40
0.5454545454545454
 40
0.5454545454545454
 40
0.6363636363636364
 40
0.6363636363636364
 40
0.6363636363636364
 40
0.7272727272727273
 40
0.7272727272727273
 40
0.7272727272727273
 40
0.8181818181818182
 40
0.8181818181818182
 40
0.8181818181818182
 40
0.9090909090909092
 40
0.9090909090909092
 40
0.9090909090909092
 40
1.0
 40
1.0
 40
1.0
 40
1.0
 10
-6.3875
 20
-12.3039
 30
0.0
 10
-6.3875
 20
-12.3039
 30
0.0
 10
-6.8097
 20
-12.3039
 30
0.0
 10
-6.8097
 20
-12.3039
 30
0.0
 10
-6.8097
 20
-12.3039
 30
0.0
 10
-6.8097
 20
-10.4349
 30
0.0
 10
-6.8097
 20
-10.4349
 30
0.0
 10
-6.8097
 20
-10.4349
 30
0.0
 10
-6.4284
 20
-10.4349
 30
0.0
 10
-6.4284
 20
-10.4349
 30
0.0
 10
-6.4284
 20
-10.4349
 30
0.0
 10
-6.4284
 20
-10.8807
 30
0.0
 10
-6.4284
 20
-10.8807
 30
0.0
 10
-6.3736
 20
-10.7067
 30
0.0
 10
-6.2995
 20
-10.5799
 30
0.0
 10
-6.205
 20
-10.5004
 30
0.0
 10
-6.1094
 20
-10.4199
 30
0.0
 10
-6.0127
 20
-10.3801
 30
0.0
 10
-5.9128
 20
-10.3801
 30
0.0
 10
-5.8988
 20
-10.3801
 30
0.0
 10
-5.8805
 20
-10.3801
 30
0.0
 10
-5.8569
 20
-10.3812
 30
0.0
 10
-5.8569
 20
-10.3812
 30
0.0
 10
-5.8569
 20
-10.8345
 30
0.0
 10
-5.8569
 20
-10.8345
 30
0.0
 10
-6.0718
 20
-10.8345
 30
0.0
 10
-6.2136
 20
-10.9032
 30
0.0
 10
-6.2834
 20
-11.0407
 30
0.0
 10
-6.3532
 20
-11.1771
 30
0.0
 10
-6.3875
 20
-11.3103
 30
0.0
 10
-6.3875
 20
-11.4381
 30
0.0
 10
-6.3875
 20
-11.4381
 30
0.0
 10
-6.3875
 20
-12.3039
 30
0.0
 10
-6.3875
 20
-12.3039
 30
0.0
  0
SPLINE
  5
7B
330
1F
100
AcDbEntity
  8
Layer 1
 62
   230
100
AcDbSpline
210
0.0
220
0.0
230
1.0
 70
    11
 71
     3
 72
    62
 73
    58
 74
     0
 42
0.0000000001
 43
0.0000000001
 40
0.0
 40
0.0
 40
0.0
 40
0.0
 40
0.0526315789473684
 40
0.0526315789473684
 40
0.0526315789473684
 40
0.1052631578947368
 40
0.1052631578947368
 40
0.1052631578947368
 40
0.1578947368421053
 40
0.1578947368421053
 40
0.1578947368421053
 40
0.2105263157894737
 40
0.2105263157894737
 40
0.2105263157894737
 40
0.2631578947368421
 40
0.2631578947368421
 40
0.2631578947368421
 40
0.3157894736842105
 40
0.3157894736842105
 40
0.3157894736842105
 40
0.3684210526315789
 40
0.3684210526315789
 40
0.3684210526315789
 40
0.4210526315789473
 40
0.4210526315789473
 40
0.4210526315789473
 40
0.4736842105263158
 40
0.4736842105263158
 40
0.4736842105263158
 40
0.5263157894736842
 40
0.5263157894736842
 40
0.5263157894736842
 40
0.5789473684210527
 40
0.5789473684210527
 40
0.5789473684210527
 40
0.631578947368421
 40
0.631578947368421
 40
0.631578947368421
 40
0.6842105263157894
 40
0.6842105263157894
 40
0.6842105263157894
 40
0.7368421052631579
 40
0.7368421052631579
 40
0.7368421052631579
 40
0.7894736842105263
 40
0.7894736842105263
 40
0.7894736842105263
 40
0.8421052631578947
 40
0.8421052631578947
 40
0.8421052631578947
 40
0.894736842105263
 40
0.894736842105263
 40
0.894736842105263
 40
0.9473684210526315
 40
0.9473684210526315
 40
0.9473684210526315
 40
1.0
 40
1.0
 40
1.0
 40
1.0
 10
-7.2579
 20
-12.3039
 30
0.0
 10
-7.2579
 20
-12.3039
 30
0.0
 10
-7.6596
 20
-12.3039
 30
0.0
 10
-7.6596
 20
-12.3039
 30
0.0
 10
-7.695
 20
-12.1911
 30
0.0
 10
-7.7166
 20
-12.0655
 30
0.0
 10
-7.7241
 20
-11.9268
 30
0.0
 10
-7.8368
 20
-12.204
 30
0.0
 10
-8.0474
 20
-12.3426
 30
0.0
 10
-8.3567
 20
-12.3426
 30
0.0
 10
-8.5426
 20
-12.3426
 30
0.0
 10
-8.6929
 20
-12.2877
 30
0.0
 10
-8.8057
 20
-12.1793
 30
0.0
 10
-8.9185
 20
-12.0698
 30
0.0
 10
-8.9743
 20
-11.9322
 30
0.0
 10
-8.9743
 20
-11.7668
 30
0.0
 10
-8.9743
 20
-11.3382
 30
0.0
 10
-8.5973
 20
-11.1234
 30
0.0
 10
-7.8444
 20
-11.1234
 30
0.0
 10
-7.8143
 20
-11.1234
 30
0.0
 10
-7.7745
 20
-11.1244
 30
0.0
 10
-7.7241
 20
-11.1256
 30
0.0
 10
-7.7241
 20
-11.1256
 30
0.0
 10
-7.7241
 20
-10.9848
 30
0.0
 10
-7.7241
 20
-10.9848
 30
0.0
 10
-7.7241
 20
-10.7904
 30
0.0
 10
-7.8562
 20
-10.6937
 30
0.0
 10
-8.1194
 20
-10.6937
 30
0.0
 10
-8.376
 20
-10.6937
 30
0.0
 10
-8.5221
 20
-10.7904
 30
0.0
 10
-8.5565
 20
-10.9848
 30
0.0
 10
-8.5565
 20
-10.9848
 30
0.0
 10
-8.9153
 20
-10.9311
 30
0.0
 10
-8.9153
 20
-10.9311
 30
0.0
 10
-8.8959
 20
-10.7754
 30
0.0
 10
-8.8164
 20
-10.6476
 30
0.0
 10
-8.6757
 20
-10.5477
 30
0.0
 10
-8.535
 20
-10.4467
 30
0.0
 10
-8.331
 20
-10.3962
 30
0.0
 10
-8.0645
 20
-10.3962
 30
0.0
 10
-7.9195
 20
-10.3962
 30
0.0
 10
-7.8025
 20
-10.4081
 30
0.0
 10
-7.7111
 20
-10.4327
 30
0.0
 10
-7.6198
 20
-10.4563
 30
0.0
 10
-7.5425
 20
-10.4972
 30
0.0
 10
-7.4802
 20
-10.5541
 30
0.0
 10
-7.4169
 20
-10.6111
 30
0.0
 10
-7.3738
 20
-10.6734
 30
0.0
 10
-7.3492
 20
-10.7411
 30
0.0
 10
-7.3244
 20
-10.8087
 30
0.0
 10
-7.3126
 20
-10.9226
 30
0.0
 10
-7.3126
 20
-11.0826
 30
0.0
 10
-7.3126
 20
-11.0826
 30
0.0
 10
-7.3126
 20
-11.9268
 30
0.0
 10
-7.3126
 20
-11.9268
 30
0.0
 10
-7.3126
 20
-12.0482
 30
0.0
 10
-7.2944
 20
-12.1739
 30
0.0
 10
-7.2579
 20
-12.3039
 30
0.0
  0
SPLINE
  5
7C
330
1F
100
AcDbEntity
  8
Layer 1
 62
   230
100
AcDbSpline
210
0.0
220
0.0
230
1.0
 70
    11
 71
     3
 72
    23
 73
    19
 74
     0
 42
0.0000000001
 43
0.0000000001
 40
0.0
 40
0.0
 40
0.0
 40
0.0
 40
0.1666666666666667
 40
0.1666666666666667
 40
0.1666666666666667
 40
0.3333333333333333
 40
0.3333333333333333
 40
0.3333333333333333
 40
0.5
 40
0.5
 40
0.5
 40
0.6666666666666666
 40
0.6666666666666666
 40
0.6666666666666666
 40
0.8333333333333333
 40
0.8333333333333333
 40
0.8333333333333333
 40
1.0
 40
1.0
 40
1.0
 40
1.0
 10
-7.7241
 20
-11.3533
 30
0.0
 10
-8.2686
 20
-11.3533
 30
0.0
 10
-8.5414
 20
-11.4833
 30
0.0
 10
-8.5414
 20
-11.7432
 30
0.0
 10
-8.5414
 20
-11.8216
 30
0.0
 10
-8.5146
 20
-11.8882
 30
0.0
 10
-8.4598
 20
-11.943
 30
0.0
 10
-8.405
 20
-11.9978
 30
0.0
 10
-8.3213
 20
-12.0246
 30
0.0
 10
-8.2106
 20
-12.0246
 30
0.0
 10
-8.0506
 20
-12.0246
 30
0.0
 10
-7.9292
 20
-11.9741
 30
0.0
 10
-7.8476
 20
-11.8721
 30
0.0
 10
-7.7648
 20
-11.7701
 30
0.0
 10
-7.7241
 20
-11.6551
 30
0.0
 10
-7.7241
 20
-11.5252
 30
0.0
 10
-7.7241
 20
-11.5252
 30
0.0
 10
-7.7241
 20
-11.3533
 30
0.0
 10
-7.7241
 20
-11.3533
 30
0.0
  0
SPLINE
  5
7D
330
1F
100
AcDbEntity
  8
Layer 1
 62
   230
100
AcDbSpline
210
0.0
220
0.0
230
1.0
 70
    11
 71
     3
 72
    44
 73
    40
 74
     0
 42
0.0000000001
 43
0.0000000001
 40
0.0
 40
0.0
 40
0.0
 40
0.0
 40
0.0769230769230769
 40
0.0769230769230769
 40
0.0769230769230769
 40
0.1538461538461539
 40
0.1538461538461539
 40
0.1538461538461539
 40
0.2307692307692308
 40
0.2307692307692308
 40
0.2307692307692308
 40
0.3076923076923077
 40
0.3076923076923077
 40
0.3076923076923077
 40
0.3846153846153846
 40
0.3846153846153846
 40
0.3846153846153846
 40
0.4615384615384616
 40
0.4615384615384616
 40
0.4615384615384616
 40
0.5384615384615385
 40
0.5384615384615385
 40
0.5384615384615385
 40
0.6153846153846154
 40
0.6153846153846154
 40
0.6153846153846154
 40
0.6923076923076923
 40
0.6923076923076923
 40
0.6923076923076923
 40
0.7692307692307693
 40
0.7692307692307693
 40
0.7692307692307693
 40
0.8461538461538463
 40
0.8461538461538463
 40
0.8461538461538463
 40
0.9230769230769231
 40
0.9230769230769231
 40
0.9230769230769231
 40
1.0
 40
1.0
 40
1.0
 40
1.0
 10
-9.1379
 20
-12.3039
 30
0.0
 10
-9.1379
 20
-12.3039
 30
0.0
 10
-9.647
 20
-12.3039
 30
0.0
 10
-9.647
 20
-12.3039
 30
0.0
 10
-9.647
 20
-12.3039
 30
0.0
 10
-10.1798
 20
-11.0182
 30
0.0
 10
-10.1798
 20
-11.0182
 30
0.0
 10
-10.1798
 20
-11.0182
 30
0.0
 10
-10.6685
 20
-11.6658
 30
0.0
 10
-10.6685
 20
-11.6658
 30
0.0
 10
-10.6685
 20
-11.6658
 30
0.0
 10
-10.6685
 20
-12.3039
 30
0.0
 10
-10.6685
 20
-12.3039
 30
0.0
 10
-10.6685
 20
-12.3039
 30
0.0
 10
-11.1239
 20
-12.3039
 30
0.0
 10
-11.1239
 20
-12.3039
 30
0.0
 10
-11.1239
 20
-12.3039
 30
0.0
 10
-11.1239
 20
-9.7786
 30
0.0
 10
-11.1239
 20
-9.7786
 30
0.0
 10
-11.1239
 20
-9.7786
 30
0.0
 10
-10.6685
 20
-9.7786
 30
0.0
 10
-10.6685
 20
-9.7786
 30
0.0
 10
-10.6685
 20
-9.7786
 30
0.0
 10
-10.6685
 20
-11.1051
 30
0.0
 10
-10.6685
 20
-11.1051
 30
0.0
 10
-10.6105
 20
-11.0149
 30
0.0
 10
-10.5686
 20
-10.9526
 30
0.0
 10
-10.5428
 20
-10.9183
 30
0.0
 10
-10.5428
 20
-10.9183
 30
0.0
 10
-9.704
 20
-9.7786
 30
0.0
 10
-9.704
 20
-9.7786
 30
0.0
 10
-9.704
 20
-9.7786
 30
0.0
 10
-9.2442
 20
-9.7786
 30
0.0
 10
-9.2442
 20
-9.7786
 30
0.0
 10
-9.2442
 20
-9.7786
 30
0.0
 10
-9.8436
 20
-10.6089
 30
0.0
 10
-9.8436
 20
-10.6089
 30
0.0
 10
-9.8436
 20
-10.6089
 30
0.0
 10
-9.1379
 20
-12.3039
 30
0.0
 10
-9.1379
 20
-12.3039
 30
0.0
  0
SPLINE
  5
7E
330
1F
100
AcDbEntity
  8
Layer 1
 62
   230
100
AcDbSpline
210
0.0
220
0.0
230
1.0
 70
    11
 71
     3
 72
    23
 73
    19
 74
     0
 42
0.0000000001
 43
0.0000000001
 40
0.0
 40
0.0
 40
0.0
 40
0.0
 40
0.1666666666666667
 40
0.1666666666666667
 40
0.1666666666666667
 40
0.3333333333333333
 40
0.3333333333333333
 40
0.3333333333333333
 40
0.5
 40
0.5
 40
0.5
 40
0.6666666666666666
 40
0.6666666666666666
 40
0.6666666666666666
 40
0.8333333333333333
 40
0.8333333333333333
 40
0.8333333333333333
 40
1.0
 40
1.0
 40
1.0
 40
1.0
 10
-4.4227
 20
-11.3533
 30
0.0
 10
-4.9673
 20
-11.3533
 30
0.0
 10
-5.2401
 20
-11.4833
 30
0.0
 10
-5.2401
 20
-11.7432
 30
0.0
 10
-5.2401
 20
-11.8216
 30
0.0
 10
-5.2132
 20
-11.8882
 30
0.0
 10
-5.1585
 20
-11.943
 30
0.0
 10
-5.1037
 20
-11.9978
 30
0.0
 10
-5.0199
 20
-12.0246
 30
0.0
 10
-4.9093
 20
-12.0246
 30
0.0
 10
-4.7493
 20
-12.0246
 30
0.0
 10
-4.6279
 20
-11.9741
 30
0.0
 10
-4.5463
 20
-11.8721
 30
0.0
 10
-4.4635
 20
-11.7701
 30
0.0
 10
-4.4227
 20
-11.6551
 30
0.0
 10
-4.4227
 20
-11.5252
 30
0.0
 10
-4.4227
 20
-11.5252
 30
0.0
 10
-4.4227
 20
-11.3533
 30
0.0
 10
-4.4227
 20
-11.3533
 30
0.0
  0
SPLINE
  5
7F
330
1F
100
AcDbEntity
  8
Layer 1
 62
   230
100
AcDbSpline
210
0.0
220
0.0
230
1.0
 70
    11
 71
     3
 72
    71
 73
    67
 74
     0
 42
0.0000000001
 43
0.0000000001
 40
0.0
 40
0.0
 40
0.0
 40
0.0
 40
0.0454545454545455
 40
0.0454545454545455
 40
0.0454545454545455
 40
0.0909090909090909
 40
0.0909090909090909
 40
0.0909090909090909
 40
0.1363636363636364
 40
0.1363636363636364
 40
0.1363636363636364
 40
0.1818181818181818
 40
0.1818181818181818
 40
0.1818181818181818
 40
0.2272727272727273
 40
0.2272727272727273
 40
0.2272727272727273
 40
0.2727272727272727
 40
0.2727272727272727
 40
0.2727272727272727
 40
0.3181818181818182
 40
0.3181818181818182
 40
0.3181818181818182
 40
0.3636363636363636
 40
0.3636363636363636
 40
0.3636363636363636
 40
0.4090909090909091
 40
0.4090909090909091
 40
0.4090909090909091
 40
0.4545454545454546
 40
0.4545454545454546
 40
0.4545454545454546
 40
0.5
 40
0.5
 40
0.5
 40
0.5454545454545454
 40
0.5454545454545454
 40
0.5454545454545454
 40
0.5909090909090909
 40
0.5909090909090909
 40
0.5909090909090909
 40
0.6363636363636364
 40
0.6363636363636364
 40
0.6363636363636364
 40
0.6818181818181819
 40
0.6818181818181819
 40
0.6818181818181819
 40
0.7272727272727273
 40
0.7272727272727273
 40
0.7272727272727273
 40
0.7727272727272727
 40
0.7727272727272727
 40
0.7727272727272727
 40
0.8181818181818182
 40
0.8181818181818182
 40
0.8181818181818182
 40
0.8636363636363636
 40
0.8636363636363636
 40
0.8636363636363636
 40
0.9090909090909092
 40
0.9090909090909092
 40
0.9090909090909092
 40
0.9545454545454546
 40
0.9545454545454546
 40
0.9545454545454546
 40
1.0
 40
1.0
 40
1.0
 40
1.0
 10
-0.7159
 20
-12.3039
 30
0.0
 10
-0.7159
 20
-12.3039
 30
0.0
 10
-1.1584
 20
-12.3039
 30
0.0
 10
-1.1584
 20
-12.3039
 30
0.0
 10
-1.1584
 20
-12.3039
 30
0.0
 10
-1.1584
 20
-11.1406
 30
0.0
 10
-1.1584
 20
-11.1406
 30
0.0
 10
-1.1584
 20
-10.8989
 30
0.0
 10
-1.2658
 20
-10.7775
 30
0.0
 10
-1.4806
 20
-10.7775
 30
0.0
 10
-1.6053
 20
-10.7775
 30
0.0
 10
-1.7052
 20
-10.8237
 30
0.0
 10
-1.7793
 20
-10.915
 30
0.0
 10
-1.8534
 20
-11.0064
 30
0.0
 10
-1.891
 20
-11.1417
 30
0.0
 10
-1.891
 20
-11.3232
 30
0.0
 10
-1.891
 20
-11.3232
 30
0.0
 10
-1.891
 20
-12.3039
 30
0.0
 10
-1.891
 20
-12.3039
 30
0.0
 10
-1.891
 20
-12.3039
 30
0.0
 10
-2.3389
 20
-12.3039
 30
0.0
 10
-2.3389
 20
-12.3039
 30
0.0
 10
-2.3389
 20
-12.3039
 30
0.0
 10
-2.3389
 20
-11.1406
 30
0.0
 10
-2.3389
 20
-11.1406
 30
0.0
 10
-2.3389
 20
-10.8947
 30
0.0
 10
-2.4399
 20
-10.7722
 30
0.0
 10
-2.6407
 20
-10.7722
 30
0.0
 10
-2.7621
 20
-10.7722
 30
0.0
 10
-2.8652
 20
-10.8216
 30
0.0
 10
-2.949
 20
-10.9204
 30
0.0
 10
-3.0317
 20
-11.0182
 30
0.0
 10
-3.0736
 20
-11.1524
 30
0.0
 10
-3.0736
 20
-11.3232
 30
0.0
 10
-3.0736
 20
-11.3232
 30
0.0
 10
-3.0736
 20
-12.3039
 30
0.0
 10
-3.0736
 20
-12.3039
 30
0.0
 10
-3.0736
 20
-12.3039
 30
0.0
 10
-3.5086
 20
-12.3039
 30
0.0
 10
-3.5086
 20
-12.3039
 30
0.0
 10
-3.5086
 20
-12.3039
 30
0.0
 10
-3.5086
 20
-10.4349
 30
0.0
 10
-3.5086
 20
-10.4349
 30
0.0
 10
-3.5086
 20
-10.4349
 30
0.0
 10
-3.0994
 20
-10.4349
 30
0.0
 10
-3.0994
 20
-10.4349
 30
0.0
 10
-3.0994
 20
-10.4349
 30
0.0
 10
-3.0994
 20
-10.8334
 30
0.0
 10
-3.0994
 20
-10.8334
 30
0.0
 10
-2.9662
 20
-10.5423
 30
0.0
 10
-2.7589
 20
-10.3962
 30
0.0
 10
-2.4763
 20
-10.3962
 30
0.0
 10
-2.2004
 20
-10.3962
 30
0.0
 10
-2.022
 20
-10.5423
 30
0.0
 10
-1.9393
 20
-10.8334
 30
0.0
 10
-1.7889
 20
-10.5423
 30
0.0
 10
-1.5816
 20
-10.3962
 30
0.0
 10
-1.3163
 20
-10.3962
 30
0.0
 10
-1.1358
 20
-10.3962
 30
0.0
 10
-0.9909
 20
-10.4521
 30
0.0
 10
-0.8813
 20
-10.5649
 30
0.0
 10
-0.7706
 20
-10.6776
 30
0.0
 10
-0.7159
 20
-10.8162
 30
0.0
 10
-0.7159
 20
-10.9827
 30
0.0
 10
-0.7159
 20
-10.9827
 30
0.0
 10
-0.7159
 20
-12.3039
 30
0.0
 10
-0.7159
 20
-12.3039
 30
0.0
  0
SPLINE
  5
80
330
1F
100
AcDbEntity
  8
Layer 1
 62
   230
100
AcDbSpline
210
0.0
220
0.0
230
1.0
 70
    11
 71
     3
 72
    17
 73
    13
 74
     0
 42
0.0000000001
 43
0.0000000001
 40
0.0
 40
0.0
 40
0.0
 40
0.0
 40
0.25
 40
0.25
 40
0.25
 40
0.5
 40
0.5
 40
0.5
 40
0.75
 40
0.75
 40
0.75
 40
1.0
 40
1.0
 40
1.0
 40
1.0
 10
0.2111
 20
-10.2168
 30
0.0
 10
0.2111
 20
-10.2168
 30
0.0
 10
-0.211
 20
-10.2168
 30
0.0
 10
-0.211
 20
-10.2168
 30
0.0
 10
-0.211
 20
-10.2168
 30
0.0
 10
-0.211
 20
-9.7786
 30
0.0
 10
-0.211
 20
-9.7786
 30
0.0
 10
-0.211
 20
-9.7786
 30
0.0
 10
0.2111
 20
-9.7786
 30
0.0
 10
0.2111
 20
-9.7786
 30
0.0
 10
0.2111
 20
-9.7786
 30
0.0
 10
0.2111
 20
-10.2168
 30
0.0
 10
0.2111
 20
-10.2168
 30
0.0
  0
SPLINE
  5
81
330
1F
100
AcDbEntity
  8
Layer 1
 62
   230
100
AcDbSpline
210
0.0
220
0.0
230
1.0
 70
    11
 71
     3
 72
    17
 73
    13
 74
     0
 42
0.0000000001
 43
0.0000000001
 40
0.0
 40
0.0
 40
0.0
 40
0.0
 40
0.25
 40
0.25
 40
0.25
 40
0.5
 40
0.5
 40
0.5
 40
0.75
 40
0.75
 40
0.75
 40
1.0
 40
1.0
 40
1.0
 40
1.0
 10
0.2111
 20
-12.3039
 30
0.0
 10
0.2111
 20
-12.3039
 30
0.0
 10
-0.211
 20
-12.3039
 30
0.0
 10
-0.211
 20
-12.3039
 30
0.0
 10
-0.211
 20
-12.3039
 30
0.0
 10
-0.211
 20
-10.4349
 30
0.0
 10
-0.211
 20
-10.4349
 30
0.0
 10
-0.211
 20
-10.4349
 30
0.0
 10
0.2111
 20
-10.4349
 30
0.0
 10
0.2111
 20
-10.4349
 30
0.0
 10
0.2111
 20
-10.4349
 30
0.0
 10
0.2111
 20
-12.3039
 30
0.0
 10
0.2111
 20
-12.3039
 30
0.0
  0
SPLINE
  5
82
330
1F
100
AcDbEntity
  8
Layer 1
 62
   230
100
AcDbSpline
210
0.0
220
0.0
230
1.0
 70
    11
 71
     3
 72
    17
 73
    13
 74
     0
 42
0.0000000001
 43
0.0000000001
 40
0.0
 40
0.0
 40
0.0
 40
0.0
 40
0.25
 40
0.25
 40
0.25
 40
0.5
 40
0.5
 40
0.5
 40
0.75
 40
0.75
 40
0.75
 40
1.0
 40
1.0
 40
1.0
 40
1.0
 10
2.0855
 20
-10.2168
 30
0.0
 10
2.0855
 20
-10.2168
 30
0.0
 10
1.6633
 20
-10.2168
 30
0.0
 10
1.6633
 20
-10.2168
 30
0.0
 10
1.6633
 20
-10.2168
 30
0.0
 10
1.6633
 20
-9.7786
 30
0.0
 10
1.6633
 20
-9.7786
 30
0.0
 10
1.6633
 20
-9.7786
 30
0.0
 10
2.0855
 20
-9.7786
 30
0.0
 10
2.0855
 20
-9.7786
 30
0.0
 10
2.0855
 20
-9.7786
 30
0.0
 10
2.0855
 20
-10.2168
 30
0.0
 10
2.0855
 20
-10.2168
 30
0.0
  0
SPLINE
  5
83
330
1F
100
AcDbEntity
  8
Layer 1
 62
   230
100
AcDbSpline
210
0.0
220
0.0
230
1.0
 70
    11
 71
     3
 72
    32
 73
    28
 74
     0
 42
0.0000000001
 43
0.0000000001
 40
0.0
 40
0.0
 40
0.0
 40
0.0
 40
0.1111111111111111
 40
0.1111111111111111
 40
0.1111111111111111
 40
0.2222222222222222
 40
0.2222222222222222
 40
0.2222222222222222
 40
0.3333333333333333
 40
0.3333333333333333
 40
0.3333333333333333
 40
0.4444444444444444
 40
0.4444444444444444
 40
0.4444444444444444
 40
0.5555555555555556
 40
0.5555555555555556
 40
0.5555555555555556
 40
0.6666666666666666
 40
0.6666666666666666
 40
0.6666666666666666
 40
0.7777777777777777
 40
0.7777777777777777
 40
0.7777777777777777
 40
0.8888888888888888
 40
0.8888888888888888
 40
0.8888888888888888
 40
1.0
 40
1.0
 40
1.0
 40
1.0
 10
2.0855
 20
-10.4349
 30
0.0
 10
2.0855
 20
-10.4349
 30
0.0
 10
2.0855
 20
-12.2738
 30
0.0
 10
2.0855
 20
-12.2738
 30
0.0
 10
2.0855
 20
-12.7411
 30
0.0
 10
1.8717
 20
-12.9741
 30
0.0
 10
1.4432
 20
-12.9741
 30
0.0
 10
1.3776
 20
-12.9741
 30
0.0
 10
1.3057
 20
-12.9666
 30
0.0
 10
1.2272
 20
-12.9516
 30
0.0
 10
1.2272
 20
-12.9516
 30
0.0
 10
1.2272
 20
-12.5939
 30
0.0
 10
1.2272
 20
-12.5939
 30
0.0
 10
1.2799
 20
-12.6004
 30
0.0
 10
1.325
 20
-12.6036
 30
0.0
 10
1.3615
 20
-12.6036
 30
0.0
 10
1.4786
 20
-12.6036
 30
0.0
 10
1.558
 20
-12.581
 30
0.0
 10
1.5999
 20
-12.5369
 30
0.0
 10
1.6418
 20
-12.4929
 30
0.0
 10
1.6633
 20
-12.4049
 30
0.0
 10
1.6633
 20
-12.2738
 30
0.0
 10
1.6633
 20
-12.2738
 30
0.0
 10
1.6633
 20
-10.4349
 30
0.0
 10
1.6633
 20
-10.4349
 30
0.0
 10
1.6633
 20
-10.4349
 30
0.0
 10
2.0855
 20
-10.4349
 30
0.0
 10
2.0855
 20
-10.4349
 30
0.0
  0
SPLINE
  5
84
330
1F
100
AcDbEntity
  8
Layer 1
 62
   230
100
AcDbSpline
210
0.0
220
0.0
230
1.0
 70
    11
 71
     3
 72
    50
 73
    46
 74
     0
 42
0.0000000001
 43
0.0000000001
 40
0.0
 40
0.0
 40
0.0
 40
0.0
 40
0.0666666666666667
 40
0.0666666666666667
 40
0.0666666666666667
 40
0.1333333333333333
 40
0.1333333333333333
 40
0.1333333333333333
 40
0.2
 40
0.2
 40
0.2
 40
0.2666666666666667
 40
0.2666666666666667
 40
0.2666666666666667
 40
0.3333333333333333
 40
0.3333333333333333
 40
0.3333333333333333
 40
0.4
 40
0.4
 40
0.4
 40
0.4666666666666667
 40
0.4666666666666667
 40
0.4666666666666667
 40
0.5333333333333333
 40
0.5333333333333333
 40
0.5333333333333333
 40
0.6
 40
0.6
 40
0.6
 40
0.6666666666666666
 40
0.6666666666666666
 40
0.6666666666666666
 40
0.7333333333333333
 40
0.7333333333333333
 40
0.7333333333333333
 40
0.8
 40
0.8
 40
0.8
 40
0.8666666666666667
 40
0.8666666666666667
 40
0.8666666666666667
 40
0.9333333333333333
 40
0.9333333333333333
 40
0.9333333333333333
 40
1.0
 40
1.0
 40
1.0
 40
1.0
 10
3.7804
 20
-11.7077
 30
0.0
 10
3.7804
 20
-11.7077
 30
0.0
 10
4.1618
 20
-11.7604
 30
0.0
 10
4.1618
 20
-11.7604
 30
0.0
 10
4.1124
 20
-11.929
 30
0.0
 10
4.0157
 20
-12.0686
 30
0.0
 10
3.8728
 20
-12.1782
 30
0.0
 10
3.73
 20
-12.2877
 30
0.0
 10
3.5506
 20
-12.3426
 30
0.0
 10
3.3347
 20
-12.3426
 30
0.0
 10
3.0758
 20
-12.3426
 30
0.0
 10
2.8664
 20
-12.2555
 30
0.0
 10
2.7085
 20
-12.0816
 30
0.0
 10
2.5506
 20
-11.9075
 30
0.0
 10
2.4722
 20
-11.6723
 30
0.0
 10
2.4722
 20
-11.3748
 30
0.0
 10
2.4722
 20
-11.0923
 30
0.0
 10
2.5516
 20
-10.8591
 30
0.0
 10
2.7106
 20
-10.6744
 30
0.0
 10
2.8696
 20
-10.4886
 30
0.0
 10
3.0855
 20
-10.3962
 30
0.0
 10
3.3583
 20
-10.3962
 30
0.0
 10
3.6247
 20
-10.3962
 30
0.0
 10
3.831
 20
-10.4876
 30
0.0
 10
3.9759
 20
-10.6701
 30
0.0
 10
4.122
 20
-10.8528
 30
0.0
 10
4.195
 20
-11.0869
 30
0.0
 10
4.195
 20
-11.3737
 30
0.0
 10
4.195
 20
-11.3737
 30
0.0
 10
4.1929
 20
-11.421
 30
0.0
 10
4.1929
 20
-11.421
 30
0.0
 10
4.1929
 20
-11.421
 30
0.0
 10
2.9104
 20
-11.421
 30
0.0
 10
2.9104
 20
-11.421
 30
0.0
 10
2.9104
 20
-11.5488
 30
0.0
 10
2.9222
 20
-11.6508
 30
0.0
 10
2.9459
 20
-11.727
 30
0.0
 10
2.9705
 20
-11.8033
 30
0.0
 10
3.0178
 20
-11.87
 30
0.0
 10
3.0898
 20
-11.9268
 30
0.0
 10
3.1617
 20
-11.9838
 30
0.0
 10
3.2509
 20
-12.0118
 30
0.0
 10
3.3583
 20
-12.0118
 30
0.0
 10
3.5667
 20
-12.0118
 30
0.0
 10
3.7074
 20
-11.9107
 30
0.0
 10
3.7804
 20
-11.7077
 30
0.0
  0
SPLINE
  5
85
330
1F
100
AcDbEntity
  8
Layer 1
 62
   230
100
AcDbSpline
210
0.0
220
0.0
230
1.0
 70
    11
 71
     3
 72
    20
 73
    16
 74
     0
 42
0.0000000001
 43
0.0000000001
 40
0.0
 40
0.0
 40
0.0
 40
0.0
 40
0.2
 40
0.2
 40
0.2
 40
0.4
 40
0.4
 40
0.4
 40
0.6000000000000001
 40
0.6000000000000001
 40
0.6000000000000001
 40
0.8
 40
0.8
 40
0.8
 40
1.0
 40
1.0
 40
1.0
 40
1.0
 10
3.7547
 20
-11.1492
 30
0.0
 10
3.7536
 20
-11.0149
 30
0.0
 10
3.7128
 20
-10.9053
 30
0.0
 10
3.6333
 20
-10.8205
 30
0.0
 10
3.5538
 20
-10.7356
 30
0.0
 10
3.455
 20
-10.6927
 30
0.0
 10
3.3379
 20
-10.6927
 30
0.0
 10
3.2219
 20
-10.6927
 30
0.0
 10
3.1253
 20
-10.7324
 30
0.0
 10
3.0468
 20
-10.8119
 30
0.0
 10
2.9695
 20
-10.8914
 30
0.0
 10
2.9243
 20
-11.0042
 30
0.0
 10
2.9104
 20
-11.1492
 30
0.0
 10
2.9104
 20
-11.1492
 30
0.0
 10
3.7547
 20
-11.1492
 30
0.0
 10
3.7547
 20
-11.1492
 30
0.0
  0
SPLINE
  5
86
330
1F
100
AcDbEntity
  8
Layer 1
 62
   230
100
AcDbSpline
210
0.0
220
0.0
230
1.0
 70
    11
 71
     3
 72
    59
 73
    55
 74
     0
 42
0.0000000001
 43
0.0000000001
 40
0.0
 40
0.0
 40
0.0
 40
0.0
 40
0.0555555555555556
 40
0.0555555555555556
 40
0.0555555555555556
 40
0.1111111111111111
 40
0.1111111111111111
 40
0.1111111111111111
 40
0.1666666666666667
 40
0.1666666666666667
 40
0.1666666666666667
 40
0.2222222222222222
 40
0.2222222222222222
 40
0.2222222222222222
 40
0.2777777777777778
 40
0.2777777777777778
 40
0.2777777777777778
 40
0.3333333333333333
 40
0.3333333333333333
 40
0.3333333333333333
 40
0.3888888888888888
 40
0.3888888888888888
 40
0.3888888888888888
 40
0.4444444444444444
 40
0.4444444444444444
 40
0.4444444444444444
 40
0.5
 40
0.5
 40
0.5
 40
0.5555555555555556
 40
0.5555555555555556
 40
0.5555555555555556
 40
0.611111111111111
 40
0.611111111111111
 40
0.611111111111111
 40
0.6666666666666666
 40
0.6666666666666666
 40
0.6666666666666666
 40
0.7222222222222222
 40
0.7222222222222222
 40
0.7222222222222222
 40
0.7777777777777777
 40
0.7777777777777777
 40
0.7777777777777777
 40
0.8333333333333333
 40
0.8333333333333333
 40
0.8333333333333333
 40
0.8888888888888888
 40
0.8888888888888888
 40
0.8888888888888888
 40
0.9444444444444444
 40
0.9444444444444444
 40
0.9444444444444444
 40
1.0
 40
1.0
 40
1.0
 40
1.0
 10
-11.0611
 20
-16.1396
 30
0.0
 10
-11.0611
 20
-16.3521
 30
0.0
 10
-10.9403
 20
-16.4584
 30
0.0
 10
-10.6972
 20
-16.4584
 30
0.0
 10
-10.6113
 20
-16.4584
 30
0.0
 10
-10.5268
 20
-16.4482
 30
0.0
 10
-10.4438
 20
-16.4278
 30
0.0
 10
-10.3463
 20
-16.4045
 30
0.0
 10
-10.2502
 20
-16.3681
 30
0.0
 10
-10.1526
 20
-16.3172
 30
0.0
 10
-10.189
 20
-16.1789
 30
0.0
 10
-10.2662
 20
-16.0478
 30
0.0
 10
-10.3812
 20
-15.9255
 30
0.0
 10
-10.4904
 20
-15.812
 30
0.0
 10
-10.6346
 20
-15.7057
 30
0.0
 10
-10.8151
 20
-15.6052
 30
0.0
 10
-10.9068
 20
-15.5543
 30
0.0
 10
-10.9534
 20
-15.5048
 30
0.0
 10
-10.9534
 20
-15.4567
 30
0.0
 10
-10.9534
 20
-15.4189
 30
0.0
 10
-10.9388
 20
-15.365
 30
0.0
 10
-10.9083
 20
-15.2937
 30
0.0
 10
-10.8835
 20
-15.2354
 30
0.0
 10
-10.8442
 20
-15.1612
 30
0.0
 10
-10.7933
 20
-15.0709
 30
0.0
 10
-10.7933
 20
-15.0709
 30
0.0
 10
-10.7758
 20
-15.0709
 30
0.0
 10
-10.7758
 20
-15.0709
 30
0.0
 10
-10.652
 20
-15.1495
 30
0.0
 10
-10.5414
 20
-15.2296
 30
0.0
 10
-10.4438
 20
-15.3097
 30
0.0
 10
-10.3317
 20
-15.4029
 30
0.0
 10
-10.2313
 20
-15.5033
 30
0.0
 10
-10.1425
 20
-15.6096
 30
0.0
 10
-9.9896
 20
-15.7945
 30
0.0
 10
-9.9124
 20
-16.0027
 30
0.0
 10
-9.9124
 20
-16.2371
 30
0.0
 10
-9.9124
 20
-16.4031
 30
0.0
 10
-9.9546
 20
-16.5603
 30
0.0
 10
-10.0376
 20
-16.7088
 30
0.0
 10
-10.2487
 20
-16.8733
 30
0.0
 10
-10.4817
 20
-16.9563
 30
0.0
 10
-10.7394
 20
-16.9563
 30
0.0
 10
-11.0713
 20
-16.9563
 30
0.0
 10
-11.2373
 20
-16.7758
 30
0.0
 10
-11.2373
 20
-16.4133
 30
0.0
 10
-11.2373
 20
-16.371
 30
0.0
 10
-11.2359
 20
-16.3303
 30
0.0
 10
-11.2344
 20
-16.2895
 30
0.0
 10
-11.23
 20
-16.24
 30
0.0
 10
-11.2257
 20
-16.1905
 30
0.0
 10
-11.2213
 20
-16.1396
 30
0.0
 10
-11.2213
 20
-16.1396
 30
0.0
 10
-11.0611
 20
-16.1396
 30
0.0
 10
-11.0611
 20
-16.1396
 30
0.0
  0
SPLINE
  5
87
330
1F
100
AcDbEntity
  8
Layer 1
 62
   230
100
AcDbSpline
210
0.0
220
0.0
230
1.0
 70
    11
 71
     3
 72
   137
 73
   133
 74
     0
 42
0.0000000001
 43
0.0000000001
 40
0.0
 40
0.0
 40
0.0
 40
0.0
 40
0.0227272727272727
 40
0.0227272727272727
 40
0.0227272727272727
 40
0.0454545454545455
 40
0.0454545454545455
 40
0.0454545454545455
 40
0.0681818181818182
 40
0.0681818181818182
 40
0.0681818181818182
 40
0.0909090909090909
 40
0.0909090909090909
 40
0.0909090909090909
 40
0.1136363636363636
 40
0.1136363636363636
 40
0.1136363636363636
 40
0.1363636363636364
 40
0.1363636363636364
 40
0.1363636363636364
 40
0.1590909090909091
 40
0.1590909090909091
 40
0.1590909090909091
 40
0.1818181818181818
 40
0.1818181818181818
 40
0.1818181818181818
 40
0.2045454545454546
 40
0.2045454545454546
 40
0.2045454545454546
 40
0.2272727272727273
 40
0.2272727272727273
 40
0.2272727272727273
 40
0.25
 40
0.25
 40
0.25
 40
0.2727272727272727
 40
0.2727272727272727
 40
0.2727272727272727
 40
0.2954545454545455
 40
0.2954545454545455
 40
0.2954545454545455
 40
0.3181818181818182
 40
0.3181818181818182
 40
0.3181818181818182
 40
0.3409090909090909
 40
0.3409090909090909
 40
0.3409090909090909
 40
0.3636363636363636
 40
0.3636363636363636
 40
0.3636363636363636
 40
0.3863636363636364
 40
0.3863636363636364
 40
0.3863636363636364
 40
0.4090909090909091
 40
0.4090909090909091
 40
0.4090909090909091
 40
0.4318181818181818
 40
0.4318181818181818
 40
0.4318181818181818
 40
0.4545454545454546
 40
0.4545454545454546
 40
0.4545454545454546
 40
0.4772727272727273
 40
0.4772727272727273
 40
0.4772727272727273
 40
0.5
 40
0.5
 40
0.5
 40
0.5227272727272727
 40
0.5227272727272727
 40
0.5227272727272727
 40
0.5454545454545454
 40
0.5454545454545454
 40
0.5454545454545454
 40
0.5681818181818182
 40
0.5681818181818182
 40
0.5681818181818182
 40
0.5909090909090909
 40
0.5909090909090909
 40
0.5909090909090909
 40
0.6136363636363636
 40
0.6136363636363636
 40
0.6136363636363636
 40
0.6363636363636364
 40
0.6363636363636364
 40
0.6363636363636364
 40
0.6590909090909091
 40
0.6590909090909091
 40
0.6590909090909091
 40
0.6818181818181819
 40
0.6818181818181819
 40
0.6818181818181819
 40
0.7045454545454546
 40
0.7045454545454546
 40
0.7045454545454546
 40
0.7272727272727273
 40
0.7272727272727273
 40
0.7272727272727273
 40
0.75
 40
0.75
 40
0.75
 40
0.7727272727272727
 40
0.7727272727272727
 40
0.7727272727272727
 40
0.7954545454545455
 40
0.7954545454545455
 40
0.7954545454545455
 40
0.8181818181818182
 40
0.8181818181818182
 40
0.8181818181818182
 40
0.8409090909090909
 40
0.8409090909090909
 40
0.8409090909090909
 40
0.8636363636363636
 40
0.8636363636363636
 40
0.8636363636363636
 40
0.8863636363636364
 40
0.8863636363636364
 40
0.8863636363636364
 40
0.9090909090909092
 40
0.9090909090909092
 40
0.9090909090909092
 40
0.9318181818181819
 40
0.9318181818181819
 40
0.9318181818181819
 40
0.9545454545454546
 40
0.9545454545454546
 40
0.9545454545454546
 40
0.9772727272727273
 40
0.9772727272727273
 40
0.9772727272727273
 40
1.0
 40
1.0
 40
1.0
 40
1.0
 10
-8.5391
 20
-16.9243
 30
0.0
 10
-8.5391
 20
-16.9243
 30
0.0
 10
-8.542
 20
-16.9243
 30
0.0
 10
-8.542
 20
-16.9243
 30
0.0
 10
-8.542
 20
-16.9243
 30
0.0
 10
-8.5445
 20
-16.9243
 30
0.0
 10
-8.5445
 20
-16.9243
 30
0.0
 10
-8.5445
 20
-16.9243
 30
0.0
 10
-8.5813
 20
-16.9243
 30
0.0
 10
-8.5813
 20
-16.9243
 30
0.0
 10
-8.6293
 20
-16.9243
 30
0.0
 10
-8.6759
 20
-16.9199
 30
0.0
 10
-8.7225
 20
-16.9097
 30
0.0
 10
-8.756
 20
-16.9025
 30
0.0
 10
-8.7953
 20
-16.8923
 30
0.0
 10
-8.8419
 20
-16.8763
 30
0.0
 10
-8.8419
 20
-16.9942
 30
0.0
 10
-8.8579
 20
-17.1019
 30
0.0
 10
-8.89
 20
-17.2024
 30
0.0
 10
-8.9147
 20
-17.2781
 30
0.0
 10
-8.954
 20
-17.3582
 30
0.0
 10
-9.005
 20
-17.4441
 30
0.0
 10
-9.0792
 20
-17.5591
 30
0.0
 10
-9.1549
 20
-17.6464
 30
0.0
 10
-9.2336
 20
-17.7061
 30
0.0
 10
-9.3209
 20
-17.7731
 30
0.0
 10
-9.4141
 20
-17.8066
 30
0.0
 10
-9.5116
 20
-17.8066
 30
0.0
 10
-9.7053
 20
-17.8066
 30
0.0
 10
-9.928
 20
-17.7236
 30
0.0
 10
-10.1799
 20
-17.5591
 30
0.0
 10
-10.1799
 20
-17.5591
 30
0.0
 10
-10.1246
 20
-17.4339
 30
0.0
 10
-10.1246
 20
-17.4339
 30
0.0
 10
-10.0416
 20
-17.4615
 30
0.0
 10
-9.9659
 20
-17.4761
 30
0.0
 10
-9.8989
 20
-17.4761
 30
0.0
 10
-9.698
 20
-17.4761
 30
0.0
 10
-9.516
 20
-17.3989
 30
0.0
 10
-9.3515
 20
-17.2446
 30
0.0
 10
-9.1899
 20
-17.0976
 30
0.0
 10
-9.0923
 20
-16.9389
 30
0.0
 10
-9.0588
 20
-16.7656
 30
0.0
 10
-9.1637
 20
-16.6302
 30
0.0
 10
-9.2568
 20
-16.4759
 30
0.0
 10
-9.3369
 20
-16.3026
 30
0.0
 10
-9.3049
 20
-16.2284
 30
0.0
 10
-9.2758
 20
-16.1629
 30
0.0
 10
-9.2481
 20
-16.1061
 30
0.0
 10
-9.2175
 20
-16.0406
 30
0.0
 10
-9.1884
 20
-15.9823
 30
0.0
 10
-9.1578
 20
-15.9314
 30
0.0
 10
-9.1578
 20
-15.9314
 30
0.0
 10
-9.1214
 20
-15.9314
 30
0.0
 10
-9.1214
 20
-15.9314
 30
0.0
 10
-9.085
 20
-16.0114
 30
0.0
 10
-9.0516
 20
-16.0784
 30
0.0
 10
-9.021
 20
-16.1323
 30
0.0
 10
-8.9817
 20
-16.1934
 30
0.0
 10
-8.9424
 20
-16.2444
 30
0.0
 10
-8.9031
 20
-16.2851
 30
0.0
 10
-8.8142
 20
-16.3769
 30
0.0
 10
-8.7036
 20
-16.422
 30
0.0
 10
-8.574
 20
-16.422
 30
0.0
 10
-8.574
 20
-16.422
 30
0.0
 10
-8.5417
 20
-16.422
 30
0.0
 10
-8.5417
 20
-16.422
 30
0.0
 10
-8.5417
 20
-16.422
 30
0.0
 10
-8.5391
 20
-16.422
 30
0.0
 10
-8.5391
 20
-16.422
 30
0.0
 10
-8.5391
 20
-16.422
 30
0.0
 10
-8.5041
 20
-16.422
 30
0.0
 10
-8.5041
 20
-16.422
 30
0.0
 10
-8.4299
 20
-16.422
 30
0.0
 10
-8.3585
 20
-16.4002
 30
0.0
 10
-8.2887
 20
-16.3579
 30
0.0
 10
-8.245
 20
-16.3303
 30
0.0
 10
-8.2086
 20
-16.2866
 30
0.0
 10
-8.178
 20
-16.2269
 30
0.0
 10
-8.1664
 20
-16.2036
 30
0.0
 10
-8.1547
 20
-16.176
 30
0.0
 10
-8.1431
 20
-16.1425
 30
0.0
 10
-8.1431
 20
-16.1425
 30
0.0
 10
-8.0732
 20
-15.9459
 30
0.0
 10
-8.0732
 20
-15.9459
 30
0.0
 10
-8.0601
 20
-15.9081
 30
0.0
 10
-8.0455
 20
-15.8746
 30
0.0
 10
-8.0295
 20
-15.844
 30
0.0
 10
-7.9931
 20
-15.7683
 30
0.0
 10
-7.9465
 20
-15.7057
 30
0.0
 10
-7.8926
 20
-15.6547
 30
0.0
 10
-7.7864
 20
-15.5572
 30
0.0
 10
-7.6757
 20
-15.5077
 30
0.0
 10
-7.5607
 20
-15.5077
 30
0.0
 10
-7.4631
 20
-15.5077
 30
0.0
 10
-7.3743
 20
-15.5426
 30
0.0
 10
-7.2972
 20
-15.6125
 30
0.0
 10
-7.2302
 20
-15.6707
 30
0.0
 10
-7.172
 20
-15.7537
 30
0.0
 10
-7.1239
 20
-15.8615
 30
0.0
 10
-7.0846
 20
-15.9517
 30
0.0
 10
-7.0526
 20
-16.0522
 30
0.0
 10
-7.0293
 20
-16.1643
 30
0.0
 10
-7.0103
 20
-16.2589
 30
0.0
 10
-7.0016
 20
-16.3463
 30
0.0
 10
-7.0016
 20
-16.4249
 30
0.0
 10
-7.0016
 20
-16.4293
 30
0.0
 10
-7.0031
 20
-16.4395
 30
0.0
 10
-7.0074
 20
-16.4555
 30
0.0
 10
-7.0103
 20
-16.4744
 30
0.0
 10
-7.0147
 20
-16.4933
 30
0.0
 10
-7.022
 20
-16.5152
 30
0.0
 10
-7.038
 20
-16.5749
 30
0.0
 10
-7.0613
 20
-16.6273
 30
0.0
 10
-7.089
 20
-16.6753
 30
0.0
 10
-7.1254
 20
-16.7423
 30
0.0
 10
-7.169
 20
-16.7947
 30
0.0
 10
-7.2171
 20
-16.8311
 30
0.0
 10
-7.2797
 20
-16.8777
 30
0.0
 10
-7.3481
 20
-16.901
 30
0.0
 10
-7.4253
 20
-16.901
 30
0.0
 10
-7.6364
 20
-16.901
 30
0.0
 10
-7.8562
 20
-16.8107
 30
0.0
 10
-8.0877
 20
-16.6287
 30
0.0
 10
-8.0877
 20
-16.6287
 30
0.0
 10
-8.095
 20
-16.6287
 30
0.0
 10
-8.095
 20
-16.6287
 30
0.0
 10
-8.1707
 20
-16.8253
 30
0.0
 10
-8.309
 20
-16.9243
 30
0.0
 10
-8.5085
 20
-16.9243
 30
0.0
 10
-8.5085
 20
-16.9243
 30
0.0
 10
-8.5391
 20
-16.9243
 30
0.0
 10
-8.5391
 20
-16.9243
 30
0.0
  0
SPLINE
  5
88
330
1F
100
AcDbEntity
  8
Layer 1
 62
   230
100
AcDbSpline
210
0.0
220
0.0
230
1.0
 70
    11
 71
     3
 72
    17
 73
    13
 74
     0
 42
0.0000000001
 43
0.0000000001
 40
0.0
 40
0.0
 40
0.0
 40
0.0
 40
0.25
 40
0.25
 40
0.25
 40
0.5
 40
0.5
 40
0.5
 40
0.75
 40
0.75
 40
0.75
 40
1.0
 40
1.0
 40
1.0
 40
1.0
 10
-7.3525
 20
-16.422
 30
0.0
 10
-7.3015
 20
-16.422
 30
0.0
 10
-7.2753
 20
-16.4147
 30
0.0
 10
-7.2753
 20
-16.4002
 30
0.0
 10
-7.3321
 20
-16.093
 30
0.0
 10
-7.4559
 20
-15.9386
 30
0.0
 10
-7.6466
 20
-15.9386
 30
0.0
 10
-7.7703
 20
-15.9386
 30
0.0
 10
-7.8679
 20
-16.01
 30
0.0
 10
-7.9392
 20
-16.1541
 30
0.0
 10
-7.7369
 20
-16.3332
 30
0.0
 10
-7.5418
 20
-16.422
 30
0.0
 10
-7.3525
 20
-16.422
 30
0.0
  0
SPLINE
  5
89
330
1F
100
AcDbEntity
  8
Layer 1
 62
   230
100
AcDbSpline
210
0.0
220
0.0
230
1.0
 70
    11
 71
     3
 72
   131
 73
   127
 74
     0
 42
0.0000000001
 43
0.0000000001
 40
0.0
 40
0.0
 40
0.0
 40
0.0
 40
0.0238095238095238
 40
0.0238095238095238
 40
0.0238095238095238
 40
0.0476190476190476
 40
0.0476190476190476
 40
0.0476190476190476
 40
0.0714285714285714
 40
0.0714285714285714
 40
0.0714285714285714
 40
0.0952380952380952
 40
0.0952380952380952
 40
0.0952380952380952
 40
0.119047619047619
 40
0.119047619047619
 40
0.119047619047619
 40
0.1428571428571428
 40
0.1428571428571428
 40
0.1428571428571428
 40
0.1666666666666667
 40
0.1666666666666667
 40
0.1666666666666667
 40
0.1904761904761905
 40
0.1904761904761905
 40
0.1904761904761905
 40
0.2142857142857143
 40
0.2142857142857143
 40
0.2142857142857143
 40
0.2380952380952381
 40
0.2380952380952381
 40
0.2380952380952381
 40
0.2619047619047619
 40
0.2619047619047619
 40
0.2619047619047619
 40
0.2857142857142857
 40
0.2857142857142857
 40
0.2857142857142857
 40
0.3095238095238095
 40
0.3095238095238095
 40
0.3095238095238095
 40
0.3333333333333333
 40
0.3333333333333333
 40
0.3333333333333333
 40
0.3571428571428571
 40
0.3571428571428571
 40
0.3571428571428571
 40
0.3809523809523809
 40
0.3809523809523809
 40
0.3809523809523809
 40
0.4047619047619048
 40
0.4047619047619048
 40
0.4047619047619048
 40
0.4285714285714285
 40
0.4285714285714285
 40
0.4285714285714285
 40
0.4523809523809523
 40
0.4523809523809523
 40
0.4523809523809523
 40
0.4761904761904762
 40
0.4761904761904762
 40
0.4761904761904762
 40
0.5
 40
0.5
 40
0.5
 40
0.5238095238095237
 40
0.5238095238095237
 40
0.5238095238095237
 40
0.5476190476190476
 40
0.5476190476190476
 40
0.5476190476190476
 40
0.5714285714285714
 40
0.5714285714285714
 40
0.5714285714285714
 40
0.5952380952380952
 40
0.5952380952380952
 40
0.5952380952380952
 40
0.6190476190476191
 40
0.6190476190476191
 40
0.6190476190476191
 40
0.6428571428571428
 40
0.6428571428571428
 40
0.6428571428571428
 40
0.6666666666666666
 40
0.6666666666666666
 40
0.6666666666666666
 40
0.6904761904761905
 40
0.6904761904761905
 40
0.6904761904761905
 40
0.7142857142857142
 40
0.7142857142857142
 40
0.7142857142857142
 40
0.738095238095238
 40
0.738095238095238
 40
0.738095238095238
 40
0.7619047619047619
 40
0.7619047619047619
 40
0.7619047619047619
 40
0.7857142857142857
 40
0.7857142857142857
 40
0.7857142857142857
 40
0.8095238095238095
 40
0.8095238095238095
 40
0.8095238095238095
 40
0.8333333333333333
 40
0.8333333333333333
 40
0.8333333333333333
 40
0.8571428571428571
 40
0.8571428571428571
 40
0.8571428571428571
 40
0.8809523809523809
 40
0.8809523809523809
 40
0.8809523809523809
 40
0.9047619047619047
 40
0.9047619047619047
 40
0.9047619047619047
 40
0.9285714285714285
 40
0.9285714285714285
 40
0.9285714285714285
 40
0.9523809523809523
 40
0.9523809523809523
 40
0.9523809523809523
 40
0.9761904761904762
 40
0.9761904761904762
 40
0.9761904761904762
 40
1.0
 40
1.0
 40
1.0
 40
1.0
 10
-6.1984
 20
-15.2616
 30
0.0
 10
-6.1766
 20
-15.2937
 30
0.0
 10
-6.1533
 20
-15.3286
 30
0.0
 10
-6.1285
 20
-15.365
 30
0.0
 10
-6.1285
 20
-15.365
 30
0.0
 10
-6.0557
 20
-15.4727
 30
0.0
 10
-6.0557
 20
-15.4727
 30
0.0
 10
-6.0557
 20
-15.4742
 30
0.0
 10
-6.0528
 20
-15.4771
 30
0.0
 10
-6.047
 20
-15.4829
 30
0.0
 10
-6.047
 20
-15.4829
 30
0.0
 10
-6.0019
 20
-15.5499
 30
0.0
 10
-6.0019
 20
-15.5499
 30
0.0
 10
-5.98
 20
-15.5819
 30
0.0
 10
-5.9626
 20
-15.6111
 30
0.0
 10
-5.948
 20
-15.6358
 30
0.0
 10
-5.9072
 20
-15.694
 30
0.0
 10
-5.8738
 20
-15.745
 30
0.0
 10
-5.8475
 20
-15.7887
 30
0.0
 10
-5.8141
 20
-15.8425
 30
0.0
 10
-5.7849
 20
-15.8906
 30
0.0
 10
-5.7616
 20
-15.9343
 30
0.0
 10
-5.6612
 20
-16.1221
 30
0.0
 10
-5.6117
 20
-16.3157
 30
0.0
 10
-5.6117
 20
-16.5152
 30
0.0
 10
-5.5433
 20
-16.4759
 30
0.0
 10
-5.4923
 20
-16.4278
 30
0.0
 10
-5.4603
 20
-16.3725
 30
0.0
 10
-5.4224
 20
-16.3012
 30
0.0
 10
-5.4035
 20
-16.1992
 30
0.0
 10
-5.4035
 20
-16.0697
 30
0.0
 10
-5.4035
 20
-15.9547
 30
0.0
 10
-5.4049
 20
-15.8455
 30
0.0
 10
-5.4064
 20
-15.745
 30
0.0
 10
-5.4079
 20
-15.6533
 30
0.0
 10
-5.4093
 20
-15.5674
 30
0.0
 10
-5.4137
 20
-15.4873
 30
0.0
 10
-5.4166
 20
-15.416
 30
0.0
 10
-5.421
 20
-15.3475
 30
0.0
 10
-5.4253
 20
-15.2835
 30
0.0
 10
-5.4253
 20
-15.2835
 30
0.0
 10
-5.4355
 20
-15.1262
 30
0.0
 10
-5.4355
 20
-15.1262
 30
0.0
 10
-5.4355
 20
-15.1262
 30
0.0
 10
-5.4603
 20
-14.9049
 30
0.0
 10
-5.4603
 20
-14.9049
 30
0.0
 10
-5.4675
 20
-14.8394
 30
0.0
 10
-5.4705
 20
-14.7855
 30
0.0
 10
-5.4705
 20
-14.7419
 30
0.0
 10
-5.4705
 20
-14.6691
 30
0.0
 10
-5.453
 20
-14.6036
 30
0.0
 10
-5.418
 20
-14.5439
 30
0.0
 10
-5.3802
 20
-14.4783
 30
0.0
 10
-5.3132
 20
-14.4099
 30
0.0
 10
-5.2171
 20
-14.3357
 30
0.0
 10
-5.2171
 20
-14.3357
 30
0.0
 10
-5.1749
 20
-14.3633
 30
0.0
 10
-5.1749
 20
-14.3633
 30
0.0
 10
-5.1778
 20
-14.3706
 30
0.0
 10
-5.1807
 20
-14.3779
 30
0.0
 10
-5.1822
 20
-14.3866
 30
0.0
 10
-5.1836
 20
-14.3968
 30
0.0
 10
-5.1851
 20
-14.4085
 30
0.0
 10
-5.1851
 20
-14.4216
 30
0.0
 10
-5.1851
 20
-14.4725
 30
0.0
 10
-5.1589
 20
-14.5541
 30
0.0
 10
-5.1079
 20
-14.6647
 30
0.0
 10
-5.0628
 20
-14.7593
 30
0.0
 10
-4.9958
 20
-14.8816
 30
0.0
 10
-4.907
 20
-15.0287
 30
0.0
 10
-4.907
 20
-15.0287
 30
0.0
 10
-5.1341
 20
-15.1961
 30
0.0
 10
-5.1341
 20
-15.1961
 30
0.0
 10
-5.1341
 20
-15.1961
 30
0.0
 10
-5.1341
 20
-15.6722
 30
0.0
 10
-5.1341
 20
-15.6722
 30
0.0
 10
-5.1341
 20
-15.8848
 30
0.0
 10
-5.1516
 20
-16.0755
 30
0.0
 10
-5.1851
 20
-16.2444
 30
0.0
 10
-5.2215
 20
-16.4249
 30
0.0
 10
-5.2783
 20
-16.5822
 30
0.0
 10
-5.3525
 20
-16.7161
 30
0.0
 10
-5.4239
 20
-16.8428
 30
0.0
 10
-5.5112
 20
-16.9374
 30
0.0
 10
-5.6131
 20
-16.9971
 30
0.0
 10
-5.7311
 20
-17.067
 30
0.0
 10
-5.881
 20
-17.1019
 30
0.0
 10
-6.063
 20
-17.1019
 30
0.0
 10
-6.3018
 20
-17.1019
 30
0.0
 10
-6.5508
 20
-17.051
 30
0.0
 10
-6.8099
 20
-16.9491
 30
0.0
 10
-6.8099
 20
-16.9491
 30
0.0
 10
-6.8099
 20
-16.8864
 30
0.0
 10
-6.8099
 20
-16.8864
 30
0.0
 10
-6.3164
 20
-16.7758
 30
0.0
 10
-5.9626
 20
-16.671
 30
0.0
 10
-5.7471
 20
-16.5734
 30
0.0
 10
-5.7573
 20
-16.5094
 30
0.0
 10
-5.8301
 20
-16.3754
 30
0.0
 10
-5.9669
 20
-16.1701
 30
0.0
 10
-6.031
 20
-16.0726
 30
0.0
 10
-6.1111
 20
-15.959
 30
0.0
 10
-6.2057
 20
-15.8265
 30
0.0
 10
-6.2931
 20
-15.7057
 30
0.0
 10
-6.3964
 20
-15.5659
 30
0.0
 10
-6.5144
 20
-15.4043
 30
0.0
 10
-6.5959
 20
-15.2922
 30
0.0
 10
-6.6556
 20
-15.2049
 30
0.0
 10
-6.692
 20
-15.1393
 30
0.0
 10
-6.7357
 20
-15.0563
 30
0.0
 10
-6.7575
 20
-14.9865
 30
0.0
 10
-6.7575
 20
-14.9282
 30
0.0
 10
-6.7575
 20
-14.8336
 30
0.0
 10
-6.7153
 20
-14.7157
 30
0.0
 10
-6.6294
 20
-14.5715
 30
0.0
 10
-6.6294
 20
-14.5715
 30
0.0
 10
-6.5973
 20
-14.5744
 30
0.0
 10
-6.5973
 20
-14.5744
 30
0.0
 10
-6.561
 20
-14.6312
 30
0.0
 10
-6.4954
 20
-14.704
 30
0.0
 10
-6.4037
 20
-14.7928
 30
0.0
 10
-6.3222
 20
-14.8714
 30
0.0
 10
-6.213
 20
-14.9661
 30
0.0
 10
-6.0776
 20
-15.0753
 30
0.0
 10
-6.0776
 20
-15.0753
 30
0.0
 10
-6.1984
 20
-15.2616
 30
0.0
 10
-6.1984
 20
-15.2616
 30
0.0
  0
SPLINE
  5
8A
330
1F
100
AcDbEntity
  8
Layer 1
 62
   230
100
AcDbSpline
210
0.0
220
0.0
230
1.0
 70
    11
 71
     3
 72
   137
 73
   133
 74
     0
 42
0.0000000001
 43
0.0000000001
 40
0.0
 40
0.0
 40
0.0
 40
0.0
 40
0.0227272727272727
 40
0.0227272727272727
 40
0.0227272727272727
 40
0.0454545454545455
 40
0.0454545454545455
 40
0.0454545454545455
 40
0.0681818181818182
 40
0.0681818181818182
 40
0.0681818181818182
 40
0.0909090909090909
 40
0.0909090909090909
 40
0.0909090909090909
 40
0.1136363636363636
 40
0.1136363636363636
 40
0.1136363636363636
 40
0.1363636363636364
 40
0.1363636363636364
 40
0.1363636363636364
 40
0.1590909090909091
 40
0.1590909090909091
 40
0.1590909090909091
 40
0.1818181818181818
 40
0.1818181818181818
 40
0.1818181818181818
 40
0.2045454545454546
 40
0.2045454545454546
 40
0.2045454545454546
 40
0.2272727272727273
 40
0.2272727272727273
 40
0.2272727272727273
 40
0.25
 40
0.25
 40
0.25
 40
0.2727272727272727
 40
0.2727272727272727
 40
0.2727272727272727
 40
0.2954545454545455
 40
0.2954545454545455
 40
0.2954545454545455
 40
0.3181818181818182
 40
0.3181818181818182
 40
0.3181818181818182
 40
0.3409090909090909
 40
0.3409090909090909
 40
0.3409090909090909
 40
0.3636363636363636
 40
0.3636363636363636
 40
0.3636363636363636
 40
0.3863636363636364
 40
0.3863636363636364
 40
0.3863636363636364
 40
0.4090909090909091
 40
0.4090909090909091
 40
0.4090909090909091
 40
0.4318181818181818
 40
0.4318181818181818
 40
0.4318181818181818
 40
0.4545454545454546
 40
0.4545454545454546
 40
0.4545454545454546
 40
0.4772727272727273
 40
0.4772727272727273
 40
0.4772727272727273
 40
0.5
 40
0.5
 40
0.5
 40
0.5227272727272727
 40
0.5227272727272727
 40
0.5227272727272727
 40
0.5454545454545454
 40
0.5454545454545454
 40
0.5454545454545454
 40
0.5681818181818182
 40
0.5681818181818182
 40
0.5681818181818182
 40
0.5909090909090909
 40
0.5909090909090909
 40
0.5909090909090909
 40
0.6136363636363636
 40
0.6136363636363636
 40
0.6136363636363636
 40
0.6363636363636364
 40
0.6363636363636364
 40
0.6363636363636364
 40
0.6590909090909091
 40
0.6590909090909091
 40
0.6590909090909091
 40
0.6818181818181819
 40
0.6818181818181819
 40
0.6818181818181819
 40
0.7045454545454546
 40
0.7045454545454546
 40
0.7045454545454546
 40
0.7272727272727273
 40
0.7272727272727273
 40
0.7272727272727273
 40
0.75
 40
0.75
 40
0.75
 40
0.7727272727272727
 40
0.7727272727272727
 40
0.7727272727272727
 40
0.7954545454545455
 40
0.7954545454545455
 40
0.7954545454545455
 40
0.8181818181818182
 40
0.8181818181818182
 40
0.8181818181818182
 40
0.8409090909090909
 40
0.8409090909090909
 40
0.8409090909090909
 40
0.8636363636363636
 40
0.8636363636363636
 40
0.8636363636363636
 40
0.8863636363636364
 40
0.8863636363636364
 40
0.8863636363636364
 40
0.9090909090909092
 40
0.9090909090909092
 40
0.9090909090909092
 40
0.9318181818181819
 40
0.9318181818181819
 40
0.9318181818181819
 40
0.9545454545454546
 40
0.9545454545454546
 40
0.9545454545454546
 40
0.9772727272727273
 40
0.9772727272727273
 40
0.9772727272727273
 40
1.0
 40
1.0
 40
1.0
 40
1.0
 10
-1.2323
 20
-16.9243
 30
0.0
 10
-1.2323
 20
-16.9243
 30
0.0
 10
-1.2352
 20
-16.9243
 30
0.0
 10
-1.2352
 20
-16.9243
 30
0.0
 10
-1.2352
 20
-16.9243
 30
0.0
 10
-1.2377
 20
-16.9243
 30
0.0
 10
-1.2377
 20
-16.9243
 30
0.0
 10
-1.2377
 20
-16.9243
 30
0.0
 10
-1.3677
 20
-16.9243
 30
0.0
 10
-1.3677
 20
-16.9243
 30
0.0
 10
-1.3618
 20
-16.9592
 30
0.0
 10
-1.3589
 20
-17.0
 30
0.0
 10
-1.3589
 20
-17.0466
 30
0.0
 10
-1.3589
 20
-17.131
 30
0.0
 10
-1.4026
 20
-17.2519
 30
0.0
 10
-1.4885
 20
-17.4106
 30
0.0
 10
-1.6574
 20
-17.5591
 30
0.0
 10
-1.851
 20
-17.6741
 30
0.0
 10
-2.068
 20
-17.7571
 30
0.0
 10
-2.2689
 20
-17.8313
 30
0.0
 10
-2.4625
 20
-17.8692
 30
0.0
 10
-2.6474
 20
-17.8692
 30
0.0
 10
-2.9371
 20
-17.8692
 30
0.0
 10
-3.1643
 20
-17.7833
 30
0.0
 10
-3.3317
 20
-17.6115
 30
0.0
 10
-3.4991
 20
-17.4397
 30
0.0
 10
-3.5821
 20
-17.2024
 30
0.0
 10
-3.5821
 20
-16.901
 30
0.0
 10
-3.5821
 20
-16.754
 30
0.0
 10
-3.5574
 20
-16.5982
 30
0.0
 10
-3.5079
 20
-16.4322
 30
0.0
 10
-3.4627
 20
-16.2793
 30
0.0
 10
-3.3943
 20
-16.1148
 30
0.0
 10
-3.304
 20
-15.9386
 30
0.0
 10
-3.304
 20
-15.9386
 30
0.0
 10
-3.1643
 20
-16.0071
 30
0.0
 10
-3.1643
 20
-16.0071
 30
0.0
 10
-3.2676
 20
-16.2458
 30
0.0
 10
-3.3201
 20
-16.4409
 30
0.0
 10
-3.3201
 20
-16.5909
 30
0.0
 10
-3.3201
 20
-16.8384
 30
0.0
 10
-3.2487
 20
-17.0291
 30
0.0
 10
-3.106
 20
-17.1631
 30
0.0
 10
-2.9735
 20
-17.2883
 30
0.0
 10
-2.793
 20
-17.3509
 30
0.0
 10
-2.5644
 20
-17.3509
 30
0.0
 10
-2.3999
 20
-17.3509
 30
0.0
 10
-2.2427
 20
-17.3276
 30
0.0
 10
-2.0927
 20
-17.2825
 30
0.0
 10
-1.9282
 20
-17.233
 30
0.0
 10
-1.7695
 20
-17.1558
 30
0.0
 10
-1.6166
 20
-17.0495
 30
0.0
 10
-1.6617
 20
-16.9986
 30
0.0
 10
-1.7476
 20
-16.9578
 30
0.0
 10
-1.8772
 20
-16.9287
 30
0.0
 10
-1.9952
 20
-16.9039
 30
0.0
 10
-2.1509
 20
-16.8879
 30
0.0
 10
-2.346
 20
-16.8792
 30
0.0
 10
-2.346
 20
-16.8792
 30
0.0
 10
-2.381
 20
-16.834
 30
0.0
 10
-2.381
 20
-16.834
 30
0.0
 10
-2.381
 20
-16.834
 30
0.0
 10
-2.1451
 20
-16.422
 30
0.0
 10
-2.1451
 20
-16.422
 30
0.0
 10
-2.1451
 20
-16.422
 30
0.0
 10
-1.2348
 20
-16.422
 30
0.0
 10
-1.2348
 20
-16.422
 30
0.0
 10
-1.2348
 20
-16.422
 30
0.0
 10
-1.2323
 20
-16.422
 30
0.0
 10
-1.2323
 20
-16.422
 30
0.0
 10
-1.2323
 20
-16.422
 30
0.0
 10
-1.1973
 20
-16.422
 30
0.0
 10
-1.1973
 20
-16.422
 30
0.0
 10
-1.1231
 20
-16.422
 30
0.0
 10
-1.0517
 20
-16.4002
 30
0.0
 10
-0.9818
 20
-16.3579
 30
0.0
 10
-0.9382
 20
-16.3303
 30
0.0
 10
-0.9018
 20
-16.2866
 30
0.0
 10
-0.8712
 20
-16.2269
 30
0.0
 10
-0.8595
 20
-16.2036
 30
0.0
 10
-0.8479
 20
-16.176
 30
0.0
 10
-0.8362
 20
-16.1425
 30
0.0
 10
-0.8362
 20
-16.1425
 30
0.0
 10
-0.7664
 20
-15.9459
 30
0.0
 10
-0.7664
 20
-15.9459
 30
0.0
 10
-0.7532
 20
-15.9081
 30
0.0
 10
-0.7387
 20
-15.8746
 30
0.0
 10
-0.7227
 20
-15.844
 30
0.0
 10
-0.6863
 20
-15.7683
 30
0.0
 10
-0.6397
 20
-15.7057
 30
0.0
 10
-0.5858
 20
-15.6547
 30
0.0
 10
-0.4795
 20
-15.5572
 30
0.0
 10
-0.3689
 20
-15.5077
 30
0.0
 10
-0.2539
 20
-15.5077
 30
0.0
 10
-0.1563
 20
-15.5077
 30
0.0
 10
-0.0675
 20
-15.5426
 30
0.0
 10
0.0097
 20
-15.6125
 30
0.0
 10
0.0766
 20
-15.6707
 30
0.0
 10
0.1349
 20
-15.7537
 30
0.0
 10
0.1829
 20
-15.8615
 30
0.0
 10
0.2222
 20
-15.9517
 30
0.0
 10
0.2543
 20
-16.0522
 30
0.0
 10
0.2775
 20
-16.1643
 30
0.0
 10
0.2965
 20
-16.2589
 30
0.0
 10
0.3052
 20
-16.3463
 30
0.0
 10
0.3052
 20
-16.4249
 30
0.0
 10
0.3052
 20
-16.4293
 30
0.0
 10
0.3038
 20
-16.4395
 30
0.0
 10
0.2994
 20
-16.4555
 30
0.0
 10
0.2965
 20
-16.4744
 30
0.0
 10
0.2921
 20
-16.4933
 30
0.0
 10
0.2848
 20
-16.5152
 30
0.0
 10
0.2688
 20
-16.5749
 30
0.0
 10
0.2455
 20
-16.6273
 30
0.0
 10
0.2179
 20
-16.6753
 30
0.0
 10
0.1815
 20
-16.7423
 30
0.0
 10
0.1378
 20
-16.7947
 30
0.0
 10
0.0897
 20
-16.8311
 30
0.0
 10
0.0271
 20
-16.8777
 30
0.0
 10
-0.0413
 20
-16.901
 30
0.0
 10
-0.1185
 20
-16.901
 30
0.0
 10
-0.3296
 20
-16.901
 30
0.0
 10
-0.5494
 20
-16.8107
 30
0.0
 10
-0.7809
 20
-16.6287
 30
0.0
 10
-0.7809
 20
-16.6287
 30
0.0
 10
-0.7882
 20
-16.6287
 30
0.0
 10
-0.7882
 20
-16.6287
 30
0.0
 10
-0.8639
 20
-16.8253
 30
0.0
 10
-1.0022
 20
-16.9243
 30
0.0
 10
-1.2017
 20
-16.9243
 30
0.0
 10
-1.2017
 20
-16.9243
 30
0.0
 10
-1.2323
 20
-16.9243
 30
0.0
 10
-1.2323
 20
-16.9243
 30
0.0
  0
SPLINE
  5
8B
330
1F
100
AcDbEntity
  8
Layer 1
 62
   230
100
AcDbSpline
210
0.0
220
0.0
230
1.0
 70
    11
 71
     3
 72
    17
 73
    13
 74
     0
 42
0.0000000001
 43
0.0000000001
 40
0.0
 40
0.0
 40
0.0
 40
0.0
 40
0.25
 40
0.25
 40
0.25
 40
0.5
 40
0.5
 40
0.5
 40
0.75
 40
0.75
 40
0.75
 40
1.0
 40
1.0
 40
1.0
 40
1.0
 10
-0.0457
 20
-16.422
 30
0.0
 10
0.0053
 20
-16.422
 30
0.0
 10
0.0315
 20
-16.4147
 30
0.0
 10
0.0315
 20
-16.4002
 30
0.0
 10
-0.0253
 20
-16.093
 30
0.0
 10
-0.149
 20
-15.9386
 30
0.0
 10
-0.3398
 20
-15.9386
 30
0.0
 10
-0.4635
 20
-15.9386
 30
0.0
 10
-0.5611
 20
-16.01
 30
0.0
 10
-0.6324
 20
-16.1541
 30
0.0
 10
-0.43
 20
-16.3332
 30
0.0
 10
-0.2349
 20
-16.422
 30
0.0
 10
-0.0457
 20
-16.422
 30
0.0
  0
SPLINE
  5
8C
330
1F
100
AcDbEntity
  8
Layer 1
 62
   230
100
AcDbSpline
210
0.0
220
0.0
230
1.0
 70
    11
 71
     3
 72
   140
 73
   136
 74
     0
 42
0.0000000001
 43
0.0000000001
 40
0.0
 40
0.0
 40
0.0
 40
0.0
 40
0.0222222222222222
 40
0.0222222222222222
 40
0.0222222222222222
 40
0.0444444444444444
 40
0.0444444444444444
 40
0.0444444444444444
 40
0.0666666666666667
 40
0.0666666666666667
 40
0.0666666666666667
 40
0.0888888888888889
 40
0.0888888888888889
 40
0.0888888888888889
 40
0.1111111111111111
 40
0.1111111111111111
 40
0.1111111111111111
 40
0.1333333333333333
 40
0.1333333333333333
 40
0.1333333333333333
 40
0.1555555555555556
 40
0.1555555555555556
 40
0.1555555555555556
 40
0.1777777777777778
 40
0.1777777777777778
 40
0.1777777777777778
 40
0.2
 40
0.2
 40
0.2
 40
0.2222222222222222
 40
0.2222222222222222
 40
0.2222222222222222
 40
0.2444444444444445
 40
0.2444444444444445
 40
0.2444444444444445
 40
0.2666666666666667
 40
0.2666666666666667
 40
0.2666666666666667
 40
0.2888888888888889
 40
0.2888888888888889
 40
0.2888888888888889
 40
0.3111111111111111
 40
0.3111111111111111
 40
0.3111111111111111
 40
0.3333333333333334
 40
0.3333333333333334
 40
0.3333333333333334
 40
0.3555555555555556
 40
0.3555555555555556
 40
0.3555555555555556
 40
0.3777777777777778
 40
0.3777777777777778
 40
0.3777777777777778
 40
0.4
 40
0.4
 40
0.4
 40
0.4222222222222222
 40
0.4222222222222222
 40
0.4222222222222222
 40
0.4444444444444445
 40
0.4444444444444445
 40
0.4444444444444445
 40
0.4666666666666667
 40
0.4666666666666667
 40
0.4666666666666667
 40
0.4888888888888889
 40
0.4888888888888889
 40
0.4888888888888889
 40
0.5111111111111112
 40
0.5111111111111112
 40
0.5111111111111112
 40
0.5333333333333333
 40
0.5333333333333333
 40
0.5333333333333333
 40
0.5555555555555556
 40
0.5555555555555556
 40
0.5555555555555556
 40
0.5777777777777778
 40
0.5777777777777778
 40
0.5777777777777778
 40
0.6
 40
0.6
 40
0.6
 40
0.6222222222222222
 40
0.6222222222222222
 40
0.6222222222222222
 40
0.6444444444444445
 40
0.6444444444444445
 40
0.6444444444444445
 40
0.6666666666666667
 40
0.6666666666666667
 40
0.6666666666666667
 40
0.6888888888888889
 40
0.6888888888888889
 40
0.6888888888888889
 40
0.7111111111111111
 40
0.7111111111111111
 40
0.7111111111111111
 40
0.7333333333333334
 40
0.7333333333333334
 40
0.7333333333333334
 40
0.7555555555555555
 40
0.7555555555555555
 40
0.7555555555555555
 40
0.7777777777777778
 40
0.7777777777777778
 40
0.7777777777777778
 40
0.8
 40
0.8
 40
0.8
 40
0.8222222222222223
 40
0.8222222222222223
 40
0.8222222222222223
 40
0.8444444444444444
 40
0.8444444444444444
 40
0.8444444444444444
 40
0.8666666666666667
 40
0.8666666666666667
 40
0.8666666666666667
 40
0.888888888888889
 40
0.888888888888889
 40
0.888888888888889
 40
0.9111111111111111
 40
0.9111111111111111
 40
0.9111111111111111
 40
0.9333333333333333
 40
0.9333333333333333
 40
0.9333333333333333
 40
0.9555555555555556
 40
0.9555555555555556
 40
0.9555555555555556
 40
0.9777777777777779
 40
0.9777777777777779
 40
0.9777777777777779
 40
1.0
 40
1.0
 40
1.0
 40
1.0
 10
1.716
 20
-16.9243
 30
0.0
 10
1.716
 20
-16.9243
 30
0.0
 10
1.7134
 20
-16.9243
 30
0.0
 10
1.7134
 20
-16.9243
 30
0.0
 10
1.7134
 20
-16.9243
 30
0.0
 10
1.6738
 20
-16.9243
 30
0.0
 10
1.6738
 20
-16.9243
 30
0.0
 10
1.6257
 20
-16.9243
 30
0.0
 10
1.5791
 20
-16.9199
 30
0.0
 10
1.5326
 20
-16.9097
 30
0.0
 10
1.4991
 20
-16.9025
 30
0.0
 10
1.4598
 20
-16.8923
 30
0.0
 10
1.4132
 20
-16.8763
 30
0.0
 10
1.4132
 20
-16.9942
 30
0.0
 10
1.3972
 20
-17.1019
 30
0.0
 10
1.3651
 20
-17.2024
 30
0.0
 10
1.3404
 20
-17.2781
 30
0.0
 10
1.3011
 20
-17.3582
 30
0.0
 10
1.2501
 20
-17.4441
 30
0.0
 10
1.1759
 20
-17.5591
 30
0.0
 10
1.1001
 20
-17.6464
 30
0.0
 10
1.0215
 20
-17.7061
 30
0.0
 10
0.9342
 20
-17.7731
 30
0.0
 10
0.841
 20
-17.8066
 30
0.0
 10
0.7434
 20
-17.8066
 30
0.0
 10
0.5498
 20
-17.8066
 30
0.0
 10
0.327
 20
-17.7236
 30
0.0
 10
0.0752
 20
-17.5591
 30
0.0
 10
0.0752
 20
-17.5591
 30
0.0
 10
0.1305
 20
-17.4339
 30
0.0
 10
0.1305
 20
-17.4339
 30
0.0
 10
0.2135
 20
-17.4615
 30
0.0
 10
0.2892
 20
-17.4761
 30
0.0
 10
0.3562
 20
-17.4761
 30
0.0
 10
0.5571
 20
-17.4761
 30
0.0
 10
0.7391
 20
-17.3989
 30
0.0
 10
0.9036
 20
-17.2446
 30
0.0
 10
1.0652
 20
-17.0976
 30
0.0
 10
1.1628
 20
-16.9389
 30
0.0
 10
1.1962
 20
-16.7656
 30
0.0
 10
1.0914
 20
-16.6302
 30
0.0
 10
0.9982
 20
-16.4759
 30
0.0
 10
0.9182
 20
-16.3026
 30
0.0
 10
0.9502
 20
-16.2284
 30
0.0
 10
0.9793
 20
-16.1629
 30
0.0
 10
1.007
 20
-16.1061
 30
0.0
 10
1.0375
 20
-16.0406
 30
0.0
 10
1.0667
 20
-15.9823
 30
0.0
 10
1.0972
 20
-15.9314
 30
0.0
 10
1.0972
 20
-15.9314
 30
0.0
 10
1.1336
 20
-15.9314
 30
0.0
 10
1.1336
 20
-15.9314
 30
0.0
 10
1.17
 20
-16.0114
 30
0.0
 10
1.2035
 20
-16.0784
 30
0.0
 10
1.2341
 20
-16.1323
 30
0.0
 10
1.2734
 20
-16.1934
 30
0.0
 10
1.3127
 20
-16.2444
 30
0.0
 10
1.352
 20
-16.2851
 30
0.0
 10
1.4408
 20
-16.3769
 30
0.0
 10
1.5515
 20
-16.422
 30
0.0
 10
1.6811
 20
-16.422
 30
0.0
 10
1.6811
 20
-16.422
 30
0.0
 10
1.7134
 20
-16.422
 30
0.0
 10
1.7134
 20
-16.422
 30
0.0
 10
1.7134
 20
-16.422
 30
0.0
 10
1.716
 20
-16.422
 30
0.0
 10
1.716
 20
-16.422
 30
0.0
 10
1.716
 20
-16.422
 30
0.0
 10
1.7509
 20
-16.422
 30
0.0
 10
1.7509
 20
-16.422
 30
0.0
 10
1.9999
 20
-16.422
 30
0.0
 10
2.2037
 20
-16.4045
 30
0.0
 10
2.3624
 20
-16.3681
 30
0.0
 10
2.5197
 20
-16.3317
 30
0.0
 10
2.5983
 20
-16.2837
 30
0.0
 10
2.5983
 20
-16.2269
 30
0.0
 10
2.5983
 20
-16.1265
 30
0.0
 10
2.5211
 20
-16.0027
 30
0.0
 10
2.3683
 20
-15.8527
 30
0.0
 10
2.2969
 20
-15.7843
 30
0.0
 10
2.2067
 20
-15.7101
 30
0.0
 10
2.1004
 20
-15.6271
 30
0.0
 10
2.0014
 20
-15.5499
 30
0.0
 10
1.8863
 20
-15.4684
 30
0.0
 10
1.7539
 20
-15.3796
 30
0.0
 10
1.7204
 20
-15.2645
 30
0.0
 10
1.7029
 20
-15.1583
 30
0.0
 10
1.7029
 20
-15.0636
 30
0.0
 10
1.7029
 20
-14.8947
 30
0.0
 10
1.7873
 20
-14.7724
 30
0.0
 10
1.9548
 20
-14.6953
 30
0.0
 10
2.0814
 20
-14.6356
 30
0.0
 10
2.2605
 20
-14.5613
 30
0.0
 10
2.4891
 20
-14.474
 30
0.0
 10
2.7046
 20
-14.3939
 30
0.0
 10
2.9579
 20
-14.3051
 30
0.0
 10
3.2476
 20
-14.2105
 30
0.0
 10
3.2476
 20
-14.2105
 30
0.0
 10
3.2666
 20
-14.2279
 30
0.0
 10
3.2666
 20
-14.2279
 30
0.0
 10
3.2011
 20
-14.3662
 30
0.0
 10
3.1283
 20
-14.506
 30
0.0
 10
3.0496
 20
-14.6443
 30
0.0
 10
2.8312
 20
-14.7127
 30
0.0
 10
2.6318
 20
-14.7797
 30
0.0
 10
2.4513
 20
-14.8452
 30
0.0
 10
2.2605
 20
-14.9137
 30
0.0
 10
2.0887
 20
-14.9821
 30
0.0
 10
1.9373
 20
-15.0491
 30
0.0
 10
1.9373
 20
-15.0491
 30
0.0
 10
1.9373
 20
-15.0636
 30
0.0
 10
1.9373
 20
-15.0636
 30
0.0
 10
2.0203
 20
-15.0826
 30
0.0
 10
2.1077
 20
-15.0986
 30
0.0
 10
2.1994
 20
-15.1131
 30
0.0
 10
2.2765
 20
-15.1262
 30
0.0
 10
2.361
 20
-15.1393
 30
0.0
 10
2.4513
 20
-15.151
 30
0.0
 10
2.4513
 20
-15.151
 30
0.0
 10
2.3683
 20
-15.3446
 30
0.0
 10
2.3683
 20
-15.3446
 30
0.0
 10
2.5561
 20
-15.5062
 30
0.0
 10
2.6827
 20
-15.6445
 30
0.0
 10
2.7512
 20
-15.7581
 30
0.0
 10
2.8181
 20
-15.8702
 30
0.0
 10
2.8516
 20
-15.9983
 30
0.0
 10
2.8516
 20
-16.1439
 30
0.0
 10
2.8516
 20
-16.2779
 30
0.0
 10
2.8123
 20
-16.4293
 30
0.0
 10
2.7322
 20
-16.5982
 30
0.0
 10
2.626
 20
-16.8151
 30
0.0
 10
2.2998
 20
-16.9243
 30
0.0
 10
1.7509
 20
-16.9243
 30
0.0
 10
1.7509
 20
-16.9243
 30
0.0
 10
1.716
 20
-16.9243
 30
0.0
 10
1.716
 20
-16.9243
 30
0.0
  0
SPLINE
  5
8D
330
1F
100
AcDbEntity
  8
Layer 1
 62
   230
100
AcDbSpline
210
0.0
220
0.0
230
1.0
 70
    11
 71
     3
 72
   119
 73
   115
 74
     0
 42
0.0000000001
 43
0.0000000001
 40
0.0
 40
0.0
 40
0.0
 40
0.0
 40
0.0263157894736842
 40
0.0263157894736842
 40
0.0263157894736842
 40
0.0526315789473684
 40
0.0526315789473684
 40
0.0526315789473684
 40
0.0789473684210526
 40
0.0789473684210526
 40
0.0789473684210526
 40
0.1052631578947368
 40
0.1052631578947368
 40
0.1052631578947368
 40
0.131578947368421
 40
0.131578947368421
 40
0.131578947368421
 40
0.1578947368421053
 40
0.1578947368421053
 40
0.1578947368421053
 40
0.1842105263157895
 40
0.1842105263157895
 40
0.1842105263157895
 40
0.2105263157894737
 40
0.2105263157894737
 40
0.2105263157894737
 40
0.2368421052631579
 40
0.2368421052631579
 40
0.2368421052631579
 40
0.2631578947368421
 40
0.2631578947368421
 40
0.2631578947368421
 40
0.2894736842105263
 40
0.2894736842105263
 40
0.2894736842105263
 40
0.3157894736842105
 40
0.3157894736842105
 40
0.3157894736842105
 40
0.3421052631578947
 40
0.3421052631578947
 40
0.3421052631578947
 40
0.3684210526315789
 40
0.3684210526315789
 40
0.3684210526315789
 40
0.3947368421052632
 40
0.3947368421052632
 40
0.3947368421052632
 40
0.4210526315789473
 40
0.4210526315789473
 40
0.4210526315789473
 40
0.4473684210526315
 40
0.4473684210526315
 40
0.4473684210526315
 40
0.4736842105263158
 40
0.4736842105263158
 40
0.4736842105263158
 40
0.5
 40
0.5
 40
0.5
 40
0.5263157894736842
 40
0.5263157894736842
 40
0.5263157894736842
 40
0.5526315789473684
 40
0.5526315789473684
 40
0.5526315789473684
 40
0.5789473684210527
 40
0.5789473684210527
 40
0.5789473684210527
 40
0.6052631578947368
 40
0.6052631578947368
 40
0.6052631578947368
 40
0.631578947368421
 40
0.631578947368421
 40
0.631578947368421
 40
0.6578947368421052
 40
0.6578947368421052
 40
0.6578947368421052
 40
0.6842105263157894
 40
0.6842105263157894
 40
0.6842105263157894
 40
0.7105263157894737
 40
0.7105263157894737
 40
0.7105263157894737
 40
0.7368421052631579
 40
0.7368421052631579
 40
0.7368421052631579
 40
0.763157894736842
 40
0.763157894736842
 40
0.763157894736842
 40
0.7894736842105263
 40
0.7894736842105263
 40
0.7894736842105263
 40
0.8157894736842105
 40
0.8157894736842105
 40
0.8157894736842105
 40
0.8421052631578947
 40
0.8421052631578947
 40
0.8421052631578947
 40
0.8684210526315789
 40
0.8684210526315789
 40
0.8684210526315789
 40
0.894736842105263
 40
0.894736842105263
 40
0.894736842105263
 40
0.9210526315789473
 40
0.9210526315789473
 40
0.9210526315789473
 40
0.9473684210526315
 40
0.9473684210526315
 40
0.9473684210526315
 40
0.9736842105263157
 40
0.9736842105263157
 40
0.9736842105263157
 40
1.0
 40
1.0
 40
1.0
 40
1.0
 10
6.4842
 20
-16.0493
 30
0.0
 10
6.4187
 20
-15.8382
 30
0.0
 10
6.34
 20
-15.7334
 30
0.0
 10
6.2483
 20
-15.7334
 30
0.0
 10
6.193
 20
-15.7334
 30
0.0
 10
6.1304
 20
-15.7494
 30
0.0
 10
6.062
 20
-15.7814
 30
0.0
 10
6.0037
 20
-15.8091
 30
0.0
 10
5.9455
 20
-15.8469
 30
0.0
 10
5.8872
 20
-15.8935
 30
0.0
 10
5.7649
 20
-15.994
 30
0.0
 10
5.7038
 20
-16.0682
 30
0.0
 10
5.7038
 20
-16.1163
 30
0.0
 10
5.7038
 20
-16.1599
 30
0.0
 10
5.7329
 20
-16.1963
 30
0.0
 10
5.7912
 20
-16.224
 30
0.0
 10
5.8363
 20
-16.2458
 30
0.0
 10
5.9062
 20
-16.2662
 30
0.0
 10
5.9993
 20
-16.2822
 30
0.0
 10
5.9993
 20
-16.2822
 30
0.0
 10
6.2454
 20
-16.3245
 30
0.0
 10
6.2454
 20
-16.3245
 30
0.0
 10
6.3342
 20
-16.3434
 30
0.0
 10
6.3983
 20
-16.3638
 30
0.0
 10
6.439
 20
-16.3856
 30
0.0
 10
6.5599
 20
-16.4526
 30
0.0
 10
6.621
 20
-16.5691
 30
0.0
 10
6.621
 20
-16.7365
 30
0.0
 10
6.621
 20
-16.8035
 30
0.0
 10
6.6079
 20
-16.8792
 30
0.0
 10
6.5832
 20
-16.9622
 30
0.0
 10
6.5643
 20
-17.032
 30
0.0
 10
6.5337
 20
-17.1121
 30
0.0
 10
6.4915
 20
-17.2024
 30
0.0
 10
6.3939
 20
-17.3276
 30
0.0
 10
6.26
 20
-17.4412
 30
0.0
 10
6.0896
 20
-17.5416
 30
0.0
 10
5.8494
 20
-17.6814
 30
0.0
 10
5.6164
 20
-17.7513
 30
0.0
 10
5.3908
 20
-17.7513
 30
0.0
 10
5.2874
 20
-17.7513
 30
0.0
 10
5.1869
 20
-17.7338
 30
0.0
 10
5.0923
 20
-17.6989
 30
0.0
 10
4.9889
 20
-17.661
 30
0.0
 10
4.8987
 20
-17.6057
 30
0.0
 10
4.8215
 20
-17.5314
 30
0.0
 10
4.7356
 20
-17.4484
 30
0.0
 10
4.6701
 20
-17.3494
 30
0.0
 10
4.622
 20
-17.233
 30
0.0
 10
4.5725
 20
-17.1034
 30
0.0
 10
4.5478
 20
-16.9549
 30
0.0
 10
4.5478
 20
-16.7889
 30
0.0
 10
4.5478
 20
-16.6477
 30
0.0
 10
4.5623
 20
-16.5166
 30
0.0
 10
4.59
 20
-16.3929
 30
0.0
 10
4.6133
 20
-16.2866
 30
0.0
 10
4.6482
 20
-16.1818
 30
0.0
 10
4.6934
 20
-16.0799
 30
0.0
 10
4.6934
 20
-16.0799
 30
0.0
 10
4.839
 20
-16.1221
 30
0.0
 10
4.839
 20
-16.1221
 30
0.0
 10
4.8142
 20
-16.1847
 30
0.0
 10
4.7953
 20
-16.2531
 30
0.0
 10
4.7836
 20
-16.3303
 30
0.0
 10
4.7735
 20
-16.3929
 30
0.0
 10
4.7676
 20
-16.4657
 30
0.0
 10
4.7676
 20
-16.5458
 30
0.0
 10
4.7676
 20
-16.7394
 30
0.0
 10
4.8259
 20
-16.901
 30
0.0
 10
4.9409
 20
-17.0291
 30
0.0
 10
5.0617
 20
-17.1674
 30
0.0
 10
5.2219
 20
-17.2359
 30
0.0
 10
5.4228
 20
-17.2359
 30
0.0
 10
5.6019
 20
-17.2359
 30
0.0
 10
5.7853
 20
-17.1951
 30
0.0
 10
5.9746
 20
-17.1121
 30
0.0
 10
6.1435
 20
-17.0379
 30
0.0
 10
6.2702
 20
-16.9592
 30
0.0
 10
6.3531
 20
-16.8763
 30
0.0
 10
6.3531
 20
-16.869
 30
0.0
 10
6.3415
 20
-16.8588
 30
0.0
 10
6.3182
 20
-16.8486
 30
0.0
 10
6.2978
 20
-16.8413
 30
0.0
 10
6.2672
 20
-16.8311
 30
0.0
 10
6.225
 20
-16.8209
 30
0.0
 10
6.1886
 20
-16.8137
 30
0.0
 10
6.142
 20
-16.8049
 30
0.0
 10
6.0867
 20
-16.7962
 30
0.0
 10
6.0416
 20
-16.7889
 30
0.0
 10
5.9877
 20
-16.7787
 30
0.0
 10
5.9222
 20
-16.7685
 30
0.0
 10
5.615
 20
-16.7234
 30
0.0
 10
5.4621
 20
-16.5778
 30
0.0
 10
5.4621
 20
-16.3317
 30
0.0
 10
5.4621
 20
-16.077
 30
0.0
 10
5.5582
 20
-15.8455
 30
0.0
 10
5.7518
 20
-15.6373
 30
0.0
 10
5.861
 20
-15.5193
 30
0.0
 10
5.9673
 20
-15.4276
 30
0.0
 10
6.0721
 20
-15.365
 30
0.0
 10
6.1857
 20
-15.2966
 30
0.0
 10
6.2934
 20
-15.2616
 30
0.0
 10
6.3939
 20
-15.2616
 30
0.0
 10
6.4885
 20
-15.2616
 30
0.0
 10
6.5628
 20
-15.3097
 30
0.0
 10
6.6138
 20
-15.4072
 30
0.0
 10
6.656
 20
-15.4844
 30
0.0
 10
6.6764
 20
-15.5688
 30
0.0
 10
6.6764
 20
-15.6606
 30
0.0
 10
6.6764
 20
-15.7494
 30
0.0
 10
6.6327
 20
-15.8789
 30
0.0
 10
6.5468
 20
-16.0493
 30
0.0
 10
6.5468
 20
-16.0493
 30
0.0
 10
6.4842
 20
-16.0493
 30
0.0
 10
6.4842
 20
-16.0493
 30
0.0
  0
SPLINE
  5
8E
330
1F
100
AcDbEntity
  8
Layer 1
 62
   230
100
AcDbSpline
210
0.0
220
0.0
230
1.0
 70
    11
 71
     3
 72
   128
 73
   124
 74
     0
 42
0.0000000001
 43
0.0000000001
 40
0.0
 40
0.0
 40
0.0
 40
0.0
 40
0.024390243902439
 40
0.024390243902439
 40
0.024390243902439
 40
0.0487804878048781
 40
0.0487804878048781
 40
0.0487804878048781
 40
0.0731707317073171
 40
0.0731707317073171
 40
0.0731707317073171
 40
0.0975609756097561
 40
0.0975609756097561
 40
0.0975609756097561
 40
0.1219512195121951
 40
0.1219512195121951
 40
0.1219512195121951
 40
0.1463414634146342
 40
0.1463414634146342
 40
0.1463414634146342
 40
0.1707317073170732
 40
0.1707317073170732
 40
0.1707317073170732
 40
0.1951219512195122
 40
0.1951219512195122
 40
0.1951219512195122
 40
0.2195121951219512
 40
0.2195121951219512
 40
0.2195121951219512
 40
0.2439024390243902
 40
0.2439024390243902
 40
0.2439024390243902
 40
0.2682926829268293
 40
0.2682926829268293
 40
0.2682926829268293
 40
0.2926829268292683
 40
0.2926829268292683
 40
0.2926829268292683
 40
0.3170731707317073
 40
0.3170731707317073
 40
0.3170731707317073
 40
0.3414634146341464
 40
0.3414634146341464
 40
0.3414634146341464
 40
0.3658536585365854
 40
0.3658536585365854
 40
0.3658536585365854
 40
0.3902439024390244
 40
0.3902439024390244
 40
0.3902439024390244
 40
0.4146341463414634
 40
0.4146341463414634
 40
0.4146341463414634
 40
0.4390243902439024
 40
0.4390243902439024
 40
0.4390243902439024
 40
0.4634146341463415
 40
0.4634146341463415
 40
0.4634146341463415
 40
0.4878048780487805
 40
0.4878048780487805
 40
0.4878048780487805
 40
0.5121951219512195
 40
0.5121951219512195
 40
0.5121951219512195
 40
0.5365853658536586
 40
0.5365853658536586
 40
0.5365853658536586
 40
0.5609756097560976
 40
0.5609756097560976
 40
0.5609756097560976
 40
0.5853658536585367
 40
0.5853658536585367
 40
0.5853658536585367
 40
0.6097560975609756
 40
0.6097560975609756
 40
0.6097560975609756
 40
0.6341463414634146
 40
0.6341463414634146
 40
0.6341463414634146
 40
0.6585365853658537
 40
0.6585365853658537
 40
0.6585365853658537
 40
0.6829268292682927
 40
0.6829268292682927
 40
0.6829268292682927
 40
0.7073170731707318
 40
0.7073170731707318
 40
0.7073170731707318
 40
0.7317073170731707
 40
0.7317073170731707
 40
0.7317073170731707
 40
0.7560975609756098
 40
0.7560975609756098
 40
0.7560975609756098
 40
0.7804878048780488
 40
0.7804878048780488
 40
0.7804878048780488
 40
0.8048780487804879
 40
0.8048780487804879
 40
0.8048780487804879
 40
0.8292682926829269
 40
0.8292682926829269
 40
0.8292682926829269
 40
0.8536585365853658
 40
0.8536585365853658
 40
0.8536585365853658
 40
0.8780487804878049
 40
0.8780487804878049
 40
0.8780487804878049
 40
0.9024390243902439
 40
0.9024390243902439
 40
0.9024390243902439
 40
0.926829268292683
 40
0.926829268292683
 40
0.926829268292683
 40
0.951219512195122
 40
0.951219512195122
 40
0.951219512195122
 40
0.975609756097561
 40
0.975609756097561
 40
0.975609756097561
 40
1.0
 40
1.0
 40
1.0
 40
1.0
 10
8.2525
 20
-16.9243
 30
0.0
 10
8.2525
 20
-16.9243
 30
0.0
 10
8.2499
 20
-16.9243
 30
0.0
 10
8.2499
 20
-16.9243
 30
0.0
 10
8.2499
 20
-16.9243
 30
0.0
 10
8.2103
 20
-16.9243
 30
0.0
 10
8.2103
 20
-16.9243
 30
0.0
 10
8.1622
 20
-16.9243
 30
0.0
 10
8.1156
 20
-16.9199
 30
0.0
 10
8.069
 20
-16.9097
 30
0.0
 10
8.0355
 20
-16.9025
 30
0.0
 10
7.9962
 20
-16.8923
 30
0.0
 10
7.9496
 20
-16.8763
 30
0.0
 10
7.9496
 20
-16.9942
 30
0.0
 10
7.9336
 20
-17.1019
 30
0.0
 10
7.9016
 20
-17.2024
 30
0.0
 10
7.8769
 20
-17.2781
 30
0.0
 10
7.8375
 20
-17.3582
 30
0.0
 10
7.7866
 20
-17.4441
 30
0.0
 10
7.7123
 20
-17.5591
 30
0.0
 10
7.6366
 20
-17.6464
 30
0.0
 10
7.558
 20
-17.7061
 30
0.0
 10
7.4706
 20
-17.7731
 30
0.0
 10
7.3775
 20
-17.8066
 30
0.0
 10
7.2799
 20
-17.8066
 30
0.0
 10
7.0863
 20
-17.8066
 30
0.0
 10
6.8635
 20
-17.7236
 30
0.0
 10
6.6116
 20
-17.5591
 30
0.0
 10
6.6116
 20
-17.5591
 30
0.0
 10
6.667
 20
-17.4339
 30
0.0
 10
6.667
 20
-17.4339
 30
0.0
 10
6.75
 20
-17.4615
 30
0.0
 10
6.8257
 20
-17.4761
 30
0.0
 10
6.8926
 20
-17.4761
 30
0.0
 10
7.0936
 20
-17.4761
 30
0.0
 10
7.2756
 20
-17.3989
 30
0.0
 10
7.4401
 20
-17.2446
 30
0.0
 10
7.6017
 20
-17.0976
 30
0.0
 10
7.6992
 20
-16.9389
 30
0.0
 10
7.7327
 20
-16.7656
 30
0.0
 10
7.6279
 20
-16.6302
 30
0.0
 10
7.5347
 20
-16.4759
 30
0.0
 10
7.4546
 20
-16.3026
 30
0.0
 10
7.4867
 20
-16.2284
 30
0.0
 10
7.5158
 20
-16.1629
 30
0.0
 10
7.5434
 20
-16.1061
 30
0.0
 10
7.574
 20
-16.0406
 30
0.0
 10
7.6031
 20
-15.9823
 30
0.0
 10
7.6337
 20
-15.9314
 30
0.0
 10
7.6337
 20
-15.9314
 30
0.0
 10
7.6701
 20
-15.9314
 30
0.0
 10
7.6701
 20
-15.9314
 30
0.0
 10
7.7065
 20
-16.0114
 30
0.0
 10
7.74
 20
-16.0784
 30
0.0
 10
7.7706
 20
-16.1323
 30
0.0
 10
7.8099
 20
-16.1934
 30
0.0
 10
7.8492
 20
-16.2444
 30
0.0
 10
7.8885
 20
-16.2851
 30
0.0
 10
7.9773
 20
-16.3769
 30
0.0
 10
8.088
 20
-16.422
 30
0.0
 10
8.2175
 20
-16.422
 30
0.0
 10
8.2175
 20
-16.422
 30
0.0
 10
8.2499
 20
-16.422
 30
0.0
 10
8.2499
 20
-16.422
 30
0.0
 10
8.2499
 20
-16.422
 30
0.0
 10
8.2525
 20
-16.422
 30
0.0
 10
8.2525
 20
-16.422
 30
0.0
 10
8.2525
 20
-16.422
 30
0.0
 10
8.2874
 20
-16.422
 30
0.0
 10
8.2874
 20
-16.422
 30
0.0
 10
8.3559
 20
-16.422
 30
0.0
 10
8.4767
 20
-16.4089
 30
0.0
 10
8.6485
 20
-16.3827
 30
0.0
 10
8.6368
 20
-16.2808
 30
0.0
 10
8.631
 20
-16.1934
 30
0.0
 10
8.631
 20
-16.1192
 30
0.0
 10
8.6325
 20
-15.9576
 30
0.0
 10
8.6703
 20
-15.8105
 30
0.0
 10
8.7446
 20
-15.678
 30
0.0
 10
8.8116
 20
-15.5543
 30
0.0
 10
8.9062
 20
-15.4465
 30
0.0
 10
9.0299
 20
-15.3563
 30
0.0
 10
9.0489
 20
-15.266
 30
0.0
 10
9.0751
 20
-15.1728
 30
0.0
 10
9.11
 20
-15.0782
 30
0.0
 10
9.11
 20
-15.0782
 30
0.0
 10
9.1522
 20
-15.0782
 30
0.0
 10
9.1522
 20
-15.0782
 30
0.0
 10
9.3211
 20
-15.2311
 30
0.0
 10
9.5104
 20
-15.3781
 30
0.0
 10
9.7201
 20
-15.5222
 30
0.0
 10
9.7201
 20
-15.5222
 30
0.0
 10
9.8496
 20
-15.6096
 30
0.0
 10
9.8496
 20
-15.6096
 30
0.0
 10
9.8977
 20
-15.6431
 30
0.0
 10
9.9399
 20
-15.6737
 30
0.0
 10
9.9734
 20
-15.6984
 30
0.0
 10
10.0593
 20
-15.7596
 30
0.0
 10
10.1277
 20
-15.8178
 30
0.0
 10
10.1787
 20
-15.8731
 30
0.0
 10
10.3024
 20
-16.0056
 30
0.0
 10
10.3636
 20
-16.1541
 30
0.0
 10
10.3636
 20
-16.3201
 30
0.0
 10
10.3636
 20
-16.4366
 30
0.0
 10
10.3374
 20
-16.5472
 30
0.0
 10
10.2864
 20
-16.6535
 30
0.0
 10
10.1991
 20
-16.834
 30
0.0
 10
10.0622
 20
-16.9243
 30
0.0
 10
9.8773
 20
-16.9243
 30
0.0
 10
9.7681
 20
-16.9243
 30
0.0
 10
9.6371
 20
-16.9097
 30
0.0
 10
9.4857
 20
-16.8821
 30
0.0
 10
9.3503
 20
-16.8544
 30
0.0
 10
9.1959
 20
-16.8166
 30
0.0
 10
9.0198
 20
-16.7656
 30
0.0
 10
8.8756
 20
-16.8209
 30
0.0
 10
8.7417
 20
-16.8617
 30
0.0
 10
8.6165
 20
-16.8864
 30
0.0
 10
8.4985
 20
-16.9112
 30
0.0
 10
8.3893
 20
-16.9243
 30
0.0
 10
8.2874
 20
-16.9243
 30
0.0
 10
8.2874
 20
-16.9243
 30
0.0
 10
8.2525
 20
-16.9243
 30
0.0
 10
8.2525
 20
-16.9243
 30
0.0
  0
SPLINE
  5
8F
330
1F
100
AcDbEntity
  8
Layer 1
 62
   230
100
AcDbSpline
210
0.0
220
0.0
230
1.0
 70
    11
 71
     3
 72
    26
 73
    22
 74
     0
 42
0.0000000001
 43
0.0000000001
 40
0.0
 40
0.0
 40
0.0
 40
0.0
 40
0.1428571428571428
 40
0.1428571428571428
 40
0.1428571428571428
 40
0.2857142857142857
 40
0.2857142857142857
 40
0.2857142857142857
 40
0.4285714285714285
 40
0.4285714285714285
 40
0.4285714285714285
 40
0.5714285714285714
 40
0.5714285714285714
 40
0.5714285714285714
 40
0.7142857142857142
 40
0.7142857142857142
 40
0.7142857142857142
 40
0.8571428571428571
 40
0.8571428571428571
 40
0.8571428571428571
 40
1.0
 40
1.0
 40
1.0
 40
1.0
 10
9.4493
 20
-16.0973
 30
0.0
 10
9.4493
 20
-15.9998
 30
0.0
 10
9.4216
 20
-15.9124
 30
0.0
 10
9.3663
 20
-15.8353
 30
0.0
 10
9.3095
 20
-15.7566
 30
0.0
 10
9.2425
 20
-15.7173
 30
0.0
 10
9.1683
 20
-15.7173
 30
0.0
 10
9.0911
 20
-15.7173
 30
0.0
 10
9.0139
 20
-15.7537
 30
0.0
 10
8.9368
 20
-15.8265
 30
0.0
 10
8.8625
 20
-15.895
 30
0.0
 10
8.8247
 20
-15.959
 30
0.0
 10
8.8247
 20
-16.0216
 30
0.0
 10
8.8247
 20
-16.0813
 30
0.0
 10
8.8567
 20
-16.1396
 30
0.0
 10
8.9222
 20
-16.1963
 30
0.0
 10
8.9848
 20
-16.2502
 30
0.0
 10
9.0591
 20
-16.2924
 30
0.0
 10
9.1479
 20
-16.3201
 30
0.0
 10
9.3488
 20
-16.275
 30
0.0
 10
9.4493
 20
-16.2007
 30
0.0
 10
9.4493
 20
-16.0973
 30
0.0
  0
SPLINE
  5
90
330
1F
100
AcDbEntity
  8
Layer 1
 62
   230
100
AcDbSpline
210
0.0
220
0.0
230
1.0
 70
    11
 71
     3
 72
    20
 73
    16
 74
     0
 42
0.0000000001
 43
0.0000000001
 40
0.0
 40
0.0
 40
0.0
 40
0.0
 40
0.2
 40
0.2
 40
0.2
 40
0.4
 40
0.4
 40
0.4
 40
0.6000000000000001
 40
0.6000000000000001
 40
0.6000000000000001
 40
0.8
 40
0.8
 40
0.8
 40
1.0
 40
1.0
 40
1.0
 40
1.0
 10
9.953
 20
-16.4948
 30
0.0
 10
10.0535
 20
-16.4948
 30
0.0
 10
10.103
 20
-16.4773
 30
0.0
 10
10.103
 20
-16.4409
 30
0.0
 10
10.103
 20
-16.3871
 30
0.0
 10
10.0607
 20
-16.3215
 30
0.0
 10
9.9778
 20
-16.2473
 30
0.0
 10
9.9035
 20
-16.1803
 30
0.0
 10
9.7929
 20
-16.1032
 30
0.0
 10
9.6473
 20
-16.0158
 30
0.0
 10
9.6283
 20
-16.1483
 30
0.0
 10
9.5861
 20
-16.2837
 30
0.0
 10
9.5191
 20
-16.422
 30
0.0
 10
9.6837
 20
-16.4701
 30
0.0
 10
9.8293
 20
-16.4948
 30
0.0
 10
9.953
 20
-16.4948
 30
0.0
  0
SPLINE
  5
91
330
1F
100
AcDbEntity
  8
Layer 1
 62
   230
100
AcDbSpline
210
0.0
220
0.0
230
1.0
 70
    11
 71
     3
 72
    41
 73
    37
 74
     0
 42
0.0000000001
 43
0.0000000001
 40
0.0
 40
0.0
 40
0.0
 40
0.0
 40
0.0833333333333333
 40
0.0833333333333333
 40
0.0833333333333333
 40
0.1666666666666667
 40
0.1666666666666667
 40
0.1666666666666667
 40
0.25
 40
0.25
 40
0.25
 40
0.3333333333333333
 40
0.3333333333333333
 40
0.3333333333333333
 40
0.4166666666666666
 40
0.4166666666666666
 40
0.4166666666666666
 40
0.5
 40
0.5
 40
0.5
 40
0.5833333333333333
 40
0.5833333333333333
 40
0.5833333333333333
 40
0.6666666666666666
 40
0.6666666666666666
 40
0.6666666666666666
 40
0.75
 40
0.75
 40
0.75
 40
0.8333333333333333
 40
0.8333333333333333
 40
0.8333333333333333
 40
0.9166666666666666
 40
0.9166666666666666
 40
0.9166666666666666
 40
1.0
 40
1.0
 40
1.0
 40
1.0
 10
10.8018
 20
-16.9549
 30
0.0
 10
10.8237
 20
-16.8005
 30
0.0
 10
10.8338
 20
-16.5996
 30
0.0
 10
10.8338
 20
-16.3507
 30
0.0
 10
10.8338
 20
-16.0711
 30
0.0
 10
10.8266
 20
-15.8003
 30
0.0
 10
10.8135
 20
-15.5368
 30
0.0
 10
10.8004
 20
-15.2587
 30
0.0
 10
10.7785
 20
-14.9865
 30
0.0
 10
10.7479
 20
-14.72
 30
0.0
 10
10.8513
 20
-14.5948
 30
0.0
 10
10.9489
 20
-14.4885
 30
0.0
 10
11.0391
 20
-14.4012
 30
0.0
 10
11.0391
 20
-14.4012
 30
0.0
 10
11.0814
 20
-14.4245
 30
0.0
 10
11.0814
 20
-14.4245
 30
0.0
 10
11.0945
 20
-14.5541
 30
0.0
 10
11.1046
 20
-14.688
 30
0.0
 10
11.1119
 20
-14.8234
 30
0.0
 10
11.1192
 20
-14.9486
 30
0.0
 10
11.125
 20
-15.0782
 30
0.0
 10
11.1294
 20
-15.2107
 30
0.0
 10
11.1338
 20
-15.3301
 30
0.0
 10
11.1352
 20
-15.4567
 30
0.0
 10
11.1367
 20
-15.5907
 30
0.0
 10
11.1381
 20
-15.6999
 30
0.0
 10
11.1396
 20
-15.8222
 30
0.0
 10
11.1396
 20
-15.959
 30
0.0
 10
11.1396
 20
-16.374
 30
0.0
 10
11.1134
 20
-16.6215
 30
0.0
 10
11.0624
 20
-16.7015
 30
0.0
 10
11.0086
 20
-16.7991
 30
0.0
 10
10.9401
 20
-16.8966
 30
0.0
 10
10.8557
 20
-16.9942
 30
0.0
 10
10.8557
 20
-16.9942
 30
0.0
 10
10.8018
 20
-16.9549
 30
0.0
 10
10.8018
 20
-16.9549
 30
0.0
  0
SPLINE
  5
92
330
1F
100
AcDbEntity
  8
Layer 1
 62
   230
100
AcDbSpline
210
0.0
220
0.0
230
1.0
 70
    11
 71
     3
 72
   131
 73
   127
 74
     0
 42
0.0000000001
 43
0.0000000001
 40
0.0
 40
0.0
 40
0.0
 40
0.0
 40
0.0238095238095238
 40
0.0238095238095238
 40
0.0238095238095238
 40
0.0476190476190476
 40
0.0476190476190476
 40
0.0476190476190476
 40
0.0714285714285714
 40
0.0714285714285714
 40
0.0714285714285714
 40
0.0952380952380952
 40
0.0952380952380952
 40
0.0952380952380952
 40
0.119047619047619
 40
0.119047619047619
 40
0.119047619047619
 40
0.1428571428571428
 40
0.1428571428571428
 40
0.1428571428571428
 40
0.1666666666666667
 40
0.1666666666666667
 40
0.1666666666666667
 40
0.1904761904761905
 40
0.1904761904761905
 40
0.1904761904761905
 40
0.2142857142857143
 40
0.2142857142857143
 40
0.2142857142857143
 40
0.2380952380952381
 40
0.2380952380952381
 40
0.2380952380952381
 40
0.2619047619047619
 40
0.2619047619047619
 40
0.2619047619047619
 40
0.2857142857142857
 40
0.2857142857142857
 40
0.2857142857142857
 40
0.3095238095238095
 40
0.3095238095238095
 40
0.3095238095238095
 40
0.3333333333333333
 40
0.3333333333333333
 40
0.3333333333333333
 40
0.3571428571428571
 40
0.3571428571428571
 40
0.3571428571428571
 40
0.3809523809523809
 40
0.3809523809523809
 40
0.3809523809523809
 40
0.4047619047619048
 40
0.4047619047619048
 40
0.4047619047619048
 40
0.4285714285714285
 40
0.4285714285714285
 40
0.4285714285714285
 40
0.4523809523809523
 40
0.4523809523809523
 40
0.4523809523809523
 40
0.4761904761904762
 40
0.4761904761904762
 40
0.4761904761904762
 40
0.5
 40
0.5
 40
0.5
 40
0.5238095238095237
 40
0.5238095238095237
 40
0.5238095238095237
 40
0.5476190476190476
 40
0.5476190476190476
 40
0.5476190476190476
 40
0.5714285714285714
 40
0.5714285714285714
 40
0.5714285714285714
 40
0.5952380952380952
 40
0.5952380952380952
 40
0.5952380952380952
 40
0.6190476190476191
 40
0.6190476190476191
 40
0.6190476190476191
 40
0.6428571428571428
 40
0.6428571428571428
 40
0.6428571428571428
 40
0.6666666666666666
 40
0.6666666666666666
 40
0.6666666666666666
 40
0.6904761904761905
 40
0.6904761904761905
 40
0.6904761904761905
 40
0.7142857142857142
 40
0.7142857142857142
 40
0.7142857142857142
 40
0.738095238095238
 40
0.738095238095238
 40
0.738095238095238
 40
0.7619047619047619
 40
0.7619047619047619
 40
0.7619047619047619
 40
0.7857142857142857
 40
0.7857142857142857
 40
0.7857142857142857
 40
0.8095238095238095
 40
0.8095238095238095
 40
0.8095238095238095
 40
0.8333333333333333
 40
0.8333333333333333
 40
0.8333333333333333
 40
0.8571428571428571
 40
0.8571428571428571
 40
0.8571428571428571
 40
0.8809523809523809
 40
0.8809523809523809
 40
0.8809523809523809
 40
0.9047619047619047
 40
0.9047619047619047
 40
0.9047619047619047
 40
0.9285714285714285
 40
0.9285714285714285
 40
0.9285714285714285
 40
0.9523809523809523
 40
0.9523809523809523
 40
0.9523809523809523
 40
0.9761904761904762
 40
0.9761904761904762
 40
0.9761904761904762
 40
1.0
 40
1.0
 40
1.0
 40
1.0
 10
12.9222
 20
-16.9243
 30
0.0
 10
12.9222
 20
-16.9243
 30
0.0
 10
12.9196
 20
-16.9243
 30
0.0
 10
12.9196
 20
-16.9243
 30
0.0
 10
12.9196
 20
-16.9243
 30
0.0
 10
12.7344
 20
-16.9243
 30
0.0
 10
12.7344
 20
-16.9243
 30
0.0
 10
12.6776
 20
-17.1674
 30
0.0
 10
12.5772
 20
-17.3771
 30
0.0
 10
12.4359
 20
-17.5518
 30
0.0
 10
12.2787
 20
-17.744
 30
0.0
 10
12.1069
 20
-17.8401
 30
0.0
 10
11.922
 20
-17.8401
 30
0.0
 10
11.7021
 20
-17.8401
 30
0.0
 10
11.4561
 20
-17.7469
 30
0.0
 10
11.1838
 20
-17.562
 30
0.0
 10
11.1838
 20
-17.562
 30
0.0
 10
11.2421
 20
-17.4281
 30
0.0
 10
11.2421
 20
-17.4281
 30
0.0
 10
11.3513
 20
-17.4746
 30
0.0
 10
11.4532
 20
-17.4979
 30
0.0
 10
11.5478
 20
-17.4979
 30
0.0
 10
11.6512
 20
-17.4979
 30
0.0
 10
11.7575
 20
-17.4746
 30
0.0
 10
11.8667
 20
-17.4266
 30
0.0
 10
11.9671
 20
-17.3844
 30
0.0
 10
12.069
 20
-17.3218
 30
0.0
 10
12.1753
 20
-17.2402
 30
0.0
 10
12.3224
 20
-17.1267
 30
0.0
 10
12.4185
 20
-17.0218
 30
0.0
 10
12.4651
 20
-16.9243
 30
0.0
 10
12.4651
 20
-16.9243
 30
0.0
 10
12.3952
 20
-16.9243
 30
0.0
 10
12.3952
 20
-16.9243
 30
0.0
 10
12.1404
 20
-16.9243
 30
0.0
 10
11.9467
 20
-16.8806
 30
0.0
 10
11.8157
 20
-16.7918
 30
0.0
 10
11.6701
 20
-16.6928
 30
0.0
 10
11.5973
 20
-16.5356
 30
0.0
 10
11.5973
 20
-16.3201
 30
0.0
 10
11.5973
 20
-16.1352
 30
0.0
 10
11.6614
 20
-15.9692
 30
0.0
 10
11.788
 20
-15.8207
 30
0.0
 10
11.9133
 20
-15.6722
 30
0.0
 10
12.0472
 20
-15.598
 30
0.0
 10
12.1899
 20
-15.598
 30
0.0
 10
12.3267
 20
-15.598
 30
0.0
 10
12.4432
 20
-15.6693
 30
0.0
 10
12.5378
 20
-15.8134
 30
0.0
 10
12.6281
 20
-15.9517
 30
0.0
 10
12.6995
 20
-16.1556
 30
0.0
 10
12.7519
 20
-16.422
 30
0.0
 10
12.7519
 20
-16.422
 30
0.0
 10
12.9196
 20
-16.422
 30
0.0
 10
12.9196
 20
-16.422
 30
0.0
 10
12.9196
 20
-16.422
 30
0.0
 10
12.9222
 20
-16.422
 30
0.0
 10
12.9222
 20
-16.422
 30
0.0
 10
12.9222
 20
-16.422
 30
0.0
 10
12.9572
 20
-16.422
 30
0.0
 10
12.9572
 20
-16.422
 30
0.0
 10
13.228
 20
-16.422
 30
0.0
 10
13.4551
 20
-16.3987
 30
0.0
 10
13.64
 20
-16.3521
 30
0.0
 10
13.8322
 20
-16.3041
 30
0.0
 10
14.0258
 20
-16.2182
 30
0.0
 10
14.2209
 20
-16.0944
 30
0.0
 10
14.2209
 20
-16.0944
 30
0.0
 10
14.2209
 20
-16.0813
 30
0.0
 10
14.2209
 20
-16.0813
 30
0.0
 10
13.9603
 20
-15.9925
 30
0.0
 10
13.7506
 20
-15.9488
 30
0.0
 10
13.589
 20
-15.9488
 30
0.0
 10
13.4958
 20
-15.9488
 30
0.0
 10
13.426
 20
-15.9634
 30
0.0
 10
13.3808
 20
-15.994
 30
0.0
 10
13.3808
 20
-15.994
 30
0.0
 10
13.2658
 20
-16.2575
 30
0.0
 10
13.2658
 20
-16.2575
 30
0.0
 10
13.2658
 20
-16.2575
 30
0.0
 10
13.2163
 20
-16.2575
 30
0.0
 10
13.2163
 20
-16.2575
 30
0.0
 10
13.2163
 20
-16.2575
 30
0.0
 10
13.0532
 20
-15.9386
 30
0.0
 10
13.0532
 20
-15.9386
 30
0.0
 10
13.0809
 20
-15.7901
 30
0.0
 10
13.1479
 20
-15.6766
 30
0.0
 10
13.2513
 20
-15.598
 30
0.0
 10
13.3459
 20
-15.5266
 30
0.0
 10
13.4624
 20
-15.4902
 30
0.0
 10
13.5992
 20
-15.4902
 30
0.0
 10
13.7579
 20
-15.4902
 30
0.0
 10
13.9894
 20
-15.5484
 30
0.0
 10
14.2937
 20
-15.6635
 30
0.0
 10
14.5063
 20
-15.7421
 30
0.0
 10
14.713
 20
-15.7814
 30
0.0
 10
14.9139
 20
-15.7814
 30
0.0
 10
14.9139
 20
-15.7814
 30
0.0
 10
15.0988
 20
-15.7814
 30
0.0
 10
15.0988
 20
-15.7814
 30
0.0
 10
15.0988
 20
-15.7814
 30
0.0
 10
15.1046
 20
-15.8003
 30
0.0
 10
15.1046
 20
-15.8003
 30
0.0
 10
15.0755
 20
-15.8557
 30
0.0
 10
15.045
 20
-15.911
 30
0.0
 10
15.0144
 20
-15.9663
 30
0.0
 10
14.978
 20
-16.0289
 30
0.0
 10
14.9387
 20
-16.0901
 30
0.0
 10
14.8965
 20
-16.1497
 30
0.0
 10
14.7232
 20
-16.1497
 30
0.0
 10
14.5805
 20
-16.1992
 30
0.0
 10
14.467
 20
-16.2997
 30
0.0
 10
14.4073
 20
-16.355
 30
0.0
 10
14.3519
 20
-16.4031
 30
0.0
 10
14.3039
 20
-16.4424
 30
0.0
 10
14.2486
 20
-16.4904
 30
0.0
 10
14.1961
 20
-16.5312
 30
0.0
 10
14.1466
 20
-16.5661
 30
0.0
 10
14.036
 20
-16.6477
 30
0.0
 10
13.9268
 20
-16.7132
 30
0.0
 10
13.8205
 20
-16.7612
 30
0.0
 10
13.5861
 20
-16.8704
 30
0.0
 10
13.2993
 20
-16.9243
 30
0.0
 10
12.9572
 20
-16.9243
 30
0.0
 10
12.9572
 20
-16.9243
 30
0.0
 10
12.9222
 20
-16.9243
 30
0.0
 10
12.9222
 20
-16.9243
 30
0.0
  0
SPLINE
  5
93
330
1F
100
AcDbEntity
  8
Layer 1
 62
   230
100
AcDbSpline
210
0.0
220
0.0
230
1.0
 70
    11
 71
     3
 72
    23
 73
    19
 74
     0
 42
0.0000000001
 43
0.0000000001
 40
0.0
 40
0.0
 40
0.0
 40
0.0
 40
0.1666666666666667
 40
0.1666666666666667
 40
0.1666666666666667
 40
0.3333333333333333
 40
0.3333333333333333
 40
0.3333333333333333
 40
0.5
 40
0.5
 40
0.5
 40
0.6666666666666666
 40
0.6666666666666666
 40
0.6666666666666666
 40
0.8333333333333333
 40
0.8333333333333333
 40
0.8333333333333333
 40
1.0
 40
1.0
 40
1.0
 40
1.0
 10
12.069
 20
-16.0071
 30
0.0
 10
11.9948
 20
-16.0071
 30
0.0
 10
11.9336
 20
-16.0289
 30
0.0
 10
11.8841
 20
-16.074
 30
0.0
 10
11.839
 20
-16.1134
 30
0.0
 10
11.8157
 20
-16.1512
 30
0.0
 10
11.8157
 20
-16.1891
 30
0.0
 10
11.8157
 20
-16.2604
 30
0.0
 10
11.8725
 20
-16.3201
 30
0.0
 10
11.9846
 20
-16.3652
 30
0.0
 10
12.0938
 20
-16.4089
 30
0.0
 10
12.2336
 20
-16.4307
 30
0.0
 10
12.401
 20
-16.4307
 30
0.0
 10
12.4359
 20
-16.4307
 30
0.0
 10
12.468
 20
-16.4278
 30
0.0
 10
12.4985
 20
-16.422
 30
0.0
 10
12.3966
 20
-16.1454
 30
0.0
 10
12.2539
 20
-16.0071
 30
0.0
 10
12.069
 20
-16.0071
 30
0.0
  0
SPLINE
  5
94
330
1F
100
AcDbEntity
  8
Layer 1
 62
   230
100
AcDbSpline
210
0.0
220
0.0
230
1.0
 70
    11
 71
     3
 72
    20
 73
    16
 74
     0
 42
0.0000000001
 43
0.0000000001
 40
0.0
 40
0.0
 40
0.0
 40
0.0
 40
0.2
 40
0.2
 40
0.2
 40
0.4
 40
0.4
 40
0.4
 40
0.6000000000000001
 40
0.6000000000000001
 40
0.6000000000000001
 40
0.8
 40
0.8
 40
0.8
 40
1.0
 40
1.0
 40
1.0
 40
1.0
 10
13.8322
 20
-17.198
 30
0.0
 10
13.9588
 20
-17.2839
 30
0.0
 10
14.0797
 20
-17.3815
 30
0.0
 10
14.1918
 20
-17.4907
 30
0.0
 10
14.1365
 20
-17.613
 30
0.0
 10
14.0607
 20
-17.7163
 30
0.0
 10
13.9661
 20
-17.7993
 30
0.0
 10
13.9181
 20
-17.7556
 30
0.0
 10
13.8598
 20
-17.709
 30
0.0
 10
13.7943
 20
-17.661
 30
0.0
 10
13.7404
 20
-17.6188
 30
0.0
 10
13.6764
 20
-17.5722
 30
0.0
 10
13.6021
 20
-17.5212
 30
0.0
 10
13.6021
 20
-17.5212
 30
0.0
 10
13.8322
 20
-17.198
 30
0.0
 10
13.8322
 20
-17.198
 30
0.0
  0
SPLINE
  5
95
330
1F
100
AcDbEntity
  8
Layer 1
 62
   250
370
    18
100
AcDbSpline
210
0.0
220
0.0
230
1.0
 70
    11
 71
     3
 72
    29
 73
    25
 74
     0
 42
0.0000000001
 43
0.0000000001
 40
0.0
 40
0.0
 40
0.0
 40
0.0
 40
0.125
 40
0.125
 40
0.125
 40
0.25
 40
0.25
 40
0.25
 40
0.375
 40
0.375
 40
0.375
 40
0.5
 40
0.5
 40
0.5
 40
0.625
 40
0.625
 40
0.625
 40
0.75
 40
0.75
 40
0.75
 40
0.875
 40
0.875
 40
0.875
 40
1.0
 40
1.0
 40
1.0
 40
1.0
 10
-16.6135
 20
20.6308
 30
0.0
 10
-16.6135
 20
20.6308
 30
0.0
 10
17.3865
 20
20.6308
 30
0.0
 10
17.3865
 20
20.6308
 30
0.0
 10
19.0388
 20
20.6308
 30
0.0
 10
20.3865
 20
19.2831
 30
0.0
 10
20.3865
 20
17.6308
 30
0.0
 10
20.3865
 20
17.6308
 30
0.0
 10
20.3865
 20
-16.3692
 30
0.0
 10
20.3865
 20
-16.3692
 30
0.0
 10
20.3865
 20
-18.0215
 30
0.0
 10
19.0388
 20
-19.3692
 30
0.0
 10
17.3865
 20
-19.3692
 30
0.0
 10
17.3865
 20
-19.3692
 30
0.0
 10
-16.6135
 20
-19.3692
 30
0.0
 10
-16.6135
 20
-19.3692
 30
0.0
 10
-18.2658
 20
-19.3692
 30
0.0
 10
-19.6135
 20
-18.0215
 30
0.0
 10
-19.6135
 20
-16.3692
 30
0.0
 10
-19.6135
 20
-16.3692
 30
0.0
 10
-19.6135
 20
17.6308
 30
0.0
 10
-19.6135
 20
17.6308
 30
0.0
 10
-19.6135
 20
19.2831
 30
0.0
 10
-18.2658
 20
20.6308
 30
0.0
 10
-16.6135
 20
20.6308
 30
0.0
  0
ENDSEC
  0
SECTION
  2
OBJECTS
  0
DICTIONARY
  5
C
330
0
100
AcDbDictionary
281
     1
  3
ACAD_DETAILVIEWSTYLE
350
9D
  3
ACAD_GROUP
350
D
  3
ACAD_LAYOUT
350
1A
  3
ACAD_MATERIAL
350
43
  3
ACAD_MLEADERSTYLE
350
5B
  3
ACAD_MLINESTYLE
350
17
  3
ACAD_PLOTSETTINGS
350
19
  3
ACAD_PLOTSTYLENAME
350
E
  3
ACAD_SCALELIST
350
47
  3
ACAD_SECTIONVIEWSTYLE
350
9E
  3
ACAD_TABLESTYLE
350
59
  3
ACAD_VISUALSTYLE
350
2A
  3
ACDB_RECOMPOSE_DATA
350
9A
  3
AcDbVariableDictionary
350
96
  0
SUN
  5
5D
330
29
100
AcDbSun
 90
        1
290
     0
 63
     7
421
 16777215
 40
1.0
291
     1
 91
  2455826
 92
 54000000
292
     0
 70
     2
 71
   256
280
     1
  0
DICTIONARY
  5
9D
102
{ACAD_REACTORS
330
C
102
}
330
C
100
AcDbDictionary
281
     1
  0
DICTIONARY
  5
D
102
{ACAD_REACTORS
330
C
102
}
330
C
100
AcDbDictionary
281
     1
  0
DICTIONARY
  5
1A
102
{ACAD_REACTORS
330
C
102
}
330
C
100
AcDbDictionary
281
     1
  3
Layout1
350
1E
  3
Layout2
350
26
  3
Model
350
22
  0
DICTIONARY
  5
43
102
{ACAD_REACTORS
330
C
102
}
330
C
100
AcDbDictionary
281
     1
  3
ByBlock
350
45
  3
ByLayer
350
44
  3
Global
350
46
  0
DICTIONARY
  5
5B
102
{ACAD_REACTORS
330
C
102
}
330
C
100
AcDbDictionary
281
     1
  3
Standard
350
5C
  0
DICTIONARY
  5
17
102
{ACAD_REACTORS
330
C
102
}
330
C
100
AcDbDictionary
281
     1
  3
Standard
350
18
  0
DICTIONARY
  5
19
102
{ACAD_REACTORS
330
C
102
}
330
C
100
AcDbDictionary
281
     1
  0
ACDBDICTIONARYWDFLT
  5
E
102
{ACAD_REACTORS
330
C
102
}
330
C
100
AcDbDictionary
281
     1
  3
Normal
350
F
100
AcDbDictionaryWithDefault
340
F
  0
DICTIONARY
  5
47
102
{ACAD_REACTORS
330
C
102
}
330
C
100
AcDbDictionary
281
     1
  3
A0
350
48
  3
A1
350
49
  3
A2
350
4A
  3
A3
350
4B
  3
A4
350
4C
  3
A5
350
4D
  3
A6
350
4E
  3
A7
350
4F
  3
A8
350
50
  3
A9
350
51
  3
B1
350
52
  3
B2
350
53
  3
B3
350
54
  3
B4
350
55
  3
B5
350
56
  3
B6
350
57
  3
B7
350
58
  0
DICTIONARY
  5
9E
102
{ACAD_REACTORS
330
C
102
}
330
C
100
AcDbDictionary
281
     1
  0
DICTIONARY
  5
59
102
{ACAD_REACTORS
330
C
102
}
330
C
100
AcDbDictionary
281
     1
  3
Standard
350
5A
  0
DICTIONARY
  5
2A
102
{ACAD_REACTORS
330
C
102
}
330
C
100
AcDbDictionary
281
     1
  3
2dWireframe
350
2F
  3
Basic
350
32
  3
Brighten
350
36
  3
ColorChange
350
3A
  3
Conceptual
350
34
  3
Dim
350
35
  3
EdgeColorOff
350
3D
  3
Facepattern
350
39
  3
Flat
350
2B
  3
FlatWithEdges
350
2C
  3
Gouraud
350
2D
  3
GouraudWithEdges
350
2E
  3
Hidden
350
31
  3
JitterOff
350
3B
  3
Linepattern
350
38
  3
OverhangOff
350
3C
  3
Realistic
350
33
  3
Shaded
350
42
  3
Shaded with edges
350
41
  3
Shades of Gray
350
3E
  3
Sketchy
350
3F
  3
Thicken
350
37
  3
Wireframe
350
30
  3
X-Ray
350
40
  0
XRECORD
  5
9A
102
{ACAD_REACTORS
330
C
102
}
330
C
100
AcDbXrecord
280
     1
 90
        1
330
5A
  0
DICTIONARY
  5
96
102
{ACAD_REACTORS
330
C
102
}
330
C
100
AcDbDictionary
281
     1
  3
CANNOSCALE
350
97
  3
CMLEADERSTYLE
350
9C
  3
CTABLESTYLE
350
9B
  0
LAYOUT
  5
1E
102
{ACAD_REACTORS
330
1A
102
}
330
1A
100
AcDbPlotSettings
  1

  2
none_device
  4

  6

 40
0.0
 41
0.0
 42
0.0
 43
0.0
 44
0.0
 45
0.0
 46
0.0
 47
0.0
 48
0.0
 49
0.0
140
0.0
141
0.0
142
1.0
143
1.0
 70
   688
 72
     0
 73
     0
 74
     5
  7

 75
    16
 76
     0
 77
     2
 78
   300
147
1.0
148
0.0
149
0.0
100
AcDbLayout
  1
Layout1
 70
     1
 71
     1
 10
0.0
 20
0.0
 11
12.0
 21
9.0
 12
0.0
 22
0.0
 32
0.0
 14
1.000000000000000E+20
 24
1.000000000000000E+20
 34
1.000000000000000E+20
 15
-1.000000000000000E+20
 25
-1.000000000000000E+20
 35
-1.000000000000000E+20
146
0.0
 13
0.0
 23
0.0
 33
0.0
 16
1.0
 26
0.0
 36
0.0
 17
0.0
 27
1.0
 37
0.0
 76
     0
330
1B
  0
LAYOUT
  5
26
102
{ACAD_REACTORS
330
1A
102
}
330
1A
100
AcDbPlotSettings
  1

  2
none_device
  4

  6

 40
0.0
 41
0.0
 42
0.0
 43
0.0
 44
0.0
 45
0.0
 46
0.0
 47
0.0
 48
0.0
 49
0.0
140
0.0
141
0.0
142
1.0
143
1.0
 70
   688
 72
     0
 73
     0
 74
     5
  7

 75
    16
 76
     0
 77
     2
 78
   300
147
1.0
148
0.0
149
0.0
100
AcDbLayout
  1
Layout2
 70
     1
 71
     2
 10
0.0
 20
0.0
 11
0.0
 21
0.0
 12
0.0
 22
0.0
 32
0.0
 14
0.0
 24
0.0
 34
0.0
 15
0.0
 25
0.0
 35
0.0
146
0.0
 13
0.0
 23
0.0
 33
0.0
 16
1.0
 26
0.0
 36
0.0
 17
0.0
 27
1.0
 37
0.0
 76
     0
330
23
  0
LAYOUT
  5
22
102
{ACAD_REACTORS
330
1A
102
}
330
1A
100
AcDbPlotSettings
  1

  2
none_device
  4
Letter_(8.50_x_11.00_Inches)
  6

 40
6.35
 41
6.35
 42
6.35000508
 43
6.35000508
 44
215.9
 45
279.4
 46
0.0
 47
0.0
 48
0.0
 49
0.0
140
0.0
141
0.0
142
1.0
143
1.0
 70
  1712
 72
     0
 73
     0
 74
     0
  7

 75
     0
 76
     0
 77
     2
 78
   300
147
1.0
148
0.0
149
0.0
100
AcDbLayout
  1
Model
 70
     1
 71
     0
 10
0.0
 20
0.0
 11
12.0
 21
9.0
 12
0.0
 22
0.0
 32
0.0
 14
-19.7017
 24
-19.4574
 34
0.0
 15
20.4747
 25
20.719
 35
0.0
146
0.0
 13
0.0
 23
0.0
 33
0.0
 16
1.0
 26
0.0
 36
0.0
 17
0.0
 27
1.0
 37
0.0
 76
     0
330
1F
331
29
  0
MATERIAL
  5
45
102
{ACAD_REACTORS
330
43
102
}
330
43
100
AcDbMaterial
  1
ByBlock
 72
     1
 94
      127
  0
MATERIAL
  5
44
102
{ACAD_REACTORS
330
43
102
}
330
43
100
AcDbMaterial
  1
ByLayer
 72
     1
 94
      127
  0
MATERIAL
  5
46
102
{ACAD_REACTORS
330
43
102
}
330
43
100
AcDbMaterial
  1
Global
 72
     1
 94
      127
  0
MLEADERSTYLE
  5
5C
102
{ACAD_REACTORS
330
5B
102
}
330
5B
100
AcDbMLeaderStyle
179
     2
170
     2
171
     1
172
     0
 90
        2
 40
0.0
 41
0.0
173
     1
 91
-1056964608
340
14
 92
       -2
290
     1
 42
0.09
291
     1
 43
0.36
  3
Standard
341
0
 44
0.18
300

342
11
174
     1
178
     6
175
     1
176
     0
 93
-1056964608
 45
0.18
292
     0
297
     0
 46
0.18
343
0
 94
-1056964608
 47
1.0
 49
1.0
140
1.0
293
     1
141
0.0
294
     1
177
     0
142
1.0
295
     0
296
     0
143
0.125
271
     0
272
     9
273
     9
298
     0
  0
MLINESTYLE
  5
18
102
{ACAD_REACTORS
330
17
102
}
330
17
100
AcDbMlineStyle
  2
Standard
 70
     0
  3

 62
   256
 51
90.0
 52
90.0
 71
     2
 49
0.5
 62
   256
  6
BYLAYER
 49
-0.5
 62
   256
  6
BYLAYER
  0
ACDBPLACEHOLDER
  5
F
102
{ACAD_REACTORS
330
E
102
}
330
E
  0
SCALE
  5
48
102
{ACAD_REACTORS
330
47
102
}
330
47
100
AcDbScale
 70
     0
300
1:1
140
1.0
141
1.0
290
     1
  0
SCALE
  5
49
102
{ACAD_REACTORS
330
47
102
}
330
47
100
AcDbScale
 70
     0
300
1/128" = 1'-0"
140
0.0078125
141
12.0
290
     0
  0
SCALE
  5
4A
102
{ACAD_REACTORS
330
47
102
}
330
47
100
AcDbScale
 70
     0
300
1/64" = 1'-0"
140
0.015625
141
12.0
290
     0
  0
SCALE
  5
4B
102
{ACAD_REACTORS
330
47
102
}
330
47
100
AcDbScale
 70
     0
300
1/32" = 1'-0"
140
0.03125
141
12.0
290
     0
  0
SCALE
  5
4C
102
{ACAD_REACTORS
330
47
102
}
330
47
100
AcDbScale
 70
     0
300
1/16" = 1'-0"
140
0.0625
141
12.0
290
     0
  0
SCALE
  5
4D
102
{ACAD_REACTORS
330
47
102
}
330
47
100
AcDbScale
 70
     0
300
3/32" = 1'-0"
140
0.09375
141
12.0
290
     0
  0
SCALE
  5
4E
102
{ACAD_REACTORS
330
47
102
}
330
47
100
AcDbScale
 70
     0
300
1/8" = 1'-0"
140
0.125
141
12.0
290
     0
  0
SCALE
  5
4F
102
{ACAD_REACTORS
330
47
102
}
330
47
100
AcDbScale
 70
     0
300
3/16" = 1'-0"
140
0.1875
141
12.0
290
     0
  0
SCALE
  5
50
102
{ACAD_REACTORS
330
47
102
}
330
47
100
AcDbScale
 70
     0
300
1/4" = 1'-0"
140
0.25
141
12.0
290
     0
  0
SCALE
  5
51
102
{ACAD_REACTORS
330
47
102
}
330
47
100
AcDbScale
 70
     0
300
3/8" = 1'-0"
140
0.375
141
12.0
290
     0
  0
SCALE
  5
52
102
{ACAD_REACTORS
330
47
102
}
330
47
100
AcDbScale
 70
     0
300
1/2" = 1'-0"
140
0.5
141
12.0
290
     0
  0
SCALE
  5
53
102
{ACAD_REACTORS
330
47
102
}
330
47
100
AcDbScale
 70
     0
300
3/4" = 1'-0"
140
0.75
141
12.0
290
     0
  0
SCALE
  5
54
102
{ACAD_REACTORS
330
47
102
}
330
47
100
AcDbScale
 70
     0
300
1" = 1'-0"
140
1.0
141
12.0
290
     0
  0
SCALE
  5
55
102
{ACAD_REACTORS
330
47
102
}
330
47
100
AcDbScale
 70
     0
300
1-1/2" = 1'-0"
140
1.5
141
12.0
290
     0
  0
SCALE
  5
56
102
{ACAD_REACTORS
330
47
102
}
330
47
100
AcDbScale
 70
     0
300
3" = 1'-0"
140
3.0
141
12.0
290
     0
  0
SCALE
  5
57
102
{ACAD_REACTORS
330
47
102
}
330
47
100
AcDbScale
 70
     0
300
6" = 1'-0"
140
6.0
141
12.0
290
     0
  0
SCALE
  5
58
102
{ACAD_REACTORS
330
47
102
}
330
47
100
AcDbScale
 70
     0
300
1'-0" = 1'-0"
140
12.0
141
12.0
290
     0
  0
TABLESTYLE
  5
5A
102
{ACAD_REACTORS
330
59
102
}
102
{ACAD_XDICTIONARY
360
98
102
}
330
59
100
AcDbTableStyle
  3
Standard
 70
     0
 71
     0
 40
0.06
 41
0.06
280
     0
281
     0
  7
Standard
140
0.18
170
     2
 62
     0
 63
   257
283
     0
 90
        4
 91
        0
  1

274
    -2
284
     1
 64
     0
275
    -2
285
     1
 65
     0
276
    -2
286
     1
 66
     0
277
    -2
287
     1
 67
     0
278
    -2
288
     1
 68
     0
279
    -2
289
     1
 69
     0
  7
Standard
140
0.25
170
     5
 62
     0
 63
   257
283
     0
 90
        4
 91
        0
  1

274
    -2
284
     1
 64
     0
275
    -2
285
     1
 65
     0
276
    -2
286
     1
 66
     0
277
    -2
287
     1
 67
     0
278
    -2
288
     1
 68
     0
279
    -2
289
     1
 69
     0
  7
Standard
140
0.18
170
     5
 62
     0
 63
   257
283
     0
 90
        4
 91
        0
  1

274
    -2
284
     1
 64
     0
275
    -2
285
     1
 65
     0
276
    -2
286
     1
 66
     0
277
    -2
287
     1
 67
     0
278
    -2
288
     1
 68
     0
279
    -2
289
     1
 69
     0
  0
VISUALSTYLE
  5
2F
102
{ACAD_REACTORS
330
2A
102
}
330
2A
100
AcDbVisualStyle
  2
2dWireframe
 70
     4
177
     3
291
     0
 70
    58
 90
        0
176
     1
 90
        2
176
     1
 90
        0
176
     1
 90
        0
176
     1
 40
0.6
176
     1
 40
30.0
176
     1
 62
     7
420
 16777215
176
     1
 90
        1
176
     1
 90
        4
176
     1
 62
     7
176
     1
 62
   257
176
     1
 90
        1
176
     1
 90
        1
176
     1
 40
1.0
176
     1
 90
        0
176
     1
 62
   257
176
     1
 40
1.0
176
     1
 90
        1
176
     1
 90
        6
176
     1
 90
        2
176
     1
 62
     7
176
     1
 90
        5
176
     1
 90
        0
176
     1
 90
        0
176
     1
290
     0
176
     1
 90
        1
176
     1
 40
0.0
176
     1
 90
        0
176
     1
290
     1
176
     1
290
     1
176
     1
290
     0
176
     1
290
     0
176
     1
290
     0
176
     1
290
     0
176
     1
290
     0
176
     1
290
     0
176
     1
290
     0
176
     1
 90
       50
176
     1
 40
0.0
176
     1
 40
1.0
176
     1
 90
        0
176
     1
 62
    18
420
        0
176
     1
 90
       50
176
     1
 90
        3
176
     1
 62
     5
420
      255
176
     1
290
     0
176
     1
 90
       50
176
     1
 90
       50
176
     1
 90
       50
176
     1
290
     0
176
     1
 90
       50
176
     1
 62
   256
176
     0
 40
1.0
176
     0
 90
        2
176
     1
  1
strokes_ogs.tif
176
     1
290
     0
176
     1
 40
1.0
176
     1
 40
1.0
176
     1
  0
VISUALSTYLE
  5
32
102
{ACAD_REACTORS
330
2A
102
}
330
2A
100
AcDbVisualStyle
  2
Basic
 70
     7
177
     3
291
     1
 70
    58
 90
        1
176
     1
 90
        0
176
     1
 90
        1
176
     1
 90
        0
176
     1
 40
0.6
176
     1
 40
30.0
176
     1
 62
     7
420
 16777215
176
     1
 90
        0
176
     1
 90
        4
176
     1
 62
     7
176
     1
 62
   257
176
     1
 90
        1
176
     1
 90
        1
176
     1
 40
1.0
176
     1
 90
        8
176
     1
 62
     7
176
     1
 40
1.0
176
     1
 90
        1
176
     1
 90
        6
176
     1
 90
        2
176
     1
 62
     7
176
     1
 90
        5
176
     1
 90
        0
176
     1
 90
        0
176
     1
290
     0
176
     1
 90
        1
176
     1
 40
0.0
176
     1
 90
        0
176
     1
290
     0
176
     1
290
     1
176
     1
290
     1
176
     1
290
     0
176
     1
290
     0
176
     1
290
     0
176
     1
290
     0
176
     1
290
     0
176
     1
290
     0
176
     1
 90
       50
176
     1
 40
0.0
176
     1
 40
1.0
176
     1
 90
        0
176
     1
 62
    18
420
        0
176
     1
 90
       50
176
     1
 90
        3
176
     1
 62
     5
420
      255
176
     1
290
     0
176
     1
 90
       50
176
     1
 90
       50
176
     1
 90
       50
176
     1
290
     0
176
     1
 90
       50
176
     1
 62
   256
176
     0
 40
1.0
176
     0
 90
        2
176
     1
  1
strokes_ogs.tif
176
     1
290
     0
176
     1
 40
1.0
176
     1
 40
1.0
176
     1
  0
VISUALSTYLE
  5
36
102
{ACAD_REACTORS
330
2A
102
}
330
2A
100
AcDbVisualStyle
  2
Brighten
 70
    12
177
     3
291
     1
 70
    58
 90
        2
176
     1
 90
        2
176
     1
 90
        0
176
     1
 90
        0
176
     1
 40
0.6
176
     1
 40
30.0
176
     1
 62
     7
420
 16777215
176
     1
 90
        1
176
     1
 90
        4
176
     1
 62
     7
176
     1
 62
   257
176
     1
 90
        1
176
     1
 90
        1
176
     1
 40
1.0
176
     1
 90
        8
176
     1
 62
     7
176
     1
 40
1.0
176
     1
 90
        1
176
     1
 90
        6
176
     1
 90
        2
176
     1
 62
     7
176
     1
 90
        5
176
     1
 90
        0
176
     1
 90
        0
176
     1
290
     0
176
     1
 90
        1
176
     1
 40
50.0
176
     1
 90
        0
176
     1
290
     0
176
     1
290
     1
176
     1
290
     1
176
     1
290
     0
176
     1
290
     0
176
     1
290
     0
176
     1
290
     0
176
     1
290
     0
176
     1
290
     0
176
     1
 90
       50
176
     1
 40
0.0
176
     1
 40
1.0
176
     1
 90
        0
176
     1
 62
    18
420
        0
176
     1
 90
       50
176
     1
 90
        3
176
     1
 62
     5
420
      255
176
     1
290
     0
176
     1
 90
       50
176
     1
 90
       50
176
     1
 90
       50
176
     1
290
     0
176
     1
 90
       50
176
     1
 62
   256
176
     0
 40
1.0
176
     0
 90
        2
176
     1
  1
strokes_ogs.tif
176
     1
290
     0
176
     1
 40
1.0
176
     1
 40
1.0
176
     1
  0
VISUALSTYLE
  5
3A
102
{ACAD_REACTORS
330
2A
102
}
330
2A
100
AcDbVisualStyle
  2
ColorChange
 70
    16
177
     3
291
     1
 70
    58
 90
        2
176
     1
 90
        2
176
     1
 90
        3
176
     1
 90
        0
176
     1
 40
0.6
176
     1
 40
30.0
176
     1
 62
     8
420
  8421504
176
     1
 90
        1
176
     1
 90
        4
176
     1
 62
     7
176
     1
 62
   257
176
     1
 90
        1
176
     1
 90
        1
176
     1
 40
1.0
176
     1
 90
        8
176
     1
 62
     8
420
  8421504
176
     1
 40
1.0
176
     1
 90
        1
176
     1
 90
        6
176
     1
 90
        2
176
     1
 62
     7
176
     1
 90
        5
176
     1
 90
        0
176
     1
 90
        0
176
     1
290
     0
176
     1
 90
        1
176
     1
 40
0.0
176
     1
 90
        0
176
     1
290
     0
176
     1
290
     1
176
     1
290
     1
176
     1
290
     0
176
     1
290
     0
176
     1
290
     0
176
     1
290
     0
176
     1
290
     0
176
     1
290
     0
176
     1
 90
       50
176
     1
 40
0.0
176
     1
 40
1.0
176
     1
 90
        0
176
     1
 62
    18
420
        0
176
     1
 90
       50
176
     1
 90
        3
176
     1
 62
     5
420
      255
176
     1
290
     0
176
     1
 90
       50
176
     1
 90
       50
176
     1
 90
       50
176
     1
290
     0
176
     1
 90
       50
176
     1
 62
   256
176
     0
 40
1.0
176
     0
 90
        2
176
     1
  1
strokes_ogs.tif
176
     1
290
     0
176
     1
 40
1.0
176
     1
 40
1.0
176
     1
  0
VISUALSTYLE
  5
34
102
{ACAD_REACTORS
330
2A
102
}
330
2A
100
AcDbVisualStyle
  2
Conceptual
 70
     9
177
     3
291
     0
 70
    58
 90
        3
176
     1
 90
        2
176
     1
 90
        0
176
     1
 90
        0
176
     1
 40
0.6
176
     1
 40
30.0
176
     1
 62
     7
420
 16777215
176
     1
 90
        2
176
     1
 90
        2
176
     1
 62
     7
176
     1
 62
   257
176
     1
 90
        1
176
     1
 90
        1
176
     1
 40
179.0
176
     1
 90
        8
176
     1
 62
     7
176
     1
 40
1.0
176
     1
 90
        1
176
     1
 90
        6
176
     1
 90
        2
176
     1
 62
     7
176
     1
 90
        3
176
     1
 90
        0
176
     1
 90
        0
176
     1
290
     0
176
     1
 90
        1
176
     1
 40
0.0
176
     1
 90
        0
176
     1
290
     0
176
     1
290
     1
176
     1
290
     1
176
     1
290
     0
176
     1
290
     0
176
     1
290
     0
176
     1
290
     0
176
     1
290
     0
176
     1
290
     0
176
     1
 90
       50
176
     1
 40
0.0
176
     1
 40
1.0
176
     1
 90
        0
176
     1
 62
    18
420
        0
176
     1
 90
       50
176
     1
 90
        3
176
     1
 62
     5
420
      255
176
     1
290
     0
176
     1
 90
       50
176
     1
 90
       50
176
     1
 90
       50
176
     1
290
     0
176
     1
 90
       50
176
     1
 62
   256
176
     0
 40
1.0
176
     0
 90
        2
176
     1
  1
strokes_ogs.tif
176
     1
290
     0
176
     1
 40
1.0
176
     1
 40
1.0
176
     1
  0
VISUALSTYLE
  5
35
102
{ACAD_REACTORS
330
2A
102
}
330
2A
100
AcDbVisualStyle
  2
Dim
 70
    11
177
     3
291
     1
 70
    58
 90
        2
176
     1
 90
        2
176
     1
 90
        0
176
     1
 90
        0
176
     1
 40
0.6
176
     1
 40
30.0
176
     1
 62
     7
420
 16777215
176
     1
 90
        1
176
     1
 90
        4
176
     1
 62
     7
176
     1
 62
   257
176
     1
 90
        1
176
     1
 90
        1
176
     1
 40
1.0
176
     1
 90
        8
176
     1
 62
     7
176
     1
 40
1.0
176
     1
 90
        1
176
     1
 90
        6
176
     1
 90
        2
176
     1
 62
     7
176
     1
 90
        5
176
     1
 90
        0
176
     1
 90
        0
176
     1
290
     0
176
     1
 90
        1
176
     1
 40
-50.0
176
     1
 90
        0
176
     1
290
     0
176
     1
290
     1
176
     1
290
     1
176
     1
290
     0
176
     1
290
     0
176
     1
290
     0
176
     1
290
     0
176
     1
290
     0
176
     1
290
     0
176
     1
 90
       50
176
     1
 40
0.0
176
     1
 40
1.0
176
     1
 90
        0
176
     1
 62
    18
420
        0
176
     1
 90
       50
176
     1
 90
        3
176
     1
 62
     5
420
      255
176
     1
290
     0
176
     1
 90
       50
176
     1
 90
       50
176
     1
 90
       50
176
     1
290
     0
176
     1
 90
       50
176
     1
 62
   256
176
     0
 40
1.0
176
     0
 90
        2
176
     1
  1
strokes_ogs.tif
176
     1
290
     0
176
     1
 40
1.0
176
     1
 40
1.0
176
     1
  0
VISUALSTYLE
  5
3D
102
{ACAD_REACTORS
330
2A
102
}
330
2A
100
AcDbVisualStyle
  2
EdgeColorOff
 70
    22
177
     3
291
     1
 70
    58
 90
        2
176
     0
 90
        2
176
     0
 90
        0
176
     0
 90
        0
176
     0
 40
0.6
176
     0
 40
30.0
176
     0
 62
     7
420
 16777215
176
     0
 90
        1
176
     0
 90
        4
176
     0
 62
     7
176
     0
 62
   257
176
     0
 90
        1
176
     0
 90
        1
176
     0
 40
1.0
176
     0
 90
        8
176
     2
 62
     7
176
     0
 40
1.0
176
     0
 90
        1
176
     0
 90
        6
176
     0
 90
        2
176
     0
 62
     7
176
     0
 90
        5
176
     0
 90
        0
176
     0
 90
        0
176
     0
290
     0
176
     0
 90
        1
176
     0
 40
0.0
176
     0
 90
        0
176
     0
290
     0
176
     0
290
     1
176
     0
290
     1
176
     0
290
     0
176
     0
290
     0
176
     0
290
     0
176
     0
290
     0
176
     0
290
     0
176
     0
290
     0
176
     0
 90
       50
176
     0
 40
0.0
176
     0
 40
1.0
176
     0
 90
        0
176
     0
 62
    18
420
        0
176
     0
 90
       50
176
     0
 90
        3
176
     0
 62
     5
420
      255
176
     0
290
     0
176
     0
 90
       50
176
     0
 90
       50
176
     0
 90
       50
176
     0
290
     0
176
     0
 90
       50
176
     0
 62
   256
176
     0
 40
1.0
176
     0
 90
        2
176
     0
  1
strokes_ogs.tif
176
     0
290
     0
176
     0
 40
1.0
176
     0
 40
1.0
176
     0
  0
VISUALSTYLE
  5
39
102
{ACAD_REACTORS
330
2A
102
}
330
2A
100
AcDbVisualStyle
  2
Facepattern
 70
    15
177
     3
291
     1
 70
    58
 90
        2
176
     1
 90
        2
176
     1
 90
        0
176
     1
 90
        0
176
     1
 40
0.6
176
     1
 40
30.0
176
     1
 62
     7
420
 16777215
176
     1
 90
        1
176
     1
 90
        4
176
     1
 62
     7
176
     1
 62
   257
176
     1
 90
        1
176
     1
 90
        1
176
     1
 40
1.0
176
     1
 90
        8
176
     1
 62
     7
176
     1
 40
1.0
176
     1
 90
        1
176
     1
 90
        6
176
     1
 90
        2
176
     1
 62
     7
176
     1
 90
        5
176
     1
 90
        0
176
     1
 90
        0
176
     1
290
     0
176
     1
 90
        1
176
     1
 40
0.0
176
     1
 90
        0
176
     1
290
     0
176
     1
290
     1
176
     1
290
     1
176
     1
290
     0
176
     1
290
     0
176
     1
290
     0
176
     1
290
     0
176
     1
290
     0
176
     1
290
     0
176
     1
 90
       50
176
     1
 40
0.0
176
     1
 40
1.0
176
     1
 90
        0
176
     1
 62
    18
420
        0
176
     1
 90
       50
176
     1
 90
        3
176
     1
 62
     5
420
      255
176
     1
290
     0
176
     1
 90
       50
176
     1
 90
       50
176
     1
 90
       50
176
     1
290
     0
176
     1
 90
       50
176
     1
 62
   256
176
     0
 40
1.0
176
     0
 90
        2
176
     1
  1
strokes_ogs.tif
176
     1
290
     0
176
     1
 40
1.0
176
     1
 40
1.0
176
     1
  0
VISUALSTYLE
  5
2B
102
{ACAD_REACTORS
330
2A
102
}
330
2A
100
AcDbVisualStyle
  2
Flat
 70
     0
177
     3
291
     1
 70
    58
 90
        2
176
     1
 90
        1
176
     1
 90
        1
176
     1
 90
        2
176
     1
 40
0.6
176
     1
 40
30.0
176
     1
 62
     7
420
 16777215
176
     1
 90
        0
176
     1
 90
        0
176
     1
 62
     7
176
     1
 62
   257
176
     1
 90
        1
176
     1
 90
        1
176
     1
 40
1.0
176
     1
 90
        8
176
     1
 62
     7
176
     1
 40
1.0
176
     1
 90
        1
176
     1
 90
        6
176
     1
 90
        2
176
     1
 62
     7
176
     1
 90
        5
176
     1
 90
        0
176
     1
 90
        0
176
     1
290
     0
176
     1
 90
       13
176
     1
 40
0.0
176
     1
 90
        0
176
     1
290
     0
176
     1
290
     1
176
     1
290
     1
176
     1
290
     0
176
     1
290
     0
176
     1
290
     0
176
     1
290
     0
176
     1
290
     0
176
     1
290
     0
176
     1
 90
       50
176
     1
 40
0.0
176
     1
 40
1.0
176
     1
 90
        0
176
     1
 62
    18
420
        0
176
     1
 90
       50
176
     1
 90
        3
176
     1
 62
     5
420
      255
176
     1
290
     0
176
     1
 90
       50
176
     1
 90
       50
176
     1
 90
       50
176
     1
290
     0
176
     1
 90
       50
176
     1
 62
   256
176
     0
 40
1.0
176
     0
 90
        2
176
     1
  1
strokes_ogs.tif
176
     1
290
     0
176
     1
 40
1.0
176
     1
 40
1.0
176
     1
  0
VISUALSTYLE
  5
2C
102
{ACAD_REACTORS
330
2A
102
}
330
2A
100
AcDbVisualStyle
  2
FlatWithEdges
 70
     1
177
     3
291
     1
 70
    58
 90
        2
176
     1
 90
        1
176
     1
 90
        1
176
     1
 90
        2
176
     1
 40
0.6
176
     1
 40
30.0
176
     1
 62
     7
420
 16777215
176
     1
 90
        1
176
     1
 90
        0
176
     1
 62
     7
176
     1
 62
   257
176
     1
 90
        1
176
     1
 90
        1
176
     1
 40
1.0
176
     1
 90
        0
176
     1
 62
   257
176
     1
 40
1.0
176
     1
 90
        1
176
     1
 90
        6
176
     1
 90
        2
176
     1
 62
     7
176
     1
 90
        5
176
     1
 90
        0
176
     1
 90
        0
176
     1
290
     0
176
     1
 90
       13
176
     1
 40
0.0
176
     1
 90
        0
176
     1
290
     0
176
     1
290
     1
176
     1
290
     1
176
     1
290
     0
176
     1
290
     0
176
     1
290
     0
176
     1
290
     0
176
     1
290
     0
176
     1
290
     0
176
     1
 90
       50
176
     1
 40
0.0
176
     1
 40
1.0
176
     1
 90
        0
176
     1
 62
    18
420
        0
176
     1
 90
       50
176
     1
 90
        3
176
     1
 62
     5
420
      255
176
     1
290
     0
176
     1
 90
       50
176
     1
 90
       50
176
     1
 90
       50
176
     1
290
     0
176
     1
 90
       50
176
     1
 62
   256
176
     0
 40
1.0
176
     0
 90
        2
176
     1
  1
strokes_ogs.tif
176
     1
290
     0
176
     1
 40
1.0
176
     1
 40
1.0
176
     1
  0
VISUALSTYLE
  5
2D
102
{ACAD_REACTORS
330
2A
102
}
330
2A
100
AcDbVisualStyle
  2
Gouraud
 70
     2
177
     3
291
     1
 70
    58
 90
        2
176
     1
 90
        2
176
     1
 90
        1
176
     1
 90
        2
176
     1
 40
0.6
176
     1
 40
30.0
176
     1
 62
     7
420
 16777215
176
     1
 90
        0
176
     1
 90
        0
176
     1
 62
     7
176
     1
 62
   257
176
     1
 90
        1
176
     1
 90
        1
176
     1
 40
1.0
176
     1
 90
        0
176
     1
 62
     7
176
     1
 40
1.0
176
     1
 90
        1
176
     1
 90
        6
176
     1
 90
        2
176
     1
 62
     7
176
     1
 90
        5
176
     1
 90
        0
176
     1
 90
        0
176
     1
290
     0
176
     1
 90
       13
176
     1
 40
0.0
176
     1
 90
        0
176
     1
290
     0
176
     1
290
     1
176
     1
290
     1
176
     1
290
     0
176
     1
290
     0
176
     1
290
     0
176
     1
290
     0
176
     1
290
     0
176
     1
290
     0
176
     1
 90
       50
176
     1
 40
0.0
176
     1
 40
1.0
176
     1
 90
        0
176
     1
 62
    18
420
        0
176
     1
 90
       50
176
     1
 90
        3
176
     1
 62
     5
420
      255
176
     1
290
     0
176
     1
 90
       50
176
     1
 90
       50
176
     1
 90
       50
176
     1
290
     0
176
     1
 90
       50
176
     1
 62
   256
176
     0
 40
1.0
176
     0
 90
        2
176
     1
  1
strokes_ogs.tif
176
     1
290
     0
176
     1
 40
1.0
176
     1
 40
1.0
176
     1
  0
VISUALSTYLE
  5
2E
102
{ACAD_REACTORS
330
2A
102
}
330
2A
100
AcDbVisualStyle
  2
GouraudWithEdges
 70
     3
177
     3
291
     1
 70
    58
 90
        2
176
     1
 90
        2
176
     1
 90
        1
176
     1
 90
        2
176
     1
 40
0.6
176
     1
 40
30.0
176
     1
 62
     7
420
 16777215
176
     1
 90
        1
176
     1
 90
        0
176
     1
 62
     7
176
     1
 62
   257
176
     1
 90
        1
176
     1
 90
        1
176
     1
 40
1.0
176
     1
 90
        0
176
     1
 62
   257
176
     1
 40
1.0
176
     1
 90
        1
176
     1
 90
        6
176
     1
 90
        2
176
     1
 62
     7
176
     1
 90
        5
176
     1
 90
        0
176
     1
 90
        0
176
     1
290
     0
176
     1
 90
       13
176
     1
 40
0.0
176
     1
 90
        0
176
     1
290
     0
176
     1
290
     1
176
     1
290
     1
176
     1
290
     0
176
     1
290
     0
176
     1
290
     0
176
     1
290
     0
176
     1
290
     0
176
     1
290
     0
176
     1
 90
       50
176
     1
 40
0.0
176
     1
 40
1.0
176
     1
 90
        0
176
     1
 62
    18
420
        0
176
     1
 90
       50
176
     1
 90
        3
176
     1
 62
     5
420
      255
176
     1
290
     0
176
     1
 90
       50
176
     1
 90
       50
176
     1
 90
       50
176
     1
290
     0
176
     1
 90
       50
176
     1
 62
   256
176
     0
 40
1.0
176
     0
 90
        2
176
     1
  1
strokes_ogs.tif
176
     1
290
     0
176
     1
 40
1.0
176
     1
 40
1.0
176
     1
  0
VISUALSTYLE
  5
31
102
{ACAD_REACTORS
330
2A
102
}
330
2A
100
AcDbVisualStyle
  2
Hidden
 70
     6
177
     3
291
     0
 70
    58
 90
        1
176
     1
 90
        2
176
     1
 90
        2
176
     1
 90
        0
176
     1
 40
0.6
176
     1
 40
30.0
176
     1
 62
     7
420
 16777215
176
     1
 90
        2
176
     1
 90
        2
176
     1
 62
     7
176
     1
 62
   257
176
     1
 90
        2
176
     1
 90
        1
176
     1
 40
40.0
176
     1
 90
        0
176
     1
 62
   257
176
     1
 40
1.0
176
     1
 90
        1
176
     1
 90
        6
176
     1
 90
        2
176
     1
 62
     7
176
     1
 90
        3
176
     1
 90
        0
176
     1
 90
        0
176
     1
290
     0
176
     1
 90
        1
176
     1
 40
0.0
176
     1
 90
        0
176
     1
290
     0
176
     1
290
     1
176
     1
290
     1
176
     1
290
     0
176
     1
290
     0
176
     1
290
     0
176
     1
290
     0
176
     1
290
     0
176
     1
290
     0
176
     1
 90
       50
176
     1
 40
0.0
176
     1
 40
1.0
176
     1
 90
        0
176
     1
 62
    18
420
        0
176
     1
 90
       50
176
     1
 90
        3
176
     1
 62
     5
420
      255
176
     1
290
     0
176
     1
 90
       50
176
     1
 90
       50
176
     1
 90
       50
176
     1
290
     0
176
     1
 90
       50
176
     1
 62
   256
176
     0
 40
1.0
176
     0
 90
        2
176
     1
  1
strokes_ogs.tif
176
     1
290
     0
176
     1
 40
1.0
176
     1
 40
1.0
176
     1
  0
VISUALSTYLE
  5
3B
102
{ACAD_REACTORS
330
2A
102
}
330
2A
100
AcDbVisualStyle
  2
JitterOff
 70
    20
177
     3
291
     1
 70
    58
 90
        2
176
     0
 90
        2
176
     0
 90
        0
176
     0
 90
        0
176
     0
 40
0.6
176
     0
 40
30.0
176
     0
 62
     7
420
 16777215
176
     0
 90
        1
176
     0
 90
        4
176
     0
 62
     7
176
     0
 62
   257
176
     0
 90
        1
176
     0
 90
        1
176
     0
 40
1.0
176
     0
 90
       10
176
     2
 62
     7
176
     0
 40
1.0
176
     0
 90
        1
176
     0
 90
        6
176
     0
 90
        2
176
     0
 62
     7
176
     0
 90
        5
176
     0
 90
        0
176
     0
 90
        0
176
     0
290
     0
176
     0
 90
        1
176
     0
 40
0.0
176
     0
 90
        0
176
     0
290
     0
176
     0
290
     1
176
     0
290
     1
176
     0
290
     0
176
     0
290
     0
176
     0
290
     0
176
     0
290
     0
176
     0
290
     0
176
     0
290
     0
176
     0
 90
       50
176
     0
 40
0.0
176
     0
 40
1.0
176
     0
 90
        0
176
     0
 62
    18
420
        0
176
     0
 90
       50
176
     0
 90
        3
176
     0
 62
     5
420
      255
176
     0
290
     0
176
     0
 90
       50
176
     0
 90
       50
176
     0
 90
       50
176
     0
290
     0
176
     0
 90
       50
176
     0
 62
   256
176
     0
 40
1.0
176
     0
 90
        2
176
     0
  1
strokes_ogs.tif
176
     0
290
     0
176
     0
 40
1.0
176
     0
 40
1.0
176
     0
  0
VISUALSTYLE
  5
38
102
{ACAD_REACTORS
330
2A
102
}
330
2A
100
AcDbVisualStyle
  2
Linepattern
 70
    14
177
     3
291
     1
 70
    58
 90
        2
176
     1
 90
        2
176
     1
 90
        0
176
     1
 90
        0
176
     1
 40
0.6
176
     1
 40
30.0
176
     1
 62
     7
420
 16777215
176
     1
 90
        1
176
     1
 90
        4
176
     1
 62
     7
176
     1
 62
   257
176
     1
 90
        7
176
     1
 90
        7
176
     1
 40
1.0
176
     1
 90
        8
176
     1
 62
     7
176
     1
 40
1.0
176
     1
 90
        1
176
     1
 90
        6
176
     1
 90
        2
176
     1
 62
     7
176
     1
 90
        5
176
     1
 90
        0
176
     1
 90
        0
176
     1
290
     0
176
     1
 90
        1
176
     1
 40
0.0
176
     1
 90
        0
176
     1
290
     0
176
     1
290
     1
176
     1
290
     1
176
     1
290
     0
176
     1
290
     0
176
     1
290
     0
176
     1
290
     0
176
     1
290
     0
176
     1
290
     0
176
     1
 90
       50
176
     1
 40
0.0
176
     1
 40
1.0
176
     1
 90
        0
176
     1
 62
    18
420
        0
176
     1
 90
       50
176
     1
 90
        3
176
     1
 62
     5
420
      255
176
     1
290
     0
176
     1
 90
       50
176
     1
 90
       50
176
     1
 90
       50
176
     1
290
     0
176
     1
 90
       50
176
     1
 62
   256
176
     0
 40
1.0
176
     0
 90
        2
176
     1
  1
strokes_ogs.tif
176
     1
290
     0
176
     1
 40
1.0
176
     1
 40
1.0
176
     1
  0
VISUALSTYLE
  5
3C
102
{ACAD_REACTORS
330
2A
102
}
330
2A
100
AcDbVisualStyle
  2
OverhangOff
 70
    21
177
     3
291
     1
 70
    58
 90
        2
176
     0
 90
        2
176
     0
 90
        0
176
     0
 90
        0
176
     0
 40
0.6
176
     0
 40
30.0
176
     0
 62
     7
420
 16777215
176
     0
 90
        1
176
     0
 90
        4
176
     0
 62
     7
176
     0
 62
   257
176
     0
 90
        1
176
     0
 90
        1
176
     0
 40
1.0
176
     0
 90
        9
176
     2
 62
     7
176
     0
 40
1.0
176
     0
 90
        1
176
     0
 90
        6
176
     0
 90
        2
176
     0
 62
     7
176
     0
 90
        5
176
     0
 90
        0
176
     0
 90
        0
176
     0
290
     0
176
     0
 90
        1
176
     0
 40
0.0
176
     0
 90
        0
176
     0
290
     0
176
     0
290
     1
176
     0
290
     1
176
     0
290
     0
176
     0
290
     0
176
     0
290
     0
176
     0
290
     0
176
     0
290
     0
176
     0
290
     0
176
     0
 90
       50
176
     0
 40
0.0
176
     0
 40
1.0
176
     0
 90
        0
176
     0
 62
    18
420
        0
176
     0
 90
       50
176
     0
 90
        3
176
     0
 62
     5
420
      255
176
     0
290
     0
176
     0
 90
       50
176
     0
 90
       50
176
     0
 90
       50
176
     0
290
     0
176
     0
 90
       50
176
     0
 62
   256
176
     0
 40
1.0
176
     0
 90
        2
176
     0
  1
strokes_ogs.tif
176
     0
290
     0
176
     0
 40
1.0
176
     0
 40
1.0
176
     0
  0
VISUALSTYLE
  5
33
102
{ACAD_REACTORS
330
2A
102
}
330
2A
100
AcDbVisualStyle
  2
Realistic
 70
     8
177
     3
291
     0
 70
    58
 90
        2
176
     1
 90
        3
176
     1
 90
        0
176
     1
 90
        2
176
     1
 40
0.6
176
     1
 40
30.0
176
     1
 62
     7
420
 16777215
176
     1
 90
        0
176
     1
 90
        0
176
     1
 62
     7
176
     1
 62
   257
176
     1
 90
        1
176
     1
 90
        1
176
     1
 40
1.0
176
     1
 90
        8
176
     1
 62
   257
176
     1
 40
1.0
176
     1
 90
        1
176
     1
 90
        6
176
     1
 90
        2
176
     1
 62
     7
176
     1
 90
        3
176
     1
 90
        0
176
     1
 90
        0
176
     1
290
     0
176
     1
 90
       13
176
     1
 40
0.0
176
     1
 90
        0
176
     1
290
     0
176
     1
290
     1
176
     1
290
     1
176
     1
290
     0
176
     1
290
     0
176
     1
290
     0
176
     1
290
     0
176
     1
290
     0
176
     1
290
     0
176
     1
 90
       50
176
     1
 40
0.0
176
     1
 40
1.0
176
     1
 90
        0
176
     1
 62
    18
420
        0
176
     1
 90
       50
176
     1
 90
        3
176
     1
 62
     5
420
      255
176
     1
290
     0
176
     1
 90
       50
176
     1
 90
       50
176
     1
 90
       50
176
     1
290
     0
176
     1
 90
       50
176
     1
 62
   256
176
     0
 40
1.0
176
     0
 90
        2
176
     1
  1
strokes_ogs.tif
176
     1
290
     0
176
     1
 40
1.0
176
     1
 40
1.0
176
     1
  0
VISUALSTYLE
  5
42
102
{ACAD_REACTORS
330
2A
102
}
330
2A
100
AcDbVisualStyle
  2
Shaded
 70
    27
177
     3
291
     0
 70
    58
 90
        2
176
     1
 90
        2
176
     1
 90
        1
176
     1
 90
        2
176
     1
 40
0.6
176
     1
 40
30.0
176
     1
 62
     7
420
 16777215
176
     1
 90
        0
176
     1
 90
        4
176
     1
 62
     7
176
     1
 62
   257
176
     1
 90
        1
176
     1
 90
        1
176
     1
 40
1.0
176
     1
 90
        8
176
     1
 62
   257
176
     1
 40
1.0
176
     1
 90
        1
176
     1
 90
        6
176
     1
 90
        2
176
     1
 62
     8
420
  7895160
176
     1
 90
        3
176
     1
 90
        0
176
     1
 90
        0
176
     1
290
     0
176
     1
 90
        5
176
     1
 40
0.0
176
     1
 90
        0
176
     1
290
     0
176
     1
290
     1
176
     1
290
     1
176
     1
290
     0
176
     1
290
     0
176
     1
290
     0
176
     1
290
     0
176
     1
290
     0
176
     1
290
     0
176
     1
 90
       50
176
     1
 40
0.0
176
     1
 40
1.0
176
     1
 90
        0
176
     1
 62
    18
420
        0
176
     1
 90
       50
176
     1
 90
        3
176
     1
 62
     5
420
      255
176
     1
290
     0
176
     1
 90
       50
176
     1
 90
       50
176
     1
 90
       50
176
     1
290
     0
176
     1
 90
       50
176
     1
 62
   256
176
     0
 40
1.0
176
     0
 90
        2
176
     1
  1
strokes_ogs.tif
176
     1
290
     0
176
     1
 40
1.0
176
     1
 40
1.0
176
     1
  0
VISUALSTYLE
  5
41
102
{ACAD_REACTORS
330
2A
102
}
330
2A
100
AcDbVisualStyle
  2
Shaded with edges
 70
    26
177
     3
291
     0
 70
    58
 90
        2
176
     1
 90
        2
176
     1
 90
        1
176
     1
 90
        2
176
     1
 40
0.6
176
     1
 40
30.0
176
     1
 62
     7
420
 16777215
176
     1
 90
        1
176
     1
 90
       10
176
     1
 62
     7
176
     1
 62
   257
176
     1
 90
        2
176
     1
 90
        1
176
     1
 40
1.0
176
     1
 90
        8
176
     1
 62
   257
176
     1
 40
1.0
176
     1
 90
        1
176
     1
 90
        6
176
     1
 90
        2
176
     1
 62
     7
176
     1
 90
        3
176
     1
 90
        0
176
     1
 90
        0
176
     1
290
     0
176
     1
 90
        5
176
     1
 40
0.0
176
     1
 90
        0
176
     1
290
     0
176
     1
290
     1
176
     1
290
     1
176
     1
290
     0
176
     1
290
     0
176
     1
290
     0
176
     1
290
     0
176
     1
290
     0
176
     1
290
     0
176
     1
 90
       50
176
     1
 40
0.0
176
     1
 40
1.0
176
     1
 90
        0
176
     1
 62
    18
420
        0
176
     1
 90
       50
176
     1
 90
        3
176
     1
 62
     5
420
      255
176
     1
290
     0
176
     1
 90
       50
176
     1
 90
       50
176
     1
 90
       50
176
     1
290
     0
176
     1
 90
       50
176
     1
 62
   256
176
     0
 40
1.0
176
     0
 90
        2
176
     1
  1
strokes_ogs.tif
176
     1
290
     0
176
     1
 40
1.0
176
     1
 40
1.0
176
     1
  0
VISUALSTYLE
  5
3E
102
{ACAD_REACTORS
330
2A
102
}
330
2A
100
AcDbVisualStyle
  2
Shades of Gray
 70
    23
177
     3
291
     0
 70
    58
 90
        2
176
     1
 90
        2
176
     1
 90
        3
176
     1
 90
        0
176
     1
 40
0.6
176
     1
 40
30.0
176
     1
 62
     7
420
 16777215
176
     1
 90
        2
176
     1
 90
        2
176
     1
 62
     7
176
     1
 62
     7
176
     1
 90
        1
176
     1
 90
        1
176
     1
 40
40.0
176
     1
 90
        8
176
     1
 62
     7
176
     1
 40
1.0
176
     1
 90
        1
176
     1
 90
        6
176
     1
 90
        2
176
     1
 62
     7
176
     1
 90
        3
176
     1
 90
        0
176
     1
 90
        0
176
     1
290
     0
176
     1
 90
        1
176
     1
 40
0.0
176
     1
 90
        0
176
     1
290
     0
176
     1
290
     1
176
     1
290
     1
176
     1
290
     0
176
     1
290
     0
176
     1
290
     0
176
     1
290
     0
176
     1
290
     0
176
     1
290
     0
176
     1
 90
       50
176
     1
 40
0.0
176
     1
 40
1.0
176
     1
 90
        0
176
     1
 62
    18
420
        0
176
     1
 90
       50
176
     1
 90
        3
176
     1
 62
     5
420
      255
176
     1
290
     0
176
     1
 90
       50
176
     1
 90
       50
176
     1
 90
       50
176
     1
290
     0
176
     1
 90
       50
176
     1
 62
   256
176
     0
 40
1.0
176
     0
 90
        2
176
     1
  1
strokes_ogs.tif
176
     1
290
     0
176
     1
 40
1.0
176
     1
 40
1.0
176
     1
  0
VISUALSTYLE
  5
3F
102
{ACAD_REACTORS
330
2A
102
}
330
2A
100
AcDbVisualStyle
  2
Sketchy
 70
    24
177
     3
291
     0
 70
    58
 90
        1
176
     1
 90
        2
176
     1
 90
        2
176
     1
 90
        0
176
     1
 40
0.6
176
     1
 40
30.0
176
     1
 62
     7
420
 16777215
176
     1
 90
        2
176
     1
 90
        2
176
     1
 62
     7
176
     1
 62
     7
176
     1
 90
        1
176
     1
 90
        1
176
     1
 40
40.0
176
     1
 90
       11
176
     1
 62
     7
176
     1
 40
1.0
176
     1
 90
        1
176
     1
 90
        6
176
     1
 90
        2
176
     1
 62
     7
176
     1
 90
        6
176
     1
 90
        0
176
     1
 90
        0
176
     1
290
     0
176
     1
 90
        1
176
     1
 40
0.0
176
     1
 90
        0
176
     1
290
     0
176
     1
290
     1
176
     1
290
     1
176
     1
290
     0
176
     1
290
     0
176
     1
290
     0
176
     1
290
     0
176
     1
290
     0
176
     1
290
     0
176
     1
 90
       50
176
     1
 40
0.0
176
     1
 40
1.0
176
     1
 90
        0
176
     1
 62
    18
420
        0
176
     1
 90
       50
176
     1
 90
        3
176
     1
 62
     5
420
      255
176
     1
290
     0
176
     1
 90
       50
176
     1
 90
       50
176
     1
 90
       50
176
     1
290
     0
176
     1
 90
       50
176
     1
 62
   256
176
     0
 40
1.0
176
     0
 90
        2
176
     1
  1
strokes_ogs.tif
176
     1
290
     0
176
     1
 40
1.0
176
     1
 40
1.0
176
     1
  0
VISUALSTYLE
  5
37
102
{ACAD_REACTORS
330
2A
102
}
330
2A
100
AcDbVisualStyle
  2
Thicken
 70
    13
177
     3
291
     1
 70
    58
 90
        2
176
     1
 90
        2
176
     1
 90
        0
176
     1
 90
        0
176
     1
 40
0.6
176
     1
 40
30.0
176
     1
 62
     7
420
 16777215
176
     1
 90
        1
176
     1
 90
        4
176
     1
 62
     7
176
     1
 62
   257
176
     1
 90
        1
176
     1
 90
        1
176
     1
 40
1.0
176
     1
 90
       12
176
     1
 62
     7
176
     1
 40
1.0
176
     1
 90
        1
176
     1
 90
        6
176
     1
 90
        2
176
     1
 62
     7
176
     1
 90
        5
176
     1
 90
        0
176
     1
 90
        0
176
     1
290
     0
176
     1
 90
        1
176
     1
 40
0.0
176
     1
 90
        0
176
     1
290
     0
176
     1
290
     1
176
     1
290
     1
176
     1
290
     0
176
     1
290
     0
176
     1
290
     0
176
     1
290
     0
176
     1
290
     0
176
     1
290
     0
176
     1
 90
       50
176
     1
 40
0.0
176
     1
 40
1.0
176
     1
 90
        0
176
     1
 62
    18
420
        0
176
     1
 90
       50
176
     1
 90
        3
176
     1
 62
     5
420
      255
176
     1
290
     0
176
     1
 90
       50
176
     1
 90
       50
176
     1
 90
       50
176
     1
290
     0
176
     1
 90
       50
176
     1
 62
   256
176
     0
 40
1.0
176
     0
 90
        2
176
     1
  1
strokes_ogs.tif
176
     1
290
     0
176
     1
 40
1.0
176
     1
 40
1.0
176
     1
  0
VISUALSTYLE
  5
30
102
{ACAD_REACTORS
330
2A
102
}
330
2A
100
AcDbVisualStyle
  2
Wireframe
 70
     5
177
     3
291
     0
 70
    58
 90
        0
176
     1
 90
        2
176
     1
 90
        0
176
     1
 90
        0
176
     1
 40
0.6
176
     1
 40
30.0
176
     1
 62
     7
420
 16777215
176
     1
 90
        1
176
     1
 90
        4
176
     1
 62
     7
176
     1
 62
   257
176
     1
 90
        1
176
     1
 90
        1
176
     1
 40
1.0
176
     1
 90
        0
176
     1
 62
   257
176
     1
 40
1.0
176
     1
 90
        1
176
     1
 90
        6
176
     1
 90
        2
176
     1
 62
     7
176
     1
 90
        3
176
     1
 90
        0
176
     1
 90
        0
176
     1
290
     0
176
     1
 90
        1
176
     1
 40
0.0
176
     1
 90
        0
176
     1
290
     0
176
     1
290
     1
176
     1
290
     1
176
     1
290
     0
176
     1
290
     0
176
     1
290
     0
176
     1
290
     0
176
     1
290
     0
176
     1
290
     0
176
     1
 90
       50
176
     1
 40
0.0
176
     1
 40
1.0
176
     1
 90
        0
176
     1
 62
    18
420
        0
176
     1
 90
       50
176
     1
 90
        3
176
     1
 62
     5
420
      255
176
     1
290
     0
176
     1
 90
       50
176
     1
 90
       50
176
     1
 90
       50
176
     1
290
     0
176
     1
 90
       50
176
     1
 62
   256
176
     0
 40
1.0
176
     0
 90
        2
176
     1
  1
strokes_ogs.tif
176
     1
290
     0
176
     1
 40
1.0
176
     1
 40
1.0
176
     1
  0
VISUALSTYLE
  5
40
102
{ACAD_REACTORS
330
2A
102
}
330
2A
100
AcDbVisualStyle
  2
X-Ray
 70
    25
177
     3
291
     0
 70
    58
 90
        2
176
     1
 90
        2
176
     1
 90
        1
176
     1
 90
        1
176
     1
 40
0.5
176
     1
 40
30.0
176
     1
 62
     7
420
 16777215
176
     1
 90
        1
176
     1
 90
        0
176
     1
 62
     7
176
     1
 62
   257
176
     1
 90
        1
176
     1
 90
        1
176
     1
 40
1.0
176
     1
 90
        8
176
     1
 62
     7
176
     1
 40
1.0
176
     1
 90
        1
176
     1
 90
        6
176
     1
 90
        2
176
     1
 62
     7
176
     1
 90
        3
176
     1
 90
        0
176
     1
 90
        0
176
     1
290
     0
176
     1
 90
       13
176
     1
 40
0.0
176
     1
 90
        0
176
     1
290
     0
176
     1
290
     1
176
     1
290
     1
176
     1
290
     0
176
     1
290
     0
176
     1
290
     0
176
     1
290
     0
176
     1
290
     0
176
     1
290
     0
176
     1
 90
       50
176
     1
 40
0.0
176
     1
 40
1.0
176
     1
 90
        0
176
     1
 62
    18
420
        0
176
     1
 90
       50
176
     1
 90
        3
176
     1
 62
     5
420
      255
176
     1
290
     0
176
     1
 90
       50
176
     1
 90
       50
176
     1
 90
       50
176
     1
290
     0
176
     1
 90
       50
176
     1
 62
   256
176
     0
 40
1.0
176
     0
 90
        2
176
     1
  1
strokes_ogs.tif
176
     1
290
     0
176
     1
 40
1.0
176
     1
 40
1.0
176
     1
  0
DICTIONARYVAR
  5
97
102
{ACAD_REACTORS
330
96
102
}
330
96
100
DictionaryVariables
280
     0
  1
1:1
  0
DICTIONARYVAR
  5
9C
102
{ACAD_REACTORS
330
96
102
}
330
96
100
DictionaryVariables
280
     0
  1
Standard
  0
DICTIONARYVAR
  5
9B
102
{ACAD_REACTORS
330
96
102
}
330
96
100
DictionaryVariables
280
     0
  1
Standard
  0
DICTIONARY
  5
98
330
5A
100
AcDbDictionary
280
     1
281
     1
  3
ACAD_ROUNDTRIP_2008_TABLESTYLE_CELLSTYLEMAP
360
99
  0
CELLSTYLEMAP
  5
99
102
{ACAD_REACTORS
330
98
102
}
330
98
100
AcDbCellStyleMap
 90
        3
300
CELLSTYLE
  1
TABLEFORMAT_BEGIN
 90
        5
170
     1
 91
        0
 92
    32768
 62
   257
 93
        1
300
CONTENTFORMAT
  1
CONTENTFORMAT_BEGIN
 90
        0
 91
        0
 92
        4
 93
        0
300

 40
0.0
140
1.0
 94
        5
 62
     0
340
11
144
0.25
309
CONTENTFORMAT_END
171
     1
301
MARGIN
  1
CELLMARGIN_BEGIN
 40
0.06
 40
0.06
 40
0.06
 40
0.06
 40
0.06
 40
0.06
309
CELLMARGIN_END
 94
        6
 95
        1
302
GRIDFORMAT
  1
GRIDFORMAT_BEGIN
 90
        0
 91
        1
 62
     0
 92
       -2
340
14
 93
        0
 40
0.045
309
GRIDFORMAT_END
 95
        2
302
GRIDFORMAT
  1
GRIDFORMAT_BEGIN
 90
        0
 91
        1
 62
     0
 92
       -2
340
14
 93
        0
 40
0.045
309
GRIDFORMAT_END
 95
        4
302
GRIDFORMAT
  1
GRIDFORMAT_BEGIN
 90
        0
 91
        1
 62
     0
 92
       -2
340
14
 93
        0
 40
0.045
309
GRIDFORMAT_END
 95
        8
302
GRIDFORMAT
  1
GRIDFORMAT_BEGIN
 90
        0
 91
        1
 62
     0
 92
       -2
340
14
 93
        0
 40
0.045
309
GRIDFORMAT_END
 95
       16
302
GRIDFORMAT
  1
GRIDFORMAT_BEGIN
 90
        0
 91
        1
 62
     0
 92
       -2
340
14
 93
        0
 40
0.045
309
GRIDFORMAT_END
 95
       32
302
GRIDFORMAT
  1
GRIDFORMAT_BEGIN
 90
        0
 91
        1
 62
     0
 92
       -2
340
14
 93
        0
 40
0.045
309
GRIDFORMAT_END
309
TABLEFORMAT_END
  1
CELLSTYLE_BEGIN
 90
        1
 91
        1
300
_TITLE
309
CELLSTYLE_END
300
CELLSTYLE
  1
TABLEFORMAT_BEGIN
 90
        5
170
     1
 91
        0
 92
        0
 62
   257
 93
        1
300
CONTENTFORMAT
  1
CONTENTFORMAT_BEGIN
 90
        0
 91
        0
 92
        4
 93
        0
300

 40
0.0
140
1.0
 94
        5
 62
     0
340
11
144
0.18
309
CONTENTFORMAT_END
171
     1
301
MARGIN
  1
CELLMARGIN_BEGIN
 40
0.06
 40
0.06
 40
0.06
 40
0.06
 40
0.06
 40
0.06
309
CELLMARGIN_END
 94
        6
 95
        1
302
GRIDFORMAT
  1
GRIDFORMAT_BEGIN
 90
        0
 91
        1
 62
     0
 92
       -2
340
14
 93
        0
 40
0.045
309
GRIDFORMAT_END
 95
        2
302
GRIDFORMAT
  1
GRIDFORMAT_BEGIN
 90
        0
 91
        1
 62
     0
 92
       -2
340
14
 93
        0
 40
0.045
309
GRIDFORMAT_END
 95
        4
302
GRIDFORMAT
  1
GRIDFORMAT_BEGIN
 90
        0
 91
        1
 62
     0
 92
       -2
340
14
 93
        0
 40
0.045
309
GRIDFORMAT_END
 95
        8
302
GRIDFORMAT
  1
GRIDFORMAT_BEGIN
 90
        0
 91
        1
 62
     0
 92
       -2
340
14
 93
        0
 40
0.045
309
GRIDFORMAT_END
 95
       16
302
GRIDFORMAT
  1
GRIDFORMAT_BEGIN
 90
        0
 91
        1
 62
     0
 92
       -2
340
14
 93
        0
 40
0.045
309
GRIDFORMAT_END
 95
       32
302
GRIDFORMAT
  1
GRIDFORMAT_BEGIN
 90
        0
 91
        1
 62
     0
 92
       -2
340
14
 93
        0
 40
0.045
309
GRIDFORMAT_END
309
TABLEFORMAT_END
  1
CELLSTYLE_BEGIN
 90
        2
 91
        1
300
_HEADER
309
CELLSTYLE_END
300
CELLSTYLE
  1
TABLEFORMAT_BEGIN
 90
        5
170
     1
 91
        0
 92
        0
 62
   257
 93
        1
300
CONTENTFORMAT
  1
CONTENTFORMAT_BEGIN
 90
        0
 91
        0
 92
        4
 93
        0
300

 40
0.0
140
1.0
 94
        2
 62
     0
340
11
144
0.18
309
CONTENTFORMAT_END
171
     1
301
MARGIN
  1
CELLMARGIN_BEGIN
 40
0.06
 40
0.06
 40
0.06
 40
0.06
 40
0.06
 40
0.06
309
CELLMARGIN_END
 94
        6
 95
        1
302
GRIDFORMAT
  1
GRIDFORMAT_BEGIN
 90
        0
 91
        1
 62
     0
 92
       -2
340
14
 93
        0
 40
0.045
309
GRIDFORMAT_END
 95
        2
302
GRIDFORMAT
  1
GRIDFORMAT_BEGIN
 90
        0
 91
        1
 62
     0
 92
       -2
340
14
 93
        0
 40
0.045
309
GRIDFORMAT_END
 95
        4
302
GRIDFORMAT
  1
GRIDFORMAT_BEGIN
 90
        0
 91
        1
 62
     0
 92
       -2
340
14
 93
        0
 40
0.045
309
GRIDFORMAT_END
 95
        8
302
GRIDFORMAT
  1
GRIDFORMAT_BEGIN
 90
        0
 91
        1
 62
     0
 92
       -2
340
14
 93
        0
 40
0.045
309
GRIDFORMAT_END
 95
       16
302
GRIDFORMAT
  1
GRIDFORMAT_BEGIN
 90
        0
 91
        1
 62
     0
 92
       -2
340
14
 93
        0
 40
0.045
309
GRIDFORMAT_END
 95
       32
302
GRIDFORMAT
  1
GRIDFORMAT_BEGIN
 90
        0
 91
        1
 62
     0
 92
       -2
340
14
 93
        0
 40
0.045
309
GRIDFORMAT_END
309
TABLEFORMAT_END
  1
CELLSTYLE_BEGIN
 90
        3
 91
        2
300
_DATA
309
CELLSTYLE_END
  0
ENDSEC
  0
EOF
