  0
SECTION
  2
HEADER
  9
$ACADVER
  1
AC1032
  9
$ACADMAINTVER
 90
       55
  9
$DWGCODEPAGE
  3
ANSI_1252
  9
$LASTSAVEDBY
  1
Abolfazl
  9
$REQUIREDVERSIONS
160
                 0
  9
$INSBASE
 10
0.0
 20
0.0
 30
0.0
  9
$EXTMIN
 10
-10.0613
 20
-10.0613
 30
0.0
  9
$EXTMAX
 10
9.9387
 20
9.9387
 30
0.0
  9
$LIMMIN
 10
0.0
 20
0.0
  9
$LIMMAX
 10
12.0
 20
9.0
  9
$ORTHOMODE
 70
     0
  9
$REGENMODE
 70
     1
  9
$FILLMODE
 70
     1
  9
$QTEXTMODE
 70
     0
  9
$MIRRTEXT
 70
     1
  9
$LTSCALE
 40
1.0
  9
$ATTMODE
 70
     1
  9
$TEXTSIZE
 40
0.2
  9
$TRACEWID
 40
0.05
  9
$TEXTSTYLE
  7
Standard
  9
$CLAYER
  8
0
  9
$CELTYPE
  6
ByLayer
  9
$CECOLOR
 62
   256
  9
$CELTSCALE
 40
1.0
  9
$DISPSILH
 70
     0
  9
$DIMSCALE
 40
1.0
  9
$DIMASZ
 40
0.18
  9
$DIMEXO
 40
0.0625
  9
$DIMDLI
 40
0.38
  9
$DIMRND
 40
0.0
  9
$DIMDLE
 40
0.0
  9
$DIMEXE
 40
0.18
  9
$DIMTP
 40
0.0
  9
$DIMTM
 40
0.0
  9
$DIMTXT
 40
0.18
  9
$DIMCEN
 40
0.09
  9
$DIMTSZ
 40
0.0
  9
$DIMTOL
 70
     0
  9
$DIMLIM
 70
     0
  9
$DIMTIH
 70
     1
  9
$DIMTOH
 70
     1
  9
$DIMSE1
 70
     0
  9
$DIMSE2
 70
     0
  9
$DIMTAD
 70
     0
  9
$DIMZIN
 70
     0
  9
$DIMBLK
  1

  9
$DIMASO
 70
     1
  9
$DIMSHO
 70
     1
  9
$DIMPOST
  1

  9
$DIMAPOST
  1

  9
$DIMALT
 70
     0
  9
$DIMALTD
 70
     2
  9
$DIMALTF
 40
25.4
  9
$DIMLFAC
 40
1.0
  9
$DIMTOFL
 70
     0
  9
$DIMTVP
 40
0.0
  9
$DIMTIX
 70
     0
  9
$DIMSOXD
 70
     0
  9
$DIMSAH
 70
     0
  9
$DIMBLK1
  1

  9
$DIMBLK2
  1

  9
$DIMSTYLE
  2
Standard
  9
$DIMCLRD
 70
     0
  9
$DIMCLRE
 70
     0
  9
$DIMCLRT
 70
     0
  9
$DIMTFAC
 40
1.0
  9
$DIMGAP
 40
0.09
  9
$DIMJUST
 70
     0
  9
$DIMSD1
 70
     0
  9
$DIMSD2
 70
     0
  9
$DIMTOLJ
 70
     1
  9
$DIMTZIN
 70
     0
  9
$DIMALTZ
 70
     0
  9
$DIMALTTZ
 70
     0
  9
$DIMUPT
 70
     0
  9
$DIMDEC
 70
     4
  9
$DIMTDEC
 70
     4
  9
$DIMALTU
 70
     2
  9
$DIMALTTD
 70
     2
  9
$DIMTXSTY
  7
Standard
  9
$DIMAUNIT
 70
     0
  9
$DIMADEC
 70
     0
  9
$DIMALTRND
 40
0.0
  9
$DIMAZIN
 70
     0
  9
$DIMDSEP
 70
    46
  9
$DIMATFIT
 70
     3
  9
$DIMFRAC
 70
     0
  9
$DIMLDRBLK
  1

  9
$DIMLUNIT
 70
     2
  9
$DIMLWD
 70
    -2
  9
$DIMLWE
 70
    -2
  9
$DIMTMOVE
 70
     0
  9
$DIMFXL
 40
1.0
  9
$DIMFXLON
 70
     0
  9
$DIMJOGANG
 40
0.7853981633974483
  9
$DIMTFILL
 70
     0
  9
$DIMTFILLCLR
 70
     0
  9
$DIMARCSYM
 70
     0
  9
$DIMLTYPE
  6

  9
$DIMLTEX1
  6

  9
$DIMLTEX2
  6

  9
$DIMTXTDIRECTION
 70
     0
  9
$LUNITS
 70
     2
  9
$LUPREC
 70
     4
  9
$SKETCHINC
 40
0.1
  9
$FILLETRAD
 40
0.0
  9
$AUNITS
 70
     0
  9
$AUPREC
 70
     0
  9
$MENU
  1
.
  9
$ELEVATION
 40
0.0
  9
$PELEVATION
 40
0.0
  9
$THICKNESS
 40
0.0
  9
$LIMCHECK
 70
     0
  9
$CHAMFERA
 40
0.0
  9
$CHAMFERB
 40
0.0
  9
$CHAMFERC
 40
0.0
  9
$CHAMFERD
 40
0.0
  9
$SKPOLY
 70
     0
  9
$TDCREATE
 40
2460620.808501239
  9
$TDUCREATE
 40
2460620.662667905
  9
$TDUPDATE
 40
2460620.808501273
  9
$TDUUPDATE
 40
2460620.66266794
  9
$TDINDWG
 40
0.0000000116
  9
$TDUSRTIMER
 40
0.0000000116
  9
$USRTIMER
 70
     1
  9
$ANGBASE
 50
0.0
  9
$ANGDIR
 70
     0
  9
$PDMODE
 70
     0
  9
$PDSIZE
 40
0.0
  9
$PLINEWID
 40
0.0
  9
$SPLFRAME
 70
     0
  9
$SPLINETYPE
 70
     6
  9
$SPLINESEGS
 70
     8
  9
$HANDSEED
  5
98
  9
$SURFTAB1
 70
     6
  9
$SURFTAB2
 70
     6
  9
$SURFTYPE
 70
     6
  9
$SURFU
 70
     6
  9
$SURFV
 70
     6
  9
$UCSBASE
  2

  9
$UCSNAME
  2

  9
$UCSORG
 10
0.0
 20
0.0
 30
0.0
  9
$UCSXDIR
 10
1.0
 20
0.0
 30
0.0
  9
$UCSYDIR
 10
0.0
 20
1.0
 30
0.0
  9
$UCSORTHOREF
  2

  9
$UCSORTHOVIEW
 70
     0
  9
$UCSORGTOP
 10
0.0
 20
0.0
 30
0.0
  9
$UCSORGBOTTOM
 10
0.0
 20
0.0
 30
0.0
  9
$UCSORGLEFT
 10
0.0
 20
0.0
 30
0.0
  9
$UCSORGRIGHT
 10
0.0
 20
0.0
 30
0.0
  9
$UCSORGFRONT
 10
0.0
 20
0.0
 30
0.0
  9
$UCSORGBACK
 10
0.0
 20
0.0
 30
0.0
  9
$PUCSBASE
  2

  9
$PUCSNAME
  2

  9
$PUCSORG
 10
0.0
 20
0.0
 30
0.0
  9
$PUCSXDIR
 10
1.0
 20
0.0
 30
0.0
  9
$PUCSYDIR
 10
0.0
 20
1.0
 30
0.0
  9
$PUCSORTHOREF
  2

  9
$PUCSORTHOVIEW
 70
     0
  9
$PUCSORGTOP
 10
0.0
 20
0.0
 30
0.0
  9
$PUCSORGBOTTOM
 10
0.0
 20
0.0
 30
0.0
  9
$PUCSORGLEFT
 10
0.0
 20
0.0
 30
0.0
  9
$PUCSORGRIGHT
 10
0.0
 20
0.0
 30
0.0
  9
$PUCSORGFRONT
 10
0.0
 20
0.0
 30
0.0
  9
$PUCSORGBACK
 10
0.0
 20
0.0
 30
0.0
  9
$USERI1
 70
     0
  9
$USERI2
 70
     0
  9
$USERI3
 70
     0
  9
$USERI4
 70
     0
  9
$USERI5
 70
     0
  9
$USERR1
 40
0.0
  9
$USERR2
 40
0.0
  9
$USERR3
 40
0.0
  9
$USERR4
 40
0.0
  9
$USERR5
 40
0.0
  9
$WORLDVIEW
 70
     1
  9
$SHADEDGE
 70
     3
  9
$SHADEDIF
 70
    70
  9
$TILEMODE
 70
     1
  9
$MAXACTVP
 70
    64
  9
$PINSBASE
 10
0.0
 20
0.0
 30
0.0
  9
$PLIMCHECK
 70
     0
  9
$PEXTMIN
 10
1.000000000000000E+20
 20
1.000000000000000E+20
 30
1.000000000000000E+20
  9
$PEXTMAX
 10
-1.000000000000000E+20
 20
-1.000000000000000E+20
 30
-1.000000000000000E+20
  9
$PLIMMIN
 10
0.0
 20
0.0
  9
$PLIMMAX
 10
12.0
 20
9.0
  9
$UNITMODE
 70
     0
  9
$VISRETAIN
 70
     1
  9
$PLINEGEN
 70
     0
  9
$PSLTSCALE
 70
     1
  9
$TREEDEPTH
 70
  3020
  9
$CMLSTYLE
  2
Standard
  9
$CMLJUST
 70
     0
  9
$CMLSCALE
 40
1.0
  9
$PROXYGRAPHICS
 70
     1
  9
$MEASUREMENT
 70
     0
  9
$CELWEIGHT
370
    -1
  9
$ENDCAPS
280
     0
  9
$JOINSTYLE
280
     0
  9
$LWDISPLAY
290
     0
  9
$INSUNITS
 70
     4
  9
$HYPERLINKBASE
  1

  9
$STYLESHEET
  1

  9
$XEDIT
290
     1
  9
$CEPSNTYPE
380
     0
  9
$PSTYLEMODE
290
     1
  9
$FINGERPRINTGUID
  2
{d9cf68c9-d894-4e90-8286-0e2bd57d7d10}
  9
$VERSIONGUID
  2
{FAEB1C32-E019-11D5-929B-00C0DF256EC4}
  9
$EXTNAMES
290
     1
  9
$PSVPSCALE
 40
0.0
  9
$OLESTARTUP
290
     0
  9
$SORTENTS
280
   127
  9
$INDEXCTL
280
     0
  9
$HIDETEXT
280
     1
  9
$XCLIPFRAME
280
     2
  9
$HALOGAP
280
     0
  9
$OBSCOLOR
 70
   257
  9
$OBSLTYPE
280
     0
  9
$INTERSECTIONDISPLAY
280
     0
  9
$INTERSECTIONCOLOR
 70
   257
  9
$DIMASSOC
280
     2
  9
$PROJECTNAME
  1

  9
$CAMERADISPLAY
290
     0
  9
$LENSLENGTH
 40
50.0
  9
$CAMERAHEIGHT
 40
0.0
  9
$STEPSPERSEC
 40
2.0
  9
$STEPSIZE
 40
6.0
  9
$3DDWFPREC
 40
2.0
  9
$PSOLWIDTH
 40
0.25
  9
$PSOLHEIGHT
 40
4.0
  9
$LOFTANG1
 40
1.570796326794897
  9
$LOFTANG2
 40
1.570796326794897
  9
$LOFTMAG1
 40
0.0
  9
$LOFTMAG2
 40
0.0
  9
$LOFTPARAM
 70
     7
  9
$LOFTNORMALS
280
     1
  9
$LATITUDE
 40
37.795
  9
$LONGITUDE
 40
-122.394
  9
$NORTHDIRECTION
 40
0.0
  9
$TIMEZONE
 70
 -8000
  9
$LIGHTGLYPHDISPLAY
280
     1
  9
$TILEMODELIGHTSYNCH
280
     1
  9
$CMATERIAL
347
44
  9
$SOLIDHIST
280
     0
  9
$SHOWHIST
280
     1
  9
$DWFFRAME
280
     2
  9
$DGNFRAME
280
     2
  9
$REALWORLDSCALE
290
     1
  9
$INTERFERECOLOR
 62
   256
  9
$CSHADOW
280
     0
  9
$SHADOWPLANELOCATION
 40
0.0
  0
ENDSEC
  0
SECTION
  2
CLASSES
  0
CLASS
  1
ACDBDICTIONARYWDFLT
  2
AcDbDictionaryWithDefault
  3
ObjectDBX Classes
 90
        0
 91
        3
280
     0
281
     0
  0
CLASS
  1
VISUALSTYLE
  2
AcDbVisualStyle
  3
ObjectDBX Classes
 90
     4095
 91
        3
280
     0
281
     0
  0
CLASS
  1
MATERIAL
  2
AcDbMaterial
  3
ObjectDBX Classes
 90
     1153
 91
        3
280
     0
281
     0
  0
CLASS
  1
SCALE
  2
AcDbScale
  3
ObjectDBX Classes
 90
     1153
 91
        3
280
     0
281
     0
  0
CLASS
  1
TABLESTYLE
  2
AcDbTableStyle
  3
ObjectDBX Classes
 90
     4095
 91
        3
280
     0
281
     0
  0
CLASS
  1
MLEADERSTYLE
  2
AcDbMLeaderStyle
  3
ACDB_MLEADERSTYLE_CLASS
 90
     4095
 91
        3
280
     0
281
     0
  0
CLASS
  1
SUN
  2
AcDbSun
  3
SCENEOE
 90
     1153
 91
        3
280
     0
281
     0
  0
CLASS
  1
DICTIONARYVAR
  2
AcDbDictionaryVar
  3
ObjectDBX Classes
 90
        0
 91
        3
280
     0
281
     0
  0
CLASS
  1
CELLSTYLEMAP
  2
AcDbCellStyleMap
  3
ObjectDBX Classes
 90
     1152
 91
        3
280
     0
281
     0
  0
ENDSEC
  0
SECTION
  2
TABLES
  0
TABLE
  2
VPORT
  5
8
330
0
100
AcDbSymbolTable
 70
     1
  0
VPORT
  5
29
330
8
100
AcDbSymbolTableRecord
100
AcDbViewportTableRecord
  2
*Active
 70
     0
 10
0.0
 20
0.0
 11
1.0
 21
1.0
 12
10.42990654205607
 22
4.5
 13
0.0
 23
0.0
 14
0.5
 24
0.5
 15
0.5
 25
0.5
 16
0.0
 26
0.0
 36
1.0
 17
0.0
 27
0.0
 37
0.0
 40
9.0
 41
1.972972972850329
 42
50.0
 43
0.0
 44
0.0
 50
0.0
 51
0.0
 71
     0
 72
   100
 73
     1
 74
     3
 75
     0
 76
     0
 77
     0
 78
     0
281
     0
 65
     1
110
0.0
120
0.0
130
0.0
111
1.0
121
0.0
131
0.0
112
0.0
122
1.0
132
0.0
 79
     0
146
0.0
348
2F
 60
     3
 61
     5
292
     1
282
     1
141
0.0
142
0.0
 63
   250
361
5D
  0
ENDTAB
  0
TABLE
  2
LTYPE
  5
5
330
0
100
AcDbSymbolTable
 70
     1
  0
LTYPE
  5
14
330
5
100
AcDbSymbolTableRecord
100
AcDbLinetypeTableRecord
  2
ByBlock
 70
     0
  3

 72
    65
 73
     0
 40
0.0
  0
LTYPE
  5
15
330
5
100
AcDbSymbolTableRecord
100
AcDbLinetypeTableRecord
  2
ByLayer
 70
     0
  3

 72
    65
 73
     0
 40
0.0
  0
LTYPE
  5
16
330
5
100
AcDbSymbolTableRecord
100
AcDbLinetypeTableRecord
  2
Continuous
 70
     0
  3
Solid line
 72
    65
 73
     0
 40
0.0
  0
ENDTAB
  0
TABLE
  2
LAYER
  5
2
330
0
100
AcDbSymbolTable
 70
     2
  0
LAYER
  5
10
330
2
100
AcDbSymbolTableRecord
100
AcDbLayerTableRecord
  2
0
 70
     0
 62
     7
  6
Continuous
370
    -3
390
F
347
46
348
0
  0
LAYER
  5
5F
330
2
100
AcDbSymbolTableRecord
100
AcDbLayerTableRecord
  2
Layer 1
 70
     0
 62
     7
  6
Continuous
370
    -3
390
F
347
46
348
0
  0
ENDTAB
  0
TABLE
  2
STYLE
  5
3
330
0
100
AcDbSymbolTable
 70
     1
  0
STYLE
  5
11
330
3
100
AcDbSymbolTableRecord
100
AcDbTextStyleTableRecord
  2
Standard
 70
     0
 40
0.0
 41
1.0
 50
0.0
 71
     0
 42
0.2
  3
txt
  4

  0
ENDTAB
  0
TABLE
  2
VIEW
  5
6
330
0
100
AcDbSymbolTable
 70
     0
  0
ENDTAB
  0
TABLE
  2
UCS
  5
7
330
0
100
AcDbSymbolTable
 70
     0
  0
ENDTAB
  0
TABLE
  2
APPID
  5
9
330
0
100
AcDbSymbolTable
 70
     2
  0
APPID
  5
12
330
9
100
AcDbSymbolTableRecord
100
AcDbRegAppTableRecord
  2
ACAD
 70
     0
  0
APPID
  5
5E
330
9
100
AcDbSymbolTableRecord
100
AcDbRegAppTableRecord
  2
ODA
 70
     0
  0
ENDTAB
  0
TABLE
  2
DIMSTYLE
  5
A
330
0
100
AcDbSymbolTable
 70
     1
100
AcDbDimStyleTable
  0
DIMSTYLE
105
27
330
A
100
AcDbSymbolTableRecord
100
AcDbDimStyleTableRecord
  2
Standard
 70
     0
178
     0
340
11
  0
ENDTAB
  0
TABLE
  2
BLOCK_RECORD
  5
1
330
0
100
AcDbSymbolTable
 70
     1
  0
BLOCK_RECORD
  5
1F
330
1
100
AcDbSymbolTableRecord
100
AcDbBlockTableRecord
  2
*Model_Space
340
22
 70
     0
280
     1
281
     0
  0
BLOCK_RECORD
  5
1B
330
1
100
AcDbSymbolTableRecord
100
AcDbBlockTableRecord
  2
*Paper_Space
340
1E
 70
     0
280
     1
281
     0
  0
BLOCK_RECORD
  5
23
330
1
100
AcDbSymbolTableRecord
100
AcDbBlockTableRecord
  2
*Paper_Space0
340
26
 70
     0
280
     1
281
     0
  0
ENDTAB
  0
ENDSEC
  0
SECTION
  2
BLOCKS
  0
BLOCK
  5
20
330
1F
100
AcDbEntity
  8
0
100
AcDbBlockBegin
  2
*Model_Space
 70
     0
 10
0.0
 20
0.0
 30
0.0
  3
*Model_Space
  1

  0
ENDBLK
  5
21
330
1F
100
AcDbEntity
  8
0
100
AcDbBlockEnd
  0
BLOCK
  5
1C
330
1B
100
AcDbEntity
 67
     1
  8
0
100
AcDbBlockBegin
  2
*Paper_Space
 70
     0
 10
0.0
 20
0.0
 30
0.0
  3
*Paper_Space
  1

  0
ENDBLK
  5
1D
330
1B
100
AcDbEntity
 67
     1
  8
0
100
AcDbBlockEnd
  0
BLOCK
  5
24
330
23
100
AcDbEntity
  8
0
100
AcDbBlockBegin
  2
*Paper_Space0
 70
     0
 10
0.0
 20
0.0
 30
0.0
  3
*Paper_Space0
  1

  0
ENDBLK
  5
25
330
23
100
AcDbEntity
  8
0
100
AcDbBlockEnd
  0
ENDSEC
  0
SECTION
  2
ENTITIES
  0
ELLIPSE
  5
60
330
1F
100
AcDbEntity
  8
Layer 1
 62
   250
100
AcDbEllipse
 10
-0.0613
 20
-0.0613
 30
0.0
 11
0.0
 21
10.0
 31
0.0
210
0.0
220
0.0
230
1.0
 40
1.0
 41
0.0
 42
6.283185307179586
  0
SPLINE
  5
61
330
1F
100
AcDbEntity
  8
Layer 1
 62
     2
100
AcDbSpline
210
0.0
220
0.0
230
1.0
 70
    11
 71
     3
 72
    44
 73
    40
 74
     0
 42
0.0000000001
 43
0.0000000001
 40
0.0
 40
0.0
 40
0.0
 40
0.0
 40
0.0769230769230769
 40
0.0769230769230769
 40
0.0769230769230769
 40
0.1538461538461539
 40
0.1538461538461539
 40
0.1538461538461539
 40
0.2307692307692308
 40
0.2307692307692308
 40
0.2307692307692308
 40
0.3076923076923077
 40
0.3076923076923077
 40
0.3076923076923077
 40
0.3846153846153846
 40
0.3846153846153846
 40
0.3846153846153846
 40
0.4615384615384616
 40
0.4615384615384616
 40
0.4615384615384616
 40
0.5384615384615385
 40
0.5384615384615385
 40
0.5384615384615385
 40
0.6153846153846154
 40
0.6153846153846154
 40
0.6153846153846154
 40
0.6923076923076923
 40
0.6923076923076923
 40
0.6923076923076923
 40
0.7692307692307693
 40
0.7692307692307693
 40
0.7692307692307693
 40
0.8461538461538463
 40
0.8461538461538463
 40
0.8461538461538463
 40
0.9230769230769231
 40
0.9230769230769231
 40
0.9230769230769231
 40
1.0
 40
1.0
 40
1.0
 40
1.0
 10
-7.5498
 20
2.4196
 30
0.0
 10
-7.7105
 20
2.4529
 30
0.0
 10
-7.8714
 20
2.4858
 30
0.0
 10
-8.032
 20
2.5198
 30
0.0
 10
-8.1553
 20
2.5458
 30
0.0
 10
-8.2739
 20
2.5297
 30
0.0
 10
-8.3839
 20
2.4716
 30
0.0
 10
-8.5191
 20
2.4
 30
0.0
 10
-8.5973
 20
2.2826
 30
0.0
 10
-8.6282
 20
2.1341
 30
0.0
 10
-8.694
 20
1.8204
 30
0.0
 10
-8.759
 20
1.5064
 30
0.0
 10
-8.8232
 20
1.1924
 30
0.0
 10
-8.8303
 20
1.1569
 30
0.0
 10
-8.8339
 20
1.1206
 30
0.0
 10
-8.8345
 20
1.0845
 30
0.0
 10
-8.8375
 20
0.8447
 30
0.0
 10
-8.6666
 20
0.6539
 30
0.0
 10
-8.438
 20
0.6051
 30
0.0
 10
-8.1105
 20
0.5349
 30
0.0
 10
-7.7821
 20
0.4682
 30
0.0
 10
-7.4538
 20
0.4008
 30
0.0
 10
-7.367
 20
0.3829
 30
0.0
 10
-7.2795
 20
0.3861
 30
0.0
 10
-7.1959
 20
0.4141
 30
0.0
 10
-7.017
 20
0.4744
 30
0.0
 10
-6.9081
 20
0.6016
 30
0.0
 10
-6.869
 20
0.785
 30
0.0
 10
-6.8016
 20
1.1007
 30
0.0
 10
-6.7363
 20
1.4169
 30
0.0
 10
-6.6731
 20
1.7335
 30
0.0
 10
-6.6625
 20
1.7858
 30
0.0
 10
-6.66
 20
1.842
 30
0.0
 10
-6.6657
 20
1.895
 30
0.0
 10
-6.6895
 20
2.1113
 30
0.0
 10
-6.8421
 20
2.2716
 30
0.0
 10
-7.0643
 20
2.3189
 30
0.0
 10
-7.2259
 20
2.3532
 30
0.0
 10
-7.388
 20
2.3861
 30
0.0
 10
-7.5498
 20
2.4196
 30
0.0
  0
SPLINE
  5
62
330
1F
100
AcDbEntity
  8
Layer 1
 62
     2
100
AcDbSpline
210
0.0
220
0.0
230
1.0
 70
    11
 71
     3
 72
    47
 73
    43
 74
     0
 42
0.0000000001
 43
0.0000000001
 40
0.0
 40
0.0
 40
0.0
 40
0.0
 40
0.0714285714285714
 40
0.0714285714285714
 40
0.0714285714285714
 40
0.1428571428571428
 40
0.1428571428571428
 40
0.1428571428571428
 40
0.2142857142857143
 40
0.2142857142857143
 40
0.2142857142857143
 40
0.2857142857142857
 40
0.2857142857142857
 40
0.2857142857142857
 40
0.3571428571428571
 40
0.3571428571428571
 40
0.3571428571428571
 40
0.4285714285714285
 40
0.4285714285714285
 40
0.4285714285714285
 40
0.5
 40
0.5
 40
0.5
 40
0.5714285714285714
 40
0.5714285714285714
 40
0.5714285714285714
 40
0.6428571428571428
 40
0.6428571428571428
 40
0.6428571428571428
 40
0.7142857142857142
 40
0.7142857142857142
 40
0.7142857142857142
 40
0.7857142857142857
 40
0.7857142857142857
 40
0.7857142857142857
 40
0.8571428571428571
 40
0.8571428571428571
 40
0.8571428571428571
 40
0.9285714285714285
 40
0.9285714285714285
 40
0.9285714285714285
 40
1.0
 40
1.0
 40
1.0
 40
1.0
 10
-7.9915
 20
0.2901
 30
0.0
 10
-8.1522
 20
0.3234
 30
0.0
 10
-8.3133
 20
0.3558
 30
0.0
 10
-8.4738
 20
0.3903
 30
0.0
 10
-8.7082
 20
0.4405
 30
0.0
 10
-8.8792
 20
0.5713
 30
0.0
 10
-8.9884
 20
0.7871
 30
0.0
 10
-9.0605
 20
0.9303
 30
0.0
 10
-9.0753
 20
1.0773
 30
0.0
 10
-9.0442
 20
1.231
 30
0.0
 10
-8.9791
 20
1.5494
 30
0.0
 10
-8.9123
 20
1.8675
 30
0.0
 10
-8.8467
 20
2.1861
 30
0.0
 10
-8.8184
 20
2.3227
 30
0.0
 10
-8.7592
 20
2.4443
 30
0.0
 10
-8.6578
 20
2.5395
 30
0.0
 10
-8.5022
 20
2.6858
 30
0.0
 10
-8.3174
 20
2.7623
 30
0.0
 10
-8.1006
 20
2.7479
 30
0.0
 10
-8.0622
 20
2.7453
 30
0.0
 10
-8.0241
 20
2.7394
 30
0.0
 10
-7.9867
 20
2.7317
 30
0.0
 10
-7.6649
 20
2.6656
 30
0.0
 10
-7.3436
 20
2.5986
 30
0.0
 10
-7.0219
 20
2.5322
 30
0.0
 10
-6.8282
 20
2.4922
 30
0.0
 10
-6.6752
 20
2.3922
 30
0.0
 10
-6.561
 20
2.2296
 30
0.0
 10
-6.4469
 20
2.0676
 30
0.0
 10
-6.4129
 20
1.8894
 30
0.0
 10
-6.4512
 20
1.6981
 30
0.0
 10
-6.5159
 20
1.3737
 30
0.0
 10
-6.5842
 20
1.0499
 30
0.0
 10
-6.6523
 20
0.7264
 30
0.0
 10
-6.6882
 20
0.5558
 30
0.0
 10
-6.7756
 20
0.4147
 30
0.0
 10
-6.9174
 20
0.3138
 30
0.0
 10
-7.0888
 20
0.1921
 30
0.0
 10
-7.2802
 20
0.1444
 30
0.0
 10
-7.4894
 20
0.1863
 30
0.0
 10
-7.6568
 20
0.2198
 30
0.0
 10
-7.8241
 20
0.2554
 30
0.0
 10
-7.9915
 20
0.2901
 30
0.0
  0
SPLINE
  5
63
330
1F
100
AcDbEntity
  8
Layer 1
 62
     2
100
AcDbSpline
210
0.0
220
0.0
230
1.0
 70
    11
 71
     3
 72
    17
 73
    13
 74
     0
 42
0.0000000001
 43
0.0000000001
 40
0.0
 40
0.0
 40
0.0
 40
0.0
 40
0.25
 40
0.25
 40
0.25
 40
0.5
 40
0.5
 40
0.5
 40
0.75
 40
0.75
 40
0.75
 40
1.0
 40
1.0
 40
1.0
 40
1.0
 10
-8.1803
 20
1.551
 30
0.0
 10
-8.2295
 20
1.3148
 30
0.0
 10
-8.0772
 20
1.0858
 30
0.0
 10
-7.837
 20
1.0355
 30
0.0
 10
-7.5799
 20
0.9815
 30
0.0
 10
-7.3557
 20
1.1552
 30
0.0
 10
-7.3102
 20
1.3683
 30
0.0
 10
-7.265
 20
1.5804
 30
0.0
 10
-7.3997
 20
1.8333
 30
0.0
 10
-7.6599
 20
1.8869
 30
0.0
 10
-7.9003
 20
1.9367
 30
0.0
 10
-8.1308
 20
1.7876
 30
0.0
 10
-8.1803
 20
1.551
 30
0.0
  0
SPLINE
  5
64
330
1F
100
AcDbEntity
  8
Layer 1
 62
     2
100
AcDbSpline
210
0.0
220
0.0
230
1.0
 70
    11
 71
     3
 72
    17
 73
    13
 74
     0
 42
0.0000000001
 43
0.0000000001
 40
0.0
 40
0.0
 40
0.0
 40
0.0
 40
0.25
 40
0.25
 40
0.25
 40
0.5
 40
0.5
 40
0.5
 40
0.75
 40
0.75
 40
0.75
 40
1.0
 40
1.0
 40
1.0
 40
1.0
 10
-7.8819
 20
0.8227
 30
0.0
 10
-8.2319
 20
0.8952
 30
0.0
 10
-8.4758
 20
1.2394
 30
0.0
 10
-8.4001
 20
1.5987
 30
0.0
 10
-8.3246
 20
1.9563
 30
0.0
 10
-7.9631
 20
2.1742
 30
0.0
 10
-7.6123
 20
2.0991
 30
0.0
 10
-7.2602
 20
2.0238
 30
0.0
 10
-7.0211
 20
1.6885
 30
0.0
 10
-7.0964
 20
1.3253
 30
0.0
 10
-7.1722
 20
0.9618
 30
0.0
 10
-7.5275
 20
0.7489
 30
0.0
 10
-7.8819
 20
0.8227
 30
0.0
  0
SPLINE
  5
65
330
1F
100
AcDbEntity
  8
Layer 1
 62
     2
100
AcDbSpline
210
0.0
220
0.0
230
1.0
 70
    11
 71
     3
 72
    17
 73
    13
 74
     0
 42
0.0000000001
 43
0.0000000001
 40
0.0
 40
0.0
 40
0.0
 40
0.0
 40
0.25
 40
0.25
 40
0.25
 40
0.5
 40
0.5
 40
0.5
 40
0.75
 40
0.75
 40
0.75
 40
1.0
 40
1.0
 40
1.0
 40
1.0
 10
-7.2161
 20
0.7954
 30
0.0
 10
-7.161
 20
0.7812
 30
0.0
 10
-7.1206
 20
0.7343
 30
0.0
 10
-7.1336
 20
0.6762
 30
0.0
 10
-7.146
 20
0.6199
 30
0.0
 10
-7.202
 20
0.5931
 30
0.0
 10
-7.256
 20
0.603
 30
0.0
 10
-7.3103
 20
0.613
 30
0.0
 10
-7.3442
 20
0.6651
 30
0.0
 10
-7.333
 20
0.7192
 30
0.0
 10
-7.3217
 20
0.7734
 30
0.0
 10
-7.2705
 20
0.8068
 30
0.0
 10
-7.2161
 20
0.7954
 30
0.0
  0
SPLINE
  5
66
330
1F
100
AcDbEntity
  8
Layer 1
 62
     2
100
AcDbSpline
210
0.0
220
0.0
230
1.0
 70
    11
 71
     3
 72
    26
 73
    22
 74
     0
 42
0.0000000001
 43
0.0000000001
 40
0.0
 40
0.0
 40
0.0
 40
0.0
 40
0.1428571428571428
 40
0.1428571428571428
 40
0.1428571428571428
 40
0.2857142857142857
 40
0.2857142857142857
 40
0.2857142857142857
 40
0.4285714285714285
 40
0.4285714285714285
 40
0.4285714285714285
 40
0.5714285714285714
 40
0.5714285714285714
 40
0.5714285714285714
 40
0.7142857142857142
 40
0.7142857142857142
 40
0.7142857142857142
 40
0.8571428571428571
 40
0.8571428571428571
 40
0.8571428571428571
 40
1.0
 40
1.0
 40
1.0
 40
1.0
 10
-3.7865
 20
-2.3016
 30
0.0
 10
-3.7865
 20
-2.3016
 30
0.0
 10
-2.7995
 20
-2.7286
 30
0.0
 10
-2.7995
 20
-2.7286
 30
0.0
 10
-2.7923
 20
-2.7165
 30
0.0
 10
-2.7868
 20
-2.7041
 30
0.0
 10
-2.7828
 20
-2.6913
 30
0.0
 10
-2.765
 20
-2.6347
 30
0.0
 10
-2.7833
 20
-2.5603
 30
0.0
 10
-2.8382
 20
-2.4678
 30
0.0
 10
-2.9071
 20
-2.3504
 30
0.0
 10
-2.9901
 20
-2.2523
 30
0.0
 10
-3.0872
 20
-2.1742
 30
0.0
 10
-3.1848
 20
-2.0957
 30
0.0
 10
-3.2879
 20
-2.0448
 30
0.0
 10
-3.3956
 20
-2.0222
 30
0.0
 10
-3.6193
 20
-1.9753
 30
0.0
 10
-3.7514
 20
-2.0344
 30
0.0
 10
-3.7912
 20
-2.1971
 30
0.0
 10
-3.8021
 20
-2.2418
 30
0.0
 10
-3.8005
 20
-2.2765
 30
0.0
 10
-3.7865
 20
-2.3016
 30
0.0
  0
SPLINE
  5
67
330
1F
100
AcDbEntity
  8
Layer 1
 62
     2
100
AcDbSpline
210
0.0
220
0.0
230
1.0
 70
    11
 71
     3
 72
    53
 73
    49
 74
     0
 42
0.0000000001
 43
0.0000000001
 40
0.0
 40
0.0
 40
0.0
 40
0.0
 40
0.0625
 40
0.0625
 40
0.0625
 40
0.125
 40
0.125
 40
0.125
 40
0.1875
 40
0.1875
 40
0.1875
 40
0.25
 40
0.25
 40
0.25
 40
0.3125
 40
0.3125
 40
0.3125
 40
0.375
 40
0.375
 40
0.375
 40
0.4375
 40
0.4375
 40
0.4375
 40
0.5
 40
0.5
 40
0.5
 40
0.5625
 40
0.5625
 40
0.5625
 40
0.625
 40
0.625
 40
0.625
 40
0.6875
 40
0.6875
 40
0.6875
 40
0.75
 40
0.75
 40
0.75
 40
0.8125
 40
0.8125
 40
0.8125
 40
0.875
 40
0.875
 40
0.875
 40
0.9375
 40
0.9375
 40
0.9375
 40
1.0
 40
1.0
 40
1.0
 40
1.0
 10
-2.6305
 20
-2.8017
 30
0.0
 10
-2.6113
 20
-2.8103
 30
0.0
 10
-2.5898
 20
-2.8194
 30
0.0
 10
-2.566
 20
-2.8289
 30
0.0
 10
-2.5422
 20
-2.8385
 30
0.0
 10
-2.5199
 20
-2.8477
 30
0.0
 10
-2.4993
 20
-2.8566
 30
0.0
 10
-2.2661
 20
-2.9587
 30
0.0
 10
-2.0798
 20
-3.0463
 30
0.0
 10
-1.9398
 20
-3.1197
 30
0.0
 10
-1.8006
 20
-3.1926
 30
0.0
 10
-1.6862
 20
-3.2626
 30
0.0
 10
-1.5966
 20
-3.3295
 30
0.0
 10
-1.5416
 20
-3.3684
 30
0.0
 10
-1.4875
 20
-3.4187
 30
0.0
 10
-1.4342
 20
-3.4807
 30
0.0
 10
-1.3264
 20
-3.3722
 30
0.0
 10
-1.2523
 20
-3.2931
 30
0.0
 10
-1.2129
 20
-3.2443
 30
0.0
 10
-1.1732
 20
-3.1952
 30
0.0
 10
-1.142
 20
-3.1442
 30
0.0
 10
-1.1195
 20
-3.0912
 30
0.0
 10
-1.0931
 20
-3.0296
 30
0.0
 10
-1.0836
 20
-2.9717
 30
0.0
 10
-1.0912
 20
-2.9175
 30
0.0
 10
-1.0987
 20
-2.8631
 30
0.0
 10
-1.1248
 20
-2.8076
 30
0.0
 10
-1.1697
 20
-2.7512
 30
0.0
 10
-1.2371
 20
-2.6673
 30
0.0
 10
-1.3277
 20
-2.591
 30
0.0
 10
-1.4417
 20
-2.5228
 30
0.0
 10
-1.5562
 20
-2.4542
 30
0.0
 10
-1.675
 20
-2.4069
 30
0.0
 10
-1.7975
 20
-2.3813
 30
0.0
 10
-1.9314
 20
-2.3531
 30
0.0
 10
-2.0563
 20
-2.3613
 30
0.0
 10
-2.1712
 20
-2.4055
 30
0.0
 10
-2.2273
 20
-2.427
 30
0.0
 10
-2.2741
 20
-2.4544
 30
0.0
 10
-2.3111
 20
-2.4873
 30
0.0
 10
-2.3481
 20
-2.5201
 30
0.0
 10
-2.3857
 20
-2.5681
 30
0.0
 10
-2.4239
 20
-2.6309
 30
0.0
 10
-2.4616
 20
-2.6875
 30
0.0
 10
-2.4922
 20
-2.7258
 30
0.0
 10
-2.5158
 20
-2.7459
 30
0.0
 10
-2.5394
 20
-2.7659
 30
0.0
 10
-2.5777
 20
-2.7846
 30
0.0
 10
-2.6305
 20
-2.8017
 30
0.0
  0
SPLINE
  5
68
330
1F
100
AcDbEntity
  8
Layer 1
 62
     2
100
AcDbSpline
210
0.0
220
0.0
230
1.0
 70
    11
 71
     3
 72
   113
 73
   109
 74
     0
 42
0.0000000001
 43
0.0000000001
 40
0.0
 40
0.0
 40
0.0
 40
0.0
 40
0.0277777777777778
 40
0.0277777777777778
 40
0.0277777777777778
 40
0.0555555555555556
 40
0.0555555555555556
 40
0.0555555555555556
 40
0.0833333333333333
 40
0.0833333333333333
 40
0.0833333333333333
 40
0.1111111111111111
 40
0.1111111111111111
 40
0.1111111111111111
 40
0.1388888888888889
 40
0.1388888888888889
 40
0.1388888888888889
 40
0.1666666666666667
 40
0.1666666666666667
 40
0.1666666666666667
 40
0.1944444444444444
 40
0.1944444444444444
 40
0.1944444444444444
 40
0.2222222222222222
 40
0.2222222222222222
 40
0.2222222222222222
 40
0.25
 40
0.25
 40
0.25
 40
0.2777777777777778
 40
0.2777777777777778
 40
0.2777777777777778
 40
0.3055555555555555
 40
0.3055555555555555
 40
0.3055555555555555
 40
0.3333333333333333
 40
0.3333333333333333
 40
0.3333333333333333
 40
0.3611111111111111
 40
0.3611111111111111
 40
0.3611111111111111
 40
0.3888888888888888
 40
0.3888888888888888
 40
0.3888888888888888
 40
0.4166666666666666
 40
0.4166666666666666
 40
0.4166666666666666
 40
0.4444444444444444
 40
0.4444444444444444
 40
0.4444444444444444
 40
0.4722222222222222
 40
0.4722222222222222
 40
0.4722222222222222
 40
0.5
 40
0.5
 40
0.5
 40
0.5277777777777778
 40
0.5277777777777778
 40
0.5277777777777778
 40
0.5555555555555556
 40
0.5555555555555556
 40
0.5555555555555556
 40
0.5833333333333333
 40
0.5833333333333333
 40
0.5833333333333333
 40
0.611111111111111
 40
0.611111111111111
 40
0.611111111111111
 40
0.6388888888888888
 40
0.6388888888888888
 40
0.6388888888888888
 40
0.6666666666666666
 40
0.6666666666666666
 40
0.6666666666666666
 40
0.6944444444444444
 40
0.6944444444444444
 40
0.6944444444444444
 40
0.7222222222222222
 40
0.7222222222222222
 40
0.7222222222222222
 40
0.75
 40
0.75
 40
0.75
 40
0.7777777777777777
 40
0.7777777777777777
 40
0.7777777777777777
 40
0.8055555555555555
 40
0.8055555555555555
 40
0.8055555555555555
 40
0.8333333333333333
 40
0.8333333333333333
 40
0.8333333333333333
 40
0.861111111111111
 40
0.861111111111111
 40
0.861111111111111
 40
0.8888888888888888
 40
0.8888888888888888
 40
0.8888888888888888
 40
0.9166666666666666
 40
0.9166666666666666
 40
0.9166666666666666
 40
0.9444444444444444
 40
0.9444444444444444
 40
0.9444444444444444
 40
0.9722222222222222
 40
0.9722222222222222
 40
0.9722222222222222
 40
1.0
 40
1.0
 40
1.0
 40
1.0
 10
-2.5492
 20
-3.5281
 30
0.0
 10
-2.5492
 20
-3.5281
 30
0.0
 10
-3.3161
 20
-3.1821
 30
0.0
 10
-3.3161
 20
-3.1821
 30
0.0
 10
-3.4548
 20
-3.1168
 30
0.0
 10
-3.5884
 20
-3.0447
 30
0.0
 10
-3.7169
 20
-2.9661
 30
0.0
 10
-3.7167
 20
-2.9716
 30
0.0
 10
-3.7113
 20
-2.985
 30
0.0
 10
-3.7008
 20
-3.0066
 30
0.0
 10
-3.6763
 20
-3.0856
 30
0.0
 10
-3.668
 20
-3.1393
 30
0.0
 10
-3.6757
 20
-3.1683
 30
0.0
 10
-3.6866
 20
-3.2091
 30
0.0
 10
-3.7155
 20
-3.2244
 30
0.0
 10
-3.7626
 20
-3.2145
 30
0.0
 10
-3.8126
 20
-3.204
 30
0.0
 10
-3.8807
 20
-3.1729
 30
0.0
 10
-3.9669
 20
-3.1211
 30
0.0
 10
-4.0534
 20
-3.0692
 30
0.0
 10
-4.1167
 20
-3.022
 30
0.0
 10
-4.1564
 20
-2.9796
 30
0.0
 10
-4.242
 20
-2.8835
 30
0.0
 10
-4.2979
 20
-2.7514
 30
0.0
 10
-4.324
 20
-2.5813
 30
0.0
 10
-4.3506
 20
-2.408
 30
0.0
 10
-4.3425
 20
-2.2182
 30
0.0
 10
-4.2984
 20
-2.0106
 30
0.0
 10
-4.2712
 20
-1.8826
 30
0.0
 10
-4.2307
 20
-1.7682
 30
0.0
 10
-4.1767
 20
-1.6683
 30
0.0
 10
-4.122
 20
-1.5672
 30
0.0
 10
-4.0547
 20
-1.4841
 30
0.0
 10
-3.9748
 20
-1.4195
 30
0.0
 10
-3.8942
 20
-1.3544
 30
0.0
 10
-3.8041
 20
-1.3103
 30
0.0
 10
-3.7048
 20
-1.2875
 30
0.0
 10
-3.6048
 20
-1.2648
 30
0.0
 10
-3.4996
 20
-1.2648
 30
0.0
 10
-3.3891
 20
-1.288
 30
0.0
 10
-3.2343
 20
-1.3204
 30
0.0
 10
-3.1031
 20
-1.3728
 30
0.0
 10
-2.9957
 20
-1.4449
 30
0.0
 10
-2.8887
 20
-1.5167
 30
0.0
 10
-2.7977
 20
-1.6131
 30
0.0
 10
-2.7229
 20
-1.7335
 30
0.0
 10
-2.6422
 20
-1.8653
 30
0.0
 10
-2.5988
 20
-1.9817
 30
0.0
 10
-2.5918
 20
-2.083
 30
0.0
 10
-2.5901
 20
-2.0944
 30
0.0
 10
-2.5908
 20
-2.1132
 30
0.0
 10
-2.5938
 20
-2.1395
 30
0.0
 10
-2.5938
 20
-2.1395
 30
0.0
 10
-2.5816
 20
-2.142
 30
0.0
 10
-2.5816
 20
-2.142
 30
0.0
 10
-2.3762
 20
-1.747
 30
0.0
 10
-2.0614
 20
-1.5858
 30
0.0
 10
-1.6446
 20
-1.673
 30
0.0
 10
-1.5612
 20
-1.6904
 30
0.0
 10
-1.4781
 20
-1.7188
 30
0.0
 10
-1.3955
 20
-1.7576
 30
0.0
 10
-1.313
 20
-1.7964
 30
0.0
 10
-1.2359
 20
-1.8438
 30
0.0
 10
-1.1644
 20
-1.8996
 30
0.0
 10
-1.0931
 20
-1.9552
 30
0.0
 10
-1.0327
 20
-2.0164
 30
0.0
 10
-0.9832
 20
-2.083
 30
0.0
 10
-0.8734
 20
-2.2262
 30
0.0
 10
-0.7844
 20
-2.3856
 30
0.0
 10
-0.716
 20
-2.5601
 30
0.0
 10
-0.6489
 20
-2.7315
 30
0.0
 10
-0.6083
 20
-2.8956
 30
0.0
 10
-0.5935
 20
-3.0524
 30
0.0
 10
-0.579
 20
-3.2065
 30
0.0
 10
-0.5943
 20
-3.3306
 30
0.0
 10
-0.6386
 20
-3.4258
 30
0.0
 10
-0.6755
 20
-3.5048
 30
0.0
 10
-0.7244
 20
-3.5769
 30
0.0
 10
-0.7852
 20
-3.6422
 30
0.0
 10
-0.8455
 20
-3.7071
 30
0.0
 10
-0.9076
 20
-3.7551
 30
0.0
 10
-0.9714
 20
-3.7869
 30
0.0
 10
-1.035
 20
-3.8185
 30
0.0
 10
-1.0924
 20
-3.8289
 30
0.0
 10
-1.144
 20
-3.818
 30
0.0
 10
-1.1911
 20
-3.8082
 30
0.0
 10
-1.2314
 20
-3.7905
 30
0.0
 10
-1.2651
 20
-3.7652
 30
0.0
 10
-1.2989
 20
-3.7397
 30
0.0
 10
-1.3366
 20
-3.6979
 30
0.0
 10
-1.3782
 20
-3.6396
 30
0.0
 10
-1.3782
 20
-3.6396
 30
0.0
 10
-1.3898
 20
-3.6435
 30
0.0
 10
-1.3898
 20
-3.6435
 30
0.0
 10
-1.3857
 20
-3.6729
 30
0.0
 10
-1.3889
 20
-3.7001
 30
0.0
 10
-1.3996
 20
-3.725
 30
0.0
 10
-1.422
 20
-3.7776
 30
0.0
 10
-1.4641
 20
-3.8148
 30
0.0
 10
-1.5261
 20
-3.8368
 30
0.0
 10
-1.5876
 20
-3.8588
 30
0.0
 10
-1.6597
 20
-3.861
 30
0.0
 10
-1.7423
 20
-3.8436
 30
0.0
 10
-1.7889
 20
-3.8337
 30
0.0
 10
-1.8922
 20
-3.7976
 30
0.0
 10
-2.0527
 20
-3.7351
 30
0.0
 10
-2.2136
 20
-3.6723
 30
0.0
 10
-2.3791
 20
-3.6034
 30
0.0
 10
-2.5492
 20
-3.5281
 30
0.0
  0
SPLINE
  5
69
330
1F
100
AcDbEntity
  8
Layer 1
 62
     2
100
AcDbSpline
210
0.0
220
0.0
230
1.0
 70
    11
 71
     3
 72
   149
 73
   145
 74
     0
 42
0.0000000001
 43
0.0000000001
 40
0.0
 40
0.0
 40
0.0
 40
0.0
 40
0.0208333333333333
 40
0.0208333333333333
 40
0.0208333333333333
 40
0.0416666666666667
 40
0.0416666666666667
 40
0.0416666666666667
 40
0.0625
 40
0.0625
 40
0.0625
 40
0.0833333333333333
 40
0.0833333333333333
 40
0.0833333333333333
 40
0.1041666666666667
 40
0.1041666666666667
 40
0.1041666666666667
 40
0.125
 40
0.125
 40
0.125
 40
0.1458333333333333
 40
0.1458333333333333
 40
0.1458333333333333
 40
0.1666666666666667
 40
0.1666666666666667
 40
0.1666666666666667
 40
0.1875
 40
0.1875
 40
0.1875
 40
0.2083333333333333
 40
0.2083333333333333
 40
0.2083333333333333
 40
0.2291666666666667
 40
0.2291666666666667
 40
0.2291666666666667
 40
0.25
 40
0.25
 40
0.25
 40
0.2708333333333333
 40
0.2708333333333333
 40
0.2708333333333333
 40
0.2916666666666666
 40
0.2916666666666666
 40
0.2916666666666666
 40
0.3125
 40
0.3125
 40
0.3125
 40
0.3333333333333333
 40
0.3333333333333333
 40
0.3333333333333333
 40
0.3541666666666666
 40
0.3541666666666666
 40
0.3541666666666666
 40
0.375
 40
0.375
 40
0.375
 40
0.3958333333333333
 40
0.3958333333333333
 40
0.3958333333333333
 40
0.4166666666666666
 40
0.4166666666666666
 40
0.4166666666666666
 40
0.4375
 40
0.4375
 40
0.4375
 40
0.4583333333333333
 40
0.4583333333333333
 40
0.4583333333333333
 40
0.4791666666666666
 40
0.4791666666666666
 40
0.4791666666666666
 40
0.5
 40
0.5
 40
0.5
 40
0.5208333333333333
 40
0.5208333333333333
 40
0.5208333333333333
 40
0.5416666666666666
 40
0.5416666666666666
 40
0.5416666666666666
 40
0.5625
 40
0.5625
 40
0.5625
 40
0.5833333333333333
 40
0.5833333333333333
 40
0.5833333333333333
 40
0.6041666666666666
 40
0.6041666666666666
 40
0.6041666666666666
 40
0.625
 40
0.625
 40
0.625
 40
0.6458333333333333
 40
0.6458333333333333
 40
0.6458333333333333
 40
0.6666666666666666
 40
0.6666666666666666
 40
0.6666666666666666
 40
0.6875
 40
0.6875
 40
0.6875
 40
0.7083333333333333
 40
0.7083333333333333
 40
0.7083333333333333
 40
0.7291666666666666
 40
0.7291666666666666
 40
0.7291666666666666
 40
0.75
 40
0.75
 40
0.75
 40
0.7708333333333333
 40
0.7708333333333333
 40
0.7708333333333333
 40
0.7916666666666666
 40
0.7916666666666666
 40
0.7916666666666666
 40
0.8125
 40
0.8125
 40
0.8125
 40
0.8333333333333333
 40
0.8333333333333333
 40
0.8333333333333333
 40
0.8541666666666666
 40
0.8541666666666666
 40
0.8541666666666666
 40
0.875
 40
0.875
 40
0.875
 40
0.8958333333333333
 40
0.8958333333333333
 40
0.8958333333333333
 40
0.9166666666666666
 40
0.9166666666666666
 40
0.9166666666666666
 40
0.9375
 40
0.9375
 40
0.9375
 40
0.9583333333333333
 40
0.9583333333333333
 40
0.9583333333333333
 40
0.9791666666666666
 40
0.9791666666666666
 40
0.9791666666666666
 40
1.0
 40
1.0
 40
1.0
 40
1.0
 10
3.3443
 20
-1.9292
 30
0.0
 10
3.3443
 20
-1.9292
 30
0.0
 10
2.8983
 20
-2.0819
 30
0.0
 10
2.8983
 20
-2.0819
 30
0.0
 10
2.8983
 20
-2.0819
 30
0.0
 10
2.3333
 20
-2.2643
 30
0.0
 10
2.3333
 20
-2.2643
 30
0.0
 10
2.1343
 20
-2.3314
 30
0.0
 10
1.974
 20
-2.3799
 30
0.0
 10
1.8518
 20
-2.41
 30
0.0
 10
1.7653
 20
-2.4312
 30
0.0
 10
1.709
 20
-2.4504
 30
0.0
 10
1.6827
 20
-2.4678
 30
0.0
 10
1.648
 20
-2.4906
 30
0.0
 10
1.6284
 20
-2.5336
 30
0.0
 10
1.6238
 20
-2.597
 30
0.0
 10
1.6226
 20
-2.6378
 30
0.0
 10
1.6124
 20
-2.6646
 30
0.0
 10
1.5933
 20
-2.6772
 30
0.0
 10
1.5693
 20
-2.6929
 30
0.0
 10
1.52
 20
-2.6855
 30
0.0
 10
1.4456
 20
-2.6551
 30
0.0
 10
1.3794
 20
-2.6311
 30
0.0
 10
1.3113
 20
-2.5993
 30
0.0
 10
1.2411
 20
-2.5597
 30
0.0
 10
1.1714
 20
-2.5204
 30
0.0
 10
1.0371
 20
-2.3885
 30
0.0
 10
1.0062
 20
-2.3566
 30
0.0
 10
0.945
 20
-2.293
 30
0.0
 10
1.3666
 20
-2.0207
 30
0.0
 10
1.4193
 20
-1.9637
 30
0.0
 10
1.4803
 20
-1.9003
 30
0.0
 10
2.1065
 20
-1.4954
 30
0.0
 10
2.3619
 20
-1.2348
 30
0.0
 10
2.4657
 20
-1.1285
 30
0.0
 10
2.5822
 20
-1.0401
 30
0.0
 10
2.6731
 20
-0.9343
 30
0.0
 10
2.7641
 20
-0.8285
 30
0.0
 10
2.8449
 20
-0.7842
 30
0.0
 10
2.8784
 20
-0.7324
 30
0.0
 10
2.892
 20
-0.7148
 30
0.0
 10
2.9143
 20
-0.6772
 30
0.0
 10
2.9456
 20
-0.6196
 30
0.0
 10
2.7976
 20
-0.6799
 30
0.0
 10
2.6081
 20
-0.7612
 30
0.0
 10
2.3785
 20
-0.8632
 30
0.0
 10
2.0243
 20
-1.0254
 30
0.0
 10
1.6621
 20
-1.2326
 30
0.0
 10
1.5184
 20
-1.2661
 30
0.0
 10
1.4731
 20
-1.2771
 30
0.0
 10
1.4301
 20
-1.2836
 30
0.0
 10
1.3894
 20
-1.2858
 30
0.0
 10
1.3194
 20
-1.2861
 30
0.0
 10
1.2572
 20
-1.2773
 30
0.0
 10
1.2031
 20
-1.2595
 30
0.0
 10
1.1493
 20
-1.2417
 30
0.0
 10
1.1065
 20
-1.2163
 30
0.0
 10
1.0746
 20
-1.1832
 30
0.0
 10
1.0555
 20
-1.1634
 30
0.0
 10
1.0042
 20
-1.0966
 30
0.0
 10
1.0134
 20
-1.0778
 30
0.0
 10
1.0224
 20
-1.059
 30
0.0
 10
1.0484
 20
-1.0349
 30
0.0
 10
1.0909
 20
-1.0054
 30
0.0
 10
1.1227
 20
-0.9835
 30
0.0
 10
1.1477
 20
-0.9686
 30
0.0
 10
1.1656
 20
-0.9607
 30
0.0
 10
1.2292
 20
-0.9279
 30
0.0
 10
1.476
 20
-0.826
 30
0.0
 10
1.5841
 20
-0.7801
 30
0.0
 10
1.6927
 20
-0.7341
 30
0.0
 10
1.8352
 20
-0.6766
 30
0.0
 10
2.0122
 20
-0.6076
 30
0.0
 10
2.1906
 20
-0.5381
 30
0.0
 10
2.4098
 20
-0.4543
 30
0.0
 10
2.6707
 20
-0.3558
 30
0.0
 10
2.6707
 20
-0.3558
 30
0.0
 10
2.7515
 20
-0.3273
 30
0.0
 10
2.7515
 20
-0.3273
 30
0.0
 10
2.7853
 20
-0.3137
 30
0.0
 10
2.8131
 20
-0.303
 30
0.0
 10
2.835
 20
-0.2952
 30
0.0
 10
3.3246
 20
-0.1069
 30
0.0
 10
3.6587
 20
0.0082
 30
0.0
 10
3.8305
 20
0.0475
 30
0.0
 10
3.8664
 20
0.0558
 30
0.0
 10
3.9024
 20
0.0612
 30
0.0
 10
3.9388
 20
0.0636
 30
0.0
 10
4.0018
 20
0.0678
 30
0.0
 10
4.0457
 20
0.0596
 30
0.0
 10
4.0704
 20
0.039
 30
0.0
 10
4.1341
 20
-0.0143
 30
0.0
 10
4.2098
 20
-0.0556
 30
0.0
 10
4.083
 20
-0.253
 30
0.0
 10
3.857
 20
-0.6093
 30
0.0
 10
2.962
 20
-1.1775
 30
0.0
 10
2.6584
 20
-1.4952
 30
0.0
 10
2.6031
 20
-1.5558
 30
0.0
 10
2.1175
 20
-1.9285
 30
0.0
 10
2.0637
 20
-1.9767
 30
0.0
 10
2.0637
 20
-1.9767
 30
0.0
 10
2.5924
 20
-1.7652
 30
0.0
 10
2.5924
 20
-1.7652
 30
0.0
 10
2.5924
 20
-1.7652
 30
0.0
 10
2.9141
 20
-1.6561
 30
0.0
 10
2.9141
 20
-1.6561
 30
0.0
 10
2.9282
 20
-1.6494
 30
0.0
 10
2.9474
 20
-1.642
 30
0.0
 10
2.9716
 20
-1.6338
 30
0.0
 10
2.996
 20
-1.6256
 30
0.0
 10
3.0186
 20
-1.6173
 30
0.0
 10
3.0394
 20
-1.6088
 30
0.0
 10
3.0564
 20
-1.6027
 30
0.0
 10
3.0758
 20
-1.5963
 30
0.0
 10
3.0972
 20
-1.5893
 30
0.0
 10
3.1188
 20
-1.5823
 30
0.0
 10
3.1369
 20
-1.5767
 30
0.0
 10
3.1516
 20
-1.5723
 30
0.0
 10
3.3051
 20
-1.5145
 30
0.0
 10
3.4233
 20
-1.4725
 30
0.0
 10
3.5053
 20
-1.4462
 30
0.0
 10
3.5878
 20
-1.42
 30
0.0
 10
3.6593
 20
-1.4009
 30
0.0
 10
3.7199
 20
-1.3892
 30
0.0
 10
3.7755
 20
-1.3767
 30
0.0
 10
3.8419
 20
-1.3686
 30
0.0
 10
3.9194
 20
-1.3648
 30
0.0
 10
4.0259
 20
-1.3638
 30
0.0
 10
4.1251
 20
-1.3755
 30
0.0
 10
4.2168
 20
-1.4
 30
0.0
 10
4.309
 20
-1.4247
 30
0.0
 10
4.3836
 20
-1.4607
 30
0.0
 10
4.4404
 20
-1.5079
 30
0.0
 10
4.488
 20
-1.5477
 30
0.0
 10
4.4847
 20
-1.5852
 30
0.0
 10
4.4303
 20
-1.6203
 30
0.0
 10
4.3893
 20
-1.6467
 30
0.0
 10
4.2978
 20
-1.6747
 30
0.0
 10
4.1564
 20
-1.704
 30
0.0
 10
3.9952
 20
-1.7369
 30
0.0
 10
3.7875
 20
-1.7918
 30
0.0
 10
3.5342
 20
-1.8682
 30
0.0
 10
3.4837
 20
-1.8863
 30
0.0
 10
3.4202
 20
-1.9066
 30
0.0
 10
3.3443
 20
-1.9292
 30
0.0
  0
SPLINE
  5
6A
330
1F
100
AcDbEntity
  8
Layer 1
 62
     2
100
AcDbSpline
210
0.0
220
0.0
230
1.0
 70
    11
 71
     3
 72
    44
 73
    40
 74
     0
 42
0.0000000001
 43
0.0000000001
 40
0.0
 40
0.0
 40
0.0
 40
0.0
 40
0.0769230769230769
 40
0.0769230769230769
 40
0.0769230769230769
 40
0.1538461538461539
 40
0.1538461538461539
 40
0.1538461538461539
 40
0.2307692307692308
 40
0.2307692307692308
 40
0.2307692307692308
 40
0.3076923076923077
 40
0.3076923076923077
 40
0.3076923076923077
 40
0.3846153846153846
 40
0.3846153846153846
 40
0.3846153846153846
 40
0.4615384615384616
 40
0.4615384615384616
 40
0.4615384615384616
 40
0.5384615384615385
 40
0.5384615384615385
 40
0.5384615384615385
 40
0.6153846153846154
 40
0.6153846153846154
 40
0.6153846153846154
 40
0.6923076923076923
 40
0.6923076923076923
 40
0.6923076923076923
 40
0.7692307692307693
 40
0.7692307692307693
 40
0.7692307692307693
 40
0.8461538461538463
 40
0.8461538461538463
 40
0.8461538461538463
 40
0.9230769230769231
 40
0.9230769230769231
 40
0.9230769230769231
 40
1.0
 40
1.0
 40
1.0
 40
1.0
 10
4.3866
 20
-2.324
 30
0.0
 10
4.4422
 20
-2.3671
 30
0.0
 10
4.4584
 20
-2.4244
 30
0.0
 10
4.4347
 20
-2.496
 30
0.0
 10
4.407
 20
-2.5696
 30
0.0
 10
4.3581
 20
-2.637
 30
0.0
 10
4.2882
 20
-2.6978
 30
0.0
 10
4.2183
 20
-2.7587
 30
0.0
 10
4.0819
 20
-2.8066
 30
0.0
 10
3.9243
 20
-2.8732
 30
0.0
 10
3.5937
 20
-3.0254
 30
0.0
 10
3.2369
 20
-3.1433
 30
0.0
 10
2.7553
 20
-3.3051
 30
0.0
 10
2.2865
 20
-3.4496
 30
0.0
 10
1.9364
 20
-3.5914
 30
0.0
 10
1.6694
 20
-3.6086
 30
0.0
 10
1.5604
 20
-3.6173
 30
0.0
 10
1.4731
 20
-3.5965
 30
0.0
 10
1.4075
 20
-3.5464
 30
0.0
 10
1.3386
 20
-3.4938
 30
0.0
 10
1.3314
 20
-3.4266
 30
0.0
 10
1.3856
 20
-3.3445
 30
0.0
 10
1.4397
 20
-3.2625
 30
0.0
 10
1.545
 20
-3.1807
 30
0.0
 10
1.7015
 20
-3.0988
 30
0.0
 10
1.9338
 20
-2.9774
 30
0.0
 10
2.2298
 20
-2.8505
 30
0.0
 10
2.5912
 20
-2.7177
 30
0.0
 10
2.9561
 20
-2.5836
 30
0.0
 10
3.3564
 20
-2.4546
 30
0.0
 10
3.794
 20
-2.3303
 30
0.0
 10
3.9707
 20
-2.2792
 30
0.0
 10
4.11
 20
-2.2573
 30
0.0
 10
4.2116
 20
-2.2647
 30
0.0
 10
4.2779
 20
-2.2715
 30
0.0
 10
4.3348
 20
-2.2904
 30
0.0
 10
4.3825
 20
-2.3214
 30
0.0
 10
4.3825
 20
-2.3214
 30
0.0
 10
4.3866
 20
-2.324
 30
0.0
 10
4.3866
 20
-2.324
 30
0.0
  0
SPLINE
  5
6B
330
1F
100
AcDbEntity
  8
Layer 1
 62
     2
100
AcDbSpline
210
0.0
220
0.0
230
1.0
 70
    11
 71
     3
 72
    62
 73
    58
 74
     0
 42
0.0000000001
 43
0.0000000001
 40
0.0
 40
0.0
 40
0.0
 40
0.0
 40
0.0526315789473684
 40
0.0526315789473684
 40
0.0526315789473684
 40
0.1052631578947368
 40
0.1052631578947368
 40
0.1052631578947368
 40
0.1578947368421053
 40
0.1578947368421053
 40
0.1578947368421053
 40
0.2105263157894737
 40
0.2105263157894737
 40
0.2105263157894737
 40
0.2631578947368421
 40
0.2631578947368421
 40
0.2631578947368421
 40
0.3157894736842105
 40
0.3157894736842105
 40
0.3157894736842105
 40
0.3684210526315789
 40
0.3684210526315789
 40
0.3684210526315789
 40
0.4210526315789473
 40
0.4210526315789473
 40
0.4210526315789473
 40
0.4736842105263158
 40
0.4736842105263158
 40
0.4736842105263158
 40
0.5263157894736842
 40
0.5263157894736842
 40
0.5263157894736842
 40
0.5789473684210527
 40
0.5789473684210527
 40
0.5789473684210527
 40
0.631578947368421
 40
0.631578947368421
 40
0.631578947368421
 40
0.6842105263157894
 40
0.6842105263157894
 40
0.6842105263157894
 40
0.7368421052631579
 40
0.7368421052631579
 40
0.7368421052631579
 40
0.7894736842105263
 40
0.7894736842105263
 40
0.7894736842105263
 40
0.8421052631578947
 40
0.8421052631578947
 40
0.8421052631578947
 40
0.894736842105263
 40
0.894736842105263
 40
0.894736842105263
 40
0.9473684210526315
 40
0.9473684210526315
 40
0.9473684210526315
 40
1.0
 40
1.0
 40
1.0
 40
1.0
 10
-2.7189
 20
3.1796
 30
0.0
 10
-2.7189
 20
3.1796
 30
0.0
 10
-2.8023
 20
3.1523
 30
0.0
 10
-2.9891
 20
3.0416
 30
0.0
 10
-2.9891
 20
3.0416
 30
0.0
 10
-4.8128
 20
3.5943
 30
0.0
 10
-4.8128
 20
3.5943
 30
0.0
 10
-4.8128
 20
3.5943
 30
0.0
 10
-3.2792
 20
3.8928
 30
0.0
 10
-3.2792
 20
3.8928
 30
0.0
 10
-3.1546
 20
4.0137
 30
0.0
 10
-3.0202
 20
4.0802
 30
0.0
 10
-2.8871
 20
4.1091
 30
0.0
 10
-2.7187
 20
4.1456
 30
0.0
 10
-2.5526
 20
4.1217
 30
0.0
 10
-2.4116
 20
4.0715
 30
0.0
 10
-2.4116
 20
4.0715
 30
0.0
 10
0.1228
 20
4.6728
 30
0.0
 10
0.1228
 20
4.6728
 30
0.0
 10
0.1228
 20
4.6728
 30
0.0
 10
4.8629
 20
3.6428
 30
0.0
 10
4.8629
 20
3.6428
 30
0.0
 10
4.8629
 20
3.6428
 30
0.0
 10
0.0919
 20
2.2082
 30
0.0
 10
0.0919
 20
2.2082
 30
0.0
 10
-0.1007
 20
2.5159
 30
0.0
 10
-0.3276
 20
2.778
 30
0.0
 10
-0.7071
 20
3.0559
 30
0.0
 10
-0.7071
 20
3.0559
 30
0.0
 10
-0.0264
 20
3.0163
 30
0.0
 10
0.3738
 20
3.1411
 30
0.0
 10
0.3738
 20
3.1411
 30
0.0
 10
0.5264
 20
3.0994
 30
0.0
 10
0.3542
 20
3.5959
 30
0.0
 10
0.3542
 20
3.5959
 30
0.0
 10
0.2144
 20
4.161
 30
0.0
 10
-0.2123
 20
4.038
 30
0.0
 10
-0.2123
 20
4.038
 30
0.0
 10
-0.9242
 20
3.8542
 30
0.0
 10
-1.6176
 20
3.5753
 30
0.0
 10
-1.6176
 20
3.5753
 30
0.0
 10
-1.7511
 20
3.6396
 30
0.0
 10
-1.823
 20
3.5593
 30
0.0
 10
-1.823
 20
3.5593
 30
0.0
 10
-2.1325
 20
3.872
 30
0.0
 10
-2.4287
 20
4.034
 30
0.0
 10
-2.5626
 20
4.081
 30
0.0
 10
-2.7195
 20
4.1032
 30
0.0
 10
-2.8784
 20
4.0688
 30
0.0
 10
-3.0067
 20
4.0409
 30
0.0
 10
-3.1365
 20
3.976
 30
0.0
 10
-3.2567
 20
3.8573
 30
0.0
 10
-3.4555
 20
3.6476
 30
0.0
 10
-3.7012
 20
3.3422
 30
0.0
 10
-3.1817
 20
3.2969
 30
0.0
 10
-3.1817
 20
3.2969
 30
0.0
 10
-2.7189
 20
3.1796
 30
0.0
 10
-2.7189
 20
3.1796
 30
0.0
  0
SPLINE
  5
6C
330
1F
100
AcDbEntity
  8
Layer 1
 62
     2
100
AcDbSpline
210
0.0
220
0.0
230
1.0
 70
    11
 71
     3
 72
    35
 73
    31
 74
     0
 42
0.0000000001
 43
0.0000000001
 40
0.0
 40
0.0
 40
0.0
 40
0.0
 40
0.1
 40
0.1
 40
0.1
 40
0.2
 40
0.2
 40
0.2
 40
0.3
 40
0.3
 40
0.3
 40
0.4
 40
0.4
 40
0.4
 40
0.5
 40
0.5
 40
0.5
 40
0.6000000000000001
 40
0.6000000000000001
 40
0.6000000000000001
 40
0.7000000000000001
 40
0.7000000000000001
 40
0.7000000000000001
 40
0.8
 40
0.8
 40
0.8
 40
0.9
 40
0.9
 40
0.9
 40
1.0
 40
1.0
 40
1.0
 40
1.0
 10
-3.3973
 20
2.7967
 30
0.0
 10
-3.7128
 20
2.599
 30
0.0
 10
-3.8773
 20
2.4242
 30
0.0
 10
-4.2655
 20
1.879
 30
0.0
 10
-4.2655
 20
1.879
 30
0.0
 10
-4.2182
 20
0.9895
 30
0.0
 10
-4.1218
 20
0.7827
 30
0.0
 10
-4.1218
 20
0.7827
 30
0.0
 10
-4.1034
 20
1.3591
 30
0.0
 10
-2.7049
 20
2.5504
 30
0.0
 10
-2.7049
 20
2.5504
 30
0.0
 10
-0.7522
 20
2.0494
 30
0.0
 10
-0.7522
 20
2.0494
 30
0.0
 10
-0.3953
 20
1.4373
 30
0.0
 10
-0.1764
 20
0.8617
 30
0.0
 10
-0.2236
 20
0.0831
 30
0.0
 10
-0.2236
 20
0.0831
 30
0.0
 10
-0.179
 20
0.1435
 30
0.0
 10
-0.0519
 20
0.3203
 30
0.0
 10
-0.0519
 20
0.3203
 30
0.0
 10
-0.0932
 20
-4.8569
 30
0.0
 10
-0.0932
 20
-4.8569
 30
0.0
 10
-0.0932
 20
-4.8569
 30
0.0
 10
-5.0548
 20
-2.9755
 30
0.0
 10
-5.0548
 20
-2.9755
 30
0.0
 10
-5.0548
 20
-2.9755
 30
0.0
 10
-5.0401
 20
3.278
 30
0.0
 10
-5.0401
 20
3.278
 30
0.0
 10
-5.0401
 20
3.278
 30
0.0
 10
-3.3973
 20
2.7967
 30
0.0
 10
-3.3973
 20
2.7967
 30
0.0
  0
SPLINE
  5
6D
330
1F
100
AcDbEntity
  8
Layer 1
 62
     2
100
AcDbSpline
210
0.0
220
0.0
230
1.0
 70
    11
 71
     3
 72
    23
 73
    19
 74
     0
 42
0.0000000001
 43
0.0000000001
 40
0.0
 40
0.0
 40
0.0
 40
0.0
 40
0.1666666666666667
 40
0.1666666666666667
 40
0.1666666666666667
 40
0.3333333333333333
 40
0.3333333333333333
 40
0.3333333333333333
 40
0.5
 40
0.5
 40
0.5
 40
0.6666666666666666
 40
0.6666666666666666
 40
0.6666666666666666
 40
0.8333333333333333
 40
0.8333333333333333
 40
0.8333333333333333
 40
1.0
 40
1.0
 40
1.0
 40
1.0
 10
-2.3788
 20
2.8486
 30
0.0
 10
-2.2641
 20
2.9449
 30
0.0
 10
-2.161
 20
3.0278
 30
0.0
 10
-2.031
 20
3.1288
 30
0.0
 10
-1.9649
 20
3.1802
 30
0.0
 10
-1.8743
 20
3.2003
 30
0.0
 10
-1.7974
 20
3.1674
 30
0.0
 10
-1.7608
 20
3.1517
 30
0.0
 10
-1.7062
 20
3.1449
 30
0.0
 10
-1.6245
 20
3.1612
 30
0.0
 10
-1.5463
 20
3.1769
 30
0.0
 10
-1.4664
 20
3.1429
 30
0.0
 10
-1.4174
 20
3.08
 30
0.0
 10
-1.3149
 20
2.9483
 30
0.0
 10
-1.181
 20
2.7744
 30
0.0
 10
-0.9979
 20
2.47
 30
0.0
 10
-0.9979
 20
2.47
 30
0.0
 10
-2.3788
 20
2.8486
 30
0.0
 10
-2.3788
 20
2.8486
 30
0.0
  0
SPLINE
  5
6E
330
1F
100
AcDbEntity
  8
Layer 1
 62
     2
100
AcDbSpline
210
0.0
220
0.0
230
1.0
 70
    11
 71
     3
 72
    23
 73
    19
 74
     0
 42
0.0000000001
 43
0.0000000001
 40
0.0
 40
0.0
 40
0.0
 40
0.0
 40
0.1666666666666667
 40
0.1666666666666667
 40
0.1666666666666667
 40
0.3333333333333333
 40
0.3333333333333333
 40
0.3333333333333333
 40
0.5
 40
0.5
 40
0.5
 40
0.6666666666666666
 40
0.6666666666666666
 40
0.6666666666666666
 40
0.8333333333333333
 40
0.8333333333333333
 40
0.8333333333333333
 40
1.0
 40
1.0
 40
1.0
 40
1.0
 10
0.2904
 20
0.7993
 30
0.0
 10
0.4478
 20
1.019
 30
0.0
 10
0.4135
 20
0.9724
 30
0.0
 10
0.5569
 20
1.1835
 30
0.0
 10
0.5569
 20
1.1835
 30
0.0
 10
0.5723
 20
1.4071
 30
0.0
 10
0.2815
 20
1.8927
 30
0.0
 10
0.2815
 20
1.8927
 30
0.0
 10
5.0002
 20
3.3083
 30
0.0
 10
5.0002
 20
3.3083
 30
0.0
 10
5.0002
 20
3.3083
 30
0.0
 10
5.0002
 20
-2.97
 30
0.0
 10
5.0002
 20
-2.97
 30
0.0
 10
5.0002
 20
-2.97
 30
0.0
 10
0.2955
 20
-4.7667
 30
0.0
 10
0.2955
 20
-4.7667
 30
0.0
 10
0.2955
 20
-4.7667
 30
0.0
 10
0.2904
 20
0.7993
 30
0.0
 10
0.2904
 20
0.7993
 30
0.0
  0
SPLINE
  5
6F
330
1F
100
AcDbEntity
  8
Layer 1
 62
     2
100
AcDbSpline
210
0.0
220
0.0
230
1.0
 70
    11
 71
     3
 72
    23
 73
    19
 74
     0
 42
0.0000000001
 43
0.0000000001
 40
0.0
 40
0.0
 40
0.0
 40
0.0
 40
0.1666666666666667
 40
0.1666666666666667
 40
0.1666666666666667
 40
0.3333333333333333
 40
0.3333333333333333
 40
0.3333333333333333
 40
0.5
 40
0.5
 40
0.5
 40
0.6666666666666666
 40
0.6666666666666666
 40
0.6666666666666666
 40
0.8333333333333333
 40
0.8333333333333333
 40
0.8333333333333333
 40
1.0
 40
1.0
 40
1.0
 40
1.0
 10
-5.3928
 20
3.7853
 30
0.0
 10
-5.3928
 20
3.7853
 30
0.0
 10
-5.4083
 20
-3.2349
 30
0.0
 10
-5.4083
 20
-3.2349
 30
0.0
 10
-5.4083
 20
-3.2349
 30
0.0
 10
-0.0125
 20
-5.249
 30
0.0
 10
-0.0125
 20
-5.249
 30
0.0
 10
1.6947
 20
-4.5972
 30
0.0
 10
3.6687
 20
-3.8826
 30
0.0
 10
5.3758
 20
-3.2303
 30
0.0
 10
5.3768
 20
-1.0031
 30
0.0
 10
5.3617
 20
1.6419
 30
0.0
 10
5.3617
 20
3.8692
 30
0.0
 10
3.7046
 20
4.2299
 30
0.0
 10
1.7961
 20
4.6498
 30
0.0
 10
0.1384
 20
5.008
 30
0.0
 10
-1.6243
 20
4.6307
 30
0.0
 10
-3.6246
 20
4.1653
 30
0.0
 10
-5.3928
 20
3.7853
 30
0.0
  0
SPLINE
  5
70
330
1F
100
AcDbEntity
  8
Layer 1
 62
     2
100
AcDbSpline
210
0.0
220
0.0
230
1.0
 70
    11
 71
     3
 72
    17
 73
    13
 74
     0
 42
0.0000000001
 43
0.0000000001
 40
0.0
 40
0.0
 40
0.0
 40
0.0
 40
0.25
 40
0.25
 40
0.25
 40
0.5
 40
0.5
 40
0.5
 40
0.75
 40
0.75
 40
0.75
 40
1.0
 40
1.0
 40
1.0
 40
1.0
 10
-3.1377
 20
-0.0892
 30
0.0
 10
-3.1377
 20
-0.0892
 30
0.0
 10
-2.6693
 20
-0.5058
 30
0.0
 10
-1.7522
 20
-0.5066
 30
0.0
 10
-1.7522
 20
-0.5066
 30
0.0
 10
-1.0437
 20
-0.4863
 30
0.0
 10
-1.1741
 20
-0.0344
 30
0.0
 10
-1.1741
 20
-0.0344
 30
0.0
 10
-1.6733
 20
0.6385
 30
0.0
 10
-2.8581
 20
0.4666
 30
0.0
 10
-2.8581
 20
0.4666
 30
0.0
 10
-3.5616
 20
0.2735
 30
0.0
 10
-3.1377
 20
-0.0892
 30
0.0
  0
SPLINE
  5
71
330
1F
100
AcDbEntity
  8
Layer 1
 62
     2
100
AcDbSpline
210
0.0
220
0.0
230
1.0
 70
    11
 71
     3
 72
    20
 73
    16
 74
     0
 42
0.0000000001
 43
0.0000000001
 40
0.0
 40
0.0
 40
0.0
 40
0.0
 40
0.2
 40
0.2
 40
0.2
 40
0.4
 40
0.4
 40
0.4
 40
0.6000000000000001
 40
0.6000000000000001
 40
0.6000000000000001
 40
0.8
 40
0.8
 40
0.8
 40
1.0
 40
1.0
 40
1.0
 40
1.0
 10
-3.9021
 20
0.5884
 30
0.0
 10
-3.9021
 20
0.5884
 30
0.0
 10
-3.4579
 20
1.3521
 30
0.0
 10
-2.1501
 20
0.9765
 30
0.0
 10
-2.1501
 20
0.9765
 30
0.0
 10
-0.9163
 20
0.7482
 30
0.0
 10
-0.7312
 20
0.0021
 30
0.0
 10
-0.7312
 20
0.0021
 30
0.0
 10
-0.5775
 20
-1.25
 30
0.0
 10
-2.2151
 20
-1.0279
 30
0.0
 10
-2.2151
 20
-1.0279
 30
0.0
 10
-3.3492
 20
-0.7934
 30
0.0
 10
-3.7984
 20
-0.1765
 30
0.0
 10
-3.7984
 20
-0.1765
 30
0.0
 10
-4.1489
 20
0.1813
 30
0.0
 10
-3.9021
 20
0.5884
 30
0.0
  0
SPLINE
  5
72
330
1F
100
AcDbEntity
  8
Layer 1
 62
     2
100
AcDbSpline
210
0.0
220
0.0
230
1.0
 70
    11
 71
     3
 72
    20
 73
    16
 74
     0
 42
0.0000000001
 43
0.0000000001
 40
0.0
 40
0.0
 40
0.0
 40
0.0
 40
0.2
 40
0.2
 40
0.2
 40
0.4
 40
0.4
 40
0.4
 40
0.6000000000000001
 40
0.6000000000000001
 40
0.6000000000000001
 40
0.8
 40
0.8
 40
0.8
 40
1.0
 40
1.0
 40
1.0
 40
1.0
 10
0.8898
 20
0.4565
 30
0.0
 10
0.8898
 20
0.4565
 30
0.0
 10
0.778
 20
1.3328
 30
0.0
 10
2.0447
 20
1.8299
 30
0.0
 10
2.0447
 20
1.8299
 30
0.0
 10
3.163
 20
2.399
 30
0.0
 10
3.7636
 20
1.9193
 30
0.0
 10
3.7636
 20
1.9193
 30
0.0
 10
4.647
 20
1.0189
 30
0.0
 10
3.2119
 20
0.1993
 30
0.0
 10
3.2119
 20
0.1993
 30
0.0
 10
2.1691
 20
-0.3043
 30
0.0
 10
1.4373
 20
-0.0877
 30
0.0
 10
1.4373
 20
-0.0877
 30
0.0
 10
0.9415
 20
-0.0168
 30
0.0
 10
0.8898
 20
0.4565
 30
0.0
  0
SPLINE
  5
73
330
1F
100
AcDbEntity
  8
Layer 1
 62
     2
100
AcDbSpline
210
0.0
220
0.0
230
1.0
 70
    11
 71
     3
 72
    17
 73
    13
 74
     0
 42
0.0000000001
 43
0.0000000001
 40
0.0
 40
0.0
 40
0.0
 40
0.0
 40
0.25
 40
0.25
 40
0.25
 40
0.5
 40
0.5
 40
0.5
 40
0.75
 40
0.75
 40
0.75
 40
1.0
 40
1.0
 40
1.0
 40
1.0
 10
1.9272
 20
0.3642
 30
0.0
 10
1.9272
 20
0.3642
 30
0.0
 10
2.5534
 20
0.3364
 30
0.0
 10
3.2656
 20
0.914
 30
0.0
 10
3.2656
 20
0.914
 30
0.0
 10
3.8026
 20
1.3766
 30
0.0
 10
3.4165
 20
1.645
 30
0.0
 10
3.4165
 20
1.645
 30
0.0
 10
2.6048
 20
1.8525
 30
0.0
 10
1.7936
 20
0.9719
 30
0.0
 10
1.7936
 20
0.9719
 30
0.0
 10
1.3694
 20
0.3785
 30
0.0
 10
1.9272
 20
0.3642
 30
0.0
  0
SPLINE
  5
74
330
1F
100
AcDbEntity
  8
Layer 1
 62
     2
100
AcDbSpline
210
0.0
220
0.0
230
1.0
 70
    11
 71
     3
 72
    41
 73
    37
 74
     0
 42
0.0000000001
 43
0.0000000001
 40
0.0
 40
0.0
 40
0.0
 40
0.0
 40
0.0833333333333333
 40
0.0833333333333333
 40
0.0833333333333333
 40
0.1666666666666667
 40
0.1666666666666667
 40
0.1666666666666667
 40
0.25
 40
0.25
 40
0.25
 40
0.3333333333333333
 40
0.3333333333333333
 40
0.3333333333333333
 40
0.4166666666666666
 40
0.4166666666666666
 40
0.4166666666666666
 40
0.5
 40
0.5
 40
0.5
 40
0.5833333333333333
 40
0.5833333333333333
 40
0.5833333333333333
 40
0.6666666666666666
 40
0.6666666666666666
 40
0.6666666666666666
 40
0.75
 40
0.75
 40
0.75
 40
0.8333333333333333
 40
0.8333333333333333
 40
0.8333333333333333
 40
0.9166666666666666
 40
0.9166666666666666
 40
0.9166666666666666
 40
1.0
 40
1.0
 40
1.0
 40
1.0
 10
-8.9853
 20
-1.0835
 30
0.0
 10
-8.9853
 20
-1.0835
 30
0.0
 10
-6.7007
 20
-0.6755
 30
0.0
 10
-6.7007
 20
-0.6755
 30
0.0
 10
-6.7007
 20
-0.6755
 30
0.0
 10
-6.5418
 20
-1.5656
 30
0.0
 10
-6.5418
 20
-1.5656
 30
0.0
 10
-6.5148
 20
-1.7164
 30
0.0
 10
-6.508
 20
-1.8437
 30
0.0
 10
-6.5217
 20
-1.9487
 30
0.0
 10
-6.5354
 20
-2.0537
 30
0.0
 10
-6.5851
 20
-2.1516
 30
0.0
 10
-6.6716
 20
-2.2414
 30
0.0
 10
-6.7581
 20
-2.3317
 30
0.0
 10
-6.8681
 20
-2.3891
 30
0.0
 10
-7.0018
 20
-2.4129
 30
0.0
 10
-7.128
 20
-2.4355
 30
0.0
 10
-7.2444
 20
-2.4179
 30
0.0
 10
-7.3505
 20
-2.3614
 30
0.0
 10
-7.4568
 20
-2.3044
 30
0.0
 10
-7.5344
 20
-2.2133
 30
0.0
 10
-7.5833
 20
-2.0882
 30
0.0
 10
-7.5825
 20
-2.2543
 30
0.0
 10
-7.626
 20
-2.387
 30
0.0
 10
-7.714
 20
-2.4882
 30
0.0
 10
-7.8015
 20
-2.5893
 30
0.0
 10
-7.9158
 20
-2.6522
 30
0.0
 10
-8.0564
 20
-2.6773
 30
0.0
 10
-8.2329
 20
-2.7088
 30
0.0
 10
-8.3912
 20
-2.6775
 30
0.0
 10
-8.5317
 20
-2.5836
 30
0.0
 10
-8.6724
 20
-2.489
 30
0.0
 10
-8.7641
 20
-2.3221
 30
0.0
 10
-8.8069
 20
-2.0827
 30
0.0
 10
-8.8069
 20
-2.0827
 30
0.0
 10
-8.9853
 20
-1.0835
 30
0.0
 10
-8.9853
 20
-1.0835
 30
0.0
  0
SPLINE
  5
75
330
1F
100
AcDbEntity
  8
Layer 1
 62
     2
100
AcDbSpline
210
0.0
220
0.0
230
1.0
 70
    11
 71
     3
 72
   362
 73
   358
 74
     0
 42
0.0000000001
 43
0.0000000001
 40
0.0
 40
0.0
 40
0.0
 40
0.0
 40
0.0084033613445378
 40
0.0084033613445378
 40
0.0084033613445378
 40
0.0168067226890756
 40
0.0168067226890756
 40
0.0168067226890756
 40
0.0252100840336134
 40
0.0252100840336134
 40
0.0252100840336134
 40
0.0336134453781513
 40
0.0336134453781513
 40
0.0336134453781513
 40
0.0420168067226891
 40
0.0420168067226891
 40
0.0420168067226891
 40
0.0504201680672269
 40
0.0504201680672269
 40
0.0504201680672269
 40
0.0588235294117647
 40
0.0588235294117647
 40
0.0588235294117647
 40
0.0672268907563025
 40
0.0672268907563025
 40
0.0672268907563025
 40
0.0756302521008403
 40
0.0756302521008403
 40
0.0756302521008403
 40
0.0840336134453781
 40
0.0840336134453781
 40
0.0840336134453781
 40
0.092436974789916
 40
0.092436974789916
 40
0.092436974789916
 40
0.1008403361344538
 40
0.1008403361344538
 40
0.1008403361344538
 40
0.1092436974789916
 40
0.1092436974789916
 40
0.1092436974789916
 40
0.1176470588235294
 40
0.1176470588235294
 40
0.1176470588235294
 40
0.1260504201680672
 40
0.1260504201680672
 40
0.1260504201680672
 40
0.134453781512605
 40
0.134453781512605
 40
0.134453781512605
 40
0.1428571428571428
 40
0.1428571428571428
 40
0.1428571428571428
 40
0.1512605042016807
 40
0.1512605042016807
 40
0.1512605042016807
 40
0.1596638655462185
 40
0.1596638655462185
 40
0.1596638655462185
 40
0.1680672268907563
 40
0.1680672268907563
 40
0.1680672268907563
 40
0.1764705882352941
 40
0.1764705882352941
 40
0.1764705882352941
 40
0.1848739495798319
 40
0.1848739495798319
 40
0.1848739495798319
 40
0.1932773109243697
 40
0.1932773109243697
 40
0.1932773109243697
 40
0.2016806722689076
 40
0.2016806722689076
 40
0.2016806722689076
 40
0.2100840336134454
 40
0.2100840336134454
 40
0.2100840336134454
 40
0.2184873949579832
 40
0.2184873949579832
 40
0.2184873949579832
 40
0.226890756302521
 40
0.226890756302521
 40
0.226890756302521
 40
0.2352941176470588
 40
0.2352941176470588
 40
0.2352941176470588
 40
0.2436974789915966
 40
0.2436974789915966
 40
0.2436974789915966
 40
0.2521008403361344
 40
0.2521008403361344
 40
0.2521008403361344
 40
0.2605042016806722
 40
0.2605042016806722
 40
0.2605042016806722
 40
0.2689075630252101
 40
0.2689075630252101
 40
0.2689075630252101
 40
0.2773109243697479
 40
0.2773109243697479
 40
0.2773109243697479
 40
0.2857142857142857
 40
0.2857142857142857
 40
0.2857142857142857
 40
0.2941176470588235
 40
0.2941176470588235
 40
0.2941176470588235
 40
0.3025210084033613
 40
0.3025210084033613
 40
0.3025210084033613
 40
0.3109243697478992
 40
0.3109243697478992
 40
0.3109243697478992
 40
0.319327731092437
 40
0.319327731092437
 40
0.319327731092437
 40
0.3277310924369748
 40
0.3277310924369748
 40
0.3277310924369748
 40
0.3361344537815126
 40
0.3361344537815126
 40
0.3361344537815126
 40
0.3445378151260504
 40
0.3445378151260504
 40
0.3445378151260504
 40
0.3529411764705882
 40
0.3529411764705882
 40
0.3529411764705882
 40
0.361344537815126
 40
0.361344537815126
 40
0.361344537815126
 40
0.3697478991596638
 40
0.3697478991596638
 40
0.3697478991596638
 40
0.3781512605042017
 40
0.3781512605042017
 40
0.3781512605042017
 40
0.3865546218487395
 40
0.3865546218487395
 40
0.3865546218487395
 40
0.3949579831932773
 40
0.3949579831932773
 40
0.3949579831932773
 40
0.4033613445378151
 40
0.4033613445378151
 40
0.4033613445378151
 40
0.4117647058823529
 40
0.4117647058823529
 40
0.4117647058823529
 40
0.4201680672268908
 40
0.4201680672268908
 40
0.4201680672268908
 40
0.4285714285714285
 40
0.4285714285714285
 40
0.4285714285714285
 40
0.4369747899159664
 40
0.4369747899159664
 40
0.4369747899159664
 40
0.4453781512605042
 40
0.4453781512605042
 40
0.4453781512605042
 40
0.453781512605042
 40
0.453781512605042
 40
0.453781512605042
 40
0.4621848739495798
 40
0.4621848739495798
 40
0.4621848739495798
 40
0.4705882352941176
 40
0.4705882352941176
 40
0.4705882352941176
 40
0.4789915966386554
 40
0.4789915966386554
 40
0.4789915966386554
 40
0.4873949579831933
 40
0.4873949579831933
 40
0.4873949579831933
 40
0.4957983193277311
 40
0.4957983193277311
 40
0.4957983193277311
 40
0.5042016806722689
 40
0.5042016806722689
 40
0.5042016806722689
 40
0.5126050420168067
 40
0.5126050420168067
 40
0.5126050420168067
 40
0.5210084033613445
 40
0.5210084033613445
 40
0.5210084033613445
 40
0.5294117647058824
 40
0.5294117647058824
 40
0.5294117647058824
 40
0.5378151260504201
 40
0.5378151260504201
 40
0.5378151260504201
 40
0.5462184873949579
 40
0.5462184873949579
 40
0.5462184873949579
 40
0.5546218487394958
 40
0.5546218487394958
 40
0.5546218487394958
 40
0.5630252100840336
 40
0.5630252100840336
 40
0.5630252100840336
 40
0.5714285714285714
 40
0.5714285714285714
 40
0.5714285714285714
 40
0.5798319327731092
 40
0.5798319327731092
 40
0.5798319327731092
 40
0.5882352941176471
 40
0.5882352941176471
 40
0.5882352941176471
 40
0.5966386554621849
 40
0.5966386554621849
 40
0.5966386554621849
 40
0.6050420168067226
 40
0.6050420168067226
 40
0.6050420168067226
 40
0.6134453781512604
 40
0.6134453781512604
 40
0.6134453781512604
 40
0.6218487394957983
 40
0.6218487394957983
 40
0.6218487394957983
 40
0.6302521008403361
 40
0.6302521008403361
 40
0.6302521008403361
 40
0.6386554621848739
 40
0.6386554621848739
 40
0.6386554621848739
 40
0.6470588235294117
 40
0.6470588235294117
 40
0.6470588235294117
 40
0.6554621848739496
 40
0.6554621848739496
 40
0.6554621848739496
 40
0.6638655462184874
 40
0.6638655462184874
 40
0.6638655462184874
 40
0.6722689075630252
 40
0.6722689075630252
 40
0.6722689075630252
 40
0.680672268907563
 40
0.680672268907563
 40
0.680672268907563
 40
0.6890756302521008
 40
0.6890756302521008
 40
0.6890756302521008
 40
0.6974789915966386
 40
0.6974789915966386
 40
0.6974789915966386
 40
0.7058823529411764
 40
0.7058823529411764
 40
0.7058823529411764
 40
0.7142857142857143
 40
0.7142857142857143
 40
0.7142857142857143
 40
0.7226890756302521
 40
0.7226890756302521
 40
0.7226890756302521
 40
0.7310924369747899
 40
0.7310924369747899
 40
0.7310924369747899
 40
0.7394957983193277
 40
0.7394957983193277
 40
0.7394957983193277
 40
0.7478991596638656
 40
0.7478991596638656
 40
0.7478991596638656
 40
0.7563025210084033
 40
0.7563025210084033
 40
0.7563025210084033
 40
0.7647058823529411
 40
0.7647058823529411
 40
0.7647058823529411
 40
0.7731092436974789
 40
0.7731092436974789
 40
0.7731092436974789
 40
0.7815126050420168
 40
0.7815126050420168
 40
0.7815126050420168
 40
0.7899159663865546
 40
0.7899159663865546
 40
0.7899159663865546
 40
0.7983193277310924
 40
0.7983193277310924
 40
0.7983193277310924
 40
0.8067226890756303
 40
0.8067226890756303
 40
0.8067226890756303
 40
0.8151260504201681
 40
0.8151260504201681
 40
0.8151260504201681
 40
0.8235294117647058
 40
0.8235294117647058
 40
0.8235294117647058
 40
0.8319327731092436
 40
0.8319327731092436
 40
0.8319327731092436
 40
0.8403361344537815
 40
0.8403361344537815
 40
0.8403361344537815
 40
0.8487394957983193
 40
0.8487394957983193
 40
0.8487394957983193
 40
0.8571428571428571
 40
0.8571428571428571
 40
0.8571428571428571
 40
0.8655462184873949
 40
0.8655462184873949
 40
0.8655462184873949
 40
0.8739495798319328
 40
0.8739495798319328
 40
0.8739495798319328
 40
0.8823529411764706
 40
0.8823529411764706
 40
0.8823529411764706
 40
0.8907563025210083
 40
0.8907563025210083
 40
0.8907563025210083
 40
0.8991596638655461
 40
0.8991596638655461
 40
0.8991596638655461
 40
0.907563025210084
 40
0.907563025210084
 40
0.907563025210084
 40
0.9159663865546218
 40
0.9159663865546218
 40
0.9159663865546218
 40
0.9243697478991596
 40
0.9243697478991596
 40
0.9243697478991596
 40
0.9327731092436974
 40
0.9327731092436974
 40
0.9327731092436974
 40
0.9411764705882353
 40
0.9411764705882353
 40
0.9411764705882353
 40
0.9495798319327731
 40
0.9495798319327731
 40
0.9495798319327731
 40
0.9579831932773109
 40
0.9579831932773109
 40
0.9579831932773109
 40
0.9663865546218487
 40
0.9663865546218487
 40
0.9663865546218487
 40
0.9747899159663865
 40
0.9747899159663865
 40
0.9747899159663865
 40
0.9831932773109243
 40
0.9831932773109243
 40
0.9831932773109243
 40
0.9915966386554621
 40
0.9915966386554621
 40
0.9915966386554621
 40
1.0
 40
1.0
 40
1.0
 40
1.0
 10
7.4918
 20
2.2844
 30
0.0
 10
7.7162
 20
2.3456
 30
0.0
 10
7.8828
 20
2.3569
 30
0.0
 10
7.9923
 20
2.3181
 30
0.0
 10
8.1198
 20
2.2731
 30
0.0
 10
8.2108
 20
2.1508
 30
0.0
 10
8.2653
 20
1.9507
 30
0.0
 10
8.2653
 20
1.9507
 30
0.0
 10
8.2728
 20
1.9235
 30
0.0
 10
8.2728
 20
1.9235
 30
0.0
 10
8.2728
 20
1.9235
 30
0.0
 10
8.28
 20
1.9249
 30
0.0
 10
8.28
 20
1.9249
 30
0.0
 10
8.28
 20
1.9249
 30
0.0
 10
8.3057
 20
1.7918
 30
0.0
 10
8.3057
 20
1.7918
 30
0.0
 10
8.3652
 20
1.484
 30
0.0
 10
8.2341
 20
1.2993
 30
0.0
 10
7.9121
 20
1.2371
 30
0.0
 10
7.7748
 20
1.2106
 30
0.0
 10
7.5957
 20
1.1708
 30
0.0
 10
7.3743
 20
1.1176
 30
0.0
 10
7.1404
 20
1.0615
 30
0.0
 10
6.9867
 20
1.0205
 30
0.0
 10
6.9125
 20
0.9944
 30
0.0
 10
6.9009
 20
0.9902
 30
0.0
 10
6.8901
 20
0.9875
 30
0.0
 10
6.8801
 20
0.9862
 30
0.0
 10
6.8801
 20
0.9862
 30
0.0
 10
7.0437
 20
0.9825
 30
0.0
 10
7.0437
 20
0.9825
 30
0.0
 10
7.0614
 20
0.9823
 30
0.0
 10
7.0713
 20
0.9814
 30
0.0
 10
7.074
 20
0.9799
 30
0.0
 10
7.0803
 20
0.977
 30
0.0
 10
7.0857
 20
0.9689
 30
0.0
 10
7.091
 20
0.956
 30
0.0
 10
7.091
 20
0.956
 30
0.0
 10
7.2959
 20
0.4558
 30
0.0
 10
7.2959
 20
0.4558
 30
0.0
 10
7.3889
 20
0.5486
 30
0.0
 10
7.4699
 20
0.6155
 30
0.0
 10
7.5398
 20
0.657
 30
0.0
 10
7.6363
 20
0.7137
 30
0.0
 10
7.7475
 20
0.7475
 30
0.0
 10
7.8737
 20
0.7581
 30
0.0
 10
8.1233
 20
0.7792
 30
0.0
 10
8.3042
 20
0.706
 30
0.0
 10
8.4157
 20
0.5382
 30
0.0
 10
8.4742
 20
0.4501
 30
0.0
 10
8.5092
 20
0.341
 30
0.0
 10
8.5202
 20
0.2102
 30
0.0
 10
8.5202
 20
0.2102
 30
0.0
 10
8.5329
 20
0.0592
 30
0.0
 10
8.5329
 20
0.0592
 30
0.0
 10
8.5329
 20
0.0592
 30
0.0
 10
8.5605
 20
0.0571
 30
0.0
 10
8.5605
 20
0.0571
 30
0.0
 10
8.5605
 20
0.0571
 30
0.0
 10
8.5532
 20
-0.0389
 30
0.0
 10
8.5532
 20
-0.0389
 30
0.0
 10
8.5469
 20
-0.1216
 30
0.0
 10
8.4864
 20
-0.1959
 30
0.0
 10
8.3715
 20
-0.2626
 30
0.0
 10
8.4746
 20
-0.3507
 30
0.0
 10
8.5236
 20
-0.4277
 30
0.0
 10
8.5186
 20
-0.4938
 30
0.0
 10
8.5154
 20
-0.5368
 30
0.0
 10
8.4942
 20
-0.5785
 30
0.0
 10
8.4547
 20
-0.618
 30
0.0
 10
8.4198
 20
-0.6539
 30
0.0
 10
8.3792
 20
-0.6804
 30
0.0
 10
8.3334
 20
-0.6967
 30
0.0
 10
8.4402
 20
-0.7811
 30
0.0
 10
8.4912
 20
-0.8549
 30
0.0
 10
8.4863
 20
-0.9184
 30
0.0
 10
8.4791
 20
-1.0131
 30
0.0
 10
8.4172
 20
-1.083
 30
0.0
 10
8.3006
 20
-1.1277
 30
0.0
 10
8.4075
 20
-1.2113
 30
0.0
 10
8.4576
 20
-1.2966
 30
0.0
 10
8.4509
 20
-1.384
 30
0.0
 10
8.4509
 20
-1.384
 30
0.0
 10
8.4435
 20
-1.4816
 30
0.0
 10
8.4435
 20
-1.4816
 30
0.0
 10
8.4435
 20
-1.4816
 30
0.0
 10
8.4234
 20
-1.4801
 30
0.0
 10
8.4234
 20
-1.4801
 30
0.0
 10
8.4234
 20
-1.4801
 30
0.0
 10
8.4198
 20
-1.5007
 30
0.0
 10
8.4198
 20
-1.5007
 30
0.0
 10
8.3987
 20
-1.619
 30
0.0
 10
8.3268
 20
-1.7004
 30
0.0
 10
8.204
 20
-1.7458
 30
0.0
 10
8.3037
 20
-1.8296
 30
0.0
 10
8.3419
 20
-1.9368
 30
0.0
 10
8.3185
 20
-2.0677
 30
0.0
 10
8.3185
 20
-2.0677
 30
0.0
 10
8.3097
 20
-2.1173
 30
0.0
 10
8.3097
 20
-2.1173
 30
0.0
 10
8.3097
 20
-2.1173
 30
0.0
 10
8.3126
 20
-2.1182
 30
0.0
 10
8.3126
 20
-2.1182
 30
0.0
 10
8.3126
 20
-2.1182
 30
0.0
 10
8.3043
 20
-2.1474
 30
0.0
 10
8.3043
 20
-2.1474
 30
0.0
 10
8.3043
 20
-2.1474
 30
0.0
 10
8.2969
 20
-2.1885
 30
0.0
 10
8.2969
 20
-2.1885
 30
0.0
 10
8.2969
 20
-2.1885
 30
0.0
 10
8.2928
 20
-2.1878
 30
0.0
 10
8.2928
 20
-2.1878
 30
0.0
 10
8.2928
 20
-2.1878
 30
0.0
 10
8.2862
 20
-2.2111
 30
0.0
 10
8.2862
 20
-2.2111
 30
0.0
 10
8.2534
 20
-2.3267
 30
0.0
 10
8.1746
 20
-2.4008
 30
0.0
 10
8.0495
 20
-2.4342
 30
0.0
 10
8.1387
 20
-2.527
 30
0.0
 10
8.1652
 20
-2.6372
 30
0.0
 10
8.1289
 20
-2.7652
 30
0.0
 10
8.1289
 20
-2.7652
 30
0.0
 10
8.1141
 20
-2.8171
 30
0.0
 10
8.1141
 20
-2.8171
 30
0.0
 10
8.1141
 20
-2.8171
 30
0.0
 10
8.1297
 20
-2.8232
 30
0.0
 10
8.1297
 20
-2.8232
 30
0.0
 10
8.1297
 20
-2.8232
 30
0.0
 10
8.0806
 20
-2.9477
 30
0.0
 10
8.0806
 20
-2.9477
 30
0.0
 10
8.3319
 20
-3.0703
 30
0.0
 10
8.4975
 20
-3.2155
 30
0.0
 10
8.5771
 20
-3.3834
 30
0.0
 10
8.589
 20
-3.4079
 30
0.0
 10
8.5889
 20
-3.435
 30
0.0
 10
8.5773
 20
-3.4644
 30
0.0
 10
8.5773
 20
-3.4644
 30
0.0
 10
8.3618
 20
-4.0109
 30
0.0
 10
8.3618
 20
-4.0109
 30
0.0
 10
8.3364
 20
-4.0754
 30
0.0
 10
8.2974
 20
-4.0973
 30
0.0
 10
8.2445
 20
-4.0764
 30
0.0
 10
8.2159
 20
-4.0651
 30
0.0
 10
8.2003
 20
-4.0429
 30
0.0
 10
8.1981
 20
-4.0098
 30
0.0
 10
8.1903
 20
-3.8909
 30
0.0
 10
8.17
 20
-3.7432
 30
0.0
 10
8.1375
 20
-3.5668
 30
0.0
 10
8.0931
 20
-3.3286
 30
0.0
 10
8.0478
 20
-3.1986
 30
0.0
 10
8.0017
 20
-3.1768
 30
0.0
 10
7.9398
 20
-3.3339
 30
0.0
 10
7.8902
 20
-3.4329
 30
0.0
 10
7.8525
 20
-3.4737
 30
0.0
 10
7.7712
 20
-3.5621
 30
0.0
 10
7.6556
 20
-3.5767
 30
0.0
 10
7.5068
 20
-3.518
 30
0.0
 10
7.3716
 20
-3.4647
 30
0.0
 10
7.2537
 20
-3.392
 30
0.0
 10
7.1528
 20
-3.3003
 30
0.0
 10
7.0134
 20
-3.1737
 30
0.0
 10
6.9677
 20
-3.0495
 30
0.0
 10
7.0155
 20
-2.9281
 30
0.0
 10
7.0824
 20
-2.7587
 30
0.0
 10
7.259
 20
-2.7001
 30
0.0
 10
7.5455
 20
-2.752
 30
0.0
 10
7.5455
 20
-2.752
 30
0.0
 10
7.5544
 20
-2.7296
 30
0.0
 10
7.5544
 20
-2.7296
 30
0.0
 10
7.5544
 20
-2.7296
 30
0.0
 10
7.5475
 20
-2.7276
 30
0.0
 10
7.5475
 20
-2.7276
 30
0.0
 10
7.5475
 20
-2.7276
 30
0.0
 10
7.5691
 20
-2.6515
 30
0.0
 10
7.5691
 20
-2.6515
 30
0.0
 10
7.5934
 20
-2.566
 30
0.0
 10
7.5849
 20
-2.4987
 30
0.0
 10
7.5435
 20
-2.4505
 30
0.0
 10
7.5335
 20
-2.4387
 30
0.0
 10
7.4916
 20
-2.4095
 30
0.0
 10
7.4165
 20
-2.3624
 30
0.0
 10
7.3698
 20
-2.3327
 30
0.0
 10
7.3522
 20
-2.2975
 30
0.0
 10
7.3636
 20
-2.2576
 30
0.0
 10
7.3746
 20
-2.2189
 30
0.0
 10
7.4072
 20
-2.2011
 30
0.0
 10
7.4613
 20
-2.2045
 30
0.0
 10
7.5449
 20
-2.2091
 30
0.0
 10
7.5956
 20
-2.2092
 30
0.0
 10
7.6133
 20
-2.2045
 30
0.0
 10
7.673
 20
-2.1886
 30
0.0
 10
7.7146
 20
-2.139
 30
0.0
 10
7.7383
 20
-2.0555
 30
0.0
 10
7.7383
 20
-2.0555
 30
0.0
 10
7.7486
 20
-2.0192
 30
0.0
 10
7.7486
 20
-2.0192
 30
0.0
 10
7.7486
 20
-2.0192
 30
0.0
 10
7.7502
 20
-2.0105
 30
0.0
 10
7.7502
 20
-2.0105
 30
0.0
 10
7.7658
 20
-1.923
 30
0.0
 10
7.7503
 20
-1.8568
 30
0.0
 10
7.7038
 20
-1.8128
 30
0.0
 10
7.6931
 20
-1.8022
 30
0.0
 10
7.6476
 20
-1.7772
 30
0.0
 10
7.5678
 20
-1.7377
 30
0.0
 10
7.518
 20
-1.7128
 30
0.0
 10
7.4966
 20
-1.6794
 30
0.0
 10
7.5039
 20
-1.6386
 30
0.0
 10
7.5109
 20
-1.599
 30
0.0
 10
7.542
 20
-1.5781
 30
0.0
 10
7.5967
 20
-1.5761
 30
0.0
 10
7.6807
 20
-1.5724
 30
0.0
 10
7.7316
 20
-1.5676
 30
0.0
 10
7.7488
 20
-1.5611
 30
0.0
 10
7.807
 20
-1.5394
 30
0.0
 10
7.8438
 20
-1.486
 30
0.0
 10
7.8591
 20
-1.4006
 30
0.0
 10
7.8591
 20
-1.4006
 30
0.0
 10
7.8761
 20
-1.3055
 30
0.0
 10
7.8761
 20
-1.3055
 30
0.0
 10
7.8761
 20
-1.3055
 30
0.0
 10
7.8875
 20
-1.3075
 30
0.0
 10
7.8875
 20
-1.3075
 30
0.0
 10
7.8826
 20
-1.2634
 30
0.0
 10
7.8608
 20
-1.2298
 30
0.0
 10
7.822
 20
-1.2071
 30
0.0
 10
7.7795
 20
-1.191
 30
0.0
 10
7.7365
 20
-1.1757
 30
0.0
 10
7.6935
 20
-1.1609
 30
0.0
 10
7.6388
 20
-1.1349
 30
0.0
 10
7.6129
 20
-1.1042
 30
0.0
 10
7.6156
 20
-1.0684
 30
0.0
 10
7.6188
 20
-1.0266
 30
0.0
 10
7.646
 20
-1.0012
 30
0.0
 10
7.6978
 20
-0.9914
 30
0.0
 10
7.7169
 20
-0.9881
 30
0.0
 10
7.7647
 20
-0.9798
 30
0.0
 10
7.8403
 20
-0.9671
 30
0.0
 10
7.8925
 20
-0.9509
 30
0.0
 10
7.9206
 20
-0.9149
 30
0.0
 10
7.9249
 20
-0.8582
 30
0.0
 10
7.9286
 20
-0.8095
 30
0.0
 10
7.9064
 20
-0.7744
 30
0.0
 10
7.8579
 20
-0.7523
 30
0.0
 10
7.8323
 20
-0.7448
 30
0.0
 10
7.7872
 20
-0.7293
 30
0.0
 10
7.722
 20
-0.7068
 30
0.0
 10
7.6731
 20
-0.6898
 30
0.0
 10
7.6505
 20
-0.6606
 30
0.0
 10
7.6536
 20
-0.6188
 30
0.0
 10
7.6567
 20
-0.5779
 30
0.0
 10
7.6834
 20
-0.5538
 30
0.0
 10
7.7342
 20
-0.5456
 30
0.0
 10
7.7607
 20
-0.5421
 30
0.0
 10
7.8075
 20
-0.5353
 30
0.0
 10
7.8751
 20
-0.5263
 30
0.0
 10
7.9263
 20
-0.5126
 30
0.0
 10
7.9535
 20
-0.4817
 30
0.0
 10
7.9572
 20
-0.4335
 30
0.0
 10
7.9609
 20
-0.3841
 30
0.0
 10
7.9392
 20
-0.349
 30
0.0
 10
7.8915
 20
-0.3277
 30
0.0
 10
7.8477
 20
-0.3163
 30
0.0
 10
7.802
 20
-0.3025
 30
0.0
 10
7.7552
 20
-0.2874
 30
0.0
 10
7.7079
 20
-0.2722
 30
0.0
 10
7.6862
 20
-0.2418
 30
0.0
 10
7.6896
 20
-0.197
 30
0.0
 10
7.6924
 20
-0.1595
 30
0.0
 10
7.7187
 20
-0.1354
 30
0.0
 10
7.7688
 20
-0.125
 30
0.0
 10
7.7866
 20
-0.1221
 30
0.0
 10
7.8335
 20
-0.1141
 30
0.0
 10
7.9087
 20
-0.1005
 30
0.0
 10
7.9366
 20
-0.0911
 30
0.0
 10
7.9574
 20
-0.0761
 30
0.0
 10
7.9711
 20
-0.0557
 30
0.0
 10
7.9711
 20
-0.0557
 30
0.0
 10
7.9619
 20
0.0524
 30
0.0
 10
7.9619
 20
0.0524
 30
0.0
 10
7.9475
 20
0.2241
 30
0.0
 10
7.9296
 20
0.3389
 30
0.0
 10
7.9088
 20
0.3976
 30
0.0
 10
7.9002
 20
0.4231
 30
0.0
 10
7.8847
 20
0.4347
 30
0.0
 10
7.8634
 20
0.4329
 30
0.0
 10
7.8506
 20
0.4318
 30
0.0
 10
7.8378
 20
0.4256
 30
0.0
 10
7.8245
 20
0.4146
 30
0.0
 10
7.764
 20
0.3648
 30
0.0
 10
7.7007
 20
0.296
 30
0.0
 10
7.6343
 20
0.2084
 30
0.0
 10
7.6011
 20
0.1644
 30
0.0
 10
7.5412
 20
0.0852
 30
0.0
 10
7.4544
 20
-0.0294
 30
0.0
 10
7.4544
 20
-0.0294
 30
0.0
 10
7.0467
 20
0.0065
 30
0.0
 10
7.0467
 20
0.0065
 30
0.0
 10
7.0281
 20
0.008
 30
0.0
 10
7.0154
 20
0.0159
 30
0.0
 10
7.0096
 20
0.0296
 30
0.0
 10
7.0096
 20
0.0296
 30
0.0
 10
6.608
 20
0.9702
 30
0.0
 10
6.608
 20
0.9702
 30
0.0
 10
6.6052
 20
0.9772
 30
0.0
 10
6.6039
 20
0.9827
 30
0.0
 10
6.6036
 20
0.9861
 30
0.0
 10
6.6033
 20
0.99
 30
0.0
 10
6.6126
 20
0.992
 30
0.0
 10
6.6319
 20
0.9919
 30
0.0
 10
6.6319
 20
0.9919
 30
0.0
 10
6.8526
 20
0.9869
 30
0.0
 10
6.8526
 20
0.9869
 30
0.0
 10
6.843
 20
0.9888
 30
0.0
 10
6.8346
 20
0.9926
 30
0.0
 10
6.8273
 20
0.9984
 30
0.0
 10
6.8273
 20
0.9984
 30
0.0
 10
6.5059
 20
1.3069
 30
0.0
 10
6.5059
 20
1.3069
 30
0.0
 10
6.4839
 20
1.3283
 30
0.0
 10
6.4719
 20
1.3434
 30
0.0
 10
6.4702
 20
1.3522
 30
0.0
 10
6.4681
 20
1.3627
 30
0.0
 10
6.4767
 20
1.3701
 30
0.0
 10
6.4965
 20
1.3739
 30
0.0
 10
6.4965
 20
1.3739
 30
0.0
 10
7.5821
 20
1.5836
 30
0.0
 10
7.5821
 20
1.5836
 30
0.0
 10
7.6823
 20
1.603
 30
0.0
 10
7.7334
 20
1.6516
 30
0.0
 10
7.7354
 20
1.7292
 30
0.0
 10
7.7354
 20
1.7292
 30
0.0
 10
7.6673
 20
1.979
 30
0.0
 10
7.6673
 20
1.979
 30
0.0
 10
7.6543
 20
2.0265
 30
0.0
 10
7.6346
 20
2.0468
 30
0.0
 10
7.6078
 20
2.0395
 30
0.0
 10
7.5942
 20
2.0357
 30
0.0
 10
7.5804
 20
2.0245
 30
0.0
 10
7.5664
 20
2.006
 30
0.0
 10
7.5157
 20
1.9385
 30
0.0
 10
7.4656
 20
1.8557
 30
0.0
 10
7.4169
 20
1.7578
 30
0.0
 10
7.4089
 20
1.7432
 30
0.0
 10
7.3945
 20
1.7393
 30
0.0
 10
7.3736
 20
1.746
 30
0.0
 10
7.3736
 20
1.746
 30
0.0
 10
6.9855
 20
1.8821
 30
0.0
 10
6.9855
 20
1.8821
 30
0.0
 10
6.9644
 20
1.8896
 30
0.0
 10
6.9533
 20
1.8959
 30
0.0
 10
6.9518
 20
1.9017
 30
0.0
 10
6.9498
 20
1.9087
 30
0.0
 10
6.9553
 20
1.9213
 30
0.0
 10
6.9679
 20
1.9385
 30
0.0
 10
7.0882
 20
2.1065
 30
0.0
 10
7.2628
 20
2.2219
 30
0.0
 10
7.4918
 20
2.2844
 30
0.0
  0
SPLINE
  5
76
330
1F
100
AcDbEntity
  8
Layer 1
 62
     2
100
AcDbSpline
210
0.0
220
0.0
230
1.0
 70
    11
 71
     3
 72
    29
 73
    25
 74
     0
 42
0.0000000001
 43
0.0000000001
 40
0.0
 40
0.0
 40
0.0
 40
0.0
 40
0.125
 40
0.125
 40
0.125
 40
0.25
 40
0.25
 40
0.25
 40
0.375
 40
0.375
 40
0.375
 40
0.5
 40
0.5
 40
0.5
 40
0.625
 40
0.625
 40
0.625
 40
0.75
 40
0.75
 40
0.75
 40
0.875
 40
0.875
 40
0.875
 40
1.0
 40
1.0
 40
1.0
 40
1.0
 10
8.5016
 20
2.4654
 30
0.0
 10
8.5082
 20
2.4805
 30
0.0
 10
8.5198
 20
2.4833
 30
0.0
 10
8.537
 20
2.4738
 30
0.0
 10
8.537
 20
2.4738
 30
0.0
 10
8.7428
 20
2.3548
 30
0.0
 10
8.7428
 20
2.3548
 30
0.0
 10
8.7571
 20
2.3463
 30
0.0
 10
8.7602
 20
2.3348
 30
0.0
 10
8.7523
 20
2.3198
 30
0.0
 10
8.7523
 20
2.3198
 30
0.0
 10
8.638
 20
2.1118
 30
0.0
 10
8.638
 20
2.1118
 30
0.0
 10
8.6289
 20
2.0946
 30
0.0
 10
8.6138
 20
2.0918
 30
0.0
 10
8.5934
 20
2.1031
 30
0.0
 10
8.5934
 20
2.1031
 30
0.0
 10
8.4003
 20
2.2149
 30
0.0
 10
8.4003
 20
2.2149
 30
0.0
 10
8.3821
 20
2.2245
 30
0.0
 10
8.3776
 20
2.2379
 30
0.0
 10
8.3864
 20
2.2558
 30
0.0
 10
8.3864
 20
2.2558
 30
0.0
 10
8.5016
 20
2.4654
 30
0.0
 10
8.5016
 20
2.4654
 30
0.0
  0
SPLINE
  5
77
330
1F
100
AcDbEntity
  8
Layer 1
 62
     2
100
AcDbSpline
210
0.0
220
0.0
230
1.0
 70
    11
 71
     3
 72
    47
 73
    43
 74
     0
 42
0.0000000001
 43
0.0000000001
 40
0.0
 40
0.0
 40
0.0
 40
0.0
 40
0.0714285714285714
 40
0.0714285714285714
 40
0.0714285714285714
 40
0.1428571428571428
 40
0.1428571428571428
 40
0.1428571428571428
 40
0.2142857142857143
 40
0.2142857142857143
 40
0.2142857142857143
 40
0.2857142857142857
 40
0.2857142857142857
 40
0.2857142857142857
 40
0.3571428571428571
 40
0.3571428571428571
 40
0.3571428571428571
 40
0.4285714285714285
 40
0.4285714285714285
 40
0.4285714285714285
 40
0.5
 40
0.5
 40
0.5
 40
0.5714285714285714
 40
0.5714285714285714
 40
0.5714285714285714
 40
0.6428571428571428
 40
0.6428571428571428
 40
0.6428571428571428
 40
0.7142857142857142
 40
0.7142857142857142
 40
0.7142857142857142
 40
0.7857142857142857
 40
0.7857142857142857
 40
0.7857142857142857
 40
0.8571428571428571
 40
0.8571428571428571
 40
0.8571428571428571
 40
0.9285714285714285
 40
0.9285714285714285
 40
0.9285714285714285
 40
1.0
 40
1.0
 40
1.0
 40
1.0
 10
8.7842
 20
-1.5493
 30
0.0
 10
8.7951
 20
-1.5391
 30
0.0
 10
8.8052
 20
-1.5413
 30
0.0
 10
8.8148
 20
-1.5556
 30
0.0
 10
8.8148
 20
-1.5556
 30
0.0
 10
8.9317
 20
-1.7281
 30
0.0
 10
8.9317
 20
-1.7281
 30
0.0
 10
8.9403
 20
-1.7405
 30
0.0
 10
8.9384
 20
-1.751
 30
0.0
 10
8.9259
 20
-1.7601
 30
0.0
 10
8.9259
 20
-1.7601
 30
0.0
 10
8.7679
 20
-1.8743
 30
0.0
 10
8.7679
 20
-1.8743
 30
0.0
 10
8.7679
 20
-1.8743
 30
0.0
 10
8.8771
 20
-2.0337
 30
0.0
 10
8.8771
 20
-2.0337
 30
0.0
 10
8.8857
 20
-2.0465
 30
0.0
 10
8.8838
 20
-2.057
 30
0.0
 10
8.8714
 20
-2.0657
 30
0.0
 10
8.8714
 20
-2.0657
 30
0.0
 10
8.7033
 20
-2.1872
 30
0.0
 10
8.7033
 20
-2.1872
 30
0.0
 10
8.6893
 20
-2.1973
 30
0.0
 10
8.6764
 20
-2.1941
 30
0.0
 10
8.6639
 20
-2.1767
 30
0.0
 10
8.6639
 20
-2.1767
 30
0.0
 10
8.5513
 20
-2.0167
 30
0.0
 10
8.5513
 20
-2.0167
 30
0.0
 10
8.5409
 20
-2.0019
 30
0.0
 10
8.5432
 20
-1.9892
 30
0.0
 10
8.5581
 20
-1.9789
 30
0.0
 10
8.5581
 20
-1.9789
 30
0.0
 10
8.7152
 20
-1.8653
 30
0.0
 10
8.7152
 20
-1.8653
 30
0.0
 10
8.7152
 20
-1.8653
 30
0.0
 10
8.6064
 20
-1.7104
 30
0.0
 10
8.6064
 20
-1.7104
 30
0.0
 10
8.5964
 20
-1.696
 30
0.0
 10
8.5987
 20
-1.6834
 30
0.0
 10
8.6132
 20
-1.6725
 30
0.0
 10
8.6132
 20
-1.6725
 30
0.0
 10
8.7842
 20
-1.5493
 30
0.0
 10
8.7842
 20
-1.5493
 30
0.0
  0
SPLINE
  5
78
330
1F
100
AcDbEntity
  8
Layer 1
 62
     2
100
AcDbSpline
210
0.0
220
0.0
230
1.0
 70
    11
 71
     3
 72
    29
 73
    25
 74
     0
 42
0.0000000001
 43
0.0000000001
 40
0.0
 40
0.0
 40
0.0
 40
0.0
 40
0.125
 40
0.125
 40
0.125
 40
0.25
 40
0.25
 40
0.25
 40
0.375
 40
0.375
 40
0.375
 40
0.5
 40
0.5
 40
0.5
 40
0.625
 40
0.625
 40
0.625
 40
0.75
 40
0.75
 40
0.75
 40
0.875
 40
0.875
 40
0.875
 40
1.0
 40
1.0
 40
1.0
 40
1.0
 10
6.9217
 20
-1.9588
 30
0.0
 10
6.9346
 20
-1.9509
 30
0.0
 10
6.9454
 20
-1.9553
 30
0.0
 10
6.9532
 20
-1.9717
 30
0.0
 10
6.9532
 20
-1.9717
 30
0.0
 10
7.0715
 20
-2.1764
 30
0.0
 10
7.0715
 20
-2.1764
 30
0.0
 10
7.0795
 20
-2.192
 30
0.0
 10
7.076
 20
-2.2044
 30
0.0
 10
7.0606
 20
-2.2133
 30
0.0
 10
7.0606
 20
-2.2133
 30
0.0
 10
6.8534
 20
-2.3309
 30
0.0
 10
6.8534
 20
-2.3309
 30
0.0
 10
6.8381
 20
-2.3395
 30
0.0
 10
6.8248
 20
-2.3344
 30
0.0
 10
6.8139
 20
-2.3149
 30
0.0
 10
6.8139
 20
-2.3149
 30
0.0
 10
6.7012
 20
-2.1202
 30
0.0
 10
6.7012
 20
-2.1202
 30
0.0
 10
6.6921
 20
-2.1038
 30
0.0
 10
6.6959
 20
-2.0902
 30
0.0
 10
6.7125
 20
-2.0803
 30
0.0
 10
6.7125
 20
-2.0803
 30
0.0
 10
6.9217
 20
-1.9588
 30
0.0
 10
6.9217
 20
-1.9588
 30
0.0
  0
SPLINE
  5
79
330
1F
100
AcDbEntity
  8
Layer 1
 62
     2
100
AcDbSpline
210
0.0
220
0.0
230
1.0
 70
    11
 71
     3
 72
    20
 73
    16
 74
     0
 42
0.0000000001
 43
0.0000000001
 40
0.0
 40
0.0
 40
0.0
 40
0.0
 40
0.2
 40
0.2
 40
0.2
 40
0.4
 40
0.4
 40
0.4
 40
0.6000000000000001
 40
0.6000000000000001
 40
0.6000000000000001
 40
0.8
 40
0.8
 40
0.8
 40
1.0
 40
1.0
 40
1.0
 40
1.0
 10
7.5549
 20
-3.0185
 30
0.0
 10
7.5302
 20
-3.0088
 30
0.0
 10
7.4995
 20
-3.0178
 30
0.0
 10
7.463
 20
-3.0453
 30
0.0
 10
7.4291
 20
-3.0705
 30
0.0
 10
7.407
 20
-3.0963
 30
0.0
 10
7.3967
 20
-3.1225
 30
0.0
 10
7.3686
 20
-3.1937
 30
0.0
 10
7.3813
 20
-3.2396
 30
0.0
 10
7.4342
 20
-3.2605
 30
0.0
 10
7.4632
 20
-3.2719
 30
0.0
 10
7.4952
 20
-3.234
 30
0.0
 10
7.5297
 20
-3.1465
 30
0.0
 10
7.5611
 20
-3.0669
 30
0.0
 10
7.5692
 20
-3.0242
 30
0.0
 10
7.5549
 20
-3.0185
 30
0.0
  0
SPLINE
  5
7A
330
1F
100
AcDbEntity
  8
Layer 1
 62
     2
100
AcDbSpline
210
0.0
220
0.0
230
1.0
 70
    11
 71
     3
 72
   113
 73
   109
 74
     0
 42
0.0000000001
 43
0.0000000001
 40
0.0
 40
0.0
 40
0.0
 40
0.0
 40
0.0277777777777778
 40
0.0277777777777778
 40
0.0277777777777778
 40
0.0555555555555556
 40
0.0555555555555556
 40
0.0555555555555556
 40
0.0833333333333333
 40
0.0833333333333333
 40
0.0833333333333333
 40
0.1111111111111111
 40
0.1111111111111111
 40
0.1111111111111111
 40
0.1388888888888889
 40
0.1388888888888889
 40
0.1388888888888889
 40
0.1666666666666667
 40
0.1666666666666667
 40
0.1666666666666667
 40
0.1944444444444444
 40
0.1944444444444444
 40
0.1944444444444444
 40
0.2222222222222222
 40
0.2222222222222222
 40
0.2222222222222222
 40
0.25
 40
0.25
 40
0.25
 40
0.2777777777777778
 40
0.2777777777777778
 40
0.2777777777777778
 40
0.3055555555555555
 40
0.3055555555555555
 40
0.3055555555555555
 40
0.3333333333333333
 40
0.3333333333333333
 40
0.3333333333333333
 40
0.3611111111111111
 40
0.3611111111111111
 40
0.3611111111111111
 40
0.3888888888888888
 40
0.3888888888888888
 40
0.3888888888888888
 40
0.4166666666666666
 40
0.4166666666666666
 40
0.4166666666666666
 40
0.4444444444444444
 40
0.4444444444444444
 40
0.4444444444444444
 40
0.4722222222222222
 40
0.4722222222222222
 40
0.4722222222222222
 40
0.5
 40
0.5
 40
0.5
 40
0.5277777777777778
 40
0.5277777777777778
 40
0.5277777777777778
 40
0.5555555555555556
 40
0.5555555555555556
 40
0.5555555555555556
 40
0.5833333333333333
 40
0.5833333333333333
 40
0.5833333333333333
 40
0.611111111111111
 40
0.611111111111111
 40
0.611111111111111
 40
0.6388888888888888
 40
0.6388888888888888
 40
0.6388888888888888
 40
0.6666666666666666
 40
0.6666666666666666
 40
0.6666666666666666
 40
0.6944444444444444
 40
0.6944444444444444
 40
0.6944444444444444
 40
0.7222222222222222
 40
0.7222222222222222
 40
0.7222222222222222
 40
0.75
 40
0.75
 40
0.75
 40
0.7777777777777777
 40
0.7777777777777777
 40
0.7777777777777777
 40
0.8055555555555555
 40
0.8055555555555555
 40
0.8055555555555555
 40
0.8333333333333333
 40
0.8333333333333333
 40
0.8333333333333333
 40
0.861111111111111
 40
0.861111111111111
 40
0.861111111111111
 40
0.8888888888888888
 40
0.8888888888888888
 40
0.8888888888888888
 40
0.9166666666666666
 40
0.9166666666666666
 40
0.9166666666666666
 40
0.9444444444444444
 40
0.9444444444444444
 40
0.9444444444444444
 40
0.9722222222222222
 40
0.9722222222222222
 40
0.9722222222222222
 40
1.0
 40
1.0
 40
1.0
 40
1.0
 10
6.7176
 20
-3.9368
 30
0.0
 10
6.8774
 20
-4.0393
 30
0.0
 10
6.9857
 20
-4.196
 30
0.0
 10
7.0431
 20
-4.4075
 30
0.0
 10
7.1235
 20
-4.7019
 30
0.0
 10
7.0551
 20
-5.0186
 30
0.0
 10
6.8377
 20
-5.3577
 30
0.0
 10
6.8377
 20
-5.3577
 30
0.0
 10
6.6065
 20
-5.7184
 30
0.0
 10
6.6065
 20
-5.7184
 30
0.0
 10
6.6065
 20
-5.7184
 30
0.0
 10
6.5837
 20
-5.7038
 30
0.0
 10
6.5837
 20
-5.7038
 30
0.0
 10
6.5837
 20
-5.7038
 30
0.0
 10
6.583
 20
-5.7045
 30
0.0
 10
6.583
 20
-5.7045
 30
0.0
 10
6.5594
 20
-5.7293
 30
0.0
 10
6.5308
 20
-5.7451
 30
0.0
 10
6.4974
 20
-5.751
 30
0.0
 10
6.4974
 20
-5.751
 30
0.0
 10
6.5769
 20
-5.8268
 30
0.0
 10
6.5769
 20
-5.8268
 30
0.0
 10
6.6434
 20
-5.8903
 30
0.0
 10
6.6997
 20
-5.9794
 30
0.0
 10
6.7469
 20
-6.0947
 30
0.0
 10
6.7883
 20
-6.195
 30
0.0
 10
6.811
 20
-6.284
 30
0.0
 10
6.8159
 20
-6.3613
 30
0.0
 10
6.8177
 20
-6.3885
 30
0.0
 10
6.8074
 20
-6.4135
 30
0.0
 10
6.7847
 20
-6.4373
 30
0.0
 10
6.7847
 20
-6.4373
 30
0.0
 10
6.379
 20
-6.8628
 30
0.0
 10
6.379
 20
-6.8628
 30
0.0
 10
6.3312
 20
-6.913
 30
0.0
 10
6.2869
 20
-6.9186
 30
0.0
 10
6.2457
 20
-6.8793
 30
0.0
 10
6.2235
 20
-6.8581
 30
0.0
 10
6.2171
 20
-6.8319
 30
0.0
 10
6.2272
 20
-6.8008
 30
0.0
 10
6.2653
 20
-6.6847
 30
0.0
 10
6.3
 20
-6.5293
 30
0.0
 10
6.332
 20
-6.3353
 30
0.0
 10
6.3734
 20
-6.0836
 30
0.0
 10
6.3723
 20
-5.9367
 30
0.0
 10
6.3281
 20
-5.8945
 30
0.0
 10
6.2919
 20
-5.8599
 30
0.0
 10
6.1453
 20
-5.8507
 30
0.0
 10
5.888
 20
-5.8666
 30
0.0
 10
5.888
 20
-5.8666
 30
0.0
 10
5.7274
 20
-5.4364
 30
0.0
 10
5.7274
 20
-5.4364
 30
0.0
 10
5.7177
 20
-5.41
 30
0.0
 10
5.7262
 20
-5.3968
 30
0.0
 10
5.7531
 20
-5.3965
 30
0.0
 10
5.8677
 20
-5.3965
 30
0.0
 10
5.9445
 20
-5.3934
 30
0.0
 10
5.9836
 20
-5.3876
 30
0.0
 10
6.0719
 20
-5.375
 30
0.0
 10
6.1399
 20
-5.344
 30
0.0
 10
6.1871
 20
-5.2945
 30
0.0
 10
6.1871
 20
-5.2945
 30
0.0
 10
6.2183
 20
-5.2617
 30
0.0
 10
6.2183
 20
-5.2617
 30
0.0
 10
6.2183
 20
-5.2617
 30
0.0
 10
6.2211
 20
-5.2643
 30
0.0
 10
6.2211
 20
-5.2643
 30
0.0
 10
6.2211
 20
-5.2643
 30
0.0
 10
6.2689
 20
-5.1896
 30
0.0
 10
6.2689
 20
-5.1896
 30
0.0
 10
5.9306
 20
-4.9727
 30
0.0
 10
5.6093
 20
-4.844
 30
0.0
 10
5.3053
 20
-4.804
 30
0.0
 10
5.3053
 20
-4.804
 30
0.0
 10
5.2429
 20
-4.3785
 30
0.0
 10
5.2429
 20
-4.3785
 30
0.0
 10
5.2374
 20
-4.3404
 30
0.0
 10
5.2371
 20
-4.3179
 30
0.0
 10
5.2417
 20
-4.3107
 30
0.0
 10
5.247
 20
-4.3024
 30
0.0
 10
5.2706
 20
-4.3012
 30
0.0
 10
5.3127
 20
-4.3069
 30
0.0
 10
5.3127
 20
-4.3069
 30
0.0
 10
5.7724
 20
-4.3756
 30
0.0
 10
5.7724
 20
-4.3756
 30
0.0
 10
5.8067
 20
-4.3808
 30
0.0
 10
5.8286
 20
-4.3862
 30
0.0
 10
5.8376
 20
-4.392
 30
0.0
 10
5.8462
 20
-4.3975
 30
0.0
 10
5.8457
 20
-4.4079
 30
0.0
 10
5.8363
 20
-4.4226
 30
0.0
 10
5.8259
 20
-4.4388
 30
0.0
 10
5.8043
 20
-4.4606
 30
0.0
 10
5.7717
 20
-4.4884
 30
0.0
 10
5.8116
 20
-4.5079
 30
0.0
 10
5.8511
 20
-4.5302
 30
0.0
 10
5.8896
 20
-4.5549
 30
0.0
 10
6.0444
 20
-4.6541
 30
0.0
 10
6.1769
 20
-4.7817
 30
0.0
 10
6.2872
 20
-4.9377
 30
0.0
 10
6.1667
 20
-4.5014
 30
0.0
 10
6.1638
 20
-4.1938
 30
0.0
 10
6.2782
 20
-4.0153
 30
0.0
 10
6.3283
 20
-3.9371
 30
0.0
 10
6.3951
 20
-3.8916
 30
0.0
 10
6.479
 20
-3.8788
 30
0.0
 10
6.5586
 20
-3.8663
 30
0.0
 10
6.638
 20
-3.8858
 30
0.0
 10
6.7176
 20
-3.9368
 30
0.0
  0
SPLINE
  5
7B
330
1F
100
AcDbEntity
  8
Layer 1
 62
     2
100
AcDbSpline
210
0.0
220
0.0
230
1.0
 70
    11
 71
     3
 72
    20
 73
    16
 74
     0
 42
0.0000000001
 43
0.0000000001
 40
0.0
 40
0.0
 40
0.0
 40
0.0
 40
0.2
 40
0.2
 40
0.2
 40
0.4
 40
0.4
 40
0.4
 40
0.6000000000000001
 40
0.6000000000000001
 40
0.6000000000000001
 40
0.8
 40
0.8
 40
0.8
 40
1.0
 40
1.0
 40
1.0
 40
1.0
 10
6.6785
 20
-4.3567
 30
0.0
 10
6.5975
 20
-4.3047
 30
0.0
 10
6.5263
 20
-4.3271
 30
0.0
 10
6.4644
 20
-4.4236
 30
0.0
 10
6.4042
 20
-4.5175
 30
0.0
 10
6.3995
 20
-4.6857
 30
0.0
 10
6.4507
 20
-4.9283
 30
0.0
 10
6.4729
 20
-4.8968
 30
0.0
 10
6.4939
 20
-4.8656
 30
0.0
 10
6.5138
 20
-4.8346
 30
0.0
 10
6.5955
 20
-4.7072
 30
0.0
 10
6.65
 20
-4.5959
 30
0.0
 10
6.6774
 20
-4.5002
 30
0.0
 10
6.7009
 20
-4.4192
 30
0.0
 10
6.7012
 20
-4.3712
 30
0.0
 10
6.6785
 20
-4.3567
 30
0.0
  0
SPLINE
  5
7C
330
1F
100
AcDbEntity
  8
Layer 1
 62
     2
100
AcDbSpline
210
0.0
220
0.0
230
1.0
 70
    11
 71
     3
 72
   149
 73
   145
 74
     0
 42
0.0000000001
 43
0.0000000001
 40
0.0
 40
0.0
 40
0.0
 40
0.0
 40
0.0208333333333333
 40
0.0208333333333333
 40
0.0208333333333333
 40
0.0416666666666667
 40
0.0416666666666667
 40
0.0416666666666667
 40
0.0625
 40
0.0625
 40
0.0625
 40
0.0833333333333333
 40
0.0833333333333333
 40
0.0833333333333333
 40
0.1041666666666667
 40
0.1041666666666667
 40
0.1041666666666667
 40
0.125
 40
0.125
 40
0.125
 40
0.1458333333333333
 40
0.1458333333333333
 40
0.1458333333333333
 40
0.1666666666666667
 40
0.1666666666666667
 40
0.1666666666666667
 40
0.1875
 40
0.1875
 40
0.1875
 40
0.2083333333333333
 40
0.2083333333333333
 40
0.2083333333333333
 40
0.2291666666666667
 40
0.2291666666666667
 40
0.2291666666666667
 40
0.25
 40
0.25
 40
0.25
 40
0.2708333333333333
 40
0.2708333333333333
 40
0.2708333333333333
 40
0.2916666666666666
 40
0.2916666666666666
 40
0.2916666666666666
 40
0.3125
 40
0.3125
 40
0.3125
 40
0.3333333333333333
 40
0.3333333333333333
 40
0.3333333333333333
 40
0.3541666666666666
 40
0.3541666666666666
 40
0.3541666666666666
 40
0.375
 40
0.375
 40
0.375
 40
0.3958333333333333
 40
0.3958333333333333
 40
0.3958333333333333
 40
0.4166666666666666
 40
0.4166666666666666
 40
0.4166666666666666
 40
0.4375
 40
0.4375
 40
0.4375
 40
0.4583333333333333
 40
0.4583333333333333
 40
0.4583333333333333
 40
0.4791666666666666
 40
0.4791666666666666
 40
0.4791666666666666
 40
0.5
 40
0.5
 40
0.5
 40
0.5208333333333333
 40
0.5208333333333333
 40
0.5208333333333333
 40
0.5416666666666666
 40
0.5416666666666666
 40
0.5416666666666666
 40
0.5625
 40
0.5625
 40
0.5625
 40
0.5833333333333333
 40
0.5833333333333333
 40
0.5833333333333333
 40
0.6041666666666666
 40
0.6041666666666666
 40
0.6041666666666666
 40
0.625
 40
0.625
 40
0.625
 40
0.6458333333333333
 40
0.6458333333333333
 40
0.6458333333333333
 40
0.6666666666666666
 40
0.6666666666666666
 40
0.6666666666666666
 40
0.6875
 40
0.6875
 40
0.6875
 40
0.7083333333333333
 40
0.7083333333333333
 40
0.7083333333333333
 40
0.7291666666666666
 40
0.7291666666666666
 40
0.7291666666666666
 40
0.75
 40
0.75
 40
0.75
 40
0.7708333333333333
 40
0.7708333333333333
 40
0.7708333333333333
 40
0.7916666666666666
 40
0.7916666666666666
 40
0.7916666666666666
 40
0.8125
 40
0.8125
 40
0.8125
 40
0.8333333333333333
 40
0.8333333333333333
 40
0.8333333333333333
 40
0.8541666666666666
 40
0.8541666666666666
 40
0.8541666666666666
 40
0.875
 40
0.875
 40
0.875
 40
0.8958333333333333
 40
0.8958333333333333
 40
0.8958333333333333
 40
0.9166666666666666
 40
0.9166666666666666
 40
0.9166666666666666
 40
0.9375
 40
0.9375
 40
0.9375
 40
0.9583333333333333
 40
0.9583333333333333
 40
0.9583333333333333
 40
0.9791666666666666
 40
0.9791666666666666
 40
0.9791666666666666
 40
1.0
 40
1.0
 40
1.0
 40
1.0
 10
5.2828
 20
-5.9761
 30
0.0
 10
5.2828
 20
-5.9761
 30
0.0
 10
5.3796
 20
-6.3297
 30
0.0
 10
5.3796
 20
-6.3297
 30
0.0
 10
5.2714
 20
-6.4114
 30
0.0
 10
5.1979
 20
-6.4915
 30
0.0
 10
5.1589
 20
-6.57
 30
0.0
 10
5.1321
 20
-6.6237
 30
0.0
 10
5.1052
 20
-6.7106
 30
0.0
 10
5.0778
 20
-6.8301
 30
0.0
 10
5.0501
 20
-6.9492
 30
0.0
 10
5.0229
 20
-7.0363
 30
0.0
 10
4.9947
 20
-7.0911
 30
0.0
 10
4.9351
 20
-7.207
 30
0.0
 10
4.8482
 20
-7.3101
 30
0.0
 10
4.7339
 20
-7.4
 30
0.0
 10
4.7339
 20
-7.4
 30
0.0
 10
4.6073
 20
-7.4994
 30
0.0
 10
4.6073
 20
-7.4994
 30
0.0
 10
4.6073
 20
-7.4994
 30
0.0
 10
4.6194
 20
-7.5232
 30
0.0
 10
4.6194
 20
-7.5232
 30
0.0
 10
4.6194
 20
-7.5232
 30
0.0
 10
4.5506
 20
-7.5585
 30
0.0
 10
4.5506
 20
-7.5585
 30
0.0
 10
4.5273
 20
-7.5703
 30
0.0
 10
4.4916
 20
-7.5661
 30
0.0
 10
4.4428
 20
-7.5459
 30
0.0
 10
4.3806
 20
-7.5201
 30
0.0
 10
4.3235
 20
-7.5071
 30
0.0
 10
4.2713
 20
-7.5074
 30
0.0
 10
4.1806
 20
-7.5087
 30
0.0
 10
4.0737
 20
-7.5409
 30
0.0
 10
3.9504
 20
-7.604
 30
0.0
 10
3.8792
 20
-7.6405
 30
0.0
 10
3.8243
 20
-7.6787
 30
0.0
 10
3.7866
 20
-7.7186
 30
0.0
 10
3.7641
 20
-7.7422
 30
0.0
 10
3.7553
 20
-7.7587
 30
0.0
 10
3.7601
 20
-7.7682
 30
0.0
 10
3.7693
 20
-7.7861
 30
0.0
 10
3.816
 20
-7.7732
 30
0.0
 10
3.9001
 20
-7.7302
 30
0.0
 10
4.0364
 20
-7.6604
 30
0.0
 10
4.1335
 20
-7.6203
 30
0.0
 10
4.1917
 20
-7.6092
 30
0.0
 10
4.3089
 20
-7.5866
 30
0.0
 10
4.3937
 20
-7.6263
 30
0.0
 10
4.4463
 20
-7.7291
 30
0.0
 10
4.6094
 20
-8.0476
 30
0.0
 10
4.4323
 20
-8.3396
 30
0.0
 10
3.9147
 20
-8.6047
 30
0.0
 10
3.6194
 20
-8.756
 30
0.0
 10
3.3826
 20
-8.7888
 30
0.0
 10
3.2041
 20
-8.703
 30
0.0
 10
3.1017
 20
-8.6531
 30
0.0
 10
3.013
 20
-8.5549
 30
0.0
 10
2.9376
 20
-8.4076
 30
0.0
 10
2.8859
 20
-8.3068
 30
0.0
 10
2.8524
 20
-8.1899
 30
0.0
 10
2.8368
 20
-8.0571
 30
0.0
 10
2.8202
 20
-7.9167
 30
0.0
 10
2.8352
 20
-7.8346
 30
0.0
 10
2.8824
 20
-7.8104
 30
0.0
 10
2.941
 20
-7.7804
 30
0.0
 10
2.9873
 20
-7.7985
 30
0.0
 10
3.0212
 20
-7.8647
 30
0.0
 10
3.0329
 20
-7.8875
 30
0.0
 10
3.0468
 20
-7.9232
 30
0.0
 10
3.0624
 20
-7.9714
 30
0.0
 10
3.0782
 20
-8.02
 30
0.0
 10
3.0915
 20
-8.0554
 30
0.0
 10
3.1034
 20
-8.0787
 30
0.0
 10
3.2116
 20
-8.2899
 30
0.0
 10
3.4486
 20
-8.3015
 30
0.0
 10
3.8147
 20
-8.114
 30
0.0
 10
4.0092
 20
-8.0144
 30
0.0
 10
4.1535
 20
-7.9266
 30
0.0
 10
4.2474
 20
-7.8502
 30
0.0
 10
4.2821
 20
-7.8223
 30
0.0
 10
4.2963
 20
-7.8021
 30
0.0
 10
4.2899
 20
-7.7895
 30
0.0
 10
4.2836
 20
-7.7773
 30
0.0
 10
4.2605
 20
-7.78
 30
0.0
 10
4.2201
 20
-7.7969
 30
0.0
 10
4.15
 20
-7.8251
 30
0.0
 10
4.0792
 20
-7.8575
 30
0.0
 10
4.0069
 20
-7.8945
 30
0.0
 10
3.8965
 20
-7.9511
 30
0.0
 10
3.8163
 20
-7.983
 30
0.0
 10
3.7663
 20
-7.9913
 30
0.0
 10
3.6817
 20
-8.0044
 30
0.0
 10
3.621
 20
-7.975
 30
0.0
 10
3.5838
 20
-7.9023
 30
0.0
 10
3.5058
 20
-7.7501
 30
0.0
 10
3.5597
 20
-7.586
 30
0.0
 10
3.7452
 20
-7.4098
 30
0.0
 10
3.861
 20
-7.2997
 30
0.0
 10
4.014
 20
-7.1949
 30
0.0
 10
4.2037
 20
-7.0963
 30
0.0
 10
4.2037
 20
-7.0963
 30
0.0
 10
4.2018
 20
-7.0938
 30
0.0
 10
4.2018
 20
-7.0938
 30
0.0
 10
4.2018
 20
-7.0938
 30
0.0
 10
4.4273
 20
-6.9165
 30
0.0
 10
4.4273
 20
-6.9165
 30
0.0
 10
4.6301
 20
-6.7572
 30
0.0
 10
4.7658
 20
-6.6206
 30
0.0
 10
4.8342
 20
-6.5076
 30
0.0
 10
4.8342
 20
-6.5076
 30
0.0
 10
4.5737
 20
-6.5796
 30
0.0
 10
4.5737
 20
-6.5796
 30
0.0
 10
4.4839
 20
-6.6045
 30
0.0
 10
4.4231
 20
-6.6294
 30
0.0
 10
4.3915
 20
-6.6543
 30
0.0
 10
4.3639
 20
-6.6759
 30
0.0
 10
4.3401
 20
-6.7169
 30
0.0
 10
4.3201
 20
-6.7773
 30
0.0
 10
4.3001
 20
-6.8376
 30
0.0
 10
4.286
 20
-6.8709
 30
0.0
 10
4.2773
 20
-6.8778
 30
0.0
 10
4.24
 20
-6.9071
 30
0.0
 10
4.204
 20
-6.9001
 30
0.0
 10
4.1699
 20
-6.8567
 30
0.0
 10
4.1324
 20
-6.809
 30
0.0
 10
4.1106
 20
-6.7162
 30
0.0
 10
4.105
 20
-6.5797
 30
0.0
 10
4.0982
 20
-6.4084
 30
0.0
 10
4.1421
 20
-6.2858
 30
0.0
 10
4.2366
 20
-6.2115
 30
0.0
 10
4.3028
 20
-6.1595
 30
0.0
 10
4.4101
 20
-6.1258
 30
0.0
 10
4.5584
 20
-6.1103
 30
0.0
 10
4.7487
 20
-6.0902
 30
0.0
 10
4.8782
 20
-6.0689
 30
0.0
 10
4.9464
 20
-6.0463
 30
0.0
 10
5.0036
 20
-6.027
 30
0.0
 10
5.0926
 20
-5.988
 30
0.0
 10
5.2147
 20
-5.9296
 30
0.0
 10
5.2383
 20
-5.9181
 30
0.0
 10
5.2553
 20
-5.9183
 30
0.0
 10
5.2646
 20
-5.9301
 30
0.0
 10
5.2706
 20
-5.9378
 30
0.0
 10
5.277
 20
-5.9535
 30
0.0
 10
5.2828
 20
-5.9761
 30
0.0
  0
SPLINE
  5
7D
330
1F
100
AcDbEntity
  8
Layer 1
 62
     2
100
AcDbSpline
210
0.0
220
0.0
230
1.0
 70
    11
 71
     3
 72
    95
 73
    91
 74
     0
 42
0.0000000001
 43
0.0000000001
 40
0.0
 40
0.0
 40
0.0
 40
0.0
 40
0.0333333333333333
 40
0.0333333333333333
 40
0.0333333333333333
 40
0.0666666666666667
 40
0.0666666666666667
 40
0.0666666666666667
 40
0.1
 40
0.1
 40
0.1
 40
0.1333333333333333
 40
0.1333333333333333
 40
0.1333333333333333
 40
0.1666666666666667
 40
0.1666666666666667
 40
0.1666666666666667
 40
0.2
 40
0.2
 40
0.2
 40
0.2333333333333333
 40
0.2333333333333333
 40
0.2333333333333333
 40
0.2666666666666667
 40
0.2666666666666667
 40
0.2666666666666667
 40
0.3
 40
0.3
 40
0.3
 40
0.3333333333333333
 40
0.3333333333333333
 40
0.3333333333333333
 40
0.3666666666666666
 40
0.3666666666666666
 40
0.3666666666666666
 40
0.4
 40
0.4
 40
0.4
 40
0.4333333333333333
 40
0.4333333333333333
 40
0.4333333333333333
 40
0.4666666666666667
 40
0.4666666666666667
 40
0.4666666666666667
 40
0.5
 40
0.5
 40
0.5
 40
0.5333333333333333
 40
0.5333333333333333
 40
0.5333333333333333
 40
0.5666666666666667
 40
0.5666666666666667
 40
0.5666666666666667
 40
0.6
 40
0.6
 40
0.6
 40
0.6333333333333333
 40
0.6333333333333333
 40
0.6333333333333333
 40
0.6666666666666666
 40
0.6666666666666666
 40
0.6666666666666666
 40
0.7
 40
0.7
 40
0.7
 40
0.7333333333333333
 40
0.7333333333333333
 40
0.7333333333333333
 40
0.7666666666666666
 40
0.7666666666666666
 40
0.7666666666666666
 40
0.8
 40
0.8
 40
0.8
 40
0.8333333333333334
 40
0.8333333333333334
 40
0.8333333333333334
 40
0.8666666666666667
 40
0.8666666666666667
 40
0.8666666666666667
 40
0.9
 40
0.9
 40
0.9
 40
0.9333333333333333
 40
0.9333333333333333
 40
0.9333333333333333
 40
0.9666666666666667
 40
0.9666666666666667
 40
0.9666666666666667
 40
1.0
 40
1.0
 40
1.0
 40
1.0
 10
2.1115
 20
-7.9251
 30
0.0
 10
2.1751
 20
-8.1489
 30
0.0
 10
2.1881
 20
-8.3154
 30
0.0
 10
2.1504
 20
-8.4252
 30
0.0
 10
2.1068
 20
-8.5532
 30
0.0
 10
1.9854
 20
-8.6454
 30
0.0
 10
1.7859
 20
-8.7021
 30
0.0
 10
1.7859
 20
-8.7021
 30
0.0
 10
1.7571
 20
-8.7103
 30
0.0
 10
1.7571
 20
-8.7103
 30
0.0
 10
1.7571
 20
-8.7103
 30
0.0
 10
1.7575
 20
-8.7125
 30
0.0
 10
1.7575
 20
-8.7125
 30
0.0
 10
1.7575
 20
-8.7125
 30
0.0
 10
1.7351
 20
-8.7165
 30
0.0
 10
1.7351
 20
-8.7165
 30
0.0
 10
1.7351
 20
-8.7165
 30
0.0
 10
1.6917
 20
-8.7288
 30
0.0
 10
1.6917
 20
-8.7288
 30
0.0
 10
1.6917
 20
-8.7288
 30
0.0
 10
1.6905
 20
-8.7245
 30
0.0
 10
1.6905
 20
-8.7245
 30
0.0
 10
1.6905
 20
-8.7245
 30
0.0
 10
1.6257
 20
-8.736
 30
0.0
 10
1.6257
 20
-8.736
 30
0.0
 10
1.6533
 20
-9.0143
 30
0.0
 10
1.6165
 20
-9.2315
 30
0.0
 10
1.5153
 20
-9.3873
 30
0.0
 10
1.5008
 20
-9.4103
 30
0.0
 10
1.4776
 20
-9.4244
 30
0.0
 10
1.4465
 20
-9.43
 30
0.0
 10
1.4465
 20
-9.43
 30
0.0
 10
0.8682
 20
-9.5333
 30
0.0
 10
0.8682
 20
-9.5333
 30
0.0
 10
0.8
 20
-9.5455
 30
0.0
 10
0.7609
 20
-9.5238
 30
0.0
 10
0.7509
 20
-9.4678
 30
0.0
 10
0.7455
 20
-9.4375
 30
0.0
 10
0.7562
 20
-9.4125
 30
0.0
 10
0.7832
 20
-9.3934
 30
0.0
 10
0.8804
 20
-9.3243
 30
0.0
 10
0.9955
 20
-9.2295
 30
0.0
 10
1.1286
 20
-9.1093
 30
0.0
 10
1.308
 20
-8.9465
 30
0.0
 10
1.395
 20
-8.8398
 30
0.0
 10
1.3894
 20
-8.7891
 30
0.0
 10
1.2231
 20
-8.8188
 30
0.0
 10
1.1128
 20
-8.8285
 30
0.0
 10
1.0583
 20
-8.8178
 30
0.0
 10
0.9405
 20
-8.795
 30
0.0
 10
0.8674
 20
-8.7043
 30
0.0
 10
0.8392
 20
-8.5468
 30
0.0
 10
0.8137
 20
-8.4037
 30
0.0
 10
0.8137
 20
-8.2652
 30
0.0
 10
0.8389
 20
-8.1312
 30
0.0
 10
0.8735
 20
-7.9461
 30
0.0
 10
0.9553
 20
-7.842
 30
0.0
 10
1.0837
 20
-7.8191
 30
0.0
 10
1.263
 20
-7.7871
 30
0.0
 10
1.4055
 20
-7.9067
 30
0.0
 10
1.5117
 20
-8.1779
 30
0.0
 10
1.5117
 20
-8.1779
 30
0.0
 10
1.6069
 20
-8.1609
 30
0.0
 10
1.6069
 20
-8.1609
 30
0.0
 10
1.6069
 20
-8.1609
 30
0.0
 10
1.808
 20
-8.1038
 30
0.0
 10
1.808
 20
-8.1038
 30
0.0
 10
1.8553
 20
-8.0903
 30
0.0
 10
1.8754
 20
-8.0704
 30
0.0
 10
1.8678
 20
-8.0437
 30
0.0
 10
1.864
 20
-8.0301
 30
0.0
 10
1.8525
 20
-8.0164
 30
0.0
 10
1.8339
 20
-8.0026
 30
0.0
 10
1.766
 20
-7.9526
 30
0.0
 10
1.6826
 20
-7.9033
 30
0.0
 10
1.5842
 20
-7.8557
 30
0.0
 10
1.5695
 20
-7.8479
 30
0.0
 10
1.5655
 20
-7.8335
 30
0.0
 10
1.5719
 20
-7.8125
 30
0.0
 10
1.5719
 20
-7.8125
 30
0.0
 10
1.704
 20
-7.423
 30
0.0
 10
1.704
 20
-7.423
 30
0.0
 10
1.7113
 20
-7.4018
 30
0.0
 10
1.7175
 20
-7.3907
 30
0.0
 10
1.7233
 20
-7.3891
 30
0.0
 10
1.7303
 20
-7.3871
 30
0.0
 10
1.7428
 20
-7.392
 30
0.0
 10
1.7601
 20
-7.4044
 30
0.0
 10
1.9295
 20
-7.5234
 30
0.0
 10
2.0467
 20
-7.6968
 30
0.0
 10
2.1115
 20
-7.9251
 30
0.0
  0
SPLINE
  5
7E
330
1F
100
AcDbEntity
  8
Layer 1
 62
     2
100
AcDbSpline
210
0.0
220
0.0
230
1.0
 70
    11
 71
     3
 72
    29
 73
    25
 74
     0
 42
0.0000000001
 43
0.0000000001
 40
0.0
 40
0.0
 40
0.0
 40
0.0
 40
0.125
 40
0.125
 40
0.125
 40
0.25
 40
0.25
 40
0.25
 40
0.375
 40
0.375
 40
0.375
 40
0.5
 40
0.5
 40
0.5
 40
0.625
 40
0.625
 40
0.625
 40
0.75
 40
0.75
 40
0.75
 40
0.875
 40
0.875
 40
0.875
 40
1.0
 40
1.0
 40
1.0
 40
1.0
 10
1.692
 20
-6.9784
 30
0.0
 10
1.7072
 20
-6.9865
 30
0.0
 10
1.7105
 20
-6.998
 30
0.0
 10
1.7015
 20
-7.0135
 30
0.0
 10
1.7015
 20
-7.0135
 30
0.0
 10
1.5861
 20
-7.2205
 30
0.0
 10
1.5861
 20
-7.2205
 30
0.0
 10
1.5775
 20
-7.234
 30
0.0
 10
1.5657
 20
-7.2365
 30
0.0
 10
1.5506
 20
-7.2288
 30
0.0
 10
1.5506
 20
-7.2288
 30
0.0
 10
1.3418
 20
-7.1178
 30
0.0
 10
1.3418
 20
-7.1178
 30
0.0
 10
1.3246
 20
-7.1089
 30
0.0
 10
1.3213
 20
-7.0943
 30
0.0
 10
1.3325
 20
-7.0742
 30
0.0
 10
1.3325
 20
-7.0742
 30
0.0
 10
1.4394
 20
-6.8777
 30
0.0
 10
1.4394
 20
-6.8777
 30
0.0
 10
1.4483
 20
-6.8605
 30
0.0
 10
1.4623
 20
-6.8565
 30
0.0
 10
1.4805
 20
-6.866
 30
0.0
 10
1.4805
 20
-6.866
 30
0.0
 10
1.692
 20
-6.9784
 30
0.0
 10
1.692
 20
-6.9784
 30
0.0
  0
SPLINE
  5
7F
330
1F
100
AcDbEntity
  8
Layer 1
 62
     2
100
AcDbSpline
210
0.0
220
0.0
230
1.0
 70
    11
 71
     3
 72
    20
 73
    16
 74
     0
 42
0.0000000001
 43
0.0000000001
 40
0.0
 40
0.0
 40
0.0
 40
0.0
 40
0.2
 40
0.2
 40
0.2
 40
0.4
 40
0.4
 40
0.4
 40
0.6000000000000001
 40
0.6000000000000001
 40
0.6000000000000001
 40
0.8
 40
0.8
 40
0.8
 40
1.0
 40
1.0
 40
1.0
 40
1.0
 10
1.2897
 20
-8.3257
 30
0.0
 10
1.285
 20
-8.2996
 30
0.0
 10
1.2612
 20
-8.2782
 30
0.0
 10
1.2187
 20
-8.2615
 30
0.0
 10
1.1794
 20
-8.2459
 30
0.0
 10
1.1459
 20
-8.2406
 30
0.0
 10
1.1181
 20
-8.2455
 30
0.0
 10
1.0428
 20
-8.259
 30
0.0
 10
1.0104
 20
-8.2939
 30
0.0
 10
1.0204
 20
-8.3499
 30
0.0
 10
1.0259
 20
-8.3806
 30
0.0
 10
1.0749
 20
-8.3879
 30
0.0
 10
1.1675
 20
-8.3714
 30
0.0
 10
1.2517
 20
-8.3563
 30
0.0
 10
1.2924
 20
-8.3408
 30
0.0
 10
1.2897
 20
-8.3257
 30
0.0
  0
SPLINE
  5
80
330
1F
100
AcDbEntity
  8
Layer 1
 62
     2
100
AcDbSpline
210
0.0
220
0.0
230
1.0
 70
    11
 71
     3
 72
    38
 73
    34
 74
     0
 42
0.0000000001
 43
0.0000000001
 40
0.0
 40
0.0
 40
0.0
 40
0.0
 40
0.0909090909090909
 40
0.0909090909090909
 40
0.0909090909090909
 40
0.1818181818181818
 40
0.1818181818181818
 40
0.1818181818181818
 40
0.2727272727272727
 40
0.2727272727272727
 40
0.2727272727272727
 40
0.3636363636363636
 40
0.3636363636363636
 40
0.3636363636363636
 40
0.4545454545454546
 40
0.4545454545454546
 40
0.4545454545454546
 40
0.5454545454545454
 40
0.5454545454545454
 40
0.5454545454545454
 40
0.6363636363636364
 40
0.6363636363636364
 40
0.6363636363636364
 40
0.7272727272727273
 40
0.7272727272727273
 40
0.7272727272727273
 40
0.8181818181818182
 40
0.8181818181818182
 40
0.8181818181818182
 40
0.9090909090909092
 40
0.9090909090909092
 40
0.9090909090909092
 40
1.0
 40
1.0
 40
1.0
 40
1.0
 10
-1.0183
 20
-8.8969
 30
0.0
 10
-1.0183
 20
-8.8969
 30
0.0
 10
-1.4048
 20
-8.8676
 30
0.0
 10
-1.4048
 20
-8.8676
 30
0.0
 10
-1.4048
 20
-8.8676
 30
0.0
 10
-1.2746
 20
-7.1553
 30
0.0
 10
-1.2746
 20
-7.1553
 30
0.0
 10
-1.2746
 20
-7.1553
 30
0.0
 10
-0.9251
 20
-7.1819
 30
0.0
 10
-0.9251
 20
-7.1819
 30
0.0
 10
-0.9251
 20
-7.1819
 30
0.0
 10
-0.9562
 20
-7.5904
 30
0.0
 10
-0.9562
 20
-7.5904
 30
0.0
 10
-0.8943
 20
-7.4351
 30
0.0
 10
-0.8172
 20
-7.3234
 30
0.0
 10
-0.7248
 20
-7.257
 30
0.0
 10
-0.6318
 20
-7.1902
 30
0.0
 10
-0.5399
 20
-7.1599
 30
0.0
 10
-0.4485
 20
-7.1669
 30
0.0
 10
-0.4358
 20
-7.1679
 30
0.0
 10
-0.419
 20
-7.1697
 30
0.0
 10
-0.3977
 20
-7.1725
 30
0.0
 10
-0.3977
 20
-7.1725
 30
0.0
 10
-0.4293
 20
-7.588
 30
0.0
 10
-0.4293
 20
-7.588
 30
0.0
 10
-0.626
 20
-7.573
 30
0.0
 10
-0.761
 20
-7.6256
 30
0.0
 10
-0.8342
 20
-7.7463
 30
0.0
 10
-0.9074
 20
-7.8671
 30
0.0
 10
-0.949
 20
-7.9861
 30
0.0
 10
-0.958
 20
-8.1036
 30
0.0
 10
-0.958
 20
-8.1036
 30
0.0
 10
-1.0183
 20
-8.8969
 30
0.0
 10
-1.0183
 20
-8.8969
 30
0.0
  0
SPLINE
  5
81
330
1F
100
AcDbEntity
  8
Layer 1
 62
     2
100
AcDbSpline
210
0.0
220
0.0
230
1.0
 70
    11
 71
     3
 72
    17
 73
    13
 74
     0
 42
0.0000000001
 43
0.0000000001
 40
0.0
 40
0.0
 40
0.0
 40
0.0
 40
0.25
 40
0.25
 40
0.25
 40
0.5
 40
0.5
 40
0.5
 40
0.75
 40
0.75
 40
0.75
 40
1.0
 40
1.0
 40
1.0
 40
1.0
 10
-1.4338
 20
-6.9198
 30
0.0
 10
-1.4338
 20
-6.9198
 30
0.0
 10
-1.8115
 20
-6.8326
 30
0.0
 10
-1.8115
 20
-6.8326
 30
0.0
 10
-1.8115
 20
-6.8326
 30
0.0
 10
-1.7209
 20
-6.4402
 30
0.0
 10
-1.7209
 20
-6.4402
 30
0.0
 10
-1.7209
 20
-6.4402
 30
0.0
 10
-1.3432
 20
-6.5274
 30
0.0
 10
-1.3432
 20
-6.5274
 30
0.0
 10
-1.3432
 20
-6.5274
 30
0.0
 10
-1.4338
 20
-6.9198
 30
0.0
 10
-1.4338
 20
-6.9198
 30
0.0
  0
SPLINE
  5
82
330
1F
100
AcDbEntity
  8
Layer 1
 62
     2
100
AcDbSpline
210
0.0
220
0.0
230
1.0
 70
    11
 71
     3
 72
    17
 73
    13
 74
     0
 42
0.0000000001
 43
0.0000000001
 40
0.0
 40
0.0
 40
0.0
 40
0.0
 40
0.25
 40
0.25
 40
0.25
 40
0.5
 40
0.5
 40
0.5
 40
0.75
 40
0.75
 40
0.75
 40
1.0
 40
1.0
 40
1.0
 40
1.0
 10
-1.8651
 20
-8.7887
 30
0.0
 10
-1.8651
 20
-8.7887
 30
0.0
 10
-2.2428
 20
-8.7015
 30
0.0
 10
-2.2428
 20
-8.7015
 30
0.0
 10
-2.2428
 20
-8.7015
 30
0.0
 10
-1.8567
 20
-7.0283
 30
0.0
 10
-1.8567
 20
-7.0283
 30
0.0
 10
-1.8567
 20
-7.0283
 30
0.0
 10
-1.4789
 20
-7.1154
 30
0.0
 10
-1.4789
 20
-7.1154
 30
0.0
 10
-1.4789
 20
-7.1154
 30
0.0
 10
-1.8651
 20
-8.7887
 30
0.0
 10
-1.8651
 20
-8.7887
 30
0.0
  0
SPLINE
  5
83
330
1F
100
AcDbEntity
  8
Layer 1
 62
     2
100
AcDbSpline
210
0.0
220
0.0
230
1.0
 70
    11
 71
     3
 72
    17
 73
    13
 74
     0
 42
0.0000000001
 43
0.0000000001
 40
0.0
 40
0.0
 40
0.0
 40
0.0
 40
0.25
 40
0.25
 40
0.25
 40
0.5
 40
0.5
 40
0.5
 40
0.75
 40
0.75
 40
0.75
 40
1.0
 40
1.0
 40
1.0
 40
1.0
 10
-2.5284
 20
-8.1778
 30
0.0
 10
-2.5284
 20
-8.1778
 30
0.0
 10
-2.6713
 20
-8.5999
 30
0.0
 10
-2.6713
 20
-8.5999
 30
0.0
 10
-2.6713
 20
-8.5999
 30
0.0
 10
-3.0693
 20
-8.4653
 30
0.0
 10
-3.0693
 20
-8.4653
 30
0.0
 10
-3.0693
 20
-8.4653
 30
0.0
 10
-2.9264
 20
-8.0431
 30
0.0
 10
-2.9264
 20
-8.0431
 30
0.0
 10
-2.9264
 20
-8.0431
 30
0.0
 10
-2.5284
 20
-8.1778
 30
0.0
 10
-2.5284
 20
-8.1778
 30
0.0
  0
SPLINE
  5
84
330
1F
100
AcDbEntity
  8
Layer 1
 62
     2
100
AcDbSpline
210
0.0
220
0.0
230
1.0
 70
    11
 71
     3
 72
    29
 73
    25
 74
     0
 42
0.0000000001
 43
0.0000000001
 40
0.0
 40
0.0
 40
0.0
 40
0.0
 40
0.125
 40
0.125
 40
0.125
 40
0.25
 40
0.25
 40
0.25
 40
0.375
 40
0.375
 40
0.375
 40
0.5
 40
0.5
 40
0.5
 40
0.625
 40
0.625
 40
0.625
 40
0.75
 40
0.75
 40
0.75
 40
0.875
 40
0.875
 40
0.875
 40
1.0
 40
1.0
 40
1.0
 40
1.0
 10
-4.143
 20
-8.0591
 30
0.0
 10
-4.369
 20
-7.9427
 30
0.0
 10
-4.5
 20
-7.7733
 30
0.0
 10
-4.5357
 20
-7.5502
 30
0.0
 10
-4.5717
 20
-7.3264
 30
0.0
 10
-4.5359
 20
-7.11
 30
0.0
 10
-4.4285
 20
-6.9003
 30
0.0
 10
-4.3126
 20
-6.6741
 30
0.0
 10
-4.1507
 20
-6.5197
 30
0.0
 10
-3.942
 20
-6.4368
 30
0.0
 10
-3.7333
 20
-6.354
 30
0.0
 10
-3.5206
 20
-6.3677
 30
0.0
 10
-3.3047
 20
-6.4783
 30
0.0
 10
-3.1002
 20
-6.5831
 30
0.0
 10
-2.9693
 20
-6.7426
 30
0.0
 10
-2.9125
 20
-6.9563
 30
0.0
 10
-2.8559
 20
-7.1704
 30
0.0
 10
-2.8877
 20
-7.3941
 30
0.0
 10
-3.0075
 20
-7.6281
 30
0.0
 10
-3.131
 20
-7.8693
 30
0.0
 10
-3.2984
 20
-8.0281
 30
0.0
 10
-3.5104
 20
-8.1047
 30
0.0
 10
-3.7224
 20
-8.1813
 30
0.0
 10
-3.9331
 20
-8.166
 30
0.0
 10
-4.143
 20
-8.0591
 30
0.0
  0
SPLINE
  5
85
330
1F
100
AcDbEntity
  8
Layer 1
 62
     2
100
AcDbSpline
210
0.0
220
0.0
230
1.0
 70
    11
 71
     3
 72
    26
 73
    22
 74
     0
 42
0.0000000001
 43
0.0000000001
 40
0.0
 40
0.0
 40
0.0
 40
0.0
 40
0.1428571428571428
 40
0.1428571428571428
 40
0.1428571428571428
 40
0.2857142857142857
 40
0.2857142857142857
 40
0.2857142857142857
 40
0.4285714285714285
 40
0.4285714285714285
 40
0.4285714285714285
 40
0.5714285714285714
 40
0.5714285714285714
 40
0.5714285714285714
 40
0.7142857142857142
 40
0.7142857142857142
 40
0.7142857142857142
 40
0.8571428571428571
 40
0.8571428571428571
 40
0.8571428571428571
 40
1.0
 40
1.0
 40
1.0
 40
1.0
 10
-3.9854
 20
-7.7806
 30
0.0
 10
-3.7535
 20
-7.8994
 30
0.0
 10
-3.5486
 20
-7.7859
 30
0.0
 10
-3.3714
 20
-7.4398
 30
0.0
 10
-3.2912
 20
-7.2833
 30
0.0
 10
-3.2559
 20
-7.1455
 30
0.0
 10
-3.2651
 20
-7.0274
 30
0.0
 10
-3.2746
 20
-6.9084
 30
0.0
 10
-3.3366
 20
-6.8193
 30
0.0
 10
-3.4512
 20
-6.7606
 30
0.0
 10
-3.5705
 20
-6.6994
 30
0.0
 10
-3.6829
 20
-6.7012
 30
0.0
 10
-3.7879
 20
-6.7648
 30
0.0
 10
-3.8931
 20
-6.829
 30
0.0
 10
-3.9855
 20
-6.9381
 30
0.0
 10
-4.0646
 20
-7.0925
 30
0.0
 10
-4.1498
 20
-7.2589
 30
0.0
 10
-4.1844
 20
-7.4015
 30
0.0
 10
-4.1684
 20
-7.5206
 30
0.0
 10
-4.1525
 20
-7.6396
 30
0.0
 10
-4.0913
 20
-7.7264
 30
0.0
 10
-3.9854
 20
-7.7806
 30
0.0
  0
SPLINE
  5
86
330
1F
100
AcDbEntity
  8
Layer 1
 62
     2
100
AcDbSpline
210
0.0
220
0.0
230
1.0
 70
    11
 71
     3
 72
    50
 73
    46
 74
     0
 42
0.0000000001
 43
0.0000000001
 40
0.0
 40
0.0
 40
0.0
 40
0.0
 40
0.0666666666666667
 40
0.0666666666666667
 40
0.0666666666666667
 40
0.1333333333333333
 40
0.1333333333333333
 40
0.1333333333333333
 40
0.2
 40
0.2
 40
0.2
 40
0.2666666666666667
 40
0.2666666666666667
 40
0.2666666666666667
 40
0.3333333333333333
 40
0.3333333333333333
 40
0.3333333333333333
 40
0.4
 40
0.4
 40
0.4
 40
0.4666666666666667
 40
0.4666666666666667
 40
0.4666666666666667
 40
0.5333333333333333
 40
0.5333333333333333
 40
0.5333333333333333
 40
0.6
 40
0.6
 40
0.6
 40
0.6666666666666666
 40
0.6666666666666666
 40
0.6666666666666666
 40
0.7333333333333333
 40
0.7333333333333333
 40
0.7333333333333333
 40
0.8
 40
0.8
 40
0.8
 40
0.8666666666666667
 40
0.8666666666666667
 40
0.8666666666666667
 40
0.9333333333333333
 40
0.9333333333333333
 40
0.9333333333333333
 40
1.0
 40
1.0
 40
1.0
 40
1.0
 10
-5.124
 20
-7.4793
 30
0.0
 10
-5.124
 20
-7.4793
 30
0.0
 10
-5.4288
 20
-7.2397
 30
0.0
 10
-5.4288
 20
-7.2397
 30
0.0
 10
-5.4288
 20
-7.2397
 30
0.0
 10
-4.7658
 20
-6.396
 30
0.0
 10
-4.7658
 20
-6.396
 30
0.0
 10
-4.6959
 20
-6.3071
 30
0.0
 10
-4.6637
 20
-6.2238
 30
0.0
 10
-4.6693
 20
-6.1464
 30
0.0
 10
-4.6752
 20
-6.0694
 30
0.0
 10
-4.7065
 20
-6.0079
 30
0.0
 10
-4.7645
 20
-5.9623
 30
0.0
 10
-4.8439
 20
-5.8999
 30
0.0
 10
-4.9409
 20
-5.8806
 30
0.0
 10
-5.0551
 20
-5.9029
 30
0.0
 10
-5.1694
 20
-5.9253
 30
0.0
 10
-5.282
 20
-6.0066
 30
0.0
 10
-5.3917
 20
-6.1462
 30
0.0
 10
-5.3917
 20
-6.1462
 30
0.0
 10
-5.9371
 20
-6.8403
 30
0.0
 10
-5.9371
 20
-6.8403
 30
0.0
 10
-5.9371
 20
-6.8403
 30
0.0
 10
-6.2419
 20
-6.6007
 30
0.0
 10
-6.2419
 20
-6.6007
 30
0.0
 10
-6.2419
 20
-6.6007
 30
0.0
 10
-5.1809
 20
-5.2506
 30
0.0
 10
-5.1809
 20
-5.2506
 30
0.0
 10
-5.1809
 20
-5.2506
 30
0.0
 10
-4.9026
 20
-5.4693
 30
0.0
 10
-4.9026
 20
-5.4693
 30
0.0
 10
-4.9026
 20
-5.4693
 30
0.0
 10
-5.1485
 20
-5.7823
 30
0.0
 10
-5.1485
 20
-5.7823
 30
0.0
 10
-4.8724
 20
-5.631
 30
0.0
 10
-4.6467
 20
-5.6246
 30
0.0
 10
-4.4715
 20
-5.7623
 30
0.0
 10
-4.3528
 20
-5.8555
 30
0.0
 10
-4.281
 20
-5.9725
 30
0.0
 10
-4.2557
 20
-6.1142
 30
0.0
 10
-4.2305
 20
-6.255
 30
0.0
 10
-4.2914
 20
-6.4197
 30
0.0
 10
-4.4391
 20
-6.6077
 30
0.0
 10
-4.4391
 20
-6.6077
 30
0.0
 10
-5.124
 20
-7.4793
 30
0.0
 10
-5.124
 20
-7.4793
 30
0.0
  0
SPLINE
  5
87
330
1F
100
AcDbEntity
  8
Layer 1
 62
     2
100
AcDbSpline
210
0.0
220
0.0
230
1.0
 70
    11
 71
     3
 72
    17
 73
    13
 74
     0
 42
0.0000000001
 43
0.0000000001
 40
0.0
 40
0.0
 40
0.0
 40
0.0
 40
0.25
 40
0.25
 40
0.25
 40
0.5
 40
0.5
 40
0.5
 40
0.75
 40
0.75
 40
0.75
 40
1.0
 40
1.0
 40
1.0
 40
1.0
 10
-5.1658
 20
-4.9266
 30
0.0
 10
-5.1658
 20
-4.9266
 30
0.0
 10
-5.4333
 20
-4.646
 30
0.0
 10
-5.4333
 20
-4.646
 30
0.0
 10
-5.4333
 20
-4.646
 30
0.0
 10
-5.1418
 20
-4.3681
 30
0.0
 10
-5.1418
 20
-4.3681
 30
0.0
 10
-5.1418
 20
-4.3681
 30
0.0
 10
-4.8743
 20
-4.6487
 30
0.0
 10
-4.8743
 20
-4.6487
 30
0.0
 10
-4.8743
 20
-4.6487
 30
0.0
 10
-5.1658
 20
-4.9266
 30
0.0
 10
-5.1658
 20
-4.9266
 30
0.0
  0
SPLINE
  5
88
330
1F
100
AcDbEntity
  8
Layer 1
 62
     2
100
AcDbSpline
210
0.0
220
0.0
230
1.0
 70
    11
 71
     3
 72
    17
 73
    13
 74
     0
 42
0.0000000001
 43
0.0000000001
 40
0.0
 40
0.0
 40
0.0
 40
0.0
 40
0.25
 40
0.25
 40
0.25
 40
0.5
 40
0.5
 40
0.5
 40
0.75
 40
0.75
 40
0.75
 40
1.0
 40
1.0
 40
1.0
 40
1.0
 10
-6.554
 20
-6.2501
 30
0.0
 10
-6.554
 20
-6.2501
 30
0.0
 10
-6.8215
 20
-5.9695
 30
0.0
 10
-6.8215
 20
-5.9695
 30
0.0
 10
-6.8215
 20
-5.9695
 30
0.0
 10
-5.5786
 20
-4.7846
 30
0.0
 10
-5.5786
 20
-4.7846
 30
0.0
 10
-5.5786
 20
-4.7846
 30
0.0
 10
-5.3111
 20
-5.0651
 30
0.0
 10
-5.3111
 20
-5.0651
 30
0.0
 10
-5.3111
 20
-5.0651
 30
0.0
 10
-6.554
 20
-6.2501
 30
0.0
 10
-6.554
 20
-6.2501
 30
0.0
  0
SPLINE
  5
89
330
1F
100
AcDbEntity
  8
Layer 1
 62
     2
100
AcDbSpline
210
0.0
220
0.0
230
1.0
 70
    11
 71
     3
 72
    41
 73
    37
 74
     0
 42
0.0000000001
 43
0.0000000001
 40
0.0
 40
0.0
 40
0.0
 40
0.0
 40
0.0833333333333333
 40
0.0833333333333333
 40
0.0833333333333333
 40
0.1666666666666667
 40
0.1666666666666667
 40
0.1666666666666667
 40
0.25
 40
0.25
 40
0.25
 40
0.3333333333333333
 40
0.3333333333333333
 40
0.3333333333333333
 40
0.4166666666666666
 40
0.4166666666666666
 40
0.4166666666666666
 40
0.5
 40
0.5
 40
0.5
 40
0.5833333333333333
 40
0.5833333333333333
 40
0.5833333333333333
 40
0.6666666666666666
 40
0.6666666666666666
 40
0.6666666666666666
 40
0.75
 40
0.75
 40
0.75
 40
0.8333333333333333
 40
0.8333333333333333
 40
0.8333333333333333
 40
0.9166666666666666
 40
0.9166666666666666
 40
0.9166666666666666
 40
1.0
 40
1.0
 40
1.0
 40
1.0
 10
-6.9892
 20
-5.8067
 30
0.0
 10
-6.9892
 20
-5.8067
 30
0.0
 10
-7.2451
 20
-5.4468
 30
0.0
 10
-7.2451
 20
-5.4468
 30
0.0
 10
-7.2451
 20
-5.4468
 30
0.0
 10
-6.9461
 20
-4.7877
 30
0.0
 10
-6.9461
 20
-4.7877
 30
0.0
 10
-6.9461
 20
-4.7877
 30
0.0
 10
-7.6867
 20
-4.8258
 30
0.0
 10
-7.6867
 20
-4.8258
 30
0.0
 10
-7.6867
 20
-4.8258
 30
0.0
 10
-7.8797
 20
-4.5544
 30
0.0
 10
-7.8797
 20
-4.5544
 30
0.0
 10
-7.8797
 20
-4.5544
 30
0.0
 10
-6.8285
 20
-4.5075
 30
0.0
 10
-6.8285
 20
-4.5075
 30
0.0
 10
-6.8285
 20
-4.5075
 30
0.0
 10
-6.4359
 20
-3.6216
 30
0.0
 10
-6.4359
 20
-3.6216
 30
0.0
 10
-6.4359
 20
-3.6216
 30
0.0
 10
-6.1786
 20
-3.9834
 30
0.0
 10
-6.1786
 20
-3.9834
 30
0.0
 10
-6.1786
 20
-3.9834
 30
0.0
 10
-6.4266
 20
-4.5059
 30
0.0
 10
-6.4266
 20
-4.5059
 30
0.0
 10
-6.4266
 20
-4.5059
 30
0.0
 10
-5.8288
 20
-4.4753
 30
0.0
 10
-5.8288
 20
-4.4753
 30
0.0
 10
-5.8288
 20
-4.4753
 30
0.0
 10
-5.6408
 20
-4.7397
 30
0.0
 10
-5.6408
 20
-4.7397
 30
0.0
 10
-5.6408
 20
-4.7397
 30
0.0
 10
-6.5285
 20
-4.7763
 30
0.0
 10
-6.5285
 20
-4.7763
 30
0.0
 10
-6.5285
 20
-4.7763
 30
0.0
 10
-6.9892
 20
-5.8067
 30
0.0
 10
-6.9892
 20
-5.8067
 30
0.0
  0
SPLINE
  5
8A
330
1F
100
AcDbEntity
  8
Layer 1
 62
     2
100
AcDbSpline
210
0.0
220
0.0
230
1.0
 70
    11
 71
     3
 72
    29
 73
    25
 74
     0
 42
0.0000000001
 43
0.0000000001
 40
0.0
 40
0.0
 40
0.0
 40
0.0
 40
0.125
 40
0.125
 40
0.125
 40
0.25
 40
0.25
 40
0.25
 40
0.375
 40
0.375
 40
0.375
 40
0.5
 40
0.5
 40
0.5
 40
0.625
 40
0.625
 40
0.625
 40
0.75
 40
0.75
 40
0.75
 40
0.875
 40
0.875
 40
0.875
 40
1.0
 40
1.0
 40
1.0
 40
1.0
 10
-8.2831
 20
-3.7539
 30
0.0
 10
-8.3873
 20
-3.522
 30
0.0
 10
-8.3842
 20
-3.3079
 30
0.0
 10
-8.2731
 20
-3.1112
 30
0.0
 10
-8.1618
 20
-2.9137
 30
0.0
 10
-7.9989
 20
-2.7668
 30
0.0
 10
-7.7842
 20
-2.6698
 30
0.0
 10
-7.5526
 20
-2.565
 30
0.0
 10
-7.3297
 20
-2.5452
 30
0.0
 10
-7.1149
 20
-2.6105
 30
0.0
 10
-6.9
 20
-2.6757
 30
0.0
 10
-6.7423
 20
-2.819
 30
0.0
 10
-6.6423
 20
-3.0401
 30
0.0
 10
-6.5477
 20
-3.2495
 30
0.0
 10
-6.5448
 20
-3.4558
 30
0.0
 10
-6.6335
 20
-3.6583
 30
0.0
 10
-6.7227
 20
-3.8611
 30
0.0
 10
-6.887
 20
-4.0162
 30
0.0
 10
-7.1265
 20
-4.1245
 30
0.0
 10
-7.3734
 20
-4.2361
 30
0.0
 10
-7.6033
 20
-4.256
 30
0.0
 10
-7.8168
 20
-4.1837
 30
0.0
 10
-8.0304
 20
-4.1115
 30
0.0
 10
-8.1856
 20
-3.9683
 30
0.0
 10
-8.2831
 20
-3.7539
 30
0.0
  0
SPLINE
  5
8B
330
1F
100
AcDbEntity
  8
Layer 1
 62
     2
100
AcDbSpline
210
0.0
220
0.0
230
1.0
 70
    11
 71
     3
 72
    26
 73
    22
 74
     0
 42
0.0000000001
 43
0.0000000001
 40
0.0
 40
0.0
 40
0.0
 40
0.0
 40
0.1428571428571428
 40
0.1428571428571428
 40
0.1428571428571428
 40
0.2857142857142857
 40
0.2857142857142857
 40
0.2857142857142857
 40
0.4285714285714285
 40
0.4285714285714285
 40
0.4285714285714285
 40
0.5714285714285714
 40
0.5714285714285714
 40
0.5714285714285714
 40
0.7142857142857142
 40
0.7142857142857142
 40
0.7142857142857142
 40
0.8571428571428571
 40
0.8571428571428571
 40
0.8571428571428571
 40
1.0
 40
1.0
 40
1.0
 40
1.0
 10
-7.9863
 20
-3.6343
 30
0.0
 10
-7.8789
 20
-3.8717
 30
0.0
 10
-7.648
 20
-3.9106
 30
0.0
 10
-7.2937
 20
-3.7504
 30
0.0
 10
-7.1335
 20
-3.678
 30
0.0
 10
-7.02
 20
-3.5923
 30
0.0
 10
-6.9536
 20
-3.4941
 30
0.0
 10
-6.8868
 20
-3.3952
 30
0.0
 10
-6.8798
 20
-3.2869
 30
0.0
 10
-6.9328
 20
-3.1695
 30
0.0
 10
-6.9881
 20
-3.0473
 30
0.0
 10
-7.0771
 20
-2.9787
 30
0.0
 10
-7.1988
 20
-2.963
 30
0.0
 10
-7.321
 20
-2.9476
 30
0.0
 10
-7.4613
 20
-2.9753
 30
0.0
 10
-7.6194
 20
-3.0468
 30
0.0
 10
-7.7897
 20
-3.1238
 30
0.0
 10
-7.9057
 20
-3.2138
 30
0.0
 10
-7.9674
 20
-3.3169
 30
0.0
 10
-8.0291
 20
-3.4199
 30
0.0
 10
-8.0353
 20
-3.5259
 30
0.0
 10
-7.9863
 20
-3.6343
 30
0.0
  0
SPLINE
  5
8C
330
1F
100
AcDbEntity
  8
Layer 1
 62
     2
100
AcDbSpline
210
0.0
220
0.0
230
1.0
 70
    11
 71
     3
 72
    26
 73
    22
 74
     0
 42
0.0000000001
 43
0.0000000001
 40
0.0
 40
0.0
 40
0.0
 40
0.0
 40
0.1428571428571428
 40
0.1428571428571428
 40
0.1428571428571428
 40
0.2857142857142857
 40
0.2857142857142857
 40
0.2857142857142857
 40
0.4285714285714285
 40
0.4285714285714285
 40
0.4285714285714285
 40
0.5714285714285714
 40
0.5714285714285714
 40
0.5714285714285714
 40
0.7142857142857142
 40
0.7142857142857142
 40
0.7142857142857142
 40
0.8571428571428571
 40
0.8571428571428571
 40
0.8571428571428571
 40
1.0
 40
1.0
 40
1.0
 40
1.0
 10
-7.5903
 20
-1.2364
 30
0.0
 10
-7.5903
 20
-1.2364
 30
0.0
 10
-7.5007
 20
-1.7386
 30
0.0
 10
-7.5007
 20
-1.7386
 30
0.0
 10
-7.4823
 20
-1.8414
 30
0.0
 10
-7.437
 20
-1.917
 30
0.0
 10
-7.3652
 20
-1.9655
 30
0.0
 10
-7.2928
 20
-2.0145
 30
0.0
 10
-7.2092
 20
-2.0302
 30
0.0
 10
-7.1144
 20
-2.0133
 30
0.0
 10
-7.0099
 20
-1.9946
 30
0.0
 10
-6.9389
 20
-1.9466
 30
0.0
 10
-6.9013
 20
-1.8697
 30
0.0
 10
-6.8637
 20
-1.7929
 30
0.0
 10
-6.8528
 20
-1.709
 30
0.0
 10
-6.8692
 20
-1.617
 30
0.0
 10
-6.8692
 20
-1.617
 30
0.0
 10
-6.9574
 20
-1.1234
 30
0.0
 10
-6.9574
 20
-1.1234
 30
0.0
 10
-6.9574
 20
-1.1234
 30
0.0
 10
-7.5903
 20
-1.2364
 30
0.0
 10
-7.5903
 20
-1.2364
 30
0.0
  0
SPLINE
  5
8D
330
1F
100
AcDbEntity
  8
Layer 1
 62
     2
100
AcDbSpline
210
0.0
220
0.0
230
1.0
 70
    11
 71
     3
 72
    26
 73
    22
 74
     0
 42
0.0000000001
 43
0.0000000001
 40
0.0
 40
0.0
 40
0.0
 40
0.0
 40
0.1428571428571428
 40
0.1428571428571428
 40
0.1428571428571428
 40
0.2857142857142857
 40
0.2857142857142857
 40
0.2857142857142857
 40
0.4285714285714285
 40
0.4285714285714285
 40
0.4285714285714285
 40
0.5714285714285714
 40
0.5714285714285714
 40
0.5714285714285714
 40
0.7142857142857142
 40
0.7142857142857142
 40
0.7142857142857142
 40
0.8571428571428571
 40
0.8571428571428571
 40
0.8571428571428571
 40
1.0
 40
1.0
 40
1.0
 40
1.0
 10
-8.5724
 20
-1.4118
 30
0.0
 10
-8.5724
 20
-1.4118
 30
0.0
 10
-8.4773
 20
-1.9442
 30
0.0
 10
-8.4773
 20
-1.9442
 30
0.0
 10
-8.4572
 20
-2.0568
 30
0.0
 10
-8.4122
 20
-2.1407
 30
0.0
 10
-8.3411
 20
-2.1952
 30
0.0
 10
-8.2706
 20
-2.2499
 30
0.0
 10
-8.1848
 20
-2.2681
 30
0.0
 10
-8.0843
 20
-2.2502
 30
0.0
 10
-7.9883
 20
-2.233
 30
0.0
 10
-7.916
 20
-2.1859
 30
0.0
 10
-7.8661
 20
-2.1086
 30
0.0
 10
-7.8168
 20
-2.0315
 30
0.0
 10
-7.8017
 20
-1.938
 30
0.0
 10
-7.8212
 20
-1.8288
 30
0.0
 10
-7.8212
 20
-1.8288
 30
0.0
 10
-7.9166
 20
-1.2947
 30
0.0
 10
-7.9166
 20
-1.2947
 30
0.0
 10
-7.9166
 20
-1.2947
 30
0.0
 10
-8.5724
 20
-1.4118
 30
0.0
 10
-8.5724
 20
-1.4118
 30
0.0
  0
SPLINE
  5
8E
330
1F
100
AcDbEntity
  8
Layer 1
 62
     2
100
AcDbSpline
210
0.0
220
0.0
230
1.0
 70
    11
 71
     3
 72
    35
 73
    31
 74
     0
 42
0.0000000001
 43
0.0000000001
 40
0.0
 40
0.0
 40
0.0
 40
0.0
 40
0.1
 40
0.1
 40
0.1
 40
0.2
 40
0.2
 40
0.2
 40
0.3
 40
0.3
 40
0.3
 40
0.4
 40
0.4
 40
0.4
 40
0.5
 40
0.5
 40
0.5
 40
0.6000000000000001
 40
0.6000000000000001
 40
0.6000000000000001
 40
0.7000000000000001
 40
0.7000000000000001
 40
0.7000000000000001
 40
0.8
 40
0.8
 40
0.8
 40
0.9
 40
0.9
 40
0.9
 40
1.0
 40
1.0
 40
1.0
 40
1.0
 10
-8.2535
 20
3.6133
 30
0.0
 10
-7.5121
 20
5.1749
 30
0.0
 10
-6.3384
 20
6.4919
 30
0.0
 10
-4.8873
 20
7.4096
 30
0.0
 10
-3.482
 20
8.2983
 30
0.0
 10
-1.8173
 20
8.8128
 30
0.0
 10
-0.0338
 20
8.8128
 30
0.0
 10
1.7497
 20
8.8128
 30
0.0
 10
3.4144
 20
8.2983
 30
0.0
 10
4.8197
 20
7.4096
 30
0.0
 10
6.2708
 20
6.4919
 30
0.0
 10
7.4444
 20
5.1749
 30
0.0
 10
8.1858
 20
3.6133
 30
0.0
 10
8.1858
 20
3.6133
 30
0.0
 10
7.5492
 20
3.3129
 30
0.0
 10
7.5492
 20
3.3129
 30
0.0
 10
6.8653
 20
4.7533
 30
0.0
 10
5.783
 20
5.968
 30
0.0
 10
4.4449
 20
6.8142
 30
0.0
 10
3.15
 20
7.6331
 30
0.0
 10
1.614
 20
8.1072
 30
0.0
 10
-0.0338
 20
8.1072
 30
0.0
 10
-1.6816
 20
8.1072
 30
0.0
 10
-3.2176
 20
7.6331
 30
0.0
 10
-4.5125
 20
6.8142
 30
0.0
 10
-5.8506
 20
5.968
 30
0.0
 10
-6.9331
 20
4.7532
 30
0.0
 10
-7.6169
 20
3.3129
 30
0.0
 10
-7.6169
 20
3.3129
 30
0.0
 10
-8.2535
 20
3.6133
 30
0.0
 10
-8.2535
 20
3.6133
 30
0.0
  0
ENDSEC
  0
SECTION
  2
OBJECTS
  0
DICTIONARY
  5
C
330
0
100
AcDbDictionary
281
     1
  3
ACAD_DETAILVIEWSTYLE
350
96
  3
ACAD_GROUP
350
D
  3
ACAD_LAYOUT
350
1A
  3
ACAD_MATERIAL
350
43
  3
ACAD_MLEADERSTYLE
350
5B
  3
ACAD_MLINESTYLE
350
17
  3
ACAD_PLOTSETTINGS
350
19
  3
ACAD_PLOTSTYLENAME
350
E
  3
ACAD_SCALELIST
350
47
  3
ACAD_SECTIONVIEWSTYLE
350
97
  3
ACAD_TABLESTYLE
350
59
  3
ACAD_VISUALSTYLE
350
2A
  3
ACDB_RECOMPOSE_DATA
350
93
  3
AcDbVariableDictionary
350
8F
  0
SUN
  5
5D
330
29
100
AcDbSun
 90
        1
290
     0
 63
     7
421
 16777215
 40
1.0
291
     1
 91
  2455826
 92
 54000000
292
     0
 70
     2
 71
   256
280
     1
  0
DICTIONARY
  5
96
102
{ACAD_REACTORS
330
C
102
}
330
C
100
AcDbDictionary
281
     1
  0
DICTIONARY
  5
D
102
{ACAD_REACTORS
330
C
102
}
330
C
100
AcDbDictionary
281
     1
  0
DICTIONARY
  5
1A
102
{ACAD_REACTORS
330
C
102
}
330
C
100
AcDbDictionary
281
     1
  3
Layout1
350
1E
  3
Layout2
350
26
  3
Model
350
22
  0
DICTIONARY
  5
43
102
{ACAD_REACTORS
330
C
102
}
330
C
100
AcDbDictionary
281
     1
  3
ByBlock
350
45
  3
ByLayer
350
44
  3
Global
350
46
  0
DICTIONARY
  5
5B
102
{ACAD_REACTORS
330
C
102
}
330
C
100
AcDbDictionary
281
     1
  3
Standard
350
5C
  0
DICTIONARY
  5
17
102
{ACAD_REACTORS
330
C
102
}
330
C
100
AcDbDictionary
281
     1
  3
Standard
350
18
  0
DICTIONARY
  5
19
102
{ACAD_REACTORS
330
C
102
}
330
C
100
AcDbDictionary
281
     1
  0
ACDBDICTIONARYWDFLT
  5
E
102
{ACAD_REACTORS
330
C
102
}
330
C
100
AcDbDictionary
281
     1
  3
Normal
350
F
100
AcDbDictionaryWithDefault
340
F
  0
DICTIONARY
  5
47
102
{ACAD_REACTORS
330
C
102
}
330
C
100
AcDbDictionary
281
     1
  3
A0
350
48
  3
A1
350
49
  3
A2
350
4A
  3
A3
350
4B
  3
A4
350
4C
  3
A5
350
4D
  3
A6
350
4E
  3
A7
350
4F
  3
A8
350
50
  3
A9
350
51
  3
B1
350
52
  3
B2
350
53
  3
B3
350
54
  3
B4
350
55
  3
B5
350
56
  3
B6
350
57
  3
B7
350
58
  0
DICTIONARY
  5
97
102
{ACAD_REACTORS
330
C
102
}
330
C
100
AcDbDictionary
281
     1
  0
DICTIONARY
  5
59
102
{ACAD_REACTORS
330
C
102
}
330
C
100
AcDbDictionary
281
     1
  3
Standard
350
5A
  0
DICTIONARY
  5
2A
102
{ACAD_REACTORS
330
C
102
}
330
C
100
AcDbDictionary
281
     1
  3
2dWireframe
350
2F
  3
Basic
350
32
  3
Brighten
350
36
  3
ColorChange
350
3A
  3
Conceptual
350
34
  3
Dim
350
35
  3
EdgeColorOff
350
3D
  3
Facepattern
350
39
  3
Flat
350
2B
  3
FlatWithEdges
350
2C
  3
Gouraud
350
2D
  3
GouraudWithEdges
350
2E
  3
Hidden
350
31
  3
JitterOff
350
3B
  3
Linepattern
350
38
  3
OverhangOff
350
3C
  3
Realistic
350
33
  3
Shaded
350
42
  3
Shaded with edges
350
41
  3
Shades of Gray
350
3E
  3
Sketchy
350
3F
  3
Thicken
350
37
  3
Wireframe
350
30
  3
X-Ray
350
40
  0
XRECORD
  5
93
102
{ACAD_REACTORS
330
C
102
}
330
C
100
AcDbXrecord
280
     1
 90
        1
330
5A
  0
DICTIONARY
  5
8F
102
{ACAD_REACTORS
330
C
102
}
330
C
100
AcDbDictionary
281
     1
  3
CANNOSCALE
350
90
  3
CMLEADERSTYLE
350
95
  3
CTABLESTYLE
350
94
  0
LAYOUT
  5
1E
102
{ACAD_REACTORS
330
1A
102
}
330
1A
100
AcDbPlotSettings
  1

  2
none_device
  4

  6

 40
0.0
 41
0.0
 42
0.0
 43
0.0
 44
0.0
 45
0.0
 46
0.0
 47
0.0
 48
0.0
 49
0.0
140
0.0
141
0.0
142
1.0
143
1.0
 70
   688
 72
     0
 73
     0
 74
     5
  7

 75
    16
 76
     0
 77
     2
 78
   300
147
1.0
148
0.0
149
0.0
100
AcDbLayout
  1
Layout1
 70
     1
 71
     1
 10
0.0
 20
0.0
 11
12.0
 21
9.0
 12
0.0
 22
0.0
 32
0.0
 14
1.000000000000000E+20
 24
1.000000000000000E+20
 34
1.000000000000000E+20
 15
-1.000000000000000E+20
 25
-1.000000000000000E+20
 35
-1.000000000000000E+20
146
0.0
 13
0.0
 23
0.0
 33
0.0
 16
1.0
 26
0.0
 36
0.0
 17
0.0
 27
1.0
 37
0.0
 76
     0
330
1B
  0
LAYOUT
  5
26
102
{ACAD_REACTORS
330
1A
102
}
330
1A
100
AcDbPlotSettings
  1

  2
none_device
  4

  6

 40
0.0
 41
0.0
 42
0.0
 43
0.0
 44
0.0
 45
0.0
 46
0.0
 47
0.0
 48
0.0
 49
0.0
140
0.0
141
0.0
142
1.0
143
1.0
 70
   688
 72
     0
 73
     0
 74
     5
  7

 75
    16
 76
     0
 77
     2
 78
   300
147
1.0
148
0.0
149
0.0
100
AcDbLayout
  1
Layout2
 70
     1
 71
     2
 10
0.0
 20
0.0
 11
0.0
 21
0.0
 12
0.0
 22
0.0
 32
0.0
 14
0.0
 24
0.0
 34
0.0
 15
0.0
 25
0.0
 35
0.0
146
0.0
 13
0.0
 23
0.0
 33
0.0
 16
1.0
 26
0.0
 36
0.0
 17
0.0
 27
1.0
 37
0.0
 76
     0
330
23
  0
LAYOUT
  5
22
102
{ACAD_REACTORS
330
1A
102
}
330
1A
100
AcDbPlotSettings
  1

  2
none_device
  4
Letter_(8.50_x_11.00_Inches)
  6

 40
6.35
 41
6.35
 42
6.35000508
 43
6.35000508
 44
215.9
 45
279.4
 46
0.0
 47
0.0
 48
0.0
 49
0.0
140
0.0
141
0.0
142
1.0
143
1.0
 70
  1712
 72
     0
 73
     0
 74
     0
  7

 75
     0
 76
     0
 77
     2
 78
   300
147
1.0
148
0.0
149
0.0
100
AcDbLayout
  1
Model
 70
     1
 71
     0
 10
0.0
 20
0.0
 11
12.0
 21
9.0
 12
0.0
 22
0.0
 32
0.0
 14
-10.0613
 24
-10.0613
 34
0.0
 15
9.9387
 25
9.9387
 35
0.0
146
0.0
 13
0.0
 23
0.0
 33
0.0
 16
1.0
 26
0.0
 36
0.0
 17
0.0
 27
1.0
 37
0.0
 76
     0
330
1F
331
29
  0
MATERIAL
  5
45
102
{ACAD_REACTORS
330
43
102
}
330
43
100
AcDbMaterial
  1
ByBlock
 72
     1
 94
      127
  0
MATERIAL
  5
44
102
{ACAD_REACTORS
330
43
102
}
330
43
100
AcDbMaterial
  1
ByLayer
 72
     1
 94
      127
  0
MATERIAL
  5
46
102
{ACAD_REACTORS
330
43
102
}
330
43
100
AcDbMaterial
  1
Global
 72
     1
 94
      127
  0
MLEADERSTYLE
  5
5C
102
{ACAD_REACTORS
330
5B
102
}
330
5B
100
AcDbMLeaderStyle
179
     2
170
     2
171
     1
172
     0
 90
        2
 40
0.0
 41
0.0
173
     1
 91
-1056964608
340
14
 92
       -2
290
     1
 42
0.09
291
     1
 43
0.36
  3
Standard
341
0
 44
0.18
300

342
11
174
     1
178
     6
175
     1
176
     0
 93
-1056964608
 45
0.18
292
     0
297
     0
 46
0.18
343
0
 94
-1056964608
 47
1.0
 49
1.0
140
1.0
293
     1
141
0.0
294
     1
177
     0
142
1.0
295
     0
296
     0
143
0.125
271
     0
272
     9
273
     9
298
     0
  0
MLINESTYLE
  5
18
102
{ACAD_REACTORS
330
17
102
}
330
17
100
AcDbMlineStyle
  2
Standard
 70
     0
  3

 62
   256
 51
90.0
 52
90.0
 71
     2
 49
0.5
 62
   256
  6
BYLAYER
 49
-0.5
 62
   256
  6
BYLAYER
  0
ACDBPLACEHOLDER
  5
F
102
{ACAD_REACTORS
330
E
102
}
330
E
  0
SCALE
  5
48
102
{ACAD_REACTORS
330
47
102
}
330
47
100
AcDbScale
 70
     0
300
1:1
140
1.0
141
1.0
290
     1
  0
SCALE
  5
49
102
{ACAD_REACTORS
330
47
102
}
330
47
100
AcDbScale
 70
     0
300
1/128" = 1'-0"
140
0.0078125
141
12.0
290
     0
  0
SCALE
  5
4A
102
{ACAD_REACTORS
330
47
102
}
330
47
100
AcDbScale
 70
     0
300
1/64" = 1'-0"
140
0.015625
141
12.0
290
     0
  0
SCALE
  5
4B
102
{ACAD_REACTORS
330
47
102
}
330
47
100
AcDbScale
 70
     0
300
1/32" = 1'-0"
140
0.03125
141
12.0
290
     0
  0
SCALE
  5
4C
102
{ACAD_REACTORS
330
47
102
}
330
47
100
AcDbScale
 70
     0
300
1/16" = 1'-0"
140
0.0625
141
12.0
290
     0
  0
SCALE
  5
4D
102
{ACAD_REACTORS
330
47
102
}
330
47
100
AcDbScale
 70
     0
300
3/32" = 1'-0"
140
0.09375
141
12.0
290
     0
  0
SCALE
  5
4E
102
{ACAD_REACTORS
330
47
102
}
330
47
100
AcDbScale
 70
     0
300
1/8" = 1'-0"
140
0.125
141
12.0
290
     0
  0
SCALE
  5
4F
102
{ACAD_REACTORS
330
47
102
}
330
47
100
AcDbScale
 70
     0
300
3/16" = 1'-0"
140
0.1875
141
12.0
290
     0
  0
SCALE
  5
50
102
{ACAD_REACTORS
330
47
102
}
330
47
100
AcDbScale
 70
     0
300
1/4" = 1'-0"
140
0.25
141
12.0
290
     0
  0
SCALE
  5
51
102
{ACAD_REACTORS
330
47
102
}
330
47
100
AcDbScale
 70
     0
300
3/8" = 1'-0"
140
0.375
141
12.0
290
     0
  0
SCALE
  5
52
102
{ACAD_REACTORS
330
47
102
}
330
47
100
AcDbScale
 70
     0
300
1/2" = 1'-0"
140
0.5
141
12.0
290
     0
  0
SCALE
  5
53
102
{ACAD_REACTORS
330
47
102
}
330
47
100
AcDbScale
 70
     0
300
3/4" = 1'-0"
140
0.75
141
12.0
290
     0
  0
SCALE
  5
54
102
{ACAD_REACTORS
330
47
102
}
330
47
100
AcDbScale
 70
     0
300
1" = 1'-0"
140
1.0
141
12.0
290
     0
  0
SCALE
  5
55
102
{ACAD_REACTORS
330
47
102
}
330
47
100
AcDbScale
 70
     0
300
1-1/2" = 1'-0"
140
1.5
141
12.0
290
     0
  0
SCALE
  5
56
102
{ACAD_REACTORS
330
47
102
}
330
47
100
AcDbScale
 70
     0
300
3" = 1'-0"
140
3.0
141
12.0
290
     0
  0
SCALE
  5
57
102
{ACAD_REACTORS
330
47
102
}
330
47
100
AcDbScale
 70
     0
300
6" = 1'-0"
140
6.0
141
12.0
290
     0
  0
SCALE
  5
58
102
{ACAD_REACTORS
330
47
102
}
330
47
100
AcDbScale
 70
     0
300
1'-0" = 1'-0"
140
12.0
141
12.0
290
     0
  0
TABLESTYLE
  5
5A
102
{ACAD_REACTORS
330
59
102
}
102
{ACAD_XDICTIONARY
360
91
102
}
330
59
100
AcDbTableStyle
  3
Standard
 70
     0
 71
     0
 40
0.06
 41
0.06
280
     0
281
     0
  7
Standard
140
0.18
170
     2
 62
     0
 63
   257
283
     0
 90
        4
 91
        0
  1

274
    -2
284
     1
 64
     0
275
    -2
285
     1
 65
     0
276
    -2
286
     1
 66
     0
277
    -2
287
     1
 67
     0
278
    -2
288
     1
 68
     0
279
    -2
289
     1
 69
     0
  7
Standard
140
0.25
170
     5
 62
     0
 63
   257
283
     0
 90
        4
 91
        0
  1

274
    -2
284
     1
 64
     0
275
    -2
285
     1
 65
     0
276
    -2
286
     1
 66
     0
277
    -2
287
     1
 67
     0
278
    -2
288
     1
 68
     0
279
    -2
289
     1
 69
     0
  7
Standard
140
0.18
170
     5
 62
     0
 63
   257
283
     0
 90
        4
 91
        0
  1

274
    -2
284
     1
 64
     0
275
    -2
285
     1
 65
     0
276
    -2
286
     1
 66
     0
277
    -2
287
     1
 67
     0
278
    -2
288
     1
 68
     0
279
    -2
289
     1
 69
     0
  0
VISUALSTYLE
  5
2F
102
{ACAD_REACTORS
330
2A
102
}
330
2A
100
AcDbVisualStyle
  2
2dWireframe
 70
     4
177
     3
291
     0
 70
    58
 90
        0
176
     1
 90
        2
176
     1
 90
        0
176
     1
 90
        0
176
     1
 40
0.6
176
     1
 40
30.0
176
     1
 62
     7
420
 16777215
176
     1
 90
        1
176
     1
 90
        4
176
     1
 62
     7
176
     1
 62
   257
176
     1
 90
        1
176
     1
 90
        1
176
     1
 40
1.0
176
     1
 90
        0
176
     1
 62
   257
176
     1
 40
1.0
176
     1
 90
        1
176
     1
 90
        6
176
     1
 90
        2
176
     1
 62
     7
176
     1
 90
        5
176
     1
 90
        0
176
     1
 90
        0
176
     1
290
     0
176
     1
 90
        1
176
     1
 40
0.0
176
     1
 90
        0
176
     1
290
     1
176
     1
290
     1
176
     1
290
     0
176
     1
290
     0
176
     1
290
     0
176
     1
290
     0
176
     1
290
     0
176
     1
290
     0
176
     1
290
     0
176
     1
 90
       50
176
     1
 40
0.0
176
     1
 40
1.0
176
     1
 90
        0
176
     1
 62
    18
420
        0
176
     1
 90
       50
176
     1
 90
        3
176
     1
 62
     5
420
      255
176
     1
290
     0
176
     1
 90
       50
176
     1
 90
       50
176
     1
 90
       50
176
     1
290
     0
176
     1
 90
       50
176
     1
 62
   256
176
     0
 40
1.0
176
     0
 90
        2
176
     1
  1
strokes_ogs.tif
176
     1
290
     0
176
     1
 40
1.0
176
     1
 40
1.0
176
     1
  0
VISUALSTYLE
  5
32
102
{ACAD_REACTORS
330
2A
102
}
330
2A
100
AcDbVisualStyle
  2
Basic
 70
     7
177
     3
291
     1
 70
    58
 90
        1
176
     1
 90
        0
176
     1
 90
        1
176
     1
 90
        0
176
     1
 40
0.6
176
     1
 40
30.0
176
     1
 62
     7
420
 16777215
176
     1
 90
        0
176
     1
 90
        4
176
     1
 62
     7
176
     1
 62
   257
176
     1
 90
        1
176
     1
 90
        1
176
     1
 40
1.0
176
     1
 90
        8
176
     1
 62
     7
176
     1
 40
1.0
176
     1
 90
        1
176
     1
 90
        6
176
     1
 90
        2
176
     1
 62
     7
176
     1
 90
        5
176
     1
 90
        0
176
     1
 90
        0
176
     1
290
     0
176
     1
 90
        1
176
     1
 40
0.0
176
     1
 90
        0
176
     1
290
     0
176
     1
290
     1
176
     1
290
     1
176
     1
290
     0
176
     1
290
     0
176
     1
290
     0
176
     1
290
     0
176
     1
290
     0
176
     1
290
     0
176
     1
 90
       50
176
     1
 40
0.0
176
     1
 40
1.0
176
     1
 90
        0
176
     1
 62
    18
420
        0
176
     1
 90
       50
176
     1
 90
        3
176
     1
 62
     5
420
      255
176
     1
290
     0
176
     1
 90
       50
176
     1
 90
       50
176
     1
 90
       50
176
     1
290
     0
176
     1
 90
       50
176
     1
 62
   256
176
     0
 40
1.0
176
     0
 90
        2
176
     1
  1
strokes_ogs.tif
176
     1
290
     0
176
     1
 40
1.0
176
     1
 40
1.0
176
     1
  0
VISUALSTYLE
  5
36
102
{ACAD_REACTORS
330
2A
102
}
330
2A
100
AcDbVisualStyle
  2
Brighten
 70
    12
177
     3
291
     1
 70
    58
 90
        2
176
     1
 90
        2
176
     1
 90
        0
176
     1
 90
        0
176
     1
 40
0.6
176
     1
 40
30.0
176
     1
 62
     7
420
 16777215
176
     1
 90
        1
176
     1
 90
        4
176
     1
 62
     7
176
     1
 62
   257
176
     1
 90
        1
176
     1
 90
        1
176
     1
 40
1.0
176
     1
 90
        8
176
     1
 62
     7
176
     1
 40
1.0
176
     1
 90
        1
176
     1
 90
        6
176
     1
 90
        2
176
     1
 62
     7
176
     1
 90
        5
176
     1
 90
        0
176
     1
 90
        0
176
     1
290
     0
176
     1
 90
        1
176
     1
 40
50.0
176
     1
 90
        0
176
     1
290
     0
176
     1
290
     1
176
     1
290
     1
176
     1
290
     0
176
     1
290
     0
176
     1
290
     0
176
     1
290
     0
176
     1
290
     0
176
     1
290
     0
176
     1
 90
       50
176
     1
 40
0.0
176
     1
 40
1.0
176
     1
 90
        0
176
     1
 62
    18
420
        0
176
     1
 90
       50
176
     1
 90
        3
176
     1
 62
     5
420
      255
176
     1
290
     0
176
     1
 90
       50
176
     1
 90
       50
176
     1
 90
       50
176
     1
290
     0
176
     1
 90
       50
176
     1
 62
   256
176
     0
 40
1.0
176
     0
 90
        2
176
     1
  1
strokes_ogs.tif
176
     1
290
     0
176
     1
 40
1.0
176
     1
 40
1.0
176
     1
  0
VISUALSTYLE
  5
3A
102
{ACAD_REACTORS
330
2A
102
}
330
2A
100
AcDbVisualStyle
  2
ColorChange
 70
    16
177
     3
291
     1
 70
    58
 90
        2
176
     1
 90
        2
176
     1
 90
        3
176
     1
 90
        0
176
     1
 40
0.6
176
     1
 40
30.0
176
     1
 62
     8
420
  8421504
176
     1
 90
        1
176
     1
 90
        4
176
     1
 62
     7
176
     1
 62
   257
176
     1
 90
        1
176
     1
 90
        1
176
     1
 40
1.0
176
     1
 90
        8
176
     1
 62
     8
420
  8421504
176
     1
 40
1.0
176
     1
 90
        1
176
     1
 90
        6
176
     1
 90
        2
176
     1
 62
     7
176
     1
 90
        5
176
     1
 90
        0
176
     1
 90
        0
176
     1
290
     0
176
     1
 90
        1
176
     1
 40
0.0
176
     1
 90
        0
176
     1
290
     0
176
     1
290
     1
176
     1
290
     1
176
     1
290
     0
176
     1
290
     0
176
     1
290
     0
176
     1
290
     0
176
     1
290
     0
176
     1
290
     0
176
     1
 90
       50
176
     1
 40
0.0
176
     1
 40
1.0
176
     1
 90
        0
176
     1
 62
    18
420
        0
176
     1
 90
       50
176
     1
 90
        3
176
     1
 62
     5
420
      255
176
     1
290
     0
176
     1
 90
       50
176
     1
 90
       50
176
     1
 90
       50
176
     1
290
     0
176
     1
 90
       50
176
     1
 62
   256
176
     0
 40
1.0
176
     0
 90
        2
176
     1
  1
strokes_ogs.tif
176
     1
290
     0
176
     1
 40
1.0
176
     1
 40
1.0
176
     1
  0
VISUALSTYLE
  5
34
102
{ACAD_REACTORS
330
2A
102
}
330
2A
100
AcDbVisualStyle
  2
Conceptual
 70
     9
177
     3
291
     0
 70
    58
 90
        3
176
     1
 90
        2
176
     1
 90
        0
176
     1
 90
        0
176
     1
 40
0.6
176
     1
 40
30.0
176
     1
 62
     7
420
 16777215
176
     1
 90
        2
176
     1
 90
        2
176
     1
 62
     7
176
     1
 62
   257
176
     1
 90
        1
176
     1
 90
        1
176
     1
 40
179.0
176
     1
 90
        8
176
     1
 62
     7
176
     1
 40
1.0
176
     1
 90
        1
176
     1
 90
        6
176
     1
 90
        2
176
     1
 62
     7
176
     1
 90
        3
176
     1
 90
        0
176
     1
 90
        0
176
     1
290
     0
176
     1
 90
        1
176
     1
 40
0.0
176
     1
 90
        0
176
     1
290
     0
176
     1
290
     1
176
     1
290
     1
176
     1
290
     0
176
     1
290
     0
176
     1
290
     0
176
     1
290
     0
176
     1
290
     0
176
     1
290
     0
176
     1
 90
       50
176
     1
 40
0.0
176
     1
 40
1.0
176
     1
 90
        0
176
     1
 62
    18
420
        0
176
     1
 90
       50
176
     1
 90
        3
176
     1
 62
     5
420
      255
176
     1
290
     0
176
     1
 90
       50
176
     1
 90
       50
176
     1
 90
       50
176
     1
290
     0
176
     1
 90
       50
176
     1
 62
   256
176
     0
 40
1.0
176
     0
 90
        2
176
     1
  1
strokes_ogs.tif
176
     1
290
     0
176
     1
 40
1.0
176
     1
 40
1.0
176
     1
  0
VISUALSTYLE
  5
35
102
{ACAD_REACTORS
330
2A
102
}
330
2A
100
AcDbVisualStyle
  2
Dim
 70
    11
177
     3
291
     1
 70
    58
 90
        2
176
     1
 90
        2
176
     1
 90
        0
176
     1
 90
        0
176
     1
 40
0.6
176
     1
 40
30.0
176
     1
 62
     7
420
 16777215
176
     1
 90
        1
176
     1
 90
        4
176
     1
 62
     7
176
     1
 62
   257
176
     1
 90
        1
176
     1
 90
        1
176
     1
 40
1.0
176
     1
 90
        8
176
     1
 62
     7
176
     1
 40
1.0
176
     1
 90
        1
176
     1
 90
        6
176
     1
 90
        2
176
     1
 62
     7
176
     1
 90
        5
176
     1
 90
        0
176
     1
 90
        0
176
     1
290
     0
176
     1
 90
        1
176
     1
 40
-50.0
176
     1
 90
        0
176
     1
290
     0
176
     1
290
     1
176
     1
290
     1
176
     1
290
     0
176
     1
290
     0
176
     1
290
     0
176
     1
290
     0
176
     1
290
     0
176
     1
290
     0
176
     1
 90
       50
176
     1
 40
0.0
176
     1
 40
1.0
176
     1
 90
        0
176
     1
 62
    18
420
        0
176
     1
 90
       50
176
     1
 90
        3
176
     1
 62
     5
420
      255
176
     1
290
     0
176
     1
 90
       50
176
     1
 90
       50
176
     1
 90
       50
176
     1
290
     0
176
     1
 90
       50
176
     1
 62
   256
176
     0
 40
1.0
176
     0
 90
        2
176
     1
  1
strokes_ogs.tif
176
     1
290
     0
176
     1
 40
1.0
176
     1
 40
1.0
176
     1
  0
VISUALSTYLE
  5
3D
102
{ACAD_REACTORS
330
2A
102
}
330
2A
100
AcDbVisualStyle
  2
EdgeColorOff
 70
    22
177
     3
291
     1
 70
    58
 90
        2
176
     0
 90
        2
176
     0
 90
        0
176
     0
 90
        0
176
     0
 40
0.6
176
     0
 40
30.0
176
     0
 62
     7
420
 16777215
176
     0
 90
        1
176
     0
 90
        4
176
     0
 62
     7
176
     0
 62
   257
176
     0
 90
        1
176
     0
 90
        1
176
     0
 40
1.0
176
     0
 90
        8
176
     2
 62
     7
176
     0
 40
1.0
176
     0
 90
        1
176
     0
 90
        6
176
     0
 90
        2
176
     0
 62
     7
176
     0
 90
        5
176
     0
 90
        0
176
     0
 90
        0
176
     0
290
     0
176
     0
 90
        1
176
     0
 40
0.0
176
     0
 90
        0
176
     0
290
     0
176
     0
290
     1
176
     0
290
     1
176
     0
290
     0
176
     0
290
     0
176
     0
290
     0
176
     0
290
     0
176
     0
290
     0
176
     0
290
     0
176
     0
 90
       50
176
     0
 40
0.0
176
     0
 40
1.0
176
     0
 90
        0
176
     0
 62
    18
420
        0
176
     0
 90
       50
176
     0
 90
        3
176
     0
 62
     5
420
      255
176
     0
290
     0
176
     0
 90
       50
176
     0
 90
       50
176
     0
 90
       50
176
     0
290
     0
176
     0
 90
       50
176
     0
 62
   256
176
     0
 40
1.0
176
     0
 90
        2
176
     0
  1
strokes_ogs.tif
176
     0
290
     0
176
     0
 40
1.0
176
     0
 40
1.0
176
     0
  0
VISUALSTYLE
  5
39
102
{ACAD_REACTORS
330
2A
102
}
330
2A
100
AcDbVisualStyle
  2
Facepattern
 70
    15
177
     3
291
     1
 70
    58
 90
        2
176
     1
 90
        2
176
     1
 90
        0
176
     1
 90
        0
176
     1
 40
0.6
176
     1
 40
30.0
176
     1
 62
     7
420
 16777215
176
     1
 90
        1
176
     1
 90
        4
176
     1
 62
     7
176
     1
 62
   257
176
     1
 90
        1
176
     1
 90
        1
176
     1
 40
1.0
176
     1
 90
        8
176
     1
 62
     7
176
     1
 40
1.0
176
     1
 90
        1
176
     1
 90
        6
176
     1
 90
        2
176
     1
 62
     7
176
     1
 90
        5
176
     1
 90
        0
176
     1
 90
        0
176
     1
290
     0
176
     1
 90
        1
176
     1
 40
0.0
176
     1
 90
        0
176
     1
290
     0
176
     1
290
     1
176
     1
290
     1
176
     1
290
     0
176
     1
290
     0
176
     1
290
     0
176
     1
290
     0
176
     1
290
     0
176
     1
290
     0
176
     1
 90
       50
176
     1
 40
0.0
176
     1
 40
1.0
176
     1
 90
        0
176
     1
 62
    18
420
        0
176
     1
 90
       50
176
     1
 90
        3
176
     1
 62
     5
420
      255
176
     1
290
     0
176
     1
 90
       50
176
     1
 90
       50
176
     1
 90
       50
176
     1
290
     0
176
     1
 90
       50
176
     1
 62
   256
176
     0
 40
1.0
176
     0
 90
        2
176
     1
  1
strokes_ogs.tif
176
     1
290
     0
176
     1
 40
1.0
176
     1
 40
1.0
176
     1
  0
VISUALSTYLE
  5
2B
102
{ACAD_REACTORS
330
2A
102
}
330
2A
100
AcDbVisualStyle
  2
Flat
 70
     0
177
     3
291
     1
 70
    58
 90
        2
176
     1
 90
        1
176
     1
 90
        1
176
     1
 90
        2
176
     1
 40
0.6
176
     1
 40
30.0
176
     1
 62
     7
420
 16777215
176
     1
 90
        0
176
     1
 90
        0
176
     1
 62
     7
176
     1
 62
   257
176
     1
 90
        1
176
     1
 90
        1
176
     1
 40
1.0
176
     1
 90
        8
176
     1
 62
     7
176
     1
 40
1.0
176
     1
 90
        1
176
     1
 90
        6
176
     1
 90
        2
176
     1
 62
     7
176
     1
 90
        5
176
     1
 90
        0
176
     1
 90
        0
176
     1
290
     0
176
     1
 90
       13
176
     1
 40
0.0
176
     1
 90
        0
176
     1
290
     0
176
     1
290
     1
176
     1
290
     1
176
     1
290
     0
176
     1
290
     0
176
     1
290
     0
176
     1
290
     0
176
     1
290
     0
176
     1
290
     0
176
     1
 90
       50
176
     1
 40
0.0
176
     1
 40
1.0
176
     1
 90
        0
176
     1
 62
    18
420
        0
176
     1
 90
       50
176
     1
 90
        3
176
     1
 62
     5
420
      255
176
     1
290
     0
176
     1
 90
       50
176
     1
 90
       50
176
     1
 90
       50
176
     1
290
     0
176
     1
 90
       50
176
     1
 62
   256
176
     0
 40
1.0
176
     0
 90
        2
176
     1
  1
strokes_ogs.tif
176
     1
290
     0
176
     1
 40
1.0
176
     1
 40
1.0
176
     1
  0
VISUALSTYLE
  5
2C
102
{ACAD_REACTORS
330
2A
102
}
330
2A
100
AcDbVisualStyle
  2
FlatWithEdges
 70
     1
177
     3
291
     1
 70
    58
 90
        2
176
     1
 90
        1
176
     1
 90
        1
176
     1
 90
        2
176
     1
 40
0.6
176
     1
 40
30.0
176
     1
 62
     7
420
 16777215
176
     1
 90
        1
176
     1
 90
        0
176
     1
 62
     7
176
     1
 62
   257
176
     1
 90
        1
176
     1
 90
        1
176
     1
 40
1.0
176
     1
 90
        0
176
     1
 62
   257
176
     1
 40
1.0
176
     1
 90
        1
176
     1
 90
        6
176
     1
 90
        2
176
     1
 62
     7
176
     1
 90
        5
176
     1
 90
        0
176
     1
 90
        0
176
     1
290
     0
176
     1
 90
       13
176
     1
 40
0.0
176
     1
 90
        0
176
     1
290
     0
176
     1
290
     1
176
     1
290
     1
176
     1
290
     0
176
     1
290
     0
176
     1
290
     0
176
     1
290
     0
176
     1
290
     0
176
     1
290
     0
176
     1
 90
       50
176
     1
 40
0.0
176
     1
 40
1.0
176
     1
 90
        0
176
     1
 62
    18
420
        0
176
     1
 90
       50
176
     1
 90
        3
176
     1
 62
     5
420
      255
176
     1
290
     0
176
     1
 90
       50
176
     1
 90
       50
176
     1
 90
       50
176
     1
290
     0
176
     1
 90
       50
176
     1
 62
   256
176
     0
 40
1.0
176
     0
 90
        2
176
     1
  1
strokes_ogs.tif
176
     1
290
     0
176
     1
 40
1.0
176
     1
 40
1.0
176
     1
  0
VISUALSTYLE
  5
2D
102
{ACAD_REACTORS
330
2A
102
}
330
2A
100
AcDbVisualStyle
  2
Gouraud
 70
     2
177
     3
291
     1
 70
    58
 90
        2
176
     1
 90
        2
176
     1
 90
        1
176
     1
 90
        2
176
     1
 40
0.6
176
     1
 40
30.0
176
     1
 62
     7
420
 16777215
176
     1
 90
        0
176
     1
 90
        0
176
     1
 62
     7
176
     1
 62
   257
176
     1
 90
        1
176
     1
 90
        1
176
     1
 40
1.0
176
     1
 90
        0
176
     1
 62
     7
176
     1
 40
1.0
176
     1
 90
        1
176
     1
 90
        6
176
     1
 90
        2
176
     1
 62
     7
176
     1
 90
        5
176
     1
 90
        0
176
     1
 90
        0
176
     1
290
     0
176
     1
 90
       13
176
     1
 40
0.0
176
     1
 90
        0
176
     1
290
     0
176
     1
290
     1
176
     1
290
     1
176
     1
290
     0
176
     1
290
     0
176
     1
290
     0
176
     1
290
     0
176
     1
290
     0
176
     1
290
     0
176
     1
 90
       50
176
     1
 40
0.0
176
     1
 40
1.0
176
     1
 90
        0
176
     1
 62
    18
420
        0
176
     1
 90
       50
176
     1
 90
        3
176
     1
 62
     5
420
      255
176
     1
290
     0
176
     1
 90
       50
176
     1
 90
       50
176
     1
 90
       50
176
     1
290
     0
176
     1
 90
       50
176
     1
 62
   256
176
     0
 40
1.0
176
     0
 90
        2
176
     1
  1
strokes_ogs.tif
176
     1
290
     0
176
     1
 40
1.0
176
     1
 40
1.0
176
     1
  0
VISUALSTYLE
  5
2E
102
{ACAD_REACTORS
330
2A
102
}
330
2A
100
AcDbVisualStyle
  2
GouraudWithEdges
 70
     3
177
     3
291
     1
 70
    58
 90
        2
176
     1
 90
        2
176
     1
 90
        1
176
     1
 90
        2
176
     1
 40
0.6
176
     1
 40
30.0
176
     1
 62
     7
420
 16777215
176
     1
 90
        1
176
     1
 90
        0
176
     1
 62
     7
176
     1
 62
   257
176
     1
 90
        1
176
     1
 90
        1
176
     1
 40
1.0
176
     1
 90
        0
176
     1
 62
   257
176
     1
 40
1.0
176
     1
 90
        1
176
     1
 90
        6
176
     1
 90
        2
176
     1
 62
     7
176
     1
 90
        5
176
     1
 90
        0
176
     1
 90
        0
176
     1
290
     0
176
     1
 90
       13
176
     1
 40
0.0
176
     1
 90
        0
176
     1
290
     0
176
     1
290
     1
176
     1
290
     1
176
     1
290
     0
176
     1
290
     0
176
     1
290
     0
176
     1
290
     0
176
     1
290
     0
176
     1
290
     0
176
     1
 90
       50
176
     1
 40
0.0
176
     1
 40
1.0
176
     1
 90
        0
176
     1
 62
    18
420
        0
176
     1
 90
       50
176
     1
 90
        3
176
     1
 62
     5
420
      255
176
     1
290
     0
176
     1
 90
       50
176
     1
 90
       50
176
     1
 90
       50
176
     1
290
     0
176
     1
 90
       50
176
     1
 62
   256
176
     0
 40
1.0
176
     0
 90
        2
176
     1
  1
strokes_ogs.tif
176
     1
290
     0
176
     1
 40
1.0
176
     1
 40
1.0
176
     1
  0
VISUALSTYLE
  5
31
102
{ACAD_REACTORS
330
2A
102
}
330
2A
100
AcDbVisualStyle
  2
Hidden
 70
     6
177
     3
291
     0
 70
    58
 90
        1
176
     1
 90
        2
176
     1
 90
        2
176
     1
 90
        0
176
     1
 40
0.6
176
     1
 40
30.0
176
     1
 62
     7
420
 16777215
176
     1
 90
        2
176
     1
 90
        2
176
     1
 62
     7
176
     1
 62
   257
176
     1
 90
        2
176
     1
 90
        1
176
     1
 40
40.0
176
     1
 90
        0
176
     1
 62
   257
176
     1
 40
1.0
176
     1
 90
        1
176
     1
 90
        6
176
     1
 90
        2
176
     1
 62
     7
176
     1
 90
        3
176
     1
 90
        0
176
     1
 90
        0
176
     1
290
     0
176
     1
 90
        1
176
     1
 40
0.0
176
     1
 90
        0
176
     1
290
     0
176
     1
290
     1
176
     1
290
     1
176
     1
290
     0
176
     1
290
     0
176
     1
290
     0
176
     1
290
     0
176
     1
290
     0
176
     1
290
     0
176
     1
 90
       50
176
     1
 40
0.0
176
     1
 40
1.0
176
     1
 90
        0
176
     1
 62
    18
420
        0
176
     1
 90
       50
176
     1
 90
        3
176
     1
 62
     5
420
      255
176
     1
290
     0
176
     1
 90
       50
176
     1
 90
       50
176
     1
 90
       50
176
     1
290
     0
176
     1
 90
       50
176
     1
 62
   256
176
     0
 40
1.0
176
     0
 90
        2
176
     1
  1
strokes_ogs.tif
176
     1
290
     0
176
     1
 40
1.0
176
     1
 40
1.0
176
     1
  0
VISUALSTYLE
  5
3B
102
{ACAD_REACTORS
330
2A
102
}
330
2A
100
AcDbVisualStyle
  2
JitterOff
 70
    20
177
     3
291
     1
 70
    58
 90
        2
176
     0
 90
        2
176
     0
 90
        0
176
     0
 90
        0
176
     0
 40
0.6
176
     0
 40
30.0
176
     0
 62
     7
420
 16777215
176
     0
 90
        1
176
     0
 90
        4
176
     0
 62
     7
176
     0
 62
   257
176
     0
 90
        1
176
     0
 90
        1
176
     0
 40
1.0
176
     0
 90
       10
176
     2
 62
     7
176
     0
 40
1.0
176
     0
 90
        1
176
     0
 90
        6
176
     0
 90
        2
176
     0
 62
     7
176
     0
 90
        5
176
     0
 90
        0
176
     0
 90
        0
176
     0
290
     0
176
     0
 90
        1
176
     0
 40
0.0
176
     0
 90
        0
176
     0
290
     0
176
     0
290
     1
176
     0
290
     1
176
     0
290
     0
176
     0
290
     0
176
     0
290
     0
176
     0
290
     0
176
     0
290
     0
176
     0
290
     0
176
     0
 90
       50
176
     0
 40
0.0
176
     0
 40
1.0
176
     0
 90
        0
176
     0
 62
    18
420
        0
176
     0
 90
       50
176
     0
 90
        3
176
     0
 62
     5
420
      255
176
     0
290
     0
176
     0
 90
       50
176
     0
 90
       50
176
     0
 90
       50
176
     0
290
     0
176
     0
 90
       50
176
     0
 62
   256
176
     0
 40
1.0
176
     0
 90
        2
176
     0
  1
strokes_ogs.tif
176
     0
290
     0
176
     0
 40
1.0
176
     0
 40
1.0
176
     0
  0
VISUALSTYLE
  5
38
102
{ACAD_REACTORS
330
2A
102
}
330
2A
100
AcDbVisualStyle
  2
Linepattern
 70
    14
177
     3
291
     1
 70
    58
 90
        2
176
     1
 90
        2
176
     1
 90
        0
176
     1
 90
        0
176
     1
 40
0.6
176
     1
 40
30.0
176
     1
 62
     7
420
 16777215
176
     1
 90
        1
176
     1
 90
        4
176
     1
 62
     7
176
     1
 62
   257
176
     1
 90
        7
176
     1
 90
        7
176
     1
 40
1.0
176
     1
 90
        8
176
     1
 62
     7
176
     1
 40
1.0
176
     1
 90
        1
176
     1
 90
        6
176
     1
 90
        2
176
     1
 62
     7
176
     1
 90
        5
176
     1
 90
        0
176
     1
 90
        0
176
     1
290
     0
176
     1
 90
        1
176
     1
 40
0.0
176
     1
 90
        0
176
     1
290
     0
176
     1
290
     1
176
     1
290
     1
176
     1
290
     0
176
     1
290
     0
176
     1
290
     0
176
     1
290
     0
176
     1
290
     0
176
     1
290
     0
176
     1
 90
       50
176
     1
 40
0.0
176
     1
 40
1.0
176
     1
 90
        0
176
     1
 62
    18
420
        0
176
     1
 90
       50
176
     1
 90
        3
176
     1
 62
     5
420
      255
176
     1
290
     0
176
     1
 90
       50
176
     1
 90
       50
176
     1
 90
       50
176
     1
290
     0
176
     1
 90
       50
176
     1
 62
   256
176
     0
 40
1.0
176
     0
 90
        2
176
     1
  1
strokes_ogs.tif
176
     1
290
     0
176
     1
 40
1.0
176
     1
 40
1.0
176
     1
  0
VISUALSTYLE
  5
3C
102
{ACAD_REACTORS
330
2A
102
}
330
2A
100
AcDbVisualStyle
  2
OverhangOff
 70
    21
177
     3
291
     1
 70
    58
 90
        2
176
     0
 90
        2
176
     0
 90
        0
176
     0
 90
        0
176
     0
 40
0.6
176
     0
 40
30.0
176
     0
 62
     7
420
 16777215
176
     0
 90
        1
176
     0
 90
        4
176
     0
 62
     7
176
     0
 62
   257
176
     0
 90
        1
176
     0
 90
        1
176
     0
 40
1.0
176
     0
 90
        9
176
     2
 62
     7
176
     0
 40
1.0
176
     0
 90
        1
176
     0
 90
        6
176
     0
 90
        2
176
     0
 62
     7
176
     0
 90
        5
176
     0
 90
        0
176
     0
 90
        0
176
     0
290
     0
176
     0
 90
        1
176
     0
 40
0.0
176
     0
 90
        0
176
     0
290
     0
176
     0
290
     1
176
     0
290
     1
176
     0
290
     0
176
     0
290
     0
176
     0
290
     0
176
     0
290
     0
176
     0
290
     0
176
     0
290
     0
176
     0
 90
       50
176
     0
 40
0.0
176
     0
 40
1.0
176
     0
 90
        0
176
     0
 62
    18
420
        0
176
     0
 90
       50
176
     0
 90
        3
176
     0
 62
     5
420
      255
176
     0
290
     0
176
     0
 90
       50
176
     0
 90
       50
176
     0
 90
       50
176
     0
290
     0
176
     0
 90
       50
176
     0
 62
   256
176
     0
 40
1.0
176
     0
 90
        2
176
     0
  1
strokes_ogs.tif
176
     0
290
     0
176
     0
 40
1.0
176
     0
 40
1.0
176
     0
  0
VISUALSTYLE
  5
33
102
{ACAD_REACTORS
330
2A
102
}
330
2A
100
AcDbVisualStyle
  2
Realistic
 70
     8
177
     3
291
     0
 70
    58
 90
        2
176
     1
 90
        3
176
     1
 90
        0
176
     1
 90
        2
176
     1
 40
0.6
176
     1
 40
30.0
176
     1
 62
     7
420
 16777215
176
     1
 90
        0
176
     1
 90
        0
176
     1
 62
     7
176
     1
 62
   257
176
     1
 90
        1
176
     1
 90
        1
176
     1
 40
1.0
176
     1
 90
        8
176
     1
 62
   257
176
     1
 40
1.0
176
     1
 90
        1
176
     1
 90
        6
176
     1
 90
        2
176
     1
 62
     7
176
     1
 90
        3
176
     1
 90
        0
176
     1
 90
        0
176
     1
290
     0
176
     1
 90
       13
176
     1
 40
0.0
176
     1
 90
        0
176
     1
290
     0
176
     1
290
     1
176
     1
290
     1
176
     1
290
     0
176
     1
290
     0
176
     1
290
     0
176
     1
290
     0
176
     1
290
     0
176
     1
290
     0
176
     1
 90
       50
176
     1
 40
0.0
176
     1
 40
1.0
176
     1
 90
        0
176
     1
 62
    18
420
        0
176
     1
 90
       50
176
     1
 90
        3
176
     1
 62
     5
420
      255
176
     1
290
     0
176
     1
 90
       50
176
     1
 90
       50
176
     1
 90
       50
176
     1
290
     0
176
     1
 90
       50
176
     1
 62
   256
176
     0
 40
1.0
176
     0
 90
        2
176
     1
  1
strokes_ogs.tif
176
     1
290
     0
176
     1
 40
1.0
176
     1
 40
1.0
176
     1
  0
VISUALSTYLE
  5
42
102
{ACAD_REACTORS
330
2A
102
}
330
2A
100
AcDbVisualStyle
  2
Shaded
 70
    27
177
     3
291
     0
 70
    58
 90
        2
176
     1
 90
        2
176
     1
 90
        1
176
     1
 90
        2
176
     1
 40
0.6
176
     1
 40
30.0
176
     1
 62
     7
420
 16777215
176
     1
 90
        0
176
     1
 90
        4
176
     1
 62
     7
176
     1
 62
   257
176
     1
 90
        1
176
     1
 90
        1
176
     1
 40
1.0
176
     1
 90
        8
176
     1
 62
   257
176
     1
 40
1.0
176
     1
 90
        1
176
     1
 90
        6
176
     1
 90
        2
176
     1
 62
     8
420
  7895160
176
     1
 90
        3
176
     1
 90
        0
176
     1
 90
        0
176
     1
290
     0
176
     1
 90
        5
176
     1
 40
0.0
176
     1
 90
        0
176
     1
290
     0
176
     1
290
     1
176
     1
290
     1
176
     1
290
     0
176
     1
290
     0
176
     1
290
     0
176
     1
290
     0
176
     1
290
     0
176
     1
290
     0
176
     1
 90
       50
176
     1
 40
0.0
176
     1
 40
1.0
176
     1
 90
        0
176
     1
 62
    18
420
        0
176
     1
 90
       50
176
     1
 90
        3
176
     1
 62
     5
420
      255
176
     1
290
     0
176
     1
 90
       50
176
     1
 90
       50
176
     1
 90
       50
176
     1
290
     0
176
     1
 90
       50
176
     1
 62
   256
176
     0
 40
1.0
176
     0
 90
        2
176
     1
  1
strokes_ogs.tif
176
     1
290
     0
176
     1
 40
1.0
176
     1
 40
1.0
176
     1
  0
VISUALSTYLE
  5
41
102
{ACAD_REACTORS
330
2A
102
}
330
2A
100
AcDbVisualStyle
  2
Shaded with edges
 70
    26
177
     3
291
     0
 70
    58
 90
        2
176
     1
 90
        2
176
     1
 90
        1
176
     1
 90
        2
176
     1
 40
0.6
176
     1
 40
30.0
176
     1
 62
     7
420
 16777215
176
     1
 90
        1
176
     1
 90
       10
176
     1
 62
     7
176
     1
 62
   257
176
     1
 90
        2
176
     1
 90
        1
176
     1
 40
1.0
176
     1
 90
        8
176
     1
 62
   257
176
     1
 40
1.0
176
     1
 90
        1
176
     1
 90
        6
176
     1
 90
        2
176
     1
 62
     7
176
     1
 90
        3
176
     1
 90
        0
176
     1
 90
        0
176
     1
290
     0
176
     1
 90
        5
176
     1
 40
0.0
176
     1
 90
        0
176
     1
290
     0
176
     1
290
     1
176
     1
290
     1
176
     1
290
     0
176
     1
290
     0
176
     1
290
     0
176
     1
290
     0
176
     1
290
     0
176
     1
290
     0
176
     1
 90
       50
176
     1
 40
0.0
176
     1
 40
1.0
176
     1
 90
        0
176
     1
 62
    18
420
        0
176
     1
 90
       50
176
     1
 90
        3
176
     1
 62
     5
420
      255
176
     1
290
     0
176
     1
 90
       50
176
     1
 90
       50
176
     1
 90
       50
176
     1
290
     0
176
     1
 90
       50
176
     1
 62
   256
176
     0
 40
1.0
176
     0
 90
        2
176
     1
  1
strokes_ogs.tif
176
     1
290
     0
176
     1
 40
1.0
176
     1
 40
1.0
176
     1
  0
VISUALSTYLE
  5
3E
102
{ACAD_REACTORS
330
2A
102
}
330
2A
100
AcDbVisualStyle
  2
Shades of Gray
 70
    23
177
     3
291
     0
 70
    58
 90
        2
176
     1
 90
        2
176
     1
 90
        3
176
     1
 90
        0
176
     1
 40
0.6
176
     1
 40
30.0
176
     1
 62
     7
420
 16777215
176
     1
 90
        2
176
     1
 90
        2
176
     1
 62
     7
176
     1
 62
     7
176
     1
 90
        1
176
     1
 90
        1
176
     1
 40
40.0
176
     1
 90
        8
176
     1
 62
     7
176
     1
 40
1.0
176
     1
 90
        1
176
     1
 90
        6
176
     1
 90
        2
176
     1
 62
     7
176
     1
 90
        3
176
     1
 90
        0
176
     1
 90
        0
176
     1
290
     0
176
     1
 90
        1
176
     1
 40
0.0
176
     1
 90
        0
176
     1
290
     0
176
     1
290
     1
176
     1
290
     1
176
     1
290
     0
176
     1
290
     0
176
     1
290
     0
176
     1
290
     0
176
     1
290
     0
176
     1
290
     0
176
     1
 90
       50
176
     1
 40
0.0
176
     1
 40
1.0
176
     1
 90
        0
176
     1
 62
    18
420
        0
176
     1
 90
       50
176
     1
 90
        3
176
     1
 62
     5
420
      255
176
     1
290
     0
176
     1
 90
       50
176
     1
 90
       50
176
     1
 90
       50
176
     1
290
     0
176
     1
 90
       50
176
     1
 62
   256
176
     0
 40
1.0
176
     0
 90
        2
176
     1
  1
strokes_ogs.tif
176
     1
290
     0
176
     1
 40
1.0
176
     1
 40
1.0
176
     1
  0
VISUALSTYLE
  5
3F
102
{ACAD_REACTORS
330
2A
102
}
330
2A
100
AcDbVisualStyle
  2
Sketchy
 70
    24
177
     3
291
     0
 70
    58
 90
        1
176
     1
 90
        2
176
     1
 90
        2
176
     1
 90
        0
176
     1
 40
0.6
176
     1
 40
30.0
176
     1
 62
     7
420
 16777215
176
     1
 90
        2
176
     1
 90
        2
176
     1
 62
     7
176
     1
 62
     7
176
     1
 90
        1
176
     1
 90
        1
176
     1
 40
40.0
176
     1
 90
       11
176
     1
 62
     7
176
     1
 40
1.0
176
     1
 90
        1
176
     1
 90
        6
176
     1
 90
        2
176
     1
 62
     7
176
     1
 90
        6
176
     1
 90
        0
176
     1
 90
        0
176
     1
290
     0
176
     1
 90
        1
176
     1
 40
0.0
176
     1
 90
        0
176
     1
290
     0
176
     1
290
     1
176
     1
290
     1
176
     1
290
     0
176
     1
290
     0
176
     1
290
     0
176
     1
290
     0
176
     1
290
     0
176
     1
290
     0
176
     1
 90
       50
176
     1
 40
0.0
176
     1
 40
1.0
176
     1
 90
        0
176
     1
 62
    18
420
        0
176
     1
 90
       50
176
     1
 90
        3
176
     1
 62
     5
420
      255
176
     1
290
     0
176
     1
 90
       50
176
     1
 90
       50
176
     1
 90
       50
176
     1
290
     0
176
     1
 90
       50
176
     1
 62
   256
176
     0
 40
1.0
176
     0
 90
        2
176
     1
  1
strokes_ogs.tif
176
     1
290
     0
176
     1
 40
1.0
176
     1
 40
1.0
176
     1
  0
VISUALSTYLE
  5
37
102
{ACAD_REACTORS
330
2A
102
}
330
2A
100
AcDbVisualStyle
  2
Thicken
 70
    13
177
     3
291
     1
 70
    58
 90
        2
176
     1
 90
        2
176
     1
 90
        0
176
     1
 90
        0
176
     1
 40
0.6
176
     1
 40
30.0
176
     1
 62
     7
420
 16777215
176
     1
 90
        1
176
     1
 90
        4
176
     1
 62
     7
176
     1
 62
   257
176
     1
 90
        1
176
     1
 90
        1
176
     1
 40
1.0
176
     1
 90
       12
176
     1
 62
     7
176
     1
 40
1.0
176
     1
 90
        1
176
     1
 90
        6
176
     1
 90
        2
176
     1
 62
     7
176
     1
 90
        5
176
     1
 90
        0
176
     1
 90
        0
176
     1
290
     0
176
     1
 90
        1
176
     1
 40
0.0
176
     1
 90
        0
176
     1
290
     0
176
     1
290
     1
176
     1
290
     1
176
     1
290
     0
176
     1
290
     0
176
     1
290
     0
176
     1
290
     0
176
     1
290
     0
176
     1
290
     0
176
     1
 90
       50
176
     1
 40
0.0
176
     1
 40
1.0
176
     1
 90
        0
176
     1
 62
    18
420
        0
176
     1
 90
       50
176
     1
 90
        3
176
     1
 62
     5
420
      255
176
     1
290
     0
176
     1
 90
       50
176
     1
 90
       50
176
     1
 90
       50
176
     1
290
     0
176
     1
 90
       50
176
     1
 62
   256
176
     0
 40
1.0
176
     0
 90
        2
176
     1
  1
strokes_ogs.tif
176
     1
290
     0
176
     1
 40
1.0
176
     1
 40
1.0
176
     1
  0
VISUALSTYLE
  5
30
102
{ACAD_REACTORS
330
2A
102
}
330
2A
100
AcDbVisualStyle
  2
Wireframe
 70
     5
177
     3
291
     0
 70
    58
 90
        0
176
     1
 90
        2
176
     1
 90
        0
176
     1
 90
        0
176
     1
 40
0.6
176
     1
 40
30.0
176
     1
 62
     7
420
 16777215
176
     1
 90
        1
176
     1
 90
        4
176
     1
 62
     7
176
     1
 62
   257
176
     1
 90
        1
176
     1
 90
        1
176
     1
 40
1.0
176
     1
 90
        0
176
     1
 62
   257
176
     1
 40
1.0
176
     1
 90
        1
176
     1
 90
        6
176
     1
 90
        2
176
     1
 62
     7
176
     1
 90
        3
176
     1
 90
        0
176
     1
 90
        0
176
     1
290
     0
176
     1
 90
        1
176
     1
 40
0.0
176
     1
 90
        0
176
     1
290
     0
176
     1
290
     1
176
     1
290
     1
176
     1
290
     0
176
     1
290
     0
176
     1
290
     0
176
     1
290
     0
176
     1
290
     0
176
     1
290
     0
176
     1
 90
       50
176
     1
 40
0.0
176
     1
 40
1.0
176
     1
 90
        0
176
     1
 62
    18
420
        0
176
     1
 90
       50
176
     1
 90
        3
176
     1
 62
     5
420
      255
176
     1
290
     0
176
     1
 90
       50
176
     1
 90
       50
176
     1
 90
       50
176
     1
290
     0
176
     1
 90
       50
176
     1
 62
   256
176
     0
 40
1.0
176
     0
 90
        2
176
     1
  1
strokes_ogs.tif
176
     1
290
     0
176
     1
 40
1.0
176
     1
 40
1.0
176
     1
  0
VISUALSTYLE
  5
40
102
{ACAD_REACTORS
330
2A
102
}
330
2A
100
AcDbVisualStyle
  2
X-Ray
 70
    25
177
     3
291
     0
 70
    58
 90
        2
176
     1
 90
        2
176
     1
 90
        1
176
     1
 90
        1
176
     1
 40
0.5
176
     1
 40
30.0
176
     1
 62
     7
420
 16777215
176
     1
 90
        1
176
     1
 90
        0
176
     1
 62
     7
176
     1
 62
   257
176
     1
 90
        1
176
     1
 90
        1
176
     1
 40
1.0
176
     1
 90
        8
176
     1
 62
     7
176
     1
 40
1.0
176
     1
 90
        1
176
     1
 90
        6
176
     1
 90
        2
176
     1
 62
     7
176
     1
 90
        3
176
     1
 90
        0
176
     1
 90
        0
176
     1
290
     0
176
     1
 90
       13
176
     1
 40
0.0
176
     1
 90
        0
176
     1
290
     0
176
     1
290
     1
176
     1
290
     1
176
     1
290
     0
176
     1
290
     0
176
     1
290
     0
176
     1
290
     0
176
     1
290
     0
176
     1
290
     0
176
     1
 90
       50
176
     1
 40
0.0
176
     1
 40
1.0
176
     1
 90
        0
176
     1
 62
    18
420
        0
176
     1
 90
       50
176
     1
 90
        3
176
     1
 62
     5
420
      255
176
     1
290
     0
176
     1
 90
       50
176
     1
 90
       50
176
     1
 90
       50
176
     1
290
     0
176
     1
 90
       50
176
     1
 62
   256
176
     0
 40
1.0
176
     0
 90
        2
176
     1
  1
strokes_ogs.tif
176
     1
290
     0
176
     1
 40
1.0
176
     1
 40
1.0
176
     1
  0
DICTIONARYVAR
  5
90
102
{ACAD_REACTORS
330
8F
102
}
330
8F
100
DictionaryVariables
280
     0
  1
1:1
  0
DICTIONARYVAR
  5
95
102
{ACAD_REACTORS
330
8F
102
}
330
8F
100
DictionaryVariables
280
     0
  1
Standard
  0
DICTIONARYVAR
  5
94
102
{ACAD_REACTORS
330
8F
102
}
330
8F
100
DictionaryVariables
280
     0
  1
Standard
  0
DICTIONARY
  5
91
330
5A
100
AcDbDictionary
280
     1
281
     1
  3
ACAD_ROUNDTRIP_2008_TABLESTYLE_CELLSTYLEMAP
360
92
  0
CELLSTYLEMAP
  5
92
102
{ACAD_REACTORS
330
91
102
}
330
91
100
AcDbCellStyleMap
 90
        3
300
CELLSTYLE
  1
TABLEFORMAT_BEGIN
 90
        5
170
     1
 91
        0
 92
    32768
 62
   257
 93
        1
300
CONTENTFORMAT
  1
CONTENTFORMAT_BEGIN
 90
        0
 91
        0
 92
        4
 93
        0
300

 40
0.0
140
1.0
 94
        5
 62
     0
340
11
144
0.25
309
CONTENTFORMAT_END
171
     1
301
MARGIN
  1
CELLMARGIN_BEGIN
 40
0.06
 40
0.06
 40
0.06
 40
0.06
 40
0.06
 40
0.06
309
CELLMARGIN_END
 94
        6
 95
        1
302
GRIDFORMAT
  1
GRIDFORMAT_BEGIN
 90
        0
 91
        1
 62
     0
 92
       -2
340
14
 93
        0
 40
0.045
309
GRIDFORMAT_END
 95
        2
302
GRIDFORMAT
  1
GRIDFORMAT_BEGIN
 90
        0
 91
        1
 62
     0
 92
       -2
340
14
 93
        0
 40
0.045
309
GRIDFORMAT_END
 95
        4
302
GRIDFORMAT
  1
GRIDFORMAT_BEGIN
 90
        0
 91
        1
 62
     0
 92
       -2
340
14
 93
        0
 40
0.045
309
GRIDFORMAT_END
 95
        8
302
GRIDFORMAT
  1
GRIDFORMAT_BEGIN
 90
        0
 91
        1
 62
     0
 92
       -2
340
14
 93
        0
 40
0.045
309
GRIDFORMAT_END
 95
       16
302
GRIDFORMAT
  1
GRIDFORMAT_BEGIN
 90
        0
 91
        1
 62
     0
 92
       -2
340
14
 93
        0
 40
0.045
309
GRIDFORMAT_END
 95
       32
302
GRIDFORMAT
  1
GRIDFORMAT_BEGIN
 90
        0
 91
        1
 62
     0
 92
       -2
340
14
 93
        0
 40
0.045
309
GRIDFORMAT_END
309
TABLEFORMAT_END
  1
CELLSTYLE_BEGIN
 90
        1
 91
        1
300
_TITLE
309
CELLSTYLE_END
300
CELLSTYLE
  1
TABLEFORMAT_BEGIN
 90
        5
170
     1
 91
        0
 92
        0
 62
   257
 93
        1
300
CONTENTFORMAT
  1
CONTENTFORMAT_BEGIN
 90
        0
 91
        0
 92
        4
 93
        0
300

 40
0.0
140
1.0
 94
        5
 62
     0
340
11
144
0.18
309
CONTENTFORMAT_END
171
     1
301
MARGIN
  1
CELLMARGIN_BEGIN
 40
0.06
 40
0.06
 40
0.06
 40
0.06
 40
0.06
 40
0.06
309
CELLMARGIN_END
 94
        6
 95
        1
302
GRIDFORMAT
  1
GRIDFORMAT_BEGIN
 90
        0
 91
        1
 62
     0
 92
       -2
340
14
 93
        0
 40
0.045
309
GRIDFORMAT_END
 95
        2
302
GRIDFORMAT
  1
GRIDFORMAT_BEGIN
 90
        0
 91
        1
 62
     0
 92
       -2
340
14
 93
        0
 40
0.045
309
GRIDFORMAT_END
 95
        4
302
GRIDFORMAT
  1
GRIDFORMAT_BEGIN
 90
        0
 91
        1
 62
     0
 92
       -2
340
14
 93
        0
 40
0.045
309
GRIDFORMAT_END
 95
        8
302
GRIDFORMAT
  1
GRIDFORMAT_BEGIN
 90
        0
 91
        1
 62
     0
 92
       -2
340
14
 93
        0
 40
0.045
309
GRIDFORMAT_END
 95
       16
302
GRIDFORMAT
  1
GRIDFORMAT_BEGIN
 90
        0
 91
        1
 62
     0
 92
       -2
340
14
 93
        0
 40
0.045
309
GRIDFORMAT_END
 95
       32
302
GRIDFORMAT
  1
GRIDFORMAT_BEGIN
 90
        0
 91
        1
 62
     0
 92
       -2
340
14
 93
        0
 40
0.045
309
GRIDFORMAT_END
309
TABLEFORMAT_END
  1
CELLSTYLE_BEGIN
 90
        2
 91
        1
300
_HEADER
309
CELLSTYLE_END
300
CELLSTYLE
  1
TABLEFORMAT_BEGIN
 90
        5
170
     1
 91
        0
 92
        0
 62
   257
 93
        1
300
CONTENTFORMAT
  1
CONTENTFORMAT_BEGIN
 90
        0
 91
        0
 92
        4
 93
        0
300

 40
0.0
140
1.0
 94
        2
 62
     0
340
11
144
0.18
309
CONTENTFORMAT_END
171
     1
301
MARGIN
  1
CELLMARGIN_BEGIN
 40
0.06
 40
0.06
 40
0.06
 40
0.06
 40
0.06
 40
0.06
309
CELLMARGIN_END
 94
        6
 95
        1
302
GRIDFORMAT
  1
GRIDFORMAT_BEGIN
 90
        0
 91
        1
 62
     0
 92
       -2
340
14
 93
        0
 40
0.045
309
GRIDFORMAT_END
 95
        2
302
GRIDFORMAT
  1
GRIDFORMAT_BEGIN
 90
        0
 91
        1
 62
     0
 92
       -2
340
14
 93
        0
 40
0.045
309
GRIDFORMAT_END
 95
        4
302
GRIDFORMAT
  1
GRIDFORMAT_BEGIN
 90
        0
 91
        1
 62
     0
 92
       -2
340
14
 93
        0
 40
0.045
309
GRIDFORMAT_END
 95
        8
302
GRIDFORMAT
  1
GRIDFORMAT_BEGIN
 90
        0
 91
        1
 62
     0
 92
       -2
340
14
 93
        0
 40
0.045
309
GRIDFORMAT_END
 95
       16
302
GRIDFORMAT
  1
GRIDFORMAT_BEGIN
 90
        0
 91
        1
 62
     0
 92
       -2
340
14
 93
        0
 40
0.045
309
GRIDFORMAT_END
 95
       32
302
GRIDFORMAT
  1
GRIDFORMAT_BEGIN
 90
        0
 91
        1
 62
     0
 92
       -2
340
14
 93
        0
 40
0.045
309
GRIDFORMAT_END
309
TABLEFORMAT_END
  1
CELLSTYLE_BEGIN
 90
        3
 91
        2
300
_DATA
309
CELLSTYLE_END
  0
ENDSEC
  0
EOF
